<?xml version="1.0" encoding="UTF-8" standalone="no"?>
<svg
   xmlns:dc="http://purl.org/dc/elements/1.1/"
   xmlns:cc="http://creativecommons.org/ns#"
   xmlns:rdf="http://www.w3.org/1999/02/22-rdf-syntax-ns#"
   xmlns:svg="http://www.w3.org/2000/svg"
   xmlns="http://www.w3.org/2000/svg"
   xmlns:sodipodi="http://sodipodi.sourceforge.net/DTD/sodipodi-0.dtd"
   xmlns:inkscape="http://www.inkscape.org/namespaces/inkscape"
   version="1.0"
   width="213.65829"
   height="250.26746"
   id="svg2780"
   sodipodi:docname="1.svg">
  <metadata
     id="metadata39">
    <rdf:RDF>
      <cc:Work
         rdf:about="">
        <dc:format>image/svg+xml</dc:format>
        <dc:type
           rdf:resource="http://purl.org/dc/dcmitype/StillImage" />
      </cc:Work>
    </rdf:RDF>
  </metadata>
  <sodipodi:namedview
     pagecolor="#ffffff"
     bordercolor="#666666"
     borderopacity="1"
     objecttolerance="10"
     gridtolerance="10"
     guidetolerance="10"
     inkscape:pageopacity="0"
     inkscape:pageshadow="2"
     inkscape:window-width="640"
     inkscape:window-height="480"
     id="namedview37" />
  <defs
     id="defs2782" />
  <g
     transform="translate(-10.332847,-811.81844)"
     id="layer1">
    <path
       d="M 11.347046,812.83265 L 15.194858,974.47668 C 17.943288,1089.9367 216.38069,1089.9367 219.12913,974.47668 L 222.97694,812.83265 L 11.347046,812.83265 z "
       style="fill:#ffffff;fill-opacity:1;fill-rule:evenodd;stroke:#000000;stroke-width:2.02839899;stroke-linecap:butt;stroke-miterlimit:4;stroke-dashoffset:0;stroke-opacity:1"
       id="path3282" />
    <path
       d="M 184.09375,34 C 173.50879,37.362966 168.51034,42.976172 167.78125,50.09375 C 166.74097,45.821621 166.72416,41.397732 168.5,36.65625 C 163.2667,43.045059 160.52478,50.016171 159.28125,57.34375 C 157.14872,53.668222 157.10013,49.781894 157.28125,45.875 C 154.47528,51.541379 153.2995,58.546979 153.3125,66.5625 C 151.73504,63.01284 150.50715,59.359931 150.5625,55.34375 C 148.71623,63.064169 148.46944,71.403851 151.3125,81 C 148.00425,78.536136 146.04015,74.591628 144.84375,69.78125 C 145.26627,81.165074 146.83861,92.55368 150.3125,103.9375 C 147.50567,99.482815 145.46936,94.670297 143.59375,89.75 C 145.33633,113.68914 154.94812,139.82306 158.5,163.78125 L 157.8125,170.5 L 146.09375,216.625 C 150.6639,221.48597 160.19136,222.36062 168.75,217.375 C 165.34316,217.74892 162.44096,216.74533 160.03125,215.125 C 164.77367,215.25681 169.33986,213.90144 173.75,211.375 C 170.12066,210.9046 167.00458,210.20466 165.03125,208.90625 C 170.70124,207.4302 174.94025,204.5238 178.96875,201.40625 C 175.29391,202.28499 171.42345,203.35936 169.4375,201.96875 C 175.25058,199.55139 180.06152,195.28213 182.71875,189.875 C 180.89647,191.48826 178.71804,192.45209 175.75,191.9375 C 179.36306,187.41457 183.48911,183.34245 185.21875,177.25 C 182.33417,180.88207 179.21542,183.07168 176,184.71875 C 180.30339,177.88489 184.13427,171.45089 185.46875,165.28125 C 183.75784,168.58029 181.37337,170.69375 178.5,172 C 182.94205,164.44478 185.69595,156.27018 188.34375,148.0625 C 185.30321,150.37768 182.59461,153.21905 180.21875,156.53125 C 181.73382,148.19117 185.1844,140.57171 188.46875,132.875 C 185.51252,135.6 182.80149,139.03943 180.34375,143.09375 C 181.08465,133.78379 185.5174,126.3141 189.8125,118.78125 C 185.89023,121.00978 182.77049,123.94211 180.34375,127.5 C 180.7727,119.03596 184.33206,110.82173 188.71875,102.6875 C 185.31214,104.91339 182.71743,107.75952 180.46875,110.8125 C 181.00189,104.80667 184.35221,99.315836 188.34375,93.96875 C 184.42687,94.788509 181.39157,97.242878 178.96875,100.71875 C 179.59747,96.744214 180.63068,93.022467 182.03125,89.5625 C 184.85012,87.286902 187.14907,83.580785 189.34375,78.40625 C 189.93279,82.228556 190.03639,86.740193 190.15625,90.5625 C 193.40658,87.435734 195.15768,82.705265 195.15625,77.90625 C 197.22373,80.762306 197.11725,84.189698 197.1875,88.25 C 201.25187,84.409637 201.97226,78.121905 198.28125,68.40625 C 202.67066,72.071374 204.83457,76.678245 205.40625,82.5 C 208.03774,74.146704 206.23526,68.609343 200.40625,63.78125 C 204.36785,64.001848 207.23605,67.376559 210.8125,71.25 C 208.47937,61.743787 203.25518,57.918772 197.6875,55.34375 C 201.89865,54.449021 206.56282,56.464447 210.65625,58.5625 C 205.26963,50.807901 198.87527,48.607581 191.84375,49.3125 C 195.41668,47.209869 200.02752,45.981162 206.15625,46.875 C 200.48462,41.773449 193.50267,41.481476 185.71875,44.125 C 187.27357,41.672027 190.84636,39.343237 195.6875,37.125 C 187.9574,37.396574 182.15345,39.794113 176.75,42.625 C 177.51387,40.456554 180.57896,36.882902 184.09375,34 z "
       transform="translate(0,804.33069)"
       style="opacity:1;color:#000000;fill:#d93f21;fill-opacity:1;fill-rule:evenodd;stroke:none;stroke-width:1px;stroke-linecap:butt;stroke-linejoin:miter;marker:none;marker-start:none;marker-mid:none;marker-end:none;stroke-miterlimit:4;stroke-dasharray:none;stroke-dashoffset:0;stroke-opacity:1;visibility:visible;display:inline;overflow:visible;enable-background:accumulate"
       id="path6221" />
    <path
       d="M 146.07857,216.62212 C 150.64872,221.48309 160.20448,222.35557 168.76312,217.36995 C 165.35628,217.74387 162.44801,216.74675 160.0383,215.12642 C 164.78072,215.25823 169.3386,213.91365 173.74874,211.38721 C 170.1194,210.91681 166.99724,210.19281 165.02391,208.8944 C 170.6939,207.41835 174.95514,204.53353 178.98364,201.41598 C 175.3088,202.29472 171.4346,203.36747 169.44865,201.97686 C 175.26173,199.5595 180.06562,195.29387 182.72285,189.88674 C 180.90057,191.5 178.71103,192.4579 175.74299,191.94331 C 179.35605,187.42038 183.48602,183.32819 185.21566,177.23574 C 182.33108,180.86781 179.20769,183.06709 175.99227,184.71416 C 180.29566,177.8803 184.13046,171.4399 185.46494,165.27026 C 183.75403,168.5693 181.35845,170.69459 178.48508,172.00084 C 182.92713,164.44562 185.68387,156.27756 188.33167,148.06988 C 185.29113,150.38506 182.6059,153.23323 180.23004,156.54543 C 181.74511,148.20535 185.17196,140.56046 188.45631,132.86375 C 185.50008,135.58875 182.81242,139.02994 180.35468,143.08426 C 181.09558,133.7743 185.53226,126.31223 189.82736,118.77938 C 185.90509,121.00791 182.78142,123.94632 180.35468,127.50421 C 180.78363,119.04017 184.3189,110.835 188.70559,102.70077 C 185.29898,104.92666 182.728,107.74941 180.47932,110.80239 C 181.01246,104.79656 184.34013,99.323025 188.33167,93.975939 C 184.41479,94.795698 181.40646,97.230648 178.98364,100.70652 C 179.6455,96.522471 180.74765,92.631946 182.26355,89.01726"
       transform="translate(0,804.33069)"
       style="opacity:1;color:#000000;fill:none;fill-opacity:1;fill-rule:evenodd;stroke:#000000;stroke-width:1px;stroke-linecap:butt;stroke-linejoin:round;marker:none;marker-start:none;marker-mid:none;marker-end:none;stroke-miterlimit:4;stroke-dasharray:none;stroke-dashoffset:0;stroke-opacity:1;visibility:visible;display:inline;overflow:visible;enable-background:accumulate"
       id="path5248" />
    <path
       d="M 100.29533,960.19684 C 99.244454,959.56122 93.052542,952.19802 81.19851,964.71306 C 69.386072,977.18419 84.338499,1006.3098 109.07545,1020.6657"
       style="opacity:1;color:#000000;fill:#d93f21;fill-opacity:1;fill-rule:evenodd;stroke:#000000;stroke-width:1px;stroke-linecap:butt;stroke-linejoin:miter;marker:none;marker-start:none;marker-mid:none;marker-end:none;stroke-miterlimit:4;stroke-dasharray:none;stroke-dashoffset:0;stroke-opacity:1;visibility:visible;display:inline;overflow:visible;enable-background:accumulate"
       id="path5242" />
    <path
       d="M 110.43141,1012.7266 L 115.74811,1025.2665 L 64.861195,1021.7623 L 61.354395,1015.2815 L 52.598256,1015.2193 C 59.340772,998.16814 83.381547,1017.6367 110.43141,1012.7266 z "
       style="opacity:1;color:#000000;fill:#d93f21;fill-opacity:1;fill-rule:evenodd;stroke:#000000;stroke-width:1px;stroke-linecap:butt;stroke-linejoin:miter;marker:none;marker-start:none;marker-mid:none;marker-end:none;stroke-miterlimit:4;stroke-dasharray:none;stroke-dashoffset:0;stroke-opacity:1;visibility:visible;display:inline;overflow:visible;enable-background:accumulate"
       id="path5240" />
    <path
       d="M 100.47286,217.71337 L 77.734262,228.99453 L 65.39549,218.24217 L 100.47286,217.71337 z "
       transform="translate(0,804.33069)"
       style="fill:#d93f21;fill-opacity:1;fill-rule:evenodd;stroke:none;stroke-width:1px;stroke-linecap:butt;stroke-linejoin:miter;stroke-opacity:1"
       id="path9138" />
    <path
       d="M 61.517591,206.43221 C 56.829933,206.52196 52.493981,207.46167 50.588964,214.27614 C 54.026193,210.42899 58.609165,212.63069 60.459981,211.72026"
       transform="translate(0,804.33069)"
       style="opacity:1;color:#000000;fill:#d93f21;fill-opacity:1;fill-rule:evenodd;stroke:#000000;stroke-width:1px;stroke-linecap:round;stroke-linejoin:round;marker:none;marker-start:none;marker-mid:none;marker-end:none;stroke-miterlimit:4;stroke-dasharray:none;stroke-dashoffset:0;stroke-opacity:1;visibility:visible;display:inline;overflow:visible;enable-background:accumulate"
       id="path5244" />
    <path
       d="M 76.588519,114.94903 C 72.676218,115.11602 69.9542,115.10484 65.131089,114.8609 L 61.958261,124.11497 L 81.700296,124.37937 L 76.588519,114.94903 z "
       transform="translate(0,804.33069)"
       style="opacity:1;color:#000000;fill:#d93f21;fill-opacity:1;fill-rule:evenodd;stroke:#000000;stroke-width:1px;stroke-linecap:butt;stroke-linejoin:miter;marker:none;marker-start:none;marker-mid:none;marker-end:none;stroke-miterlimit:4;stroke-dasharray:none;stroke-dashoffset:0;stroke-opacity:1;visibility:visible;display:inline;overflow:visible;enable-background:accumulate"
       id="path5209" />
    <path
       d="M 58.224031,96.535496 C 61.118343,97.988169 64.661048,98.609029 68.053669,98.400674 L 70.297196,95.845545 C 67.544167,96.332758 63.498583,95.763762 60.575243,93.664338 L 58.224031,96.535496 z "
       transform="translate(0,804.33069)"
       style="opacity:1;color:#000000;fill:none;fill-opacity:0.75;fill-rule:evenodd;stroke:#000000;stroke-width:1px;stroke-linecap:butt;stroke-linejoin:miter;marker:none;marker-start:none;marker-mid:none;marker-end:none;stroke-miterlimit:4;stroke-dasharray:none;stroke-dashoffset:0;stroke-opacity:1;visibility:visible;display:inline;overflow:visible;enable-background:accumulate"
       id="path5195" />
    <path
       d="M 65.6855,53.779404 C 62.138508,47.376029 63.759617,28.157325 69.673993,24.239625 L 79.520586,46.986501"
       transform="translate(0,804.33069)"
       style="opacity:1;color:#000000;fill:#d93f21;fill-opacity:1;fill-rule:evenodd;stroke:#000000;stroke-width:1px;stroke-linecap:butt;stroke-linejoin:miter;marker:none;marker-start:none;marker-mid:none;marker-end:none;stroke-miterlimit:4;stroke-dasharray:none;stroke-dashoffset:0;stroke-opacity:1;visibility:visible;display:inline;overflow:visible;enable-background:accumulate"
       id="path5199" />
    <path
       d="M 77.214738,42.312486 C 74.670364,32.746386 70.470603,22.943803 71.107358,13.83215 C 69.173412,15.887799 69.674185,19.050138 69.424712,21.871457 C 67.087369,19.93752 65.98593,15.7123 65.62318,12.585746 C 62.632539,23.39997 72.246554,32.549428 77.214738,42.312486 z "
       transform="translate(0,804.33069)"
       style="opacity:1;color:#000000;fill:#d93f21;fill-opacity:1;fill-rule:evenodd;stroke:#000000;stroke-width:1px;stroke-linecap:butt;stroke-linejoin:round;marker:none;marker-start:none;marker-mid:none;marker-end:none;stroke-miterlimit:4;stroke-dasharray:none;stroke-dashoffset:0;stroke-opacity:1;visibility:visible;display:inline;overflow:visible;enable-background:accumulate"
       id="path5201" />
    <path
       d="M 159.53973,172.99796 C 157.57084,146.65484 145.55465,116.78636 143.58576,89.738165 C 145.46136,94.658464 147.50951,99.492485 150.31634,103.94717 C 146.84246,92.563346 145.25468,81.179522 144.83216,69.795698 C 146.02855,74.606078 148.00522,78.549471 151.31347,81.013335 C 148.47042,71.417187 148.71935,63.057828 150.56562,55.337409 C 150.51026,59.353591 151.73025,63.005387 153.30771,66.555047 C 153.29471,58.539525 154.49024,51.531117 157.29621,45.864738 C 157.11508,49.771632 157.15792,53.656128 159.29045,57.331656 C 160.53398,50.004078 163.28054,43.030156 168.51384,36.641347 C 166.738,41.382828 166.72572,45.830383 167.766,50.102512 C 168.4951,42.984934 173.50267,37.350358 184.08763,33.987392 C 180.57284,36.870294 177.50398,40.455641 176.74011,42.624087 C 182.14356,39.793201 187.95535,37.411483 195.68545,37.139909 C 190.84432,39.358145 187.26904,41.666799 185.71422,44.119772 C 193.49814,41.47625 200.48362,41.76031 206.15525,46.861861 C 200.02651,45.968024 195.43104,47.22439 191.85811,49.327021 C 198.88963,48.622104 205.25568,50.823461 210.6423,58.57806 C 206.54887,56.480007 201.89085,54.44268 197.6797,55.337409 C 203.24738,57.912432 208.47033,61.7424 210.80346,71.248613 C 207.22702,67.37517 204.38339,64.005907 200.42179,63.785309 C 206.25079,68.613402 208.0389,74.155724 205.40741,82.50902 C 204.83573,76.687263 202.67093,72.068392 198.28152,68.403268 C 201.97253,78.118922 201.24551,84.402116 197.18114,88.242479 C 197.11089,84.182175 197.23925,80.747118 195.17177,77.891062 C 195.1732,82.690075 193.42137,87.447375 190.17104,90.574141 C 190.05118,86.751835 189.93921,82.224456 189.35017,78.40215 C 186.1915,85.84956 182.81259,90.256653 177.98652,91.732411 C 181.7083,86.951261 183.25791,81.762827 183.22141,76.276999 C 181.80834,80.597385 178.45058,82.884957 173.9829,84.150731 C 177.27195,80.640973 178.98385,76.431434 178.98364,71.042102 C 176.16088,77.243969 172.14503,79.40767 166.27032,75.279876 C 175.19854,73.004595 176.63563,69.421339 170.75737,64.5608"
       transform="translate(0,804.33069)"
       style="opacity:1;color:#000000;fill:none;fill-opacity:1;fill-rule:evenodd;stroke:#000000;stroke-width:1px;stroke-linecap:round;stroke-linejoin:round;marker:none;marker-start:none;marker-mid:none;marker-end:none;stroke-miterlimit:4;stroke-dasharray:none;stroke-dashoffset:0;stroke-opacity:1;visibility:visible;display:inline;overflow:visible;enable-background:accumulate"
       id="path5250" />
    <path
       d="M 83.135158,48.980748 C 95.765387,48.731467 107.27385,70.709728 107.44004,72.537787 C 107.60763,74.381234 108.34386,75.966514 109.55893,76.40164 C 115.70785,78.60362 130.99895,96.481881 131.74492,104.07181 C 131.91733,105.82604 133.73158,107.49966 135.35949,109.43135 C 143.06514,118.57494 182.6704,186.91874 148.07282,220.85988 C 146.67468,222.2315 143.17471,222.34601 139.97118,220.73524 L 122.4077,211.90412 L 99.712331,160.53392 C 87.580665,147.48822 83.550623,137.93246 84.755484,129.6231 C 73.330112,118.15618 71.252772,109.92991 83.259799,89.364243 L 83.135158,48.980748 z "
       transform="translate(0,804.33069)"
       style="opacity:1;color:#000000;fill:#d93f21;fill-opacity:1;fill-rule:evenodd;stroke:#000000;stroke-width:1px;stroke-linecap:butt;stroke-linejoin:miter;marker:none;marker-start:none;marker-mid:none;marker-end:none;stroke-miterlimit:4;stroke-dasharray:none;stroke-dashoffset:0;stroke-opacity:1;visibility:visible;display:inline;overflow:visible;enable-background:accumulate"
       id="path5203" />
    <path
       d="M 44.398186,925.29938 C 35.442164,920.22144 37.878955,914.59672 40.658974,914.95422 C 43.377676,915.30384 42.902501,923.11817 44.398186,925.29938 z "
       style="opacity:1;color:#000000;fill:#d93f21;fill-opacity:1;fill-rule:evenodd;stroke:#000000;stroke-width:1px;stroke-linecap:butt;stroke-linejoin:miter;marker:none;marker-start:none;marker-mid:none;marker-end:none;stroke-miterlimit:4;stroke-dasharray:none;stroke-dashoffset:0;stroke-opacity:1;visibility:visible;display:inline;overflow:visible;enable-background:accumulate"
       id="path5217" />
    <path
       d="M 58.873568,100.75944 C 27.70348,106.78194 49.501977,130.69565 49.707623,132.04704 C 52.792316,130.19622 55.877009,128.34541 58.961702,126.49459 L 58.873568,100.75944 z "
       transform="translate(0,804.33069)"
       style="opacity:1;color:#000000;fill:#efd905;fill-opacity:1;fill-rule:evenodd;stroke:#000000;stroke-width:1px;stroke-linecap:butt;stroke-linejoin:round;marker:none;marker-start:none;marker-mid:none;marker-end:none;stroke-miterlimit:4;stroke-dasharray:none;stroke-dashoffset:0;stroke-opacity:1;visibility:visible;display:inline;overflow:visible;enable-background:accumulate"
       id="path5213" />
    <path
       d="M 67.64324,101.51226 C 70.477132,101.05508 104.37699,82.64328 84.241801,61.700334 C 91.428175,57.414731 95.551241,36.329746 89.992216,31.131354 L 74.78425,47.111142 C 73.975607,47.236857 73.234343,47.722577 69.181695,48.825864 C 65.211037,49.906832 58.862354,56.76375 54.07882,68.622306 C 49.276851,80.52656 49.638963,85.389037 49.606886,89.738165 C 49.574797,94.088835 51.714174,91.187091 52.275962,92.276337 C 52.87335,93.434607 51.618871,94.707512 52.789645,95.516988 C 53.917673,96.296908 55.965975,98.795628 58.286351,97.158698 C 60.647496,95.493009 65.716417,88.216965 69.461219,91.145716 C 73.24839,94.107603 66.882871,98.21814 65.502968,99.840301 C 64.079088,101.51416 64.821898,101.96742 67.64324,101.51226 z "
       transform="translate(0,804.33069)"
       style="fill:#d93f21;fill-opacity:1;fill-rule:evenodd;stroke:#000000;stroke-width:1px;stroke-linecap:butt;stroke-linejoin:miter;stroke-opacity:1"
       id="path2272" />
    <path
       d="M 58.873568,100.75944 C 60.48718,117.00549 51.969451,120.64836 54.202462,129.13861 C 69.244571,121.79533 70.401275,108.14889 58.873568,100.75944 z "
       transform="translate(0,804.33069)"
       style="opacity:1;color:#000000;fill:#efd905;fill-opacity:1;fill-rule:evenodd;stroke:#000000;stroke-width:1px;stroke-linecap:butt;stroke-linejoin:round;marker:none;marker-start:none;marker-mid:none;marker-end:none;stroke-miterlimit:4;stroke-dasharray:none;stroke-dashoffset:0;stroke-opacity:1;visibility:visible;display:inline;overflow:visible;enable-background:accumulate"
       id="path5215" />
    <path
       d="M 76.136468 78.858116 A 3.4699187 3.4448979 0 1 1  69.196631,78.858116 A 3.4699187 3.4448979 0 1 1  76.136468 78.858116 z"
       transform="matrix(0.8722337,-0.5475407,0.53167,0.8469516,-39.075948,849.84204)"
       style="opacity:1;color:#000000;fill:#000000;fill-opacity:1;fill-rule:evenodd;stroke:none;stroke-width:1pt;stroke-linecap:butt;stroke-linejoin:miter;marker:none;marker-start:none;marker-mid:none;marker-end:none;stroke-miterlimit:4;stroke-dasharray:none;stroke-dashoffset:0;stroke-opacity:1;visibility:visible;display:inline;overflow:visible;enable-background:accumulate"
       id="path3245" />
    <path
       d="M 76.136468 78.858116 A 3.4699187 3.4448979 0 1 1  69.196631,78.858116 A 3.4699187 3.4448979 0 1 1  76.136468 78.858116 z"
       transform="matrix(0.2380531,-0.1934118,0.1451052,0.299175,38.768208,866.98783)"
       style="opacity:1;color:#000000;fill:#ffffff;fill-opacity:1;fill-rule:evenodd;stroke:none;stroke-width:1pt;stroke-linecap:butt;stroke-linejoin:miter;marker:none;marker-start:none;marker-mid:none;marker-end:none;stroke-miterlimit:4;stroke-dasharray:none;stroke-dashoffset:0;stroke-opacity:1;visibility:visible;display:inline;overflow:visible;enable-background:accumulate"
       id="path4216" />
    <path
       d="M 62.222663,79.29879 L 65.219222,74.803952"
       transform="translate(0,804.33069)"
       style="opacity:1;color:#000000;fill:none;fill-opacity:0.75;fill-rule:evenodd;stroke:#000000;stroke-width:1px;stroke-linecap:round;stroke-linejoin:miter;marker:none;marker-start:none;marker-mid:none;marker-end:none;stroke-miterlimit:4;stroke-dasharray:none;stroke-dashoffset:0;stroke-opacity:1;visibility:visible;display:inline;overflow:visible;enable-background:accumulate"
       id="path4218" />
    <path
       d="M 44.448421,918.40962 C 44.576495,921.44673 40.349972,917.85675 39.394979,915.12179 C 38.459358,912.44231 42.216865,907.45408 42.760394,909.67488 C 43.319835,911.96069 44.320348,915.31018 44.448421,918.40962 z "
       style="opacity:1;color:#000000;fill:#d93f21;fill-opacity:1;fill-rule:evenodd;stroke:#000000;stroke-width:1px;stroke-linecap:butt;stroke-linejoin:miter;marker:none;marker-start:none;marker-mid:none;marker-end:none;stroke-miterlimit:4;stroke-dasharray:none;stroke-dashoffset:0;stroke-opacity:1;visibility:visible;display:inline;overflow:visible;enable-background:accumulate"
       id="path5226" />
    <path
       d="M 56.75835,122.39636 C 54.847082,120.14185 51.438005,118.70433 45.653456,118.56252 C 54.134508,115.96774 60.695341,119.05362 66.364965,124.77598"
       transform="translate(0,804.33069)"
       style="opacity:1;color:#000000;fill:#d93f21;fill-opacity:1;fill-rule:evenodd;stroke:#000000;stroke-width:1px;stroke-linecap:butt;stroke-linejoin:round;marker:none;marker-start:none;marker-mid:none;marker-end:none;stroke-miterlimit:4;stroke-dasharray:none;stroke-dashoffset:0;stroke-opacity:1;visibility:visible;display:inline;overflow:visible;enable-background:accumulate"
       id="path5207" />
    <path
       d="M 108.56807,128.0544 C 105.88781,130.37083 103.83584,135.15215 102.32978,139.46969 C 89.466616,139.21292 67.687696,136.67917 65.062298,134.73335 C 62.394132,132.75583 60.611749,132.65342 59.079558,133.61159 C 57.483518,134.60969 55.13628,133.84085 55.340345,131.4927 C 55.536809,129.23201 49.527535,132.89896 47.612639,134.858 C 48.865233,131.11367 53.202519,129.66082 57.583873,128.25205 C 52.539068,127.01184 48.199335,128.0631 43.374865,130.74486 C 45.793363,127.75723 48.652532,125.73908 52.348975,123.765 C 49.238264,123.40219 45.534854,123.35666 42.003821,125.13604 C 48.681478,117.64594 60.332498,121.75767 64.813017,122.89252 C 69.252113,124.01688 79.937734,122.88747 83.312724,122.76032 C 86.731781,122.63317 86.14214,116.16815 90.613583,109.43135"
       transform="translate(0,804.33069)"
       style="opacity:1;color:#000000;fill:#d93f21;fill-opacity:1;fill-rule:evenodd;stroke:#000000;stroke-width:1px;stroke-linecap:round;stroke-linejoin:round;marker:none;marker-start:none;marker-mid:none;marker-end:none;stroke-miterlimit:4;stroke-dasharray:none;stroke-dashoffset:0;stroke-opacity:1;visibility:visible;display:inline;overflow:visible;enable-background:accumulate"
       id="path5205" />
    <path
       d="M 46.454753,915.88903 C 45.957896,920.04862 42.961996,912.85879 42.507418,910.27388 C 42.050846,907.67763 49.78576,907.4327 48.03231,908.93757 C 46.234587,910.48044 46.944271,911.79089 46.454753,915.88903 z "
       style="opacity:1;color:#000000;fill:#d93f21;fill-opacity:1;fill-rule:evenodd;stroke:#000000;stroke-width:1px;stroke-linecap:butt;stroke-linejoin:miter;marker:none;marker-start:none;marker-mid:none;marker-end:none;stroke-miterlimit:4;stroke-dasharray:none;stroke-dashoffset:0;stroke-opacity:1;visibility:visible;display:inline;overflow:visible;enable-background:accumulate"
       id="path5224" />
    <path
       d="M 64.161614,1014.2883 C 59.473956,1014.3781 54.168529,1016.9923 52.263512,1023.8067 C 63.280272,1013.7902 59.049835,1024.6291 65.571758,1021.5153"
       style="opacity:1;color:#000000;fill:#d93f21;fill-opacity:1;fill-rule:evenodd;stroke:#000000;stroke-width:1px;stroke-linecap:round;stroke-linejoin:round;marker:none;marker-start:none;marker-mid:none;marker-end:none;stroke-miterlimit:4;stroke-dasharray:none;stroke-dashoffset:0;stroke-opacity:1;visibility:visible;display:inline;overflow:visible;enable-background:accumulate"
       id="path5246" />
    <path
       d="M 69.95978,1023.7038 C 66.095927,1025.105 62.320209,1024.3155 58.456356,1027.1848 C 65.074231,1010.7568 90.11213,1024.118 116.91271,1020.205"
       style="opacity:1;color:#000000;fill:#d93f21;fill-opacity:1;fill-rule:evenodd;stroke:#000000;stroke-width:1px;stroke-linecap:butt;stroke-linejoin:miter;marker:none;marker-start:none;marker-mid:none;marker-end:none;stroke-miterlimit:4;stroke-dasharray:none;stroke-dashoffset:0;stroke-opacity:1;visibility:visible;display:inline;overflow:visible;enable-background:accumulate"
       id="path5238" />
    <path
       d="M 71.829278,1030.2406 C 67.666029,1032.1602 66.445266,1026.7803 59.666775,1032.6202 C 61.056138,1027.0462 65.734741,1024.0841 69.978463,1022.5729"
       style="opacity:1;color:#000000;fill:#d93f21;fill-opacity:1;fill-rule:evenodd;stroke:#000000;stroke-width:1px;stroke-linecap:round;stroke-linejoin:round;marker:none;marker-start:none;marker-mid:none;marker-end:none;stroke-miterlimit:4;stroke-dasharray:none;stroke-dashoffset:0;stroke-opacity:1;visibility:visible;display:inline;overflow:visible;enable-background:accumulate"
       id="path5234" />
    <path
       d="M 76.764787,228.642 C 72.689672,229.85665 69.970629,225.62242 65.131088,234.89952 C 64.405233,227.29845 70.934652,223.80755 75.178374,222.29634"
       transform="translate(0,804.33069)"
       style="opacity:1;color:#000000;fill:#d93f21;fill-opacity:1;fill-rule:evenodd;stroke:#000000;stroke-width:1px;stroke-linecap:round;stroke-linejoin:round;marker:none;marker-start:none;marker-mid:none;marker-end:none;stroke-miterlimit:4;stroke-dasharray:none;stroke-dashoffset:0;stroke-opacity:1;visibility:visible;display:inline;overflow:visible;enable-background:accumulate"
       id="path5232" />
    <path
       d="M 132.74204,1009.9844 C 136.30376,1015.2986 141.32085,1022.7437 141.48825,1028.3947 C 141.65566,1034.1338 142.8247,1036.1203 125.04414,1034.876 C 107.25723,1033.6313 75.608501,1030.4427 71.66824,1040.3967 C 71.491823,1036.5127 75.369575,1031.3067 80.393069,1029.8023"
       style="opacity:1;color:#000000;fill:#d93f21;fill-opacity:1;fill-rule:evenodd;stroke:#000000;stroke-width:1px;stroke-linecap:round;stroke-linejoin:round;marker:none;marker-start:none;marker-mid:none;marker-end:none;stroke-miterlimit:4;stroke-dasharray:none;stroke-dashoffset:0;stroke-opacity:1;visibility:visible;display:inline;overflow:visible;enable-background:accumulate"
       id="path5230" />
    <path
       d="M 58.456356,1027.1848 C 65.074231,1010.7568 90.11213,1024.118 116.91271,1020.205"
       style="opacity:1;color:#000000;fill:none;fill-opacity:1;fill-rule:evenodd;stroke:#000000;stroke-width:1px;stroke-linecap:butt;stroke-linejoin:round;marker:none;marker-start:none;marker-mid:none;marker-end:none;stroke-miterlimit:4;stroke-dasharray:none;stroke-dashoffset:0;stroke-opacity:1;visibility:visible;display:inline;overflow:visible;enable-background:accumulate"
       id="path8167" />
    <path
       d="M 128.32323,156.90085 C 129.6505,158.77458 131.68236,166.64134 124.97413,160.60248 C 118.31444,154.60732 104.39482,152.22974 92.540788,164.74478 C 80.72835,177.21591 93.68653,204.8458 123.03518,221.94381"
       transform="translate(0,804.33069)"
       style="opacity:1;color:#000000;fill:#d93f21;fill-opacity:1;fill-rule:evenodd;stroke:#000000;stroke-width:1px;stroke-linecap:round;stroke-linejoin:miter;marker:none;marker-start:none;marker-mid:none;marker-end:none;stroke-miterlimit:4;stroke-dasharray:none;stroke-dashoffset:0;stroke-opacity:1;visibility:visible;display:inline;overflow:visible;enable-background:accumulate"
       id="path5228" />
    <path
       d="M 80.995223,58.983884 C 73.80809,59.721034 78.902253,44.750661 82.669771,39.858787 C 86.414208,34.996882 95.610358,38.869107 101.70673,30.42844 C 98.680794,31.843783 95.654858,32.083003 92.628922,32.014854 C 97.043755,29.418975 100.3126,25.838672 102.85248,21.35063 C 100.85679,22.790153 98.406341,24.728238 96.246849,26.167762 C 98.166798,22.789288 98.866882,18.912253 99.150845,15.53378 C 94.626628,27.843174 73.973874,30.105282 74.649569,54.312777"
       transform="translate(0,804.33069)"
       style="opacity:1;color:#000000;fill:#d93f21;fill-opacity:1;fill-rule:evenodd;stroke:#000000;stroke-width:1px;stroke-linecap:round;stroke-linejoin:round;marker:none;marker-start:none;marker-mid:none;marker-end:none;stroke-miterlimit:4;stroke-dasharray:none;stroke-dashoffset:0;stroke-opacity:1;visibility:visible;display:inline;overflow:visible;enable-background:accumulate"
       id="path5197" />
  </g>
</svg>
