<?xml version="1.0" encoding="UTF-8"?>
<svg version="1.0" viewBox="0 0 855 473" xmlns="http://www.w3.org/2000/svg" xmlns:cc="http://creativecommons.org/ns#" xmlns:dc="http://purl.org/dc/elements/1.1/" xmlns:rdf="http://www.w3.org/1999/02/22-rdf-syntax-ns#">
<metadata>
<rdf:RDF>
<cc:Work rdf:about="">
<dc:format>image/svg+xml</dc:format>
<dc:type rdf:resource="http://purl.org/dc/dcmitype/StillImage"/>
</cc:Work>
</rdf:RDF>
</metadata>
<path d="m419.25 3.265v248.4c0 143.72-103.92 218.06-208.01 218.06-104.09 0-208.01-74.34-208.01-218.06v-248.4z" fill="#fcdd09" fill-rule="evenodd"/>
<g stroke-linecap="round" stroke-linejoin="round">
<path d="M274.742 418V112h23V62h20l-32-45h-149l-32 45h20v50h23v306" fill="#da121a" fill-rule="evenodd" stroke="#000" stroke-width="3"/>
<path d="m147.74 112h127m-150-50h173" fill="none" stroke="#000" stroke-width="3"/>
<path d="m191.24 245h40v-46c0-20-40-20-40 0z" fill-rule="evenodd" stroke="#fff" stroke-width="5"/>
<path d="m193.74 62v25h35v-25zm56 0v25h35v-25zm-112 0v25h35v-25z" fill-rule="evenodd" stroke="#000"/>
</g>
<path d="m57.242 143c4.581 12.373 10 24 10 40-15 0-27-7-39-12v40c12-5 24-12 39-12 0 20-7 36-15 53h52c-8-17-15-33-15-53 15 0 27 7 39 12v-40c-12 5-24 12-39 12 0-16 5.418-27.627 10-40zm266 0c4.581 12.373 10 24 10 40-15 0-27-7-39-12v40c12-5 24-12 39-12 0 20-7 36-15 53h52c-8-17-15-33-15-53 15 0 27 7 39 12v-40c-12 5-24 12-39 12 0-16 5.418-27.627 10-40z" fill-rule="evenodd" stroke="#000" stroke-linecap="round" stroke-linejoin="round" stroke-width="2"/>
<path d="m63.75 410.29c-11.342-56.157 73.101-65.944 85.992 4.71 1.638-30.886 18.307-64 61.5-64 43.192 0 59.862 33.114 61.5 64 12.89-70.654 97.333-60.867 85.992-4.71-38.919 34.467-83.025 59.494-147.49 59.494s-108.57-25.027-147.49-59.494z" fill="#078930" fill-rule="evenodd" stroke="#000" stroke-width="3"/>
<path d="m419.25 3.265v248.4c0 143.72-103.92 218.06-208.01 218.06-104.09 0-208.01-74.34-208.01-218.06v-248.4z" fill="none" stroke="#000" stroke-linecap="round" stroke-linejoin="round" stroke-width="6"/>
<path d="m851.77 3.265v248.4c0 143.72-103.92 218.06-208.01 218.06-104.09 0-208.01-74.34-208.01-218.06v-248.4z" fill="#da121a" fill-rule="evenodd"/>
<path d="m441.4 307.13c13.311 59.354 42.036 97.901 79.815 124.22 13.784-27.36 60.693-31.544 78.295-50.714 21.174-23.061 23.07-62.711 47.786-83.626 23.154-19.592 52.811-17.797 72.139-39.056 22.706-24.974 12.485-51.03 40.894-78.112 21.684-20.671 70.194-18.479 91.44-65.706v-110.88h-103.39c-4.259 30.008-17.484 36.78-31.245 45.173-19.553 11.927-45.423 16.612-56.975 29.407-15.473 17.136-22.274 53.954-37.678 79.031-12.197 19.857-56.915 20.681-81.788 44.57-26.437 25.39-16.471 53.483-33.083 74.895-11.429 14.732-43.587 23.656-66.214 30.792z" fill="#4d87ca" fill-rule="evenodd" stroke="#000" stroke-linecap="round" stroke-linejoin="round" stroke-width="4"/>
<g stroke="#000">
<path d="M707.948 151.822c-7.658-6.21-15.533 3.448-22.974 8.73-18.453 13.096-35.7 8.859-54.679 21.944-7.62 5.254-18.815 21.284-24.812 33.653-4.083-.455-7.733-.948-11.487 3.217-4.94 5.48 1.71 4.481 3.216 6.432-3.584 5.438.637 8.274 7.385 10.267-2.075 4.392-5.535 8.992 9.157 10.87.819 6.037 1.298 12.384 11.385 9.997 2.143 14.595 7.306 12.579 12.865 8.382.63 2.105-.843 3.16 2.882 6.813 3.586 3.517 6.552 2.205 9.84-6.925-1.595-5.912 3.587-8.69 8.976-12.754 9.248-6.974 17.497-7.466 26.08-25.517 4.916-10.343 10.712-24.54 14.355-30.08 4.66-7.089 8.986-3.878 14.369-14.434 1.226-2.406-2.25-5.968-6.399-6.624z" fill="#fff" fill-rule="evenodd" stroke-linecap="round" stroke-linejoin="round" stroke-width="4"/>
<path d="m663.26 189.02c4.4 5.837-1.992 12.237-7.797 8.14-4.474-3.159 3.242-14.184 7.797-8.14z" fill-rule="evenodd"/>
<path d="M648.319 184.486c-4.403 4.716-4.53 11.963-1.95 15.595m15.176 7.109c-3.001.766-9.25 1.133-12.251-1.26m18.844-5.199c-.288 2.03-1.246 2.722-2.123 3.574m5.047-19.17c1.607 5.258 2.08 10.074 1.3 12.347m-18.195-16.57c4.332-.824 8.664-.92 12.996 1.3m5.864 39.68c-4.12 7.621-8.241 11.861-12.362 15.228m-25.992 12.671c1.746 2.378 1.388 5.81 6.434 6.536 3.72.535 7.834-.896 11.01 2.362m-46.634-42.54c2.472 3.468 5.615 5.146 6.38 13.165 3.382 2.26 7.018 4.413 6.24 8.456" fill="none" stroke-linecap="round" stroke-linejoin="round" stroke-width="4"/>
<path d="m707.95 151.82c-0.81 7.146-14.047 8.036-18.38 23.433-5.03 17.876-14.854 37.042-18.99 51.21 6.492-7.05 12.527-21.39 17.612-30.073 8.339-14.241 9.531-21.11 18.268-20.149 7.18-7.29 4.256-16.37 1.49-24.421z" fill-rule="evenodd" stroke-linecap="round" stroke-linejoin="round" stroke-width="2"/>
<path d="M821.948 31.822c-7.658-6.21-15.533 3.448-22.974 8.73-18.453 13.096-35.7 8.859-54.679 21.944-7.62 5.254-18.815 21.284-24.812 33.653-4.083-.455-7.733-.948-11.487 3.217-4.94 5.48 1.71 4.481 3.216 6.432-3.584 5.438.637 8.274 7.385 10.267-2.075 4.392-5.535 8.992 9.157 10.87.819 6.037 1.298 12.384 11.385 9.997 2.143 14.595 7.306 12.579 12.865 8.382.63 2.105-.843 3.16 2.882 6.813 3.586 3.517 6.552 2.205 9.84-6.925-1.595-5.912 3.587-8.69 8.976-12.754 9.248-6.974 17.497-7.466 26.08-25.517 4.916-10.343 10.712-24.54 14.355-30.08 4.66-7.089 8.986-3.878 14.369-14.434 1.226-2.406-2.25-5.968-6.399-6.624z" fill="#fff" fill-rule="evenodd" stroke-linecap="round" stroke-linejoin="round" stroke-width="4"/>
<path d="m777.26 69.018c4.4 5.837-1.992 12.237-7.797 8.14-4.474-3.159 3.242-14.184 7.797-8.14z" fill-rule="evenodd"/>
<path d="M762.319 64.486c-4.403 4.716-4.53 11.963-1.95 15.595m15.176 7.109c-3.001.766-9.25 1.133-12.251-1.26m18.844-5.199c-.288 2.03-1.246 2.722-2.123 3.574m5.047-19.17c1.607 5.258 2.08 10.074 1.3 12.347m-18.195-16.57c4.332-.824 8.664-.92 12.996 1.3m5.864 39.68c-4.12 7.621-8.241 11.861-12.362 15.228m-25.992 12.671c1.746 2.378 1.388 5.81 6.434 6.536 3.72.535 7.834-.896 11.01 2.362m-46.634-42.54c2.472 3.468 5.615 5.146 6.38 13.165 3.382 2.26 7.018 4.413 6.24 8.456" fill="none" stroke-linecap="round" stroke-linejoin="round" stroke-width="4"/>
<path d="m821.95 31.822c-0.81 7.146-14.047 8.036-18.38 23.433-5.03 17.876-14.854 37.042-18.99 51.21 6.492-7.05 12.527-21.39 17.612-30.073 8.339-14.241 9.531-21.11 18.268-20.149 7.18-7.29 4.256-16.37 1.49-24.421z" fill-rule="evenodd" stroke-linecap="round" stroke-linejoin="round" stroke-width="2"/>
<path d="M587.948 271.822c-7.658-6.21-15.533 3.448-22.974 8.73-18.453 13.096-35.7 8.859-54.679 21.944-7.62 5.254-18.815 21.284-24.812 33.653-4.083-.455-7.733-.948-11.487 3.217-4.94 5.48 1.71 4.481 3.216 6.432-3.584 5.438.637 8.274 7.385 10.267-2.075 4.392-5.535 8.992 9.157 10.87.819 6.037 1.298 12.384 11.385 9.997 2.143 14.595 7.306 12.579 12.865 8.382.63 2.105-.843 3.16 2.882 6.813 3.586 3.517 6.552 2.205 9.84-6.925-1.595-5.912 3.587-8.69 8.976-12.754 9.248-6.974 17.497-7.466 26.08-25.517 4.916-10.343 10.712-24.54 14.355-30.08 4.66-7.089 8.986-3.878 14.369-14.434 1.226-2.406-2.25-5.968-6.399-6.624z" fill="#fff" fill-rule="evenodd" stroke-linecap="round" stroke-linejoin="round" stroke-width="4"/>
<path d="m543.26 309.02c4.4 5.837-1.992 12.237-7.797 8.14-4.474-3.159 3.242-14.184 7.797-8.14z" fill-rule="evenodd"/>
<path d="M528.319 304.486c-4.403 4.716-4.53 11.963-1.95 15.595m15.176 7.109c-3.001.766-9.25 1.133-12.251-1.26m18.844-5.199c-.288 2.03-1.246 2.722-2.123 3.574m5.047-19.17c1.607 5.258 2.08 10.074 1.3 12.347m-18.195-16.57c4.332-.824 8.664-.92 12.996 1.3m5.864 39.68c-4.12 7.621-8.241 11.861-12.362 15.228m-25.992 12.671c1.746 2.378 1.388 5.81 6.434 6.536 3.72.535 7.834-.896 11.01 2.362m-46.634-42.54c2.472 3.468 5.615 5.146 6.38 13.165 3.382 2.26 7.018 4.413 6.24 8.456" fill="none" stroke-linecap="round" stroke-linejoin="round" stroke-width="4"/>
<path d="m587.95 271.82c-0.81 7.146-14.047 8.036-18.38 23.433-5.03 17.876-14.854 37.042-18.99 51.21 6.492-7.05 12.527-21.39 17.612-30.073 8.339-14.241 9.531-21.11 18.268-20.149 7.18-7.29 4.256-16.37 1.49-24.421z" fill-rule="evenodd" stroke-linecap="round" stroke-linejoin="round" stroke-width="2"/>
</g>
<path d="m851.77 3.265v248.4c0 143.72-103.92 218.06-208.01 218.06-104.09 0-208.01-74.34-208.01-218.06v-248.4z" fill="none" stroke="#000" stroke-linecap="round" stroke-linejoin="round" stroke-width="6"/>
</svg>
