<?xml version="1.0" standalone="no"?>
<!DOCTYPE svg PUBLIC "-//W3C//DTD SVG 1.1//EN"
 "http://www.w3.org/Graphics/SVG/1.1/DTD/svg11.dtd">
<!-- Created with svg_stack (http://github.com/astraw/svg_stack) -->
<svg xmlns="http://www.w3.org/2000/svg" xmlns:sodipodi="http://sodipodi.sourceforge.net/DTD/sodipodi-0.dtd" version="1.1" width="254.0" height="254.0">
  <defs/>
  <g id="id0:id0" transform="matrix(1.25,0,0,1.25,0.0,0.0)"><g transform="translate(0.000000,203.200000) scale(0.040000,-0.040000)" fill="#fefefe" stroke="none">
<path d="M980 3946 c0 -5 314 -270 390 -331 21 -16 116 -96 212 -176 625 -526 922 -775 934 -784 9 -6 19 -4 31 7 10 8 254 213 543 454 289 242 565 473 614 514 49 41 105 89 126 105 86 70 250 208 250 211 0 2 -697 4 -1550 4 -852 0 -1550 -2 -1550 -4z"/>
<path d="M4994 3422 c-47 -41 -325 -275 -1014 -852 -174 -146 -396 -332 -493 -413 -97 -82 -179 -152 -181 -155 -3 -6 145 -133 458 -392 208 -173 658 -551 688 -579 21 -18 48 -41 60 -50 13 -8 39 -30 58 -47 35 -32 254 -216 388 -326 l72 -59 0 1450 c0 798 -1 1451 -2 1451 -2 -1 -17 -13 -34 -28z"/>
<path d="M50 2006 c0 -790 2 -1436 5 -1436 3 0 23 15 43 34 20 19 82 72 137 118 55 46 172 144 260 218 88 74 169 141 179 150 11 8 40 33 65 56 25 22 154 130 285 240 335 279 335 279 392 326 28 24 117 99 199 167 l148 124 -25 21 c-13 12 -116 98 -228 191 -214 179 -683 573 -810 680 -41 35 -181 152 -310 261 -129 108 -259 217 -287 241 l-53 45 0 -1436z"/>
<path d="M2264 1132 c-266 -222 -806 -674 -1058 -886 -77 -65 -163 -136 -189 -157 l-49 -39 1563 0 c860 0 1559 4 1554 8 -6 5 -104 87 -219 183 -115 96 -311 260 -436 364 -124 105 -332 278 -461 386 -129 108 -277 232 -330 277 -53 45 -101 82 -105 82 -5 0 -126 -98 -270 -218z"/>
</g>
</g>
  <g id="id1:id1" transform="matrix(1.25,0,0,1.25,0.0,0.0)"><g transform="translate(0.000000,203.200000) scale(0.040000,-0.040000)" fill="#cdcdcc" stroke="none">
<path d="M960 3957 c0 -2 15 -16 32 -33 32 -28 32 -28 9 -1 l-24 27 1552 0 c1478 0 1553 -1 1540 -17 -11 -15 -10 -14 9 1 12 11 22 21 22 23 0 1 -706 3 -1570 3 -863 0 -1570 -1 -1570 -3z"/>
<path d="M4009 3883 l-24 -28 28 24 c15 14 27 26 27 28 0 8 -8 1 -31 -24z"/>
<path d="M1030 3897 c0 -2 15 -16 33 -33 l32 -29 -29 33 c-28 30 -36 37 -36 29z"/>
<path d="M3954 3838 l-19 -23 23 19 c21 18 27 26 19 26 -2 0 -12 -10 -23 -22z"/>
<path d="M1115 3820 c10 -11 20 -20 23 -20 3 0 -3 9 -13 20 -10 11 -20 20 -23 20 -3 0 3 -9 13 -20z"/>
<path d="M3894 3788 l-29 -33 33 29 c30 28 37 36 29 36 -2 0 -16 -15 -33 -32z"/>
<path d="M1150 3797 c0 -2 15 -16 33 -33 l32 -29 -29 33 c-28 30 -36 37 -36 29z"/>
<path d="M3795 3704 l-50 -46 53 43 c47 38 58 49 49 49 -1 0 -25 -21 -52 -46z"/>
<path d="M1220 3737 c0 -2 26 -26 57 -53 31 -27 54 -44 50 -37 -9 14 -107 97 -107 90z"/>
<path d="M3675 3604 l-50 -46 53 42 c45 36 59 51 50 50 -2 0 -25 -21 -53 -46z"/>
<path d="M1350 3627 c0 -2 24 -24 53 -48 28 -24 46 -36 38 -26 -16 20 -91 81 -91 74z"/>
<path d="M3560 3509 l-55 -51 52 42 c46 37 71 61 61 60 -2 0 -28 -23 -58 -51z"/>
<path d="M1463 3533 c9 -14 107 -97 107 -90 0 2 -26 26 -57 53 -31 27 -54 44 -50 37z"/>
<path d="M4999 3432 l-24 -27 28 24 27 24 0 -1452 0 -1453 -52 42 -53 42 50 -46 c28 -25 53 -46 58 -46 10 0 9 2908 -2 2914 -4 3 -19 -7 -32 -22z"/>
<path d="M40 2005 c0 -795 3 -1445 8 -1445 4 0 6 648 4 1441 l-2 1441 57 -47 58 -48 -55 51 c-30 28 -58 52 -62 52 -5 0 -8 -650 -8 -1445z"/>
<path d="M3459 3423 l-24 -28 28 24 c25 23 32 31 24 31 -2 0 -14 -12 -28 -27z"/>
<path d="M1580 3437 c0 -3 27 -28 60 -57 33 -29 60 -50 60 -47 0 3 -27 28 -60 57 -33 29 -60 50 -60 47z"/>
<path d="M4905 3353 c-56 -51 -56 -53 -9 -15 46 38 82 73 73 72 -2 -1 -31 -26 -64 -57z"/>
<path d="M3404 3378 l-19 -23 23 19 c12 11 22 21 22 23 0 8 -8 2 -26 -19z"/>
<path d="M170 3347 c0 -3 27 -28 60 -57 33 -29 60 -50 60 -47 0 3 -27 28 -60 57 -33 29 -60 50 -60 47z"/>
<path d="M3339 3323 l-24 -28 28 24 c25 23 32 31 24 31 -2 0 -14 -12 -28 -27z"/>
<path d="M1745 3295 c22 -20 63 -55 90 -77 49 -39 49 -39 10 -3 -22 20 -62 55 -90 77 -49 39 -49 39 -10 3z"/>
<path d="M3175 3189 c-71 -60 -139 -119 -150 -131 -11 -11 49 36 133 106 129 108 164 139 150 135 -2 0 -61 -50 -133 -110z"/>
<path d="M4611 3110 c-124 -104 -232 -197 -240 -207 -21 -22 13 5 257 210 176 147 223 189 210 186 -2 0 -104 -85 -227 -189z"/>
<path d="M300 3236 c0 -3 66 -61 148 -129 81 -68 162 -136 180 -151 17 -15 32 -25 32 -23 0 3 -81 74 -180 157 -99 83 -180 149 -180 146z"/>
<path d="M1890 3176 c0 -3 68 -62 150 -131 83 -69 150 -124 150 -121 0 3 -67 62 -150 131 -82 69 -150 124 -150 121z"/>
<path d="M2940 2989 l-55 -51 52 42 c46 37 71 61 61 60 -2 0 -28 -23 -58 -51z"/>
<path d="M2820 2889 l-55 -51 52 42 c46 37 71 61 61 60 -2 0 -28 -23 -58 -51z"/>
<path d="M705 2893 c22 -21 121 -105 220 -188 99 -82 292 -244 429 -359 137 -115 246 -205 243 -199 -6 10 -255 220 -732 618 -110 92 -182 150 -160 128z"/>
<path d="M2203 2913 c9 -14 107 -97 107 -90 0 2 -26 26 -57 53 -31 27 -54 44 -50 37z"/>
<path d="M4086 2670 c-142 -120 -266 -227 -275 -236 -21 -23 6 -1 291 237 202 170 262 222 246 218 -2 0 -120 -99 -262 -219z"/>
<path d="M2685 2778 c-38 -33 -92 -78 -118 -99 -27 -22 -45 -39 -40 -39 9 0 233 188 233 195 0 8 -2 6 -75 -57z"/>
<path d="M2320 2817 c0 -3 44 -42 97 -88 53 -45 93 -78 89 -71 -8 14 -186 165 -186 159z"/>
<path d="M3558 2227 c-125 -106 -235 -201 -245 -211 -10 -10 91 72 225 184 210 176 264 222 250 219 -2 0 -105 -87 -230 -192z"/>
<path d="M1613 2133 c9 -14 107 -97 107 -90 0 2 -26 26 -57 53 -31 27 -54 44 -50 37z"/>
<path d="M1730 2036 c0 -2 8 -10 18 -17 15 -13 16 -12 3 4 -13 16 -21 21 -21 13z"/>
<path d="M1625 1889 c-71 -61 -161 -136 -198 -167 -565 -472 -694 -581 -707 -598 -8 -10 4 -3 25 17 35 31 558 470 679 569 203 166 350 294 334 289 -2 0 -61 -50 -133 -110z"/>
<path d="M3337 1957 c38 -33 358 -301 439 -367 23 -19 175 -146 338 -282 162 -137 297 -248 301 -248 5 0 -479 408 -639 540 -24 19 -138 115 -255 213 -116 97 -214 177 -216 177 -3 0 12 -15 32 -33z"/>
<path d="M2480 1319 l-45 -41 46 36 c25 20 50 36 54 36 5 0 20 -10 34 -22 l26 -23 -24 28 c-14 15 -29 27 -35 27 -6 0 -31 -18 -56 -41z"/>
<path d="M2600 1307 c0 -2 15 -16 33 -33 l32 -29 -29 33 c-28 30 -36 37 -36 29z"/>
<path d="M2370 1229 l-55 -51 52 42 c46 37 71 61 61 60 -2 0 -28 -23 -58 -51z"/>
<path d="M2690 1225 c13 -14 26 -25 28 -25 3 0 -5 11 -18 25 -13 14 -26 25 -28 25 -3 0 5 -11 18 -25z"/>
<path d="M2733 1193 c9 -14 107 -97 107 -90 0 2 -26 26 -57 53 -31 27 -54 44 -50 37z"/>
<path d="M2274 1148 l-29 -33 33 29 c30 28 37 36 29 36 -2 0 -16 -15 -33 -32z"/>
<path d="M2214 1098 l-19 -23 23 19 c21 18 27 26 19 26 -2 0 -12 -10 -23 -22z"/>
<path d="M676 1095 c-11 -8 -15 -15 -9 -15 6 0 16 7 23 15 16 19 11 19 -14 0z"/>
<path d="M2850 1097 c0 -2 15 -16 33 -33 l32 -29 -29 33 c-28 30 -36 37 -36 29z"/>
<path d="M2154 1048 l-29 -33 33 29 c30 28 37 36 29 36 -2 0 -16 -15 -33 -32z"/>
<path d="M540 979 c-93 -79 -176 -157 -110 -103 149 123 232 194 223 193 -5 0 -55 -41 -113 -90z"/>
<path d="M4430 1047 c0 -2 15 -16 33 -33 l32 -29 -29 33 c-28 30 -36 37 -36 29z"/>
<path d="M2935 1020 c10 -11 20 -20 23 -20 3 0 -3 9 -13 20 -10 11 -20 20 -23 20 -3 0 3 -9 13 -20z"/>
<path d="M2089 993 l-24 -28 28 24 c25 23 32 31 24 31 -2 0 -14 -12 -28 -27z"/>
<path d="M2970 997 c0 -2 15 -16 33 -33 l32 -29 -29 33 c-28 30 -36 37 -36 29z"/>
<path d="M4500 987 c0 -3 51 -48 113 -100 61 -52 127 -106 145 -121 17 -15 32 -25 32 -23 0 3 -51 48 -114 101 -63 53 -120 101 -128 108 -24 23 -48 41 -48 35z"/>
<path d="M2029 943 c-13 -16 -12 -17 4 -4 16 13 21 21 13 21 -2 0 -10 -8 -17 -17z"/>
<path d="M3060 915 c13 -14 26 -25 28 -25 3 0 -5 11 -18 25 -13 14 -26 25 -28 25 -3 0 5 -11 18 -25z"/>
<path d="M1964 888 l-29 -33 33 29 c30 28 37 36 29 36 -2 0 -16 -15 -33 -32z"/>
<path d="M3110 876 c0 -2 8 -10 18 -17 15 -13 16 -12 3 4 -13 16 -21 21 -21 13z"/>
<path d="M340 809 l-55 -51 52 42 c46 37 71 61 61 60 -2 0 -28 -23 -58 -51z"/>
<path d="M1875 814 l-50 -46 53 42 c45 36 59 51 50 50 -2 0 -25 -21 -53 -46z"/>
<path d="M3160 837 c0 -2 15 -16 33 -33 l32 -29 -29 33 c-28 30 -36 37 -36 29z"/>
<path d="M3230 777 c0 -3 23 -24 50 -47 28 -23 50 -40 50 -37 0 3 -22 24 -50 47 -27 23 -50 40 -50 37z"/>
<path d="M1779 733 l-24 -28 28 24 c15 14 27 26 27 28 0 8 -8 1 -31 -24z"/>
<path d="M210 699 l-55 -51 58 47 c50 42 64 55 55 55 -2 0 -28 -23 -58 -51z"/>
<path d="M4803 733 c9 -14 107 -97 107 -90 0 2 -26 26 -57 53 -31 27 -54 44 -50 37z"/>
<path d="M1724 688 l-19 -23 23 19 c12 11 22 21 22 23 0 8 -8 2 -26 -19z"/>
<path d="M3350 677 c0 -3 23 -24 50 -47 28 -23 50 -40 50 -37 0 3 -22 24 -50 47 -27 23 -50 40 -50 37z"/>
<path d="M1659 633 l-24 -28 28 24 c15 14 27 26 27 28 0 8 -8 1 -31 -24z"/>
<path d="M114 618 l-29 -33 33 29 c30 28 37 36 29 36 -2 0 -16 -15 -33 -32z"/>
<path d="M1594 578 l-19 -23 23 19 c21 18 27 26 19 26 -2 0 -12 -10 -23 -22z"/>
<path d="M3490 555 c13 -14 26 -25 28 -25 3 0 -5 11 -18 25 -13 14 -26 25 -28 25 -3 0 5 -11 18 -25z"/>
<path d="M1539 533 l-24 -28 28 24 c15 14 27 26 27 28 0 8 -8 1 -31 -24z"/>
<path d="M3555 500 c10 -11 20 -20 23 -20 3 0 -3 9 -13 20 -10 11 -20 20 -23 20 -3 0 3 -9 13 -20z"/>
<path d="M1474 478 l-19 -23 23 19 c21 18 27 26 19 26 -2 0 -12 -10 -23 -22z"/>
<path d="M3610 455 c13 -14 26 -25 28 -25 3 0 -5 11 -18 25 -13 14 -26 25 -28 25 -3 0 5 -11 18 -25z"/>
<path d="M1409 423 c-13 -16 -12 -17 4 -4 16 13 21 21 13 21 -2 0 -10 -8 -17 -17z"/>
<path d="M3650 427 c0 -2 15 -16 33 -33 l32 -29 -29 33 c-28 30 -36 37 -36 29z"/>
<path d="M1305 339 c-85 -73 -119 -108 -50 -52 69 57 131 112 125 112 -3 0 -36 -27 -75 -60z"/>
<path d="M3730 357 c0 -3 23 -24 50 -47 28 -23 50 -40 50 -37 0 3 -22 24 -50 47 -27 23 -50 40 -50 37z"/>
<path d="M3850 257 c0 -3 23 -24 50 -47 28 -23 50 -40 50 -37 0 3 -22 24 -50 47 -27 23 -50 40 -50 37z"/>
<path d="M1135 194 l-50 -46 53 42 c45 36 59 51 50 50 -2 0 -25 -21 -53 -46z"/>
<path d="M3970 157 c0 -3 23 -24 50 -47 28 -23 50 -40 50 -37 0 3 -22 24 -50 47 -27 23 -50 40 -50 37z"/>
<path d="M1020 99 l-45 -41 42 32 c37 27 61 51 51 50 -2 0 -23 -19 -48 -41z"/>
<path d="M4084 61 c6 -8 -372 -11 -1558 -9 -861 2 -1566 0 -1566 -4 0 -5 707 -8 1570 -8 974 0 1570 4 1570 9 0 6 -5 13 -12 17 -7 4 -8 3 -4 -5z"/>
</g>
</g>
  <g id="id2:id2" transform="matrix(1.25,0,0,1.25,0.0,0.0)"><g transform="translate(0.000000,203.200000) scale(0.040000,-0.040000)" fill="#898886" stroke="none">
<path d="M950 3965 c0 -11 57 -68 95 -95 12 -8 -4 8 -35 37 l-55 52 1574 1 1574 0 -19 -22 -19 -23 22 19 c13 11 23 24 23 30 0 8 -442 11 -1580 11 -1094 0 -1580 -3 -1580 -10z"/>
<path d="M4024 3887 l-29 -32 30 25 c17 14 32 26 34 28 2 1 2 4 -1 7 -2 3 -18 -10 -34 -28z"/>
<path d="M3930 3809 l-55 -51 52 42 c47 37 70 60 61 60 -2 0 -28 -23 -58 -51z"/>
<path d="M1093 3833 c4 -6 30 -31 59 -55 29 -23 49 -38 45 -31 -4 6 -30 31 -59 55 -29 23 -49 38 -45 31z"/>
<path d="M3810 3709 l-55 -51 52 42 c46 37 71 61 61 60 -2 0 -28 -23 -58 -51z"/>
<path d="M1213 3733 c9 -14 107 -97 107 -90 0 2 -26 26 -57 53 -31 27 -54 44 -50 37z"/>
<path d="M3714 3628 l-29 -33 33 29 c17 17 32 31 32 33 0 8 -8 1 -36 -29z"/>
<path d="M1333 3633 c9 -14 107 -97 107 -90 0 2 -26 26 -57 53 -31 27 -54 44 -50 37z"/>
<path d="M3654 3578 l-19 -23 23 19 c12 11 22 21 22 23 0 8 -8 2 -26 -19z"/>
<path d="M3594 3528 l-29 -33 33 29 c30 28 37 36 29 36 -2 0 -16 -15 -33 -32z"/>
<path d="M1450 3537 c0 -2 15 -16 33 -33 l32 -29 -29 33 c-28 30 -36 37 -36 29z"/>
<path d="M3425 3389 c-120 -101 -216 -190 -134 -123 86 70 269 226 269 230 0 7 -3 5 -135 -107z"/>
<path d="M1520 3477 c0 -2 26 -26 57 -53 31 -27 54 -44 50 -37 -9 14 -107 97 -107 90z"/>
<path d="M4950 3404 c-41 -36 -84 -75 -95 -86 -11 -12 23 15 76 60 53 45 99 79 103 75 3 -3 6 -1 6 5 0 21 -13 13 -90 -54z"/>
<path d="M41 3458 c2 -2 20 -16 39 -33 l35 -30 -29 33 c-17 17 -34 32 -40 32 -5 0 -7 -1 -5 -2z"/>
<path d="M120 3398 c0 -3 95 -85 210 -183 116 -97 210 -174 210 -171 0 3 -84 75 -187 162 -104 86 -198 166 -210 177 -13 11 -23 18 -23 15z"/>
<path d="M1680 3340 c62 -58 140 -123 140 -117 0 3 -42 40 -92 82 -51 42 -73 58 -48 35z"/>
<path d="M4770 3249 l-55 -51 58 47 c50 42 64 55 55 55 -2 0 -28 -23 -58 -51z"/>
<path d="M3190 3189 l-55 -51 52 42 c46 37 71 61 61 60 -2 0 -28 -23 -58 -51z"/>
<path d="M1833 3213 c4 -6 30 -31 59 -55 29 -23 49 -38 45 -31 -4 6 -30 31 -59 55 -29 23 -49 38 -45 31z"/>
<path d="M4650 3149 l-55 -51 58 47 c50 42 64 55 55 55 -2 0 -28 -23 -58 -51z"/>
<path d="M3055 3079 c-38 -33 -79 -69 -90 -81 -11 -12 22 14 73 56 78 66 102 88 90 85 -2 0 -34 -27 -73 -60z"/>
<path d="M1950 3116 c0 -3 68 -62 150 -131 83 -69 150 -124 150 -121 0 3 -67 62 -150 131 -82 69 -150 124 -150 121z"/>
<path d="M4530 3049 l-55 -51 52 42 c47 37 70 60 61 60 -2 0 -28 -23 -58 -51z"/>
<path d="M550 3036 c0 -3 154 -134 343 -293 188 -158 411 -346 496 -417 85 -72 152 -125 148 -119 -4 6 -213 184 -465 396 -251 211 -472 396 -489 411 -18 15 -33 25 -33 22z"/>
<path d="M4237 2806 c-125 -106 -235 -201 -245 -211 -9 -10 92 73 226 185 212 177 263 222 250 219 -2 0 -106 -87 -231 -193z"/>
<path d="M2800 2864 c-243 -206 -269 -226 -282 -218 -7 4 -58 46 -113 93 -120 102 -153 128 -106 82 72 -67 224 -192 232 -189 18 6 420 347 409 347 -3 0 -66 -52 -140 -115z"/>
<path d="M3874 2502 c-50 -42 -184 -155 -297 -250 -114 -96 -210 -179 -213 -184 -6 -10 481 396 571 476 74 65 31 36 -61 -42z"/>
<path d="M1558 2188 c8 -9 56 -52 108 -94 52 -43 94 -82 94 -88 0 -5 -12 -23 -27 -40 l-28 -30 32 25 c18 13 32 31 32 40 1 14 -38 50 -189 175 -19 16 -29 21 -22 12z"/>
<path d="M3317 2032 c-15 -15 -27 -32 -27 -38 0 -5 19 -24 43 -43 l42 -33 -37 36 c-21 20 -38 39 -38 43 0 4 12 20 27 35 15 15 24 28 22 28 -3 0 -17 -13 -32 -28z"/>
<path d="M1640 1889 l-55 -51 58 47 c50 42 64 55 55 55 -2 0 -28 -23 -58 -51z"/>
<path d="M3380 1917 c0 -2 26 -26 57 -53 31 -27 54 -44 50 -37 -9 14 -107 97 -107 90z"/>
<path d="M1496 1772 c-44 -37 -100 -87 -125 -110 -25 -24 9 2 77 58 107 90 141 121 130 120 -2 0 -39 -31 -82 -68z"/>
<path d="M3503 1813 c4 -6 30 -31 59 -55 29 -23 49 -38 45 -31 -4 6 -30 31 -59 55 -29 23 -49 38 -45 31z"/>
<path d="M3623 1714 c4 -7 62 -58 129 -115 68 -56 114 -92 103 -79 -11 12 -49 47 -85 76 -36 29 -85 70 -110 91 -24 21 -41 33 -37 27z"/>
<path d="M1294 1598 l-19 -23 23 19 c21 18 27 26 19 26 -2 0 -12 -10 -23 -22z"/>
<path d="M1234 1548 l-29 -33 33 29 c30 28 37 36 29 36 -2 0 -16 -15 -33 -32z"/>
<path d="M1140 1469 l-55 -51 58 47 c50 42 64 55 55 55 -2 0 -28 -23 -58 -51z"/>
<path d="M3895 1480 c10 -11 20 -20 23 -20 3 0 -3 9 -13 20 -10 11 -20 20 -23 20 -3 0 3 -9 13 -20z"/>
<path d="M3930 1457 c0 -2 15 -16 33 -33 l32 -29 -29 33 c-28 30 -36 37 -36 29z"/>
<path d="M1020 1369 l-55 -51 58 47 c50 42 64 55 55 55 -2 0 -28 -23 -58 -51z"/>
<path d="M4000 1397 c0 -2 26 -26 57 -53 31 -27 54 -44 50 -37 -9 14 -107 97 -107 90z"/>
<path d="M2418 1280 c-60 -50 -108 -93 -108 -96 0 -2 46 34 103 82 56 47 107 88 114 91 6 3 82 -54 167 -127 86 -72 156 -129 156 -126 0 7 -308 266 -317 266 -4 0 -56 -41 -115 -90z"/>
<path d="M900 1269 l-55 -51 58 47 c50 42 64 55 55 55 -2 0 -28 -23 -58 -51z"/>
<path d="M4120 1297 c0 -2 26 -26 57 -53 31 -27 54 -44 50 -37 -9 14 -107 97 -107 90z"/>
<path d="M780 1169 l-55 -51 52 42 c47 37 70 60 61 60 -2 0 -28 -23 -58 -51z"/>
<path d="M4240 1197 c0 -2 26 -26 57 -53 31 -27 54 -44 50 -37 -9 14 -107 97 -107 90z"/>
<path d="M2230 1124 c-36 -30 -76 -66 -90 -81 -14 -14 17 9 68 51 78 66 102 89 90 85 -2 0 -32 -25 -68 -55z"/>
<path d="M681 1089 c-13 -11 -22 -21 -20 -23 2 -3 17 7 32 20 15 13 24 24 20 24 -4 -1 -19 -10 -32 -21z"/>
<path d="M2863 1093 c9 -14 107 -97 107 -90 0 2 -26 26 -57 53 -31 27 -54 44 -50 37z"/>
<path d="M4400 1060 c25 -23 68 -60 95 -82 l50 -40 -45 42 c-25 22 -67 59 -95 82 l-50 40 45 -42z"/>
<path d="M614 1028 l-29 -33 33 29 c30 28 37 36 29 36 -2 0 -16 -15 -33 -32z"/>
<path d="M2050 969 l-55 -51 52 42 c47 37 70 60 61 60 -2 0 -28 -23 -58 -51z"/>
<path d="M554 978 l-19 -23 23 19 c21 18 27 26 19 26 -2 0 -12 -10 -23 -22z"/>
<path d="M3004 973 c16 -18 32 -31 34 -28 3 3 3 6 1 8 -2 1 -17 13 -34 27 l-30 25 29 -32z"/>
<path d="M494 928 l-29 -33 33 29 c30 28 37 36 29 36 -2 0 -16 -15 -33 -32z"/>
<path d="M3053 933 c4 -6 30 -31 59 -55 29 -23 49 -38 45 -31 -4 6 -30 31 -59 55 -29 23 -49 38 -45 31z"/>
<path d="M4550 937 c0 -2 15 -16 33 -33 l32 -29 -29 33 c-28 30 -36 37 -36 29z"/>
<path d="M1930 869 l-55 -51 52 42 c46 37 71 61 61 60 -2 0 -28 -23 -58 -51z"/>
<path d="M400 849 l-55 -51 58 47 c50 42 64 55 55 55 -2 0 -28 -23 -58 -51z"/>
<path d="M4635 860 c10 -11 20 -20 23 -20 3 0 -3 9 -13 20 -10 11 -20 20 -23 20 -3 0 3 -9 13 -20z"/>
<path d="M3173 833 c9 -14 107 -97 107 -90 0 2 -26 26 -57 53 -31 27 -54 44 -50 37z"/>
<path d="M4670 837 c0 -2 15 -16 33 -33 l32 -29 -29 33 c-28 30 -36 37 -36 29z"/>
<path d="M1834 788 l-29 -33 33 29 c30 28 37 36 29 36 -2 0 -16 -15 -33 -32z"/>
<path d="M280 749 l-55 -51 58 47 c50 42 64 55 55 55 -2 0 -28 -23 -58 -51z"/>
<path d="M4740 777 c0 -2 26 -26 57 -53 31 -27 54 -44 50 -37 -9 14 -107 97 -107 90z"/>
<path d="M1740 709 l-55 -51 58 47 c50 42 64 55 55 55 -2 0 -28 -23 -58 -51z"/>
<path d="M3290 737 c0 -2 15 -16 33 -33 l32 -29 -29 33 c-28 30 -36 37 -36 29z"/>
<path d="M189 673 l-24 -28 28 24 c25 23 32 31 24 31 -2 0 -14 -12 -28 -27z"/>
<path d="M3375 660 c10 -11 20 -20 23 -20 3 0 -3 9 -13 20 -10 11 -20 20 -23 20 -3 0 3 -9 13 -20z"/>
<path d="M4860 677 c0 -2 26 -26 57 -53 31 -27 54 -44 50 -37 -9 14 -107 97 -107 90z"/>
<path d="M1646 634 c-15 -14 -26 -27 -24 -29 2 -3 17 9 33 25 35 36 30 39 -9 4z"/>
<path d="M129 623 l-24 -28 28 24 c25 23 32 31 24 31 -2 0 -14 -12 -28 -27z"/>
<path d="M3410 637 c0 -2 15 -16 33 -33 l32 -29 -29 33 c-28 30 -36 37 -36 29z"/>
<path d="M1584 578 l-19 -23 23 19 c21 18 27 26 19 26 -2 0 -12 -10 -23 -22z"/>
<path d="M61 570 c-31 -26 -17 -26 16 0 14 11 22 20 17 20 -5 -1 -20 -10 -33 -20z"/>
<path d="M3504 553 c16 -18 32 -31 34 -28 3 3 3 6 1 8 -2 1 -17 13 -34 27 l-30 25 29 -32z"/>
<path d="M5002 555 c15 -16 29 -27 31 -24 3 2 -10 15 -27 28 l-31 24 27 -28z"/>
<path d="M1526 534 c-15 -14 -26 -27 -24 -29 2 -3 17 9 33 25 35 36 30 39 -9 4z"/>
<path d="M3565 500 c10 -11 20 -20 23 -20 3 0 -3 9 -13 20 -10 11 -20 20 -23 20 -3 0 3 -9 13 -20z"/>
<path d="M1464 478 l-19 -23 23 19 c21 18 27 26 19 26 -2 0 -12 -10 -23 -22z"/>
<path d="M3622 455 c15 -16 29 -27 31 -24 3 2 -10 15 -27 28 l-31 24 27 -28z"/>
<path d="M1404 427 l-29 -32 30 25 c17 14 32 26 34 28 2 1 2 4 -1 7 -2 3 -18 -10 -34 -28z"/>
<path d="M3673 413 c9 -14 107 -97 107 -90 0 2 -26 26 -57 53 -31 27 -54 44 -50 37z"/>
<path d="M1344 378 l-19 -23 23 19 c21 18 27 26 19 26 -2 0 -12 -10 -23 -22z"/>
<path d="M1284 328 l-29 -33 33 29 c30 28 37 36 29 36 -2 0 -16 -15 -33 -32z"/>
<path d="M3790 317 c0 -2 15 -16 33 -33 l32 -29 -29 33 c-28 30 -36 37 -36 29z"/>
<path d="M1214 268 l-29 -33 33 29 c17 17 32 31 32 33 0 8 -8 1 -36 -29z"/>
<path d="M3875 240 c10 -11 20 -20 23 -20 3 0 -3 9 -13 20 -10 11 -20 20 -23 20 -3 0 3 -9 13 -20z"/>
<path d="M1154 218 l-19 -23 23 19 c21 18 27 26 19 26 -2 0 -12 -10 -23 -22z"/>
<path d="M3910 217 c0 -2 15 -16 33 -33 l32 -29 -29 33 c-28 30 -36 37 -36 29z"/>
<path d="M1094 168 l-29 -33 33 29 c30 28 37 36 29 36 -2 0 -16 -15 -33 -32z"/>
<path d="M3995 140 c10 -11 20 -20 23 -20 3 0 -3 9 -13 20 -10 11 -20 20 -23 20 -3 0 3 -9 13 -20z"/>
<path d="M1034 118 l-19 -23 23 19 c12 11 22 21 22 23 0 8 -8 2 -26 -19z"/>
<path d="M984 78 l-19 -23 23 19 c12 11 22 21 22 23 0 8 -8 2 -26 -19z"/>
<path d="M4050 96 c0 -2 8 -10 18 -17 15 -13 16 -12 3 4 -13 16 -21 21 -21 13z"/>
<path d="M4096 57 c3 -10 9 -15 12 -12 3 3 0 11 -7 18 -10 9 -11 8 -5 -6z"/>
</g>
</g>
  <g id="id3:id3" transform="matrix(1.25,0,0,1.25,0.0,0.0)"><g transform="translate(0.000000,203.200000) scale(0.040000,-0.040000)" fill="#183384" stroke="none">
<path d="M59 3735 c-1 -124 -2 -230 -3 -237 -1 -7 71 -72 159 -146 679 -569 1035 -867 1254 -1051 316 -264 341 -286 341 -299 0 -5 -91 -86 -203 -179 -111 -94 -287 -242 -392 -329 -170 -143 -518 -434 -965 -808 -85 -71 -163 -137 -173 -146 -16 -15 -18 -38 -18 -256 l0 -239 423 -3 c416 -2 424 -2 446 18 12 12 177 150 365 308 513 428 937 784 1075 902 68 58 133 111 146 119 26 16 -45 72 675 -534 151 -126 375 -314 497 -417 123 -102 280 -234 348 -292 l124 -106 439 2 438 3 0 224 0 225 -100 84 c-55 46 -248 209 -430 360 -181 152 -418 350 -525 440 -107 90 -315 263 -462 385 -147 122 -267 227 -267 234 -1 13 183 168 1554 1315 116 96 216 182 223 191 9 11 12 70 10 233 l-3 219 -440 3 -440 2 -91 -77 c-50 -43 -222 -188 -384 -323 -161 -135 -298 -250 -304 -255 -6 -6 -135 -114 -286 -241 -151 -126 -335 -281 -409 -343 -74 -62 -140 -115 -148 -118 -7 -3 -57 33 -110 79 -54 46 -231 195 -393 330 -162 136 -331 277 -375 314 -44 37 -177 149 -295 248 -118 99 -270 226 -337 283 l-121 103 -421 0 -421 0 -1 -225z"/>
</g>
</g>
  <g id="id4:id4" transform="matrix(1.25,0,0,1.25,0.0,0.0)"><g transform="translate(0.000000,203.200000) scale(0.040000,-0.040000)" fill="#b40611" stroke="none">
<path d="M47 5033 c-1 -1 -1 -235 1 -520 l2 -518 2490 0 2490 0 0 513 c0 281 1 514 3 517 2 4 -4982 13 -4986 8z"/>
</g>
</g>
  <g id="id5:id5" transform="matrix(1.25,0,0,1.25,0.0,0.0)"><g transform="translate(0.000000,203.200000) scale(0.040000,-0.040000)" fill="#80050b" stroke="none">
<path d="M1298 5033 c683 -2 1801 -2 2485 0 683 1 124 2 -1243 2 -1367 0 -1926 -1 -1242 -2z"/>
<path d="M42 4503 l-2 -523 2500 0 2500 0 -2 523 -3 522 -5 -515 -5 -515 -2485 0 -2485 0 -5 515 -5 515 -3 -522z"/>
</g>
</g>
  <g id="id6:id6" transform="matrix(1.25,0,0,1.25,0.0,0.0)"><g transform="translate(0.000000,203.200000) scale(0.040000,-0.040000)" fill="#2b2d41" stroke="none">
<path d="M46 3958 c-11 -41 -7 -466 5 -473 6 -5 5 -11 -5 -18 -15 -11 -16 -155 -14 -1462 l3 -1450 3 1454 c2 1242 4 1452 16 1448 21 -8 28 4 14 22 -10 12 -12 74 -10 249 l3 232 420 0 420 0 140 -117 c77 -65 145 -117 150 -116 5 2 8 -1 6 -6 -4 -14 202 -183 215 -175 6 4 8 3 5 -3 -4 -6 59 -66 141 -134 81 -68 169 -143 196 -166 26 -24 52 -40 57 -37 5 3 8 1 7 -5 -2 -5 114 -107 257 -227 143 -119 301 -252 351 -296 51 -43 96 -78 101 -78 15 0 83 61 80 72 -1 6 4 13 12 16 10 3 11 0 5 -9 -4 -8 34 22 86 67 52 44 191 160 308 258 116 98 210 181 207 186 -3 4 3 14 12 21 15 12 16 12 10 -5 -6 -14 89 58 123 94 3 3 71 61 152 129 82 68 145 127 142 132 -3 5 1 6 8 4 8 -3 25 6 38 20 13 14 20 25 15 25 -4 0 0 9 10 20 25 28 43 25 19 -2 -17 -21 -17 -21 8 1 15 13 25 28 21 34 -3 6 -1 7 6 3 13 -9 132 89 128 106 -1 6 4 13 12 16 10 3 11 0 5 -9 -8 -14 25 13 156 125 l65 56 443 -3 c291 -1 441 1 439 8 -2 6 -161 11 -442 13 -429 2 -438 2 -452 -18 -19 -27 -32 -25 -27 3 5 22 4 22 -5 1 -5 -12 -20 -29 -33 -38 -12 -9 -17 -16 -10 -16 7 0 10 -5 7 -10 -4 -6 -11 -8 -16 -5 -8 5 -170 -127 -584 -475 -60 -51 -229 -192 -374 -314 -145 -121 -331 -278 -415 -348 -83 -70 -154 -128 -157 -128 -3 0 -42 30 -87 68 -628 527 -1186 994 -1331 1115 -122 101 -161 139 -161 153 0 8 -4 14 -10 14 -14 0 -13 -13 2 -28 7 -7 8 -12 2 -12 -6 0 -19 9 -29 20 -18 19 -31 20 -440 20 l-423 0 -6 -22z m955 -65 c13 -16 12 -17 -3 -4 -10 7 -18 15 -18 17 0 8 8 3 21 -13z m54 -43 c10 -11 16 -20 13 -20 -3 0 -13 9 -23 20 -10 11 -16 20 -13 20 3 0 13 -9 23 -20z m2943 -12 c-8 -7 -25 -22 -38 -33 -20 -16 -19 -13 4 13 17 17 34 32 39 32 4 0 2 -6 -5 -12z m-2845 -77 c-2 -3 -18 10 -36 29 l-32 34 36 -30 c20 -16 34 -31 32 -33z m2725 -23 c-7 -7 -22 -20 -33 -28 -15 -10 -14 -7 4 13 14 15 29 27 33 27 5 0 3 -6 -4 -12z m-2578 -96 c0 -3 -31 19 -72 51 -10 8 -18 17 -18 21 0 4 20 -10 45 -31 25 -20 45 -39 45 -41z m51 -39 l24 -27 -32 23 c-33 23 -40 31 -25 31 5 0 19 -12 33 -27z m2369 3 c0 -2 -8 -10 -17 -17 -16 -13 -17 -12 -4 4 13 16 21 21 21 13z m-70 -59 c0 -2 -19 -18 -42 -37 l-43 -33 35 36 c31 31 50 44 50 34z m-2165 -59 l40 -41 -47 39 c-27 21 -48 40 -48 41 0 11 21 -4 55 -39z m2065 -21 c0 -2 -12 -14 -27 -28 l-28 -24 24 28 c23 25 31 32 31 24z m-1925 -98 c11 -12 -1 -5 -27 16 -27 22 -48 41 -48 43 0 7 56 -36 75 -59z m1855 38 c0 -2 -10 -12 -22 -23 l-23 -19 19 23 c18 21 26 27 26 19z m-50 -40 c0 -2 -12 -14 -27 -28 l-28 -24 24 28 c23 25 31 32 31 24z m-1750 -42 c13 -14 21 -25 18 -25 -2 0 -15 11 -28 25 -13 14 -21 25 -18 25 2 0 15 -11 28 -25z m1670 -30 c-7 -9 -32 -30 -54 -46 -35 -27 -34 -25 9 15 51 47 67 58 45 31z m-1605 -25 c10 -11 16 -20 13 -20 -3 0 -13 9 -23 20 -10 11 -16 20 -13 20 3 0 13 -9 23 -20z m195 -167 c0 -7 -75 54 -91 74 -8 10 10 -2 39 -26 28 -23 52 -45 52 -48z m1200 13 c-33 -31 -200 -166 -200 -162 0 6 202 176 209 176 3 0 -1 -6 -9 -14z m-1159 -43 c13 -17 13 -17 -6 -3 -11 8 -22 16 -24 17 -2 2 0 3 6 3 6 0 17 -8 24 -17z m144 -124 c11 -13 -1 -6 -27 15 -27 21 -48 40 -48 43 0 8 54 -34 75 -58z m785 -24 c-13 -14 -26 -23 -28 -20 -4 4 38 44 47 45 3 0 -6 -11 -19 -25z m-707 -44 c-2 -3 -16 8 -31 24 l-27 28 31 -24 c17 -13 30 -26 27 -28z m657 5 c0 -2 -24 -23 -52 -46 l-53 -42 50 46 c50 46 55 49 55 42z m-540 -103 c0 -3 -22 14 -50 37 -27 23 -50 44 -50 47 0 3 23 -14 50 -37 28 -23 50 -44 50 -47z m410 -8 c-7 -9 -32 -30 -54 -47 -35 -26 -34 -24 9 15 52 48 67 58 45 32z m-290 -92 c0 -3 -22 14 -50 37 -27 23 -50 44 -50 47 0 3 23 -14 50 -37 28 -23 50 -44 50 -47z m41 -30 c13 -16 12 -17 -3 -4 -17 13 -22 21 -14 21 2 0 10 -8 17 -17z m119 14 c0 -2 -10 -12 -22 -23 l-23 -19 19 23 c18 21 26 27 26 19z"/>
<path d="M1743 3973 c433 -2 1141 -2 1575 0 433 1 78 2 -788 2 -866 0 -1221 -1 -787 -2z"/>
<path d="M5005 3480 c-41 -43 -42 -68 -1 -33 17 16 32 36 32 46 0 9 -1 17 -1 17 -1 0 -14 -14 -30 -30z m15 -3 c0 -2 -10 -12 -22 -23 l-23 -19 19 23 c18 21 26 27 26 19z"/>
<path d="M5045 2000 c0 -806 1 -1135 2 -733 2 403 2 1063 0 1465 -1 403 -2 74 -2 -732z"/>
<path d="M86 3441 c-3 -5 14 -25 37 -44 27 -22 44 -30 44 -22 0 8 -5 13 -11 12 -6 -1 -10 3 -9 9 1 7 -7 20 -19 30 -12 11 -18 13 -13 5 5 -9 3 -12 -6 -9 -8 3 -13 11 -11 17 2 13 -5 15 -12 2z"/>
<path d="M4915 3405 c-22 -19 -40 -40 -40 -47 -1 -7 -6 -12 -13 -10 -7 1 -11 -3 -9 -9 1 -6 -4 -14 -12 -17 -9 -3 -11 0 -6 9 5 8 -1 6 -13 -5 -12 -10 -19 -22 -17 -27 3 -4 1 -10 -5 -14 -5 -3 -10 -1 -10 6 0 8 -7 5 -20 -6 -10 -9 -18 -22 -17 -29 1 -6 -5 -9 -13 -8 -8 2 -12 0 -8 -4 9 -8 -10 -34 -24 -34 -6 0 -4 8 3 18 12 14 10 14 -8 -2 -12 -10 -21 -23 -20 -30 1 -6 -5 -10 -14 -8 -16 2 -67 -44 -61 -56 2 -4 -2 -8 -9 -11 -8 -2 -9 1 -4 10 5 8 -1 6 -13 -5 -12 -10 -20 -23 -19 -30 1 -6 -4 -10 -12 -8 -16 3 -63 -37 -56 -49 3 -4 1 -10 -5 -14 -5 -3 -10 -1 -10 5 0 6 -25 -9 -55 -35 -30 -26 -53 -52 -52 -58 1 -7 -4 -11 -11 -9 -15 3 -448 -357 -445 -370 2 -4 -1 -7 -5 -5 -13 3 -122 -86 -116 -95 3 -5 1 -7 -4 -6 -14 4 -498 -403 -494 -416 2 -6 0 -8 -4 -3 -9 8 -44 -21 -43 -37 0 -6 17 -24 37 -41 20 -16 31 -22 23 -12 -7 9 -9 17 -4 17 13 0 45 -35 38 -42 -3 -3 5 -13 17 -24 18 -15 20 -16 9 -1 -7 9 -9 17 -3 17 12 0 34 -25 27 -32 -3 -2 7 -15 22 -29 14 -13 23 -18 19 -11 -4 6 -3 12 2 12 12 0 33 -25 27 -32 -3 -3 5 -13 17 -24 18 -15 20 -16 9 -1 -7 9 -9 17 -3 17 12 0 34 -25 27 -32 -3 -2 7 -15 22 -29 15 -13 22 -17 15 -8 -6 9 -9 18 -6 21 3 4 -52 54 -123 113 -70 59 -129 113 -131 120 -3 14 53 63 593 515 400 334 454 382 452 392 -1 6 4 13 12 16 9 3 11 0 6 -8 -4 -6 129 102 296 242 166 139 303 261 305 271 1 9 2 17 1 17 -1 -1 -20 -16 -42 -35z m-5 -24 c0 -5 -7 -12 -16 -15 -14 -5 -15 -4 -4 9 14 17 20 19 20 6z m-241 -204 c-2 -1 -15 -11 -29 -22 l-25 -20 19 23 c11 12 24 22 29 22 6 0 8 -1 6 -3z m-120 -100 c-2 -1 -15 -11 -29 -22 l-25 -20 19 23 c11 12 24 22 29 22 6 0 8 -1 6 -3z m-79 -60 c0 -2 -10 -12 -22 -23 l-23 -19 19 23 c18 21 26 27 26 19z m-190 -161 c0 -2 -8 -10 -17 -17 -16 -13 -17 -12 -4 4 13 16 21 21 21 13z m-50 -43 c0 -5 -13 -17 -28 -27 l-27 -19 24 26 c26 28 31 32 31 20z m-80 -68 c-7 -9 -27 -25 -44 -37 -23 -15 -21 -11 9 16 43 38 55 45 35 21z m-120 -100 c-7 -9 -27 -25 -44 -37 -23 -15 -21 -11 9 16 43 38 55 45 35 21z m-130 -108 c0 -1 -21 -20 -47 -41 l-48 -38 44 41 c40 38 51 46 51 38z m-120 -101 c0 -2 -8 -10 -17 -17 -16 -13 -17 -12 -4 4 13 16 21 21 21 13z m-50 -39 c0 -2 -10 -12 -22 -23 l-23 -19 19 23 c18 21 26 27 26 19z m-70 -61 c0 -2 -8 -10 -17 -17 -16 -13 -17 -12 -4 4 13 16 21 21 21 13z m-50 -39 c0 -2 -10 -12 -22 -23 l-23 -19 19 23 c18 21 26 27 26 19z m-70 -60 c0 -2 -10 -12 -22 -23 l-23 -19 19 23 c18 21 26 27 26 19z m-50 -41 c0 -2 -8 -10 -17 -17 -16 -13 -17 -12 -4 4 13 16 21 21 21 13z m-70 -59 c0 -2 -10 -12 -22 -23 l-23 -19 19 23 c18 21 26 27 26 19z m-140 -131 c0 -3 -4 -8 -10 -11 -5 -3 -10 -1 -10 4 0 6 5 11 10 11 6 0 10 -2 10 -4z m141 -143 c13 -16 12 -17 -3 -4 -17 13 -22 21 -14 21 2 0 10 -8 17 -17z"/>
<path d="M183 3366 c0 -9 52 -61 116 -114 64 -54 174 -147 245 -207 71 -59 126 -103 121 -95 -5 8 -3 11 6 8 8 -3 13 -10 12 -16 -1 -5 23 -32 54 -59 32 -26 53 -42 49 -34 -6 9 -5 12 5 9 8 -3 13 -10 12 -16 -2 -10 124 -118 825 -706 78 -66 142 -127 141 -135 0 -9 -54 -60 -120 -114 -65 -53 -118 -102 -116 -108 1 -6 -4 -14 -12 -17 -9 -3 -11 0 -6 8 4 7 -33 -22 -83 -64 -51 -42 -91 -82 -89 -88 1 -6 -4 -13 -12 -16 -10 -3 -11 0 -6 9 5 8 -15 -6 -44 -31 -29 -25 -53 -49 -53 -55 0 -5 -5 -17 -11 -25 -10 -13 -10 -13 5 -2 10 8 16 19 15 25 -1 7 5 11 14 9 15 -2 54 32 61 53 2 6 7 9 12 7 14 -5 56 40 49 51 -4 6 0 8 9 4 15 -5 53 25 53 42 0 3 4 5 8 3 5 -1 5 2 2 8 -4 7 -1 10 7 8 17 -4 118 79 115 94 -1 6 4 13 12 16 9 3 11 0 6 -9 -5 -8 4 -3 18 10 15 14 25 27 22 29 -7 7 15 32 27 32 6 0 4 -8 -3 -17 -7 -10 -1 -7 14 6 15 14 25 27 22 29 -7 7 15 32 27 32 6 0 4 -8 -3 -17 -11 -15 -9 -14 9 1 12 11 20 21 17 24 -6 7 15 32 27 32 5 0 6 -6 2 -12 -4 -7 5 -2 19 11 15 14 27 29 27 35 0 14 -188 172 -200 168 -6 -1 -9 2 -8 6 2 5 -85 82 -192 172 -546 459 -680 570 -680 565 0 -4 -12 7 -26 24 -14 17 -32 30 -39 29 -8 -2 -14 2 -15 7 -2 19 -43 55 -59 53 -9 -2 -15 2 -14 8 1 7 -8 20 -20 30 -18 16 -20 16 -8 2 7 -10 9 -18 3 -18 -12 0 -34 25 -27 32 3 3 -20 27 -52 54 -31 27 -53 43 -49 35 6 -9 5 -12 -5 -9 -8 3 -13 10 -12 15 1 6 -11 23 -27 38 -17 16 -30 23 -30 16 0 -7 -5 -9 -10 -6 -6 4 -8 10 -5 14 2 5 -5 17 -17 27 -12 11 -18 13 -13 5 5 -9 3 -12 -6 -9 -8 3 -13 11 -11 17 1 6 -4 10 -10 9 -7 -2 -12 2 -11 8 1 7 -7 20 -17 29 -11 10 -20 15 -20 11 0 -4 -10 5 -23 20 -18 21 -24 23 -24 10z m68 -53 c13 -16 12 -17 -3 -4 -17 13 -22 21 -14 21 2 0 10 -8 17 -17z m134 -113 c10 -11 16 -20 13 -20 -3 0 -13 9 -23 20 -10 11 -16 20 -13 20 3 0 13 -9 23 -20z m135 -117 c0 -7 -78 56 -87 70 -4 6 14 -6 40 -27 26 -21 47 -40 47 -43z m241 -200 c13 -16 12 -17 -3 -4 -10 7 -18 15 -18 17 0 8 8 3 21 -13z m70 -60 c13 -16 12 -17 -3 -4 -10 7 -18 15 -18 17 0 8 8 3 21 -13z m136 -116 c4 -7 -16 8 -45 31 -29 24 -55 49 -59 55 -4 7 16 -8 45 -31 29 -24 55 -49 59 -55z m93 -74 c0 -9 -37 18 -60 43 -22 24 -20 23 18 -6 23 -18 42 -35 42 -37z m93 -82 c-2 -3 -16 8 -31 24 l-27 28 31 -24 c17 -13 30 -26 27 -28z m42 -31 c10 -11 16 -20 13 -20 -3 0 -13 9 -23 20 -10 11 -16 20 -13 20 3 0 13 -9 23 -20z m60 -50 c10 -11 16 -20 13 -20 -3 0 -13 9 -23 20 -10 11 -16 20 -13 20 3 0 13 -9 23 -20z m60 -50 c10 -11 16 -20 13 -20 -3 0 -13 9 -23 20 -10 11 -16 20 -13 20 3 0 13 -9 23 -20z m70 -60 c10 -11 16 -20 13 -20 -3 0 -13 9 -23 20 -10 11 -16 20 -13 20 3 0 13 -9 23 -20z m46 -37 c13 -16 12 -17 -3 -4 -10 7 -18 15 -18 17 0 8 8 3 21 -13z m79 -68 c13 -14 21 -25 18 -25 -2 0 -15 11 -28 25 -13 14 -21 25 -18 25 2 0 15 -11 28 -25z m180 -150 c13 -14 21 -25 18 -25 -2 0 -15 11 -28 25 -13 14 -21 25 -18 25 2 0 15 -11 28 -25z m-70 -259 c0 -2 -8 -10 -17 -17 -16 -13 -17 -12 -4 4 13 16 21 21 21 13z m-120 -99 c0 -2 -10 -12 -22 -23 l-23 -19 19 23 c18 21 26 27 26 19z m-80 -71 c0 -2 -8 -10 -17 -17 -16 -13 -17 -12 -4 4 13 16 21 21 21 13z"/>
<path d="M3573 1744 c9 -11 15 -23 12 -26 -3 -3 5 -13 17 -24 12 -10 18 -13 13 -5 -5 9 -3 12 6 9 8 -3 13 -10 12 -16 -1 -5 21 -30 51 -55 55 -48 76 -39 23 10 -17 16 -27 22 -22 14 5 -9 3 -12 -6 -9 -8 3 -14 10 -14 18 0 7 -25 33 -55 59 -30 25 -47 36 -37 25z m148 -131 c13 -16 12 -17 -3 -4 -17 13 -22 21 -14 21 2 0 10 -8 17 -17z"/>
<path d="M3753 1585 c0 -7 5 -13 11 -12 6 1 10 -3 9 -10 -3 -12 85 -88 102 -88 5 0 10 -3 10 -7 0 -15 50 -58 64 -56 9 2 15 -2 14 -9 -1 -6 5 -17 15 -25 15 -11 15 -11 5 2 -6 8 -11 19 -10 24 1 4 -22 29 -52 55 -30 25 -51 40 -46 32 5 -9 3 -12 -6 -9 -8 3 -14 10 -14 18 0 7 -23 32 -51 56 -30 26 -51 38 -51 29z m57 -47 c0 -6 -6 -5 -15 2 -8 7 -15 14 -15 16 0 2 7 1 15 -2 8 -4 15 -11 15 -16z m31 -25 c13 -16 12 -17 -3 -4 -17 13 -22 21 -14 21 2 0 10 -8 17 -17z"/>
<path d="M1000 1346 c-113 -95 -205 -179 -205 -186 0 -7 -6 -15 -14 -18 -10 -3 -11 0 -5 9 4 8 -6 3 -23 -11 -17 -14 -30 -32 -30 -42 1 -12 11 -8 42 19 22 19 40 40 40 46 1 7 7 11 15 9 8 -2 12 0 8 4 -9 8 10 34 24 34 6 0 4 -8 -3 -17 -8 -10 12 4 44 31 32 27 55 51 52 54 -7 7 15 32 27 32 6 0 4 -8 -3 -17 -8 -10 12 4 44 31 32 27 55 51 52 54 -6 7 15 32 27 32 5 0 6 -6 2 -12 -6 -9 -3 -9 9 0 9 8 15 19 14 25 -1 7 5 11 14 9 8 -1 26 9 39 23 13 14 20 25 15 25 -4 0 0 9 10 20 10 11 16 20 14 19 -2 0 -96 -78 -209 -173z m165 114 c-10 -11 -23 -20 -29 -20 -6 0 0 9 14 20 32 25 38 25 15 0z m-105 -84 c0 -2 -19 -19 -42 -36 l-43 -32 39 36 c38 35 46 40 46 32z m-120 -100 c0 -2 -19 -19 -42 -36 l-43 -32 39 36 c38 35 46 40 46 32z m-180 -150 c0 -2 -8 -10 -17 -17 -16 -13 -17 -12 -4 4 13 16 21 21 21 13z"/>
<path d="M2442 1333 c-43 -38 -131 -112 -195 -167 -64 -54 -114 -102 -111 -108 3 -5 0 -8 -8 -6 -15 3 -122 -81 -113 -90 6 -7 -15 -32 -27 -32 -6 0 -4 8 3 17 8 10 -12 -4 -43 -31 -32 -26 -56 -52 -53 -56 3 -5 1 -11 -5 -15 -5 -3 -10 -1 -10 5 0 6 -25 -10 -55 -35 -30 -26 -53 -51 -50 -55 3 -5 1 -11 -5 -15 -5 -3 -10 -1 -10 6 0 7 -13 0 -30 -16 -16 -15 -27 -32 -24 -36 2 -4 0 -10 -6 -14 -5 -3 -10 -1 -10 5 0 6 -5 8 -10 5 -6 -4 -8 -11 -4 -16 3 -5 0 -8 -7 -7 -7 2 -14 -4 -14 -12 0 -8 -7 -14 -14 -12 -7 1 -10 -2 -5 -9 5 -8 2 -10 -8 -6 -15 5 -55 -27 -51 -42 1 -3 -4 -5 -11 -3 -15 2 -72 -55 -63 -64 3 -3 31 15 62 40 31 25 52 46 45 46 -6 0 -8 5 -5 10 4 6 11 8 16 4 12 -7 301 235 294 246 -3 5 -1 11 5 15 5 3 10 1 10 -5 0 -6 55 36 122 92 336 284 464 390 475 395 7 3 49 -26 93 -64 45 -37 85 -67 91 -66 5 2 8 -3 7 -10 -2 -6 5 -11 14 -11 10 1 16 -2 13 -6 -7 -12 282 -253 294 -246 5 4 12 2 16 -4 3 -5 1 -10 -4 -10 -6 0 31 -35 81 -79 59 -50 96 -74 100 -67 7 10 12 2 9 -16 -1 -13 287 -248 305 -248 12 0 15 -3 8 -8 -7 -4 9 -23 41 -49 33 -26 52 -36 52 -27 0 19 -89 94 -111 94 -10 0 -15 4 -12 9 8 12 -38 53 -55 49 -8 -2 -13 2 -12 8 1 6 -11 24 -27 39 -17 16 -30 23 -30 16 0 -7 -5 -9 -10 -6 -6 4 -8 10 -5 15 3 4 -21 30 -53 56 -31 27 -51 41 -43 31 7 -9 9 -17 3 -17 -12 0 -34 25 -27 32 3 3 -20 27 -52 54 -32 27 -52 41 -44 31 7 -9 9 -17 3 -17 -12 0 -34 25 -27 32 9 9 -168 153 -183 150 -8 -2 -11 1 -8 7 7 11 -71 78 -86 73 -5 -1 -7 1 -4 6 8 13 -82 84 -96 76 -6 -4 -8 -3 -5 4 9 13 -92 98 -111 94 -8 -2 -11 1 -8 6 6 10 -95 102 -112 102 -6 0 -46 -30 -90 -67z m28 2 c-13 -14 -27 -25 -32 -25 -9 0 42 49 51 50 3 0 -6 -11 -19 -25z m-50 -39 c0 -2 -8 -10 -17 -17 -16 -13 -17 -12 -4 4 13 16 21 21 21 13z m-70 -60 c0 -2 -8 -10 -17 -17 -16 -13 -17 -12 -4 4 13 16 21 21 21 13z m-50 -40 c0 -2 -8 -10 -17 -17 -16 -13 -17 -12 -4 4 13 16 21 21 21 13z m543 -65 c-2 -3 -16 8 -31 24 l-27 28 31 -24 c17 -13 30 -26 27 -28z m-584 27 c-2 -2 -17 -14 -34 -28 l-30 -25 24 28 c14 15 29 27 34 27 6 0 8 -1 6 -2z m-89 -72 c0 -2 -8 -10 -17 -17 -16 -13 -17 -12 -4 4 13 16 21 21 21 13z m765 -26 c10 -11 16 -20 13 -20 -3 0 -13 9 -23 20 -10 11 -16 20 -13 20 3 0 13 -9 23 -20z m-815 -18 c0 -4 -10 -13 -22 -21 -23 -14 -23 -14 -4 8 20 22 26 25 26 13z m881 -39 c13 -16 12 -17 -3 -4 -10 7 -18 15 -18 17 0 8 8 3 21 -13z m-941 -6 c0 -2 -10 -12 -22 -23 l-23 -19 19 23 c18 21 26 27 26 19z m1080 -114 c0 -2 -18 10 -40 27 -22 17 -40 34 -40 37 0 2 18 -10 40 -27 22 -17 40 -34 40 -37z m-1175 27 c-10 -11 -22 -20 -28 -20 -5 0 1 9 14 20 31 25 37 25 14 0z m1259 -99 c-3 -3 -15 6 -27 18 l-22 24 27 -19 c14 -10 24 -21 22 -23z m-1396 -16 c-15 -14 -31 -25 -35 -25 -8 1 48 50 57 50 3 0 -7 -11 -22 -25z m-69 -58 c-2 -1 -15 -11 -29 -22 l-25 -20 19 23 c11 12 24 22 29 22 6 0 8 -1 6 -3z m1677 -99 l19 -23 -25 20 c-14 11 -27 21 -29 22 -2 2 0 3 6 3 5 0 18 -10 29 -22z m69 -58 c10 -11 16 -20 13 -20 -3 0 -13 9 -23 20 -10 11 -16 20 -13 20 3 0 13 -9 23 -20z m-1945 -3 c0 -2 -12 -14 -27 -28 l-28 -24 24 28 c23 25 31 32 31 24z m2065 -97 c10 -11 16 -20 13 -20 -3 0 -13 9 -23 20 -10 11 -16 20 -13 20 3 0 13 -9 23 -20z"/>
<path d="M4004 1382 c11 -12 15 -22 11 -22 -5 0 2 -11 15 -25 13 -14 31 -24 39 -23 9 2 15 -2 14 -9 -1 -6 5 -17 14 -25 12 -9 15 -9 9 0 -4 6 -3 12 2 12 12 0 33 -25 27 -32 -3 -3 20 -27 52 -54 32 -27 52 -41 44 -31 -7 9 -9 17 -3 17 12 0 34 -25 27 -32 -3 -3 20 -27 52 -54 32 -27 52 -41 44 -31 -7 9 -9 17 -3 17 14 0 33 -26 24 -34 -4 -4 0 -6 8 -4 8 2 14 -2 15 -9 0 -6 19 -28 42 -47 30 -27 41 -31 39 -19 -2 10 -113 110 -247 222 -134 113 -235 195 -225 183z m61 -60 c-3 -3 -16 5 -28 17 l-22 23 28 -17 c15 -10 25 -20 22 -23z m146 -119 c8 -10 -5 -3 -28 16 -24 18 -43 35 -43 38 0 7 55 -34 71 -54z m120 -100 c8 -10 -5 -3 -28 16 -24 18 -43 35 -43 38 0 7 55 -34 71 -54z m94 -81 c-3 -3 -11 0 -18 7 -9 10 -8 11 6 5 10 -3 15 -9 12 -12z m36 -29 c13 -16 12 -17 -3 -4 -10 7 -18 15 -18 17 0 8 8 3 21 -13z"/>
<path d="M656 1057 c-27 -24 -50 -51 -52 -61 -2 -17 -1 -17 17 -1 10 10 16 21 14 26 -3 4 -1 10 5 14 5 3 10 1 10 -6 0 -8 7 -5 20 6 10 9 18 22 17 29 -1 6 3 10 9 9 6 -1 11 5 11 13 0 8 -1 14 -1 14 -1 0 -23 -20 -50 -43z"/>
<path d="M485 914 c-123 -105 -119 -101 -101 -101 8 0 13 4 10 8 -2 4 0 10 6 14 5 3 10 1 10 -6 0 -8 7 -5 20 6 10 9 18 22 17 29 -1 6 4 10 11 8 8 -1 11 2 6 9 -5 8 -2 10 8 6 16 -6 47 19 47 38 0 5 5 11 12 14 8 2 9 -1 4 -10 -5 -8 1 -6 13 5 12 10 20 23 19 30 -1 6 3 10 9 9 6 -1 11 5 11 13 0 8 -1 14 -1 14 -1 -1 -46 -39 -101 -86z m25 2 c0 -2 -8 -10 -17 -17 -16 -13 -17 -12 -4 4 13 16 21 21 21 13z"/>
<path d="M4493 965 c0 -7 5 -13 11 -12 6 1 10 -3 9 -9 -1 -7 7 -20 17 -29 13 -11 20 -14 20 -6 0 7 5 9 10 6 6 -4 8 -10 5 -14 -2 -5 4 -16 14 -26 18 -16 19 -16 17 1 -3 23 -103 109 -103 89z"/>
<path d="M4613 865 c0 -8 5 -13 11 -12 6 1 10 -3 9 -9 -1 -7 8 -20 20 -30 18 -16 20 -16 8 -1 -16 21 1 23 19 2 7 -8 9 -15 5 -15 -5 0 0 -9 10 -20 10 -11 22 -17 27 -14 11 7 40 -15 33 -26 -2 -4 4 -15 15 -25 13 -11 20 -14 20 -6 0 7 5 9 10 6 6 -4 8 -10 6 -14 -3 -4 9 -21 26 -37 18 -16 26 -21 19 -11 -7 9 -9 17 -3 17 12 0 34 -25 27 -32 -3 -3 5 -13 17 -24 12 -10 18 -13 13 -5 -5 9 -3 12 6 9 8 -3 13 -10 12 -15 -1 -6 12 -23 30 -39 17 -16 25 -21 18 -11 -7 9 -9 17 -3 17 14 0 33 -26 24 -34 -4 -4 0 -6 8 -4 8 2 14 -2 15 -9 0 -7 5 -17 12 -24 8 -8 11 -7 10 7 -2 22 -180 175 -199 172 -7 -2 -12 2 -11 8 3 14 -91 95 -115 99 -9 1 -16 7 -15 13 1 6 -17 26 -41 45 -26 22 -43 30 -43 22z m338 -282 c13 -16 12 -17 -3 -4 -10 7 -18 15 -18 17 0 8 8 3 21 -13z"/>
<path d="M222 694 c-68 -57 -118 -104 -112 -104 9 0 9 -5 -1 -17 -8 -10 12 4 44 31 32 27 55 51 52 54 -7 7 15 32 27 32 6 0 4 -8 -3 -17 -7 -10 1 -5 18 11 18 16 31 33 30 39 -1 5 4 12 12 15 9 3 11 0 6 -9 -5 -8 1 -5 13 5 12 11 20 21 17 24 -7 7 15 32 27 32 6 0 4 -8 -3 -17 -11 -15 -10 -14 9 1 26 23 26 22 5 23 -10 0 -73 -46 -141 -103z m48 22 c0 -2 -8 -10 -17 -17 -16 -13 -17 -12 -4 4 13 16 21 21 21 13z m-70 -60 c0 -2 -19 -19 -42 -36 l-43 -32 39 36 c38 35 46 40 46 32z"/>
<path d="M64 562 c-21 -17 -21 -27 -23 -264 -1 -156 1 -248 8 -252 6 -4 10 75 10 231 1 251 3 279 18 276 5 -1 10 5 10 13 0 8 -1 14 -1 14 -1 -1 -11 -9 -22 -18z"/>
<path d="M1435 485 c-27 -24 -46 -44 -41 -45 5 0 1 -10 -10 -22 -10 -12 10 3 46 33 36 30 62 56 58 57 -5 2 -6 8 -2 13 10 16 0 9 -51 -36z m5 -8 c0 -2 -10 -12 -22 -23 l-23 -19 19 23 c18 21 26 27 26 19z"/>
<path d="M3673 444 c9 -11 15 -23 12 -26 -3 -3 20 -27 52 -54 32 -26 50 -39 40 -28 -9 11 -15 23 -12 26 3 3 -20 27 -52 54 -32 26 -50 39 -40 28z m83 -76 c4 -7 -9 1 -29 16 -20 16 -37 30 -37 33 0 7 58 -36 66 -49z"/>
<path d="M1320 390 c-30 -27 -51 -50 -46 -50 5 0 1 -10 -10 -22 -10 -12 7 0 38 27 32 27 56 51 53 53 -3 3 2 14 12 24 29 32 10 19 -47 -32z m30 6 c0 -2 -17 -16 -37 -31 l-38 -26 35 30 c34 31 40 35 40 27z"/>
<path d="M3795 341 c11 -13 18 -26 17 -30 -2 -3 20 -26 50 -51 29 -25 45 -35 35 -24 -9 11 -15 23 -12 26 3 3 -5 13 -17 24 -18 15 -20 16 -9 2 7 -10 9 -18 3 -18 -12 0 -34 25 -27 32 3 2 -10 18 -27 34 -22 19 -26 21 -13 5z"/>
<path d="M1200 290 c-30 -27 -51 -50 -46 -50 5 0 1 -10 -10 -22 -10 -13 5 -3 34 22 30 25 52 48 50 51 -1 4 6 16 16 28 31 35 14 23 -44 -29z m14 -11 c-10 -11 -28 -25 -39 -30 -11 -6 -4 4 15 21 40 35 52 39 24 9z"/>
<path d="M3918 239 c12 -14 20 -28 17 -31 -3 -3 16 -24 43 -46 29 -25 49 -35 49 -27 0 8 -5 13 -11 12 -6 -1 -10 3 -9 9 1 7 -7 20 -17 29 -13 11 -20 14 -20 6 0 -7 -5 -9 -10 -6 -6 4 -8 10 -6 14 3 4 -9 21 -27 37 -27 24 -28 25 -9 3z m77 -69 c3 -6 -1 -7 -9 -4 -18 7 -21 14 -7 14 6 0 13 -4 16 -10z"/>
<path d="M1106 211 c-15 -16 -27 -32 -26 -36 1 -4 -1 -9 -4 -12 -3 -4 -6 0 -6 7 0 9 -6 8 -20 -5 -11 -10 -18 -20 -15 -23 7 -7 -15 -32 -27 -32 -6 0 -4 8 3 18 7 9 -1 4 -19 -12 -17 -16 -28 -34 -25 -39 4 -6 0 -8 -8 -5 -8 3 -22 -3 -32 -12 -18 -17 -18 -18 0 -17 10 1 29 12 43 23 14 12 53 45 88 74 35 28 61 54 58 58 -3 3 1 14 11 24 27 30 9 20 -21 -11z m-36 -55 c0 -2 -7 -7 -16 -10 -8 -3 -12 -2 -9 4 6 10 25 14 25 6z m-70 -50 c0 -2 -8 -10 -17 -17 -16 -13 -17 -12 -4 4 13 16 21 21 21 13z"/>
<path d="M4054 123 c11 -13 16 -23 11 -23 -4 0 -2 -6 5 -14 6 -8 17 -13 24 -10 6 2 12 -4 13 -16 2 -20 0 -20 -1575 -23 l-1577 -2 1578 -3 c1406 -2 1578 0 1583 13 5 13 9 13 23 3 9 -7 5 0 -8 15 -14 15 -32 26 -40 25 -9 -2 -15 2 -14 8 1 7 -8 20 -20 30 l-22 19 19 -22z"/>
</g>
</g>
  <g id="id7:id7" transform="matrix(1.25,0,0,1.25,0.0,0.0)"><g transform="translate(0.000000,203.200000) scale(0.040000,-0.040000)" fill="#060309" stroke="none">
<path d="M0 2540 l0 -2540 2540 0 2540 0 0 2540 0 2540 -2540 0 -2540 0 0 -2540z m5042 1718 c3 -893 3 -3611 0 -3975 l-1 -243 -450 0 c-306 0 -452 3 -456 11 -5 6 -11 5 -18 -5 -11 -15 -166 -16 -1592 -13 -869 1 -1782 5 -2030 7 l-450 5 -4 250 c-3 138 -6 905 -8 1705 -3 1313 -2 1456 13 1467 9 7 11 13 5 17 -7 5 -11 260 -11 781 l0 775 2500 0 2500 0 2 -782z"/>
<path d="M915 3960 c10 -11 22 -20 27 -20 4 0 3 9 -4 20 -7 11 -19 20 -27 20 -11 0 -10 -5 4 -20z"/>
<path d="M4117 3960 c-6 -23 3 -26 21 -8 16 16 15 28 -2 28 -7 0 -16 -9 -19 -20z"/>
<path d="M4066 3905 c-16 -14 -25 -25 -19 -25 5 0 20 11 33 25 30 32 23 32 -14 0z"/>
<path d="M980 3906 c0 -2 8 -10 18 -17 15 -13 16 -12 3 4 -13 16 -21 21 -21 13z"/>
<path d="M1045 3850 c10 -11 20 -20 23 -20 3 0 -3 9 -13 20 -10 11 -20 20 -23 20 -3 0 3 -9 13 -20z"/>
<path d="M3945 3803 c-27 -25 -41 -40 -30 -34 26 14 100 81 89 81 -5 -1 -31 -21 -59 -47z"/>
<path d="M1117 3790 c18 -19 34 -32 36 -29 2 2 -12 17 -32 33 l-36 30 32 -34z"/>
<path d="M3849 3723 c-18 -20 -19 -23 -4 -13 32 24 47 40 37 40 -4 0 -19 -12 -33 -27z"/>
<path d="M1210 3714 c0 -7 11 -16 63 -55 42 -32 32 -17 -18 24 -25 21 -45 35 -45 31z"/>
<path d="M3719 3613 l-34 -37 43 33 c23 18 42 35 42 37 0 13 -20 0 -51 -33z"/>
<path d="M1310 3626 c0 -3 15 -15 33 -27 l32 -23 -24 27 c-22 24 -41 35 -41 23z"/>
<path d="M3600 3513 l-35 -36 43 33 c23 19 42 35 42 37 0 10 -19 -3 -50 -34z"/>
<path d="M1430 3527 c0 -1 21 -20 48 -41 l47 -39 -40 41 c-34 35 -55 50 -55 39z"/>
<path d="M4970 3439 c-27 -25 -33 -33 -15 -21 28 18 73 62 64 62 -2 0 -24 -19 -49 -41z"/>
<path d="M3519 3443 l-24 -28 28 24 c25 23 32 31 24 31 -2 0 -14 -12 -28 -27z"/>
<path d="M70 3453 c1 -5 17 -20 38 -35 20 -15 53 -39 72 -54 31 -24 31 -23 -5 11 -89 82 -105 95 -105 78z"/>
<path d="M1550 3428 c0 -2 21 -21 48 -43 26 -21 38 -28 27 -16 -19 23 -75 66 -75 59z"/>
<path d="M3454 3388 l-19 -23 23 19 c12 11 22 21 22 23 0 8 -8 2 -26 -19z"/>
<path d="M4855 3345 c-28 -25 -53 -45 -57 -45 -5 0 -8 -5 -8 -11 0 -6 26 10 58 37 31 26 59 49 61 51 2 2 2 5 0 7 -3 3 -27 -15 -54 -39z"/>
<path d="M3399 3343 l-24 -28 28 24 c25 23 32 31 24 31 -2 0 -14 -12 -28 -27z"/>
<path d="M1670 3325 c13 -14 26 -25 28 -25 3 0 -5 11 -18 25 -13 14 -26 25 -28 25 -3 0 5 -11 18 -25z"/>
<path d="M284 3278 c33 -32 62 -55 64 -53 3 3 -7 14 -22 26 -14 11 -32 26 -39 32 -50 45 -52 41 -3 -5z"/>
<path d="M3305 3264 c-43 -40 -44 -42 -9 -15 37 27 72 61 63 61 -2 0 -26 -21 -54 -46z"/>
<path d="M1735 3270 c10 -11 20 -20 23 -20 3 0 -3 9 -13 20 -10 11 -20 20 -23 20 -3 0 3 -9 13 -20z"/>
<path d="M4745 3254 c-16 -14 -41 -35 -55 -47 -14 -12 -50 -42 -80 -67 -30 -25 -68 -57 -85 -72 -16 -16 -33 -28 -37 -28 -5 0 -8 -5 -8 -10 0 -10 266 206 290 235 19 22 9 18 -25 -11z"/>
<path d="M363 3214 c9 -15 233 -204 242 -204 9 0 -8 16 -95 87 -41 34 -93 76 -115 95 -21 18 -36 28 -32 22z"/>
<path d="M3224 3199 c-19 -22 -19 -22 4 -10 12 6 22 16 22 21 0 15 -5 12 -26 -11z"/>
<path d="M1849 3177 c16 -20 91 -81 91 -74 0 3 -24 25 -52 48 -29 24 -47 36 -39 26z"/>
<path d="M3042 3045 c-56 -47 -102 -88 -102 -91 0 -2 42 30 93 72 102 84 124 104 116 104 -3 0 -51 -38 -107 -85z"/>
<path d="M1951 3087 c2 -1 13 -9 24 -17 19 -14 19 -14 6 3 -7 9 -18 17 -24 17 -6 0 -8 -1 -6 -3z"/>
<path d="M4444 2998 l-19 -23 23 19 c21 18 27 26 19 26 -2 0 -12 -10 -23 -22z"/>
<path d="M2050 3007 c0 -3 21 -22 48 -43 26 -21 38 -28 27 -15 -21 24 -75 66 -75 58z"/>
<path d="M635 2981 c11 -13 34 -32 50 -43 l30 -21 -30 29 c-17 16 -39 36 -50 44 -20 15 -20 15 0 -9z"/>
<path d="M4350 2919 c-29 -26 -34 -34 -15 -21 29 19 73 62 64 62 -3 0 -25 -18 -49 -41z"/>
<path d="M2901 2929 c-13 -11 -22 -22 -19 -24 2 -3 15 6 28 20 28 30 24 32 -9 4z"/>
<path d="M2172 2905 c15 -16 29 -27 31 -24 3 2 -10 15 -27 28 l-31 24 27 -28z"/>
<path d="M740 2896 c0 -2 8 -10 18 -17 15 -13 16 -12 3 4 -13 16 -21 21 -21 13z"/>
<path d="M2805 2844 l-50 -46 53 42 c45 36 59 51 50 50 -2 0 -25 -21 -53 -46z"/>
<path d="M2220 2867 c0 -3 23 -24 50 -47 28 -23 50 -40 50 -37 0 3 -22 24 -50 47 -27 23 -50 40 -50 37z"/>
<path d="M780 2857 c0 -2 15 -14 33 -27 l32 -23 -24 26 c-21 23 -41 35 -41 24z"/>
<path d="M4259 2843 c-13 -16 -12 -17 4 -4 9 7 17 15 17 17 0 8 -8 3 -21 -13z"/>
<path d="M4199 2793 l-24 -26 27 19 c15 10 28 22 28 27 0 12 -5 8 -31 -20z"/>
<path d="M863 2793 c4 -6 30 -31 59 -55 29 -23 49 -38 45 -31 -4 6 -30 31 -59 55 -29 23 -49 38 -45 31z"/>
<path d="M2685 2743 c-43 -39 -44 -41 -9 -15 37 28 72 63 63 62 -2 -1 -26 -21 -54 -47z"/>
<path d="M2340 2767 c0 -3 23 -24 50 -47 28 -23 50 -40 50 -37 0 3 -22 24 -50 47 -27 23 -50 40 -50 37z"/>
<path d="M4115 2724 c-30 -27 -32 -31 -9 -16 28 19 62 53 53 52 -2 -1 -22 -17 -44 -36z"/>
<path d="M1000 2676 c23 -25 60 -52 60 -43 0 2 -19 19 -42 37 -38 29 -40 30 -18 6z"/>
<path d="M2584 2658 l-29 -33 30 25 c17 14 34 28 40 32 5 5 5 8 -1 8 -6 0 -23 -15 -40 -32z"/>
<path d="M2460 2666 c0 -2 8 -10 18 -17 15 -13 16 -12 3 4 -13 16 -21 21 -21 13z"/>
<path d="M3995 2624 c-30 -27 -32 -31 -9 -16 28 19 62 53 53 52 -2 -1 -22 -17 -44 -36z"/>
<path d="M1122 2575 c15 -16 29 -27 31 -24 3 2 -10 15 -27 28 l-31 24 27 -28z"/>
<path d="M1185 2520 c10 -11 20 -20 23 -20 3 0 -3 9 -13 20 -10 11 -20 20 -23 20 -3 0 3 -9 13 -20z"/>
<path d="M3849 2499 l-44 -41 48 38 c26 21 47 40 47 41 0 8 -11 0 -51 -38z"/>
<path d="M1245 2470 c10 -11 20 -20 23 -20 3 0 -3 9 -13 20 -10 11 -20 20 -23 20 -3 0 3 -9 13 -20z"/>
<path d="M1305 2420 c10 -11 20 -20 23 -20 3 0 -3 9 -13 20 -10 11 -20 20 -23 20 -3 0 3 -9 13 -20z"/>
<path d="M3759 2423 c-13 -16 -12 -17 4 -4 16 13 21 21 13 21 -2 0 -10 -8 -17 -17z"/>
<path d="M3704 2378 l-19 -23 23 19 c12 11 22 21 22 23 0 8 -8 2 -26 -19z"/>
<path d="M1375 2360 c10 -11 20 -20 23 -20 3 0 -3 9 -13 20 -10 11 -20 20 -23 20 -3 0 3 -9 13 -20z"/>
<path d="M1410 2336 c0 -2 8 -10 18 -17 15 -13 16 -12 3 4 -13 16 -21 21 -21 13z"/>
<path d="M3639 2323 c-13 -16 -12 -17 4 -4 16 13 21 21 13 21 -2 0 -10 -8 -17 -17z"/>
<path d="M3584 2278 l-19 -23 23 19 c21 18 27 26 19 26 -2 0 -12 -10 -23 -22z"/>
<path d="M1500 2255 c13 -14 26 -25 28 -25 3 0 -5 11 -18 25 -13 14 -26 25 -28 25 -3 0 5 -11 18 -25z"/>
<path d="M3514 2218 l-19 -23 23 19 c21 18 27 26 19 26 -2 0 -12 -10 -23 -22z"/>
<path d="M3469 2183 c-13 -16 -12 -17 4 -4 16 13 21 21 13 21 -2 0 -10 -8 -17 -17z"/>
<path d="M3394 2118 l-19 -23 23 19 c12 11 22 21 22 23 0 8 -8 2 -26 -19z"/>
<path d="M1680 2105 c13 -14 26 -25 28 -25 3 0 -5 11 -18 25 -13 14 -26 25 -28 25 -3 0 5 -11 18 -25z"/>
<path d="M3260 1999 c0 -5 5 -7 10 -4 6 3 10 8 10 11 0 2 -4 4 -10 4 -5 0 -10 -5 -10 -11z"/>
<path d="M1634 1867 c-67 -56 -120 -104 -118 -106 2 -2 54 38 116 90 138 113 145 119 133 119 -6 -1 -65 -47 -131 -103z"/>
<path d="M3290 1966 c0 -6 379 -320 393 -325 16 -5 25 -13 -183 161 -184 153 -210 173 -210 164z"/>
<path d="M1430 1694 c-94 -80 -158 -138 -135 -122 11 7 22 15 25 18 3 3 30 25 60 50 64 52 127 110 120 110 -3 0 -34 -25 -70 -56z"/>
<path d="M3750 1581 c30 -27 56 -48 58 -46 5 4 -41 45 -87 78 -14 11 -1 -4 29 -32z"/>
<path d="M1040 1369 c-118 -100 -228 -192 -245 -205 -16 -13 -25 -24 -19 -24 5 0 19 8 30 18 10 10 78 67 149 126 72 60 141 118 155 130 14 11 50 41 80 66 70 57 83 70 73 70 -4 0 -105 -82 -223 -181z"/>
<path d="M3850 1499 c19 -19 44 -41 55 -49 19 -14 19 -14 6 3 -8 10 -33 32 -55 49 l-41 31 35 -34z"/>
<path d="M3940 1419 c8 -8 40 -34 70 -59 30 -25 66 -55 80 -66 14 -12 84 -70 155 -130 72 -59 139 -116 149 -126 11 -10 24 -18 29 -18 9 0 -34 37 -306 265 -93 77 -173 142 -180 144 -6 2 -5 -2 3 -10z"/>
<path d="M2457 1335 c-15 -14 -24 -25 -19 -25 5 0 19 11 32 25 30 32 23 32 -13 0z"/>
<path d="M2399 1283 c-13 -16 -12 -17 4 -4 9 7 17 15 17 17 0 8 -8 3 -21 -13z"/>
<path d="M2641 1297 c2 -1 13 -9 24 -17 19 -14 19 -14 6 3 -7 9 -18 17 -24 17 -6 0 -8 -1 -6 -3z"/>
<path d="M2329 1223 c-13 -16 -12 -17 4 -4 16 13 21 21 13 21 -2 0 -10 -8 -17 -17z"/>
<path d="M2279 1183 c-13 -16 -12 -17 4 -4 16 13 21 21 13 21 -2 0 -10 -8 -17 -17z"/>
<path d="M2812 1155 c15 -16 29 -27 31 -24 3 2 -10 15 -27 28 l-31 24 27 -28z"/>
<path d="M2219 1133 l-24 -28 30 25 c17 14 32 26 34 28 2 1 0 2 -6 2 -5 0 -20 -12 -34 -27z"/>
<path d="M705 1084 c-28 -25 -41 -40 -30 -33 26 18 92 79 85 79 -3 0 -28 -21 -55 -46z"/>
<path d="M2120 1049 c-25 -23 -36 -35 -25 -28 26 18 81 69 75 69 -3 0 -25 -19 -50 -41z"/>
<path d="M2932 1055 c15 -16 29 -27 31 -24 3 2 -10 15 -27 28 l-31 24 27 -28z"/>
<path d="M545 954 c-100 -85 -153 -134 -110 -103 11 7 22 16 25 19 3 3 30 25 60 50 30 25 61 50 67 57 7 6 25 21 39 32 15 12 25 23 23 25 -2 2 -49 -34 -104 -80z"/>
<path d="M2980 1016 c0 -2 8 -10 18 -17 15 -13 16 -12 3 4 -13 16 -21 21 -21 13z"/>
<path d="M4470 979 c19 -19 44 -41 55 -49 19 -14 19 -14 6 3 -8 10 -33 32 -55 49 l-41 31 35 -34z"/>
<path d="M1983 938 c-40 -34 -71 -64 -69 -66 4 -4 40 25 111 90 63 59 38 44 -42 -24z"/>
<path d="M3041 963 c0 -4 36 -37 80 -73 45 -36 89 -73 99 -82 11 -10 23 -18 27 -18 4 1 -4 11 -18 23 -136 114 -189 156 -188 150z"/>
<path d="M4550 910 c0 -5 3 -10 8 -10 4 0 27 -19 52 -41 57 -51 100 -83 99 -72 -1 12 -159 135 -159 123z"/>
<path d="M1872 845 c-7 -8 -9 -15 -4 -15 5 0 15 7 22 15 16 19 -1 19 -18 0z"/>
<path d="M380 817 c-14 -13 -92 -78 -173 -146 -81 -68 -145 -126 -142 -130 3 -3 9 -1 13 5 4 6 65 59 137 119 72 59 145 121 164 136 19 16 32 31 30 34 -3 2 -16 -6 -29 -18z"/>
<path d="M1815 795 c-16 -13 -26 -24 -22 -25 4 0 20 11 35 25 34 32 26 32 -13 0z"/>
<path d="M3270 765 c7 -8 17 -15 22 -15 6 0 5 7 -2 15 -7 8 -17 15 -22 15 -6 0 -5 -7 2 -15z"/>
<path d="M4720 766 c0 -3 15 -15 33 -27 l32 -23 -24 27 c-22 24 -41 35 -41 23z"/>
<path d="M1754 746 c-7 -7 -24 -23 -39 -35 -16 -12 -26 -23 -24 -25 2 -2 24 14 49 35 25 21 41 39 35 39 -5 -1 -15 -7 -21 -14z"/>
<path d="M4790 714 c1 -5 38 -39 83 -76 45 -37 95 -79 110 -94 16 -14 30 -24 33 -21 3 2 -35 37 -83 78 -48 40 -90 76 -93 79 -19 20 -50 42 -50 34z"/>
<path d="M3410 652 c30 -28 57 -48 59 -46 2 2 -8 13 -23 25 -14 11 -32 26 -39 32 -6 7 -21 18 -32 26 -11 7 5 -9 35 -37z"/>
<path d="M1634 646 c-7 -7 -24 -23 -39 -35 -16 -12 -26 -23 -24 -26 3 -2 25 14 49 35 25 22 41 40 35 39 -5 0 -15 -6 -21 -13z"/>
<path d="M3502 575 c15 -16 29 -27 31 -24 3 2 -10 15 -27 28 l-31 24 27 -28z"/>
<path d="M1529 553 l-24 -28 28 24 c25 23 32 31 24 31 -2 0 -14 -12 -28 -27z"/>
<path d="M3541 537 c2 -1 13 -9 24 -17 19 -14 19 -14 6 3 -7 9 -18 17 -24 17 -6 0 -8 -1 -6 -3z"/>
<path d="M1474 509 c-19 -22 -19 -22 4 -8 12 8 22 17 22 21 0 12 -6 9 -26 -13z"/>
<path d="M3641 459 c25 -24 110 -98 189 -164 79 -66 171 -144 204 -172 33 -29 65 -53 70 -53 9 0 -10 19 -78 73 -21 18 -43 37 -50 43 -11 10 -311 261 -356 297 -14 11 -4 1 21 -24z"/>
<path d="M1275 344 c-88 -74 -177 -149 -199 -167 -88 -72 -127 -107 -120 -107 10 0 353 284 443 367 86 80 36 42 -124 -93z"/>
</g>
</g>
</svg>
