<?xml version="1.0" encoding="UTF-8"?>
<!DOCTYPE svg  PUBLIC '-//W3C//DTD SVG 1.1//EN'  'http://www.w3.org/Graphics/SVG/1.1/DTD/svg11.dtd'>
<svg version="1.1" viewBox="0 0 254 254" xmlns="http://www.w3.org/2000/svg">
<g transform="scale(1.25)">
<g transform="translate(0 203.2) scale(.04 -.04)" fill="#fefefe">
<path d="m980 3946c0-5 314-270 390-331 21-16 116-96 212-176 625-526 922-775 934-784 9-6 19-4 31 7 10 8 254 213 543 454 289 242 565 473 614 514s105 89 126 105c86 70 250 208 250 211 0 2-697 4-1550 4-852 0-1550-2-1550-4z"/>
<path d="m4994 3422c-47-41-325-275-1014-852-174-146-396-332-493-413-97-82-179-152-181-155-3-6 145-133 458-392 208-173 658-551 688-579 21-18 48-41 60-50 13-8 39-30 58-47 35-32 254-216 388-326l72-59v1450c0 798-1 1451-2 1451-2-1-17-13-34-28z"/>
<path d="m50 2006c0-790 2-1436 5-1436s23 15 43 34 82 72 137 118 172 144 260 218 169 141 179 150c11 8 40 33 65 56 25 22 154 130 285 240 335 279 335 279 392 326 28 24 117 99 199 167l148 124-25 21c-13 12-116 98-228 191-214 179-683 573-810 680-41 35-181 152-310 261-129 108-259 217-287 241l-53 45v-1436z"/>
<path d="m2264 1132c-266-222-806-674-1058-886-77-65-163-136-189-157l-49-39h1563c860 0 1559 4 1554 8-6 5-104 87-219 183s-311 260-436 364c-124 105-332 278-461 386s-277 232-330 277-101 82-105 82c-5 0-126-98-270-218z"/>
</g>
<g transform="translate(0 203.2) scale(.04 -.04)" fill="#cdcdcc">
<path d="m960 3957c0-2 15-16 32-33 32-28 32-28 9-1l-24 27h1552c1478 0 1553-1 1540-17-11-15-10-14 9 1 12 11 22 21 22 23 0 1-706 3-1570 3-863 0-1570-1-1570-3z"/>
<path d="m4009 3883-24-28 28 24c15 14 27 26 27 28 0 8-8 1-31-24z"/>
<path d="m1030 3897c0-2 15-16 33-33l32-29-29 33c-28 30-36 37-36 29z"/>
<path d="m3954 3838-19-23 23 19c21 18 27 26 19 26-2 0-12-10-23-22z"/>
<path d="m1115 3820c10-11 20-20 23-20s-3 9-13 20-20 20-23 20 3-9 13-20z"/>
<path d="m3894 3788-29-33 33 29c30 28 37 36 29 36-2 0-16-15-33-32z"/>
<path d="m1150 3797c0-2 15-16 33-33l32-29-29 33c-28 30-36 37-36 29z"/>
<path d="m3795 3704-50-46 53 43c47 38 58 49 49 49-1 0-25-21-52-46z"/>
<path d="m1220 3737c0-2 26-26 57-53s54-44 50-37c-9 14-107 97-107 90z"/>
<path d="m3675 3604-50-46 53 42c45 36 59 51 50 50-2 0-25-21-53-46z"/>
<path d="m1350 3627c0-2 24-24 53-48 28-24 46-36 38-26-16 20-91 81-91 74z"/>
<path d="m3560 3509-55-51 52 42c46 37 71 61 61 60-2 0-28-23-58-51z"/>
<path d="m1463 3533c9-14 107-97 107-90 0 2-26 26-57 53s-54 44-50 37z"/>
<path d="m4999 3432-24-27 28 24 27 24v-1452-1453l-52 42-53 42 50-46c28-25 53-46 58-46 10 0 9 2908-2 2914-4 3-19-7-32-22z"/>
<path d="m40 2005c0-795 3-1445 8-1445 4 0 6 648 4 1441l-2 1441 57-47 58-48-55 51c-30 28-58 52-62 52-5 0-8-650-8-1445z"/>
<path d="m3459 3423-24-28 28 24c25 23 32 31 24 31-2 0-14-12-28-27z"/>
<path d="m1580 3437c0-3 27-28 60-57s60-50 60-47-27 28-60 57-60 50-60 47z"/>
<path d="m4905 3353c-56-51-56-53-9-15 46 38 82 73 73 72-2-1-31-26-64-57z"/>
<path d="m3404 3378-19-23 23 19c12 11 22 21 22 23 0 8-8 2-26-19z"/>
<path d="m170 3347c0-3 27-28 60-57s60-50 60-47-27 28-60 57-60 50-60 47z"/>
<path d="m3339 3323-24-28 28 24c25 23 32 31 24 31-2 0-14-12-28-27z"/>
<path d="m1745 3295c22-20 63-55 90-77 49-39 49-39 10-3-22 20-62 55-90 77-49 39-49 39-10 3z"/>
<path d="m3175 3189c-71-60-139-119-150-131-11-11 49 36 133 106 129 108 164 139 150 135-2 0-61-50-133-110z"/>
<path d="m4611 3110c-124-104-232-197-240-207-21-22 13 5 257 210 176 147 223 189 210 186-2 0-104-85-227-189z"/>
<path d="m300 3236c0-3 66-61 148-129 81-68 162-136 180-151 17-15 32-25 32-23 0 3-81 74-180 157s-180 149-180 146z"/>
<path d="m1890 3176c0-3 68-62 150-131 83-69 150-124 150-121s-67 62-150 131c-82 69-150 124-150 121z"/>
<path d="m2940 2989-55-51 52 42c46 37 71 61 61 60-2 0-28-23-58-51z"/>
<path d="m2820 2889-55-51 52 42c46 37 71 61 61 60-2 0-28-23-58-51z"/>
<path d="m705 2893c22-21 121-105 220-188 99-82 292-244 429-359s246-205 243-199c-6 10-255 220-732 618-110 92-182 150-160 128z"/>
<path d="m2203 2913c9-14 107-97 107-90 0 2-26 26-57 53s-54 44-50 37z"/>
<path d="m4086 2670c-142-120-266-227-275-236-21-23 6-1 291 237 202 170 262 222 246 218-2 0-120-99-262-219z"/>
<path d="m2685 2778c-38-33-92-78-118-99-27-22-45-39-40-39 9 0 233 188 233 195 0 8-2 6-75-57z"/>
<path d="m2320 2817c0-3 44-42 97-88 53-45 93-78 89-71-8 14-186 165-186 159z"/>
<path d="m3558 2227c-125-106-235-201-245-211s91 72 225 184c210 176 264 222 250 219-2 0-105-87-230-192z"/>
<path d="m1613 2133c9-14 107-97 107-90 0 2-26 26-57 53s-54 44-50 37z"/>
<path d="m1730 2036c0-2 8-10 18-17 15-13 16-12 3 4s-21 21-21 13z"/>
<path d="m1625 1889c-71-61-161-136-198-167-565-472-694-581-707-598-8-10 4-3 25 17 35 31 558 470 679 569 203 166 350 294 334 289-2 0-61-50-133-110z"/>
<path d="m3337 1957c38-33 358-301 439-367 23-19 175-146 338-282 162-137 297-248 301-248 5 0-479 408-639 540-24 19-138 115-255 213-116 97-214 177-216 177-3 0 12-15 32-33z"/>
<path d="m2480 1319-45-41 46 36c25 20 50 36 54 36 5 0 20-10 34-22l26-23-24 28c-14 15-29 27-35 27s-31-18-56-41z"/>
<path d="m2600 1307c0-2 15-16 33-33l32-29-29 33c-28 30-36 37-36 29z"/>
<path d="m2370 1229-55-51 52 42c46 37 71 61 61 60-2 0-28-23-58-51z"/>
<path d="m2690 1225c13-14 26-25 28-25 3 0-5 11-18 25s-26 25-28 25c-3 0 5-11 18-25z"/>
<path d="m2733 1193c9-14 107-97 107-90 0 2-26 26-57 53s-54 44-50 37z"/>
<path d="m2274 1148-29-33 33 29c30 28 37 36 29 36-2 0-16-15-33-32z"/>
<path d="m2214 1098-19-23 23 19c21 18 27 26 19 26-2 0-12-10-23-22z"/>
<path d="m676 1095c-11-8-15-15-9-15s16 7 23 15c16 19 11 19-14 0z"/>
<path d="m2850 1097c0-2 15-16 33-33l32-29-29 33c-28 30-36 37-36 29z"/>
<path d="m2154 1048-29-33 33 29c30 28 37 36 29 36-2 0-16-15-33-32z"/>
<path d="m540 979c-93-79-176-157-110-103 149 123 232 194 223 193-5 0-55-41-113-90z"/>
<path d="m4430 1047c0-2 15-16 33-33l32-29-29 33c-28 30-36 37-36 29z"/>
<path d="m2935 1020c10-11 20-20 23-20s-3 9-13 20-20 20-23 20 3-9 13-20z"/>
<path d="m2089 993-24-28 28 24c25 23 32 31 24 31-2 0-14-12-28-27z"/>
<path d="m2970 997c0-2 15-16 33-33l32-29-29 33c-28 30-36 37-36 29z"/>
<path d="m4500 987c0-3 51-48 113-100 61-52 127-106 145-121 17-15 32-25 32-23 0 3-51 48-114 101s-120 101-128 108c-24 23-48 41-48 35z"/>
<path d="m2029 943c-13-16-12-17 4-4s21 21 13 21c-2 0-10-8-17-17z"/>
<path d="m3060 915c13-14 26-25 28-25 3 0-5 11-18 25s-26 25-28 25c-3 0 5-11 18-25z"/>
<path d="m1964 888-29-33 33 29c30 28 37 36 29 36-2 0-16-15-33-32z"/>
<path d="m3110 876c0-2 8-10 18-17 15-13 16-12 3 4s-21 21-21 13z"/>
<path d="m340 809-55-51 52 42c46 37 71 61 61 60-2 0-28-23-58-51z"/>
<path d="m1875 814-50-46 53 42c45 36 59 51 50 50-2 0-25-21-53-46z"/>
<path d="m3160 837c0-2 15-16 33-33l32-29-29 33c-28 30-36 37-36 29z"/>
<path d="m3230 777c0-3 23-24 50-47 28-23 50-40 50-37s-22 24-50 47c-27 23-50 40-50 37z"/>
<path d="m1779 733-24-28 28 24c15 14 27 26 27 28 0 8-8 1-31-24z"/>
<path d="m210 699-55-51 58 47c50 42 64 55 55 55-2 0-28-23-58-51z"/>
<path d="m4803 733c9-14 107-97 107-90 0 2-26 26-57 53s-54 44-50 37z"/>
<path d="m1724 688-19-23 23 19c12 11 22 21 22 23 0 8-8 2-26-19z"/>
<path d="m3350 677c0-3 23-24 50-47 28-23 50-40 50-37s-22 24-50 47c-27 23-50 40-50 37z"/>
<path d="m1659 633-24-28 28 24c15 14 27 26 27 28 0 8-8 1-31-24z"/>
<path d="m114 618-29-33 33 29c30 28 37 36 29 36-2 0-16-15-33-32z"/>
<path d="m1594 578-19-23 23 19c21 18 27 26 19 26-2 0-12-10-23-22z"/>
<path d="m3490 555c13-14 26-25 28-25 3 0-5 11-18 25s-26 25-28 25c-3 0 5-11 18-25z"/>
<path d="m1539 533-24-28 28 24c15 14 27 26 27 28 0 8-8 1-31-24z"/>
<path d="m3555 500c10-11 20-20 23-20s-3 9-13 20-20 20-23 20 3-9 13-20z"/>
<path d="m1474 478-19-23 23 19c21 18 27 26 19 26-2 0-12-10-23-22z"/>
<path d="m3610 455c13-14 26-25 28-25 3 0-5 11-18 25s-26 25-28 25c-3 0 5-11 18-25z"/>
<path d="m1409 423c-13-16-12-17 4-4s21 21 13 21c-2 0-10-8-17-17z"/>
<path d="m3650 427c0-2 15-16 33-33l32-29-29 33c-28 30-36 37-36 29z"/>
<path d="m1305 339c-85-73-119-108-50-52 69 57 131 112 125 112-3 0-36-27-75-60z"/>
<path d="m3730 357c0-3 23-24 50-47 28-23 50-40 50-37s-22 24-50 47c-27 23-50 40-50 37z"/>
<path d="m3850 257c0-3 23-24 50-47 28-23 50-40 50-37s-22 24-50 47c-27 23-50 40-50 37z"/>
<path d="m1135 194-50-46 53 42c45 36 59 51 50 50-2 0-25-21-53-46z"/>
<path d="m3970 157c0-3 23-24 50-47 28-23 50-40 50-37s-22 24-50 47c-27 23-50 40-50 37z"/>
<path d="m1020 99-45-41 42 32c37 27 61 51 51 50-2 0-23-19-48-41z"/>
<path d="m4084 61c6-8-372-11-1558-9-861 2-1566 0-1566-4 0-5 707-8 1570-8 974 0 1570 4 1570 9 0 6-5 13-12 17s-8 3-4-5z"/>
</g>
<g transform="translate(0 203.2) scale(.04 -.04)" fill="#898886">
<path d="m950 3965c0-11 57-68 95-95 12-8-4 8-35 37l-55 52 1574 1h1574l-19-22-19-23 22 19c13 11 23 24 23 30 0 8-442 11-1580 11-1094 0-1580-3-1580-10z"/>
<path d="m4024 3887-29-32 30 25c17 14 32 26 34 28 2 1 2 4-1 7-2 3-18-10-34-28z"/>
<path d="m3930 3809-55-51 52 42c47 37 70 60 61 60-2 0-28-23-58-51z"/>
<path d="m1093 3833c4-6 30-31 59-55 29-23 49-38 45-31-4 6-30 31-59 55-29 23-49 38-45 31z"/>
<path d="m3810 3709-55-51 52 42c46 37 71 61 61 60-2 0-28-23-58-51z"/>
<path d="m1213 3733c9-14 107-97 107-90 0 2-26 26-57 53s-54 44-50 37z"/>
<path d="m3714 3628-29-33 33 29c17 17 32 31 32 33 0 8-8 1-36-29z"/>
<path d="m1333 3633c9-14 107-97 107-90 0 2-26 26-57 53s-54 44-50 37z"/>
<path d="m3654 3578-19-23 23 19c12 11 22 21 22 23 0 8-8 2-26-19z"/>
<path d="m3594 3528-29-33 33 29c30 28 37 36 29 36-2 0-16-15-33-32z"/>
<path d="m1450 3537c0-2 15-16 33-33l32-29-29 33c-28 30-36 37-36 29z"/>
<path d="m3425 3389c-120-101-216-190-134-123 86 70 269 226 269 230 0 7-3 5-135-107z"/>
<path d="m1520 3477c0-2 26-26 57-53s54-44 50-37c-9 14-107 97-107 90z"/>
<path d="m4950 3404c-41-36-84-75-95-86-11-12 23 15 76 60s99 79 103 75c3-3 6-1 6 5 0 21-13 13-90-54z"/>
<path d="m41 3458c2-2 20-16 39-33l35-30-29 33c-17 17-34 32-40 32-5 0-7-1-5-2z"/>
<path d="m120 3398c0-3 95-85 210-183 116-97 210-174 210-171s-84 75-187 162c-104 86-198 166-210 177-13 11-23 18-23 15z"/>
<path d="m1680 3340c62-58 140-123 140-117 0 3-42 40-92 82-51 42-73 58-48 35z"/>
<path d="m4770 3249-55-51 58 47c50 42 64 55 55 55-2 0-28-23-58-51z"/>
<path d="m3190 3189-55-51 52 42c46 37 71 61 61 60-2 0-28-23-58-51z"/>
<path d="m1833 3213c4-6 30-31 59-55 29-23 49-38 45-31-4 6-30 31-59 55-29 23-49 38-45 31z"/>
<path d="m4650 3149-55-51 58 47c50 42 64 55 55 55-2 0-28-23-58-51z"/>
<path d="m3055 3079c-38-33-79-69-90-81s22 14 73 56c78 66 102 88 90 85-2 0-34-27-73-60z"/>
<path d="m1950 3116c0-3 68-62 150-131 83-69 150-124 150-121s-67 62-150 131c-82 69-150 124-150 121z"/>
<path d="m4530 3049-55-51 52 42c47 37 70 60 61 60-2 0-28-23-58-51z"/>
<path d="m550 3036c0-3 154-134 343-293 188-158 411-346 496-417 85-72 152-125 148-119s-213 184-465 396c-251 211-472 396-489 411-18 15-33 25-33 22z"/>
<path d="m4237 2806c-125-106-235-201-245-211-9-10 92 73 226 185 212 177 263 222 250 219-2 0-106-87-231-193z"/>
<path d="m2800 2864c-243-206-269-226-282-218-7 4-58 46-113 93-120 102-153 128-106 82 72-67 224-192 232-189 18 6 420 347 409 347-3 0-66-52-140-115z"/>
<path d="m3874 2502c-50-42-184-155-297-250-114-96-210-179-213-184-6-10 481 396 571 476 74 65 31 36-61-42z"/>
<path d="m1558 2188c8-9 56-52 108-94 52-43 94-82 94-88 0-5-12-23-27-40l-28-30 32 25c18 13 32 31 32 40 1 14-38 50-189 175-19 16-29 21-22 12z"/>
<path d="m3317 2032c-15-15-27-32-27-38 0-5 19-24 43-43l42-33-37 36c-21 20-38 39-38 43s12 20 27 35 24 28 22 28c-3 0-17-13-32-28z"/>
<path d="m1640 1889-55-51 58 47c50 42 64 55 55 55-2 0-28-23-58-51z"/>
<path d="m3380 1917c0-2 26-26 57-53s54-44 50-37c-9 14-107 97-107 90z"/>
<path d="m1496 1772c-44-37-100-87-125-110-25-24 9 2 77 58 107 90 141 121 130 120-2 0-39-31-82-68z"/>
<path d="m3503 1813c4-6 30-31 59-55 29-23 49-38 45-31-4 6-30 31-59 55-29 23-49 38-45 31z"/>
<path d="m3623 1714c4-7 62-58 129-115 68-56 114-92 103-79-11 12-49 47-85 76s-85 70-110 91c-24 21-41 33-37 27z"/>
<path d="m1294 1598-19-23 23 19c21 18 27 26 19 26-2 0-12-10-23-22z"/>
<path d="m1234 1548-29-33 33 29c30 28 37 36 29 36-2 0-16-15-33-32z"/>
<path d="m1140 1469-55-51 58 47c50 42 64 55 55 55-2 0-28-23-58-51z"/>
<path d="m3895 1480c10-11 20-20 23-20s-3 9-13 20-20 20-23 20 3-9 13-20z"/>
<path d="m3930 1457c0-2 15-16 33-33l32-29-29 33c-28 30-36 37-36 29z"/>
<path d="m1020 1369-55-51 58 47c50 42 64 55 55 55-2 0-28-23-58-51z"/>
<path d="m4e3 1397c0-2 26-26 57-53s54-44 50-37c-9 14-107 97-107 90z"/>
<path d="m2418 1280c-60-50-108-93-108-96 0-2 46 34 103 82 56 47 107 88 114 91 6 3 82-54 167-127 86-72 156-129 156-126 0 7-308 266-317 266-4 0-56-41-115-90z"/>
<path d="m900 1269-55-51 58 47c50 42 64 55 55 55-2 0-28-23-58-51z"/>
<path d="m4120 1297c0-2 26-26 57-53s54-44 50-37c-9 14-107 97-107 90z"/>
<path d="m780 1169-55-51 52 42c47 37 70 60 61 60-2 0-28-23-58-51z"/>
<path d="m4240 1197c0-2 26-26 57-53s54-44 50-37c-9 14-107 97-107 90z"/>
<path d="m2230 1124c-36-30-76-66-90-81-14-14 17 9 68 51 78 66 102 89 90 85-2 0-32-25-68-55z"/>
<path d="m681 1089c-13-11-22-21-20-23 2-3 17 7 32 20s24 24 20 24c-4-1-19-10-32-21z"/>
<path d="m2863 1093c9-14 107-97 107-90 0 2-26 26-57 53s-54 44-50 37z"/>
<path d="m4400 1060c25-23 68-60 95-82l50-40-45 42c-25 22-67 59-95 82l-50 40 45-42z"/>
<path d="m614 1028-29-33 33 29c30 28 37 36 29 36-2 0-16-15-33-32z"/>
<path d="m2050 969-55-51 52 42c47 37 70 60 61 60-2 0-28-23-58-51z"/>
<path d="m554 978-19-23 23 19c21 18 27 26 19 26-2 0-12-10-23-22z"/>
<path d="m3004 973c16-18 32-31 34-28 3 3 3 6 1 8-2 1-17 13-34 27l-30 25 29-32z"/>
<path d="m494 928-29-33 33 29c30 28 37 36 29 36-2 0-16-15-33-32z"/>
<path d="m3053 933c4-6 30-31 59-55 29-23 49-38 45-31-4 6-30 31-59 55-29 23-49 38-45 31z"/>
<path d="m4550 937c0-2 15-16 33-33l32-29-29 33c-28 30-36 37-36 29z"/>
<path d="m1930 869-55-51 52 42c46 37 71 61 61 60-2 0-28-23-58-51z"/>
<path d="m400 849-55-51 58 47c50 42 64 55 55 55-2 0-28-23-58-51z"/>
<path d="m4635 860c10-11 20-20 23-20s-3 9-13 20-20 20-23 20 3-9 13-20z"/>
<path d="m3173 833c9-14 107-97 107-90 0 2-26 26-57 53s-54 44-50 37z"/>
<path d="m4670 837c0-2 15-16 33-33l32-29-29 33c-28 30-36 37-36 29z"/>
<path d="m1834 788-29-33 33 29c30 28 37 36 29 36-2 0-16-15-33-32z"/>
<path d="m280 749-55-51 58 47c50 42 64 55 55 55-2 0-28-23-58-51z"/>
<path d="m4740 777c0-2 26-26 57-53s54-44 50-37c-9 14-107 97-107 90z"/>
<path d="m1740 709-55-51 58 47c50 42 64 55 55 55-2 0-28-23-58-51z"/>
<path d="m3290 737c0-2 15-16 33-33l32-29-29 33c-28 30-36 37-36 29z"/>
<path d="m189 673-24-28 28 24c25 23 32 31 24 31-2 0-14-12-28-27z"/>
<path d="m3375 660c10-11 20-20 23-20s-3 9-13 20-20 20-23 20 3-9 13-20z"/>
<path d="m4860 677c0-2 26-26 57-53s54-44 50-37c-9 14-107 97-107 90z"/>
<path d="m1646 634c-15-14-26-27-24-29 2-3 17 9 33 25 35 36 30 39-9 4z"/>
<path d="m129 623-24-28 28 24c25 23 32 31 24 31-2 0-14-12-28-27z"/>
<path d="m3410 637c0-2 15-16 33-33l32-29-29 33c-28 30-36 37-36 29z"/>
<path d="m1584 578-19-23 23 19c21 18 27 26 19 26-2 0-12-10-23-22z"/>
<path d="m61 570c-31-26-17-26 16 0 14 11 22 20 17 20-5-1-20-10-33-20z"/>
<path d="m3504 553c16-18 32-31 34-28 3 3 3 6 1 8-2 1-17 13-34 27l-30 25 29-32z"/>
<path d="m5002 555c15-16 29-27 31-24 3 2-10 15-27 28l-31 24 27-28z"/>
<path d="m1526 534c-15-14-26-27-24-29 2-3 17 9 33 25 35 36 30 39-9 4z"/>
<path d="m3565 500c10-11 20-20 23-20s-3 9-13 20-20 20-23 20 3-9 13-20z"/>
<path d="m1464 478-19-23 23 19c21 18 27 26 19 26-2 0-12-10-23-22z"/>
<path d="m3622 455c15-16 29-27 31-24 3 2-10 15-27 28l-31 24 27-28z"/>
<path d="m1404 427-29-32 30 25c17 14 32 26 34 28 2 1 2 4-1 7-2 3-18-10-34-28z"/>
<path d="m3673 413c9-14 107-97 107-90 0 2-26 26-57 53s-54 44-50 37z"/>
<path d="m1344 378-19-23 23 19c21 18 27 26 19 26-2 0-12-10-23-22z"/>
<path d="m1284 328-29-33 33 29c30 28 37 36 29 36-2 0-16-15-33-32z"/>
<path d="m3790 317c0-2 15-16 33-33l32-29-29 33c-28 30-36 37-36 29z"/>
<path d="m1214 268-29-33 33 29c17 17 32 31 32 33 0 8-8 1-36-29z"/>
<path d="m3875 240c10-11 20-20 23-20s-3 9-13 20-20 20-23 20 3-9 13-20z"/>
<path d="m1154 218-19-23 23 19c21 18 27 26 19 26-2 0-12-10-23-22z"/>
<path d="m3910 217c0-2 15-16 33-33l32-29-29 33c-28 30-36 37-36 29z"/>
<path d="m1094 168-29-33 33 29c30 28 37 36 29 36-2 0-16-15-33-32z"/>
<path d="m3995 140c10-11 20-20 23-20s-3 9-13 20-20 20-23 20 3-9 13-20z"/>
<path d="m1034 118-19-23 23 19c12 11 22 21 22 23 0 8-8 2-26-19z"/>
<path d="m984 78-19-23 23 19c12 11 22 21 22 23 0 8-8 2-26-19z"/>
<path d="m4050 96c0-2 8-10 18-17 15-13 16-12 3 4s-21 21-21 13z"/>
<path d="m4096 57c3-10 9-15 12-12s0 11-7 18c-10 9-11 8-5-6z"/>
</g>
<g transform="translate(0 203.2) scale(.04 -.04)" fill="#183384">
<path d="m59 3735c-1-124-2-230-3-237s71-72 159-146c679-569 1035-867 1254-1051 316-264 341-286 341-299 0-5-91-86-203-179-111-94-287-242-392-329-170-143-518-434-965-808-85-71-163-137-173-146-16-15-18-38-18-256v-239l423-3c416-2 424-2 446 18 12 12 177 150 365 308 513 428 937 784 1075 902 68 58 133 111 146 119 26 16-45 72 675-534 151-126 375-314 497-417 123-102 280-234 348-292l124-106 439 2 438 3v224 225l-100 84c-55 46-248 209-430 360-181 152-418 350-525 440s-315 263-462 385-267 227-267 234c-1 13 183 168 1554 1315 116 96 216 182 223 191 9 11 12 70 10 233l-3 219-440 3-440 2-91-77c-50-43-222-188-384-323-161-135-298-250-304-255-6-6-135-114-286-241-151-126-335-281-409-343s-140-115-148-118c-7-3-57 33-110 79-54 46-231 195-393 330-162 136-331 277-375 314s-177 149-295 248-270 226-337 283l-121 103h-421-421l-1-225z"/>
</g>
<g transform="translate(0 203.2) scale(.04 -.04)" fill="#b40611">
<path d="m47 5033c-1-1-1-235 1-520l2-518h2490 2490v513c0 281 1 514 3 517 2 4-4982 13-4986 8z"/>
</g>
<g transform="translate(0 203.2) scale(.04 -.04)" fill="#80050b">
<path d="m1298 5033c683-2 1801-2 2485 0 683 1 124 2-1243 2s-1926-1-1242-2z"/>
<path d="m42 4503-2-523h2500 2500l-2 523-3 522-10-1030h-2485-2485l-10 1030-3-522z"/>
</g>
<g transform="translate(0 203.2) scale(.04 -.04)" fill="#2b2d41">
<path d="m46 3958c-11-41-7-466 5-473 6-5 5-11-5-18-15-11-16-155-14-1462l3-1450 3 1454c2 1242 4 1452 16 1448 21-8 28 4 14 22-10 12-12 74-10 249l3 232h420 420l140-117c77-65 145-117 150-116 5 2 8-1 6-6-4-14 202-183 215-175 6 4 8 3 5-3-4-6 59-66 141-134 81-68 169-143 196-166 26-24 52-40 57-37s8 1 7-5c-2-5 114-107 257-227 143-119 301-252 351-296 51-43 96-78 101-78 15 0 83 61 80 72-1 6 4 13 12 16 10 3 11 0 5-9-4-8 34 22 86 67 52 44 191 160 308 258 116 98 210 181 207 186-3 4 3 14 12 21 15 12 16 12 10-5-6-14 89 58 123 94 3 3 71 61 152 129 82 68 145 127 142 132s1 6 8 4c8-3 25 6 38 20s20 25 15 25c-4 0 0 9 10 20 25 28 43 25 19-2-17-21-17-21 8 1 15 13 25 28 21 34-3 6-1 7 6 3 13-9 132 89 128 106-1 6 4 13 12 16 10 3 11 0 5-9-8-14 25 13 156 125l65 56 443-3c291-1 441 1 439 8-2 6-161 11-442 13-429 2-438 2-452-18-19-27-32-25-27 3 5 22 4 22-5 1-5-12-20-29-33-38-12-9-17-16-10-16s10-5 7-10c-4-6-11-8-16-5-8 5-170-127-584-475-60-51-229-192-374-314-145-121-331-278-415-348-83-70-154-128-157-128s-42 30-87 68c-628 527-1186 994-1331 1115-122 101-161 139-161 153 0 8-4 14-10 14-14 0-13-13 2-28 7-7 8-12 2-12s-19 9-29 20c-18 19-31 20-440 20h-423l-6-22zm955-65c13-16 12-17-3-4-10 7-18 15-18 17 0 8 8 3 21-13zm54-43c10-11 16-20 13-20s-13 9-23 20-16 20-13 20 13-9 23-20zm2943-12c-8-7-25-22-38-33-20-16-19-13 4 13 17 17 34 32 39 32 4 0 2-6-5-12zm-2845-77c-2-3-18 10-36 29l-32 34 36-30c20-16 34-31 32-33zm2725-23c-7-7-22-20-33-28-15-10-14-7 4 13 14 15 29 27 33 27 5 0 3-6-4-12zm-2578-96c0-3-31 19-72 51-10 8-18 17-18 21s20-10 45-31c25-20 45-39 45-41zm51-39 24-27-32 23c-33 23-40 31-25 31 5 0 19-12 33-27zm2369 3c0-2-8-10-17-17-16-13-17-12-4 4s21 21 21 13zm-70-59c0-2-19-18-42-37l-43-33 35 36c31 31 50 44 50 34zm-2165-59 40-41-47 39c-27 21-48 40-48 41 0 11 21-4 55-39zm2065-21c0-2-12-14-27-28l-28-24 24 28c23 25 31 32 31 24zm-1925-98c11-12-1-5-27 16-27 22-48 41-48 43 0 7 56-36 75-59zm1855 38c0-2-10-12-22-23l-23-19 19 23c18 21 26 27 26 19zm-50-40c0-2-12-14-27-28l-28-24 24 28c23 25 31 32 31 24zm-1750-42c13-14 21-25 18-25-2 0-15 11-28 25s-21 25-18 25c2 0 15-11 28-25zm1670-30c-7-9-32-30-54-46-35-27-34-25 9 15 51 47 67 58 45 31zm-1605-25c10-11 16-20 13-20s-13 9-23 20-16 20-13 20 13-9 23-20zm195-167c0-7-75 54-91 74-8 10 10-2 39-26 28-23 52-45 52-48zm1200 13c-33-31-200-166-200-162 0 6 202 176 209 176 3 0-1-6-9-14zm-1159-43c13-17 13-17-6-3-11 8-22 16-24 17-2 2 0 3 6 3s17-8 24-17zm144-124c11-13-1-6-27 15-27 21-48 40-48 43 0 8 54-34 75-58zm785-24c-13-14-26-23-28-20-4 4 38 44 47 45 3 0-6-11-19-25zm-707-44c-2-3-16 8-31 24l-27 28 31-24c17-13 30-26 27-28zm657 5c0-2-24-23-52-46l-53-42 50 46c50 46 55 49 55 42zm-540-103c0-3-22 14-50 37-27 23-50 44-50 47s23-14 50-37c28-23 50-44 50-47zm410-8c-7-9-32-30-54-47-35-26-34-24 9 15 52 48 67 58 45 32zm-290-92c0-3-22 14-50 37-27 23-50 44-50 47s23-14 50-37c28-23 50-44 50-47zm41-30c13-16 12-17-3-4-17 13-22 21-14 21 2 0 10-8 17-17zm119 14c0-2-10-12-22-23l-23-19 19 23c18 21 26 27 26 19z"/>
<path d="m1743 3973c433-2 1141-2 1575 0 433 1 78 2-788 2s-1221-1-787-2z"/>
<path d="m5005 3480c-41-43-42-68-1-33 17 16 32 36 32 46 0 9-1 17-1 17-1 0-14-14-30-30zm15-3c0-2-10-12-22-23l-23-19 19 23c18 21 26 27 26 19z"/>
<path d="m5045 2e3c0-806 1-1135 2-733 2 403 2 1063 0 1465-1 403-2 74-2-732z"/>
<path d="m86 3441c-3-5 14-25 37-44 27-22 44-30 44-22s-5 13-11 12-10 3-9 9c1 7-7 20-19 30-12 11-18 13-13 5 5-9 3-12-6-9-8 3-13 11-11 17 2 13-5 15-12 2z"/>
<path d="m4915 3405c-22-19-40-40-40-47-1-7-6-12-13-10-7 1-11-3-9-9 1-6-4-14-12-17-9-3-11 0-6 9 5 8-1 6-13-5-12-10-19-22-17-27 3-4 1-10-5-14-5-3-10-1-10 6 0 8-7 5-20-6-10-9-18-22-17-29 1-6-5-9-13-8-8 2-12 0-8-4 9-8-10-34-24-34-6 0-4 8 3 18 12 14 10 14-8-2-12-10-21-23-20-30 1-6-5-10-14-8-16 2-67-44-61-56 2-4-2-8-9-11-8-2-9 1-4 10 5 8-1 6-13-5-12-10-20-23-19-30 1-6-4-10-12-8-16 3-63-37-56-49 3-4 1-10-5-14-5-3-10-1-10 5s-25-9-55-35-53-52-52-58c1-7-4-11-11-9-15 3-448-357-445-370 2-4-1-7-5-5-13 3-122-86-116-95 3-5 1-7-4-6-14 4-498-403-494-416 2-6 0-8-4-3-9 8-44-21-43-37 0-6 17-24 37-41 20-16 31-22 23-12-7 9-9 17-4 17 13 0 45-35 38-42-3-3 5-13 17-24 18-15 20-16 9-1-7 9-9 17-3 17 12 0 34-25 27-32-3-2 7-15 22-29 14-13 23-18 19-11-4 6-3 12 2 12 12 0 33-25 27-32-3-3 5-13 17-24 18-15 20-16 9-1-7 9-9 17-3 17 12 0 34-25 27-32-3-2 7-15 22-29 15-13 22-17 15-8-6 9-9 18-6 21 3 4-52 54-123 113-70 59-129 113-131 120-3 14 53 63 593 515 400 334 454 382 452 392-1 6 4 13 12 16 9 3 11 0 6-8-4-6 129 102 296 242 166 139 303 261 305 271 1 9 2 17 1 17-1-1-20-16-42-35zm-5-24c0-5-7-12-16-15-14-5-15-4-4 9 14 17 20 19 20 6zm-241-204c-2-1-15-11-29-22l-25-20 19 23c11 12 24 22 29 22 6 0 8-1 6-3zm-120-100c-2-1-15-11-29-22l-25-20 19 23c11 12 24 22 29 22 6 0 8-1 6-3zm-79-60c0-2-10-12-22-23l-23-19 19 23c18 21 26 27 26 19zm-190-161c0-2-8-10-17-17-16-13-17-12-4 4s21 21 21 13zm-50-43c0-5-13-17-28-27l-27-19 24 26c26 28 31 32 31 20zm-80-68c-7-9-27-25-44-37-23-15-21-11 9 16 43 38 55 45 35 21zm-120-100c-7-9-27-25-44-37-23-15-21-11 9 16 43 38 55 45 35 21zm-130-108c0-1-21-20-47-41l-48-38 44 41c40 38 51 46 51 38zm-120-101c0-2-8-10-17-17-16-13-17-12-4 4s21 21 21 13zm-50-39c0-2-10-12-22-23l-23-19 19 23c18 21 26 27 26 19zm-70-61c0-2-8-10-17-17-16-13-17-12-4 4s21 21 21 13zm-50-39c0-2-10-12-22-23l-23-19 19 23c18 21 26 27 26 19zm-70-60c0-2-10-12-22-23l-23-19 19 23c18 21 26 27 26 19zm-50-41c0-2-8-10-17-17-16-13-17-12-4 4s21 21 21 13zm-70-59c0-2-10-12-22-23l-23-19 19 23c18 21 26 27 26 19zm-140-131c0-3-4-8-10-11-5-3-10-1-10 4 0 6 5 11 10 11 6 0 10-2 10-4zm141-143c13-16 12-17-3-4-17 13-22 21-14 21 2 0 10-8 17-17z"/>
<path d="m183 3366c0-9 52-61 116-114 64-54 174-147 245-207 71-59 126-103 121-95s-3 11 6 8c8-3 13-10 12-16-1-5 23-32 54-59 32-26 53-42 49-34-6 9-5 12 5 9 8-3 13-10 12-16-2-10 124-118 825-706 78-66 142-127 141-135 0-9-54-60-120-114-65-53-118-102-116-108 1-6-4-14-12-17-9-3-11 0-6 8 4 7-33-22-83-64-51-42-91-82-89-88 1-6-4-13-12-16-10-3-11 0-6 9 5 8-15-6-44-31s-53-49-53-55c0-5-5-17-11-25-10-13-10-13 5-2 10 8 16 19 15 25-1 7 5 11 14 9 15-2 54 32 61 53 2 6 7 9 12 7 14-5 56 40 49 51-4 6 0 8 9 4 15-5 53 25 53 42 0 3 4 5 8 3 5-1 5 2 2 8-4 7-1 10 7 8 17-4 118 79 115 94-1 6 4 13 12 16 9 3 11 0 6-9-5-8 4-3 18 10 15 14 25 27 22 29-7 7 15 32 27 32 6 0 4-8-3-17-7-10-1-7 14 6 15 14 25 27 22 29-7 7 15 32 27 32 6 0 4-8-3-17-11-15-9-14 9 1 12 11 20 21 17 24-6 7 15 32 27 32 5 0 6-6 2-12-4-7 5-2 19 11 15 14 27 29 27 35 0 14-188 172-200 168-6-1-9 2-8 6 2 5-85 82-192 172-546 459-680 570-680 565 0-4-12 7-26 24s-32 30-39 29c-8-2-14 2-15 7-2 19-43 55-59 53-9-2-15 2-14 8 1 7-8 20-20 30-18 16-20 16-8 2 7-10 9-18 3-18-12 0-34 25-27 32 3 3-20 27-52 54-31 27-53 43-49 35 6-9 5-12-5-9-8 3-13 10-12 15 1 6-11 23-27 38-17 16-30 23-30 16s-5-9-10-6c-6 4-8 10-5 14 2 5-5 17-17 27-12 11-18 13-13 5 5-9 3-12-6-9-8 3-13 11-11 17 1 6-4 10-10 9-7-2-12 2-11 8 1 7-7 20-17 29-11 10-20 15-20 11s-10 5-23 20c-18 21-24 23-24 10zm68-53c13-16 12-17-3-4-17 13-22 21-14 21 2 0 10-8 17-17zm134-113c10-11 16-20 13-20s-13 9-23 20-16 20-13 20 13-9 23-20zm135-117c0-7-78 56-87 70-4 6 14-6 40-27s47-40 47-43zm241-200c13-16 12-17-3-4-10 7-18 15-18 17 0 8 8 3 21-13zm70-60c13-16 12-17-3-4-10 7-18 15-18 17 0 8 8 3 21-13zm136-116c4-7-16 8-45 31-29 24-55 49-59 55-4 7 16-8 45-31 29-24 55-49 59-55zm93-74c0-9-37 18-60 43-22 24-20 23 18-6 23-18 42-35 42-37zm93-82c-2-3-16 8-31 24l-27 28 31-24c17-13 30-26 27-28zm42-31c10-11 16-20 13-20s-13 9-23 20-16 20-13 20 13-9 23-20zm60-50c10-11 16-20 13-20s-13 9-23 20-16 20-13 20 13-9 23-20zm60-50c10-11 16-20 13-20s-13 9-23 20-16 20-13 20 13-9 23-20zm70-60c10-11 16-20 13-20s-13 9-23 20-16 20-13 20 13-9 23-20zm46-37c13-16 12-17-3-4-10 7-18 15-18 17 0 8 8 3 21-13zm79-68c13-14 21-25 18-25-2 0-15 11-28 25s-21 25-18 25c2 0 15-11 28-25zm180-150c13-14 21-25 18-25-2 0-15 11-28 25s-21 25-18 25c2 0 15-11 28-25zm-70-259c0-2-8-10-17-17-16-13-17-12-4 4s21 21 21 13zm-120-99c0-2-10-12-22-23l-23-19 19 23c18 21 26 27 26 19zm-80-71c0-2-8-10-17-17-16-13-17-12-4 4s21 21 21 13z"/>
<path d="m3573 1744c9-11 15-23 12-26s5-13 17-24c12-10 18-13 13-5-5 9-3 12 6 9 8-3 13-10 12-16-1-5 21-30 51-55 55-48 76-39 23 10-17 16-27 22-22 14 5-9 3-12-6-9-8 3-14 10-14 18 0 7-25 33-55 59-30 25-47 36-37 25zm148-131c13-16 12-17-3-4-17 13-22 21-14 21 2 0 10-8 17-17z"/>
<path d="m3753 1585c0-7 5-13 11-12s10-3 9-10c-3-12 85-88 102-88 5 0 10-3 10-7 0-15 50-58 64-56 9 2 15-2 14-9-1-6 5-17 15-25 15-11 15-11 5 2-6 8-11 19-10 24 1 4-22 29-52 55-30 25-51 40-46 32 5-9 3-12-6-9-8 3-14 10-14 18 0 7-23 32-51 56-30 26-51 38-51 29zm57-47c0-6-6-5-15 2-8 7-15 14-15 16s7 1 15-2c8-4 15-11 15-16zm31-25c13-16 12-17-3-4-17 13-22 21-14 21 2 0 10-8 17-17z"/>
<path d="m1e3 1346c-113-95-205-179-205-186s-6-15-14-18c-10-3-11 0-5 9 4 8-6 3-23-11s-30-32-30-42c1-12 11-8 42 19 22 19 40 40 40 46 1 7 7 11 15 9s12 0 8 4c-9 8 10 34 24 34 6 0 4-8-3-17-8-10 12 4 44 31s55 51 52 54c-7 7 15 32 27 32 6 0 4-8-3-17-8-10 12 4 44 31s55 51 52 54c-6 7 15 32 27 32 5 0 6-6 2-12-6-9-3-9 9 0 9 8 15 19 14 25-1 7 5 11 14 9 8-1 26 9 39 23s20 25 15 25c-4 0 0 9 10 20s16 20 14 19c-2 0-96-78-209-173zm165 114c-10-11-23-20-29-20s0 9 14 20c32 25 38 25 15 0zm-105-84c0-2-19-19-42-36l-43-32 39 36c38 35 46 40 46 32zm-120-100c0-2-19-19-42-36l-43-32 39 36c38 35 46 40 46 32zm-180-150c0-2-8-10-17-17-16-13-17-12-4 4s21 21 21 13z"/>
<path d="m2442 1333c-43-38-131-112-195-167-64-54-114-102-111-108 3-5 0-8-8-6-15 3-122-81-113-90 6-7-15-32-27-32-6 0-4 8 3 17 8 10-12-4-43-31-32-26-56-52-53-56 3-5 1-11-5-15-5-3-10-1-10 5s-25-10-55-35c-30-26-53-51-50-55 3-5 1-11-5-15-5-3-10-1-10 6s-13 0-30-16c-16-15-27-32-24-36 2-4 0-10-6-14-5-3-10-1-10 5s-5 8-10 5c-6-4-8-11-4-16 3-5 0-8-7-7-7 2-14-4-14-12s-7-14-14-12c-7 1-10-2-5-9 5-8 2-10-8-6-15 5-55-27-51-42 1-3-4-5-11-3-15 2-72-55-63-64 3-3 31 15 62 40s52 46 45 46c-6 0-8 5-5 10 4 6 11 8 16 4 12-7 301 235 294 246-3 5-1 11 5 15 5 3 10 1 10-5s55 36 122 92c336 284 464 390 475 395 7 3 49-26 93-64 45-37 85-67 91-66 5 2 8-3 7-10-2-6 5-11 14-11 10 1 16-2 13-6-7-12 282-253 294-246 5 4 12 2 16-4 3-5 1-10-4-10-6 0 31-35 81-79 59-50 96-74 100-67 7 10 12 2 9-16-1-13 287-248 305-248 12 0 15-3 8-8-7-4 9-23 41-49 33-26 52-36 52-27 0 19-89 94-111 94-10 0-15 4-12 9 8 12-38 53-55 49-8-2-13 2-12 8s-11 24-27 39c-17 16-30 23-30 16s-5-9-10-6c-6 4-8 10-5 15 3 4-21 30-53 56-31 27-51 41-43 31 7-9 9-17 3-17-12 0-34 25-27 32 3 3-20 27-52 54s-52 41-44 31c7-9 9-17 3-17-12 0-34 25-27 32 9 9-168 153-183 150-8-2-11 1-8 7 7 11-71 78-86 73-5-1-7 1-4 6 8 13-82 84-96 76-6-4-8-3-5 4 9 13-92 98-111 94-8-2-11 1-8 6 6 10-95 102-112 102-6 0-46-30-90-67zm28 2c-13-14-27-25-32-25-9 0 42 49 51 50 3 0-6-11-19-25zm-50-39c0-2-8-10-17-17-16-13-17-12-4 4s21 21 21 13zm-70-60c0-2-8-10-17-17-16-13-17-12-4 4s21 21 21 13zm-50-40c0-2-8-10-17-17-16-13-17-12-4 4s21 21 21 13zm543-65c-2-3-16 8-31 24l-27 28 31-24c17-13 30-26 27-28zm-584 27c-2-2-17-14-34-28l-30-25 24 28c14 15 29 27 34 27 6 0 8-1 6-2zm-89-72c0-2-8-10-17-17-16-13-17-12-4 4s21 21 21 13zm765-26c10-11 16-20 13-20s-13 9-23 20-16 20-13 20 13-9 23-20zm-815-18c0-4-10-13-22-21-23-14-23-14-4 8 20 22 26 25 26 13zm881-39c13-16 12-17-3-4-10 7-18 15-18 17 0 8 8 3 21-13zm-941-6c0-2-10-12-22-23l-23-19 19 23c18 21 26 27 26 19zm1080-114c0-2-18 10-40 27s-40 34-40 37c0 2 18-10 40-27s40-34 40-37zm-1175 27c-10-11-22-20-28-20-5 0 1 9 14 20 31 25 37 25 14 0zm1259-99c-3-3-15 6-27 18l-22 24 27-19c14-10 24-21 22-23zm-1396-16c-15-14-31-25-35-25-8 1 48 50 57 50 3 0-7-11-22-25zm-69-58c-2-1-15-11-29-22l-25-20 19 23c11 12 24 22 29 22 6 0 8-1 6-3zm1677-99 19-23-25 20c-14 11-27 21-29 22-2 2 0 3 6 3 5 0 18-10 29-22zm69-58c10-11 16-20 13-20s-13 9-23 20-16 20-13 20 13-9 23-20zm-1945-3c0-2-12-14-27-28l-28-24 24 28c23 25 31 32 31 24zm2065-97c10-11 16-20 13-20s-13 9-23 20-16 20-13 20 13-9 23-20z"/>
<path d="m4004 1382c11-12 15-22 11-22-5 0 2-11 15-25s31-24 39-23c9 2 15-2 14-9-1-6 5-17 14-25 12-9 15-9 9 0-4 6-3 12 2 12 12 0 33-25 27-32-3-3 20-27 52-54s52-41 44-31c-7 9-9 17-3 17 12 0 34-25 27-32-3-3 20-27 52-54s52-41 44-31c-7 9-9 17-3 17 14 0 33-26 24-34-4-4 0-6 8-4s14-2 15-9c0-6 19-28 42-47 30-27 41-31 39-19-2 10-113 110-247 222-134 113-235 195-225 183zm61-60c-3-3-16 5-28 17l-22 23 28-17c15-10 25-20 22-23zm146-119c8-10-5-3-28 16-24 18-43 35-43 38 0 7 55-34 71-54zm120-100c8-10-5-3-28 16-24 18-43 35-43 38 0 7 55-34 71-54zm94-81c-3-3-11 0-18 7-9 10-8 11 6 5 10-3 15-9 12-12zm36-29c13-16 12-17-3-4-10 7-18 15-18 17 0 8 8 3 21-13z"/>
<path d="m656 1057c-27-24-50-51-52-61-2-17-1-17 17-1 10 10 16 21 14 26-3 4-1 10 5 14 5 3 10 1 10-6 0-8 7-5 20 6 10 9 18 22 17 29-1 6 3 10 9 9s11 5 11 13-1 14-1 14c-1 0-23-20-50-43z"/>
<path d="m485 914c-123-105-119-101-101-101 8 0 13 4 10 8-2 4 0 10 6 14 5 3 10 1 10-6 0-8 7-5 20 6 10 9 18 22 17 29-1 6 4 10 11 8 8-1 11 2 6 9-5 8-2 10 8 6 16-6 47 19 47 38 0 5 5 11 12 14 8 2 9-1 4-10-5-8 1-6 13 5 12 10 20 23 19 30-1 6 3 10 9 9s11 5 11 13-1 14-1 14c-1-1-46-39-101-86zm25 2c0-2-8-10-17-17-16-13-17-12-4 4s21 21 21 13z"/>
<path d="m4493 965c0-7 5-13 11-12s10-3 9-9c-1-7 7-20 17-29 13-11 20-14 20-6 0 7 5 9 10 6 6-4 8-10 5-14-2-5 4-16 14-26 18-16 19-16 17 1-3 23-103 109-103 89z"/>
<path d="m4613 865c0-8 5-13 11-12s10-3 9-9c-1-7 8-20 20-30 18-16 20-16 8-1-16 21 1 23 19 2 7-8 9-15 5-15-5 0 0-9 10-20s22-17 27-14c11 7 40-15 33-26-2-4 4-15 15-25 13-11 20-14 20-6 0 7 5 9 10 6 6-4 8-10 6-14-3-4 9-21 26-37 18-16 26-21 19-11-7 9-9 17-3 17 12 0 34-25 27-32-3-3 5-13 17-24 12-10 18-13 13-5-5 9-3 12 6 9 8-3 13-10 12-15-1-6 12-23 30-39 17-16 25-21 18-11-7 9-9 17-3 17 14 0 33-26 24-34-4-4 0-6 8-4s14-2 15-9c0-7 5-17 12-24 8-8 11-7 10 7-2 22-180 175-199 172-7-2-12 2-11 8 3 14-91 95-115 99-9 1-16 7-15 13s-17 26-41 45c-26 22-43 30-43 22zm338-282c13-16 12-17-3-4-10 7-18 15-18 17 0 8 8 3 21-13z"/>
<path d="m222 694c-68-57-118-104-112-104 9 0 9-5-1-17-8-10 12 4 44 31s55 51 52 54c-7 7 15 32 27 32 6 0 4-8-3-17-7-10 1-5 18 11 18 16 31 33 30 39-1 5 4 12 12 15 9 3 11 0 6-9-5-8 1-5 13 5 12 11 20 21 17 24-7 7 15 32 27 32 6 0 4-8-3-17-11-15-10-14 9 1 26 23 26 22 5 23-10 0-73-46-141-103zm48 22c0-2-8-10-17-17-16-13-17-12-4 4s21 21 21 13zm-70-60c0-2-19-19-42-36l-43-32 39 36c38 35 46 40 46 32z"/>
<path d="m64 562c-21-17-21-27-23-264-1-156 1-248 8-252 6-4 10 75 10 231 1 251 3 279 18 276 5-1 10 5 10 13s-1 14-1 14c-1-1-11-9-22-18z"/>
<path d="m1435 485c-27-24-46-44-41-45 5 0 1-10-10-22-10-12 10 3 46 33s62 56 58 57c-5 2-6 8-2 13 10 16 0 9-51-36zm5-8c0-2-10-12-22-23l-23-19 19 23c18 21 26 27 26 19z"/>
<path d="m3673 444c9-11 15-23 12-26s20-27 52-54c32-26 50-39 40-28-9 11-15 23-12 26s-20 27-52 54c-32 26-50 39-40 28zm83-76c4-7-9 1-29 16-20 16-37 30-37 33 0 7 58-36 66-49z"/>
<path d="m1320 390c-30-27-51-50-46-50s1-10-10-22c-10-12 7 0 38 27 32 27 56 51 53 53-3 3 2 14 12 24 29 32 10 19-47-32zm30 6c0-2-17-16-37-31l-38-26 35 30c34 31 40 35 40 27z"/>
<path d="m3795 341c11-13 18-26 17-30-2-3 20-26 50-51 29-25 45-35 35-24-9 11-15 23-12 26s-5 13-17 24c-18 15-20 16-9 2 7-10 9-18 3-18-12 0-34 25-27 32 3 2-10 18-27 34-22 19-26 21-13 5z"/>
<path d="m1200 290c-30-27-51-50-46-50s1-10-10-22c-10-13 5-3 34 22 30 25 52 48 50 51-1 4 6 16 16 28 31 35 14 23-44-29zm14-11c-10-11-28-25-39-30-11-6-4 4 15 21 40 35 52 39 24 9z"/>
<path d="m3918 239c12-14 20-28 17-31s16-24 43-46c29-25 49-35 49-27s-5 13-11 12-10 3-9 9c1 7-7 20-17 29-13 11-20 14-20 6 0-7-5-9-10-6-6 4-8 10-6 14 3 4-9 21-27 37-27 24-28 25-9 3zm77-69c3-6-1-7-9-4-18 7-21 14-7 14 6 0 13-4 16-10z"/>
<path d="m1106 211c-15-16-27-32-26-36s-1-9-4-12c-3-4-6 0-6 7 0 9-6 8-20-5-11-10-18-20-15-23 7-7-15-32-27-32-6 0-4 8 3 18 7 9-1 4-19-12-17-16-28-34-25-39 4-6 0-8-8-5s-22-3-32-12c-18-17-18-18 0-17 10 1 29 12 43 23 14 12 53 45 88 74 35 28 61 54 58 58-3 3 1 14 11 24 27 30 9 20-21-11zm-36-55c0-2-7-7-16-10-8-3-12-2-9 4 6 10 25 14 25 6zm-70-50c0-2-8-10-17-17-16-13-17-12-4 4s21 21 21 13z"/>
<path d="m4054 123c11-13 16-23 11-23-4 0-2-6 5-14 6-8 17-13 24-10 6 2 12-4 13-16 2-20 0-20-1575-23l-1577-2 1578-3c1406-2 1578 0 1583 13s9 13 23 3c9-7 5 0-8 15-14 15-32 26-40 25-9-2-15 2-14 8 1 7-8 20-20 30l-22 19 19-22z"/>
</g>
<g transform="translate(0 203.2) scale(.04 -.04)" fill="#060309">
<path d="m0 2540v-2540h2540 2540v2540 2540h-2540-2540v-2540zm5042 1718c3-893 3-3611 0-3975l-1-243h-450c-306 0-452 3-456 11-5 6-11 5-18-5-11-15-166-16-1592-13-869 1-1782 5-2030 7l-450 5-4 250c-3 138-6 905-8 1705-3 1313-2 1456 13 1467 9 7 11 13 5 17-7 5-11 260-11 781v775h2500 2500l2-782z"/>
<path d="m915 3960c10-11 22-20 27-20 4 0 3 9-4 20s-19 20-27 20c-11 0-10-5 4-20z"/>
<path d="m4117 3960c-6-23 3-26 21-8 16 16 15 28-2 28-7 0-16-9-19-20z"/>
<path d="m4066 3905c-16-14-25-25-19-25 5 0 20 11 33 25 30 32 23 32-14 0z"/>
<path d="m980 3906c0-2 8-10 18-17 15-13 16-12 3 4s-21 21-21 13z"/>
<path d="m1045 3850c10-11 20-20 23-20s-3 9-13 20-20 20-23 20 3-9 13-20z"/>
<path d="m3945 3803c-27-25-41-40-30-34 26 14 100 81 89 81-5-1-31-21-59-47z"/>
<path d="m1117 3790c18-19 34-32 36-29 2 2-12 17-32 33l-36 30 32-34z"/>
<path d="m3849 3723c-18-20-19-23-4-13 32 24 47 40 37 40-4 0-19-12-33-27z"/>
<path d="m1210 3714c0-7 11-16 63-55 42-32 32-17-18 24-25 21-45 35-45 31z"/>
<path d="m3719 3613-34-37 43 33c23 18 42 35 42 37 0 13-20 0-51-33z"/>
<path d="m1310 3626c0-3 15-15 33-27l32-23-24 27c-22 24-41 35-41 23z"/>
<path d="m3600 3513-35-36 43 33c23 19 42 35 42 37 0 10-19-3-50-34z"/>
<path d="m1430 3527c0-1 21-20 48-41l47-39-40 41c-34 35-55 50-55 39z"/>
<path d="m4970 3439c-27-25-33-33-15-21 28 18 73 62 64 62-2 0-24-19-49-41z"/>
<path d="m3519 3443-24-28 28 24c25 23 32 31 24 31-2 0-14-12-28-27z"/>
<path d="m70 3453c1-5 17-20 38-35 20-15 53-39 72-54 31-24 31-23-5 11-89 82-105 95-105 78z"/>
<path d="m1550 3428c0-2 21-21 48-43 26-21 38-28 27-16-19 23-75 66-75 59z"/>
<path d="m3454 3388-19-23 23 19c12 11 22 21 22 23 0 8-8 2-26-19z"/>
<path d="m4855 3345c-28-25-53-45-57-45-5 0-8-5-8-11s26 10 58 37c31 26 59 49 61 51s2 5 0 7c-3 3-27-15-54-39z"/>
<path d="m3399 3343-24-28 28 24c25 23 32 31 24 31-2 0-14-12-28-27z"/>
<path d="m1670 3325c13-14 26-25 28-25 3 0-5 11-18 25s-26 25-28 25c-3 0 5-11 18-25z"/>
<path d="m284 3278c33-32 62-55 64-53 3 3-7 14-22 26-14 11-32 26-39 32-50 45-52 41-3-5z"/>
<path d="m3305 3264c-43-40-44-42-9-15 37 27 72 61 63 61-2 0-26-21-54-46z"/>
<path d="m1735 3270c10-11 20-20 23-20s-3 9-13 20-20 20-23 20 3-9 13-20z"/>
<path d="m4745 3254c-16-14-41-35-55-47s-50-42-80-67-68-57-85-72c-16-16-33-28-37-28-5 0-8-5-8-10 0-10 266 206 290 235 19 22 9 18-25-11z"/>
<path d="m363 3214c9-15 233-204 242-204s-8 16-95 87c-41 34-93 76-115 95-21 18-36 28-32 22z"/>
<path d="m3224 3199c-19-22-19-22 4-10 12 6 22 16 22 21 0 15-5 12-26-11z"/>
<path d="m1849 3177c16-20 91-81 91-74 0 3-24 25-52 48-29 24-47 36-39 26z"/>
<path d="m3042 3045c-56-47-102-88-102-91 0-2 42 30 93 72 102 84 124 104 116 104-3 0-51-38-107-85z"/>
<path d="m1951 3087c2-1 13-9 24-17 19-14 19-14 6 3-7 9-18 17-24 17s-8-1-6-3z"/>
<path d="m4444 2998-19-23 23 19c21 18 27 26 19 26-2 0-12-10-23-22z"/>
<path d="m2050 3007c0-3 21-22 48-43 26-21 38-28 27-15-21 24-75 66-75 58z"/>
<path d="m635 2981c11-13 34-32 50-43l30-21-30 29c-17 16-39 36-50 44-20 15-20 15 0-9z"/>
<path d="m4350 2919c-29-26-34-34-15-21 29 19 73 62 64 62-3 0-25-18-49-41z"/>
<path d="m2901 2929c-13-11-22-22-19-24 2-3 15 6 28 20 28 30 24 32-9 4z"/>
<path d="m2172 2905c15-16 29-27 31-24 3 2-10 15-27 28l-31 24 27-28z"/>
<path d="m740 2896c0-2 8-10 18-17 15-13 16-12 3 4s-21 21-21 13z"/>
<path d="m2805 2844-50-46 53 42c45 36 59 51 50 50-2 0-25-21-53-46z"/>
<path d="m2220 2867c0-3 23-24 50-47 28-23 50-40 50-37s-22 24-50 47c-27 23-50 40-50 37z"/>
<path d="m780 2857c0-2 15-14 33-27l32-23-24 26c-21 23-41 35-41 24z"/>
<path d="m4259 2843c-13-16-12-17 4-4 9 7 17 15 17 17 0 8-8 3-21-13z"/>
<path d="m4199 2793-24-26 27 19c15 10 28 22 28 27 0 12-5 8-31-20z"/>
<path d="m863 2793c4-6 30-31 59-55 29-23 49-38 45-31-4 6-30 31-59 55-29 23-49 38-45 31z"/>
<path d="m2685 2743c-43-39-44-41-9-15 37 28 72 63 63 62-2-1-26-21-54-47z"/>
<path d="m2340 2767c0-3 23-24 50-47 28-23 50-40 50-37s-22 24-50 47c-27 23-50 40-50 37z"/>
<path d="m4115 2724c-30-27-32-31-9-16 28 19 62 53 53 52-2-1-22-17-44-36z"/>
<path d="m1e3 2676c23-25 60-52 60-43 0 2-19 19-42 37-38 29-40 30-18 6z"/>
<path d="m2584 2658-29-33 30 25c17 14 34 28 40 32 5 5 5 8-1 8s-23-15-40-32z"/>
<path d="m2460 2666c0-2 8-10 18-17 15-13 16-12 3 4s-21 21-21 13z"/>
<path d="m3995 2624c-30-27-32-31-9-16 28 19 62 53 53 52-2-1-22-17-44-36z"/>
<path d="m1122 2575c15-16 29-27 31-24 3 2-10 15-27 28l-31 24 27-28z"/>
<path d="m1185 2520c10-11 20-20 23-20s-3 9-13 20-20 20-23 20 3-9 13-20z"/>
<path d="m3849 2499-44-41 48 38c26 21 47 40 47 41 0 8-11 0-51-38z"/>
<path d="m1245 2470c10-11 20-20 23-20s-3 9-13 20-20 20-23 20 3-9 13-20z"/>
<path d="m1305 2420c10-11 20-20 23-20s-3 9-13 20-20 20-23 20 3-9 13-20z"/>
<path d="m3759 2423c-13-16-12-17 4-4s21 21 13 21c-2 0-10-8-17-17z"/>
<path d="m3704 2378-19-23 23 19c12 11 22 21 22 23 0 8-8 2-26-19z"/>
<path d="m1375 2360c10-11 20-20 23-20s-3 9-13 20-20 20-23 20 3-9 13-20z"/>
<path d="m1410 2336c0-2 8-10 18-17 15-13 16-12 3 4s-21 21-21 13z"/>
<path d="m3639 2323c-13-16-12-17 4-4s21 21 13 21c-2 0-10-8-17-17z"/>
<path d="m3584 2278-19-23 23 19c21 18 27 26 19 26-2 0-12-10-23-22z"/>
<path d="m1500 2255c13-14 26-25 28-25 3 0-5 11-18 25s-26 25-28 25c-3 0 5-11 18-25z"/>
<path d="m3514 2218-19-23 23 19c21 18 27 26 19 26-2 0-12-10-23-22z"/>
<path d="m3469 2183c-13-16-12-17 4-4s21 21 13 21c-2 0-10-8-17-17z"/>
<path d="m3394 2118-19-23 23 19c12 11 22 21 22 23 0 8-8 2-26-19z"/>
<path d="m1680 2105c13-14 26-25 28-25 3 0-5 11-18 25s-26 25-28 25c-3 0 5-11 18-25z"/>
<path d="m3260 1999c0-5 5-7 10-4 6 3 10 8 10 11 0 2-4 4-10 4-5 0-10-5-10-11z"/>
<path d="m1634 1867c-67-56-120-104-118-106s54 38 116 90c138 113 145 119 133 119-6-1-65-47-131-103z"/>
<path d="m3290 1966c0-6 379-320 393-325 16-5 25-13-183 161-184 153-210 173-210 164z"/>
<path d="m1430 1694c-94-80-158-138-135-122 11 7 22 15 25 18s30 25 60 50c64 52 127 110 120 110-3 0-34-25-70-56z"/>
<path d="m3750 1581c30-27 56-48 58-46 5 4-41 45-87 78-14 11-1-4 29-32z"/>
<path d="m1040 1369c-118-100-228-192-245-205-16-13-25-24-19-24 5 0 19 8 30 18 10 10 78 67 149 126 72 60 141 118 155 130 14 11 50 41 80 66 70 57 83 70 73 70-4 0-105-82-223-181z"/>
<path d="m3850 1499c19-19 44-41 55-49 19-14 19-14 6 3-8 10-33 32-55 49l-41 31 35-34z"/>
<path d="m3940 1419c8-8 40-34 70-59s66-55 80-66c14-12 84-70 155-130 72-59 139-116 149-126 11-10 24-18 29-18 9 0-34 37-306 265-93 77-173 142-180 144-6 2-5-2 3-10z"/>
<path d="m2457 1335c-15-14-24-25-19-25s19 11 32 25c30 32 23 32-13 0z"/>
<path d="m2399 1283c-13-16-12-17 4-4 9 7 17 15 17 17 0 8-8 3-21-13z"/>
<path d="m2641 1297c2-1 13-9 24-17 19-14 19-14 6 3-7 9-18 17-24 17s-8-1-6-3z"/>
<path d="m2329 1223c-13-16-12-17 4-4s21 21 13 21c-2 0-10-8-17-17z"/>
<path d="m2279 1183c-13-16-12-17 4-4s21 21 13 21c-2 0-10-8-17-17z"/>
<path d="m2812 1155c15-16 29-27 31-24 3 2-10 15-27 28l-31 24 27-28z"/>
<path d="m2219 1133-24-28 30 25c17 14 32 26 34 28 2 1 0 2-6 2-5 0-20-12-34-27z"/>
<path d="m705 1084c-28-25-41-40-30-33 26 18 92 79 85 79-3 0-28-21-55-46z"/>
<path d="m2120 1049c-25-23-36-35-25-28 26 18 81 69 75 69-3 0-25-19-50-41z"/>
<path d="m2932 1055c15-16 29-27 31-24 3 2-10 15-27 28l-31 24 27-28z"/>
<path d="m545 954c-100-85-153-134-110-103 11 7 22 16 25 19s30 25 60 50 61 50 67 57c7 6 25 21 39 32 15 12 25 23 23 25s-49-34-104-80z"/>
<path d="m2980 1016c0-2 8-10 18-17 15-13 16-12 3 4s-21 21-21 13z"/>
<path d="m4470 979c19-19 44-41 55-49 19-14 19-14 6 3-8 10-33 32-55 49l-41 31 35-34z"/>
<path d="m1983 938c-40-34-71-64-69-66 4-4 40 25 111 90 63 59 38 44-42-24z"/>
<path d="m3041 963c0-4 36-37 80-73 45-36 89-73 99-82 11-10 23-18 27-18 4 1-4 11-18 23-136 114-189 156-188 150z"/>
<path d="m4550 910c0-5 3-10 8-10 4 0 27-19 52-41 57-51 100-83 99-72-1 12-159 135-159 123z"/>
<path d="m1872 845c-7-8-9-15-4-15s15 7 22 15c16 19-1 19-18 0z"/>
<path d="m380 817c-14-13-92-78-173-146s-145-126-142-130c3-3 9-1 13 5s65 59 137 119c72 59 145 121 164 136 19 16 32 31 30 34-3 2-16-6-29-18z"/>
<path d="m1815 795c-16-13-26-24-22-25 4 0 20 11 35 25 34 32 26 32-13 0z"/>
<path d="m3270 765c7-8 17-15 22-15 6 0 5 7-2 15s-17 15-22 15c-6 0-5-7 2-15z"/>
<path d="m4720 766c0-3 15-15 33-27l32-23-24 27c-22 24-41 35-41 23z"/>
<path d="m1754 746c-7-7-24-23-39-35-16-12-26-23-24-25s24 14 49 35 41 39 35 39c-5-1-15-7-21-14z"/>
<path d="m4790 714c1-5 38-39 83-76s95-79 110-94c16-14 30-24 33-21 3 2-35 37-83 78-48 40-90 76-93 79-19 20-50 42-50 34z"/>
<path d="m3410 652c30-28 57-48 59-46s-8 13-23 25c-14 11-32 26-39 32-6 7-21 18-32 26-11 7 5-9 35-37z"/>
<path d="m1634 646c-7-7-24-23-39-35-16-12-26-23-24-26 3-2 25 14 49 35 25 22 41 40 35 39-5 0-15-6-21-13z"/>
<path d="m3502 575c15-16 29-27 31-24 3 2-10 15-27 28l-31 24 27-28z"/>
<path d="m1529 553-24-28 28 24c25 23 32 31 24 31-2 0-14-12-28-27z"/>
<path d="m3541 537c2-1 13-9 24-17 19-14 19-14 6 3-7 9-18 17-24 17s-8-1-6-3z"/>
<path d="m1474 509c-19-22-19-22 4-8 12 8 22 17 22 21 0 12-6 9-26-13z"/>
<path d="m3641 459c25-24 110-98 189-164s171-144 204-172c33-29 65-53 70-53 9 0-10 19-78 73-21 18-43 37-50 43-11 10-311 261-356 297-14 11-4 1 21-24z"/>
<path d="m1275 344c-88-74-177-149-199-167-88-72-127-107-120-107 10 0 353 284 443 367 86 80 36 42-124-93z"/>
</g>
</g>
</svg>
