<?xml version="1.0" encoding="UTF-8" standalone="no"?>
<svg
   xmlns:dc="http://purl.org/dc/elements/1.1/"
   xmlns:cc="http://creativecommons.org/ns#"
   xmlns:rdf="http://www.w3.org/1999/02/22-rdf-syntax-ns#"
   xmlns:svg="http://www.w3.org/2000/svg"
   xmlns="http://www.w3.org/2000/svg"
   xmlns:sodipodi="http://sodipodi.sourceforge.net/DTD/sodipodi-0.dtd"
   xmlns:inkscape="http://www.inkscape.org/namespaces/inkscape"
   version="1.1"
   width="515"
   height="591"
   viewBox="0.449 -0.335 515 591"
   enable-background="new 0.449 -0.335 515 591"
   xml:space="preserve"
   id="svg44"
   sodipodi:docname="112.svg"><metadata
   id="metadata48"><rdf:RDF><cc:Work
       rdf:about=""><dc:format>image/svg+xml</dc:format><dc:type
         rdf:resource="http://purl.org/dc/dcmitype/StillImage" /></cc:Work></rdf:RDF></metadata><sodipodi:namedview
   pagecolor="#ffffff"
   bordercolor="#666666"
   borderopacity="1"
   objecttolerance="10"
   gridtolerance="10"
   guidetolerance="10"
   inkscape:pageopacity="0"
   inkscape:pageshadow="2"
   inkscape:window-width="640"
   inkscape:window-height="480"
   id="namedview46" />
<defs
   id="defs2">
</defs>
<path
   fill="#FFFF00"
   d="M2.699,252.415c0,30.578-0.184,52.842-0.184,56.08c0,12.629-3.478,19.955,5.982,89.136  c9.46,69.18,99.417,146.144,126.704,160.193c17.4,8.96,59.102,30.941,119.997,30.609l2.013,0.06l0.112-336.078H2.699z"
   id="path4" />
<path
   d="M257.075,588.421c34.27-0.392,74.542-7.869,119.921-28.633C504.09,501.632,514.883,353.61,514.883,353.61V252.415H257.074  L257.075,588.421"
   id="path6" />
<rect
   x="2.074"
   y="0.915"
   opacity="0.12"
   width="255"
   height="251.5"
   id="rect8" />
<rect
   x="113.659"
   y="0.249"
   fill="#FFFFFF"
   width="31.415"
   height="252.333"
   id="rect10" />
<rect
   x="0.866"
   y="110.459"
   fill="#FFFFFF"
   width="256.333"
   height="31.913"
   id="rect12" />
<rect
   x="144.866"
   y="0.898"
   fill="#FF0000"
   stroke="#000000"
   stroke-width="0.9971"
   width="110.333"
   height="109.684"
   id="rect14" />
<rect
   x="144.866"
   y="142.582"
   fill="#FF0000"
   stroke="#000000"
   width="110.333"
   height="110.333"
   id="rect16" />
<rect
   x="2.866"
   y="142.582"
   fill="#FF0000"
   stroke="#000000"
   width="110.333"
   height="110.333"
   id="rect18" />
<rect
   x="2.866"
   y="1.223"
   fill="#FF0000"
   stroke="#000000"
   stroke-width="0.9956"
   width="110.333"
   height="109.358"
   id="rect20" />
<rect
   x="257.199"
   y="0.915"
   fill="#FFFF00"
   width="256.5"
   height="251.5"
   id="rect22" />
<path
   d="M328.199,56.582v132c0,0,3.001,16.333-17.333,28.333v4.667h90c0,0,56.334,2.333,63-53c0,0,2-40.334-51.667-52.667  c0,0,42.334-15.667,40.667-42c0,0,2.999-38-59.334-46.667c0,0-21.666-2.333-38.333,7.667c0,0-30.001,6-43.667-7.667l-5.333,6.667  C306.199,33.915,327.532,43.249,328.199,56.582z"
   id="path24" />
<path
   fill="#FFFF00"
   d="M357.199,49.582v61h23c0,0,37.333,1.667,37.333-35c0,0-0.708-30.917-35.458-30.979  C382.074,44.603,370.324,43.812,357.199,49.582z"
   id="path26" />
<path
   fill="#FFFF00"
   d="M357.366,122.249v89.5v1.833h20.166c0,0,52.168-3,52.334-47s-52.834-44.333-52.834-44.333H357.366z"
   id="path28" />
<path
   d="M73.199,311.582v132c0,0,3.001,16.333-17.333,28.333v4.667h90c0,0,56.334,2.333,63-53c0,0,2-40.334-51.667-52.667  c0,0,42.334-15.667,40.667-42c0,0,2.999-38-59.334-46.667c0,0-21.666-2.333-38.333,7.667c0,0-30.001,6-43.667-7.667l-5.333,6.667  C51.199,288.915,72.532,298.249,73.199,311.582z"
   id="path30" />
<path
   fill="#FFFF00"
   d="M102.199,304.582v61h23c0,0,37.333,1.667,37.333-35c0,0-0.708-30.917-35.458-30.979  C127.074,299.603,115.324,298.812,102.199,304.582z"
   id="path32" />
<path
   fill="#FFFF00"
   d="M102.366,377.249v89.5v1.833h20.166c0,0,52.168-3,52.334-47s-52.834-44.333-52.834-44.333H102.366z"
   id="path34" />
<path
   fill="#FFFFFF"
   d="M396.496,314.112c0-17.694,7.373-31.261,14.156-40.697c-11.208,0-19.76,5.604-25.953,13.565  c-6.193-7.962-14.745-13.565-25.953-13.565c6.783,9.437,14.156,23.003,14.156,40.697v57.506h-57.506  c-17.695,0-31.259-7.373-40.697-14.156c0,11.208,5.604,19.76,13.566,25.953c-7.963,6.193-13.566,14.745-13.566,25.953  c9.438-6.783,23.002-14.156,40.697-14.156h57.506v57.506c0,17.695-7.373,31.261-14.156,40.697c11.208,0,19.76-5.604,25.953-13.566  c6.193,7.963,14.745,13.566,25.953,13.566c-6.783-9.437-14.156-23.002-14.156-40.697v-57.506h57.506  c17.695,0,31.259,7.373,40.697,14.156c0-11.208-5.604-19.76-13.566-25.953c7.963-6.193,13.566-14.745,13.566-25.953  c-9.438,6.783-23.002,14.156-40.697,14.156h-57.506V314.112z"
   id="path36" />
<line
   fill="none"
   stroke="#000000"
   stroke-width="2.1014"
   x1="256.533"
   y1="0.915"
   x2="256.533"
   y2="588.249"
   id="line38" />
<line
   fill="none"
   stroke="#000000"
   stroke-width="2.1014"
   x1="2.533"
   y1="252.249"
   x2="513.866"
   y2="252.249"
   id="line40" />
<path
   fill="none"
   stroke="#000000"
   stroke-width="2.7825"
   d="M514.008,1.519V353.61c0,0-10.793,148.021-137.887,206.178  c-127.095,58.155-214.134,12.085-241.419-1.964c-27.287-14.05-117.244-91.014-126.704-160.193  c-9.46-69.18-5.982-76.506-5.982-89.136c0-12.631,0-307.104,0-307.104L514.008,1.519z"
   id="path42" />
</svg>
