<?xml version="1.0" encoding="UTF-8"?>
<svg version="1.0" viewBox="0 0 223.87 262.22" xmlns="http://www.w3.org/2000/svg" xmlns:cc="http://creativecommons.org/ns#" xmlns:dc="http://purl.org/dc/elements/1.1/" xmlns:rdf="http://www.w3.org/1999/02/22-rdf-syntax-ns#" xmlns:xlink="http://www.w3.org/1999/xlink">
<metadata>
<rdf:RDF>
<cc:Work rdf:about="">
<dc:format>image/svg+xml</dc:format>
<dc:type rdf:resource="http://purl.org/dc/dcmitype/StillImage"/>
</cc:Work>
</rdf:RDF>
</metadata>
<g transform="translate(-9.8767 -803.4)">
<path d="m10.877 804.4 4.0339 169.45c2.8814 121.03 210.92 121.03 213.8 0l4.0339-169.45h-221.87z" fill="#fbe93b" fill-rule="evenodd"/>
<path transform="translate(0 804.33)" d="m13.188 97.438 1.2812 53.156h214.69l1.2812-53.156h-217.25z" color="#000000" fill="#d63929" fill-rule="evenodd" stroke="#000" stroke-width="1px"/>
<path id="a" transform="translate(-1.9759 803.98)" d="m109.21 71.701-28.311-6.0056-8.9545 27.521-8.9545-27.521-28.311 6.0056 19.357-21.515-19.357-21.515 28.311 6.0056 8.9545-27.521 8.9545 27.521 28.311-6.0056-19.357 21.515 19.357 21.515z" fill-rule="evenodd"/>
<use transform="translate(103.68)" width="248.03149" height="248.03149" xlink:href="#a"/>
<use transform="translate(51.842 148.85)" width="248.03149" height="248.03149" xlink:href="#a"/>
<path d="m10.877 804.4 4.0339 169.45c2.8814 121.03 210.92 121.03 213.8 0l4.0339-169.45h-221.87z" fill="none" stroke="#000" stroke-width="2"/>
</g>
</svg>
