<?xml version="1.0" encoding="UTF-8"?>
<svg version="1.0" viewBox="0 0 218.61 256.07" xmlns="http://www.w3.org/2000/svg" xmlns:cc="http://creativecommons.org/ns#" xmlns:dc="http://purl.org/dc/elements/1.1/" xmlns:rdf="http://www.w3.org/1999/02/22-rdf-syntax-ns#">
<metadata>
<rdf:RDF>
<cc:Work rdf:about="">
<dc:format>image/svg+xml</dc:format>
<dc:type rdf:resource="http://purl.org/dc/dcmitype/StillImage"/>
</cc:Work>
</rdf:RDF>
</metadata>
<path d="m1 1 3.9384 165.44c2.8131 118.17 205.92 118.17 208.73 0l3.9384-165.44z" fill="#fff" fill-rule="evenodd"/>
<path d="m106.15 161.97c-0.4952-3.4766 10.646-3.4794 10.535 0.0305-0.52416 16.607-0.65712 28.088 1.1256 36.07 1.0314 4.618-13.698 4.4923-13.029-0.1918 1.6088-11.259 2.5089-27.902 1.3684-35.909z" fill="#d60000" stroke="#000" stroke-width="1px"/>
<path d="m175.9 20.049c3.8953 20.598 5.521 20.174 17.505 23.795 0.19319 3.5418 1.2018 7.2467 0.35266 10.58-2.3358-0.57757-3.8838-2.1398-5.29-3.8793 0.28185 1.4348 0.18391 3.0595 0 4.7272-2.659-1.8323-5.407-3.9364-7.2297-7.9012 1.5124 10.774 6.249 16.024 13.401 13.638 0.45206 3.5448 1.2011 6.7926 1.2343 10.756-2.116-0.1695-4.232-1.925-6.348-3.703 0.0816 1.3698 0.35227 2.6452 0 4.232-2.915-3.2279-6.1441-3.7668-8.6403-8.464 3.79 11.719 9.8114 14.226 16.399 14.283 0.56825 3.5757 0.82594 8.5831 0.17633 12.343l-5.1137-5.6426c0.12726 1.9984 0.37344 3.9969-0.35267 5.9953-3.431-1.0168-6.689-3.2451-9.419-9.1693 3.1827 12.182 7.1109 17.303 17.001 18.162 0.51266 4.5161 1.1113 9.0107 0.71521 13.754-2.5035-0.48051-4.6142-2.9968-6.8869-5.5545 0.20373 1.7137 0.30089 3.7151-0.17634 5.2018-7.9024-3.4002-9.1506-8.7016-10.653-13.93 2.7984 15.601 8.7992 23.595 19.117 21.336 0.30371 5.0255 0.67652 10.051 0.529 15.076-2.8107-0.34984-4.6217-2.758-6.5243-5.3782-0.0235 2.0298 0.31032 4.1787-0.35267 5.9953-5.2695-2.6032-9.6326-9.059-13.983-15.569 5.1004 12.971 9.4286 27.99 21.695 24.942 0.2703 4.9305 0.6989 10.21-0.4257 15.02-2.2955-1.3726-3.6998-3.2575-5.3099-5.5441 0.14521 2.8438-0.18713 5.21-0.98236 7.1134-4.2432-4.228-6.0107-6.785-7.2469-9.8565-0.24383 2.3093-0.59403 4.1931-1.3048 4.6348-5.3502-5.425-8.8566-12.199-11.974-19.722-3.1172 7.5227-6.6237 14.297-11.974 19.722-0.71074-0.44165-1.0609-2.3255-1.3048-4.6348-1.2363 3.0715-3.0037 5.6285-7.2469 9.8565-0.79522-1.9034-1.1276-4.2696-0.98236-7.1134-1.61 2.2866-3.0144 4.1715-5.3099 5.5441-1.1246-4.8102-0.69601-10.09-0.42571-15.02 12.267 3.0474 16.595-11.971 21.695-24.942-4.3504 6.5096-8.7134 12.965-13.983 15.569-0.66298-1.8166-0.32917-3.9655-0.35267-5.9953-1.9026 2.6201-3.7136 5.0283-6.5243 5.3782-0.14752-5.0255 0.22529-10.051 0.529-15.076 10.318 2.2588 16.319-5.7357 19.117-21.336-1.5028 5.2287-2.7509 10.53-10.653 13.93-0.47723-1.4867-0.38007-3.4881-0.17633-5.2018-2.2727 2.5577-4.3834 5.074-6.8869 5.5545-0.39609-4.7433 0.20255-9.2379 0.71522-13.754 9.8904-0.85912 13.819-5.9804 17.001-18.162-2.73 5.9242-5.988 8.1525-9.419 9.1693-0.72611-1.9984-0.47993-3.9969-0.35267-5.9953l-5.1137 5.6426c-0.64961-3.7602-0.39192-8.7676 0.17634-12.343 6.5876-0.0573 12.609-2.5641 16.399-14.283-2.4962 4.6972-5.7253 5.2361-8.6403 8.464-0.35227-1.5868-0.0816-2.8622 0-4.232-2.116 1.778-4.232 3.5335-6.348 3.703 0.0332-3.9637 0.78227-7.2115 1.2343-10.756 7.1524 2.3863 11.889-2.8643 13.401-13.638-1.8226 3.9648-4.5707 6.0689-7.2297 7.9012-0.18391-1.6677-0.28185-3.2924 0-4.7272-1.4062 1.7396-2.9542 3.3018-5.29 3.8793-0.84916-3.3333 0.15947-7.0382 0.35267-10.58 11.61-4.0456 11.542-2.7584 17.678-23.795z" fill="#007334" fill-rule="evenodd" stroke="#000" stroke-width="1px"/>
<path d="m38.579 162.62c-0.49521-3.4766 11.263-3.405 10.535 0.0305-3.4972 16.511 1.1651 27.992 2.9478 35.974 1.0314 4.618-15.736 4.5524-14.851-0.0959 2.0883-10.971 2.5089-27.902 1.3684-35.909z" fill="#d60000" stroke="#000" stroke-width="1px"/>
<path d="m171.17 161.3c-0.49521-3.4766 10.583-3.4808 10.535 0.0305-0.23646 17.278 0.39783 27.417 2.0847 36.358 0.87722 4.6497-14.585 4.4564-13.7-0.19181 1.4952-13.421 2.6143-24.074 1.0807-36.197z" fill="#d60000" stroke="#000" stroke-width="1px"/>
<path d="m11.076 198.4c34.481 72.179 155.25 78.316 196.26-0.38362z" fill="#007334" fill-rule="evenodd" stroke="#000" stroke-width="1px"/>
<path d="m1 1 3.9384 165.44c2.8131 118.17 205.92 118.17 208.73 0l3.9384-165.44z" fill="none" stroke="#000" stroke-width="2"/>
<path d="m128.84 39.58c0.1932 3.5418 1.2018 7.2467 0.35267 10.58-2.3358-0.57757-3.8838-2.1398-5.29-3.8793 0.28186 1.4348 0.18391 3.0595 0 4.7272-2.659-1.8323-5.407-3.9364-7.2296-7.9012 1.5124 10.774 10.249 16.024 17.401 13.638 0.45206 3.5448 3.2011 12.793 3.2343 16.756-2.116-0.1695-6.232-3.925-8.348-5.703 0.0816 1.3698 0.35228 2.6452 0 4.232-2.915-3.2279-10.144-7.7668-12.64-12.464 3.79 11.719 13.811 22.226 20.399 22.283 0.56826 3.5757 0.82594 8.5831 0.17633 12.343l-5.1137-5.6427c0.12726 1.9984 0.37345 3.9969-0.35266 5.9953-3.431-1.0168-10.689-3.2451-13.419-9.1693 3.1827 12.182 7.1109 19.303 17.001 20.162 0.51266 4.5161 1.1113 9.0107 0.71522 13.754-2.5035-0.48051-4.6142-2.9968-6.8869-5.5545 0.20373 1.7137 0.30089 3.7151-0.17633 5.2018-7.9024-3.4002-9.1506-8.7016-10.653-13.93 2.7984 15.601 8.7992 25.595 19.117 23.336 0.30371 5.0255 0.67652 10.051 0.529 15.076-2.8107-0.34984-4.6217-2.758-6.5243-5.3782-0.0235 2.0298 0.31032 4.1787-0.35266 5.9953-5.2695-2.6032-9.6326-9.059-13.983-15.569 5.1004 12.971 9.4286 23.99 21.695 20.942 0.2703 4.9305 0.6989 10.21-0.42571 15.02-2.2955-1.3726-3.6998-3.2575-5.3099-5.5441 0.14521 2.8438-0.18714 5.21-0.98237 7.1134-4.2432-4.228-6.0106-6.785-7.2469-9.8565-0.24383 2.3093-0.59403 4.1931-1.3048 4.6348-5.3502-5.425-8.8566-10.199-11.974-17.722-3.1172 7.5227-6.6237 12.297-11.974 17.722-0.71074-0.44165-1.0609-2.3255-1.3048-4.6348-1.2363 3.0715-3.0037 5.6285-7.2469 9.8565-0.79523-1.9034-1.1276-4.2696-0.98236-7.1134-1.61 2.2866-3.0144 4.1715-5.3099 5.5441-1.1246-4.8102-0.69601-10.09-0.42571-15.02 12.267 3.0474 16.595-7.971 21.695-20.942-4.3504 6.5096-8.7134 12.965-13.983 15.569-0.66298-1.8166-0.32917-3.9655-0.35267-5.9953-1.9026 2.6201-3.7136 5.0283-6.5243 5.3782-0.14752-5.0255 0.22529-10.051 0.529-15.076 10.318 2.2588 16.319-7.7357 19.117-23.336-1.5028 5.2287-2.7509 10.53-10.653 13.93-0.47722-1.4867-0.38007-3.4881-0.17633-5.2018-2.2727 2.5577-4.3834 5.074-6.8869 5.5545-0.3961-4.7433 0.20255-9.2379 0.71522-13.754 9.8904-0.85912 13.819-7.9804 17.001-20.162-2.73 5.9242-9.988 8.1525-13.419 9.1693-0.72611-1.9984-0.47992-3.9969-0.35267-5.9953l-5.1137 5.6427c-0.64961-3.7602-0.39192-8.7676 0.17633-12.343 6.5876-0.0573 16.609-10.564 20.399-22.283-2.4962 4.6972-9.7253 9.2361-12.64 12.464-0.35227-1.5868-0.08164-2.8622 0-4.232-2.116 1.778-6.232 5.5335-8.348 5.703 0.0332-3.9637 0.78227-11.212 1.2343-14.756 7.1524 2.3863 17.889-4.8643 19.401-15.638-1.8226 3.9648-4.5707 6.0689-7.2297 7.9012-0.18391-1.6677-0.28186-3.2924 0-4.7272-1.4062 1.7396-2.9542 3.3018-5.29 3.8793-0.84916-3.3333 0.15947-7.0382 0.35267-10.58 7.1194 0.97741 10.55-0.36811 12.52-7.647-4.0074 2.1975-6.0305 5.3535-5.5086-1.8775-1.8861 2.084-3.6389 3.2353-5.29 3.6741-0.49328-1.5568-2.2117-0.79239-1.2947-5.405 10.243-0.63891 15.246-6.8595 17.225-24.515 2.1709 16.121 7.6717 24.749 16.793 24.889 0.91707 4.6126-0.92607 3.4741-1.4194 5.0309-1.6511-0.43885-3.4039-1.5902-5.29-3.6741 1.0856 7.6918-2.1172 3.3864-5.0714 1.8775 1.9698 7.2789 5.4003 8.6244 12.52 7.647z" fill="#007334" fill-rule="evenodd" stroke="#000" stroke-width="1px"/>
<path d="m43.674 20.096c3.8953 20.598 5.521 20.174 17.505 23.795 0.19319 3.5418 1.2018 7.2467 0.35266 10.58-2.3358-0.57757-3.8838-2.1398-5.29-3.8793 0.28185 1.4348 0.18391 3.0595 0 4.7272-2.659-1.8323-5.407-3.9364-7.2297-7.9012 1.5124 10.774 6.249 16.024 13.401 13.638 0.45206 3.5448 1.2011 6.7926 1.2343 10.756-2.116-0.1695-4.232-1.925-6.348-3.703 0.0816 1.3698 0.35227 2.6452 0 4.232-2.915-3.2279-6.1441-3.7668-8.6403-8.464 3.79 11.719 9.8114 14.226 16.399 14.283 0.56825 3.5757 0.82594 8.5831 0.17633 12.343l-5.1137-5.6426c0.12726 1.9984 0.37344 3.9969-0.35267 5.9953-3.431-1.0168-6.689-3.2451-9.419-9.1693 3.1827 12.182 7.1109 17.303 17.001 18.162 0.51266 4.5161 1.1113 9.0107 0.71521 13.754-2.5035-0.48051-4.6142-2.9968-6.8869-5.5545 0.20373 1.7137 0.30089 3.7151-0.17634 5.2018-7.9024-3.4002-9.1506-8.7016-10.653-13.93 2.7984 15.601 8.7992 23.595 19.117 21.336 0.30371 5.0255 0.67652 10.051 0.529 15.076-2.8107-0.34984-4.6217-2.758-6.5243-5.3782-0.0235 2.0298 0.31032 4.1787-0.35267 5.9953-5.2695-2.6032-9.6326-9.059-13.983-15.569 5.1004 12.971 9.4286 27.99 21.695 24.942 0.2703 4.9305 0.6989 10.21-0.4257 15.02-2.2955-1.3726-3.6998-3.2575-5.3099-5.5441 0.14521 2.8438-0.18713 5.21-0.98236 7.1134-4.2432-4.228-6.0107-6.785-7.2469-9.8565-0.24383 2.3093-0.59403 4.1931-1.3048 4.6348-5.3502-5.425-8.8566-12.199-11.974-19.722-3.1172 7.5227-6.6237 14.297-11.974 19.722-0.71074-0.44165-1.0609-2.3255-1.3048-4.6348-1.2363 3.0715-3.0037 5.6285-7.2469 9.8565-0.79522-1.9034-1.1276-4.2696-0.98236-7.1134-1.61 2.2866-3.0144 4.1715-5.3099 5.5441-1.1246-4.8102-0.69601-10.09-0.42571-15.02 12.267 3.0474 16.595-11.971 21.695-24.942-4.3504 6.5096-8.7134 12.965-13.983 15.569-0.66298-1.8166-0.32917-3.9655-0.35267-5.9953-1.9026 2.6201-3.7136 5.0283-6.5243 5.3782-0.14752-5.0255 0.22529-10.051 0.529-15.076 10.318 2.2588 16.319-5.7357 19.117-21.336-1.5028 5.2287-2.7509 10.53-10.653 13.93-0.47723-1.4867-0.38007-3.4881-0.17633-5.2018-2.2727 2.5577-4.3834 5.074-6.8869 5.5545-0.39609-4.7433 0.20255-9.2379 0.71522-13.754 9.8904-0.85912 13.819-5.9804 17.001-18.162-2.73 5.9242-5.988 8.1525-9.419 9.1693-0.72611-1.9984-0.47993-3.9969-0.35267-5.9953l-5.1137 5.6426c-0.64961-3.7602-0.39192-8.7676 0.17634-12.343 6.5876-0.0573 12.609-2.5641 16.399-14.283-2.4962 4.6972-5.7253 5.2361-8.6403 8.464-0.35227-1.5868-0.0816-2.8622 0-4.232-2.116 1.778-4.232 3.5335-6.348 3.703 0.0332-3.9637 0.78227-7.2115 1.2343-10.756 7.1524 2.3863 11.889-2.8643 13.401-13.638-1.8226 3.9648-4.5707 6.0689-7.2297 7.9012-0.18391-1.6677-0.28185-3.2924 0-4.7272-1.4062 1.7396-2.9542 3.3018-5.29 3.8793-0.84916-3.3333 0.15947-7.0382 0.35267-10.58 11.61-4.0456 11.542-2.7584 17.678-23.795z" fill="#007334" fill-rule="evenodd" stroke="#000" stroke-width="1px"/>
<path d="m111.32 142.11c2.7405 7.3053 7.0949 12.476 8.8213 15.26 2.6018 4.1968-0.38608 5.6665-0.22224 8.917-1.6852-0.89794-1.8688-0.27369-3.1398-1.9499-0.73639 2.6404-1.4078 3.7859-5.1869 8.1306-4.2432-4.228-4.4617-4.91-5.3481-8.1611-1.1932 2.0381-1.6791 1.7518-2.8645 2.1935 0.34626-4.8147-2.8446-6.1528 0.20937-10.624 2.0363-2.7115 5.0905-6.5322 7.7309-13.766z" fill="#007334" fill-rule="evenodd" stroke="#000" stroke-width="1px"/>
<path d="m175.81 137.32c4.775 11.035 6.7559 12.366 8.4822 15.151 2.6018 4.1968 0.0208 8.8266 0.18464 12.077-1.6852-0.89794-1.8688-0.27369-3.1398-1.9499-0.73639 2.6404-1.4078 3.7859-5.1869 8.1306-4.2432-4.228-4.4617-4.91-5.3481-8.1611-1.1932 2.0381-1.6791 1.7518-2.8645 2.1935 0.34626-4.8147-2.8446-8.6609 0.20937-13.132 1.7173-2.5143 3.7726-6.0536 7.663-14.309z" fill="#007334" fill-rule="evenodd" stroke="#000" stroke-width="1px"/>
<path d="m43.587 137.37c-4.775 11.035-6.7559 12.366-8.4822 15.151-2.6018 4.1968-0.0208 8.8266-0.18464 12.077 1.6852-0.89794 1.8688-0.27369 3.1398-1.9499 0.73639 2.6404 1.4078 3.7859 5.1869 8.1306 4.2432-4.228 4.4617-4.91 5.3481-8.1611 1.1932 2.0381 1.6791 1.7518 2.8645 2.1935-0.34626-4.8147 2.8446-8.6609-0.20937-13.132-1.7173-2.5143-3.7726-6.0536-7.663-14.309z" fill="#007334" fill-rule="evenodd" stroke="#000" stroke-width="1px"/>
</svg>
