<?xml version="1.0" encoding="UTF-8"?>
<svg version="1.0" viewBox="0 0 237.45 278.19" xmlns="http://www.w3.org/2000/svg" xmlns:cc="http://creativecommons.org/ns#" xmlns:dc="http://purl.org/dc/elements/1.1/" xmlns:rdf="http://www.w3.org/1999/02/22-rdf-syntax-ns#">
<metadata>
<rdf:RDF>
<cc:Work rdf:about="">
<dc:format>image/svg+xml</dc:format>
<dc:type rdf:resource="http://purl.org/dc/dcmitype/StillImage"/>
</cc:Work>
</rdf:RDF>
</metadata>
<g transform="translate(-220.79 -455.28)" stroke="#000">
<path d="m221.79 456.28 4.2809 179.84c3.0578 128.46 223.83 128.46 226.89 0l4.2809-179.84h-235.45z" fill-rule="evenodd" stroke-width="2"/>
<path d="m298.58 456.28v270.22c26.588 8.0794 56.648 7.9635 83.125-0.375v-269.84h-83.125z" fill="#fdeb00" fill-rule="evenodd" stroke-width="2"/>
<g transform="translate(138.19 321.71)">
<path d="m188.66 280.83 26.518 0.10099-1.3858 10.381c0 1.8489-5.524 2.7328-12.439 2.7328s-12.703-2.0292-12.703-3.8781l0.00936-9.3371z" fill="#296310" fill-rule="evenodd" stroke-linecap="round" stroke-width=".99921"/>
<path transform="matrix(.96227 0 0 1 7.5639 7.5433)" d="m176.84 261.39 51.362 0.52861-1.5199 7.5326c0 3.5258-11.091 6.3873-24.756 6.3873s-24.756-2.8615-24.756-6.3873l-0.32971-8.0612z" fill="#296310" fill-rule="evenodd" stroke-linecap="round" stroke-width="1.0186"/>
<path transform="translate(.49352 -.3524)" d="m226.68 269.45c0 3.5276-11.084 6.3873-24.756 6.3873s-24.756-2.8597-24.756-6.3873 11.084-6.3873 24.756-6.3873 24.756 2.8597 24.756 6.3873z" fill="#296310" fill-rule="evenodd" stroke-linecap="round" stroke-width=".99921"/>
<path d="m186.64 258.45c-0.24919-8.2232 3.563-12.602 6.0378-15.46s7.0014-4.7418 6.9779-8.6058c-0.02352-3.864-1.553-5.3387-1.553-5.3387 4.0626 0.76512 7.3322 3.8209 8.1351 6.5242 2.0903 0.08306 2.9764-0.56193 4.4209-0.36752-0.8462 1.604-2.752 5.6087 0.79956 8.903 3.5516 3.2943 7.7951 6.942 7.5309 13.995-0.2643 7.0554-7.31 14.806-13.856 14.734l-0.0579-0.66882c-3.7293-0.01922-16.964 1.525-18.435-13.716z" fill="#f70000" fill-rule="evenodd" stroke-width="1px"/>
<path d="m206.95 244.47c4.0527 7.5767 12.158 16.299-0.96911 25.99 0.0881-4.1408-1.9162-5.7046-4.2289-9.6911-2.2745-3.9208-0.72683-11.277 2.7311-14.713 1.696 4.5813 2.5109 8.3916-2.7311 14.096" fill="none" stroke-width="1px"/>
<path d="m202.72 272.2c0.59431-8.9418-7.0964-9.0873-7.223-15.481-0.12662-6.3053 9.6477-11.058 10.702-21.274" fill="none" stroke-width="1px"/>
</g>
<g transform="translate(138.19 250.44)">
<path d="m188.66 280.83 26.518 0.10099-1.3858 10.381c0 1.8489-5.524 2.7328-12.439 2.7328s-12.703-2.0292-12.703-3.8781l0.00936-9.3371z" fill="#296310" fill-rule="evenodd" stroke-linecap="round" stroke-width=".99921"/>
<path transform="matrix(.96227 0 0 1 7.5639 7.5433)" d="m176.84 261.39 51.362 0.52861-1.5199 7.5326c0 3.5258-11.091 6.3873-24.756 6.3873s-24.756-2.8615-24.756-6.3873l-0.32971-8.0612z" fill="#296310" fill-rule="evenodd" stroke-linecap="round" stroke-width="1.0186"/>
<path transform="translate(.49352 -.3524)" d="m226.68 269.45c0 3.5276-11.084 6.3873-24.756 6.3873s-24.756-2.8597-24.756-6.3873 11.084-6.3873 24.756-6.3873 24.756 2.8597 24.756 6.3873z" fill="#296310" fill-rule="evenodd" stroke-linecap="round" stroke-width=".99921"/>
<path d="m186.64 258.45c-0.24919-8.2232 3.563-12.602 6.0378-15.46s7.0014-4.7418 6.9779-8.6058c-0.02352-3.864-1.553-5.3387-1.553-5.3387 4.0626 0.76512 7.3322 3.8209 8.1351 6.5242 2.0903 0.08306 2.9764-0.56193 4.4209-0.36752-0.8462 1.604-2.752 5.6087 0.79956 8.903 3.5516 3.2943 7.7951 6.942 7.5309 13.995-0.2643 7.0554-7.31 14.806-13.856 14.734l-0.0579-0.66882c-3.7293-0.01922-16.964 1.525-18.435-13.716z" fill="#f70000" fill-rule="evenodd" stroke-width="1px"/>
<path d="m206.95 244.47c4.0527 7.5767 12.158 16.299-0.96911 25.99 0.0881-4.1408-1.9162-5.7046-4.2289-9.6911-2.2745-3.9208-0.72683-11.277 2.7311-14.713 1.696 4.5813 2.5109 8.3916-2.7311 14.096" fill="none" stroke-width="1px"/>
<path d="m202.72 272.2c0.59431-8.9418-7.0964-9.0873-7.223-15.481-0.12662-6.3053 9.6477-11.058 10.702-21.274" fill="none" stroke-width="1px"/>
</g>
<g transform="translate(138.19 392.98)">
<path d="m188.66 280.83 26.518 0.10099-1.3858 10.381c0 1.8489-5.524 2.7328-12.439 2.7328s-12.703-2.0292-12.703-3.8781l0.00936-9.3371z" fill="#296310" fill-rule="evenodd" stroke-linecap="round" stroke-width=".99921"/>
<path transform="matrix(.96227 0 0 1 7.5639 7.5433)" d="m176.84 261.39 51.362 0.52861-1.5199 7.5326c0 3.5258-11.091 6.3873-24.756 6.3873s-24.756-2.8615-24.756-6.3873l-0.32971-8.0612z" fill="#296310" fill-rule="evenodd" stroke-linecap="round" stroke-width="1.0186"/>
<path transform="translate(.49352 -.3524)" d="m226.68 269.45c0 3.5276-11.084 6.3873-24.756 6.3873s-24.756-2.8597-24.756-6.3873 11.084-6.3873 24.756-6.3873 24.756 2.8597 24.756 6.3873z" fill="#296310" fill-rule="evenodd" stroke-linecap="round" stroke-width=".99921"/>
<path d="m186.64 258.45c-0.24919-8.2232 3.563-12.602 6.0378-15.46s7.0014-4.7418 6.9779-8.6058c-0.02352-3.864-1.553-5.3387-1.553-5.3387 4.0626 0.76512 7.3322 3.8209 8.1351 6.5242 2.0903 0.08306 2.9764-0.56193 4.4209-0.36752-0.8462 1.604-2.752 5.6087 0.79956 8.903 3.5516 3.2943 7.7951 6.942 7.5309 13.995-0.2643 7.0554-7.31 14.806-13.856 14.734l-0.0579-0.66882c-3.7293-0.01922-16.964 1.525-18.435-13.716z" fill="#f70000" fill-rule="evenodd" stroke-width="1px"/>
<path d="m206.95 244.47c4.0527 7.5767 12.158 16.299-0.96911 25.99 0.0881-4.1408-1.9162-5.7046-4.2289-9.6911-2.2745-3.9208-0.72683-11.277 2.7311-14.713 1.696 4.5813 2.5109 8.3916-2.7311 14.096" fill="none" stroke-width="1px"/>
<path d="m202.72 272.2c0.59431-8.9418-7.0964-9.0873-7.223-15.481-0.12662-6.3053 9.6477-11.058 10.702-21.274" fill="none" stroke-width="1px"/>
</g>
</g>
</svg>
