<?xml version="1.0" encoding="UTF-8" standalone="no"?>
<svg
   xmlns:dc="http://purl.org/dc/elements/1.1/"
   xmlns:cc="http://creativecommons.org/ns#"
   xmlns:rdf="http://www.w3.org/1999/02/22-rdf-syntax-ns#"
   xmlns:svg="http://www.w3.org/2000/svg"
   xmlns="http://www.w3.org/2000/svg"
   xmlns:sodipodi="http://sodipodi.sourceforge.net/DTD/sodipodi-0.dtd"
   xmlns:inkscape="http://www.inkscape.org/namespaces/inkscape"
   height="458"
   width="408"
   version="1.1"
   id="svg38"
   sodipodi:docname="1211.svg">
  <metadata
     id="metadata44">
    <rdf:RDF>
      <cc:Work
         rdf:about="">
        <dc:format>image/svg+xml</dc:format>
        <dc:type
           rdf:resource="http://purl.org/dc/dcmitype/StillImage" />
      </cc:Work>
    </rdf:RDF>
  </metadata>
  <defs
     id="defs42" />
  <sodipodi:namedview
     pagecolor="#ffffff"
     bordercolor="#666666"
     borderopacity="1"
     objecttolerance="10"
     gridtolerance="10"
     guidetolerance="10"
     inkscape:pageopacity="0"
     inkscape:pageshadow="2"
     inkscape:window-width="640"
     inkscape:window-height="480"
     id="namedview40" />
  <path
     d="m4 4v250a200 200 0 0 0 400 0v-250z"
     stroke="#000"
     stroke-width="6"
     fill="#ef3120"
     id="path2" />
  <g
     stroke="#231f20"
     stroke-width="4"
     fill="#fff"
     id="g36">
    <path
       d="m284.8 42.28-12-8.76c-5.5-4.07-12-4.88-14.4-1.8l-224.8 282.7c-2.46 3.1 0.06 8.9 5.6 13l11.96 8.8"
       id="path4" />
    <path
       d="m270.3 40.49-224.8 282.7c-2.41 3.1 0.12 8.9 5.66 13 5.55 4 12.04 4.8 14.48 1.8l224.8-282.8c2.5-3.04-0.1-8.84-5.6-12.92-5.6-4.07-12-4.88-14.5-1.79z"
       id="path6" />
    <path
       d="m378.2 110.9-11.9-8.8c-5.6-4.08-12-4.89-14.5-1.8l-224.8 282.7c-2.4 3.1 0.1 8.9 5.7 13l11.9 8.7"
       id="path8" />
    <path
       d="m363.8 109.1-224.8 282.7c-2.5 3.1 0.1 8.9 5.6 12.9 5.6 4.1 12.1 4.9 14.5 1.8l224.8-282.7c2.4-3.1-0.1-8.9-5.7-12.9-5.5-4.1-12-4.9-14.4-1.8z"
       id="path10" />
    <path
       d="m95.68 272c-4.01 5.1-4.02 11.6-0.01 14.5l68.23 50.1 14.6-18.3-68.3-50.1c-4-2.9-10.51-1.2-14.52 3.8z"
       id="path12" />
    <path
       d="m70.93 253.9c-4.01 5-4.21 11.4-0.45 14.1l14.54-18.2c-3.77-2.8-10.08-1-14.09 4.1z"
       id="path14" />
    <path
       d="m203.5 336.7c-5.3-3.9-12.8-2.9-16.8 2.1-4 5.1-3 12.3 2.2 16.1 1.6 1.2 7.2 5.3 8.8 6.5 5.2 3.8 12.8 2.9 16.8-2.2 4-5 3-12.2-2.3-16.1-1.6-1.2-7.2-5.3-8.7-6.4z"
       id="path16" />
    <path
       d="m213 343.7c5.2 3.8 6.2 11 2.2 16.1-4 5-11.5 6-16.8 2.1-5.2-3.8-6.2-11-2.2-16.1 4-5 11.5-6 16.8-2.1z"
       id="path18" />
    <path
       d="m165.2 184.7c-4.1 5-4.1 11.5-0.1 14.4l68.3 50.1 14.5-18.2-68.2-50.1c-4-3-10.5-1.3-14.5 3.8z"
       id="path20" />
    <path
       d="m140.4 166.5c-4 5-4.2 11.4-0.4 14.1l14.5-18.2c-3.8-2.8-10.1-0.9-14.1 4.1z"
       id="path22" />
    <path
       d="m272.9 249.3c-5.2-3.9-12.7-2.9-16.7 2.1-4.1 5.1-3 12.3 2.2 16.2 1.6 1.1 7.2 5.2 8.8 6.4 5.2 3.8 12.7 2.9 16.7-2.2 4-5 3-12.2-2.2-16.1-1.6-1.1-7.2-5.2-8.8-6.4z"
       id="path24" />
    <path
       d="m282.4 256.3c5.3 3.8 6.3 11 2.3 16.1-4 5-11.5 6-16.8 2.1-5.2-3.8-6.2-11-2.2-16.1 4-5 11.5-6 16.7-2.1z"
       id="path26" />
    <path
       d="m236.9 94.37c-4 5.05-4 11.53 0 14.43l68.3 50.1 14.5-18.2-68.2-50.15c-4-2.93-10.5-1.23-14.6 3.82z"
       id="path28" />
    <path
       d="m212.2 76.2c-4 5.05-4.2 11.38-0.5 14.14l14.6-18.27c-3.8-2.76-10.1-0.91-14.1 4.13z"
       id="path30" />
    <path
       d="m344.7 159c-5.2-3.9-12.7-2.9-16.7 2.1-4.1 5.1-3.1 12.3 2.2 16.2 1.6 1.1 7.2 5.2 8.8 6.4 5.2 3.8 12.7 2.9 16.7-2.2 4-5 3-12.2-2.2-16.1-1.6-1.1-7.2-5.2-8.8-6.4z"
       id="path32" />
    <path
       d="m354.2 166c5.3 3.8 6.3 11 2.3 16.1-4 5-11.5 6-16.8 2.1-5.2-3.8-6.3-11-2.2-16.1 4-5 11.5-6 16.7-2.1z"
       id="path34" />
  </g>
</svg>
