<?xml version="1.0" encoding="UTF-8"?>
<svg version="1.0" viewBox="0 0 603 763" xmlns="http://www.w3.org/2000/svg" xmlns:cc="http://creativecommons.org/ns#" xmlns:dc="http://purl.org/dc/elements/1.1/" xmlns:rdf="http://www.w3.org/1999/02/22-rdf-syntax-ns#" xmlns:xlink="http://www.w3.org/1999/xlink">
<metadata>
<rdf:RDF>
<cc:Work rdf:about="">
<dc:format>image/svg+xml</dc:format>
<dc:type rdf:resource="http://purl.org/dc/dcmitype/StillImage"/>
<dc:date>30-Jun-2013</dc:date>
<dc:creator>
<cc:Agent>
<dc:title>Rudolf Ammann</dc:title>
</cc:Agent>
</dc:creator>
<cc:license rdf:resource="https://creativecommons.org/publicdomain/zero/1.0/"/>
<dc:coverage/>
<dc:description/>
<dc:subject>
<rdf:Bag>
<rdf:li>Spiringen</rdf:li>
</rdf:Bag>
</dc:subject>
<dc:language/>
<dc:title/>
<dc:contributor>
<cc:Agent>
<dc:title>Rudolf Ammann</dc:title>
</cc:Agent>
</dc:contributor>
</cc:Work>
<cc:License rdf:about="http://creativecommons.org/licenses/GPL/2.0/">
<cc:permits rdf:resource="http://web.resource.org/cc/Reproduction"/>
<cc:permits rdf:resource="http://web.resource.org/cc/Distribution"/>
<cc:requires rdf:resource="http://web.resource.org/cc/Notice"/>
<cc:permits rdf:resource="http://web.resource.org/cc/DerivativeWorks"/>
<cc:requires rdf:resource="http://web.resource.org/cc/ShareAlike"/>
<cc:requires rdf:resource="http://web.resource.org/cc/SourceCode"/>
</cc:License>
</rdf:RDF>
</metadata>
<desc>Gemeindewappen Spiringen, Kanton Uri (Schweiz)</desc>
<g>
<path d="m1.5 1.5v458.87c0 166.31 134.31 301.13 300 301.13 165.69 0 300-134.82 300-301.13v-458.87h-600z" fill="#fcef3c"/>
<path d="m17.844 558.59c40.578 118.07 152.24 202.91 283.66 202.91 131.41 0 243.08-84.835 283.66-202.91h-567.31z" fill="#008000"/>
<path d="m1.5 1.5v458.87c0 166.31 134.31 301.13 300 301.13 165.69 0 300-134.82 300-301.13v-458.87h-600z" fill="none" stroke="#000" stroke-width="3"/>
<g transform="matrix(.73009 0 0 .73009 50.59 -44.999)">
<path d="m181.19 82.284-3.5938 53.906 14.969-1.2188-11.375-52.688zm-61.125 48.469c-7.3736 1e-3 -15.575 0.36033-24.688 1.25-3.4003 65.597 37.063 117.53 37.063 117.53 14.029-31.559 42.406-33.125 42.406-33.125l1.9375 16.906c5.0556-0.86233 21.188-4.2188 21.188-4.2188l-1.1562-45.438 47.438 1s-35.866-28.898-48.969-29.094l-1.7188-15.031-18.344 1.125s-15.339-10.914-55.156-10.906zm221.16 69s-23.61 11.844-31.312 22.031c-5.4349 7.188-8.9688 25.531-8.9688 25.531h0.0937c-9.3898 6.4384-19.883 14.943-22.094 26.719-2.2076 11.758 7.1322 19.385 20.562 22.844 0.66358 10.122 1.8529 18.809 5.8125 25.562l-25.594 4.1875-0.46875 4.5625c-5.1789-1.6781-16.476-4.946-26.062-4.9062-4.2966 0.0178-8.243 0.71593-11.125 2.5-14.822 10.43-23.341 20.193-27.5 46.531 0.0429 0 0.0823-3.2e-4 0.125 0-3.6456 1.2278-7.6713 3.1624-11.406 5.1562l-2-51.844c0.0982 8.9e-4 0.22072 2e-3 0.3125 0 10.738-0.19698 12.163-8.3297 4.1875-11.625l0.0313-0.3125c4.5457 0.18857 7.8682-0.62955 8.4688-3.3438 0.75596-3.4168-2.223-6.148-6.875-8.3125 7.1776-1.1264 13.642-8.3881 1.4062-12.781l-1.2188-0.21875v-0.1875c14.33 2.178 14.331-6.7509 3.9688-11.031l1.0625-1.3438c2.215-2.8063-1.287-10.699-7.0312-11.656-0.21834-0.0243-0.42824-0.0137-0.65625 0-2.0116 0.12097-4.3001 1.6263-5.875 2.8438l-1.375-35.594-17.375 4.0938 1.2188 34.844c-6.2456-1.0572-11.379-1.6687-14.281-1.6562-0.90505 4e-3 -1.6113 0.0898-2.0625 0.21875-10.726 7.5358-11.558 20.084-12.906 29.625l-0.78125 25.281-2.625-1.7812c-3.7095-2.5182-8.987-1.9611-13.25 2.2812-4.6365 4.614-1.4846 10.39 1.7812 16.062 0.58211 0.82838 1.1704 1.6155 1.7812 2.3438-3e-3 -8.1e-4 -0.0625-0.0313-0.0625-0.0313s-15.424 31.317-20.656 47.906c-4.5709 14.491-9.25 44.656-9.25 44.656 6.8618 12.351 11.533 17.44 16.969 20.281 2.7177 1.4206 2.3249 11.472 4.5938 14.25 2.8306 3.466 19.011 6.1598 23.969 7.8125 1.3391-4.1988 4.4306-5.8517 8.5625-12 5.865-2.37 10.95-1.4439 11.812-2.5938 0.2772-0.3696 0.60032-1.2142 0.96875-2.3125l11.719-6.2188 15.281 444.5c-3.5086 1.8835-7.3427 4.3578-10.062 7.3125l-0.75-0.34375c-3.7964 0.69026-9.431 6.2102-14.125 10.688-0.1526-0.0674-0.5625-0.25-0.5625-0.25-9.0657 6.1196-20.096 24.771-13.031 33.625 11.004 2.3549 33.606-6.7034 34.656-9.0312 5e-3 -0.0105-4e-3 -0.021 0-0.0313l5.2812-1 0.8125 23.219c8.7531 4.9236 14.052 4.2913 20.344-2l-1.0312-26.844c3.5686-0.92276 7.6233-2.3084 11.375-4.4062 0.0884-0.18769 0.0761-0.58277-0.0313-1.0938l15.125-4.7188s1.3e-4 -0.0912 0-0.0937c1.053-0.33104 13.286-4.183 20.719-7.1562 1.0914-10.003-1.9648-18.824-7.5938-26.875l-2.6562-0.28125 2.2812-1.5625 0.40625-10.438 3.875-32.875s15.89-18.682 19.719-35.594c1.5276-7.8568-1.1562-24-1.1562-24l-0.21875-24.719c4.8676-3.37 9.0706-6.9184 11.719-9.7812 0 0 1.1391-8.3574 2-18.344 7.3492-8.4533 12.438-19.406 12.438-19.406l4.5938-34.312s23.688-29.147 30.406-67.719c4.8326 2.1848 10.711 2.259 15.5 0.25l5.0625 12.125c-1.9048 2.9666-3.626 5.9671-4.9062 8.8438 0.53712 5.3663 4.902 19.896 13.406 16.375 0.73942-0.3061 1.1947-0.83562 1.4062-1.5l3.0625 7.3438s2.6487 13.065 5.5 19c4.1034 8.5414 16.375 23.219 16.375 23.219l10.719 29.719 7.4062 3.2812 2.8438 22.75s2.1601 2.4569 5.7812 5.75l-2.6875 37.219c2.9076 31.654 19.67 45.724 25.531 84.312l-0.375 15.094 0.71875 0.25c-0.60629 0.10691-1.2023 0.19411-1.8125 0.3125-5.0461 7.7633-4.2812 25.562-4.2812 25.562l20.844 9.8438 0.34375-0.53125c0.23335 0.548 0.4375 0.90625 0.4375 0.90625l13.594 5.875c-0.0116 0.13817-0.0625 0.71875-0.0625 0.71875l16.656 5.4062s0.1782-0.1573 0.4375-0.375l15.031 3.875 2.9688-3.4688c-0.49355 1.4293-0.96376 2.8522-1.4375 4.2188 11.237 0.4154 26.673 6.033 39.094 1.375 0 0-5.6087-20.908-15.875-25.75-1.5636-0.50698-2.9997-0.75191-4.3438-0.78125-1.1883-3.3179-11.842-10.953-17.438-12.656 0.046-0.15967 0.0793-0.30771 0.125-0.46875-2.329-6.2106-12.406-8.5312-12.406-8.5312s-0.78831 0.47118-1.4688 0.875l0.78125-1.375s-5.4769-7.6299-11.688-8.4062c0 0-2.779 0.38693-6.5312 1.9688-0.97534-0.0802-1.9428-0.15143-3.125-0.21875l2.375-1.7188s4.2885-52.691 3.8125-70.406-3.8438-35.625-3.8438-35.625c1.0876-9.8725 0.37103-13.529 0.375-24.375l-5.0312-8.1562-0.40625-1.8438c0.0395-0.10722 0.0881-0.24107 0.125-0.34375 2.7597-7.6719-3.9763-22.91-4.75-24.844-0.15456-0.3864-0.70262-0.85589-1.4688-1.375l-0.0937-0.375 1.9688-14.875 3.9375 0.21875 146.12 168.53c16.239 12.013 23.807 4.2803 22.906-8.875-5.907-6.1792-122.83-141.46-186.66-215.38l-3.5938-8.25-5.0625-14.188 2.5938 0.0625s-3.2654-16.873-8.4375-26.438l3.5938-0.25s-2.5597-9.0235-6.2188-16.75c4.4384 2.8848 9.5982 5.2246 11.719 2.2812 4.7571-6.603-16.031-18.438-16.031-18.438-1.8238 0.47213-3.5999 0.90992-5.3125 1.375l-5.0625-7.5312c2.4824-0.53996 6.0312-1.3125 6.0312-1.3125-2.591-10.04-3.2263-15.985-7.0625-22.969l8.375-0.65625s8.2539 14.179 15.406 15.406c6.6761 1.1458 16.855-5.5941 22.094-9.5 0.0691 0.20478 0.15128 0.42279 0.21875 0.625 24.079-16.492 46.421-33.909 67.406-54.094 3.1949 1.4853 5.4375 2.4688 5.4375 2.4688l4.5-23.531c-0.15774-0.0815-0.34077-0.16773-0.5-0.25 8.8304-5.0263 14.781-14.518 14.781-25.406 0-12.281-7.5788-22.802-18.312-27.125-12.714-27.22-26.597-32.106-32.469-33.812l2.2187-1.4062s-16.857-22.283-31.219-25c-0.42821-0.081-0.84779-0.13188-1.2812-0.15625l0.53125-0.625s-22.706-34.171-29.531-35.688c-7.6126-1.6917-33.294-1.3914-43.562 5.1562-0.0173-2.2461-0.44676-3.978-1.4062-4.9375l-29.25-4.8125c3.4733-6.8873 4.736-15.729 5.375-26.031 9.1426-5.1578 19.836-12.168 19.625-22.906-0.25839-13.141-27.094-28.938-27.094-28.938-0.44026-0.35017-0.8219-0.66217-1.25-1-0.28581-1.4028-3.087-14.747-7.25-20.375-7.622-10.305-30.969-22.812-30.969-22.812zm-161.06 124.72s1.2669 0.3295 3.0938 0.78125l2.5312 72.969c-7.6196 4.3475-15.698 10.505-17.312 18.969 0.81624 0.53922 1.5577 1.0605 2.3438 1.5938-0.48216 0.38455-1.1349 0.9338-1.5312 1.25l-0.84375-1.8125c0-0.30949 0.0283-0.70679 0.0313-1.0312 0.11249-12.337 2.3387-35.21 6.875-53.031-0.23844-0.2199-0.47237-0.44017-0.71875-0.65625 1.7381-0.16915 3.3409-0.71759 4.75-1.8125 2.6788-2.0815 0.5625-10.188 0.5625-10.188l-4.0312-7.4688-0.0313-0.0313 4.2812-19.531zm270.28 73.5 5.0312 1.4062 0.28125-0.3125c4e-3 0.0395-5e-3 0.0862 0 0.125 1.0979 9.3321 14.125 19.812 14.125 19.812l4.5312-2.9062c-0.0172 0.25006-8e-3 0.49762-0.0313 0.75 8.0537 7.6717 15.243 22.114 30.5 21.562l3.5312 2.9375-20.5 16.125s3.463 3.4651 8.125 7.9062l-34.156 52.906c1.135 2.2426 2.3379 4.6947 3.5 7.25l-26.125-21.406-17.562 0.6875c11.974-35.483 19.776-69.261 18.75-97.375 3.8773-3.2384 7.2788-6.5891 10-9.4688zm-191.22 13.094c0.78384 5.6994 1.4062 9.375 1.4062 9.375s7.2888 84.788 24.281 107.34c-0.6548 0.2986-1.175 0.62377-1.5625 0.9375-1.6779-2.5872-2.9822-5.0687-3.8125-7.375l-7.2188 17.219c1.1393 1.7115 2.1647 3.2218 3.1875 4.6875-4.3272 8.1264-8.9562 18.169-9.9062 29.562 0 0 4.2803 0.57815 7.2812 1-1.118-0.0446-2.5-0.0937-2.5-0.0937-10.43 17.841-11.75 28.344-11.75 28.344 1.3762-0.0633 2.7116-0.14049 4.0625-0.1875-4.4193 9.2194-11.062 34.031-11.062 34.031s2.2373 0.0784 2.9062 0.0937c-6.3674 12.347-10.969 35.969-10.969 35.969s2.4632-0.0151 3.6562-0.0313c-7.0747 11.001-7.4375 37.938-7.4375 37.938s2.2511 0.32667 3.4375 0.5c-1.0472 4.7641-2.0235 9.4744-2.875 14.062-2.1293 0.67169-5.4885 1.956-6.6562 3.7188-3.3513 5.0587-1.6416 11.771-1.1562 18.156 0.36616 4.8174 1.7175 8.5282 4.0312 11.562l-1.625 13.719s-8.9602 29.501-9.75 44.75c-0.555 10.716 3.5625 32 3.5625 32l0.125 39.438 3.2188 2.4062-4.4375-0.46875-0.0937 0.25-2.375-0.90625-2.3125 3-17-443.5 2.9375-1.5625 50.406-35.938zm250.44 31.312h0.0313c-3e-3 0.01 3e-3 0.0216 0 0.0313-6e-3 -0.0128-0.0252-0.0185-0.0313-0.0313zm-117.25 134.84-4.8125 1.0312-0.125-0.125c1.6522-0.30928 3.2644-0.58444 4.9375-0.90625zm-25.125 4.4062 0.75 0.875-3.0625 0.65625c-0.23994-0.37824-0.48826-0.75347-0.71875-1.125 0.97024-0.12671 1.9699-0.25199 3.0312-0.40625zm-27.531 25.188c0.11361 0.26008 0.24878 0.50074 0.375 0.75l-0.625-0.375c0.0991-0.14865 0.10535-0.13666 0.25-0.375z" stroke="#000" stroke-width="10"/>
<g transform="translate(-4.7446e-7 -1.0938e-5)">
<path d="m166.28 422.41c-0.99224 9.1291 8.2368 41.689 8.7988 42.486l33.745-17.89 55.484-39.557c-4.8414-19.993-33.709-29.536-38.529-29.37-5.9703 1.3472-53.558 39.615-59.499 44.331z" fill="#fff" stroke="#000" stroke-width="3.0471"/>
<path d="m497.42 377.37c11.266 6.5261 41.706 55.195 41.706 55.195l-21.239 16.541-50.511-41.506" fill="#fff" stroke="#000" stroke-width="3.0471"/>
<path transform="matrix(1.5236 0 0 1.5236 -149.37 -509.25)" d="m470.22 629.75c0 10.592-8.5867 19.179-19.179 19.179-10.592 0-19.179-8.5867-19.179-19.179s8.5867-19.179 19.179-19.179c10.592 0 19.179 8.5867 19.179 19.179z" fill="#fff" stroke="#000" stroke-width="2"/>
<path d="m227.65 889.73-12.49 29.45 35.543 8.5901s13.339-4.1757 21.102-7.281c1.0914-10.003-1.9586-18.803-7.5875-26.854l-36.567-3.9052z" fill="#fff" stroke="#000" stroke-width="3.0471"/>
<path d="m356.58 584.98 3.4326 25.642c10.668-0.54707 85.288-18.989 85.288-18.989l-15.178-22.564-73.542 15.912z" fill="#fff" stroke="#000" stroke-width="3.0471"/>
<path d="m300.95 247.3s3.5093-18.324 8.9442-25.512c7.7026-10.187 31.334-22.05 31.334-22.05s23.325 12.518 30.947 22.823c4.3894 5.9346 7.3499 20.889 7.3499 20.889l-0.77369 1.5473" fill="#fff" stroke="#000" stroke-width="3.0471"/>
<path d="m307.18 298.38c-17.349-2.2787-30.851-10.461-28.242-24.36 2.2525-11.997 13.099-20.601 22.619-27.081 12.401-7.3885 26.073-16.936 37.343-25.926l3.8449-7.897 4.2826 7.5088c13.66 8.4966 21.074 13.31 33.661 23.321 0 0 26.821 15.789 27.079 28.93 0.23658 12.032-13.212 19.43-22.834 24.731h-4.2552 1.1605" fill="#fff" stroke="#000" stroke-width="3.0471"/>
<path d="m338.39 281.56 12.533 0.22925-0.15949-27.05 17.926 1.2052" fill="none" stroke="#000" stroke-width="3.0471"/>
<path d="m334.03 255.2-16.62 0.88059-3.3215 5.2975" fill="none" stroke="#000" stroke-width="3.0471"/>
<g transform="matrix(1.5236 0 0 1.5236 -145.41 164.92)">
<path d="m251.13 385.81c-0.62832-16.965 13.032-62.998 13.032-62.998l4.6354-21.815 10.75-24.872 13.298-1.943 30.983 19.602c-4.0764 25.987-20.183 45.81-20.183 45.81l-3.0077 22.515s-8.1032 17.42-17.275 18.948l0.24867 28.482s1.7643 10.585 0.7617 15.742c-2.5133 11.1-12.949 23.359-12.949 23.359l-2.539 21.582-0.2539 6.8553-6.3641 4.3242-11.409-3.0546-5.1927-3.8974-0.0761-25.885s-2.7126-13.964-2.3483-20.998c0.51838-10.009 6.4107-29.375 6.4107-29.375l1.479-12.381z" fill="#fff" stroke="#000" stroke-width="2"/>
</g>
<path d="m248.49 670.22c-8.2965 9.5729-8.7133 39.654-8.7133 39.654s44.179 6.7729 48.646 2.9437c0 0 8.8283-18.335 8.5092-38.438-23.703-12.267-32.967-7.5467-48.442-4.1598z" fill="#fff" stroke="#000" stroke-width="3.0471"/>
<path d="m313.28 634.75c-8.1514-5.4343-44.739-6.6594-55.996-3.1659-7.7632 9.7041-13.716 40.391-13.716 40.391s49.66-0.95811 56.258 3.3117c7.0212-11.405 6.3324-21.777 13.453-40.537z" fill="#fff" stroke="#000" stroke-width="3.0471"/>
<path d="m334.54 601.33-69.566-2.8226c-3.8295 1.9147-13.348 37.407-13.348 37.407s59.076 1.2792 61.948 3.1938c11.391-12.135 21.022-37.787 20.966-37.778z" fill="#fff" stroke="#000" stroke-width="3.0471"/>
<path d="m339.15 607.72s10.6-14.718-0.63177-28.55c-20.547-3.7406-68.13-5.4411-68.13-5.4411-10.43 17.841-11.775 28.333-11.775 28.333 47.758-2.1958 80.536 5.6582 80.536 5.6582z" fill="#fff" stroke="#000" stroke-width="3.0471"/>
<path d="m300.77 709.77c1.5526 14.362-2.5719 44.614-2.5719 44.614-7.181 7.7633-25.777 20.531-38.199 21.307-2.329 8.5396-10.357 22.214-8.0907 33.314" fill="#fff" stroke="#000" stroke-width="3.0471"/>
<path d="m251.48 726.22-9.2841-2.321s-6.7587 1.6112-8.5104 4.2552c-3.3513 5.0587-1.6326 11.783-1.1472 18.168 0.4853 6.3848 2.6838 10.791 6.5788 14.312 3.5394 3.1992 8.9547 5.954 13.541 4.638" fill="#fff" stroke="#000" stroke-width="3.0471"/>
<path d="m215.5 896.42s13.144 27.439 18.191 36.755l17.409-5.4224s-0.75509-15.049-6.5775-23.589c-6.5988-7.3751-14.313-13.152-14.313-13.152l-5.0289-1.9342-8.1236 10.445-1.5566-3.1013z" fill="#fff" stroke="#000" stroke-width="3.0471"/>
<path d="m190.72 913.07 23.609 26.686s11.985-0.77633 21.689-6.2026c0.98927-2.0996-11.225-26.3-13.159-28.234-1.9342-1.9342-11.218-6.5762-11.218-6.5762s-16.263 5.7866-20.921 14.326z" fill="#fff" stroke="#000" stroke-width="3.0471"/>
<path d="m176.42 921.96 19.729 23.21 20.516-3.8737s-4.2552-15.473-5.4157-17.021c-1.1605-1.5473-9.2734-10.047-9.2734-10.047l-9.6815-4.6526c-4.2698 0.77633-10.921 7.7677-15.874 12.384z" fill="#fff" stroke="#000" stroke-width="3.0471"/>
<path d="m164.55 953.67c11.359 2.4308 35.096-7.3337 34.709-9.2679-0.38684-1.9342-4.7977-12.371-9.2841-17.023-3.3314-3.4551-12.381-7.3499-12.381-7.3499-9.0657 6.1196-20.109 24.787-13.043 33.641z" fill="#fff" stroke="#000" stroke-width="3.0471"/>
<path d="m491.79 897.85s-19.252-3.0426-40.631 1.1056c-5.0461 7.7633-4.2738 25.538-4.2738 25.538l20.84 9.8479 24.065-36.491z" fill="#fff" fill-opacity=".98723" stroke="#000" stroke-width="3.0471"/>
<path d="m480.51 756.71-6.6084-28.787 3.4475-26.027-40.304-113.05-45.153 4.4692-29.047 20.914 18.309 43.815s2.6484 13.038 5.4997 18.973c4.1034 8.5414 16.368 23.243 16.368 23.243l10.742 29.7 11.907 5.2455 4.1435 26.206-2.7132 37.552c2.9076 31.654 19.675 45.722 25.536 84.31l-0.38683 15.087 12.379 4.2552 14.7-3.0947 5.8614-4.2552s4.2855-52.689 3.8096-70.404-3.8538-35.617-3.8538-35.617c1.0876-9.8725 0.39611-13.54 0.40008-24.385l-5.0368-8.1488z" fill="#fff" stroke="#000" stroke-width="3.0471"/>
<path d="m451.8 633.71-58.875 0.36795v14.719s12.879 19.87 15.087 20.606c2.2078 0.73593 22.814 1.4719 22.814 1.4719l32.013-2.5758 0.36797-8.4632-11.407-26.126z" fill="#fff" stroke="#000" stroke-width="3.0471"/>
<path d="m445.54 605.38-68.442 0.73592 4.7836 16.19 12.143 11.775 62.113 1.1039s-4.1934-21.654-10.598-29.805z" fill="#fff" stroke="#000" stroke-width="3.0471"/>
<path d="m437.27 581.31-61.916 17.018 1.8395 15.348 74.091-5.1582s-6.7215-23.804-14.014-27.207z" fill="#fff" stroke="#000" stroke-width="3.0471"/>
<path d="m459.89 668.67-48.571 2.5758c0.0859 10.016 5.473 24.843 16.926 37.165l19.701 3.0444 53.101 3.0721-32.325-23.043z" fill="#fff" stroke="#000" stroke-width="3.0471"/>
<path d="m366.01 584.77c-27.121-41.478 1.4032-44.906-22.711-0.97704s49.831 42.455 22.711 0.97704z" fill="#fff" stroke="#000" stroke-width="3.0471"/>
<path d="m414.94 527.37c-12.458-11.523-128.79-6.5948-132.28 2.1546s-15.483 24.155-17.079 43.296c0 0 74.645 10.794 91.735 9.9138 17.09-0.87975 79.104-14.622 79.104-14.622-4.3916-17.017-3.0778-22.28-21.485-40.742z" fill="#fff" stroke="#000" stroke-width="3.0471"/>
<path d="m455.73 765.68 19.08 1.5362s3.873-8.3775 5.4157-12.666c2.7597-7.6719-3.9936-22.912-4.7673-24.846-0.77367-1.9342-11.218-6.1894-11.218-6.1894l-13.539 5.0289-1.5474 4.2552" fill="#fff" stroke="#000" stroke-width="3.0471"/>
<path d="m418.5 711.81 5.5111 44.197s17.015 19.737 38.753 23.618c3.1053 11.645 1.8718 29.474 1.8718 29.474" fill="#fff" stroke="#000" stroke-width="3.0471"/>
<path d="m504.16 903.65s-5.4754-7.6186-11.686-8.3949c0 0-16.188 2.007-23.233 18.612-5.4343 12.809-0.74579 20.856-0.74579 20.856l14.313 6.1894 21.352-37.262z" fill="#fff" stroke="#000" stroke-width="3.0471"/>
<path d="m498.68 946.73s11.23-8.204 18.569-34.051c-2.329-6.2106-12.387-8.5117-12.387-8.5117s-13.287 7.4694-17.224 13.646c-4.3285 6.7907-5.606 23.499-5.606 23.499l16.647 5.417z" fill="#fff" stroke="#000" stroke-width="3.0471"/>
<path d="m514.15 950.21 20.497-23.985c-0.38816-3.1053-12.056-11.565-17.8-13.16-11.779 8.2714-19.735 11.541-19.347 32.89l16.65 4.2552z" fill="#fff" stroke="#000" stroke-width="3.0471"/>
<path d="m554.78 952.33s-5.6162-20.893-15.882-25.734c-14.24-4.617-18.879 11.876-23.21 24.371 11.237 0.4154 26.671 6.0217 39.093 1.3638z" fill="#fff" stroke="#000" stroke-width="3.0471"/>
<path d="m474.38 416.83c2.0996-22.906-20.823-36.341 16.843-23.535 0 0 18.933-5.8983 23.324-4.526 4.3916 1.3724 20.23 4.042 34.453 34.862 0 0-34.732 4.0528-41.752 14.583-16.912 2.2337-24.407-13.324-32.868-21.384z" fill="#fff" stroke="#000" stroke-width="3.0471"/>
<path d="m455.74 399.18c-1.0979-9.3321 17.193-39.016 31.555-36.299 14.362 2.7171 31.215 25.004 31.215 25.004l-48.623 31.115s-13.049-10.488-14.147-19.82z" fill="#fff" stroke="#000" stroke-width="3.0471"/>
<path d="m195.29 155.57c13.103 0.19565 48.967 29.071 48.967 29.071l-47.44-0.97508 1.1608 45.437s-16.151 3.3587-21.206 4.221l-1.9386-16.911s-28.358 1.5544-42.386 33.114c0 0-40.468-51.928-37.068-117.52 58.319-5.6939 79.834 9.6458 79.834 9.6458l18.348-1.1161 1.729 15.038z" fill="#fff" stroke="#000" stroke-width="3.0471"/>
<path d="m192.57 134.98-14.986 1.2069 3.6115-53.896 11.375 52.69z" fill="#fff" fill-opacity=".98723" stroke="#000" stroke-width="3.0471"/>
<path d="m326.16 264.83" fill="none" stroke="#ba2b2b" stroke-width="3.0471"/>
<path d="m362.27 267.57" fill="none" stroke="#000" stroke-width="3.0471"/>
<path d="m325.07 263.19" stroke="#000" stroke-width="3.0471"/>
<path d="m279.52 521.34-7.1948 17.219c5.0685 7.6139 7.5865 11.659 20.002 22.251s27.207 20.452 41.47 28.995c28.526 17.088 55.134 28.9 55.134 28.9l5.8562 2.6186 3.5709-5.3801s8.3814-12.654 16.521-29.995c8.1397-17.341 14.757-28.432 13.827-49.202l-13.589-10.312c0.71685 16.01-6.3553 36.757-13.998 53.039-4.9314 10.506-9.1213 17.626-12.046 22.425-7.115-3.287-24.914-11.704-47.421-25.186-13.802-8.2676-28.01-17.784-39.422-27.519-11.412-9.7358-19.82-19.822-22.711-27.853z" color="#000000" fill="#fff" stroke="#000" stroke-width="3.0471" style="block-progression:tb;text-indent:0;text-transform:none"/>
<path d="m441.74 411.21s-5.798-27.15-2.5256-63.694c-19.783-4.705-73.608-16.285-95.595-15.239s-63.734-1.2018-85.165 7.8168c-7.1576 26.036 2.1602 80.356 2.1602 80.356s7.7518 89.999 25.867 109.21c0 0 27.996 16.194 63.129 15.37 35.132-0.82341 65.56-21.816 65.56-21.816 14.822-25.8 27.878-97.611 26.569-112.01z" fill="#fff" stroke="#000" stroke-width="3.0471"/>
<path d="m396.94 397.11c13.175 52.699 59.686-6.1635 59.686-6.1635" fill="#fff" stroke="#000" stroke-width="3.0471"/>
<path d="m411.99 332.61c9.0595-7.5496 37.03-7.9876 45.027-6.2106 6.825 1.5167 29.5 35.711 29.5 35.711l-31.053 37.264-44.949-12.593s-5.9342-47.997 1.4746-54.171z" fill="#fff" stroke="#000" stroke-width="3.047"/>
<g transform="matrix(1.5236 0 0 1.5236 -137.97 -519.92)" stroke-width="2">
<g stroke="#000">
<path transform="matrix(.65635 0 0 .65635 -17.703 302.6)" d="m578.96 596.04-15.839 18.256s-2.2868 16.793 11.569 4.6393l19.076-14.871 8.8925-0.65996s8.2486 14.16 15.401 15.388c9.2829 1.5932 25.504-12.164 25.504-12.164l-8.2892-18.1-31.084-25.499-26.775 1.0318-11.354 1.6319s-16.413 14.478-20.788 20.798c0 0-9.628 11.607 4.5731 9.6637" fill="#fff" stroke-width="3.0471"/>
<path d="m347.7 700.24c-5.2936 1.02-6.5616-0.32174-4.5816-5.4519l11.083-13.469" fill="#fff" stroke-width="2"/>
<path d="m352.72 706.2c-3.9887-0.47864-7.1979-2.9558-4.0069-7.2636l9.8639-11.824" fill="none" stroke-width="2"/>
</g>
</g>
<path d="m500.11 459.01-38.224 59.272c4.8388 9.5607 10.23 22.767 13.565 32.763 24.415-16.722 47.013-34.406 68.253-54.951" fill="#fff" stroke="#000" stroke-width="3.0471"/>
<path d="m548.28 499.41 4.5102-23.523c-15.178-7.8472-37.368-19.015-43.785-35.002l-21.088 16.584s17.963 18.14 28.119 25.162c10.156 7.0213 32.244 16.779 32.244 16.779z" fill="#fff" stroke="#000" stroke-width="3.0471"/>
<path d="m198.82 391.56c13.126-7.4099 33.237 21.945 33.237 21.945l-33.488 27.536s-11.172-11.338-30.105-23.845c2.7577-14.453 24.381-22.262 30.357-25.635z" fill="#fff" stroke="#000" stroke-width="3.0471"/>
<path d="m245.34 397.4c-9.5736-19.857-7.7805-1.0601-22.201-23.234-8.7831-2.1958-32.845 14.067-32.845 14.067s25.584 15.105 38.348 35.527c8.0769-6.4126 12.786-17.005 16.698-26.36z" fill="#fff" stroke="#000" stroke-width="3.0471"/>
<path d="m302.44 398.83c-23.736 48.971-62.171-13.308-62.171-13.308" fill="#fff" stroke="#000" stroke-width="3.0471"/>
<path d="m291.97 364.62-15.145 23.248-32.057 19.419s-2.6024-6.9593-8.0369-13.919c-5.4344-6.9593-10.829-18.067-22.157-18.067 4.1587-26.338 12.677-36.103 27.499-46.533 11.528-7.1363 40.067 3.378 40.067 3.378" fill="#fff" stroke="#000" stroke-width="3.0471"/>
<path d="m279.72 326.62-2.3223 22.815s-2.5896 10.486 7.3512 22.058 62.281 33.268 62.281 33.268 39.111-17.888 51.449-34.428c9.1191-12.225 18.625-38.629 13.554-43.701l-66.156-10.855-66.156 10.843z" fill="#fff" stroke="#000" stroke-width="3.0471"/>
<path d="m316.58 299.14 0.93577 36.661s15.584 18.216 26.317 18.583c10.905 0.37245 27.965-17.013 27.965-17.013l-0.31396-38.205" fill="#fff" stroke="#000" stroke-width="3.0471"/>
<path d="m382.84 256.42c-1.1663 15.493-7.5683 33.67-15.135 41.062-16.874-15.956-34.406-11.835-44.572 0.3187 0 0-15.675-17.133-21.11-36.929m-4.8005 4.2774c5.3488 41.305-6.4951 71.71 47.108 72.973 50.099 1.1809 42.277-31.035 45.292-76.135m-32.435 42.162 0.23869 3.8669-24.134 0.67608-1.05-4.3395c13.13-8.4796 16.74-3.4859 24.946-0.20352z" fill="#fff" stroke="#000" stroke-width="3.047"/>
<path d="m289.16 274.57c-1.0282-3.9315 9.374-11.087 13.768-15.266 5.4343-5.4343 35.129-22.516 35.129-22.516l4.7344-6.3188 6.1703 7.1715c11.831 8.0063 34.674 18.524 38.609 23.015s10.499 9.2472 9.1864 13.243" fill="none" stroke="#000" stroke-width="3.0471"/>
<g transform="matrix(1.5957 0 0 1.5957 -906.67 26.695)">
<path d="m691.77 153.87s3.0894-2.9977 5.2788-2.7544c3.5999 0.59998 5.7959 5.5506 4.4078 7.3092l-2.4622 3.1194c-5.0126-0.3464-10.253-1.2193-7.2244-7.6742z" fill="#fff" stroke="#000" stroke-width="1.9096"/>
<g stroke-width="1.9096"></g>
<path transform="matrix(.95481 0 0 .95481 475.9 89.945)" d="m215.03 45.258 16.408 477.59c5.7451 3.2316 9.2144 2.8168 13.344-1.3125l-18.368-478.96-11.384 2.6893z" fill="#fff" stroke="#000" stroke-width="2"/>
<path d="m678.09 211.49c-7.8291-7.2202-22.699-11.169-22.699-11.169s-9.6591 19.639-12.938 30.035c-2.8646 9.0815-5.7974 27.973-5.7974 27.973 4.3003 7.7405 7.2281 10.938 10.634 12.719 1.7032 0.89028 1.4499 7.1863 2.8718 8.9274 1.7739 2.1722 11.91 3.8677 15.018 4.9035 0.83921-2.6314 2.785-3.6771 5.3745-7.5302 3.6756-1.4852 6.8688-0.90311 7.4093-1.6237 1.0809-1.4412 3.5682-13.55 3.5682-13.55l-7.7646-16.817c0-7.5685 1.406-22.406 4.3236-33.868z" fill="#fff" stroke="#000" stroke-width="1.9096"/>
<path d="m678.45 198.88-16.943-11.502c-2.3247-1.5782-5.6337-1.2175-8.3053 1.4412-2.9057 2.8916-0.93824 6.5062 1.1084 10.061 2.8007 3.9856 6.1059 5.9945 10.449 7.9267s11.607 6.4324 15.862 3.1257c1.6788-1.3045 0.35112-6.3684 0.35112-6.3684l-2.5221-4.6839z" fill="#fff" stroke="#000" stroke-width="1.9096"/>
</g>
<path d="m207.59 291.84c16.235 2.4675 14.108-9.3235-0.6794-12.452-19.01-4.7374-38.117-7.8666-41.727-6.8353-10.726 7.5358-11.572 20.104-12.92 29.646l-1.1206 35.832s-0.8726 9.8979 9.3707 12.637c10.122 2.7063 14.776-4.0126 14.776-4.0126l4.8476-22.176s16.165 4.2629 21.456 4.1658c10.738-0.19698 12.149-8.3532 4.1736-11.648m0.57154-11.789c7.5629-0.51566 15.308-8.3277 2.4652-12.939l-35.926-6.8041m1.3577 24.405c8.7644 1.7578 38.141 12.111 40.049 3.4859 2.6872-12.145-41.673-15.705-41.673-15.705" fill="#fff" stroke="#000" stroke-width="3.0471"/>
<path d="m347.48 404.38-0.17849 126.52" fill="none" stroke="#000" stroke-width="3.047"/>
<path d="m360.86 545.93c0.32864-19.522-16.64-23.309-25.923-14.693-9.2828 8.6161-10.187 22.582 9.0278 26.535-5.5706 3.465-6.0418 6.9188-2.3562 9.358 3.6856 2.4391 9.2521-4.3011 9.2521-4.3011l35.629 40.876c0.37353-0.0413-16.767 17.645-23.205 32.11 0.53712 5.3663 4.9104 19.887 13.415 16.366 4.7966-1.9856-3.1005-13.064-3.1005-13.064s5.5996-14.022 15.729-22.321c0 6.5874 5.1314 12.122 12.933 7.1066l223.68 257.91c16.239 12.013 23.81 4.2813 22.909-8.874-8.1179-8.492-227.93-263.21-227.93-263.21 8.8065-8.533-3.3227-12.626-3.3227-12.626 4.3916-6.5873 20.002-11.029 20.002-11.029s15.135 13.576 19.181 7.9599c4.7571-6.603-16.016-18.427-16.016-18.427-14.812 3.8345-25.513 6.9152-39.284 17.294l-36.574-38.582s9.178-5.0645 5.1108-9.4423c-3.9509-4.2525-9.1527 1.0574-9.1527 1.0574z" fill="#fff" stroke="#000" stroke-width="3.0471"/>
<path transform="translate(-2.2337)" d="m332.18 262.44c0 1.498-1.2144 2.7123-2.7123 2.7123s-2.7123-1.2144-2.7123-2.7123 1.2144-2.7123 2.7123-2.7123c1.4927 0 2.7049 1.2062 2.7123 2.6989l-2.7123 0.0134z"/>
<path transform="translate(32.229 .3191)" d="m332.18 262.44c0 1.498-1.2144 2.7123-2.7123 2.7123s-2.7123-1.2144-2.7123-2.7123 1.2144-2.7123 2.7123-2.7123c1.4927 0 2.7049 1.2062 2.7123 2.6989l-2.7123 0.0134z"/>
</g>
</g>
</g>
</svg>
