<?xml version="1.0" encoding="UTF-8"?>
<svg version="1.0" viewBox="0 0 227.06 265.97" xmlns="http://www.w3.org/2000/svg" xmlns:cc="http://creativecommons.org/ns#" xmlns:dc="http://purl.org/dc/elements/1.1/" xmlns:rdf="http://www.w3.org/1999/02/22-rdf-syntax-ns#">
<metadata>
<rdf:RDF>
<cc:Work rdf:about="">
<dc:format>image/svg+xml</dc:format>
<dc:type rdf:resource="http://purl.org/dc/dcmitype/StillImage"/>
</cc:Work>
</rdf:RDF>
</metadata>
<g transform="translate(-10.485 -799.99)">
<path d="m11.485 800.99 4.092 171.89c2.9229 122.78 213.95 122.78 216.88 0l4.092-171.89h-225.06z" fill="#2162bc" fill-rule="evenodd"/>
<path transform="translate(0 804.33)" d="m123.94-3.3438c-11.84 65.397-52.758 120.69-108.84 152.06l0.46875 19.812c0.35276 14.818 3.7538 27.853 9.4375 39.094 38.727-18.113 72.578-44.94 99-77.969 26.424 33.036 60.293 59.859 99.031 77.969 5.6837-11.241 9.0847-24.276 9.4375-39.094l0.46875-19.812c-56.097-31.374-97.037-86.663-108.88-152.06h-0.125z" color="#000000" fill="#fff" fill-rule="evenodd" stroke="#000" stroke-width="1pt"/>
<path d="m11.485 800.99 4.092 171.89c2.9229 122.78 213.95 122.78 216.88 0l4.092-171.89h-225.06z" fill="none" stroke="#000" stroke-width="2"/>
</g>
</svg>
