<?xml version="1.0" encoding="UTF-8"?>
<!DOCTYPE svg  PUBLIC '-//W3C//DTD SVG 1.1//EN'  'http://www.w3.org/Graphics/SVG/1.1/DTD/svg11.dtd'>
<svg version="1.1" viewBox="0 0 163 200" xmlns="http://www.w3.org/2000/svg">
<g transform="scale(1.25)">
<g transform="translate(0 160) scale(.04 -.04)" fill="#fdfdfd">
<path d="m0 2e3v-2e3h1630 1630v2e3 2e3h-1630-1630v-2e3zm3229 1906c9-10 11-321 9-1222l-3-1209-32-130c-59-242-150-439-286-615-83-109-264-279-372-352-167-112-369-201-540-238-87-19-277-40-366-40-81 0-232 17-344 39-144 29-365 123-505 217-40 27-90 60-109 73-75 50-276 265-343 366-59 90-148 251-148 269 0 4-9 26-19 49-11 23-31 85-46 137-60 210-57 153-62 1448-3 914-2 1197 8 1208 17 21 3140 21 3158 0z"/>
<path d="m788 3448c-1-222-3-560-3-751 0-298-2-349-15-358-9-6-131-9-320-7l-305 2-6-284h310c249 0 311-3 320-14 8-10 11-226 11-792v-790c0-6 19-24 42-39 42-28 223-125 233-125 3 0 5 389 5 864v865l23 16c19 13 60 15 279 15 142-1 261 1 265 3 5 3 7 66 5 141l-3 136h-274c-208 0-276 3-282 13-4 6-6 348-5 760l3 747h-141-140l-2-402z"/>
</g>
<g transform="translate(0 160) scale(.04 -.04)" fill="#c0bebb">
<path d="m72 3908c-9-9-12-267-11-1107 1-603 4-1145 8-1206 3-60 6 435 6 1100v1210h1575 1575v-1230c0-676 3-1205 7-1175 3 30 6 582 7 1225 1 899-2 1174-11 1183-17 17-3139 17-3156 0z"/>
<path d="m785 3848c-3-7-4-191-2-408l2-395 3 403 2 402h140 141l-3-747c-1-412 1-754 5-760 6-10 74-13 282-13h274l4-132 3-133-1 135v135l-277 3c-212 2-278 5-278 15 0 6-2 347-3 757l-2 745-143 3c-108 2-144 0-147-10z"/>
<path d="m781 2924c0-11 3-14 6-6 3 7 2 16-1 19-3 4-6-2-5-13z"/>
<path d="m781 2754c0-11 3-14 6-6 3 7 2 16-1 19-3 4-6-2-5-13z"/>
<path d="m781 2614c0-11 3-14 6-6 3 7 2 16-1 19-3 4-6-2-5-13z"/>
<path d="m782 2570c0-14 2-19 5-12 2 6 2 18 0 25-3 6-5 1-5-13z"/>
<path d="m781 2524c0-11 3-14 6-6 3 7 2 16-1 19-3 4-6-2-5-13z"/>
<path d="m782 2460c0-14 2-19 5-12 2 6 2 18 0 25-3 6-5 1-5-13z"/>
<path d="m780 2391c0-16-6-34-13-40-9-7-104-12-278-14l-264-2 267-3c294-2 298-1 298 59 0 16-2 29-5 29s-5-13-5-29z"/>
<path d="m132 2193 3-148 630-10 10-1570 3 780c1 597-1 784-10 793s-94 12-321 12h-308l3 145c2 80 0 145-5 145-4 0-6-66-5-147z"/>
<path d="m1625 2050c-3-5-1-10 4-10 6 0 11 5 11 10 0 6-2 10-4 10-3 0-8-4-11-10z"/>
<path d="m1222 2043c70-2 187-2 260 0 73 1 16 3-127 3s-203-2-133-3z"/>
<path d="m1072 2028c-9-9-12-217-12-875 0-533-4-863-9-863-6 0-12 4-15 9-6 8-46 22-46 16 0-5 62-35 72-35 4 0 8 391 8 868 0 662 3 871 12 880 7 7 10 12 7 12s-10-5-17-12z"/>
<path d="m82 1455c-1-11 3-38 7-60 7-34 9-35 9-10 0 35-15 101-16 70z"/>
<path d="m3206 1418c-3-13-5-32-5-43 1-11 5-2 10 19 10 42 6 62-5 24z"/>
<path d="m101 1340c0-8 4-24 9-35 5-13 9-14 9-5 0 8-4 24-9 35-5 13-9 14-9 5z"/>
<path d="m3186 1314c-4-20-5-38-3-40 3-3 8 11 11 32 4 20 5 38 3 40-3 3-8-11-11-32z"/>
<path d="m122 1270c0-8 4-26 8-40 6-20 8-21 8-5 0 11-3 29-8 40-5 12-8 14-8 5z"/>
<path d="m3166 1234c-4-14-5-28-3-31 3-2 8 8 11 23 4 14 5 28 3 31-3 2-8-8-11-23z"/>
<path d="m141 1195c1-19 18-51 18-35 0 8-4 22-9 30s-9 11-9 5z"/>
<path d="m3147 1183c-4-3-7-13-7-22 1-13 3-13 11 2 11 19 8 33-4 20z"/>
<path d="m160 1131c0-6 4-13 10-16s7 1 4 9c-7 18-14 21-14 7z"/>
<path d="m3126 1125c-3-9-6-22-5-28 0-7 5-1 10 12s8 26 5 28c-2 2-6-3-10-12z"/>
<path d="m181 1095c1-19 18-51 18-35 0 8-4 22-9 30s-9 11-9 5z"/>
<path d="m3099 1054c-5-15-12-31-16-37-3-6-1-7 4-4 11 7 36 67 27 67-2 0-9-12-15-26z"/>
<path d="m207 1023c7-20 33-60 33-52 0 9-31 69-35 69-3 0-2-8 2-17z"/>
<path d="m3055 964c-8-19-24-48-35-64-11-15-20-32-20-36 0-5 12 8 26 29 27 40 58 107 49 107-2 0-11-16-20-36z"/>
<path d="m246 947c3-10 9-15 12-12s0 11-7 18c-10 9-11 8-5-6z"/>
<path d="m280 885c42-71 120-182 143-201 12-11 6 1-14 26-19 25-57 79-84 120-54 84-81 116-45 55z"/>
<path d="m2930 762c-36-48-67-91-69-97-4-13 98 118 122 156 35 54 12 29-53-59z"/>
<path d="m525 570c49-49 92-90 94-90 9 0-164 177-174 179-5 0 31-39 80-89z"/>
<path d="m2739 547c-87-84-245-200-326-241-18-9-33-19-33-22 0-9 66 29 164 95 80 53 315 260 296 260-3 0-48-41-101-92z"/>
<path d="m645 462c11-13 29-28 40-34 21-11 18-8-30 32-29 24-29 24-10 2z"/>
<path d="m770 450c0-15 183-130 206-130 5 0-29 22-74 48-46 26-95 57-108 69s-24 18-24 13z"/>
<path d="m725 400c10-11 20-20 23-20s-3 9-13 20-20 20-23 20 3-9 13-20z"/>
<path d="m760 376c0-17 324-185 336-174 2 2-27 17-64 32-60 26-191 96-249 134-13 8-23 12-23 8z"/>
<path d="m2283 242c-45-20-81-38-79-40 5-4 147 57 161 69 13 13 8 11-82-29z"/>
<path d="m1125 190c27-12 43-12 25 0-8 5-22 9-30 9-10 0-8-3 5-9z"/>
<path d="m2150 190c-18-12-2-12 25 0 13 6 15 9 5 9-8 0-22-4-30-9z"/>
<path d="m1185 170c27-12 43-12 25 0-8 5-22 9-30 9-10 0-8-3 5-9z"/>
<path d="m2090 170c-18-12-2-12 25 0 13 6 15 9 5 9-8 0-22-4-30-9z"/>
<path d="m1245 150c19-8 73-14 64-6-2 2-22 6-44 9-28 5-34 4-20-3z"/>
<path d="m2010 150c-20-6-21-8-5-8 11 0 31 4 45 8 20 6 21 8 5 8-11 0-31-4-45-8z"/>
<path d="m1345 130c17-4 44-8 60-8 25 0 24 2-10 9-51 10-92 10-50-1z"/>
<path d="m1895 130-40-7h35c19-1 49 3 65 7 27 7 27 8 5 7-14 0-43-3-65-7z"/>
<path d="m1490 108c57-8 240-8 305 0 28 4-40 7-150 7s-180-3-155-7z"/>
</g>
<g transform="translate(0 160) scale(.04 -.04)" fill="#0191cc">
<path d="m2662 3594c-34-34-38-36-71-25-60 18-61-3-3-58 29-27 52-54 52-59 0-24-21-21-53 8-39 34-47 36-47 15 0-20-49-20-57 1-3 8-6 30-7 47-1 24 5 34 22 42 12 5 22 13 22 17 0 16-37 7-70-17-27-20-46-25-95-25-41 0-68-5-81-16-18-14-17-15 19-9 29 5 39 2 43-10 9-21 1-27-43-34-32-5-39-11-47-39-11-39 5-57 39-46 11 4 43 9 71 11 48 4 53 3 78-28 25-30 27-38 21-83-8-62-20-84-51-96-20-8-23-15-18-34 3-13 1-27-5-30-19-12-12-28 9-21 14 4 22 1 27-12 4-10 14-23 22-29 13-10 13-16 3-38-13-29-10-31 19-16 24 14 38-12 19-35-28-33 2-26 34 8 38 41 56 47 56 18 0-14 6-17 25-13 18 3 25 0 25-12 0-9 5-16 10-16 6 0 10 13 10 29s6 34 14 40c11 9 18 6 34-14 25-31 32-32 32 0 0 29 7 31 31 9 17-16 18-15 9 16-5 18-7 60-5 92 3 37 0 66-8 79-10 17-9 22 6 33 15 12 15 15 2 26-18 15-20 41-4 57 8 8 8 17 0 31-15 29-14 52 4 52 19 0 19 9-1 31-12 14-21 16-35 9-23-13-34 3-20 29 9 15 7 20-12 25-17 4-19 8-9 18 6 6 12 27 12 45 0 26 4 33 20 33 11 0 20 7 20 15 0 26-31 16-68-21z"/>
<path d="m1820 3441c0-11 7-27 16-35 8-9 14-26 12-38-2-18-9-22-29-20-57 5-60-48-4-62 33-8 32-31-2-60-23-20-25-26-14-39 7-9 31-17 54-19l42-3 21-65c37-112 43-125 56-112 7 7 36 12 66 12 48 0 112 23 112 40 0 3-17 16-38 29-102 66-154 125-166 190-3 18-19 49-36 68-21 23-30 44-30 68 0 35-21 65-46 65-8 0-14-9-14-19z"/>
<path d="m1919 3453c-3-24 4-79 10-86 13-14 36 53 24 71-11 18-33 28-34 15z"/>
<path d="m2992 3377c-53-56-66-146-37-257 24-91 10-197-24-176-6 4-8 33-4 75 4 44 2 71-5 75-18 11-37-73-36-164 0-70 5-95 27-143 31-65 33-84 13-106-25-29-84-145-95-188-19-70 9-147 97-270 37-52 72-136 72-173 0-45-49-131-95-165-44-34-82-28-90 13-3 15-13 41-22 57-9 17-31 58-50 91-73 136-104 303-73 404 15 51 13 130-3 130-8 0-22 9-32 20-25 28-32 25-40-12-9-43-52-88-83-88-23 0-24 2-18 43l7 42-23-26c-13-15-31-29-40-32-21-7-40 15-32 37 3 9 1 16-4 16-6 0-13-8-16-18-4-10-34-47-67-82l-61-64 6-53c3-29 11-65 18-80 14-32 95-136 159-203 57-61 112-177 117-251 4-52 1-64-37-133-27-48-44-93-48-127s-15-61-32-82c-22-27-23-30-6-23 41 17 55 18 55 6 0-37-27-94-61-127-21-21-39-41-39-45 0-15 62 16 77 38 8 13 25 24 37 24s27 5 33 11c20 20 43 2 43-31 0-34 25-90 40-90 6 0 15-11 21-24 9-19 6-32-15-72-14-27-26-54-26-61 0-19-59-82-94-100-17-9-46-17-65-17-20-1-38-8-44-18-17-26-2-32 28-12 19 13 29 14 37 6 9-9 6-18-10-35-12-13-22-29-22-35 0-24 31-25 55-2 28 26 55 21 55-10 0-29 31-23 46 8 21 42 32 47 55 26 21-19 21-19 38 3 11 12 21 48 25 85 6 63 29 108 69 137 25 18 79 78 94 104 23 40 15 82-21 126-88 105-113 239-59 317 14 21 34 59 43 84 13 38 24 49 70 73 113 58 158 130 146 230-5 44-49 138-82 178-15 17-58 91-75 129-6 14-13 50-16 80-6 62 13 112 87 230 29 47 49 67 72 75 56 18 73 70 69 213-2 55-16 35-28-38-11-73-52-150-79-150-18 0-18 0 10 57 13 27 30 89 38 141 14 91 14 96-9 160-12 37-24 78-25 92-2 34 21 138 33 145 15 10 10 25-9 25-10 0-28-10-40-23z"/>
<path d="m1732 3209c2-7 10-15 17-17 8-3 12 1 9 9-2 7-10 15-17 17-8 3-12-1-9-9z"/>
<path d="m2290 3190c0-5 10-10 23-10 18 0 19 2 7 10-19 13-30 13-30 0z"/>
<path d="m2244 3036c-22-7-54-23-71-35-16-12-47-28-69-36-28-10-33-14-16-15 36 0 38-27 3-59-17-16-31-36-31-45s-19-37-41-61c-25-28-36-45-27-45 34 0 110 30 139 54 46 39 64 32 61-24-3-36 1-50 17-64 25-23 45-89 35-119-6-20-5-20 10-8 26 21 43 60 51 114 6 38 11 47 27 47 19 0 19-5 13-87-7-103 5-96 31 18 16 74 36 109 61 109 16 0 17-26 2-36-14-8-5-132 10-147 14-14 23 46 11 78-13 35-4 67 18 63 10-2 17-14 19-32 1-15 9-36 17-45s18-28 21-43c11-42 25-34 25 13 0 61 20 121 39 117 11-3 15-13 14-35-2-19 4-36 14-44 15-12 16-12 10 4-7 19 18 67 34 67 6 0 14-10 19-22 8-21 9-20 9 11 1 30 4 33 25 29 22-5 23-3 14 26-6 17-13 56-17 86-7 60-27 104-42 95-5-4-9-17-9-30 0-33-16-40-46-20-22 14-27 14-46 0-28-19-54-19-61 0-5 12-10 12-34 0-38-20-64-19-70 3-2 10-18 23-35 30-22 8-28 15-24 29 4 13-1 21-17 28-12 6-21 18-21 28 2 20-15 21-72 3z"/>
<path d="m1997 2912c20-35 28-39 37-17 3 8 0 15-6 15s-20 8-31 17c-18 17-18 17 0-15z"/>
<path d="m2130 2718c0-24-58-137-98-190-62-84-83-109-146-169-50-49-59-62-60-95-1-47 24-57 59-24 26 25 42 20 56-17 14-36 34-23 37 26 3 36 6 42 20 36 53-22 54-22 56 39 1 26 6 31 39 38 39 8 123 65 167 112 14 15 25 40 26 56l2 29-27-25c-15-14-38-24-54-24-27 0-29 2-21 28 18 56 11 126-16 159-27 34-40 41-40 21z"/>
<path d="m1787 2323c-4-3-7-11-7-17s5-5 12 2c6 6 9 14 7 17-3 3-9 2-12-2z"/>
<path d="m1730 2260c0-5 5-10 10-10 6 0 10 5 10 10 0 6-4 10-10 10-5 0-10-4-10-10z"/>
<path d="m1945 2150c-3-5-2-10 4-10 5 0 13 5 16 10 3 6 2 10-4 10-5 0-13-4-16-10z"/>
<path d="m2376 2072c-3-6-31-24-61-41-90-51-288-196-325-237-18-21-44-62-57-91-27-58-42-64-83-36l-25 18 22-29c25-31 22-46-8-46-21 0-79-51-79-69 0-19 38-12 68 14 36 30 52 32 52 5 0-11-4-20-8-20-11 0-35-51-27-58 3-3 6-3 8-1 64 92 87 102 87 38 0-48 12-73 56-115 43-40 43-66-1-128-20-28-39-71-45-102-10-46-17-58-54-85-39-28-66-64-66-89 0-5 10-15 22-21 19-10 25-8 45 17 23 30 38 26 45-11 2-13 12-21 31-23 25-3 27-1 27 37 0 44 12 51 40 26 24-21 60-8 60 22 0 13-5 34-11 45-9 17-8 24 4 33 19 13 77 120 77 140 0 7 25 44 55 80 67 82 69 102 15 166-49 59-52 93-10 154 43 63 154 115 248 115 47 0 56 14 15 25-48 11-64 33-57 76 11 64-40 224-60 191z"/>
<path d="m2487 1891c-8-37-3-51 19-51 17 0 17 15 0 55l-12 30-7-34z"/>
<path d="m1772 1018c-15-15-16-41 0-36 13 5 31 48 20 48-5 0-13-5-20-12z"/>
<path d="m1820 915c0-14 5-25 10-25 6 0 10 11 10 25s-4 25-10 25c-5 0-10-11-10-25z"/>
<path d="m2330 929c0-5 5-7 10-4 6 3 10 8 10 11 0 2-4 4-10 4-5 0-10-5-10-11z"/>
<path d="m2405 820c-3-5-2-10 4-10 5 0 13 5 16 10 3 6 2 10-4 10-5 0-13-4-16-10z"/>
</g>
<g transform="translate(0 160) scale(.04 -.04)" fill="#fbee00">
<path d="m1671 2888c-2-530-4-1359-4-1843l-2-880 70 3c292 14 605 132 860 325 79 60 251 244 313 335 65 97 152 259 152 284 0 8 4 18 9 24 9 8 52 152 82 269 10 39 13 323 16 1248l4 1197h-749-749l-2-962zm1086 745c13-31 14-48 6-88-10-46-9-52 14-79 38-46 47-75 27-97-15-16-15-20 0-41 20-28 20-38 1-38s-19-5 2-36c13-20 14-30 6-44-8-12-8-21-1-28 17-17 17-135 0-148-11-8-12-15-3-32 19-35 14-45-20-38l-30 6 5-88c3-48 8-120 12-159 3-45 2-73-4-73-5 0-12 7-16 15-3 8-10 15-16 15-14 0-13-26 3-51 10-17 9-22-4-32-20-15-52-242-43-312 6-48 37-149 53-170 4-5 14-26 21-45 8-19 27-55 42-79 15-25 28-53 28-63 0-56 69-15 101 60 34 79 26 110-78 280-28 45-59 106-68 135-15 50-15 55 4 111 12 32 39 91 62 130l41 71-17 45c-10 25-20 57-22 73-3 15-9 30-14 33-13 7-11 111 2 153 6 20 20 61 30 92 11 31 19 78 19 105 0 55 30 146 57 176 35 39 123 74 142 55 7-7 5-20-9-43-25-40-50-119-50-160 0-32 12-66 55-159 45-97 54-172 31-260-11-42-22-57-65-90-28-22-61-53-72-70-36-53-89-169-89-195 1-36 39-123 94-214 67-111 86-159 86-222 0-90-59-174-159-227-28-14-47-32-51-47-4-14-22-47-41-75-30-44-34-58-34-115 0-74 15-111 75-191 23-30 43-63 46-74 9-37-33-114-96-175-60-57-80-95-80-152 0-30-49-138-73-163-19-18-64-20-69-3-3 9-18 2-42-20-55-48-99-43-69 9 24 40 11 45-27 9-26-24-41-30-76-30-36 0-44 3-44 18 0 10 12 28 26 41 14 12 24 30 22 39-4 22-41 27-58 7s-27-19-40 5c-26 48 76 133 153 129 60-4 91 24 136 123l29 66-31 41c-17 23-35 41-39 41s-11-18-14-40c-8-50-29-52-48-5-15 36-25 42-41 26-9-8-59-15-92-12-28 2-10 43 42 93 59 57 65 68 37 68-17 0-70 46-61 53 2 2 15 10 30 19 15 10 30 32 38 59 28 97 34 115 52 141 29 40 24 48-32 48-37 0-70-9-116-31-56-27-68-37-84-74-22-51-19-65 33-124 21-24 38-49 38-56 0-27-31-85-66-122-32-35-74-110-74-135 0-5-13-29-29-52-27-38-29-48-24-102 7-79-14-134-53-134-23 0-25 3-20 24 3 14 1 28-4 31-11 7-49-32-50-49 0-20-45-56-68-56s-24 3-19 35c11 65-38 56-55-11-16-57-39-58-65-3l-19 41-18-27c-17-26-18-26-37-9-10 9-19 27-19 39 0 54 64 155 98 155 8 0 33 12 57 27 35 24 45 39 64 93 13 35 37 84 54 107l30 43-44 48c-24 26-49 57-56 68-12 19-13 19-25-1-7-11-15-31-18-45-11-52-60-19-60 41 0 25-27 36-52 20-64-40-32 99 34 147 12 9 16 21 12 37-6 22 16 78 36 90 5 3 16-10 24-30 17-41 31-45 40-11 14 55 146 186 243 241 15 8 48 31 73 50s52 38 60 42c41 18 90 55 90 67 0 8-14 29-32 47-52 56-87 120-94 171-4 27-11 51-15 54-5 3-24-5-41-18-18-13-42-28-53-34-14-8-19-20-18-40 1-16 3-39 4-52 2-25-38-75-55-69-6 2-11 15-11 28 0 40-29 29-36-13-7-45-21-63-58-76-39-14-51-3-48 44 3 54-22 52-48-3-22-47-30-51-57-26-13 11-18 30-18 65 0 50-8 59-30 33-7-8-21-15-31-15-16 0-19 8-19 41 0 35 6 47 36 75 19 19 46 36 60 39 13 3 35 7 48 10 15 3 49 36 88 82 75 92 95 121 125 186 28 59 29 80 6 73-57-16-90-16-122 2-19 10-36 23-38 28s16 18 39 29c58 28 66 45 39 84-28 39-101 206-101 230 0 27-21 40-76 48-27 3-59 13-71 20-42 27-54 122-14 109 54-17 61-18 61-7 0 6-4 11-9 11s-23 19-40 42c-51 68-35 152 18 99 25-25 46-28 37-5-3 9-6 26-6 39s-12 35-26 49c-15 13-23 29-20 35 13 21 76 12 108-14 51-43 68-32 43 28-13 30 39 21 73-14 42-43 50-107 20-160-18-32-20-43-10-64 7-14 12-37 12-50 0-54 170-192 232-188 21 2 107 54 108 66 0 4-9 7-20 7-32 0-63 37-58 71l5 29h-83c-75 0-85 2-114 27-43 36-51 60-33 103 35 83 45 126 40 167-5 46 5 53 44 33 35-19 54-70 54-146 0-85 12-104 66-104 47 0 49 9 8 39-27 20-30 27-24 55 3 17 9 50 12 73 7 57 28 73 113 84 48 7 86 19 111 36 37 24 40 25 108 13l69-11 43 30c56 41 76 40 96-6z"/>
<path d="m2387 3344c-13-13-7-24 14-24 11 0 19 5 17 12-5 14-22 21-31 12z"/>
</g>
<g transform="translate(0 160) scale(.04 -.04)" fill="#877931">
<path d="m75 3898c-3-7-4-510-3-1118l3-1105 3 1113 2 1112h1570 1570l3-907 2-908v910 910l-1573 3c-1253 2-1574 0-1577-10z"/>
<path d="m770 3408c0-249-1-588-3-753l-2-300-306-1c-169-1-314-4-323-7-14-5-16-27-16-151 0-80 3-147 8-149 4-3 6 62 4 144l-3 149h314c250 0 317 3 326 13 12 16 21 1507 9 1507-5 0-8-204-8-452z"/>
<path d="m1660 3243c-1-340-2-687-2-770-1-84-5-153-9-153-5 0-9-23-9-51 0-31 4-48 10-44 6 3 10-1 10-10s-4-13-10-10c-6 4-10-23-10-74 0-45 3-81 8-81 4 0 6-305 4-677-2-373-1-675 1-673 7 7 16 1196 19 2253l1 897h749 749l-3-1202c-2-662 0-1183 4-1158 3 25 7 568 7 1208l1 1162h-759-760l-1-617z"/>
<path d="m2717 3663c21-4 36-34 46-93 4-24 4-24 6 3 0 15-6 43-13 62-11 27-21 35-38 34-23-2-23-2-1-6z"/>
<path d="m2639 3624c-10-12-24-14-58-10-32 4-40 3-26-3 34-16 71-12 90 9 10 11 16 20 13 20s-11-7-19-16z"/>
<path d="m2483 3623c9-2 23-2 30 0 6 3-1 5-18 5-16 0-22-2-12-5z"/>
<path d="m2429 3600c-14-11-54-23-90-28-52-8-57-10-24-11 54-1 108 15 130 39 23 25 18 25-16 0z"/>
<path d="m2057 3537c5-41-5-84-40-167-18-43-10-67 33-103 29-25 39-27 115-27s84-2 78-17c-6-16-5-16 10-4 34 27 13 36-85 36-87 0-99 2-121 24-29 26-33 72-11 107 23 38 46 142 35 163-6 10-7 21-4 25 3 3 2 6-4 6s-9-17-6-43z"/>
<path d="m2091 3568c29-24 42-62 45-136 3-63 8-79 31-107 22-27 35-33 60-32 18 0 30 3 28 6-3 2 1 11 7 19 10 11 6 19-21 42-30 24-33 31-28 61 5 24 4 30-3 19-18-28-11-59 20-82 40-29 38-38-9-38-54 0-66 19-66 104 0 79-20 128-58 146-19 9-20 9-6-2z"/>
<path d="m1885 3543c20-48 19-56-5-50-16 4-20 3-12-5 6-6 18-8 27-4 13 4 15 13 10 36-9 39 12 40 47 3 36-39 44-109 18-148-11-17-20-37-20-45s11 6 25 32c33 61 26 123-17 167-34 35-86 44-73 14z"/>
<path d="m2237 3542c-10-11-16-34-16-53l1-34 8 39c4 22 16 45 26 53 10 7 13 13 7 13-5 0-17-8-26-18z"/>
<path d="m1734 3529c-3-6 5-22 20-35 14-14 26-20 26-15 0 6-10 16-22 22-21 11-21 12-3 25 16 12 16 14 3 14-9 0-20-5-24-11z"/>
<path d="m1791 3537c2-2 18-11 34-22l30-18-19 21c-11 12-26 22-34 22-9 0-13-1-11-3z"/>
<path d="m2745 3520c-4-14 3-31 24-57 32-39 39-71 19-91-9-9-8-18 2-37 12-23 12-28 0-35-13-8-12-14 4-41 15-25 16-33 5-39-10-7-10-14-1-36 7-14 16-24 19-20 4 3 2 11-4 17-9 9-9 16 0 29 8 14 7 24-6 44-21 31-21 36-2 36s19 10-1 38c-15 21-15 25 1 42s16 21 0 53c-9 19-25 43-36 52-13 12-17 25-13 41 7 29-2 32-11 4z"/>
<path d="m3060 3451c-23-7-22-8 12-12 29-4 35-2 26 8-6 7-11 13-12 12 0-1-12-4-26-8z"/>
<path d="m2995 3422c-16-11-36-26-43-35-16-19-52-116-52-137 1-8 12 17 25 55 24 68 34 81 86 117 32 23 22 23-16 0z"/>
<path d="m1707 3423c-15-14-6-72 14-94l21-24-16 25c-17 26-22 90-8 90 5 0 17-9 27-20 33-37 72-19 44 20-8 12-9 10-4-7 8-29-8-30-35-3-21 21-32 24-43 13z"/>
<path d="m3082 3408c-24-31-41-79-46-129-3-30-3-45 0-34 2 11 10 40 16 65s19 60 29 78c19 33 19 42 1 20z"/>
<path d="m2380 3345c-15-18-5-35 20-35 10 0 22 5 25 10 7 11-12 40-25 40-4 0-13-7-20-15zm38-13c2-7-6-12-17-12-21 0-27 11-14 24 9 9 26 2 31-12z"/>
<path d="m2320 3330c0-5 5-10 10-10 6 0 10 5 10 10 0 6-4 10-10 10-5 0-10-4-10-10z"/>
<path d="m1961 3295c0-11 4-29 9-40 8-18 9-18 9 5 0 14-4 32-9 40-8 12-10 12-9-5z"/>
<path d="m1752 3284c10-10 20-16 22-13 3 3-5 11-17 18-21 13-21 12-5-5z"/>
<path d="m1724 3255c15-8 36-15 45-15 9 1 1 7-18 15-44 19-64 19-27 0z"/>
<path d="m1691 3234c0-11 3-14 6-6 3 7 2 16-1 19-3 4-6-2-5-13z"/>
<path d="m2375 3239c-4-5-4-13-1-16 3-4 6 0 6 8 0 11 2 11 10-1 6-9 10-10 10-3 0 17-17 25-25 12z"/>
<path d="m1980 3221c0-16 98-108 134-126 47-24 45-17-5 14-25 16-64 50-87 76s-42 43-42 36z"/>
<path d="m1701 3202c-2-24 50-62 83-61 20 1 24 3 11 6-44 9-73 26-83 46-6 12-11 16-11 9z"/>
<path d="m2241 3193c-1-20 36-53 59-53 11 0 20-3 20-7 0-8-47-39-90-60-22-11-22-12-5-13 11 0 33 11 49 25 16 13 37 27 47 30 30 10 22 23-19 35-24 6-43 19-50 32-6 13-11 17-11 11z"/>
<path d="m2901 3182c0-13-6-32-12-44-6-11-8-22-5-25 9-9 27 49 23 71-4 19-4 19-6-2z"/>
<path d="m3041 3192c-1-16 49-125 55-119 2 2-4 21-14 43-10 21-23 50-30 64-6 14-11 19-11 12z"/>
<path d="m2815 3120c-4-17-5-34-2-36 2-3 7 10 11 27 8 42 0 50-9 9z"/>
<path d="m1835 3133c11-3 26-10 33-15 8-7 12-7 12 0 0 12-25 22-48 21-13-1-12-3 3-6z"/>
<path d="m1881 3085c0-11 4-27 9-35 9-13 10-13 9 0 0 8-4 24-9 35l-9 20v-20z"/>
<path d="m2865 3070c-4-17-5-34-2-36 3-3 8 9 12 26s5 34 2 36c-3 3-8-9-12-26z"/>
<path d="m2165 3070c3-5 14-10 23-10 15 0 15 2 2 10-20 13-33 13-25 0z"/>
<path d="m2806 3047c-15-16-16-24-7-44 16-34 15-35-19-28l-30 7 2-89 2-88 3 82 4 82 29-6c33-6 38 4 19 39-9 17-8 24 6 34 9 7 15 17 14 21-2 5-12 0-23-10z"/>
<path d="m3107 3035c4-16 8-76 8-132 0-91-2-105-24-135l-24-33 24 22c24 24 48 96 49 150 0 40-20 135-32 148-6 6-6-2-1-20z"/>
<path d="m1900 3025c0-5 5-17 10-25s10-10 10-5c0 6-5 17-10 25s-10 11-10 5z"/>
<path d="m2846 3004c-9-22-7-132 2-137 4-3 7 31 7 74s-1 79-1 79c-1 0-5-7-8-16z"/>
<path d="m1935 2943c15-36 25-52 25-41s-30 78-35 78c-3 0 2-17 10-37z"/>
<path d="m1979 2863c25-38 26-41 4-67-18-21-18-21 5-2 29 25 28 39-4 73l-26 28 21-32z"/>
<path d="m2864 2830c2-14 11-45 21-70l17-45-32-54c-17-30-26-50-18-44 7 6 24 32 37 56l24 44-27 69c-14 38-25 58-22 44z"/>
<path d="m2766 2758c8-56-1-87-18-70-7 7-16 12-20 12-12 0-10-58 2-65 16-10 11-32-9-38-15-4-19-18-25-88-3-46-8-111-12-144-3-34-1-75 5-95 10-34 11-33 6 15-8 72 24 297 44 312 13 10 14 15 4 32-16 25-17 51-3 51 6 0 13-7 16-15 4-8 10-15 15-15 12 0 11 121-1 140-7 10-8 0-4-32z"/>
<path d="m1927 2768c-35-12-31-26 14-50 32-18 65-18 122-2 12 4 17 0 17-13 0-15 2-15 9-3 16 24 3 29-69 23-49-4-74-2-85 7-19 16-19 30-1 30 8 0 18 5 21 10 3 6 5 10 3 9-2 0-16-5-31-11z"/>
<path d="m3032 2727c-21-12-58-56-51-61 2-1 21 15 42 36 20 21 36 38 35 38-2-1-13-6-26-13z"/>
<path d="m1082 2660c0-19 2-27 5-17 2 9 2 25 0 35-3 9-5 1-5-18z"/>
<path d="m2051 2633c-12-26-29-59-37-73l-16-25 21 25c23 26 64 110 58 117-3 2-14-18-26-44z"/>
<path d="m2959 2633c-22-26-62-110-58-120 2-4 20 25 40 64 19 40 35 73 34 73s-8-8-16-17z"/>
<path d="m2811 2546c-30-82-34-103-21-123 10-16 10-16 5 3-3 12 5 55 19 95 29 87 27 105-3 25z"/>
<path d="m1082 2510c0-14 2-19 5-12 2 6 2 18 0 25-3 6-5 1-5-13z"/>
<path d="m1930 2455c-34-41-71-77-83-80-12-2-31-6-42-8-11-3-4-5 16-6 28-1 41 6 65 32 45 48 117 137 111 137-3 0-33-34-67-75z"/>
<path d="m2892 2470c0-14 2-19 5-12 2 6 2 18 0 25-3 6-5 1-5-13z"/>
<path d="m2901 2423c-1-12 4-25 9-28 12-7 12 2 0 30-8 19-9 19-9-2z"/>
<path d="m2184 2378-19-23 22 18c29 25 39 17 47-40 3-27 11-55 17-63 8-11 9-8 3 15-4 17-10 48-13 70-7 47-29 56-57 23z"/>
<path d="m2801 2390c0-8 8-31 19-50 24-45 24-28 0 25-10 22-19 33-19 25z"/>
<path d="m1071 2374c0-11 3-14 6-6 3 7 2 16-1 19-3 4-6-2-5-13z"/>
<path d="m2920 2376c0-12 39-84 49-91 6-3-2 16-16 42-30 55-33 59-33 49z"/>
<path d="m1736 2326c-30-28-36-40-36-75 0-33 3-41 19-41 10 0 25 8 32 18 11 14 11 15-1 5-25-23-40-15-40 23 0 28 8 42 38 69 20 19 34 35 30 35s-23-15-42-34z"/>
<path d="m2112 2340c-25-16-32-25-26-38 18-41 16-87-5-106-12-11-22-15-22-10-1 5-2 15-3 23 0 8-9 19-19 25-21 13-37-5-37-45 0-30-38-69-67-69-19 0-21 4-16 40 4 31 2 41-11 46-20 8-66-31-66-55 0-9 9-1 20 17 26 43 46 37 43-14-3-45 9-56 48-42 37 13 51 31 58 76 7 42 36 53 36 13 0-13 5-26 11-28 17-6 57 44 55 69-1 13-3 36-4 53-1 21 4 32 21 41 27 13 39 24 26 24-5 0-24-9-42-20z"/>
<path d="m1195 2343c223-7 443-7 438 0-2 4-122 6-266 5s-221-3-172-5z"/>
<path d="m2876 2244c21-33 49-79 62-104 12-25 20-34 16-20-7 27-93 168-107 177-5 3 8-21 29-53z"/>
<path d="m2980 2266c0-9 80-141 80-133 0 11-70 137-76 137-2 0-4-2-4-4z"/>
<path d="m2279 2224c11-17 34-46 51-64 16-18 30-38 30-46s-17-24-38-36c-83-50-149-95-157-108-6-9 83 46 95 60 3 3 22 14 43 25 50 26 70 49 63 72-4 10-30 43-58 73s-41 41-29 24z"/>
<path d="m1782 2215c0-16 2-22 5-12 2 9 2 23 0 30-3 6-5-1-5-18z"/>
<path d="m2701 2212c-1-7 10-37 23-65 14-29 30-65 36-81s13-26 16-24c3 3-8 34-24 69s-34 75-40 89-11 19-11 12z"/>
<path d="m1780 2159c0-18 30-49 48-49 7 0 12 4 12 10 0 5-6 7-14 4-9-3-20 5-30 23-9 17-15 22-16 12z"/>
<path d="m3066 2064c4-38 2-75-6-99-16-48-72-111-123-136-21-11-37-23-34-26 17-16 129 83 158 139 21 40 26 142 9 168-7 10-8-5-4-46z"/>
<path d="m2961 2063c-2-69-70-173-105-160-9 4-16 14-16 23 0 21-50 108-57 100-3-3 4-17 15-33 10-15 25-45 31-65 8-25 19-38 30-38 45 0 129 139 111 183-8 20-9 19-9-10z"/>
<path d="m3224 1810c0-151 2-213 3-137 2 75 2 199 0 275-1 75-3 13-3-138z"/>
<path d="m178 2033c12-2 32-2 45 0 12 2 2 4-23 4s-35-2-22-4z"/>
<path d="m760 1952 5-87 3 79c2 44-1 83-5 87s-6-31-3-79z"/>
<path d="m1082 2028c-9-9-11-216-10-882l3-871 10 1750 550 10-270 3c-200 1-274-1-283-10z"/>
<path d="m1578 2013c6-2 18-2 25 0 6 3 1 5-13 5s-19-2-12-5z"/>
<path d="m2114 1941c-18-11-35-25-39-31-4-7 11 0 34 15 35 24 48 35 39 35-2 0-17-9-34-19z"/>
<path d="m1966 1818c-31-35-62-78-68-95-15-42-25-42-44 2-8 20-19 33-24 30-20-12-42-68-36-90 4-16 0-28-12-37-30-22-60-71-66-110-7-41 4-54 32-37 25 16 52 5 52-20 0-60 49-93 60-41 3 14 11 34 18 45 12 20 13 20 25 1 21-33 90-107 95-101 3 2-9 17-26 32-17 16-39 43-49 62-11 19-23 36-29 38-9 3-35-40-49-82-6-20-7-20-21-1-8 11-14 28-14 37 0 45-39 66-68 37-19-19-23-4-13 42 6 27 23 56 46 80 24 25 34 42 29 53-6 17 13 77 25 77 3 0 14-14 23-30 19-34 36-38 45-12 8 23 75 122 83 122 3 0 16 14 28 30 37 49 18 34-42-32z"/>
<path d="m762 1795c0-16 2-22 5-12 2 9 2 23 0 30-3 6-5-1-5-18z"/>
<path d="m2872 1788c-7-7-12-18-12-26 0-7-18-40-40-72-35-51-40-66-40-115 0-54 24-134 37-122 3 4 0 14-8 23-9 11-14 42-14 88 0 65 3 75 38 127 20 31 37 63 37 71 0 7 5 19 12 26s10 12 7 12-10-5-17-12z"/>
<path d="m2420 1751c-19-4-44-13-55-20l-20-13 20 8c39 15 127 17 136 3 4-7 11-10 15-6 11 11-17 37-40 36-11-1-37-4-56-8z"/>
<path d="m762 1094c-2-610-1-652 16-665 15-12 16-12 5 2-10 12-13 166-16 665l-2 649-3-651z"/>
<path d="m2282 1694c-39-31-65-89-57-124 4-13 22-39 41-58 54-52 42-111-41-202-27-30-45-64-44-82 0-7 9 5 19 27s35 57 54 78c35 37 66 95 66 122 0 7-17 32-38 56s-41 52-45 62c-12 33 22 95 67 122 22 14 34 25 26 25s-30-12-48-26z"/>
<path d="m2467 1673c-4-3-7-11-7-17s5-5 12 2c6 6 9 14 7 17-3 3-9 2-12-2z"/>
<path d="m2447 1626c-4-10-7-25-6-34 0-11 4-9 10 7 5 13 8 29 6 35-2 5-6 2-10-8z"/>
<path d="m2426 1544c-4-9-4-19-1-22 2-3 7 3 11 12s4 19 1 22c-2 3-7-3-11-12z"/>
<path d="m82 1495c0-16 2-22 5-12 2 9 2 23 0 30-3 6-5-1-5-18z"/>
<path d="m2396 1495c-10-8-24-16-30-18-17-6 32-54 60-60 20-3 22-2 13 9-6 8-19 14-28 14s-22 5-29 12c-9 9-6 17 15 35 31 24 30 31-1 8z"/>
<path d="m3212 1465c0-16 2-22 5-12 2 9 2 23 0 30-3 6-5-1-5-18z"/>
<path d="m92 1440c0-14 2-19 5-12 2 6 2 18 0 25-3 6-5 1-5-13z"/>
<path d="m2820 1435c0-4 19-33 42-63 33-42 42-62 41-90-1-29 1-33 9-18 14 26 4 54-43 116-49 65-49 66-49 55z"/>
<path d="m3151 1425c-1-11-4-31-7-45-5-22-4-23 6-7 6 10 9 30 7 45-3 18-5 20-6 7z"/>
<path d="m2395 1363c-35-32-36-34-9-18 17 9 36 26 42 36 16 25 13 24-33-18z"/>
<path d="m3192 1370c0-14 2-19 5-12 2 6 2 18 0 25-3 6-5 1-5-13z"/>
<path d="m101 1364c0-11 3-14 6-6 3 7 2 16-1 19-3 4-6-2-5-13z"/>
<path d="m1976 1312-19-27 24 22c12 12 21 24 18 27-2 2-13-8-23-22z"/>
<path d="m3108 1249c-15-52-25-95-23-97 6-6 57 168 53 179-2 6-16-31-30-82z"/>
<path d="m3181 1324c0-11 3-14 6-6 3 7 2 16-1 19-3 4-6-2-5-13z"/>
<path d="m2342 1308c-17-17-15-45 3-52 12-4 13-2 3 14-9 14-9 22 1 34 16 19 10 21-7 4z"/>
<path d="m121 1294c0-11 3-14 6-6 3 7 2 16-1 19-3 4-6-2-5-13z"/>
<path d="m2521 1283c1-17 3-21 6-10 7 25 15 21 50-24l31-41-29-66c-45-100-76-127-139-124-19 1-41-2-48-6-8-6 5-9 34-10 73-1 107 27 155 126l40 83-31 37c-17 20-35 43-41 50-16 20-29 14-28-15z"/>
<path d="m2437 1284c-3-3-21-10-39-14l-33-8 32-1c17-1 35 4 38 9 12 19 26 10 41-25 16-40 45-48 43-12-1 16-2 18-6 5-7-26-16-22-33 14-15 32-31 44-43 32z"/>
<path d="m3171 1274c0-11 3-14 6-6 3 7 2 16-1 19-3 4-6-2-5-13z"/>
<path d="m1947 1273c-4-3-7-11-7-17s5-5 12 2c6 6 9 14 7 17-3 3-9 2-12-2z"/>
<path d="m1915 1188c-14-42-25-58-56-77-21-14-37-26-35-29 2-2 22 8 44 23 31 20 44 38 57 77 9 28 14 52 11 55-2 3-12-19-21-49z"/>
<path d="m2890 1233c0-16-71-102-89-108-22-7-61-66-60-91 0-11 4-6 10 13 5 18 28 47 53 68 48 39 103 112 92 122-3 3-6 2-6-4z"/>
<path d="m2171 1204c-1-6-15-31-31-56-29-44-30-47-21-114l10-69-4 70c-3 63-1 73 27 112 16 24 27 49 25 56-3 7-6 7-6 1z"/>
<path d="m3146 1193c-6-14-5-15 5-6 7 7 10 15 7 18s-9-2-12-12z"/>
<path d="m3126 1145c-9-26-7-32 5-12 6 10 9 21 6 23-2 3-7-2-11-11z"/>
<path d="m3067 1133c-4-3-7-13-7-22 1-13 3-13 11 2 11 19 8 33-4 20z"/>
<path d="m176 1117c3-10 9-15 12-12s0 11-7 18c-10 9-11 8-5-6z"/>
<path d="m3107 1091c-4-17-3-21 5-13 5 5 8 16 6 23-3 8-7 3-11-10z"/>
<path d="m3046 1075c-9-26-7-32 5-12 6 10 9 21 6 23-2 3-7-2-11-11z"/>
<path d="m1751 1045c-17-20-31-41-31-48s9 2 20 20c10 17 32 39 47 47 18 10 22 15 12 16-10 0-31-16-48-35z"/>
<path d="m200 1051c0-6 4-13 10-16s7 1 4 9c-7 18-14 21-14 7z"/>
<path d="m3001 981c-57-112-155-245-261-352-124-126-213-194-360-277-30-18-50-32-45-32 17 0 171 95 247 153 172 132 313 296 420 491 21 38 36 71 34 74-3 2-18-23-35-57z"/>
<path d="m3070 1010c-6-11-8-20-6-20 3 0 10 9 16 20s8 20 6 20c-3 0-10-9-16-20z"/>
<path d="m2338 984c-38-20-62-68-48-94 13-24 23-25 40-5s54 15 58-7c2-9-8-27-22-39-14-13-26-31-26-41 0-15 8-18 44-18 25 0 47 4 50 9s-15 6-39 3c-52-5-59 9-19 40 34 27 30 72-7 76-14 2-31-4-39-12-19-24-30-19-30 13 0 22 10 38 37 60 41 34 42 38 1 15z"/>
<path d="m2724 960c-6-25-14-54-18-65s2-3 14 18 20 50 18 65c-3 23-5 20-14-18z"/>
<path d="m240 971c0-6 4-13 10-16s7 1 4 9c-7 18-14 21-14 7z"/>
<path d="m1706 964c-11-29-6-61 13-78s20-17 37 9l18 27 19-41c25-52 52-55 61-6 8 40 32 69 52 61 8-3 14-1 14 4 0 6-9 10-19 10-23 0-61-49-61-79 0-12-4-21-8-21-18 0-32 26-32 57 0 43-24 44-46 1-16-31-17-31-31-12-9 12-12 32-9 52 5 34 2 42-8 16z"/>
<path d="m2016 953-17-28 20 23c11 13 25 21 31 17 5-3 10-1 10 4 0 21-28 11-44-16z"/>
<path d="m3045 959c-4-6-5-12-2-15 2-3 7 2 10 11 7 17 1 20-8 4z"/>
<path d="m2105 941c-7-23-40-29-48-8-3 7-6 5-6-5-1-26 45-24 59 3 7 11 9 23 7 26-3 2-8-5-12-16z"/>
<path d="m260 931c0-6 4-13 10-16s7 1 4 9c-7 18-14 21-14 7z"/>
<path d="m1973 894c-27-30-50-31-56-1-4 19-4 18-6-5-1-23 3-28 22-28 22 0 76 45 66 54-2 3-14-6-26-20z"/>
<path d="m2663 834c-17-19-27-34-21-34 12 0 58 50 58 63 0 10-1 9-37-29z"/>
<path d="m2986 853c-6-14-5-15 5-6 7 7 10 15 7 18s-9-2-12-12z"/>
<path d="m2495 838c4-9-1-28-10-41-11-17-13-27-5-32 6-3 10-3 9 2-2 4 4 20 11 36 11 22 11 30 1 40-10 9-11 8-6-5z"/>
<path d="m2461 817c-13-21-12-21 5-5 10 10 16 20 13 22-3 3-11-5-18-17z"/>
<path d="m2572 820c-7-11-27-29-45-40s-27-20-20-20 29 14 48 32c30 26 38 29 46 17 8-11 9-10 7 5-4 27-21 30-36 6z"/>
<path d="m2939 783c-13-16-12-17 4-4s21 21 13 21c-2 0-10-8-17-17z"/>
<path d="m370 761c5-11 15-23 21-27 6-3 3 5-6 20-20 30-30 35-15 7z"/>
<path d="m2909 743c-13-16-12-17 4-4s21 21 13 21c-2 0-10-8-17-17z"/>
<path d="m2879 703c-13-16-12-17 4-4s21 21 13 21c-2 0-10-8-17-17z"/>
<path d="m410 706c0-2 8-10 18-17 15-13 16-12 3 4s-21 21-21 13z"/>
<path d="m1652 433c-1-144 1-264 6-266 4-3 6 74 4 171-4 326-8 359-10 95z"/>
<path d="m475 630c10-11 20-20 23-20s-3 9-13 20-20 20-23 20 3-9 13-20z"/>
<path d="m2795 608-40-43 43 40c23 21 42 40 42 42 0 8-9 0-45-39z"/>
<path d="m530 575c13-14 26-25 28-25 3 0-5 11-18 25s-26 25-28 25c-3 0 5-11 18-25z"/>
<path d="m2709 523-34-38 38 34c20 19 37 36 37 38 0 8-8 0-41-34z"/>
<path d="m570 537c0-2 15-16 33-33l32-29-29 33c-28 30-36 37-36 29z"/>
<path d="m2639 463-24-28 28 24c15 14 27 26 27 28 0 8-8 1-31-24z"/>
<path d="m655 460c10-11 20-20 23-20s-3 9-13 20-20 20-23 20 3-9 13-20z"/>
<path d="m729 406c13-16 51-41 51-33 0 2-15 14-32 27-21 15-28 17-19 6z"/>
<path d="m2559 403c-13-16-12-17 4-4s21 21 13 21c-2 0-10-8-17-17z"/>
<path d="m2469 343c-13-16-12-17 4-4s21 21 13 21c-2 0-10-8-17-17z"/>
<path d="m970 316c0-2 7-7 16-10 8-3 12-2 9 4-6 10-25 14-25 6z"/>
<path d="m2295 310c-3-5-2-10 4-10 5 0 13 5 16 10 3 6 2 10-4 10-5 0-13-4-16-10z"/>
<path d="m2250 290c-8-5-50-22-92-36-43-15-76-29-74-32 3-2 33 6 68 18 67 24 140 59 123 59-5 1-17-4-25-9z"/>
<path d="m2358 284c-38-20-36-28 2-9 17 9 30 18 30 20 0 7-1 6-32-11z"/>
<path d="m2245 230c-3-6 1-7 9-4 18 7 21 14 7 14-6 0-13-4-16-10z"/>
<path d="m2020 210c-20-6-21-8-5-8 11 0 29 3 40 8 25 11-1 11-35 0z"/>
<path d="m2190 210c-8-5-10-10-5-10 6 0 17 5 25 10s11 10 5 10c-5 0-17-5-25-10z"/>
<path d="m1880 185c-36-8-87-15-115-16-49-2-49-2-10-7 37-4 141 10 210 28 53 14-11 10-85-5z"/>
<path d="m2125 190c-13-6-15-9-5-9 8 0 22 4 30 9 18 12 2 12-25 0z"/>
<path d="m1168 183c7-3 16-2 19 1 4 3-2 6-13 5-11 0-14-3-6-6z"/>
<path d="m1210 170c8-5 20-10 25-10 6 0 3 5-5 10s-19 10-25 10c-5 0-3-5 5-10z"/>
<path d="m2070 170c-8-5-10-10-5-10 6 0 17 5 25 10s11 10 5 10c-5 0-17-5-25-10z"/>
<path d="m1268 153c6-2 18-2 25 0 6 3 1 5-13 5s-19-2-12-5z"/>
<path d="m2008 153c7-3 16-2 19 1 4 3-2 6-13 5-11 0-14-3-6-6z"/>
<path d="m1318 143c7-3 16-2 19 1 4 3-2 6-13 5-11 0-14-3-6-6z"/>
<path d="m1968 143c7-3 16-2 19 1 4 3-2 6-13 5-11 0-14-3-6-6z"/>
<path d="m1378 133c6-2 18-2 25 0 6 3 1 5-13 5s-19-2-12-5z"/>
<path d="m1898 133c6-2 18-2 25 0 6 3 1 5-13 5s-19-2-12-5z"/>
<path d="m1443 123c9-2 25-2 35 0 9 3 1 5-18 5s-27-2-17-5z"/>
<path d="m1823 123c9-2 23-2 30 0 6 3-1 5-18 5-16 0-22-2-12-5z"/>
<path d="m1578 113c34-2 88-2 120 0 31 2 3 3-63 3s-92-1-57-3z"/>
</g>
<g transform="translate(0 160) scale(.04 -.04)" fill="#d12723">
<path d="m131 3846c-13-16-11-1452 2-1473 11-18 606-18 612 0 2 6 5 342 7 744 2 603 1 734-10 738-8 3-145 5-307 5-237 0-295-3-304-14z"/>
<path d="m1107 3853c-10-9-9-1481 1-1487 5-3 125-6 268-7l259-2v749 749l-261 3c-143 1-263-1-267-5z"/>
<path d="m2083 3498c0-24-12-69-27-102-25-56-25-59-9-87 21-36 59-48 143-44 36 1 65 3 65 4 0 7 114 7 133 0 23-9 27-3 13 20-7 11-29 13-108 8-111-8-130-1-157 54-12 23-14 46-10 85 5 41 3 59-10 79-24 36-33 31-33-17z"/>
<path d="m133 2005c-3-9-3-138 0-288 6-269 13-338 49-447 8-25 21-65 28-90 18-59 118-266 136-281 8-6 14-17 15-23 2-55 318-396 366-396 11 0 13 138 11 768l-3 767-298 3c-261 2-298 0-304-13z"/>
<path d="m1107 2014c-4-4-7-400-7-879v-872l43-13c23-8 47-17 52-21 21-14 286-60 361-62l79-2v924 925l-260 3c-144 2-264 1-268-3z"/>
</g>
<g transform="translate(0 160) scale(.04 -.04)" fill="#0d5379">
<path d="m2657 3606c-26-26-41-33-63-30l-29 4 31-11c28-10 33-8 66 25 37 37 68 47 68 21 0-8-9-15-20-15-16 0-20-7-20-33 0-18-6-39-12-45-10-10-8-14 9-18 19-5 21-10 12-25-14-26-3-42 20-29 14 7 23 5 35-9 20-22 20-31 1-31-18 0-19-23-4-52 8-14 8-23 0-31-16-16-14-42 4-57 13-11 13-14-2-26-15-11-16-16-6-33 8-13 11-45 9-88-3-53-2-60 4-33 5 19 7 43 4 53-3 9-1 17 5 17 16 0 13 21-6 43-17 18-17 19 0 32 17 12 17 14 0 44-15 27-16 33-4 40 12 8 13 14 3 36-16 34-15 45 3 45 21 0 19 22-5 47-12 14-27 19-40 16-21-6-21-6-2 28 40 72 36 149-8 149-11 0-35-15-53-34zm63-50c0-19-5-38-11-41-15-10-17-4-11 38 5 47 22 49 22 3z"/>
<path d="m2455 3578c-20-16-47-23-100-27-68-6-105-21-105-44 0-6 16-7 41-3 31 5 40 3 37-6-3-7-20-15-39-18-23-3-38-13-46-30-16-31-13-62 7-67 13-4 13-3 1 5-11 8-12 18-5 44 8 28 15 34 47 39 44 7 52 13 43 34-4 12-14 15-43 10-36-6-37-5-19 9 13 11 40 16 81 16 49 0 68 5 95 25 33 24 70 33 70 17 0-4-10-12-22-17-17-8-23-18-22-42 1-17 4-39 7-47 8-21 57-21 57-1 0 21 8 19 47-15 32-29 53-32 53-8 0 5-23 32-52 59-41 39-49 51-39 62 9 12 7 16-11 21-38 10-54 7-83-16zm124-70c57-57 53-79-5-29-41 36-54 39-47 10 5-17 2-20-13-17-13 2-21 15-25 41-11 66 21 65 90-5z"/>
<path d="m1780 3505c0-8 7-15 15-15s15 7 15 15-7 15-15 15-15-7-15-15z"/>
<path d="m1937 3514c-8-8 1-24 14-24 5 0 9 7 9 15 0 15-12 20-23 9z"/>
<path d="m1813 3453c-4-9 1-29 10-45 23-40 21-48-11-48-59 0-70-49-17-74 19-9 35-20 35-23 0-4-12-19-27-35-26-27-26-28-8-48 11-12 31-20 50-20 34 0 55-15 55-40 0-27 67-185 79-185 5 0 16-6 22-12 7-7 19-13 26-13s10-7 7-15c-9-22-19-18-33 11-6 15-14 24-17 21-8-7 24-67 36-67 10 0 30 32 30 49 0 6-6 11-14 11-19 0-58 49-50 62 4 6 24 7 46 4 33-5 49-2 84 19 40 24 59 55 33 55-17 0-81 47-138 103-30 28-47 41-38 27 18-28 83-84 139-121 21-13 38-26 38-29 0-17-64-40-112-40-30 0-59-5-66-12-13-13-19 0-56 112l-21 65-42 3c-23 2-47 10-54 19-11 13-9 19 14 39 34 29 35 52 2 60-56 14-53 67 4 62 20-2 27 2 29 20 2 12-4 29-12 38-20 19-21 54-2 54 25 0 46-30 46-65 0-24 9-45 30-68 16-19 34-52 39-73l9-39 1 35c1 28-7 44-34 73-25 27-35 46-35 70 0 59-59 106-77 60z"/>
<path d="m1913 3462c-15-10-8-81 10-100 13-13 17-11 31 16 20 39 20 56-1 73-15 13-15 12-3-7 11-18 11-27 0-53-7-18-16-28-21-24-10 11-15 76-5 91 8 14 6 15-11 4z"/>
<path d="m3024 3410c-38-15-81-78-94-138-10-50-9-66 9-134 22-82 25-118 13-158-5-18-8-4-12 50-4 58-9 76-21 78-16 3-40-55-38-94 1-22 4-15 19 44 17 66 34 42 27-39-4-42-2-71 4-75 34-21 48 85 24 176-20 79-20 148 0 197 20 47 53 83 77 83 19 0 24-15 9-25-12-7-35-111-33-145 3-33 52-171 52-145 0 11-9 44-20 73-28 73-24 142 13 220 13 28 0 43-29 32z"/>
<path d="m2302 3391c-7-4 11-6 42-3 49 4 57 2 81-23 25-24 27-31 21-77-11-83-20-91-98-85-50 3-68 1-68-8 0-22 26-35 58-29 43 9 53-18 22-52l-23-24h22c13 0 19 4 16 10-4 6-1 17 5 25s9 23 5 35c-5 15-1 22 19 30 31 12 43 34 51 96 6 45 4 53-20 82-23 28-33 32-73 32-26 0-53-4-60-9zm18-201c12-8 11-10-7-10-13 0-23 5-23 10 0 13 11 13 30 0z"/>
<path d="m1720 3370c0-19 20-27 33-13 8 7-11 33-24 33-5 0-9-9-9-20z"/>
<path d="m1720 3217c0-16 20-37 35-37 5 0 2 5-7 11-22 12-24 33-2 25 8-3 12-2 9 4-9 15-35 12-35-3z"/>
<path d="m2397 3098c4-7 6-21 5-31-3-13 2-17 15-15 19 3 21-12 8-46-7-16-5-17 23-11 31 6 44-6 22-20-13-8-13-35 0-35 5 0 28 16 50 36l40 36v-31c0-33 14-42 24-15 4 9 13 14 21 10 8-3 15 0 15 5 0 7-11 9-25 7-19-4-25-1-25 13 0 29-18 23-56-18-32-34-62-41-34-8 19 23 5 49-19 35-29-15-32-13-19 16 10 22 10 28-3 38-8 6-18 19-22 29-3 9-11 17-17 17-7 0-8-5-3-12z"/>
<path d="m2236 3044c-22-8-47-20-55-27-26-22-88-48-121-50-42-3-39-27 3-27 48 0 51-8 17-47-17-18-30-39-30-44 0-18-61-89-76-89-16 0-19-16-4-25 20-12 102 8 143 36 56 38 67 37 67-8 0-22 9-48 23-67 13-17 26-38 30-46 4-12 6-12 6 2 1 9-11 30-25 47-20 24-25 39-22 73 3 53-16 60-61 22-29-24-105-54-139-54-9 0 2 17 27 45 22 24 41 52 41 61s14 29 31 45c35 32 33 59-3 59-17 1-13 4 15 14 21 8 55 25 75 39 33 23 99 47 128 47 7 0 11-8 10-17 0-10 9-22 21-28 16-7 21-15 17-28-4-14 2-21 24-29 17-7 33-20 35-30 6-22 32-23 70-3 24 12 29 12 34 0 7-19 33-19 61 0 19 14 24 14 46 0 30-20 46-13 46 20 0 13 4 26 9 30 15 9 35-35 42-95 4-30 11-69 17-86 9-29 8-31-14-26-21 4-24 1-25-29 0-31-1-32-9-11-5 12-13 22-19 22-16 0-41-48-34-67 6-16 5-16-10-4-10 8-16 25-14 44 1 23-3 32-15 35-10 2-18-1-18-7s6-10 13-9c7 2 11-6 10-20-3-27 24-72 43-72 10 0 13 7 8 24-7 28 3 66 17 66 5 0 9-11 9-24 0-42 19-39 26 4 6 39 17 50 29 30 3-5 10-10 16-10 14 0 10 53-6 74-8 11-15 40-15 65 0 50-32 115-53 108-7-2-13-18-15-35-4-36-9-38-39-17-18 13-24 13-53-1-29-15-32-15-43 0-11 16-15 16-45 0-40-19-66-12-57 16 6 17 2 20-29 20-38 0-45 10-21 30s18 30-14 24c-28-6-51 9-31 21 5 3 10 10 10 16 0 13-59 10-104-7z"/>
<path d="m3042 2975c-8-52-24-110-38-138-28-57-28-57-10-57 27 0 68 77 79 150 12 73 26 93 28 38 4-143-13-195-69-213-23-8-43-28-72-75-59-93-90-165-90-206 0-52 20-122 39-136 14-11 14-11 5 2-28 40-46 172-24 185 6 3 10 13 10 21s23 50 50 93c28 43 50 83 50 89 0 7 11 12 24 12 68 0 116 142 85 253-12 44-26 48-36 10-7-26-8-24-13 17-5 42-6 39-18-45zm9-105c-6-20-20-45-32-56l-21-19 13 30c7 17 16 34 21 40 4 5 8 19 8 31s3 31 7 41c13 32 16-26 4-67z"/>
<path d="m2761 3036c-1-16-4-17-13-8-13 13-28 16-28 5 0-10 52-34 58-28 3 3 0 15-6 27-10 21-11 21-11 4z"/>
<path d="m2652 3028c-7-7-11-23-11-37 1-21 2-22 6-6 9 37 23 42 43 15 10-14 21-23 23-20s-7 17-22 33c-21 22-29 25-39 15z"/>
<path d="m2874 2915c3-63 10-92 32-138 29-58 29-58 10-90-53-93-77-139-74-142 2-3 12 12 23 33 10 20 32 56 47 80 34 53 34 57 2 129-15 33-30 90-34 133l-9 75 3-80z"/>
<path d="m2408 2763c-9-10-23-51-32-92-26-114-38-121-31-18 6 82 6 87-13 87-16 0-21-9-27-47-8-53-25-93-49-112-14-12-15-9-11 20s3 30-4 9c-20-56-9-65 32-24 18 18 30 46 38 85 6 32 16 59 21 59 8 0 6-49-6-163 0-7 4-14 9-16 15-6 41 56 55 131 7 38 19 73 27 80 17 14 31 2 15-14-14-14-15-93-2-123 5-12 6 6 3 46-4 44-2 69 6 73 15 10 14 36-2 36-8 0-21-8-29-17z"/>
<path d="m2126 2738c-3-7-9-28-15-47s-9-36-7-39c3-2 10 14 17 37s15 41 18 40c17-1 54-65 61-107s8-43 9-12c0 19-5 44-12 55-53 89-63 99-71 73z"/>
<path d="m2456 2722c-4-11-2-32 4-47 12-31 4-89-11-79-5 3-9 0-9-6 0-21 25-4 34 23 7 19 6 38-3 63-9 26-10 39-2 47s11 7 11-5c0-9 14-42 30-73 17-31 30-64 30-73 0-13 3-13 12-4s10 15 2 20c-6 4-15 18-19 32s-14 32-22 41-15 30-16 45c-3 34-32 45-41 16z"/>
<path d="m2568 2700c-4-14-7-43-7-65l1-40 9 34c6 18 9 47 7 65-3 30-3 30-10 6z"/>
<path d="m2066 2595c-13-25-21-43-15-40 10 7 52 85 45 85-2 0-16-20-30-45z"/>
<path d="m2585 2590c-7-40-43-80-72-80-11 0-13 10-7 45 7 53-3 57-34 15-13-16-31-30-42-30-16 0-18 5-13 35 7 44-7 45-32 3-10-18-47-64-82-101-36-38-62-75-59-82 3-8 8-31 11-52 11-64 46-122 132-217 46-50 98-119 115-153 18-34 34-61 36-59 9 9-61 127-98 167-63 67-145 171-158 202-7 15-15 51-18 80l-6 53 61 64c33 35 63 72 67 82 3 10 10 18 16 18 5 0 7-7 4-16-8-22 11-44 32-37 9 3 27 17 40 32l23 26-7-42c-6-41-5-43 18-43 31 0 74 45 83 88 8 37 15 40 40 12 10-11 24-20 32-20 16 0 18-79 3-130-31-101 0-268 73-404 19-33 41-74 50-91 9-16 19-42 22-57 6-32 49-49 68-28 10 10 8 12-6 7-26-10-57 10-57 36 0 12-6 31-14 42-34 51-88 160-106 216-35 110-39 158-19 271 24 137 24 135-15 152-18 8-37 19-40 25-15 24-34 10-41-29z"/>
<path d="m2186 2548c-9-36-8-38 22-38 15 0 39 11 53 24l27 25-2-29c-1-16-12-41-26-56-44-47-128-104-167-112-33-7-38-12-39-38-2-61-3-61-56-39-14 6-17 0-20-36-3-49-23-62-37-26-14 37-30 42-56 17-16-15-31-21-45-17-17 4-19 3-10-8s17-11 36-3c13 6 24 15 24 20 0 4 9 8 20 8 13 0 20-7 20-20 0-29 27-36 51-14 15 14 18 25 13 48-5 25-4 29 7 19 7-7 21-13 30-13 23 0 50 43 38 61-14 22-11 26 26 32 39 6 100 46 163 106 34 32 42 47 42 76 0 42-8 44-40 10-13-14-34-25-47-25-20 0-22 4-17 25 3 14 4 25 1 25-2 0-7-10-11-22z"/>
<path d="m1993 2493c-48-58-66-89-30-51 32 34 81 98 75 98-3 0-23-21-45-47z"/>
<path d="m2824 2518c-13-20-8-138 6-151 10-9 11-8 7 8-15 54-16 83-7 114 10 37 7 51-6 29z"/>
<path d="m1899 2381c-15-14-38-37-53-50-14-13-26-31-25-40 0-13 1-13 6-1 3 8 30 38 61 67 32 29 53 52 47 51-5 0-22-12-36-27z"/>
<path d="m2840 2345c0-3 12-24 27-48 112-177 118-189 117-253 0-30 3-48 8-41 23 36-9 146-66 222-12 16-34 51-49 78-25 43-37 56-37 42z"/>
<path d="m1776 2324c-10-25-7-34 9-34 8 0 15 5 15 11 0 5-5 7-11 3-7-4-10-1-7 7s11 13 17 12c6-2 11 2 11 7 0 16-27 11-34-6z"/>
<path d="m2920 2312c0-5 13-27 28-48 117-162 132-271 51-359-22-24-64-55-94-70-30-14-57-31-61-36-10-16 110 47 145 77 49 41 71 93 70 166 0 44-6 72-19 93-11 17-29 49-40 72-12 22-30 49-41 59-10 9-19 23-19 30s-4 16-10 19c-5 3-10 2-10-3z"/>
<path d="m1727 2284c-15-15-7-45 11-42 9 2 17 12 17 22 0 20-16 31-28 20zm23-24c0-5-4-10-10-10-5 0-10 5-10 10 0 6 5 10 10 10 6 0 10-4 10-10z"/>
<path d="m1811 2254c0-11 3-14 6-6 3 7 2 16-1 19-3 4-6-2-5-13z"/>
<path d="m2060 2241c0-12 6-21 16-21 9 0 14 7 12 17-5 25-28 28-28 4z"/>
<path d="m1802 2173c4-21 33-25 33-3 0 8-8 16-18 18-14 3-18-1-15-15z"/>
<path d="m1953 2173c-20-7-15-23 5-17 14 5 14 3-3-12-18-15-18-16-2-10 10 3 21 6 23 6s4 9 4 20c0 20-5 23-27 13z"/>
<path d="m2350 2066c-19-13-91-61-160-106-149-98-218-163-260-242-34-62-47-69-75-38-10 11-22 20-27 20-14 0-9-37 7-50 22-18 19-25-18-38-30-11-67-55-67-81 0-22 57-11 84 16 37 37 41 24 10-31-16-28-23-53-19-64 6-16 8-15 21 3 9 11 20 29 25 40 10 20 10 20-5 1-9-11-18-17-21-14-8 7 16 58 27 58 4 0 8 9 8 20 0 27-16 25-52-5-30-26-68-33-68-14 0 18 58 69 79 69 30 0 33 15 8 46l-22 29 25-18c41-28 56-22 83 36 13 29 39 70 57 91 35 40 229 182 315 231 28 16 57 34 66 42 13 11 18 11 26 1 20-26 45-149 39-187-7-43 9-65 57-76 41-11 32-25-15-25-94 0-205-52-248-115-42-61-39-95 10-154 54-64 52-84-15-166-30-36-55-73-55-80 0-20-58-127-77-140-12-9-13-16-4-33 6-11 11-32 11-45 0-30-36-43-60-22-28 25-40 18-40-26 0-38-2-40-27-37-19 2-29 10-31 23-7 37-22 41-45 11-20-25-26-27-45-17-12 6-22 16-22 21 0 25 27 61 66 89 37 27 44 39 54 85 6 31 25 74 45 102 44 62 44 88 1 128-44 42-56 67-56 115 0 47-16 54-46 19-19-23-19-23 2-5 30 25 34 22 34-29 0-40 5-51 45-92 25-25 45-54 45-64s-16-43-36-73-40-76-45-101c-6-31-17-52-31-62-46-31-89-84-86-105 2-12 16-28 31-37 27-14 30-14 44 8 19 27 33 29 33 3 0-32 62-44 78-15 5 9 7 25 5 35-6 22 0 24 26 7 30-19 71 4 71 39 0 16-4 34-9 42-6 10-2 24 14 45 28 38 65 111 65 129 0 7 22 39 50 71 27 33 54 72 59 88 9 26 6 34-34 83-52 63-56 91-21 149 34 55 107 93 208 108 91 14 109 33 50 52-42 14-55 36-43 69 11 28-25 167-50 192-13 13-18 12-49-9z"/>
<path d="m2460 1976c0-8 5-18 11-22 7-4 9-24 6-55-6-51 9-77 39-65 12 5 14 14 9 38-4 18-12 38-18 43-7 7-8 4-3-8 17-51 18-67 3-67-25 0-29 16-16 62 8 31 8 43 0 46-6 2-11 12-11 23 0 10-4 19-10 19-5 0-10-6-10-14z"/>
<path d="m2936 1928c-24-32-30-44-15-31 22 20 65 83 57 83-2 0-21-24-42-52z"/>
<path d="m2547 1840c5-60 3-70-31-133-48-91-46-100 4-12 32 56 39 80 39 120 0 28-4 59-9 70-5 12-6-5-3-45z"/>
<path d="m761 1834c0-11 3-14 6-6 3 7 2 16-1 19-3 4-6-2-5-13z"/>
<path d="m2831 1765c0-12-17-45-36-75-31-48-35-62-35-118 0-73 29-145 86-213 36-44 44-86 21-126-15-26-69-86-94-104-40-29-63-74-69-137-4-37-14-73-25-85-17-22-17-22-38-3-23 21-34 16-55-26-15-31-46-37-46-8 0 31-27 36-55 10-24-23-55-22-55 2 0 6 10 22 22 35 16 17 19 26 10 35-8 8-18 7-37-6-15-10-30-15-33-11-12 11 15 40 44 46 24 6 25 7 6 8-33 2-62-16-62-39 0-28 16-33 45-14 22 14 25 14 25 1 0-8-7-17-15-21-8-3-15-16-15-30 0-35 35-44 64-17s34 26 46-4c13-35 45-32 62 5 14 32 27 37 45 19 17-17 51-1 68 33 8 17 15 55 15 85 0 53 1 54 70 123 63 63 110 131 110 161 0 6-21 39-46 73-66 86-78 118-78 208 0 72 3 81 33 123 21 29 31 53 28 68-4 20-4 20-6 2z"/>
<path d="m761 1754c0-11 3-14 6-6 3 7 2 16-1 19-3 4-6-2-5-13z"/>
<path d="m2466 1605c-3-9-6-32-6-50 0-22-8-41-25-56-44-42-31-58 27-34 11 4 18 1 21-12 4-14 5-12 6 6 1 24-5 25-54 6-18-7-17-5 4 18 15 16 27 46 32 79 9 53 6 72-5 43z"/>
<path d="m2464 1406c-3-14-26-44-50-65-46-40-55-61-28-61 25 0 94 42 94 57 0 7 7 13 15 13 12 0 13-5 4-26-5-15-7-29-5-31 9-9 26 8 26 26 0 20 33 54 43 44 4-3 7-17 7-30 0-30 15-60 48-96l26-27-32-64c-18-35-32-69-32-74 0-9-36-42-92-85-15-11-10-10 14 4 41 22 98 82 98 102 0 7 12 34 26 61 21 40 24 53 15 72-6 13-15 24-21 24-15 0-40 56-40 90 0 33-23 51-43 31-6-6-21-11-33-11s-29-11-37-24c-15-22-77-53-77-38 0 4 16 23 36 42 35 34 60 78 50 88-3 2-8-7-12-22z"/>
<path d="m1770 1025c-13-14-20-31-17-39 7-17 37-22 37-6 0 5-7 7-16 3-26-10-13 30 14 43 13 6 20 14 14 18-5 3-19-5-32-19z"/>
<path d="m2089 972c9-7 10-11 2-15-7-4-8-5 0-3 15 2 13 20-3 24-10 3-10 2 1-6z"/>
<path d="m1731 951c-15-10-8-41 9-41 15 0 25 29 14 40-5 5-15 5-23 1z"/>
<path d="m2332 948c-14-14-16-38-4-38s32 23 32 37c0 16-12 17-28 1zm18-12c0-3-4-8-10-11-5-3-10-1-10 4 0 6 5 11 10 11 6 0 10-2 10-4z"/>
<path d="m1814 936c-8-22-1-49 14-52 7-1 8 0 2 3-13 6-13 53 0 53 6 0 10-10 10-22 0-18 2-20 10-8 5 9 5 19-2 27-14 17-27 16-34-1z"/>
<path d="m1947 924c-14-14-7-35 11-32 9 2 17 10 17 17 0 16-18 25-28 15z"/>
<path d="m2395 819c-4-11-5-23-2-26 9-9 47 17 47 32 0 23-38 18-45-6zm30 1c-3-5-11-10-16-10-6 0-7 5-4 10 3 6 11 10 16 10 6 0 7-4 4-10z"/>
</g>
<g transform="translate(0 160) scale(.04 -.04)" fill="#221611">
<path d="m80 2744c0-1213 2-1270 45-1439 26-99 26-101 62-195 179-472 629-855 1128-959 262-55 575-39 820 41 533 174 923 600 1052 1150 25 106 27 132 32 433 3 176 5 726 3 1223l-2 902h-1570-1570v-1156zm662 1111c11-4 12-135 10-738-2-402-5-738-7-744-3-10-64-13-256-12-138 0-254-3-257-6s116-4 264-3l269 3 2 300c2 165 3 504 3 753v453l310-6 1-753c1-414 5-754 8-755s96 0 206 3l200 5-390 10v745 745h265 265l2-759c1-430 6-763 11-768 6-6 9 54 10 144 0 84 1 431 2 771l1 617h760 759v-1156c0-1108-3-1231-30-1334-5-19-16-64-26-100-76-297-280-596-540-795-174-133-395-237-591-279-152-32-191-37-263-34l-75 3v942c0 674-3 939-11 932-6-5-134-10-285-11l-274-3-5-875c-5-858-5-875-24-872-26 5-196 94-251 132l-45 31-2 797-3 797-300 1c-165 1-308 2-317 3-16 1-18 15-18 151 0 128 2 152 16 157 12 4 13 8 3 14-18 11-26 1464-8 1485 9 11 67 14 304 14 162 0 299-2 307-5zm-4-2600c1-418 0-766-3-773-15-40-273 225-372 382-44 71-137 262-153 316-7 25-20 65-28 90-36 109-43 178-49 447-3 150-3 279 0 288 6 13 43 15 304 13l298-3 3-760zm897-165v-925l-87 3c-99 2-304 42-390 75l-58 22v871c0 479 3 874 7 877 3 4 124 6 267 4l261-2v-925z"/>
<path d="m2657 3629c-31-26-44-30-70-25-102 20-117 19-141-3-28-26-76-41-133-41-48 0-83-26-83-60 0-11-6-40-12-66l-13-46 70-56-20-23c-11-12-15-19-9-16 7 4 42 8 79 9 48 1 69-2 76-13 14-23 10-29-13-20-18 6-110 8-137 2-2-1 2-8 9-17 11-12 10-18-3-31-24-25-2-61 45-73 41-12 49-25 19-35-10-3-31-17-47-30-17-15-41-25-60-25-71 0-218 110-241 180l-11 35-1-31c-1-25 9-41 52-82 55-55 119-102 136-102 26 0 7-31-33-55-35-21-51-24-84-19-22 3-42 2-46-4-8-13 31-62 50-62 17 0 18-14 4-41-16-29-27-23-52 24-33 61-88 198-88 217 0 25-21 40-55 40-19 0-39 8-50 20-18 20-18 21 8 48 15 16 27 31 27 35 0 3-16 14-35 23-53 25-42 74 17 74 32 0 34 8 11 48-19 34-12 62 16 62 27 0 51-37 51-77 0-24 10-43 36-70 36-38 36-38 30-10-5 20-1 38 13 61 15 24 19 43 15 72-9 60-13 71-23 55-5-7-14-10-20-6-8 5-9 11-2 19 12 14-4 36-27 36-10 0-12-8-7-30 10-44-13-47-73-10-43 28-53 30-73 20l-22-12 21-17c12-9 24-29 26-46 3-16 8-40 11-52 6-19 3-23-12-23-11 0-28 9-38 20-26 28-35 25-35-13 0-32 42-107 60-107 6 0 10-9 10-20 0-21-33-29-45-10-11 17-35 11-35-10 0-53 31-81 110-95 63-12 67-15 80-63 8-26 26-75 42-110 15-34 28-65 28-68 0-4 11-19 25-36 14-16 25-36 25-43 0-15-60-65-78-65-17 0-15-15 3-30 11-9 36-11 84-7 38 3 71 3 74 1 11-12-48-133-98-198-104-138-133-166-173-166-53 0-112-55-112-104 0-35 20-50 35-26 3 6 15 10 27 10 17 0 20-5 15-32-5-37 18-91 36-85 20 6 20 35 0 33-9 0-19 7-21 17-4 19 22 24 33 6 5-7 16-3 31 12 35 33 58 19 51-31-5-37-3-40 18-40 13 0 27 4 30 10s-1 7-9 4c-11-4-16 0-16 14 0 11 7 23 16 26 22 9 24 8 24-10 0-8 5-12 10-9 6 3 10 18 10 33 0 41 15 59 37 46 10-6 19-17 19-25 1-8 2-18 3-23 0-5 10-1 21 9 22 20 27 70 9 95-8 13-12 12-26-7-17-26-42-30-62-10-11 10-12 6-7-19 5-23 2-34-13-48-24-22-51-15-51 14 0 13-7 20-20 20-11 0-20-4-20-8 0-5-11-14-25-20-22-10-27-9-40 12-20 30-10 80 23 109 119 105 237 266 265 364 8 26 18 48 23 50s18-12 29-29c11-18 26-41 33-53 13-20 11-91-3-127-11-28 37-23 65 7 32 34 40 32 40-10 0-29-8-44-42-76-63-60-124-100-164-106-25-4-34-10-30-20 4-8 6-16 6-19 0-2 16 8 36 21 20 14 41 25 47 25s21 10 33 21c29 27 54 19 54-17 0-55 25-111 77-172 29-35 53-69 53-76 0-16-24-37-70-62-19-10-37-21-40-24s-54-39-115-79c-135-91-217-172-245-245-13-34-27-33-48 4-9 16-20 30-23 30-12 0-31-60-25-77 5-11-5-28-29-53-23-24-40-53-46-80-10-46-6-61 13-42 29 29 68 8 68-37 0-9 6-26 14-37 14-19 15-19 21 1 14 42 40 85 49 82 6-2 18-19 29-38 10-19 32-46 48-60 32-29 38-69 14-89-18-15-38-57-61-127-17-55-32-69-128-117-29-15-48-34-63-66-26-51-29-78-9-105 13-18 14-18 25 3 10 18 9 21-4 16-20-8-33 25-14 37 9 5 18 4 24-4 6-7 18-11 28-9 13 3 17-3 17-30 0-32 14-58 32-58 14 0 8 28-7 34-17 6-20 51-5 61 6 4 18 1 26-6 11-9 18-9 26-1 7 7 20 12 30 12 14 0 18-8 18-40 0-43 12-50 46-25 18 14 18 14-3 8-17-4-23-1-23 10 0 22 18 31 34 17 11-8 19-3 36 25 27 44 50 46 50 5 0-22 5-30 18-30 25 0 42 41 41 98-1 26-4 37-6 24-6-31-48-50-74-34-26 17-32 15-26-7 2-10 0-26-5-35-16-29-78-17-78 15 0 26-14 24-33-4-14-21-17-21-44-7-15 9-29 25-31 37-3 21 40 74 86 105 14 10 25 31 31 62 5 25 25 71 45 101s36 63 36 73-20 39-45 64c-40 42-45 52-45 93 0 59-14 56-59-14-25-37-37-49-45-41s-3 25 16 62c32 60 29 72-8 35-27-27-84-38-84-16 0 26 37 70 67 81 37 13 40 20 18 38-16 13-21 50-7 50 5 0 17-9 27-20 28-31 41-24 75 38 42 79 111 144 260 242 69 45 141 93 160 106 31 21 36 22 49 9 25-25 61-164 50-192-12-33 1-55 43-69 43-14 43-37-2-45-19-4-25-7-14-8 26-1 53-29 37-39-20-13-51-80-65-138-9-41-23-68-45-90-32-32-29-54 7-54 9 0 21-5 28-12 15-15-11-59-47-81-33-19-59-63-45-77 5-5 24-5 49 1 65 16 69 15 85-18 18-39 26-41 34-10 10 39 7 57-9 51-18-7-18-4-5 30 7 21 6 26-5 26-8 0-15-6-15-13 0-15-69-57-94-57-27 0-18 21 24 58 56 47 96 145 53 127-59-24-72-8-28 34 18 16 25 34 25 59 0 22 18 71 46 129 44 89 46 97 40 154-8 84-59 176-159 285-86 95-121 153-132 217-3 21-8 44-11 52-3 7 23 44 59 82 35 37 72 83 82 101 25 42 39 41 32-3-5-30-3-35 13-35 11 0 29 13 42 30 31 42 41 38 34-15-6-35-4-45 7-45 29 0 65 40 72 80 8 45 15 48 53 21 31-23 48-26 80-16 23 8 30 29 12 40-13 8-13 65-1 65 6 0 13-5 16-10 13-20 25 2 24 43-1 23-4 32-6 20-5-24-18-30-28-13-12 20-23 9-29-30-7-43-26-46-26-4 0 13-4 24-10 24-13 0-23-44-15-69 4-15 2-21-8-21-19 0-48 44-44 67 1 10-2 19-8 21-5 1-13-23-17-55-3-32-12-71-18-88l-12-30-17 46c-10 26-26 57-35 70s-16 32-16 43c0 15-3 17-11 9s-7-21 2-47c14-37 5-86-17-93-26-9-46 141-22 165 16 16 2 28-15 14-8-7-20-42-27-80-14-75-40-138-55-134-5 2-9 9-9 17 1 7 5 47 9 89 8 92-7 103-24 17-8-39-20-67-38-85-14-14-29-26-33-26-3 0-6 21-6 48 1 37-5 55-26 83-19 24-28 48-28 72 0 45-11 46-67 8-41-28-123-48-143-36-15 9-12 25 4 25 15 0 76 71 76 89 0 5 13 26 30 44 34 39 31 47-17 47-42 0-44 24-2 27 17 1 52 14 77 27 88 47 117 59 160 64 40 4 57-8 32-23-20-12 3-27 31-21 32 6 38-4 14-24s-17-30 21-30c31 0 35-3 29-20-9-28 17-35 57-16 30 16 34 16 45 0 11-15 14-15 43 0 29 14 35 14 53 1 30-21 35-19 39 17 2 17 8 33 15 35 21 7 53-58 53-108 0-25 6-53 13-62 10-14 11 0 9 79l-4 96 31-7c35-7 36-6 19 30-10 22-9 28 3 35 20 13 20 97 0 138-13 27-14 34-2 41 11 7 10 14-5 40-16 27-17 33-4 41 12 7 12 12 0 35-10 19-11 28-2 37 20 20 13 52-19 91-28 34-30 41-20 63 14 31 14 62 0 103s-43 41-92 0zm83-9c13-25 3-83-22-129-19-34-19-34 2-28 13 3 28-2 40-16 24-25 26-47 5-47-18 0-19-11-3-45 10-22 9-28-3-36-12-7-11-13 4-40 17-30 17-32 0-44-17-13-17-14 0-32 18-21 23-43 9-43-10 0-8-106 3-137 7-23-8-33-20-13-11 18-35 11-35-10 0-26-14-25-32 2-16 23-38 18-38-10 0-9-5-24-10-32-8-13-11-12-25 5-14 19-16 19-29 3-19-26-26-22-26 13v31l-40-36c-22-20-45-36-50-36-13 0-13 27 0 35 22 14 9 26-22 20-28-6-30-5-23 11 13 34 11 49-8 46-14-2-18 2-15 20 3 21 0 23-32 20l-35-4 24 26c32 34 22 61-21 52-32-6-58 7-58 29 0 9 18 11 68 8 78-6 87 2 98 85 6 46 4 53-19 76-28 28-82 35-129 17-30-11-68 3-68 26 0 38 25 68 59 73 19 3 36 11 39 18 3 9-6 11-37 6-25-4-41-3-41 3 0 23 36 38 104 44 53 4 80 11 104 29 31 23 32 23 98 7l66-16 34 35c39 39 68 43 84 14zm-930-115c0-8-7-15-15-15s-15 7-15 15 7 15 15 15 15-7 15-15zm157-72c3-8-2-31-11-50-15-32-19-34-32-21-19 18-27 90-11 100 14 8 46-8 54-29zm-218-56c12-15 5-27-16-27-7 0-13 9-13 20 0 23 13 26 29 7zm671-32c15-18 5-35-20-35-10 0-22 5-25 10-7 11 12 40 25 40 4 0 13-7 20-15zm-80-15c0-5-4-10-10-10-5 0-10 5-10 10 0 6 5 10 10 10 6 0 10-4 10-10zm60-101c0-5-7-9-15-9-15 0-20 12-9 23 8 8 24-1 24-14zm-642-27c4-24-7-29-26-10-18 18-15 40 6 36 9-2 18-13 20-26zm48-878c-3-9-6-20-6-25s-7-9-15-9-15 4-15 9c0 21 13 41 27 41 10 0 13-6 9-16zm-51-60c0-10-8-20-17-22-18-3-26 27-11 42 12 11 28 0 28-20zm333-27c2-10-3-17-12-17-10 0-16 9-16 21 0 24 23 21 28-4zm392-267c0-11 3-20 8-20 8 0 28-43 38-82 4-21 2-29-10-34-30-12-45 13-39 65 3 31 1 51-6 55-14 9-15 36-1 36 6 0 10-9 10-20zm-683-965c-11-36-33-46-44-19-6 16 34 67 48 59 4-3 2-21-4-40zm305-40c0-5-5-11-11-13s-11 4-11 13 5 15 11 13 11-8 11-13z"/>
<path d="m2698 3553c-6-42-4-48 11-38 13 8 15 75 2 75-5 0-11-17-13-37z"/>
<path d="m2488 3555c-3-3-2-22 1-42 4-26 12-39 25-41 15-3 18 0 13 17-7 29 6 26 47-10 58-50 62-28 5 29-46 46-76 62-91 47z"/>
<path d="m2067 3573c-9-9 4-33 18-33 7 0 23-12 34-27l21-28-16 36c-16 35-47 63-57 52z"/>
<path d="m2065 3473c-3-21-16-57-27-80-12-24-19-46-15-49 8-8 51 86 62 134 4 19 3 32-3 32-5 0-13-17-17-37z"/>
<path d="m2994 3410c-50-36-87-123-89-215 0-33-6-69-12-80-18-32-43-138-43-183 0-23 14-78 30-124 17-45 30-87 30-93s-16-35-35-64c-20-30-47-88-61-131-23-70-24-79-11-111l14-34v65c-1 66 12 97 99 247 18 31 18 31-11 94-26 54-30 73-30 148 0 102 20 183 44 179 12-3 17-20 21-78 4-54 7-68 12-50 12 40 9 76-13 158-18 68-19 84-8 134 13 62 62 131 99 141 25 6 39-18 21-36-6-6-11-18-11-26 1-9 10 1 20 21 11 20 24 40 30 43 20 13 9 25-22 25-20-1-50-13-74-30z"/>
<path d="m2120 3396c0-14 5-28 10-31 6-4 10 7 10 24s-4 31-10 31c-5 0-10-11-10-24z"/>
<path d="m2140 3343c0-12 38-48 45-41 3 2-6 15-20 28s-25 19-25 13z"/>
<path d="m2020 3317c0-8 12-24 26-38 21-20 38-24 101-27 58-3 74-1 68 8-5 8-21 10-48 6-51-9-100 8-117 39-14 27-30 33-30 12z"/>
<path d="m3026 3298c-11-42-6-87 14-140 12-32 20-79 21-118 0-56 2-61 11-37 10 29 23 35 31 15 4-10 6-9 6 1 1 8-15 48-35 89-30 63-37 88-38 144 0 37-2 68-2 68-1 0-4-10-8-22z"/>
<path d="m3111 2984c0-11 3-14 6-6 3 7 2 16-1 19-3 4-6-2-5-13z"/>
<path d="m3047 2937c-4-10-7-29-7-41s-4-26-8-31c-5-6-14-23-21-40l-13-30 21 19c25 22 44 81 39 116-3 22-4 23-11 7z"/>
<path d="m3111 2844c0-11 3-14 6-6 3 7 2 16-1 19-3 4-6-2-5-13z"/>
<path d="m3101 2813c-2-24-53-73-77-73-13 0-24-5-24-12 0-6-23-47-51-90s-48-84-46-91 14 9 25 35c12 26 26 50 32 53 5 3 17 22 26 41 10 22 31 43 55 55 42 21 74 61 66 81-4 9-6 9-6 1z"/>
<path d="m2679 2436c-17-108-13-159 21-265 18-56 72-165 106-216 8-11 14-30 14-42 0-29 31-46 63-34 13 5 42 33 63 62 34 47 39 59 38 109 0 52-27 118-69 170-15 20-68 110-78 134-4 10-10 17-13 14-8-8 17-57 69-137 27-40 57-98 67-127 19-53 19-55-2-101-24-56-74-113-99-113-11 0-22 13-30 38-6 20-19 48-29 62-9 14-24 43-34 65s-27 59-38 83c-43 92-57 199-37 291 6 27 9 63 7 78s-10-16-19-71z"/>
<path d="m2887 2523c-21-20 2-146 35-195 10-14 18-30 18-35 0-6 9-18 19-27 11-10 29-37 41-59 41-81 52-98 57-94 4 5-37 83-84 162-56 94-75 143-76 198 0 31-1 57-2 57s-5-3-8-7z"/>
<path d="m168 2353c7-3 16-2 19 1 4 3-2 6-13 5-11 0-14-3-6-6z"/>
<path d="m1543 2353c15-2 39-2 55 0 15 2 2 4-28 4s-43-2-27-4z"/>
<path d="m1651 2214c0-11 3-14 6-6 3 7 2 16-1 19-3 4-6-2-5-13z"/>
<path d="m3063 2030c0-30 2-43 4-27 2 15 2 39 0 55-2 15-4 2-4-28z"/>
<path d="m3040 1940c-16-40-67-83-140-120-50-25-60-35-60-56 0-14-14-46-32-70-17-24-29-46-26-49 7-7 78 102 78 120 0 9 21 28 46 43 63 37 122 90 140 125 9 16 13 31 11 33-2 3-10-9-17-26z"/>
<path d="m2363 1749c-18-5-35-14-38-19-8-14 12-13 38 2 12 6 38 15 57 19 34 6 34 7 5 7-16 0-44-4-62-9z"/>
<path d="m2279 1705c-15-8-30-22-33-32-5-13 0-11 21 7 15 14 32 28 38 32 14 12 3 9-26-7z"/>
<path d="m2221 1632c-21-39-12-71 34-128 25-30 45-48 45-40s-15 30-34 48c-40 39-53 77-36 108 6 12 9 24 7 27-3 2-10-4-16-15z"/>
<path d="m2773 1565c0-22 2-30 4-17 2 12 2 30 0 40-3 9-5-1-4-23z"/>
<path d="m2780 1499c0-32 106-196 119-184 2 3-11 24-29 47-18 22-46 66-62 96-15 31-28 49-28 41z"/>
<path d="m2287 1418c-4-13-29-50-57-83-27-32-50-66-50-75 1-11 4-10 12 5 6 11 31 43 54 72 41 50 61 89 51 99-2 3-7-5-10-18z"/>
<path d="m2536 1351c-21-24-20-38 4-46 11-3 20-10 20-15s14-25 31-44l30-35-40-83c-48-99-82-127-155-126-60 1-119-42-124-91-4-34 8-40 28-15 8 8 25 14 39 12 37-4 41-49 7-76-31-24-34-42-7-42 12 0 21 9 25 25 4 17 13 25 27 25 16 0 20-5 16-20-7-27 5-25 32 6 17 20 26 23 34 15 9-9 8-19-5-41-9-16-14-31-11-34 9-9 60 22 82 50 20 26 41 25 41-2 0-39 66 14 91 74 11 25 17 47 15 50-3 3-10-7-15-21-11-29-47-45-64-28-18 18-31 13-45-19-17-37-49-40-62-5-12 30-17 31-46 4s-64-18-64 17c0 14 7 27 15 30 8 4 15 13 15 21 0 13-3 13-25-1-29-19-45-14-45 14 0 25 35 43 68 37 14-3 37 2 51 11 35 21 81 64 81 75 0 5 14 38 32 73l32 64-26 27c-33 36-48 66-48 97 0 33-13 40-34 17zm-176-404c0-14-20-37-32-37s-10 24 4 38c16 16 28 15 28-1z"/>
<path d="m2880 1241c-7-19-46-67-87-107-73-74-73-75-72-127l1-52 10 40c5 22 11 49 13 60s16 31 31 45c94 90 130 138 122 162-2 6-10-3-18-21z"/>
<path d="m2161 1211c-8-17-26-49-41-69-14-20-25-43-22-50 2-8 11-1 21 17 9 16 26 48 39 71s22 46 20 52c-3 7-10-3-17-21z"/>
</g>
</g>
</svg>
