<?xml version="1.0" encoding="UTF-8"?>
<svg width="642" height="768" version="1.1" viewBox="-1.8767 -1.8767 66.309 79.316" xmlns="http://www.w3.org/2000/svg" xmlns:cc="http://creativecommons.org/ns#" xmlns:dc="http://purl.org/dc/elements/1.1/" xmlns:rdf="http://www.w3.org/1999/02/22-rdf-syntax-ns#">
<metadata>
<rdf:RDF>
<cc:Work rdf:about="">
<dc:format>image/svg+xml</dc:format>
<dc:type rdf:resource="http://purl.org/dc/dcmitype/StillImage"/>
</cc:Work>
</rdf:RDF>
</metadata>
<defs>
<clipPath id="a">
<path d="m12.038 704.34h50.22v60.45h-50.22v-60.45z"/>
</clipPath>
</defs>
<g transform="matrix(1.25 0 0 -1.25 -15.124 955.98)">
<g clip-path="url(#a)">
<g transform="translate(12.517 724.89)">
<path d="m 0,0 0.052,39.503 49.157,0 L 49.157,0.731 C 48.948,-27.031 0,-27.135 0,0" fill="#fff"/>
<path d="m 0,0 0.052,39.503 49.157,0 L 49.157,0.731 C 48.948,-27.031 0,-27.135 0,0 Z" fill="none" stroke="#231f20" stroke-width=".835"/>
</g>
<g transform="translate(36.916 706.66)">
<path d="m0 0c-1.046 1.511-2.79 3.72-4.069 3.72-0.232 0.698 0.116 1.046 0.698 1.744 0.581 0.697 0.813 6.277-1.279 8.602 0.93 0 1.744-0.465 2.79-1.627 0 2.906-1.395 9.997-4.65 12.555 0.93-0.116 2.557-0.465 3.255-0.814l0.116 1.744c-0.349 0.465-2.209 1.162-3.139 2.441l-5.231-2.79 1.86 4.999c-3.72 2.209-6.742 7.091-2.092 12.439l-4.069 5.463 5.696-2.092c1.046 2.209 4.302 5.812 8.254 4.185l2.092 5.464 1.512-4.534c2.557 0.349 6.277-0.349 8.719-5.348l6.045 1.279-4.302-4.65c1.628-2.557 3.837-9.184-2.441-12.206l2.325-5.348-5.347 3.139c-0.349-0.697-2.791-1.976-3.953-2.325 0 0-0.349-4.766 0.465-7.556 0 0 2.441 1.744 3.023 2.325 0.116-0.93-2.326-4.883-2.209-7.905 0.116-3.023-0.117-8.835-4.069-12.904" fill="#37a83f"/>
<path d="m0 0c-1.046 1.511-2.79 3.72-4.069 3.72-0.232 0.698 0.116 1.046 0.698 1.744 0.581 0.697 0.813 6.277-1.279 8.602 0.93 0 1.744-0.465 2.79-1.627 0 2.906-1.395 9.997-4.65 12.555 0.93-0.116 2.557-0.465 3.255-0.814l0.116 1.744c-0.349 0.465-2.209 1.162-3.139 2.441l-5.231-2.79 1.86 4.999c-3.72 2.209-6.742 7.091-2.092 12.439l-4.069 5.463 5.696-2.092c1.046 2.209 4.302 5.812 8.254 4.185l2.092 5.464 1.512-4.534c2.557 0.349 6.277-0.349 8.719-5.348l6.045 1.279-4.302-4.65c1.628-2.557 3.837-9.184-2.441-12.206l2.325-5.348-5.347 3.139c-0.349-0.697-2.791-1.976-3.953-2.325 0 0-0.349-4.766 0.465-7.556 0 0 2.441 1.744 3.023 2.325 0.116-0.93-2.326-4.883-2.209-7.905 0.116-3.023-0.117-8.835-4.069-12.904z" fill="none" stroke="#231f20" stroke-width=".697"/>
</g>
<g transform="translate(34.242 746.19)">
<path d="m0 0-7.091 4.301c-2.442 5.348 6.51 9.649 9.881 5.697l-0.058-8.138 0.058 8.138c2.536 5.267 12.464-0.12 10.695-5.232l-8.835-4.301 8.835 4.301c5.115-2.209 5.696-14.415-3.487-14.066l-5.813 6.801" fill="#ed1c24" stroke="#231f20" stroke-width=".465"/>
</g>
<g transform="translate(38.427 743.69)">
<path d="m0 0 5.348-6.336c1.038-6.02-11.974-8.021-14.532-0.697l5.638 8.312-5.638-8.312c-6.277-1.046-10.811 10.695-2.674 14.182l7.673-4.65" fill="#ed1c24" stroke="#231f20" stroke-width=".465"/>
</g>
<g transform="translate(36.974 748.05)"></g>
<g transform="translate(35.085 746.83)">
<path d="m0 0c0.174 0.232-2.819 5.638-2.819 5.638s3.518-5.06 3.72-5.115c0.639-0.174 0.145-0.523 0.145-0.523l-0.581-0.61-0.465 0.61z" fill="#231f20"/>
</g>
<g transform="translate(37.585 747.5)">
<path d="m0 0c0.436 0.058 3.386 4.737 3.618 5.144 0 0-3.211-5.551-2.95-5.812 0.262-0.262-0.668-0.233-0.668-0.233v0.901z" fill="#231f20"/>
</g>
<g transform="translate(38.66 745.66)">
<path d="m0 0c0.407-0.407 6.219-1.497 6.917-1.729 0.697-0.233-6.714 1.061-7.12 0.828-0.407-0.232-0.64 0.494-0.64 0.494l0.843 0.407z" fill="#231f20"/>
</g>
<g transform="translate(37.294 743.75)">
<path d="m0 0c-0.116-0.465-0.741-6.452-0.741-6.801 0-0.348-0.102 6.656-0.276 6.917-0.175 0.262 0.581 0.349 0.581 0.349l0.436-0.465z" fill="#231f20"/>
</g>
<g transform="translate(34.707 744.85)">
<path d="m0 0c-0.436 0.029-6.684-0.712-7.149-0.785-0.465-0.072 6.393 1.337 6.858 1.599 0.465 0.261 0.582-0.087 0.582-0.087l0.058-0.553-0.349-0.174z" fill="#231f20"/>
</g>
<g transform="translate(36.974 748.05)">
<path d="m0 0c0.814 0 0.454-0.44 0.756-0.93 0.465-0.756 0.889 0.158 1.162-0.465 0.407-0.93-0.465-0.93-0.581-1.453s0.933-0.952 0.116-1.511c-1.104-0.756-0.814 0.29-1.685 0.29-0.872 0-1.221-0.755-1.86-0.116-0.64 0.639 0.011 1.094-0.059 1.511-0.058 0.349-0.93 0.175-0.581 1.047 0.349 0.871 1.046 0.232 1.453 0.348 0.712 0.204 0.175 1.163 1.279 1.279" fill="#fff200"/>
<path d="m0 0c0.814 0 0.454-0.44 0.756-0.93 0.465-0.756 0.889 0.158 1.162-0.465 0.407-0.93-0.465-0.93-0.581-1.453s0.933-0.952 0.116-1.511c-1.104-0.756-0.814 0.29-1.685 0.29-0.872 0-1.221-0.755-1.86-0.116-0.64 0.639 0.011 1.094-0.059 1.511-0.058 0.349-0.93 0.175-0.581 1.047 0.349 0.871 1.046 0.232 1.453 0.348 0.712 0.204 0.175 1.163 1.279 1.279z" fill="none" stroke="#231f20" stroke-width=".232"/>
</g>
<g transform="translate(27.151 750.49)">
<path d="m0 0c-0.901-0.234-0.756 5.057 3.342 4.069 0.468-0.113 0.814-0.204 0.93 0.407 0.363 1.904 2.674 3.952 5.609 1.22 0 0-0.029-1.714 0-0.348 0.057 2.684 5.359 1.971 5.086-0.756-0.076-0.76 0.36-0.452 0.756-0.32 3.139 1.046 4.94-1.22 4.853-3.807l-0.523-0.32c3.72-1.918 1.13-6.62 0.756-6.713-0.698-0.174-0.345-0.63-0.204-0.785 1.744-1.918-0.465-6.51-4.039-5.667l-0.32 0.349c0.349-4.185-5.582-4.966-6.51-3.11-0.087 0.174-0.698 0.203-0.843 0.058-0.298-0.298-3.829-2.676-6.801 1.889l0.32 0.436c-5.609 0.465-5.667 5.377-4.882 6.016 0.43 0.351 0.232 0.785 0 0.93-0.816 0.51-1.453 5.435 2.47 6.452z" fill="none" stroke="#231f20" stroke-linecap="round" stroke-miterlimit="1" stroke-width=".465"/>
</g>
</g>
</g>
</svg>
