<?xml version="1.0" encoding="UTF-8" standalone="no"?>
<svg
   xmlns:dc="http://purl.org/dc/elements/1.1/"
   xmlns:cc="http://creativecommons.org/ns#"
   xmlns:rdf="http://www.w3.org/1999/02/22-rdf-syntax-ns#"
   xmlns:svg="http://www.w3.org/2000/svg"
   xmlns="http://www.w3.org/2000/svg"
   xmlns:sodipodi="http://sodipodi.sourceforge.net/DTD/sodipodi-0.dtd"
   xmlns:inkscape="http://www.inkscape.org/namespaces/inkscape"
   version="1.1"
   id="svg5655"
   width="642"
   height="768"
   viewBox="-1.87667106 -1.87667106 66.30904412 79.31584212"
   sodipodi:docname="1341.svg">
  <metadata
     id="metadata41">
    <rdf:RDF>
      <cc:Work
         rdf:about="">
        <dc:format>image/svg+xml</dc:format>
        <dc:type
           rdf:resource="http://purl.org/dc/dcmitype/StillImage" />
      </cc:Work>
    </rdf:RDF>
  </metadata>
  <sodipodi:namedview
     pagecolor="#ffffff"
     bordercolor="#666666"
     borderopacity="1"
     objecttolerance="10"
     gridtolerance="10"
     guidetolerance="10"
     inkscape:pageopacity="0"
     inkscape:pageshadow="2"
     inkscape:window-width="640"
     inkscape:window-height="480"
     id="namedview39" />
  <defs
     id="defs5657">
    <clipPath
       id="clipPath5366"
       clipPathUnits="userSpaceOnUse">
      <path
         id="path5368"
         d="m 12.038,704.337 50.22,0 0,60.45 -50.22,0 0,-60.45 z" />
    </clipPath>
  </defs>
  <g
     id="g5362"
     transform="matrix(1.25,0,0,-1.25,-15.124,955.98375)">
    <g
       clip-path="url(#clipPath5366)"
       id="g5364">
      <g
         transform="translate(12.5167,724.8918)"
         id="g5370">
        <path
           id="path5372"
           style="fill:#ffffff;fill-opacity:1;fill-rule:nonzero;stroke:none"
           d="m 0,0 0.052,39.503 49.157,0 L 49.157,0.731 C 48.948,-27.031 0,-27.135 0,0" />
      </g>
      <g
         transform="translate(12.5167,724.8918)"
         id="g5374">
        <path
           id="path5376"
           style="fill:none;stroke:#231f20;stroke-width:0.83499998;stroke-linecap:butt;stroke-linejoin:miter;stroke-miterlimit:4;stroke-dasharray:none;stroke-opacity:1"
           d="m 0,0 0.052,39.503 49.157,0 L 49.157,0.731 C 48.948,-27.031 0,-27.135 0,0 Z" />
      </g>
      <g
         transform="translate(36.9162,706.6624)"
         id="g5378">
        <path
           id="path5380"
           style="fill:#37a83f;fill-opacity:1;fill-rule:nonzero;stroke:none"
           d="m 0,0 c -1.046,1.511 -2.79,3.72 -4.069,3.72 -0.232,0.698 0.116,1.046 0.698,1.744 0.581,0.697 0.813,6.277 -1.279,8.602 0.93,0 1.744,-0.465 2.79,-1.627 0,2.906 -1.395,9.997 -4.65,12.555 0.93,-0.116 2.557,-0.465 3.255,-0.814 l 0.116,1.744 c -0.349,0.465 -2.209,1.162 -3.139,2.441 l -5.231,-2.79 1.86,4.999 c -3.72,2.209 -6.742,7.091 -2.092,12.439 l -4.069,5.463 5.696,-2.092 c 1.046,2.209 4.302,5.812 8.254,4.185 l 2.092,5.464 1.512,-4.534 c 2.557,0.349 6.277,-0.349 8.719,-5.348 l 6.045,1.279 -4.302,-4.65 C 13.834,40.223 16.043,33.596 9.765,30.574 L 12.09,25.226 6.743,28.365 C 6.394,27.668 3.952,26.389 2.79,26.04 c 0,0 -0.349,-4.766 0.465,-7.556 0,0 2.441,1.744 3.023,2.325 C 6.394,19.879 3.952,15.926 4.069,12.904 4.185,9.881 3.952,4.069 0,0" />
      </g>
      <g
         transform="translate(36.9162,706.6624)"
         id="g5382">
        <path
           id="path5384"
           style="fill:none;stroke:#231f20;stroke-width:0.69700003;stroke-linecap:butt;stroke-linejoin:miter;stroke-miterlimit:4;stroke-dasharray:none;stroke-opacity:1"
           d="m 0,0 c -1.046,1.511 -2.79,3.72 -4.069,3.72 -0.232,0.698 0.116,1.046 0.698,1.744 0.581,0.697 0.813,6.277 -1.279,8.602 0.93,0 1.744,-0.465 2.79,-1.627 0,2.906 -1.395,9.997 -4.65,12.555 0.93,-0.116 2.557,-0.465 3.255,-0.814 l 0.116,1.744 c -0.349,0.465 -2.209,1.162 -3.139,2.441 l -5.231,-2.79 1.86,4.999 c -3.72,2.209 -6.742,7.091 -2.092,12.439 l -4.069,5.463 5.696,-2.092 c 1.046,2.209 4.302,5.812 8.254,4.185 l 2.092,5.464 1.512,-4.534 c 2.557,0.349 6.277,-0.349 8.719,-5.348 l 6.045,1.279 -4.302,-4.65 C 13.834,40.223 16.043,33.596 9.765,30.574 L 12.09,25.226 6.743,28.365 C 6.394,27.668 3.952,26.389 2.79,26.04 c 0,0 -0.349,-4.766 0.465,-7.556 0,0 2.441,1.744 3.023,2.325 C 6.394,19.879 3.952,15.926 4.069,12.904 4.185,9.881 3.952,4.069 0,0 Z" />
      </g>
      <g
         transform="translate(34.2424,746.1874)"
         id="g5386">
        <path
           id="path5388"
           style="fill:#ed1c24;fill-opacity:1;fill-rule:nonzero;stroke:#231f20;stroke-width:0.465;stroke-linecap:butt;stroke-linejoin:miter;stroke-miterlimit:4;stroke-dasharray:none;stroke-opacity:1"
           d="m 0,0 -7.091,4.301 c -2.442,5.348 6.51,9.649 9.881,5.697 L 2.732,1.86 2.79,9.998 C 5.326,15.265 15.254,9.878 13.485,4.766 L 4.65,0.465 13.485,4.766 C 18.6,2.557 19.181,-9.649 9.998,-9.3 l -5.813,6.801" />
      </g>
      <g
         transform="translate(38.4274,743.688)"
         id="g5390">
        <path
           id="path5392"
           style="fill:#ed1c24;fill-opacity:1;fill-rule:nonzero;stroke:#231f20;stroke-width:0.465;stroke-linecap:butt;stroke-linejoin:miter;stroke-miterlimit:4;stroke-dasharray:none;stroke-opacity:1"
           d="m 0,0 5.348,-6.336 c 1.038,-6.02 -11.974,-8.021 -14.532,-0.697 l 5.638,8.312 -5.638,-8.312 c -6.277,-1.046 -10.811,10.695 -2.674,14.182 l 7.673,-4.65" />
      </g>
      <g
         transform="translate(36.9743,748.0474)"
         id="g5394">
        <path
           id="path5396"
           style="fill:#ed1c24;fill-opacity:1;fill-rule:nonzero;stroke:#231f20;stroke-width:0.465;stroke-linecap:butt;stroke-linejoin:miter;stroke-miterlimit:4;stroke-dasharray:none;stroke-opacity:1"
           d="" />
      </g>
      <g
         transform="translate(35.0852,746.8268)"
         id="g5398">
        <path
           id="path5400"
           style="fill:#231f20;fill-opacity:1;fill-rule:nonzero;stroke:none"
           d="m 0,0 c 0.174,0.232 -2.819,5.638 -2.819,5.638 0,0 3.518,-5.06 3.72,-5.115 C 1.54,0.349 1.046,0 1.046,0 L 0.465,-0.61 0,0 Z" />
      </g>
      <g
         transform="translate(37.5846,747.4952)"
         id="g5402">
        <path
           id="path5404"
           style="fill:#231f20;fill-opacity:1;fill-rule:nonzero;stroke:none"
           d="m 0,0 c 0.436,0.058 3.386,4.737 3.618,5.144 0,0 -3.211,-5.551 -2.95,-5.812 C 0.93,-0.93 0,-0.901 0,-0.901 L 0,0 Z" />
      </g>
      <g
         transform="translate(38.6599,745.6643)"
         id="g5406">
        <path
           id="path5408"
           style="fill:#231f20;fill-opacity:1;fill-rule:nonzero;stroke:none"
           d="m 0,0 c 0.407,-0.407 6.219,-1.497 6.917,-1.729 0.697,-0.233 -6.714,1.061 -7.12,0.828 -0.407,-0.232 -0.64,0.494 -0.64,0.494 L 0,0 Z" />
      </g>
      <g
         transform="translate(37.294,743.7462)"
         id="g5410">
        <path
           id="path5412"
           style="fill:#231f20;fill-opacity:1;fill-rule:nonzero;stroke:none"
           d="m 0,0 c -0.116,-0.465 -0.741,-6.452 -0.741,-6.801 0,-0.348 -0.102,6.656 -0.276,6.917 -0.175,0.262 0.581,0.349 0.581,0.349 L 0,0 Z" />
      </g>
      <g
         transform="translate(34.7074,744.8505)"
         id="g5414">
        <path
           id="path5416"
           style="fill:#231f20;fill-opacity:1;fill-rule:nonzero;stroke:none"
           d="M 0,0 C -0.436,0.029 -6.684,-0.712 -7.149,-0.785 -7.614,-0.857 -0.756,0.552 -0.291,0.814 0.174,1.075 0.291,0.727 0.291,0.727 L 0.349,0.174 0,0 Z" />
      </g>
      <g
         transform="translate(36.9743,748.0474)"
         id="g5418">
        <path
           id="path5420"
           style="fill:#fff200;fill-opacity:1;fill-rule:nonzero;stroke:none"
           d="M 0,0 C 0.814,0 0.454,-0.44 0.756,-0.93 1.221,-1.686 1.645,-0.772 1.918,-1.395 2.325,-2.325 1.453,-2.325 1.337,-2.848 1.221,-3.371 2.27,-3.8 1.453,-4.359 c -1.104,-0.756 -0.814,0.29 -1.685,0.29 -0.872,0 -1.221,-0.755 -1.86,-0.116 -0.64,0.639 0.011,1.094 -0.059,1.511 -0.058,0.349 -0.93,0.175 -0.581,1.047 0.349,0.871 1.046,0.232 1.453,0.348 C -0.567,-1.075 -1.104,-0.116 0,0" />
      </g>
      <g
         transform="translate(36.9743,748.0474)"
         id="g5422">
        <path
           id="path5424"
           style="fill:none;stroke:#231f20;stroke-width:0.23199999;stroke-linecap:butt;stroke-linejoin:miter;stroke-miterlimit:4;stroke-dasharray:none;stroke-opacity:1"
           d="M 0,0 C 0.814,0 0.454,-0.44 0.756,-0.93 1.221,-1.686 1.645,-0.772 1.918,-1.395 2.325,-2.325 1.453,-2.325 1.337,-2.848 1.221,-3.371 2.27,-3.8 1.453,-4.359 c -1.104,-0.756 -0.814,0.29 -1.685,0.29 -0.872,0 -1.221,-0.755 -1.86,-0.116 -0.64,0.639 0.011,1.094 -0.059,1.511 -0.058,0.349 -0.93,0.175 -0.581,1.047 0.349,0.871 1.046,0.232 1.453,0.348 C -0.567,-1.075 -1.104,-0.116 0,0 Z" />
      </g>
      <g
         transform="translate(27.1511,750.4886)"
         id="g5426" />
      <g
         transform="translate(27.1511,750.4886)"
         id="g5428">
        <path
           id="path5430"
           style="fill:none;stroke:#231f20;stroke-width:0.465;stroke-linecap:round;stroke-linejoin:miter;stroke-miterlimit:1;stroke-dasharray:none;stroke-opacity:1"
           d="m 0,0 c -0.901,-0.234 -0.756,5.057 3.342,4.069 0.468,-0.113 0.814,-0.204 0.93,0.407 0.363,1.904 2.674,3.952 5.609,1.22 0,0 -0.029,-1.714 0,-0.348 0.057,2.684 5.359,1.971 5.086,-0.756 -0.076,-0.76 0.36,-0.452 0.756,-0.32 3.139,1.046 4.94,-1.22 4.853,-3.807 l -0.523,-0.32 c 3.72,-1.918 1.13,-6.62 0.756,-6.713 -0.698,-0.174 -0.345,-0.63 -0.204,-0.785 1.744,-1.918 -0.465,-6.51 -4.039,-5.667 l -0.32,0.349 c 0.349,-4.185 -5.582,-4.966 -6.51,-3.11 -0.087,0.174 -0.698,0.203 -0.843,0.058 -0.298,-0.298 -3.829,-2.676 -6.801,1.889 l 0.32,0.436 c -5.609,0.465 -5.667,5.377 -4.882,6.016 0.43,0.351 0.232,0.785 0,0.93 C -3.286,-5.942 -3.923,-1.017 0,0 Z" />
      </g>
    </g>
  </g>
</svg>
