<?xml version="1.0" encoding="UTF-8" standalone="no"?>
<svg
   xmlns:dc="http://purl.org/dc/elements/1.1/"
   xmlns:cc="http://creativecommons.org/ns#"
   xmlns:rdf="http://www.w3.org/1999/02/22-rdf-syntax-ns#"
   xmlns:svg="http://www.w3.org/2000/svg"
   xmlns="http://www.w3.org/2000/svg"
   xmlns:sodipodi="http://sodipodi.sourceforge.net/DTD/sodipodi-0.dtd"
   xmlns:inkscape="http://www.inkscape.org/namespaces/inkscape"
   version="1.1"
   id="svg4773"
   width="636"
   height="768"
   viewBox="-0.59902503 -0.59902503 21.16555106 25.55555006"
   sodipodi:docname="1344.svg">
  <metadata
     id="metadata18">
    <rdf:RDF>
      <cc:Work
         rdf:about="">
        <dc:format>image/svg+xml</dc:format>
        <dc:type
           rdf:resource="http://purl.org/dc/dcmitype/StillImage" />
      </cc:Work>
    </rdf:RDF>
  </metadata>
  <sodipodi:namedview
     pagecolor="#ffffff"
     bordercolor="#666666"
     borderopacity="1"
     objecttolerance="10"
     gridtolerance="10"
     guidetolerance="10"
     inkscape:pageopacity="0"
     inkscape:pageshadow="2"
     inkscape:window-width="640"
     inkscape:window-height="480"
     id="namedview16" />
  <defs
     id="defs4775" />
  <path
     d="m 0.15525,14.09625 c 0,4.4425 3.5375,10.10375 9.805,10.10375 6.2775,0 9.84625,-5.66125 9.84625,-10.11 l 0,-13.92625 -19.65125,0 0,13.93875"
     style="fill:#e71e24;fill-opacity:1;fill-rule:nonzero;stroke:none"
     id="path4377" />
  <path
     d="m 1.8855,6.5825 7.08625,0 0,9.48625 0,2.32375 0,4.44875 2.28625,0 0,-4.16125 0,-2.11625 0,-9.97625 2.1525,0 3.31375,0 1.32125,0 0,-2.04375 -1.685,0 -3.31875,0 -11.15625,0 0,2.0475 z"
     style="fill:#ffffff;fill-opacity:1;fill-rule:nonzero;stroke:none"
     id="path4381" />
  <path
     d="m 1.728,6.74 7.08625,0 0,9.32875 0,2.32375 0,4.60625 2.60125,0 0,-4.31875 0,-2.11625 0,-9.8175 1.995,0 3.31375,0 1.47875,0 0,-2.36 -1.8425,0 0,0.15625 0,0.1575 1.5275,0 0,1.73 -1.16375,0 -3.31375,0 -2.31,0 0,10.13375 0,2.11625 0,4.00375 -1.97125,0 0,-4.29125 0,-2.32375 0,-9.64375 -7.08625,0 0,-1.7325 10.99875,0 3.31875,0 0,-0.1575 0,-0.15625 -3.31875,0 -11.31375,-0.0125 0,2.3625 z"
     style="fill:#131211;fill-opacity:1;fill-rule:nonzero;stroke:none"
     id="path4385" />
  <path
     d="m 10.06088,1.13862 c -1.44876,0.0625 -3.35501,0.8925 -4.32376,2.22125 -0.89999,1.2375 -1.15125,2.20375 -1.23,2.8375 -0.0775,0.6325 -0.13124,1.79 -0.13124,1.79 0,0 -0.52375,0.22 -0.89126,0.58125 -0.36624,0.3575 -0.66125,1.03 -0.69,1.1175 -0.0312,0.0962 -0.105,0.1975 0.0663,0.1725 0.0875,-0.0125 0.41999,0.0312 0.91875,-0.19 0.76249,-0.34625 1.45249,-0.9775 1.45249,-0.9775 0,0 -0.0312,0.41625 -0.17624,0.7575 -0.1375,0.33375 -0.21875,0.46875 -0.44876,0.755 -0.20875,0.265 -0.41124,0.45875 -0.41124,0.45875 0,0 0.27375,0.11 0.66,-0.02 0.3825,-0.1275 0.92499,-0.465 1.16625,-0.88 0.28499,-0.48 0.37,-1.03125 0.31624,-1.5425 -0.05,-0.5175 -0.15749,-0.79625 -0.1,-1.22875 0.0812,-0.6275 0.17874,-1.87625 1.34249,-2.8175 0.48625,-0.38625 0.84251,-0.6725 1.27251,-0.82625 0.71875,-0.2625 1.36375,-0.29125 2.04125,-0.19875 0,0 1.29499,0.13 2.02875,0.71875 0.73375,0.58375 0.95624,1.21125 1.09749,1.7775 0.13876,0.5725 0.35751,1.69 -0.0337,2.49875 -0.39625,0.80875 -1.32375,1.5525 -2.15125,1.96625 -0.88124,0.445 -2.62874,0.9675 -3.76875,1.48625 -1.0225,0.47125 -1.955,1.25125 -2.24874,1.965 -0.15375,0.36625 -0.27,0.84625 -0.27376,1.40875 0,0.4275 0.11375,0.8325 0.205,1.0725 0.15625,0.425 0.5075,0.9475 1.195,1.43 0.495,0.345 1.09626,0.58375 1.82125,0.73625 1.44876,0.305 1.98625,0.22 2.77126,0.35 0.79,0.1275 1.48374,0.315 1.6625,0.41 0.2625,0.14375 0.31624,0.44125 0.1225,0.66125 -0.19125,0.2225 -0.59626,0.27375 -0.98126,0.21375 -0.515,-0.0788 -1.4275,-0.3675 -2.1425,-0.3825 -0.71499,-0.0187 -1.89375,0 -2.62749,0.52875 -0.7625,0.55 -1.09126,1.0875 -1.145,1.2525 -0.0525,0.165 -0.0875,0.32 0,0.37875 0.11624,0.0775 0.29499,-0.0188 0.45625,-0.175 0.24375,-0.24875 0.5075,-0.51125 0.82,-0.64375 0.42749,-0.18125 1.07624,-0.3475 1.83124,-0.2775 0.74,0.07 1.2925,0.3125 1.90375,0.46 0.61126,0.14875 1.08251,0.3325 1.7475,0.31375 0.865,-0.03 1.755,-0.535 1.94376,-1.27875 0.23624,-0.95125 0.009,-1.69875 -0.77376,-2.1825 -0.77249,-0.47375 -1.87624,-0.82 -2.93624,-1.0325 -1.06875,-0.21 -2.02251,-0.39125 -2.54626,-0.5975 -0.72375,-0.28625 -0.96249,-0.615 -1.0675,-0.93875 -0.0825,-0.26375 -0.13,-0.8375 0.21125,-1.24625 0.34875,-0.42875 1.38,-0.8075 2.32376,-1.14 0.93874,-0.33125 2.14499,-0.905 3.05124,-1.43375 0.97125,-0.5625 1.83875,-1.54625 2.15125,-2 0.41251,-0.6 0.68126,-1.44625 0.73125,-2.0225 0.10001,-1.22625 -0.1325,-2.16375 -0.40249,-2.93875 -0.3975,-1.14 -1.27,-2.01 -2.5775,-2.7025 -0.9225,-0.49 -1.57125,-0.66125 -2.63125,-0.66125 -0.18625,0 -0.385,0 -0.60125,0.015"
     style="fill:#f7ee1c;fill-opacity:1;fill-rule:nonzero;stroke:none"
     id="path4389" />
  <path
     d="m 10.66725,0.9665 c -0.19125,0 -0.39375,0 -0.61375,0.0163 l 0.001,0 c -0.001,0 -0.001,0 -0.001,0 l 0.007,0.15625 0.006,0.1575 c 0.21625,-0.0125 0.415,-0.015 0.6,-0.015 1.04125,0 1.6425,0.16125 2.5525,0.64125 1.28625,0.68375 2.12125,1.5225 2.5025,2.61625 0.2225,0.64125 0.4175,1.38375 0.4175,2.31375 0,0.18 -0.007,0.36625 -0.0225,0.56125 l 0,-10e-4 c -0.0462,0.54375 -0.3125,1.3775 -0.705,1.9475 -0.295,0.4325 -1.16125,1.41 -2.1,1.9525 l -0.001,0 c -0.89625,0.5225 -2.0975,1.09375 -3.02375,1.42125 l 0.001,0 -0.001,0 C 9.3381,13.07555 8.3081,13.4318 7.89435,13.9218 l 0,-10e-4 c -0.2375,0.2875 -0.30625,0.6325 -0.30625,0.92 0,0.18875 0.0288,0.35375 0.0675,0.47625 0.11375,0.36875 0.40875,0.7475 1.15875,1.03625 0.55125,0.2175 1.50375,0.39625 2.57375,0.60625 l -10e-4,0 c 1.04875,0.20875 2.14,0.55375 2.885,1.01125 0.5475,0.34375 0.78375,0.78875 0.78875,1.3775 0,0.19625 -0.0288,0.4075 -0.085,0.63375 l 0,-0.001 C 14.8234,20.6248 13.99215,21.1173 13.1784,21.1423 l 10e-4,0 0.001,0 -0.0888,0.001 c -0.585,0 -1.02375,-0.16625 -1.61875,-0.31125 l 0.005,0.001 -0.005,-0.001 c -0.5925,-0.1412 -1.1575,-0.3912 -1.925,-0.46495 -0.125,-0.0125 -0.2475,-0.0162 -0.365,-0.0162 -0.63,0.001 -1.165,0.1475 -1.5425,0.3075 -0.35,0.15 -0.6225,0.42625 -0.86875,0.67625 l -0.24,0.15 0.0437,-0.19375 c 0.03,-0.10875 0.34875,-0.64375 1.08625,-1.17125 0.58,-0.42125 1.5275,-0.50625 2.23,-0.505 l 0.30125,0 10e-4,0 c 0.68125,0.0138 1.585,0.2975 2.12125,0.38 l 0.31625,0.0263 c 0.30625,0 0.61125,-0.0712 0.8075,-0.29125 l 10e-4,0 c 0.10125,-0.115 0.155,-0.255 0.155,-0.39375 0.001,-0.2075 -0.12125,-0.40375 -0.32125,-0.51 l -10e-4,-10e-4 C 13.0463,18.7087 12.3688,18.52995 11.5613,18.39745 10.75005,18.26495 10.23255,18.35125 8.79755,18.0487 l -10e-4,0 c -0.71,-0.14875 -1.28875,-0.38 -1.7625,-0.71125 l 0,0 C 6.3703,16.8712 6.0403,16.37495 5.89655,15.98245 l 0,-10e-4 c -0.0863,-0.2287 -0.195,-0.61745 -0.19625,-1.0162 0.005,-0.5425 0.11625,-1.00125 0.2625,-1.35 l 0,-10e-4 c 0.26125,-0.6475 1.1725,-1.4275 2.16875,-1.88125 1.125,-0.51375 2.86875,-1.0325 3.775,-1.4875 l -10e-4,0 c 0.85125,-0.42875 1.7975,-1.18 2.2225,-2.0375 l 0,-10e-4 c 0.1787,-0.3712 0.2362,-0.7887 0.23745,-1.18995 -0.001,-0.5525 -0.11125,-1.07875 -0.1925,-1.415 l 0,0 C 14.03175,5.02455 13.788,4.3458 13.0205,3.73955 l 10e-4,10e-4 c -0.76875,-0.61 -2.01375,-0.74 -2.10625,-0.7525 l 0,0 c -0.23125,-0.0312 -0.4575,-0.05 -0.6875,-0.05 C 9.764,2.93805 9.2965,3.01305 8.799,3.1943 8.33525,3.3618 7.96775,3.66055 7.4815,4.0468 l -10e-4,0 C 6.263,5.0293 6.16175,6.3443 6.08175,6.96555 l 0,0 -0.0188,0.26875 c 0.002,0.33625 0.08,0.59875 0.11875,0.99625 l 0,0.001 0.0137,0.27375 c 0,0.40125 -0.0937,0.81 -0.31,1.17375 -0.205,0.36125 -0.73125,0.6975 -1.08,0.81 -0.10625,0.0362 -0.20125,0.05 -0.2825,0.0538 0.0625,-0.07 0.135,-0.1525 0.2075,-0.245 l -0.001,10e-4 C 4.96315,10.0088 5.0619,9.84255 5.20065,9.50505 l 0,10e-4 0,0 C 5.35815,9.13105 5.3869,8.7073 5.38815,8.6973 L 5.41935,8.30105 5.1256,8.5698 c -0.001,0 -0.1675,0.1525 -0.42875,0.35 -0.2625,0.19625 -0.6175,0.435 -0.9825,0.6 l 10e-4,0 c -0.235,0.105 -0.42625,0.145 -0.56875,0.16375 -0.08,0.0125 -0.14,0.0125 -0.19,0.0125 C 3.0216,9.53855 3.29785,8.9598 3.5941,8.6773 3.76285,8.51105 3.97535,8.37105 4.14535,8.2773 4.3141,8.1798 4.43535,8.1298 4.4366,8.1298 L 4.5279,8.091 4.5319,7.9923 c 10e-4,0 0.055,-1.1575 0.13125,-1.77875 0.0762,-0.61125 0.31625,-1.545 1.20125,-2.76375 0.925,-1.2775 2.805,-2.1 4.2025,-2.15625 L 10.0609,1.13605 10.0539,0.9798 C 8.5539,1.0485 6.6214,1.88355 5.61015,3.26355 4.69515,4.5223 4.4314,5.51855 4.3514,6.17605 4.2851,6.7073 4.2389,7.5898 4.2239,7.88105 4.05265,7.96225 3.67515,8.15855 3.3739,8.4523 2.97265,8.85355 2.68765,9.51605 2.64515,9.6348 l 0,0 -0.05,0.1825 0.0763,0.1575 0.145,0.0437 0.06,0 10e-4,0 c 0.0112,0 0.1425,0 0.3075,-0.0162 0.17,-0.02 0.395,-0.0713 0.66,-0.18875 C 4.3037,9.6048 4.72995,9.3023 5.0087,9.08355 4.9837,9.1848 4.9525,9.2923 4.9112,9.38855 l 0,10e-4 0,10e-4 c -0.1375,0.32625 -0.2,0.43125 -0.42625,0.7175 l -0.001,0 c -0.20125,0.255 -0.39625,0.4425 -0.3975,0.4425 l -0.175,0.17 0.22625,0.09 c 0.0138,0.0125 0.14125,0.0538 0.3425,0.0538 0.11875,0 0.265,-0.0162 0.42625,-0.07 0.415,-0.14375 0.975,-0.48375 1.2525,-0.95 l -0.001,0 C 6.4067,9.42685 6.5117,8.9606 6.5117,8.5106 l -0.0162,-0.30625 0,0 C 6.4542,7.77685 6.378,7.5181 6.37925,7.2381 l 0.0163,-0.22625 c 0.0825,-0.63625 0.175,-1.81625 1.285,-2.715 l 0,0 C 8.1668,3.90685 8.5118,3.63685 8.90805,3.4931 9.3718,3.32435 9.7993,3.25685 10.2293,3.25685 c 0.2125,0 0.42625,0.0175 0.645,0.0475 l 0.002,0 0.002,0 c 0.001,10e-4 0.3125,0.0312 0.71625,0.13375 0.405,0.1025 0.89375,0.28 1.23,0.55125 l 0,10e-4 c 0.70125,0.5575 0.9025,1.135 1.04375,1.6925 l 0,-0.001 c 0.0788,0.325 0.1825,0.82875 0.1825,1.34 0,0.37125 -0.0562,0.74375 -0.205,1.0525 l 0,-0.001 c -0.36875,0.76 -1.2775,1.49625 -2.08125,1.89625 -0.85625,0.43375 -2.60875,0.9575 -3.7625,1.48375 l -0.001,0 C 6.9523,11.9396 5.9998,12.7221 5.6723,13.4996 l 0.001,0 c -0.1625,0.38625 -0.2825,0.88375 -0.2875,1.46875 l 0,0 c 0.001,0.45625 0.12,0.8725 0.21625,1.12875 l 0,-0.001 c 0.16875,0.4587 0.5425,1.0062 1.25125,1.5037 l 0.001,0 c 0.51625,0.36 1.13875,0.60625 1.87875,0.76125 1.4625,0.3075 2.0225,0.225 2.7775,0.35 l 10e-4,0 c 0.775,0.12375 1.48125,0.32125 1.61375,0.395 l 0,0 c 0.11125,0.0637 0.15375,0.1475 0.155,0.23375 l -0.0763,0.185 -0.001,0 0,0.001 c -0.0913,0.11 -0.31125,0.18375 -0.57125,0.1825 l -0.2675,-0.0212 C 11.8705,19.6121 10.9505,19.31835 10.2005,19.3021 l 10e-4,0 -0.31,0 c -0.725,0 -1.71875,0.0712 -2.41375,0.5625 l 0,0 c -0.78625,0.57125 -1.125,1.10875 -1.2025,1.33125 l -10e-4,0.001 -0.06,0.3 0.12375,0.25625 0,0.001 0.1825,0.0537 c 0.18875,0 0.3325,-0.1175 0.47125,-0.2475 l 0.001,0 0.001,0 c 0.24125,-0.2475 0.495,-0.49375 0.76875,-0.60875 0.3425,-0.145 0.84,-0.2825 1.42,-0.2825 0.10875,0 0.22125,0 0.335,0.015 0.7125,0.0675 1.2525,0.305 1.88125,0.4575 0.57,0.1375 1.0425,0.32 1.6925,0.32 l 0.0962,-10e-4 10e-4,0 0.001,0 c 0.915,-0.0375 1.86625,-0.555 2.09,-1.39875 0.0612,-0.2475 0.095,-0.48375 0.095,-0.71 0.002,-0.68125 -0.31125,-1.2625 -0.93875,-1.645 l 0,-0.001 c -0.8,-0.48875 -1.91625,-0.83625 -2.9875,-1.05 -1.06875,-0.21 -2.025,-0.39375 -2.52,-0.5925 l 0,0 C 8.23065,15.7833 8.04815,15.50455 7.9544,15.2258 7.9269,15.1395 7.9007,14.99955 7.9019,14.84455 c 0,-0.23875 0.0587,-0.50875 0.23375,-0.7175 l 10e-4,-0.001 c 0.2825,-0.365 1.315,-0.765 2.25375,-1.09125 0.9525,-0.33625 2.16125,-0.91125 3.0775,-1.445 1.00375,-0.585 1.875,-1.5725 2.2025,-2.0475 0.43125,-0.63245 0.70375,-1.4887 0.75875,-2.09745 0.015,-0.20375 0.0238,-0.39875 0.0238,-0.5875 0,-0.975 -0.205,-1.75875 -0.435,-2.41625 -0.41375,-1.18875 -1.32375,-2.0875 -2.6525,-2.79125 -0.9275,-0.495 -1.61875,-0.67875 -2.68,-0.67875 -0.007,0 -0.0138,0 -0.02,0 m 2.5325,18.0025 0,0 M 10.0517,0.98735 l 0,0 0,0 0,0 m 3.16625,0.94125 0,-0.001 0,0.001 M 3.3717,8.45985 c 0,0 0,0 0,0 10e-4,0 10e-4,0 10e-4,-10e-4 l -10e-4,10e-4 m 2.2275,7.6425 0.001,0 c 0,0 -0.001,0 -0.001,0 l 0,0"
     style="fill:#131211;fill-opacity:1;fill-rule:nonzero;stroke:none"
     id="path4393" />
  <path
     d="m 4.194,8.70637 c 0,0.125 0.095,0.225 0.21625,0.225 0.11625,0 0.2125,-0.1 0.2125,-0.225 0,-0.12875 -0.0962,-0.23 -0.2125,-0.23 -0.12125,0 -0.21625,0.10125 -0.21625,0.23"
     style="fill:#231f20;fill-opacity:1;fill-rule:nonzero;stroke:none"
     id="path4397" />
  <path
     d="m 4.185,8.70637 c 0,0.13 0.0987,0.23375 0.225,0.23375 l 0,-0.0125 0,-0.0125 C 4.29375,8.91412 4.2025,8.81892 4.2025,8.69887 c 0,-0.125 0.0913,-0.22 0.2075,-0.22 0.11,0 0.20375,0.0962 0.20375,0.22 0,0.12 -0.0925,0.215 -0.20375,0.21625 l 0,0.0125 0,0.0125 c 0.1225,0 0.22125,-0.10375 0.22125,-0.23375 0,-0.13375 -0.0987,-0.24 -0.22125,-0.24 -0.12625,0 -0.225,0.10625 -0.225,0.24"
     style="fill:#131211;fill-opacity:1;fill-rule:nonzero;stroke:none"
     id="path4401" />
  <path
     d="M 4.33575,8.70525 4.43825,8.819 4.54575,8.70525 4.43825,8.59275 4.33575,8.70525 Z"
     style="fill:#f7ee1c;fill-opacity:1;fill-rule:nonzero;stroke:none"
     id="path4405" />
  <path
     d="m 4.42012,9.27562 0.13626,-0.0975 c 0,0 -0.29375,0.60625 -0.54501,0.8225 -0.125,0.1075 -0.41749,0.37625 -0.88,0.46125 -0.53249,0.0937 -0.80874,0.1025 -1.10125,0.1025 -0.22624,0 -0.32749,-0.0125 -0.3525,-0.0125 l -0.055,0.001 -0.0312,0.0625 -0.0675,0.24125 0.015,0.08 c 0.0337,0 0.31874,0 0.57374,-0.0263 0.33251,-0.035 0.63,-0.0737 0.9425,-0.1775 0.3175,-0.1 0.54376,-0.2275 0.80376,-0.39875 0.2625,-0.17625 0.4225,-0.4 0.52249,-0.54625 0.10751,-0.1475 0.28001,-0.4675 0.30001,-0.5125 L 4.77512,9.01907 4.42011,9.27532"
     style="fill:#231f20;fill-opacity:1;fill-rule:nonzero;stroke:none"
     id="path4409" />
  <path
     d="m 13.04325,4.5675 0.36,2.01875 3.31375,0 -0.355,-2.01875 -3.31875,0 z"
     style="fill:#ffffff;fill-opacity:1;fill-rule:nonzero;stroke:none"
     id="path4413" />
  <path
     d="m 8.98312,18.503 2.26625,0.28625 0,-2.23875 -2.26374,-0.50375 -0.003,2.45625 z"
     style="fill:#ffffff;fill-opacity:1;fill-rule:nonzero;stroke:none"
     id="path4417" />
  <path
     d="m 0,0 0,14.095 c 0.001,2.26375 0.89625,4.82 2.59,6.82125 1.69,2 4.18875,3.4425 7.3725,3.44125 3.1875,10e-4 5.6975,-1.44125 7.39875,-3.4425 1.70125,-2.00125 2.605,-4.56 2.60625,-6.82625 l 0,-14.0825 -19.81,0 0,0.1575 0.1575,0 -0.1575,0 0,-0.1575 -0.1575,0 m 2.83,20.7125 C 1.1875,18.7775 0.31375,16.28125 0.315,14.10125 l 0,-13.78 19.3375,0.0125 0,13.7675 c 0.001,2.18375 -0.88,4.68125 -2.5325,6.6225 -1.6525,1.94125 -4.06625,3.33 -7.1575,3.33125 -3.085,-0.001 -5.48875,-1.39 -7.1325,-3.33 m 10.1,-16.01375 3.53375,0 0,-0.315 -3.53375,0 0,0.315 z m 0.35125,2.0475 3.565,0 0,-0.315 -3.565,0 0,0.315 z m -4.4675,11.7775 0.315,0 0,-2.60375 -0.315,0 0,2.60375 z m 2.2875,0.2875 0.315,0 0,-2.38 -0.315,0 0,2.38 z"
     style="fill:#131211;fill-opacity:1;fill-rule:nonzero;stroke:none"
     id="path4421" />
</svg>
