<?xml version="1.0" encoding="UTF-8"?>
<svg version="1.0" viewBox="0 0 208.86 244.66" xmlns="http://www.w3.org/2000/svg" xmlns:cc="http://creativecommons.org/ns#" xmlns:dc="http://purl.org/dc/elements/1.1/" xmlns:rdf="http://www.w3.org/1999/02/22-rdf-syntax-ns#">
<metadata>
<rdf:RDF>
<cc:Work rdf:about="">
<dc:format>image/svg+xml</dc:format>
<dc:type rdf:resource="http://purl.org/dc/dcmitype/StillImage"/>
<dc:title/>
</cc:Work>
</rdf:RDF>
</metadata>
<path d="m1 1 3.7611 158c2.6865 112.86 196.65 112.86 199.34 0l3.7611-158z" fill="#cc2918" fill-rule="evenodd" stroke="#000" stroke-width="2"/>
<path d="m110.16 73.352c3.1666-6.357 14.042-3.0991 19.4-4.0743 7.5291-1.3701 14.699 0.88452 19.241 3.6476 3.1997 1.9468 9.5877 10.866 13.123 17.55 1.741 3.2912 0.83797 5.5106-0.37878 6.6697-1.535 1.4623-4.4785-0.53031-9.6101-5.1236-3.8288-3.4272-16.954 0.61844-23.23 1.3297-7.5276 0.85314-16.097-2.5173-18.689-7.0514-2.4177-4.2288-1.5466-9.5536 0.14424-12.948z" fill="#fff" stroke="#000" stroke-dashoffset="4.58"/>
<path d="m116.51 49.833c4.4225-2.4581 11.133-7.2699 15.704-9.5317 3.3569-1.661 16.368-1.8955 23.665 0.08675 3.5931 0.97606 4.5975 3.1515 4.6132 4.8319 0.0198 2.12-3.477 3.8482-10.337 4.4595-5.1183 0.45612-10.566 6.5647-13.48 11.619-3.7832 6.5635-11.439 12.672-16.341 11.658-4.7703-0.98594-8.6206-1.3781-11.678-5.7435-3.0576-4.3655 2.3162-14.302 7.8539-17.38z" fill="#fff" stroke="#000" stroke-dashoffset="4.58"/>
<path d="m98.26 74.722c3.4058 3.5237-2.4929 9.1185-8.5609 11.047-4.8219 1.5328-8.9187 2.9598-13.494 3.0794-10.547 0.27574-13.066 5.455-16.985 12.339-1.8419 3.2358-4.7167 2.9702-6.2654 2.318-1.9539-0.82279-2.1532-4.7182 0.0068-11.258 1.6116-4.8793 8.6651-13.6 12.241-18.209 5.6394-7.2706 20.359-8.6266 25.387-6.6758 4.5413 1.7621 5.0357 4.6324 7.6711 7.359z" fill="#fff" stroke="#000" stroke-dashoffset="4.58"/>
<path d="m100.45 67.41c-2.9015 6.2244-13.502 5.5298-18.936 2.273-4.34-2.6009-5.8445-7.3101-8.0155-11.337-4.3429-8.0561-12.531-8.7523-20.069-9.5291-3.7037-0.38171-4.9819-2.1746-5.063-3.8531-0.10228-2.1176 3.7236-5.8161 10.155-4.8585 5.0557 0.75266 16.083 0.70124 21.814 1.7924 7.399 1.4088 16.097 9.1465 16.922 14.476 0.74465 4.8139 4.7944 7.5997 3.1923 11.037z" fill="#fff" stroke="#000" stroke-dashoffset="4.58"/>
<path d="m101.12 173.6v-42.515c0-2.0802 0.15249-3.6993-1.6794-6.3198-1.3253-1.8959-1.2975-4.3574-1.3258-6.7175-0.06728-5.6107-0.09529-11.786-0.08839-17.545h13.38c0.0141 5.7664 0.13427 11.692 0 17.236-0.0641 2.6457-0.15999 5.0234-1.3258 6.7175-1.0713 1.5568-2.3303 3.6991-2.3303 6.6291v42.515h-3.3152z" fill="#009645" stroke="#000" stroke-dashoffset="4.58"/>
<path d="m99.789 190.21v-7.4246c0-8.8152-5.2815-17.387-11.402-20.904-25.89-14.878-24.996-32.995-20.594-45.653 2.0168 10.23 4.5103 18.618 13.877 21.655 16.192 5.2503 22.648 14.134 24.528 30.892 3.4919-16.36 8.9548-24.183 20.993-30.892 8.6013-4.7934 13.891-12.533 16.971-22.451 4.4012 12.658 2.4674 34.265-23.423 49.144-6.1206 3.5173-11.667 9.3928-11.667 18.208v7.4246z" fill="#009645" stroke="#000" stroke-dashoffset="4.58" stroke-miterlimit="9"/>
<path d="m124.02 208.81c3.3736-6.3025 10.028-9.8204 18.848-9.496 8.5031 0.31279 15.246 5.3932 14.686 14.795-0.52338 8.7782-5.6566 16.891-11.64 22.466-13.447 4.9115-27.312 7.037-41.488 7.0914z" fill="#009645" stroke="#000" stroke-dashoffset="4.58"/>
<path d="m84.836 208.81c-3.3736-6.3025-10.028-9.8204-18.848-9.496-8.5031 0.31279-15.246 5.3932-14.686 14.795 0.52337 8.7782 5.6566 16.891 11.64 22.466 13.447 4.9115 27.312 7.037 41.488 7.0914z" fill="#009645" stroke="#000" stroke-dashoffset="4.58"/>
<path d="m82.401 209.01c0.70739 16.337 14.818 30.651 22.029 34.65 7.2111-3.9984 21.321-18.313 22.029-34.65 0.79182-18.286-11.885-22.433-22.029-22.433-10.144 0-22.821 4.1463-22.029 22.433z" fill="#009645" stroke="#000" stroke-dashoffset="4.58"/>
<path d="m104.43 64.035c-6.8413 0.59945-12.534-7.6653-12.43-14 0.08247-5.059 1.8248-8.3311 5.125-11.5 2.7016-2.5941 2.7867-14.001 4.9375-21.25 1.0591-3.5695 3.2572-4.5233 4.9375-4.5 2.1198 0.02936 3.7666 3.5652 4.2188 10.438 0.33738 5.1275 1.7982 9.9498 4.7188 15 3.7926 6.5581 3.0158 17.153-1.1875 20.531-3.7966 3.0518-6.5422 4.9502-10.32 5.2812z" fill="#fff" stroke="#000" stroke-dashoffset="4.58"/>
<path d="m105.25 34.66c-0.30611 3.8542-0.47693 8.2089-1.625 10.75-1.9606 4.3395-2.1007 9.6604-0.75 13.188 0.85003 2.2198 1.3175 3.6008 1.5552 5.4375" fill="none" stroke="#000" stroke-dashoffset="4.58"/>
<path d="m70.755 47.339c4.7947 0.3036 9.6704 4.5326 12.563 8.992 2.5915 3.9949 4.8409 7.7101 8.4824 8.9226 2.2552 0.75094 4.7494 1.6317 6.4589 2.3441" fill="none" stroke="#000" stroke-dashoffset="4.58"/>
<path d="m64.455 85.872c3.1374-4.7556 10.404-7.9781 15.028-8.2104 3.3262-0.16705 8.4382-0.77345 11.589-1.915 1.4247-0.51618 5.7082-1.1183 7.1875-1.0238" fill="none" stroke="#000" stroke-dashoffset="4.58"/>
<path d="m103.59 76.694c6.8413-0.59945 12.887 7.3559 12.784 13.691-0.0825 5.059-0.80831 6.9611-3.534 10.793-2.171 3.052-1.8586 10.819-4.0094 18.068-1.0591 3.5695-3.2572 4.5233-4.9375 4.5-2.1198-0.0294-3.7666-3.5652-4.2187-10.438-0.33738-5.1275-4.2972-5.5356-7.1494-10.625-4.1461-7.3978-2.7506-16.445 1.4527-19.824 3.7966-3.0518 5.8351-5.8341 9.6127-6.1651z" fill="#fff" stroke="#000" stroke-dashoffset="4.58"/>
<path d="m104.94 108.15c-0.30611-3.8542-2.2005-10.021-3.3486-12.562-1.9606-4.3395-1.5704-8.3345-0.21967-11.862 0.85003-2.2198 2.3782-4.794 2.6159-6.6307" fill="none" stroke="#000" stroke-dashoffset="4.58"/>
<path d="m139.01 46.46c-3.4909 1.662-11.001 8.905-12.686 11.127-2.9706 3.919-5.122 5.6456-8.3852 6.8995-2.2188 0.8526-5.8701 1.9861-7.3419 3.1104" fill="none" stroke="#000" stroke-dashoffset="4.58"/>
<path d="m145.09 83.756c-3.1848-2.1922-13.635-3.8955-16.408-3.6003-6.8437 0.72853-8.9952 0.33326-12.106-2.2935-1.8162-1.5334-4.2632-2.4271-5.9728-3.1396" fill="none" stroke="#000" stroke-dashoffset="4.58"/>
<path d="m110.42 66.493c0.92733 0.08067 3.1808 1.4823 1.5948 4.1547 1.0234 1.2765 1.2079 3.4889-1.0276 4.3719 1.0128 1.8121-1.2221 4.6776-3.7316 3.2077-0.44321 0.99591-3.6428 2.9733-5.5938 0.01874-0.92146 0.62806-4.3416 1.0833-3.6279-2.9802-1.7349-0.37415-3.0993-2.4492-1.1663-4.7722-0.96234-1.3946-0.93094-4.9757 2.5174-4.9966-0.15658-1.4391 2.9061-5.275 5.659-1.8965 2.8754-2.4469 5.7948 1.3033 5.3761 2.8924z" fill="#feeb00" stroke="#000" stroke-dashoffset="4.58"/>
<path d="m1 1 3.7611 158c2.6865 112.86 196.65 112.86 199.34 0l3.7611-158z" fill="none" stroke="#000" stroke-width="2"/>
</svg>
