<?xml version="1.0" encoding="UTF-8" standalone="no"?>
<svg
   xmlns:dc="http://purl.org/dc/elements/1.1/"
   xmlns:cc="http://creativecommons.org/ns#"
   xmlns:rdf="http://www.w3.org/1999/02/22-rdf-syntax-ns#"
   xmlns:svg="http://www.w3.org/2000/svg"
   xmlns="http://www.w3.org/2000/svg"
   xmlns:sodipodi="http://sodipodi.sourceforge.net/DTD/sodipodi-0.dtd"
   xmlns:inkscape="http://www.inkscape.org/namespaces/inkscape"
   version="1.0"
   width="208.86046"
   height="244.65999"
   id="svg2780"
   inkscape:version="0.92.4 (5da689c313, 2019-01-14)"
   sodipodi:docname="1366.svg">
  <metadata
     id="metadata27">
    <rdf:RDF>
      <cc:Work
         rdf:about="">
        <dc:format>image/svg+xml</dc:format>
        <dc:type
           rdf:resource="http://purl.org/dc/dcmitype/StillImage" />
        <dc:title />
      </cc:Work>
    </rdf:RDF>
  </metadata>
  <sodipodi:namedview
     pagecolor="#ffffff"
     bordercolor="#666666"
     borderopacity="1"
     objecttolerance="10"
     gridtolerance="10"
     guidetolerance="10"
     inkscape:pageopacity="0"
     inkscape:pageshadow="2"
     inkscape:window-width="3259"
     inkscape:window-height="1417"
     id="namedview25"
     showgrid="false"
     inkscape:zoom="2.8284271"
     inkscape:cx="271.62296"
     inkscape:cy="145.50488"
     inkscape:window-x="-8"
     inkscape:window-y="-8"
     inkscape:window-maximized="1"
     inkscape:current-layer="svg2780"
     inkscape:measure-start="104.255,149.787"
     inkscape:measure-end="104.255,126.383"
     showguides="true"
     inkscape:object-paths="true"
     inkscape:snap-intersection-paths="true"
     inkscape:document-rotation="0" />
  <defs
     id="defs2782" />
  <path
     inkscape:connector-curvature="0"
     style="fill:#feeb00;fill-opacity:1;fill-rule:evenodd;stroke:#000000;stroke-width:1.99999988;stroke-linecap:butt;stroke-miterlimit:4;stroke-dashoffset:0;stroke-opacity:1"
     id="path4212"
     d="m 1,1 3.761095,158.00304 c 2.686489,112.85918 196.651755,112.85918 199.338255,0 L 207.86045,1 Z" />
  <g
     id="g6029"
     transform="translate(2)">
    <path
       sodipodi:nodetypes="csccsc"
       d="m 164.58015,131.24656 c -2.20727,0 -5,1.8691 -5,5 v 57.03369 h 10 v -57.03369 c 0,-3.1309 -2.79273,-5 -5,-5"
       style="opacity:1;fill:#009645;fill-opacity:1;stroke:#000000;stroke-width:1;stroke-miterlimit:9;stroke-dasharray:none;stroke-dashoffset:4.57999992;stroke-opacity:1"
       id="path5534-5-1-2-4"
       inkscape:connector-curvature="0" />
    <path
       sodipodi:nodetypes="csccsc"
       inkscape:connector-curvature="0"
       d="m 167.11048,132.09749 c -2.20727,0 -5,1.8691 -5,5 v 56.18276 h 10 v -56.18276 c 0,-3.1309 -2.79273,-5 -5,-5"
       style="opacity:1;fill:#009645;fill-opacity:1;stroke:#000000;stroke-width:1;stroke-miterlimit:9;stroke-dasharray:none;stroke-dashoffset:4.57999992;stroke-opacity:1"
       id="path5534-5-15-6" />
    <path
       sodipodi:nodetypes="cc"
       inkscape:connector-curvature="0"
       id="path5567-7-8"
       d="m 165.78312,131.41737 3.20142,1.08744"
       style="opacity:1;fill:none;fill-opacity:1;stroke:#000000;stroke-width:1;stroke-miterlimit:9;stroke-dasharray:none;stroke-dashoffset:4.57999992;stroke-opacity:1" />
  </g>
  <g
     id="g6024"
     transform="translate(-2)">
    <path
       d="m 39.280328,187.12156 v -50.875 c 0,-3.1309 2.792727,-5 5,-5 m 0,0 c 2.207273,0 5,1.8691 5,5 v 50.875 h -10"
       style="opacity:1;fill:#009645;fill-opacity:1;stroke:#000000;stroke-width:1;stroke-miterlimit:9;stroke-dasharray:none;stroke-dashoffset:4.57999992;stroke-opacity:1"
       id="path5534-5-1-2"
       inkscape:connector-curvature="0" />
    <path
       inkscape:connector-curvature="0"
       d="m 36.75,187.97249 v -50.875 c 0,-3.1309 2.792727,-5 5,-5 m 0,0 c 2.207273,0 5,1.8691 5,5 v 50.875 h -10"
       style="opacity:1;fill:#009645;fill-opacity:1;stroke:#000000;stroke-width:1;stroke-miterlimit:9;stroke-dasharray:none;stroke-dashoffset:4.57999992;stroke-opacity:1"
       id="path5534-5-15" />
    <path
       sodipodi:nodetypes="cc"
       inkscape:connector-curvature="0"
       id="path5567-7"
       d="m 43.07736,131.41737 -3.201418,1.08744"
       style="opacity:1;fill:none;fill-opacity:1;stroke:#000000;stroke-width:1;stroke-miterlimit:9;stroke-dasharray:none;stroke-dashoffset:4.57999992;stroke-opacity:1" />
  </g>
  <path
     id="path5569-4-6-0"
     style="opacity:1;fill:#009645;fill-opacity:1;stroke:#000000;stroke-width:1;stroke-miterlimit:9;stroke-dasharray:none;stroke-dashoffset:4.57999992;stroke-opacity:1"
     d="m 74.27719,169.11511 2.769766,-10.72572 -41.005821,-10.58917 -16.568273,-4.27058 -2.191612,1.86324 v 9.01178 l 15.990119,4.12128 z"
     inkscape:connector-curvature="0"
     sodipodi:nodetypes="cccccccc" />
  <path
     id="path5569-4-6-0-0"
     style="opacity:1;fill:#009645;fill-opacity:1;stroke:#000000;stroke-width:1;stroke-miterlimit:9;stroke-dasharray:none;stroke-dashoffset:4.57999992;stroke-opacity:1"
     d="m 134.58329,169.11511 -2.76976,-10.72572 41.00582,-10.58917 16.56827,-4.27058 2.19161,1.86324 v 9.01178 l -15.99012,4.12128 z"
     inkscape:connector-curvature="0"
     sodipodi:nodetypes="cccccccc" />
  <path
     style="opacity:1;fill:none;fill-opacity:1;stroke:#000000;stroke-width:1;stroke-miterlimit:9;stroke-dasharray:none;stroke-dashoffset:4.57999992;stroke-opacity:1"
     d="m 33.07736,132.97987 -3.201418,1.08744"
     id="path5567"
     inkscape:connector-curvature="0"
     sodipodi:nodetypes="cc" />
  <path
     id="path5569-4-6"
     style="opacity:1;fill:#009645;fill-opacity:1;stroke:#000000;stroke-width:1;stroke-miterlimit:9;stroke-dasharray:none;stroke-dashoffset:4.57999992;stroke-opacity:1"
     d="M 74.27719,171.55706 77.046956,160.83134 36.041135,150.24217 17.28125,145.39288 v 11.44411 l 15.990119,4.1309 z"
     inkscape:connector-curvature="0"
     sodipodi:nodetypes="ccccccc" />
  <path
     style="opacity:1;fill:none;fill-opacity:1;stroke:#000000;stroke-width:1;stroke-miterlimit:9;stroke-dasharray:none;stroke-dashoffset:4.57999992;stroke-opacity:1"
     d="m 79.999696,141.71783 -3.201418,1.08744"
     id="path5567-2"
     inkscape:connector-curvature="0"
     sodipodi:nodetypes="cc" />
  <path
     style="opacity:1;fill:none;fill-opacity:1;stroke:#000000;stroke-width:1;stroke-miterlimit:9;stroke-dasharray:none;stroke-dashoffset:4.57999992;stroke-opacity:1"
     d="m 128.91302,141.71783 3.20142,1.08744"
     id="path5567-2-1"
     inkscape:connector-curvature="0"
     sodipodi:nodetypes="cc" />
  <g
     id="g6034"
     transform="translate(0.7071068,0.3535534)">
    <path
       d="m 124.71005,193.42202 v -50.875 c 0,-3.1309 -2.79273,-5 -5,-5 m 0,0 c -2.20727,0 -5,1.8691 -5,5 v 50.875 h 10"
       style="opacity:1;fill:#009645;fill-opacity:1;stroke:#000000;stroke-width:1;stroke-miterlimit:9;stroke-dasharray:none;stroke-dashoffset:4.57999992;stroke-opacity:1"
       id="path5534-5-1-9-5-6"
       inkscape:connector-curvature="0" />
    <path
       sodipodi:nodetypes="csccsc"
       inkscape:connector-curvature="0"
       d="m 122.24038,138.39795 c -2.20727,0 -5,1.8691 -5,5 v 50.875 h 10 v -50.875 c 0,-3.1309 -2.79273,-5 -5,-5"
       style="opacity:1;fill:#009645;fill-opacity:1;stroke:#000000;stroke-width:1;stroke-miterlimit:9;stroke-dasharray:none;stroke-dashoffset:4.57999992;stroke-opacity:1"
       id="path5534-5-7-8-1" />
    <path
       sodipodi:nodetypes="cc"
       inkscape:connector-curvature="0"
       id="path5567-2-1-7"
       d="m 120.91302,137.71783 3.20142,1.08744"
       style="opacity:1;fill:none;fill-opacity:1;stroke:#000000;stroke-width:1;stroke-miterlimit:9;stroke-dasharray:none;stroke-dashoffset:4.57999992;stroke-opacity:1" />
  </g>
  <path
     id="path5569-4-6-2"
     style="opacity:1;fill:#009645;fill-opacity:1;stroke:#000000;stroke-width:1;stroke-miterlimit:9;stroke-dasharray:none;stroke-dashoffset:4.57999992;stroke-opacity:1"
     d="m 134.58329,171.55706 -2.76976,-10.72572 41.00582,-10.58917 18.75988,-4.84929 v 11.44411 l -15.99012,4.1309 z"
     inkscape:connector-curvature="0"
     sodipodi:nodetypes="ccccccc" />
  <path
     inkscape:connector-curvature="0"
     id="path5534-5-1-1"
     style="opacity:1;fill:#009645;fill-opacity:1;stroke:#000000;stroke-width:1;stroke-miterlimit:9;stroke-dasharray:none;stroke-dashoffset:4.57999992;stroke-opacity:1"
     d="m 179.58015,193.28025 v -55.47119 c 0,-3.1309 -2.79273,-5 -5,-5 m 0,0 c -2.20727,0 -5,1.8691 -5,5 v 55.47119 h 10"
     sodipodi:nodetypes="csccscc" />
  <path
     style="opacity:1;fill:none;fill-opacity:1;stroke:#000000;stroke-width:1;stroke-miterlimit:9;stroke-dasharray:none;stroke-dashoffset:4.57999992;stroke-opacity:1"
     d="m 175.78312,132.97987 3.20142,1.08744"
     id="path5567-4"
     inkscape:connector-curvature="0"
     sodipodi:nodetypes="cc" />
  <path
     id="path5534-5-2"
     style="opacity:1;fill:#009645;fill-opacity:1;stroke:#000000;stroke-width:1;stroke-miterlimit:9;stroke-dasharray:none;stroke-dashoffset:4.57999992;stroke-opacity:1"
     d="m 177.11048,133.65999 c 2.20727,0 5,1.8691 5,5 v 56.35508 h -10 v -56.35508 c 0,-3.1309 2.79273,-5 5,-5"
     inkscape:connector-curvature="0"
     sodipodi:nodetypes="csccsc" />
  <g
     id="g6062"
     transform="matrix(1.0586151,0,0,1.0586562,-5.8524625,-3.9387771)"
     style="stroke-width:0.94461209">
    <path
       sodipodi:nodetypes="csccc"
       inkscape:connector-curvature="0"
       id="path5778"
       d="m 119.0591,25.456886 c -0.11944,-4.623431 0.55302,-8.911762 7.73399,-10.915961 2.05333,-0.573083 3.69198,-1.467917 4.90555,-2.563262 -0.0624,4.110058 -0.31839,8.220116 -1.5468,12.330174 z"
       style="opacity:1;fill:#cc2918;fill-opacity:1;stroke:#000000;stroke-width:0.94461209;stroke-miterlimit:9;stroke-dasharray:none;stroke-dashoffset:4.57999992;stroke-opacity:1" />
    <path
       sodipodi:nodetypes="cccsssssccc"
       inkscape:connector-curvature="0"
       id="path5764"
       d="m 110,78.222488 c -7.23495,1.249922 -13.660553,1.104402 -17.5,-3.5 -0.983461,-1.669598 -2.244374,-2.828685 -4.6875,-1.8125 -5.661887,2.426877 -13.078837,2.733424 -20.68155,1.845499 -5.07393,-0.592587 -7.752614,-0.205702 -10.407728,2.695844 -0.841166,0.919239 8.016929,8.135289 8.838835,7.269942 1.656349,-1.743893 3.092913,-2.954885 4.39732,-0.972272 1.146025,1.741883 2.989564,1.742293 3.844893,0.751301 4.409494,-5.108883 8.370866,-3.537738 11.976622,-0.839689 4.98443,3.85162 9.738436,7.917205 16.307648,10.297242 z"
       style="opacity:1;fill:#cc2918;fill-opacity:1;stroke:#000000;stroke-width:0.94461209;stroke-miterlimit:9;stroke-dasharray:none;stroke-dashoffset:4.57999992;stroke-opacity:1" />
    <path
       sodipodi:nodetypes="cccc"
       inkscape:connector-curvature="0"
       id="path5766"
       d="m 72.611028,36.019293 c 1.095667,-4.963342 3.485919,-8.913531 7.292038,-11.75565 -2.631887,4.723156 -2.579999,9.254614 -1.944543,13.744388 z"
       style="opacity:1;fill:#ffffff;fill-opacity:1;stroke:#000000;stroke-width:0.94461209;stroke-miterlimit:9;stroke-dasharray:none;stroke-dashoffset:4.57999992;stroke-opacity:1" />
    <path
       sodipodi:nodetypes="ssscccss"
       inkscape:connector-curvature="0"
       id="path5768"
       d="m 46.0625,41.659988 c -1.483631,-2.133339 -3.610467,-2.974513 -4.1875,0.25 -2.698078,15.077101 9.779056,18.494017 24.375,15.1875 6.435826,-1.457951 13.002193,-3.201756 20.0625,-0.9375 12.628741,2.157136 14.56336,-2.870841 16.8125,-7.6875 -4.330832,-3.17028 -12.654252,-0.573488 -19.75,0.25 -7.101614,1.835937 -14.148822,4.036974 -21.25,3.375 -10.423387,-0.971672 -13.080772,-6.150019 -16.0625,-10.4375 z"
       style="opacity:1;fill:#cc2918;fill-opacity:1;stroke:#000000;stroke-width:0.94461209;stroke-miterlimit:9;stroke-dasharray:none;stroke-dashoffset:4.57999992;stroke-opacity:1" />
    <path
       sodipodi:nodetypes="cccccccccccccccccccccccccccccccccccccccccccccccccccccccccccccccccccccccccscssssscccsssccccccccccccccccccccccccsscscssc"
       inkscape:connector-curvature="0"
       id="path5770"
       d="m 91.923892,102.17797 2.209708,-3.358753 0.883884,5.303303 2.740039,-2.47488 1.414213,6.0988 2.032934,-1.76777 -3.270371,8.48528 3.181981,-1.14905 -1.414214,7.6014 3.181984,-2.42652 2.47487,3.66396 0.7955,-3.66396 3.97747,3.57557 2.65165,-5.12652 3.44715,4.59619 1.41421,-4.86136 3.97748,5.74524 2.12132,-5.21491 2.74004,5.03814 3.0052,-5.12653 2.56326,4.68458 2.20971,-4.77297 3.09359,4.24264 0.97227,-4.68458 2.20971,3.8007 1.41422,-5.03813 3.18198,5.3033 -0.0884,-5.83363 2.47487,1.5026 -0.26516,-4.86136 2.38648,0.97227 -0.97227,-5.48008 2.91682,1.14905 -0.53033,-4.59619 h 2.38648 l -2.03293,-4.596195 h 2.56326 l -1.59099,-4.065864 3.00521,0.883883 -1.85616,-5.833631 2.03293,0.53033 -1.67938,-3.358757 1.67938,-0.08839 -1.85615,-4.861359 2.20971,1.325825 -1.06066,-6.452349 2.38648,0.53033 -2.47487,-6.187185 2.91681,1.325826 -2.82842,-6.275573 2.56326,0.53033 -2.82843,-3.623922 3.0052,-0.265165 -3.71231,-4.242641 2.20971,-0.353553 -3.18198,-3.005204 3.00521,-1.237437 -3.35876,-3.005204 3.09359,-1.679379 -4.06586,-3.270368 3.09359,-0.265165 -4.24264,-3.358758 3.18198,-1.325825 -4.94975,-2.740039 2.38649,-1.149048 -4.5962,-2.032932 2.2981,-1.414214 -5.21491,-1.767767 2.56326,-2.740039 -5.12653,-1.414213 1.94455,-2.12132 -5.12653,-0.707107 c 2.43268,-3.445973 4.7219,-7.028233 5.51507,-12.031733 -2.0463,0.956533 -3.8448,1.561257 -5.75,1.78125 -5.15453,0.595192 -9.0424,3.141508 -11.65625,6.9375 -6.50366,1.419272 -11.87389,5.464407 -17.8073,8.395313 -12.010508,5.932784 -24.44003,10.185593 -36.2552,3.792187 -1.996952,-1.080588 -3.86533,-2.395886 -6.5,-2.40625 -3.008618,-0.01183 -4.21875,4.98062 -4.21875,7.875 0,3.411156 1.36161,6.963734 4.375,7.65625 12.294061,2.825335 24.45436,3.774005 33.75,2.125 1.82479,-0.772045 2.68772,-0.01503 1.13036,1.650563 -2.375219,2.879844 -6.199613,5.102947 -15.708485,4.474437 -2.87092,-0.149647 -5.256162,0.642911 -7.4375,1.828125 -1.615976,0.878029 -1.196037,1.867326 -0.07813,2.59375 2.929433,1.903566 5.38017,2.917319 6.71875,1.84375 3.53905,-2.838392 8.525267,-2.043243 14.234375,1.09375 l 1.484375,2.46875 2.234385,-4.421875 1.71875,2.984375 2.21875,-3.140625 1.45312,3.4375 2.625,-2.21875 0.0672,3.631013 3.40159,-1.756013 0.25,3.875 -4.0625,3.1875 2.4375,0.875 -5.02075,2.8125 2.64575,1.021701 -4.66771,2.395754 2.89696,1.581835 -4.41675,2.00071 2.5625,1.3125 -4.4375,2.5 2.125,0.375 -4.187505,3 2.375005,0.1875 -2.375005,2.6875 c -2.29307,-0.428615 -4.398852,-1.196688 -6.220974,-2.478895 -3.396756,-2.689028 -6.12752,-0.819916 -7.700834,0.729204 -4.576017,4.505649 -10.222733,5.130859 -15.534252,4.77297 -2.939347,-0.198052 -4.126513,0.453229 -5.966214,1.811962 -0.46564,0.370339 1.55463,4.433151 3.57162,5.836001 2.863563,1.99166 6.976692,2.42762 7.267001,1.89797 1.11456,-2.72979 1.804164,-4.07179 3.325612,-2.16551 1.737728,2.17726 4.831172,0.36619 7.468815,-2.032927 4.353098,-3.959435 4.963631,0.665207 6.275583,2.209707 z"
       style="opacity:1;fill:#cc2918;fill-opacity:1;stroke:#000000;stroke-width:0.94461209;stroke-miterlimit:9;stroke-dasharray:none;stroke-dashoffset:4.57999992;stroke-opacity:1" />
    <path
       sodipodi:nodetypes="cc"
       inkscape:connector-curvature="0"
       id="path5772"
       d="m 125.90625,21.878738 c -1.41179,1.971069 -2.46407,4.144357 -3.55468,6.296089"
       style="opacity:1;fill:none;fill-opacity:1;stroke:#000000;stroke-width:0.94461209;stroke-miterlimit:9;stroke-dasharray:none;stroke-dashoffset:4.57999992;stroke-opacity:1" />
    <path
       sodipodi:nodetypes="cc"
       inkscape:connector-curvature="0"
       id="path5774"
       d="m 127.54439,27.534012 c 1.44585,-4.278487 3.87102,-7.805398 8.88302,-9.347068"
       style="opacity:1;fill:none;fill-opacity:1;stroke:#000000;stroke-width:0.94461209;stroke-miterlimit:9;stroke-dasharray:none;stroke-dashoffset:4.57999992;stroke-opacity:1" />
    <path
       sodipodi:nodetypes="cc"
       inkscape:connector-curvature="0"
       id="path5776"
       d="m 137.79743,25.191721 c -1.10708,1.62297 -2.36871,3.022697 -3.60182,4.463611"
       style="opacity:1;fill:none;fill-opacity:1;stroke:#000000;stroke-width:0.94461209;stroke-miterlimit:9;stroke-dasharray:none;stroke-dashoffset:4.57999992;stroke-opacity:1" />
    <path
       inkscape:connector-curvature="0"
       id="path5780"
       d="m 113.56254,67.659988 3.15621,-2.625 1.59375,3.875 2.4375,-3.375 2.8125,2.875 1.46875,-4.5625 3.21875,2.84375 0.40625,-3.65625 4.46875,1.84375 -1.625,-4.34375 4.5625,1.125 -2.5625,-3.75 4.125,-0.0625 -3.09375,-4.1875"
       style="opacity:1;fill:none;fill-opacity:1;stroke:#000000;stroke-width:0.94461209;stroke-miterlimit:9;stroke-dasharray:none;stroke-dashoffset:4.57999992;stroke-opacity:1" />
    <path
       sodipodi:nodetypes="cccccccccccccccccccc"
       inkscape:connector-curvature="0"
       id="path5782"
       d="m 128.5625,94.972488 0.0937,2 -1.59375,0.0625 -0.25,2.5625 -2.46875,-0.1875 0.65625,3.968752 -4.125,-1.9375 0.3125,4.4375 -3.5,-1.21875 0.0625,4.46875 -3.78125,-2.6875 0.4375,4.5625 L 111,108.22249 v 5.28125 l -3.59375,-4.15625 -1.67479,4.26654 -1.30122,-4.8272 -2.54511,1.50444 0.031,-5.01494 -2.510825,2.26698"
       style="opacity:1;fill:none;fill-opacity:1;stroke:#000000;stroke-width:0.94461209;stroke-miterlimit:9;stroke-dasharray:none;stroke-dashoffset:4.57999992;stroke-opacity:1" />
    <path
       sodipodi:nodetypes="cccc"
       inkscape:connector-curvature="0"
       id="path5784"
       d="m 90.75,21.909988 c -6.898389,5.61111 -13.656858,16.298813 -6.173776,33.526604 l 5.487359,0.03608 C 83.372604,44.156967 83.942755,32.975726 90.75,21.909988 Z"
       style="opacity:1;fill:#ffffff;fill-opacity:1;stroke:#000000;stroke-width:0.94461209;stroke-miterlimit:9;stroke-dasharray:none;stroke-dashoffset:4.57999992;stroke-opacity:1" />
    <path
       sodipodi:nodetypes="csc"
       inkscape:connector-curvature="0"
       id="path5786"
       d="m 65.428264,31.66077 c 3.370044,0 4.509016,4.805431 4.509016,7.783572 0,5.533553 -2.895962,7.886729 -4.491119,7.734177"
       style="opacity:1;fill:none;fill-opacity:1;stroke:#000000;stroke-width:0.94461209;stroke-miterlimit:9;stroke-dasharray:none;stroke-dashoffset:4.57999992;stroke-opacity:1" />
    <path
       sodipodi:nodetypes="cscsc"
       inkscape:connector-curvature="0"
       id="path5788"
       d="m 107.09375,34.691238 c 1.44957,0.930067 3.13935,1.142003 4.6875,1.78125 3.13014,1.292464 5.94254,3.129963 7.90625,5.625 -5.05208,0.244578 -11.24161,2.887419 -14.09375,-1.125 -1.37377,-1.932641 0.19683,-4.234233 1.5,-6.28125 z"
       style="opacity:1;fill:#ffffff;fill-opacity:1;stroke:#000000;stroke-width:0.94461209;stroke-miterlimit:9;stroke-dasharray:none;stroke-dashoffset:4.57999992;stroke-opacity:1" />
    <path
       sodipodi:nodetypes="csscc"
       inkscape:connector-curvature="0"
       id="path5790"
       d="m 108.93864,35.886711 c -1.15247,1.298525 -1.273,2.579416 -0.68501,3.690213 0.68382,1.291825 2.49216,1.962401 4.24264,1.325825 1.67672,-0.609751 1.75389,-1.859832 1.81196,-2.916815 z"
       style="opacity:1;fill:#000000;fill-opacity:1;stroke:#000000;stroke-width:0.94461209;stroke-miterlimit:9;stroke-dasharray:none;stroke-dashoffset:4.57999992;stroke-opacity:1" />
    <path
       sodipodi:nodetypes="cc"
       inkscape:connector-curvature="0"
       id="path5792"
       d="m 99.437535,91.597488 c 7.866245,1.604301 14.581045,-3.32104 20.682225,-9.969807"
       style="opacity:1;fill:none;fill-opacity:1;stroke:#000000;stroke-width:0.94461209;stroke-miterlimit:9;stroke-dasharray:none;stroke-dashoffset:4.57999992;stroke-opacity:1" />
    <ellipse
       ry="1.6446766"
       rx="1.016466"
       cy="38.206905"
       cx="63.687859"
       id="path5794"
       style="opacity:1;fill:none;fill-opacity:1;stroke:#000000;stroke-width:0.94461209;stroke-miterlimit:9;stroke-dasharray:none;stroke-dashoffset:4.57999992;stroke-opacity:1" />
    <ellipse
       ry="1.6446766"
       rx="1.016466"
       cy="38.206905"
       cx="67.370277"
       id="path5794-7"
       style="opacity:1;fill:none;fill-opacity:1;stroke:#000000;stroke-width:0.94461209;stroke-miterlimit:9;stroke-dasharray:none;stroke-dashoffset:4.57999992;stroke-opacity:1" />
    <path
       sodipodi:nodetypes="csscsscc"
       inkscape:connector-curvature="0"
       id="path5922"
       d="m 74.244662,104.3651 c -3.997721,5.72187 -9.452623,7.65261 -16.195615,5.43637 -1.262617,-0.41499 -1.564396,-1.40939 -0.640815,-1.90035 1.748855,-0.92966 3.309917,-2.02226 4.811641,-3.298 -2.84912,0.52422 -5.461577,0.9966 -7.684262,-0.5469 -1.247541,-0.86633 -1.039729,-1.62194 0.220971,-1.85615 3.95359,-0.73448 6.534295,-3.075097 9.232026,-5.255535 z"
       style="opacity:1;fill:#cc2918;fill-opacity:1;stroke:#000000;stroke-width:0.94461209;stroke-miterlimit:9;stroke-dasharray:none;stroke-dashoffset:4.57999992;stroke-opacity:1" />
    <path
       sodipodi:nodetypes="cc"
       inkscape:connector-curvature="0"
       id="path5924"
       d="m 62.219873,104.60312 c 1.502542,-1.06009 4.403816,-3.69479 5.330953,-5.081212"
       style="opacity:1;fill:none;fill-opacity:1;stroke:#000000;stroke-width:0.94461209;stroke-miterlimit:9;stroke-dasharray:none;stroke-dashoffset:4.57999992;stroke-opacity:1" />
    <path
       sodipodi:nodetypes="csscsscc"
       inkscape:connector-curvature="0"
       id="path5922-0"
       d="m 65.129836,84.762499 c -4.026519,4.029285 -11.094702,7.241679 -16.959488,5.138756 -1.098174,-0.393771 -1.290737,-1.159193 -0.425396,-1.466953 1.638575,-0.58276 3.384435,-1.292175 4.74281,-2.158431 -2.59212,0.206769 -4.526336,0.32385 -6.396051,-0.978963 -1.049427,-0.731237 -0.804337,-1.284267 0.34282,-1.377446 3.597513,-0.292205 8.236106,-3.932303 10.19701,-5.765944 2.574712,0.691912 5.276586,2.858537 8.498295,6.608981 z"
       style="opacity:1;fill:#cc2918;fill-opacity:1;stroke:#000000;stroke-width:0.94461203;stroke-miterlimit:9;stroke-dasharray:none;stroke-dashoffset:4.57999992;stroke-opacity:1" />
    <path
       sodipodi:nodetypes="cc"
       inkscape:connector-curvature="0"
       id="path5924-3"
       d="m 52.487762,86.275871 c 2.970551,-1.542985 7.229883,-5.644887 7.659085,-6.336389"
       style="opacity:1;fill:none;fill-opacity:1;stroke:#000000;stroke-width:0.94461203;stroke-miterlimit:9;stroke-dasharray:none;stroke-dashoffset:4.57999992;stroke-opacity:1" />
  </g>
  <path
     style="opacity:1;fill:#009645;fill-opacity:1;stroke:#000000;stroke-width:1;stroke-miterlimit:9;stroke-dasharray:none;stroke-dashoffset:4.57999992;stroke-opacity:1"
     d="m 196.49146,192.7721 -3.27453,-3.97355 -3.00521,2.56326 -0.79549,-3.09359 -3.44715,3.18198 -1.41421,-2.82842 -1.06066,3.80069 -3.57031,-1.86341 -1.91957,3.29647 -1.32583,-3.18198 -1.41421,2.65165 -2.25352,-2.79809 -3.43062,2.75314 v -6.94509 l -2.80282,2.82583 -1.6638,-2.53949 -1.75134,1.62804 -2.18681,-1.86495 -2.34152,2.32557 -1.23744,-3.0052 -2.12132,3.18198 -3.27037,-2.65165 -1.23743,2.74004 -4.41942,-3.44715 -1.32582,2.82843 -2.12132,-2.12132 -0.7955,2.12132 -1.94454,-2.65165 -2.38649,3.35876 -1.41421,-3.44715 -2.30634,2.92932 -10.66495,0.74265 -2.12243,2.64408 -2.10501,-2.25292 -2.12089,2.30083 -2.34229,-2.65165 -2.03294,3.53554 -3.88232,-4.06586 v 2.29809 l -2.78423,-2.96101 -1.76836,1.45841 -1.89976,-2.74004 -2.563259,2.91681 -1.06066,-3.0052 -2.386485,1.94454 -1.325825,-2.29809 -2.121321,3.44714 -18.384776,-1.32582 -3.181981,-2.47488 -1.679378,2.65165 -1.06066,-2.12132 -2.209709,1.76777 -0.707107,-3.35876 -3.005204,2.65165 -2.298097,-3.44714 -2.209708,3.09359 -1.856156,-3.27037 -2.65165,3.18198 -2.032932,-3.27037 -0.972272,2.03294 -1.542972,-1.59099 -1.639009,2.47487 -2.563262,-1.5026 -0.53033,2.38648 -2.209708,-2.47487 -0.707107,1.14905 -1.237437,-2.38649 -2.386485,1.59099 -10.076272,-4.77297 -2.740039,2.03293 -2.916815,-2.47487 -1.679379,1.76777 -1.237437,-2.20971 -0.972272,1.67938 -3.535534,-2.2981 -0.795495,2.38648 -2.298097,-2.38648 -3.433041,2.78876 c 11.738716,37.61181 45.781878,59.68388 96.107631,61.51766 50.12202,-1.69294 77.95543,-23.1467 92.06122,-50.87532 z"
     id="path5944"
     inkscape:connector-curvature="0"
     sodipodi:nodetypes="cccccccccccccccccccccccccccccccccccccccccccccccccccccccccccccccccccccccccccccccc" />
  <g
     id="g6039"
     transform="translate(-0.7071068,0.3535534)">
    <path
       sodipodi:nodetypes="csccsc"
       d="m 89.202664,137.54702 c -2.207273,0 -5,1.8691 -5,5 v 53.375 h 10 v -53.375 c 0,-3.1309 -2.792727,-5 -5,-5"
       style="opacity:1;fill:#009645;fill-opacity:1;stroke:#000000;stroke-width:1;stroke-miterlimit:9;stroke-dasharray:none;stroke-dashoffset:4.57999992;stroke-opacity:1"
       id="path5534-5-1-9-8"
       inkscape:connector-curvature="0" />
    <path
       sodipodi:nodetypes="csccsc"
       inkscape:connector-curvature="0"
       d="m 86.672336,138.39795 c -2.207273,0 -5,1.8691 -5,5 v 53.6875 h 10 v -53.6875 c 0,-3.1309 -2.792727,-5 -5,-5"
       style="opacity:1;fill:#009645;fill-opacity:1;stroke:#000000;stroke-width:1;stroke-miterlimit:9;stroke-dasharray:none;stroke-dashoffset:4.57999992;stroke-opacity:1"
       id="path5534-5-7-3" />
    <path
       sodipodi:nodetypes="cc"
       inkscape:connector-curvature="0"
       id="path5567-2-8"
       d="m 87.999696,137.71783 -3.201418,1.08744"
       style="opacity:1;fill:none;fill-opacity:1;stroke:#000000;stroke-width:1;stroke-miterlimit:9;stroke-dasharray:none;stroke-dashoffset:4.57999992;stroke-opacity:1" />
  </g>
  <path
     id="path5569-4-8"
     style="opacity:1;fill:#009645;fill-opacity:1;stroke:#000000;stroke-width:1;stroke-miterlimit:9;stroke-dasharray:none;stroke-dashoffset:4.57999992;stroke-opacity:1"
     d="m 127.24038,170.78499 v -11.8125 H 104.43024 81.672336 v 11.8125 h 22.757904 z"
     inkscape:connector-curvature="0"
     sodipodi:nodetypes="ccccccc" />
  <path
     id="path5569-4"
     style="opacity:1;fill:#009645;fill-opacity:1;stroke:#000000;stroke-width:1;stroke-miterlimit:9;stroke-dasharray:none;stroke-dashoffset:4.57999992;stroke-opacity:1"
     d="m 127.24038,173.28499 v -11.8125 h -22.81014 l -22.757904,0 v 11.8125 l 22.757904,0 z"
     inkscape:connector-curvature="0"
     sodipodi:nodetypes="ccccccc" />
  <path
     inkscape:connector-curvature="0"
     id="path5534-5-1-9-5"
     style="opacity:1;fill:#009645;fill-opacity:1;stroke:#000000;stroke-width:1;stroke-miterlimit:9;stroke-dasharray:none;stroke-dashoffset:4.57999992;stroke-opacity:1"
     d="m 127.71005,141.54702 c -2.20727,0 -5,1.8691 -5,5 l 0,53.83601 h 10 l 0,-53.83601 c 0,-3.1309 -2.79273,-5 -5,-5"
     sodipodi:nodetypes="csccsc" />
  <path
     inkscape:connector-curvature="0"
     id="path5534-5-1-9"
     style="opacity:1;fill:#009645;fill-opacity:1;stroke:#000000;stroke-width:1;stroke-miterlimit:9;stroke-dasharray:none;stroke-dashoffset:4.57999992;stroke-opacity:1"
     d="m 86.202664,197.42202 v -50.875 c 0,-3.1309 -2.792727,-5 -5,-5 m 0,0 c -2.207273,0 -5,1.8691 -5,5 v 50.875 h 10" />
  <path
     style="opacity:1;fill:none;fill-opacity:1;stroke:#000000;stroke-width:1;stroke-miterlimit:9;stroke-dasharray:none;stroke-dashoffset:4.57999992;stroke-opacity:1"
     d="m 41.397109,215.88614 2.56326,-2.47488 1.06066,3.18198 2.74004,-2.82842 1.06066,3.0052 1.67938,-2.91681 1.23743,3.18198 1.23744,-3.71231 2.38648,2.56326 0.97228,-2.65165 1.32582,2.82842"
     id="path5502-5"
     inkscape:connector-curvature="0" />
  <path
     style="opacity:1;fill:none;fill-opacity:1;stroke:#000000;stroke-width:1;stroke-miterlimit:9;stroke-dasharray:none;stroke-dashoffset:4.57999992;stroke-opacity:1"
     d="m 68.443935,215.17903 2.65165,-4.06587 1.32583,3.44715 1.06066,-2.38649 3.0052,2.03294 1.67938,-2.56327 2.20971,3.27037 1.59099,-2.74004 1.5026,3.27037 1.94455,-3.35875 2.91681,3.27036 4.06587,-3.44714 1.59099,3.62392 1.76776,-2.82843 1.76777,2.47488"
     id="path5504-5"
     inkscape:connector-curvature="0" />
  <path
     style="opacity:1;fill:none;fill-opacity:1;stroke:#000000;stroke-width:1;stroke-miterlimit:9;stroke-dasharray:none;stroke-dashoffset:4.57999992;stroke-opacity:1"
     d="m 107.06964,222.1617 2.38649,-3.09359 1.23744,2.38648 1.14905,-2.20971 1.76776,3.35876 1.5026,-3.53553 2.2981,3.0052"
     id="path5506-2"
     inkscape:connector-curvature="0" />
  <path
     style="opacity:1;fill:none;fill-opacity:1;stroke:#000000;stroke-width:1;stroke-miterlimit:9;stroke-dasharray:none;stroke-dashoffset:4.57999992;stroke-opacity:1"
     d="m 128.01768,215.62097 2.82843,-1.94455 2.20971,3.71231 1.14904,-3.27037 1.76777,2.74004 3.09359,-3.27037 0.17678,3.00521 2.91682,-3.18198 1.06066,2.74004 2.82842,-3.27037 c 0,0 0.97227,4.24264 1.23744,3.88908 0.26516,-0.35355 1.76777,-2.65165 1.76777,-2.65165 l 2.56326,2.2981 1.59099,-2.74004 3.88909,2.65165 1.06066,-1.76776 2.03293,3.71231 1.67938,-3.8007 0.7071,1.59099 0.97228,-1.5026 2.2097,2.47487"
     id="path5508-7"
     inkscape:connector-curvature="0" />
  <path
     style="opacity:1;fill:none;fill-opacity:1;stroke:#000000;stroke-width:1;stroke-miterlimit:9;stroke-dasharray:none;stroke-dashoffset:4.57999992;stroke-opacity:1"
     d="m 160.89381,207.28855 2.12132,-3.18198 1.32583,3.18198 1.06066,-2.2981 2.03293,2.38649 1.76777,-2.12132 0.88388,1.67938 1.67938,-2.56327 1.94454,2.74004"
     id="path5880-9"
     inkscape:connector-curvature="0" />
  <path
     id="path5534-5-7"
     style="opacity:1;fill:#009645;fill-opacity:1;stroke:#000000;stroke-width:1;stroke-miterlimit:9;stroke-dasharray:none;stroke-dashoffset:4.57999992;stroke-opacity:1"
     d="m 83.672336,198.27295 v -50.875 c 0,-3.1309 -2.792727,-5 -5,-5 m 0,0 c -2.207273,0 -5,1.8691 -5,5 v 50.875 h 10"
     inkscape:connector-curvature="0" />
  <path
     id="path5534-5-7-8"
     style="opacity:1;fill:#009645;fill-opacity:1;stroke:#000000;stroke-width:1;stroke-miterlimit:9;stroke-dasharray:none;stroke-dashoffset:4.57999992;stroke-opacity:1"
     d="m 130.24038,142.39795 c 2.20727,0 5,1.8691 5,5 v 52.73116 h -10 l 0,-52.73116 c 0,-3.1309 2.79273,-5 5,-5"
     inkscape:connector-curvature="0"
     sodipodi:nodetypes="csccsc" />
  <path
     style="opacity:1;fill:#009645;fill-opacity:1;stroke:#000000;stroke-width:1;stroke-miterlimit:9;stroke-dasharray:none;stroke-dashoffset:4.57999992;stroke-opacity:1"
     d="m 46.78446,202.69236 1.67938,-1.67938 2.82843,1.76776 2.38649,-3.18198 3.712309,3.53554 0.79549,-3.62392 1.41422,1.5026 1.67937,-3.44715 2.56327,3.09359 3.88908,-4.5078 2.47488,3.0052 4.24264,-3.18198 2.12132,2.20971 0.61872,-2.03293 1.94454,2.56326 1.32583,-3.09359 3.09359,1.76776 1.5026,-3.44714 3.71231,2.2981 1.679381,-4.15426 0.53033,1.67938 1.59099,-1.06066 0.79549,2.12132 2.38649,-2.03293 1.14905,2.20971 h 2.121318 l 1.325812,3.71231"
     id="path5882-2"
     inkscape:connector-curvature="0" />
  <path
     style="opacity:1;fill:#009645;fill-opacity:1;stroke:#000000;stroke-width:1;stroke-miterlimit:9;stroke-dasharray:none;stroke-dashoffset:4.57999992;stroke-opacity:1"
     d="m 113.60605,202.3388 2.12132,-3.71231 1.67937,1.94455 1.14905,-2.12133 1.85616,1.41422 2.38648,-2.47488 2.20971,3.00521 2.91682,-3.71231 1.41421,1.14905 1.32583,-1.67938 3.27037,1.14905 1.5026,-1.67938 3.53553,1.23743 1.67938,-2.12132 3.88909,2.2981 0.88388,-1.94454 2.65165,2.74004 1.23744,-2.82843 2.51907,5.12653"
     id="path5884-5"
     inkscape:connector-curvature="0"
     sodipodi:nodetypes="ccccccccccccccccccc" />
  <path
     inkscape:connector-curvature="0"
     id="path5534-5-1"
     style="opacity:1;fill:#009645;fill-opacity:1;stroke:#000000;stroke-width:1;stroke-miterlimit:9;stroke-dasharray:none;stroke-dashoffset:4.57999992;stroke-opacity:1"
     d="m 34.280328,132.80906 c 2.207273,0 5,1.8691 5,5 v 54.59278 h -10 v -54.59278 c 0,-3.1309 2.792727,-5 5,-5"
     sodipodi:nodetypes="csccsc" />
  <path
     inkscape:connector-curvature="0"
     id="path5534-5"
     style="opacity:1;fill:#009645;fill-opacity:1;stroke:#000000;stroke-width:1;stroke-miterlimit:9;stroke-dasharray:none;stroke-dashoffset:4.57999992;stroke-opacity:1"
     d="m 31.75,133.65999 c -2.207273,0 -5,1.8691 -5,5 v 53.69378 h 10 v -53.69378 c 0,-3.1309 -2.792727,-5 -5,-5"
     sodipodi:nodetypes="csccsc" />
  <path
     style="opacity:1;fill:#009645;fill-opacity:1;stroke:#000000;stroke-width:1;stroke-miterlimit:9;stroke-dasharray:none;stroke-dashoffset:4.57999992;stroke-opacity:1"
     d="m 21.026795,193.1259 2.695849,-3.7565 1.06066,2.74004 2.82842,-3.27037 c 0,0 0.97227,4.24264 1.23744,3.88908 0.26516,-0.35355 1.76777,-2.65165 1.76777,-2.65165 l 2.56326,2.2981 1.59099,-2.74004 3.88909,2.65165 1.06066,-1.76776 2.03293,3.71231 1.67938,-3.8007 0.7071,1.59099 0.97228,-1.5026 2.298088,3.04939"
     id="path5508-7-7"
     inkscape:connector-curvature="0"
     sodipodi:nodetypes="ccccccccccccccc" />
  <path
     inkscape:connector-curvature="0"
     style="fill:none;fill-opacity:1;fill-rule:evenodd;stroke:#000000;stroke-width:1.99999988;stroke-linecap:butt;stroke-miterlimit:4;stroke-dashoffset:0;stroke-opacity:1"
     id="path4212-5"
     d="M 1,0.99999834 4.761095,159.00304 c 2.686489,112.85918 196.651755,112.85918 199.338255,0 l 3.7611,-158.00304166 z" />
  <circle
     style="opacity:1;fill:none;fill-opacity:1;stroke:#000000;stroke-width:1;stroke-miterlimit:9;stroke-dasharray:none;stroke-dashoffset:4.57999992;stroke-opacity:1"
     id="path5986"
     cx="130.24039"
     cy="166.43628"
     r="2.6907904" />
  <circle
     style="opacity:1;fill:none;fill-opacity:1;stroke:#000000;stroke-width:1;stroke-miterlimit:9;stroke-dasharray:none;stroke-dashoffset:4.57999992;stroke-opacity:1"
     id="path5986-4"
     cx="177.11047"
     cy="154.59222"
     r="2.6907904" />
  <circle
     style="opacity:1;fill:none;fill-opacity:1;stroke:#000000;stroke-width:1;stroke-miterlimit:9;stroke-dasharray:none;stroke-dashoffset:4.57999992;stroke-opacity:1"
     id="path5986-1"
     cx="78.672333"
     cy="166.43628"
     r="2.6907904" />
  <circle
     style="opacity:1;fill:none;fill-opacity:1;stroke:#000000;stroke-width:1;stroke-miterlimit:9;stroke-dasharray:none;stroke-dashoffset:4.57999992;stroke-opacity:1"
     id="path5986-7"
     cx="31.75"
     cy="154.59222"
     r="2.6907904" />
</svg>
