<?xml version="1.0" encoding="UTF-8" standalone="no"?>
<svg
   xmlns:dc="http://purl.org/dc/elements/1.1/"
   xmlns:cc="http://creativecommons.org/ns#"
   xmlns:rdf="http://www.w3.org/1999/02/22-rdf-syntax-ns#"
   xmlns:svg="http://www.w3.org/2000/svg"
   xmlns="http://www.w3.org/2000/svg"
   xmlns:sodipodi="http://sodipodi.sourceforge.net/DTD/sodipodi-0.dtd"
   xmlns:inkscape="http://www.inkscape.org/namespaces/inkscape"
   version="1.0"
   width="208.86046"
   height="244.65999"
   id="svg2780"
   inkscape:version="0.92.4 (5da689c313, 2019-01-14)"
   sodipodi:docname="1367.svg">
  <metadata
     id="metadata27">
    <rdf:RDF>
      <cc:Work
         rdf:about="">
        <dc:format>image/svg+xml</dc:format>
        <dc:type
           rdf:resource="http://purl.org/dc/dcmitype/StillImage" />
        <dc:title />
      </cc:Work>
    </rdf:RDF>
  </metadata>
  <sodipodi:namedview
     pagecolor="#ffffff"
     bordercolor="#666666"
     borderopacity="1"
     objecttolerance="10"
     gridtolerance="10"
     guidetolerance="10"
     inkscape:pageopacity="0"
     inkscape:pageshadow="2"
     inkscape:window-width="3259"
     inkscape:window-height="1417"
     id="namedview25"
     showgrid="false"
     inkscape:zoom="4"
     inkscape:cx="151.80751"
     inkscape:cy="62.943247"
     inkscape:window-x="-8"
     inkscape:window-y="-8"
     inkscape:window-maximized="1"
     inkscape:current-layer="svg2780"
     inkscape:measure-start="104.255,149.787"
     inkscape:measure-end="104.255,126.383"
     showguides="true"
     inkscape:object-paths="true"
     inkscape:snap-intersection-paths="true"
     inkscape:snap-object-midpoints="true"
     inkscape:document-rotation="0" />
  <defs
     id="defs2782" />
  <path
     inkscape:connector-curvature="0"
     style="fill:#feeb00;fill-opacity:1;fill-rule:evenodd;stroke:#000000;stroke-width:1.99999988;stroke-linecap:butt;stroke-miterlimit:4;stroke-dashoffset:0;stroke-opacity:1"
     id="path4212"
     d="m 1,1 3.761095,158.00304 c 2.686489,112.85918 196.651755,112.85918 199.338255,0 L 207.86045,1 Z" />
  <path
     style="opacity:1;fill:#cc2918;fill-opacity:1;stroke:#000000;stroke-width:1;stroke-miterlimit:9;stroke-dasharray:none;stroke-dashoffset:4.57999992;stroke-opacity:1"
     d="M 3.0540338,87.289653 1,1 h 206.86045 l -2.07805,88.767391 z"
     id="path7287"
     inkscape:connector-curvature="0" />
  <path
     id="path9987-9-9-4-6"
     style="opacity:1;fill:#ffffff;fill-opacity:1;stroke:#000000;stroke-width:1;stroke-miterlimit:20;stroke-dasharray:none;stroke-dashoffset:4.57999992;stroke-opacity:1"
     d="m 4.1499673,136.40823 c 8.9331137,-2.59849 17.5442807,-7.48618 26.8417217,-7.48618 12.663727,0 24.054238,9.06773 36.719278,9.06773 12.66504,0 24.055564,-9.06773 36.719283,-9.06773 12.66372,0 24.05423,9.06773 36.71927,9.06773 12.66504,0 24.05557,-9.06773 36.71928,-9.06773 9.18971,0 17.70894,4.77506 26.53129,7.39493 l 1.5557,-52.388374 c -9.381,-2.480647 -18.35828,-7.832278 -28.08699,-7.832278 -12.66371,0 -24.05424,9.06773 -36.71928,9.06773 -12.66504,0 -24.05555,-9.06773 -36.71927,-9.06773 -12.663719,0 -24.054243,9.06773 -36.719283,9.06773 -12.66504,0 -24.055551,-9.06773 -36.719278,-9.06773 -9.741818,0 -18.730193,5.366071 -28.1249304,7.842296 z"
     inkscape:connector-curvature="0"
     sodipodi:nodetypes="csssssccssssscc" />
  <path
     id="path901-1-4-6"
     style="opacity:1;fill:#ffffff;fill-opacity:1;stroke:#000000;stroke-width:1;stroke-miterlimit:4;stroke-dasharray:none;stroke-dashoffset:4.57999992;stroke-opacity:1"
     d="M 180.27832,56.813453 V 37.43873 h 19.37472 c 0,-3.229121 0,-6.458242 0,-9.687364 H 180.27832 V 8.376644 c -3.22913,0 -6.45824,0 -9.68737,0 v 19.374722 h -19.37471 c 0,3.229122 0,6.458243 0,9.687364 h 19.37471 v 19.374723 c 3.22913,0 6.45824,0 9.68737,0 z"
     inkscape:connector-curvature="0"
     sodipodi:nodetypes="ccccccccccccc" />
  <path
     style="opacity:1;fill:#1b63c6;fill-opacity:1;stroke:#000000;stroke-width:1;stroke-miterlimit:9;stroke-dasharray:none;stroke-dashoffset:4.57999992;stroke-opacity:1"
     d="m 9.9726029,187.04864 7.5282901,-10.2709 7.071068,1.76776 6.187184,-10.25304 h 5.303301 l 5.303301,-7.07107 3.358757,0.35355 2.828427,-3.35876 h 4.596194 l 4.419418,5.65686 v 7.95495 l 3.71231,-0.70711 3.712311,4.24264 4.949747,-0.7071 4.949748,7.77817 3.71231,-3.18198 8.308505,0.35355 2.474874,-5.3033 3.889087,-0.88388 1.414214,-6.01041 3.005203,-0.17677 4.419418,-6.8943 h 5.48008 l 3.53553,-5.3033 9.01561,1.23744 1.94455,8.13173 5.48007,3.88909 7.24785,1.94454 1.41421,6.89429 6.01041,3.71231 4.41942,-4.59619 4.59619,-3.71231 5.83363,1.76776 3.53554,-6.18718 6.0104,0.17678 4.77297,-8.48529 4.94975,1.94455 5.48008,-2.82843 5.65685,4.5962 1.94455,6.18718 6.18718,0.35355 2.12132,9.54594 4.32227,0.64875 c -15.6294,49.93756 -61.71064,62.4557 -96.64449,63.39251 -41.169457,0.69783 -81.042761,-20.62577 -94.4576371,-56.59878 z"
     id="path7262"
     inkscape:connector-curvature="0"
     sodipodi:nodetypes="ccccccccccccccccccccccccccccccccccccccccccccc" />
  <path
     style="opacity:1;fill:none;fill-opacity:1;stroke:#000000;stroke-width:1;stroke-miterlimit:9;stroke-dasharray:none;stroke-dashoffset:4.57999992;stroke-opacity:1"
     d="m 73.892659,182.43459 -1.705159,1.4754 -1.1875,4.59375 -7.6875,3.5625 -4.5625,5.96875"
     id="path7264"
     inkscape:connector-curvature="0" />
  <path
     style="opacity:1;fill:none;fill-opacity:1;stroke:#000000;stroke-width:1;stroke-miterlimit:9;stroke-dasharray:none;stroke-dashoffset:4.57999992;stroke-opacity:1"
     d="m 141.24458,180.8436 1.19102,0.73558 1.6894,4.23706 8.90625,1.71875 3.5625,5.90625 5.875,-0.96875 3.03125,3.8125 6.625,1.3125 2.625,6.5625 2.625,0.125 0.5,3.875"
     id="path7266"
     inkscape:connector-curvature="0"
     sodipodi:nodetypes="ccccccccccc" />
  <path
     style="opacity:1;fill:none;fill-opacity:1;stroke:#000000;stroke-width:1;stroke-miterlimit:9;stroke-dasharray:none;stroke-dashoffset:4.57999992;stroke-opacity:1"
     d="m 107.5,190.40999 4,9.25 6.5,-4.875 2.25,2.25 13.125,1.875 2.5,9.625 10,0.25 1.75,7.875 11.25,2.75"
     id="path7268"
     inkscape:connector-curvature="0" />
  <path
     style="opacity:1;fill:none;fill-opacity:1;stroke:#000000;stroke-width:1;stroke-miterlimit:9;stroke-dasharray:none;stroke-dashoffset:4.57999992;stroke-opacity:1"
     d="m 94.625,184.78499 -7.75,4.875 -2.125,7.75 -8.375,2 -6.25,8.5"
     id="path7270"
     inkscape:connector-curvature="0" />
  <path
     style="opacity:1;fill:none;fill-opacity:1;stroke:#000000;stroke-width:1;stroke-miterlimit:9;stroke-dasharray:none;stroke-dashoffset:4.57999992;stroke-opacity:1"
     d="m 42.375,170.03499 -6.125,9.125 -4.625,0.625 -0.25,7.75 -4.25,1.625 -2.75,9.625"
     id="path7272"
     inkscape:connector-curvature="0" />
  <path
     style="opacity:1;fill:none;fill-opacity:1;stroke:#000000;stroke-width:1;stroke-miterlimit:9;stroke-dasharray:none;stroke-dashoffset:4.57999992;stroke-opacity:1"
     d="m 175.36248,161.75172 -1.83123,3.75202 7,8.21875 -2.90625,7.0625"
     id="path7274"
     inkscape:connector-curvature="0" />
  <path
     style="opacity:1;fill:none;fill-opacity:1;stroke:#000000;stroke-width:1;stroke-miterlimit:9;stroke-dasharray:none;stroke-dashoffset:4.57999992;stroke-opacity:1"
     d="m 121.09204,164.40337 -7.15946,5.65685 -1.23744,6.36396 -9.36916,8.48529"
     id="path7276"
     inkscape:connector-curvature="0" />
  <path
     style="opacity:1;fill:none;fill-opacity:1;stroke:#000000;stroke-width:1;stroke-miterlimit:9;stroke-dasharray:none;stroke-dashoffset:4.57999992;stroke-opacity:1"
     d="m 126.57211,168.29246 -9.19238,8.04334 -4.68459,0.0884"
     id="path7278"
     inkscape:connector-curvature="0" />
  <path
     style="opacity:1;fill:none;fill-opacity:1;stroke:#000000;stroke-width:1;stroke-miterlimit:9;stroke-dasharray:none;stroke-dashoffset:4.57999992;stroke-opacity:1"
     d="m 125.125,182.90999 5.5,6 6.625,1.375"
     id="path7280"
     inkscape:connector-curvature="0" />
  <path
     style="opacity:1;fill:none;fill-opacity:1;stroke:#000000;stroke-width:1;stroke-miterlimit:9;stroke-dasharray:none;stroke-dashoffset:4.57999992;stroke-opacity:1"
     d="m 97.375,204.40999 -7.25,5 -0.875,6.625 -7.375,3.125 -6.625,5.375 -7.625,0.25"
     id="path7282"
     inkscape:connector-curvature="0" />
  <path
     style="opacity:1;fill:none;fill-opacity:1;stroke:#000000;stroke-width:1;stroke-miterlimit:9;stroke-dasharray:none;stroke-dashoffset:4.57999992;stroke-opacity:1"
     d="m 41.25,184.65999 1,8.375 4,1.75 2.25,8.125 4.5,1.5"
     id="path7284"
     inkscape:connector-curvature="0" />
  <path
     style="opacity:1;fill:none;fill-opacity:1;stroke:#000000;stroke-width:1;stroke-miterlimit:9;stroke-dasharray:none;stroke-dashoffset:4.57999992;stroke-opacity:1"
     d="m 111.5,199.65999 1.60394,3.76684 -2.35334,5.34749 7.51301,3.97747 1.32582,7.95496 8.04334,3.97747"
     id="path7289"
     inkscape:connector-curvature="0"
     sodipodi:nodetypes="cccccc" />
  <path
     style="opacity:1;fill:none;fill-opacity:1;stroke:#000000;stroke-width:1;stroke-miterlimit:9;stroke-dasharray:none;stroke-dashoffset:4.57999992;stroke-opacity:1"
     d="m 52.149125,158.21618 -3.270369,6.71752 1.502602,6.36396"
     id="path7291"
     inkscape:connector-curvature="0" />
  <path
     style="opacity:1;fill:none;fill-opacity:1;stroke:#000000;stroke-width:1;stroke-miterlimit:9;stroke-dasharray:none;stroke-dashoffset:4.57999992;stroke-opacity:1"
     d="m 110.13188,155.0342 4.68062,6.87579"
     id="path7293"
     inkscape:connector-curvature="0" />
  <path
     inkscape:connector-curvature="0"
     style="fill:none;fill-opacity:1;fill-rule:evenodd;stroke:#000000;stroke-width:1.99999988;stroke-linecap:butt;stroke-miterlimit:4;stroke-dashoffset:0;stroke-opacity:1"
     id="path4212-7"
     d="M 1,0.99999834 4.761095,159.00304 c 2.686489,112.85918 196.651755,112.85918 199.338255,0 l 3.7611,-158.00304166 z" />
</svg>
