<?xml version="1.0" encoding="UTF-8" standalone="no"?>
<svg
   xmlns:dc="http://purl.org/dc/elements/1.1/"
   xmlns:cc="http://creativecommons.org/ns#"
   xmlns:rdf="http://www.w3.org/1999/02/22-rdf-syntax-ns#"
   xmlns:svg="http://www.w3.org/2000/svg"
   xmlns="http://www.w3.org/2000/svg"
   xmlns:sodipodi="http://sodipodi.sourceforge.net/DTD/sodipodi-0.dtd"
   xmlns:inkscape="http://www.inkscape.org/namespaces/inkscape"
   version="1.0"
   width="208.86046"
   height="244.65999"
   id="svg2780"
   inkscape:version="0.92.4 (5da689c313, 2019-01-14)"
   sodipodi:docname="1373.svg">
  <metadata
     id="metadata27">
    <rdf:RDF>
      <cc:Work
         rdf:about="">
        <dc:format>image/svg+xml</dc:format>
        <dc:type
           rdf:resource="http://purl.org/dc/dcmitype/StillImage" />
        <dc:title />
      </cc:Work>
    </rdf:RDF>
  </metadata>
  <sodipodi:namedview
     pagecolor="#ffffff"
     bordercolor="#666666"
     borderopacity="1"
     objecttolerance="10"
     gridtolerance="10"
     guidetolerance="10"
     inkscape:pageopacity="0"
     inkscape:pageshadow="2"
     inkscape:window-width="3259"
     inkscape:window-height="1417"
     id="namedview25"
     showgrid="false"
     inkscape:zoom="1.4142136"
     inkscape:cx="-323.09637"
     inkscape:cy="129.97602"
     inkscape:window-x="-8"
     inkscape:window-y="-8"
     inkscape:window-maximized="1"
     inkscape:current-layer="svg2780"
     inkscape:measure-start="104.255,149.787"
     inkscape:measure-end="104.255,126.383"
     showguides="true"
     inkscape:object-paths="true"
     inkscape:snap-intersection-paths="true"
     inkscape:document-rotation="0" />
  <defs
     id="defs2782" />
  <path
     inkscape:connector-curvature="0"
     style="fill:#ffffff;fill-opacity:1;fill-rule:evenodd;stroke:#000000;stroke-width:1.99999988;stroke-linecap:butt;stroke-miterlimit:4;stroke-dashoffset:0;stroke-opacity:1"
     id="path4212"
     d="m 1,1 3.761095,158.00304 c 2.686489,112.85918 196.651755,112.85918 199.338255,0 L 207.86045,1 Z" />
  <path
     id="path10608-9"
     style="opacity:1;fill:#cc2918;fill-opacity:1;stroke:#000000;stroke-width:0.99999994;stroke-miterlimit:9;stroke-dasharray:none;stroke-dashoffset:4.57999992;stroke-opacity:1"
     d="m 90.15493,162.65078 v 70.24073 c 2.261318,-0.0319 2.984262,1.5293 4.74514,1.31994 9.12768,-1.08527 11.31818,-4.09509 13.38278,-3.89113 1.71206,0.16913 2.25864,2.48746 10.4227,2.57119 v -70.24073 z"
     inkscape:connector-curvature="0"
     sodipodi:nodetypes="ccssccc" />
  <path
     id="path10662-2-1"
     style="opacity:1;fill:#000000;fill-opacity:1;stroke:#000000;stroke-width:1;stroke-miterlimit:9;stroke-dasharray:none;stroke-dashoffset:4.57999992;stroke-opacity:1"
     d="m 142.28125,66.347508 c 1.01389,-5.880555 -0.57274,-9.191706 -6.15625,-10.6875 -10.57332,-2.832541 -9.17962,-8.33172 -6.125,-13 2.80041,-4.279784 7.57409,-7.407828 8.02145,-12.492417 0.72354,1.43371 1.37307,2.996295 1.60355,4.617417 9.19734,-7.924671 17.91709,-16.674667 27.875,-22.875 3.12787,-1.9475833 10.91624,-0.690442 8.375,6.375 -3.32038,8.909677 -23.71331,22.975371 -28.11861,26.489435 4.41552,2.716954 20.7089,-8.773138 31.61861,-15.739435 5.98884,-3.824123 9.32687,3.172172 5.625,8 -4.30407,7.186281 -23.27396,16.450746 -29.4218,19.636913 3.56827,3.116138 21.88177,-2.224337 31.5468,-6.636913 1.04328,22.732539 -27.99529,20.759341 -30.625,20.665291 4.23155,5.767563 19.03022,9.170987 29.125,8.709709 -2.87884,20.427583 -26.1046,7.696573 -35.89645,4.493495 -0.67005,3.000153 16.8279,27.653007 28.39645,36.006507 -7.13673,8.45398 -14.37175,2.55849 -21.625,-6 -0.99608,-0.80493 -14.15372,-17.950005 -21.15641,-26.987439 -1.17163,5.118637 9.75056,24.564949 17.03141,38.487439 -5.80993,2.32121 -11.12562,0.0844 -15.875,-7.375 -5.28171,-9.98627 -12.03714,-22.029143 -15.74892,-33.606157 -1.33024,4.765249 -4.26503,9.297245 -5.75108,11.481155 5.27697,11.419122 9.66535,22.362322 13.625,33.375002 0.44606,1.2406 0.44313,3.29144 -1.5,2.5 -4.1742,-1.70015 -6.70432,-5.3482 -9.5,-8.75 0.53926,9.10222 1.26651,16.99693 2.625,25.74805 l -3.1875,0.0625 0.14045,7.95643 c 4.69814,1.36537 8.55995,3.87176 10.54031,7.99915 1.39084,1.10579 1.53269,3.4393 0.50823,5.12652 -0.26984,2.12123 -1.28541,3.64956 -2.82842,4.46361 0.5548,-1.5894 1.23279,-3.09668 1.4584,-4.90555 -1.37653,-1.40149 -1.39702,-2.83937 -1.28163,-4.02167 -1.36302,-2.32346 -3.51222,-1.58756 -3.7565,-0.44194 -0.28369,1.33046 -0.39264,2.61721 -0.44194,3.88908 1.23905,2.17805 0.79617,3.75313 0.53033,5.39169 -0.57289,3.43957 -2.69597,4.53228 -4.552,5.87783 0.74208,-1.90338 1.96362,-3.69395 2.07712,-5.74524 -1.6629,-1.36673 -1.69226,-3.64983 -1.28163,-4.99395 1.02772,-7.57419 -3.40136,-7.43017 -4.41942,-6.31976 -1.52532,1.66368 -1.98278,3.25232 -2.56326,4.86136 0.27198,1.70462 -0.17164,3.02758 -1.14905,4.06586 -0.44124,1.35529 -0.27768,2.6012 -0.14506,3.92523 -0.78431,-0.88803 -1.37607,-2.02295 -1.49012,-3.43909 -1.03658,-1.06666 -1.64398,-2.63463 -0.61872,-4.24264 0.93218,-3.8546 2.39745,-7.35569 5.74524,-10.03208 l 0.34684,-9.42105 -2.63167,-0.0601 c 0.69742,-6.88099 -0.21702,-14.67475 -1.03293,-20.93122 -2.37923,4.1761 -3.9234,5.97619 -5.78683,8.31196 -1.86343,-2.33577 -3.4076,-4.13586 -5.786826,-8.31196 -0.81591,6.25647 -1.73035,14.05023 -1.03293,20.93122 l -2.63167,0.0601 0.34684,9.42105 c 3.34779,2.67639 4.813056,6.17748 5.745236,10.03208 1.02526,1.60801 0.41786,3.17598 -0.61872,4.24264 -0.11405,1.41614 -0.705806,2.55106 -1.490116,3.43909 0.13262,-1.32403 0.29618,-2.56994 -0.14506,-3.92523 -0.97741,-1.03828 -1.42103,-2.36124 -1.14905,-4.06586 -0.58048,-1.60904 -1.03794,-3.19768 -2.56326,-4.86136 -1.01806,-1.11041 -5.44714,-1.25443 -4.41942,6.31976 0.41063,1.34412 0.38127,3.62722 -1.28163,4.99395 0.1135,2.05129 1.33504,3.84186 2.07712,5.74524 -1.85603,-1.34555 -3.97911,-2.43826 -4.552,-5.87783 -0.26584,-1.63856 -0.70872,-3.21364 0.53033,-5.39169 -0.0493,-1.27187 -0.15825,-2.55862 -0.44194,-3.88908 -0.24428,-1.14562 -2.39348,-1.88152 -3.7565,0.44194 0.11539,1.1823 0.0949,2.62018 -1.28163,4.02167 0.22561,1.80887 0.9036,3.31615 1.4584,4.90555 -1.54301,-0.81405 -2.55858,-2.34238 -2.82842,-4.46361 -1.02446,-1.68722 -0.88261,-4.02073 0.50823,-5.12652 1.98036,-4.12739 5.84217,-6.63378 10.54031,-7.99915 l 0.14045,-7.95643 -3.1875,-0.0625 c 1.35849,-8.75112 2.08574,-16.64583 2.625,-25.74805 -2.79568,3.4018 -5.3258,7.04985 -9.5,8.75 -1.94313,0.79144 -1.94606,-1.2594 -1.5,-2.5 3.95965,-11.01268 8.34803,-21.95589 13.625,-33.375007 -1.48605,-2.18391 -4.42084,-6.715906 -5.75108,-11.481155 -3.71178,11.577014 -10.46721,23.619882 -15.74892,33.606162 -4.74938,7.4594 -10.06507,9.69621 -15.875,7.375 7.28085,-13.92249 18.20304,-33.368807 17.03141,-38.487444 -7.00269,9.037434 -20.16033,26.182514 -21.15641,26.987444 -7.25325,8.55849 -14.48827,14.45398 -21.625,6 11.56855,-8.3535 29.0665,-33.006359 28.39645,-36.006512 -9.79185,3.203078 -33.01761,15.934088 -35.89645,-4.493495 10.09478,0.461278 24.89345,-2.942146 29.125,-8.709709 -2.62971,0.09405 -31.66828,2.067248 -30.625,-20.665291 9.66503,4.412576 27.97853,9.753051 31.5468,6.636913 -6.14784,-3.186167 -25.11773,-12.450632 -29.4218,-19.636913 -3.70187,-4.827828 -0.36384,-11.824123 5.625,-8 10.90971,6.966297 27.20309,18.456389 31.61861,15.739435 -4.4053,-3.514064 -24.79823,-17.579758 -28.11861,-26.489434 -2.54124,-7.065442 5.24713,-8.322584 8.375,-6.375 9.95791,6.200333 18.67766,14.950328 27.875,22.874999 0.23048,-1.621122 0.88001,-3.183707 1.60355,-4.617417 0.44736,5.084589 5.22104,8.212633 8.02145,12.492417 3.05462,4.66828 4.44832,10.167459 -6.125,13 -5.58351,1.495794 -7.17014,4.806945 -6.15625,10.6875 10.15872,-4.56365 20.552986,-10.662741 30.295696,-17.14004 0.801735,-4.955849 0.911851,-9.337175 0.882582,-14.293024 -4.30666,0.915338 -7.285192,-0.431676 -9.590135,-2.342291 2.582988,-0.27618 3.859372,-1.124396 6.165087,-1.104855 1.958633,0.0166 2.502021,0.58768 5.192817,1.016466 -0.49749,-4.609246 -3.184058,-9.127592 -8.66206,-9.634329 -5.206974,-0.481666 -7.550265,2.73831 -9.545941,5.701048 0.08873,-8.484067 6.135206,-13.712156 16.351844,-16.661204 4.834616,-1.044127 9.240406,-0.05129 13.611806,1.104855 1.64166,0.591499 4.66366,-1.163569 7.42462,-2.474874 -0.58581,3.268062 -2.70433,4.422491 -4.77297,5.966213 12.12906,8.186072 2.66669,24.526782 -1.55758,33.54954 9.74271,6.477299 19.74753,11.74885 29.90625,16.3125 z"
     inkscape:connector-curvature="0"
     sodipodi:nodetypes="cssccsccscccccccccccccccccccccccccccccccccccccccccccccccccccccccccccccccccccccccccccccccccsccsccssccccscsccccccc" />
  <path
     style="opacity:1;fill:#cc2918;fill-opacity:1;stroke:#000000;stroke-width:1;stroke-miterlimit:9;stroke-dasharray:none;stroke-dashoffset:4.57999992;stroke-opacity:1"
     d="m 118.70555,205.32717 c 7.58459,-11.29035 17.52713,-16.76443 28.63783,-19.35704 l 1.14904,3.80069 c -14.61341,2.47506 -23.13137,11.49729 -29.78687,23.68808 z"
     id="path10610"
     inkscape:connector-curvature="0"
     sodipodi:nodetypes="ccccc" />
  <path
     style="opacity:1;fill:#cc2918;fill-opacity:1;stroke:#000000;stroke-width:1;stroke-miterlimit:9;stroke-dasharray:none;stroke-dashoffset:4.57999992;stroke-opacity:1"
     d="m 118.70555,221.23708 c 4.13765,-5.05344 11.42346,-5.60951 19.0035,-5.74525 l 0.53033,4.04978 c -8.18344,-0.70876 -15.22242,0.71174 -19.53383,7.17554 z"
     id="path10612"
     inkscape:connector-curvature="0"
     sodipodi:nodetypes="cccc" />
  <path
     style="opacity:1;fill:#cc2918;fill-opacity:1;stroke:#000000;stroke-width:1;stroke-miterlimit:9;stroke-dasharray:none;stroke-dashoffset:4.57999992;stroke-opacity:1"
     d="m 118.70555,189.3033 v 6.94638 c 1.38157,-4.64016 6.63338,-8.15228 10.02016,-11.12371 7.63483,-6.69848 15.44834,-13.81332 20.34751,-24.26017 l -3.80805,-1.05492 c -3.89328,8.1774 -10.29064,15.77939 -22.21708,25.20549 -1.33357,1.05399 -3.93237,2.84875 -4.34254,4.28693 z"
     id="path10614"
     inkscape:connector-curvature="0"
     sodipodi:nodetypes="ccsccsc" />
  <path
     style="opacity:1;fill:#cc2918;fill-opacity:1;stroke:#000000;stroke-width:1;stroke-miterlimit:9;stroke-dasharray:none;stroke-dashoffset:4.57999992;stroke-opacity:1"
     d="m 74.511377,28.241119 c 1.200291,3.9737 5.601449,5.275193 7.778175,2.563262 4.250823,-5.296 8.21521,-3.844664 10.562407,-3.447146 -3.602199,1.38541 -6.056589,2.871513 -8.883029,6.45235 -4.351091,5.512428 -10.986246,-1.505841 -9.457553,-5.568466 z"
     id="path10620"
     inkscape:connector-curvature="0"
     sodipodi:nodetypes="cscsc" />
  <path
     style="opacity:1;fill:#009645;fill-opacity:1;stroke:#000000;stroke-width:1;stroke-miterlimit:9;stroke-dasharray:none;stroke-dashoffset:4.57999992;stroke-opacity:1"
     d="m 161.8125,140.40999 c -3.13651,1.83177 -6.45954,1.53128 -9.75,1.75 -21.78881,1.4483 -16.61013,20.98896 -5.5625,19.625 8.77527,12.16879 20.27752,2.95572 16.3125,-12.1875 -0.84842,-3.24027 -1.82856,-6.13461 -1,-9.1875 z"
     id="path10622"
     inkscape:connector-curvature="0"
     sodipodi:nodetypes="cscsc" />
  <path
     style="opacity:1;fill:#009645;fill-opacity:1;stroke:#000000;stroke-width:1;stroke-miterlimit:9;stroke-dasharray:none;stroke-dashoffset:4.57999992;stroke-opacity:1"
     d="m 168.25,180.15999 c -2.73471,-0.51296 -4.4057,-0.9736 -7.1875,-2.625 -10.79616,-6.40909 -27.92709,1.42323 -15.375,10.5 -1.19199,9.57552 10.70914,15.18953 18.875,-1.625 1.37816,-2.8378 2.1548,-4.55692 3.6875,-6.25 z"
     id="path10624"
     inkscape:connector-curvature="0"
     sodipodi:nodetypes="cscsc" />
  <path
     style="opacity:1;fill:#009645;fill-opacity:1;stroke:#000000;stroke-width:1;stroke-miterlimit:9;stroke-dasharray:none;stroke-dashoffset:4.57999992;stroke-opacity:1"
     d="m 162.5,207.03499 c -3.80267,0.16902 -8.04587,0.49739 -11.4375,-0.875 -19.56195,-7.91556 -21.07134,7.14407 -14.9375,11.3125 -2.95933,16.90346 20.1056,12.97162 22.375,-2.3125 0.42706,-2.87616 2.3263,-5.46542 4,-8.125 z"
     id="path10626"
     inkscape:connector-curvature="0"
     sodipodi:nodetypes="cscsc" />
  <path
     style="opacity:1;fill:#cc2918;fill-opacity:1;stroke:#000000;stroke-width:1;stroke-miterlimit:9;stroke-dasharray:none;stroke-dashoffset:4.57999992;stroke-opacity:1"
     d="M 90.15493,202.98082 C 79.85196,190.78434 70.180305,184.14305 59.5171,181.69961 l -1.14904,3.80069 c 13.994876,2.81869 24.25916,13.90602 31.78687,25.61225 z"
     id="path10610-9"
     inkscape:connector-curvature="0"
     sodipodi:nodetypes="ccccc" />
  <path
     style="opacity:1;fill:#cc2918;fill-opacity:1;stroke:#000000;stroke-width:1;stroke-miterlimit:9;stroke-dasharray:none;stroke-dashoffset:4.57999992;stroke-opacity:1"
     d="m 90.15493,220.21656 c -4.13765,-5.05344 -14.17346,-9.23451 -21.7535,-9.37025 l -0.53033,4.04978 c 8.18344,-0.70876 17.97242,4.33674 22.28383,10.80054 z"
     id="path10612-8"
     inkscape:connector-curvature="0"
     sodipodi:nodetypes="ccccc" />
  <path
     style="opacity:1;fill:#cc2918;fill-opacity:1;stroke:#000000;stroke-width:1;stroke-miterlimit:9;stroke-dasharray:none;stroke-dashoffset:4.57999992;stroke-opacity:1"
     d="m 90.15493,186.42662 v 6.8138 C 88.77336,188.60026 83.30058,185.79524 79.9138,182.82381 72.27897,176.12533 61.63465,166.58632 56.73548,156.13947 l 4.25,-1.1875 c 3.89328,8.1774 12.76789,18.15937 24.82691,27.18772 1.3607,1.01873 3.93237,2.84875 4.34254,4.28693 z"
     id="path10614-4"
     inkscape:connector-curvature="0"
     sodipodi:nodetypes="ccsccsc" />
  <path
     style="opacity:1;fill:#ffffff;fill-opacity:1;stroke:#000000;stroke-width:1;stroke-miterlimit:9;stroke-dasharray:none;stroke-dashoffset:4.57999992;stroke-opacity:1"
     d="m 97.4375,17.909988 c -0.831155,3.838679 0.61225,5.777681 5.09597,6.362976 5.22107,0.681546 6.55826,-2.98919 9.32838,-7.958641 -5.34963,0.906511 -9.36431,1.384166 -14.42435,1.595665 z"
     id="path10734"
     inkscape:connector-curvature="0"
     sodipodi:nodetypes="cscc" />
  <path
     style="opacity:1;fill:#000000;fill-opacity:1;stroke:#000000;stroke-width:1;stroke-miterlimit:9;stroke-dasharray:none;stroke-dashoffset:4.57999992;stroke-opacity:1"
     d="m 101.18517,17.670111 c -0.21616,0.789177 -0.36091,1.827634 0.3646,2.474873 0.43635,0.389275 1.77561,0.812404 2.74004,-0.143631 0.72598,-0.719664 0.74079,-1.915801 0.83969,-2.850524 z"
     id="path10736"
     inkscape:connector-curvature="0"
     sodipodi:nodetypes="csscc" />
  <path
     style="opacity:1;fill:#009645;fill-opacity:1;stroke:#000000;stroke-width:1;stroke-miterlimit:9;stroke-dasharray:none;stroke-dashoffset:4.57999992;stroke-opacity:1"
     d="m 37.896072,175.40881 c 2.73471,-0.51296 5.4682,-1.87985 8.25,-3.53125 10.79616,-6.40909 27.395841,3.07948 14.84375,12.15625 1.19199,9.57552 -10.70914,15.18953 -18.875,-1.625 -1.37816,-2.8378 -2.68605,-5.30692 -4.21875,-7 z"
     id="path10624-9"
     inkscape:connector-curvature="0"
     sodipodi:nodetypes="cscsc" />
  <path
     style="opacity:1;fill:#009645;fill-opacity:1;stroke:#000000;stroke-width:1;stroke-miterlimit:9;stroke-dasharray:none;stroke-dashoffset:4.57999992;stroke-opacity:1"
     d="m 44.333572,135.65881 c 3.13651,1.83177 7.89704,1.28128 11.1875,1.5 21.788811,1.4483 15.172631,21.23896 4.125,19.875 -8.77527,12.16879 -20.27752,2.95572 -16.3125,-12.1875 0.84842,-3.24027 1.82856,-6.13461 1,-9.1875 z"
     id="path10622-3"
     inkscape:connector-curvature="0"
     sodipodi:nodetypes="cscsc" />
  <path
     style="opacity:1;fill:#009645;fill-opacity:1;stroke:#000000;stroke-width:1;stroke-miterlimit:9;stroke-dasharray:none;stroke-dashoffset:4.57999992;stroke-opacity:1"
     d="m 43.646072,202.28381 c 3.80267,0.16902 7.60837,-1.00261 11,-2.375 19.561951,-7.91556 21.508841,8.64407 15.375001,12.8125 2.95933,16.90346 -17.543101,12.72162 -21.437501,-2.1875 -0.73486,-2.8133 -3.2638,-5.59042 -4.9375,-8.25 z"
     id="path10626-3"
     inkscape:connector-curvature="0"
     sodipodi:nodetypes="cscsc" />
</svg>
