<?xml version="1.0" encoding="UTF-8"?>
<svg version="1.0" viewBox="0 0 603 763" xmlns="http://www.w3.org/2000/svg" xmlns:cc="http://creativecommons.org/ns#" xmlns:dc="http://purl.org/dc/elements/1.1/" xmlns:rdf="http://www.w3.org/1999/02/22-rdf-syntax-ns#" xmlns:xlink="http://www.w3.org/1999/xlink">
<metadata>
<rdf:RDF>
<cc:Work rdf:about="">
<dc:format>image/svg+xml</dc:format>
<dc:type rdf:resource="http://purl.org/dc/dcmitype/StillImage"/>
<dc:date>07-AUG-2006</dc:date>
<dc:creator>
<cc:Agent>
<dc:title>Jérôme BLUM (wagner51)</dc:title>
</cc:Agent>
</dc:creator>
<cc:license rdf:resource="http://creativecommons.org/licenses/GPL/2.0/"/>
<dc:coverage/>
<dc:description>Gabarit pour le Projet:Blasons de WIkipédia</dc:description>
<dc:subject>
<rdf:Bag>
<rdf:li>blason suisse modèle gabarit projet blasons</rdf:li>
</rdf:Bag>
</dc:subject>
<dc:language>fr</dc:language>
<dc:title>Gabrit d'un blason suisse</dc:title>
</cc:Work>
<cc:License rdf:about="http://creativecommons.org/licenses/GPL/2.0/">
<cc:permits rdf:resource="http://web.resource.org/cc/Reproduction"/>
<cc:permits rdf:resource="http://web.resource.org/cc/Distribution"/>
<cc:requires rdf:resource="http://web.resource.org/cc/Notice"/>
<cc:permits rdf:resource="http://web.resource.org/cc/DerivativeWorks"/>
<cc:requires rdf:resource="http://web.resource.org/cc/ShareAlike"/>
<cc:requires rdf:resource="http://web.resource.org/cc/SourceCode"/>
</cc:License>
</rdf:RDF>
</metadata>
<defs>
<radialGradient id="a" cx="858.04" cy="579.93" r="300" gradientTransform="matrix(1.215 1.5316e-24 1.4647e-23 1.2667 -839.19 -490.49)" gradientUnits="userSpaceOnUse">
<stop stop-color="#fff" stop-opacity=".31373" offset="0"/>
<stop stop-color="#fff" stop-opacity=".25098" offset=".19"/>
<stop stop-color="#6b6b6b" stop-opacity=".12549" offset=".6"/>
<stop stop-opacity=".12549" offset="1"/>
</radialGradient>
</defs>
<desc>Coat of Arms of Canton of Freiburg (Fribourg)</desc>
<g>
<path d="m1.5 1.5v458.87c0 166.31 134.31 301.13 300 301.13 165.69 0 300-134.82 300-301.13v-458.87h-600z" fill="#fcef3c"/>
<path d="m301.5 563.22c-51.057 0-64.927 46.365-58.625 77.25 0 0-44.752-39.077-81.313 3.156-22.214 25.661-17.713 55.854-4.656 80.625 42.887 23.729 92.162 37.25 144.59 37.25 52.433 0 101.71-13.521 144.6-37.25 13.058-24.771 17.559-54.964-4.656-80.625-36.557-42.233-81.312-3.156-81.312-3.156 6.305-30.885-7.571-77.25-58.627-77.25z" fill="#5ab532" stroke="#000" stroke-width="2.75"/>
<path d="m126.88 192.59s-9.859 15.739-21.118 21.736c-13.893 7.399-25.406-5.022-29.104-10.642 0 0-5.501 12.489 7.561 22.479 11.697 8.945 22.045 3.876 27.763-3.568 5.719-7.444 17.733-22.496 22.95-27.643l-8.052-2.362z" fill="#e20909" stroke="#000" stroke-linecap="round" stroke-linejoin="round" stroke-width="2.75"/>
<path d="m524 367.14c15.822 3.842 25.389-1.664 25.389-1.664-19.298-1.881-33.051-12.914-64.164-38.606-31.111-25.692-62.414-39.801-98.769-30.128-36.354 9.674-43.413 7.582-67.304-3.129-23.891-10.71-61.746-4.552-61.746-4.552s3.798-22.239-0.962-64.36-18.154-58.154-18.154-58.154c2.513-1.782 8.402 3.729 18.896 3.461 20.988-0.531 28.64-18.188 28.64-18.188s-9.661-0.237-19.672-4.051c-10.008-3.812-11.112-13.449-22.845-15.163-11.733-1.715-20.147 4.955-20.147 4.955s-0.885-1.344-3.316-3.068c0 0 28.938-35.92 83.623-33.03 0 0 52.761 26.703 66.554 76.06 13.788 49.354-2.049 84.373-2.049 84.373s15.558-11.459 16.179-23.213c0.621-11.756 5.536-13.461 10.578-17.614 5.042-4.154 2.647-13.614-0.059-17.194-2.703-3.581-4.267-10.541-4.267-10.541 3.975-3.77 9.176-9.503 9.022-13.729-0.305-8.443-14.183-16.326-14.183-16.326s7.474-8.543 4.269-14.33-10.957-6.198-10.957-6.198 5.238-8.456-0.954-14.656c18.004 13.429 31.979 30.794 40.983 49.476 19.063 39.562 2.902 103.06 2.902 103.06s9.988-5.17 11.729-17.114c1.739-11.943 8.289-10.092 12.17-13.647 3.881-3.558 3.72-14.473 0.972-18.379-2.749-3.906-2.023-11.258-5.646-12.578 1.84-2.072 4.456-4.786 6.638-6.174 3.821-2.432 4.425-12.981-0.87-18.477-4.202-4.359-8.771-8.738-14.415-6.779 0 0 3.613-5.449 8.211-8.592 4.599-3.143 9.454-11.16 6.396-16.211s-9.035-4.99-11.914-8.238c-2.088-2.357-8.191-2.563-8.191-2.563 2.148-3.023 4.554-7.318 4.09-10.932-0.807-6.332-5.674-13.811-11.074-15.494-5.401-1.684-9.643-7.964-11.888-8.781-2.246-0.818-4.47 2.326-4.47 2.326s3.938-9.576 0.058-18.401-10.461-9.871-15.526-9.207c-5.067 0.664-6.924-3.161-10.154-2.633-3.23 0.527-6.801 3.135-9.062 6.975 0 0 2.586-14.308-2.833-19.951-5.422-5.645-18.734-6.931-22.942-3.077-2.646 2.423-11.767 0.369-15.483 5.763-0.111-3.902-0.996-8.345-3.848-11.575-6.319-7.154-16.101-12.16-23.15-5.532 0 0-4.934-6.415-11.225-6.748-5.262-0.278-9.898 3.5-11.059 4.617-1.572 1.512-4.155 2.441-4.155 2.441-6.665-2.662-15.687 1.674-19.409 7.735 0 0-5.506-6.707-11.658-5.957s-12.441 4.131-14.792 15.338c-3.515-1.348-7.551-1.765-11.13-0.348-2.326 0.921-4.174 3.048-5.299 6.661 0 0-4.297-4.96-9.193-3.945-5.961 1.234-19.284 15.214-19.906 26.994 0 0-11.299-4.438-17.503 1.713-7.856 7.789-2.768 23.543-2.768 23.543-2.979 1.561-5.774 3.148-9.034 4.417-6.734 2.62-10.389 11.698-14.154 16.091-8.306 9.687-33.521 19.026-38.742 21.214-5.223 2.188-6.617 13.332-2.062 13.573 3.227 0.17 7.501-9.729 9.306-8.264 3.569 2.896-6.641 8.679-6.784 11.408-0.29 5.485 7.882 13.553 7.882 13.553s3.127-8.319 15.723-7.653c12.595 0.666 15.014 5.72 12.596 10.79-2.418 5.072-14.584 11.544-14.584 11.544 7.396 7.506 16.174 4.14 16.174 4.14 3.861 3.213 2.16 9.965 2.16 9.965 3.882-2.258 6.53-11.695 6.53-11.695 2.803 2.885 1.653 9.392 1.653 9.392 6.843-2.375 5.144-21.073 5.144-21.073 1.782-3.19 21.511-0.231 23.567 1.52 2.057 1.752-0.707 13.371-16.457 21.57-15.752 8.199-17.42 24.528-17.42 24.528 2.614-3.692 7.327-6.453 7.327-6.453s-2.012 7.556-7.79 15.187c-5.775 7.631-7.808 20.658-7.808 20.658 2.585-3.146 7.3-5.908 7.3-5.908s-0.941 7.613-7.537 15.475-10.039 22.182-10.039 22.182c4.335-5.791 10.768-5.451 10.768-5.451s-5.568 8.736-7.899 12.17c-7.597 11.191-8.657 21.436-8.657 21.436 5.764-7.356 10.404-8.754 10.404-8.754 1.24 1.98-0.758 9.265-3.132 13.518-8.56 15.328-4.735 33.684-4.735 33.684 2.461-5.893 6.553-7.043 6.553-7.043s-0.359 16.948 9.08 26.479c1.195 1.205 2.414 2.365 3.645 3.476 0 0-6.725 8.324-33.547 7.361-26.822-0.966-32.687 0.758-35.038 7.42s-0.075 14.021-1.255 36.349c-0.895 16.917-1.091 24.822-2.526 26.782-1.437 1.96-12.562 6.569-18.019 17.365-5.457 10.793-10.725 30.644-8.678 33.92 0.705 1.126 2.662 2.227 5.314 2.953 0.978-2.237 2.262-4.401 3.471-6.418l1.559-2.66c2.192-3.927 3.387-10.561 3.398-10.626 0.183-1.034 1.153-1.72 2.168-1.537 1.014 0.185 1.688 1.169 1.505 2.202-0.052 0.298-1.316 7.339-3.829 11.836l-1.616 2.76c-0.985 1.644-2.03 3.394-2.868 5.143 4.676 0.481 10.406-0.209 15.529-3.256 14.676-8.724 4.769-36.374 13.879-44.049 5.811-4.894 9.695 1.418 12.956-5.649 3.262-7.064-4.851-9.075-3.788-29.147 1.061-20.075 9.835-32.4 20.824-24.233 9.829 7.308 27.031 20.925 72.578 23.333 1.4 0.074 0.145 2.867 0.067 4.336-0.649 12.287-4.656 21.618-1.119 28.563 9.222 18.107 12.301 47.221 11.106 69.816-1.132 21.406-2.844 31.651-11.459 39.545-10.674 9.78-21.646 25.489-28.524 37.449-6.214 10.809 0.9 10.636 6.956 10.16 2.875-11.272 8.941-20.723 9.234-21.176 0.569-0.875 1.727-1.118 2.586-0.542 0.859 0.577 1.096 1.753 0.528 2.633-0.063 0.099-5.522 8.612-8.386 18.743 26.57-2.736 27.748-18.357 26.74-28.1-1.032-9.992 2.598-12.188 6.753-9.583 9.216 5.78 14.677-4.392 9.308-20.974-5.371-16.582 2.631-78.631 2.631-78.631s8.719-9.874 9.117-17.406c0.419-7.93-3.653-12.12-3.36-17.669 0.437-8.263 6.364-23.258 11.385-36.254 47.938 2.533 124.87-10.511 141.57-15.212 3.329-0.938 6.107-1.82 8.528-2.629 0 0 6.524 21.032 23.925 34.836 17.403 13.802 22.963 12.379 23.645 15.422 2.204 9.838-22.072 22.304-35.72 33.176-13.647 10.874-23.762 18.817-39.945 21.828-16.185 3.007-22.908 18.542-22.908 18.542-13.286 4.021-22.044 18.158-25.462 26.997-3.278 8.473-8.48 16.84-1.182 19.06 8.479-11.294 13.326-26.107 13.376-26.26 0.322-0.998 1.377-1.542 2.357-1.217 0.979 0.329 1.511 1.399 1.188 2.397-0.2 0.617-4.669 14.284-12.805 25.798 20.599 2.189 36.044-15.302 36.67-27.133 0.475-8.993-4.038-11.379 4.802-19.07 2.501-2.176 13.605 5.873 19.208 3.592 5.604-2.281 5.238-11.319 5.238-11.319 4.626 0.244 13.045-7.468 24.874-15.862 11.828-8.394 34.098-18.551 48.156-21.24 14.06-2.694 22.442-17.712 22.442-17.712 33.112 24.216 24.46 50.752 21.286 81.896-3.139 30.79-26.629 46.441-37.641 55.307-11.012 8.868-16.223 19.757-18.734 27.354-2.448 7.405-5.153 12.742 3.285 13.46 3.281-14.417 7.987-22.963 8.215-23.368 0.509-0.914 1.646-1.232 2.544-0.717 0.896 0.518 1.209 1.675 0.7 2.589-0.053 0.094-4.475 8.174-7.644 21.618 24.887-0.188 33.621-18.749 33.38-29.479-0.251-11.18 2.52-15.757 9.247-15.4 5.467 0.288 11.118 13.041 11.82-0.236 3.713-70.233 26.468-97.159 31.876-103.74 5.409-6.587 4.62-15.646 0.53-18.009-4.092-2.362-14.927-12.815-25.578-26.69-10.652-13.878 1.174-38.157 8.965-57.931 7.792-19.772 1.537-45.011 1.537-45.011 14.64 10.222 25.48 12.512 25.48 12.512-4.91-2.846-9.968-10.844-9.968-10.844zm-373.54-201.41c-1.184-0.063-2.092-1.091-2.027-2.297 0.063-1.206 1.074-2.132 2.258-2.069s2.093 1.09 2.029 2.296c-0.065 1.206-1.077 2.133-2.26 2.07z" stroke="#fcef3c" stroke-linecap="round" stroke-linejoin="round" stroke-width="1.75"/>
<path d="m159.83 635.71c-4.979 8.66-6.389 13.244-3.243 13.244 1.175 0.014 2.42-0.068 3.624-0.163 2.875-11.272 8.941-20.723 9.234-21.176 0.569-0.875 1.727-1.118 2.586-0.542 0.859 0.577 1.096 1.753 0.528 2.633-0.063 0.099-5.522 8.612-8.386 18.743 22.869-2.355 26.928-14.256 26.971-23.737 8e-3 -1.534-5.83-1.364-5.97-2.722-0.091-0.882-7.205 1.286-7.227 0.523l-7.331 0.838c-5.288 7.003-7.141 6.022-10.786 12.359z" stroke="#000" stroke-linecap="round" stroke-linejoin="round" stroke-width="1.75"/>
<path d="m305.35 563.05c-2.201 3.452-3.87 6.873-4.978 9.737-3.278 8.473-8.48 16.84-1.182 19.06 8.479-11.294 13.326-26.107 13.376-26.26 0.322-0.998 1.377-1.542 2.357-1.217 0.979 0.329 1.511 1.399 1.188 2.397-0.2 0.617-4.669 14.284-12.805 25.798 16.259 1.729 29.307-8.805 34.391-19.138 1.357-2.758-3.36-4.672-3.229-7.165 0.231-4.378-12.396-3.055-12.413-5.675l-9.931-0.709c-2.169 2.356-5.162 0.644-6.774 3.172z" stroke="#000" stroke-linecap="round" stroke-linejoin="round" stroke-width="1.75"/>
<path d="m436.72 661.96c5.924-0.044 10.924-1.137 15.111-2.912 0.434-0.184 1.521-3.914 1.937-4.111l0.993-15.229c-1.741 1.367-4.557-10.731-5.96-9.602-6.174 4.972-12.746 4.304-14.046 6.804-2.408 4.158-4.032 8.131-5.136 11.469-2.448 7.405-5.153 12.742 3.285 13.46 3.281-14.417 7.987-22.963 8.215-23.368 0.509-0.914 1.646-1.232 2.544-0.717 0.896 0.518 1.209 1.675 0.7 2.589-0.052 0.093-4.474 8.173-7.643 21.617z" stroke="#000" stroke-linecap="round" stroke-linejoin="round" stroke-width="1.75"/>
<path d="m423.5 432.59s-8.021-2.461-13.288-6.421c-5.269-3.963-11.666-6.153-16.083-6.639-0.96-0.104-0.352-1.486 1.77-2.516 1.968-0.958 5.238-1.613 9.768-0.664 9.405 1.971 10.942 3.175 10.942 3.175 2.283 4.315 4.543 8.686 6.891 13.065z" fill="#e20909" stroke="#000" stroke-linecap="round" stroke-linejoin="round" stroke-width="2.75"/>
<path d="m183.18 458.92c-0.818-9.973-6.005-19.014-9.758-29.693 0 0-17.113-6.487-32.26-20.154" fill="none" stroke="#fcef3c" stroke-linecap="round" stroke-linejoin="round" stroke-width="1.75"/>
<path d="m173.43 429.23c-2.504-7.128-4.369-14.984-3.875-24.339 0.65-12.288 4.983-20.407 7.875-23.436" fill="none" stroke="#fcef3c" stroke-linecap="round" stroke-linejoin="round" stroke-width="1.75"/>
<path d="m416.6 419.53c-8.328-15.742-16.936-30.724-31.013-42.52" fill="none" stroke="#fcef3c" stroke-linecap="round" stroke-linejoin="round" stroke-width="1.75"/>
<path d="m464.7 483.82c-20.279-14.833-31.48-33.094-41.208-51.233" fill="none" stroke="#fcef3c" stroke-linecap="round" stroke-linejoin="round" stroke-width="1.75"/>
<path d="m395.89 417.02c-6.857 0.487-11.265 2.369-19.051 4.975" fill="none" stroke="#fcef3c" stroke-linecap="round" stroke-linejoin="round" stroke-width="1.75"/>
<path d="m226.82 399.57s8.901 8.819 6.736 20.231c-0.837 4.418-3.645 11.824-6.813 20.03" fill="none" stroke="#fcef3c" stroke-linecap="round" stroke-linejoin="round" stroke-width="1.75"/>
<path d="m222.54 152.19s18.217-12.516 31.111-6.059" fill="none" stroke="#fcef3c" stroke-linecap="round" stroke-linejoin="round" stroke-width="1.75"/>
<path d="m177.56 212.32s20.417 5.965 30.387-8.912c9.97-14.876 15.613-39.884 15.613-39.884s7.331 5.7 14.73 3.022" fill="none" stroke="#fcef3c" stroke-linecap="round" stroke-linejoin="round" stroke-width="1.75"/>
<path d="m151.47 151.83s-8.422 1.743-2.91 4.224 19.047 5.66 11.467 11.826" fill="none" stroke="#fcef3c" stroke-linecap="round" stroke-linejoin="round" stroke-width="1.75"/>
<path d="m423.5 432.59c-2.348-4.379-4.608-8.75-6.892-13.064" fill="none" stroke="#fcef3c" stroke-linecap="round" stroke-linejoin="round" stroke-width="1.75"/>
<path d="m219.85 134.49c-1.85 5.914-8.318 9.292-24.438 5.312-16.12-3.981-16.996-11.995-16.996-11.995-7.073 1.086-11.914 3.339-16.225 5.592" fill="none" stroke="#fcef3c" stroke-linecap="round" stroke-linejoin="round" stroke-width="1.75"/>
<path d="m182.46 108.15c-3.873 3.602-7.841 10.745-4.046 19.664" fill="none" stroke="#fcef3c" stroke-linecap="round" stroke-linejoin="round" stroke-width="1.75"/>
<path d="m211.56 85.097c-0.531 1.708-0.9 3.751-1.082 6.155-0.563 7.486-3.941 14.312-9.174 14.889-5.23 0.578-11.126-2.126-15.936 0.012-0.957 0.426-1.947 1.099-2.908 1.993" fill="none" stroke="#fcef3c" stroke-linecap="round" stroke-linejoin="round" stroke-width="1.75"/>
<path d="m242.26 89.687s-3.44-1.548-6.904-5.832c-1.617-2-4.293-3.891-7.37-5.071" fill="none" stroke="#fcef3c" stroke-linecap="round" stroke-linejoin="round" stroke-width="1.75"/>
<path d="m300.29 61.358c-7.049 6.628-9.647 5.773-12.321 6.349 0 0-3.798 0.513-3.708 2.133" fill="none" stroke="#fcef3c" stroke-linecap="round" stroke-linejoin="round" stroke-width="1.75"/>
<path d="m289.85 82.732s-1.039-6.73-5.59-12.892c-2.386-3.231-5.737-6.306-10.409-8.172" fill="none" stroke="#fcef3c" stroke-linecap="round" stroke-linejoin="round" stroke-width="1.75"/>
<path d="m438.39 221.66s0.947-1.196 2.329-2.754" fill="none" stroke="#fcef3c" stroke-linecap="round" stroke-linejoin="round" stroke-width="1.75"/>
<path d="m423.48 155.71s1.475-1.556 3.093-3.832" fill="none" stroke="#fcef3c" stroke-linecap="round" stroke-linejoin="round" stroke-width="1.75"/>
<path d="m326.42 87.151s1.005-3.944 0.867-8.687" fill="none" stroke="#fcef3c" stroke-linecap="round" stroke-linejoin="round" stroke-width="1.75"/>
<path d="m254.44 69.403c-3.726 6.061-11.178 13.236-19.08 14.452" fill="none" stroke="#fcef3c" stroke-linecap="round" stroke-linejoin="round" stroke-width="1.75"/>
<path d="m303.47 101.46c28.86 1.526 54.013 11.62 74.134 26.631" fill="none" stroke="#fcef3c" stroke-linecap="round" stroke-linejoin="round" stroke-width="1.75"/>
<path d="m385.96 197.28s2.042-1.607 4.536-3.977" fill="none" stroke="#fcef3c" stroke-linecap="round" stroke-linejoin="round" stroke-width="1.75"/>
</g>
<g>
<path d="m1.5 1.5v458.87c0 166.31 134.31 301.13 300 301.13 165.69 0 300-134.82 300-301.13v-458.87h-600z" fill="url(#a)"/>
<path d="m1.5 1.5v458.87c0 166.31 134.31 301.13 300 301.13 165.69 0 300-134.82 300-301.13v-458.87h-600z" fill="none" stroke="#000" stroke-width="3"/>
</g>
</svg>
