<?xml version="1.0" encoding="UTF-8"?>
<svg version="1.0" viewBox="0 0 215.35 252.25" xmlns="http://www.w3.org/2000/svg" xmlns:cc="http://creativecommons.org/ns#" xmlns:dc="http://purl.org/dc/elements/1.1/" xmlns:rdf="http://www.w3.org/1999/02/22-rdf-syntax-ns#">
<metadata>
<rdf:RDF>
<cc:Work rdf:about="">
<dc:format>image/svg+xml</dc:format>
<dc:type rdf:resource="http://purl.org/dc/dcmitype/StillImage"/>
</cc:Work>
</rdf:RDF>
</metadata>
<g transform="translate(-16.717 -807.83)" stroke="#000">
<path d="m17.717 808.83 3.8791 162.95c2.7708 116.39 202.82 116.39 205.59 0l3.8791-162.95h-213.35z" fill="#ce2918" fill-rule="evenodd" stroke-width="2"/>
<path transform="translate(0 804.33)" d="m84.755 83.008c19.235-19.267 33.342-29.858 41.632-29.858 8.5394 0 21.148 12.901 39.135 30.606 18.111 17.827 29.36 31.21 29.36 38.886 0 7.4259-6.1306 15.687-29.858 39.388-23.728 23.702-31.609 32.203-41.008 31.926-9.1496-0.26988-29.111-18.788-40.756-31.427-11.77-12.775-28.664-31.029-29.072-41.875-0.42646-11.344 11.457-18.503 30.568-37.645z" fill="#ff0" fill-rule="evenodd" stroke-width="1px"/>
<path transform="translate(0 804.33)" d="m110.43 25.424c7.4449-0.92447 22.765-0.89238 28.667 0.74784-0.29657 9.1155-2.1555 17.499-12.963 21.687-12.928-2.3494-15.442-17.417-15.705-22.435z" fill="#ff0" fill-rule="evenodd" stroke-width="1px"/>
<path d="m129.13 829.63c-0.6232 6.4813-0.24928 17.824-3.6146 22.124-1.371-2.1812-2.9914-16.39-3.2406-22.747" fill="none" stroke-width="1px"/>
<path d="m134.36 829.51c-0.24928 6.4813-0.6232 17.574-8.6002 22.622-6.6059-3.8015-9.5973-15.642-9.7219-22.498" fill="none" stroke-width="1px"/>
<path d="m108.93 1026.9c7.4449 0.9245 22.765 0.8924 28.667-0.7478-0.29657-9.1156-2.1555-17.499-12.963-21.687-12.928 2.3494-15.442 17.417-15.705 22.435z" fill="#ff0" fill-rule="evenodd" stroke-width="1px"/>
<path d="m127.63 1027.1c-0.6232-6.4813-0.24928-17.824-3.6146-22.124-1.371 2.1812-2.9914 16.39-3.2406 22.747" fill="none" stroke-width="1px"/>
<path d="m132.87 1027.2c-0.24928-6.4813-0.6232-17.574-8.6002-22.622-6.6059 3.8015-9.5973 15.642-9.7219 22.498" fill="none" stroke-width="1px"/>
<path d="m223.06 940.53c0.9245-7.4449 0.8924-22.765-0.7478-28.667-9.1156 0.29657-17.499 2.1555-21.687 12.963 2.3494 12.928 17.417 15.442 22.435 15.705z" fill="#ff0" fill-rule="evenodd" stroke-width="1px"/>
<path d="m223.18 921.83c-6.4813 0.6232-17.824 0.24928-22.124 3.6146 2.1812 1.371 16.39 2.9914 22.747 3.2406" fill="none" stroke-width="1px"/>
<path d="m223.31 916.6c-6.4813 0.24928-17.574 0.6232-22.622 8.6002 3.8015 6.6059 15.642 9.5973 22.498 9.7219" fill="none" stroke-width="1px"/>
<path d="m25.629 941.23c-0.9245-7.4449-0.8924-22.765 0.7478-28.667 9.1156 0.29657 17.499 2.1555 21.687 12.963-2.3494 12.928-17.417 15.442-22.435 15.705z" fill="#ff0" fill-rule="evenodd" stroke-width="1px"/>
<path d="m25.505 922.54c6.4813 0.6232 17.824 0.24928 22.124 3.6146-2.1812 1.371-16.39 2.9914-22.747 3.2406" fill="none" stroke-width="1px"/>
<path d="m25.38 917.3c6.4813 0.24928 17.574 0.6232 22.622 8.6002-3.8015 6.6059-15.642 9.5973-22.498 9.7219" fill="none" stroke-width="1px"/>
<rect transform="translate(0 804.33)" x="117.66" y="46.862" width="16.452" height="6.7306" rx="3.3653" ry="3.3653" fill="#ff0" fill-rule="evenodd" stroke-width="1px"/>
<rect x="114.92" y="998.77" width="16.452" height="6.7306" rx="3.3653" ry="3.3653" fill="#ff0" fill-rule="evenodd" stroke-width="1px"/>
<rect transform="rotate(90)" x="918.12" y="-201.61" width="16.452" height="6.7306" rx="3.3653" ry="3.3653" fill="#ff0" fill-rule="evenodd" stroke-width="1px"/>
<rect transform="rotate(90)" x="918.62" y="-53.789" width="14.708" height="6.7306" rx="3.3653" ry="3.3653" fill="#ff0" fill-rule="evenodd" stroke-width="1px"/>
</g>
</svg>
