<?xml version="1.0" encoding="UTF-8"?>
<svg width="49.332mm" height="59.234mm" version="1.1" viewBox="0 0 174.8 209.88" xmlns="http://www.w3.org/2000/svg" xmlns:cc="http://creativecommons.org/ns#" xmlns:dc="http://purl.org/dc/elements/1.1/" xmlns:rdf="http://www.w3.org/1999/02/22-rdf-syntax-ns#">
<metadata>
<rdf:RDF>
<cc:Work rdf:about="">
<dc:format>image/svg+xml</dc:format>
<dc:type rdf:resource="http://purl.org/dc/dcmitype/StillImage"/>
<dc:title/>
</cc:Work>
</rdf:RDF>
</metadata>
<g transform="translate(-182.24 -435.82)">
<path d="m355.5 437.36v108.25c0 54.596-38.293 98.548-85.858 98.548-47.566 0-85.858-43.952-85.858-98.548v-108.25z" color="#000000" color-rendering="auto" fill="#ffe300" image-rendering="auto" shape-rendering="auto" solid-color="#000000" style="isolation:auto;mix-blend-mode:normal"/>
<path d="m257.3 642.93s-7.7973-18.659-7.7027-27.599 8.2027-16.659 8.2973-25.599-7.7973-16.659-7.7027-25.599 8.2027-16.659 8.2973-25.599c0.09459-8.94-7.7973-16.659-7.7027-25.599 0.09459-8.94 8.2027-16.659 8.2973-25.599s-7.7973-16.659-7.7027-25.599 8.2973-25.599 8.2973-25.599h27.483s-8.2027 16.659-8.2973 25.599 7.7973 16.659 7.7027 25.599c-0.09459 8.94-8.2027 16.659-8.2973 25.599-0.09459 8.94 7.7973 16.659 7.7027 25.599s-8.2027 16.659-8.2973 25.599 7.7973 16.659 7.7027 25.599-8.2027 16.659-8.2973 25.599 7.7027 27.599 7.7027 27.599c-13.047 2.5699-21.947 2.3722-27.483 0z" fill="#0048ff" fill-rule="evenodd"/>
<g transform="translate(23.25 419.99)" fill="#0048ff" shape-rendering="auto">
<path transform="matrix(.22554 -.11695 .11695 .22554 278.74 152.1)" d="m68.794 158.04-39.964-33.649-37.433 36.443 9.1593-51.434-50.277-14.197 49.123-17.785-12.844-50.64 39.964 33.649 37.433-36.443-9.1593 51.434 50.277 14.197-49.123 17.785z" color="#000000" color-rendering="auto" image-rendering="auto" solid-color="#000000" style="isolation:auto;mix-blend-mode:normal"/>
<path transform="matrix(.22554 -.11695 .11695 .22554 278.74 68.967)" d="m68.794 158.04-39.964-33.649-37.433 36.443 9.1593-51.434-50.277-14.197 49.123-17.785-12.844-50.64 39.964 33.649 37.433-36.443-9.1593 51.434 50.277 14.197-49.123 17.785z" color="#000000" color-rendering="auto" image-rendering="auto" solid-color="#000000" style="isolation:auto;mix-blend-mode:normal"/>
<path transform="matrix(.22554 -.11695 .11695 .22554 278.74 110.53)" d="m68.794 158.04-39.964-33.649-37.433 36.443 9.1593-51.434-50.277-14.197 49.123-17.785-12.844-50.64 39.964 33.649 37.433-36.443-9.1593 51.434 50.277 14.197-49.123 17.785z" color="#000000" color-rendering="auto" image-rendering="auto" solid-color="#000000" style="isolation:auto;mix-blend-mode:normal"/>
<path transform="matrix(.22554 -.11695 .11695 .22554 278.74 27.401)" d="m68.794 158.04-39.964-33.649-37.433 36.443 9.1593-51.434-50.277-14.197 49.123-17.785-12.844-50.64 39.964 33.649 37.433-36.443-9.1593 51.434 50.277 14.197-49.123 17.785z" color="#000000" color-rendering="auto" image-rendering="auto" solid-color="#000000" style="isolation:auto;mix-blend-mode:normal"/>
</g>
<g transform="translate(-73.486 421.46)" fill="#0048ff" shape-rendering="auto">
<path transform="matrix(.22554 -.11695 .11695 .22554 278.74 152.1)" d="m68.794 158.04-39.964-33.649-37.433 36.443 9.1593-51.434-50.277-14.197 49.123-17.785-12.844-50.64 39.964 33.649 37.433-36.443-9.1593 51.434 50.277 14.197-49.123 17.785z" color="#000000" color-rendering="auto" image-rendering="auto" solid-color="#000000" style="isolation:auto;mix-blend-mode:normal"/>
<path transform="matrix(.22554 -.11695 .11695 .22554 278.74 68.967)" d="m68.794 158.04-39.964-33.649-37.433 36.443 9.1593-51.434-50.277-14.197 49.123-17.785-12.844-50.64 39.964 33.649 37.433-36.443-9.1593 51.434 50.277 14.197-49.123 17.785z" color="#000000" color-rendering="auto" image-rendering="auto" solid-color="#000000" style="isolation:auto;mix-blend-mode:normal"/>
<path transform="matrix(.22554 -.11695 .11695 .22554 278.74 110.53)" d="m68.794 158.04-39.964-33.649-37.433 36.443 9.1593-51.434-50.277-14.197 49.123-17.785-12.844-50.64 39.964 33.649 37.433-36.443-9.1593 51.434 50.277 14.197-49.123 17.785z" color="#000000" color-rendering="auto" image-rendering="auto" solid-color="#000000" style="isolation:auto;mix-blend-mode:normal"/>
<path transform="matrix(.22554 -.11695 .11695 .22554 278.74 27.401)" d="m68.794 158.04-39.964-33.649-37.433 36.443 9.1593-51.434-50.277-14.197 49.123-17.785-12.844-50.64 39.964 33.649 37.433-36.443-9.1593 51.434 50.277 14.197-49.123 17.785z" color="#000000" color-rendering="auto" image-rendering="auto" solid-color="#000000" style="isolation:auto;mix-blend-mode:normal"/>
</g>
<g transform="translate(23.25 419.43)" fill="none" shape-rendering="auto" stroke="#000" stroke-linecap="square" stroke-linejoin="round" stroke-width="7.8721">
<path transform="matrix(.22554 -.11695 .11695 .22554 278.74 152.1)" d="m68.794 158.04-39.964-33.649-37.433 36.443 9.1593-51.434-50.277-14.197 49.123-17.785-12.844-50.64 39.964 33.649 37.433-36.443-9.1593 51.434 50.277 14.197-49.123 17.785z" color="#000000" color-rendering="auto" image-rendering="auto" solid-color="#000000" style="isolation:auto;mix-blend-mode:normal"/>
<path transform="matrix(.22554 -.11695 .11695 .22554 278.74 68.967)" d="m68.794 158.04-39.964-33.649-37.433 36.443 9.1593-51.434-50.277-14.197 49.123-17.785-12.844-50.64 39.964 33.649 37.433-36.443-9.1593 51.434 50.277 14.197-49.123 17.785z" color="#000000" color-rendering="auto" image-rendering="auto" solid-color="#000000" style="isolation:auto;mix-blend-mode:normal"/>
<path transform="matrix(.22554 -.11695 .11695 .22554 278.74 110.53)" d="m68.794 158.04-39.964-33.649-37.433 36.443 9.1593-51.434-50.277-14.197 49.123-17.785-12.844-50.64 39.964 33.649 37.433-36.443-9.1593 51.434 50.277 14.197-49.123 17.785z" color="#000000" color-rendering="auto" image-rendering="auto" solid-color="#000000" style="isolation:auto;mix-blend-mode:normal"/>
<path transform="matrix(.22554 -.11695 .11695 .22554 278.74 27.401)" d="m68.794 158.04-39.964-33.649-37.433 36.443 9.1593-51.434-50.277-14.197 49.123-17.785-12.844-50.64 39.964 33.649 37.433-36.443-9.1593 51.434 50.277 14.197-49.123 17.785z" color="#000000" color-rendering="auto" image-rendering="auto" solid-color="#000000" style="isolation:auto;mix-blend-mode:normal"/>
</g>
<g transform="translate(-73.486 420.9)" fill="none" shape-rendering="auto" stroke="#000" stroke-linecap="square" stroke-linejoin="round" stroke-width="7.8721">
<path transform="matrix(.22554 -.11695 .11695 .22554 278.74 152.1)" d="m68.794 158.04-39.964-33.649-37.433 36.443 9.1593-51.434-50.277-14.197 49.123-17.785-12.844-50.64 39.964 33.649 37.433-36.443-9.1593 51.434 50.277 14.197-49.123 17.785z" color="#000000" color-rendering="auto" image-rendering="auto" solid-color="#000000" style="isolation:auto;mix-blend-mode:normal"/>
<path transform="matrix(.22554 -.11695 .11695 .22554 278.74 68.967)" d="m68.794 158.04-39.964-33.649-37.433 36.443 9.1593-51.434-50.277-14.197 49.123-17.785-12.844-50.64 39.964 33.649 37.433-36.443-9.1593 51.434 50.277 14.197-49.123 17.785z" color="#000000" color-rendering="auto" image-rendering="auto" solid-color="#000000" style="isolation:auto;mix-blend-mode:normal"/>
<path transform="matrix(.22554 -.11695 .11695 .22554 278.74 110.53)" d="m68.794 158.04-39.964-33.649-37.433 36.443 9.1593-51.434-50.277-14.197 49.123-17.785-12.844-50.64 39.964 33.649 37.433-36.443-9.1593 51.434 50.277 14.197-49.123 17.785z" color="#000000" color-rendering="auto" image-rendering="auto" solid-color="#000000" style="isolation:auto;mix-blend-mode:normal"/>
<path transform="matrix(.22554 -.11695 .11695 .22554 278.74 27.401)" d="m68.794 158.04-39.964-33.649-37.433 36.443 9.1593-51.434-50.277-14.197 49.123-17.785-12.844-50.64 39.964 33.649 37.433-36.443-9.1593 51.434 50.277 14.197-49.123 17.785z" color="#000000" color-rendering="auto" image-rendering="auto" solid-color="#000000" style="isolation:auto;mix-blend-mode:normal"/>
</g>
<path d="m286.54 436.58s-8.2027 16.659-8.2973 25.599 7.7973 16.659 7.7027 25.599c-0.09459 8.94-8.2027 16.659-8.2973 25.599-0.09459 8.94 7.7973 16.659 7.7027 25.599-0.09459 8.94-8.2027 16.659-8.2973 25.599s7.7973 16.659 7.7027 25.599-8.2027 16.659-8.2973 25.599 7.7027 27.599 7.7027 27.599m-27.483 0s-7.7973-18.659-7.7027-27.599 8.2027-16.659 8.2973-25.599-7.7973-16.659-7.7027-25.599 8.2027-16.659 8.2973-25.599-7.7973-16.659-7.7027-25.599 8.2027-16.659 8.2973-25.599-7.7973-16.659-7.7027-25.599 8.2973-25.599 8.2973-25.599" fill="none" stroke="#000" stroke-width="2"/>
<path d="m355.5 437.36v108.25c0 54.596-38.293 98.548-85.858 98.548-47.566 0-85.858-43.952-85.858-98.548v-108.25z" color="#000000" color-rendering="auto" fill="none" image-rendering="auto" shape-rendering="auto" solid-color="#000000" stroke="#000" stroke-linecap="square" stroke-linejoin="round" stroke-miterlimit="10" stroke-width="3.0815" style="isolation:auto;mix-blend-mode:normal"/>
</g>
</svg>
