<?xml version="1.0" encoding="UTF-8" standalone="no"?>
<svg
   xmlns:dc="http://purl.org/dc/elements/1.1/"
   xmlns:cc="http://creativecommons.org/ns#"
   xmlns:rdf="http://www.w3.org/1999/02/22-rdf-syntax-ns#"
   xmlns:svg="http://www.w3.org/2000/svg"
   xmlns="http://www.w3.org/2000/svg"
   xmlns:sodipodi="http://sodipodi.sourceforge.net/DTD/sodipodi-0.dtd"
   xmlns:inkscape="http://www.inkscape.org/namespaces/inkscape"
   version="1.0"
   width="225.13301"
   height="263.70813"
   id="svg2780"
   sodipodi:docname="176.svg">
  <metadata
     id="metadata9">
    <rdf:RDF>
      <cc:Work
         rdf:about="">
        <dc:format>image/svg+xml</dc:format>
        <dc:type
           rdf:resource="http://purl.org/dc/dcmitype/StillImage" />
      </cc:Work>
    </rdf:RDF>
  </metadata>
  <sodipodi:namedview
     pagecolor="#ffffff"
     bordercolor="#666666"
     borderopacity="1"
     objecttolerance="10"
     gridtolerance="10"
     guidetolerance="10"
     inkscape:pageopacity="0"
     inkscape:pageshadow="2"
     inkscape:window-width="640"
     inkscape:window-height="480"
     id="namedview7" />
  <defs
     id="defs2782" />
  <g
     transform="translate(-33.87846,-760.97954)"
     id="layer1">
    <path
       d="M 34.947128,762.04821 L 39.001591,932.37345 C 41.897627,1054.0342 250.99229,1054.0342 253.88834,932.37345 L 257.9428,762.04821 L 34.947128,762.04821 z "
       style="fill:#ffffff;fill-opacity:1;fill-rule:evenodd;stroke:#000000;stroke-width:2.13733602;stroke-linecap:butt;stroke-miterlimit:4;stroke-dashoffset:0;stroke-opacity:1"
       id="path3282" />
    <path
       d="M 147.10125,775.83789 C 148.87969,780.73494 157.21126,783.58861 158.63436,791.80127 C 160.07228,800.09946 153.67743,804.08565 149.11222,802.50836 L 149.20032,819.33461 C 151.53734,813.34419 155.64282,809.21017 161.34387,807.08216 C 160.3153,803.43838 159.14747,799.33152 163.44552,794.5612 C 167.74357,789.79089 178.25221,794.82515 183.67436,793.9251 C 181.8024,797.94349 182.24423,805.47244 178.42624,810.35513 C 174.50049,815.37562 165.07289,814.23316 163.01613,808.94228 C 157.46751,811.52588 153.14794,818.205 152.33826,819.19749 C 151.48619,820.24194 149.54039,823.12783 149.54039,826.0303 L 149.54039,848.14369 C 150.92065,846.14673 153.0938,843.88547 154.82646,842.50522 C 154.85583,843.6799 155.02335,848.06338 155.00266,849.2009 C 153.39631,851.09978 152.18891,852.96548 151.12621,855.27988 C 151.18494,856.41052 150.7738,873.31125 150.5976,882.32694 C 154.62088,868.14265 162.83985,848.12915 163.54847,846.55787 C 164.22392,845.06015 165.17645,844.02064 164.9581,842.68142 C 164.72576,841.25645 163.2946,839.18408 163.2117,836.95085 C 159.42786,838.4513 154.4576,836.60055 153.25976,831.68818 C 152.06669,826.79539 159.02065,819.15277 160.13811,814.23825 C 162.95389,818.11605 169.54831,818.42155 172.17415,824.52988 C 174.77579,830.58192 170.74016,833.2798 167.12047,835.56722 C 167.60372,837.70368 167.47028,839.66395 167.51303,841.71231 C 171.41885,836.45561 178.14519,827.46928 179.18773,826.2946 C 180.18728,825.16836 180.28736,824.04118 180.40602,822.55786 C 180.53838,820.90335 180.07586,817.54322 179.13612,814.66525 C 180.34017,814.43031 181.81478,814.01918 183.01883,813.78424 C 184.31098,816.33918 184.10541,820.21562 184.16415,823.03486 C 191.87481,815.80918 193.0878,811.38148 192.96837,806.17149 C 188.98525,805.33269 184.37731,800.96553 186.01353,794.57181 C 187.65159,788.17088 199.17277,786.0598 202.90861,782.97845 C 203.84682,793.59552 210.08622,793.98975 208.90189,800.53223 C 207.72848,807.01442 201.49155,807.78074 196.54684,807.47763 C 196.29572,810.10844 195.69221,812.91544 194.20768,815.19385 C 196.13878,815.0433 198.49496,814.95322 200.5505,815.0972 C 202.45897,810.85094 205.26979,806.79242 211.59441,808.31578 C 217.93964,809.84409 221.27906,822.74656 225.53843,823.97791 C 218.86732,825.77538 214.69156,830.1387 208.04341,830.23271 C 201.45653,830.32587 197.99333,826.03924 199.39569,818.79987 C 194.91249,819.07031 193.77354,817.45387 190.94794,819.95132 C 188.07905,822.48703 179.78457,830.29914 175.00163,836.95484 C 177.89351,835.57096 180.52535,835.4346 183.19469,834.79908 C 183.37234,831.01666 185.40088,827.00686 191.98667,826.57756 C 198.57988,826.14777 203.31882,837.92235 207.455,838.8137 C 201.11175,839.95589 199.73416,846.42446 191.7258,847.93494 C 183.70185,849.44837 181.55915,841.95251 182.2852,837.94114 C 173.68398,839.21817 169.98026,842.24089 165.88753,852.49908 C 161.76451,862.83323 155.74534,877.47887 151.2115,896.03965 C 153.62032,891.51274 156.31985,886.65358 159.14276,882.81132 C 161.9351,879.01067 164.19202,873.80346 164.53679,871.8408 L 168.61189,870.35193 L 168.86108,872.47003 C 168.08496,873.62589 167.44901,876.29091 166.74298,878.20135 C 172.51601,873.81561 173.35537,872.51342 174.81144,866.36566 C 170.74099,866.35081 166.7484,864.65669 167.05603,858.06411 C 167.364,851.46408 177.405,848.35541 179.1296,844.3229 C 180.55481,848.83932 188.28966,852.53254 188.45468,859.17929 C 188.61821,865.76481 184.09897,866.82468 178.92787,867.23656 L 176.83508,872.19946 C 189.4242,865.88999 195.22953,870.68127 204.29461,860.31914 C 200.3088,858.75975 196.35102,853.54576 200.8067,848.29453 C 205.306,842.99191 214.77149,845.34828 219.79128,843.44111 C 219.21057,849.09243 221.77292,857.77685 219.09946,861.4597 C 216.46805,865.08461 209.74195,865.15956 206.57143,861.7314 C 205.23553,864.1273 203.21435,865.52645 201.06859,867.0502 C 209.59374,866.2263 217.43362,867.83199 222.90622,871.49347 C 223.88573,867.5426 226.40361,864.10618 232.82338,864.82277 C 239.25347,865.54052 242.91463,877.66557 244.61598,882.37036 C 239.37921,883.23485 233.96493,887.92491 227.08312,886.27801 C 220.118,884.61118 219.5802,877.61193 221.64921,874.10059 C 215.18355,870.73295 205.76355,869.99515 197.01929,869.60437 C 199.92663,871.45449 201.25548,872.59462 203.01365,875.25233 C 206.52992,873.89324 212.10717,873.35443 215.65184,877.28126 C 219.24054,881.25687 215.48528,893.1672 213.94508,897.809 C 206.76037,895.96981 201.70732,893.67654 198.31817,889.68276 C 194.97268,885.74044 195.84615,878.32091 199.68429,876.28188 C 195.25418,871.45865 193.4529,871.26672 190.3526,871.53768 C 187.24752,871.80905 175.90882,876.11045 172.62289,878.00998 C 174.5699,878.35209 176.80825,879.32708 178.08102,881.06701 C 180.98058,878.2102 186.38163,875.73316 190.80731,880.6291 C 195.23798,885.53056 191.16936,895.81024 191.03878,900.62824 C 183.85407,898.78905 179.50638,900.01078 174.70706,895.40934 C 169.95196,890.85031 172.04815,884.54587 175.75414,882.68304 C 175.79454,882.67935 171.74188,881.09353 169.09885,881.26973 C 166.45581,881.44593 161.69835,887.96542 159.05532,892.72288 C 156.41228,897.48034 154.47405,903.99983 154.29785,909.4621 C 154.12165,914.92437 155.09092,946.54544 156.01713,955.31898 C 156.94334,964.09252 165.52979,973.32254 185.74004,967.09278 C 205.91553,960.87373 213.21616,968.75419 216.9164,971.22102 C 220.61665,973.68785 220.06409,980.993 219.38324,983.29088 C 218.67843,985.66961 218.14982,986.37442 217.97362,981.79316 C 217.79742,977.2119 212.62082,972.19013 211.2112,971.30912 C 209.80159,970.42811 207.77526,969.54709 207.77526,971.48532 C 207.77526,973.42354 209.62538,980.64784 210.8588,983.64328 C 212.09222,986.63872 208.03826,984.25862 206.62994,982.76227 C 205.22032,981.26454 203.4583,974.65696 202.92969,971.66152 C 202.40109,968.66608 195.28835,970.55276 193.23857,970.78051 C 190.85983,971.04481 184.42845,973.24734 184.42845,973.24734 C 184.42845,973.24734 188.23191,975.66256 190.52254,977.07218 C 192.81317,978.4818 194.6454,982.36746 194.9276,985.00129 C 195.1919,987.46812 196.08771,989.85587 197.30633,992.04938 C 198.52495,994.24289 196.42532,993.01849 194.48709,991.78507 C 192.54887,990.55166 190.69874,986.0585 189.81773,983.23927 C 188.93672,980.42003 185.92617,978.00481 183.45934,977.3 C 180.99251,976.59519 174.03251,976.24278 174.03251,976.24278 C 174.03251,976.24278 178.26137,978.79771 180.552,980.55974 C 182.84263,982.32176 183.79037,988.45236 183.43797,990.21438 C 183.08556,991.9764 182.99746,998.49589 183.52607,1000.9627 C 184.05467,1003.4295 183.17366,1003.9581 181.05923,1000.4341 C 178.94481,996.91007 178.94595,992.12331 178.85671,987.65945 C 178.76746,983.19558 175.79454,983.29088 173.1515,981.00024 C 170.50847,978.70961 169.27505,979.41442 167.16062,978.70961 C 165.04619,978.00481 160.81734,975.53797 158.52671,973.95215 C 156.23608,972.36633 153.06444,969.8995 153.06444,969.8995 C 153.06444,969.8995 155.17886,972.98303 158.3505,976.50708 C 161.52214,980.03113 159.49582,985.4053 157.38139,988.22454 C 155.26696,991.04377 154.20975,996.59415 155.09076,998.53238 C 155.97177,1000.4706 156.38058,1004.4897 155.88367,1006.7258 C 155.35506,1009.1045 154.56216,1007.4306 154.29785,1004.9638 C 154.01564,1002.3299 152.62393,1000.3825 151.74292,997.38707 C 150.8619,994.39163 151.03811,990.69137 153.68114,986.19821 C 156.32078,981.71084 154.47405,979.41442 153.06444,978.53341 C 151.65482,977.6524 151.60767,976.85949 147.10125,971.48532 C 142.59483,977.21189 142.54768,978.0048 141.13806,978.88581 C 139.72845,979.76682 137.88172,982.06324 140.52136,986.55061 C 143.16439,991.04377 143.3406,994.74403 142.45958,997.73947 C 141.57857,1000.7349 140.18686,1002.6823 139.90465,1005.3162 C 139.64034,1007.783 138.84744,1009.4569 138.31883,1007.0782 C 137.82192,1004.8421 138.23073,1000.823 139.11174,998.88478 C 139.99275,996.94655 138.93554,991.39617 136.82111,988.57694 C 134.70668,985.7577 132.68036,980.38353 135.852,976.85948 C 139.02364,973.33543 141.13806,970.2519 141.13806,970.2519 C 141.13806,970.2519 137.96642,972.71873 135.67579,974.30455 C 133.38516,975.89037 129.15631,978.35721 127.04188,979.06201 C 124.92745,979.76682 123.69403,979.06201 121.051,981.35264 C 118.40796,983.64328 115.06126,983.67257 114.97201,988.13644 C 114.88277,992.6003 114.88391,997.38706 112.76949,1000.9111 C 110.65506,1004.4351 109.77405,1003.9065 110.30265,1001.4397 C 110.83126,998.97288 110.74316,992.45339 110.39075,990.69137 C 110.03835,988.92935 111.35987,982.67416 113.6505,980.91214 C 115.94113,979.15011 120.16999,976.59518 120.16999,976.59518 C 120.16999,976.59518 113.20999,976.94759 110.74316,977.6524 C 108.27633,978.35721 105.01659,980.64784 104.13558,983.46708 C 103.25457,986.28631 101.40444,990.77947 99.466214,992.01288 C 97.527988,993.2463 95.428358,994.4707 96.646976,992.27719 C 97.865594,990.08368 98.761404,987.69593 99.025708,985.2291 C 99.307906,982.59527 101.14014,978.70961 103.43077,977.29999 C 105.7214,975.89037 109.77405,973.59974 109.77405,973.59974 C 109.77405,973.59974 103.34267,971.39721 100.96393,971.13291 C 98.914152,970.90516 91.801412,969.01848 91.272805,972.01392 C 90.744198,975.00936 88.982175,981.61694 87.572556,983.11467 C 86.164235,984.61102 82.110284,986.99112 83.343701,983.99568 C 84.577117,981.00024 86.427242,973.77594 86.427242,971.83772 C 86.427242,969.89949 84.400914,970.78051 82.991296,971.66152 C 81.581677,972.54253 76.031304,977.5643 75.855102,982.14556 C 75.678899,986.72682 75.150292,986.02201 74.445483,983.64328 C 73.764632,981.3454 73.212067,974.04025 76.912315,971.57342 C 80.612564,969.10659 88.536157,960.97694 108.71165,967.19599 C 128.9219,973.42575 137.50835,964.19573 138.43456,955.42219 C 139.36077,946.64865 140.08085,915.27677 139.90465,909.8145 C 139.72845,904.35223 137.79022,897.83274 135.14718,893.07528 C 132.50415,888.31782 127.74669,881.79833 125.10365,881.62213 C 122.46062,881.44593 118.40796,883.03175 118.44836,883.03544 C 122.15435,884.89827 124.25054,891.20271 119.49544,895.76174 C 114.69612,900.36318 110.34843,899.14145 103.16372,900.98064 C 103.03314,896.16264 98.964516,885.88296 103.39519,880.9815 C 107.82087,876.08556 113.22192,878.5626 116.12148,881.41941 C 117.39425,879.67948 119.6326,878.70449 121.57961,878.36238 C 118.29368,876.46285 106.95498,872.16145 103.8499,871.89008 C 100.7496,871.61912 98.948321,871.81105 94.518207,876.63428 C 98.356347,878.67331 99.229814,886.09284 95.884328,890.03516 C 92.495179,894.02894 87.442128,896.32221 80.257418,898.1614 C 78.717219,893.5196 74.961955,881.60927 78.550662,877.63366 C 82.09533,873.70683 87.672583,874.24564 91.188851,875.60473 C 92.94702,872.94702 94.275873,871.80689 97.183211,869.95677 C 88.438953,870.34755 79.018948,871.08535 72.553287,874.45299 C 74.622303,877.96433 74.084499,884.96358 67.119383,886.63041 C 60.237567,888.27731 54.82329,883.58725 49.586519,882.72276 C 51.287869,878.01797 54.949034,865.89292 61.379115,865.17517 C 67.798894,864.45858 70.31677,867.895 71.296279,871.84587 C 76.768878,868.18439 84.608761,866.5787 93.13391,867.4026 C 90.988145,865.87885 88.966974,864.4797 87.631069,862.0838 C 84.460552,865.51196 77.734453,865.43701 75.103043,861.8121 C 72.429577,858.12925 74.991926,849.44483 74.41122,843.79351 C 79.431013,845.70068 88.896503,843.34431 93.395799,848.64693 C 97.85148,853.89816 93.893702,859.11215 89.907888,860.67154 C 98.972964,871.03367 104.7783,866.24239 117.36742,872.55186 L 115.27463,867.58896 C 110.10353,867.17708 105.58429,866.11721 105.74782,859.53169 C 105.91284,852.88494 113.64769,849.19172 115.0729,844.6753 C 116.7975,848.70781 126.8385,851.81648 127.14647,858.41651 C 127.4541,865.00909 123.46151,866.70321 119.39106,866.71806 C 120.84713,872.86582 121.68649,874.16801 127.45952,878.55375 C 126.75349,876.64331 125.6045,873.80378 125.34142,872.82243 L 125.59061,870.33055 L 129.66571,872.1932 C 129.80415,873.81451 132.2674,879.36307 135.05974,883.16372 C 137.88265,887.00598 139.87737,892.21754 142.28619,896.74445 C 137.75235,878.18367 131.73318,863.18563 127.61016,852.85148 C 123.51743,842.59329 119.64636,839.81976 111.04514,838.54273 C 111.77119,842.5541 109.62849,850.04996 101.60454,848.53653 C 93.596183,847.02605 92.218588,840.55748 85.875336,839.41529 C 90.011521,838.52394 94.750461,826.74936 101.34367,827.17915 C 107.92946,827.60845 109.958,831.61825 110.13565,835.40067 C 112.80499,836.03619 115.25178,835.92336 118.14366,837.30724 C 113.36072,830.65154 105.77105,823.54424 102.90216,821.00853 C 100.07656,818.51108 98.585201,819.77511 94.101999,819.50467 C 95.504358,826.74404 92.041163,831.03067 85.454279,830.93751 C 78.80613,830.8435 74.630371,826.48018 67.959256,824.68271 C 72.218629,823.45136 75.558054,810.54889 81.90328,809.02058 C 88.227904,807.49722 91.038722,811.55574 92.947185,815.802 C 95.002726,815.65802 97.182711,815.2195 99.113809,815.37005 C 97.629281,813.09164 97.025763,810.63704 96.774651,808.00623 C 91.829938,808.30934 85.593006,807.54302 84.419601,801.06083 C 83.235273,794.51835 89.474673,794.12412 90.412882,783.50705 C 94.148719,786.5884 105.6699,788.69948 107.30796,795.10041 C 108.94418,801.49413 104.33624,805.86129 100.35312,806.70009 C 100.23369,811.91008 102.32769,816.16158 110.03835,823.38726 C 110.09709,820.56802 109.89152,816.69158 111.18367,814.13664 C 112.38772,814.37158 113.23936,814.78271 114.44341,815.01765 C 113.50367,817.89562 113.16574,821.38034 113.2981,823.03485 C 113.41676,824.51817 113.26766,825.52076 114.26721,826.647 C 115.30975,827.82168 122.07884,837.16041 125.98466,842.41711 C 126.02741,840.36875 125.89397,838.40848 126.37722,836.27202 C 122.75753,833.9846 118.7219,831.28672 121.32354,825.23468 C 123.94938,819.12635 130.5438,818.82085 133.35958,814.94305 C 134.47704,819.85757 141.431,827.50019 140.23793,832.39298 C 139.04009,837.30535 134.06983,839.1561 130.28599,837.65565 C 130.20309,839.88888 129.47674,841.60885 129.2444,843.03382 C 129.02605,844.37304 129.27377,845.76495 129.94922,847.26267 C 130.65784,848.83395 139.58162,868.49505 143.6049,882.67934 C 143.4287,873.66365 143.01756,856.76292 143.07629,855.63228 C 142.01359,853.31788 140.80619,851.45218 139.19984,849.5533 C 139.17915,848.41578 139.34667,844.0323 139.37604,842.85762 C 141.1087,844.23787 143.28185,846.49913 144.66211,848.49609 L 144.66211,826.3827 C 144.66211,823.48023 142.34253,821.96487 141.49046,820.92042 C 140.68078,819.92793 134.61689,813.74719 130.5634,809.54387 C 128.50664,814.83475 118.31046,815.13354 115.77626,810.70753 C 113.26352,806.31901 113.89523,800.28939 113.51839,792.1594 C 118.94054,793.05945 127.0819,792.51057 131.00617,796.40873 C 134.97455,800.3507 133.8872,803.79078 132.85863,807.43456 C 136.93996,811.92985 140.92085,815.19172 145.00218,819.68701 L 145.09028,802.86076 C 141.14804,803.81508 133.25806,800.32727 134.69598,792.02908 C 136.11908,783.81642 145.32281,780.73494 147.10125,775.83789 z "
       style="color:#000000;fill:#316318;fill-opacity:1;fill-rule:evenodd;stroke:#000000;stroke-width:1.41732287;stroke-linecap:butt;stroke-linejoin:miter;marker:none;marker-start:none;marker-mid:none;marker-end:none;stroke-miterlimit:4;stroke-dasharray:none;stroke-dashoffset:0;stroke-opacity:1;visibility:visible;display:inline;overflow:visible;enable-background:accumulate"
       id="path3229" />
  </g>
</svg>
