<?xml version="1.0" encoding="UTF-8"?>
<svg version="1.0" viewBox="0 0 210.67 246.76" xmlns="http://www.w3.org/2000/svg" xmlns:cc="http://creativecommons.org/ns#" xmlns:dc="http://purl.org/dc/elements/1.1/" xmlns:rdf="http://www.w3.org/1999/02/22-rdf-syntax-ns#">
<metadata>
<rdf:RDF>
<cc:Work rdf:about="">
<dc:format>image/svg+xml</dc:format>
<dc:type rdf:resource="http://purl.org/dc/dcmitype/StillImage"/>
</cc:Work>
</rdf:RDF>
</metadata>
<g transform="translate(-71.772 -742.22)">
<path d="m72.772 743.22 3.7939 159.38c2.71 113.84 198.37 113.84 201.08 0l3.7939-159.38h-208.67z" fill="#feec01" fill-rule="evenodd" stroke="#000" stroke-width="2"/>
<path d="m216.02 951.34c-1.7266 2.055-7.9128 1.6274-11.149 1.3341-3.3239-0.30121-5.0624-3.5401-3.8134-3.8687 1.2246-0.3222 2.1483-1.6349 2.0602-2.8594-0.09441-1.3122 4.3415-1.5969 5.4394-1.4222 1.0119 0.1611 1.7072 3.0084 2.911 4.5673 1.2459 1.6134 3.179 1.9695 4.5521 2.2489z" color="#000000" fill-rule="evenodd" stroke="#efd905" stroke-linejoin="round" stroke-width="1px"/>
<path d="m103.43 813.86c2.0326 5.8949 3.8676 11.127 5.101 15.02 0.82228-1.3509 1.2708-2.951 2.093-4.3018 1.3802 4.9924 3.2891 10.146 5.4623 12.583 0.41114-1.4096 1.196-3.3176 1.6072-4.7272 1.116 4.317 3.0978 8.7585 5.6234 11.049 0.11747-2.5843 0.16195-4.7583 0.27942-7.3426 1.1453 4.4932 3.0835 9.5149 4.6694 12.422 0.88101-2.5843 1.3366-5.3448 1.8652-8.6339 0.85165 4.1114 3.1859 9.2221 4.8304 12.1 0.96911-2.5843 1.3731-4.8313 1.6161-7.6434 0.46987 1.762 2.2889 3.9067 2.7588 5.6687l18.411-2.7337-4.5453-25.426-14.777-4.5107c-5.5869-2.5202-15.386-9.4234-19.422-13.197-4.0994-3.8327-2.3226-8.7833-1.6765-10.839 0.65448-2.0824 2.5237-1.6193 3.9646-2.4668 1.4977-0.88102 2.1386-1.659 2.9073-2.643 0.73418-0.93975-0.79291-1.439-1.4977-2.2906-0.70481-0.85164-2.6383-6.2299-6.0587-4.9097-3.5291 1.3622-11.323 1.9342-11.686-2.4241-0.35608-4.2708-6.0399 2.005-7.4495 3.0622-1.4096 1.0572-1.1239 3.0695-0.24293 4.0386l6.1671 28.146z" color="#000000" fill-rule="evenodd" stroke="#efd905" stroke-linejoin="round" stroke-width="1px"/>
<path d="m125.76 920.75-2.6014 20.354c-3.3036 3.2349 2.0863 3.7587 3.1591 5.101s3.1031 0.99835 6.4465 0.07296c3.2564-0.90132 10.013-2.7838 16.547-3.1799s14.062-1.7195 18.573-3.3578c-7.0304-1.7264-0.4168-1.0937 6.0233-4.4703-7.42-1.7406 2.4494-1.9615 9.5963-5.6004-10.544-1.2096 0.20624-1.2829 8.7341-6.9987-14.447-0.68542-1.6504-2.6668 5.2053-6.0837-9.1761-1.0911-5.038-0.86067 0.75382-5.5035-25.948-5.4821-0.29453-20.667 2.3219-21.29s2.5685 0.9075 2.142-4.3221c0.63109 8.4922 1.6579 12.777 3.3831 16.923 0.69324-0.6149 1.0919-1.1632 2.159-2.0273 0.54054 3.5437 3.3684 8.4677 6.845 12.974 0.66623-1.3225 0.80268-3.7465 1.0076-5.8759 0 0 5.644 5.6116 13.162 11.849 7.5699 6.281-9.267 30.606-15.126 32.325-5.8262 1.7093-8.7902 1.6217-11.616 0.00163-2.8812-1.6518-4.7221 0.56847-4.5182 1.7571 0.23758 1.3853 0.24028 2.1639-0.01277 3.3646-0.24908 1.1819-1.1409 2.8966-0.38099 4.0265s3.4705 1.3511 5.0835 0.2388c2.4153-1.383 3.62-2.2528 6.3768-2.6725-2.6771 0.321-8.2946 2.9316-8.8323 4.9176-0.55983 2.0679 6.9122 5.3446 8.6096 4.894 1.8614-0.49416 8.7724-7.5358 8.7044-7.5272-0.06801 0.0086-6.5502 5.2917-6.4314 6.9737 0.11883 1.6821 3.7473 3.2038 5.8888 3.3916 2.1416 0.18781 2.7517-1.5788 6.2245-4.3794 3.4727-2.8006 7.718-4.3046 9.5952-9.0824 1.8243-4.6432 8.7819-8.6222 12.895-11.553-6.9736 0.6877-1.257-1.8718 5.0355-8.8998-9.4171 2.273-2.2686-0.61479 3.489-7.8721-9.6507 2.9223-1.9472-0.85795 2.5006-11.907-11.923 8.2471-2.1138-0.43527 1.113-8.6989-8.9735 5.6912-5.2514 2.4197-3.2596-4.9114-14.372 10.852-14.407-6.0587-19.296-17.856 11.316 7.0574 22.769 6.3526 24.972-9.6818 2.2025-15.946-14.706-41.248-18.149-52.949-3.5073-11.921-2.0263-13.215-0.35241-13.744s11.03-3.6105 15.33-7.5767c4.3468-4.0099 8.1934-9.0744 5.3742-20.792-1.6714 11.324-14.679 18.295-19.911 22.818 5.2861-4.5813 18.281-11.363 19.999-22.73 0.46273-3.0624-0.0881-12.693-7.3916-13.164 2.2907 2.0407 2.7061 8.2578 0.91752 11.648 1.5208-3.1294 1.3189-9.4848-0.97194-11.698-2.2473-2.171-4.3377-2.9936-7.4946-3.1307-3.162-0.13733-2.3409 1.8148 0.02398 2.998 2.9427 1.4723 4.0298 2.946 3.5214 7.8071-0.49926 4.7739-7.699 6.4194-13.802 14.79s-5.8684 22.644-2.9954 32.95c2.9052 10.421 11.12 23.503 14.303 31.45 3.1404 7.8388 6.1436 15.711 3.4655 22.542-2.6356 6.7234-8.5411 4.6631-12.099 2.1019-3.4998-2.5193-7.0202-5.1742-11.381-14.596-4.3135-9.319-12.877-20.998-16.269-26.497-3.3581-5.4438-10.339-15.441-13.95-15.917-34.622 1.3359-60.861 29.133-68.607 36.135-7.939 7.176-14.643 13.024-20.375 9.8058-4.4664-2.5072-8.2023-3.6059-9.126-4.8268-1.2399-1.6386-6.0425-1.0812-7.8045 1.0332s-1.2334 6.2552-0.88101 7.3124c0.3524 1.0572 3.1716 3.2598 4.2289 2.5549 1.0572-0.7048 4.1408-1.3215 5.9028-1.3215-7.2697 1.1357-10.254 2.6582-9.9554 3.9646 0.31737 1.3902 3.6121 5.3741 5.0218 6.6076 1.4096 1.2334 3.0835 1.5858 3.9646 0.1762 0.88101-1.4097 4.8456-4.1408 7.3124-5.9909-4.7926 3.8596-5.3487 4.4043-5.9909 6.4314-0.60854 1.921 4.2289 4.1407 5.8147 4.8455s2.1316 0.4688 5.2861-1.6739c3.1141-2.1153 3.3001 0.13519 8.1934-2.1144 4.8204-2.2161 8.1934-3.8765 19.382-1.5858-0.82227-3.759-12.745-5.2274 7.2243-5.1099-4.9924-2.4962-5.4035-4.3757 8.2815-4.1408-8.1347-4.963-1.8208-3.3184 9.1625-3.3478-6.7544-3.0835-15.799-5.2861 8.0172-3.8765 0 0-1.3215-1.8501-4.1408-3.2597s3.2495-1.5036 5.3742-1.8501c2.1089-0.34389 3.3586-0.445 5.9242-3.0106 2.6184-2.5305-0.96415-5.4596-1.7318-6.281 0.61671 0.7929 4.21 4.1238 1.8652 6.2294-2.2964 2.0622-1.7179 1.5246-3.5908 2.8859 2.9727 1.6256 4.9337 1.6739 7.2243 2.0263s4.0998 0.63808 5.5094-0.59532 2.3058-1.0314 3.363-1.7362c-1.0454 0.68863-2.5548 1.419-3.322 1.891 1.0659 2.6756 8.0647 4.8095 11.353 9.4942-3.2151-4.6131-2.5308-2.28-4.2595-4.2429-10.462-0.66958-32.035 5.5614-39.422 23.161 1.3705-0.0831 2.0363 0.27441 3.7592-0.5135-1.6197 3.1979-2.2062 8.3617-1.334 12.432 1.378-1.5328 1.9408-3.2421 3.7164-4.2878 0 0 1.0095 7.4521 2.814 7.8771 1.8223 0.4291 0.94493 1.3385 0.39516 2.5435-0.69596 1.5254-10.315 16.979-20.474 17.331-9.7124 0.3398-11.149 1.7104-11.149-1.0609 0-2.2427 0.5651-4.4338 0.5651-5.5551 0-1.1214-0.32218-2.7864-1.4435-2.2881-1.1214 0.4984-3.354-0.68913-5.0656-1.0118-1.7116-0.32269-3.6221 0.97531-3.6221 3.218zm74.232-56.355c0.77779 1.4612 1.9364 7.7127 2.5594 10.329" color="#000000" fill-rule="evenodd" stroke="#efd905" stroke-linejoin="round" stroke-width="1px"/>
<path d="m212.73 835.33c-7.5252-5.1499-10.033-8.4397-16.686-9.7272 3.0676 5.3991 4.1417 10.674 4.3437 16.82-2.8657-4.1116-6.9772-7.351-12.086-10.217 1.0798 5.939 1.6612 12.875-1.4951 17.692-1.4951-3.7794-2.9902-8.1399-5.6067-11.213 0 2.2014-0.1246 4.2777-0.24918 5.4821-9.0123-11.421-21.96-10.134-36.88 1.1213-1.0798-7.4559 0.33226-16.033 1.8689-21.994-3.281 3.0536-4.4438 5.2351-7.2264 9.5346-1.2044-9.9559 1.7028-21.656 7.6002-30.615-2.658 2.1065-6.0636 5.5835-8.4724 6.9424 1.4121-6.7281 5.1914-13.83 9.5937-19.187-2.1781 0.58144-6.1006 3.1564-7.6558 3.987 1.306-5.2329 7.2219-13.705 12.141-18.191-2.1596 0.16612-5.939 2.0766-7.7248 2.7411 3.6443-4.4854 8.9084-9.8429 13.674-13.332-2.0661 0.16613-3.123 0.8004-5.4383-0.15482 7.2294-5.124 14.736-10.569 23.793-12.218 9.155-1.6672 8.8527-1.3522 15.303 4.4989l-10.413 21.973 2.5619 16.126c0.04153 5.6067 6.0787 9.6453 15.465 9.6453-0.5954 1.841-3.205 3.6405-4.8592 4.2362 4.4854 1.9104 8.4724 2.3258 12.833 3.7378-2.6165 0.91368-3.2394 2.4503-7.8494 2.6165 5.7866 5.2329 13.034 13.465 13.464 19.695z" color="#000000" fill-rule="evenodd" stroke="#efd905" stroke-linejoin="round" stroke-width="1px"/>
<path d="m125.05 938.2c7.0731 5.9429 8.7312 7.4109 15.852 7.0314 7.1151-0.3791 8.4583-0.6266 5.5197-4.7194-2.9805-4.1512-13.788-4.7898-17.206-9.2325-3.4513-4.4855-3.6007-8.4233-3.6007-9.5447 0-1.1213-3.5949-2.0728-4.488-0.19129-0.90865 1.9143-4.294 1.5286-4.3306 3.8473-0.0365 2.3157-1.0428 5.3056 3.2269 6.1744l5.0276 6.6348z" color="#000000" fill-rule="evenodd" stroke="#efd905" stroke-linejoin="round" stroke-width="1px"/>
<path d="m124.61 940.4c-2.8102 2.0092-3.1902 1.26-4.3895 0.4567-1.1992-0.8034-2.9427-3.1883-2.3641-5.1412 0.57862-1.9528-1.1812-4.1402 0.88102-4.0526 1.6826 0.07146 5.7453-0.05413 5.8189-1.168 0.14234 0.17406 0.08891 1.8959 0.06872 2.1887-0.13669 1.982 2.8769 5.6487-0.01511 7.7164z" color="#000000" fill-rule="evenodd" stroke="#efd905" stroke-linejoin="round" stroke-width="1px"/>
<path d="m114.12 869.15c-7.0481 2.2906-10.196-1.5254-12.486-3.9041-2.2906-2.3787 0.2127-4.551 1.5342-5.6082 1.3215-1.0573 4.6454 0.57126 6.055 0.30696s2.4152-1.2975 3.3843 0.02406c0.96912 1.3215-0.01511 3.9556-0.01511 5.2772s0.82315 2.4945 1.528 3.9041z" color="#000000" fill-rule="evenodd" stroke="#efd905" stroke-linejoin="round" stroke-width="1px"/>
<path d="m98.808 799.46 4.2565-6.1217c-2.6191-1.1382-4.191-6.2203-5.7667-7.5288s-4.3722 4.5787-4.3722 4.5787c0.1762 2.5256 1.4889 6.54 5.8825 9.0718z" color="#000000" fill-rule="evenodd" stroke="#efd905" stroke-linejoin="round" stroke-width="1px"/>
<path d="m103.52 812.89c-6.2552-6.2552-8.0949-12.425-4.8839-17.845 3.2495-5.4851 9.1537-8.4168 10.512-9.2311-1.4454 0.86773-2.9663 1.546-4.1997 2.5151-1.2334 0.96911-0.38969-1.1582-0.4715-4.0216s-0.16521-6.7547 2.1572-7.1941c2.3224-0.43937 10.785 2.7227 8.6767 4.366-2.155 1.6796-5.1424 8.1265-5.5397 14.831-0.41028 6.9235-2.3743 13.849-6.2508 16.58z" color="#000000" fill-rule="evenodd" stroke="#efd905" stroke-linejoin="round" stroke-width="1px"/>
<path d="m102.1 896.66c-2.0466-5.8894-0.52468-9.103 1.1468-11.648 1.0049 0.70432 3.4299 2.2606 3.9836 3.4682-1.9524 1.0615-4.9653 4.5062-5.1304 8.18z" color="#000000" fill="#b20f18" fill-rule="evenodd" stroke="#000" stroke-width="1px"/>
<path d="m87.626 885.5c1.7902-5.9724 3.8741-7.6453 7.072-8.5534 0.40202 1.1594 0.92712 3.4419 0.49243 4.7451-2.1964 0.15742-4.7989 1.1653-7.5644 3.8083z" color="#000000" fill="#b20f18" fill-rule="evenodd" stroke="#000" stroke-width="1px"/>
<path d="m84.646 864.21c2.742-2.4618 8.4592-2.0355 11.162-0.63302-0.15739 1.424-1.5509 3.2322-3.1361 3.554-1.5791-1.5347-4.2128-2.6156-8.0259-2.921z" color="#000000" fill="#b20f18" fill-rule="evenodd" stroke="#000" stroke-width="1px"/>
<path d="m101.21 854.08c6.5327 0.11869 7.9764 2.3271 9.2326 5.9344-1.0812 0.58026-3.0558 0.30268-4.3834 0.25347 0.37832-2.7606-1.4498-4.0513-4.8492-6.1879z" color="#000000" fill="#b20f18" fill-rule="evenodd" stroke="#000" stroke-width="1px"/>
<path d="m214.09 976.95c-3.8331-4.6996-2.5549-8.0172-1.2334-9.4268 1.1453 0.4405 2.1144 0.88101 3.1716 2.0263-1.2334 1.6739-1.9382 3.9646-1.9382 7.4005z" color="#000000" fill="#b20f18" fill-rule="evenodd" stroke="#000" stroke-width="1px"/>
<path d="m197.2 971.4c-0.42448-6.0497 3.1487-7.9364 5.041-8.3268 0.68218 1.02 1.2203 1.9385 1.4244 3.4838-1.9726 0.65725-4.4854 2.035-6.4654 4.8431z" color="#000000" fill="#b20f18" fill-rule="evenodd" stroke="#000" stroke-width="1px"/>
<path d="m187.88 957.5c4.0834-4.7117 7.6969-4.202 10.737-4.0231-0.10915 1.2222-0.09049 2.6275-0.63726 4.3109-1.9482-0.72649-6.7954-1.231-10.099-0.28778z" color="#000000" fill="#b20f18" fill-rule="evenodd" stroke="#000" stroke-width="1px"/>
<path d="m195.43 944.13c6.2054-2.3319 8.6707-0.27716 11.171 1.4605-0.73044 0.98603-2.0639 1.49-3.1439 2.0247-1.2836-1.6357-2.778-3.6246-8.0273-3.4852z" color="#000000" fill="#b20f18" fill-rule="evenodd" stroke="#000" stroke-width="1px"/>
<path d="m122 952.64c-1.3738-6.0817-0.0546-7.28 1.8916-9.6219 0.91961 0.81248 1.6218 1.2781 2.0367 2.5402-2.3567 0.87398-2.8174 3.4213-3.9283 7.0818z" color="#000000" fill="#b20f18" fill-rule="evenodd" stroke="#000" stroke-width="1px"/>
<path d="m111.18 938.05c3.3399-5.2649 5.1198-5.1758 8.1526-5.4494 0.07322 1.2249 0.23884 2.051-0.3627 3.2356-2.2823-1.0532-4.4123 0.41793-7.7898 2.2138z" color="#000000" fill="#b20f18" fill-rule="evenodd" stroke="#000" stroke-width="1px"/>
<path d="m112.85 919.93c6.0926-1.3247 7.985 0.09224 10.311 2.0572-0.46747 1.1773-2.5245 2.2282-3.7899 2.6328-0.85494-2.3637-2.8698-3.5497-6.5212-4.6901z" color="#000000" fill="#b20f18" fill-rule="evenodd" stroke="#000" stroke-width="1px"/>
<path d="m129.84 912.14c5.0532 3.6523 4.5923 5.5117 4.6819 8.5554-1.2271-0.00102-3.0309 0.11433-4.1769-0.55777 0.5726-2.1263 1.0832-4.5176-0.50507-7.9976z" color="#000000" fill="#b20f18" fill-rule="evenodd" stroke="#000" stroke-width="1px"/>
<path d="m123.56 777.75c0.83987 3.0245 1.2429 7.7804 0.02548 9.2017-0.9966-0.20817-2.3395-1.6468-2.7372-2.9144 0.78989-0.74308 2.6282-2.2809 2.7117-6.2873z" color="#000000" fill="#b20f18" fill-rule="evenodd" stroke="#000" stroke-width="1px"/>
<path d="m111.85 770.44c3.6209 3.6891 3.7409 7.3598 2.6684 9.6191-1.3915 0.04352-2.8244-0.46201-3.7003-1.2674 1.2508-2.3032 1.2112-4.9779 1.0319-8.3517z" color="#000000" fill="#b20f18" fill-rule="evenodd" stroke="#000" stroke-width="1px"/>
<path d="m93.168 774.05c6.5327 0.11869 8.2407 1.8866 9.4969 5.4939-0.46454 0.75646-2.2629 2.2409-3.5905 2.1917-0.062186-2.4963-2.507-5.549-5.9064-7.6856z" color="#000000" fill="#b20f18" fill-rule="evenodd" stroke="#000" stroke-width="1px"/>
<path d="m84.182 785.95c5.4755-1.5915 9.8872-1.5707 12.3 1.3906-0.81798 0.91471-1.1044 2.4494-2.369 2.8566-2.0852-2.9-5.0372-3.6647-9.9311-4.2472z" color="#000000" fill="#b20f18" fill-rule="evenodd" stroke="#000" stroke-width="1px"/>
<path d="m169.49 764.3c-18.034 22.509-4.6586 34.417 8.7555 31.31 13.433-3.1117 10.337 0.77123 13.413 1.3189 3.3791 0.60158 5.8827-1.1354 7.3643-1.5058 1.4951-0.37379 0.67014-2.1376-1.0742-3.0098-1.7443-0.87216-6.3889-3.0997-9.6498-3.8775-3.523-0.84033-6.0874 0.46966-4.8912-3.4433s4.8956-9.7032 7.1383-11.448 3.6044-1.9117 5.4733 0.08184 4.4898 7.0654 8.6014 4.6981 5.6398-6.1354 4.245-7.6349c-1.5784-1.697-2.826-3.1926-0.40845-0.79031 3.4094 3.388 2.8318-2.1137-0.50463-4.8573-2.0232-1.6638-6.567-3.8322-9.1834-5.5765-2.5604-1.7069-6.3543-3.8624-12.21-3.7378-4.7335 0.10071-3.429 1.8279-7.6002-2.1181-4.2959-4.0706-17.817-2.9902-9.4691 10.59z" color="#000000" fill-rule="evenodd" stroke="#efd905" stroke-linejoin="round" stroke-width="1px"/>
<path d="m196.52 792.73 1.5438-5.1125-4.7702 3.2206 0.10087-3.1325-2.9954 2.3787 6.121 2.6457z" color="#000000" fill="#b20f18" fill-rule="evenodd" stroke="#000" stroke-width="1px"/>
<path d="m196.09 772.12-0.15555 6.6832 3.2058-3.6158-0.21035 5.9945 3.2472-3.8702-6.0871-5.1918z" color="#000000" fill="#b20f18" fill-rule="evenodd" stroke="#000" stroke-width="1px"/>
<path d="m203.18 885.12s0.16173-7.9216-0.21269-9.2871c-0.39695-1.4477-1.5604-2.9382-3.0212-3.3328-1.646-0.4445-6.4332-1.4461-5.6403-0.38882 0.79292 1.0572 4.9915 3.2811 4.9915 4.955s-0.24484 4.8357 0.32659 6.6548c0.5788 1.8424 2.9394 1.487 3.5561 1.3989z" color="#000000" fill-rule="evenodd" stroke="#efd905" stroke-linejoin="round" stroke-width="1px"/>
<path d="m191 766.48c-1.2252-0.13773-1.5838 0.03062-2.3914-0.36376-1.0094-0.49296-1.1234-0.75437-1.2237-2.0841s1.848-2.6681 0.08809-2.6681c-1.6976 0-1.941-1.2104-0.4147-1.1792 1.5263 0.03115 4.8407 1.4374 5.7558 1.799 0.88181 0.34852 0.91763 1.418-0.22363 1.0032-1.1561-0.42024-1.2885-0.79083-2.3199-1.0227-1.0314-0.23187-1.918 0.93457-0.52417 1.3567 1.2987 0.39333 1.232 1.526-0.42228 0.82811-1.6389-0.69139-0.39946 1.2639 0.48458 1.4297 0.87708 0.16447 0.92665 0.21144 1.6549 0.23599 0.72547 0.02446 0.75575 0.80219-0.46373 0.66511z" color="#000000" fill="#efd905" fill-rule="evenodd"/>
<path d="m173.46 755.79c1.3004 0.55288 3.3898 2.5133 4.6981 3.8215" color="#000000" fill="none" stroke="#efd905" stroke-linecap="round" stroke-width="1px"/>
<path d="m182.22 785.71c11.249-0.20856 17.654 0.78158 22.161 3.3413 5.028 2.8557 12.919 5.1518 17.192 3.7626 4.5875-1.4915 3.9022-4.8393 3.4617-7.218-0.4405-2.3787-1.7682-2.4101-2.7116-1.4159-1.156 1.2183-8.8964 4.0162-14.984 1.7985-6.9382-2.5274-8.6904-4.4943-24.008-3.7845-0.66394 0.70215-0.88738 2.1091-1.1108 3.5161z" color="#000000" fill="#b20f18" fill-rule="evenodd" stroke="#000" stroke-width="1px"/>
</g>
</svg>
