<?xml version="1.0" encoding="UTF-8"?>
<svg version="1.0" viewBox="0 0 238.77 279.68" xmlns="http://www.w3.org/2000/svg" xmlns:cc="http://creativecommons.org/ns#" xmlns:dc="http://purl.org/dc/elements/1.1/" xmlns:rdf="http://www.w3.org/1999/02/22-rdf-syntax-ns#">
<metadata>
<rdf:RDF>
<cc:Work rdf:about="">
<dc:format>image/svg+xml</dc:format>
<dc:type rdf:resource="http://purl.org/dc/dcmitype/StillImage"/>
</cc:Work>
</rdf:RDF>
</metadata>
<g transform="translate(-4.4781 -791.67)">
<path d="m5.4781 792.67 4.3049 180.82c3.0749 129.15 225.08 129.15 228.16 0l4.3049-180.82h-236.77z" fill-rule="evenodd" stroke="#000" stroke-width="2"/>
<path transform="translate(0 804.33)" d="m8.3125 108.03 1.4688 61.125c3.0749 129.15 225.08 129.15 228.16 0l1.4688-61.125h-34.844l-0.00886 35.451h-27.688l0.00886-35.451h-39.156l-0.00886 35.451h-27.688l0.00886-35.451h-39.156l-0.008858 35.451h-27.688l0.008858-35.451h-34.875z" fill="#fff" fill-rule="evenodd"/>
<path d="m8.464 948.18 230.08-0.0076" fill="none" stroke="#000" stroke-width="1px"/>
<path d="m10.58 987.59h226.52" fill="none" stroke="#000" stroke-width="1px"/>
<path d="m26.626 1027h194.25" fill="none" stroke="#000" stroke-width="1px"/>
<path d="m25.052 948.56v38.548" fill="none" stroke="#000" stroke-width="1px"/>
<path d="m91.897 948.56v38.548" fill="none" stroke="#000" stroke-width="1px"/>
<path d="m158.74 948.56v38.548" fill="none" stroke="#000" stroke-width="1px"/>
<path d="m225.59 948.56v38.548" fill="none" stroke="#000" stroke-width="1px"/>
<path d="m58.474 987.99v38.694" fill="none" stroke="#000" stroke-width="1px"/>
<path d="m125.32 987.99v38.694" fill="none" stroke="#000" stroke-width="1px"/>
<path d="m192.16 987.99v38.694" fill="none" stroke="#000" stroke-width="1px"/>
<path d="m91.897 1027.4 0.043954 39.439" fill="none" stroke="#000" stroke-width="1px"/>
<path d="m158.74 1027.4-0.04574 38.742" fill="none" stroke="#000" stroke-width="1px"/>
</g>
</svg>
