<?xml version="1.0" encoding="UTF-8"?>
<svg version="1.0" viewBox="0 0 603 763" xmlns="http://www.w3.org/2000/svg" xmlns:cc="http://creativecommons.org/ns#" xmlns:dc="http://purl.org/dc/elements/1.1/" xmlns:rdf="http://www.w3.org/1999/02/22-rdf-syntax-ns#" xmlns:xlink="http://www.w3.org/1999/xlink">
<desc>Coat of Arms of Canton of Freiburg (Fribourg)</desc>
<metadata>
<rdf:RDF>
<cc:Work rdf:about="">
<dc:format>image/svg+xml</dc:format>
<dc:type rdf:resource="http://purl.org/dc/dcmitype/StillImage"/>
<dc:date>07-AUG-2006</dc:date>
<dc:creator>
<cc:Agent>
<dc:title>Jérôme BLUM (wagner51)</dc:title>
</cc:Agent>
</dc:creator>
<cc:license rdf:resource="http://creativecommons.org/licenses/GPL/2.0/"/>
<dc:coverage/>
<dc:description>Gabarit pour le Projet:Blasons de WIkipédia</dc:description>
<dc:subject>
<rdf:Bag>
<rdf:li>blason suisse modèle gabarit projet blasons</rdf:li>
</rdf:Bag>
</dc:subject>
<dc:language>fr</dc:language>
<dc:title/>
</cc:Work>
<cc:License rdf:about="http://creativecommons.org/licenses/GPL/2.0/">
<cc:permits rdf:resource="http://web.resource.org/cc/Reproduction"/>
<cc:permits rdf:resource="http://web.resource.org/cc/Distribution"/>
<cc:requires rdf:resource="http://web.resource.org/cc/Notice"/>
<cc:permits rdf:resource="http://web.resource.org/cc/DerivativeWorks"/>
<cc:requires rdf:resource="http://web.resource.org/cc/ShareAlike"/>
<cc:requires rdf:resource="http://web.resource.org/cc/SourceCode"/>
</cc:License>
</rdf:RDF>
</metadata>
<defs>
<radialGradient id="a" cx="858.04" cy="579.93" r="300" gradientTransform="matrix(1.215 0 0 1.2667 -839.19 -490.49)" gradientUnits="userSpaceOnUse">
<stop stop-color="#fff" stop-opacity=".31373" offset="0"/>
<stop stop-color="#fff" stop-opacity=".25098" offset=".19"/>
<stop stop-color="#6b6b6b" stop-opacity=".12549" offset=".6"/>
<stop stop-opacity=".12549" offset="1"/>
</radialGradient>
</defs>
<g>
<path d="m1.5 1.5v458.87c0 166.31 134.31 301.13 300 301.13 165.69 0 300-134.82 300-301.13v-458.87h-600z" fill="#fff"/>
<path d="m300.87 280.29v481.05h-9.8934c-33.131-0.5901-64.929-9.0726-94.852-19.052l-0.0842-462z" fill="#fcef3c" stroke="#000" stroke-width="2.7324"/>
<path d="m504.47 281.98v162.23 51.09l-1 187.32c-29.084 20.692-41.905 37.138-107.12 62.392v-115.76-115.76-68.305-163.22z" fill="#fcef3c" stroke="#000" stroke-width="2.7556"/>
<path d="m100.87 278.18v162.23 51.09 194.32c26.009 20.692 60.725 47.138 96.688 55.391v-115.76-115.76-68.305-163.22z" fill="#e20909" stroke="#000" stroke-width="2.6058"/>
<path d="m300.87 280.29v481.05h9.125c30.558-0.5901 58.964-7.0726 86.562-17.052l1-464z" fill="#e20909" stroke="#000" stroke-width="2.6242"/>
<path d="m504.87 279.55-1.7678 402.28c46.081-37.184 84.006-104.47 97.334-187.7l1.1213-214.58z" fill="#e20909" stroke="#000" stroke-width="2.5361"/>
<path d="m100.94 279.36 0.83593 405.28c-47.858-37.184-86.245-107.47-100.09-190.7l-1.1646-214.58z" fill="#fcef3c" stroke="#000" stroke-width="2.5845"/>
<path d="m225.44 272.16c-35.113 1.8397-32.223-32.118-77.023-32.884-53.266-0.88924-38.835 32.488-77.054 32.884-36.253 0.3506-29.385-29.735-69.648-33.032l-0.0201 47.139c36.335 5.7587 38.093 35.417 69.668 34.012 41.974-1.8688 45.002-35.381 77.054-34.978 33.914 0.4105 41.383 35.127 79.463 34.978 36.09-0.25537 38.544-34.892 74.614-34.978 41.821-0.0962 36.749 34.978 77.213 34.978 40.464 0 45.068-34.978 76.547-34.978 39.248 0 46.293 33.933 81.238 34.978 36.793 1.1329 41.038-23.453 62.587-31.899l0.24454-48.911c-33.019 2.8459-31.172 32.367-62.831 32.691-36.514 0.11156-39.972-32.915-80.921-32.884-39.987 0.0309-40.115 34.214-74.455 32.884-33.177-1.2846-37.53-31.521-79.622-32.884-34.587 1.8087-41.094 25.033-77.054 32.884z" fill="#2b5df2" fill-rule="evenodd" stroke="#000" stroke-width="3.0673"/>
<g transform="matrix(.63011 0 0 .64465 296.03 -614.47)" stroke="#000">
<path d="m301.5 977.83c-41.818 0-57.51 22.386-57.51 22.386l57.51 112.54 57.51-112.54s-15.693-22.386-57.51-22.386zm-89.264 45.458s-26.14 8.005-39.062 47.776c-12.923 39.771 3.519 61.612 3.519 61.612l124.81-19.916-89.264-89.472zm9.955 198.63c33.83 24.58 59.684 15.693 59.684 15.693l19.625-124.85-112.68 57.246s-0.463 27.334 33.369 51.914zm207.63-150.86c-12.923-39.771-39.062-47.777-39.062-47.777l-89.264 89.473v0l19.626 124.85s25.853 8.889 59.685-15.691c33.831-24.58 33.368-51.914 33.368-51.914l-112.68-57.247 124.81 19.918c0-1e-3 16.442-21.843 3.519-61.615z" fill="#e20909" stroke-linecap="round" stroke-linejoin="round" stroke-width="3"/>
<path d="m275.72 1222c0 18.193 18.97 44.52 25.779 62.975 6.81-18.455 25.778-44.781 25.778-62.975 0-18.191-25.771-109.13-25.778-109.16v-1e-3s-25.779 90.963-25.779 109.16zm137.56-99.942c-17.303-5.623-111.77-9.215-111.78-9.215 8e-3 0 78.546 52.626 95.849 58.249 17.305 5.621 48.204-4.283 67.86-5.057-15.448-12.179-34.624-38.356-51.928-43.977zm-26.763-82.373c10.694-14.721 10.822-47.168 16.161-66.102-16.357 10.929-47.178 21.077-57.872 35.797-10.695 14.719-43.307 103.46-43.307 103.46s74.322-58.439 85.018-73.158zm-85.018 73.157s-32.611-88.743-43.305-103.46c-10.695-14.72-41.516-24.868-57.873-35.797 5.34 18.935 5.468 51.382 16.162 66.102s85.016 73.158 85.016 73.158zm-163.71 53.191c19.657 0.773 50.557 10.68 67.86 5.057 17.304-5.623 95.849-58.248 95.849-58.248s-94.477 3.593-111.78 9.214c-17.305 5.623-36.48 31.798-51.928 43.977z" fill="#4f9e2c" stroke-linecap="round" stroke-linejoin="round" stroke-width="3"/>
<path d="m347.5 996.54c-23.5 0-33 16.25-46 16.25s-22.5-16.25-46-16.25-18 27-6 44.5l52 71.833 52-71.833c12-17.5 17.5-44.5-6-44.5z" fill="#e20909" stroke-linecap="round" stroke-linejoin="round" stroke-width="3"/>
<path d="m205.08 1033.2c-7.263 22.35 5.257 36.406 1.239 48.771-4.017 12.363-22.407 16.377-29.669 38.727-7.262 22.351 20.116 25.462 40.468 19.458l84.387-27.258-52.249-71.653c-12.935-16.821-36.914-30.395-44.176-8.045z" fill="#e20909" stroke-linecap="round" stroke-linejoin="round" stroke-width="3"/>
<path d="m195.91 1180c19.012 13.813 36.248 6.25 46.766 13.891 10.518 7.643 8.652 26.373 27.664 40.186s30.432-11.264 31.01-32.475l0.154-88.679-84.291 27.55c-19.995 7.103-40.314 25.715-21.303 39.527z" fill="#e20909" stroke-linecap="round" stroke-linejoin="round" stroke-width="3"/>
<path d="m332.66 1234c19.012-13.813 17.146-32.543 27.663-40.186 10.518-7.641 27.755-0.078 46.768-13.891 19.011-13.813-1.309-32.424-21.303-39.527l-84.292-27.549 0.154 88.679c0.578 21.211 11.998 46.287 31.01 32.474z" fill="#e20909" stroke-linecap="round" stroke-linejoin="round" stroke-width="3"/>
<path d="m426.35 1120.7c-7.26-22.349-25.65-26.363-29.669-38.727-4.017-12.363 8.502-26.42 1.24-48.771-7.262-22.349-31.24-8.774-44.176 8.045l-52.249 71.654 84.387 27.257c20.351 6.004 47.729 2.892 40.467-19.458z" fill="#e20909" stroke-linecap="round" stroke-linejoin="round" stroke-width="3"/>
<path d="m340.33 1113.7c10.454-7.093 36.944-24.62 49.104-28.572-12.154 3.95-43.882 5.342-56.52 5.749l-19.415-14.105c-3.518-12.144-11.998-42.75-11.998-55.531 0 12.781-8.48 43.387-11.998 55.53l-19.414 14.106c-12.636-0.407-44.365-1.799-56.521-5.749 12.161 3.951 38.651 21.479 49.104 28.572l7.417 22.821c-4.293 11.893-15.42 41.639-22.933 51.979 7.516-10.346 32.372-30.123 42.347-37.873h23.996c9.976 7.75 34.831 27.527 42.348 37.871-7.513-10.338-18.641-40.084-22.934-51.977l7.417-22.821zm-28.766 30.974-10.063-2.518-10.064 2.518-6.662-7.951-9.621-3.88-0.717-10.35-5.504-8.793 5.504-8.795 0.716-10.35 9.622-3.879 6.662-7.952 10.064 2.517 10.063-2.516 6.663 7.951 9.621 3.88 0.717 10.349 5.504 8.795-5.504 8.793-0.717 10.35-9.62 3.878-6.664 7.953z" stroke-linecap="round" stroke-linejoin="round" stroke-width="3"/>
<line x1="301.5" x2="301.5" y1="1012.8" y2="1020.4" fill="#fcef3c" stroke-linecap="round" stroke-linejoin="round" stroke-width="3"/>
<line x1="206.31" x2="213.57" y1="1081.9" y2="1084.3" fill="#fcef3c" stroke-linecap="round" stroke-linejoin="round" stroke-width="3"/>
<line x1="242.67" x2="247.15" y1="1193.8" y2="1187.7" fill="#fcef3c" stroke-linecap="round" stroke-linejoin="round" stroke-width="3"/>
<line x1="360.33" x2="355.85" y1="1193.8" y2="1187.7" fill="#fcef3c" stroke-linecap="round" stroke-linejoin="round" stroke-width="3"/>
<line x1="396.69" x2="389.43" y1="1081.9" y2="1084.3" fill="#fcef3c" stroke-linecap="round" stroke-linejoin="round" stroke-width="3"/>
<path transform="matrix(.60514 0 0 .60514 -388.59 939.69)" d="m1210.3 328.49c-5.7002 9.873 5.8548 12.965-1.7736 21.437-7.6283 8.4722-11.911-2.6963-21.134 4.0047-9.2231 6.701 0.075 14.225-10.34 18.862-10.415 4.637-9.7846-7.3078-20.936-4.9376-11.151 2.3703-5.7172 13.026-17.118 13.026s-5.9663-10.656-17.118-13.026c-11.151-2.3703-10.521 9.5745-20.936 4.9376s-1.1163-12.161-10.339-18.862c-9.2232-6.701-13.506 4.4675-21.134-4.0047-7.6283-8.4722 3.9266-11.564-1.7736-21.437s-14.155-1.412-17.678-12.254c-3.523-10.842 8.2905-8.9671 7.0989-20.305-1.1917-11.338-12.357-7.0474-11.166-18.385 1.1917-11.338 11.221-4.8198 14.744-15.662s-8.4223-11.464-2.7221-21.337c5.7002-9.873 12.211 0.16095 19.84-8.3112 7.6283-8.4722-3.0313-13.899 6.1918-20.6s11.09 5.1138 21.505 0.47686 2.884-13.93 14.035-16.3c11.151-2.3703 8.0513 9.1825 19.452 9.1825s8.3005-11.553 19.452-9.1825 3.6204 11.663 14.035 16.3 12.282-7.1778 21.505-0.47686-1.4365 12.128 6.1919 20.6c7.6283 8.4722 14.139-1.5618 19.84 8.3112 5.7002 9.873-6.2451 10.495-2.7222 21.337s13.552 4.3242 14.744 15.662c1.1917 11.338-9.9738 7.0474-11.165 18.385-1.1917 11.338 10.622 9.4626 7.0989 20.305s-11.978 2.3814-17.678 12.254z" fill="#fcef3c" fill-rule="evenodd" stroke-linecap="square" stroke-width="6.4544"/>
</g>
<path d="m1.5 1.5v458.87c0 166.31 134.31 301.13 300 301.13 165.69 0 300-134.82 300-301.13v-458.87h-600z" fill="url(#a)"/>
<path d="m1.5 1.5v458.87c0 166.31 134.31 301.13 300 301.13 165.69 0 300-134.82 300-301.13v-458.87h-600z" fill="none" stroke="#000" stroke-width="3"/>
</g>
</svg>
