<?xml version="1.0" encoding="UTF-8"?>
<svg version="1.1" viewBox="0 0 125 150" xmlns="http://www.w3.org/2000/svg" xmlns:cc="http://creativecommons.org/ns#" xmlns:dc="http://purl.org/dc/elements/1.1/" xmlns:rdf="http://www.w3.org/1999/02/22-rdf-syntax-ns#">
<metadata>
<rdf:RDF>
<cc:Work rdf:about="">
<dc:format>image/svg+xml</dc:format>
<dc:type rdf:resource="http://purl.org/dc/dcmitype/StillImage"/>
</cc:Work>
</rdf:RDF>
</metadata>
<path d="m0 0v87.5c0 34.62 27.88 62.5 62.5 62.5v-150h-62.5z" fill="#E3E3E3"/>
<path d="m62.5 0v150c34.62 0 62.5-27.88 62.5-62.5v-87.5h-62.5z" fill="#bbb"/>
<path d="m72.87 109.14c0 5.99-5.1 10.86-11.39 10.86-6.28 0-11.39-4.87-11.39-10.86s5.11-10.86 11.39-10.86c6.29 0 11.39 4.87 11.39 10.86zm-10.62-89.14h1.34c7.52 0 13.8 2 18.81 5.97 5.06 3.97 7.6 9.24 7.6 15.81 0 4.5-0.93 8.31-2.78 11.44-1.81 3.09-5.05 6.74-9.69 10.94-4.6 4.19-7.58 7.65-8.97 10.43s-2.09 5.82-2.09 9.13c0 0.7 0.32 2.56 0.97 5.56h-13.32l-1.31-3.37c-0.74-1.95-1.12-3.64-1.12-5.1 0-2.78 0.4-5.44 1.18-8 0.84-2.56 2.05-4.95 3.63-7.15 1.58-2.25 4.7-5.83 9.34-10.72 4.69-4.9 7.03-8.92 7.03-12.1 0-6.17-4.25-9.28-12.75-9.28-4.13 0-8.43 1.98-12.93 5.91l-7.19-12.78c5.71-4.25 13.13-6.49 22.25-6.69z" fill="#fff"/>
</svg>
