<?xml version="1.0" encoding="UTF-8"?>
<svg version="1.0" viewBox="0 0 603 763" xmlns="http://www.w3.org/2000/svg" xmlns:cc="http://creativecommons.org/ns#" xmlns:dc="http://purl.org/dc/elements/1.1/" xmlns:rdf="http://www.w3.org/1999/02/22-rdf-syntax-ns#" xmlns:xlink="http://www.w3.org/1999/xlink">
<metadata>
<rdf:RDF>
<cc:Work rdf:about="">
<dc:format>image/svg+xml</dc:format>
<dc:type rdf:resource="http://purl.org/dc/dcmitype/StillImage"/>
<dc:date>07-AUG-2006</dc:date>
<dc:creator>
<cc:Agent>
<dc:title>Jérôme BLUM (wagner51)</dc:title>
</cc:Agent>
</dc:creator>
<cc:license rdf:resource="http://creativecommons.org/licenses/GPL/2.0/"/>
<dc:coverage/>
<dc:description>Gabarit pour le Projet:Blasons de WIkipédia</dc:description>
<dc:subject>
<rdf:Bag>
<rdf:li>blason suisse modèle gabarit projet blasons</rdf:li>
</rdf:Bag>
</dc:subject>
<dc:language>fr</dc:language>
<dc:title>Gabrit d'un blason suisse</dc:title>
</cc:Work>
<cc:License rdf:about="http://creativecommons.org/licenses/GPL/2.0/">
<cc:permits rdf:resource="http://web.resource.org/cc/Reproduction"/>
<cc:permits rdf:resource="http://web.resource.org/cc/Distribution"/>
<cc:requires rdf:resource="http://web.resource.org/cc/Notice"/>
<cc:permits rdf:resource="http://web.resource.org/cc/DerivativeWorks"/>
<cc:requires rdf:resource="http://web.resource.org/cc/ShareAlike"/>
<cc:requires rdf:resource="http://web.resource.org/cc/SourceCode"/>
</cc:License>
</rdf:RDF>
</metadata>
<defs>
<radialGradient id="a" cx="858.04" cy="579.93" r="300" gradientTransform="matrix(1.215 1.5316e-24 1.4647e-23 1.2667 -839.19 -490.49)" gradientUnits="userSpaceOnUse">
<stop stop-color="#fff" stop-opacity=".31373" offset="0"/>
<stop stop-color="#fff" stop-opacity=".25098" offset=".19"/>
<stop stop-color="#6b6b6b" stop-opacity=".12549" offset=".6"/>
<stop stop-opacity=".12549" offset="1"/>
</radialGradient>
</defs>
<desc>Coat of Arms of Canton of Freiburg (Fribourg)</desc>
<g>
<path d="m1.5002 1.5v458.87c0 166.31 134.31 301.13 300 301.13 165.69 0 300-134.82 300-301.13v-458.87h-600z" fill="#e20909"/>
<path d="m1.5002 367.5v92.868c0 166.31 134.31 301.13 300 301.13 165.69 0 300-134.82 300-301.13v-92.868h-600z" fill="#fcef3c" stroke="#000" stroke-width="3"/>
<g transform="matrix(.49814 0 0 .49814 -296.59 305.27)">
<path d="m946.11 762.15c-0.96241-1.8044-1.4412-5.193-1.2477-8.8299 0.06088-1.144 2.3284-4.3212 5.039-7.0604 3.9121-3.9534 4.9947-5.7757 5.25-8.8374 0.29611-3.5505 0.73812-4.0622 5.5628-6.4396 5.534-2.727 6.5784-4.5291 3.2392-5.5889-1.3411-0.4257-3.6981 0.3917-7.015 2.4326-5.052 3.1085-12.15 4.2016-13.465 2.0736-0.33992-0.55-1.4366-1-2.437-1-1.0005 0-2.4602-0.9656-3.2438-2.1458-1.3981-2.1057-1.5183-2.1148-6.417-0.4877-5.9996 1.9927-9.4021 4.2329-9.4021 6.1902 0 0.7939-0.45 1.4433-1 1.4433-0.55198 0-1-2.6043-1-5.8129 0-5.0443 0.36362-6.1567 2.75-8.4133 1.5125-1.4302 4.6625-3.1067 7-3.7256 3.5442-0.9384 4.25-1.534 4.25-3.5867 0-1.3538 0.45-2.4615 1-2.4615s1.0006-0.5625 1.0014-1.25c0.00143-1.2914 8.3776-4.1948 17.999-6.2389 5.7624-1.2243 6.965-2.7089 4.6434-5.7321-1.2386-1.613-1.6926-1.6188-7.2325-0.0914-3.251 0.8963-6.5859 2.1634-7.4109 2.8159s-3.4258 1.9328-5.7795 2.8451c-3.9135 1.517-4.4861 1.5235-6.6942 0.0767-3.3396-2.1882-8.1107-2.8018-9.5023-1.2222-0.6284 0.7133-2.0228 2.7817-3.0987 4.5964-2.5539 4.3079-3.9253 3.2863-3.9253-2.9242 0-6.58 1.0495-8.2921 7.6857-12.537 3.0572-1.9556 5.7823-4.4116 6.0559-5.4578s1.5686-2.171 2.8779-2.4996 2.3805-0.9453 2.3805-1.3703c0-1.2907 8.5158-3.0104 14.908-3.0104 5.0358 0 6.2006-0.3337 7.1126-2.0377 1.4764-2.7587 0.46578-5.4198-2.5865-6.8105-3.5657-1.6246-5.2045-1.4433-7.6641 0.8482-1.1807 1.1-2.9353 2-3.8992 2-0.96384 0-2.0305 0.45-2.3705 1-0.84664 1.3699-10.128 1.2642-12.816-0.1459-1.2013-0.6303-2.5458-1.7583-2.9876-2.5067-1.2322-2.0868-4.4378 0.0974-6.1472 4.1887-0.79603 1.9052-1.6837 3.4639-1.9727 3.4639-1.4456 0-3.5767-6.4813-3.5767-10.878 0-4.1858 0.41893-5.3066 2.6349-7.0497 1.4492-1.1399 3.2629-2.0726 4.0306-2.0726s2.7786-1.575 4.4687-3.5c1.6902-1.925 3.8139-3.5143 4.7194-3.5318 0.90553-0.0175 2.5199-0.6925 3.5875-1.5s2.9644-1.4682 4.215-1.4682 4.4272-0.6856 7.0589-1.5235c15.907-5.0651 15.454-4.8697 13.22-5.6962-1.168-0.4321-2.3518-1.6578-2.6305-2.7238-0.44593-1.7052-1.1259-1.8664-5.6557-1.3401-2.8318 0.3289-6.1613 1.2541-7.3988 2.0559-2.1811 1.4131-2.25 1.3516-2.25-2.0122 0-5.4052 4.1899-8.2653 14.267-9.7387 4.4746-0.6543 9.0452-1.8267 10.157-2.6055 3.6048-2.5249 24.91-1.2395 28.026 1.6909 0.5225 0.4913 1.76 0.8932 2.75 0.8932s1.8 0.45 1.8 1 2.4377 1 5.4171 1c6.2649 0 11.951 2.3289 23.583 9.6597 2.0685 1.3036 6.5675 2.6413 11 3.2706 4.125 0.5857 10.65 1.5501 14.5 2.1431 18.994 2.9257 16.567 3.1801 23.859-2.501 6.4446-5.0213 7.4648-6.7225 5.7019-9.5085-0.7766-1.2273-1.5378-1.1587-5.2347 0.4715-2.3793 1.0491-4.6858 2.4829-5.1257 3.1861-1.4091 2.2529-4.7003 1.5376-4.7003-1.0215 0-1.265-0.5053-2.8052-1.1228-3.4228-0.6176-0.6176-2.6426-8.6626-4.5-17.878-2.747-13.629-3.3772-19.054-3.3772-29.077 0-8.1941-0.3636-12.322-1.0853-12.322-0.597 0-2.4798 1.575-4.184 3.5-3.8994 4.4045-7.886 4.6835-11.905 0.8333l-2.7835-2.6668-18.147 18.667c-17.133 17.624-18.355 18.667-21.866 18.667-4.387 0-7.0294-2.4043-7.0294-6.3961 0-2.3848-0.29071-2.6465-2.25-2.0252-1.2375 0.3924-4.2272 2.2227-6.6438 4.0674s-4.7837 3.3539-5.2603 3.3539-3.1072 1.575-5.8459 3.5-5.2137 3.5-5.5 3.5-2.6737 1.4625-5.3054 3.25c-7.3421 4.987-8.938 5.75-12.026 5.75-3.3004 0-6.1686-2.6981-6.1686-5.8027 0-2.0768-0.16561-2.0477-5.1807 0.9093-2.8494 1.68-7.7652 5.0434-10.924 7.474-3.1588 2.4307-5.9558 4.4194-6.2154 4.4194-0.88592 0-19.179 12.354-19.513 13.178-0.18334 0.4519-1.8708 0.8215-3.75 0.8215-2.872 0-3.4191-0.3586-3.432-2.25-0.03357-4.932-1.3247-5.3257-8.1569-2.4874-6.1167 2.541-7.1001 2.6388-29.471 2.9331-20.073 0.264-23.39 0.0919-25-1.2967-1.0211-0.8806-7.0316-3.7412-13.357-6.3569-6.325-2.6158-12.487-5.3764-13.693-6.1348-1.2062-0.7584-5.8579-5.7728-10.337-11.143-4.4791-5.3703-10.528-12.239-13.442-15.264-4.0265-4.1796-6.1874-7.6606-9.001-14.5-2.0363-4.95-4.2656-9.675-4.9538-10.5-0.68825-0.825-2.5154-4.65-4.0603-8.5-2.5476-6.3486-8.2458-13.438-10.838-13.485-1.5559-0.028-12.734-9.1767-14.455-11.83-3.3758-5.2061-4.3621-5.7056-10.538-5.3378-4.7472 0.2827-6.0769 0.0064-7.2182-1.5-0.76947-1.0156-1.4134-2.4412-1.4308-3.168-0.04445-1.8469-2.57-4.1786-4.5261-4.1786-0.90045 0-2.5246-0.4749-3.6092-1.0554-2.6833-1.436-5.7023-0.3073-6.0831 2.2744-0.53023 3.5947-2.6053 3.1091-4.7596-1.1137-4.4351-8.6935-1.0961-12.105 11.847-12.105 4.0659 0 7.0989-0.4272 7.0989-1 0-0.55 0.6811-1 1.5136-1 0.83246 0 2.3723-0.5362 3.4219-1.1917 1.4609-0.9124 2.7939-0.92 5.6856-0.0325 2.0775 0.6376 3.9579 0.9787 4.1787 0.7579 1.1166-1.1166-3.8238-4.3925-7.5528-5.0082-3.5409-0.5847-4.3503-1.148-4.8335-3.3639-1.0451-4.7929-1.269-5.0441-5.1108-5.7368-2.0914-0.37706-4.3473-1.1172-5.0131-1.6449-0.86579-0.68611-1.6161-0.00822-2.6347 2.3804l-1.4242 3.3397-1.6153-3.7179c-1.9872-4.5738-2.0347-6.8259-0.19702-9.341 1.4237-1.9486 3.8374-2.148 18.582-1.5349 1.925 0.08004 5.9837-0.12673 9.0193-0.4595 5.3639-0.588 5.6471-0.49249 10.061 3.3924 4.3016 3.7864 4.6045 3.8962 5.7392 2.0792 0.99519-1.5935 0.92467-1.9182-0.41661-1.9182-0.888 0-2.4516-1.0641-3.4746-2.3646-1.023-1.3006-3.2253-2.9302-4.8939-3.6213s-3.0339-1.6521-3.0339-2.1354-0.675-0.87868-1.5-0.87868c-0.93334 0-1.5-0.94444-1.5-2.5s-0.56667-2.5-1.5-2.5c-0.825 0-1.5-0.47296-1.5-1.051 0-0.57806-1.6508-1.7408-3.6684-2.5838-4.4422-1.8561-8.3316-0.59722-8.3316 2.6967 0 3.6639-2.2678 1.5229-3.9933-3.77-1.5529-4.7634-1.5515-5.2439 0.0202-7.3276 2.5216-3.343 10.694-3.9168 15.489-1.0875 3.8042 2.2445 7.4843 2.7968 7.4843 1.1232 0-0.55127 2.5924-1 5.7771-1 5.0225 0 6.2062 0.39189 9.0617 3 3.5942 3.2828 4.3661 3.4959 7.1896 1.9848 2.2132-1.1845 1.6304-3.6408-1.067-4.497-1.0195-0.32358-3.5655-2.1303-5.6576-4.0149s-4.8036-3.437-6.0253-3.4497c-1.6561-0.0173-2.4386-0.85027-3.075-3.2732-0.72782-2.7711-1.2847-3.2341-3.7786-3.1422-1.6087 0.05929-4.3875 0.45304-6.175 0.875-2.6877 0.63445-3.25 0.47466-3.25-0.92355 0-6.311 6.2556-9.1724 20.447-9.3529 11.034-0.1403 15.841 0.93901 19.217 4.3148 0.87664 0.87664 2.2477 1.343 3.0467 1.0364 0.79907-0.30663 2.766-0.55751 4.3711-0.55751 4.1357 0 3.8535-3.1848-0.58179-6.5678-2.466-1.8809-3.5-3.4617-3.5-5.3509 0-3.5659-1.6999-5.0813-5.7-5.0813-4.5409 0-4.3214-2.7932 0.45941-5.8481 5.4277-3.4682 9.7514-3.8897 13.264-1.293 1.7797 1.3158 4.3798 2.1411 6.7454 2.1411 2.1172 0 4.5741 0.5625 5.4599 1.25 2.0057 1.5567 5.3971 9.0924 6.1881 13.75 0.32692 1.925 1.267 4.7889 2.089 6.3643 0.82202 1.5754 1.4946 3.5029 1.4946 4.2833s5.85 8.2589 13 16.619c7.15 8.3599 13 15.934 13 16.832 0 0.89765 0.85011 2.7128 1.8891 4.0337 1.039 1.3209 2.6177 3.9691 3.5082 5.8848 0.89051 1.9158 2.9467 5.7332 4.5692 8.4832 1.6226 2.75 3.2463 5.7875 3.6084 6.75 0.53537 1.4234 1.8966 1.7517 7.2916 1.7587 3.6484 0.0048 8.9959 0.2925 11.883 0.6393l5.25 0.6306v-3.5168c0-1.9343-0.675-4.0771-1.5-4.7618-2.8874-2.3963-1.542-3.6467 5.25-4.8793 3.7125-0.67377 10.575-2.1111 15.25-3.1941 4.675-1.083 9.5809-2.2102 10.902-2.505 2.3603-0.52668 2.3299-0.60948-1.75-4.7666-4.8791-4.9714-5.2886-7.3702-1.4021-8.2137 1.5125-0.32827 3.65-0.99574 4.75-1.4833s13.475-3.1415 27.5-5.8978 28.425-5.6816 32-6.5007 7.625-1.512 9-1.5397c5.1764-0.10445 5.5272-1.3549 2.0736-7.3911-3.5699-6.2395-5.0736-7.6748-5.0736-4.8427 0 2.7276-3.1671 5.214-6.6416 5.214-3.802 0-7.4059-3.7435-10.401-10.804l-2.2501-5.3042-3.2148 3.1159c-1.928 1.8687-5.7076 3.8918-9.4426 5.0542-7.4817 2.3286-10.05 2.4406-10.05 0.43833 0-0.825 0.39541-1.5 0.87868-1.5 1.3028 0 3.4387-5.7304 2.7778-7.4527-0.50383-1.313-1.0778-1.3056-4.8639 0.06224-8.556 3.0912-24.708 1.6581-26.238-2.3279-0.77295-2.0143 0.82666-3.096 5.8091-3.9282 7.3748-1.2318 16.531-11.029 11.95-12.786-4.6918-1.8004-17.322-0.24334-23.314 2.8742-1.375 0.71541-4.2112 1.6087-6.3026 1.985-2.0914 0.37634-4.0257 1.2658-4.2985 1.9766-0.27275 0.71077-4.1866 2.0761-8.6974 3.034-4.5108 0.95796-8.9829 2.1516-9.938 2.6525-2.3873 1.2522-18.764 1.1743-18.764-0.08923 0-0.55-1.7909-1-3.9798-1-4.6981 0-11.637-2.5593-12.412-4.5777-0.30019-0.78227-1.2564-1.4223-2.1249-1.4223-2.0133 0-6.1408-4.4273-8.5865-9.2102-1.416-2.7692-1.8972-5.8317-1.8972-12.076 0-7.4514 0.2529-8.6031 2.3144-10.54 1.273-1.1959 2.848-2.1743 3.5-2.1743 0.72637 0 1.1898-1.6461 1.1966-4.25 0.00605-2.3375 0.28746-5.9223 0.62534-7.9661l0.61435-3.7162-3.3754 0.97906c-5.1579 1.4961-32.468 3.2292-40.552 2.5734-6.8426-0.55514-14.324-3.0649-14.324-4.8054 0-0.44814-0.96616-0.81479-2.147-0.81479-3.9593 0-21.853-16.503-21.853-20.154 0-0.96053-0.7875-2.1879-1.75-2.7274-1.555-0.87172-1.7414-2.7132-1.6728-16.53 0.06482-13.059 0.34506-15.845 1.75-17.397 0.92004-1.0166 1.6728-2.7558 1.6728-3.8647 0-5.2195 8.8023-7.2945 12.817-3.0214 2.0213 2.1516 2.1935 3.5253 2.5896 20.659l0.42427 18.354 4.3347 3.6936c2.3841 2.0315 6.1347 4.3201 8.3347 5.0858 2.2 0.76571 4.225 1.6756 4.5 2.0219s2.6646 1.0875 5.3103 1.647c5.2995 1.1207 26.903-0.20037 29.926-1.83 0.95504-0.51481 2.8113-0.93603 4.125-0.93603s3.7886-0.28 5.4996-0.62221l3.1111-0.62221-2.4861-2.9545c-1.4073-1.6725-2.4861-4.223-2.4861-5.8778v-2.9233h-15.845c-14.08 0-16.029-0.20366-17.5-1.8287-0.91025-1.0058-1.655-2.1608-1.655-2.5667s-1.114-2.1985-2.4756-3.9836c-1.9195-2.5165-2.6117-4.9164-3.0814-10.683-0.89818-11.026-1.3018-11.86-11.409-23.579-2.0468-2.3731-2.5307-4.1477-2.8485-10.446l-0.38291-7.5876 4.7969-4.6624c2.6383-2.5643 5.6137-4.6624 6.6121-4.6624 0.99833 0 2.5966-0.41077 3.5516-0.91283 8.017-4.2145 14.913-6.9695 21.486-8.5841 4.2625-1.047 7.75-2.2635 7.75-2.7033s0.84504-0.79975 1.8779-0.79975c2.392 0 8.7889-2.6518 9.6128-3.9848 0.34506-0.55833 1.6166-1.0152 2.8257-1.0152s6.245-2.0202 11.191-4.4893 9.732-4.4941 10.636-4.5c0.90366-0.00589 1.8856-0.64276 2.182-1.4153 0.37682-0.98196 3.1921-1.6076 9.357-2.0795l8.818-0.67492 9.5-9.759c5.225-5.3675 11.075-10.894 13-12.281 3.7399-2.6952 14.66-5.8007 20.396-5.8007 1.917 0 3.7273-0.39134 4.0229-0.86965s5.1597-1.1599 10.809-1.5147c16.793-1.0546 31.12-2.7073 33.522-3.8671 1.2375-0.59761 2.25-1.7179 2.25-2.4895 0-5.3248 16.212-23.214 25.292-27.91 4.3234-2.2357 22.702-1.5691 25.456 0.92336 1.05 0.95024 2.3895 1.7277 2.9768 1.7277 1.7 0 7.2748 6.8783 7.2748 8.9758 0 1.0484 0.45 2.1843 1 2.5242s1 1.4849 1 2.5443c0 1.8904 0.0606 1.8893 3.25-0.05528 1.7875-1.0899 4.45-1.9832 5.9167-1.9853 1.4666-0.00206 2.8179-0.45746 3.0027-1.012 0.1864-0.55911 5.9189-1.2912 12.868-1.6434 10.176-0.51576 12.808-0.36526 13.997 0.80049 0.8056 0.78961 2.9452 2.0412 4.7546 2.7812s3.8344 2.0789 4.5 2.9752 2.4076 2.3933 3.871 3.3268 3.2198 3.4006 3.9032 5.4826c0.6833 2.082 2.1173 4.4042 3.1867 5.1604 1.7415 1.2316 1.8854 2.2224 1.3797 9.5-0.7223 10.395-1.6541 16.859-2.6125 18.125-0.4164 0.55-1.0416 2.5832-1.3893 4.5182-0.833 4.6352-3.9673 10.384-8.8491 16.232l-3.9657 4.75h6.0579c4.9996 0 6.2418-0.34347 7.1101-1.966 0.5787-1.0813 2.8369-2.4466 5.0182-3.034s4.4395-1.9526 5.0182-3.034 1.8238-1.969 2.767-1.9726c0.9431-0.00362 3.0648-0.90066 4.7148-1.9934 3.6422-2.4121 4.5-2.487 4.5-0.39301 0 1.1377 0.511 1.397 1.75 0.88795 0.9625-0.39546 4.45-1.6444 7.75-2.7753 3.3-1.131 8.2132-2.9256 10.918-3.9881 2.7051-1.0625 6.9801-2.5123 9.5-3.2218 2.52-0.70948 8.4031-2.6894 13.074-4.3998s9.508-3.1099 10.75-3.1099c2.0379 0 2.2582 0.47937 2.2582 4.914v4.914l4.75-1.8026c7.0906-2.6909 14.148-5.1086 19.75-6.7658 12.238-3.6203 15.446-4.5325 22.5-6.398 22.033-5.8269 22.102-5.8376 37.75-5.8497l15.25-0.01181v2.5c0 1.375-0.45 2.5-1 2.5s-1 0.675-1 1.5c0 2.5555 10.669 1.7318 45-3.4741 3.575-0.54211 17.862-0.99471 31.75-1.0058 21.787-0.01735 25.25 0.18563 25.25 1.4799 0 0.825-0.675 1.5-1.5 1.5s-1.5 0.72227-1.5 1.605c0 1.8613-1.8644 2.0147 29-2.3856 32.01-4.5636 46.734-6.2195 55.302-6.2195 6.746 0 7.6978 0.22255 7.6978 1.8 0 0.99-0.4788 2.2788-1.064 2.864-0.752 0.752 1.7011 0.91937 8.3656 0.57078 5.1862-0.27128 21.078 0.26351 35.314 1.1884 25.532 1.6588 33.135 2.8087 66.002 9.983 7.0682 1.5429 18.732 7.6005 19.206 9.9747 0.1884 0.94308-0.3335 1.6191-1.25 1.6191-0.8653 0-1.5733 0.42284-1.5733 0.93964 0 0.51679-1.6875 1.0793-3.75 1.25l-3.75 0.31036 4.5 2.1693c2.475 1.1931 5.175 2.4561 6 2.8067s3.75 1.9419 6.5 3.5363 6.575 3.6406 8.5 4.5472c6.9266 3.262 31 22.364 31 24.598 0 0.562 0.9284 1.7736 2.063 2.6923 1.2611 1.0212 2.29 3.3628 2.647 6.0243 0.5676 4.2323 0.517 4.3329-1.813 3.605-1.3184-0.41185-2.6788-1.1872-3.0233-1.7229-0.3445-0.53576-2.808-1.22-5.4744-1.5206l-4.8481-0.54645 7.2403 6.8223c3.9822 3.7523 8.1357 7.4495 9.2301 8.216s2.6518 2.6738 3.4608 4.2383c0.8091 1.5645 2.144 3.5176 2.9666 4.3402 0.8226 0.8226 1.7907 3.3402 2.1512 5.5947 0.6499 4.0648 0.6293 4.0991-2.4724 4.0991-1.7203 0-3.1278-0.37777-3.1278-0.83948 0-0.71038-2.2155-2.0957-6.4341-4.0232-1.5787-0.72129 3.1222 6.5788 9.689 15.046 3.4348 4.4288 6.6951 8.7742 7.2451 9.6562s3.5057 4.9915 6.5682 9.132c5.9072 7.9865 9.9318 15.475 9.9318 18.48 0 1.582-0.5889 1.7395-4.5 1.2034-2.475-0.33923-4.5-0.39404-4.5-0.12179 0 0.97249 9.3997 12.109 17.144 20.313 4.3335 4.5903 9.4458 10.258 11.36 12.594 4.6926 5.7267 10.495 17.059 10.495 20.496v2.791l-14.25-0.42023c-10.387-0.30632-16.148-0.97374-21.25-2.462-8.493-2.4773-11.41-3.4024-13.911-4.4113-1.6627-0.67088-1.8135-0.457-1.1616 1.6477 0.412 1.3303 1.5819 6.2437 2.5998 10.919 5.7088 26.22 6.2279 28.12 12.021 44 4.875 13.362 5.9612 17.417 5.9562 22.231l-5e-3 4.7309-8.9258-1.2234 4.7129 9.3722c2.8999 5.7669 5.5982 9.8056 7.0143 10.499 4.5139 2.2093 15.187 12.493 15.777 15.202 0.3224 1.4788 1.3767 4.9386 2.343 7.6886 6.3367 18.035 6.8791 21.02 5.4222 29.837-0.7179 4.3455-2.5557 5.5941-4.8526 3.2972-3.0633-3.0633-5.8707-0.2662-10.008 9.9719-2.0931 5.1791-4.4081 9.9166-5.1444 10.528-1.0248 0.8505-1.3413 5.2441-1.3497 18.739-0.0123 19.671-0.5812 25.128-2.6198 25.128-0.7531 0-1.3692 0.45-1.3692 1 0 2.1783-4.0147 0.8736-5.385-1.75-1.5481-2.9637-7.3341-8.8781-7.9995-8.1771-0.223 0.235-2.5439 5.6021-5.1576 11.927-5.2274 12.65-5.424 12.89-27.458 33.541-25.19 23.609-30.987 29.493-32.406 32.889-0.8203 1.9634-1.8737 3.5698-2.3407 3.5698s-2.4025 1.5879-4.301 3.5287c-3.8279 3.913-9.8822 7.4713-12.712 7.4713-1.012 0-2.2674 0.4138-2.7899 0.9194-0.5225 0.5057-5.225 1.6837-10.45 2.6178-5.225 0.9342-12.65 2.2968-16.5 3.028-11.383 2.1621-13.921 1.9111-16.939-1.6746-2.2497-2.6736-3.0682-3.0197-5.8389-2.4687-6.9868 1.3893-7.2465 1.3171-6.9205-1.9219 0.374-3.7159 2.5926-5.5 6.8395-5.5 1.7925 0 3.619-0.6093 4.0588-1.354 1.3847-2.3445 4.9961-3.646 10.117-3.646 4.1081 0 5.038-0.3398 5.4722-2 0.427-1.6328 0.0354-1.9956-2.1334-1.9761-5.0472 0.0453-10.536 1.8587-14.868 4.9119-3.7407 2.6367-5.2286 3.0642-10.663 3.0642-4.8487 0-6.7003-0.4248-7.9708-1.8287-0.9103-1.0058-1.655-2.3105-1.655-2.8993 0-1.3668-8.9346-2.2153-11.25-1.0684-2.4607 1.2188-2.3734-2.5801 0.1164-5.07 1.7922-1.7921 9.7371-3.7135 13.384-3.2367 1.164 0.1522 1.75-0.4467 1.75-1.7887 0-2.1555 3.2476-3.1143 9.7833-2.8884 1.8059 0.0625 3.8309-0.47 4.5-1.1833 0.9892-1.0544 0.4686-1.1811-2.7833-0.6777-2.2 0.3406-6.3304 0.6242-9.1786 0.6302-3.1523 0.0067-5.74 0.5725-6.6134 1.4459-0.7892 0.7892-4.1311 1.74-7.4265 2.1128-6.5663 0.7429-10.271-0.4563-10.297-3.3328-0.0284-3.1856-1.7454-4.4757-7.0785-5.3188-3.9686-0.6273-6.0331-0.4804-8.1604 0.5809-2.4998 1.2471-2.9194 1.2341-3.4338-0.1062-1.4683-3.8263 8.6785-11.371 15.293-11.371 1.9052 0 3.412-0.6016 3.7567-1.5 0.3292-0.8577 1.8214-1.5 3.4849-1.5 1.6001 0 4.5248 0.675 6.4993 1.5 5.0081 2.0925 9.8994 2.0075 9.4775-0.1647-0.2381-1.226-3.1564-2.336-11.073-4.2118-9.5111-2.2535-10.75-2.7929-10.75-4.6803 0-3.3684-3.1155-5.4432-8.1737-5.4432-3.2284 0-5.0264 0.5637-6.3049 1.9765-0.9838 1.087-2.1785 1.7354-2.655 1.4409-1.6272-1.0056-0.8688-4.0921 1.8836-7.6665 3.8115-4.9497 7.6659-7.0758 11.57-6.3824 2.0099 0.357 3.8839 0.0324 5.094-0.8823 1.5165-1.1463 4.0257-1.3178 12.074-0.8254 11.344 0.6941 10.296 1.1034 19.86-7.7567 2.9421-2.7256 4.6706-5.0655 4.2475-5.75-0.4088-0.6615-3.2361-1.1541-6.6246-1.1541-7.5956 0-16.971-3.9543-16.971-7.1581 0-1.951-0.3715-2.0522-5.25-1.4312-2.8875 0.3676-6.446 1.5333-7.9077 2.5905-2.3168 1.6757-2.7337 1.7242-3.25 0.3788-1.5755-4.1056-0.5272-7.0181 4.1577-11.552 5.4425-5.267 8.7676-7.227 10.883-6.4153 0.8165 0.3133 2.677-0.5464 4.1616-1.923 2.1669-2.0093 3.7192-2.4897 8.0452-2.4897 4.7499 0 5.7427 0.3826 8.7196 3.3594 3.2255 3.2256 9.9735 6.688 15.617 8.0134 1.4723 0.3457 2.8223 1.2996 3 2.1196 0.317 1.4624 9.4369-8.6729 11.081-12.314 0.4166-0.9229 2.5286-4.3781 4.6934-7.6781 2.1647-3.3 5.1416-8.025 6.6152-10.5 2.7935-4.6916 7.9876-12.795 12.372-19.302 7.7152-11.45 7.6802-11.352 4.9198-13.755-3.0426-2.6485-13.82-7.9409-16.174-7.942-2.9963-0.0013-5.8572-1.9105-12.533-8.3637l-6.3484-6.1371 0.72 3.5c0.396 1.925 1.1153 3.65 1.5984 3.8334 0.4831 0.1833 0.8784 1.4208 0.8784 2.75 0 1.9022-0.5249 2.4166-2.4661 2.4166-2.8045 0-9.5339-2.954-9.5339-4.1852 0-0.4481-0.7481-0.8148-1.6626-0.8148-2.0658 0-22.477-11.304-27.652-15.314-2.0981-1.6259-4.1555-2.5577-4.5721-2.0708-3.1018 3.6258-7.1132 9.3415-7.1132 10.135 0 0.5293-1.575 3.0251-3.5 5.5461-1.925 2.5211-3.5 4.9961-3.5 5.5 0 0.504-1.575 2.979-3.5 5.5-1.925 2.5211-3.5 4.9796-3.5 5.4632 0 0.4837-1.8 3.292-4 6.2406-2.2 2.9487-4 5.7482-4 6.2211 0 0.473-0.9136 2.0957-2.0302 3.606-1.9554 2.6447-1.9865 3.2614-0.8439 16.71 1.2823 15.093 0.6171 25.241-1.7133 26.135-0.7854 0.3014-2.5886-0.2125-4.0071-1.1419-1.4184-0.9294-2.7242-1.5414-2.9018-1.36-0.1775 0.1815-0.8883 5.7299-1.5796 12.33-1.0283 9.8167-1.9545 13.704-5.0905 21.366-2.1085 5.1515-3.8336 9.9837-3.8336 10.738 0 3.2689-7.6029 19.324-11.543 24.376-12.462 15.977-13.6 17.025-22.516 20.709-4.6428 1.9189-9.1165 4.0419-9.9415 4.7179-0.825 0.6759-7.125 3.5299-14 6.3422-12.337 5.0466-12.82 5.1533-37.014 8.1818-28.676 3.5895-32.985 3.7056-38.845 1.0466-2.3976-1.0879-4.9916-1.9781-5.7645-1.9781s-5.3112-1.575-10.085-3.5-9.2723-3.5-9.9964-3.5-3.2242-0.8923-5.5557-1.983c-2.3315-1.0906-8.0641-2.5716-12.739-3.291-7.8451-1.2073-8.6541-1.5523-10.5-4.4785-1.9748-3.1305-2.1025-3.1709-10.136-3.2089l-8.1361-0.0386-1.6609-3.5c-0.9134-1.925-2.2022-3.5061-2.8639-3.5136s-2.1426-0.2659-3.2908-0.5742c-1.5078-0.4048-3.1448 0.466-5.8927 3.1345-3.2182 3.1254-3.9415 3.4508-4.6913 2.111-1.1262-2.0124-1.3427-7.4838-0.4118-10.404 0.3939-1.2357 2.5989-3.3399 4.8999-4.676 3.725-2.163 5.3932-2.434 15.216-2.4723 7.3853-0.0289 11.893 0.4031 13.634 1.3066 2.8212 1.4636 3.9513 1.1005 5.5213-1.7742 1.4369-2.6306-0.5708-6.4652-3.6882-7.0443-1.375-0.2554-4.6007-0.7404-7.1682-1.0777-5.0676-0.6659-6.0586-1.457-7.5348-6.0154-0.8288-2.5593-1.3993-2.949-3.8842-2.6529-4.5454 0.5416-5.4241 1.7915-4.7446 6.7486 0.6546 4.776-0.2982 5.5756-3.0373 2.5489-2.3524-2.5993-3.4338-14.525-1.4806-16.328 2.9323-2.7061 5.9523-3.817 10.377-3.817 3.0858 0 5.4878-0.6903 7.4501-2.1411 4.0573-2.9996 9.0242-2.0577 13.675 2.5935 4.7016 4.7016 7.4535 5.3205 11.343 2.5509 2.3883-1.7006 2.9307-2.6762 2.4176-4.3479-0.8917-2.9051-0.1985-2.5918-9.5572-4.3195-11.059-2.0417-10.745-1.9141-11.846-4.8102-0.7995-2.1027-1.6109-2.5257-4.8455-2.5257-2.4585 0-5.1918 0.8867-7.4434 2.4147-4.0922 2.7771-4.7209 2.5045-4.7209-2.0465 0-5.8542 9.2249-14.132 14.603-13.104 1.465 0.2801 2.9777-0.2489 4.0267-1.4079 3.0613-3.3827 12.781-1.8629 16.966 2.6528 1.3221 1.4265 2.4038 2.9847 2.4038 3.4627s1.4046 1.1775 3.1212 1.5546c2.5484 0.5597 3.5911 0.2156 5.6814-1.8747 2.206-2.206 2.406-2.8988 1.4453-5.0073-1.0503-2.3052-1.665-2.4673-10.6-2.7959-5.2167-0.1918-9.7606-0.6252-10.098-0.9631-0.337-0.338-0.8854-2.9166-1.2186-5.7304-0.5772-4.8731-0.7686-5.1465-4.0325-5.7589-2.3236-0.4359-4.7076-0.0651-7.4061 1.1517-3.5034 1.5799-4.1555 1.6184-5.4513 0.3226-2.3784-2.3784-0.7536-7.5313 3.3656-10.673 3.0318-2.3124 4.5472-2.7106 10.614-2.7892 3.8928-0.0504 7.8929-0.4466 8.889-0.8805 4.6915-2.0433 19.689 2.1332 19.689 5.483 0 0.9023 1.1194 2.6921 2.4875 3.9774 3.6272 3.4076 10.978 3.0293 14.687-0.7557 2.3399-2.3877 2.7188-3.6792 3.0018-10.233l0.3239-7.5-3.2414-0.3127c-1.8012-0.1737-4.2327 0.3816-5.4725 1.25-4.0914 2.8658-5.7899 2.0726-5.7543-2.6873 0.0387-5.165 1.6716-7.5177 6.0994-8.7876 9.2932-2.6653 20.179 0.7888 23.755 7.5376 1.1657 2.2 2.1182 4.5402 2.1167 5.2004-0.0015 0.6601 0.7559 1.6249 1.6832 2.1438 1.4267 0.7984 1.7146 2.8946 1.8716 13.626l0.1856 12.682 3.8495 3.9422c4.7387 4.8529 4.6678 4.996 6.3286-12.778 1.3518-14.467 1.2407-15.001-5.3727-25.817-1.3451-2.2-2.9102-5.019-3.4779-6.2644s-1.9949-3.5666-3.1716-5.1581c-1.5372-2.0792-2.0213-3.9047-1.72-6.4856 0.2306-1.9755 0.1092-3.5919-0.2698-3.5919s-5.0632 0.9-10.409 2c-16.325 3.359-20.5 2.3525-20.5-4.9422v-3.2848l-4.25 0.5887c-2.3375 0.3239-10.807 0.8862-18.82 1.2496l-14.57 0.6608-2.1659-2.7535c-2.5249-3.2099-2.4601-3.3274-4.6772 8.4814-1.7799 9.48-4.9145 17-7.0862 17-0.7865 0-1.4299 0.45-1.4299 1s-0.675 1-1.5 1-1.5-0.8158-1.5-1.8129-1.35-3.1063-3-4.6871l-3-2.8741v24.628c0 13.546-0.3919 24.87-0.8708 25.166-0.479 0.296-1.1427 1.8976-1.475 3.559-0.7623 3.8114-1.8624 3.7962-5.9133-0.0816-4.1074-3.9319-4.3674-2.911-2.3036 9.0478 1.6769 9.7173 1.9464 15.886 0.9185 21.026-0.5829 2.9144-0.9162 3.1668-3.5 2.65-3.3212-0.6642-3.32-0.6679-1.3558 4.0331 2.2281 5.3325 1.8465 7.8779-2.7861 18.586-4.1224 9.5285-4.4377 9.9354-14.528 18.75l-10.314 9.01-23.686-0.0045c-14.57-0.0028-33.308-0.7708-48.686-1.9955-13.75-1.095-29.969-1.9929-36.042-1.9954-6.0729-0.0025-16.345-0.7001-22.827-1.5501-11.387-1.4934-11.91-1.4792-15.458 0.4189-2.0202 1.0805-6.0133 3.0914-8.8735 4.4687-2.8603 1.3772-7.9469 4.1137-11.304 6.081-3.3567 1.9673-7.348 3.5769-8.8695 3.5769-2.5647 0-6.081 2.452-13.982 9.75-2.8407 2.6238-10.562 3.1273-13.624 0.8884-1.0242-0.7489-2.5727-1.226-3.4411-1.0602-6.5331 1.2471-7.132 1.6055-9.0871 5.4378-2.3028 4.5139-2.5595 4.6627-3.8548 2.234zm-96.137-358.25c2.3741-2.3741 2.5783-4.5641 0.5-5.3616-1.041-0.39946-1.5042-2.0388-1.5136-5.357-0.02936-10.279-2.7707-12.554-4.7693-3.9578-1.1185 4.8108-1.0532 7.3712 0.36784 14.426 0.561 2.7854 2.7774 2.8877 5.4151 0.25zm12.293 0.75c3.2294-1.4998 3.3224-2.5732 0.69455-8.0122-1.6174-3.3477-3.9424-13.272-3.9798-16.988-0.00415-0.4125-1.8586-0.75-4.121-0.75-4.1076 0-4.1126 0.00468-3.4633 3.25 1.5484 7.7398 1.8436 8.75 2.5567 8.75 0.4141 0 1.3526 3.375 2.0855 7.5 0.73293 4.125 1.8283 7.5 2.4342 7.5 0.60588 0 2.3128-0.5625 3.7932-1.25zm-35.028-4.2386c-0.12931-2.0738-0.6264-4.2748-1.1046-4.891-0.47824-0.61622-1.4832-3.2579-2.2332-5.8704s-1.7154-4.75-2.1454-4.75c-0.42992 0-0.78168 3.9433-0.78168 8.7629 0 8.0927 0.17209 8.8476 2.25 9.8702 3.4121 1.6792 4.2725 1.0102 4.0149-3.1216zm11.059-8.2981c0.13646-8.7548 0.51241-11.521 1.6759-12.332 1.0854-0.75637-0.02035-0.88686-4-0.47204-3.025 0.31531-6.3438 0.5772-7.375 0.58198-1.549 0.00718-1.7707 0.53037-1.275 3.0087 0.33 1.65 1.4546 4.9125 2.499 7.25 1.0445 2.3375 2.4648 6.05 3.1563 8.25 1.6609 5.2838 1.9232 5.6639 3.662 5.3054 1.1894-0.24526 1.5155-2.5269 1.6568-11.592zm36.094 9.1797c2.0268-0.77774 2.0468-4.7622 0.03229-6.4341-0.85223-0.70729-2.4385-3.2374-3.525-5.6224-1.1403-2.5032-2.6565-4.3365-3.5864-4.3365-1.3463 0-1.5042 0.78022-0.96127 4.75 0.35732 2.6125 1.0935 4.9 1.6359 5.0833 0.54244 0.18334 0.98626 1.6083 0.98626 3.1667 0 3.3888 2.0628 4.6806 5.4182 3.393zm13.55-8.943c0.01728-1.6775 0.43401-3.4775 0.92607-4 0.49205-0.5225 1.1906-2.3568 1.5523-4.0763 1.092-5.1911-1.0554-6.3737-11.573-6.3737h-8.9835l4.4754 5.4941c2.4615 3.0217 5.0198 7.1842 5.6853 9.25 1.8649 5.7896 2.7374 6.4978 5.5169 4.4778 1.5796-1.1479 2.3799-2.7386 2.4009-4.7719zm-43.886-30.45h7.7889l-0.18563-7.9986-0.18563-7.9986-6.6682-0.00139c-7.4011-0.00155-9.8318 0.6043-9.8318 2.4506 0 0.68091-0.92257 2.0729-2.0501 3.0934-1.1276 1.0204-3.6516 4.0844-5.6089 6.8088l-3.5587 4.9535 6.2556-0.65384c3.4406-0.3596 9.7606-0.65383 14.044-0.65383zm39.438-4.75c-0.80339-5.3966-1.9719-7.25-4.571-7.25-0.99337 0-2.4872-0.68103-3.3195-1.5134-0.83236-0.83237-2.807-1.7721-4.3882-2.0884-2.7833-0.55667-2.9105-0.40509-3.9954 4.7634-0.61632 2.9361-1.4262 6.5759-1.7998 8.0884l-0.67921 2.75h9.7301 9.7301l-0.70713-4.75zm-23.836 2c2.2366-1.9666 3.4982-6.8361 2.6306-10.154-0.85825-3.282-4.468-2.3625-5.5113 1.4038-0.69525 2.5099-0.21488 10.5 0.63126 10.5 0.1425 0 1.1547-0.7875 2.2494-1.75zm-37.723-1.5c0.79321-1.2375 2.203-3.7125 3.1327-5.5 1.6013-3.0784 1.5972-3.25-0.07666-3.25-0.97196 0-3.1734 0.28125-4.8922 0.625-2.7593 0.55185-3.125 1.02-3.125 4 0 1.8562 0.45 3.375 1 3.375s1 0.675 1 1.5c0 2.1711 1.2998 1.8418 2.9611-0.75zm101.1-70.5c1.3404-1.5125 3.0292-3.8038 3.7528-5.0917 1.1441-2.0363 1.0797-2.5142-0.49367-3.6648-1.9994-1.462-3.2789-0.40538-3.3068 2.7308-0.0313 3.5247-10.944 6.3743-14.874 3.884-0.74739-0.47355-1.5871-2.8859-1.8661-5.3607-0.42834-3.8003-0.8-4.4231-2.3911-4.007-1.5159 0.39641-1.8839 1.4325-1.8839 5.3034 0 6.8184 2.8516 8.956 11.948 8.956 6.0277 0 6.9154-0.26782 9.1151-2.75zm-6.0629-13.75c0-0.825-0.675-1.5-1.5-1.5s-1.5 0.675-1.5 1.5 0.675 1.5 1.5 1.5 1.5-0.675 1.5-1.5z" fill="#404040"/>
<path d="m1291.6 734.04c-2.2-1.0411-4.7519-1.9046-5.6708-1.9191-0.919-0.01442-5.4053-1.6012-9.9697-3.5262-4.5643-1.925-9.0393-3.5-9.9443-3.5s-2.7187-0.83227-4.0303-1.8495c-1.337-1.0368-4.9988-2.1494-8.3337-2.5321-3.2718-0.37543-6.1189-0.85275-6.3268-1.0607-0.5156-0.51554 14.389-36.07 17.212-41.058 1.2449-2.2 4.655-9.7375 7.5778-16.75 4.883-11.716 5.524-12.747 7.9001-12.715 1.4223 0.01948 3.7109 0.67854 5.0859 1.4646s3.4978 1.4451 4.7174 1.4646c1.4324 0.02289 6.2803 3.9297 13.694 11.035 6.312 6.05 12.104 11 12.871 11s10.13 3.6521 20.806 8.1157c18.598 7.7756 19.663 8.0942 25.411 7.6027 7.7075-0.65903 15.492-4.3709 15.497-7.3888 0.0028-1.948-0.6887-2.2382-6.7469-2.8317-3.7125-0.36371-8.55-1.4643-10.75-2.4458-4.8076-2.1448-37.166-15.522-40-16.537-1.9497-0.69784-1.9448-0.73714 0.1917-1.5619 4.0686-1.5706 4.983-4.8128 6.7191-23.826 1.4015-15.347 1.4581-18.64 0.3439-20-0.7335-0.8952-2.1129-3.2026-3.0653-5.1276s-2.8239-5.3-4.159-7.5-2.9141-5.0773-3.5089-6.3939-2.4177-4.0811-4.0509-6.1432c-3.2557-4.1106-2.7327-4.9628 3.0453-4.9628 2.881 0 14.214-4.3511 16.984-6.5205 0.825-0.64619 5.3633-2.7686 10.085-4.7164 8.5049-3.5084 14.531-7.3334 27.637-17.542l6.7774-5.2791 0.3147 4.7718c0.3702 5.6133 2.4081 8.2863 6.3173 8.2863 2.6839 0 13.422-9.6012 35.833-32.041 8.7204-8.7313 8.0378-8.4954 14.151-4.8911 2.9468 1.7375 6.4369 4.0079 7.7559 5.0454 3.3282 2.6179 10.226 2.541 12.653-0.14104 1.8299-2.022 1.8447-2.0177 5.5612 1.6114l3.7264 3.6388-4.9935 6.1386c-2.7464 3.3762-5.4176 7.2159-5.9361 8.5326s-2.2793 4.0814-3.9128 6.1439-2.97 4.183-2.97 4.7122-1.575 3.025-3.5 5.5461c-1.925 2.5211-3.5 4.9795-3.5 5.4632s-1.8 3.2919-4 6.2406-4 5.71-4 6.1362c0 0.42624-1.1765 2.4825-2.6145 4.5694-2.5675 3.7262-2.6038 4.0148-2.0208 16.044l0.5937 12.25h-2.3567c-1.2963 0-2.9744 0.74191-3.7293 1.6487-1.264 1.5184-2.7564 11.268-4.4164 28.851-0.4329 4.5853-2.0054 10.341-4.5585 16.687-2.1436 5.3276-3.8975 10.247-3.8975 10.931s-1.4179 4.7128-3.151 8.9515c-2.1327 5.2162-5.4594 10.559-10.294 16.532-6.5643 8.11-7.748 9.0861-14.599 12.038-4.1006 1.7669-8.3556 3.7919-9.4556 4.4999-1.1 0.70799-6.5 3.2563-12 5.663-9.5672 4.1863-11.082 4.5216-35 7.7479-13.75 1.8547-25.675 3.3531-26.5 3.3297s-3.3-0.89425-5.5-1.9353zm-308.17-9.1662-4.726-6.1418-6.2914-32.069c-3.4603-17.638-6.2962-32.317-6.302-32.62s2.1269-1.5075 4.7394-2.676c2.6125-1.1684 6.775-3.2292 9.25-4.5796 2.5045-1.3664 7.8975-2.9736 12.162-3.6244 8.3999-1.282 8.8745-1.1609 19.338 4.9314 8.4789 4.9366 10.769 5.7906 18.511 6.9042 4.119 0.5924 13.114 1.9755 19.989 3.0735 20.38 3.2549 19.306 3.4882 32.573-7.0788 10.838-8.632 11.427-9.2902 11.427-12.769 0-3.8753-5.1631-17.418-7.7699-20.38-1.7154-1.9492-7.5367-2.3443-11.627-0.78918-2.3709 0.90139-2.5676 0.73133-3.1814-2.75-0.3599-2.041-1.5019-7.9229-2.538-13.071-1.4339-7.1249-1.8837-13.715-1.8837-27.595 0-16.396-0.1844-18.402-1.8287-19.89-3.4906-3.1589-8.2341-2.0597-15.421 3.5732-2.6348 2.0652-3.8538 2.5424-4.1007 1.6053-0.1932-0.73343-1.1314-3.5835-2.085-6.3335-0.9534-2.75-2.3118-7.025-3.0186-9.5-2.7166-9.5134-8.0855-23.358-10.082-26-0.6237-0.825-2.8341-5.55-4.912-10.5-2.078-4.95-4.3152-9.675-4.9717-10.5s-1.7527-2.8072-2.4361-4.4049-2.8174-4.9727-4.7424-7.5c-1.9249-2.5273-7.0876-9.4326-11.473-15.345-7.3503-9.9106-8.2323-10.75-11.296-10.75-4.0598 0-6.3652 2.3408-6.805 6.9094-0.3153 3.2756-0.53785 3.0289-5.6712-6.2879-3.0006-5.446-6.5078-10.437-8-11.385-1.4614-0.92847-3.0169-2.2614-3.4567-2.9621-2.1674-3.453-10.7-0.21953-10.7 4.0547 0 1.9719-0.99553 2.086-4.453 0.51074-1.9443-0.88589-2.547-1.9055-2.547-4.3089 0-1.7316-0.66069-4.0219-1.4682-5.0895-0.8075-1.0676-1.4825-2.7286-1.5-3.6911-0.03854-2.1209-1.6228-2.2118-5.2818-0.30314-2.6932 1.4049-2.75 1.3755-2.75-1.4244 0-5.2175-0.81623-6.0225-6.107-6.0225h-4.893l-0.0318-7.25c-0.04217-9.6118-0.97067-10.75-8.7694-10.75-3.3444 0-6.3484 0.43318-6.6757 0.96262-0.32721 0.52944-3.3913 0.93028-6.809 0.89076-3.4178-0.03953-7.5641 0.45864-9.2141 1.107-5.0081 1.968-17.831 8.3265-20.661 10.245-1.4638 0.99239-7.9888 3.1962-14.5 4.8974-12.942 3.3814-18.16 3.433-29.156 0.28851-7.4185-2.1213-9.1823-3.7594-9.1823-8.5276 0-3.151 0.39696-3.9153 2.25-4.3323 1.2375-0.2785 13.106-0.62458 26.374-0.76905l24.124-0.26269 7.1746-3.75c3.946-2.0625 8.2921-3.75 9.6578-3.75 4.2457 0 9.419-2.6858 9.419-4.89 0-1.0956 0.43695-2.2621 0.97101-2.5921 0.53405-0.33007 1.2684-2.8417 1.6318-5.5815s1.0515-5.2228 1.529-5.5179c1.1705-0.72342 1.1127-13.149-0.06453-13.877-0.513-0.31705-1.4549-3.1561-2.093-6.309-1.2237-6.0455-3.575-14.375-5.0056-17.733-0.46871-1.1-1.1533-3.5266-1.5212-5.3925-0.86518-4.3874-7.8969-12.108-11.028-12.108-2.7758 0-7.4197-1.9781-7.4197-3.1605 0-1.1262-46.742-1.0824-47.167 0.04415-0.18333 0.486-2.66 1.1983-5.5038 1.5829-4.6051 0.6228-5.2924 0.4715-6.2852-1.3836-0.93926-1.755-2.0586-2.0829-7.1109-2.0829-4.4075 0-6.1487 0.39744-6.5718 1.5-0.31659 0.825-1.315 1.5153-2.2186 1.5339-0.90365 0.01866-3.443 0.90339-5.643 1.9661-4.4778 2.1629-7.0802 2.4882-8 1-0.33992-0.55-1.4326-1-2.4282-1-1.9777 0-3.0408-4.0559-3.0608-11.679-0.00606-2.2982-0.62664-4.7942-1.3791-5.5466s-1.648-2.25-1.9901-3.3278-2.6423-4.6569-5.1115-7.9534l-4.4895-5.9936 3.91-1c2.1505-0.55 4.2413-1.3375 4.6462-1.75s1.5131-0.75 2.4626-0.75 1.9689-0.63203 2.2653-1.4045c0.48901-1.2743 5.1184-2.7874 13.175-4.3062 1.65-0.31105 3.2827-1.0038 3.6282-1.5394 0.34554-0.53562 2.3705-1.3533 4.5-1.8171 8.7994-1.9164 9.905-2.2806 10.628-3.5005 0.41577-0.70179 2.2158-1.5879 4-1.9692 1.7842-0.38125 5.9873-2.2164 9.3401-4.0781 3.3528-1.8617 6.8404-3.385 7.75-3.385 0.90964 0 1.6539-0.35176 1.6539-0.78168 0-1.1786 7.5444-3.1277 16.323-4.217 7.8826-0.97814 11.363-2.68 14.427-7.0548 1.943-2.774 3.25-1.5223 3.25 3.1125 0 3.537-0.25624 3.941-2.5 3.941-1.9657 0-2.5 0.50816-2.5 2.3776 0 3.3686 1.7913 4.4651 8.5659 5.2435 6.4286 0.73858 7.3955 1.4648 7.4188 5.5718 0.01771 3.1156 3.432 9.3693 5.5614 10.186 0.79965 0.30686 1.4539 1.2092 1.4539 2.0053 0 0.79604 1.8626 2.9225 4.1391 4.7256l4.1391 3.2782 13.611 0.05583c12.431 0.05098 13.925-0.1393 17.229-2.1942 4.1317-2.5695 5.882-2.8388 5.882-0.90499 0 0.73976 0.95164 2.2023 2.1148 3.25 1.1631 1.0478 2.502 2.9175 2.9752 4.155 1.0401 2.7197 3.9949 2.9187 6.255 0.42126 1.9551-2.1603 2.2921-16.083 0.54882-22.671-0.58215-2.2-1.2941-5.35-1.5821-7-0.28801-1.65-1.0667-3.45-1.7304-4-0.6637-0.55-2.4041-2.7744-3.8675-4.9431-2.1856-3.2388-3.6032-4.1836-7.9373-5.2893-2.9021-0.74039-5.4265-1.7785-5.6098-2.3069-0.42108-1.2136-26.167-1.2883-26.167-0.07592 0 1.0283-10.119 2.551-14.461 2.176-1.6286-0.14067-3.5268-0.99939-4.2182-1.9083-1.7012-2.2362-1.7521-13.152-0.0613-13.152 0.6927 0 1.8215-0.9 2.5085-2s2.0008-2 2.9196-2c1.8047 0 7.8214-1.755 10.411-3.0368 0.87936-0.43522 7.8544-1.2854 15.5-1.8894 23.235-1.8354 35.875-3.2501 36.401-4.0743 0.275-0.43107 6.575-1.5558 14-2.4995s13.725-2.0476 14-2.4532c0.79148-1.1674 7.6623-1.9758 11.5-1.353 3.3708 0.54701 3.5 0.72709 3.5 4.8781 0 2.3706 0.45 4.5883 1 4.9282s1 1.4691 1 2.5093 0.5625 2.2512 1.25 2.691 1.749 1.6997 2.359 2.7997c0.62832 1.1332 2.1453 2 3.5 2 2.0549 0 2.4356-0.54418 2.7086-3.8714 0.2275-2.7732 1.1129-4.5406 3.1211-6.2304 1.5419-1.2974 3.0821-3.7521 3.4227-5.4549 0.3908-1.9542 2.7807-5.2241 6.4807-8.8672l5.8615-5.7712 8.6704-1.1192c9.8968-1.2776 11.594-0.86187 16.875 4.1323 5.3057 5.018 5.8764 7.1535 4.585 17.158-0.9661 7.4844-1.5737 9.155-4.999 13.746-2.345 3.143-5.2816 5.7775-7.367 6.6093-1.9073 0.76072-3.4678 1.785-3.4678 2.2762 0 0.49118-1.125 0.89305-2.5 0.89305s-2.5 0.45-2.5 1c0 0.57778-3.1667 1-7.5 1-5.9199 0-7.5 0.3086-7.5 1.4648 0 0.80565 0.9 1.9465 2 2.5352s2 1.7588 2 2.6002c0 1.8053 9.9158 11.588 15.166 14.963 2.0163 1.2959 3.9554 2.8244 4.3091 3.3967 0.3536 0.57229 1.9894 1.0405 3.6349 1.0405h2.9919l-2.5509 3.3444c-1.9381 2.541-2.5509 4.5299-2.5509 8.2792 0 4.3052 0.4555 5.4037 3.5703 8.6105 1.9636 2.0217 4.4386 3.9514 5.5 4.2882 1.0613 0.33686 1.9297 1.0018 1.9297 1.4777s0.9915 1.1799 2.2034 1.5645c4.0346 1.2806 5.0715 3.0814 3.8519 6.6901-0.6033 1.785-1.875 4.2289-2.8261 5.4309-1.5874 2.0063-9.5928 6.8825-18.229 11.104-7.6844 3.756-6.9561 6.2068 3.323 11.182 4.5777 2.2157 9.0777 4.0286 10 4.0286 2.9144 0 1.8198 1.9679-2.073 3.7267-2.0625 0.93187-4.4526 2.2675-5.3113 2.9681-1.601 1.3061-16.409 6.3053-18.677 6.3053-0.6941 0-1.2621 0.7134-1.2621 1.5853 0 1.3246 1.0279 1.5135 6.25 1.1486 15.809-1.1047 26.609-4.7222 32.75-10.97 4.5506-4.6296 6-7.1376 6-10.382 0-2.5339-0.1785-2.6213-4.2411-2.0764-4.1359 0.55475-15.759-1.8796-15.759-3.3006 0-0.7605 11.396-6.0049 13.048-6.0049 1.1409 0 7.7413-4.5666 9.4516-6.5393 0.55-0.63436 2.4625-1.9091 4.25-2.8327 1.7875-0.92365 3.25-2.1274 3.25-2.6751s1.2359-2.8633 2.7463-5.1458c2.7611-4.1722 4.7563-9.9668 5.9279-17.216l0.6316-3.9084-5.9254 0.61933c-7.7043 0.80526-20.389-0.25273-20.352-1.6975 0.0156-0.60773 1.8159-3.114 4.0007-5.5695s4.2273-5.268 4.539-6.25c0.37-1.1658 1.5596-1.7854 3.4279-1.7854 1.5736 0 3.5361-0.675 4.3611-1.5s2.0668-1.5 2.7596-1.5c2.0371 0 7.7308-4.3088 8.2334-6.2308 0.2557-0.97802 1.3942-1.7692 2.5458-1.7692 1.1457 0 4.9003-1.0507 8.3436-2.3348 9.469-3.5314 15.782-5.7097 20.76-7.1633 2.475-0.72264 5.2875-1.6293 6.25-2.0149 1.3814-0.55335 1.75-0.18459 1.75 1.751 0 3.0637 2.8757 5.762 6.1409 5.762 1.3659 0 4.3462-0.9 6.623-2 2.2767-1.1 4.8653-2 5.7524-2s3.7214-0.82424 6.2983-1.8316c10.42-4.0736 20.29-7.2384 34.685-11.122 23.519-6.3455 23.5-6.3418 23.5-4.7199 0 0.75024 0.8736 2.1547 1.9414 3.121 1.7728 1.6044 4.0953 1.7164 26.75 1.2906 20.18-0.3793 27.967-0.9581 41.736-3.102 9.3102-1.4496 20.673-2.6356 25.25-2.6356h8.3223v3.345c0 7.0107 5.172 8.1 22.611 4.7621 22.063-4.223 55.167-9.1071 61.726-9.1071 2.1588 0 4.0311 0.75886 5.2577 2.131 1.8494 2.0688 2.3717 2.1095 17.905 1.3959 8.8-0.40427 16.45-0.71641 17-0.69366 17.874 0.73948 43.014 3.8048 60 7.316 11 2.2738 21.125 4.3542 22.5 4.6231s3.175 1.0603 4 1.7587c0.825 0.69842 3.075 1.9934 5 2.8777s5.75 2.9079 8.5 4.4969c2.75 1.589 7.025 3.8304 9.5 4.9809 2.475 1.1505 5.175 2.5557 6 3.1228 0.825 0.56705 3.075 1.7418 5 2.6105 1.925 0.86871 4.175 2.1748 5 2.9024 0.825 0.7276 3.75 2.2332 6.5 3.3459l5 2.023-3.595 0.05453c-4.3671 0.06624-6.905 2.5585-6.905 6.7807 0 2.6943 1.5808 4.4266 12.959 14.201 7.1277 6.1228 13.247 11.597 13.598 12.166 0.3512 0.56828-0.0806 1.8278-0.9594 2.799-2.2857 2.5257-1.9726 7.2857 0.7381 11.219 1.2848 1.8642 4.5022 6.5396 7.1498 10.39s6.8838 9.639 9.4139 12.864 5.3786 7.1629 6.3299 8.75c1.6535 2.7586 1.6493 2.8857-0.095 2.8857-2.6639 0-5.1447 3.2206-5.0677 6.5787 0.0988 4.3038 15.523 24.408 32.119 41.865 10.826 11.387 11.18 12.025 6.1887 11.137-2.1313-0.37909-5.6751-1.2923-7.8751-2.0293s-6.7-2.1208-10-3.0749-7.0337-2.1266-8.2971-2.6054c-4.0338-1.5288-9.7549-1.023-11.61 1.0262-2.5471 2.8145-3.0972 11.467-1.2145 19.103 0.8814 3.575 2.3316 9.875 3.2226 14 5.312 24.591 5.6166 25.68 11.388 40.75l2.7767 7.25h-3.7282c-4.41 0-7.0382 2.4031-7.0382 6.4356 0 4.0956 15.609 35.057 19.194 38.075 1.6275 1.3694 3.487 2.509 4.1323 2.5325s2.9897 1.711 5.2097 3.75c3.18 2.9207 4.5377 5.2988 6.3986 11.207 1.2992 4.125 2.9751 9.2085 3.7242 11.297l1.3619 3.7966-3.3401 1.3956c-4.4801 1.8719-4.9852 2.6017-9.7474 14.082-2.2653 5.4609-4.8645 10.763-5.7761 11.782-1.2686 1.418-1.7748 4.5854-2.1575 13.5-0.2783 6.4832-0.8587 11.093-1.309 10.397-0.445-0.6875-2.2733-1.25-4.0629-1.25-4.9725 0-7.7334 3.8111-14.619 20.18-6.9216 16.455-6.2565 15.614-29.532 37.32-27.851 25.973-30.241 28.519-32.535 34.653l-2.1394 5.7206-3.6516-1.6474c-2.0084-0.90607-4.3267-2.1829-5.1517-2.8373s-3.075-1.9256-5-2.8248-5.3-2.7408-7.5-4.0924-5.35-3.1048-7-3.8958-7.6125-6.0034-13.25-11.583l-10.25-10.145v-8.5416-8.5416l7.0957-7.8711c3.9026-4.3291 9.7877-10.464 13.078-13.632 6.2005-5.9716 9.9036-10.926 15.23-20.378 1.047-1.858 3.297-5.4666 5-8.0193s5.3463-8.3288 8.0963-12.836 6.4625-10.155 8.25-12.551 3.25-4.627 3.25-4.9572c0-0.33027 0.8716-1.8198 1.937-3.31 1.1864-1.6597 2.196-5.2849 2.6054-9.3564l0.6685-6.6468-7.3924-5.564c-7.6141-5.7308-17.289-10.642-20.963-10.642-1.307 0-6.2997-4.1121-13.356-11-9.9473-9.7105-11.674-11-14.729-11-4.6055 0-6.7708 2.5303-6.7708 7.9121 0 2.34-0.3473 4.1046-0.7717 3.9213-4.4631-1.9277-16.526-9.4211-19.353-12.023-1.9792-1.8209-10.03-10.173-17.892-18.561-13.43-14.329-14.516-15.25-17.983-15.25-4.5011 0-7.0001 2.4378-7.0001 6.8287 0 3.4078-1.666 4.2902-2.6834 1.4213-1.0882-3.0686-3.5557-5.25-5.9385-5.25-2.8484 0-22.276-13.919-22.332-16-0.0222-0.825-1.1069-4.2-2.4104-7.5s-3.3967-9.375-4.6515-13.5-2.8895-9.1966-3.6328-11.27-1.3514-4.5914-1.3514-5.595c0-2.6651-3.2098-5.1348-6.6737-5.1348-3.2279 0-5.9966 2.3728-7.982 6.8406-0.9599 2.1599-1.1971-1.2028-1.2631-17.903-0.0789-19.969-0.0083-20.72 2.4433-26 1.3885-2.9904 2.9641-6.1122 3.5014-6.9372s2.051-3.8049 3.3638-6.622c1.3129-2.8171 2.8873-5.4312 3.4987-5.809 1.7882-1.1052 1.3074-7.0818-0.7171-8.914-4.5519-4.1194-11.25-0.54925-14.718 7.845-0.909 2.2-2.1984 4.675-2.8655 5.5-0.667 0.825-2.0566 3.525-3.088 6s-2.4658 5.2104-3.1876 6.0787c-1.0084 1.213-1.3124 7.5457-1.3124 27.335v25.756l4.0105 9.5982c4.7506 11.369 6.2274 13.233 10.49 13.233 3.5832 0 6.1133-2.2561 6.7285-6 0.401-2.4409 0.4283-2.429 1.1515 0.5 0.4074 1.65 1.7723 5.925 3.0332 9.5s2.6981 7.8244 3.1937 9.4431c0.8547 2.791 4.5005 6.1134 15.932 14.518l4.7079 3.4615-12.873 12.538c-10.366 10.096-12.939 12.149-13.211 10.538-0.5521-3.2704-4.2375-6.5-7.4171-6.5-3.2112 0-9.4822 3.8825-20.245 12.534-3.85 3.0947-7.9 6.1057-9 6.6911-1.1 0.58541-3.6367 2.3468-5.637 3.9142-2.0004 1.5674-7.6254 4.4958-12.5 6.5076-4.8747 2.0118-9.538 4.1971-10.363 4.8564-3.1794 2.5406-13.076 5.4312-27.092 7.913-8.0258 1.4211-15.113 2.5838-15.75 2.5838-0.6368 0-1.1577-1.0553-1.1577-2.345 0-1.2898-0.9001-3.1596-2.0003-4.1553-1.8111-1.639-3.3485-1.7481-16.25-1.1529-7.8373 0.36155-17.85 0.90975-22.25 1.2182-7.7743 0.54501-8.0517 0.48719-9.8324-2.0494-1.6671-2.3749-1.7203-3.237-0.5898-9.5629 0.6834-3.824 1.443-6.9527 1.688-6.9527s1.7825 1.125 3.4166 2.5c3.6014 3.0304 8.63 3.2822 11.945 0.59812 2.5255-2.0451 2.4406-1.7189 9.9195-38.098l4.0089-19.5-0.3657-24.5c-0.4409-29.536-1.3767-35.443-7.5547-47.685-12.696-25.158-12.805-25.315-17.635-25.315-3.7305 0-6.5082 2.6052-6.4812 6.0787 0.0103 1.3317 1.6978 5.7036 3.75 9.7153 14.321 27.995 14.341 28.075 14.924 57.706l0.3934 20-4.1561 20c-2.2858 11-4.3814 21.239-4.657 22.753l-0.5009 2.7527-4.0831-3.0027c-2.4845-1.8271-5.308-3.0028-7.2118-3.0028-5.4155 0-6.9094 2.8711-9.8865 19-2.3608 12.791-4.691 23.706-6.2548 29.302-0.4411 1.5779-1.0422 1.3605-4.8381-1.75-4.8761-3.9956-9.215-4.6269-11.843-1.723-1.4426 1.5941-1.655 4.89-1.655 25.687v23.858l-2.8047-2.6871c-3.3145-3.1755-8.0913-3.5645-10.54-0.85835-2.1932 2.4234-2.0769 6.9467 0.7179 27.921l2.2984 17.25h-3.1806c-7.0895 0-8.3834 7.1352-3.4592 19.076l3.0314 7.3514-2.7814 6.8754c-2.3592 5.8316-3.9402 7.9246-10.414 13.786l-7.6324 6.9108-18.868-0.00453c-10.377-0.00249-30.118-0.90045-43.868-1.9955s-30.175-2.0017-36.5-2.0149c-6.325-0.01319-16-0.67596-21.5-1.4728-19.523-2.8286-20.239-2.6869-40.222 7.9615l-10.222 5.4471-4.726-6.1418zm-150.62-93.396c-0.66606-0.61436-6.9244-3.4906-13.907-6.3916-10.765-4.4722-13.196-5.8996-15.982-9.383-1.8069-2.2596-7.3597-8.8334-12.34-14.608-7.1255-8.2633-9.7597-12.204-12.366-18.5-1.8214-4.4-3.8818-8.675-4.5787-9.5-0.69694-0.825-2.7906-5.2725-4.6525-9.8833-3.0124-7.4598-4.0104-8.8643-9.0594-12.75-3.1207-2.4017-5.9632-4.3667-6.3167-4.3667-0.35347 0-2.1176-1.125-3.9203-2.5s-4.0044-2.5-4.8925-2.5c-0.88817 0-3.6582-1.2342-6.1556-2.7427-3.2366-1.955-4.5408-3.391-4.5408-5 0-1.9517 0.52058-2.2573 3.845-2.2573 2.455 0 4.4433-0.66111 5.5-1.8287 2.1791-2.4079 2.1065-3.0426-0.84501-7.3861-1.375-2.0235-2.5-4.828-2.5-6.2321 0-2.4238 0.27482-2.553 5.4267-2.553h5.4267l2.5733-5.6208c3.3207-7.2534 3.2518-9.0861-0.42037-11.176-2.2335-1.2709-2.9953-2.4345-3-4.5823-0.00628-2.8607 0.02392-2.8748 4.7903-2.2425 4.4903 0.59565 4.9912 0.42825 7.843-2.6212 1.6755-1.7916 3.9961-4.8517 5.1568-6.8002 1.9494-3.2722 2.0029-3.8448 0.70094-7.5-0.77525-2.1765-1.4293-5.4198-1.4534-7.2073-0.03533-2.6164 0.35285-3.25 1.9913-3.25 1.1194 0 3.11 0.70422 4.4236 1.5649 1.4109 0.92448 3.9307 1.436 6.157 1.25 3.3281-0.27811 3.8682-0.70206 4.6211-3.627 0.73274-2.8467 1.2327-3.2682 3.5578-3 2.5293 0.2918 2.7053 0.63047 2.7053 5.2051 0 4.7464 0.2955 5.2388 9.8683 16.443 5.4276 6.3525 10.738 13.376 11.802 15.607 1.0634 2.2314 3.2183 6.307 4.7886 9.057 2.7145 4.7537 4.6395 8.3022 9.0724 16.724 3.2814 6.234 4.3674 6.5373 26.243 7.3282 23.419 0.84663 23.726 0.74121 23.726-8.1263v-5.264l4.75-1.1386c8.0438-1.9281 21.471-4.9687 27.25-6.1708 3.025-0.62921 6.2875-1.8232 7.25-2.6533 2.4128-2.081 2.2101-7.0807-0.3998-9.8588-2.6083-2.7764-3.4066-2.4458 14.15-5.86 7.425-1.4439 17.155-3.4911 21.622-4.5494s10.767-2.3144 14-2.7915 6.5532-1.1526 7.3782-1.5011c1.1023-0.4656 2.2298 0.937 4.2521 5.2896 3.9996 8.6081 7.2078 12.072 11.182 12.072 4.0879 0 6.5352-2.5989 6.6658-7.0787 0.05482-1.8817 0.39232-4.4436 0.75-5.6931 0.58727-2.0516 1.1204-1.6231 5.499 4.4195 2.6668 3.6803 5.3413 7.8526 5.9434 9.2719 0.602 1.4192 1.6317 3.2555 2.2882 4.0805s2.8937 5.55 4.9717 10.5c2.0779 4.95 4.2943 9.675 4.9254 10.5 2.1195 2.7709 11.776 29.504 11.984 33.179 0.0212 0.37325-5.8514 6.6797-13.05 14.014l-13.089 13.336-1.708-2.2644c-2.4291-3.2203-7.4688-2.9893-12.835 0.58821-9.5642 6.3757-12.422 8.1474-13.143 8.1474-0.41593 0-2.8668 1.616-5.4462 3.5911l-4.69 3.5911-0.33366-2.8411c-0.4728-4.0258-2.9284-6.3411-6.7254-6.3411-2.3132 0-5.965 1.8004-12.677 6.25-5.1856 3.4375-10.129 6.7-10.986 7.25-9.3697 6.0154-14.6 9.519-18.222 12.206-3.5706 2.6493-4.9337 3.1068-7.8485 2.6338-2.8918-0.46928-6.652 0.75493-20.867 6.7938l-17.34 7.3662-18.789 0.5c-13.092 0.3484-19.156 0.16132-20-0.61701zm75.402-347.24c-0.7626-0.50871-1.6074-3.2229-1.8772-6.0315l-0.49068-5.1066h3.1272c2.0076 0 3.1272 0.49915 3.1272 1.3942 0 0.85886 0.95969 1.3388 2.4993 1.25 1.3746-0.07931 2.4996-0.70671 2.5-1.3942 4.1e-4 -0.71828 1.2597-1.25 2.9604-1.25 2.6681 0 2.9391 0.29537 2.75 2.998-0.11536 1.6489-0.54724 2.9989-0.95974 3-0.4125 0.0011-0.75 1.099-0.75 2.4398 0 1.6304-0.57959 2.4593-1.75 2.5026-0.9625 0.03558-3.55 0.30274-5.75 0.59368s-4.624 0.11276-5.3866-0.39596z" fill="#2d2d2d"/>
<path d="m889.03 379.33c-22.848-0.73183-36.391-2.437-58.989 1.1796-18.476 4.6319-40.219 6.8749-59.581 5.5607-12.641-0.00109-26.703-4.7011-32.912-16.546-7.4026-10.416-14.066-23.094-10.996-36.265 0.53384-8.2708 4.0352-16.459 10.413-19.722 3.8414-2.3528 18.873 4.0324 14.391 15.979-2.8861 9.4503-1.8016 13.702 0.69084 23.087 5.0772 9.2935 13.594 13.332 24.88 15.055 23.396-2.7729 37.13-7.2055 63.082-6.8656 22.109-2.5708 18.402-1.0816 38.181-2.1151 7.5297-1.0779 6.3733 3.0008 6.4342 11.39-1.1629 5.2952 4.3973 4.929 4.4061 9.2624z" fill="#f91818"/>
</g>
<path d="m422.12 165.87c-3.8605 0-7.4565 1.1232-10.488 3.0544 1.2665-2.5898 1.9789-5.5003 1.9789-8.578 0-10.801-8.7553-19.556-19.556-19.556-10.801 0-19.556 8.7553-19.556 19.556 0 3.7172 1.0372 7.192 2.8382 10.151h-60.91v-60.91c2.9594 1.801 6.4342 2.8382 10.151 2.8382 10.801 0 19.556-8.7559 19.556-19.556 0-10.801-8.7553-19.556-19.556-19.556-3.0771 0-5.9875 0.71299-8.578 1.9795 1.9312-3.0317 3.0544-6.6283 3.0544-10.489 0-10.801-8.7553-19.556-19.556-19.556-10.801 0-19.556 8.7559-19.556 19.556 0 3.8605 1.1232 7.4571 3.0544 10.488-2.5904-1.2659-5.5003-1.9789-8.578-1.9789-10.801 0-19.556 8.7559-19.556 19.556 0 10.801 8.7559 19.556 19.556 19.556 3.7172 0 7.192-1.0372 10.151-2.8382v60.91h-60.91c1.801-2.9594 2.8382-6.4342 2.8382-10.151 0-10.801-8.7559-19.556-19.556-19.556-10.801 0-19.556 8.7553-19.556 19.556 0 3.0777 0.71299 5.9876 1.9795 8.578-3.0317-1.9312-6.6283-3.0544-10.489-3.0544-10.801 0-19.556 8.7553-19.556 19.556 0 10.801 8.7559 19.556 19.556 19.556 3.8605 0 7.4571-1.1232 10.488-3.0544-1.2659 2.5904-1.9789 5.5003-1.9789 8.578 0 10.801 8.7559 19.556 19.556 19.556 10.801 0 19.556-8.7559 19.556-19.556 0-3.7172-1.0372-7.192-2.8382-10.151h60.91v60.91c-2.9594-1.801-6.4342-2.8382-10.151-2.8382-10.801 0-19.556 8.7559-19.556 19.556 0 10.801 8.7559 19.556 19.556 19.556 3.0777 0 5.9876-0.71239 8.578-1.9789-1.9312 3.0317-3.0544 6.6283-3.0544 10.488 0 10.801 8.7559 19.556 19.556 19.556 10.801 0 19.556-8.7553 19.556-19.556 0-3.8605-1.1232-7.4565-3.0544-10.488 2.5904 1.2665 5.5009 1.9789 8.578 1.9789 10.801 0 19.556-8.7553 19.556-19.556 0-10.801-8.7553-19.556-19.556-19.556-3.7172 0-7.192 1.0372-10.151 2.8382v-60.91h60.91c-1.801 2.9594-2.8382 6.4342-2.8382 10.151 0 10.801 8.7559 19.556 19.556 19.556 10.801 0 19.556-8.7559 19.556-19.556 0-3.0777-0.7124-5.9875-1.9789-8.578 3.0317 1.9312 6.6283 3.0544 10.488 3.0544 10.801 0 19.556-8.7559 19.556-19.556 0-10.801-8.7553-19.556-19.556-19.556z" fill="#fff" stroke="#000" stroke-width="4"/>
</g>
<g>
<path d="m1.5 1.5v458.87c0 166.31 134.31 301.13 300 301.13 165.69 0 300-134.82 300-301.13v-458.87h-600z" fill="url(#a)"/>
<path d="m1.5 1.5v458.87c0 166.31 134.31 301.13 300 301.13 165.69 0 300-134.82 300-301.13v-458.87h-600z" fill="none" stroke="#000" stroke-width="3"/>
</g>
</svg>
