<?xml version="1.0" encoding="UTF-8"?>
<svg version="1.0" viewBox="0 0 603 763" xmlns="http://www.w3.org/2000/svg" xmlns:cc="http://creativecommons.org/ns#" xmlns:dc="http://purl.org/dc/elements/1.1/" xmlns:rdf="http://www.w3.org/1999/02/22-rdf-syntax-ns#" xmlns:xlink="http://www.w3.org/1999/xlink">
<desc>Coat of Arms of Canton of Freiburg (Fribourg)</desc>
<metadata>
<rdf:RDF>
<cc:Work rdf:about="">
<dc:format>image/svg+xml</dc:format>
<dc:type rdf:resource="http://purl.org/dc/dcmitype/StillImage"/>
<dc:date>07-AUG-2006</dc:date>
<dc:creator>
<cc:Agent>
<dc:title>Jérôme BLUM (wagner51)</dc:title>
</cc:Agent>
</dc:creator>
<cc:license rdf:resource="http://creativecommons.org/licenses/GPL/2.0/"/>
<dc:coverage/>
<dc:description>Gabarit pour le Projet:Blasons de WIkipédia</dc:description>
<dc:subject>
<rdf:Bag>
<rdf:li>blason suisse modèle gabarit projet blasons</rdf:li>
</rdf:Bag>
</dc:subject>
<dc:language>fr</dc:language>
<dc:title/>
</cc:Work>
<cc:License rdf:about="http://creativecommons.org/licenses/GPL/2.0/">
<cc:permits rdf:resource="http://web.resource.org/cc/Reproduction"/>
<cc:permits rdf:resource="http://web.resource.org/cc/Distribution"/>
<cc:requires rdf:resource="http://web.resource.org/cc/Notice"/>
<cc:permits rdf:resource="http://web.resource.org/cc/DerivativeWorks"/>
<cc:requires rdf:resource="http://web.resource.org/cc/ShareAlike"/>
<cc:requires rdf:resource="http://web.resource.org/cc/SourceCode"/>
</cc:License>
</rdf:RDF>
</metadata>
<defs>
<radialGradient id="a" cx="858.04" cy="579.93" r="300" gradientTransform="matrix(1.215 0 0 1.2667 -839.19 -490.49)" gradientUnits="userSpaceOnUse">
<stop stop-color="#fff" stop-opacity=".31373" offset="0"/>
<stop stop-color="#fff" stop-opacity=".25098" offset=".19"/>
<stop stop-color="#6b6b6b" stop-opacity=".12549" offset=".6"/>
<stop stop-opacity=".12549" offset="1"/>
</radialGradient>
</defs>
<g>
<path d="m1.5 1.5v458.87c0 166.31 134.31 301.13 300 301.13 165.69 0 300-134.82 300-301.13v-458.87h-600z" fill="#e20909"/>
<path transform="matrix(3.7389 0 0 3.695 1337.8 -438.72)" d="m-210.54 248.08a67.738 67.738 0 1 1-135.48 0 67.738 67.738 0 1 1 135.48 0z" fill="#fcef3c" stroke="#000" stroke-width="1.014"/>
<path transform="matrix(3.3861 0 0 3.3897 1239.2 -363.28)" d="m-210.54 248.08a67.738 67.738 0 1 1-135.48 0 67.738 67.738 0 1 1 135.48 0z" fill="#2b5df2" stroke="#000" stroke-width="1.014"/>
<g transform="matrix(1.2885 0 0 1.0532 178.49 298.65)" fill="#fff" stroke="#000">
<g transform="translate(-11.288 -4.8586)" stroke-width="3.7347">
<path d="m34.035 346.49-3e-6 -15.098v-0.4739-16.838c0.10824-58.243 0.21924-116.49 0.32931-174.73-0.32931-18.902-0.21222-51.629 0-77.199h141.66v64.809c-0.76521 23.905-1.5304-9.8831-0.76521 15.707l0.76521 171.41c-1.7382 15.055 1.0582 32.462-0.76521 32.462-17.603 0-61.147 0.21662-141.22-0.0521z" fill-rule="evenodd"/>
<path d="m175.26 331.39-140.26-0.4739m140.26-15.887-141.22-0.94779m141.76-157.57h-141.59m141.4-17.154h-141.68m141.87 47.017h-141.79m141.79 32.087h-141.79m141.59 30.816h-141.2m141.4 33.04h-141.4m43.215 48.604v16.547m52.325-16.547v16.388m-77.115-33.223v16.795m101.95-16.795v16.597m-95.442-191.33v16.94m43.117-16.94v16.94m47.101-16.94v16.94m-103.28 0.2142v15.249m37.893-15.249v15.249m39.221-15.249v15.249m37.893-15.249v15.249m-101.95-0.31774v15.249m43.117-15.249v15.249m47.101-15.249v15.249m-103.28-0.31747v16.202m37.893-16.202v16.202m39.221-16.202v16.202m37.893-16.202v16.202m-58.832 0v15.249m-56.176 31.451v16.202m115.01-16.202v16.202m-115.01 16.838v16.202m115.01-16.202v16.202m-127.25-171.08 141.22 0.94779m-105.48-1.4217v12.005m65.384-12.005v12.005m-100.67-44.411h141.66m-141.66-32.408h141.66m-95.884 0v16.842m48.34-16.842v16.842m-74.503-0.31773v16.202m48.34-16.202v16.202m52.325-16.202v16.202m-52.325 16.52v15.886"/>
<path d="m34.325 111.22h141.66" fill-rule="evenodd"/>
<path d="m34.129 202.35h142.25" fill-rule="evenodd"/>
<path d="m34.325 298.25h141.66" fill-rule="evenodd"/>
<path d="m34.469 265.96h140.93" fill-rule="evenodd"/>
<path d="m33.933 171.6h142.25" fill-rule="evenodd"/>
<path d="m34.129 234.02h141.86" fill-rule="evenodd"/>
<path d="m34.311 78.974h141.68" fill-rule="evenodd"/>
<path d="m59.337 201.98v16.457"/>
<path d="m149.34 201.98v16.457"/>
<path d="m46.55 218.06v16.457"/>
<path d="m161.65 217.93v16.457"/>
</g>
<path d="m57.097 228.51v-14.644" stroke-width="3.7347"/>
<path d="m129.04 228.66v-14.644" stroke-width="3.7347"/>
<g transform="matrix(1.3262 0 0 1.2604 -301.89 -225.17)" fill-rule="evenodd" stroke-linejoin="bevel" stroke-width="2.8886">
<path d="m234.63 209.59h127.57v6.7619c-3.2075 0.56708-10.461 3.3255-9.9454 8.8969h-107.23c0.69446-2.2683-2.4228-7.3945-10.395-8.6235v-7.0353z" enable-background="new"/>
<path d="m235.15 216.63 126.95-0.27344" enable-background="new"/>
</g>
<path d="m7.1723 0.53408v38.777h173.36v-38.777h-24.766v20.312h-24.766v-20.312h-24.766v20.312h-24.766v-20.312h-24.766v20.312h-24.766v-20.312h-24.766z" enable-background="new" stroke-linecap="round" stroke-linejoin="bevel" stroke-width="3.7347"/>
</g>
<use transform="translate(-534.07 -49.079)" width="600" height="660" fill="#fcef3c" stroke="#000000" stroke-width="3" xlink:href="#g5023"/>
<path d="m61.457 59.357c-21.795 13.902-36.14 37.497-36.14 64.246 0 42.72 36.597 77.397 81.681 77.397 45.085 0 81.681-34.677 81.682-77.397 0-26.737-14.361-50.318-36.14-64.222 11.065 10.823 17.908 25.562 17.908 41.809 0 33.187-28.426 60.122-63.45 60.122-35.024 0-63.45-26.935-63.45-60.122 0-16.258 6.8311-31.008 17.908-41.833z" fill="#fcef3c" fill-rule="evenodd" stroke="#000" stroke-linecap="round" stroke-linejoin="round" stroke-width="3"/>
<path d="m453.51 58.423c-21.795 13.902-36.14 37.497-36.14 64.246 0 42.72 36.597 77.397 81.681 77.397 45.085 0 81.681-34.677 81.682-77.397 0-26.737-14.361-50.318-36.14-64.222 11.065 10.823 17.908 25.562 17.908 41.809 0 33.187-28.426 60.122-63.45 60.122-35.024 0-63.45-26.935-63.45-60.122 0-16.258 6.8311-31.008 17.908-41.833z" fill="#fcef3c" fill-rule="evenodd" stroke="#000" stroke-linecap="round" stroke-linejoin="round" stroke-width="3"/>
<path d="m300.3 47.336 22.665 59.307 72.254-0.072-58.663 36.842 22.407 59.002-58.92-36.537-58.405 36.537 22.248-59.423-58.504-36.421 72.671-0.18806 22.248-59.047z" fill="#fcef3c" stroke="#000" stroke-width="3"/>
<path d="m1.5 1.5v458.87c0 166.31 134.31 301.13 300 301.13 165.69 0 300-134.82 300-301.13v-458.87h-600z" fill="url(#a)"/>
<path d="m1.5 1.5v458.87c0 166.31 134.31 301.13 300 301.13 165.69 0 300-134.82 300-301.13v-458.87h-600z" fill="none" stroke="#000" stroke-width="3"/>
</g>
</svg>
