<?xml version="1.0" encoding="UTF-8" standalone="no"?>
<svg
   xmlns:dc="http://purl.org/dc/elements/1.1/"
   xmlns:cc="http://creativecommons.org/ns#"
   xmlns:rdf="http://www.w3.org/1999/02/22-rdf-syntax-ns#"
   xmlns:svg="http://www.w3.org/2000/svg"
   xmlns="http://www.w3.org/2000/svg"
   xmlns:xlink="http://www.w3.org/1999/xlink"
   xmlns:sodipodi="http://sodipodi.sourceforge.net/DTD/sodipodi-0.dtd"
   xmlns:inkscape="http://www.inkscape.org/namespaces/inkscape"
   version="1.0"
   width="603"
   height="763"
   id="svg20"
   sodipodi:docname="2129.svg">
  <sodipodi:namedview
     pagecolor="#ffffff"
     bordercolor="#666666"
     borderopacity="1"
     objecttolerance="10"
     gridtolerance="10"
     guidetolerance="10"
     inkscape:pageopacity="0"
     inkscape:pageshadow="2"
     inkscape:window-width="640"
     inkscape:window-height="480"
     id="namedview152" />
  <desc
     id="desc22">Coat of Arms of Canton of Freiburg (Fribourg)</desc>
  <metadata
     id="metadata31">
    <rdf:RDF>
      <cc:Work
         rdf:about="">
        <dc:format>image/svg+xml</dc:format>
        <dc:type
           rdf:resource="http://purl.org/dc/dcmitype/StillImage" />
        <dc:date>07-AUG-2006</dc:date>
        <dc:creator>
          <cc:Agent>
            <dc:title>Jérôme BLUM (wagner51)</dc:title>
          </cc:Agent>
        </dc:creator>
        <cc:license
           rdf:resource="http://creativecommons.org/licenses/GPL/2.0/" />
        <dc:coverage />
        <dc:description>Gabarit pour le Projet:Blasons de WIkipédia</dc:description>
        <dc:subject>
          <rdf:Bag>
            <rdf:li>blason suisse modèle gabarit projet blasons</rdf:li>
          </rdf:Bag>
        </dc:subject>
        <dc:language>fr</dc:language>
        <dc:title />
      </cc:Work>
      <cc:License
         rdf:about="http://creativecommons.org/licenses/GPL/2.0/">
        <cc:permits
           rdf:resource="http://web.resource.org/cc/Reproduction" />
        <cc:permits
           rdf:resource="http://web.resource.org/cc/Distribution" />
        <cc:requires
           rdf:resource="http://web.resource.org/cc/Notice" />
        <cc:permits
           rdf:resource="http://web.resource.org/cc/DerivativeWorks" />
        <cc:requires
           rdf:resource="http://web.resource.org/cc/ShareAlike" />
        <cc:requires
           rdf:resource="http://web.resource.org/cc/SourceCode" />
      </cc:License>
    </rdf:RDF>
  </metadata>
  <defs
     id="defs29">
    <linearGradient
       id="linearGradient2893">
      <stop
         id="stop2895"
         style="stop-color:#ffffff;stop-opacity:0.3137255"
         offset="0" />
      <stop
         id="stop2897"
         style="stop-color:#ffffff;stop-opacity:0.25098041"
         offset="0.19" />
      <stop
         id="stop2901"
         style="stop-color:#6b6b6b;stop-opacity:0.1254902"
         offset="0.60000002" />
      <stop
         id="stop2899"
         style="stop-color:#000000;stop-opacity:0.1254902"
         offset="1" />
    </linearGradient>
    <radialGradient
       cx="858.04236"
       cy="579.93323"
       r="300"
       fx="858.04236"
       fy="579.93323"
       id="radialGradient3236"
       xlink:href="#linearGradient2893"
       gradientUnits="userSpaceOnUse"
       gradientTransform="matrix(1.215027,0,0,1.266667,-839.1924,-490.4894)" />
  </defs>
  <g
     id="layer1"
     style="display:inline">
    <path
       d="m 1.5,1.49998 0,458.86792 C 1.5,626.6785 135.81456,761.5 301.49999,761.5 467.18543,761.5 601.5,626.6785 601.5,460.3679 l 0,-458.86792 -600,0 z"
       id="path1899"
       style="fill:#e20909;fill-opacity:1" />
    <g
       transform="translate(0,-0.65820286)"
       id="layer3-1"
       style="display:inline">
      <g
         id="g5810">
        <path
           d="M 1.5,234.90234 478.24804,705.68945 C 540.15562,656.232 607.61544,567.75007 602.19141,430.1875 l -428,-428 -172.69141,0 z"
           id="path2855"
           style="fill:#ffffff;fill-opacity:1;fill-rule:evenodd;stroke:#000000;stroke-width:3;stroke-linecap:butt;stroke-linejoin:miter;stroke-miterlimit:4;stroke-opacity:1;stroke-dasharray:none" />
        <rect
           width="600"
           height="660"
           x="0"
           y="3.375078e-014"
           id="rect4923"
           style="fill:none;stroke:none" />
      </g>
    </g>
    <g
       transform="translate(129.11166,132.97945)"
       id="g23">
      <g
         id="g25">
        <path
           d="m 192.25,36.498 c -4.624,1.028 -8.678,0.971 -12.104,-0.171 -4.853,-1.712 -10.049,-3.483 -15.473,-5.424 -5.48,-1.941 -11.019,-2.626 -16.5,-2.055 -5.596,0.571 -10.848,1.713 -15.872,3.483 -5.024,1.77 -9.078,4.51 -12.275,8.222 -3.825,4.396 -3.997,8.963 -0.514,13.587 1.313,0.914 2.798,1.428 4.282,1.428 0.286,0 0.514,0 0.857,0 0.514,-0.057 1.084,-0.171 1.655,-0.285 0.286,-0.057 0.571,-0.172 0.914,-0.286 0.457,-0.172 0.971,-0.343 1.542,-0.571 0.342,-0.229 0.799,-0.457 1.199,-0.685 0.399,-0.171 0.799,-0.456 1.199,-0.742 2.112,-1.313 4.396,-1.771 6.908,-1.256 0.399,0.114 0.742,0.171 1.143,0.343 0.17,0 0.342,0.114 0.513,0.171 0.856,0.229 1.656,0.571 2.512,0.914 1.256,0.742 2.684,1.313 4.225,1.655 3.826,0.857 8.45,0.4 13.988,-1.313 -5.538,1.713 -10.162,2.17 -13.988,1.313 0.172,0.743 -0.399,2.056 -1.599,3.826 -1.256,1.77 -3.653,2.854 -7.25,3.255 -3.54,0.399 -6.109,-0.571 -7.708,-2.855 -1.541,-2.341 -2.455,-3.654 -2.683,-4.054 -0.342,0.114 -0.628,0.229 -0.914,0.286 -0.571,0.114 -1.141,0.229 -1.655,0.285 -0.343,0 -0.571,0 -0.857,0 -1.484,0 -2.969,-0.514 -4.282,-1.428 -11.99,7.308 -19.754,14.274 -23.18,20.84 -3.426,6.565 -4.967,10.162 -4.51,10.905 h 0.057 c 0.058,-0.057 0.058,-0.057 0.115,-0.057 h 0.057 c 3.025,-1.085 5.937,-1.999 8.792,-2.854 11.875,-3.541 25.121,-5.139 39.68,-4.796 -14.559,-0.343 -27.805,1.255 -39.68,4.796 7.593,-0.628 18.897,0.913 33.97,4.795 2.284,0.228 3.996,0.856 5.309,1.941 5.31,4.51 0.743,16.671 -13.703,36.597 -17.812,24.493 -23.465,44.761 -16.957,60.633 6.452,15.814 12.276,25.064 17.414,27.633 7.708,6.565 16.043,11.933 24.95,16.1 -1.142,-2.227 -1.999,-4.167 -2.569,-5.88 -0.628,-1.713 -2.569,-4.682 -5.938,-8.906 -3.368,-4.226 -4.967,-10.734 -4.853,-19.47 0.115,-8.735 1.713,-16.385 4.853,-22.894 -3.14,6.508 -4.738,14.159 -4.853,22.894 -0.114,8.736 1.485,15.244 4.853,19.47 3.369,4.225 5.31,7.193 5.938,8.906 0.571,1.713 1.428,3.654 2.569,5.88 1.199,2.17 2.398,4.282 3.768,6.337 2.798,4.111 4.739,8.964 5.823,14.501 0.058,0.457 0.172,0.914 0.229,1.314 0,0 0,0 0.057,0.057 0.457,0.799 0.971,1.599 1.599,2.341 2.569,2.969 6.28,4.567 11.076,4.853 0.971,0.057 1.941,0.057 2.912,0 h 0.057 c 4.625,-0.171 8.792,-1.37 12.446,-3.54 0.628,-0.399 1.199,-0.799 1.77,-1.199 1.941,-1.712 3.368,-4.053 4.225,-6.908 -6.737,3.083 -10.733,1.941 -11.875,-3.369 -0.342,-1.427 -0.171,-2.569 0.457,-3.483 5.652,0.628 9.021,-0.457 10.276,-3.368 0.514,-1.142 0.686,-2.512 0.514,-4.168 -0.171,-1.598 -0.342,-3.197 -0.514,-4.739 -3.539,3.083 -6.451,3.312 -8.735,0.571 -0.856,-1.028 -1.084,-2.17 -0.742,-3.483 1.256,-4.682 4.396,-7.366 9.421,-8.107 -5.024,0.742 -8.165,3.426 -9.421,8.107 -0.342,1.313 -0.114,2.455 0.742,3.483 2.284,2.74 5.196,2.511 8.735,-0.571 0.172,1.542 0.343,3.141 0.514,4.739 0.172,1.656 0,3.026 -0.514,4.168 8.622,11.704 13.475,18.44 14.559,20.154 8.05,4.853 12.846,5.652 14.388,2.512 -2.569,-4.625 -8.279,-13.474 -17.014,-26.606 8.735,13.132 14.444,21.981 17.014,26.606 7.251,5.424 12.275,6.28 15.13,2.569 -3.254,-6.167 -6.68,-12.39 -10.277,-18.67 -20.04,-13.188 -36.71,-29.802 -50.014,-49.956 -4.396,-6.623 -8.45,-13.646 -12.104,-21.067 3.653,7.422 7.708,14.444 12.104,21.067 9.021,7.307 14.901,7.536 17.813,0.685 -3.483,-5.653 -6.852,-11.476 -10.049,-17.414 3.197,5.938 6.566,11.761 10.049,17.414 1.826,2.968 3.653,5.88 5.595,8.792 8.678,5.424 15.758,6.452 21.296,2.97 -6.909,-11.419 -13.246,-23.294 -18.841,-35.455 5.595,12.161 11.932,24.036 18.841,35.455 1.713,2.969 3.54,5.823 5.367,8.678 8.621,7.479 14.73,8.279 18.555,2.341 -10.276,-16.443 -19.583,-33.285 -27.918,-50.584 8.334,17.299 17.642,34.141 27.918,50.584 5.652,9.078 11.818,18.271 18.498,27.462 1.827,2.511 3.711,5.023 5.539,7.536 11.818,8.907 18.155,11.02 19.012,6.337 -11.875,-12.903 -22.152,-27.405 -31.001,-43.562 l -38.024,-69.54 c -9.82,-15.929 -19.926,-24.493 -30.317,-25.635 -13.246,1.256 -23.237,5.709 -30.031,13.188 6.794,-7.479 16.786,-11.932 30.031,-13.188 -0.799,-2.969 -1.484,-6.224 -2.055,-9.763 -0.914,-5.481 -1.428,-11.076 -1.485,-16.843 -0.171,-5.48 -0.286,-11.076 -0.457,-16.671 -0.114,-5.138 -0.571,-10.677 -1.313,-16.557 -0.743,-6.052 -2.169,-11.19 -4.282,-15.301 4.111,-1.542 7.822,-4.683 11.076,-9.25"
           id="path27" />
        <path
           d="m 139.211,52.085 c -0.4,-0.172 -0.743,-0.229 -1.143,-0.343 -2.512,-0.514 -4.796,-0.057 -6.908,1.256 -0.399,0.286 -0.799,0.571 -1.199,0.742 -0.4,0.229 -0.856,0.457 -1.199,0.685 1.084,2.741 3.14,3.997 6.108,3.825 2.969,-0.171 4.567,-2.169 4.853,-5.995 l -0.512,-0.17"
           id="path29" />
        <path
           d="m 196.247,195.503 c -2.913,6.851 -8.793,6.622 -17.813,-0.685 13.303,20.154 29.974,36.768 50.014,49.956 5.139,3.369 10.505,6.509 16.043,9.42 -9.534,-8.735 -18.441,-18.212 -26.776,-28.375 -5.538,-6.852 -10.848,-14.045 -15.872,-21.525 -1.943,-2.911 -3.77,-5.822 -5.596,-8.791"
           id="path31" />
        <path
           d="m 223.138,207.265 c -5.538,3.482 -12.618,2.455 -21.296,-2.97 5.024,7.48 10.334,14.673 15.872,21.525 11.589,9.363 18.897,11.418 21.809,6.166 -3.824,-5.252 -7.479,-10.562 -11.019,-16.043 -1.827,-2.855 -3.653,-5.71 -5.366,-8.678"
           id="path33" />
        <path
           d="m 271.096,253.281 c -1.827,-2.512 -3.711,-5.024 -5.539,-7.536 -0.685,7.422 -7.136,5.823 -19.412,-4.854 10.562,13.703 22.209,26.72 34.827,39.223 6.11,5.881 11.761,7.708 16.9,5.367 -9.363,-10.275 -18.269,-21.009 -26.776,-32.2"
           id="path35" />
        <path
           d="m 271.096,253.281 c 8.506,11.19 17.413,21.924 26.777,32.201 10.105,3.197 17.299,3.369 21.467,0.514 -10.562,-7.879 -20.325,-16.672 -29.232,-26.377 -0.857,4.682 -7.194,2.569 -19.012,-6.338"
           id="path37" />
        <path
           d="m 239.523,231.985 c -2.912,5.253 -10.22,3.197 -21.809,-6.166 8.335,10.163 17.242,19.64 26.776,28.375 13.303,14.902 25.464,23.523 36.482,25.92 -12.617,-12.503 -24.265,-25.521 -34.827,-39.223 -2.226,-2.911 -4.452,-5.879 -6.622,-8.906"
           id="path39" />
        <path
           d="m 239.523,231.985 c 2.17,3.026 4.396,5.995 6.623,8.907 12.275,10.677 18.727,12.275 19.412,4.854 -6.68,-9.192 -12.846,-18.384 -18.498,-27.462 -3.825,5.938 -9.934,5.138 -18.555,-2.341 3.539,5.48 7.194,10.79 11.018,16.042"
           id="path41" />
        <path
           d="m 184.371,241.577 c -0.627,0.914 -0.799,2.056 -0.457,3.483 1.142,5.31 5.138,6.451 11.875,3.369 -0.856,2.854 -2.283,5.195 -4.225,6.908 7.479,5.539 13.36,6.509 17.642,3.026 -1.084,-1.713 -5.937,-8.45 -14.559,-20.154 -1.255,2.912 -4.624,3.996 -10.276,3.368"
           id="path43" />
        <path
           d="m 177.349,260.075 h -0.057 c -0.971,0.057 -1.941,0.057 -2.912,0 -4.796,-0.286 -8.507,-1.884 -11.076,-4.853 0.286,8.564 0.286,14.273 0.115,17.071 -0.115,1.77 -0.286,3.597 -0.514,5.367 -0.172,0.685 -0.229,1.427 -0.343,2.169 -0.399,2.341 -0.914,4.739 -1.542,7.137 -0.171,0.971 -0.457,1.941 -0.742,2.854 -1.028,3.425 -2.169,6.623 -3.597,9.706 -0.057,0 -0.171,0 -0.228,0.057 -5.424,0.571 -9.42,-0.514 -12.104,-3.311 -1.771,-1.884 -3.654,-3.141 -5.596,-3.711 -3.768,-1.027 -6.794,-0.628 -9.135,1.199 -0.742,0.571 -1.427,1.256 -1.998,2.112 -0.342,0.457 -0.628,0.971 -0.914,1.542 -0.856,1.599 -1.141,3.425 -0.856,5.538 5.88,-1.941 10.962,-1.941 15.187,0.057 1.485,0.628 2.913,1.428 4.226,2.34 0.628,0.4 1.313,0.857 1.998,1.428 -3.94,2.341 -8.393,3.939 -13.36,4.853 -5.424,0.97 -9.306,2.627 -11.533,5.024 -2.17,2.283 -1.827,4.225 1.027,5.937 0.115,0.058 0.229,0.172 0.343,0.172 3.14,1.713 4.853,2.569 5.196,2.683 0.056,0 0.114,0 0.228,0 0.742,-0.228 3.083,-1.656 7.079,-4.225 4.568,-2.968 8.45,-4.91 11.647,-5.709 3.254,-0.855 5.424,-1.598 6.737,-2.34 -1.313,6.224 -2.741,11.647 -4.225,16.214 -0.8,2.341 -0.8,4.853 0.057,7.479 0.799,2.456 2.912,3.369 6.451,2.741 0.229,-0.057 0.399,-0.057 0.628,-0.114 0.914,-0.228 1.884,-0.343 2.855,-0.514 -0.229,-1.998 -0.229,-3.825 -0.229,-5.652 0.171,-2.626 0.514,-5.082 1.142,-7.308 1.142,-3.711 2.113,-7.993 2.912,-12.789 0.8,-4.853 3.254,-7.594 7.308,-8.45 4.91,-0.229 8.392,-0.171 10.391,0.057 1.77,0.229 4.396,0.571 7.821,1.084 0.399,0.058 0.743,0.058 1.142,0.171 2.626,0.399 4.225,-0.285 4.681,-1.941 0.286,-0.914 0.229,-2.056 -0.057,-3.483 -0.913,-4.225 -4.225,-5.881 -9.934,-4.91 -5.709,0.97 -10.448,-0.228 -14.331,-3.654 0.229,-1.37 0.514,-2.627 0.743,-3.768 0.799,-4.111 1.541,-6.852 2.169,-8.279 0.514,-1.313 0.971,-2.683 1.428,-3.997 0.114,-0.57 0.286,-1.142 0.513,-1.713 0.46,-1.938 0.916,-6.734 1.259,-14.271"
           id="path45" />
        <path
           d="m 238.724,263.444 c -2.854,3.711 -7.879,2.854 -15.13,-2.569 6.28,11.362 12.161,22.666 17.584,34.027 1.656,3.141 3.312,6.281 4.91,9.421 7.365,10.505 13.075,13.588 17.186,9.306 -2.798,-6.223 -5.824,-12.446 -9.078,-18.727 -4.739,-10.39 -9.877,-20.839 -15.472,-31.458"
           id="path47" />
        <path
           d="m 220.797,294.902 c 4.967,4.112 7.993,4.339 8.964,0.686 -0.115,-0.229 -0.229,-0.457 -0.343,-0.686 -6.167,-12.389 -12.846,-24.606 -20.211,-36.539 -4.282,3.483 -10.163,2.512 -17.642,-3.026 7.251,9.707 14.045,19.47 20.211,29.346 3.482,4.51 6.509,7.879 9.021,10.219"
           id="path49" />
        <path
           d="m 229.761,295.588 c -0.971,3.653 -3.997,3.426 -8.964,-0.686 -2.512,-2.34 -5.539,-5.708 -9.021,-10.219 2.056,3.426 4.111,6.794 6.109,10.219 10.333,15.645 18.898,31.459 25.749,47.388 3.711,9.364 7.993,14.217 12.789,14.616 -6.851,-21.181 -15.758,-41.564 -26.662,-61.318"
           id="path51" />
        <path
           d="m 229.418,294.902 c 0.114,0.229 0.228,0.458 0.343,0.686 7.936,9.42 13.36,12.332 16.328,8.735 -1.599,-3.14 -3.254,-6.28 -4.91,-9.421 -5.424,-11.361 -11.304,-22.665 -17.584,-34.027 -1.542,3.14 -6.338,2.34 -14.388,-2.512 7.365,11.933 14.044,24.15 20.211,36.539"
           id="path53" />
        <path
           d="m 190.88,306.093 -0.342,0.457 c 3.825,3.083 5.081,6.509 3.825,10.277 3.597,-4.854 4.053,-9.078 1.198,-12.675 -0.457,1.656 -2.055,2.34 -4.681,1.941"
           id="path55" />
        <path
           d="m 256.423,356.906 c 6.223,11.476 11.59,15.7 16.101,12.732 -6.566,-21.752 -15.358,-43.448 -26.435,-65.315 -2.968,3.597 -8.392,0.685 -16.328,-8.735 10.904,19.754 19.811,40.137 26.662,61.318"
           id="path57" />
        <path
           d="m 272.523,369.638 c 6.623,8.05 10.562,9.591 11.875,4.568 -4.624,-19.583 -11.646,-39.794 -21.124,-60.577 -4.111,4.282 -9.82,1.199 -17.186,-9.306 11.078,21.867 19.87,43.562 26.435,65.315"
           id="path59" />
        <path
           d="m 151.828,230.672 c -8.907,-4.167 -17.242,-9.535 -24.95,-16.1 0.514,6.452 -0.799,11.59 -3.882,15.415 -1.485,1.771 -3.483,2.683 -5.995,2.683 0.742,3.825 2.683,5.881 5.767,6.167 0.399,0.057 0.856,0.057 1.313,0 0.628,0 1.313,-0.114 2.055,-0.285 0.743,-0.172 1.542,-0.458 2.455,-0.743 0.058,3.94 1.313,6.738 3.825,8.507 v 0.057 c 0.514,0.342 1.142,0.628 1.827,0.914 1.028,0.457 2.227,0.743 3.654,0.914 6.224,0.742 10.848,-0.514 13.931,-3.769 -7.708,0.571 -10.391,-2.626 -7.878,-9.591 0.97,-2.798 3.596,-4.169 7.878,-4.169"
           id="path61" />
        <path
           d="m 122.768,238.837 c -3.254,3.483 -5.424,5.652 -6.452,6.508 -0.571,0.457 -1.085,0.914 -1.599,1.37 -1.827,1.428 -3.768,2.741 -5.708,4.111 -2.284,1.485 -4.511,2.854 -6.794,4.054 -1.485,0.742 -2.969,1.428 -4.454,2.113 -2.684,-1.884 -4.567,-3.94 -5.652,-6.109 -0.628,-1.371 -0.97,-2.798 -1.028,-4.226 -0.057,-2.512 -0.628,-4.567 -1.655,-6.223 -2.569,-4.111 -5.938,-5.709 -10.048,-4.854 -0.514,0.115 -1.085,0.343 -1.657,0.514 -1.655,0.571 -3.025,1.712 -4.167,3.426 4.853,2.113 8.222,4.967 10.106,8.507 0.228,0.399 0.513,0.913 0.685,1.37 0.342,0.799 0.685,1.542 0.913,2.397 0.514,1.371 0.857,2.798 1.085,4.282 -0.799,-0.171 -1.6,-0.342 -2.398,-0.571 -3.483,-0.971 -6.909,-2.512 -10.22,-4.567 -4.567,-2.798 -8.392,-4.111 -11.533,-3.825 -2.112,0.114 -3.254,0.914 -3.426,2.455 -0.114,0.628 0,1.428 0.286,2.341 v 0.057 c 0.057,0.114 0.114,0.229 0.172,0.343 1.141,3.254 1.826,5.024 1.998,5.31 0,0.057 0,0.114 0.114,0.114 0.686,0.342 3.312,0.799 7.879,1.542 5.082,0.856 9.078,1.941 11.933,3.426 0.057,0 0.057,0 0.114,0.057 2.797,1.427 4.91,2.284 6.224,2.626 -3.369,2.512 -6.566,4.682 -9.535,6.508 -1.371,0.856 -2.741,1.599 -3.997,2.341 -0.058,0.057 -0.171,0.114 -0.229,0.171 -0.913,0.514 -1.655,1.142 -2.398,1.941 -0.799,0.914 -1.484,2.056 -2.055,3.312 -1.085,2.227 -0.171,4.282 2.798,6.109 0.171,0.114 0.342,0.229 0.513,0.342 0.8,0.458 1.6,0.971 2.341,1.485 1.142,-1.542 2.341,-2.912 3.54,-4.168 1.142,-1.199 2.398,-2.227 3.654,-3.14 0.571,-0.514 1.199,-0.914 1.884,-1.313 3.197,-1.999 6.566,-4.396 10.276,-7.308 2.285,-1.827 4.511,-2.684 6.681,-2.569 1.37,0 2.683,0.399 4.053,1.199 h -0.057 c 3.655,3.025 6.167,5.309 7.423,6.737 1.142,1.313 2.797,3.254 4.909,5.823 0.229,0.286 0.457,0.571 0.686,0.914 1.599,1.941 3.197,2.512 4.625,1.599 0.742,-0.457 1.484,-1.314 2.169,-2.569 2.056,-3.597 0.743,-6.908 -3.939,-9.82 -4.682,-3.026 -7.308,-6.965 -7.878,-11.933 4.852,-3.654 8.107,-5.938 9.876,-6.794 0.286,-0.114 3.541,-2.741 9.592,-7.879 v -0.057 c -2.512,-1.77 -3.768,-4.567 -3.825,-8.507 -0.914,0.286 -1.712,0.571 -2.455,0.743 -0.742,0.171 -1.427,0.285 -2.055,0.285 -0.459,0.057 -0.916,0.057 -1.315,0"
           id="path63" />
        <path
           d="m 132.416,246.316 v 0.057 -0.057"
           id="path65" />
        <path
           d="m 122.597,285.368 c -1.428,0.914 -3.026,0.342 -4.625,-1.599 l -0.513,0.057 c 0.742,4.682 -0.628,7.993 -3.94,9.877 5.709,-1.141 8.792,-3.939 9.078,-8.335"
           id="path67" />
        <path
           d="m 126.707,297.415 c 0.286,-0.571 0.571,-1.085 0.914,-1.542 -2.227,0.343 -4.11,1.37 -5.595,3.083 -1.428,1.655 -2.398,4.625 -2.969,9.021 1.313,-1.77 2.512,-3.083 3.598,-3.94 1.198,-0.971 2.283,-1.313 3.197,-1.084 -0.287,-2.113 -0.001,-3.939 0.855,-5.538"
           id="path69" />
        <path
           d="m 73.553,239.522 c 1.142,-1.713 2.512,-2.854 4.167,-3.426 0.571,-0.171 1.143,-0.399 1.657,-0.514 -4.226,-2.797 -9.421,-1.655 -15.473,3.426 5.367,-1.256 8.564,-1.085 9.649,0.514"
           id="path71" />
        <path
           d="m 59.223,252.311 -0.229,-0.399 c -4.11,1.427 -6.394,6.109 -6.737,13.988 1.599,-4.396 4.567,-7.137 8.964,-8.165 v -0.114 c -0.172,-0.286 -0.857,-2.056 -1.998,-5.31"
           id="path73" />
        <path
           d="m 74.923,287.595 c -0.742,-0.514 -1.542,-1.027 -2.341,-1.485 h -0.628 c -0.913,4.625 1.028,7.936 5.766,9.763 -1.655,-4.282 -1.427,-8.45 0.743,-12.446 -1.198,1.256 -2.398,2.626 -3.54,4.168"
           id="path75" />
        <path
           d="m 157.537,339.492 -0.514,0.343 c 0,0.057 0,0.057 0,0.057 2.57,4.225 6.396,5.481 11.305,3.597 -4.282,-2.169 -7.022,-5.595 -8.165,-10.163 0,1.827 0,3.654 0.229,5.652 -0.971,0.171 -1.941,0.286 -2.855,0.514"
           id="path77" />
        <path
           d="m 123.738,322.764 c -0.114,0 -0.228,-0.114 -0.343,-0.172 -2.227,3.94 -0.742,9.078 4.396,15.473 -1.827,-4.567 -1.371,-8.735 1.313,-12.503 l -0.171,-0.114 c -0.342,-0.115 -2.055,-0.971 -5.195,-2.684"
           id="path79" />
        <path
           d="m 211.776,284.683 c 2.056,3.426 4.111,6.794 6.109,10.219 10.333,15.645 18.898,31.459 25.749,47.388 3.711,9.364 7.993,14.217 12.789,14.616"
           id="path81"
           style="fill:none;stroke:#999999;stroke-linecap:round;stroke-linejoin:round" />
        <path
           d="m 146.461,54.825 c 0.172,0.743 -0.399,2.056 -1.599,3.826 -1.256,1.77 -3.653,2.854 -7.25,3.255 -3.54,0.399 -6.109,-0.571 -7.708,-2.855 -1.541,-2.341 -2.455,-3.654 -2.683,-4.054"
           id="path83"
           style="fill:none;stroke:#999999;stroke-linecap:round;stroke-linejoin:round" />
        <path
           d="m 160.449,53.512 c -5.538,1.713 -10.162,2.17 -13.988,1.313"
           id="path85"
           style="fill:none;stroke:#999999;stroke-linecap:round;stroke-linejoin:round" />
        <path
           d="m 146.461,54.825 c -1.541,-0.342 -2.969,-0.914 -4.225,-1.655 -0.856,-0.343 -1.656,-0.685 -2.512,-0.914"
           id="path87"
           style="fill:none;stroke:#999999;stroke-linecap:round;stroke-linejoin:round" />
        <path
           d="m 128.763,54.425 c 0.342,-0.229 0.799,-0.457 1.199,-0.685 0.399,-0.171 0.799,-0.456 1.199,-0.742 2.112,-1.313 4.396,-1.771 6.908,-1.256 0.399,0.114 0.742,0.171 1.143,0.343 0.17,0 0.342,0.114 0.513,0.171"
           id="path89"
           style="fill:none;stroke:#999999;stroke-linecap:round;stroke-linejoin:round" />
        <path
           d="m 139.724,52.256 c -0.286,3.825 -1.884,5.824 -4.853,5.995 -2.968,0.172 -5.024,-1.084 -6.108,-3.825"
           id="path91"
           style="fill:none;stroke:#999999;stroke-linecap:round;stroke-linejoin:round" />
        <path
           d="m 127.221,54.997 c -0.342,0.114 -0.628,0.229 -0.914,0.286 -0.571,0.114 -1.141,0.229 -1.655,0.285 -0.343,0 -0.571,0 -0.857,0 -1.484,0 -2.969,-0.514 -4.282,-1.428"
           id="path93"
           style="fill:none;stroke:#999999;stroke-linecap:round;stroke-linejoin:round" />
        <path
           d="m 127.221,54.997 c 0.457,-0.172 0.971,-0.343 1.542,-0.571"
           id="path95"
           style="fill:none;stroke:#999999;stroke-linecap:round;stroke-linejoin:round" />
        <path
           d="m 100.844,82.973 c 7.593,-0.628 18.897,0.913 33.97,4.795 2.284,0.228 3.996,0.856 5.309,1.941 5.31,4.51 0.743,16.671 -13.703,36.597 -17.812,24.493 -23.465,44.761 -16.957,60.633 6.452,15.814 12.276,25.064 17.414,27.633"
           id="path97"
           style="fill:none;stroke:#999999;stroke-linecap:round;stroke-linejoin:round" />
        <path
           d="m 91.88,85.884 c 0.058,-0.057 0.058,-0.057 0.115,-0.057 h 0.057 c 3.025,-1.085 5.937,-1.999 8.792,-2.854"
           id="path99"
           style="fill:none;stroke:#999999;stroke-linecap:round;stroke-linejoin:round" />
        <path
           d="M 91.766,85.998 C 91.708,85.941 91.708,85.941 91.651,85.941"
           id="path101"
           style="fill:none;stroke:#999999;stroke-linecap:round;stroke-linejoin:round" />
        <path
           d="m 91.88,85.884 c -0.057,0 -0.171,0 -0.229,0.057"
           id="path103"
           style="fill:none;stroke:#999999;stroke-linecap:round;stroke-linejoin:round" />
        <path
           d="m 91.651,85.941 v 0.057 c 0.057,0 0.057,0 0.115,0"
           id="path105"
           style="fill:none;stroke:#999999;stroke-linecap:round;stroke-linejoin:round" />
        <path
           d="m 91.766,85.998 c 0.057,-0.057 0.114,-0.057 0.114,-0.114"
           id="path107"
           style="fill:none;stroke:#999999;stroke-linecap:round;stroke-linejoin:round" />
        <path
           d="m 119.513,54.14 c -11.99,7.308 -19.754,14.274 -23.18,20.84 -3.426,6.565 -4.967,10.162 -4.51,10.905 h 0.057"
           id="path109"
           style="fill:none;stroke:#999999;stroke-linecap:round;stroke-linejoin:round" />
        <path
           d="m 91.88,85.884 c -0.057,0.057 -0.114,0.057 -0.114,0.114"
           id="path111"
           style="fill:none;stroke:#999999;stroke-linecap:round;stroke-linejoin:round" />
        <path
           d="M 91.88,85.884"
           id="path113"
           style="fill:none;stroke:#999999;stroke-linecap:round;stroke-linejoin:round" />
        <path
           d="m 151.828,230.672 c -1.142,-2.227 -1.999,-4.167 -2.569,-5.88 -0.628,-1.713 -2.569,-4.682 -5.938,-8.906 -3.368,-4.226 -4.967,-10.734 -4.853,-19.47 0.115,-8.735 1.713,-16.385 4.853,-22.894"
           id="path115"
           style="fill:none;stroke:#999999;stroke-linecap:round;stroke-linejoin:round" />
        <path
           d="m 140.524,78.177 c -14.559,-0.343 -27.805,1.255 -39.68,4.796"
           id="path117"
           style="fill:none;stroke:#999999;stroke-linecap:round;stroke-linejoin:round" />
        <path
           d="m 186.198,178.089 c 3.197,5.938 6.566,11.761 10.049,17.414"
           id="path119"
           style="fill:none;stroke:#999999;stroke-linecap:round;stroke-linejoin:round" />
        <path
           d="m 178.434,194.818 c 9.021,7.307 14.901,7.536 17.813,0.685"
           id="path121"
           style="fill:none;stroke:#999999;stroke-linecap:round;stroke-linejoin:round" />
        <path
           d="m 196.247,195.503 c 1.826,2.968 3.653,5.88 5.595,8.792"
           id="path123"
           style="fill:none;stroke:#999999;stroke-linecap:round;stroke-linejoin:round" />
        <path
           d="m 223.138,207.265 c -5.538,3.482 -12.618,2.455 -21.296,-2.97"
           id="path125"
           style="fill:none;stroke:#999999;stroke-linecap:round;stroke-linejoin:round" />
        <path
           d="M 223.138,207.265 C 216.229,195.846 209.892,183.971 204.297,171.81"
           id="path127"
           style="fill:none;stroke:#999999;stroke-linecap:round;stroke-linejoin:round" />
        <path
           d="m 290.108,259.619 c -11.875,-12.903 -22.152,-27.405 -31.001,-43.562 l -38.024,-69.54 c -9.82,-15.929 -19.926,-24.493 -30.317,-25.635"
           id="path129"
           style="fill:none;stroke:#999999;stroke-linecap:round;stroke-linejoin:round" />
        <path
           d="m 190.766,120.882 c -13.246,1.256 -23.237,5.709 -30.031,13.188"
           id="path131"
           style="fill:none;stroke:#999999;stroke-linecap:round;stroke-linejoin:round" />
        <path
           d="m 166.33,173.751 c 3.653,7.422 7.708,14.444 12.104,21.067"
           id="path133"
           style="fill:none;stroke:#999999;stroke-linecap:round;stroke-linejoin:round" />
        <path
           d="m 271.096,253.281 c -1.827,-2.512 -3.711,-5.024 -5.539,-7.536"
           id="path135"
           style="fill:none;stroke:#999999;stroke-linecap:round;stroke-linejoin:round" />
        <path
           d="m 297.873,285.482 c -9.364,-10.276 -18.271,-21.01 -26.777,-32.201"
           id="path137"
           style="fill:none;stroke:#999999;stroke-linecap:round;stroke-linejoin:round" />
        <path
           d="m 290.108,259.619 c -0.856,4.682 -7.194,2.569 -19.012,-6.337"
           id="path139"
           style="fill:none;stroke:#999999;stroke-linecap:round;stroke-linejoin:round" />
        <path
           d="m 280.973,280.115 c 6.11,5.881 11.761,7.708 16.9,5.367"
           id="path141"
           style="fill:none;stroke:#999999;stroke-linecap:round;stroke-linejoin:round" />
        <path
           d="m 239.523,231.985 c -2.912,5.253 -10.22,3.197 -21.809,-6.166"
           id="path143"
           style="fill:none;stroke:#999999;stroke-linecap:round;stroke-linejoin:round" />
        <path
           d="m 246.146,240.892 c -2.227,-2.912 -4.453,-5.88 -6.623,-8.907"
           id="path145"
           style="fill:none;stroke:#999999;stroke-linecap:round;stroke-linejoin:round" />
        <path
           d="m 239.523,231.985 c -3.824,-5.252 -7.479,-10.562 -11.019,-16.043"
           id="path147"
           style="fill:none;stroke:#999999;stroke-linecap:round;stroke-linejoin:round" />
        <path
           d="m 247.06,218.283 c -3.825,5.938 -9.934,5.138 -18.555,-2.341"
           id="path149"
           style="fill:none;stroke:#999999;stroke-linecap:round;stroke-linejoin:round" />
        <path
           d="m 217.714,225.82 c 8.335,10.163 17.242,19.64 26.776,28.375"
           id="path151"
           style="fill:none;stroke:#999999;stroke-linecap:round;stroke-linejoin:round" />
        <path
           d="m 228.447,244.774 c 5.139,3.369 10.505,6.509 16.043,9.42"
           id="path153"
           style="fill:none;stroke:#999999;stroke-linecap:round;stroke-linejoin:round" />
        <path
           d="m 194.591,218.283 c -5.024,0.742 -8.165,3.426 -9.421,8.107 -0.342,1.313 -0.114,2.455 0.742,3.483 2.284,2.74 5.196,2.511 8.735,-0.571 0.172,1.542 0.343,3.141 0.514,4.739 0.172,1.656 0,3.026 -0.514,4.168"
           id="path155"
           style="fill:none;stroke:#999999;stroke-linecap:round;stroke-linejoin:round" />
        <path
           d="m 177.349,260.075 c 4.625,-0.171 8.792,-1.37 12.446,-3.54 0.628,-0.399 1.199,-0.799 1.77,-1.199"
           id="path157"
           style="fill:none;stroke:#999999;stroke-linecap:round;stroke-linejoin:round" />
        <path
           d="m 194.647,238.209 c -1.255,2.912 -4.624,3.996 -10.276,3.368 -0.627,0.914 -0.799,2.056 -0.457,3.483 1.142,5.31 5.138,6.451 11.875,3.369 -0.856,2.854 -2.283,5.195 -4.225,6.908"
           id="path159"
           style="fill:none;stroke:#999999;stroke-linecap:round;stroke-linejoin:round" />
        <path
           d="m 177.349,260.075 h -0.057 c -0.971,0.057 -1.941,0.057 -2.912,0 -4.796,-0.286 -8.507,-1.884 -11.076,-4.853"
           id="path161"
           style="fill:none;stroke:#999999;stroke-linecap:round;stroke-linejoin:round" />
        <path
           d="m 238.724,263.444 c -2.854,3.711 -7.879,2.854 -15.13,-2.569"
           id="path163"
           style="fill:none;stroke:#999999;stroke-linecap:round;stroke-linejoin:round" />
        <path
           d="m 229.761,295.588 c -0.971,3.653 -3.997,3.426 -8.964,-0.686 -2.512,-2.34 -5.539,-5.708 -9.021,-10.219"
           id="path165"
           style="fill:none;stroke:#999999;stroke-linecap:round;stroke-linejoin:round" />
        <path
           d="m 229.761,295.588 c -0.115,-0.229 -0.229,-0.457 -0.343,-0.686 -6.167,-12.389 -12.846,-24.606 -20.211,-36.539"
           id="path167"
           style="fill:none;stroke:#999999;stroke-linecap:round;stroke-linejoin:round" />
        <path
           d="m 223.594,260.875 c 6.28,11.362 12.161,22.666 17.584,34.027 1.656,3.141 3.312,6.281 4.91,9.421"
           id="path169"
           style="fill:none;stroke:#999999;stroke-linecap:round;stroke-linejoin:round" />
        <path
           d="m 194.647,238.209 c 8.622,11.704 13.475,18.44 14.559,20.154"
           id="path171"
           style="fill:none;stroke:#999999;stroke-linecap:round;stroke-linejoin:round" />
        <path
           d="m 209.207,258.363 c -4.282,3.483 -10.163,2.512 -17.642,-3.026"
           id="path173"
           style="fill:none;stroke:#999999;stroke-linecap:round;stroke-linejoin:round" />
        <path
           d="m 223.594,260.875 c -2.569,-4.625 -8.279,-13.474 -17.014,-26.606"
           id="path175"
           style="fill:none;stroke:#999999;stroke-linecap:round;stroke-linejoin:round" />
        <path
           d="m 209.207,258.363 c 8.05,4.853 12.846,5.652 14.388,2.512"
           id="path177"
           style="fill:none;stroke:#999999;stroke-linecap:round;stroke-linejoin:round" />
        <path
           d="m 191.565,255.336 c 7.251,9.707 14.045,19.47 20.211,29.346"
           id="path179"
           style="fill:none;stroke:#999999;stroke-linecap:round;stroke-linejoin:round" />
        <path
           d="m 190.766,120.882 c -0.799,-2.969 -1.484,-6.224 -2.055,-9.763 -0.914,-5.481 -1.428,-11.076 -1.485,-16.843 -0.171,-5.48 -0.286,-11.076 -0.457,-16.671 -0.114,-5.138 -0.571,-10.677 -1.313,-16.557 -0.743,-6.052 -2.169,-11.19 -4.282,-15.301 4.111,-1.542 7.822,-4.682 11.076,-9.25 -4.624,1.028 -8.678,0.971 -12.104,-0.171 -4.853,-1.712 -10.049,-3.483 -15.473,-5.424 -5.48,-1.941 -11.019,-2.626 -16.5,-2.055 -5.596,0.571 -10.848,1.713 -15.872,3.483 -5.024,1.77 -9.078,4.51 -12.275,8.222 -3.825,4.396 -3.997,8.963 -0.514,13.587"
           id="path181"
           style="fill:none;stroke:#999999;stroke-linecap:round;stroke-linejoin:round" />
        <path
           d="m 238.724,263.444 c -3.254,-6.167 -6.68,-12.39 -10.277,-18.67"
           id="path183"
           style="fill:none;stroke:#999999;stroke-linecap:round;stroke-linejoin:round" />
        <path
           d="m 189.738,305.921 c 0.399,0.058 0.743,0.058 1.142,0.171 2.626,0.399 4.225,-0.285 4.681,-1.941"
           id="path185"
           style="fill:none;stroke:#999999;stroke-linecap:round;stroke-linejoin:round" />
        <path
           d="m 160.164,333.326 c 0.171,-2.626 0.514,-5.082 1.142,-7.308 1.142,-3.711 2.113,-7.993 2.912,-12.789 0.8,-4.853 3.254,-7.594 7.308,-8.45 4.91,-0.229 8.392,-0.171 10.391,0.057 1.77,0.229 4.396,0.571 7.821,1.084"
           id="path187"
           style="fill:none;stroke:#999999;stroke-linecap:round;stroke-linejoin:round" />
        <path
           d="m 189.738,305.921 c 0.286,0.171 0.514,0.399 0.8,0.628 3.825,3.083 5.081,6.509 3.825,10.277 3.597,-4.854 4.053,-9.078 1.198,-12.675"
           id="path189"
           style="fill:none;stroke:#999999;stroke-linecap:round;stroke-linejoin:round" />
        <path
           d="m 195.561,304.152 c 0.286,-0.914 0.229,-2.056 -0.057,-3.483 -0.913,-4.225 -4.225,-5.881 -9.934,-4.91 -5.709,0.97 -10.448,-0.228 -14.331,-3.654 0.229,-1.37 0.514,-2.627 0.743,-3.768 0.799,-4.111 1.541,-6.852 2.169,-8.279 0.514,-1.313 0.971,-2.683 1.428,-3.997 0.114,-0.57 0.286,-1.142 0.513,-1.713 0.458,-1.941 0.914,-6.737 1.256,-14.273"
           id="path191"
           style="fill:none;stroke:#999999;stroke-linecap:round;stroke-linejoin:round" />
        <path
           d="m 256.423,356.906 c 6.223,11.476 11.59,15.7 16.101,12.732"
           id="path193"
           style="fill:none;stroke:#999999;stroke-linecap:round;stroke-linejoin:round" />
        <path
           d="m 272.523,369.638 c 6.623,8.05 10.562,9.591 11.875,4.568 -4.624,-19.583 -11.646,-39.794 -21.124,-60.577"
           id="path195"
           style="fill:none;stroke:#999999;stroke-linecap:round;stroke-linejoin:round" />
        <path
           d="m 256.423,356.906 c -6.851,-21.181 -15.758,-41.563 -26.662,-61.318"
           id="path197"
           style="fill:none;stroke:#999999;stroke-linecap:round;stroke-linejoin:round" />
        <path
           d="M 272.523,369.638 C 265.957,347.886 257.165,326.19 246.088,304.323"
           id="path199"
           style="fill:none;stroke:#999999;stroke-linecap:round;stroke-linejoin:round" />
        <path
           d="m 263.274,313.629 c -4.111,4.282 -9.82,1.199 -17.186,-9.306"
           id="path201"
           style="fill:none;stroke:#999999;stroke-linecap:round;stroke-linejoin:round" />
        <path
           d="M 280.973,280.115 C 268.356,267.612 256.708,254.594 246.146,240.892"
           id="path203"
           style="fill:none;stroke:#999999;stroke-linecap:round;stroke-linejoin:round" />
        <path
           d="m 246.089,304.323 c -2.968,3.597 -8.392,0.685 -16.328,-8.735"
           id="path205"
           style="fill:none;stroke:#999999;stroke-linecap:round;stroke-linejoin:round" />
        <path
           d="m 265.558,245.746 c -0.685,7.422 -7.136,5.823 -19.412,-4.854"
           id="path207"
           style="fill:none;stroke:#999999;stroke-linecap:round;stroke-linejoin:round" />
        <path
           d="m 265.558,245.746 c -6.68,-9.192 -12.846,-18.384 -18.498,-27.462"
           id="path209"
           style="fill:none;stroke:#999999;stroke-linecap:round;stroke-linejoin:round" />
        <path
           d="m 263.274,313.629 c -2.798,-6.223 -5.824,-12.446 -9.078,-18.727 -4.74,-10.39 -9.878,-20.838 -15.473,-31.458"
           id="path211"
           style="fill:none;stroke:#999999;stroke-linecap:round;stroke-linejoin:round" />
        <path
           d="m 244.49,254.195 c 13.303,14.902 25.464,23.523 36.482,25.92"
           id="path213"
           style="fill:none;stroke:#999999;stroke-linecap:round;stroke-linejoin:round" />
        <path
           d="m 132.416,246.373 c 0.514,0.342 1.142,0.628 1.827,0.914 1.028,0.457 2.227,0.743 3.654,0.914 6.224,0.742 10.848,-0.514 13.931,-3.769 -7.708,0.571 -10.391,-2.626 -7.878,-9.591 0.97,-2.797 3.597,-4.168 7.878,-4.168"
           id="path215"
           style="fill:none;stroke:#999999;stroke-linecap:round;stroke-linejoin:round" />
        <path
           d="m 151.828,230.672 c 1.199,2.17 2.398,4.282 3.768,6.337 2.798,4.111 4.739,8.964 5.823,14.501 0.058,0.457 0.172,0.914 0.229,1.314 0,0 0,0 0.057,0.057 0.457,0.799 0.971,1.599 1.599,2.341"
           id="path217"
           style="fill:none;stroke:#999999;stroke-linecap:round;stroke-linejoin:round" />
        <path
           d="m 126.878,214.572 c 0.514,6.452 -0.799,11.59 -3.882,15.415 -1.485,1.771 -3.483,2.683 -5.995,2.683 0.742,3.825 2.683,5.881 5.767,6.167"
           id="path219"
           style="fill:none;stroke:#999999;stroke-linecap:round;stroke-linejoin:round" />
        <path
           d="m 132.416,246.316 c -2.512,-1.77 -3.768,-4.567 -3.825,-8.507 -0.914,0.286 -1.712,0.571 -2.455,0.743 -0.742,0.171 -1.427,0.285 -2.055,0.285 -0.457,0.057 -0.914,0.057 -1.313,0"
           id="path221"
           style="fill:none;stroke:#999999;stroke-linecap:round;stroke-linejoin:round" />
        <path
           d="m 122.768,238.837 c -3.254,3.483 -5.424,5.652 -6.452,6.508 -0.571,0.457 -1.085,0.914 -1.599,1.37 -1.827,1.428 -3.768,2.741 -5.708,4.111 -2.284,1.485 -4.511,2.854 -6.794,4.054 -1.485,0.742 -2.969,1.428 -4.454,2.113 -2.684,-1.884 -4.567,-3.94 -5.652,-6.109 -0.628,-1.371 -0.97,-2.798 -1.028,-4.226 -0.057,-2.512 -0.628,-4.567 -1.655,-6.223 -2.569,-4.111 -5.938,-5.709 -10.048,-4.854"
           id="path223"
           style="fill:none;stroke:#999999;stroke-linecap:round;stroke-linejoin:round" />
        <path
           d="m 132.416,246.373 v -0.057"
           id="path225"
           style="fill:none;stroke:#999999;stroke-linecap:round;stroke-linejoin:round" />
        <path
           d="m 132.416,246.373 v -0.057"
           id="path227"
           style="fill:none;stroke:#999999;stroke-linecap:round;stroke-linejoin:round" />
        <path
           d="m 122.597,285.368 c 0.742,-0.457 1.484,-1.314 2.169,-2.569 2.056,-3.597 0.743,-6.908 -3.939,-9.82 -4.682,-3.026 -7.308,-6.965 -7.878,-11.933 4.852,-3.654 8.107,-5.938 9.876,-6.794 0.286,-0.114 3.541,-2.741 9.592,-7.879"
           id="path229"
           style="fill:none;stroke:#999999;stroke-linecap:round;stroke-linejoin:round" />
        <path
           d="m 78.463,283.427 c 1.142,-1.199 2.398,-2.227 3.654,-3.14 0.571,-0.514 1.199,-0.914 1.884,-1.313 3.197,-1.999 6.566,-4.396 10.276,-7.308 2.285,-1.827 4.511,-2.684 6.681,-2.569 1.37,0 2.683,0.399 4.053,1.199 h -0.057 c 3.655,3.025 6.167,5.309 7.423,6.737 1.142,1.313 2.797,3.254 4.909,5.823 0.229,0.286 0.457,0.571 0.686,0.914 1.599,1.941 3.197,2.512 4.625,1.599"
           id="path231"
           style="fill:none;stroke:#999999;stroke-linecap:round;stroke-linejoin:round" />
        <path
           d="m 117.458,283.827 c 0.742,4.682 -0.628,7.993 -3.94,9.877 5.709,-1.142 8.792,-3.94 9.078,-8.335"
           id="path233"
           style="fill:none;stroke:#999999;stroke-linecap:round;stroke-linejoin:round" />
        <path
           d="m 125.851,302.953 c -0.285,-2.113 0,-3.939 0.856,-5.538 0.286,-0.571 0.571,-1.085 0.914,-1.542"
           id="path235"
           style="fill:none;stroke:#999999;stroke-linecap:round;stroke-linejoin:round" />
        <path
           d="m 163.304,255.223 c 0.286,8.564 0.286,14.273 0.115,17.071 -0.115,1.77 -0.286,3.597 -0.514,5.367 -0.172,0.685 -0.229,1.427 -0.343,2.169 -0.399,2.341 -0.914,4.739 -1.542,7.137 -0.171,0.971 -0.457,1.941 -0.742,2.854 -1.028,3.425 -2.169,6.623 -3.597,9.706 -0.057,0 -0.171,0 -0.228,0.057 -5.424,0.571 -9.42,-0.514 -12.104,-3.311 -1.771,-1.884 -3.654,-3.141 -5.596,-3.711 -3.768,-1.027 -6.794,-0.628 -9.135,1.199 -0.742,0.571 -1.427,1.256 -1.998,2.112"
           id="path237"
           style="fill:none;stroke:#999999;stroke-linecap:round;stroke-linejoin:round" />
        <path
           d="m 127.62,295.873 c -2.227,0.343 -4.11,1.37 -5.595,3.083 -1.428,1.655 -2.398,4.625 -2.969,9.021 1.313,-1.77 2.512,-3.083 3.598,-3.94 1.198,-0.971 2.283,-1.313 3.197,-1.084"
           id="path239"
           style="fill:none;stroke:#999999;stroke-linecap:round;stroke-linejoin:round" />
        <path
           d="m 151.828,230.672 c -8.907,-4.167 -17.242,-9.535 -24.95,-16.1"
           id="path241"
           style="fill:none;stroke:#999999;stroke-linecap:round;stroke-linejoin:round" />
        <path
           d="m 73.553,239.522 c 1.142,-1.713 2.512,-2.854 4.167,-3.426 0.571,-0.171 1.143,-0.399 1.657,-0.514"
           id="path243"
           style="fill:none;stroke:#999999;stroke-linecap:round;stroke-linejoin:round" />
        <path
           d="m 73.553,239.522 c 4.853,2.113 8.222,4.967 10.106,8.507 0.228,0.399 0.513,0.913 0.685,1.37 0.342,0.799 0.685,1.542 0.913,2.397 0.514,1.371 0.857,2.798 1.085,4.282 -0.799,-0.171 -1.6,-0.342 -2.398,-0.571 -3.483,-0.971 -6.909,-2.512 -10.22,-4.567 -4.567,-2.798 -8.392,-4.111 -11.533,-3.825 -2.112,0.114 -3.254,0.914 -3.426,2.455 -0.114,0.628 0,1.428 0.286,2.341 v 0.057"
           id="path245"
           style="fill:none;stroke:#999999;stroke-linecap:round;stroke-linejoin:round" />
        <path
           d="m 61.335,257.735 c -0.114,0 -0.114,-0.057 -0.114,-0.114 -0.172,-0.285 -0.857,-2.056 -1.998,-5.31 -0.058,-0.114 -0.115,-0.229 -0.172,-0.343"
           id="path247"
           style="fill:none;stroke:#999999;stroke-linecap:round;stroke-linejoin:round" />
        <path
           d="m 59.051,251.968 -0.057,-0.057 c -4.11,1.427 -6.394,6.109 -6.737,13.988 1.599,-4.396 4.567,-7.137 8.964,-8.165 0.058,0 0.058,0 0.114,0"
           id="path249"
           style="fill:none;stroke:#999999;stroke-linecap:round;stroke-linejoin:round" />
        <path
           d="m 61.335,257.735 c 0.686,0.342 3.312,0.799 7.879,1.542 5.082,0.856 9.078,1.941 11.933,3.426 0.057,0 0.057,0 0.114,0.057 2.797,1.427 4.91,2.284 6.224,2.626 -3.369,2.512 -6.566,4.682 -9.535,6.508 -1.371,0.856 -2.741,1.599 -3.997,2.341 -0.058,0.057 -0.171,0.114 -0.229,0.171 -0.913,0.514 -1.655,1.142 -2.398,1.941 -0.799,0.914 -1.484,2.056 -2.055,3.312 -1.085,2.227 -0.171,4.282 2.798,6.109"
           id="path251"
           style="fill:none;stroke:#999999;stroke-linecap:round;stroke-linejoin:round" />
        <path
           d="m 72.069,285.768 c -0.057,0.114 -0.057,0.229 -0.115,0.342 -0.913,4.625 1.028,7.936 5.766,9.763 -1.655,-4.282 -1.427,-8.45 0.743,-12.446"
           id="path253"
           style="fill:none;stroke:#999999;stroke-linecap:round;stroke-linejoin:round" />
        <path
           d="m 78.463,283.427 c -1.198,1.256 -2.397,2.626 -3.54,4.168 -0.742,-0.514 -1.542,-1.027 -2.341,-1.485 -0.171,-0.114 -0.342,-0.229 -0.513,-0.342"
           id="path255"
           style="fill:none;stroke:#999999;stroke-linecap:round;stroke-linejoin:round" />
        <path
           d="m 79.377,235.582 c -4.226,-2.797 -9.421,-1.655 -15.473,3.426 5.367,-1.256 8.564,-1.084 9.649,0.514"
           id="path257"
           style="fill:none;stroke:#999999;stroke-linecap:round;stroke-linejoin:round" />
        <path
           d="m 125.851,302.953 c 5.88,-1.941 10.962,-1.941 15.187,0.057 1.485,0.628 2.913,1.428 4.226,2.34 0.628,0.4 1.313,0.857 1.998,1.428 -3.94,2.341 -8.393,3.939 -13.36,4.853 -5.424,0.97 -9.306,2.627 -11.533,5.024 -2.17,2.283 -1.827,4.225 1.027,5.937"
           id="path259"
           style="fill:none;stroke:#999999;stroke-linecap:round;stroke-linejoin:round" />
        <path
           d="m 129.162,325.447 c 0.742,-0.228 3.083,-1.656 7.079,-4.225 4.568,-2.968 8.45,-4.91 11.647,-5.709 3.254,-0.855 5.424,-1.598 6.737,-2.34 -1.313,6.224 -2.741,11.647 -4.225,16.214 -0.8,2.341 -0.8,4.853 0.057,7.479 0.799,2.456 2.912,3.369 6.451,2.741"
           id="path261"
           style="fill:none;stroke:#999999;stroke-linecap:round;stroke-linejoin:round" />
        <path
           d="m 156.909,339.606 c 0.229,-0.057 0.399,-0.057 0.628,-0.114 0.914,-0.228 1.884,-0.343 2.855,-0.514 -0.229,-1.998 -0.229,-3.825 -0.229,-5.652"
           id="path263"
           style="fill:none;stroke:#999999;stroke-linecap:round;stroke-linejoin:round" />
        <path
           d="m 156.909,339.606 c 0.057,0.057 0.057,0.114 0.114,0.229 0,0.057 0,0.057 0,0.057 2.57,4.225 6.396,5.481 11.305,3.597 -4.282,-2.169 -7.022,-5.595 -8.165,-10.163"
           id="path265"
           style="fill:none;stroke:#999999;stroke-linecap:round;stroke-linejoin:round" />
        <path
           d="m 129.162,325.447 c -0.114,0 -0.172,0 -0.228,0 -0.343,-0.114 -2.056,-0.97 -5.196,-2.683 -0.114,0 -0.228,-0.114 -0.343,-0.172"
           id="path267"
           style="fill:none;stroke:#999999;stroke-linecap:round;stroke-linejoin:round" />
        <path
           d="m 123.396,322.592 c -2.227,3.94 -0.742,9.078 4.396,15.473 -1.827,-4.567 -1.371,-8.735 1.313,-12.503 0,-0.057 0,-0.057 0.057,-0.114"
           id="path269"
           style="fill:none;stroke:#999999;stroke-linecap:round;stroke-linejoin:round" />
        <path
           d="m 219.142,167.699 c 8.334,17.299 17.642,34.141 27.918,50.584"
           id="path271"
           style="fill:none;stroke:#999999;stroke-linecap:round;stroke-linejoin:round" />
        <path
           d="m 228.504,215.942 c -1.827,-2.854 -3.654,-5.709 -5.367,-8.678"
           id="path273"
           style="fill:none;stroke:#999999;stroke-linecap:round;stroke-linejoin:round" />
        <path
           d="m 228.447,244.774 c -20.04,-13.188 -36.71,-29.802 -50.014,-49.956"
           id="path275"
           style="fill:none;stroke:#999999;stroke-linecap:round;stroke-linejoin:round" />
        <path
           d="m 201.842,204.295 c 5.024,7.48 10.334,14.673 15.872,21.525"
           id="path277"
           style="fill:none;stroke:#999999;stroke-linecap:round;stroke-linejoin:round" />
        <path
           d="m 297.873,285.482 c 10.105,3.197 17.299,3.369 21.467,0.514 -10.562,-7.879 -20.325,-16.672 -29.232,-26.377"
           id="path279"
           style="fill:none;stroke:#999999;stroke-linecap:round;stroke-linejoin:round" />
      </g>
    </g>
  </g>
  <g
     id="layer2"
     style="display:inline" />
  <g
     id="layer3"
     style="display:inline">
    <path
       d="m 1.5,1.5 0,458.8679 C 1.5,626.67854 135.81454,761.5 301.49993,761.5 467.1854,761.5 601.5,626.67854 601.5,460.3679 L 601.5,1.5 1.5,1.5 z"
       id="path2346"
       style="fill:url(#radialGradient3236);fill-opacity:1" />
  </g>
  <g
     id="layer4"
     style="display:inline">
    <path
       d="m 1.5,1.5 0,458.86794 C 1.5,626.67854 135.81454,761.5 301.49993,761.5 467.1854,761.5 601.5,626.67854 601.5,460.36794 L 601.5,1.5 1.5,1.5 z"
       id="path3239"
       style="fill:none;stroke:#000000;stroke-width:3;stroke-miterlimit:4;stroke-opacity:1;stroke-dasharray:none" />
  </g>
</svg>
