<?xml version="1.0" encoding="UTF-8"?>
<svg version="1.0" viewBox="0 0 204.48 239.51" xmlns="http://www.w3.org/2000/svg" xmlns:cc="http://creativecommons.org/ns#" xmlns:dc="http://purl.org/dc/elements/1.1/" xmlns:rdf="http://www.w3.org/1999/02/22-rdf-syntax-ns#">
<metadata>
<rdf:RDF>
<cc:Work rdf:about="">
<dc:format>image/svg+xml</dc:format>
<dc:type rdf:resource="http://purl.org/dc/dcmitype/StillImage"/>
</cc:Work>
</rdf:RDF>
</metadata>
<g transform="translate(-25.837 -808.12)" fill-rule="evenodd" stroke="#000">
<path d="m26.837 809.12 3.6814 154.66c2.6296 110.47 192.49 110.47 195.12 0l3.6814-154.66h-202.48z" fill="#216bc6" stroke-width="2"/>
<path transform="translate(0 804.33)" d="m43.378 62.882c29.234-49.657 112.69-55.482 148.01-15.442 37.861 42.958-5.6438 95.849-54.848 99.377-4.5464 0.32431-4.9189 4.9839-4.6452 14.107l-7.8814 0.35267c0-7.8696-0.24674-17.608-8.5906-17.427-6.8071 0.14757-5.8088-10.104 0.24937-9.7286 24.882 1.5424 75.652-27.821 48.522-70.637-27.059-42.703-103.25-13.158-120.82-0.60204z" fill="#fff" stroke-width="1px"/>
<path transform="translate(0 804.33)" d="m136.16 218.61c0 4.9735-4.0039 8.9774-8.9774 8.9774s-8.9774-4.0039-8.9774-8.9774l1.1222-56.424h15.71l1.1222 56.424z" color="#000000" fill="#ffef31" stroke-width="1px"/>
<rect transform="translate(0 804.33)" x="114.71" y="153.02" width="24.439" height="10.474" ry="5.2368" color="#000000" fill="#ffef31" stroke-width="1px"/>
</g>
</svg>
