<?xml version="1.0" encoding="UTF-8" standalone="no"?>
<svg
   xmlns:dc="http://purl.org/dc/elements/1.1/"
   xmlns:cc="http://creativecommons.org/ns#"
   xmlns:rdf="http://www.w3.org/1999/02/22-rdf-syntax-ns#"
   xmlns:svg="http://www.w3.org/2000/svg"
   xmlns="http://www.w3.org/2000/svg"
   xmlns:xlink="http://www.w3.org/1999/xlink"
   xmlns:sodipodi="http://sodipodi.sourceforge.net/DTD/sodipodi-0.dtd"
   xmlns:inkscape="http://www.inkscape.org/namespaces/inkscape"
   version="1.0"
   width="603"
   height="763"
   id="svg20"
   sodipodi:docname="2137.svg">
  <sodipodi:namedview
     pagecolor="#ffffff"
     bordercolor="#666666"
     borderopacity="1"
     objecttolerance="10"
     gridtolerance="10"
     guidetolerance="10"
     inkscape:pageopacity="0"
     inkscape:pageshadow="2"
     inkscape:window-width="640"
     inkscape:window-height="480"
     id="namedview51" />
  <desc
     id="desc22">Coat of Arms of Canton of Freiburg (Fribourg)</desc>
  <metadata
     id="metadata31">
    <rdf:RDF>
      <cc:Work
         rdf:about="">
        <dc:format>image/svg+xml</dc:format>
        <dc:type
           rdf:resource="http://purl.org/dc/dcmitype/StillImage" />
        <dc:date>07-AUG-2006</dc:date>
        <dc:creator>
          <cc:Agent>
            <dc:title>Jérôme BLUM (wagner51)</dc:title>
          </cc:Agent>
        </dc:creator>
        <cc:license
           rdf:resource="http://creativecommons.org/licenses/GPL/2.0/" />
        <dc:coverage />
        <dc:description>Gabarit pour le Projet:Blasons de WIkipédia</dc:description>
        <dc:subject>
          <rdf:Bag>
            <rdf:li>blason suisse modèle gabarit projet blasons</rdf:li>
          </rdf:Bag>
        </dc:subject>
        <dc:language>fr</dc:language>
        <dc:title />
      </cc:Work>
      <cc:License
         rdf:about="http://creativecommons.org/licenses/GPL/2.0/">
        <cc:permits
           rdf:resource="http://web.resource.org/cc/Reproduction" />
        <cc:permits
           rdf:resource="http://web.resource.org/cc/Distribution" />
        <cc:requires
           rdf:resource="http://web.resource.org/cc/Notice" />
        <cc:permits
           rdf:resource="http://web.resource.org/cc/DerivativeWorks" />
        <cc:requires
           rdf:resource="http://web.resource.org/cc/ShareAlike" />
        <cc:requires
           rdf:resource="http://web.resource.org/cc/SourceCode" />
      </cc:License>
    </rdf:RDF>
  </metadata>
  <defs
     id="defs29">
    <linearGradient
       id="linearGradient2893">
      <stop
         id="stop2895"
         style="stop-color:#ffffff;stop-opacity:0.3137255"
         offset="0" />
      <stop
         id="stop2897"
         style="stop-color:#ffffff;stop-opacity:0.25098041"
         offset="0.19" />
      <stop
         id="stop2901"
         style="stop-color:#6b6b6b;stop-opacity:0.1254902"
         offset="0.60000002" />
      <stop
         id="stop2899"
         style="stop-color:#000000;stop-opacity:0.1254902"
         offset="1" />
    </linearGradient>
    <radialGradient
       cx="858.04236"
       cy="579.93323"
       r="300"
       fx="858.04236"
       fy="579.93323"
       id="radialGradient3236"
       xlink:href="#linearGradient2893"
       gradientUnits="userSpaceOnUse"
       gradientTransform="matrix(1.215027,0,0,1.266667,-839.1924,-490.4894)" />
  </defs>
  <g
     id="layer1"
     style="display:inline">
    <path
       d="m 1.5,1.49998 0,458.86792 C 1.5,626.6785 135.81456,761.5 301.49999,761.5 467.18543,761.5 601.5,626.6785 601.5,460.3679 l 0,-458.86792 -600,0 z"
       id="path1899"
       style="fill:#e20909;fill-opacity:1" />
    <g
       transform="translate(0,-0.501951)"
       id="layer3-1"
       style="display:inline">
      <g
         id="g5810">
        <path
           d="m 1.5,100.78125 540.62163,539.56788 c 38.72521,-53.42261 45.17842,-83.74487 56.12861,-131.52263 L 93.71875,2.1875 1.5,2.1875 z"
           id="path2855"
           style="fill:#ffffff;fill-opacity:1;fill-rule:evenodd;stroke:#000000;stroke-width:3;stroke-linecap:butt;stroke-linejoin:miter;stroke-miterlimit:4;stroke-opacity:1;stroke-dasharray:none" />
        <rect
           width="600"
           height="660"
           x="0"
           y="3.375078e-014"
           id="rect4923"
           style="fill:none;stroke:none" />
      </g>
    </g>
  </g>
  <g
     id="layer2"
     style="display:inline">
    <path
       d=""
       id="path3027"
       style="fill:#5ab532;fill-opacity:1;stroke:none" />
    <g
       transform="matrix(1.7372908,0,0,1.4563573,-165.77958,-19.053975)"
       id="g22331"
       style="display:inline">
      <path
         d="m 320.39192,268.08327 c -0.84972,2.475 -3.01977,6.075 -4.82233,8 -1.80256,1.925 -3.69129,4.2876 -4.19719,5.25023 -1.45437,2.76739 -14.41428,15.81291 -16.73837,16.84893 -1.15592,0.51528 -4.17773,2.22951 -6.71512,3.80941 -2.53739,1.57989 -6.13739,3.20332 -8,3.60761 -3.20844,0.69642 -4.83702,1.96879 -4.87125,3.80578 -0.008,0.45207 2.57219,0.50579 5.73469,0.11937 4.76346,-0.58204 7.09662,-1.64758 13.59867,-6.21037 4.31677,-3.02928 11.36742,-9.0455 15.66811,-13.36937 4.3007,-4.32388 8.08129,-7.86159 8.40133,-7.86159 1.35268,0 0.41955,9.73133 -1.59941,16.67982 -3.09924,10.66633 -8.05262,15.94689 -20.54604,21.9031 -6.72875,3.20792 -11.75955,4.85475 -17.2953,5.66159 -7.62493,1.11135 -7.81759,1.20894 -8.28466,4.19665 -0.6858,4.38687 0.36534,4.93846 7.13765,3.74554 7.76075,-1.36703 20.02521,-8.4524 27.19179,-15.70912 2.97525,-3.01267 5.76241,-5.47758 6.1937,-5.47758 2.68742,0 -1.69071,21.7914 -5.3,26.37987 -1.0238,1.30154 -3.56118,3.16875 -5.63864,4.14936 -2.07746,0.98061 -5.3614,2.77813 -7.29765,3.99449 -3.99618,2.5104 -15.8715,5.47628 -21.92695,5.47628 -2.22894,0 -4.05261,0.4132 -4.05261,0.91821 0,0.50502 -0.28234,1.65398 -0.62742,2.55325 -0.56104,1.46205 0.20602,1.56271 7.25001,0.95149 8.32815,-0.72266 14.97303,-3.59613 25.62742,-11.08216 l 4.75,-3.33746 0,3.53045 c 0,7.48078 -5.1474,15.36022 -13.8355,21.17884 -8.34011,5.58556 -10.5507,6.28738 -19.80406,6.28738 -8.10739,0 -8.44503,0.0923 -9.3852,2.5651 -1.34232,3.53056 -1.41815,3.43723 2.77475,3.41517 4.91404,-0.0259 19.58321,-5.23429 23.7996,-8.4503 5.86672,-4.47476 7.56706,-3.08415 5.46562,4.47003 -1.26906,4.56198 -10.28001,13.95272 -16.01521,16.69022 -2.475,1.18135 -8.09248,2.74683 -12.48328,3.47884 -8.98415,1.49779 -7.72301,-0.11711 -10.41057,13.33093 -0.54958,2.75 -1.50552,11.75 -2.12431,20 -0.6188,8.25 -1.54614,18.88891 -2.06078,23.64202 -0.64113,5.92143 -0.58928,10.17137 0.1647,13.5 1.56711,6.91845 0.23537,9.65773 -6.29718,12.95272 -2.90872,1.46715 -5.51359,2.96129 -5.78859,3.32031 -0.275,0.35902 -2.57134,2.32501 -5.10299,4.36886 -7.95199,6.4198 -7.89701,6.52943 -7.89701,-15.74567 0,-25.78097 3.21711,-51.61727 9.01393,-72.39003 l 2.05158,-7.35178 -5.78275,-6.44184 c -13.3116,-14.82879 -14.80647,-18.02236 -16.46417,-35.17329 -0.8244,-8.5295 -0.80374,-12.28747 0.0838,-15.25 0.64782,-2.16221 1.5771,-3.93129 2.06508,-3.93129 0.95468,0 6.03248,10.12246 6.03248,12.02559 0,1.89512 7.06878,14.15355 10.91364,18.92605 1.9725,2.44839 5.02861,6.46847 6.79135,8.93349 l 3.20499,4.48185 1.04501,-2.74859 c 1.66604,-4.382 1.37342,-5.03752 -5.01617,-11.23728 -6.81555,-6.61307 -13.53127,-17.00276 -18.66827,-28.88111 -2.8997,-6.705 -3.54635,-9.5646 -3.99477,-17.66546 -0.63773,-11.52076 0.0545,-15.63524 2.31493,-13.75926 1.58443,1.31496 5.40929,9.03132 5.40929,10.91283 0,2.67022 17.09843,26.23403 22.07384,30.42057 3.74288,3.14942 4.8961,2.51444 5.5167,-3.0376 0.41412,-3.70481 0.1711,-4.08583 -5.65809,-8.87108 -12.2893,-10.08841 -18.68974,-17.02135 -22.35666,-24.21665 -3.23801,-6.35368 -3.56915,-7.76114 -3.5055,-14.89991 0.0387,-4.33589 0.4156,-8.7666 0.83766,-9.84602 0.73096,-1.86947 0.84111,-1.84574 2.32155,0.5 0.8548,1.35442 2.13932,4.1392 2.85449,6.1884 0.71517,2.0492 2.22634,4.6447 3.35816,5.76776 3.05651,3.03288 15.61973,13.0057 16.39061,13.01105 0.36698,0.003 2.04366,1.29489 3.72594,2.87189 1.68228,1.577 4.04478,3.18024 5.25,3.56276 1.96032,0.62219 2.1913,0.33888 2.1913,-2.68775 0,-2.94867 -0.54591,-3.6821 -4.25,-5.70984 -8.13108,-4.45124 -23.38587,-19.96018 -28.95682,-29.43925 l -4.05376,-6.89757 0.49397,-8.66345 c 0.27168,-4.7649 1.03754,-9.67914 1.70192,-10.92054 1.15567,-2.15939 1.3836,-1.96199 5.2662,4.56102 2.75898,4.63526 8.25871,10.9142 17.17837,19.61224 16.28646,15.88181 16.56704,16.06134 16.78679,10.74104 0.0917,-2.21935 0.20417,-4.65176 0.25,-5.40536 0.078,-1.28178 -2.70889,-3.85349 -12.06088,-11.12982 -6.26594,-4.87522 -22.33927,-20.7452 -24.42524,-24.11622 -3.85596,-6.2314 -6.11148,-15.39144 -5.42637,-22.03738 0.3489,-3.38449 1.21853,-6.9525 1.9325,-7.92892 1.19078,-1.62848 1.50424,-1.45037 3.79014,2.1536 1.3706,2.16091 3.65289,5.95392 5.07176,8.42892 1.41886,2.475 6.02677,8.1 10.23978,12.5 4.21301,4.4 9.4563,9.9221 11.65176,12.27134 3.84807,4.11761 9.50782,7.86405 10.45274,6.91913 0.25135,-0.25134 0.15642,-2.64703 -0.21096,-5.32373 -0.61119,-4.45317 -1.10249,-5.16417 -5.78141,-8.36674 -2.8124,-1.925 -8.04678,-6.43251 -11.63197,-10.01669 -7.77845,-7.77627 -21.05958,-25.80376 -23.32952,-31.66695 -3.63653,-9.39307 -3.01545,-24.11116 0.85169,-20.18302 0.74,0.75166 1.93357,2.49277 2.65238,3.86912 0.71881,1.37636 3.93979,6.40555 7.15774,11.17599 4.80706,7.12624 7.83652,10.24767 16.98201,17.49754 6.12216,4.85321 11.4768,8.97401 11.89919,9.15734 0.4224,0.18334 0.76799,-1.91926 0.76799,-4.67244 0,-4.89894 -0.08,-5.03206 -3.75,-6.23686 -4.43905,-1.45728 -9.96052,-4.85117 -12.75,-7.83707 -1.1,-1.17745 -3.25598,-3.34456 -4.79106,-4.81578 -3.80304,-3.64483 -13.3826,-18.34926 -17.02525,-26.13343 -2.40724,-5.14414 -2.99317,-7.75206 -3.03456,-13.50642 -0.0534,-7.43312 1.72764,-15.63132 3.39597,-15.63132 1.23242,0 8.91133,12.08479 11.43755,18 4.61461,10.8052 13.88484,22.04968 22.26735,27.00954 l 3.25,1.923 0,-5.95867 c 0,-6.31131 0.1183,-6.08502 -8.05803,-15.41417 -1.95692,-2.23283 -4.43192,-5.23403 -5.5,-6.66933 -11.14528,-14.97714 -14.75153,-19.75747 -16.51395,-21.89037 -6.46293,-7.82149 -11.09894,-29.92223 -6.83012,-32.5605 0.51921,-0.32089 1.57055,0.91145 2.33632,2.73853 1.47946,3.52991 9.8764,13.90985 19.51779,24.12704 3.21519,3.40721 6.77632,7.31993 7.91363,8.69493 l 2.06782,2.5 0.0333,-3.25 c 0.0183,-1.7875 -0.38373,-3.25 -0.8934,-3.25 -0.50967,0 -1.07217,-0.61022 -1.25,-1.35604 -0.17783,-0.74583 -3.26029,-3.83872 -6.84992,-6.8731 -14.97885,-12.6619 -28.50091,-43.971498 -22.29566,-51.624388 l 1.90832,-2.35351 3.84284,7.35351 c 2.11357,4.04444 4.6817,8.42671 5.70697,9.73838 1.02527,1.31167 1.86412,2.75419 1.86412,3.20559 0,2.63464 11.55688,15.686018 12.7942,14.448698 0.97787,-0.97788 -0.97968,-9.53915 -2.18116,-9.53915 -2.23914,0 -5.40317,-4.304108 -9.93033,-13.508468 -3.44063,-6.9953 -4.563,-10.54562 -5.05545,-15.99153 -0.34813,-3.849997 -0.91556,-8.687497 -1.26096,-10.749997 -0.54086,-3.22975 -0.36704,-3.74788 1.25286,-3.73469 2.57555,0.02097 3.40898,0.70832 8.05641,6.64432 3.69871,4.72422 4.14033,5.94511 5.23335,14.467997 0.65656,5.1196 1.43908,9.54777 1.73892,9.84037 0.29984,0.2926 0.16877,-2.168 -0.29127,-5.468 -1.73056,-12.413737 0.29781,-34.218127 3.2755,-35.210687 1.24856,-0.41619 2.22051,1.48722 3.42673,6.71069 0.44452,1.925 1.27741,5.3 1.85086,7.5 1.70935,6.55784 1.29033,15.016037 -1.05398,21.274977 -1.17938,3.14876 -2.31815,7.75002 -2.53061,10.22502 l -0.38629,4.5 1.90065,-5 c 1.04536,-2.75 2.61102,-6.8 3.47924,-9 0.86821,-2.2 1.86182,-7.03102 2.20801,-10.73561 0.38734,-4.144987 1.30684,-7.572167 2.3907,-8.910677 l 1.76126,-2.17507 2.28363,2.28362 c 8.28403,8.284027 5.78703,34.892877 -4.57141,48.714365 -1.75016,2.33527 -2.16805,3.75146 -1.57781,5.34703 l 0.80288,2.1704 3.23589,-2.72281 c 1.77973,-1.49755 4.05839,-4.35372 5.0637,-6.34703 2.60324,-5.16175 5.08449,-15.867638 5.08449,-21.938108 0,-2.85236 0.37007,-5.18611 0.82237,-5.18611 0.4523,0 2.12831,1.9125 3.72446,4.25 2.70091,3.95538 2.90386,4.91698 2.92763,13.871478 0.025,9.43343 -0.0598,9.78526 -4.33848,18.00001 -2.40021,4.60819 -5.55021,9.66375 -7,11.23458 -1.44979,1.57083 -3.64849,3.95379 -4.88599,5.29546 -2.1735,2.35645 -2.91056,5.35458 -1.63095,6.63419 0.7756,0.7756 2.16772,-0.69179 5.48894,-5.78571 7.82995,-12.00924 15.89202,-27.97484 15.89202,-31.47155 0,-2.94901 1.71305,-2.48404 3.48703,0.94647 2.74929,5.31653 2.94339,13.63803 0.53641,22.99597 -1.78647,6.94551 -3.18334,9.8267 -7.75716,16 -3.06809,4.14101 -7.02238,8.87911 -8.78731,10.52911 -4.27428,3.99593 -6.41329,8.39282 -5.75591,11.83169 l 0.53445,2.79576 3.00327,-2.81372 c 6.16192,-5.77305 17.3019,-19.96818 19.08134,-24.31441 3.91121,-9.55302 6.67509,-14.99932 7.61183,-14.99932 4.06477,0 3.9844,20.55483 -0.11768,30.09731 -1.32339,3.07852 -3.11569,6.67852 -3.98291,8 -1.75883,2.68013 -11.60109,13.90638 -18.492,21.09227 -3.76664,3.92788 -4.44546,5.2273 -4.17922,8 l 0.31786,3.31041 3.5,-3.54301 c 8.84053,-8.94916 26.53946,-36.00158 28.39764,-43.40517 0.7289,-2.90417 1.80393,-3.21879 3.6007,-1.05381 0.898,1.08203 1.1224,4.90024 0.8081,13.75 -0.41829,11.77784 -0.58516,12.56159 -4.31192,20.25199 -6.0501,12.48474 -12.74522,21.45875 -20.54716,27.54104 -5.57224,4.34404 -6.94736,5.95552 -6.94736,8.14147 l 0,2.72541 3.75,-2.20396 c 4.87736,-2.86653 20.86457,-19.19541 23.20798,-23.70396 1.00055,-1.925 2.39056,-5.4125 3.08889,-7.75 0.69834,-2.3375 1.59338,-4.25 1.98897,-4.25 2.99629,0 5.30181,10.05454 4.78486,20.86708 -0.40303,8.42977 -0.64048,9.22571 -4.37344,14.66037 -4.40919,6.41916 -15.10032,16.61335 -20.44726,19.49684 -5.82213,3.13976 -10,7.46694 -10,10.3574 0,1.44007 0.27864,2.61831 0.61919,2.61831 0.34055,0 3.1816,-1.55658 6.31345,-3.45908 8.32586,-5.05769 23.02195,-20.64898 26.63077,-28.25296 1.61512,-3.40315 3.16159,-6.19583 3.43659,-6.20595 0.275,-0.0101 1.39746,0.6598 2.49435,1.48871 1.63131,1.23276 2.05963,2.94456 2.35295,9.40346 0.30639,6.74687 8.2e-4,8.67001 -2.09913,13.21108 -4.94046,10.68355 -21.38956,28.85471 -29.63249,32.73473 -6.84539,3.22218 -10.10305,5.58421 -10.10936,7.33001 -0.009,2.37841 0.79914,2.23991 8.14106,-1.3959 12.83261,-6.35489 25.28314,-18.92082 30.32302,-30.6041 1.00834,-2.3375 2.17098,-4.25 2.58365,-4.25 2.94359,0 3.8315,15.64258 1.30552,23 z"
         id="path19662"
         style="fill:#5ab532;fill-opacity:1" />
      <path
         d="m 317.10333,256.73457 c -3.91802,6.4255 -12.283,15.32833 -19.58916,20.8487 -4.07359,3.07791 -16.99543,9.44856 -19.23182,9.48156 -0.83716,0.0124 -1.25451,1.75236 -1.26365,5.26844 -0.008,2.8875 -0.285,6.2625 -0.61663,7.5 -0.97001,3.61956 2.89124,2.84926 11.65334,-2.32479 7.29466,-4.30752 10.55824,-7.38938 23.55272,-22.24125 4.10998,-4.69745 7.34215,-12.65291 7.38784,-18.18396 l 0.0289,-3.5 -1.92154,3.1513 z"
         id="path21454"
         style="fill:#5ab532;fill-opacity:1" />
      <path
         d="m 316.123,223.6393 c -0.50014,-0.30911 -1.92417,1.57684 -3.1645,4.19098 -3.22106,6.78872 -22.82065,26.19705 -29.63516,29.34596 l -5.20901,2.40703 -0.041,7.61399 -0.041,7.61399 4.29225,-2.17301 c 6.83189,-3.45875 12.77819,-7.9416 18.86205,-14.21993 5.59927,-5.77825 13.43123,-17.51185 14.90823,-22.33504 1.08897,-3.55608 1.10755,-11.77685 0.0281,-12.44397 z"
         id="path21452"
         style="fill:#5ab532;fill-opacity:1" />
      <path
         d="m 310.07292,295.18105 c -15.52053,14.06936 -19.64655,16.60125 -28.53832,17.51224 -6.73639,0.69016 -6.96724,0.89735 -8.97588,8.05582 -0.87347,3.11292 0.31263,3.40148 7.66144,1.86391 10.14711,-2.12305 23.16653,-9.18719 28.35891,-15.38712 2.34144,-2.79579 7.00585,-13.28643 7.35626,-16.54485 0.0534,-0.49622 -2.58472,1.52878 -5.86241,4.5 z"
         id="path21450"
         style="fill:#5ab532;fill-opacity:1" />
      <path
         d="m 309.08869,197.61809 c -0.51902,-0.32077 -2.16267,1.56517 -3.65256,4.19098 -3.60683,6.35676 -17.58592,20.52785 -24.21806,24.55071 -5.16858,3.13512 -5.29457,3.31944 -4.59537,6.72349 0.3954,1.925 0.98683,5.22232 1.31428,7.32737 l 0.59537,3.82737 8,-5.69179 c 4.4,-3.13048 9.51873,-7.1028 11.37496,-8.82737 3.57462,-3.32108 10.18413,-12.77961 11.27536,-16.13558 1.02374,-3.14843 0.9521,-15.31867 -0.094,-15.96518 z"
         id="path21448"
         style="fill:#5ab532;fill-opacity:1" />
      <path
         d="m 305.28235,323.29385 c -7.97409,7.69016 -19.75204,13.63141 -28.67471,14.46462 -6.08524,0.56825 -6.54076,0.78698 -7.52629,3.61405 -1.73615,4.98032 -1.35601,8.71075 0.88765,8.71075 4.2956,0 17.97435,-3.92698 23.58877,-6.77201 7.69042,-3.897 10.09951,-6.57439 12.93107,-14.37114 3.25266,-8.95626 3.0772,-9.77743 -1.20649,-5.64627 z"
         id="path21446"
         style="fill:#5ab532;fill-opacity:1" />
      <path
         d="m 304.60835,161.08328 c -0.23321,0 -1.69571,2.56548 -3.25,5.70106 -1.5543,3.13558 -3.42379,6.39807 -4.15443,7.24999 -2.04492,2.38437 -12.54917,17.17887 -14.58996,20.54894 -0.99918,1.65 -3.68913,4.56849 -5.97766,6.48552 l -4.16097,3.48553 0.97599,4.76447 c 1.27131,6.20612 3.12046,6.20887 9.75171,0.0145 7.81751,-7.30251 17.02946,-22.07409 20.42377,-32.75 1.18404,-3.72409 1.92976,-15.49999 0.98155,-15.49999 z"
         id="path21444"
         style="fill:#5ab532;fill-opacity:1" />
      <path
         d="m 296.78235,352.42252 c -7.18317,5.39518 -12.8826,7.46984 -22.48191,8.18369 l -9.23192,0.68652 -1.01251,3.64527 c -1.67938,6.04615 -1.59457,6.14578 5.22633,6.13969 11.50293,-0.0103 17.9577,-3.37668 26.45044,-13.79495 5.1147,-6.27433 5.5372,-8.23082 1.04957,-4.86022 z"
         id="path21442"
         style="fill:#5ab532;fill-opacity:1" />
      <path
         d="m 296.50055,139.52441 c -0.80751,1.06762 -1.4682,2.91732 -1.4682,4.11045 0,3.25911 -6.4334,12.0167 -21.83336,29.72109 -3.16938,3.64364 -4.18034,5.55199 -3.76366,7.10456 0.31335,1.16752 0.57586,3.4387 0.58337,5.04707 l 0.0136,2.92432 2.63789,-2.42432 c 2.40477,-2.21007 20.35627,-22.65332 20.36647,-23.19343 0.002,-0.12698 1.1179,-3.38087 2.47891,-7.23087 2.88412,-8.1586 3.57902,-19.48856 0.98493,-16.05887 z"
         id="path21440"
         style="fill:#5ab532;fill-opacity:1" />
      <path
         d="m 290.14736,373.08327 c -0.48674,0 -1.55264,1.0125 -2.36865,2.25 -1.8549,2.813 -13.37587,6.82699 -21.95891,7.65064 l -6.24577,0.59936 -1.18417,5.34396 c -1.16301,5.24853 -1.14552,5.3329 0.97916,4.72439 1.18983,-0.34076 4.41332,-0.90128 7.16332,-1.24559 2.75,-0.34432 6.0732,-1.45779 7.38487,-2.47439 1.31167,-1.0166 2.95931,-1.84837 3.66141,-1.84837 1.36463,0 13.45373,-12.70991 13.45373,-14.14462 0,-0.47046 -0.39825,-0.85538 -0.88499,-0.85538 z"
         id="path21438"
         style="fill:#5ab532;fill-opacity:1" />
      <path
         d="m 288.08645,116.58328 c -0.68871,-1.71038 -1.18152,-1.20356 -3.40321,3.5 -3.70214,7.83784 -13.22448,22.94481 -16.78531,26.62947 -2.7855,2.88239 -2.96868,3.50023 -2.32011,7.82519 l 0.70416,4.69572 3.48654,-3.32519 c 3.5291,-3.36578 10.36157,-11.84101 13.449,-16.68258 1.66003,-2.60319 5.70265,-16.21822 5.68388,-19.14261 -0.005,-0.825 -0.37202,-2.4 -0.81495,-3.5 z"
         id="path21436"
         style="fill:#5ab532;fill-opacity:1" />
      <path
         d="m 279.3395,97.094012 c -0.54387,-2.03415 -0.98477,-1.19064 -2.41151,4.613588 -1.89941,7.72712 -6.58706,15.8555 -12.29633,21.32185 -3.6302,3.47573 -4.11206,5.24009 -2.97874,10.90674 l 0.62059,3.1029 5.71959,-7.2279 c 10.18027,-12.86491 13.83592,-23.40591 11.3464,-32.717178 z"
         id="path21434"
         style="fill:#5ab532;fill-opacity:1" />
      <path
         d="m 273.16889,228.08327 c -0.63971,-5.775 -2.0319,-14.325 -3.09376,-19 -1.06187,-4.675 -2.46989,-14.35 -3.12895,-21.5 -0.65906,-7.15 -1.59727,-14.07593 -2.08491,-15.39097 -0.48764,-1.31503 -1.53994,-7.84002 -2.33844,-14.49999 -0.79851,-6.65996 -2.11957,-16.15903 -2.93569,-21.10903 -0.81613,-4.95 -1.49982,-10.46861 -1.51933,-12.26357 -0.0195,-1.79496 -0.47268,-4.04496 -1.00705,-5 -1.20589,-2.1552 -4.66438,-14.35784 -5.59373,-19.736438 -0.89795,-5.19693 -2.69624,-8.31667 -2.16158,-3.75 0.20928,1.7875 0.008,3.25 -0.4463,3.25 -0.93209,0 -1.06062,-0.40277 -1.33326,-4.17816 -0.10637,-1.47299 -0.67521,-4.62299 -1.26409,-7 -0.58888,-2.37701 -1.58206,-6.87974 -2.20707,-10.00605 -0.69105,-3.45666 -2.26438,-7.103617 -4.01479,-9.306227 -1.58313,-1.99211 -3.07087,-4.15921 -3.3061,-4.81579 -0.23523,-0.65657 -0.78739,-0.85817 -1.22703,-0.448 -0.43964,0.41018 -0.27625,1.89385 0.36309,3.29706 0.63935,1.4032 1.16244,4.24624 1.16244,6.317857 0,2.46389 1.54842,6.85727 4.47708,12.70295 2.46239,4.915 4.48739,9.51931 4.5,10.23181 0.0126,0.7125 1.04058,2.31312 2.28439,3.55692 1.2438,1.243808 2.88148,4.710858 3.63928,7.704558 0.75779,2.99369 2.21513,8.0892 3.23853,11.32335 1.0234,3.23415 1.86072,7.8245 1.86072,10.20078 0,2.37628 0.45391,6.48016 1.00868,9.11973 0.55478,2.63957 1.42267,8.62422 1.92865,13.29922 0.50598,4.675 1.59051,12.55 2.41007,17.5 1.48891,8.99276 2.19756,24.93629 3.20023,71.99999 0.74616,35.02333 -1.29569,56.16249 -8.18993,84.79007 -1.29673,5.38453 -2.3577,11.51708 -2.3577,13.62787 0,2.1108 -0.675,5.45331 -1.5,7.42782 -0.825,1.9745 -1.5,4.89263 -1.5,6.48474 0,3.12168 -3.27011,17.16347 -5.51226,23.6695 -3.73301,10.83209 -5.74945,16.09437 -6.53084,17.04354 -1.74328,2.11757 -6.80376,23.33333 -8.45724,35.45645 -0.93768,6.875 -2.1087,14.94514 -2.60227,17.93366 -1.17323,7.10386 -1.16672,38.06634 0.008,38.06634 0.49796,0 2.83804,-1.61469 5.20017,-3.58819 2.36213,-1.97351 6.0047,-4.27237 8.09461,-5.10858 4.40865,-1.76399 4.76161,-2.9079 1.37358,-4.45159 -3.3588,-1.53037 -7.35589,-0.29637 -10.72604,3.31139 -3.3946,3.63392 -3.77461,1.82355 -0.59771,-2.84743 2.46147,-3.61908 7.3319,-5.75073 11.68094,-5.11243 2.30804,0.33875 2.69781,0.0931 2.29523,-1.4463 -0.2667,-1.01989 0.009,-7.34491 0.61201,-14.05561 0.60331,-6.71069 1.59065,-18.50126 2.1941,-26.20126 0.60344,-7.7 1.54834,-16.25 2.09978,-19 0.55144,-2.75 1.64073,-8.30466 2.42065,-12.34367 0.77992,-4.03903 3.63004,-16.18903 6.3336,-27 2.70356,-10.81098 5.2027,-22.35632 5.55364,-25.65632 0.64224,-6.03921 1.22511,-9.14906 4.12339,-22 2.9826,-13.22481 3.43949,-16.03067 4.31555,-26.50276 1.15722,-13.83305 0.72406,-51.75923 -0.74234,-64.99724 z"
         id="path21432"
         style="fill:#5ab532;fill-opacity:1" />
      <path
         d="m 267.46138,74.487182 c -0.86402,-2.972147 -1.91656,-5.403907 -2.33897,-5.403907 -0.42241,0 -1.27009,3.937497 -1.88374,8.749997 -0.61365,4.8125 -2.03633,10.56789 -3.16151,12.78975 -4.46897,8.82477 -5.81677,14.244298 -4.72692,19.006988 0.97349,4.25413 1.10432,4.38114 2.86839,2.78468 3.18783,-2.88494 7.77266,-12.448218 9.24065,-19.274628 1.87522,-8.72007 1.87561,-12.20825 0.002,-18.65288 z"
         id="path21430"
         style="fill:#5ab532;fill-opacity:1" />
      <path
         d="m 260.68238,259.08327 c -2.60947,0 -8.80772,-4.15855 -12.65004,-8.4872 -1.375,-1.54904 -5.24625,-5.78561 -8.60279,-9.41462 -9.66536,-10.44995 -10.73985,-11.82619 -13.55896,-17.36682 -2.5946,-5.09939 -2.67919,-5.16248 -3.35342,-2.5012 -0.91336,3.60515 2.90008,16.2159 6.23645,20.62346 4.74095,6.2631 22.42923,22.78741 29.95695,27.98564 l 3.17822,2.19471 0.43559,-2.26699 c 0.23958,-1.24684 0.49688,-4.17948 0.57178,-6.51698 0.12282,-3.83294 -0.0944,-4.25 -2.21378,-4.25 z"
         id="path21428"
         style="fill:#5ab532;fill-opacity:1" />
      <path
         d="m 260.37736,225.91201 c -0.91025,-1.00581 -2.15235,-1.82874 -2.76022,-1.82874 -0.60788,0 -2.22787,-1.0125 -3.59998,-2.25 -1.37211,-1.2375 -6.4431,-5.54607 -11.26886,-9.5746 -6.67588,-5.573 -10.19309,-9.49675 -14.70777,-16.40778 -5.55618,-8.50536 -5.89473,-8.83459 -5.32179,-5.17541 0.95173,6.07839 4.83023,14.01635 9.63126,19.71189 2.40893,2.85775 6.46612,8.27578 9.01599,12.04009 2.54986,3.7643 5.7483,7.71903 7.10763,8.78828 3.14898,2.47699 12.6324,8.86753 13.15921,8.86753 0.21973,0 0.39951,-2.77707 0.39951,-6.17126 0,-4.3391 -0.49134,-6.71419 -1.65498,-8 z"
         id="path21426"
         style="fill:#5ab532;fill-opacity:1" />
      <path
         d="m 260.78001,195.5843 c -0.13622,-0.0885 -4.07267,-3.19508 -8.74767,-6.90344 -10.24583,-8.12733 -13.05573,-11.58325 -18.17863,-22.35813 -4.1615,-8.7528 -7.91274,-15.127 -8.94356,-15.19712 -1.19042,-0.081 -1.79521,7.4829 -0.90885,11.36661 1.76919,7.75198 11.08044,23.22738 20.27094,33.69058 5.08157,5.78525 10.65863,9.84014 15.66473,11.38929 l 2.40463,0.74411 -0.65696,-6.28546 c -0.36133,-3.45701 -0.76841,-6.3579 -0.90463,-6.44644 z"
         id="path21424"
         style="fill:#5ab532;fill-opacity:1" />
      <path
         d="m 246.68921,281.34677 c -4.76741,-4.81992 -10.67956,-10.49936 -13.1381,-12.62097 -2.52067,-2.17522 -5.73498,-6.38877 -7.37057,-9.66188 l -2.9005,-5.80442 -0.58833,4.29233 c -1.23337,8.9984 3.63374,17.94951 16.80381,30.9039 11.43244,11.24522 18.30271,16.45904 19.01797,14.43263 0.25336,-0.7178 0.82801,-3.55509 1.27699,-6.30509 0.78928,-4.83428 0.72935,-5.02441 -1.80845,-5.7365 -1.44364,-0.40507 -6.52541,-4.68007 -11.29282,-9.5 z"
         id="path21422"
         style="fill:#5ab532;fill-opacity:1" />
      <path
         d="m 258.56315,161.80356 c -2.18397,-8.60946 -3.06877,-10.45505 -7.65963,-15.97707 -2.85473,-3.43377 -5.70849,-6.69321 -6.34169,-7.24321 -2.79088,-2.42417 -16.36183,-18.22267 -17.46837,-20.33565 -2.41508,-4.61164 -1.96736,-1.38254 0.95659,6.89936 1.63815,4.63996 3.88351,9.56129 4.9897,10.93629 1.10618,1.375 3.09947,4.075 4.42953,6 4.31465,6.24462 23.56306,30.60168 23.56306,29.81685 0,-0.1995 -1.11113,-4.74295 -2.46919,-10.09657 z"
         id="path21420"
         style="fill:#5ab532;fill-opacity:1" />
      <path
         d="m 254.22008,317.08327 c -1.78122,0 -12.28139,-7.22635 -17.18774,-11.82881 -1.375,-1.28984 -4.2038,-3.44696 -6.28624,-4.7936 -2.08243,-1.34664 -4.66825,-3.89499 -5.74626,-5.66301 -1.91624,-3.14277 -1.9601,-3.1581 -1.96376,-0.68637 -0.008,5.1748 6.43842,16.20284 13.13513,22.47179 13.19611,12.3532 16.77001,15.04864 16.90527,12.75 0.0243,-0.4125 0.6689,-3 1.4325,-5.75 1.81598,-6.53995 1.81776,-6.5 -0.2889,-6.5 z"
         id="path21418"
         style="fill:#5ab532;fill-opacity:1" />
      <path
         d="m 252.95924,122.33328 c -0.76729,-4.03973 -1.67054,-6.25 -2.55412,-6.25 -3.70618,0 -15.31319,-14.32725 -22.26673,-27.485198 -1.15833,-2.19186 -2.10605,-3.27151 -2.10605,-2.39922 0,6.22374 12.91602,31.519238 19.20332,37.608918 1.26317,1.22347 4.04673,3.68751 6.18569,5.47564 3.13375,2.61976 3.77597,2.86746 3.307,1.2755 -0.3201,-1.0866 -1.1162,-4.78814 -1.76911,-8.22564 z"
         id="path21416"
         style="fill:#5ab532;fill-opacity:1" />
      <path
         d="m 252.98211,56.583275 -1.25046,-3 -0.83491,4.46911 c -0.69773,3.73481 -0.60928,19.484137 0.16305,29.030887 0.12409,1.53376 0.92405,-0.20547 2.06979,-4.5 2.08809,-7.8267 2.01443,-20.813337 -0.14747,-25.999997 z"
         id="path21414"
         style="fill:#5ab532;fill-opacity:1" />
      <path
         d="m 245.47576,346.89944 c -1.95613,-1.7175 -7.25835,-8.11625 -11.78272,-14.21945 -10.42081,-14.05725 -11.88192,-16.30439 -13.39216,-20.59672 -1.16214,-3.30297 -1.20742,-3.13409 -0.80422,3 0.45686,6.95035 3.46063,15.23351 10.80581,29.79789 3.17637,6.29826 5.58852,9.51878 10.00976,13.36425 3.20371,2.78651 5.94352,4.90246 6.08846,4.70212 0.5729,-0.7919 2.38626,-8.49673 2.50529,-10.64481 0.081,-1.46176 -1.15057,-3.40172 -3.43022,-5.40328 z"
         id="path21412"
         style="fill:#5ab532;fill-opacity:1" />
      <path
         d="m 230.82847,365.81972 c -6.29986,-8.70508 -11.50038,-18.3987 -12.3379,-22.9975 -0.93813,-5.15125 -2.45823,-5.72569 -2.45823,-0.92896 0,15.34706 6.26837,31.10651 16.31285,41.01253 l 5.39691,5.32252 2.03489,-4.32252 2.03489,-4.32252 -3.13977,-3.6319 c -1.72687,-1.99754 -5.25651,-6.55679 -7.84364,-10.13165 z"
         id="path21410"
         style="fill:#5ab532;fill-opacity:1" />
    </g>
    <g
       transform="matrix(1.7372908,0,0,1.4563573,124.13575,-5.282066)"
       id="g3217"
       style="display:inline">
      <path
         d="m 153.51406,259.18312 c -0.84972,2.475 -3.01977,6.075 -4.82233,8 -1.80256,1.925 -3.69128,4.2876 -4.19718,5.25023 -1.45437,2.76739 -14.41428,15.81291 -16.73837,16.84893 -1.15592,0.51528 -4.17773,2.22951 -6.71512,3.80941 -2.53739,1.57989 -6.13739,3.20332 -8,3.60761 -3.20844,0.69642 -4.83702,1.96879 -4.87125,3.80578 -0.008,0.45207 2.57219,0.50579 5.73469,0.11937 4.76346,-0.58204 7.09662,-1.64758 13.59867,-6.21037 4.31677,-3.02928 11.36742,-9.0455 15.66811,-13.36937 4.30069,-4.32388 8.08128,-7.86159 8.40132,-7.86159 1.35268,0 0.41955,9.73133 -1.59941,16.67982 -3.09924,10.66633 -8.05261,15.94689 -20.54603,21.9031 -6.72875,3.20792 -11.75955,4.85475 -17.2953,5.66159 -7.62493,1.11135 -7.81759,1.20894 -8.28466,4.19665 -0.6858,4.38687 0.36534,4.93846 7.13765,3.74554 7.76075,-1.36703 20.02521,-8.4524 27.19179,-15.70912 2.97525,-3.01267 5.76241,-5.47758 6.1937,-5.47758 2.68741,0 -1.69071,21.7914 -5.3,26.37987 -1.0238,1.30154 -3.56118,3.16875 -5.63864,4.14936 -2.07746,0.98061 -5.3614,2.77813 -7.29765,3.99449 -3.99618,2.5104 -15.8715,5.47628 -21.92695,5.47628 -2.22894,0 -4.05261,0.4132 -4.05261,0.91821 0,0.50502 -0.282343,1.65398 -0.627423,2.55325 -0.56104,1.46205 0.20602,1.56271 7.250013,0.95149 8.32815,-0.72266 14.97303,-3.59613 25.62742,-11.08216 l 4.75,-3.33746 0,3.53045 c 0,7.48078 -5.1474,15.36022 -13.8355,21.17884 -8.34011,5.58556 -10.5507,6.28738 -19.80406,6.28738 -8.107393,0 -8.445033,0.0923 -9.385203,2.5651 -1.34232,3.53056 -1.41815,3.43723 2.77475,3.41517 4.914043,-0.0259 19.583213,-5.23429 23.799603,-8.4503 5.86672,-4.47476 7.56706,-3.08415 5.46562,4.47003 -1.26906,4.56198 -10.28001,13.95272 -16.01521,16.69022 -2.475,1.18135 -8.09248,2.74683 -12.483283,3.47884 -8.984147,1.49779 -7.72301,-0.11711 -10.410567,13.33093 -0.54958,2.75 -1.50552,11.75 -2.12431,20 -0.6188,8.25 -1.54614,18.88891 -2.06078,23.64202 -0.64113,5.92143 -0.58928,10.17137 0.1647,13.5 1.56711,6.91845 0.23537,9.65773 -6.297182,12.95272 -2.90872,1.46715 -5.51359,2.96129 -5.78859,3.32031 -0.275,0.35902 -2.57134,2.32501 -5.10299,4.36886 -7.95199,6.4198 -7.89701,6.52943 -7.89701,-15.74567 0,-25.78097 3.21711,-51.61727 9.01393,-72.39003 l 2.05158,-7.35178 -5.78275,-6.44184 C 50.125649,361.70891 48.630779,358.51534 46.973079,341.36441 c -0.8244,-8.5295 -0.80374,-12.28747 0.0838,-15.25 0.64782,-2.16221 1.5771,-3.93129 2.06508,-3.93129 0.95468,0 6.03248,10.12246 6.03248,12.02559 0,1.89512 7.068779,14.15355 10.913639,18.92605 1.9725,2.44839 5.02861,6.46847 6.79135,8.93349 l 3.20499,4.48185 1.04501,-2.74859 c 1.666042,-4.382 1.373422,-5.03752 -5.01617,-11.23728 -6.81555,-6.61307 -13.53127,-17.00276 -18.668269,-28.88111 -2.8997,-6.705 -3.54635,-9.5646 -3.99477,-17.66546 -0.63773,-11.52076 0.0545,-15.63524 2.31493,-13.75926 1.58443,1.31496 5.40929,9.03132 5.40929,10.91283 0,2.67022 17.098429,26.23403 22.073841,30.42057 3.74288,3.14942 4.8961,2.51444 5.5167,-3.0376 0.41412,-3.70481 0.1711,-4.08583 -5.65809,-8.87108 -12.289302,-10.08841 -18.689742,-17.02135 -22.356661,-24.21665 -3.23801,-6.35368 -3.56915,-7.76114 -3.5055,-14.89991 0.0387,-4.33589 0.4156,-8.7666 0.83766,-9.84602 0.73096,-1.86947 0.84111,-1.84574 2.32155,0.5 0.8548,1.35442 2.139319,4.1392 2.854489,6.1884 0.71517,2.0492 2.22634,4.6447 3.35816,5.76776 3.05651,3.03288 15.619732,13.0057 16.390612,13.01105 0.36698,0.003 2.04366,1.29489 3.72594,2.87189 1.68228,1.577 4.04478,3.18024 5.25,3.56276 1.960317,0.62219 2.191297,0.33888 2.191297,-2.68775 0,-2.94867 -0.54591,-3.6821 -4.249997,-5.70984 -8.131081,-4.45124 -23.385872,-19.96018 -28.956821,-29.43925 l -4.05376,-6.89757 0.49397,-8.66345 c 0.27168,-4.7649 1.03754,-9.67914 1.70192,-10.92054 1.15567,-2.15939 1.3836,-1.96199 5.266199,4.56102 2.75898,4.63526 8.25871,10.9142 17.178371,19.61224 16.286458,15.88181 16.567038,16.06134 16.786788,10.74104 0.0917,-2.21935 0.20417,-4.65176 0.25,-5.40536 0.078,-1.28178 -2.70889,-3.85349 -12.060877,-11.12982 -6.265942,-4.87522 -22.339272,-20.7452 -24.425242,-24.11622 -3.855959,-6.2314 -6.111479,-15.39144 -5.426369,-22.03738 0.3489,-3.38449 1.21853,-6.9525 1.9325,-7.92892 1.19078,-1.62848 1.50424,-1.45037 3.790139,2.1536 1.3706,2.16091 3.65289,5.95392 5.07176,8.42892 1.41886,2.475 6.02677,8.1 10.23978,12.5 4.213011,4.4 9.456302,9.9221 11.651762,12.27134 3.84807,4.11761 9.507817,7.86405 10.452737,6.91913 0.25135,-0.25134 0.15642,-2.64703 -0.21096,-5.32373 -0.61119,-4.45317 -1.10249,-5.16417 -5.78141,-8.36674 -2.812397,-1.925 -8.046777,-6.43251 -11.631967,-10.01669 -7.778452,-7.77627 -21.059581,-25.80376 -23.329521,-31.66695 -3.63653,-9.39307 -3.01545,-24.11116 0.85169,-20.18302 0.74,0.75166 1.933569,2.49277 2.652379,3.86912 0.71881,1.37636 3.93979,6.40555 7.15774,11.17599 4.80706,7.12624 7.83652,10.24767 16.982012,17.49754 6.12216,4.85321 11.476797,8.97401 11.899187,9.15734 0.4224,0.18334 0.76799,-1.91926 0.76799,-4.67244 0,-4.89894 -0.08,-5.03206 -3.75,-6.23686 -4.439047,-1.45728 -9.960517,-4.85117 -12.749997,-7.83707 -1.100001,-1.17745 -3.255982,-3.34456 -4.791062,-4.81578 -3.80304,-3.64483 -13.3826,-18.34926 -17.025249,-26.13343 -2.40724,-5.14415 -2.99317,-7.75207 -3.03456,-13.50643 -0.0534,-7.43312 1.72764,-15.63132 3.39597,-15.63132 1.232419,0 8.911329,12.08479 11.437549,18 4.61461,10.80521 13.884842,22.04969 22.267349,27.00955 l 3.25,1.923 0,-5.95867 c 0,-6.31131 0.1183,-6.08502 -8.058027,-15.41418 -1.95692,-2.23283 -4.43192,-5.23403 -5.5,-6.66933 -11.145282,-14.97714 -14.751532,-19.75747 -16.513952,-21.89037 -6.46293,-7.82149 -11.098939,-29.92223 -6.830119,-32.5605 0.519209,-0.32089 1.570549,0.91145 2.336319,2.73853 1.47946,3.52991 9.8764,13.90985 19.517792,24.12704 3.21519,3.40721 6.77632,7.31993 7.91363,8.69493 l 2.06782,2.5 0.03327,-3.25 c 0.0183,-1.7875 -0.38373,-3.25 -0.8934,-3.25 -0.50967,0 -1.07217,-0.61022 -1.25,-1.35604 -0.17783,-0.74583 -3.26029,-3.83872 -6.84992,-6.8731 C 65.149048,109.29208 51.626989,77.98249 57.832238,70.3296 l 1.90832,-2.35351 3.84284,7.35351 c 2.11357,4.04444 4.6817,8.42671 5.70697,9.73838 1.02527,1.31167 1.86412,2.75419 1.86412,3.20559 0,2.63464 11.556882,15.68601 12.794202,14.44869 0.97787,-0.97788 -0.97968,-9.53914 -2.18116,-9.53914 -2.23914,0 -5.403172,-4.30411 -9.930332,-13.50847 -3.44063,-6.9953 -4.563,-10.54562 -5.05545,-15.99153 -0.34813,-3.85 -0.91556,-8.6875 -1.26096,-10.75 -0.54086,-3.22975 -0.36704,-3.74787 1.25286,-3.73468 2.57555,0.021 3.40898,0.70831 8.05641,6.64431 3.698712,4.72422 4.140332,5.94511 5.233352,14.468 0.65656,5.1196 1.43908,9.54777 1.73892,9.84037 0.29984,0.2926 0.16877,-2.168 -0.29127,-5.468 -1.73056,-12.41374 0.29781,-34.21812 3.2755,-35.21068 1.24856,-0.41619 2.22051,1.48722 3.42673,6.71069 0.44452,1.925 1.277407,5.29999 1.850857,7.49999 1.70935,6.55784 1.29033,15.01604 -1.053977,21.27498 -1.17938,3.14876 -2.31815,7.75002 -2.53061,10.22502 l -0.38629,4.5 1.90065,-5 c 1.04536,-2.75 2.611017,-6.8 3.479237,-9 0.86821,-2.2 1.86182,-7.03102 2.20801,-10.73561 0.38734,-4.14499 1.30684,-7.57217 2.3907,-8.91068 l 1.76126,-2.17507 2.283633,2.28362 c 8.28403,8.28403 5.78703,34.89288 -4.571413,48.71436 -1.75016,2.33527 -2.16805,3.75146 -1.57781,5.34703 l 0.80288,2.1704 3.23589,-2.72281 c 1.77973,-1.49755 4.058393,-4.35372 5.063703,-6.34703 2.60324,-5.16175 5.08449,-15.86763 5.08449,-21.9381 0,-2.85236 0.37007,-5.18611 0.82237,-5.18611 0.4523,0 2.12831,1.9125 3.72446,4.25 2.70091,3.95538 2.90386,4.91698 2.92763,13.87148 0.025,9.43342 -0.0598,9.78525 -4.33848,18 -2.40021,4.60819 -5.55021,9.66375 -7,11.23458 -1.44979,1.57083 -3.64849,3.95379 -4.885993,5.29546 -2.1735,2.35645 -2.91056,5.35458 -1.63095,6.63419 0.7756,0.7756 2.16772,-0.69179 5.488943,-5.78571 7.82995,-12.00924 15.89202,-27.97484 15.89202,-31.47155 0,-2.949 1.71305,-2.48403 3.48703,0.94647 2.74929,5.31653 2.94339,13.63803 0.53641,22.99597 -1.78647,6.94551 -3.18334,9.8267 -7.75716,16 -3.06809,4.14101 -7.02238,8.87911 -8.78731,10.52911 -4.27428,3.99593 -6.41329,8.39282 -5.75591,11.83169 l 0.53445,2.79577 3.00327,-2.81373 c 6.16192,-5.77305 17.3019,-19.96818 19.08134,-24.31441 3.91121,-9.55302 6.67509,-14.99932 7.61183,-14.99932 4.06477,0 3.9844,20.55483 -0.11768,30.09731 -1.32339,3.07852 -3.11569,6.67852 -3.98291,8 -1.75883,2.68014 -11.60109,13.90639 -18.492,21.09228 -3.76664,3.92788 -4.44546,5.2273 -4.17922,8 l 0.31786,3.31041 3.5,-3.54301 c 8.84053,-8.94916 26.53946,-36.00159 28.39764,-43.40518 0.7289,-2.90417 1.80393,-3.21879 3.6007,-1.05381 0.898,1.08203 1.1224,4.90024 0.8081,13.75 -0.41829,11.77785 -0.58516,12.5616 -4.31192,20.252 -6.0501,12.48474 -12.74522,21.45875 -20.54716,27.54104 -5.57224,4.34404 -6.94736,5.95552 -6.94736,8.14147 l 0,2.72541 3.75,-2.20396 c 4.87736,-2.86653 20.86457,-19.19541 23.20798,-23.70396 1.00055,-1.925 2.39056,-5.4125 3.08889,-7.75 0.69834,-2.3375 1.59338,-4.25 1.98897,-4.25 2.99629,0 5.3018,10.05454 4.78486,20.86708 -0.40303,8.42977 -0.64048,9.22571 -4.37344,14.66037 -4.40919,6.41916 -15.10032,16.61335 -20.44726,19.49684 -5.82213,3.13976 -10,7.46694 -10,10.3574 0,1.44007 0.27864,2.61831 0.61919,2.61831 0.34055,0 3.1816,-1.55658 6.31345,-3.45908 8.32586,-5.05769 23.02195,-20.64898 26.63077,-28.25296 1.61512,-3.40315 3.16158,-6.19583 3.43658,-6.20595 0.275,-0.0101 1.39746,0.6598 2.49435,1.48871 1.63131,1.23276 2.05963,2.94456 2.35295,9.40346 0.30639,6.74687 8.2e-4,8.67001 -2.09913,13.21108 -4.94045,10.68355 -21.38955,28.85471 -29.63248,32.73473 -6.84539,3.22218 -10.10305,5.58421 -10.10936,7.33001 -0.009,2.37841 0.79914,2.23991 8.14106,-1.3959 12.83261,-6.35489 25.28314,-18.92082 30.32301,-30.6041 1.00834,-2.3375 2.17098,-4.25 2.58365,-4.25 2.94359,0 3.8315,15.64258 1.30552,23 z m -3.28859,-11.3487 c -3.91801,6.4255 -12.28299,15.32833 -19.58915,20.8487 -4.07359,3.07791 -16.99543,9.44856 -19.23182,9.48156 -0.83716,0.0124 -1.25451,1.75236 -1.26365,5.26844 -0.008,2.8875 -0.285,6.2625 -0.61663,7.5 -0.97001,3.61956 2.89124,2.84926 11.65334,-2.32479 7.29466,-4.30752 10.55824,-7.38938 23.55272,-22.24125 4.10997,-4.69745 7.34214,-12.65291 7.38783,-18.18396 l 0.0289,-3.5 -1.92154,3.1513 z m -0.98033,-33.09527 c -0.50014,-0.30911 -1.92417,1.57684 -3.16449,4.19098 -3.22106,6.78872 -22.82065,26.19705 -29.63516,29.34596 l -5.20901,2.40703 -0.041,7.61399 -0.041,7.61399 4.29225,-2.17301 c 6.83189,-3.45875 12.77819,-7.9416 18.86205,-14.21993 5.59927,-5.77825 13.43122,-17.51185 14.90822,-22.33504 1.08897,-3.55608 1.10755,-11.77685 0.0281,-12.44397 z m -6.05007,71.54175 c -15.52053,14.06936 -19.64655,16.60125 -28.53832,17.51224 -6.73639,0.69016 -6.96724,0.89735 -8.97588,8.05582 -0.87347,3.11292 0.31263,3.40148 7.66144,1.86391 10.14711,-2.12305 23.16653,-9.18719 28.35891,-15.38712 2.34144,-2.79579 7.00584,-13.28643 7.35625,-16.54485 0.0534,-0.49622 -2.58472,1.52878 -5.8624,4.5 z m -0.98423,-97.56296 c -0.51902,-0.32077 -2.16267,1.56517 -3.65256,4.19098 -3.60683,6.35676 -17.58592,20.52785 -24.21806,24.55071 -5.16858,3.13512 -5.29457,3.31944 -4.59537,6.72349 0.3954,1.925 0.98683,5.22232 1.31428,7.32737 l 0.59537,3.82737 8,-5.69179 c 4.4,-3.13048 9.51873,-7.1028 11.37496,-8.82737 3.57462,-3.32108 10.18413,-12.77961 11.27536,-16.13558 1.02374,-3.14843 0.9521,-15.31867 -0.094,-15.96518 z M 138.4045,314.3937 c -7.97409,7.69016 -19.75204,13.63141 -28.67471,14.46462 -6.08524,0.56825 -6.54076,0.78698 -7.52629,3.61405 -1.73615,4.98032 -1.35601,8.71075 0.88765,8.71075 4.2956,0 17.97435,-3.92698 23.58877,-6.77201 7.69042,-3.897 10.09951,-6.57439 12.93107,-14.37114 3.25266,-8.95626 3.0772,-9.77743 -1.20649,-5.64627 z m -0.674,-162.21058 c -0.23321,0 -1.69571,2.56548 -3.25,5.70106 -1.5543,3.13558 -3.42379,6.39808 -4.15443,7.25 -2.04492,2.38437 -12.54917,17.17887 -14.58996,20.54894 -0.99918,1.65 -3.68913,4.56849 -5.97766,6.48552 l -4.16097,3.48553 0.97599,4.76447 c 1.27131,6.20612 3.12046,6.20887 9.75171,0.0145 7.81751,-7.30251 17.02946,-22.07409 20.42377,-32.75 1.18404,-3.72409 1.92976,-15.5 0.98155,-15.5 z m -7.826,191.33925 c -7.18317,5.39518 -12.8826,7.46984 -22.48191,8.18369 l -9.231923,0.68652 -1.01251,3.64527 c -1.67938,6.04615 -1.59457,6.14578 5.226333,6.13969 11.50293,-0.0103 17.9577,-3.37668 26.45044,-13.79495 5.1147,-6.27433 5.5372,-8.23082 1.04957,-4.86022 z m -0.2818,-212.89812 c -0.80751,1.06762 -1.4682,2.91732 -1.4682,4.11045 0,3.25911 -6.4334,12.0167 -21.83336,29.7211 -3.16938,3.64364 -4.18034,5.55199 -3.76366,7.10456 0.31335,1.16752 0.57586,3.4387 0.58337,5.04707 l 0.0136,2.92432 2.63789,-2.42432 c 2.40477,-2.21007 20.35627,-22.65333 20.36647,-23.19344 0.002,-0.12698 1.1179,-3.38087 2.47891,-7.23087 2.88412,-8.1586 3.57902,-19.48856 0.98493,-16.05887 z m -6.35319,233.55887 c -0.48674,0 -1.55264,1.0125 -2.36865,2.25 -1.8549,2.813 -13.37587,6.82699 -21.958913,7.65064 l -6.24577,0.59936 -1.18417,5.34396 c -1.16301,5.24853 -1.14552,5.3329 0.97916,4.72439 1.18983,-0.34076 4.41332,-0.90128 7.16332,-1.24559 2.750003,-0.34432 6.073203,-1.45779 7.384873,-2.47439 1.31167,-1.0166 2.95931,-1.84837 3.66141,-1.84837 1.36463,0 13.45373,-12.70991 13.45373,-14.14462 0,-0.47046 -0.39825,-0.85538 -0.88499,-0.85538 z m -2.06091,-256.5 c -0.68871,-1.71038 -1.18152,-1.20356 -3.40321,3.5 -3.70214,7.83784 -13.22448,22.94481 -16.78531,26.62947 -2.785503,2.88239 -2.968683,3.50023 -2.320113,7.82519 l 0.70416,4.69572 3.486543,-3.32519 c 3.5291,-3.36578 10.36157,-11.84101 13.449,-16.68258 1.66003,-2.60319 5.70265,-16.21822 5.68388,-19.14261 -0.005,-0.825 -0.37202,-2.4 -0.81495,-3.5 z m -8.74695,-19.48926 c -0.54387,-2.03415 -0.98477,-1.19064 -2.41151,4.61359 -1.89941,7.72711 -6.58706,15.85549 -12.296333,21.32184 -3.6302,3.47573 -4.11206,5.24009 -2.97874,10.90674 l 0.62059,3.1029 5.719593,-7.2279 c 10.18027,-12.86491 13.83592,-23.40591 11.3464,-32.71717 z m -6.17061,130.98926 c -0.63971,-5.775 -2.0319,-14.325 -3.09376,-19 -1.06187,-4.675 -2.46989,-14.35 -3.12895,-21.5 -0.659063,-7.15 -1.597273,-14.07593 -2.084913,-15.39097 -0.48764,-1.31503 -1.53994,-7.84003 -2.33844,-14.5 -0.79851,-6.65996 -2.11957,-16.15903 -2.93569,-21.10903 -0.81613,-4.95 -1.49982,-10.46861 -1.51933,-12.26357 -0.0195,-1.79496 -0.47268,-4.04496 -1.00705,-5 -1.205887,-2.1552 -4.664377,-14.35783 -5.593727,-19.73643 -0.89795,-5.19693 -2.69624,-8.31667 -2.16158,-3.75 0.20928,1.7875 0.0084,3.25 -0.4463,3.25 -0.93209,0 -1.06062,-0.40277 -1.33326,-4.17816 -0.10637,-1.47299 -0.67521,-4.62299 -1.26409,-7 -0.58888,-2.37701 -1.582061,-6.87974 -2.207072,-10.00605 -0.69105,-3.45666 -2.26438,-7.10362 -4.01479,-9.30623 -1.58313,-1.99211 -3.07087,-4.15921 -3.3061,-4.81579 -0.23523,-0.65657 -0.78739,-0.85817 -1.22703,-0.448 -0.43964,0.41018 -0.27625,1.89385 0.36309,3.29706 0.63935,1.4032 1.16244,4.24624 1.16244,6.31786 0,2.46389 1.54842,6.85727 4.47708,12.70295 2.46239,4.915 4.487392,9.51931 4.500002,10.23181 0.01261,0.7125 1.04058,2.31312 2.28439,3.55692 1.2438,1.24381 2.88148,4.71086 3.63928,7.70455 0.75779,2.99369 2.21513,8.0892 3.23853,11.32335 1.0234,3.23415 1.860717,7.8245 1.860717,10.20078 0,2.37628 0.45391,6.48016 1.00868,9.11973 0.55478,2.63957 1.42267,8.62422 1.92865,13.29922 0.50598,4.675 1.59051,12.55 2.41007,17.5 1.48891,8.99277 2.19756,24.9363 3.20023,72 0.74616,35.02333 -1.29569,56.16249 -8.18993,84.79007 -1.296727,5.38453 -2.357697,11.51708 -2.357697,13.62787 0,2.1108 -0.675,5.45331 -1.5,7.42782 -0.825,1.9745 -1.5,4.89263 -1.5,6.48474 0,3.12168 -3.27011,17.16347 -5.51226,23.6695 -3.733012,10.83209 -5.749452,16.09437 -6.530842,17.04354 -1.74328,2.11757 -6.80376,23.33333 -8.45724,35.45645 -0.93768,6.875 -2.1087,14.94514 -2.60227,17.93366 -1.17323,7.10386 -1.16672,38.06634 0.008,38.06634 0.49796,0 2.83804,-1.61469 5.20017,-3.58819 2.36213,-1.97351 6.0047,-4.27237 8.09461,-5.10858 4.408652,-1.76399 4.761612,-2.9079 1.37358,-4.45159 -3.3588,-1.53037 -7.35589,-0.29637 -10.72604,3.31139 -3.3946,3.63392 -3.77461,1.82355 -0.59771,-2.84743 2.46147,-3.61908 7.3319,-5.75073 11.68094,-5.11243 2.308042,0.33875 2.697812,0.0931 2.295232,-1.4463 -0.2667,-1.01989 0.0087,-7.34491 0.61201,-14.05561 0.60331,-6.71069 1.59065,-18.50126 2.1941,-26.20126 0.60344,-7.7 1.54834,-16.25 2.09978,-19 0.55144,-2.75 1.64073,-8.30466 2.42065,-12.34367 0.77992,-4.03903 3.630037,-16.18903 6.333597,-27 2.70356,-10.81098 5.2027,-22.35632 5.55364,-25.65632 0.64224,-6.03921 1.22511,-9.14906 4.123393,-22 2.9826,-13.22481 3.43949,-16.03067 4.31555,-26.50276 1.15722,-13.83305 0.72406,-51.75923 -0.74234,-64.99724 z M 100.58353,65.58703 c -0.864023,-2.97215 -1.916563,-5.40391 -2.338973,-5.40391 -0.42241,0 -1.27009,3.9375 -1.88374,8.75 -0.61365,4.8125 -2.03633,10.56789 -3.16151,12.78975 -4.468967,8.82477 -5.816767,14.2443 -4.726917,19.00698 0.97349,4.25413 1.104317,4.38114 2.868387,2.78468 3.18783,-2.88494 7.77266,-12.44821 9.240653,-19.27462 1.87522,-8.72007 1.87561,-12.20825 0.002,-18.65288 z m -6.779003,184.59609 c -2.60947,0 -8.807717,-4.15855 -12.650037,-8.4872 -1.375,-1.54904 -5.246252,-5.78561 -8.602792,-9.41462 -9.66536,-10.44995 -10.73985,-11.82619 -13.55896,-17.36682 -2.594599,-5.09939 -2.679189,-5.16248 -3.353419,-2.5012 -0.91336,3.60515 2.900079,16.2159 6.236449,20.62346 4.74095,6.2631 22.429232,22.78741 29.956949,27.98564 l 3.17822,2.19471 0.43559,-2.26699 c 0.23958,-1.24684 0.49688,-4.17948 0.57178,-6.51698 0.12282,-3.83294 -0.0944,-4.25 -2.21378,-4.25 z m -0.30502,-33.17126 c -0.91025,-1.00581 -2.15235,-1.82874 -2.76022,-1.82874 -0.60788,0 -2.227867,-1.0125 -3.599977,-2.25 -1.37211,-1.2375 -6.4431,-5.54607 -11.268862,-9.5746 -6.67588,-5.573 -10.19309,-9.49675 -14.70777,-16.40778 -5.556179,-8.50536 -5.894729,-8.83459 -5.321789,-5.17541 0.95173,6.07839 4.830229,14.01635 9.631259,19.71189 2.40893,2.85775 6.46612,8.27578 9.01599,12.04009 2.54986,3.7643 5.748302,7.71903 7.107632,8.78828 3.14898,2.47699 12.632397,8.86753 13.159207,8.86753 0.21973,0 0.39951,-2.77707 0.39951,-6.17126 0,-4.3391 -0.49134,-6.71419 -1.65498,-8 z m 0.40265,-30.32771 c -0.13622,-0.0885 -4.07267,-3.19508 -8.747667,-6.90344 -10.245832,-8.12733 -13.055732,-11.58325 -18.178632,-22.35814 -4.1615,-8.7528 -7.91274,-15.127 -8.94356,-15.19712 -1.190419,-0.081 -1.795209,7.4829 -0.908849,11.36661 1.769189,7.75198 11.080439,23.22739 20.27094,33.69059 5.081571,5.78525 10.658631,9.84014 15.664728,11.38929 l 2.40463,0.74411 -0.65696,-6.28546 c -0.36133,-3.45701 -0.76841,-6.3579 -0.90463,-6.44644 z M 79.81136,272.44662 c -4.767412,-4.81992 -10.679562,-10.49936 -13.138102,-12.62097 -2.52067,-2.17522 -5.73498,-6.38877 -7.37057,-9.66188 l -2.900499,-5.80442 -0.58833,4.29233 c -1.23337,8.9984 3.633739,17.94951 16.803809,30.9039 11.432442,11.24522 18.302709,16.45904 19.017969,14.43263 0.25336,-0.7178 0.82801,-3.55509 1.27699,-6.30509 0.78928,-4.83428 0.72935,-5.02441 -1.80845,-5.7365 -1.44364,-0.40507 -6.525407,-4.68007 -11.292817,-9.5 z M 91.685297,152.9034 c -2.18397,-8.60946 -3.068767,-10.45505 -7.659627,-15.97707 -2.85473,-3.43377 -5.70849,-6.69321 -6.341691,-7.24321 -2.790881,-2.42417 -16.361831,-18.22267 -17.468371,-20.33565 -2.41508,-4.61164 -1.96736,-1.38254 0.95659,6.89936 1.63815,4.63996 3.88351,9.56129 4.9897,10.93629 1.10618,1.375 3.09947,4.075 4.42953,6 4.31465,6.24462 23.563059,30.60169 23.563059,29.81686 0,-0.1995 -1.11113,-4.74296 -2.46919,-10.09658 z M 87.34223,308.18312 c -1.78122,0 -12.281392,-7.22635 -17.187742,-11.82881 -1.375,-1.28984 -4.2038,-3.44696 -6.28624,-4.7936 -2.08243,-1.34664 -4.66825,-3.89499 -5.74626,-5.66301 -1.916239,-3.14277 -1.960099,-3.1581 -1.963759,-0.68637 -0.008,5.1748 6.438419,16.20284 13.135129,22.47179 13.196112,12.3532 16.770012,15.04864 16.905272,12.75 0.02427,-0.4125 0.6689,-3 1.4325,-5.75 1.81598,-6.53995 1.81776,-6.5 -0.2889,-6.5 z m -1.26084,-194.75 c -0.76729,-4.03973 -1.67054,-6.25 -2.55412,-6.25 -3.70618,0 -15.313192,-14.32724 -22.266732,-27.48519 -1.15833,-2.19186 -2.10605,-3.27151 -2.10605,-2.39922 0,6.22374 12.91602,31.51923 19.203322,37.60891 1.26317,1.22347 4.04673,3.68751 6.18569,5.47564 3.13375,2.61976 3.77597,2.86746 3.307,1.2755 -0.3201,-1.0866 -1.1162,-4.78814 -1.76911,-8.22564 z m 0.02287,-65.74999 -1.25046,-3 -0.83491,4.46911 c -0.69773,3.7348 -0.60928,19.48413 0.16305,29.03088 0.12409,1.53376 0.92405,-0.20547 2.06979,-4.5 2.08809,-7.8267 2.01443,-20.81334 -0.14747,-25.99999 z m -7.50635,290.31616 c -1.956132,-1.7175 -7.258352,-8.11625 -11.782722,-14.21945 -10.420809,-14.05725 -11.881919,-16.30439 -13.392159,-20.59672 -1.16214,-3.30297 -1.20742,-3.13409 -0.80422,3 0.45686,6.95035 3.46063,15.23351 10.805809,29.79789 3.17637,6.29826 5.58852,9.51878 10.00976,13.36425 3.20371,2.78651 5.943522,4.90246 6.088462,4.70212 0.5729,-0.7919 2.38626,-8.49673 2.50529,-10.64481 0.08099,-1.46176 -1.15057,-3.40172 -3.43022,-5.40328 z m -14.647292,18.92028 c -6.29986,-8.70508 -11.500379,-18.3987 -12.337899,-22.9975 -0.93813,-5.15125 -2.45823,-5.72569 -2.45823,-0.92896 0,15.34706 6.26837,31.10651 16.312849,41.01253 l 5.39691,5.32252 2.03489,-4.32252 2.03489,-4.32252 -3.13977,-3.6319 c -1.72687,-1.99754 -5.25651,-6.55679 -7.84364,-10.13165 z"
         id="path13538"
         style="fill:#000000;display:inline" />
    </g>
  </g>
  <g
     id="layer3"
     style="display:inline">
    <path
       d="m 1.5,1.5 0,458.8679 C 1.5,626.67854 135.81454,761.5 301.49993,761.5 467.1854,761.5 601.5,626.67854 601.5,460.3679 L 601.5,1.5 1.5,1.5 z"
       id="path2346"
       style="fill:url(#radialGradient3236);fill-opacity:1" />
  </g>
  <g
     id="layer4"
     style="display:inline">
    <path
       d="m 1.5,1.5 0,458.86794 C 1.5,626.67854 135.81454,761.5 301.49993,761.5 467.1854,761.5 601.5,626.67854 601.5,460.36794 L 601.5,1.5 1.5,1.5 z"
       id="path3239"
       style="fill:none;stroke:#000000;stroke-width:3;stroke-miterlimit:4;stroke-opacity:1;stroke-dasharray:none" />
  </g>
</svg>
