<?xml version="1.0" encoding="UTF-8"?>
<svg version="1.0" viewBox="0 0 603 763" xmlns="http://www.w3.org/2000/svg" xmlns:cc="http://creativecommons.org/ns#" xmlns:dc="http://purl.org/dc/elements/1.1/" xmlns:rdf="http://www.w3.org/1999/02/22-rdf-syntax-ns#" xmlns:xlink="http://www.w3.org/1999/xlink">
<desc>Coat of Arms of Canton of Freiburg (Fribourg)</desc>
<metadata>
<rdf:RDF>
<cc:Work rdf:about="">
<dc:format>image/svg+xml</dc:format>
<dc:type rdf:resource="http://purl.org/dc/dcmitype/StillImage"/>
<dc:date>07-AUG-2006</dc:date>
<dc:creator>
<cc:Agent>
<dc:title>Jérôme BLUM (wagner51)</dc:title>
</cc:Agent>
</dc:creator>
<cc:license rdf:resource="http://creativecommons.org/licenses/GPL/2.0/"/>
<dc:coverage/>
<dc:description>Gabarit pour le Projet:Blasons de WIkipédia</dc:description>
<dc:subject>
<rdf:Bag>
<rdf:li>blason suisse modèle gabarit projet blasons</rdf:li>
</rdf:Bag>
</dc:subject>
<dc:language>fr</dc:language>
<dc:title/>
</cc:Work>
<cc:License rdf:about="http://creativecommons.org/licenses/GPL/2.0/">
<cc:permits rdf:resource="http://web.resource.org/cc/Reproduction"/>
<cc:permits rdf:resource="http://web.resource.org/cc/Distribution"/>
<cc:requires rdf:resource="http://web.resource.org/cc/Notice"/>
<cc:permits rdf:resource="http://web.resource.org/cc/DerivativeWorks"/>
<cc:requires rdf:resource="http://web.resource.org/cc/ShareAlike"/>
<cc:requires rdf:resource="http://web.resource.org/cc/SourceCode"/>
</cc:License>
</rdf:RDF>
</metadata>
<defs>
<radialGradient id="a" cx="858.04" cy="579.93" r="300" gradientTransform="matrix(1.215 0 0 1.2667 -839.19 -490.49)" gradientUnits="userSpaceOnUse">
<stop stop-color="#fff" stop-opacity=".31373" offset="0"/>
<stop stop-color="#fff" stop-opacity=".25098" offset=".19"/>
<stop stop-color="#6b6b6b" stop-opacity=".12549" offset=".6"/>
<stop stop-opacity=".12549" offset="1"/>
</radialGradient>
</defs>
<g>
<path d="m1.5 1.5v458.87c0 166.31 134.31 301.13 300 301.13 165.69 0 300-134.82 300-301.13v-458.87h-600z" fill="#fff"/>
<g transform="translate(433,-5)">
<path d="m-431.5 104.78 540.13 541.69c31.349-37.089 53.961-108.44 55.954-137.78l-503.87-502.51h-92.219z" fill="#e20909" fill-rule="evenodd" stroke="#000" stroke-width="3"/>
<rect y="3.3751e-14" width="600" height="660" fill="none"/>
</g>
<g transform="matrix(-1.1453 -1.152 1.8927 -1.8817 720.08 279.98)" fill="#fcef3c" stroke="#000" stroke-width="1.4408">
<path d="m70.745-121.03c4.7272-3e-3 58.118 0.86323 97.741 1.284 39.623 0.42073 84.683 0.80496 159.52 0.91766 6.1e-4 -0.4125 1.6331-1.0531 3.9592-1.0421 2.3114 0.011 2.1098 0.81356 4.1336 1.2566 0.825 0 7.9007-2.5524 8.4766-2.2904 2.9586 1.346 7.8276 1.7009 21.718 4.0292-13.595 2.3673-17.407 2.6383-21.004 4.0623-0.69558 0.37456-8.518-2.0649-9.3755-2.0649-2.0627 0.65291-2.0419 1.2754-4.3147 1.3309-2.2728 0.0555-3.836-0.72257-3.836-1.3387 0 0-118.09-0.35472-159.71 0.13029-41.616 0.48499-92.684 0.89077-97.205 0.89991-4.5054 9e-3 -16.767 7.5104-22.238 7.8308 0.10561-0.44249 0.91294-4.1529 0.91294-4.1529l-0.13308-3.9437-14.013-0.10298c-12.504-0.0919-12.986 0.0233-13.394 1.5093-0.80171 2.922-1.0675 3.0096-3.3014 0.80234-1.5005-1.4826-3.0007-1.3262-20.425-1.4652l-17.827-0.14981s-0.63834-0.10602-0.63834-3.5626c0-3.5612 0.30308-3.5626 0.30308-3.5626l18.642-0.0651c16.451-0.0575 19.488 0.21 20.623-1.8551 1.1788-2.1448 1.4774-2.6589 2.5149 0.25 0.66916 1.8761 1.2857 2.04 14.127 2.04h13.594v-4.1113l-0.94141-4.2159c5.8562 0.4282 17.219 7.5827 22.089 7.5802zm267.03 4.2344 26.981-0.09-26.981 0.09z"/>
<path d="m22.238-121.59c0.73221 3.0334 0.94141 4.8117 0.3138 7.8451" fill-rule="evenodd"/>
<path d="m50.059-120.26c-0.0135-0.0135-1.7645 8e-3 -2.8286-0.0373 2.21e-4 -2.9585 0.40265-8.2999 1.1114-8.356 0.41397-0.0454 2.1852 4.1101 2.108 11.363-0.07716 7.2528-0.61501 11.63-2.1136 11.287-1.2555-1.1225-0.90175-6.6069-1.1138-8.1549 0.81606-9e-3 1.5166-0.0559 2.9971 0.0518" fill-rule="evenodd"/>
<path d="m336.17-118.36s-0.38333-0.87568-0.38333 1.6348 0.19103 1.4861 0.19103 1.4861" fill-rule="evenodd"/>
<path d="m328.02-118.83s-0.0651-0.46661-0.0651 2.0438 0.0801 2.3016 0.0801 2.3016" fill-rule="evenodd"/>
</g>
<path d="m545.34 105.29c-2.5523 0-4.9298 0.74261-6.9342 2.0194 0.83736-1.7122 1.3084-3.6364 1.3084-5.6712 0-7.141-5.7885-12.929-12.929-12.929-7.1406 0-12.929 5.7885-12.929 12.929 0 2.4576 0.68576 4.7549 1.8764 6.7115h-40.27v-40.27c1.9566 1.1907 4.2539 1.8765 6.7115 1.8765 7.141 0 12.929-5.7889 12.929-12.929 0-7.1406-5.7885-12.929-12.929-12.929-2.0344 0-3.9586 0.47138-5.6712 1.3087 1.2768-2.0044 2.0194-4.3822 2.0194-6.9346 0-7.1406-5.7885-12.929-12.929-12.929-7.1406 0-12.929 5.7888-12.929 12.929 0 2.5523 0.74261 4.9302 2.0194 6.9342-1.7126-0.83696-3.6364-1.3083-5.6712-1.3083-7.1406 0-12.929 5.7888-12.929 12.929 0 7.1406 5.7888 12.929 12.929 12.929 2.4576 0 4.7549-0.68576 6.7115-1.8765v40.27h-40.27c1.1907-1.9566 1.8765-4.2539 1.8765-6.7115 0-7.141-5.7889-12.929-12.929-12.929-7.1406 0-12.929 5.7885-12.929 12.929 0 2.0348 0.47138 3.9586 1.3087 5.6712-2.0044-1.2768-4.3822-2.0194-6.9345-2.0194-7.1406 0-12.929 5.7885-12.929 12.929 0 7.1406 5.7888 12.929 12.929 12.929 2.5523 0 4.9302-0.7426 6.9341-2.0194-0.83696 1.7126-1.3083 3.6364-1.3083 5.6712 0 7.1406 5.7889 12.929 12.929 12.929 7.1406 0 12.929-5.7888 12.929-12.929 0-2.4576-0.68577-4.7549-1.8765-6.7115h40.27v40.27c-1.9566-1.1907-4.2539-1.8765-6.7115-1.8765-7.1406 0-12.929 5.7889-12.929 12.929 0 7.141 5.7888 12.929 12.929 12.929 2.0348 0 3.9586-0.47099 5.6712-1.3083-1.2768 2.0044-2.0194 4.3822-2.0194 6.9341 0 7.141 5.7888 12.929 12.929 12.929 7.141 0 12.929-5.7885 12.929-12.929 0-2.5523-0.74261-4.9298-2.0194-6.9341 1.7126 0.83735 3.6368 1.3083 5.6712 1.3083 7.141 0 12.929-5.7885 12.929-12.929 0-7.1406-5.7885-12.929-12.929-12.929-2.4576 0-4.7549 0.68576-6.7115 1.8765v-40.27h40.27c-1.1907 1.9566-1.8764 4.2539-1.8764 6.7115 0 7.1406 5.7888 12.929 12.929 12.929 7.141 0 12.929-5.7888 12.929-12.929 0-2.0348-0.47099-3.9586-1.3084-5.6712 2.0044 1.2768 4.3822 2.0194 6.9342 2.0194 7.141 0 12.929-5.7888 12.929-12.929 0-7.141-5.7885-12.929-12.929-12.929z" fill="#e20909" stroke="#000" stroke-width="2.6446"/>
<path d="m212.59 437.23c-2.5523 0-4.9298 0.74261-6.9342 2.0194 0.83736-1.7122 1.3084-3.6364 1.3084-5.6712 0-7.141-5.7885-12.929-12.929-12.929-7.1406 0-12.929 5.7885-12.929 12.929 0 2.4576 0.68576 4.7549 1.8764 6.7115h-40.27v-40.27c1.9566 1.1907 4.2539 1.8765 6.7115 1.8765 7.141 0 12.929-5.7889 12.929-12.929 0-7.1406-5.7885-12.929-12.929-12.929-2.0344 0-3.9586 0.47138-5.6712 1.3087 1.2768-2.0044 2.0194-4.3822 2.0194-6.9346 0-7.1406-5.7885-12.929-12.929-12.929-7.1406 0-12.929 5.7888-12.929 12.929 0 2.5523 0.74261 4.9302 2.0194 6.9342-1.7126-0.83696-3.6364-1.3083-5.6712-1.3083-7.1406 0-12.929 5.7888-12.929 12.929 0 7.1406 5.7888 12.929 12.929 12.929 2.4576 0 4.7549-0.68576 6.7115-1.8765v40.27h-40.27c1.1907-1.9566 1.8765-4.2539 1.8765-6.7115 0-7.141-5.7889-12.929-12.929-12.929-7.1406 0-12.929 5.7885-12.929 12.929 0 2.0348 0.47138 3.9586 1.3087 5.6712-2.0044-1.2768-4.3822-2.0194-6.9345-2.0194-7.1406 0-12.929 5.7885-12.929 12.929 0 7.1406 5.7888 12.929 12.929 12.929 2.5523 0 4.9302-0.7426 6.9341-2.0194-0.83696 1.7126-1.3083 3.6364-1.3083 5.6712 0 7.1406 5.7889 12.929 12.929 12.929 7.1406 0 12.929-5.7888 12.929-12.929 0-2.4576-0.68577-4.7549-1.8765-6.7115h40.27v40.27c-1.9566-1.1907-4.2539-1.8765-6.7115-1.8765-7.1406 0-12.929 5.7889-12.929 12.929 0 7.141 5.7888 12.929 12.929 12.929 2.0348 0 3.9586-0.47099 5.6712-1.3083-1.2768 2.0044-2.0194 4.3822-2.0194 6.9341 0 7.141 5.7888 12.929 12.929 12.929 7.141 0 12.929-5.7885 12.929-12.929 0-2.5523-0.74261-4.9298-2.0194-6.9341 1.7126 0.83735 3.6368 1.3083 5.6712 1.3083 7.141 0 12.929-5.7885 12.929-12.929 0-7.1406-5.7885-12.929-12.929-12.929-2.4576 0-4.7549 0.68576-6.7115 1.8765v-40.27h40.27c-1.1907 1.9566-1.8764 4.2539-1.8764 6.7115 0 7.1406 5.7888 12.929 12.929 12.929 7.141 0 12.929-5.7888 12.929-12.929 0-2.0348-0.47099-3.9586-1.3084-5.6712 2.0044 1.2768 4.3822 2.0194 6.9342 2.0194 7.141 0 12.929-5.7888 12.929-12.929 0-7.141-5.7885-12.929-12.929-12.929z" fill="#e20909" stroke="#000" stroke-width="2.6446"/>
<path d="m1.5 1.5v458.87c0 166.31 134.31 301.13 300 301.13 165.69 0 300-134.82 300-301.13v-458.87h-600z" fill="url(#a)"/>
<path d="m1.5 1.5v458.87c0 166.31 134.31 301.13 300 301.13 165.69 0 300-134.82 300-301.13v-458.87h-600z" fill="none" stroke="#000" stroke-width="3"/>
</g>
</svg>
