<?xml version="1.0" encoding="UTF-8"?>
<svg version="1.0" viewBox="0 0 603 763" xmlns="http://www.w3.org/2000/svg" xmlns:cc="http://creativecommons.org/ns#" xmlns:dc="http://purl.org/dc/elements/1.1/" xmlns:rdf="http://www.w3.org/1999/02/22-rdf-syntax-ns#" xmlns:xlink="http://www.w3.org/1999/xlink">
<metadata>
<rdf:RDF>
<cc:Work rdf:about="">
<dc:format>image/svg+xml</dc:format>
<dc:type rdf:resource="http://purl.org/dc/dcmitype/StillImage"/>
<dc:date>09-JUN-2010</dc:date>
<dc:creator>
<cc:Agent>
<dc:title>Aliman5040</dc:title>
</cc:Agent>
</dc:creator>
<cc:license rdf:resource="http://creativecommons.org/licenses/GPL/2.0/"/>
<dc:coverage/>
<dc:description/>
<dc:subject>
<rdf:Bag/>
</dc:subject>
<dc:language/>
<dc:title>Wappen Gemeinde Ferpicloz</dc:title>
</cc:Work>
<cc:License rdf:about="http://creativecommons.org/licenses/GPL/2.0/">
<cc:permits rdf:resource="http://web.resource.org/cc/Reproduction"/>
<cc:permits rdf:resource="http://web.resource.org/cc/Distribution"/>
<cc:requires rdf:resource="http://web.resource.org/cc/Notice"/>
<cc:permits rdf:resource="http://web.resource.org/cc/DerivativeWorks"/>
<cc:requires rdf:resource="http://web.resource.org/cc/ShareAlike"/>
<cc:requires rdf:resource="http://web.resource.org/cc/SourceCode"/>
</cc:License>
</rdf:RDF>
</metadata>
<defs>
<radialGradient id="a" cx="858.04" cy="579.93" r="300" gradientTransform="matrix(1.215 1.5316e-24 1.4647e-23 1.2667 -839.19 -490.49)" gradientUnits="userSpaceOnUse">
<stop stop-color="#fff" stop-opacity=".31373" offset="0"/>
<stop stop-color="#fff" stop-opacity=".25098" offset=".19"/>
<stop stop-color="#6b6b6b" stop-opacity=".12549" offset=".6"/>
<stop stop-opacity=".12549" offset="1"/>
</radialGradient>
</defs>
<g>
<path d="m1.5 1.5v458.87c0 166.31 134.31 301.13 300 301.13 165.69 0 300-134.82 300-301.13v-458.87h-600z" fill="#fff"/>
<path d="m127.06 180.44c-7.0682 0.23689-14.053 1.6512-20.875 4.3125-106.53 41.555-25.484 130.6 4.125 155.53 26.227 22.08 39.734 36.757 4.4688 47.656 9.2701 21.057 46.235 27.529 54.531-0.4375 11.022-37.155-4.0508-102.18 42.5-47.219 18.236 21.532 25.363 46.504 27.281 60.469h35.719c-7.0001-120.94-80.936-222.55-147.75-220.31zm345.34 0c-65.86 1.3717-137.29 101.5-144.16 220.31h35.719c1.9186-13.965 9.0139-38.937 27.25-60.469 46.551-54.964 31.509 10.064 42.531 47.219 8.2961 27.967 45.261 21.495 54.531 0.4375-35.266-10.899-21.758-25.576 4.4688-47.656 29.609-24.927 110.56-113.98 4.0312-155.53-7.9592-3.1049-16.101-4.4848-24.375-4.3125zm-331.28 257.5c-7.3131 0.07226-15.509 2.4899-23.5 5.75 5.782 14.31 20.16 22.631-7.3125 47.75-30.812 28.172 13.746 87.927 54.969 87.344 58.037-0.8208 98.826-55.047 108.06-128.56h-40.594c-18.954 75.738-61.251 68.902-67.469 13.719-2.2405-19.757-11.968-26.12-24.156-26zm320.81 0c-12.189-0.12042-21.916 6.2428-24.156 26-6.218 55.183-48.515 62.019-67.469-13.719h-40.625c9.2363 73.516 50.057 127.74 108.09 128.56 41.223 0.58307 85.781-59.171 54.969-87.344-27.473-25.119-13.095-33.44-7.3125-47.75-7.9906-3.2601-16.187-5.6778-23.5-5.75zm138.06-434.94-300 380 222.12 281.38c42.904-46.726 71.269-107.1 77.875-173.91v-487.47zm-300 380-298.5-378.09v455.47c0 77.854 29.443 148.8 77.75 202.25l220.75-279.62zm-68.344 17.75c-8.2446-1e-5 -8.2446 13.719 0 13.719h54.344-81.812c-13.741-2e-5 -13.741 22 0 22l80.812-0.06716-58.844 0.06716c-8.2446 1e-5 -8.2446 13.75 0 13.75h58.844c1.0608-12.351 1.625-26.044 1.625-41.25 0-2.764-0.0708-5.4905-0.15625-8.2188h-54.812zm88.125 0c-0.05599 0.91673-0.13501 1.8226-0.1875 2.75-0.98929 17.477-0.92187 32.942-0.09375 46.719h55.062c8.2446 0 8.2446-13.75 0-13.75l-54.562-0.46875 76.562 0.46875c13.741 1e-5 13.741-22 0-22h-76.562 49.062c8.2446-2e-5 8.2446-13.719 0-13.719h-49.281zm-19.781-280.33c35.727 32.979 113.05 16.489 99.306 60.461-19.848 63.513-71.453 76.95-79.698 222.6-8.8581 156.49 64.146 153.19 57.712 195.12-6.638 43.264-49.838 16.489-77.32 43.971v-522.16 522.16c-30.23-27.482-82.076-1.2e-4 -82.076-41.223 0-41.223 68.705-27.482 68.705-192.37 0-115.89-76.95-200.62-76.95-233.6 0-52.216 60.091-21.986 90.321-54.964z" fill="#e20909" fill-rule="evenodd" stroke="#000" stroke-width="2.7482"/>
<path d="m349.09 450.49c7.2466 44.405 29.935 95.907 74.953 95.907 88.949 0-8.5354-96.187 60.248-102.28m2.9608-54.364c-46.72 16.489-43.853-31.57-27.482-60.461 46.72-82.446-17.437-76.749-49.468-43.971-25.075 25.659-57.082 60.056-62.926 115.61" fill="none" stroke="#000" stroke-width="2.7482"/>
<path d="m253.99 450.18c-7.1926 44.474-29.882 96.21-75.002 96.21-88.949 0 8.5354-96.187-60.248-102.28m-2.9608-54.364c46.72 16.489 43.853-31.57 27.482-60.461-46.72-82.446 17.437-76.749 49.468-43.971 24.981 25.563 56.842 59.798 62.86 114.99" fill="none" stroke="#000" stroke-width="2.7482"/>
<path d="m1.5 1.5v458.87c0 166.31 134.31 301.13 300 301.13 165.69 0 300-134.82 300-301.13v-458.87h-600z" fill="url(#a)"/>
<path d="m1.5 1.5v458.87c0 166.31 134.31 301.13 300 301.13 165.69 0 300-134.82 300-301.13v-458.87h-600z" fill="none" stroke="#000" stroke-width="3"/>
</g>
</svg>
