<?xml version="1.0" encoding="UTF-8" standalone="no"?>
<svg
   xmlns:dc="http://purl.org/dc/elements/1.1/"
   xmlns:cc="http://creativecommons.org/ns#"
   xmlns:rdf="http://www.w3.org/1999/02/22-rdf-syntax-ns#"
   xmlns:svg="http://www.w3.org/2000/svg"
   xmlns="http://www.w3.org/2000/svg"
   xmlns:sodipodi="http://sodipodi.sourceforge.net/DTD/sodipodi-0.dtd"
   xmlns:inkscape="http://www.inkscape.org/namespaces/inkscape"
   version="1.0"
   width="214.63611"
   height="251.41273"
   id="svg2780"
   sodipodi:docname="220.svg">
  <metadata
     id="metadata155">
    <rdf:RDF>
      <cc:Work
         rdf:about="">
        <dc:format>image/svg+xml</dc:format>
        <dc:type
           rdf:resource="http://purl.org/dc/dcmitype/StillImage" />
      </cc:Work>
    </rdf:RDF>
  </metadata>
  <sodipodi:namedview
     pagecolor="#ffffff"
     bordercolor="#666666"
     borderopacity="1"
     objecttolerance="10"
     gridtolerance="10"
     guidetolerance="10"
     inkscape:pageopacity="0"
     inkscape:pageshadow="2"
     inkscape:window-width="640"
     inkscape:window-height="480"
     id="namedview153" />
  <defs
     id="defs2782" />
  <g
     transform="translate(-16.716535,-803.3307)"
     id="layer1">
    <path
       d="M 17.716535,804.3307 L 21.582641,966.73901 C 24.344139,1082.7449 223.72502,1082.7449 226.48653,966.73901 L 230.35264,804.3307 L 17.716535,804.3307 z"
       id="path3282"
       style="fill:#fff042;fill-opacity:1;fill-rule:evenodd;stroke:none;stroke-width:2;stroke-linecap:butt;stroke-miterlimit:4;stroke-dashoffset:0;stroke-opacity:1" />
    <path
       d="M 132.55514,864.57922 C 127.03913,858.55739 133.79727,849.9355 135.42919,848.18272 C 137.06117,850.50817 139.71488,858.43208 132.55514,864.57922 z"
       id="path3371"
       style="fill:#23432a;fill-opacity:1;fill-rule:evenodd;stroke:#000000;stroke-width:1px;stroke-linecap:butt;stroke-linejoin:miter;stroke-opacity:1" />
    <path
       d="M 173.65625,180 L 141.28125,191.625 L 109.375,182.28125 L 73.78125,189.15625 L 42,180.71875 L 24.90625,185.03125 C 25.139306,185.85226 25.400515,186.66345 25.65625,187.46875 L 42,183.34375 L 73.78125,191.8125 L 109.375,184.90625 L 141.28125,194.28125 L 173.65625,182.65625 L 204.96875,192.03125 L 222,188.78125 C 222.31481,187.84501 222.62248,186.89542 222.90625,185.9375 L 204.96875,189.375 L 173.65625,180 z"
       transform="translate(0,804.33069)"
       id="path3361"
       style="fill:#000000;fill-opacity:1;fill-rule:evenodd;stroke:none;stroke-width:1px;stroke-linecap:butt;stroke-linejoin:miter;stroke-opacity:1" />
    <path
       d="M 73.4375,180.90625 L 40.9375,187.9375 L 24.875,184.96875 C 25.140919,185.90848 25.454426,186.83082 25.75,187.75 L 40.9375,190.5625 L 73.4375,183.53125 L 107.0625,191.125 L 141.09375,184.75 L 174.1875,191.4375 L 206.03125,184.53125 L 222.03125,188.625 C 222.29677,187.83026 222.56927,187.02907 222.8125,186.21875 L 206.03125,181.90625 L 174.1875,188.8125 L 141.09375,182.125 L 107.0625,188.5 L 73.4375,180.90625 z"
       transform="translate(0,804.33069)"
       id="path3363"
       style="fill:#000000;fill-opacity:1;fill-rule:evenodd;stroke:none;stroke-width:1px;stroke-linecap:butt;stroke-linejoin:miter;stroke-opacity:1" />
    <path
       d="M 173.5,163.4375 L 144.09375,174.71875 L 107.25,164.46875 L 74.15625,174.34375 L 42.71875,164.3125 L 22.0625,170 C 22.151925,170.87367 22.262421,171.7345 22.375,172.59375 L 42.71875,166.96875 L 74.15625,177 L 107.25,167.09375 L 144.09375,177.34375 L 173.5,166.0625 L 204.78125,175.28125 L 225.96875,170.5 C 226.06511,169.60556 226.14714,168.69089 226.21875,167.78125 L 204.78125,172.625 L 173.5,163.4375 z"
       transform="translate(0,804.33069)"
       id="path3355"
       style="fill:#000000;fill-opacity:1;fill-rule:evenodd;stroke:none;stroke-width:1px;stroke-linecap:butt;stroke-linejoin:miter;stroke-opacity:1" />
    <path
       d="M 206.375,164.09375 L 174.1875,173.65625 L 141.09375,165.1875 L 107.78125,173.3125 L 74.84375,165.375 L 41.46875,172.9375 L 21.8125,167.03125 C 21.877037,167.9414 21.942041,168.85494 22.03125,169.75 L 41.46875,175.5625 L 74.84375,168 L 107.78125,175.96875 L 141.09375,167.84375 L 174.1875,176.28125 L 206.375,166.71875 L 225.78125,171.8125 C 225.88361,170.9756 225.98199,170.13169 226.0625,169.28125 L 206.375,164.09375 z"
       transform="translate(0,804.33069)"
       id="path3359"
       style="fill:#000000;fill-opacity:1;fill-rule:evenodd;stroke:none;stroke-width:1px;stroke-linecap:butt;stroke-linejoin:miter;stroke-opacity:1" />
    <path
       d="M 74.34375,147.71875 L 39.625,155.71875 L 21.3125,150.09375 L 21.375,152.75 L 39.625,158.34375 L 74.34375,150.375 L 108.03125,159.4375 L 141.71875,150.625 L 173.96875,159.4375 L 207.6875,150.375 L 226.65625,156.1875 L 226.71875,153.5625 L 207.6875,147.71875 L 173.96875,156.8125 L 141.71875,147.96875 L 108.03125,156.8125 L 74.34375,147.71875 z"
       transform="translate(0,804.33069)"
       id="path3357"
       style="fill:#000000;fill-opacity:1;fill-rule:evenodd;stroke:none;stroke-width:1px;stroke-linecap:butt;stroke-linejoin:miter;stroke-opacity:1" />
    <path
       d="M 41.625,145 L 21.3125,151.125 L 21.375,153.71875 L 41.625,147.625 L 74.09375,160.59375 L 107.0625,152.09375 L 139.53125,162.09375 L 173,149.625 L 206.1875,160.59375 L 226.71875,152.8125 L 226.78125,150.15625 L 206.1875,157.9375 L 173,146.96875 L 139.53125,159.4375 L 107.0625,149.46875 L 74.09375,157.9375 L 41.625,145 z"
       transform="translate(0,804.33069)"
       id="path3349"
       style="fill:#000000;fill-opacity:1;fill-rule:evenodd;stroke:none;stroke-width:1px;stroke-linecap:butt;stroke-linejoin:miter;stroke-opacity:1" />
    <path
       d="M 118.6586,199.05115 C 117.77717,191.2925 117.75948,150.55 118.55532,138.01536 C 118.90184,132.55752 116.57412,114.65015 118.20265,107.13593 C 118.9586,103.64792 110.06736,94.533445 103.86371,90.802025 L 106.8639,87.700275 C 110.70964,91.113066 115.06688,92.78889 118.45202,96.662282 C 117.03698,90.829412 117.19925,85.20591 118.95076,79.954313 C 122.01058,70.779981 114.23957,78.102189 118.70139,49.78022 L 124.68633,50.528338 C 121.18613,60.249673 118.20167,72.135287 132.2922,59.131695 L 135.28467,64.119149 C 127.9851,67.231464 124.53647,68.568745 125.06039,70.86614 C 127.81335,82.937916 121.1872,83.614254 124.38981,93.502338 C 129.1141,85.917411 133.97275,79.742682 139.14995,73.969369 L 141.73228,79.455568 C 137.57862,84.756563 132.97137,89.150377 129.67379,96.163537 C 137.39124,90.974779 142.86529,92.267408 148.00268,93.171065 L 147.62862,98.657264 C 140.88689,97.731519 126.26179,95.986638 129.67379,115.36523 C 131.48235,125.63699 129.08742,139.30067 129.92316,166.736 C 130.30993,179.37491 130.18411,191.20994 130.42191,203.14441 L 118.6586,199.05115 z"
       transform="translate(0,804.33069)"
       id="path2542"
       style="fill:#c74224;fill-opacity:1;fill-rule:evenodd;stroke:#000000;stroke-width:1px;stroke-linecap:butt;stroke-linejoin:miter;stroke-opacity:1" />
    <rect
       width="8.5901022"
       height="57.671558"
       x="37.249599"
       y="945.31488"
       id="rect3318"
       style="fill:#000000;fill-opacity:1;fill-rule:evenodd;stroke:none;stroke-width:1.00000012px;stroke-linecap:butt;stroke-linejoin:miter;marker:none;marker-start:none;marker-mid:none;marker-end:none;stroke-miterlimit:4;stroke-dasharray:none;stroke-dashoffset:0;stroke-opacity:1;visibility:visible;display:inline;overflow:visible;enable-background:accumulate" />
    <path
       d="M 99.037541,827.00472 C 99.737047,819.30356 107.72374,816.90491 111.10972,818.18194 C 113.39974,823.57388 108.05867,826.80537 99.037541,827.00472 z"
       id="path3504"
       style="fill:#23432a;fill-opacity:1;fill-rule:evenodd;stroke:#000000;stroke-width:1px;stroke-linecap:butt;stroke-linejoin:miter;stroke-opacity:1" />
    <path
       d="M 95.296951,830.87 C 95.996457,823.16884 102.6116,822.04722 104.8754,824.0422 C 107.16542,829.43414 104.31808,830.67065 95.296951,830.87 z"
       id="path3502"
       style="fill:#23432a;fill-opacity:1;fill-rule:evenodd;stroke:#000000;stroke-width:1px;stroke-linecap:butt;stroke-linejoin:miter;stroke-opacity:1" />
    <path
       d="M 160.14727,832.95589 C 158.97655,838.52944 147.572,836.01509 144.50804,832.77937 C 150.00095,829.42018 158.52917,829.16386 160.14727,832.95589 z"
       id="path3478"
       style="fill:#23432a;fill-opacity:1;fill-rule:evenodd;stroke:#000000;stroke-width:1px;stroke-linecap:butt;stroke-linejoin:miter;stroke-opacity:1" />
    <path
       d="M 181.04585,842.78716 C 175.47107,848.35041 172.01188,843.2125 171.00625,840.37923 C 174.14066,838.82246 179.47408,838.59465 181.04585,842.78716 z"
       id="path3452"
       style="fill:#23432a;fill-opacity:1;fill-rule:evenodd;stroke:#000000;stroke-width:1px;stroke-linecap:butt;stroke-linejoin:miter;stroke-opacity:1" />
    <path
       d="M 187.20495,849.27085 C 179.75987,855.33285 174.92914,848.57401 173.92351,845.74074 C 178.55415,843.18648 186.3813,844.70428 187.20495,849.27085 z"
       id="path3454"
       style="fill:#23432a;fill-opacity:1;fill-rule:evenodd;stroke:#000000;stroke-width:1px;stroke-linecap:butt;stroke-linejoin:miter;stroke-opacity:1" />
    <path
       d="M 191.84704,857.48029 C 183.36585,861.9799 180.43942,853.90613 180.00356,850.93145 C 186.41385,848.82702 191.92652,852.84072 191.84704,857.48029 z"
       id="path3456"
       style="fill:#23432a;fill-opacity:1;fill-rule:evenodd;stroke:#000000;stroke-width:1px;stroke-linecap:butt;stroke-linejoin:miter;stroke-opacity:1" />
    <path
       d="M 195.58763,865.60256 C 187.10644,870.10217 181.31222,860.03341 180.87636,857.05873 C 189.15695,853.45807 194.88189,860.21487 195.58763,865.60256 z"
       id="path3458"
       style="fill:#23432a;fill-opacity:1;fill-rule:evenodd;stroke:#000000;stroke-width:1px;stroke-linecap:butt;stroke-linejoin:miter;stroke-opacity:1" />
    <path
       d="M 199.7274,878.07517 C 191.0252,878.18541 185.12746,868.21539 184.94535,863.50848 C 193.15627,864.6754 197.7983,870.96098 199.7274,878.07517 z"
       id="path3362"
       style="fill:#23432a;fill-opacity:1;fill-rule:evenodd;stroke:#000000;stroke-width:0.99999994px;stroke-linecap:butt;stroke-linejoin:miter;stroke-opacity:1" />
    <path
       d="M 128.72921,871.63263 C 125.78109,861.78812 137.61511,855.6063 140.13671,856.61597 C 140.47233,859.43704 139.69962,871.12559 128.72921,871.63263 z"
       id="path3448"
       style="fill:#23432a;fill-opacity:1;fill-rule:evenodd;stroke:#000000;stroke-width:1px;stroke-linecap:butt;stroke-linejoin:miter;stroke-opacity:1" />
    <path
       d="M 134.07696,883.57297 C 127.90732,875.19683 134.97601,867.17374 137.68644,866.9963 C 139.20668,869.39629 142.56078,876.46412 134.07696,883.57297 z"
       id="path3446"
       style="fill:#23432a;fill-opacity:1;fill-rule:evenodd;stroke:#000000;stroke-width:1px;stroke-linecap:butt;stroke-linejoin:miter;stroke-opacity:1" />
    <path
       d="M 57.207792,852.64133 C 56.190757,844.76305 64.933393,844.03042 68.812885,844.62653 C 67.678542,848.74206 63.592754,851.41824 57.207792,852.64133 z"
       id="path3418"
       style="fill:#23432a;fill-opacity:1;fill-rule:evenodd;stroke:#000000;stroke-width:1px;stroke-linecap:butt;stroke-linejoin:miter;stroke-opacity:1" />
    <path
       d="M 52.427416,857.41074 C 55.730709,849.88296 64.431465,845.21617 69.632629,846.43605 C 69.596518,852.37025 59.53295,858.42058 52.427416,857.41074 z"
       id="path3416"
       style="fill:#23432a;fill-opacity:1;fill-rule:evenodd;stroke:#000000;stroke-width:1px;stroke-linecap:butt;stroke-linejoin:miter;stroke-opacity:1" />
    <path
       d="M 54.290572,865.16272 C 54.261233,857.35338 63.567087,850.78388 68.907611,850.92174 C 70.077744,856.73955 61.033639,867.5966 54.290572,865.16272 z"
       id="path3414"
       style="fill:#23432a;fill-opacity:1;fill-rule:evenodd;stroke:#000000;stroke-width:1px;stroke-linecap:butt;stroke-linejoin:miter;stroke-opacity:1" />
    <path
       d="M 49.825348,876.2598 C 49.796009,868.45046 60.473413,861.63159 65.813937,861.76945 C 66.98407,867.58726 56.06967,877.07276 49.825348,876.2598 z"
       id="path3396"
       style="fill:#23432a;fill-opacity:1;fill-rule:evenodd;stroke:#000000;stroke-width:1px;stroke-linecap:butt;stroke-linejoin:miter;stroke-opacity:1" />
    <path
       d="M 52.594398,883.10696 C 50.704558,874.48056 61.192803,870.63078 64.947609,869.73065 C 66.681051,873.59681 58.97936,881.88387 52.594398,883.10696 z"
       id="path3390"
       style="fill:#23432a;fill-opacity:1;fill-rule:evenodd;stroke:#000000;stroke-width:1px;stroke-linecap:butt;stroke-linejoin:miter;stroke-opacity:1" />
    <path
       d="M 198.79208,894.70186 C 190.15438,893.63862 185.6571,883.24804 186.11083,878.55951 C 192.97771,880.67087 199.44523,887.61102 198.79208,894.70186 z"
       id="path3314"
       style="fill:#23432a;fill-opacity:1;fill-rule:evenodd;stroke:#000000;stroke-width:0.99999994px;stroke-linecap:butt;stroke-linejoin:miter;stroke-opacity:1" />
    <path
       d="M 142.43095,918.05159 C 136.01193,908.97706 142.83125,903.02392 145.54168,901.35024 C 147.06192,903.75023 149.29385,912.68835 142.43095,918.05159 z"
       id="path3294"
       style="fill:#23432a;fill-opacity:1;fill-rule:evenodd;stroke:#000000;stroke-width:1px;stroke-linecap:butt;stroke-linejoin:miter;stroke-opacity:1" />
    <path
       d="M 48.479749,893.33124 C 46.465223,883.95672 56.579409,880.35631 60.334215,879.45618 C 62.067657,883.32234 54.864711,892.10815 48.479749,893.33124 z"
       id="path3284"
       style="fill:#23432a;fill-opacity:1;fill-rule:evenodd;stroke:#000000;stroke-width:1px;stroke-linecap:butt;stroke-linejoin:miter;stroke-opacity:1" />
    <path
       d="M 63.379813,919.04908 C 57.958284,910.09924 64.777604,904.02141 66.490547,902.34773 C 68.010785,904.74772 70.866142,914.30927 63.379813,919.04908 z"
       id="path3258"
       style="fill:#23432a;fill-opacity:1;fill-rule:evenodd;stroke:#000000;stroke-width:1px;stroke-linecap:butt;stroke-linejoin:miter;stroke-opacity:1" />
    <path
       d="M 101.20451,921.68866 C 93.946901,917.94487 97.283277,909.25483 98.20868,907.04598 C 100.54392,908.66391 105.04659,914.65238 101.20451,921.68866 z"
       id="path2476"
       style="fill:#23432a;fill-opacity:1;fill-rule:evenodd;stroke:#000000;stroke-width:1px;stroke-linecap:butt;stroke-linejoin:miter;stroke-opacity:1" />
    <path
       d="M 107.81289,917.51167 C 99.728091,916.36063 100.02364,907.05682 100.17183,904.66654 C 102.90904,905.42727 109.12949,909.60361 107.81289,917.51167 z"
       id="path3248"
       style="fill:#23432a;fill-opacity:1;fill-rule:evenodd;stroke:#000000;stroke-width:1px;stroke-linecap:butt;stroke-linejoin:miter;stroke-opacity:1" />
    <path
       d="M 92.166478,920.56503 C 83.78638,912.30135 93.114277,904.74431 94.765226,903.00944 C 96.371732,905.35256 99.944494,915.29454 92.166478,920.56503 z"
       id="path3250"
       style="fill:#23432a;fill-opacity:1;fill-rule:evenodd;stroke:#000000;stroke-width:1px;stroke-linecap:butt;stroke-linejoin:miter;stroke-opacity:1" />
    <path
       d="M 85.620407,920.50271 C 75.53703,914.43312 82.834093,904.90047 84.032482,902.827 C 86.143377,904.72837 92.881772,913.36913 85.620407,920.50271 z"
       id="path3252"
       style="fill:#23432a;fill-opacity:1;fill-rule:evenodd;stroke:#000000;stroke-width:1px;stroke-linecap:butt;stroke-linejoin:miter;stroke-opacity:1" />
    <path
       d="M 78.450943,921.37551 C 70.487234,914.30843 74.293079,906.58373 76.863018,903.6998 C 78.973913,905.60117 84.091386,913.36913 78.450943,921.37551 z"
       id="path3254"
       style="fill:#23432a;fill-opacity:1;fill-rule:evenodd;stroke:#000000;stroke-width:1px;stroke-linecap:butt;stroke-linejoin:miter;stroke-opacity:1" />
    <path
       d="M 58.403265,912.77206 C 55.731984,902.55724 62.277079,897.40368 64.221895,896.00615 C 65.364562,898.60719 67.584484,907.48044 58.403265,912.77206 z"
       id="path3256"
       style="fill:#23432a;fill-opacity:1;fill-rule:evenodd;stroke:#000000;stroke-width:1px;stroke-linecap:butt;stroke-linejoin:miter;stroke-opacity:1" />
    <path
       d="M 50.350044,901.37351 C 47.774429,889.94167 57.701586,883.72284 59.83547,882.63568 C 61.568912,886.50184 62.158862,896.34749 50.350044,901.37351 z"
       id="path3262"
       style="fill:#23432a;fill-opacity:1;fill-rule:evenodd;stroke:#000000;stroke-width:1px;stroke-linecap:butt;stroke-linejoin:miter;stroke-opacity:1" />
    <path
       d="M 53.595793,904.55649 C 52.269701,892.91337 61.166849,891.38696 63.405652,890.53658 C 63.840991,893.34399 63.829045,901.80393 53.595793,904.55649 z"
       id="path3260"
       style="fill:#23432a;fill-opacity:1;fill-rule:evenodd;stroke:#000000;stroke-width:1px;stroke-linecap:butt;stroke-linejoin:miter;stroke-opacity:1" />
    <path
       d="M 70.658047,916.38806 C 59.265463,910.6299 64.193486,894.67619 68.384347,893.22615 C 73.300685,894.3794 78.979246,907.13481 70.658047,916.38806 z"
       id="path3286"
       style="fill:#23432a;fill-opacity:1;fill-rule:evenodd;stroke:#000000;stroke-width:1px;stroke-linecap:butt;stroke-linejoin:miter;stroke-opacity:1" />
    <path
       d="M 111.11708,911.27735 C 103.03228,910.12631 99.58724,903.06685 100.54589,897.43473 C 107.46009,899.50467 112.43368,903.36929 111.11708,911.27735 z"
       id="path3288"
       style="fill:#23432a;fill-opacity:1;fill-rule:evenodd;stroke:#000000;stroke-width:1px;stroke-linecap:butt;stroke-linejoin:miter;stroke-opacity:1" />
    <path
       d="M 157.50208,920.50271 C 147.16933,913.06157 152.84547,904.46407 155.91415,902.827 C 158.02505,904.72837 164.88813,912.49633 157.50208,920.50271 z"
       id="path3290"
       style="fill:#23432a;fill-opacity:1;fill-rule:evenodd;stroke:#000000;stroke-width:1px;stroke-linecap:butt;stroke-linejoin:miter;stroke-opacity:1" />
    <path
       d="M 149.77153,920.37802 C 141.0597,913.56031 146.36178,904.58875 148.1836,902.70231 C 153.53634,904.72837 155.53666,913.24444 149.77153,920.37802 z"
       id="path3292"
       style="fill:#23432a;fill-opacity:1;fill-rule:evenodd;stroke:#000000;stroke-width:1px;stroke-linecap:butt;stroke-linejoin:miter;stroke-opacity:1" />
    <path
       d="M 164.73389,921.5002 C 154.40114,914.05906 160.45134,905.58624 165.14094,903.07637 C 167.25184,904.97774 174.23961,913.74319 164.73389,921.5002 z"
       id="path3296"
       style="fill:#23432a;fill-opacity:1;fill-rule:evenodd;stroke:#000000;stroke-width:1px;stroke-linecap:butt;stroke-linejoin:miter;stroke-opacity:1" />
    <path
       d="M 173.21256,920.12865 C 163.75262,913.56031 170.05219,899.85067 174.74179,897.3408 C 176.85269,899.24217 182.71828,912.99507 173.21256,920.12865 z"
       id="path3298"
       style="fill:#23432a;fill-opacity:1;fill-rule:evenodd;stroke:#000000;stroke-width:1px;stroke-linecap:butt;stroke-linejoin:miter;stroke-opacity:1" />
    <path
       d="M 169.2226,916.014 C 159.44882,908.82223 165.18942,897.35695 168.2581,895.71988 C 170.369,897.62125 176.60865,908.00762 169.2226,916.014 z"
       id="path3300"
       style="fill:#23432a;fill-opacity:1;fill-rule:evenodd;stroke:#000000;stroke-width:1px;stroke-linecap:butt;stroke-linejoin:miter;stroke-opacity:1" />
    <path
       d="M 158.12552,914.89182 C 147.60362,906.57787 154.09234,896.23477 157.16102,894.5977 C 159.27192,896.49907 165.51157,906.88544 158.12552,914.89182 z"
       id="path3302"
       style="fill:#23432a;fill-opacity:1;fill-rule:evenodd;stroke:#000000;stroke-width:1px;stroke-linecap:butt;stroke-linejoin:miter;stroke-opacity:1" />
    <path
       d="M 137.81756,910.6299 C 132.14666,901.92943 140.96096,895.60223 143.67139,893.92855 C 145.19163,896.32854 145.80263,906.38884 137.81756,910.6299 z"
       id="path3306"
       style="fill:#23432a;fill-opacity:1;fill-rule:evenodd;stroke:#000000;stroke-width:1px;stroke-linecap:butt;stroke-linejoin:miter;stroke-opacity:1" />
    <path
       d="M 147.90124,910.6299 C 139.00026,904.80968 145.86304,891.97285 148.93172,890.33578 C 151.04262,892.23715 155.91072,905.11725 147.90124,910.6299 z"
       id="path3304"
       style="fill:#23432a;fill-opacity:1;fill-rule:evenodd;stroke:#000000;stroke-width:1px;stroke-linecap:butt;stroke-linejoin:miter;stroke-opacity:1" />
    <path
       d="M 140.43597,898.66001 C 132.52072,888.08924 140.5869,883.50765 143.29733,881.83397 C 144.81757,884.23396 148.91979,891.55116 140.43597,898.66001 z"
       id="path3342"
       style="fill:#23432a;fill-opacity:1;fill-rule:evenodd;stroke:#000000;stroke-width:1px;stroke-linecap:butt;stroke-linejoin:miter;stroke-opacity:1" />
    <path
       d="M 188.29961,910.02905 C 180.02206,905.82975 179.65303,892.36949 182.72171,890.73242 C 187.94977,891.76099 191.82038,900.77581 188.29961,910.02905 z"
       id="path3308"
       style="fill:#23432a;fill-opacity:1;fill-rule:evenodd;stroke:#000000;stroke-width:1px;stroke-linecap:butt;stroke-linejoin:miter;stroke-opacity:1" />
    <path
       d="M 181.44186,909.655 C 171.66808,902.46323 177.40868,890.99795 180.47736,889.36088 C 182.58826,891.26225 187.58105,901.27456 181.44186,909.655 z"
       id="path3310"
       style="fill:#23432a;fill-opacity:1;fill-rule:evenodd;stroke:#000000;stroke-width:1px;stroke-linecap:butt;stroke-linejoin:miter;stroke-opacity:1" />
    <path
       d="M 193.02767,901.67507 C 183.50326,898.22389 183.25891,885.63643 186.32759,883.99936 C 193.30126,888.0204 195.67564,892.17246 193.02767,901.67507 z"
       id="path3312"
       style="fill:#23432a;fill-opacity:1;fill-rule:evenodd;stroke:#000000;stroke-width:1px;stroke-linecap:butt;stroke-linejoin:miter;stroke-opacity:1" />
    <path
       d="M 101.39154,909.28237 C 91.561137,908.38071 94.101041,898.54549 95.059691,892.91337 C 101.97389,894.98331 105.20187,900.50151 101.39154,909.28237 z"
       id="path3316"
       style="fill:#23432a;fill-opacity:1;fill-rule:evenodd;stroke:#000000;stroke-width:1px;stroke-linecap:butt;stroke-linejoin:miter;stroke-opacity:1" />
    <path
       d="M 90.170602,912.64747 C 77.468812,906.07913 83.519012,890.81091 87.585186,888.61276 C 89.696081,890.51413 98.803517,905.63858 90.170602,912.64747 z"
       id="path3318"
       style="fill:#23432a;fill-opacity:1;fill-rule:evenodd;stroke:#000000;stroke-width:1px;stroke-linecap:butt;stroke-linejoin:miter;stroke-opacity:1" />
    <path
       d="M 80.383581,913.14622 C 69.743965,904.45822 76.599776,898.79084 79.294401,894.22365 C 82.278101,897.37188 88.582677,906.51139 80.383581,913.14622 z"
       id="path3320"
       style="fill:#23432a;fill-opacity:1;fill-rule:evenodd;stroke:#000000;stroke-width:1px;stroke-linecap:butt;stroke-linejoin:miter;stroke-opacity:1" />
    <path
       d="M 70.866142,909.23083 C 62.205045,900.22085 68.584815,894.62805 72.602883,890.20404 C 75.39762,892.91337 82.108419,900.98468 70.866142,909.23083 z"
       id="path3322"
       style="fill:#23432a;fill-opacity:1;fill-rule:evenodd;stroke:#000000;stroke-width:1px;stroke-linecap:butt;stroke-linejoin:miter;stroke-opacity:1" />
    <path
       d="M 64.081368,900.00404 C 54.298094,891.11875 63.171591,880.41381 67.189659,875.9898 C 69.984396,878.69913 75.323645,891.75789 64.081368,900.00404 z"
       id="path3324"
       style="fill:#23432a;fill-opacity:1;fill-rule:evenodd;stroke:#000000;stroke-width:1px;stroke-linecap:butt;stroke-linejoin:miter;stroke-opacity:1" />
    <path
       d="M 93.849705,905.54035 C 83.210089,896.85235 89.567155,888.94062 92.26178,884.37343 C 95.24548,887.52166 101.05131,899.15489 93.849705,905.54035 z"
       id="path3326"
       style="fill:#23432a;fill-opacity:1;fill-rule:evenodd;stroke:#000000;stroke-width:1px;stroke-linecap:butt;stroke-linejoin:miter;stroke-opacity:1" />
    <path
       d="M 113.73549,891.45222 C 103.15696,891.9221 102.20565,883.24172 103.1643,877.6096 C 110.0785,879.67954 115.17678,882.2973 113.73549,891.45222 z"
       id="path3328"
       style="fill:#23432a;fill-opacity:1;fill-rule:evenodd;stroke:#000000;stroke-width:1px;stroke-linecap:butt;stroke-linejoin:miter;stroke-opacity:1" />
    <path
       d="M 110.49365,898.43465 C 102.40885,897.28361 98.963807,890.22415 99.922457,884.59203 C 106.83666,886.66197 111.81025,890.52659 110.49365,898.43465 z"
       id="path3330"
       style="fill:#23432a;fill-opacity:1;fill-rule:evenodd;stroke:#000000;stroke-width:1px;stroke-linecap:butt;stroke-linejoin:miter;stroke-opacity:1" />
    <path
       d="M 105.3815,899.55684 C 95.5511,898.65518 93.228237,888.81996 99.049654,883.18784 C 105.71448,883.13811 109.19183,890.77598 105.3815,899.55684 z"
       id="path3332"
       style="fill:#23432a;fill-opacity:1;fill-rule:evenodd;stroke:#000000;stroke-width:1px;stroke-linecap:butt;stroke-linejoin:miter;stroke-opacity:1" />
    <path
       d="M 162.73891,906.16377 C 152.96513,896.10421 160.32665,887.00798 163.39533,885.37091 C 165.50623,887.27228 171.37182,898.40677 162.73891,906.16377 z"
       id="path3334"
       style="fill:#23432a;fill-opacity:1;fill-rule:evenodd;stroke:#000000;stroke-width:1px;stroke-linecap:butt;stroke-linejoin:miter;stroke-opacity:1" />
    <path
       d="M 172.09672,906.03908 C 161.57482,897.47576 169.68446,886.88329 172.75314,885.24622 C 174.86404,887.14759 180.72963,898.28208 172.09672,906.03908 z"
       id="path3336"
       style="fill:#23432a;fill-opacity:1;fill-rule:evenodd;stroke:#000000;stroke-width:1px;stroke-linecap:butt;stroke-linejoin:miter;stroke-opacity:1" />
    <path
       d="M 153.01338,901.42569 C 141.24462,892.11425 150.60112,882.2699 153.6698,880.63283 C 155.7807,882.5342 163.76596,892.91337 153.01338,901.42569 z"
       id="path3338"
       style="fill:#23432a;fill-opacity:1;fill-rule:evenodd;stroke:#000000;stroke-width:1px;stroke-linecap:butt;stroke-linejoin:miter;stroke-opacity:1" />
    <path
       d="M 144.90355,896.48085 C 135.86612,884.66322 146.42603,875.71761 149.13646,874.04393 C 150.6567,876.44392 153.63675,890.49418 144.90355,896.48085 z"
       id="path3340"
       style="fill:#23432a;fill-opacity:1;fill-rule:evenodd;stroke:#000000;stroke-width:1px;stroke-linecap:butt;stroke-linejoin:miter;stroke-opacity:1" />
    <path
       d="M 187.66616,896.56293 C 175.27396,895.10673 175.90242,879.40211 178.9711,877.76504 C 185.94477,881.78608 191.06225,889.17999 187.66616,896.56293 z"
       id="path3344"
       style="fill:#23432a;fill-opacity:1;fill-rule:evenodd;stroke:#000000;stroke-width:1px;stroke-linecap:butt;stroke-linejoin:miter;stroke-opacity:1" />
    <path
       d="M 177.70127,899.92946 C 168.92497,893.48581 169.17938,881.77115 172.24806,880.13408 C 177.47612,881.16265 184.21451,890.80091 177.70127,899.92946 z"
       id="path3346"
       style="fill:#23432a;fill-opacity:1;fill-rule:evenodd;stroke:#000000;stroke-width:1px;stroke-linecap:butt;stroke-linejoin:miter;stroke-opacity:1" />
    <path
       d="M 170.20176,894.45485 C 157.56891,890.10176 164.09457,878.91177 165.89798,876.28587 C 168.25812,877.86728 177.16535,885.14828 170.20176,894.45485 z"
       id="path3348"
       style="fill:#23432a;fill-opacity:1;fill-rule:evenodd;stroke:#000000;stroke-width:1px;stroke-linecap:butt;stroke-linejoin:miter;stroke-opacity:1" />
    <path
       d="M 160.36987,895.06669 C 148.60111,885.75525 157.95761,875.9109 161.02629,874.27383 C 163.13719,876.1752 171.12245,886.55437 160.36987,895.06669 z"
       id="path3350"
       style="fill:#23432a;fill-opacity:1;fill-rule:evenodd;stroke:#000000;stroke-width:1px;stroke-linecap:butt;stroke-linejoin:miter;stroke-opacity:1" />
    <path
       d="M 198.37448,885.64062 C 187.15816,886.73966 186.28303,875.90188 185.41423,871.23966 C 188.25475,871.1892 197.55854,871.33273 198.37448,885.64062 z"
       id="path3352"
       style="fill:#23432a;fill-opacity:1;fill-rule:evenodd;stroke:#000000;stroke-width:1px;stroke-linecap:butt;stroke-linejoin:miter;stroke-opacity:1" />
    <path
       d="M 186.0407,887.32332 C 175.23091,882.49285 177.22541,870.67028 178.33904,866.06041 C 180.95185,867.1759 191.14686,873.9327 186.0407,887.32332 z"
       id="path3354"
       style="fill:#23432a;fill-opacity:1;fill-rule:evenodd;stroke:#000000;stroke-width:1px;stroke-linecap:butt;stroke-linejoin:miter;stroke-opacity:1" />
    <path
       d="M 176.0658,886.94926 C 165.87944,881.86942 169.01384,873.11755 170.12747,868.50768 C 172.74028,869.62317 183.79037,876.17705 176.0658,886.94926 z"
       id="path3356"
       style="fill:#23432a;fill-opacity:1;fill-rule:evenodd;stroke:#000000;stroke-width:1px;stroke-linecap:butt;stroke-linejoin:miter;stroke-opacity:1" />
    <path
       d="M 156.73604,880.57111 C 151.48671,872.91628 158.74082,861.55162 162.21869,861.58691 C 166.31288,864.99692 167.62997,881.37201 156.73604,880.57111 z"
       id="path3358"
       style="fill:#23432a;fill-opacity:1;fill-rule:evenodd;stroke:#000000;stroke-width:1px;stroke-linecap:butt;stroke-linejoin:miter;stroke-opacity:1" />
    <path
       d="M 134.65843,888.78334 C 129.85269,875.63797 141.03465,870.69537 144.72057,869.86966 C 145.48835,872.60491 144.70042,887.02573 134.65843,888.78334 z"
       id="path3360"
       style="fill:#23432a;fill-opacity:1;fill-rule:evenodd;stroke:#000000;stroke-width:0.99999994px;stroke-linecap:butt;stroke-linejoin:miter;stroke-opacity:1" />
    <path
       d="M 187.69499,875.19683 C 175.3167,872.41372 174.28557,856.75387 174.7393,850.52936 C 181.60618,853.33241 189.595,864.16209 187.69499,875.19683 z"
       id="path3366"
       style="fill:#23432a;fill-opacity:1;fill-rule:evenodd;stroke:#000000;stroke-width:0.99999994px;stroke-linecap:butt;stroke-linejoin:miter;stroke-opacity:1" />
    <path
       d="M 165.73138,883.0968 C 155.9576,873.03724 163.31912,863.94101 166.3878,862.30394 C 168.4987,864.20531 174.36429,875.3398 165.73138,883.0968 z"
       id="path3368"
       style="fill:#23432a;fill-opacity:1;fill-rule:evenodd;stroke:#000000;stroke-width:1px;stroke-linecap:butt;stroke-linejoin:miter;stroke-opacity:1" />
    <path
       d="M 178.59289,877.24579 C 166.2146,874.46268 165.18347,858.80283 165.6372,852.57832 C 172.50408,855.38137 180.4929,866.21105 178.59289,877.24579 z"
       id="path3364"
       style="fill:#23432a;fill-opacity:1;fill-rule:evenodd;stroke:#000000;stroke-width:0.99999994px;stroke-linecap:butt;stroke-linejoin:miter;stroke-opacity:1" />
    <path
       d="M 154.60254,888.21045 C 143.04866,881.44908 149.59874,869.56305 152.4153,867.52253 C 154.76593,869.11805 162.22081,881.21822 154.60254,888.21045 z"
       id="path3370"
       style="fill:#23432a;fill-opacity:1;fill-rule:evenodd;stroke:#000000;stroke-width:1px;stroke-linecap:butt;stroke-linejoin:miter;stroke-opacity:1" />
    <path
       d="M 143.01871,881.1453 C 136.91007,869.07077 148.80885,862.95667 152.28522,863.06455 C 153.16939,865.76443 152.28807,881.61914 143.01871,881.1453 z"
       id="path3372"
       style="fill:#23432a;fill-opacity:1;fill-rule:evenodd;stroke:#000000;stroke-width:1px;stroke-linecap:butt;stroke-linejoin:miter;stroke-opacity:1" />
    <path
       d="M 80.258895,901.17633 C 71.240201,892.91337 76.47509,886.82095 79.169715,882.25376 C 82.153415,885.40199 87.709873,894.04275 80.258895,901.17633 z"
       id="path3374"
       style="fill:#23432a;fill-opacity:1;fill-rule:evenodd;stroke:#000000;stroke-width:1px;stroke-linecap:butt;stroke-linejoin:miter;stroke-opacity:1" />
    <path
       d="M 86.742585,896.31357 C 76.851086,886.80374 82.834093,879.76402 85.528718,875.19683 C 88.512418,878.34506 95.31574,887.185 86.742585,896.31357 z"
       id="path3376"
       style="fill:#23432a;fill-opacity:1;fill-rule:evenodd;stroke:#000000;stroke-width:1px;stroke-linecap:butt;stroke-linejoin:miter;stroke-opacity:1" />
    <path
       d="M 72.257801,895.61957 C 63.200794,885.31184 70.128497,878.55065 73.197539,874.22616 C 75.90601,877.61408 82.066776,887.86747 72.257801,895.61957 z"
       id="path3378"
       style="fill:#23432a;fill-opacity:1;fill-rule:evenodd;stroke:#000000;stroke-width:1px;stroke-linecap:butt;stroke-linejoin:miter;stroke-opacity:1" />
    <path
       d="M 77.619313,888.38776 C 69.559797,877.95534 75.490009,871.31884 78.559051,866.99435 C 81.267522,870.38227 88.582677,880.13691 77.619313,888.38776 z"
       id="path3382"
       style="fill:#23432a;fill-opacity:1;fill-rule:evenodd;stroke:#000000;stroke-width:1px;stroke-linecap:butt;stroke-linejoin:miter;stroke-opacity:1" />
    <path
       d="M 106.86392,889.54374 C 96.769576,886.34526 96.244523,874.37632 99.082447,869.41789 C 104.86232,873.74037 112.11519,882.06708 106.86392,889.54374 z"
       id="path3384"
       style="fill:#23432a;fill-opacity:1;fill-rule:evenodd;stroke:#000000;stroke-width:1px;stroke-linecap:butt;stroke-linejoin:miter;stroke-opacity:1" />
    <path
       d="M 95.595314,890.57799 C 83.459462,883.88497 89.442469,872.23265 94.506134,868.91232 C 97.489834,872.06055 102.79691,884.19253 95.595314,890.57799 z"
       id="path3380"
       style="fill:#23432a;fill-opacity:1;fill-rule:evenodd;stroke:#000000;stroke-width:1px;stroke-linecap:butt;stroke-linejoin:miter;stroke-opacity:1" />
    <path
       d="M 116.47859,885.34259 C 106.29921,883.31874 105.69687,875.19683 105.28397,871.00122 C 112.19817,873.07116 116.17427,876.43704 116.47859,885.34259 z"
       id="path3386"
       style="fill:#23432a;fill-opacity:1;fill-rule:evenodd;stroke:#000000;stroke-width:1px;stroke-linecap:butt;stroke-linejoin:miter;stroke-opacity:1" />
    <path
       d="M 113.6108,873.87145 C 104.05485,872.47103 105.07343,866.46879 104.66053,862.27318 C 111.57473,864.34312 114.17928,867.45963 113.6108,873.87145 z"
       id="path3388"
       style="fill:#23432a;fill-opacity:1;fill-rule:evenodd;stroke:#000000;stroke-width:1px;stroke-linecap:butt;stroke-linejoin:miter;stroke-opacity:1" />
    <path
       d="M 59.793164,886.52444 C 54.078778,875.86802 64.290533,869.24869 66.193748,867.79502 C 67.411817,870.3616 70.866142,879.96971 59.793164,886.52444 z"
       id="path3392"
       style="fill:#23432a;fill-opacity:1;fill-rule:evenodd;stroke:#000000;stroke-width:1px;stroke-linecap:butt;stroke-linejoin:miter;stroke-opacity:1" />
    <path
       d="M 87.545843,883.72214 C 76.619758,875.42158 81.747416,867.73645 83.895095,862.88798 C 87.223251,865.66956 95.004365,873.66231 87.545843,883.72214 z"
       id="path3394"
       style="fill:#23432a;fill-opacity:1;fill-rule:evenodd;stroke:#000000;stroke-width:1px;stroke-linecap:butt;stroke-linejoin:miter;stroke-opacity:1" />
    <path
       d="M 68.895266,882.2851 C 62.308076,869.75838 73.89138,858.93396 75.794595,857.48029 C 77.012664,860.04687 80.841048,876.60317 68.895266,882.2851 z"
       id="path3398"
       style="fill:#23432a;fill-opacity:1;fill-rule:evenodd;stroke:#000000;stroke-width:1px;stroke-linecap:butt;stroke-linejoin:miter;stroke-opacity:1" />
    <path
       d="M 95.345942,877.85999 C 86.327248,869.59703 91.562137,863.50461 94.256762,858.93742 C 97.240462,862.08565 102.79692,870.72641 95.345942,877.85999 z"
       id="path3400"
       style="fill:#23432a;fill-opacity:1;fill-rule:evenodd;stroke:#000000;stroke-width:1px;stroke-linecap:butt;stroke-linejoin:miter;stroke-opacity:1" />
    <path
       d="M 76.625819,873.183 C 70.288001,861.27972 79.876325,856.28131 83.899207,852.58328 C 85.117276,855.14986 87.823483,869.74543 76.625819,873.183 z"
       id="path3402"
       style="fill:#23432a;fill-opacity:1;fill-rule:evenodd;stroke:#000000;stroke-width:1px;stroke-linecap:butt;stroke-linejoin:miter;stroke-opacity:1" />
    <path
       d="M 88.582677,871.75036 C 78.067747,862.73928 86.295108,853.65439 90.361283,849.58595 C 92.347492,852.73418 96.781773,864.36741 88.582677,871.75036 z"
       id="path3404"
       style="fill:#23432a;fill-opacity:1;fill-rule:evenodd;stroke:#000000;stroke-width:1px;stroke-linecap:butt;stroke-linejoin:miter;stroke-opacity:1" />
    <path
       d="M 106.79441,877.82465 C 94.355482,872.6036 98.116274,861.78137 100.43554,856.51763 C 103.42601,858.73427 109.7729,867.72655 106.79441,877.82465 z"
       id="path3406"
       style="fill:#23432a;fill-opacity:1;fill-rule:evenodd;stroke:#000000;stroke-width:1px;stroke-linecap:butt;stroke-linejoin:miter;stroke-opacity:1" />
    <path
       d="M 113.11205,859.65721 C 103.5561,858.25679 104.57468,852.25455 104.16178,848.05894 C 111.07598,850.12888 113.68053,853.24539 113.11205,859.65721 z"
       id="path3408"
       style="fill:#23432a;fill-opacity:1;fill-rule:evenodd;stroke:#000000;stroke-width:1px;stroke-linecap:butt;stroke-linejoin:miter;stroke-opacity:1" />
    <path
       d="M 109.98153,869.88607 C 99.792382,863.11889 103.39758,856.4142 105.35269,851.48492 C 108.28904,854.38267 113.74462,861.68502 109.98153,869.88607 z"
       id="path3410"
       style="fill:#23432a;fill-opacity:1;fill-rule:evenodd;stroke:#000000;stroke-width:1px;stroke-linecap:butt;stroke-linejoin:miter;stroke-opacity:1" />
    <path
       d="M 61.363042,871.82742 C 58.949668,859.97883 70.88158,856.07218 73.122089,855.22631 C 73.55178,858.03458 73.851974,868.72873 61.363042,871.82742 z"
       id="path3412"
       style="fill:#23432a;fill-opacity:1;fill-rule:evenodd;stroke:#000000;stroke-width:1px;stroke-linecap:butt;stroke-linejoin:miter;stroke-opacity:1" />
    <path
       d="M 59.096177,861.32859 C 60.190141,852.59855 69.834544,846.138 75.167724,846.4501 C 76.147349,852.303 64.399425,862.23013 59.096177,861.32859 z"
       id="path3420"
       style="fill:#23432a;fill-opacity:1;fill-rule:evenodd;stroke:#000000;stroke-width:1px;stroke-linecap:butt;stroke-linejoin:miter;stroke-opacity:1" />
    <path
       d="M 70.340458,862.72532 C 67.927084,850.87673 79.858996,846.97008 82.099505,846.12421 C 82.529196,848.93248 82.82939,859.62663 70.340458,862.72532 z"
       id="path3422"
       style="fill:#23432a;fill-opacity:1;fill-rule:evenodd;stroke:#000000;stroke-width:1px;stroke-linecap:butt;stroke-linejoin:miter;stroke-opacity:1" />
    <path
       d="M 97.486606,865.9106 C 88.582677,858.65297 97.333521,843.94832 102.17777,840.5642 C 105.41886,844.07338 105.85055,863.1025 97.486606,865.9106 z"
       id="path3424"
       style="fill:#23432a;fill-opacity:1;fill-rule:evenodd;stroke:#000000;stroke-width:1px;stroke-linecap:butt;stroke-linejoin:miter;stroke-opacity:1" />
    <path
       d="M 65.187718,851.686 C 63.297878,843.0596 73.287378,840.70606 79.286538,841.17748 C 81.01998,845.04364 74.191093,851.08634 65.187718,851.686 z"
       id="path3426"
       style="fill:#23432a;fill-opacity:1;fill-rule:evenodd;stroke:#000000;stroke-width:1px;stroke-linecap:butt;stroke-linejoin:miter;stroke-opacity:1" />
    <path
       d="M 75.411998,841.71109 C 75.517139,836.07716 85.756012,832.9755 91.755172,833.44692 C 93.488614,837.31308 86.535041,845.22608 75.411998,841.71109 z"
       id="path3428"
       style="fill:#23432a;fill-opacity:1;fill-rule:evenodd;stroke:#000000;stroke-width:1px;stroke-linecap:butt;stroke-linejoin:miter;stroke-opacity:1" />
    <path
       d="M 72.793584,850.27228 C 72.275294,842.26931 80.893244,839.29234 86.892404,839.76376 C 88.625846,843.62992 83.417881,852.41572 72.793584,850.27228 z"
       id="path3430"
       style="fill:#23432a;fill-opacity:1;fill-rule:evenodd;stroke:#000000;stroke-width:1px;stroke-linecap:butt;stroke-linejoin:miter;stroke-opacity:1" />
    <path
       d="M 79.544493,859.22582 C 76.992604,849.58722 86.637012,843.37873 92.573545,842.39397 C 95.185663,845.72997 90.247806,858.87672 79.544493,859.22582 z"
       id="path3432"
       style="fill:#23432a;fill-opacity:1;fill-rule:evenodd;stroke:#000000;stroke-width:1px;stroke-linecap:butt;stroke-linejoin:miter;stroke-opacity:1" />
    <path
       d="M 92.554634,858.19786 C 85.506728,846.70077 94.649648,842.87579 98.440899,838.94063 C 99.812353,841.42863 101.52828,853.83828 92.554634,858.19786 z"
       id="path3434"
       style="fill:#23432a;fill-opacity:1;fill-rule:evenodd;stroke:#000000;stroke-width:1px;stroke-linecap:butt;stroke-linejoin:miter;stroke-opacity:1" />
    <path
       d="M 85.036738,831.6087 C 89.611215,825.37401 99.357394,827.57404 101.59816,830.41563 C 100.77614,836.21576 92.865922,836.09471 85.036738,831.6087 z"
       id="path3436"
       style="fill:#23432a;fill-opacity:1;fill-rule:evenodd;stroke:#000000;stroke-width:1px;stroke-linecap:butt;stroke-linejoin:miter;stroke-opacity:1" />
    <path
       d="M 78.995845,835.5137 C 82.343645,828.22615 93.335859,830.45116 97.392509,835.08887 C 97.080051,839.31431 87.324585,842.44926 78.995845,835.5137 z"
       id="path3438"
       style="fill:#23432a;fill-opacity:1;fill-rule:evenodd;stroke:#000000;stroke-width:0.99999994px;stroke-linecap:butt;stroke-linejoin:miter;stroke-opacity:1" />
    <path
       d="M 83.723154,846.00755 C 82.800058,838.04111 89.510502,835.75352 97.146765,836.41912 C 99.323232,840.69124 92.572109,848.35807 83.723154,846.00755 z"
       id="path3440"
       style="fill:#23432a;fill-opacity:1;fill-rule:evenodd;stroke:#000000;stroke-width:1px;stroke-linecap:butt;stroke-linejoin:miter;stroke-opacity:1" />
    <path
       d="M 154.99582,876.37501 C 143.15951,870.1212 149.18782,857.96222 151.91322,855.80144 C 154.33085,857.29349 162.42829,866.56516 154.99582,876.37501 z"
       id="path3442"
       style="fill:#23432a;fill-opacity:1;fill-rule:evenodd;stroke:#000000;stroke-width:1px;stroke-linecap:butt;stroke-linejoin:miter;stroke-opacity:1" />
    <path
       d="M 167.57555,871.34591 C 153.48563,867.19631 157.87204,859.50144 158.07894,854.76347 C 160.85743,855.35601 173.0858,859.28993 167.57555,871.34591 z"
       id="path3444"
       style="fill:#23432a;fill-opacity:1;fill-rule:evenodd;stroke:#000000;stroke-width:1px;stroke-linecap:butt;stroke-linejoin:miter;stroke-opacity:1" />
    <path
       d="M 137.92633,873.62063 C 131.89314,866.55355 137.01031,859.11736 140.07899,857.48029 C 142.18989,859.38166 149.05297,870.22045 137.92633,873.62063 z"
       id="path3450"
       style="fill:#23432a;fill-opacity:1;fill-rule:evenodd;stroke:#000000;stroke-width:1px;stroke-linecap:butt;stroke-linejoin:miter;stroke-opacity:1" />
    <path
       d="M 146.74395,868.88471 C 137.352,864.53721 140.00251,852.27945 142.29247,849.66165 C 147.18431,850.31809 154.32418,859.51982 146.74395,868.88471 z"
       id="path3460"
       style="fill:#23432a;fill-opacity:1;fill-rule:evenodd;stroke:#000000;stroke-width:1px;stroke-linecap:butt;stroke-linejoin:miter;stroke-opacity:1" />
    <path
       d="M 187.13408,856.97939 C 176.31221,859.58336 168.79355,847.74304 168.61144,843.03613 C 179.06671,844.57711 186.20247,849.24177 187.13408,856.97939 z"
       id="path3462"
       style="fill:#23432a;fill-opacity:1;fill-rule:evenodd;stroke:#000000;stroke-width:0.99999994px;stroke-linecap:butt;stroke-linejoin:miter;stroke-opacity:1" />
    <path
       d="M 177.64063,845.18626 C 169.21017,847.71716 162.79355,840.90095 162.17128,837.95961 C 172.5778,834.59289 177.16535,841.34993 177.64063,845.18626 z"
       id="path3470"
       style="fill:#23432a;fill-opacity:1;fill-rule:evenodd;stroke:#000000;stroke-width:1px;stroke-linecap:butt;stroke-linejoin:miter;stroke-opacity:1" />
    <path
       d="M 177.16535,864.36348 C 166.31728,856.47329 168.20996,851.27214 169.53904,846.90823 C 173.81377,847.50077 187.91243,859.78868 177.16535,864.36348 z"
       id="path3464"
       style="fill:#23432a;fill-opacity:1;fill-rule:evenodd;stroke:#000000;stroke-width:1px;stroke-linecap:butt;stroke-linejoin:miter;stroke-opacity:1" />
    <path
       d="M 167.69125,863.39851 C 156.30432,856.80666 160.94981,846.79325 163.23977,844.17545 C 168.13161,844.83189 174.1493,856.15329 167.69125,863.39851 z"
       id="path3466"
       style="fill:#23432a;fill-opacity:1;fill-rule:evenodd;stroke:#000000;stroke-width:1px;stroke-linecap:butt;stroke-linejoin:miter;stroke-opacity:1" />
    <path
       d="M 158.20752,864.74068 C 147.34327,863.64624 147.84511,850.57497 148.28928,847.32903 C 152.59244,846.64536 161.8578,850.13141 158.20752,864.74068 z"
       id="path3468"
       style="fill:#23432a;fill-opacity:1;fill-rule:evenodd;stroke:#000000;stroke-width:1px;stroke-linecap:butt;stroke-linejoin:miter;stroke-opacity:1" />
    <path
       d="M 171.2738,851.13895 C 162.9173,852.77077 159.44882,846.69198 157.68471,841.97169 C 165.71592,839.76376 168.69776,844.87846 171.2738,851.13895 z"
       id="path3472"
       style="fill:#23432a;fill-opacity:1;fill-rule:evenodd;stroke:#000000;stroke-width:1px;stroke-linecap:butt;stroke-linejoin:miter;stroke-opacity:1" />
    <path
       d="M 160.66455,854.82258 C 150.70386,853.47534 145.30833,843.15117 147.90726,837.64996 C 158.55533,838.23261 162.28601,849.63643 160.66455,854.82258 z"
       id="path3474"
       style="fill:#23432a;fill-opacity:1;fill-rule:evenodd;stroke:#000000;stroke-width:1px;stroke-linecap:butt;stroke-linejoin:miter;stroke-opacity:1" />
    <path
       d="M 164.19797,841.07161 C 155.01939,845.22343 147.60528,838.40722 146.48427,834.09433 C 156.89079,830.72761 163.15444,835.73904 164.19797,841.07161 z"
       id="path3476"
       style="fill:#23432a;fill-opacity:1;fill-rule:evenodd;stroke:#000000;stroke-width:1px;stroke-linecap:butt;stroke-linejoin:miter;stroke-opacity:1" />
    <path
       d="M 129.38114,862.99222 C 123.86513,856.97039 130.62327,848.3485 132.25519,846.59572 C 133.88717,848.92117 136.54088,856.84508 129.38114,862.99222 z"
       id="path3480"
       style="fill:#23432a;fill-opacity:1;fill-rule:evenodd;stroke:#000000;stroke-width:1px;stroke-linecap:butt;stroke-linejoin:miter;stroke-opacity:1" />
    <path
       d="M 125.37701,863.33661 C 118.39074,859.10805 122.31023,850.66495 123.38367,848.52413 C 125.6035,850.2971 129.6886,856.57784 125.37701,863.33661 z"
       id="path3482"
       style="fill:#23432a;fill-opacity:1;fill-rule:evenodd;stroke:#000000;stroke-width:1px;stroke-linecap:butt;stroke-linejoin:miter;stroke-opacity:1" />
    <path
       d="M 116.8986,863.4332 C 106.29921,853.55827 114.67627,844.25444 117.76101,842.64786 C 119.85298,844.57006 125.45772,857.63054 116.8986,863.4332 z"
       id="path3484"
       style="fill:#23432a;fill-opacity:1;fill-rule:evenodd;stroke:#000000;stroke-width:1px;stroke-linecap:butt;stroke-linejoin:miter;stroke-opacity:1" />
    <path
       d="M 149.72253,855.61564 C 137.97218,854.89393 138.73094,842.86744 140.30062,839.76376 C 143.12093,840.10592 153.29378,845.91123 149.72253,855.61564 z"
       id="path3486"
       style="fill:#23432a;fill-opacity:1;fill-rule:evenodd;stroke:#000000;stroke-width:0.99999994px;stroke-linecap:butt;stroke-linejoin:miter;stroke-opacity:1" />
    <path
       d="M 95.102739,850.07596 C 94.706626,838.64838 104.66515,836.22346 108.06447,836.95925 C 108.44498,839.77464 107.38922,851.08311 95.102739,850.07596 z"
       id="path3488"
       style="fill:#23432a;fill-opacity:1;fill-rule:evenodd;stroke:#000000;stroke-width:0.99999994px;stroke-linecap:butt;stroke-linejoin:miter;stroke-opacity:1" />
    <path
       d="M 103.53823,857.47536 C 100.87096,846.35636 112.51484,837.87938 115.99261,837.92244 C 116.92698,840.60538 115.77874,856.01188 103.53823,857.47536 z"
       id="path3490"
       style="fill:#23432a;fill-opacity:1;fill-rule:evenodd;stroke:#000000;stroke-width:0.99999994px;stroke-linecap:butt;stroke-linejoin:miter;stroke-opacity:1" />
    <path
       d="M 94.244882,842.68835 C 92.344435,831.41295 100.64908,828.69275 104.11576,828.97359 C 104.86442,831.71416 105.55934,841.8162 94.244882,842.68835 z"
       id="path3492"
       style="fill:#23432a;fill-opacity:1;fill-rule:evenodd;stroke:#000000;stroke-width:0.99999994px;stroke-linecap:butt;stroke-linejoin:miter;stroke-opacity:1" />
    <path
       d="M 140.96419,860.01701 C 126.68498,856.42285 127.61109,833.39666 129.59677,830.54117 C 132.34219,831.27187 147.09599,848.53387 140.96419,860.01701 z"
       id="path3494"
       style="fill:#23432a;fill-opacity:1;fill-rule:evenodd;stroke:#000000;stroke-width:0.99999994px;stroke-linecap:butt;stroke-linejoin:miter;stroke-opacity:1" />
    <path
       d="M 149.0991,846.13948 C 137.72281,843.67216 137.73345,833.39128 139.30313,830.2876 C 142.12344,830.62976 152.04692,833.69197 149.0991,846.13948 z"
       id="path3496"
       style="fill:#23432a;fill-opacity:1;fill-rule:evenodd;stroke:#000000;stroke-width:0.99999994px;stroke-linecap:butt;stroke-linejoin:miter;stroke-opacity:1" />
    <path
       d="M 132.11146,858.89483 C 120.57535,857.91908 120.50397,844.11968 122.48965,841.26419 C 125.23507,841.99489 136.9964,849.78073 132.11146,858.89483 z"
       id="path3498"
       style="fill:#23432a;fill-opacity:1;fill-rule:evenodd;stroke:#000000;stroke-width:0.99999994px;stroke-linecap:butt;stroke-linejoin:miter;stroke-opacity:1" />
    <path
       d="M 104.77062,845.6609 C 98.0128,835.47632 107.86145,830.58319 111.30242,830.07679 C 114.26946,832.95268 116.72088,843.5121 104.77062,845.6609 z"
       id="path3500"
       style="fill:#23432a;fill-opacity:1;fill-rule:evenodd;stroke:#000000;stroke-width:0.99999994px;stroke-linecap:butt;stroke-linejoin:miter;stroke-opacity:1" />
    <path
       d="M 101.60138,833.71093 C 99.700929,822.43553 108.37963,820.58813 111.84631,820.86897 C 112.59497,823.60954 112.91583,832.83878 101.60138,833.71093 z"
       id="path3506"
       style="fill:#23432a;fill-opacity:1;fill-rule:evenodd;stroke:#000000;stroke-width:0.99999994px;stroke-linecap:butt;stroke-linejoin:miter;stroke-opacity:1" />
    <path
       d="M 116.84228,850.62482 C 107.87944,839.24375 117.08322,833.07752 120.37753,831.96207 C 122.1506,834.18185 127.8097,844.70451 116.84228,850.62482 z"
       id="path3508"
       style="fill:#23432a;fill-opacity:1;fill-rule:evenodd;stroke:#000000;stroke-width:1px;stroke-linecap:butt;stroke-linejoin:miter;stroke-opacity:1" />
    <path
       d="M 140.02174,849.5024 C 133.34059,847.29002 126.16486,830.83375 130.82573,827.78091 C 133.50932,828.71343 146.98055,836.36782 140.02174,849.5024 z"
       id="path3510"
       style="fill:#23432a;fill-opacity:1;fill-rule:evenodd;stroke:#000000;stroke-width:0.99999994px;stroke-linecap:butt;stroke-linejoin:miter;stroke-opacity:1" />
    <path
       d="M 133.16399,852.74424 C 122.95618,849.29753 125.1261,837.95492 127.31831,835.25474 C 130.0019,836.18726 138.71214,844.01799 133.16399,852.74424 z"
       id="path3512"
       style="fill:#23432a;fill-opacity:1;fill-rule:evenodd;stroke:#000000;stroke-width:0.99999994px;stroke-linecap:butt;stroke-linejoin:miter;stroke-opacity:1" />
    <path
       d="M 148.72505,836.66332 C 136.22658,832.69976 136.86065,824.53855 138.43033,821.43487 C 141.25064,821.77703 149.42851,824.96393 148.72505,836.66332 z"
       id="path3514"
       style="fill:#23432a;fill-opacity:1;fill-rule:evenodd;stroke:#000000;stroke-width:0.99999994px;stroke-linecap:butt;stroke-linejoin:miter;stroke-opacity:1" />
    <path
       d="M 138.15144,838.28063 C 124.01575,832.96362 130.11355,823.49131 132.30576,820.79113 C 134.98935,821.72365 144.07365,828.4322 138.15144,838.28063 z"
       id="path3516"
       style="fill:#23432a;fill-opacity:1;fill-rule:evenodd;stroke:#000000;stroke-width:0.99999994px;stroke-linecap:butt;stroke-linejoin:miter;stroke-opacity:1" />
    <path
       d="M 125.92119,844.2723 C 114.10183,834.87064 122.81422,824.86128 125.7298,822.96494 C 127.99727,824.67662 134.582,836.71886 125.92119,844.2723 z"
       id="path3518"
       style="fill:#23432a;fill-opacity:1;fill-rule:evenodd;stroke:#000000;stroke-width:0.99999994px;stroke-linecap:butt;stroke-linejoin:miter;stroke-opacity:1" />
    <path
       d="M 113.17485,837.16201 C 105.91858,827.32635 116.6337,819.8295 120.04521,819.15249 C 123.15169,821.87716 125.00337,834.42117 113.17485,837.16201 z"
       id="path3520"
       style="fill:#23432a;fill-opacity:1;fill-rule:evenodd;stroke:#000000;stroke-width:0.99999994px;stroke-linecap:butt;stroke-linejoin:miter;stroke-opacity:1" />
    <path
       d="M 141.73228,823.74021 C 134.29931,827.14391 127.63332,819.4549 127.01105,816.51356 C 137.41757,813.14684 141.257,819.90388 141.73228,823.74021 z"
       id="path3522"
       style="fill:#23432a;fill-opacity:1;fill-rule:evenodd;stroke:#000000;stroke-width:1px;stroke-linecap:butt;stroke-linejoin:miter;stroke-opacity:1" />
    <path
       d="M 128.79997,829.05384 C 119.96371,827.10337 119.26584,821.24695 120.46056,815.67899 C 130.50065,813.86841 134.22343,822.04722 128.79997,829.05384 z"
       id="path3524"
       style="fill:#23432a;fill-opacity:1;fill-rule:evenodd;stroke:#000000;stroke-width:0.99999994px;stroke-linecap:butt;stroke-linejoin:miter;stroke-opacity:1" />
    <path
       d="M 109.76057,824.13694 C 109.21321,815.43829 115.95304,814.78525 120.4612,816.18697 C 121.62904,818.46175 117.53483,826.30663 109.76057,824.13694 z"
       id="path3526"
       style="fill:#23432a;fill-opacity:1;fill-rule:evenodd;stroke:#000000;stroke-width:1px;stroke-linecap:butt;stroke-linejoin:miter;stroke-opacity:1" />
    <rect
       width="8.5901022"
       height="57.671558"
       x="70.238037"
       y="945.31488"
       id="rect3320"
       style="fill:#000000;fill-opacity:1;fill-rule:evenodd;stroke:none;stroke-width:1.00000012px;stroke-linecap:butt;stroke-linejoin:miter;marker:none;marker-start:none;marker-mid:none;marker-end:none;stroke-miterlimit:4;stroke-dasharray:none;stroke-dashoffset:0;stroke-opacity:1;visibility:visible;display:inline;overflow:visible;enable-background:accumulate" />
    <rect
       width="8.5901022"
       height="57.671558"
       x="103.22648"
       y="945.31488"
       id="rect3322"
       style="fill:#000000;fill-opacity:1;fill-rule:evenodd;stroke:none;stroke-width:1.00000012px;stroke-linecap:butt;stroke-linejoin:miter;marker:none;marker-start:none;marker-mid:none;marker-end:none;stroke-miterlimit:4;stroke-dasharray:none;stroke-dashoffset:0;stroke-opacity:1;visibility:visible;display:inline;overflow:visible;enable-background:accumulate" />
    <rect
       width="8.5901022"
       height="57.671558"
       x="136.2149"
       y="945.31488"
       id="rect3324"
       style="fill:#000000;fill-opacity:1;fill-rule:evenodd;stroke:none;stroke-width:1.00000012px;stroke-linecap:butt;stroke-linejoin:miter;marker:none;marker-start:none;marker-mid:none;marker-end:none;stroke-miterlimit:4;stroke-dasharray:none;stroke-dashoffset:0;stroke-opacity:1;visibility:visible;display:inline;overflow:visible;enable-background:accumulate" />
    <rect
       width="8.5901022"
       height="57.671558"
       x="169.20334"
       y="945.31488"
       id="rect3326"
       style="fill:#000000;fill-opacity:1;fill-rule:evenodd;stroke:none;stroke-width:1.00000012px;stroke-linecap:butt;stroke-linejoin:miter;marker:none;marker-start:none;marker-mid:none;marker-end:none;stroke-miterlimit:4;stroke-dasharray:none;stroke-dashoffset:0;stroke-opacity:1;visibility:visible;display:inline;overflow:visible;enable-background:accumulate" />
    <rect
       width="8.5901022"
       height="57.671558"
       x="202.19179"
       y="945.31488"
       id="rect3328"
       style="fill:#000000;fill-opacity:1;fill-rule:evenodd;stroke:none;stroke-width:1.00000012px;stroke-linecap:butt;stroke-linejoin:miter;marker:none;marker-start:none;marker-mid:none;marker-end:none;stroke-miterlimit:4;stroke-dasharray:none;stroke-dashoffset:0;stroke-opacity:1;visibility:visible;display:inline;overflow:visible;enable-background:accumulate" />
    <path
       d="M 28.8125,195.84375 C 60.622666,267.27236 187.43983,267.27236 219.25,195.84375 L 28.8125,195.84375 z"
       transform="translate(0,804.33069)"
       id="rect3365"
       style="opacity:1;fill:#23432a;fill-opacity:1;fill-rule:evenodd;stroke:#000000;stroke-width:1.00000012px;stroke-linecap:butt;stroke-linejoin:miter;marker:none;marker-start:none;marker-mid:none;marker-end:none;stroke-miterlimit:4;stroke-dasharray:none;stroke-dashoffset:0;stroke-opacity:1;visibility:visible;display:inline;overflow:visible;enable-background:accumulate" />
    <path
       d="M 17.716535,804.3307 L 21.582641,966.73901 C 24.344139,1082.7449 223.72502,1082.7449 226.48653,966.73901 L 230.35264,804.3307 L 17.716535,804.3307 z"
       id="path3540"
       style="fill:none;fill-opacity:1;fill-rule:evenodd;stroke:#000000;stroke-width:2;stroke-linecap:butt;stroke-miterlimit:4;stroke-dashoffset:0;stroke-opacity:1" />
  </g>
</svg>
