<?xml version="1.0" encoding="UTF-8" standalone="no"?>
<svg
   xmlns:dc="http://purl.org/dc/elements/1.1/"
   xmlns:cc="http://creativecommons.org/ns#"
   xmlns:rdf="http://www.w3.org/1999/02/22-rdf-syntax-ns#"
   xmlns:svg="http://www.w3.org/2000/svg"
   xmlns="http://www.w3.org/2000/svg"
   xmlns:xlink="http://www.w3.org/1999/xlink"
   xmlns:sodipodi="http://sodipodi.sourceforge.net/DTD/sodipodi-0.dtd"
   xmlns:inkscape="http://www.inkscape.org/namespaces/inkscape"
   version="1.0"
   width="603"
   height="763"
   id="svg20"
   sodipodi:docname="2230.svg">
  <sodipodi:namedview
     pagecolor="#ffffff"
     bordercolor="#666666"
     borderopacity="1"
     objecttolerance="10"
     gridtolerance="10"
     guidetolerance="10"
     inkscape:pageopacity="0"
     inkscape:pageshadow="2"
     inkscape:window-width="640"
     inkscape:window-height="480"
     id="namedview38" />
  <desc
     id="desc22">Coat of Arms of Canton of Freiburg (Fribourg)</desc>
  <metadata
     id="metadata31">
    <rdf:RDF>
      <cc:Work
         rdf:about="">
        <dc:format>image/svg+xml</dc:format>
        <dc:type
           rdf:resource="http://purl.org/dc/dcmitype/StillImage" />
        <dc:date>07-AUG-2006</dc:date>
        <dc:creator>
          <cc:Agent>
            <dc:title>Jérôme BLUM (wagner51)</dc:title>
          </cc:Agent>
        </dc:creator>
        <cc:license
           rdf:resource="http://creativecommons.org/licenses/GPL/2.0/" />
        <dc:coverage />
        <dc:description>Gabarit pour le Projet:Blasons de WIkipédia</dc:description>
        <dc:subject>
          <rdf:Bag>
            <rdf:li>blason suisse modèle gabarit projet blasons</rdf:li>
          </rdf:Bag>
        </dc:subject>
        <dc:language>fr</dc:language>
        <dc:title />
      </cc:Work>
      <cc:License
         rdf:about="http://creativecommons.org/licenses/GPL/2.0/">
        <cc:permits
           rdf:resource="http://web.resource.org/cc/Reproduction" />
        <cc:permits
           rdf:resource="http://web.resource.org/cc/Distribution" />
        <cc:requires
           rdf:resource="http://web.resource.org/cc/Notice" />
        <cc:permits
           rdf:resource="http://web.resource.org/cc/DerivativeWorks" />
        <cc:requires
           rdf:resource="http://web.resource.org/cc/ShareAlike" />
        <cc:requires
           rdf:resource="http://web.resource.org/cc/SourceCode" />
      </cc:License>
    </rdf:RDF>
  </metadata>
  <defs
     id="defs29">
    <linearGradient
       id="linearGradient2893">
      <stop
         id="stop2895"
         style="stop-color:#ffffff;stop-opacity:0.3137255"
         offset="0" />
      <stop
         id="stop2897"
         style="stop-color:#ffffff;stop-opacity:0.25098041"
         offset="0.19" />
      <stop
         id="stop2901"
         style="stop-color:#6b6b6b;stop-opacity:0.1254902"
         offset="0.60000002" />
      <stop
         id="stop2899"
         style="stop-color:#000000;stop-opacity:0.1254902"
         offset="1" />
    </linearGradient>
    <radialGradient
       cx="858.04236"
       cy="579.93323"
       r="300"
       fx="858.04236"
       fy="579.93323"
       id="radialGradient3236"
       xlink:href="#linearGradient2893"
       gradientUnits="userSpaceOnUse"
       gradientTransform="matrix(1.215027,0,0,1.266667,-839.1924,-490.4894)" />
    <inkscape:path-effect
       effect="spiro"
       id="path-effect3775" />
    <inkscape:path-effect
       effect="spiro"
       id="path-effect3779" />
  </defs>
  <g
     id="layer1"
     style="display:inline">
    <path
       d="m 1.5,1.49998 0,458.86792 C 1.5,626.6785 135.81456,761.5 301.49999,761.5 467.18543,761.5 601.5,626.6785 601.5,460.3679 l 0,-458.86792 -600,0 z"
       id="path1899"
       style="fill:#e20909;fill-opacity:1" />
  </g>
  <g
     id="layer2"
     style="display:inline">
    <g
       transform="matrix(2.8110142,0,0,2.4075157,-94.27647,109.07127)"
       id="g3832">
      <path
         d="m 159.78763,197.11582 c 0.33464,-0.96137 3.27273,-0.99027 3.27273,-0.0322 0,0.396 -0.44182,0.92809 -0.98182,1.18243 -0.54,0.25434 1.13891,0.31436 3.73091,0.13339 2.592,-0.18098 5.85696,-0.91345 7.25545,-1.6277 2.48626,-1.26981 4.60637,-1.02299 3.70737,0.43161 -0.24854,0.40214 -0.0776,0.73118 0.37992,0.73118 0.45749,0 0.83181,-0.28544 0.83181,-0.6343 0,-0.34886 1.41545,-1.25879 3.14545,-2.02206 1.73,-0.76328 3.52193,-2.09121 3.98205,-2.95097 0.69059,-1.29038 1.04399,-1.39107 2.02497,-0.57693 0.99755,0.82789 1.80321,0.36309 5.01754,-2.89474 2.10605,-2.13455 3.84409,-4.31173 3.86231,-4.83817 0.0182,-0.52644 0.47495,-0.79524 1.01495,-0.59734 0.54,0.1979 1.33527,0.0985 1.76727,-0.22101 1.15642,-0.85517 2.74909,-3.9158 2.74909,-5.28292 0,-0.65385 0.35346,-1.18884 0.78546,-1.18884 0.432,0 0.78545,-1.10158 0.78545,-2.44797 0,-2.08306 0.2406,-2.38505 1.61403,-2.0259 1.2039,0.31484 1.80264,-0.0741 2.35636,-1.53043 1.13673,-2.98982 0.88427,-10.01729 -0.50708,-14.11543 -0.81713,-2.4068 -1.07385,-4.79421 -0.74197,-6.90017 1.82003,-11.54939 0.81544,-18.54669 -4.07083,-28.35464 -1.63131,-3.27445 -10.82769,-13.23065 -15.24711,-16.50685 -4.35411,-3.22778 -22.13945,-12.947678 -23.6915,-12.947678 -0.27994,0 -2.37509,-0.840774 -4.65589,-1.868392 -2.2808,-1.027618 -5.47237,-2.335714 -7.09237,-2.906881 -1.62,-0.571167 -2.94545,-1.297115 -2.94545,-1.613221 0,-0.316107 -0.77142,-0.819575 -1.71426,-1.118818 -2.68808,-0.853168 -10.49796,-9.422559 -12.69872,-13.933693 -2.20203,-4.51371 -3.63744,-11.90486 -3.64655,-18.77658 -0.003,-2.46368 -0.32982,-5.29131 -0.72569,-6.28364 -0.39586,-0.99233 -1.17265,-3.5715 -1.72619,-5.7315 -0.69756,-2.72202 -2.0765,-5.07227 -4.49318,-7.65819 -1.91771,-2.052 -3.81708,-3.7309 -4.22082,-3.7309 -1.37998,0 -2.73681,-2.00138 -3.26477,-4.81567 -0.53225,-2.83712 -3.39525,-6.05145 -8.01125,-8.99434 -1.26822,-0.80854 -2.56553,-1.83169 -2.88291,-2.27367 -0.33582,-0.46765 -0.58209,-0.24834 -0.58909,0.52459 -0.0176,1.94168 -1.48543,2.53117 -3.00698,1.20761 -2.366779,-2.05881 -3.288689,-0.78265 -3.288689,4.55239 0,2.74651 0.35346,5.21209 0.78546,5.47909 1.675819,1.03571 0.70572,4.3405 -2.16,7.35836 -1.62,1.706 -4.29153,5.02127 -5.93672,7.36725 -3.769642,5.37535 -8.248042,10.0162 -9.665592,10.0162 -0.59873,0 -1.0886,0.32752 -1.0886,0.72781 0,0.4003 -1.944,1.84006 -4.32,3.19947 -3.27765,1.87528 -4.32,2.90974 -4.32,4.28731 0,1.73483 2.83752,4.35269 4.71793,4.35269 0.46527,0 1.62643,0.73745 2.58037,1.63878 1.82706,1.7263 1.60858,1.72327 14.890792,0.20655 3.42367,-0.39095 3.73091,-0.28731 3.73091,1.25862 0,0.92656 -0.70691,3.14779 -1.57091,4.93607 -1.86304,3.85605 -2.08286,7.669069 -0.44211,7.669069 0.85998,0 1.02267,0.70145 0.68316,2.945454 -0.2451,1.62 -0.73034,3.258513 -1.07831,3.64114 -0.34796,0.382634 -0.15667,1.171686 0.42511,1.753456 0.58177,0.581779 0.87128,1.770894 0.64335,2.642497 -0.22793,0.871596 -0.0364,1.584725 0.42564,1.584725 0.55009,0 0.67411,1.401157 0.35929,4.059292 -0.42655,3.601608 -0.33047,4.001616 0.8522,3.547789 0.86041,-0.330174 1.51174,-0.04563 1.83726,0.802695 0.27919,0.727551 0.0906,1.452101 -0.42246,1.623118 -1.12273,0.374241 -1.25116,4.105288 -0.14131,4.105288 0.432,0 0.78545,0.83919 0.78545,1.86488 0,5.11654 6.135699,14.01156 11.691779,16.94975 1.86682,0.98723 1.87159,1.0252 1.31774,10.49401 -0.47837,8.17833 -0.9312,10.46377 -3.24814,16.3931 -1.68973,4.32421 -2.70202,8.28552 -2.71842,10.63771 -0.0384,5.50386 -1.95942,7.46999 -7.670869,7.85092 -6.9314,0.46229 -7.64213,0.75875 -9.86243,4.11386 -1.14231,1.72615 -2.076932,3.32276 -2.076932,3.54802 0,0.22526 1.196692,0.40957 2.659312,0.40957 1.46262,0 3.67171,0.528 4.90909,1.17334 1.23738,0.64534 2.84747,1.17552 3.57797,1.17818 0.73051,0.002 1.54664,0.35829 1.81363,0.79029 1.372409,2.22061 7.904009,-0.2242 10.779389,-4.03477 2.81985,-3.73699 5.4546,-6.17614 6.67141,-6.17614 1.94922,0 3.21311,-1.98959 3.78904,-5.96465 0.30708,-2.11944 0.83454,-4.20698 1.17213,-4.63898 0.33759,-0.432 0.99688,-2.86631 1.46508,-5.40958 0.4682,-2.54326 1.15389,-5.01744 1.52375,-5.49818 0.36986,-0.48073 1.34049,-3.25988 2.15694,-6.17588 0.81645,-2.916 1.75396,-5.30182 2.08336,-5.30182 0.3294,0 0.5989,-0.718 0.5989,-1.59555 0,-2.55234 1.83715,-2.59049 7.17825,-0.14906 2.74796,1.2561 7.11702,2.98272 9.70902,3.83694 l 4.71273,1.55313 0.47218,4.65727 c 0.39774,3.92305 2.69573,9.58714 4.5982,11.33364 1.69192,1.5532 7.10417,8.69166 7.10417,9.37001 0,0.46249 0.37431,0.8409 0.83181,0.8409 0.45749,0 0.61336,0.35345 0.34637,0.78545 -0.26699,0.432 -2.62312,0.78546 -5.23585,0.78546 -3.89988,0 -4.66946,0.21094 -4.29829,1.17818 0.24866,0.648 0.37483,1.17435 0.2804,1.16968 -0.0944,-0.005 -1.9068,-0.53486 -4.02746,-1.17818 -5.11609,-1.55202 -5.43035,-1.50063 -4.85444,0.79395 0.51087,2.03548 -0.8129,2.72906 -2.32545,1.21839 -0.4104,-0.40989 -2.25502,-0.98631 -4.09914,-1.28093 -2.89994,-0.46331 -3.28655,-0.36262 -2.86143,0.74524 0.58078,1.5135 -1.24204,1.7576 -2.64538,0.35427 -0.69249,-0.6925 -1.37729,-0.70498 -2.70981,-0.0493 -0.98074,0.48251 -2.62513,1.11489 -3.65421,1.40526 -1.40488,0.39642 -1.60605,0.69175 -0.80746,1.1853 1.34503,0.83127 0.30935,1.20729 -5.11395,1.85668 -3.99464,0.47833 -5.5024,1.19673 -3.79299,1.80724 1.68674,0.6024 1.08605,2.57584 -0.78545,2.58049 -0.972,0.002 -3.12528,0.38146 -4.78505,0.84233 -2.70722,0.75173 -2.87633,0.9414 -1.64332,1.843 1.25857,0.92029 1.19567,1.04991 -0.74598,1.53723 -2.17949,0.54698 -6.76747,4.1593 -6.76747,5.3283 0,0.36059 0.68605,0.65562 1.52456,0.65562 1.75422,0 3.13906,1.71819 1.75633,2.1791 -0.50849,0.1695 -0.92452,0.77945 -0.92452,1.35545 0,0.576 -0.30674,1.16509 -0.68163,1.30909 -0.3749,0.144 -0.9289,1.05709 -1.23112,2.02909 -0.48435,1.55781 -0.27456,1.76727 1.77003,1.76727 1.27573,0 3.33191,-0.528 4.5693,-1.17334 3.71396,-1.93697 6.39816,-1.32559 4.13154,0.94104 -1.21115,1.21114 9.94714,0.71151 11.42064,-0.51139 0.86047,-0.71412 1.26332,-0.62554 1.83979,0.40456 0.63881,1.1415 1.33405,1.21622 5.16885,0.55553 2.90813,-0.50103 4.43078,-0.49682 4.43078,0.0122 0,0.97598 7.63799,0.14342 8.99179,-0.98013 1.14088,-0.94684 2.05642,-0.29757 1.52675,1.08272 -0.28543,0.74383 0.93406,0.80819 5.35594,0.28267 3.14904,-0.37424 5.84333,-1.01893 5.98733,-1.43263 l 0,0 z"
         id="path2995"
         style="fill:#fcef3c;fill-opacity:1;fill-rule:nonzero;stroke:#000000;stroke-width:1.15320146;stroke-miterlimit:4;stroke-opacity:1;stroke-dasharray:none" />
      <g
         id="g3817">
        <path
           d="m 103.68,15.316363 c 0.78545,9.818182 1.57091,11.781819 1.57091,11.781819 l -5.10546,-1.178183"
           id="path3765"
           style="fill:none;stroke:#000000;stroke-width:1.15320146;stroke-linecap:butt;stroke-linejoin:miter;stroke-miterlimit:4;stroke-opacity:1;stroke-dasharray:none" />
        <path
           d="m 105.95802,12.487936 c 0.13091,0.523636 0.26182,1.047272 0.39273,1.570909 2.27761,5.695392 2.25172,7.803259 4.12314,11.271569"
           id="path3767"
           style="fill:none;stroke:#000000;stroke-width:0.38440049px;stroke-linecap:butt;stroke-linejoin:miter;stroke-opacity:1" />
        <path
           d="m 91.912859,56.047421 -4.279345,1.354712 -6.437371,0.588103 -7.10777,1.708264"
           id="path3773"
           style="fill:none;stroke:#000000;stroke-width:1.15320146;stroke-linecap:butt;stroke-linejoin:miter;stroke-miterlimit:4;stroke-opacity:1;stroke-dasharray:none" />
        <path
           d="m 92.03745,41.121807 c 2.202332,0.200473 4.365137,0.826583 6.333976,1.833622 1.32923,0.679886 2.570204,1.53208 3.682054,2.528517"
           id="path3777"
           style="fill:none;stroke:#000000;stroke-width:1.15320146;stroke-linecap:butt;stroke-linejoin:miter;stroke-miterlimit:4;stroke-opacity:1;stroke-dasharray:none" />
        <path
           d="m 12.020815,19.954645 a 0.35355338,0.53033006 0 1 1 -0.707106,0 0.35355338,0.53033006 0 1 1 0.707106,0 z"
           transform="translate(82.37794,24.748737)"
           id="path3781"
           style="fill:#fcef3c;fill-opacity:1;fill-rule:nonzero;stroke:#000000;stroke-width:1.15320146;stroke-miterlimit:4;stroke-opacity:1;stroke-dasharray:none" />
        <path
           d="m 12.020815,19.954645 a 0.35355338,0.53033006 0 1 1 -0.707106,0 0.35355338,0.53033006 0 1 1 0.707106,0 z"
           transform="translate(61.871844,36.946329)"
           id="path3781-1"
           style="fill:#fcef3c;fill-opacity:1;fill-rule:nonzero;stroke:#000000;stroke-width:1.15320146;stroke-miterlimit:4;stroke-opacity:1;stroke-dasharray:none" />
        <path
           d="m 106.77312,21.899188 c 0.35356,3.889088 0.35356,3.889088 0.35356,3.889088 l -0.35356,-0.353554"
           id="path3801"
           style="fill:none;stroke:#000000;stroke-width:0.38440049px;stroke-linecap:butt;stroke-linejoin:miter;stroke-opacity:1" />
        <path
           d="m 95.105862,176.04847 5.303298,-4.5962 4.94975,-0.35355 2.82843,-1.76777 0.35355,-2.12132 3.18198,-3.18198 1.06066,-8.83883 6.71752,-15.90991 3.18198,-6.36396 -2.47488,-7.42462 -3.18198,-6.71751 0,0 0,0"
           id="path3803"
           style="fill:none;stroke:#000000;stroke-width:1.15320146;stroke-linecap:butt;stroke-linejoin:miter;stroke-miterlimit:4;stroke-opacity:1;stroke-dasharray:none" />
        <path
           d="m 131.52186,132.20785 c 3.88909,-2.12132 8.83884,-3.18198 8.83884,-3.18198 l -1.41422,-4.24264 -6.01041,-4.5962 -0.7071,-2.12132 0.35355,1.06066"
           id="path3807"
           style="fill:none;stroke:#000000;stroke-width:1.15320146;stroke-linecap:butt;stroke-linejoin:miter;stroke-miterlimit:4;stroke-opacity:1;stroke-dasharray:none" />
        <path
           d="m 152.73506,139.63247 c 0,-1.76777 1.76777,-6.36396 1.76777,-6.36396"
           id="path3809"
           style="fill:none;stroke:#000000;stroke-width:1.15320146;stroke-linecap:butt;stroke-linejoin:miter;stroke-miterlimit:4;stroke-opacity:1;stroke-dasharray:none" />
        <path
           d="m 156.62415,132.5614 -2.47487,0.35355 z"
           id="path3811"
           style="fill:none;stroke:#000000;stroke-width:0.38440049px;stroke-linecap:butt;stroke-linejoin:miter;stroke-opacity:1" />
        <path
           d="m 155.56349,131.85429 1.76777,-1.06066 1.76777,0 1.76776,0 2.12132,0.35356"
           id="path3813"
           style="fill:none;stroke:#000000;stroke-width:1.15320146;stroke-linecap:butt;stroke-linejoin:miter;stroke-miterlimit:4;stroke-opacity:1;stroke-dasharray:none" />
        <path
           d="m 164.75588,164.73476 8.83883,2.12132 -4.24264,-3.88909 8.83884,2.47488 -2.47487,-2.82843 7.77817,0 c 0,0 -0.70711,2.82843 2.12132,2.47487 2.82843,-0.35355 0.35355,-3.53553 0.35355,-3.53553 l 7.42462,0 5.65686,0 1.76777,-2.12132 3.88908,-7.77818 0.35356,0"
           id="path3815"
           style="fill:none;stroke:#000000;stroke-width:1.15320146;stroke-linecap:butt;stroke-linejoin:miter;stroke-miterlimit:4;stroke-opacity:1;stroke-dasharray:none" />
      </g>
    </g>
    <path
       d="m 380.25984,165.42795 94.98214,-38.69643 -38.69642,94.98215 42.21427,-28.14286 42.21428,28.14286 -38.69641,-94.98215 94.98213,38.69643 -28.14285,-42.21428 28.14285,-42.2143 -94.98213,38.69644 38.69641,-94.98214 -42.21428,28.142856 -42.21427,-28.142856 38.69642,94.98214 -94.98214,-38.69644 28.14286,42.2143 -28.14286,42.21428 z"
       id="path6906"
       style="fill:#ffffff;fill-opacity:1;stroke:#000000;stroke-width:3;stroke-miterlimit:4;stroke-opacity:1;stroke-dasharray:none;display:inline" />
  </g>
  <g
     id="layer3"
     style="display:inline">
    <path
       d="m 1.5,1.5 0,458.8679 C 1.5,626.67854 135.81454,761.5 301.49993,761.5 467.1854,761.5 601.5,626.67854 601.5,460.3679 L 601.5,1.5 1.5,1.5 z"
       id="path2346"
       style="fill:url(#radialGradient3236);fill-opacity:1" />
  </g>
  <g
     id="layer4"
     style="display:inline">
    <path
       d="m 1.5,1.5 0,458.86794 C 1.5,626.67854 135.81454,761.5 301.49993,761.5 467.1854,761.5 601.5,626.67854 601.5,460.36794 L 601.5,1.5 1.5,1.5 z"
       id="path3239"
       style="fill:none;stroke:#000000;stroke-width:3;stroke-miterlimit:4;stroke-opacity:1;stroke-dasharray:none" />
  </g>
</svg>
