<?xml version="1.0" encoding="UTF-8"?>
<svg version="1.0" viewBox="0 0 601.47 658.97" xmlns="http://www.w3.org/2000/svg" xmlns:cc="http://creativecommons.org/ns#" xmlns:dc="http://purl.org/dc/elements/1.1/" xmlns:rdf="http://www.w3.org/1999/02/22-rdf-syntax-ns#" xmlns:xlink="http://www.w3.org/1999/xlink">
<metadata>
<rdf:RDF>
<cc:Work rdf:about="">
<dc:format>image/svg+xml</dc:format>
<dc:type rdf:resource="http://purl.org/dc/dcmitype/StillImage"/>
<dc:title/>
<dc:date>03-AUG-2006</dc:date>
<dc:creator>
<cc:Agent>
<dc:title>Jérôme BLUM (wagner51)</dc:title>
</cc:Agent>
</dc:creator>
<cc:license rdf:resource="http://web.resource.org/cc/PublicDomain"/>
<dc:language>fr</dc:language>
<dc:subject>
<rdf:Bag>
<rdf:li>gabarit modèle blason projet wikipédia</rdf:li>
</rdf:Bag>
</dc:subject>
<dc:rights>
<cc:Agent>
<dc:title/>
</cc:Agent>
</dc:rights>
<dc:publisher>
<cc:Agent>
<dc:title/>
</cc:Agent>
</dc:publisher>
<dc:identifier/>
<dc:source/>
<dc:relation/>
<dc:coverage/>
<dc:description/>
<dc:contributor>
<cc:Agent>
<dc:title/>
</cc:Agent>
</dc:contributor>
</cc:Work>
<cc:License rdf:about="http://web.resource.org/cc/PublicDomain">
<cc:permits rdf:resource="http://web.resource.org/cc/Reproduction"/>
<cc:permits rdf:resource="http://web.resource.org/cc/Distribution"/>
<cc:permits rdf:resource="http://web.resource.org/cc/DerivativeWorks"/>
</cc:License>
<cc:Work rdf:about="">
<dc:format>image/svg+xml</dc:format>
<dc:type rdf:resource="http://purl.org/dc/dcmitype/StillImage"/>
</cc:Work>
</rdf:RDF>
</metadata>
<desc>Flag of Canton of Valais (Wallis)</desc>
<defs>
<radialGradient id="a" cx="221.44" cy="226.33" r="300" gradientTransform="matrix(1.3542 0 0 .97739 -77.582 118.63)" gradientUnits="userSpaceOnUse">
<stop stop-color="#fff" stop-opacity=".31373" offset="0"/>
<stop stop-color="#fff" stop-opacity=".25098" offset=".19"/>
<stop stop-color="#6b6b6b" stop-opacity=".12549" offset=".6"/>
<stop stop-opacity=".12549" offset="1"/>
</radialGradient>
</defs>
<g transform="translate(.91382 -.83544)">
<path d="m300.81 658.26s298.72-81.384 298.72-288.21v-367.34h-597.45v367.34c0 206.83 298.72 288.21 298.72 288.21z" fill="#fff" fill-rule="evenodd"/>
</g>
<g transform="translate(.91382 -.83544)">
<g transform="matrix(1.0007 0 0 .72457 -63.128 -176.19)">
<g transform="translate(62.857 493.79)">
<rect y="3.3751e-14" width="600" height="660" fill="none"/>
</g>
<rect x="314.29" y="686.65" width="0" height="45.714" fill="#f00" stroke-width="5.394"/>
</g>
<path d="m489.7 564.03c32.869-25.86 53.015-49.458 78.938-84.877l-470.2-476.52-96.406 1.0169-1.0261 72.046z" fill="#e20909" fill-rule="evenodd" stroke="#000" stroke-width="3"/>
<g transform="matrix(.49229 .24346 -.2509 .47117 80.61 136)" fill="#e20909" stroke="#000" stroke-width="6.9274">
<path d="m213.9 272.34c-2.453-1.3548-4.6204-2.9446-4.8165-3.5329-0.66364-1.9909 9.3446-6.1708 14.775-6.1708 7.5521 0 16.001 4.0901 16.001 7.746-2.3939 4.2137-5.5497 10.733-10.385 12.254-6.216-1.0225-10.27-7.0644-15.575-10.296zm401.49 356.38c-0.8576-3.7119 2.718-6.4201 2.9986-9.893-0.75033-0.75034-7.5256 5.8928-7.5256 7.3788 0 1.3107-5.6607 2.7566-7.1612 1.8292-1.3565-0.83837-0.0467-5.9866 3.1549-12.4 2.3771-5.0144 4.2663-10.15 7.1755-14.893 2.791-4.3681 2.9308-5.099 2.6989-14.107-0.21091-8.1925 0.1356-10.585 2.5176-17.382 7.3591-17.376 0.71923-45.839-10.818-53.711-1.9621-1.1576-3.5674-2.4604-3.5674-2.895 0-1.2761-14.091-7.5975-20.035-8.9882-3.0056-0.70314-6.1397-1.8393-6.9647-2.5248-1.8606-1.546-6.8595-3.1635-13.83-4.4749-12.681-2.7894-23.885-9.6154-32.135-19.524-36.676 0.21805-73.495 0.0767-110.04 3.5419l-23.917 0.45806-4.7916 4.6104c-7.2054 7.8566-20.414 7.2243-30.792 8.9748-12.867 1.8824-26.154 1.2969-37.241 8.9393-1.2327 0.96229-3.9327 2.0604-6 2.4403-7.1115 1.3068-16.072 6.6222-24.321 14.428-7.8877 7.4636-8.0579 7.7267-9.0252 13.949-0.73744 6.8579-5.161 12.087-9.1448 17.387l-2.4243-2.6145c-3.0824-3.3242-4.1521-3.2948-4.9246 0.13548-2.7247 12.098-4.6465 16.278-9.9011 21.532-9.6925 7.5112-22.824 10.696-30.516 6.7678 2.6957-6.32 7.5029-11.303 10.806-17.3 0.95462-1.992-3.203-0.30705-9.2531 3.75-6.4166 4.3028-10.763 5.5887-12.02 3.5558 8.3421-25.222 31.142-45.855 50.966-62.349 6.5084-5.7027 18.363-14.525 20.213-22.327-8.9166-0.16895-15.224 7.7432-23.448 10.308-12.805 3.3439-19.619 9.2773-24.04 20.933-3.1419 8.2844-7.2822 11.965-12.236 10.877-3.25-0.71383-4.2036 0.5018-6.5346 8.3309-4.7354 13.373-17.125 22.702-30.875 24.846-5.9166 0.5525-6.5801 0.43136-6.5801-1.2014 1.5064-5.4815 6.4426-9.47 7.554-15.253-3.8202 1.9015-6.6815 5.2828-10.779 6.7794-1.6073 0-1.7731-0.51868-1.1987-3.75 2.3893-10.955 8.5382-20.423 15.717-28.876 8.0717-5.4819 12.785-19.675 18.942-22.374 11.143-4.211 17.976-15.425 24.83-24.594 5.3984-7.8464 8.9542-9.7584 32.292-17.365 8.5546-2.7881 12.426-5.0669 15.73-9.2595 4.314-5.4742 5.1148-7.6317 4.401-11.857-0.73304-4.3389-2.7087-5.1448-4.7194-1.9251-1.8554 2.971-3.0101 2.5222-8.3619-3.25-6.2439-6.7343-13-10.5-20.243-11.282-20.37 0.39379-38.748 9.1246-58.978 11.131-8.813 0.65978-9.8632 0.51808-19.5-2.6311-9.1437-2.988-18.572-8.1707-18.654-10.254-0.0598-1.5186 9.17-4.7076 14.562-5.0314 7.8374-0.47063 8.5257-1.6952 3.8718-6.8892-5.5281-6.1696-9.7389-9.76-11.465-9.7754-6.7699 2.8383-12.035 7.1963-19.657 7.2944-8.103-0.10521-14.114-3.1385-20.732-10.462-5.5924-6.1882-10.619-15.179-10.595-18.951 0.0291-4.5562 1.1693-5.1345 9.6108-4.8745 10.503 0.3235 9.8462 0.49821 14.646-3.8938 5.8162-5.3216 18.2-13.082 22.049-13.817 31.526-12.965 56.756-50.465 78.662-74.929-0.0332-3.8077-4.4817-9.8557-9.1098-12.385-11.686-6.3876-13.75-9.8697-7.8982-13.326 3.2565-1.9237 21.595-2.4606 22.199-0.64994 0.18765 0.56296 1.9295 1.2813 3.8708 1.5964 3.3974 0.55133 3.6898 0.34449 7.8049-5.522 3.7475-5.3424 6.6725-8.098 8.5958-8.098 0.4324 2.6535-0.52404 5.4442 0.20259 8 0.49735 0 4.0424-2.5111 7.8778-5.5803 11.029-8.8257 13.101-9.2835 11.851-2.618l-0.68395 3.6458c8.7659-5.4601 19.27-11.303 29.31-11.945 0.89272 4.2407-4.5668 8.7968-2.1855 12.498 13.61-3.7599 27.451-10.51 41.853-9.6622-11.58 13.684 10.295 4.7511 23.539 4.8742 10.966 0.34002 11.797 1.4614 4.5943 6.1993-14.685 7.7219 0.60394 6.2483 8.9455 5.389 26.249-4e-3 36.612 1.2958 38.966 4.8886 2.738 3.4391-3.7498 6.6405 2.5342 7.3103 11.98 0.66049 29.261 4.7506 31.282 7.5728 4.5068 0.84547 4.3772 1.9234-0.53215 4.428-2.2 1.1224-4 2.3958-4 2.8299 0 0.43412 2.8125 1.3341 6.25 1.9999 10.484 1.6616 20.969 4.7017 29.75 10.879-2.1618 2.1875-5.5027 2.9023-7.718 4.9063 49.165 9.6261 91.991 34.506 134.72 59.156 10.785 6.452 20.452 14.52 23.158 19.327 5.7464 10.21 16.255 13.294 28.478 8.3581 9.4247-3.8058 20.029-4.4413 26.598-1.5938 8.2588 4.2928 14.716 11.594 19.266 19.637l0.10133 22c0.10911 23.689 0.4804 25.93 5.7599 34.766 4.3286 7.2449 2.0415 12.123-4.1248 8.7976-0.95504-0.51503-5.0361-2.1757-9.069-3.6904-10.526-3.5601-16.858-12.708-18.172-23.615 3e-3 -1.7907-1.0366-3.6703-2.9964-5.4165-7.1116-7.558-5.8298-14.42-3.6954-22.274 2.1118-5.8223 2.8641-11.572 0.2614-15.771-8.806 2.1163-16.93 4.7326-31.389 2.7036-5.7787 37.204-13.93 77.603 33.38 84.582 6.7406 0.47629 11.826 2.535 13.795 5.5844 0.82873 1.2834 2.8499 5.7085 4.4915 9.8335 7.4352 18.683 21.16 47.629 25.131 53 3.0513 4.1275 4.4743 6.9381 6.5192 12.876 2.4719 7.1775 2.0944 8.7928-2.243 9.5969-4.3562 0.80764-9.7991 3.91-10.622 6.0542 1.2496 10.335 6.2501 13.084 3.9332 23.475-1.6776 8.3887-8.971 20.999-12.145 20.999-0.74059 0-2.9209 1.3824-4.8452 3.0719-3.2627 2.8647-3.6866 2.9804-6.2848 1.7147-2.7371-1.3333-2.7805-1.4929-2.469-9.0719 0.25515-6.2084 0.0348-7.7147-1.1287-7.7147-1.4968 0-2.3798 1.8275-5.1935 10.75-1.6287 5.1647-3.247 6.3481-6.1326 4.4847-3.5485-6.4255-5.3273-13.809-7.7902-20.735-7.1401-16.31 1.3725-29.171 11.392-42.189-3.3022-13.945-7.5508-28.07-16.617-39.421-3.8549-3.5334-8.9909-5.8906-12.835-5.8906-10.513-1.7072-20.131-6.845-30.48-9.1197 4.1089 7.0938 6.0841 15.209 9.0779 22.827 4.9904 10.997 2.6875 23.651 6.9586 34.826 2.953 6.2673 1.6761 9.7248-5.6628 15.333-4.0891 3.1251-4.4054 3.6995-4.4049 8 1.0447 8.0141 4.0371 15.115 3.838 23.316-0.41699 9.2268-1.6735 11.266-11.087 17.99-6.0751 4.3394-7.1105 4.7218-14.541 5.3699-7.6133 0.66411-8.0329 0.59373-8.6836-1.4567zm-395.09-246.11c-3.4492-1.3114-20.142-1.2585-20.961 0.0664-0.72826 1.1784 5.4648 9.8798 7.0657 9.9274 4.7467-0.32609 21.933-4.745 13.895-9.9938z"/>
<path d="m231.86 323.55c0.51193-2.9918 3.0318-4.9984 4-7.8018 0-1.73 6.0088-4.3325 8.5378-3.6978 3.0635 1.1605 5.2544 3.4008 8.4924 4.2359 2.8552 0.57104 3.115 0.41717 2.808-1.6631-1.9954-5.7057-7.282-6.3382-12.641-6.2361-7.566-0.41655-12.092 5.1398-17.883 9.035-5.0088 3.2406-7.1358 6.5131-5.5081 8.4745 1.6477 1.9854 12.194-0.0441 12.194-2.3465zm-31 75.713c0-0.25819-1.8289-2.373-4.0642-4.6995-8.0894-8.4195-12.353-16.985-13.545-27.211-0.37027-3.178-1.0189-5.9918-1.4414-6.2528-0.42247-0.26111-1.934 1.8649-3.359 4.7245-6.6514 12.794-1.6191 29.624 13.535 36.807 3.1962-0.35098 6.2571-1.5779 8.8741-3.3674z"/>
</g>
<path d="m378.45 129.77a15.954 15.524 0 1 0-27.978-1.2491 15.954 15.524 0 1 0 0 26.2 15.954 15.524 0 1 0 27.978-1.2491h49.69v48.352a15.954 15.524 0 1 0-1.2836 27.225 15.954 15.524 0 1 0 26.924 0 15.954 15.524 0 1 0-1.2836-27.225v-48.352h49.69a15.954 15.524 0 1 0 27.978 1.2491 15.954 15.524 0 1 0 0-26.2 15.954 15.524 0 1 0-27.978 1.2491h-49.69v-48.353a15.954 15.524 0 1 0 1.2836-27.225 15.954 15.524 0 1 0-26.924 0 15.954 15.524 0 1 0 1.2836 27.225v48.353z" fill="#e20909" stroke="#000" stroke-width="3.75"/>
</g>
<g transform="translate(.91382 -.83544)">
<path d="m300.33 657.89s298.72-81.384 298.72-288.21v-367.34h-597.45v367.34c0 206.83 298.72 288.21 298.72 288.21z" fill="url(#a)" fill-rule="evenodd" stroke="#000" stroke-width="3"/>
</g>
</svg>
