<?xml version="1.0" encoding="UTF-8" standalone="no"?>
<svg
   xmlns:dc="http://purl.org/dc/elements/1.1/"
   xmlns:cc="http://creativecommons.org/ns#"
   xmlns:rdf="http://www.w3.org/1999/02/22-rdf-syntax-ns#"
   xmlns:svg="http://www.w3.org/2000/svg"
   xmlns="http://www.w3.org/2000/svg"
   xmlns:xlink="http://www.w3.org/1999/xlink"
   xmlns:sodipodi="http://sodipodi.sourceforge.net/DTD/sodipodi-0.dtd"
   xmlns:inkscape="http://www.inkscape.org/namespaces/inkscape"
   height="658.97394"
   width="601.46545"
   version="1.0"
   id="svg2"
   sodipodi:version="0.32"
   inkscape:version="0.91 r13725"
   sodipodi:docname="2254.svg"
   inkscape:export-filename="/Users/olivier/Desktop/Blason Rouge/Blason_Vide_3D.png"
   inkscape:export-xdpi="144"
   inkscape:export-ydpi="144"
   inkscape:output_extension="org.inkscape.output.svg.inkscape">
  <metadata
     id="metadata49">
    <rdf:RDF>
      <cc:Work
         rdf:about="">
        <dc:format>image/svg+xml</dc:format>
        <dc:type
           rdf:resource="http://purl.org/dc/dcmitype/StillImage" />
        <dc:title />
        <dc:date>03-AUG-2006</dc:date>
        <dc:creator>
          <cc:Agent>
            <dc:title>Jérôme BLUM (wagner51)</dc:title>
          </cc:Agent>
        </dc:creator>
        <cc:license
           rdf:resource="http://web.resource.org/cc/PublicDomain" />
        <dc:language>fr</dc:language>
        <dc:subject>
          <rdf:Bag>
            <rdf:li>gabarit modèle blason projet wikipédia</rdf:li>
          </rdf:Bag>
        </dc:subject>
        <dc:rights>
          <cc:Agent>
            <dc:title />
          </cc:Agent>
        </dc:rights>
        <dc:publisher>
          <cc:Agent>
            <dc:title />
          </cc:Agent>
        </dc:publisher>
        <dc:identifier />
        <dc:source />
        <dc:relation />
        <dc:coverage />
        <dc:description />
        <dc:contributor>
          <cc:Agent>
            <dc:title />
          </cc:Agent>
        </dc:contributor>
      </cc:Work>
      <cc:License
         rdf:about="http://web.resource.org/cc/PublicDomain">
        <cc:permits
           rdf:resource="http://web.resource.org/cc/Reproduction" />
        <cc:permits
           rdf:resource="http://web.resource.org/cc/Distribution" />
        <cc:permits
           rdf:resource="http://web.resource.org/cc/DerivativeWorks" />
      </cc:License>
      <cc:Work
         rdf:about="">
        <dc:format>image/svg+xml</dc:format>
        <dc:type
           rdf:resource="http://purl.org/dc/dcmitype/StillImage" />
      </cc:Work>
    </rdf:RDF>
  </metadata>
  <sodipodi:namedview
     inkscape:window-height="1553"
     inkscape:window-width="2560"
     inkscape:pageshadow="2"
     inkscape:pageopacity="0.0"
     guidetolerance="10.0"
     gridtolerance="10.0"
     objecttolerance="10000"
     borderopacity="1.0"
     bordercolor="#666666"
     pagecolor="#ffffff"
     id="base"
     showgrid="true"
     height="660px"
     inkscape:zoom="0.97454781"
     inkscape:cx="227.5237"
     inkscape:cy="291.95073"
     inkscape:window-x="1596"
     inkscape:window-y="956"
     inkscape:current-layer="layer4"
     showguides="true"
     inkscape:guide-bbox="true"
     inkscape:snap-nodes="false"
     inkscape:snap-global="false"
     inkscape:window-maximized="1"
     inkscape:document-rotation="0">
    <inkscape:grid
       type="xygrid"
       id="grid2403"
       visible="true"
       enabled="true"
       spacingx="30px"
       spacingy="30px" />
  </sodipodi:namedview>
  <desc
     id="desc4">Flag of Canton of Valais (Wallis)</desc>
  <defs
     id="defs6">
    <linearGradient
       id="linearGradient2893">
      <stop
         style="stop-color:white;stop-opacity:0.3137255;"
         offset="0"
         id="stop2895" />
      <stop
         id="stop2897"
         offset="0.19"
         style="stop-color:white;stop-opacity:0.25098041;" />
      <stop
         style="stop-color:#6b6b6b;stop-opacity:0.1254902;"
         offset="0.60000002"
         id="stop2901" />
      <stop
         style="stop-color:black;stop-opacity:0.1254902;"
         offset="1"
         id="stop2899" />
    </linearGradient>
    <radialGradient
       inkscape:collect="always"
       xlink:href="#linearGradient2893"
       id="radialGradient3163"
       gradientUnits="userSpaceOnUse"
       gradientTransform="matrix(1.354228,0,0,0.977392,-77.582135,118.62887)"
       cx="221.44487"
       cy="226.33101"
       fx="221.44487"
       fy="226.33101"
       r="300" />
    <pattern
       patternUnits="userSpaceOnUse"
       width="178.16786"
       height="199.71036"
       patternTransform="translate(-328.3183,-112.59276)"
       id="pattern4124">
      <g
         transform="matrix(0.8064028,0,0,0.7700541,264.81301,86.781828)"
         id="g4119">
        <path
           style="fill:#fcef3c;fill-opacity:1;stroke:#000000;stroke-width:3.80701542;stroke-miterlimit:4;stroke-dasharray:none;stroke-opacity:1;display:inline"
           sodipodi:nodetypes="cccccccccccccccccccccccccccccccccccccccc"
           id="path4262"
           d="M -267.3739,-6.8529926 L -272.22258,16.977187 L -277.07128,-6.8529926 L -277.07128,-26.380603 L -277.07128,-51.593813 L -302.28445,-51.593813 L -302.28445,-37.047743 L -311.98183,-37.047743 L -311.98183,-51.593813 L -326.5279,-51.593813 L -326.5279,-61.291192 L -311.98183,-61.291192 L -311.98183,-75.837272 L -302.28445,-75.837272 L -302.28445,-61.291192 L -277.07128,-61.291192 L -277.07128,-86.504393 L -291.61734,-86.504393 L -291.61734,-96.201773 L -277.07128,-96.201773 L -277.07128,-110.74784 L -267.3739,-110.74784 L -267.3739,-96.201773 L -252.82782,-96.201773 L -252.82782,-86.504393 L -267.3739,-86.504393 L -267.3739,-61.291192 L -242.1607,-61.291192 L -242.1607,-75.837272 L -232.46332,-75.837272 L -232.46332,-61.291192 L -217.91725,-61.291192 L -217.91725,-51.593813 L -232.46332,-51.593813 L -232.46332,-37.047743 L -242.1607,-37.047743 L -242.1607,-51.593813 L -267.3739,-51.593813 L -267.3739,-26.380603 L -267.3739,-6.8529926 z"
           inkscape:tile-cx="-271.30875"
           inkscape:tile-cy="-47.720769"
           inkscape:tile-w="108.61065"
           inkscape:tile-h="127.72503"
           inkscape:tile-x0="-325.61408"
           inkscape:tile-y0="-111.58328" />
        <use
           height="658.97394"
           width="601.46545"
           x="0"
           y="0"
           inkscape:tiled-clone-of="#path4262"
           xlink:href="#path4262"
           id="use2607" />
        <use
           height="658.97394"
           width="601.46545"
           x="0"
           y="0"
           inkscape:tiled-clone-of="#path4262"
           xlink:href="#path4262"
           transform="translate(108.61065,127.72503)"
           id="use2613" />
      </g>
    </pattern>
  </defs>
  <g
     inkscape:groupmode="layer"
     id="layer3"
     inkscape:label="Fond écu"
     style="display:inline"
     transform="translate(0.9138206,-0.8354424)"
     sodipodi:insensitive="true">
    <path
       sodipodi:nodetypes="cccccc"
       d="m 300.8089,658.25943 c 0,0 298.72277,-81.38384 298.72277,-288.21322 0,-206.82938 0,-367.3385906 0,-367.3385906 l -597.4454906,0 0,367.3385906 c 0,206.82938 298.7227206,288.21322 298.7227206,288.21322 z"
       style="display:inline;opacity:1;fill:#ffffff;fill-opacity:1;fill-rule:evenodd;stroke:none;stroke-width:3;stroke-linecap:butt;stroke-linejoin:miter;stroke-miterlimit:4;stroke-dasharray:none;stroke-opacity:1"
       id="path2458"
       inkscape:export-xdpi="144"
       inkscape:export-ydpi="144"
       inkscape:connector-curvature="0" />
  </g>
  <g
     inkscape:groupmode="layer"
     id="layer4"
     inkscape:label="Meubles"
     style="display:inline;opacity:1"
     transform="translate(0.9138206,-0.8354424)">
    <g
       id="g6475"
       inkscape:label="Calque 1"
       transform="matrix(1.000746,0,0,0.724569,-63.12785,-176.1916)"
       style="opacity:1">
      <g
         transform="translate(62.85714,493.7907)"
         style="display:inline;opacity:1"
         id="g6477">
        <g
           id="g5810" />
        <g
           id="g6515">
          <rect
             id="rect4923"
             style="display:inline;opacity:1;fill:none;fill-opacity:1;fill-rule:nonzero;stroke:none;stroke-width:7.56018829;stroke-linecap:round;stroke-linejoin:round;stroke-miterlimit:4;stroke-dasharray:none;stroke-opacity:1"
             y="3.375078e-014"
             x="0"
             height="660"
             width="600" />
        </g>
      </g>
      <rect
         y="686.64789"
         x="314.28571"
         height="45.714287"
         width="0"
         id="rect4632"
         style="fill:#ff0000;fill-opacity:1;stroke-width:5.39400005;stroke-miterlimit:4;stroke-dasharray:none" />
    </g>
    <path
       sodipodi:nodetypes="cccccc"
       d="m 489.70492,564.02679 c 32.86873,-25.86041 53.01481,-49.45801 78.93787,-84.87748 L 98.447167,2.6243738 2.0411207,3.6412826 1.0150038,75.687058 Z"
       style="display:inline;opacity:1;fill:#e20909;fill-opacity:1;fill-rule:evenodd;stroke:#000000;stroke-width:3;stroke-linecap:butt;stroke-linejoin:miter;stroke-miterlimit:4;stroke-dasharray:none;stroke-opacity:1"
       id="path2875-5"
       inkscape:export-xdpi="144"
       inkscape:export-ydpi="144"
       inkscape:connector-curvature="0" />
    <g
       id="g2338"
       transform="matrix(0.49229335,0.24346122,-0.25089509,0.47117269,80.609616,136)"
       style="display:inline;fill:#e20909;stroke:#000000;stroke-width:6.92737961;stroke-miterlimit:4;stroke-dasharray:none;stroke-opacity:1">
      <path
         style="fill:#e20909;stroke:#000000;stroke-width:6.92737961;stroke-miterlimit:4;stroke-dasharray:none;stroke-opacity:1"
         id="path2474"
         d="m 213.89723,272.33639 c -2.45295,-1.35476 -4.62037,-2.94458 -4.81649,-3.53293 -0.66364,-1.99094 9.34455,-6.17081 14.77527,-6.17081 7.5521,0 16.00113,4.09011 16.00113,7.74602 -2.39387,4.21366 -5.54972,10.73307 -10.38492,12.25398 -6.21597,-1.02246 -10.26982,-7.06442 -15.57499,-10.29626 z m 401.48699,356.3816 c -0.8576,-3.71191 2.71797,-6.42006 2.99857,-9.89302 -0.75033,-0.75034 -7.52565,5.89281 -7.52565,7.37885 0,1.3107 -5.66067,2.75658 -7.16125,1.82917 -1.35651,-0.83837 -0.0467,-5.98659 3.15493,-12.40034 2.37708,-5.0144 4.2663,-10.15039 7.17548,-14.8932 2.79099,-4.36811 2.93082,-5.09901 2.69891,-14.1068 -0.21091,-8.19247 0.1356,-10.58487 2.51762,-17.3822 7.35911,-17.37609 0.71923,-45.83935 -10.81829,-53.71053 -1.96207,-1.15765 -3.5674,-2.46041 -3.5674,-2.89502 0,-1.27614 -14.09073,-7.59749 -20.03532,-8.9882 -3.00557,-0.70314 -6.13968,-1.83931 -6.96468,-2.52482 -1.86062,-1.54602 -6.8595,-3.16353 -13.82964,-4.47493 -12.68099,-2.78942 -23.88495,-9.61539 -32.13488,-19.5243 -36.676,0.21805 -73.49451,0.0767 -110.03548,3.54194 l -23.91676,0.45806 -4.79162,4.61039 c -7.20539,7.85659 -20.41355,7.22426 -30.79162,8.97482 -12.86671,1.88241 -26.15436,1.29689 -37.2413,8.93932 -1.23272,0.96229 -3.93272,2.06043 -6,2.44031 -7.11148,1.30677 -16.07158,6.62222 -24.32101,14.42809 -7.88771,7.4636 -8.05792,7.72669 -9.02523,13.94947 -0.73744,6.85787 -5.16098,12.08693 -9.14475,17.38665 l -2.42433,-2.61453 c -3.08241,-3.32425 -4.15206,-3.29482 -4.92461,0.13548 -2.72468,12.09829 -4.64648,16.27771 -9.90109,21.53232 -9.69251,7.51122 -22.82434,10.69625 -30.51604,6.76781 2.69573,-6.31996 7.50293,-11.30278 10.80561,-17.30013 0.95462,-1.992 -3.20297,-0.30705 -9.25309,3.75 -6.41665,4.30283 -10.76327,5.5887 -12.01967,3.55581 8.34211,-25.22199 31.14188,-45.85491 50.96551,-62.34936 6.50836,-5.7027 18.36269,-14.52458 20.21295,-22.32684 -8.91657,-0.16895 -15.22436,7.7432 -23.44837,10.30798 -12.80513,3.34388 -19.61908,9.27733 -24.0396,20.93318 -3.14188,8.28435 -7.28218,11.96485 -12.23573,10.87687 -3.25005,-0.71383 -4.20356,0.5018 -6.53456,8.33093 -4.73536,13.37347 -17.12535,22.70227 -30.87458,24.84618 -5.91662,0.5525 -6.58011,0.43136 -6.58011,-1.2014 1.50639,-5.48151 6.44265,-9.46995 7.55397,-15.25271 -3.8202,1.90149 -6.68151,5.28275 -10.77928,6.77936 -1.60732,0 -1.77312,-0.51868 -1.19871,-3.75 2.38926,-10.9549 8.53822,-20.42344 15.71663,-28.87635 8.07173,-5.48192 12.7848,-19.67495 18.94196,-22.37365 11.14318,-4.21097 17.97559,-15.42494 24.82999,-24.59384 5.39844,-7.84636 8.95419,-9.75843 32.29212,-17.36476 8.55456,-2.78811 12.42567,-5.06689 15.72968,-9.25947 4.31397,-5.47416 5.11481,-7.63173 4.40099,-11.85679 -0.73304,-4.33887 -2.70872,-5.14478 -4.71942,-1.92514 -1.8554,2.97097 -3.01009,2.52218 -8.36192,-3.25 -6.24389,-6.73431 -13.00038,-10.49983 -20.24296,-11.28178 -20.37039,0.39379 -38.748,9.12463 -58.97767,11.13116 -8.81297,0.65978 -9.86317,0.51808 -19.5,-2.63108 -9.14373,-2.98801 -18.57246,-8.17073 -18.65446,-10.25384 -0.0598,-1.51855 9.16999,-4.70757 14.5619,-5.03135 7.83743,-0.47063 8.5257,-1.69525 3.87185,-6.88917 -5.52807,-6.16959 -9.7389,-9.75998 -11.46467,-9.7754 -6.7699,2.83834 -12.03517,7.19632 -19.65718,7.29443 -8.10304,-0.10521 -14.11428,-3.13854 -20.73241,-10.4618 -5.59235,-6.18817 -10.61916,-15.17946 -10.59509,-18.95108 0.0291,-4.55619 1.16934,-5.13454 9.61075,-4.87454 10.50337,0.3235 9.84619,0.49821 14.64627,-3.89376 5.81615,-5.32164 18.20033,-13.08236 22.04922,-13.81746 31.52639,-12.9652 56.75579,-50.46534 78.66199,-74.929 -0.0332,-3.80767 -4.48174,-9.85569 -9.10981,-12.38533 -11.68644,-6.38765 -13.75012,-9.86966 -7.89819,-13.32648 3.25654,-1.92369 21.59542,-2.46061 22.19898,-0.64994 0.18765,0.56296 1.92953,1.28133 3.87084,1.59636 3.39745,0.55133 3.6898,0.34449 7.80489,-5.52197 3.74747,-5.34239 6.67246,-8.09797 8.59582,-8.09797 0.4324,2.65351 -0.52404,5.44416 0.20259,8 0.49735,0 4.04236,-2.51114 7.8778,-5.5803 11.02921,-8.82572 13.1014,-9.28348 11.85095,-2.61798 l -0.68395,3.64575 c 8.76588,-5.4601 19.2704,-11.30307 29.30973,-11.94549 0.89272,4.24074 -4.56679,8.7968 -2.18554,12.49802 13.61007,-3.75994 27.45105,-10.51046 41.85345,-9.66222 -11.57975,13.68361 10.29533,4.75107 23.53905,4.87417 10.96596,0.34002 11.79702,1.46141 4.59433,6.19934 -14.68527,7.72187 0.60394,6.24828 8.94551,5.38905 26.24942,-0.004 36.61163,1.29575 38.96577,4.88862 2.73795,3.43914 -3.74978,6.64047 2.53423,7.31026 11.98035,0.66049 29.26107,4.75059 31.28215,7.57279 4.50676,0.84547 4.37721,1.92342 -0.53215,4.42799 -2.2,1.12236 -4,2.39583 -4,2.82994 0,0.43412 2.8125,1.33408 6.25,1.99992 10.48437,1.66161 20.96871,4.70174 29.75,10.87921 -2.16176,2.18749 -5.50272,2.90233 -7.71799,4.90628 49.16466,9.62606 91.99087,34.50627 134.71799,59.15622 10.78509,6.45195 20.45203,14.51983 23.15773,19.32708 5.7464,10.2097 16.25507,13.29395 28.47797,8.35814 9.42471,-3.80585 20.02949,-4.44131 26.59816,-1.59381 8.25885,4.29281 14.71599,11.59394 19.26614,19.63702 l 0.10133,22 c 0.10911,23.68851 0.4804,25.9296 5.75991,34.76599 4.32861,7.24487 2.0415,12.12293 -4.12481,8.7976 -0.95504,-0.51503 -5.0361,-2.17571 -9.06904,-3.6904 -10.52595,-3.56011 -16.85817,-12.70825 -18.17234,-23.61548 0.003,-1.79069 -1.03655,-3.67027 -2.99645,-5.41654 -7.11156,-7.558 -5.82978,-14.41952 -3.69543,-22.27381 2.11175,-5.82229 2.86413,-11.57168 0.2614,-15.771 -8.80603,2.11627 -16.9302,4.73257 -31.38877,2.70364 -5.77868,37.20445 -13.9303,77.60278 33.38016,84.58204 6.7406,0.47629 11.82619,2.53498 13.79527,5.58443 0.82873,1.28344 2.84992,5.70853 4.49153,9.83353 7.4352,18.68305 21.16049,47.62894 25.13103,53 3.05128,4.12754 4.47434,6.93813 6.51922,12.87573 2.47191,7.17748 2.09438,8.79279 -2.24301,9.59694 -4.35618,0.80764 -9.79912,3.90998 -10.62196,6.05425 1.2496,10.3353 6.25009,13.08394 3.93323,23.47453 -1.67765,8.38868 -8.97096,20.99855 -12.14516,20.99855 -0.74059,0 -2.92092,1.38235 -4.84519,3.07188 -3.26274,2.86472 -3.68657,2.98035 -6.2848,1.71472 -2.73709,-1.33328 -2.78054,-1.49292 -2.46905,-9.07188 0.25515,-6.2084 0.0348,-7.71472 -1.12868,-7.71472 -1.49684,0 -2.37976,1.82754 -5.19351,10.75 -1.6287,5.16467 -3.24699,6.34811 -6.13257,4.48469 -3.54851,-6.42549 -5.32733,-13.80872 -7.79025,-20.73469 -7.14013,-16.30955 1.37252,-29.1712 11.39166,-42.1889 -3.30217,-13.94483 -7.55079,-28.07045 -16.61688,-39.42054 -3.85486,-3.5334 -8.99094,-5.89056 -12.83507,-5.89056 -10.51347,-1.70724 -20.13149,-6.84498 -30.47997,-9.11967 4.10893,7.09375 6.08413,15.20905 9.0779,22.82656 4.99035,10.99735 2.6875,23.65099 6.95855,34.82643 2.95297,6.26733 1.67609,9.72477 -5.66284,15.33347 -4.0891,3.12506 -4.40537,3.69946 -4.40491,8 1.04466,8.01407 4.03711,15.11488 3.838,23.3157 -0.41699,9.22675 -1.6735,11.26554 -11.08709,17.9896 -6.07507,4.33939 -7.11054,4.72179 -14.54068,5.36993 -7.61327,0.66411 -8.03287,0.59373 -8.68365,-1.45668 z M 220.29204,382.6079 c -3.44922,-1.31139 -20.14182,-1.25848 -20.96067,0.0664 -0.72826,1.17836 5.46485,9.87979 7.06567,9.92739 4.74674,-0.32609 21.93258,-4.74503 13.895,-9.99383 z"
         inkscape:connector-curvature="0" />
      <path
         style="fill:#e20909;fill-opacity:1;stroke:#000000;stroke-width:6.92737961;stroke-miterlimit:4;stroke-dasharray:none;stroke-opacity:1"
         id="path2476"
         d="m 231.85714,323.55245 c 0.51193,-2.99178 3.03178,-4.99843 4,-7.80185 0,-1.73003 6.00885,-4.33254 8.53778,-3.69782 3.06347,1.1605 5.2544,3.40075 8.49243,4.23591 2.85519,0.57104 3.11498,0.41717 2.80803,-1.66306 -1.99542,-5.70574 -7.28205,-6.33818 -12.64131,-6.23614 -7.56604,-0.41655 -12.0924,5.13975 -17.88278,9.03502 -5.0088,3.24057 -7.13585,6.51313 -5.50809,8.47446 1.64772,1.98538 12.19394,-0.0441 12.19394,-2.34652 z m -31,75.71283 c 0,-0.25819 -1.82891,-2.37296 -4.06424,-4.69949 -8.08943,-8.41947 -12.35305,-16.9852 -13.54451,-27.21126 -0.37027,-3.17796 -1.01889,-5.99175 -1.44137,-6.25285 -0.42247,-0.26111 -1.93403,1.8649 -3.35901,4.72446 -6.65139,12.79448 -1.61914,29.62429 13.53505,36.80651 3.19618,-0.35098 6.25713,-1.57789 8.87408,-3.36737 z"
         inkscape:connector-curvature="0" />
    </g>
    <path
       inkscape:connector-curvature="0"
       d="m 378.44783,129.76958 a 15.953929,15.524489 0 1 0 -27.97805,-1.24907 15.953929,15.524489 0 1 0 0,26.19965 15.953929,15.524489 0 1 0 27.97805,-1.24907 l 49.69004,0 0,48.3525 a 15.953929,15.524489 0 1 0 -1.28363,27.22498 15.953929,15.524489 0 1 0 26.92439,0 15.953929,15.524489 0 1 0 -1.28362,-27.22498 l 0,-48.3525 49.69003,0 a 15.953929,15.524489 0 1 0 27.97808,1.24907 15.953929,15.524489 0 1 0 0,-26.19965 15.953929,15.524489 0 1 0 -27.97808,1.24907 l -49.69003,0 0,-48.352503 a 15.953929,15.524489 0 1 0 1.28362,-27.224977 15.953929,15.524489 0 1 0 -26.92439,0 15.953929,15.524489 0 1 0 1.28363,27.224977 l 0,48.352503 z"
       id="path7537"
       style="display:inline;fill:#e20909;stroke:#000000;stroke-width:3.75;stroke-miterlimit:4;stroke-dasharray:none;stroke-opacity:1" />
  </g>
  <g
     inkscape:groupmode="layer"
     id="layer2"
     inkscape:label="Reflet final"
     style="display:inline"
     transform="translate(0.9138206,-0.8354424)"
     sodipodi:insensitive="true">
    <path
       sodipodi:nodetypes="cccccc"
       d="m 300.32895,657.88725 c 0,0 298.7227,-81.38384 298.7227,-288.21322 0,-206.82937 0,-367.3385876 0,-367.3385876 l -597.4454045,0 0,367.3385876 c 0,206.82938 298.7227045,288.21322 298.7227045,288.21322 z"
       style="opacity:1;fill:url(#radialGradient3163);fill-opacity:1;fill-rule:evenodd;stroke:#000000;stroke-width:3;stroke-linecap:butt;stroke-linejoin:miter;stroke-miterlimit:4;stroke-dasharray:none;stroke-opacity:1"
       id="path2875"
       inkscape:export-xdpi="144"
       inkscape:export-ydpi="144"
       inkscape:connector-curvature="0" />
  </g>
</svg>
