<?xml version="1.0" encoding="UTF-8" standalone="no"?>
<svg
   xmlns:dc="http://purl.org/dc/elements/1.1/"
   xmlns:cc="http://creativecommons.org/ns#"
   xmlns:rdf="http://www.w3.org/1999/02/22-rdf-syntax-ns#"
   xmlns:svg="http://www.w3.org/2000/svg"
   xmlns="http://www.w3.org/2000/svg"
   xmlns:xlink="http://www.w3.org/1999/xlink"
   xmlns:sodipodi="http://sodipodi.sourceforge.net/DTD/sodipodi-0.dtd"
   xmlns:inkscape="http://www.inkscape.org/namespaces/inkscape"
   version="1.0"
   width="603"
   height="763"
   id="svg20"
   sodipodi:docname="2257.svg">
  <sodipodi:namedview
     pagecolor="#ffffff"
     bordercolor="#666666"
     borderopacity="1"
     objecttolerance="10"
     gridtolerance="10"
     guidetolerance="10"
     inkscape:pageopacity="0"
     inkscape:pageshadow="2"
     inkscape:window-width="640"
     inkscape:window-height="480"
     id="namedview48" />
  <desc
     id="desc22">Coat of Arms of Canton of Freiburg (Fribourg)</desc>
  <metadata
     id="metadata31">
    <rdf:RDF>
      <cc:Work
         rdf:about="">
        <dc:format>image/svg+xml</dc:format>
        <dc:type
           rdf:resource="http://purl.org/dc/dcmitype/StillImage" />
        <dc:date>07-AUG-2006</dc:date>
        <dc:creator>
          <cc:Agent>
            <dc:title>Jérôme BLUM (wagner51)</dc:title>
          </cc:Agent>
        </dc:creator>
        <cc:license
           rdf:resource="http://creativecommons.org/licenses/GPL/2.0/" />
        <dc:coverage />
        <dc:description>Gabarit pour le Projet:Blasons de WIkipédia</dc:description>
        <dc:subject>
          <rdf:Bag>
            <rdf:li>blason suisse modèle gabarit projet blasons</rdf:li>
          </rdf:Bag>
        </dc:subject>
        <dc:language>fr</dc:language>
        <dc:title />
      </cc:Work>
      <cc:License
         rdf:about="http://creativecommons.org/licenses/GPL/2.0/">
        <cc:permits
           rdf:resource="http://web.resource.org/cc/Reproduction" />
        <cc:permits
           rdf:resource="http://web.resource.org/cc/Distribution" />
        <cc:requires
           rdf:resource="http://web.resource.org/cc/Notice" />
        <cc:permits
           rdf:resource="http://web.resource.org/cc/DerivativeWorks" />
        <cc:requires
           rdf:resource="http://web.resource.org/cc/ShareAlike" />
        <cc:requires
           rdf:resource="http://web.resource.org/cc/SourceCode" />
      </cc:License>
    </rdf:RDF>
  </metadata>
  <defs
     id="defs29">
    <linearGradient
       id="linearGradient2893">
      <stop
         id="stop2895"
         style="stop-color:#ffffff;stop-opacity:0.3137255"
         offset="0" />
      <stop
         id="stop2897"
         style="stop-color:#ffffff;stop-opacity:0.25098041"
         offset="0.19" />
      <stop
         id="stop2901"
         style="stop-color:#6b6b6b;stop-opacity:0.1254902"
         offset="0.60000002" />
      <stop
         id="stop2899"
         style="stop-color:#000000;stop-opacity:0.1254902"
         offset="1" />
    </linearGradient>
    <radialGradient
       cx="858.04236"
       cy="579.93323"
       r="300"
       fx="858.04236"
       fy="579.93323"
       id="radialGradient3236"
       xlink:href="#linearGradient2893"
       gradientUnits="userSpaceOnUse"
       gradientTransform="matrix(1.215027,0,0,1.266667,-839.1924,-490.4894)" />
  </defs>
  <g
     id="layer1"
     style="display:inline">
    <path
       d="m 1.5,1.49998 0,458.86792 C 1.5,626.6785 135.81456,761.5 301.49999,761.5 467.18543,761.5 601.5,626.6785 601.5,460.3679 l 0,-458.86792 -600,0 z"
       id="path1899"
       style="fill:#000000;fill-opacity:1" />
  </g>
  <g
     id="layer2"
     style="display:inline">
    <g
       transform="matrix(1.2284439,0,0,1.1562609,-533.13735,-143.82178)"
       id="g4286"
       style="fill:#ffffff;display:inline">
      <path
         d="m 564.22624,244.37346 c -0.206,-5.228 0.11,-14.048 3.497,-22.378 0,0 7.385,13.898 13.698,20.126 0.154,-4.965 0.726,-11.998 2.611,-16.293 0,0 11.886,8.38 12.091,19.773 0,0 13.426,0.353 14.975,11.46 0,0 12.197,3.525 9.68,14.633 0,0 12.932,1.653 9.071,18.637 0,0 10.612,8.2 0.966,23.136 0,0 14.187,7.461 3.216,21.085 -1.622,2.278 -4.005,4.555 -6.019,7.308 l -0.281,5.091 c 0,3.742 2.916,7.295 11.766,9.271 8.185,1.83 11.143,-0.977 23.301,-2.111 12.238,-1.143 36.473,1.986 61.099,1.986 24.63,0 31.176,-4.542 47.384,-4.542 25.299,0 48.008,19.587 48.008,19.587 0,0 20.574,5.111 37.72,34.635 17.145,29.523 11.221,53.654 11.221,53.654 -1.247,-11.64 -7.821,-18.954 -7.821,-18.954 13.596,28.364 0.494,46.824 0.494,46.824 0,0 -0.634,-5.313 -2.116,-9.364 0,29.594 -21.921,55.893 -21.921,55.893 7.125,-17.467 6.031,-40.922 5.48,-51.9 -10.777,-21.83 -8.14,-37 -3.834,-63.379 4.375,-26.82 -16.732,-35.414 -16.732,-35.414 0,0 8.05,11.454 6.036,27.491 -3.383,26.954 -20.627,34.364 -20.627,49.026 0,8.247 5.032,19.702 11.569,27.949 6.542,8.247 0,15.12 -1.003,19.703 -5.747,26.171 -7.549,67.811 -7.549,67.811 -11.571,-1.832 -12.072,10.997 -12.072,10.997 1.509,0 5.532,4.581 0,9.163 -5.535,4.583 -25.661,5.498 -26.667,2.75 -2.097,-5.718 7.545,-13.288 7.545,-13.288 0,-4.582 5.033,-11.455 13.587,-24.742 8.552,-13.287 9.558,-48.557 9.558,-58.189 0,-14.663 -20.628,-21.993 -37.733,-48.11 -1.549,-2.363 -2.867,-4.758 -3.985,-7.152 -1.691,5.65 -6.934,10.376 -9.188,17.054 -2.257,6.677 5.074,14.638 5.641,19.261 0.565,4.624 -4.796,10.273 -16.358,24.398 -20.006,24.442 -34.971,59.328 -34.971,59.328 -10.154,-8.22 -14.101,5.649 -14.101,5.649 2.819,0.514 3.948,8.475 -0.845,11.3 -4.794,2.825 -26.511,5.906 -27.355,1.798 -1.529,-7.424 9.023,-14.896 9.023,-14.896 1.691,-6.163 11.28,-9.245 14.102,-12.84 29.483,-37.579 36.098,-54.961 41.456,-63.693 5.356,-8.732 5.923,-16.692 4.512,-19.005 -8.701,-14.264 -12.632,-30.092 -12.632,-30.092 -0.968,0.238 -1.996,0.455 -3.097,0.643 -18.478,3.156 -39.747,-1.375 -51.32,2.292 -22.151,7.017 -46.985,6.372 -46.985,6.372 -0.658,2.328 -1.568,4.725 -2.781,7.168 -7.201,14.495 -1.691,37.959 -3.944,56.938 -2.253,18.98 -1.689,57.966 -1.689,57.966 -15.772,-2.565 -19.151,10.26 -19.151,10.26 5.633,2.052 5.069,7.694 1.126,10.773 -3.943,3.077 -20.278,4.617 -23.096,2.563 -7.158,-5.216 6.196,-15.901 6.196,-15.901 0,-4.104 8.45,-9.233 18.59,-27.699 10.139,-18.468 1.126,-52.837 1.126,-52.837 -2.253,-1.539 -5.632,-9.747 -3.942,-15.39 1.69,-5.643 0.563,-26.674 -3.943,-32.316 -7.846,-0.701 -14.934,-6.042 -19.189,-12.238 -23.154,-1.465 -27.166,-4.886 -42.602,-6.643 -15.436,-1.758 -23.476,6.148 -12.863,24.599 18.351,31.903 29.584,39.242 29.584,39.242 0,0 -1.607,-0.879 -3.857,1.757 -3.363,3.937 6.431,8.199 6.431,8.199 0,0 1.93,-7.614 7.396,-5.563 5.467,2.048 10.29,19.62 7.074,22.548 -6.464,5.886 -15.435,-3.514 -15.435,-3.514 -9.97,-0.293 -15.115,-6.149 -20.903,-16.107 -5.788,-9.956 -26.69,-45.098 -34.73,-54.176 -8.04,-9.08 -12.54,-22.257 4.503,-28.115 17.043,-5.856 63.756,-13.724 63.756,-13.724 -2.171,-11.412 -2.979,-23.157 -2.979,-32.756 0,-26.83 10.523,-43.122 15.784,-61.328 2.924,-10.12 3.682,-18.208 3.682,-18.208 -7.891,1.917 -11.574,-3.354 -24.727,-3.354 -18.939,0 -18.939,5.75 -25.779,9.104 -6.84,3.353 -12.102,-4.313 -12.102,-4.313 -9.856,-1.795 -6.313,-8.625 -6.84,-11.5 -2.427,-13.267 13.68,-15.811 13.68,-15.811 3.156,-0.958 15.783,-5.75 22.623,-11.02 4.358,-3.359 7.434,-8.468 17.26,-11.733 -1.186,0.074 -2.402,0.165 -3.709,0.328 -6.249,0.775 -3.328,-8.008 0.819,-8.953 0,0 -0.271,3.548 2.912,3.896 2.491,0.275 4.88,-0.708 7.624,-1.884 z"
         id="path2095"
         style="fill:#ffffff;stroke:#000000;stroke-width:2.75;stroke-linecap:round;stroke-linejoin:round" />
      <path
         d="m 564.22624,244.37346 c 4.379,-1.875 9.612,-4.329 17.265,-3.603"
         id="path2097"
         style="fill:#ffffff;stroke:#000000;stroke-width:2.75;stroke-linecap:round;stroke-linejoin:round" />
      <path
         d="m 844.53724,461.46946 c 0,0 -2.741,9.482 -2.192,20.461"
         id="path2099"
         style="fill:#ffffff;stroke:#000000;stroke-width:2.75;stroke-linecap:round;stroke-linejoin:round" />
      <path
         d="m 858.78524,477.93746 c 0,-8.983 -6.604,-16.184 -6.604,-23.393"
         id="path2101"
         style="fill:#ffffff;stroke:#000000;stroke-width:2.75;stroke-linecap:round;stroke-linejoin:round" />
      <path
         d="m 691.45924,572.23546 c 0,0 -14.932,3.034 -19.177,-1.799"
         id="path2105"
         style="fill:#ffffff;stroke:#000000;stroke-width:2.75;stroke-linecap:round;stroke-linejoin:round" />
      <path
         d="m 590.75124,586.44546 c 0,0 -8.172,0.378 -15.773,-2.564"
         id="path2107"
         style="fill:#ffffff;stroke:#000000;stroke-width:2.75;stroke-linecap:round;stroke-linejoin:round" />
      <path
         d="m 756.37024,403.75546 c 0,0 -5.921,21.41 4.066,42.79"
         id="path2109"
         style="fill:#ffffff;stroke:#000000;stroke-width:2.75;stroke-linecap:round;stroke-linejoin:round" />
      <path
         d="m 719.72024,444.80746 c 13.178,-3.256 15.09,-10.812 36.65,-10.812"
         id="path2111"
         style="fill:#ffffff;stroke:#000000;stroke-width:2.75;stroke-linecap:round;stroke-linejoin:round" />
      <path
         d="m 618.31724,454.11346 c 5.149,-18.217 -5.035,-32.331 -5.035,-32.331"
         id="path2113"
         style="fill:#ffffff;stroke:#000000;stroke-width:2.75;stroke-linecap:round;stroke-linejoin:round" />
      <path
         d="m 580.04824,421.26946 c 0,0 -2.898,22.273 6.76,34.369"
         id="path2115"
         style="fill:#ffffff;stroke:#000000;stroke-width:2.75;stroke-linecap:round;stroke-linejoin:round" />
      <path
         d="m 567.61824,443.40046 c -5.732,-8.34 -9.412,-19.742 -11.646,-31.496"
         id="path2117"
         style="fill:#ffffff;stroke:#000000;stroke-width:2.75;stroke-linecap:round;stroke-linejoin:round" />
      <path
         d="m 581.42224,242.12146 c -0.104,3.342 -0.02,5.747 -0.02,5.747 0,0 1.903,3.761 -1.985,5.178 -3.572,1.301 -9.494,-2.901 -22.844,-2.058"
         id="path2119"
         style="fill:#ffffff;stroke:#000000;stroke-width:2.75;stroke-linecap:round;stroke-linejoin:round" />
      <path
         d="m 572.45824,299.61346 c 7.893,-1.916 16.836,-10.061 10.523,-20.123"
         id="path2121"
         style="fill:#ffffff;stroke:#000000;stroke-width:2.75;stroke-linecap:round;stroke-linejoin:round" />
      <path
         d="m 509.85024,301.05146 c 2.631,0.479 6.314,-4.792 19.467,-6.708"
         id="path2123"
         style="fill:#ffffff;stroke:#000000;stroke-width:2.75;stroke-linecap:round;stroke-linejoin:round" />
      <path
         d="m 544.31024,510.55546 c 0,0 1.228,5.541 -0.964,13.472"
         id="path2125"
         style="fill:#ffffff;stroke:#000000;stroke-width:2.75;stroke-linecap:round;stroke-linejoin:round" />
      <path
         d="m 611.09924,257.06246 c 0.015,4.452 -2.334,6.803 -4.411,9.12 -1.394,1.554 -2.663,3.094 -3.013,5.244 0,0 -3.248,-5.431 -0.259,-12.433 0.944,-2.212 -1.952,-6.959 -8.335,-7.291 0.774,-1.561 1.078,-4.146 1.043,-6.1"
         id="path2127"
         style="fill:#ffffff;stroke:#000000;stroke-width:2.75;stroke-linecap:round;stroke-linejoin:round" />
      <path
         d="m 620.77824,271.69546 c -0.81,4.348 -3.332,6.934 -5.32,9.296 -1.456,1.731 -2.627,3.341 -2.627,5.437 0,0 -5.605,-5.532 -1.218,-13.332 1.917,-3.408 -0.241,-7.744 -4.926,-6.914"
         id="path2129"
         style="fill:#ffffff;stroke:#000000;stroke-width:2.75;stroke-linecap:round;stroke-linejoin:round" />
      <path
         d="m 629.84924,290.33246 c -1.933,4.487 -6.172,5.175 -9.138,7.187 -1.643,1.114 -2.896,2.635 -3.149,5.432 0,0 -5.321,-5.313 2.616,-14.826 2.56,-3.067 -0.764,-7.802 -4.721,-7.135"
         id="path2131"
         style="fill:#ffffff;stroke:#000000;stroke-width:2.75;stroke-linecap:round;stroke-linejoin:round" />
      <path
         d="m 630.81524,313.46846 c -2.838,3.718 -6.586,4.056 -8.479,6.767 -0.682,0.979 -1.122,2.266 -1.189,4.134 0,0 -4.662,-7.918 1.957,-15.125 6.283,-6.84 -2.393,-11.724 -2.393,-11.724"
         id="path2133"
         style="fill:#ffffff;stroke:#000000;stroke-width:2.75;stroke-linecap:round;stroke-linejoin:round" />
      <path
         d="m 628.01324,341.86046 c -2.469,3.371 -4.383,7.458 -3.676,13.143 0,0 -9.445,-13.414 0.547,-24.533 4.64,-5.164 0.933,-10.352 -2.547,-10.235"
         id="path2135"
         style="fill:#ffffff;stroke:#000000;stroke-width:2.75;stroke-linecap:round;stroke-linejoin:round" />
      <path
         d="m 586.77724,249.78146 c 0,0 -1.632,-10.396 -0.233,-15.488 0,0 7.921,5.728 5.126,16.548"
         id="path2137"
         style="fill:#ffffff;stroke:#000000;stroke-width:2.75;stroke-linecap:round;stroke-linejoin:round" />
      <path
         d="m 510.51924,285.56846 c -1.182,-1.255 -0.394,-4.482 2.363,-2.51 2.756,1.973 2.559,6.275 -2.757,5.199"
         id="path2139"
         style="fill:#ffffff;stroke:#000000;stroke-width:2.75;stroke-linecap:round;stroke-linejoin:round" />
      <path
         d="m 552.87424,268.41046 c 1.139,-2.33 6.168,-7.469 11.779,-4.66 1.329,0.666 -0.38,4.161 -3.61,5.159 -3.23,0.999 -8.169,-0.499 -8.169,-0.499 z"
         id="path2141"
         style="fill:#ffffff;stroke:#000000;stroke-width:2.75;stroke-linecap:round;stroke-linejoin:round" />
      <circle
         cx="182.14301"
         cy="163.521"
         r="2.2750001"
         transform="translate(376.41124,103.03846)"
         id="circle2143"
         style="fill:#ffffff" />
      <path
         d="m 665.70624,420.90946 c 0,0 -1.638,14.616 9.172,28.04 0,0 11.463,4.176 20.963,-1.491 0,0 -8.517,-14.319 -8.845,-27.443 l -21.29,0.894 z"
         id="path2145"
         style="fill:#fcef3c;stroke:#000000;stroke-width:2.75;stroke-linecap:round;stroke-linejoin:round" />
      <path
         d="m 639.49724,356.22346 c 0,0 -5.292,42.535 9.573,57.723 14.864,15.188 43.57,20.505 59.822,-4.951 9.065,-14.199 7.979,-35 7.979,-35 l -51.892,-16.691 -16.266,-0.855 c -2.891,0.482 -5.521,0.601 -9.216,-0.226 z"
         id="path2147"
         style="fill:#fcef3c;stroke:#000000;stroke-width:2.75;stroke-linecap:round;stroke-linejoin:round" />
      <path
         d="m 754.55324,353.17846 c 3.856,-0.652 7.574,-1.227 11.894,-1.48 0,0 0.878,-5.912 -4.257,-8.739 -19.616,-10.798 -30.093,4.953 -57.647,4.953 -38.068,0 -47.23,-11.143 -59.744,-9.859 -12.645,1.299 -0.705,13.644 5.992,34.026 6.113,18.606 55.565,5.219 66.081,1.916 0,0 16.909,-5.384 25.378,-14.197 5.075,-5.284 6.862,-11.903 12.303,-6.62 z"
         id="path2149"
         style="fill:#fcef3c;stroke:#000000;stroke-width:2.75;stroke-linecap:round;stroke-linejoin:round" />
      <path
         d="m 654.11623,334.63339 c -2.898,-1.483 -6.566,-0.544 -8.192,2.094 -13.617,22.086 17.09601,1.84207 -8.06399,6.82507 -23.182,4.59 -47.557,0.321 -65.204,-11.421 -24.94,-16.592 -32.334,-33.008 -34.516,-40.771 9.407,-1.776 27.525,-5.596 43.788,-11.323 0.002,0.054 0.002,0.108 0.004,0.162 l 1.049,-0.709 c 5.005,7.977 0.419,14.743 -5.629,18.162 0.119,-0.002 0.222,-0.007 0.342,-0.008 18.282,-0.2 15.867,-22.234 15.867,-22.234 3.504,-1.591 6.744,-3.291 9.593,-5.094 -0.776,-1.93 -1.925,-6.201 0.262,-11.323 0.37,-0.866 0.142,-2.121 -0.646,-3.347 -0.219,0.22 -0.43,0.453 -0.613,0.712 -1.918,2.698 -5.825,5.359 -10.971,7.897 -2.697,-8.362 -7.053,-13.837 -9.791,-16.666 0.004,0.179 0.007,0.279 0.007,0.279 0,0 1.903,3.761 -1.985,5.178 -2.104,0.766 -5.038,-0.375 -9.811,-1.272 0.35,0.71 0.863,1.365 1.548,1.907 0.279,0.22 6.153,4.987 8.947,15.226 -14.333,5.237 -32.515,9.584 -46.37,12.088 -3.934,-4.912 -6.563,-9.565 -7.359,-11.038 -4.305,1.918 -8.134,3.313 -9.682,3.784 0,0 -0.58,0.091 -1.502,0.33 0.184,0.358 3.947,7.652 10.236,15.065 0.994,6.65 6.772,29.653 40.131,51.846 20.385,13.562 47.06722,21.12955 73.55922,15.88455 28.57,-5.657 0.67299,12.68693 15.99999,-12.16807 1.628,-2.64 1.89978,-8.58355 -0.99822,-10.06555 z"
         id="_x3C_Tracé_x3E__1_"
         style="fill:#fcef3c;stroke:#000000;stroke-width:2.75;stroke-linecap:round;stroke-linejoin:round" />
    </g>
  </g>
  <g
     id="layer3"
     style="display:inline">
    <path
       d="m 1.5,1.5 0,458.8679 C 1.5,626.67854 135.81454,761.5 301.49993,761.5 467.1854,761.5 601.5,626.67854 601.5,460.3679 L 601.5,1.5 1.5,1.5 z"
       id="path2346"
       style="fill:url(#radialGradient3236);fill-opacity:1" />
  </g>
  <g
     id="layer4"
     style="display:inline">
    <path
       d="m 1.5,1.5 0,458.86794 C 1.5,626.67854 135.81454,761.5 301.49993,761.5 467.1854,761.5 601.5,626.67854 601.5,460.36794 L 601.5,1.5 1.5,1.5 z"
       id="path3239"
       style="fill:none;stroke:#000000;stroke-width:3;stroke-miterlimit:4;stroke-opacity:1;stroke-dasharray:none" />
  </g>
</svg>
