<?xml version="1.0" encoding="UTF-8"?>
<svg version="1.1" viewBox="0 0 724.96 848.92" xmlns="http://www.w3.org/2000/svg" xmlns:cc="http://creativecommons.org/ns#" xmlns:dc="http://purl.org/dc/elements/1.1/" xmlns:rdf="http://www.w3.org/1999/02/22-rdf-syntax-ns#">
<metadata>
<rdf:RDF>
<cc:Work rdf:about="">
<dc:format>image/svg+xml</dc:format>
<dc:type rdf:resource="http://purl.org/dc/dcmitype/StillImage"/>
</cc:Work>
</rdf:RDF>
</metadata>
<g transform="translate(-15.886 -20.072)" fill-rule="evenodd">
<path d="m20.07 24.098 716.12-4.0264-10.381 548.86s-12.221 145.09-115.15 223.6c-102.93 78.51-212.88 69.288-223.03 70.543-10.153 1.2553-123.17 6.0301-215.07-49.791-91.893-55.821-127.03-164.8-127.03-164.8s-11.858-55.167-14.716-96.431c-2.8585-41.263-10.417-527.74-10.743-527.95z" fill="#fff"/>
<path d="m15.886 20.24c0.85803 48.333 0.88532 48.264 1.3207 73.357 0.67765 41.673 1.2336 98.378 1.9831 158.61 1.499 120.47 3.6378 254.98 8.6937 313.29 10.097 116.46 46.527 162.15 95.77 215.18 50.555 54.446 155.24 93.256 263.03 87.804 106.91-5.4073 174.68-22.528 251.82-94.529 20.296-18.942 36.564-41.839 48.984-64.705 16.407-32.638 29.445-67.597 36.248-103.59 5.7186-31.887 6.1388-53.654 7.2652-80.611 1.2228-27.251 9.8429-496.09 9.8429-496.09l-0.34911-8.3516-7.6207-0.25888zm8.6286 9.0688 705.54 1.3261s-4.4942 447.12-8.1456 507.61c-1.1127 58.288-16.242 114.8-42.442 166.69-12.049 22.182-20.729 36.281-47.099 62.311-73.734 72.784-139.97 86.737-246.13 92.106-105.28 5.3248-208.26-33.534-255.97-84.908-49.016-52.788-83.298-94.864-93.253-209.68-4.9701-57.323-7.1907-192.27-8.6893-312.72-0.74934-60.223-1.3046-116.89-1.9831-158.61-0.33922-20.862-0.7218-37.946-1.146-49.95-0.21212-6.0017-0.42562-10.745-0.6794-14.078-3e-3 -0.03932 0.0023-0.05621-7.33e-4 -0.09515z"/>
<g stroke="#000">
<path d="m686.49 695.37-629.9-667.86-32.846 0.25301 0.47104 61.152 622.37 665.62s4.5799-5.0032 9.3342-10.993c4.8746-6.1409 3.9191-4.7882 7.7464-10.04 3.9799-5.4611 3.5898-4.7625 7.2521-10.517 3.7566-5.9024 3.4012-4.772 6.617-10.517 3.1371-5.6043 3.6201-6.1374 5.5881-10.296 2.0298-4.2891 3.3651-6.8026 3.3651-6.8026z" fill="#f00000" stroke-width="3.0566"/>
<path d="m389.86 181.59c12.461-4.4685 7.3941-17.937 4.0714-27.275-3.895-15.033-8.8687-29.371 1.1941-42.64 6.0668-4.9704 12.978-2.3564 19.78-1.6749 3.6853-0.0284 6.8934-2.3519 9.8725-3.1211 12.084-5.6357-2.1128-17.57-8.5377-21.25-6.5231-2.4153-12.652 2.9268-17.455 6.9859-15.358 14.569-30.593 28.683-49.954 37.687-11.51 7.5265-13.611 19.697-12.972 35.317 5.3076-1.3148 5.6734-1.7054 11.075-2.3308-1.6315 10.856-7.4309 28.116 3.3764 35.517 5.3754 3.1578 14.125 6.5105 20.229 8.9406 5.624-10.172 17.154-13.958 25.928-20.715-3.0879-2.6346-4.0412-3.2097-6.6072-5.4404z" fill="#f00000" stroke-width="3.045"/>
<path d="m348.83 129.54c-9.4251-11.919 0.97561-28.898 7.3073-39.642 6.8425-6.8733 15.315-12.26 25.015-13.896 7.8178-0.95906 22.486 3.5047 20.659 13.544-14.304 9.7089-34.454 40.922-52.981 39.994z" fill="#f00000" stroke-width="3.045"/>
<path d="m355.37 89.146c-16.566-8.428-1.7082-25.443 12.741-25.981-1.1051 4.2194 1.8891 10.881 3.1622 15.201-5.7143 3.249-9.8466 8.114-15.904 10.78z" fill="#f00000" stroke-width="3.045"/>
<path d="m365.05 61.862c-5.788 2.7706-4.7262 1.7006-9.1011 4.4415-1.3021-4.7157-6.5653-7.2175-10.228-10.217 5.0218 0.47666 15.752 1.3233 19.329 5.7754z" fill="#f00000" stroke-width="3.045"/>
<path d="m372.03 77.598c13.834-3.8405 19.756 2.2378 21.203-14.627-0.60083-6.1489-6.621-12.593-13.029-11.319-7.2793 1.9059-10.454 7.7439-12.068 14.557-0.97877 4.0474-0.10398 7.4521 3.8941 11.389z" fill="#f00000" stroke-width="3.045"/>
<path d="m380.19 50.13c4.1855-6.3495-0.2787-10.657-2.8108-15.416 10.022-0.41501 15.763 13.949 12.966 21.189-2.7814-2.7388-4.263-4.6418-10.155-5.7731z" fill="#f00000" stroke-width="3.045"/>
<path d="m388.82 75.294c3.8204-3.6828 4.1302-7.9175 4.407-12.323 2.5678-8.8269 13.029-6.9793 19.415-3.791 3.6988 2.5721 5.6763 6.0341 5.7586 10.449-0.29842 4.022-11.671 21.199-16.243 16.112-2.2841-4.4586-8.3814-7.7936-13.337-10.446z" fill="#f00000" stroke-width="3.045"/>
<path d="m414.76 41.489c6.8385 7.1863 8.0823 16.395 3.8922 25.154-1.0464-2.6372-3.1755-5.5858-4.8991-7.6366 1.7107-5.6655 0.82367-11.677 1.007-17.517z" fill="#f00000" stroke-width="3.045"/>
<path d="m425.81 92.029c6.8462-1.1141 8.9857-4.7413 10.959-10.362 1.901 7.8032-0.0449 15.339-7.552 21.864 0.84972-4.7328-0.31453-7.7334-3.4066-11.503z" fill="#f00000" stroke-width="3.045"/>
<path d="m279.04 162.05c-8.0794-11.321-8.4422-25.136-12.473-37.967-2.8526-15.917 2.7958-19.24-15.4-22.72-6.6793-0.55786-11.778 6.8821-14.369 12.291-0.92399 7.4927 14.271 20.295 19.349 27.888-7.1144-7.6338-14.348-15.046-21.592-22.542-3.2939-1.3503-7.7492 3.2664-8.3442 3.8706-7.4736 9.9646-4.2576 17.569 2.4889 26.625 8.6182 4.052 16.799 9.2614 25.975 11.98-8.2306-1.9946-14.643-8.0316-22.913-9.72-4.7378 0.0365-5.97 1.349-7.5771 4.626-1.3944 12.114 12.535 22.929 21.537 28.762 6.1778 3.6125 8.5323 10.322 12.303 15.892 6.2016 6.8388 13.795 13.076 22.954 15.049 4.4746 1.0821 4.5871 2.5295 4.626 7.5771 3.7505 8.2934 14.896 19.692 22.004 25.407 0.624-4.0186-0.31939-7.8011-0.58415-11.869 5.3272 7.4576 19.365 26.923 25.316 32.347 0.96551-5.2145 1.5083-8.9432 1.4848-11.999 9.387 13.233 24.47 32.536 36.516 43.515 1.35-4.1204 0.76753-8.2142 0.81809-12.384 5.7872 8.7112 13.063 15.089 21.685 20.942 5.8735 4.7295 15.674 8.8285 21.349 4.4032 3.0293-2.3622 2.4305-3.6206 2.9921-6.8745 0.7391-4.2818-6e-3 0.79453 0.72018-3.9054 3.3162 2.6782 6.703 4.4396 9.3521 6.748 27.767 20.812 65.566 27.017 94.656 6.1479-5.994 6.2531-16.011 8.9866-24.269 12.012 39.276 9.9553 72.122 32.769 104.22 56.565 0.81871-7.529-1.5561-19.195-6.1338-24.893-1.9557-1.9258 3.3828 5.5478 4.6292 7.9932 6.4744 27.478-2.4896 55.191-1.6157 82.801 2.8135-3.8886 2.1495-3.9391 4.8172-6.95 0.57436 16.837 4.3836 33.886 12.981 48.457 0.46465-3.7019 5.0439-15.104 8.3144-20.821 2.2932 21.006 28.302 27.685 32.242 47.914 0.10226 11.204 0.15509 19.662 0.22282 28.927 0.0329 4.2693-1.6135 7.0088-3.7358 9.164-9.9852 12.471-22.282 7.5229-34.987 4.0759-7.9604-1.0698-11.91 2.174-14.393 9.2461-1.37 8.2754 4.6418 14.186 11.553 17.42 4.9542 2.4296 5.4252 0.1048 10.184-3.406 1.8059-0.32045 22.986-5.3195 11.089-2.0868-15.193 1.5387-19.242 3.8282-11.26 20.641 6.8024 8.0694 17.274 6.3916 24.359-0.18764 3.8883-4.3689 7.9442-8.5082 10.552-13.784 2.2332-4.5538 0.11263 2.1871-1.4931 3.8178-4.8727 5.3532-8.9148 10.956-2.1547 16.765 8.4712 5.7778 18.345 4.9612 23.563-4.7491-1.7068-14.834 1.4617-12.72 6.6927-20.606 9.7988-11.697 9.053-25.286 8.8298-39.654 0.27945-7.1376 4.258-13.612 7.4598-19.85 2.6732-6.0689 1.8771-12.645-9e-3 -18.784-3.1016 2.0972-6.0826 3.5477-9.2315 5.1526-0.37653-4.0531 2.1921-21.928 4.9391-31.944-4.8804 2.5776-2.4445 1.7393-7.9057 4.8233 0.38058-9.902 0.36495-19.447-1.2734-29.181-2.9625 5.8132-9.0226 11.362-15.915 9.2578-6.9111-2.6576-8.2146-10.839-8.5084-17.444-1.6642-17.986-2.7163-37.272-11.724-53.275 19.428 23.865 46.901 19.808 50.054-10.967-3.0993-59.796-42.711-106.77-53.042-165.55-0.46825-6.334 3.4944-12.913 9.0116-16.056 24.112-11.27 46.849-35.599 35.746-63.211-7.6113 9.5551-14.011 19.995-21.541 29.606 6.1993-8.4086 12.542-15.755 15.025-25.999 5.1579-19.141-4.76-33.821-21.444-42.553 3.937 14.943-0.20191 30.753-10.533 42.038-14.247 14.771-22.023 33.306-24.71 53.479 7.4273 56.615 31.864 108.54 53.006 160.98 3.1235 10.288 5.9799 23.669-2.7986 31.995-14.649 6.3588-21.482-8.3007-28.136-18.423-18.426-24.469-38.028-47.966-59.329-69.972-7.6778-8.067-14.117-17.403-23.024-24.183-4.7861-3.5381-9.2844-7.4313-13.79-11.313-2.6333-2.2686-3.5907-2.4245-6.1184-3.6641-1.1159-0.54722-5.1081 3.1288-7.105 4.1466-5.0331 3.2225-7.287 8.9809-12.564 11.896-5.3501 2.679-5.7215-0.64318-6.1242-4.4253-0.97128-9.1218-1.5269-8.6145-5.3469-2.3378-6.9167 9.617-30.744 18.866-42.84 22.312-2.8296 0.83454-1.7024 0.2329-8.0349-0.16281 0.72885-3.441 7.069-11.487 0.0639-9.2917-21.639 8.0032-44.922 9.4598-66.748 1.843 4.0668-8.3406 12.097-11.984 13.212-21.958 0.88661-13.662-1.8721-27.787-14.733-34.456-37.826-28.244-85.906-36.095-123.07-65.283z" fill="#f00000" stroke-width="3.045"/>
<path d="m274.52 152.82c-3.8984-7.3957-4.8725-15.22-4.8694-23.431 4.3374-16.975 16.93-15.968 28.886-5.5514 1.9917 1.9612 3.1052 6.8567 3.8824 9.8666 1.1026 4.2704-3.1813 7.0663-6.0312 7.6592-8.196 1.9951-15.388 6.1531-21.867 11.456z" fill="#f00000" stroke-width="3.045"/>
<path d="m297.61 122.64c6.2597-1.5718 6.983-7.1628 9.655-12.004 2.3123 10.164 2.1086 17.904-4.6156 25.718-1.3082-6.6793-2.0998-9.2268-5.0394-13.715z" fill="#f00000" stroke-width="3.045"/>
<path d="m262 104.52c-0.45623-9.1745-11.021-14.781-18.788-17.476 3.7038 4.3022 5.9381 8.4093 6.7056 14.075 5.7622 0.87229 7.9078 1.2397 12.083 3.4006z" fill="#f00000" stroke-width="3.045"/>
<path d="m231.53 118.15c-6.7246-4.9351-13.825-3.7179-21.287-1.5439 5.3849 1.5093 10.88 2.6824 15.492 5.9353 3.0487-2.6224 2.2643-0.90924 5.7952-4.3915z" fill="#f00000" stroke-width="3.045"/>
<path d="m224.17 154.1c-6.6133-0.43924-10.234 4.1474-14.016 8.6914 3.1392-1.1655 9.059-2.6325 12.534-3.3511 0.35209-0.0298 1.1815-1.7787 1.4814-5.3403z" fill="#f00000" stroke-width="3.045"/>
<path d="m461.76 176.04c-3.2807-5.8346-7.6366-10.971-13.006-15.024 19.347-0.6228 34.873 11.294 49.696 22.184-2.81-6.9779-4.5468-11.604-6.1627-16.666 5.484 4.1373 35.203 18.187 36.853 4.6303 25.544 25.514 43.134 11.088 53.244-16.343 5.9121-11.007 14.65-19.657 24.657-26.951 6.4315-4.1265 14.305-1.431 20.412 1.8078 12.712 6.9777 4.8254 22.689-7.4305 23.657-7.852 2.1053-3.8876 9.986-2.9276 15.248 0.3549 15.643-4.943 24.518-11.892 37.394-0.83227-3.1448-2.2013-5.1007-3.6126-9.1825-10.953 20.72-15.005 33.711-32.096 50.02-1.4036-4.5954-0.17922-4.9854-2.9025-13.134-9.9944 21.387-18.423 31.805-38.511 44.607-2.5167-5.8768-1.0223-11.228-1.9518-17.303-7.7614 15.724-37.826 31.715-55.394 30.356 1.4901-5.3261 4.1904-8.7186 5.4765-11.989-14.27 5.407-29.102 9.1377-43.928 10.937-7.0116-0.62803-13.809-1.752-20.582-3.6478-5.558-1.3441-3.202-0.82281-9.0393-2.3313 13.514-14.254 16.969-22.789 11.738-42.604-6.5877-15.162-29.665-26.834-43.772-34.376 9.4399-14.017 18.561-13.323 26.126-20.395 0.10925-0.11092-3.1308-1.7549-6.2822-5.0326 23.282-16.19 45.049-13.118 71.287-5.861z" fill="#f00000" stroke-width="3.045"/>
<path d="m518.06 159.45c-2.05-2.6898-6.7638-2.2317-10.675-2.2016-5.914 0.0456-3.8178-1.4895-3.8589-6.8217-0.0314-4.0772-0.59265-8.5459-0.0821-10.657 11.935 2.7938 18.976 15.884 32.089 14.978 2.7544-1.4038 3.8287-7.9774 4.4853-10.692 1.2471-5.1568 2.9205-7.5015 5.2348-12.221 4.1521-6.7102 5.9467-13.526 4.4032-21.35-5.3636-4.4538-15.699-0.30408-22.848-1.3466-3.4625-0.66479-5.3685-5.1371-5.399-9.0936 3.6717-6.1146 8.9123-14.539 16.63-15.354 7.4685-0.25032 13.196 5.8385 20.588 4.409 4.1885-1.0815 4.5038-3.0798 9.8725-3.1211 5.4597-0.04206 7.0757 1.9533 10.686 3.7241 11.706 5.3356 19.228 15.628 28.353 24.142 1.6947 1.6688-4.1958 2.5944 3.8413 4.538 5.5555 2.0055 10.305 4.2197 13.772 9.0292-21.408-3.8645-26.505 7.3-39.42 21.619-11.797 21.202-8.4484 40.066-38.553 35.315-11.771-5.1806-20.629-15.479-29.12-24.898z" fill="#f00000" stroke-width="3.045"/>
<path d="m589.29 116.27c-4.1645-1.8465-6.9854-5.0042-9.9604-8.2972-3.5913-3.5364-6.4543-3.2791-8.947-7.3621-5.6527-9.2588 1.0746-2.7516 3.2071-2.2359 3.2158 0.7777-6.2641-1.7286-9.5725-1.7031-2.1531 0.01658 5.1086 2.4394 4.6025 4.5322-0.99996 4.1349-3.0123 4.2535-2.9746 9.1582 0.0276 3.5866 3.6239 4.8106 6.1367 6.0429 5.7856 2.8373 7.2216-1.8291 4.8556-4.1589-2.6679-2.6271-3.9162-6.3765 0.40846-4.2556 0.5594 0.27433 2.0179 3.7172 5.3638 4.5263 2.346 0.56732 3.8194 2.5563 6.8803 3.7534z" fill="#fff" stroke-width="3.045"/>
<path d="m539.22 109.82c-7.0772 0.38324-13.885-0.051-15.843-3.1752-0.60059 3.6484-0.24877 7.2525 0.65522 10.815 5.4244-5.1664 2.4722-1.6311 6.4492-5.8414 0.48374 5.3168 1.2278 6.2224 1.5007 9.2935 2.2733-2.9512 4.993-5.2873 7.2383-11.092z" fill="#f00000" stroke-width="3.045"/>
<path d="m528.67 153.28c-0.24679-2.4863-1.6351-8.057-2.5363-12.956-2.8922 2.4891-3.954 3.3436-6.2461 5.8787-0.29762-3.3568-1.1168-8.7787-1.5822-10.714-3.3985 3.4513-5.2283 3.7941-8.4831 6.6654 4.6221 3.8204 13.51 9.3559 18.848 11.126z" fill="#f00000" stroke-width="3.045"/>
<path d="m540.1 142.63c-7.7054-11.277-20.607-13.981-31.464-20.407-5.4342-3.3145-10.589-7.2606-16.068-10.534-10.81-5.4544-21.696-11.254-30.601-19.557-2.8108-2.7679-3.0822-4.8214-3.1211-9.8725-0.0307-3.9899 5.005-4.1472 8.3442-3.8706 0.94918 0.07861 3.2784 4.933 4.6201 6.8158 6.74 11.104 18.73 16.167 28.353 24.142 8.5145 4.374 15.292 10.978 23.715 15.043 5.2776 3.4725 9.0508 8.7195 13.802 12.835 2.7317 2.2178 3.5914-0.69207 2.4206 5.4054z" fill="#f00000" stroke-width="3.045"/>
<path d="m533.09 480.24c-0.75252-5.3642-2.3226-10.461-3.9781-15.089 12.009 8.938 25.475 14.573 39.304 19.942-0.41583-4.5784-3.8737-9.5042-6.8609-15.373 30.445 2.505 35.366 11.399 18.937-12.326-3.0689-5.8599-8.4923-11.209-7.753-18.211 1.8764-5.593 3.45-16.075 9.7552-18.346 6.697-0.56916 14.747-1.6699 17.476-8.3437 1.3626-5.9371 3.0973-14.521 0.57021-20.724-11.366-3.1214-29.902-11.543-39.66-16.341 7.5991-0.8097 19.759 0.34031 27.481-0.14668-15.99-11.059-36.288-12.577-55.106-10.642 3.3797 2.1938 6.9704 4.9204 8.431 8.5625-20.1 1.5011-26.275 9.4326-26.919 26.66 2.6235-1.054 7.7154-0.81621 12.178-0.50817 1.014 5.9914 4.3825 19.333-0.77093 23.439-21.309-2.6383-46.144-17.397-52.829-39.179-0.52568-7.6136 6.9612-9.7922 12.853-11.518 8.2638-6.7199 2.1996-11.799-5.4341-13.661-7.1813-1.5424-13.533-1.958-20.553 0.15832-6.5257 1.6849-5.2835 3.8151-7.5477 8.4321-1.7983 7.139 1.7304 13.956 4.8459 20.068 9.6147 21.429 19.823 20.949 15.444 44.483-1.4955 11.036 8.5215 17.003 16.162 22.714 2.3437 2.3078 5.1092 4.7181 9.6241 7.1871-0.16684-5.3037-0.12231-4.8-0.1601-10.816 9.1545 11.993 22.587 21.536 34.51 29.578z" fill="#f00000" stroke-width="3.045"/>
<path d="m601.29 390.24c-3.1524 0.0655-7.0804-1.9022-11.442-2.9569-6.8746-2.706-13.687-5.5864-20.618-8.2152-13.287-4.4864-5.1672-4.159 3.7708-4.6204 4.3078-0.22659 8.6333 0.71847 12.947 0.68525 4.8749 3.1008 18.991 7.5412 15.342 15.107z" fill="#f00000" stroke-width="3.045"/>
<path d="m663.15 613.61c-2.3524 6.4596-2.8512 7.262-3.0127 17.248-3.6937-6.5448-5.905-15.316-4.5342-22.735 2.1572 2.8198 4.0566 4.1879 7.5468 5.4871z" fill="#f00000" stroke-width="3.045"/>
<path d="m623.46 599.42c-5.8257 0.67887-7.7529 2.5031-11.371 6.1778-1.1801-6.8366-0.22679-12.142 4.4769-17.127 5.1934 0.0139 4.8892-0.4374 6.8183-1.4877-3.6261 6.2225 0.0385 7.5318 0.0762 12.436z" fill="#f00000" stroke-width="3.045"/>
<path d="m605.72 565.78c-6.6486-3.6083-9.7941-2.8681-14.468-0.78985 10.246-13.597 13.402-10.96 24.657-4.0159-5.8083 0.94122-5.1523 1.1422-10.189 4.8057z" fill="#f00000" stroke-width="3.045"/>
<path d="m652.07 558.85c-3.9718 2.1149-6.8386 1.6748-6.8862-4.5146-0.0336-4.368-0.38776-7.5083-1.5987-9.8842-1.7166-3.3681-5.5542-4.4867-9.164-3.7358-14.898 6.6767-14.828 23.444 2.483 25.864 6.1706-0.84748 11.4-2.9217 15.166-7.7295z" fill="#f00000" stroke-width="3.045"/>
<path d="m625.59 548.17c5.2707-11.254 0.7543-8.9959-4.8774-8.8689 8.1949-7.1919 17.656-3.2316 21.025 2.91-5.2662 0.27491-12.087 1.1036-16.148 5.9588z" fill="#f00000" stroke-width="3.045"/>
<path d="m452.65 365.5c-7.8508 2.7902-13.531 3.759-18.949 10.804-3.1015 6.5534-2.8296 15.062-1.3524 22.087 0.78563 3.0429 3.4386 4.8658 5.0965 6.4983 2.4855 2.4475 1.1382 4.985 4.9284 10.172 5.4385 11.207 16.345 20.929 29.097 21.853 3.0264-0.0233 2.0846-4.885 2.2192-8.391 0.096-2.5001 0.69211-8.9742 0.66738-12.185-6.2621-14.162-27.627-34.302-21.707-50.838z" fill="#f00000" stroke-width="3.045"/>
<path d="m486.87 360.67c1.9313-10.713-7.0929-17.719-16.15-21.191 2.8967 5.7131 4.8145 10.329 3.1739 16.724 4.6494 1.0905 9.0353 1.7615 12.976 4.4677z" fill="#f00000" stroke-width="3.045"/>
<path d="m458.69 357.84c0.94924-8.8737-4.5138-11.907-11.536-15.137-7.6471-1.5877-13.485 4.1695-15.904 10.78-3.5028 6.8796 0.60805 10.316 3.9293 15.956 6.1778 1.7153 9.8936-2.932 17.479-3.941 0.94567 0.22872 4.7126-5.685 6.0312-7.6592z" fill="#f00000" stroke-width="3.045"/>
<path d="m421.95 332.24c6.4599 3.0049 9.9947 7.8424 13.253 14.03 4.7218-3.2379 8.3274-4.9778 13.455-2.7638-6.1283-7.9991-16.95-11.855-26.708-11.266z" fill="#f00000" stroke-width="3.045"/>
<path d="m429.77 359.43c-3.7237 0.71749-6.5392 5.5165-9.0551 8.0715-5.0889 6.2928-1.6953 10.127 3.1412 14.971 3.5305 3.4765 7.0125 1.3894 7.6005-1.5811 0.69108-3.4912 3.3522-6.473 5.2641-8.4145 2.3142-2.3501 0.32754-2.2522-2.85-4.7237-1.5179-1.1806-4.5233-6.1221-4.1007-8.3232z" fill="#f00000" stroke-width="3.045"/>
<path d="m426.9 360.65c-4.8862-5.8812-13.679-5.7018-20.759-5.4551 7.2226 3.7645 10.191 7.3552 13.511 12.874 3.2223-3.2974 4.6632-5.449 7.2478-7.4187z" fill="#f00000" stroke-width="3.045"/>
<path d="m429.96 384.71c-3.3784-1.0605-7.9935-1.6576-11.418 0.0879-3.5954 1.8325-2.5274 6.2869-1.458 8.3852 3.2698 4.428 7.4185 9.3088 12.273 12.086 4.1441 2.0323 6.869 2.2788 6.8393-1.5752-5.8671-5.8791-4.7092-10.842-6.2364-18.984z" fill="#f00000" stroke-width="3.045"/>
<path d="m416.29 388.62c-2.2002-3.3895-6.4261-4.9732-10.704-6.0077 6.1372-4.4656 11.173-7.5442 17.486 0.0147-4.6942 1.6372-4.5579 3.6426-6.782 5.993z" fill="#f00000" stroke-width="3.045"/>
<path d="m119.02 339.43c-1.905-3.96-4.2898-6.1775-7.6768-7.8385-10.914-4.1996-16.204 1.3264-22.267 11.244-0.67283-7.6082 1.9639-16.739-7.4798-18.628-8.2248-1.0426-13.088 3.2105-15.142 10.774-0.8358 3.4562 0.18365 8.0964 0.84332 10.651 1.0405 4.03 3.5627 6.3103 3.5975 10.825-3.9724-5.2466-3.3933-8.0908-5.6022-11.257-7.4393-9.1375-14.263 4.1198-17.711 10.48-3.074 6.9564 0.16096 12.016 3.941 17.479 2.0224 3.968 0.02363 7.7569-0.67914 10.663-1.3321 7.3307-0.96015 14.888 0.93128 22.07 13.751 19.394-0.99285 28.263 3.8521 50.184 3.403-3.3288 3.3317-3.354 6.3663-8.3924-2.728 18.297-2.5844 36.509-2.3345 54.995 5.1641-4.9049 7.2294-8.034 10.287-10.903-1.3469 20.004 2.665 39.259 6.6965 58.673 2.6986-2.9913 1.1342-1.2415 5.8911-11.63 2.3933 25.699 3.7351 35.706 14.825 59.637 2.4998-3.5968 4.0723-6.9816 6.8145-11.784 3.1964 5.4336 5.2445 11.928 10.019 15.91 4.8656 4.0576 7.5824 1.7147 9.1406 0.69086 2.7529-1.8089 4.31-4.3021 5.2817-6.1308 2.1952-4.1317-1.0319 1.366 2.0863-3.484 13.099 46.626 65.659 55.856 107.92 53.642 13.313-3.6362 26.526-7.8646 35.675-18.731-7.0937 6.1613-15.32 12.448-23.519 15.592-3.063 0.79089 5.0702 1.4835 7.624 1.4638 15.311 1.4114 30.384 4.5815 45.72 5.738 19.996 1.6969 65.647 12.43 71.029 29.904 1.5573-10.636-5.4338-27.891-15.524-38.705-2.1772-2.1439 5.5104 3.3147 6.8979 6.037 5.9806 12.618 10.192 26.253 10.207 40.269 5.4866 18.557 5.99 33.81 25.508 41.844 1.1589-4.9804 1.7894-7.0247 2.7831-10.593 6.5132 11.914 13.619 22.03 25.615 29.013 1.4878-5.8669 1.049-4.8674 1.7474-13.841 8.1243 8.3305 22.415 8.4648 27.83 19.164 2.7104 15.857-10.817 27.858-21.788 37.47-9.9312 7.489-22.949 8.0549-34.964 7.1208-11.024-5.8314-17.069-12.729-25.917-4.368-8.7702 15.234 6.7553 17.871 20.665 18.045-2.9128 1.2456-6.9243 1.0735-12.107 2.0059-14.91 1.0945-9.8318 15.07-1.391 21.003 5.8035 2.8255 14.271 3.7082 19.792-0.15246 4.8949-4.2582 7.5031-9.9859 12.835-13.802-0.40012 1.6545-1.5308 2.1365-2.2485 4.5849-2.0379 6.6819 0.63829 14.02 6.98 16.694 14.789 1.7689 19.327-5.8574 23.07-16.665-0.11956 5.1523 2.6596 5.6592 6.402 5.5947 4.7966-1.0888 9.2944-5.6915 13.004-9.0501 8.8117-15.444 31.026-19.035 38.01-35.424-3.5524 0.0274-6.4808 0.70794-12.88 0.24087 7.7076-8.4016 16.721-16.644 20.764-27.578-8.9603 0.069-2.3187-0.0815-7.9219 0.49411-2.4898-9.8212 4.92-22.185 6.102-30.986-5.4717 2.9051-2.2304 1.6757-6.9072 3.9885 0.79569-8.9087-0.43633-20.658-0.66399-29.282-12.376 20.567-34.6 1.2891-44.356-11.571-7.255-14.052-21.252-22.807-31.813-34.245 5.8984 4.5235 11.959 8.7303 18.696 11.508 30.195 12.444 57.986 35.104 89.163 12.255 11.4-13.066-1.3019-32.458-14.036-43.284-23.401-14.746-47.993-27.887-71.884-42.077-7.3404-4.2516-18.658-7.6566-19.927-17.356-1.6655-8.2959-1.6509-16.663-1.716-25.109-1.3095-16.736-13.501-27.958-26.924-36.334 1.6104 8.7936 4.6144 17.01 8.4023 25.089 3.6364 8.9116-0.61914 1.4582-2.0432-4.0572-8.4848-22.754-27.063-34.226-51.365-32.865-1.7438 0.88876-1.0672-0.2329-6.8276 3.0977 3.8622 1.5105 6.0848 2.9836 9.3731 4.5962 7.2112 3.943 7.3913 11.271 8.7756 18.33 4.4576 12.183 9.0992 23.279 16.546 33.902 9.6128 15.798 24.675 27.2 41.376 34.7 28.654 16.27 61.631 28.05 86.411 50.34 10.872 8.4786 12.897 29.202-5.1233 26.684-44.864-10.833-81.55-39.986-120.01-63.784-28.563-15.505-58.45-28.286-87.12-43.483-0.21794-0.21454-5.9414-5.474-6.1309-5.2817-4.1944 2.2461-9.2526 14.108-8.7189 4.6348 0.20413-3.8093 1.1893-15.129 0.29266-11.421-6.9061 13.569-25.297 32.168-38.573 41.375 1.6721-9.698 1.9977-13.378 1.4602-16.728-15.212 11.751-34.559 18.325-53.077 23.571 3.746-5.7856 6.3723-10.233 8.8106-13.523-15.942 4.1046-35.609 9.0754-50.907 0.39213 4.757-1.4745 8.8559-3.7137 12.506-7.1381 9.0341-10.751 6.5725-4.2458-3.457-4.0652-10.402 1.0666-20.229-0.51873-29.631-4.72 47.172-21.98 20.668-55.845-2.283-90.229-1.2554-6.6908-3.8716-12.481-8.4434-17.503-5.2819-7.3233-8.1686-16.422-10.851-25.038-7.0672-20.737-12.587-41.243-11.905-63.094-0.76394-19.088 9.6341-29.309 23.275-42.526z" fill="#f00000" stroke-width="3.045"/>
<path d="m378.29 693.42c-1.1371-2.8751-6.3719-4.7636-8.4263-6.7865-2.6791-2.6382-4.7484-5.362-7.665-6.7924-3.0406-1.4911-4.5873-3.0089-7.6416-3.7475-3.7914-0.9169-6.1248-2.0511-9.9194-2.9687-3.2612-0.78867-7.2463-1.5624-9.9135-2.2074-3.7078-0.89667 7.719 0.10446 11.413-0.84919 3.7274-0.96242 9.467 0.01 12.185 0.66742 4.0673 0.98359 6.5189 2.1638 10.681 2.9628 3.1458 0.60401 4.4888 3.6647 6.1308 5.2817 2.5197 2.4812 3.0069 5.7376 3.8765 9.1054 0.32259 1.2493-0.65962 5.0192-0.72016 5.3344z" fill="#f00000" stroke-width="3.045"/>
<path d="m380.64 701.77c1.0229 3.9617-8.0764 1.5848-12.168 1.6163-9.0716 2.5493-20.72 6.1573-28.072 12.397-4.1452 4.4388-7.862 9.8215-10.54 15.307-5.8994 13.006 9.1854 25.652 18.635 32.714-9.1758 5.4878-19.778 3.8014-30.536 8.037 3.945 3.7732 7.8117 6.9108 10.244 9.3061-15.247 2.9401-30.009 0.26177-44.431-4.7866 3.8958 4.2128 8.1777 8.0527 12.273 12.086-11.606 1.3162-26.195-2.7111-37.001-6.9374 0.43296 5.7213 2.1458 4.3923 3.3031 10.175-10.4-3.1554-23.492-10.565-33.173-13.309 0.78568-9.0117-0.95956-17.431-6.8225-24.576-4.9728-4.804-11.789-6.7697-17.272-10.87-6.6925-5.3559-13.046-13.97-16.134-22.173-1.8299-3.556-4.179-5.0258-3.7948-10.481 0.44103-6.2619 1.7462-3.0276 5.9436-7.045 4.7463-3.1858 13.202-7.1372 18.246-3.1856 5.7573 5.258 7.2932 11.182 3.9469 18.24-1.7565 6.4772 6.6772 11.136 11.53 14.375 6.4465 5.0817 11.248 6.4755 19.395 6.4196 7.6228 0.34533 15.368 0.92538 23.292 0.86434 6.664 0.0211 11.473-4.8159 15.915-9.2579 2.5134-6.471 0.83684-15.831-0.17592-22.837-1.0382-4.0208 0.97742-6.4141 2.9804-10.144-3.981 1.2128-7.8318 2.2577-12.277 3.3487 3.4642-12.978 15.101-24.155 25.992-30.847-3.3888-0.34268-6.338-0.16818-13.134-0.56007 12.604-8.1829 27.585-12.289 42.48-13.158 9.1222-1.4224 56.419 23.28 32.85 14.972-8.0216-0.90126-16.216-1.0644-24.31-1.1936 4.8692 3.4787 8.1142 3.2878 13.682 5.0818 8.2894 4.7606 17.587 8.247 24.476 15.037 4.3258 4.2596 3.4739-5.9474 4.6553 11.383z" fill="#f00000" stroke-width="3.045"/>
<path d="m379.84 693.77c-6.4874-5.9242-15.951-12.807-24.509-16.167-6.1045-2.3326-11.812-4.2808-17.6-7.3245 7.1126-0.25449 14.233-0.5547 21.347-0.3171 6.045 1.6771 11.602 3.7096 16.811 8.2445 2.8137 3.9847 4.594 10.627 3.9499 15.564z" fill="#f00000" stroke-width="3.045"/>
<path d="m413.36 798.96c-2.0876-3.8042-4.087-5.8786-3.1211-9.8725 5.126-13.936-3.4536-22.067-16.091-13.579-6.6992 7.892-8.2992 8.6031-2.9276 15.248 5.1506 7.3184 13.615 9.4564 22.14 8.2034z" fill="#f00000" stroke-width="3.045"/>
<path d="m404.78 772.39c1.9942-9.142-16.155-5.8476-24.07-3.3629 4.9115 1.0859 9.1858 4.94 11.026 8.8952 3.7494-3.4523 7.9502-5.3379 13.043-5.5322z" fill="#f00000" stroke-width="3.045"/>
<path d="m384.37 790.05c-10.309-11.138-21.68 1.0019-26.632 11.042 5.8869-3.0197 10.745-5.9047 16.63-0.14526 2.1435-5.0401 5.969-7.9898 10.002-10.897z" fill="#f00000" stroke-width="3.045"/>
<path d="m377.73 818.27c-9.772 0.88252-14.022 14.867-12.753 23.189 3.2975-7.6437 5.4486-10.061 14.567-10.571-1.321-3.3172-3.5986-5.7133-1.8136-12.617z" fill="#f00000" stroke-width="3.045"/>
<path d="m412.23 849.98c-0.7489-3.7952 0.8268-8.1901 5.4824-10.434-2.6265-4.3447-3.9488-6.7365-4.3181-10.593-6.5415 6.3132-9.788 14.975-1.1643 21.027z" fill="#f00000" stroke-width="3.045"/>
<path d="m228.98 778.31c-8.4209 0.0787-15.424-0.65496-22.872-4.3914-8.0413-4.4159-14.161-11.229-21.443-16.583-9.1034-7.1585-9.0231-18.66-6.3126-28.88 4.0418-8.9275 4.923-6.8131 11.773-6.0086 5.6304 12.841 11.392 18.8 20.339 24.032 14.077 5.3493 21.239 17.206 18.516 31.831z" fill="#f00000" stroke-width="3.045"/>
<path d="m178.35 728.45c-5.009-4.6211-10.796-8.4051-13.058-15.125-2.4929-6.583 0.87706-12.125 6.7338-15.277 10.703-3.9641 13.42-0.66767 17.576 5.7086-5.9801 6.7809-4.6964 8.3979 0.32636 18.308-6.8925 0.22028-6.0524-3.1158-11.578 6.3855z" fill="#f00000" stroke-width="3.045"/>
<path d="m178.35 728.45c-5.3037-6.0597-9.2955-9.368-17.567-7.4774-6.569 2.8514-6.7968 11.41-6.7162 17.561 1.9583 6.2399 8.0971 10.943 14.425 11.789 2.887-1.4584 5.5861-1.9937 9.2549-1.3138-2.0644-7.5031-1.1846-13.357 0.60291-20.559z" fill="#f00000" stroke-width="3.045"/>
<path d="m178.23 749.46c-4.0038-0.95193-7.366-2.268-10.355 2.6775-3.1868 6.5949-0.10316 12.879 5.4517 15.945 7.867 3.357 15.695 2.2592 23.547-0.34508-11.13-10.765-10.446-7.0378-18.644-18.277z" fill="#f00000" stroke-width="3.045"/>
<path d="m166.4 759c-8.2897-1.4472-10.25 2.8367-14.19 8.2338 0.30222-13.165 4.8972-16.624 16.436-17.222-2.24 4.6879-2.3888 5.6602-2.246 8.9877z" fill="#f00000" stroke-width="3.045"/>
<path d="m160.02 720.98c-8.1721-3.069-14.213 1.853-18.546 8.3274 4.0945-1.0747 8.482-0.85024 12.738-0.99284 1.9921-3.116 3.4764-5.2907 5.8083-7.3346z" fill="#f00000" stroke-width="3.045"/>
<path d="m168.99 699.57c-0.4821-6.8509-4.8543-8.9039-10.739-10.551 10.01-3.0156 16.34 0.83005 23.47 7.454-6.1003 0.0396-8.4198 0.27339-12.731 3.0974z" fill="#f00000" stroke-width="3.045"/>
<path d="m205.96 697.95c6.992-3.9204 6.3857-7.8133 1.1437-13.138 4.1053 0.99166 6.7567 3.1968 9.7782 6.0463 7.8108 6.3464 4.248 12.65-2.0392 18.509-0.74697-5.2964-3.2425-7.6984-8.8828-11.417z" fill="#f00000" stroke-width="3.045"/>
<path d="m95.957 377.09c3.7497-3.6253 7.5797-3.3194 12.677-2.0868 6.661 3.8458 11.777 5.3846 17.502-0.8961 4.1534-5.8652-2.8304-11.27-4.6964-16.712-3.6912-6.8569-11.259-4.617-15.992-0.63807-7.4114 4.6153-9.7701 12.022-9.4913 20.333z" fill="#f00000" stroke-width="3.045"/>
<path d="m127.2 371.97c4.6683-5.2045 4.7916-11.924 3.3981-18.391-0.62795 2.5966-2.4318 5.114-5.6202 8.9177 1.7947 4.1117 2.9002 5.0998 2.2221 9.4732z" fill="#f00000" stroke-width="3.045"/>
<path d="m119.31 338.96c7.1477-10.008-0.52831-19.614-10.413-27.906 0.17829 6.3976 2.4478 13.046-0.99173 18.833 3.8388 2.1101 8.441 2.181 11.404 9.0725z" fill="#f00000" stroke-width="3.045"/>
<path d="m87.091 326.27c-2.006-9.4961-7.5147-14.304-15.566-19.008 1.8799 6.6134 4.73 12.171 3.8007 17.276 5.5361-1.4169 7.9739-0.53268 11.766 1.7325z" fill="#f00000" stroke-width="3.045"/>
<path d="m60.877 341.18c-5.0072-6.3972-9.4802-10.537-17.494-9.7834 5.2958 3.9418 8.8004 9.4209 9.8134 14.742 1.3443-2.2822 4.0417-4.5185 7.681-4.9587z" fill="#f00000" stroke-width="3.045"/>
<path d="m131.23 442.58c3.7564-5.3928 3.7234-11.034 3.6771-17.253-2.9517 3.798-7.3316 4.7398-10.963 7.0032-0.53103-9.0095 3.5144-17.094 7.7774-24.773 1.2595-2.5682 2.679-5.9683 5.3482-6.6575 37.028-10.692 13.319-57.883 75.698-46.494 9.5312 4.6959 9.4941 18.066 6.295 26.596-5.3053 6.7965-12.043 3.5459-15.248-2.9276-5.8499-4.3851-14.168 2.5194-18.217 6.9917-3.1223 14.757-4.0991 30.521-4.9768 45.715-1.1359 8.5097 4.5221 32.432-3.554 32.762-7.7144 0.69975-1.147 6.4251 1.5928 9.123-7.3743-3.4102-52.887-12.019-38.764 7.9113 5.2641 8.8426-13.241-6.2099-12.133 6.1836-6.3007-13.831-1.071-30.459 3.466-44.18z" fill="#f00000" stroke-width="3.045"/>
<path d="m134.68 396.12c-1.975-13.494 3.2669-27.709 12.654-37.4 4.2906-4.8358 6.9661-10.453 14.064-11.562 6.9685-4.4284 12.636-5.5608 20.824-5.4542 8.2032-0.65458 13.593 2.9117 17.77 9.7996-3.1709 4.1044-8.505 8.4619-12.817 11.674-6.9437 6.0544-14.729 10.76-21.533 17.04-3.9325 4.1019-28.407 30.652-30.961 15.903z" fill="#f00000" stroke-width="3.045"/>
<path d="m193.38 344.19c-8.4149-8.3825-2.9764-11.493 6.2516-15.562 6.7399-1.1774 14.462 2.3723 20.594 5.1703 12.652 7.9891 9.6977 19.934-2.8866 20.577-5.9694 0.3349-10.341-2.5192-16.24-2.2036-2.6075-2.9857-2.2654-3.8802-7.7187-7.981z" fill="#f00000" stroke-width="3.045"/>
<path d="m189.55 341.17c-4.813-0.79393-9.6711-0.51002-14.858-0.47006-3.1838-5.3882-2.5646-10.298 0.53885-17.217 2.2409-8.1923 11.55-6.1791 18.223-6.2305 8.8046 1.886 6.7223 10.426 0.10555 13.702-3.5445 1.8065-5.3121 4.6786-4.0089 10.216z" fill="#f00000" stroke-width="3.045"/>
<path d="m174.31 340.91c-5.8602 3.727-12.47 6.5206-19.442 7.091-9.6749-1.0711-8.7403-11.571-5.4693-18.228 3.459-5.8524 10.363-7.5388 16.688-7.7413 7.4922 1.5616 5.8918 13.022 8.2235 18.879z" fill="#f00000" stroke-width="3.045"/>
<path d="m155.34 310.69c3.0228 0.0888 7.7066 2.2627 10.686 3.724 2.3717 1.1631 3.9457 4.9043 5.2284 9.7942-4.4375-1.6701-2.1024-3.2792-12.383-2.2284 1.4481-5.2119-1.6389-8.1889-3.5321-11.29z" fill="#f00000" stroke-width="3.045"/>
<path d="m187.03 316.73c1.7019-6.5851-2.1824-13.083-4.3905-19.187 11.142 3.8025 17.011 10.092 16.232 22.198-3.0527-1.9696-5.2803-3.148-11.841-3.0106z" fill="#f00000" stroke-width="3.045"/>
<path d="m221.62 317.03c2.1048 6.5736-0.58416 10.927-5.8512 14.125 6.3688 2.2984 11.061 8.4422 12.881 13.062 3.6437-10.076 2.3262-21.305-7.0294-27.187z" fill="#f00000" stroke-width="3.045"/>
<path d="m219.04 381.88c8.862-3.4478 16.42-12.184 18.22-21.713-4.2824 3.6885-10.648 7.2144-16.08 8.8142-0.40861 5.5046-0.84267 8.3635-2.1396 12.899z" fill="#f00000" stroke-width="3.045"/>
<path d="m290.52 564.68c8.0024-9.9761 15.56-19.705 21.074-31.374 1.3158-4.6379 4.7278-8.0055 6.7572-12.232 1.5562 3.972 2.2775 6.7177 3.8824 9.8666 11.356-14.39 14.503-31.093 14.849-48.836-0.033-4.2885-3.9795-4.6741-6.1426-6.8041-2.557-2.5179 7.1708-0.7074 10.645-1.6046 5.3232-1.3744 6.2338-1.1138 8.3324-5.3931 3.4832-8.8537-3.8034-11.263-10.757-12.859-3.9724-0.96064-5.8145-2.239-11.436-2.1957-6.9102-0.1693-10.735 5.9369-13.614 11.524-2.9322 12.813-10.726 23.548-15.584 35.577-20.66 24.931-28.684 1.6052-45.091-6.1816-16.623-1.2173-20.556 1.1025-28.954-13.912-1.2515 3.2708-1.955 5.0919-2.6128 7.7854-16.719-11.414-28.692-27.724-50.267-24.573 2.1257 3.687 2.0039 3.3606 4.7568 6.1715 1.0796 1.1023-1.645-2.2145 2.3784 2.8475-10.836-4.5797-22.616-5.7854-34.373-5.6462-7.7824 0.89715-9.7358 8.0429-4.4676 12.976 1.4755 2.0687 0.37047 0.30915 2.9143 4.1623-3.5994-1.7028-11.571-2.6899-15.076-1.7848-3.7237 6.4506 7.0198 20.177 11.612 25.032 22.26 27.833 18.001 49.933-11.634 70.888 12.097 6.4985 24.411 6.8215 37.329 3.5188-0.45915 5.6101-11.328 10.5-16.79 12.635 16.847 5.9263 36.003 4.7517 52.655-1.4926-3.2911 5.0453-7.7226 9.4979-10.211 15.002 19.588-5.7151 37.563-10.173 56.569-25.255-1.5266 5.4956-1.4057 7.1298-2.2016 10.675-1.3073 5.8229 2.0026 4.7147 3.8296 3.0156 10.957-8.2776 12.371-9.235 20.424-16.905 8.3141-9.4999 9.7277-14.193 12.757-20.355 1.1113 6.6833-0.37876 12.809-0.49148 15.59 4.218-2.0632 7.4877-6.8859 8.9374-9.8622z" fill="#f00000" stroke-width="3.045"/>
<path d="m344.24 456.75c-3.455-3.9426-3.7292-4.2088-6.6528-7.3831-3.4397-4.9253-10.158-4.9749-14.528-8.2621-3.652-3.5962-1.5525-4.397-5.3931-8.3324-3.5276-4.7174-9.4861-6.0984-13.778-9.7904-5.8052-7.2701-16.407-14.936-25.185-8.18-2.9216 2.9669-7.2217 1.1987-9.1406-0.69086-1.8141-1.7864-6.5021-1.5016-8.3081-1.0352-2.4559 0.6341-4.263 6.3951-8.392 7.2541-2.1002 0.43689-3.2288 7.0675-3.7358 9.164 1.3046 6.7012 8.6912 9.8583 14.551 11.307 6.1966 1.4986 5.7241-1.5142 8.4028 3.7416 0.41893 6.5584 2.1906 17.197-2.1078 22.854-14.145 17.384-13.341 11.874-26.649-0.556-5.645-2.878-9.8998 7.5587-9.0409 12.25 0.71423 2.7662 6.9079 2.9919 9.9194 2.9687 4.141-0.0319 5.6785 3.0553 6.898 6.037 1.1967 2.9262 4.8446 4.2574 6.1426 6.8041 8.0337 11.947 19.119 19.376 33.611 14.967 16.416-15.224 16.867-40.347 32.49-55.942 7.2188-2.4588 14.13 0.59008 20.895 2.8246z" fill="#f00000" stroke-width="3.045"/>
<path d="m304.78 440.48c-3.0898-5.4808-8.7218-9.2018-12.291-14.369-1.1749-2.3052-10.456-5.7638-5.3344-0.72019 2.6997 2.6584 0.0402 5.2226 0.0762 9.8959 0.0316 4.1013 4.9227 4.5297 9.1699 4.497 5.3053-0.0409 0.41872-3.2215-0.52618-4.152-1.4121-1.3905-1.2224-7.6183-2.6629-8.9793-6.2541-5.9088 3.2632 3.8175 3.8976 6.2744 0.41967 1.6254 5.9563 4.7454 7.6709 7.5536z" fill="#fff" stroke-width="3.045"/>
<path d="m252.43 475.57c1.562-3.0926 1.0294-2.6045 2.1188-7.9671-1.7302 0.39731-2.6511 1.4952-5.5098 1.8114 0.31696-2.7007-0.35121-3.6425 0.32945-7.0069-5.9657 0.56549-5.0174 1.9998-7.5145 3.2724 4.8231 3.655 7.6412 6.3454 10.576 9.8901z" fill="#f00000" stroke-width="3.045"/>
<path d="m265.97 441.54c-1.7002 2.1864-5.2202 7.3234-6.6873 11.875-2.9141-5.9336-2.567-8.3632 0.75039-13.066-1.8119 1.5062-4.731 3.5014-8.0476 5.0697 0.45423-3.6613 0.34947-6.1506 2.2133-8.676 2.1571 1.2366 10.188 4.1778 11.771 4.797z" fill="#f00000" stroke-width="3.045"/>
<path d="m272.22 462.05c-2.3942 3.1126-3.696 6.8799-9.0819 6.9214-4.7886-4.3693-7.8109-9.9323-11.536-15.137-4.2755-4.204-8.2425-8.7871-13.79-11.313-4.8894-3.4359-8.8926-8.0626-13.131-12.27-3.9175-4.6991-9.2165-7.825-13.699-11.884-3.5857-3.8829-5.9292-13.529-12.268-11.325-3.9804 2.0287-2.1946 4.8341 0.0645 8.3735 3.55 4.2619 6.4834 9.255 10.757 12.859 10.442 6.1022 18.403 15.447 29.091 21.092 5.1541 3.4087 9.9181 7.4578 15.307 10.54 3.6169 3.6129 9.562 8.1729 9.2403 13.632-0.94822 4.2846 1.4546-0.54985 2.4542-2.5882 1.9663-4.0096 4.5714-3.7325 6.5926-8.9006z" fill="#f00000" stroke-width="3.045"/>
<path d="m268.35 414.15c-1.4842 3.9372-5.9204 4.0273-9.8447 3.4156 0.74811-3.6832 6.8125-3.4156 9.8447-3.4156z"/>
<path d="m540.39 85.833c-1.5936 5.8743-5.085 4.7065-8.4434 3.9662 0.53971-4.2769 5.5951-3.9662 8.4434-3.9662z" stroke-width=".99795"/>
</g>
</g>
</svg>
