<?xml version="1.0" encoding="UTF-8"?>
<svg version="1.0" viewBox="0 0 603 763" xmlns="http://www.w3.org/2000/svg" xmlns:cc="http://creativecommons.org/ns#" xmlns:dc="http://purl.org/dc/elements/1.1/" xmlns:rdf="http://www.w3.org/1999/02/22-rdf-syntax-ns#" xmlns:xlink="http://www.w3.org/1999/xlink">
<metadata>
<rdf:RDF>
<cc:Work rdf:about="">
<dc:format>image/svg+xml</dc:format>
<dc:type rdf:resource="http://purl.org/dc/dcmitype/StillImage"/>
<dc:date>10-JUN-2010</dc:date>
<dc:creator>
<cc:Agent>
<dc:title>Aliman5040</dc:title>
</cc:Agent>
</dc:creator>
<cc:license rdf:resource="http://creativecommons.org/licenses/GPL/2.0/"/>
<dc:coverage/>
<dc:description/>
<dc:subject>
<rdf:Bag/>
</dc:subject>
<dc:language/>
<dc:title>Wappen Gemeinde Bossonens</dc:title>
</cc:Work>
<cc:License rdf:about="http://creativecommons.org/licenses/GPL/2.0/">
<cc:permits rdf:resource="http://web.resource.org/cc/Reproduction"/>
<cc:permits rdf:resource="http://web.resource.org/cc/Distribution"/>
<cc:requires rdf:resource="http://web.resource.org/cc/Notice"/>
<cc:permits rdf:resource="http://web.resource.org/cc/DerivativeWorks"/>
<cc:requires rdf:resource="http://web.resource.org/cc/ShareAlike"/>
<cc:requires rdf:resource="http://web.resource.org/cc/SourceCode"/>
</cc:License>
</rdf:RDF>
</metadata>
<defs>
<radialGradient id="a" cx="858.04" cy="579.93" r="300" gradientTransform="matrix(1.215 1.5316e-24 1.4647e-23 1.2667 -839.19 -490.49)" gradientUnits="userSpaceOnUse">
<stop stop-color="#fff" stop-opacity=".31373" offset="0"/>
<stop stop-color="#fff" stop-opacity=".25098" offset=".19"/>
<stop stop-color="#6b6b6b" stop-opacity=".12549" offset=".6"/>
<stop stop-opacity=".12549" offset="1"/>
</radialGradient>
</defs>
<g>
<path d="m1.5 1.5v458.87c0 166.31 134.31 301.13 300 301.13 165.69 0 300-134.82 300-301.13v-458.87h-600z" fill="#fff"/>
<path d="m101.66 1.6562v683.28c28.009 25.131 60.725 45.064 96.688 58.281v-741.56h-96.688z" fill="#2b5df2" stroke="#000" stroke-width="3.2977"/>
<path d="m301.66 1.6562v759.69h9.125c30.558-0.93196 59.964-6.4316 87.562-15.875v-743.81h-96.688z" fill="#2b5df2" stroke="#000" stroke-width="3.2977"/>
<path d="m501.66 1.6562v683c51.081-45.962 86.359-109.25 96.688-180.66v-502.34h-96.688z" fill="#2b5df2" stroke="#000" stroke-width="3.2977"/>
<rect x="1.3859" y="1.3859" width="600.23" height="221.86" fill="#e20909" stroke="#000" stroke-width="2.7718"/>
<path transform="matrix(.84755 .027913 -.027913 .84755 -132.19 -42.715)" d="m340 260-58.799-41.3-55.891 45.157 21.108-68.684-60.218-39.201 71.845-1.1493 18.674-69.385 23.294 67.973 71.76-3.681-57.448 43.159 25.676 67.11z" fill="#fcef3c" stroke="#000" stroke-width="3"/>
<path transform="matrix(.84755 .027913 -.027913 .84755 69.313 -42.715)" d="m340 260-58.799-41.3-55.891 45.157 21.108-68.684-60.218-39.201 71.845-1.1493 18.674-69.385 23.294 67.973 71.76-3.681-57.448 43.159 25.676 67.11z" fill="#fcef3c" stroke="#000" stroke-width="3"/>
<path transform="matrix(.84755 .027913 -.027913 .84755 267.81 -42.715)" d="m340 260-58.799-41.3-55.891 45.157 21.108-68.684-60.218-39.201 71.845-1.1493 18.674-69.385 23.294 67.973 71.76-3.681-57.448 43.159 25.676 67.11z" fill="#fcef3c" stroke="#000" stroke-width="3"/>
<path d="m1.5 1.5v458.87c0 166.31 134.31 301.13 300 301.13 165.69 0 300-134.82 300-301.13v-458.87h-600z" fill="url(#a)"/>
<path d="m1.5 1.5v458.87c0 166.31 134.31 301.13 300 301.13 165.69 0 300-134.82 300-301.13v-458.87h-600z" fill="none" stroke="#000" stroke-width="3"/>
</g>
</svg>
