<?xml version="1.0" encoding="UTF-8" standalone="no"?>
<svg
   xmlns:dc="http://purl.org/dc/elements/1.1/"
   xmlns:cc="http://creativecommons.org/ns#"
   xmlns:rdf="http://www.w3.org/1999/02/22-rdf-syntax-ns#"
   xmlns:svg="http://www.w3.org/2000/svg"
   xmlns="http://www.w3.org/2000/svg"
   xmlns:sodipodi="http://sodipodi.sourceforge.net/DTD/sodipodi-0.dtd"
   xmlns:inkscape="http://www.inkscape.org/namespaces/inkscape"
   version="1.0"
   width="208.86046"
   height="244.65999"
   id="svg2780"
   inkscape:version="0.92.4 (5da689c313, 2019-01-14)"
   sodipodi:docname="2422.svg">
  <metadata
     id="metadata27">
    <rdf:RDF>
      <cc:Work
         rdf:about="">
        <dc:format>image/svg+xml</dc:format>
        <dc:type
           rdf:resource="http://purl.org/dc/dcmitype/StillImage" />
        <dc:title />
      </cc:Work>
    </rdf:RDF>
  </metadata>
  <sodipodi:namedview
     pagecolor="#ffffff"
     bordercolor="#666666"
     borderopacity="1"
     objecttolerance="10"
     gridtolerance="10"
     guidetolerance="10"
     inkscape:pageopacity="0"
     inkscape:pageshadow="2"
     inkscape:window-width="3259"
     inkscape:window-height="1417"
     id="namedview25"
     showgrid="false"
     inkscape:zoom="2"
     inkscape:cx="76.068419"
     inkscape:cy="-40.176188"
     inkscape:window-x="-8"
     inkscape:window-y="-8"
     inkscape:window-maximized="1"
     inkscape:current-layer="svg2780"
     inkscape:measure-start="104.255,149.787"
     inkscape:measure-end="104.255,126.383"
     showguides="true"
     inkscape:object-paths="true"
     inkscape:snap-intersection-paths="true"
     inkscape:document-rotation="0" />
  <defs
     id="defs2782" />
  <path
     inkscape:connector-curvature="0"
     style="fill:#1b63c6;fill-opacity:1;fill-rule:evenodd;stroke:#000000;stroke-width:1.99999988;stroke-linecap:butt;stroke-miterlimit:4;stroke-dashoffset:0;stroke-opacity:1"
     id="path4212"
     d="m 1,1 3.761095,158.00304 c 2.686489,112.85918 196.651755,112.85918 199.338255,0 L 207.86045,1 Z" />
  <g
     id="g16900">
    <path
       sodipodi:nodetypes="cccc"
       inkscape:connector-curvature="0"
       id="path16818-3"
       d="m 134.65738,33.352478 c -3.91232,3.869942 -5.40057,7.294236 -6.03185,13.273417 -5.20205,-6.263628 -3.70611,-11.584637 -1.94454,-19.357048 z"
       style="opacity:1;fill:#ffffff;fill-opacity:1;stroke:#000000;stroke-width:1;stroke-miterlimit:10;stroke-dasharray:none;stroke-dashoffset:4.57999992;stroke-opacity:1" />
    <path
       sodipodi:nodetypes="cscccscc"
       inkscape:connector-curvature="0"
       id="path16822-0"
       d="m 142.76766,52.371137 c -4.27748,2.15828 -8.10105,4.02279 -18.74591,2.904253 -4.06174,-0.426799 -9.61686,1.777854 -14.78787,6.196535 0.32163,-3.726028 2.74445,-5.988165 4.53509,-7.852502 -2.85029,-0.990332 -4.6101,-1.808913 -7.00649,-3.6144 3.16258,-0.23064 8.59443,-0.01629 12.6725,0.650775 11.88834,1.944622 17.6733,0.338542 22.66977,-2.173748 z"
       style="opacity:1;fill:#ffffff;fill-opacity:1;stroke:#000000;stroke-width:1;stroke-miterlimit:10;stroke-dasharray:none;stroke-dashoffset:4.57999992;stroke-opacity:1" />
    <path
       sodipodi:nodetypes="cccc"
       inkscape:connector-curvature="0"
       id="path16820-0"
       d="m 137.99469,66.469079 c -2.54013,-1.65068 -5.09621,-3.665241 -6.69476,-6.434043 -0.52467,3.509889 -0.46228,6.772595 0.13258,9.811106 z"
       style="opacity:1;fill:#ffffff;fill-opacity:1;stroke:#000000;stroke-width:1;stroke-miterlimit:10;stroke-dasharray:none;stroke-dashoffset:4.57999992;stroke-opacity:1" />
    <path
       sodipodi:nodetypes="sssssssssssssssssss"
       inkscape:connector-curvature="0"
       id="path16816-9"
       d="m 122.83609,15.027061 c 7.15404,-0.680082 11.70328,-3.059948 17.5009,-4.242641 34.2766,-6.9923059 60.17836,17.543521 59.50788,43.133514 -0.48315,18.440076 -8.77027,41.364589 -36.06245,52.944616 -26.92705,11.42512 -59.11607,15.1622 -82.70116,25.87634 -19.95672,9.06586 -35.50677,21.28187 -35.03212,41.3872 0.68426,28.98355 25.71419,39.21579 42.99884,42.9714 3.17565,0.69001 4.27075,4.9067 -0.75,5.3125 -20.43243,1.65144 -62.40138,-12.84207 -62.40138,-54.82464 0,-24.06641 17.93153,-48.22057 46.92793,-58.78085 28.55533,-10.399645 55.96843,-13.809575 82.47261,-23.597091 19.99664,-7.384397 25.74694,-20.389667 25.8094,-32.173359 0.0573,-10.806315 -4.6065,-18.117579 -14.14214,-18.031222 -7.80858,0.07072 -13.4694,4.928291 -14.6066,8.750446 -4.62609,15.548466 -8.6401,28.231194 -20.5061,30.49398 -5.89532,1.124209 -4.8404,-3.747659 -2.38648,-5.038136 23.48571,-12.350787 5.3776,-38.914655 -4.24264,-40.481863 -1.76421,-0.287403 -3.5646,-1.046477 -3.53554,-4.684583 0.0357,-4.467245 0.1822,-8.923699 1.14905,-9.015611 z"
       style="opacity:1;fill:#ffffff;fill-opacity:1;stroke:#000000;stroke-width:1;stroke-miterlimit:10;stroke-dasharray:none;stroke-dashoffset:4.57999992;stroke-opacity:1" />
    <path
       sodipodi:nodetypes="ccsc"
       inkscape:connector-curvature="0"
       id="path16824-6"
       d="m 147.23548,15.347488 c -4.60829,0.811498 -8.47465,2.272179 -11.75,4.25 2.18819,2.223513 4.16228,3.922731 8.38036,2.891085 3.23009,-0.790006 3.56054,-5.423327 3.36964,-7.141085 z"
       style="opacity:1;fill:none;fill-opacity:1;stroke:#000000;stroke-width:1;stroke-miterlimit:10;stroke-dasharray:none;stroke-dashoffset:4.57999992;stroke-opacity:1" />
    <path
       sodipodi:nodetypes="ccc"
       inkscape:connector-curvature="0"
       id="path16826-4"
       d="m 143.27072,22.343614 c 0.1344,-2.103802 -0.73929,-3.143453 -2.11453,-4.446628 -0.43805,1.438909 -0.81567,2.942347 -0.0447,4.889328"
       style="opacity:1;fill:#000000;fill-opacity:1;stroke:#000000;stroke-width:1;stroke-miterlimit:10;stroke-dasharray:none;stroke-dashoffset:4.57999992;stroke-opacity:1" />
  </g>
  <g
     id="g16892">
    <path
       sodipodi:nodetypes="cccc"
       inkscape:connector-curvature="0"
       id="path16818"
       d="m 74.578096,33.102478 c 3.912322,3.869942 5.025572,7.544236 5.656854,13.523417 5.202053,-6.263628 3.706108,-11.584637 1.944544,-19.357048 z"
       style="opacity:1;fill:#ffffff;fill-opacity:1;stroke:#000000;stroke-width:1;stroke-miterlimit:10;stroke-dasharray:none;stroke-dashoffset:4.57999992;stroke-opacity:1" />
    <path
       sodipodi:nodetypes="cscccscc"
       inkscape:connector-curvature="0"
       id="path16822"
       d="m 66.092815,52.371137 c 4.277488,2.15828 8.226051,5.27279 18.870912,4.154253 4.061744,-0.426799 9.762563,-1.574414 15.556353,1.988738 -0.895668,-3.631048 -3.289358,-4.092819 -5.347499,-5.656854 2.662185,-1.420444 4.497592,-3.283486 5.966209,-6.098796 -2.268446,0.639593 -5.802688,2.408037 -9.634325,3.955378 C 80.083956,55.325833 71.7522,50.99434 66.755727,48.48205 Z"
       style="opacity:1;fill:#ffffff;fill-opacity:1;stroke:#000000;stroke-width:1;stroke-miterlimit:10;stroke-dasharray:none;stroke-dashoffset:4.57999992;stroke-opacity:1" />
    <path
       sodipodi:nodetypes="cccc"
       inkscape:connector-curvature="0"
       id="path16820"
       d="m 70.865785,66.469079 c 2.540133,-1.65068 4.72121,-3.727741 6.319767,-6.496543 0.524668,3.509889 0.462275,6.772595 -0.132582,9.811106 z"
       style="opacity:1;fill:#ffffff;fill-opacity:1;stroke:#000000;stroke-width:1;stroke-miterlimit:10;stroke-dasharray:none;stroke-dashoffset:4.57999992;stroke-opacity:1" />
    <path
       sodipodi:nodetypes="sssssssssssssssssss"
       inkscape:connector-curvature="0"
       id="path16816"
       d="M 86.024387,15.027061 C 78.870345,14.346979 74.321108,11.967113 68.523494,10.78442 34.246893,3.7921141 8.3451336,28.327941 9.0156115,53.917934 9.498756,72.35801 17.785878,95.282523 45.078057,106.86255 c 26.927055,11.42512 59.116073,15.1622 82.701163,25.87634 19.95672,9.06586 35.50677,21.28187 35.03212,41.3872 -0.68426,28.98355 -25.71419,39.21579 -42.99884,42.9714 -3.17565,0.69001 -4.27075,4.9067 0.75,5.3125 20.43243,1.65144 62.40138,-12.84207 62.40138,-54.82464 0,-24.06641 -17.93153,-48.22057 -46.92793,-58.78085 C 107.48062,98.404855 80.067521,94.994925 53.563339,85.207409 33.566702,77.823012 27.816402,64.817742 27.753941,53.03405 27.696661,42.227735 32.36044,34.916471 41.896077,35.002828 c 7.808585,0.07072 13.469407,4.928291 14.606602,8.750446 4.626091,15.548466 8.640101,28.231194 20.506096,30.49398 5.895322,1.124209 4.8404,-3.747659 2.386486,-5.038136 -23.485712,-12.350787 -5.3776,-38.914655 4.24264,-40.481863 1.764211,-0.287403 3.564596,-1.046477 3.535534,-4.684583 -0.03569,-4.467245 -0.182191,-8.923699 -1.149048,-9.015611 z"
       style="opacity:1;fill:#ffffff;fill-opacity:1;stroke:#000000;stroke-width:1;stroke-miterlimit:10;stroke-dasharray:none;stroke-dashoffset:4.57999992;stroke-opacity:1" />
    <path
       sodipodi:nodetypes="ccsc"
       inkscape:connector-curvature="0"
       id="path16824"
       d="m 61.625,15.347488 c 4.608288,0.811498 8.474653,2.272179 11.75,4.25 -2.188187,2.223513 -4.16228,3.922731 -8.380362,2.891085 C 61.764546,21.698567 61.434103,17.065246 61.625,15.347488 Z"
       style="opacity:1;fill:none;fill-opacity:1;stroke:#000000;stroke-width:1;stroke-miterlimit:10;stroke-dasharray:none;stroke-dashoffset:4.57999992;stroke-opacity:1" />
    <path
       sodipodi:nodetypes="ccc"
       inkscape:connector-curvature="0"
       id="path16826"
       d="m 66.877915,22.7843 c -0.744942,-1.972079 -0.214239,-3.222103 0.718787,-4.871045 0.840448,1.247395 1.642031,2.574194 1.475425,4.661613"
       style="opacity:1;fill:#000000;fill-opacity:1;stroke:#000000;stroke-width:1;stroke-miterlimit:10;stroke-dasharray:none;stroke-dashoffset:4.57999992;stroke-opacity:1" />
  </g>
</svg>
