<?xml version="1.0" encoding="UTF-8"?>
<svg version="1.0" viewBox="0 0 208.86 244.66" xmlns="http://www.w3.org/2000/svg" xmlns:cc="http://creativecommons.org/ns#" xmlns:dc="http://purl.org/dc/elements/1.1/" xmlns:rdf="http://www.w3.org/1999/02/22-rdf-syntax-ns#">
<metadata>
<rdf:RDF>
<cc:Work rdf:about="">
<dc:format>image/svg+xml</dc:format>
<dc:type rdf:resource="http://purl.org/dc/dcmitype/StillImage"/>
<dc:title/>
</cc:Work>
</rdf:RDF>
</metadata>
<path d="m1 1 3.7611 158c2.6865 112.86 196.65 112.86 199.34 0l3.7611-158z" fill="#1b63c6" fill-rule="evenodd" stroke="#000" stroke-width="2"/>
<path d="m104.43 1v242.65c-39.163-0.4626-90.66-18.393-98.938-74.922l-4.4921-167.73z" fill="#fff" stroke="#000" stroke-dashoffset="4.58"/>
<g transform="translate(0,2)" stroke="#000" stroke-dashoffset="4.58" stroke-miterlimit="6.087">
<path d="m104.43 81.871 69.966 69.891 3.3348-3.3319c8.6986 5.2435 11.202 5.1522 17.842-0.16539-26.272-26.251-52.543-52.503-78.817-78.74l18.763-18.737 38.767 38.723 3.3352-3.3324c8.6979 5.2423 11.202 5.1507 17.842-0.16784l-59.942-59.881-31.09 31.044z" fill="#fff"/>
<path d="m104.43 81.871-69.966 69.891-3.3348-3.3319c-8.6986 5.2435-11.202 5.1522-17.842-0.16539 26.272-26.251 52.543-52.503 78.817-78.74l-18.763-18.737-38.767 38.723-3.3352-3.3324c-8.6979 5.2423-11.202 5.1507-17.842-0.16784l59.942-59.881 31.09 31.044z" fill="#1b63c6"/>
</g>
<path d="m1 1 3.7611 158c2.6865 112.86 196.65 112.86 199.34 0l3.7611-158z" fill="none" stroke="#000" stroke-width="2"/>
</svg>
