<?xml version="1.0" encoding="UTF-8" standalone="no"?>
<svg
   xmlns:dc="http://purl.org/dc/elements/1.1/"
   xmlns:cc="http://creativecommons.org/ns#"
   xmlns:rdf="http://www.w3.org/1999/02/22-rdf-syntax-ns#"
   xmlns:svg="http://www.w3.org/2000/svg"
   xmlns="http://www.w3.org/2000/svg"
   xmlns:sodipodi="http://sodipodi.sourceforge.net/DTD/sodipodi-0.dtd"
   xmlns:inkscape="http://www.inkscape.org/namespaces/inkscape"
   version="1.0"
   width="208.86046"
   height="244.65999"
   id="svg2780"
   inkscape:version="0.92.4 (5da689c313, 2019-01-14)"
   sodipodi:docname="2428.svg">
  <metadata
     id="metadata27">
    <rdf:RDF>
      <cc:Work
         rdf:about="">
        <dc:format>image/svg+xml</dc:format>
        <dc:type
           rdf:resource="http://purl.org/dc/dcmitype/StillImage" />
        <dc:title />
      </cc:Work>
    </rdf:RDF>
  </metadata>
  <sodipodi:namedview
     pagecolor="#ffffff"
     bordercolor="#666666"
     borderopacity="1"
     objecttolerance="10"
     gridtolerance="10"
     guidetolerance="10"
     inkscape:pageopacity="0"
     inkscape:pageshadow="2"
     inkscape:window-width="3259"
     inkscape:window-height="1417"
     id="namedview25"
     showgrid="false"
     inkscape:zoom="2.8284271"
     inkscape:cx="-130.82043"
     inkscape:cy="101.35957"
     inkscape:window-x="-8"
     inkscape:window-y="-8"
     inkscape:window-maximized="1"
     inkscape:current-layer="svg2780"
     inkscape:measure-start="104.255,149.787"
     inkscape:measure-end="104.255,126.383"
     showguides="true"
     inkscape:object-paths="true"
     inkscape:snap-intersection-paths="true"
     inkscape:document-rotation="0" />
  <defs
     id="defs2782" />
  <g
     id="g17817"
     transform="translate(90.534839,86.36627)">
    <path
       inkscape:connector-curvature="0"
       id="path17675"
       d="M 50.890344,64.358831 65.875,13.909988"
       style="opacity:1;fill:none;fill-opacity:1;stroke:#00ff00;stroke-width:1;stroke-miterlimit:10;stroke-dasharray:none;stroke-dashoffset:4.57999992;stroke-opacity:0.79534882" />
    <path
       inkscape:connector-curvature="0"
       id="path17675-5"
       d="M 50.890344,64.358831 28.269248,16.841342"
       style="opacity:1;fill:none;fill-opacity:1;stroke:#00ff00;stroke-width:1;stroke-miterlimit:10;stroke-dasharray:none;stroke-dashoffset:4.57999992;stroke-opacity:0.79534882" />
    <path
       inkscape:connector-curvature="0"
       id="path17675-8"
       d="M 50.890344,64.358831 2.284188,44.182922"
       style="opacity:1;fill:none;fill-opacity:1;stroke:#00ff00;stroke-width:1;stroke-miterlimit:10;stroke-dasharray:none;stroke-dashoffset:4.57999992;stroke-opacity:0.79534882" />
    <path
       inkscape:connector-curvature="0"
       id="path17675-1"
       d="M 50.890344,64.358831 1.268616,81.889077"
       style="opacity:1;fill:none;fill-opacity:1;stroke:#00ff00;stroke-width:1;stroke-miterlimit:10;stroke-dasharray:none;stroke-dashoffset:4.57999992;stroke-opacity:0.79534882" />
    <path
       inkscape:connector-curvature="0"
       id="path17675-6"
       d="M 50.890344,64.358831 25.744238,110.58976"
       style="opacity:1;fill:none;fill-opacity:1;stroke:#00ff00;stroke-width:1;stroke-miterlimit:10;stroke-dasharray:none;stroke-dashoffset:4.57999992;stroke-opacity:0.79534882" />
    <path
       inkscape:connector-curvature="0"
       id="path17675-65"
       d="m 50.890344,64.358831 12.24733,51.182309"
       style="opacity:1;fill:none;fill-opacity:1;stroke:#00ff00;stroke-width:1;stroke-miterlimit:10;stroke-dasharray:none;stroke-dashoffset:4.57999992;stroke-opacity:0.79534882" />
    <path
       inkscape:connector-curvature="0"
       id="path17675-10"
       d="m 50.890344,64.358831 43.34919,29.840805"
       style="opacity:1;fill:none;fill-opacity:1;stroke:#00ff00;stroke-width:1;stroke-miterlimit:10;stroke-dasharray:none;stroke-dashoffset:4.57999992;stroke-opacity:0.79534882" />
    <path
       inkscape:connector-curvature="0"
       id="path17675-2"
       d="M 50.890344,64.358831 95.782978,36.894726"
       style="opacity:1;fill:none;fill-opacity:1;stroke:#00ff00;stroke-width:1;stroke-miterlimit:10;stroke-dasharray:none;stroke-dashoffset:4.57999992;stroke-opacity:0.79534882" />
    <path
       inkscape:connector-curvature="0"
       id="path17806"
       d="M 65.875,13.909988 104.43024,1"
       style="opacity:1;fill:none;fill-opacity:1;stroke:#00ff00;stroke-width:1;stroke-miterlimit:10;stroke-dasharray:none;stroke-dashoffset:4.57999992;stroke-opacity:0.79534882" />
  </g>
  <path
     inkscape:connector-curvature="0"
     style="fill:#feeb00;fill-opacity:1;fill-rule:evenodd;stroke:#000000;stroke-width:1.99999988;stroke-linecap:butt;stroke-miterlimit:4;stroke-dashoffset:0;stroke-opacity:1"
     id="path4212"
     d="m 1,1 3.761095,158.00304 c 2.686489,112.85918 196.651755,112.85918 199.338255,0 L 207.86045,1 Z" />
  <path
     style="opacity:1;fill:#000000;fill-opacity:1;stroke:#000000;stroke-width:1;stroke-miterlimit:10;stroke-dasharray:none;stroke-dashoffset:4.57999992;stroke-opacity:1"
     d="M 104.43024,79.326518 V 1 h 103.43021 l -1.86448,78.326518 z"
     id="path17626"
     inkscape:connector-curvature="0" />
  <path
     style="opacity:1;fill:#ffffff;fill-opacity:1;stroke:#000000;stroke-width:1;stroke-miterlimit:10;stroke-dasharray:none;stroke-dashoffset:4.57999992;stroke-opacity:1"
     d="m 104.43024,79.326518 v 80.882472 h 99.63299 l 1.93274,-80.882472 z"
     id="path17628"
     inkscape:connector-curvature="0" />
  <path
     style="opacity:1;fill:#cc2918;fill-opacity:1;stroke:#000000;stroke-width:1;stroke-miterlimit:10;stroke-dasharray:none;stroke-dashoffset:4.57999992;stroke-opacity:1"
     d="m 104.43024,160.20899 v 83.43843 c 44.76109,-1.0133 96.09372,-21.73157 99.63299,-83.43843 z"
     id="path17630"
     inkscape:connector-curvature="0"
     sodipodi:nodetypes="cccc" />
  <path
     id="path17620-7-5"
     style="opacity:1;fill:#000000;fill-opacity:1;stroke:#feeb00;stroke-width:1;stroke-miterlimit:2.5;stroke-dasharray:none;stroke-dashoffset:4.57999992;stroke-opacity:1"
     d="M 80.886601,222.08803 V 61.472488 c 0,-14.455992 -15.64248,-24.5 -28.011601,-24.5 -13.592823,0 -23.6875,12.481598 -23.6875,27.6875 0,2.289501 0.822678,6.918521 1.626987,8.121858 l 7.188502,-29.848133 7.430843,15.67883 6.847875,-16.075037 8.83534,35.919354 c 1.816015,-2.137921 2.820453,-4.797174 2.820453,-7.796875 0,-3.188796 -2.490339,-6.274437 -5.0625,-9.562498 -1.844673,-2.358094 -0.573953,-11.511021 4.794773,-13.255433 4.053785,-1.317159 6.668312,1.004806 7.486709,3.523577 1.741165,5.35876 -4.434153,7.776985 -7.156671,7.771233 l -0.05643,0.582815 c 1.993879,1.442408 6.180735,4.903671 6.119117,11.065306 -0.0083,0.831156 -0.08082,1.653938 -0.212723,2.464649 4.97902,0.309662 10.154214,2.131863 10.547971,7.763136 0.297332,4.252013 -2.541287,5.899025 -5.183245,6.083762 -5.620785,0.393043 -6.764142,-6.032968 -6.099918,-8.673225 L 68.27528,78.166976 c -2.137563,4.406361 -6.001434,8.112113 -10.601513,10.355332 2.170822,4.34441 4.290311,10.697032 -0.218001,14.094282 -3.404101,2.56517 -6.823005,0.93463 -8.416848,-1.18048 -3.390937,-4.49994 1.474639,-9.412611 4.050709,-10.293531 l -0.257793,-0.885108 c -1.589389,0.374934 -3.219804,0.574849 -4.859025,0.574849 -3.97587,0 -8.198416,-0.887882 -12.129025,-2.721528 -1.670069,4.700786 -5.258455,10.255808 -10.780111,9.082138 -4.169253,-0.8862 -5.154862,-4.409866 -4.604227,-7.000396 1.171481,-5.511384 8.095436,-5.208194 10.450325,-3.841949 l 0.582618,-0.761758 C 26.908749,82.34804 23.119646,77.562755 21.210785,71.116299 16.802144,73.282254 10.668173,74.135342 8.001982,70.198198 5.6119798,66.6689 6.896983,63.545754 9.039589,61.989061 c 4.55842,-3.311886 9.38148,1.622034 10.21731,4.213083 l 0.89241,-0.228643 C 19.96948,64.522663 19.875,63.000508 19.875,61.409985 c 0,-4.363803 0.8841,-8.715229 2.56151,-12.775201 -4.84961,-1.169551 -10.749296,-4.157619 -10.159232,-9.771708 0.445542,-4.239051 4.08277,-5.585337 6.716668,-5.308502 5.603651,0.588967 6.03642,7.525982 4.923813,10.010787 l 0.852595,0.444459 C 27.720997,39.119072 31.93441,34.896437 37.215263,31.942335 34.393882,27.828166 32.00897,21.659938 36.204032,17.882687 c 3.167581,-2.852103 6.616833,-1.859089 8.388962,0.109061 3.770228,4.187262 -0.568002,9.776702 -3.057489,10.878792 l 0.35101,0.906177 c 3.934544,-1.475637 8.387894,-2.804232 13.175985,-2.804232 1.977324,0 4.691491,0.16467 6.622689,0.482785 0.656222,-4.945295 3.0599,-11.116951 8.704913,-11.116951 4.2624,0 6.031441,3.016246 6.031441,5.664652 0,5.634517 -6.790671,6.543783 -9.378163,5.697004 l -0.322303,0.952575 c 6.730059,2.104917 13.984543,6.594092 18.445874,11.933427 3.796716,-3.235972 9.681863,-6.252576 13.876925,-2.475325 3.167584,2.852103 2.478834,6.295132 0.706704,8.263281 -3.770227,4.187262 -9.376546,0.22212 -10.732822,-2.138523 l -0.842666,0.563261 c 2.927923,4.850826 4.643935,10.503978 4.643935,16.673816 V 222.08803 Z"
     inkscape:connector-curvature="0"
     sodipodi:nodetypes="ccsscccccsssscccccccccssccsccscccssccscsscccssccscsscccssccccc" />
  <path
     style="opacity:1;fill:#feeb00;fill-opacity:1;stroke:#feeb00;stroke-width:1;stroke-miterlimit:10;stroke-dasharray:none;stroke-dashoffset:4.57999992;stroke-opacity:1"
     d="m 56.763817,81.663908 -5.719547,-21.581314 -5.564024,10.451653 -5.92646,-10.62843 -4.687182,18.99081 c 2.615063,2.978306 6.268427,4.372654 9.782205,4.662985 -4.144547,-3.721126 -6.058914,-7.463938 -6.730208,-12.196455 -0.473108,-3.335339 4.64276,-3.578063 5.126524,-0.452991 1.220531,7.884528 8.540474,13.41063 13.718692,10.753742 z"
     id="path17624"
     inkscape:connector-curvature="0"
     sodipodi:nodetypes="ccccccssc" />
  <path
     inkscape:connector-curvature="0"
     style="fill:none;fill-opacity:1;fill-rule:evenodd;stroke:#000000;stroke-width:1.99999988;stroke-linecap:butt;stroke-miterlimit:4;stroke-dashoffset:0;stroke-opacity:1"
     id="path4212-8"
     d="M 1,0.99999834 4.761095,159.00304 c 2.686489,112.85918 196.651755,112.85918 199.338255,0 l 3.7611,-158.00304166 z" />
  <path
     id="path17584-7-0-0"
     style="opacity:1;fill:#000000;fill-opacity:1;stroke:#feeb00;stroke-width:0.99999994;stroke-miterlimit:10;stroke-dasharray:none;stroke-dashoffset:4.57999992;stroke-opacity:1"
     d="m 79.851919,97.536834 c -1.133047,0 -1.605642,-1.29007 -1.591194,-2.220596 -0.01445,-0.930526 0.458147,-2.220596 1.591194,-2.220596 h 7.000895 7.000895 c 1.133047,0 1.605644,1.29007 1.591194,2.220596 0.01445,0.930526 -0.458147,2.220596 -1.591194,2.220596 h -7.000895 z"
     inkscape:connector-curvature="0"
     sodipodi:nodetypes="scscscscs" />
  <path
     id="path17584-7-0-6-9"
     style="opacity:1;fill:#000000;fill-opacity:1;stroke:#feeb00;stroke-width:1;stroke-miterlimit:10;stroke-dasharray:none;stroke-dashoffset:4.57999992;stroke-opacity:1"
     d="m 75.687123,97.536834 c -1.807087,0 -2.560785,1.818509 -2.537785,3.130196 -0.02305,1.31167 0.730698,3.13018 2.537785,3.13018 h 11.165691 11.165691 c 1.807087,0 2.560835,-1.81851 2.537785,-3.13018 0.023,-1.31169 -0.730698,-3.130196 -2.537785,-3.130196 H 86.852814 Z"
     inkscape:connector-curvature="0"
     sodipodi:nodetypes="scscscscs" />
  <path
     id="path17584-7-0-3-5"
     style="opacity:1;fill:#000000;fill-opacity:1;stroke:#feeb00;stroke-width:0.99999994;stroke-miterlimit:10;stroke-dasharray:none;stroke-dashoffset:4.57999992;stroke-opacity:1"
     d="m 79.851919,108.2384 c -1.133047,0 -1.605642,-1.29007 -1.591194,-2.22059 -0.01445,-0.93053 0.458147,-2.2206 1.591194,-2.2206 h 7.000895 7.000895 c 1.133047,0 1.605644,1.29007 1.591194,2.2206 0.01445,0.93052 -0.458147,2.22059 -1.591194,2.22059 h -7.000895 z"
     inkscape:connector-curvature="0"
     sodipodi:nodetypes="scscscscs" />
</svg>
