<?xml version="1.0" encoding="UTF-8"?>
<svg version="1.0" viewBox="0 0 208.86 244.66" xmlns="http://www.w3.org/2000/svg" xmlns:cc="http://creativecommons.org/ns#" xmlns:dc="http://purl.org/dc/elements/1.1/" xmlns:rdf="http://www.w3.org/1999/02/22-rdf-syntax-ns#">
<metadata>
<rdf:RDF>
<cc:Work rdf:about="">
<dc:format>image/svg+xml</dc:format>
<dc:type rdf:resource="http://purl.org/dc/dcmitype/StillImage"/>
<dc:title/>
</cc:Work>
</rdf:RDF>
</metadata>
<path d="m1 1 3.7611 158c2.6865 112.86 196.65 112.86 199.34 0l3.7611-158z" fill="#1b63c6" fill-rule="evenodd" stroke="#000" stroke-width="2"/>
<path d="m3.7967 118.49h201.27l2.7967-117.49h-206.86z" fill="#cc2918" stroke="#000" stroke-dashoffset="4.58"/>
<g transform="translate(-2)" stroke="#000" stroke-dashoffset="4.58">
<path d="m175.12 66.66v39.25c0 3.9687 0.64987 8.82 1.625 12.58h-12.25c0.97513-3.7598 1.625-8.611 1.625-12.58v-39.25h4.5z" fill="#009645"/>
<path d="m173.06 74.468c1.0198-0.12508 2.0606-1.7236 2.0606-1.7236s1.0246 1.1515 1.7713 1.0285c0.78277-0.12891 1.2062-1.3767 1.2062-1.3767s0.90994 1.2317 1.7624 1.174c0.7529-0.05092 1.508-1.2678 1.508-1.2678s0.83841 1.4145 1.7053 1.2883c0.87369-0.12718 1.2116-1.7302 1.2116-1.7302s1.4088 1.7189 2.2981 1.5026c0.75634-0.184 1.3366-1.3454 1.3366-1.3454s1.4691 0.84752 2.199 0.37316c0.76583-0.4977 0.75-2.1775 0.75-2.1775s1.5317 0.17365 2.1668-0.5625c0.52532-0.60888 0.20895-2.1365 0.20895-2.1365s1.2249-0.04698 1.5516-1.1134c0.27473-0.89658-0.7883-1.8767-0.7883-1.8767s1.588-0.78884 1.8552-1.6901c0.23983-0.80888-0.52941-2.1106-0.52941-2.1106s1.5046-0.04479 1.8445-0.86336c0.29852-0.71888-0.4303-1.8767-0.4303-1.8767s1.2632-0.53107 1.699-1.2589c0.44309-0.74 0.33394-2.1883 0.33394-2.1883s1.5982-0.17176 1.9436-0.95711c0.34486-0.78395-0.6178-2.0481-0.6178-2.0481s1.5231-0.27458 1.6731-1.1178c0.12045-0.67719-0.78922-1.5339-0.78922-1.5339s1.0895-1.2043 1.1222-2.0642c0.0363-0.95538-1.1222-2.3552-1.1222-2.3552s1.6658-0.74261 1.8783-1.5468c0.28443-1.0768-1.6131-2.0771-1.6131-2.0771s1.275-1.1098 1.2595-1.9224c-0.0187-0.98098-1.7015-1.7015-1.7015-1.7015s1.2396-1.5847 0.79549-2.5191c-0.30796-0.64801-1.7678-1.1049-1.7678-1.1049s1.2204-1.6078 0.88389-2.3865c-0.32997-0.76352-2.1655-0.92808-2.1655-0.92808s0.42202-2.044-0.22098-2.6075c-0.91285-0.79988-2.8726 0-2.8726 0s-0.58649-1.6824-1.2816-2.2097c-0.68234-0.5176-2.5633 0.17678-2.5633 0.17678s-0.38334-1.9469-1.149-2.3865c-0.64084-0.36788-2.2097 0.17678-2.2097 0.17678s-0.54615-1.8807-1.3258-2.2981c-0.80688-0.43199-2.74 0.17678-2.74 0.17678s-0.55786-2.0954-1.4142-2.5633c-0.77739-0.42472-2.6516 0.17678-2.6516 0.17678s-1.2766-1.913-2.2981-2.1213c-0.85832-0.17506-2.4749 0.88388-2.4749 0.88388s-1.1793-1.4827-2.0329-1.591c-0.97593-0.12375-2.7046 1.1812-2.7046 1.1812s-1.7286-1.305-2.7046-1.1812c-0.85366 0.10825-2.0329 1.591-2.0329 1.591s-1.6166-1.0589-2.4749-0.88388c-1.0215 0.20834-2.2981 2.1213-2.2981 2.1213s-1.8743-0.6015-2.6516-0.17678c-0.85636 0.46787-1.4142 2.5633-1.4142 2.5633s-1.9332-0.60876-2.74-0.17678c-0.77967 0.41742-1.3258 2.2981-1.3258 2.2981s-1.5689-0.54465-2.2097-0.17678c-0.76571 0.43956-1.149 2.3865-1.149 2.3865s-1.8809-0.69438-2.5633-0.17678c-0.69514 0.52731-0.90533 2.3758-0.90533 2.3758s-1.7111-0.62218-2.6239 0.1777c-0.643 0.56343-0.7134 2.2195-0.7134 2.2195s-1.9681 0.20875-2.2981 0.97227c-0.33653 0.7787 0.88389 2.3865 0.88389 2.3865s-1.6312 0.52784-1.9392 1.1759c-0.44407 0.93441 0.96691 2.4481 0.96691 2.4481s-1.7535 0.80732-1.7722 1.7883c-0.0155 0.81262 1.3303 1.8356 1.3303 1.8356s-1.7861 1.2311-1.5017 2.3079c0.21241 0.80419 1.7668 1.316 1.7668 1.316s-1.6273 1.4311-1.591 2.3865c0.0327 0.85987 1.2472 1.7829 1.2472 1.7829s-1.1909 1.0754-1.0705 1.7526c0.14998 0.84322 1.9856 1.4303 1.9856 1.4303s-1.1814 1.2329-0.83655 2.0168c0.34547 0.78534 2.0061 0.95711 2.0061 0.95711s-0.3279 1.5733 0.11519 2.3133c0.43579 0.72781 1.699 0.94638 1.699 0.94638s-0.76007 1.2516-0.46155 1.9704c0.33991 0.81856 1.9383 0.95711 1.9383 0.95711s-0.67549 1.2392-0.43566 2.0481c0.26722 0.90126 1.5115 1.3776 1.5115 1.3776s-0.50053 1.2613-0.2258 2.1579c0.32676 1.0664 2.4266 0.70711 2.4266 0.70711s-0.31637 1.4964 0.20895 2.1052c0.63513 0.73615 2.3543 0.28125 2.3543 0.28125s-0.23458 1.7736 0.53125 2.2713c0.72993 0.47436 1.8552-0.59191 1.8552-0.59191s0.39271 1.8489 1.149 2.0329c0.88931 0.21634 2.0793-0.9401 2.0793-0.9401s0.49411 1.6968 1.3678 1.824c0.86686 0.12618 1.799-1.4133 1.799-1.4133s0.63006 1.1856 1.383 1.2365c0.85247 0.05765 1.8562-1.1428 1.8562-1.1428s0.45467 1.279 1.2374 1.4079c0.74675 0.12298 1.9276-0.86466 1.9276-0.86466s1.0743 1.2699 2.0941 1.395c0.91535 0.11227 2.2184-1.2374 2.2184-1.2374s1.524 0.95196 2.4394 0.83969z" fill="#009645"/>
<path d="m198.79 54.537c-1.08 0.12122-1.5787-0.41158-1.8562-1.1932-1.2852 0.51762-1.8288 0.15006-2.2097-0.39775-1.6575 0.64832-2.1442 0.24206-3.1378-0.92808-0.71793 1.1132-1.7775 1.7481-2.811 1.9209" fill="none"/>
<path d="m145.29 60.974c0.69735 0.05441 1.9187 0.08661 2.0336-1.2435 0.89314 0.2913 2.143 0.11977 2.5859-0.83594 1.0682 0.12214 1.8029-0.23624 2.2812-1.3594 0.97413 0.70351 1.782 1.116 2.9688 0.84375" fill="none"/>
<path d="m152.88 45.222c-1.0263 1.685-0.16537 4.0827 2.25 3.75-0.46958 2.1623 0.0105 4.3888 3.8125 3.875 1.5191 1.5724 3.4073 0.11528 3.9527-0.99556 1.8505 0.91233 3.4518 0.24916 4.2973-0.44194" fill="none"/>
<path d="m179.43 63.029c-0.65737 1.2353-3.4815 0.98009-5.1265-0.53033-0.45176 0.84489-1.3581 2.4318-3.6768 2.1213-2.0385 1.3144-3.5456 0.75325-4.4549-0.88388-1.026 0.97394-1.742 0.92205-3.0936-0.13996-2.6473 0.59331-2.4869-1.9123-2.3423-2.8726" fill="none"/>
<path d="m157.06 32.129c-0.15436 1.131 0.50455 1.8602 1.4375 2.5938-1.1328 1.744-0.0118 2.5947 1.0625 2.875-0.2475 1.9977 1.0428 2.1792 2.4375 2.125 0.34215 0.92356 1.6564 1.8823 3.1875 0.9375 0.45313 1.0777 1.5608 2.3361 3.75 0.9375 0.98729 0.70616 2.1022 0.53866 3-0.75 0.9825 0.76373 2.0798 1.2007 3.375 0 0.87122 0.33443 3.3211 0.40601 3.5312-1.5625 1.0173 0.27974 3.2036-0.23828 2.5231-2.4223 1.4876-0.517 2.4772-1.8637 1.9688-3.3438" fill="none"/>
<path d="m174.88 52.561c1.0439 1.6742 5.0311 1.9829 5.8196-0.32428 1.7464 1.3914 5.4276 0.94691 4.8658-2.6803 2.4239-0.73433 1.744-3.0192 0.88739-3.9784 1.6468-1.2429 1.7742-2.9715 1.5368-4.0374" fill="none"/>
</g>
<g stroke="#000" stroke-dashoffset="4.58">
<path d="m35.735 66.66v39.25c0 3.9687-0.64987 8.82-1.625 12.58h12.25c-0.97513-3.7598-1.625-8.611-1.625-12.58v-39.25h-4.5z" fill="#009645"/>
<path d="m38.15 76.059c-1.0198-0.12508-1.8838-1.7236-1.8838-1.7236s-1.3594 0.98764-2.1061 0.86466c-0.78277-0.12891-1.5343-1.3454-1.5343-1.3454s-0.77736 0.43617-1.6298 0.37852c-0.7529-0.05092-1.4638-1.0026-1.4638-1.0026s-0.8826 1.1493-1.7495 1.0231c-0.87369-0.12718-1.4325-1.3325-1.4325-1.3325s-1.232 0.92345-2.1213 0.70711c-0.75634-0.184-1.2924-1.6106-1.2924-1.6106s-1.4691 0.84752-2.199 0.37316c-0.76583-0.4977-0.75-2.1775-0.75-2.1775s-1.5317 0.17365-2.1668-0.5625c-0.52532-0.60888-0.20895-2.1365-0.20895-2.1365s-1.2249-0.04698-1.5516-1.1134c-0.27473-0.89658 0.7883-1.8767 0.7883-1.8767s-1.588-0.78884-1.8552-1.6901c-0.23983-0.80888 0.52941-2.1106 0.52941-2.1106s-1.5046-0.04479-1.8445-0.86336c-0.29852-0.71888 0.4303-1.8767 0.4303-1.8767s-1.2632-0.53107-1.699-1.2589c-0.44309-0.74-0.33394-2.1883-0.33394-2.1883s-1.5982-0.17176-1.9436-0.95711c-0.34486-0.78395 0.6178-2.0481 0.6178-2.0481s-1.5231-0.27458-1.6731-1.1178c-0.12045-0.67719 0.83341-1.7769 0.83341-1.7769s-1.1337-0.96124-1.1664-1.8211c-0.0363-0.95538 1.1222-2.3552 1.1222-2.3552s-1.6658-0.74261-1.8783-1.5468c-0.28443-1.0768 1.6131-2.0771 1.6131-2.0771s-1.275-1.1098-1.2595-1.9224c0.0187-0.98098 1.7015-1.7015 1.7015-1.7015s-1.2396-1.5847-0.79549-2.5191c0.30796-0.64801 1.7678-1.1049 1.7678-1.1049s-1.2204-1.6078-0.88389-2.3865c0.32997-0.76352 2.1655-0.92808 2.1655-0.92808s-0.42202-2.044 0.22098-2.6075c0.91285-0.79988 2.5191-0.70711 2.5191-0.70711s0.58649-1.6824 1.2816-2.2097c0.68234-0.5176 2.3445-0.13572 2.3445-0.13572s0.60209-1.6344 1.3678-2.074c0.64084-0.36788 2.116-0.10447 2.116-0.10447s0.46312-1.7762 1.2428-2.1936c0.80688-0.43199 2.74 0.17678 2.74 0.17678s0.55786-2.0954 1.4142-2.5633c0.77739-0.42472 3.182 1.0607 3.182 1.0607s1.2766-1.913 2.2981-2.1213c0.85832-0.17506 2.4749 0.88388 2.4749 0.88388s1.1793-1.4827 2.0329-1.591c0.97593-0.12375 2.7046 1.1812 2.7046 1.1812s1.7286-1.305 2.7046-1.1812c0.85366 0.10825 2.0329 1.591 2.0329 1.591s1.6166-1.0589 2.4749-0.88388c1.0215 0.20834 2.2981 1.6838 2.2981 1.6838s2.1868-0.789 2.9642-0.36428c0.85636 0.46787 1.4142 2.5633 1.4142 2.5633s1.9332-0.60876 2.74-0.17678c0.77967 0.41742 1.3258 2.5481 1.3258 2.5481s1.5689-0.54465 2.2097-0.17678c0.76571 0.43956 0.96155 2.2615 0.96155 2.2615s1.2559-0.19438 1.9383 0.32322c0.69514 0.52731 0.90533 2.3758 0.90533 2.3758s1.7111-0.62218 2.6239 0.1777c0.643 0.56343 0.7134 2.2195 0.7134 2.2195s1.9681 0.20875 2.2981 0.97227c0.33653 0.7787-0.88389 2.3865-0.88389 2.3865s1.6312 0.52784 1.9392 1.1759c0.44407 0.93441-0.96691 2.4481-0.96691 2.4481s1.7535 0.80732 1.7722 1.7883c0.0155 0.81262-0.33026 1.7106-0.33026 1.7106s1.7861 1.2311 1.5017 2.3079c-0.21241 0.80419-1.7668 1.316-1.7668 1.316s1.6273 1.4311 1.591 2.3865c-0.0327 0.85987-1.2472 1.7829-1.2472 1.7829s1.1284 1.5129 1.008 2.1901c-0.14998 0.84322-1.9856 1.4303-1.9856 1.4303s1.1814 1.2329 0.83655 2.0168c-0.34547 0.78534-2.0061 0.95711-2.0061 0.95711s0.3279 1.5733-0.11519 2.3133c-0.43579 0.72781-1.699 0.94638-1.699 0.94638s1.1351 1.4391 0.83655 2.1579c-0.33991 0.81856-1.9383 0.95711-1.9383 0.95711s0.67549 1.2392 0.43566 2.0481c-0.26722 0.90126-2.2615 1.0651-2.2615 1.0651s0.1099 0.77697-0.16482 1.6736c-0.32676 1.0664-2.0985 1.004-2.0985 1.004s0.31637 1.4964-0.20895 2.1052c-0.63513 0.73615-1.9793 0.59375-1.9793 0.59375s-0.14042 1.4611-0.90625 1.9588c-0.72993 0.47436-1.7927-0.27941-1.7927-0.27941s-0.45521 1.5364-1.2116 1.7204c-0.88931 0.21634-1.9543-0.6276-1.9543-0.6276s-0.61911 2.0472-1.4928 2.1744c-0.86686 0.12618-1.549-1.1008-1.549-1.1008s-0.92425 1.1825-1.6772 1.2334c-0.85247 0.05765-1.9445-0.65663-1.9445-0.65663s-0.45467 1.279-1.2374 1.4079c-0.74675 0.12298-1.9276-0.86466-1.9276-0.86466s-0.8533 1.1373-1.8731 1.2624c-0.91535 0.11227-2.0417-1.1932-2.0417-1.1932s-1.4357 1.1729-2.351 1.0607z" fill="#009645"/>
<path d="m15.228 60.707c1.08 0.12122 1.5787-0.41158 1.8562-1.1932 1.2852 0.51762 2.4917-0.1814 2.8726-0.7292 1.6575 0.64832 2.3872 0.44094 3.3809-0.7292 0.71793 1.1132 1.7333 2.0574 2.8773 1.9872" fill="none"/>
<path d="m62.402 67.28c-0.82488-0.15885-1.8675-0.18001-1.9824-1.5102-0.89314 0.2913-2.143 0.11977-2.5859-0.83594-1.0682 0.12214-1.8029-0.23624-2.2812-1.3594-0.97413 0.70351-1.782 1.116-2.9688 0.84375" fill="none"/>
<path d="m20.915 43.278c-1.0263 1.685-0.16537 4.0827 2.25 3.75-0.46958 2.1623 0.0105 4.3888 3.8125 3.875 1.5191 1.5724 3.4073 0.11528 3.9527-0.99556 1.8505 0.91233 3.4518 0.24916 4.2973-0.44194" fill="none"/>
<path d="m44.69 63.736c-0.31032 2.0546-3.0192 2.5145-4.4549 0.88388-2.4758 1.1142-3.5938-0.48963-3.8978-1.6352-1.645 1.5104-4.2482 1.2795-4.9056 0.04419" fill="none"/>
<path d="m27.891 30.953c-0.02142 1.1413 0.71802 1.7887 1.7301 2.4084-0.92169 1.8642 0.29083 2.5783 1.3905 2.7315-0.01286 2.013 1.2898 2.0427 2.6687 1.8263 0.44751 0.87736 1.8646 1.6763 3.2751 0.55942 0.5757 1.0175 1.8226 2.1382 3.8337 0.49383 1.0629 0.58622 2.1506 0.28986 2.8921-1.0947 1.0649 0.64395 2.2057 0.95 3.352-0.39355 0.90427 0.23056 3.3458 0.01597 3.325-1.9636 1.043 0.15921 3.1539-0.61021 2.2235-2.7 1.4172-0.68693 2.243-2.1399 1.5654-3.5505" fill="none"/>
<path d="m44.412 51.121c0.68348 1.8508 4.5257 2.96 5.7648 0.86011 1.4287 1.716 5.1237 2.0257 5.3075-1.6402 2.5223-0.22863 2.3189-2.6038 1.6741-3.7165 1.8642-0.88398 2.3388-2.551 2.3221-3.6428 1.7003 0.91762 3.1935 1.0885 4.2698-1.0096" fill="none"/>
</g>
<path d="m1 1 3.7611 158c2.6865 112.86 196.65 112.86 199.34 0l3.7611-158z" fill="none" stroke="#000" stroke-width="2"/>
<g stroke="#000" stroke-dashoffset="4.58">
<path d="m122.53 131.88c1.6665-3.0961 4.5939-6.5941 7.8428-8.191 1.5543 1.4412 0.5474 6.2923-0.48024 8.27z" fill="#fff"/>
<path d="m64.082 157.95c-0.7051 2.6119-2.1941 4.5379-3.8316 6.334-4.0998-1.8912-6.7601-4.7672-8.625-8.1875 2.9224-1.7645 5.7102-3.17 8.457-4.4662z" fill="#fff"/>
<path d="m56.215 202.23c2.4213 2.0477 3.6622 3.9903 4.2426 5.8778-2.9551 3.4157-6.4131 4.8558-9.9437 6.0104-0.80026-3.2998-1.3432-6.5997-1.8562-9.8995z" fill="#fff"/>
<path d="m127.99 130.82c-5.6781-0.0104-12.371-0.39816-13.965 1.149-4.3676 4.2394-9.7694 5.6584-14.938 7.6898-3.661 1.439-9.7118 4.1267-10.165 8.3969-0.14385 1.3564 0.14778 3.2934 2.5945 3.348 2.7101 0.0605 7.8998-0.41648 8.2773 3.4579-1.7654 0.57157-3.99 0.0397-6.2756 0.35355 0.09571 0.76669-0.57443 2.3374 3.2268 3.706 1.1638 0.41901 3.0481 0.0131 3.9238-0.64905 1.9828-1.4992 3.4394-1.7711 5.614-1.3972 4.1065 0.70609 8.2375 0.39684 13.003 0.11289 0.27766 3.2008 0.0219 6.5492-4.5547 9.0107-3.8914 2.093-7.8866 3.9962-9.3692 10.341-1.4796 0.50107-4.6239 3.9029-6.9827 5.4801-1.6554-2.9113-3.7658-5.4778-4.5078-9.1924-0.59862-2.9968-2.031-4.9613-3.8007-6.4523-5.6363-4.7486-14.67-10.025-16.971-14.142-0.72923-1.305-1.8388-2.3556-3.8891-1.6794-2.5604 0.84454-5.9438 0.28983-8.9272 0.53033-2.6728 0.21546 0.28484 5.4637 3.8007 7.0711 0.98801-1.721 1.7807-2.9611 3.182-3.0936 1.6858-0.15943 1.5696 1.237 1.4142 2.5633-0.27293 2.329 0.23526 4.8028 3.182 4.331 3.628-0.58083 7.4933 2.0766 11.49 8.2201 1.6699 2.5666 0.97469 9.8737 0.70711 16.352-2.8927-1.8054-5.6451-5.1035-7.955-7.8666-1.7695-2.1167-7.2458-5.2072-10.695-1.3258-4.9026 5.5169-13.105 12.102-13.789 17.324-0.33169 2.5322-0.0091 4.6358-3.2704 8.3085-1.541 1.7354 0.29895 2.8275 1.591 2.3865l6.2756-2.9168c-1.4841-1.4175-1.3733-4.0405 0.7955-4.4194 1.4574-0.25461 3.5662-0.66707 1.7678-2.8284-2.058-2.4733 4.2974-7.4999 9.0156-11.932 1.571-1.4759 2.2118-0.38652 2.74 0.44194 3.2908 5.1614 5.1592 10.62 7.4246 15.91 2.5583 5.9734 5.013 14.981 8.8388 17.501-0.43234 5.3243 0.60204 10.899 9.7227 17.854 10.272-1.6312 21.267-6.4675 32.704-13.258-1.4765-4.2924-2.9368-8.6025-3.3588-14.054 1.2923 1.3935 2.4928 2.5425 3.5355 3.2704-0.49039-3.8271-1.2066-7.4522-0.17678-12.64 1.0059 1.4755 1.9325 2.9686 3.4472 4.331 0.25848-4.8881 0.28649-9.3432-0.33146-13.766 1.5026 1.7794 2.6634 3.1408 4.2426 4.6846 0.67079-4.3664 0.0346-7.6913 0.15467-12.75 1.3642 1.6581 2.7322 3.2821 4.1543 4.4194 0.0369-4.2313-1.0195-7.9435-1.3258-12.374 1.4917 1.2908 2.8421 2.7871 4.9498 3.182-0.61749-3.9197-1.4836-6.1443-1.8517-10.507 0.94281 1.1516 2.3231 2.018 3.2659 2.8177-0.34743-5.146-1.6844-7.4514-2.0329-11.137 1.102 0.5237 2.1997 1.0818 3.3588 1.149-0.50773-2.3072-1.5385-4.5562-2.5633-6.8059 1.023 0.26065 2.0201 0.55374 3.2704 0.53033-0.89235-2.1192-2.1129-4.1563-3.7123-6.0988 1.0017-0.0742 2.0035-0.16691 3.0052-0.53033-0.7631-1.5217-2.039-2.7283-2.9419-3.6866 0.60509-0.23598 1.4544-0.59081 1.8594-0.98201-1.7343-4.1121-5.9494-8.182-10.88-8.8432 1.3536-1.4512 3.7682-3.8813 4.3253-5.9649-5.4622-0.20458-8.736 2.321-11.632 5.0694z" fill="#fff"/>
<path d="m105.36 176.34c1.357-0.471 2.8079-0.61369 4.2817-0.67581" fill="none"/>
<path d="m119.28 156.98c5.3493-0.28164 8.748-3.3432 9.4047-8.2299" fill="none"/>
<path d="m84.057 186.32c6.3568 4.0458 10.557 8.9332 12.242 14.938" fill="none"/>
<path d="m98.376 181.82c-3.2138 2.1588-6.383 4.4552-7.4491 10.101" fill="none"/>
<path d="m86.797 216.91c2.1456 1.4279 4.914 1.6547 7.6089 2.0352" fill="none"/>
<path d="m118.48 139.43c-0.97871-1.1523-2.194-1.8862-3.8757-2.116-1.3894-0.18977-1.8092 2.6486-0.49954 2.9115 1.406 0.28221 2.559 6e-3 4.3752-0.7955z" fill="#fff"/>
<path d="m114.61 137.16c0.17025-1.1748 0.55936-1.4941 3.2656-1.5156 1.6501-0.0131 2.8795 0.34437 3.4062 1.3281" fill="none"/>
<path d="m93.438 146.53c1.81-0.39981 2.6907-0.60893 2.4688-2.0938" fill="none"/>
<path d="m118.48 139.43c-0.97871-1.1523-2.194-1.8862-3.8757-2.116-1.3894-0.18977-1.8092 2.6486-0.49954 2.9115 1.406 0.28221 2.559 6e-3 4.3752-0.7955z"/>
</g>
<g transform="translate(.5)" stroke="#000" stroke-dashoffset="4.58">
<path d="m55.265 118.49 14.505-27.313 5.0855 0.57138 0.5625-7.955 14.319-16.794 16.44-6.0104 10.783 9.3692 4.773-0.17678 8.6621 11.49 1.2922 8.5506 9.875 3.8125 10.75 24.455z" fill="#fff"/>
<path d="m89.737 66.999 5.3254 1.9887-2.2318 14.098-3.9775 2.8284-0.53033 13.877 3.182 4.331-3.3588 14.367" fill="none"/>
<path d="m106.18 60.989-11.115 7.9991 6.7838 6.8501 4.2426 13.258 7.7782 4.331 2.3865 8.4853 9.8995 6.4524 2.5633 10.125" fill="none"/>
<path d="m113.87 93.428 8.0883 4.4217 3.0137 3.9983 2.5 0.375" fill="none"/>
<path d="m113.44 77.222 3.75 9.875 7.125 3.125" fill="none"/>
<path d="m129.25 97.097 6.375 4.625 2.4375 10.375 6.375 6.3923" fill="none"/>
<path d="m83.641 97.94-5.932 6.4741-6.25 2.4375-2.4375 5.375" fill="none"/>
<path d="m92.83 83.086 4.668-3.2814" fill="none"/>
<path d="m106.09 89.096 2.3958 8.1729-7.8594 7.1406" fill="none"/>
<path d="m74.855 91.748 6.3555 0.7176"/>
</g>
</svg>
