<?xml version="1.0" encoding="UTF-8"?>
<!DOCTYPE svg  PUBLIC '-//W3C//DTD SVG 1.1//EN'  'http://www.w3.org/Graphics/SVG/1.1/DTD/svg11.dtd'>
<svg version="1.1" viewBox="0 0 267 300" xmlns="http://www.w3.org/2000/svg">
<g transform="scale(1.25)">
<g transform="translate(0 240) scale(.04 -.04)" fill="#fefefe">
<path d="m2710 3e3v-130h35c19 0 35 5 35 10 0 6 9 10 20 10s20 5 20 10c0 6 8 10 18 10 23 0 72 50 72 73 0 9 5 17 10 17 6 0 10 9 10 20s5 20 10 20c6 0 10 9 10 20s5 20 10 20c6 0 10 11 10 25v25h-130-130v-130z"/>
<path d="m4610 3015c0-70-4-115-10-115s-10-27-10-60-4-60-10-60c-5 0-10-18-10-40s-4-40-10-40c-5 0-10-13-10-30 0-16-4-30-10-30-5 0-10-13-10-30 0-16-4-30-10-30-5 0-10-13-10-30 0-16-4-30-10-30-5 0-10-13-10-30 0-16-4-30-10-30-5 0-10-13-10-30 0-16-4-30-10-30-5 0-10-9-10-20s-4-20-10-20c-5 0-10-9-10-20s-4-20-10-20c-5 0-10-9-10-20s-4-20-10-20c-5 0-10-9-10-20s-4-20-10-20c-5 0-10-9-10-20s-4-20-10-20c-5 0-10-9-10-20s-4-20-10-20c-5 0-10-7-10-16 0-8-13-27-30-41-16-13-30-31-30-39s-18-30-40-50-40-42-40-50c0-7-22-34-50-60-27-26-50-52-50-59 0-15-140-155-155-155-7 0-33-22-59-50-26-27-53-50-60-50-8 0-30-18-50-40s-43-40-51-40-20-9-27-20-21-20-30-20c-10 0-18-4-18-10 0-5-9-10-20-10s-20-4-20-10c0-5-9-10-20-10s-20-4-20-10c0-5-9-10-20-10s-20-4-20-10c0-5-9-10-20-10s-20-4-20-10c0-5-9-10-20-10s-20-4-20-10c0-5-9-10-20-10s-20-4-20-10c0-5-13-10-30-10-16 0-30-4-30-10 0-5-13-10-30-10-16 0-30-4-30-10 0-5-13-10-30-10-16 0-30-4-30-10 0-5-13-10-30-10-16 0-30-4-30-10 0-5-13-10-30-10-16 0-30-4-30-10 0-5-18-10-40-10s-40-4-40-10c0-5-22-10-50-10-27 0-50-4-50-10s-42-10-105-10h-105v-540-540h35c19 0 35 5 35 10 0 6 43 10 110 10s110 4 110 10 30 10 70 10 70 4 70 10 23 10 50 10c28 0 50 5 50 10 0 6 14 10 30 10 17 0 30 5 30 10 0 6 18 10 40 10s40 5 40 10c0 6 14 10 30 10 17 0 30 5 30 10 0 6 14 10 30 10 17 0 30 5 30 10 0 6 14 10 30 10 17 0 30 5 30 10 0 6 14 10 30 10 17 0 30 5 30 10 0 6 9 10 20 10s20 5 20 10c0 6 9 10 20 10s20 5 20 10c0 6 14 10 30 10 17 0 30 5 30 10 0 6 9 10 20 10s20 5 20 10c0 6 9 10 20 10s20 5 20 10c0 6 9 10 20 10s20 5 20 10c0 6 9 10 20 10s25 9 32 20 21 20 30 20c10 0 18 5 18 10 0 6 9 10 20 10s25 9 32 20 21 20 30 20c10 0 23 9 30 20s20 20 30 20c9 0 28 13 41 30 14 16 32 30 40 30 9 0 27 14 40 30 14 17 32 30 39 30 17 0 348 331 348 348 0 7 14 25 30 39 17 13 30 31 30 39s18 30 40 50 40 44 40 53 9 22 20 29 20 21 20 32 5 20 10 20c6 0 10 8 10 18 0 9 9 23 20 30s20 21 20 32 5 20 10 20c6 0 10 9 10 20s5 20 10 20c6 0 10 9 10 20s5 20 10 20c6 0 10 9 10 20s5 20 10 20c6 0 10 9 10 20s5 20 10 20c6 0 10 9 10 20s5 20 10 20c6 0 10 9 10 20s5 20 10 20c6 0 10 9 10 20s5 20 10 20c6 0 10 14 10 30 0 17 5 30 10 30 6 0 10 9 10 20s5 20 10 20c6 0 10 14 10 30 0 17 5 30 10 30 6 0 10 14 10 30 0 17 5 30 10 30 6 0 10 14 10 30 0 17 5 30 10 30 6 0 10 18 10 40s5 40 10 40c6 0 10 18 10 40s5 40 10 40c6 0 10 27 10 60s4 60 10 60 10 30 10 70 4 70 10 70 10 132 10 375v375h-300-300v-115zm30-415c0-5 9-10 20-10s20-4 20-10c0-5 9-10 20-10s20-4 20-10c0-5 14-10 30-10 17 0 30-4 30-10 0-5 14-10 30-10 17 0 30-4 30-10 0-5 18-10 40-10s40 4 40 9 10 11 22 13c14 2 24 12 28 28 8 32 33 37 59 11 16-16 21-34 21-76 0-30-4-55-10-55-5 0-10-9-10-20s-4-20-10-20c-5 0-10-9-10-20s-4-20-10-20c-5 0-10-9-10-20s-4-20-10-20c-5 0-10-6-10-14 0-18-78-96-96-96-8 0-14-4-14-10 0-5-9-10-20-10s-20-4-20-10-27-10-60-10-60 4-60 10-13 10-30 10c-16 0-30 5-30 10 0 6-9 10-20 10s-20 5-20 10c0 6-13 10-30 10-16 0-30 4-30 9 0 6-15 11-32 13-25 2-34 8-36 26-2 12 1 22 7 22s11 14 11 30c0 17 5 30 10 30 6 0 10 14 10 30 0 17 5 30 10 30 6 0 10 14 10 30 0 17 5 30 10 30 6 0 10 14 10 30 0 17 5 30 10 30 6 0 10 13 10 28 0 16 3 32 7 35 10 11 63 8 63-3zm-1030-1250c11-11 20-31 20-45s5-25 10-25c6 0 10-13 10-30 0-16 5-30 10-30 6 0 10-9 10-20s5-20 10-20c6 0 10-9 10-20s5-20 10-20c6 0 10-8 10-18 0-11 16-33 36-51l35-33 25 27c33 36 58 30 62-16 3-30-3-42-39-77-23-23-48-42-55-42-8 0-14-4-14-10 0-5-18-10-40-10s-40-4-40-10c0-5-18-10-40-10s-40-4-40-10c0-5-22-10-50-10-27 0-50 5-50 10 0 6-9 10-20 10s-20 5-20 10c0 6-6 10-14 10-18 0-96 78-96 96 0 8-4 14-10 14-5 0-10 9-10 20s-4 20-10 20c-5 0-10 9-10 20s-4 20-10 20c-5 0-10 9-10 20s-4 20-10 20c-5 0-10 9-10 20s-5 20-11 20c-21 0-4 45 19 48 12 2 22 8 22 13s9 9 20 9 20 5 20 10c0 6 9 10 20 10s20 5 20 10c0 6 9 10 20 10s20 5 20 10c0 6 9 10 20 10s20 5 20 10c0 6 9 10 20 10s20 5 20 10c0 6 9 10 20 10s20 5 20 10c0 18 49 11 70-10z"/>
<path d="m3270 2995c0-8-4-15-10-15-5 0-10-9-10-20s-4-20-10-20c-5 0-10-9-10-20s-4-20-10-20c-5 0-10-9-10-20 0-10-8-23-17-29-15-8 32-60 319-348l338-338 50 50c27 27 50 57 50 67s5 18 10 18c6 0 10 9 10 20s5 20 10 20c6 0 10 9 10 20s5 20 10 20c6 0 10 9 10 20s5 20 10 20c6 0 10 9 10 20s5 20 10 20c6 0 10 9 10 20s5 20 10 20c6 0 10 9 10 20s5 20 10 20c6 0 10 9 10 20s5 20 10 20c6 0 10 14 10 30 0 17 5 30 10 30 6 0 10 18 10 40s5 40 10 40c6 0 10 18 10 40s5 40 10 40c6 0 10 23 10 50 0 28 5 50 10 50 6 0 10 25 10 55v55h-460c-402 0-460-2-460-15z"/>
<path d="m2946 2625c-3-8-15-15-26-15s-20-4-20-10c0-5-9-10-20-10s-20-4-20-10c0-5-7-10-15-10-13 0-15-60-15-480v-480h45c25 0 45 5 45 10 0 6 23 10 50 10 28 0 50 5 50 10 0 6 18 10 40 10s40 5 40 10c0 6 18 10 40 10s40 5 40 10c0 6 14 10 30 10 17 0 30 5 30 10 0 6 9 10 20 10s20 5 20 10c0 6 9 10 20 10s20 5 20 10c0 6 9 10 20 10s20 5 20 10c0 6 9 10 20 10s20 5 20 10c0 6 9 10 20 10s20 5 20 10c0 6 9 10 20 10s20 5 20 10c0 6 9 10 20 10s20 5 20 10c0 6 8 10 18 10s40 23 67 50l50 50-345 345c-190 190-348 345-351 345-4 0-9-7-13-15z"/>
<path d="m2 1248-2-1248 1208 2c664 1 1172 4 1130 5-43 2-78 8-78 13 0 6-27 10-60 10s-60 4-60 10-18 10-40 10-40 5-40 10c0 6-18 10-40 10s-40 5-40 10c0 6-18 10-40 10s-40 5-40 10c0 6-13 10-30 10-16 0-30 5-30 10 0 6-13 10-30 10-16 0-30 5-30 10 0 6-13 10-30 10-16 0-30 5-30 10 0 6-9 10-20 10s-20 5-20 10c0 6-13 10-30 10-16 0-30 5-30 10 0 6-9 10-20 10s-20 5-20 10c0 6-9 10-20 10s-20 5-20 10c0 6-9 10-20 10s-20 5-20 10c0 6-9 10-20 10s-20 5-20 10c0 6-9 10-20 10s-20 5-20 10c0 6-9 10-20 10s-20 5-20 10c0 6-8 10-18 10-9 0-23 9-30 20s-21 20-32 20-20 5-20 10c0 6-8 10-18 10-9 0-23 9-30 20s-20 20-30 20c-9 0-23 9-30 20s-19 20-28 20c-8 0-27 14-41 30-13 17-31 30-39 30s-30 18-50 40-42 40-48 40c-15 0-356 341-356 356 0 6-18 28-40 48s-40 43-40 51-9 20-20 27-20 20-20 30c0 9-13 28-30 41-16 14-30 33-30 41 0 9-4 16-10 16-5 0-10 9-10 20s-9 25-20 32-20 21-20 30c0 10-4 18-10 18-5 0-10 9-10 20s-9 25-20 32-20 21-20 30c0 10-4 18-10 18-5 0-10 9-10 20s-4 20-10 20c-5 0-10 9-10 20s-4 20-10 20c-5 0-10 9-10 20s-4 20-10 20c-5 0-10 14-10 30 0 17-4 30-10 30-5 0-10 9-10 20s-4 20-10 20c-5 0-10 9-10 20s-4 20-10 20c-5 0-10 14-10 30 0 17-4 30-10 30-5 0-10 14-10 30 0 17-4 30-10 30-5 0-10 14-10 30 0 17-4 30-10 30-5 0-10 14-10 30 0 17-4 30-10 30-5 0-10 18-10 40s-4 40-10 40c-5 0-10 18-10 40s-4 40-10 40c-5 0-10 23-10 50 0 28-4 50-10 50s-10 30-10 70c0 39-4 70-10 70-5 0-11 39-13 88-1 48-4-474-5-1160z"/>
<path d="m5330 2355c0-43-4-75-10-75s-10-30-10-70-4-70-10-70c-5 0-10-18-10-40s-4-40-10-40c-5 0-10-18-10-40s-4-40-10-40c-5 0-10-18-10-40s-4-40-10-40c-5 0-10-13-10-30 0-16-4-30-10-30-5 0-10-13-10-30 0-16-4-30-10-30-5 0-10-13-10-30 0-16-4-30-10-30-5 0-10-9-10-20s-4-20-10-20c-5 0-10-13-10-30 0-16-4-30-10-30-5 0-10-9-10-20s-4-20-10-20c-5 0-10-9-10-20s-4-20-10-20c-5 0-10-9-10-20s-4-20-10-20c-5 0-10-9-10-20s-4-20-10-20c-5 0-10-9-10-20s-4-20-10-20c-5 0-10-9-10-20s-4-20-10-20c-5 0-10-9-10-20s-4-20-10-20c-5 0-10-8-10-18 0-9-9-23-20-30s-20-20-20-30c0-9-9-23-20-30s-20-20-20-30c0-9-9-23-20-30s-20-20-20-30c0-9-9-23-20-30s-20-19-20-27-18-31-40-51-40-42-40-48c0-15-381-396-396-396-6 0-28-18-48-40s-43-40-51-40-20-9-27-20-21-20-30-20c-10 0-23-9-30-20s-21-20-30-20c-10 0-23-9-30-20s-21-20-30-20c-10 0-23-9-30-20s-21-20-30-20c-10 0-18-4-18-10 0-5-9-10-20-10s-20-4-20-10c0-5-9-10-20-10s-20-4-20-10c0-5-9-10-20-10s-20-4-20-10c0-5-9-10-20-10s-20-4-20-10c0-5-9-10-20-10s-20-4-20-10c0-5-9-10-20-10s-20-4-20-10c0-5-9-10-20-10s-20-4-20-10c0-5-13-10-30-10-16 0-30-4-30-10 0-5-9-10-20-10s-20-4-20-10c0-5-13-10-30-10-16 0-30-4-30-10 0-5-13-10-30-10-16 0-30-4-30-10 0-5-13-10-30-10-16 0-30-4-30-10 0-5-13-10-30-10-16 0-30-4-30-10 0-5-22-10-50-10-27 0-50-4-50-10 0-5-18-10-40-10s-40-4-40-10-27-10-60-10-60-4-60-10c0-5-30-11-67-13-38-2 471-4 1130-5l1197-2v1215c0 668-2 1215-5 1215s-5-34-5-75z"/>
</g>
<g transform="translate(0 240) scale(.04 -.04)" fill="#d0d0d0">
<path d="m2704 3127c-2-7-3-69-2-138l3-124 30-1c28-1 28-1 3 3l-28 4v130 129h129c126 0 130-1 134-22 5-20 5-20 4 2l-2 25-133 3c-103 2-134 0-138-11z"/>
<path d="m4604 3127c-2-7-3-62-1-123l3-109 2 118 2 117h300 300l3-367 2-368v370 370l-303 3c-244 2-303 0-308-11z"/>
<path d="m2951 3064c0-11 3-14 6-6 3 7 2 16-1 19-3 4-6-2-5-13z"/>
<path d="m2931 3024c0-11 3-14 6-6 3 7 2 16-1 19-3 4-6-2-5-13z"/>
<path d="m3263 3005c-3-9-3-19 1-22 3-4 6 1 6 10 0 16 37 17 459 17h460l8-100-1 52-1 53-463 3c-411 2-463 0-469-13z"/>
<path d="m2911 2984c0-11 3-14 6-6 3 7 2 16-1 19-3 4-6-2-5-13z"/>
<path d="m3241 2954c0-11 3-14 6-6 3 7 2 16-1 19-3 4-6-2-5-13z"/>
<path d="m3221 2914c0-11 3-14 6-6 3 7 2 16-1 19-3 4-6-2-5-13z"/>
<path d="m2828 2903c7-3 16-2 19 1 4 3-2 6-13 5-11 0-14-3-6-6z"/>
<path d="m4173 2855c0-27 2-38 4-22 2 15 2 37 0 50-2 12-4 0-4-28z"/>
<path d="m2788 2883c7-3 16-2 19 1 4 3-2 6-13 5-11 0-14-3-6-6z"/>
<path d="m3197 2871c-4-17-3-21 5-13 5 5 8 16 6 23-3 8-7 3-11-10z"/>
<path d="m4583 2835c0-33 2-45 4-27s2 45 0 60-4 0-4-33z"/>
<path d="m4153 2765c0-22 2-30 4-17 2 12 2 30 0 40-3 9-5-1-4-23z"/>
<path d="m4563 2735c0-22 2-30 4-17 2 12 2 30 0 40-3 9-5-1-4-23z"/>
<path d="m4133 2685c0-22 2-30 4-17 2 12 2 30 0 40-3 9-5-1-4-23z"/>
<path d="m4542 2665c0-16 2-22 5-12 2 9 2 23 0 30-3 6-5-1-5-18z"/>
<path d="m4112 2615c0-16 2-22 5-12 2 9 2 23 0 30-3 6-5-1-5-18z"/>
<path d="m2925 2620c-16-7-17-9-3-9 9-1 20 4 23 9 7 11 7 11-20 0z"/>
<path d="m4522 2605c0-16 2-22 5-12 2 9 2 23 0 30-3 6-5-1-5-18z"/>
<path d="m4574 2596c-3-8-4-23-1-33 3-12 5-9 6 9 1 22 6 27 34 31l32 4-33 1c-20 1-35-3-38-12z"/>
<path d="m2878 2593c7-3 16-2 19 1 4 3-2 6-13 5-11 0-14-3-6-6z"/>
<path d="m4658 2583c7-3 16-2 19 1 4 3-2 6-13 5-11 0-14-3-6-6z"/>
<path d="m4973 2575c-3-9-3-19 1-22 3-4 6 1 6 10 0 8 10 18 23 20l22 4-23 2c-12 0-25-6-29-14z"/>
<path d="m2825 2568c-3-7-4-227-3-488l3-475 90-2-42 4-43 4v479c0 447 1 479 18 483 16 4 16 5-1 6-10 0-20-5-22-11z"/>
<path d="m4091 2564c0-11 3-14 6-6 3 7 2 16-1 19-3 4-6-2-5-13z"/>
<path d="m4502 2545c0-16 2-22 5-12 2 9 2 23 0 30-3 6-5-1-5-18z"/>
<path d="m4698 2563c7-3 16-2 19 1 4 3-2 6-13 5-11 0-14-3-6-6z"/>
<path d="m5043 2500c0-36 2-50 4-32 2 17 2 47 0 65-2 17-4 3-4-33z"/>
<path d="m4743 2543c9-2 23-2 30 0 6 3-1 5-18 5-16 0-22-2-12-5z"/>
<path d="m4071 2524c0-11 3-14 6-6 3 7 2 16-1 19-3 4-6-2-5-13z"/>
<path d="m4552 2515c0-16 2-22 5-12 2 9 2 23 0 30-3 6-5-1-5-18z"/>
<path d="m4803 2523c9-2 23-2 30 0 6 3-1 5-18 5-16 0-22-2-12-5z"/>
<path d="m4928 2523c7-3 16-2 19 1 4 3-2 6-13 5-11 0-14-3-6-6z"/>
<path d="m4482 2485c0-16 2-22 5-12 2 9 2 23 0 30-3 6-5-1-5-18z"/>
<path d="m4863 2503c9-2 25-2 35 0 9 3 1 5-18 5s-27-2-17-5z"/>
<path d="m10 2407 5-92 3 84c2 46-1 88-5 92-4 5-6-33-3-84z"/>
<path d="m4051 2484c0-11 3-14 6-6 3 7 2 16-1 19-3 4-6-2-5-13z"/>
<path d="m4532 2455c0-16 2-22 5-12 2 9 2 23 0 30-3 6-5-1-5-18z"/>
<path d="m4031 2444c0-11 3-14 6-6 3 7 2 16-1 19-3 4-6-2-5-13z"/>
<path d="m4462 2425c0-16 2-22 5-12 2 9 2 23 0 30-3 6-5-1-5-18z"/>
<path d="m5324 2427c-3-8-4-45-2-83l3-69 5 83c5 82 4 94-6 69z"/>
<path d="m5021 2414c0-11 3-14 6-6 3 7 2 16-1 19-3 4-6-2-5-13z"/>
<path d="m4011 2404c0-11 3-14 6-6 3 7 2 16-1 19-3 4-6-2-5-13z"/>
<path d="m4512 2395c0-16 2-22 5-12 2 9 2 23 0 30-3 6-5-1-5-18z"/>
<path d="m4441 2374c0-11 3-14 6-6 3 7 2 16-1 19-3 4-6-2-5-13z"/>
<path d="m5001 2374c0-11 3-14 6-6 3 7 2 16-1 19-3 4-6-2-5-13z"/>
<path d="m3991 2364c0-11 3-14 6-6 3 7 2 16-1 19-3 4-6-2-5-13z"/>
<path d="m5193 2315c0-38 2-53 4-32 2 20 2 52 0 70-2 17-4 1-4-38z"/>
<path d="m4492 2335c0-16 2-22 5-12 2 9 2 23 0 30-3 6-5-1-5-18z"/>
<path d="m4421 2334c0-11 3-14 6-6 3 7 2 16-1 19-3 4-6-2-5-13z"/>
<path d="m4981 2334c0-11 3-14 6-6 3 7 2 16-1 19-3 4-6-2-5-13z"/>
<path d="m3971 2324c0-11 3-14 6-6 3 7 2 16-1 19-3 4-6-2-5-13z"/>
<path d="m33 2245c0-38 2-53 4-32 2 20 2 52 0 70-2 17-4 1-4-38z"/>
<path d="m4401 2294c0-11 3-14 6-6 3 7 2 16-1 19-3 4-6-2-5-13z"/>
<path d="m4961 2294c0-11 3-14 6-6 3 7 2 16-1 19-3 4-6-2-5-13z"/>
<path d="m3951 2284c0-11 3-14 6-6 3 7 2 16-1 19-3 4-6-2-5-13z"/>
<path d="m4474 2275c1-15 8-20 29-21 24-1 24-1 3 3-14 2-27 12-29 21-3 12-4 11-3-3z"/>
<path d="m4381 2254c0-11 3-14 6-6 3 7 2 16-1 19-3 4-6-2-5-13z"/>
<path d="m5303 2205c0-38 2-53 4-32 2 20 2 52 0 70-2 17-4 1-4-38z"/>
<path d="m4553 2233c9-2 23-2 30 0 6 3-1 5-18 5-16 0-22-2-12-5z"/>
<path d="m5173 2185c0-33 2-45 4-27s2 45 0 60-4 0-4-33z"/>
<path d="m4361 2214c0-11 3-14 6-6 3 7 2 16-1 19-3 4-6-2-5-13z"/>
<path d="m4608 2213c7-3 16-2 19 1 4 3-2 6-13 5-11 0-14-3-6-6z"/>
<path d="m4878 2213c7-3 16-2 19 1 4 3-2 6-13 5-11 0-14-3-6-6z"/>
<path d="m4653 2193c9-2 23-2 30 0 6 3-1 5-18 5-16 0-22-2-12-5z"/>
<path d="m4838 2193c7-3 16-2 19 1 4 3-2 6-13 5-11 0-14-3-6-6z"/>
<path d="m4341 2174c0-11 3-14 6-6 3 7 2 16-1 19-3 4-6-2-5-13z"/>
<path d="m4728 2173c17-2 47-2 65 0 17 2 3 4-33 4s-50-2-32-4z"/>
<path d="m53 2125c0-27 2-38 4-22 2 15 2 37 0 50-2 12-4 0-4-28z"/>
<path d="m4321 2134c0-11 3-14 6-6 3 7 2 16-1 19-3 4-6-2-5-13z"/>
<path d="m5283 2095c0-22 2-30 4-17 2 12 2 30 0 40-3 9-5-1-4-23z"/>
<path d="m5153 2085c0-22 2-30 4-17 2 12 2 30 0 40-3 9-5-1-4-23z"/>
<path d="m73 2035c0-22 2-30 4-17 2 12 2 30 0 40-3 9-5-1-4-23z"/>
<path d="m4261 2054c0-11 3-14 6-6 3 7 2 16-1 19-3 4-6-2-5-13z"/>
<path d="m5263 2015c0-22 2-30 4-17 2 12 2 30 0 40-3 9-5-1-4-23z"/>
<path d="m5133 2005c0-22 2-30 4-17 2 12 2 30 0 40-3 9-5-1-4-23z"/>
<path d="m93 1955c0-22 2-30 4-17 2 12 2 30 0 40-3 9-5-1-4-23z"/>
<path d="m4181 1954c0-11 3-14 6-6 3 7 2 16-1 19-3 4-6-2-5-13z"/>
<path d="m5243 1935c0-22 2-30 4-17 2 12 2 30 0 40-3 9-5-1-4-23z"/>
<path d="m5112 1935c0-16 2-22 5-12 2 9 2 23 0 30-3 6-5-1-5-18z"/>
<path d="m112 1885c0-16 2-22 5-12 2 9 2 23 0 30-3 6-5-1-5-18z"/>
<path d="m5092 1875c0-16 2-22 5-12 2 9 2 23 0 30-3 6-5-1-5-18z"/>
<path d="m5222 1865c0-16 2-22 5-12 2 9 2 23 0 30-3 6-5-1-5-18z"/>
<path d="m132 1825c0-16 2-22 5-12 2 9 2 23 0 30-3 6-5-1-5-18z"/>
<path d="m3528 1843c7-3 16-2 19 1 4 3-2 6-13 5-11 0-14-3-6-6z"/>
<path d="m4081 1834c0-11 3-14 6-6 3 7 2 16-1 19-3 4-6-2-5-13z"/>
<path d="m5072 1815c0-16 2-22 5-12 2 9 2 23 0 30-3 6-5-1-5-18z"/>
<path d="m3488 1823c7-3 16-2 19 1 4 3-2 6-13 5-11 0-14-3-6-6z"/>
<path d="m5202 1805c0-16 2-22 5-12 2 9 2 23 0 30-3 6-5-1-5-18z"/>
<path d="m3448 1803c7-3 16-2 19 1 4 3-2 6-13 5-11 0-14-3-6-6z"/>
<path d="m152 1765c0-16 2-22 5-12 2 9 2 23 0 30-3 6-5-1-5-18z"/>
<path d="m3408 1783c7-3 16-2 19 1 4 3-2 6-13 5-11 0-14-3-6-6z"/>
<path d="m5051 1764c0-11 3-14 6-6 3 7 2 16-1 19-3 4-6-2-5-13z"/>
<path d="m3368 1763c7-3 16-2 19 1 4 3-2 6-13 5-11 0-14-3-6-6z"/>
<path d="m5182 1745c0-16 2-22 5-12 2 9 2 23 0 30-3 6-5-1-5-18z"/>
<path d="m3328 1743c7-3 16-2 19 1 4 3-2 6-13 5-11 0-14-3-6-6z"/>
<path d="m5032 1715c0-16 2-22 5-12 2 9 2 23 0 30-3 6-5-1-5-18z"/>
<path d="m172 1705c0-16 2-22 5-12 2 9 2 23 0 30-3 6-5-1-5-18z"/>
<path d="m3288 1723c7-3 16-2 19 1 4 3-2 6-13 5-11 0-14-3-6-6z"/>
<path d="m3248 1703c7-3 16-2 19 1 4 3-2 6-13 5-11 0-14-3-6-6z"/>
<path d="m5161 1694c0-11 3-14 6-6 3 7 2 16-1 19-3 4-6-2-5-13z"/>
<path d="m3938 1693c7-3 16-2 19 1 4 3-2 6-13 5-11 0-14-3-6-6z"/>
<path d="m3193 1683c9-2 23-2 30 0 6 3-1 5-18 5-16 0-22-2-12-5z"/>
<path d="m5011 1664c0-11 3-14 6-6 3 7 2 16-1 19-3 4-6-2-5-13z"/>
<path d="m191 1654c0-11 3-14 6-6 3 7 2 16-1 19-3 4-6-2-5-13z"/>
<path d="m3118 1663c12-2 30-2 40 0 9 3-1 5-23 4-22 0-30-2-17-4z"/>
<path d="m5142 1645c0-16 2-22 5-12 2 9 2 23 0 30-3 6-5-1-5-18z"/>
<path d="m3038 1643c12-2 30-2 40 0 9 3-1 5-23 4-22 0-30-2-17-4z"/>
<path d="m4991 1624c0-11 3-14 6-6 3 7 2 16-1 19-3 4-6-2-5-13z"/>
<path d="m211 1614c0-11 3-14 6-6 3 7 2 16-1 19-3 4-6-2-5-13z"/>
<path d="m2943 1623c15-2 37-2 50 0 12 2 0 4-28 4-27 0-38-2-22-4z"/>
<path d="m5121 1594c0-11 3-14 6-6 3 7 2 16-1 19-3 4-6-2-5-13z"/>
<path d="m3818 1593c7-3 16-2 19 1 4 3-2 6-13 5-11 0-14-3-6-6z"/>
<path d="m4971 1584c0-11 3-14 6-6 3 7 2 16-1 19-3 4-6-2-5-13z"/>
<path d="m232 1565c0-16 2-22 5-12 2 9 2 23 0 30-3 6-5-1-5-18z"/>
<path d="m5101 1554c0-11 3-14 6-6 3 7 2 16-1 19-3 4-6-2-5-13z"/>
<path d="m4951 1544c0-11 3-14 6-6 3 7 2 16-1 19-3 4-6-2-5-13z"/>
<path d="m251 1514c0-11 3-14 6-6 3 7 2 16-1 19-3 4-6-2-5-13z"/>
<path d="m5081 1514c0-11 3-14 6-6 3 7 2 16-1 19-3 4-6-2-5-13z"/>
<path d="m3718 1513c7-3 16-2 19 1 4 3-2 6-13 5-11 0-14-3-6-6z"/>
<path d="m4931 1504c0-11 3-14 6-6 3 7 2 16-1 19-3 4-6-2-5-13z"/>
<path d="m271 1474c0-11 3-14 6-6 3 7 2 16-1 19-3 4-6-2-5-13z"/>
<path d="m5061 1474c0-11 3-14 6-6 3 7 2 16-1 19-3 4-6-2-5-13z"/>
<path d="m3658 1473c7-3 16-2 19 1 4 3-2 6-13 5-11 0-14-3-6-6z"/>
<path d="m4911 1464c0-11 3-14 6-6 3 7 2 16-1 19-3 4-6-2-5-13z"/>
<path d="m3618 1453c7-3 16-2 19 1 4 3-2 6-13 5-11 0-14-3-6-6z"/>
<path d="m291 1434c0-11 3-14 6-6 3 7 2 16-1 19-3 4-6-2-5-13z"/>
<path d="m5041 1434c0-11 3-14 6-6 3 7 2 16-1 19-3 4-6-2-5-13z"/>
<path d="m3578 1433c7-3 16-2 19 1 4 3-2 6-13 5-11 0-14-3-6-6z"/>
<path d="m4891 1424c0-11 3-14 6-6 3 7 2 16-1 19-3 4-6-2-5-13z"/>
<path d="m3538 1413c7-3 16-2 19 1 4 3-2 6-13 5-11 0-14-3-6-6z"/>
<path d="m311 1394c0-11 3-14 6-6 3 7 2 16-1 19-3 4-6-2-5-13z"/>
<path d="m5021 1394c0-11 3-14 6-6 3 7 2 16-1 19-3 4-6-2-5-13z"/>
<path d="m3498 1393c7-3 16-2 19 1 4 3-2 6-13 5-11 0-14-3-6-6z"/>
<path d="m4871 1384c0-11 3-14 6-6 3 7 2 16-1 19-3 4-6-2-5-13z"/>
<path d="m3458 1373c7-3 16-2 19 1 4 3-2 6-13 5-11 0-14-3-6-6z"/>
<path d="m3553 1363c9-2 25-2 35 0 9 3 1 5-18 5s-27-2-17-5z"/>
<path d="m5001 1354c0-11 3-14 6-6 3 7 2 16-1 19-3 4-6-2-5-13z"/>
<path d="m3418 1353c7-3 16-2 19 1 4 3-2 6-13 5-11 0-14-3-6-6z"/>
<path d="m351 1334c0-11 3-14 6-6 3 7 2 16-1 19-3 4-6-2-5-13z"/>
<path d="m3508 1343c7-3 16-2 19 1 4 3-2 6-13 5-11 0-14-3-6-6z"/>
<path d="m3363 1333c9-2 23-2 30 0 6 3-1 5-18 5-16 0-22-2-12-5z"/>
<path d="m3622 1315c0-16 2-22 5-12 2 9 2 23 0 30-3 6-5-1-5-18z"/>
<path d="m4831 1324c0-11 3-14 6-6 3 7 2 16-1 19-3 4-6-2-5-13z"/>
<path d="m3468 1323c7-3 16-2 19 1 4 3-2 6-13 5-11 0-14-3-6-6z"/>
<path d="m4981 1314c0-11 3-14 6-6 3 7 2 16-1 19-3 4-6-2-5-13z"/>
<path d="m3303 1313c9-2 23-2 30 0 6 3-1 5-18 5-16 0-22-2-12-5z"/>
<path d="m371 1294c0-11 3-14 6-6 3 7 2 16-1 19-3 4-6-2-5-13z"/>
<path d="m3428 1303c7-3 16-2 19 1 4 3-2 6-13 5-11 0-14-3-6-6z"/>
<path d="m3243 1293c9-2 23-2 30 0 6 3-1 5-18 5-16 0-22-2-12-5z"/>
<path d="m4811 1284c0-11 3-14 6-6 3 7 2 16-1 19-3 4-6-2-5-13z"/>
<path d="m3388 1283c7-3 16-2 19 1 4 3-2 6-13 5-11 0-14-3-6-6z"/>
<path d="m3183 1273c9-2 23-2 30 0 6 3-1 5-18 5-16 0-22-2-12-5z"/>
<path d="m3642 1255c0-16 2-22 5-12 2 9 2 23 0 30-3 6-5-1-5-18z"/>
<path d="m3348 1263c7-3 16-2 19 1 4 3-2 6-13 5-11 0-14-3-6-6z"/>
<path d="m4941 1254c0-11 3-14 6-6 3 7 2 16-1 19-3 4-6-2-5-13z"/>
<path d="m3123 1253c9-2 23-2 30 0 6 3-1 5-18 5-16 0-22-2-12-5z"/>
<path d="m411 1234c0-11 3-14 6-6 3 7 2 16-1 19-3 4-6-2-5-13z"/>
<path d="m3308 1243c7-3 16-2 19 1 4 3-2 6-13 5-11 0-14-3-6-6z"/>
<path d="m3048 1233c12-2 30-2 40 0 9 3-1 5-23 4-22 0-30-2-17-4z"/>
<path d="m4771 1224c0-11 3-14 6-6 3 7 2 16-1 19-3 4-6-2-5-13z"/>
<path d="m3254 1215c-3-8-4-20-1-27s6-3 6 9c1 12 9 24 19 26 16 4 16 5-1 6-10 0-20-6-23-14z"/>
<path d="m2953 1213c15-2 37-2 50 0 12 2 0 4-28 4-27 0-38-2-22-4z"/>
<path d="m3661 1204c0-11 3-14 6-6 3 7 2 16-1 19-3 4-6-2-5-13z"/>
<path d="m431 1194c0-11 3-14 6-6 3 7 2 16-1 19-3 4-6-2-5-13z"/>
<path d="m4901 1194c0-11 3-14 6-6 3 7 2 16-1 19-3 4-6-2-5-13z"/>
<path d="m2705 1188c-3-7-4-254-3-548l3-535 35-1 35-2-32 5-33 4v539 539l108 4 107 3-108 2c-78 1-109-1-112-10z"/>
<path d="m3681 1164c0-11 3-14 6-6 3 7 2 16-1 19-3 4-6-2-5-13z"/>
<path d="m3271 1154c0-11 3-14 6-6 3 7 2 16-1 19-3 4-6-2-5-13z"/>
<path d="m4861 1134c0-11 3-14 6-6 3 7 2 16-1 19-3 4-6-2-5-13z"/>
<path d="m3701 1124c0-11 3-14 6-6 3 7 2 16-1 19-3 4-6-2-5-13z"/>
<path d="m4691 1124c0-11 3-14 6-6 3 7 2 16-1 19-3 4-6-2-5-13z"/>
<path d="m491 1114c0-11 3-14 6-6 3 7 2 16-1 19-3 4-6-2-5-13z"/>
<path d="m3291 1114c0-11 3-14 6-6 3 7 2 16-1 19-3 4-6-2-5-13z"/>
<path d="m3311 1074c0-11 3-14 6-6 3 7 2 16-1 19-3 4-6-2-5-13z"/>
<path d="m3837 1084c17-4 23-14 26-45l4-39-1 42c-1 38-4 43-26 45-21 1-21 1-3-3z"/>
<path d="m4821 1074c0-11 3-14 6-6 3 7 2 16-1 19-3 4-6-2-5-13z"/>
<path d="m531 1054c0-11 3-14 6-6 3 7 2 16-1 19-3 4-6-2-5-13z"/>
<path d="m4631 1044c0-11 3-14 6-6 3 7 2 16-1 19-3 4-6-2-5-13z"/>
<path d="m3331 1034c0-11 3-14 6-6 3 7 2 16-1 19-3 4-6-2-5-13z"/>
<path d="m3351 994c0-11 3-14 6-6 3 7 2 16-1 19-3 4-6-2-5-13z"/>
<path d="m4741 974c0-11 3-14 6-6 3 7 2 16-1 19-3 4-6-2-5-13z"/>
<path d="m611 954c0-11 3-14 6-6 3 7 2 16-1 19-3 4-6-2-5-13z"/>
<path d="m3778 933c7-3 16-2 19 1 4 3-2 6-13 5-11 0-14-3-6-6z"/>
<path d="m3428 913c7-3 16-2 19 1 4 3-2 6-13 5-11 0-14-3-6-6z"/>
<path d="m3708 913c12-2 30-2 40 0 9 3-1 5-23 4-22 0-30-2-17-4z"/>
<path d="m3468 893c7-3 16-2 19 1 4 3-2 6-13 5-11 0-14-3-6-6z"/>
<path d="m3628 893c12-2 30-2 40 0 9 3-1 5-23 4-22 0-30-2-17-4z"/>
<path d="m3523 873c15-2 39-2 55 0 15 2 2 4-28 4s-43-2-27-4z"/>
<path d="m4268 683c7-3 16-2 19 1 4 3-2 6-13 5-11 0-14-3-6-6z"/>
<path d="m4188 623c7-3 16-2 19 1 4 3-2 6-13 5-11 0-14-3-6-6z"/>
<path d="m948 613c7-3 16-2 19 1 4 3-2 6-13 5-11 0-14-3-6-6z"/>
<path d="m4358 593c7-3 16-2 19 1 4 3-2 6-13 5-11 0-14-3-6-6z"/>
<path d="m4108 563c7-3 16-2 19 1 4 3-2 6-13 5-11 0-14-3-6-6z"/>
<path d="m1048 533c7-3 16-2 19 1 4 3-2 6-13 5-11 0-14-3-6-6z"/>
<path d="m4048 523c7-3 16-2 19 1 4 3-2 6-13 5-11 0-14-3-6-6z"/>
<path d="m4258 513c7-3 16-2 19 1 4 3-2 6-13 5-11 0-14-3-6-6z"/>
<path d="m3988 483c7-3 16-2 19 1 4 3-2 6-13 5-11 0-14-3-6-6z"/>
<path d="m1128 473c7-3 16-2 19 1 4 3-2 6-13 5-11 0-14-3-6-6z"/>
<path d="m4198 473c7-3 16-2 19 1 4 3-2 6-13 5-11 0-14-3-6-6z"/>
<path d="m3948 463c7-3 16-2 19 1 4 3-2 6-13 5-11 0-14-3-6-6z"/>
<path d="m1188 433c7-3 16-2 19 1 4 3-2 6-13 5-11 0-14-3-6-6z"/>
<path d="m4138 433c7-3 16-2 19 1 4 3-2 6-13 5-11 0-14-3-6-6z"/>
<path d="m3888 423c7-3 16-2 19 1 4 3-2 6-13 5-11 0-14-3-6-6z"/>
<path d="m3848 403c7-3 16-2 19 1 4 3-2 6-13 5-11 0-14-3-6-6z"/>
<path d="m1248 393c7-3 16-2 19 1 4 3-2 6-13 5-11 0-14-3-6-6z"/>
<path d="m4078 393c7-3 16-2 19 1 4 3-2 6-13 5-11 0-14-3-6-6z"/>
<path d="m3808 383c7-3 16-2 19 1 4 3-2 6-13 5-11 0-14-3-6-6z"/>
<path d="m1288 373c7-3 16-2 19 1 4 3-2 6-13 5-11 0-14-3-6-6z"/>
<path d="m3768 363c7-3 16-2 19 1 4 3-2 6-13 5-11 0-14-3-6-6z"/>
<path d="m4018 353c7-3 16-2 19 1 4 3-2 6-13 5-11 0-14-3-6-6z"/>
<path d="m3713 343c9-2 23-2 30 0 6 3-1 5-18 5-16 0-22-2-12-5z"/>
<path d="m1348 333c7-3 16-2 19 1 4 3-2 6-13 5-11 0-14-3-6-6z"/>
<path d="m3978 333c7-3 16-2 19 1 4 3-2 6-13 5-11 0-14-3-6-6z"/>
<path d="m3668 323c7-3 16-2 19 1 4 3-2 6-13 5-11 0-14-3-6-6z"/>
<path d="m1388 313c7-3 16-2 19 1 4 3-2 6-13 5-11 0-14-3-6-6z"/>
<path d="m3938 313c7-3 16-2 19 1 4 3-2 6-13 5-11 0-14-3-6-6z"/>
<path d="m3628 303c7-3 16-2 19 1 4 3-2 6-13 5-11 0-14-3-6-6z"/>
<path d="m1428 293c7-3 16-2 19 1 4 3-2 6-13 5-11 0-14-3-6-6z"/>
<path d="m3898 293c7-3 16-2 19 1 4 3-2 6-13 5-11 0-14-3-6-6z"/>
<path d="m3573 283c9-2 23-2 30 0 6 3-1 5-18 5-16 0-22-2-12-5z"/>
<path d="m1468 273c7-3 16-2 19 1 4 3-2 6-13 5-11 0-14-3-6-6z"/>
<path d="m3858 273c7-3 16-2 19 1 4 3-2 6-13 5-11 0-14-3-6-6z"/>
<path d="m3513 263c9-2 23-2 30 0 6 3-1 5-18 5-16 0-22-2-12-5z"/>
<path d="m1508 253c7-3 16-2 19 1 4 3-2 6-13 5-11 0-14-3-6-6z"/>
<path d="m3818 253c7-3 16-2 19 1 4 3-2 6-13 5-11 0-14-3-6-6z"/>
<path d="m3453 243c9-2 23-2 30 0 6 3-1 5-18 5-16 0-22-2-12-5z"/>
<path d="m1548 233c7-3 16-2 19 1 4 3-2 6-13 5-11 0-14-3-6-6z"/>
<path d="m3778 233c7-3 16-2 19 1 4 3-2 6-13 5-11 0-14-3-6-6z"/>
<path d="m3393 223c9-2 23-2 30 0 6 3-1 5-18 5-16 0-22-2-12-5z"/>
<path d="m1588 213c7-3 16-2 19 1 4 3-2 6-13 5-11 0-14-3-6-6z"/>
<path d="m3738 213c7-3 16-2 19 1 4 3-2 6-13 5-11 0-14-3-6-6z"/>
<path d="m3318 203c12-2 30-2 40 0 9 3-1 5-23 4-22 0-30-2-17-4z"/>
<path d="m1633 193c9-2 23-2 30 0 6 3-1 5-18 5-16 0-22-2-12-5z"/>
<path d="m3683 193c9-2 23-2 30 0 6 3-1 5-18 5-16 0-22-2-12-5z"/>
<path d="m3253 183c9-2 23-2 30 0 6 3-1 5-18 5-16 0-22-2-12-5z"/>
<path d="m1688 173c7-3 16-2 19 1 4 3-2 6-13 5-11 0-14-3-6-6z"/>
<path d="m3638 173c7-3 16-2 19 1 4 3-2 6-13 5-11 0-14-3-6-6z"/>
<path d="m3163 163c15-2 37-2 50 0 12 2 0 4-28 4-27 0-38-2-22-4z"/>
<path d="m1733 153c9-2 23-2 30 0 6 3-1 5-18 5-16 0-22-2-12-5z"/>
<path d="m3583 153c9-2 23-2 30 0 6 3-1 5-18 5-16 0-22-2-12-5z"/>
<path d="m3027 143c18-2 50-2 70 0 21 2 7 4-32 4-38 0-55-2-38-4z"/>
<path d="m1793 133c9-2 23-2 30 0 6 3-1 5-18 5-16 0-22-2-12-5z"/>
<path d="m3523 133c9-2 23-2 30 0 6 3-1 5-18 5-16 0-22-2-12-5z"/>
<path d="m2833 123c32-2 81-2 110 0s3 3-58 3c-60 0-84-1-52-3z"/>
<path d="m1853 113c9-2 23-2 30 0 6 3-1 5-18 5-16 0-22-2-12-5z"/>
<path d="m3463 113c9-2 23-2 30 0 6 3-1 5-18 5-16 0-22-2-12-5z"/>
<path d="m1918 93c12-2 30-2 40 0 9 3-1 5-23 4-22 0-30-2-17-4z"/>
<path d="m3403 93c9-2 23-2 30 0 6 3-1 5-18 5-16 0-22-2-12-5z"/>
<path d="m1998 73c12-2 30-2 40 0 9 3-1 5-23 4-22 0-30-2-17-4z"/>
<path d="m3313 73c15-2 37-2 50 0 12 2 0 4-28 4-27 0-38-2-22-4z"/>
<path d="m2078 53c12-2 30-2 40 0 9 3-1 5-23 4-22 0-30-2-17-4z"/>
<path d="m3228 53c12-2 30-2 40 0 9 3-1 5-23 4-22 0-30-2-17-4z"/>
<path d="m2168 33c18-2 45-2 60 0s0 4-33 4-45-2-27-4z"/>
<path d="m3118 33c18-2 45-2 60 0s0 4-33 4-45-2-27-4z"/>
<path d="m2280 14c59-8 138-8 133-1-2 4-39 6-81 6-42-1-66-3-52-5z"/>
<path d="m2947 13c-3-5 18-7 46-5 86 5 96 9 25 11-37 0-69-2-71-6z"/>
</g>
<g transform="translate(0 240) scale(.04 -.04)" fill="#808080">
<path d="m2879 2933-34-38 38 34c20 19 37 36 37 38 0 8-8 0-41-34z"/>
<path d="m3505 2500c181-181 332-330 335-330s-144 149-325 330c-181 182-332 330-335 330s144-148 325-330z"/>
<path d="m3305 2300c187-187 342-340 345-340s-148 153-335 340-342 340-345 340 148-153 335-340z"/>
<path d="m5010 2576c0-2 8-10 18-17 15-13 16-12 3 4s-21 21-21 13z"/>
<path d="m4959 2533c-13-16-12-17 4-4 9 7 17 15 17 17 0 8-8 3-21-13z"/>
<path d="m4919 2253-34-38 38 34c20 19 37 36 37 38 0 8-8 0-41-34z"/>
<path d="m3905 2218-50-53 53 50c28 27 52 51 52 52 0 8-9-1-55-49z"/>
<path d="m4284 2098-29-33 33 29c17 17 32 31 32 33 0 8-8 1-36-29z"/>
<path d="m4215 2008-40-43 43 40c39 36 47 45 39 45-2 0-21-19-42-42z"/>
<path d="m4125 1898-50-53 53 50c28 27 52 51 52 52 0 8-9-1-55-49z"/>
<path d="m3595 1888-50-53 53 50c28 27 52 51 52 52 0 8-9-1-55-49z"/>
<path d="m4010 1763-65-68 68 65c62 60 72 70 64 70-1 0-32-30-67-67z"/>
<path d="m3875 1648-50-53 53 50c28 27 52 51 52 52 0 8-9-1-55-49z"/>
<path d="m3765 1558-40-43 43 40c39 36 47 45 39 45-2 0-21-19-42-42z"/>
<path d="m3684 1498-19-23 23 19c12 11 22 21 22 23 0 8-8 2-26-19z"/>
<path d="m335 1370c10-11 20-20 23-20s-3 9-13 20-20 20-23 20 3-9 13-20z"/>
<path d="m4854 1348-19-23 23 19c21 18 27 26 19 26-2 0-12-10-23-22z"/>
<path d="m3590 1356c0-2 8-10 18-17 15-13 16-12 3 4s-21 21-21 13z"/>
<path d="m4954 1288-19-23 23 19c12 11 22 21 22 23 0 8-8 2-26-19z"/>
<path d="m395 1270c10-11 20-20 23-20s-3 9-13 20-20 20-23 20 3-9 13-20z"/>
<path d="m4794 1248-19-23 23 19c21 18 27 26 19 26-2 0-12-10-23-22z"/>
<path d="m4914 1228-19-23 23 19c12 11 22 21 22 23 0 8-8 2-26-19z"/>
<path d="m4735 1168-40-43 43 40c23 21 42 40 42 42 0 8-9 0-45-39z"/>
<path d="m440 1187c0-2 15-16 33-33l32-29-29 33c-28 30-36 37-36 29z"/>
<path d="m4874 1168-19-23 23 19c21 18 27 26 19 26-2 0-12-10-23-22z"/>
<path d="m4834 1108-19-23 23 19c21 18 27 26 19 26-2 0-12-10-23-22z"/>
<path d="m515 1090c10-11 20-20 23-20s-3 9-13 20-20 20-23 20 3-9 13-20z"/>
<path d="m3730 1075c19-19 36-35 39-35s-10 16-29 35-36 35-39 35 10-16 29-35z"/>
<path d="m4664 1078-29-33 33 29c30 28 37 36 29 36-2 0-16-15-33-32z"/>
<path d="m3804 1058-19-23 23 19c21 18 27 26 19 26-2 0-12-10-23-22z"/>
<path d="m4775 1028-40-43 43 40c23 21 42 40 42 42 0 8-9 0-45-39z"/>
<path d="m575 1010c21-22 41-40 44-40s-13 18-34 40-41 40-44 40 13-18 34-40z"/>
<path d="m4460 853-175-178 178 175c97 96 177 176 177 177 0 8-18-10-180-174z"/>
<path d="m3819 973-34-38 38 34c20 19 37 36 37 38 0 8-8 0-41-34z"/>
<path d="m3390 955c19-19 36-35 39-35s-10 16-29 35-36 35-39 35 10-16 29-35z"/>
<path d="m4550 783-185-188 188 185c174 172 192 190 184 190-1 0-85-84-187-187z"/>
<path d="m780 785c91-91 167-165 170-165s-69 74-160 165-167 165-170 165 69-74 160-165z"/>
<path d="m4234 648-29-33 33 29c17 17 32 31 32 33 0 8-8 1-36-29z"/>
<path d="m1005 580c21-22 41-40 44-40s-13 18-34 40-41 40-44 40 13-18 34-40z"/>
<path d="m4154 588-29-33 33 29c17 17 32 31 32 33 0 8-8 1-36-29z"/>
<path d="m4305 558-40-43 43 40c23 21 42 40 42 42 0 8-9 0-45-39z"/>
<path d="m4084 538-19-23 23 19c12 11 22 21 22 23 0 8-8 2-26-19z"/>
<path d="m1070 537c0-2 15-16 33-33l32-29-29 33c-28 30-36 37-36 29z"/>
<path d="m4024 498-19-23 23 19c12 11 22 21 22 23 0 8-8 2-26-19z"/>
<path d="m4224 498-19-23 23 19c12 11 22 21 22 23 0 8-8 2-26-19z"/>
<path d="m1165 460c10-11 20-20 23-20s-3 9-13 20-20 20-23 20 3-9 13-20z"/>
<path d="m4164 458-19-23 23 19c12 11 22 21 22 23 0 8-8 2-26-19z"/>
<path d="m3924 438-19-23 23 19c12 11 22 21 22 23 0 8-8 2-26-19z"/>
<path d="m1225 420c10-11 20-20 23-20s-3 9-13 20-20 20-23 20 3-9 13-20z"/>
<path d="m4104 418-19-23 23 19c21 18 27 26 19 26-2 0-12-10-23-22z"/>
<path d="m4044 378-19-23 23 19c12 11 22 21 22 23 0 8-8 2-26-19z"/>
<path d="m1325 360c10-11 20-20 23-20s-3 9-13 20-20 20-23 20 3-9 13-20z"/>
</g>
<g transform="translate(0 240) scale(.04 -.04)" fill="#ffe300">
<path d="m130 4960v-910h1250 1250v910 910h-1250-1250v-910z"/>
<path d="m150 2268c0-4 5-10 10-13 6-3 10-26 10-51 0-24 5-44 10-44 6 0 10-22 10-50 0-27 5-50 10-50 6 0 10-18 10-40s5-40 10-40c6 0 10-13 10-30 0-16 5-30 10-30 6 0 10-13 10-30 0-16 5-30 10-30 6 0 10-13 10-30 0-16 5-30 10-30 6 0 10-13 10-30 0-16 5-30 10-30 6 0 10-9 10-20s5-20 10-20c6 0 10-13 10-30 0-16 5-30 10-30 6 0 10-9 10-20s5-20 10-20c6 0 10-9 10-20s5-20 10-20c6 0 10-9 10-20s5-20 10-20c6 0 10-9 10-20s5-20 10-20c6 0 10-9 10-20s5-20 10-20c6 0 10-9 10-20s9-25 20-32 20-21 20-30c0-10 5-18 10-18 6 0 10-9 10-20s9-25 20-32 20-21 20-30c0-10 9-23 20-30s20-20 20-30c0-9 14-28 30-41 17-14 30-32 30-40s18-31 40-51 40-42 40-48c0-17 291-308 307-308 7 0 29-18 49-40s44-40 53-40 22-9 29-20 19-20 28-20c8 0 27-13 41-30 13-16 33-30 44-30 10 0 19-4 19-10 0-5 8-10 18-10 9 0 23-9 30-20s21-20 32-20 20-4 20-10c0-5 9-10 20-10s20-4 20-10c0-5 9-10 20-10s20-4 20-10c0-5 8-10 18-10 9 0 23-9 30-20 8-13 23-20 42-20 17 0 30-4 30-10 0-5 9-10 20-10s20-4 20-10c0-5 9-10 20-10s20-4 20-10c0-5 9-10 20-10s20-4 20-10c0-5 14-10 30-10 17 0 30-4 30-10 0-5 14-10 30-10 17 0 30-4 30-10 0-5 14-10 30-10 17 0 30-4 30-10 0-5 14-10 30-10 17 0 30-4 30-10 0-5 18-10 40-10s40-4 40-10c0-5 18-10 40-10s40-4 40-10c0-5 18-10 40-10s40-4 40-10 30-10 70-10 70-4 70-10 43-10 110-10 110-4 110-10c0-5 16-10 35-10h35v1080 1080l-1240 2c-682 2-1240 0-1240-4z"/>
</g>
<g transform="translate(0 240) scale(.04 -.04)" fill="#c9b100">
<path d="m120 4960v-920h1260 1260v920 920h-1260-1260v-920zm2510 0v-910h-1250-1250v910 910h1250 1250v-910z"/>
<path d="m1393 2273 1237-3v-1079-1080l-37-4-38-4 43-1 42-2v1090 1090l-1242-2-1243-3 1238-2z"/>
<path d="m163 2205c0-27 2-38 4-22 2 15 2 37 0 50-2 12-4 0-4-28z"/>
<path d="m183 2110c0-30 2-43 4-27 2 15 2 39 0 55-2 15-4 2-4-28z"/>
<path d="m203 2020c0-25 2-35 4-22 2 12 2 32 0 45-2 12-4 2-4-23z"/>
<path d="m222 1950c0-19 2-27 5-17 2 9 2 25 0 35-3 9-5 1-5-18z"/>
<path d="m242 1890c0-19 2-27 5-17 2 9 2 25 0 35-3 9-5 1-5-18z"/>
<path d="m262 1830c0-19 2-27 5-17 2 9 2 25 0 35-3 9-5 1-5-18z"/>
<path d="m282 1770c0-19 2-27 5-17 2 9 2 25 0 35-3 9-5 1-5-18z"/>
<path d="m302 1720c0-14 2-19 5-12 2 6 2 18 0 25-3 6-5 1-5-13z"/>
<path d="m322 1670c0-19 2-27 5-17 2 9 2 25 0 35-3 9-5 1-5-18z"/>
<path d="m342 1620c0-14 2-19 5-12 2 6 2 18 0 25-3 6-5 1-5-13z"/>
<path d="m362 1580c0-14 2-19 5-12 2 6 2 18 0 25-3 6-5 1-5-13z"/>
<path d="m382 1540c0-14 2-19 5-12 2 6 2 18 0 25-3 6-5 1-5-13z"/>
<path d="m402 1500c0-14 2-19 5-12 2 6 2 18 0 25-3 6-5 1-5-13z"/>
<path d="m422 1460c0-14 2-19 5-12 2 6 2 18 0 25-3 6-5 1-5-13z"/>
<path d="m442 1420c0-14 2-19 5-12 2 6 2 18 0 25-3 6-5 1-5-13z"/>
<path d="m482 1360c0-14 2-19 5-12 2 6 2 18 0 25-3 6-5 1-5-13z"/>
<path d="m502 1320c0-14 2-19 5-12 2 6 2 18 0 25-3 6-5 1-5-13z"/>
<path d="m542 1260c0-14 2-19 5-12 2 6 2 18 0 25-3 6-5 1-5-13z"/>
<path d="m582 1200c0-14 2-19 5-12 2 6 2 18 0 25-3 6-5 1-5-13z"/>
<path d="m642 1120c0-14 2-19 5-12 2 6 2 18 0 25-3 6-5 1-5-13z"/>
<path d="m722 1020c0-14 2-19 5-12 2 6 2 18 0 25-3 6-5 1-5-13z"/>
<path d="m1028 703c6-2 18-2 25 0 6 3 1 5-13 5s-19-2-12-5z"/>
<path d="m1128 623c6-2 18-2 25 0 6 3 1 5-13 5s-19-2-12-5z"/>
<path d="m1188 583c6-2 18-2 25 0 6 3 1 5-13 5s-19-2-12-5z"/>
<path d="m1268 523c6-2 18-2 25 0 6 3 1 5-13 5s-19-2-12-5z"/>
<path d="m1308 503c6-2 18-2 25 0 6 3 1 5-13 5s-19-2-12-5z"/>
<path d="m1368 463c6-2 18-2 25 0 6 3 1 5-13 5s-19-2-12-5z"/>
<path d="m1408 443c6-2 18-2 25 0 6 3 1 5-13 5s-19-2-12-5z"/>
<path d="m1448 423c6-2 18-2 25 0 6 3 1 5-13 5s-19-2-12-5z"/>
<path d="m1488 403c6-2 18-2 25 0 6 3 1 5-13 5s-19-2-12-5z"/>
<path d="m1553 363c9-2 25-2 35 0 9 3 1 5-18 5s-27-2-17-5z"/>
<path d="m1608 343c6-2 18-2 25 0 6 3 1 5-13 5s-19-2-12-5z"/>
<path d="m1648 323c6-2 18-2 25 0 6 3 1 5-13 5s-19-2-12-5z"/>
<path d="m1688 303c6-2 18-2 25 0 6 3 1 5-13 5s-19-2-12-5z"/>
<path d="m1733 283c9-2 25-2 35 0 9 3 1 5-18 5s-27-2-17-5z"/>
<path d="m1793 263c9-2 25-2 35 0 9 3 1 5-18 5s-27-2-17-5z"/>
<path d="m1853 243c9-2 25-2 35 0 9 3 1 5-18 5s-27-2-17-5z"/>
<path d="m1913 223c9-2 25-2 35 0 9 3 1 5-18 5s-27-2-17-5z"/>
<path d="m1978 203c12-2 32-2 45 0 12 2 2 4-23 4s-35-2-22-4z"/>
<path d="m2058 183c12-2 32-2 45 0 12 2 2 4-23 4s-35-2-22-4z"/>
<path d="m2138 163c12-2 32-2 45 0 12 2 2 4-23 4s-35-2-22-4z"/>
<path d="m2233 143c20-2 54-2 75 0 20 2 3 4-38 4s-58-2-37-4z"/>
<path d="m2393 123c31-2 83-2 115 0 31 2 5 3-58 3s-89-1-57-3z"/>
</g>
<g transform="translate(0 240) scale(.04 -.04)" fill="#fe0000">
<path d="m2710 5510v-360h104c73 0 106-4 108-12 3-8 20-11 48-9 27 2 46-2 51-10s22-12 42-11c23 2 36-2 40-12 4-9 13-12 28-9 14 4 25 0 30-10 6-9 17-13 30-10 14 4 25 0 30-9 5-10 18-14 34-10 15 2 25 0 25-7 0-6 14-11 30-11 17 0 30-4 30-10 0-5 14-10 30-10 17 0 30-4 30-10 0-5 9-10 20-10s20-4 20-10c0-5 9-10 20-10s20-4 20-10c0-5 9-10 20-10s20-4 20-10c0-5 9-10 20-10s20-4 20-10c0-5 9-10 20-10s20-4 20-10c0-5 9-10 20-10s20-4 20-10c0-5 8-10 18-10 9 0 23-9 30-20s19-20 27-20 31-18 51-40 42-40 50-40c7 0 34-22 60-50 26-27 52-50 59-50 6 0 44-32 83-72 40-39 72-77 72-83 0-7 23-33 50-59 28-26 50-53 50-60 0-8 18-30 40-50s40-42 40-50 14-26 30-39c17-14 30-33 30-41 0-9 5-16 10-16 6 0 10-9 10-20s5-20 10-20c6 0 10-9 10-20s5-20 10-20c6 0 10-9 10-20s5-20 10-20c6 0 10-9 10-20s5-20 10-20c6 0 10-9 10-20s5-20 10-20c6 0 10-9 10-20s5-20 11-20c7 0 9-10 7-25-4-16 0-29 10-34 9-5 13-16 9-30-3-13 1-24 10-30 10-5 14-16 10-30-3-13 1-24 10-30 10-5 14-16 10-30-3-13 1-24 10-30 10-5 14-16 10-30-3-15 0-24 9-28 10-4 14-17 12-40-1-20 3-37 11-42 8-6 12-26 10-61s1-55 9-58c8-2 12-38 12-118v-114h300 300v1330 1330h-1250-1250v-360zm750 10c0-5 9-10 20-10s20-4 20-10c0-5 9-10 20-10s20-4 20-10c0-5 9-10 20-10s20-4 20-10c0-5 6-10 14-10 7 0 32-19 55-41 22-23 41-48 41-55 0-8 5-14 10-14 6 0 10-9 10-20s5-20 10-20c16 0 13-117-4-123-9-3-12-15-9-31 3-15 1-26-6-26-6 0-11-9-11-19s-6-21-14-24c-9-3-12-15-9-31 3-15 1-26-6-26-6 0-11-7-11-15 0-23-37-55-65-55-14 0-25 5-25 10 0 6-9 10-20 10s-20 5-20 10c0 6-9 10-19 10s-21 6-24 14c-3 9-15 12-31 9-15-3-26-1-26 6 0 6-13 11-30 11-16 0-30 4-30 9 0 6-15 11-32 13-29 3-33 7-36 36-2 18 1 32 7 32s11 9 11 20 5 20 10 20c6 0 10 9 10 19s6 21 14 24c9 4 12 14 9 28-4 14 0 25 10 30 9 6 13 17 10 30-4 12 0 25 7 29 16 10 18 69 3 78-6 4-12 16-14 27-2 10-15 22-29 25-31 7-37 33-13 59 14 15 32 20 76 20 32 1 57-3 57-9zm1369-1191c22-23 41-48 41-55 0-8 5-14 11-14s9-15 7-35c-1-22 3-39 11-44 9-6 12-20 9-41s0-34 9-37c15-6 19-103 3-103-5 0-10-9-10-20s-4-20-10-20c-5 0-10-6-10-14 0-18-78-96-96-96-8 0-14-4-14-10 0-5-9-10-20-10s-20-4-20-10c0-5-9-10-20-10s-20-4-20-10c0-5-9-10-20-10s-20-4-20-10c0-5-9-10-20-10s-20-4-20-10c0-17-29-11-50 10-11 11-20 27-20 35s-5 15-11 15c-7 0-9 11-6 26 3 16 0 28-9 31-8 3-14 14-14 24s-4 19-10 19c-5 0-10 9-10 20s-5 20-11 20c-7 0-9 11-6 26 3 16 0 28-9 31-8 3-14 14-14 24s-4 19-10 19c-17 0-11 29 11 51 12 12 29 19 40 16s23 1 28 10c5 10 16 14 30 10 14-3 24 0 28 9 3 8 14 14 24 14s19 5 19 10c0 6 9 10 20 10s20 5 20 10c0 6 8 10 18 10s34 16 53 36l34 35-27 24c-44 38-37 65 17 65 25 0 43-10 74-41z"/>
<path d="m2868 4732-38-3v-480c0-419 2-479 15-479 8 0 15-4 15-10 0-5 9-10 20-10s20-4 20-10c0-5 7-10 16-10s23-8 30-17c12-16 48 16 361 329l348 348-50 50c-27 27-57 50-67 50s-18 5-18 10c0 6-9 10-20 10s-20 5-20 10c0 6-9 10-20 10s-20 5-20 10c0 6-9 10-20 10s-20 5-20 10c0 6-9 10-20 10s-20 5-20 10c0 6-9 10-20 10s-20 5-20 10c0 6-9 10-20 10s-20 5-20 10c0 6-9 10-19 10s-21 6-24 14c-4 9-14 12-27 9-13-4-25 0-31 8-5 8-21 12-42 11-22-2-36 2-40 11-3 9-15 12-37 9-21-3-35 0-41 9-5 9-23 12-49 10-26-1-46 3-53 11s-27 12-49 10z"/>
<path d="m3510 3835c-302-303-333-337-317-349 9-7 17-21 17-30s5-16 10-16c6 0 10-9 10-20s5-20 10-20c6 0 10-9 10-20s5-20 10-20c6 0 10-7 10-15 0-13 58-15 459-15h459l4 51c2 36-1 53-10 57-9 3-12 19-11 49 2 29-2 47-10 53-9 5-12 20-9 40 3 22 0 34-9 37-9 4-13 18-11 40 1 21-3 37-11 42-8 6-12 18-8 31 3 13 0 23-9 27-8 3-14 14-14 24s-4 19-10 19c-5 0-10 9-10 20s-4 20-10 20c-5 0-10 9-10 20s-4 20-10 20c-5 0-10 9-10 20s-4 20-10 20c-5 0-10 9-10 20s-4 20-10 20c-5 0-10 9-10 20s-4 20-10 20c-5 0-10 9-10 20s-4 20-10 20c-5 0-10 8-10 18 0 15-87 112-100 112-3 0-156-151-340-335z"/>
<path d="m2738 3472-28-3v-130-129h130 130v25c0 14-4 25-10 25-5 0-10 9-10 20s-4 20-10 20c-5 0-10 9-10 20s-4 20-10 20c-5 0-10 8-10 17 0 23-49 73-72 73-10 0-18 5-18 10 0 6-7 10-16 10s-22 6-28 13-23 11-38 9z"/>
</g>
<g transform="translate(0 240) scale(.04 -.04)" fill="#c50000">
<path d="m2700 5510v-370l113 2 112 2-107 3-108 4v359 360h1250 1250v-1330-1330h-300-299l-4 118-3 117-2-122-2-123h310 310v1340 1340h-1260-1260v-370z"/>
<path d="m3368 5523c17-2 47-2 65 0 17 2 3 4-33 4s-50-2-32-4z"/>
<path d="m3468 5503c6-2 18-2 25 0 6 3 1 5-13 5s-19-2-12-5z"/>
<path d="m3314 5475c1-13 8-20 24-21 17-1 18-1 3 3-11 2-22 12-24 21-3 12-4 11-3-3z"/>
<path d="m3508 5483c6-2 18-2 25 0 6 3 1 5-13 5s-19-2-12-5z"/>
<path d="m3548 5463c6-2 18-2 25 0 6 3 1 5-13 5s-19-2-12-5z"/>
<path d="m3588 5443c6-2 18-2 25 0 6 3 1 5-13 5s-19-2-12-5z"/>
<path d="m3372 5420c0-14 2-19 5-12 2 6 2 18 0 25-3 6-5 1-5-13z"/>
<path d="m3392 5360c0-14 2-19 5-12 2 6 2 18 0 25-3 6-5 1-5-13z"/>
<path d="m3682 5360c0-14 2-19 5-12 2 6 2 18 0 25-3 6-5 1-5-13z"/>
<path d="m3702 5320c0-14 2-19 5-12 2 6 2 18 0 25-3 6-5 1-5-13z"/>
<path d="m3372 5300c0-14 2-19 5-12 2 6 2 18 0 25-3 6-5 1-5-13z"/>
<path d="m3723 5240c0-36 2-50 4-32 2 17 2 47 0 65-2 17-4 3-4-33z"/>
<path d="m3352 5240c0-14 2-19 5-12 2 6 2 18 0 25-3 6-5 1-5-13z"/>
<path d="m3332 5180c0-14 2-19 5-12 2 6 2 18 0 25-3 6-5 1-5-13z"/>
<path d="m3312 5140c0-14 2-19 5-12 2 6 2 18 0 25-3 6-5 1-5-13z"/>
<path d="m3702 5140c0-14 2-19 5-12 2 6 2 18 0 25-3 6-5 1-5-13z"/>
<path d="m2958 5123c12-2 32-2 45 0 12 2 2 4-23 4s-35-2-22-4z"/>
<path d="m3293 5088c2-29 6-33 32-34 27-1 27 0 3 3-20 3-28 11-32 34-6 28-6 27-3-3z"/>
<path d="m3682 5100c0-14 2-19 5-12 2 6 2 18 0 25-3 6-5 1-5-13z"/>
<path d="m3053 5103c9-2 25-2 35 0 9 3 1 5-18 5s-27-2-17-5z"/>
<path d="m3128 5083c6-2 18-2 25 0 6 3 1 5-13 5s-19-2-12-5z"/>
<path d="m3188 5063c6-2 18-2 25 0 6 3 1 5-13 5s-19-2-12-5z"/>
<path d="m3662 5040c0-14 2-19 5-12 2 6 2 18 0 25-3 6-5 1-5-13z"/>
<path d="m3248 5043c6-2 18-2 25 0 6 3 1 5-13 5s-19-2-12-5z"/>
<path d="m3373 5033c9-2 25-2 35 0 9 3 1 5-18 5s-27-2-17-5z"/>
<path d="m3293 5023c9-2 25-2 35 0 9 3 1 5-18 5s-27-2-17-5z"/>
<path d="m3428 5013c6-2 18-2 25 0 6 3 1 5-13 5s-19-2-12-5z"/>
<path d="m3642 5e3c0-14 2-19 5-12 2 6 2 18 0 25-3 6-5 1-5-13z"/>
<path d="m3353 5003c9-2 25-2 35 0 9 3 1 5-18 5s-27-2-17-5z"/>
<path d="m3488 4993c6-2 18-2 25 0 6 3 1 5-13 5s-19-2-12-5z"/>
<path d="m3408 4983c6-2 18-2 25 0 6 3 1 5-13 5s-19-2-12-5z"/>
<path d="m3528 4973c6-2 18-2 25 0 6 3 1 5-13 5s-19-2-12-5z"/>
<path d="m3448 4963c6-2 18-2 25 0 6 3 1 5-13 5s-19-2-12-5z"/>
<path d="m3573 4953c9-2 25-2 35 0 9 3 1 5-18 5s-27-2-17-5z"/>
<path d="m3488 4943c6-2 18-2 25 0 6 3 1 5-13 5s-19-2-12-5z"/>
<path d="m3528 4923c6-2 18-2 25 0 6 3 1 5-13 5s-19-2-12-5z"/>
<path d="m3568 4903c6-2 18-2 25 0 6 3 1 5-13 5s-19-2-12-5z"/>
<path d="m3608 4883c6-2 18-2 25 0 6 3 1 5-13 5s-19-2-12-5z"/>
<path d="m3648 4863c6-2 18-2 25 0 6 3 1 5-13 5s-19-2-12-5z"/>
<path d="m3708 4823c6-2 18-2 25 0 6 3 1 5-13 5s-19-2-12-5z"/>
<path d="m3808 4743c6-2 18-2 25 0 6 3 1 5-13 5s-19-2-12-5z"/>
<path d="m2820 4250v-490l23 1c16 1 18 2 5 6-17 4-18 36-18 483v479l38 4 37 4-42 1-43 2v-490z"/>
<path d="m2938 4713c12-2 32-2 45 0 12 2 2 4-23 4s-35-2-22-4z"/>
<path d="m3033 4693c9-2 25-2 35 0 9 3 1 5-18 5s-27-2-17-5z"/>
<path d="m3113 4673c9-2 25-2 35 0 9 3 1 5-18 5s-27-2-17-5z"/>
<path d="m3188 4653c6-2 18-2 25 0 6 3 1 5-13 5s-19-2-12-5z"/>
<path d="m3928 4643c6-2 18-2 25 0 6 3 1 5-13 5s-19-2-12-5z"/>
<path d="m3248 4633c6-2 18-2 25 0 6 3 1 5-13 5s-19-2-12-5z"/>
<path d="m3288 4613c6-2 18-2 25 0 6 3 1 5-13 5s-19-2-12-5z"/>
<path d="m3328 4593c6-2 18-2 25 0 6 3 1 5-13 5s-19-2-12-5z"/>
<path d="m3368 4573c6-2 18-2 25 0 6 3 1 5-13 5s-19-2-12-5z"/>
<path d="m3408 4553c6-2 18-2 25 0 6 3 1 5-13 5s-19-2-12-5z"/>
<path d="m3448 4533c6-2 18-2 25 0 6 3 1 5-13 5s-19-2-12-5z"/>
<path d="m3488 4513c6-2 18-2 25 0 6 3 1 5-13 5s-19-2-12-5z"/>
<path d="m4082 4500c0-14 2-19 5-12 2 6 2 18 0 25-3 6-5 1-5-13z"/>
<path d="m3528 4493c6-2 18-2 25 0 6 3 1 5-13 5s-19-2-12-5z"/>
<path d="m3639 4408c11-15 11-21 0-35-12-17-12-17 6 0 19 17 19 17 0 35-18 16-18 16-6 0z"/>
<path d="m4182 4380c0-14 2-19 5-12 2 6 2 18 0 25-3 6-5 1-5-13z"/>
<path d="m4714 4355c-3-8-4-20-1-27s6-3 6 9c1 18 8 22 44 26l42 4-43 1c-29 1-44-3-48-13z"/>
<path d="m4262 4280c0-14 2-19 5-12 2 6 2 18 0 25-3 6-5 1-5-13z"/>
<path d="m4862 4280c0-14 2-19 5-12 2 6 2 18 0 25-3 6-5 1-5-13z"/>
<path d="m4882 4230c0-19 2-27 5-17 2 9 2 25 0 35-3 9-5 1-5-18z"/>
<path d="m4322 4200c0-14 2-19 5-12 2 6 2 18 0 25-3 6-5 1-5-13z"/>
<path d="m4668 4203c6-2 18-2 25 0 6 3 1 5-13 5s-19-2-12-5z"/>
<path d="m4628 4183c6-2 18-2 25 0 6 3 1 5-13 5s-19-2-12-5z"/>
<path d="m3829 4163c-13-16-12-17 4-4 14 11 20 11 35 0 15-13 16-12 3 4-7 9-17 17-21 17s-14-8-21-17z"/>
<path d="m4342 4160c0-14 2-19 5-12 2 6 2 18 0 25-3 6-5 1-5-13z"/>
<path d="m4902 4150c0-19 2-27 5-17 2 9 2 25 0 35-3 9-5 1-5-18z"/>
<path d="m4588 4163c6-2 18-2 25 0 6 3 1 5-13 5s-19-2-12-5z"/>
<path d="m4528 4143c6-2 18-2 25 0 6 3 1 5-13 5s-19-2-12-5z"/>
<path d="m4362 4120c0-14 2-19 5-12 2 6 2 18 0 25-3 6-5 1-5-13z"/>
<path d="m4468 4123c6-2 18-2 25 0 6 3 1 5-13 5s-19-2-12-5z"/>
<path d="m4382 4080c0-14 2-19 5-12 2 6 2 18 0 25-3 6-5 1-5-13z"/>
<path d="m4432 4080c0-14 2-19 5-12 2 6 2 18 0 25-3 6-5 1-5-13z"/>
<path d="m4923 4050c0-30 2-43 4-27 2 15 2 39 0 55-2 15-4 2-4-28z"/>
<path d="m3952 4060c0-14 2-19 5-12 2 6 2 18 0 25-3 6-5 1-5-13z"/>
<path d="m4402 4040c0-14 2-19 5-12 2 6 2 18 0 25-3 6-5 1-5-13z"/>
<path d="m4452 4040c0-14 2-19 5-12 2 6 2 18 0 25-3 6-5 1-5-13z"/>
<path d="m3972 4020c0-14 2-19 5-12 2 6 2 18 0 25-3 6-5 1-5-13z"/>
<path d="m4422 4e3c0-14 2-19 5-12 2 6 2 18 0 25-3 6-5 1-5-13z"/>
<path d="m3992 3980c0-14 2-19 5-12 2 6 2 18 0 25-3 6-5 1-5-13z"/>
<path d="m4472 3980c0-14 2-19 5-12 2 6 2 18 0 25-3 6-5 1-5-13z"/>
<path d="m4902 3980c0-14 2-19 5-12 2 6 2 18 0 25-3 6-5 1-5-13z"/>
<path d="m4442 3960c0-14 2-19 5-12 2 6 2 18 0 25-3 6-5 1-5-13z"/>
<path d="m4012 3940c0-14 2-19 5-12 2 6 2 18 0 25-3 6-5 1-5-13z"/>
<path d="m4492 3940c0-14 2-19 5-12 2 6 2 18 0 25-3 6-5 1-5-13z"/>
<path d="m4882 3940c0-14 2-19 5-12 2 6 2 18 0 25-3 6-5 1-5-13z"/>
<path d="m4462 3920c0-14 2-19 5-12 2 6 2 18 0 25-3 6-5 1-5-13z"/>
<path d="m4032 3900c0-14 2-19 5-12 2 6 2 18 0 25-3 6-5 1-5-13z"/>
<path d="m4512 3900c0-14 2-19 5-12 2 6 2 18 0 25-3 6-5 1-5-13z"/>
<path d="m4052 3860c0-14 2-19 5-12 2 6 2 18 0 25-3 6-5 1-5-13z"/>
<path d="m4482 3860c0-14 2-19 5-12 2 6 2 18 0 25-3 6-5 1-5-13z"/>
<path d="m4532 3840c0-14 2-19 5-12 2 6 2 18 0 25-3 6-5 1-5-13z"/>
<path d="m4788 3853c6-2 18-2 25 0 6 3 1 5-13 5s-19-2-12-5z"/>
<path d="m4072 3820c0-14 2-19 5-12 2 6 2 18 0 25-3 6-5 1-5-13z"/>
<path d="m4748 3833c6-2 18-2 25 0 6 3 1 5-13 5s-19-2-12-5z"/>
<path d="m4502 3800c0-14 2-19 5-12 2 6 2 18 0 25-3 6-5 1-5-13z"/>
<path d="m4552 3800c0-14 2-19 5-12 2 6 2 18 0 25-3 6-5 1-5-13z"/>
<path d="m4708 3813c6-2 18-2 25 0 6 3 1 5-13 5s-19-2-12-5z"/>
<path d="m4092 3780c0-14 2-19 5-12 2 6 2 18 0 25-3 6-5 1-5-13z"/>
<path d="m4668 3793c6-2 18-2 25 0 6 3 1 5-13 5s-19-2-12-5z"/>
<path d="m4628 3773c6-2 18-2 25 0 6 3 1 5-13 5s-19-2-12-5z"/>
<path d="m4522 3740c0-14 2-19 5-12 2 6 2 18 0 25-3 6-5 1-5-13z"/>
<path d="m4588 3753c6-2 18-2 25 0 6 3 1 5-13 5s-19-2-12-5z"/>
<path d="m2868 3743c6-2 18-2 25 0 6 3 1 5-13 5s-19-2-12-5z"/>
<path d="m4112 3720c0-14 2-19 5-12 2 6 2 18 0 25-3 6-5 1-5-13z"/>
<path d="m2908 3723c6-2 18-2 25 0 6 3 1 5-13 5s-19-2-12-5z"/>
<path d="m4542 3680c0-14 2-19 5-12 2 6 2 18 0 25-3 6-5 1-5-13z"/>
<path d="m4132 3650c0-19 2-27 5-17 2 9 2 25 0 35-3 9-5 1-5-18z"/>
<path d="m4562 3610c0-19 2-27 5-17 2 9 2 25 0 35-3 9-5 1-5-18z"/>
<path d="m4152 3570c0-19 2-27 5-17 2 9 2 25 0 35-3 9-5 1-5-18z"/>
<path d="m4583 3510c0-30 2-43 4-27 2 15 2 39 0 55-2 15-4 2-4-28z"/>
<path d="m4173 3480c0-25 2-35 4-22 2 12 2 32 0 45-2 12-4 2-4-23z"/>
<path d="m2700 3340v-140h140 140l-1 33c-2 30-2 30-6 5l-4-28h-130-129v129 130l28 4c25 4 25 4-5 6l-33 1v-140z"/>
<path d="m3202 3460c0-14 2-19 5-12 2 6 2 18 0 25-3 6-5 1-5-13z"/>
<path d="m2788 3453c6-2 18-2 25 0 6 3 1 5-13 5s-19-2-12-5z"/>
<path d="m2828 3433c6-2 18-2 25 0 6 3 1 5-13 5s-19-2-12-5z"/>
<path d="m3222 3420c0-14 2-19 5-12 2 6 2 18 0 25-3 6-5 1-5-13z"/>
<path d="m4190 3375v-45h-459c-429 0-460 1-464 18-4 13-5 11-6-5l-1-23h470 470v50c0 28-2 50-5 50s-5-20-5-45z"/>
<path d="m3242 3380c0-14 2-19 5-12 2 6 2 18 0 25-3 6-5 1-5-13z"/>
<path d="m2912 3360c0-14 2-19 5-12 2 6 2 18 0 25-3 6-5 1-5-13z"/>
<path d="m2932 3320c0-14 2-19 5-12 2 6 2 18 0 25-3 6-5 1-5-13z"/>
<path d="m2952 3280c0-14 2-19 5-12 2 6 2 18 0 25-3 6-5 1-5-13z"/>
</g>
<g transform="translate(0 240) scale(.04 -.04)" fill="#0c0704">
<path d="m0 4250c0-1160 3-1750 10-1750 6 0 10-35 10-84 0-47 5-88 10-91 6-3 10-35 10-70s5-67 10-70c6-3 10-26 10-50s5-47 10-50c6-3 10-21 10-40s5-37 10-40c6-3 10-21 10-40s4-37 10-40c5-3 10-17 10-30s4-27 10-30 10-17 10-30 5-27 10-30c6-3 10-17 10-30s5-27 10-30c6-3 10-14 10-25 0-10 14-44 30-75 17-31 30-62 30-69 0-15 83-182 102-204 8-9 22-34 32-54 9-20 21-40 26-43 6-3 19-25 29-48 11-23 31-53 45-66 14-14 26-30 26-36 0-7 9-20 20-30s20-23 20-30c0-6 18-29 40-50s40-44 40-50c0-13 332-345 346-345 5 0 28-18 49-40s44-40 50-40 24-13 40-30c16-16 34-30 40-30 7 0 20-9 30-20s24-20 30-20c7 0 18-7 25-15 7-9 29-23 49-32s44-23 53-31c22-19 309-162 325-162 7 0 28-9 48-20s44-20 55-20c10 0 22-4 25-10 3-5 17-10 30-10s27-4 30-10c3-5 17-10 30-10s27-4 30-10c3-5 21-10 40-10s37-4 40-10c3-5 21-10 40-10s37-4 40-10c3-5 21-10 40-10s37-4 40-10c3-5 30-10 60-10s57-4 60-10c3-5 40-10 81-10 43 0 74-4 74-10s93-10 260-10 260 4 260 10 28 10 64 10 68 5 71 10c3 6 30 10 60 10s57 5 60 10c3 6 21 10 40 10s37 5 40 10c3 6 26 10 50 10s47 5 50 10c3 6 17 10 30 10s27 5 30 10c3 6 17 10 30 10s27 5 30 10c3 6 17 10 30 10s27 5 30 10c3 6 15 10 25 10 11 0 35 9 55 20s41 20 48 20c18 0 354 170 368 186 6 8 17 14 24 14 6 0 20 9 30 20s23 20 30 20 20 9 30 20 23 20 30 20 20 9 30 20 23 20 30 20c6 0 29 18 50 40s44 40 50 40c13 0 385 372 385 386 0 5 18 28 40 49s40 44 40 50c0 7 9 20 20 30s20 23 20 30 9 20 20 30 20 23 20 30 9 20 20 30 20 24 20 30c0 7 6 18 14 24 16 14 186 350 186 368 0 7 9 28 20 48s20 44 20 55c0 10 5 22 10 25 6 3 10 17 10 30s4 27 10 30 10 17 10 30 4 27 10 30c5 3 10 21 10 40s5 37 10 40c6 3 10 21 10 40s4 37 10 40 10 21 10 40 5 37 10 40c6 3 10 35 10 70s4 67 10 70 10 40 10 81c0 43 4 74 10 74 7 0 10 600 10 1780v1780h-2670-2670v-1750zm2640 710v-920h-1260-1260v920 920h1260 1260v-920zm2580-420v-1340h-310-310v120c0 73-4 120-10 120s-10 27-10 60-4 60-10 60c-5 0-10 18-10 40s-4 40-10 40c-5 0-10 14-10 30 0 17-4 30-10 30-5 0-10 14-10 30 0 17-4 30-10 30-5 0-10 14-10 30 0 17-4 30-10 30-5 0-10 14-10 30 0 17-4 30-10 30-5 0-10 14-10 30 0 17-4 30-10 30-5 0-10 9-10 20s-4 20-10 20c-5 0-10 9-10 20s-4 20-10 20c-5 0-10 9-10 20s-4 20-10 20c-5 0-10 9-10 20s-4 20-10 20c-5 0-10 9-10 20s-4 20-10 20c-5 0-10 9-10 20s-4 20-10 20c-5 0-10 7-10 16s-13 29-30 44c-16 15-30 33-30 40 0 6-18 29-40 50s-40 44-40 50-22 33-50 60c-27 27-50 54-50 60 0 14-126 140-140 140-6 0-33 23-60 50-27 28-54 50-60 50s-29 18-50 40-45 40-52 40-20 9-28 20-22 20-32 20-18 5-18 10c0 6-9 10-20 10s-20 5-20 10c0 6-9 10-20 10s-20 5-20 10c0 6-9 10-20 10s-20 5-20 10c0 6-9 10-20 10s-20 5-20 10c0 6-9 10-20 10s-20 5-20 10c0 6-9 10-20 10s-20 5-20 10c0 6-13 10-30 10-16 0-30 5-30 10 0 6-13 10-30 10-16 0-30 5-30 10 0 6-13 10-30 10-16 0-30 5-30 10 0 6-13 10-30 10-16 0-30 5-30 10 0 6-13 10-30 10-16 0-30 5-30 10 0 6-18 10-40 10s-40 5-40 10c0 6-22 10-50 10-27 0-50 5-50 10 0 6-43 10-110 10h-110v370 370h1260 1260v-1340zm-2300 190c0-5 23-10 50-10 28 0 50-4 50-10 0-5 18-10 40-10s40-4 40-10c0-5 18-10 40-10s40-4 40-10c0-5 14-10 30-10 17 0 30-4 30-10 0-5 9-10 20-10s20-4 20-10c0-5 9-10 20-10s20-4 20-10c0-5 9-10 20-10s20-4 20-10c0-5 9-10 20-10s20-4 20-10c0-5 9-10 20-10s20-4 20-10c0-5 9-10 20-10s20-4 20-10c0-5 9-10 20-10s20-4 20-10c0-5 7-10 15-10s40-24 71-54l56-55-346-345c-311-311-376-369-376-336 0 6-9 10-20 10s-20 5-20 10c0 6-9 10-20 10s-20 5-20 10c0 6-9 10-20 10-20 0-20 7-20 490v490h50c28 0 50-4 50-10zm987-605c29-31 53-62 53-70s5-15 10-15c6 0 10-9 10-20s5-20 10-20c6 0 10-9 10-20s5-20 10-20c6 0 10-9 10-20s5-20 10-20c6 0 10-9 10-20s5-20 10-20c6 0 10-9 10-20s5-20 10-20c6 0 10-9 10-20s5-20 10-20c6 0 10-9 10-20s5-20 10-20c6 0 10-13 10-30 0-16 5-30 10-30 6 0 10-18 10-40s5-40 10-40c6 0 10-18 10-40s5-40 10-40c6 0 10-22 10-50 0-27 5-50 10-50 6 0 10-27 10-60v-60h-470c-463 0-470 0-470 20 0 11-4 20-10 20-5 0-10 9-10 20s-4 20-10 20c-5 0-10 9-10 20s-4 20-10 20c-5 0-10 9-10 20s-4 20-10 20c-33 0 23 63 323 364 182 184 334 335 336 335 2 1 28-24 58-54zm-1127-655c0-5 9-10 20-10s20-4 20-10c0-5 7-10 15-10 9 0 31-16 50-35s35-41 35-50c0-8 5-15 10-15 6 0 10-9 10-20s5-20 10-20c6 0 10-9 10-20s5-20 10-20c6 0 10-13 10-30v-30h-140-140v140 140h40c22 0 40-4 40-10zm200-353c0-29-61-151-91-183-31-34-117-74-156-74h-33v140 140h140c140 0 140 0 140-23zm2240-356c0-243-4-382-10-386-5-3-10-35-10-70s-4-67-10-70c-5-3-10-30-10-60s-4-57-10-60c-5-3-10-21-10-40s-4-37-10-40c-5-3-10-21-10-40s-4-37-10-40c-5-3-10-17-10-30s-4-27-10-30c-5-3-10-17-10-30s-4-27-10-30c-5-3-10-15-10-25 0-11-9-35-20-55s-20-41-20-48c0-16-163-343-182-365-8-9-22-33-31-53s-23-42-32-49c-8-7-15-18-15-24 0-7-18-30-40-51s-40-44-40-50-13-24-30-40c-16-16-30-33-30-39 0-14-342-356-356-356-5 0-23-14-39-30-16-17-34-30-40-30s-24-14-40-30c-16-17-34-30-40-30-7 0-20-9-30-20s-24-20-30-20c-7 0-18-7-25-15-7-9-29-23-49-32s-44-23-53-31c-22-19-189-102-204-102-7 0-38-14-69-30-31-17-65-30-75-30-11 0-22-5-25-10-3-6-17-10-30-10s-27-5-30-10c-3-6-17-10-30-10s-27-4-30-10c-3-5-17-10-30-10s-27-4-30-10c-3-5-21-10-40-10s-37-4-40-10c-3-5-17-10-30-10s-27-4-30-10c-3-5-26-10-50-10s-47-4-50-10c-3-5-35-10-70-10s-67-4-70-10-52-10-110-10-107-4-110-10c-3-5-24-10-46-10h-39v550 550h104c59 0 108 4 111 10s26 10 50 10 47 5 50 10c3 6 21 10 40 10s37 5 40 10c3 6 17 10 30 10s27 4 30 10c3 5 17 10 30 10s27 5 30 10c3 6 17 10 30 10s27 4 30 10c3 5 17 10 30 10s27 5 30 10 14 10 23 10c22 0 317 147 333 166 6 8 17 14 23 14 7 0 30 18 51 40s44 40 50 40 33 22 60 50 54 50 59 50c14 0 146 132 146 145 0 6 23 33 50 60 28 27 50 54 50 60s18 29 40 50 40 44 40 50 11 22 25 35c27 25 175 315 175 342 0 9 5 20 10 23 6 3 10 17 10 30s5 27 10 30c6 3 10 17 10 30s5 27 10 30c6 3 10 17 10 30s5 27 10 30c6 3 10 17 10 30s5 27 10 30c6 3 10 21 10 40s5 37 10 40c6 3 10 30 10 60s5 57 10 60c6 4 10 55 10 121v114h310 310v-379zm-1020 200c0-33-4-63-10-66-5-3-10-26-10-50s-4-47-10-50c-5-3-10-21-10-40s-4-37-10-40c-5-3-10-21-10-40s-4-37-10-40c-5-3-10-14-10-23s-38-94-85-187c-67-135-96-181-135-220l-50-50-335 335c-184 184-335 339-335 345 0 5 19 49 43 97l42 87 468 1h467v-59zm-880-666 345-345-50-50c-39-39-85-68-220-135-93-47-178-85-187-85s-20-4-23-10c-3-5-21-10-40-10s-37-4-40-10c-3-5-21-10-40-10s-37-4-40-10c-3-5-26-10-50-10s-47-4-50-10c-3-5-28-10-56-10h-49v488l1 487 62 31c34 18 69 32 77 33 8 0 170-154 360-344zm-680-1105v-1090h-40c-22 0-40 5-40 10 0 6-43 10-110 10s-110 4-110 10-30 10-70 10-70 4-70 10-18 10-40 10-40 5-40 10c0 6-18 10-40 10s-40 5-40 10c0 6-18 10-40 10s-40 5-40 10c0 6-13 10-30 10-16 0-30 5-30 10 0 6-13 10-30 10-16 0-30 5-30 10 0 6-13 10-30 10-16 0-30 5-30 10 0 6-13 10-30 10-16 0-30 5-30 10 0 6-9 10-20 10s-20 5-20 10c0 6-9 10-20 10s-20 5-20 10c0 6-9 10-20 10s-20 5-20 10c0 6-13 10-28 10-16 0-34 8-42 20-8 11-22 20-32 20s-18 5-18 10c0 6-9 10-20 10s-20 5-20 10c0 6-9 10-20 10s-20 5-20 10c0 6-8 10-18 10s-24 9-32 20-22 20-32 20-18 5-18 10c0 6-7 10-16 10s-29 14-44 30c-15 17-34 30-42 30-7 0-20 9-28 20s-21 20-28 20-31 18-52 40-43 40-49 40c-14 0-321 307-321 321 0 6-18 28-40 49s-40 44-40 50c0 7-14 25-30 40-17 15-30 34-30 42 0 7-9 20-20 28s-20 21-20 30-9 22-20 30-20 22-20 32-4 18-10 18c-5 0-10 8-10 18s-9 24-20 32-20 22-20 32-4 18-10 18c-5 0-10 9-10 20s-4 20-10 20c-5 0-10 9-10 20s-4 20-10 20c-5 0-10 9-10 20s-4 20-10 20c-5 0-10 9-10 20s-4 20-10 20c-5 0-10 9-10 20s-4 20-10 20c-5 0-10 14-10 30 0 17-4 30-10 30-5 0-10 9-10 20s-4 20-10 20c-5 0-10 14-10 30 0 17-4 30-10 30-5 0-10 14-10 30 0 17-4 30-10 30-5 0-10 14-10 30 0 17-4 30-10 30-5 0-10 14-10 30 0 17-4 30-10 30-5 0-10 18-10 40s-4 40-10 40c-5 0-10 23-10 50 0 28-4 50-10 50-5 0-10 20-10 44 0 25-4 48-10 51-5 3-10 10-10 16 0 5 476 9 1250 9h1250v-1090z"/>
<path d="m3333 5505c-18-20-16-45 3-45 20 0 44-24 44-44 0-9 5-16 10-16 6 0 10-18 10-40s-4-40-10-40c-5 0-10-13-10-30 0-16-4-30-10-30-5 0-10-13-10-30 0-16-4-30-10-30-5 0-10-9-10-20s-4-20-10-20c-5 0-10-9-10-20s-4-20-10-20c-5 0-10-13-10-30 0-27 3-30 30-30 17 0 30-4 30-10 0-5 14-10 30-10 17 0 30-4 30-10 0-5 14-10 30-10 17 0 30-4 30-10 0-5 9-10 20-10s20-4 20-10c0-5 9-10 20-10s20-4 20-10c0-15 49-12 66 4 8 8 14 22 14 30 0 9 5 16 10 16 6 0 10 14 10 30 0 17 5 30 10 30 6 0 10 9 10 20s5 20 10 20c6 0 10 14 10 30 0 17 5 30 10 30 6 0 10 27 10 60s-4 60-10 60c-5 0-10 9-10 20s-4 20-10 20c-5 0-10 7-10 15 0 20-65 85-85 85-8 0-15 5-15 10 0 6-9 10-20 10s-20 5-20 10c0 6-9 10-20 10s-20 5-20 10c0 6-9 10-20 10s-20 5-20 10c0 16-113 12-127-5z"/>
<path d="m4720 4342c0-10 9-24 20-32s20-20 20-28c0-18-66-82-85-82-8 0-15-4-15-10 0-5-9-10-20-10s-20-4-20-10c0-5-9-10-20-10s-20-4-20-10c0-5-13-10-30-10-16 0-30-4-30-10 0-5-12-10-26-10s-32-6-40-14c-16-17-19-46-4-46 6 0 10-9 10-20s5-20 10-20c6 0 10-13 10-30 0-16 5-30 10-30 6 0 10-9 10-20s5-20 10-20c6 0 10-9 10-20s5-20 10-20c6 0 10-13 10-30 0-16 5-30 10-30 6 0 10-7 10-16 0-8 6-22 14-30 17-16 46-19 46-4 0 6 9 10 20 10s20 5 20 10c0 6 9 10 20 10s20 5 20 10c0 6 9 10 20 10s20 5 20 10c0 6 9 10 20 10s20 5 20 10c0 6 7 10 15 10 9 0 31 16 50 35s35 41 35 50c0 8 5 15 10 15 6 0 10 9 10 20s5 20 10 20c6 0 10 23 10 50 0 28-4 50-10 50-5 0-10 18-10 40s-4 40-10 40c-5 0-10 18-10 40s-4 40-10 40c-5 0-10 7-10 15 0 9-16 31-35 50-26 27-43 35-70 35s-35-4-35-18z"/>
<path d="m4587 2593c-4-3-7-17-7-29 0-13-4-26-10-29-5-3-10-17-10-30s-4-27-10-30c-5-3-10-17-10-30s-4-27-10-30c-5-3-10-17-10-30s-4-27-10-30c-5-3-10-16-10-29 0-12-5-27-11-33-16-16-2-33 26-33 13 0 27-4 30-10 3-5 15-10 25-10 11 0 35-9 55-20s44-20 55-20c10 0 22-4 25-10 12-19 90-11 141 15 68 34 98 68 150 171 49 99 58 159 26 187-25 22-31 21-42-7-16-42-126-77-145-46-3 6-17 10-30 10s-27 5-30 10c-3 6-14 10-25 10-10 0-44 14-75 30-58 30-76 35-88 23z"/>
<path d="m3410 1284c-80-41-145-77-145-81 0-22 109-223 134-247 59-57 177-97 196-66 3 6 21 10 40 10s37 5 40 10c3 6 19 10 36 10 56 0 149 75 149 121 0 38-17 45-44 20-30-28-47-26-80 8-31 32-96 156-96 182 0 10-4 21-10 24-5 3-10 16-10 29 0 25-29 57-51 55-8-1-79-34-159-75z"/>
</g>
</g>
</svg>
