<?xml version="1.0" encoding="UTF-8"?>
<!DOCTYPE svg  PUBLIC '-//W3C//DTD SVG 1.1//EN'  'http://www.w3.org/Graphics/SVG/1.1/DTD/svg11.dtd'>
<svg version="1.1" viewBox="0 0 267 300" xmlns="http://www.w3.org/2000/svg">
<g transform="scale(1.25)">
<g transform="translate(0 240) scale(.04 -.04)" fill="#fdfdfd">
<path d="m2090 5470v-60h580 580v60 60h-580-580v-60z"/>
<path d="m2e3 5500c0-5-9-10-20-10s-25-9-32-20-21-20-30-20c-10 0-23-9-30-20s-21-20-30-20c-10 0-23-9-30-20s-21-20-30-20c-10 0-23-9-30-20s-20-20-30-20c-9 0-23-8-30-19-7-10-22-20-33-22-16-3-21-15-25-52-3-26-2-47 2-47s8 5 8 10c0 6 9 10 20 10s25 9 32 20 21 20 30 20c10 0 23 9 30 20s21 20 30 20c10 0 23 9 30 20s21 20 30 20c10 0 23 9 30 20s21 20 30 20c10 0 18 5 18 10 0 6 9 10 20 10s20 5 20 10c0 6 6 10 14 10 10 0 15 15 18 50 1 28 0 50-4 50-5 0-8-4-8-10z"/>
<path d="m3328 5460c3-35 8-50 18-50 8 0 14-4 14-10 0-5 9-10 20-10s20-4 20-10c0-5 8-10 18-10 9 0 23-9 30-20s20-20 30-20c9 0 23-9 30-20s20-20 30-20c9 0 23-9 30-20s20-20 30-20c9 0 23-9 30-20s21-20 32-20 20-4 20-10c0-5 4-10 8-10s5 21 2 47c-4 37-9 49-25 52-11 2-26 12-33 22-7 11-21 19-30 19-10 0-23 9-30 20s-20 20-30 20c-9 0-23 9-30 20s-20 20-30 20c-9 0-23 9-30 20s-20 20-30 20c-9 0-23 9-30 20s-21 20-32 20-20 5-20 10c0 6-3 10-7 10-5 0-6-22-5-50z"/>
<path d="m2090 5260v-70h580 580v70 70h-580-580v-70z"/>
<path d="m2e3 5300c0-5-9-10-20-10s-25-9-32-20-21-20-30-20c-10 0-23-9-30-20s-21-20-30-20c-10 0-23-9-30-20s-21-20-30-20c-10 0-23-9-30-20s-20-20-30-20c-9 0-23-8-30-19-7-10-22-20-33-22-17-4-20-14-23-67-3-68 5-76 36-37 11 14 27 25 36 25s21 9 28 20 21 20 30 20c10 0 23 9 30 20s21 20 30 20c10 0 23 9 30 20s21 20 30 20c10 0 23 9 30 20s21 20 30 20c10 0 18 5 18 10 0 6 6 10 14 10 10 0 15 17 18 60 1 33 0 60-4 60-5 0-8-4-8-10z"/>
<path d="m3328 5250c3-43 8-60 18-60 8 0 14-4 14-10 0-5 8-10 18-10 9 0 23-9 30-20s20-20 30-20c9 0 23-9 30-20s20-20 30-20c9 0 23-9 30-20s20-20 30-20c9 0 23-9 30-20s19-20 28-20 25-11 36-25c31-39 39-31 36 37-3 53-6 63-23 67-11 2-26 12-33 22-7 11-21 19-30 19-10 0-23 9-30 20s-20 20-30 20c-9 0-23 9-30 20s-20 20-30 20c-9 0-23 9-30 20s-20 20-30 20c-9 0-23 9-30 20s-21 20-32 20-20 5-20 10c0 6-3 10-7 10-5 0-6-27-5-60z"/>
<path d="m2040 5100c0-5-9-10-20-10s-25-9-32-20-21-20-30-20c-10 0-23-9-30-20s-21-20-30-20c-10 0-23-9-30-20s-21-20-30-20c-10 0-23-9-30-20s-21-20-30-20c-10 0-23-9-30-20s-18-20-25-20c-10 0-13-75-15-320-2-176 0-320 5-320 4 0 7 5 7 10 0 6 9 10 20 10s20 5 20 10c0 6 9 10 20 10s25 9 32 20 21 20 30 20c10 0 23 9 30 20s21 20 30 20c10 0 23 9 30 20s21 20 30 20c10 0 23 9 30 20s21 20 30 20c10 0 23 9 30 20s18 20 25 20c10 0 13 67 13 310v310h-25c-14 0-25-4-25-10zm-75-360c0-184 0-185-22-188-13-2-23-8-23-13s-9-9-20-9-20-5-20-11-10-9-22-7c-23 3-23 4-23 188s0 185 23 188c12 2 22 8 22 13s9 9 20 9 20 5 20 11 10 9 23 7c22-3 22-4 22-188z"/>
<path d="m2170 4800v-310h500 500v310 310h-500-500v-310zm595 0v-205h-95-95l-3 195c-1 107 0 200 3 208 3 9 28 12 97 10l93-3v-205z"/>
<path d="m3250 4800c0-243 3-310 13-310 7 0 18-9 25-20s20-20 30-20c9 0 23-9 30-20s20-20 30-20c9 0 23-9 30-20s20-20 30-20c9 0 23-9 30-20s20-20 30-20c9 0 23-9 30-20s21-20 32-20 20-4 20-10c0-5 9-10 20-10s20-4 20-10c0-5 3-10 8-10 4 0 6 144 4 320-2 245-5 320-15 320-7 0-18 9-25 20s-20 20-30 20c-9 0-23 9-30 20s-20 20-30 20c-9 0-23 9-30 20s-20 20-30 20c-9 0-23 9-30 20s-20 20-30 20c-9 0-23 9-30 20s-21 20-32 20-20 5-20 10c0 6-11 10-25 10h-25v-310zm170 120c0-5 9-10 20-10s20-4 20-9 10-11 23-13c22-3 22-4 22-188s0-185-22-188c-13-2-23 1-23 7s-9 11-20 11-20 4-20 9-10 11-22 13c-23 3-23 5-26 178-1 96 0 180 2 187 6 15 46 18 46 3z"/>
<path d="m2108 4390c-7-11-21-20-30-20-10 0-23-9-30-20s-21-20-30-20c-10 0-23-9-30-20s-21-20-30-20c-10 0-23-9-30-20s-21-20-30-20c-10 0-23-9-30-20s-18-20-25-20c-10 0-13-299-13-1490 0-1016 3-1490 10-1490 6 0 24-16 41-35 38-43 49-44 49-5 0 17 5 30 10 30 6 0 10 14 10 30 0 17 5 30 10 30 6 0 10 9 10 20s5 20 10 20c6 0 10 8 10 18 0 9 9 23 20 30s20 18 20 26 32 45 70 82l70 67v1434 1433h-25c-14 0-30-9-37-20zm-43-450v-245l-22-3c-13-2-23-8-23-13s-9-9-20-9-20-5-20-11-10-9-22-7l-23 3v245 245l23 3c12 2 22 8 22 13s9 9 20 9 20 5 20 11 10 9 23 7l22-3v-245zm0-660v-245l-22-3c-13-2-23-8-23-13s-9-9-20-9-20-5-20-11-10-9-22-7l-23 3v245 245l23 3c12 2 22 8 22 13s9 9 20 9 20 5 20 11 10 9 23 7l22-3v-245zm0-660v-245l-22-3c-13-2-23-8-23-13s-9-9-20-9-20-5-20-11-10-9-22-7l-23 3v245 245l23 3c12 2 22 8 22 13s9 9 20 9 20 5 20 11 10 9 23 7l22-3v-245zm0-660v-245l-22-3c-13-2-23-8-23-13s-9-9-20-9-20-5-20-11-10-9-22-7l-23 3v245 245l23 3c12 2 22 8 22 13s9 9 20 9 20 5 20 11 10 9 23 7l22-3v-245z"/>
<path d="m2250 2995c0-824 4-1415 9-1415s11 7 15 15c3 8 15 15 26 15s20 5 20 10c0 6 14 10 30 10 17 0 30 5 30 10 0 6 18 10 40 10s40 5 40 10c0 6 18 10 40 10s40 5 40 10c0 6 50 10 130 10s130-4 130-10c0-5 18-10 40-10s40-4 40-10c0-5 18-10 40-10s40-4 40-10c0-5 14-10 30-10 17 0 30-4 30-10 0-5 9-10 20-10s23-7 26-15c4-8 10-15 15-15s9 591 9 1415v1415h-420-420v-1415zm515 1065v-205h-95-95l-3 195c-1 107 0 200 3 208 3 9 28 12 97 10l93-3v-205z"/>
<path d="m3170 2977v-1434l70-67c39-37 70-74 70-82s9-19 20-26 20-21 20-30c0-10 5-18 10-18 6 0 10-9 10-20s5-20 10-20c6 0 10-13 10-30 0-16 5-30 10-30 6 0 10-13 10-30 0-39 11-38 49 5 17 19 35 35 41 35 7 0 10 474 10 1490 0 1191-3 1490-13 1490-7 0-18 9-25 20s-20 20-30 20c-9 0-23 9-30 20s-20 20-30 20c-9 0-23 9-30 20s-20 20-30 20c-9 0-23 9-30 20s-20 20-30 20c-9 0-23 9-30 20s-23 20-37 20h-25v-1433zm150 1203c0-5 9-10 20-10s20-4 20-9 10-11 23-13l22-3v-245-245l-22-3c-13-2-23 1-23 7s-9 11-20 11-20 4-20 9-10 11-22 13l-23 3-3 235c-1 129 0 240 2 247 6 15 46 18 46 3zm0-660c0-5 9-10 20-10s20-4 20-9 10-11 23-13l22-3v-245-245l-22-3c-13-2-23 1-23 7s-9 11-20 11-20 4-20 9-10 11-22 13l-23 3-3 235c-1 129 0 240 2 247 6 15 46 18 46 3zm0-660c0-5 9-10 20-10s20-4 20-9 10-11 23-13l22-3v-245-245l-22-3c-13-2-23 1-23 7s-9 11-20 11-20 4-20 9-10 11-22 13l-23 3-3 235c-1 129 0 240 2 247 6 15 46 18 46 3zm0-660c0-5 9-10 20-10s20-4 20-9 10-11 23-13l22-3v-245-245l-22-3c-13-2-23 1-23 7s-9 11-20 11-20 4-20 9-10 11-22 13l-23 3-3 235c-1 129 0 240 2 247 6 15 46 18 46 3z"/>
<path d="m0 1252v-1252h1212c666 0 1208 3 1205 7-4 3-41 5-82 4-48-2-75 2-75 8 0 7-24 11-60 11-33 0-60 4-60 10s-18 10-40 10-40 5-40 10c0 6-18 10-40 10s-40 5-40 10c0 6-18 10-40 10s-40 5-40 10c0 6-13 10-30 10-16 0-30 5-30 10 0 6-13 10-30 10-16 0-30 5-30 10 0 6-13 10-30 10-16 0-30 5-30 10 0 6-9 10-20 10s-20 5-20 10c0 6-13 10-30 10-16 0-30 5-30 10 0 6-9 10-20 10s-20 5-20 10c0 6-9 10-20 10s-20 5-20 10c0 6-9 10-20 10s-20 5-20 10c0 6-9 10-20 10s-20 5-20 10c0 6-9 10-20 10s-20 5-20 10c0 6-9 10-20 10s-20 5-20 10c0 6-8 10-18 10-9 0-23 9-30 20s-21 20-32 20-20 5-20 10c0 6-8 10-18 10-9 0-23 9-30 20s-20 20-30 20c-9 0-23 9-30 20s-19 20-28 20c-8 0-27 13-41 30-13 16-31 30-39 30s-30 18-50 40-42 40-48 40c-15 0-356 341-356 356 0 6-18 28-40 48s-40 43-40 51-9 20-20 27-20 20-20 30c0 9-13 28-30 41-16 14-30 33-30 41 0 9-4 16-10 16-5 0-10 9-10 20s-9 25-20 32-20 21-20 30c0 10-4 18-10 18-5 0-10 9-10 20s-9 25-20 32-20 21-20 30c0 10-4 18-10 18-5 0-10 9-10 20s-4 20-10 20c-5 0-10 9-10 20s-4 20-10 20c-5 0-10 9-10 20s-4 20-10 20c-5 0-10 14-10 30 0 17-4 30-10 30-5 0-10 9-10 20s-4 20-10 20c-5 0-10 9-10 20s-4 20-10 20c-5 0-10 14-10 30 0 17-4 30-10 30-5 0-10 14-10 30 0 17-4 30-10 30-5 0-10 14-10 30 0 17-4 30-10 30-5 0-10 14-10 30 0 17-4 30-10 30-5 0-10 18-10 40s-4 40-10 40c-5 0-10 18-10 40s-4 40-10 40c-5 0-10 23-10 50 0 28-4 50-10 50s-10 30-10 70c0 43-4 70-11 70-6 0-10 30-8 85 1 47-1 88-5 92-3 3-6-557-6-1245z"/>
<path d="m5329 2493c0-5 0-45 1-90 1-53-3-83-9-83-7 0-11-27-11-70 0-40-4-70-10-70-5 0-10-22-10-50 0-27-4-50-10-50-5 0-10-18-10-40s-4-40-10-40c-5 0-10-18-10-40s-4-40-10-40c-5 0-10-13-10-30 0-16-4-30-10-30-5 0-10-13-10-30 0-16-4-30-10-30-5 0-10-13-10-30 0-16-4-30-10-30-5 0-10-13-10-30 0-16-4-30-10-30-5 0-10-9-10-20s-4-20-10-20c-5 0-10-9-10-20s-4-20-10-20c-5 0-10-13-10-30 0-16-4-30-10-30-5 0-10-9-10-20s-4-20-10-20c-5 0-10-9-10-20s-4-20-10-20c-5 0-10-9-10-20s-4-20-10-20c-5 0-10-8-10-18 0-9-9-23-20-30s-20-21-20-32-4-20-10-20c-5 0-10-8-10-18 0-9-9-23-20-30s-20-21-20-32-4-20-10-20c-5 0-10-7-10-16 0-8-13-27-30-41-16-13-30-32-30-41 0-10-9-23-20-30s-20-19-20-27-18-31-40-51-40-42-40-48c0-15-341-356-356-356-6 0-28-18-48-40s-42-40-50-40-26-13-39-30c-14-16-33-30-41-30-9 0-21-9-28-20s-21-20-30-20c-10 0-23-9-30-20s-21-20-30-20c-10 0-18-4-18-10 0-5-9-10-20-10s-25-9-32-20-21-20-30-20c-10 0-18-4-18-10 0-5-9-10-20-10s-20-4-20-10c0-5-9-10-20-10s-20-4-20-10c0-5-9-10-20-10s-20-4-20-10c0-5-9-10-20-10s-20-4-20-10c0-5-9-10-20-10s-20-4-20-10c0-5-9-10-20-10s-20-4-20-10c0-5-13-10-30-10-16 0-30-4-30-10 0-5-9-10-20-10s-20-4-20-10c0-5-13-10-30-10-16 0-30-4-30-10 0-5-13-10-30-10-16 0-30-4-30-10 0-5-13-10-30-10-16 0-30-4-30-10 0-5-18-10-40-10s-40-4-40-10c0-5-18-10-40-10s-40-4-40-10c0-5-18-10-40-10s-40-4-40-10-27-10-60-10c-36 0-60-4-60-11 0-6-27-10-75-8-41 1-78-1-82-4-3-4 539-7 1205-7h1212v1250c0 688-2 1250-5 1250s-5-3-6-7z"/>
</g>
<g transform="translate(0 240) scale(.04 -.04)" fill="#ccc">
<path d="m2084 5526c-3-7-4-38-2-67l3-54h585 585v65 65l-583 3c-487 2-583 0-588-12zm1166-56v-60h-580-580v60 60h580 580v-60z"/>
<path d="m1978 5493c7-3 16-2 19 1 4 3-2 6-13 5-11 0-14-3-6-6z"/>
<path d="m2012 5458c-2-35-6-48-19-51-17-4-17-5 0-6 22-1 29 17 24 65-3 38-4 37-5-8z"/>
<path d="m3324 5450c1-35 5-45 19-46 11-1 12 0 3 3-9 2-16 21-19 46l-4 42 1-45z"/>
<path d="m3348 5493c7-3 16-2 19 1 4 3-2 6-13 5-11 0-14-3-6-6z"/>
<path d="m1918 5453c7-3 16-2 19 1 4 3-2 6-13 5-11 0-14-3-6-6z"/>
<path d="m3408 5453c7-3 16-2 19 1 4 3-2 6-13 5-11 0-14-3-6-6z"/>
<path d="m1858 5413c7-3 16-2 19 1 4 3-2 6-13 5-11 0-14-3-6-6z"/>
<path d="m3468 5413c7-3 16-2 19 1 4 3-2 6-13 5-11 0-14-3-6-6z"/>
<path d="m1948 5383c7-3 16-2 19 1 4 3-2 6-13 5-11 0-14-3-6-6z"/>
<path d="m3378 5383c7-3 16-2 19 1 4 3-2 6-13 5-11 0-14-3-6-6z"/>
<path d="m1798 5373c7-3 16-2 19 1 4 3-2 6-13 5-11 0-14-3-6-6z"/>
<path d="m3528 5373c7-3 16-2 19 1 4 3-2 6-13 5-11 0-14-3-6-6z"/>
<path d="m1908 5363c7-3 16-2 19 1 4 3-2 6-13 5-11 0-14-3-6-6z"/>
<path d="m3418 5363c7-3 16-2 19 1 4 3-2 6-13 5-11 0-14-3-6-6z"/>
<path d="m1738 5333c7-3 16-2 19 1 4 3-2 6-13 5-11 0-14-3-6-6z"/>
<path d="m2084 5327c-3-8-4-43-2-78l3-64h585 585v75 75l-583 3c-484 2-583 0-588-11zm1166-67v-70h-580-580v70 70h580 580v-70z"/>
<path d="m3588 5333c7-3 16-2 19 1 4 3-2 6-13 5-11 0-14-3-6-6z"/>
<path d="m1848 5323c7-3 16-2 19 1 4 3-2 6-13 5-11 0-14-3-6-6z"/>
<path d="m3478 5323c7-3 16-2 19 1 4 3-2 6-13 5-11 0-14-3-6-6z"/>
<path d="m1678 5293c7-3 16-2 19 1 4 3-2 6-13 5-11 0-14-3-6-6z"/>
<path d="m1978 5293c7-3 16-2 19 1 4 3-2 6-13 5-11 0-14-3-6-6z"/>
<path d="m2012 5248c-2-44-6-58-19-61-17-4-17-5 0-6 23-1 29 16 24 75l-3 49-2-57z"/>
<path d="m3324 5243c1-44 5-58 16-59 8 0 10 1 3 3s-14 28-16 59l-4 54 1-57z"/>
<path d="m3348 5293c7-3 16-2 19 1 4 3-2 6-13 5-11 0-14-3-6-6z"/>
<path d="m3648 5293c7-3 16-2 19 1 4 3-2 6-13 5-11 0-14-3-6-6z"/>
<path d="m1788 5283c7-3 16-2 19 1 4 3-2 6-13 5-11 0-14-3-6-6z"/>
<path d="m3538 5283c7-3 16-2 19 1 4 3-2 6-13 5-11 0-14-3-6-6z"/>
<path d="m1643 5235c0-22 2-30 4-17 2 12 2 30 0 40-3 9-5-1-4-23z"/>
<path d="m3693 5235c0-22 2-30 4-17 2 12 2 30 0 40-3 9-5-1-4-23z"/>
<path d="m1918 5253c7-3 16-2 19 1 4 3-2 6-13 5-11 0-14-3-6-6z"/>
<path d="m3408 5253c7-3 16-2 19 1 4 3-2 6-13 5-11 0-14-3-6-6z"/>
<path d="m1728 5243c7-3 16-2 19 1 4 3-2 6-13 5-11 0-14-3-6-6z"/>
<path d="m3598 5243c7-3 16-2 19 1 4 3-2 6-13 5-11 0-14-3-6-6z"/>
<path d="m1858 5213c7-3 16-2 19 1 4 3-2 6-13 5-11 0-14-3-6-6z"/>
<path d="m3468 5213c7-3 16-2 19 1 4 3-2 6-13 5-11 0-14-3-6-6z"/>
<path d="m1668 5203c7-3 16-2 19 1 4 3-2 6-13 5-11 0-14-3-6-6z"/>
<path d="m3658 5203c7-3 16-2 19 1 4 3-2 6-13 5-11 0-14-3-6-6z"/>
<path d="m1798 5173c7-3 16-2 19 1 4 3-2 6-13 5-11 0-14-3-6-6z"/>
<path d="m3528 5173c7-3 16-2 19 1 4 3-2 6-13 5-11 0-14-3-6-6z"/>
<path d="m1948 5163c7-3 16-2 19 1 4 3-2 6-13 5-11 0-14-3-6-6z"/>
<path d="m3378 5163c7-3 16-2 19 1 4 3-2 6-13 5-11 0-14-3-6-6z"/>
<path d="m1738 5133c7-3 16-2 19 1 4 3-2 6-13 5-11 0-14-3-6-6z"/>
<path d="m3588 5133c7-3 16-2 19 1 4 3-2 6-13 5-11 0-14-3-6-6z"/>
<path d="m1888 5123c7-3 16-2 19 1 4 3-2 6-13 5-11 0-14-3-6-6z"/>
<path d="m3438 5123c7-3 16-2 19 1 4 3-2 6-13 5-11 0-14-3-6-6z"/>
<path d="m2068 5113 22-4v-309c0-267-2-309-15-313-11-4-10-4 2-3 17 1 18 22 18 316v315l-25 2c-22 1-22 1-2-4z"/>
<path d="m2165 5107c-3-6-4-149-3-317l3-305h505 505v315 315l-503 3c-399 2-504 0-507-11zm1005-307v-310h-500-500v310 310h500 500v-310z"/>
<path d="m2575 4998c-3-8-4-101-3-208l3-195h95 95v205 205l-93 3c-69 2-94-1-97-10zm185-198v-200h-90-90v200 200h90 90v-200z"/>
<path d="m3245 5107c-3-7-4-149-3-317 3-296 4-305 23-307 16-1 16-1 3 3-17 5-18 29-18 314v309l23 4 22 4-23 2c-12 0-25-5-27-12z"/>
<path d="m1678 5093c7-3 16-2 19 1 4 3-2 6-13 5-11 0-14-3-6-6z"/>
<path d="m2018 5093c7-3 16-2 19 1 4 3-2 6-13 5-11 0-14-3-6-6z"/>
<path d="m3308 5093c7-3 16-2 19 1 4 3-2 6-13 5-11 0-14-3-6-6z"/>
<path d="m3648 5093c7-3 16-2 19 1 4 3-2 6-13 5-11 0-14-3-6-6z"/>
<path d="m1828 5083c7-3 16-2 19 1 4 3-2 6-13 5-11 0-14-3-6-6z"/>
<path d="m3498 5083c7-3 16-2 19 1 4 3-2 6-13 5-11 0-14-3-6-6z"/>
<path d="m1643 5020c0-30 2-43 4-27 2 15 2 39 0 55-2 15-4 2-4-28z"/>
<path d="m3693 5020c0-30 2-43 4-27 2 15 2 39 0 55-2 15-4 2-4-28z"/>
<path d="m1958 5053c7-3 16-2 19 1 4 3-2 6-13 5-11 0-14-3-6-6z"/>
<path d="m3368 5053c7-3 16-2 19 1 4 3-2 6-13 5-11 0-14-3-6-6z"/>
<path d="m1768 5043c7-3 16-2 19 1 4 3-2 6-13 5-11 0-14-3-6-6z"/>
<path d="m3558 5043c7-3 16-2 19 1 4 3-2 6-13 5-11 0-14-3-6-6z"/>
<path d="m1898 5013c7-3 16-2 19 1 4 3-2 6-13 5-11 0-14-3-6-6z"/>
<path d="m3428 5013c7-3 16-2 19 1 4 3-2 6-13 5-11 0-14-3-6-6z"/>
<path d="m1708 5003c7-3 16-2 19 1 4 3-2 6-13 5-11 0-14-3-6-6z"/>
<path d="m3618 5003c7-3 16-2 19 1 4 3-2 6-13 5-11 0-14-3-6-6z"/>
<path d="m1838 4973c7-3 16-2 19 1 4 3-2 6-13 5-11 0-14-3-6-6z"/>
<path d="m3488 4973c7-3 16-2 19 1 4 3-2 6-13 5-11 0-14-3-6-6z"/>
<path d="m1778 4933c7-3 16-2 19 1 4 3-2 6-13 5-11 0-14-3-6-6z"/>
<path d="m3548 4933c7-3 16-2 19 1 4 3-2 6-13 5-11 0-14-3-6-6z"/>
<path d="m1938 4923c22-4 22-6 22-183 0-134-3-180-12-183-8-2-7-3 2-3 13 1 15 29 15 186v185l-25 2c-22 1-22 1-2-4z"/>
<path d="m3374 4917c-2-7-3-91-2-187 3-147 5-175 18-176 9 0 10 1 3 3-10 3-13 49-13 183 0 177 0 179 23 183l22 4-23 2c-12 0-25-5-28-12z"/>
<path d="m1888 4903c7-3 16-2 19 1 4 3-2 6-13 5-11 0-14-3-6-6z"/>
<path d="m3438 4903c7-3 16-2 19 1 4 3-2 6-13 5-11 0-14-3-6-6z"/>
<path d="m1705 4887c-3-7-4-152-2-322l2-310 3 317c2 292 3 317 20 321 16 4 16 5-1 6-10 0-20-5-22-12z"/>
<path d="m3612 4894c16-5 18-32 21-322l2-317v320c0 312 0 320-20 322-15 1-16 1-3-3z"/>
<path d="m1834 4877c-2-7-3-91-2-187 3-174 3-175 26-176 18-1 19-1 2 3-19 4-20 12-20 183 0 162 2 179 18 183s16 5-1 6c-10 0-20-5-23-12z"/>
<path d="m3483 4884c15-5 17-23 17-184 0-162-2-179-17-183-14-3-13-4 2-3 19 1 20 8 20 186 0 177-1 185-20 187-16 1-16 1-2-3z"/>
<path d="m1898 4533c7-3 16-2 19 1 4 3-2 6-13 5-11 0-14-3-6-6z"/>
<path d="m3428 4533c7-3 16-2 19 1 4 3-2 6-13 5-11 0-14-3-6-6z"/>
<path d="m2008 4443c7-3 16-2 19 1 4 3-2 6-13 5-11 0-14-3-6-6z"/>
<path d="m3318 4443c7-3 16-2 19 1 4 3-2 6-13 5-11 0-14-3-6-6z"/>
<path d="m2147 4413 23-4 3-1430 2-1429v1432 1433l-25 2c-22 1-22 1-3-4z"/>
<path d="m2245 4408c-3-7-4-645-3-1418l3-1405 3 1413 2 1412h420 420l3-1410 2-1410v1412 1413l-423 3c-333 2-424 0-427-10z"/>
<path d="m3165 4408c-3-7-4-654-3-1438l3-1425 3 1432 2 1432 23 4 22 4-23 2c-12 0-25-5-27-11z"/>
<path d="m1948 4403c7-3 16-2 19 1 4 3-2 6-13 5-11 0-14-3-6-6z"/>
<path d="m3378 4403c7-3 16-2 19 1 4 3-2 6-13 5-11 0-14-3-6-6z"/>
<path d="m2078 4373c7-3 16-2 19 1 4 3-2 6-13 5-11 0-14-3-6-6z"/>
<path d="m3248 4373c7-3 16-2 19 1 4 3-2 6-13 5-11 0-14-3-6-6z"/>
<path d="m1888 4363c7-3 16-2 19 1 4 3-2 6-13 5-11 0-14-3-6-6z"/>
<path d="m3438 4363c7-3 16-2 19 1 4 3-2 6-13 5-11 0-14-3-6-6z"/>
<path d="m2018 4333c7-3 16-2 19 1 4 3-2 6-13 5-11 0-14-3-6-6z"/>
<path d="m3308 4333c7-3 16-2 19 1 4 3-2 6-13 5-11 0-14-3-6-6z"/>
<path d="m1828 4323c7-3 16-2 19 1 4 3-2 6-13 5-11 0-14-3-6-6z"/>
<path d="m3498 4323c7-3 16-2 19 1 4 3-2 6-13 5-11 0-14-3-6-6z"/>
<path d="m1958 4293c7-3 16-2 19 1 4 3-2 6-13 5-11 0-14-3-6-6z"/>
<path d="m3368 4293c7-3 16-2 19 1 4 3-2 6-13 5-11 0-14-3-6-6z"/>
<path d="m1768 4283c7-3 16-2 19 1 4 3-2 6-13 5-11 0-14-3-6-6z"/>
<path d="m3558 4283c7-3 16-2 19 1 4 3-2 6-13 5-11 0-14-3-6-6z"/>
<path d="m1728 4263c7-3 16-2 19 1 4 3-2 6-13 5-11 0-14-3-6-6z"/>
<path d="m2575 4258c-3-8-4-101-3-208l3-195h95 95v205 205l-93 3c-69 2-94-1-97-10zm185-198v-200h-90-90v200 200h90 90v-200z"/>
<path d="m3598 4263c7-3 16-2 19 1 4 3-2 6-13 5-11 0-14-3-6-6z"/>
<path d="m1898 4253c7-3 16-2 19 1 4 3-2 6-13 5-11 0-14-3-6-6z"/>
<path d="m3428 4253c7-3 16-2 19 1 4 3-2 6-13 5-11 0-14-3-6-6z"/>
<path d="m1825 4208c-3-7-4-681-3-1498 3-1412 4-1485 21-1486 12-1 13-1 2 3-13 4-15 170-15 1493 0 1409 1 1489 18 1493 16 4 16 5-1 6-10 0-20-5-22-11z"/>
<path d="m3493 4214c16-5 17-85 17-1494 0-1323-2-1489-15-1493-11-4-10-4 2-3 17 1 18 73 18 1496 0 1487 0 1495-20 1497-16 1-16 1-2-3z"/>
<path d="m2038 4183 22-4v-239c0-205-2-239-15-243-11-4-10-4 2-3 17 1 18 19 18 246v245l-25 2c-22 1-22 1-2-4z"/>
<path d="m3274 4177c-2-7-3-118-2-247 3-200 5-235 18-236 9 0 10 1 3 3-10 3-13 61-13 243v239l23 4 22 4-23 2c-12 0-25-5-28-12z"/>
<path d="m1988 4163c7-3 16-2 19 1 4 3-2 6-13 5-11 0-14-3-6-6z"/>
<path d="m3338 4163c7-3 16-2 19 1 4 3-2 6-13 5-11 0-14-3-6-6z"/>
<path d="m1934 4137c-2-7-3-118-2-247l3-235 23-1c18-1 19-1 2 3-19 4-20 12-20 243 0 219 1 239 18 243 16 4 16 5-1 6-10 0-20-5-23-12z"/>
<path d="m3383 4144c16-5 17-25 17-244s-1-239-17-243c-14-3-13-4 2-3 19 1 20 8 20 246 0 237-1 245-20 247-16 1-16 1-2-3z"/>
<path d="m1998 3673c7-3 16-2 19 1 4 3-2 6-13 5-11 0-14-3-6-6z"/>
<path d="m3328 3673c7-3 16-2 19 1 4 3-2 6-13 5-11 0-14-3-6-6z"/>
<path d="m2038 3523 22-4v-239c0-205-2-239-15-243-11-4-10-4 2-3 17 1 18 19 18 246v245l-25 2c-22 1-22 1-2-4z"/>
<path d="m3274 3517c-2-7-3-118-2-247 3-200 5-235 18-236 9 0 10 1 3 3-10 3-13 61-13 243v239l23 4 22 4-23 2c-12 0-25-5-28-12z"/>
<path d="m1988 3503c7-3 16-2 19 1 4 3-2 6-13 5-11 0-14-3-6-6z"/>
<path d="m3338 3503c7-3 16-2 19 1 4 3-2 6-13 5-11 0-14-3-6-6z"/>
<path d="m1934 3477c-2-7-3-118-2-247l3-235 23-1c18-1 19-1 2 3-19 4-20 12-20 243 0 219 1 239 18 243 16 4 16 5-1 6-10 0-20-5-23-12z"/>
<path d="m3383 3484c16-5 17-25 17-244s-1-239-17-243c-14-3-13-4 2-3 19 1 20 8 20 246 0 237-1 245-20 247-16 1-16 1-2-3z"/>
<path d="m1998 3013c7-3 16-2 19 1 4 3-2 6-13 5-11 0-14-3-6-6z"/>
<path d="m3328 3013c7-3 16-2 19 1 4 3-2 6-13 5-11 0-14-3-6-6z"/>
<path d="m2038 2863 22-4v-239c0-205-2-239-15-243-11-4-10-4 2-3 17 1 18 19 18 246v245l-25 2c-22 1-22 1-2-4z"/>
<path d="m3274 2857c-2-7-3-118-2-247 3-200 5-235 18-236 9 0 10 1 3 3-10 3-13 61-13 243v239l23 4 22 4-23 2c-12 0-25-5-28-12z"/>
<path d="m1988 2843c7-3 16-2 19 1 4 3-2 6-13 5-11 0-14-3-6-6z"/>
<path d="m3338 2843c7-3 16-2 19 1 4 3-2 6-13 5-11 0-14-3-6-6z"/>
<path d="m1934 2817c-2-7-3-118-2-247l3-235 23-1c18-1 19-1 2 3-19 4-20 12-20 243 0 219 1 239 18 243 16 4 16 5-1 6-10 0-20-5-23-12z"/>
<path d="m3383 2824c16-5 17-25 17-244s-1-239-17-243c-14-3-13-4 2-3 19 1 20 8 20 246 0 237-1 245-20 247-16 1-16 1-2-3z"/>
<path d="m13 2400c0-47 2-66 4-42 2 23 2 61 0 85-2 23-4 4-4-43z"/>
<path d="m5323 2400c0-47 2-66 4-42 2 23 2 61 0 85-2 23-4 4-4-43z"/>
<path d="m1998 2353c7-3 16-2 19 1 4 3-2 6-13 5-11 0-14-3-6-6z"/>
<path d="m3328 2353c7-3 16-2 19 1 4 3-2 6-13 5-11 0-14-3-6-6z"/>
<path d="m33 2245c0-38 2-53 4-32 2 20 2 52 0 70-2 17-4 1-4-38z"/>
<path d="m5303 2245c0-38 2-53 4-32 2 20 2 52 0 70-2 17-4 1-4-38z"/>
<path d="m2038 2203 22-4v-239c0-205-2-239-15-243-11-4-10-4 2-3 17 1 18 19 18 246v245l-25 2c-22 1-22 1-2-4z"/>
<path d="m3274 2197c-2-7-3-118-2-247 3-200 5-235 18-236 9 0 10 1 3 3-10 3-13 61-13 243v239l23 4 22 4-23 2c-12 0-25-5-28-12z"/>
<path d="m1988 2183c7-3 16-2 19 1 4 3-2 6-13 5-11 0-14-3-6-6z"/>
<path d="m3338 2183c7-3 16-2 19 1 4 3-2 6-13 5-11 0-14-3-6-6z"/>
<path d="m53 2125c0-27 2-38 4-22 2 15 2 37 0 50-2 12-4 0-4-28z"/>
<path d="m1934 2157c-2-7-3-118-2-247l3-235 23-1c18-1 19-1 2 3-19 4-20 12-20 243 0 219 1 239 18 243 16 4 16 5-1 6-10 0-20-5-23-12z"/>
<path d="m3383 2164c16-5 17-25 17-244s-1-239-17-243c-14-3-13-4 2-3 19 1 20 8 20 246 0 237-1 245-20 247-16 1-16 1-2-3z"/>
<path d="m5283 2125c0-27 2-38 4-22 2 15 2 37 0 50-2 12-4 0-4-28z"/>
<path d="m73 2035c0-22 2-30 4-17 2 12 2 30 0 40-3 9-5-1-4-23z"/>
<path d="m5263 2035c0-22 2-30 4-17 2 12 2 30 0 40-3 9-5-1-4-23z"/>
<path d="m93 1955c0-22 2-30 4-17 2 12 2 30 0 40-3 9-5-1-4-23z"/>
<path d="m5243 1955c0-22 2-30 4-17 2 12 2 30 0 40-3 9-5-1-4-23z"/>
<path d="m112 1885c0-16 2-22 5-12 2 9 2 23 0 30-3 6-5-1-5-18z"/>
<path d="m5222 1885c0-16 2-22 5-12 2 9 2 23 0 30-3 6-5-1-5-18z"/>
<path d="m132 1825c0-16 2-22 5-12 2 9 2 23 0 30-3 6-5-1-5-18z"/>
<path d="m5202 1825c0-16 2-22 5-12 2 9 2 23 0 30-3 6-5-1-5-18z"/>
<path d="m152 1765c0-16 2-22 5-12 2 9 2 23 0 30-3 6-5-1-5-18z"/>
<path d="m5182 1765c0-16 2-22 5-12 2 9 2 23 0 30-3 6-5-1-5-18z"/>
<path d="m172 1705c0-16 2-22 5-12 2 9 2 23 0 30-3 6-5-1-5-18z"/>
<path d="m5162 1705c0-16 2-22 5-12 2 9 2 23 0 30-3 6-5-1-5-18z"/>
<path d="m1998 1693c7-3 16-2 19 1 4 3-2 6-13 5-11 0-14-3-6-6z"/>
<path d="m3328 1693c7-3 16-2 19 1 4 3-2 6-13 5-11 0-14-3-6-6z"/>
<path d="m2603 1683c37-2 97-2 135 0 37 2 6 3-68 3s-105-1-67-3z"/>
<path d="m191 1654c0-11 3-14 6-6 3 7 2 16-1 19-3 4-6-2-5-13z"/>
<path d="m2478 1663c12-2 30-2 40 0 9 3-1 5-23 4-22 0-30-2-17-4z"/>
<path d="m2828 1663c12-2 30-2 40 0 9 3-1 5-23 4-22 0-30-2-17-4z"/>
<path d="m5141 1654c0-11 3-14 6-6 3 7 2 16-1 19-3 4-6-2-5-13z"/>
<path d="m2398 1643c12-2 30-2 40 0 9 3-1 5-23 4-22 0-30-2-17-4z"/>
<path d="m2908 1643c12-2 30-2 40 0 9 3-1 5-23 4-22 0-30-2-17-4z"/>
<path d="m211 1614c0-11 3-14 6-6 3 7 2 16-1 19-3 4-6-2-5-13z"/>
<path d="m2333 1623c9-2 23-2 30 0 6 3-1 5-18 5-16 0-22-2-12-5z"/>
<path d="m2983 1623c9-2 23-2 30 0 6 3-1 5-18 5-16 0-22-2-12-5z"/>
<path d="m5121 1614c0-11 3-14 6-6 3 7 2 16-1 19-3 4-6-2-5-13z"/>
<path d="m2276 1601c-4-5 3-7 14-4 23 6 26 13 6 13-8 0-17-4-20-9z"/>
<path d="m3030 1606c0-2 9-6 20-9s18-1 14 4c-5 9-34 13-34 5z"/>
<path d="m232 1565c0-16 2-22 5-12 2 9 2 23 0 30-3 6-5-1-5-18z"/>
<path d="m5102 1565c0-16 2-22 5-12 2 9 2 23 0 30-3 6-5-1-5-18z"/>
<path d="m251 1514c0-11 3-14 6-6 3 7 2 16-1 19-3 4-6-2-5-13z"/>
<path d="m5081 1514c0-11 3-14 6-6 3 7 2 16-1 19-3 4-6-2-5-13z"/>
<path d="m271 1474c0-11 3-14 6-6 3 7 2 16-1 19-3 4-6-2-5-13z"/>
<path d="m5061 1474c0-11 3-14 6-6 3 7 2 16-1 19-3 4-6-2-5-13z"/>
<path d="m291 1434c0-11 3-14 6-6 3 7 2 16-1 19-3 4-6-2-5-13z"/>
<path d="m5041 1434c0-11 3-14 6-6 3 7 2 16-1 19-3 4-6-2-5-13z"/>
<path d="m2031 1404c0-11 3-14 6-6 3 7 2 16-1 19-3 4-6-2-5-13z"/>
<path d="m3301 1404c0-11 3-14 6-6 3 7 2 16-1 19-3 4-6-2-5-13z"/>
<path d="m311 1394c0-11 3-14 6-6 3 7 2 16-1 19-3 4-6-2-5-13z"/>
<path d="m5021 1394c0-11 3-14 6-6 3 7 2 16-1 19-3 4-6-2-5-13z"/>
<path d="m1991 1344c0-11 3-14 6-6 3 7 2 16-1 19-3 4-6-2-5-13z"/>
<path d="m3341 1344c0-11 3-14 6-6 3 7 2 16-1 19-3 4-6-2-5-13z"/>
<path d="m351 1334c0-11 3-14 6-6 3 7 2 16-1 19-3 4-6-2-5-13z"/>
<path d="m4981 1334c0-11 3-14 6-6 3 7 2 16-1 19-3 4-6-2-5-13z"/>
<path d="m1971 1304c0-11 3-14 6-6 3 7 2 16-1 19-3 4-6-2-5-13z"/>
<path d="m3361 1304c0-11 3-14 6-6 3 7 2 16-1 19-3 4-6-2-5-13z"/>
<path d="m371 1294c0-11 3-14 6-6 3 7 2 16-1 19-3 4-6-2-5-13z"/>
<path d="m4961 1294c0-11 3-14 6-6 3 7 2 16-1 19-3 4-6-2-5-13z"/>
<path d="m1952 1255c0-16 2-22 5-12 2 9 2 23 0 30-3 6-5-1-5-18z"/>
<path d="m3382 1255c0-16 2-22 5-12 2 9 2 23 0 30-3 6-5-1-5-18z"/>
<path d="m411 1234c0-11 3-14 6-6 3 7 2 16-1 19-3 4-6-2-5-13z"/>
<path d="m4921 1234c0-11 3-14 6-6 3 7 2 16-1 19-3 4-6-2-5-13z"/>
<path d="m1932 1195c0-16 2-22 5-12 2 9 2 23 0 30-3 6-5-1-5-18z"/>
<path d="m3402 1195c0-16 2-22 5-12 2 9 2 23 0 30-3 6-5-1-5-18z"/>
<path d="m431 1194c0-11 3-14 6-6 3 7 2 16-1 19-3 4-6-2-5-13z"/>
<path d="m4901 1194c0-11 3-14 6-6 3 7 2 16-1 19-3 4-6-2-5-13z"/>
<path d="m491 1114c0-11 3-14 6-6 3 7 2 16-1 19-3 4-6-2-5-13z"/>
<path d="m4841 1114c0-11 3-14 6-6 3 7 2 16-1 19-3 4-6-2-5-13z"/>
<path d="m531 1054c0-11 3-14 6-6 3 7 2 16-1 19-3 4-6-2-5-13z"/>
<path d="m4801 1054c0-11 3-14 6-6 3 7 2 16-1 19-3 4-6-2-5-13z"/>
<path d="m611 954c0-11 3-14 6-6 3 7 2 16-1 19-3 4-6-2-5-13z"/>
<path d="m4721 954c0-11 3-14 6-6 3 7 2 16-1 19-3 4-6-2-5-13z"/>
<path d="m948 613c7-3 16-2 19 1 4 3-2 6-13 5-11 0-14-3-6-6z"/>
<path d="m4378 613c7-3 16-2 19 1 4 3-2 6-13 5-11 0-14-3-6-6z"/>
<path d="m1048 533c7-3 16-2 19 1 4 3-2 6-13 5-11 0-14-3-6-6z"/>
<path d="m4278 533c7-3 16-2 19 1 4 3-2 6-13 5-11 0-14-3-6-6z"/>
<path d="m1128 473c7-3 16-2 19 1 4 3-2 6-13 5-11 0-14-3-6-6z"/>
<path d="m4198 473c7-3 16-2 19 1 4 3-2 6-13 5-11 0-14-3-6-6z"/>
<path d="m1188 433c7-3 16-2 19 1 4 3-2 6-13 5-11 0-14-3-6-6z"/>
<path d="m4138 433c7-3 16-2 19 1 4 3-2 6-13 5-11 0-14-3-6-6z"/>
<path d="m1248 393c7-3 16-2 19 1 4 3-2 6-13 5-11 0-14-3-6-6z"/>
<path d="m4078 393c7-3 16-2 19 1 4 3-2 6-13 5-11 0-14-3-6-6z"/>
<path d="m1288 373c7-3 16-2 19 1 4 3-2 6-13 5-11 0-14-3-6-6z"/>
<path d="m4038 373c7-3 16-2 19 1 4 3-2 6-13 5-11 0-14-3-6-6z"/>
<path d="m1348 333c7-3 16-2 19 1 4 3-2 6-13 5-11 0-14-3-6-6z"/>
<path d="m3978 333c7-3 16-2 19 1 4 3-2 6-13 5-11 0-14-3-6-6z"/>
<path d="m1388 313c7-3 16-2 19 1 4 3-2 6-13 5-11 0-14-3-6-6z"/>
<path d="m3938 313c7-3 16-2 19 1 4 3-2 6-13 5-11 0-14-3-6-6z"/>
<path d="m1428 293c7-3 16-2 19 1 4 3-2 6-13 5-11 0-14-3-6-6z"/>
<path d="m3898 293c7-3 16-2 19 1 4 3-2 6-13 5-11 0-14-3-6-6z"/>
<path d="m1468 273c7-3 16-2 19 1 4 3-2 6-13 5-11 0-14-3-6-6z"/>
<path d="m3858 273c7-3 16-2 19 1 4 3-2 6-13 5-11 0-14-3-6-6z"/>
<path d="m1508 253c7-3 16-2 19 1 4 3-2 6-13 5-11 0-14-3-6-6z"/>
<path d="m3818 253c7-3 16-2 19 1 4 3-2 6-13 5-11 0-14-3-6-6z"/>
<path d="m1548 233c7-3 16-2 19 1 4 3-2 6-13 5-11 0-14-3-6-6z"/>
<path d="m3778 233c7-3 16-2 19 1 4 3-2 6-13 5-11 0-14-3-6-6z"/>
<path d="m1588 213c7-3 16-2 19 1 4 3-2 6-13 5-11 0-14-3-6-6z"/>
<path d="m3738 213c7-3 16-2 19 1 4 3-2 6-13 5-11 0-14-3-6-6z"/>
<path d="m1633 193c9-2 23-2 30 0 6 3-1 5-18 5-16 0-22-2-12-5z"/>
<path d="m3683 193c9-2 23-2 30 0 6 3-1 5-18 5-16 0-22-2-12-5z"/>
<path d="m1688 173c7-3 16-2 19 1 4 3-2 6-13 5-11 0-14-3-6-6z"/>
<path d="m3638 173c7-3 16-2 19 1 4 3-2 6-13 5-11 0-14-3-6-6z"/>
<path d="m1733 153c9-2 23-2 30 0 6 3-1 5-18 5-16 0-22-2-12-5z"/>
<path d="m3583 153c9-2 23-2 30 0 6 3-1 5-18 5-16 0-22-2-12-5z"/>
<path d="m1793 133c9-2 23-2 30 0 6 3-1 5-18 5-16 0-22-2-12-5z"/>
<path d="m3523 133c9-2 23-2 30 0 6 3-1 5-18 5-16 0-22-2-12-5z"/>
<path d="m1853 113c9-2 23-2 30 0 6 3-1 5-18 5-16 0-22-2-12-5z"/>
<path d="m3463 113c9-2 23-2 30 0 6 3-1 5-18 5-16 0-22-2-12-5z"/>
<path d="m1918 93c12-2 30-2 40 0 9 3-1 5-23 4-22 0-30-2-17-4z"/>
<path d="m3388 93c12-2 30-2 40 0 9 3-1 5-23 4-22 0-30-2-17-4z"/>
<path d="m1998 73c12-2 30-2 40 0 9 3-1 5-23 4-22 0-30-2-17-4z"/>
<path d="m3308 73c12-2 30-2 40 0 9 3-1 5-23 4-22 0-30-2-17-4z"/>
<path d="m2078 53c12-2 30-2 40 0 9 3-1 5-23 4-22 0-30-2-17-4z"/>
<path d="m3228 53c12-2 30-2 40 0 9 3-1 5-23 4-22 0-30-2-17-4z"/>
<path d="m2168 33c18-2 45-2 60 0s0 4-33 4-45-2-27-4z"/>
<path d="m3118 33c18-2 45-2 60 0s0 4-33 4-45-2-27-4z"/>
<path d="m2293 13c20-2 54-2 75 0 20 2 3 4-38 4s-58-2-37-4z"/>
<path d="m2973 13c20-2 54-2 75 0 20 2 3 4-38 4s-58-2-37-4z"/>
</g>
<g transform="translate(0 240) scale(.04 -.04)" fill="#808080">
<path d="m1944 5478-19-23 23 19c21 18 27 26 19 26-2 0-12-10-23-22z"/>
<path d="m3385 5480c10-11 20-20 23-20s-3 9-13 20-20 20-23 20 3-9 13-20z"/>
<path d="m1884 5438-19-23 23 19c21 18 27 26 19 26-2 0-12-10-23-22z"/>
<path d="m3445 5440c10-11 20-20 23-20s-3 9-13 20-20 20-23 20 3-9 13-20z"/>
<path d="m1824 5398-19-23 23 19c21 18 27 26 19 26-2 0-12-10-23-22z"/>
<path d="m3505 5400c10-11 20-20 23-20s-3 9-13 20-20 20-23 20 3-9 13-20z"/>
<path d="m1764 5358-19-23 23 19c21 18 27 26 19 26-2 0-12-10-23-22z"/>
<path d="m3565 5360c10-11 20-20 23-20s-3 9-13 20-20 20-23 20 3-9 13-20z"/>
<path d="m1884 5338-19-23 23 19c12 11 22 21 22 23 0 8-8 2-26-19z"/>
<path d="m3445 5340c10-11 20-20 23-20s-3 9-13 20-20 20-23 20 3-9 13-20z"/>
<path d="m1704 5318-19-23 23 19c21 18 27 26 19 26-2 0-12-10-23-22z"/>
<path d="m3625 5320c10-11 20-20 23-20s-3 9-13 20-20 20-23 20 3-9 13-20z"/>
<path d="m1824 5298-19-23 23 19c21 18 27 26 19 26-2 0-12-10-23-22z"/>
<path d="m3505 5300c10-11 20-20 23-20s-3 9-13 20-20 20-23 20 3-9 13-20z"/>
<path d="m1649 5283c-13-16-12-17 4-4 9 7 17 15 17 17 0 8-8 3-21-13z"/>
<path d="m1944 5278-19-23 23 19c12 11 22 21 22 23 0 8-8 2-26-19z"/>
<path d="m3385 5280c10-11 20-20 23-20s-3 9-13 20-20 20-23 20 3-9 13-20z"/>
<path d="m3670 5296c0-2 8-10 18-17 15-13 16-12 3 4s-21 21-21 13z"/>
<path d="m1764 5258-19-23 23 19c21 18 27 26 19 26-2 0-12-10-23-22z"/>
<path d="m3565 5260c10-11 20-20 23-20s-3 9-13 20-20 20-23 20 3-9 13-20z"/>
<path d="m1884 5238-19-23 23 19c21 18 27 26 19 26-2 0-12-10-23-22z"/>
<path d="m3445 5240c10-11 20-20 23-20s-3 9-13 20-20 20-23 20 3-9 13-20z"/>
<path d="m1704 5218-19-23 23 19c12 11 22 21 22 23 0 8-8 2-26-19z"/>
<path d="m3625 5220c10-11 20-20 23-20s-3 9-13 20-20 20-23 20 3-9 13-20z"/>
<path d="m1824 5198-19-23 23 19c21 18 27 26 19 26-2 0-12-10-23-22z"/>
<path d="m3505 5200c10-11 20-20 23-20s-3 9-13 20-20 20-23 20 3-9 13-20z"/>
<path d="m1764 5158-19-23 23 19c21 18 27 26 19 26-2 0-12-10-23-22z"/>
<path d="m3565 5160c10-11 20-20 23-20s-3 9-13 20-20 20-23 20 3-9 13-20z"/>
<path d="m1924 5138-19-23 23 19c21 18 27 26 19 26-2 0-12-10-23-22z"/>
<path d="m3405 5140c10-11 20-20 23-20s-3 9-13 20-20 20-23 20 3-9 13-20z"/>
<path d="m1704 5118-19-23 23 19c21 18 27 26 19 26-2 0-12-10-23-22z"/>
<path d="m3625 5120c10-11 20-20 23-20s-3 9-13 20-20 20-23 20 3-9 13-20z"/>
<path d="m1864 5098-19-23 23 19c12 11 22 21 22 23 0 8-8 2-26-19z"/>
<path d="m3465 5100c10-11 20-20 23-20s-3 9-13 20-20 20-23 20 3-9 13-20z"/>
<path d="m1649 5083c-13-16-12-17 4-4 9 7 17 15 17 17 0 8-8 3-21-13z"/>
<path d="m1984 5078-19-23 23 19c21 18 27 26 19 26-2 0-12-10-23-22z"/>
<path d="m3345 5080c10-11 20-20 23-20s-3 9-13 20-20 20-23 20 3-9 13-20z"/>
<path d="m3670 5096c0-2 8-10 18-17 15-13 16-12 3 4s-21 21-21 13z"/>
<path d="m1804 5058-19-23 23 19c21 18 27 26 19 26-2 0-12-10-23-22z"/>
<path d="m3525 5060c10-11 20-20 23-20s-3 9-13 20-20 20-23 20 3-9 13-20z"/>
<path d="m1924 5038-19-23 23 19c21 18 27 26 19 26-2 0-12-10-23-22z"/>
<path d="m3405 5040c10-11 20-20 23-20s-3 9-13 20-20 20-23 20 3-9 13-20z"/>
<path d="m1744 5018-19-23 23 19c21 18 27 26 19 26-2 0-12-10-23-22z"/>
<path d="m3585 5020c10-11 20-20 23-20s-3 9-13 20-20 20-23 20 3-9 13-20z"/>
<path d="m1864 4998-19-23 23 19c21 18 27 26 19 26-2 0-12-10-23-22z"/>
<path d="m3465 5e3c10-11 20-20 23-20s-3 9-13 20-20 20-23 20 3-9 13-20z"/>
<path d="m1684 4978-19-23 23 19c21 18 27 26 19 26-2 0-12-10-23-22z"/>
<path d="m3645 4980c10-11 20-20 23-20s-3 9-13 20-20 20-23 20 3-9 13-20z"/>
<path d="m1804 4958-19-23 23 19c21 18 27 26 19 26-2 0-12-10-23-22z"/>
<path d="m3525 4960c10-11 20-20 23-20s-3 9-13 20-20 20-23 20 3-9 13-20z"/>
<path d="m1744 4918-19-23 23 19c21 18 27 26 19 26-2 0-12-10-23-22z"/>
<path d="m3585 4920c10-11 20-20 23-20s-3 9-13 20-20 20-23 20 3-9 13-20z"/>
<path d="m2044 4458-19-23 23 19c21 18 27 26 19 26-2 0-12-10-23-22z"/>
<path d="m3285 4460c10-11 20-20 23-20s-3 9-13 20-20 20-23 20 3-9 13-20z"/>
<path d="m1984 4418-19-23 23 19c21 18 27 26 19 26-2 0-12-10-23-22z"/>
<path d="m3345 4420c10-11 20-20 23-20s-3 9-13 20-20 20-23 20 3-9 13-20z"/>
<path d="m2104 4398-19-23 23 19c21 18 27 26 19 26-2 0-12-10-23-22z"/>
<path d="m3225 4400c10-11 20-20 23-20s-3 9-13 20-20 20-23 20 3-9 13-20z"/>
<path d="m1924 4378-19-23 23 19c21 18 27 26 19 26-2 0-12-10-23-22z"/>
<path d="m3405 4380c10-11 20-20 23-20s-3 9-13 20-20 20-23 20 3-9 13-20z"/>
<path d="m2044 4358-19-23 23 19c21 18 27 26 19 26-2 0-12-10-23-22z"/>
<path d="m3285 4360c10-11 20-20 23-20s-3 9-13 20-20 20-23 20 3-9 13-20z"/>
<path d="m1864 4338-19-23 23 19c21 18 27 26 19 26-2 0-12-10-23-22z"/>
<path d="m3465 4340c10-11 20-20 23-20s-3 9-13 20-20 20-23 20 3-9 13-20z"/>
<path d="m1984 4318-19-23 23 19c21 18 27 26 19 26-2 0-12-10-23-22z"/>
<path d="m3345 4320c10-11 20-20 23-20s-3 9-13 20-20 20-23 20 3-9 13-20z"/>
<path d="m1804 4298-19-23 23 19c21 18 27 26 19 26-2 0-12-10-23-22z"/>
<path d="m3525 4300c10-11 20-20 23-20s-3 9-13 20-20 20-23 20 3-9 13-20z"/>
<path d="m1924 4278-19-23 23 19c21 18 27 26 19 26-2 0-12-10-23-22z"/>
<path d="m3405 4280c10-11 20-20 23-20s-3 9-13 20-20 20-23 20 3-9 13-20z"/>
<path d="m1864 4238-19-23 23 19c21 18 27 26 19 26-2 0-12-10-23-22z"/>
<path d="m3465 4240c10-11 20-20 23-20s-3 9-13 20-20 20-23 20 3-9 13-20z"/>
<path d="m2105 1478-70-73 73 70c67 64 77 75 69 75-1 0-34-33-72-72z"/>
<path d="m3225 1480c38-38 72-70 74-70 3 0-26 32-64 70-38 39-72 70-74 70-3 0 26-31 64-70z"/>
<path d="m335 1370c10-11 20-20 23-20s-3 9-13 20-20 20-23 20 3-9 13-20z"/>
<path d="m2014 1368-19-23 23 19c21 18 27 26 19 26-2 0-12-10-23-22z"/>
<path d="m3315 1370c10-11 20-20 23-20s-3 9-13 20-20 20-23 20 3-9 13-20z"/>
<path d="m4994 1368-19-23 23 19c12 11 22 21 22 23 0 8-8 2-26-19z"/>
<path d="m395 1270c10-11 20-20 23-20s-3 9-13 20-20 20-23 20 3-9 13-20z"/>
<path d="m4934 1268-19-23 23 19c12 11 22 21 22 23 0 8-8 2-26-19z"/>
<path d="m1850 1217c0-2 15-16 33-33l32-29-29 33c-28 30-36 37-36 29z"/>
<path d="m3454 1188-29-33 33 29c17 17 32 31 32 33 0 8-8 1-36-29z"/>
<path d="m440 1187c0-2 15-16 33-33l32-29-29 33c-28 30-36 37-36 29z"/>
<path d="m4864 1158-29-33 33 29c30 28 37 36 29 36-2 0-16-15-33-32z"/>
<path d="m515 1090c10-11 20-20 23-20s-3 9-13 20-20 20-23 20 3-9 13-20z"/>
<path d="m4814 1088-19-23 23 19c21 18 27 26 19 26-2 0-12-10-23-22z"/>
<path d="m575 1010c21-22 41-40 44-40s-13 18-34 40-41 40-44 40 13-18 34-40z"/>
<path d="m4755 1008-40-43 43 40c23 21 42 40 42 42 0 8-9 0-45-39z"/>
<path d="m780 785c91-91 167-165 170-165s-69 74-160 165-167 165-170 165 69-74 160-165z"/>
<path d="m4550 783-165-168 168 165c92 91 167 166 167 167 0 8-17-9-170-164z"/>
<path d="m1005 580c21-22 41-40 44-40s-13 18-34 40-41 40-44 40 13-18 34-40z"/>
<path d="m4325 578-40-43 43 40c23 21 42 40 42 42 0 8-9 0-45-39z"/>
<path d="m1070 537c0-2 15-16 33-33l32-29-29 33c-28 30-36 37-36 29z"/>
<path d="m4234 508-29-33 33 29c17 17 32 31 32 33 0 8-8 1-36-29z"/>
<path d="m1165 460c10-11 20-20 23-20s-3 9-13 20-20 20-23 20 3-9 13-20z"/>
<path d="m4164 458-19-23 23 19c12 11 22 21 22 23 0 8-8 2-26-19z"/>
<path d="m1225 420c10-11 20-20 23-20s-3 9-13 20-20 20-23 20 3-9 13-20z"/>
<path d="m4104 418-19-23 23 19c21 18 27 26 19 26-2 0-12-10-23-22z"/>
<path d="m1325 360c10-11 20-20 23-20s-3 9-13 20-20 20-23 20 3-9 13-20z"/>
<path d="m4004 358-19-23 23 19c12 11 22 21 22 23 0 8-8 2-26-19z"/>
</g>
<g transform="translate(0 240) scale(.04 -.04)" fill="#009a41">
<path d="m2605 1610c-3-5-21-10-40-10s-37-4-40-10c-3-5-21-10-40-10s-37-4-40-10c-3-5-14-10-24-10-9 0-57-20-106-45-62-31-107-63-152-107-35-34-63-68-63-74s-7-17-15-24c-18-15-65-109-65-131 0-10-4-21-10-24-5-3-10-17-10-30s-4-27-10-30c-5-3-10-17-10-30s-4-27-10-30c-5-3-10-22-10-41 0-54-30-45-59 19-13 28-42 71-65 95-41 43-125 92-157 92-10 0-21 5-24 10-3 6-17 10-30 10s-27 5-30 10c-3 6-19 10-35 10s-32-4-35-10c-3-5-17-10-30-10s-27-4-30-10c-3-5-14-10-23-10-32 0-158-70-195-108-39-40-107-163-107-193 0-10-4-21-10-24-5-3-10-19-10-35s5-32 10-35c6-3 10-26 10-50s5-47 10-50 10-15 10-26c0-42 82-139 140-166 19-9 43-23 52-31 26-22 391-202 410-202 9 0 20-4 23-10 3-5 17-10 30-10s27-4 30-10c3-5 17-10 30-10s27-4 30-10c3-5 17-10 30-10s27-4 30-10c3-5 21-10 40-10s37-4 40-10c3-5 21-10 40-10s37-4 40-10c3-5 21-10 40-10s37-4 40-10c3-5 35-10 70-10s67-4 70-10 52-10 110-10 107-4 110-10c8-13 202-13 210 0 3 6 52 10 110 10s107 4 110 10 35 10 70 10 67 5 70 10c3 6 21 10 40 10s37 5 40 10c3 6 21 10 40 10s37 5 40 10c3 6 21 10 40 10s37 4 40 10c3 5 17 10 30 10s27 5 30 10c3 6 17 10 30 10s27 5 30 10c3 6 17 10 30 10s27 5 30 10c3 6 14 10 23 10 19 0 384 180 410 202 9 8 33 22 52 31 58 27 140 124 140 166 0 11 5 23 10 26 6 3 10 26 10 50s5 47 10 50c6 3 10 19 10 35s-4 32-10 35c-5 3-10 14-10 24 0 30-68 153-107 193-37 38-163 108-195 108-9 0-20 5-23 10-3 6-17 10-30 10s-27 5-30 10c-8 13-62 13-70 0-3-5-17-10-30-10s-27-4-30-10c-3-5-14-10-24-10-32 0-116-49-157-92-23-24-52-67-65-95-29-64-59-73-59-19 0 19-4 38-10 41-5 3-10 17-10 30s-4 27-10 30c-5 3-10 17-10 30s-4 27-10 30c-5 3-10 14-10 24 0 22-47 116-65 131-8 7-15 18-15 24s-28 40-63 74c-45 44-90 76-152 107-49 25-97 45-106 45-10 0-21 5-24 10-3 6-21 10-40 10s-37 5-40 10c-3 6-21 10-40 10s-37 5-40 10c-3 6-33 10-65 10s-62-4-65-10z"/>
</g>
<g transform="translate(0 240) scale(.04 -.04)" fill="#fe0000">
<path d="m130 4135c0-1150 3-1735 10-1735 6 0 10-30 10-70s4-70 10-70 10-22 10-50c0-27 5-50 10-50 6 0 10-22 10-50 0-27 5-50 10-50 6 0 10-18 10-40s5-40 10-40c6 0 10-13 10-30 0-16 5-30 10-30 6 0 10-13 10-30 0-16 5-30 10-30 6 0 10-13 10-30 0-16 5-30 10-30 6 0 10-13 10-30 0-16 5-30 10-30 6 0 10-9 10-20s5-20 10-20c6 0 10-13 10-30 0-16 5-30 10-30 6 0 10-9 10-20s5-20 10-20c6 0 10-9 10-20s5-20 10-20c6 0 10-9 10-20s5-20 10-20c6 0 10-9 10-20s5-20 10-20c6 0 10-9 10-20s5-20 10-20c6 0 10-9 10-20s9-25 20-32 20-21 20-30c0-10 5-18 10-18 6 0 10-9 10-20s9-25 20-32 20-21 20-30c0-10 9-23 20-30s20-20 20-30c0-9 13-28 30-41 16-14 30-32 30-40s18-31 40-51 40-42 40-49c0-19 293-307 313-307 9 0 17-4 17-10 0-5 4-10 9-10 4 0 6 11 3 25-2 14-8 25-13 25s-9 45-9 100c0 60 4 100 10 100s10 14 10 30c0 17 5 30 10 30 6 0 10 9 10 20s5 20 10 20c6 0 10 9 10 20s5 20 10 20c6 0 10 6 10 14 0 17 99 116 116 116 8 0 14 5 14 10 0 6 9 10 20 10s20 5 20 10c0 6 9 10 20 10s20 5 20 10c0 6 14 10 30 10 17 0 30 5 30 10 0 6 14 10 30 10 17 0 30 5 30 10 0 6 40 10 100 10s100-4 100-10c0-5 14-10 30-10 18 0 33-6 36-15 4-8 10-15 15-15s10 618 11 1455c2 800 0 1455-4 1455-5 0-8-4-8-10 0-5-9-10-20-10s-20-5-20-11-14-9-32-7l-33 3-3 342-2 341-30 26-30 25v230c0 218 1 232 20 251 11 11 27 20 35 20s20 9 27 20 21 20 30 20c10 0 23 9 30 20s21 20 30 20c10 0 23 9 30 20s21 20 30 20c10 0 23 9 30 20s21 20 30 20c10 0 23 9 30 20s21 20 30 20c10 0 23 9 30 20s21 20 30 20c10 0 23 9 30 20 13 20 24 20 658 20s645 0 658-20c7-11 20-20 30-20 9 0 23-9 30-20s20-20 30-20c9 0 23-9 30-20s20-20 30-20c9 0 23-9 30-20s20-20 30-20c9 0 23-9 30-20s20-20 30-20c9 0 23-9 30-20s20-20 30-20c9 0 23-9 30-20s19-20 27-20 24-9 35-20c19-19 20-33 20-251v-230l-30-25-30-26-2-341-3-342-32-3c-19-2-33 1-33 7s-9 11-20 11-20 5-20 10c0 6-3 10-7 10-5 0-7-655-5-1455 1-837 6-1455 11-1455s11 7 15 15c3 9 18 15 36 15 16 0 30 5 30 10 0 6 40 10 100 10s100-4 100-10c0-5 14-10 30-10 17 0 30-4 30-10 0-5 14-10 30-10 17 0 30-4 30-10 0-5 9-10 20-10s20-4 20-10c0-5 9-10 20-10s20-4 20-10c0-5 6-10 14-10 17 0 116-99 116-116 0-8 5-14 10-14 6 0 10-9 10-20s5-20 10-20c6 0 10-9 10-20s5-20 10-20c6 0 10-13 10-30 0-16 5-30 10-30 6 0 10-40 10-100 0-55-4-100-9-100s-11-11-13-25c-3-14-1-25 3-25 5 0 9 5 9 10 0 6 8 10 18 10 19 0 312 288 312 308 0 6 18 28 40 48s40 43 40 51 14 26 30 40c17 13 30 32 30 41 0 10 9 23 20 30s20 20 20 30c0 9 9 23 20 30s20 21 20 32 5 20 10 20c6 0 10 8 10 18 0 9 9 23 20 30s20 21 20 32 5 20 10 20c6 0 10 9 10 20s5 20 10 20c6 0 10 9 10 20s5 20 10 20c6 0 10 9 10 20s5 20 10 20c6 0 10 9 10 20s5 20 10 20c6 0 10 9 10 20s5 20 10 20c6 0 10 14 10 30 0 17 5 30 10 30 6 0 10 9 10 20s5 20 10 20c6 0 10 14 10 30 0 17 5 30 10 30 6 0 10 14 10 30 0 17 5 30 10 30 6 0 10 14 10 30 0 17 5 30 10 30 6 0 10 14 10 30 0 17 5 30 10 30 6 0 10 18 10 40s5 40 10 40c6 0 10 23 10 50 0 28 5 50 10 50 6 0 10 23 10 50 0 28 5 50 10 50 6 0 10 30 10 70s4 70 10 70c7 0 10 585 10 1735v1735h-2540-2540v-1735z"/>
</g>
<g transform="translate(0 240) scale(.04 -.04)" fill="#c90000">
<path d="m122 4138 3-1743 2 1738 3 1737h2540 2540l3-1737 2-1738 3 1743 2 1742h-2550-2550l2-1742z"/>
<path d="m2343 5643c180-2 474-2 655 0 180 1 32 2-328 2s-508-1-327-2z"/>
<path d="m1968 5603c6-2 18-2 25 0 6 3 1 5-13 5s-19-2-12-5z"/>
<path d="m3348 5603c6-2 18-2 25 0 6 3 1 5-13 5s-19-2-12-5z"/>
<path d="m1908 5563c6-2 18-2 25 0 6 3 1 5-13 5s-19-2-12-5z"/>
<path d="m3408 5563c6-2 18-2 25 0 6 3 1 5-13 5s-19-2-12-5z"/>
<path d="m1848 5523c6-2 18-2 25 0 6 3 1 5-13 5s-19-2-12-5z"/>
<path d="m3468 5523c6-2 18-2 25 0 6 3 1 5-13 5s-19-2-12-5z"/>
<path d="m1788 5483c6-2 18-2 25 0 6 3 1 5-13 5s-19-2-12-5z"/>
<path d="m3528 5483c6-2 18-2 25 0 6 3 1 5-13 5s-19-2-12-5z"/>
<path d="m1728 5443c6-2 18-2 25 0 6 3 1 5-13 5s-19-2-12-5z"/>
<path d="m3588 5443c6-2 18-2 25 0 6 3 1 5-13 5s-19-2-12-5z"/>
<path d="m1668 5403c6-2 18-2 25 0 6 3 1 5-13 5s-19-2-12-5z"/>
<path d="m3648 5403c6-2 18-2 25 0 6 3 1 5-13 5s-19-2-12-5z"/>
<path d="m1608 5363c6-2 18-2 25 0 6 3 1 5-13 5s-19-2-12-5z"/>
<path d="m3708 5363c6-2 18-2 25 0 6 3 1 5-13 5s-19-2-12-5z"/>
<path d="m1574 5100c0-135 2-190 3-122 2 67 2 177 0 245-1 67-3 12-3-123z"/>
<path d="m3764 5100c0-135 2-190 3-122 2 67 2 177 0 245-1 67-3 12-3-123z"/>
<path d="m1635 4478v-343l30-1c28-1 28-1 3 3l-28 4-3 340-2 339v-342z"/>
<path d="m3702 4483-2-342-32-4-33-4 33-1c18-1 35 4 37 11 3 6 4 163 2 347l-2 335-3-342z"/>
<path d="m1708 4153c6-2 18-2 25 0 6 3 1 5-13 5s-19-2-12-5z"/>
<path d="m1755 2710c0-800 1-1128 2-727 2 400 2 1054 0 1455-1 400-2 72-2-728z"/>
<path d="m3585 2710c0-800 1-1128 2-727 2 400 2 1054 0 1455-1 400-2 72-2-728z"/>
<path d="m3608 4153c6-2 18-2 25 0 6 3 1 5-13 5s-19-2-12-5z"/>
<path d="m143 2330c0-41 2-58 4-37 2 20 2 54 0 75-2 20-4 3-4-38z"/>
<path d="m5193 2330c0-41 2-58 4-37 2 20 2 54 0 75-2 20-4 3-4-38z"/>
<path d="m163 2210c0-30 2-43 4-27 2 15 2 39 0 55-2 15-4 2-4-28z"/>
<path d="m5173 2210c0-30 2-43 4-27 2 15 2 39 0 55-2 15-4 2-4-28z"/>
<path d="m183 2110c0-30 2-43 4-27 2 15 2 39 0 55-2 15-4 2-4-28z"/>
<path d="m5153 2110c0-30 2-43 4-27 2 15 2 39 0 55-2 15-4 2-4-28z"/>
<path d="m203 2020c0-25 2-35 4-22 2 12 2 32 0 45-2 12-4 2-4-23z"/>
<path d="m5133 2020c0-25 2-35 4-22 2 12 2 32 0 45-2 12-4 2-4-23z"/>
<path d="m222 1950c0-19 2-27 5-17 2 9 2 25 0 35-3 9-5 1-5-18z"/>
<path d="m5112 1950c0-19 2-27 5-17 2 9 2 25 0 35-3 9-5 1-5-18z"/>
<path d="m242 1890c0-19 2-27 5-17 2 9 2 25 0 35-3 9-5 1-5-18z"/>
<path d="m5092 1890c0-19 2-27 5-17 2 9 2 25 0 35-3 9-5 1-5-18z"/>
<path d="m262 1830c0-19 2-27 5-17 2 9 2 25 0 35-3 9-5 1-5-18z"/>
<path d="m5072 1830c0-19 2-27 5-17 2 9 2 25 0 35-3 9-5 1-5-18z"/>
<path d="m282 1770c0-19 2-27 5-17 2 9 2 25 0 35-3 9-5 1-5-18z"/>
<path d="m5052 1770c0-19 2-27 5-17 2 9 2 25 0 35-3 9-5 1-5-18z"/>
<path d="m302 1720c0-14 2-19 5-12 2 6 2 18 0 25-3 6-5 1-5-13z"/>
<path d="m5032 1720c0-14 2-19 5-12 2 6 2 18 0 25-3 6-5 1-5-13z"/>
<path d="m322 1670c0-19 2-27 5-17 2 9 2 25 0 35-3 9-5 1-5-18z"/>
<path d="m5012 1670c0-19 2-27 5-17 2 9 2 25 0 35-3 9-5 1-5-18z"/>
<path d="m342 1620c0-14 2-19 5-12 2 6 2 18 0 25-3 6-5 1-5-13z"/>
<path d="m4992 1620c0-14 2-19 5-12 2 6 2 18 0 25-3 6-5 1-5-13z"/>
<path d="m362 1580c0-14 2-19 5-12 2 6 2 18 0 25-3 6-5 1-5-13z"/>
<path d="m4972 1580c0-14 2-19 5-12 2 6 2 18 0 25-3 6-5 1-5-13z"/>
<path d="m382 1540c0-14 2-19 5-12 2 6 2 18 0 25-3 6-5 1-5-13z"/>
<path d="m4952 1540c0-14 2-19 5-12 2 6 2 18 0 25-3 6-5 1-5-13z"/>
<path d="m402 1500c0-14 2-19 5-12 2 6 2 18 0 25-3 6-5 1-5-13z"/>
<path d="m4932 1500c0-14 2-19 5-12 2 6 2 18 0 25-3 6-5 1-5-13z"/>
<path d="m422 1460c0-14 2-19 5-12 2 6 2 18 0 25-3 6-5 1-5-13z"/>
<path d="m4912 1460c0-14 2-19 5-12 2 6 2 18 0 25-3 6-5 1-5-13z"/>
<path d="m442 1420c0-14 2-19 5-12 2 6 2 18 0 25-3 6-5 1-5-13z"/>
<path d="m4892 1420c0-14 2-19 5-12 2 6 2 18 0 25-3 6-5 1-5-13z"/>
<path d="m482 1360c0-14 2-19 5-12 2 6 2 18 0 25-3 6-5 1-5-13z"/>
<path d="m4852 1360c0-14 2-19 5-12 2 6 2 18 0 25-3 6-5 1-5-13z"/>
<path d="m502 1320c0-14 2-19 5-12 2 6 2 18 0 25-3 6-5 1-5-13z"/>
<path d="m4832 1320c0-14 2-19 5-12 2 6 2 18 0 25-3 6-5 1-5-13z"/>
<path d="m1508 1303c28-2 76-2 105 0 28 2 5 3-53 3s-81-1-52-3z"/>
<path d="m3728 1303c28-2 76-2 105 0 28 2 5 3-53 3s-81-1-52-3z"/>
<path d="m1413 1283c9-2 25-2 35 0 9 3 1 5-18 5s-27-2-17-5z"/>
<path d="m1685 1283c16-3 34-10 38-16 6-8 7-7 4 3-2 9-17 16-38 16-31 2-31 1-4-3z"/>
<path d="m3617 1283c-4-3-7-11-7-17 0-7 3-7 8 1 4 6 21 13 37 16l30 4-31 2c-17 0-34-2-37-6z"/>
<path d="m3893 1283c9-2 25-2 35 0 9 3 1 5-18 5s-27-2-17-5z"/>
<path d="m542 1260c0-14 2-19 5-12 2 6 2 18 0 25-3 6-5 1-5-13z"/>
<path d="m4792 1260c0-14 2-19 5-12 2 6 2 18 0 25-3 6-5 1-5-13z"/>
<path d="m1353 1263c9-2 25-2 35 0 9 3 1 5-18 5s-27-2-17-5z"/>
<path d="m3953 1263c9-2 25-2 35 0 9 3 1 5-18 5s-27-2-17-5z"/>
<path d="m1308 1243c6-2 18-2 25 0 6 3 1 5-13 5s-19-2-12-5z"/>
<path d="m4008 1243c6-2 18-2 25 0 6 3 1 5-13 5s-19-2-12-5z"/>
<path d="m1268 1223c6-2 18-2 25 0 6 3 1 5-13 5s-19-2-12-5z"/>
<path d="m4048 1223c6-2 18-2 25 0 6 3 1 5-13 5s-19-2-12-5z"/>
<path d="m582 1200c0-14 2-19 5-12 2 6 2 18 0 25-3 6-5 1-5-13z"/>
<path d="m4752 1200c0-14 2-19 5-12 2 6 2 18 0 25-3 6-5 1-5-13z"/>
<path d="m1228 1203c6-2 18-2 25 0 6 3 1 5-13 5s-19-2-12-5z"/>
<path d="m4088 1203c6-2 18-2 25 0 6 3 1 5-13 5s-19-2-12-5z"/>
<path d="m642 1120c0-14 2-19 5-12 2 6 2 18 0 25-3 6-5 1-5-13z"/>
<path d="m4692 1120c0-14 2-19 5-12 2 6 2 18 0 25-3 6-5 1-5-13z"/>
<path d="m1132 1100c0-14 2-19 5-12 2 6 2 18 0 25-3 6-5 1-5-13z"/>
<path d="m4202 1100c0-14 2-19 5-12 2 6 2 18 0 25-3 6-5 1-5-13z"/>
<path d="m1112 1060c0-14 2-19 5-12 2 6 2 18 0 25-3 6-5 1-5-13z"/>
<path d="m4222 1060c0-14 2-19 5-12 2 6 2 18 0 25-3 6-5 1-5-13z"/>
<path d="m722 1020c0-14 2-19 5-12 2 6 2 18 0 25-3 6-5 1-5-13z"/>
<path d="m1092 1020c0-14 2-19 5-12 2 6 2 18 0 25-3 6-5 1-5-13z"/>
<path d="m4242 1020c0-14 2-19 5-12 2 6 2 18 0 25-3 6-5 1-5-13z"/>
<path d="m4612 1020c0-14 2-19 5-12 2 6 2 18 0 25-3 6-5 1-5-13z"/>
<path d="m1072 970c0-19 2-27 5-17 2 9 2 25 0 35-3 9-5 1-5-18z"/>
<path d="m4262 970c0-19 2-27 5-17 2 9 2 25 0 35-3 9-5 1-5-18z"/>
<path d="m1054 840c0-58 1-81 3-52 2 28 2 76 0 105-2 28-3 5-3-53z"/>
<path d="m4284 840c0-58 1-81 3-52 2 28 2 76 0 105-2 28-3 5-3-53z"/>
<path d="m1072 720c0-14 2-19 5-12 2 6 2 18 0 25-3 6-5 1-5-13z"/>
<path d="m4262 720c0-14 2-19 5-12 2 6 2 18 0 25-3 6-5 1-5-13z"/>
<path d="m1028 703c6-2 18-2 25 0 6 3 1 5-13 5s-19-2-12-5z"/>
<path d="m4288 703c6-2 18-2 25 0 6 3 1 5-13 5s-19-2-12-5z"/>
</g>
<g transform="translate(0 240) scale(.04 -.04)" fill="#302422">
<path d="m1398 5883c699-2 1845-2 2545 0 699 1 127 2-1273 2s-1972-1-1272-2z"/>
<path d="m115 4140c0-954 1-1345 2-867 2 477 2 1257 0 1735-1 477-2 86-2-868z"/>
<path d="m5225 4140c0-954 1-1345 2-867 2 477 2 1257 0 1735-1 477-2 86-2-868z"/>
<path d="m2357 5633c172-2 454-2 626 0 171 1 31 2-313 2s-484-1-313-2z"/>
<path d="m2074 5537c-3-8-4-43-2-78l3-64h595 595v75 75l-593 3c-493 2-593 0-598-11zm1186-67v-70h-590-590v70 70h590 590v-70z"/>
<path d="m1995 5521c-3-7 0-8 9-5 13 5 16-4 16-54 0-45-4-62-15-65-11-4-10-4 2-3 15 1 18 11 18 65 0 61-13 88-30 62z"/>
<path d="m3314 5516c-3-7-4-38-2-67 2-39 7-54 18-55 9 0 10 1 3 3-9 3-13 25-13 65 0 50 3 59 16 54 8-3 12-2 9 4-9 14-25 12-31-4z"/>
<path d="m1908 5463c7-3 16-2 19 1 4 3-2 6-13 5-11 0-14-3-6-6z"/>
<path d="m3418 5463c7-3 16-2 19 1 4 3-2 6-13 5-11 0-14-3-6-6z"/>
<path d="m1848 5423c7-3 16-2 19 1 4 3-2 6-13 5-11 0-14-3-6-6z"/>
<path d="m3478 5423c7-3 16-2 19 1 4 3-2 6-13 5-11 0-14-3-6-6z"/>
<path d="m1788 5383c7-3 16-2 19 1 4 3-2 6-13 5-11 0-14-3-6-6z"/>
<path d="m3538 5383c7-3 16-2 19 1 4 3-2 6-13 5-11 0-14-3-6-6z"/>
<path d="m1958 5373c7-3 16-2 19 1 4 3-2 6-13 5-11 0-14-3-6-6z"/>
<path d="m3368 5373c7-3 16-2 19 1 4 3-2 6-13 5-11 0-14-3-6-6z"/>
<path d="m1918 5353c7-3 16-2 19 1 4 3-2 6-13 5-11 0-14-3-6-6z"/>
<path d="m3408 5353c7-3 16-2 19 1 4 3-2 6-13 5-11 0-14-3-6-6z"/>
<path d="m1728 5343c7-3 16-2 19 1 4 3-2 6-13 5-11 0-14-3-6-6z"/>
<path d="m2074 5337c-3-8-4-47-2-88l3-74h595 595v85 85l-593 3c-490 2-593 0-598-11zm1186-77v-80h-590-590v80 80h590 590v-80z"/>
<path d="m3598 5343c7-3 16-2 19 1 4 3-2 6-13 5-11 0-14-3-6-6z"/>
<path d="m1995 5321c-3-7 0-8 9-5 14 5 16-5 16-64 0-54-3-72-15-75-11-4-10-4 2-3 15 1 18 12 18 75 0 48-4 76-12 78-6 2-14-1-18-6z"/>
<path d="m3314 5316c-3-7-4-42-2-77 2-52 6-64 21-65 12-1 13-1 2 3-12 3-15 21-15 75 0 59 2 69 16 64 8-3 12-2 9 4-9 14-25 12-31-4z"/>
<path d="m1858 5313c7-3 16-2 19 1 4 3-2 6-13 5-11 0-14-3-6-6z"/>
<path d="m3468 5313c7-3 16-2 19 1 4 3-2 6-13 5-11 0-14-3-6-6z"/>
<path d="m1584 5100c0-118 2-167 3-107 2 59 2 155 0 215-1 59-3 10-3-108z"/>
<path d="m1668 5303c7-3 16-2 19 1 4 3-2 6-13 5-11 0-14-3-6-6z"/>
<path d="m3658 5303c7-3 16-2 19 1 4 3-2 6-13 5-11 0-14-3-6-6z"/>
<path d="m3754 5100c0-118 2-167 3-107 2 59 2 155 0 215-1 59-3 10-3-108z"/>
<path d="m1632 5233c-2-53 11-74 31-54 9 9 8 11-5 6-14-6-17 1-21 47l-3 53-2-52z"/>
<path d="m1798 5273c7-3 16-2 19 1 4 3-2 6-13 5-11 0-14-3-6-6z"/>
<path d="m3528 5273c7-3 16-2 19 1 4 3-2 6-13 5-11 0-14-3-6-6z"/>
<path d="m3702 5231c-2-46-4-52-19-46-15 5-16 4-5-6 20-21 34 4 29 57l-3 49-2-54z"/>
<path d="m1908 5263c7-3 16-2 19 1 4 3-2 6-13 5-11 0-14-3-6-6z"/>
<path d="m3418 5263c7-3 16-2 19 1 4 3-2 6-13 5-11 0-14-3-6-6z"/>
<path d="m1738 5233c7-3 16-2 19 1 4 3-2 6-13 5-11 0-14-3-6-6z"/>
<path d="m3588 5233c7-3 16-2 19 1 4 3-2 6-13 5-11 0-14-3-6-6z"/>
<path d="m1848 5223c7-3 16-2 19 1 4 3-2 6-13 5-11 0-14-3-6-6z"/>
<path d="m3478 5223c7-3 16-2 19 1 4 3-2 6-13 5-11 0-14-3-6-6z"/>
<path d="m1788 5183c7-3 16-2 19 1 4 3-2 6-13 5-11 0-14-3-6-6z"/>
<path d="m3538 5183c7-3 16-2 19 1 4 3-2 6-13 5-11 0-14-3-6-6z"/>
<path d="m1958 5153c7-3 16-2 19 1 4 3-2 6-13 5-11 0-14-3-6-6z"/>
<path d="m3368 5153c7-3 16-2 19 1 4 3-2 6-13 5-11 0-14-3-6-6z"/>
<path d="m1728 5143c7-3 16-2 19 1 4 3-2 6-13 5-11 0-14-3-6-6z"/>
<path d="m3598 5143c7-3 16-2 19 1 4 3-2 6-13 5-11 0-14-3-6-6z"/>
<path d="m2070 5124 30-5v-319c0-295-1-319-17-324-14-4-14-4 2-3 20 2 20 10 20 327v325l-32 3c-33 2-33 2-3-4z"/>
<path d="m2155 5117c-3-6-4-154-3-327l3-315h515 515v325 325l-513 3c-407 2-514 0-517-11zm1025-317v-320h-510-510v320 320h510 510v-320z"/>
<path d="m2585 4988c-3-8-4-97-3-198l3-185h85 85v195 195l-83 3c-61 2-84-1-87-10zm165-188v-190h-80-80v190 190h80 80v-190z"/>
<path d="m3235 5117c-3-7-4-154-3-327 3-271 5-315 18-316 9 0 10 1 3 3-10 4-13 77-13 323v319l33 4 32 4-33 1c-18 1-35-4-37-11z"/>
<path d="m1898 5113c7-3 16-2 19 1 4 3-2 6-13 5-11 0-14-3-6-6z"/>
<path d="m3428 5113c7-3 16-2 19 1 4 3-2 6-13 5-11 0-14-3-6-6z"/>
<path d="m1668 5103c7-3 16-2 19 1 4 3-2 6-13 5-11 0-14-3-6-6z"/>
<path d="m2008 5103c7-3 16-2 19 1 4 3-2 6-13 5-11 0-14-3-6-6z"/>
<path d="m3318 5103c7-3 16-2 19 1 4 3-2 6-13 5-11 0-14-3-6-6z"/>
<path d="m3658 5103c7-3 16-2 19 1 4 3-2 6-13 5-11 0-14-3-6-6z"/>
<path d="m1634 5015c1-53 3-60 21-61 14-1 15 0 3 3-13 3-18 18-21 61l-3 57v-60z"/>
<path d="m1838 5073c7-3 16-2 19 1 4 3-2 6-13 5-11 0-14-3-6-6z"/>
<path d="m3488 5073c7-3 16-2 19 1 4 3-2 6-13 5-11 0-14-3-6-6z"/>
<path d="m3702 5023c-2-55-4-62-24-66l-23-4 23-2c29-1 34 13 29 80l-3 54-2-62z"/>
<path d="m1948 5063c7-3 16-2 19 1 4 3-2 6-13 5-11 0-14-3-6-6z"/>
<path d="m3378 5063c7-3 16-2 19 1 4 3-2 6-13 5-11 0-14-3-6-6z"/>
<path d="m1778 5033c7-3 16-2 19 1 4 3-2 6-13 5-11 0-14-3-6-6z"/>
<path d="m3548 5033c7-3 16-2 19 1 4 3-2 6-13 5-11 0-14-3-6-6z"/>
<path d="m1888 5023c7-3 16-2 19 1 4 3-2 6-13 5-11 0-14-3-6-6z"/>
<path d="m3438 5023c7-3 16-2 19 1 4 3-2 6-13 5-11 0-14-3-6-6z"/>
<path d="m1718 4993c7-3 16-2 19 1 4 3-2 6-13 5-11 0-14-3-6-6z"/>
<path d="m3608 4993c7-3 16-2 19 1 4 3-2 6-13 5-11 0-14-3-6-6z"/>
<path d="m1828 4983c7-3 16-2 19 1 4 3-2 6-13 5-11 0-14-3-6-6z"/>
<path d="m3498 4983c7-3 16-2 19 1 4 3-2 6-13 5-11 0-14-3-6-6z"/>
<path d="m1768 4943c7-3 16-2 19 1 4 3-2 6-13 5-11 0-14-3-6-6z"/>
<path d="m3558 4943c7-3 16-2 19 1 4 3-2 6-13 5-11 0-14-3-6-6z"/>
<path d="m1697 4903c-4-3-7-154-7-334 0-326 3-360 33-330 9 9 8 11-5 6-17-7-18 13-18 323 0 306 1 331 18 335 14 4 14 5 1 6-9 0-19-2-22-6z"/>
<path d="m1905 4900c-16-7-17-9-3-9 9-1 20 4 23 9 7 11 7 11-20 0z"/>
<path d="m1952 4743c-2-154-4-172-19-176-17-4-17-5 0-6 10 0 20 5 23 12 2 7 3 87 1 177l-3 165-2-172z"/>
<path d="m3385 4735c0-144 2-170 15-171 8 0 9 1 3 3-9 3-13 51-16 171l-3 167 1-170z"/>
<path d="m3418 4898c5-5 16-8 23-6 8 3 3 7-10 11-17 4-21 3-13-5z"/>
<path d="m3623 4904c16-5 17-30 17-336 0-310-1-330-17-323-15 5-16 4-5-6 29-30 32 9 30 337-3 320-4 329-23 331-16 1-16 1-2-3z"/>
<path d="m1844 4867c-2-7-3-87-1-177l3-165 2 172c2 154 4 172 20 176s16 5-1 6c-10 0-20-5-23-12z"/>
<path d="m3472 4874c16-5 18-25 21-175l3-169-1 172c0 165-1 173-20 175-15 1-16 1-3-3z"/>
<path d="m1644 4490c0-179 2-252 3-162 2 89 2 235 0 325-1 89-3 16-3-163z"/>
<path d="m3694 4490c0-179 2-252 3-162 2 89 2 235 0 325-1 89-3 16-3-163z"/>
<path d="m1876 4541c-4-5 3-7 14-4 23 6 26 13 6 13-8 0-17-4-20-9z"/>
<path d="m3430 4546c0-2 9-6 20-9s18-1 14 4c-5 9-34 13-34 5z"/>
<path d="m2018 4433c7-3 16-2 19 1 4 3-2 6-13 5-11 0-14-3-6-6z"/>
<path d="m3308 4433c7-3 16-2 19 1 4 3-2 6-13 5-11 0-14-3-6-6z"/>
<path d="m2150 4424 30-5 3-1442 2-1442v1445 1445l-32 3c-32 2-33 2-3-4z"/>
<path d="m2235 4418c-3-7-4-650-3-1428l3-1415 25-2c22-1 22-1 3 4l-23 4v1420 1419h430 430v-1419c0-1415 0-1420-20-1424-17-4-16-4 2-3l23 1v1425 1425l-433 3c-341 2-434 0-437-10z"/>
<path d="m3155 4418c-3-7-4-659-3-1448l3-1435 3 1442 2 1442 33 4 32 4-33 1c-18 1-35-4-37-10z"/>
<path d="m1958 4393c7-3 16-2 19 1 4 3-2 6-13 5-11 0-14-3-6-6z"/>
<path d="m3368 4393c7-3 16-2 19 1 4 3-2 6-13 5-11 0-14-3-6-6z"/>
<path d="m2068 4383c7-3 16-2 19 1 4 3-2 6-13 5-11 0-14-3-6-6z"/>
<path d="m3258 4383c7-3 16-2 19 1 4 3-2 6-13 5-11 0-14-3-6-6z"/>
<path d="m1898 4353c7-3 16-2 19 1 4 3-2 6-13 5-11 0-14-3-6-6z"/>
<path d="m3428 4353c7-3 16-2 19 1 4 3-2 6-13 5-11 0-14-3-6-6z"/>
<path d="m2008 4343c7-3 16-2 19 1 4 3-2 6-13 5-11 0-14-3-6-6z"/>
<path d="m3318 4343c7-3 16-2 19 1 4 3-2 6-13 5-11 0-14-3-6-6z"/>
<path d="m1838 4313c7-3 16-2 19 1 4 3-2 6-13 5-11 0-14-3-6-6z"/>
<path d="m3488 4313c7-3 16-2 19 1 4 3-2 6-13 5-11 0-14-3-6-6z"/>
<path d="m1948 4303c7-3 16-2 19 1 4 3-2 6-13 5-11 0-14-3-6-6z"/>
<path d="m3378 4303c7-3 16-2 19 1 4 3-2 6-13 5-11 0-14-3-6-6z"/>
<path d="m1778 4273c7-3 16-2 19 1 4 3-2 6-13 5-11 0-14-3-6-6z"/>
<path d="m3548 4273c7-3 16-2 19 1 4 3-2 6-13 5-11 0-14-3-6-6z"/>
<path d="m1888 4263c7-3 16-2 19 1 4 3-2 6-13 5-11 0-14-3-6-6z"/>
<path d="m3438 4263c7-3 16-2 19 1 4 3-2 6-13 5-11 0-14-3-6-6z"/>
<path d="m2585 4248c-3-8-4-97-3-198l3-185h85 85v195 195l-83 3c-61 2-84-1-87-10zm165-188v-190h-80-80v190 190h80 80v-190z"/>
<path d="m1815 4218c-3-7-4-686-3-1508 3-1422 4-1495 21-1496 12-1 13-1 2 3-13 4-15 171-15 1503 0 1419 1 1499 18 1503 16 4 16 5-1 6-10 0-20-5-22-11z"/>
<path d="m3503 4224c16-5 17-85 17-1504 0-1332-2-1499-15-1503-11-4-10-4 2-3 17 1 18 74 18 1506 0 1497 0 1505-20 1507-16 1-16 1-2-3z"/>
<path d="m1761 4164c0-11 3-14 6-6 3 7 2 16-1 19-3 4-6-2-5-13z"/>
<path d="m3571 4164c0-11 3-14 6-6 3 7 2 16-1 19-3 4-6-2-5-13z"/>
<path d="m2005 4160c-16-7-17-9-3-9 9-1 20 4 23 9 7 11 7 11-20 0z"/>
<path d="m2052 3943c-2-211-4-232-19-236-17-4-17-5 0-6 10 0 20 5 23 12 2 7 3 114 1 237l-2 225-3-232z"/>
<path d="m3285 3935c0-212 1-230 18-231 12-1 13 0 2 3-12 4-15 40-18 231l-3 227 1-230z"/>
<path d="m3318 4158c5-5 16-8 23-6 8 3 3 7-10 11-17 4-21 3-13-5z"/>
<path d="m1765 2705c0-792 1-1115 2-717 2 398 2 1046 0 1440-1 394-2 69-2-723z"/>
<path d="m1944 4127c-2-7-3-114-1-237l2-225 3 232c2 211 4 232 20 236s16 5-1 6c-10 0-20-5-23-12z"/>
<path d="m3372 4134c16-5 18-27 21-235l3-229-1 232c0 225-1 233-20 235-15 1-16 1-3-3z"/>
<path d="m3575 2705c0-792 1-1115 2-717 2 398 2 1046 0 1440-1 394-2 69-2-723z"/>
<path d="m1976 3681c-4-5 3-7 14-4 23 6 26 13 6 13-8 0-17-4-20-9z"/>
<path d="m3330 3686c0-2 9-6 20-9s18-1 14 4c-5 9-34 13-34 5z"/>
<path d="m2005 3500c-16-7-17-9-3-9 9-1 20 4 23 9 7 11 7 11-20 0z"/>
<path d="m2052 3283c-2-211-4-232-19-236-17-4-17-5 0-6 10 0 20 5 23 12 2 7 3 114 1 237l-2 225-3-232z"/>
<path d="m3285 3275c0-212 1-230 18-231 12-1 13 0 2 3-12 4-15 40-18 231l-3 227 1-230z"/>
<path d="m3318 3498c5-5 16-8 23-6 8 3 3 7-10 11-17 4-21 3-13-5z"/>
<path d="m1944 3467c-2-7-3-114-1-237l2-225 3 232c2 211 4 232 20 236s16 5-1 6c-10 0-20-5-23-12z"/>
<path d="m3372 3474c16-5 18-27 21-235l3-229-1 232c0 225-1 233-20 235-15 1-16 1-3-3z"/>
<path d="m1976 3021c-4-5 3-7 14-4 23 6 26 13 6 13-8 0-17-4-20-9z"/>
<path d="m3330 3026c0-2 9-6 20-9s18-1 14 4c-5 9-34 13-34 5z"/>
<path d="m2005 2840c-16-7-17-9-3-9 9-1 20 4 23 9 7 11 7 11-20 0z"/>
<path d="m2052 2623c-2-211-4-232-19-236-17-4-17-5 0-6 10 0 20 5 23 12 2 7 3 114 1 237l-2 225-3-232z"/>
<path d="m3285 2615c0-212 1-230 18-231 12-1 13 0 2 3-12 4-15 40-18 231l-3 227 1-230z"/>
<path d="m3318 2838c5-5 16-8 23-6 8 3 3 7-10 11-17 4-21 3-13-5z"/>
<path d="m1944 2807c-2-7-3-114-1-237l2-225 3 232c2 211 4 232 20 236s16 5-1 6c-10 0-20-5-23-12z"/>
<path d="m3372 2814c16-5 18-27 21-235l3-229-1 232c0 225-1 233-20 235-15 1-16 1-3-3z"/>
<path d="m7 2503c7-5 14-43 16-93l3-85v89c-1 71-4 90-16 93-11 3-11 2-3-4z"/>
<path d="m5314 2497c-3-8-3-49-1-93l3-79 2 87c1 58 6 88 15 91 9 4 9 6-1 6-7 1-15-5-18-12z"/>
<path d="m133 2320c0-30 2-43 4-27 2 15 2 39 0 55-2 15-4 2-4-28z"/>
<path d="m1976 2361c-4-5 3-7 14-4 23 6 26 13 6 13-8 0-17-4-20-9z"/>
<path d="m3330 2366c0-2 9-6 20-9s18-1 14 4c-5 9-34 13-34 5z"/>
<path d="m5203 2320c0-30 2-43 4-27 2 15 2 39 0 55-2 15-4 2-4-28z"/>
<path d="m43 2260c0-36 2-50 4-32 2 17 2 47 0 65-2 17-4 3-4-33z"/>
<path d="m5293 2260c0-36 2-50 4-32 2 17 2 47 0 65-2 17-4 3-4-33z"/>
<path d="m152 2200c0-19 2-27 5-17 2 9 2 25 0 35-3 9-5 1-5-18z"/>
<path d="m5182 2200c0-19 2-27 5-17 2 9 2 25 0 35-3 9-5 1-5-18z"/>
<path d="m2005 2180c-16-7-17-9-3-9 9-1 20 4 23 9 7 11 7 11-20 0z"/>
<path d="m2052 1963c-2-211-4-232-19-236-17-4-17-5 0-6 10 0 20 5 23 12 2 7 3 114 1 237l-2 225-3-232z"/>
<path d="m3285 1955c0-212 1-230 18-231 12-1 13 0 2 3-12 4-15 40-18 231l-3 227 1-230z"/>
<path d="m3318 2178c5-5 16-8 23-6 8 3 3 7-10 11-17 4-21 3-13-5z"/>
<path d="m63 2140c0-25 2-35 4-22 2 12 2 32 0 45-2 12-4 2-4-23z"/>
<path d="m5273 2140c0-25 2-35 4-22 2 12 2 32 0 45-2 12-4 2-4-23z"/>
<path d="m1944 2147c-2-7-3-114-1-237l2-225 3 232c2 211 4 232 20 236s16 5-1 6c-10 0-20-5-23-12z"/>
<path d="m3372 2154c16-5 18-27 21-235l3-229-1 232c0 225-1 233-20 235-15 1-16 1-3-3z"/>
<path d="m172 2100c0-19 2-27 5-17 2 9 2 25 0 35-3 9-5 1-5-18z"/>
<path d="m5162 2100c0-19 2-27 5-17 2 9 2 25 0 35-3 9-5 1-5-18z"/>
<path d="m82 2050c0-19 2-27 5-17 2 9 2 25 0 35-3 9-5 1-5-18z"/>
<path d="m5252 2050c0-19 2-27 5-17 2 9 2 25 0 35-3 9-5 1-5-18z"/>
<path d="m192 2010c0-14 2-19 5-12 2 6 2 18 0 25-3 6-5 1-5-13z"/>
<path d="m5142 2010c0-14 2-19 5-12 2 6 2 18 0 25-3 6-5 1-5-13z"/>
<path d="m102 1970c0-19 2-27 5-17 2 9 2 25 0 35-3 9-5 1-5-18z"/>
<path d="m5232 1970c0-19 2-27 5-17 2 9 2 25 0 35-3 9-5 1-5-18z"/>
<path d="m122 1900c0-14 2-19 5-12 2 6 2 18 0 25-3 6-5 1-5-13z"/>
<path d="m5212 1900c0-14 2-19 5-12 2 6 2 18 0 25-3 6-5 1-5-13z"/>
<path d="m142 1840c0-14 2-19 5-12 2 6 2 18 0 25-3 6-5 1-5-13z"/>
<path d="m5192 1840c0-14 2-19 5-12 2 6 2 18 0 25-3 6-5 1-5-13z"/>
<path d="m162 1780c0-14 2-19 5-12 2 6 2 18 0 25-3 6-5 1-5-13z"/>
<path d="m5172 1780c0-14 2-19 5-12 2 6 2 18 0 25-3 6-5 1-5-13z"/>
<path d="m182 1720c0-14 2-19 5-12 2 6 2 18 0 25-3 6-5 1-5-13z"/>
<path d="m5152 1720c0-14 2-19 5-12 2 6 2 18 0 25-3 6-5 1-5-13z"/>
<path d="m1976 1701c-4-5 3-7 14-4 23 6 26 13 6 13-8 0-17-4-20-9z"/>
<path d="m3330 1706c0-2 9-6 20-9s18-1 14 4c-5 9-34 13-34 5z"/>
<path d="m201 1664c0-11 3-14 6-6 3 7 2 16-1 19-3 4-6-2-5-13z"/>
<path d="m2613 1673c31-2 83-2 115 0 31 2 5 3-58 3s-89-1-57-3z"/>
<path d="m5131 1664c0-11 3-14 6-6 3 7 2 16-1 19-3 4-6-2-5-13z"/>
<path d="m2493 1653c9-2 25-2 35 0 9 3 1 5-18 5s-27-2-17-5z"/>
<path d="m2813 1653c9-2 25-2 35 0 9 3 1 5-18 5s-27-2-17-5z"/>
<path d="m221 1624c0-11 3-14 6-6 3 7 2 16-1 19-3 4-6-2-5-13z"/>
<path d="m2413 1633c9-2 25-2 35 0 9 3 1 5-18 5s-27-2-17-5z"/>
<path d="m2893 1633c9-2 25-2 35 0 9 3 1 5-18 5s-27-2-17-5z"/>
<path d="m5111 1624c0-11 3-14 6-6 3 7 2 16-1 19-3 4-6-2-5-13z"/>
<path d="m2348 1613c6-2 18-2 25 0 6 3 1 5-13 5s-19-2-12-5z"/>
<path d="m2968 1613c6-2 18-2 25 0 6 3 1 5-13 5s-19-2-12-5z"/>
<path d="m242 1580c0-14 2-19 5-12 2 6 2 18 0 25-3 6-5 1-5-13z"/>
<path d="m2298 1593c7-3 16-2 19 1 4 3-2 6-13 5-11 0-14-3-6-6z"/>
<path d="m3028 1593c7-3 16-2 19 1 4 3-2 6-13 5-11 0-14-3-6-6z"/>
<path d="m5092 1580c0-14 2-19 5-12 2 6 2 18 0 25-3 6-5 1-5-13z"/>
<path d="m261 1524c0-11 3-14 6-6 3 7 2 16-1 19-3 4-6-2-5-13z"/>
<path d="m5071 1524c0-11 3-14 6-6 3 7 2 16-1 19-3 4-6-2-5-13z"/>
<path d="m281 1484c0-11 3-14 6-6 3 7 2 16-1 19-3 4-6-2-5-13z"/>
<path d="m5051 1484c0-11 3-14 6-6 3 7 2 16-1 19-3 4-6-2-5-13z"/>
<path d="m2160 1413-65-68 68 65c62 60 72 70 64 70-1 0-32-30-67-67z"/>
<path d="m3170 1415c35-36 67-65 69-65 3 0-24 29-59 65s-67 65-69 65c-3 0 24-29 59-65z"/>
<path d="m301 1444c0-11 3-14 6-6 3 7 2 16-1 19-3 4-6-2-5-13z"/>
<path d="m5031 1444c0-11 3-14 6-6 3 7 2 16-1 19-3 4-6-2-5-13z"/>
<path d="m321 1404c0-11 3-14 6-6 3 7 2 16-1 19-3 4-6-2-5-13z"/>
<path d="m5011 1404c0-11 3-14 6-6 3 7 2 16-1 19-3 4-6-2-5-13z"/>
<path d="m2041 1394c0-11 3-14 6-6 3 7 2 16-1 19-3 4-6-2-5-13z"/>
<path d="m3291 1394c0-11 3-14 6-6 3 7 2 16-1 19-3 4-6-2-5-13z"/>
<path d="m361 1344c0-11 3-14 6-6 3 7 2 16-1 19-3 4-6-2-5-13z"/>
<path d="m4971 1344c0-11 3-14 6-6 3 7 2 16-1 19-3 4-6-2-5-13z"/>
<path d="m2001 1334c0-11 3-14 6-6 3 7 2 16-1 19-3 4-6-2-5-13z"/>
<path d="m3331 1334c0-11 3-14 6-6 3 7 2 16-1 19-3 4-6-2-5-13z"/>
<path d="m2074 1308-19-23 23 19c21 18 27 26 19 26-2 0-12-10-23-22z"/>
<path d="m3255 1310c10-11 20-20 23-20s-3 9-13 20-20 20-23 20 3-9 13-20z"/>
<path d="m381 1304c0-11 3-14 6-6 3 7 2 16-1 19-3 4-6-2-5-13z"/>
<path d="m4951 1304c0-11 3-14 6-6 3 7 2 16-1 19-3 4-6-2-5-13z"/>
<path d="m1981 1294c0-11 3-14 6-6 3 7 2 16-1 19-3 4-6-2-5-13z"/>
<path d="m3351 1294c0-11 3-14 6-6 3 7 2 16-1 19-3 4-6-2-5-13z"/>
<path d="m1523 1293c20-2 54-2 75 0 20 2 3 4-38 4s-58-2-37-4z"/>
<path d="m3743 1293c20-2 54-2 75 0 20 2 3 4-38 4s-58-2-37-4z"/>
<path d="m421 1244c0-11 3-14 6-6 3 7 2 16-1 19-3 4-6-2-5-13z"/>
<path d="m1962 1240c0-14 2-19 5-12 2 6 2 18 0 25-3 6-5 1-5-13z"/>
<path d="m3372 1240c0-14 2-19 5-12 2 6 2 18 0 25-3 6-5 1-5-13z"/>
<path d="m4911 1244c0-11 3-14 6-6 3 7 2 16-1 19-3 4-6-2-5-13z"/>
<path d="m441 1204c0-11 3-14 6-6 3 7 2 16-1 19-3 4-6-2-5-13z"/>
<path d="m4891 1204c0-11 3-14 6-6 3 7 2 16-1 19-3 4-6-2-5-13z"/>
<path d="m1941 1183c-1-14-9-23-23-26l-23-4 23-2c24-1 38 19 29 41-3 7-6 3-6-9z"/>
<path d="m3394 1175c1-13 8-20 24-21 17-1 18-1 3 3-11 2-22 12-24 21-3 12-4 11-3-3z"/>
<path d="m1830 1118c24-27 45-48 47-48 8 0 0 9-44 50l-48 45 45-47z"/>
<path d="m3500 1115c-24-25-42-45-39-45s25 20 49 45 42 45 39 45-25-20-49-45z"/>
<path d="m501 1124c0-11 3-14 6-6 3 7 2 16-1 19-3 4-6-2-5-13z"/>
<path d="m1240 1095c-24-25-42-45-39-45s25 20 49 45 42 45 39 45-25-20-49-45z"/>
<path d="m4090 1098c41-45 50-53 50-45 0 2-21 23-47 47l-48 45 45-47z"/>
<path d="m4831 1124c0-11 3-14 6-6 3 7 2 16-1 19-3 4-6-2-5-13z"/>
<path d="m541 1064c0-11 3-14 6-6 3 7 2 16-1 19-3 4-6-2-5-13z"/>
<path d="m4791 1064c0-11 3-14 6-6 3 7 2 16-1 19-3 4-6-2-5-13z"/>
<path d="m621 964c0-11 3-14 6-6 3 7 2 16-1 19-3 4-6-2-5-13z"/>
<path d="m4711 964c0-11 3-14 6-6 3 7 2 16-1 19-3 4-6-2-5-13z"/>
<path d="m1063 840c0-41 2-58 4-37 2 20 2 54 0 75-2 20-4 3-4-38z"/>
<path d="m4273 840c0-41 2-58 4-37 2 20 2 54 0 75-2 20-4 3-4-38z"/>
<path d="m1082 705c0-16 2-22 5-12 2 9 2 23 0 30-3 6-5-1-5-18z"/>
<path d="m4252 705c0-16 2-22 5-12 2 9 2 23 0 30-3 6-5-1-5-18z"/>
<path d="m958 623c7-3 16-2 19 1 4 3-2 6-13 5-11 0-14-3-6-6z"/>
<path d="m4368 623c7-3 16-2 19 1 4 3-2 6-13 5-11 0-14-3-6-6z"/>
<path d="m1220 568c41-45 50-53 50-45 0 2-21 23-47 47l-48 45 45-47z"/>
<path d="m4110 565c-24-25-42-45-39-45s25 20 49 45 42 45 39 45-25-20-49-45z"/>
<path d="m1058 543c7-3 16-2 19 1 4 3-2 6-13 5-11 0-14-3-6-6z"/>
<path d="m4268 543c7-3 16-2 19 1 4 3-2 6-13 5-11 0-14-3-6-6z"/>
<path d="m1345 480c10-11 20-20 23-20s-3 9-13 20-20 20-23 20 3-9 13-20z"/>
<path d="m3984 478-19-23 23 19c12 11 22 21 22 23 0 8-8 2-26-19z"/>
<path d="m1138 483c7-3 16-2 19 1 4 3-2 6-13 5-11 0-14-3-6-6z"/>
<path d="m4188 483c7-3 16-2 19 1 4 3-2 6-13 5-11 0-14-3-6-6z"/>
<path d="m1198 443c7-3 16-2 19 1 4 3-2 6-13 5-11 0-14-3-6-6z"/>
<path d="m4128 443c7-3 16-2 19 1 4 3-2 6-13 5-11 0-14-3-6-6z"/>
<path d="m1258 403c7-3 16-2 19 1 4 3-2 6-13 5-11 0-14-3-6-6z"/>
<path d="m4068 403c7-3 16-2 19 1 4 3-2 6-13 5-11 0-14-3-6-6z"/>
<path d="m1298 383c7-3 16-2 19 1 4 3-2 6-13 5-11 0-14-3-6-6z"/>
<path d="m4028 383c7-3 16-2 19 1 4 3-2 6-13 5-11 0-14-3-6-6z"/>
<path d="m1358 343c7-3 16-2 19 1 4 3-2 6-13 5-11 0-14-3-6-6z"/>
<path d="m3968 343c7-3 16-2 19 1 4 3-2 6-13 5-11 0-14-3-6-6z"/>
<path d="m1398 323c7-3 16-2 19 1 4 3-2 6-13 5-11 0-14-3-6-6z"/>
<path d="m3928 323c7-3 16-2 19 1 4 3-2 6-13 5-11 0-14-3-6-6z"/>
<path d="m1438 303c7-3 16-2 19 1 4 3-2 6-13 5-11 0-14-3-6-6z"/>
<path d="m3888 303c7-3 16-2 19 1 4 3-2 6-13 5-11 0-14-3-6-6z"/>
<path d="m1478 283c7-3 16-2 19 1 4 3-2 6-13 5-11 0-14-3-6-6z"/>
<path d="m3848 283c7-3 16-2 19 1 4 3-2 6-13 5-11 0-14-3-6-6z"/>
<path d="m1518 263c7-3 16-2 19 1 4 3-2 6-13 5-11 0-14-3-6-6z"/>
<path d="m3808 263c7-3 16-2 19 1 4 3-2 6-13 5-11 0-14-3-6-6z"/>
<path d="m1558 243c7-3 16-2 19 1 4 3-2 6-13 5-11 0-14-3-6-6z"/>
<path d="m3768 243c7-3 16-2 19 1 4 3-2 6-13 5-11 0-14-3-6-6z"/>
<path d="m1598 223c7-3 16-2 19 1 4 3-2 6-13 5-11 0-14-3-6-6z"/>
<path d="m3728 223c7-3 16-2 19 1 4 3-2 6-13 5-11 0-14-3-6-6z"/>
<path d="m1648 203c6-2 18-2 25 0 6 3 1 5-13 5s-19-2-12-5z"/>
<path d="m3668 203c6-2 18-2 25 0 6 3 1 5-13 5s-19-2-12-5z"/>
<path d="m1698 183c7-3 16-2 19 1 4 3-2 6-13 5-11 0-14-3-6-6z"/>
<path d="m3628 183c7-3 16-2 19 1 4 3-2 6-13 5-11 0-14-3-6-6z"/>
<path d="m1748 163c6-2 18-2 25 0 6 3 1 5-13 5s-19-2-12-5z"/>
<path d="m3568 163c6-2 18-2 25 0 6 3 1 5-13 5s-19-2-12-5z"/>
<path d="m1808 143c6-2 18-2 25 0 6 3 1 5-13 5s-19-2-12-5z"/>
<path d="m3508 143c6-2 18-2 25 0 6 3 1 5-13 5s-19-2-12-5z"/>
<path d="m1868 123c6-2 18-2 25 0 6 3 1 5-13 5s-19-2-12-5z"/>
<path d="m3448 123c6-2 18-2 25 0 6 3 1 5-13 5s-19-2-12-5z"/>
<path d="m1933 103c9-2 25-2 35 0 9 3 1 5-18 5s-27-2-17-5z"/>
<path d="m3373 103c9-2 25-2 35 0 9 3 1 5-18 5s-27-2-17-5z"/>
<path d="m2013 83c9-2 25-2 35 0 9 3 1 5-18 5s-27-2-17-5z"/>
<path d="m3293 83c9-2 25-2 35 0 9 3 1 5-18 5s-27-2-17-5z"/>
<path d="m2093 63c9-2 25-2 35 0 9 3 1 5-18 5s-27-2-17-5z"/>
<path d="m3213 63c9-2 25-2 35 0 9 3 1 5-18 5s-27-2-17-5z"/>
<path d="m2183 43c15-2 39-2 55 0 15 2 2 4-28 4s-43-2-27-4z"/>
<path d="m3103 43c15-2 39-2 55 0 15 2 2 4-28 4s-43-2-27-4z"/>
<path d="m2340 23c42-2 78-9 83-16 6-8 7-8 4 3-3 12-21 15-83 16h-79l75-3z"/>
<path d="m2917 23c-4-3-7-11-7-17 0-7 3-7 8 1 4 7 39 13 82 16l75 3-76 2c-42 1-79-1-82-5z"/>
</g>
<g transform="translate(0 240) scale(.04 -.04)" fill="#010100">
<path d="m0 4256c0-1541 2-1745 15-1750 12-4 15-25 15-96 0-57 4-90 11-90 6 0 9-24 8-66-2-44 2-68 10-73s12-24 10-50c-2-27 1-45 10-50 9-6 12-20 9-41-3-22 0-34 9-37 9-4 13-18 11-40-1-21 3-37 11-42s12-18 8-30c-3-13 1-24 10-30 10-5 14-16 10-30-3-13 1-24 10-30 10-5 14-16 10-30-3-13 1-24 10-30 10-5 14-16 10-30-3-14 0-24 9-28 8-3 14-14 14-24s5-19 10-19c6 0 10-9 10-20s5-20 11-20c7 0 9-11 6-26-3-16 0-28 9-31 8-3 14-14 14-24s5-19 10-19c6 0 10-9 10-20s5-20 10-20c6 0 10-9 10-20s5-20 10-20c6 0 10-9 10-20s9-25 20-32 20-21 20-30c0-10 5-18 10-18 6 0 10-9 10-20s9-25 20-32 20-21 20-30c0-10 5-18 10-18 6 0 10-9 10-19 0-11 13-31 30-44 16-14 30-33 30-41 0-9 9-21 20-28s20-20 20-29 18-33 40-53 40-42 40-49c0-16 311-327 328-327 6 0 28-18 48-40s43-40 51-40 26-14 40-30c13-17 32-30 41-30 10 0 23-9 30-20s20-20 30-20c9 0 23-9 30-20s21-20 32-20 20-4 20-10c0-5 8-10 18-10 9 0 23-9 30-20s21-20 32-20 20-4 20-10c0-5 9-10 20-10s20-4 20-10c0-5 9-10 20-10s20-4 20-10c0-5 9-10 20-10s20-4 20-10c0-5 9-10 20-10s20-4 20-10c0-5 9-10 20-10s20-4 20-10c0-5 9-10 19-10s21-6 24-14c3-9 15-12 31-9 15 3 26 1 26-6 0-6 9-11 19-11s21-6 24-14c4-9 14-12 28-9 14 4 25 0 30-10 6-9 17-13 30-10 14 4 25 0 30-10 6-9 17-13 30-10 12 4 25 0 30-8s21-13 40-11 35-2 40-9c5-8 22-12 42-11 22 2 36-2 40-11 3-9 15-12 37-9 20 3 35 0 40-9 6-8 27-12 64-10 35 1 56-2 56-8 0-7 30-11 80-11 62 0 82-3 86-15 5-13 42-15 244-15s239 2 244 15c4 12 24 15 86 15 50 0 80 4 80 11 0 6 21 9 56 8 37-2 58 2 64 10 5 9 20 12 40 9 22-3 34 0 37 9 4 9 18 13 40 11 20-1 37 3 42 11 5 7 21 11 40 9s35 3 40 11 18 12 30 8c13-3 24 1 30 10 5 10 16 14 30 10 13-3 24 1 30 10 5 10 16 14 30 10 14-3 24 0 28 9 3 8 14 14 24 14s19 5 19 11c0 7 11 9 26 6 16-3 28 0 31 9 3 8 14 14 24 14s19 5 19 10c0 6 9 10 20 10s20 5 20 10c0 6 9 10 20 10s20 5 20 10c0 6 9 10 20 10s20 5 20 10c0 6 9 10 20 10s20 5 20 10c0 6 9 10 20 10s20 5 20 10c0 6 9 10 20 10s25 9 32 20 21 20 30 20c10 0 18 5 18 10 0 6 9 10 20 10s25 9 32 20 21 20 30 20c10 0 23 9 30 20s20 20 30 20c9 0 28 14 41 30 14 17 32 30 40 30s31 18 51 40 42 40 49 40c16 0 327 311 327 328 0 6 18 28 40 48s40 44 40 53 9 22 20 29 20 19 20 28c0 8 14 27 30 41 17 13 30 33 30 44 0 10 5 19 10 19 6 0 10 8 10 18 0 9 9 23 20 30s20 21 20 32 5 20 10 20c6 0 10 8 10 18 0 9 9 23 20 30s20 21 20 32 5 20 10 20c6 0 10 9 10 20s5 20 10 20c6 0 10 9 10 20s5 20 10 20c6 0 10 9 10 19s6 21 14 24c9 3 12 15 9 31-3 15-1 26 6 26 6 0 11 9 11 20s5 20 10 20c6 0 10 9 10 19s6 21 14 24c9 4 12 14 9 28-4 14 0 25 10 30 9 6 13 17 10 30-4 14 0 25 10 30 9 6 13 17 10 30-4 14 0 25 10 30 9 6 13 17 10 30-4 12 0 25 8 30s12 21 11 42c-2 22 2 36 11 40 9 3 12 15 9 37-3 21 0 35 9 41 9 5 12 23 10 50-2 26 2 45 10 50s12 29 10 73c-1 42 2 66 8 66 7 0 11 33 11 90 0 71 3 92 15 96 13 5 15 209 15 1750v1744h-2670-2670v-1744zm5218 1622c18-18 17-3461-1-3476-9-8-12-29-9-70 3-43 0-61-11-70-10-9-13-24-10-50 4-27 1-42-10-51-11-8-14-23-10-47s1-40-10-52c-10-11-14-27-10-40 3-14-1-30-12-42-9-10-14-24-10-30s-1-20-10-30-14-24-10-30-1-20-10-30-14-24-10-30-1-20-10-30-14-24-10-30 1-19-7-28c-25-32-38-61-32-76 3-8 1-17-5-20-5-3-37-62-71-131s-66-127-71-131c-5-3-18-24-29-48-10-23-26-49-35-56-8-7-15-18-15-25 0-6-9-20-20-30s-20-23-20-30c0-6-13-24-30-40-16-16-30-34-30-40s-18-29-40-50-40-44-40-50c0-13-297-306-327-323-13-6-27-12-33-12-14 0-13 43 1 57 16 16 15 188-1 207-6 9-9 19-6 24 9 15-60 142-101 184-39 40-169 112-185 102-5-3-18 2-28 11s-24 14-30 10-17-1-26 5c-19 17-189 17-208 0-9-6-20-9-26-5s-20-1-30-10c-16-15-22-15-35-5-13 11-15 175-15 1466 0 919 4 1454 10 1454 5 0 26-9 46-21 68-38 66-51 64 315l-1 329 62 64v232c0 233-4 261-36 261-6 0-20 9-30 20s-23 20-30 20-20 9-30 20-23 20-30 20-20 9-30 20-23 20-30 20-20 9-30 20-23 20-30 20-20 9-30 20-23 20-30 20-20 9-30 20-23 20-28 20c-6 0-18 7-27 15-15 14-98 15-660 15s-645-1-660-15c-9-8-21-15-27-15-5 0-18-9-28-20s-23-20-30-20-20-9-30-20-23-20-30-20-20-9-30-20-23-20-30-20-20-9-30-20-23-20-30-20-20-9-30-20-23-20-30-20-20-9-30-20-24-20-30-20c-32 0-36-28-36-261v-232l62-64-1-329c-2-366-4-353 64-315 20 12 41 21 46 21 6 0 10-535 10-1454 0-1291-2-1455-15-1466-13-10-19-10-35 5-10 9-24 14-30 10s-17-1-26 5c-19 17-189 17-208 0-9-6-20-9-26-5s-20-1-30-10-23-14-28-11c-15 9-142-60-184-101-39-39-112-169-102-185 3-5 0-15-6-24-16-19-17-191-1-207 14-14 15-57 1-57-6 0-20 6-33 12-30 17-327 310-327 323 0 6-18 29-40 50s-40 44-40 50-14 24-30 40c-17 16-30 34-30 40 0 7-9 20-20 30s-20 24-20 30c0 7-7 18-15 25-9 7-25 33-35 56-11 24-24 45-29 48-5 4-37 62-71 131s-66 128-71 131c-6 3-8 12-5 20 6 15-7 44-32 76-8 9-11 22-7 28s-1 20-10 30-14 24-10 30-1 20-10 30-14 24-10 30-1 20-10 30-14 24-10 30-1 20-10 30c-11 12-15 28-12 42 4 13 0 29-10 40-11 12-14 28-10 52s1 39-10 47c-11 9-14 24-10 51 3 26 0 41-10 50-11 9-14 27-11 70 3 41 0 62-9 70-18 15-19 3458-1 3476 17 17 5079 17 5096 0zm-1953-408v-75h-595-595l-3 64c-2 35-1 70 2 78 5 11 105 13 598 11l593-3v-75zm-1240-11c0-59-2-64-22-67-13-2-23-8-23-13s-9-9-20-9-20-4-20-10c0-5-9-10-20-10s-25-9-32-20-21-20-30-20c-10 0-23-9-30-20s-21-20-30-20c-10 0-23-9-30-20s-20-20-30-20c-9 0-24-10-32-22-9-12-19-19-22-15-4 4-12-1-19-10-19-25-35-6-35 43 0 46 25 84 55 84 8 0 20 9 27 20s21 20 30 20c10 0 23 9 30 20s21 20 30 20c10 0 23 9 30 20s21 20 30 20c10 0 23 9 30 20s20 20 30 20c9 0 24 9 32 21s19 18 24 15c6-3 13 1 16 10s12 14 19 11c8-2 12-25 12-68zm1321 56c4-8 10-12 16-9 5 3 16-3 24-15s23-21 32-21c10 0 23-9 30-20s20-20 30-20c9 0 23-9 30-20s20-20 30-20c9 0 23-9 30-20s20-20 30-20c9 0 23-9 30-20s19-20 27-20c30 0 55-38 55-84 0-49-16-68-35-43-7 9-15 14-19 10-3-4-13 3-22 15-8 12-23 22-32 22-10 0-23 9-30 20s-20 20-30 20c-9 0-23 9-30 20s-20 20-30 20c-9 0-23 9-30 20s-21 20-32 20-20 5-20 10c0 6-9 10-20 10s-20 4-20 9-10 11-22 13c-20 3-23 10-26 57-2 29-1 60 2 67 7 18 25 18 32-1zm-81-255v-85h-595-595l-3 74c-2 41-1 80 2 88 5 11 108 13 598 11l593-3v-85zm-1240-11c0-69-1-74-22-77-13-2-23-8-23-13s-9-9-20-9-25-9-32-20-21-20-30-20c-10 0-23-9-30-20s-21-20-30-20c-10 0-23-9-30-20s-21-20-30-20c-10 0-23-9-30-20s-20-20-30-20c-9 0-23-9-32-21-8-12-22-19-33-17-29 5-32 109-3 138 11 11 27 20 35 20s20 9 27 20 21 20 30 20c10 0 23 9 30 20s21 20 30 20c10 0 23 9 30 20s21 20 30 20c10 0 23 9 30 20s20 20 30 20c9 0 24 9 32 21s19 18 24 15c6-3 13 1 16 10s12 14 19 11c8-2 12-27 12-78zm1321 66c4-8 10-12 16-9 5 3 16-3 24-15s23-21 32-21c10 0 23-9 30-20s20-20 30-20c9 0 23-9 30-20s20-20 30-20c9 0 23-9 30-20s20-20 30-20c9 0 23-9 30-20s19-20 27-20 24-9 35-20c29-29 26-133-3-138-11-2-25 5-33 17-9 12-23 21-32 21-10 0-23 9-30 20s-20 20-30 20c-9 0-23 9-30 20s-20 20-30 20c-9 0-23 9-30 20s-20 20-30 20c-9 0-23 9-30 20s-21 20-32 20-20 4-20 9-10 11-22 13c-21 3-23 9-26 67-2 35-1 70 2 77 7 18 25 18 32-1zm-1241-515v-325l-23-3c-12-2-28-12-35-23-6-10-20-19-29-19-10 0-23-9-30-20s-21-20-30-20c-10 0-23-9-30-20s-21-20-30-20c-10 0-23-9-30-20s-21-20-30-20c-10 0-23-9-30-20s-21-20-30-20c-10 0-18-5-18-11s-6-9-12-6c-7 2-18-3-25-12-29-40-33 4-31 335l3 329 23 3c12 2 28 12 35 23 6 10 20 19 29 19 10 0 23 9 30 20s21 20 30 20c10 0 23 9 30 20s21 20 30 20c10 0 23 9 30 20s21 20 30 20c10 0 23 9 30 20s21 20 30 20c10 0 18 5 18 11s14 9 33 7l32-3v-325zm1080 0v-325h-515-515l-3 315c-1 173 0 321 3 327 3 11 110 13 517 11l513-3v-325zm115 320c0-5 8-10 18-10 9 0 23-9 30-20s20-20 30-20c9 0 23-9 30-20s20-20 30-20c9 0 23-9 30-20s20-20 30-20c9 0 23-9 30-20s20-20 30-20c9 0 23-9 29-19 7-11 23-21 35-23l23-3 3-329c2-331-2-375-31-335-7 9-18 14-24 12-7-3-13 0-13 6s-8 11-18 11c-9 0-23 9-30 20s-20 20-30 20c-9 0-23 9-30 20s-20 20-30 20c-9 0-23 9-30 20s-20 20-30 20c-9 0-23 9-30 20s-20 20-30 20c-9 0-23 9-29 19-7 11-23 21-35 23l-23 3-3 315c-1 173 0 320 3 327 5 15 65 18 65 3zm-1112-2132 2-1436-70-68c-38-37-70-74-70-83s-9-22-20-29-20-21-20-32-4-20-10-20c-5 0-10-9-10-19s-6-21-14-24c-9-4-12-14-9-27 4-13 0-25-8-30-7-5-13-21-14-37 0-39-29-42-60-4-14 16-36 31-48 33l-22 3v1505 1505l23 3c12 2 28 12 35 23 6 10 20 19 29 19 10 0 23 9 30 20s21 20 30 20c10 0 23 9 30 20s21 20 30 20c10 0 23 9 30 20s21 20 30 20c10 0 23 9 30 20 9 15 22 20 43 18l30-3 3-1437zm917 12v-1425l-22-3c-13-2-23 1-23 7s-9 11-19 11-21 6-24 14c-4 9-14 12-27 9-13-4-25 0-31 8-5 8-21 12-42 11-22-2-36 2-40 11-3 9-15 12-37 9-19-3-35 0-40 7-10 17-250 17-260 0-5-7-21-10-40-7-22 3-34 0-37-9-4-9-18-13-40-11-21 1-37-3-42-11-6-8-18-12-31-8-13 3-23 0-27-9-3-8-14-14-24-14s-19-5-19-11-10-9-22-7l-23 3-3 1415c-1 778 0 1421 3 1428 3 10 96 12 437 10l433-3v-1425zm123 1410c7-11 20-20 30-20 9 0 23-9 30-20s20-20 30-20c9 0 23-9 30-20s20-20 30-20c9 0 23-9 30-20s20-20 30-20c9 0 23-9 29-19 7-11 23-21 35-23l23-3v-1505-1505l-22-3c-12-2-34-17-48-33-31-38-60-35-60 4-1 16-7 32-14 37-8 5-12 17-8 30 3 13 0 23-9 27-8 3-14 14-14 24s-4 19-10 19c-5 0-10 9-10 20s-9 25-20 32-20 20-20 29-31 46-70 83l-70 68v1432c0 788 3 1436 7 1439 14 15 59 6 71-13zm-483-2800c3-5 21-10 40-10s37-4 40-10c3-5 21-10 40-10s37-4 40-10c3-5 14-10 24-10 40 0 196-90 253-147 32-31 58-63 58-69s7-17 15-24c18-15 65-109 65-131 0-10 5-21 10-24 6-3 10-17 10-30s5-27 10-30c6-3 10-16 10-29 0-12 4-26 9-31 5-6 11-25 13-44 5-54 24-47 57 21 16 35 45 78 64 96 38 36 120 82 148 82 10 0 21 5 24 10 3 6 17 10 30 10s27 5 30 10c8 13 82 13 90 0 3-5 17-10 30-10s27-4 30-10c3-5 14-10 23-10 30 0 157-69 190-103 36-37 102-160 102-188 0-10 5-21 10-24 6-3 10-24 10-45s-4-42-10-45c-5-3-10-26-10-50s-4-47-10-50c-5-3-10-15-10-26 0-42-73-130-130-156-19-9-43-23-52-31-26-22-391-202-410-202-9 0-20-4-23-10-3-5-17-10-30-10s-27-4-30-10c-3-5-17-10-30-10s-27-4-30-10c-3-5-17-10-30-10s-27-4-30-10c-3-5-21-10-40-10s-37-4-40-10c-3-5-21-10-40-10s-37-4-40-10c-3-5-21-10-40-10s-37-4-40-10c-3-5-35-10-70-10s-67-4-70-10-52-10-110-10-107-4-110-10c-8-13-222-13-230 0-3 6-52 10-110 10s-107 4-110 10-35 10-70 10-67 5-70 10c-3 6-21 10-40 10s-37 5-40 10c-3 6-21 10-40 10s-37 5-40 10c-3 6-21 10-40 10s-37 5-40 10c-3 6-17 10-30 10s-27 5-30 10c-3 6-17 10-30 10s-27 5-30 10c-3 6-17 10-30 10s-27 5-30 10c-3 6-14 10-23 10-19 0-384 180-410 202-9 8-33 22-52 31-57 26-130 114-130 156 0 11-4 23-10 26-5 3-10 26-10 50s-4 47-10 50c-13 8-13 82 0 90 6 3 10 14 10 24 0 28 66 151 102 188 33 34 160 103 190 103 9 0 20 5 23 10 3 6 17 10 30 10s27 5 30 10c3 6 24 10 45 10s42-4 45-10c3-5 17-10 30-10s27-4 30-10c3-5 14-10 24-10 28 0 110-46 148-82 19-18 48-61 64-96 33-68 52-75 57-21 2 19 8 38 13 44 5 5 9 19 9 31 0 13 5 26 10 29 6 3 10 17 10 30s5 27 10 30c6 3 10 14 10 24 0 22 47 116 65 131 8 7 15 18 15 24s26 38 58 69c57 57 213 147 253 147 10 0 21 5 24 10 3 6 21 10 40 10s37 5 40 10c3 6 21 10 40 10s37 5 40 10c3 6 37 10 75 10s72-4 75-10z"/>
<path d="m1926 4905c-3-8-15-15-26-15s-20-4-20-10c0-5-7-10-15-10-13 0-15-26-15-175 0-157 7-204 24-160 3 8 15 15 26 15s20 5 20 10c0 6 7 10 15 10 13 0 15 26 15 175 0 157-7 204-24 160z"/>
<path d="m2590 4800v-190h80 80v190 190h-80-80v-190z"/>
<path d="m3390 4745c0-149 2-175 15-175 8 0 15-4 15-10 0-5 9-10 20-10s23-7 26-15c17-44 24 3 24 160 0 149-2 175-15 175-8 0-15 5-15 10 0 6-9 10-20 10s-23 7-26 15c-17 44-24-3-24-160z"/>
<path d="m2026 4165c-3-8-15-15-26-15s-20-4-20-10c0-5-7-10-15-10-13 0-15-33-15-235 0-212 6-266 24-220 3 8 15 15 26 15s20 5 20 10c0 6 7 10 15 10 13 0 15 33 15 235 0 212-6 266-24 220z"/>
<path d="m2026 3505c-3-8-15-15-26-15s-20-4-20-10c0-5-7-10-15-10-13 0-15-33-15-235 0-212 6-266 24-220 3 8 15 15 26 15s20 5 20 10c0 6 7 10 15 10 13 0 15 33 15 235 0 212-6 266-24 220z"/>
<path d="m2026 2845c-3-8-15-15-26-15s-20-4-20-10c0-5-7-10-15-10-13 0-15-33-15-235 0-212 6-266 24-220 3 8 15 15 26 15s20 5 20 10c0 6 7 10 15 10 13 0 15 33 15 235 0 212-6 266-24 220z"/>
<path d="m2026 2185c-3-8-15-15-26-15s-20-4-20-10c0-5-7-10-15-10-13 0-15-33-15-235 0-212 6-266 24-220 3 8 15 15 26 15s20 5 20 10c0 6 7 10 15 10 13 0 15 33 15 235 0 212-6 266-24 220z"/>
<path d="m2590 4060v-190h80 80v190 190h-80-80v-190z"/>
<path d="m3290 3945c0-202 2-235 15-235 8 0 15-4 15-10 0-5 9-10 20-10s23-7 26-15c18-46 24 8 24 220 0 202-2 235-15 235-8 0-15 5-15 10 0 6-9 10-20 10s-23 7-26 15c-18 46-24-8-24-220z"/>
<path d="m3290 3285c0-202 2-235 15-235 8 0 15-4 15-10 0-5 9-10 20-10s23-7 26-15c18-46 24 8 24 220 0 202-2 235-15 235-8 0-15 5-15 10 0 6-9 10-20 10s-23 7-26 15c-18 46-24-8-24-220z"/>
<path d="m3290 2625c0-202 2-235 15-235 8 0 15-4 15-10 0-5 9-10 20-10s23-7 26-15c18-46 24 8 24 220 0 202-2 235-15 235-8 0-15 5-15 10 0 6-9 10-20 10s-23 7-26 15c-18 46-24-8-24-220z"/>
<path d="m3290 1965c0-202 2-235 15-235 8 0 15-4 15-10 0-5 9-10 20-10s23-7 26-15c18-46 24 8 24 220 0 202-2 235-15 235-8 0-15 5-15 10 0 6-9 10-20 10s-23 7-26 15c-18 46-24-8-24-220z"/>
</g>
</g>
</svg>
