<?xml version="1.0" encoding="UTF-8"?>
<!DOCTYPE svg  PUBLIC '-//W3C//DTD SVG 1.1//EN'  'http://www.w3.org/Graphics/SVG/1.1/DTD/svg11.dtd'>
<svg version="1.1" viewBox="0 0 267 300" xmlns="http://www.w3.org/2000/svg">
<g transform="scale(1.25)">
<g transform="translate(0 240) scale(.04 -.04)" fill="#fefefe">
<path d="m210 5851c0-11 5-23 10-26 6-3 10-17 10-30s5-27 10-30c6-3 10-17 10-30s5-27 10-30c6-3 10-17 10-30s5-27 10-30c6-3 10-17 10-30s5-27 10-30c6-3 10-21 10-40s5-37 10-40c6-3 10-17 10-30s5-27 10-30c6-3 10-17 10-30s5-27 10-30c6-3 10-17 10-30s5-27 10-30c6-3 10-17 10-30s5-27 10-30c6-3 10-17 10-30s5-27 10-30c6-3 10-17 10-30s5-27 10-30c6-3 10-17 10-30s5-27 10-30c6-3 10-17 10-30s5-27 10-30c6-3 10-21 10-40s5-37 10-40c6-3 10-21 10-40s5-37 10-40c6-3 10-17 10-30s5-27 10-30c6-3 10-17 10-30s5-27 10-30c6-3 10-17 10-30s5-27 10-30c6-3 10-17 10-30s5-27 10-30c6-3 10-21 10-40s5-37 10-40c6-3 10-17 10-30s5-27 10-30c6-3 10-17 10-30s5-27 10-30c6-3 10-17 10-30s5-27 10-30c6-3 10-21 10-40s5-37 10-40c6-3 10-17 10-30s5-27 10-30c6-3 10-17 10-30s5-27 10-30c6-3 10-17 10-30s5-27 10-30c6-3 10-17 10-30s5-27 10-30c6-3 10-17 10-29 0-33 25-53 45-36 8 7 15 18 15 25 0 6 9 20 20 30s20 23 20 30c0 6 14 24 30 40 17 16 30 34 30 40 0 7 9 20 20 30s20 23 20 30c0 6 14 24 30 40 17 16 30 34 30 40 0 7 9 20 20 30s20 23 20 30 9 20 20 30 20 23 20 30 9 20 20 30 20 23 20 30 9 20 20 30 20 23 20 30c0 6 14 24 30 40 17 16 30 34 30 40 0 7 9 20 20 30s20 23 20 30 9 20 20 30 20 23 20 30c0 6 14 24 30 40 17 16 30 34 30 40 0 7 9 20 20 30s20 23 20 30c0 20 57 67 77 63 10-2 19-14 21-28s8-29 13-34c5-6 9-25 9-42 0-18 5-36 10-39 6-3 10-17 10-30s5-27 10-30c6-3 10-21 10-40s5-37 10-40c6-3 10-21 10-40s5-37 10-40c6-3 10-21 10-40s5-37 10-40c6-3 10-21 10-40s5-37 10-40c6-3 10-21 10-40s5-37 10-40c6-3 10-21 10-40s5-37 10-40c6-3 10-21 10-40s5-37 10-40c6-3 10-17 10-30s5-27 10-30c6-3 10-21 10-40s5-37 10-40c6-3 10-17 10-30s5-27 10-30c6-3 10-21 10-40s5-37 10-40c6-3 10-17 10-30s5-27 10-30c6-3 10-21 10-40s5-37 10-40c6-3 10-17 10-30s5-27 10-30c6-3 10-21 10-40s5-37 10-40c6-3 10-17 10-30s5-27 10-30c6-3 10-21 10-40s5-37 10-40c6-3 10-21 10-40s5-37 10-40c6-3 10-17 10-30s5-27 10-30c6-3 10-22 10-42 0-38 28-113 42-113 4 0 10 11 14 24 3 13 19 36 35 52 16 15 29 33 29 39s12 22 26 36c14 13 34 43 45 66 10 23 23 45 29 48s19 25 29 48c11 23 31 53 45 66 14 14 26 30 26 36 0 7 9 20 20 30s20 23 20 30 9 20 20 30 20 23 20 30 9 20 20 30 20 23 20 30 9 20 20 30 20 23 20 30 9 20 20 30 20 23 20 30 9 20 20 30 20 23 20 30 9 20 20 30 20 23 20 30 9 20 20 30 20 23 20 30c0 17 33 45 53 45 19 0 47-53 47-91 0-15 5-31 10-34 6-3 10-17 10-30s5-27 10-30c6-3 10-21 10-40s5-37 10-40c6-3 10-21 10-40s5-37 10-40 10-21 10-40 5-37 10-40c6-3 10-17 10-30s5-27 10-30c6-3 10-21 10-40s5-37 10-40c6-3 10-17 10-30s5-27 10-30c6-3 10-21 10-40s5-37 10-40c6-3 10-17 10-30s5-27 10-30c6-3 10-21 10-40s5-37 10-40c6-3 10-21 10-40s5-37 10-40c6-3 10-17 10-30s5-27 10-30c6-3 10-17 10-30s5-27 10-30c6-3 10-21 10-40s5-37 10-40c6-3 10-21 10-40s5-37 10-40c6-3 10-21 10-40s5-37 10-40c6-3 10-17 10-30s5-27 10-30c6-3 10-21 10-40s5-37 10-40c6-3 10-17 10-30s5-27 10-30c6-3 10-17 10-30s5-27 10-30c6-3 10-21 10-40s5-37 10-40c6-3 10-21 10-40s5-37 10-40c6-3 10-15 10-26 0-10 4-27 9-37 6-9 12-30 16-45 7-35 23-31 46 12 9 18 24 40 33 50s16 22 16 28c0 5 9 18 20 28s20 23 20 30 9 20 20 30 20 23 20 30c0 6 14 24 30 40 17 16 30 34 30 40 0 7 9 20 20 30s20 23 20 30c0 6 14 24 30 40 17 16 30 34 30 40 0 7 9 20 20 30s20 23 20 30 9 20 20 30 20 23 20 30c0 6 12 22 26 36 14 13 34 42 44 65 11 22 26 47 35 54 8 7 15 18 15 25 0 6 9 20 20 30s20 23 20 28c0 6 7 19 17 29 9 10 21 28 27 40 27 53 76 49 76-6 0-19 5-38 10-41s10-21 10-40 4-37 10-40 10-21 10-40 5-37 10-40c6-3 10-17 10-30s5-27 10-30c6-3 10-21 10-40s4-37 10-40 10-17 10-30 5-27 10-30c6-3 10-21 10-40s5-37 10-40c6-3 10-17 10-30s5-27 10-30c6-3 10-17 10-30s5-27 10-30c6-3 10-17 10-30s5-27 10-30c6-3 10-17 10-30s5-27 10-30c6-3 10-21 10-40s5-37 10-40c6-3 10-21 10-40s5-37 10-40c6-3 10-17 10-30s5-27 10-30c6-3 10-17 10-30s5-27 10-30c6-3 10-21 10-40s5-37 10-40c6-3 10-21 10-40s5-37 10-40c6-3 10-17 10-30s5-27 10-30c6-3 10-17 10-30s5-27 10-30c6-3 10-21 10-40s5-37 10-40c6-3 10-21 10-40s5-37 10-40c6-3 10-21 10-40s5-37 10-40c6-3 10-17 10-30s5-27 10-30c6-3 10-14 10-24 0-19 22-71 31-71 3 0 11 16 19 35 8 20 22 43 32 52s18 21 18 28 9 20 20 30 20 23 20 30 9 20 20 30 20 23 20 30 9 20 20 30 20 23 20 30 9 20 20 30 20 23 20 30c0 6 14 24 30 40 17 16 30 34 30 40 0 7 9 20 20 30s20 23 20 30 9 20 20 30 20 23 20 30 9 20 20 30 20 24 20 30c0 7 7 18 15 25s28 40 44 74c17 33 46 77 65 95 20 19 36 40 36 46 0 17 33 45 52 45 11 0 37-41 75-120 32-66 61-120 66-120 4 0 7 24 7 54s5 58 10 61c6 3 10 35 10 70s5 67 10 70c7 4 10 597 10 1746v1739h-2500c-2468 0-2500 0-2500-19zm620-1851c0-5-4-10-10-10-5 0-10 5-10 10 0 6 5 10 10 10 6 0 10-4 10-10zm2420-1680c0-5-5-10-11-10-5 0-7 5-4 10 3 6 8 10 11 10 2 0 4-4 4-10zm1160-800c0-5-4-10-10-10-5 0-10 5-10 10 0 6 5 10 10 10 6 0 10-4 10-10z"/>
<path d="m2 1247-2-1247 1207 2c665 1 1174 4 1133 6-41 1-79 7-84 12-6 6-34 10-62 10-29 0-56 4-59 10-3 5-21 10-40 10s-37 4-40 10c-3 5-21 10-40 10s-37 4-40 10c-3 5-21 10-40 10s-37 5-40 10c-3 6-17 10-30 10s-27 5-30 10c-3 6-17 10-30 10s-27 5-30 10c-3 6-15 10-25 10-11 0-35 9-55 20s-41 20-48 20c-16 0-303 143-325 162-9 8-33 22-53 31s-42 23-49 32c-7 8-18 15-25 15-6 0-20 9-30 20s-23 20-30 20c-6 0-24 13-40 30-16 16-34 30-40 30s-29 18-50 40-44 40-50 40c-13 0-345 332-345 346 0 5-18 28-40 49s-40 44-40 50c0 7-9 20-20 30s-20 23-20 30c0 6-12 22-26 36-14 13-34 43-45 66-10 23-23 45-29 48-5 3-17 23-26 43-10 20-24 45-32 54-19 22-102 189-102 204 0 7-13 38-30 69-16 31-30 65-30 75 0 11-4 22-10 25-5 3-10 17-10 30s-4 27-10 30c-5 3-10 17-10 30s-4 27-10 30c-5 3-10 17-10 30s-4 27-10 30c-5 3-10 21-10 40s-4 37-10 40c-5 3-10 21-10 40s-4 37-10 40c-5 3-10 26-10 50s-4 47-10 50c-5 3-10 34-10 69 0 34-4 66-10 72-5 5-11 47-12 94-2 47-5-476-6-1163z"/>
<path d="m5330 2356c0-41-4-78-10-81-5-3-10-35-10-70s-4-67-10-70c-5-3-10-21-10-40s-4-37-10-40c-5-3-10-21-10-40s-4-37-10-40c-5-3-10-21-10-40s-4-37-10-40c-5-3-10-17-10-30s-4-27-10-30c-5-3-10-17-10-30s-4-27-10-30c-5-3-10-15-10-25 0-11-9-35-20-55s-20-41-20-48c0-18-170-354-186-368-8-6-14-17-14-24 0-6-9-20-20-30s-20-23-20-30-9-20-20-30-20-23-20-30-9-20-20-30-20-23-20-30c0-6-18-29-40-50s-40-44-40-50c0-13-372-385-386-385-5 0-28-18-49-40s-44-40-50-40c-7 0-20-9-30-20s-23-20-30-20-20-9-30-20-23-20-30-20-20-9-30-20-24-20-30-20c-7 0-18-6-24-14-14-16-350-186-368-186-7 0-28-9-48-20s-44-20-55-20c-10 0-22-4-25-10-3-5-17-10-30-10s-27-4-30-10c-3-5-17-10-30-10s-27-4-30-10c-3-5-17-10-30-10s-27-4-30-10c-3-5-26-10-50-10s-47-5-50-10c-3-6-21-10-40-10s-37-5-40-10c-3-6-30-10-59-10-28 0-56-4-61-9-6-6-39-12-75-13-36-2 474-5 1133-6l1197-2v1215c0 668-2 1215-5 1215s-5-33-5-74z"/>
</g>
<g transform="translate(0 240) scale(.04 -.04)" fill="#e6e6e6">
<path d="m200 5836c0-2 8-10 18-17 15-13 16-12 3 4s-21 21-21 13z"/>
<path d="m220 5783c0-6 8-17 18-24 16-13 16-13 2 6-8 11-16 22-17 24-2 2-3 0-3-6z"/>
<path d="m240 5723c0-6 8-17 18-24 16-13 16-13 2 6-8 11-16 22-17 24-2 2-3 0-3-6z"/>
<path d="m260 5663c0-6 8-17 18-24 16-13 16-13 2 6-8 11-16 22-17 24-2 2-3 0-3-6z"/>
<path d="m280 5603c0-6 8-17 18-24 16-13 16-13 2 6-8 11-16 22-17 24-2 2-3 0-3-6z"/>
<path d="m300 5516c0-2 8-10 18-17 15-13 16-12 3 4s-21 21-21 13z"/>
<path d="m320 5463c0-6 8-17 18-24 16-13 16-13 2 6-8 11-16 22-17 24-2 2-3 0-3-6z"/>
<path d="m340 5403c0-6 8-17 18-24 16-13 16-13 2 6-8 11-16 22-17 24-2 2-3 0-3-6z"/>
<path d="m360 5343c0-6 8-17 18-24 16-13 16-13 2 6-8 11-16 22-17 24-2 2-3 0-3-6z"/>
<path d="m380 5283c0-6 8-17 18-24 16-13 16-13 2 6-8 11-16 22-17 24-2 2-3 0-3-6z"/>
<path d="m400 5223c0-6 8-17 18-24 16-13 16-13 2 6-8 11-16 22-17 24-2 2-3 0-3-6z"/>
<path d="m420 5163c0-6 8-17 18-24 16-13 16-13 2 6-8 11-16 22-17 24-2 2-3 0-3-6z"/>
<path d="m440 5103c0-6 8-17 18-24 16-13 16-13 2 6-8 11-16 22-17 24-2 2-3 0-3-6z"/>
<path d="m460 5043c0-6 8-17 18-24 16-13 16-13 2 6-8 11-16 22-17 24-2 2-3 0-3-6z"/>
<path d="m480 4956c0-2 8-10 18-17 15-13 16-12 3 4s-21 21-21 13z"/>
<path d="m1479 4903-24-28 28 24c25 23 32 31 24 31-2 0-14-12-28-27z"/>
<path d="m1540 4883c0-6 8-17 18-24 16-13 16-13 2 6-8 11-16 22-17 24-2 2-3 0-3-6z"/>
<path d="m500 4876c0-2 8-10 18-17 15-13 16-12 3 4s-21 21-21 13z"/>
<path d="m1434 4838-19-23 23 19c21 18 27 26 19 26-2 0-12-10-23-22z"/>
<path d="m520 4823c0-6 8-17 18-24 16-13 16-13 2 6-8 11-16 22-17 24-2 2-3 0-3-6z"/>
<path d="m1384 4768-29-33 33 29c30 28 37 36 29 36-2 0-16-15-33-32z"/>
<path d="m1560 4796c0-2 8-10 18-17 15-13 16-12 3 4s-21 21-21 13z"/>
<path d="m540 4763c0-6 8-17 18-24 16-13 16-13 2 6-8 11-16 22-17 24-2 2-3 0-3-6z"/>
<path d="m1580 4743c0-6 8-17 18-24 16-13 16-13 2 6-8 11-16 22-17 24-2 2-3 0-3-6z"/>
<path d="m1334 4698-19-23 23 19c21 18 27 26 19 26-2 0-12-10-23-22z"/>
<path d="m560 4703c0-6 8-17 18-24 16-13 16-13 2 6-8 11-16 22-17 24-2 2-3 0-3-6z"/>
<path d="m1294 4638-19-23 23 19c21 18 27 26 19 26-2 0-12-10-23-22z"/>
<path d="m1600 4656c0-2 8-10 18-17 15-13 16-12 3 4s-21 21-21 13z"/>
<path d="m580 4643c0-6 8-17 18-24 16-13 16-13 2 6-8 11-16 22-17 24-2 2-3 0-3-6z"/>
<path d="m1244 4568-29-33 33 29c30 28 37 36 29 36-2 0-16-15-33-32z"/>
<path d="m1620 4576c0-2 8-10 18-17 15-13 16-12 3 4s-21 21-21 13z"/>
<path d="m600 4556c0-2 8-10 18-17 15-13 16-12 3 4s-21 21-21 13z"/>
<path d="m1194 4498-19-23 23 19c21 18 27 26 19 26-2 0-12-10-23-22z"/>
<path d="m620 4503c0-6 8-17 18-24 16-13 16-13 2 6-8 11-16 22-17 24-2 2-3 0-3-6z"/>
<path d="m1640 4496c0-2 8-10 18-17 15-13 16-12 3 4s-21 21-21 13z"/>
<path d="m1154 4438-19-23 23 19c21 18 27 26 19 26-2 0-12-10-23-22z"/>
<path d="m640 4443c0-6 8-17 18-24 16-13 16-13 2 6-8 11-16 22-17 24-2 2-3 0-3-6z"/>
<path d="m1660 4416c0-2 8-10 18-17 15-13 16-12 3 4s-21 21-21 13z"/>
<path d="m1114 4378-19-23 23 19c21 18 27 26 19 26-2 0-12-10-23-22z"/>
<path d="m660 4383c0-6 8-17 18-24 16-13 16-13 2 6-8 11-16 22-17 24-2 2-3 0-3-6z"/>
<path d="m1074 4318-19-23 23 19c21 18 27 26 19 26-2 0-12-10-23-22z"/>
<path d="m1680 4336c0-2 8-10 18-17 15-13 16-12 3 4s-21 21-21 13z"/>
<path d="m680 4296c0-2 8-10 18-17 15-13 16-12 3 4s-21 21-21 13z"/>
<path d="m1024 4248-29-33 33 29c17 17 32 31 32 33 0 8-8 1-36-29z"/>
<path d="m1700 4256c0-2 8-10 18-17 15-13 16-12 3 4s-21 21-21 13z"/>
<path d="m700 4243c0-6 8-17 18-24 16-13 16-13 2 6-8 11-16 22-17 24-2 2-3 0-3-6z"/>
<path d="m974 4178-19-23 23 19c21 18 27 26 19 26-2 0-12-10-23-22z"/>
<path d="m720 4183c0-6 8-17 18-24 16-13 16-13 2 6-8 11-16 22-17 24-2 2-3 0-3-6z"/>
<path d="m1720 4176c0-2 8-10 18-17 15-13 16-12 3 4s-21 21-21 13z"/>
<path d="m924 4108-29-33 33 29c30 28 37 36 29 36-2 0-16-15-33-32z"/>
<path d="m740 4123c0-6 8-17 18-24 16-13 16-13 2 6-8 11-16 22-17 24-2 2-3 0-3-6z"/>
<path d="m1740 4123c0-6 8-17 18-24 16-13 16-13 2 6-8 11-16 22-17 24-2 2-3 0-3-6z"/>
<path d="m2649 4093c-13-16-12-17 4-4s21 21 13 21c-2 0-10-8-17-17z"/>
<path d="m2700 4076c0-2 8-10 18-17 15-13 16-12 3 4s-21 21-21 13z"/>
<path d="m760 4063c0-6 8-17 18-24 16-13 16-13 2 6-8 11-16 22-17 24-2 2-3 0-3-6z"/>
<path d="m874 4038-19-23 23 19c21 18 27 26 19 26-2 0-12-10-23-22z"/>
<path d="m2614 4038-19-23 23 19c12 11 22 21 22 23 0 8-8 2-26-19z"/>
<path d="m1760 4036c0-2 8-10 18-17 15-13 16-12 3 4s-21 21-21 13z"/>
<path d="m780 4003c0-6 9-18 20-28 20-18 21-18 43 5l22 24-23-19c-24-20-24-20-43 4-10 13-19 19-19 14z"/>
<path d="m810 4e3c0-5 5-10 10-10 6 0 10 5 10 10 0 6-4 10-10 10-5 0-10-4-10-10z"/>
<path d="m2574 3978-19-23 23 19c12 11 22 21 22 23 0 8-8 2-26-19z"/>
<path d="m2720 3996c0-2 8-10 18-17 15-13 16-12 3 4s-21 21-21 13z"/>
<path d="m1780 3983c0-6 8-17 18-24 16-13 16-13 2 6-8 11-16 22-17 24-2 2-3 0-3-6z"/>
<path d="m2740 3943c0-6 8-17 18-24 16-13 16-13 2 6-8 11-16 22-17 24-2 2-3 0-3-6z"/>
<path d="m2534 3918-19-23 23 19c21 18 27 26 19 26-2 0-12-10-23-22z"/>
<path d="m1800 3896c0-2 8-10 18-17 15-13 16-12 3 4s-21 21-21 13z"/>
<path d="m2494 3858-19-23 23 19c21 18 27 26 19 26-2 0-12-10-23-22z"/>
<path d="m2760 3856c0-2 8-10 18-17 15-13 16-12 3 4s-21 21-21 13z"/>
<path d="m1820 3843c0-6 8-17 18-24 16-13 16-13 2 6-8 11-16 22-17 24-2 2-3 0-3-6z"/>
<path d="m2454 3798-19-23 23 19c21 18 27 26 19 26-2 0-12-10-23-22z"/>
<path d="m2780 3776c0-2 8-10 18-17 15-13 16-12 3 4s-21 21-21 13z"/>
<path d="m1840 3756c0-2 8-10 18-17 15-13 16-12 3 4s-21 21-21 13z"/>
<path d="m2414 3738-19-23 23 19c21 18 27 26 19 26-2 0-12-10-23-22z"/>
<path d="m1860 3703c0-6 8-17 18-24 16-13 16-13 2 6-8 11-16 22-17 24-2 2-3 0-3-6z"/>
<path d="m2374 3678-19-23 23 19c21 18 27 26 19 26-2 0-12-10-23-22z"/>
<path d="m2800 3696c0-2 8-10 18-17 15-13 16-12 3 4s-21 21-21 13z"/>
<path d="m2820 3643c0-6 8-17 18-24 16-13 16-13 2 6-8 11-16 22-17 24-2 2-3 0-3-6z"/>
<path d="m2334 3618-19-23 23 19c21 18 27 26 19 26-2 0-12-10-23-22z"/>
<path d="m1880 3616c0-2 8-10 18-17 15-13 16-12 3 4s-21 21-21 13z"/>
<path d="m2284 3548-29-33 33 29c30 28 37 36 29 36-2 0-16-15-33-32z"/>
<path d="m1900 3563c0-6 8-17 18-24 16-13 16-13 2 6-8 11-16 22-17 24-2 2-3 0-3-6z"/>
<path d="m2840 3556c0-2 8-10 18-17 15-13 16-12 3 4s-21 21-21 13z"/>
<path d="m2860 3503c0-6 8-17 18-24 16-13 16-13 2 6-8 11-16 22-17 24-2 2-3 0-3-6z"/>
<path d="m1920 3476c0-2 8-10 18-17 15-13 16-12 3 4s-21 21-21 13z"/>
<path d="m2214 3438-19-23 23 19c21 18 27 26 19 26-2 0-12-10-23-22z"/>
<path d="m2880 3416c0-2 8-10 18-17 15-13 16-12 3 4s-21 21-21 13z"/>
<path d="m1940 3396c0-2 8-10 18-17 15-13 16-12 3 4s-21 21-21 13z"/>
<path d="m2900 3363c0-6 8-17 18-24 16-13 16-13 2 6-8 11-16 22-17 24-2 2-3 0-3-6z"/>
<path d="m2144 3328-29-33 33 29c30 28 37 36 29 36-2 0-16-15-33-32z"/>
<path d="m1960 3343c0-6 8-17 18-24 16-13 16-13 2 6-8 11-16 22-17 24-2 2-3 0-3-6z"/>
<path d="m2084 3248-29-33 33 29c17 17 32 31 32 33 0 8-8 1-36-29z"/>
<path d="m2920 3276c0-2 8-10 18-17 15-13 16-12 3 4s-21 21-21 13z"/>
<path d="m2940 3196c0-2 8-10 18-17 15-13 16-12 3 4s-21 21-21 13z"/>
<path d="m3849 3173c-13-16-12-17 4-4s21 21 13 21c-2 0-10-8-17-17z"/>
<path d="m2960 3143c0-6 8-17 18-24 16-13 16-13 2 6-8 11-16 22-17 24-2 2-3 0-3-6z"/>
<path d="m3814 3118-19-23 23 19c12 11 22 21 22 23 0 8-8 2-26-19z"/>
<path d="m3900 3116c0-2 8-10 18-17 15-13 16-12 3 4s-21 21-21 13z"/>
<path d="m2980 3083c0-6 8-17 18-24 16-13 16-13 2 6-8 11-16 22-17 24-2 2-3 0-3-6z"/>
<path d="m3774 3058-19-23 23 19c12 11 22 21 22 23 0 8-8 2-26-19z"/>
<path d="m3920 3036c0-2 8-10 18-17 15-13 16-12 3 4s-21 21-21 13z"/>
<path d="m3734 2998-19-23 23 19c21 18 27 26 19 26-2 0-12-10-23-22z"/>
<path d="m3e3 2996c0-2 8-10 18-17 15-13 16-12 3 4s-21 21-21 13z"/>
<path d="m3940 2956c0-2 8-10 18-17 15-13 16-12 3 4s-21 21-21 13z"/>
<path d="m3020 2916c0-2 8-10 18-17 15-13 16-12 3 4s-21 21-21 13z"/>
<path d="m3664 2888-29-33 33 29c17 17 32 31 32 33 0 8-8 1-36-29z"/>
<path d="m3960 2903c0-6 8-17 18-24 16-13 16-13 2 6-8 11-16 22-17 24-2 2-3 0-3-6z"/>
<path d="m3040 2836c0-2 8-10 18-17 15-13 16-12 3 4s-21 21-21 13z"/>
<path d="m3614 2818-19-23 23 19c21 18 27 26 19 26-2 0-12-10-23-22z"/>
<path d="m3980 2816c0-2 8-10 18-17 15-13 16-12 3 4s-21 21-21 13z"/>
<path d="m3060 2783c0-6 8-17 18-24 16-13 16-13 2 6-8 11-16 22-17 24-2 2-3 0-3-6z"/>
<path d="m3574 2758-19-23 23 19c21 18 27 26 19 26-2 0-12-10-23-22z"/>
<path d="m4e3 2763c0-6 8-17 18-24 16-13 16-13 2 6-8 11-16 22-17 24-2 2-3 0-3-6z"/>
<path d="m3524 2688-29-33 33 29c17 17 32 31 32 33 0 8-8 1-36-29z"/>
<path d="m3080 2696c0-2 8-10 18-17 15-13 16-12 3 4s-21 21-21 13z"/>
<path d="m4020 2676c0-2 8-10 18-17 15-13 16-12 3 4s-21 21-21 13z"/>
<path d="m3100 2643c0-6 8-17 18-24 16-13 16-13 2 6-8 11-16 22-17 24-2 2-3 0-3-6z"/>
<path d="m3474 2618-19-23 23 19c21 18 27 26 19 26-2 0-12-10-23-22z"/>
<path d="m4040 2623c0-6 8-17 18-24 16-13 16-13 2 6-8 11-16 22-17 24-2 2-3 0-3-6z"/>
<path d="m3120 2583c0-6 8-17 18-24 16-13 16-13 2 6-8 11-16 22-17 24-2 2-3 0-3-6z"/>
<path d="m3424 2548-29-33 33 29c17 17 32 31 32 33 0 8-8 1-36-29z"/>
<path d="m4060 2563c0-6 8-17 18-24 16-13 16-13 2 6-8 11-16 22-17 24-2 2-3 0-3-6z"/>
<path d="m4080 2503c0-6 8-17 18-24 16-13 16-13 2 6-8 11-16 22-17 24-2 2-3 0-3-6z"/>
<path d="m6 2487c3-10 9-15 12-12s0 11-7 18c-10 9-11 8-5-6z"/>
<path d="m3140 2496c0-2 8-10 18-17 15-13 16-12 3 4s-21 21-21 13z"/>
<path d="m3374 2478-19-23 23 19c12 11 22 21 22 23 0 8-8 2-26-19z"/>
<path d="m4100 2443c0-6 8-17 18-24 16-13 16-13 2 6-8 11-16 22-17 24-2 2-3 0-3-6z"/>
<path d="m3334 2418-19-23 23 19c12 11 22 21 22 23 0 8-8 2-26-19z"/>
<path d="m5325 2429c-4-6-5-12-2-15 2-3 7 2 10 11 7 17 1 20-8 4z"/>
<path d="m3160 2416c0-2 8-10 18-17 15-13 16-12 3 4s-21 21-21 13z"/>
<path d="m5199 2383c-13-16-12-17 4-4 9 7 17 15 17 17 0 8-8 3-21-13z"/>
<path d="m3294 2358-19-23 23 19c21 18 27 26 19 26-2 0-12-10-23-22z"/>
<path d="m3180 2363c0-6 8-17 18-24 16-13 16-13 2 6-8 11-16 22-17 24-2 2-3 0-3-6z"/>
<path d="m4989 2353c-13-16-12-17 4-4 9 7 17 15 17 17 0 8-8 3-21-13z"/>
<path d="m4120 2356c0-2 8-10 18-17 15-13 16-12 3 4s-21 21-21 13z"/>
<path d="m10 2326c0-2 8-10 18-17 15-13 16-12 3 4s-21 21-21 13z"/>
<path d="m3235 2320c-3-5-1-10 4-10 6 0 11 5 11 10 0 6-2 10-4 10-3 0-8-4-11-10z"/>
<path d="m3259 2303c-13-16-12-17 4-4s21 21 13 21c-2 0-10-8-17-17z"/>
<path d="m4935 2278-40-43 43 40c23 21 42 40 42 42 0 8-9 0-45-39z"/>
<path d="m3200 2301c0-6 4-13 10-16s7 1 4 9c-7 18-14 21-14 7z"/>
<path d="m5309 2273c-13-16-12-17 4-4s21 21 13 21c-2 0-10-8-17-17z"/>
<path d="m4140 2276c0-2 8-10 18-17 15-13 16-12 3 4s-21 21-21 13z"/>
<path d="m5179 2243c-13-16-12-17 4-4s21 21 13 21c-2 0-10-8-17-17z"/>
<path d="m4160 2223c0-6 8-17 18-24 16-13 16-13 2 6-8 11-16 22-17 24-2 2-3 0-3-6z"/>
<path d="m4180 2163c0-6 8-17 18-24 16-13 16-13 2 6-8 11-16 22-17 24-2 2-3 0-3-6z"/>
<path d="m4834 2118-19-23 23 19c12 11 22 21 22 23 0 8-8 2-26-19z"/>
<path d="m50 2086c0-2 8-10 18-17 15-13 16-12 3 4s-21 21-21 13z"/>
<path d="m4200 2076c0-2 8-10 18-17 15-13 16-12 3 4s-21 21-21 13z"/>
<path d="m4794 2058-19-23 23 19c12 11 22 21 22 23 0 8-8 2-26-19z"/>
<path d="m5269 2053c-13-16-12-17 4-4s21 21 13 21c-2 0-10-8-17-17z"/>
<path d="m4754 1998-19-23 23 19c21 18 27 26 19 26-2 0-12-10-23-22z"/>
<path d="m70 2006c0-2 8-10 18-17 15-13 16-12 3 4s-21 21-21 13z"/>
<path d="m4220 1996c0-2 8-10 18-17 15-13 16-12 3 4s-21 21-21 13z"/>
<path d="m5249 1973c-13-16-12-17 4-4s21 21 13 21c-2 0-10-8-17-17z"/>
<path d="m4714 1938-19-23 23 19c12 11 22 21 22 23 0 8-8 2-26-19z"/>
<path d="m4240 1943c0-6 8-17 18-24 16-13 16-13 2 6-8 11-16 22-17 24-2 2-3 0-3-6z"/>
<path d="m101 1913c7-12 15-20 18-17 3 2-3 12-13 22-17 16-18 16-5-5z"/>
<path d="m5230 1895c-7-9-11-17-9-20 3-2 10 5 17 15 14 24 10 26-8 5z"/>
<path d="m4664 1868-29-33 33 29c30 28 37 36 29 36-2 0-16-15-33-32z"/>
<path d="m4260 1883c0-6 8-17 18-24 16-13 16-13 2 6-8 11-16 22-17 24-2 2-3 0-3-6z"/>
<path d="m121 1853c7-12 15-20 18-17 3 2-3 12-13 22-17 16-18 16-5-5z"/>
<path d="m5210 1835c-7-9-11-17-9-20 3-2 10 5 17 15 14 24 10 26-8 5z"/>
<path d="m4614 1798-19-23 23 19c12 11 22 21 22 23 0 8-8 2-26-19z"/>
<path d="m141 1793c7-12 15-20 18-17 3 2-3 12-13 22-17 16-18 16-5-5z"/>
<path d="m4280 1796c0-2 8-10 18-17 15-13 16-12 3 4s-21 21-21 13z"/>
<path d="m5190 1775c-7-9-11-17-9-20 3-2 10 5 17 15 14 24 10 26-8 5z"/>
<path d="m4574 1738-19-23 23 19c12 11 22 21 22 23 0 8-8 2-26-19z"/>
<path d="m161 1733c7-12 15-20 18-17 3 2-3 12-13 22-17 16-18 16-5-5z"/>
<path d="m5169 1713c-13-16-12-17 4-4s21 21 13 21c-2 0-10-8-17-17z"/>
<path d="m4300 1716c0-2 8-10 18-17 15-13 16-12 3 4s-21 21-21 13z"/>
<path d="m4534 1678-19-23 23 19c12 11 22 21 22 23 0 8-8 2-26-19z"/>
<path d="m170 1686c0-2 8-10 18-17 15-13 16-12 3 4s-21 21-21 13z"/>
<path d="m5145 1669c-4-6-5-12-2-15 2-3 7 2 10 11 7 17 1 20-8 4z"/>
<path d="m4320 1636c0-2 8-10 18-17 15-13 16-12 3 4s-21 21-21 13z"/>
<path d="m4494 1618-19-23 23 19c12 11 22 21 22 23 0 8-8 2-26-19z"/>
<path d="m5129 1613c-13-16-12-17 4-4 9 7 17 15 17 17 0 8-8 3-21-13z"/>
<path d="m226 1587c3-10 9-15 12-12s0 11-7 18c-10 9-11 8-5-6z"/>
<path d="m4340 1583c0-6 8-17 18-24 16-13 16-13 2 6-8 11-16 22-17 24-2 2-3 0-3-6z"/>
<path d="m4454 1558-19-23 23 19c21 18 27 26 19 26-2 0-12-10-23-22z"/>
<path d="m230 1546c0-2 8-10 18-17 15-13 16-12 3 4s-21 21-21 13z"/>
<path d="m4360 1521c0-6 4-13 10-16s7 1 4 9c-7 18-14 21-14 7z"/>
<path d="m4390 1520c0-5 5-10 10-10 6 0 10 5 10 10 0 6-4 10-10 10-5 0-10-4-10-10z"/>
<path d="m335 1360c10-11 20-20 23-20s-3 9-13 20-20 20-23 20 3-9 13-20z"/>
<path d="m4954 1278-19-23 23 19c21 18 27 26 19 26-2 0-12-10-23-22z"/>
<path d="m395 1260c10-11 20-20 23-20s-3 9-13 20-20 20-23 20 3-9 13-20z"/>
<path d="m4914 1218-19-23 23 19c21 18 27 26 19 26-2 0-12-10-23-22z"/>
<path d="m440 1177c0-2 15-16 33-33l32-29-29 33c-28 30-36 37-36 29z"/>
<path d="m4874 1158-19-23 23 19c21 18 27 26 19 26-2 0-12-10-23-22z"/>
<path d="m4834 1098-19-23 23 19c21 18 27 26 19 26-2 0-12-10-23-22z"/>
<path d="m515 1080c10-11 20-20 23-20s-3 9-13 20-20 20-23 20 3-9 13-20z"/>
<path d="m4775 1018-40-43 43 40c23 21 42 40 42 42 0 8-9 0-45-39z"/>
<path d="m575 1e3c21-22 41-40 44-40s-13 18-34 40-41 40-44 40 13-18 34-40z"/>
<path d="m4555 778-180-183 183 180c100 99 182 181 182 182 0 8-18-10-185-179z"/>
<path d="m775 780c88-88 162-160 165-160s-67 72-155 160-162 160-165 160 67-72 155-160z"/>
<path d="m995 580c21-22 41-40 44-40s-13 18-34 40-41 40-44 40 13-18 34-40z"/>
<path d="m4315 558-40-43 43 40c23 21 42 40 42 42 0 8-9 0-45-39z"/>
<path d="m1060 537c0-2 15-16 33-33l32-29-29 33c-28 30-36 37-36 29z"/>
<path d="m4234 498-19-23 23 19c12 11 22 21 22 23 0 8-8 2-26-19z"/>
<path d="m1155 460c10-11 20-20 23-20s-3 9-13 20-20 20-23 20 3-9 13-20z"/>
<path d="m4174 458-19-23 23 19c12 11 22 21 22 23 0 8-8 2-26-19z"/>
<path d="m1215 420c10-11 20-20 23-20s-3 9-13 20-20 20-23 20 3-9 13-20z"/>
<path d="m4114 418-19-23 23 19c12 11 22 21 22 23 0 8-8 2-26-19z"/>
<path d="m4054 378-19-23 23 19c12 11 22 21 22 23 0 8-8 2-26-19z"/>
<path d="m1315 360c10-11 20-20 23-20s-3 9-13 20-20 20-23 20 3-9 13-20z"/>
<path d="m1600 216c0-2 8-10 18-17 15-13 16-12 3 4s-21 21-21 13z"/>
<path d="m3719 203c-13-16-12-17 4-4 9 7 17 15 17 17 0 8-8 3-21-13z"/>
<path d="m1650 196c0-2 7-7 16-10 8-3 12-2 9 4-6 10-25 14-25 6z"/>
<path d="m3665 190c-3-6 1-7 9-4 18 7 21 14 7 14-6 0-13-4-16-10z"/>
<path d="m1700 176c0-2 8-10 18-17 15-13 16-12 3 4s-21 21-21 13z"/>
<path d="m3619 163c-13-16-12-17 4-4 9 7 17 15 17 17 0 8-8 3-21-13z"/>
<path d="m1751 157c2-1 13-9 24-17 19-14 19-14 6 3-7 9-18 17-24 17s-8-1-6-3z"/>
<path d="m3559 143c-13-17-13-17 6-3 11 8 22 16 24 17 2 2 0 3-6 3s-17-8-24-17z"/>
<path d="m1811 137c2-1 13-9 24-17 19-14 19-14 6 3-7 9-18 17-24 17s-8-1-6-3z"/>
<path d="m3499 123c-13-17-13-17 6-3 11 8 22 16 24 17 2 2 0 3-6 3s-17-8-24-17z"/>
<path d="m1871 117c2-1 13-9 24-17 19-14 19-14 6 3-7 9-18 17-24 17s-8-1-6-3z"/>
<path d="m3439 103c-13-17-13-17 6-3 11 8 22 16 24 17 2 2 0 3-6 3s-17-8-24-17z"/>
<path d="m1960 96c0-2 8-10 18-17 15-13 16-12 3 4s-21 21-21 13z"/>
<path d="m3379 83c-13-17-13-17 6-3 11 8 22 16 24 17 2 2 0 3-6 3s-17-8-24-17z"/>
<path d="m2040 76c0-2 8-10 18-17 15-13 16-12 3 4s-21 21-21 13z"/>
<path d="m3279 63c-13-16-12-17 4-4s21 21 13 21c-2 0-10-8-17-17z"/>
<path d="m2240 36c0-2 8-10 18-17 15-13 16-12 3 4s-21 21-21 13z"/>
<path d="m3079 23c-13-16-12-17 4-4s21 21 13 21c-2 0-10-8-17-17z"/>
<path d="m2390 16c0-2 7-7 16-10 8-3 12-2 9 4-6 10-25 14-25 6z"/>
<path d="m2945 10c-3-6 1-7 9-4 18 7 21 14 7 14-6 0-13-4-16-10z"/>
</g>
<g transform="translate(0 240) scale(.04 -.04)" fill="#c9c9c9">
<path d="m1463 5873c686-2 1808-2 2495 0 686 1 124 2-1248 2s-1934-1-1247-2z"/>
<path d="m5215 4130c0-954 1-1345 2-867 2 477 2 1257 0 1735-1 477-2 86-2-868z"/>
<path d="m302 5545c0-16 2-22 5-12 2 9 2 23 0 30-3 6-5-1-5-18z"/>
<path d="m482 4985c0-16 2-22 5-12 2 9 2 23 0 30-3 6-5-1-5-18z"/>
<path d="m502 4905c0-16 2-22 5-12 2 9 2 23 0 30-3 6-5-1-5-18z"/>
<path d="m1522 4924c9-3 19-13 22-22 3-12 4-12 3 3-1 12-10 21-22 22-15 1-15 0-3-3z"/>
<path d="m1562 4825c0-16 2-22 5-12 2 9 2 23 0 30-3 6-5-1-5-18z"/>
<path d="m1602 4685c0-16 2-22 5-12 2 9 2 23 0 30-3 6-5-1-5-18z"/>
<path d="m1622 4605c0-16 2-22 5-12 2 9 2 23 0 30-3 6-5-1-5-18z"/>
<path d="m602 4585c0-16 2-22 5-12 2 9 2 23 0 30-3 6-5-1-5-18z"/>
<path d="m1642 4525c0-16 2-22 5-12 2 9 2 23 0 30-3 6-5-1-5-18z"/>
<path d="m1662 4445c0-16 2-22 5-12 2 9 2 23 0 30-3 6-5-1-5-18z"/>
<path d="m1682 4365c0-16 2-22 5-12 2 9 2 23 0 30-3 6-5-1-5-18z"/>
<path d="m682 4325c0-16 2-22 5-12 2 9 2 23 0 30-3 6-5-1-5-18z"/>
<path d="m1702 4285c0-16 2-22 5-12 2 9 2 23 0 30-3 6-5-1-5-18z"/>
<path d="m1722 4205c0-16 2-22 5-12 2 9 2 23 0 30-3 6-5-1-5-18z"/>
<path d="m2680 4103c8-3 19-11 23-17 6-7 7-6 4 4-2 8-12 16-23 17-13 2-15 1-4-4z"/>
<path d="m1762 4065c0-16 2-22 5-12 2 9 2 23 0 30-3 6-5-1-5-18z"/>
<path d="m2722 4025c0-16 2-22 5-12 2 9 2 23 0 30-3 6-5-1-5-18z"/>
<path d="m1802 3925c0-16 2-22 5-12 2 9 2 23 0 30-3 6-5-1-5-18z"/>
<path d="m2762 3885c0-16 2-22 5-12 2 9 2 23 0 30-3 6-5-1-5-18z"/>
<path d="m2782 3805c0-16 2-22 5-12 2 9 2 23 0 30-3 6-5-1-5-18z"/>
<path d="m1842 3785c0-16 2-22 5-12 2 9 2 23 0 30-3 6-5-1-5-18z"/>
<path d="m2802 3725c0-16 2-22 5-12 2 9 2 23 0 30-3 6-5-1-5-18z"/>
<path d="m1882 3645c0-16 2-22 5-12 2 9 2 23 0 30-3 6-5-1-5-18z"/>
<path d="m2842 3585c0-16 2-22 5-12 2 9 2 23 0 30-3 6-5-1-5-18z"/>
<path d="m1922 3505c0-16 2-22 5-12 2 9 2 23 0 30-3 6-5-1-5-18z"/>
<path d="m2882 3445c0-16 2-22 5-12 2 9 2 23 0 30-3 6-5-1-5-18z"/>
<path d="m1942 3425c0-16 2-22 5-12 2 9 2 23 0 30-3 6-5-1-5-18z"/>
<path d="m2922 3305c0-16 2-22 5-12 2 9 2 23 0 30-3 6-5-1-5-18z"/>
<path d="m1983 3275c0-22 2-30 4-17 2 12 2 30 0 40-3 9-5-1-4-23z"/>
<path d="m2942 3225c0-16 2-22 5-12 2 9 2 23 0 30-3 6-5-1-5-18z"/>
<path d="m3882 3184c10-3 19-19 21-37 4-31 5-31 3 3-1 27-5 35-21 37-14 1-15 0-3-3z"/>
<path d="m3922 3065c0-16 2-22 5-12 2 9 2 23 0 30-3 6-5-1-5-18z"/>
<path d="m3002 3025c0-16 2-22 5-12 2 9 2 23 0 30-3 6-5-1-5-18z"/>
<path d="m3942 2985c0-16 2-22 5-12 2 9 2 23 0 30-3 6-5-1-5-18z"/>
<path d="m3022 2945c0-16 2-22 5-12 2 9 2 23 0 30-3 6-5-1-5-18z"/>
<path d="m3042 2865c0-16 2-22 5-12 2 9 2 23 0 30-3 6-5-1-5-18z"/>
<path d="m3982 2845c0-16 2-22 5-12 2 9 2 23 0 30-3 6-5-1-5-18z"/>
<path d="m3082 2725c0-16 2-22 5-12 2 9 2 23 0 30-3 6-5-1-5-18z"/>
<path d="m4022 2705c0-16 2-22 5-12 2 9 2 23 0 30-3 6-5-1-5-18z"/>
<path d="m3142 2525c0-16 2-22 5-12 2 9 2 23 0 30-3 6-5-1-5-18z"/>
<path d="m13 2400c0-41 2-58 4-37 2 20 2 54 0 75-2 20-4 3-4-38z"/>
<path d="m3162 2445c0-16 2-22 5-12 2 9 2 23 0 30-3 6-5-1-5-18z"/>
<path d="m4122 2385c0-16 2-22 5-12 2 9 2 23 0 30-3 6-5-1-5-18z"/>
<path d="m5323 2350c0-36 2-50 4-32 2 17 2 47 0 65-2 17-4 3-4-33z"/>
<path d="m5020 2363c8-3 19-11 23-17 6-7 7-6 4 4-2 8-12 16-23 17-13 2-15 1-4-4z"/>
<path d="m5193 2315c0-33 2-45 4-27s2 45 0 60-4 0-4-33z"/>
<path d="m4142 2305c0-16 2-22 5-12 2 9 2 23 0 30-3 6-5-1-5-18z"/>
<path d="m33 2240c0-36 2-50 4-32 2 17 2 47 0 65-2 17-4 3-4-33z"/>
<path d="m5303 2200c0-36 2-50 4-32 2 17 2 47 0 65-2 17-4 3-4-33z"/>
<path d="m5173 2180c0-30 2-43 4-27 2 15 2 39 0 55-2 15-4 2-4-28z"/>
<path d="m53 2125c0-22 2-30 4-17 2 12 2 30 0 40-3 9-5-1-4-23z"/>
<path d="m5141 2144c0-11 3-14 6-6 3 7 2 16-1 19-3 4-6-2-5-13z"/>
<path d="m4202 2105c0-16 2-22 5-12 2 9 2 23 0 30-3 6-5-1-5-18z"/>
<path d="m5282 2095c0-16 2-22 5-12 2 9 2 23 0 30-3 6-5-1-5-18z"/>
<path d="m72 2035c0-16 2-22 5-12 2 9 2 23 0 30-3 6-5-1-5-18z"/>
<path d="m4222 2025c0-16 2-22 5-12 2 9 2 23 0 30-3 6-5-1-5-18z"/>
<path d="m5262 2015c0-16 2-22 5-12 2 9 2 23 0 30-3 6-5-1-5-18z"/>
<path d="m92 1955c0-16 2-22 5-12 2 9 2 23 0 30-3 6-5-1-5-18z"/>
<path d="m5242 1935c0-16 2-22 5-12 2 9 2 23 0 30-3 6-5-1-5-18z"/>
<path d="m4282 1825c0-16 2-22 5-12 2 9 2 23 0 30-3 6-5-1-5-18z"/>
<path d="m4302 1745c0-16 2-22 5-12 2 9 2 23 0 30-3 6-5-1-5-18z"/>
<path d="m4322 1665c0-16 2-22 5-12 2 9 2 23 0 30-3 6-5-1-5-18z"/>
<path d="m4381 1484c0-11 3-14 6-6 3 7 2 16-1 19-3 4-6-2-5-13z"/>
<path d="m4411 1484c0-11 3-14 6-6 3 7 2 16-1 19-3 4-6-2-5-13z"/>
<path d="m1923 93c9-2 23-2 30 0 6 3-1 5-18 5-16 0-22-2-12-5z"/>
<path d="m2003 73c9-2 23-2 30 0 6 3-1 5-18 5-16 0-22-2-12-5z"/>
<path d="m3318 73c12-2 30-2 40 0 9 3-1 5-23 4-22 0-30-2-17-4z"/>
<path d="m2083 53c9-2 23-2 30 0 6 3-1 5-18 5-16 0-22-2-12-5z"/>
<path d="m3233 53c9-2 23-2 30 0 6 3-1 5-18 5-16 0-22-2-12-5z"/>
<path d="m2163 33c15-2 39-2 55 0 15 2 2 4-28 4s-43-2-27-4z"/>
<path d="m3123 33c15-2 39-2 55 0 15 2 2 4-28 4s-43-2-27-4z"/>
<path d="m2298 13c17-2 47-2 65 0 17 2 3 4-33 4s-50-2-32-4z"/>
<path d="m2993 13c15-2 39-2 55 0 15 2 2 4-28 4s-43-2-27-4z"/>
</g>
<g transform="translate(0 240) scale(.04 -.04)" fill="#333">
<path d="m194 5876c-3-8-4-25-1-38 3-17 5-15 6 10l1 32h2510 2510l3-1750 2-1750v1752 1753l-2513 3c-2171 2-2513 0-2518-12z"/>
<path d="m212 5780c0-14 2-19 5-12 2 6 2 18 0 25-3 6-5 1-5-13z"/>
<path d="m232 5720c0-14 2-19 5-12 2 6 2 18 0 25-3 6-5 1-5-13z"/>
<path d="m252 5660c0-14 2-19 5-12 2 6 2 18 0 25-3 6-5 1-5-13z"/>
<path d="m272 5600c0-14 2-19 5-12 2 6 2 18 0 25-3 6-5 1-5-13z"/>
<path d="m292 5530c0-19 2-27 5-17 2 9 2 25 0 35-3 9-5 1-5-18z"/>
<path d="m312 5460c0-14 2-19 5-12 2 6 2 18 0 25-3 6-5 1-5-13z"/>
<path d="m332 5400c0-14 2-19 5-12 2 6 2 18 0 25-3 6-5 1-5-13z"/>
<path d="m352 5340c0-14 2-19 5-12 2 6 2 18 0 25-3 6-5 1-5-13z"/>
<path d="m372 5280c0-14 2-19 5-12 2 6 2 18 0 25-3 6-5 1-5-13z"/>
<path d="m392 5220c0-14 2-19 5-12 2 6 2 18 0 25-3 6-5 1-5-13z"/>
<path d="m412 5160c0-14 2-19 5-12 2 6 2 18 0 25-3 6-5 1-5-13z"/>
<path d="m432 5100c0-14 2-19 5-12 2 6 2 18 0 25-3 6-5 1-5-13z"/>
<path d="m452 5040c0-14 2-19 5-12 2 6 2 18 0 25-3 6-5 1-5-13z"/>
<path d="m472 4970c0-19 2-27 5-17 2 9 2 25 0 35-3 9-5 1-5-18z"/>
<path d="m492 4890c0-19 2-27 5-17 2 9 2 25 0 35-3 9-5 1-5-18z"/>
<path d="m1532 4885c0-16 2-22 5-12 2 9 2 23 0 30-3 6-5-1-5-18z"/>
<path d="m512 4820c0-14 2-19 5-12 2 6 2 18 0 25-3 6-5 1-5-13z"/>
<path d="m1552 4810c0-19 2-27 5-17 2 9 2 25 0 35-3 9-5 1-5-18z"/>
<path d="m532 4760c0-14 2-19 5-12 2 6 2 18 0 25-3 6-5 1-5-13z"/>
<path d="m1572 4740c0-14 2-19 5-12 2 6 2 18 0 25-3 6-5 1-5-13z"/>
<path d="m552 4700c0-14 2-19 5-12 2 6 2 18 0 25-3 6-5 1-5-13z"/>
<path d="m1592 4670c0-19 2-27 5-17 2 9 2 25 0 35-3 9-5 1-5-18z"/>
<path d="m572 4640c0-14 2-19 5-12 2 6 2 18 0 25-3 6-5 1-5-13z"/>
<path d="m1612 4590c0-19 2-27 5-17 2 9 2 25 0 35-3 9-5 1-5-18z"/>
<path d="m592 4570c0-19 2-27 5-17 2 9 2 25 0 35-3 9-5 1-5-18z"/>
<path d="m1632 4510c0-19 2-27 5-17 2 9 2 25 0 35-3 9-5 1-5-18z"/>
<path d="m612 4500c0-14 2-19 5-12 2 6 2 18 0 25-3 6-5 1-5-13z"/>
<path d="m632 4440c0-14 2-19 5-12 2 6 2 18 0 25-3 6-5 1-5-13z"/>
<path d="m1652 4430c0-19 2-27 5-17 2 9 2 25 0 35-3 9-5 1-5-18z"/>
<path d="m652 4380c0-14 2-19 5-12 2 6 2 18 0 25-3 6-5 1-5-13z"/>
<path d="m1672 4350c0-19 2-27 5-17 2 9 2 25 0 35-3 9-5 1-5-18z"/>
<path d="m672 4310c0-19 2-27 5-17 2 9 2 25 0 35-3 9-5 1-5-18z"/>
<path d="m1692 4270c0-19 2-27 5-17 2 9 2 25 0 35-3 9-5 1-5-18z"/>
<path d="m692 4240c0-14 2-19 5-12 2 6 2 18 0 25-3 6-5 1-5-13z"/>
<path d="m1712 4190c0-19 2-27 5-17 2 9 2 25 0 35-3 9-5 1-5-18z"/>
<path d="m712 4180c0-14 2-19 5-12 2 6 2 18 0 25-3 6-5 1-5-13z"/>
<path d="m732 4120c0-14 2-19 5-12 2 6 2 18 0 25-3 6-5 1-5-13z"/>
<path d="m1732 4120c0-14 2-19 5-12 2 6 2 18 0 25-3 6-5 1-5-13z"/>
<path d="m2691 4074c0-11 3-14 6-6 3 7 2 16-1 19-3 4-6-2-5-13z"/>
<path d="m752 4060c0-14 2-19 5-12 2 6 2 18 0 25-3 6-5 1-5-13z"/>
<path d="m1752 4050c0-19 2-27 5-17 2 9 2 25 0 35-3 9-5 1-5-18z"/>
<path d="m2712 4010c0-19 2-27 5-17 2 9 2 25 0 35-3 9-5 1-5-18z"/>
<path d="m772 4e3c0-14 2-19 5-12 2 6 2 18 0 25-3 6-5 1-5-13z"/>
<path d="m1772 3980c0-14 2-19 5-12 2 6 2 18 0 25-3 6-5 1-5-13z"/>
<path d="m808 3953c6-2 18-2 25 0 6 3 1 5-13 5s-19-2-12-5z"/>
<path d="m2732 3940c0-14 2-19 5-12 2 6 2 18 0 25-3 6-5 1-5-13z"/>
<path d="m1792 3910c0-19 2-27 5-17 2 9 2 25 0 35-3 9-5 1-5-18z"/>
<path d="m2752 3870c0-19 2-27 5-17 2 9 2 25 0 35-3 9-5 1-5-18z"/>
<path d="m1812 3840c0-14 2-19 5-12 2 6 2 18 0 25-3 6-5 1-5-13z"/>
<path d="m2772 3790c0-19 2-27 5-17 2 9 2 25 0 35-3 9-5 1-5-18z"/>
<path d="m1832 3770c0-19 2-27 5-17 2 9 2 25 0 35-3 9-5 1-5-18z"/>
<path d="m2792 3710c0-19 2-27 5-17 2 9 2 25 0 35-3 9-5 1-5-18z"/>
<path d="m1852 3700c0-14 2-19 5-12 2 6 2 18 0 25-3 6-5 1-5-13z"/>
<path d="m1872 3630c0-19 2-27 5-17 2 9 2 25 0 35-3 9-5 1-5-18z"/>
<path d="m2812 3640c0-14 2-19 5-12 2 6 2 18 0 25-3 6-5 1-5-13z"/>
<path d="m2832 3570c0-19 2-27 5-17 2 9 2 25 0 35-3 9-5 1-5-18z"/>
<path d="m1892 3560c0-14 2-19 5-12 2 6 2 18 0 25-3 6-5 1-5-13z"/>
<path d="m1912 3490c0-19 2-27 5-17 2 9 2 25 0 35-3 9-5 1-5-18z"/>
<path d="m2852 3500c0-14 2-19 5-12 2 6 2 18 0 25-3 6-5 1-5-13z"/>
<path d="m2872 3430c0-19 2-27 5-17 2 9 2 25 0 35-3 9-5 1-5-18z"/>
<path d="m1932 3410c0-19 2-27 5-17 2 9 2 25 0 35-3 9-5 1-5-18z"/>
<path d="m2892 3360c0-14 2-19 5-12 2 6 2 18 0 25-3 6-5 1-5-13z"/>
<path d="m1952 3340c0-14 2-19 5-12 2 6 2 18 0 25-3 6-5 1-5-13z"/>
<path d="m2912 3290c0-19 2-27 5-17 2 9 2 25 0 35-3 9-5 1-5-18z"/>
<path d="m1973 3260c0-25 2-35 4-22 2 12 2 32 0 45-2 12-4 2-4-23z"/>
<path d="m2932 3210c0-19 2-27 5-17 2 9 2 25 0 35-3 9-5 1-5-18z"/>
<path d="m3893 3135c0-22 2-30 4-17 2 12 2 30 0 40-3 9-5-1-4-23z"/>
<path d="m2952 3140c0-14 2-19 5-12 2 6 2 18 0 25-3 6-5 1-5-13z"/>
<path d="m2972 3080c0-14 2-19 5-12 2 6 2 18 0 25-3 6-5 1-5-13z"/>
<path d="m3912 3050c0-19 2-27 5-17 2 9 2 25 0 35-3 9-5 1-5-18z"/>
<path d="m2992 3010c0-19 2-27 5-17 2 9 2 25 0 35-3 9-5 1-5-18z"/>
<path d="m3932 2970c0-19 2-27 5-17 2 9 2 25 0 35-3 9-5 1-5-18z"/>
<path d="m3012 2930c0-19 2-27 5-17 2 9 2 25 0 35-3 9-5 1-5-18z"/>
<path d="m3952 2900c0-14 2-19 5-12 2 6 2 18 0 25-3 6-5 1-5-13z"/>
<path d="m3032 2850c0-19 2-27 5-17 2 9 2 25 0 35-3 9-5 1-5-18z"/>
<path d="m3972 2830c0-19 2-27 5-17 2 9 2 25 0 35-3 9-5 1-5-18z"/>
<path d="m3052 2780c0-14 2-19 5-12 2 6 2 18 0 25-3 6-5 1-5-13z"/>
<path d="m3992 2760c0-14 2-19 5-12 2 6 2 18 0 25-3 6-5 1-5-13z"/>
<path d="m3072 2710c0-19 2-27 5-17 2 9 2 25 0 35-3 9-5 1-5-18z"/>
<path d="m4012 2690c0-19 2-27 5-17 2 9 2 25 0 35-3 9-5 1-5-18z"/>
<path d="m3092 2640c0-14 2-19 5-12 2 6 2 18 0 25-3 6-5 1-5-13z"/>
<path d="m4032 2620c0-14 2-19 5-12 2 6 2 18 0 25-3 6-5 1-5-13z"/>
<path d="m3112 2580c0-14 2-19 5-12 2 6 2 18 0 25-3 6-5 1-5-13z"/>
<path d="m4052 2560c0-14 2-19 5-12 2 6 2 18 0 25-3 6-5 1-5-13z"/>
<path d="m3132 2510c0-19 2-27 5-17 2 9 2 25 0 35-3 9-5 1-5-18z"/>
<path d="m4072 2500c0-14 2-19 5-12 2 6 2 18 0 25-3 6-5 1-5-13z"/>
<path d="m7 2503c7-5 14-43 16-93l3-85v89c-1 71-4 90-16 93-11 3-11 2-3-4z"/>
<path d="m3152 2430c0-19 2-27 5-17 2 9 2 25 0 35-3 9-5 1-5-18z"/>
<path d="m4092 2440c0-14 2-19 5-12 2 6 2 18 0 25-3 6-5 1-5-13z"/>
<path d="m5314 2437c-3-8-3-45-1-83l3-69 2 77c1 50 6 78 15 81 9 4 9 6-1 6-7 1-15-5-18-12z"/>
<path d="m4112 2370c0-19 2-27 5-17 2 9 2 25 0 35-3 9-5 1-5-18z"/>
<path d="m3172 2360c0-14 2-19 5-12 2 6 2 18 0 25-3 6-5 1-5-13z"/>
<path d="m5203 2300c0-36 2-50 4-32 2 17 2 47 0 65-2 17-4 3-4-33z"/>
<path d="m5031 2334c0-11 3-14 6-6 3 7 2 16-1 19-3 4-6-2-5-13z"/>
<path d="m43 2260c0-36 2-50 4-32 2 17 2 47 0 65-2 17-4 3-4-33z"/>
<path d="m3192 2300c0-14 2-19 5-12 2 6 2 18 0 25-3 6-5 1-5-13z"/>
<path d="m4132 2290c0-19 2-27 5-17 2 9 2 25 0 35-3 9-5 1-5-18z"/>
<path d="m5293 2220c0-36 2-50 4-32 2 17 2 47 0 65-2 17-4 3-4-33z"/>
<path d="m4152 2220c0-14 2-19 5-12 2 6 2 18 0 25-3 6-5 1-5-13z"/>
<path d="m5182 2173c-2-45-5-53-21-53-11 0-22 5-24 10-3 6-4 5-3-2 4-19 45-22 52-5 3 8 4 34 1 58-3 44-4 43-5-8z"/>
<path d="m63 2140c0-25 2-35 4-22 2 12 2 32 0 45-2 12-4 2-4-23z"/>
<path d="m4172 2160c0-14 2-19 5-12 2 6 2 18 0 25-3 6-5 1-5-13z"/>
<path d="m5272 2110c0-19 2-27 5-17 2 9 2 25 0 35-3 9-5 1-5-18z"/>
<path d="m4192 2090c0-19 2-27 5-17 2 9 2 25 0 35-3 9-5 1-5-18z"/>
<path d="m82 2050c0-19 2-27 5-17 2 9 2 25 0 35-3 9-5 1-5-18z"/>
<path d="m5252 2030c0-19 2-27 5-17 2 9 2 25 0 35-3 9-5 1-5-18z"/>
<path d="m4212 2010c0-19 2-27 5-17 2 9 2 25 0 35-3 9-5 1-5-18z"/>
<path d="m102 1970c0-19 2-27 5-17 2 9 2 25 0 35-3 9-5 1-5-18z"/>
<path d="m5232 1950c0-19 2-27 5-17 2 9 2 25 0 35-3 9-5 1-5-18z"/>
<path d="m4232 1940c0-14 2-19 5-12 2 6 2 18 0 25-3 6-5 1-5-13z"/>
<path d="m122 1900c0-14 2-19 5-12 2 6 2 18 0 25-3 6-5 1-5-13z"/>
<path d="m4252 1880c0-14 2-19 5-12 2 6 2 18 0 25-3 6-5 1-5-13z"/>
<path d="m5212 1880c0-14 2-19 5-12 2 6 2 18 0 25-3 6-5 1-5-13z"/>
<path d="m142 1840c0-14 2-19 5-12 2 6 2 18 0 25-3 6-5 1-5-13z"/>
<path d="m4272 1810c0-19 2-27 5-17 2 9 2 25 0 35-3 9-5 1-5-18z"/>
<path d="m5192 1820c0-14 2-19 5-12 2 6 2 18 0 25-3 6-5 1-5-13z"/>
<path d="m162 1780c0-14 2-19 5-12 2 6 2 18 0 25-3 6-5 1-5-13z"/>
<path d="m5172 1760c0-14 2-19 5-12 2 6 2 18 0 25-3 6-5 1-5-13z"/>
<path d="m4292 1730c0-19 2-27 5-17 2 9 2 25 0 35-3 9-5 1-5-18z"/>
<path d="m182 1720c0-14 2-19 5-12 2 6 2 18 0 25-3 6-5 1-5-13z"/>
<path d="m4312 1650c0-19 2-27 5-17 2 9 2 25 0 35-3 9-5 1-5-18z"/>
<path d="m5132 1660c0-14 2-19 5-12 2 6 2 18 0 25-3 6-5 1-5-13z"/>
<path d="m242 1580c0-14 2-19 5-12 2 6 2 18 0 25-3 6-5 1-5-13z"/>
<path d="m4332 1580c0-14 2-19 5-12 2 6 2 18 0 25-3 6-5 1-5-13z"/>
<path d="m4352 1520c0-14 2-19 5-12 2 6 2 18 0 25-3 6-5 1-5-13z"/>
<path d="m4374 1468c2-7 13-13 26-13s24 6 26 13c1 7 0 8-3 2-2-5-13-10-23-10s-21 5-23 10c-3 6-4 5-3-2z"/>
<path d="m1648 203c6-2 18-2 25 0 6 3 1 5-13 5s-19-2-12-5z"/>
<path d="m3668 203c6-2 18-2 25 0 6 3 1 5-13 5s-19-2-12-5z"/>
<path d="m1748 163c6-2 18-2 25 0 6 3 1 5-13 5s-19-2-12-5z"/>
<path d="m3568 163c6-2 18-2 25 0 6 3 1 5-13 5s-19-2-12-5z"/>
<path d="m1808 143c6-2 18-2 25 0 6 3 1 5-13 5s-19-2-12-5z"/>
<path d="m3508 143c6-2 18-2 25 0 6 3 1 5-13 5s-19-2-12-5z"/>
<path d="m1868 123c6-2 18-2 25 0 6 3 1 5-13 5s-19-2-12-5z"/>
<path d="m3448 123c6-2 18-2 25 0 6 3 1 5-13 5s-19-2-12-5z"/>
<path d="m1933 103c9-2 25-2 35 0 9 3 1 5-18 5s-27-2-17-5z"/>
<path d="m3388 103c6-2 18-2 25 0 6 3 1 5-13 5s-19-2-12-5z"/>
<path d="m2013 83c9-2 25-2 35 0 9 3 1 5-18 5s-27-2-17-5z"/>
<path d="m3298 83c12-2 32-2 45 0 12 2 2 4-23 4s-35-2-22-4z"/>
<path d="m2093 63c9-2 25-2 35 0 9 3 1 5-18 5s-27-2-17-5z"/>
<path d="m3213 63c9-2 25-2 35 0 9 3 1 5-18 5s-27-2-17-5z"/>
<path d="m2183 43c15-2 39-2 55 0 15 2 2 4-28 4s-43-2-27-4z"/>
<path d="m3103 43c15-2 39-2 55 0 15 2 2 4-28 4s-43-2-27-4z"/>
<path d="m2340 23c42-2 78-9 83-16 6-8 7-8 4 3-3 12-21 15-83 16h-79l75-3z"/>
<path d="m2937 23c-4-3-7-11-7-17 0-7 3-7 8 1 4 7 37 14 72 16l65 3-66 2c-36 1-69-1-72-5z"/>
</g>
<g transform="translate(0 240) scale(.04 -.04)" fill="#111">
<path d="m1484 4888-29-33 35 30c19 17 37 31 39 33 2 1 0 2-5 2-6 0-23-15-40-32z"/>
<path d="m1490 4859c0-5 5-7 10-4 6 3 10 8 10 11 0 2-4 4-10 4-5 0-10-5-10-11z"/>
<path d="m1434 4818-19-23 23 19c21 18 27 26 19 26-2 0-12-10-23-22z"/>
<path d="m1384 4748-29-33 33 29c30 28 37 36 29 36-2 0-16-15-33-32z"/>
<path d="m1334 4678-19-23 23 19c21 18 27 26 19 26-2 0-12-10-23-22z"/>
<path d="m1294 4618-19-23 23 19c21 18 27 26 19 26-2 0-12-10-23-22z"/>
<path d="m1244 4548-29-33 33 29c17 17 32 31 32 33 0 8-8 1-36-29z"/>
<path d="m1194 4478-19-23 23 19c21 18 27 26 19 26-2 0-12-10-23-22z"/>
<path d="m1154 4418-19-23 23 19c21 18 27 26 19 26-2 0-12-10-23-22z"/>
<path d="m1114 4358-19-23 23 19c21 18 27 26 19 26-2 0-12-10-23-22z"/>
<path d="m1074 4298-19-23 23 19c21 18 27 26 19 26-2 0-12-10-23-22z"/>
<path d="m1024 4228-29-33 33 29c17 17 32 31 32 33 0 8-8 1-36-29z"/>
<path d="m974 4158-19-23 23 19c21 18 27 26 19 26-2 0-12-10-23-22z"/>
<path d="m924 4088-29-33 33 29c30 28 37 36 29 36-2 0-16-15-33-32z"/>
<path d="m2654 4078-19-23 25 20c14 11 27 21 29 22 2 2 0 3-6 3-5 0-18-10-29-22z"/>
<path d="m874 4018-19-23 23 19c21 18 27 26 19 26-2 0-12-10-23-22z"/>
<path d="m2614 4018-19-23 23 19c12 11 22 21 22 23 0 8-8 2-26-19z"/>
<path d="m2574 3958-19-23 23 19c12 11 22 21 22 23 0 8-8 2-26-19z"/>
<path d="m2534 3898-19-23 23 19c21 18 27 26 19 26-2 0-12-10-23-22z"/>
<path d="m2494 3838-19-23 23 19c21 18 27 26 19 26-2 0-12-10-23-22z"/>
<path d="m2454 3778-19-23 23 19c21 18 27 26 19 26-2 0-12-10-23-22z"/>
<path d="m2414 3718-19-23 23 19c21 18 27 26 19 26-2 0-12-10-23-22z"/>
<path d="m2374 3658-19-23 23 19c21 18 27 26 19 26-2 0-12-10-23-22z"/>
<path d="m2334 3598-19-23 23 19c21 18 27 26 19 26-2 0-12-10-23-22z"/>
<path d="m2284 3528-29-33 33 29c30 28 37 36 29 36-2 0-16-15-33-32z"/>
<path d="m2214 3418-19-23 23 19c21 18 27 26 19 26-2 0-12-10-23-22z"/>
<path d="m2144 3308-29-33 33 29c30 28 37 36 29 36-2 0-16-15-33-32z"/>
<path d="m2084 3228-29-33 33 29c30 28 37 36 29 36-2 0-16-15-33-32z"/>
<path d="m3854 3158-19-23 25 20c14 11 27 21 29 22 2 2 0 3-6 3-5 0-18-10-29-22z"/>
<path d="m3814 3098-19-23 23 19c21 18 27 26 19 26-2 0-12-10-23-22z"/>
<path d="m3774 3038-19-23 23 19c21 18 27 26 19 26-2 0-12-10-23-22z"/>
<path d="m3734 2978-19-23 23 19c12 11 22 21 22 23 0 8-8 2-26-19z"/>
<path d="m3664 2868-29-33 33 29c30 28 37 36 29 36-2 0-16-15-33-32z"/>
<path d="m3614 2798-19-23 23 19c12 11 22 21 22 23 0 8-8 2-26-19z"/>
<path d="m3574 2738-19-23 23 19c12 11 22 21 22 23 0 8-8 2-26-19z"/>
<path d="m3524 2668-29-33 33 29c17 17 32 31 32 33 0 8-8 1-36-29z"/>
<path d="m3474 2598-19-23 23 19c21 18 27 26 19 26-2 0-12-10-23-22z"/>
<path d="m3424 2528-29-33 33 29c30 28 37 36 29 36-2 0-16-15-33-32z"/>
<path d="m3374 2458-19-23 23 19c12 11 22 21 22 23 0 8-8 2-26-19z"/>
<path d="m3334 2398-19-23 23 19c21 18 27 26 19 26-2 0-12-10-23-22z"/>
<path d="m3294 2338-19-23 23 19c12 11 22 21 22 23 0 8-8 2-26-19z"/>
<path d="m4994 2338-19-23 25 20c14 11 27 21 29 22 2 2 0 3-6 3-5 0-18-10-29-22z"/>
<path d="m5016 2307c3-10 9-15 12-12s0 11-7 18c-10 9-11 8-5-6z"/>
<path d="m4935 2258-40-43 43 40c39 36 47 45 39 45-2 0-21-19-42-42z"/>
<path d="m4834 2098-19-23 23 19c12 11 22 21 22 23 0 8-8 2-26-19z"/>
<path d="m4794 2038-19-23 23 19c12 11 22 21 22 23 0 8-8 2-26-19z"/>
<path d="m4754 1978-19-23 23 19c12 11 22 21 22 23 0 8-8 2-26-19z"/>
<path d="m4714 1918-19-23 23 19c12 11 22 21 22 23 0 8-8 2-26-19z"/>
<path d="m4664 1848-29-33 33 29c30 28 37 36 29 36-2 0-16-15-33-32z"/>
<path d="m4614 1778-19-23 23 19c12 11 22 21 22 23 0 8-8 2-26-19z"/>
<path d="m4574 1718-19-23 23 19c21 18 27 26 19 26-2 0-12-10-23-22z"/>
<path d="m4534 1658-19-23 23 19c21 18 27 26 19 26-2 0-12-10-23-22z"/>
<path d="m4494 1598-19-23 23 19c21 18 27 26 19 26-2 0-12-10-23-22z"/>
<path d="m4454 1538-19-23 23 19c12 11 22 21 22 23 0 8-8 2-26-19z"/>
<path d="m335 1380c10-11 20-20 23-20s-3 9-13 20-20 20-23 20 3-9 13-20z"/>
<path d="m4954 1298-19-23 23 19c12 11 22 21 22 23 0 8-8 2-26-19z"/>
<path d="m395 1280c10-11 20-20 23-20s-3 9-13 20-20 20-23 20 3-9 13-20z"/>
<path d="m4914 1238-19-23 23 19c21 18 27 26 19 26-2 0-12-10-23-22z"/>
<path d="m440 1197c0-2 15-16 33-33l32-29-29 33c-28 30-36 37-36 29z"/>
<path d="m4874 1178-19-23 23 19c21 18 27 26 19 26-2 0-12-10-23-22z"/>
<path d="m4834 1118-19-23 23 19c21 18 27 26 19 26-2 0-12-10-23-22z"/>
<path d="m515 1100c10-11 20-20 23-20s-3 9-13 20-20 20-23 20 3-9 13-20z"/>
<path d="m4775 1038-40-43 43 40c23 21 42 40 42 42 0 8-9 0-45-39z"/>
<path d="m575 1020c21-22 41-40 44-40s-13 18-34 40-41 40-44 40 13-18 34-40z"/>
<path d="m4545 788-190-193 193 190c178 176 197 195 189 195-1 0-88-87-192-192z"/>
<path d="m785 790c93-94 172-170 175-170s-72 77-165 170c-93 94-172 170-175 170s72-76 165-170z"/>
<path d="m1015 580c21-22 41-40 44-40s-13 18-34 40-41 40-44 40 13-18 34-40z"/>
<path d="m4295 558-40-43 43 40c23 21 42 40 42 42 0 8-9 0-45-39z"/>
<path d="m1080 537c0-2 15-16 33-33l32-29-29 33c-28 30-36 37-36 29z"/>
<path d="m4214 498-19-23 23 19c12 11 22 21 22 23 0 8-8 2-26-19z"/>
<path d="m1175 460c10-11 20-20 23-20s-3 9-13 20-20 20-23 20 3-9 13-20z"/>
<path d="m4154 458-19-23 23 19c12 11 22 21 22 23 0 8-8 2-26-19z"/>
<path d="m1235 420c10-11 20-20 23-20s-3 9-13 20-20 20-23 20 3-9 13-20z"/>
<path d="m4094 418-19-23 23 19c21 18 27 26 19 26-2 0-12-10-23-22z"/>
<path d="m4034 378-19-23 23 19c12 11 22 21 22 23 0 8-8 2-26-19z"/>
<path d="m1335 360c10-11 20-20 23-20s-3 9-13 20-20 20-23 20 3-9 13-20z"/>
</g>
<g transform="translate(0 240) scale(.04 -.04)" fill="#010101">
<path d="m0 4255c0-1544 2-1745 15-1745 12 0 15-17 15-89 0-50 5-93 10-96 6-3 10-35 10-70s5-67 10-70c6-3 10-26 10-50s5-47 10-50c6-3 10-21 10-40s5-37 10-40c6-3 10-21 10-40s4-37 10-40c5-3 10-17 10-30s5-27 10-30c6-3 10-17 10-30s5-27 10-30c6-3 10-17 10-30s5-27 10-30c6-3 10-14 10-25 0-10 13-44 30-75 16-31 30-62 30-69 0-15 83-182 102-204 8-9 22-34 32-54 9-20 21-40 26-43 6-3 19-25 29-48 11-23 31-53 45-66 14-14 26-30 26-36 0-7 9-20 20-30s20-23 20-30c0-6 18-29 40-50s40-44 40-49c0-14 322-336 335-336 6 0 29-18 50-40s44-40 50-40 24-14 40-30c16-17 34-30 40-30 7 0 20-9 30-20s24-20 30-20c7 0 18-7 25-15 7-9 29-23 49-32s44-23 53-31c22-19 309-162 325-162 7 0 28-9 48-20s44-20 55-20c10 0 22-5 25-10 3-6 17-10 30-10s27-4 30-10c3-5 17-10 30-10s27-4 30-10c3-5 21-10 40-10s37-4 40-10c3-5 21-10 40-10s37-4 40-10c3-5 21-10 40-10s37-4 40-10c3-5 30-10 60-10s57-4 60-10c3-5 42-10 86-10 64 0 79-3 79-15 0-13 34-15 250-15s250 2 250 15c0 12 14 15 69 15 39 0 73 5 76 10 3 6 30 10 60 10s57 5 60 10c3 6 21 10 40 10s37 5 40 10c3 6 26 10 50 10s47 5 50 10c3 6 17 10 30 10s27 4 30 10c3 5 17 10 30 10s27 5 30 10c3 6 17 10 30 10s27 5 30 10c3 6 15 10 25 10 11 0 35 9 55 20s41 20 48 20c18 0 354 170 368 186 6 8 17 14 24 14 6 0 20 9 30 20s23 20 30 20 20 9 30 20 23 20 30 20 20 9 30 20 23 20 30 20c6 0 29 18 50 40s44 40 50 40c13 0 375 362 375 376 0 5 18 28 40 49s40 44 40 50c0 7 9 20 20 30s20 23 20 30 9 20 20 30 20 23 20 30 9 20 20 30 20 24 20 30c0 7 6 18 14 24 16 14 186 350 186 368 0 7 9 28 20 48s20 44 20 55c0 10 5 22 10 25 6 3 10 17 10 30s5 27 10 30c6 3 10 17 10 30s4 27 10 30c5 3 10 21 10 40s4 37 10 40 10 21 10 40 5 37 10 40c6 3 10 21 10 40s4 37 10 40 10 35 10 70 5 67 10 70c6 3 10 42 10 86 0 64 3 79 15 79 13 0 15 204 15 1775v1775h-2670-2670v-1745zm5230-119c0-1159-3-1757-10-1761-6-3-10-35-10-70s-4-67-10-70-10-33-10-66c0-59 0-59-30-59-17 0-30 5-30 12 0 23-105 227-115 224-5-1-15-13-21-25-7-13-27-39-46-59-19-21-47-62-62-93-14-32-33-62-41-69s-15-18-15-25c0-6-9-20-20-30s-20-23-20-30-9-20-20-30-20-23-20-30-9-20-20-30-20-23-20-30c0-6-13-24-30-40-16-16-30-34-30-40 0-7-9-20-20-30s-20-23-20-30-9-20-20-30-20-23-20-30-9-20-20-30-20-23-20-30-9-20-20-30-20-24-20-30c0-7-7-18-15-25-17-14-45-67-45-87 0-8-12-13-30-13-23 0-30 5-30 19 0 11-4 23-10 26-5 3-10 17-10 30s-4 27-10 30c-5 3-10 17-10 30s-4 27-10 30c-5 3-10 21-10 40s-4 37-10 40c-5 3-10 21-10 40s-4 37-10 40c-5 3-10 21-10 40s-4 37-10 40-10 17-10 30-4 27-10 30c-5 3-10 17-10 30s-4 27-10 30c-5 3-10 21-10 40s-4 37-10 40c-5 3-10 21-10 40s-4 37-10 40-10 17-10 30-4 27-10 30c-5 3-10 17-10 30s-4 27-10 30-10 21-10 40-4 37-10 40c-5 3-10 21-10 40s-4 37-10 40c-5 3-10 17-10 30s-4 27-10 30c-5 3-10 17-10 30s-4 27-10 30c-5 3-10 17-10 30s-5 27-10 30-10 17-10 30-4 27-10 30c-5 3-10 21-10 40s-4 37-10 40c-5 3-10 17-10 30s-4 27-10 30c-5 3-10 21-10 40s-4 37-10 40-10 17-10 30-4 27-10 30c-5 3-10 21-10 40s-4 37-10 40c-5 3-10 21-10 40s-4 37-10 40c-5 3-10 22-10 41 0 40-18 42-36 6-6-12-18-30-27-40-10-10-17-23-17-29 0-5-9-18-20-28s-20-24-20-30c0-7-7-18-15-25-9-7-24-32-35-54-10-23-30-52-44-65-14-14-26-30-26-36 0-7-9-20-20-30s-20-23-20-30-9-20-20-30-20-23-20-30c0-6-13-24-30-40-16-16-30-34-30-40 0-7-9-20-20-30s-20-23-20-30c0-6-13-24-30-40-16-16-30-34-30-40 0-7-9-20-20-30s-20-23-20-30-9-20-20-30-20-23-20-30-9-20-20-30-20-23-20-29-14-24-30-40c-30-27-31-28-50-11-11 10-20 28-20 41s-4 26-10 29c-5 3-10 17-10 30s-4 27-10 30c-5 3-10 21-10 40s-4 37-10 40c-5 3-10 21-10 40s-4 37-10 40c-5 3-10 17-10 30s-4 27-10 30c-5 3-10 17-10 30s-4 27-10 30c-5 3-10 21-10 40s-4 37-10 40c-5 3-10 17-10 30s-5 27-10 30-10 21-10 40-4 37-10 40c-5 3-10 21-10 40s-4 37-10 40c-5 3-10 21-10 40s-4 37-10 40c-5 3-10 17-10 30s-4 27-10 30c-5 3-10 17-10 30s-4 27-10 30c-5 3-10 21-10 40s-4 37-10 40c-5 3-10 21-10 40s-4 37-10 40c-5 3-10 17-10 30s-4 27-10 30c-5 3-10 21-10 40s-4 37-10 40c-5 3-10 17-10 30s-4 27-10 30c-5 3-10 21-10 40s-4 37-10 40c-5 3-10 17-10 30s-4 27-10 30c-5 3-10 21-10 40s-4 37-10 40c-5 3-10 21-10 40s-5 37-10 40-10 21-10 40-4 37-10 40c-5 3-10 17-10 30s-4 27-10 30c-5 3-10 19-10 34 0 34-22 82-35 78-5-2-15-13-21-25s-18-30-27-40c-10-10-17-23-17-29 0-5-9-18-20-28s-20-23-20-30-9-20-20-30-20-23-20-30-9-20-20-30-20-23-20-30-9-20-20-30-20-23-20-30-9-20-20-30-20-23-20-30-9-20-20-30-20-23-20-30-9-20-20-30-20-23-20-30c0-6-12-22-26-36-14-13-34-43-45-66-10-23-23-45-29-48s-19-25-29-48c-11-23-31-53-45-66-14-14-26-30-26-36s-13-24-30-40c-16-16-30-34-30-40 0-7-9-20-20-30-16-14-22-15-35-5-24 20-45 71-45 111 0 21-4 41-10 44-5 3-10 17-10 30s-4 27-10 30c-5 3-10 21-10 40s-4 37-10 40c-5 3-10 21-10 40s-4 37-10 40c-5 3-10 17-10 30s-4 27-10 30c-5 3-10 21-10 40s-4 37-10 40c-5 3-10 17-10 30s-4 27-10 30c-5 3-10 21-10 40s-4 37-10 40c-5 3-10 17-10 30s-4 27-10 30c-5 3-10 21-10 40s-5 37-10 40-10 17-10 30-4 27-10 30c-5 3-10 21-10 40s-4 37-10 40c-5 3-10 17-10 30s-4 27-10 30c-5 3-10 21-10 40s-4 37-10 40c-5 3-10 21-10 40s-4 37-10 40c-5 3-10 21-10 40s-4 37-10 40c-5 3-10 21-10 40s-4 37-10 40c-5 3-10 21-10 40s-4 37-10 40c-5 3-10 21-10 40s-4 37-10 40c-5 3-10 21-10 40s-4 37-10 40c-5 3-10 17-10 30s-4 27-10 30c-5 3-10 21-10 40s-4 37-10 40c-5 3-10 17-10 31 0 13-3 24-7 24-12 0-53-43-53-55 0-7-9-20-20-30s-20-23-20-30c0-6-13-24-30-40-16-16-30-34-30-40 0-7-9-20-20-30s-20-23-20-30-9-20-20-30-20-23-20-30c0-6-13-24-30-40-16-16-30-34-30-40 0-7-9-20-20-30s-20-23-20-30-9-20-20-30-20-23-20-30-9-20-20-30-20-23-20-30-9-20-20-30-20-23-20-30c0-6-13-24-30-40-16-16-30-34-30-40 0-7-9-20-20-30s-20-23-20-30c0-6-13-24-30-40-16-16-30-34-30-40 0-7-9-20-20-30s-20-23-20-28c0-16-32-47-48-47-24 0-52 31-52 56 0 13-4 26-10 29-5 3-10 17-10 30s-4 27-10 30c-5 3-10 17-10 30s-4 27-10 30c-5 3-10 17-10 30s-4 27-10 30c-5 3-10 17-10 30s-4 27-10 30c-5 3-10 21-10 40s-4 37-10 40c-5 3-10 17-10 30s-4 27-10 30c-5 3-10 17-10 30s-4 27-10 30c-5 3-10 17-10 30s-4 27-10 30c-5 3-10 21-10 40s-4 37-10 40c-5 3-10 17-10 30s-4 27-10 30c-5 3-10 17-10 30s-4 27-10 30c-5 3-10 17-10 30s-4 27-10 30c-5 3-10 17-10 30s-4 27-10 30c-5 3-10 21-10 40s-4 37-10 40c-5 3-10 21-10 40s-4 37-10 40c-5 3-10 17-10 30s-4 27-10 30c-5 3-10 17-10 30s-4 27-10 30c-5 3-10 17-10 30s-4 27-10 30c-5 3-10 17-10 30s-4 27-10 30c-5 3-10 17-10 30s-4 27-10 30c-5 3-10 17-10 30s-4 27-10 30c-5 3-10 17-10 30s-4 27-10 30c-5 3-10 17-10 30s-4 27-10 30c-5 3-10 21-10 40s-4 37-10 40c-5 3-10 17-10 30s-4 27-10 30c-5 3-10 17-10 30s-4 27-10 30c-5 3-10 17-10 30s-4 27-10 30c-5 3-10 17-10 30s-4 27-10 30c-5 3-10 22-10 41v34h2520 2520v-1754zm-3720 730c0-3-4-8-10-11-5-3-10-1-10 4 0 6 5 11 10 11 6 0 10-2 10-4zm3518-2571c-3-3-9 2-12 12-6 14-5 15 5 6 7-7 10-15 7-18z"/>
</g>
</g>
</svg>
