<?xml version="1.0" encoding="UTF-8"?>
<svg enable-background="new 0 0 210.731 235.338" version="1.1" viewBox="0 0 210.73 235.34" xml:space="preserve" xmlns="http://www.w3.org/2000/svg" xmlns:cc="http://creativecommons.org/ns#" xmlns:dc="http://purl.org/dc/elements/1.1/" xmlns:rdf="http://www.w3.org/1999/02/22-rdf-syntax-ns#"><metadata><rdf:RDF><cc:Work rdf:about=""><dc:format>image/svg+xml</dc:format><dc:type rdf:resource="http://purl.org/dc/dcmitype/StillImage"/></cc:Work></rdf:RDF></metadata>

	<path d="m208.23 0h-207.95l-0.012 2.487c-0.025 4.963-0.6 121.69 2e-3 134.52 1.086 23.119 12.031 47.793 29.277 66.004 19.742 20.846 46.511 32.326 75.376 32.326l0.588-1e-3c29.302-0.151 56.48-11.671 76.531-32.436 17.963-18.602 28.687-43.521 28.687-66.657v-136.24h-2.5zm-201.94 146.13c-0.514-3.134-0.876-6.259-1.021-9.354-0.259-5.508-0.293-31.267-0.25-58.771h74.758c4.91 8.472 6.437 17.415 6.846 20.583h-4.621v7.75h-2.59c-3.052 0-5.535 2.636-5.535 5.875s2.483 5.875 5.535 5.875h2.59v7.75h5.457c-0.765 3.13-3.474 14.094-5.384 20.292h-75.785zm122.54-68.125c-4.825 8.785-6.218 17.602-6.568 20.583h-2.689c0.266-4.258 1.53-9.372 4.732-20.583h4.525zm-3.633-3c4.636-14.107 18.271-30.874 33.271-34.476 4.07-0.978 9.798-1.211 13.953 3.241 3.052 3.27 4.457 6.827 4.177 10.572-0.481 6.451-5.803 11.857-7.809 13.68-4.632-5.687-10.007-8.409-16-8.071-8.855 0.489-17.298 7.708-22.157 15.054h-5.435zm-23.14 50.833h5.825c0.212 2.953 0.891 11.666 2.083 20.292h-9.991c1.192-8.627 1.871-17.339 2.083-20.292zm-4.102 20.292h-5.144c1.783-9.168 2.619-16.542 2.756-20.292h4.484c-0.223 3.098-0.908 11.775-2.096 20.292zm11.932-20.292h5.31c0.135 3.75 0.958 11.123 2.738 20.292h-5.952c-1.186-8.516-1.872-17.193-2.096-20.292zm-25.88-2v-5.75h42.875v5.75h-42.875zm-2-7.75h-2.59c-1.949 0-3.535-1.738-3.535-3.875s1.586-3.875 3.535-3.875h52.056c1.949 0 3.534 1.738 3.534 3.875s-1.585 3.875-3.534 3.875h-49.466zm44.875-9.75h-42.875v-5.75h42.875v5.75zm-26.088-7.75c-1.083-3.285-3.656-11.314-6.095-20.583h22.49c-2.439 9.268-5.013 17.298-6.095 20.583h-10.3zm16.775 0h-4.348c0.848-2.565 3.407-10.499 6.035-20.583h2.97c-3.162 11.088-4.401 16.191-4.657 20.583zm0.39-23.583h-24.032c-3.437-13.627-5.027-24.043-4.716-30.953 0.716-15.961 13.301-25.503 15.987-27.362 2.873 1.809 16.758 11.36 17.477 27.362 0.31 6.907-1.28 17.324-4.716 30.953zm-19.227 23.583h-5.393c-0.255-4.392-1.495-9.495-4.654-20.583h3.945c2.59 9.91 5.176 17.827 6.102 20.583zm-7.395 0h-2.688c-0.352-2.981-1.744-11.798-6.569-20.583h4.524c3.203 11.211 4.468 16.325 4.733 20.583zm-11.059-23.583c-4.859-7.345-13.302-14.565-22.158-15.054-5.986-0.339-11.368 2.384-16 8.072-2.004-1.817-7.32-7.21-7.807-13.672-0.283-3.749 1.122-7.309 4.176-10.581 4.154-4.451 9.88-4.221 13.954-3.241 15 3.602 28.635 20.369 33.27 34.476h-5.435zm-12.703 101.59c-5.667-0.864-8.129-4.01-9.197-6.497-1.419-3.305-1.08-6.969-0.224-8.947 5.531 2.905 10.385 3.579 14.439 2.001 5.932-2.307 8.954-8.887 10.725-14.024h6.923c-3.044 12.929-11.678 29.14-22.666 27.467zm16.595-30.467c1.787-5.952 4.292-16.045 5.33-20.292h4.089c-0.264 4.234-1.167 11.843-2.816 20.292h-6.603zm20.921 59.772c-8.483-8.34-13.527-17.196-13.876-24.404-0.196-4.041 1.872-10.324 4.061-16.978 1.713-5.207 3.469-10.569 4.331-15.391h10.893c0.862 4.821 2.618 10.184 4.331 15.391 2.188 6.653 4.256 12.937 4.061 16.978-0.352 7.255-5.369 16.11-13.801 24.404zm12.068-80.064h4.088c1.039 4.249 3.545 14.345 5.331 20.292h-6.603c-1.65-8.449-2.552-16.058-2.816-20.292zm35.377 44.262c-1.066 2.487-3.529 5.633-9.197 6.497-11.014 1.69-19.625-14.536-22.666-27.467h6.923c1.771 5.137 4.795 11.717 10.726 14.024 4.053 1.579 8.908 0.904 14.439-2.001 0.855 1.977 1.195 5.642-0.225 8.947zm53.202-33.853c0 3.264-0.245 6.567-0.689 9.883h-76.381c-1.866-6.064-4.509-16.82-5.351-20.292h5.565v-7.75h2.591c3.052 0 5.534-2.636 5.534-5.875s-2.482-5.875-5.534-5.875h-2.591v-7.75h-4.601c0.409-3.168 1.936-12.111 6.846-20.583h74.61v58.242zm0-61.242h-72.668c4.585-6.37 12.166-12.634 19.829-13.057 5.559-0.311 10.605 2.424 14.958 8.122l0.617 0.808 0.798-0.631c0.354-0.279 8.655-6.941 9.319-15.746 0.326-4.329-1.258-8.398-4.708-12.096-3.809-4.081-9.302-5.404-15.883-3.822-12.708 3.052-29.062 17.451-34.898 36.421h-3.082c3.399-13.581 4.968-24.026 4.653-31.043-0.849-18.889-18.268-28.911-19.009-29.328l-0.514-0.29-0.502 0.31c-0.678 0.417-16.59 10.445-17.436 29.308-0.315 7.02 1.253 17.464 4.651 31.043h-4.057c-5.837-18.97-22.191-33.369-34.899-36.421-6.58-1.58-12.072-0.258-15.88 3.823-3.451 3.697-5.035 7.767-4.708 12.096 0.665 8.804 8.966 15.466 9.319 15.746l0.798 0.631 0.617-0.808c4.352-5.697 9.378-8.431 14.958-8.122 7.663 0.423 15.244 6.687 19.83 13.057h-72.812c0.054-29.925 0.194-61.111 0.235-70.003h200.47v70.002z" fill="#222221"/>


	<g fill="#FF0001">
		<path d="m90.766 146.13c1.649-8.449 2.552-16.058 2.816-20.292h-4.089c-1.038 4.247-3.543 14.34-5.33 20.292h6.603z"/>
		<path d="m99.967 146.13h9.991c-1.192-8.626-1.871-17.339-2.083-20.292h-5.825c-0.212 2.953-0.891 11.665-2.083 20.292z"/>
		<path d="m131.47 116.08c1.949 0 3.534-1.738 3.534-3.875s-1.585-3.875-3.534-3.875h-52.056c-1.949 0-3.535 1.738-3.535 3.875s1.586 3.875 3.535 3.875h52.056z"/>
		<rect x="84" y="118.08" width="42.875" height="5.75"/>
		<path d="m119.97 146.13h6.603c-1.786-5.947-4.292-16.043-5.331-20.292h-4.088c0.264 4.234 1.166 11.843 2.816 20.292z"/>
		<path d="m205.73 5h-200.47c-0.042 8.892-0.182 40.078-0.235 70.002h72.811c-4.585-6.37-12.167-12.634-19.83-13.057-5.58-0.309-10.606 2.425-14.958 8.122l-0.617 0.808-0.798-0.631c-0.353-0.279-8.654-6.941-9.319-15.746-0.327-4.329 1.258-8.398 4.708-12.096 3.809-4.081 9.3-5.403 15.883-3.822 12.708 3.052 29.062 17.451 34.899 36.421h4.057c-3.398-13.579-4.967-24.023-4.651-31.043 0.846-18.863 16.758-28.891 17.436-29.308l0.502-0.31 0.514 0.29c0.741 0.417 18.16 10.439 19.009 29.328 0.314 7.017-1.254 17.462-4.653 31.043h3.082c5.836-18.97 22.19-33.369 34.898-36.421 6.581-1.583 12.074-0.259 15.883 3.822 3.45 3.697 5.034 7.767 4.708 12.096-0.664 8.804-8.966 15.466-9.319 15.746l-0.798 0.631-0.617-0.808c-4.353-5.698-9.399-8.432-14.958-8.122-7.663 0.423-15.244 6.687-19.829 13.057h72.668v-70.002z"/>
		<path d="m82.073 78.002c4.825 8.785 6.217 17.602 6.569 20.583h2.688c-0.265-4.258-1.529-9.372-4.732-20.583h-4.525z"/>
		<rect x="84" y="100.58" width="42.875" height="5.75"/>
		<path d="m124.3 78.002c-3.202 11.211-4.467 16.325-4.732 20.583h2.689c0.351-2.981 1.743-11.798 6.568-20.583h-4.525z"/>
		<path d="m117.18 78.002h-22.49c2.439 9.269 5.012 17.298 6.095 20.583h10.3c1.082-3.285 3.656-11.315 6.095-20.583z"/>
	</g>


	<g fill="#fff">
		<path d="m67.568 176.59c10.988 1.673 19.622-14.538 22.666-27.467h-6.923c-1.771 5.137-4.793 11.717-10.725 14.024-4.054 1.578-8.908 0.904-14.439-2.001-0.856 1.978-1.195 5.643 0.224 8.947 1.068 2.487 3.531 5.633 9.197 6.497z"/>
		<path d="m111.98 146.13h5.952c-1.78-9.169-2.604-16.542-2.738-20.292h-5.31c0.223 3.099 0.909 11.776 2.096 20.292z"/>
		<path d="m122.67 44.049c-0.719-16.001-14.604-25.553-17.477-27.362-2.687 1.859-15.271 11.4-15.987 27.362-0.312 6.91 1.279 17.326 4.716 30.953h24.031c3.437-13.629 5.027-24.046 4.717-30.953z"/>
		<path d="m98.725 98.585c-0.926-2.756-3.512-10.673-6.102-20.583h-3.945c3.159 11.088 4.398 16.191 4.654 20.583h5.393z"/>
		<path d="m5.267 136.77c0.145 3.094 0.507 6.22 1.021 9.354h75.786c1.911-6.198 4.62-17.162 5.384-20.292h-5.458v-7.75h-2.59c-3.052 0-5.535-2.636-5.535-5.875s2.483-5.875 5.535-5.875h2.59v-7.75h4.62c-0.409-3.168-1.936-12.111-6.846-20.583h-74.757c-0.044 27.505-9e-3 53.263 0.25 58.771z"/>
		<path d="m38.481 43.767c-3.054 3.272-4.458 6.832-4.176 10.581 0.487 6.462 5.803 11.854 7.807 13.672 4.632-5.688 10.014-8.411 16-8.072 8.855 0.489 17.299 7.708 22.158 15.054h5.434c-4.634-14.107-18.27-30.874-33.27-34.476-4.073-0.98-9.798-1.21-13.953 3.241z"/>
		<path d="m130.62 75.002c4.859-7.345 13.302-14.565 22.157-15.054 5.993-0.338 11.368 2.384 16 8.071 2.006-1.822 7.327-7.229 7.809-13.68 0.28-3.746-1.125-7.303-4.177-10.572-4.155-4.452-9.883-4.219-13.953-3.241-14.999 3.602-28.635 20.369-33.271 34.476h5.435z"/>
		<path d="m119.25 78.002c-2.628 10.084-5.187 18.018-6.035 20.583h4.348c0.256-4.392 1.495-9.495 4.656-20.583h-2.969z"/>
		<path d="m118.88 181.5c0.195-4.041-1.873-10.324-4.061-16.978-1.713-5.207-3.469-10.569-4.331-15.391h-10.892c-0.862 4.821-2.618 10.184-4.331 15.391-2.189 6.653-4.256 12.937-4.061 16.978 0.349 7.208 5.393 16.064 13.876 24.404 8.432-8.294 13.449-17.149 13.8-24.404z"/>
		<path d="m143.33 176.59c5.668-0.864 8.131-4.01 9.197-6.497 1.42-3.305 1.08-6.969 0.225-8.947-5.531 2.905-10.387 3.58-14.439 2.001-5.931-2.307-8.954-8.887-10.726-14.024h-6.923c3.041 12.931 11.652 29.157 22.666 27.467z"/>
		<path d="m100.04 125.84h-4.484c-0.137 3.75-0.973 11.124-2.756 20.292h5.144c1.187-8.517 1.872-17.194 2.096-20.292z"/>
		<path d="m205.73 136.24v-58.242h-74.61c-4.91 8.472-6.437 17.415-6.846 20.583h4.601v7.75h2.591c3.052 0 5.534 2.636 5.534 5.875s-2.482 5.875-5.534 5.875h-2.591v7.75h-5.565c0.842 3.472 3.484 14.228 5.351 20.292h76.381c0.443-3.316 0.688-6.619 0.688-9.883z"/>
	</g>

</svg>
