<?xml version="1.0" encoding="UTF-8" standalone="no"?>
<svg
   xmlns:dc="http://purl.org/dc/elements/1.1/"
   xmlns:cc="http://creativecommons.org/ns#"
   xmlns:rdf="http://www.w3.org/1999/02/22-rdf-syntax-ns#"
   xmlns:svg="http://www.w3.org/2000/svg"
   xmlns="http://www.w3.org/2000/svg"
   xmlns:xlink="http://www.w3.org/1999/xlink"
   xmlns:sodipodi="http://sodipodi.sourceforge.net/DTD/sodipodi-0.dtd"
   xmlns:inkscape="http://www.inkscape.org/namespaces/inkscape"
   version="1.1"
   width="525"
   height="612"
   viewBox="0 0 350 408"
   id="svg22"
   sodipodi:docname="2766.svg">
  <metadata
     id="metadata26">
    <rdf:RDF>
      <cc:Work
         rdf:about="">
        <dc:format>image/svg+xml</dc:format>
        <dc:type
           rdf:resource="http://purl.org/dc/dcmitype/StillImage" />
      </cc:Work>
    </rdf:RDF>
  </metadata>
  <sodipodi:namedview
     pagecolor="#ffffff"
     bordercolor="#666666"
     borderopacity="1"
     objecttolerance="10"
     gridtolerance="10"
     guidetolerance="10"
     inkscape:pageopacity="0"
     inkscape:pageshadow="2"
     inkscape:window-width="640"
     inkscape:window-height="480"
     id="namedview24" />
  <title
     id="title2">Wappen von Birsfelden</title>
  <desc
     id="desc4">Wappen der Schweizer Gemeinde Birsfelden, Kanton Baselland</desc>
  <defs
     id="defs9">
    <clipPath
       id="cpSchild">
      <path
         d="M 4,4 H 346 V 200 H 4 z"
         id="path6" />
    </clipPath>
  </defs>
  <g
     stroke="black"
     stroke-width="4"
     id="g20">
    <path
       d="M 2,2 h 346 V 233 A 173 173 0 0 1 2,233 z"
       fill="#e2001a"
       id="path11" />
    <path
       d="M -65,83 c 30,0 50,20 80,20 s 50,-20 80,-20 50,20 80,20 50,-20 80,-20 50,20 80,20 50,-20 80,-20 V 28 C 385,28 365,48 335,48 S 285,28 255,28 205,48 175,48 125,28 95,28 45,48 15,48 -45,28 -65,28"
       fill="white"
       clip-path="url(#cpSchild)"
       id="path13" />
    <path
       d="M 98,97 L 115.5,148 168,137.6 133,178 168,218.4 115.5,208 98,259 80.5,208 28,218.4 63,178 28,137.6 80.5,148 z"
       id="Stern"
       fill="#ffd400" />
    <use
       x="154"
       xlink:href="#Stern"
       id="use16" />
    <use
       x="77"
       y="133"
       xlink:href="#Stern"
       id="use18" />
  </g>
</svg>
