<?xml version="1.0" standalone="no"?>
<!DOCTYPE svg PUBLIC "-//W3C//DTD SVG 1.1//EN"
 "http://www.w3.org/Graphics/SVG/1.1/DTD/svg11.dtd">
<!-- Created with svg_stack (http://github.com/astraw/svg_stack) -->
<svg xmlns="http://www.w3.org/2000/svg" xmlns:sodipodi="http://sodipodi.sourceforge.net/DTD/sodipodi-0.dtd" version="1.1" width="158.0" height="192.0">
  <defs/>
  <g id="id0:id0" transform="matrix(1.25,0,0,1.25,0.0,0.0)"><g transform="translate(0.000000,153.600000) scale(0.040000,-0.040000)" fill="#fdfdfd" stroke="none">
<path d="M1628 2989 c-2 -385 -2 -701 -1 -702 1 -1 66 -1 146 1 l145 3 6 43 c9 55 59 119 88 110 19 -6 20 -2 16 104 -4 133 -13 149 -82 144 -57 -5 -94 -38 -98 -89 -5 -57 -28 -63 -72 -17 -52 53 -106 139 -106 169 0 13 -4 27 -10 30 -12 8 -13 129 -1 153 5 9 17 36 27 60 21 51 103 137 148 156 17 7 55 12 84 12 42 -1 52 2 52 16 0 9 -4 20 -10 23 -16 10 -11 63 10 105 18 36 106 128 134 140 35 15 139 95 153 118 10 15 23 31 30 35 7 4 13 15 13 23 0 9 6 14 13 11 6 -2 12 -13 12 -25 1 -26 43 -72 60 -66 7 3 15 -2 19 -11 3 -9 10 -14 16 -10 5 3 24 -10 41 -29 17 -20 34 -34 39 -31 10 6 130 -115 130 -132 0 -7 5 -13 10 -13 22 0 0 -109 -28 -143 -19 -22 -10 -32 16 -18 26 14 192 15 192 1 0 -5 6 -10 13 -10 18 0 137 -119 137 -137 0 -7 5 -13 10 -13 13 0 13 -134 1 -158 -5 -9 -15 -37 -22 -62 -40 -136 -189 -294 -189 -200 0 10 -5 22 -11 26 -6 3 -9 14 -6 24 9 33 -35 62 -93 62 -78 0 -84 -11 -88 -143 -4 -107 -3 -111 16 -105 33 11 82 -46 82 -94 0 -21 -4 -42 -10 -45 -27 -17 4 -20 170 -17 l180 3 0 699 0 700 -690 0 -690 0 -2 -701z"/>
<path d="M270 3290 l0 -200 40 0 39 0 3 78 3 77 105 0 105 0 0 -75 0 -75 60 -5 60 -5 0 -105 0 -105 -57 -3 -57 -3 -3 -77 -3 -77 -105 0 -105 0 -3 78 -3 77 -39 0 -40 0 0 -190 0 -190 170 0 169 0 3 88 3 87 78 3 77 3 0 299 0 299 -77 3 -78 3 -3 108 -3 107 -169 0 -170 0 0 -200z"/>
<path d="M850 2790 l0 -700 110 0 110 0 2 700 3 700 -112 0 -113 0 0 -700z"/>
<path d="M729 2003 c-32 -8 -29 -49 5 -82 l32 -31 179 0 c214 0 258 10 263 58 6 55 -25 62 -260 61 -112 -1 -210 -3 -219 -6z"/>
<path d="M733 1817 c-16 -8 -22 -22 -25 -57 -3 -25 0 -51 5 -57 13 -18 432 -18 467 0 47 24 30 107 -22 107 -10 0 -18 5 -18 10 0 14 -378 11 -407 -3z"/>
<path d="M640 1620 c0 -5 -9 -10 -20 -10 -11 0 -20 -4 -20 -10 0 -5 -7 -10 -15 -10 -28 0 -120 -87 -131 -124 -4 -12 -11 -24 -17 -27 -12 -8 -9 -233 4 -237 5 -2 9 -12 9 -23 0 -10 9 -24 20 -31 11 -7 20 -21 20 -30 0 -10 5 -18 10 -18 6 0 10 -8 10 -18 0 -27 317 -336 365 -357 53 -22 125 -25 149 -5 10 8 19 14 20 12 0 -2 12 1 26 6 25 10 140 123 140 139 0 4 22 31 48 60 66 73 92 109 92 127 0 9 5 16 10 16 6 0 20 21 30 48 11 26 24 55 30 64 5 10 10 29 10 42 0 14 5 28 10 31 6 3 10 44 10 90 0 46 -4 87 -10 90 -5 3 -10 20 -10 37 0 22 -4 29 -14 25 -11 -4 -13 -1 -9 10 8 20 -60 82 -98 90 -16 3 -32 10 -35 14 -7 12 -171 11 -179 -1 -3 -5 -19 -10 -34 -10 -15 0 -37 -9 -49 -21 -12 -11 -26 -18 -31 -15 -5 3 -11 -1 -15 -9 -8 -21 -29 -19 -46 5 -8 11 -20 20 -27 20 -7 0 -13 3 -13 8 0 4 -12 13 -27 20 -33 15 -213 17 -213 2z m279 -182 l28 -32 39 32 c33 28 46 32 95 32 42 0 58 -4 63 -16 3 -8 10 -13 15 -10 5 3 27 -13 50 -35 51 -51 52 -73 11 -184 -19 -50 -77 -161 -92 -177 -10 -10 -18 -22 -18 -27 0 -4 -21 -31 -47 -59 -27 -28 -63 -68 -80 -89 l-33 -38 -67 70 c-57 59 -174 193 -201 230 -4 6 -13 24 -21 40 -7 17 -17 38 -22 47 -12 24 -11 105 1 113 6 3 10 14 10 25 0 10 7 20 15 24 8 3 15 12 15 19 0 26 90 65 153 66 52 1 60 -2 86 -31z"/>
<path d="M3146 1438 c-7 -114 -16 -181 -27 -193 -5 -5 -9 -24 -9 -41 0 -18 -4 -36 -10 -39 -5 -3 -10 -17 -10 -30 0 -13 -4 -27 -10 -30 -5 -3 -10 -17 -10 -30 0 -13 -4 -27 -10 -30 -5 -3 -10 -15 -10 -25 0 -11 -9 -35 -20 -55 -11 -20 -20 -42 -20 -50 0 -8 -4 -15 -10 -15 -5 0 -10 -9 -10 -20 0 -11 -4 -20 -10 -20 -5 0 -10 -9 -10 -20 0 -11 -4 -20 -10 -20 -5 0 -10 -9 -10 -20 0 -11 -4 -20 -9 -20 -5 0 -14 -13 -21 -30 -7 -16 -16 -30 -21 -30 -5 0 -9 -9 -9 -19 0 -10 -7 -21 -14 -24 -8 -3 -22 -20 -31 -37 -9 -18 -32 -45 -51 -62 -19 -17 -34 -35 -34 -42 0 -14 -181 -196 -196 -196 -5 0 -25 -16 -44 -35 -19 -19 -40 -35 -47 -35 -7 0 -18 -9 -25 -20 -7 -11 -20 -20 -29 -20 -9 0 -24 -9 -34 -20 -10 -11 -24 -20 -32 -20 -7 0 -13 -4 -13 -10 0 -5 -9 -10 -20 -10 -11 0 -20 -4 -20 -10 0 -5 -9 -10 -20 -10 -11 0 -20 -4 -20 -10 0 -5 -9 -10 -20 -10 -11 0 -20 -4 -20 -10 0 -5 -9 -10 -19 -10 -11 0 -23 -4 -26 -10 -3 -5 -17 -10 -31 -10 -13 0 -24 -3 -24 -8 0 -9 -72 -32 -100 -32 -11 0 -20 -4 -20 -10 0 -5 -18 -10 -40 -10 -22 0 -40 -4 -40 -9 0 -6 -21 -12 -47 -14 -27 -2 252 -4 620 -5 l667 -2 0 760 c0 418 -2 760 -4 760 -3 0 -7 -37 -10 -82z"/>
<path d="M2 713 l-2 -713 663 1 c625 2 668 4 524 25 -20 4 -40 10 -43 15 -3 5 -16 9 -29 9 -13 0 -27 5 -30 10 -3 6 -17 10 -30 10 -13 0 -27 5 -30 10 -3 6 -15 10 -26 10 -10 0 -19 5 -19 10 0 6 -6 10 -12 10 -19 0 -148 63 -148 72 0 4 -9 8 -20 8 -11 0 -20 5 -20 11 0 5 -14 15 -30 20 -17 6 -30 14 -30 19 0 4 -13 13 -29 20 -16 6 -32 18 -35 26 -3 8 -15 18 -25 22 -27 10 -291 272 -291 288 0 7 -11 21 -25 32 -13 11 -30 31 -36 46 -7 14 -15 26 -19 26 -4 0 -13 14 -20 30 -7 17 -16 30 -21 30 -5 0 -9 9 -9 20 0 11 -4 20 -10 20 -5 0 -10 9 -10 20 0 11 -4 20 -10 20 -5 0 -10 9 -10 20 0 11 -4 20 -10 20 -5 0 -10 9 -10 20 0 11 -4 20 -10 20 -5 0 -10 6 -10 13 0 7 -9 32 -20 55 -11 22 -20 48 -20 56 0 8 -4 18 -10 21 -5 3 -10 17 -10 30 0 13 -4 27 -10 30 -5 3 -10 21 -10 40 0 19 -4 37 -10 40 -5 3 -10 21 -10 39 0 17 -4 36 -9 42 -6 5 -12 38 -14 74 -2 36 -4 -256 -5 -647z"/>
<path d="M1630 770 l0 -640 35 0 c19 0 35 5 35 10 0 6 23 10 50 10 28 0 50 5 50 10 0 6 14 10 30 10 17 0 30 5 30 11 0 7 11 9 26 6 16 -3 28 0 31 9 3 8 12 14 21 14 23 0 112 29 155 52 10 5 22 6 26 3 5 -2 14 2 21 10 7 8 16 15 21 15 18 0 177 80 189 95 7 8 16 15 21 15 34 0 340 293 354 338 3 12 11 22 16 22 6 0 15 14 20 30 6 17 15 30 20 30 5 0 9 9 9 19 0 11 4 21 9 23 8 3 63 107 94 178 31 71 63 175 77 250 4 25 11 62 15 83 l8 37 -682 0 -681 0 0 -640z"/>
<path d="M1060 663 c0 -28 -162 -47 -187 -22 -6 6 -21 9 -34 7 -21 -3 -25 -10 -30 -51 -6 -53 8 -75 44 -69 11 2 23 -2 27 -9 14 -21 148 -12 192 14 33 18 38 26 38 57 0 19 -7 46 -16 58 -15 21 -34 30 -34 15z"/>
</g>
</g>
  <g id="id1:id1" transform="matrix(1.25,0,0,1.25,0.0,0.0)"><g transform="translate(0.000000,153.600000) scale(0.040000,-0.040000)" fill="#cfcdcf" stroke="none">
<path d="M1625 3688 c-3 -7 -4 -323 -3 -703 l3 -690 3 698 2 697 690 0 690 0 0 -700 0 -700 -177 -3 -178 -2 183 -3 182 -2 -2 708 -3 707 -693 3 c-549 2 -694 0 -697 -10z"/>
<path d="M2306 3633 c6 -4 14 -15 17 -23 5 -11 6 -9 4 4 -1 11 -9 21 -17 23 -10 3 -11 2 -4 -4z"/>
<path d="M2266 3583 c-6 -14 -5 -15 5 -6 7 7 10 15 7 18 -3 3 -9 -2 -12 -12z"/>
<path d="M2234 3538 l-19 -23 23 19 c21 18 27 26 19 26 -2 0 -12 -10 -23 -22z"/>
<path d="M2180 3499 c-22 -18 -22 -19 -3 -10 12 6 25 16 28 21 9 15 3 12 -25 -11z"/>
<path d="M264 3487 c-2 -7 -3 -100 -2 -207 l3 -195 45 0 45 0 3 78 3 77 99 0 99 0 4 -72 4 -73 -1 75 -1 75 -105 0 -105 0 -3 -77 -3 -78 -39 0 -40 0 0 200 0 200 170 0 169 0 3 -107 3 -108 78 -3 77 -3 0 -299 0 -299 -77 -3 -78 -3 -3 -87 -3 -88 -169 0 -170 0 0 190 0 190 40 0 39 0 3 -77 3 -78 105 0 105 0 3 77 3 77 57 3 57 3 0 105 0 105 -55 1 -55 0 53 -3 52 -4 0 -99 0 -99 -57 -3 -58 -3 -3 -77 -3 -78 -99 0 -99 0 -3 78 -3 77 -45 0 -45 0 0 -195 0 -195 175 0 175 0 3 87 3 87 77 3 77 3 0 305 0 305 -77 3 -78 3 0 109 0 110 -175 0 c-133 0 -177 -3 -181 -13z"/>
<path d="M845 3488 c-3 -7 -4 -326 -3 -708 l3 -695 115 0 115 0 0 698 0 697 -2 -695 -3 -695 -110 0 -110 0 0 700 0 699 113 4 112 3 -113 2 c-82 1 -114 -1 -117 -10z"/>
<path d="M2130 3465 c-7 -8 -18 -15 -24 -15 -7 0 -23 -12 -37 -27 l-24 -28 26 23 c14 12 30 22 36 22 5 0 18 9 28 20 10 11 16 20 13 20 -3 0 -11 -7 -18 -15z"/>
<path d="M1986 3343 c-6 -14 -5 -15 5 -6 7 7 10 15 7 18 -3 3 -9 -2 -12 -12z"/>
<path d="M2622 3340 c0 -14 2 -19 5 -12 2 6 2 18 0 25 -3 6 -5 1 -5 -13z"/>
<path d="M1966 3303 c-6 -14 -5 -15 5 -6 7 7 10 15 7 18 -3 3 -9 -2 -12 -12z"/>
<path d="M2642 3290 c0 -19 2 -27 5 -17 2 9 2 25 0 35 -3 9 -5 1 -5 -18z"/>
<path d="M1950 3246 c0 -19 3 -37 8 -40 4 -2 6 13 4 35 -5 48 -12 51 -12 5z"/>
<path d="M2621 3204 c0 -11 3 -14 6 -6 3 7 2 16 -1 19 -3 4 -6 -2 -5 -13z"/>
<path d="M1971 3174 c0 -11 3 -14 6 -6 3 7 2 16 -1 19 -3 4 -6 -2 -5 -13z"/>
<path d="M1908 3163 c12 -2 30 -2 40 0 9 3 -1 5 -23 4 -22 0 -30 -2 -17 -4z"/>
<path d="M2683 3163 c26 -2 68 -2 95 0 26 2 4 3 -48 3 -52 0 -74 -1 -47 -3z"/>
<path d="M1824 3150 c-12 -5 -25 -13 -28 -19 -4 -5 7 -3 24 5 16 9 30 17 30 20 0 5 0 5 -26 -6z"/>
<path d="M2590 3148 c0 -4 6 -8 14 -8 8 0 17 4 20 8 2 4 -4 8 -15 8 -10 0 -19 -4 -19 -8z"/>
<path d="M2828 3143 c6 -2 18 -2 25 0 6 3 1 5 -13 5 -14 0 -19 -2 -12 -5z"/>
<path d="M1706 3043 c-6 -14 -5 -15 5 -6 7 7 10 15 7 18 -3 3 -9 -2 -12 -12z"/>
<path d="M2962 3020 c0 -14 2 -19 5 -12 2 6 2 18 0 25 -3 6 -5 1 -5 -13z"/>
<path d="M1686 3003 c-6 -14 -5 -15 5 -6 7 7 10 15 7 18 -3 3 -9 -2 -12 -12z"/>
<path d="M2982 2928 c-1 -42 -6 -80 -12 -83 -5 -3 -9 -18 -9 -33 1 -20 2 -22 6 -7 2 11 9 29 14 40 6 11 8 52 6 90 l-3 70 -2 -77z"/>
<path d="M1671 2963 c0 -12 -5 -25 -11 -28 -5 -3 -10 -37 -10 -75 0 -38 5 -72 10 -75 6 -3 10 -18 10 -33 0 -15 7 -36 15 -46 8 -11 15 -15 15 -9 0 7 -4 15 -10 18 -5 3 -10 19 -10 35 0 16 -4 32 -10 35 -14 8 -13 138 1 152 6 6 9 19 6 29 -4 16 -5 16 -6 -3z"/>
<path d="M2945 2765 c-3 -8 -7 -22 -10 -31 -3 -8 -1 -13 4 -10 5 3 11 17 13 31 6 27 0 34 -7 10z"/>
<path d="M2912 2690 c-18 -29 -15 -38 4 -12 9 13 14 25 12 27 -2 2 -9 -5 -16 -15z"/>
<path d="M1889 2683 c-12 -16 -12 -17 1 -6 8 6 33 13 55 16 l40 4 -41 1 c-29 1 -46 -3 -55 -15z"/>
<path d="M2618 2693 c6 -2 18 -2 25 0 6 3 1 5 -13 5 -14 0 -19 -2 -12 -5z"/>
<path d="M2678 2693 c6 -2 18 -2 25 0 6 3 1 5 -13 5 -14 0 -19 -2 -12 -5z"/>
<path d="M1852 2648 c-7 -7 -12 -27 -12 -45 0 -26 -5 -36 -22 -43 -14 -5 -17 -9 -7 -9 24 -1 39 20 39 54 0 17 5 36 12 43 7 7 10 12 7 12 -3 0 -10 -5 -17 -12z"/>
<path d="M1720 2646 c0 -2 8 -10 18 -17 15 -13 16 -12 3 4 -13 16 -21 21 -21 13z"/>
<path d="M2030 2542 l5 -107 3 99 c1 55 -1 103 -5 107 -4 5 -6 -40 -3 -99z"/>
<path d="M2564 2637 c-3 -8 -3 -54 -2 -103 l3 -89 5 103 c5 101 4 114 -6 89z"/>
<path d="M2750 2632 c0 -7 4 -20 9 -30 5 -9 12 -25 15 -34 3 -10 11 -18 18 -17 10 0 10 2 1 6 -7 2 -13 11 -13 18 0 7 -7 26 -15 41 -8 16 -15 23 -15 16z"/>
<path d="M2818 2573 c7 -3 16 -2 19 1 4 3 -2 6 -13 5 -11 0 -14 -3 -6 -6z"/>
<path d="M2598 2443 c7 -3 16 -2 19 1 4 3 -2 6 -13 5 -11 0 -14 -3 -6 -6z"/>
<path d="M1950 2400 c-12 -17 -19 -36 -17 -43 4 -9 6 -8 6 1 1 8 10 27 22 43 11 16 18 29 15 29 -2 0 -14 -14 -26 -30z"/>
<path d="M2663 2355 c0 -27 2 -38 4 -22 2 15 2 37 0 50 -2 12 -4 0 -4 -28z"/>
<path d="M1921 2324 c0 -11 3 -14 6 -6 3 7 2 16 -1 19 -3 4 -6 -2 -5 -13z"/>
<path d="M1708 2283 c39 -2 105 -2 145 0 39 1 7 3 -73 3 -80 0 -112 -2 -72 -3z"/>
<path d="M737 2013 c-3 -5 59 -7 136 -5 258 4 285 8 75 10 -114 1 -209 -1 -211 -5z"/>
<path d="M1194 1987 c12 -8 17 -23 14 -41 -5 -46 -53 -56 -263 -56 l-179 0 -36 33 -35 32 35 -38 35 -38 195 3 c219 3 252 11 258 61 4 29 -12 57 -31 57 -6 0 -3 -6 7 -13z"/>
<path d="M701 1974 c0 -11 3 -14 6 -6 3 7 2 16 -1 19 -3 4 -6 -2 -5 -13z"/>
<path d="M853 1833 c54 -2 139 -2 190 0 51 1 7 3 -98 3 -104 0 -146 -2 -92 -3z"/>
<path d="M723 1820 c-19 -8 -23 -16 -21 -52 l1 -43 4 43 c3 27 9 42 18 42 8 0 17 5 20 10 7 12 7 12 -22 0z"/>
<path d="M1148 1813 c6 -2 18 -2 25 0 6 3 1 5 -13 5 -14 0 -19 -2 -12 -5z"/>
<path d="M1198 1790 c6 -8 12 -26 12 -40 0 -14 -6 -32 -12 -40 -11 -12 -10 -12 5 -1 9 7 17 26 17 41 0 15 -8 34 -17 41 -15 11 -16 11 -5 -1z"/>
<path d="M709 1698 c12 -16 34 -18 235 -16 l221 3 -219 2 c-155 3 -224 7 -235 16 -14 11 -14 10 -2 -5z"/>
<path d="M735 1633 c55 -2 104 -8 109 -13 6 -6 14 -10 20 -10 5 0 1 7 -10 15 -14 11 -44 14 -119 13 l-100 -2 100 -3z"/>
<path d="M1095 1630 c-3 -5 -19 -10 -34 -10 -16 0 -35 -8 -42 -17 -11 -15 -11 -16 1 -5 8 6 26 12 41 12 15 0 31 5 34 10 8 12 172 13 179 1 3 -5 17 -11 31 -13 13 -3 22 -1 19 3 -3 5 -14 9 -24 9 -10 0 -22 5 -25 10 -3 6 -44 10 -90 10 -46 0 -87 -4 -90 -10z"/>
<path d="M608 1613 c6 -2 18 -2 25 0 6 3 1 5 -13 5 -14 0 -19 -2 -12 -5z"/>
<path d="M578 1593 c7 -3 16 -2 19 1 4 3 -2 6 -13 5 -11 0 -14 -3 -6 -6z"/>
<path d="M535 1570 c-3 -6 1 -7 9 -4 18 7 21 14 7 14 -6 0 -13 -4 -16 -10z"/>
<path d="M945 1560 c-16 -7 -17 -9 -3 -9 9 -1 20 4 23 9 7 11 7 11 -20 0z"/>
<path d="M495 1540 c-10 -11 -16 -22 -14 -24 2 -2 12 7 22 20 22 29 17 32 -8 4z"/>
<path d="M1407 1516 c-4 -10 -1 -13 9 -9 10 4 14 -3 14 -25 0 -17 4 -33 8 -36 4 -2 6 11 4 29 -5 39 -26 64 -35 41z"/>
<path d="M3144 1517 c-3 -8 -4 -47 -2 -88 l3 -74 5 88 c5 87 4 99 -6 74z"/>
<path d="M443 1465 c-3 -9 -3 -18 -1 -21 3 -3 8 4 11 16 6 23 -1 27 -10 5z"/>
<path d="M750 1454 c-15 -8 -19 -14 -9 -14 8 0 19 4 25 9 5 6 38 12 74 14 l65 3 -65 1 c-38 1 -75 -5 -90 -13z"/>
<path d="M995 1444 l-30 -26 31 21 c19 13 52 21 90 24 l59 3 -60 2 c-52 2 -64 -2 -90 -24z"/>
<path d="M8 1362 c2 -37 7 -70 10 -74 4 -4 6 23 4 60 -2 37 -7 70 -10 74 -4 4 -6 -23 -4 -60z"/>
<path d="M1453 1355 c0 -44 2 -61 4 -37 2 23 2 59 0 80 -2 20 -4 1 -4 -43z"/>
<path d="M424 1315 c0 -60 1 -84 3 -52 2 32 2 81 0 110 -2 29 -3 3 -3 -58z"/>
<path d="M1625 1408 c-3 -7 -4 -299 -3 -648 l3 -635 35 -1 35 -2 -32 5 -33 4 0 640 0 639 681 0 682 0 -6 -37 c-5 -29 -4 -34 4 -20 6 10 9 28 7 40 l-3 22 -683 3 c-541 2 -684 0 -687 -10z"/>
<path d="M652 1360 c0 -14 2 -19 5 -12 2 6 2 18 0 25 -3 6 -5 1 -5 -13z"/>
<path d="M1243 1340 c0 -25 2 -35 4 -22 2 12 2 32 0 45 -2 12 -4 2 -4 -23z"/>
<path d="M3127 1343 c-4 -3 -7 -26 -7 -49 0 -24 -4 -46 -10 -49 -5 -3 -10 -21 -10 -39 0 -17 -5 -37 -11 -43 -6 -6 -9 -21 -6 -34 4 -22 4 -22 6 3 0 15 6 30 11 33 6 3 10 21 10 39 0 17 4 36 9 42 7 7 21 104 15 104 0 0 -4 -3 -7 -7z"/>
<path d="M633 1280 c0 -30 2 -43 4 -27 2 15 2 39 0 55 -2 15 -4 2 -4 -28z"/>
<path d="M2973 1295 c0 -22 2 -30 4 -17 2 12 2 30 0 40 -3 9 -5 -1 -4 -23z"/>
<path d="M1227 1283 c-4 -3 -7 -15 -7 -25 0 -10 -4 -26 -9 -36 -39 -77 -71 -147 -71 -156 0 -21 85 162 93 202 5 23 4 26 -6 15z"/>
<path d="M32 1240 c0 -19 2 -27 5 -17 2 9 2 25 0 35 -3 9 -5 1 -5 -18z"/>
<path d="M1434 1256 c-3 -8 -4 -25 -2 -38 3 -17 5 -13 9 15 5 38 2 47 -7 23z"/>
<path d="M2949 1202 c-3 -20 -2 -29 4 -23 5 5 7 19 5 32 -3 20 -5 19 -9 -9z"/>
<path d="M651 1209 c0 -9 6 -30 14 -45 8 -16 15 -22 15 -13 0 8 -4 19 -9 25 -5 5 -11 18 -14 29 -3 14 -5 15 -6 4z"/>
<path d="M52 1168 c-1 -20 3 -40 8 -43 6 -3 10 -16 10 -29 0 -12 4 -26 9 -31 5 -6 11 -19 14 -30 4 -18 5 -18 6 2 0 12 -3 25 -9 28 -5 3 -10 16 -10 29 0 12 -4 26 -9 32 -5 5 -11 25 -14 44 l-4 35 -1 -37z"/>
<path d="M441 1184 c0 -11 3 -14 6 -6 3 7 2 16 -1 19 -3 4 -6 -2 -5 -13z"/>
<path d="M1407 1171 c-4 -17 -3 -21 5 -13 5 5 8 16 6 23 -3 8 -7 3 -11 -10z"/>
<path d="M2928 1137 c-3 -19 -2 -25 4 -19 6 6 8 18 6 28 -3 14 -5 12 -10 -9z"/>
<path d="M481 1124 c0 -11 3 -14 6 -6 3 7 2 16 -1 19 -3 4 -6 -2 -5 -13z"/>
<path d="M1387 1121 c-4 -17 -3 -21 5 -13 5 5 8 16 6 23 -3 8 -7 3 -11 -10z"/>
<path d="M501 1084 c0 -11 3 -14 6 -6 3 7 2 16 -1 19 -3 4 -6 -2 -5 -13z"/>
<path d="M2911 1083 c-1 -12 -5 -24 -10 -27 -9 -6 -22 -46 -16 -46 9 0 36 71 32 82 -3 7 -6 3 -6 -9z"/>
<path d="M3062 1075 c0 -16 2 -22 5 -12 2 9 2 23 0 30 -3 6 -5 -1 -5 -18z"/>
<path d="M1351 1064 c0 -11 3 -14 6 -6 3 7 2 16 -1 19 -3 4 -6 -2 -5 -13z"/>
<path d="M1096 1015 c-13 -19 -13 -23 -2 -19 8 3 16 14 19 25 7 25 3 24 -17 -6z"/>
<path d="M3041 1018 c0 -15 -5 -30 -11 -33 -5 -3 -10 -14 -10 -23 0 -11 6 -6 15 12 9 17 14 39 12 50 -3 16 -5 15 -6 -6z"/>
<path d="M1323 1018 c-15 -20 -25 -38 -20 -38 3 0 12 11 21 25 17 26 16 35 -1 13z"/>
<path d="M795 1000 c10 -11 20 -20 23 -20 3 0 -3 9 -13 20 -10 11 -20 20 -23 20 -3 0 3 -9 13 -20z"/>
<path d="M107 989 c4 -13 8 -18 11 -10 2 7 -1 18 -6 23 -8 8 -9 4 -5 -13z"/>
<path d="M835 950 c10 -11 20 -20 23 -20 3 0 -3 9 -13 20 -10 11 -20 20 -23 20 -3 0 3 -9 13 -20z"/>
<path d="M2850 950 c-6 -11 -8 -20 -6 -20 3 0 10 9 16 20 6 11 8 20 6 20 -3 0 -10 -9 -16 -20z"/>
<path d="M132 940 c0 -14 2 -19 5 -12 2 6 2 18 0 25 -3 6 -5 1 -5 -13z"/>
<path d="M3002 920 c0 -14 2 -19 5 -12 2 6 2 18 0 25 -3 6 -5 1 -5 -13z"/>
<path d="M1233 908 c-11 -13 -24 -30 -28 -38 -8 -16 -6 -14 34 33 14 15 22 27 19 27 -2 0 -14 -10 -25 -22z"/>
<path d="M1005 909 c-4 -6 -5 -12 -2 -15 2 -3 7 2 10 11 7 17 1 20 -8 4z"/>
<path d="M2826 903 c-6 -14 -5 -15 5 -6 7 7 10 15 7 18 -3 3 -9 -2 -12 -12z"/>
<path d="M151 894 c0 -11 3 -14 6 -6 3 7 2 16 -1 19 -3 4 -6 -2 -5 -13z"/>
<path d="M2981 874 c0 -11 3 -14 6 -6 3 7 2 16 -1 19 -3 4 -6 -2 -5 -13z"/>
<path d="M171 854 c0 -11 3 -14 6 -6 3 7 2 16 -1 19 -3 4 -6 -2 -5 -13z"/>
<path d="M2791 844 c0 -11 3 -14 6 -6 3 7 2 16 -1 19 -3 4 -6 -2 -5 -13z"/>
<path d="M2961 834 c0 -11 3 -14 6 -6 3 7 2 16 -1 19 -3 4 -6 -2 -5 -13z"/>
<path d="M191 814 c0 -11 3 -14 6 -6 3 7 2 16 -1 19 -3 4 -6 -2 -5 -13z"/>
<path d="M2766 803 c-6 -14 -5 -15 5 -6 7 7 10 15 7 18 -3 3 -9 -2 -12 -12z"/>
<path d="M2941 794 c0 -11 3 -14 6 -6 3 7 2 16 -1 19 -3 4 -6 -2 -5 -13z"/>
<path d="M211 774 c0 -11 3 -14 6 -6 3 7 2 16 -1 19 -3 4 -6 -2 -5 -13z"/>
<path d="M2726 743 c-6 -14 -5 -15 5 -6 7 7 10 15 7 18 -3 3 -9 -2 -12 -12z"/>
<path d="M2905 739 c-4 -6 -5 -12 -2 -15 2 -3 7 2 10 11 7 17 1 20 -8 4z"/>
<path d="M246 717 c3 -10 9 -15 12 -12 3 3 0 11 -7 18 -10 9 -11 8 -5 -6z"/>
<path d="M858 723 c7 -3 16 -2 19 1 4 3 -2 6 -13 5 -11 0 -14 -3 -6 -6z"/>
<path d="M938 703 c12 -2 30 -2 40 0 9 3 -1 5 -23 4 -22 0 -30 -2 -17 -4z"/>
<path d="M2881 694 c0 -11 3 -14 6 -6 3 7 2 16 -1 19 -3 4 -6 -2 -5 -13z"/>
<path d="M286 657 c3 -10 9 -15 12 -12 3 3 0 11 -7 18 -10 9 -11 8 -5 -6z"/>
<path d="M845 653 c11 -3 24 -9 30 -14 11 -11 142 -12 148 -1 3 4 -26 5 -65 4 -42 -2 -75 1 -81 7 -6 6 -20 10 -31 10 -21 -1 -21 -1 -1 -6z"/>
<path d="M2585 578 l-80 -83 83 80 c76 74 87 85 79 85 -1 0 -38 -37 -82 -82z"/>
<path d="M1108 596 c3 -36 0 -44 -22 -56 -14 -7 -24 -15 -22 -17 2 -3 16 3 30 12 20 14 26 25 26 56 0 21 -3 40 -7 42 -5 3 -6 -14 -5 -37z"/>
<path d="M803 595 c0 -22 2 -30 4 -17 2 12 2 30 0 40 -3 9 -5 -1 -4 -23z"/>
<path d="M346 577 c3 -10 9 -15 12 -12 3 3 0 11 -7 18 -10 9 -11 8 -5 -6z"/>
<path d="M848 523 c6 -2 18 -2 25 0 6 3 1 5 -13 5 -14 0 -19 -2 -12 -5z"/>
<path d="M970 510 l-75 -6 72 -2 c39 -1 75 3 78 8 3 6 5 9 3 8 -2 -1 -37 -4 -78 -8z"/>
<path d="M2230 319 c-19 -10 -29 -19 -23 -19 7 0 27 9 45 20 42 26 24 25 -22 -1z"/>
<path d="M2164 290 c-12 -5 -25 -13 -28 -19 -4 -5 7 -3 24 5 16 9 30 17 30 20 0 5 0 5 -26 -6z"/>
<path d="M2095 260 c-3 -5 -16 -11 -28 -11 -17 -1 -18 -2 -5 -6 10 -2 28 3 40 11 12 9 17 16 11 16 -7 0 -15 -4 -18 -10z"/>
<path d="M720 236 c0 -2 7 -7 16 -10 8 -3 12 -2 9 4 -6 10 -25 14 -25 6z"/>
<path d="M2418 233 c7 -3 16 -2 19 1 4 3 -2 6 -13 5 -11 0 -14 -3 -6 -6z"/>
<path d="M2003 223 c9 -2 23 -2 30 0 6 3 -1 5 -18 5 -16 0 -22 -2 -12 -5z"/>
<path d="M1945 210 l-30 -8 27 -1 c15 0 30 4 33 9 3 6 5 9 3 9 -2 -1 -16 -5 -33 -9z"/>
<path d="M788 193 c7 -3 16 -2 19 1 4 3 -2 6 -13 5 -11 0 -14 -3 -6 -6z"/>
<path d="M1868 183 c6 -2 18 -2 25 0 6 3 1 5 -13 5 -14 0 -19 -2 -12 -5z"/>
<path d="M820 176 c0 -2 7 -7 16 -10 8 -3 12 -2 9 4 -6 10 -25 14 -25 6z"/>
<path d="M2318 173 c7 -3 16 -2 19 1 4 3 -2 6 -13 5 -11 0 -14 -3 -6 -6z"/>
<path d="M1813 163 c9 -2 23 -2 30 0 6 3 -1 5 -18 5 -16 0 -22 -2 -12 -5z"/>
<path d="M860 156 c0 -2 7 -7 16 -10 8 -3 12 -2 9 4 -6 10 -25 14 -25 6z"/>
<path d="M2278 153 c7 -3 16 -2 19 1 4 3 -2 6 -13 5 -11 0 -14 -3 -6 -6z"/>
<path d="M1723 143 c15 -2 37 -2 50 0 12 2 0 4 -28 4 -27 0 -38 -2 -22 -4z"/>
<path d="M924 125 c15 -8 33 -15 40 -15 6 0 -2 7 -18 15 -15 8 -33 15 -40 15 -6 0 2 -7 18 -15z"/>
<path d="M2238 133 c7 -3 16 -2 19 1 4 3 -2 6 -13 5 -11 0 -14 -3 -6 -6z"/>
<path d="M2188 113 c6 -2 18 -2 25 0 6 3 1 5 -13 5 -14 0 -19 -2 -12 -5z"/>
<path d="M988 93 c6 -2 18 -2 25 0 6 3 1 5 -13 5 -14 0 -19 -2 -12 -5z"/>
<path d="M2138 93 c6 -2 18 -2 25 0 6 3 1 5 -13 5 -14 0 -19 -2 -12 -5z"/>
<path d="M1043 73 c9 -2 23 -2 30 0 6 3 -1 5 -18 5 -16 0 -22 -2 -12 -5z"/>
<path d="M2076 71 c-3 -4 6 -6 19 -3 14 2 25 6 25 8 0 8 -39 4 -44 -5z"/>
<path d="M1105 53 c11 -2 29 -8 40 -13 28 -12 85 -18 79 -8 -3 4 -20 8 -39 8 -19 0 -37 4 -40 10 -3 6 -18 9 -33 9 -20 -1 -22 -2 -7 -6z"/>
<path d="M1948 33 c12 -2 30 -2 40 0 9 3 -1 5 -23 4 -22 0 -30 -2 -17 -4z"/>
<path d="M1245 15 c23 -8 83 -10 79 -3 -3 4 -24 8 -47 7 -23 0 -37 -2 -32 -4z"/>
<path d="M1826 12 c-2 -4 12 -6 32 -4 62 6 69 10 20 11 -26 0 -49 -3 -52 -7z"/>
</g>
</g>
  <g id="id2:id2" transform="matrix(1.25,0,0,1.25,0.0,0.0)"><g transform="translate(0.000000,153.600000) scale(0.040000,-0.040000)" fill="#88828b" stroke="none">
<path d="M2291 3608 c-13 -21 -13 -22 2 -10 13 11 16 10 20 -5 3 -12 5 -8 6 10 1 33 -9 35 -28 5z"/>
<path d="M2183 3494 c-29 -19 -56 -40 -59 -46 -4 -7 20 8 54 32 54 37 70 51 60 50 -2 0 -26 -16 -55 -36z"/>
<path d="M468 3503 c7 -3 16 -2 19 1 4 3 -2 6 -13 5 -11 0 -14 -3 -6 -6z"/>
<path d="M2450 3496 c0 -2 8 -10 18 -17 15 -13 16 -12 3 4 -13 16 -21 21 -21 13z"/>
<path d="M2550 3418 c24 -27 45 -48 47 -48 8 0 0 9 -44 50 l-48 45 45 -47z"/>
<path d="M2074 3418 l-19 -23 25 20 c14 11 27 21 29 22 2 2 0 3 -6 3 -5 0 -18 -10 -29 -22z"/>
<path d="M2019 3373 l-24 -28 28 24 c25 23 32 31 24 31 -2 0 -14 -12 -28 -27z"/>
<path d="M1965 3289 c-4 -6 -5 -12 -2 -15 2 -3 7 2 10 11 7 17 1 20 -8 4z"/>
<path d="M2626 3259 c-8 -42 0 -50 9 -9 4 17 5 34 2 36 -2 3 -7 -10 -11 -27z"/>
<path d="M1966 3207 c3 -10 9 -15 12 -12 3 3 0 11 -7 18 -10 9 -11 8 -5 -6z"/>
<path d="M2599 3173 c-13 -16 -12 -17 4 -4 16 13 21 21 13 21 -2 0 -10 -8 -17 -17z"/>
<path d="M1832 3146 c-34 -20 -35 -23 -2 -18 17 2 30 8 30 12 0 5 12 11 28 13 27 4 27 4 -3 5 -16 0 -40 -6 -53 -12z"/>
<path d="M1958 3153 c7 -3 16 -2 19 1 4 3 -2 6 -13 5 -11 0 -14 -3 -6 -6z"/>
<path d="M2625 3150 c-8 -13 5 -13 25 0 13 8 13 10 -2 10 -9 0 -20 -4 -23 -10z"/>
<path d="M1749 3083 l-34 -38 38 34 c34 33 42 41 34 41 -2 0 -19 -17 -38 -37z"/>
<path d="M2910 3075 c13 -14 26 -25 28 -25 3 0 -5 11 -18 25 -13 14 -26 25 -28 25 -3 0 5 -11 18 -25z"/>
<path d="M2500 3009 c0 -5 5 -7 10 -4 6 3 10 8 10 11 0 2 -4 4 -10 4 -5 0 -10 -5 -10 -11z"/>
<path d="M1663 2925 c-3 -9 -3 -18 -1 -21 3 -3 8 4 11 16 6 23 -1 27 -10 5z"/>
<path d="M2966 2853 c-6 -14 -5 -15 5 -6 7 7 10 15 7 18 -3 3 -9 -2 -12 -12z"/>
<path d="M1660 2801 c0 -6 4 -13 10 -16 6 -3 7 1 4 9 -7 18 -14 21 -14 7z"/>
<path d="M2660 2790 c0 -5 5 -10 10 -10 6 0 10 5 10 10 0 6 -4 10 -10 10 -5 0 -10 -4 -10 -10z"/>
<path d="M2025 2770 c3 -5 8 -10 11 -10 2 0 4 5 4 10 0 6 -5 10 -11 10 -5 0 -7 -4 -4 -10z"/>
<path d="M1751 2763 c-1 -17 32 -72 47 -78 19 -7 14 14 -9 33 -11 9 -25 26 -29 37 -5 11 -9 15 -9 8z"/>
<path d="M2840 2719 c0 -5 5 -7 10 -4 6 3 10 8 10 11 0 2 -4 4 -10 4 -5 0 -10 -5 -10 -11z"/>
<path d="M2653 2703 c9 -2 23 -2 30 0 6 3 -1 5 -18 5 -16 0 -22 -2 -12 -5z"/>
<path d="M1880 2687 c-8 -7 -22 -21 -30 -32 -8 -11 0 -7 18 9 29 27 37 37 30 36 -2 0 -10 -6 -18 -13z"/>
<path d="M1990 2696 c0 -2 8 -10 18 -17 15 -13 16 -12 3 4 -13 16 -21 21 -21 13z"/>
<path d="M2091 2684 c0 -11 3 -14 6 -6 3 7 2 16 -1 19 -3 4 -6 -2 -5 -13z"/>
<path d="M2589 2683 c-13 -16 -12 -17 4 -4 9 7 17 15 17 17 0 8 -8 3 -21 -13z"/>
<path d="M2730 2675 c13 -14 26 -25 28 -25 3 0 -5 11 -18 25 -13 14 -26 25 -28 25 -3 0 5 -11 18 -25z"/>
<path d="M1749 2622 c17 -22 38 -45 48 -53 10 -8 -2 10 -26 39 -51 60 -68 71 -22 14z"/>
<path d="M2760 2621 c0 -6 4 -13 10 -16 6 -3 7 1 4 9 -7 18 -14 21 -14 7z"/>
<path d="M2849 2603 l-24 -28 28 24 c25 23 32 31 24 31 -2 0 -14 -12 -28 -27z"/>
<path d="M2041 2494 c0 -11 3 -14 6 -6 3 7 2 16 -1 19 -3 4 -6 -2 -5 -13z"/>
<path d="M1973 2420 c-11 -16 -10 -18 2 -14 8 4 15 10 15 14 0 5 12 11 28 13 l27 4 -30 2 c-20 1 -34 -5 -42 -19z"/>
<path d="M2630 2415 c13 -14 26 -25 28 -25 3 0 -5 11 -18 25 -13 14 -26 25 -28 25 -3 0 5 -11 18 -25z"/>
<path d="M1931 2334 c0 -11 3 -14 6 -6 3 7 2 16 -1 19 -3 4 -6 -2 -5 -13z"/>
<path d="M1698 2273 c7 -3 16 -2 19 1 4 3 -2 6 -13 5 -11 0 -14 -3 -6 -6z"/>
<path d="M1150 2016 c0 -2 7 -7 16 -10 8 -3 12 -2 9 4 -6 10 -25 14 -25 6z"/>
<path d="M722 1910 c7 -11 19 -22 28 -25 8 -4 4 5 -9 19 -29 31 -36 33 -19 6z"/>
<path d="M1205 1911 c-3 -5 -19 -12 -35 -16 -29 -6 -42 -25 -17 -25 13 0 77 49 65 50 -4 0 -9 -4 -13 -9z"/>
<path d="M735 1830 c-3 -6 1 -7 9 -4 18 7 21 14 7 14 -6 0 -13 -4 -16 -10z"/>
<path d="M691 1724 c0 -11 3 -14 6 -6 3 7 2 16 -1 19 -3 4 -6 -2 -5 -13z"/>
<path d="M1205 1711 c-6 -5 -19 -11 -30 -14 -19 -4 -19 -5 1 -6 12 0 27 6 34 14 14 16 10 20 -5 6z"/>
<path d="M1080 1630 c-9 -6 -10 -10 -3 -10 6 0 15 5 18 10 8 12 4 12 -15 0z"/>
<path d="M3150 1613 c-7 -69 -7 -94 2 -85 5 5 7 33 5 63 -2 39 -4 45 -7 22z"/>
<path d="M1004 1598 l-19 -23 23 19 c21 18 27 26 19 26 -2 0 -12 -10 -23 -22z"/>
<path d="M915 1580 c10 -11 20 -20 22 -20 2 0 -2 9 -9 20 -7 11 -17 20 -22 20 -5 0 -1 -9 9 -20z"/>
<path d="M1380 1565 c19 -19 36 -35 39 -35 3 0 -10 16 -29 35 -19 19 -36 35 -39 35 -3 0 10 -16 29 -35z"/>
<path d="M454 1488 l-19 -23 23 19 c21 18 27 26 19 26 -2 0 -12 -10 -23 -22z"/>
<path d="M910 1435 c13 -14 26 -25 28 -25 3 0 -5 11 -18 25 -13 14 -26 25 -28 25 -3 0 5 -11 18 -25z"/>
<path d="M1015 1450 c-3 -6 1 -7 9 -4 18 7 21 14 7 14 -6 0 -13 -4 -16 -10z"/>
<path d="M1446 1447 c3 -10 9 -15 12 -12 3 3 0 11 -7 18 -10 9 -11 8 -5 -6z"/>
<path d="M0 1441 c0 -5 5 -13 10 -16 5 -3 10 -2 10 4 0 5 -4 13 -10 16 -5 3 -10 2 -10 -4z"/>
<path d="M715 1430 c-3 -6 1 -7 9 -4 18 7 21 14 7 14 -6 0 -13 -4 -16 -10z"/>
<path d="M1200 1405 c19 -19 36 -35 39 -35 3 0 -10 16 -29 35 -19 19 -36 35 -39 35 -3 0 10 -16 29 -35z"/>
<path d="M3127 1361 c-4 -17 -3 -21 5 -13 5 5 8 16 6 23 -3 8 -7 3 -11 -10z"/>
<path d="M2981 1324 c0 -11 3 -14 6 -6 3 7 2 16 -1 19 -3 4 -6 -2 -5 -13z"/>
<path d="M1226 1293 c-6 -14 -5 -15 5 -6 7 7 10 15 7 18 -3 3 -9 -2 -12 -12z"/>
<path d="M1446 1263 c-6 -14 -5 -15 5 -6 7 7 10 15 7 18 -3 3 -9 -2 -12 -12z"/>
<path d="M2966 1245 c-9 -26 -7 -32 5 -12 6 10 9 21 6 23 -2 3 -7 -2 -11 -11z"/>
<path d="M455 1150 c10 -11 20 -20 23 -20 3 0 -3 9 -13 20 -10 11 -20 20 -23 20 -3 0 3 -9 13 -20z"/>
<path d="M1375 1090 c-10 -11 -16 -22 -14 -24 2 -2 12 7 22 20 22 29 17 32 -8 4z"/>
<path d="M755 1050 c21 -22 41 -40 44 -40 3 0 -13 18 -34 40 -21 22 -41 40 -44 40 -3 0 13 -18 34 -40z"/>
<path d="M660 905 c91 -91 167 -165 170 -165 3 0 -69 74 -160 165 -91 91 -167 165 -170 165 -3 0 69 -74 160 -165z"/>
<path d="M1114 1048 l-19 -23 23 19 c21 18 27 26 19 26 -2 0 -12 -10 -23 -22z"/>
<path d="M1035 948 l-40 -43 43 40 c23 21 42 40 42 42 0 8 -9 0 -45 -39z"/>
<path d="M1284 958 l-29 -33 33 29 c30 28 37 36 29 36 -2 0 -16 -15 -33 -32z"/>
<path d="M835 960 c10 -11 20 -20 23 -20 3 0 -3 9 -13 20 -10 11 -20 20 -23 20 -3 0 3 -9 13 -20z"/>
<path d="M2866 963 c-6 -14 -5 -15 5 -6 7 7 10 15 7 18 -3 3 -9 -2 -12 -12z"/>
<path d="M902 885 l48 -50 27 30 28 29 -28 -24 -27 -24 -48 44 -47 45 47 -50z"/>
<path d="M1234 898 l-19 -23 23 19 c21 18 27 26 19 26 -2 0 -12 -10 -23 -22z"/>
<path d="M1175 828 l-40 -43 43 40 c23 21 42 40 42 42 0 8 -9 0 -45 -39z"/>
<path d="M1090 750 c-19 -17 -42 -30 -51 -30 -9 0 -19 -6 -22 -14 -8 -19 66 20 95 51 29 31 20 28 -22 -7z"/>
<path d="M841 722 c-1 -19 3 -22 20 -17 12 4 19 3 16 -2 -3 -5 6 -10 21 -11 25 -2 25 -2 6 13 -10 8 -26 15 -36 15 -9 0 -19 6 -21 13 -3 6 -6 2 -6 -11z"/>
<path d="M2689 683 l-24 -28 28 24 c25 23 32 31 24 31 -2 0 -14 -12 -28 -27z"/>
<path d="M953 693 c9 -2 25 -2 35 0 9 3 1 5 -18 5 -19 0 -27 -2 -17 -5z"/>
<path d="M2854 668 l-19 -23 23 19 c21 18 27 26 19 26 -2 0 -12 -10 -23 -22z"/>
<path d="M1095 650 c10 -11 20 -20 23 -20 3 0 -3 9 -13 20 -10 11 -20 20 -23 20 -3 0 3 -9 13 -20z"/>
<path d="M809 643 c-13 -16 -12 -17 4 -4 9 7 17 15 17 17 0 8 -8 3 -21 -13z"/>
<path d="M1015 650 c-3 -6 1 -7 9 -4 18 7 21 14 7 14 -6 0 -13 -4 -16 -10z"/>
<path d="M315 630 c10 -11 20 -20 23 -20 3 0 -3 9 -13 20 -10 11 -20 20 -23 20 -3 0 3 -9 13 -20z"/>
<path d="M2590 575 c-41 -41 -72 -75 -69 -75 2 0 38 34 79 75 41 41 72 75 69 75 -2 0 -38 -34 -79 -75z"/>
<path d="M2796 592 c-36 -42 -36 -44 -7 -17 28 25 58 66 49 65 -2 -1 -21 -22 -42 -48z"/>
<path d="M792 590 c0 -14 2 -19 5 -12 2 6 2 18 0 25 -3 6 -5 1 -5 -13z"/>
<path d="M1122 580 c0 -14 2 -19 5 -12 2 6 2 18 0 25 -3 6 -5 1 -5 -13z"/>
<path d="M480 445 c69 -69 127 -125 130 -125 2 0 -51 56 -120 125 -69 69 -127 125 -130 125 -2 0 51 -56 120 -125z"/>
<path d="M800 546 c0 -2 8 -10 18 -17 15 -13 16 -12 3 4 -13 16 -21 21 -21 13z"/>
<path d="M1045 510 c-3 -6 1 -7 9 -4 18 7 21 14 7 14 -6 0 -13 -4 -16 -10z"/>
<path d="M2660 433 l-55 -58 58 55 c31 30 57 56 57 57 0 8 -10 -1 -60 -54z"/>
<path d="M2464 458 l-19 -23 23 19 c21 18 27 26 19 26 -2 0 -12 -10 -23 -22z"/>
<path d="M2365 390 c-3 -6 1 -7 9 -4 18 7 21 14 7 14 -6 0 -13 -4 -16 -10z"/>
<path d="M2305 350 c-3 -6 1 -7 9 -4 18 7 21 14 7 14 -6 0 -13 -4 -16 -10z"/>
<path d="M2514 308 l-29 -33 33 29 c30 28 37 36 29 36 -2 0 -16 -15 -33 -32z"/>
<path d="M645 302 c11 -13 29 -28 40 -34 21 -11 18 -8 -30 32 -29 24 -29 24 -10 2z"/>
<path d="M2229 303 c-13 -16 -12 -17 4 -4 16 13 21 21 13 21 -2 0 -10 -8 -17 -17z"/>
<path d="M2185 290 c-3 -6 1 -7 9 -4 18 7 21 14 7 14 -6 0 -13 -4 -16 -10z"/>
<path d="M2136 265 c-11 -8 -16 -15 -10 -15 5 0 18 7 28 15 11 8 16 15 10 15 -5 0 -18 -7 -28 -15z"/>
<path d="M2444 258 l-19 -23 23 19 c21 18 27 26 19 26 -2 0 -12 -10 -23 -22z"/>
<path d="M2384 218 l-19 -23 23 19 c21 18 27 26 19 26 -2 0 -12 -10 -23 -22z"/>
<path d="M1966 205 c-11 -8 -16 -15 -10 -15 5 0 18 7 28 15 11 8 16 15 10 15 -5 0 -18 -7 -28 -15z"/>
<path d="M1906 185 c-11 -8 -15 -15 -9 -15 6 0 16 7 23 15 16 19 11 19 -14 0z"/>
<path d="M1325 10 c3 -5 8 -10 11 -10 2 0 4 5 4 10 0 6 -5 10 -11 10 -5 0 -7 -4 -4 -10z"/>
</g>
</g>
  <g id="id3:id3" transform="matrix(1.25,0,0,1.25,0.0,0.0)"><g transform="translate(0.000000,153.600000) scale(0.040000,-0.040000)" fill="#0261ba" stroke="none">
<path d="M2410 3510 c20 -13 33 -13 25 0 -3 6 -14 10 -23 10 -15 0 -15 -2 -2 -10z"/>
<path d="M2230 3440 c-14 -11 -30 -20 -35 -20 -6 0 -16 -9 -23 -20 -7 -11 -18 -20 -26 -20 -7 0 -34 -19 -59 -42 -44 -39 -47 -45 -47 -90 0 -26 5 -48 10 -48 6 0 10 -9 10 -20 0 -11 5 -20 10 -20 6 0 10 -8 10 -18 0 -11 9 -27 20 -37 11 -10 20 -23 20 -30 0 -7 9 -20 20 -30 11 -10 20 -27 20 -37 0 -11 5 -29 12 -41 7 -12 14 -29 16 -37 10 -37 24 -226 25 -350 l2 -135 30 0 30 0 5 420 c6 500 4 595 -13 595 -7 0 -23 -9 -37 -20z"/>
<path d="M2322 2953 l3 -508 27 -3 27 -3 4 208 c4 221 9 258 38 311 11 18 19 39 19 47 0 8 5 15 10 15 6 0 10 9 10 20 0 11 5 20 10 20 6 0 10 8 10 19 0 10 7 24 15 31 16 14 35 52 56 112 11 31 10 42 -2 65 -16 31 -60 75 -101 100 -16 10 -28 21 -28 25 0 4 -6 8 -12 8 -7 0 -24 9 -38 20 -52 41 -50 57 -48 -487z"/>
<path d="M2488 3453 c7 -3 16 -2 19 1 4 3 -2 6 -13 5 -11 0 -14 -3 -6 -6z"/>
<path d="M2626 3307 c3 -10 9 -15 12 -12 3 3 0 11 -7 18 -10 9 -11 8 -5 -6z"/>
<path d="M2850 3108 c0 -6 3 -8 7 -5 3 4 16 -1 27 -10 21 -18 21 -18 2 5 -21 24 -36 29 -36 10z"/>
<path d="M1880 3070 c0 -5 -9 -10 -20 -10 -32 0 -86 -41 -105 -80 -9 -19 -21 -43 -26 -52 -25 -49 8 -161 61 -210 l21 -20 34 33 c51 51 102 76 126 61 10 -7 28 -12 39 -12 22 0 69 -46 70 -67 0 -7 5 -13 10 -13 6 0 10 -46 10 -119 0 -128 7 -146 52 -139 23 3 23 5 26 147 2 89 -1 148 -8 155 -5 5 -10 34 -10 62 0 29 -4 56 -10 59 -5 3 -10 18 -10 31 0 14 -16 49 -35 78 -28 43 -45 57 -83 70 -26 10 -55 21 -64 27 -23 12 -78 12 -78 -1z"/>
<path d="M2649 3069 c-8 -5 -26 -9 -41 -9 -16 0 -28 -4 -28 -10 0 -5 -8 -10 -17 -10 -16 0 -35 -15 -95 -78 -9 -10 -22 -38 -28 -62 -6 -25 -13 -54 -16 -65 -2 -11 -6 -104 -8 -207 l-3 -186 26 -5 c14 -3 29 -3 33 0 5 2 8 42 8 88 0 46 5 87 10 90 6 3 10 16 11 28 1 31 31 80 56 92 12 5 24 17 26 27 3 10 14 18 25 18 12 0 24 5 27 10 3 6 15 10 26 10 10 0 19 -4 19 -10 0 -5 17 -10 38 -10 38 0 59 -18 86 -72 16 -31 36 -34 36 -6 0 13 9 29 20 36 11 7 20 23 20 36 0 14 5 28 10 31 6 3 10 35 10 70 0 35 -4 67 -10 70 -5 3 -10 15 -10 26 0 51 -183 129 -231 98z"/>
<path d="M2971 2954 c0 -11 3 -14 6 -6 3 7 2 16 -1 19 -3 4 -6 -2 -5 -13z"/>
<path d="M2578 2433 c7 -3 16 -2 19 1 4 3 -2 6 -13 5 -11 0 -14 -3 -6 -6z"/>
<path d="M2273 2362 l-273 -2 0 -28 c0 -51 4 -52 298 -52 295 0 302 1 302 53 0 33 0 33 -327 29z"/>
<path d="M1622 1853 l3 -348 695 0 695 0 3 348 2 347 -700 0 -700 0 2 -347z"/>
</g>
</g>
  <g id="id4:id4" transform="matrix(1.25,0,0,1.25,0.0,0.0)"><g transform="translate(0.000000,153.600000) scale(0.040000,-0.040000)" fill="#fb0301" stroke="none">
<path d="M130 2646 c0 -686 3 -1047 10 -1051 6 -3 10 -52 10 -110 0 -58 4 -107 10 -110 6 -3 10 -26 10 -50 0 -24 5 -47 10 -50 6 -3 10 -21 10 -40 0 -19 5 -37 10 -40 6 -3 10 -17 10 -30 0 -13 5 -27 11 -31 6 -3 9 -15 6 -25 -3 -10 1 -23 9 -30 8 -6 14 -22 14 -35 0 -13 5 -24 10 -24 6 0 10 -9 10 -20 0 -11 4 -20 9 -20 5 0 12 -16 15 -36 4 -19 14 -38 22 -41 7 -3 14 -14 14 -24 0 -10 5 -19 10 -19 6 0 10 -8 10 -19 0 -10 7 -24 15 -31 8 -7 15 -18 15 -25 0 -6 9 -20 20 -30 11 -10 20 -23 20 -30 0 -6 18 -29 40 -50 22 -21 40 -44 40 -49 0 -14 112 -126 125 -126 6 0 31 -20 55 -45 24 -25 50 -45 58 -45 8 0 23 -11 34 -25 11 -14 25 -25 33 -25 7 0 18 -7 25 -15 7 -8 20 -15 30 -15 10 0 20 -7 24 -15 3 -8 12 -12 21 -9 8 3 15 1 15 -5 0 -6 9 -11 20 -11 11 0 20 -4 20 -10 0 -5 9 -10 20 -10 11 0 20 -4 20 -10 0 -5 11 -10 24 -10 14 0 28 -5 31 -10 3 -6 14 -10 25 -10 10 0 20 -6 23 -14 4 -9 14 -12 25 -9 11 2 23 0 26 -6 4 -6 22 -11 41 -11 19 0 37 -5 40 -10 3 -6 21 -10 40 -10 19 0 37 -4 40 -10 3 -5 37 -10 75 -10 47 0 69 -4 73 -13 3 -9 16 -12 35 -9 26 3 30 8 34 45 3 32 2 3411 -1 3500 -1 16 -41 17 -701 17 l-700 0 0 -1044z m560 809 l5 -110 38 0 37 0 1 90 c1 50 1 95 0 101 -3 29 28 34 200 32 l174 -3 2 -740 c3 -724 3 -740 22 -737 11 2 22 -2 26 -8 3 -5 13 -10 21 -10 8 0 28 -15 44 -32 26 -29 29 -41 30 -94 0 -46 -4 -63 -15 -68 -19 -7 -19 -43 0 -62 17 -17 21 -99 5 -109 -20 -12 -10 -21 19 -17 16 2 32 -1 35 -7 4 -6 13 -11 21 -11 16 0 110 -96 136 -139 27 -45 42 -222 21 -256 -4 -5 -5 -22 -3 -37 1 -14 -2 -29 -8 -33 -6 -3 -11 -18 -11 -33 0 -41 -11 -72 -25 -72 -7 0 -15 -13 -19 -30 -3 -18 -12 -30 -21 -30 -8 0 -15 -8 -15 -18 0 -9 -8 -22 -19 -29 -10 -6 -21 -25 -24 -41 -4 -19 -14 -31 -27 -35 -12 -3 -19 -10 -16 -15 9 -14 -4 -42 -19 -42 -7 0 -15 -9 -18 -20 -3 -11 -12 -20 -20 -20 -8 0 -17 -13 -20 -30 -4 -19 -13 -30 -23 -30 -9 0 -18 -9 -21 -20 -3 -11 -11 -20 -18 -20 -7 0 -18 -7 -25 -15 -10 -13 -10 -19 4 -33 9 -10 16 -24 16 -31 0 -6 7 -14 15 -17 10 -4 15 -20 15 -48 0 -36 -7 -48 -51 -94 -28 -29 -54 -50 -57 -47 -3 3 -13 -2 -23 -11 -11 -10 -28 -15 -44 -11 -17 3 -28 0 -32 -9 -7 -18 -79 -19 -86 -1 -3 9 -16 12 -37 9 -23 -3 -35 0 -42 11 -5 9 -15 14 -22 11 -7 -3 -16 2 -19 10 -4 9 -13 16 -21 16 -8 0 -18 9 -21 21 -4 11 -13 18 -20 15 -19 -7 -25 16 -25 87 0 49 4 65 22 84 l22 24 -141 141 c-78 78 -141 144 -138 147 2 4 -16 26 -39 49 -31 31 -45 54 -50 81 -3 21 -13 44 -21 51 -8 7 -15 27 -15 46 0 18 -4 35 -8 38 -16 10 5 194 24 217 8 9 11 19 7 22 -4 4 8 19 25 34 18 14 32 33 32 43 0 9 18 26 40 39 21 12 48 33 59 46 10 14 26 25 35 25 9 0 16 5 16 10 0 6 9 10 20 10 21 0 27 15 10 25 -15 9 -12 63 4 72 20 12 26 64 10 102 -16 39 -18 77 -4 86 6 3 10 18 10 33 0 36 67 82 119 82 l26 0 -1 248 c-1 136 -4 248 -8 250 -3 1 -22 2 -41 2 l-34 0 -3 -87 -3 -88 -245 0 -245 0 0 265 0 265 115 0 115 0 3 -77 3 -78 29 0 30 0 0 69 c0 82 10 95 75 89 41 -3 45 -1 47 19 0 13 1 28 2 34 1 8 -21 12 -59 13 l-60 1 -1 79 -2 80 -33 0 -33 0 0 -80 -1 -79 -115 0 -115 0 -3 265 c-1 146 0 270 3 278 3 10 57 12 247 10 l243 -3 5 -110z"/>
<path d="M762 1366 c-4 -6 -19 -17 -33 -23 -24 -10 -25 -14 -18 -60 12 -75 20 -101 35 -114 8 -6 14 -16 14 -22 0 -11 42 -62 132 -160 56 -61 57 -61 77 -43 12 11 21 25 21 32 0 7 9 24 20 36 66 74 91 108 85 118 -3 5 -1 10 4 10 6 0 11 8 11 18 0 9 9 23 20 30 17 10 20 23 20 92 l0 79 -35 7 c-49 9 -106 -4 -112 -24 -2 -9 -16 -23 -30 -29 -24 -11 -30 -10 -50 9 -13 12 -26 18 -29 15 -4 -4 -12 0 -18 8 -15 20 -104 36 -114 21z"/>
</g>
</g>
  <g id="id5:id5" transform="matrix(1.25,0,0,1.25,0.0,0.0)"><g transform="translate(0.000000,153.600000) scale(0.040000,-0.040000)" fill="#c10704" stroke="none">
<path d="M120 2651 c0 -689 3 -1052 10 -1056 6 -3 10 -52 10 -110 0 -58 4 -107 10 -110 6 -3 10 -26 10 -50 0 -24 5 -47 10 -50 6 -3 10 -21 10 -40 0 -19 5 -37 10 -40 6 -3 10 -14 10 -24 0 -10 7 -32 15 -47 9 -18 15 -23 15 -12 0 9 -5 20 -10 23 -6 3 -10 17 -10 30 0 13 -5 27 -10 30 -6 3 -10 21 -10 40 0 19 -4 37 -10 40 -5 3 -10 26 -10 50 0 24 -4 47 -10 50 -6 3 -10 52 -10 110 0 58 -4 107 -10 110 -7 4 -10 365 -10 1051 l0 1044 700 0 c698 0 700 0 700 -20 0 -921 7 -2244 11 -2215 4 28 4 1994 -1 2228 0 16 -41 17 -710 17 l-710 0 0 -1049z"/>
<path d="M195 3558 c-3 -8 -4 -132 -3 -278 l3 -265 115 0 115 0 1 68 0 67 -3 -65 -4 -65 -109 0 -110 0 0 270 0 270 240 0 239 0 4 -110 3 -110 0 112 -1 113 -243 3 c-190 2 -244 0 -247 -10z"/>
<path d="M782 3558 c-10 -13 -18 -227 -7 -217 3 4 7 53 8 110 l2 104 175 0 c164 0 175 -1 173 -19 -1 -12 2 -15 9 -8 6 6 8 18 5 26 -6 14 -32 16 -180 16 -128 0 -177 -3 -185 -12z"/>
<path d="M1145 2810 c0 -388 1 -546 2 -352 2 193 2 511 0 705 -1 193 -2 35 -2 -353z"/>
<path d="M713 3343 c9 -2 25 -2 35 0 9 3 1 5 -18 5 -19 0 -27 -2 -17 -5z"/>
<path d="M448 3173 c6 -2 18 -2 25 0 6 3 1 5 -13 5 -14 0 -19 -2 -12 -5z"/>
<path d="M494 3085 l1 -70 50 -1 50 -1 -47 4 -47 4 -4 67 -3 67 0 -70z"/>
<path d="M612 2965 c0 -16 2 -22 5 -12 2 9 2 23 0 30 -3 6 -5 -1 -5 -18z"/>
<path d="M195 2938 c-3 -7 -4 -128 -3 -268 l3 -255 245 0 245 0 3 87 3 87 37 4 37 4 -42 1 -43 2 0 -90 0 -90 -240 0 -240 0 0 260 0 260 110 0 110 0 0 -80 0 -80 40 0 39 0 3 78 3 77 50 6 50 6 -45 1 c-26 1 -51 -3 -58 -10 -7 -7 -12 -40 -12 -80 l0 -68 -30 0 -29 0 -3 78 -3 77 -113 3 c-85 2 -114 0 -117 -10z"/>
<path d="M772 2371 c-1 -125 1 -237 5 -249 5 -11 8 89 8 223 0 134 -3 246 -6 249 -3 3 -6 -97 -7 -223z"/>
<path d="M692 2075 c-13 -7 -29 -18 -35 -25 -7 -6 4 -3 25 8 20 11 51 22 70 25 l33 4 -35 0 c-19 1 -46 -5 -58 -12z"/>
<path d="M1195 2070 c66 -31 83 -56 88 -130 l3 -65 2 65 c1 59 -1 68 -28 98 -16 17 -36 32 -44 32 -8 0 -18 5 -21 10 -3 6 -14 10 -23 10 -9 -1 1 -9 23 -20z"/>
<path d="M631 2013 c0 -17 -5 -35 -11 -38 -14 -9 -12 -47 4 -86 16 -38 10 -90 -10 -102 -16 -9 -19 -63 -4 -72 17 -10 11 -25 -10 -25 -11 0 -20 -4 -20 -10 0 -5 -9 -10 -19 -10 -10 0 -21 -7 -24 -15 -5 -11 2 -9 29 5 19 11 41 20 49 20 17 0 17 2 6 53 -5 20 -5 37 0 37 4 0 13 18 19 40 8 31 7 47 -5 76 -18 43 -19 76 -4 91 6 6 9 23 6 39 l-4 29 -2 -32z"/>
<path d="M685 1960 c-8 -13 3 -30 18 -30 8 0 7 3 -2 9 -7 5 -10 14 -7 20 4 6 5 11 2 11 -3 0 -8 -4 -11 -10z"/>
<path d="M1251 1844 c0 -12 6 -27 14 -34 17 -14 21 -95 5 -105 -5 -3 -10 -11 -10 -18 0 -6 7 -2 15 9 18 24 19 98 1 116 -8 8 -16 23 -19 34 -4 17 -5 17 -6 -2z"/>
<path d="M684 1769 c-3 -6 -1 -16 5 -22 8 -8 11 -5 11 11 0 24 -5 28 -16 11z"/>
<path d="M1295 1683 c11 -2 30 -9 42 -15 11 -6 27 -8 35 -5 7 3 4 6 -9 6 -12 1 -25 6 -28 11 -3 6 -18 9 -33 9 -20 -1 -22 -2 -7 -6z"/>
<path d="M1380 1646 c0 -2 8 -10 18 -17 15 -13 16 -12 3 4 -13 16 -21 21 -21 13z"/>
<path d="M496 1615 c-11 -8 -15 -15 -9 -15 6 0 16 7 23 15 16 19 11 19 -14 0z"/>
<path d="M448 1586 c-10 -7 -18 -20 -18 -28 0 -8 -6 -20 -12 -28 -11 -12 -10 -12 5 -1 9 7 17 18 17 24 0 6 7 19 17 29 19 21 15 23 -9 4z"/>
<path d="M1455 1570 c10 -11 20 -20 23 -20 3 0 -3 9 -13 20 -10 11 -20 20 -23 20 -3 0 3 -9 13 -20z"/>
<path d="M1480 1533 c0 -7 5 -15 10 -18 6 -3 10 -21 10 -40 0 -19 4 -36 8 -39 13 -8 1 67 -14 89 -8 11 -14 14 -14 8z"/>
<path d="M381 1503 c-7 -8 -10 -17 -7 -20 3 -4 0 -13 -8 -22 -19 -23 -40 -207 -24 -217 4 -3 8 -20 8 -38 0 -19 7 -39 15 -46 8 -7 17 -28 21 -49 6 -32 54 -107 54 -84 0 5 -8 18 -18 29 -10 11 -22 35 -25 53 -4 19 -13 41 -20 49 -18 22 -35 141 -26 182 5 19 9 52 9 72 0 20 5 40 11 43 10 7 32 55 27 60 -2 2 -9 -4 -17 -12z"/>
<path d="M808 1453 c6 -2 18 -2 25 0 6 3 1 5 -13 5 -14 0 -19 -2 -12 -5z"/>
<path d="M743 1366 c-13 -6 -23 -14 -23 -17 0 -13 39 3 44 17 3 8 4 13 3 13 -1 -1 -12 -6 -24 -13z"/>
<path d="M820 1369 c25 -5 50 -14 55 -21 9 -11 45 -21 45 -13 0 11 -87 45 -113 44 -28 -1 -27 -2 13 -10z"/>
<path d="M1023 1370 c-36 -14 -27 -18 15 -7 21 5 55 7 75 3 l37 -7 0 -77 c0 -48 -5 -83 -12 -92 -11 -12 -10 -12 5 -1 14 11 17 29 17 92 0 67 -3 80 -19 89 -24 12 -87 12 -118 0z"/>
<path d="M412 1330 c0 -14 2 -19 5 -12 2 6 2 18 0 25 -3 6 -5 1 -5 -13z"/>
<path d="M972 1324 c-12 -8 -28 -12 -35 -8 -8 5 -9 4 -1 -5 7 -8 17 -8 37 1 15 7 27 16 27 21 0 10 -2 9 -28 -9z"/>
<path d="M701 1278 c0 -26 4 -50 9 -53 6 -3 10 -14 10 -24 0 -10 10 -26 23 -37 22 -19 22 -19 6 1 -17 22 -37 82 -42 130 -3 19 -5 13 -6 -17z"/>
<path d="M1530 740 c3 -680 6 -608 -27 -613 -27 -4 -27 -4 3 -6 31 -1 31 0 37 52 7 71 0 1097 -8 1105 -3 4 -6 -239 -5 -538z"/>
<path d="M1497 1253 c-4 -6 -4 -18 -1 -26 3 -8 1 -18 -5 -22 -6 -3 -11 -22 -11 -41 0 -22 -7 -40 -20 -51 -11 -10 -20 -25 -20 -33 0 -9 -5 -21 -12 -28 -9 -9 -9 -12 0 -12 7 0 15 14 19 30 3 17 11 30 18 30 14 0 25 31 25 71 0 14 5 30 11 36 6 6 9 21 7 34 -2 15 -6 20 -11 12z"/>
<path d="M1110 1162 c0 -12 -4 -22 -8 -22 -4 0 -8 -9 -8 -19 0 -11 3 -18 7 -15 10 6 22 64 15 71 -3 4 -6 -3 -6 -15z"/>
<path d="M760 1126 c0 -2 8 -10 18 -17 15 -13 16 -12 3 4 -13 16 -21 21 -21 13z"/>
<path d="M228 1080 c6 -8 12 -21 12 -30 0 -14 48 -120 55 -120 1 0 0 11 -3 25 -2 14 -8 25 -13 25 -5 0 -9 9 -9 20 0 11 -4 20 -10 20 -5 0 -10 11 -10 24 0 13 -8 30 -17 37 -15 11 -16 11 -5 -1z"/>
<path d="M815 1066 c10 -14 19 -26 22 -26 7 0 -17 39 -28 46 -6 3 -3 -5 6 -20z"/>
<path d="M1055 1070 c-10 -11 -14 -20 -9 -20 5 0 15 9 22 20 7 11 11 20 9 20 -2 0 -12 -9 -22 -20z"/>
<path d="M1013 1013 c-13 -13 -23 -31 -22 -41 0 -14 2 -14 6 -2 3 8 15 25 26 37 27 31 18 35 -10 6z"/>
<path d="M1401 1029 c0 -9 -10 -24 -21 -34 -11 -10 -20 -26 -20 -35 0 -10 -10 -25 -22 -33 l-23 -16 23 6 c15 4 25 15 29 35 3 16 14 35 25 42 12 9 18 22 15 33 -4 14 -5 14 -6 2z"/>
<path d="M450 1016 c0 -2 8 -10 18 -17 15 -13 16 -12 3 4 -13 16 -21 21 -21 13z"/>
<path d="M902 965 c26 -27 49 -47 51 -45 2 3 -20 25 -47 50 l-51 44 47 -49z"/>
<path d="M490 956 c0 -2 8 -10 18 -17 15 -13 16 -12 3 4 -13 16 -21 21 -21 13z"/>
<path d="M530 916 c0 -2 8 -10 18 -17 15 -13 16 -12 3 4 -13 16 -21 21 -21 13z"/>
<path d="M307 898 c6 -7 13 -20 16 -28 4 -10 6 -8 6 6 1 12 -6 25 -15 28 -13 5 -14 3 -7 -6z"/>
<path d="M1304 876 c-22 -23 -41 -61 -24 -51 6 3 10 13 10 21 0 8 6 14 14 14 8 0 17 7 20 16 9 23 4 23 -20 0z"/>
<path d="M600 845 c19 -19 36 -35 39 -35 3 0 -10 16 -29 35 -19 19 -36 35 -39 35 -3 0 10 -16 29 -35z"/>
<path d="M341 844 c0 -11 9 -29 22 -40 22 -19 22 -19 6 1 -10 11 -19 29 -22 40 -4 19 -5 19 -6 -1z"/>
<path d="M1240 803 c0 -11 -10 -28 -22 -36 l-23 -16 23 6 c21 5 41 47 28 60 -3 4 -6 -3 -6 -14z"/>
<path d="M650 796 c0 -2 8 -10 18 -17 15 -13 16 -12 3 4 -13 16 -21 21 -21 13z"/>
<path d="M690 756 c0 -2 8 -10 18 -17 15 -13 16 -12 3 4 -13 16 -21 21 -21 13z"/>
<path d="M1163 716 l-28 -25 25 -23 c23 -22 23 -22 6 -1 -15 19 -16 25 -6 38 7 8 19 15 26 15 8 0 14 5 14 10 0 15 -6 13 -37 -14z"/>
<path d="M740 707 c11 -15 10 -21 -9 -40 -17 -19 -21 -35 -21 -88 0 -35 4 -69 8 -76 4 -6 6 22 4 63 -4 68 -2 78 19 100 22 24 22 25 4 42 -18 16 -18 16 -5 -1z"/>
<path d="M475 650 c10 -11 20 -20 23 -20 3 0 -3 9 -13 20 -10 11 -20 20 -23 20 -3 0 3 -9 13 -20z"/>
<path d="M1202 581 c-1 -30 -9 -53 -24 -70 l-22 -26 27 26 c24 22 28 32 24 70 l-4 44 -1 -44z"/>
<path d="M520 586 c0 -2 8 -10 18 -17 15 -13 16 -12 3 4 -13 16 -21 21 -21 13z"/>
<path d="M560 546 c0 -2 8 -10 18 -17 15 -13 16 -12 3 4 -13 16 -21 21 -21 13z"/>
<path d="M746 497 c3 -10 9 -15 12 -12 3 3 0 11 -7 18 -10 9 -11 8 -5 -6z"/>
<path d="M645 480 c10 -11 20 -20 23 -20 3 0 -3 9 -13 20 -10 11 -20 20 -23 20 -3 0 3 -9 13 -20z"/>
<path d="M898 493 c7 -3 16 -2 19 1 4 3 -2 6 -13 5 -11 0 -14 -3 -6 -6z"/>
<path d="M1120 455 c-13 -14 -19 -25 -14 -25 8 1 50 50 41 50 -2 0 -14 -11 -27 -25z"/>
<path d="M760 466 c0 -2 9 -6 20 -9 11 -3 18 -1 14 4 -5 9 -34 13 -34 5z"/>
<path d="M1075 431 c-6 -5 -21 -11 -35 -14 l-25 -4 26 -2 c15 0 32 6 39 14 14 16 10 21 -5 6z"/>
<path d="M853 413 c9 -2 25 -2 35 0 9 3 1 5 -18 5 -19 0 -27 -2 -17 -5z"/>
<path d="M916 406 c4 -12 17 -16 48 -14 40 1 40 1 6 5 -19 3 -41 9 -48 15 -9 8 -11 7 -6 -6z"/>
<path d="M730 403 c8 -3 21 -10 28 -16 9 -7 11 -6 6 7 -3 9 -16 16 -28 15 -14 0 -16 -2 -6 -6z"/>
<path d="M848 323 c6 -2 18 -2 25 0 6 3 1 5 -13 5 -14 0 -19 -2 -12 -5z"/>
<path d="M910 295 c7 -8 22 -14 34 -14 20 2 20 2 -1 6 -13 2 -23 9 -23 14 0 5 -5 9 -11 9 -8 0 -8 -5 1 -15z"/>
<path d="M968 263 c6 -2 18 -2 25 0 6 3 1 5 -13 5 -14 0 -19 -2 -12 -5z"/>
<path d="M1015 243 c11 -2 30 -9 42 -15 11 -6 27 -8 35 -5 7 3 4 6 -9 6 -12 1 -25 6 -28 11 -3 6 -18 9 -33 9 -20 -1 -22 -2 -7 -6z"/>
<path d="M1144 195 c15 -8 41 -15 57 -15 15 0 31 -4 34 -10 3 -5 21 -10 39 -10 17 0 37 -5 42 -10 7 -7 40 -9 80 -7 l69 3 -72 2 c-39 1 -75 7 -78 12 -3 6 -21 10 -40 10 -19 0 -37 5 -40 10 -3 6 -21 10 -40 10 -19 0 -37 5 -40 10 -3 6 -14 10 -23 10 -11 0 -6 -6 12 -15z"/>
</g>
</g>
  <g id="id6:id6" transform="matrix(1.25,0,0,1.25,0.0,0.0)"><g transform="translate(0.000000,153.600000) scale(0.040000,-0.040000)" fill="#3f2d39" stroke="none">
<path d="M1365 3750 c-3 -5 -1 -10 4 -10 6 0 11 5 11 10 0 6 -2 10 -4 10 -3 0 -8 -4 -11 -10z"/>
<path d="M1615 3698 c-8 -28 -11 -77 -3 -72 4 3 8 21 8 40 l0 34 700 0 700 0 0 -710 0 -709 -57 -4 -58 -3 60 0 60 1 0 715 0 715 -703 3 c-557 2 -703 0 -707 -10z"/>
<path d="M1615 2955 c0 -363 1 -510 2 -327 2 184 2 481 0 660 -1 180 -2 30 -2 -333z"/>
<path d="M2301 3592 c-1 -13 -5 -21 -10 -18 -5 3 -13 0 -19 -7 -8 -10 -6 -13 9 -13 10 0 19 4 19 8 0 18 30 6 50 -19 15 -20 18 -22 10 -6 -5 12 -18 28 -28 35 -11 7 -21 20 -25 28 -3 10 -6 7 -6 -8z"/>
<path d="M1544 3360 c0 -135 2 -190 3 -122 2 67 2 177 0 245 -1 67 -3 12 -3 -123z"/>
<path d="M785 3549 c-4 -6 -4 -13 -1 -16 3 -4 6 -1 6 5 0 6 8 13 18 15 15 4 15 5 0 6 -9 0 -20 -4 -23 -10z"/>
<path d="M853 3553 c9 -2 23 -2 30 0 6 3 -1 5 -18 5 -16 0 -22 -2 -12 -5z"/>
<path d="M1125 3530 c-3 -11 -3 -25 0 -30 4 -6 1 -18 -7 -27 -10 -13 -10 -17 0 -20 15 -6 18 -633 2 -633 -5 0 -10 -13 -10 -30 0 -16 4 -30 10 -30 6 0 11 -112 13 -302 1 -167 3 11 4 395 2 383 1 697 -2 697 -2 0 -6 -9 -10 -20z"/>
<path d="M280 3530 c0 -5 5 -10 10 -10 6 0 10 5 10 10 0 6 -4 10 -10 10 -5 0 -10 -4 -10 -10z"/>
<path d="M888 3533 c6 -2 18 -2 25 0 6 3 1 5 -13 5 -14 0 -19 -2 -12 -5z"/>
<path d="M998 3533 c7 -3 16 -2 19 1 4 3 -2 6 -13 5 -11 0 -14 -3 -6 -6z"/>
<path d="M2383 3520 c-1 -11 4 -20 13 -20 8 0 14 -5 14 -11 0 -5 8 -9 18 -7 11 2 27 -4 38 -12 19 -14 19 -14 0 8 -11 12 -25 22 -32 22 -7 0 -21 9 -32 20 -18 19 -18 19 -19 0z"/>
<path d="M615 3520 c3 -5 -23 -11 -62 -13 l-68 -3 67 -2 67 -2 3 -107 3 -108 78 -3 77 -3 0 -309 0 -309 -77 -4 -78 -3 80 0 80 1 3 318 c1 206 6 316 12 312 6 -3 10 5 10 18 0 20 -4 24 -19 20 -12 -3 -17 -11 -14 -19 4 -11 -10 -14 -72 -14 l-77 0 4 120 c2 94 0 120 -10 120 -7 0 -11 -4 -7 -10z"/>
<path d="M1090 3521 c0 -6 -49 -11 -127 -13 l-128 -3 0 -715 0 -715 125 0 125 0 3 714 c1 507 5 717 13 722 8 5 8 8 0 13 -6 4 -11 3 -11 -3z m-10 -731 l0 -710 -120 0 -120 0 0 710 0 710 120 0 120 0 0 -710z"/>
<path d="M360 3511 l-105 -6 0 -215 0 -215 55 0 55 0 1 75 1 75 -4 -72 -4 -73 -49 0 -50 0 0 210 0 210 98 0 c53 0 104 5 112 10 8 5 11 9 5 8 -5 -1 -57 -4 -115 -7z"/>
<path d="M783 3465 c0 -33 2 -45 4 -27 2 18 2 45 0 60 -2 15 -4 0 -4 -33z"/>
<path d="M2175 3479 c-48 -37 -51 -39 -39 -39 5 0 27 16 49 35 49 42 44 44 -10 4z"/>
<path d="M2245 3460 c-17 -19 -17 -19 9 -7 14 7 26 15 26 20 0 13 -17 7 -35 -13z"/>
<path d="M2312 3387 l2 -92 3 83 c4 84 12 97 43 70 12 -11 12 -10 2 3 -7 9 -22 19 -32 22 -19 5 -20 0 -18 -86z"/>
<path d="M2495 3434 c9 -9 19 -14 22 -10 11 11 52 -35 46 -52 -5 -11 -2 -14 10 -9 11 4 14 2 10 -9 -3 -9 1 -14 12 -14 12 0 16 -6 12 -20 -3 -10 1 -24 9 -31 11 -9 14 -9 14 1 0 43 -89 151 -131 157 -19 3 -19 2 -4 -13z"/>
<path d="M2078 3414 c-22 -16 -34 -32 -31 -40 6 -16 19 -18 28 -4 3 6 -2 10 -12 10 -12 0 -6 8 20 25 20 14 37 28 37 30 0 8 -4 6 -42 -21z"/>
<path d="M2195 3430 c-16 -7 -17 -9 -3 -9 9 -1 20 4 23 9 7 11 7 11 -20 0z"/>
<path d="M2398 3423 c7 -3 16 -2 19 1 4 3 -2 6 -13 5 -11 0 -14 -3 -6 -6z"/>
<path d="M1113 3360 c0 -30 2 -43 4 -27 2 15 2 39 0 55 -2 15 -4 2 -4 -28z"/>
<path d="M2159 3393 c-13 -16 -12 -17 4 -4 16 13 21 21 13 21 -2 0 -10 -8 -17 -17z"/>
<path d="M782 3380 c0 -14 2 -19 5 -12 2 6 2 18 0 25 -3 6 -5 1 -5 -13z"/>
<path d="M2446 3392 c5 -4 23 -18 39 -32 l30 -25 -29 33 c-17 17 -34 32 -40 32 -6 0 -6 -3 0 -8z"/>
<path d="M2116 3374 c-5 -14 -4 -15 9 -4 17 14 19 20 6 20 -5 0 -12 -7 -15 -16z"/>
<path d="M2012 3305 c-20 -42 -30 -86 -16 -72 9 8 34 -18 34 -36 0 -8 8 -21 17 -28 15 -13 16 -12 8 6 -4 11 -11 40 -14 65 -4 28 -9 40 -14 33 -14 -23 -25 -14 -14 11 6 12 16 23 22 22 11 -1 15 6 15 29 0 28 -16 15 -38 -30z"/>
<path d="M758 3333 c7 -3 16 -2 19 1 4 3 -2 6 -13 5 -11 0 -14 -3 -6 -6z"/>
<path d="M1985 3319 c-4 -6 -5 -12 -2 -15 2 -3 7 2 10 11 7 17 1 20 -8 4z"/>
<path d="M728 3308 c9 -9 15 -9 24 0 9 9 7 12 -12 12 -19 0 -21 -3 -12 -12z"/>
<path d="M2283 3167 c0 -114 1 -122 7 -57 8 97 11 85 20 -90 l6 -145 1 210 c0 116 -3 197 -7 180 l-8 -30 -1 27 c0 15 -5 29 -10 32 -5 4 -9 -51 -8 -127z"/>
<path d="M1961 3250 c0 -15 3 -30 8 -35 5 -6 11 -21 14 -35 4 -21 4 -20 6 8 0 17 -3 32 -8 32 -5 0 -12 12 -14 28 -4 27 -4 27 -6 2z"/>
<path d="M460 3233 c50 -2 88 -9 93 -16 6 -8 7 -8 4 3 -3 12 -22 15 -93 16 l-89 0 85 -3z"/>
<path d="M2611 3220 c0 -15 -4 -30 -8 -36 -5 -5 -2 -4 5 2 8 6 12 22 9 35 -4 24 -4 24 -6 -1z"/>
<path d="M2546 3215 c-3 -9 -6 -22 -5 -28 0 -7 5 -1 10 12 5 13 8 26 5 28 -2 2 -6 -3 -10 -12z"/>
<path d="M397 3213 c-12 -12 -7 -22 8 -17 8 4 15 10 15 15 0 11 -14 12 -23 2z"/>
<path d="M554 3135 l1 -60 57 -3 57 -3 4 -92 3 -92 0 95 -1 95 -57 3 -57 3 -4 57 -3 57 0 -60z"/>
<path d="M411 3154 c0 -11 3 -14 6 -6 3 7 2 16 -1 19 -3 4 -6 -2 -5 -13z"/>
<path d="M1918 3153 c6 -2 18 -2 25 0 6 3 1 5 -13 5 -14 0 -19 -2 -12 -5z"/>
<path d="M2574 3149 c-3 -6 -1 -16 4 -21 8 -8 11 -5 9 11 -1 24 -3 25 -13 10z"/>
<path d="M2653 3153 c-6 -5 28 -6 75 -4 78 3 85 2 73 -13 -11 -14 -11 -16 4 -16 10 0 15 6 13 18 -3 14 -16 17 -78 20 -41 1 -80 -1 -87 -5z"/>
<path d="M1860 3140 c0 -5 -10 -10 -23 -10 -13 0 -32 -7 -43 -15 -17 -13 -16 -14 16 -4 19 6 49 17 65 25 26 12 27 14 8 14 -13 0 -23 -4 -23 -10z"/>
<path d="M2839 3134 c6 -3 8 -11 5 -18 -6 -15 43 -59 56 -51 6 4 7 -1 3 -11 -5 -13 -3 -16 10 -11 12 4 14 2 10 -10 -5 -12 -2 -15 10 -10 11 4 17 1 17 -9 0 -8 7 -22 15 -30 19 -19 19 -15 -1 25 -16 33 -90 98 -106 93 -5 -1 -8 5 -6 14 2 9 -3 18 -10 20 -7 1 -8 0 -3 -2z"/>
<path d="M2494 3108 l-19 -23 23 19 c21 18 27 26 19 26 -2 0 -12 -10 -23 -22z"/>
<path d="M503 3080 c0 -25 2 -35 4 -22 2 12 2 32 0 45 -2 12 -4 2 -4 -23z"/>
<path d="M1113 3030 c0 -47 2 -66 4 -42 2 23 2 61 0 85 -2 23 -4 4 -4 -43z"/>
<path d="M2101 3093 c7 -12 15 -20 18 -17 3 2 -3 12 -13 22 -17 16 -18 16 -5 -5z"/>
<path d="M412 3075 c0 -16 2 -22 5 -12 2 9 2 23 0 30 -3 6 -5 -1 -5 -18z"/>
<path d="M1779 3073 c-13 -16 -12 -17 4 -4 16 13 21 21 13 21 -2 0 -10 -8 -17 -17z"/>
<path d="M1903 3083 c9 -2 23 -2 30 0 6 3 -1 5 -18 5 -16 0 -22 -2 -12 -5z"/>
<path d="M2678 3083 c7 -3 16 -2 19 1 4 3 -2 6 -13 5 -11 0 -14 -3 -6 -6z"/>
<path d="M1958 3068 c5 -5 16 -8 23 -6 8 3 3 7 -10 11 -17 4 -21 3 -13 -5z"/>
<path d="M2613 3073 c-30 -4 -69 -33 -44 -33 6 0 11 5 11 10 0 6 12 10 28 10 15 0 34 5 42 10 8 5 11 9 5 8 -5 -1 -24 -3 -42 -5z"/>
<path d="M2730 3070 c8 -5 24 -10 36 -10 11 0 25 -4 32 -10 8 -6 7 -5 0 4 -7 7 -29 16 -48 20 -25 4 -31 3 -20 -4z"/>
<path d="M3050 3054 c0 -8 5 -12 10 -9 6 4 8 11 5 16 -9 14 -15 11 -15 -7z"/>
<path d="M2010 3050 c8 -5 20 -10 25 -10 6 0 3 5 -5 10 -8 5 -19 10 -25 10 -5 0 -3 -5 5 -10z"/>
<path d="M2132 3035 c25 -47 47 -115 57 -175 l9 -55 1 47 c1 27 -7 66 -19 93 -11 26 -20 55 -20 64 0 10 -10 26 -22 37 l-21 19 15 -30z"/>
<path d="M2520 3030 c-9 -6 -10 -10 -3 -10 6 0 15 5 18 10 8 12 4 12 -15 0z"/>
<path d="M323 3023 c9 -2 23 -2 30 0 6 3 -1 5 -18 5 -16 0 -22 -2 -12 -5z"/>
<path d="M1697 2998 c-21 -46 -30 -91 -17 -83 5 3 10 17 10 31 0 20 9 45 28 74 2 2 8 -2 13 -10 9 -13 10 -13 7 -1 -8 27 -26 22 -41 -11z"/>
<path d="M1751 2998 c-10 -30 -9 -31 4 -13 8 11 19 26 25 33 8 9 7 12 -4 12 -8 0 -19 -15 -25 -32z"/>
<path d="M2486 3005 c-9 -26 -7 -32 5 -12 6 10 9 21 6 23 -2 3 -7 -2 -11 -11z"/>
<path d="M2850 3016 c0 -2 8 -10 18 -17 15 -13 16 -12 3 4 -13 16 -21 21 -21 13z"/>
<path d="M2097 2986 c20 -26 27 -28 17 -3 -3 8 -12 18 -20 21 -11 4 -10 0 3 -18z"/>
<path d="M621 2984 c0 -11 3 -14 6 -6 3 7 2 16 -1 19 -3 4 -6 -2 -5 -13z"/>
<path d="M1542 2960 c0 -14 2 -19 5 -12 2 6 2 18 0 25 -3 6 -5 1 -5 -13z"/>
<path d="M3077 2973 c-4 -3 -7 -11 -7 -17 0 -6 5 -5 12 2 6 6 9 14 7 17 -3 3 -9 2 -12 -2z"/>
<path d="M2880 2963 c0 -6 5 -15 10 -18 15 -9 12 -128 -2 -144 -11 -10 -10 -11 5 -6 14 6 17 20 17 74 0 44 -5 74 -15 87 -8 10 -15 14 -15 7z"/>
<path d="M1727 2943 c-4 -3 -7 -11 -7 -17 0 -6 5 -5 12 2 6 6 9 14 7 17 -3 3 -9 2 -12 -2z"/>
<path d="M2131 2933 c7 -10 15 -20 16 -22 2 -2 3 3 3 11 0 9 -7 19 -16 22 -15 6 -15 4 -3 -11z"/>
<path d="M2282 2910 c0 -19 2 -27 5 -17 2 9 2 25 0 35 -3 9 -5 1 -5 -18z"/>
<path d="M2407 2933 c-4 -3 -7 -11 -7 -17 0 -6 5 -5 12 2 6 6 9 14 7 17 -3 3 -9 2 -12 -2z"/>
<path d="M2973 2905 c0 -22 2 -30 4 -17 2 12 2 30 0 40 -3 9 -5 -1 -4 -23z"/>
<path d="M3050 2919 c0 -11 5 -17 10 -14 6 3 10 13 10 21 0 8 -4 14 -10 14 -5 0 -10 -9 -10 -21z"/>
<path d="M1112 2880 c0 -19 2 -27 5 -17 2 9 2 25 0 35 -3 9 -5 1 -5 -18z"/>
<path d="M201 2884 c0 -11 3 -14 6 -6 3 7 2 16 -1 19 -3 4 -6 -2 -5 -13z"/>
<path d="M1663 2855 c0 -27 2 -38 4 -22 2 15 2 37 0 50 -2 12 -4 0 -4 -28z"/>
<path d="M2422 2863 c-14 -44 -23 -287 -13 -353 3 -25 7 37 8 139 1 117 6 194 14 212 6 16 10 32 7 34 -3 3 -10 -12 -16 -32z"/>
<path d="M255 2878 c-3 -8 -4 -101 -3 -208 l3 -195 185 0 185 0 1 80 0 80 -3 -77 -4 -78 -179 0 -180 0 0 200 0 200 50 0 49 0 4 -67 3 -68 0 70 -1 70 -53 3 c-36 2 -54 -1 -57 -10z"/>
<path d="M554 2876 c-3 -7 -3 -42 -1 -77 l3 -64 2 72 2 72 53 4 52 3 -53 2 c-36 1 -54 -2 -58 -12z"/>
<path d="M2140 2881 c0 -6 4 -13 10 -16 6 -3 7 1 4 9 -7 18 -14 21 -14 7z"/>
<path d="M2386 2855 c-3 -9 -5 -40 -4 -68 l1 -52 7 65 c7 70 6 80 -4 55z"/>
<path d="M412 2820 c0 -14 2 -19 5 -12 2 6 2 18 0 25 -3 6 -5 1 -5 -13z"/>
<path d="M2951 2818 c0 -15 -5 -30 -11 -33 -5 -3 -10 -16 -9 -28 0 -14 2 -16 6 -7 2 8 9 25 15 36 5 12 8 30 5 40 -3 14 -5 11 -6 -8z"/>
<path d="M1710 2812 c0 -5 7 -13 16 -16 10 -4 14 -1 12 6 -5 15 -28 23 -28 10z"/>
<path d="M1543 2740 c0 -36 2 -50 4 -32 2 17 2 47 0 65 -2 17 -4 3 -4 -33z"/>
<path d="M1677 2772 c3 -15 13 -45 24 -67 21 -42 85 -122 73 -92 -3 9 -19 31 -35 48 -16 17 -29 40 -29 50 0 10 -4 19 -10 19 -5 0 -10 13 -10 29 0 17 -4 32 -9 35 -4 3 -6 -7 -4 -22z"/>
<path d="M1907 2781 c-42 -27 -46 -36 -7 -15 19 10 46 17 59 15 15 -2 21 1 17 8 -10 16 -37 12 -69 -8z"/>
<path d="M2160 2777 c0 -14 5 -29 10 -32 7 -4 8 3 4 22 -9 38 -14 42 -14 10z"/>
<path d="M2630 2790 c-8 -5 -23 -11 -32 -14 -10 -3 -18 -11 -18 -18 0 -9 3 -9 8 -2 4 5 33 9 64 8 48 -1 65 -7 102 -35 25 -19 46 -42 46 -51 0 -23 20 -34 31 -17 5 9 4 15 -5 17 -7 2 -22 21 -32 42 -11 22 -24 38 -31 35 -7 -2 -10 2 -7 9 4 9 -8 13 -43 14 -26 0 -49 5 -51 11 -4 13 -11 13 -32 1z"/>
<path d="M1710 2774 c0 -5 47 -59 74 -86 33 -33 50 -36 41 -8 -4 11 -2 20 4 20 6 0 11 6 11 13 -1 6 -9 2 -19 -10 -10 -11 -22 -18 -27 -15 -16 11 -44 60 -44 76 0 9 -8 14 -20 13 -11 -1 -20 -2 -20 -3z"/>
<path d="M2033 2757 c15 -14 27 -30 27 -35 0 -15 25 -62 33 -62 5 0 6 3 4 8 -8 14 -20 47 -21 56 -1 5 -17 20 -36 33 l-35 26 28 -26z"/>
<path d="M1935 2740 c-4 -6 7 -10 25 -10 18 0 29 4 25 10 -3 6 -15 10 -25 10 -10 0 -22 -4 -25 -10z"/>
<path d="M2202 2725 c0 -16 2 -22 5 -12 2 9 2 23 0 30 -3 6 -5 -1 -5 -18z"/>
<path d="M2856 2725 c-20 -30 -21 -41 -2 -26 12 10 29 51 21 51 -1 0 -10 -11 -19 -25z"/>
<path d="M2535 2720 c-10 -11 -16 -22 -13 -25 2 -3 14 6 26 20 26 30 13 34 -13 5z"/>
<path d="M2678 2735 c-3 -4 -24 -13 -45 -21 l-38 -14 42 6 c29 4 53 1 74 -10 26 -13 29 -13 19 -1 -7 8 -18 15 -25 15 -8 0 -15 7 -17 16 -2 9 -6 13 -10 9z"/>
<path d="M418 2723 c23 -2 61 -2 85 0 23 2 4 4 -43 4 -47 0 -66 -2 -42 -4z"/>
<path d="M2915 2719 c-4 -6 -5 -12 -2 -15 2 -3 7 2 10 11 7 17 1 20 -8 4z"/>
<path d="M1980 2710 c-21 -7 -21 -8 -5 -9 11 0 27 4 35 9 18 11 5 11 -30 0z"/>
<path d="M1903 2703 c9 -2 25 -2 35 0 9 3 1 5 -18 5 -19 0 -27 -2 -17 -5z"/>
<path d="M2181 2694 c0 -11 3 -14 6 -6 3 7 2 16 -1 19 -3 4 -6 -2 -5 -13z"/>
<path d="M2020 2681 c0 -11 5 -23 10 -26 6 -3 11 -39 12 -78 l2 -72 3 68 c2 40 -1 74 -7 82 -6 7 -8 20 -4 29 3 9 1 16 -5 16 -6 0 -11 -9 -11 -19z"/>
<path d="M2505 2669 c-4 -6 -5 -12 -2 -15 2 -3 7 2 10 11 7 17 1 20 -8 4z"/>
<path d="M2876 2648 l-18 -33 21 25 c18 22 26 40 18 40 -1 0 -11 -15 -21 -32z"/>
<path d="M2561 2656 c-7 -8 -11 -32 -8 -53 l4 -38 1 41 c1 22 7 45 14 52 7 7 9 12 6 12 -3 0 -11 -6 -17 -14z"/>
<path d="M2761 2644 c0 -11 3 -14 6 -6 3 7 2 16 -1 19 -3 4 -6 -2 -5 -13z"/>
<path d="M3050 2650 c0 -5 5 -10 11 -10 5 0 7 5 4 10 -3 6 -8 10 -11 10 -2 0 -4 -4 -4 -10z"/>
<path d="M2207 2604 c3 -27 7 -51 9 -53 8 -9 3 75 -5 88 -5 8 -7 -5 -4 -35z"/>
<path d="M1543 2560 c0 -47 2 -66 4 -42 2 23 2 61 0 85 -2 23 -4 4 -4 -43z"/>
<path d="M1832 2610 c0 -19 2 -27 5 -17 2 9 2 25 0 35 -3 9 -5 1 -5 -18z"/>
<path d="M2092 2620 c0 -14 2 -19 5 -12 2 6 2 18 0 25 -3 6 -5 1 -5 -13z"/>
<path d="M2487 2613 c-4 -3 -7 -11 -7 -17 0 -6 5 -5 12 2 6 6 9 14 7 17 -3 3 -9 2 -12 -2z"/>
<path d="M760 2606 c0 -2 7 -7 16 -10 8 -3 12 -2 9 4 -6 10 -25 14 -25 6z"/>
<path d="M2805 2580 c-16 -11 -25 -20 -20 -20 10 0 64 39 55 40 -3 0 -18 -9 -35 -20z"/>
<path d="M3050 2571 c0 -5 7 -12 16 -15 24 -9 27 -7 10 9 -17 17 -26 19 -26 6z"/>
<path d="M783 2535 c0 -22 2 -30 4 -17 2 12 2 30 0 40 -3 9 -5 -1 -4 -23z"/>
<path d="M2551 2498 c0 -31 2 -59 7 -61 4 -3 6 16 4 41 -5 73 -10 82 -11 20z"/>
<path d="M2382 2510 c0 -19 2 -27 5 -17 2 9 2 25 0 35 -3 9 -5 1 -5 -18z"/>
<path d="M2212 2510 c0 -14 2 -19 5 -12 2 6 2 18 0 25 -3 6 -5 1 -5 -13z"/>
<path d="M2046 2485 c-3 -9 -6 -25 -6 -36 0 -12 -7 -19 -20 -19 -12 0 -30 -9 -42 -19 l-20 -20 21 6 c11 3 21 9 21 13 0 5 10 10 22 12 16 2 24 12 29 38 8 38 5 51 -5 25z"/>
<path d="M2381 2454 c0 -11 3 -14 6 -6 3 7 2 16 -1 19 -3 4 -6 -2 -5 -13z"/>
<path d="M2100 2450 c0 -5 5 -10 11 -10 5 0 7 5 4 10 -3 6 -8 10 -11 10 -2 0 -4 -4 -4 -10z"/>
<path d="M2450 2426 c7 -7 13 -7 20 0 6 6 3 10 -10 10 -13 0 -16 -4 -10 -10z"/>
<path d="M2593 2433 c-10 -3 -9 -8 3 -20 8 -8 18 -13 21 -9 3 3 12 1 20 -5 16 -14 17 -81 1 -97 -9 -9 -9 -15 1 -24 10 -11 11 -10 6 3 -4 10 -2 20 4 24 6 3 11 23 11 44 0 28 -7 44 -27 63 -16 14 -34 23 -40 21z"/>
<path d="M1975 2370 c-3 -5 -1 -10 4 -10 6 0 11 5 11 10 0 6 -2 10 -4 10 -3 0 -8 -4 -11 -10z"/>
<path d="M2470 2370 l-75 -7 82 0 c45 0 80 4 77 8 -3 5 -6 8 -7 7 -1 -1 -36 -5 -77 -8z"/>
<path d="M2067 2363 c18 -2 50 -2 70 0 21 2 7 4 -32 4 -38 0 -55 -2 -38 -4z"/>
<path d="M782 2320 c0 -14 2 -19 5 -12 2 6 2 18 0 25 -3 6 -5 1 -5 -13z"/>
<path d="M1933 2309 c3 -9 0 -22 -6 -28 -8 -8 -8 -11 0 -11 19 0 25 18 13 37 -9 15 -11 15 -7 2z"/>
<path d="M2006 2285 c29 -22 566 -22 584 0 9 10 9 15 1 15 -6 0 -11 -4 -11 -10 0 -6 -100 -10 -279 -10 -176 0 -282 4 -286 10 -3 6 -11 10 -18 10 -6 0 -2 -7 9 -15z"/>
<path d="M1610 2280 c0 -5 5 -10 11 -10 5 0 7 5 4 10 -3 6 -8 10 -11 10 -2 0 -4 -4 -4 -10z"/>
<path d="M782 2250 c0 -19 2 -27 5 -17 2 9 2 25 0 35 -3 9 -5 1 -5 -18z"/>
<path d="M1793 2273 c9 -2 25 -2 35 0 9 3 1 5 -18 5 -19 0 -27 -2 -17 -5z"/>
<path d="M2723 2273 c32 -2 81 -2 110 0 29 2 3 3 -58 3 -60 0 -84 -1 -52 -3z"/>
<path d="M1542 2240 c0 -19 2 -27 5 -17 2 9 2 25 0 35 -3 9 -5 1 -5 -18z"/>
<path d="M1615 2200 c-9 -15 -8 -681 2 -691 4 -4 7 148 5 338 -2 272 0 348 10 355 9 5 10 8 1 8 -6 0 -15 -5 -18 -10z"/>
<path d="M3024 1860 c0 -190 2 -267 3 -172 2 94 2 250 0 345 -1 94 -3 17 -3 -173z"/>
<path d="M781 2154 c0 -11 3 -14 6 -6 3 7 2 16 -1 19 -3 4 -6 -2 -5 -13z"/>
<path d="M1133 2106 c1 -17 9 -31 17 -33 10 -3 11 -2 4 4 -7 4 -14 19 -17 33 -4 22 -5 21 -4 -4z"/>
<path d="M706 2072 c-3 -5 8 -6 25 -4 16 2 29 6 29 8 0 8 -49 4 -54 -4z"/>
<path d="M957 2033 c-231 -4 -258 -9 -270 -53 -3 -11 -1 -18 4 -14 5 3 9 10 9 16 0 32 35 37 246 38 168 0 218 -3 240 -15 18 -9 30 -11 32 -5 7 19 -7 40 -25 38 -10 -2 -116 -4 -236 -5z m250 -19 c-3 -3 -12 -4 -19 -1 -8 3 -5 6 6 6 11 1 17 -2 13 -5z"/>
<path d="M1260 2012 c6 -13 14 -21 18 -18 3 4 -2 14 -12 24 -18 16 -18 16 -6 -6z"/>
<path d="M624 1966 c-3 -8 -4 -25 -2 -38 3 -17 5 -13 9 15 5 38 2 47 -7 23z"/>
<path d="M1221 1950 c0 -20 -6 -41 -13 -48 -9 -9 -9 -12 0 -12 14 0 25 40 19 71 -3 17 -5 14 -6 -11z"/>
<path d="M700 1922 c0 -17 27 -45 39 -40 4 2 -3 14 -15 28 -14 14 -24 19 -24 12z"/>
<path d="M1177 1884 c-4 -4 -98 -7 -209 -7 l-203 -1 180 -3 c99 -2 187 -6 195 -10 8 -3 19 -5 24 -4 4 1 14 -6 21 -16 7 -10 16 -15 20 -12 3 4 -1 14 -10 23 -9 9 -13 20 -10 26 7 11 2 13 -8 4z"/>
<path d="M645 1845 c0 -18 3 -21 13 -13 6 6 12 14 12 18 0 4 -6 10 -12 13 -8 3 -13 -4 -13 -18z"/>
<path d="M1247 1863 c-14 -13 -6 -40 16 -59 l22 -19 -19 22 c-11 13 -16 31 -13 43 5 21 4 24 -6 13z"/>
<path d="M718 1833 c-16 -8 -27 -22 -27 -31 1 -13 2 -14 5 -2 9 33 54 40 245 40 175 0 190 -1 229 -22 23 -13 46 -33 51 -45 10 -28 19 -30 12 -3 -6 23 -15 30 -66 59 -35 19 -52 21 -230 20 -147 -1 -198 -5 -219 -16z"/>
<path d="M625 1776 c-6 -6 -8 -24 -5 -41 6 -29 6 -29 12 10 6 47 6 46 -7 31z"/>
<path d="M1271 1754 c0 -11 3 -14 6 -6 3 7 2 16 -1 19 -3 4 -6 -2 -5 -13z"/>
<path d="M681 1735 c-1 -24 25 -65 41 -65 7 0 4 6 -5 13 -10 6 -21 26 -26 42 -7 21 -10 24 -10 10z"/>
<path d="M1202 1698 c-9 -9 -78 -15 -235 -19 l-222 -6 222 1 c198 1 224 3 240 19 9 9 15 17 12 17 -3 0 -11 -6 -17 -12z"/>
<path d="M1242 1684 c-11 -12 -8 -14 20 -13 18 0 26 3 18 6 -8 3 -17 9 -20 13 -3 4 -11 2 -18 -6z"/>
<path d="M625 1680 c-3 -5 -1 -10 4 -10 6 0 11 5 11 10 0 6 -2 10 -4 10 -3 0 -8 -4 -11 -10z"/>
<path d="M572 1666 c-32 -18 -37 -25 -13 -19 11 3 26 11 32 19 13 16 12 16 -19 0z"/>
<path d="M1320 1666 c0 -9 5 -16 10 -16 6 0 10 4 10 9 0 6 -4 13 -10 16 -5 3 -10 -1 -10 -9z"/>
<path d="M3140 1628 c0 -28 2 -49 4 -47 9 9 13 99 5 99 -5 0 -9 -23 -9 -52z"/>
<path d="M635 1640 c-3 -5 -15 -10 -26 -10 -10 0 -19 -3 -19 -8 0 -4 -14 -13 -30 -21 -24 -10 -34 -10 -45 -1 -11 9 -15 9 -15 1 0 -6 5 -11 11 -11 6 0 8 -7 5 -16 -5 -13 -3 -14 6 -6 8 6 40 24 72 41 53 28 66 31 155 31 80 0 100 -4 121 -20 27 -21 70 -27 70 -10 0 6 -11 8 -25 4 -26 -6 -36 10 -12 20 6 3 0 3 -15 0 -17 -4 -28 -2 -28 5 0 14 -216 15 -225 1z"/>
<path d="M1080 1643 c0 -5 41 -7 92 -5 86 3 103 0 161 -29 11 -6 24 -6 35 1 16 11 16 11 -1 6 -10 -3 -27 -1 -37 4 -11 6 -29 15 -40 20 -23 12 -210 14 -210 3z"/>
<path d="M950 1629 c0 -5 5 -7 10 -4 6 3 10 8 10 11 0 2 -4 4 -10 4 -5 0 -10 -5 -10 -11z"/>
<path d="M1005 1630 c3 -6 20 -10 37 -10 38 0 34 5 -10 13 -21 4 -31 3 -27 -3z"/>
<path d="M454 1578 l-19 -23 23 19 c21 18 27 26 19 26 -2 0 -12 -10 -23 -22z"/>
<path d="M975 1590 c-16 -7 -17 -9 -3 -9 9 -1 20 4 23 9 7 11 7 11 -20 0z"/>
<path d="M1387 1585 c-4 -8 -3 -16 1 -19 4 -3 9 4 9 15 2 23 -3 25 -10 4z"/>
<path d="M133 1540 c0 -30 2 -43 4 -27 2 15 2 39 0 55 -2 15 -4 2 -4 -28z"/>
<path d="M932 1574 c10 -10 20 -16 22 -13 3 3 -5 11 -17 18 -21 13 -21 12 -5 -5z"/>
<path d="M0 1550 c0 -11 4 -20 9 -20 5 0 7 9 4 20 -3 11 -7 20 -9 20 -2 0 -4 -9 -4 -20z"/>
<path d="M1460 1552 c6 -13 14 -21 18 -18 3 4 -2 14 -12 24 -18 16 -18 16 -6 -6z"/>
<path d="M3134 1527 c-3 -8 -4 -45 -2 -83 l3 -69 5 83 c5 82 4 94 -6 69z"/>
<path d="M466 1513 c-6 -14 -5 -15 5 -6 7 7 10 15 7 18 -3 3 -9 -2 -12 -12z"/>
<path d="M1480 1513 c0 -4 5 -15 10 -23 8 -13 10 -13 10 2 0 9 -4 20 -10 23 -5 3 -10 3 -10 -2z"/>
<path d="M1440 1486 c0 -14 4 -27 8 -30 5 -3 6 8 4 25 -5 35 -12 38 -12 5z"/>
<path d="M0 1466 c0 -8 5 -18 10 -21 6 -3 10 1 10 9 0 8 -4 18 -10 21 -5 3 -10 -1 -10 -9z"/>
<path d="M431 1464 c0 -11 3 -14 6 -6 3 7 2 16 -1 19 -3 4 -6 -2 -5 -13z"/>
<path d="M370 1455 c-11 -13 -10 -14 4 -9 9 3 16 10 16 15 0 13 -6 11 -20 -6z"/>
<path d="M853 1453 c9 -2 23 -2 30 0 6 3 -1 5 -18 5 -16 0 -22 -2 -12 -5z"/>
<path d="M1090 1450 c63 -12 79 -21 73 -38 -5 -11 -2 -14 9 -10 9 4 22 1 29 -5 7 -7 5 -2 -5 11 -26 31 -73 52 -110 51 l-31 -2 35 -7z"/>
<path d="M2938 1453 c7 -3 16 -2 19 1 4 3 -2 6 -13 5 -11 0 -14 -3 -6 -6z"/>
<path d="M987 1425 c-20 -14 -43 -23 -50 -19 -9 5 -9 4 -1 -5 13 -14 39 -3 78 32 28 25 17 21 -27 -8z"/>
<path d="M413 1395 c0 -27 2 -38 4 -22 2 15 2 37 0 50 -2 12 -4 0 -4 -28z"/>
<path d="M880 1430 c0 -5 5 -10 10 -10 6 0 10 5 10 10 0 6 -4 10 -10 10 -5 0 -10 -4 -10 -10z"/>
<path d="M1464 1355 c0 -49 1 -71 3 -48 2 23 2 64 0 90 -2 26 -3 8 -3 -42z"/>
<path d="M1509 1408 c4 -28 6 -29 9 -9 2 13 0 27 -5 32 -6 6 -7 -3 -4 -23z"/>
<path d="M23 1370 c0 -36 2 -50 4 -32 2 17 2 47 0 65 -2 17 -4 3 -4 -33z"/>
<path d="M699 1409 l-24 -20 28 17 c15 9 27 18 27 20 0 8 -8 4 -31 -17z"/>
<path d="M2317 1423 l682 -3 4 -33 c5 -32 5 -32 3 3 l-1 35 -685 0 -685 0 682 -2z"/>
<path d="M1615 760 l0 -645 38 -1 37 -1 -35 4 -35 4 -3 642 -2 642 0 -645z"/>
<path d="M3030 1394 c0 -8 5 -12 10 -9 6 4 8 11 5 16 -9 14 -15 11 -15 -7z"/>
<path d="M1542 1380 c0 -14 2 -19 5 -12 2 6 2 18 0 25 -3 6 -5 1 -5 -13z"/>
<path d="M140 1373 c0 -4 5 -15 10 -23 8 -13 10 -13 10 2 0 9 -4 20 -10 23 -5 3 -10 3 -10 -2z"/>
<path d="M735 1370 c-16 -7 -17 -9 -3 -9 9 -1 20 4 23 9 7 11 7 11 -20 0z"/>
<path d="M1200 1370 c0 -5 5 -10 10 -10 6 0 10 5 10 10 0 6 -4 10 -10 10 -5 0 -10 -4 -10 -10z"/>
<path d="M651 1337 c-7 -13 -11 -41 -8 -63 l4 -39 1 46 c1 25 7 50 14 57 6 6 9 14 7 17 -3 3 -11 -5 -18 -18z"/>
<path d="M3030 1344 c0 -8 5 -12 10 -9 6 4 8 11 5 16 -9 14 -15 11 -15 -7z"/>
<path d="M1224 1327 c-1 -12 -6 -39 -12 -59 -5 -21 -6 -35 -1 -32 5 3 9 14 9 24 0 11 5 31 12 45 7 16 8 29 2 35 -5 5 -10 0 -10 -13z"/>
<path d="M2991 1334 c0 -11 3 -14 6 -6 3 7 2 16 -1 19 -3 4 -6 -2 -5 -13z"/>
<path d="M1511 1318 c0 -15 -5 -30 -11 -33 -5 -3 -10 -14 -10 -23 0 -11 6 -6 15 12 9 17 14 39 12 50 -3 16 -5 15 -6 -6z"/>
<path d="M1543 1290 c0 -30 2 -43 4 -27 2 15 2 39 0 55 -2 15 -4 2 -4 -28z"/>
<path d="M3113 1300 c0 -25 2 -35 4 -22 2 12 2 32 0 45 -2 12 -4 2 -4 -23z"/>
<path d="M950 1320 c-9 -6 -10 -10 -3 -10 6 0 15 5 18 10 8 12 4 12 -15 0z"/>
<path d="M405 1290 c0 -15 3 -26 8 -23 4 2 7 13 7 23 0 10 -3 21 -7 23 -5 3 -8 -8 -8 -23z"/>
<path d="M1163 1285 c0 -22 2 -30 4 -17 2 12 2 30 0 40 -3 9 -5 -1 -4 -23z"/>
<path d="M2982 1280 c0 -19 2 -27 5 -17 2 9 2 25 0 35 -3 9 -5 1 -5 -18z"/>
<path d="M160 1273 c0 -4 5 -15 10 -23 8 -13 10 -13 10 2 0 9 -4 20 -10 23 -5 3 -10 3 -10 -2z"/>
<path d="M691 1264 c0 -11 3 -14 6 -6 3 7 2 16 -1 19 -3 4 -6 -2 -5 -13z"/>
<path d="M41 1243 c0 -17 4 -35 9 -38 6 -3 10 -19 10 -35 0 -16 4 -31 9 -34 9 -6 4 40 -9 69 -5 11 -11 31 -13 45 -4 21 -5 20 -6 -7z"/>
<path d="M1447 1253 c-4 -3 -7 -17 -7 -29 0 -13 -4 -26 -10 -29 -5 -3 -10 -14 -10 -23 0 -23 25 25 32 61 6 29 5 31 -5 20z"/>
<path d="M412 1225 c0 -16 2 -22 5 -12 2 9 2 23 0 30 -3 6 -5 -1 -5 -18z"/>
<path d="M3089 1208 c-3 -22 -1 -34 4 -29 5 5 7 21 5 37 -3 27 -4 26 -9 -8z"/>
<path d="M658 1203 c5 -21 7 -23 10 -9 2 10 0 22 -6 28 -6 6 -7 0 -4 -19z"/>
<path d="M1182 1190 c-8 -16 -11 -36 -9 -42 3 -7 6 -4 6 8 1 11 6 25 12 31 6 6 10 16 8 22 -2 6 -10 -2 -17 -19z"/>
<path d="M2962 1200 c0 -14 2 -19 5 -12 2 6 2 18 0 25 -3 6 -5 1 -5 -13z"/>
<path d="M2990 1210 c0 -5 5 -10 10 -10 6 0 10 5 10 10 0 6 -4 10 -10 10 -5 0 -10 -4 -10 -10z"/>
<path d="M180 1190 c0 -5 5 -10 11 -10 5 0 7 5 4 10 -3 6 -8 10 -11 10 -2 0 -4 -4 -4 -10z"/>
<path d="M361 1189 c-1 -9 7 -23 17 -30 15 -12 16 -12 6 1 -6 8 -14 22 -17 30 -5 13 -6 12 -6 -1z"/>
<path d="M1543 1120 c0 -47 2 -66 4 -42 2 23 2 61 0 85 -2 23 -4 4 -4 -43z"/>
<path d="M431 1178 c-1 -9 4 -20 10 -23 6 -4 8 -13 5 -21 -3 -8 0 -11 10 -7 9 3 14 -1 15 -13 0 -12 3 -14 6 -6 3 7 -4 23 -15 35 -11 12 -22 29 -25 37 -4 12 -6 12 -6 -2z"/>
<path d="M1130 1180 c-9 -6 -10 -10 -3 -10 6 0 15 5 18 10 8 12 4 12 -15 0z"/>
<path d="M680 1172 c0 -15 55 -97 72 -108 6 -4 0 8 -15 27 -14 19 -33 48 -41 64 -9 17 -16 24 -16 17z"/>
<path d="M735 1157 c10 -15 20 -25 23 -22 3 3 -5 16 -17 28 l-23 22 17 -28z"/>
<path d="M2944 1155 c-3 -8 -4 -20 -2 -27 3 -7 7 -1 10 15 6 29 1 36 -8 12z"/>
<path d="M3071 1138 c0 -15 -5 -30 -11 -33 -5 -3 -10 -17 -10 -30 0 -13 -4 -26 -9 -29 -5 -3 -11 -17 -13 -31 -3 -13 -1 -22 3 -19 5 3 9 14 9 24 0 10 5 22 10 25 6 3 10 16 10 29 0 12 5 27 11 33 6 6 9 21 6 34 -4 22 -4 22 -6 -3z"/>
<path d="M1403 1135 c-3 -9 -3 -18 -1 -21 3 -3 8 4 11 16 6 23 -1 27 -10 5z"/>
<path d="M1457 1124 c-13 -18 -14 -22 -3 -18 8 3 17 13 20 21 10 25 3 23 -17 -3z"/>
<path d="M204 1128 c3 -7 7 -25 10 -40 4 -16 12 -28 18 -28 9 0 9 3 0 12 -7 7 -12 22 -12 34 0 13 -4 26 -10 29 -5 3 -8 0 -6 -7z"/>
<path d="M1152 1120 c0 -14 2 -19 5 -12 2 6 2 18 0 25 -3 6 -5 1 -5 -13z"/>
<path d="M82 1100 c0 -14 2 -19 5 -12 2 6 2 18 0 25 -3 6 -5 1 -5 -13z"/>
<path d="M2924 1095 c-3 -8 -4 -20 -2 -27 3 -7 7 -1 10 15 6 29 1 36 -8 12z"/>
<path d="M1122 1072 c-11 -25 -11 -25 4 -10 9 9 15 21 13 27 -2 6 -10 -2 -17 -17z"/>
<path d="M490 1074 c0 -10 58 -74 67 -74 4 0 -9 17 -28 37 -18 21 -35 40 -36 42 -2 2 -3 0 -3 -5z"/>
<path d="M1065 1069 c-4 -6 -5 -12 -2 -15 2 -3 7 2 10 11 7 17 1 20 -8 4z"/>
<path d="M420 1061 c0 -6 4 -13 10 -16 6 -3 7 1 4 9 -7 18 -14 21 -14 7z"/>
<path d="M1419 1053 c-13 -16 -12 -17 4 -4 16 13 21 21 13 21 -2 0 -10 -8 -17 -17z"/>
<path d="M100 1041 c0 -11 4 -22 9 -25 4 -3 6 6 3 19 -5 30 -12 33 -12 6z"/>
<path d="M1014 998 l-19 -23 23 19 c21 18 27 26 19 26 -2 0 -12 -10 -23 -22z"/>
<path d="M1543 940 c0 -47 2 -66 4 -42 2 23 2 61 0 85 -2 23 -4 4 -4 -43z"/>
<path d="M120 990 c1 -8 7 -24 15 -34 19 -25 19 -16 0 20 -8 16 -15 22 -15 14z"/>
<path d="M835 970 c10 -11 20 -20 23 -20 3 0 -3 9 -13 20 -10 11 -20 20 -23 20 -3 0 3 -9 13 -20z"/>
<path d="M3003 953 c-18 -38 -16 -54 2 -19 9 16 14 33 13 37 -2 5 -9 -4 -15 -18z"/>
<path d="M286 927 c3 -10 9 -15 12 -12 3 3 0 11 -7 18 -10 9 -11 8 -5 -6z"/>
<path d="M610 930 c-12 -7 -10 -9 7 -7 12 0 19 5 17 9 -6 10 -6 10 -24 -2z"/>
<path d="M902 893 c23 -24 46 -43 50 -43 5 0 -7 14 -27 31 -20 18 -34 37 -32 43 3 7 -4 12 -14 12 -15 0 -10 -9 23 -43z"/>
<path d="M1315 919 c-4 -6 -5 -12 -2 -15 2 -3 7 2 10 11 7 17 1 20 -8 4z"/>
<path d="M161 904 c0 -11 3 -14 6 -6 3 7 2 16 -1 19 -3 4 -6 -2 -5 -13z"/>
<path d="M940 916 c0 -2 7 -6 15 -10 8 -3 15 -1 15 4 0 6 -7 10 -15 10 -8 0 -15 -2 -15 -4z"/>
<path d="M986 893 c-6 -14 -5 -15 5 -6 7 7 10 15 7 18 -3 3 -9 -2 -12 -12z"/>
<path d="M1229 883 c-13 -16 -12 -17 4 -4 9 7 17 15 17 17 0 8 -8 3 -21 -13z"/>
<path d="M2955 857 c-30 -66 -35 -77 -30 -77 6 0 58 110 53 115 -2 2 -12 -15 -23 -38z"/>
<path d="M690 849 c-13 -9 -13 -10 1 -6 9 3 23 0 30 -6 11 -10 11 -9 0 6 -7 9 -14 17 -15 17 0 0 -8 -5 -16 -11z"/>
<path d="M2803 845 c-3 -9 -3 -18 -1 -21 3 -3 8 4 11 16 6 23 -1 27 -10 5z"/>
<path d="M200 834 c0 -12 29 -74 35 -74 5 0 -5 27 -22 60 -7 14 -13 20 -13 14z"/>
<path d="M1260 830 c-9 -6 -10 -10 -3 -10 6 0 15 5 18 10 8 12 4 12 -15 0z"/>
<path d="M1542 820 c0 -14 2 -19 5 -12 2 6 2 18 0 25 -3 6 -5 1 -5 -13z"/>
<path d="M720 810 c0 -5 5 -10 10 -10 6 0 10 5 10 10 0 6 -4 10 -10 10 -5 0 -10 -4 -10 -10z"/>
<path d="M1119 763 l-34 -37 32 25 c26 20 50 49 40 49 -2 0 -19 -17 -38 -37z"/>
<path d="M1214 774 c-18 -14 -18 -15 4 -4 12 6 22 13 22 15 0 8 -5 6 -26 -11z"/>
<path d="M760 770 c0 -5 5 -10 10 -10 6 0 10 5 10 10 0 6 -4 10 -10 10 -5 0 -10 -4 -10 -10z"/>
<path d="M1542 760 c0 -14 2 -19 5 -12 2 6 2 18 0 25 -3 6 -5 1 -5 -13z"/>
<path d="M790 766 c0 -2 8 -10 18 -17 15 -13 16 -12 3 4 -13 16 -21 21 -21 13z"/>
<path d="M1542 700 c0 -14 2 -19 5 -12 2 6 2 18 0 25 -3 6 -5 1 -5 -13z"/>
<path d="M2867 701 c-4 -17 -3 -21 5 -13 5 5 8 16 6 23 -3 8 -7 3 -11 -10z"/>
<path d="M855 701 c-3 -6 3 -14 12 -20 15 -9 13 -10 -13 -11 -32 0 -64 -26 -64 -51 0 -8 6 -3 13 11 14 28 68 42 128 33 22 -3 39 -1 43 6 4 6 16 11 27 11 11 0 27 7 35 15 9 8 11 15 5 15 -5 0 -13 -5 -17 -11 -4 -7 -25 -9 -55 -7 -27 3 -46 2 -44 -3 3 -4 -4 -5 -15 -2 -11 3 -23 9 -26 14 -7 12 -21 11 -29 0z"/>
<path d="M1073 690 c-28 -11 -29 -16 -3 -16 11 0 22 6 24 13 3 7 4 13 3 12 -1 0 -12 -4 -24 -9z"/>
<path d="M734 658 l-19 -23 23 19 c21 18 27 26 19 26 -2 0 -12 -10 -23 -22z"/>
<path d="M1166 647 c3 -10 9 -15 12 -12 3 3 0 11 -7 18 -10 9 -11 8 -5 -6z"/>
<path d="M470 646 c0 -2 8 -10 18 -17 15 -13 16 -12 3 4 -13 16 -21 21 -21 13z"/>
<path d="M918 643 c17 -2 47 -2 65 0 17 2 3 4 -33 4 -36 0 -50 -2 -32 -4z"/>
<path d="M1122 620 c0 -14 2 -19 5 -12 2 6 2 18 0 25 -3 6 -5 1 -5 -13z"/>
<path d="M2595 568 l-70 -73 73 70 c67 64 77 75 69 75 -1 0 -34 -33 -72 -72z"/>
<path d="M1191 563 c0 -18 -5 -33 -11 -33 -5 0 -10 -5 -10 -12 0 -8 5 -7 16 4 10 9 14 26 11 44 -4 29 -4 29 -6 -3z"/>
<path d="M791 558 c-1 -9 10 -25 24 -36 14 -11 25 -25 25 -32 0 -6 5 -8 10 -5 6 4 8 11 5 16 -9 13 9 11 25 -3 12 -11 12 -10 1 5 -8 10 -19 16 -25 14 -17 -7 -46 12 -56 36 -6 16 -9 18 -9 5z"/>
<path d="M1086 525 c-11 -8 -15 -15 -9 -15 6 0 16 7 23 15 16 19 11 19 -14 0z"/>
<path d="M2714 498 l-19 -23 23 19 c12 11 22 21 22 23 0 8 -8 2 -26 -19z"/>
<path d="M987 501 c-62 -6 -90 -21 -51 -29 10 -3 14 0 10 7 -5 7 10 11 48 11 30 0 58 5 61 10 3 6 5 9 3 8 -2 -1 -33 -4 -71 -7z"/>
<path d="M610 496 c0 -2 12 -12 28 -21 l27 -18 -19 21 c-17 20 -36 29 -36 18z"/>
<path d="M2484 468 l-29 -33 33 29 c30 28 37 36 29 36 -2 0 -16 -15 -33 -32z"/>
<path d="M1013 423 c9 -2 23 -2 30 0 6 3 -1 5 -18 5 -16 0 -22 -2 -12 -5z"/>
<path d="M2399 403 c-13 -16 -12 -17 4 -4 16 13 21 21 13 21 -2 0 -10 -8 -17 -17z"/>
<path d="M958 403 c7 -3 16 -2 19 1 4 3 -2 6 -13 5 -11 0 -14 -3 -6 -6z"/>
<path d="M2594 378 l-19 -23 23 19 c12 11 22 21 22 23 0 8 -8 2 -26 -19z"/>
<path d="M2349 369 l-24 -20 28 17 c15 9 27 18 27 20 0 8 -8 4 -31 -17z"/>
<path d="M1542 340 c0 -14 2 -19 5 -12 2 6 2 18 0 25 -3 6 -5 1 -5 -13z"/>
<path d="M607 329 c7 -7 15 -10 18 -7 3 3 -2 9 -12 12 -14 6 -15 5 -6 -5z"/>
<path d="M2280 330 c-9 -6 -10 -10 -3 -10 6 0 15 5 18 10 8 12 4 12 -15 0z"/>
<path d="M2216 288 c3 -4 9 -8 15 -8 5 0 9 4 9 8 0 5 -7 9 -15 9 -8 0 -12 -4 -9 -9z"/>
<path d="M2480 290 c-9 -6 -10 -10 -3 -10 6 0 15 5 18 10 8 12 4 12 -15 0z"/>
<path d="M2180 280 c-13 -8 -12 -10 3 -10 9 0 17 5 17 10 0 12 -1 12 -20 0z"/>
<path d="M1542 260 c0 -14 2 -19 5 -12 2 6 2 18 0 25 -3 6 -5 1 -5 -13z"/>
<path d="M2415 250 c-16 -7 -17 -9 -3 -9 9 -1 20 4 23 9 7 11 7 11 -20 0z"/>
<path d="M2068 233 c6 -2 18 -2 25 0 6 3 1 5 -13 5 -14 0 -19 -2 -12 -5z"/>
<path d="M2360 210 c-9 -6 -10 -10 -3 -10 6 0 15 5 18 10 8 12 4 12 -15 0z"/>
<path d="M1969 193 c-13 -16 -12 -17 4 -4 16 13 21 21 13 21 -2 0 -10 -8 -17 -17z"/>
<path d="M2308 183 c7 -3 16 -2 19 1 4 3 -2 6 -13 5 -11 0 -14 -3 -6 -6z"/>
<path d="M1210 170 c20 -13 33 -13 25 0 -3 6 -14 10 -23 10 -15 0 -15 -2 -2 -10z"/>
<path d="M1865 170 c-3 -5 -16 -10 -29 -10 -12 0 -26 -4 -31 -9 -6 -5 -28 -11 -50 -14 l-40 -4 42 -1 c23 -1 45 3 48 8 3 6 16 10 28 10 12 0 31 7 41 15 11 8 15 15 9 15 -7 0 -15 -4 -18 -10z"/>
<path d="M898 148 c6 -6 18 -8 28 -6 14 3 12 5 -9 10 -19 3 -25 2 -19 -4z"/>
<path d="M1290 156 c0 -2 7 -7 16 -10 8 -3 12 -2 9 4 -6 10 -25 14 -25 6z"/>
<path d="M2195 130 c-16 -10 -41 -19 -55 -20 -19 -2 -21 -3 -6 -7 15 -4 106 33 106 44 0 7 -16 1 -45 -17z"/>
<path d="M1488 113 c7 -3 16 -2 19 1 4 3 -2 6 -13 5 -11 0 -14 -3 -6 -6z"/>
<path d="M1014 95 c15 -8 37 -15 47 -15 10 0 21 -4 24 -10 3 -5 18 -9 33 -9 27 2 27 2 2 6 -14 3 -29 9 -34 14 -6 5 -20 9 -32 9 -13 0 -26 5 -29 10 -3 6 -14 10 -23 10 -11 0 -6 -6 12 -15z"/>
<path d="M2050 70 c-9 -6 -10 -10 -3 -10 6 0 15 5 18 10 8 12 4 12 -15 0z"/>
<path d="M2008 63 c7 -3 16 -2 19 1 4 3 -2 6 -13 5 -11 0 -14 -3 -6 -6z"/>
<path d="M1173 43 c9 -2 25 -2 35 0 9 3 1 5 -18 5 -19 0 -27 -2 -17 -5z"/>
<path d="M1938 43 c6 -2 18 -2 25 0 6 3 1 5 -13 5 -14 0 -19 -2 -12 -5z"/>
<path d="M1239 27 c5 -5 28 -7 52 -5 l44 3 -52 5 c-29 3 -48 1 -44 -3z"/>
<path d="M1813 23 c-7 -2 -13 -9 -13 -15 0 -7 4 -7 13 0 7 6 33 12 57 15 l45 4 -45 0 c-25 1 -51 -1 -57 -4z"/>
</g>
</g>
  <g id="id7:id7" transform="matrix(1.25,0,0,1.25,0.0,0.0)"><g transform="translate(0.000000,153.600000) scale(0.040000,-0.040000)" fill="#0b0308" stroke="none">
<path d="M0 2711 c0 -710 4 -1139 10 -1155 6 -17 6 -26 0 -26 -14 0 -13 -43 1 -57 6 -6 15 -51 20 -100 11 -115 19 -162 30 -169 5 -3 9 -15 9 -26 0 -23 17 -81 31 -110 5 -10 9 -23 9 -28 0 -6 9 -29 20 -52 11 -22 17 -45 14 -49 -3 -5 2 -12 10 -15 9 -3 16 -15 16 -25 0 -10 5 -19 11 -19 6 0 9 -7 5 -15 -3 -8 1 -18 7 -22 7 -5 21 -26 31 -48 10 -22 32 -59 47 -83 16 -24 29 -46 29 -51 0 -4 13 -20 30 -36 16 -16 30 -34 30 -40 0 -12 228 -236 280 -274 56 -42 101 -71 109 -71 4 0 16 -9 25 -19 10 -11 24 -17 32 -14 8 3 14 0 14 -6 0 -11 80 -51 103 -51 8 0 17 -7 21 -15 3 -8 12 -12 21 -9 8 3 15 1 15 -5 0 -6 9 -11 19 -11 11 0 23 -4 26 -10 3 -5 17 -10 30 -10 13 0 27 -4 30 -10 3 -5 17 -10 30 -10 13 0 26 -4 29 -9 3 -5 23 -11 43 -15 21 -3 65 -9 97 -14 33 -5 62 -14 64 -20 3 -9 64 -12 224 -12 182 0 222 3 234 15 10 9 34 15 64 15 27 0 52 5 56 11 3 6 19 9 35 5 20 -4 31 -1 37 11 5 8 15 13 23 11 8 -3 27 1 42 9 15 8 32 11 37 8 6 -4 13 1 16 9 3 9 15 16 25 16 10 0 35 9 54 20 20 11 41 18 46 15 5 -4 12 1 15 10 4 9 13 14 21 11 7 -3 16 1 19 9 4 8 12 15 19 15 19 0 85 40 85 51 0 5 6 9 13 9 16 0 77 42 169 119 105 86 287 301 288 339 0 6 5 12 10 12 6 0 29 39 52 88 23 48 46 89 50 90 4 2 8 9 8 16 0 7 9 31 20 54 11 22 20 48 20 56 0 8 4 18 10 21 6 3 10 15 10 26 0 10 4 27 9 37 14 28 31 87 31 108 0 11 4 24 9 30 12 12 19 74 33 272 6 89 15 162 19 162 5 0 9 476 9 1080 l0 1080 -1580 0 -1580 0 0 -1129z m1380 1039 c0 -5 -5 -10 -11 -10 -5 0 -7 5 -4 10 3 6 8 10 11 10 2 0 4 -4 4 -10z m1645 -760 l0 -715 -189 -3 c-189 -2 -225 3 -198 30 15 15 16 80 1 95 -6 6 -18 9 -27 5 -11 -4 -14 -1 -9 12 4 10 3 15 -3 11 -5 -3 -19 -1 -30 5 -18 10 -20 20 -20 113 1 99 2 103 30 135 16 17 35 32 40 32 6 0 24 7 40 15 27 14 30 14 30 0 0 -8 6 -15 13 -15 29 0 96 -108 81 -131 -8 -14 3 -11 37 10 17 10 40 34 51 52 42 69 58 100 58 114 0 9 4 23 9 33 29 58 44 202 21 202 -5 0 -10 9 -10 20 0 14 -5 18 -17 13 -12 -5 -15 -2 -10 10 4 12 2 14 -10 10 -13 -5 -15 -2 -10 11 4 10 3 15 -3 11 -14 -8 -61 37 -55 53 4 11 -2 12 -27 6 -29 -6 -31 -5 -19 10 12 15 7 16 -56 16 -38 0 -91 -6 -116 -14 -54 -16 -65 -8 -40 31 27 42 43 111 27 123 -6 6 -10 20 -7 30 4 14 0 20 -12 20 -11 0 -15 5 -12 14 4 11 1 13 -10 9 -12 -5 -15 -2 -10 9 7 19 -32 58 -52 50 -10 -3 -12 0 -8 12 4 10 3 15 -4 11 -5 -4 -19 5 -29 18 -14 17 -26 23 -40 20 -11 -3 -20 0 -20 6 0 6 -7 11 -16 11 -11 0 -14 5 -10 16 4 11 2 15 -8 11 -9 -4 -21 4 -30 19 -9 13 -23 24 -31 24 -8 0 -15 7 -15 16 0 8 -5 12 -11 8 -8 -4 -8 -9 0 -17 15 -15 14 -27 -3 -21 -7 3 -22 -5 -32 -18 -20 -24 -101 -92 -119 -99 -52 -21 -120 -79 -141 -121 -25 -49 -32 -98 -13 -98 6 0 9 -14 7 -32 -3 -32 -5 -33 -56 -39 -29 -4 -58 -11 -65 -16 -6 -5 -30 -15 -52 -21 -23 -6 -54 -25 -69 -41 -25 -26 -27 -33 -16 -46 7 -8 10 -18 6 -22 -3 -3 -6 -1 -6 5 0 7 -3 12 -7 12 -12 0 -33 -51 -33 -76 0 -13 -4 -26 -10 -29 -5 -3 -10 -30 -10 -60 0 -30 5 -57 10 -60 6 -3 10 -19 10 -36 0 -16 5 -29 10 -29 6 0 10 -9 10 -19 0 -10 12 -32 28 -49 15 -16 34 -43 42 -58 9 -16 23 -30 33 -32 13 -3 17 4 17 31 0 25 9 44 33 70 29 31 38 35 95 39 34 2 57 1 50 -3 -10 -7 -10 -11 0 -21 9 -9 12 -9 12 0 0 7 5 12 11 12 6 0 8 -7 5 -16 -4 -9 -2 -22 4 -28 11 -14 16 -208 6 -225 -4 -6 -16 -11 -27 -11 -10 0 -19 -4 -19 -10 0 -5 -6 -10 -14 -10 -24 0 -41 -32 -41 -79 l0 -46 -168 -3 -167 -2 -1 677 c-1 692 -1 742 8 756 2 4 320 6 706 5 l702 -3 0 -715z m-1485 692 c0 -10 2 -21 5 -24 3 -3 5 -493 4 -1089 0 -596 0 -1371 1 -1721 1 -350 -2 -657 -5 -682 -6 -36 -11 -45 -32 -51 -15 -3 -34 0 -47 9 -13 8 -54 16 -92 19 -99 7 -195 30 -284 69 -14 6 -34 14 -45 18 -11 4 -60 27 -110 51 -246 117 -452 310 -599 559 -32 55 -96 189 -96 202 0 5 -6 16 -14 23 -8 8 -17 37 -21 65 -4 27 -10 50 -15 50 -4 0 -10 15 -13 33 -4 17 -11 57 -17 87 -35 177 -39 325 -39 1368 l-1 1032 710 0 c682 0 710 -1 710 -18z m740 -291 c0 -50 5 -93 10 -96 6 -3 10 -18 10 -32 0 -15 3 -24 6 -20 3 3 5 57 5 120 -1 110 -1 115 18 110 11 -3 27 -14 37 -24 9 -10 25 -19 34 -19 10 0 20 -7 24 -15 3 -8 11 -15 19 -15 7 0 34 -22 61 -49 62 -63 70 -105 32 -184 -14 -31 -31 -59 -37 -62 -11 -7 -33 -55 -31 -67 1 -3 -5 -12 -13 -18 -8 -7 -15 -19 -15 -26 0 -8 -4 -23 -10 -34 -5 -11 -14 -29 -20 -39 -16 -34 -30 -224 -26 -354 l5 -127 -33 0 -33 0 -7 338 c-4 185 -11 353 -15 372 -9 35 -9 35 -11 -15 -3 -60 -9 -461 -10 -597 l0 -98 -35 0 c-21 0 -35 5 -36 13 -3 58 1 207 7 225 4 13 2 22 -5 22 -6 0 -11 18 -11 43 0 59 -18 161 -38 221 -22 65 -90 187 -114 204 -10 7 -18 20 -18 28 0 18 -25 46 -34 37 -14 -14 -4 30 16 72 22 45 38 58 38 30 0 -24 14 -18 48 21 17 19 36 33 41 30 5 -4 18 4 28 18 10 13 28 26 40 30 11 4 28 15 38 26 10 11 22 20 27 20 4 0 8 -40 8 -89z m-205 -21 c-3 -5 -10 -10 -16 -10 -5 0 -9 5 -9 10 0 6 7 10 16 10 8 0 12 -4 9 -10z m-275 -284 c0 -2 -8 -10 -17 -17 -16 -13 -17 -12 -4 4 13 16 21 21 21 13z m198 -25 c69 -28 122 -70 122 -98 0 -7 7 -16 15 -19 8 -3 14 -18 14 -32 0 -25 6 -62 28 -167 4 -22 7 -100 5 -172 l-4 -133 -39 0 -39 0 -2 83 c-1 45 -2 93 -2 107 0 14 -2 27 -5 30 -11 9 -31 49 -32 62 0 22 -53 56 -89 59 -43 3 -120 -35 -127 -62 -3 -10 -10 -19 -15 -19 -5 0 -6 -9 -3 -20 9 -28 -8 -25 -41 8 -53 53 -90 103 -65 87 5 -3 12 -1 16 5 3 6 0 13 -8 15 -10 4 -13 23 -10 72 1 36 7 71 11 77 5 6 15 28 21 49 7 21 19 37 28 37 8 0 26 9 40 19 13 11 30 18 37 15 7 -3 19 2 26 11 18 21 38 19 118 -14z m737 16 c67 -16 129 -60 155 -108 24 -48 29 -163 6 -172 -7 -3 -16 -20 -19 -39 -6 -39 -47 -108 -62 -104 -5 1 -11 11 -13 22 -2 10 -23 34 -48 53 -37 28 -53 34 -101 35 -48 1 -60 -2 -82 -24 -39 -39 -71 -91 -71 -116 0 -12 -4 -25 -8 -28 -5 -3 -10 -40 -10 -83 -2 -80 -12 -107 -34 -85 -7 7 -19 12 -28 12 -14 0 -16 22 -14 192 2 166 6 201 25 260 12 37 26 68 31 68 5 0 14 13 19 29 7 20 23 35 47 45 20 9 44 20 52 25 12 7 71 24 100 29 3 1 28 -4 55 -11z m330 -16 c3 -5 1 -12 -5 -16 -5 -3 -10 1 -10 9 0 18 6 21 15 7z m17 -103 c-7 -7 -12 -8 -12 -2 0 6 3 14 7 17 3 4 9 5 12 2 2 -3 -1 -11 -7 -17z m-12 -32 c0 -8 -4 -18 -10 -21 -5 -3 -10 3 -10 14 0 12 5 21 10 21 6 0 10 -6 10 -14z m-1085 -186 c4 -6 -7 -10 -25 -10 -18 0 -29 4 -25 10 3 6 15 10 25 10 10 0 22 -4 25 -10z m1080 -90 c3 -5 1 -10 -4 -10 -6 0 -11 5 -11 10 0 6 2 10 4 10 3 0 8 -4 11 -10z m11 -85 c17 -16 14 -18 -10 -9 -9 3 -16 10 -16 15 0 13 9 11 26 -6z m-1086 -195 c0 -5 -5 -10 -11 -10 -5 0 -7 5 -4 10 3 6 8 10 11 10 2 0 4 -4 4 -10z m591 -8 c9 2 15 -9 17 -30 6 -62 8 -62 -294 -62 -183 0 -280 4 -292 11 -13 8 -17 20 -14 44 5 43 26 47 207 40 77 -3 185 -2 240 2 55 5 105 5 111 1 7 -5 18 -7 25 -6z m-240 -162 l689 0 0 -334 c0 -184 -3 -341 -6 -350 -6 -14 -77 -16 -704 -16 -466 0 -701 3 -705 10 -9 14 -8 677 0 691 4 6 14 8 22 5 8 -3 325 -6 704 -6z m616 -746 c-3 -3 -12 -4 -19 -1 -8 3 -5 6 6 6 11 1 17 -2 13 -5z m50 -39 c9 -25 -17 -150 -59 -280 -23 -73 -138 -307 -155 -318 -7 -4 -13 -14 -13 -21 0 -7 -9 -21 -20 -31 -11 -10 -20 -22 -20 -28 0 -33 -223 -257 -327 -328 -103 -71 -113 -77 -145 -90 -16 -6 -28 -18 -28 -26 0 -10 -6 -12 -20 -8 -11 4 -20 2 -20 -4 0 -6 -11 -11 -24 -11 -13 0 -26 -6 -29 -14 -4 -9 -14 -12 -26 -9 -12 3 -21 1 -21 -6 0 -6 -11 -11 -24 -11 -14 0 -28 -4 -31 -10 -3 -5 -17 -10 -29 -10 -13 0 -29 -6 -35 -14 -6 -7 -22 -11 -36 -8 -15 2 -25 0 -25 -7 0 -6 -11 -11 -24 -11 -14 0 -28 -4 -31 -10 -3 -5 -17 -10 -30 -10 -13 0 -27 -5 -30 -11 -4 -6 -26 -9 -50 -8 -24 2 -50 -3 -58 -10 -9 -7 -31 -11 -49 -9 l-33 3 -3 644 c-1 467 1 648 9 657 9 12 131 14 696 14 608 0 684 -2 690 -15z m38 -14 c3 -5 1 -12 -5 -16 -5 -3 -10 1 -10 9 0 18 6 21 15 7z m0 -50 c3 -5 1 -12 -5 -16 -5 -3 -10 1 -10 9 0 18 6 21 15 7z m-35 -141 c0 -5 -4 -10 -10 -10 -5 0 -10 5 -10 10 0 6 5 10 10 10 6 0 10 -4 10 -10z"/>
<path d="M205 3548 c-3 -7 -4 -128 -3 -268 l3 -255 105 0 105 0 0 75 0 75 38 6 c21 3 40 2 43 -3 3 -5 7 -41 9 -81 l4 -72 55 -3 c59 -3 69 -13 60 -61 -6 -27 -8 -28 -50 -23 -63 7 -74 -6 -74 -89 l0 -69 -40 0 c-45 0 -43 -3 -44 90 l-1 65 -105 0 -105 0 0 -255 0 -255 235 0 235 0 3 87 3 86 47 4 c26 3 50 2 54 -1 4 -3 8 -118 9 -255 1 -279 4 -268 -70 -280 -68 -11 -83 -31 -85 -115 -1 -61 2 -75 18 -87 19 -13 19 -14 1 -34 -14 -16 -19 -37 -19 -90 -1 -59 -3 -69 -17 -65 -9 3 -22 -1 -29 -10 -7 -8 -18 -15 -25 -15 -7 0 -23 -9 -36 -19 -18 -15 -21 -22 -12 -31 9 -10 18 -9 42 1 17 8 31 17 31 21 0 5 9 8 19 8 11 0 23 5 26 10 9 14 225 13 225 -1 0 -7 11 -9 28 -5 15 3 21 3 14 0 -23 -10 -13 -26 13 -20 14 4 25 2 25 -4 0 -5 -5 -10 -12 -10 -8 0 -6 -7 5 -17 11 -12 20 -14 25 -8 4 6 20 16 36 23 22 10 26 15 17 26 -10 12 -5 13 29 9 26 -4 40 -2 40 6 0 14 182 15 210 1 11 -5 29 -14 40 -20 10 -5 27 -7 37 -4 15 5 15 4 3 -5 -12 -8 -12 -13 -2 -23 10 -10 15 -10 23 2 9 13 10 12 5 -3 -3 -10 5 -29 23 -50 15 -17 32 -45 36 -62 14 -57 17 -179 5 -220 -15 -48 -47 -124 -61 -145 -5 -8 -15 -27 -22 -42 -6 -16 -15 -28 -19 -28 -4 0 -13 -11 -20 -24 -15 -28 -61 -86 -136 -171 -80 -90 -103 -112 -139 -132 -18 -10 -33 -21 -33 -25 0 -5 -11 -8 -24 -8 -14 0 -28 -5 -32 -11 -15 -26 -150 20 -140 48 6 14 -43 49 -63 44 -8 -1 -12 3 -8 12 7 19 -11 37 -31 29 -11 -4 -14 -1 -10 10 8 20 -10 38 -31 31 -14 -4 -14 -3 -1 6 13 10 9 17 -22 46 -25 23 -43 33 -55 29 -15 -5 -16 -4 -3 5 13 10 9 17 -25 47 -75 66 -95 89 -90 102 2 7 -2 15 -10 18 -8 4 -15 13 -15 21 0 9 -6 13 -14 10 -10 -4 -13 -1 -10 7 3 8 1 17 -5 21 -6 3 -11 15 -11 25 0 10 -5 20 -11 22 -15 5 -14 231 1 236 5 2 10 10 10 18 0 8 7 22 15 32 39 44 75 90 75 95 0 3 -7 8 -17 11 -18 7 -63 -29 -63 -50 0 -7 -9 -18 -20 -24 -11 -6 -23 -23 -27 -38 -3 -15 -13 -32 -21 -38 -11 -8 -15 -37 -15 -120 -2 -94 1 -116 21 -156 12 -26 22 -56 22 -67 0 -11 6 -24 13 -28 12 -8 39 -44 62 -83 6 -9 72 -78 148 -153 75 -75 137 -143 137 -150 0 -8 -9 -22 -20 -32 -29 -26 -29 -134 -1 -142 11 -3 21 -13 24 -24 3 -10 12 -19 21 -19 9 0 16 -4 16 -10 0 -14 68 -43 86 -36 9 4 23 1 30 -5 21 -17 74 -17 83 -1 6 11 18 13 39 9 20 -4 34 -1 42 8 7 8 16 15 20 15 14 0 70 54 70 67 0 7 4 13 9 13 5 0 11 17 13 37 4 29 -2 47 -25 80 -32 49 -33 47 36 114 20 20 37 42 37 47 0 6 9 16 20 22 11 6 20 16 20 23 0 7 9 18 20 25 11 6 17 18 14 25 -3 8 6 21 20 31 15 9 26 23 26 31 0 9 9 23 20 32 11 10 20 22 20 29 0 6 9 19 20 29 11 10 20 25 20 32 0 8 9 26 19 39 12 15 22 49 26 82 3 31 10 66 15 77 26 61 15 153 -27 240 -34 71 -101 138 -130 130 -16 -4 -23 -1 -23 10 0 12 -9 13 -47 8 l-48 -6 26 24 c31 28 34 86 6 117 -22 25 -22 45 3 67 26 23 27 91 3 134 -19 32 -73 66 -108 66 -20 0 -20 8 -23 340 -2 205 -7 341 -12 343 -13 5 -13 62 0 62 15 0 14 627 -2 632 -7 3 -8 9 -3 19 5 7 10 31 11 52 l2 39 -151 -3 c-84 -2 -160 -5 -169 -7 -15 -4 -18 -17 -18 -91 0 -125 -2 -128 -60 -127 l-49 1 -3 110 -3 110 -233 3 c-186 3 -233 1 -237 -10z m95 -18 c0 -5 -4 -10 -10 -10 -5 0 -10 5 -10 10 0 6 5 10 10 10 6 0 10 -4 10 -10z m613 3 c-7 -2 -19 -2 -25 0 -7 3 -2 5 12 5 14 0 19 -2 13 -5z m104 1 c-3 -3 -12 -4 -19 -1 -8 3 -5 6 6 6 11 1 17 -2 13 -5z m-385 -124 l-4 -120 77 0 c62 0 76 3 72 14 -3 8 2 16 14 19 15 4 19 0 19 -20 0 -13 -4 -21 -10 -18 -6 4 -11 -106 -12 -312 l-3 -318 -80 -5 -80 -5 0 -85 0 -85 -185 0 -185 0 0 205 0 205 55 0 55 0 1 -78 2 -79 92 0 92 0 2 79 1 78 58 0 57 0 0 92 0 92 -57 3 -58 3 -3 78 -3 77 -84 0 c-47 0 -88 0 -91 0 -4 0 -7 -35 -8 -78 l-1 -77 -55 0 -55 0 -3 209 c-1 115 1 213 6 218 5 5 88 9 185 9 109 0 175 4 172 10 -4 5 0 9 7 9 10 0 12 -26 10 -120z m469 101 c-8 -5 -12 -215 -13 -722 l-3 -714 -125 0 -125 0 0 715 0 715 128 3 c78 2 127 7 127 13 0 6 5 7 11 3 8 -5 8 -8 0 -13z m16 -178 c-2 -16 -4 -3 -4 27 0 30 2 43 4 28 2 -16 2 -40 0 -55z m-365 -25 c-9 -9 -15 -9 -24 0 -9 9 -7 12 12 12 19 0 21 -3 12 -12z m-332 -97 c0 -5 -7 -11 -15 -15 -15 -5 -20 5 -8 17 9 10 23 9 23 -2z m697 -223 c-2 -24 -4 -5 -4 42 0 47 2 66 4 43 2 -24 2 -62 0 -85z m0 -125 c-3 -10 -5 -2 -5 17 0 19 2 27 5 18 2 -10 2 -26 0 -35z m107 -876 c10 -55 2 -97 -19 -97 -22 0 -28 -19 -10 -36 9 -9 13 -19 10 -23 -4 -3 -13 2 -20 12 -7 10 -17 17 -21 16 -5 -1 -16 1 -24 4 -8 3 -103 8 -211 9 -167 3 -198 5 -212 20 -9 9 -17 21 -17 26 0 6 -5 12 -11 14 -19 6 0 65 26 82 19 13 65 16 242 19 120 1 227 3 238 2 16 0 22 -10 29 -48z m-52 -161 c53 -29 70 -58 56 -97 -18 -53 -22 -54 -282 -54 l-240 0 -15 26 c-10 18 -12 39 -7 72 11 71 24 75 253 76 185 1 194 0 235 -23z m-202 -190 c0 -3 -4 -8 -10 -11 -5 -3 -10 -1 -10 4 0 6 5 11 10 11 6 0 10 -2 10 -4z m124 -951 c-4 -9 2 -23 13 -33 11 -9 23 -31 26 -49 12 -60 -56 -113 -145 -113 -30 0 -47 -4 -43 -10 10 -16 -11 -12 -50 10 -39 22 -49 25 -40 11 3 -5 1 -12 -5 -16 -5 -3 -10 -1 -10 5 0 6 -12 21 -26 34 -33 28 -37 95 -9 126 19 21 75 28 75 9 0 -19 156 -7 172 12 7 9 20 19 28 22 8 3 16 6 17 6 1 1 0 -6 -3 -14z"/>
<path d="M1188 2013 c7 -3 16 -2 19 1 4 3 -2 6 -13 5 -11 0 -14 -3 -6 -6z"/>
<path d="M740 1428 c-50 -28 -79 -58 -74 -73 3 -7 1 -16 -5 -20 -14 -8 -14 -102 -1 -110 6 -3 10 -15 10 -26 0 -10 5 -19 10 -19 6 0 10 -6 10 -12 1 -36 182 -244 202 -232 7 5 8 3 3 -5 -8 -14 41 -71 62 -71 7 0 19 12 27 28 8 15 31 44 52 65 38 39 94 120 94 137 0 6 5 10 10 10 6 0 10 9 10 20 0 11 5 20 10 20 6 0 10 6 10 13 0 8 7 29 16 47 19 37 34 90 39 137 3 26 1 31 -12 26 -12 -5 -15 -2 -11 9 8 20 -10 38 -30 31 -10 -4 -13 -1 -10 8 12 36 -111 54 -148 22 -11 -10 -30 -24 -43 -31 -20 -12 -25 -11 -42 7 -12 12 -26 18 -36 14 -12 -5 -15 -2 -10 10 10 26 -96 22 -143 -5z m150 -69 c14 -8 29 -20 33 -26 12 -19 35 -16 60 10 32 31 68 46 103 40 73 -11 72 -10 79 -61 7 -54 -7 -132 -28 -147 -7 -5 -17 -22 -21 -38 -3 -15 -16 -38 -27 -50 -11 -12 -26 -29 -34 -38 -8 -9 -15 -19 -15 -23 0 -5 -17 -29 -39 -55 -21 -25 -36 -52 -34 -59 9 -25 -23 2 -85 72 -107 121 -162 189 -162 201 0 7 -6 25 -14 41 -16 32 -12 99 8 124 28 38 119 42 176 9z"/>
<path d="M2013 3284 c-12 -27 -2 -32 17 -9 8 10 10 19 4 25 -5 5 -14 -1 -21 -16z"/>
</g>
</g>
</svg>
