<?xml version="1.0" encoding="UTF-8" standalone="no"?>
<svg
   xmlns:dc="http://purl.org/dc/elements/1.1/"
   xmlns:cc="http://creativecommons.org/ns#"
   xmlns:rdf="http://www.w3.org/1999/02/22-rdf-syntax-ns#"
   xmlns:svg="http://www.w3.org/2000/svg"
   xmlns="http://www.w3.org/2000/svg"
   xmlns:sodipodi="http://sodipodi.sourceforge.net/DTD/sodipodi-0.dtd"
   xmlns:inkscape="http://www.inkscape.org/namespaces/inkscape"
   version="1.0"
   width="202.72174"
   height="237.45688"
   id="svg2780"
   sodipodi:docname="28.svg">
  <metadata
     id="metadata18">
    <rdf:RDF>
      <cc:Work
         rdf:about="">
        <dc:format>image/svg+xml</dc:format>
        <dc:type
           rdf:resource="http://purl.org/dc/dcmitype/StillImage" />
      </cc:Work>
    </rdf:RDF>
  </metadata>
  <sodipodi:namedview
     pagecolor="#ffffff"
     bordercolor="#666666"
     borderopacity="1"
     objecttolerance="10"
     gridtolerance="10"
     guidetolerance="10"
     inkscape:pageopacity="0"
     inkscape:pageshadow="2"
     inkscape:window-width="640"
     inkscape:window-height="480"
     id="namedview16" />
  <defs
     id="defs2782" />
  <g
     transform="translate(-24.399909,-813.34852)"
     id="layer1">
    <path
       d="M 25.362195,814.31081 L 29.013048,967.68069 C 31.620799,1077.2306 219.90075,1077.2306 222.5085,967.68069 L 226.15936,814.31081 L 25.362195,814.31081 z "
       style="fill:#cd3121;fill-opacity:1;fill-rule:evenodd;stroke:#000000;stroke-width:1.92457116;stroke-linecap:butt;stroke-miterlimit:4;stroke-dashoffset:0;stroke-opacity:1"
       id="path3282" />
    <path
       d="M 151.29259,997.76694 C 146.62532,998.46377 141.95072,1001.2931 142.05801,1006.73 C 142.16532,1012.1679 132.64265,1018.3678 132.73519,1011.6073 C 132.82772,1004.9716 128.22343,1011.3378 127.24078,1018.3866 C 126.26065,1025.4173 116.03927,1031.5167 116.23888,1024.8502 C 116.43849,1018.0592 113.53206,1019.3293 111.6799,1020.5716 C 109.99572,1021.7012 112.94413,1025.4388 106.90856,1031.6862 C 100.93497,1037.8695 92.704876,1038.1017 94.759356,1031.0974 C 96.891082,1023.8298 91.763728,1024.1665 87.976131,1028.032 C 84.126719,1031.9606 74.832825,1031.7416 72.591613,1026.6813 C 70.317477,1021.5467 73.470345,1017.335 77.515103,1015.6244 C 81.470318,1013.9516 84.076378,1009.7924 78.193022,1007.9661 C 72.195876,1006.1045 81.588478,995.66879 89.357531,997.47748 C 97.098158,999.27956 98.937496,997.44643 97.79147,993.68868 C 96.610618,989.81674 105.54153,985.54221 111.69033,990.12548 C 117.8732,994.73406 119.7759,994.73453 121.51143,991.20591 C 123.27193,987.62652 128.0559,988.10837 133.73901,991.53116 C 139.27546,994.86561 142.81362,994.14948 151.29259,997.76694 z "
       style="opacity:1;color:#000000;fill:#315a31;fill-opacity:1;fill-rule:evenodd;stroke:#000000;stroke-width:0.94686812px;stroke-linecap:butt;stroke-linejoin:miter;marker:none;marker-start:none;marker-mid:none;marker-end:none;stroke-miterlimit:4;stroke-dasharray:none;stroke-dashoffset:0;stroke-opacity:1;visibility:visible;display:inline;overflow:visible;enable-background:accumulate"
       id="path3233" />
    <path
       d="M 151.29259,193.43625 C 129.96984,193.70828 108.58224,203.41548 89.491819,214.62786"
       transform="translate(0,804.33069)"
       style="opacity:1;color:#000000;fill:none;fill-opacity:0.75;fill-rule:evenodd;stroke:#000000;stroke-width:1px;stroke-linecap:butt;stroke-linejoin:miter;marker:none;marker-start:none;marker-mid:none;marker-end:none;stroke-miterlimit:4;stroke-dasharray:none;stroke-dashoffset:0;stroke-opacity:1;visibility:visible;display:inline;overflow:visible;enable-background:accumulate"
       id="path3245" />
    <path
       d="M 199.67395,94.22522 C 209.60364,108.35113 225.14214,84.586361 205.90597,79.766931 C 210.93313,62.691194 188.41476,63.563677 191.44768,78.271246 C 186.50882,76.242363 182.05404,73.152555 178.11116,69.795698 C 193.44193,52.719961 191.69696,27.044035 208.89734,21.435216 C 189.22071,19.905597 185.17966,39.455045 175.68624,55.268821 C 166.15997,71.137335 150.87219,66.759104 154.55411,54.464927 C 158.22594,42.204472 149.52695,26.545473 157.29621,15.452476 C 142.92261,23.875805 147.76252,29.165411 146.45266,47.038803 C 145.1435,64.902679 122.75719,68.37792 123.51866,53.343162 C 124.28048,38.301595 112.84113,30.658607 113.1735,15.701757 C 104.05822,26.207269 112.54173,35.826184 113.49783,51.082147 C 114.4534,66.329825 96.608831,69.439635 94.103515,57.207015 C 91.607753,45.021046 73.122378,29.869217 72.291442,17.945284 C 64.655706,27.083659 77.111382,41.768048 83.411067,56.453405 C 89.684634,71.07788 75.640398,75.278915 67.181185,62.317272 C 58.778936,49.442914 36.962406,38.295257 34.151474,19.191688 C 30.342929,47.601986 61.738554,62.774059 61.697007,74.033472 C 61.65546,85.292656 32.115681,87.41154 33.154351,107.68638 C 39.884934,93.643561 50.022354,96.136372 59.079558,91.35849 C 68.188721,86.553198 71.630534,82.549951 73.262582,81.936785 C 74.78489,81.364849 79.072006,82.559848 85.752607,81.137976 C 92.552398,79.690736 94.261271,77.277354 96.057125,76.577012 C 97.744296,75.919054 101.97598,77.669806 109.30965,76.152359 C 116.61762,74.640231 120.14516,70.651188 122.09794,70.742877 C 124.42673,70.85222 127.3611,73.205287 135.85805,73.41027 C 144.47964,73.615253 144.82027,72.006438 146.60622,72.140549 C 148.2682,72.26535 149.99353,74.744223 157.54549,76.40164 C 165.24189,78.090757 167.86399,75.704481 169.25641,76.183537 C 170.6827,76.674248 172.94421,80.776077 177.51215,83.166885 C 182.13025,85.583946 186.08553,86.495814 188.45631,86.996075 C 171.00665,95.762451 195.18689,113.87686 199.67395,94.22522 z "
       transform="translate(0,804.33069)"
       style="fill:#ecda31;fill-opacity:1;fill-rule:evenodd;stroke:#000000;stroke-width:1px;stroke-linecap:butt;stroke-linejoin:miter;stroke-opacity:1"
       id="path2257" />
    <path
       d="M 164.44934,205.61502 C 168.41406,197.38661 172.89833,191.81949 180.9773,185.86995 C 189.13687,179.86105 190.66785,176.30572 184.52289,174.32343 C 178.49072,172.37752 182.57428,168.26041 191.40066,166.68632 C 200.24775,165.10855 205.41979,154.21557 197.66963,153.88291 C 189.79482,153.55025 192.70824,149.1162 204.64734,144.91462 C 216.69729,140.67403 211.3654,130.03789 206.23376,130.81316 C 201.08227,131.59143 200.33717,129.405 204.43716,126.32826 C 208.45699,123.31168 209.01663,113.99443 202.695,111.43794 C 196.15856,108.79458 189.27885,113.61421 187.90187,116.88798 C 185.00544,123.77425 182.72357,125.38231 181.26417,117.74793 C 179.76285,109.89428 168.78812,117.20107 169.47558,125.86146 C 170.17287,134.6457 171.71495,142.55734 166.85294,137.55412 C 161.93,132.4882 155.18226,143.69547 158.2549,151.07667 C 161.34564,158.50131 165.31534,165.82593 158.77485,165.25847 C 152.24392,164.69184 154.55455,174.69047 157.64423,182.45974 C 160.77666,190.33651 162.4551,196.39163 164.44934,205.61502 z "
       transform="translate(0,804.33069)"
       style="opacity:1;color:#000000;fill:#315a31;fill-opacity:1;fill-rule:evenodd;stroke:#000000;stroke-width:1px;stroke-linecap:butt;stroke-linejoin:miter;marker:none;marker-start:none;marker-mid:none;marker-end:none;stroke-miterlimit:4;stroke-dasharray:none;stroke-dashoffset:0;stroke-opacity:1;visibility:visible;display:inline;overflow:visible;enable-background:accumulate"
       id="path3229" />
    <path
       d="M 112.38569,975.85781 C 109.46665,972.32706 103.95452,966.98819 103.67412,961.23437 C 103.39395,955.48527 99.238475,949.1042 94.482292,952.80601 C 89.78588,956.4613 88.67026,950.45153 89.478705,944.14368 C 90.271432,937.95848 84.312047,930.37381 80.922519,933.33938 C 77.470502,936.35962 71.855152,937.88168 72.721353,927.70671 C 73.577018,917.65549 60.937337,914.31721 61.168584,920.38551 C 61.399831,926.57845 56.863155,926.19733 53.670821,922.29017 C 50.527791,918.44336 44.185577,915.90199 40.610744,920.1269 C 36.983386,924.41388 39.852026,931.59282 43.25181,934.37269 C 46.576346,937.09104 52.382774,945.59656 43.604733,943.10657 C 34.858653,940.62565 40.242774,956.96173 48.763342,956.32949 C 57.407864,955.68805 64.876206,959.78896 55.810695,961.82536 C 46.863797,963.83512 60.611811,974.32103 67.802028,971.65365 C 75.032054,968.97151 86.692393,970.96237 78.192006,974.2246 C 69.649235,977.50309 83.759357,982.42338 90.75679,979.25964 C 97.857863,976.04904 103.5327,975.47233 112.38569,975.85781 z "
       style="opacity:1;color:#000000;fill:#315a31;fill-opacity:1;fill-rule:evenodd;stroke:#000000;stroke-width:0.94686812px;stroke-linecap:butt;stroke-linejoin:miter;marker:none;marker-start:none;marker-mid:none;marker-end:none;stroke-miterlimit:4;stroke-dasharray:none;stroke-dashoffset:0;stroke-opacity:1;visibility:visible;display:inline;overflow:visible;enable-background:accumulate"
       id="path3231" />
    <path
       d="M 112.63497,170.77928 C 88.203921,159.66856 63.987407,143.63967 50.604009,127.13029"
       transform="translate(0,804.33069)"
       style="opacity:1;color:#000000;fill:none;fill-opacity:0.75;fill-rule:evenodd;stroke:#000000;stroke-width:1px;stroke-linecap:butt;stroke-linejoin:miter;marker:none;marker-start:none;marker-mid:none;marker-end:none;stroke-miterlimit:4;stroke-dasharray:none;stroke-dashoffset:0;stroke-opacity:1;visibility:visible;display:inline;overflow:visible;enable-background:accumulate"
       id="path3243" />
    <path
       d="M 164.52535,202.66238 C 168.69572,174.30068 178.41232,148.82239 188.45631,130.8695"
       transform="translate(0,804.33069)"
       style="opacity:1;color:#000000;fill:none;fill-opacity:0.75;fill-rule:evenodd;stroke:#000000;stroke-width:1px;stroke-linecap:butt;stroke-linejoin:miter;marker:none;marker-start:none;marker-mid:none;marker-end:none;stroke-miterlimit:4;stroke-dasharray:none;stroke-dashoffset:0;stroke-opacity:1;visibility:visible;display:inline;overflow:visible;enable-background:accumulate"
       id="path3241" />
    <path
       d="M 172.3777,228.58759 C 175.32752,227.02186 177.65414,225.92996 180.60397,223.72661 C 155.63434,171.08681 123.31092,192.48342 128.00571,150.31341 C 126.51002,150.23032 125.01434,150.14722 123.51865,150.06413 C 122.47998,159.95227 123.68484,169.71577 127.50715,175.61541 C 120.24293,171.55948 112.66124,168.77345 105.07187,166.0181 C 104.6564,167.05677 104.24094,168.09544 103.82547,169.13411 C 128.1719,181.09959 171.08975,196.92892 172.3777,228.58759 z "
       transform="translate(0,804.33069)"
       style="opacity:1;color:#000000;fill:#ecda31;fill-opacity:1;fill-rule:evenodd;stroke:#000000;stroke-width:1px;stroke-linecap:butt;stroke-linejoin:miter;marker:none;marker-start:none;marker-mid:none;marker-end:none;stroke-miterlimit:4;stroke-dasharray:none;stroke-dashoffset:0;stroke-opacity:1;visibility:visible;display:inline;overflow:visible;enable-background:accumulate"
       id="path3235" />
    <path
       d="M 110.43141,129.12453 L 140.09583,129.49846 C 147.20948,73.105953 105.35444,67.862565 110.43141,129.12453 z "
       transform="translate(0,804.33069)"
       style="opacity:1;color:#000000;fill:#ecda31;fill-opacity:1;fill-rule:evenodd;stroke:#000000;stroke-width:1px;stroke-linecap:butt;stroke-linejoin:miter;marker:none;marker-start:none;marker-mid:none;marker-end:none;stroke-miterlimit:4;stroke-dasharray:none;stroke-dashoffset:0;stroke-opacity:1;visibility:visible;display:inline;overflow:visible;enable-background:accumulate"
       id="path3239" />
    <path
       d="M 110.55605,127.13029 C 120.44419,128.27713 130.33233,128.5559 140.22047,127.37957 C 152.93379,131.82508 147.15879,153.59561 125.76218,152.68158 C 104.37053,151.76776 101.74813,134.27634 110.55605,127.13029 z "
       transform="translate(0,804.33069)"
       style="opacity:1;color:#000000;fill:#ecda31;fill-opacity:1;fill-rule:evenodd;stroke:#000000;stroke-width:1px;stroke-linecap:butt;stroke-linejoin:miter;marker:none;marker-start:none;marker-mid:none;marker-end:none;stroke-miterlimit:4;stroke-dasharray:none;stroke-dashoffset:0;stroke-opacity:1;visibility:visible;display:inline;overflow:visible;enable-background:accumulate"
       id="path3237" />
  </g>
</svg>
