<?xml version="1.0" encoding="UTF-8"?>
<svg width="525" height="612" version="1.1" viewBox="0 0 350 408" xmlns="http://www.w3.org/2000/svg" xmlns:cc="http://creativecommons.org/ns#" xmlns:dc="http://purl.org/dc/elements/1.1/" xmlns:rdf="http://www.w3.org/1999/02/22-rdf-syntax-ns#">
<metadata>
<rdf:RDF>
<cc:Work rdf:about="">
<dc:format>image/svg+xml</dc:format>
<dc:type rdf:resource="http://purl.org/dc/dcmitype/StillImage"/>
</cc:Work>
</rdf:RDF>
</metadata>
<title>Wappen von Giebenach</title>
<desc>Wappen der Schweizer Gemeinde Giebenach, Kanton Baselland</desc>
<path d="m2 2h346v231a173 173 0 0 1-346 0z" fill="#0056ad" stroke="#000" stroke-width="4"/>
<g fill="none">
<path d="m49 162 208 158-82-262-82 262 208-158" stroke="#000" stroke-width="33"/>
<path d="m49 162 208 158-82-262-82 262 208-158" stroke="#fff" stroke-width="25"/>
<path d="m207.4 233.1 93.6-71.1h-252l156 118.5" stroke="#000" stroke-width="33"/>
<path d="m197 241 104-79h-252l208 158" stroke="#fff" stroke-width="25"/>
<path d="m134 189-20.5 65.5m100.45-72.05-18.45-58.95" stroke="#000" stroke-width="33"/>
<path d="m136.05 182.45-32.8 104.8m112.75-98.25-41-131" stroke="#fff" stroke-width="25"/>
</g>
</svg>
