<?xml version="1.0" encoding="UTF-8" standalone="no"?>
<svg
   xmlns:dc="http://purl.org/dc/elements/1.1/"
   xmlns:cc="http://creativecommons.org/ns#"
   xmlns:rdf="http://www.w3.org/1999/02/22-rdf-syntax-ns#"
   xmlns:svg="http://www.w3.org/2000/svg"
   xmlns="http://www.w3.org/2000/svg"
   xmlns:sodipodi="http://sodipodi.sourceforge.net/DTD/sodipodi-0.dtd"
   xmlns:inkscape="http://www.inkscape.org/namespaces/inkscape"
   version="1.1"
   width="525"
   height="612"
   viewBox="0 0 350 408"
   id="svg25"
   sodipodi:docname="2827.svg">
  <metadata
     id="metadata29">
    <rdf:RDF>
      <cc:Work
         rdf:about="">
        <dc:format>image/svg+xml</dc:format>
        <dc:type
           rdf:resource="http://purl.org/dc/dcmitype/StillImage" />
      </cc:Work>
    </rdf:RDF>
  </metadata>
  <sodipodi:namedview
     pagecolor="#ffffff"
     bordercolor="#666666"
     borderopacity="1"
     objecttolerance="10"
     gridtolerance="10"
     guidetolerance="10"
     inkscape:pageopacity="0"
     inkscape:pageshadow="2"
     inkscape:window-width="640"
     inkscape:window-height="480"
     id="namedview27" />
  <title
     id="title2">Wappen von Hersberg</title>
  <desc
     id="desc4">Wappen der Schweizer Gemeinde Hersberg, Kanton Baselland</desc>
  <defs
     id="defs9">
    <clipPath
       id="cpSchild">
      <path
         d="M 4,4 H 346 V 233 A 171 171 0 0 1 4,233 z"
         id="path6" />
    </clipPath>
  </defs>
  <g
     stroke="black"
     stroke-width="4"
     id="g23">
    <path
       d="M 2,2 h 346 V 233 A 173 173 0 0 1 2,233 z"
       fill="white"
       id="path11" />
    <path
       d="M 2,78 H 348 V 40 H 2 V 2 H 45.25 V 78 H 88.5 V 2 H 131.75 V 78 H 175 V 2 H 218.25 V 78 H 261.5 V 2 H 304.75 V 78 M 95,350 V 192 h 25 V 157 h 20 V 126 h 21 V 93 h 28 v 33 h 21 v 31 h 20 v 35 h 25 V 350 H 195 V 282 c 0,-17 -14,-26 -20,-26 -6,0 -20,9 -20,26 v 68 M 164,215 h 22 V 173 H 164 z"
       fill="#e2001a"
       id="path13" />
    <g
       fill="#00901e"
       clip-path="url(#cpSchild)"
       id="g21">
      <circle
         cx="101"
         cy="368"
         r="43"
         id="circle15" />
      <circle
         cx="249"
         cy="368"
         r="43"
         id="circle17" />
      <ellipse
         cx="175"
         cy="372"
         rx="52"
         ry="47"
         id="ellipse19" />
    </g>
  </g>
</svg>
