<?xml version="1.0" encoding="UTF-8"?>
<svg version="1.1" viewBox="0 0 540 620" xmlns="http://www.w3.org/2000/svg" xmlns:cc="http://creativecommons.org/ns#" xmlns:dc="http://purl.org/dc/elements/1.1/" xmlns:rdf="http://www.w3.org/1999/02/22-rdf-syntax-ns#" xmlns:xlink="http://www.w3.org/1999/xlink">
<metadata>
<rdf:RDF>
<cc:Work rdf:about="">
<dc:format>image/svg+xml</dc:format>
<dc:type rdf:resource="http://purl.org/dc/dcmitype/StillImage"/>
</cc:Work>
</rdf:RDF>
</metadata>
<title>Wappen von Rothenfluh</title>
<desc>Wappen der Schweizer Gemeinde Rothenfluh, Kanton Baselland</desc>
<defs>
<clipPath id="a">
<path d="m9 9h522v341a261 261 0 0 1-522 0z"/>
</clipPath>
</defs>
<path d="m4.5 4.5h531v345.5a265.5 265.5 0 0 1-531 0z" fill="#ffd400" stroke="#000" stroke-width="9"/>
<g fill="#00901e" stroke="#000" stroke-width="4">
<g id="b">
<path d="m78 431v-87h21v87" fill="#e2001a"/>
<path d="m88 353-76 18 36-64-16 2 35-67-14 1 35-87 35 87-14-1 34 67-16-2 28 61z"/>
</g>
<use transform="matrix(-1,0,0,1,540,0)" xlink:href="#b"/>
<path d="m155 460 15-350 100-40 100 40 15 350" fill="#e2001a"/>
<path d="m230 430 5-370h70l5 370" fill="#e2001a"/>
<path d="m18 620v-114a92 92 0 1 1 184 0h136a92 92 0 1 1 184 0v114" clip-path="url(#a)"/>
<path d="m186 556a100 92 0 1 1 168 0"/>
</g>
</svg>
