<?xml version="1.0" encoding="UTF-8" standalone="no"?>
<svg
   xmlns:dc="http://purl.org/dc/elements/1.1/"
   xmlns:cc="http://creativecommons.org/ns#"
   xmlns:rdf="http://www.w3.org/1999/02/22-rdf-syntax-ns#"
   xmlns:svg="http://www.w3.org/2000/svg"
   xmlns="http://www.w3.org/2000/svg"
   xmlns:xlink="http://www.w3.org/1999/xlink"
   xmlns:sodipodi="http://sodipodi.sourceforge.net/DTD/sodipodi-0.dtd"
   xmlns:inkscape="http://www.inkscape.org/namespaces/inkscape"
   version="1.1"
   width="540"
   height="620"
   viewBox="0,0 540,620"
   id="svg30"
   sodipodi:docname="2858.svg">
  <metadata
     id="metadata34">
    <rdf:RDF>
      <cc:Work
         rdf:about="">
        <dc:format>image/svg+xml</dc:format>
        <dc:type
           rdf:resource="http://purl.org/dc/dcmitype/StillImage" />
      </cc:Work>
    </rdf:RDF>
  </metadata>
  <sodipodi:namedview
     pagecolor="#ffffff"
     bordercolor="#666666"
     borderopacity="1"
     objecttolerance="10"
     gridtolerance="10"
     guidetolerance="10"
     inkscape:pageopacity="0"
     inkscape:pageshadow="2"
     inkscape:window-width="640"
     inkscape:window-height="480"
     id="namedview32" />
  <title
     id="title2">Wappen von Rothenfluh</title>
  <desc
     id="desc4">Wappen der Schweizer Gemeinde Rothenfluh, Kanton Baselland</desc>
  <defs
     id="defs9">
    <clipPath
       id="cpSchild">
      <path
         d="M 9,9 H 531 V 350 A 261,261 0 0,1 9,350 z"
         id="path6" />
    </clipPath>
  </defs>
  <path
     d="M 4.5,4.5 h 531 V 350 A 265.5,265.5 0 0,1 4.5,350 z"
     stroke="black"
     stroke-width="9"
     fill="#ffd400"
     id="path11" />
  <g
     stroke="black"
     stroke-width="4"
     fill="#00901e"
     id="g28">
    <g
       id="baum">
      <path
         d="M 78,431 V 344 h 21 v 87"
         fill="#e2001a"
         id="path13" />
      <path
         d="M 88,353 l -76,18 36,-64 -16,2 35,-67 -14,1 35,-87 35,87 -14,-1 34,67 -16,-2 28,61 z"
         id="path15" />
    </g>
    <use
       xlink:href="#baum"
       transform="matrix(-1,0,0,1,540,0)"
       id="use18" />
    <path
       d="M 155,460 L 170,110 270,70 370,110 385,460"
       fill="#e2001a"
       id="path20" />
    <path
       d="M 230,430 L 235,60 h 70 L 310,430"
       fill="#e2001a"
       id="path22" />
    <path
       d="M 18,620 V 506 a 92,92 0 1,1 184,0 H 338 a 92,92 0 1,1 184,0 V 620"
       clip-path="url(#cpSchild)"
       id="path24" />
    <path
       d="M 186,556 a 100,92 0 1,1 168,0"
       id="path26" />
  </g>
</svg>
