<?xml version="1.0" encoding="UTF-8"?>
<svg version="1.1" viewBox="0 0 540 620" xmlns="http://www.w3.org/2000/svg" xmlns:cc="http://creativecommons.org/ns#" xmlns:dc="http://purl.org/dc/elements/1.1/" xmlns:rdf="http://www.w3.org/1999/02/22-rdf-syntax-ns#">
<metadata>
<rdf:RDF>
<cc:Work rdf:about="">
<dc:format>image/svg+xml</dc:format>
<dc:type rdf:resource="http://purl.org/dc/dcmitype/StillImage"/>
</cc:Work>
</rdf:RDF>
</metadata>
<title>Wappen von Lampenberg</title>
<desc>Wappen der Schweizer Gemeinde Lampenberg, Kanton Baselland</desc>
<path d="m4.5 4.5h531v345.5a265.5 265.5 0 0 1-531 0z" fill="#e2001a" stroke="#000" stroke-width="9"/>
<path d="m298 502c33-7 56-15 82-38 40-9 83-41 122-80-33-145-134-300-232-360-98 60-199 215-232 360 39 39 82 71 122 80 26 23 49 31 82 38m56 3v-5c36-24 58-65 58-107 0-58-37-117-86-157-49 40-86 99-86 157 0 42 22 83 58 107v5m-82-41v93c26 23 49 31 82 32v-87 25c22-11 34-11 56 0v-25 87c33-1 56-9 82-32v-93" fill="#fff" stroke="#000" stroke-width="4"/>
</svg>
