<?xml version="1.0" standalone="no"?>
<!DOCTYPE svg PUBLIC "-//W3C//DTD SVG 1.1//EN"
 "http://www.w3.org/Graphics/SVG/1.1/DTD/svg11.dtd">
<!-- Created with svg_stack (http://github.com/astraw/svg_stack) -->
<svg xmlns="http://www.w3.org/2000/svg" xmlns:sodipodi="http://sodipodi.sourceforge.net/DTD/sodipodi-0.dtd" version="1.1" width="218.0" height="253.0">
  <defs/>
  <g id="id0:id0" transform="matrix(1.25,0,0,1.25,0.0,0.0)"><g transform="translate(0.000000,202.400000) scale(0.040000,-0.040000)" fill="#fdfdfd" stroke="none">
<path d="M1330 3838 l0 -393 180 3 180 3 0 44 c0 25 4 45 10 45 5 0 26 18 46 40 28 30 47 41 79 46 l43 6 -2 80 c-1 51 3 83 11 89 6 6 35 9 65 7 53 -3 53 -3 55 -38 9 -125 14 -140 38 -140 40 0 55 -25 55 -94 0 -69 10 -86 53 -86 58 0 64 11 64 108 1 108 16 147 75 185 35 23 53 27 111 27 69 0 127 -21 127 -46 0 -6 9 -19 20 -29 17 -16 20 -31 20 -120 0 -65 4 -105 12 -113 7 -7 42 -12 88 -12 46 0 81 5 88 12 7 7 12 38 12 71 0 83 20 117 71 117 48 0 69 -30 75 -106 3 -37 6 -70 8 -71 2 -2 15 -6 30 -9 l26 -4 0 250 c0 223 -7 292 -23 230 -5 -20 -43 -40 -77 -40 -11 0 -26 13 -35 30 l-16 30 -97 0 c-53 0 -102 -4 -107 -8 -6 -4 -18 -19 -28 -34 -13 -21 -25 -28 -50 -28 -41 0 -54 9 -58 40 -4 25 -5 25 -109 25 -124 1 -140 -2 -140 -24 0 -27 -21 -41 -60 -41 -44 0 -62 12 -58 36 2 14 -5 20 -27 24 l-30 5 0 138 0 137 -362 0 -363 0 0 -392z m356 320 c13 -20 16 -176 4 -198 -10 -18 -21 -20 -140 -20 -122 0 -130 1 -144 22 -20 28 -22 178 -4 196 17 17 274 17 284 0z m318 6 c13 -5 16 -25 16 -114 l0 -108 -37 -6 c-21 -3 -85 -2 -143 2 l-105 7 -3 99 c-1 55 0 106 2 113 4 10 36 13 130 13 68 0 131 -3 140 -6z m-269 -364 c10 -17 12 -185 2 -197 -14 -19 -320 -18 -335 0 -12 14 -10 176 2 195 9 15 322 17 331 2z"/>
<path d="M1950 3576 c-3 -2 -33 -6 -68 -9 -52 -4 -68 -9 -93 -33 -21 -20 -29 -36 -27 -54 l3 -25 124 -3 c68 -1 128 1 132 5 14 14 18 91 6 101 -14 11 -71 25 -77 18z"/>
<path d="M2623 2653 l-352 -3 -3 -128 -3 -127 -40 -1 c-36 0 -41 -3 -51 -32 -14 -45 -26 -54 -70 -50 -36 3 -39 6 -44 38 l-5 35 -104 3 c-111 3 -131 -4 -131 -43 0 -24 -17 -35 -55 -35 -17 0 -30 11 -46 40 l-23 40 -97 0 -97 0 -9 -37 c-8 -37 -10 -38 -56 -41 -51 -3 -56 2 -60 53 -1 16 -8 30 -15 33 -9 3 -12 -52 -12 -243 l0 -246 26 3 c26 3 27 6 28 66 2 74 27 116 72 119 54 5 69 -18 69 -105 l0 -77 136 -3 136 -3 2 87 c2 70 7 96 27 135 13 27 30 49 38 49 8 0 27 7 42 15 37 19 64 19 125 -1 78 -26 109 -86 109 -210 l0 -74 75 0 75 0 0 64 c0 53 4 67 25 90 22 24 25 36 25 106 0 89 8 100 74 100 62 0 66 -5 66 -80 0 -38 4 -80 10 -94 8 -22 73 -66 97 -66 4 0 7 48 5 106 -2 60 1 110 7 117 11 14 319 13 333 -1 4 -4 8 -57 9 -116 1 -81 -3 -111 -13 -118 -7 -5 -82 -8 -165 -6 -139 3 -151 2 -133 -12 11 -9 23 -32 26 -52 l6 -37 164 -3 164 -3 0 371 c0 330 -2 373 -16 378 -9 3 -16 5 -17 4 -1 -2 -160 -4 -354 -5z m-16 -51 c14 -9 21 -181 9 -200 -5 -8 -50 -12 -141 -12 -112 0 -134 2 -139 16 -3 9 -6 55 -6 104 0 76 2 89 18 93 30 8 246 7 259 -1z m337 2 c24 -9 24 -199 0 -208 -23 -9 -257 -7 -271 2 -15 10 -24 157 -12 189 8 22 12 23 138 23 71 0 136 -3 145 -6z"/>
<path d="M1 1033 l-1 -1033 1003 1 c551 1 968 5 927 10 -41 4 -101 15 -133 23 -32 9 -69 16 -82 16 -13 0 -27 4 -30 10 -3 5 -16 10 -27 10 -27 0 -57 9 -213 63 -63 22 -259 115 -310 148 -16 10 -39 23 -50 29 -11 5 -29 16 -39 22 -11 7 -48 32 -84 55 -35 24 -82 57 -104 75 -70 58 -358 342 -358 354 0 6 -9 19 -21 30 -12 10 -37 44 -57 74 -19 30 -44 65 -55 77 -21 23 -34 44 -63 103 -10 19 -24 39 -31 43 -7 4 -13 17 -13 27 0 10 -4 21 -9 25 -13 8 -41 65 -41 84 0 9 -14 39 -30 66 -16 28 -30 59 -30 70 0 11 -7 34 -16 50 -23 43 -44 107 -44 132 0 12 -4 25 -10 28 -5 3 -10 21 -10 40 0 19 -4 36 -9 39 -4 3 -11 25 -14 48 -4 24 -15 104 -26 178 l-19 135 -1 -1032z"/>
<path d="M2381 1999 c-15 -6 -21 -14 -17 -25 3 -9 6 -27 6 -40 l0 -24 120 0 c95 0 122 3 126 14 9 24 -14 55 -53 71 -39 17 -145 19 -182 4z"/>
<path d="M4349 1723 c0 -10 -3 -27 -6 -38 -3 -11 -7 -37 -10 -58 -3 -20 -9 -40 -14 -43 -5 -3 -9 -16 -9 -28 0 -13 -6 -29 -14 -35 -8 -7 -12 -20 -9 -30 2 -10 -5 -36 -16 -57 -12 -21 -21 -46 -21 -54 0 -9 -6 -25 -14 -35 -8 -11 -12 -24 -9 -31 2 -6 -3 -14 -11 -17 -8 -3 -18 -22 -21 -41 -4 -19 -14 -37 -22 -40 -8 -3 -12 -10 -8 -15 3 -5 1 -12 -5 -16 -5 -3 -10 -16 -10 -29 0 -12 -11 -33 -25 -46 -14 -13 -25 -29 -25 -35 0 -7 -9 -20 -20 -30 -11 -10 -17 -21 -15 -25 2 -4 -5 -16 -16 -26 -11 -10 -29 -37 -39 -60 -11 -23 -31 -52 -44 -65 -14 -13 -26 -29 -26 -34 0 -6 -25 -35 -56 -65 -31 -30 -60 -65 -64 -77 -5 -12 -22 -27 -37 -35 -15 -7 -32 -23 -38 -36 -5 -12 -14 -22 -20 -22 -6 0 -37 -27 -69 -60 -32 -33 -64 -60 -70 -60 -7 0 -30 -18 -51 -40 -21 -22 -43 -40 -48 -40 -5 0 -29 -13 -54 -30 -24 -16 -46 -30 -48 -30 -2 0 -27 -16 -57 -35 -29 -20 -74 -45 -100 -57 -27 -12 -48 -25 -48 -30 0 -4 -9 -8 -20 -8 -11 0 -20 -4 -20 -10 0 -5 -6 -10 -13 -10 -18 0 -67 -24 -67 -32 0 -5 -10 -8 -23 -8 -13 0 -42 -9 -65 -20 -22 -11 -53 -20 -67 -20 -14 0 -25 -4 -25 -9 0 -8 -55 -24 -90 -26 -8 -1 -24 -6 -35 -12 -18 -10 -45 -16 -175 -38 -19 -4 -64 -10 -100 -14 -36 -4 373 -9 908 -9 l972 -2 0 870 c0 479 -2 870 -5 870 -3 0 -5 -8 -6 -17z"/>
<path d="M1348 782 l-3 -372 195 2 195 3 3 33 c2 20 10 36 20 39 9 4 37 23 62 44 25 20 57 39 70 41 24 3 25 6 28 83 2 48 8 82 15 87 7 4 38 8 69 8 70 0 78 -11 78 -104 0 -61 2 -66 28 -78 28 -14 29 -17 31 -120 1 -37 2 -38 41 -38 24 0 43 5 45 13 3 6 6 55 7 107 l3 95 39 37 c58 55 86 63 159 50 34 -7 73 -20 87 -30 38 -29 59 -95 59 -189 l1 -83 121 0 120 0 -1 73 c-2 111 -2 111 31 131 40 23 95 15 105 -17 4 -12 6 -50 5 -84 -2 -70 13 -103 46 -103 l23 0 0 243 0 243 -34 -4 c-29 -3 -33 -7 -34 -34 0 -17 -7 -35 -14 -39 -37 -24 -88 5 -88 50 0 21 -2 22 -107 19 l-108 -3 -3 -32 c-3 -35 -32 -48 -77 -37 -23 6 -31 23 -26 62 1 9 -23 12 -96 12 -100 -1 -133 -11 -133 -42 0 -23 -22 -38 -57 -38 -34 0 -53 21 -53 59 0 16 -6 21 -28 21 -54 0 -64 25 -60 149 l3 111 -382 2 -383 3 -2 -373z m362 298 c16 -10 20 -206 5 -227 -8 -11 -42 -16 -132 -20 -66 -3 -132 -3 -147 1 l-26 6 0 113 c0 77 4 117 12 125 14 14 266 15 288 2z m353 4 c25 -9 25 -215 0 -235 -12 -11 -46 -13 -142 -11 -69 2 -133 8 -142 13 -14 7 -18 26 -21 100 -3 102 0 120 28 130 24 9 255 12 277 3z m-275 -445 c2 -82 -1 -109 -11 -118 -10 -8 -65 -11 -183 -9 l-169 3 -3 104 c-1 58 0 111 2 118 4 11 42 13 183 11 l178 -3 3 -106z"/>
<path d="M1841 480 c-26 -20 -41 -37 -39 -48 3 -15 21 -17 141 -20 l138 -3 -3 48 -3 48 -96 3 c-92 3 -96 2 -138 -28z"/>
</g>
</g>
  <g id="id1:id1" transform="matrix(1.25,0,0,1.25,0.0,0.0)"><g transform="translate(0.000000,202.400000) scale(0.040000,-0.040000)" fill="#d1d0d0" stroke="none">
<path d="M1325 4227 c-3 -6 -4 -185 -2 -397 l2 -385 3 392 2 393 363 3 362 2 -363 3 c-283 1 -364 -1 -367 -11z"/>
<path d="M2055 4088 l0 -132 32 -7 c18 -3 30 -2 27 2 -3 5 -16 9 -29 9 -24 0 -24 0 -28 130 l-3 130 1 -132z"/>
<path d="M1545 4160 c139 -5 140 -5 137 -28 -1 -13 2 -30 6 -39 6 -10 8 -4 8 19 -2 57 -4 58 -154 56 l-137 -2 140 -6z"/>
<path d="M1737 4163 c-10 -9 -9 -211 1 -216 4 -3 6 44 4 104 l-3 110 133 -3 133 -3 0 -108 c0 -59 3 -107 8 -107 4 0 7 49 7 109 0 90 -3 110 -16 115 -21 8 -259 8 -267 -1z"/>
<path d="M1394 4065 c0 -49 1 -71 3 -48 2 23 2 64 0 90 -2 26 -3 8 -3 -42z"/>
<path d="M1690 4037 c0 -17 -4 -48 -10 -67 -9 -32 -8 -33 5 -16 14 18 22 116 10 116 -3 0 -5 -15 -5 -33z"/>
<path d="M1409 3958 c7 -10 23 -17 35 -17 20 1 20 2 1 6 -11 3 -27 10 -35 17 -13 10 -13 9 -1 -6z"/>
<path d="M2594 3945 c-9 -14 -14 -28 -11 -31 3 -3 8 4 12 15 8 26 26 30 135 34 l85 3 -102 2 c-100 2 -103 1 -119 -23z"/>
<path d="M2940 3951 c0 -11 -8 -25 -17 -31 -12 -8 -13 -10 -3 -7 8 2 19 13 25 25 5 12 13 22 17 22 4 0 9 -113 11 -250 l3 -250 -1 252 c0 233 -1 253 -17 256 -13 2 -18 -3 -18 -17z"/>
<path d="M2225 3945 c-3 -8 -7 -22 -10 -30 -3 -10 -19 -16 -47 -17 l-43 -1 38 -4 c42 -5 67 9 67 37 0 10 8 21 18 23 16 4 16 5 -1 6 -10 0 -20 -6 -22 -14z"/>
<path d="M2278 3953 c6 -2 18 -2 25 0 6 3 1 5 -13 5 -14 0 -19 -2 -12 -5z"/>
<path d="M2476 3947 c3 -10 9 -15 12 -12 3 3 0 11 -7 18 -10 9 -11 8 -5 -6z"/>
<path d="M2834 3933 c13 -26 22 -33 44 -32 20 1 22 2 7 6 -11 2 -30 16 -43 31 l-24 27 16 -32z"/>
<path d="M1498 3943 c6 -2 18 -2 25 0 6 3 1 5 -13 5 -14 0 -19 -2 -12 -5z"/>
<path d="M1578 3943 c6 -2 18 -2 25 0 6 3 1 5 -13 5 -14 0 -19 -2 -12 -5z"/>
<path d="M1918 3933 c12 -2 32 -2 45 0 12 2 2 4 -23 4 -25 0 -35 -2 -22 -4z"/>
<path d="M2111 3914 c0 -11 3 -14 6 -6 3 7 2 16 -1 19 -3 4 -6 -2 -5 -13z"/>
<path d="M2518 3893 c12 -2 30 -2 40 0 9 3 -1 5 -23 4 -22 0 -30 -2 -17 -4z"/>
<path d="M1407 3803 c-3 -5 67 -7 155 -5 120 2 164 0 176 -10 15 -12 16 -11 3 5 -12 15 -33 17 -172 17 -87 0 -160 -3 -162 -7z"/>
<path d="M1872 3798 c-7 -7 -12 -16 -12 -22 0 -5 6 -2 13 8 11 15 24 17 69 15 31 -2 54 -1 51 4 -7 12 -108 8 -121 -5z"/>
<path d="M1391 3764 c0 -11 3 -14 6 -6 3 7 2 16 -1 19 -3 4 -6 -2 -5 -13z"/>
<path d="M1991 3764 c0 -11 3 -14 6 -6 3 7 2 16 -1 19 -3 4 -6 -2 -5 -13z"/>
<path d="M2284 3744 c-22 -15 -46 -36 -54 -48 -11 -19 -9 -18 16 4 16 14 31 28 34 31 16 19 57 29 119 29 65 0 72 -2 102 -32 17 -18 38 -46 45 -63 11 -24 13 -26 14 -9 0 11 -9 29 -20 39 -11 10 -20 23 -20 29 0 25 -58 46 -127 46 -57 0 -76 -4 -109 -26z"/>
<path d="M1732 3710 c0 -14 2 -19 5 -12 2 6 2 18 0 25 -3 6 -5 1 -5 -13z"/>
<path d="M1393 3645 c0 -22 2 -30 4 -17 2 12 2 30 0 40 -3 9 -5 -1 -4 -23z"/>
<path d="M2004 3650 c1 -20 6 -25 29 -26 24 -1 24 -1 3 3 -16 3 -26 12 -29 26 -3 18 -4 17 -3 -3z"/>
<path d="M1742 3635 c0 -16 2 -22 5 -12 2 9 2 23 0 30 -3 6 -5 -1 -5 -18z"/>
<path d="M2211 3648 c0 -9 -4 -25 -7 -35 -5 -17 -5 -17 6 0 6 10 9 25 7 35 -4 15 -5 15 -6 0z"/>
<path d="M2827 3643 c20 -3 41 -14 53 -30 11 -14 20 -20 20 -13 0 23 -42 50 -74 48 l-31 -1 32 -4z"/>
<path d="M1833 3623 c9 -2 23 -2 30 0 6 3 -1 5 -18 5 -16 0 -22 -2 -12 -5z"/>
<path d="M1746 3580 c-20 -22 -41 -40 -46 -40 -6 0 -10 -20 -10 -45 l0 -45 -172 -3 -173 -3 175 1 175 0 5 40 c5 42 56 109 95 125 15 7 16 9 4 9 -9 1 -32 -17 -53 -39z"/>
<path d="M2766 3604 c-3 -9 -6 -41 -6 -73 0 -31 -5 -62 -12 -69 -16 -16 -160 -16 -178 1 -12 10 -12 9 -1 -5 11 -15 29 -18 91 -18 97 0 106 9 112 108 2 39 3 72 2 72 -1 0 -5 -7 -8 -16z"/>
<path d="M1488 3593 c45 -2 119 -2 165 0 45 1 8 3 -83 3 -91 0 -128 -2 -82 -3z"/>
<path d="M2082 3539 c-2 -53 2 -69 16 -80 15 -12 16 -12 5 1 -7 9 -14 45 -16 80 l-3 65 -2 -66z"/>
<path d="M1913 3573 c9 -2 23 -2 30 0 6 3 -1 5 -18 5 -16 0 -22 -2 -12 -5z"/>
<path d="M1988 3573 c7 -3 16 -2 19 1 4 3 -2 6 -13 5 -11 0 -14 -3 -6 -6z"/>
<path d="M2902 3545 c0 -16 2 -22 5 -12 2 9 2 23 0 30 -3 6 -5 -1 -5 -18z"/>
<path d="M1777 3532 c-29 -30 -35 -60 -15 -80 17 -17 249 -17 266 0 7 7 12 21 11 32 -1 18 -2 17 -8 -4 l-7 -25 -129 0 c-129 0 -130 0 -133 24 -3 15 6 33 24 52 15 16 25 29 23 29 -3 0 -17 -13 -32 -28z"/>
<path d="M2903 3491 c1 -14 9 -26 17 -28 10 -3 11 -2 4 4 -7 4 -14 17 -17 28 -5 16 -5 15 -4 -4z"/>
<path d="M2197 3463 c-4 -3 -24 -9 -44 -13 -36 -7 -36 -8 -7 -9 16 0 39 6 50 14 10 8 16 15 13 15 -3 0 -9 -3 -12 -7z"/>
<path d="M2267 2653 c-4 -3 -7 -62 -7 -129 l0 -123 -32 -4 -33 -5 35 2 35 1 3 127 3 128 352 3 352 2 -351 3 c-193 1 -354 -1 -357 -5z"/>
<path d="M3015 2275 c0 -203 1 -285 2 -182 2 104 2 270 0 370 -1 100 -2 16 -2 -188z"/>
<path d="M2418 2603 c34 -2 90 -2 125 0 34 2 6 3 -63 3 -69 0 -97 -1 -62 -3z"/>
<path d="M2667 2603 c-3 -5 59 -8 136 -8 l142 0 6 -100 5 -100 2 101 c2 85 -1 103 -14 108 -23 9 -272 7 -277 -1z"/>
<path d="M2332 2503 c1 -101 5 -89 10 30 2 37 0 67 -4 67 -5 0 -7 -44 -6 -97z"/>
<path d="M2613 2560 c0 -25 2 -35 4 -22 2 12 2 32 0 45 -2 12 -4 2 -4 -23z"/>
<path d="M2652 2550 c0 -14 2 -19 5 -12 2 6 2 18 0 25 -3 6 -5 1 -5 -13z"/>
<path d="M2662 2425 c0 -16 2 -22 5 -12 2 9 2 23 0 30 -3 6 -5 -1 -5 -18z"/>
<path d="M2475 2400 l-140 -6 137 -2 c83 -1 139 2 143 8 3 6 5 9 3 8 -2 -1 -66 -5 -143 -8z"/>
<path d="M1596 2393 c96 -3 102 -5 114 -28 7 -14 15 -23 17 -21 3 2 -3 16 -12 30 -17 25 -20 26 -119 24 l-101 -2 101 -3z"/>
<path d="M1829 2383 c-13 -16 -12 -17 3 -5 12 10 46 12 121 10 58 -2 103 0 100 5 -2 4 -51 7 -107 7 -87 0 -106 -3 -117 -17z"/>
<path d="M2743 2393 c37 -2 97 -2 135 0 37 2 6 3 -68 3 -74 0 -105 -1 -67 -3z"/>
<path d="M1345 2148 l0 -243 24 -3 c13 -2 27 0 32 5 6 6 -2 8 -21 5 l-30 -4 -3 241 -3 241 1 -242z"/>
<path d="M1484 2352 c-6 -30 -9 -32 -50 -32 -40 0 -44 2 -44 25 0 14 -4 25 -9 25 -5 0 -6 -12 -2 -27 7 -26 11 -28 56 -28 45 0 49 2 56 29 5 17 6 32 4 35 -3 2 -8 -10 -11 -27z"/>
<path d="M2165 2365 c-3 -8 -7 -22 -10 -30 -3 -10 -18 -15 -44 -15 -35 0 -40 3 -44 28 -5 26 -5 26 -3 -3 1 -27 5 -30 39 -33 44 -4 63 8 70 43 5 27 -1 34 -8 10z"/>
<path d="M1812 2340 c0 -14 2 -19 5 -12 2 6 2 18 0 25 -3 6 -5 1 -5 -13z"/>
<path d="M1739 2317 c5 -5 21 -7 37 -5 27 3 26 4 -8 9 -22 3 -34 1 -29 -4z"/>
<path d="M2435 2261 l50 -6 6 -65 6 -65 1 66 c2 76 -2 80 -71 77 l-42 -1 50 -6z"/>
<path d="M2621 2256 c-8 -10 -11 -49 -9 -120 2 -58 -1 -106 -5 -106 -4 0 -21 7 -37 15 -17 9 -30 13 -30 10 0 -3 23 -16 50 -29 28 -13 48 -20 44 -15 -3 5 3 9 13 10 14 0 13 2 -5 9 -22 9 -23 13 -20 117 3 105 4 107 28 114 22 6 23 7 4 8 -12 1 -27 -5 -33 -13z"/>
<path d="M2363 2245 c-3 -9 -3 -18 -1 -21 3 -3 8 4 11 16 6 23 -1 27 -10 5z"/>
<path d="M2950 2182 l5 -77 3 69 c2 38 -1 73 -5 77 -4 4 -6 -27 -3 -69z"/>
<path d="M1968 2203 c12 -2 30 -2 40 0 9 3 -1 5 -23 4 -22 0 -30 -2 -17 -4z"/>
<path d="M1915 2190 c-3 -6 1 -7 9 -4 18 7 21 14 7 14 -6 0 -13 -4 -16 -10z"/>
<path d="M2075 2175 c17 -9 38 -28 48 -43 9 -15 17 -22 17 -16 0 19 -57 74 -77 74 -12 0 -9 -5 12 -15z"/>
<path d="M1859 2158 l-12 -23 24 20 c13 11 26 21 28 22 2 2 -3 3 -12 3 -9 0 -22 -10 -28 -22z"/>
<path d="M1832 2105 c-7 -14 -12 -31 -12 -38 1 -7 7 3 16 22 17 39 13 54 -4 16z"/>
<path d="M2500 2093 c0 -12 5 -25 11 -28 16 -11 17 -2 2 25 -12 24 -13 24 -13 3z"/>
<path d="M1438 2083 c-18 -21 -38 -58 -38 -70 0 -4 10 10 23 32 36 65 95 60 117 -9 l10 -31 -5 34 c-3 19 -13 40 -23 47 -24 19 -66 17 -84 -3z"/>
<path d="M2333 2062 c-19 -20 -23 -37 -23 -89 l0 -63 -75 0 -74 0 -4 78 -3 77 0 -80 1 -80 80 0 80 0 3 65 c2 49 8 70 24 87 12 13 20 25 17 27 -2 2 -14 -8 -26 -22z"/>
<path d="M10 2017 l5 -52 3 44 c2 24 0 47 -5 52 -4 4 -6 -15 -3 -44z"/>
<path d="M2948 2043 c-6 -22 -11 -23 -144 -26 l-139 -3 135 -2 c74 -1 141 2 148 7 8 5 12 17 10 27 -3 17 -4 17 -10 -3z"/>
<path d="M1819 1988 c-1 -29 -1 -59 0 -66 2 -10 -27 -12 -138 -10 -77 2 -137 -1 -132 -5 4 -4 68 -6 142 -5 l134 3 3 68 c2 37 1 67 -2 67 -3 0 -7 -24 -7 -52z"/>
<path d="M2383 2010 c-13 -5 -23 -12 -23 -15 0 -4 6 -3 13 2 6 4 46 10 87 14 l75 6 -65 1 c-36 0 -75 -3 -87 -8z"/>
<path d="M1406 1985 c-3 -9 -6 -26 -5 -38 1 -14 4 -9 9 13 9 37 7 52 -4 25z"/>
<path d="M2577 1990 c12 -5 26 -17 32 -27 6 -10 11 -13 11 -7 0 15 -34 44 -51 43 -8 0 -4 -4 8 -9z"/>
<path d="M2665 1952 l12 -47 164 0 164 -1 -161 3 -162 3 -6 40 c-3 21 -10 41 -14 44 -5 3 -3 -16 3 -42z"/>
<path d="M2363 1938 l2 -33 121 -3 c106 -2 123 0 135 15 11 15 11 16 -1 6 -10 -9 -52 -13 -131 -13 l-118 0 -5 30 c-6 30 -6 30 -3 -2z"/>
<path d="M30 1862 l5 -47 3 39 c2 21 0 42 -5 47 -4 4 -6 -13 -3 -39z"/>
<path d="M48 1749 c2 -21 8 -42 13 -45 5 -3 9 -20 9 -38 0 -17 4 -36 9 -41 5 -6 11 -23 14 -40 l4 -30 2 32 c0 17 -3 35 -9 38 -5 3 -10 21 -10 40 0 19 -4 37 -10 40 -5 3 -10 21 -10 40 0 19 -3 36 -8 39 -4 2 -6 -13 -4 -35z"/>
<path d="M4341 1714 c0 -11 3 -14 6 -6 3 7 2 16 -1 19 -3 4 -6 -2 -5 -13z"/>
<path d="M4327 1663 c-4 -3 -7 -21 -7 -39 0 -18 -4 -36 -10 -39 -5 -3 -9 -18 -9 -33 1 -20 2 -22 6 -7 2 11 8 29 13 40 7 17 19 85 15 85 -1 0 -5 -3 -8 -7z"/>
<path d="M108 1523 c5 -21 7 -23 10 -9 2 10 0 22 -6 28 -6 6 -7 0 -4 -19z"/>
<path d="M4282 1480 c0 -14 2 -19 5 -12 2 6 2 18 0 25 -3 6 -5 1 -5 -13z"/>
<path d="M152 1410 c0 -14 2 -19 5 -12 2 6 2 18 0 25 -3 6 -5 1 -5 -13z"/>
<path d="M4241 1374 c0 -11 3 -14 6 -6 3 7 2 16 -1 19 -3 4 -6 -2 -5 -13z"/>
<path d="M166 1365 c4 -8 8 -15 10 -15 2 0 4 7 4 15 0 8 -4 15 -10 15 -5 0 -7 -7 -4 -15z"/>
<path d="M208 1283 c7 -36 32 -84 32 -61 0 9 -4 20 -10 23 -5 3 -10 17 -10 30 0 13 -4 26 -9 29 -4 3 -6 -7 -3 -21z"/>
<path d="M4184 1255 c-3 -8 -4 -20 -2 -27 3 -7 7 -1 10 15 6 29 1 36 -8 12z"/>
<path d="M4141 1160 c0 -15 -4 -30 -8 -36 -5 -5 -2 -4 5 2 8 6 12 22 9 35 -4 24 -4 24 -6 -1z"/>
<path d="M260 1161 c0 -6 4 -13 10 -16 6 -3 7 1 4 9 -7 18 -14 21 -14 7z"/>
<path d="M1548 1153 c106 -2 277 -2 380 0 103 1 16 2 -193 2 -209 0 -293 -1 -187 -2z"/>
<path d="M1345 785 c0 -203 1 -285 2 -182 2 104 2 270 0 370 -1 100 -2 16 -2 -188z"/>
<path d="M2112 1033 c-1 -61 1 -114 6 -116 4 -3 6 32 4 76 -4 141 -9 156 -10 40z"/>
<path d="M290 1128 c0 -3 7 -19 15 -34 8 -16 15 -22 15 -14 -1 8 -7 24 -15 34 -8 11 -15 17 -15 14z"/>
<path d="M1422 1078 c-8 -8 -11 -49 -10 -127 l2 -116 6 120 5 120 115 6 115 5 -110 2 c-76 1 -115 -2 -123 -10z"/>
<path d="M1690 1077 c14 -8 27 -12 30 -10 7 6 -23 23 -40 23 -8 0 -4 -6 10 -13z"/>
<path d="M1808 1083 c7 -3 16 -2 19 1 4 3 -2 6 -13 5 -11 0 -14 -3 -6 -6z"/>
<path d="M1893 1083 c31 -2 83 -2 115 0 31 2 5 3 -58 3 -63 0 -89 -1 -57 -3z"/>
<path d="M1765 1069 c-11 -16 -1 -19 13 -3 7 8 8 14 3 14 -5 0 -13 -5 -16 -11z"/>
<path d="M2072 973 c-2 -95 -5 -114 -19 -122 -10 -6 -13 -11 -7 -11 28 0 35 30 31 136 l-3 109 -2 -112z"/>
<path d="M355 1010 c10 -11 20 -20 23 -20 3 0 -3 9 -13 20 -10 11 -20 20 -23 20 -3 0 3 -9 13 -20z"/>
<path d="M1721 1014 c0 -11 3 -14 6 -6 3 7 2 16 -1 19 -3 4 -6 -2 -5 -13z"/>
<path d="M1762 943 c-2 -72 0 -84 17 -93 30 -15 36 -12 12 8 -17 14 -21 31 -24 92 l-3 75 -2 -82z"/>
<path d="M3979 893 c-13 -16 -12 -17 4 -4 9 7 17 15 17 17 0 8 -8 3 -21 -13z"/>
<path d="M2153 893 c9 -2 23 -2 30 0 6 3 -1 5 -18 5 -16 0 -22 -2 -12 -5z"/>
<path d="M2398 893 c29 -2 74 -2 100 0 26 2 2 3 -53 3 -55 0 -76 -1 -47 -3z"/>
<path d="M2647 893 c-3 -5 29 -7 71 -5 135 4 150 9 40 10 -59 1 -109 -1 -111 -5z"/>
<path d="M2973 893 c9 -2 25 -2 35 0 9 3 1 5 -18 5 -19 0 -27 -2 -17 -5z"/>
<path d="M3032 658 l-2 -247 -27 -4 -28 -4 28 -2 c15 0 30 5 33 12 2 7 3 120 1 252 l-2 240 -3 -247z"/>
<path d="M2201 869 c-1 -41 20 -61 59 -56 l35 4 -37 1 c-32 2 -38 6 -44 30 -9 44 -12 49 -13 21z"/>
<path d="M2861 864 c-1 -29 32 -57 61 -51 22 4 21 4 -3 6 -29 1 -44 15 -52 46 -4 19 -5 19 -6 -1z"/>
<path d="M2954 855 c-3 -8 -4 -20 -2 -27 3 -7 7 -1 10 15 6 29 1 36 -8 12z"/>
<path d="M1695 850 c-16 -7 -17 -9 -3 -9 9 -1 20 4 23 9 7 11 7 11 -20 0z"/>
<path d="M2301 844 c0 -11 3 -14 6 -6 3 7 2 16 -1 19 -3 4 -6 -2 -5 -13z"/>
<path d="M2627 840 c-3 -11 -1 -20 4 -20 5 0 9 9 9 20 0 11 -2 20 -4 20 -2 0 -6 -9 -9 -20z"/>
<path d="M1483 833 c32 -2 81 -2 110 0 29 2 3 3 -58 3 -60 0 -84 -1 -52 -3z"/>
<path d="M1993 833 c9 -2 23 -2 30 0 6 3 -1 5 -18 5 -16 0 -22 -2 -12 -5z"/>
<path d="M2540 830 c0 -5 5 -10 11 -10 5 0 7 5 4 10 -3 6 -8 10 -11 10 -2 0 -4 -4 -4 -10z"/>
<path d="M3904 798 l-29 -33 33 29 c17 17 32 31 32 33 0 8 -8 1 -36 -29z"/>
<path d="M2578 813 c6 -2 18 -2 25 0 6 3 1 5 -13 5 -14 0 -19 -2 -12 -5z"/>
<path d="M510 796 c0 -2 8 -10 18 -17 15 -13 16 -12 3 4 -13 16 -21 21 -21 13z"/>
<path d="M1427 743 c-3 -5 76 -7 174 -5 l180 3 -3 -108 -3 -108 -177 0 c-97 0 -174 -3 -171 -7 2 -5 80 -8 172 -8 132 0 171 3 180 14 8 9 11 50 9 117 l-3 104 -177 3 c-97 1 -179 -1 -181 -5z"/>
<path d="M1955 744 c47 -7 113 -8 108 -1 -2 4 -32 6 -66 6 -34 -1 -53 -3 -42 -5z"/>
<path d="M570 736 c0 -2 8 -10 18 -17 15 -13 16 -12 3 4 -13 16 -21 21 -21 13z"/>
<path d="M2072 648 c-2 -75 -1 -78 23 -84 17 -4 27 -15 31 -33 10 -44 13 -48 11 -11 -1 26 -8 38 -27 47 -22 11 -26 20 -31 85 l-5 73 -2 -77z"/>
<path d="M2368 713 c12 -2 30 -2 40 0 9 3 -1 5 -23 4 -22 0 -30 -2 -17 -4z"/>
<path d="M1423 655 c0 -33 2 -45 4 -27 2 18 2 45 0 60 -2 15 -4 0 -4 -33z"/>
<path d="M2312 694 c-28 -19 -74 -65 -70 -69 2 -2 25 17 51 41 51 46 57 55 19 28z"/>
<path d="M2448 703 c7 -3 16 -2 19 1 4 3 -2 6 -13 5 -11 0 -14 -3 -6 -6z"/>
<path d="M1920 638 c-3 -37 -1 -63 3 -59 4 4 7 35 5 67 l-3 59 -5 -67z"/>
<path d="M2504 681 c16 -11 35 -30 42 -43 8 -13 13 -17 14 -10 0 17 -54 72 -72 72 -7 0 0 -9 16 -19z"/>
<path d="M3799 673 c-13 -16 -12 -17 4 -4 9 7 17 15 17 17 0 8 -8 3 -21 -13z"/>
<path d="M2883 623 c9 -2 23 -2 30 0 6 3 -1 5 -18 5 -16 0 -22 -2 -12 -5z"/>
<path d="M2836 605 c-11 -8 -17 -17 -14 -20 2 -3 13 4 23 15 21 23 18 25 -9 5z"/>
<path d="M2942 600 c7 -10 14 -18 15 -16 6 6 -9 36 -18 36 -5 0 -4 -9 3 -20z"/>
<path d="M2233 570 c0 -25 2 -35 4 -22 2 12 2 32 0 45 -2 12 -4 2 -4 -23z"/>
<path d="M2567 530 c6 -116 11 -131 11 -35 0 44 -3 89 -7 100 -4 11 -6 -18 -4 -65z"/>
<path d="M765 540 c21 -22 41 -40 44 -40 3 0 -13 18 -34 40 -21 22 -41 40 -44 40 -3 0 13 -18 34 -40z"/>
<path d="M1820 528 l-45 -41 45 36 c25 19 54 37 65 40 20 5 20 5 0 6 -11 0 -40 -18 -65 -41z"/>
<path d="M2823 480 c0 -36 2 -50 4 -32 2 17 2 47 0 65 -2 17 -4 3 -4 -33z"/>
<path d="M1980 511 l95 -6 3 -47 3 -48 -136 0 c-113 0 -137 3 -142 15 -3 9 3 26 13 38 18 22 18 22 -6 -1 -20 -18 -23 -26 -14 -40 10 -15 29 -17 150 -17 l139 0 3 43 c5 66 -6 72 -112 70 l-91 -2 95 -5z"/>
<path d="M2230 470 l-5 -55 -42 -3 c-41 -3 -42 -2 -46 30 l-4 33 1 -35 c1 -34 3 -35 42 -38 53 -4 66 12 62 75 l-4 48 -4 -55z"/>
<path d="M3604 498 l-19 -23 25 20 c14 11 27 21 29 22 2 2 0 3 -6 3 -5 0 -18 -10 -29 -22z"/>
<path d="M1744 475 c-3 -8 -4 -20 -1 -27 3 -7 6 -3 6 9 1 12 7 24 14 26 9 4 9 6 -1 6 -7 1 -15 -6 -18 -14z"/>
<path d="M3512 430 c-18 -17 -29 -30 -24 -30 5 0 21 14 37 30 37 38 30 38 -13 0z"/>
<path d="M2960 430 c0 -5 5 -10 11 -10 5 0 7 5 4 10 -3 6 -8 10 -11 10 -2 0 -4 -4 -4 -10z"/>
<path d="M1540 410 l-195 -6 192 -2 c119 -1 194 2 198 8 3 6 5 9 3 8 -2 -1 -91 -5 -198 -8z"/>
<path d="M2638 403 c34 -2 90 -2 125 0 34 2 6 3 -63 3 -69 0 -97 -1 -62 -3z"/>
<path d="M1060 325 c7 -8 17 -15 23 -15 6 0 20 -8 31 -17 19 -17 20 -17 7 -1 -7 10 -27 24 -43 33 -26 13 -28 13 -18 0z"/>
<path d="M3325 310 c-3 -6 1 -7 9 -4 18 7 21 14 7 14 -6 0 -13 -4 -16 -10z"/>
<path d="M3216 251 c-4 -5 3 -7 14 -4 23 6 26 13 6 13 -8 0 -17 -4 -20 -9z"/>
<path d="M1218 233 c7 -3 16 -2 19 1 4 3 -2 6 -13 5 -11 0 -14 -3 -6 -6z"/>
<path d="M1250 216 c0 -2 9 -6 20 -9 11 -3 18 -1 14 4 -5 9 -34 13 -34 5z"/>
<path d="M3148 213 c6 -2 18 -2 25 0 6 3 1 5 -13 5 -14 0 -19 -2 -12 -5z"/>
<path d="M1300 196 c0 -2 7 -7 16 -10 8 -3 12 -2 9 4 -6 10 -25 14 -25 6z"/>
<path d="M3075 180 c-16 -10 -37 -19 -46 -19 -16 -1 -79 -29 -79 -36 0 -6 40 8 46 16 3 5 18 9 35 9 16 0 29 4 29 9 0 5 10 12 23 16 12 5 31 11 42 15 l20 8 -20 0 c-11 0 -33 -8 -50 -18z"/>
<path d="M1355 166 c23 -15 77 -27 69 -15 -3 5 -16 9 -29 9 -13 0 -27 5 -30 10 -3 6 -11 10 -18 10 -6 0 -3 -6 8 -14z"/>
<path d="M1440 136 c0 -2 11 -6 25 -8 13 -3 22 -1 19 3 -5 9 -44 13 -44 5z"/>
<path d="M1500 116 c0 -2 7 -7 16 -10 8 -3 12 -2 9 4 -6 10 -25 14 -25 6z"/>
<path d="M2903 113 c9 -2 23 -2 30 0 6 3 -1 5 -18 5 -16 0 -22 -2 -12 -5z"/>
<path d="M1540 96 c0 -2 15 -6 34 -8 19 -2 32 0 30 4 -5 8 -64 12 -64 4z"/>
<path d="M2830 90 c-11 -8 -7 -9 15 -4 37 8 45 14 19 14 -10 0 -26 -5 -34 -10z"/>
<path d="M1633 73 c9 -2 23 -2 30 0 6 3 -1 5 -18 5 -16 0 -22 -2 -12 -5z"/>
<path d="M2788 73 c7 -3 16 -2 19 1 4 3 -2 6 -13 5 -11 0 -14 -3 -6 -6z"/>
<path d="M1687 60 c9 -9 97 -21 89 -13 -3 4 -26 9 -51 13 -25 4 -42 4 -38 0z"/>
<path d="M2696 51 c-3 -4 6 -6 19 -3 14 2 25 6 25 8 0 8 -39 4 -44 -5z"/>
<path d="M1791 36 c2 -2 20 -6 39 -10 25 -4 31 -3 20 4 -14 9 -69 15 -59 6z"/>
<path d="M2556 32 c-2 -4 12 -6 32 -4 62 6 69 10 20 11 -26 0 -49 -3 -52 -7z"/>
<path d="M1908 13 c18 -2 45 -2 60 0 15 2 0 4 -33 4 -33 0 -45 -2 -27 -4z"/>
<path d="M2458 13 c18 -2 45 -2 60 0 15 2 0 4 -33 4 -33 0 -45 -2 -27 -4z"/>
</g>
</g>
  <g id="id2:id2" transform="matrix(1.25,0,0,1.25,0.0,0.0)"><g transform="translate(0.000000,202.400000) scale(0.040000,-0.040000)" fill="#8e898a" stroke="none">
<path d="M1400 4149 c0 -5 5 -7 10 -4 6 3 10 8 10 11 0 2 -4 4 -10 4 -5 0 -10 -5 -10 -11z"/>
<path d="M1672 4146 c7 -8 15 -12 17 -11 5 6 -10 25 -20 25 -5 0 -4 -6 3 -14z"/>
<path d="M1748 4153 c7 -3 16 -2 19 1 4 3 -2 6 -13 5 -11 0 -14 -3 -6 -6z"/>
<path d="M1983 4154 c15 -5 17 -19 17 -105 l0 -100 -130 3 c-71 2 -126 -1 -121 -5 4 -4 64 -6 132 -5 l124 3 0 105 c0 97 -1 105 -20 107 -16 1 -16 1 -2 -3z"/>
<path d="M2063 4090 c0 -36 2 -50 4 -32 2 17 2 47 0 65 -2 17 -4 3 -4 -33z"/>
<path d="M1402 4050 c-2 -73 7 -100 32 -100 5 0 2 6 -7 13 -12 9 -17 32 -20 87 l-3 75 -2 -75z"/>
<path d="M1683 4045 c0 -33 2 -45 4 -27 2 18 2 45 0 60 -2 15 -4 0 -4 -33z"/>
<path d="M2061 3983 c-1 -16 5 -23 17 -23 10 0 13 3 6 8 -6 4 -14 14 -17 22 -4 10 -6 8 -6 -7z"/>
<path d="M1670 3967 c0 -10 -11 -17 -32 -20 l-33 -4 33 -1 c31 -2 54 19 38 35 -3 4 -6 -1 -6 -10z"/>
<path d="M2591 3953 c-12 -16 -26 -34 -31 -40 -8 -9 -7 -13 2 -13 7 0 20 15 28 33 12 26 22 33 55 38 l40 6 -37 2 c-29 1 -41 -5 -57 -26z"/>
<path d="M2718 3973 c7 -3 16 -2 19 1 4 3 -2 6 -13 5 -11 0 -14 -3 -6 -6z"/>
<path d="M2768 3973 c6 -2 18 -2 25 0 6 3 1 5 -13 5 -14 0 -19 -2 -12 -5z"/>
<path d="M2935 3965 c-3 -8 -7 -22 -10 -31 -3 -8 0 -12 5 -9 6 3 10 15 10 27 0 15 5 19 20 15 11 -3 18 -1 14 4 -8 14 -34 10 -39 -6z"/>
<path d="M2227 3963 c-3 -5 55 -8 129 -8 74 0 134 3 134 8 0 4 -58 7 -129 7 -72 0 -132 -3 -134 -7z"/>
<path d="M2839 3939 c21 -22 35 -29 52 -26 23 4 23 4 -2 6 -16 0 -33 11 -43 26 -9 14 -21 25 -26 25 -5 0 4 -14 19 -31z"/>
<path d="M2118 3929 c2 -16 8 -29 12 -29 9 0 1 48 -9 55 -4 2 -5 -9 -3 -26z"/>
<path d="M3041 3944 c0 -11 3 -14 6 -6 3 7 2 16 -1 19 -3 4 -6 -2 -5 -13z"/>
<path d="M1468 3943 c7 -3 16 -2 19 1 4 3 -2 6 -13 5 -11 0 -14 -3 -6 -6z"/>
<path d="M1538 3943 c6 -2 18 -2 25 0 6 3 1 5 -13 5 -14 0 -19 -2 -12 -5z"/>
<path d="M2207 3921 c-4 -17 -3 -21 5 -13 5 5 8 16 6 23 -3 8 -7 3 -11 -10z"/>
<path d="M2486 3915 c4 -8 11 -15 16 -15 6 0 5 6 -2 15 -7 8 -14 15 -16 15 -2 0 -1 -7 2 -15z"/>
<path d="M1404 3786 c-3 -7 -4 -42 -2 -77 l3 -64 5 78 c5 77 4 89 -6 63z"/>
<path d="M1717 3793 c6 -4 13 -22 16 -38 4 -27 5 -27 3 4 0 21 -7 36 -16 38 -10 3 -11 2 -3 -4z"/>
<path d="M1877 3793 c-4 -3 -7 -44 -7 -89 0 -83 0 -83 -27 -87 -26 -4 -26 -4 2 -3 l30 1 5 93 c3 50 5 92 4 92 0 0 -4 -3 -7 -7z"/>
<path d="M2460 3750 c35 -24 54 -31 30 -11 -14 11 -29 21 -35 21 -5 0 -3 -5 5 -10z"/>
<path d="M1992 3695 c-2 -68 8 -85 50 -85 26 0 27 -2 31 -65 l3 -65 0 67 -1 68 -35 5 -35 5 -6 65 -6 65 -1 -60z"/>
<path d="M2251 3705 c-22 -21 -31 -38 -28 -51 4 -17 5 -16 6 3 0 12 15 33 33 47 18 14 30 27 28 29 -3 3 -20 -10 -39 -28z"/>
<path d="M2526 3685 c24 -39 24 -40 24 -28 0 6 -9 21 -21 34 l-20 24 17 -30z"/>
<path d="M1730 3651 c0 -29 -5 -41 -17 -44 -14 -4 -12 -5 5 -6 20 -1 22 4 22 44 0 25 -2 45 -5 45 -3 0 -5 -18 -5 -39z"/>
<path d="M2552 3549 c-2 -82 1 -98 14 -103 13 -5 14 -4 6 7 -6 7 -13 53 -15 103 l-3 89 -2 -96z"/>
<path d="M2785 3629 c-11 -16 -2 -17 25 -2 24 12 24 13 3 13 -12 0 -25 -5 -28 -11z"/>
<path d="M2861 3621 c19 -15 25 -32 30 -83 l6 -63 1 56 c2 43 -3 62 -19 83 -11 14 -25 26 -31 26 -6 0 0 -9 13 -19z"/>
<path d="M2212 3543 c-2 -66 -5 -84 -19 -92 -17 -10 -17 -10 0 -11 25 0 28 16 24 106 l-3 79 -2 -82z"/>
<path d="M1759 3583 l-24 -28 30 25 c17 14 32 26 34 28 2 1 0 2 -6 2 -5 0 -20 -12 -34 -27z"/>
<path d="M2772 3541 c-1 -44 -7 -70 -19 -83 -16 -18 -16 -18 0 -12 22 8 29 37 24 105 l-3 54 -2 -64z"/>
<path d="M1933 3583 c15 -2 37 -2 50 0 12 2 0 4 -28 4 -27 0 -38 -2 -22 -4z"/>
<path d="M1848 3573 c12 -2 30 -2 40 0 9 3 -1 5 -23 4 -22 0 -30 -2 -17 -4z"/>
<path d="M2023 3569 c11 -7 18 -24 19 -52 l1 -42 4 38 c4 38 -9 67 -31 67 -6 0 -3 -5 7 -11z"/>
<path d="M1772 3539 c-26 -24 -32 -38 -30 -62 2 -17 10 -32 18 -35 12 -4 13 -2 3 9 -23 23 -14 56 22 88 20 17 32 31 28 31 -4 0 -23 -14 -41 -31z"/>
<path d="M1705 3528 c-7 -25 -11 -88 -4 -80 4 4 9 26 11 50 4 42 1 53 -7 30z"/>
<path d="M2086 3456 c3 -9 13 -16 22 -16 8 0 13 1 11 3 -2 1 -12 9 -22 16 -15 12 -17 12 -11 -3z"/>
<path d="M2909 3457 c5 -5 24 -7 42 -5 33 3 33 4 -8 8 -23 3 -39 2 -34 -3z"/>
<path d="M2025 3450 c-3 -5 -1 -10 4 -10 6 0 11 5 11 10 0 6 -2 10 -4 10 -3 0 -8 -4 -11 -10z"/>
<path d="M2658 2663 c12 -2 30 -2 40 0 9 3 -1 5 -23 4 -22 0 -30 -2 -17 -4z"/>
<path d="M2859 2663 c86 -2 140 -8 150 -16 14 -11 14 -10 2 6 -12 15 -30 17 -150 15 l-136 -2 134 -3z"/>
<path d="M2345 2589 c-11 -16 -1 -19 13 -3 7 8 8 14 3 14 -5 0 -13 -5 -16 -11z"/>
<path d="M2478 2593 c6 -2 18 -2 25 0 6 3 1 5 -13 5 -14 0 -19 -2 -12 -5z"/>
<path d="M2601 2549 c5 -28 11 -54 15 -58 4 -3 4 5 1 19 -4 14 -7 40 -7 58 0 17 -4 32 -9 32 -4 0 -4 -23 0 -51z"/>
<path d="M2664 2586 c-3 -7 -4 -42 -2 -77 l3 -64 5 78 c5 77 4 89 -6 63z"/>
<path d="M2753 2593 c32 -2 81 -2 110 0 29 2 3 3 -58 3 -60 0 -84 -1 -52 -3z"/>
<path d="M2926 2593 c7 -4 14 -19 17 -33 4 -22 5 -21 4 4 -1 17 -9 31 -17 33 -10 3 -11 2 -4 -4z"/>
<path d="M2343 2470 c0 -25 2 -35 4 -22 2 12 2 32 0 45 -2 12 -4 2 -4 -23z"/>
<path d="M2610 2443 c-3 -23 -2 -39 3 -34 5 5 7 24 5 42 -3 33 -4 33 -8 -8z"/>
<path d="M2940 2441 c0 -16 -6 -32 -12 -34 -8 -3 -6 -6 5 -6 13 -1 17 7 17 34 0 19 -2 35 -5 35 -3 0 -5 -13 -5 -29z"/>
<path d="M2251 2414 c0 -11 3 -14 6 -6 3 7 2 16 -1 19 -3 4 -6 -2 -5 -13z"/>
<path d="M2670 2415 c0 -8 4 -15 10 -15 5 0 7 7 4 15 -4 8 -8 15 -10 15 -2 0 -4 -7 -4 -15z"/>
<path d="M1486 2385 c-9 -26 -7 -32 5 -12 6 10 9 21 6 23 -2 3 -7 -2 -11 -11z"/>
<path d="M1721 2363 c11 -24 22 -43 24 -43 8 0 -8 38 -26 60 -18 23 -18 22 2 -17z"/>
<path d="M1820 2385 c-7 -9 -11 -17 -9 -20 3 -2 10 5 17 15 14 24 10 26 -8 5z"/>
<path d="M1383 2377 c4 -10 7 -27 7 -38 0 -10 4 -19 9 -19 10 0 -3 58 -15 69 -4 3 -4 -2 -1 -12z"/>
<path d="M2163 2378 c-14 -18 -23 -59 -12 -52 5 3 9 13 9 23 0 9 5 22 12 29 7 7 9 12 6 12 -3 0 -10 -6 -15 -12z"/>
<path d="M2069 2348 c4 -28 6 -29 9 -9 2 13 0 27 -5 32 -6 6 -7 -3 -4 -23z"/>
<path d="M1465 2330 c-3 -5 -1 -10 4 -10 6 0 11 5 11 10 0 6 -2 10 -4 10 -3 0 -8 -4 -11 -10z"/>
<path d="M1795 2330 c-3 -5 -1 -10 4 -10 6 0 11 5 11 10 0 6 -2 10 -4 10 -3 0 -8 -4 -11 -10z"/>
<path d="M2370 2235 c-6 -15 -10 -56 -10 -93 0 -54 -4 -70 -22 -90 -22 -24 -23 -24 -2 -14 29 15 34 32 34 105 0 100 4 107 61 107 l49 0 1 -62 c2 -107 7 -118 69 -151 91 -48 97 -54 104 -91 4 -19 11 -38 15 -41 8 -4 -4 69 -14 85 -2 3 -38 23 -79 43 l-74 37 -6 63 c-3 34 -7 76 -8 92 -3 29 -5 30 -56 33 -48 3 -53 1 -62 -23z"/>
<path d="M2627 2253 c-4 -3 -7 -11 -7 -17 0 -6 4 -6 8 2 7 9 45 12 158 10 l149 -3 5 -87 c3 -48 9 -90 12 -94 7 -6 0 159 -8 184 -2 9 -43 12 -157 12 -85 0 -157 -3 -160 -7z"/>
<path d="M1920 2184 c-16 -10 -18 -13 -5 -8 78 28 154 9 196 -50 32 -43 39 -40 12 5 -34 57 -147 87 -203 53z"/>
<path d="M1865 2150 c-10 -11 -16 -22 -14 -24 2 -2 12 7 22 20 22 29 17 32 -8 4z"/>
<path d="M0 2107 c0 -20 5 -39 11 -42 7 -5 8 5 3 32 -9 51 -14 54 -14 10z"/>
<path d="M1439 2073 c-11 -15 -11 -16 1 -5 8 6 26 12 40 12 14 0 32 -6 40 -12 12 -11 12 -10 1 5 -7 9 -26 17 -41 17 -15 0 -34 -8 -41 -17z"/>
<path d="M2143 2030 c0 -30 2 -43 4 -27 2 15 2 39 0 55 -2 15 -4 2 -4 -28z"/>
<path d="M1531 1983 c0 -39 2 -74 7 -76 4 -3 6 18 4 46 -5 92 -9 104 -11 30z"/>
<path d="M2940 2042 c0 -7 -12 -13 -27 -13 -26 -2 -26 -2 -4 -6 24 -5 50 11 38 24 -4 3 -7 1 -7 -5z"/>
<path d="M1411 2014 c0 -11 3 -14 6 -6 3 7 2 16 -1 19 -3 4 -6 -2 -5 -13z"/>
<path d="M1832 2000 c0 -19 2 -27 5 -17 2 9 2 25 0 35 -3 9 -5 1 -5 -18z"/>
<path d="M2433 2023 c9 -2 23 -2 30 0 6 3 -1 5 -18 5 -16 0 -22 -2 -12 -5z"/>
<path d="M2362 2008 c-13 -13 -17 -94 -4 -101 4 -3 5 17 4 44 -4 44 -1 50 20 58 13 6 17 10 8 10 -9 1 -21 -4 -28 -11z"/>
<path d="M2540 2010 c8 -5 22 -9 30 -9 10 0 8 3 -5 9 -27 12 -43 12 -25 0z"/>
<path d="M21 1958 c0 -26 3 -49 7 -52 4 -2 6 12 4 32 -6 62 -10 69 -11 20z"/>
<path d="M2323 1960 c0 -25 2 -35 4 -22 2 12 2 32 0 45 -2 12 -4 2 -4 -23z"/>
<path d="M2602 1985 c19 -24 26 -55 15 -72 -5 -7 -4 -13 2 -13 15 0 23 37 12 58 -5 10 -18 25 -28 33 -17 13 -17 13 -1 -6z"/>
<path d="M122 1965 c0 -16 2 -22 5 -12 2 9 2 23 0 30 -3 6 -5 -1 -5 -18z"/>
<path d="M1410 1943 c-3 -23 -2 -39 3 -34 5 5 7 24 5 42 -3 33 -4 33 -8 -8z"/>
<path d="M2140 1931 c0 -11 4 -22 9 -25 4 -3 6 6 3 19 -5 30 -12 33 -12 6z"/>
<path d="M2918 1893 c6 -2 18 -2 25 0 6 3 1 5 -13 5 -14 0 -19 -2 -12 -5z"/>
<path d="M4272 1875 c0 -16 2 -22 5 -12 2 9 2 23 0 30 -3 6 -5 -1 -5 -18z"/>
<path d="M40 1821 c0 -17 4 -32 8 -35 4 -2 6 11 4 30 -5 42 -12 45 -12 5z"/>
<path d="M4345 1760 c-4 -12 -5 -24 -2 -27 3 -2 8 5 12 17 4 12 5 24 2 27 -3 2 -8 -5 -12 -17z"/>
<path d="M60 1731 c0 -11 4 -22 9 -25 4 -3 6 6 3 19 -5 30 -12 33 -12 6z"/>
<path d="M4329 1692 c-3 -20 -2 -29 4 -23 5 5 7 19 5 32 -3 20 -5 19 -9 -9z"/>
<path d="M80 1646 c0 -8 4 -17 9 -20 5 -4 7 3 4 14 -6 23 -13 26 -13 6z"/>
<path d="M4309 1612 c-3 -20 -2 -29 4 -23 5 5 7 19 5 32 -3 20 -5 19 -9 -9z"/>
<path d="M100 1571 c0 -11 4 -22 9 -25 4 -3 6 6 3 19 -5 30 -12 33 -12 6z"/>
<path d="M4291 1534 c0 -11 3 -14 6 -6 3 7 2 16 -1 19 -3 4 -6 -2 -5 -13z"/>
<path d="M120 1511 c0 -11 4 -22 9 -25 4 -3 6 6 3 19 -5 30 -12 33 -12 6z"/>
<path d="M4269 1478 c-3 -22 -1 -34 4 -29 5 5 7 21 5 37 -3 27 -4 26 -9 -8z"/>
<path d="M4242 1403 c-19 -51 -23 -67 -16 -60 9 9 34 80 30 84 -2 2 -8 -9 -14 -24z"/>
<path d="M160 1400 c0 -11 4 -20 9 -20 5 0 7 9 4 20 -3 11 -7 20 -9 20 -2 0 -4 -9 -4 -20z"/>
<path d="M181 1354 c0 -11 3 -14 6 -6 3 7 2 16 -1 19 -3 4 -6 -2 -5 -13z"/>
<path d="M4187 1281 c-4 -17 -3 -21 5 -13 5 5 8 16 6 23 -3 8 -7 3 -11 -10z"/>
<path d="M220 1261 c0 -6 4 -13 10 -16 6 -3 7 1 4 9 -7 18 -14 21 -14 7z"/>
<path d="M4147 1200 c-3 -11 -1 -20 4 -20 5 0 9 9 9 20 0 11 -2 20 -4 20 -2 0 -6 -9 -9 -20z"/>
<path d="M260 1182 c0 -12 39 -60 40 -49 0 5 -9 20 -20 34 -11 14 -20 21 -20 15z"/>
<path d="M4127 1141 c-4 -17 -3 -21 5 -13 5 5 8 16 6 23 -3 8 -7 3 -11 -10z"/>
<path d="M4086 1073 c-6 -14 -5 -15 5 -6 7 7 10 15 7 18 -3 3 -9 -2 -12 -12z"/>
<path d="M320 1071 c0 -6 5 -11 10 -11 6 0 10 -6 10 -14 0 -7 7 -19 15 -26 12 -10 12 -7 -1 19 -16 33 -34 49 -34 32z"/>
<path d="M1425 1069 c-4 -6 -4 -13 -1 -16 3 -4 6 -1 6 5 0 6 8 13 18 15 15 4 15 5 0 6 -9 0 -20 -4 -23 -10z"/>
<path d="M1585 1070 l120 -5 3 -94 c2 -58 -1 -98 -8 -105 -6 -6 -61 -14 -123 -17 l-112 -5 102 -2 c56 -1 113 2 127 8 25 9 26 11 26 108 0 63 -4 102 -12 110 -8 8 -49 11 -128 10 l-115 -2 120 -6z"/>
<path d="M1833 1073 c26 -2 68 -2 95 0 26 2 4 3 -48 3 -52 0 -74 -1 -47 -3z"/>
<path d="M2058 974 c3 -80 0 -109 -10 -115 -21 -14 -232 -11 -251 4 -13 9 -17 33 -19 109 -1 53 -5 95 -8 92 -3 -3 -4 -47 -2 -97 4 -124 8 -127 154 -127 60 0 118 5 129 10 17 10 19 22 19 120 0 61 -3 110 -7 110 -5 0 -7 -48 -5 -106z"/>
<path d="M2122 1000 c0 -19 2 -27 5 -17 2 9 2 25 0 35 -3 9 -5 1 -5 -18z"/>
<path d="M4051 1014 c0 -11 3 -14 6 -6 3 7 2 16 -1 19 -3 4 -6 -2 -5 -13z"/>
<path d="M1423 955 c0 -38 2 -53 4 -32 2 20 2 52 0 70 -2 17 -4 1 -4 -38z"/>
<path d="M4006 955 c-3 -8 -1 -15 4 -15 6 0 10 7 10 15 0 8 -2 15 -4 15 -2 0 -6 -7 -10 -15z"/>
<path d="M2120 944 c0 -10 5 -26 10 -34 8 -11 9 -7 4 15 -8 37 -14 45 -14 19z"/>
<path d="M3980 908 c-29 -44 -32 -53 -6 -23 22 26 32 45 23 45 -1 0 -9 -10 -17 -22z"/>
<path d="M2196 893 c7 -4 14 -19 17 -33 4 -22 5 -21 4 4 -1 17 -9 31 -17 33 -10 3 -11 2 -4 -4z"/>
<path d="M2318 884 c-16 -8 -28 -23 -28 -34 0 -10 -8 -21 -17 -23 -14 -4 -12 -5 5 -6 15 -1 22 5 22 18 0 11 12 29 28 40 32 24 28 26 -10 5z"/>
<path d="M2541 874 c-1 -38 18 -57 55 -52 22 2 30 11 40 43 12 36 12 38 -1 21 -8 -11 -15 -28 -15 -38 0 -13 -8 -18 -30 -18 -24 0 -31 5 -36 28 -10 45 -12 48 -13 16z"/>
<path d="M2867 875 c8 -42 21 -55 53 -55 23 0 29 5 34 32 8 41 0 49 -9 9 -5 -24 -12 -31 -31 -31 -15 0 -27 7 -30 18 -3 9 -10 26 -15 37 -6 15 -7 12 -2 -10z"/>
<path d="M3911 816 l-24 -31 28 27 c16 15 27 29 24 31 -2 3 -15 -10 -28 -27z"/>
<path d="M500 819 c0 -8 10 -20 23 -28 l22 -14 -20 24 c-11 13 -21 26 -22 28 -2 2 -3 -2 -3 -10z"/>
<path d="M3859 753 c-13 -16 -12 -17 4 -4 9 7 17 15 17 17 0 8 -8 3 -21 -13z"/>
<path d="M1424 729 c-3 -6 -2 -15 4 -21 6 -6 11 -2 15 11 5 22 -7 29 -19 10z"/>
<path d="M1478 733 c6 -2 18 -2 25 0 6 3 1 5 -13 5 -14 0 -19 -2 -12 -5z"/>
<path d="M1528 733 c6 -2 18 -2 25 0 6 3 1 5 -13 5 -14 0 -19 -2 -12 -5z"/>
<path d="M1623 733 c26 -2 67 -2 90 0 23 2 2 3 -48 3 -49 0 -68 -1 -42 -3z"/>
<path d="M1927 733 c-3 -5 -1 -37 3 -73 l8 -65 -1 60 c-1 33 2 66 6 73 5 6 4 12 -2 12 -5 0 -12 -3 -14 -7z"/>
<path d="M2058 657 c3 -84 15 -108 51 -106 9 0 4 5 -11 11 -27 9 -28 12 -28 88 0 43 -3 81 -7 83 -5 3 -7 -32 -5 -76z"/>
<path d="M2336 701 c-3 -4 6 -6 19 -3 14 2 25 6 25 8 0 8 -39 4 -44 -5z"/>
<path d="M2408 703 c6 -2 18 -2 25 0 6 3 1 5 -13 5 -14 0 -19 -2 -12 -5z"/>
<path d="M3775 667 l-40 -40 43 32 c23 18 42 37 42 42 0 12 1 13 -45 -34z"/>
<path d="M2491 677 c19 -12 42 -38 51 -57 10 -19 18 -28 18 -20 -1 35 -62 100 -94 100 -5 0 6 -10 25 -23z"/>
<path d="M640 665 c13 -14 26 -25 28 -25 3 0 -5 11 -18 25 -13 14 -26 25 -28 25 -3 0 5 -11 18 -25z"/>
<path d="M2277 652 l-38 -39 4 -79 3 -79 2 80 c2 77 3 80 39 117 20 21 35 38 32 38 -3 0 -22 -17 -42 -38z"/>
<path d="M3044 565 c0 -60 1 -84 3 -52 2 32 2 81 0 110 -2 29 -3 3 -3 -58z"/>
<path d="M2842 597 c-20 -21 -21 -28 -12 -83 l9 -59 -4 62 c-4 55 -2 64 17 78 13 8 35 15 50 15 37 0 48 -28 46 -115 -1 -49 3 -71 16 -83 10 -10 16 -12 16 -4 0 7 -4 12 -10 12 -6 0 -10 33 -10 78 0 94 -15 122 -64 122 -21 0 -40 -8 -54 -23z"/>
<path d="M3720 610 c-9 -6 -10 -10 -3 -10 6 0 15 5 18 10 8 12 4 12 -15 0z"/>
<path d="M700 606 c0 -2 8 -10 18 -17 15 -13 16 -12 3 4 -13 16 -21 21 -21 13z"/>
<path d="M1424 566 c1 -26 6 -41 16 -43 10 -3 11 -2 3 4 -6 4 -13 24 -16 43 -4 34 -4 33 -3 -4z"/>
<path d="M1904 564 c-18 -14 -18 -14 6 -3 31 14 36 19 24 19 -6 0 -19 -7 -30 -16z"/>
<path d="M2563 505 c0 -44 2 -61 4 -37 2 23 2 59 0 80 -2 20 -4 1 -4 -43z"/>
<path d="M1825 525 c-22 -19 -48 -37 -57 -41 -10 -3 -18 -11 -18 -19 0 -8 12 -3 31 13 64 54 94 81 89 81 -3 0 -23 -15 -45 -34z"/>
<path d="M1762 534 c-7 -8 -8 -14 -3 -14 10 0 25 19 20 25 -2 1 -10 -3 -17 -11z"/>
<path d="M795 520 c10 -11 20 -20 23 -20 3 0 -3 9 -13 20 -10 11 -20 20 -23 20 -3 0 3 -9 13 -20z"/>
<path d="M2122 479 c-2 -53 2 -69 16 -80 15 -12 16 -12 5 1 -7 9 -14 45 -16 80 l-3 65 -2 -66z"/>
<path d="M1983 523 c15 -2 37 -2 50 0 12 2 0 4 -28 4 -27 0 -38 -2 -22 -4z"/>
<path d="M1832 490 c-23 -17 -42 -33 -42 -37 0 -3 8 1 18 9 9 9 33 25 52 37 19 11 30 21 24 21 -6 0 -30 -14 -52 -30z"/>
<path d="M2079 508 c8 -11 12 -35 10 -62 -2 -24 -1 -42 4 -39 15 9 7 90 -10 104 -16 13 -17 12 -4 -3z"/>
<path d="M3591 500 c-13 -11 -19 -20 -14 -20 6 0 18 9 28 20 23 25 17 25 -14 0z"/>
<path d="M2240 438 c0 -6 -8 -20 -17 -31 -17 -19 -17 -20 5 -8 18 10 33 51 17 51 -3 0 -5 -5 -5 -12z"/>
<path d="M2827 431 c-4 -17 -3 -21 5 -13 5 5 8 16 6 23 -3 8 -7 3 -11 -10z"/>
<path d="M900 437 c0 -6 77 -57 87 -57 4 0 -1 6 -12 13 -48 33 -75 49 -75 44z"/>
<path d="M1737 420 c-3 -11 -1 -20 4 -20 5 0 9 9 9 20 0 11 -2 20 -4 20 -2 0 -6 -9 -9 -20z"/>
<path d="M1780 433 c0 -6 8 -17 18 -24 16 -13 16 -13 2 6 -8 11 -16 22 -17 24 -2 2 -3 0 -3 -6z"/>
<path d="M3490 419 c-22 -18 -22 -19 -3 -10 12 6 25 16 28 21 9 15 3 12 -25 -11z"/>
<path d="M1027 349 c7 -7 15 -10 18 -7 3 3 -2 9 -12 12 -14 6 -15 5 -6 -5z"/>
<path d="M3380 350 c-9 -6 -10 -10 -3 -10 6 0 15 5 18 10 8 12 4 12 -15 0z"/>
<path d="M3280 290 c-9 -6 -10 -10 -3 -10 6 0 15 5 18 10 8 12 4 12 -15 0z"/>
<path d="M1198 248 c5 -5 16 -8 23 -6 8 3 3 7 -10 11 -17 4 -21 3 -13 -5z"/>
<path d="M1367 169 c7 -7 15 -10 18 -7 3 3 -2 9 -12 12 -14 6 -15 5 -6 -5z"/>
<path d="M3035 170 c-16 -7 -17 -9 -3 -9 9 -1 20 4 23 9 7 11 7 11 -20 0z"/>
<path d="M1427 149 c7 -7 15 -10 18 -7 3 3 -2 9 -12 12 -14 6 -15 5 -6 -5z"/>
<path d="M1487 129 c7 -7 15 -10 18 -7 3 3 -2 9 -12 12 -14 6 -15 5 -6 -5z"/>
<path d="M2930 130 c-13 -8 -13 -10 2 -10 9 0 20 5 23 10 8 13 -5 13 -25 0z"/>
<path d="M1528 108 c5 -5 16 -8 23 -6 8 3 3 7 -10 11 -17 4 -21 3 -13 -5z"/>
<path d="M1607 89 c7 -7 15 -10 18 -7 3 3 -2 9 -12 12 -14 6 -15 5 -6 -5z"/>
<path d="M2795 90 c-28 -7 -28 -8 -5 -9 14 0 32 4 40 9 17 11 8 11 -35 0z"/>
<path d="M2740 70 c-9 -6 -10 -10 -3 -10 6 0 15 5 18 10 8 12 4 12 -15 0z"/>
<path d="M2655 50 l-40 -7 37 -2 c20 0 40 4 43 9 3 6 5 9 3 9 -2 -1 -21 -5 -43 -9z"/>
<path d="M1793 43 c9 -2 23 -2 30 0 6 3 -1 5 -18 5 -16 0 -22 -2 -12 -5z"/>
<path d="M2525 30 l-30 -8 27 -1 c15 0 30 4 33 9 3 6 5 9 3 9 -2 -1 -16 -5 -33 -9z"/>
<path d="M1878 23 c12 -2 32 -2 45 0 12 2 2 4 -23 4 -25 0 -35 -2 -22 -4z"/>
<path d="M2000 10 c8 -5 24 -9 35 -9 l20 0 -20 9 c-11 5 -27 9 -35 9 -13 1 -13 0 0 -9z"/>
<path d="M2390 10 c-13 -9 -13 -10 0 -10 8 0 22 5 30 10 13 9 13 10 0 10 -8 0 -22 -5 -30 -10z"/>
</g>
</g>
  <g id="id3:id3" transform="matrix(1.25,0,0,1.25,0.0,0.0)"><g transform="translate(0.000000,202.400000) scale(0.040000,-0.040000)" fill="#0161ba" stroke="none">
<path d="M1343 4793 c-28 -3 -43 -9 -45 -20 -2 -9 -2 -119 0 -245 l3 -228 379 0 380 0 0 250 0 250 -337 -2 c-186 -1 -357 -3 -380 -5z"/>
<path d="M2120 4371 l0 -329 58 -6 c31 -3 161 -4 287 -1 127 2 303 4 393 5 l162 0 -2 328 -3 327 -447 3 -448 2 0 -329z"/>
<path d="M2468 3222 l-208 -2 0 -250 0 -250 389 0 389 0 1 250 2 250 -78 2 c-151 3 -290 3 -495 0z"/>
<path d="M1320 2780 l0 -320 440 0 440 0 0 320 0 320 -440 0 -440 0 0 -320z"/>
<path d="M1320 1460 l0 -240 38 2 c20 1 192 0 382 -1 190 -1 353 -2 363 -2 16 1 17 19 17 241 l0 240 -400 0 -400 0 0 -240z"/>
<path d="M2607 1582 l-427 -2 0 -310 1 -310 440 0 439 0 -2 312 c-2 198 -7 312 -13 312 -5 1 -202 0 -438 -2z"/>
</g>
</g>
  <g id="id4:id4" transform="matrix(1.25,0,0,1.25,0.0,0.0)"><g transform="translate(0.000000,202.400000) scale(0.040000,-0.040000)" fill="#fde607" stroke="none">
<path d="M113 3543 c3 -893 9 -1456 15 -1503 6 -41 13 -100 16 -130 10 -88 46 -248 65 -295 5 -11 15 -40 22 -65 7 -25 26 -71 41 -103 16 -31 28 -62 28 -67 0 -17 120 -244 136 -256 7 -6 14 -16 14 -23 0 -6 18 -37 40 -69 23 -31 52 -73 65 -93 13 -20 52 -66 87 -101 35 -36 77 -81 93 -99 61 -68 191 -179 293 -249 50 -35 227 -140 235 -140 12 0 8 798 -3 805 -6 4 -10 115 -10 299 0 236 3 296 14 305 9 8 140 10 467 9 l454 -3 3 -57 3 -58 457 0 c343 0 461 -3 470 -12 15 -15 17 -739 2 -754 -6 -6 -11 -120 -12 -279 l-3 -270 -882 -3 c-486 -1 -883 -5 -883 -10 0 -12 109 -58 240 -101 357 -118 800 -129 1167 -30 40 10 78 19 85 19 15 0 150 51 223 85 28 13 73 33 100 46 75 34 308 183 357 229 15 14 44 39 65 55 45 36 243 235 243 245 0 4 18 26 40 51 22 24 40 49 40 55 0 6 11 21 25 34 14 13 25 29 25 37 0 7 4 13 9 13 5 0 13 9 16 21 4 12 18 37 32 57 13 20 31 53 39 72 9 19 33 70 55 112 21 42 41 96 43 119 2 23 8 44 14 48 12 7 37 72 57 146 8 28 22 79 32 115 17 61 18 152 21 1643 l2 1577 -2080 0 -2081 0 4 -1427z m2015 1272 l3 -50 462 3 c284 1 468 -2 477 -8 13 -8 15 -66 18 -398 4 -383 3 -390 -17 -409 -20 -18 -21 -31 -23 -299 l-3 -279 -872 -3 c-552 -1 -881 1 -897 8 l-26 10 0 424 c0 272 -4 427 -10 431 -11 7 -14 607 -3 618 3 4 205 6 447 5 l441 -3 3 -50z m970 -1537 c15 -15 17 -599 2 -614 -6 -6 -11 -166 -12 -419 l-3 -410 -905 0 -905 0 -8 280 c-15 578 -18 1027 -6 1041 10 12 86 14 470 12 l459 -3 0 56 c0 31 3 59 7 62 3 4 205 7 448 7 330 0 444 -3 453 -12z"/>
</g>
</g>
  <g id="id5:id5" transform="matrix(1.25,0,0,1.25,0.0,0.0)"><g transform="translate(0.000000,202.400000) scale(0.040000,-0.040000)" fill="#cbb30c" stroke="none">
<path d="M103 3528 c4 -1213 7 -1467 19 -1535 8 -46 18 -86 22 -90 4 -5 5 3 2 17 -26 107 -29 274 -33 1628 l-4 1422 2081 0 2080 0 3 -1537 2 -1538 3 1543 2 1542 -2091 0 -2090 0 4 -1452z"/>
<path d="M1237 4863 c-11 -11 -8 -611 3 -618 6 -4 10 -159 10 -431 l0 -424 26 -10 c16 -7 345 -9 897 -8 l872 3 0 278 0 277 -2 -275 -3 -275 -868 0 c-477 0 -877 3 -889 6 l-23 6 0 424 c0 271 -4 425 -10 429 -6 4 -10 118 -10 311 l0 304 439 0 440 0 3 -51 3 -51 467 1 c371 1 468 -1 474 -11 5 -7 10 -184 12 -392 4 -358 3 -380 -14 -393 -16 -12 -16 -13 -1 -13 9 0 19 11 23 24 3 13 4 193 2 400 -3 321 -5 378 -18 386 -9 6 -193 9 -477 8 l-462 -3 -3 50 -3 50 -441 3 c-242 1 -444 -1 -447 -5z"/>
<path d="M2197 3283 c-4 -3 -6 -34 -5 -67 l1 -61 6 60 6 60 445 0 445 0 3 -299 c1 -193 -1 -303 -8 -310 -6 -6 -10 -155 -10 -418 l0 -408 -900 0 -900 0 -3 265 -2 265 0 -267 0 -268 905 0 905 0 3 410 c1 253 6 413 12 419 15 15 13 599 -2 614 -9 9 -123 12 -453 12 -243 0 -445 -3 -448 -7z"/>
<path d="M1262 3158 c-9 -9 -12 -107 -12 -382 0 -204 4 -376 8 -383 4 -6 7 163 7 375 l0 387 455 5 455 5 -450 3 c-340 1 -454 -1 -463 -10z"/>
<path d="M141 1860 c-1 -37 51 -257 69 -290 5 -10 10 -28 10 -39 0 -11 7 -26 15 -35 8 -8 15 -20 15 -27 0 -7 8 -31 19 -53 32 -71 121 -250 134 -271 7 -11 26 -42 42 -70 16 -27 33 -54 37 -60 149 -189 257 -315 272 -315 4 0 25 -19 49 -42 59 -60 180 -157 261 -210 65 -43 245 -138 262 -138 6 0 17 -7 24 -15 7 -8 26 -19 44 -24 17 -5 81 -27 143 -49 367 -133 825 -148 1223 -43 19 5 46 12 60 16 57 14 106 29 115 35 6 4 39 17 75 30 36 13 76 31 90 40 14 9 45 25 70 35 126 54 391 245 525 380 130 131 259 294 291 368 9 20 20 37 25 37 5 0 9 5 9 12 0 6 6 19 14 27 7 9 28 50 46 91 19 41 39 82 45 90 7 8 22 49 35 90 13 41 29 87 37 103 21 42 73 258 72 297 l-2 35 -7 -40 c-21 -110 -51 -227 -65 -254 -8 -17 -15 -37 -15 -45 0 -8 -7 -22 -16 -31 -9 -9 -18 -34 -20 -56 -2 -22 -22 -75 -43 -117 -22 -42 -46 -93 -55 -112 -8 -19 -26 -52 -39 -72 -14 -20 -28 -45 -32 -57 -3 -12 -11 -21 -16 -21 -5 0 -9 -6 -9 -13 0 -8 -11 -24 -25 -37 -14 -13 -25 -28 -25 -34 0 -6 -18 -31 -40 -55 -22 -25 -40 -47 -40 -51 0 -10 -198 -209 -243 -245 -21 -16 -50 -41 -65 -55 -49 -46 -282 -195 -357 -229 -27 -13 -72 -33 -100 -46 -73 -34 -208 -85 -223 -85 -7 0 -45 -9 -85 -19 -367 -99 -810 -88 -1167 30 -131 43 -240 89 -240 101 0 5 397 9 883 10 l882 3 0 265 0 265 -2 -262 -3 -263 -910 0 -910 0 -2 403 -3 402 -2 -397 c-2 -219 -6 -398 -10 -398 -8 0 -186 106 -235 140 -102 70 -232 181 -293 249 -16 18 -58 63 -93 99 -35 35 -74 81 -87 101 -13 20 -42 62 -65 93 -22 32 -40 63 -40 69 0 7 -7 17 -14 23 -16 12 -136 239 -136 256 0 5 -12 36 -28 67 -15 32 -34 78 -41 103 -7 25 -17 54 -22 65 -12 28 -29 96 -49 195 -12 57 -18 74 -19 50z"/>
<path d="M1262 1758 c-14 -14 -18 -593 -4 -601 4 -3 7 131 7 296 l0 302 458 3 457 2 0 -60 0 -60 468 -2 467 -3 0 -377 c0 -207 3 -374 8 -371 13 8 9 737 -5 751 -9 9 -127 12 -470 12 l-457 0 -3 58 -3 57 -455 3 c-346 2 -459 -1 -468 -10z"/>
</g>
</g>
  <g id="id6:id6" transform="matrix(1.25,0,0,1.25,0.0,0.0)"><g transform="translate(0.000000,202.400000) scale(0.040000,-0.040000)" fill="#534936" stroke="none">
<path d="M1365 5049 c8 -12 205 -10 205 3 0 4 -48 8 -106 8 -71 0 -103 -3 -99 -11z"/>
<path d="M1218 4983 c12 -2 32 -2 45 0 12 2 2 4 -23 4 -25 0 -35 -2 -22 -4z"/>
<path d="M1588 4983 c6 -2 18 -2 25 0 6 3 1 5 -13 5 -14 0 -19 -2 -12 -5z"/>
<path d="M2348 4983 c6 -2 18 -2 25 0 6 3 1 5 -13 5 -14 0 -19 -2 -12 -5z"/>
<path d="M4028 4983 c6 -2 18 -2 25 0 6 3 1 5 -13 5 -14 0 -19 -2 -12 -5z"/>
<path d="M4138 4983 c6 -2 18 -2 25 0 6 3 1 5 -13 5 -14 0 -19 -2 -12 -5z"/>
<path d="M4258 4983 c7 -3 16 -2 19 1 4 3 -2 6 -13 5 -11 0 -14 -3 -6 -6z"/>
<path d="M1240 4556 c0 -168 3 -307 8 -309 4 -3 7 134 7 304 0 170 -3 309 -7 309 -5 0 -8 -137 -8 -304z"/>
<path d="M1278 4853 c7 -3 16 -2 19 1 4 3 -2 6 -13 5 -11 0 -14 -3 -6 -6z"/>
<path d="M1418 4853 c56 -2 148 -2 205 0 56 1 10 3 -103 3 -113 0 -159 -2 -102 -3z"/>
<path d="M1838 4853 c12 -2 32 -2 45 0 12 2 2 4 -23 4 -25 0 -35 -2 -22 -4z"/>
<path d="M2033 4853 c15 -2 37 -2 50 0 12 2 0 4 -28 4 -27 0 -38 -2 -22 -4z"/>
<path d="M1291 4786 c-13 -16 -10 -440 3 -453 4 -4 6 89 6 207 0 118 -1 223 0 232 0 12 11 18 43 21 l42 4 -41 1 c-26 1 -46 -3 -53 -12z"/>
<path d="M2125 4752 c3 -4 214 -7 468 -7 l462 0 6 -90 c4 -49 7 -221 8 -382 1 -268 0 -293 -16 -303 -16 -10 -16 -10 2 -8 20 3 20 11 20 383 0 209 -4 388 -8 398 -6 17 -34 18 -477 16 -259 0 -468 -4 -465 -7z"/>
<path d="M3022 4410 c0 -14 2 -19 5 -12 2 6 2 18 0 25 -3 6 -5 1 -5 -13z"/>
<path d="M3022 4201 c-1 -85 2 -151 6 -146 4 6 5 75 2 155 l-6 145 -2 -154z"/>
<path d="M1692 4243 l367 -3 4 -45 4 -45 -1 47 -1 48 -370 0 -370 0 367 -2z"/>
<path d="M1315 3840 c0 -217 1 -306 2 -197 2 108 2 286 0 395 -1 108 -2 19 -2 -198z"/>
<path d="M1468 4153 c29 -2 74 -2 100 0 26 2 2 3 -53 3 -55 0 -76 -1 -47 -3z"/>
<path d="M1638 4153 c7 -3 16 -2 19 1 4 3 -2 6 -13 5 -11 0 -14 -3 -6 -6z"/>
<path d="M1808 4153 c6 -2 18 -2 25 0 6 3 1 5 -13 5 -14 0 -19 -2 -12 -5z"/>
<path d="M1933 4153 c9 -2 23 -2 30 0 6 3 -1 5 -18 5 -16 0 -22 -2 -12 -5z"/>
<path d="M1671 4133 c0 -12 -7 -24 -13 -26 -10 -4 -9 -8 2 -16 12 -8 16 -6 18 9 2 11 1 28 -1 38 -4 13 -5 12 -6 -5z"/>
<path d="M1743 4105 c0 -27 2 -38 4 -22 2 15 2 37 0 50 -2 12 -4 0 -4 -28z"/>
<path d="M1987 4130 c3 -11 7 -20 9 -20 2 0 4 9 4 20 0 11 -4 20 -9 20 -5 0 -7 -9 -4 -20z"/>
<path d="M1673 4020 c0 -25 2 -35 4 -22 2 12 2 32 0 45 -2 12 -4 2 -4 -23z"/>
<path d="M1742 4030 c0 -14 2 -19 5 -12 2 6 2 18 0 25 -3 6 -5 1 -5 -13z"/>
<path d="M2143 4033 c9 -2 23 -2 30 0 6 3 -1 5 -18 5 -16 0 -22 -2 -12 -5z"/>
<path d="M2433 4033 c15 -2 37 -2 50 0 12 2 0 4 -28 4 -27 0 -38 -2 -22 -4z"/>
<path d="M2608 4033 c7 -3 16 -2 19 1 4 3 -2 6 -13 5 -11 0 -14 -3 -6 -6z"/>
<path d="M2061 4014 c0 -11 3 -14 6 -6 3 7 2 16 -1 19 -3 4 -6 -2 -5 -13z"/>
<path d="M1410 3981 c0 -22 43 -31 149 -30 61 1 111 4 111 8 0 3 -51 5 -114 3 -94 -2 -116 0 -130 13 -9 9 -16 12 -16 6z"/>
<path d="M2932 3978 c-7 -7 -12 -20 -12 -29 0 -10 -5 -20 -10 -22 -6 -3 -5 -4 2 -3 7 1 15 13 18 27 4 17 13 24 28 23 12 0 22 3 22 8 0 12 -34 10 -48 -4z"/>
<path d="M2365 3973 c122 -4 125 -4 125 -26 0 -29 18 -47 45 -46 17 1 16 2 -5 8 -18 5 -26 16 -30 36 l-5 30 -128 0 -127 1 125 -3z"/>
<path d="M2589 3963 c-13 -16 -12 -17 4 -4 9 7 17 15 17 17 0 8 -8 3 -21 -13z"/>
<path d="M2688 3973 c7 -3 16 -2 19 1 4 3 -2 6 -13 5 -11 0 -14 -3 -6 -6z"/>
<path d="M2817 3970 c12 -5 26 -17 32 -27 6 -10 11 -13 11 -7 0 15 -34 44 -51 43 -8 0 -4 -4 8 -9z"/>
<path d="M1749 3957 c4 -4 46 -7 92 -5 l84 3 -92 5 c-51 3 -89 1 -84 -3z"/>
<path d="M1953 3953 c9 -2 25 -2 35 0 9 3 1 5 -18 5 -19 0 -27 -2 -17 -5z"/>
<path d="M2128 3935 c2 -14 8 -27 12 -30 4 -2 5 7 2 20 -2 14 -8 27 -12 30 -4 2 -5 -7 -2 -20z"/>
<path d="M2203 3933 c-3 -10 -8 -22 -11 -27 -3 -5 0 -6 5 -3 11 7 25 47 17 47 -3 0 -7 -8 -11 -17z"/>
<path d="M2565 3929 c-4 -6 -5 -12 -2 -15 2 -3 7 2 10 11 7 17 1 20 -8 4z"/>
<path d="M1417 3793 c-3 -5 -6 -48 -8 -97 -3 -73 -1 -90 11 -93 10 -3 11 -2 4 4 -8 6 -10 36 -5 101 6 92 6 99 -2 85z"/>
<path d="M1577 3793 l132 -4 7 -34 c3 -18 4 -59 2 -89 -1 -31 0 -56 5 -56 4 0 7 40 7 89 0 72 -3 90 -16 95 -9 3 -73 5 -142 4 l-127 -2 132 -3z"/>
<path d="M1886 3792 c-2 -4 11 -6 30 -4 19 2 34 6 34 8 0 8 -59 4 -64 -4z"/>
<path d="M1976 3787 c3 -10 9 -15 12 -12 3 3 0 11 -7 18 -10 9 -11 8 -5 -6z"/>
<path d="M1983 3710 c0 -30 2 -43 4 -27 2 15 2 39 0 55 -2 15 -4 2 -4 -28z"/>
<path d="M2325 3750 c-16 -7 -17 -9 -3 -9 9 -1 20 4 23 9 7 11 7 11 -20 0z"/>
<path d="M2413 3753 c9 -2 23 -2 30 0 6 3 -1 5 -18 5 -16 0 -22 -2 -12 -5z"/>
<path d="M2460 3741 c0 -5 9 -13 20 -16 11 -3 20 -12 20 -19 0 -7 10 -21 22 -32 l21 -19 -19 33 c-19 33 -64 70 -64 53z"/>
<path d="M2263 3706 c-18 -17 -33 -34 -33 -37 0 -4 17 8 37 27 20 19 35 35 32 37 -2 2 -19 -11 -36 -27z"/>
<path d="M1882 3670 c0 -14 2 -19 5 -12 2 6 2 18 0 25 -3 6 -5 1 -5 -13z"/>
<path d="M2544 3551 c1 -84 4 -105 16 -108 11 -3 12 -2 3 4 -8 6 -14 45 -16 108 l-3 100 0 -104z"/>
<path d="M2222 3620 c0 -14 2 -19 5 -12 2 6 2 18 0 25 -3 6 -5 1 -5 -13z"/>
<path d="M1998 3619 c13 -18 72 -31 72 -17 0 4 -13 8 -28 8 -15 0 -34 6 -42 13 -12 10 -12 9 -2 -4z"/>
<path d="M2790 3615 c-7 -9 -11 -17 -9 -20 3 -2 10 5 17 15 14 24 10 26 -8 5z"/>
<path d="M2850 3626 c0 -2 8 -10 18 -17 15 -13 16 -12 3 4 -13 16 -21 21 -21 13z"/>
<path d="M1498 3603 c34 -2 90 -2 125 0 34 2 6 3 -63 3 -69 0 -97 -1 -62 -3z"/>
<path d="M1759 3573 l-24 -28 28 24 c25 23 32 31 24 31 -2 0 -14 -12 -28 -27z"/>
<path d="M1948 3593 c6 -2 18 -2 25 0 6 3 1 5 -13 5 -14 0 -19 -2 -12 -5z"/>
<path d="M2020 3577 c29 -15 34 -34 25 -93 l-6 -45 -147 3 -147 3 0 45 c0 33 -4 45 -15 45 -8 0 -15 -8 -16 -18 -1 -12 -1 -13 3 -2 9 30 21 14 16 -23 -8 -59 3 -63 168 -60 141 3 144 4 147 26 2 12 7 22 11 22 4 0 13 -10 20 -22 8 -17 10 -17 5 -3 -4 11 -9 40 -12 65 -5 47 -23 69 -57 70 -17 0 -17 -2 5 -13z"/>
<path d="M2877 3571 c-2 -11 -1 -35 3 -53 7 -30 8 -28 9 20 1 54 -3 66 -12 33z"/>
<path d="M1774 3548 l-19 -23 23 19 c21 18 27 26 19 26 -2 0 -12 -10 -23 -22z"/>
<path d="M42 3523 c-26 -5 -20 -23 9 -23 10 0 19 7 19 15 0 8 -1 14 -2 14 -2 -1 -13 -4 -26 -6z"/>
<path d="M2222 3505 c0 -16 2 -22 5 -12 2 9 2 23 0 30 -3 6 -5 -1 -5 -18z"/>
<path d="M1709 3470 l-4 -25 -195 -5 -195 -6 190 -2 c105 -1 196 2 203 7 8 4 12 19 10 32 l-4 24 -5 -25z"/>
<path d="M2890 3474 c0 -21 28 -35 62 -31 l33 4 -37 1 c-23 1 -41 8 -47 20 -6 9 -11 12 -11 6z"/>
<path d="M2762 3454 c-7 -8 -8 -14 -3 -14 10 0 25 19 20 25 -2 1 -10 -3 -17 -11z"/>
<path d="M62 3430 c0 -14 2 -19 5 -12 2 6 2 18 0 25 -3 6 -5 1 -5 -13z"/>
<path d="M2175 3440 l-40 -7 43 -2 c23 0 42 4 42 9 0 6 -1 9 -2 9 -2 -1 -21 -5 -43 -9z"/>
<path d="M2108 3433 c7 -3 16 -2 19 1 4 3 -2 6 -13 5 -11 0 -14 -3 -6 -6z"/>
<path d="M2618 3433 c18 -2 45 -2 60 0 15 2 0 4 -33 4 -33 0 -45 -2 -27 -4z"/>
<path d="M3031 3414 c0 -11 3 -14 6 -6 3 7 2 16 -1 19 -3 4 -6 -2 -5 -13z"/>
<path d="M1260 3400 c0 -5 5 -10 11 -10 5 0 7 5 4 10 -3 6 -8 10 -11 10 -2 0 -4 -4 -4 -10z"/>
<path d="M2204 3265 c-3 -8 -4 -20 -1 -27 3 -7 6 -3 6 10 l1 22 444 -2 c244 -2 442 0 439 5 -2 4 -202 7 -444 7 -377 0 -440 -2 -445 -15z"/>
<path d="M2528 3223 c29 -2 74 -2 100 0 26 2 2 3 -53 3 -55 0 -76 -1 -47 -3z"/>
<path d="M2717 3223 c18 -2 50 -2 70 0 21 2 7 4 -32 4 -38 0 -55 -2 -38 -4z"/>
<path d="M2917 3223 c18 -2 50 -2 70 0 21 2 7 4 -32 4 -38 0 -55 -2 -38 -4z"/>
<path d="M1267 3153 c-9 -9 -9 -745 1 -760 4 -6 6 161 4 371 l-3 383 463 2 c254 1 464 4 467 6 2 3 -205 5 -461 5 -255 0 -468 -3 -471 -7z"/>
<path d="M1878 3103 c7 -3 16 -2 19 1 4 3 -2 6 -13 5 -11 0 -14 -3 -6 -6z"/>
<path d="M2058 3103 c7 -3 16 -2 19 1 4 3 -2 6 -13 5 -11 0 -14 -3 -6 -6z"/>
<path d="M3092 2803 c-1 -86 -6 -123 -14 -126 -7 -2 -10 -8 -5 -12 20 -22 27 19 24 136 l-3 124 -2 -122z"/>
<path d="M2868 2673 c7 -3 16 -2 19 1 4 3 -2 6 -13 5 -11 0 -14 -3 -6 -6z"/>
<path d="M2953 2673 c9 -2 23 -2 30 0 6 3 -1 5 -18 5 -16 0 -22 -2 -12 -5z"/>
<path d="M2348 2663 c46 -2 118 -2 160 0 42 1 5 3 -83 3 -88 0 -123 -2 -77 -3z"/>
<path d="M3006 2660 c7 -8 14 -24 17 -35 4 -19 5 -19 6 1 0 12 -7 28 -16 35 -16 12 -17 12 -7 -1z"/>
<path d="M2254 2555 c0 -55 1 -76 3 -47 2 29 2 74 0 100 -2 26 -3 2 -3 -53z"/>
<path d="M2360 2590 c-8 -5 -10 -10 -5 -10 6 0 17 5 25 10 8 5 11 10 5 10 -5 0 -17 -5 -25 -10z"/>
<path d="M2408 2593 c6 -2 18 -2 25 0 6 3 1 5 -13 5 -14 0 -19 -2 -12 -5z"/>
<path d="M2515 2595 c23 -8 83 -10 79 -3 -3 4 -24 8 -47 7 -23 0 -37 -2 -32 -4z"/>
<path d="M2674 2587 c-3 -8 -3 -47 -1 -88 l3 -74 2 82 c1 54 6 83 15 86 9 4 9 6 -1 6 -7 1 -15 -5 -18 -12z"/>
<path d="M3023 2545 c0 -33 2 -45 4 -27 2 18 2 45 0 60 -2 15 -4 0 -4 -33z"/>
<path d="M2768 2583 c23 -2 61 -2 85 0 23 2 4 4 -43 4 -47 0 -66 -2 -42 -4z"/>
<path d="M2937 2535 c3 -33 7 -62 9 -64 7 -8 2 63 -7 94 -5 20 -6 9 -2 -30z"/>
<path d="M2588 2554 c-4 -3 -3 -15 3 -26 6 -11 9 -44 7 -73 -1 -29 0 -51 5 -48 8 5 8 98 -2 131 -3 13 -9 20 -13 16z"/>
<path d="M3024 2450 c0 -13 4 -16 10 -10 7 7 7 13 0 20 -6 6 -10 3 -10 -10z"/>
<path d="M2932 2435 c0 -16 2 -22 5 -12 2 9 2 23 0 30 -3 6 -5 -1 -5 -18z"/>
<path d="M1358 2403 c15 -3 29 -17 37 -36 8 -18 14 -25 15 -17 0 27 -30 60 -53 59 -21 -2 -21 -2 1 -6z"/>
<path d="M1483 2398 c-16 -21 -23 -47 -14 -53 5 -2 11 8 14 24 4 20 13 31 29 34 22 4 22 4 2 6 -12 0 -26 -5 -31 -11z"/>
<path d="M1578 2403 c23 -2 59 -2 80 0 20 2 1 4 -43 4 -44 0 -61 -2 -37 -4z"/>
<path d="M1898 2403 c28 -2 76 -2 105 0 28 2 5 3 -53 3 -58 0 -81 -1 -52 -3z"/>
<path d="M2160 2385 c-13 -14 -22 -27 -19 -29 2 -2 14 10 27 25 29 36 24 38 -8 4z"/>
<path d="M2398 2403 c29 -2 74 -2 100 0 26 2 2 3 -53 3 -55 0 -76 -1 -47 -3z"/>
<path d="M2723 2403 c20 -2 54 -2 75 0 20 2 3 4 -38 4 -41 0 -58 -2 -37 -4z"/>
<path d="M2898 2403 c7 -3 16 -2 19 1 4 3 -2 6 -13 5 -11 0 -14 -3 -6 -6z"/>
<path d="M3024 2160 c0 -140 2 -198 3 -127 2 70 2 184 0 255 -1 70 -3 12 -3 -128z"/>
<path d="M1812 2388 c-5 -7 -12 -22 -14 -33 -4 -24 -48 -34 -48 -12 0 8 -7 20 -15 27 -12 10 -12 7 1 -20 17 -33 51 -39 64 -10 4 8 12 25 19 38 12 24 9 29 -7 10z"/>
<path d="M1334 2150 c0 -135 2 -190 3 -122 2 67 2 177 0 245 -1 67 -3 12 -3 -123z"/>
<path d="M3074 2110 c0 -135 2 -190 3 -122 2 67 2 177 0 245 -1 67 -3 12 -3 -123z"/>
<path d="M1423 2323 c9 -2 23 -2 30 0 6 3 -1 5 -18 5 -16 0 -22 -2 -12 -5z"/>
<path d="M61 2274 c0 -11 3 -14 6 -6 3 7 2 16 -1 19 -3 4 -6 -2 -5 -13z"/>
<path d="M97 2186 c-5 -39 -3 -102 3 -150 37 -281 46 -330 91 -466 35 -105 51 -145 74 -190 13 -25 38 -74 56 -110 49 -103 73 -144 87 -153 6 -4 12 -13 12 -18 0 -6 9 -22 20 -36 11 -14 18 -29 15 -33 -3 -4 15 -29 39 -54 25 -25 50 -62 57 -81 7 -19 18 -35 25 -35 6 0 29 -21 50 -47 48 -59 133 -143 145 -143 5 0 9 -6 9 -12 0 -7 16 -24 35 -37 27 -18 34 -29 30 -45 -5 -15 -4 -17 3 -7 8 11 18 8 53 -17 24 -16 53 -39 63 -51 11 -11 23 -21 27 -21 5 0 32 -18 61 -40 29 -22 56 -40 60 -40 4 0 44 -20 89 -45 45 -25 86 -45 91 -45 6 0 22 -9 37 -19 15 -11 40 -23 57 -26 16 -4 -23 20 -86 52 -101 52 -202 108 -236 131 -51 33 -82 57 -169 128 -208 171 -354 338 -478 544 -74 124 -188 375 -216 475 -13 44 -27 89 -31 101 -5 12 -13 57 -20 100 -6 43 -16 102 -21 129 -6 28 -13 113 -17 190 -7 135 -8 138 -15 71z"/>
<path d="M2380 2242 c0 -5 14 -7 30 -4 17 2 30 6 30 8 0 2 -13 4 -30 4 -16 0 -30 -4 -30 -8z"/>
<path d="M2472 2225 c0 -16 2 -22 5 -12 2 9 2 23 0 30 -3 6 -5 -1 -5 -18z"/>
<path d="M2626 2234 c-9 -23 -7 -31 4 -14 13 21 288 28 302 8 8 -10 9 -10 5 2 -3 12 -30 15 -154 18 -131 2 -151 0 -157 -14z"/>
<path d="M1 2195 c0 -22 7 -71 14 -110 l14 -70 -6 95 c-6 96 -23 163 -22 85z"/>
<path d="M2370 2148 c0 -67 -3 -81 -22 -100 -18 -18 -22 -34 -23 -83 0 -47 3 -61 15 -61 12 0 14 11 12 46 -4 50 6 65 48 73 l25 4 -27 2 c-15 0 -33 -6 -42 -14 -17 -18 -26 -19 -26 -4 0 6 10 19 22 29 18 14 24 32 29 86 3 38 2 76 -2 84 -5 9 -9 -17 -9 -62z"/>
<path d="M2623 2135 c0 -38 2 -53 4 -32 2 20 2 52 0 70 -2 17 -4 1 -4 -38z"/>
<path d="M1933 2182 c-8 -5 1 -8 22 -8 19 0 35 4 35 8 0 10 -41 10 -57 0z"/>
<path d="M2471 2149 c-2 -55 17 -96 47 -108 26 -9 25 -10 -13 -11 -39 -2 -39 -3 13 -10 29 -4 65 -16 80 -26 15 -10 30 -18 33 -17 3 1 5 -15 4 -35 -2 -30 2 -38 15 -39 16 -1 16 3 6 37 -14 48 -13 47 -94 90 l-67 36 -11 59 c-10 50 -12 54 -13 24z"/>
<path d="M1874 2148 l-19 -23 25 20 c14 11 27 21 29 22 2 2 0 3 -6 3 -5 0 -18 -10 -29 -22z"/>
<path d="M2073 2158 c10 -7 28 -31 42 -53 13 -22 25 -35 25 -29 0 17 -59 94 -72 94 -6 0 -4 -6 5 -12z"/>
<path d="M2928 2109 c-2 -8 1 -25 9 -39 11 -22 13 -22 12 -5 0 11 -4 29 -8 39 -6 15 -9 16 -13 5z"/>
<path d="M1436 2058 c-10 -14 -15 -41 -15 -73 l2 -50 6 57 c7 67 18 81 57 76 28 -3 29 -4 32 -70 2 -55 0 -68 -12 -68 -8 0 -18 -4 -21 -10 -3 -6 1 -7 10 -4 8 4 21 2 28 -4 9 -8 11 6 9 66 -2 42 -8 83 -14 90 -17 20 -65 14 -82 -10z"/>
<path d="M1832 2050 c0 -14 2 -19 5 -12 2 6 2 18 0 25 -3 6 -5 1 -5 -13z"/>
<path d="M1475 2040 c-3 -5 -1 -10 4 -10 6 0 11 5 11 10 0 6 -2 10 -4 10 -3 0 -8 -4 -11 -10z"/>
<path d="M2693 2023 c9 -2 23 -2 30 0 6 3 -1 5 -18 5 -16 0 -22 -2 -12 -5z"/>
<path d="M2753 2023 c9 -2 23 -2 30 0 6 3 -1 5 -18 5 -16 0 -22 -2 -12 -5z"/>
<path d="M2828 2023 c12 -2 32 -2 45 0 12 2 2 4 -23 4 -25 0 -35 -2 -22 -4z"/>
<path d="M32 1955 c-1 -16 3 -48 7 -70 11 -53 12 -5 2 55 -6 34 -9 37 -9 15z"/>
<path d="M2141 1964 c0 -11 3 -14 6 -6 3 7 2 16 -1 19 -3 4 -6 -2 -5 -13z"/>
<path d="M1832 1945 c0 -16 2 -22 5 -12 2 9 2 23 0 30 -3 6 -5 -1 -5 -18z"/>
<path d="M1415 1910 c-3 -5 -1 -10 4 -10 6 0 11 5 11 10 0 6 -2 10 -4 10 -3 0 -8 -4 -11 -10z"/>
<path d="M2197 1893 c18 -2 50 -2 70 0 21 2 7 4 -32 4 -38 0 -55 -2 -38 -4z"/>
<path d="M2433 1893 c31 -2 83 -2 115 0 31 2 5 3 -58 3 -63 0 -89 -1 -57 -3z"/>
<path d="M2708 1893 c17 -2 47 -2 65 0 17 2 3 4 -33 4 -36 0 -50 -2 -32 -4z"/>
<path d="M2863 1893 c9 -2 25 -2 35 0 9 3 1 5 -18 5 -19 0 -27 -2 -17 -5z"/>
<path d="M2968 1893 c12 -2 30 -2 40 0 9 3 -1 5 -23 4 -22 0 -30 -2 -17 -4z"/>
<path d="M1795 1870 c-3 -5 -1 -10 4 -10 6 0 11 5 11 10 0 6 -2 10 -4 10 -3 0 -8 -4 -11 -10z"/>
<path d="M4271 1829 c-1 -39 -36 -188 -60 -254 -12 -33 -33 -93 -46 -133 -31 -91 -135 -305 -156 -322 -4 -3 -14 -21 -23 -40 -50 -110 -300 -394 -440 -501 -149 -112 -288 -203 -371 -242 -22 -10 -49 -24 -60 -30 -11 -6 -36 -19 -55 -30 -19 -10 -27 -16 -17 -13 10 3 30 6 44 6 15 0 23 3 20 7 -7 7 118 72 141 73 6 0 12 5 12 10 0 6 17 18 38 28 20 9 41 23 45 30 5 8 17 10 30 7 58 -17 62 -17 34 3 l-28 19 25 17 c14 9 34 16 46 16 11 0 20 6 20 13 0 16 38 40 50 32 6 -4 10 0 10 7 0 13 115 118 130 118 4 0 10 9 13 21 4 15 11 19 25 15 15 -5 21 -1 26 16 3 13 26 46 51 73 25 28 53 60 63 72 9 13 22 23 29 23 7 0 13 5 13 10 0 20 53 90 67 90 10 0 14 7 10 20 -3 11 1 23 7 28 7 4 19 17 25 30 7 13 22 27 34 32 17 7 18 9 5 9 -10 1 -18 4 -18 9 1 16 28 42 45 42 11 0 15 5 11 15 -6 17 31 107 50 118 8 4 14 18 14 31 0 13 6 29 14 35 8 7 17 30 21 52 4 22 13 43 21 46 9 3 11 14 7 35 -4 21 -3 29 4 25 7 -4 13 10 17 37 4 25 14 50 21 56 8 7 15 23 15 36 0 12 7 30 16 39 13 12 14 19 5 28 -16 16 -14 47 4 53 16 7 19 56 5 89 -8 18 -9 18 -9 -6z"/>
<path d="M52 1820 c0 -14 4 -36 8 -50 6 -20 8 -21 8 -5 0 11 -4 34 -8 50 -7 27 -8 27 -8 5z"/>
<path d="M4340 1793 c0 -28 3 -34 10 -23 13 20 13 60 0 60 -5 0 -10 -17 -10 -37z"/>
<path d="M1267 1753 c-4 -3 -7 -11 -7 -17 0 -7 3 -6 8 1 6 10 111 13 448 16 l439 2 -441 3 c-242 1 -444 -1 -447 -5z"/>
<path d="M79 1688 c4 -28 6 -29 9 -9 2 13 0 27 -5 32 -6 6 -7 -3 -4 -23z"/>
<path d="M4321 1684 c0 -11 3 -14 6 -6 3 7 2 16 -1 19 -3 4 -6 -2 -5 -13z"/>
<path d="M98 1613 c5 -21 7 -23 10 -9 2 10 0 22 -6 28 -6 6 -7 0 -4 -19z"/>
<path d="M3048 1631 c23 -4 47 -12 52 -17 7 -7 10 -139 8 -372 -2 -198 0 -358 5 -353 4 4 6 173 5 377 l-3 369 -55 2 c-53 1 -54 1 -12 -6z"/>
<path d="M111 1570 c0 -8 4 -22 9 -30 12 -18 12 -2 0 25 -6 13 -9 15 -9 5z"/>
<path d="M130 1505 c0 -5 5 -17 10 -25 5 -8 10 -10 10 -5 0 6 -5 17 -10 25 -5 8 -10 11 -10 5z"/>
<path d="M3060 1225 c0 -137 3 -245 7 -241 8 7 5 477 -3 485 -2 2 -4 -107 -4 -244z"/>
<path d="M150 1455 c0 -5 5 -17 10 -25 5 -8 10 -10 10 -5 0 6 -5 17 -10 25 -5 8 -10 11 -10 5z"/>
<path d="M176 1385 c4 -8 11 -15 16 -15 6 0 5 6 -2 15 -7 8 -14 15 -16 15 -2 0 -1 -7 2 -15z"/>
<path d="M4216 1365 c4 -8 8 -15 10 -15 2 0 4 7 4 15 0 8 -4 15 -10 15 -5 0 -7 -7 -4 -15z"/>
<path d="M196 1337 c3 -10 9 -15 12 -12 3 3 0 11 -7 18 -10 9 -11 8 -5 -6z"/>
<path d="M4195 1310 c-16 -7 -17 -9 -3 -9 9 -1 20 4 23 9 7 11 7 11 -20 0z"/>
<path d="M221 1284 c0 -11 3 -14 6 -6 3 7 2 16 -1 19 -3 4 -6 -2 -5 -13z"/>
<path d="M4170 1256 c0 -13 -5 -27 -10 -29 -6 -3 -5 -4 2 -3 14 3 31 56 17 56 -5 0 -9 -11 -9 -24z"/>
<path d="M238 1235 c2 -13 12 -30 21 -37 13 -10 14 -10 4 2 -7 8 -13 22 -13 31 0 10 -4 20 -9 23 -4 3 -6 -6 -3 -19z"/>
<path d="M1368 1223 c7 -3 16 -2 19 1 4 3 -2 6 -13 5 -11 0 -14 -3 -6 -6z"/>
<path d="M1953 1213 c9 -2 23 -2 30 0 6 3 -1 5 -18 5 -16 0 -22 -2 -12 -5z"/>
<path d="M4100 1200 c0 -5 5 -10 10 -10 6 0 10 5 10 10 0 6 -4 10 -10 10 -5 0 -10 -4 -10 -10z"/>
<path d="M4131 1174 c0 -11 3 -14 6 -6 3 7 2 16 -1 19 -3 4 -6 -2 -5 -13z"/>
<path d="M281 1164 c9 -10 19 -26 22 -34 4 -11 6 -9 6 5 1 11 -9 26 -21 34 -22 13 -22 13 -7 -5z"/>
<path d="M1334 1157 c-2 -7 -3 -118 -1 -247 l2 -235 3 242 2 242 78 4 77 3 -78 2 c-55 1 -79 -2 -83 -11z"/>
<path d="M1658 1163 c83 -2 221 -2 305 0 83 1 15 3 -153 3 -168 0 -236 -2 -152 -3z"/>
<path d="M2123 1095 c0 -38 2 -53 4 -32 2 20 2 52 0 70 -2 17 -4 1 -4 -38z"/>
<path d="M4110 1130 c0 -11 -4 -20 -10 -20 -5 0 -10 5 -10 12 0 6 -3 9 -6 5 -3 -3 -2 -13 4 -22 8 -16 11 -15 26 6 18 27 20 39 6 39 -5 0 -10 -9 -10 -20z"/>
<path d="M4050 1110 c0 -5 5 -10 11 -10 5 0 7 5 4 10 -3 6 -8 10 -11 10 -2 0 -4 -4 -4 -10z"/>
<path d="M316 1097 c3 -10 9 -15 12 -12 3 3 0 11 -7 18 -10 9 -11 8 -5 -6z"/>
<path d="M1975 1075 c23 -8 83 -10 79 -3 -3 4 -24 8 -47 7 -23 0 -37 -2 -32 -4z"/>
<path d="M4067 1060 c-19 -22 -22 -35 -7 -25 10 6 34 45 28 45 -2 0 -11 -9 -21 -20z"/>
<path d="M1645 1063 l55 -4 0 -74 c0 -40 -4 -85 -10 -99 -8 -23 -16 -26 -62 -28 l-53 -2 47 -3 c82 -7 89 2 86 115 l-3 97 -58 1 -57 1 55 -4z"/>
<path d="M1798 1063 c12 -2 32 -2 45 0 12 2 2 4 -23 4 -25 0 -35 -2 -22 -4z"/>
<path d="M1898 1063 c12 -2 30 -2 40 0 9 3 -1 5 -23 4 -22 0 -30 -2 -17 -4z"/>
<path d="M350 1047 c0 -12 128 -193 147 -208 9 -8 3 4 -13 26 -17 22 -54 73 -83 114 -28 41 -51 72 -51 68z"/>
<path d="M1421 1034 c0 -11 3 -14 6 -6 3 7 2 16 -1 19 -3 4 -6 -2 -5 -13z"/>
<path d="M1771 1034 c0 -11 3 -14 6 -6 3 7 2 16 -1 19 -3 4 -6 -2 -5 -13z"/>
<path d="M1500 1030 c0 -5 7 -10 15 -10 8 0 15 5 15 10 0 6 -7 10 -15 10 -8 0 -15 -4 -15 -10z"/>
<path d="M4026 992 l-19 -27 24 22 c12 12 21 24 18 27 -2 2 -13 -8 -23 -22z"/>
<path d="M1432 975 c0 -16 2 -22 5 -12 2 9 2 23 0 30 -3 6 -5 -1 -5 -18z"/>
<path d="M2052 950 c0 -19 2 -27 5 -17 2 9 2 25 0 35 -3 9 -5 1 -5 -18z"/>
<path d="M3969 905 c-13 -19 -29 -33 -36 -31 -8 3 -10 -1 -6 -11 5 -13 11 -11 30 13 26 32 46 64 40 64 -3 0 -15 -16 -28 -35z"/>
<path d="M2393 903 c26 -2 68 -2 95 0 26 2 4 3 -48 3 -52 0 -74 -1 -47 -3z"/>
<path d="M2765 903 c63 -3 102 -8 107 -16 5 -8 8 -7 8 6 0 15 -11 17 -107 15 l-108 -2 100 -3z"/>
<path d="M2910 897 c0 -9 5 -19 10 -22 6 -3 10 -16 11 -28 0 -17 4 -13 13 13 11 31 17 35 54 38 l41 3 4 -113 3 -113 -1 115 0 115 -38 3 c-21 2 -45 -2 -53 -9 -11 -9 -17 -9 -29 1 -12 10 -15 10 -15 -3z"/>
<path d="M2044 876 c-9 -20 -9 -23 2 -19 8 3 14 14 14 24 0 25 -3 24 -16 -5z"/>
<path d="M2219 862 c4 -22 12 -37 21 -38 9 0 10 1 3 3 -7 3 -13 17 -13 33 0 16 -4 31 -8 34 -5 3 -6 -11 -3 -32z"/>
<path d="M2551 883 c-2 -36 10 -53 38 -53 21 0 28 7 37 35 9 29 9 33 -2 24 -8 -6 -14 -20 -14 -31 0 -33 -44 -19 -51 17 -5 22 -7 24 -8 8z"/>
<path d="M1424 865 c1 -13 8 -20 24 -21 17 -1 18 -1 3 3 -11 2 -22 12 -24 21 -3 12 -4 11 -3 -3z"/>
<path d="M2294 882 c-14 -9 -25 -52 -13 -52 5 0 9 9 9 20 0 10 8 24 18 29 9 6 13 10 7 11 -5 0 -15 -4 -21 -8z"/>
<path d="M2880 856 c0 -8 4 -17 9 -20 5 -4 7 3 4 14 -6 23 -13 26 -13 6z"/>
<path d="M1858 853 c29 -2 74 -2 100 0 26 2 2 3 -53 3 -55 0 -76 -1 -47 -3z"/>
<path d="M3900 835 c0 -8 -4 -15 -10 -15 -5 0 -10 -8 -10 -18 0 -26 -11 -34 -27 -21 -9 9 -13 8 -13 0 0 -6 5 -11 12 -11 6 0 -1 -15 -18 -32 -19 -22 -21 -26 -5 -13 13 11 41 41 62 66 31 37 36 48 24 53 -9 3 -15 0 -15 -9z"/>
<path d="M540 780 c11 -16 26 -33 32 -36 7 -4 -1 9 -16 29 -34 44 -46 50 -16 7z"/>
<path d="M1440 714 c-6 -14 -10 -61 -10 -104 0 -81 6 -92 48 -89 10 1 6 4 -8 8 -24 7 -25 9 -25 99 0 72 3 95 15 102 10 7 11 10 2 10 -7 0 -17 -12 -22 -26z"/>
<path d="M1757 733 c6 -5 14 -29 16 -53 l4 -45 -1 49 c-1 35 -5 51 -16 53 -10 3 -11 2 -3 -4z"/>
<path d="M1942 728 c-7 -7 -12 -16 -12 -22 0 -5 6 -3 13 6 6 9 23 19 37 21 l25 4 -25 2 c-15 0 -31 -4 -38 -11z"/>
<path d="M2027 734 c13 -3 23 -15 26 -30 4 -21 4 -21 3 3 -1 22 -6 28 -26 30 -21 1 -21 0 -3 -3z"/>
<path d="M680 637 c52 -53 96 -97 97 -97 11 0 -24 38 -101 110 l-91 85 95 -98z"/>
<path d="M2372 702 c-8 -6 -2 -9 18 -9 20 0 26 3 18 9 -7 4 -15 8 -18 8 -3 0 -11 -4 -18 -8z"/>
<path d="M3789 683 c-13 -16 -12 -17 4 -4 16 13 21 21 13 21 -2 0 -10 -8 -17 -17z"/>
<path d="M2285 648 l-40 -43 43 40 c39 36 47 45 39 45 -2 0 -21 -19 -42 -42z"/>
<path d="M2496 664 c17 -16 34 -38 38 -48 3 -10 9 -16 13 -12 9 9 -27 56 -57 74 -20 12 -18 9 6 -14z"/>
<path d="M1333 590 c0 -47 2 -66 4 -42 2 23 2 61 0 85 -2 23 -4 4 -4 -43z"/>
<path d="M3748 653 c-18 -21 -31 -43 -25 -43 2 0 13 14 25 30 25 33 24 41 0 13z"/>
<path d="M2052 610 c0 -19 2 -27 5 -17 2 9 2 25 0 35 -3 9 -5 1 -5 -18z"/>
<path d="M1773 590 c0 -25 2 -35 4 -22 2 12 2 32 0 45 -2 12 -4 2 -4 -23z"/>
<path d="M3052 551 c-1 -47 2 -81 6 -75 5 5 5 43 2 84 l-7 75 -1 -84z"/>
<path d="M2850 592 c-19 -16 -20 -21 -11 -67 l10 -50 -4 51 c-3 47 -2 52 21 63 14 6 31 11 38 11 22 0 35 -45 29 -107 -5 -54 -3 -62 18 -82 17 -16 34 -21 59 -19 32 3 35 5 36 38 l2 35 -5 -32 c-4 -30 -8 -33 -37 -33 -47 0 -59 20 -58 96 2 87 -9 114 -47 114 -16 0 -39 -8 -51 -18z"/>
<path d="M3640 548 c-36 -33 -47 -47 -25 -30 38 29 104 92 94 92 -2 -1 -33 -28 -69 -62z"/>
<path d="M1933 590 c2 -8 -5 -21 -17 -28 -20 -12 -20 -13 4 -6 33 9 34 10 20 31 -7 11 -10 12 -7 3z"/>
<path d="M2553 515 c0 -44 2 -61 4 -37 2 23 2 59 0 80 -2 20 -4 1 -4 -43z"/>
<path d="M1845 532 c-17 -15 -44 -37 -60 -50 -17 -12 -22 -19 -12 -16 13 5 16 2 11 -9 -3 -9 -12 -13 -20 -10 -10 4 -14 -2 -14 -21 l0 -25 -117 -4 -118 -3 118 -2 c97 -2 119 1 123 13 4 8 10 15 15 15 5 0 9 -7 9 -15 0 -13 24 -15 159 -15 101 0 162 4 166 10 5 8 12 7 23 -2 14 -10 15 -10 5 2 -8 8 -13 42 -13 82 0 43 -4 68 -11 68 -6 0 -9 -9 -6 -19 4 -15 1 -18 -12 -13 -14 5 -14 3 -3 -10 8 -10 12 -35 10 -60 l-3 -43 -146 -3 c-118 -2 -148 0 -158 12 -28 34 45 97 124 107 l50 6 -55 2 c-51 1 -53 3 -36 16 11 8 16 15 10 15 -5 0 -23 -13 -39 -28z"/>
<path d="M2252 520 c0 -14 2 -19 5 -12 2 6 2 18 0 25 -3 6 -5 1 -5 -13z"/>
<path d="M1628 523 c23 -2 61 -2 85 0 23 2 4 4 -43 4 -47 0 -66 -2 -42 -4z"/>
<path d="M815 514 c6 -5 27 -25 48 -43 20 -19 37 -32 37 -28 0 9 -51 56 -75 69 -11 6 -15 7 -10 2z"/>
<path d="M3546 486 c3 -7 -2 -19 -11 -26 -12 -10 -18 -10 -30 0 -9 7 -15 8 -15 2 0 -23 34 -22 58 1 20 20 21 25 8 30 -10 4 -13 1 -10 -7z"/>
<path d="M1332 470 c0 -14 2 -19 5 -12 2 6 2 18 0 25 -3 6 -5 1 -5 -13z"/>
<path d="M2836 443 c8 -30 -16 -42 -96 -46 l-75 -3 83 -2 c52 -1 81 -6 77 -12 -3 -6 4 -10 17 -10 22 1 22 1 5 14 -16 12 -16 17 -5 35 9 16 10 23 1 32 -9 9 -11 7 -7 -8z"/>
<path d="M3420 450 c0 -5 5 -10 10 -10 6 0 10 5 10 10 0 6 -4 10 -10 10 -5 0 -10 -4 -10 -10z"/>
<path d="M995 430 c3 -5 8 -10 11 -10 2 0 4 5 4 10 0 6 -5 10 -11 10 -5 0 -7 -4 -4 -10z"/>
<path d="M1334 410 c1 -12 18 -15 89 -16 l87 0 -84 3 c-55 3 -86 8 -89 16 -2 7 -3 5 -3 -3z"/>
<path d="M2560 421 c0 -6 4 -13 10 -16 6 -3 7 1 4 9 -7 18 -14 21 -14 7z"/>
<path d="M2236 405 c-11 -8 -15 -15 -9 -15 6 0 16 7 23 15 16 19 11 19 -14 0z"/>
<path d="M3435 394 c-51 -34 -69 -52 -29 -29 35 20 82 54 74 55 -3 0 -23 -12 -45 -26z"/>
<path d="M2603 393 c9 -2 25 -2 35 0 9 3 1 5 -18 5 -19 0 -27 -2 -17 -5z"/>
<path d="M3050 385 c-10 -12 -10 -15 4 -15 9 0 16 7 16 15 0 8 -2 15 -4 15 -2 0 -9 -7 -16 -15z"/>
<path d="M994 381 c7 -11 46 -35 46 -28 0 3 -12 12 -26 22 -15 9 -23 12 -20 6z"/>
<path d="M1675 359 c-27 -4 -119 -7 -204 -8 -85 -1 -157 -4 -160 -6 -2 -3 127 -5 288 -5 234 0 290 2 279 13 -14 13 -119 16 -203 6z"/>
<path d="M3350 339 c0 -5 5 -7 10 -4 6 3 10 8 10 11 0 2 -4 4 -10 4 -5 0 -10 -5 -10 -11z"/>
<path d="M3298 333 c17 -7 15 -23 -3 -23 -8 0 -15 -5 -15 -11 0 -5 14 -2 30 8 26 15 28 19 13 25 -10 3 -22 7 -28 7 -5 -1 -4 -3 3 -6z"/>
<path d="M1103 310 c14 -11 28 -20 32 -20 4 0 -4 9 -18 20 -14 11 -28 20 -32 20 -4 0 4 -9 18 -20z"/>
<path d="M3205 310 c3 -5 8 -10 11 -10 2 0 4 5 4 10 0 6 -5 10 -11 10 -5 0 -7 -4 -4 -10z"/>
<path d="M3234 285 c3 -8 0 -15 -6 -15 -6 0 -9 -3 -6 -6 4 -3 16 0 28 6 18 10 20 14 9 21 -21 13 -32 11 -25 -6z"/>
<path d="M1162 274 c10 -10 20 -16 22 -13 3 3 -5 11 -17 18 -21 13 -21 12 -5 -5z"/>
<path d="M1420 256 c0 -3 25 -14 135 -56 21 -8 104 -34 143 -45 13 -4 22 -2 22 4 0 6 -8 11 -17 11 -10 0 -76 20 -148 45 -139 48 -135 47 -135 41z"/>
<path d="M2990 253 c-8 -3 -28 -11 -45 -18 -47 -20 -67 -27 -105 -36 -19 -4 -53 -12 -75 -18 -314 -84 -672 -95 -962 -30 -60 13 -72 11 -39 -6 15 -8 50 -15 77 -15 26 0 50 -4 53 -8 2 -4 26 -9 53 -10 26 -1 98 -6 158 -10 131 -10 497 15 550 37 11 5 47 14 80 21 33 6 68 16 77 21 10 5 31 9 48 9 16 0 30 5 30 10 0 6 8 10 18 10 10 0 40 11 68 24 44 23 52 33 14 19z"/>
<path d="M1242 234 c10 -10 20 -16 22 -13 3 3 -5 11 -17 18 -21 13 -21 12 -5 -5z"/>
<path d="M3126 214 c-6 -15 -4 -15 11 -3 10 7 20 15 22 16 2 2 -3 3 -11 3 -9 0 -19 -7 -22 -16z"/>
<path d="M1440 150 c8 -5 20 -10 25 -10 6 0 3 5 -5 10 -8 5 -19 10 -25 10 -5 0 -3 -5 5 -10z"/>
<path d="M1575 150 c-3 -5 -1 -10 4 -10 6 0 11 5 11 10 0 6 -2 10 -4 10 -3 0 -8 -4 -11 -10z"/>
<path d="M2936 141 c-3 -4 6 -6 19 -3 14 2 25 6 25 8 0 8 -39 4 -44 -5z"/>
<path d="M1490 136 c0 -2 7 -7 16 -10 8 -3 12 -2 9 4 -6 10 -25 14 -25 6z"/>
<path d="M2860 110 c-9 -6 -10 -10 -3 -10 6 0 15 5 18 10 8 12 4 12 -15 0z"/>
<path d="M1568 103 c6 -2 18 -2 25 0 6 3 1 5 -13 5 -14 0 -19 -2 -12 -5z"/>
<path d="M1620 90 c8 -5 22 -9 30 -9 10 0 8 3 -5 9 -27 12 -43 12 -25 0z"/>
<path d="M1690 70 c8 -5 26 -10 39 -10 32 0 24 6 -19 14 -25 4 -31 3 -20 -4z"/>
<path d="M2720 70 c-8 -5 -10 -10 -5 -10 6 0 17 5 25 10 8 5 11 10 5 10 -5 0 -17 -5 -25 -10z"/>
<path d="M1778 53 c7 -3 16 -2 19 1 4 3 -2 6 -13 5 -11 0 -14 -3 -6 -6z"/>
<path d="M2643 53 c9 -2 25 -2 35 0 9 3 1 5 -18 5 -19 0 -27 -2 -17 -5z"/>
<path d="M1868 33 c12 -2 30 -2 40 0 9 3 -1 5 -23 4 -22 0 -30 -2 -17 -4z"/>
<path d="M1953 23 c9 -2 25 -2 35 0 9 3 1 5 -18 5 -19 0 -27 -2 -17 -5z"/>
<path d="M2438 23 c12 -2 32 -2 45 0 12 2 2 4 -23 4 -25 0 -35 -2 -22 -4z"/>
<path d="M2035 10 c28 -12 337 -12 355 0 10 6 -51 10 -180 9 -118 0 -187 -4 -175 -9z"/>
</g>
</g>
  <g id="id7:id7" transform="matrix(1.25,0,0,1.25,0.0,0.0)"><g transform="translate(0.000000,202.400000) scale(0.040000,-0.040000)" fill="#100c0c" stroke="none">
<path d="M3 3643 c3 -1188 6 -1440 19 -1554 21 -182 47 -350 59 -371 5 -10 9 -31 9 -46 0 -16 3 -32 7 -36 4 -3 15 -35 24 -69 19 -71 50 -155 64 -177 5 -8 10 -19 10 -25 0 -9 26 -70 46 -107 5 -10 9 -24 9 -32 0 -8 14 -28 30 -46 17 -18 30 -38 30 -46 0 -14 16 -46 33 -68 13 -18 151 -217 162 -234 19 -31 290 -304 315 -317 14 -8 38 -26 54 -41 26 -24 201 -144 211 -144 2 0 23 -13 47 -29 68 -45 221 -117 300 -142 40 -12 78 -26 83 -30 26 -19 272 -75 409 -94 167 -23 514 -18 666 10 14 3 41 7 60 10 19 4 67 15 105 26 39 11 88 25 110 31 22 6 51 17 65 23 14 7 43 18 65 25 57 18 135 54 135 62 0 5 9 8 20 8 11 0 20 4 20 10 0 5 3 9 8 8 18 -4 60 25 55 39 -4 11 0 13 21 7 16 -4 26 -2 26 5 0 6 7 11 15 11 18 0 20 16 3 23 -7 3 2 3 20 0 20 -3 32 -1 32 6 0 6 4 11 10 11 5 0 37 18 70 39 34 22 66 42 73 45 9 5 9 7 0 12 -7 3 -13 10 -13 16 0 6 6 6 15 -2 12 -10 18 -10 30 0 9 7 14 18 11 25 -2 6 4 11 14 11 35 -2 320 271 320 306 0 10 5 18 10 18 6 0 10 7 10 15 0 9 6 12 17 8 13 -5 15 -2 11 15 -4 13 -2 19 6 16 10 -4 116 142 116 160 0 4 9 17 20 29 14 15 19 30 16 47 -3 14 -3 19 0 13 9 -20 24 -15 24 7 0 11 5 20 10 20 6 0 10 9 10 20 0 11 5 20 10 20 6 0 10 9 10 20 0 11 5 20 10 20 6 0 10 11 10 25 0 14 5 25 11 25 6 0 9 7 5 15 -3 9 0 15 8 15 15 0 30 45 21 60 -4 6 -2 10 3 10 12 0 52 92 52 119 0 11 4 22 8 25 5 3 17 40 26 83 10 43 22 94 27 113 5 19 9 52 9 73 0 20 4 37 10 37 7 0 10 547 10 1615 l0 1615 -1395 0 c-767 0 -1395 -4 -1395 -8 0 -13 -197 -15 -205 -3 -4 8 -221 11 -686 11 l-679 0 3 -1417z m4279 -273 c2 -1283 0 -1617 -9 -1623 -16 -10 -17 -39 -2 -54 9 -9 8 -16 -5 -28 -9 -9 -16 -27 -16 -39 0 -13 -7 -29 -15 -36 -7 -6 -17 -31 -21 -56 -4 -27 -10 -41 -17 -37 -7 4 -8 -4 -4 -25 4 -21 2 -32 -7 -35 -8 -3 -17 -24 -21 -46 -4 -22 -13 -45 -21 -52 -8 -6 -14 -22 -14 -35 0 -13 -6 -27 -14 -31 -19 -11 -56 -101 -50 -118 4 -10 0 -15 -11 -15 -17 0 -44 -26 -45 -42 0 -5 8 -8 18 -9 13 0 12 -2 -5 -9 -12 -5 -27 -19 -34 -32 -6 -13 -18 -26 -25 -30 -6 -5 -10 -17 -7 -28 4 -13 0 -20 -10 -20 -14 0 -67 -70 -67 -90 0 -5 -6 -10 -13 -10 -7 0 -20 -10 -29 -22 -10 -13 -38 -45 -63 -73 -25 -27 -48 -60 -51 -73 -5 -17 -11 -21 -26 -16 -14 4 -21 0 -25 -15 -3 -12 -9 -21 -13 -21 -15 0 -130 -105 -130 -118 0 -7 -4 -11 -10 -7 -12 8 -50 -16 -50 -32 0 -7 -9 -13 -20 -13 -12 0 -32 -7 -46 -16 l-25 -17 28 -19 c29 -20 27 -21 -36 -3 -11 3 -23 0 -28 -7 -4 -7 -25 -21 -45 -30 -21 -10 -38 -22 -38 -28 0 -5 -6 -10 -12 -10 -20 -1 -149 -66 -143 -72 3 -3 -11 -8 -32 -10 -21 -3 -62 -17 -92 -32 -30 -14 -63 -26 -73 -26 -10 0 -18 -4 -18 -10 0 -5 -14 -10 -30 -10 -17 0 -38 -4 -48 -9 -9 -5 -44 -15 -77 -21 -33 -7 -69 -16 -80 -21 -53 -22 -419 -47 -550 -37 -60 4 -132 9 -158 10 -27 1 -51 6 -53 10 -3 4 -27 8 -53 8 -26 0 -62 7 -79 16 -18 8 -36 13 -41 10 -8 -6 -107 21 -166 44 -11 4 -49 19 -85 33 -36 14 -76 29 -90 33 -14 3 -37 15 -52 25 -14 11 -30 19 -36 19 -5 0 -46 20 -91 45 -45 25 -85 45 -89 45 -4 0 -31 18 -60 40 -29 22 -56 40 -61 40 -4 0 -16 10 -27 21 -10 12 -39 35 -63 51 -35 25 -45 28 -53 17 -7 -10 -8 -8 -3 7 4 16 -3 27 -30 45 -19 13 -35 30 -35 37 0 6 -4 12 -9 12 -12 0 -97 84 -145 143 -21 26 -44 47 -50 47 -7 0 -18 16 -25 35 -7 19 -32 56 -57 81 -24 25 -42 50 -39 54 3 4 -4 19 -15 33 -11 14 -20 30 -20 36 0 5 -6 14 -12 18 -14 9 -38 50 -87 153 -18 36 -43 85 -56 110 -29 55 -73 178 -103 285 -21 77 -39 186 -60 365 -4 36 -6 714 -4 1507 l3 1443 502 2 c276 2 1216 3 2089 3 l1588 0 2 -1615z m-4212 145 c0 -8 -9 -15 -19 -15 -29 0 -35 18 -9 23 13 2 24 5 26 6 1 0 2 -6 2 -14z m-3 -97 c-3 -7 -5 -2 -5 12 0 14 2 19 5 13 2 -7 2 -19 0 -25z m0 -1150 c-3 -8 -6 -5 -6 6 -1 11 2 17 5 13 3 -3 4 -12 1 -19z m4053 -1068 c0 -5 -4 -10 -10 -10 -5 0 -10 5 -10 10 0 6 5 10 10 10 6 0 10 -4 10 -10z m-55 -90 c3 -5 1 -10 -4 -10 -6 0 -11 5 -11 10 0 6 2 10 4 10 3 0 8 -4 11 -10z m-210 -330 c3 -5 1 -10 -4 -10 -6 0 -11 5 -11 10 0 6 2 10 4 10 3 0 8 -4 11 -10z m-415 -330 c0 -5 -4 -10 -10 -10 -5 0 -10 5 -10 10 0 6 5 10 10 10 6 0 10 -4 10 -10z m-2430 -20 c0 -5 -2 -10 -4 -10 -3 0 -8 5 -11 10 -3 6 -1 10 4 10 6 0 11 -4 11 -10z m2210 -120 c0 -5 -2 -10 -4 -10 -3 0 -8 5 -11 10 -3 6 -1 10 4 10 6 0 11 -4 11 -10z m-1630 -160 c0 -5 -5 -10 -11 -10 -5 0 -7 5 -4 10 3 6 8 10 11 10 2 0 4 -4 4 -10z"/>
<path d="M1253 4843 c-2 -6 -1 -332 4 -724 l8 -713 25 -13 c20 -10 207 -12 885 -10 l860 2 3 290 c3 239 6 291 18 298 12 7 14 56 13 300 -1 161 -4 333 -8 382 l-6 90 -465 0 -465 0 -5 55 -5 55 -429 0 c-314 0 -430 -3 -433 -12z m809 -80 c2 -21 2 -134 0 -250 l-3 -213 -378 0 -379 0 -7 23 c-13 43 -17 447 -4 463 9 12 74 14 390 14 l378 0 3 -37z m960 -200 c1 -76 2 -156 3 -178 8 -227 8 -326 -1 -335 -5 -5 -146 -11 -328 -14 -175 -3 -320 -6 -321 -8 -2 -2 -59 -1 -127 2 l-123 5 -3 333 -2 332 450 0 450 0 2 -137z m-954 -450 l3 -133 33 -14 c22 -9 36 -22 38 -37 5 -37 45 -33 65 8 8 18 25 36 37 39 11 2 73 3 136 2 l115 -3 5 -30 c4 -23 11 -31 30 -33 19 -2 30 6 48 33 l22 35 112 0 c90 0 115 -3 130 -17 10 -9 18 -22 18 -30 0 -7 6 -13 14 -13 27 0 46 12 46 29 0 22 19 41 42 41 17 0 18 -17 18 -276 l0 -275 -37 3 c-46 4 -65 35 -65 106 -1 50 -19 82 -49 82 -32 0 -49 -39 -49 -113 0 -81 -1 -82 -120 -82 -124 0 -120 -4 -120 118 0 91 -2 106 -20 122 -11 10 -20 24 -20 32 0 7 -4 13 -9 13 -5 0 -16 7 -25 15 -16 17 -74 22 -124 11 -18 -5 -50 -25 -71 -45 -34 -33 -40 -46 -46 -99 -4 -33 -4 -66 0 -71 3 -6 3 -31 -1 -56 l-6 -45 -60 1 c-56 2 -88 16 -88 40 0 19 -19 8 -22 -13 -3 -22 -6 -23 -147 -26 -156 -3 -171 1 -171 49 0 31 51 87 85 93 128 25 204 26 233 3 15 -12 27 -3 17 12 -3 6 -17 11 -29 11 -37 0 -48 24 -55 113 l-6 82 -40 -4 c-22 -1 -44 -5 -49 -8 -5 -3 -6 -31 -3 -63 8 -92 2 -107 -46 -113 -58 -8 -121 -73 -119 -125 1 -20 -4 -40 -11 -44 -6 -4 -96 -8 -198 -8 -161 0 -188 2 -193 16 -3 9 -6 188 -6 398 0 286 3 385 12 394 9 9 102 12 378 10 l365 -3 3 -132z"/>
<path d="M1773 4152 c-20 -3 -23 -10 -24 -45 0 -23 -1 -64 -2 -92 l-2 -50 95 -5 c52 -3 110 -3 128 -1 l34 3 -4 84 c-1 46 -8 88 -14 94 -10 10 -164 19 -211 12z"/>
<path d="M1411 4070 c-1 -109 2 -111 142 -108 l112 3 6 55 c5 44 3 58 -10 69 -12 10 -13 15 -3 18 6 3 12 13 12 24 0 18 -9 19 -129 19 l-129 0 -1 -80z"/>
<path d="M1425 3785 c-2 -5 -6 -47 -8 -92 -4 -59 -2 -83 6 -83 121 -4 282 1 290 9 9 9 7 155 -3 165 -10 10 -283 11 -285 1z"/>
<path d="M2206 3239 c-3 -17 -6 -44 -6 -60 l0 -29 -337 -2 c-186 -1 -396 -1 -467 0 l-129 2 7 -648 c4 -356 11 -650 15 -655 4 -4 406 -6 893 -5 l887 3 3 415 c2 228 6 417 10 420 4 3 8 136 10 295 l3 290 -441 3 -441 2 -7 -31z m812 -15 l22 -4 0 -250 0 -250 -390 0 -390 0 2 250 3 251 295 5 c162 4 296 7 297 8 4 3 137 -5 161 -10z m-880 -123 l62 -1 0 -320 0 -320 -440 0 -440 0 0 318 c0 175 2 321 4 323 4 3 463 3 814 0z m875 -440 c13 -10 16 -30 15 -100 -1 -48 2 -92 6 -99 4 -7 4 -17 1 -23 -4 -5 -6 -126 -6 -267 1 -141 -3 -263 -7 -270 -7 -10 -48 -12 -188 -8 -98 3 -190 4 -204 3 -14 -1 -78 -1 -142 0 -158 1 -171 1 -261 -1 -49 -1 -80 3 -85 11 -4 6 -6 44 -5 84 2 96 -28 152 -95 181 -32 14 -47 17 -52 9 -3 -7 -14 -9 -22 -6 -26 10 -86 -22 -108 -57 -16 -27 -20 -50 -20 -125 l0 -93 -154 0 c-101 0 -157 4 -162 11 -3 6 -15 9 -25 6 -11 -3 -17 -1 -13 4 3 5 12 9 20 9 12 0 14 13 12 68 l-3 67 -32 3 c-41 4 -51 -15 -55 -102 l-2 -67 -46 3 -45 3 -3 230 c-1 127 0 240 3 253 3 13 13 22 25 22 23 0 55 -44 46 -65 -4 -12 2 -15 28 -15 29 0 34 3 34 25 -1 49 15 55 132 52 101 -2 109 -3 129 -27 11 -14 20 -31 21 -38 0 -24 44 -9 50 18 9 38 44 50 151 50 104 0 124 -9 131 -60 2 -17 9 -25 23 -26 25 0 47 15 39 28 -10 16 38 60 61 54 42 -11 47 5 46 124 -1 71 2 117 10 126 9 11 67 14 302 14 159 0 291 1 293 3 10 10 143 0 157 -12z m-1523 -621 c0 -5 -5 -10 -11 -10 -5 0 -7 5 -4 10 3 6 8 10 11 10 2 0 4 -4 4 -10z m320 -170 c0 -5 -5 -10 -11 -10 -5 0 -7 5 -4 10 3 6 8 10 11 10 2 0 4 -4 4 -10z"/>
<path d="M2371 2586 c-24 -11 -27 -25 -23 -108 l4 -68 109 -1 c60 -1 115 -2 122 -3 15 -1 22 96 8 122 -7 13 -7 22 1 30 8 8 8 15 3 21 -13 13 -199 18 -224 7z"/>
<path d="M2680 2498 l0 -87 103 -3 c144 -4 144 -4 152 48 3 24 3 63 0 87 l-7 42 -124 0 -124 0 0 -87z"/>
<path d="M2415 2241 c-32 -7 -31 -2 -34 -114 -1 -47 -6 -62 -26 -83 -23 -23 -32 -44 -19 -44 3 0 12 7 20 15 11 11 39 15 102 16 69 0 82 3 60 10 -31 12 -51 60 -47 117 3 64 -1 92 -13 91 -7 -1 -26 -4 -43 -8z"/>
<path d="M2648 2233 c-10 -2 -18 -8 -18 -11 -1 -4 -1 -45 -2 -92 l-1 -85 50 -10 c28 -5 97 -9 153 -7 107 4 126 13 102 52 -6 10 -7 22 -1 31 10 16 12 90 3 113 -5 14 -26 16 -138 15 -72 -1 -139 -3 -148 -6z"/>
<path d="M1716 1752 c-337 -2 -442 -5 -448 -15 -12 -18 -10 -561 2 -573 6 -6 11 -164 12 -414 l3 -403 135 2 c74 1 171 5 215 7 156 11 230 9 243 -3 10 -10 147 -13 612 -13 329 0 601 4 604 8 2 4 8 289 12 634 l7 626 -24 13 c-19 11 -115 15 -466 17 l-442 3 -3 56 c-2 31 -7 57 -13 57 -5 1 -208 0 -449 -2z m51 -51 l352 -1 3 -236 c3 -273 14 -250 -112 -248 -41 0 -213 1 -382 2 l-308 2 0 238 c0 131 2 241 5 243 2 3 24 4 47 3 24 -2 201 -3 395 -3z m1294 -187 c10 -104 14 -506 5 -531 l-7 -23 -440 0 -439 0 0 310 0 310 428 2 c235 2 432 3 437 2 6 0 13 -32 16 -70z m-947 -350 c13 -5 16 -24 16 -116 0 -60 4 -117 10 -127 5 -11 21 -18 39 -19 42 -1 51 -8 51 -43 0 -26 3 -30 23 -27 14 2 23 11 25 24 5 32 72 54 162 54 100 0 118 -6 122 -39 4 -33 48 -45 48 -13 0 38 27 47 150 50 l116 4 9 -38 c11 -43 45 -62 45 -25 0 11 -4 23 -10 26 -5 3 -10 13 -10 22 0 13 3 13 15 3 12 -10 18 -10 29 -1 8 7 32 11 53 9 l38 -3 7 -185 c4 -102 9 -197 12 -211 3 -14 1 -30 -4 -35 -5 -5 -10 -25 -12 -44 -3 -32 -6 -35 -38 -38 -25 -2 -42 3 -59 19 -21 20 -23 28 -18 82 6 62 -7 107 -29 107 -7 0 -24 -5 -37 -11 -21 -10 -23 -15 -21 -87 3 -112 2 -112 -138 -111 -79 1 -123 6 -135 14 -14 10 -18 31 -21 97 -3 83 -13 120 -42 149 -36 36 -65 47 -119 44 -47 -2 -58 -7 -95 -44 l-41 -41 -1 -99 c-1 -54 -4 -103 -8 -109 -8 -13 -106 -13 -123 0 -7 5 -14 5 -18 -2 -4 -6 -65 -10 -166 -10 -135 0 -159 2 -159 15 0 20 -16 19 -24 0 -5 -13 -35 -15 -213 -13 l-208 3 -3 375 c-1 206 0 380 2 387 4 9 99 12 384 13 209 0 387 -3 396 -6z m956 -779 c0 -8 -7 -15 -16 -15 -14 0 -14 3 -4 15 7 8 14 15 16 15 2 0 4 -7 4 -15z m-215 -5 c3 -5 -3 -10 -15 -10 -12 0 -18 5 -15 10 3 6 10 10 15 10 5 0 12 -4 15 -10z"/>
<path d="M1438 1063 c-3 -4 -5 -55 -6 -112 l-1 -104 122 7 c67 4 126 11 132 17 5 5 12 50 13 99 l4 90 -39 0 c-21 1 -79 3 -129 6 -51 3 -94 2 -96 -3z m92 -33 c0 -5 -7 -10 -15 -10 -8 0 -15 5 -15 10 0 6 7 10 15 10 8 0 15 -4 15 -10z"/>
<path d="M1823 1062 l-43 -3 0 -88 c0 -59 4 -92 13 -99 6 -5 64 -12 127 -13 137 -4 135 -6 135 122 l0 84 -95 0 c-52 0 -114 -1 -137 -3z"/>
<path d="M1975 730 l-30 -5 0 -83 0 -83 -38 -6 c-73 -11 -47 -23 50 -22 54 0 110 -4 124 -10 24 -9 26 -7 22 9 -3 11 -14 22 -24 25 -22 7 -34 45 -25 78 3 12 3 38 0 59 -7 40 -25 48 -79 38z"/>
<path d="M1445 698 c-3 -18 -5 -62 -3 -98 l3 -65 45 -5 c25 -3 97 -3 160 0 l115 5 5 50 c3 28 3 71 2 98 l-4 47 -159 0 -158 0 -6 -32z"/>
<path d="M1765 461 c-3 -5 -1 -12 4 -15 5 -3 11 1 15 9 6 16 -9 21 -19 6z"/>
</g>
</g>
</svg>
