<?xml version="1.0" encoding="UTF-8"?>
<svg version="1.1" viewBox="0 0 260 300" xmlns="http://www.w3.org/2000/svg" xmlns:cc="http://creativecommons.org/ns#" xmlns:dc="http://purl.org/dc/elements/1.1/" xmlns:rdf="http://www.w3.org/1999/02/22-rdf-syntax-ns#">
<metadata>
<rdf:RDF>
<cc:Work rdf:about="">
<dc:format>image/svg+xml</dc:format>
<dc:type rdf:resource="http://purl.org/dc/dcmitype/StillImage"/>
<dc:title/>
</cc:Work>
</rdf:RDF>
</metadata>
<g transform="translate(.5 .5)">
<path d="m6 6v162.33c1.14e-13 68.852 55.293 124.67 123.5 124.67 68.207 0 123.5-55.815 123.5-124.67v-162.33h-247z" fill="#ffd200" stroke="#000" stroke-width="3"/>
<path d="m124.65 57.851s-6.4835-3.153-17.11 0.87044c-10.625 4.0242-18.628 0.54403-21.113-3.8058-2.4833-4.3498 1.2433-8.374 1.2433-8.374s1.3801 7.1779 10.901 6.7427c9.5197-0.43602 13.66-3.5882 26.907 1.4137l-0.82804 3.153z" fill="#dc281e" stroke="#000" stroke-linecap="round" stroke-linejoin="round"/>
<path d="m90.704 45.02s-3.5154-11.747 9.6581-14.682c6.3475-1.4137 11.184-0.50242 14.906 1.8705 3.7218 2.3713 7.8812 5.6571 7.8812 5.6571 5.6003 5.6003 11.211 14.082 12.001 24.001-0.80004 2.4001-1.9685 4.0128-4.0002 5.6003l-6.6667 1.0489s-11.565 2.4937-19.843-2.2913c0 0 15.725-0.31842 18.351-6.5251 0.55203-1.3049-0.52563-13.679-16.972-18.594-8.0028-2.3921-13.521 1.0865-15.315 3.9146z" fill="#dc281e" stroke="#000" stroke-linecap="round" stroke-linejoin="round"/>
<g transform="translate(300)" fill="#dc281e" stroke="#000" stroke-linecap="round" stroke-linejoin="round">
<path d="m-211.76 183.91c-3.0818 5.1315-7.8327 11.967-12.061 14.951-2.3737 1.6769-7.1019 2.1313-7.3324-0.41442-0.23041-2.5441-5.9963-6.7251-9.8021-3.6346-3.8058 3.0889-6.3435 9.9957-2.1913 12.996 4.1522 2.9985 8.8812-0.18161 8.8812-0.18161s0.33762 6.7267-2.8833 7.7236c-3.229 1-12.8 3.0905-7.4956 12.997 0 0 4.2506 0.65123 9.1108 0.54403 0 0 8.0076 0.65283 6.2275-12.905-0.34722-2.6345 0.69043-7.1803 4.8434-6.1803 4.1514 1 3.4602 5.1802 9.226 6.5443 5.7659 1.3625 10.378-3.817 10.262-7.7252-0.11521-3.9082-2.3065-10.452-10.379-6.1803 0 0 5.2553-6.2715 9.769-13.564 1.0805-1.7456 2.1184-3.5497 3.0316-5.3403 4.7274-9.27-7.2113-2.954-9.2073 0.36963z"/>
<path d="m-141.65 179.47s-4.5291-0.21177-0.80004 5.6003c3.505 5.4628 8.3047 13.773 10.568 20.015 1.0753 2.9673-6.4515-4.449-10.484 2.7545-4.0322 7.2051 1.0753 11.23 8.0652 11.23 6.9891 0 5.6459-7.8412 10.753-4.8722 5.1074 2.9657-1.3441 9.9565 7.5276 14.194 8.8716 4.2378 13.979-3.389 12.366-8.686-1.6129-5.2971-6.1835-4.025-10.217-8.0516 0 0-0.016001-4.2818 12.636-1.9065 5.6467 1.0609 9.142-8.2628 1.3457-12.501-7.7964-4.2378-13.981 1.2721-13.981 3.8146 0 2.5425-5.2559 3.8985-8.0636-1.2705-1.9907-3.6648-5.3975-10.551-8.7103-16.35-5.404-1.572-11.004-3.9721-11.004-3.9721z"/>
<path d="m-245.42 203.44s-7.3228-6.2659-12.137-0.65923c0 0 2.5441-7.9772 9.4173-7.2547 3.1386 0.32962 5.4403 1.8129 5.4403 1.8129s-0.62803 3.4642-2.7209 6.1011z"/>
<path d="m-243.32 226.69s-4.1834 7.4188 5.0218 12.532c0 0-0.83764-8.0804 1.8833-11.709 0 0-3.1386-2.6393-6.9051-0.82324z"/>
<path d="m-208.8 214s6.9051 0 5.2307 7.2563c0 0 4.8314-4.7066 3.7666-8.9052-0.83684-3.297-5.6507-3.133-5.6507-3.133s-2.0921 1.1553-3.3466 4.7818z"/>
<path d="m-100.41 197.67s15.484-4.1218 15.484 9.5645c0 0-5.8579-6.4315-10.671-2.4737 8.0004e-4 0-4.393-2.8033-4.813-7.0907z"/>
<path d="m-110.24 228.84s3.7666 4.617-0.62723 10.058c0 0 8.5796-1.9705 8.5796-8.41 0-2.6377-2.3017-5.1114-2.3017-5.1114s-3.7674 0.16481-5.6507 3.4634z"/>
<path d="m-142.89 209.71s-9.4165-0.49522-7.5332 9.0692c0 0 5.2307-5.6067 7.9508-3.7922 0 0 0.62723-3.133-0.41762-5.2771z"/>
</g>
<path d="m169.8 183.12 4.7746 0.14561c-16.991-28.169-26.257-40.37-25.344-41.878 2.7617-4.517 5.5195-17.653 5.5195-21.039 0-3.3826 5.9667-2.6265 5.9667-0.37522 0 2.2497-0.46162 10.516-0.46162 22.158 0 11.642 19.284 25.18 19.284 25.18s-5.0522-12.025-6.8859-21.419c-1.8337-9.3877-0.46642-32.682-0.46642-36.435 0-3.7602 5.5187-2.6297 5.5187 0 0 2.6353 0.91044 22.168 0.91044 33.056 0 30.425 25.26 38.687 25.26 38.687s-8.278-16.14-9.6533-28.169c-1.3761-12.017 0.47122-46.952 0.47122-49.958 0-3.0049 5.4963-2.6305 5.4963 0 9e-14 2.6249-1.3761 21.789 0.46162 49.578 1.8481 27.802 27.559 42.073 27.559 42.073s-11.939-42.444-11.939-59.726c0-17.274 5.5059-69.864 5.5059-77.381 0-7.5076 0.45122-36.062-21.126-36.062-21.57 0-14.678 13.523-14.678 33.444 0 19.903-16.997 40.939-21.584 40.939-4.5954 0-6.4243-7.5132-10.096-7.5132-3.6674 0-12.907 6.8739-14.23 2.2561-1.9729-6.8835 12.943-8.678 12.943-8.678-4.3874-7.6076 1.3169-14.176 1.3169-14.176 0.87924 4.841 11.408 4.4938 11.408 4.4938-7.898-7.9524-5.2651-17.635-5.2651-17.635 1.3169 4.4954 11.409 3.4578 11.409 3.4578s-7.0195-2.4209-7.4588-9.6829c-0.43922-7.2603-7.8972-11.065-7.8972-11.065 10.531 0 7.4588-11.412 7.4588-11.412-11.847 7.2611-15.357-0.34562-29.397-0.34562-14.041 0-19.306 6.5699-19.306 6.5699 20.62 12.101 19.745 31.466 19.745 31.466-3.9498 4.8418-10.531 4.8418-10.531 4.8418s3.0713 6.5699 2.1937 9.3372c-0.87764 2.7665-15.796 5.8779-15.796 5.8779 5.2651-0.69283 10.969 4.4946 8.058 6.9491-4.109 3.4618-10.568-2.2561-14.239-2.2561-3.6674 0-5.4963 7.5132-10.092 7.5132-4.5994 0-21.584-21.035-21.584-40.939 0-19.92 6.8827-33.444-14.686-33.444-21.579 0-21.112 28.554-21.112 36.062 0 7.5172 5.5107 60.107 5.5107 77.381 0 17.281-11.944 59.726-11.944 59.726s25.712-14.271 27.545-42.073c1.8377-27.788 0.46162-46.953 0.46162-49.578 0-2.6305 5.5059-3.0049 5.5059 0 0 3.0073 1.8329 37.941 0.45122 49.958-1.3721 12.029-9.6397 28.169-9.6397 28.169s25.252-8.262 25.252-38.687c0-10.888 0.91764-30.421 0.91764-33.056 0-2.6297 5.5051-3.7602 5.5051 0 0 3.753 1.3825 27.048-0.45522 36.435-1.8297 9.3941-6.8867 21.419-6.8867 21.419s19.283-13.537 19.283-25.18-0.46082-19.909-0.46082-22.158c0-2.2513 5.9723-3.0081 5.9723 0.37522 0 3.385 2.7577 16.522 5.5099 21.039 0.91844 1.5081-11.93 13.524-28.921 41.694l4.7746-0.14561s5.2651-0.15441 7.3628-0.68163c0 0 0.51362 3.5162 1.6857 5.3659 0.99205 1.8409 2.4473 3.8202 4.5506 5.2299 0 0 9.6389-20.657 11.93-24.793 2.2857-4.1362 5.9675-0.74564 6.8771 4.8818 0.92804 5.6283 5.5163 37.943-0.45202 44.702-5.9715 6.7611-47.748 4.1282-36.271 27.418 0 0 3.2186-9.3877 10.101-9.3877 6.8827 0 9.6445 3.0001 26.169 0 0 0 0 12.396 5.045 21.414 5.0562 9.0116 6.8907 20.36 6.8907 20.36s1.8281-11.349 6.8899-20.36c5.0338-9.0172 5.0338-21.414 5.0338-21.414 16.546 3.0001 19.297 0 26.18 0 6.8859 0 10.106 9.3877 10.106 9.3877 11.473-23.29-30.298-20.657-36.285-27.418-5.9627-6.7595-1.3577-39.074-0.44322-44.702 0.91044-5.6267 2.8137-9.0612 5.0994-4.9266 2.3001 4.1378 5.3771 25.636 5.3771 25.636 2.0897-1.4049 3.5442-3.3802 4.5362-5.2203 0.84084-2.1953 2.1841-9.6117 2.1841-9.6117s6.8467 4.1578 11.621 4.3034z" fill="#fff" stroke="#000" stroke-linecap="round" stroke-linejoin="round"/>
<path d="m58.344 21.562c-3.6163 0-6.6098 0.81706-9.0938 2.1875v11.281l-5.375 7.3438h21.406l-5.3437-7.3438v-12.125l-0.96875-1.3438c-0.21163-0.0027398-0.40763 0-0.625 0zm6.9375 20.812h8.4062c0.62693-8.0306 0.94436-14.234-3.0312-17.688v10.344l-5.375 7.3438zm0 0-5.3437 7.3125v12.125l-5.3438 7.3438h20.937c-0.1303-0.38799-0.2531-0.76504-0.375-1.1562l-4.5312-6.1875v-12.125l-5.3438-7.3125zm-10.687 26.781-5.375-7.3438v-12.125l-5.3438-7.3125-5.3438 7.3125v12.125l-1 1.375c0.12118 1.7066 0.28738 3.7389 0.46875 5.9688h16.562 0.03125zm-0.03125 0-5.3125 7.3125v12.125l-5.375 7.3438h21.406l-5.3437-7.3438v-12.125l-5.375-7.3125zm10.719 26.781h21.406l-5.3438-7.3438v-6.9375c-2.1603-3.639-4.1592-7.7467-5.6562-12.094l-5.0312 6.9062v12.125l-5.375 7.3438zm0 0-3.6875 5.0312c1.3656-0.035507 2.7187 0.60302 2.7187 2.0938 0 1.4085 0.40194 9.9065 0.6875 19.688h10.969 0.03125l-5.375-7.375v-12.125l-5.3438-7.3125zm10.719 26.812h4.8125c0.092831-2.6526 0.2043-4.9375 0.28125-7.0312l-5.0938 7.0312zm-0.03125 0-5.3125 7.3125v12.125l-5.375 7.3125h14.594c0.30755-2.1909 0.5-4.5228 0.5-7 0-3.7957 0.1047-8.5913 0.25-13.406l-4.6562-6.3438zm-10.688 26.75-0.28125 0.375c-0.070241 1.1596-0.14456 2.2392-0.25 3.1562-0.90512 7.9355-4.7588 17.582-7.3125 23.281h6.5937c2.3084-1.6867 4.8029-3.8718 7.125-6.6562l-0.53125-0.71875v-12.125l-5.3438-7.3125zm0 0-0.25-0.34375c-0.0060334 0.11366 0.006322 0.23197 0 0.34375h0.25zm21.406-53.562h7.9062c-1.1499 0-3.0734-1.3108-5.3125-3.5938l-2.5938 3.5938zm0 0-5.3438 7.3125v5.7188c0.6048-2.2773 5.4375-3.0252 5.4375 0.5 0 1.6324 0.2619 7.0069 0.40625 13.281h10.188l-5.3438-7.375v-12.125l-5.3438-7.3125zm10.688 26.812h0.96875c-0.019903-0.58651-0.018868-0.84089-0.03125-1.2812l-0.9375 1.2812zm0 0-5.3438 7.3125v12.125l-5.3438 7.3125h9.9062c1.3199-2.4452 2.125-4.955 2.125-7.375-1.1e-13 -7.8954-0.20733-14.034-0.34375-18l-1-1.375zm-10.688 26.75-1.875 2.5938c-1.1042 3.8459-2.4111 7.5813-3.4688 10.406v3.375c2.3626-1.8215 6.539-5.2697 10.312-9.5625l-4.9688-6.8125zm0 0-0.875-1.1875c-0.094837 0.39898-0.20973 0.78483-0.3125 1.1875h1.1875zm7.9062-53.562h13.5l-5.0625-6.9375c-2.6599 1.7293-4.6008 6.9375-8.4375 6.9375zm13.5 0h21.406l-5.3438-7.3438v-8.8125c-2.9549 1.3904-7.7668 2.6386-10.719 3.3438v0.71875c4.3304 0.82827 7.9389 4.7875 5.5 6.8438-2.0225 1.7039-4.6079 1.155-7.1562 0.1875l-3.6875 5.0625zm0 0-5.3438 7.3125v12.125l-1.9688 2.7188c1.6308-0.21084 3.4688 0.38199 3.4688 2.25 0 0.54929 0.085322 1.4219 0.21875 2.4062h14.312l-5.3438-7.375v-12.125l-5.3438-7.3125zm10.688 26.812h21.406l-5.3438-7.375v-12.125l-5.3438-7.3125-5.3438 7.3125v12.125l-5.375 7.375zm0 0-5.3438 7.3125v12.125l-5.3438 7.3125h21.406l-5.3438-7.3125v-12.125l-5.375-7.3125zm10.719 26.75h21.406l-5.3438-7.3125v-12.125l-5.375-7.3125-5.3438 7.3125v12.125l-5.3438 7.3125zm0 0-5.3438 7.3125v12.125l-5.375 7.3125-0.34375-0.46875c0.029149 0.20275 0.063221 0.31418 0.09375 0.53125h0.21875l-0.1875 0.28125c0.84432 6.0526 2.1009 17.129 1.9688 26.469h8.9375l-5.3125 7.3125v12.125l-5.375 7.3125h21.406l-5.3438-7.3125v-12.125l-5.3125-7.3125h8.9062c-0.12771-9.3261 1.1587-20.379 2-26.438l-0.21875-0.3125h0.25c0.032356-0.23098 0.062983-0.34777 0.09375-0.5625l-0.375 0.5-5.3438-7.3125v-12.125l-5.3438-7.3125zm10.688 80.312h21.406l-5.2188-7.1562c-4.0675-0.9037-7.9662-1.7277-10.812-2.7188v2.5625l-5.375 7.3125zm0 0-5.3438 7.375v12.125l-5.3438 7.3125h7.125c4.7837-8.9729 4.7812-20.969 4.7812-20.969 1.2306 0.22314 2.3834 0.40204 3.4688 0.5625l-4.6875-6.4062zm-10.688 26.812-4.3125 5.875c3.1094 7.5784 4.3125 14.938 4.3125 14.938s1.2018-7.3593 4.3125-14.938l-4.3125-5.875zm0 0-5.3438-7.3125v-12.125l-5.375-7.375-4.6562 6.4062c1.0824-0.16027 2.2107-0.33977 3.4375-0.5625 0 0 0.01335 11.994 4.8125 20.969h7.125zm-10.719-26.812-5.3438-7.3125v-2.5625c-2.8449 0.9948-6.7362 1.813-10.812 2.7188l-5.25 7.1562h21.406zm-21.406 0-4.2812 5.9375c3.0656 0.22127 5.5558 0.95409 9.4688 1.1875l-5.1875-7.125zm0 0-3.5938-4.9375c-4.0386 1.2172-7.7762 2.7726-10.438 4.9375h14.031zm64.219 0h14.062c-2.6616-2.1654-6.3978-3.7202-10.438-4.9375l-3.625 4.9375zm0 0-5.1562 7.125c3.922-0.23389 6.3949-0.96797 9.4688-1.1875l-4.3125-5.9375zm-21.406-107.06h14.344c0.13347-0.98441 0.21875-1.8568 0.21875-2.4062 0-1.8793 1.8318-2.4723 3.4688-2.25l-1.9688-2.7188v-12.125l-5.3438-7.3125-5.3438 7.3125v12.125l-5.375 7.375zm10.719-26.812-3.6875-5.0625c-3.2885 1.3666-6.4253 2.3633-7.1562-0.1875-0.96529-3.368 2.1045-5.5265 5.5-6.8438v-7.375l-5.375-7.3125-5.3438 7.3125v12.125l-5.3438 7.3438h21.406zm0 0h13.469c-3.8367 0-5.7436-5.2082-8.4062-6.9375l-5.0625 6.9375zm13.469 0h7.9375l-2.625-3.5938c-2.2386 2.2831-4.1656 3.5938-5.3125 3.5938zm7.9375 0h21.406l-5.375-7.3438v-12.125l-5.0312-6.875c-1.4968 4.3366-3.4999 8.4314-5.6562 12.062v6.9375l-5.3438 7.3438zm0 0-5.3438 7.3125v12.125l-5.375 7.375h10.188c0.14142-6.2743 0.40625-11.649 0.40625-13.281 0-3.6427 5.1451-2.7036 5.4688-0.25v-5.9688l-5.3438-7.3125zm-10.719 26.812-1 1.3438c-0.13662 3.9646-0.34375 10.118-0.34375 18.031 0 2.4199 0.83632 4.9299 2.1562 7.375h9.9062l-5.3438-7.3125v-12.125l-5.375-7.3125zm0 0-0.90625-1.25c-0.012313 0.43326-0.011799 0.67774-0.03125 1.25h0.9375zm10.719 26.75h1.1562c-0.10264-0.40183-0.18649-0.78934-0.28125-1.1875l-0.875 1.1875zm0 0-5 6.8438c3.7701 4.285 7.9843 7.7121 10.344 9.5312v-3.375c-1.0612-2.8363-2.3616-6.5754-3.4688-10.438l-1.875-2.5625zm21.406-53.562h21.406l-5.3438-7.3438v-12.125l-5.375-7.3125-5.3438 7.3125v12.125l-5.3438 7.3438zm0 0-5.3438 7.3125v12.125l-5.375 7.375h11c0.28949-9.7811 0.6875-18.279 0.6875-19.688 0-1.4907 1.3555-2.1293 2.7188-2.0938l-3.6875-5.0312zm-10.719 26.812-4.6562 6.375c0.14369 4.8045 0.28125 9.5876 0.28125 13.375 0 2.4773 0.19235 4.8091 0.5 7h14.594l-5.375-7.3125v-12.125l-5.3438-7.3125zm0 0-5.0938-7.0312c0.076347 2.0937 0.1579 4.3787 0.25 7.0312h4.8438zm10.719 26.75h0.21875c-0.0051317-0.091455 0.0049378-0.18853 0-0.28125l-0.21875 0.28125zm0 0-5.3438 7.3125v12.125l-0.5625 0.75c2.3185 2.7757 4.8209 4.9421 7.125 6.625h6.625c-2.557-5.6997-6.4365-15.346-7.3438-23.281-0.10591-0.92496-0.17997-2.016-0.25-3.1875l-0.25-0.34375zm10.688-80.344-5.3438-7.3438v-12.125l-5.3438-7.3125-5.3438 7.3125v12.125l-4.5312 6.1875c-0.12197 0.39121-0.24463 0.76827-0.375 1.1562h20.938zm0 0h16.594c0.18122-2.2298 0.34768-4.2622 0.46875-5.9688l-1-1.375v-12.125l-5.3438-7.3125-5.3438 7.3125v12.125l-5.375 7.3438zm10.719-26.781-5.3438-7.3438v-11.25c-2.4918-1.3831-5.4908-2.2188-9.125-2.2188-0.21738 0-0.41336-0.0027397-0.625 0l-0.96875 1.3438v12.125l-5.3438 7.3438h21.406zm0 0h5.5625c-0.34813-1.9001-0.80123-3.8135-1.4062-5.6875l-4.1562 5.6875zm-21.406 0-5.375-7.3438v-10.375c-4.0071 3.4486-3.6926 9.6672-3.0625 17.719h8.4375zm21.406 53.562h3.625c0.16498-1.9702 0.3035-3.7194 0.46875-5.6562l-4.0938 5.6562zm0 0-5.3438 7.3125v12.125l-5.375 7.375h12.344c0.3915-6.6109 0.97622-14.425 1.625-22.344l-3.25-4.4688zm-10.719 26.812-4.6562 6.375c0.071887 6.0145 0.27191 12.789 0.71875 20.375h14.656l-5.3438-7.3125v-12.125l-5.375-7.3125zm0 0-4.6562-6.4062c-0.036744 1.9538-0.055208 4.0829-0.0625 6.4062h4.7188zm10.719 26.75h2.6562c-0.16631-1.0139-0.32567-2.0237-0.46875-3l-2.1875 3zm0 0-5.3438 7.3125v12.125l-2.9688 4.0312c0.6572 1.1606 1.3491 2.2749 2.0625 3.3438h14.594c-0.40064-1.6441-0.81037-3.1906-1.2188-4.9375v-0.03125l-1.7812-2.4062v-5.4375c-0.66531-3.0871-1.28-6.1865-1.8438-9.2188l-3.5-4.7812zm-74.938-80.344-5.2188-7.1562c0.067434 1.0522 0.03125 1.6875 0.03125 1.6875-3.9498 4.8418-10.531 4.8438-10.531 4.8438s0.17009 0.37229 0.28125 0.625h15.438zm0 0h13.219c0.51267-0.83132 0.90625-1.3438 0.90625-1.3438 0.089706 0.49392 0.29334 0.95197 0.5625 1.3438h6.7188l-5.3438-7.3438v-12.125l-5.3438-7.3125-5.3438 7.3125v12.125l-5.375 7.3438zm10.719-26.781-5.3438-7.3438v-7.75c-2.9226-0.81759-6.2991-1.623-10.719-1.6562v9.4062l-5.3438 7.3438h21.406zm0 0h11.25c-2.3396-3.2738-5.6562-4.9688-5.6562-4.9688 10.531 0 7.4688-11.438 7.4688-11.438-3.0042 1.8413-5.4791 2.7356-7.7188 3.0312v6.0312l-5.3438 7.3438zm-21.406 0-1.1562 1.5938c4.5962 6.4625 6.0589 12.818 6.5 16.5v-10.781l-5.3438-7.3125zm0 0-5.3438-7.3438v-7.9688c-6.3176 1.9336-8.875 5.1562-8.875 5.1562 5.232 3.0705 9.0766 6.5855 11.906 10.156h2.3125zm32.094 26.781h1.5625c-0.25742-0.39249-0.50022-0.76387-0.71875-1.1562l-0.84375 1.1562zm0 0-1.875 2.5938c1.5175 0.33937 3.0471 0.50817 4.1875 0.5625l-2.3125-3.1562zm-10.688 80.344h2.5c-0.38808-0.61509-0.82149-1.3026-1.1562-1.8438l-1.3438 1.8438zm0 0-5.3438 7.3125v10.375c0.17258 0.23229 0.35377 0.49146 0.53125 0.8125 0.75108 1.3512 1.5612 4.612 2.3438 8.3125h13.125l-2.2812 3.125c1.4399 0.79132 4.1001 2.1381 6.8125 2.9688l-4.4688-6.0938h8.6875c-1.4062-2.2875-2.7246-4.4292-4-6.4688l-4.7188 6.4062-5.3438-7.3125v-12.125l-5.3438-7.3125zm-42.812 0-5.3438 7.3125v12.125l-5.375 7.3125-5.3438-7.3125v-3.125c-2.1935 3.1558-4.5464 6.6464-7 10.5h12.312l-4.375 6c0.025791 0.1726 0.54554 3.5103 1.6875 5.3125 0.99205 1.8409 2.4592 3.8091 4.5625 5.2188 0 0 1.9187-4.1078 3.5313-7.5312v-1.6875l-5.3438-7.3125h9.6563c1.7382-3.6105 3.3091-6.89 4.0625-8.25 0.67802-1.2269 1.4976-1.7721 2.3125-1.8125v-9.4375l-5.3438-7.3125zm0 0-1.9062-2.5938c-0.6045 0.76736-1.2897 1.6545-2.0312 2.5938h3.9375zm-64.219-53.562-3.25 4.4688c0.64935 7.9191 1.2332 15.733 1.625 22.344h12.312 0.03125l-5.375-7.375v-12.125l-5.3438-7.3125zm0 0-4.0938-5.6562c0.16539 1.9368 0.30363 3.686 0.46875 5.6562h3.625zm10.719 26.812h4.6875c-0.0072516-2.3106-0.026073-4.4298-0.0625-6.375l-4.625 6.375zm-0.03125 0-5.3125 7.3125v12.125l-5.375 7.3125h14.656c0.44685-7.5856 0.64687-14.36 0.71875-20.375l-4.6875-6.375zm-10.688 26.75-3.5 4.7812c-0.56393 3.0323-1.1782 6.1317-1.8438 9.2188v5.4375l-1.7812 2.4062c-0.0024399 0.010436 0.0024399 0.020817 0 0.03125-0.40854 1.7469-0.81794 3.2933-1.2188 4.9375h14.594c0.71-1.0643 1.377-2.1884 2.0312-3.3438l-2.9375-4.0312v-12.125l-5.3438-7.3125zm0 0-2.1875-3c-0.14313 0.97629-0.30237 1.9861-0.46875 3h2.6562zm0-107.12-4.1562-5.6875c-0.60418 1.874-1.0589 3.7874-1.4062 5.6875h5.5625zm123.09 12.344v3.4062c2.5625 0.24799 4.9062 0.03125 4.9062 0.03125s-2.7425-0.95531-4.9062-3.4375zm-48.156 121.59h21.344l-5.3125 7.3125v12.125l-5.3438 7.3125-5.3438-7.3125v-12.125l-5.3438-7.3125zm-62.469 2.375c-0.70315 1.4902-1.2188 2.5-1.2188 2.5s0.88804-0.25756 2.3438-0.9375l-1.125-1.5625zm146.31 0-1.125 1.5625c1.4431 0.67251 2.3438 0.9375 2.3438 0.9375s-0.5147-1.0098-1.2188-2.5zm-167.69 0.03125c-2.2774 9.1824-4.1875 16-4.1875 16s3.3824-1.8788 7.75-5.5625v-5.5312l-3.5625-4.9062zm189.06 0.03125-3.5625 4.875v5.5312c4.3681 3.6837 7.75 5.5625 7.75 5.5625s-1.9141-6.8009-4.1875-15.969zm-66.406 3-1.375 1.875v3.9688c0.49235-1.6588 0.98148-3.8469 1.375-5.8438zm-76.719 1.25c-0.019997 0.033127-0.042492 0.060578-0.0625 0.09375h0.09375l-0.03125-0.09375zm-1.1875 51.938c-0.81054 2.6935-0.46842 6.0038 1.5625 10.125 0 0 0.047417-0.11452 0.0625-0.15625v-7.7188l-1.625-2.25zm99.563 0-1.625 2.25v7.7188c0.01509 0.041727 0.0625 0.15625 0.0625 0.15625 2.0285-4.1177 2.3707-7.4328 1.5625-10.125z" color="#000000" fill="#0039a6" stroke="#000" stroke-width=".5"/>
<path d="m137.34 35.56c-6.3579-4.3834-13.521 2.0657-13.521 2.0657l-0.64003 0.44482c3.2218 3.0073 5.5707 6.1683 7.2796 9.2084l0.81204-0.083204c4.965-2.0657 10.485-8.5908 6.0699-11.636z" fill="#fff" stroke="#000" stroke-linecap="round" stroke-linejoin="round"/>
<path d="m137.34 35.56c-6.3579-4.3834-13.521 2.0657-13.521 2.0657l-0.64003 0.44482c3.2218 3.0073 5.5707 6.1683 7.2796 9.2084l0.81204-0.083204c4.965-2.0657 10.485-8.5908 6.0699-11.636z" fill="#fff" stroke="#000" stroke-linecap="round" stroke-linejoin="round"/>
<path d="m129.67 34.44c-3.3506 0.94005-5.8475 3.185-5.8475 3.185l-0.59683 0.41522c-0.0040002 0.020001-0.0056003 0.041602-0.0088004 0.064003 2.0601 1.9273 3.7594 3.917 5.165 5.8971 2.3265-0.29361 4.133-2.4017 4.133-4.9626 0.0016001-2.0633-1.1713-3.8346-2.8449-4.5986zm-2.1769 5.2515c-0.76164 0-1.3801-0.48642-1.3801-1.0873 0-0.60163 0.61683-1.0881 1.3801-1.0881 0.76324 0 1.3809 0.48642 1.3809 1.0881 0 0.60083-0.61843 1.0873-1.3809 1.0873z" stroke-width="1.2499"/>
<path d="m129.27 38.44a1.7664 1.3248 0 0 1-3.5328 0 1.7664 1.3248 0 1 1 3.5328 0z" fill="#fff"/>
<path d="m169.8 183.12 4.7746 0.14561c-16.991-28.169-26.257-40.37-25.344-41.878 2.7617-4.517 5.5195-17.653 5.5195-21.039 0-3.3826 5.9667-2.6265 5.9667-0.37522 0 2.2497-0.46162 10.516-0.46162 22.158 0 11.642 19.284 25.18 19.284 25.18s-5.0522-12.025-6.8859-21.419c-1.8337-9.3877-0.46642-32.682-0.46642-36.435 0-3.7602 5.5187-2.6297 5.5187 0 0 2.6353 0.91044 22.168 0.91044 33.056 0 30.425 25.26 38.687 25.26 38.687s-8.278-16.14-9.6533-28.169c-1.3761-12.017 0.47122-46.952 0.47122-49.958 0-3.0049 5.4963-2.6305 5.4963 0 9e-14 2.6249-1.3761 21.789 0.46162 49.578 1.8481 27.802 27.559 42.073 27.559 42.073s-11.939-42.444-11.939-59.726c0-17.274 5.5059-69.864 5.5059-77.381 0-7.5076 0.45122-36.062-21.126-36.062-21.57 0-14.678 13.523-14.678 33.444 0 19.903-16.997 40.939-21.584 40.939-4.5954 0-6.4243-7.5132-10.096-7.5132-3.6674 0-12.907 6.8739-14.23 2.2561-1.9729-6.8835 12.943-8.678 12.943-8.678-4.3874-7.6076 1.3169-14.176 1.3169-14.176 0.87924 4.841 11.408 4.4938 11.408 4.4938-7.898-7.9524-5.2651-17.635-5.2651-17.635 1.3169 4.4954 11.409 3.4578 11.409 3.4578s-7.0195-2.4209-7.4588-9.6829c-0.43922-7.2603-7.8972-11.065-7.8972-11.065 10.531 0 7.4588-11.412 7.4588-11.412-11.847 7.2611-15.357-0.34562-29.397-0.34562-14.041 0-19.306 6.5699-19.306 6.5699 20.62 12.101 19.745 31.466 19.745 31.466-3.9498 4.8418-10.531 4.8418-10.531 4.8418s3.0713 6.5699 2.1937 9.3372c-0.87764 2.7665-15.796 5.8779-15.796 5.8779 5.2651-0.69283 10.969 4.4946 8.058 6.9491-4.109 3.4618-10.568-2.2561-14.239-2.2561-3.6674 0-5.4963 7.5132-10.092 7.5132-4.5994 0-21.584-21.035-21.584-40.939 0-19.92 6.8827-33.444-14.686-33.444-21.579 0-21.112 28.554-21.112 36.062 0 7.5172 5.5107 60.107 5.5107 77.381 0 17.281-11.944 59.726-11.944 59.726s25.712-14.271 27.545-42.073c1.8377-27.788 0.46162-46.953 0.46162-49.578 0-2.6305 5.5059-3.0049 5.5059 0 0 3.0073 1.8329 37.941 0.45122 49.958-1.3721 12.029-9.6397 28.169-9.6397 28.169s25.252-8.262 25.252-38.687c0-10.888 0.91764-30.421 0.91764-33.056 0-2.6297 5.5051-3.7602 5.5051 0 0 3.753 1.3825 27.048-0.45522 36.435-1.8297 9.3941-6.8867 21.419-6.8867 21.419s19.283-13.537 19.283-25.18-0.46082-19.909-0.46082-22.158c0-2.2513 5.9723-3.0081 5.9723 0.37522 0 3.385 2.7577 16.522 5.5099 21.039 0.91844 1.5081-11.93 13.524-28.921 41.694l4.7746-0.14561s5.2651-0.15441 7.3628-0.68163c0 0 0.51362 3.5162 1.6857 5.3659 0.99205 1.8409 2.4473 3.8202 4.5506 5.2299 0 0 9.6389-20.657 11.93-24.793 2.2857-4.1362 5.9675-0.74564 6.8771 4.8818 0.92804 5.6283 5.5163 37.943-0.45202 44.702-5.9715 6.7611-47.748 4.1282-36.271 27.418 0 0 3.2186-9.3877 10.101-9.3877 6.8827 0 9.6445 3.0001 26.169 0 0 0 0 12.396 5.045 21.414 5.0562 9.0116 6.8907 20.36 6.8907 20.36s1.8281-11.349 6.8899-20.36c5.0338-9.0172 5.0338-21.414 5.0338-21.414 16.546 3.0001 19.297 0 26.18 0 6.8859 0 10.106 9.3877 10.106 9.3877 11.473-23.29-30.298-20.657-36.285-27.418-5.9627-6.7595-1.3577-39.074-0.44322-44.702 0.91044-5.6267 2.8137-9.0612 5.0994-4.9266 2.3001 4.1378 5.3771 25.636 5.3771 25.636 2.0897-1.4049 3.5442-3.3802 4.5362-5.2203 0.84084-2.1953 2.1841-9.6117 2.1841-9.6117s6.8467 4.1578 11.621 4.3034z" fill="none" stroke="#000" stroke-linecap="round" stroke-linejoin="round"/>
</g>
</svg>
