<?xml version="1.0" encoding="UTF-8"?>
<!DOCTYPE svg  PUBLIC '-//W3C//DTD SVG 1.1//EN'  'http://www.w3.org/Graphics/SVG/1.1/DTD/svg11.dtd'>
<svg version="1.1" viewBox="0 0 195 236" xmlns="http://www.w3.org/2000/svg">
<g transform="scale(1.25)">
<g transform="translate(0 188.8) scale(.04 -.04)" fill="#fdfefd">
<path d="m1830 4319c0-148-3-189-14-198-10-8-75-11-211-11l-197 2-1-121-2-121 210-2 210-3 3-270 2-271 120 1h120l2 270 3 270 218 3 217 2v123 122l-206-3c-147-2-210 0-220 9-11 9-14 49-14 200v188l-120-2-120-1v-187z"/>
<path d="m1500 3184c-227-85-421-223-565-404-105-131-191-291-230-429l-7-24 430 6c237 3 436 8 441 12 13 7 16 866 4 864-5 0-37-12-73-25z"/>
<path d="m2311 2775c0-233 3-426 7-429 21-13 868-22 865-9-13 49-42 123-75 193-142 298-376 514-691 639-43 17-84 31-92 31-12 0-14-62-14-425zm274 255c0-18-33-26-47-12-6 6-7 15-3 22 10 16 50 8 50-10zm78-26c15-15-8-34-42-34-44 0-55 8-40 27 11 13 70 18 82 7zm62-65c16-16-11-30-51-27-27 2-40 8-42 20-5 26 66 32 93 7zm58-44c4-8 2-17-3-20-13-8-96-9-109-1-20 13-11 25 22 29 67 8 85 7 90-8zm52-65c0-19-112-27-129-10-18 18 14 30 74 28 41-2 55-7 55-18zm50-43c21-16 12-37-16-37-10 0-19-4-19-10 0-5 18-9 40-8 23 1 46-4 51-9 23-23-3-33-82-33-72 0-79 2-79 20 0 15 7 20 25 20 40 0 29 18-12 22-26 2-39 8-41 20-3 14 6 18 50 21 29 2 56 4 59 5s13-4 24-11zm99-126c12-19-24-32-86-29-50 2-63 6-66 21s6 17 72 17c41 0 77-4 80-9zm31-66c0-18-7-20-80-20-67 0-80 3-83 17-4 18 34 26 118 24 38-1 45-4 45-21zm50-66c0-11-21-14-100-14-82 0-100 3-100 15s18 16 80 20c88 6 120 0 120-21zm23-61c3-16-7-18-97-18-56 0-103 4-106 10-15 24 10 31 103 28 83-3 97-6 100-20zm17-73c0-18-8-20-92-23-82-2-93-1-102 16-6 11-7 22-4 26 4 4 50 5 103 4 87-3 95-5 95-23z"/>
<path d="m1 808-1-808 848 1c759 1 839 2 767 15-294 51-549 152-794 315-426 282-717 718-805 1207-13 69-14-8-15-730z"/>
<path d="m3882 1528c-58-373-275-752-591-1034-276-247-596-401-986-474l-100-18 1695-2v805c0 443-1 805-3 805-1 0-8-37-15-82z"/>
<path d="m1259 1586c-2-2-125-9-274-16-148-7-272-14-274-16-3-2 1-10 7-16 7-7 12-19 12-28 0-30 104-224 168-311 156-216 407-394 657-467 299-87 598-74 879 37 286 114 525 335 667 620 27 53 49 104 49 113s5 20 10 23c35 22-14 29-325 47-169 9-1568 22-1576 14zm1809-57c13-5 22-15 19-22-3-9-42-12-150-12-127 0-149 2-164 18-16 15-16 19-3 28 17 11 262 1 298-12zm-18-78c0-11-6-21-12-24-20-7-302 5-312 13-25 23 13 30 165 30 150 0 159-1 159-19zm-52-48c31-7 29-41-4-49-22-6-106-2-254 12-48 4-66 16-55 34 7 11 264 14 313 3zm-140-70c105-5 122-8 120-22-3-14-24-16-138-19-170-4-220 2-220 28 0 14 9 20 38 23 20 2 46 2 57 0 11-1 75-6 143-10zm60-90c5-32-27-37-177-30-125 6-201 20-201 37 0 16 26 19 200 17 172-2 175-2 178-24zm-72-65c4-6-1-17-10-24-13-9-57-11-174-7-86 3-159 7-161 9s-1 10 2 19c5 13 32 15 171 15 114 0 167-4 172-12zm-72-61c17-13 17-14 1-31-15-15-29-16-89-12-39 3-107 9-151 12-81 5-103 13-91 33 11 17 307 15 330-2zm-70-67c5-5 6-16 2-26-6-15-20-16-135-10-71 3-143 9-160 12-29 6-40 22-24 38 10 9 306-4 317-14zm-174-56c93-7 101-9 94-29-7-17-112-20-247-6-80 9-105 20-92 41 6 9 30 11 89 6 45-3 115-9 156-12zm-147-56c115-10 137-15 135-27-4-21-74-25-197-13-92 10-120 20-107 41 9 14 4 14 169-1zm-30-58c59 0 67-2 67-19 0-24-44-35-103-27-23 3-71 8-107 11-72 7-75 8-66 31 6 14 16 16 74 10 37-3 97-6 135-6zm-73-60c26-16-6-35-58-34-166 3-193 8-178 33 9 14 214 15 236 1zm-158-48c23-23-42-34-150-27-100 7-120 14-106 36 9 15 241 6 256-9z"/>
</g>
<g transform="translate(0 188.8) scale(.04 -.04)" fill="#d1d1d1">
<path d="m1824 4507c-2-7-3-96-2-197l3-185 5 198c3 108 4 197 2 197-1 0-5-6-8-13z"/>
<path d="m2070 4322 5-197 3 189c1 104-1 193-5 197-5 5-6-81-3-189z"/>
<path d="m1518 4113c57-2 147-2 200 0 53 1 7 3-103 3s-154-2-97-3z"/>
<path d="m2188 4113c56-2 148-2 205 0 56 1 10 3-103 3s-159-2-102-3z"/>
<path d="m2512 3998-2-128-217-2-218-3-3-274c-2-211-5-272-15-268-6 2-21 0-32-4-15-6-12-8 15-6l35 2 3 273 2 272h215c168 0 217 3 221 13 2 7 3 67 1 133l-3 119-2-127z"/>
<path d="m1404 3990c0-58 1-81 3-52 2 28 2 76 0 105-2 28-3 5-3-53z"/>
<path d="m1610 3863 210-3 2-273 3-272 28-1c25-1 25-1 2 3l-25 4-2 272-3 272h-213l-212 1 210-3z"/>
<path d="m1918 3323c18-2 45-2 60 0s0 4-33 4-45-2-27-4z"/>
<path d="m1525 3203c-11-3-24-9-29-14s5-4 24 1c51 15 55 25 5 13z"/>
<path d="m1580 2780-5-435-115-6-115-5 118-2c86-1 119 1 122 11 3 6 4 206 3 442l-3 430-5-435z"/>
<path d="m2318 3203c7-3 16-2 19 1 4 3-2 6-13 5-11 0-14-3-6-6z"/>
<path d="m2365 3190c78-32 128-50 120-42-13 11-114 52-129 51-6 0-2-4 9-9z"/>
<path d="m1446 3171c-4-5 3-7 14-4 23 6 26 13 6 13-8 0-17-4-20-9z"/>
<path d="m1362 3133c-18-8-31-17-29-19 4-5 67 25 67 32 0 6-1 5-38-13z"/>
<path d="m2500 3136c0-2 7-7 16-10 8-3 12-2 9 4-6 10-25 14-25 6z"/>
<path d="m2540 3116c0-2 7-7 16-10 8-3 12-2 9 4-6 10-25 14-25 6z"/>
<path d="m1294 3094c-18-14-18-15 4-4 12 6 22 13 22 15 0 8-5 6-26-11z"/>
<path d="m2590 3090c35-24 54-31 30-11-14 11-29 21-35 21-5 0-3-5 5-10z"/>
<path d="m1218 3051c-25-16-49-34-52-40-5-8 88 50 103 65 12 12-10 1-51-25z"/>
<path d="m2535 3040c-4-7-3-16 3-22 14-14 47-6 47 12s-40 26-50 10zm45-10c0-5-9-10-20-10s-20 5-20 10c0 6 9 10 20 10s20-4 20-10z"/>
<path d="m2680 3037c0-3 17-17 37-33 20-15 33-23 29-16-8 13-66 56-66 49z"/>
<path d="m2590 3006c0-2 18-6 39-8 22-2 37 0 35 4-5 8-74 11-74 4z"/>
<path d="m1129 2983c-13-16-12-17 4-4 9 7 17 15 17 17 0 8-8 3-21-13z"/>
<path d="m2579 2977c5-5 26-7 47-5l39 3-47 5c-26 3-43 1-39-3z"/>
<path d="m2775 2960c10-11 20-20 23-20s-3 9-13 20-20 20-23 20 3-9 13-20z"/>
<path d="m1069 2933-34-38 38 34c34 33 42 41 34 41-2 0-19-17-38-37z"/>
<path d="m2630 2936c0-21 7-23 80-28 36-3 53-3 38-1-17 3-25 9-22 18 3 7 1 16-5 20-7 3-8 0-5-9 5-13-2-16-36-16-33 0-41 3-36 15 3 8 1 15-4 15-6 0-10-6-10-14z"/>
<path d="m2660 2891c0-10 19-25 25-20 1 2-3 10-11 17s-14 8-14 3z"/>
<path d="m948 2808c-49-59-78-98-61-83 19 17 114 135 109 135-2 0-24-24-48-52z"/>
<path d="m2775 2843c30-2 55-8 55-13 0-13-117-13-123 0-3 6-4 5-3-2 4-20 131-18 131 2 0 12-13 15-58 16l-57 1 55-4z"/>
<path d="m2935 2800c10-11 20-20 23-20s-3 9-13 20-20 20-23 20 3-9 13-20z"/>
<path d="m2884 2770c0-13 4-16 10-10 7 7 7 13 0 20-6 6-10 3-10-10z"/>
<path d="m2759 2757c5-5 21-7 37-5 27 3 26 4-8 9-22 3-34 1-29-4z"/>
<path d="m2975 2750c10-11 20-20 23-20s-3 9-13 20-20 20-23 20 3-9 13-20z"/>
<path d="m2830 2740c0-5 5-10 10-10 6 0 10 5 10 10 0 6-4 10-10 10-5 0-10-4-10-10z"/>
<path d="m2930 2721c13-10 13-12 0-22-13-9-13-10 0-6 8 2 15 10 15 17s-7 15-15 17c-13 4-13 3 0-6z"/>
<path d="m3010 2701c5-11 15-23 21-27 6-3 3 5-6 20-20 30-30 35-15 7z"/>
<path d="m2803 2693c15-2 39-2 55 0 15 2 2 4-28 4s-43-2-27-4z"/>
<path d="m2832 2653c3-15 15-18 71-19h67l-66 3c-52 3-65 7-60 18 3 8 1 15-5 15s-9-8-7-17z"/>
<path d="m3050 2640c6-11 13-20 16-20 2 0 0 9-6 20s-13 20-16 20c-2 0 0-9 6-20z"/>
<path d="m805 2609c-4-6-5-12-2-15 2-3 7 2 10 11 7 17 1 20-8 4z"/>
<path d="m2963 2613c32-3 47-9 47-19 0-21-147-20-153 1-4 11-4 10-3-2 1-16 12-18 81-18 73 0 80 2 80 20 0 17-7 20-50 21l-50 1 48-4z"/>
<path d="m3070 2604c0-5 7-18 15-28 8-11 15-16 15-10 0 5-7 18-15 28-8 11-15 16-15 10z"/>
<path d="m780 2560c-6-11-8-20-6-20 3 0 10 9 16 20s8 20 6 20c-3 0-10-9-16-20z"/>
<path d="m2864 2539c-13-21 14-30 82-26l69 3-74 2c-60 2-72 5-67 17 6 17 0 20-10 4z"/>
<path d="m3055 2541c4-8 2-17-6-22-9-6-10-9-2-9 19 0 27 21 13 33-10 9-11 9-5-2z"/>
<path d="m3106 2537c3-10 9-15 12-12s0 11-7 18c-10 9-11 8-5-6z"/>
<path d="m3140 2460c13-30 26-66 30-80 5-14 9-18 9-9 1 18-37 119-51 134-5 6 0-15 12-45z"/>
<path d="m743 2485c-3-9-3-18-1-21 3-3 8 4 11 16 6 23-1 27-10 5z"/>
<path d="m2884 2479c-10-16 11-31 37-26 22 4 22 4-3 6-46 2-31 20 20 24l47 3-47 2c-26 1-50-3-54-9z"/>
<path d="m3077 2469c4-13 8-18 11-10 2 7-1 18-6 23-8 8-9 4-5-13z"/>
<path d="m719 2424c-5-15-8-29-5-31 2-2 8 10 14 26 13 38 5 41-9 5z"/>
<path d="m2907 2414c-3-4-2-15 4-25 8-17 21-19 102-17l92 2-92 3c-71 3-93 7-93 18 0 7 8 16 18 18 14 4 13 5-4 6-11 0-24-2-27-5z"/>
<path d="m3048 2413c7-3 16-2 19 1 4 3-2 6-13 5-11 0-14-3-6-6z"/>
<path d="m701 2364c0-11 3-14 6-6 3 7 2 16-1 19-3 4-6-2-5-13z"/>
<path d="m2310 2338c0-5 55-7 123-6 124 2 109 5-41 10-45 2-82 0-82-4z"/>
<path d="m3183 2335c0-8 4-15 9-15 4 0 8 4 8 9 0 6-4 12-8 15-5 3-9-1-9-9z"/>
<path d="m690 2328c0-5 93-7 208-6 208 2 184 6-71 10-75 2-137 0-137-4z"/>
<path d="m2783 2328c7-4 98-7 202-6 205 2 180 6-62 10-83 2-146 0-140-4z"/>
<path d="m7 1595c3-27 7-52 9-54 8-9 2 65-6 84-6 13-7 2-3-30z"/>
<path d="m3886 1618c-3-13-5-36-5-53 1-21 4-15 10 20 8 52 6 72-5 33z"/>
<path d="m1657 1593c145-2 381-2 525 0 145 1 27 2-262 2s-407-1-263-2z"/>
<path d="m1148 1583c23-2 59-2 80 0 20 2 1 4-43 4s-61-2-37-4z"/>
<path d="m1298 1583c6-2 18-2 25 0 6 3 1 5-13 5s-19-2-12-5z"/>
<path d="m1358 1583c7-3 16-2 19 1 4 3-2 6-13 5-11 0-14-3-6-6z"/>
<path d="m2468 1583c7-3 16-2 19 1 4 3-2 6-13 5-11 0-14-3-6-6z"/>
<path d="m2598 1583c17-2 47-2 65 0 17 2 3 4-33 4s-50-2-32-4z"/>
<path d="m795 1573c-44-2-83-7-87-11s9-6 30-4c20 2 111 7 202 11 144 7 150 8 50 7-63 0-151-2-195-3z"/>
<path d="m2748 1573c28-2 76-2 105 0 28 2 5 3-53 3s-81-1-52-3z"/>
<path d="m3025 1560c28-5 71-9 98-9 43-1 60-12 38-25-5-3-11-17-13-31-3-13-1-22 3-19 5 3 9 12 9 20s5 23 12 34c7 10 10 21 8 23-3 3-50 7-105 10-69 3-85 3-50-3z"/>
<path d="m2770 1540c-13-8-13-11 3-27 14-14 37-18 125-19l107-2-100 7c-55 3-106 10-112 14-27 17-11 26 50 30l62 3-60 2c-33 1-67-3-75-8z"/>
<path d="m717 1519c4-13 8-18 11-10 2 7-1 18-6 23-8 8-9 4-5-13z"/>
<path d="m2948 1533c7-3 16-2 19 1 4 3-2 6-13 5-11 0-14-3-6-6z"/>
<path d="m3018 1533c6-2 18-2 25 0 6 3 1 5-13 5s-19-2-12-5z"/>
<path d="m3075 1521c4-8 2-17-6-22-9-6-10-9-2-9 19 0 27 21 13 33-10 9-11 9-5-2z"/>
<path d="m21 1504c0-11 3-14 6-6 3 7 2 16-1 19-3 4-6-2-5-13z"/>
<path d="m3871 1504c0-11 3-14 6-6 3 7 2 16-1 19-3 4-6-2-5-13z"/>
<path d="m32 1460c0-14 2-19 5-12 2 6 2 18 0 25-3 6-5 1-5-13z"/>
<path d="m3862 1455c0-16 2-22 5-12 2 9 2 23 0 30-3 6-5-1-5-18z"/>
<path d="m2724 1459c-12-20 13-30 62-26l49 3-52 2c-29 1-53 7-53 12 0 6 59 10 156 10 120 0 155-3 152-12-3-7-24-16-49-19-43-6-43-6-7-7 48-2 68 6 68 29 0 18-10 19-159 19-104 0-162-4-167-11z"/>
<path d="m3126 1445c-9-26-7-32 5-12 6 10 9 21 6 23-2 3-7-2-11-11z"/>
<path d="m760 1411c0-6 4-13 10-16s7 1 4 9c-7 18-14 21-14 7z"/>
<path d="m3846 1405c-3-9-6-24-5-33 0-9 5-4 10 12 9 32 6 48-5 21z"/>
<path d="m2685 1400c-9-15 4-30 23-29 15 1 15 2 0 6-49 13-5 23 110 26l127 3-127 2c-76 1-129-2-133-8z"/>
<path d="m2968 1403c7-3 16-2 19 1 4 3-2 6-13 5-11 0-14-3-6-6z"/>
<path d="m3106 1393c-6-14-5-15 5-6 7 7 10 15 7 18s-9-2-12-12z"/>
<path d="m52 1380c0-14 2-19 5-12 2 6 2 18 0 25-3 6-5 1-5-13z"/>
<path d="m780 1371c0-6 4-13 10-16s7 1 4 9c-7 18-14 21-14 7z"/>
<path d="m2778 1363c7-3 16-2 19 1 4 3-2 6-13 5-11 0-14-3-6-6z"/>
<path d="m3076 1338-18-33 21 25c18 22 26 40 18 40-1 0-11-15-21-32z"/>
<path d="m2897 1353c18-2 50-2 70 0 21 2 7 4-32 4-38 0-55-2-38-4z"/>
<path d="m66 1325c8-37 14-45 14-19 0 10-5 26-10 34-8 11-9 7-4-15z"/>
<path d="m2658 1343c-29-3-38-9-38-23 0-26 50-32 220-28 119 3 135 5 138 21 2 9-1 17-7 17s-8-7-5-15c9-23-292-22-321 2-12 9-14 14-5 11 8-3 31 1 50 8 36 13 33 14-32 7z"/>
<path d="m3821 1314c-6-21-9-40-6-42 2-2 8 13 14 34s9 40 6 42c-2 2-8-13-14-34z"/>
<path d="m2788 1333c7-3 16-2 19 1 4 3-2 6-13 5-11 0-14-3-6-6z"/>
<path d="m820 1300c6-11 13-20 16-20 2 0 0 9-6 20s-13 20-16 20c-2 0 0-9 6-20z"/>
<path d="m3007 1229c-26-38-45-69-43-69 7 0 99 130 95 134-2 2-25-27-52-65z"/>
<path d="m87 1259c4-13 8-18 11-10 2 7-1 18-6 23-8 8-9 4-5-13z"/>
<path d="m880 1212c24-35 48-66 54-70 12-7-59 95-82 118-8 8 4-13 28-48z"/>
<path d="m2553 1263c-7-2-13-9-13-13 0-19 80-31 220-35l145-3-135 8c-74 4-152 11-172 15-81 16-31 25 132 25 167 0 171 0 180-22 10-23 10-23 7 2l-2 25-175 2c-96 1-181-1-187-4z"/>
<path d="m3777 1188c-9-23-15-43-13-45s11 15 20 38 15 43 13 45-11-15-20-38z"/>
<path d="m2507 1183c-4-3-7-12-7-20 0-10 19-13 78-11l77 2-72 3c-40 2-73 8-73 13 0 6 67 10 166 10 154 0 166-1 159-17-5-14-3-15 6-6 27 27-4 33-165 33-89 0-166-3-169-7z"/>
<path d="m120 1175c0-5 5-17 10-25s10-10 10-5c0 6-5 17-10 25s-10 11-10 5z"/>
<path d="m2748 1143c7-3 16-2 19 1 4 3-2 6-13 5-11 0-14-3-6-6z"/>
<path d="m2798 1143c7-3 16-2 19 1 4 3-2 6-13 5-11 0-14-3-6-6z"/>
<path d="m147 1110c3-11 9-22 13-25 5-3 6 4 3 15s-9 22-13 25c-5 3-6-4-3-15z"/>
<path d="m2444 1119c-10-16 11-31 37-26 22 4 22 4-3 6-16 0-28 5-28 11s64 11 158 13l157 3-157 2c-104 1-159-2-164-9z"/>
<path d="m2899 1093-34-38 38 34c20 19 37 36 37 38 0 8-8 0-41-34z"/>
<path d="m2773 1099c-2-23 3-25 10-4 4 8 3 16-1 19s-9-4-9-15z"/>
<path d="m1020 1045c35-36 67-65 69-65 3 0-24 29-59 65s-67 65-69 65c-3 0 24-29 59-65z"/>
<path d="m3736 1093c-6-14-5-15 5-6 7 7 10 15 7 18s-9-2-12-12z"/>
<path d="m2558 1083c6-2 18-2 25 0 6 3 1 5-13 5s-19-2-12-5z"/>
<path d="m2708 1073c12-2 30-2 40 0 9 3-1 5-23 4-22 0-30-2-17-4z"/>
<path d="m170 1061c0-6 4-13 10-16s7 1 4 9c-7 18-14 21-14 7z"/>
<path d="m2383 1055c-8-23-2-26 63-30 56-4 51-1-23 11-52 8-38 23 25 27l57 3-58 2c-44 2-59-2-64-13z"/>
<path d="m3716 1053c-6-14-5-15 5-6 7 7 10 15 7 18s-9-2-12-12z"/>
<path d="m2697 1042c5-20 0-21-63-25l-69-3 68-2c53-2 69 1 74 14 3 8 1 20-5 26-8 8-9 5-5-10z"/>
<path d="m190 1024c0-5 7-18 15-28 8-11 15-16 15-10 0 5-7 18-15 28-8 11-15 16-15 10z"/>
<path d="m3696 1013c-6-14-5-15 5-6 7 7 10 15 7 18s-9-2-12-12z"/>
<path d="m2528 1013c7-3 16-2 19 1 4 3-2 6-13 5-11 0-14-3-6-6z"/>
<path d="m2285 1e3c-8-13 3-30 18-29 9 0 9 2 0 6-31 12-8 22 55 26l67 3-67 2c-37 1-70-2-73-8z"/>
<path d="m2789 983-24-28 28 24c25 23 32 31 24 31-2 0-14-12-28-27z"/>
<path d="m2468 993c7-3 16-2 19 1 4 3-2 6-13 5-11 0-14-3-6-6z"/>
<path d="m1110 966c0-2 8-10 18-17 15-13 16-12 3 4s-21 21-21 13z"/>
<path d="m2333 963c9-2 23-2 30 0 6 3-1 5-18 5-16 0-22-2-12-5z"/>
<path d="m3655 944c-9-14-15-27-13-30 2-2 12 10 22 26 21 37 15 40-9 4z"/>
<path d="m2478 953c29-2 74-2 100 0s2 3-53 3-76-1-47-3z"/>
<path d="m2720 929c-35-31-35-31-3-9 18 11 35 25 38 30 10 16 2 11-35-21z"/>
<path d="m2215 940c-8-13 3-30 18-29 9 0 9 2 0 6-27 10-11 22 35 26l47 3-47 2c-26 1-50-2-53-8z"/>
<path d="m250 920c6-11 13-20 16-20 2 0 0 9-6 20s-13 20-16 20c-2 0 0-9 6-20z"/>
<path d="m1177 912c28-24 127-85 113-70-3 3-36 27-75 52-38 25-55 33-38 18z"/>
<path d="m2378 933c6-2 18-2 25 0 6 3 1 5-13 5s-19-2-12-5z"/>
<path d="m2510 917c0-13-14-17-77-20l-78-3 78-2c62-2 79 1 84 13 3 9 3 19-1 22-3 4-6-1-6-10z"/>
<path d="m2263 903c9-2 23-2 30 0 6 3-1 5-18 5-16 0-22-2-12-5z"/>
<path d="m3623 888c-15-20-25-38-20-38 3 0 12 11 21 25 17 26 16 35-1 13z"/>
<path d="m2147 883c-15-14-6-33 16-32 16 1 18 2 5 6-34 9-18 22 30 26l47 3-46 2c-25 1-49-1-52-5z"/>
<path d="m2358 873c7-3 16-2 19 1 4 3-2 6-13 5-11 0-14-3-6-6z"/>
<path d="m2404 860c0-11 4-20 8-20s8 9 8 20-4 20-8 20-8-9-8-20z"/>
<path d="m280 866c0-2 8-10 18-17 15-13 16-12 3 4s-21 21-21 13z"/>
<path d="m2594 844c-18-14-18-15 4-4 12 6 22 13 22 15 0 8-5 6-26-11z"/>
<path d="m1300 836c0-3 9-10 20-16s20-8 20-6c0 3-9 10-20 16s-20 8-20 6z"/>
<path d="m2328 833c12-2 32-2 45 0 12 2 2 4-23 4s-35-2-22-4z"/>
<path d="m3564 803c-15-20-23-33-16-29 13 8 56 66 49 66-3 0-17-17-33-37z"/>
<path d="m339 790c16-25 46-63 66-85 32-35 31-33-7 16-79 103-89 114-59 69z"/>
<path d="m2047 823c-4-3-7-11-7-17 0-7 3-6 8 1 5 8 45 13 117 16l110 3-111 2c-61 1-114-1-117-5z"/>
<path d="m2536 815c-11-8-16-15-10-15 5 0 18 7 28 15 11 8 16 15 10 15-5 0-18-7-28-15z"/>
<path d="m2276 803c-6-14-5-15 5-6 7 7 10 15 7 18s-9-2-12-12z"/>
<path d="m1350 806c0-2 7-7 16-10 8-3 12-2 9 4-6 10-25 14-25 6z"/>
<path d="m1965 791c-80-5-100-9-100-21 0-11 13-15 50-16l50-1-47 4c-80 7-53 23 40 24 48 0 110 4 137 9 46 7 47 7 10 7-22-1-85-3-140-6z"/>
<path d="m1414 775c15-8 33-15 40-15 6 0-2 7-18 15-15 8-33 15-40 15-6 0 2-7 18-15z"/>
<path d="m2420 765c-30-13-48-24-40-24s38 11 65 24c65 30 46 30-25 0z"/>
<path d="m2110 760c-9-6-10-10-3-10 6 0 15 5 18 10 8 12 4 12-15 0z"/>
<path d="m1478 748c5-5 16-8 23-6 8 3 3 7-10 11-17 4-21 3-13-5z"/>
<path d="m3495 713c-21-27-28-39-16-28 23 19 66 75 59 75-2 0-21-21-43-47z"/>
<path d="m1998 743c17-2 47-2 65 0 17 2 3 4-33 4s-50-2-32-4z"/>
<path d="m1530 730c8-5 24-10 34-10 26 0 18 6-19 14-22 5-26 4-15-4z"/>
<path d="m2325 730c-13-6-15-9-5-9 8 0 22 4 30 9 18 12 2 12-25 0z"/>
<path d="m1600 710c8-5 26-10 39-10 32 0 24 6-19 14-25 4-31 3-20-4z"/>
<path d="m2220 705c-30-7-84-18-120-23l-65-10 65 4c62 5 200 33 200 40 0 6-22 3-80-11z"/>
<path d="m1685 690c19-8 103-14 94-6-2 2-29 6-59 9-34 3-47 2-35-3z"/>
<path d="m1803 673c9-2 23-2 30 0 6 3-1 5-18 5-16 0-22-2-12-5z"/>
<path d="m1908 673c7-3 16-2 19 1 4 3-2 6-13 5-11 0-14-3-6-6z"/>
<path d="m1973 673c9-2 25-2 35 0 9 3 1 5-18 5s-27-2-17-5z"/>
<path d="m3370 573-65-68 68 65c37 35 67 66 67 67 0 8-10-2-70-64z"/>
<path d="m520 575c30-30 57-55 59-55 3 0-19 25-49 55s-57 55-59 55c-3 0 19-25 49-55z"/>
<path d="m633 473c9-14 87-77 87-70 0 3-21 22-47 43s-44 33-40 27z"/>
<path d="m3214 437c-28-23-64-52-80-65s-9-10 16 7c44 28 130 100 120 100-3 0-28-19-56-42z"/>
<path d="m730 396c0-3 20-19 45-36s45-29 45-26-20 19-45 36-45 29-45 26z"/>
<path d="m3079 333c-13-16-12-17 4-4s21 21 13 21c-2 0-10-8-17-17z"/>
<path d="m845 315c11-9 29-21 40-26l20-10-20 16c-11 9-29 21-40 26l-20 10 20-16z"/>
<path d="m3020 299c-17-13-18-17-5-10 33 17 51 31 40 31-5 0-21-10-35-21z"/>
<path d="m956 245c10-8 23-15 28-15 6 0 1 7-10 15-10 8-23 15-28 15-6 0-1-7 10-15z"/>
<path d="m2920 240c-9-6-10-10-3-10 6 0 15 5 18 10 8 12 4 12-15 0z"/>
<path d="m1007 219c7-7 15-10 18-7s-2 9-12 12c-14 6-15 5-6-5z"/>
<path d="m2860 210c-19-11-31-19-27-20 11 0 67 29 67 35 0 7-1 7-40-15z"/>
<path d="m1047 199c7-7 15-10 18-7s-2 9-12 12c-14 6-15 5-6-5z"/>
<path d="m1087 179c7-7 15-10 18-7s-2 9-12 12c-14 6-15 5-6-5z"/>
<path d="m2800 180c-9-6-10-10-3-10 6 0 15 5 18 10 8 12 4 12-15 0z"/>
<path d="m2705 139c-22-10-29-16-15-13 28 7 80 33 65 33-5 0-28-9-50-20z"/>
<path d="m1178 138c5-5 16-8 23-6 8 3 3 7-10 11-17 4-21 3-13-5z"/>
<path d="m1298 93c7-3 16-2 19 1 4 3-2 6-13 5-11 0-14-3-6-6z"/>
<path d="m2588 93c7-3 16-2 19 1 4 3-2 6-13 5-11 0-14-3-6-6z"/>
<path d="m1368 73c7-3 16-2 19 1 4 3-2 6-13 5-11 0-14-3-6-6z"/>
<path d="m2518 73c6-2 18-2 25 0 6 3 1 5-13 5s-19-2-12-5z"/>
<path d="m1438 53c6-2 18-2 25 0 6 3 1 5-13 5s-19-2-12-5z"/>
<path d="m2438 53c6-2 18-2 25 0 6 3 1 5-13 5s-19-2-12-5z"/>
<path d="m1523 33c9-2 23-2 30 0 6 3-1 5-18 5-16 0-22-2-12-5z"/>
<path d="m2353 33c9-2 23-2 30 0 6 3-1 5-18 5-16 0-22-2-12-5z"/>
<path d="m1578 23c7-3 16-2 19 1 4 3-2 6-13 5-11 0-14-3-6-6z"/>
<path d="m2308 23c7-3 16-2 19 1 4 3-2 6-13 5-11 0-14-3-6-6z"/>
<path d="m1621 16c2-2 29-6 59-9 36-4 46-3 30 3-25 8-97 13-89 6z"/>
<path d="m2190 10c-16-6-6-7 30-3 30 3 57 7 59 9 8 7-64 2-89-6z"/>
</g>
<g transform="translate(0 188.8) scale(.04 -.04)" fill="#919192">
<path d="m1893 4513c31-2 83-2 115 0 31 2 5 3-58 3s-89-1-57-3z"/>
<path d="m1605 4130-210-5v-133l-1-132 3 130 4 130h209c133 0 210 4 210 10s-1 9-2 8c-2-1-97-5-213-8z"/>
<path d="m2080 4128c0-5 100-7 223-6 223 2 197 6-76 10-81 2-147 0-147-4z"/>
<path d="m1825 3311c7-7 255-8 255-1 0 3-58 6-130 6-71 0-127-2-125-5z"/>
<path d="m1530 3210c-11-7-4-8 23-3l37 6-2-439-3-439-245-5-245-6 241-2c194-2 244 1 253 12 8 9 10 135 9 447l-3 434-25 3c-14 1-32-2-40-8z"/>
<path d="m2302 2773 3-448h240l240-1-237 3-238 3v441 441l28-6c20-5 23-4 12 4-8 5-23 10-33 10-16 0-17-26-15-447z"/>
<path d="m1480 3190c-9-6-10-10-3-10 6 0 15 5 18 10 8 12 4 12-15 0z"/>
<path d="m2390 3190c8-5 20-10 25-10 6 0 3 5-5 10s-19 10-25 10c-5 0-3-5 5-10z"/>
<path d="m1430 3170c-9-6-10-10-3-10 6 0 15 5 18 10 8 12 4 12-15 0z"/>
<path d="m2440 3170c8-5 20-10 25-10 6 0 3 5-5 10s-19 10-25 10c-5 0-3-5 5-10z"/>
<path d="m1385 3150c-3-6 1-7 9-4 18 7 21 14 7 14-6 0-13-4-16-10z"/>
<path d="m2487 3149c7-7 15-10 18-7s-2 9-12 12c-14 6-15 5-6-5z"/>
<path d="m1328 3124c-38-20-36-28 2-9 17 9 30 18 30 20 0 7-1 6-32-11z"/>
<path d="m2527 3129c7-7 15-10 18-7s-2 9-12 12c-14 6-15 5-6-5z"/>
<path d="m2567 3109c7-7 15-10 18-7s-2 9-12 12c-14 6-15 5-6-5z"/>
<path d="m1258 3084c-38-20-36-28 2-9 17 9 30 18 30 20 0 7-1 6-32-11z"/>
<path d="m1164 3018-19-23 23 19c21 18 27 26 19 26-2 0-12-10-23-22z"/>
<path d="m2735 3e3c10-11 20-20 23-20s-3 9-13 20-20 20-23 20 3-9 13-20z"/>
<path d="m1116 2985c-11-8-15-15-9-15s16 7 23 15c16 19 11 19-14 0z"/>
<path d="m2770 2977c0-2 15-16 33-33l32-29-29 33c-28 30-36 37-36 29z"/>
<path d="m1054 2928-29-33 33 29c17 17 32 31 32 33 0 8-8 1-36-29z"/>
<path d="m2663 2943c9-2 25-2 35 0 9 3 1 5-18 5s-27-2-17-5z"/>
<path d="m2870 2875c19-19 36-35 39-35s-10 16-29 35-36 35-39 35 10-16 29-35z"/>
<path d="m2670 2889c0-5 5-7 10-4 6 3 10 8 10 11 0 2-4 4-10 4-5 0-10-5-10-11z"/>
<path d="m2765 2891c3-6-13-12-35-14l-40-4 42 1c23 1 43 6 46 14 2 6-1 12-8 12-6 0-9-4-5-9z"/>
<path d="m975 2848-40-43 43 40c39 36 47 45 39 45-2 0-21-19-42-42z"/>
<path d="m2710 2829c0-5 5-7 10-4 6 3 10 8 10 11 0 2-4 4-10 4-5 0-10-5-10-11z"/>
<path d="m2935 2810c10-11 20-20 23-20s-3 9-13 20-20 20-23 20 3-9 13-20z"/>
<path d="m914 2778-19-23 23 19c21 18 27 26 19 26-2 0-12-10-23-22z"/>
<path d="m2825 2783c61-4 73-19 23-26l-33-5 35 2c24 1 35 6 35 16 0 12-13 15-58 16l-57 1 55-4z"/>
<path d="m2975 2760c10-11 20-20 23-20s-3 9-13 20-20 20-23 20 3-9 13-20z"/>
<path d="m862 2708c-36-54-44-68-39-68 2 0 21 25 41 55s34 55 32 55c-3 0-18-19-34-42z"/>
<path d="m2828 2723c17-2 47-2 65 0 17 2 3 4-33 4s-50-2-32-4z"/>
<path d="m2888 2693c6-2 18-2 25 0 6 3 1 5-13 5s-19-2-12-5z"/>
<path d="m2905 2663c33-2 63-10 68-16 6-8 7-8 4 3s-20 15-68 16l-64 1 60-4z"/>
<path d="m3075 2610c9-16 18-30 21-30 2 0-2 14-11 30-9 17-18 30-21 30-2 0 2-13 11-30z"/>
<path d="m2860 2593c0-12 3-14 8-7 4 7 18 14 32 17 21 4 20 4-7 6-25 1-33-3-33-16z"/>
<path d="m786 2583c-6-14-5-15 5-6 7 7 10 15 7 18s-9-2-12-12z"/>
<path d="m3100 2561c0-6 4-13 10-16s7 1 4 9c-7 18-14 21-14 7z"/>
<path d="m765 2549c-4-6-5-12-2-15 2-3 7 2 10 11 7 17 1 20-8 4z"/>
<path d="m2877 2544c-10-11-8-24 4-24 5 0 7 5 4 10-4 6 25 10 79 10 47 0 87-4 89-10 3-6 4-5 3 2-3 14-166 25-179 12z"/>
<path d="m3120 2521c0-6 4-13 10-16s7 1 4 9c-7 18-14 21-14 7z"/>
<path d="m746 2503c-6-14-5-15 5-6 7 7 10 15 7 18s-9-2-12-12z"/>
<path d="m3018 2513c7-3 16-2 19 1 4 3-2 6-13 5-11 0-14-3-6-6z"/>
<path d="m3003 2483c15-2 37-2 50 0 12 2 0 4-28 4-27 0-38-2-22-4z"/>
<path d="m3146 2467c3-10 9-15 12-12s0 11-7 18c-10 9-11 8-5-6z"/>
<path d="m726 2453c-6-14-5-15 5-6 7 7 10 15 7 18s-9-2-12-12z"/>
<path d="m2973 2453c20-2 54-2 75 0 20 2 3 4-38 4s-58-2-37-4z"/>
<path d="m3160 2435c0-5 5-17 10-25s10-10 10-5c0 6-5 17-10 25s-10 11-10 5z"/>
<path d="m703 2405c-3-9-3-18-1-21 3-3 8 4 11 16 6 23-1 27-10 5z"/>
<path d="m2938 2413c-26-7-22-33 5-32 21 0 21 1 2 9-19 7-18 8 5 14 14 3 41 7 60 9 28 3 26 4-10 4-25 0-53-1-62-4z"/>
<path d="m3180 2368c0-9 5-20 10-23 13-8 13 5 0 25-8 13-10 13-10-2z"/>
<path d="m686 2348c-8-34 4-39 85-35l74 3-78 2c-77 2-77 2-71 27 3 14 4 25 1 25-2 0-7-10-11-22z"/>
<path d="m3093 2313c20-2 54-2 75 0 20 2 3 4-38 4s-58-2-37-4z"/>
<path d="m2 1700c0-30 3-64 8-75 7-17 9-16 9 10 0 17-4 50-8 75l-8 45-1-55z"/>
<path d="m3888 1684c-5-4-8-23-7-43 0-34 1-34 10-11 11 27 8 66-3 54z"/>
<path d="m1782 1603c82-2 214-2 295 0 82 1 15 3-147 3s-229-2-148-3z"/>
<path d="m1045 1590c-38-3 25-4 140-2 116 3 212 6 214 8 7 6-277 1-354-6z"/>
<path d="m2441 1596c2-2 87-5 189-8s156-2 120 2c-67 8-317 13-309 6z"/>
<path d="m707 1573c-3-5 23-7 56-5 104 5 116 9 30 11-45 0-84-2-86-6z"/>
<path d="m2901 1576c2-2 58-6 124-8 75-4 101-3 70 2-51 8-202 13-194 6z"/>
<path d="m22 1550c0-14 4-36 8-50 6-20 8-21 8-5 0 11-4 34-8 50-7 27-8 27-8 5z"/>
<path d="m3872 1545c0-16 2-22 5-12 2 9 2 23 0 30-3 6-5-1-5-18z"/>
<path d="m700 1545c0-5 5-17 10-25s10-10 10-5c0 6-5 17-10 25s-10 11-10 5z"/>
<path d="m2780 1530c0-15 49-32 79-27 26 4 26 4-1 6-51 2-29 20 30 24 47 3 43 4-25 5-51 1-83-2-83-8z"/>
<path d="m3045 1523c11-3 24-10 28-17 6-7 7-6 4 4-2 8-14 16-28 17-19 1-20 1-4-4z"/>
<path d="m3165 1519c-4-6-5-12-2-15 2-3 7 2 10 11 7 17 1 20-8 4z"/>
<path d="m3861 1494c0-11 3-14 6-6 3 7 2 16-1 19-3 4-6-2-5-13z"/>
<path d="m720 1495c0-5 5-17 10-25s10-10 10-5c0 6-5 17-10 25s-10 11-10 5z"/>
<path d="m3013 1493c9-2 25-2 35 0 9 3 1 5-18 5s-27-2-17-5z"/>
<path d="m3145 1469c-4-6-5-12-2-15 2-3 7 2 10 11 7 17 1 20-8 4z"/>
<path d="m41 1450c0-8 4-24 9-35 5-13 9-14 9-5 0 8-4 24-9 35-5 13-9 14-9 5z"/>
<path d="m3851 1448c0-9-4-25-7-35-5-17-5-17 6 0 6 10 9 25 7 35-4 15-5 15-6 0z"/>
<path d="m740 1445c0-5 5-17 10-25s10-10 10-5c0 6-5 17-10 25s-10 11-10 5z"/>
<path d="m2858 1433c17-2 47-2 65 0 17 2 3 4-33 4s-50-2-32-4z"/>
<path d="m3126 1425c-9-26-7-32 5-12 6 10 9 21 6 23-2 3-7-2-11-11z"/>
<path d="m766 1387c3-10 9-15 12-12s0 11-7 18c-10 9-11 8-5-6z"/>
<path d="m2690 1390c0-5 4-10 9-10 6 0 13 5 16 10 3 6-1 10-9 10-9 0-16-4-16-10z"/>
<path d="m2888 1393c7-3 16-2 19 1 4 3-2 6-13 5-11 0-14-3-6-6z"/>
<path d="m2963 1393c29-3 37-8 33-19-3-8-1-14 3-14 11 0 22 26 14 34-4 3-25 5-47 4l-41-1 38-4z"/>
<path d="m3105 1379c-4-6-5-12-2-15 2-3 7 2 10 11 7 17 1 20-8 4z"/>
<path d="m61 1370c0-8 4-22 9-30 12-18 12-2 0 25-6 13-9 15-9 5z"/>
<path d="m2733 1373c9-2 25-2 35 0 9 3 1 5-18 5s-27-2-17-5z"/>
<path d="m3831 1373c-1-6-4-20-7-30-5-17-5-17 6 0 6 10 9 23 6 30-3 9-5 9-5 0z"/>
<path d="m2823 1363c15-2 37-2 50 0 12 2 0 4-28 4-27 0-38-2-22-4z"/>
<path d="m2918 1363c7-3 16-2 19 1 4 3-2 6-13 5-11 0-14-3-6-6z"/>
<path d="m795 1330c9-16 18-30 21-30 2 0-2 14-11 30-9 17-18 30-21 30-2 0 2-13 11-30z"/>
<path d="m2675 1331c-11-5-27-6-35-3-9 3-6-2 5-11s36-16 55-17c24 0 31 3 21 9-8 5-21 7-30 3-9-3-12-1-8 3 4 5 29 12 55 16l47 6-45 1c-25 0-54-3-65-7z"/>
<path d="m2870 1323c50-2 88-9 93-16 6-8 7-8 4 3-3 12-22 15-93 16h-89l85-3z"/>
<path d="m80 1301c0-11 4-22 9-25 4-3 6 6 3 19-5 30-12 33-12 6z"/>
<path d="m3065 1309c-4-6-5-12-2-15 2-3 7 2 10 11 7 17 1 20-8 4z"/>
<path d="m3806 1295c-3-9-6-22-5-28 0-7 5-1 10 12s8 26 5 28c-2 2-6-3-10-12z"/>
<path d="m830 1271c5-11 15-23 21-27 6-3 3 5-6 20-20 30-30 35-15 7z"/>
<path d="m101 1250c0-8 4-22 9-30 12-18 12-2 0 25-6 13-9 15-9 5z"/>
<path d="m2560 1251c0-11 40-19 140-27 72-6 80-5 74 10-5 14 3 16 61 16 56 0 66-3 61-15-3-8-1-15 5-15s9 8 7 18c-3 15-21 17-176 20-97 1-172-1-172-7zm200-11c0-5-15-10-34-10s-38 5-41 10c-4 6 10 10 34 10 23 0 41-4 41-10z"/>
<path d="m3786 1235c-9-26-7-32 5-12 6 10 9 21 6 23-2 3-7-2-11-11z"/>
<path d="m2984 1183c-15-20-23-33-16-29 13 8 56 66 49 66-3 0-17-17-33-37z"/>
<path d="m120 1195c0-5 5-17 10-25s10-10 10-5c0 6-5 17-10 25s-10 11-10 5z"/>
<path d="m900 1170c11-16 26-33 32-36 7-4-1 9-16 29-34 44-46 50-16 7z"/>
<path d="m3766 1185c-9-26-7-32 5-12 6 10 9 21 6 23-2 3-7-2-11-11z"/>
<path d="m2822 1164c-7-8-8-14-3-14 10 0 25 19 20 25-2 1-10-3-17-11z"/>
<path d="m2673 1153c15-2 37-2 50 0 12 2 0 4-28 4-27 0-38-2-22-4z"/>
<path d="m140 1141c0-6 4-13 10-16s7 1 4 9c-7 18-14 21-14 7z"/>
<path d="m3746 1135c-9-26-7-32 5-12 6 10 9 21 6 23-2 3-7-2-11-11z"/>
<path d="m2450 1111c0-11 108-27 117-17 4 3-10 6-31 6-22 0-35 4-31 10s-7 10-24 10-31-4-31-9z"/>
<path d="m2708 1113c7-3 16-2 19 1 4 3-2 6-13 5-11 0-14-3-6-6z"/>
<path d="m2759 1111c11-7 10-11-5-20-16-9-16-10-3-11 9 0 19 6 22 14 6 16-1 26-17 26-6 0-5-4 3-9z"/>
<path d="m2855 1038c-44-45-67-71-51-58 50 42 144 140 135 140-2 0-40-37-84-82z"/>
<path d="m166 1087c3-10 9-15 12-12s0 11-7 18c-10 9-11 8-5-6z"/>
<path d="m1015 1040c33-33 62-60 64-60 3 0-21 27-54 60s-62 60-64 60c-3 0 21-27 54-60z"/>
<path d="m3725 1089c-4-6-5-12-2-15 2-3 7 2 10 11 7 17 1 20-8 4z"/>
<path d="m2598 1083c6-2 18-2 25 0 6 3 1 5-13 5s-19-2-12-5z"/>
<path d="m2663 1083c9-2 23-2 30 0 6 3-1 5-18 5-16 0-22-2-12-5z"/>
<path d="m186 1047c3-10 9-15 12-12s0 11-7 18c-10 9-11 8-5-6z"/>
<path d="m2390 1051c0-13 34-20 125-24 44-2 59-2 33 0-76 7-55 22 35 26 57 2 40 4-55 5-76 1-138-2-138-7z"/>
<path d="m2679 1052c7-5 10-15 7-21-4-6-2-11 4-11 17 0 8 33-10 37-12 4-13 3-1-5z"/>
<path d="m3705 1049c-4-6-5-12-2-15 2-3 7 2 10 11 7 17 1 20-8 4z"/>
<path d="m3675 990c-9-16-13-30-11-30 3 0 12 14 21 30 9 17 13 30 11 30-3 0-12-13-21-30z"/>
<path d="m2290 991c0-14 24-20 93-24 34-3 45-2 25 0-53 6-47 21 10 26 28 2 12 4-40 5-49 1-88-2-88-7z"/>
<path d="m220 981c0-6 4-13 10-16s7 1 4 9c-7 18-14 21-14 7z"/>
<path d="m2535 983c38-2 73-9 78-16 6-8 7-8 4 3-3 12-21 15-78 16l-74 1 70-4z"/>
<path d="m1105 960c10-11 20-20 23-20s-3 9-13 20-20 20-23 20 3-9 13-20z"/>
<path d="m2744 938-19-23 23 19c21 18 27 26 19 26-2 0-12-10-23-22z"/>
<path d="m1155 920c10-11 20-20 23-20s-3 9-13 20-20 20-23 20 3-9 13-20z"/>
<path d="m2220 931c0-13 22-19 87-24 32-3 47-3 33 0-51 8-55 17-10 23 39 6 35 7-32 8-43 1-78-2-78-7z"/>
<path d="m2445 923c27-3 53-10 57-16 5-8 8-6 8 6 0 14-9 17-57 15l-58-2 50-3z"/>
<path d="m275 891c8-17 19-33 25-36 5-3 1 10-11 29-25 43-36 48-14 7z"/>
<path d="m3621 897c-13-21-12-21 5-5 10 10 16 20 13 22-3 3-11-5-18-17z"/>
<path d="m2150 871c0-12 33-19 110-24 36-3 52-3 35 0-59 8-59 17 0 23 53 6 48 7-42 8-57 1-103-2-103-7z"/>
<path d="m2390 873c7-3 7-10-2-21-11-13-11-14 2-10 18 6 20 30 2 34-7 1-8 0-2-3z"/>
<path d="m2630 859c-22-18-22-19-3-10 12 6 25 16 28 21 9 15 3 12-25-11z"/>
<path d="m3571 823c-25-36-26-41-6-18 26 30 49 65 42 65-2 0-18-21-36-47z"/>
<path d="m1250 856c0-3 14-12 30-21 17-9 30-13 30-11 0 3-13 12-30 21-16 9-30 13-30 11z"/>
<path d="m310 836c0-2 8-10 18-17 15-13 16-12 3 4s-21 21-21 13z"/>
<path d="m2580 830c-9-6-10-10-3-10 6 0 15 5 18 10 8 12 4 12-15 0z"/>
<path d="m1327 809c7-7 15-10 18-7s-2 9-12 12c-14 6-15 5-6-5z"/>
<path d="m2270 814c0-6-12-15-27-22-26-10-26-11-3-5 30 6 46 20 37 30-4 3-7 2-7-3z"/>
<path d="m1367 789c7-7 15-10 18-7s-2 9-12 12c-14 6-15 5-6-5z"/>
<path d="m2158 793c12-2 30-2 40 0 9 3-1 5-23 4-22 0-30-2-17-4z"/>
<path d="m2500 790c-8-5-10-10-5-10 6 0 17 5 25 10s11 10 5 10c-5 0-17-5-25-10z"/>
<path d="m1400 776c0-2 7-7 16-10 8-3 12-2 9 4-6 10-25 14-25 6z"/>
<path d="m1870 770c0-5 7-10 15-10s15 5 15 10c0 6-7 10-15 10s-15-4-15-10z"/>
<path d="m2105 770c3-5 8-10 11-10 2 0 4 5 4 10 0 6-5 10-11 10-5 0-7-4-4-10z"/>
<path d="m2460 770c-9-6-10-10-3-10 6 0 15 5 18 10 8 12 4 12-15 0z"/>
<path d="m375 750c10-11 20-20 23-20s-3 9-13 20-20 20-23 20 3-9 13-20z"/>
<path d="m3494 723c-21-26-33-44-27-40 14 9 77 87 70 87-3 0-22-21-43-47z"/>
<path d="m1450 756c0-2 7-7 16-10 8-3 12-2 9 4-6 10-25 14-25 6z"/>
<path d="m1993 753c20-2 54-2 75 0 20 2 3 4-38 4s-58-2-37-4z"/>
<path d="m2410 750c-8-5-10-10-5-10 6 0 17 5 25 10s11 10 5 10c-5 0-17-5-25-10z"/>
<path d="m1510 730c8-5 20-10 25-10 6 0 3 5-5 10s-19 10-25 10c-5 0-3-5 5-10z"/>
<path d="m2350 730c-8-5-10-10-5-10 6 0 17 5 25 10s11 10 5 10c-5 0-17-5-25-10z"/>
<path d="m415 700c10-11 20-20 23-20s-3 9-13 20-20 20-23 20 3-9 13-20z"/>
<path d="m1575 710c27-12 43-12 25 0-8 5-22 9-30 9-10 0-8-3 5-9z"/>
<path d="m2285 710c-13-6-15-9-5-9 8 0 22 4 30 9 18 12 2 12-25 0z"/>
<path d="m1655 690c11-5 27-9 35-9 9 0 8 4-5 9-11 5-27 9-35 9-9 0-8-4 5-9z"/>
<path d="m2205 690c-13-5-14-9-5-9 8 0 24 4 35 9 13 5 14 9 5 9-8 0-24-4-35-9z"/>
<path d="m1762 668c13-3 93-6 178-6s165 3 178 6c13 4-67 7-178 7s-191-3-178-7z"/>
<path d="m520 585c47-47 87-85 90-85 2 0-33 38-80 85s-87 85-90 85c-2 0 33-38 80-85z"/>
<path d="m3360 575c-41-41-72-75-69-75 2 0 38 34 79 75s72 75 69 75c-2 0-38-34-79-75z"/>
<path d="m655 460c10-11 20-20 23-20s-3 9-13 20-20 20-23 20 3-9 13-20z"/>
<path d="m3234 458-19-23 23 19c12 11 22 21 22 23 0 8-8 2-26-19z"/>
<path d="m705 420c10-11 20-20 23-20s-3 9-13 20-20 20-23 20 3-9 13-20z"/>
<path d="m3184 418-19-23 23 19c12 11 22 21 22 23 0 8-8 2-26-19z"/>
<path d="m3109 363c-13-16-12-17 4-4s21 21 13 21c-2 0-10-8-17-17z"/>
<path d="m804 351c7-11 46-35 46-28 0 3-12 12-26 22-15 9-23 12-20 6z"/>
<path d="m3066 335c-11-8-15-15-9-15s16 7 23 15c16 19 11 19-14 0z"/>
<path d="m927 269c7-7 15-10 18-7s-2 9-12 12c-14 6-15 5-6-5z"/>
<path d="m2948 264c-38-20-36-28 2-9 17 9 30 18 30 20 0 7-1 6-32-11z"/>
<path d="m990 236c0-2 7-7 16-10 8-3 12-2 9 4-6 10-25 14-25 6z"/>
<path d="m2885 230c-3-6 1-7 9-4 18 7 21 14 7 14-6 0-13-4-16-10z"/>
<path d="m1030 216c0-2 7-7 16-10 8-3 12-2 9 4-6 10-25 14-25 6z"/>
<path d="m2845 210c-3-6 1-7 9-4 18 7 21 14 7 14-6 0-13-4-16-10z"/>
<path d="m1070 196c0-2 7-7 16-10 8-3 12-2 9 4-6 10-25 14-25 6z"/>
<path d="m2805 190c-3-6 1-7 9-4 18 7 21 14 7 14-6 0-13-4-16-10z"/>
<path d="m1120 170c8-5 20-10 25-10 6 0 3 5-5 10s-19 10-25 10c-5 0-3-5 5-10z"/>
<path d="m2760 170c-8-5-10-10-5-10 6 0 17 5 25 10s11 10 5 10c-5 0-17-5-25-10z"/>
<path d="m1170 150c8-5 20-10 25-10 6 0 3 5-5 10s-19 10-25 10c-5 0-3-5 5-10z"/>
<path d="m2710 150c-8-5-10-10-5-10 6 0 17 5 25 10s11 10 5 10c-5 0-17-5-25-10z"/>
<path d="m1220 130c8-5 20-10 25-10 6 0 3 5-5 10s-19 10-25 10c-5 0-3-5 5-10z"/>
<path d="m2660 130c-8-5-10-10-5-10 6 0 17 5 25 10s11 10 5 10c-5 0-17-5-25-10z"/>
<path d="m1270 110c8-5 22-9 30-9 10 0 8 3-5 9-27 12-43 12-25 0z"/>
<path d="m2605 110c-13-6-15-9-5-9 8 0 22 4 30 9 18 12 2 12-25 0z"/>
<path d="m1335 90c27-12 43-12 25 0-8 5-22 9-30 9-10 0-8-3 5-9z"/>
<path d="m2545 90c-13-6-15-9-5-9 8 0 22 4 30 9 18 12 2 12-25 0z"/>
<path d="m1405 70c11-5 27-9 35-9 9 0 8 4-5 9-11 5-27 9-35 9-9 0-8-4 5-9z"/>
<path d="m2470 70c-18-12-2-12 25 0 13 6 15 9 5 9-8 0-22-4-30-9z"/>
<path d="m1485 50c11-5 27-9 35-9 9 0 8 4-5 9-11 5-27 9-35 9-9 0-8-4 5-9z"/>
<path d="m2385 50c-13-5-14-9-5-9 8 0 24 4 35 9 13 5 14 9 5 9-8 0-24-4-35-9z"/>
<path d="m1580 30c14-4 36-8 50-8 22 0 22 1-5 8-16 4-39 8-50 8-16 0-15-2 5-8z"/>
<path d="m2318 33c7-3 16-2 19 1 4 3-2 6-13 5-11 0-14-3-6-6z"/>
<path d="m2263 23c9-2 23-2 30 0 6 3-1 5-18 5-16 0-22-2-12-5z"/>
<path d="m1710 10c37-12 82-12 75 0-3 5-27 10-53 9-38-1-42-2-22-9z"/>
<path d="m2115 10c-7-12 38-12 75 0 20 7 16 8-22 9-26 1-50-3-53-9z"/>
</g>
<g transform="translate(0 188.8) scale(.04 -.04)" fill="#fddf1e">
<path d="m1715 3264c-44-7-81-13-82-13-2-1-3-214-3-475v-474l-172-7c-185-7-535-14-709-15h-106l-11-42c-20-77-32-185-32-292 0-99 5-140 32-264l11-52 151 5c83 3 295 10 471 16 218 8 520 9 945 4 344-4 719-8 835-9l209-1 8 35c19 77 27 272 17 387-12 148-19 202-28 207-3 2-175 7-381 10s-426 9-487 12l-113 7v473 473l-32 5c-18 3-60 10-92 16-80 14-332 10-431-6zm1443-1083c28-1 29-27 1-36-27-9-147 4-154 16-13 21 9 29 68 25 34-3 72-5 85-5zm25-75c9-23-2-26-95-26-81 0-88 2-88 20 0 19 7 20 89 20 67 0 90-3 94-14zm2-81c0-19-6-20-93-19-58 0-97 5-105 13-22 22 14 31 108 29 82-3 90-5 90-23zm-6-64c8-5 11-16 8-25-11-27-215-18-224 11-2 6 6 13 19 16 43 8 183 7 197-2zm-48-71c42 0 49-3 49-20 0-19-7-20-92-20-51 0-103 3-115 6-56 15-2 46 66 39 24-3 66-5 92-5zm46-74c3-3 3-13-1-22-6-15-20-16-117-12-111 6-150 18-119 39 15 10 227 6 237-5zm-11-78c4-4 1-14-6-23-10-12-33-15-104-14-104 2-148 9-153 26-2 6 6 14 19 16 35 8 235 3 244-5z"/>
</g>
<g transform="translate(0 188.8) scale(.04 -.04)" fill="#ef4c34">
<path d="m40 3210c0-972 4-1504 11-1568 48-446 291-877 661-1175 214-172 525-321 793-381 267-59 584-61 859-5 195 39 483 152 612 239 25 16 47 30 49 30 10 0 113 77 191 141 286 238 497 564 588 906 57 216 56 179 56 1796v1487h-1910-1910v-1470zm2100 1150 5-195 420-10v-165-165l-213-3-212-2 2-247 3-247 75-14c41-7 82-20 91-28s43-24 75-35c238-81 472-247 629-444 95-118 181-276 225-408 16-50 28-71 45-77 18-7 26-24 41-87 23-96 26-421 5-518-27-128-42-166-66-175-13-5-26-19-30-32-18-58-79-184-125-259-303-488-874-736-1430-620-137 28-176 41-322 109-295 137-545 403-669 712-29 73-44 97-62 104-22 8-27 21-48 130-45 235-21 623 40 639 11 3 27 31 45 83 121 341 365 615 686 771 58 28 130 59 160 69s64 26 75 35c15 13 146 49 180 49 3 0 4 109 3 243l-3 242-420 10v165 165l420 10 1 183c1 100 5 189 8 197 5 13 32 15 183 13l178-3 5-195z"/>
</g>
<g transform="translate(0 188.8) scale(.04 -.04)" fill="#ae5a2f">
<path d="m35 4678c-3-7-4-670-3-1473l3-1460 3 1468 2 1467h1910 1910l3-1470 2-1470v1472 1473l-1913 3c-1525 2-1914 0-1917-10z"/>
<path d="m1774 4545c-3-8-7-97-8-197l-1-183-420-10v-165-165l420-10 3-242c2-224 1-242-15-247-14-4-14-4 2-3 19 2 20 10 20 252v250l-420 10v155 155l205 3c148 2 206 6 212 15 4 6 8 96 8 200v187l173-2 172-3 10-390 213-3 212-2v-160-160l-212-2-213-3-3-252c-1-139 1-253 5-253 5 0 7 112 5 250l-3 250 213 2 213 3v165 165l-420 10-10 390-178 3c-151 2-178 0-183-13z"/>
<path d="m1660 3310c-20-6-21-8-5-8 11 0 31 4 45 8 20 6 21 8 5 8-11 0-31-4-45-8z"/>
<path d="m2190 3310c14-4 36-8 50-8 22 0 22 1-5 8-16 4-39 8-50 8-16 0-15-2 5-8z"/>
<path d="m1584 3278-19-23 25 20c14 11 27 21 29 22 2 2 0 3-6 3-5 0-18-10-29-22z"/>
<path d="m2290 3285c44-26 92-46 97-42 2 3-11 10-31 17-19 6-40 18-46 26-7 7-20 14-29 14-11 0-8-5 9-15z"/>
<path d="m1893 3283c32-2 81-2 110 0s3 3-58 3c-60 0-84-1-52-3z"/>
<path d="m1705 3270c-42-11-1-11 50-1 34 7 35 9 10 9-16 0-43-4-60-8z"/>
<path d="m2145 3269c51-10 92-10 50 1-16 4-43 8-60 8-25 0-24-2 10-9z"/>
<path d="m1520 3250c-18-12-2-12 25 0 13 6 15 9 5 9-8 0-22-4-30-9z"/>
<path d="m1625 3248c-8-22-10-948-2-948 4 0 7 213 7 474 0 370 3 475 13 479 9 4 9 6-1 6-7 1-15-5-17-11z"/>
<path d="m2253 3254c16-5 17-37 17-480 0-261 3-474 8-474 4 0 5 215 2 477-5 469-5 478-25 480-16 1-16 1-2-3z"/>
<path d="m1465 3230c-13-6-15-9-5-9 8 0 22 4 30 9 18 12 2 12-25 0z"/>
<path d="m2410 3230c8-5 22-10 30-10 13 0 13 1 0 10-8 5-22 10-30 10-13 0-13-1 0-10z"/>
<path d="m1395 3201c-22-11-37-20-34-20 10-1 79 29 79 34 0 7 0 7-45-14z"/>
<path d="m2460 3215c0-8 73-36 78-30 3 3 3 5 0 5s-22 7-42 15-36 13-36 10z"/>
<path d="m1330 3170c-9-6-10-10-3-10 6 0 15 5 18 10 8 12 4 12-15 0z"/>
<path d="m2550 3176c0-7 93-57 98-52 2 3-19 16-47 30-28 15-51 24-51 22z"/>
<path d="m1254 3130c-12-5-25-13-28-19-4-5 7-3 24 5 16 9 30 17 30 20 0 5 0 5-26-6z"/>
<path d="m2660 3117c0-3 12-12 26-22 15-9 23-12 20-6-7 11-46 35-46 28z"/>
<path d="m1140 3049-35-30 38 26c33 24 43 35 34 35-1 0-18-14-37-31z"/>
<path d="m2720 3077c0-3 17-17 37-33 20-15 33-23 29-16-8 13-66 56-66 49z"/>
<path d="m992 2922c-82-82-173-192-159-192 2 0 32 36 67 81 35 44 96 110 134 145 39 35 67 64 63 64s-52-44-105-98z"/>
<path d="m2810 3009c8-9 47-44 85-79 54-50 59-53 25-16-25 26-63 62-85 79s-33 24-25 16z"/>
<path d="m2982 2831c13-17 27-30 31-30 5-1-2 12-15 28-13 17-27 30-31 30-5 1 2-12 15-28z"/>
<path d="m3072 2713c55-84 78-113 58-73-19 35-90 139-101 145-4 3 15-29 43-72z"/>
<path d="m798 2683c-30-46-60-103-54-103 2 0 15 19 28 43 13 23 32 54 42 70 10 15 16 27 13 27-2 0-16-17-29-37z"/>
<path d="m3140 2601c0-6 4-13 10-16s7 1 4 9c-7 18-14 21-14 7z"/>
<path d="m707 2513c-36-81-76-194-66-188 4 3 15 29 25 58 9 28 30 81 45 116 16 35 28 66 26 68s-16-23-30-54z"/>
<path d="m3166 2557c3-10 9-15 12-12s0 11-7 18c-10 9-11 8-5-6z"/>
<path d="m3180 2521c0-6 4-13 10-16s7 1 4 9c-7 18-14 21-14 7z"/>
<path d="m3202 2480c0-8 8-33 19-55 10-22 16-29 13-15-10 38-32 87-32 70z"/>
<path d="m3241 2369c-1-8 6-24 15-35 15-19 15-19 6 1-5 11-12 27-15 35-5 13-6 13-6-1z"/>
<path d="m3300 2290c5-18 12-35 16-39 10-9-6 53-17 63-5 6-5-4 1-24z"/>
<path d="m586 2274c-4-14-5-28-3-31 3-2 8 8 11 23 4 14 5 28 3 31-3 2-8-8-11-23z"/>
<path d="m732 2292c-90-3-93-4-103-29-5-14-8-31-6-37s7 3 11 21l7 32 112 3c62 2 103 5 92 8s-62 4-113 2z"/>
<path d="m1202 2293c49-2 127-2 176 0 48 1 8 3-88 3s-136-2-88-3z"/>
<path d="m2405 2295c6-2 111-5 235-7s196-1 160 3c-65 7-414 10-395 4z"/>
<path d="m893 2283c9-2 25-2 35 0 9 3 1 5-18 5s-27-2-17-5z"/>
<path d="m998 2283c18-2 45-2 60 0s0 4-33 4-45-2-27-4z"/>
<path d="m2938 2283c12-2 32-2 45 0 12 2 2 4-23 4s-35-2-22-4z"/>
<path d="m3055 2283c96-7 203-7 198 0-2 4-57 6-121 5s-99-3-77-5z"/>
<path d="m3262 2220c0-8 4-26 8-40 6-20 8-21 8-5 0 11-3 29-8 40-5 12-8 14-8 5z"/>
<path d="m3327 2185c3-27 7-52 9-54 7-8 2 54-6 79-6 17-7 9-3-25z"/>
<path d="m565 2157c-4-36-5-71-3-79 3-7 8 20 12 61 3 41 4 76 2 78-2 3-7-25-11-60z"/>
<path d="m606 2159c-3-17-5-43-5-58 1-14 5-2 10 28 10 58 6 83-5 30z"/>
<path d="m3004 2179c-9-15 11-32 32-26 16 4 15 5-3 6-35 2-27 19 10 24l32 4-32 1c-17 1-35-3-39-9z"/>
<path d="m3093 2143c15-2 37-2 50 0 12 2 0 4-28 4-27 0-38-2-22-4z"/>
<path d="m3e3 2100c0-11 4-20 10-20 5 0 7 6 4 14-4 11 4 16 28 19l33 4-37 1c-32 2-38-1-38-18z"/>
<path d="m3103 2113c15-2 39-2 55 0 15 2 2 4-28 4s-43-2-27-4z"/>
<path d="m3284 1945c0-157 1-169 8-90 4 49 4 130 0 180-7 79-8 67-8-90z"/>
<path d="m3344 1970c0-74 1-105 3-67 2 37 2 97 0 135-2 37-3 6-3-68z"/>
<path d="m3025 2044c71-8 163-8 158-1-2 4-46 6-96 5-51 0-78-3-62-4z"/>
<path d="m2980 2031c0-10 19-25 25-20 1 2-3 10-11 17s-14 8-14 3z"/>
<path d="m553 1955c0-38 2-53 4-32 2 20 2 52 0 70-2 17-4 1-4-38z"/>
<path d="m3110 2010-75-6 72-2c39-1 75 3 78 8 3 6 5 9 3 8s-37-4-78-8z"/>
<path d="m593 1955c0-33 2-45 4-27s2 45 0 60-4 0-4-33z"/>
<path d="m3043 1963c26-2 67-2 90 0s2 3-48 3c-49 0-68-1-42-3z"/>
<path d="m2960 1951c0-10 19-25 25-20 1 2-3 10-11 17s-14 8-14 3z"/>
<path d="m3180 1947c0-13-14-17-82-20l-83-3 83-2c67-2 84 1 89 13 3 9 3 19-1 22-3 4-6-1-6-10z"/>
<path d="m3003 1893c9-2 25-2 35 0 9 3 1 5-18 5s-27-2-17-5z"/>
<path d="m2955 1879c-11-16-1-19 13-3 7 8 8 14 3 14s-13-5-16-11z"/>
<path d="m3098 1883c18-2 45-2 60 0s0 4-33 4-45-2-27-4z"/>
<path d="m561 1814c1-27 5-62 9-79 5-18 6 1 3 45-7 86-14 107-12 34z"/>
<path d="m3003 1853c15-2 39-2 55 0 15 2 2 4-28 4s-43-2-27-4z"/>
<path d="m3113 1853c15-2 37-2 50 0 12 2 0 4-28 4-27 0-38-2-22-4z"/>
<path d="m2977 1823c18-2 50-2 70 0 21 2 7 4-32 4-38 0-55-2-38-4z"/>
<path d="m602 1800c0-14 4-38 8-55 7-27 8-27 8-5 0 14-4 39-8 55-7 27-8 27-8 5z"/>
<path d="m2933 1810c2-8 14-16 28-17 19-1 20-1 4 4-11 3-24 10-28 17-6 7-7 6-4-4z"/>
<path d="m3085 1790-90-6 87-2c49-1 89 2 93 8 3 6 5 9 3 8s-43-5-93-8z"/>
<path d="m3325 1745c-4-25-5-48-2-51 2-3 8 16 12 41 3 26 4 49 2 52-3 3-9-16-12-42z"/>
<path d="m2988 1743c28-2 76-2 105 0 28 2 5 3-53 3s-81-1-52-3z"/>
<path d="m2903 1730c2-8 12-16 23-17 13-2 15-1 4 4-8 3-19 11-23 17-6 7-7 6-4-4z"/>
<path d="m3157 1726c-5-12-28-16-104-19l-98-3 96-2c76-2 99 1 109 13 7 9 11 18 8 21s-8-2-11-10z"/>
<path d="m3266 1709c-8-42 0-50 9-9 4 17 5 34 2 36-2 3-7-10-11-27z"/>
<path d="m43 1655c0-27 2-38 4-22 2 15 2 37 0 50-2 12-4 0-4-28z"/>
<path d="m621 1690c0-8 4-22 9-30 12-18 12-2 0 25-6 13-9 15-9 5z"/>
<path d="m582 1670c0-8 4-26 8-40 6-20 8-21 8-5 0 11-3 29-8 40-5 12-8 14-8 5z"/>
<path d="m3847 1621c-4-35-5-66-3-68 6-7 19 103 14 119-3 7-8-16-11-51z"/>
<path d="m3306 1644c-4-14-5-28-3-31 3-2 8 8 11 23 4 14 5 28 3 31-3 2-8-8-11-23z"/>
<path d="m1265 1651c-60-4 270-6 735-6s784 3 710 6c-163 8-1290 7-1445 0z"/>
<path d="m3140 1640-115-6 118-2c72-1 117 2 117 8s-1 9-2 8c-2-1-55-5-118-8z"/>
<path d="m695 1630c-33-4 21-4 120-2 99 3 182 6 184 8 7 6-239 1-304-6z"/>
<path d="m52 1580c0-14 2-19 5-12 2 6 2 18 0 25-3 6-5 1-5-13z"/>
<path d="m600 1580c0-11 4-20 9-20s7 9 4 20-7 20-9 20-4-9-4-20z"/>
<path d="m3285 1571c-3-12-13-21-22-21-20 0-42-29-42-55 0-14 4-11 14 13 8 17 21 32 29 32 15 0 42 38 33 47-3 2-8-5-12-16z"/>
<path d="m630 1556c0-2 7-6 15-10 8-3 15-1 15 4 0 6-7 10-15 10s-15-2-15-4z"/>
<path d="m62 1515c0-11 3-29 8-40 11-25 11 1 0 35-6 20-8 21-8 5z"/>
<path d="m666 1511c10-37 33-88 33-71 0 8-9 33-20 55-10 22-16 29-13 16z"/>
<path d="m3832 1510c0-14 2-19 5-12 2 6 2 18 0 25-3 6-5 1-5-13z"/>
<path d="m3821 1464c0-11 3-14 6-6 3 7 2 16-1 19-3 4-6-2-5-13z"/>
<path d="m3196 1435c-22-52-19-58 5-12 11 22 18 41 15 44s-12-12-20-32z"/>
<path d="m81 1430c0-8 4-24 9-35 5-13 9-14 9-5 0 8-4 24-9 35-5 13-9 14-9 5z"/>
<path d="m3811 1424c0-11 3-14 6-6 3 7 2 16-1 19-3 4-6-2-5-13z"/>
<path d="m706 1407c3-10 9-15 12-12s0 11-7 18c-10 9-11 8-5-6z"/>
<path d="m3801 1384c0-11 3-14 6-6 3 7 2 16-1 19-3 4-6-2-5-13z"/>
<path d="m720 1375c0-5 9-23 20-40 26-39 26-25 0 17-11 18-20 29-20 23z"/>
<path d="m3157 1348c-10-17-16-33-13-35 2-3 12 9 21 27 21 41 15 48-8 8z"/>
<path d="m101 1355c1-19 18-51 18-35 0 8-4 22-9 30s-9 11-9 5z"/>
<path d="m3791 1353c-1-6-4-20-7-30-5-17-5-17 6 0 6 10 9 23 6 30-3 9-5 9-5 0z"/>
<path d="m121 1290c0-8 9-33 20-55 10-22 16-29 13-16-10 37-33 88-33 71z"/>
<path d="m781 1263c43-72 77-118 119-163l42-45-40 50c-21 28-61 83-87 123-50 76-73 99-34 35z"/>
<path d="m3077 1214c-32-47-53-82-47-79 16 10 117 165 107 165-2 0-29-39-60-86z"/>
<path d="m3766 1275c-9-26-7-32 5-12 6 10 9 21 6 23-2 3-7-2-11-11z"/>
<path d="m3746 1225c-9-26-7-32 5-12 6 10 9 21 6 23-2 3-7-2-11-11z"/>
<path d="m161 1185c0-5 8-26 19-45s19-30 19-25c0 6-8 26-19 45s-19 31-19 25z"/>
<path d="m3726 1175c-9-26-7-32 5-12 6 10 9 21 6 23-2 3-7-2-11-11z"/>
<path d="m3683 1077c-18-33-31-62-29-64s18 24 35 58c18 33 31 62 29 64s-18-24-35-58z"/>
<path d="m2942 1041c-39-43-106-105-149-137-96-74-116-91-78-69 68 41 197 155 267 238 62 74 39 55-40-32z"/>
<path d="m200 1091c0-6 4-13 10-16s7 1 4 9c-7 18-14 21-14 7z"/>
<path d="m220 1059c0-9 51-99 56-99 2 0-5 17-15 38-24 44-41 69-41 61z"/>
<path d="m1029 963c47-45 87-80 89-78s-13 19-34 37c-22 18-62 53-90 78s-13 8 35-37z"/>
<path d="m3620 960c-6-11-8-20-6-20 3 0 10 9 16 20s8 20 6 20c-3 0-10-9-16-20z"/>
<path d="m301 915c12-22 29-47 37-55 20-20-13 37-40 71-17 20-16 18 3-16z"/>
<path d="m3565 874c-9-15-12-23-6-20 11 7 35 46 28 46-3 0-12-12-22-26z"/>
<path d="m1130 877c0-3 12-12 26-22 15-9 23-12 20-6-7 11-46 35-46 28z"/>
<path d="m350 836c0-2 8-10 18-17 15-13 16-12 3 4s-21 21-21 13z"/>
<path d="m3514 803c-15-20-23-33-16-29 13 8 56 66 49 66-3 0-17-17-33-37z"/>
<path d="m2633 794c-48-28-59-43-15-20 30 16 70 45 62 46-3 0-24-12-47-26z"/>
<path d="m380 796c0-2 8-10 18-17 15-13 16-12 3 4s-21 21-21 13z"/>
<path d="m1250 796c0-3 14-12 30-21 17-9 30-13 30-11 0 3-13 12-30 21-16 9-30 13-30 11z"/>
<path d="m458 703c27-32 60-67 73-78s-8 15-46 58c-37 42-70 77-73 77-2 0 18-26 46-57z"/>
<path d="m1320 756c0-2 7-7 16-10 8-3 12-2 9 4-6 10-25 14-25 6z"/>
<path d="m2555 750c-3-6 1-7 9-4 18 7 21 14 7 14-6 0-13-4-16-10z"/>
<path d="m3360 631c-69-71-147-147-175-171-27-23-41-36-30-29 49 35 177 151 235 214 148 160 133 153-30-14z"/>
<path d="m1361 735c9-8 79-35 79-30 0 2-16 12-36 20-37 15-51 19-43 10z"/>
<path d="m2510 730c-8-5-10-10-5-10 6 0 17 5 25 10s11 10 5 10c-5 0-17-5-25-10z"/>
<path d="m2465 710c-3-5-2-10 4-10 5 0 13 5 16 10 3 6 2 10-4 10-5 0-13-4-16-10z"/>
<path d="m1465 690c3-5 14-10 23-10 15 0 15 2 2 10-20 13-33 13-25 0z"/>
<path d="m2415 690c-13-6-15-9-5-9 8 0 22 4 30 9 18 12 2 12-25 0z"/>
<path d="m1520 670c8-5 22-10 30-10 13 0 13 1 0 10-8 5-22 10-30 10-13 0-13-1 0-10z"/>
<path d="m2350 670c-13-9-13-10 0-10 8 0 22 5 30 10 13 9 13 10 0 10-8 0-22-5-30-10z"/>
<path d="m1585 650c11-5 29-8 40-8 16 0 15 2-5 8-34 11-60 11-35 0z"/>
<path d="m2285 650c-13-5-14-9-5-9 8 0 24 4 35 9 13 5 14 9 5 9-8 0-24-4-35-9z"/>
<path d="m1651 636c2-2 22-6 44-9 28-5 34-4 20 3-19 8-73 14-64 6z"/>
<path d="m2190 630c-20-6-21-8-5-8 11 0 31 4 45 8 20 6 21 8 5 8-11 0-31-4-45-8z"/>
<path d="m1800 608c73-8 243-8 300 0 25 4-45 7-155 7-112 0-176-3-145-7z"/>
<path d="m581 569c85-76 128-107 59-41-41 39-79 71-84 72-5 0 6-14 25-31z"/>
<path d="m724 452c8-13 66-56 66-49 0 3-17 17-37 33-20 15-33 23-29 16z"/>
<path d="m3083 389c-24-17-43-32-43-35s20 9 45 26 45 33 45 35c0 7-2 6-47-26z"/>
<path d="m822 378c30-26 88-62 88-55 0 2-26 21-57 41-32 20-46 27-31 14z"/>
<path d="m2999 333c-13-15-12-15 9-4 23 12 28 21 13 21-5 0-15-7-22-17z"/>
<path d="m920 316c0-3 9-10 20-16s20-8 20-6c0 3-9 10-20 16s-20 8-20 6z"/>
<path d="m2865 259c-60-32-107-59-102-59 11 0 179 86 202 104 31 24 18 18-100-45z"/>
<path d="m988 275c26-19 186-95 198-95 5 1-38 24-96 52-127 63-131 64-102 43z"/>
<path d="m2720 190c-8-5-10-10-5-10 6 0 17 5 25 10s11 10 5 10c-5 0-17-5-25-10z"/>
<path d="m1210 172c8-5 26-13 40-16 17-5 20-4 10 2-8 5-26 13-40 16-17 5-20 4-10-2z"/>
<path d="m2670 170c-8-5-10-10-5-10 6 0 17 5 25 10s11 10 5 10c-5 0-17-5-25-10z"/>
<path d="m2585 139c-27-10-37-17-21-14 31 7 97 33 81 33-5 0-32-8-60-19z"/>
<path d="m1320 130c8-5 24-10 34-10 26 0 18 6-19 14-22 5-26 4-15-4z"/>
<path d="m1390 110c8-5 20-10 25-10 6 0 3 5-5 10s-19 10-25 10c-5 0-3-5 5-10z"/>
<path d="m2478 103c7-3 16-2 19 1 4 3-2 6-13 5-11 0-14-3-6-6z"/>
<path d="m1448 93c7-3 16-2 19 1 4 3-2 6-13 5-11 0-14-3-6-6z"/>
<path d="m2410 90c-20-6-21-8-5-8 11 0 29 3 40 8 25 11-1 11-35 0z"/>
<path d="m1488 83c7-3 16-2 19 1 4 3-2 6-13 5-11 0-14-3-6-6z"/>
<path d="m1538 73c7-3 16-2 19 1 4 3-2 6-13 5-11 0-14-3-6-6z"/>
<path d="m2310 70c-34-7-34-7-5-8 17 0 39 3 50 8 24 10 4 10-45 0z"/>
<path d="m1583 63c9-2 23-2 30 0 6 3-1 5-18 5-16 0-22-2-12-5z"/>
<path d="m1653 53c9-2 23-2 30 0 6 3-1 5-18 5-16 0-22-2-12-5z"/>
<path d="m2228 53c6-2 18-2 25 0 6 3 1 5-13 5s-19-2-12-5z"/>
<path d="m1718 43c12-2 32-2 45 0 12 2 2 4-23 4s-35-2-22-4z"/>
<path d="m2133 43c15-2 39-2 55 0 15 2 2 4-28 4s-43-2-27-4z"/>
<path d="m1903 33c32-2 81-2 110 0s3 3-58 3c-60 0-84-1-52-3z"/>
</g>
<g transform="translate(0 188.8) scale(.04 -.04)" fill="#644941">
<path d="m27 4693c-4-3-7-665-7-1470 0-804-4-1463-8-1463-11 0 0-80 11-83 4-1 9 675 10 1503l2 1505h1915 1915v-1507c0-1326 2-1505 15-1498 16 9 24 70 9 70-5 0-10 634-11 1473l-3 1472-1921 3c-1056 1-1924-1-1927-5z"/>
<path d="m1780 4543c0-5 75-8 167-8h168l1-195c1-131-3-197-10-202-6-4 85-8 202-8h212v-135-135l-217-2-218-3v-270-270l2 267 3 268 218 2 217 3 3 143c1 80 7 142 12 142s11-62 13-142l3-143 2 147 2 148-212 2-213 3-10 390-172 3c-95 1-173-1-173-5z"/>
<path d="m1815 4517c-3-7-4-96-2-197l2-185 3 193 2 192h130 130l6-380-1 192v193l-133 3c-102 2-134 0-137-11z"/>
<path d="m1780 4348c0-95-4-179-8-185-6-9-64-13-212-15l-205-3v-155-155l420-10v-249-250l-50-12-50-13 50 6c28 3 53 7 58 10 6 4 11 510 5 515-2 1-97 4-213 7l-210 6v144c0 87 4 146 10 148s10-47 9-134l-1-138 12 260 197 3 196 2 2 195c0 107-2 195-5 195s-5-78-5-172z"/>
<path d="m1603 3853 207-3v-268c0-195 3-271 12-280s1-12-37-13c-28-1-61-5-75-9-15-5-3-6 30-2 30 4 136 7 235 6h180l-85 13c-47 7-121 12-165 11l-80-3-10 550h-210l-210 1 208-3z"/>
<path d="m2335 3840c-121-4-220-7-220-8 0-293 5-506 13-514 5-5 18-8 28-5 16 4 15 5-4 6l-22 1 2 253 3 252 213 3c130 1 212 6 212 12s-1 9-2 8c-2-1-102-5-223-8z"/>
<path d="m2188 3303c7-3 16-2 19 1 4 3-2 6-13 5-11 0-14-3-6-6z"/>
<path d="m1590 3275c-19-14-28-25-21-25 8 0 19 7 25 16 7 9 28 19 46 24 29 7 31 8 9 9-14 1-40-10-59-24z"/>
<path d="m2233 3293c9-2 23-2 30 0 6 3-1 5-18 5-16 0-22-2-12-5z"/>
<path d="m2295 3270c10-11 25-20 33-20 9 0 6 7-11 20-14 11-29 20-33 20s1-9 11-20z"/>
<path d="m2178 3273c6-2 18-2 25 0 6 3 1 5-13 5s-19-2-12-5z"/>
<path d="m1622 3258c-7-7-12-19-11-27 0-11 3-10 8 4 4 11 21 23 37 26 28 6 28 7 4 8-15 0-31-4-38-11z"/>
<path d="m2244 3261c16-3 33-15 37-26 5-14 8-15 8-4 1 23-20 39-48 38-25-1-25-2 3-8z"/>
<path d="m1515 3240c-13-6-15-9-5-9 8 0 22 4 30 9 18 12 2 12-25 0z"/>
<path d="m2355 3240c3-5 16-10 28-9 21 0 21 1 2 9-28 12-37 12-30 0z"/>
<path d="m1550 3226c0-2 11-6 25-8 13-3 22-1 19 3-5 9-44 13-44 5z"/>
<path d="m2310 3226c0-2 9-6 20-9s18-1 14 4c-5 9-34 13-34 5z"/>
<path d="m2415 3220c3-4 16-10 30-12 13-3 22-2 20 2-3 4-16 10-30 12-13 3-22 2-20-2z"/>
<path d="m1436 3211c-4-5 3-7 14-4 23 6 26 13 6 13-8 0-17-4-20-9z"/>
<path d="m2295 2775c0-242 1-340 2-217 2 123 2 321 0 440-1 119-2 19-2-223z"/>
<path d="m2360 3206c0-2 11-6 25-8 13-3 22-1 19 3-5 9-44 13-44 5z"/>
<path d="m1612 3170c0-19 2-27 5-17 2 9 2 25 0 35-3 9-5 1-5-18z"/>
<path d="m2481 3195c9-8 79-35 79-30 0 2-16 12-36 20-37 15-51 19-43 10z"/>
<path d="m1340 3166c-95-49-129-69-156-93l-29-25 30 20c40 27 100 60 158 90 26 13 47 26 47 28 0 6-2 5-50-20z"/>
<path d="m1420 3175c-33-19-21-19 21 0 19 8 27 14 19 14s-26-6-40-14z"/>
<path d="m2470 3166c0-2 7-7 16-10 8-3 12-2 9 4-6 10-25 14-25 6z"/>
<path d="m1363 3150c-13-5-23-11-23-14 0-7 40 6 46 15 6 10 6 10-23-1z"/>
<path d="m2573 3153c3-5 24-18 46-29 23-10 41-22 41-26 0-5 5-8 12-8 15 0 140-95 199-151 74-71 98-88 44-30-61 64-209 178-289 222-32 17-56 27-53 22z"/>
<path d="m2510 3146c0-2 7-7 16-10 8-3 12-2 9 4-6 10-25 14-25 6z"/>
<path d="m1290 3109c-17-13-18-17-5-10 33 17 51 31 40 31-5 0-21-10-35-21z"/>
<path d="m2550 3126c0-2 7-7 16-10 8-3 12-2 9 4-6 10-25 14-25 6z"/>
<path d="m2655 3064c39-26 81-56 95-68 19-17 21-17 10-2-15 20-154 116-167 116-4 0 24-21 62-46z"/>
<path d="m1065 2982c-44-38-102-95-130-128-34-41-18-28 54 44 57 56 116 110 132 119 16 10 29 21 29 25 0 12 0 12-85-60z"/>
<path d="m1135 3004-30-26 33 22c17 12 32 23 32 26 0 7-4 5-35-22z"/>
<path d="m2875 2880c55-58 104-109 109-115 13-14-30 46-47 65-7 8-47 47-87 85-64 60-60 54 25-35z"/>
<path d="m1005 2888-60-63 63 60c34 33 62 61 62 62 0 8-10-1-65-59z"/>
<path d="m2648 2928c5-5 16-8 23-6 8 3 3 7-10 11-17 4-21 3-13-5z"/>
<path d="m2687 2893c-3-5 14-8 38-8s41 3 39 7c-7 10-71 10-77 1z"/>
<path d="m2976 2828c10-14 21-24 23-22 3 3-6 15-18 27l-24 22 19-27z"/>
<path d="m914 2788c-30-34-47-58-42-58 3 0 19 18 37 40 34 43 38 55 5 18z"/>
<path d="m3010 2794c1-10 50-73 50-63 0 3-11 20-25 39s-25 30-25 24z"/>
<path d="m869 2773c-13-16-12-17 4-4 9 7 17 15 17 17 0 8-8 3-21-13z"/>
<path d="m833 2723c-9-16-22-34-27-42-8-11-8-13 0-8 13 7 56 77 49 77-3 0-12-12-22-27z"/>
<path d="m3042 2676c24-35 45-63 46-61 4 4-77 125-83 125-3 0 14-29 37-64z"/>
<path d="m2790 2710c0-5 5-10 11-10 5 0 7 5 4 10-3 6-8 10-11 10-2 0-4-4-4-10z"/>
<path d="m3075 2696c10-14 19-26 22-26 7 0-17 39-28 46-6 3-3-5 6-20z"/>
<path d="m780 2640c-6-11-8-20-6-20 3 0 10 9 16 20s8 20 6 20c-3 0-10-9-16-20z"/>
<path d="m805 2634c-9-14-15-27-13-30 2-2 12 10 22 26 21 37 15 40-9 4z"/>
<path d="m3126 2617c3-10 9-15 12-12s0 11-7 18c-10 9-11 8-5-6z"/>
<path d="m2928 2603c7-3 16-2 19 1 4 3-2 6-13 5-11 0-14-3-6-6z"/>
<path d="m2980 2606c0-2 7-7 16-10 8-3 12-2 9 4-6 10-25 14-25 6z"/>
<path d="m2870 2590c0-6 7-10 15-10s15 2 15 4-7 6-15 10c-8 3-15 1-15-4z"/>
<path d="m3096 2587c3-10 9-15 12-12s0 11-7 18c-10 9-11 8-5-6z"/>
<path d="m745 2579c-4-6-5-12-2-15 2-3 7 2 10 11 7 17 1 20-8 4z"/>
<path d="m770 2570c-6-11-8-20-6-20 3 0 10 9 16 20s8 20 6 20c-3 0-10-9-16-20z"/>
<path d="m3147 2573c3-10 9-22 13-28 4-5 17-36 30-68 12-32 24-56 27-54 4 5-6 31-43 115-22 49-41 73-27 35z"/>
<path d="m3116 2547c3-10 9-15 12-12s0 11-7 18c-10 9-11 8-5-6z"/>
<path d="m2885 2530c3-5 14-10 23-10 15 0 15 2 2 10-20 13-33 13-25 0z"/>
<path d="m716 2513c-6-14-5-15 5-6 7 7 10 15 7 18s-9-2-12-12z"/>
<path d="m3137 2500c3-11 9-22 13-25 5-3 6 4 3 15s-9 22-13 25c-5 3-6-4-3-15z"/>
<path d="m733 2495c-3-9-3-18-1-21 3-3 8 4 11 16 6 23-1 27-10 5z"/>
<path d="m713 2443c-3-10-8-22-11-27s0-6 5-3c11 7 25 47 17 47-3 0-7-8-11-17z"/>
<path d="m3178 2403c5-21 7-23 10-9 2 10 0 22-6 28s-7 0-4-19z"/>
<path d="m2941 2401c-11-7-5-11 21-16 20-4 44-5 55-2 10 3 0 6-22 8-35 2-33 3 20 9l60 7-60 1c-33 1-66-2-74-7z"/>
<path d="m3224 2393c3-10 8-30 12-46 4-17 15-29 29-33 15-4 25-16 31-37 18-72 22-83 23-62 2 36-26 98-47 106-13 5-25 23-32 48-6 23-13 41-16 41s-3-8 0-17z"/>
<path d="m691 2384c0-11 3-14 6-6 3 7 2 16-1 19-3 4-6-2-5-13z"/>
<path d="m3198 2341 4-28-657 4 260-6c258-6 259-7 100-11-158-4-156-5 94-10l254-5 13-50c7-27 14-66 15-85 1-28 3-30 6-10 6 28-15 128-30 148-5 6-19 12-31 12-19 0-22 4-18 29 2 16 0 31-5 34s-8-7-5-22z"/>
<path d="m650 2341c0-6-11-16-25-21-15-6-25-17-24-27 1-17 2-17 6 0 2 9 10 17 18 17 16 0 40 28 31 37-3 3-6 1-6-6z"/>
<path d="m675 2340c-4-6-2-17 5-25 9-11 6-14-12-18-13-2 85-4 217-3 200 0 216 1 95 6-138 5-133 5 115 11l260 6-335-1c-313-1-335 0-334 17 2 19-2 22-11 7z"/>
<path d="m1483 2303c26-2 67-2 90 0s2 3-48 3c-49 0-68-1-42-3z"/>
<path d="m2317 2303c18-2 50-2 70 0 21 2 7 4-32 4-38 0-55-2-38-4z"/>
<path d="m620 2264c-6-14-10-37-9-52 1-19 4-15 10 16 4 23 11 47 14 52 3 6 4 10 0 10-3 0-10-12-15-26z"/>
<path d="m586 2248c-3-13-5-36-5-53 1-21 4-15 10 20 8 52 6 72-5 33z"/>
<path d="m3328 2016c4-168-4-267-28-351-4-16-11-46-15-65-10-57 10-12 23 50 6 30 15 79 21 108 12 60 14 335 3 397-5 22-6-41-4-139z"/>
<path d="m601 2164c0-11 3-14 6-6 3 7 2 16-1 19-3 4-6-2-5-13z"/>
<path d="m3166 2163c-6-14-5-15 5-6 7 7 10 15 7 18s-9-2-12-12z"/>
<path d="m572 2135c0-16 2-22 5-12 2 9 2 23 0 30-3 6-5-1-5-18z"/>
<path d="m593 2070c0-36 2-50 4-32 2 17 2 47 0 65-2 17-4 3-4-33z"/>
<path d="m3018 2103c6-2 18-2 25 0 6 3 1 5-13 5s-19-2-12-5z"/>
<path d="m3170 2102c0-8-26-13-77-14l-78-2 74-3c69-4 105 6 88 24-4 3-7 1-7-5z"/>
<path d="m3292 2065c0-27 4-77 8-110 7-59 7-59 7 25 0 47-4 96-8 110-5 19-7 12-7-25z"/>
<path d="m564 1965c0-60 1-84 3-52s2 81 0 110-3 3-3-58z"/>
<path d="m3018 2013c7-3 16-2 19 1 4 3-2 6-13 5-11 0-14-3-6-6z"/>
<path d="m582 1950c0-19 2-27 5-17 2 9 2 25 0 35-3 9-5 1-5-18z"/>
<path d="m2998 1933c7-3 16-2 19 1 4 3-2 6-13 5-11 0-14-3-6-6z"/>
<path d="m593 1840c0-36 2-50 4-32 2 17 2 47 0 65-2 17-4 3-4-33z"/>
<path d="m3290 1835c0-32 2-56 5-53 7 7 9 97 2 105-4 3-7-20-7-52z"/>
<path d="m572 1785c0-16 2-22 5-12 2 9 2 23 0 30-3 6-5-1-5-18z"/>
<path d="m601 1754c0-11 3-14 6-6 3 7 2 16-1 19-3 4-6-2-5-13z"/>
<path d="m3282 1740c0-19 2-27 5-17 2 9 2 25 0 35-3 9-5 1-5-18z"/>
<path d="m583 1715c0-22 2-30 4-17 2 12 2 30 0 40-3 9-5-1-4-23z"/>
<path d="m611 1704c-1-12 6-38 14-58l16-37 172 6c94 4 174 9 177 12s-74 3-171 0l-176-6-13 42c-7 23-14 47-15 52-2 6-4 0-4-11z"/>
<path d="m3266 1674c-4-14-5-28-3-31 3-2 8 8 11 23 4 14 5 28 3 31-3 2-8-8-11-23z"/>
<path d="m597 1640c10-58 22-80 41-80 13 0 23-13 32-41 8-23 16-37 17-32 7 21-28 83-47 83-14 0-21 9-26 38-4 20-10 44-15 52-5 9-6 1-2-20z"/>
<path d="m3873 1615c0-27 2-38 4-22 2 15 2 37 0 50-2 12-4 0-4-28z"/>
<path d="m23 1610c0-25 2-35 4-22 2 12 2 32 0 45-2 12-4 2-4-23z"/>
<path d="m1380 1640c0-9 709-3 719 6 3 2-158 4-357 4-224 0-362-4-362-10z"/>
<path d="m2130 1646c10-9 445-17 459-7 9 6-70 10-225 10-131 1-236 0-234-3z"/>
<path d="m1087 1633c51-2 135-2 185 0 51 1 10 3-92 3s-143-2-93-3z"/>
<path d="m2611 1636c2-2 150-5 329-8 191-3 269-2 190 2-143 8-526 13-519 6z"/>
<path d="m1798 1613c79-2 205-2 280 0 75 1 11 3-143 3s-216-2-137-3z"/>
<path d="m41 1594c0-11 3-14 6-6 3 7 2 16-1 19-3 4-6-2-5-13z"/>
<path d="m1050 1601c-36-3 77-5 250-3s322 5 330 6c26 6-513 3-580-3z"/>
<path d="m2230 1604c8-1 141-4 295-6s253 0 220 3c-59 7-544 10-515 3z"/>
<path d="m3851 1584c0-11 3-14 6-6 3 7 2 16-1 19-3 4-6-2-5-13z"/>
<path d="m697 1583c-10-9-9-51 1-57 4-2 8 8 7 22v27l140 5 140 6-141 2c-77 1-144-1-147-5z"/>
<path d="m2868 1583c34-2 90-2 125 0 34 2 6 3-63 3s-97-1-62-3z"/>
<path d="m3070 1574c8-1 36-6 63-9 30-4 47-11 47-20 0-7-15-50-34-94-19-45-31-79-26-76 14 8 72 164 67 179-6 15-53 27-101 25-17-1-24-3-16-5z"/>
<path d="m52 1540c0-14 2-19 5-12 2 6 2 18 0 25-3 6-5 1-5-13z"/>
<path d="m3230 1538c-10-20-9-21 2-7 8 9 22 19 33 22 18 4 18 5-2 6-14 1-26-7-33-21z"/>
<path d="m31 1534c0-11 3-14 6-6 3 7 2 16-1 19-3 4-6-2-5-13z"/>
<path d="m3842 1530c0-14 2-19 5-12 2 6 2 18 0 25-3 6-5 1-5-13z"/>
<path d="m3862 1530c0-14 2-19 5-12 2 6 2 18 0 25-3 6-5 1-5-13z"/>
<path d="m2830 1521c0-10 89-25 98-17 3 3-8 7-24 8s-4 4 26 8c55 7 55 7-22 8-43 1-78-2-78-7z"/>
<path d="m3008 1523c7-3 16-2 19 1 4 3-2 6-13 5-11 0-14-3-6-6z"/>
<path d="m710 1496c0-8 4-17 9-20 5-4 7 3 4 14-6 23-13 26-13 6z"/>
<path d="m42 1480c0-14 2-19 5-12 2 6 2 18 0 25-3 6-5 1-5-13z"/>
<path d="m3206 1484c-4-9-4-19-1-22 2-3 7 3 11 12s4 19 1 22c-2 3-7-3-11-12z"/>
<path d="m3852 1480c0-14 2-19 5-12 2 6 2 18 0 25-3 6-5 1-5-13z"/>
<path d="m61 1480c0-8 4-24 9-35 5-13 9-14 9-5 0 8-4 24-9 35-5 13-9 14-9 5z"/>
<path d="m3831 1474c0-11 3-14 6-6 3 7 2 16-1 19-3 4-6-2-5-13z"/>
<path d="m698 1448c7-29 79-169 93-183 6-5-10 30-35 79-25 48-46 94-46 102 0 7-4 15-9 18-5 4-7-4-3-16z"/>
<path d="m730 1446c0-8 4-17 9-20 5-4 7 3 4 14-6 23-13 26-13 6z"/>
<path d="m2740 1450c0-5 7-10 15-10s15 5 15 10c0 6-7 10-15 10s-15-4-15-10z"/>
<path d="m3167 1390c-14-33-23-60-21-60 7 0 56 112 51 116-2 2-15-23-30-56z"/>
<path d="m3821 1434c0-11 3-14 6-6 3 7 2 16-1 19-3 4-6-2-5-13z"/>
<path d="m3841 1434c0-11 3-14 6-6 3 7 2 16-1 19-3 4-6-2-5-13z"/>
<path d="m61 1394c0-11 3-14 6-6 3 7 2 16-1 19-3 4-6-2-5-13z"/>
<path d="m750 1401c0-6 4-13 10-16s7 1 4 9c-7 18-14 21-14 7z"/>
<path d="m3811 1394c0-11 3-14 6-6 3 7 2 16-1 19-3 4-6-2-5-13z"/>
<path d="m3831 1394c0-11 3-14 6-6 3 7 2 16-1 19-3 4-6-2-5-13z"/>
<path d="m2716 1392c-5-8 155-4 163 4 2 2-32 4-77 4-44 0-83-4-86-8z"/>
<path d="m91 1364c0-11 3-14 6-6 3 7 2 16-1 19-3 4-6-2-5-13z"/>
<path d="m2803 1373c15-2 37-2 50 0 12 2 0 4-28 4-27 0-38-2-22-4z"/>
<path d="m770 1361c0-6 4-13 10-16s7 1 4 9c-7 18-14 21-14 7z"/>
<path d="m2953 1363c9-2 23-2 30 0 6 3-1 5-18 5-16 0-22-2-12-5z"/>
<path d="m3086 1328-18-33 21 25c18 22 26 40 18 40-1 0-11-15-21-32z"/>
<path d="m3811 1324c0-11 3-14 6-6 3 7 2 16-1 19-3 4-6-2-5-13z"/>
<path d="m790 1325c0-5 10-21 21-35 13-17 17-18 10-5-17 33-31 51-31 40z"/>
<path d="m2690 1320c-12-7-11-9 5-10 11 0 40-2 65-4l45-4-80 14 35 6c33 5 33 5-10 6-25 1-52-3-60-8z"/>
<path d="m3786 1315c-9-26-7-32 5-12 6 10 9 21 6 23-2 3-7-2-11-11z"/>
<path d="m3116 1288-18-33 21 25c18 22 26 40 18 40-1 0-11-15-21-32z"/>
<path d="m90 1295c0-5 5-17 10-25s10-10 10-5c0 6-5 17-10 25s-10 11-10 5z"/>
<path d="m830 1256c0-2 8-10 18-17 15-13 16-12 3 4s-21 21-21 13z"/>
<path d="m3031 1237c-13-21-12-21 5-5 10 10 16 20 13 22-3 3-11-5-18-17z"/>
<path d="m840 1191c22-33 44-63 50-66 6-4-10 23-36 59-25 36-48 66-50 66-3 0 13-27 36-59z"/>
<path d="m2685 1240c3-5 22-10 41-10s34 5 34 10c0 6-18 10-41 10-24 0-38-4-34-10z"/>
<path d="m2773 1238c2-9 24-13 62-13s60 4 63 13-14 12-63 12-66-3-62-12zm95-5c-15-2-42-2-60 0s-6 4 27 4 48-2 33-4z"/>
<path d="m870 1201c5-11 15-23 21-27 6-3 3 5-6 20-20 30-30 35-15 7z"/>
<path d="m3055 1194c-9-15-12-23-6-20 11 7 35 46 28 46-3 0-12-12-22-26z"/>
<path d="m3746 1205c-9-26-7-32 5-12 6 10 9 21 6 23-2 3-7-2-11-11z"/>
<path d="m2520 1170c0-5 14-10 30-10 17 0 30 5 30 10 0 6-13 10-30 10-16 0-30-4-30-10z"/>
<path d="m2940 1120c-23-27-40-50-37-50s24 23 47 50c23 28 40 50 37 50s-24-22-47-50z"/>
<path d="m2748 1153c7-3 16-2 19 1 4 3-2 6-13 5-11 0-14-3-6-6z"/>
<path d="m2788 1153c7-3 16-2 19 1 4 3-2 6-13 5-11 0-14-3-6-6z"/>
<path d="m171 1145c0-5 6-21 14-35s14-20 14-15c0 6-6 21-14 35s-14 21-14 15z"/>
<path d="m947 1105c23-27 61-68 84-90 26-24 17-11-20 30-91 99-111 118-64 60z"/>
<path d="m2944 1058c-84-88-125-139-75-93 37 33 155 165 149 165-2 0-35-33-74-72z"/>
<path d="m160 1111c0-6 4-13 10-16s7 1 4 9c-7 18-14 21-14 7z"/>
<path d="m2506 1112c-3-5 34-7 82-5 124 6 133 10 20 12-53 0-99-3-102-7z"/>
<path d="m3726 1103c-6-14-5-15 5-6 7 7 10 15 7 18s-9-2-12-12z"/>
<path d="m938 1064c23-28 72-77 109-110 37-32 70-61 73-64 29-29 239-155 246-147 2 2-8 10-24 18-126 64-245 152-360 268-58 58-72 69-44 35z"/>
<path d="m2593 1093c15-2 37-2 50 0 12 2 0 4-28 4-27 0-38-2-22-4z"/>
<path d="m2708 1083c6-2 18-2 25 0 6 3 1 5-13 5s-19-2-12-5z"/>
<path d="m180 1071c0-6 4-13 10-16s7 1 4 9c-7 18-14 21-14 7z"/>
<path d="m206 1067c3-10 9-15 12-12s0 11-7 18c-10 9-11 8-5-6z"/>
<path d="m3706 1063c-6-14-5-15 5-6 7 7 10 15 7 18s-9-2-12-12z"/>
<path d="m2500 1040c0-11 46-11 135 0 57 7 55 7-37 9-60 0-98-3-98-9z"/>
<path d="m200 1031c0-6 4-13 10-16s7 1 4 9c-7 18-14 21-14 7z"/>
<path d="m230 1020c6-11 13-20 16-20 2 0 0 9-6 20s-13 20-16 20c-2 0 0-9 6-20z"/>
<path d="m3655 1010c-9-16-13-30-11-30 3 0 12 14 21 30 9 17 13 30 11 30-3 0-12-13-21-30z"/>
<path d="m3686 1023c-6-14-5-15 5-6 7 7 10 15 7 18s-9-2-12-12z"/>
<path d="m2618 1023c12-2 32-2 45 0 12 2 2 4-23 4s-35-2-22-4z"/>
<path d="m2790 969c-19-17-61-48-92-70-32-22-58-42-58-45 0-8 111 71 155 110 22 19 38 35 35 35s-21-14-40-30z"/>
<path d="m2370 980c0-12 57-12 85 0 15 6 6 9-32 9-29 1-53-3-53-9z"/>
<path d="m240 960c6-11 13-20 16-20 2 0 0 9-6 20s-13 20-16 20c-2 0 0-9 6-20z"/>
<path d="m1083 973c9-14 87-77 87-70 0 3-21 22-47 43s-44 33-40 27z"/>
<path d="m2470 970c-22-7-21-8 13-9 23-1 36 3 32 9-7 11-10 11-45 0z"/>
<path d="m2804 918-19-23 23 19c12 11 22 21 22 23 0 8-8 2-26-19z"/>
<path d="m2295 920c7-12 49-12 85 0 19 6 11 8-33 9-36 1-56-3-52-9z"/>
<path d="m2383 903c9-2 25-2 35 0 9 3 1 5-18 5s-27-2-17-5z"/>
<path d="m1205 876c17-14 34-26 39-26 11 0 11 0-34 29l-35 23 30-26z"/>
<path d="m2724 858-19-23 23 19c21 18 27 26 19 26-2 0-12-10-23-22z"/>
<path d="m320 866c0-2 8-10 18-17 15-13 16-12 3 4s-21 21-21 13z"/>
<path d="m2246 859c4-7 30-9 73-6 43 4 55 3 36-2-30-9-30-9-4-10 15 0 32 6 39 14 11 13 2 15-69 15-57 0-80-3-75-11z"/>
<path d="m2578 823c-26-15-46-28-44-30 4-4 76 34 91 48 14 14 4 10-47-18z"/>
<path d="m2668 824c-38-20-36-28 2-9 17 9 30 18 30 20 0 7-1 6-32-11z"/>
<path d="m370 800c11-16 26-33 32-36 7-4-1 9-16 29-34 44-46 50-16 7z"/>
<path d="m1290 826c0-3 9-10 20-16s20-8 20-6c0 3-9 10-20 16s-20 8-20 6z"/>
<path d="m2060 810c0-5 9-10 20-10s20 5 20 10c0 6-9 10-20 10s-20-4-20-10z"/>
<path d="m2220 816c0-2 11-6 25-8 14-3 25-1 25 3 0 5-11 9-25 9s-25-2-25-4z"/>
<path d="m1356 785c10-8 26-14 34-15 8 0 2 7-14 15-36 19-45 19-20 0z"/>
<path d="m2218 793c7-3 16-2 19 1 4 3-2 6-13 5-11 0-14-3-6-6z"/>
<path d="m2595 780c-16-11-25-20-20-20 10 0 64 39 55 40-3 0-18-9-35-20z"/>
<path d="m3504 778-19-23 23 19c21 18 27 26 19 26-2 0-12-10-23-22z"/>
<path d="m2493 780c-13-5-23-11-23-14 0-7 40 6 46 15 6 10 6 10-23-1z"/>
<path d="m360 776c0-2 8-10 18-17 15-13 16-12 3 4s-21 21-21 13z"/>
<path d="m1900 771c0-6 45-9 104-8 57 1 102 5 99 10-6 10-203 9-203-2z"/>
<path d="m3519 763c-13-16-12-17 4-4s21 21 13 21c-2 0-10-8-17-17z"/>
<path d="m1418 758c5-5 16-8 23-6 8 3 3 7-10 11-17 4-21 3-13-5z"/>
<path d="m2531 749c-13-5-38-16-55-24-41-20-215-75-241-76-16-1-17-2-3-6 21-5 171 39 246 73 29 13 57 24 62 24s12 5 15 10c7 12 7 12-24-1z"/>
<path d="m448 703c22-27 55-61 73-78 18-16 2 5-36 48-77 85-99 104-37 30z"/>
<path d="m1468 738c5-5 16-8 23-6 8 3 3 7-10 11-17 4-21 3-13-5z"/>
<path d="m2365 728c-33-11-73-24-90-28l-30-8 32-1c17-1 34 3 37 7s28 14 56 22 53 18 56 22c6 10 11 11-61-14z"/>
<path d="m3469 733c-13-16-12-17 4-4s21 21 13 21c-2 0-10-8-17-17z"/>
<path d="m1411 722c44-23 81-34 73-21-3 5-13 9-23 9-9 0-21 4-26 9-6 5-21 12-35 15-17 5-13 0 11-12z"/>
<path d="m415 710c10-11 20-20 23-20s-3 9-13 20-20 20-23 20 3-9 13-20z"/>
<path d="m1518 718c6-6 18-8 28-6 14 3 12 5-9 10-19 3-25 2-19-4z"/>
<path d="m3479 713c-13-16-12-17 4-4s21 21 13 21c-2 0-10-8-17-17z"/>
<path d="m1580 700c8-5 26-10 39-10 32 0 24 6-19 14-25 4-31 3-20-4z"/>
<path d="m3395 648-50-53 53 50c28 27 52 51 52 52 0 8-9-1-55-49z"/>
<path d="m1550 671c61-22 84-25 76-12-3 5-20 11-38 14s-46 8-63 11c-16 4-5-2 25-13z"/>
<path d="m1665 681c46-20 150-31 286-30 79 0 152 3 161 7 10 4-53 5-139 4-94-2-182 1-218 8-101 19-113 21-90 11z"/>
<path d="m2180 680-45-7 40-1c22-1 47 3 55 8s11 9 5 8c-5 0-30-4-55-8z"/>
<path d="m490 625c30-30 57-55 59-55 3 0-19 25-49 55s-57 55-59 55c-3 0 19-25 49-55z"/>
<path d="m3410 635c-24-25-42-45-39-45s25 20 49 45 42 45 39 45-25-20-49-45z"/>
<path d="m1653 643c9-2 23-2 30 0 6 3-1 5-18 5-16 0-22-2-12-5z"/>
<path d="m1720 628c33-15 424-15 465 0 26 10 24 10-20 5-69-9-381-9-430 0-35 6-37 5-15-5z"/>
<path d="m3255 512c-33-31-51-49-40-39 33 26 41 20 14-10-13-15-1-8 29 16 28 24 52 45 52 49 0 3-10-4-23-16-41-39-42-23-2 18 57 59 39 48-30-18z"/>
<path d="m605 541c21-24 95-86 95-79 0 2-26 26-57 53-32 27-49 39-38 26z"/>
<path d="m610 505c13-14 26-25 28-25 3 0-5 11-18 25s-26 25-28 25c-3 0 5-11 18-25z"/>
<path d="m665 460c10-11 20-20 23-20s-3 9-13 20-20 20-23 20 3-9 13-20z"/>
<path d="m729 436c24-25 17-38-7-14-7 7-12 9-12 6 0-4 15-17 33-29 21-16 27-17 18-6-18 23-5 21 30-4 53-38 30-12-28 31-37 27-49 33-34 16z"/>
<path d="m3145 422c-17-15-26-24-21-19 19 14 28 7 15-10-9-11-3-10 19 6 17 12 32 25 32 29 0 3-5 1-12-6-20-20-32-13-13 8 26 28 15 24-20-8z"/>
<path d="m894 322c3-6 1-12-4-14-6-2 4-12 21-22 18-10 29-14 25-7-10 15-1 14 37-5 46-23 21-2-37 31-27 15-46 23-42 17zm31-22c3-5 2-10-4-10-5 0-13 5-16 10-3 6-2 10 4 10 5 0 13-4 16-10z"/>
<path d="m977 249c7-7 15-10 18-7s-2 9-12 12c-14 6-15 5-6-5z"/>
<path d="m2910 250c-9-6-10-10-3-10 6 0 15 5 18 10 8 12 4 12-15 0z"/>
<path d="m1017 229c7-7 15-10 18-7s-2 9-12 12c-14 6-15 5-6-5z"/>
<path d="m1057 209c7-7 15-10 18-7s-2 9-12 12c-14 6-15 5-6-5z"/>
<path d="m2830 210c-9-6-10-10-3-10 6 0 15 5 18 10 8 12 4 12-15 0z"/>
<path d="m1097 189c7-7 15-10 18-7s-2 9-12 12c-14 6-15 5-6-5z"/>
<path d="m2790 190c-9-6-10-10-3-10 6 0 15 5 18 10 8 12 4 12-15 0z"/>
<path d="m2690 170c-8-5-10-10-5-10 6 0 17 5 25 10s11 10 5 10c-5 0-17-5-25-10z"/>
<path d="m1240 150c8-5 22-9 30-9 10 0 8 3-5 9-27 12-43 12-25 0z"/>
<path d="m1265 120c27-12 43-12 25 0-8 5-22 9-30 9-10 0-8-3 5-9z"/>
<path d="m1365 110c27-12 43-12 25 0-8 5-22 9-30 9-10 0-8-3 5-9z"/>
<path d="m1318 103c7-3 16-2 19 1 4 3-2 6-13 5-11 0-14-3-6-6z"/>
<path d="m2468 93c7-3 16-2 19 1 4 3-2 6-13 5-11 0-14-3-6-6z"/>
<path d="m1378 83c7-3 16-2 19 1 4 3-2 6-13 5-11 0-14-3-6-6z"/>
<path d="m1458 83c7-3 16-2 19 1 4 3-2 6-13 5-11 0-14-3-6-6z"/>
<path d="m2508 83c7-3 16-2 19 1 4 3-2 6-13 5-11 0-14-3-6-6z"/>
<path d="m1508 73c7-3 16-2 19 1 4 3-2 6-13 5-11 0-14-3-6-6z"/>
<path d="m2378 73c7-3 16-2 19 1 4 3-2 6-13 5-11 0-14-3-6-6z"/>
<path d="m2440 70c-21-7-21-8-5-9 11 0 27 4 35 9 18 11 5 11-30 0z"/>
<path d="m1458 63c7-3 16-2 19 1 4 3-2 6-13 5-11 0-14-3-6-6z"/>
<path d="m1548 63c7-3 16-2 19 1 4 3-2 6-13 5-11 0-14-3-6-6z"/>
<path d="m1608 53c6-2 18-2 25 0 6 3 1 5-13 5s-19-2-12-5z"/>
<path d="m2268 53c6-2 18-2 25 0 6 3 1 5-13 5s-19-2-12-5z"/>
<path d="m1543 43c9-2 23-2 30 0 6 3-1 5-18 5-16 0-22-2-12-5z"/>
<path d="m1668 43c6-2 18-2 25 0 6 3 1 5-13 5s-19-2-12-5z"/>
<path d="m2218 43c7-3 16-2 19 1 4 3-2 6-13 5-11 0-14-3-6-6z"/>
<path d="m2333 43c9-2 23-2 30 0 6 3-1 5-18 5-16 0-22-2-12-5z"/>
<path d="m1608 33c7-3 16-2 19 1 4 3-2 6-13 5-11 0-14-3-6-6z"/>
<path d="m1781 19c9-18 79-25 79-8 0 5 41 9 90 9 50 0 90-4 90-9 0-11 65-9 76 2 4 4 37 7 72 7 36 0 63 2 60 5s-111 7-241 8c-219 3-235 2-226-14z"/>
<path d="m2278 33c6-2 18-2 25 0 6 3 1 5-13 5s-19-2-12-5z"/>
<path d="m1678 23c18-2 45-2 60 0s0 4-33 4-45-2-27-4z"/>
</g>
<g transform="translate(0 188.8) scale(.04 -.04)" fill="#302d2b">
<path d="m0 3240c0-977 3-1480 10-1480s11 501 12 1468l3 1467h1925 1925l3-1472c1-971 5-1473 12-1473s10 505 10 1485v1485h-1950-1950v-1480z"/>
<path d="m1790 4535c-5-114 2-401 9-403s12 65 13 195l3 198h135 135l5-197c4-140 8-195 16-190 7 5 11 71 10 202l-1 195-162 3c-90 1-163 0-163-3z"/>
<path d="m1364 4127c-2-7-3-74-2-148l3-134 210-6c116-3 211-6 213-7 1-1 1-118 0-259l-3-257-89-16c-49-10-94-23-100-31s-42-25-81-38c-118-40-327-149-365-191-3-3-22-18-42-33-76-56-211-204-274-298-69-105-123-213-158-317-15-45-30-70-44-77-23-10-28-23-48-145-25-156-15-380 26-552 9-36 16-48 33-50 14-2 26-16 37-48 9-25 20-54 24-65s27-58 50-105c107-214 290-411 500-539 111-67 289-141 342-141 11 0 24-4 30-8 38-34 434-50 569-23 67 14 255 69 270 81 6 4 30 15 54 24 25 10 77 36 115 59 243 143 438 366 552 632 39 90 57 121 72 123 20 3 25 18 53 157 16 78 22 364 10 445-17 108-32 148-57 154-15 4-25 17-29 38-8 35-39 114-86 215-28 62-101 176-155 243-75 92-291 280-322 280-7 0-12 5-12 10 0 6-5 10-10 10-6 0-27 11-48 23-20 13-66 36-102 51-36 16-73 32-82 37-10 5-27 9-37 9-11 0-23 5-26 10-3 6-13 10-22 10s-26 8-37 18c-12 11-54 25-94 32s-75 17-78 22-6 121-7 258c-2 241-1 249 18 254 11 3 108 6 216 6s198 2 200 4c8 9-2 296-11 296-5 0-11-64-12-142l-3-143-217-3-218-2v-268c0-163-4-272-10-278s24-14 88-23c53-7 101-16 105-21 5-4 8-219 7-477l-1-470 107-6c59-4 236-6 393-5l286 1-379 8c-288 7-382 12-388 21-4 7-8 207-8 444 0 381 2 433 16 445 12 10 20 10 35 1 10-7 26-12 34-12s23-4 33-10c9-5 60-29 112-54 126-60 196-108 311-213 121-111 225-248 290-383 27-58 54-113 60-122 5-10 9-27 9-37 0-11 5-23 11-27 6-3 9-19 7-35-4-25-1-29 18-29 36 0 41-14 73-195 18-105 2-357-30-452l-11-35-257 6c-141 4-393 9-561 12-168 4-314 7-325 7-92 2-1103-16-1185-22-58-4-147-7-199-6h-93l-13 35c-40 109-50 369-21 535 17 92 30 115 69 115 16 0 17 2 7 15-10 12-10 19-2 27 7 7 12 20 12 30 0 39 90 223 164 333 64 97 221 260 301 315 28 19 52 37 53 42 2 4 8 8 14 8 5 0 28 13 51 28 74 50 247 123 297 126l25 1 3-448c2-365 0-448-11-453-7-2-180-8-383-13l-369-8 256-1c141-1 317 1 393 5l137 6-2 469c-1 257 1 471 5 475 11 11 115 32 165 32 35 1 42 4 33 13s-12 85-12 280v268h-202c-112 0-209 4-216 9-11 6-13 39-10 145 3 122-3 161-18 123zm1071-2517c367-11 653-25 708-35 21-4 41-14 44-21 9-25-64-190-118-266-11-14-19-29-19-32s-27-42-60-85c-157-205-381-368-620-451-19-7-44-16-55-20-11-5-36-11-55-15-19-3-60-11-90-16-30-6-122-13-205-16-141-4-201 1-307 28-118 29-133 34-193 59-16 7-41 17-55 23-14 5-43 19-65 30-22 12-50 26-62 32-13 5-23 13-23 18 0 4-5 7-12 7-14 0-135 91-206 155-124 112-255 304-325 475-5 14-14 35-19 46-6 12-8 30-6 40 3 17 18 20 173 27 528 23 1108 29 1570 17z"/>
<path d="m2930 1521-55-6 40-7c58-11 143-10 150 2 4 6-6 10-24 10-16 0-35 1-43 3-7 2-38 1-68-2z"/>
<path d="m2770 1451c0-9 224-21 247-13 7 2 10 8 7 13-7 12-254 12-254 0z"/>
<path d="m2820 1380c92-11 182-12 176-1-3 4-58 8-123 8-103 0-110-1-53-7z"/>
<path d="m2770 1309c65-11 178-11 185 1 4 6-35 10-112 9-93-1-108-3-73-10z"/>
<path d="m2808 1233c18-2 45-2 60 0s0 4-33 4-45-2-27-4z"/>
<path d="m2580 1171c0-5 44-11 98-13 113-4 152 0 152 13 0 5-54 9-125 9s-125-4-125-9z"/>
<path d="m2531 1106c2-2 55-7 117-11 78-5 112-3 112 4s-40 11-117 11c-64 0-114-2-112-4z"/>
<path d="m2613 1033c15-2 39-2 55 0 15 2 2 4-28 4s-43-2-27-4z"/>
<path d="m2453 973c9-2 23-2 30 0 6 3-1 5-18 5-16 0-22-2-12-5z"/>
<path d="m2515 970c3-5 24-10 46-10 21 0 39 5 39 10 0 6-21 10-46 10-27 0-43-4-39-10z"/>
<path d="m2418 908c45-7 67-7 75 1s-9 11-63 10l-75-2 63-9z"/>
<path d="m2333 853c9-2 25-2 35 0 9 3 1 5-18 5s-27-2-17-5z"/>
<path d="m2100 810c0-6 34-10 83-9 56 1 74 4 57 9-37 12-140 12-140 0z"/>
<path d="m1983 763c9-2 23-2 30 0 6 3-1 5-18 5-16 0-22-2-12-5z"/>
<path d="m2048 763c12-2 30-2 40 0 9 3-1 5-23 4-22 0-30-2-17-4z"/>
<path d="m2550 3030c0-5 5-10 10-10 6 0 10 5 10 10 0 6-4 10-10 10-5 0-10-4-10-10z"/>
<path d="m2600 2990c0-5 9-10 20-10s20 5 20 10c0 6-9 10-20 10s-20-4-20-10z"/>
<path d="m2665 2930c28-12 45-12 45 0 0 6-15 10-32 9-28 0-30-2-13-9z"/>
<path d="m2703 2883c9-2 25-2 35 0 9 3 1 5-18 5s-27-2-17-5z"/>
<path d="m2730 2830c0-5 20-10 45-10s45 5 45 10c0 6-20 10-45 10s-45-4-45-10z"/>
<path d="m2770 2770c0-5 25-10 55-10s55 5 55 10c0 6-25 10-55 10s-55-4-55-10z"/>
<path d="m2805 2710c3-5 31-10 61-10s54 5 54 10c0 6-27 10-61 10-37 0-58-4-54-10z"/>
<path d="m2855 2650c3-5 28-10 55-10s52 5 55 10c4 6-17 10-55 10s-59-4-55-10z"/>
<path d="m2915 2601c-30-5-36-8-22-14 26-10 107-9 107 2 0 9-26 22-38 20-4-1-25-5-47-8z"/>
<path d="m2910 2530c20-13 127-13 135 0 4 6-22 10-72 10-54 0-73-3-63-10z"/>
<path d="m2910 2470c0-6 35-10 86-10 54 0 83 4 79 10-3 6-42 10-86 10-46 0-79-4-79-10z"/>
<path d="m3015 2401-60-6 63-8c34-4 67-5 72-2 11 7 4 26-8 23-4-1-34-4-67-7z"/>
<path d="m3010 2171c0-11 94-25 130-19 13 1 25 9 28 16 3 9-17 12-77 12-45 0-81-4-81-9z"/>
<path d="m3030 2100c-17-5 2-8 58-9 45-1 82 2 82 7 0 10-109 12-140 2z"/>
<path d="m3e3 2031c0-24 170-27 178-3 3 9-19 12-87 12-50 0-91-4-91-9z"/>
<path d="m2980 1951c0-5 19-13 43-16 57-9 153-2 150 10-4 13-193 19-193 6z"/>
<path d="m2988 1884c-47-14-8-24 87-24 63 0 105 4 105 10s-24 10-52 10c-29 0-69 2-88 4-19 3-43 2-52 0z"/>
<path d="m2945 1811c-6-11 102-24 169-19 28 2 51 8 54 16 3 9-23 12-107 12-60 0-112-4-116-9z"/>
<path d="m2916 1731c-4-5 17-12 46-16 71-9 188-2 188 10 0 13-226 19-234 6z"/>
<path d="m29 1675c-17-27 25-246 76-400 34-103 129-299 192-395 123-187 287-357 475-495 180-132 452-256 683-313 129-32 330-58 320-42-2 4-39 10-82 13-139 12-357 68-512 132-478 197-861 580-1036 1034-57 148-96 310-108 446-1 17-5 26-8 20z"/>
<path d="m3867 1673c-4-3-7-24-7-46 0-58-36-222-71-328-130-388-394-724-749-955-261-169-574-278-880-307-19-2-8-5 25-5 100-3 309 43 475 105 519 193 914 573 1111 1070 41 104 88 290 98 388 9 84 8 89-2 78z"/>
<path d="m1860 10c0-6 37-10 90-10s90 4 90 10-37 10-90 10-90-4-90-10z"/>
</g>
</g>
</svg>
