<?xml version="1.0" encoding="UTF-8" standalone="no"?>
<svg
   xmlns:dc="http://purl.org/dc/elements/1.1/"
   xmlns:cc="http://creativecommons.org/ns#"
   xmlns:rdf="http://www.w3.org/1999/02/22-rdf-syntax-ns#"
   xmlns:svg="http://www.w3.org/2000/svg"
   xmlns="http://www.w3.org/2000/svg"
   xmlns:sodipodi="http://sodipodi.sourceforge.net/DTD/sodipodi-0.dtd"
   xmlns:inkscape="http://www.inkscape.org/namespaces/inkscape"
   version="1.0"
   width="208.86046"
   height="244.65999"
   id="svg2780"
   inkscape:version="0.92.4 (5da689c313, 2019-01-14)"
   sodipodi:docname="2962.svg">
  <metadata
     id="metadata27">
    <rdf:RDF>
      <cc:Work
         rdf:about="">
        <dc:format>image/svg+xml</dc:format>
        <dc:type
           rdf:resource="http://purl.org/dc/dcmitype/StillImage" />
        <dc:title />
      </cc:Work>
    </rdf:RDF>
  </metadata>
  <sodipodi:namedview
     pagecolor="#ffffff"
     bordercolor="#666666"
     borderopacity="1"
     objecttolerance="10"
     gridtolerance="10"
     guidetolerance="10"
     inkscape:pageopacity="0"
     inkscape:pageshadow="2"
     inkscape:window-width="3236"
     inkscape:window-height="1417"
     id="namedview25"
     showgrid="false"
     inkscape:zoom="2.0000001"
     inkscape:cx="35.026444"
     inkscape:cy="196.34482"
     inkscape:window-x="-8"
     inkscape:window-y="-8"
     inkscape:window-maximized="1"
     inkscape:current-layer="svg2780"
     inkscape:measure-start="104.255,149.787"
     inkscape:measure-end="104.255,126.383"
     showguides="true"
     inkscape:object-paths="true"
     inkscape:snap-intersection-paths="true"
     inkscape:snap-global="true"
     inkscape:document-rotation="0" />
  <defs
     id="defs2782" />
  <path
     inkscape:connector-curvature="0"
     style="fill:#cc2900;fill-opacity:1;fill-rule:evenodd;stroke:#000000;stroke-width:1.99999988;stroke-linecap:butt;stroke-miterlimit:4;stroke-dashoffset:0;stroke-opacity:1"
     id="path4212"
     d="m 1,1 3.761095,158.00304 c 2.686489,112.85918 196.651755,112.85918 199.338255,0 L 207.86045,1 Z" />
  <path
     style="opacity:1;fill:#feeb00;fill-opacity:1;stroke:#000000;stroke-width:1;stroke-miterlimit:4;stroke-dasharray:none;stroke-dashoffset:4.57999992;stroke-opacity:1"
     d="M 104.43024,1 V 243.64742 C 65.266812,243.18482 13.770582,225.25412 5.4921324,168.72538 L 1.0000014,1 Z"
     id="path6029"
     inkscape:connector-curvature="0"
     sodipodi:nodetypes="ccccc" />
  <path
     id="path6626-1-1"
     style="opacity:1;fill:#009645;fill-opacity:1;stroke:#000a00;stroke-width:1;stroke-miterlimit:4;stroke-dasharray:none;stroke-dashoffset:4.57999992;stroke-opacity:1"
     d="m 95.06107,33.731417 c 3.09174,4.191943 -0.37757,4.614725 -1.14905,3.977476 -4.2756,-4.081265 -11.12985,-6.435661 -12.72792,-1.569544 -2.67207,8.136446 6.07803,13.281042 12.63954,17.086679 3.30415,1.91639 0.94999,3.803015 -0.70711,3.005204 -3.53873,-1.703719 -9.08493,-3.696408 -10.25305,0.618718 -1.79786,6.438584 5.40384,11.168598 13.47922,17.459077 2.16619,1.687393 -0.30931,4.112988 -2.961,2.563262 -3.78681,-2.213119 -4.19124,2.190569 -1.76777,5.480078 4.81689,6.538235 10.1378,21.367633 12.81631,29.697273 2.67851,-8.32964 7.99942,-23.159038 12.81631,-29.697273 2.42347,-3.289509 2.01904,-7.693197 -1.76777,-5.480078 -2.65169,1.549726 -5.12719,-0.875869 -2.961,-2.563262 8.07538,-6.290479 15.27708,-11.020493 13.47922,-17.459077 -1.16812,-4.315126 -6.71432,-2.322437 -10.25305,-0.618718 -1.6571,0.797811 -4.01126,-1.088814 -0.70711,-3.005204 6.56151,-3.805637 15.31161,-8.950233 12.63954,-17.086679 -1.59807,-4.866117 -8.45232,-2.511721 -12.72792,1.569544 -0.77148,0.637249 -4.24079,0.214467 -1.14905,-3.977476 C 125.12259,18.378885 114.83775,7.1280492 104.43024,7.1280501 94.02273,7.128049 83.73789,18.378885 95.06107,33.731417 Z"
     inkscape:connector-curvature="0"
     sodipodi:nodetypes="scsssccsscssccssscscs" />
  <path
     id="path6626-1"
     style="opacity:1;fill:#009645;fill-opacity:1;stroke:#000a00;stroke-width:1;stroke-miterlimit:4;stroke-dasharray:none;stroke-dashoffset:4.57999992;stroke-opacity:1"
     d="m 169.92791,31.025356 c -3.31252,4.019762 0.37757,4.614725 1.14905,3.977476 3.65688,-3.020605 10.06919,-6.722273 12.72792,-1.944544 4.16435,7.483308 -6.19146,12.091867 -12.63954,16.086679 -2.9506,1.828002 -0.94999,3.803015 0.70711,3.005204 3.53873,-1.703719 8.5546,-5.19901 10.25305,0.618718 1.00236,3.43338 -5.40384,8.293598 -13.47922,14.584077 -2.16619,1.687393 -0.51133,3.715587 1.54679,3.005204 3.24434,-1.119821 3.56231,1.678219 1.76777,4.242641 -3.6958,5.281347 -8.60808,12.235566 -11.4021,18.742772 -2.79402,-6.507205 -7.7063,-13.461424 -11.4021,-18.742771 -1.79454,-2.564422 -2.0069,-5.892792 1.23744,-4.772971 2.05812,0.710383 3.71298,-1.317811 1.54679,-3.005204 -8.07538,-6.290479 -13.95125,-11.327474 -12.94889,-14.760854 1.69845,-5.817728 6.18399,-2.14566 9.72272,-0.441941 1.6571,0.797811 3.65771,-1.177202 0.70711,-3.005204 -6.44808,-3.994812 -16.27356,-8.780148 -12.10921,-16.263456 2.65873,-4.777729 8.54071,-0.899284 12.19759,2.121321 0.77148,0.637249 4.46157,0.04229 1.14905,-3.977476 -8.93669,-10.844726 -0.50801,-20.9480375 9.8995,-20.948038 10.40751,-6e-7 18.30586,10.633641 9.36917,21.478367 z"
     inkscape:connector-curvature="0"
     sodipodi:nodetypes="scsssccsscssccssscscs" />
  <path
     id="path6626-1-3"
     style="opacity:1;fill:#009645;fill-opacity:1;stroke:#000a00;stroke-width:1;stroke-miterlimit:4;stroke-dasharray:none;stroke-dashoffset:4.57999992;stroke-opacity:1"
     d="m 169.92198,127.931 c -3.31252,4.01977 0.37757,4.61473 1.14905,3.97748 3.65688,-3.0206 10.06919,-6.72227 12.72792,-1.94454 4.16435,7.4833 -6.19146,12.09186 -12.63954,16.08668 -2.9506,1.828 -0.94999,3.80301 0.70711,3.0052 3.53873,-1.70372 8.5546,-5.19901 10.25305,0.61872 1.00236,3.43338 -5.40384,8.2936 -13.47922,14.58407 -2.16619,1.6874 -0.51133,3.71559 1.54679,3.00521 3.24434,-1.11982 3.56231,1.67822 1.76777,4.24264 -3.6958,5.28135 -8.60808,12.23557 -11.4021,18.74277 -2.79402,-6.5072 -7.7063,-13.46142 -11.4021,-18.74277 -1.79454,-2.56442 -1.47657,-5.36246 1.76777,-4.24264 2.05812,0.71038 3.71298,-1.31781 1.54679,-3.0052 -8.07538,-6.29048 -14.48158,-11.1507 -13.47922,-14.58408 1.69845,-5.81773 6.71432,-2.32244 10.25305,-0.61872 1.6571,0.79781 3.65771,-1.1772 0.70711,-3.0052 -6.44808,-3.99482 -16.80389,-8.60337 -12.63954,-16.08668 2.65873,-4.77773 9.07104,-1.07606 12.72792,1.94454 0.77148,0.63725 4.46157,0.0423 1.14905,-3.97747 -8.93669,-10.84473 -1.03834,-21.47837 9.36917,-21.47837 10.40751,0 18.30586,10.63364 9.36917,21.47836 z"
     inkscape:connector-curvature="0"
     sodipodi:nodetypes="scsssccsscssccssscscs" />
  <path
     id="path6626-1-3-7"
     style="opacity:1;fill:#009645;fill-opacity:1;stroke:#000a00;stroke-width:1;stroke-miterlimit:4;stroke-dasharray:none;stroke-dashoffset:4.57999992;stroke-opacity:1"
     d="m 38.761729,127.931 c 3.31252,4.01977 -0.37757,4.61473 -1.14905,3.97748 -3.65688,-3.0206 -10.59952,-6.72227 -13.25825,-1.94454 -4.16435,7.4833 6.72179,12.09186 13.16987,16.08668 2.9506,1.828 0.94999,3.80301 -0.70711,3.0052 -3.53873,-1.70372 -9.08493,-5.19901 -10.78338,0.61872 -1.00236,3.43338 5.93417,8.2936 14.00955,14.58407 2.16619,1.6874 0.51133,3.71559 -1.54679,3.00521 -3.24434,-1.11982 -3.56231,1.67822 -1.76777,4.24264 3.6958,5.28135 8.60808,12.23557 11.4021,18.74277 2.79402,-6.5072 7.7063,-13.46142 11.4021,-18.74277 1.79454,-2.56442 1.123017,-5.36246 -2.121323,-4.24264 -2.05812,0.71038 -3.71298,-1.31781 -1.54679,-3.0052 8.07538,-6.29048 14.835133,-11.50425 13.832773,-14.93763 -1.69845,-5.81773 -7.067873,-1.96889 -10.606603,-0.26517 -1.6571,0.79781 -3.65771,-1.1772 -0.70711,-3.0052 6.44808,-3.99482 17.157443,-8.95692 12.993093,-16.44023 -2.65873,-4.77773 -9.07104,-0.72251 -12.72792,2.29809 -0.77148,0.63725 -4.46157,0.0423 -1.14905,-3.97747 8.93669,-10.84473 1.03834,-21.83192 -9.36917,-21.83192 -10.40751,0 -18.30586,10.98719 -9.36917,21.83191 z"
     inkscape:connector-curvature="0"
     sodipodi:nodetypes="scsssccsscssccssscscs" />
  <path
     id="path6626-1-4"
     style="opacity:1;fill:#009645;fill-opacity:1;stroke:#000a00;stroke-width:1;stroke-miterlimit:4;stroke-dasharray:none;stroke-dashoffset:4.57999992;stroke-opacity:1"
     d="m 38.932576,31.025356 c 3.31252,4.019762 -0.37757,4.614725 -1.14905,3.977476 -3.65688,-3.020605 -10.06919,-6.722273 -12.72792,-1.944544 -4.16435,7.483308 6.19146,12.091867 12.63954,16.086679 2.9506,1.828002 0.94999,3.803015 -0.70711,3.005204 -3.53873,-1.703719 -8.5546,-5.19901 -10.25305,0.618718 -1.00236,3.43338 5.40384,8.293598 13.47922,14.584077 2.16619,1.687393 0.51133,3.715587 -1.54679,3.005204 -3.24434,-1.119821 -3.56231,1.678219 -1.76777,4.242641 3.6958,5.281347 8.60808,12.235566 11.4021,18.742772 2.79402,-6.507205 7.7063,-13.461424 11.4021,-18.742771 1.79454,-2.564422 1.47657,-5.362462 -1.76777,-4.242641 -2.05812,0.710383 -3.71298,-1.317811 -1.54679,-3.005204 8.07538,-6.290479 14.128027,-11.150697 13.125667,-14.584077 -1.69845,-5.817728 -6.360767,-2.322437 -9.899497,-0.618718 -1.6571,0.797811 -3.65771,-1.177202 -0.70711,-3.005204 6.44808,-3.994812 16.450337,-8.603371 12.285987,-16.086679 -2.65873,-4.777729 -8.717487,-1.076061 -12.374367,1.944544 -0.77148,0.637249 -4.46157,0.04229 -1.14905,-3.977476 8.93669,-10.844726 1.03834,-21.478367 -9.36917,-21.478368 -10.40751,0 -18.30586,10.633641 -9.36917,21.478367 z"
     inkscape:connector-curvature="0"
     sodipodi:nodetypes="scsssccsscssccssscscs" />
  <path
     id="path6624-6"
     style="opacity:1;fill:#009645;fill-opacity:1;stroke:#000a00;stroke-width:1;stroke-miterlimit:23;stroke-dasharray:none;stroke-dashoffset:4.57999992;stroke-opacity:1"
     d="m 109.06993,243.56361 v -8.44956 c 0,-14.27607 7.55121,-22.7345 18.56284,-27.57717 11.16018,-4.908 30.35668,-8.81968 34.1179,-14.31891 3.80607,-5.5648 0.59022,-39.35278 -0.73927,-54.91873 -1.99274,18.54836 -0.73626,49.51144 -6.50857,53.68129 -7.38623,5.33572 -28.78628,6.79298 -42.86835,19.62222 -1.87853,1.71141 -2.74004,0.95539 -2.74004,-0.7955 v -76.36753 c 0,-3.99204 -0.5027,-8.64883 2.74004,-12.02081 9.58543,-9.96746 20.52034,-13.17517 31.28947,-16.52862 11.3089,-3.52153 20.20529,-7.556281 20.15255,-16.263459 -0.087,-14.3635 -1.12214,-29.346949 -2.20083,-45.925328 -1.69413,16.073944 -0.47777,38.551758 -3.98636,47.693094 -2.6688,6.953324 -18.44549,10.086343 -29.17037,13.865593 -5.69102,2.00541 -11.61624,5.75225 -17.3219,9.91087 -1.58666,1.15645 -3.01406,0.68486 -3.13778,-1.94454 l -2.82902,-60.127047 -2.82902,60.127047 c -0.12372,2.62939 -1.55112,3.10099 -3.13778,1.94454 -5.70566,-4.15862 -11.63088,-7.90546 -17.3219,-9.91087 -10.72488,-3.77925 -26.50157,-6.912271 -29.17037,-13.865593 -3.50859,-9.141336 -2.29223,-31.61915 -3.98636,-47.693094 -1.07869,16.578379 -2.11383,31.561828 -2.20083,45.925328 -0.05274,8.707178 8.84365,12.741929 20.15255,16.263459 10.76913,3.35345 21.70404,6.56116 31.28947,16.52862 3.24274,3.37198 2.74004,8.02877 2.74004,12.02081 v 76.36753 c 0,1.75089 -0.86151,2.50691 -2.74004,0.7955 -14.08207,-12.82924 -35.48212,-14.2865 -42.86835,-19.62222 -5.77231,-4.16985 -4.51583,-35.13293 -6.50857,-53.68129 -1.32949,15.56595 -4.54534,49.35393 -0.73927,54.91873 3.76122,5.49923 22.95772,9.41091 34.1179,14.31891 11.01163,4.84267 18.56284,13.3011 18.56284,27.57717 v 8.44956"
     inkscape:connector-curvature="0"
     sodipodi:nodetypes="cssscscssssscsssscsssscssssscscsssc" />
  <path
     inkscape:connector-curvature="0"
     style="fill:none;fill-opacity:1;fill-rule:evenodd;stroke:#000000;stroke-width:1.99999988;stroke-linecap:butt;stroke-miterlimit:4;stroke-dashoffset:0;stroke-opacity:1"
     id="path4212-0"
     d="M 1,0.99999834 4.761095,159.00304 c 2.686489,112.85918 196.651755,112.85918 199.338255,0 l 3.7611,-158.00304166 z" />
</svg>
