<?xml version="1.0" encoding="UTF-8"?>
<svg version="1.0" viewBox="0 0 208.86 244.66" xmlns="http://www.w3.org/2000/svg" xmlns:cc="http://creativecommons.org/ns#" xmlns:dc="http://purl.org/dc/elements/1.1/" xmlns:rdf="http://www.w3.org/1999/02/22-rdf-syntax-ns#">
<metadata>
<rdf:RDF>
<cc:Work rdf:about="">
<dc:format>image/svg+xml</dc:format>
<dc:type rdf:resource="http://purl.org/dc/dcmitype/StillImage"/>
<dc:title/>
</cc:Work>
</rdf:RDF>
</metadata>
<path d="m1 1 3.7611 158c2.6865 112.86 196.65 112.86 199.34 0l3.7611-158z" fill="#1b63c6" fill-rule="evenodd" stroke="#000" stroke-width="2"/>
<g stroke="#000" stroke-dashoffset="4.58">
<path d="m127.28 44.195-9.7227 80.08 2.1213 65.407-15.248 19.445-15.248-19.445 2.1213-65.407-9.7227-80.08 22.849-30.582z" fill="#fff"/>
<path d="m154.88 82.16c3.6911 3.6408 9.0293 7.375 16 7.375 8.439 0 17.625-9.6852 17.625-25 0-13.136-13.242-24-28.875-24-37.073 0-47.875 54.944-47.875 89.25 0 33.85 5.8317 59.125 24.125 59.125 8.3587 0 15.625-6.4414 15.625-14.375 0-6.8148-4.7519-11.037-7.8125-13.062-0.55832 5.0053-3.9424 5.875-6.5 5.875-9.5963 0-12.125-21.466-12.125-37.688 0-17.166 9.4486-61.512 29.705-61.512 4.2372 0 7.3362 2.3391 7.3362 7.1595 0 5.219-4.3121 6.7461-7.2292 6.8521z" fill="#fff"/>
<path d="m154.88 82.16c11.064 4.192 17.625-3.8048 17.625-12.875 0-8.2859-6.9071-13.875-17.625-13.875-23.649 0-36.644 47.001-36.644 74.259 0 38.346 8.6714 46.892 16.019 46.929 7.7779 0.0386 13.606-6.5099 9.4375-15.125" fill="none"/>
<path d="m104.43 13.613v195.52" fill="#1b63c6"/>
<path d="m53.985 82.16c-3.6911 3.6408-9.0293 7.375-16 7.375-8.439 0-17.625-9.6852-17.625-25 0-13.136 13.242-24 28.875-24 37.073 0 47.875 54.944 47.875 89.25 0 33.85-5.8317 59.125-24.125 59.125-8.3587 0-15.625-6.4414-15.625-14.375 0-6.8148 4.7519-11.037 7.8125-13.062 0.55832 5.0053 3.9424 5.875 6.5 5.875 9.5963 0 12.125-21.466 12.125-37.688 0-17.166-9.4486-61.512-29.705-61.512-4.2372 0-7.3362 2.3392-7.3362 7.1595 0 5.219 4.3121 6.7461 7.2292 6.8521z" fill="#fff"/>
<path d="m53.985 82.16c-11.064 4.192-17.625-3.8048-17.625-12.875 0-8.2859 6.9071-13.875 17.625-13.875 23.649 0 36.644 47.001 36.644 74.259 0 38.346-8.6714 46.892-16.019 46.929-7.7779 0.0386-13.606-6.5099-9.4375-15.125" fill="none"/>
<path d="m126.57 118.49c1.4198 0 2.7601 1.3036 2.7601 2.8372v18.395c0 1.5336-1.3403 2.8372-2.7601 2.8372h-43.577c-1.4198 0-2.7601-1.3036-2.7601-2.8372v-18.395c0-1.5337 1.3403-2.8372 2.7601-2.8372h43.577z" fill="#fff"/>
</g>
<g fill="#feeb00" stroke="#000" stroke-dashoffset="4.58">
<ellipse cx="37.874" cy="99.592" rx="6.4082" ry="3.8007"/>
<ellipse cx="13.7" cy="130.53" rx="3.8449" ry="6.0765"/>
<ellipse transform="scale(1,-1)" cx="37.874" cy="-161.47" rx="6.4082" ry="3.8007"/>
<path d="m193.94 138.28c-1.9397 0-2.9179-1.4556-3.625-2.625h-139.12l-5.75-5.125 5.75-5.125h139.12c0.70709-1.1694 1.6853-2.625 3.625-2.625 3.0362 0 5 2.9015 5 7.75s-1.9638 7.75-5 7.75z"/>
<path d="m35.191 99.425c-12.205 0-22.562 9.9948-22.562 20.479 0 5.9555 2.0314 9.2746 4.1875 10.625-2.1561 1.3504-4.1875 4.6695-4.1875 10.625 0 10.484 10.357 20.479 22.562 20.479 8.473 0 20.25-5.4748 20.25-16.479 0-9.2333-2.8548-12.577-7-14.625 4.1452-2.0485 7-5.3917 7-14.625 0-11.004-11.777-16.479-20.25-16.479zm0.96875 7.2285c6.1546 0 13.094 3.7788 13.094 10.625 0 4.4225-1.5736 8.7188-6.25 8.7188-3.293 0-4.9062-2.0604-4.9062-4.0312 0-3.5452 3.103-4.3921 6.0625-3.375 0-2.6045-2.5017-4.4375-5.0938-4.4375-4.6642 0-7.125 4.4812-7.125 7.4375 0 4.1947 2.7095 7.2868 5.8125 8.9375-3.103 1.6507-5.8125 4.7428-5.8125 8.9375 0 2.9563 2.4608 7.4375 7.125 7.4375 2.592 0 5.0938-1.833 5.0938-4.4375-2.9595 1.0171-6.0625 0.1702-6.0625-3.375 0-1.9708 1.6132-4.0312 4.9062-4.0312 4.6764 0 6.25 4.2962 6.25 8.7188 0 6.8462-6.9391 10.625-13.094 10.625-6.7534 0-14.219-5.9795-14.219-13.562 0-5.93 2.4096-8.4262 5.6562-10.312-3.2467-1.8863-5.6562-4.3825-5.6562-10.312 0-7.583 7.4653-13.562 14.219-13.562z"/>
<path d="m68.147 136.61c0 0.90359 0.7241 1.4142 1.4142 1.4142 0.72716 0 1.3574-0.59248 1.3258-1.3258v-12.331c0.0316-0.73335-0.59867-1.3258-1.3258-1.3258-0.69011 0-1.4142 0.51063-1.4142 1.4142v12.154z"/>
<path d="m62.679 136.61c0 0.90359 0.7241 1.4142 1.4142 1.4142 0.72716 0 1.3574-0.59248 1.3258-1.3258v-12.331c0.0316-0.73335-0.59867-1.3258-1.3258-1.3258-0.69011 0-1.4142 0.51063-1.4142 1.4142v12.154z"/>
<path d="m169.62 144.6v3.0936h4.4194v3.2704h-4.4194v8.7504h3.0936v-5.3917h6.8059v2.2097h-3.4472v3.182h9.4576v-16.705h-10.43v-3.182h10.43v-4.1777h-37.3v4.1777h10.43v3.182h-10.43v16.705h9.4576v-3.182h-3.4471v-2.2097h6.8059v5.3917h3.0936v-8.7504h-4.4194v-3.2704h4.4194v-3.0936h5.4801z"/>
<path d="m57.21 136.61c0 0.90359 0.7241 1.4142 1.4142 1.4142 0.72716 0 1.3574-0.59248 1.3258-1.3258v-12.331c0.0316-0.73335-0.59867-1.3258-1.3258-1.3258-0.69011 0-1.4142 0.51063-1.4142 1.4142v12.154z"/>
</g>
</svg>
