<?xml version="1.0" encoding="UTF-8" standalone="no"?>
<!-- Created with Inkscape (http://www.inkscape.org/) -->

<svg
   xmlns:dc="http://purl.org/dc/elements/1.1/"
   xmlns:cc="http://creativecommons.org/ns#"
   xmlns:rdf="http://www.w3.org/1999/02/22-rdf-syntax-ns#"
   xmlns:svg="http://www.w3.org/2000/svg"
   xmlns="http://www.w3.org/2000/svg"
   xmlns:sodipodi="http://sodipodi.sourceforge.net/DTD/sodipodi-0.dtd"
   xmlns:inkscape="http://www.inkscape.org/namespaces/inkscape"
   version="1.0"
   width="208.86046"
   height="244.65999"
   id="svg2780"
   inkscape:version="0.92.4 (5da689c313, 2019-01-14)"
   sodipodi:docname="Schwellbrunn-blazon.svg">
  <metadata
     id="metadata27">
    <rdf:RDF>
      <cc:Work
         rdf:about="">
        <dc:format>image/svg+xml</dc:format>
        <dc:type
           rdf:resource="http://purl.org/dc/dcmitype/StillImage" />
        <dc:title></dc:title>
      </cc:Work>
    </rdf:RDF>
  </metadata>
  <sodipodi:namedview
     pagecolor="#ffffff"
     bordercolor="#666666"
     borderopacity="1"
     objecttolerance="10"
     gridtolerance="10"
     guidetolerance="10"
     inkscape:pageopacity="0"
     inkscape:pageshadow="2"
     inkscape:window-width="3236"
     inkscape:window-height="1417"
     id="namedview25"
     showgrid="false"
     inkscape:zoom="4.0000001"
     inkscape:cx="74.296079"
     inkscape:cy="118.71338"
     inkscape:window-x="-8"
     inkscape:window-y="-8"
     inkscape:window-maximized="1"
     inkscape:current-layer="svg2780"
     inkscape:measure-start="104.255,149.787"
     inkscape:measure-end="104.255,126.383"
     showguides="true"
     inkscape:object-paths="true"
     inkscape:snap-intersection-paths="true"
     inkscape:snap-global="false" />
  <defs
     id="defs2782">
    <inkscape:path-effect
       effect="skeletal"
       id="path-effect4938"
       is_visible="true"
       pattern="m -122.51958,-4.4258992 c -9.99318,0.088066 -16.93171,3.0761274 -26.96864,3.1645779 -10.05165,-0.00209 -18.89527,-3.2482136 -28.94723,-3.1596335 -9.99315,0.088066 -16.93169,3.0761315 -26.96861,3.1645778 -10.05164,-0.00209 -18.89528,-3.2482177 -28.74457,-3.1605196 -9.79053,0.087176 -16.72907,3.0752414 -26.76599,3.1636918 -10.05165,-0.00209 -18.89526,-3.2482177 -28.94721,-3.1596335 -9.99317,0.088066 -16.93169,3.0761274 -26.96862,3.1645779 -10.05163,-0.00209 -18.89525,-3.2482178 -28.74456,-3.1605238 -9.79054,0.08718 -16.72906,3.0752413 -26.766,3.163696 -10.05165,-0.00209 -18.89527,-3.2482136 -28.94722,-3.1596335 -9.99315,0.088066 -16.93169,3.0761315 -26.96861,3.1645778 -10.05164,-0.00209 -18.89528,-3.2482177 -28.74457,-3.1605195 -9.79053,0.087176 -16.72907,3.0752413 -26.766,3.1636918 -10.05164,-0.00209 -18.89526,-3.2482178 -28.94721,-3.1596335 -9.99317,0.088066 -16.93169,3.0761273 -26.96862,3.1645778 -10.05163,-0.00209 -18.89525,-3.2482177 -28.74456,-3.1605237 -9.79053,0.08718 -16.72905,3.0752413 -26.76599,3.1636959"
       copytype="single_stretched"
       prop_scale="1"
       scale_y_rel="false"
       spacing="0"
       normal_offset="0"
       tang_offset="0"
       prop_units="false"
       vertical_pattern="false"
       fuse_tolerance="0" />
    <inkscape:path-effect
       effect="skeletal"
       id="path-effect4916"
       is_visible="true"
       pattern="m -122.51958,-4.4258992 c -9.99318,0.088066 -16.93171,3.0761274 -26.96864,3.1645779 -10.05165,-0.00209 -18.89527,-3.2482136 -28.94723,-3.1596335 -9.99315,0.088066 -16.93169,3.0761315 -26.96861,3.1645778 -10.05164,-0.00209 -18.89528,-3.2482177 -28.74457,-3.1605196 -9.79053,0.087176 -16.72907,3.0752414 -26.76599,3.1636918 -10.05165,-0.00209 -18.89526,-3.2482177 -28.94721,-3.1596335 -9.99317,0.088066 -16.93169,3.0761274 -26.96862,3.1645779 -10.05163,-0.00209 -18.89525,-3.2482178 -28.74456,-3.1605238 -9.79054,0.08718 -16.72906,3.0752413 -26.766,3.163696 -10.05165,-0.00209 -18.89527,-3.2482136 -28.94722,-3.1596335 -9.99315,0.088066 -16.93169,3.0761315 -26.96861,3.1645778 -10.05164,-0.00209 -18.89528,-3.2482177 -28.74457,-3.1605195 -9.79053,0.087176 -16.72907,3.0752413 -26.766,3.1636918 -10.05164,-0.00209 -18.89526,-3.2482178 -28.94721,-3.1596335 -9.99317,0.088066 -16.93169,3.0761273 -26.96862,3.1645778 -10.05163,-0.00209 -18.89525,-3.2482177 -28.74456,-3.1605237 -9.79053,0.08718 -16.72905,3.0752413 -26.76599,3.1636959"
       copytype="single_stretched"
       prop_scale="1"
       scale_y_rel="false"
       spacing="0"
       normal_offset="0"
       tang_offset="0"
       prop_units="false"
       vertical_pattern="false"
       fuse_tolerance="0" />
    <inkscape:path-effect
       effect="skeletal"
       id="path-effect4894"
       is_visible="true"
       pattern="m -82.396156,40.992027 c -9.99318,0.21071 -16.93171,7.36006 -26.968644,7.57169 -10.05165,-0.005 -18.89527,-7.7718 -28.94722,-7.55986 -9.99315,0.21071 -16.93169,7.36007 -26.96861,7.57169 -10.05164,-0.005 -18.89528,-7.77181 -28.74457,-7.56198 -9.79053,0.20858 -16.72907,7.35794 -26.766,7.56957 -10.05164,-0.005 -18.89525,-7.77181 -28.9472,-7.55986 -9.99317,0.21071 -16.93169,7.36006 -26.96862,7.57169 -10.05163,-0.005 -18.89525,-7.77181 -28.74456,-7.56199 -9.79054,0.20859 -16.72906,7.35794 -26.766,7.56958 -10.05165,-0.005 -18.89527,-7.7718 -28.94722,-7.55986 -9.99315,0.21071 -16.93169,7.36007 -26.96861,7.57169 -10.05164,-0.005 -18.89528,-7.77181 -28.74457,-7.56198 -9.79053,0.20858 -16.72907,7.35794 -26.766,7.56957 -10.05164,-0.005 -18.89526,-7.77181 -28.94721,-7.55986 -9.99317,0.21071 -16.93169,7.36006 -26.96862,7.57169 -10.05163,-0.005 -18.89525,-7.77181 -28.74456,-7.56199 -9.79053,0.20859 -16.72905,7.35794 -26.76599,7.56958"
       copytype="single_stretched"
       prop_scale="1"
       scale_y_rel="false"
       spacing="0"
       normal_offset="0"
       tang_offset="0"
       prop_units="false"
       vertical_pattern="false"
       fuse_tolerance="0" />
    <inkscape:path-effect
       effect="skeletal"
       id="path-effect4882"
       is_visible="true"
       pattern="m -82.396156,40.992027 c -9.99318,0.21071 -16.93171,7.36006 -26.968644,7.57169 -10.05165,-0.005 -18.89527,-7.7718 -28.94722,-7.55986 -9.99315,0.21071 -16.93169,7.36007 -26.96861,7.57169 -10.05164,-0.005 -18.89528,-7.77181 -28.74457,-7.56198 -9.79053,0.20858 -16.72907,7.35794 -26.766,7.56957 -10.05164,-0.005 -18.89525,-7.77181 -28.9472,-7.55986 -9.99317,0.21071 -16.93169,7.36006 -26.96862,7.57169 -10.05163,-0.005 -18.89525,-7.77181 -28.74456,-7.56199 -9.79054,0.20859 -16.72906,7.35794 -26.766,7.56958 -10.05165,-0.005 -18.89527,-7.7718 -28.94722,-7.55986 -9.99315,0.21071 -16.93169,7.36007 -26.96861,7.57169 -10.05164,-0.005 -18.89528,-7.77181 -28.74457,-7.56198 -9.79053,0.20858 -16.72907,7.35794 -26.766,7.56957 -10.05164,-0.005 -18.89526,-7.77181 -28.94721,-7.55986 -9.99317,0.21071 -16.93169,7.36006 -26.96862,7.57169 -10.05163,-0.005 -18.89525,-7.77181 -28.74456,-7.56199 -9.79053,0.20859 -16.72905,7.35794 -26.76599,7.56958"
       copytype="single_stretched"
       prop_scale="1"
       scale_y_rel="false"
       spacing="0"
       normal_offset="0"
       tang_offset="0"
       prop_units="false"
       vertical_pattern="false"
       fuse_tolerance="0" />
    <inkscape:path-effect
       effect="skeletal"
       id="path-effect4870"
       is_visible="true"
       pattern="m -82.396156,40.992027 c -9.99318,0.21071 -16.93171,7.36006 -26.968644,7.57169 -10.05165,-0.005 -18.89527,-7.7718 -28.94722,-7.55986 -9.99315,0.21071 -16.93169,7.36007 -26.96861,7.57169 -10.05164,-0.005 -18.89528,-7.77181 -28.74457,-7.56198 -9.79053,0.20858 -16.72907,7.35794 -26.766,7.56957 -10.05164,-0.005 -18.89525,-7.77181 -28.9472,-7.55986 -9.99317,0.21071 -16.93169,7.36006 -26.96862,7.57169 -10.05163,-0.005 -18.89525,-7.77181 -28.74456,-7.56199 -9.79054,0.20859 -16.72906,7.35794 -26.766,7.56958 -10.05165,-0.005 -18.89527,-7.7718 -28.94722,-7.55986 -9.99315,0.21071 -16.93169,7.36007 -26.96861,7.57169 -10.05164,-0.005 -18.89528,-7.77181 -28.74457,-7.56198 -9.79053,0.20858 -16.72907,7.35794 -26.766,7.56957 -10.05164,-0.005 -18.89526,-7.77181 -28.94721,-7.55986 -9.99317,0.21071 -16.93169,7.36006 -26.96862,7.57169 -10.05163,-0.005 -18.89525,-7.77181 -28.74456,-7.56199 -9.79053,0.20859 -16.72905,7.35794 -26.76599,7.56958"
       copytype="single_stretched"
       prop_scale="1"
       scale_y_rel="false"
       spacing="0"
       normal_offset="0"
       tang_offset="0"
       prop_units="false"
       vertical_pattern="false"
       fuse_tolerance="0" />
    <inkscape:path-effect
       effect="perspective-envelope"
       up_left_point="-555.07036,40.99203"
       up_right_point="-82.396157,40.99203"
       down_left_point="-555.07036,48.6414"
       down_right_point="-82.396157,48.6414"
       id="path-effect4858"
       is_visible="true"
       deform_type="envelope_deformation"
       horizontal_mirror="false"
       vertical_mirror="false"
       overflow_perspective="false" />
    <inkscape:path-effect
       effect="bend_path"
       id="path-effect4838"
       is_visible="true"
       bendpath="m -788.29487,-345.8483 c 63.51044,16.78584 113.26627,109.25706 119.50105,395.047151"
       prop_scale="1"
       scale_y_rel="false"
       vertical="false" />
    <inkscape:path-effect
       effect="bend_path"
       id="path-effect4798"
       is_visible="true"
       bendpath="m -788.29487,-144.54684 c 63.51044,7.01562 112.55916,45.663842 119.50105,165.109435"
       prop_scale="1"
       scale_y_rel="false"
       vertical="false" />
    <inkscape:path-effect
       effect="bend_path"
       id="path-effect1071"
       is_visible="true"
       bendpath="m -723.37022,-137.53122 c 48.08326,-33.58757 47.72971,-33.58757 47.72971,-33.58757"
       prop_scale="1"
       scale_y_rel="false"
       vertical="false" />
    <inkscape:path-effect
       effect="perspective-envelope"
       up_left_point="-555.07036,40.99203"
       up_right_point="-82.396157,40.99203"
       down_left_point="-555.07036,48.6414"
       down_right_point="-82.396157,48.6414"
       id="path-effect1046"
       is_visible="true"
       deform_type="perspective"
       horizontal_mirror="false"
       vertical_mirror="false"
       overflow_perspective="false" />
    <inkscape:path-effect
       effect="bend_path"
       id="path-effect1044"
       is_visible="true"
       bendpath="M 16.617009,26.163999 C 70.749998,26.159994 142.7361,126.38687 136.11805,191.27343"
       prop_scale="1"
       scale_y_rel="false"
       vertical="false" />
    <inkscape:path-effect
       effect="perspective-envelope"
       up_left_point="-555.07036,40.99203"
       up_right_point="-82.396157,40.99203"
       down_left_point="-555.07036,48.6414"
       down_right_point="-82.396157,48.6414"
       id="path-effect1046-2"
       is_visible="true"
       deform_type="perspective"
       horizontal_mirror="false"
       vertical_mirror="false"
       overflow_perspective="false" />
    <inkscape:path-effect
       effect="perspective-envelope"
       up_left_point="-555.07036,40.99203"
       up_right_point="-82.396157,40.99203"
       down_left_point="-555.07036,48.6414"
       down_right_point="-82.396157,48.6414"
       id="path-effect1046-7"
       is_visible="true"
       deform_type="perspective"
       horizontal_mirror="false"
       vertical_mirror="false"
       overflow_perspective="false" />
    <inkscape:path-effect
       effect="perspective-envelope"
       up_left_point="-555.07036,40.99203"
       up_right_point="-82.396157,40.99203"
       down_left_point="-555.07036,48.6414"
       down_right_point="-82.396157,48.6414"
       id="path-effect1046-7-2"
       is_visible="true"
       deform_type="perspective"
       horizontal_mirror="false"
       vertical_mirror="false"
       overflow_perspective="false" />
    <inkscape:path-effect
       effect="perspective-envelope"
       up_left_point="-555.07036,40.99203"
       up_right_point="-82.396157,40.99203"
       down_left_point="-555.07036,48.6414"
       down_right_point="-82.396157,48.6414"
       id="path-effect1046-6"
       is_visible="true"
       deform_type="perspective"
       horizontal_mirror="false"
       vertical_mirror="false"
       overflow_perspective="false" />
    <inkscape:path-effect
       effect="perspective-envelope"
       up_left_point="-555.07036,40.99203"
       up_right_point="-82.396157,40.99203"
       down_left_point="-555.07036,48.6414"
       down_right_point="-82.396157,48.6414"
       id="path-effect1046-68"
       is_visible="true"
       deform_type="perspective"
       horizontal_mirror="false"
       vertical_mirror="false"
       overflow_perspective="false" />
    <inkscape:path-effect
       effect="perspective-envelope"
       up_left_point="-555.07036,40.99203"
       up_right_point="-82.396157,40.99203"
       down_left_point="-555.07036,48.6414"
       down_right_point="-82.396157,48.6414"
       id="path-effect1046-9"
       is_visible="true"
       deform_type="perspective"
       horizontal_mirror="false"
       vertical_mirror="false"
       overflow_perspective="false" />
    <inkscape:path-effect
       effect="perspective-envelope"
       up_left_point="-555.07036,40.99203"
       up_right_point="-82.396157,40.99203"
       down_left_point="-555.07036,48.6414"
       down_right_point="-82.396157,48.6414"
       id="path-effect1046-72"
       is_visible="true"
       deform_type="perspective"
       horizontal_mirror="false"
       vertical_mirror="false"
       overflow_perspective="false" />
    <inkscape:path-effect
       effect="perspective-envelope"
       up_left_point="-555.07036,40.99203"
       up_right_point="-82.396157,40.99203"
       down_left_point="-555.07036,48.6414"
       down_right_point="-82.396157,48.6414"
       id="path-effect1046-7-4"
       is_visible="true"
       deform_type="perspective"
       horizontal_mirror="false"
       vertical_mirror="false"
       overflow_perspective="false" />
    <inkscape:path-effect
       effect="perspective-envelope"
       up_left_point="-555.07036,40.99203"
       up_right_point="-82.396157,40.99203"
       down_left_point="-555.07036,48.6414"
       down_right_point="-82.396157,48.6414"
       id="path-effect1046-7-47"
       is_visible="true"
       deform_type="perspective"
       horizontal_mirror="false"
       vertical_mirror="false"
       overflow_perspective="false" />
  </defs>
  <path
     inkscape:connector-curvature="0"
     style="fill:#1b63c6;fill-opacity:1;fill-rule:evenodd;stroke:#000000;stroke-width:1.99999988;stroke-linecap:butt;stroke-miterlimit:4;stroke-dashoffset:0;stroke-opacity:1"
     id="path4212"
     d="m 1,1 3.761095,158.00304 c 2.686489,112.85918 196.651755,112.85918 199.338255,0 L 207.86045,1 Z" />
  <g
     id="g5226">
    <path
       sodipodi:nodetypes="csccccscssscssscssscsssssccsssscscsccscscssccsccccscccc"
       inkscape:connector-curvature="0"
       d="m 14.368465,25.69362 c 2.262408,0.21729 4.858298,1.861053 7.110637,2.165483 2.435809,0.32923 4.937966,-1.0811 7.349118,-0.60371 2.207339,0.43704 3.825026,2.53569 6.009719,3.07464 2.494579,0.61539 5.262806,-0.7067 7.70764,0.0835 2.26847,0.7332 3.61652,3.27353 5.844096,4.12291 2.578291,0.983099 4.43338,0.05649 6.89837,1.296612 2.06427,1.03852 2.73111,3.91601 4.73919,5.05941 2.53547,1.44369 6.12657,0.25739 8.54747,1.88592 2.28391,1.53638 3.283645,4.170838 5.482845,5.826208 2.39285,1.80113 4.702051,1.552636 6.840011,3.649996 1.7563,1.72295 1.603812,4.598922 3.515261,6.318416 2.396799,2.156093 3.921242,1.378914 6.220439,3.606509 2.357009,2.283605 -0.243,7.226651 1.672798,9.742971 1.90494,2.5021 4.775605,3.610962 6.492485,6.245652 1.800046,2.76232 0.448315,6.733243 2.003786,9.640323 1.73282,3.23853 5.33801,3.305267 6.93114,6.614757 1.63963,3.40609 -0.25709,7.815233 0.39078,11.371973 0.75031,4.11918 3.95527,6.88794 4.73177,10.88092 0.81852,4.20905 -2.82875,9.32247 -1.64411,13.48898 1.1757,4.1351 6.18837,6.55896 7.1148,10.75694 0.85669,3.88196 -2.38075,7.86231 -1.78162,11.79227 0.74475,4.88516 5.75925,8.44418 6.48192,13.33265 0.70116,4.74298 -2.66246,8.0265 -2.10038,12.78796 0.5393,4.5685 3.14811,9.21963 3.53,13.80398 0.39189,4.70441 -1.78586,9.02855 -1.52069,14.21783 l 29.58174,-7.29289 c -0.2823,-5.18928 0.93173,-4.55448 0.51453,-9.25889 -0.40655,-4.58435 -4.56577,-12.04982 -5.1399,-16.61832 -0.59838,-4.76146 3.17066,-9.45919 2.42422,-14.20217 -0.76934,-4.88847 -6.10768,-9.88499 -6.90053,-14.77015 -0.63782,-3.92996 2.8087,-7.91031 1.89668,-11.79227 -0.98626,-4.19798 -6.32265,-6.62184 -7.57428,-10.75694 -1.26114,-4.16651 1.95631,-8.90493 0.41957,-12.98898 -1.44314,-3.83526 -6.88654,-5.46856 -8.46657,-9.25592 -1.46832,-3.51959 1.29721,-7.926669 -0.44831,-11.332759 -1.69601,-3.30949 -10.04626,-4.57445 -11.89099,-7.81298 -1.65592,-2.90708 -0.74502,-6.42978 -2.66132,-9.1921 -1.82776,-2.63469 -5.47065,-3.08378 -7.49861,-5.58588 -2.03949,-2.51632 -0.49708,-6.74147 -2.68282,-9.147 -2.13213,-2.34653 -6.74721,-1.55811 -8.969847,-3.82932 -1.772559,-1.8113 -1.519,-5.47935 -3.388723,-7.2023 -2.27603,-2.09736 -6.897195,-1.42837 -9.444576,-3.2295 -2.341225,-1.65537 -1.433655,-4.6371 -3.865056,-6.17348 -2.577243,-1.62853 -6.400258,-0.44223 -9.09947,-1.88592 -2.137763,-1.1434 -4.347668,-4.52089 -6.545249,-5.55941 -2.62418,-1.240119 -6.01052,0.04004 -8.755318,-0.943059 -2.371434,-0.84938 -3.278814,-3.066486 -5.693782,-3.799686 -2.602723,-0.7902 -8.659559,-0.364557 -11.315239,-0.979947 -2.325781,-0.53895 -4.047939,-2.6376 -6.397829,-3.07464 -2.566866,-0.47739 -5.230613,0.93294 -7.823728,0.60371 -2.397796,-0.30443 -4.408558,-2.12497 -6.817073,-2.34226 -2.741556,-0.24734 -8.1580847,1.23007 -8.1580847,1.23007 l -0.8229955,7.083184 c 0,0 4.3808402,-1.300633 6.9560852,-1.053293 z"
       style="opacity:1;fill:#ffffff;fill-opacity:1;stroke:#000000;stroke-width:1;stroke-miterlimit:4;stroke-dasharray:none;stroke-dashoffset:4.57999992;stroke-opacity:1"
       id="path5158-4-3" />
    <path
       sodipodi:nodetypes="cssssssssssssc"
       inkscape:connector-curvature="0"
       id="path5158-4"
       d="m 93.824239,62.835883 c 1.376611,2.403847 9.22e-4,6.25104 1.985237,8.7656 1.973098,2.500349 5.374564,2.022872 7.152874,4.655719 1.86446,2.760387 -0.3596,6.905184 1.25152,9.81023 1.79483,3.236264 5.58611,4.147223 7.23624,7.454397 1.6983,3.403706 -0.99242,7.182701 0.43618,10.699821 1.53729,3.78471 4.53533,7.18464 5.93943,11.01722 1.49516,4.08119 -2.87268,8.81629 -1.64566,12.97989 1.21777,4.1322 6.40979,6.55437 7.36937,10.74941 0.88734,3.87924 -2.46593,7.85681 -1.84537,11.78402 0.7714,4.88174 5.96532,8.43827 6.71384,13.32332 0.72625,4.73966 -2.94082,9.4341 -2.35863,14.19223 0.55859,4.5653 3.09177,4.84076 3.48732,9.4219 0.40591,4.70112 -1.49767,11.98143 -1.22301,17.16708"
       style="opacity:1;fill:none;fill-opacity:1;stroke:#000000;stroke-width:1;stroke-miterlimit:4;stroke-dasharray:none;stroke-dashoffset:4.57999992;stroke-opacity:1" />
    <path
       sodipodi:nodetypes="csssssssssssssssssssssssssc"
       inkscape:connector-curvature="0"
       id="path5158-4-4"
       d="m 7.1923828,24.340505 c 0,0 5.2786582,-1.47741 7.9504302,-1.23007 2.347209,0.21729 4.30679,2.03783 6.643553,2.34226 2.527109,0.32923 5.123054,-1.0811 7.624584,-0.60371 2.290076,0.43704 3.968398,2.53569 6.23498,3.07464 2.588083,0.61539 6.520731,-0.441535 9.057204,0.348665 2.353498,0.7332 3.752077,3.27353 6.063149,4.12291 2.674933,0.983099 5.798299,-0.120283 8.355685,1.119836 2.141644,1.03852 2.833479,3.91601 4.916827,5.05941 2.630507,1.44369 4.500057,-0.184552 7.011699,1.443978 2.369518,1.53638 2.581413,5.14311 4.863046,6.79848 2.48254,1.80113 6.620623,0.75714 8.83872,2.8545 1.822131,1.72295 0.844116,5.141 2.571557,6.9523 2.166062,2.27121 6.663664,1.48279 8.741524,3.82932 2.130108,2.40553 0.626951,6.63068 2.61453,9.147 1.976339,2.5021 6.122879,2.45119 7.904109,5.08588 1.86752,2.76232 -1.11019,6.03502 0.504,8.9421 1.79777,3.23853 6.01183,5.87849 7.66468,9.18798 1.7011,3.40609 -0.99405,7.813166 0.4369,11.332756 1.53981,3.78736 5.46966,5.54566 6.87605,9.38092 1.49763,4.08405 -1.63792,8.82247 -0.40888,12.98898 1.21978,4.1351 6.42033,6.55896 7.38149,10.75694 0.8888,3.88196 -2.46999,7.86231 -1.8484,11.79227 0.77266,4.88516 5.97512,8.44418 6.72488,13.33265 0.72744,4.74298 -2.94567,9.44071 -2.36252,14.20217 0.55952,4.5685 4.03764,6.97147 4.43385,11.55582 0.40657,4.70441 -2.44092,9.8625 -2.16582,15.05178"
       style="opacity:1;fill:none;fill-opacity:1;stroke:#000000;stroke-width:1;stroke-miterlimit:4;stroke-dasharray:none;stroke-dashoffset:4.57999992;stroke-opacity:1" />
    <path
       sodipodi:nodetypes="csssssssssc"
       inkscape:connector-curvature="0"
       id="path5158-4-2"
       d="m 109.52415,81.156811 c 1.20249,5.801792 8.61467,7.414024 10.2078,10.723514 1.63963,3.40609 -0.95814,7.813172 0.42111,11.332765 1.48418,3.78736 6.59737,5.42066 7.95296,9.25592 1.44352,4.08405 -1.57875,8.82247 -0.39411,12.98898 1.1757,4.1351 6.18837,6.55896 7.1148,10.75694 0.85669,3.88196 -2.38075,7.86231 -1.78162,11.79227 0.74475,4.88516 5.75925,8.44418 6.48192,13.33265 0.70116,4.74298 -2.83924,9.44071 -2.27716,14.20217 0.5393,4.5685 4.91588,8.15897 5.29777,12.74332 0.39189,4.70441 -3.37685,8.675 -3.11168,13.86428"
       style="opacity:1;fill:none;fill-opacity:1;stroke:#000000;stroke-width:1;stroke-miterlimit:4;stroke-dasharray:none;stroke-dashoffset:4.57999992;stroke-opacity:1" />
    <path
       sodipodi:nodetypes="csssssssssssssssssssssssssc"
       inkscape:connector-curvature="0"
       id="path5158-4-26"
       d="m 7.4461171,21.861952 c 0,0 5.2939239,-1.47741 7.9734239,-1.23007 2.353998,0.21729 4.319245,2.03783 6.662766,2.34226 2.534418,0.32923 5.137871,-1.0811 7.646634,-0.60371 2.2967,0.43704 3.979876,2.53569 6.253013,3.07464 2.595567,0.61539 8.100861,-0.0817 10.64467,0.7085 2.360305,0.7332 3.762929,3.27353 6.080685,4.12291 2.682668,0.983099 5.992356,-0.29706 8.557137,0.943059 2.147839,1.03852 2.841674,3.91601 4.931048,5.05941 2.638114,1.44369 6.374594,0.25739 8.8935,1.88592 2.37637,1.53638 2.588879,5.14311 4.877109,6.79848 2.489721,1.80113 6.639767,0.75714 8.864278,2.8545 1.827401,1.72295 0.846558,5.141 2.578994,6.9523 2.172332,2.27121 6.682945,1.48279 8.766815,3.82932 2.13626,2.40553 0.62876,6.63068 2.62209,9.147 1.98205,2.5021 6.01703,2.82619 7.80341,5.46088 1.87292,2.76232 0.26377,6.28502 1.88221,9.1921 1.80297,3.23853 10.15711,4.87849 11.81474,8.18798 1.70601,3.40609 -0.99693,7.813169 0.43816,11.332759 1.54426,3.78736 6.86445,5.42066 8.27492,9.25592 1.50196,4.08405 -1.64266,8.82247 -0.41007,12.98898 1.2233,4.1351 6.4389,6.55896 7.40283,10.75694 0.89138,3.88196 -2.47713,7.86231 -1.85374,11.79227 0.7749,4.88516 5.9924,8.44418 6.74433,13.33265 0.72954,4.74298 -2.95418,9.44071 -2.36935,14.20217 0.56113,4.5685 4.92739,10.97147 5.32474,15.55582 0.40776,4.70441 -3.32605,5.8625 -3.05015,11.05178"
       style="opacity:1;fill:none;fill-opacity:1;stroke:#000000;stroke-width:1;stroke-miterlimit:4;stroke-dasharray:none;stroke-dashoffset:4.57999992;stroke-opacity:1" />
  </g>
  <path
     id="path918-48"
     style="opacity:1;fill:#009645;fill-opacity:1;stroke:#000000;stroke-width:0.99999803;stroke-miterlimit:4;stroke-dasharray:none;stroke-dashoffset:4.57999992;stroke-opacity:1"
     d="M 0.99534243,1 C 21.844404,-4.6174807 24.911195,40.867528 26.585966,64.992628 c 20.849062,-5.617481 23.915853,39.867532 25.590361,63.988852 20.8488,-5.62126 23.915591,39.86375 25.590362,63.98885 l -63.548463,3.65131 C 10.650594,189.39705 7.4236051,181.6269 5.848224,171.21164 3.0742609,155.69834 2.6129696,57.737213 0.99534243,1 Z"
     inkscape:connector-curvature="0"
     sodipodi:nodetypes="ccccccc" />
  <g
     id="g5236">
    <path
       sodipodi:nodetypes="cscccsccccc"
       inkscape:connector-curvature="0"
       d="m 198.34765,188.43403 c -3.71679,-1.42207 -7.47367,-2.56649 -11.41645,-2.48336 -9.99315,0.2107 -16.93169,7.36007 -26.96861,7.57169 -10.05164,-0.005 -18.89528,-7.77181 -28.74457,-7.56198 -9.79053,0.20858 -16.72907,7.35794 -26.766,7.56957 -10.051637,-0.005 -18.895252,-7.77181 -28.947203,-7.55986 -9.993169,0.21071 -16.931694,7.36006 -26.968619,7.57169 -10.05163,-0.005 -18.895256,-7.77181 -28.744564,-7.56199 -3.376958,0.0719 -6.414612,0.96964 -9.357139,2.12357 16.084001,43.22129 64.943074,55.54406 93.995745,55.54406 39.40501,0 77.85059,-17.19416 93.91741,-55.21339 z"
       style="fill:#ffffff;fill-opacity:1;fill-rule:evenodd;stroke:#000000;stroke-width:0.99999982px;stroke-linecap:butt;stroke-linejoin:miter;stroke-opacity:1"
       id="path10251-9-4-2" />
    <path
       sodipodi:nodetypes="cscccsccc"
       inkscape:connector-curvature="0"
       d="m 192.77249,200.63949 c -1.91229,-0.46054 -3.85316,-0.73074 -5.84129,-0.68882 -9.99315,0.2107 -16.93169,7.36007 -26.96861,7.57169 -10.05164,-0.005 -18.89528,-7.77181 -28.74457,-7.56198 -9.79053,0.20858 -16.72907,7.35794 -26.766,7.56957 -10.051634,-0.005 -18.895254,-7.77181 -28.947204,-7.55986 -9.99317,0.21071 -16.93169,7.36006 -26.96862,7.57169 -10.05163,-0.005 -18.89525,-7.77181 -28.744562,-7.56199 -1.345528,0.0287 -2.637189,0.18843 -3.890429,0.44326"
       style="fill:none;fill-opacity:0.61860465;fill-rule:evenodd;stroke:#000000;stroke-width:0.99999982px;stroke-linecap:butt;stroke-linejoin:miter;stroke-opacity:1"
       id="path10251-9-4-2-6" />
    <path
       sodipodi:nodetypes="ccccscc"
       inkscape:connector-curvature="0"
       d="m 181.15861,214.82424 c -7.17253,1.95937 -13.20139,6.52956 -21.19602,6.69812 -10.05164,-0.005 -18.89528,-7.77181 -28.74457,-7.56198 -9.79053,0.20858 -16.72907,7.35794 -26.766,7.56957 -10.051637,-0.005 -18.895253,-7.77181 -28.947203,-7.55986 -9.99317,0.21071 -16.93169,7.36006 -26.96862,7.57169 -7.128246,-0.004 -13.648969,-3.9106 -20.351679,-6.1081"
       style="fill:none;fill-opacity:0.61860465;fill-rule:evenodd;stroke:#000000;stroke-width:0.99999982px;stroke-linecap:butt;stroke-linejoin:miter;stroke-opacity:1"
       id="path10251-9-4-2-6-5" />
    <path
       sodipodi:nodetypes="cccsc"
       inkscape:connector-curvature="0"
       d="m 152.37944,234.23683 c -7.1028,-2.19873 -13.85544,-6.4321 -21.16142,-6.27645 -9.79053,0.20858 -16.72907,7.35794 -26.766,7.56957 -10.051637,-0.005 -18.895253,-7.77181 -28.947203,-7.55986 -7.311046,0.15416 -12.987106,4.02218 -19.437642,6.17027"
       style="fill:none;fill-opacity:0.61860465;fill-rule:evenodd;stroke:#000000;stroke-width:0.99999982px;stroke-linecap:butt;stroke-linejoin:miter;stroke-opacity:1"
       id="path10251-9-4-2-6-8" />
  </g>
  <path
     inkscape:connector-curvature="0"
     style="fill:none;fill-opacity:1;fill-rule:evenodd;stroke:#000000;stroke-width:1.99999988;stroke-linecap:butt;stroke-miterlimit:4;stroke-dashoffset:0;stroke-opacity:1"
     id="path4212-4"
     d="M 1,0.99999834 4.761095,159.00304 c 2.686489,112.85918 196.651755,112.85918 199.338255,0 l 3.7611,-158.00304166 z" />
</svg>
