<?xml version="1.0" standalone="no"?>
<!DOCTYPE svg PUBLIC "-//W3C//DTD SVG 1.1//EN"
 "http://www.w3.org/Graphics/SVG/1.1/DTD/svg11.dtd">
<!-- Created with svg_stack (http://github.com/astraw/svg_stack) -->
<svg xmlns="http://www.w3.org/2000/svg" xmlns:sodipodi="http://sodipodi.sourceforge.net/DTD/sodipodi-0.dtd" version="1.1" width="216.0" height="250.0">
  <defs/>
  <g id="id0:id0" transform="matrix(1.25,0,0,1.25,0.0,0.0)"><g transform="translate(0.000000,200.000000) scale(0.040000,-0.040000)" fill="#fdfdfd" stroke="none">
<path d="M0 2500 l0 -2500 2160 0 2160 0 0 2500 0 2500 -2160 0 -2160 0 0 -2500z m4288 853 c1 -1087 -1 -1633 -8 -1633 -6 0 -10 -27 -10 -60 0 -33 -4 -60 -10 -60 -5 0 -10 -18 -10 -40 0 -22 -4 -40 -10 -40 -5 0 -10 -13 -10 -30 0 -16 -4 -30 -10 -30 -5 0 -10 -18 -10 -40 0 -22 -4 -40 -10 -40 -5 0 -10 -9 -10 -20 0 -11 -4 -20 -10 -20 -5 0 -10 -13 -10 -30 0 -16 -4 -30 -10 -30 -5 0 -10 -9 -10 -20 0 -11 -4 -20 -10 -20 -5 0 -10 -9 -10 -20 0 -11 -4 -20 -10 -20 -5 0 -10 -9 -10 -20 0 -11 -4 -20 -10 -20 -5 0 -10 -8 -10 -18 0 -9 -9 -23 -20 -30 -11 -7 -20 -21 -20 -32 0 -11 -4 -20 -10 -20 -5 0 -10 -8 -10 -18 0 -9 -9 -23 -20 -30 -11 -7 -20 -21 -20 -32 0 -11 -4 -20 -10 -20 -5 0 -10 -8 -10 -18 0 -9 -9 -23 -20 -30 -11 -7 -20 -19 -20 -26 0 -8 -27 -40 -60 -72 -33 -31 -60 -62 -60 -69 0 -15 -221 -235 -236 -235 -7 0 -24 -13 -37 -30 -14 -16 -32 -30 -40 -30 -9 0 -27 -13 -40 -30 -14 -16 -32 -30 -40 -30 -9 0 -27 -13 -40 -30 -14 -16 -33 -30 -41 -30 -9 0 -16 -4 -16 -10 0 -5 -9 -10 -20 -10 -11 0 -20 -4 -20 -10 0 -5 -9 -10 -20 -10 -11 0 -20 -4 -20 -10 0 -5 -9 -10 -20 -10 -11 0 -20 -4 -20 -10 0 -5 -9 -10 -20 -10 -11 0 -20 -4 -20 -10 0 -5 -9 -10 -20 -10 -11 0 -20 -4 -20 -10 0 -5 -9 -10 -20 -10 -11 0 -20 -4 -20 -10 0 -5 -9 -10 -20 -10 -11 0 -20 -4 -20 -10 0 -5 -9 -10 -20 -10 -11 0 -20 -4 -20 -10 0 -5 -13 -10 -30 -10 -16 0 -30 -4 -30 -10 0 -5 -18 -10 -40 -10 -22 0 -40 -4 -40 -10 0 -5 -13 -10 -30 -10 -16 0 -30 -4 -30 -10 0 -5 -18 -10 -40 -10 -22 0 -40 -4 -40 -10 0 -5 -13 -10 -30 -10 -16 0 -30 -4 -30 -10 0 -5 -18 -10 -40 -10 -22 0 -40 -4 -40 -10 0 -6 -30 -10 -70 -10 -40 0 -70 -4 -70 -10 0 -6 -103 -10 -290 -10 -187 0 -290 4 -290 10 0 6 -30 10 -70 10 -40 0 -70 4 -70 10 0 6 -18 10 -40 10 -22 0 -40 5 -40 10 0 6 -13 10 -30 10 -16 0 -30 5 -30 10 0 6 -18 10 -40 10 -22 0 -40 5 -40 10 0 6 -13 10 -30 10 -16 0 -30 5 -30 10 0 6 -18 10 -40 10 -22 0 -40 5 -40 10 0 6 -13 10 -30 10 -16 0 -30 5 -30 10 0 6 -9 10 -20 10 -11 0 -20 5 -20 10 0 6 -9 10 -20 10 -11 0 -20 5 -20 10 0 6 -9 10 -20 10 -11 0 -20 5 -20 10 0 6 -9 10 -20 10 -11 0 -20 5 -20 10 0 6 -9 10 -20 10 -11 0 -20 5 -20 10 0 6 -9 10 -20 10 -11 0 -20 5 -20 10 0 6 -9 10 -20 10 -11 0 -20 5 -20 10 0 6 -9 10 -20 10 -11 0 -20 5 -20 10 0 6 -7 10 -16 10 -8 0 -27 14 -41 30 -13 17 -31 30 -40 30 -8 0 -26 14 -40 30 -13 17 -31 30 -40 30 -8 0 -26 13 -40 30 -13 16 -30 30 -37 30 -15 0 -236 220 -236 235 0 7 -27 38 -60 69 -33 32 -60 64 -60 72 0 7 -9 19 -20 26 -11 7 -20 21 -20 30 0 10 -4 18 -10 18 -5 0 -10 9 -10 20 0 11 -9 25 -20 32 -11 7 -20 21 -20 30 0 10 -4 18 -10 18 -5 0 -10 9 -10 20 0 11 -9 25 -20 32 -11 7 -20 21 -20 30 0 10 -4 18 -10 18 -5 0 -10 9 -10 20 0 11 -4 20 -10 20 -5 0 -10 9 -10 20 0 11 -4 20 -10 20 -5 0 -10 9 -10 20 0 11 -4 20 -10 20 -5 0 -10 14 -10 30 0 17 -4 30 -10 30 -5 0 -10 9 -10 20 0 11 -4 20 -10 20 -5 0 -10 18 -10 40 0 22 -4 40 -10 40 -5 0 -10 14 -10 30 0 17 -4 30 -10 30 -5 0 -10 18 -10 40 0 22 -4 40 -10 40 -6 0 -10 27 -10 60 0 33 -4 60 -10 60 -11 0 -15 3252 -3 3263 3 4 965 6 2137 5 l2131 -3 3 -1632z"/>
<path d="M2517 3210 c-10 -16 -27 -35 -38 -40 -10 -6 -19 -19 -19 -29 0 -10 -7 -24 -15 -31 -8 -7 -15 -20 -15 -30 0 -10 -25 -52 -55 -95 -30 -42 -55 -82 -55 -88 0 -7 -16 -27 -35 -46 -19 -18 -35 -40 -35 -49 0 -10 -11 -34 -25 -54 l-25 -37 2 -688 3 -688 39 -3 c21 -2 42 0 47 5 4 4 9 103 10 218 2 225 7 252 61 328 13 18 31 48 42 67 10 19 25 39 32 43 8 4 14 22 14 40 0 55 10 61 101 58 45 -1 86 -4 90 -7 5 -3 9 -20 9 -38 0 -27 7 -37 45 -64 25 -18 48 -40 52 -50 3 -9 14 -28 23 -42 10 -14 21 -41 25 -60 6 -30 12 -221 14 -437 l1 -63 55 0 55 0 0 403 c0 221 3 533 7 692 l6 290 -54 65 c-30 36 -64 73 -76 83 -12 9 -25 31 -28 49 -7 29 -123 182 -152 201 -7 4 -13 15 -13 23 0 17 -57 104 -68 104 -4 0 -16 -13 -25 -30z m91 -182 c7 -7 12 -42 12 -89 0 -86 -2 -89 -75 -89 -73 0 -75 3 -75 89 0 47 5 82 12 89 16 16 110 16 126 0z m-184 -464 c8 -20 8 -172 0 -201 -6 -22 -12 -23 -94 -23 -71 0 -89 3 -94 16 -8 21 -8 209 1 217 3 4 46 7 94 7 70 0 88 -3 93 -16z m441 -104 l0 -115 -77 -3 c-95 -3 -100 3 -97 121 2 125 -3 118 92 115 l82 -3 0 -115z"/>
<path d="M1656 2895 c5 -13 -33 -15 -310 -15 l-316 0 2 -772 3 -773 313 -3 312 -2 -2 687 -3 688 -27 3 c-37 4 -35 20 12 89 30 45 38 64 33 86 -3 15 -9 27 -14 27 -5 0 -6 -7 -3 -15z m-215 -167 c4 -64 0 -238 -5 -247 -10 -15 -168 -15 -184 1 -13 13 -18 239 -5 251 3 4 48 7 100 7 67 0 93 -3 94 -12z m-36 -820 c6 -26 9 -145 6 -240 l-1 -28 -84 0 -85 0 -6 53 c-6 44 -5 85 5 230 1 15 12 17 80 17 l78 0 7 -32z"/>
<path d="M1710 2015 l0 -685 220 0 220 0 0 685 0 685 -220 0 -220 0 0 -685z m290 560 c13 -8 13 -195 0 -215 -7 -11 -28 -15 -84 -15 -41 0 -78 4 -83 8 -10 11 -17 168 -9 201 3 14 14 26 23 28 26 5 142 0 153 -7z"/>
<path d="M2503 2024 c-3 -9 4 -33 16 -54 11 -21 24 -59 27 -84 4 -26 9 -44 13 -41 8 8 40 145 41 173 0 20 -5 22 -45 22 -32 0 -47 -5 -52 -16z"/>
<path d="M2447 1946 c-9 -7 -17 -22 -17 -33 0 -10 -5 -24 -11 -30 -8 -8 -3 -20 19 -44 51 -57 77 -20 52 73 -13 45 -20 50 -43 34z"/>
<path d="M2621 1923 c-12 -42 -15 -113 -5 -113 13 0 79 83 79 99 0 15 -40 51 -57 51 -4 0 -12 -17 -17 -37z"/>
<path d="M2696 1823 c-41 -43 -42 -46 -21 -63 8 -7 15 -24 15 -37 0 -19 4 -24 16 -19 9 3 27 6 40 6 21 0 24 4 24 39 0 35 -24 111 -35 111 -2 0 -20 -17 -39 -37z"/>
<path d="M2370 1804 c-6 -14 -10 -43 -10 -65 0 -36 2 -39 29 -39 26 0 29 4 33 38 5 38 -14 92 -33 92 -5 0 -14 -12 -19 -26z"/>
<path d="M2492 1764 c-22 -15 -22 -19 -22 -225 l0 -209 30 0 30 0 0 88 c0 49 3 150 7 225 7 148 4 156 -45 121z"/>
<path d="M2585 1588 c-9 -242 -8 -253 25 -253 l25 0 3 201 c2 200 2 200 -22 223 l-24 22 -7 -193z"/>
<path d="M2687 1634 c-1 -1 -1 -36 1 -77 l4 -75 36 5 c20 3 38 6 39 7 1 1 3 32 4 71 l2 69 -42 1 c-23 1 -43 0 -44 -1z"/>
<path d="M2353 1560 l-2 -70 34 0 33 0 4 70 3 70 -35 0 -35 0 -2 -70z"/>
<path d="M2349 1456 c-2 -2 -2 -32 -1 -66 l4 -61 31 3 c31 3 32 4 35 61 3 51 1 57 -17 57 -11 0 -26 2 -33 5 -8 3 -16 4 -19 1z"/>
<path d="M2690 1393 l0 -63 40 0 40 0 0 55 c0 30 1 58 3 61 1 3 -17 7 -40 8 l-43 2 0 -63z"/>
</g>
</g>
  <g id="id1:id1" transform="matrix(1.25,0,0,1.25,0.0,0.0)"><g transform="translate(0.000000,200.000000) scale(0.040000,-0.040000)" fill="#cbcccd" stroke="none">
<path d="M15 4978 c-3 -7 -4 -744 -3 -1638 l3 -1625 3 1633 2 1632 2130 0 2130 0 3 -1632 2 -1633 0 1635 0 1635 -2133 3 c-1701 2 -2134 0 -2137 -10z"/>
<path d="M2511 3218 c-11 -18 -29 -39 -40 -46 -12 -7 -21 -20 -21 -30 0 -10 -6 -24 -12 -32 -11 -12 -10 -12 5 -1 9 7 17 22 17 32 0 10 9 23 19 29 11 5 28 24 38 40 9 17 21 30 25 30 10 0 65 -82 69 -104 2 -11 10 -21 17 -24 8 -2 5 10 -9 35 -28 51 -68 103 -79 103 -4 0 -17 -15 -29 -32z"/>
<path d="M2700 3025 c34 -41 64 -75 66 -75 3 0 -22 34 -56 75 -34 41 -64 75 -66 75 -3 0 22 -34 56 -75z"/>
<path d="M2421 3074 c0 -11 3 -14 6 -6 3 7 2 16 -1 19 -3 4 -6 -2 -5 -13z"/>
<path d="M2361 2980 c-28 -39 -51 -75 -51 -82 0 -6 -16 -26 -35 -45 -19 -19 -35 -42 -35 -52 0 -9 -11 -32 -25 -51 l-25 -34 0 -692 c0 -622 2 -692 16 -698 22 -8 77 -7 90 2 8 5 14 84 19 240 l8 232 33 56 c19 31 27 51 19 44 -8 -6 -27 -38 -43 -69 -28 -56 -28 -58 -30 -271 -2 -118 -7 -219 -11 -223 -5 -5 -26 -7 -47 -5 l-39 3 -3 688 -2 688 25 37 c14 20 25 44 25 54 0 9 16 31 35 49 19 19 35 40 35 47 0 8 13 31 28 51 41 53 74 101 69 101 -3 0 -28 -32 -56 -70z"/>
<path d="M2481 3026 c-8 -9 -11 -43 -8 -93 l3 -78 2 81 c2 90 5 94 67 94 62 0 65 -4 67 -94 l2 -81 3 78 c3 50 0 84 -8 93 -16 19 -112 19 -128 0z"/>
<path d="M2771 2924 c0 -11 3 -14 6 -6 3 7 2 16 -1 19 -3 4 -6 -2 -5 -13z"/>
<path d="M1026 2889 c-3 -17 -6 -372 -6 -789 0 -629 2 -759 14 -769 9 -8 103 -11 322 -9 l309 3 0 695 0 695 -27 3 c-16 2 -28 8 -28 13 0 5 16 31 35 58 19 26 35 52 35 56 0 5 -18 -17 -40 -49 -47 -67 -50 -84 -12 -88 l27 -3 3 -688 2 -687 -312 2 -313 3 -3 773 -2 772 316 0 c277 0 315 2 310 15 -3 8 -1 15 4 15 5 0 11 -10 13 -22 4 -20 4 -19 6 5 l1 27 -324 0 -323 0 -7 -31z"/>
<path d="M2518 2853 c18 -2 45 -2 60 0 15 2 0 4 -33 4 -33 0 -45 -2 -27 -4z"/>
<path d="M2830 2844 c0 -4 20 -31 45 -59 25 -29 49 -64 54 -77 6 -15 10 -17 10 -7 1 9 -24 47 -54 84 -30 36 -55 63 -55 59z"/>
<path d="M1247 2733 c-13 -12 -8 -238 5 -251 16 -16 174 -16 184 -1 3 6 6 61 6 123 -1 141 0 136 -13 136 -5 0 -7 -5 -3 -11 4 -7 7 -60 7 -119 0 -59 -3 -112 -7 -119 -10 -15 -148 -15 -164 1 -8 8 -12 49 -12 120 0 91 3 108 18 117 14 9 15 10 1 11 -9 0 -19 -3 -22 -7z"/>
<path d="M1323 2733 c15 -2 37 -2 50 0 12 2 0 4 -28 4 -27 0 -38 -2 -22 -4z"/>
<path d="M1702 2018 l3 -693 225 0 225 0 3 693 2 692 -230 0 -230 0 2 -692z m448 -3 l0 -685 -220 0 -220 0 0 685 0 685 220 0 220 0 0 -685z"/>
<path d="M1824 2555 c-8 -33 -1 -191 9 -202 5 -4 42 -8 83 -8 55 0 77 4 84 15 6 8 9 60 8 114 -2 78 -6 100 -18 104 -12 4 -13 2 -2 -9 16 -17 17 -195 0 -205 -11 -7 -139 -6 -146 1 -7 7 -6 191 2 203 4 6 3 12 -3 12 -6 0 -13 -11 -17 -25z"/>
<path d="M2934 2510 c0 -96 2 -136 3 -87 2 48 2 126 0 175 -1 48 -3 8 -3 -88z"/>
<path d="M2237 2573 c-9 -8 -9 -196 -1 -217 5 -13 23 -16 95 -16 49 0 89 3 89 8 0 4 -39 7 -87 7 l-88 0 -3 108 -3 108 88 -3 88 -3 6 -100 5 -100 2 92 c1 50 -1 98 -4 107 -5 13 -23 16 -93 16 -48 0 -91 -3 -94 -7z"/>
<path d="M2697 2563 c-10 -38 -8 -183 3 -203 10 -19 19 -21 88 -18 l77 3 0 115 0 115 -65 1 -65 1 63 -4 63 -4 -3 -107 -3 -107 -63 -3 c-89 -4 -93 1 -91 115 2 74 6 96 18 103 14 8 14 9 -1 10 -9 0 -19 -8 -21 -17z"/>
<path d="M2922 1833 l-2 -503 -55 0 -54 0 -4 68 -4 67 1 -70 1 -70 58 -3 c40 -2 59 1 62 10 3 7 4 236 3 508 l-3 495 -3 -502z"/>
<path d="M2485 2092 c-26 -6 -35 -20 -35 -59 0 -20 -7 -36 -17 -42 -10 -6 -13 -11 -7 -11 18 0 34 23 34 50 0 46 11 51 96 48 l79 -3 3 -32 c3 -25 14 -39 53 -67 27 -20 49 -42 49 -48 0 -7 9 -24 20 -38 20 -26 27 -70 11 -70 -5 0 -11 3 -14 8 -2 4 -1 0 1 -8 3 -8 7 -36 10 -62 4 -46 3 -48 -21 -48 -14 0 -32 -3 -41 -6 -12 -5 -16 0 -16 19 0 13 -8 31 -17 38 -16 12 -17 12 -6 -1 6 -8 13 -26 15 -40 2 -20 9 -25 33 -26 57 -3 65 4 65 52 0 56 18 58 23 2 4 -40 4 -40 1 2 -4 68 -15 112 -34 140 -9 14 -20 33 -23 42 -4 10 -27 32 -52 50 -38 27 -45 37 -45 65 0 19 -6 35 -12 38 -20 6 -131 11 -153 7z"/>
<path d="M2497 2031 c-9 -19 -7 -31 11 -62 13 -22 26 -62 29 -89 4 -33 11 -50 19 -50 8 0 14 5 14 11 0 5 -4 8 -9 5 -4 -3 -11 15 -15 40 -3 25 -16 63 -27 84 -30 53 -21 70 36 70 53 0 54 -6 29 -102 -8 -33 -13 -65 -10 -71 2 -7 5 -2 5 11 2 43 21 21 22 -25 2 -47 4 -40 14 42 8 62 18 72 49 52 14 -9 29 -17 33 -17 4 0 -7 10 -26 22 l-33 21 -19 -24 -19 -24 6 61 6 62 -52 3 c-47 4 -54 2 -63 -20z"/>
<path d="M2401 1947 c-13 -21 -12 -21 5 -5 10 10 16 20 13 22 -3 3 -11 -5 -18 -17z"/>
<path d="M2485 1925 c32 -91 10 -140 -43 -94 l-27 23 27 -28 c27 -30 53 -30 64 -1 9 22 -5 99 -21 121 -12 16 -12 13 0 -21z"/>
<path d="M1243 1922 c1 -17 9 -18 69 -14 48 3 74 0 85 -10 15 -11 16 -11 10 5 -4 10 -7 23 -7 28 0 5 -36 9 -79 9 -71 0 -80 -2 -78 -18z"/>
<path d="M2419 1912 c-3 -20 -2 -29 4 -23 5 5 7 19 5 32 -3 20 -5 19 -9 -9z"/>
<path d="M2693 1908 c2 -7 -7 -26 -22 -43 l-26 -30 32 29 c17 16 29 34 26 42 -3 8 -7 14 -10 14 -3 0 -3 -6 0 -12z"/>
<path d="M1234 1790 c0 -58 1 -81 3 -52 2 28 2 76 0 105 -2 28 -3 5 -3 -53z"/>
<path d="M2371 1826 c-6 -7 -15 -35 -20 -62 -11 -59 -1 -76 43 -72 28 3 31 7 38 47 6 36 4 49 -13 72 -23 32 -31 35 -48 15z m42 -23 c8 -16 12 -44 9 -65 -4 -34 -7 -38 -33 -38 -27 0 -29 3 -29 39 0 45 15 91 29 91 6 0 17 -12 24 -27z"/>
<path d="M2679 1813 l-24 -28 28 24 c15 14 27 26 27 28 0 8 -8 1 -31 -24z"/>
<path d="M2626 1814 c-5 -14 -4 -15 9 -4 17 14 19 20 6 20 -5 0 -12 -7 -15 -16z"/>
<path d="M2528 1781 c10 -6 12 -53 6 -229 l-7 -222 -29 0 -28 0 0 208 c0 152 3 212 13 222 10 12 9 12 -6 1 -16 -13 -17 -33 -15 -225 l3 -211 29 -3 c16 -2 32 0 36 5 4 4 11 110 15 236 6 215 5 227 -12 227 -13 0 -15 -2 -5 -9z"/>
<path d="M2582 1688 l2 -103 3 99 4 99 24 -23 c25 -23 25 -24 25 -222 0 -175 -2 -199 -16 -205 -9 -3 -26 0 -38 7 -20 11 -20 11 -4 -5 11 -12 24 -16 42 -11 l26 6 0 203 0 203 -28 27 c-15 15 -31 27 -35 27 -4 0 -6 -46 -5 -102z"/>
<path d="M1405 1693 c-13 -45 -14 -53 -5 -53 7 0 22 71 16 77 -2 2 -7 -9 -11 -24z"/>
<path d="M33 1655 c0 -33 2 -45 4 -27 2 18 2 45 0 60 -2 15 -4 0 -4 -33z"/>
<path d="M4263 1655 c0 -33 2 -45 4 -27 2 18 2 45 0 60 -2 15 -4 0 -4 -33z"/>
<path d="M1240 1660 c0 -11 4 -20 9 -20 5 0 7 9 4 20 -3 11 -7 20 -9 20 -2 0 -4 -9 -4 -20z"/>
<path d="M2349 1638 c0 -2 -2 -38 -5 -80 l-4 -78 39 0 c22 0 42 4 45 8 2 4 6 39 7 77 l3 70 -42 3 c-23 2 -42 2 -43 0z m73 -78 l-4 -70 -33 0 -34 0 2 70 2 70 35 0 35 0 -3 -70z"/>
<path d="M2718 1633 c6 -2 18 -2 25 0 6 3 1 5 -13 5 -14 0 -19 -2 -12 -5z"/>
<path d="M2803 1560 c0 -47 2 -66 4 -42 2 23 2 61 0 85 -2 23 -4 4 -4 -43z"/>
<path d="M2685 1475 l0 -150 45 0 45 0 1 58 1 57 -4 -55 -4 -55 -39 0 -40 0 0 64 0 65 33 -3 c17 -2 22 -1 10 1 -34 6 -28 21 10 25 l32 3 1 65 0 65 -3 -62 c-4 -59 -6 -63 -28 -63 -13 0 -30 -3 -39 -6 -13 -5 -16 7 -18 68 -2 40 -4 6 -3 -77z"/>
<path d="M53 1555 c0 -22 2 -30 4 -17 2 12 2 30 0 40 -3 9 -5 -1 -4 -23z"/>
<path d="M4243 1555 c0 -22 2 -30 4 -17 2 12 2 30 0 40 -3 9 -5 -1 -4 -23z"/>
<path d="M72 1485 c0 -16 2 -22 5 -12 2 9 2 23 0 30 -3 6 -5 -1 -5 -18z"/>
<path d="M4222 1485 c0 -16 2 -22 5 -12 2 9 2 23 0 30 -3 6 -5 -1 -5 -18z"/>
<path d="M2366 1458 c3 -4 16 -8 30 -8 24 0 25 -2 22 -57 -3 -57 -3 -58 -35 -61 l-32 -3 -4 55 -4 56 1 -57 c1 -62 11 -72 62 -59 22 6 24 11 24 70 l0 64 -34 4 c-19 2 -32 0 -30 -4z"/>
<path d="M93 1415 c0 -22 2 -30 4 -17 2 12 2 30 0 40 -3 9 -5 -1 -4 -23z"/>
<path d="M4203 1415 c0 -22 2 -30 4 -17 2 12 2 30 0 40 -3 9 -5 -1 -4 -23z"/>
<path d="M111 1354 c0 -11 3 -14 6 -6 3 7 2 16 -1 19 -3 4 -6 -2 -5 -13z"/>
<path d="M4181 1354 c0 -11 3 -14 6 -6 3 7 2 16 -1 19 -3 4 -6 -2 -5 -13z"/>
<path d="M132 1305 c0 -16 2 -22 5 -12 2 9 2 23 0 30 -3 6 -5 -1 -5 -18z"/>
<path d="M4162 1305 c0 -16 2 -22 5 -12 2 9 2 23 0 30 -3 6 -5 -1 -5 -18z"/>
<path d="M151 1254 c0 -11 3 -14 6 -6 3 7 2 16 -1 19 -3 4 -6 -2 -5 -13z"/>
<path d="M4141 1254 c0 -11 3 -14 6 -6 3 7 2 16 -1 19 -3 4 -6 -2 -5 -13z"/>
<path d="M171 1214 c0 -11 3 -14 6 -6 3 7 2 16 -1 19 -3 4 -6 -2 -5 -13z"/>
<path d="M4121 1214 c0 -11 3 -14 6 -6 3 7 2 16 -1 19 -3 4 -6 -2 -5 -13z"/>
<path d="M191 1174 c0 -11 3 -14 6 -6 3 7 2 16 -1 19 -3 4 -6 -2 -5 -13z"/>
<path d="M4101 1174 c0 -11 3 -14 6 -6 3 7 2 16 -1 19 -3 4 -6 -2 -5 -13z"/>
<path d="M211 1134 c0 -11 3 -14 6 -6 3 7 2 16 -1 19 -3 4 -6 -2 -5 -13z"/>
<path d="M4081 1134 c0 -11 3 -14 6 -6 3 7 2 16 -1 19 -3 4 -6 -2 -5 -13z"/>
<path d="M251 1074 c0 -11 3 -14 6 -6 3 7 2 16 -1 19 -3 4 -6 -2 -5 -13z"/>
<path d="M4041 1074 c0 -11 3 -14 6 -6 3 7 2 16 -1 19 -3 4 -6 -2 -5 -13z"/>
<path d="M271 1034 c0 -11 3 -14 6 -6 3 7 2 16 -1 19 -3 4 -6 -2 -5 -13z"/>
<path d="M4021 1034 c0 -11 3 -14 6 -6 3 7 2 16 -1 19 -3 4 -6 -2 -5 -13z"/>
<path d="M311 974 c0 -11 3 -14 6 -6 3 7 2 16 -1 19 -3 4 -6 -2 -5 -13z"/>
<path d="M3981 974 c0 -11 3 -14 6 -6 3 7 2 16 -1 19 -3 4 -6 -2 -5 -13z"/>
<path d="M331 934 c0 -11 3 -14 6 -6 3 7 2 16 -1 19 -3 4 -6 -2 -5 -13z"/>
<path d="M3961 934 c0 -11 3 -14 6 -6 3 7 2 16 -1 19 -3 4 -6 -2 -5 -13z"/>
<path d="M371 874 c0 -11 3 -14 6 -6 3 7 2 16 -1 19 -3 4 -6 -2 -5 -13z"/>
<path d="M3921 874 c0 -11 3 -14 6 -6 3 7 2 16 -1 19 -3 4 -6 -2 -5 -13z"/>
<path d="M491 734 c0 -11 3 -14 6 -6 3 7 2 16 -1 19 -3 4 -6 -2 -5 -13z"/>
<path d="M3801 734 c0 -11 3 -14 6 -6 3 7 2 16 -1 19 -3 4 -6 -2 -5 -13z"/>
<path d="M708 513 c7 -3 16 -2 19 1 4 3 -2 6 -13 5 -11 0 -14 -3 -6 -6z"/>
<path d="M3578 513 c7 -3 16 -2 19 1 4 3 -2 6 -13 5 -11 0 -14 -3 -6 -6z"/>
<path d="M788 453 c7 -3 16 -2 19 1 4 3 -2 6 -13 5 -11 0 -14 -3 -6 -6z"/>
<path d="M3498 453 c7 -3 16 -2 19 1 4 3 -2 6 -13 5 -11 0 -14 -3 -6 -6z"/>
<path d="M868 393 c7 -3 16 -2 19 1 4 3 -2 6 -13 5 -11 0 -14 -3 -6 -6z"/>
<path d="M3418 393 c7 -3 16 -2 19 1 4 3 -2 6 -13 5 -11 0 -14 -3 -6 -6z"/>
<path d="M948 333 c7 -3 16 -2 19 1 4 3 -2 6 -13 5 -11 0 -14 -3 -6 -6z"/>
<path d="M3338 333 c7 -3 16 -2 19 1 4 3 -2 6 -13 5 -11 0 -14 -3 -6 -6z"/>
<path d="M988 313 c7 -3 16 -2 19 1 4 3 -2 6 -13 5 -11 0 -14 -3 -6 -6z"/>
<path d="M3298 313 c7 -3 16 -2 19 1 4 3 -2 6 -13 5 -11 0 -14 -3 -6 -6z"/>
<path d="M1028 293 c7 -3 16 -2 19 1 4 3 -2 6 -13 5 -11 0 -14 -3 -6 -6z"/>
<path d="M3258 293 c7 -3 16 -2 19 1 4 3 -2 6 -13 5 -11 0 -14 -3 -6 -6z"/>
<path d="M1068 273 c7 -3 16 -2 19 1 4 3 -2 6 -13 5 -11 0 -14 -3 -6 -6z"/>
<path d="M3218 273 c7 -3 16 -2 19 1 4 3 -2 6 -13 5 -11 0 -14 -3 -6 -6z"/>
<path d="M1108 253 c7 -3 16 -2 19 1 4 3 -2 6 -13 5 -11 0 -14 -3 -6 -6z"/>
<path d="M3178 253 c7 -3 16 -2 19 1 4 3 -2 6 -13 5 -11 0 -14 -3 -6 -6z"/>
<path d="M1148 233 c7 -3 16 -2 19 1 4 3 -2 6 -13 5 -11 0 -14 -3 -6 -6z"/>
<path d="M3138 233 c7 -3 16 -2 19 1 4 3 -2 6 -13 5 -11 0 -14 -3 -6 -6z"/>
<path d="M1188 213 c7 -3 16 -2 19 1 4 3 -2 6 -13 5 -11 0 -14 -3 -6 -6z"/>
<path d="M3098 213 c7 -3 16 -2 19 1 4 3 -2 6 -13 5 -11 0 -14 -3 -6 -6z"/>
<path d="M1228 193 c7 -3 16 -2 19 1 4 3 -2 6 -13 5 -11 0 -14 -3 -6 -6z"/>
<path d="M3058 193 c7 -3 16 -2 19 1 4 3 -2 6 -13 5 -11 0 -14 -3 -6 -6z"/>
<path d="M1268 173 c7 -3 16 -2 19 1 4 3 -2 6 -13 5 -11 0 -14 -3 -6 -6z"/>
<path d="M3018 173 c7 -3 16 -2 19 1 4 3 -2 6 -13 5 -11 0 -14 -3 -6 -6z"/>
<path d="M1313 153 c9 -2 23 -2 30 0 6 3 -1 5 -18 5 -16 0 -22 -2 -12 -5z"/>
<path d="M2963 153 c9 -2 23 -2 30 0 6 3 -1 5 -18 5 -16 0 -22 -2 -12 -5z"/>
<path d="M1378 133 c12 -2 30 -2 40 0 9 3 -1 5 -23 4 -22 0 -30 -2 -17 -4z"/>
<path d="M2888 133 c12 -2 30 -2 40 0 9 3 -1 5 -23 4 -22 0 -30 -2 -17 -4z"/>
<path d="M1453 113 c9 -2 23 -2 30 0 6 3 -1 5 -18 5 -16 0 -22 -2 -12 -5z"/>
<path d="M2823 113 c9 -2 23 -2 30 0 6 3 -1 5 -18 5 -16 0 -22 -2 -12 -5z"/>
<path d="M1518 93 c12 -2 30 -2 40 0 9 3 -1 5 -23 4 -22 0 -30 -2 -17 -4z"/>
<path d="M2748 93 c12 -2 30 -2 40 0 9 3 -1 5 -23 4 -22 0 -30 -2 -17 -4z"/>
<path d="M1593 73 c9 -2 23 -2 30 0 6 3 -1 5 -18 5 -16 0 -22 -2 -12 -5z"/>
<path d="M2683 73 c9 -2 23 -2 30 0 6 3 -1 5 -18 5 -16 0 -22 -2 -12 -5z"/>
<path d="M1658 53 c12 -2 30 -2 40 0 9 3 -1 5 -23 4 -22 0 -30 -2 -17 -4z"/>
<path d="M2608 53 c12 -2 30 -2 40 0 9 3 -1 5 -23 4 -22 0 -30 -2 -17 -4z"/>
<path d="M1747 33 c18 -2 50 -2 70 0 21 2 7 4 -32 4 -38 0 -55 -2 -38 -4z"/>
<path d="M2477 33 c18 -2 50 -2 70 0 21 2 7 4 -32 4 -38 0 -55 -2 -38 -4z"/>
<path d="M2002 13 c82 -2 214 -2 295 0 82 1 15 3 -147 3 -162 0 -229 -2 -148 -3z"/>
</g>
</g>
  <g id="id2:id2" transform="matrix(1.25,0,0,1.25,0.0,0.0)"><g transform="translate(0.000000,200.000000) scale(0.040000,-0.040000)" fill="#828284" stroke="none">
<path d="M2524 3248 c-5 -7 -3 -8 5 -4 7 5 22 0 34 -11 l22 -18 -19 23 c-21 25 -32 27 -42 10z"/>
<path d="M2503 3218 c-15 -20 -25 -38 -20 -38 3 0 12 11 21 25 17 26 16 35 -1 13z"/>
<path d="M2452 3168 c-7 -7 -12 -19 -12 -28 0 -9 -5 -21 -12 -28 -6 -6 -9 -14 -7 -17 3 -3 11 7 18 23 8 15 17 35 22 45 11 20 8 22 -9 5z"/>
<path d="M2619 3146 c21 -37 161 -212 161 -201 0 4 -30 43 -66 88 -37 44 -73 93 -81 108 -8 16 -19 31 -24 35 -5 3 -1 -10 10 -30z"/>
<path d="M2358 2989 c-32 -44 -58 -85 -58 -92 0 -7 -6 -19 -12 -27 -11 -12 -10 -12 5 -1 9 7 17 20 17 27 0 8 25 48 56 90 31 41 54 77 52 79 -1 1 -29 -33 -60 -76z"/>
<path d="M2493 3023 c-14 -5 -19 -163 -5 -163 4 0 7 35 7 77 l0 78 50 0 50 0 0 -78 c0 -42 3 -77 8 -77 4 0 7 36 7 79 0 63 -3 80 -16 85 -18 7 -83 7 -101 -1z"/>
<path d="M1024 2915 c-3 -8 -4 -20 -1 -27 3 -7 6 -3 6 10 l1 22 325 0 325 0 0 -41 c0 -32 -9 -53 -35 -90 -19 -27 -35 -53 -35 -58 0 -5 12 -11 28 -13 l27 -3 0 -698 c0 -460 3 -696 10 -693 6 2 19 -1 30 -7 16 -8 18 -7 8 4 -10 10 -13 164 -13 701 l0 688 230 0 230 0 -2 -694 -3 -693 30 0 c17 -1 24 1 18 4 -10 4 -13 152 -13 697 l0 692 25 34 c14 19 25 35 25 37 0 11 -12 -3 -38 -42 -18 -27 -33 -41 -37 -35 -5 7 -82 11 -243 10 -209 -1 -302 4 -302 16 0 2 16 26 36 54 29 41 35 56 32 92 l-3 43 -328 3 c-282 2 -328 0 -333 -13z"/>
<path d="M2780 2906 c0 -8 4 -17 9 -20 5 -4 7 3 4 14 -6 23 -13 26 -13 6z"/>
<path d="M2815 2858 c11 -5 43 -38 70 -73 28 -34 51 -61 53 -60 5 4 -85 116 -106 133 -9 6 -21 12 -26 11 -6 0 -2 -5 9 -11z"/>
<path d="M1268 2729 c-15 -9 -18 -26 -18 -117 0 -71 4 -112 12 -120 16 -16 154 -16 164 -1 4 7 7 62 7 122 0 92 -3 113 -16 121 -12 8 -20 7 -29 -2 -11 -11 -10 -12 3 -7 10 4 20 1 24 -5 6 -9 9 -155 6 -220 -1 -7 -30 -10 -78 -8 l-78 3 -3 111 c-3 107 -2 111 20 122 13 6 19 11 13 11 -5 0 -18 -4 -27 -10z"/>
<path d="M1844 2568 c-6 -10 -9 -114 -5 -195 1 -7 9 -13 19 -13 13 0 14 2 3 9 -9 6 -13 35 -14 102 l-1 94 69 0 70 0 3 -97 c2 -74 0 -98 -10 -99 -7 0 -33 -1 -58 -1 l-45 0 45 -7 c75 -11 80 -4 80 102 0 59 -4 97 -12 105 -16 16 -134 16 -144 0z"/>
<path d="M2718 2569 c-20 -11 -24 -34 -6 -45 7 -5 8 -3 4 5 -5 7 0 21 10 32 19 21 17 23 -8 8z"/>
<path d="M2242 2463 l3 -108 85 0 85 0 0 104 c0 77 -3 105 -13 107 -7 1 -8 0 -2 -3 6 -3 10 -46 10 -104 l0 -99 -80 0 -80 0 0 100 0 99 63 4 62 3 -68 2 -68 2 3 -107z"/>
<path d="M2798 2563 l52 -4 0 -100 0 -100 -67 3 -68 3 -6 75 -5 75 -2 -71 c-2 -89 5 -96 90 -92 l63 3 3 108 3 107 -58 -2 -58 -2 53 -3z"/>
<path d="M2928 1830 c-2 -281 0 -510 5 -510 4 0 7 230 7 510 0 281 -2 510 -5 510 -2 0 -6 -230 -7 -510z"/>
<path d="M2466 2065 c-3 -9 -6 -27 -6 -41 0 -13 -9 -29 -20 -36 -11 -7 -20 -17 -20 -22 0 -5 13 3 29 18 24 23 29 25 35 11 8 -23 8 -25 -7 -25 -28 0 -77 -32 -90 -60 -12 -24 -12 -28 -1 -23 8 3 14 1 14 -5 0 -6 2 -16 5 -24 3 -8 -4 -14 -21 -14 -18 -2 -24 2 -20 12 11 29 -4 13 -23 -23 -16 -33 -20 -71 -26 -268 -5 -148 -11 -232 -18 -237 -6 -4 2 -6 18 -6 l30 1 -3 65 c-4 73 1 80 53 74 l35 -4 0 -63 c0 -42 -4 -65 -12 -68 -7 -3 1 -5 17 -4 l30 0 0 216 0 216 37 20 c20 11 40 17 43 13 4 -3 3 -109 -2 -235 l-8 -230 27 0 c15 0 25 4 22 9 -7 10 -5 450 1 457 3 2 19 -8 35 -24 l30 -29 0 -202 c0 -128 -4 -204 -10 -207 -6 -3 -5 -4 2 -3 10 2 14 51 16 206 l2 203 -26 28 c-14 15 -23 32 -20 38 4 6 2 11 -3 11 -6 0 -11 20 -11 45 0 53 -15 60 -24 10 -10 -53 -32 -44 -39 16 -4 28 -16 66 -28 86 -17 27 -20 41 -13 61 8 24 13 26 62 23 34 -2 52 1 52 9 0 6 5 8 10 5 6 -3 10 -11 10 -16 0 -6 -4 -7 -10 -4 -6 4 -10 -6 -10 -24 0 -16 -3 -38 -6 -48 -5 -15 -4 -15 5 -3 8 11 11 12 11 2 0 -7 5 -10 10 -7 6 4 23 -1 38 -11 l27 -17 -19 21 c-20 24 -11 29 14 9 23 -18 17 -73 -11 -105 -48 -52 -52 -67 -6 -18 37 39 45 54 41 73 -8 32 8 29 24 -4 16 -35 15 -43 -2 -43 -8 0 -31 -17 -50 -37 -35 -37 -44 -62 -29 -77 14 -14 31 -101 22 -112 -4 -5 -8 -78 -8 -161 0 -130 2 -153 17 -165 15 -11 15 -11 5 2 -8 10 -12 66 -12 168 l0 152 50 0 50 0 -3 -77 -3 -78 -32 -3 c-45 -4 -42 -22 3 -22 l36 0 -4 -69 c-3 -66 -2 -70 20 -74 17 -3 20 -1 13 6 -7 7 -11 90 -11 239 0 145 -4 228 -10 228 -5 0 -10 -20 -10 -44 0 -48 -8 -55 -65 -52 -24 1 -31 6 -33 26 -2 14 -8 29 -13 35 -17 17 -9 41 24 73 38 37 53 40 62 12 3 -11 11 -20 16 -20 16 0 9 44 -11 70 -11 14 -20 31 -20 38 0 6 -22 28 -49 48 -39 28 -50 42 -53 67 l-3 32 -81 3 c-68 2 -83 0 -88 -13z m34 1 c0 -3 -4 -8 -10 -11 -5 -3 -10 -1 -10 4 0 6 5 11 10 11 6 0 10 -2 10 -4z m148 -74 c2 -7 -3 -12 -12 -12 -9 0 -16 7 -16 16 0 17 22 14 28 -4z m-128 -70 c17 -62 10 -71 -10 -12 -23 65 -23 63 -10 55 5 -3 14 -22 20 -43z m-30 18 c6 -11 14 -42 17 -68 4 -37 2 -51 -12 -62 -29 -24 -81 27 -90 90 -4 29 -3 31 4 10 l9 -25 1 24 c1 24 26 50 48 51 7 0 17 -9 23 -20z m277 -92 c-3 -8 -6 -5 -6 6 -1 11 2 17 5 13 3 -3 4 -12 1 -19z m-186 -51 c-6 -6 -12 -54 -13 -106 l-2 -96 -5 100 c-7 116 -18 127 -80 77 -37 -30 -38 -30 -34 -7 3 12 0 26 -6 29 -6 4 -11 13 -11 19 0 7 5 4 11 -5 13 -24 44 -23 68 1 12 12 27 17 40 14 14 -4 23 1 28 13 7 17 8 16 11 -5 2 -13 -1 -28 -7 -34z m-162 14 c17 -23 19 -36 13 -72 -7 -40 -10 -44 -38 -47 -44 -4 -54 13 -43 72 5 26 6 53 2 59 -3 5 -1 7 5 3 6 -3 13 -2 17 4 10 17 23 12 44 -19z m-77 -23 c-7 -7 -12 -8 -12 -2 0 6 3 14 7 17 3 4 9 5 12 2 2 -3 -1 -11 -7 -17z m48 -112 c14 0 33 4 43 8 14 7 17 3 17 -18 0 -14 -4 -26 -8 -26 -5 0 -10 -32 -11 -72 -1 -39 -5 -76 -8 -82 -4 -5 1 -7 10 -3 11 4 17 1 17 -8 0 -17 -16 -20 -25 -5 -9 14 -78 13 -93 -2 -8 -8 -12 -9 -12 -1 0 6 4 13 10 15 5 2 11 37 14 78 l3 75 34 6 c30 6 29 6 -8 4 -40 -2 -43 -1 -43 22 0 20 3 24 18 17 9 -4 28 -8 42 -8z"/>
<path d="M2600 1939 c0 -5 5 -7 10 -4 6 3 10 8 10 11 0 2 -4 4 -10 4 -5 0 -10 -5 -10 -11z"/>
<path d="M1253 1903 c-16 -6 -18 -198 -3 -238 9 -25 13 -26 77 -23 78 4 74 -3 80 141 5 117 0 128 -66 125 l-46 -1 50 -6 50 -6 0 -105 0 -105 -72 -3 -73 -3 0 106 c0 100 1 106 23 115 12 5 15 9 7 9 -8 -1 -21 -3 -27 -6z"/>
<path d="M1020 1330 c0 -5 5 -10 11 -10 5 0 7 5 4 10 -3 6 -8 10 -11 10 -2 0 -4 -4 -4 -10z"/>
<path d="M235 1110 c10 -11 20 -20 23 -20 3 0 -3 9 -13 20 -10 11 -20 20 -23 20 -3 0 3 -9 13 -20z"/>
<path d="M4054 1108 l-19 -23 23 19 c21 18 27 26 19 26 -2 0 -12 -10 -23 -22z"/>
<path d="M295 1010 c10 -11 20 -20 23 -20 3 0 -3 9 -13 20 -10 11 -20 20 -23 20 -3 0 3 -9 13 -20z"/>
<path d="M3994 1008 l-19 -23 23 19 c21 18 27 26 19 26 -2 0 -12 -10 -23 -22z"/>
<path d="M355 910 c10 -11 20 -20 23 -20 3 0 -3 9 -13 20 -10 11 -20 20 -23 20 -3 0 3 -9 13 -20z"/>
<path d="M3934 908 l-19 -23 23 19 c21 18 27 26 19 26 -2 0 -12 -10 -23 -22z"/>
<path d="M435 810 c33 -33 62 -60 64 -60 3 0 -21 27 -54 60 -33 33 -62 60 -64 60 -3 0 21 -27 54 -60z"/>
<path d="M3855 808 l-60 -63 63 60 c58 55 67 65 59 65 -1 0 -29 -28 -62 -62z"/>
<path d="M600 628 c57 -60 106 -108 107 -108 8 0 -5 13 -104 110 l-108 105 105 -107z"/>
<path d="M3690 623 l-105 -108 108 105 c59 57 107 106 107 107 0 8 -13 -5 -110 -104z"/>
<path d="M730 517 c0 -2 15 -16 33 -33 l32 -29 -29 33 c-28 30 -36 37 -36 29z"/>
<path d="M3534 488 l-29 -33 33 29 c17 17 32 31 32 33 0 8 -8 1 -36 -29z"/>
<path d="M810 457 c0 -2 15 -16 33 -33 l32 -29 -29 33 c-28 30 -36 37 -36 29z"/>
<path d="M3454 428 l-29 -33 33 29 c17 17 32 31 32 33 0 8 -8 1 -36 -29z"/>
<path d="M890 397 c0 -2 15 -16 33 -33 l32 -29 -29 33 c-28 30 -36 37 -36 29z"/>
<path d="M3374 368 l-29 -33 33 29 c17 17 32 31 32 33 0 8 -8 1 -36 -29z"/>
</g>
</g>
  <g id="id3:id3" transform="matrix(1.25,0,0,1.25,0.0,0.0)"><g transform="translate(0.000000,200.000000) scale(0.040000,-0.040000)" fill="#188528" stroke="none">
<path d="M1856 4643 c-3 -3 -6 -14 -6 -24 0 -20 -83 -171 -105 -189 -8 -7 -15 -16 -15 -21 0 -16 23 -9 57 17 40 31 53 25 53 -26 0 -48 8 -70 26 -70 8 0 14 -9 14 -20 0 -13 -7 -20 -19 -20 -23 0 -35 14 -52 63 -13 36 -29 50 -29 25 0 -7 -12 -20 -28 -29 -15 -8 -34 -29 -41 -45 -8 -16 -32 -52 -53 -81 -21 -29 -38 -57 -38 -62 0 -14 59 -2 90 18 41 28 82 43 92 33 4 -4 14 -31 20 -60 15 -61 31 -62 39 -3 8 61 18 66 77 38 28 -14 67 -28 88 -31 35 -7 36 -6 31 17 -12 46 -82 159 -109 175 -16 9 -28 22 -28 29 0 7 -4 13 -10 13 -5 0 -9 -3 -9 -7 4 -22 -2 -43 -11 -43 -5 0 -10 25 -10 55 0 63 10 68 52 28 15 -14 30 -24 33 -21 3 3 -15 43 -40 89 -26 49 -45 97 -45 116 0 31 -11 48 -24 36z"/>
<path d="M3110 4533 c-12 -26 -34 -69 -51 -94 -16 -25 -29 -52 -29 -59 0 -7 -7 -22 -17 -32 -9 -10 -13 -21 -10 -25 9 -9 77 28 91 50 17 26 21 21 23 -29 1 -26 5 -49 8 -53 11 -10 44 38 51 75 7 36 24 47 24 16 0 -20 39 -62 58 -62 7 0 12 -4 12 -10 0 -5 -11 -10 -24 -10 -14 0 -28 5 -31 10 -11 18 -23 10 -52 -35 -15 -25 -31 -45 -35 -45 -4 0 -16 20 -27 46 -18 40 -23 44 -40 35 -11 -6 -30 -11 -43 -11 -24 0 -58 -45 -58 -78 -1 -9 -14 -33 -30 -52 -17 -19 -30 -42 -30 -52 0 -10 -9 -23 -20 -30 -30 -19 -24 -31 13 -25 48 8 127 46 127 61 0 8 10 16 23 20 33 9 37 8 37 -13 0 -27 30 -93 48 -107 8 -6 12 -16 8 -22 -11 -18 -53 17 -66 56 -12 34 -20 38 -48 23 -9 -5 -25 -12 -35 -15 -9 -3 -20 -14 -24 -23 -4 -10 -33 -48 -65 -84 -32 -36 -58 -70 -58 -74 0 -5 -10 -20 -22 -33 l-23 -25 45 7 c76 12 123 29 128 48 2 10 10 18 16 18 7 0 32 9 55 21 48 23 61 17 61 -30 0 -32 21 -101 31 -101 4 0 11 21 14 48 8 56 24 102 37 102 5 0 28 -9 50 -20 23 -11 48 -20 55 -20 7 0 13 -7 13 -15 0 -17 29 -35 83 -51 40 -13 56 -4 32 16 -8 7 -15 17 -15 23 0 6 -17 36 -37 67 -21 30 -43 64 -49 75 -6 11 -33 28 -60 37 -27 9 -56 22 -65 27 -20 12 -29 5 -29 -21 0 -10 -4 -18 -10 -18 -5 0 -10 25 -10 56 0 47 3 55 16 50 9 -3 19 -6 24 -6 4 0 10 -8 12 -17 5 -18 156 -79 167 -68 3 3 -2 18 -11 33 -9 15 -19 45 -23 67 -4 22 -19 62 -32 88 -13 26 -21 52 -18 57 6 9 -4 31 -54 125 -12 22 -33 66 -48 98 -14 31 -30 57 -34 57 -5 0 -18 -21 -29 -47z"/>
<path d="M1735 4161 c-22 -13 -31 -26 -33 -50 -3 -24 -19 -47 -73 -99 -38 -36 -69 -70 -69 -75 0 -16 84 5 158 39 41 19 77 34 82 34 5 0 17 -25 27 -56 14 -45 20 -54 36 -50 16 4 18 -1 15 -37 -4 -53 -26 -59 -53 -15 -10 18 -18 33 -16 33 2 0 -2 19 -8 43 -7 23 -17 42 -24 41 -31 -2 -71 -37 -84 -74 -7 -22 -26 -53 -41 -70 -15 -16 -39 -43 -52 -59 l-25 -29 55 6 c32 3 81 18 118 37 63 31 82 32 82 4 0 -21 29 -74 40 -74 6 0 10 12 10 28 0 43 11 72 27 72 13 0 66 -22 137 -56 29 -14 66 -19 66 -8 0 3 -11 20 -25 38 -13 17 -27 50 -31 73 -7 48 -31 73 -97 101 l-47 21 -14 -32 -14 -32 -1 53 c-1 53 5 60 37 42 45 -25 171 -80 182 -80 9 0 8 6 -4 23 -9 12 -27 42 -41 67 -63 112 -64 113 -112 132 -27 10 -51 18 -55 18 -5 0 -8 -19 -8 -43 0 -24 -6 -52 -14 -63 -14 -19 -15 -19 -40 5 -14 14 -26 32 -26 42 0 21 -21 69 -29 68 -3 0 -19 -8 -36 -18z"/>
<path d="M580 4041 c0 -4 -18 -41 -40 -81 -22 -40 -40 -78 -40 -85 0 -7 -13 -31 -30 -53 -17 -23 -30 -44 -30 -47 0 -12 28 -3 61 19 41 28 59 20 59 -25 0 -32 16 -47 33 -30 31 31 38 -14 6 -47 -25 -27 -31 -24 -57 32 l-21 44 -36 -18 c-34 -17 -95 -88 -95 -110 0 -6 -18 -35 -40 -65 -22 -30 -40 -57 -40 -60 0 -13 117 19 130 35 3 3 20 12 38 20 29 11 35 11 43 -1 5 -8 9 -19 9 -26 0 -22 23 -63 35 -63 6 0 18 23 25 50 8 28 16 49 19 47 38 -21 126 -57 155 -62 33 -7 36 -5 36 16 0 13 -9 39 -20 57 -11 18 -20 38 -20 44 0 28 -46 108 -62 108 -32 0 -78 34 -78 58 0 29 6 28 47 -8 31 -28 53 -38 53 -24 0 3 -13 25 -30 49 -16 24 -30 49 -30 55 0 6 -9 28 -20 50 -11 22 -20 47 -20 58 0 22 -22 72 -32 72 -5 0 -8 -4 -8 -9z"/>
<path d="M3687 3960 c-3 -8 -8 -33 -12 -55 -8 -46 -62 -154 -81 -162 -15 -6 -48 -53 -41 -59 3 -3 25 7 51 21 26 14 50 23 55 20 5 -3 12 -28 16 -55 4 -28 10 -50 14 -50 4 0 12 19 18 43 7 23 18 50 26 61 13 17 15 17 44 -13 30 -30 53 -40 53 -23 0 5 -12 19 -26 33 -30 27 -73 107 -86 159 -24 92 -25 95 -31 80z"/>
<path d="M3185 3863 c-8 -46 -44 -123 -57 -123 -12 0 -58 99 -58 128 0 13 -6 22 -15 22 -8 0 -15 -5 -15 -11 0 -5 -16 -17 -35 -25 -20 -8 -39 -22 -42 -32 -11 -28 -54 -82 -67 -82 -12 0 -76 -63 -76 -74 0 -9 30 -7 87 6 29 7 53 16 53 20 0 5 7 8 15 8 15 0 25 4 72 28 45 24 61 9 79 -73 12 -52 17 -50 33 16 21 82 35 85 148 29 49 -24 95 -40 109 -38 25 3 24 5 -25 58 -28 30 -58 69 -66 86 -10 21 -26 35 -54 44 -23 7 -41 20 -44 31 -9 33 -34 22 -42 -18z"/>
<path d="M3195 3678 c-4 -18 -9 -44 -12 -57 -5 -31 -33 -72 -44 -65 -16 10 -49 82 -49 108 0 36 -14 40 -68 20 -54 -20 -62 -29 -62 -65 0 -28 -102 -159 -124 -159 -7 0 -21 -9 -31 -20 -18 -19 -17 -20 1 -20 11 0 52 9 92 20 39 11 81 20 92 20 33 0 23 -16 -20 -30 -43 -14 -53 -23 -79 -69 -9 -16 -40 -57 -68 -91 -67 -78 -68 -90 -4 -90 45 0 53 4 87 40 21 22 42 40 46 40 15 0 8 -27 -13 -54 -20 -26 -20 -26 0 -26 11 0 34 17 52 40 18 22 36 40 41 40 14 0 9 -33 -9 -52 -9 -10 -13 -21 -9 -26 4 -4 24 12 44 36 20 23 42 42 48 42 6 0 16 -18 23 -40 14 -48 35 -52 59 -10 21 36 41 38 70 5 21 -23 52 -34 52 -17 0 4 -9 18 -20 32 -11 14 -20 31 -20 38 0 23 26 12 39 -15 8 -16 17 -35 21 -43 7 -16 50 -27 50 -14 0 4 -12 21 -27 36 -20 20 -24 31 -16 39 8 8 21 0 49 -30 45 -50 68 -64 94 -56 28 9 26 18 -25 87 -25 34 -50 74 -57 89 -11 24 -64 55 -125 74 -35 10 -27 25 12 25 19 0 35 -4 35 -8 0 -9 89 -37 96 -29 3 2 -18 28 -46 56 -30 32 -50 61 -50 75 0 12 -7 31 -15 42 -8 10 -15 27 -15 37 0 21 -55 77 -75 77 -7 0 -16 -15 -20 -32z m-85 -268 c16 -60 30 -65 30 -10 0 44 17 90 34 90 23 0 56 -13 56 -21 0 -5 -11 -9 -24 -9 -18 0 -27 -8 -35 -31 -6 -18 -11 -39 -11 -48 0 -24 -23 -71 -35 -71 -14 0 -43 58 -51 102 -4 24 -13 39 -25 43 -24 8 -25 22 -1 28 27 6 47 -18 62 -73z"/>
<path d="M3739 3663 c-27 -67 -44 -103 -50 -103 -13 0 -28 27 -38 69 -5 23 -11 45 -14 47 -8 9 -77 -27 -77 -40 0 -8 -4 -16 -8 -18 -15 -6 -52 -66 -52 -85 0 -10 -14 -32 -30 -50 -17 -18 -30 -34 -30 -37 0 -10 59 -6 65 4 3 6 22 10 41 10 19 0 34 -4 34 -10 0 -5 -6 -10 -14 -10 -26 0 -66 -41 -66 -68 0 -15 -7 -36 -15 -46 -12 -16 -12 -23 0 -45 7 -14 16 -34 19 -43 7 -23 27 -23 71 2 51 28 63 25 76 -19 14 -47 36 -60 48 -28 5 12 14 34 20 49 l11 28 52 -21 c29 -11 67 -29 83 -39 31 -19 105 -37 105 -26 0 4 -24 41 -54 84 -30 42 -56 90 -58 106 -3 26 -10 32 -60 49 -32 10 -58 23 -58 28 0 16 60 10 102 -11 64 -31 107 -22 60 12 -24 16 -42 51 -42 77 0 25 -31 91 -42 91 -4 0 -8 6 -8 13 0 7 -14 23 -30 35 l-30 23 -11 -28z m-91 -223 c19 -44 32 -51 32 -17 1 32 27 64 41 50 8 -8 7 -17 -5 -34 -9 -13 -16 -35 -16 -49 0 -14 -8 -34 -16 -45 -16 -20 -16 -20 -32 4 -9 13 -18 33 -19 44 -2 12 -10 34 -18 50 -18 37 -18 37 1 37 9 0 23 -17 32 -40z"/>
<path d="M394 3466 c-41 -40 -74 -80 -74 -88 0 -8 -13 -27 -30 -43 -31 -30 -39 -55 -17 -55 20 0 161 41 167 48 7 11 58 32 75 32 8 0 19 -18 25 -41 19 -70 31 -90 47 -78 7 6 13 22 13 35 0 13 5 24 10 24 14 0 13 -53 -2 -85 -6 -14 -19 -25 -28 -25 -18 0 -53 57 -64 103 -6 25 -10 28 -33 22 -35 -8 -62 -30 -100 -81 -18 -23 -45 -49 -60 -56 -15 -7 -29 -22 -31 -33 -2 -11 -10 -27 -18 -36 -22 -24 -8 -27 56 -12 81 18 112 31 105 43 -8 12 47 40 80 40 14 0 27 -6 29 -12 21 -76 38 -128 43 -128 3 0 12 8 19 18 12 15 13 14 14 -14 0 -27 -24 -65 -33 -53 -33 43 -70 120 -72 151 -1 15 -15 20 -15 6 0 -9 -15 -25 -34 -36 -19 -11 -53 -46 -77 -78 -23 -32 -57 -74 -75 -94 -18 -20 -35 -47 -39 -60 -6 -25 -6 -25 61 -22 46 3 64 0 60 -7 -4 -6 -13 -11 -20 -11 -14 0 -102 -99 -116 -132 -6 -13 -19 -36 -29 -53 -11 -16 -20 -33 -20 -36 -1 -4 18 -9 41 -12 37 -5 47 -2 71 20 15 15 27 32 27 38 0 20 47 58 55 45 4 -7 2 -17 -4 -23 -6 -6 -11 -18 -11 -26 0 -8 -10 -25 -22 -38 l-21 -23 29 0 c40 1 64 22 64 57 0 28 15 53 33 53 12 0 -2 -62 -19 -81 -18 -20 -18 -29 0 -29 8 0 25 21 38 47 39 79 77 83 78 7 0 -18 9 -42 19 -55 22 -27 16 -37 55 84 5 15 9 16 26 7 11 -6 20 -17 20 -25 0 -18 27 -45 46 -45 17 0 9 47 -13 68 -16 17 -17 42 0 42 13 0 57 -59 57 -77 0 -16 37 -46 44 -35 3 5 -1 15 -9 22 -16 13 -21 70 -6 70 5 0 16 -16 25 -35 9 -19 26 -41 39 -50 21 -15 68 -20 80 -9 8 8 -21 58 -72 125 -22 30 -41 57 -41 62 0 11 -101 55 -140 60 -19 3 -45 8 -57 12 -21 7 -23 4 -23 -26 0 -19 -9 -49 -20 -67 -18 -29 -23 -32 -37 -20 -9 7 -24 32 -35 54 -21 48 -43 70 -53 54 -3 -5 -21 -10 -38 -10 -31 1 -31 1 -12 16 11 8 20 19 20 25 0 9 50 39 66 39 5 0 11 -12 15 -27 10 -45 36 -113 44 -113 10 0 50 94 50 118 0 12 4 22 8 22 16 0 72 -31 72 -40 0 -14 61 -40 96 -40 18 0 36 -4 39 -10 3 -5 11 -10 17 -10 6 0 2 10 -10 23 -12 13 -22 31 -22 40 0 9 -4 17 -10 17 -5 0 -10 9 -10 19 0 20 -66 132 -111 190 -29 37 -49 35 -49 -5 0 -14 -4 -22 -10 -19 -5 3 -10 22 -10 41 0 33 1 34 38 34 43 0 105 -26 97 -40 -5 -9 53 -39 103 -54 25 -8 29 5 7 24 -8 7 -15 21 -15 31 0 10 -11 26 -25 35 -14 9 -25 26 -25 38 0 11 -8 31 -18 42 -17 22 -123 74 -149 74 -8 0 -13 7 -11 18 5 23 26 18 125 -29 44 -21 91 -39 103 -39 21 0 20 3 -14 44 -23 28 -36 55 -36 73 0 38 -48 83 -119 112 -55 22 -70 18 -71 -16 0 -7 -10 -21 -21 -32 -20 -18 -23 -19 -45 -5 -13 9 -28 31 -34 50 -6 19 -18 34 -27 34 -8 0 -48 -33 -89 -74z"/>
<path d="M3735 3196 c-9 -19 -18 -40 -20 -48 -9 -36 -18 -58 -26 -58 -11 0 -39 41 -39 58 0 8 -9 27 -20 42 -22 31 -47 31 -75 0 -9 -10 -23 -16 -31 -13 -9 3 -19 -8 -30 -33 -9 -22 -41 -65 -72 -96 -31 -32 -53 -60 -50 -63 7 -7 92 12 133 30 54 24 136 55 144 55 8 0 15 -23 28 -97 8 -48 -13 -41 -30 10 -15 45 -20 46 -80 24 -50 -18 -56 -26 -71 -83 -8 -32 -20 -53 -33 -60 -26 -12 -114 -109 -107 -117 3 -2 29 1 57 9 48 12 80 24 164 60 49 22 57 18 73 -38 8 -29 20 -52 25 -51 6 1 17 24 25 52 18 61 24 67 53 54 12 -6 51 -24 87 -41 82 -38 130 -54 130 -42 0 6 -25 39 -55 75 -36 42 -55 73 -55 90 0 36 -25 80 -59 104 -33 23 -44 17 -61 -36 -22 -70 -39 -108 -49 -111 -16 -5 -14 42 4 75 8 15 19 46 25 68 18 72 18 72 121 22 95 -47 149 -65 149 -52 0 4 -22 38 -50 75 -27 37 -50 74 -50 82 0 21 -16 33 -83 63 l-56 24 -16 -33z"/>
<path d="M3730 2774 c-6 -14 -10 -30 -10 -35 0 -6 -11 -31 -25 -56 -20 -39 -25 -43 -31 -27 -3 10 -15 37 -25 60 -11 22 -19 45 -19 52 0 21 -18 22 -71 0 -59 -23 -129 -83 -129 -109 0 -17 -72 -89 -90 -89 -16 0 -11 -37 6 -44 39 -15 81 -6 109 24 30 31 55 39 55 17 0 -7 -9 -18 -20 -25 -20 -12 -19 -32 0 -32 5 0 30 18 56 40 50 44 67 46 40 4 -26 -38 -9 -44 22 -7 15 18 39 35 55 39 26 6 27 5 27 -40 0 -58 17 -60 50 -6 28 45 57 51 85 20 10 -11 24 -20 32 -20 20 0 16 23 -7 38 -23 14 -26 32 -6 32 8 0 21 -12 28 -27 15 -30 62 -62 75 -49 4 4 -4 18 -19 31 -26 23 -37 45 -21 45 4 0 28 -18 54 -40 29 -24 58 -40 73 -40 34 0 33 9 -5 56 -17 22 -40 58 -50 82 -10 23 -26 45 -36 48 -10 4 -55 24 -101 45 -46 22 -85 39 -88 39 -2 0 -9 -12 -14 -26z"/>
</g>
</g>
  <g id="id4:id4" transform="matrix(1.25,0,0,1.25,0.0,0.0)"><g transform="translate(0.000000,200.000000) scale(0.040000,-0.040000)" fill="#009800" stroke="none">
<path d="M190 1294 c0 -13 61 -133 70 -139 6 -4 19 -26 30 -50 11 -24 24 -47 30 -50 5 -3 17 -23 26 -43 10 -20 24 -44 31 -53 8 -9 13 -20 12 -25 -4 -21 2 -34 14 -34 16 0 72 -58 80 -82 4 -10 13 -18 22 -18 8 0 15 -6 15 -13 0 -15 211 -227 226 -227 6 0 23 -13 39 -30 16 -16 34 -30 40 -30 6 0 24 -13 40 -30 16 -16 35 -30 42 -30 7 0 13 -6 13 -14 0 -15 402 -221 431 -221 9 0 22 -5 30 -12 8 -6 27 -10 42 -9 15 2 32 -3 38 -11 7 -7 20 -11 29 -8 9 3 23 -1 30 -10 7 -9 22 -13 38 -10 16 2 33 -2 43 -11 10 -9 23 -13 29 -9 6 4 19 0 29 -9 10 -9 27 -14 41 -11 13 3 31 -2 40 -10 10 -9 35 -13 73 -12 37 2 62 -2 69 -10 14 -18 522 -18 537 0 6 8 31 12 70 10 39 -1 63 2 70 11 6 7 23 12 38 10 15 -1 35 4 45 13 9 8 22 12 28 8 6 -4 19 0 29 9 10 9 27 14 41 11 14 -3 31 2 41 11 10 9 23 13 29 9 6 -4 19 0 29 9 10 9 27 14 41 11 14 -3 31 2 41 11 10 9 22 13 27 10 9 -5 168 70 195 93 8 6 21 9 29 6 8 -3 21 1 28 10 7 8 40 28 74 45 34 16 72 40 85 54 14 14 30 26 36 26 6 0 24 13 40 30 16 16 34 30 40 30 6 0 22 12 36 26 13 14 43 34 67 45 23 11 42 25 42 32 0 7 36 48 80 92 44 44 80 84 80 90 0 14 80 90 104 99 12 4 16 12 12 23 -4 10 2 26 17 42 13 14 30 40 38 58 7 17 22 34 32 37 14 3 17 10 12 26 -5 16 -2 23 14 27 20 5 26 15 22 37 -1 5 4 16 12 25 7 9 19 30 27 46 8 17 23 40 33 52 11 12 16 26 12 32 -7 12 -3925 16 -3925 5z"/>
</g>
</g>
  <g id="id5:id5" transform="matrix(1.25,0,0,1.25,0.0,0.0)"><g transform="translate(0.000000,200.000000) scale(0.040000,-0.040000)" fill="#ad0610" stroke="none">
<path d="M1348 4396 c-3 -41 -11 -82 -18 -90 -8 -11 -10 -31 -5 -63 3 -27 9 -87 11 -134 l5 -87 -30 -22 c-40 -28 -41 -62 -2 -91 28 -21 29 -24 27 -102 l-1 -80 -53 -18 c-67 -23 -122 -56 -122 -74 0 -8 -20 -35 -44 -60 -71 -72 -96 -126 -96 -203 0 -88 17 -139 62 -183 21 -20 38 -40 38 -45 0 -4 7 -15 15 -24 13 -14 8 -23 -51 -83 -36 -37 -64 -73 -61 -80 3 -9 85 -12 338 -12 391 0 381 -4 278 97 -62 61 -63 61 -41 76 12 8 22 20 22 27 0 6 12 18 27 26 40 21 53 65 53 179 0 119 -13 152 -90 232 -28 29 -50 54 -50 57 0 14 -71 61 -116 76 -57 19 -64 27 -64 79 0 38 32 106 51 106 17 0 41 49 34 70 -4 11 -23 29 -44 40 -38 19 -38 20 -40 83 -1 51 3 69 19 89 28 37 27 104 -2 127 -17 14 -22 32 -26 82 -6 91 -18 93 -24 5z"/>
<path d="M1791 3400 l0 -375 22 26 c12 14 32 39 44 55 19 26 22 27 22 9 1 -12 -28 -60 -64 -109 -36 -48 -65 -94 -65 -101 0 -7 -11 -23 -25 -36 -13 -13 -25 -31 -25 -39 0 -8 -9 -26 -20 -40 -39 -50 -39 -50 238 -50 l257 1 33 44 c17 24 32 49 32 56 0 6 7 17 16 23 8 6 16 19 18 28 2 16 105 165 133 193 7 8 13 27 13 44 0 19 9 38 25 53 29 28 75 89 75 101 0 13 -508 6 -523 -7 -7 -6 -33 -35 -56 -63 -24 -29 -47 -53 -51 -53 -5 0 -9 110 -10 245 l-1 245 -24 26 c-14 15 -25 33 -25 39 0 7 -9 23 -20 36 -19 24 -19 23 -19 -351z"/>
<path d="M2444 3528 c-18 -36 -20 -57 -16 -126 5 -90 11 -99 58 -88 24 6 25 9 23 74 -2 37 0 72 4 79 8 13 -5 49 -31 81 l-18 23 -20 -43z"/>
<path d="M2012 3538 c-18 -23 -32 -67 -22 -73 5 -3 8 -35 6 -71 -2 -71 9 -98 40 -92 17 3 19 13 19 123 0 102 -2 120 -16 123 -9 1 -21 -3 -27 -10z"/>
<path d="M3076 3201 c-15 -16 -16 -101 -14 -947 l3 -929 50 0 50 0 3 898 c2 793 0 897 -13 897 -8 0 -15 7 -15 15 0 8 -11 30 -24 49 -22 34 -24 34 -40 17z"/>
<path d="M536 2604 c-9 -24 -7 -1257 3 -1272 5 -9 25 -12 62 -10 l54 3 3 643 c1 353 -2 642 -6 642 -5 0 -18 -11 -30 -25 -19 -22 -25 -23 -42 -13 -11 7 -20 18 -20 25 0 19 -17 24 -24 7z"/>
<path d="M3727 2492 c-34 -33 -39 -35 -50 -21 -9 12 -11 -110 -9 -555 1 -314 4 -577 7 -584 3 -9 20 -12 52 -10 l48 3 3 594 c1 327 -1 598 -6 603 -4 4 -25 -9 -45 -30z"/>
</g>
</g>
  <g id="id6:id6" transform="matrix(1.25,0,0,1.25,0.0,0.0)"><g transform="translate(0.000000,200.000000) scale(0.040000,-0.040000)" fill="#293a23" stroke="none">
<path d="M25 4968 c-3 -7 -4 -740 -3 -1628 l3 -1615 3 1622 2 1623 2123 3 2122 2 -2123 3 c-1691 1 -2124 -1 -2127 -10z"/>
<path d="M4275 3350 c0 -888 1 -1252 2 -808 2 445 2 1171 0 1615 -1 445 -2 81 -2 -807z"/>
<path d="M1846 4665 c-3 -9 -6 -29 -6 -43 0 -15 -9 -38 -20 -52 -11 -14 -20 -28 -20 -33 0 -4 -21 -39 -46 -77 -33 -50 -45 -76 -41 -92 7 -26 -39 -118 -90 -178 -29 -34 -32 -41 -18 -46 9 -4 30 -2 48 5 l32 11 -32 -5 c-19 -3 -33 0 -33 6 0 5 17 33 38 62 21 29 45 65 53 81 7 16 26 37 41 45 16 9 28 22 28 29 0 25 16 11 29 -25 17 -49 29 -63 52 -63 12 0 19 7 19 20 0 11 -6 20 -14 20 -18 0 -26 22 -26 70 0 51 -13 57 -53 26 -34 -26 -57 -33 -57 -17 0 5 7 14 16 22 20 16 97 156 105 189 3 14 11 24 18 22 15 -3 11 30 -5 35 -6 2 -14 -3 -18 -12z m-26 -250 c0 -8 -7 -15 -15 -15 -16 0 -20 12 -8 23 11 12 23 8 23 -8z m-50 -35 c0 -5 -7 -10 -15 -10 -8 0 -15 5 -15 10 0 6 7 10 15 10 8 0 15 -4 15 -10z"/>
<path d="M1881 4590 c0 -8 20 -53 44 -99 25 -46 43 -86 40 -89 -3 -3 -18 7 -33 21 -42 40 -52 35 -52 -28 0 -30 5 -55 10 -55 9 0 15 21 11 43 0 4 4 7 9 7 6 0 10 -6 10 -13 0 -8 12 -20 26 -27 24 -14 45 -43 93 -135 12 -22 21 -34 21 -27 0 19 -66 140 -83 153 -4 3 -1 12 8 19 21 17 19 25 -15 76 -17 24 -44 72 -60 106 -16 35 -29 56 -29 48z m49 -181 c0 -5 -6 -9 -14 -9 -15 0 -28 24 -19 34 7 7 33 -13 33 -25z m30 -29 c0 -5 -7 -10 -16 -10 -8 0 -12 5 -9 10 3 6 10 10 16 10 5 0 9 -4 9 -10z"/>
<path d="M3092 4523 c-49 -103 -87 -171 -106 -192 -10 -11 -16 -27 -13 -34 3 -8 0 -20 -6 -26 -6 -6 -8 -14 -4 -17 3 -4 12 5 18 20 7 14 18 26 26 26 17 0 17 17 1 23 -10 3 -8 9 5 24 9 11 17 26 17 33 0 7 13 34 29 59 17 25 39 68 51 94 11 26 24 47 29 47 4 0 20 -26 34 -57 15 -32 36 -76 48 -98 50 -94 60 -116 54 -125 -3 -5 5 -31 19 -57 14 -26 25 -41 25 -33 1 8 -8 29 -18 46 -14 23 -16 35 -8 43 8 8 5 17 -11 34 -12 13 -22 30 -22 38 0 8 -12 35 -28 60 -15 24 -32 55 -38 69 -6 14 -17 40 -25 58 -21 49 -41 40 -77 -35z"/>
<path d="M1345 4467 c-4 -53 -5 -101 -2 -109 3 -7 6 16 6 52 1 75 18 72 24 -5 2 -27 3 -18 1 20 -2 66 -11 125 -19 133 -1 2 -6 -39 -10 -91z"/>
<path d="M3176 4366 c-7 -37 -40 -85 -51 -75 -3 4 -7 27 -8 53 -1 25 -5 46 -9 46 -5 0 -8 -5 -8 -10 0 -6 -14 -19 -32 -30 -17 -10 -33 -26 -34 -35 -3 -18 1 -18 27 -4 17 9 22 5 40 -35 11 -26 25 -46 32 -45 9 0 9 2 0 6 -19 7 -16 27 8 41 19 12 20 11 9 -10 -11 -22 -11 -22 5 -3 9 11 22 29 29 40 11 16 17 18 27 8 30 -30 36 2 6 35 -9 10 -17 26 -17 35 0 31 -18 18 -24 -17z m32 -24 c2 -7 -3 -12 -12 -12 -9 0 -16 7 -16 16 0 17 22 14 28 -4z m-108 -2 c0 -5 -4 -10 -9 -10 -5 0 -18 -3 -28 -6 -16 -5 -16 -4 1 10 23 18 36 20 36 6z"/>
<path d="M1380 4333 c0 -6 8 -17 18 -24 16 -13 16 -13 2 6 -8 11 -16 22 -17 24 -2 2 -3 0 -3 -6z"/>
<path d="M1322 4308 c-7 -7 -11 -28 -10 -47 l1 -36 4 35 c3 19 9 41 15 47 13 16 6 17 -10 1z"/>
<path d="M3250 4310 c0 -5 5 -10 10 -10 6 0 10 5 10 10 0 6 -4 10 -10 10 -5 0 -10 -4 -10 -10z"/>
<path d="M1423 4255 c0 -27 2 -38 4 -22 2 15 2 37 0 50 -2 12 -4 0 -4 -28z"/>
<path d="M2951 4230 c-1 -8 -15 -33 -31 -54 -17 -22 -30 -46 -30 -53 0 -7 -9 -21 -20 -30 -11 -10 -20 -25 -20 -35 0 -14 7 -16 38 -11 20 3 45 10 55 15 11 5 17 5 17 -2 0 -7 6 -7 20 0 11 5 29 15 40 20 31 16 38 12 50 -22 13 -39 55 -74 66 -56 4 6 0 16 -8 22 -19 14 -48 80 -48 108 0 16 -5 19 -22 14 -13 -3 -26 -6 -30 -6 -3 0 -9 -13 -13 -30 -4 -16 -11 -30 -16 -30 -6 0 -7 5 -4 10 9 14 3 13 -46 -10 -67 -30 -120 -24 -69 8 11 7 20 20 20 30 0 10 14 34 31 55 17 21 29 45 26 55 -3 12 -5 13 -6 2z m111 -122 c-9 -9 -15 -9 -24 0 -10 10 -10 15 2 22 20 12 38 -6 22 -22z m38 -71 c0 -5 -4 -5 -10 -2 -5 3 -10 14 -10 23 0 15 2 15 10 2 5 -8 10 -19 10 -23z"/>
<path d="M1755 4205 c-16 -7 -30 -19 -30 -26 0 -7 -6 -14 -14 -17 -9 -3 -11 0 -6 9 6 11 5 11 -5 2 -23 -21 -2 -32 31 -16 23 12 28 18 18 24 -8 5 -9 9 -4 9 25 0 55 -42 55 -78 0 -10 12 -29 26 -43 25 -24 26 -24 40 -5 8 11 14 39 14 63 0 48 3 49 53 28 45 -18 47 -19 47 0 0 19 -90 59 -104 45 -5 -5 -12 -28 -15 -51 -6 -46 -30 -66 -32 -27 -1 31 -23 91 -35 94 -5 1 -22 -4 -39 -11z m45 -16 c0 -6 -4 -7 -10 -4 -5 3 -10 11 -10 16 0 6 5 7 10 4 6 -3 10 -11 10 -16z m105 1 c3 -5 2 -10 -4 -10 -5 0 -13 5 -16 10 -3 6 -2 10 4 10 5 0 13 -4 16 -10z m45 -20 c13 -8 13 -10 -2 -10 -9 0 -20 5 -23 10 -8 13 5 13 25 0z m-90 -96 c0 -17 -22 -14 -28 4 -2 7 3 12 12 12 9 0 16 -7 16 -16z"/>
<path d="M1320 4201 c0 -6 4 -13 10 -16 6 -3 7 1 4 9 -7 18 -14 21 -14 7z"/>
<path d="M1399 4183 c-13 -16 -12 -17 4 -4 9 7 17 15 17 17 0 8 -8 3 -21 -13z"/>
<path d="M2060 4161 c0 -8 -11 -10 -37 -5 -44 8 -40 -3 6 -16 25 -7 33 -6 38 6 3 8 3 18 -1 21 -3 4 -6 1 -6 -6z"/>
<path d="M3326 4145 c4 -16 14 -42 22 -57 21 -36 12 -42 -33 -24 -43 18 -67 21 -45 5 12 -8 11 -10 -5 -7 -11 2 -18 7 -17 12 2 5 -2 13 -10 17 -18 12 -31 11 -23 -1 3 -5 2 -10 -4 -10 -5 0 -12 14 -16 30 -4 17 -10 30 -15 30 -5 0 -15 3 -24 6 -13 5 -16 -3 -16 -50 0 -32 4 -56 10 -56 7 0 8 18 4 50 -6 44 -5 50 10 44 18 -7 21 -20 6 -29 -12 -7 -14 -26 -2 -23 4 1 24 -6 46 -15 21 -9 44 -17 50 -17 6 0 22 -7 34 -16 12 -8 22 -10 22 -5 0 6 -4 11 -10 11 -5 0 -10 4 -10 9 0 6 16 3 35 -5 31 -13 36 -13 41 0 3 9 -4 27 -15 42 -12 15 -21 34 -21 43 0 9 -5 23 -10 31 -8 11 -9 7 -4 -15z"/>
<path d="M1383 4110 c0 -30 2 -43 4 -27 2 15 2 39 0 55 -2 15 -4 2 -4 -28z"/>
<path d="M1998 4123 c10 -25 60 -111 89 -153 18 -28 20 -36 9 -38 -8 -2 -26 4 -41 14 -14 9 -28 15 -30 12 -3 -3 15 -16 40 -29 64 -34 78 -16 33 43 -18 24 -46 72 -63 106 -16 33 -33 61 -37 62 -4 0 -4 -8 0 -17z"/>
<path d="M1673 4070 c-11 -18 -31 -39 -45 -48 -14 -10 -40 -34 -58 -55 -41 -47 -31 -65 27 -47 21 6 51 16 68 21 19 6 31 6 33 0 2 -6 19 -1 38 10 19 10 39 19 44 19 8 0 35 -79 31 -88 -1 -1 6 -16 16 -33 25 -42 47 -34 51 18 3 36 1 41 -15 37 -16 -4 -22 5 -36 50 -10 31 -22 56 -27 56 -5 0 -41 -15 -82 -34 -77 -36 -158 -55 -158 -38 0 6 23 31 51 56 57 51 94 95 86 102 -2 3 -13 -9 -24 -26z m127 -80 c0 -5 -7 -10 -16 -10 -8 0 -12 5 -9 10 3 6 10 10 16 10 5 0 9 -4 9 -10z m70 -145 c0 -8 -4 -15 -9 -15 -13 0 -22 16 -14 24 11 11 23 6 23 -9z"/>
<path d="M580 4060 c0 -5 3 -10 8 -10 10 0 32 -50 32 -72 0 -11 9 -36 20 -58 11 -22 20 -44 20 -50 0 -6 14 -31 30 -55 17 -24 30 -46 30 -49 0 -14 -22 -4 -53 24 -41 36 -47 37 -47 8 0 -24 46 -58 78 -58 16 0 62 -80 62 -107 0 -12 39 -83 46 -83 2 0 -5 20 -16 45 -11 25 -29 65 -40 90 -11 25 -20 54 -20 65 0 11 -13 41 -30 67 -16 26 -30 53 -30 60 0 7 -9 27 -20 45 -11 18 -20 43 -20 56 0 12 -4 30 -9 40 -5 9 -12 25 -15 35 -6 18 -26 24 -26 7z m114 -308 c-6 -9 -64 33 -64 46 0 9 12 4 33 -15 19 -15 33 -30 31 -31z"/>
<path d="M1380 4041 c0 -6 4 -13 10 -16 6 -3 7 1 4 9 -7 18 -14 21 -14 7z"/>
<path d="M531 3965 c-22 -42 -41 -82 -41 -89 0 -7 -11 -27 -25 -46 -32 -44 -32 -54 1 -15 13 17 27 41 31 54 3 13 23 55 44 94 22 38 37 72 35 74 -2 2 -22 -30 -45 -72z"/>
<path d="M2933 4012 c-78 -81 -113 -122 -113 -132 0 -7 -10 -20 -22 -30 -36 -29 -13 -45 43 -30 132 35 124 35 110 -1 -5 -13 -21 -36 -36 -51 -14 -16 -22 -28 -17 -28 11 0 55 57 65 82 3 10 22 24 42 32 19 8 35 20 35 25 0 6 7 11 15 11 9 0 15 -9 15 -22 0 -33 47 -128 62 -127 10 0 10 2 1 6 -15 6 -17 33 -3 33 6 0 10 -5 10 -11 0 -5 5 -7 10 -4 6 4 8 16 4 27 -4 13 -2 18 4 14 10 -6 32 50 32 82 0 19 31 14 37 -6 4 -18 53 -41 96 -47 12 -1 41 -8 65 -15 23 -7 45 -10 48 -7 4 3 -2 23 -13 44 -26 53 -95 154 -101 149 -2 -3 14 -31 37 -63 23 -33 41 -64 41 -70 0 -6 7 -16 15 -23 36 -30 -22 -29 -78 1 -10 5 -22 7 -28 4 -5 -4 -9 -3 -8 2 4 23 -2 43 -14 43 -7 0 -32 9 -55 20 -22 11 -45 20 -50 20 -13 0 -29 -46 -37 -102 -3 -27 -10 -48 -14 -48 -10 0 -31 69 -31 101 0 38 -14 53 -36 40 -18 -10 -18 -10 1 -11 19 -1 19 -1 1 -11 -14 -9 -20 -8 -27 2 -6 11 -11 11 -21 1 -6 -6 -20 -12 -29 -12 -9 0 -19 -8 -21 -18 -5 -19 -52 -36 -128 -48 l-45 -7 23 25 c12 13 22 28 22 33 0 4 27 39 61 77 33 37 58 68 55 68 -3 0 -14 -8 -23 -18z m272 -92 c3 -5 -1 -10 -9 -10 -9 0 -16 5 -16 10 0 6 4 10 9 10 6 0 13 -4 16 -10z m-118 -57 c-3 -10 -5 -4 -5 12 0 17 2 24 5 18 2 -7 2 -21 0 -30z m-67 17 c0 -5 -9 -10 -20 -10 -11 0 -20 5 -20 10 0 6 9 10 20 10 11 0 20 -4 20 -10z m270 0 c0 -5 -9 -10 -21 -10 -11 0 -17 5 -14 10 3 6 13 10 21 10 8 0 14 -4 14 -10z m-183 -82 c-3 -8 -6 -5 -6 6 -1 11 2 17 5 13 3 -3 4 -12 1 -19z"/>
<path d="M1299 3999 l-24 -20 28 17 c15 9 27 18 27 20 0 8 -8 4 -31 -17z"/>
<path d="M1881 3968 l1 -53 14 32 14 32 47 -21 c61 -26 91 -53 96 -87 l4 -26 2 26 c0 16 -9 37 -26 55 -15 16 -26 32 -25 37 1 4 -10 12 -25 18 -16 6 -41 17 -57 25 -43 21 -46 19 -45 -38z m49 22 c18 -12 2 -12 -25 0 -13 6 -15 9 -5 9 8 0 22 -4 30 -9z m60 -26 c0 -2 -7 -4 -15 -4 -8 0 -15 4 -15 10 0 5 7 7 15 4 8 -4 15 -8 15 -10z"/>
<path d="M3680 3969 c0 -5 5 -7 10 -4 6 3 10 8 10 11 0 2 -4 4 -10 4 -5 0 -10 -5 -10 -11z"/>
<path d="M1271 3954 c0 -11 3 -14 6 -6 3 7 2 16 -1 19 -3 4 -6 -2 -5 -13z"/>
<path d="M1470 3951 c0 -7 -12 -25 -27 -39 -16 -15 -34 -35 -42 -45 -12 -15 -12 -17 3 -11 9 3 16 12 16 19 0 7 6 15 14 18 19 7 51 56 42 64 -3 3 -6 1 -6 -6z"/>
<path d="M3666 3909 c-4 -22 -16 -58 -26 -80 -11 -21 -18 -39 -15 -39 10 0 45 80 51 119 4 23 4 41 2 41 -3 0 -8 -18 -12 -41z"/>
<path d="M3706 3930 c14 -65 23 -88 44 -130 12 -25 36 -60 53 -77 38 -40 28 -55 -16 -23 -30 22 -31 22 -13 2 21 -24 11 -29 -16 -8 -21 15 -23 32 -5 39 9 4 9 6 -1 6 -14 1 -51 -73 -52 -101 0 -38 -18 -15 -26 34 -5 28 -15 53 -22 56 -7 2 -10 -2 -6 -12 3 -9 1 -16 -5 -16 -6 0 -11 4 -11 10 0 5 -16 1 -36 -11 -44 -24 -51 -20 -28 18 l18 28 -27 -27 c-24 -22 -27 -32 -22 -60 5 -26 1 -40 -15 -61 -12 -16 -20 -30 -17 -33 3 -3 13 8 23 25 10 17 22 31 26 31 4 0 8 7 8 15 0 14 68 50 78 41 2 -3 8 -20 12 -38 l8 -33 1 30 c2 29 2 29 16 -10 18 -50 18 -50 0 -35 -8 7 -15 8 -15 2 0 -10 29 -37 33 -31 5 7 35 74 46 102 l11 28 30 -23 c16 -12 30 -28 30 -35 0 -7 4 -13 8 -13 5 0 16 -15 26 -32 9 -18 13 -24 9 -13 -4 11 -8 40 -8 65 -2 43 -27 100 -46 100 -9 0 -69 121 -69 141 -1 8 -7 28 -16 44 -12 26 -13 26 -8 5z m26 -252 c-7 -7 -12 -8 -12 -2 0 6 3 14 7 17 3 4 9 5 12 2 2 -3 -1 -11 -7 -17z m83 -8 c3 -5 2 -10 -4 -10 -5 0 -13 5 -16 10 -3 6 -2 10 4 10 5 0 13 -4 16 -10z m-98 -42 c-3 -8 -6 -5 -6 6 -1 11 2 17 5 13 3 -3 4 -12 1 -19z"/>
<path d="M1303 3906 c15 -14 27 -28 26 -32 0 -3 2 -8 4 -11 3 -3 4 2 3 11 -1 8 -15 25 -32 36 l-29 22 28 -26z"/>
<path d="M1676 3888 c-8 -19 -35 -57 -60 -85 -25 -28 -46 -56 -46 -62 0 -6 16 -10 38 -10 l37 2 -32 6 -32 6 49 56 c47 54 76 106 65 117 -2 3 -11 -11 -19 -30z"/>
<path d="M1383 3795 c0 -27 2 -38 4 -22 2 15 2 37 0 50 -2 12 -4 0 -4 -28z"/>
<path d="M2060 3831 c0 -8 11 -29 25 -47 14 -18 25 -35 25 -38 0 -11 -37 -6 -66 8 -72 35 -124 56 -138 56 -15 0 -35 -65 -23 -76 2 -3 8 11 11 31 4 19 11 35 15 35 5 0 42 -16 84 -35 87 -40 127 -45 127 -16 0 11 -4 21 -9 23 -5 2 -18 19 -30 38 -11 19 -21 29 -21 21z"/>
<path d="M515 3804 c-11 -8 -20 -20 -20 -26 0 -6 -6 -13 -14 -16 -8 -3 -11 -1 -8 4 3 5 -5 9 -17 9 -16 0 -22 -5 -18 -17 2 -9 -10 -37 -27 -62 -17 -24 -31 -50 -31 -56 0 -10 -42 -68 -83 -114 -34 -39 21 -39 117 0 19 7 19 7 0 -24 -10 -18 -22 -32 -26 -32 -11 0 -78 -74 -78 -87 0 -7 -13 -27 -29 -45 -16 -19 -31 -42 -33 -53 -2 -17 2 -19 27 -17 30 3 101 23 140 38 13 5 3 -13 -30 -52 -27 -32 -54 -62 -60 -66 -6 -5 -6 -8 2 -8 6 0 29 21 50 47 21 26 47 55 58 65 26 22 68 33 73 19 2 -6 10 -11 18 -11 8 0 14 -7 14 -16 0 -8 -4 -12 -10 -9 -15 10 -12 -4 12 -46 25 -45 50 -50 66 -14 7 14 12 28 12 30 0 5 -23 0 -36 -7 -12 -8 -27 19 -44 81 -6 23 -17 41 -25 41 -17 0 -68 -21 -75 -32 -6 -7 -147 -48 -167 -48 -22 0 -14 25 17 55 17 16 30 35 30 43 0 19 144 162 163 162 9 0 21 -15 27 -34 6 -19 21 -41 34 -50 22 -14 25 -13 45 5 11 11 21 25 21 32 0 7 4 18 8 25 12 17 107 -22 150 -62 17 -16 32 -26 32 -22 0 5 -17 25 -37 44 -24 22 -30 33 -18 28 11 -4 32 -10 48 -13 29 -6 36 8 17 37 -8 13 -10 12 -10 -4 0 -16 -5 -17 -36 -11 -29 5 -111 38 -155 62 -4 2 -9 -6 -12 -19 -3 -13 -8 -34 -12 -48 -5 -20 -4 -22 5 -10 9 13 11 12 8 -5 -3 -14 -10 -19 -23 -17 -24 5 -32 16 -45 65 -6 20 -15 37 -20 37 -11 0 -63 -23 -70 -30 -14 -16 -130 -47 -130 -35 0 3 18 30 40 60 22 30 40 59 40 65 0 22 61 93 95 110 l36 18 21 -44 c26 -56 32 -59 57 -32 32 33 25 78 -6 47 -17 -17 -33 -2 -33 30 0 39 -19 54 -45 35z m25 -14 c0 -5 -7 -10 -16 -10 -8 0 -12 5 -9 10 3 6 10 10 16 10 5 0 9 -4 9 -10z m60 -80 c-6 -11 -15 -20 -20 -20 -16 0 -11 18 8 29 24 14 24 14 12 -9z m-81 -166 c3 -16 1 -17 -13 -5 -19 16 -21 34 -3 29 6 -3 14 -13 16 -24z m116 6 c3 -5 -1 -10 -9 -10 -9 0 -16 5 -16 10 0 6 4 10 9 10 6 0 13 -4 16 -10z m-95 -68 c0 -15 -2 -15 -10 -2 -13 20 -13 33 0 25 6 -3 10 -14 10 -23z m-20 -142 c0 -5 -4 -10 -9 -10 -6 0 -13 5 -16 10 -3 6 1 10 9 10 9 0 16 -4 16 -10z m40 -101 c0 -6 -4 -7 -10 -4 -5 3 -10 11 -10 16 0 6 5 7 10 4 6 -3 10 -11 10 -16z m40 -18 c0 -12 -20 -25 -27 -18 -7 7 6 27 18 27 5 0 9 -4 9 -9z"/>
<path d="M3320 3816 c0 -12 33 -55 80 -106 41 -45 42 -45 17 -48 -15 -2 -61 14 -110 38 -113 56 -127 53 -148 -29 -16 -66 -21 -68 -33 -16 -18 81 -34 96 -76 75 -11 -5 -29 -14 -40 -20 -11 -5 -27 -10 -35 -10 -8 0 -15 -3 -15 -8 0 -8 -92 -32 -123 -32 -20 0 -23 15 -4 27 6 4 20 19 31 33 10 14 -2 3 -27 -23 -49 -51 -52 -77 -10 -77 17 0 23 4 20 13 -7 19 103 42 115 24 4 -6 8 -7 8 -2 0 13 97 48 110 40 6 -3 10 -17 10 -31 0 -26 33 -98 49 -108 11 -7 39 34 44 65 11 64 21 89 32 89 20 0 75 -56 75 -77 0 -10 8 -27 17 -38 l16 -20 -8 20 c-4 11 -10 30 -12 42 -3 12 -16 34 -29 48 -28 30 -8 34 28 6 14 -11 43 -26 65 -33 26 -8 39 -17 36 -25 -4 -9 5 -13 26 -13 22 0 31 5 31 17 0 17 -37 70 -71 102 -11 10 -31 33 -44 52 -14 18 -25 29 -25 25z m-230 -96 c0 -5 -2 -10 -4 -10 -3 0 -8 5 -11 10 -3 6 -1 10 4 10 6 0 11 -4 11 -10z m121 1 c-7 -5 -17 -15 -22 -22 -6 -10 -9 -8 -9 9 0 16 6 22 23 22 16 0 18 -3 8 -9z m-214 -37 c-3 -3 -12 -4 -19 -1 -8 3 -5 6 6 6 11 1 17 -2 13 -5z m153 -106 c0 -6 -7 -5 -15 2 -8 7 -15 17 -15 22 0 6 7 5 15 -2 8 -7 15 -17 15 -22z"/>
<path d="M1755 3783 c-27 -13 -61 -29 -75 -33 -17 -6 -19 -9 -7 -9 10 -1 35 8 57 19 22 11 42 20 45 20 3 0 5 -169 5 -375 0 -329 2 -376 15 -382 14 -5 14 -8 0 -29 -24 -37 -11 -28 21 13 15 20 22 33 14 28 -10 -6 -12 -4 -6 10 7 18 6 18 -14 0 l-20 -18 0 374 c1 373 1 374 20 350 11 -13 20 -19 20 -15 0 11 20 -18 20 -29 0 -5 -5 -5 -12 -1 -6 4 -8 3 -5 -4 4 -5 16 -8 27 -5 18 5 19 7 5 17 -9 6 -22 29 -29 51 -8 22 -18 40 -22 42 -5 1 -31 -10 -59 -24z m65 -9 c0 -12 -4 -12 -20 -2 -13 8 -16 15 -8 19 15 10 28 2 28 -17z"/>
<path d="M3600 3758 c-12 -22 -12 -22 6 -6 10 10 15 20 12 24 -4 3 -12 -5 -18 -18z"/>
<path d="M1320 3730 c-9 -6 -10 -10 -3 -10 6 0 15 5 18 10 8 12 4 12 -15 0z"/>
<path d="M1400 3730 c8 -5 20 -10 25 -10 6 0 3 5 -5 10 -8 5 -19 10 -25 10 -5 0 -3 -5 5 -10z"/>
<path d="M1450 3716 c0 -2 7 -7 16 -10 8 -3 12 -2 9 4 -6 10 -25 14 -25 6z"/>
<path d="M1215 3690 c-3 -6 1 -7 9 -4 18 7 21 14 7 14 -6 0 -13 -4 -16 -10z"/>
<path d="M1515 3680 c10 -11 20 -20 23 -20 3 0 -3 9 -13 20 -10 11 -20 20 -23 20 -3 0 3 -9 13 -20z"/>
<path d="M1174 3664 c-18 -14 -18 -15 4 -4 12 6 22 13 22 15 0 8 -5 6 -26 -11z"/>
<path d="M1865 3664 c13 -9 15 -49 17 -240 2 -247 6 -218 10 72 l3 182 -23 -2 c-19 -1 -20 -3 -7 -12z"/>
<path d="M1580 3617 c0 -2 15 -16 33 -33 l32 -29 -29 33 c-28 30 -36 37 -36 29z"/>
<path d="M2950 3606 c0 -7 -27 -43 -61 -80 -33 -36 -56 -66 -50 -66 14 0 121 130 121 147 0 7 -2 13 -5 13 -3 0 -5 -6 -5 -14z"/>
<path d="M1109 3583 c-13 -16 -12 -17 4 -4 9 7 17 15 17 17 0 8 -8 3 -21 -13z"/>
<path d="M2450 3572 c0 -10 -7 -27 -15 -38 -8 -10 -14 -26 -15 -34 0 -8 10 4 22 27 12 23 25 40 30 37 4 -3 8 2 8 10 0 9 -7 16 -15 16 -8 0 -15 -8 -15 -18z"/>
<path d="M2009 3548 c-11 -21 -11 -22 4 -9 9 7 24 10 33 7 14 -5 15 -4 4 9 -17 21 -27 19 -41 -7z"/>
<path d="M1074 3538 l-19 -23 23 19 c21 18 27 26 19 26 -2 0 -12 -10 -23 -22z"/>
<path d="M3320 3548 c0 -9 23 -40 50 -69 28 -28 49 -54 46 -56 -7 -8 -96 20 -96 29 0 4 -16 8 -35 8 -39 0 -47 -15 -12 -25 61 -19 114 -50 125 -74 25 -57 102 -151 123 -151 17 0 20 -5 16 -21 -6 -21 -6 -21 16 -2 38 34 54 35 77 4 11 -16 20 -35 20 -43 0 -17 28 -58 39 -58 8 0 17 22 26 58 2 8 11 29 20 48 l16 33 56 -24 c67 -30 83 -42 83 -63 0 -8 23 -45 50 -82 28 -37 50 -71 50 -75 0 -13 -54 5 -149 52 -103 50 -103 51 -121 -22 -6 -22 -16 -51 -23 -65 -6 -14 -13 -29 -15 -34 -3 -5 0 -6 7 -2 7 5 11 -1 11 -14 0 -12 -4 -18 -10 -15 -5 3 -10 1 -10 -5 0 -22 24 -4 31 23 4 16 3 25 -2 21 -12 -7 -11 7 1 26 9 13 10 13 10 0 0 -13 1 -13 10 0 13 20 12 39 -1 20 -8 -12 -9 -10 -7 10 2 14 6 23 10 20 4 -3 15 5 24 18 l16 23 36 -28 c21 -15 31 -19 23 -10 -18 22 -6 35 17 19 57 -42 162 -67 162 -39 0 9 -4 19 -10 22 -21 13 -97 122 -104 148 -5 23 -3 27 16 28 22 1 21 1 -3 9 -14 4 -37 14 -50 23 -13 9 -48 25 -76 36 l-53 21 -11 -21 c-6 -12 -11 -37 -12 -55 -1 -19 -4 -29 -8 -23 -3 6 -9 10 -13 10 -19 -3 -24 3 -35 39 -13 45 -25 48 -76 20 -44 -25 -64 -25 -71 -2 -3 9 -12 29 -19 43 -12 22 -12 29 0 45 23 30 17 40 -6 11 -16 -22 -18 -30 -9 -48 20 -35 -7 -13 -38 34 -16 23 -32 53 -35 65 -5 20 -2 23 14 19 12 -3 22 0 26 9 3 8 13 12 22 9 9 -3 26 2 37 10 10 8 26 15 34 15 9 0 7 -5 -8 -16 -12 -8 -22 -20 -22 -25 0 -6 12 -1 26 10 15 12 33 21 40 21 8 0 14 5 14 10 0 6 -15 10 -34 10 -19 0 -38 -4 -41 -10 -8 -13 -65 -13 -65 -1 0 5 6 12 13 14 9 4 9 6 -1 6 -7 1 -15 -6 -18 -14 -9 -22 -51 10 -86 64 -15 25 -28 38 -28 29z m-13 -104 c-3 -3 -12 -4 -19 -1 -8 3 -5 6 6 6 11 1 17 -2 13 -5z m323 -204 c0 -5 -4 -10 -10 -10 -5 0 -10 5 -10 10 0 6 5 10 10 10 6 0 10 -4 10 -10z m110 -11 c-7 -11 -14 -18 -17 -15 -8 8 5 36 17 36 7 0 7 -6 0 -21z m-50 -107 c0 -21 -2 -24 -10 -12 -13 20 -13 53 0 45 6 -3 10 -18 10 -33z m66 -79 c-10 -10 -19 5 -10 18 6 11 8 11 12 0 2 -7 1 -15 -2 -18z"/>
<path d="M1640 3546 c0 -2 8 -10 18 -17 15 -13 16 -12 3 4 -13 16 -21 21 -21 13z"/>
<path d="M2491 3535 c9 -11 19 -27 22 -35 5 -13 6 -13 6 1 1 9 -9 24 -21 35 -23 19 -23 19 -7 -1z"/>
<path d="M3477 3507 l-18 -32 21 21 c13 12 21 27 19 33 -2 6 -12 -4 -22 -22z"/>
<path d="M3861 3522 c-1 -19 19 -55 41 -70 47 -34 4 -43 -60 -12 -42 21 -102 27 -102 11 0 -15 112 -46 153 -43 42 4 48 19 16 48 -11 10 -27 32 -34 49 -7 16 -14 24 -14 17z"/>
<path d="M2062 3490 c0 -19 2 -27 5 -17 2 9 2 25 0 35 -3 9 -5 1 -5 -18z"/>
<path d="M1045 3499 c-4 -6 -5 -12 -2 -15 2 -3 7 2 10 11 7 17 1 20 -8 4z"/>
<path d="M1676 3497 c3 -10 9 -15 12 -12 3 3 0 11 -7 18 -10 9 -11 8 -5 -6z"/>
<path d="M3048 3483 c-24 -6 -23 -20 1 -28 12 -4 21 -19 25 -43 9 -48 37 -102 54 -102 10 0 10 4 -2 16 -21 21 -20 24 6 21 19 -2 23 5 31 43 5 25 9 55 9 68 0 12 4 22 10 22 5 0 6 -4 3 -10 -4 -6 5 -10 19 -10 14 0 26 4 26 9 0 8 -33 21 -56 21 -17 0 -34 -46 -34 -90 0 -55 -14 -50 -30 10 -15 55 -35 79 -62 73z m46 -58 c3 -8 1 -15 -4 -15 -6 0 -10 7 -10 15 0 8 2 15 4 15 2 0 6 -7 10 -15z m13 -57 c-3 -7 -5 -2 -5 12 0 14 2 19 5 13 2 -7 2 -19 0 -25z"/>
<path d="M3603 3468 c2 -7 9 -13 15 -13 5 0 14 -4 19 -9 5 -5 2 -6 -6 -1 -11 6 -12 2 -6 -21 4 -16 8 -33 9 -39 4 -23 28 -55 39 -54 9 0 9 2 0 6 -19 7 -15 24 5 21 14 -2 17 4 15 36 -2 22 0 36 4 33 3 -4 13 2 21 14 10 15 11 24 3 32 -14 14 -40 -18 -41 -50 0 -34 -13 -27 -32 17 -10 24 -23 40 -33 40 -9 0 -15 -6 -12 -12z"/>
<path d="M1987 3449 c4 -13 8 -18 11 -10 2 7 -1 18 -6 23 -8 8 -9 4 -5 -13z"/>
<path d="M2506 3455 c-9 -26 -7 -32 5 -12 6 10 9 21 6 23 -2 3 -7 -2 -11 -11z"/>
<path d="M2422 3395 c-1 -45 3 -76 10 -83 10 -10 -33 -12 -205 -12 -192 1 -218 3 -228 18 -9 15 -10 15 -5 -2 4 -10 1 -26 -6 -34 -11 -13 -11 -14 1 -7 18 11 31 11 301 13 184 2 228 5 219 15 -6 6 -26 12 -43 12 l-31 0 -6 75 -5 75 -2 -70z"/>
<path d="M2798 3449 c-10 -5 -18 -17 -18 -24 0 -18 53 -20 99 -4 38 13 48 8 26 -14 -8 -9 -15 -22 -15 -30 0 -7 -25 -42 -56 -76 -31 -34 -54 -64 -52 -66 7 -7 118 125 118 139 0 19 30 42 73 57 20 7 37 17 37 21 0 13 -36 9 -112 -12 -40 -11 -81 -20 -92 -20 -18 0 -19 1 -1 20 20 22 18 24 -7 9z"/>
<path d="M1703 3375 c0 -33 2 -45 4 -27 2 18 2 45 0 60 -2 15 -4 0 -4 -33z"/>
<path d="M801 3397 c-1 -19 11 -44 35 -73 34 -41 35 -44 14 -44 -12 0 -59 18 -103 39 -99 47 -120 52 -125 29 -2 -11 3 -18 11 -18 26 0 131 -52 151 -74 18 -21 18 -21 2 7 -19 31 -11 34 30 12 66 -34 86 -4 33 51 -17 18 -35 47 -39 66 -8 32 -8 32 -9 5z m-156 -47 c3 -5 1 -10 -4 -10 -6 0 -11 5 -11 10 0 6 2 10 4 10 3 0 8 -4 11 -10z"/>
<path d="M1013 3370 c0 -30 2 -43 4 -27 2 15 2 39 0 55 -2 15 -4 2 -4 -28z"/>
<path d="M1992 3380 c0 -19 2 -27 5 -17 2 9 2 25 0 35 -3 9 -5 1 -5 -18z"/>
<path d="M3860 3355 c0 -4 25 -43 55 -86 30 -43 55 -80 55 -83 0 -2 -8 -7 -17 -9 -14 -4 -13 -5 4 -6 28 -1 41 19 21 33 -8 6 -36 43 -62 81 -53 78 -56 82 -56 70z"/>
<path d="M600 3285 c0 -8 5 -15 10 -15 6 0 10 7 10 15 0 8 -4 15 -10 15 -5 0 -10 -7 -10 -15z"/>
<path d="M1020 3276 c0 -8 4 -17 9 -20 5 -4 7 3 4 14 -6 23 -13 26 -13 6z"/>
<path d="M3270 3268 c0 -7 9 -24 20 -38 11 -14 20 -28 20 -32 0 -17 -31 -6 -52 17 -29 33 -49 31 -70 -5 -24 -42 -45 -38 -59 10 -7 22 -17 40 -23 40 -6 0 -28 -19 -48 -42 -20 -24 -40 -40 -44 -36 -4 5 0 16 9 26 18 19 23 52 9 52 -5 0 -23 -18 -41 -40 -18 -23 -41 -40 -52 -40 -20 0 -20 0 0 26 21 27 28 54 13 54 -4 0 -25 -18 -46 -40 -31 -33 -45 -40 -79 -42 l-42 -1 37 -4 c20 -2 47 1 60 8 16 9 23 9 26 0 4 -13 41 -14 62 -1 9 5 19 5 27 -1 6 -6 21 -8 33 -4 l20 6 0 -923 c0 -688 3 -927 12 -936 8 -8 -35 -10 -182 -6 -106 2 -196 7 -201 10 -11 6 -11 305 0 318 9 11 -8 98 -22 112 -15 15 -6 40 29 77 19 20 42 37 50 37 17 0 18 13 2 43 -16 27 -59 67 -73 67 -5 0 2 -11 16 -24 15 -13 30 -33 34 -45 3 -12 11 -19 16 -16 5 4 9 1 9 -4 0 -6 -9 -11 -19 -11 -11 0 -34 -18 -51 -40 -17 -22 -38 -40 -46 -40 -21 0 -17 -14 11 -40 l25 -24 -2 -205 -3 -206 -245 -2 c-276 -2 -548 -3 -1048 -3 l-342 0 2 802 3 803 330 0 330 0 3 -43 c3 -36 -3 -51 -33 -93 -20 -28 -35 -52 -33 -53 31 -17 97 -20 305 -16 133 3 241 3 241 0 -2 -22 7 -15 38 30 19 28 33 57 30 63 -2 7 -5 4 -5 -6 -1 -10 -6 -15 -11 -12 -6 4 -10 3 -9 -2 3 -20 -2 -33 -13 -30 -7 1 -13 -5 -13 -13 0 -8 -6 -14 -12 -13 -6 1 -132 3 -280 3 l-268 1 28 25 c15 13 25 24 21 24 -4 0 -1 6 8 13 18 13 21 28 19 97 l-1 45 -342 -2 -343 -2 -3 -816 -2 -815 -181 0 c-99 0 -178 3 -176 8 3 4 -20 5 -50 3 -39 -2 -59 1 -65 10 -8 11 -9 10 -4 -3 5 -16 -10 -18 -177 -21 -100 -1 707 -2 1793 -2 1086 0 1895 1 1797 2 -98 2 -176 7 -173 11 3 4 -21 5 -52 1 -77 -10 -564 -11 -559 -1 3 4 -18 7 -46 7 l-52 0 -5 930 c-5 920 -5 930 15 948 11 10 14 16 8 12 -16 -8 -17 7 -1 23 20 20 31 14 24 -12 -4 -18 1 -33 17 -52 l23 -27 37 43 36 43 30 -25 c24 -21 40 -25 91 -26 51 -1 61 2 56 14 -5 13 -3 13 16 -1 41 -28 35 -15 -15 35 -34 35 -54 47 -61 40 -7 -7 -1 -19 17 -38 15 -15 27 -32 27 -36 0 -13 -43 -2 -50 14 -4 8 -13 27 -21 43 -13 27 -39 38 -39 15z m40 -42 c0 -5 -7 -1 -15 10 -8 10 -14 24 -14 29 0 6 6 1 14 -9 8 -11 15 -24 15 -30z m70 2 c0 -6 -7 -5 -15 2 -8 7 -15 17 -15 22 0 6 7 5 15 -2 8 -7 15 -17 15 -22z m-436 -2 c-3 -9 -10 -16 -15 -16 -5 0 -4 9 3 20 14 22 21 20 12 -4z m76 -7 c-7 -11 -14 -18 -17 -15 -3 3 0 12 7 21 18 21 23 19 10 -6z"/>
<path d="M2510 3251 c0 -12 -5 -20 -12 -18 -7 1 -13 -4 -14 -10 -1 -7 -2 -17 -3 -22 0 -5 -12 -12 -26 -15 -14 -4 -23 -11 -20 -16 3 -6 3 -10 -2 -10 -4 0 -9 -11 -9 -25 -1 -14 2 -22 7 -19 5 3 9 12 9 21 0 9 16 31 35 50 43 41 59 69 45 78 -5 3 -10 -3 -10 -14z"/>
<path d="M2555 3250 c10 -11 20 -20 23 -20 3 0 -3 9 -13 20 -10 11 -20 20 -23 20 -3 0 3 -9 13 -20z"/>
<path d="M1954 3238 l-19 -23 23 19 c21 18 27 26 19 26 -2 0 -12 -10 -23 -22z"/>
<path d="M1050 3211 c5 -11 15 -23 21 -27 6 -3 3 5 -6 20 -20 30 -30 35 -15 7z"/>
<path d="M801 3209 c-1 -9 10 -24 24 -33 14 -9 25 -25 25 -35 0 -10 7 -24 15 -31 22 -19 18 -32 -7 -24 -50 15 -108 45 -103 54 8 14 -54 40 -97 40 -37 0 -38 -1 -38 -34 0 -19 5 -38 10 -41 6 -3 10 5 10 19 0 64 37 35 111 -87 22 -38 43 -67 45 -64 3 2 -18 41 -46 85 -27 45 -50 84 -50 87 0 3 7 5 15 5 8 0 15 -7 15 -15 0 -8 11 -17 25 -21 14 -3 42 -15 62 -25 40 -21 73 -25 73 -9 0 18 -42 90 -60 103 -9 6 -19 19 -23 27 -4 13 -6 12 -6 -1z"/>
<path d="M2762 3208 c-14 -14 -16 -28 -3 -28 5 0 11 9 14 20 6 23 5 24 -11 8z"/>
<path d="M1881 3178 c-1 -20 14 -24 25 -6 4 6 3 8 -4 4 -5 -3 -13 0 -15 6 -3 8 -6 6 -6 -4z"/>
<path d="M2610 3175 c9 -11 22 -32 29 -47 8 -15 25 -38 39 -50 20 -18 19 -14 -6 17 -18 22 -32 45 -32 51 0 6 -10 19 -22 30 -23 19 -23 19 -8 -1z"/>
<path d="M3486 3182 c19 -12 -11 -65 -75 -133 -33 -34 -57 -67 -54 -72 7 -11 86 0 131 18 29 13 46 5 22 -10 -5 -3 -10 -11 -10 -18 0 -6 6 -3 13 7 14 19 77 47 110 49 9 1 17 5 17 9 0 4 -8 8 -17 8 -15 0 -16 2 -3 10 26 16 33 11 27 -20 -7 -32 9 -90 25 -90 10 0 8 20 -8 98 -3 17 -10 32 -15 32 -8 0 -90 -31 -144 -55 -41 -18 -126 -37 -133 -30 -3 3 19 31 50 63 31 31 63 74 72 96 20 47 20 46 -1 46 -11 0 -14 -3 -7 -8z m181 -214 c-3 -8 -6 -5 -6 6 -1 11 2 17 5 13 3 -3 4 -12 1 -19z"/>
<path d="M294 3168 c-27 -38 -45 -81 -38 -88 8 -8 87 6 153 26 19 6 22 4 16 -7 -19 -32 -95 -126 -124 -153 -17 -17 -31 -37 -31 -47 0 -9 -7 -22 -15 -29 -21 -18 -20 -44 2 -36 9 4 37 10 62 13 l45 6 -52 -60 c-29 -33 -52 -63 -52 -67 0 -5 23 19 52 53 28 34 57 61 64 61 7 0 16 5 20 11 4 7 -14 10 -60 7 -67 -3 -67 -3 -61 22 4 13 21 40 39 60 18 20 52 62 75 94 23 31 56 65 73 76 36 22 65 70 42 70 -24 0 -75 -30 -69 -40 7 -12 -24 -25 -106 -44 -60 -14 -81 -8 -54 14 8 7 15 20 15 29 0 9 5 22 12 29 7 7 9 12 6 12 -3 0 -10 -6 -14 -12z m176 -28 c0 -5 -4 -10 -10 -10 -5 0 -10 5 -10 10 0 6 5 10 10 10 6 0 10 -4 10 -10z"/>
<path d="M537 3147 c3 -28 2 -29 -7 -9 -11 26 -20 29 -15 5 6 -29 24 -69 24 -55 1 18 21 4 21 -14 0 -8 -4 -12 -10 -9 -20 12 -2 -24 37 -74 5 -7 33 21 33 33 0 6 -5 3 -11 -7 -6 -9 -14 -15 -20 -12 -15 10 -10 23 11 30 11 3 20 14 20 23 -1 16 -2 16 -14 0 -7 -10 -16 -18 -19 -18 -7 0 -37 89 -37 111 0 10 -4 20 -8 23 -5 3 -7 -9 -5 -27z m37 -103 c3 -8 2 -12 -4 -9 -6 3 -10 10 -10 16 0 14 7 11 14 -7z"/>
<path d="M1090 3176 c0 -2 8 -10 18 -17 15 -13 16 -12 3 4 -13 16 -21 21 -21 13z"/>
<path d="M3152 3135 c-11 -12 -10 -15 3 -15 13 0 15 -98 18 -892 l2 -893 3 908 c1 499 -1 907 -5 907 -5 -1 -14 -7 -21 -15z"/>
<path d="M1125 3120 c10 -11 20 -20 23 -20 3 0 -3 9 -13 20 -10 11 -20 20 -23 20 -3 0 3 -9 13 -20z"/>
<path d="M1600 3120 c-25 -19 -25 -19 -6 -37 18 -16 18 -16 7 -1 -12 15 -10 21 10 38 31 25 22 26 -11 0z"/>
<path d="M1859 3113 c-8 -9 -9 -14 -2 -10 6 4 14 1 16 -5 3 -7 6 -3 6 10 1 26 -2 27 -20 5z"/>
<path d="M2395 3067 c-11 -12 -19 -26 -17 -30 1 -4 -5 -10 -13 -13 -8 -3 -13 -10 -10 -15 3 -4 -4 -13 -16 -19 -11 -7 -18 -14 -15 -17 9 -9 -14 -44 -25 -38 -5 4 -9 3 -8 -2 5 -27 -2 -53 -13 -47 -6 4 -8 3 -4 -4 3 -6 -3 -13 -14 -17 -11 -3 -20 -13 -20 -22 0 -10 9 -6 30 14 17 15 30 34 30 40 0 7 27 50 60 95 33 45 60 85 60 90 0 11 -2 10 -25 -15z"/>
<path d="M1075 3038 l-40 -43 43 40 c39 36 47 45 39 45 -2 0 -21 -19 -42 -42z"/>
<path d="M1849 3063 c-13 -16 -12 -17 4 -4 9 7 17 15 17 17 0 8 -8 3 -21 -13z"/>
<path d="M1650 3035 c19 -22 39 -44 44 -50 5 -5 4 -1 -2 10 -6 11 -25 33 -44 50 l-33 30 35 -40z"/>
<path d="M2715 3030 c10 -11 20 -20 23 -20 3 0 -3 9 -13 20 -10 11 -20 20 -23 20 -3 0 3 -9 13 -20z"/>
<path d="M2494 3006 c-3 -7 -4 -42 -2 -77 l3 -64 45 -1 45 -1 -42 4 -43 4 0 69 0 68 50 -2 c27 -2 47 1 44 6 -9 14 -94 9 -100 -6z"/>
<path d="M2755 2981 c11 -12 25 -39 32 -60 l12 -36 -5 35 c-3 19 -18 46 -32 60 -24 23 -24 23 -7 1z"/>
<path d="M2592 2950 c0 -19 2 -27 5 -17 2 9 2 25 0 35 -3 9 -5 1 -5 -18z"/>
<path d="M3846 2967 c3 -10 9 -15 12 -12 3 3 0 11 -7 18 -10 9 -11 8 -5 -6z"/>
<path d="M800 2943 c0 -13 5 -23 10 -23 6 0 10 -8 10 -17 0 -9 10 -27 22 -40 12 -13 16 -23 10 -23 -6 0 -14 5 -17 10 -3 6 -21 10 -39 10 -35 0 -96 26 -96 40 0 9 -56 40 -72 40 -4 0 -8 -13 -8 -29 0 -17 -4 -33 -10 -36 -5 -3 -10 -10 -10 -16 0 -5 5 -9 10 -9 6 0 10 7 10 16 0 12 5 15 23 9 12 -4 38 -9 57 -12 39 -5 140 -49 140 -60 0 -5 19 -32 41 -62 51 -67 80 -117 72 -125 -12 -12 -59 -6 -81 10 -13 9 -27 27 -33 41 -5 13 -13 21 -19 18 -6 -3 -7 1 -4 9 3 9 1 16 -5 16 -16 0 -13 -56 4 -70 8 -7 12 -17 9 -22 -7 -11 -44 19 -44 35 0 18 -44 77 -57 77 -17 0 -16 -25 0 -42 22 -21 30 -68 13 -68 -19 0 -46 27 -46 45 0 16 -34 38 -44 28 -11 -12 -6 -22 8 -17 9 3 19 -5 28 -23 7 -15 26 -34 42 -42 26 -12 31 -12 43 5 14 18 15 18 27 2 17 -22 46 -23 46 -2 0 15 2 15 25 0 30 -20 105 -22 105 -3 0 18 -28 75 -41 82 -10 7 -89 121 -89 129 0 4 9 6 20 6 27 0 25 14 -5 34 -14 9 -25 23 -25 30 0 8 -7 27 -15 42 -14 27 -15 27 -15 7z m-120 -43 c0 -5 -4 -10 -10 -10 -5 0 -10 5 -10 10 0 6 5 10 10 10 6 0 10 -4 10 -10z m60 -200 c0 -5 -2 -10 -4 -10 -3 0 -8 5 -11 10 -3 6 -1 10 4 10 6 0 11 -4 11 -10z m90 -40 c0 -5 -4 -10 -10 -10 -5 0 -10 5 -10 10 0 6 5 10 10 10 6 0 10 -4 10 -10z"/>
<path d="M3485 2923 c-3 -16 -14 -36 -22 -45 -9 -10 -11 -18 -6 -18 16 0 30 21 38 58 8 39 0 43 -10 5z"/>
<path d="M470 2924 c-14 -7 -25 -18 -25 -23 0 -6 -9 -17 -20 -25 -19 -15 -19 -15 11 -16 16 0 35 5 40 10 8 8 15 6 24 -5 7 -8 19 -15 26 -15 8 0 14 -8 14 -17 0 -15 -2 -16 -10 -3 -5 8 -10 11 -10 7 0 -14 28 -63 44 -76 13 -11 18 -8 36 21 11 18 20 38 20 44 0 18 -29 12 -36 -8 -3 -10 -9 -18 -13 -18 -9 0 -35 65 -45 113 -7 30 -18 32 -56 11z m50 -30 c0 -27 -15 -32 -24 -9 -7 19 3 47 15 39 5 -3 9 -16 9 -30z m-40 12 c0 -3 -4 -8 -10 -11 -5 -3 -10 -1 -10 4 0 6 5 11 10 11 6 0 10 -2 10 -4z m104 -107 c9 7 16 9 16 3 0 -5 -7 -15 -15 -22 -13 -11 -18 -10 -30 6 -8 10 -15 23 -15 28 0 6 6 1 14 -9 12 -16 16 -17 30 -6z"/>
<path d="M1743 2913 c-3 -10 -8 -22 -11 -27 -3 -5 0 -6 5 -3 11 7 25 47 17 47 -3 0 -7 -8 -11 -17z"/>
<path d="M3861 2912 c0 -14 19 -46 54 -87 30 -36 55 -69 55 -75 0 -12 -48 4 -130 42 -36 17 -75 35 -87 41 -29 13 -35 7 -53 -54 -17 -58 -31 -64 -44 -20 -5 17 -15 31 -22 31 -15 0 -29 19 -19 28 3 3 10 0 15 -8 8 -13 10 -12 10 3 0 21 -21 22 -63 3 -84 -36 -116 -48 -164 -60 -62 -16 -73 -9 -37 25 14 13 35 38 46 54 11 17 -5 4 -36 -28 -31 -32 -56 -63 -56 -69 0 -10 26 -8 109 8 l35 7 -25 -32 c-13 -18 -33 -49 -44 -69 -11 -20 -35 -47 -54 -59 -19 -13 -29 -23 -23 -23 19 0 92 71 92 89 0 26 70 86 129 109 53 22 71 21 71 0 0 -7 8 -30 19 -52 10 -23 22 -50 25 -60 6 -16 11 -12 31 27 25 46 35 87 14 57 -8 -12 -9 -11 -6 5 2 11 9 19 15 18 7 -2 12 3 12 11 0 28 19 26 102 -13 46 -21 91 -41 101 -45 10 -3 26 -25 36 -48 10 -24 33 -60 50 -82 38 -47 39 -56 5 -56 -15 0 -44 16 -73 40 -26 22 -50 40 -54 40 -16 0 -5 -22 21 -45 15 -13 23 -27 19 -31 -13 -13 -60 19 -75 49 -7 15 -20 27 -28 27 -20 0 -17 -18 6 -32 23 -15 27 -38 7 -38 -8 0 -22 9 -32 20 -10 11 -23 20 -29 20 -6 0 4 -14 22 -31 31 -28 35 -29 52 -14 15 14 18 14 30 0 17 -20 60 -20 60 1 0 15 2 15 25 0 31 -21 85 -21 85 -1 0 8 -18 38 -40 67 -22 29 -40 59 -40 66 0 7 -7 24 -16 37 -15 22 -15 25 -1 25 9 0 19 4 22 10 6 10 -39 72 -87 119 -14 14 -28 37 -31 51 -4 24 -4 24 -6 2z m-120 -105 c-13 -13 -26 -3 -16 12 3 6 11 8 17 5 6 -4 6 -10 -1 -17z m-94 -79 c-3 -8 -6 -5 -6 6 -1 11 2 17 5 13 3 -3 4 -12 1 -19z m43 -33 c0 -8 -4 -15 -9 -15 -13 0 -22 16 -14 24 11 11 23 6 23 -9z"/>
<path d="M2860 2826 c0 -2 8 -10 18 -17 15 -13 16 -12 3 4 -13 16 -21 21 -21 13z"/>
<path d="M2910 2765 c13 -14 26 -25 28 -25 3 0 -5 11 -18 25 -13 14 -26 25 -28 25 -3 0 5 -11 18 -25z"/>
<path d="M1303 2723 c15 -2 39 -2 55 0 15 2 2 4 -28 4 -30 0 -43 -2 -27 -4z"/>
<path d="M2944 2510 c0 -124 2 -174 3 -112 2 61 2 163 0 225 -1 61 -3 11 -3 -113z"/>
<path d="M372 2697 c-12 -13 -22 -28 -22 -33 0 -6 -12 -22 -27 -37 -24 -22 -34 -25 -70 -20 -24 3 -43 7 -43 8 0 8 33 66 41 70 5 4 9 11 9 17 0 7 -9 2 -20 -10 -11 -12 -20 -24 -20 -28 0 -4 -7 -15 -16 -25 -23 -25 -11 -36 47 -44 47 -7 53 -5 80 21 16 15 29 23 29 16 0 -6 -4 -14 -10 -17 -26 -16 -4 -24 59 -23 l69 1 22 43 c12 24 31 51 43 59 16 11 17 15 6 15 -20 0 -41 -24 -63 -72 -9 -21 -23 -38 -31 -38 -19 0 -19 9 -1 29 17 19 31 81 19 81 -11 0 -33 -21 -33 -33 0 -4 5 -5 10 -2 6 3 10 -4 10 -17 0 -18 -2 -20 -10 -8 -8 13 -10 12 -10 -4 0 -25 -28 -45 -64 -46 l-29 0 21 23 c12 13 22 30 22 38 0 8 5 20 12 27 8 8 9 15 2 22 -7 7 -17 3 -32 -13z m11 -28 c-8 -16 -18 -28 -21 -25 -7 7 18 56 29 56 4 0 1 -14 -8 -31z"/>
<path d="M1265 2605 l0 -110 75 -1 75 0 -72 3 -72 4 -4 107 -3 107 1 -110z"/>
<path d="M561 2663 c0 -18 -5 -33 -11 -33 -5 0 -10 5 -10 10 0 6 -4 10 -10 10 -5 0 -10 -9 -10 -19 0 -11 5 -23 10 -26 6 -3 10 -1 10 5 0 8 6 8 20 0 11 -6 20 -17 20 -25 0 -7 4 -16 9 -20 12 -7 52 35 45 47 -3 5 0 16 7 24 6 8 9 17 6 21 -6 5 -17 -17 -32 -61 -5 -18 -7 -18 -22 -3 -9 9 -20 36 -24 59 -6 38 -7 39 -8 11z"/>
<path d="M640 2624 c0 -3 7 -12 15 -20 16 -17 18 -14 9 10 -6 15 -24 23 -24 10z"/>
<path d="M3535 2550 c-25 -22 -50 -40 -55 -40 -19 0 -20 20 0 32 11 7 20 18 20 25 0 22 -25 14 -55 -17 -20 -21 -38 -30 -61 -30 -44 0 -64 9 -65 29 0 12 -2 11 -8 -4 -11 -26 -10 -26 44 -36 36 -7 52 -5 71 7 22 15 24 15 24 0 0 -21 38 -21 68 0 20 14 22 14 22 0 0 -22 27 -20 48 4 9 11 25 29 35 40 9 11 14 20 10 20 -5 0 -20 -14 -35 -32 -27 -33 -52 -34 -27 -1 11 15 11 16 -1 6 -20 -18 -35 -16 -20 2 7 8 19 15 26 15 8 0 14 5 14 10 0 16 -6 13 -55 -30z m-55 5 c-7 -9 -15 -13 -17 -11 -7 7 7 26 19 26 6 0 6 -6 -2 -15z"/>
<path d="M3655 2584 c7 -3 9 -220 7 -634 -2 -346 0 -630 5 -630 4 0 7 259 5 575 -2 467 0 574 11 570 7 -3 28 11 47 31 19 20 29 34 23 30 -8 -4 -13 -2 -13 6 -1 8 -9 4 -19 -9 -29 -35 -41 -28 -41 22 0 36 -3 45 -17 44 -10 0 -13 -2 -8 -5z m65 -89 c-13 -14 -28 -25 -33 -25 -12 0 34 47 47 49 5 1 -1 -10 -14 -24z"/>
<path d="M3746 2564 c-5 -14 -4 -15 9 -4 17 14 19 20 6 20 -5 0 -12 -7 -15 -16z"/>
<path d="M1847 2563 c-2 -4 -1 -39 4 -78 l8 -70 -3 73 -3 72 63 0 63 0 4 -95 3 -95 0 97 -1 98 -67 3 c-36 2 -68 -1 -71 -5z"/>
<path d="M2400 2464 l0 -96 -75 4 c-41 2 -75 0 -75 -4 0 -5 36 -8 80 -8 l80 0 0 100 c0 55 -2 100 -5 100 -3 0 -5 -43 -5 -96z"/>
<path d="M2253 2460 c0 -41 2 -58 4 -37 2 20 2 54 0 75 -2 20 -4 3 -4 -38z"/>
<path d="M2840 2450 l0 -80 -60 0 -59 0 -4 75 -3 75 0 -77 1 -78 68 -3 67 -3 0 86 c0 47 -2 85 -5 85 -3 0 -5 -36 -5 -80z"/>
<path d="M1890 2376 c0 -2 18 -6 39 -8 22 -2 37 0 35 4 -5 8 -74 11 -74 4z"/>
<path d="M2945 1825 c0 -247 1 -347 2 -222 2 126 2 328 0 450 -1 122 -2 20 -2 -228z"/>
<path d="M2480 2059 c0 -5 5 -7 10 -4 6 3 10 8 10 11 0 2 -4 4 -10 4 -5 0 -10 -5 -10 -11z"/>
<path d="M2610 2061 c0 -5 5 -13 10 -16 6 -3 10 -2 10 4 0 5 -4 13 -10 16 -5 3 -10 2 -10 -4z"/>
<path d="M2445 1980 c-16 -17 -24 -30 -17 -30 6 0 14 5 17 10 5 8 44 15 45 8 0 -2 9 -28 20 -58 19 -50 20 -52 14 -15 -3 22 -16 57 -28 77 l-22 38 -29 -30z"/>
<path d="M2613 1980 c-6 -16 -7 -30 -2 -30 5 0 9 7 9 15 0 8 7 15 16 15 9 0 14 5 12 12 -8 23 -24 18 -35 -12z"/>
<path d="M2400 1915 c0 -8 -9 -24 -20 -35 -26 -26 -25 -38 3 -36 19 1 22 7 24 43 1 24 0 43 -3 43 -2 0 -4 -7 -4 -15z"/>
<path d="M1257 1894 c-4 -4 -7 -54 -7 -111 l0 -104 73 3 72 3 0 105 0 105 -65 3 c-36 2 -69 0 -73 -4z m133 -104 l0 -100 -65 0 -65 0 0 100 0 100 65 0 65 0 0 -100z"/>
<path d="M2761 1854 c0 -11 3 -14 6 -6 3 7 2 16 -1 19 -3 4 -6 -2 -5 -13z"/>
<path d="M2577 1836 c-5 -12 -14 -17 -28 -13 -13 3 -28 -2 -40 -14 -24 -24 -55 -25 -68 -1 -6 9 -11 12 -11 5 0 -6 5 -15 11 -19 6 -3 9 -17 6 -30 -3 -19 -2 -22 9 -13 8 6 11 16 7 23 -3 6 -3 8 2 4 4 -4 20 0 35 9 50 29 60 15 62 -94 l2 -98 3 90 c2 50 8 100 14 111 6 12 9 30 7 40 -3 18 -4 18 -11 0z"/>
<path d="M2337 1803 c-4 -3 -7 -11 -7 -17 0 -6 5 -5 12 2 6 6 9 14 7 17 -3 3 -9 2 -12 -2z"/>
<path d="M43 1670 c0 -30 2 -43 4 -27 2 15 2 39 0 55 -2 15 -4 2 -4 -28z"/>
<path d="M4253 1670 c0 -30 2 -43 4 -27 2 15 2 39 0 55 -2 15 -4 2 -4 -28z"/>
<path d="M2330 1666 c0 -14 4 -26 10 -26 5 0 7 7 4 15 -7 18 0 19 26 3 16 -10 24 -10 41 0 12 7 24 11 27 7 4 -3 0 -10 -8 -15 -13 -8 -12 -10 3 -10 12 0 17 8 17 26 0 21 -3 25 -17 18 -10 -4 -29 -8 -43 -8 -14 0 -33 4 -42 8 -15 7 -18 3 -18 -18z"/>
<path d="M62 1570 c0 -19 2 -27 5 -17 2 9 2 25 0 35 -3 9 -5 1 -5 -18z"/>
<path d="M4232 1570 c0 -19 2 -27 5 -17 2 9 2 25 0 35 -3 9 -5 1 -5 -18z"/>
<path d="M82 1500 c0 -14 2 -19 5 -12 2 6 2 18 0 25 -3 6 -5 1 -5 -13z"/>
<path d="M4212 1500 c0 -14 2 -19 5 -12 2 6 2 18 0 25 -3 6 -5 1 -5 -13z"/>
<path d="M2431 1481 c-10 -6 -10 -10 -1 -16 13 -8 24 -1 19 14 -3 6 -10 7 -18 2z"/>
<path d="M2320 1469 c0 -5 5 -7 10 -4 6 3 10 8 10 11 0 2 -4 4 -10 4 -5 0 -10 -5 -10 -11z"/>
<path d="M102 1430 c0 -19 2 -27 5 -17 2 9 2 25 0 35 -3 9 -5 1 -5 -18z"/>
<path d="M4192 1430 c0 -19 2 -27 5 -17 2 9 2 25 0 35 -3 9 -5 1 -5 -18z"/>
<path d="M121 1364 c0 -11 3 -14 6 -6 3 7 2 16 -1 19 -3 4 -6 -2 -5 -13z"/>
<path d="M4171 1364 c0 -11 3 -14 6 -6 3 7 2 16 -1 19 -3 4 -6 -2 -5 -13z"/>
<path d="M142 1320 c0 -14 2 -19 5 -12 2 6 2 18 0 25 -3 6 -5 1 -5 -13z"/>
<path d="M4152 1320 c0 -14 2 -19 5 -12 2 6 2 18 0 25 -3 6 -5 1 -5 -13z"/>
<path d="M161 1264 c0 -11 3 -14 6 -6 3 7 2 16 -1 19 -3 4 -6 -2 -5 -13z"/>
<path d="M4131 1264 c0 -11 3 -14 6 -6 3 7 2 16 -1 19 -3 4 -6 -2 -5 -13z"/>
<path d="M4094 1248 l-19 -23 23 19 c21 18 27 26 19 26 -2 0 -12 -10 -23 -22z"/>
<path d="M181 1224 c0 -11 3 -14 6 -6 3 7 2 16 -1 19 -3 4 -6 -2 -5 -13z"/>
<path d="M4111 1224 c0 -11 3 -14 6 -6 3 7 2 16 -1 19 -3 4 -6 -2 -5 -13z"/>
<path d="M201 1184 c0 -11 3 -14 6 -6 3 7 2 16 -1 19 -3 4 -6 -2 -5 -13z"/>
<path d="M4091 1184 c0 -11 3 -14 6 -6 3 7 2 16 -1 19 -3 4 -6 -2 -5 -13z"/>
<path d="M255 1150 c10 -11 20 -20 23 -20 3 0 -3 9 -13 20 -10 11 -20 20 -23 20 -3 0 3 -9 13 -20z"/>
<path d="M4071 1144 c0 -11 3 -14 6 -6 3 7 2 16 -1 19 -3 4 -6 -2 -5 -13z"/>
<path d="M261 1084 c0 -11 3 -14 6 -6 3 7 2 16 -1 19 -3 4 -6 -2 -5 -13z"/>
<path d="M315 1050 c10 -11 20 -20 23 -20 3 0 -3 9 -13 20 -10 11 -20 20 -23 20 -3 0 3 -9 13 -20z"/>
<path d="M321 984 c0 -11 3 -14 6 -6 3 7 2 16 -1 19 -3 4 -6 -2 -5 -13z"/>
<path d="M3971 984 c0 -11 3 -14 6 -6 3 7 2 16 -1 19 -3 4 -6 -2 -5 -13z"/>
<path d="M3914 948 l-19 -23 23 19 c21 18 27 26 19 26 -2 0 -12 -10 -23 -22z"/>
<path d="M341 944 c0 -11 3 -14 6 -6 3 7 2 16 -1 19 -3 4 -6 -2 -5 -13z"/>
<path d="M381 894 c0 -11 3 -14 6 -6 3 7 2 16 -1 19 -3 4 -6 -2 -5 -13z"/>
<path d="M440 865 c19 -19 36 -35 39 -35 3 0 -10 16 -29 35 -19 19 -36 35 -39 35 -3 0 10 -16 29 -35z"/>
<path d="M3820 835 c-24 -25 -42 -45 -39 -45 3 0 25 20 49 45 24 25 42 45 39 45 -3 0 -25 -20 -49 -45z"/>
<path d="M620 668 c97 -100 110 -113 110 -105 0 1 -48 50 -107 107 l-108 105 105 -107z"/>
<path d="M3695 688 l-80 -83 83 80 c76 74 87 85 79 85 -1 0 -38 -37 -82 -82z"/>
<path d="M3791 744 c0 -11 3 -14 6 -6 3 7 2 16 -1 19 -3 4 -6 -2 -5 -13z"/>
<path d="M750 557 c0 -2 15 -16 33 -33 l32 -29 -29 33 c-28 30 -36 37 -36 29z"/>
<path d="M3519 533 l-24 -28 28 24 c15 14 27 26 27 28 0 8 -8 1 -31 -24z"/>
<path d="M850 475 c13 -14 26 -25 28 -25 3 0 -5 11 -18 25 -13 14 -26 25 -28 25 -3 0 5 -11 18 -25z"/>
<path d="M3439 473 l-24 -28 28 24 c15 14 27 26 27 28 0 8 -8 1 -31 -24z"/>
<path d="M3488 463 c7 -3 16 -2 19 1 4 3 -2 6 -13 5 -11 0 -14 -3 -6 -6z"/>
<path d="M3359 413 l-24 -28 28 24 c15 14 27 26 27 28 0 8 -8 1 -31 -24z"/>
<path d="M878 403 c7 -3 16 -2 19 1 4 3 -2 6 -13 5 -11 0 -14 -3 -6 -6z"/>
<path d="M3408 403 c7 -3 16 -2 19 1 4 3 -2 6 -13 5 -11 0 -14 -3 -6 -6z"/>
<path d="M3204 318 l-19 -23 23 19 c12 11 22 21 22 23 0 8 -8 2 -26 -19z"/>
<path d="M3248 303 c7 -3 16 -2 19 1 4 3 -2 6 -13 5 -11 0 -14 -3 -6 -6z"/>
<path d="M3208 283 c7 -3 16 -2 19 1 4 3 -2 6 -13 5 -11 0 -14 -3 -6 -6z"/>
<path d="M3168 263 c7 -3 16 -2 19 1 4 3 -2 6 -13 5 -11 0 -14 -3 -6 -6z"/>
<path d="M3128 243 c7 -3 16 -2 19 1 4 3 -2 6 -13 5 -11 0 -14 -3 -6 -6z"/>
<path d="M1198 223 c7 -3 16 -2 19 1 4 3 -2 6 -13 5 -11 0 -14 -3 -6 -6z"/>
<path d="M1238 203 c7 -3 16 -2 19 1 4 3 -2 6 -13 5 -11 0 -14 -3 -6 -6z"/>
<path d="M1278 183 c7 -3 16 -2 19 1 4 3 -2 6 -13 5 -11 0 -14 -3 -6 -6z"/>
<path d="M1328 163 c6 -2 18 -2 25 0 6 3 1 5 -13 5 -14 0 -19 -2 -12 -5z"/>
<path d="M2948 163 c6 -2 18 -2 25 0 6 3 1 5 -13 5 -14 0 -19 -2 -12 -5z"/>
<path d="M1393 143 c9 -2 25 -2 35 0 9 3 1 5 -18 5 -19 0 -27 -2 -17 -5z"/>
<path d="M2873 143 c9 -2 25 -2 35 0 9 3 1 5 -18 5 -19 0 -27 -2 -17 -5z"/>
<path d="M1468 123 c6 -2 18 -2 25 0 6 3 1 5 -13 5 -14 0 -19 -2 -12 -5z"/>
<path d="M2808 123 c6 -2 18 -2 25 0 6 3 1 5 -13 5 -14 0 -19 -2 -12 -5z"/>
<path d="M1533 103 c9 -2 25 -2 35 0 9 3 1 5 -18 5 -19 0 -27 -2 -17 -5z"/>
<path d="M2733 103 c9 -2 25 -2 35 0 9 3 1 5 -18 5 -19 0 -27 -2 -17 -5z"/>
<path d="M1608 83 c6 -2 18 -2 25 0 6 3 1 5 -13 5 -14 0 -19 -2 -12 -5z"/>
<path d="M2668 83 c6 -2 18 -2 25 0 6 3 1 5 -13 5 -14 0 -19 -2 -12 -5z"/>
<path d="M1673 63 c9 -2 25 -2 35 0 9 3 1 5 -18 5 -19 0 -27 -2 -17 -5z"/>
<path d="M2593 63 c9 -2 25 -2 35 0 9 3 1 5 -18 5 -19 0 -27 -2 -17 -5z"/>
<path d="M1768 43 c17 -2 47 -2 65 0 17 2 3 4 -33 4 -36 0 -50 -2 -32 -4z"/>
<path d="M2468 43 c17 -2 47 -2 65 0 17 2 3 4 -33 4 -36 0 -50 -2 -32 -4z"/>
<path d="M2007 23 c79 -2 207 -2 285 0 79 1 15 3 -142 3 -157 0 -221 -2 -143 -3z"/>
</g>
</g>
  <g id="id7:id7" transform="matrix(1.25,0,0,1.25,0.0,0.0)"><g transform="translate(0.000000,200.000000) scale(0.040000,-0.040000)" fill="#080809" stroke="none">
<path d="M30 3345 c0 -1150 3 -1625 11 -1625 6 0 9 -21 8 -56 -2 -37 2 -58 10 -63 7 -5 11 -22 9 -40 -2 -19 3 -35 11 -40 8 -5 12 -18 8 -30 -3 -13 1 -24 10 -30 11 -6 14 -18 11 -41 -3 -21 0 -34 9 -37 7 -3 13 -14 13 -24 0 -10 5 -19 11 -19 7 0 9 -11 6 -26 -3 -16 0 -28 9 -31 8 -3 14 -14 14 -24 0 -10 5 -19 10 -19 6 0 10 -9 10 -20 0 -11 5 -20 10 -20 6 0 10 -9 10 -20 0 -11 5 -20 11 -20 6 0 9 -7 6 -15 -4 -8 4 -22 18 -34 14 -10 25 -26 25 -35 0 -9 5 -16 11 -16 6 0 9 -7 6 -15 -4 -8 4 -22 18 -34 14 -10 25 -26 25 -35 0 -9 5 -16 10 -16 6 0 10 -8 10 -19 0 -10 7 -24 15 -31 12 -10 15 -9 15 7 0 21 -39 103 -62 131 -8 9 -20 31 -28 47 -8 17 -20 38 -28 47 -16 20 -82 148 -82 160 0 4 81 8 179 8 166 0 179 1 175 18 -8 31 -9 1322 -1 1322 4 0 7 -4 7 -10 0 -5 5 -10 10 -10 6 0 10 16 10 35 0 19 -4 35 -8 35 -12 0 -35 -28 -56 -71 -19 -36 -19 -36 -87 -37 -67 -2 -79 3 -60 24 18 18 50 84 42 84 -5 0 -16 -15 -24 -33 -9 -18 -27 -43 -41 -56 -22 -20 -30 -22 -75 -16 -58 8 -70 19 -47 44 9 10 16 23 16 29 0 7 4 12 8 12 5 0 15 12 22 28 8 15 37 54 64 86 l50 59 -45 -6 c-25 -3 -53 -9 -62 -13 -22 -8 -23 18 -2 36 8 7 15 20 15 29 0 10 14 30 31 47 29 27 105 121 124 153 6 11 3 13 -16 7 -64 -20 -145 -34 -152 -27 -12 12 32 91 57 103 29 14 127 135 101 124 -38 -15 -110 -35 -140 -38 -25 -2 -29 0 -27 17 2 11 17 34 33 53 16 18 29 38 29 45 0 13 67 87 78 87 4 0 16 14 26 32 19 31 19 31 0 24 -96 -39 -151 -39 -117 0 41 46 83 104 83 114 0 6 14 32 31 56 19 27 29 53 26 65 -3 11 7 36 24 61 16 24 29 49 29 55 0 7 20 49 45 94 25 45 45 85 45 90 0 16 21 9 26 -8 3 -10 10 -26 15 -35 5 -10 9 -28 9 -40 0 -13 9 -38 20 -56 11 -18 20 -38 20 -45 0 -7 14 -34 30 -60 17 -26 30 -56 30 -67 0 -11 8 -39 19 -62 39 -89 53 -123 57 -138 2 -8 6 -26 10 -39 7 -22 5 -24 -22 -18 -16 3 -38 9 -49 13 -13 5 -6 -5 17 -27 25 -24 40 -50 47 -78 5 -25 22 -57 40 -75 53 -55 33 -85 -33 -51 -42 22 -46 19 -25 -22 10 -21 19 -42 19 -48 0 -5 8 -15 19 -22 18 -11 61 -84 61 -103 0 -16 -33 -12 -73 9 -20 10 -48 22 -62 25 -14 4 -25 13 -25 21 0 8 -7 15 -15 15 -8 0 -15 -2 -15 -5 0 -3 23 -42 50 -86 28 -44 53 -92 56 -105 3 -13 10 -27 15 -30 5 -3 9 -14 9 -24 0 -11 11 -27 25 -36 30 -20 32 -34 5 -34 -11 0 -20 -2 -20 -6 0 -8 79 -122 89 -129 13 -7 41 -64 41 -82 0 -19 -75 -17 -105 3 -23 15 -25 15 -25 0 0 -21 -29 -20 -46 2 -12 16 -13 16 -27 -2 -12 -17 -17 -17 -43 -5 -15 8 -34 25 -41 39 -14 28 -39 34 -35 8 1 -9 -2 -19 -8 -23 -5 -3 -10 -12 -10 -18 0 -7 4 -6 10 3 5 8 12 12 15 8 7 -7 7 -1297 -1 -1309 -3 -5 75 -9 175 -9 l181 0 0 804 c0 442 3 819 7 837 4 23 26 53 65 93 54 54 58 60 43 76 -8 9 -12 19 -9 22 3 4 -9 17 -26 30 -49 36 -74 98 -75 188 0 92 23 145 96 219 26 26 49 55 50 65 4 19 46 43 124 73 l50 19 3 54 c2 29 1 58 -1 64 -3 6 -4 14 -3 18 0 3 -11 16 -26 27 -15 12 -30 31 -33 42 -8 24 17 65 45 74 18 6 20 15 20 84 0 42 -5 82 -10 87 -6 6 -13 33 -16 60 -5 39 -3 53 10 63 12 10 16 32 17 80 1 69 15 187 18 161 2 -8 5 -24 7 -35 3 -11 8 -58 12 -104 6 -69 12 -86 30 -101 29 -24 30 -87 2 -123 -15 -19 -20 -40 -20 -91 0 -66 0 -67 34 -83 46 -21 62 -57 41 -90 -9 -13 -23 -27 -31 -30 -8 -3 -14 -11 -14 -18 0 -7 -7 -15 -15 -19 -11 -4 -15 -21 -15 -59 0 -52 1 -55 33 -67 74 -28 137 -66 137 -83 0 -3 24 -30 53 -60 82 -83 92 -112 90 -240 -1 -123 -11 -155 -54 -179 -17 -10 -28 -22 -24 -27 3 -5 -4 -16 -16 -25 -22 -15 -21 -15 35 -68 l56 -54 0 -67 c0 -38 4 -67 10 -67 5 0 19 19 30 43 11 23 45 75 76 115 30 40 54 78 51 85 -2 6 -16 -10 -31 -36 -16 -26 -33 -46 -40 -44 -13 4 -21 757 -8 757 4 0 13 -5 20 -12 9 -9 12 -9 12 3 0 28 -12 28 -70 -1 -63 -32 -180 -52 -180 -30 0 7 20 34 44 61 42 47 93 135 84 144 -2 3 -18 1 -34 -4 -16 -5 -46 -15 -67 -21 -58 -18 -68 0 -27 47 18 21 44 45 57 54 47 31 88 111 67 131 -3 3 -20 1 -39 -5 -18 -5 -41 -7 -50 -3 -14 5 -11 12 18 46 51 60 97 152 90 178 -4 16 8 42 41 92 25 38 46 73 46 77 0 5 9 19 20 33 11 14 20 39 20 55 0 17 4 36 9 44 13 20 31 4 31 -29 0 -34 48 -144 90 -205 34 -50 36 -58 15 -75 -9 -7 -12 -16 -8 -19 20 -15 79 -127 87 -168 9 -39 0 -44 -47 -28 -20 7 -37 9 -37 4 0 -5 6 -9 13 -9 6 -1 26 -29 42 -62 17 -34 45 -82 63 -106 25 -33 31 -47 22 -56 -8 -8 -24 -4 -61 17 -63 35 -68 34 -30 -4 18 -18 31 -41 31 -56 0 -27 38 -103 52 -103 4 0 8 -9 8 -20 0 -30 -39 -26 -127 15 -42 19 -79 35 -83 35 -5 0 -13 -22 -20 -50 -13 -54 -30 -64 -48 -27 -6 12 -11 16 -11 9 -2 -24 31 -63 48 -57 14 4 16 -19 13 -251 -3 -255 -3 -255 18 -244 11 6 20 14 20 19 0 4 15 28 33 52 l34 44 -7 100 c-7 88 -5 105 12 138 10 21 24 37 31 34 28 -9 35 -50 30 -159 l-6 -108 194 0 c150 0 190 3 181 12 -18 18 -15 198 3 222 8 11 15 28 15 38 0 10 7 18 15 18 8 0 15 -8 15 -18 0 -11 9 -27 19 -36 17 -16 19 -29 16 -112 -2 -51 -7 -99 -11 -106 -4 -6 -2 -14 4 -16 7 -2 12 -13 12 -24 0 -14 5 -18 15 -15 14 6 92 -85 107 -124 3 -8 38 -54 76 -101 46 -57 73 -99 78 -123 4 -22 15 -40 29 -48 12 -7 46 -41 74 -76 l51 -65 -2 -708 -3 -708 64 0 c52 0 61 2 52 14 -8 10 -11 261 -9 938 l3 925 -22 -10 c-16 -7 -26 -7 -36 1 -8 7 -18 7 -27 2 -20 -13 -57 -13 -62 0 -2 7 -14 6 -34 -1 -32 -12 -124 -4 -124 10 0 5 7 14 15 21 8 7 15 17 15 22 0 5 25 37 55 71 30 33 55 67 55 74 0 8 7 21 15 30 22 22 12 27 -26 14 -78 -27 -135 0 -70 33 46 24 140 134 147 173 4 19 4 36 2 38 -2 3 -29 -1 -60 -7 -39 -8 -54 -16 -51 -25 3 -9 -3 -13 -20 -13 -58 0 -34 41 91 154 22 20 47 65 39 72 -2 2 -19 -1 -38 -6 -18 -5 -54 -14 -78 -20 -56 -15 -79 1 -43 30 12 10 22 23 22 30 0 10 61 81 118 136 27 26 31 59 5 46 -10 -5 -35 -12 -55 -15 -33 -5 -38 -3 -38 14 0 11 6 22 14 25 8 3 19 19 25 35 5 16 21 44 35 61 13 18 28 45 31 61 4 15 11 30 16 32 4 3 6 12 2 21 -3 8 3 24 13 35 19 21 57 89 106 192 36 75 56 84 77 35 8 -18 19 -44 25 -58 6 -14 23 -45 38 -69 16 -25 28 -52 28 -60 0 -8 10 -25 22 -38 16 -17 19 -26 11 -34 -8 -8 -6 -20 8 -43 10 -17 19 -40 19 -51 0 -29 29 -107 47 -127 8 -10 13 -24 9 -33 -5 -14 -9 -14 -41 -1 -19 8 -35 11 -35 5 0 -5 5 -9 10 -9 6 0 10 -5 10 -11 0 -5 19 -38 42 -72 52 -76 83 -136 74 -144 -3 -4 -30 1 -58 10 -29 9 -54 14 -56 12 -6 -6 47 -83 62 -93 23 -14 76 -87 76 -104 0 -13 -8 -18 -31 -18 -21 0 -30 4 -26 13 3 8 -10 17 -36 25 -22 7 -51 22 -65 33 -36 28 -56 24 -29 -5 12 -13 28 -45 36 -72 18 -64 54 -128 87 -152 26 -19 27 -19 46 0 25 25 58 80 58 96 0 8 9 26 21 40 15 20 19 35 14 60 -6 30 -2 38 34 72 48 46 85 116 101 193 6 31 15 57 19 57 5 0 18 -30 30 -67 26 -81 69 -173 81 -173 18 0 48 -65 43 -93 -3 -15 0 -39 6 -55 6 -15 13 -36 15 -47 8 -38 24 -70 45 -89 32 -29 27 -46 -14 -46 -29 0 -35 -4 -35 -21 0 -22 92 -165 118 -185 28 -20 3 -35 -44 -28 l-45 6 7 -28 c7 -27 83 -136 104 -149 6 -3 10 -13 10 -22 0 -28 -105 -3 -162 39 -27 19 -32 2 -10 -29 11 -16 23 -47 27 -68 4 -23 19 -51 34 -66 48 -49 92 -109 86 -119 -3 -6 -13 -10 -22 -10 -14 0 -14 -3 1 -25 9 -13 16 -30 16 -37 0 -7 18 -37 40 -66 22 -29 40 -59 40 -67 0 -20 -54 -20 -85 1 -23 15 -25 15 -25 0 0 -21 -43 -21 -60 -1 -12 14 -15 14 -30 0 -17 -15 -21 -14 -53 14 -33 29 -35 30 -51 13 -9 -10 -16 -22 -16 -27 0 -4 -14 -21 -32 -37 -17 -15 -27 -28 -22 -28 6 0 23 13 39 30 58 60 56 84 53 -580 l-3 -610 173 0 172 0 0 -24 c0 -13 -7 -29 -15 -36 -19 -16 -65 -109 -65 -133 0 -16 3 -17 15 -7 8 7 15 21 15 31 0 11 5 19 10 19 6 0 10 9 10 20 0 11 5 20 10 20 6 0 10 9 10 20 0 11 5 20 10 20 6 0 10 9 10 19 0 10 6 21 14 24 9 3 12 15 9 31 -3 15 -1 26 6 26 6 0 11 9 11 19 0 10 6 21 13 24 9 3 12 16 9 37 -3 23 0 35 11 41 9 6 13 17 10 30 -4 12 0 25 8 30 8 5 13 21 11 40 -2 18 2 35 9 40 8 5 12 25 10 60 -1 29 2 55 8 59 8 4 12 473 14 1628 l2 1622 -2122 0 -2123 0 0 -1625z"/>
<path d="M1897 4434 c-9 -10 4 -34 19 -34 8 0 14 4 14 9 0 12 -26 32 -33 25z"/>
<path d="M1797 4423 c-12 -11 -8 -23 8 -23 8 0 15 7 15 15 0 16 -12 20 -23 8z"/>
<path d="M1740 4380 c0 -5 7 -10 15 -10 8 0 15 5 15 10 0 6 -7 10 -15 10 -8 0 -15 -4 -15 -10z"/>
<path d="M1935 4380 c-3 -5 1 -10 9 -10 9 0 16 5 16 10 0 6 -4 10 -9 10 -6 0 -13 -4 -16 -10z"/>
<path d="M3180 4346 c0 -9 7 -16 16 -16 17 0 14 22 -4 28 -7 2 -12 -3 -12 -12z"/>
<path d="M3064 4334 c-17 -14 -17 -15 -1 -10 10 3 23 6 28 6 5 0 9 5 9 10 0 14 -13 12 -36 -6z"/>
<path d="M3020 4309 c0 -5 5 -7 10 -4 6 3 10 8 10 11 0 2 -4 4 -10 4 -5 0 -10 -5 -10 -11z"/>
<path d="M3235 4310 c3 -5 8 -10 11 -10 2 0 4 5 4 10 0 6 -5 10 -11 10 -5 0 -7 -4 -4 -10z"/>
<path d="M3138 4276 c-10 -7 -18 -18 -18 -25 0 -20 16 -12 28 14 13 29 13 29 -10 11z"/>
<path d="M1780 4201 c0 -5 5 -13 10 -16 6 -3 10 -2 10 4 0 5 -4 13 -10 16 -5 3 -10 2 -10 -4z"/>
<path d="M1885 4190 c3 -5 11 -10 16 -10 6 0 7 5 4 10 -3 6 -11 10 -16 10 -6 0 -7 -4 -4 -10z"/>
<path d="M1705 4170 c-3 -5 -2 -10 4 -10 5 0 13 5 16 10 3 6 2 10 -4 10 -5 0 -13 -4 -16 -10z"/>
<path d="M1925 4170 c3 -5 14 -10 23 -10 15 0 15 2 2 10 -20 13 -33 13 -25 0z"/>
<path d="M3040 4130 c-12 -7 -12 -12 -2 -22 9 -9 15 -9 24 0 16 16 -2 34 -22 22z"/>
<path d="M3150 4108 c0 -30 1 -31 15 -12 18 24 18 31 0 38 -11 4 -15 -2 -15 -26z"/>
<path d="M2995 4090 c-3 -5 -1 -10 4 -10 6 0 11 5 11 10 0 6 -2 10 -4 10 -3 0 -8 -4 -11 -10z"/>
<path d="M3200 4090 c0 -5 5 -10 11 -10 5 0 7 5 4 10 -3 6 -8 10 -11 10 -2 0 -4 -4 -4 -10z"/>
<path d="M1832 4078 c6 -18 28 -21 28 -4 0 9 -7 16 -16 16 -9 0 -14 -5 -12 -12z"/>
<path d="M3245 4070 c3 -5 14 -10 23 -10 15 0 15 2 2 10 -20 13 -33 13 -25 0z"/>
<path d="M3080 4058 c0 -9 5 -20 10 -23 13 -8 13 5 0 25 -8 13 -10 13 -10 -2z"/>
<path d="M1775 3990 c-3 -5 1 -10 9 -10 9 0 16 5 16 10 0 6 -4 10 -9 10 -6 0 -13 -4 -16 -10z"/>
<path d="M1905 3990 c27 -12 43 -12 25 0 -8 5 -22 9 -30 9 -10 0 -8 -3 5 -9z"/>
<path d="M1960 3970 c0 -6 7 -10 15 -10 8 0 15 2 15 4 0 2 -7 6 -15 10 -8 3 -15 1 -15 -4z"/>
<path d="M3180 3920 c0 -5 7 -10 16 -10 8 0 12 5 9 10 -3 6 -10 10 -16 10 -5 0 -9 -4 -9 -10z"/>
<path d="M3040 3910 c0 -13 11 -13 30 0 12 8 11 10 -7 10 -13 0 -23 -4 -23 -10z"/>
<path d="M3082 3875 c0 -16 2 -22 5 -12 2 9 2 23 0 30 -3 6 -5 -1 -5 -18z"/>
<path d="M2980 3880 c0 -5 9 -10 20 -10 11 0 20 5 20 10 0 6 -9 10 -20 10 -11 0 -20 -4 -20 -10z"/>
<path d="M3255 3880 c-3 -5 3 -10 14 -10 12 0 21 5 21 10 0 6 -6 10 -14 10 -8 0 -18 -4 -21 -10z"/>
<path d="M1847 3854 c-8 -8 1 -24 14 -24 5 0 9 7 9 15 0 15 -12 20 -23 9z"/>
<path d="M3101 3804 c0 -11 3 -14 6 -6 3 7 2 16 -1 19 -3 4 -6 -2 -5 -13z"/>
<path d="M630 3798 c0 -13 58 -55 64 -46 2 1 -12 16 -31 31 -21 19 -33 24 -33 15z"/>
<path d="M3138 3788 c-19 -19 -24 -38 -10 -38 7 0 35 52 29 55 -1 1 -10 -7 -19 -17z"/>
<path d="M515 3790 c-3 -5 1 -10 9 -10 9 0 16 5 16 10 0 6 -4 10 -9 10 -6 0 -13 -4 -16 -10z"/>
<path d="M475 3770 c-3 -5 -2 -10 4 -10 5 0 13 5 16 10 3 6 2 10 -4 10 -5 0 -13 -4 -16 -10z"/>
<path d="M588 3719 c-19 -11 -24 -29 -8 -29 5 0 14 9 20 20 12 23 12 23 -12 9z"/>
<path d="M3075 3720 c3 -5 8 -10 11 -10 2 0 4 5 4 10 0 6 -5 10 -11 10 -5 0 -7 -4 -4 -10z"/>
<path d="M3180 3708 c0 -17 3 -19 9 -9 5 7 15 17 22 22 10 6 8 9 -8 9 -17 0 -23 -6 -23 -22z"/>
<path d="M3736 3713 c-3 -10 -9 -25 -12 -33 -3 -9 1 -8 10 4 14 18 16 18 44 -3 45 -32 48 -25 6 14 -20 19 -38 35 -39 35 -2 0 -5 -8 -9 -17z"/>
<path d="M3630 3710 c0 -5 5 -10 10 -10 6 0 10 5 10 10 0 6 -4 10 -10 10 -5 0 -10 -4 -10 -10z"/>
<path d="M2978 3683 c7 -3 16 -2 19 1 4 3 -2 6 -13 5 -11 0 -14 -3 -6 -6z"/>
<path d="M3660 3634 c0 -17 7 -37 15 -44 18 -15 18 -15 0 35 -14 40 -14 40 -15 9z"/>
<path d="M3711 3634 c0 -11 3 -14 6 -6 3 7 2 16 -1 19 -3 4 -6 -2 -5 -13z"/>
<path d="M3120 3602 c0 -5 7 -15 15 -22 8 -7 15 -8 15 -2 0 5 -7 15 -15 22 -8 7 -15 8 -15 2z"/>
<path d="M490 3562 c0 -5 7 -16 16 -23 14 -12 16 -11 13 5 -4 20 -29 35 -29 18z"/>
<path d="M610 3550 c0 -5 7 -10 16 -10 8 0 12 5 9 10 -3 6 -10 10 -16 10 -5 0 -9 -4 -9 -10z"/>
<path d="M520 3503 c0 -4 5 -15 10 -23 8 -13 10 -13 10 2 0 9 -4 20 -10 23 -5 3 -10 3 -10 -2z"/>
<path d="M586 3494 c-4 -9 -4 -19 -1 -22 2 -3 7 3 11 12 4 9 4 19 1 22 -2 3 -7 -3 -11 -12z"/>
<path d="M3170 3469 c0 -5 5 -7 10 -4 6 3 10 8 10 11 0 2 -4 4 -10 4 -5 0 -10 -5 -10 -11z"/>
<path d="M3288 3443 c7 -3 16 -2 19 1 4 3 -2 6 -13 5 -11 0 -14 -3 -6 -6z"/>
<path d="M3496 3435 c-11 -8 -28 -13 -37 -10 -9 3 -19 -1 -22 -9 -4 -9 -14 -12 -26 -9 -16 4 -19 1 -14 -19 3 -12 19 -42 35 -65 31 -47 58 -69 38 -34 -9 18 -7 26 9 48 12 14 21 38 21 54 0 17 8 34 22 43 15 11 17 16 8 16 -8 0 -24 -7 -34 -15z"/>
<path d="M3080 3425 c0 -8 4 -15 10 -15 5 0 7 7 4 15 -4 8 -8 15 -10 15 -2 0 -4 -7 -4 -15z"/>
<path d="M3691 3414 c0 -11 3 -14 6 -6 3 7 2 16 -1 19 -3 4 -6 -2 -5 -13z"/>
<path d="M3102 3380 c0 -14 2 -19 5 -12 2 6 2 18 0 25 -3 6 -5 1 -5 -13z"/>
<path d="M630 3350 c0 -5 5 -10 11 -10 5 0 7 5 4 10 -3 6 -8 10 -11 10 -2 0 -4 -4 -4 -10z"/>
<path d="M3660 3350 c0 -5 5 -10 10 -10 6 0 10 5 10 10 0 6 -4 10 -10 10 -5 0 -10 -4 -10 -10z"/>
<path d="M495 3340 c3 -5 10 -10 16 -10 5 0 9 5 9 10 0 6 -7 10 -16 10 -8 0 -12 -4 -9 -10z"/>
<path d="M3116 3336 c3 -9 11 -16 16 -16 13 0 5 23 -10 28 -7 2 -10 -2 -6 -12z"/>
<path d="M520 3291 c0 -6 5 -13 10 -16 6 -3 10 1 10 9 0 9 -4 16 -10 16 -5 0 -10 -4 -10 -9z"/>
<path d="M600 3254 c0 -8 5 -12 10 -9 6 3 10 10 10 16 0 5 -4 9 -10 9 -5 0 -10 -7 -10 -16z"/>
<path d="M3281 3265 c0 -5 6 -19 14 -29 8 -11 15 -15 15 -10 0 6 -7 19 -15 30 -8 10 -14 15 -14 9z"/>
<path d="M540 3251 c0 -5 5 -13 10 -16 6 -3 10 -2 10 4 0 5 -4 13 -10 16 -5 3 -10 2 -10 -4z"/>
<path d="M3350 3252 c0 -5 7 -15 15 -22 8 -7 15 -8 15 -2 0 5 -7 15 -15 22 -8 7 -15 8 -15 2z"/>
<path d="M2482 3219 c-13 -16 -20 -29 -15 -29 9 1 47 50 41 54 -1 2 -13 -10 -26 -25z"/>
<path d="M2932 3230 c-7 -11 -8 -20 -3 -20 9 0 24 30 18 36 -1 2 -8 -6 -15 -16z"/>
<path d="M3083 3238 c-24 -31 -24 -36 2 -25 24 11 35 37 16 37 -5 0 -13 -6 -18 -12z"/>
<path d="M3610 3240 c0 -5 5 -10 10 -10 6 0 10 5 10 10 0 6 -4 10 -10 10 -5 0 -10 -4 -10 -10z"/>
<path d="M3723 3235 c-9 -25 4 -29 17 -6 7 15 7 21 0 21 -6 0 -13 -7 -17 -15z"/>
<path d="M3010 3225 c-7 -9 -10 -18 -7 -21 3 -3 10 4 17 15 13 25 8 27 -10 6z"/>
<path d="M575 3219 c-4 -6 -5 -13 -2 -16 7 -7 27 6 27 18 0 12 -17 12 -25 -2z"/>
<path d="M3176 3184 c-21 -25 -35 -48 -31 -52 4 -4 10 -1 12 6 3 6 9 12 14 12 13 0 12 -1796 -1 -1821 -10 -19 -5 -19 252 -19 145 0 257 4 250 9 -11 6 -13 126 -10 634 2 497 0 627 -9 627 -12 0 -24 -11 -68 -62 -19 -22 -45 -23 -45 -2 0 14 -2 14 -22 0 -30 -21 -68 -21 -68 0 0 15 -2 15 -25 0 -16 -10 -35 -14 -52 -11 -16 4 -38 8 -50 11 -19 4 -21 7 -12 32 6 15 24 36 42 47 18 11 41 37 52 57 11 20 31 51 44 69 l25 32 -35 -7 c-135 -27 -138 -21 -35 79 49 48 77 84 86 111 7 21 16 43 21 49 18 19 8 24 -23 10 -44 -18 -124 -29 -131 -18 -3 5 22 39 56 75 34 36 67 80 74 97 11 31 11 31 -21 31 -17 0 -41 7 -54 15 -19 14 -21 14 -16 1 5 -12 -5 -15 -56 -14 -50 1 -67 6 -90 24 -15 13 -29 24 -31 24 -2 -1 -21 -21 -43 -46z"/>
<path d="M3502 3198 c7 -19 38 -22 38 -4 0 10 -9 16 -21 16 -12 0 -19 -5 -17 -12z"/>
<path d="M517 3173 c-2 -5 2 -19 9 -33 l14 -25 0 27 c0 26 -15 46 -23 31z"/>
<path d="M3670 3143 c0 -10 5 -25 10 -33 8 -12 10 -9 10 12 0 15 -4 30 -10 33 -5 3 -10 -2 -10 -12z"/>
<path d="M450 3140 c0 -5 5 -10 10 -10 6 0 10 5 10 10 0 6 -4 10 -10 10 -5 0 -10 -4 -10 -10z"/>
<path d="M540 3090 c0 -10 50 -90 56 -90 2 0 8 9 15 21 10 19 8 20 -10 14 -18 -5 -24 0 -36 29 -15 35 -25 46 -25 26z"/>
<path d="M2396 3073 c-6 -14 -5 -15 5 -6 7 7 10 15 7 18 -3 3 -9 -2 -12 -12z"/>
<path d="M3746 3061 c-4 -7 -5 -15 -2 -18 9 -9 19 4 14 18 -4 11 -6 11 -12 0z"/>
<path d="M3620 3050 c-13 -8 -13 -10 2 -10 9 0 19 -6 21 -12 3 -7 6 -3 6 10 1 24 -6 27 -29 12z"/>
<path d="M2369 3033 c-13 -16 -12 -17 4 -4 9 7 17 15 17 17 0 8 -8 3 -21 -13z"/>
<path d="M2500 2939 l0 -69 48 0 48 0 -1 67 -2 67 -47 2 -46 2 0 -69z"/>
<path d="M3726 2995 c-4 -11 -16 -38 -27 -59 -13 -27 -16 -43 -9 -50 7 -7 10 -5 10 5 0 8 9 34 21 58 11 23 18 48 16 54 -3 7 -8 3 -11 -8z"/>
<path d="M3661 2974 c0 -11 3 -14 6 -6 3 7 2 16 -1 19 -3 4 -6 -2 -5 -13z"/>
<path d="M2302 2943 c-21 -31 -35 -76 -21 -67 5 3 9 14 9 24 0 10 4 22 10 25 11 7 33 45 26 45 -3 0 -13 -12 -24 -27z"/>
<path d="M496 2915 c-6 -18 2 -45 15 -45 12 0 12 47 0 54 -5 3 -11 -1 -15 -9z"/>
<path d="M460 2899 c0 -5 5 -7 10 -4 6 3 10 8 10 11 0 2 -4 4 -10 4 -5 0 -10 -5 -10 -11z"/>
<path d="M660 2900 c0 -5 5 -10 10 -10 6 0 10 5 10 10 0 6 -4 10 -10 10 -5 0 -10 -4 -10 -10z"/>
<path d="M534 2823 c30 -55 33 -58 50 -44 9 8 16 18 16 23 0 6 -7 4 -16 -3 -14 -11 -18 -10 -30 6 -8 10 -14 25 -14 32 0 7 -5 13 -10 13 -6 0 -4 -12 4 -27z"/>
<path d="M600 2839 c0 -5 5 -7 10 -4 6 3 10 8 10 11 0 2 -4 4 -10 4 -5 0 -10 -5 -10 -11z"/>
<path d="M3725 2819 c-10 -15 3 -25 16 -12 7 7 7 13 1 17 -6 3 -14 1 -17 -5z"/>
<path d="M3612 2808 c2 -6 10 -14 16 -16 7 -2 10 2 6 12 -7 18 -28 22 -22 4z"/>
<path d="M2191 2761 c-19 -25 -27 -40 -17 -32 20 17 60 71 55 75 -2 2 -19 -18 -38 -43z"/>
<path d="M1645 2760 c-10 -11 -13 -20 -7 -20 6 0 16 9 22 20 6 11 9 20 7 20 -2 0 -12 -9 -22 -20z"/>
<path d="M3707 2763 c-4 -3 -7 -13 -7 -22 1 -13 3 -13 11 2 11 19 8 33 -4 20z"/>
<path d="M3641 2734 c0 -11 3 -14 6 -6 3 7 2 16 -1 19 -3 4 -6 -2 -5 -13z"/>
<path d="M1270 2610 l0 -110 75 0 75 0 0 110 0 110 -75 0 -75 0 0 -110z"/>
<path d="M725 2700 c3 -5 8 -10 11 -10 2 0 4 5 4 10 0 6 -5 10 -11 10 -5 0 -7 -4 -4 -10z"/>
<path d="M3667 2704 c-8 -8 1 -24 14 -24 5 0 9 7 9 15 0 15 -12 20 -23 9z"/>
<path d="M453 2681 c-6 -10 -8 -23 -3 -30 5 -9 9 -3 13 16 6 34 5 37 -10 14z"/>
<path d="M810 2660 c0 -5 5 -10 10 -10 6 0 10 5 10 10 0 6 -4 10 -10 10 -5 0 -10 -4 -10 -10z"/>
<path d="M560 2601 c0 -5 5 -13 10 -16 6 -3 10 -2 10 4 0 5 -4 13 -10 16 -5 3 -10 2 -10 -4z"/>
<path d="M3465 2559 c-11 -17 1 -21 15 -4 8 9 8 15 2 15 -6 0 -14 -5 -17 -11z"/>
<path d="M3550 2555 c-7 -8 -8 -15 -2 -15 5 0 15 7 22 15 7 8 8 15 2 15 -5 0 -15 -7 -22 -15z"/>
<path d="M1855 2468 l1 -93 62 0 62 0 0 93 0 92 -62 0 -63 0 0 -92z"/>
<path d="M2259 2553 c0 -5 -1 -46 -1 -93 l0 -85 71 -3 71 -3 0 96 0 95 -70 0 c-38 0 -70 -3 -71 -7z"/>
<path d="M2720 2465 l0 -95 60 0 60 0 2 80 c0 44 1 86 2 93 1 8 -19 13 -61 15 l-63 3 0 -96z"/>
<path d="M2725 1890 c-3 -5 -1 -10 4 -10 6 0 11 5 11 10 0 6 -2 10 -4 10 -3 0 -8 -4 -11 -10z"/>
<path d="M1260 1790 l0 -100 65 0 65 0 0 100 0 100 -65 0 -65 0 0 -100z"/>
<path d="M2340 1660 c0 -5 7 -10 16 -10 8 0 12 5 9 10 -3 6 -10 10 -16 10 -5 0 -9 -4 -9 -10z"/>
<path d="M2415 1660 c-3 -5 1 -10 9 -10 9 0 16 5 16 10 0 6 -4 10 -9 10 -6 0 -13 -4 -16 -10z"/>
<path d="M4007 1093 c-4 -3 -7 -17 -7 -30 0 -16 -6 -23 -20 -23 -11 0 -20 -6 -20 -13 0 -20 -28 -73 -45 -87 -8 -7 -15 -23 -15 -36 0 -13 -6 -24 -13 -24 -15 0 -107 -91 -107 -106 0 -5 -36 -45 -80 -89 -44 -44 -80 -85 -80 -92 0 -7 -9 -13 -20 -13 -11 0 -20 -4 -20 -10 0 -5 -6 -10 -13 -10 -7 0 -26 -13 -42 -30 -16 -16 -34 -30 -40 -30 -6 0 -24 -13 -40 -30 -16 -16 -34 -30 -40 -30 -6 0 -22 -12 -36 -26 -13 -14 -51 -38 -85 -54 -34 -17 -67 -37 -74 -45 -7 -8 -21 -15 -31 -15 -10 0 -34 -9 -54 -20 -20 -11 -42 -20 -49 -20 -8 0 -16 -3 -18 -7 -5 -13 -88 -53 -108 -53 -11 0 -22 -5 -25 -10 -3 -6 -21 -10 -40 -10 -19 0 -37 -5 -40 -10 -3 -6 -17 -10 -30 -10 -13 0 -27 -5 -30 -10 -3 -6 -21 -10 -40 -10 -19 0 -37 -5 -40 -10 -3 -6 -17 -10 -30 -10 -13 0 -27 -4 -30 -10 -3 -5 -21 -10 -40 -10 -19 0 -37 -5 -40 -10 -3 -6 -35 -10 -70 -10 -35 0 -67 -4 -70 -10 -8 -14 -542 -14 -550 0 -3 5 -35 10 -70 10 -35 0 -67 5 -70 10 -3 6 -21 10 -40 10 -19 0 -37 5 -40 10 -3 6 -17 10 -30 10 -13 0 -27 5 -30 10 -3 6 -21 10 -40 10 -19 0 -37 5 -40 10 -3 6 -17 10 -30 10 -13 0 -27 5 -30 10 -3 6 -21 10 -40 10 -19 0 -37 5 -40 10 -3 6 -14 10 -23 10 -19 0 -225 100 -230 112 -2 5 -12 8 -23 8 -10 0 -19 5 -19 10 0 6 -6 10 -14 10 -17 0 -100 42 -104 53 -2 4 -12 7 -23 7 -12 0 -19 7 -19 20 0 13 -7 20 -18 20 -10 0 -31 13 -47 30 -16 16 -34 30 -40 30 -6 0 -24 13 -40 30 -16 16 -33 30 -39 30 -18 0 -216 204 -216 222 0 11 -8 18 -20 18 -11 0 -20 6 -20 13 0 7 -18 31 -40 52 -34 33 -42 37 -50 25 -8 -12 5 -30 55 -79 36 -35 63 -66 60 -69 -8 -8 207 -222 217 -216 4 3 22 -11 39 -30 17 -20 35 -33 40 -30 5 3 21 -8 35 -25 14 -17 32 -31 40 -31 8 0 28 -16 45 -34 17 -19 36 -33 43 -30 8 3 16 -2 19 -10 4 -9 13 -13 20 -10 8 3 17 -2 20 -10 4 -9 13 -13 20 -10 8 3 17 -2 20 -10 4 -9 13 -13 20 -10 8 3 17 -2 20 -10 4 -9 13 -13 20 -10 8 3 17 -2 20 -10 4 -9 13 -13 22 -10 8 3 15 1 15 -5 0 -6 9 -11 20 -11 11 0 20 -4 20 -10 0 -5 9 -10 20 -10 11 0 20 -4 20 -10 0 -5 9 -10 19 -10 10 0 21 -6 24 -14 4 -9 14 -12 27 -9 13 4 25 0 31 -8 5 -8 21 -12 42 -11 23 2 36 -2 40 -12 4 -9 13 -12 27 -9 13 4 25 0 31 -8 5 -8 21 -12 42 -11 23 2 36 -2 40 -12 4 -9 13 -12 27 -9 13 4 25 0 31 -8 5 -8 21 -13 40 -11 18 2 35 -2 39 -9 6 -8 30 -12 74 -10 42 1 66 -2 66 -8 0 -8 91 -11 290 -11 199 0 290 3 290 11 0 6 24 9 66 8 44 -2 68 2 74 10 4 7 21 11 39 9 19 -2 35 3 40 11 6 8 18 12 31 8 14 -3 23 0 27 9 4 10 17 14 40 12 21 -1 37 3 42 11 6 8 18 12 31 8 14 -3 23 0 27 9 4 10 17 14 40 12 21 -1 37 3 42 11 6 8 18 12 31 8 14 -3 23 0 27 9 3 8 12 13 20 10 7 -3 16 1 20 10 3 8 12 13 20 10 7 -3 16 1 20 10 3 8 12 13 20 10 7 -3 16 1 19 9 4 8 15 15 25 15 10 0 19 5 19 10 0 6 9 10 20 10 11 0 20 5 20 10 0 6 9 10 20 10 11 0 20 5 20 10 0 6 9 10 20 10 11 0 20 5 20 11 0 6 7 8 15 5 9 -3 18 1 22 10 3 8 11 13 19 10 7 -3 26 11 43 30 17 18 37 34 45 34 8 0 26 14 39 30 14 17 32 30 40 30 9 0 27 14 42 31 14 17 29 29 32 25 9 -8 213 194 213 210 0 7 29 40 65 75 35 34 62 66 59 71 -3 5 6 18 20 29 15 11 23 26 19 34 -3 8 0 15 6 15 6 0 11 7 11 16 0 9 11 25 25 35 13 11 22 26 19 33 -3 7 2 16 10 19 9 4 13 13 10 22 -7 16 -16 19 -27 8z"/>
</g>
</g>
</svg>
