<?xml version="1.0" encoding="UTF-8"?>
<svg version="1.1" viewBox="0 0 133.12 151.68" xmlns="http://www.w3.org/2000/svg" xmlns:cc="http://creativecommons.org/ns#" xmlns:dc="http://purl.org/dc/elements/1.1/" xmlns:rdf="http://www.w3.org/1999/02/22-rdf-syntax-ns#">
<metadata>
<rdf:RDF>
<cc:Work rdf:about="">
<dc:format>image/svg+xml</dc:format>
<dc:type rdf:resource="http://purl.org/dc/dcmitype/StillImage"/>
<dc:title/>
</cc:Work>
</rdf:RDF>
</metadata>
<g transform="translate(-2.2016 -1.308)" stroke-width=".64">
<path d="m56 147.81c-2.112-0.32665-5.568-1.2347-7.68-2.0179-21.671-8.0361-34.538-21.796-41.452-44.329-1.3531-4.4098-1.3878-5.4992-1.5935-50.108-0.17044-36.957-0.053384-45.612 0.61759-45.662 4.1151-0.30801 120.61 0.25699 120.94 0.58654 0.2381 0.23948 0.50633 20.307 0.59605 44.595 0.15928 43.116 0.13111 44.289-1.1915 49.6-2.6976 10.833-7.9352 20.767-14.982 28.415-7.2151 7.8309-19.21 15.115-29.19 17.727-5.7139 1.4953-19.908 2.1446-26.065 1.1923zm22.255-2.4872c4.596-1.0519 10.569-3.1981 14.865-5.3414 14.31-7.1393 25.44-20.641 29.996-36.388 2.2059-7.6243 2.9568-21.436 2.5355-46.638-0.18535-11.088-0.38519-20.212-0.44407-20.277-0.14447-0.15735-9.9904 1.011-11.635 1.3807-0.99383 0.22339-1.3468 0.87342-1.4703 2.7078-0.0894 1.3276-0.66287 3.281-1.2744 4.341-1.1476 1.9893-6.7261 5.4419-7.5161 4.6519-0.24518-0.24518 0.16476-1.865 0.91098-3.5997 1.1058-2.5704 1.232-3.5116 0.68266-5.0876l-0.67412-1.9338-12.275 0.35439c-6.7515 0.19491-12.328 0.39191-12.392 0.43777-0.06394 0.04586 0.34335 1.7347 0.90513 3.7531 0.94103 3.3809 0.93787 3.9701-0.04019 7.488-0.73724 2.6517-0.87885 4.2651-0.46348 5.2807 0.32896 0.8043 0.89668 3.3061 1.2616 5.5595 0.98245 6.0668 3.8153 11.567 8.0234 15.579 2.6484 2.5246 3.6844 4.0176 3.9581 5.7042 0.44765 2.7586-0.62483 5.0201-2.3807 5.0201-1.1558 0-1.2587 0.32748-1.0066 3.2049 0.15444 1.7627-0.0013 3.3792-0.34586 3.5922-0.34465 0.213-0.42519 1.0028-0.17897 1.7551 0.24622 0.75228 0.4962 2.8199 0.55553 4.5947 0.12637 3.781 2.5894 9.2684 5.4932 12.238 2.8635 2.9289 3.5061 5.2814 2.5504 9.3367-1.8427 7.819-7.3235 15.85-11.898 17.433-1.5645 0.54163-2.5623 0.62237-2.7079 0.21912-0.12687-0.35118-1.0629 0.15878-2.08 1.1332l-1.8493 1.7718v-1.5773c0-0.86753 0.48084-2.2894 1.0685-3.1597l1.0685-1.5824-1.6975 1.5412c-0.93364 0.84767-1.8659 2.0717-2.0717 2.72s-0.64272 1.1788-0.971 1.1788c-0.99123 0-0.66999-4.0908 0.44641-5.6847 1.0072-1.438 0.99766-1.4651-0.27666-0.78309-0.72596 0.38853-1.5028 1.2827-1.7264 1.9871-0.48065 1.5144-1.6002 1.7131-1.6002 0.28409 0-3.5953 1.582-6.8619 4.5251-9.3435 3.0572-2.5778 4.942-5.911 3.7567-6.6435-0.33098-0.20456-0.60177-1.0749-0.60177-1.9342 0-0.92932-0.37146-1.5622-0.91687-1.5622-0.50428 0-1.0997-0.576-1.3231-1.28s-0.77262-1.28-1.2204-1.28c-0.44778 0-1.1422-0.72-1.5432-1.6-0.40095-0.88-1.136-1.6-1.6333-1.6-0.49739 0-1.0846-0.71831-1.305-1.5962-0.22035-0.87794-0.75557-1.5259-1.1894-1.44-0.47251 0.0936-0.87268-0.725-0.99809-2.0417-0.12861-1.3503-0.39909-1.8909-0.70138-1.4018-0.34843 0.56378-0.83855 0.27133-1.6794-1.0021-0.8929-1.3522-1.1717-2.9092-1.1242-6.2782 0.0439-3.1135-0.08012-3.8944-0.4065-2.56-0.2583 1.056-1.6745 3.6319-3.147 5.7241-3.5251 5.0086-5.3063 10.827-5.1482 16.818 0.07626 2.8899-0.1734 4.9783-0.66609 5.572-0.43344 0.52226-0.61734 1.2258-0.40869 1.5634 0.65877 1.0659-2.8114 4.5622-4.5281 4.5622-1.962 0-3.7411 0.91164-6.5603 3.3615-1.8123 1.5748-2.5593 1.8321-4.4357 1.5276-1.241-0.20139-2.671-0.78077-3.1777-1.2875-0.7174-0.7174-1.3445-0.77382-2.833-0.2549-1.2486 0.43528-2.0544 0.4477-2.323 0.0358-0.2262-0.34683-0.79194-0.75267-1.2572-0.90187-0.63019-0.20209-0.49214-0.72103 0.5413-2.0348l1.3872-1.7636-2.2933 1.0936c-2.9421 1.403-3.5703 0.73854-1.6972-1.795 0.81468-1.1019 1.1542-1.8014 0.75454-1.5544-0.39969 0.24701-0.7267 0.15843-0.7267-0.19685 0-0.35529 0.504-0.93953 1.12-1.2983 0.616-0.35879 0.8102-0.66111 0.43156-0.67181s-1.3648 0.70054-2.1916 1.5805-1.7409 1.6-2.0316 1.6c-1.2394 0-0.37384-2.6161 1.4784-4.4684 1.863-1.863 2.2873-1.9952 5.92-1.8442 4.0291 0.16743 6.5663-0.67715 7.7532-2.5808 0.352-0.56461 0.64807-2.8088 0.65793-4.987 0.01423-3.1434-0.15081-3.8204-0.8-3.2816-1.0705 0.88847-1.1165-0.92163-0.07315-2.88 0.67326-1.2637 0.64253-1.3136-0.32-0.51957-0.91807 0.75734-1.0648 0.7322-1.0648-0.18251 0-0.58348 0.49903-1.8428 1.109-2.7984 1.0562-1.6549 1.0555-1.6951-0.01547-0.84629-1.5386 1.2194-2.1031 0.42912-1.1647-1.6305 0.5841-1.282 0.59349-1.8179 0.03789-2.1613-0.91915-0.56807 0.3032-3.1742 1.4958-3.1892 0.51139-0.0065 0.46404-0.20815-0.13833-0.58934-1.3198-0.83522 1.1809-5.3327 6.0358-10.855 4.9067-5.5815 7.6374-7.8594 9.559-7.9741 1.1178-0.06674 1.3584-0.29988 0.89103-0.8634-0.35215-0.42458-0.46677-1.0527-0.25473-1.3958 0.66458-1.0753-0.72873-1.3883-1.5854-0.35608-0.44828 0.54014-1.2035 0.83302-1.6783 0.65084s-1.2179 0.23671-1.6514 0.93087c-0.43351 0.69416-1.2044 1.2621-1.713 1.2621s-1.5914 0.6262-2.406 1.3916c-0.81469 0.76536-1.4812 1.0534-1.4812 0.64 0-0.41336-0.63-0.12156-1.4 0.64844-0.95877 0.95877-1.484 1.1481-1.6664 0.60088-0.19483-0.5845-0.59338-0.50319-1.4839 0.30274-0.66965 0.60603-1.4053 0.91413-1.6347 0.68468-0.22945-0.22945-0.80972-0.09142-1.2895 0.30674-2.1879 1.8158-9.6726 1.8225-12.217 0.01088-2.5197-1.7942-7.3298-2.4383-8.4179-1.1271-0.45971 0.55392-1.0958 0.84648-1.4135 0.65012-0.77067-0.4763 1.3447-3.9909 2.6071-4.3317 0.58675-0.15838 0.3917-0.29921-0.47498-0.34297-0.81736-0.04128-2.1249 0.63183-2.9437 1.5154-0.81025 0.87427-1.6269 1.4359-1.8148 1.248-0.50394-0.50394 0.53862-4.6446 1.4442-5.7357 0.5541-0.66765 0.57071-0.94186 0.05704-0.94186-0.39854 0-1.2178 0.576-1.8206 1.28-1.2525 1.4629-2.0915 1.6508-2.0915 0.46856 0-1.5698 3.2382-5.5886 4.5031-5.5886 1.7303 0 1.5767-0.92883-0.29447-1.7814-1.2169-0.55445-1.7155-0.50913-2.3125 0.21023-0.41861 0.5044-1.0415 0.7438-1.3842 0.53199-0.34271-0.2118 0.32242-1.3606 1.4781-2.553 3.273-3.3768 5.9627-2.9728 11.295 1.6965 3.5754 3.1307 7.592 4.2016 10.773 2.8724 1.8246-0.76238 7.5656-4.8387 11.374-8.0759 0.30373-0.25819 0.34299-0.808 0.08724-1.2218-0.3156-0.51065-0.69864-0.30437-1.1922 0.64207-0.39998 0.76694-1.5034 1.8575-2.4521 2.4235-1.4983 0.89389-1.9427 0.91255-3.3824 0.14204-0.91942-0.49206-1.514-1.261-1.3352-1.7269 0.22402-0.58378-0.30582-0.84608-1.7376-0.86023-2.2977-0.02271-4.9508-1.5686-3.5338-2.059 0.45866-0.15874-0.09878-0.49798-1.2387-0.75388-2.5431-0.57086-3.7023-1.9824-1.2418-1.512 2.3091 0.44142 1.518-0.57565-0.85285-1.0964-1.052-0.23101-1.9487-0.68517-1.9927-1.0092-0.044-0.32403-0.116-0.86475-0.16-1.2016-0.044-0.33685-0.656-1.0477-1.36-1.5796-0.9646-0.72887-1.0434-0.97572-0.32-1.0018 0.65065-0.02344 0.44749-0.42837-0.63044-1.2566-1.8072-1.3885-1.2477-2.631 0.65086-1.4453 1.9382 1.2104 4.2795 0.92919 5.3833-0.64663 1.4325-2.0451 1.2477-2.9282-0.54107-2.5862-1.0203 0.19505-2.0158-0.18455-2.96-1.1288-0.78245-0.78245-1.2997-1.0266-1.1495-0.54264 0.15021 0.484 1.1874 1.312 2.3049 1.84 2.1723 1.0264 2.3172 1.7384 0.57686 2.8343-1.6306 1.0268-5.4974-1.3316-7.0082-4.2743l-1.2322-2.4h-6.9315c-7.8177 0-9.2727-0.63522-8.5353-3.7263 0.64166-2.6897 1.4685-3.3137 4.3907-3.3137 2.512 0 2.7512-0.14786 3.1056-1.92 0.2652-1.326 0.76071-1.92 1.6016-1.92 0.6697 0 1.5762-0.432 2.0144-0.96 0.4426-0.5333 1.8286-0.95722 3.1184-0.95375 2.8028 0.0075 8.6968 2.6327 9.5663 4.2607 0.57523 1.077 1.3614 1.1461 9.6066 0.84401 4.939-0.18096 9.1508-0.49974 9.3595-0.7084 0.20866-0.20866 0.21208-0.81536 0.0076-1.3482-0.28213-0.73523-1.0544-0.89191-3.2025-0.64978-3.491 0.39349-6.2404-1.105-5.935-3.2347 0.17517-1.2216 0.53746-1.3645 3.0019-1.1846l2.8027 0.20458-1.3627-1.9137c-1.4986-2.1046-1.7376-3.6489-0.66692-4.3106 0.50102-0.30965 0.50102-0.62475 0-1.1258-1.5134-1.5134-0.76909-2.3864 1.7042-1.9991 2.0092 0.31464 3.3313-0.10095 8.1196-2.5524 6.157-3.1522 8.935-3.5816 13.234-2.0454 1.9074 0.68165 2.5184 0.67672 3.4823-0.02809 0.64294-0.47014 2.1219-0.85479 3.2867-0.85479 4.6824 0 6.377 5.4392 2.8069 9.0092-1.0289 1.0289-2.4689 1.8708-3.2 1.8708-0.73107 0-1.3292 0.28087-1.3292 0.62416 0 0.39903 0.61692 0.38961 1.7104-0.02612 2.762-1.0501 3.4573-0.38387 3.1722 3.0392-0.1389 1.6674 0.06291 3.724 0.44846 4.5702 0.6445 1.4145 0.96095 1.5073 3.925 1.1511 1.7732-0.21311 5.5945-0.38998 8.4918-0.39304 5.0656-0.0054 5.283-0.06621 5.6644-1.5858 0.68408-2.7256-1.7722-5.8164-5.3384-6.7176l-3.0338-0.76667 1.5177-1.2333c0.83474-0.67829 4.4309-2.1383 7.9915-3.2445 5.7064-1.7728 7.416-2.0188 14.421-2.0745 8.4456-0.06718 9.7953 0.43032 6.4802 2.3886-2.6214 1.5485-3.0345 2.5578-3.3008 8.065l-0.22998 4.7569 1.92 0.45769c1.056 0.25173 3.144 0.60373 4.64 0.78221l2.72 0.32452v-25.278l-9.7018-0.41992c-5.336-0.23096-31.952-0.41993-59.147-0.41993-38.758 0-49.502 0.17143-49.709 0.7931-0.3415 1.0245 0.038918 69.637 0.43738 78.887 0.71392 16.572 5.8437 29.094 16.555 40.409 14.213 15.015 35.483 21.883 54.381 17.558zm-8.815-132.53c-0.704-0.30252-2.36-0.57028-3.68-0.59502-2.5621-0.048022-3.0044-0.66668-1.4178-1.9834 2.1349-1.7718 7.3378-0.10017 7.3378 2.3576 0 0.97072-0.40253 1.0104-2.24 0.22081zm-32.96 119.68c0.528-0.34122 0.672-0.6204 0.32-0.6204s-1.072 0.27918-1.6 0.6204-0.672 0.6204-0.32 0.6204 1.072-0.27918 1.6-0.6204zm0.29267-1.8758c0.20252-0.32768 0.07551-0.77668-0.28223-0.99778-0.35774-0.22109-0.65044 0.047-0.65044 0.59578 0 1.1242 0.38404 1.2897 0.93267 0.402zm-1.106-56.751c-0.21267-0.21266-0.76467-0.2354-1.2267-0.050496-0.51055 0.2043-0.3589 0.35596 0.38667 0.38666 0.67467 0.02778 1.0527-0.12347 0.84-0.33614zm-13.267-0.50486c0-0.13834-0.432-0.4173-0.96-0.61992-0.528-0.20261-0.96-0.08942-0.96 0.25153 0 0.34095 0.432 0.61992 0.96 0.61992s0.96-0.11319 0.96-0.25153zm0.67157-4.5104c-0.43289-0.52161-1.2312-0.74284-1.8384-0.50947-1.048 0.4028-0.88269 0.49839 2.3652 1.3676 0.1311 0.03507-0.10596-0.35108-0.52679-0.85816zm26.208-9.638c0-0.528-0.288-0.96-0.64-0.96s-0.64 0.432-0.64 0.96 0.288 0.96 0.64 0.96 0.64-0.432 0.64-0.96zm-0.84281-9.4c-0.2043-0.51055-0.35596-0.3589-0.38667 0.38667-0.02779 0.67467 0.12347 1.0527 0.33614 0.84 0.21267-0.21267 0.2354-0.76467 0.05053-1.2267zm4.2691-6.1049 1.8263-2.0951-5.6663 0.03688c-3.1165 0.02029-6.7993 0.23808-8.1841 0.484l-2.5178 0.44711 2.1677 1.824c2.0183 1.6983 2.4262 1.7947 5.9199 1.3995 3.606-0.40797 3.7256-0.37485 3.0701 0.84995-1.0637 1.9875-0.73674 2.4963 0.4715 0.73374 0.59754-0.87168 1.9083-2.5277 2.9127-3.68zm56.893-0.22902c0.61545-1.2024 1.1194-3.0726 1.12-4.1562 6.4e-4 -1.8427 0.2111-2.0186 3.2498-2.72 1.7868-0.41246 4.2924-0.74992 5.568-0.74992 3.2739 0 1.8143-1.1497-1.7768-1.3996l-2.88-0.2004-0.38388-7.36h-3.7142c-2.0428 0-5.4844 0.18503-7.6481 0.41117l-3.9339 0.41117-0.0098 3.2688c-0.0051 1.7979-0.26675 3.6747-0.58079 4.1708-1.0732 1.6952-0.03731 2.6279 2.7994 2.5206 1.4905-0.05638 3.0326 0.09689 3.4269 0.34058 1.1898 0.73537 1.9606 4.6504 1.4026 7.1245-0.5091 2.2573-0.48922 2.2901 0.86029 1.4176 0.75979-0.49119 1.885-1.8768 2.5004-3.0792zm-87.77-10.986c0.3594-0.65386 0.3722-1.12 0.03075-1.12-0.32168 0-0.94124 0.86034-1.3768 1.9119s-1.091 1.727-1.4565 1.5011c-0.41278-0.25511-0.46887-0.09404-0.14803 0.42509 0.5304 0.8582 1.451 0.01013 2.9506-2.7181zm3.3415 1.29c0.35255-1.3989 0.33272-1.4062-0.56275-0.20765-1.0279 1.3759-1.2413 2.5467-0.36542 2.0054 0.30951-0.19129 0.72719-1.0003 0.92817-1.7978zm28.589-6.89c0-0.352-0.305-0.64-0.67777-0.64s-0.49978 0.288-0.28223 0.64 0.52254 0.64 0.67777 0.64 0.28223-0.288 0.28223-0.64zm46.733-2.4354c0.87284-0.3275 4.539-0.95392 8.147-1.392s6.56-1.0129 6.56-1.2773c0-0.2644 0.792-1.2821 1.76-2.2615l1.76-1.7807-5.76 0.43009c-7.0101 0.52343-18.24 3.3381-18.24 4.5717 0 0.75722 3.5295 3.3675 3.8507 2.8478 0.18443-0.29841 1.0495-0.81052 1.9223-1.138zm-41.773-4.1246c-0.40322-1.211-2.4003-1.3832-2.4003-0.20693 0 0.59369 0.5472 1.0069 1.3333 1.0069 0.78206 0 1.2232-0.33076 1.067-0.8zm19.797-3.16c-0.2043-0.51055-0.35596-0.3589-0.38666 0.38667-0.02778 0.67467 0.12347 1.0527 0.33614 0.84 0.21266-0.21267 0.2354-0.76467 0.0505-1.2267z" fill="#958b74"/>
<path d="m56.603 147.25c-11.73-2.0858-24.145-8.4948-32.287-16.666-9.876-9.9124-15.815-21.502-17.887-34.902-0.32646-2.112-0.68256-23.136-0.79132-46.72l-0.19776-42.88 48.64 0.11314c26.752 0.062225 54.112 0.13456 60.8 0.16075l12.16 0.04761v44.959c0 24.728-0.22269 45.303-0.49488 45.722-0.27219 0.41964-0.8009 2.4183-1.1749 4.4416-1.6161 8.7422-7.6424 19.798-15.189 27.865-13.305 14.223-34.43 21.264-53.579 17.859zm18.277-1.0066c8.0418-1.3836 10.519-2.0653 15.171-4.1746 9.0658-4.1106 19.222-12.28 24.561-19.757 4.9929-6.9921 9.765-18.945 10.827-27.118 0.33091-2.5475 0.61055-16.98 0.62142-32.072l0.01976-27.44-2.08 0.35669c-1.144 0.19618-1.72 0.20818-1.28 0.02667 1.3642-0.56276 0.88315-1.4096-0.96-1.6901-0.968-0.14732-0.464-0.23757 1.12-0.20055l2.88 0.0673v-26.24l-13.76-0.3936c-7.568-0.21648-34.424-0.43545-59.68-0.48659l-45.92-0.092994 0.003776 40.807c0.0041 44.444 0.26007 48.6 3.5596 57.787 4.9836 13.877 12.507 23.739 23.73 31.11 13.475 8.8494 26.95 11.961 41.187 9.5116zm4.5066-4.2354c-0.01466-0.56853 0.58219-1.8077 1.3263-2.7537 2.3063-2.932 0.58182-2.7725-2.0574 0.19037l-2.4968 2.803 0.42742-2.163c0.23508-1.1896 1.0069-2.9514 1.7151-3.9151 0.70824-0.96367 1.0706-1.9693 0.80517-2.2347-0.2654-0.26539-0.76324 0.0191-1.1063 0.63213-0.34309 0.61307-0.98589 1.1147-1.4285 1.1147s-1.1425 0.792-1.5553 1.76c-0.68744 1.6117-0.72209 1.5174-0.4112-1.12 0.41223-3.497 1.5334-5.3182 4.4366-7.2066 3.1037-2.0189 3.8845-4.1912 2.8121-7.8235-0.46931-1.5894-1.1888-2.8899-1.5989-2.8899s-0.9042-0.60634-1.098-1.3474c-0.19473-0.74466-0.72915-1.2208-1.1946-1.0644-0.48052 0.16146-1.1851-0.52649-1.6405-1.6017-0.53489-1.263-1.1155-1.763-1.76-1.5157-0.6763 0.25952-0.96472-0.0524-0.97161-1.0508-0.0054-0.78095-0.28898-1.8519-0.6302-2.3799-0.51678-0.79966-0.63253-0.74621-0.69303 0.32-0.03994 0.704-0.44808-0.016-0.90697-1.6s-0.87534-2.304-0.92545-1.6c-0.06836 0.9603-0.41726 0.66168-1.3969-1.1956-1.0499-1.9906-1.2313-3.1818-0.92563-6.08 0.20908-1.9824 0.52748-5.2977 0.70755-7.3674 0.18008-2.0696 0.48234-4.0136 0.67169-4.32 0.18936-0.30639 0.05037-0.55706-0.30882-0.55706-0.75997 0-1.6905 3.3202-2.3318 8.32-0.28928 2.2553-0.98977 4.1609-1.9497 5.3037-3.8158 4.543-7.0347 14.261-6.5151 19.669 0.38259 3.9817-0.07057 4.7657-2.1952 3.7977-1.3036-0.59396-2.0296-0.524-3.782 0.36443-1.1928 0.60472-2.643 1.5145-3.2227 2.0217s-2.6146 1.0833-4.5222 1.2802c-3.5982 0.37137-6.4081-0.53708-8.1489-2.6346-0.45746-0.55121-1.1347-1.0022-1.5049-1.0022-1.4052 0 2.4211 3.213 4.9986 4.1973 3.7877 1.4465 8.11 0.61702 12.582-2.4148 1.4211-0.96335 1.9903-1.0326 3.36-0.40848 1.9805 0.90236 2.0147 1.1885 0.38954 3.2545-0.79771 1.0141-2.1823 1.7488-3.7763 2.0037-1.5096 0.2414-3.5909 1.2999-5.201 2.6451-1.4763 1.2334-3.2473 2.2426-3.9355 2.2426-1.7976 0-4.8789-1.7262-5.6487-3.1646-0.98427-1.8391-0.81999-2.1346 0.94103-1.6926 0.88 0.22087 1.6 0.14409 1.6-0.17062 0-0.3147-0.84071-0.74033-1.8683-0.94584-1.1641-0.23281-2.3016-1.1073-3.018-2.32-1.3939-2.3596-3.6421-2.575-5.7925-0.55479-2.3632 2.2201-1.9158-0.26292 0.491-2.725 1.8502-1.8927 2.1708-1.9912 5.1796-1.5921 3.7356 0.49556 7.2824-0.46462 8.2255-2.2268 0.35613-0.66544 0.5978-2.6145 0.53704-4.3312-0.06076-1.7167 0.09464-3.4532 0.34535-3.8589 0.74555-1.2063-0.23263-2.1968-1.2971-1.3133-0.78849 0.65439-0.82692 0.51258-0.26302-0.97059 0.94208-2.4778 0.84234-3.2414-0.29961-2.2936-1.4146 1.174-1.167-0.20418 0.39296-2.1874 1.4636-1.8606 1.2093-2.9824-0.3775-1.6654-1.3183 1.0941-1.3149-0.44456 0.0049-2.1895 1.2288-1.6246 1.1922-2.3344-0.09481-1.8405-0.86674 0.3326-0.92151 0.18591-0.33778-0.90479 0.38317-0.71596 1.1367-1.4706 1.6745-1.677 0.53777-0.20636 0.97777-0.70306 0.97777-1.1038 0-0.40705-0.4551-0.55393-1.0313-0.33283-2.4202 0.92872 1.7129-5.3513 7.6025-11.551 5.967-6.2817 6.9031-6.6393 10.541-4.0268 1.5432 1.1082 2.9544 1.8663 3.1361 1.6846 0.18168-0.18167-0.9732-1.2921-2.5664-2.4677-3.6685-2.7069-3.9742-3.4919-1.8186-4.6701l1.7367-0.94922-2.0438 0.19259c-1.1241 0.10592-2.4795 0.55415-3.012 0.99606s-1.249 0.62986-1.5924 0.41767-1.0529 0.22623-1.5769 0.97428c-0.52395 0.74804-1.2542 1.1737-1.6229 0.94588-0.36862-0.22782-1.0369 0.17296-1.4851 0.89062-0.99818 1.5983-1.8781 1.7155-1.3887 0.18483 0.19696-0.616-0.54931-0.112-1.6584 1.12-1.8402 2.0442-1.9785 2.1002-1.5822 0.64l0.4343-1.6-1.996 1.8797c-1.1901 1.1208-1.996 1.5279-1.996 1.0084 0-0.57141-0.5395-0.36447-1.5674 0.60123-0.88278 0.82933-1.992 1.3096-2.5395 1.0995-0.53464-0.20516-1.1423-0.0976-1.3503 0.23903-0.69744 1.1285-5.0721 0.61539-8.3027-0.97378-3.4284-1.6865-7.8984-2.0998-9.152-0.84616-0.51554 0.51554-0.768 0.53762-0.768 0.06717 0-0.38545 0.71502-1.3791 1.5889-2.208s1.5939-1.7544 1.6-2.0566c0.01764-0.87652-3.4293 0.19521-4.3023 1.3377-1.3245 1.7333-1.746 0.30242-0.61167-2.0763 0.7852-1.6466 1.473-2.232 2.6224-2.232 0.8569 0 2.0253-0.17931 2.5964-0.39846 0.84452-0.32407 0.72116-0.56303-0.66081-1.28-2.0365-1.0565-4.4067-1.2586-2.8329-0.24154 0.78774 0.50908 0.71941 0.62216-0.38081 0.6302-0.73744 0.0054-1.8621 0.5858-2.4992 1.2898-1.7162 1.8964-2.4135 1.5519-1.2831-0.63397 1.3186-2.5498 3.6286-3.9757 6.21-3.8331 3.2544 0.17978 3.3545 0.09183 1.7204-1.5117-2.1834-2.1426-3.971-2.3977-6.4378-0.91866l-2.1295 1.2769 1.8797-1.9897c2.8084-2.9728 5.3995-2.7448 10.015 0.88114 6.3164 4.9624 10.12 5.4973 14.856 2.0891 4.577-3.2941 13.417-10.154 15.17-11.772 0.88-0.81236 2.32-2.0351 3.2-2.7173 0.88-0.68212 1.4029-1.4381 1.162-1.68-0.2409-0.24186-1.585 0.62149-2.9869 1.9186-6.0166 5.5668-9.7825 7.2819-7.7822 3.5442 0.63955-1.195 0.42718-1.5617-0.79292-1.369-0.74138 0.11706-0.56826-0.85465 0.32-1.7962 0.61431-0.65117 0.62175-0.91361 0.03206-1.1306-0.53944-0.19855-0.59177-0.74604-0.17584-1.84 0.36157-0.95101 0.36205-1.5574 0.0012-1.5574-1.1219 0 0.71618-3.7662 3.2342-6.6268 1.3796-1.5673 2.5084-3.0658 2.5084-3.33 0-0.54616-16.674 0.17435-17.235 0.74475-0.20075 0.20421 0.787 1.3677 2.195 2.5855 2.3914 2.0684 2.7792 2.1908 5.8881 1.8585l3.3281-0.3557-0.99584 2.3834c-0.73053 1.7484-0.93517 3.975-0.76811 8.3573 0.22636 5.938 0.21711 5.9804-1.5391 7.0509-2.0071 1.2233-4.1386 0.44314-3.8051-1.3928 0.14837-0.81666-0.3919-1.0446-2.56-1.0801-2.0741-0.03395-2.4342-0.17405-1.4681-0.57131 1.4238-0.58546 1.1523-0.76066-2.88-1.8584l-2.24-0.60983 1.92-0.11099c1.8391-0.10632 1.7852-0.17687-1.28-1.675-2.4555-1.2002-2.7533-1.4823-1.28-1.2129 1.8863 0.34498 1.8779 0.32623-0.48-1.0685-1.32-0.7808-2.4-1.651-2.4-1.9338 0-0.72781 1.1272-0.63919 1.6 0.1258 0.21755 0.352 0.88254 0.62659 1.4778 0.6102 0.59523-0.016389-0.28577-0.74191-1.9578-1.6123s-3.04-1.9002-3.04-2.2886c0-0.51179 0.23216-0.51343 0.84362-6e-3 0.46399 0.38508 1.8224 0.78034 3.0187 0.87836 1.924 0.15764 2.3236-0.09445 3.4611-2.1838 1.2012-2.2063 0.9535-4.4394-0.2724-2.4559-0.75619 1.2235-3.3934 0.03128-4.8508-2.193-1.6231-2.4772-2.3435-1.9451-0.8329 0.61517 0.7283 1.2344 2.0146 2.4176 2.8584 2.6294 1.7539 0.44021 1.9292 1.0418 0.62021 2.1282-1.7416 1.4454-6.204-2.0073-7.6017-5.8818-0.34974-0.96943-1.3031-1.12-7.0918-1.12-7.7022 0-8.7124-0.2535-8.7124-2.1861 0-2.432 1.4087-3.647 4.2742-3.6866 2.3169-0.03197 2.6789-0.24018 2.9936-1.7218 0.26743-1.2589 1.1593-2.0458 3.5237-3.1092 3.0366-1.3657 3.3022-1.3832 6.5168-0.42855 1.8431 0.54735 4.2024 1.7907 5.2428 2.7631 1.8622 1.7403 2.0079 1.7658 9.3502 1.6364 10.473-0.18453 14.742-0.43492 13.022-0.76359-0.81189-0.15515-1.7737-0.93517-2.1374-1.7334-0.58798-1.2905-1.0091-1.4179-3.8005-1.1496-3.4598 0.33244-5.0659-0.48638-5.0659-2.5827 0-1.1064 0.30545-1.2358 2.1936-0.92941 2.8219 0.45794 4.8464-0.08161 4.8464-1.2916 0-0.55658-0.37478-0.81001-0.89987-0.60852-1.0535 0.40426-2.9401-1.4632-2.9401-2.9103 0-0.55062 0.504-1.1965 1.12-1.4353 1.0667-0.41351 1.0667-0.47346 0-1.259-1.6634-1.225-1.3678-1.6032 0.96-1.2283 1.6373 0.26366 3.2909-0.30446 7.7691-2.6691 5.5656-2.9389 5.7809-2.9952 9.92-2.5947 5.2023 0.50342 6.1113 0.50417 9.4078 0.0077 3.2461-0.4889 4.7431 0.75951 4.7431 3.9554 0 2.3889-2.3004 5.3652-4.1468 5.3652-1.8551 0-2.6602-5.6774-0.95459-6.7315 0.88224-0.54525 2.4033 0.37448 2.7384 1.6558 0.41467 1.5857 1.723 1.6116 1.723 0.03409 0-3.0411-4.8361-3.5647-6.2153-0.67289-0.58561 1.2279-0.61121 2.2741-0.10085 4.1224 0.64588 2.3392 0.53175 4.2965-0.466 7.9921-0.36201 1.3408-0.28917 1.4661 0.44968 0.7734 0.48492-0.45463 1.1797-1.8946 1.544-3.2 0.53564-1.9193 1.0024-2.4128 2.4393-2.5792 1.7648-0.20438 1.775-0.18393 1.4959 3.0017-0.1956 2.2326 0.01926 3.6361 0.70692 4.6179 0.95715 1.3665 1.2484 1.3989 9.3461 1.0388 6.9642-0.30973 8.4956-0.55966 9.1822-1.4986 1.6423-2.246-1.2522-7.004-4.6485-7.6412-1.2174-0.22839-2.2135-0.63188-2.2135-0.89663 0-0.91416 7.5153-3.8503 12.23-4.7782 5.6969-1.1211 14.01-1.656 14.01-0.90137 0 0.29884-1.944 0.54675-4.32 0.5509-4.4643 0.0078-11.888 1.5716-16.643 3.506l-2.7228 1.1076 2.6516 2.3531c2.4501 2.1743 2.6493 2.5945 2.6206 5.5294-0.01709 1.747-0.12906 4.0403-0.24886 5.0963-0.21482 1.8935-0.17212 1.9226 3.0906 2.1117 3.0557 0.17702 3.3612 0.3432 4 2.1755 0.87067 2.4976 0.88091 4.7232 0.029 6.3149-0.94757 1.7706 0.75695 1.6458 2.9186-0.21361 1.2886-1.1084 1.7887-2.2809 2.1157-4.96 0.40827-3.3453 0.51746-3.5132 2.3482-3.61 1.2896-0.06819 1.4472-1e-3 0.48 0.20451-1.1004 0.23387-1.44 0.75316-1.44 2.2021 0 4.1339-3.0409 8.3632-6.6593 9.2618-2.043 0.50738-2.056 0.3363-0.30397-4.0239 0.58712-1.4612 0.64459-2.5735 0.19841-3.84l-0.62812-1.783-12.98-0.07578c-11.717-0.0684-12.941 0.02501-12.579 0.96 1.5574 4.0221 1.761 7.1121 0.71436 10.842-0.77854 2.7747-0.89893 4.2397-0.43802 5.33 0.34959 0.82699 0.91999 3.1451 1.2676 5.1514 1.1058 6.3831 3.8189 11.857 7.8535 15.846 4.1555 4.1083 5.2548 6.2965 4.3538 8.6662-0.75507 1.986-2.077 2.0472-3.4564 0.16-1.022-1.3983-1.0408-1.3589-0.64843 1.3592 0.28686 1.9871 0.15918 2.9506-0.44008 3.3209-0.67728 0.41858-0.62778 0.76086 0.25036 1.7312 1.1976 1.3233 1.4715 2.3772 0.45455 1.7487-0.36148-0.2234-0.64 0.30076-0.64 1.2045 0 0.88 0.24844 1.7535 0.55209 1.9412 0.30365 0.18766 0.47911 1.9235 0.38992 3.8574-0.11012 2.3878 0.12348 3.7533 0.72791 4.2549 0.48954 0.40629 0.89008 1.1412 0.89008 1.6331 0 1.1694 2.5641 5.1157 5.0604 7.7884 2.4444 2.6171 2.5377 4.7484 0.47494 10.845-2.0876 6.1703-6.2648 12.058-9.8235 13.846-2.6396 1.3262-2.9231 1.297-2.4318-0.25091 0.61089-1.9247-0.2646-1.5513-2.6255 1.12-1.4188 1.6053-2.13 2.0577-2.1478 1.3663zm-9.6364-58.006c-0.01581-2.8352-0.96744-3.5289-1.0401-0.7582-0.03629 1.385 0.18506 2.5182 0.49193 2.5182 0.30688 0 0.55356-0.792 0.54817-1.76zm-33.91-10.112c1.5621-0.92445 1.5414-0.93709-0.87008-0.53295-1.7666 0.29606-2.6296 0.16209-3.0302-0.47042-0.37328-0.58938-0.56338-0.62813-0.56992-0.11617-0.0087 0.68281 1.7105 2.0781 2.5502 2.0697 0.176-0.0019 1.04-0.42932 1.92-0.95012zm29.44-0.92774c0.85333-0.55147 0.85333-0.6204 0-0.6204-0.528 0-1.392 0.27918-1.92 0.6204-0.85333 0.55147-0.85333 0.6204 0 0.6204 0.528 0 1.392-0.27917 1.92-0.6204zm-2.56-20.762c0-0.15523-0.288-0.46022-0.64-0.67777-0.352-0.21755-0.64-0.09054-0.64 0.28223 0 0.37277 0.288 0.67777 0.64 0.67777s0.64-0.127 0.64-0.28223zm-41.037-18.918c1.7895-3.1839 1.1456-3.2781-1.6377-0.23956-2.4695 2.696-2.5051 2.7996-0.96329 2.7996 0.68937 0 1.7475-1.0414 2.601-2.56zm3.8142 0.92989c0.9031-1.9821 0.91539-2.2099 0.11916-2.2099-0.34296 0-1.0704 0.864-1.6164 1.92-0.80888 1.5642-0.83096 1.92-0.11916 1.92 0.48054 0 1.2079-0.73355 1.6164-1.6301zm27.369-3.9566c-0.65057-0.65057-1.1874 0.32889-0.65358 1.1926 0.40322 0.65243 0.55397 0.65293 0.77075 0.0026 0.14822-0.44466 0.09549-0.98248-0.11717-1.1951zm1.3867-3.4933c-0.39557-1.1867-1.7733-1.3835-1.7733-0.25333 0 0.55733 0.456 1.0133 1.0133 1.0133 0.55733 0 0.89933-0.342 0.76-0.76zm-2.588-1.1187c-0.19702-0.75339 0.06036-1.3861 0.65696-1.6151 0.53948-0.20702 0.82473-0.53255 0.63388-0.7234-0.58953-0.58953-5.6583 1.0388-5.2567 1.6887 0.23956 0.38762 0.80713 0.38228 1.5487-0.01458 0.92751-0.49639 1.2392-0.36388 1.5012 0.63827 0.1819 0.69559 0.53528 1.2647 0.78529 1.2647 0.25001 0 0.3088-0.5574 0.13064-1.2387zm10.693-3.8655c1.1435-0.43476 1.6417-1.0983 1.6417-2.1867 0-0.85938 0.36-1.697 0.8-1.8613 0.52074-0.19451 0.37041-0.47526-0.43063-0.80426-0.75191-0.30882-2.4036-0.08884-4.2459 0.56549-1.6584 0.58901-3.4806 1.0709-4.0494 1.0709-2.4162 0-0.2017 3.0148 2.4859 3.3843 1.056 0.14516 1.9733 0.30708 2.0383 0.35982 0.06508 0.05274 0.85708-0.18498 1.76-0.52827zm-2.7178-1.7262c0.4046-2.3726 3.2986-3.046 2.964-0.68968-0.13334 0.93885-0.7194 1.513-1.684 1.6497-1.1353 0.1609-1.4331-0.06242-1.28-0.96zm-25.081 113.97c0-0.49504 0.576-0.90008 1.28-0.90008s1.28 0.25441 1.28 0.56536c0 0.31094-0.576 0.71598-1.28 0.90008-0.83191 0.21755-1.28 0.0196-1.28-0.56536zm-1.3043-1.4946c0.39015-0.729 1.1312-1.3254 1.6468-1.3254 1.3264 0 1.1739 0.33788-0.70936 1.5718-1.6089 1.0542-1.6305 1.0485-0.93748-0.24639zm-3.1757-1.51c0-1.5109 2.3296-3.1749 3.7941-2.71 1.6227 0.51502 1.7509 1.6146 0.18827 1.6146-0.62568 0-1.7777 0.44833-2.56 0.99629-1.1729 0.8215-1.4224 0.8389-1.4224 0.0992zm1.28-4.2955c1.2522-0.80922 2.56-0.80922 2.56 0 0 0.352-0.792 0.63559-1.76 0.6302-1.3715-8e-3 -1.5481-0.14676-0.8-0.6302zm-11.84-58.88c-0.21755-0.352-0.10754-0.64 0.24446-0.64s0.81799 0.288 1.0355 0.64 0.10754 0.64-0.24446 0.64-0.81799-0.288-1.0355-0.64zm96.8-31.172c0.792-0.15254 2.088-0.15254 2.88 0 0.792 0.15255 0.144 0.27736-1.44 0.27736s-2.232-0.12481-1.44-0.27736zm-1.1794-4.1883c-0.0326-0.792-0.0115-2.6536 0.0469-4.1368l0.10626-2.6968-3.4069 0.2855c-1.8738 0.15702-4.7016 0.40925-6.2839 0.5605-1.7707 0.16925-3.059-0.01098-3.3502-0.4687-0.34871-0.54809-0.47575-0.53328-0.48297 0.0563-5e-3 0.44-0.5858 0.8-1.2898 0.8s-1.28-0.29704-1.28-0.66009c0-0.89082 1.6728-1.4732 4.2314-1.4732 1.1618 0 1.98-0.21407 1.8183-0.4757-0.16171-0.26164 2.155-0.6797 5.1482-0.92903 3.6256-0.30202 5.4422-0.71539 5.4422-1.2384 0-0.43181 0.648-1.3337 1.44-2.0043l1.44-1.2192-1.28 1.5063c-1.0209 1.2014-1.3249 2.6489-1.5019 7.1515l-0.22187 5.6453 1.8219 0.27259c1.7724 0.26519 1.7654 0.27519-0.25813 0.36848-1.7432 0.08036-2.0896-0.13731-2.1394-1.3441zm0.05935-7.8022c0-0.15523-0.288-0.46022-0.64-0.67777-0.352-0.21755-0.64-0.09054-0.64 0.28223 0 0.37277 0.288 0.67777 0.64 0.67777s0.64-0.127 0.64-0.28223zm3.52-6.7578c-0.21755-0.352 0.21445-0.64 0.96-0.64s1.1776 0.288 0.96 0.64-0.64955 0.64-0.96 0.64-0.74245-0.288-0.96-0.64zm-48.96-5.12c-0.528-0.34122-1.848-0.62481-2.9333-0.6302-2.3838-0.01184-3.0578-0.56018-2.1028-1.7109 1.0102-1.2173 4.0208-1.0649 5.1595 0.26111 2.1262 2.4758 2.0657 3.4947-0.12346 2.08z" fill="#c23127"/>
<path d="m56.603 147.25c-11.73-2.0858-24.145-8.4948-32.287-16.666-9.876-9.9124-15.815-21.502-17.887-34.902-0.32646-2.112-0.68256-23.136-0.79132-46.72l-0.19776-42.88 48.64 0.11314c26.752 0.062225 54.112 0.13456 60.8 0.16075l12.16 0.04761v44.959c0 24.728-0.22269 45.303-0.49488 45.722-0.27219 0.41964-0.8009 2.4183-1.1749 4.4416-1.6161 8.7422-7.6424 19.798-15.189 27.865-13.305 14.223-34.43 21.264-53.579 17.859zm18.277-1.0066c8.0418-1.3836 10.519-2.0653 15.171-4.1746 9.0658-4.1106 19.222-12.28 24.561-19.757 4.9929-6.9921 9.765-18.945 10.827-27.118 0.33091-2.5475 0.61055-16.98 0.62142-32.072l0.01976-27.44-2.08 0.35669c-1.144 0.19618-1.72 0.20818-1.28 0.02667 1.3642-0.56276 0.88315-1.4096-0.96-1.6901-0.968-0.14732-0.464-0.23757 1.12-0.20055l2.88 0.0673v-26.24l-13.76-0.3936c-7.568-0.21648-34.424-0.43545-59.68-0.48659l-45.92-0.092994 0.003776 40.807c0.0041 44.444 0.26007 48.6 3.5596 57.787 4.9836 13.877 12.507 23.739 23.73 31.11 13.475 8.8494 26.95 11.961 41.187 9.5116zm4.5066-4.2354c-0.01466-0.56853 0.58219-1.8077 1.3263-2.7537 2.3063-2.932 0.58182-2.7725-2.0574 0.19037l-2.4968 2.803 0.42742-2.163c0.23508-1.1896 1.0069-2.9514 1.7151-3.9151 0.70824-0.96367 1.0706-1.9693 0.80517-2.2347-0.2654-0.26539-0.76324 0.0191-1.1063 0.63213-0.34309 0.61307-0.98589 1.1147-1.4285 1.1147s-1.1425 0.792-1.5553 1.76c-0.68744 1.6117-0.72209 1.5174-0.4112-1.12 0.41223-3.497 1.5334-5.3182 4.4366-7.2066 3.1037-2.0189 3.8845-4.1912 2.8121-7.8235-0.46931-1.5894-1.1888-2.8899-1.5989-2.8899s-0.9042-0.60634-1.098-1.3474c-0.19473-0.74466-0.72915-1.2208-1.1946-1.0644-0.48052 0.16146-1.1851-0.52649-1.6405-1.6017-0.53489-1.263-1.1155-1.763-1.76-1.5157-0.6763 0.25952-0.96472-0.0524-0.97161-1.0508-0.0054-0.78095-0.28898-1.8519-0.6302-2.3799-0.51678-0.79966-0.63253-0.74621-0.69303 0.32-0.03994 0.704-0.44808-0.016-0.90697-1.6s-0.87534-2.304-0.92545-1.6c-0.06836 0.9603-0.41726 0.66168-1.3969-1.1956-1.0499-1.9906-1.2313-3.1818-0.92563-6.08 0.20908-1.9824 0.52748-5.2977 0.70755-7.3674 0.18008-2.0696 0.47004-3.9937 0.64436-4.2758 0.17432-0.28206 0.0528-0.67608-0.27001-0.87559-0.61696-0.38131-1.6605 3.5208-2.3839 8.9143-0.25624 1.9104-1.0293 3.9188-1.9182 4.9837-3.8168 4.572-7.0247 14.27-6.506 19.669 0.38259 3.9817-0.07057 4.7657-2.1952 3.7977-1.3036-0.59396-2.0296-0.524-3.782 0.36443-1.1928 0.60472-2.643 1.5145-3.2227 2.0217s-2.6146 1.0833-4.5222 1.2802c-3.5982 0.37137-6.4081-0.53708-8.1489-2.6346-0.45746-0.55121-1.1347-1.0022-1.5049-1.0022-1.4052 0 2.4211 3.213 4.9986 4.1973 3.7877 1.4465 8.11 0.61702 12.582-2.4148 1.4211-0.96335 1.9903-1.0326 3.36-0.40848 1.9805 0.90236 2.0147 1.1885 0.38954 3.2545-0.79771 1.0141-2.1823 1.7488-3.7763 2.0037-1.5096 0.2414-3.5909 1.2999-5.201 2.6451-1.4763 1.2334-3.2473 2.2426-3.9355 2.2426-1.7976 0-4.8789-1.7262-5.6487-3.1646-0.98427-1.8391-0.81999-2.1346 0.94103-1.6926 0.88 0.22087 1.6 0.14409 1.6-0.17062 0-0.3147-0.84071-0.74033-1.8683-0.94584-1.1641-0.23281-2.3016-1.1073-3.018-2.32-1.3939-2.3596-3.6421-2.575-5.7925-0.55479-2.3632 2.2201-1.9158-0.26292 0.491-2.725 1.8502-1.8927 2.1708-1.9912 5.1796-1.5921 3.7356 0.49556 7.2824-0.46462 8.2255-2.2268 0.35613-0.66544 0.5978-2.6145 0.53704-4.3312-0.06076-1.7167 0.09464-3.4532 0.34535-3.8589 0.74555-1.2063-0.23263-2.1968-1.2971-1.3133-0.78849 0.65439-0.82692 0.51258-0.26302-0.97059 0.94208-2.4778 0.84234-3.2414-0.29961-2.2936-1.4146 1.174-1.167-0.20418 0.39296-2.1874 1.4636-1.8606 1.2093-2.9824-0.3775-1.6654-1.3183 1.0941-1.3149-0.44456 0.0049-2.1895 1.2288-1.6246 1.1922-2.3344-0.09481-1.8405-0.86674 0.3326-0.92151 0.18591-0.33778-0.90479 0.38317-0.71596 1.1367-1.4706 1.6745-1.677 0.53777-0.20636 0.97777-0.70306 0.97777-1.1038 0-0.40705-0.4551-0.55393-1.0313-0.33283-2.4202 0.92872 1.7129-5.3513 7.6025-11.551 5.967-6.2817 6.9031-6.6393 10.541-4.0268 1.5432 1.1082 2.9544 1.8663 3.1361 1.6846 0.18168-0.18167-0.9732-1.2921-2.5664-2.4677-3.6685-2.7069-3.9742-3.4919-1.8186-4.6701l1.7367-0.94922-2.0438 0.19259c-1.1241 0.10592-2.4795 0.55415-3.012 0.99606s-1.249 0.62986-1.5924 0.41767-1.0529 0.22623-1.5769 0.97428c-0.52395 0.74804-1.2542 1.1737-1.6229 0.94588-0.36862-0.22782-1.0369 0.17296-1.4851 0.89062-0.99818 1.5983-1.8781 1.7155-1.3887 0.18483 0.19696-0.616-0.54931-0.112-1.6584 1.12-1.8402 2.0442-1.9785 2.1002-1.5822 0.64l0.4343-1.6-1.996 1.8797c-1.1901 1.1208-1.996 1.5279-1.996 1.0084 0-0.57141-0.5395-0.36447-1.5674 0.60123-0.88278 0.82933-1.992 1.3096-2.5395 1.0995-0.53464-0.20516-1.1423-0.0976-1.3503 0.23903-0.69744 1.1285-5.0721 0.61539-8.3027-0.97378-3.4284-1.6865-7.8984-2.0998-9.152-0.84616-0.51554 0.51554-0.768 0.53762-0.768 0.06717 0-0.38545 0.71502-1.3791 1.5889-2.208s1.5939-1.7544 1.6-2.0566c0.01764-0.87652-3.4293 0.19521-4.3023 1.3377-1.3245 1.7333-1.746 0.30242-0.61167-2.0763 0.7852-1.6466 1.473-2.232 2.6224-2.232 0.8569 0 2.0253-0.17931 2.5964-0.39846 0.84452-0.32407 0.72116-0.56303-0.66081-1.28-2.0365-1.0565-4.4067-1.2586-2.8329-0.24154 0.78774 0.50908 0.71941 0.62216-0.38081 0.6302-0.73744 0.0054-1.8621 0.5858-2.4992 1.2898-1.7162 1.8964-2.4135 1.5519-1.2831-0.63397 1.3186-2.5498 3.6286-3.9757 6.21-3.8331 3.2544 0.17978 3.3545 0.09183 1.7204-1.5117-2.1834-2.1426-3.971-2.3977-6.4378-0.91866l-2.1295 1.2769 1.8797-1.9897c2.8084-2.9728 5.3995-2.7448 10.015 0.88114 6.3164 4.9624 10.12 5.4973 14.856 2.0891 4.577-3.2941 13.417-10.154 15.17-11.772 0.88-0.81236 2.32-2.0351 3.2-2.7173 0.88-0.68212 1.4029-1.4381 1.162-1.68-0.2409-0.24186-1.585 0.62149-2.9869 1.9186-6.0166 5.5668-9.7825 7.2819-7.7822 3.5442 0.63955-1.195 0.42718-1.5617-0.79292-1.369-0.74138 0.11706-0.56826-0.85465 0.32-1.7962 0.61431-0.65117 0.62175-0.91361 0.03206-1.1306-0.53944-0.19855-0.59177-0.74604-0.17584-1.84 0.36157-0.95101 0.36205-1.5574 0.0012-1.5574-1.1219 0 0.71618-3.7662 3.2342-6.6268 1.3796-1.5673 2.5084-3.0658 2.5084-3.33 0-0.54616-16.674 0.17435-17.235 0.74475-0.20075 0.20421 0.787 1.3677 2.195 2.5855 2.3914 2.0684 2.7792 2.1908 5.8881 1.8585l3.3281-0.3557-0.99584 2.3834c-0.73053 1.7484-0.93517 3.975-0.76811 8.3573 0.22636 5.938 0.21711 5.9804-1.5391 7.0509-2.0071 1.2233-4.1386 0.44314-3.8051-1.3928 0.14837-0.81666-0.3919-1.0446-2.56-1.0801-2.0741-0.03395-2.4342-0.17405-1.4681-0.57131 1.4238-0.58546 1.1523-0.76066-2.88-1.8584l-2.24-0.60983 1.92-0.11099c1.8391-0.10632 1.7852-0.17687-1.28-1.675-2.4555-1.2002-2.7533-1.4823-1.28-1.2129 1.8863 0.34498 1.8779 0.32623-0.48-1.0685-1.32-0.7808-2.4-1.651-2.4-1.9338 0-0.72781 1.1272-0.63919 1.6 0.1258 0.21755 0.352 0.88254 0.62659 1.4778 0.6102 0.59523-0.016389-0.28577-0.74191-1.9578-1.6123s-3.04-1.9002-3.04-2.2886c0-0.51179 0.23216-0.51343 0.84362-6e-3 0.46399 0.38508 1.8224 0.78034 3.0187 0.87836 1.924 0.15764 2.3236-0.09445 3.4611-2.1838 1.2012-2.2063 0.9535-4.4394-0.2724-2.4559-0.75619 1.2235-3.3934 0.03128-4.8508-2.193-1.6231-2.4772-2.3435-1.9451-0.8329 0.61517 0.7283 1.2344 2.0146 2.4176 2.8584 2.6294 1.7539 0.44021 1.9292 1.0418 0.62021 2.1282-1.7416 1.4454-6.204-2.0073-7.6017-5.8818-0.34974-0.96943-1.3031-1.12-7.0918-1.12-7.5797 0-8.7124-0.26399-8.7124-2.0305 0-2.5754 1.1952-3.7295 3.8625-3.7295 1.3956 0 2.5375 0.24806 2.5375 0.55125 0 0.30319-0.72166 0.4133-1.6037 0.24469-1.888-0.36087-3.5163 0.78868-3.5163 2.4825 0 0.99558 0.52129 1.2154 3.04 1.282 22.492 0.59464 44.574-0.21215 46.24-1.6894 0.528-0.46817 1.752-1.0489 2.72-1.2905 2.5769-0.64312 2.1495-1.4121-0.96-1.7272-1.496-0.15157-3.296-0.49574-4-0.76482-1.0194-0.38962-1.0845-0.34863-0.32 0.20134 0.93405 0.6719-3.9687 0.87226-24.32 0.99385-5.8052 0.03468-6.0892 0.10141-6.2845 1.4763-0.11248 0.792-0.48152 1.44-0.82009 1.44-1.21 0-1.3793-2.0734-0.3462-4.2399 1.2255-2.5699 1.2606-2.8001 0.42723-2.8001-0.34296 0-1.1003 0.92192-1.683 2.0487-1.0801 2.0887-2.4301 3.7113-3.0877 3.7113-0.82093 0-0.28121-2.6301 0.9775-4.7634 0.73877-1.2521 1.1192-2.2766 0.84544-2.2766-0.90666 0-4.874 4.7582-4.1645 4.9947 0.3827 0.12757 0.69583 0.49594 0.69583 0.81861 0 0.69825-2.5387 0.8021-2.6076 0.10667-0.02616-0.264-0.15782-1.059-0.29258-1.7666-0.33347-1.7511 0.18054-2.3206 3.6004-3.9891 2.8507-1.3908 3.0457-1.4032 6.3997-0.40718 2.0067 0.59593 4.2039 1.8064 5.2323 2.8825l1.7729 1.8552 11.187-0.04726c6.5027-0.027461 11.187-0.29856 11.187-0.64739 0-0.33008-0.72617-0.60014-1.6137-0.60014-1.0892 0-1.8447-0.50705-2.3244-1.5598-0.6501-1.4268-0.97546-1.5285-3.8149-1.1922-3.2129 0.38052-5.0469-0.39219-5.0469-2.1263 0-0.56621 0.74418-0.88476 2.08-0.89037 3.1006-0.01303 4.96-0.66321 4.96-1.7344 0-0.55658-0.37478-0.81001-0.89987-0.60852-1.0535 0.40426-2.9401-1.4632-2.9401-2.9103 0-0.55062 0.504-1.1965 1.12-1.4353 1.0667-0.41351 1.0667-0.47346 0-1.259-1.6634-1.225-1.3678-1.6032 0.96-1.2283 1.6373 0.26366 3.2909-0.30446 7.7691-2.6691 5.5656-2.9389 5.7809-2.9952 9.92-2.5947 5.2023 0.50342 6.1113 0.50417 9.4078 0.0077 3.2461-0.4889 4.7431 0.75951 4.7431 3.9554 0 2.3889-2.3004 5.3652-4.1468 5.3652-1.8551 0-2.6602-5.6774-0.95459-6.7315 0.88224-0.54525 2.4033 0.37448 2.7384 1.6558 0.41467 1.5857 1.723 1.6116 1.723 0.03409 0-3.0411-4.8361-3.5647-6.2153-0.67289-0.58561 1.2279-0.61121 2.2741-0.10085 4.1224 0.64588 2.3392 0.53175 4.2965-0.466 7.9921-0.36201 1.3408-0.28917 1.4661 0.44968 0.7734 0.48492-0.45463 1.1797-1.8946 1.544-3.2 0.5339-1.9131 1.0043-2.4131 2.4251-2.5778 1.7369-0.20141 1.759-0.15924 1.5124 2.88-0.15334 1.8898 0.10783 3.7942 0.6743 4.917l0.92458 1.8326 8.55-0.24985c4.7025-0.13742 8.7382-0.438 8.9681-0.66797 0.22997-0.22997 0.44583-1.3956 0.47969-2.5903 0.08639-3.0478-2.2143-6.0793-5.0122-6.6042-1.2174-0.22839-2.2135-0.63188-2.2135-0.89663 0-0.91416 7.5153-3.8503 12.23-4.7782 5.6969-1.1211 14.01-1.656 14.01-0.90137 0 0.29884-1.944 0.54675-4.32 0.5509-4.4643 0.0078-11.888 1.5716-16.643 3.506l-2.7228 1.1076 2.6735 2.3726c2.4569 2.1803 2.6775 2.6369 2.7228 5.6352 0.02707 1.7945-0.09478 3.4026-0.27078 3.5737-0.176 0.17107-4.4578 0.5573-9.5151 0.85829-9.1858 0.54669-9.1957 0.54578-9.7442-0.89686-0.30198-0.79426-0.65312-1.4441-0.78032-1.4441-0.62622 0 0.20643 7.1654 1.2146 10.452 1.0852 3.5381 1.0884 3.9441 0.06074 7.8007-0.775 2.9085-0.90601 4.4901-0.45953 5.5477 0.34349 0.8136 0.90891 3.1208 1.2565 5.127 1.1058 6.3831 3.8189 11.857 7.8535 15.846 4.1555 4.1083 5.2548 6.2965 4.3538 8.6662-0.75507 1.986-2.077 2.0472-3.4564 0.16-1.022-1.3983-1.0408-1.3589-0.64843 1.3592 0.28686 1.9871 0.15918 2.9506-0.44008 3.3209-0.67728 0.41858-0.62778 0.76086 0.25036 1.7312 1.1976 1.3233 1.4715 2.3772 0.45455 1.7487-0.36148-0.2234-0.64 0.30076-0.64 1.2045 0 0.88 0.24844 1.7535 0.55209 1.9412 0.30365 0.18766 0.47911 1.9235 0.38992 3.8574-0.11012 2.3878 0.12348 3.7533 0.72791 4.2549 0.48954 0.40629 0.89008 1.1412 0.89008 1.6331 0 1.1694 2.5641 5.1157 5.0604 7.7884 2.4444 2.6171 2.5377 4.7484 0.47494 10.845-2.0876 6.1703-6.2648 12.058-9.8235 13.846-2.6396 1.3262-2.9231 1.297-2.4318-0.25091 0.61089-1.9247-0.2646-1.5513-2.6255 1.12-1.4188 1.6053-2.13 2.0577-2.1478 1.3663zm-12.417-57.391c-1.4824-1.4824-2.1161-0.38742-0.68863 1.1899 0.76336 0.84351 1.2984 1.0569 1.457 0.58106 0.13786-0.41358-0.20792-1.2105-0.7684-1.771zm2.7807-0.61524c-0.01581-2.8352-0.96744-3.5289-1.0401-0.7582-0.03629 1.385 0.18506 2.5182 0.49193 2.5182 0.30688 0 0.55356-0.792 0.54817-1.76zm-33.91-10.112c1.5621-0.92445 1.5414-0.93709-0.87008-0.53295-1.7666 0.29606-2.6296 0.16209-3.0302-0.47042-0.37328-0.58938-0.56338-0.62813-0.56992-0.11617-0.0087 0.68281 1.7105 2.0781 2.5502 2.0697 0.176-0.0019 1.04-0.42932 1.92-0.95012zm29.44-0.92774c0.85333-0.55147 0.85333-0.6204 0-0.6204-0.528 0-1.392 0.27918-1.92 0.6204-0.85333 0.55147-0.85333 0.6204 0 0.6204 0.528 0 1.392-0.27917 1.92-0.6204zm-2.56-20.762c0-0.15523-0.288-0.46022-0.64-0.67777-0.352-0.21755-0.64-0.09054-0.64 0.28223 0 0.37277 0.288 0.67777 0.64 0.67777s0.64-0.127 0.64-0.28223zm-9.8533-21.944c-0.65057-0.65057-1.1874 0.32889-0.65358 1.1926 0.40322 0.65243 0.55397 0.65293 0.77075 0.0026 0.14822-0.44466 0.09549-0.98248-0.11717-1.1951zm-1.9867-0.81333c0.24558-0.39735-0.95335-0.64-3.1622-0.64-1.9568 0-3.5578 0.288-3.5578 0.64s1.423 0.64 3.1622 0.64 3.3402-0.288 3.5578-0.64zm4.16-1.792c0-0.66238-1.3856-2.048-2.048-2.048-0.2816 0-0.512 0.576-0.512 1.28 0 0.85333 0.42667 1.28 1.28 1.28 0.704 0 1.28-0.2304 1.28-0.512zm-3.3746-2.0067c-0.19702-0.75339 0.06036-1.3861 0.65696-1.6151 0.53948-0.20702 0.82473-0.53255 0.63388-0.7234-0.58953-0.58953-5.6583 1.0388-5.2567 1.6887 0.23956 0.38762 0.80713 0.38228 1.5487-0.01458 0.92751-0.49639 1.2392-0.36388 1.5012 0.63827 0.1819 0.69559 0.53528 1.2647 0.78529 1.2647 0.25001 0 0.3088-0.5574 0.13064-1.2387zm10.693-3.8655c1.1435-0.43476 1.6417-1.0983 1.6417-2.1867 0-0.85938 0.36-1.697 0.8-1.8613 0.52074-0.19451 0.37041-0.47526-0.43063-0.80426-0.75191-0.30882-2.4036-0.08884-4.2459 0.56549-1.6584 0.58901-3.4806 1.0709-4.0494 1.0709-2.4162 0-0.2017 3.0148 2.4859 3.3843 1.056 0.14516 1.9733 0.30708 2.0383 0.35982 0.06508 0.05274 0.85708-0.18498 1.76-0.52827zm-2.7178-1.7262c0.4046-2.3726 3.2986-3.046 2.964-0.68968-0.13334 0.93885-0.7194 1.513-1.684 1.6497-1.1353 0.1609-1.4331-0.06242-1.28-0.96zm-25.081 113.97c0-0.49504 0.576-0.90008 1.28-0.90008s1.28 0.25441 1.28 0.56536c0 0.31094-0.576 0.71598-1.28 0.90008-0.83191 0.21755-1.28 0.0196-1.28-0.56536zm-1.3043-1.4946c0.39015-0.729 1.1312-1.3254 1.6468-1.3254 1.3264 0 1.1739 0.33788-0.70936 1.5718-1.6089 1.0542-1.6305 1.0485-0.93748-0.24639zm-3.1757-1.51c0-1.5109 2.3296-3.1749 3.7941-2.71 1.6227 0.51502 1.7509 1.6146 0.18827 1.6146-0.62568 0-1.7777 0.44833-2.56 0.99629-1.1729 0.8215-1.4224 0.8389-1.4224 0.0992zm1.28-4.2955c1.2522-0.80922 2.56-0.80922 2.56 0 0 0.352-0.792 0.63559-1.76 0.6302-1.3715-8e-3 -1.5481-0.14676-0.8-0.6302zm-11.84-58.88c-0.21755-0.352-0.10754-0.64 0.24446-0.64s0.81799 0.288 1.0355 0.64 0.10754 0.64-0.24446 0.64-0.81799-0.288-1.0355-0.64zm84.326-19.586c0.20042-0.66787 0.73635-2.14 1.1909-3.2713 0.58729-1.4616 0.64463-2.5731 0.19808-3.84l-0.62845-1.783h-12.624c-6.943 0-12.623-0.17078-12.623-0.3795 2.75e-4 -0.20873 5.6672-0.57573 12.593-0.81557 9.8847-0.3423 12.704-0.26069 13.111 0.3795 0.99995 1.5745 1.3584 5.238 0.68656 7.0178-0.86438 2.29 0.31389 2.4385 2.7464 0.3462 1.2886-1.1084 1.7887-2.2809 2.1157-4.96 0.40827-3.3453 0.51746-3.5132 2.3482-3.61 1.2896-0.06819 1.4472-1e-3 0.48 0.20451-1.1004 0.23387-1.44 0.75316-1.44 2.2021 0 4.1339-3.0409 8.3632-6.6593 9.2618-1.6258 0.40376-1.8135 0.30925-1.4949-0.75256zm12.474-11.586c0.792-0.15254 2.088-0.15254 2.88 0 0.792 0.15255 0.144 0.27736-1.44 0.27736s-2.232-0.12481-1.44-0.27736zm-1.1794-4.1883c-0.0326-0.792-0.0115-2.6536 0.0469-4.1368l0.10626-2.6968-3.4069 0.2855c-1.8738 0.15702-4.7016 0.40925-6.2839 0.5605-1.7707 0.16925-3.059-0.01098-3.3502-0.4687-0.34871-0.54809-0.47575-0.53328-0.48297 0.0563-5e-3 0.44-0.5858 0.8-1.2898 0.8s-1.28-0.29704-1.28-0.66009c0-0.89082 1.6728-1.4732 4.2314-1.4732 1.1618 0 1.98-0.21407 1.8183-0.4757-0.16171-0.26164 2.155-0.6797 5.1482-0.92903 3.6256-0.30202 5.4422-0.71539 5.4422-1.2384 0-0.43181 0.648-1.3337 1.44-2.0043l1.44-1.2192-1.28 1.5063c-1.0209 1.2014-1.3249 2.6489-1.5019 7.1515l-0.22187 5.6453 1.8219 0.27259c1.7724 0.26519 1.7654 0.27519-0.25813 0.36848-1.7432 0.08036-2.0896-0.13731-2.1394-1.3441zm0.05935-7.8022c0-0.15523-0.288-0.46022-0.64-0.67777-0.352-0.21755-0.64-0.09054-0.64 0.28223 0 0.37277 0.288 0.67777 0.64 0.67777s0.64-0.127 0.64-0.28223zm3.52-6.7578c-0.21755-0.352 0.21445-0.64 0.96-0.64s1.1776 0.288 0.96 0.64-0.64955 0.64-0.96 0.64-0.74245-0.288-0.96-0.64zm-48.96-5.12c-0.528-0.34122-1.848-0.62481-2.9333-0.6302-2.3838-0.01184-3.0578-0.56018-2.1028-1.7109 1.0102-1.2173 4.0208-1.0649 5.1595 0.26111 2.1262 2.4758 2.0657 3.4947-0.12346 2.08z" fill="#24170e"/>
</g>
<path d="m60.431 145.06c-3.8109-0.45822-4.9671-0.62876-6.9568-1.0262-11.366-2.2702-22.257-8.1733-30.678-16.629-7.4021-7.4323-12.43-15.789-15.026-24.975-1.5475-5.4749-2.2195-10.041-2.5377-17.244-0.28631-6.4817-0.70439-68.179-0.49984-73.764l0.15873-4.3337 1.3685-0.18408c2.4078-0.32386 80.995-0.44882 96.873-0.15404 7.939 0.14739 15.692 0.32023 17.229 0.38409l2.7941 0.11612v25.042l-0.5132-0.0042c-0.93506-0.0076-5.2764-0.67041-6.9554-1.0619l-1.6523-0.38525 0.12688-2.6387c0.34048-7.0811 0.69673-8.1914 3.1722-9.8869 1.6834-1.1531 2.1326-1.6642 1.7759-2.0209-0.51517-0.51518-3.5419-0.70534-9.2974-0.58414-4.8584 0.10231-6.3426 0.21312-8.2112 0.61304-2.585 0.55325-8.9178 2.6113-11.151 3.624-1.3932 0.63168-3.3326 1.9733-3.3326 2.3054 0 0.08152 0.77193 0.33019 1.7154 0.55262 2.2921 0.54035 4.2567 1.5556 5.2453 2.7107 1.6959 1.9813 1.8458 4.8925 0.2767 5.3726-0.40528 0.124-2.9436 0.28873-5.6408 0.36608s-5.9618 0.24949-7.2546 0.38253c-1.2929 0.13304-2.5997 0.1794-2.904 0.10302-1.0292-0.25831-1.3266-1.2866-1.4633-5.0585-0.08798-2.4287-0.21701-3.5547-0.43779-3.8205-0.38996-0.46945-1.4947-0.48332-2.7662-0.03472-0.53334 0.18817-1.1747 0.34214-1.4251 0.34214-0.37897 0-0.40776-0.05744-0.17148-0.34214 0.15617-0.18818 0.55364-0.3431 0.88326-0.34428 0.82969-3e-3 2.7636-1.1576 3.6722-2.1923 1.7864-2.0346 2.1858-4.7236 0.98919-6.6602-0.94364-1.5272-2.1846-2.1597-4.2128-2.147-1.2247 0.0077-1.853 0.14317-2.7905 0.60185-1.5012 0.73447-1.9176 0.73555-4.4113 0.01142-2.5758-0.74798-5.0023-0.77922-7.2453-0.0933-0.87815 0.26854-3.4955 1.3972-5.8163 2.5082-4.7038 2.2517-5.7765 2.5746-7.8488 2.3622-2.3402-0.23976-3.0339 0.50731-1.8156 1.9553l0.59971 0.71271-0.53071 0.56491c-0.888 0.94524-0.51381 2.6607 1.0412 4.7733 1.0202 1.386 1.0768 1.3374-1.3506 1.1592-2.8026-0.20572-3.3245 0.03864-3.3245 1.5566 0 0.86464 0.11486 1.0984 0.87897 1.7887 1.1773 1.0636 2.6957 1.4173 5.2547 1.2242 2.2852-0.17251 2.9899 0.11314 2.9899 1.2119 0 0.56609-0.10135 0.65814-0.85534 0.7768-1.8717 0.29457-10.189 0.64113-13.672 0.56968l-3.6933-0.07577-0.82895-0.96907c-1.0614-1.2409-4.7028-3.0757-7.4196-3.7386-1.706-0.41629-2.1127-0.44196-3.2526-0.20532-0.73446 0.15247-1.5964 0.51749-1.9758 0.83674-0.37015 0.31146-1.2159 0.74019-1.8795 0.95274-1.1933 0.38224-1.2115 0.40189-1.6633 1.8013-0.25128 0.77816-0.56815 1.5261-0.70416 1.6621-0.13601 0.13601-1.1621 0.30829-2.2802 0.38285-1.1181 0.07456-2.3605 0.26826-2.7608 0.43044-0.96464 0.39081-1.6945 1.8416-1.8403 3.6581-0.096589 1.2033-0.045605 1.4704 0.35763 1.8736 0.88913 0.88913 1.9402 1.0259 8.6514 1.1256l6.4408 0.09566 0.82925 1.5781c1.4391 2.7386 3.5125 4.6304 5.7115 5.2111 1.0673 0.28187 1.8345 0.08592 2.5791-0.65872 0.6817-0.6817 0.57721-1.2851-0.32919-1.9011l-0.79447-0.53986 1.4217 0.01843c1.2406 0.01608 1.43 0.07656 1.4869 0.47461 0.10544 0.73789-1.1573 2.494-2.1228 2.9521-1.0614 0.50368-2.7473 0.36517-3.9108-0.32132-1.9974-1.1785-2.5827-0.10448-0.83171 1.5261 0.99186 0.92366 1.033 1.0049 0.57023 1.126-0.27434 0.07175-0.49881 0.18075-0.49881 0.24223s0.5132 0.5936 1.1405 1.1825c0.9044 0.8491 1.1405 1.2207 1.1405 1.7951 0 0.88657 0.46181 1.2244 2.5591 1.8722 2.0383 0.62957 2.2348 0.99024 0.42808 0.78583-1.191-0.13474-1.3905-0.10466-1.3905 0.20964 0 0.43334 1.3346 1.1586 2.8205 1.5328 1.0289 0.25908 1.334 0.53786 0.78793 0.71989-0.48227 0.16076-0.0018 0.82948 0.94156 1.3108 0.50751 0.25891 1.4106 0.52568 2.0069 0.59281 2.5365 0.28558 2.5667 0.29712 2.5667 0.98044 0 0.94607 1.751 2.3103 2.9652 2.3103 1.1092 0 3.0662-1.3899 4.2218-2.9984 0.82253-1.1449 1.2524-1.2621 1.2524-0.34164 0 0.37445-0.61106 0.99393-2.2928 2.3245-3.4011 2.6908-7.2148 5.3213-8.8128 6.0788-3.5388 1.6775-6.9473 0.79644-11.596-2.9974-3.9868-3.2537-6.3949-4.0751-8.6899-2.9641-1.0588 0.51257-3.5923 3.0671-3.7894 3.8209-0.22885 0.87514 0.89965 0.83459 1.6412-0.05897 0.41988-0.50593 1.5715-0.43175 2.6334 0.16962 1.1652 0.6599 1.1806 1.1351 0.04288 1.3201-1.5972 0.25961-4.7187 3.9579-4.7187 5.5906 0 1.3723 0.57962 1.2391 2.4616-0.56567 0.85494-0.81986 1.644-1.2079 1.644-0.80837 0 0.07175-0.24899 0.55929-0.55331 1.0834-0.63758 1.0981-1.2714 3.3805-1.2714 4.5783 0 1.1134 0.43627 1.0707 1.7775-0.17398 1.2776-1.1857 2.3005-1.744 3.1722-1.7316l0.63858 0.0091-0.59164 0.32163c-1.3401 0.72848-2.9702 4.0755-2.1303 4.3737 0.13379 0.04751 0.69832-0.22194 1.2545-0.59879 0.88542-0.59993 1.2118-0.68569 2.6235-0.68933 1.9331-5e-3 3.6027 0.44949 5.4879 1.4938 1.9886 1.1016 3.6298 1.4673 6.5853 1.4673 2.7418 0 4.7766-0.40009 5.8225-1.1448 0.34896-0.24849 0.98814-0.45179 1.4204-0.45179 0.51845 0 1.1212-0.24287 1.7711-0.71366 0.88574-0.64163 1.0126-0.67616 1.2568-0.34214 0.39684 0.54271 0.72511 0.46398 1.7604-0.42219 0.63855-0.54657 1.076-0.75638 1.4049-0.67382 0.32916 0.08261 0.9031-0.19326 1.8461-0.88735 0.75262-0.55398 1.7395-1.1266 2.1931-1.2725 0.4536-0.14591 1.1902-0.67245 1.637-1.1701 0.64737-0.72113 0.97129-0.90477 1.5959-0.90477 0.52947 0 1.0664-0.22473 1.6555-0.69287 1.1752-0.93393 1.6063-0.82204 1.5158 0.39344-0.0385 0.5174 0.03848 1.0078 0.17107 1.0897 0.56926 0.35182 0.18906 0.7797-0.90046 1.0134-1.5798 0.3388-2.7314 1.1193-5.2131 3.5329-7.0692 6.8754-11.81 14.068-10.17 15.43 0.3111 0.25819 0.27397 0.32809-0.30314 0.57075-1.1025 0.46355-1.9168 2.8921-1.0778 3.214 0.45696 0.17535 0.43114 0.64602-0.11416 2.0807-0.25084 0.65996-0.45607 1.3931-0.45607 1.6292 0 0.59739 0.6458 0.7839 1.2786 0.36927 0.29153-0.19102 0.58343-0.34731 0.64867-0.34731 0.06523 0-0.18772 0.60279-0.5621 1.3395-0.90019 1.7715-1.0888 2.7114-0.58306 2.9055 0.23748 0.0911 0.59248-0.0517 0.94017-0.37838 0.68213-0.64083 0.70138-0.47885 0.08638 0.72666-0.25973 0.50912-0.49068 1.3518-0.5132 1.8726-0.04168 0.96364 0.04545 1.0347 0.98544 0.80316 0.2935-0.0723 0.34 0.41826 0.32711 3.4511-0.01711 4.0231-0.22292 4.7954-1.5471 5.8055-1.3424 1.0239-2.647 1.2946-6.5663 1.3625-3.1927 0.0553-3.6501 0.11343-4.3631 0.55404-2.0849 1.2886-4.1431 4.5249-3.5507 5.5834 0.3477 0.62131 0.77401 0.44872 2.2368-0.90555 0.76369-0.70704 1.4392-1.2349 1.5011-1.173 0.06191 0.0619-0.04387 0.24241-0.23507 0.40109-0.44988 0.37337-0.44965 1.145 4.56e-4 1.145 0.37946 0 0.35656 0.0535-0.92686 2.1669-0.30474 0.5018-0.55576 1.092-0.55783 1.3115-0.0059 0.62533 1.2612 0.50174 2.9249-0.2853 0.79532-0.37625 1.4938-0.68409 1.5522-0.68409 0.05837 0-0.31009 0.58124-0.81879 1.2916-1.0636 1.4853-1.1209 1.7845-0.41171 2.1502 0.28226 0.14554 0.73983 0.47091 1.0168 0.72305 0.52773 0.48038 1.3456 0.47556 3.3004-0.0194 0.61591-0.15596 0.97958-0.13021 1.3685 0.0969 1.7664 1.0314 3.0998 1.5265 4.3901 1.6301 1.6704 0.13408 2.1702-0.0763 4.1896-1.7637 0.76406-0.63843 1.9715-1.5114 2.6831-1.94 1.123-0.67623 1.8842-0.9189 4.3559-1.3887 0.79856-0.15179 2.7457-1.8331 3.3837-2.9218 0.41736-0.71217 0.54868-1.1822 0.44534-1.5939-0.10153-0.40452 0.01334-0.84259 0.37393-1.426 0.47632-0.7707 0.53492-1.2212 0.69074-5.3102 0.29651-7.7807 1.3635-11.229 5.4324-17.557 0.90224-1.4031 1.9307-3.165 2.2855-3.9153 0.80997-1.7127 0.92466-1.4588 0.92466 2.0466 0 2.9685 0.3019 4.3453 1.2542 5.7195 0.61434 0.88648 1.3866 1.2995 1.5547 0.83152 0.17159-0.47751 0.39579 5e-3 0.60786 1.3079 0.25057 1.5396 0.33872 1.7034 1.0652 1.9796 0.37175 0.14133 0.74871 0.63932 1.1207 1.4806 0.42714 0.96585 0.73646 1.3406 1.2994 1.5741 0.45552 0.18896 1.0887 0.81244 1.6512 1.6259 0.5018 0.72566 1.2203 1.4882 1.5966 1.6945 0.37635 0.20629 0.90792 0.77187 1.1813 1.2568 0.27729 0.49194 0.83053 1.0392 1.2515 1.238 0.67369 0.3181 0.77362 0.48944 0.93354 1.6006 0.0985 0.68442 0.33081 1.476 0.51624 1.759 0.88819 1.3556 0.08658 2.8338-3.6203 6.6761-2.6949 2.7933-3.5662 4.1204-4.1322 6.2934-0.44252 1.6989-0.46623 3.8901-0.04385 4.0521 0.47176 0.18103 0.84011-0.14898 1.4911-1.3359 0.55939-1.0199 1.7116-2.1428 1.9521-1.9023 0.05887 0.0589-0.1539 0.63427-0.47281 1.2787-0.75677 1.5292-1.0307 4.5817-0.4541 5.0602 0.4883 0.40525 0.93518 0.0469 1.5364-1.2322 0.36696-0.78068 2.7439-3.4418 2.4432-2.7353-0.05339 0.12545-0.28896 0.63865-0.52347 1.1404-0.42788 0.91554-0.77637 3.7635-0.46053 3.7635 0.09272 0 0.81198-0.60187 1.5984-1.3375 1.4205-1.3288 1.4385-1.3373 2.7661-1.3115 1.6888 0.0328 3.0971-0.50117 4.8085-1.8233 4.136-3.1952 8.2689-10.454 9.5488-16.77 0.64811-3.1986 0.04822-5.5534-1.997-7.8391-3.7616-4.2039-5.6695-8.2353-6.1195-12.931-0.12394-1.2933-0.34549-3.1363-0.49234-4.0955-0.23644-1.5444-0.22113-1.8406 0.1338-2.5886 0.32821-0.69165 0.38659-1.3243 0.32236-3.4932l-0.07855-2.6486 0.68427-0.20245c2.1295-0.63002 2.7397-1.5316 2.7313-4.035-0.0078-2.328-0.60076-3.3929-3.7173-6.6758-1.3666-1.4397-2.96-3.2835-3.5408-4.0974-2.2317-3.1275-3.8948-7.2372-4.7246-11.676-0.25988-1.3899-0.71979-3.5107-1.022-4.7127-0.61038-2.4278-0.57903-2.9996 0.3617-6.5959 0.71083-2.7174 0.66791-4.1534-0.22691-7.5905-0.41734-1.603-0.71302-2.9604-0.65706-3.0164 0.18335-0.18335 12.719-0.56359 18.68-0.56662l5.8317-3e-3 0.38379 1.2175c0.55758 1.7688 0.48153 2.6471-0.44302 5.1155-1.0126 2.7036-1.2093 3.8642-0.68866 4.064 1.0379 0.3983 6.3188-3.0508 7.3221-4.7823 0.6448-1.1128 1.1717-2.9378 1.3796-4.7782 0.19113-1.6923 0.58608-2.0831 2.4223-2.3968 2.3295-0.39799 10.228-1.2602 10.358-1.1306 0.28206 0.28206 0.59956 23.349 0.49383 35.878-0.19054 22.578-1.0634 28.907-5.31 38.503-4.4083 9.9611-12.068 19.09-21.08 25.122-6.8367 4.5765-16.436 8.3119-24.634 9.5863-2.2834 0.35494-10.139 0.64523-11.861 0.43827zm9.0787-133.66c0.13516-1.3877-1.8348-2.947-4.0554-3.21-1.5747-0.1865-2.6343 0.075046-3.5455 0.87509-1.4618 1.2835-1.0195 1.6561 2.3802 2.005 1.3632 0.13989 2.7338 0.42404 3.2884 0.68176 1.3351 0.6204 1.8468 0.52723 1.9324-0.35185z" fill="#fff" fill-rule="evenodd" opacity=".986" stroke="#fafafe" stroke-width=".86207"/>
<path d="m103.93 44.91c0.10105-0.47726 0.17962-1.9968 0.17459-3.3767-0.01-2.7316-0.4945-4.38-1.4355-4.8836-0.25365-0.13575-1.643-0.33226-3.0873-0.43669-1.5443-0.11166-2.7726-0.31141-2.9816-0.48489-0.44806-0.37186-0.44534-0.98957 0.01007-2.292 0.21791-0.62318 0.40866-2.1998 0.48555-4.0134l0.12664-2.987 2.7614-0.2832c1.5188-0.15576 4.8912-0.34012 7.4943-0.40969l4.7329-0.12649 0.0186 0.77362c0.0553 2.3003 0.35798 6.3582 0.48368 6.484 0.0799 0.07989 1.103 0.22774 2.2735 0.32855 2.2488 0.19368 4.067 0.58898 4.067 0.88423 0 0.09727-1.2117 0.29086-2.6926 0.43018-3.1503 0.29639-6.6867 1.0754-7.343 1.6177-0.34012 0.281-0.51704 0.82891-0.67532 2.0914-0.11796 0.94087-0.37759 2.1726-0.57696 2.7371-0.65032 1.8414-2.161 3.8441-3.3796 4.4805l-0.63991 0.33418z" fill="#fff" fill-rule="evenodd" opacity=".986" stroke="#fafafe" stroke-width=".86207"/>
</svg>
