<?xml version="1.0" encoding="UTF-8"?>
<svg enable-background="new 0 0 456.3 534.5" version="1.1" viewBox="0 0 456.3 534.5" xml:space="preserve" xmlns="http://www.w3.org/2000/svg">
<style type="text/css">
	.st0{fill:#FFFFFF;stroke:#000000;stroke-width:3.02;stroke-miterlimit:11.47;}
	.st1{fill:#FFD600;stroke:#000000;stroke-width:3.02;stroke-miterlimit:11.47;}
	.st2{fill:#FFFFFF;stroke:#FFFFFF;stroke-width:0.22;stroke-miterlimit:11.47;}
	.st3{stroke:#000000;stroke-width:0.22;stroke-miterlimit:11.47;}
	.st4{fill:#E40520;stroke:#E40520;stroke-width:0.22;stroke-miterlimit:11.47;}
</style>
<path class="st0" d="M1.5,1.5V307c0,120.4,96.5,226,226.2,226s227.1-105.6,227.1-226.2V1.6L1.5,1.5z"/>
<path class="st1" d="m385 308.5v1.3l-0.3 35.9s0.6 1.9-0.1 3-3 0.1-3 0.1l-290.6 0.6s-1.5 1-2.2-0.2c-0.4-0.8-0.5-1.7-0.2-2.6l-0.1-37.4 0.1-1.1 50-45.9 201.5 0.8 44.9 45.5z"/>
<polygon class="st1" points="95.8 315.6 142.2 271.5 334.6 271.4 377.2 314.9 334.4 315.2 333.7 271.4 143.1 271.5 143 315.2"/>
<polygon class="st2" points="194.5 259.3 207.5 270.5 226.2 283.8 227.8 279.6 215.4 268.4 200.3 259.6"/>
<path class="st3" d="m286.8 24.6c1.9 1.1 3.7 2.4 5.3 3.9 2.5 2.3 5.8 7 6.8 7.3s3.3-2.1 4.5-4 2.8-7.7 2.5-9.4c-0.9-5.1-3.8-9.7-8.1-12.7-3.8-2.7-6.1-3.3-9-3.3-3.5-0.1-6.9 0.9-9.8 2.9-2.8 1.7-5 4.1-6.5 7-0.8 1.6-1.1 1.4-0.3 2 0.4 0.1 0.8 0.2 1.2 0.4 1.9 0.6 5 1.7 6.5 2.2 2.5 0.9 4.8 2.2 6.9 3.7z"/>
<path class="st3" d="m298.8 39.8c-1-0.6-0.6-0.3-1.7-1.5-0.8-0.8-1-1.5-1.8-2.4-2-2.6-5.3-8-17.6-12.3-5.9-2.2-12.2-3.2-18.5-3-5.2 0-12.9 1.4-18.6 2.9s-22.7 7.1-26.5 8.6c-3.8 1.6-10.9 4.4-13.1 4.2-2.4-0.2-6.6-2-9.5-3.2s-5.5-2.2-7.2-2.1c-1.6 0.3-0.9 2-0.9 2.8s1.9 2.6 2.7 3.7 5.7 6 5.7 6c-1.2 0.2-2.3 0.5-3.4 1-1.4 0.6-3.4 3.6-3.7 4.4s-1.3 2.4-1.3 4.5-0.3 4.4 1.6 5.8 3.2 1.9 4.8 3.4c0.2 1 0.3 1.9 0.4 2.9 0 0 1.7 4.3 2 5 0.4 1 1.9 4.3 1.9 4.3s-14.6-2.9-19.7-4.7-9.9-3.3-18.1-7.8c-5.8-3.1-11.8-8.8-12.5-9.8s-1.7-1.9-2.5-1.4-0.9 1.4-1.1 3.1c-0.3 2.8-0.2 5.7 0.4 8.4 0.7 4.1 2.3 8 4.8 11.3 3 3.8 4.3 5.6 7.1 7.4 2.7 1.7 6.2 3 10.4 4.3 3.1 1 11.6 2.2 14.5 2.4s7.1 0.6 8.4 0.9c1.3 0.1 2.7 0.1 4 0.1 0 0 3.4-0.2 3.4 0.7 0 0.7-0.9 4.8-0.9 4.8s-2.7 0-3.5 0.6-2 2-1.7 3.2 0.9 2.3 3.7 3.7c4.7 2.1 9.6 3.5 14.7 4.2 5.2 0.7 12.1 2.2 19.1 2.9s23.7 2 29.4 2.1c2.1 0 4.3 0.1 6.4 0.3 1.4 0.1 2.5 0.5 4 0.5 3.7-0.2 7.4-0.9 10.9-2.1 3.7-0.9 7.2-2.6 10.2-5 3.5-2.9 6.5-6.2 9.2-9.9 1.4-2.4 2.6-4.8 3.6-7.4 0.8-2 1.2-6 1.6-7.3s0.2-3 1.2-3.8c0.7-0.8 1.8-1.1 2.9-0.8 2.2 0.4 4.4 0.5 6.6 0.4 3 0.1 6-0.4 8.9-1.4 4.2-1.4 10.1-4 12.5-10.4s2.2-10.9 0.4-14.7-5.2-9.8-12.8-11.7c-5.9-1.6-9.7-0.8-12.2 0.4-2.2 1-4.3 2.5-6 4.3-1.6 1.6-2.5 4.8-3.4 4.8s-1.2-0.7-0.6-1.3 0.7-2.2 1.1-2.7c0.1-0.4 1.3-3 0.3-3.6z"/>
<path class="st2" d="m310.3 43.5c-3 1.1-5.5 3-6.3 5s-1.9 3.8-2.4 5.3-0.8 3.2-0.8 3.2h1c0.4-1.5 0.9-3 1.6-4.4 1-1.6 2.6-6.2 6.7-7.1s4-0.8 6-0.4 5.3 1.2 6.1 2 3.2 2.7 3.2 2.7c-0.4-1.3-1.2-2.5-2.2-3.4-1.6-1.4-2.5-2.6-6.3-3-2.2-0.2-4.4-0.2-6.6 0.1z"/>
<path class="st2" d="m250.6 57.8c-0.4-1.3-0.9-3.5-0.2-4.3s1.6-1.7 0.4-2.9-1.9-0.2-3.3 0.1c-2.1 0.2-4.3 0.2-6.4 0-0.1 1.3 0.6 2.5 1.7 3.2 0.7 0.4 1.1-0.1 2.2 0.4 0.7 0.4 0.7 1.3 1.8 2.5s2.3 3.2 3.7 4.5c1.3 1.3 2.8 2.5 4.3 3.5 1.8 0.8 1.8 1.3 4.6 1.6 3.3 0.5 6.5-1 8.3-3.8 0.5-0.7 1.2-1.8 0.3-1.6-0.6 0.1-1.7 1.3-2.9 2.3s-3.2 1-4.5 1c-2.6-0.1-5.1-1-7.2-2.6-1.4-0.8-2.4-2.2-2.8-3.9z"/>
<path class="st2" d="m196.2 63.2s0.2 3.8 0.4 4.5 0.9 3 0.9 3c0.2-1.3 0.5-2.6 0.9-3.8 0.4-0.9 0.8-2.5 0.2-3.1-0.8-0.5-1.6-0.7-2.4-0.6z"/>
<polygon class="st2" points="204.8 65.7 204.8 67.7 204.8 70.8 205.4 69.3 206 66"/>
<path class="st2" d="m211.4 65.4s-0.9 3-1.3 5-0.6 4.8-0.6 4.8-0.1 1.5 0.6 1.7c1.4 0.4 7.1 0.5 10.4 1.3s5.5 1.2 9.4 2.3c2.8 0.7 5.6 1.8 8.1 3.2 0.3-1.5 0.2-3.2-0.4-4.6-1.2-2.7-1.4-5.5-6.9-8.4-4.2-2.2-8.8-3-12.2-3.8-3.2-0.8-7.1-1.5-7.1-1.5z"/>
<path class="st2" d="m213 89.4s-0.3 3.7-0.3 4.5c0.1 1.1 0.9 2.1 2 2.4 2.5 0.3 5 0.4 7.5 0.2 2.7-0.2 6.4 0 6.8-0.8s-1.7-2.6-3.7-3.2-6.8-2.2-8.4-2.6c-1.3-0.3-2.6-0.5-3.9-0.5z"/>
<path class="st4" d="m147.5 63.9s1.2 6.7 4.7 9.9c2.9 2.7 5.5 5.3 13.7 7 7.5 1.4 15.1 2.3 22.7 2.7 4.1 0 17.1 0.6 20.8 1s7.9 0.1 12.2 1.8 8.4 3.3 9.4 3.1 1.5-0.8 0.9-1.7-6.7-3.2-10.4-3.8-10-2.2-13.2-2.2c-4 0.1-8-0.1-12-0.4-6.4-0.9-12.7-2.2-18.9-4-3.8-1.2-10.4-2.7-14.6-4.7s-6.7-2.8-9.8-4.6c-1.9-1.2-3.8-2.6-5.5-4.1z"/>
<path class="st3" d="m249.6 114.7c-5.6-0.4-16.4-1.2-19.5-1.4-3.2-0.2-6.5 0.1-9.6 0.9-4.4 0.7-8.8 1.9-13 3.5-6 2.4-11.7 5.6-16.9 9.5-3 2.2-8.1 9.2-9.4 12.1-1.5 4-2.8 8-3.9 12.1-0.7 2.7-1.3 5.4-1.7 8.1-0.3 1.5-1.1 9.1-1.1 9.1l-0.6-0.2c-0.4-2-0.7-4.1-0.8-6.2 0.3-1.5 0.4-4.5 1.1-8.1s1.4-8.9 2.5-11.6 2.4-6.9 3.2-7.7c0.8-1.1 1.4-2.3 1.9-3.5l-0.9-3.5c-3.9-2.1-8.1-3.6-12.5-4.6-8.1-2.1-14.3-3.2-26.4-4.4s-19.2-0.4-24.6-1.3c-3-0.5-5.9-1.6-8.4-3.2-1.2-0.9-4.8-3-4.8-3.8s0.2-1 0.9-0.6 3.3 1.8 4.4 2.2c1.6 0.6 3.4 1 5.1 1.2 1.9 0.1 4.8 0.1 4.8 0.1-1.9-1.2-3.6-2.7-5-4.4-1.7-2.2-7.1-6.6-8.9-10.3-2.2-4-3.4-8.5-3.7-13 0-5.8 1.3-11.5 3.8-16.7 2.3-4.2 6.3-10.1 6.6-13.9s1.3-7.3 0.3-11.1c-1.3-4.6-5.3-7.1-5.8-7.1s-1.9 0-1.9 1c0.1 1.6 0 3.2-0.1 4.8-0.2 1.6-0.8 3.1-1.7 4.5-0.6 0.9-0.6 1.8-1.7 2.7-0.9 0.9-2.2 1.2-3.3 0.8-0.6-0.2-0.6-0.5-0.2-1.1 1-1.1 1.5-2.5 1.4-3.9 0-2.4-1.3-7.4-2.2-10.5-1.1-3.6-3-6.9-5.6-9.6-2.8-2.7-6.6-4.1-10.4-4 0 0 2 2.7 2.7 4.2 0.9 1.5 1.6 3.1 2 4.8 0.2 0.9 0.6 1.7 1.1 2.4l-0.4 1.9c-1.5 0.8-2.9 1.7-4.2 2.7-0.9 0.8-4.5 4.5-4.5 4.5l0.8-4.9c-1.9-2.9-4.3-5.4-7.1-7.5-4.2-2.9-9.5-2.7-11.3-2.7-1 0-1.9 0.2-2.8 0.6 1.6 1 3 2.2 4.2 3.7 1.5 1.9 2.7 4 3.7 6.3 0.6 1.5 0.8 6 0.8 6s-6.2 8.3-6.2 9.3c0 1.9 0.8 4 2 6.8 0.7 1.6 1.5 3.2 2.4 4.7-1.2-0.6-2.2-1.4-3.2-2.3-0.8-0.9-2-6.8-2.2-8.4s0.7-5.8 0.4-6.4-4.9-0.7-7.7-0.8c-2.8-0.3-10.5 0.5-11.5 0.9s-1.1 1.1-0.7 1.7 3.3 1.6 4.3 2c1.5 0.4 3 0.9 4.5 1.6 1.5 0.8 3.9 2.7 4.1 3.6s-0.9 4.3-0.9 5.7c0.2 2.6 0.5 5.1 0.9 7.6 0 0-3-4-3.8-4-3.1 0-6.1 0.4-9 1.4-1.4 0.5-3.8 2.2-4 2.9s-0.7 2.2 0.1 2.6 4.5-0.1 6.3 0.5c1.7 0.7 3.2 1.7 4.5 3l2 0.4c-0.3 1.1-0.4 2.2-0.3 3.2 0.2 1.7 0.7 3.4 1.5 5 1 2 2.3 3.8 4 5.2 0.9 0.9 1.9 1.7 3 2.9s2.8 5.8 2.8 5.8 2-2.8 3-4.2 2.9-4.1 3.3-4.9c0.6-1.1 1.3-2.1 2.1-3 0.2 0.6 0.4 1.3 0.4 1.9-0.3 1.1-1 2.2-1.9 3-0.4 0.7-1.2 1.7-1.9 2.7-1.5 2.3-2.8 4.7-3.9 7.3 0.1 1.9 0.4 3.8 0.9 5.6 0.9 2.9 1.8 7.3 3.8 11.3s8.5 12.2 12.4 17.5 10.2 13.1 12.4 15.1c2.3 2 12 9.8 12 9.8l0.2-4c0.8 1.9 1.8 3.8 3 5.5 1.6 1.7 5.8 4.8 7.1 5.8s4 3.3 4.6 3.8c2.2 1.4 3.7 1.9 4.3 1.7 1.1-0.1 0.2-0.9 0.1-1.7-0.7-1.3-1.5-2.6-2.4-3.8 0 0 0-1.4 0.7-0.9s4 4.7 5.2 5.6c2.5 2.3 5.2 4.3 8.1 6 2.4 1.1 7 2.2 8.6 1.3 0.5-0.4 0.6-1.1 0-2.3s-2.2-3.4-2.6-4.2c-0.3-0.7-0.5-1.4-0.6-2.1 0 0 0.6-0.8 1.1-0.1s2.3 3 3.5 4.6c0.6 0.7 1.2 1.3 1.9 1.9 2.4 1.8 6 3.5 7.6 3.7 2.2 0.4 3.5 0.6 3.5 0.6l1.4-2.4s-0.2-0.8 0.6 0.1 0.6 2.4 2.8 2.2 4.7-1.8 8.5-3.6 11.8-5.7 16.3-7.4 11.7-3.5 15.8-4.5c3.8-1 7.7-1.8 11.7-2.3 3.2-0.4 8.9-1.7 9.4-1.7 0.3 0 1.4-0.1 1.3 0.6s-1.4 1.2-1.4 1.2-5.3 0.9-8.6 1.4c-3.9 0.5-7.7 1.4-11.4 2.6-3.4 1-11.7 3.2-15.9 4.8s-11.8 5-16.7 7.3-9.6 4.5-14.1 6.3c-4.2 1.8-8.4 3.8-12.4 6-3.5 1.9-7.1 4.2-9.4 5s-3.8 1.2-6.3 2.2-13.2 5-17.9 6.6-7.8 3.2-10.9 4.3c-3.1 1.2-6.3 1.9-9.7 2-3.4 0-6.8-0.6-7.8-1.4s-3.4-1.9-4-2.7-1.7-2.2-1.7-2.2l0.3-0.9c0.7 1.1 1.6 2 2.6 2.7 1.5 1.1 3.2 1.9 5 2.2 2.1 0.2 2.9 1.1 5.1 0.6 3.8-0.8 5-2.4 5-2.4s-10.1-9.6-10.3-10.5-0.3-3 0.4-3.8 4.1-7.6 4.8-10.4 1.8-9.4 0.1-15.6c-1.2-4.7-3.8-8.3-7.5-9.6-2.2-0.8-4.4-1.3-6.8-1.4l2.4 9c-1.9 0.5-3.7 1.1-5.4 2-2.2 1.1-2.8 1.4-3.5 3.6-0.4 1.3 0.4 3.4 1.7 4.9 0.9 1.4 1.5 3 1.8 4.6 0.2 2.3 0.2 4.6 0 6.8l-1.4-0.6s-0.4-5.3-2.7-8.9c-2.2-3.7-3.4-6.5-8.4-8.9-4-2.1-8.5-3.2-13-3.1-4.5 0.4-6.7 1.9-7.1 2.4s-0.9 1.4 0.4 1.6c1.6 0.3 3.2 0.8 4.6 1.6 2.1 1 4 2.5 5.3 4.4 0.6 1.2 1 2.4 1.2 3.7 0 0 0 0.4-1.5 0.2s-3 0-4.3 0.7c-1.1 0.8-2 1.7-2.9 2.7-0.5 0.9-0.8 1.9 0.1 2.4s2.9 1.9 4.3 1.9c0.8 0 1.6-0.1 2.5-0.2l0.4 3.2c-1.4-1.4-3.2-2.3-5.2-2.4-3.2-0.2-4.8-0.4-8.3 0.6-2.8 0.6-5.5 1.6-8 3-2.5 1.6-4.5 4-5.5 6.8-0.6 2-0.6 2.1-0.4 3.4s0 1.8 1 1.6 0.6 0.3 2.4-1.1 1.8-1.5 3.4-1.8 2 0.4 2 0.4-1.7 3.6-1.7 5.7c0 1.6 0.4 3.2 1.3 4.6 0.6 1.3 1.8 2.1 3.2 2.2 0.9 0 1.9-0.8 3-1.2 1.6-0.6 3.3-1 5-1.1 2 0 4 0.2 6 0.6s4.8 2.5 4.8 2.5l-0.2 0.9c-1.5-1.4-3.4-2.1-5.4-2.2-3.2 0-5-0.8-9.1 0.9s-4.8 3.5-6.5 5c-1.6 1.7-3.2 5.8-3 7.4 0.2 1.2 0.4 2.4 0.7 3.5 0 0 0.3 0.3 0.9 0 0.6-0.1 2-2.2 3.7-2.7 2-1 4.2-1.4 6.4-1.2 3.2 0.1 5 0.1 6.6 0.8s3.7 2.2 7.3 4.4 11.2 8.4 15 10.9 11.9 7.2 15.8 8.9c2.8 1.4 5.7 2.4 8.7 3.2 5.2 1 10.7 0.6 13.9 0.6s12.6-0.5 12.6-0.5c0.8 0.1 1.5 0.1 2.3-0.1 0.7-0.2 0.4-1.4-0.5-2.1-1-1.1-1.4-1.6-2.2-2.6-0.8-0.7-1.9-1.4-0.7-1.5s2.4 0.4 4.6 1.2 4 2.5 6.1 3.2c2.7 0.8 5.5 1.3 8.3 1.6 1.4 0.2 2.8 0.1 4.2-0.4 0.7-0.2 1.8-0.4 1.4-1.2-0.5-1-1.2-1.8-2-2.6-0.6-0.6-2-1.4-1.8-2s1.2-0.6 2.4-0.2 3.6 1.8 5.5 2.4c2 0.8 4 1.4 6.1 1.9 3.1 0.4 8.1 0.4 8.9-0.1s0.9-0.6-0.2-1.6-3.3-3.8-4.1-4.5-0.2-0.9 0.4-0.9c1.3 0.4 2.5 0.8 3.8 1.4 1.2 0.4 5.7 2.3 8.6 2.7 2.3 0.3 4.6 0.3 6.8 0 0.8-0.2 2.4-1 1.9-2-0.5-1.1-1.3-2.1-2.4-2.6-1.4-0.6-2.4-0.8-3-1.6s0-1.2 0.9-1 2.9 0.8 5.3 1.4c3.5 0.8 7.1 1.2 10.7 1.2 2.2-0.1 4.4-0.6 6.4-1.7 1.1-0.6 1.6-0.8 0.6-1.6-1.1-1.1-2.1-2.2-3-3.4-0.6-0.6 0-0.8 0.6-1.2s5.3 1.1 6.5 1.9 4.5 0.9 5.5 0.9 3-1.7 7.1-2.2 10.5-1.4 11.4-1.8c1.2-0.6 2.4-1.4 3.4-2.4 0.6-0.5 1.4-0.7 2.2-0.8l0.4 0.6s0 2.2-0.9 2.8c-1.2 0.6-2.4 1.2-3.7 1.7-0.8 0.1-9.4 1.5-11.7 2.2-3.8 1.2-7.5 2.7-11.1 4.3-2.4 1.3-8.4 3.2-10 4.5s-2.1 0.8-2.1 1.6 0.2 1.1 1.7 2.3 4.3 2 5.2 3.1 1.7 1 1.9 1.5 0 0.6-0.6 0.8-0.6 0.9 0.4 1.6 5.7 5.2 7.7 6.8 5.6 4.5 7 5.7c1.3 1 2.6 2 4 2.8 0.6 0.4 1 0 3 1.6 1.3 1 2.3 2.4 2.8 4 0 0.5-0.1 1.1-0.3 1.6 0 0-1.4-1.1-3.4-2.7-2-1.5-4-3.8-6.4-5.2s-6.6-5.3-8.1-6.4c-1.3-1-2.6-1.9-4-2.7-1-0.6-2-1.2-2.9-2-1.2-1.5-2.3-3-3.4-4.6-0.5-0.3-1.2-0.5-1.8-0.4-1.9 0.4-3.7 1-5.3 1.9s-6 2.8-8.3 4.8-4.2 4.9-7.2 8.1-11.5 11-13.1 15.1c-1.3 3.1-6.7 23.8-6.7 23.8l-1.8 4.8 153.8 4.5s2.3-8.4 3-9.9c1.3-4 1.8-8.3 1.4-12.5-0.2-2.2-3-10.6-4-13.6s-10.9-21.5-11.2-22.4-0.8-17.8-0.8-21-0.4-16.1 0-19.3-0.1-25.4 1.3-28.8 6.5-12.7 7.6-15.9c1.1-4.5 1.5-9.2 1-13.9-0.5-4-2.2-10.6-3.2-12.3s-2-3.4-2.4-4.3c-0.4-0.6-0.9-1.1-1.4-1.6 0-1.8 0.1-3.7 0.4-5.5 1-3.5 0.8-1.8 2.5-6.2s3.4-11.2 4.5-14.9c1.4-4.5 3.2-8.6 4.4-15.3 1.1-5.9 2.3-9.2 2.5-12.2s-0.1-10.7-0.6-11.7-7.6-2.6-8.2-2.4-1 0.9-1.3 1.8c-0.3 2.4-0.7 4.7-1.4 7-0.8 2.2-3.2 9.6-5.8 12.4s-5.4 6.7-7.6 8.3-8.7 5.5-11.5 6.4c-3.3 1.2-7.6 1.6-13.8 1.9-1.6-0.1-11.9-0.6-11.9-0.6z"/>
<path class="st4" d="m207.4 276.9c-0.9 0.4 0.1 0.6 0.7 1.1 1 0.9 2.2 1.7 3.4 2.4 2 1.1 3.8 2.5 5.3 4.2 0.9 1.5 2 2.7 3.4 3.7 0.5 0.3 2.6 0.9 3.2 0.3 0.8-0.8 1-2 0.6-3-0.6-1.4-2.2-3-4.9-5-1.9-1.6-2.9-2.4-4.6-3-0.5-0.1-1.5-0.5-2.2-0.7-1.5-0.4-3.3-0.4-4.9 0z"/>
<path class="st2" d="m231.9 270.8c-0.6-0.3-2 0-1.4 0.7s1.6 1 1.6 2c-0.2 1.6-0.5 3.1-0.9 4.6-0.6 2.2-1.4 4.4-2.4 6.5-1 2.2-2.3 4.3-3.7 6.3-1.4 1.8-2.7 3.7-3.8 5.6-0.1 0.8-0.4 3.8-0.4 3.8l0.8 0.4c0.2-1.2 0.6-2.4 1.1-3.6 0.6-1.2 3-3.9 3.8-5s2.7-5.5 3.4-6.6 1-3.2 1.7-4.1 1.6-2.4 2-3.2c0.5-1.5 0.6-3.1 0.4-4.6-0.7-1.1-1.4-2-2.2-2.8z"/>
<path class="st2" d="m83.3 67s-0.4 3.1-0.6 4c-0.2 1.8-0.2 3.7 0.3 5.5 0.4 2.1 0.9 4.2 1.7 6.3 1.6 4 2.2 6.9 3.5 10.6 0.9 2.3 1.7 4.7 2.3 7.1 0.2 1.4 2.4 8.5 2.4 8.5-0.3-2.9-0.8-5.8-1.4-8.6-1.1-3.9-1.4-5.9-2.2-8.1-0.4-0.9-0.9-2.4-1.4-4.2s-1.4-3.7-2-5.6c-0.8-2-1.4-4.1-1.8-6.2-0.3-1.7-0.5-3.5-0.6-5.3l-0.2-4z"/>
<path class="st1" d="m90 349.6c1.2 0.6 7.8-1.1 15.3 6 2 1.9 2.6 6.8 3.2 12.5 0.5 5.5 0.7 11.6 0.7 15.9 0 5.7 0.3 34.1 0.4 53.1 0.1 8.6 0.1 15.5 0.1 17.3 0 5.7-0.6 19.3-0.6 21.7s-1 9.3 1.7 10.9 9 1.7 11.4 1.7 11 0.2 13.4-2.2 0-17.6 2-20 39.7-6.1 50.2-6.1 59.5 1.2 76.5 1.7 54.7 1.2 56 2 0.7 6.5 0.7 9.6-1.1 12.2 1.4 13.8c2.3 1.6 7.6 1.5 13.2 1.5s13.4 0.4 15-1.6 1.4-7.2 1.2-13.3c0-5.2 1.1-24.2 3.2-25.7 2-1.7 2.7-12.1 2.7-15.8s-0.3-60.3 0.5-64-0.2-9.5 3.8-13.5 5.7-4.5 9.7-6.3c7-3.1 7-9.6 4.1-10.9s-277.5 1.1-279.8 2.7-7.2 8.5-6 9z"/>
<path class="st1" d="m365.5 436.8h-266.4s-1.2 0.1-1.5 0.8c-0.4 0.6 0 0.9 0 0.9v28.9s-0.8 4.8 0.3 6 4.5 0.5 4.5 0.5l260.6 0.3s2.5 0.4 3.6-0.8 0.9-4 0.9-4l-0.1-30.7s0.6-0.8 0-1.4c-0.6-0.3-1.3-0.5-1.9-0.5z"/>
<path class="st1" d="m88.6 309.2 0.1 37.4c-0.2 0.9-0.1 1.8 0.2 2.6 0.5 0.9 2.4 0.2 2.4 0.2l290.8-0.3c0.8 0.3 1.6 0.1 2.3-0.4 1-0.9 0.4-3.1 0.4-3.1l0.3-35.9-296.5-0.5z"/>
</svg>
