<?xml version="1.0" encoding="UTF-8"?>
<svg version="1.0" viewBox="0 0 208.86 244.66" xmlns="http://www.w3.org/2000/svg" xmlns:cc="http://creativecommons.org/ns#" xmlns:dc="http://purl.org/dc/elements/1.1/" xmlns:rdf="http://www.w3.org/1999/02/22-rdf-syntax-ns#">
<metadata>
<rdf:RDF>
<cc:Work rdf:about="">
<dc:format>image/svg+xml</dc:format>
<dc:type rdf:resource="http://purl.org/dc/dcmitype/StillImage"/>
<dc:title/>
</cc:Work>
</rdf:RDF>
</metadata>
<path d="m1 1 3.7611 158c2.6865 112.86 196.65 112.86 199.34 0l3.7611-158z" fill="#cc2918" fill-rule="evenodd" stroke="#000" stroke-width="2"/>
<path d="m104.43 1v242.65c-39.163-0.4626-90.66-18.393-98.938-74.922l-4.4921-167.73z" fill="#feeb00" stroke="#000" stroke-dashoffset="4.58"/>
<path d="m11.617 191.11h185.63c-11.595 25.332-38.607 51.548-92.814 52.538-56.697-1.8647-82.178-28.784-92.814-52.538z" fill="#009645" stroke="#000" stroke-dashoffset="4.58"/>
<g transform="translate(-51,-4e-6)" fill="#cc2918" stroke="#000" stroke-dashoffset="4.58">
<path d="m89.731 20.684c-4e-3 5.3626 4.3276 9.3692 6.5407 9.3692h16.335c2.2132 0 6.5448-4.0066 6.5407-9.3692-8e-3 -10.099-8.8585-12.905-14.708-12.905s-14.7 2.8061-14.708 12.905z"/>
<path d="m98.217 182.79-1.9445-152.74h16.335l-1.9445 152.74c-5e-3 0.72266-2.3546 1.2374-6.2228 1.2374s-6.2178-0.51477-6.2228-1.2374z"/>
<path d="m94.328 37.92c-1.2928 0-2.0992-1.0879-2.0992-2.0992 0-1.0236 0.79073-2.0992 2.0992-2.0992h20.224c1.3085 0 2.0992 1.0757 2.0992 2.0992 0 1.0113-0.80645 2.0992-2.0992 2.0992h-20.224z"/>
<path d="m94.582 43.857c-1.2591 0-2.0446-1.0879-2.0446-2.0992 0-1.0236 0.77016-2.0992 2.0446-2.0992h19.716c1.2744 0 2.0446 1.0757 2.0446 2.0992 0 1.0113-0.78547 2.0992-2.0446 2.0992h-19.716z"/>
<path d="m95.866 104.5c-1.1035 0-1.7703 1.0757-1.7703 2.0992 0 1.0113 0.6801 2.0992 1.7703 2.0992h17.147c1.0902 0 1.7703-1.0879 1.7703-2.0992 0-1.0236-0.66684-2.0992-1.7703-2.0992h-17.147z"/>
<path d="m95.973 108.7c-1.089 0-1.7471 1.0757-1.7471 2.0992 0 1.0113 0.67117 2.0992 1.7471 2.0992h16.932c1.0759 0 1.7471-1.0879 1.7471-2.0992 0-1.0236-0.65809-2.0992-1.7471-2.0992h-16.932z"/>
<path d="m110.97 173.54c0.83746 0 1.3599-0.72351 1.3599-1.3961 0-0.68072-0.51223-1.3961-1.3599-1.3961h-13.064c-0.84764 0-1.3599 0.71537-1.3599 1.3961 0 0.67259 0.52241 1.3961 1.3599 1.3961h13.064z"/>
</g>
<path d="m1 1 3.7611 158c2.6865 112.86 196.65 112.86 199.34 0l3.7611-158z" fill="none" stroke="#000" stroke-width="2"/>
<g transform="translate(103,4e-6)" fill="#feeb00" stroke="#000" stroke-dashoffset="4.58">
<path d="m39.731 20.684c-4e-3 5.3626 4.3276 9.3692 6.5407 9.3692h16.335c2.2132 0 6.5448-4.0066 6.5407-9.3692-8e-3 -10.099-8.8585-12.905-14.708-12.905s-14.7 2.8061-14.708 12.905z"/>
<path d="m48.217 182.79-1.9445-152.74h16.335l-1.9445 152.74c-5e-3 0.72266-2.3546 1.2374-6.2228 1.2374s-6.2178-0.51477-6.2228-1.2374z"/>
<path d="m44.328 37.92c-1.2928 0-2.0992-1.0879-2.0992-2.0992 0-1.0236 0.79073-2.0992 2.0992-2.0992h20.224c1.3085 0 2.0992 1.0757 2.0992 2.0992 0 1.0113-0.80645 2.0992-2.0992 2.0992h-20.224z"/>
<path d="m44.582 43.857c-1.2591 0-2.0446-1.0879-2.0446-2.0992 0-1.0236 0.77016-2.0992 2.0446-2.0992h19.716c1.2744 0 2.0446 1.0757 2.0446 2.0992 0 1.0113-0.78547 2.0992-2.0446 2.0992h-19.716z"/>
<path d="m45.866 104.5c-1.1035 0-1.7703 1.0757-1.7703 2.0992 0 1.0113 0.6801 2.0992 1.7703 2.0992h17.147c1.0902 0 1.7703-1.0879 1.7703-2.0992 0-1.0236-0.66684-2.0992-1.7703-2.0992h-17.147z"/>
<path d="m45.973 108.7c-1.089 0-1.7471 1.0757-1.7471 2.0992 0 1.0113 0.67117 2.0992 1.7471 2.0992h16.932c1.0759 0 1.7471-1.0879 1.7471-2.0992 0-1.0236-0.65809-2.0992-1.7471-2.0992h-16.932z"/>
<path d="m60.972 173.54c0.83746 0 1.3599-0.72351 1.3599-1.3961 0-0.68072-0.51223-1.3961-1.3599-1.3961h-13.064c-0.84764 0-1.3599 0.71537-1.3599 1.3961 0 0.67259 0.52241 1.3961 1.3599 1.3961h13.064z"/>
</g>
</svg>
