<?xml version="1.0" encoding="UTF-8"?>
<svg version="1.0" viewBox="0 0 214.16 250.85" xmlns="http://www.w3.org/2000/svg">
<g transform="translate(-19.648 -810.32)">
<path d="m20.665 811.34 3.8568 162.02c2.7548 115.73 201.66 115.73 204.41 0l3.8568-162.02h-212.12z" fill="#2362c2" fill-rule="evenodd" stroke="#000" stroke-width="2.0331"/>
<path transform="translate(0 804.33)" d="m129.88 44.057c0.89633-1.2256 1.0149-3.6279-3.8684-3.564-4.9456 0.063903-5.114 0.081678-6.913 3.0654l-2.5551 4.2378c-1.3606 2.2566 0.85174 3.2496 4.6728 3.1828 3.7587-0.066857 4.7086-1.5139 5.6101-2.7465l3.0537-4.1755z" color="#000000" fill="#fff" fill-rule="evenodd" stroke="#000" stroke-width="1px"/>
<path d="m101.8 970.41 31.029 15.379-18.847-43.874c-4.6587-4.2808-20.049-25.772-22.007-28.545-1.9287-2.7313-2.7176-7.6322-7.8004-11.274-5.1249-3.6721-9.2391-3.19-13.262-0.0593-4.0775 3.1736-12.344 6.6463-14.486 7.1777-2.1418 0.53141-8.0879 4.251-11.534 7.1551-3.3789 2.8478-5.9607 0.3622-8.1237 6.5514-2.1533 6.1612-4.6478 12.931-5.6596 16.4 2.4507 0.08044 5.7416-0.38357 6.2381-2.7726 0.39406-1.8962 0.63781-3.617 0.71581-4.67-0.077999 1.053-0.32175 2.7738-0.71581 4.67-0.49646 2.389-1.2315 5.0564-2.1742 7.0173-1.7626 3.6663 0.49708 2.823 1.9826 2.2407 1.5864-0.6218 5.7141-1.5893 8.9257-5.7418s1.8389-10.823 0.97091-13.379c2.0802-2.572 4.1001-4.7218 5.9466-5.6577l2.3017 6.3578c2.908-4.8212 12.729-13.36 15.456-14.014 2.7052-0.64897 3.4133-2.375 4.8043-0.77597 2.2463 2.5821 3.9817 2.0579 4.8083 5.1917 0.76166 2.8877 12.675 40.921 21.431 52.623z" color="#000000" fill="#fff" fill-rule="evenodd" stroke="#000" stroke-linejoin="round" stroke-width="1px"/>
<path transform="translate(0 804.33)" d="m126.74 128.87c-17.885 1.7928-23.831 16.011-18.684 41.776" color="#000000" fill="#fff" fill-rule="evenodd" stroke="#000" stroke-width="1px"/>
<path transform="translate(0 804.33)" d="m184.02 167.83 16.592-47.88 2.7251-29.684-11.656-34.778-34.646-20.85-27.237 4.3987-1.6524 11.822 27.628 30.487c8.5396 34.649-39.682 35.824-40.323 65.155-0.6401 29.327-3.7408 54.15 28.027 85.666 25.026-1.7198 40.232-11.506 52.175-23.972l-11.634-40.365z" color="#000000" fill="#fff" fill-rule="evenodd" stroke="#000" stroke-width="1px"/>
<path transform="translate(0 804.33)" d="m116.51 88.509c-3.4372 4.9355 5.9931 10.752 4.9355-2.7322" color="#000000" fill="#fff" fill-rule="evenodd" stroke="#000" stroke-width="1px"/>
<path transform="translate(0 804.33)" d="m130.7 87.892c-4.9061 3.731-9.2242 8.3249-11.722 12.691-2.5166 4.3996-6.0812 9.1806-8.9897 9.4304-2.9125 0.25007-2.4455 1.0759-0.48474 3.3932 1.9389 2.2915 8.7782 0.25025 11.061-6.9185 2.2531-7.076 6.0519-12.28 11.281-17.539" color="#000000" fill="#bd0f18" fill-rule="evenodd" stroke="#000" stroke-width=".99921"/>
<path d="m156.41 851.49c26.612 12.643 11.714 39.396-9.3832 36.806-4.7517 3.4256-5.7806 6.5723-7.303 7.4597-2.2714 1.3239-1.9359 2.4833-1.2672 3.124 0.72632 0.69589 5.019 7.7738 0.4378 13.236-3.1939 3.8083-2.9835 1.2433-2.3673-0.6852 0.87112-2.7264-2.41-7.3837-4.7773-7.093-2.3059 0.28318-3.9937-1.3933-2.8596-3.2851 1.4744-2.4595 1.7999-2.7695 2.9644-4.0326 1.2252-1.329 1.7518-1.988 0.02728-2.8657-2.4429-1.2434-10.148-5.5761-13.147-1.2795-3.0279 4.3376-5.2136 7.2627-6.8153 4.7067-1.6817-2.6837-1.6559-4.1062-1.1743-5.9784 0.48161-1.8722 0.57903-2.0343 1.4866-4.0603-0.90759 2.026-1.005 2.1881-1.4866 4.0603-0.48161 1.8722-2.7976 1.1972-2.944-0.58331-0.13922-1.693 0.44574-3.4895 2.6786-6.1116 2.2635-2.658 7.5053-16.542 16.422-32.396" color="#000000" fill="#fff" fill-rule="evenodd" stroke="#000" stroke-linecap="round" stroke-linejoin="round" stroke-width="1px"/>
<path transform="translate(0 804.33)" d="m136.87 59.953c-3.6135 0.088134-11.898 4.6711-12.956 6.5219-0.15121-1.5614-0.09886-4.153 0.35254-5.0236" color="#000000" fill="none" stroke="#000" stroke-linecap="round" stroke-linejoin="round" stroke-width=".99921"/>
<path transform="translate(0 804.33)" d="m133.04 60.936c0.78526 0.58954 1.2806 1.4511 1.2806 2.4102v-1e-6c0 1.7757-1.6978 3.2169-3.7898 3.2169-1.7917 3e-6 -3.2943-1.0572-3.6887-2.4763" color="#000000" fill="none" stroke="#000" stroke-width=".99921"/>
<path transform="matrix(.38349 0 0 .38349 80.633 842.99)" d="m134.58 62.994a3.7898 3.2169 0 1 1-7.5795 0 3.7898 3.2169 0 1 1 7.5795 0z" color="#000000" fill-rule="evenodd"/>
<path transform="translate(0 804.33)" d="m129 40.505c-3.2406-11.841 2.7421-23.308 2.7421-23.308 4.0398 3.2278 8.2468 10.932 8.3509 17.2" color="#000000" fill="#fff" fill-rule="evenodd" stroke="#000" stroke-linejoin="round" stroke-width="1px"/>
<path transform="translate(0 804.33)" d="m133.08 55.723c-23.663-45.495 121.47-8.5676 44.772 101.88 3.0153 5.1646 4.4392 9.8685-1.0576 15.688 7.6475-2.8278 13.843-8.2754 14.88-18.375 1.4178 1.6077 1.9476 3.5841 2.3734 7.5065 5.9981-5.3523 6.7411-11.694 7.227-18.973 2.5968 1.9405 3.0869 6.1749 2.717 12.73 13.92-11.467-1.975-21.066 1.711-28.19 3.2156 2.5958 5.9326 8.4324 7.4033 13.396 9.4965-18.827-9.8431-21.923-7.0507-29.084 6.4962 3.9367 9.0681 8.4298 11.634 11.898 4.6417-19.36-14.513-21.622-12.868-29.349 4.9649 2.879 10.106 6.7276 13.044 11.281 3.9073-20.388-17.656-22.709-15.688-28.908 6.0225 1.6452 11.164 5.9344 14.807 10.752-0.52881-25.588-15.512-17.862-23.267-26.793 8.0968-1.6078 14.557 2.1049 20.8 6.5219-4.2011-23.062-29.642-17.744-33.491-22.915 7.0214-1.1457 14.219-0.35254 21.152 2.9084-8.3057-18.655-35.742-7.3956-38.779-11.898 4.9943-2.409 14.836-3.8485 23.091-2.3796-13.207-9.1938-35.507-1.7403-42.575-3.5417-6.9853-1.7803-31.111 15.596-10.834 25.84z" color="#000000" fill="#fff" fill-rule="evenodd" stroke="#000" stroke-linejoin="round" stroke-width="1px"/>
<path transform="translate(0 804.33)" d="m140.13 131.52c-33.574 1.772-26.479 38.872-26.264 41.776" color="#000000" fill="#fff" fill-rule="evenodd" stroke="#000" stroke-linecap="round" stroke-width=".99921"/>
<path d="m133.53 968.6c-2.3929 0.77824-5.7405 3.8782-8.7035 7.3215-11.911-1.6738-38.601-13.165-42.152-15.906-3.6065-2.784-5.3709-3.5838-11.301-0.88147-5.8574 2.6691-9.51 3.705-9.5803 9.0771-0.072612 5.5488-1.9222 20.62-3.2009 32.095-1.2776 11.465 2.4285 9.8656 2.2763 11.716-0.15178 1.8454-3.3076 4.0744-0.77525 9.1091 2.4969 4.9643 5.0781 9.4995 7.1695 12.978 1.8344-1.627 2.935-3.7864 1.6525-5.8622-1.018-1.6476-1.8482-3.9458-2.5157-4.7639 0.66754 0.8181 1.4977 3.1163 2.5157 4.7639 1.2825 2.0758 3.7082 5.3491 4.4813 7.3829 1.5062 3.962 2.743 2.0601 3.421 0.6158 0.72406-1.5424 4.0247-4.7309 3.9413-11.364-0.083406-6.7216-8.7522-11.061-11.14-12.32-0.2586-3.2978-2.3858-5.19-1.689-7.1394 3.2862 0.6518 5.5836 2.4977 8.7755 2.6802 0.99886-7.9677-6.8349-14.312-6.1362-24.347 0.46557-6.5987-0.34096-8.5495 3.8355-9.4198 4.2609-0.88787 3.8561-0.04178 9.4872 4.4169 9.5128 7.5323 36.094 33.786 51.811 31.198-1.3805-1.6979-3.1687-3.7974-4.5075-6.4314 4.9488 2.8571 11.357 1.6824 14.89 0.7937" color="#000000" fill="#fff" fill-rule="evenodd" stroke="#000" stroke-linecap="round" stroke-linejoin="round" stroke-width=".99921"/>
<path d="m119.09 847.89c1.034-1.7149 1.0149-2.1945-3.8684-2.1306-4.9456 0.0639-4.6063 0.74158-5.542 2.3176l-2.3682 3.9885c-1.3453 2.2658-0.51931 3.3743 3.3017 3.3074 3.7587-0.06686 5.1332-1.9374 5.9217-3.2451l2.5551-4.2378z" color="#000000" fill="#fff" fill-rule="evenodd" stroke="#000" stroke-width="1px"/>
<path d="m109.68 848.08c1.0224-1.7219-1.1003-2.2826-4.0446-2.4391-2.9002-0.15643-5.0472 1.9604-5.9404 3.5608l-2.3191 4.1554c-1.2842 2.301 0.31796 2.2726 4.139 2.2057 3.7587-0.06686 5.0174-2.1813 5.797-3.4944l2.3682-3.9885z" color="#000000" fill="#fff" fill-rule="evenodd" stroke="#000" stroke-width="1px"/>
<path d="m99.699 849.2c0.48182-0.8633 0.77687-2.406-2.6963-2.4302-3.5172-0.02423-3.8598 0.39896-4.881 1.921l-2.7648 4.1207c-0.9987 1.4885-0.51931 2.7133 3.3017 2.6464 3.7587-0.06686 3.977-0.76903 4.7212-2.1025l2.3191-4.1554z" color="#000000" fill="#fff" fill-rule="evenodd" stroke="#000" stroke-width="1px"/>
<path d="m92.121 848.69c1.1157-1.6629-2.0982-1.7601-4.073-1.9606-1.9709-0.2001-5.0126 0.71085-5.8945 2.3176l-1.9716 3.5919c-1.0431 1.9003 2.0989 2.1404 4.0949 2.2058 2.0401 0.06534 4.2286-0.76583 5.0794-2.0339l2.7648-4.1207z" color="#000000" fill="#fff" fill-rule="evenodd" stroke="#000" stroke-width="1px"/>
<path d="m82.154 849.05c0.43403-0.79073-0.54752-1.533-3.6681-1.5572-3.1212-0.02424-3.7301 0.30617-4.6544 1.8889l-1.3786 2.3606c-0.42581 0.72911 0.74038 2.0366 3.636 2.0138 2.8956-0.02278 3.3588 0.22443 4.0935-1.1142l1.9716-3.5919z" color="#000000" fill="#fff" fill-rule="evenodd" stroke="#000" stroke-width="1px"/>
<path d="m73.831 849.38c0.5699-0.97584-1.306-1.7476-3.5385-1.7491-2.2329-0.00155-3.3032 0.00842-4.3579 1.5074l-1.5989 2.2725c-0.79069 1.1238-0.096893 1.7281 3.7241 1.6613 3.7587-0.06686 3.6225-0.01277 4.3926-1.3314l1.3786-2.3606z" color="#000000" fill="#fff" fill-rule="evenodd" stroke="#000" stroke-width="1px"/>
<path d="m65.935 849.14c0.9397-1.3355-1.2341-1.4098-3.6979-1.6466-2.4724-0.2376-3.8108-0.13753-4.5585 1.5471l-0.41474 0.9344c-0.45575 1.0268-0.89271 2.4007 2.9455 2.3496 3.7756-0.05106 3.4102 0.10629 4.1268-0.91212l1.5989-2.2725z" color="#000000" fill="#fff" fill-rule="evenodd" stroke="#000" stroke-width="1px"/>
<path d="m57.678 849.04c0.63776-1.4369 0.31333-2.6116-2.178-2.7174-2.4898-0.10576-2.8488 0.11145-3.7658 1.4658l-0.57971 0.85621c-0.6053 0.89401-0.71705 1.747 2.3258 2.4007 3.0341 0.65185 3.2966 0.02481 3.7829-1.0709l0.41474-0.9344z" color="#000000" fill="#fff" fill-rule="evenodd" stroke="#000" stroke-width="1px"/>
<path d="m51.735 847.78c0.71581-1.0572 0.044942-2.1894-2.0594-2.367-2.1117-0.17824-3.3237-0.83199-4.0914 0.59926l-0.36428 0.6791c-0.4158 0.77515 0.38233 1.6135 2.4708 2.4565 2.0735 0.83699 2.9188 0.29452 3.4646-0.51167l0.57971-0.85621z" color="#000000" fill="#fff" fill-rule="evenodd" stroke="#000" stroke-width="1px"/>
<path d="m45.584 846.02c0.6192-1.1544-0.2308-2.1332-2.0707-2.4871-1.8486-0.35556-3.0595-1.1896-3.8711 0.15859l-0.27614 0.45876c-0.76951 1.2784 0.45525 1.8018 2.0741 2.809 1.6383 1.0193 3.3193 0.59779 3.7795-0.26017l0.36428-0.6791z" color="#000000" fill="#fff" fill-rule="evenodd" stroke="#000" stroke-width="1px"/>
<path d="m39.642 843.69c0.65844-1.0939-1.1564-2.438-3.8681-2.659-2.7157-0.22123-3.8108 0.69203-1.8968 2.501 1.9359 1.8296 4.6515 2.0077 5.4887 0.61674l0.27614-0.45876z" color="#000000" fill="#fff" fill-rule="evenodd" stroke="#000" stroke-width="1px"/>
<path d="m137.9 847.3c-1.7851-12.584 8.889-22.802 18.192-29.282 0.02946 2.5474 0.14361 4.8851-1.6166 7.7213 1.6625-0.21055 2.8445-0.54143 3.8951-0.32557-0.36676 1.405-2.0918 4.8454-4.1992 8.735 0.84108 0.15782 1.8307-0.06693 2.795-0.01409-2.7303 5.8228-7.0366 11.781-8.6879 13.393" color="#000000" fill="#fff" fill-rule="evenodd" stroke="#000" stroke-linecap="round" stroke-linejoin="round" stroke-width="1px"/>
<path transform="translate(0 804.33)" d="m144.63 44.971c-2.1152-7.6677 0.52881-17.362 1.0576-18.684" color="#000000" fill="none" stroke="#000" stroke-linecap="round" stroke-width=".99921"/>
</g>
</svg>
