<?xml version="1.0" encoding="UTF-8"?>
<svg width="169.33mm" height="191.91mm" version="1.1" viewBox="0 0 600 680" xmlns="http://www.w3.org/2000/svg" xmlns:cc="http://creativecommons.org/ns#" xmlns:dc="http://purl.org/dc/elements/1.1/" xmlns:rdf="http://www.w3.org/1999/02/22-rdf-syntax-ns#">
<metadata>
<rdf:RDF>
<cc:Work rdf:about="">
<dc:format>image/svg+xml</dc:format>
<dc:type rdf:resource="http://purl.org/dc/dcmitype/StillImage"/>
<dc:title/>
</cc:Work>
</rdf:RDF>
</metadata>
<g transform="translate(145.29 -42.416)">
<path d="m-122.36 370.24c0.19015 37.266 0.93524 74.677 5.4408 111.7 12.631 77.698 60.773 148.82 128.74 189.21 36.55 22.007 78.396 35.278 120.95 38.647 42.68 2.4918 86.101-3.3052 125.68-19.788 71.393-28.768 128.59-89.176 154.32-161.29 19.604-51.237 14.421-107.1 19.011-160.62h-554.13c6.9e-4 0.71143 1e-3 1.4229 2e-3 2.1343z" fill="#47a22b"/>
<path d="m-39.147 462.44c-25.207-0.15256-45.493 16.761-66.65 27.666-4.7325 1.6642-10.128 5.5166-8.1408 11.265 7.02 26.678 17.993 52.323 31.321 76.466 1.582 4.5607 6.9162 4.8612 10.268 2.0427 13.663-7.1354 27.587-17.599 43.887-15.386 26.123-0.39736 47.791 15.651 70.928 25.225 16.471 8.9677 36.651 5.4233 52.567-2.9631 19.565-8.0536 38.052-21.241 59.494-22.496 18.836 0.10214 34.851 11.899 51.514 19.105 16.599 8.2364 35.934 15.638 54.498 9.4236 27.045-7.8422 49.787-29.706 79.214-28.66 16.844 0.85866 31.18 10.417 46.158 16.87 4.7408-1.2551 5.4576-8.077 8.2083-11.686 11.206-21.389 20.621-43.727 26.306-67.228 0.75877-3.4138 3.3223-8.9912-1.9422-10.111-20.781-9.7461-40.58-22.377-62.937-28.329-20.068-4.9244-38.718 7.2219-55.984 15.456-16.121 8.048-33.034 17.458-51.65 16.196-16.248 1.6238-31.185-5.7057-45.216-12.798-15.773-6.985-30.804-17.118-48.15-19.86-16.121-0.96349-30.315 8.5632-44.611 14.534-19.949 9.0577-40.987 22.782-63.958 17.809-28.17-6.0511-50.467-28.013-79.243-32.302-1.9533-0.19719-3.9181-0.27494-5.8812-0.23945z" fill="#fff"/>
<path d="m-133.38 55.762c3.9193 98.492 6.6116 197.03 9.324 295.56-0.15158 6.6085-1.9138 14.819 7.5011 11.91 174.28-0.24067 348.57 0.56379 522.85-0.63335 7.9556-0.55177 16.249 0.51872 24.032-1.2927 2.3698-5.7584 0.64099-13.026 1.5423-19.35 3.6453-96.143 6.8131-192.31 11.032-288.43-192.13-1e-6 -384.26 0-576.38 0 0.0342 0.74336 0.0683 1.4867 0.10256 2.2301z" fill="#ffdc02"/>
<path d="m447.96 48.916h-586.55l12.761 408.51c10.564 145.67 132.43 258.49 279.24 258.49 146.8 0 268.67-112.81 279.24-258.49z" fill="none" stroke="#000" stroke-width="13"/>
<g transform="matrix(1.0716 0 0 1.0661 -844.92 13.561)" fill="none" stroke="#000" stroke-width="8.4263">
<path d="m677.06 450.47c37.641-17.154 44.286-31.301 75.078-31.961 30.792-0.65994 59.47 32.123 88.949 31.961s62.151-32.076 88.949-31.961 55.996 31.847 88.949 31.961c32.953 0.11486 62.899-30.856 88.949-31.961s51.89 20.401 80.868 31.961"/>
<path d="m714.21 538.27c12.059-7.6904 30.218-18.445 39.86-19.418 39.122-3.9464 65.259 29.47 94.738 29.308 29.479-0.16191 57.809-29.422 84.607-29.308s53.584 30.64 85.572 29.308c31.988-1.3325 58.755-33.971 89.914-29.308 16.709 2.5004 34.559 14.129 45.167 20.865" fill="none" stroke="#000" stroke-width="8.4263"/>
</g>
<path d="m-128.68 365.37h566.78" fill="none" stroke="#000" stroke-width="9.0063"/>
<path d="m-89.74 344.75c-0.52079-1.9333-0.40056-15.382 0.22085-24.718 0.82373-12.374 3.1409-29.883 3.9549-29.883 0.25482 0 2.1822 1.2963 4.2828 2.8807 5.2051 3.926 12.62 7.3574 20.557 9.5136 5.2092 1.4151 6.7274 1.6479 7.077 1.0854 0.24464-0.39394 1.3755-4.9632 2.513-10.154 4.5921-20.956 8.5448-32.582 16.607-48.848 3.0453-6.1442 7.9578-15.294 10.917-20.333 2.9588-5.039 5.3797-9.5988 5.3797-10.133 0-1.9364-12.942-6.7244-26.387-9.7617-3.551-0.80225-6.654-1.6511-6.8953-1.8864-0.7365-0.71779 10.986-16.903 19.864-27.427 7.5197-8.9134 23.351-24.18 33.069-31.889 10.821-8.5842 11.706-9.2023 12.278-8.5746 0.26393 0.28973 1.0219 2.7239 1.6843 5.4094 1.6041 6.5024 3.8907 12.125 8.3085 20.432 2.5075 4.7144 3.9019 6.7899 4.4269 6.5894 0.42167-0.16097 4.7561-2.918 9.6321-6.1267 26.06-17.149 42.812-23.858 79.821-31.966 1.2365-0.27092 1.3142-0.49194 1.0254-2.917-0.74165-6.2277-5.7392-18.952-10.413-26.512-1.2853-2.0791-2.3369-4.1241-2.3369-4.5445 0-0.53256 1.9154-1.1169 6.3161-1.9271 21.53-3.9635 42.599-4.7949 65.333-2.5781 9.1214 0.88942 22.739 2.9646 23.821 3.6302 0.55638 0.34207 0.0396 1.4551-2.1107 4.5504-2.8143 4.0503-5.3707 8.7012-7.1528 13.014-1.0949 2.6496-4.2358 14.133-4.237 15.492-1e-3 1.0785-0.11477 1.042 13.754 4.4075 28.247 6.8545 48.615 16.016 72.358 32.545 4.6534 3.2396 5.628 3.7169 6.2722 3.0721 1.8948-1.8965 7.1305-13.576 13.989-31.205 0.42745-1.0988 1.1267-1.925 1.5966-1.8866 1.1066 0.0906 12.651 8.8717 20.35 15.479 7.8584 6.7441 20.549 19.654 26.72 27.182 5.2452 6.3985 13.728 17.972 15.594 21.274l1.1739 2.0781-6.6024 2.0613c-12.169 3.7992-27.656 10.837-27.656 12.568 0 0.53001 1.9797 4.2031 4.3993 8.1625 15.728 25.737 23.529 45.005 28.748 71.008 0.98875 4.926 1.9994 9.2812 2.246 9.6782 0.35759 0.57562 1.3902 0.46497 5.0998-0.54647 8.8061-2.401 18.343-6.7781 25.94-11.905 1.7993-1.2144 3.412-2.0682 3.5837-1.8974 0.40742 0.40536 1.5527 7.6626 2.6997 17.105 0.95884 7.8949 1.8161 35.671 1.1787 38.197l-0.36928 1.4639-218.09-0.2821-0.5615-30.721h-25.826-25.826l-0.28075 15.36-0.28065 15.36-217.42 0.2821zm181.96-31.596c0.51286-0.32412 0.73093-4.1907 0.84205-14.933l0.15013-14.496 17.124-0.29986c9.418-0.16493 17.187-0.35343 17.264-0.41891 0.74957-0.63576-0.3727-70.742-1.5443-96.471-0.63737-13.998-0.76747-15.105-1.8212-15.508-0.95467-0.36449-7.5624 1.3653-16.456 4.3078-50.148 16.592-86.8 53.45-103.82 104.4-3.2059 9.598-6.445 23.224-6.6365 27.918l-0.11605 2.8428 2.8026 0.41138c7.6698 1.1258 29.422 1.7856 85.623 2.5973 3.2423 0.0468 6.2064-0.11167 6.5871-0.35221zm161.28-0.39412c24.082-0.46805 54.076-1.4081 55.16-1.7289 1.3461-0.39818 1.2647-2.2197-0.46344-10.362-9.6369-45.41-34.177-83.162-69.274-106.57-14.244-9.4994-32.048-17.428-48.393-21.55-7.2286-1.823-7.648-1.7999-8.023 0.44158-1.244 7.4325-2.5352 49.498-2.5458 82.938l-0.0107 26.942 34.528 0.29541 0.14264 14.523c0.0783 7.9874 0.26938 14.861 0.42413 15.274 0.22877 0.61115 2.4086 0.6905 11.647 0.42393 6.2513-0.18033 18.314-0.46294 26.805-0.62798z" fill="#1d1b1b"/>
</g>
</svg>
