<?xml version="1.0" encoding="UTF-8"?>
<svg viewBox="0 0 410 496" xmlns="http://www.w3.org/2000/svg">
<path d="m204.9 3h201.8v296.6c0 106.6-90.3 193-201.7 193s-201.7-86.4-201.7-193v-296.6z" fill="#fff" stroke="#000" stroke-width="6"/>
<path d="m140.9 65.3c-1.38 2.33-2.02 5.21-.93 7.79 1.31 4.3 4.93 7.75 9.31 8.79 4.09 1.33 8.44.7 12.65.58 7.1-.4 14-2.05 20.49-4.98 2.09-.83 4.36-1.56 6.62-1.42 2.92 1.17-1.42 2.75-2.58 3.39-4.26 1.96-8.71 3.48-13 5.3-7.33 2.63-15.18 3.61-22.94 3.69-5.38-.17-11.19-1.1-15.36-4.79-2.26-2.38-3.61-5.53-4.34-8.69-.79-4.26 1.34-9 5.46-10.72 1.36-.6 2.8-.97 4.17-1.55"/>
<path d="m163.9 91.7c-1.67-.6-.21-3.1-.5-4.46.52-2.45 3.18-.8 3.19 1 .06 2.19 3.08 2.82 4.2 1.08.93-1.65.58-3.93 2.11-5.24 1.84-1.04 2.31 1.71 2.94 2.88.56 1.29 2.25 4.09 3.7 2.18 1.31-2.23 1.57-4.9 2.68-7.2 1.52.28 1.9 2.36 2.98 3.35 1.51.89 3.57-.13 4.99-.92 1.54-1.03 3.61-2.85 2.41-4.89-1.48-2.93-4.52-4.79-7.58-5.71-1.81-.61-3.76.81-4.33 2.5-.99.82-2.86.13-3.13 2-1.54 1.19-2.11-1.97-3-2.81-.42-1.16-2.28-2.88-2.71-.76-.76 1.81-.67 3.99-1.89 5.58-1.73.94-3.25-1-4.14-2.27-.78-1.3-1.14-2.81-1.74-4.17-1.35.28-1.42 2.46-1.9 3.61-.5 1.51.12 3.08.96 4.31.34 2.51-2.99 1.7-3.82.24-1.51-1.75-2.31-4.07-2.13-6.38.23-1.64-.87-3.82.67-5 2.03-.52 2.26 2.15 2 3.54-.07 1.57.12 3.18.26 4.71 1.32-2.59 1.48-5.63 2.77-8.24.45-1.63 3.11-3.6 3.82-1.09.46 2.03.2 4.16.64 6.19.06 1.25 2 2.87 1.77.64.63-2.85.85-5.99 2.68-8.39.93-1.82 3.54-1.59 4.19.31.41 1.52.76 4.35 3.06 3.47 3.26-1.72 6.99-2.21 10.59-2.74 2.42-.52 5.11.22 6.7 2.19 2.52 2.93 2.39 7.15 1.45 10.67-.86 3.1-2.23 6.39-5 8.2-1.99.97-4.53 1.66-6.61.56-1.45-1.37-2.02-3.45-3.1-5.11-1.3.64-.63 3.21-1.73 4.4-.72 1.7-3.23 2.42-4.43.8-.92-.86-2.63-3.44-3.49-1.12-.87 1.31-2 3-3.77 2.95-1.72.12-2.46-2.09-4.12-1.98-.41.51-.91.97-1.58 1.08z"/>
<path d="m202.6 47.2c1.62.82 2.93 2.15 3.93 3.66 1.06 1.5 2.2 2.96 3.21 4.49.55.94-.58 1.59-1.4 1.41-2.5-.001-5-.06-7.48.55-1.63.35-3.24.78-4.88 1.08-1.49.13-2.98-.34-4.15-1.25-1.39-.97-2.96-1.77-3.95-3.21-1.11-1.43-1.45-3.27-2.43-4.78-.4-.9-1.59-1.65-1.07-2.76.65-1.44 2.26-2.07 3.67-2.51.99-.32 2.31-.38 2.94.62.55.89.23 1.97.26 2.96-.13 1.54.26 3.19 1.32 4.34.96.85 2.42.46 3.24-.39 1.2-1.1 2.03-2.55 2.51-4.1.45-1.1 1.89-1.42 2.84-.78.47.23.95.45 1.42.68zm-68 64.3c-.41 1.18-2.96-.15-5.65-2.96-2.7-2.81-4.95-10-5-15.98l-.1-10.15c-.06-5.98-1.47-12-3.13-13.45-1.66-1.42-4.23-2.17-5.71-1.67s-2.11 2.81-1.4 5.12.15 5.73-1.24 7.59c-1.39 1.87-2.75 4.82-3 6.57-.27 1.75.48 4.82 1.67 6.84 1.18 2 2 4.73 1.83 6-.18 1.3-1.8-.59-3.61-4.2s-2.9-8.14-2.42-10.1c.47-1.92 1.66-5.15 2.64-7.16.98-2-1.29-7.47-5-12.1l-1.22-1.51c-3.75-4.65-8.62-8.82-10.81-9.26s-5.17.02-6.62 1.02-.46 3.38 2.21 5.28 5.14 5.22 5.49 7.38c.36 2.16 1.37 4.59 2.26 5.39s-.08 6-2.16 11.64l-1.51 4.07c-2.07 5.6-3.65 13.53-3.5 17.62s1.82 10.22 3.72 13.62c1.9 3.41 4.17 8.3 5.06 10.88s2.54 5.75 3.66 7.1c1.13 1.3 4.64 2.54 7.81 2.75s6.61 4.21 7.65 8.88c1.04 4.68 3.12 10.98 4.63 14 1.51 3 3.04 3.55 3.39 1.18.36-2.37 2.08-1.79 3.82 1.29 1.75 3.08 3.35 4.22 3.55 2.53.21-1.69 1.16-1.11 2.12 1.28s2.15 5.35 2.64 6.57 2.64 3.07 4.77 4.11 4 .65 4.2-.86c.18-1.51 1.66-.95 3.28 1.24 1.63 2.19 7.71 2.84 13.52 1.43l7.42-1.79c5.81-1.4 14.37-4.25 19-6.32 4.65-2.07 11.6-6.8 15.46-10.5 3.85-3.7 8.33-7.58 9.96-8.62s-.45 1.61-4.63 5.89l-6.47 6.63c-4.17 4.28-12.29 9.12-18 10.76l-4.3 1.23c-5.75 1.64-15 4.69-20.63 6.77l-5.16 1.92c-5.6 2.09-14.3 3.96-19.34 4.17s-10.97-.71-13.19-2.05-4.96-6.79-6.09-12.1c-1.13-5.33-3.14-11.12-4.47-12.87s-3.81-5.14-5.49-7.54c-1.69-2.4-5.4-4.39-8.24-4.41-2.84-.03-5.75.82-6.46 1.88-.71 1.07 1.32 3.13 4.52 4.58s5.79 3.85 5.76 5.33.63 3.93 1.45 5.44c.83 1.51.25 1.68-1.29.38s-5.71-3.56-9.26-5c-3.55-1.45-7.92-3.78-9.69-5.17-1.78-1.39-4.71-1.68-6.52-.65-1.81 1.04-2.34 2.73-1.18 3.77s3.77 2.68 5.82 3.66c2.04.98 5.41 3.21 7.48 4.95 2.07 1.75 4.38 4.22 5.12 5.49s-.96 1.57-3.77.65-6.1-1.77-7.22-1.88c-1.15-.12-3.82-1.52-5.92-3.12s-5.88-2.16-8.4-1.24-4.99 2.45-5.49 3.39c-.5.95 1.1 2.3 3.55 3s5.95 2.77 7.75 4.58 4.12 3.3 5.14 3.31c1.02.001 2.86.04 4.09.05s-.98-.12-4.92-.29c-3.94-.18-9.13.62-11.53 1.78s-4.58 3-4.85 4.09 1.31 1.9 3.5 1.78 6.82.54 10.28 1.45c3.46.92 7.63 1.79 9.26 1.94s.95.8-1.51 1.45-6.31 1.21-8.56 1.24-5.09.83-6.3 1.78-1.65 3.06-.97 4.69 2.21 2.45 3.39 1.83 5.57-.09 9.75 1.18 9.36 2.36 11.53 2.42c2.16.06 7 3.9 10.8 8.53l1.55 1.9c3.78 4.63 8.23 10.11 9.89 12.19 1.66 2.07 4.57 3.07 6.46 2.21s4.68-1.63 6.19-1.72 4.13.18 5.82.59 2.75 1.63 2.37 2.69 1.04 2.06 3.18 2.21c2.13.15 5.67-.85 7.86-2.21s5.1-2.65 6.46-2.85c1.36-.21 1.53.98.38 2.64s-.26 2.6 1.99 2.1 5.76-1.81 7.81-2.91c2.04-1.1 3.4-1.14 3-.11-.39 1.04 1.26 1.47 3.66.97s7.88-2.2 12.17-3.77 12.27-3.17 17.72-3.55c5.45-.39 12.65-3.15 15.99-6.14 3.35-2.99 9.36-6 13.35-6.73 4-.71 6.2-.25 4.9 1.02s-5.83 4.4-10.1 6.95c-4.24 2.55-11.2 5.19-15.47 5.87s-8.95 1.6-10.39 2.05c-1.44.44-3.09 2.41-3.65 4.36-.56 1.96-5.12 6.22-10.14 9.47l-6.98 4.53c-5 3.26-12.35 9.58-16.31 14.1l-10.27 11.62c-3.96 4.48-9.45 12.48-12.2 17.79l-.66 1.28c-2.75 5.31-3.91 9.33-2.58 8.95s.34 3.72-2.21 9.13l-.33.69c-2.55 5.41-3.51 9.54-2.15 9.18s1.7 1.2.75 3.45-2.11 7.44-2.58 11.52c-.47 4.09.001 6.66 1.08 5.71 1.07-.95 1.67.97 1.35 4.25-.33 3.29.16 10.65 1.08 16.37s2.28 11.97 3 13.89c.74 1.93-2.36.64-6.89-2.85s-9.18-8.63-10.34-11.42c-1.15-2.78-4.94-5.84-8.4-6.79s-7.15-.9-8.19.11c-1.04 1-.5 2.63 1.18 3.61 1.69.98 3.67 4.42 4.42 7.65.74 3.23 2.9 7.66 4.79 9.85s1.97 3.45.16 2.8-5.8-3.27-8.89-5.82c-3.08-2.55-7.22-4.58-9.21-4.52-1.98.06-5.93-.62-8.78-1.51-2.84-.89-6.28-.57-7.65.7-1.36 1.27-2.6 3.41-2.75 4.74s.55 1.65 1.56.7c1-.95 4.23.24 7.16 2.64s8.12 4.75 11.52 5.22c3.41.47 7.36 4.96 8.78 9.96s4.38 12.2 6.57 15.99 8.61 8.48 14.26 10.42l.13.05c5.65 1.94 11.66 3.05 13.35 2.46s5.56.3 8.62 1.99c3.05 1.69 9.18 3.12 13.62 3.18s9.22-2.8 10.61-6.35 2.29-9.27 1.99-12.71.82-8.65 2.48-11.58 4.52-8.89 6.35-13.25c1.84-4.35 3.22-5.78 3.07-3.18-.15 2.61 2.05.43 4.88-4.83l1.65-3.06c2.84-5.26 6-13.71 7.09-18.77 1.07-5.07 2.76-10.59 3.77-12.28 1-1.69 1.93-1.74 2.05-.11s2.47.25 5.22-3.07 5.06-5.18 5.12-4.15c.06 1.04 2.85-1.63 6.19-5.92 3.35-4.3 7.47-10.1 9.15-12.82 1.69-2.75 3.97-5.56 5.06-6.25 1.1-.68 3.3 3.47 4.9 9.23l.76 2.75c1.6 5.76 5.18 13.23 7.97 16.61 2.78 3.38 4.92 4.42 4.74 2.32s2.55.13 6.1 4.97l2.32 3.2c3.51 4.84 6.14 7.39 5.84 5.67s2.44.75 6.08 5.49l.33.43c3.64 4.74 7.08 7.6 7.64 6.35.56-1.24 3.35.23 6.19 3.28s8.1 7.12 11.68 9c3.58 1.92 3.49 3.55-.22 3.61-3.7.06-8.26.45-10.12.86-1.87.42-6.62.44-10.56.05-3.94-.38-8.11 1.36-9.26 3.88s-.79 4.31.81 3.99c1.6-.33 4.82-.35 7.16-.05s7 .42 10.45.27c3.41-.15 7.7-.85 9.53-1.56s-1.43-.22-7.26 1.09l-6.58 1.48c-5.83 1.31-12.1 2.94-13.89 3.62-1.81.68-5.34 1.43-7.86 1.67s-6 2.59-7.81 5.22c-1.78 2.64-2.48 6.34-1.56 8.24s3.29 1.65 5.28-.54 5.74-3.94 8.35-3.88 6.29-.42 8.19-1.08c1.89-.65 1.48 0-.92 1.45s-6.25 3.95-8.56 5.55-5 4.29-6 5.98-1.4 4.98-.86 7.32c.53 2.34 2.23 2.22 3.77-.27s4.91-5.42 7.48-6.52c2.58-1.1 6.12-2.94 7.86-4.09 1.75-1.16 4.24-2.51 5.55-3 1.3-.5-.37 1.34-3.71 4.09-3.35 2.76-8 6.9-10.45 9.21-2.4 2.31-3.71 5.8-2.91 7.75s2.74 4.64 4.31 5.98c1.57 1.33 3.31.1 3.88-2.75.56-2.84 3.03-5.87 5.49-6.73s6.89-3.69 9.85-6.3 2.65-1.2-.7 3.12-6.09 10.19-6.09 13 1.6 5.36 3.55 5.6 3.65-1.17 3.77-3.12 2.23-4.5 4.69-5.65c2.46-1.16 6.31-4.62 8.56-7.7s6.81-6.64 10.12-7.92c3.32-1.27 9.55-5.71 13.86-9.85l2.12-2.04c4.3-4.15 10.6-11.56 13.99-16.49l2.74-3.97c3.39-4.92 6.61-10.91 7.14-13.31s0-5.98-1.18-7.97c-1.18-1.98-5.38-6.76-9.32-10.61s-7.84-11.84-8.67-17.76l-1.39-9.93c-.83-5.92-2.33-13.55-3.34-16.95-1-3.4-.38-5.3 1.4-4.2s3.16.27 3.07-1.83-1.49-5.57-3.12-7.7-1.24-3.39.86-2.8 3.39-.76 2.85-3c-.53-2.25-2.04-5.55-3.34-7.32-1.3-1.78-1.35-3.23-.11-3.23s.001-4.07-2.75-9c-2.75-4.98-6.95-12.85-9.32-17.5s-5.33-9.84-6.57-11.52c-1.24-1.69-.18-3.75 2.37-4.58s5.65-3.69 6.89-6.35c1.24-2.67-1.03-5.48-5.06-6.25-4-.77-9.48-3.92-12.1-7-2.64-3.08-5.54-7.39-6.46-9.59-.92-2.19-.87-4.13.11-4.31s1.56-1.7 1.29-3.39-1.16-4.62-1.99-6.52-.59-3.25.54-3c1.13.24 1.42-1.73.65-4.36-.77-2.64-1.69-6-2.05-7.48s.03-2.57.86-2.42.85-1.91.06-4.58c-.8-2.67-1.55-5.72-1.67-6.79s.51-1.5 1.4-.97 1.06-2.11.38-5.87-.44-6.16.54-5.33 1.63-2.61 1.45-7.65c-.18-5-1.46-12.26-2.85-16-1.39-3.79-5.34-10.87-8.78-15.72-3.44-4.86-8.89-11.86-12.1-15.56-3.23-3.7-6.14-10.1-6.46-14.1-.33-4.06-1.37-10-2.31-13.25-.95-3.23-2.91-6.62-4.36-7.54s-2.81-4.58-3-8.13c-.21-3.55-1.4-7.72-2.64-9.26s-1.7-4.81-1.02-7.27.61-7.09-.16-10.29-2.81-6.83-4.52-8.1c-1.72-1.24-5.69-2.24-8.83-2.21s-7.38 1.14-9.42 2.48c-2.04 1.33-4.64 2.64-5.76 2.91-1.13.27-4.71-.65-7.97-2.05s-8.61-2.31-11.9-2.05c-3.29.27-9.3 1.53-13.35 2.8-4.06 1.27-10.43 4.76-14.16 7.75s-8.53 6.97-10.66 8.83c-2.13 1.87-6.93 3.83-10.66 4.36s-7.71 2.21-8.83 3.72c-1.13 1.51-1.85 4.25-1.61 6.08.24 1.84 1.04 3.65 1.78 4 .74.39 1.52 2.71 1.72 5.17.21 2.46 1.03 5.15 1.83 5.98s5.69 2 10.88 2.64 11.82 1.06 14.75.97 7 .66 9.1 1.67c2.07 1 2.65 3.24 1.29 4.95-1.36 1.72-3.83 3.85-5.49 4.74s-4.95 1.59-7.32 1.56-6.71.7-9.64 1.61c-2.93.92-5.35 3.22-5.38 5.12s.79 4.63 1.83 6.09c1.04 1.45 5.37 2.25 9.64 1.78s8.72-1.03 9.91-1.24c1.18-.21 2.45 1.97 2.8 4.85.36 2.87.99 7.4 1.4 10.1.41 2.67-.63 6.74-2.32 9-1.69 2.31-4.84 3.21-7 1.99-2.16-1.21-3.98-.97-4 .54-.06 1.51-2 .78-4.31-1.61s-4.15-3.46-4.09-2.37c.06 1.1-1.78.18-4.09-2.05-2.31-2.22-4.3-2.8-4.41-1.29-.12 1.51-1.98.74-4.15-1.72-2.16-2.46-3.86-3.6-3.77-2.53s-.64 1.01-1.63-.12c-.98-1.13-2.27-2.61-2.85-3.28-.59-.67-2.84-2.03-5-3-2.16-.98-4.27-.81-4.68.37zm-39 315.4c1.42 2.28 3.12 2.55 3.77.59s3.24-4.33 5.76-5.28 3.53-3.4 2.26-5.44-4.21-3.09-6.52-2.32-5 2.95-6 4.85-.67 5.31.75 7.59zm-9.1-8.83c.44-.8 1.68-2.28 2.75-3.28s4.4-2.15 7.41-2.54c3-.39 6.33-1.99 7.38-3.55 1.05-1.57.06-3.65-2.19-4.62-2.25-.98-6.59-1.24-9.64-.59s-6.32 2.91-7.27 5c-.95 2.1-1.17 5.45-.48 7.43.68 1.98 1.6 2.95 2.05 2.15zm-.43-29.78c-1.81.18-4.74 1.12-6.52 2.1s-3.3 4.42-3.39 7.65.35 6 .97 6.19c.62.18 1.95-1.13 2.96-2.91 1-1.78 3.45-3.16 5.44-3.07 1.98.09 4.81.87 6.27 1.74s4.32 1.57 6.35 1.56c2.03-.001 3.41-1.73 3.07-3.83s-1.32-4.51-2.16-5.35-3.37-2.18-5.62-2.97-5.57-1.29-7.37-1.11zm-3.61-285.4c1.3-.53 2.13-2.06 1.83-3.39s-1.75-3.61-3.23-5.06-3.88-3.58-5.33-4.74c-1.45-1.15-4.09-1.74-5.87-1.29-1.78.44-3.59 2.29-4 4.09-.44 1.81.64 3.44 2.42 3.62 1.77.19 4.26 1.2 5.52 2.25 1.27 1.05 3.21 2.72 4.31 3.7 1.11.98 3.08 1.35 4.38.82zm4.95-10.99 1.61-3.88m-2.42-4c-1.33-1.36-4.58-4-7.22-5.91-2.64-1.89-6.49-2.65-8.56-1.67s-3.91 2.55-4.09 3.5.99 1.77 2.59 1.83 4.1.96 5.55 1.99c1.45 1.04 4.5 4.11 6.78 6.84s4.87 2.91 5.76.42c.89-2.5.53-5.65-.81-7zm4.45-1.48c.66-.9 1.52-2.97 1.92-4.6.39-1.63-.11-3.86-1.13-4.95s-3.2-3.76-4.86-5.92-5.1-3.74-7.54-3.5c-2.49.24-5.13 1.25-5.87 2.26-.74 1 .21 1.58 2.1 1.27 1.9-.31 4.49.48 5.75 1.74 1.27 1.26 2.43 3.45 2.58 4.86s1.02 3.65 1.92 4.98 2.15 3.11 2.79 3.95c.63.84 1.69.8 2.35-.1zm136-57.96c.91.04 1.94-.12 2.56-.86.9-.88 1.87-1.68 2.71-2.61.64-.77.8-2.07-.04-2.76-1.19-.86-2.65-1.25-4-1.65-1.73-.48-3.55-.67-5.33-.43-1.67.19-3.35.63-4.78 1.55-1.07.67-2.2 1.3-3.06 2.23-.04.71.89.99 1.41 1.33 2.45 1.22 5.13 1.85 7.75 2.58.94.23 1.88.5 2.84.61z" stroke="#000" stroke-width=".8"/>
<path d="m228.8 271.4c-2.8-2.55-5.08-5.59-7.57-8.43-1.49-1.7-2.87-3.49-4.44-5.11-1.26-1.04-2.67-2.34-4.42-2.28-1.55.36-.69 2.41-.28 3.4 1.55 3.14 3 6.33 5 9.21 1.93 2.86 3.64 5.87 5.86 8.52 1.6 1.77 3.17 3.57 4.85 5.27 1.39 1.3 3.04 2.28 4.73 3.12 1.05.43 1.84-.68 1.74-1.64.13-1.64.35-3.28.43-4.92-.06-1.57-1-2.91-2.22-3.84l-3.72-3.3zm-65.81-199.2c6.6.12 13.2.12 19.8.26 3.04.21 5.9 1.33 8.82 2.09 3 .97 5.42 4.32 4.56 7.54-.46 1.97-.57 4.16-2.05 5.71-2.14 2.13-5.18 2.82-7.92 3.85-2.59.98-5.26 1.73-8 2.05-3.58.51-7.14 1.09-10.69 1.78-.95.28-4.07-.36-2.45-1.56 1.99-.58 4.08-.82 6.11-1.29 5.19-1.14 10.4-2.25 15.54-3.63 2.9-.87 5.74-2.64 7.1-5.46.71-1.54.87-3.43-.12-4.89-1.3-2.31-3.96-3.42-6.5-3.66-4.75-.8-9.57-.97-14.36-1.35-3.32-.26-6.66-.09-9.98-.39-.87-.23-2.73-.21-2.95-.99 1.03-.16 2.09-.03 3.13-.05zm-27.6-3.63c1.56-1.26.79 1.97.54 2.73-.73 3.15.47 6.52 2.92 8.59 2.22 1.89 4.68 3.73 7.65 4.15 3.19.62 6.4 1.25 9.66 1.31-3.92-.06-8 .51-11.72-1.09-2.39-1.07-5.24-1.56-6.9-3.78-1.74-2.5-4.08-5.21-3.67-8.48.19-1.25.74-2.44 1.52-3.42z" fill="#f00000"/>
<path d="m192.2 107.2c-1.5-.26-2.68 1-2.39 2.49.08 1.47-.32 3.18.69 4.43 1.06.4 2.76 1.31 1.4 2.53-1.05.53-1.24 2.29.26 2.2 1.63-.24 1.59-2.21 1.54-3.48-.001-1.47-.11-2.94-.21-4.41-.4-.73-2.2-.49-1.54-1.83.16-.64 2.48-1.53.25-1.93zm6.8-.77c-1.5-.26-2.68 1-2.39 2.49.08 1.47-.32 3.19.69 4.43 1.06.4 2.76 1.31 1.4 2.53-1.05.53-1.24 2.29.26 2.19 1.63-.24 1.58-2.21 1.54-3.47-.001-1.47-.11-2.94-.21-4.41-.4-.73-2.2-.49-1.54-1.83.16-.64 2.47-1.53.25-1.93zm6.99-.32c-1.5-.26-2.68 1-2.39 2.49.08 1.47-.32 3.19.69 4.43 1.06.4 2.76 1.31 1.4 2.53-1.05.53-1.24 2.29.26 2.2 1.63-.24 1.58-2.21 1.53-3.47-.001-1.47-.11-2.94-.21-4.41-.4-.73-2.2-.49-1.54-1.83.16-.64 2.47-1.53.25-1.93zm55.2-25.79c-1.96-.34-2.74 1.65-2.4 3.29.02 1.42-.22 3.59 1.53 4.06 2.1.54.35 2.37-.34 3.29.59 2.31 3.33.1 2.7-1.57 0-1.84-.001-3.71-.28-5.52-1.13-.14-2.31-1.33-.93-2.24.89-.36.78-1.4-.28-1.31zm-4.7 4.67c-1.96-.33-2.74 1.65-2.4 3.29.02 1.42-.22 3.59 1.53 4.06 2.1.54.35 2.37-.34 3.29.6 2.31 3.33.1 2.7-1.57 0-1.84-.001-3.71-.28-5.52-1.13-.14-2.31-1.33-.93-2.24.89-.36.78-1.4-.28-1.31zm-5.34 4.14c-1.96-.33-2.74 1.65-2.4 3.29.02 1.42-.22 3.59 1.53 4.06 2.1.54.35 2.37-.34 3.29.59 2.31 3.33.1 2.7-1.57 0-1.84-.001-3.71-.28-5.52-1.13-.14-2.31-1.33-.93-2.24.89-.36.78-1.4-.28-1.31zm-6.75 4.24c-1.96-.34-2.74 1.65-2.4 3.29.02 1.42-.22 3.59 1.53 4.06 2.1.54.35 2.37-.34 3.29.6 2.31 3.33.1 2.7-1.57 0-1.84-.001-3.71-.28-5.52-1.13-.14-2.31-1.33-.93-2.24.89-.36.78-1.4-.28-1.31zm-7.41 3.73c-1.96-.33-2.74 1.65-2.4 3.29.02 1.42-.22 3.59 1.53 4.06 2.1.54.35 2.37-.34 3.29.59 2.31 3.33.1 2.7-1.57 0-1.84-.001-3.71-.28-5.52-1.13-.14-2.31-1.33-.93-2.24.89-.36.78-1.4-.28-1.31zm-8.18 3.17c-1.96-.34-2.74 1.65-2.4 3.29.02 1.42-.22 3.59 1.53 4.06 2.1.54.35 2.37-.34 3.29.6 2.31 3.33.1 2.7-1.57 0-1.84-.001-3.71-.28-5.52-1.13-.14-2.31-1.33-.93-2.24.89-.36.78-1.4-.28-1.31zm-8.28 2.61c-1.5-.26-2.68 1-2.39 2.49.08 1.47-.32 3.19.69 4.43 1.06.39 2.76 1.31 1.4 2.53-1.05.53-1.24 2.29.26 2.2 1.63-.24 1.59-2.21 1.54-3.48-.001-1.47-.11-2.94-.21-4.41-.4-.73-2.2-.49-1.54-1.83.16-.64 2.47-1.53.25-1.93zm-7.43 2.15c-1.5-.26-2.68 1-2.39 2.49.08 1.47-.32 3.19.69 4.43 1.06.39 2.76 1.31 1.4 2.53-1.05.53-1.24 2.29.26 2.2 1.62-.24 1.59-2.21 1.54-3.47-.001-1.47-.11-2.94-.21-4.41-.4-.73-2.2-.49-1.54-1.83.16-.64 2.47-1.53.25-1.93zm50.1-9.29c1.91-1.73 2.14.42.86 1.62-3.44 4.34-7.7 8-12.2 11.24-6.47 4.23-13.32 8-20.83 10.1-9.82 3-20.1 4.46-30.3 5.14-2.67-.02-5.67.43-8.1-.92-.87-2.8 4.05-1.38 5.71-1.8 7.13-.08 14.32-.46 21.24-2.32 7.62-1.76 15.22-3.79 22.43-6.84 5.97-2.86 10.97-7.34 15.91-11.66 1.69-1.57 3.39-3.13 5.24-4.52zm-3.54-22.51c-.65 3.64-3.66 6.21-6 8.85-3.85 3.79-8.61 6.41-13.1 9.37-7.23 4.38-15.31 6.99-23.4 9.25-8.1 2.49-16.59 3.72-25.1 3.92-2.86.71-2.26-2.92.22-2.55 6.1-.58 12.28-.49 18.1-2.51 8.49-2.76 17.31-4.92 25.1-9.33 6.08-3.69 12.31-7.31 17.58-12.1 2.19-1.92 3.44-4.67 5.65-6.56.77-.16.82 1.17.86 1.67zm25.93 364.4c1.87-2.18 4.55.51 2.27 2.27-1.4 1.73-2.74 3.9-2.06 6.21-2.58-.14-3-3.54-2.28-5.55.3-1.19 1.19-2.14 2.07-2.94zm-13.31-10.44c2.87-1.2 2.7 3.16.81 4.17-2.15 2.34-4.18 5.17-4.11 8.49-1.81-1.29-2.23-4-1.82-6.16.58-2.89 2.65-5 5.12-6.5zm-3.95-10.19c2.51.12 2.1 3.9-.25 3.97-3.39.82-6.89 2.74-8.1 6.23-.29 1.41-.91 2.68-1.54.64-1.27-3.96 1.76-7.96 5.22-9.61 1.4-.85 3-1.26 4.64-1.22zm-3.25-14.1c2.92-.001 2.99 3.83.08 3.9-2.34.4-4.79.36-6.96 1.46-2.1.8-3.46 2.67-4.58 4.47-1.59-1.25-.1-4.05.81-5.54 2.13-3.62 6.65-5.13 10.65-4.3zm8.31-11.41c3.59.29 7.25 1.26 10.82.48 2.48-1.86-2-3.29-3.5-3.71-3.61-.87-8.27-.68-10.62 2.64-1.13 1.71.38 1.99 1.52.91.56-.21 1.17-.37 1.78-.32zm-172.7 26.75-.43 3.12m-1.34-1.78c.57 2.18-1.21 4.19-2.29 5.66-1.96-2-.83-5.67 1.19-7.26.77-.02.97 1.04 1.1 1.6zm-5.22-13.3c1.05 2.93-1.92 4.07-4.17 4.64-1.78 0-3.48 4.99-3.79 1.36-.25-2.85 1.53-6.25 4.66-6.43 1.09-.17 2.2-.14 3.3-.22m-7.22-10.52c3.92-.28 1.29-5.28-1.75-4.1-3.33-.02-6.73 2.05-7.52 5.42-.97 2.08.2 2.18 1.34.57 1.99-1.96 4.86-2.18 7.49-1.91l.44.001zm-9.26.18-.11 3.23m10.98-16.7c1.3-2.38 1-5.56-1.93-6.49-2.53-1.94-6.55-1.77-8.45.96-.34 2.64 4.37.74 5.97 2.16 1.53.57 2.69 1.73 3.94 2.73m24.2-7.75c2.9 1.64 4.56-1.89 3.4-4.25-1.02-2.98-2.61-6.58-6.08-7.18-1.58-.87-6.3.06-3.1 1.98 2.35 1.74 3.21 4.59 4.16 7.19.42.82.85 1.72 1.63 2.27zm-34.2-167.3c1.44-1.34-2.28-2.48-3.48-2.58-2.7-.4-5.71 1.5-6.16 4.25 1.66.14 3.14-3.68 5.57-2.22 1.33.37 2.66.83 4.07.55zm-3.3-11.56c3.29.73 1.67-3.52-.53-3.74-2.91-.89-6.5-.8-8.89 1.29-.37 1.47 2.4-.79 3.34-.28 2.34.09 3.81 2.29 6.07 2.73zm2.36-11.91c3.04.87 1.63-2.91.45-4.11-1.53-2.06-3.76-4.04-6.52-3.72-1.28.15-4.87.48-4.43 1.78 2.2.52 4.45 1.22 6.13 2.84 1.42 1.13 2.61 2.56 4.36 3.2zm9.1-17.95c-2.31-1.51-5.12-3.11-7.95-2.07-1.46.1-3.47 1.68-.96 2.16 2.25.48 4.48 1.47 5.84 3.41 1.43 2.39 4.07.99 4.89-1.07l.11-.17m15.56-3.39c1.68-2.05-.72-4.61-2.43-5.78-1.63-1.08-3.68-1.8-5.64-1.49-.22 1.41 3.16 1.74 3.56 3.49 1.16 1.43 2.45 3.92 4.52 3.78zm-28.86-72.4c-2.12-1.65-5.5-1.48-7.11.81-.27 2.19 3.46.11 4.78 1.21 1.58.24 4.09 2.89 5.25 1.4-.49-1.43-1.81-2.47-2.93-3.42zm5.18-11.51c-2.37-1.7-5.56-3.6-8.49-2.09-1.89.45-.92 1.68.59 1.3 2.98.02 4.58 3.5 7.42 3.6.98-.44.76-2 .47-2.82zm-1.85-15.1c3.14-.98 7.29.34 8.39 3.66.28 2.99-3.33.72-4.49-.24-1.4-1.19-3.69-1.7-4.81-2.85.22-.3.57-.44.91-.57zm10.98-8c-2.82.97 1.56 3 2.25 4.22 2.36 2.19 4.13-3.33.97-3.68-1.01-.41-2.12-.65-3.22-.54zm27.95 22.67c1.73.64 4.54.31 3.88-2.24-.05-2.68-.55-6-3.3-7.23-2.79-.69.18 2.85-.54 4.31-.05 1.83-.54 3.6-.82 5.4m119.2-45.72c.56-.27.97-1.61-.05-1-.6.49-1.14 1.05-1.78 1.5-1.72 1.4-3.3 3.09-4.12 5.18-1.67 2.66-1.66 6.51.62 8.82 2.02 1.89 4.83 2.65 7.53 2.92 1.6.25 3.25-.26 4.56-1.17.53-.19.79-1.48.11-.66-.68.38-2.14.71-2.42-.25.32-.79 1.18-1.16 1.82-1.64 1.3-.9 2.87-1.7 3.52-3.23.23-.48.23-1.05-.45-.75-2 .36-3.56 2.06-5.66 2.11-1.26.59-1.76-.95-1.89-1.91-.65.27-2.29.04-1.76-.94.65-.57 1.44-.97 2.14-1.47 1.09-.78 2.34-1.5 2.96-2.73.29-.87-1.12.1-1.5.28-.93.55-2.07 1.4-3.18.8-.85-.68.73-1.65 1.16-2.24.77-.46 1.17-1.98.001-2.12-1.08.61-1.63 1.93-2.82 2.36-1.05.07-1.07-1.14-.37-1.66.51-.75 1.04-1.49 1.57-2.23zm-26.2 9.15c2.07 1.57 3.67 3.73 4.72 6.09.26.84.85 1.85.36 2.67-.85.07-1.39-.8-1.95-1.34-1.88-1.98-3.6-4.13-5.84-5.74-1.66-1.3-3.54-2.3-5.54-2.98-2.7-1.08-5.56-1.65-8.33-2.49-.93-.08-1.92-.89-1.34-1.89.71-1.35 2.35-1.8 3.75-1.97 1.94-.12 3.76.77 5.44 1.62 1.75.99 3.33 2.26 4.99 3.39 1.24.88 2.48 1.76 3.73 2.63z" fill="#fd0"/>
</svg>
