<?xml version="1.0" encoding="UTF-8"?>
<svg version="1.0" viewBox="0 0 208.86 244.66" xmlns="http://www.w3.org/2000/svg" xmlns:cc="http://creativecommons.org/ns#" xmlns:dc="http://purl.org/dc/elements/1.1/" xmlns:rdf="http://www.w3.org/1999/02/22-rdf-syntax-ns#">
<metadata>
<rdf:RDF>
<cc:Work rdf:about="">
<dc:format>image/svg+xml</dc:format>
<dc:type rdf:resource="http://purl.org/dc/dcmitype/StillImage"/>
<dc:title/>
</cc:Work>
</rdf:RDF>
</metadata>
<path d="m1 1 3.7611 158c2.6865 112.86 196.65 112.86 199.34 0l3.7611-158z" fill="#fff" fill-rule="evenodd" stroke="#000" stroke-width="2"/>
<path d="m97.922 81.604c2.6443 11.419 3.6252 29.18 3.1088 43.555-0.15785 4.3941-2.4536 10.879-5.3033 13.451-6.3331 5.7156-8.6642 11.091-10.96 16.971l5.8336 1.591c2.5394-5.6566 5.0369-11.353 11.314-13.435 1.2329 5.5543 1.3204 11.252 1.2374 16.971l6.7175 0.70711c0.0115-4.5495 0.10046-8.9828-0.53033-14.496 4.9257 4.1397 9.1565 9.3912 13.258 14.849l4.2426-3.182c-3.6044-5.6924-6.884-11.567-13.612-17.854-3.2037-2.9943-2.9243-8.9149-2.8284-11.684 0.50784-14.672 1.4228-29.234-0.17678-46.492 6.5564 12.123 16.96 24.167 27.152 32.604 6.3975 5.2964-0.67968 14.718-5.5 3.875-2.6995-6.0725-9.7713-4.4291-12.625 1.375-3.7841 7.6966-0.58986 15.278 5.5 20.5 0.0154-1.2654 0.12411-2.6241 0.375-4.125l9.25 10.625c0.17231-1.4347 0.46699-2.8082 0.875-4.125 3.8135 6.7512 12.224 4.167 20.25 8.625 1.0159-5.1775-1.8111-9.959-6.125-14.875-5.3364-6.0811 4.699-8.484 7-1.25 2.0491 6.4421 5.2565 9.3709 8.25 14.312 0.024-1.3592 0.25671-2.9107 0.5-3.8125 4.9117 3.1084 10.576 2.4545 16.125 2.375-1.1336-1.1223-2.3425-2.2613-4-3.5 5.1918-1.9418 10.335-3.8352 18.125-8.375-3.7618-3.5152-7.7606-6.3588-11.875-8.875 2.2269 0.0794 4.1241 0.36003 6.5 0.125-3.2464-3.4517-5.6078-6.8434-11.465-8.5 1.2106-0.59723 2.5361-1.137 4.2152-1.5-4.1966-4.1041-9.6217-5.4962-19.25-1-5.8486 2.7312-7.0382-10.985 0.5-7 6.423 3.3957 12.654 2.3798 19.5-3.375-3.6842-3.464-6.6316-7.1911-12.5-9.875 1.4904-0.31093 2.7943-0.9948 4.125-1.625-7.0745-0.69086-12.765-5.0791-19.25-4.25 0.23374-0.70366 1.0616-1.8826 2.125-3.25-5.0833-0.40079-10.18-1.194-15.25 1-6.6859 2.8935-9.0911 10.329 0.5 13.625 7.3104 2.5126 1.8426 11.497-3.125 7.625-15.819-12.329-22.351-26.007-28.264-39.069-2.3047-5.0913-2.767-10.82-2.7874-17.896 11.603 13.836 30.16 13.339 43.315 5.1751 7.6889-4.7714 12.795 0.12017 6.875 3.5-11.456 6.5404-13.521 12.184-8.125 16.625 5.5614 4.5772 14.036 2.8084 22.75-0.875-1.831-0.75-3.359-1.5-4.25-2.25 7.4933-0.77792 13.206-4.3759 17.875-9.625-1.2923-0.6072-2.9266-0.98646-4.9688-1.0938 7.2512-5.2692 8.3096-12.523 11.844-15.406-5.9973-4.2597-11.463-2.0524-16.75 2.125-6.3032 4.98-9.4937-6.0476-4.25-7.25 3.9557-0.90706 9.8865 0.84869 14.625-0.875 4.3395-1.5785 4.6096-6.4219 7.125-13.125-1.75 0.52536-3.5 1.0408-5.25 0.875 3.2374-4.4634 4.4649-9.7307 5.375-15.125-6.0639 1.3185-10.678-2.1411-19.625 3-0.065-1.0784-0.16159-2.0935 0-3.625-6.1165 3.4877-15.719 6.1537-12.375 16.125 1.6578 4.9433-1.9863 7.3527-5.9996 6.3893-3.5732-0.85777-6.4304-5.1603-2.8754-7.1393 6.197-3.4497 7.1932-10.791 5.375-17.25-4.861 5.8265-11.956 4.512-17.875 12.625-1.1363-0.99622-1.4034-2.2822-1.875-3.5-3.0341 5.2332-4.5789 10.797-5.5 16.5-1.125-0.61721-1.9062-1.2323-3.0312-2.5 0.0796 8.5281 0.59765 16.947 11.781 12 8.3854-3.7094 11.602 2.0085 6.125 5.125-6.9486 3.9537-21.082 5.8496-28.913-0.5135-6.3751-5.18-10.324-11.798-12.905-19.269 6.731 1.9051 14.587 4.3175 18.915-4.773 1.8366-3.8571 2.6479-10.428-4.4194-14.496-2.63-1.5136-8.8102-0.96127-11.49 4.773 1.3546 0.35504 2.5141 1.1001 3.5355 2.1213 1.4663-2.1189 5.4075-2.1966 6.0533-0.10355 1.4339 4.6474-0.96117 7.2963-5.1694 7.5282-9.4922 0.52298-13.92-6.7224-17.501-14.496-4.1972 1.4007-9.897 1.2989-15.733 1.0607 7.9353 11.973 14.967 24.793 8.1317 37.83-6.8822 13.127-18.368 11.167-26.894 2.0634-5.3412-5.7035-0.48074-7.9618 9.5625-2 8.673 5.1484 12.245-13.242 5.5-21.812-0.875 0.78115-1.75 2.1138-2.625 3.375-1.0361-7.004-2.5021-13.078-8.3125-16.625-0.19356 1.631-0.03309 3.2037 0.375 4.5-4.4583-3.8697-8.9167-6.9427-13.375-9.3125-3.4274 6.7848-1.4129 13.665 2 21.188 2.8045 6.1817-7.2356 7.1608-7.3125 0.6875-0.11251-9.4653-3.9889-15.097-12.062-17.062 0.52904 1.755 0.52243 3.0474 0.5625 4.5625-5.053-6.648-10.621-6.3207-16.812-6.625 0.279 7.2261-0.54684 15.097 3.5 20.125-1.5176 0.30708-3.1284 0.2387-4.8125-0.125 3.2475 6.9377 9.2466 8.0573 19.062 9.6875 8.9734 1.4902 1.3879 11.815-5.1875 6.6875-9.0081-7.024-15.784-4.3532-21.812-1.5625 5.8409 4.005 10.136 7.8938 11.769 11.477-0.31533 0.56805-1.0615 0.60584-1.5893 0.73901 2.9034 7.2937 9.5877 11.699 19.883 10.972-1.4822 1.3066-2.5863 2.0461-3.75 2.875 5.758 0.26758 11.492 0.16148 17.062-1.3125 4.6188-1.2221 8.6163-5.1635-1.4375-12.438-4.8962-3.5424 0.78054-7.1064 5.875-2.5625 8.5648 7.6391 22.367 15.34 37.018-2.3744 2.3511 20.12-12.393 30.712-23.511 41.543-6.5481 6.3786-17.22-2.7284-8.1317-5.1265 7.2172-1.9044 9.6916-7.1711 1.4142-10.076-8.0458-2.8239-18.182-2.2625-28.991-0.53033 0.87112 1.2561 3.2101 1.2925 4.331 2.1213-7.9431 1.4689-12.883 8.0751-20.594 10.607 4.3323 8.421 10.977 10.329 17.324 7.3362 10.41-4.9095 10.162 2.6214 1.5026 2.74-14.411 0.19746-16.012 10.351-16.529 18.827 1.4085-1.3203 2.4722-1.7214 3.5355-2.1213-1.9243 7.2118-4.5928 13.523-8.7504 18.031 7.4687 2.3027 15.109 3.5336 23.511 0-1.1814 1.3258-1.8765 2.6516-2.4749 3.9775 9.127-9e-3 18.303-4.2765 21.125-13.347 3.0906-9.9327 7.9114-6.0004 3.2249-0.35891-3.814 4.5912-3.8213 10.198 0.31066 13.882 6.2828-3.6771 12.695-5.3233 18.65-14.142 0.05944 1.194 0.01867 2.2377-0.08839 3.182 4.666-3.9511 6.7451-9.5036 9.0156-14.938 0.38302 1.0171 0.76603 2.1068 1.149 3.3588 1.1507-5.2471 2.9449-10.303-0.08839-16.794-1.8919-3.6353-6.3459-1.0962-10.783 4.8614-3.3932 4.5555-11.233-1.6755-5.1328-6.7162 6.6576-5.5011 16.044-14.231 21.823-22.874z" fill="#009645" stroke="#000" stroke-dashoffset="4.58" stroke-miterlimit="20" stroke-width="1.0016"/>
<g transform="translate(-1.5)" fill="#1b63c6" stroke="#000" stroke-dashoffset="4.58" stroke-miterlimit="20" stroke-width="1.0016">
<circle cx="81.671" cy="206.3" r="9.0156"/>
<circle cx="118.62" cy="210.19" r="10.253"/>
<circle cx="99.26" cy="224.51" r="8.6621"/>
<circle cx="91.217" cy="216.38" r="8.8388"/>
<circle cx="94.576" cy="206.48" r="8.4853"/>
<circle cx="107.22" cy="215.49" r="7.7782"/>
<circle cx="110.31" cy="208.24" r="8.1317"/>
<circle cx="75.66" cy="191.98" r="9.0156"/>
<circle cx="89.847" cy="194.15" r="8.7946"/>
<circle cx="130.11" cy="199.58" r="9.7227"/>
<circle cx="120.21" cy="199.05" r="8.1317"/>
<circle cx="105.71" cy="196.75" r="9.0156"/>
<circle cx="71.418" cy="176.42" r="8.8388"/>
<circle cx="83.969" cy="182.96" r="8.6621"/>
<circle cx="99.525" cy="183.14" r="8.3085"/>
<circle cx="131.7" cy="185.62" r="9.7227"/>
<circle cx="116.32" cy="184.73" r="9.3692"/>
<circle cx="83.306" cy="169.75" r="7.5572"/>
<circle cx="95.946" cy="171.7" r="8.1759"/>
<circle cx="110.75" cy="173.07" r="7.955"/>
<circle cx="140.36" cy="177.66" r="8.4853"/>
<circle cx="126.04" cy="171.65" r="8.4853"/>
<circle cx="141.95" cy="165.46" r="8.8388"/>
<circle cx="129.22" cy="159.63" r="7.4246"/>
<circle cx="115.79" cy="161.75" r="7.955"/>
<circle cx="73.716" cy="160.51" r="8.1317"/>
<circle cx="86.797" cy="157.86" r="9.3692"/>
<ellipse cx="101.29" cy="160.96" rx="8.4853" ry="8.6621"/>
</g>
</svg>
