<?xml version="1.0" encoding="UTF-8"?>
<svg version="1.0" viewBox="0 0 208.86 244.66" xmlns="http://www.w3.org/2000/svg" xmlns:cc="http://creativecommons.org/ns#" xmlns:dc="http://purl.org/dc/elements/1.1/" xmlns:rdf="http://www.w3.org/1999/02/22-rdf-syntax-ns#">
<metadata>
<rdf:RDF>
<cc:Work rdf:about="">
<dc:format>image/svg+xml</dc:format>
<dc:type rdf:resource="http://purl.org/dc/dcmitype/StillImage"/>
<dc:title/>
</cc:Work>
</rdf:RDF>
</metadata>
<path d="m1 1 3.7611 158c2.6865 112.86 196.65 112.86 199.34 0l3.7611-158z" fill="#fff" fill-rule="evenodd" stroke="#000" stroke-width="2"/>
<g transform="translate(2,-1)" fill="#009645" stroke="#000" stroke-dashoffset="4.58">
<path d="m133.13 50.297c0.37614-1.926 0.79804-3.8214 1.0581-5.8247-7.8896 2.7766-13.081 9.9632-17.125 18.812-3.5926 7.8621-4.5448 16.157-3.5625 25.375 0.23347 2.191 0.21378 4.0647 3.625 5.3125l13.422 4.9098c2.7846 1.0186 4.734 1.6978 5.8125 4.1875 2.8659 6.616 4.3772 10.828 6.3277 16.653l-6.375 2.4375c-2.1336-5.9704-4.0157-15.291-9.25-16.75-5.974-1.6656-12.841-5.23-18.511-5.1498-1e-3 7.8996-0.77421 18.1-1.2393 24.9l-6.5-0.1875c-0.35446-7.7588-0.4847-15.204-1.625-24.062-9.6064 7.3419-8.877 16.095-8.6276 24.39l-7.2474 0.17233 0.1875-14.938c-2.6214-0.54983-5.6298-0.97062-9.25-1.1875-9.0469 0.3326-9.1344 9.4412-11.5 15.375l-6.875-0.625c1.525-9.7711 5.2318-22.977 20.058-21.842 9.884 0.75664 25.436-8.9337 26.629-24.595 0.75112-9.8532 3.5784-18.75 9.1875-28.625-7.0823-0.31765-16.523 1.0068-18.125-10.75-0.56058-4.1152-1.7236-11.407-6.25-10.781-4.6161 0.63807-2.6177 5.929-0.3125 7.2188-3.6991 0.59136-6.4848-1.3696-5.6875-5.4375 1.0848-5.5345 5.7001-6.2239 9.625-5.375 4.2075 0.91006 5.0601 6 5.75 9.125 6.302-6.6134 11.149-3.3758 16.844-3.4062 2.259-0.01206 5.2603 0.58041 5.7812-4.8438 0.42902-4.4667-0.94496-7.4537-5.875-8.125-4.742-0.64566-5.6442 3.1967-7.0698 6.125-1.1743-3.2838-2.0317-8.7822 6.0698-10.25 8.4805-1.5364 13.198 6.4915 12.375 13.75-0.40792 3.5963-3.0872 8.6188-8.0625 8.25-4.1879-0.31046-8.0366-0.92093-11.688-0.875-3.7714 0.04744-4.9436 7.0301-1 8.125 4.4718 1.2415 12.264-0.06109 15.375-2 25.334-15.787 31.852-17.631 71.625-20.5 0.0494 7.6535-0.61562 14.593-2.5625 20.25-4.9102-1.6625-10.087-3.0637-16.312-3.4375-2.2972 2.8031-7.931 8.3117-2.125 13.062 4.4375 3.631 8.9663 7.8021 12.61 10.951 3.7599 3.2493 3.358 15.435 3.2652 24.612-0.0519 5.1287-3.6529 11.828-13.312 14.312-3.3143 0.85237-8.679 2.5585-8.5 6.625 0.33797 7.68 6.8603 7.1323 10 2.5625 1.5952 7.3318-5.4839 10.578-10.438 6.8125-4.1713-3.1711-8.8452-11.115-0.53125-17.656-5.4098-3.5514-6.7406-5.3064-9.2209-10.294l4.8513-2.1882c4.0724 4.8816 5.0171 10.961 15.338 6.2009 5.0313-2.3205 4.9027-10.091 4.3125-18.438-0.22743-3.2165 0.20755-6.5342-4.0625-9.25-4.1594-2.6454-8.649-5.2074-12.25-8.9375-4.0805-4.2268-6.8535-9.4226-1.5-18.125-3.0272 0.22654-5.5145 0.36628-11.142 2.779-1.4336 0.61463-2.9721 4.203-4.3281 8.3363"/>
<path d="m133.47 48.615c-3.9313 24.261-46.806 41.598-66.733 27.577-1.496-1.0526-1.57-5.0822 0.46404-6.2314 2.2418-1.2665 2.6323 0.26717 3.425 1.812 3.4465 6.716 15.695 1.9318 18.738-7.513-0.72647 0.05541-2.0484 0.17064-3.4471 0.35355 4.9612-5.0596 1.1936-16.803-1.4142-20.329-2.3135 3.5875-4.8479 6.2854-7.4246 8.2201-1.6416 1.2326-1.8743 3.1397-2.4749 5.2149-1.6071 5.553-7.0489-0.85201-4.773-2.9168 4.1455-3.761 9.2867-6.7935 8.8388-13.877l-3.2704 0.97227c3.1308-6.4696-0.33797-12.206-4.5962-17.854l-2.0329 6.0988c-0.27542-8.2691-9.7317-12.908-15.822-12.816 1.5193 3.0527 2.8085 6.1246 2.2981 10.96-0.32508 3.0799 0.29392 6.0855 1.8562 9.2808 2.9829 6.1009-8.8286 11.255-8.3969 3.182 0.24912-4.6587 3.8487-8.2397 2.6516-14.584-1.6049-8.5062-10.294-6.1929-16.617-7.1595 1.0285 1.8267 1.2853 3.4971 1.2321 5.3238-3.6015-5.1964-10.953-4.2066-18.733-2.849 0.10135 5.7731 1.7188 11.357 3.0936 16.971-1.505-0.95706-2.9556-1.9904-4.8614-2.3865-2.6311 5.9886 0.61394 10.787 2.0329 14.407 2.0406 5.2057 4.7025 2.3164 15.114 3.9775 9.5568 1.5247 5.2444 11.8-0.53033 6.1872-2.949-2.8665-6.7397-3.5275-10.783-3.0936-4.301 0.46154-7.2596-2.1213-10.43-4.331 0.77804 8.3572 0.71549 17.311 8.3969 20.771-1.9558 0.53022-3.3839 0.37451-4.5078-0.17678 0.11672 5.302 5.073 9.0609 10.872 12.551 6.1304 3.5817 11.184-0.61971 15.026-7.6898 3.4046-6.2654 8.9074-1.2121 5.922 2.5633-3.0793 3.8941-8.8272 6.3143-13.435 9.3692 3.6803 3.6396 7.4453 6.7569 12.109 4.331l-0.26516 3.8891c4.352-1.132 8.6063-1.7265 13.435-5.4801 2.361-2.5165 3.3463-5.2856 0-7.8666-2.7077-2.0884-0.03063-6.6779 2.8284-4.2426 21.317 18.158 72.718 1.213 84.411-35.09"/>
<path d="m126.69 85.629c1.2219 0.96364 2.1732 1.7927 2.9375 2.7188 1.9301-3.8317 5.7342-6.959 7.4062-3.7188 2.8206 5.4662 4.3301 7.3951 7.8643 7.1 7.8748-0.65749 18.111-3.4959 22.542-7.9125 2.8-2.7907 3.1123-13.865-2.7812-17-3.5637-1.8954-6.538-2.317-9.2425-1.5365-2.8255 0.81541-6.4212 3.184-7.0387 6.1303-0.57077 2.7231 2.2067 8.5369 4.3842 13.354 1.7294-0.5168 3.4747-1.0594 5.2919-1.7178-1.7818-3.5451-3.6276-5.4856-3.8011-9.2611-0.1376-2.9941 3.5211-4.2546 5.75-2.9062 2.7595 1.6693 2.6339 4.6454 2.8438 6.9688 0.36284 4.0166-1.5632 3.8148-2.9688 4.5312-4.5533 1.7083-9.2606 3.1635-14.094 4.0625-1.5769 0.2933-2.7792 0.67637-4.875-3.9688-3.371-7.4715-13.01-1.9622-14.219 3.1562z"/>
</g>
<g transform="translate(2)" fill="#1b63c6" stroke="#000" stroke-dashoffset="4.58">
<ellipse cx="106" cy="223.28" rx="9.4375" ry="10.125"/>
<ellipse cx="92" cy="221.41" rx="8.1875" ry="9.375"/>
<ellipse cx="115.19" cy="212.48" rx="10.875" ry="12.688"/>
<ellipse cx="83.5" cy="210.41" rx="9.375" ry="11.25"/>
<ellipse cx="97.625" cy="206.91" rx="8.1875" ry="9.375"/>
<ellipse cx="110.69" cy="200.78" rx="8.1875" ry="9.375"/>
<ellipse cx="123.59" cy="196.6" rx="11.5" ry="11.25"/>
<ellipse cx="99.677" cy="192.11" rx="7.5" ry="9.375"/>
<ellipse cx="84.539" cy="194.59" rx="11.5" ry="11.25"/>
<ellipse cx="109.53" cy="182.25" rx="9.875" ry="11.25"/>
<ellipse cx="131" cy="185.41" rx="11.5" ry="11.25"/>
<ellipse cx="76.938" cy="181.91" rx="9.6875" ry="11.375"/>
<ellipse cx="90.875" cy="175.53" rx="11.5" ry="11.25"/>
<ellipse cx="139.61" cy="170.12" rx="7.5" ry="9.375"/>
<ellipse cx="122.81" cy="172.91" rx="9.4375" ry="10.125"/>
<ellipse cx="93.125" cy="161.03" rx="7.5" ry="9.375"/>
<ellipse cx="67.75" cy="167.66" rx="11.5" ry="11.25"/>
<ellipse cx="77.854" cy="160.61" rx="11.5" ry="11.25"/>
<ellipse cx="109.38" cy="161.91" rx="12.125" ry="13.75"/>
<ellipse cx="145.88" cy="153.78" rx="11.5" ry="11.25"/>
<ellipse cx="130.89" cy="157.25" rx="10.75" ry="12.25"/>
<ellipse cx="56.375" cy="154.03" rx="12.125" ry="13.75"/>
<ellipse cx="86.125" cy="144.16" rx="11.5" ry="11.25"/>
<ellipse cx="66.125" cy="149.41" rx="11.5" ry="11.25"/>
<ellipse cx="119.5" cy="146.78" rx="7.5" ry="9.375"/>
<ellipse cx="102.88" cy="143.78" rx="11.5" ry="11.25"/>
<ellipse cx="134.38" cy="139.28" rx="11.5" ry="11.25"/>
<ellipse cx="152.5" cy="134.78" rx="11.5" ry="11.25"/>
<ellipse transform="matrix(.98266 .18541 -.18673 .98241 0 0)" cx="81.097" cy="118.84" rx="11.502" ry="12.999"/>
<ellipse cx="76.375" cy="128.78" rx="12.125" ry="13.75"/>
<ellipse transform="matrix(.99606 .088658 -.099096 .99508 0 0)" cx="109.59" cy="117.65" rx="12.119" ry="13.006"/>
<ellipse cx="118.49" cy="127.52" rx="12.125" ry="13.75"/>
<ellipse transform="matrix(.97739 -.21145 .24881 .96855 0 0)" cx="104.98" cy="152.79" rx="12.075" ry="12.681" stroke-width="1.0004"/>
</g>
</svg>
