<?xml version="1.0" encoding="UTF-8"?>
<svg version="1.0" viewBox="0 0 208.86 244.66" xmlns="http://www.w3.org/2000/svg" xmlns:cc="http://creativecommons.org/ns#" xmlns:dc="http://purl.org/dc/elements/1.1/" xmlns:rdf="http://www.w3.org/1999/02/22-rdf-syntax-ns#">
<metadata>
<rdf:RDF>
<cc:Work rdf:about="">
<dc:format>image/svg+xml</dc:format>
<dc:type rdf:resource="http://purl.org/dc/dcmitype/StillImage"/>
<dc:title/>
</cc:Work>
</rdf:RDF>
</metadata>
<path d="m1 1 3.7611 158c2.6865 112.86 196.65 112.86 199.34 0l3.7611-158z" fill="#feeb00" fill-rule="evenodd" stroke="#000" stroke-width="2"/>
<path d="m4.1604 133.43c3.1842 1.1159 6.407 1.9363 9.737 1.9363 10.409 0 19.77-8.0155 30.178-8.0155 10.408 0 19.769 8.0155 30.178 8.0155s19.77-8.0155 30.178-8.0155c10.408 0 19.769 8.0155 30.178 8.0155 10.409 0 19.77-8.0155 30.178-8.0155s19.769 8.0155 30.178 8.0155c3.3481 0 6.5879-0.82936 9.789-1.9545l0.48448-25.918c-3.3588 1.2119-6.7563 2.1271-10.273 2.1271-10.409 0-19.77-8.0155-30.178-8.0155s-19.769 8.0155-30.178 8.0155c-10.409 0-19.77-8.0155-30.178-8.0155-10.408 0-19.769 8.0155-30.178 8.0155s-19.77-8.0155-30.178-8.0155c-10.408 0-19.769 8.0155-30.178 8.0155-3.6282 0-7.129-0.97389-10.591-2.2427z" fill="#1b63c6" stroke="#000" stroke-dashoffset="4.58" stroke-miterlimit="20"/>
<g transform="translate(-1.5)" stroke="#000" stroke-dashoffset="4.58">
<path d="m122.77 93.051c0.45941-2.3587 0.99476-4.6277-1.6794-7.513-2.1312-2.2994-5.5618-3.6276-8.1317-0.70711-3.9699-6.5242-12.455-8.2388-19.269-3.4471-5.9758 4.2024-6.8843 9.7192-1.5026 14.893-3.8254 1.2389-1.1103 8.1371 2.0329 12.33 3.428 4.573 2.2708 11.135 0.08839 17.501-2.0893 6.0947-1.1599 13.327-0.92938 19.153-3.5807 1.6863-7.0212 4.2754-9.4121 6.5676-1.1195 1.0733-2.3786 1.7756-3.7436 1.6705-1.6452-0.12672-3.7299 0.43053-4.773 2.2981-2.4434 4.3749-0.72167 7.2732 2.6829 9.378-0.05125-3.0491-2.3845-7.3485 2.6516-7.513 2.3084-0.0754 4.5543-0.52074 7.1595-1.9445 3.808-2.0812 7.1689-2.8606 10.341-3.5355-1.912 3.48-3.7815 6.9449-7.3362 7.513-4.499 0.719-6.2138 5.8983-2.6517 10.43 0.90265 1.1483-0.04154 5.0794 0.35355 9.8111 0.59912 7.1753 4.4879 6.5849 7.7782 5.0381-6.6171-1.6102-3.5452-8.0036-2.2981-14.319 0.56036-2.8376 1.3013-4.4007 4.331-4.2426 2.8191 0.1471 4.6756-0.84398 5.9656-2.4749 2.3861 3.7641 3.4768 8.158 14.629 9.5459 5.1775 0.64438 6.9739 2.2191 9.0156 5.8336 1.7134-1.9938 1.2543-4.7383 0.10308-6.9729-1.3892-2.6966-5.5948-2.8868-9.2955-4.8712-6.683-3.5837-3.7201-8.2293-0.70711-12.463 3.4666 3.5127 5.7422 6.4849 12.816 5.7452 5.1736-0.54095 10.441-0.19953 12.64 5.3033 2.4559-3.7116 1.8442-7.5528-7.4246-9.1924-4.1935-0.74181-8.077-2.6072-10.805-4.9056 5.9334-1.1014 6.3475-4.4262 11.866 0.0442 0.52817-2.9797 0.79536-4.0682-7.6898-7.2478-2.5009-0.93717-4.6058-1.7265-5.1265-6.4524-0.63998-5.8084 0.1776-18.237-2.8726-19.136-0.29182-3.5902 1.3587-6.6032 3.3146-9.6785 2.5856-4.0653 4.949-9.9795 1.37-9.8995 0.35642-1.0267 0.3447-2.0253 0.10389-2.9115 9.6585-7.3753 19.25-17.24 27.734-25.023-9.1869 7.4446-18.968 16.358-28.563 23.313-0.76723-1.3082-1.7447-1.827-2.7665-1.9197z" fill="#cc2918" stroke-width="1.002"/>
<path d="m92.814 69.799-2.6728-2.1148" fill="none" stroke-width="1.002"/>
<path d="m95.439 78.182-1.7098-1.2788" fill="none" stroke-width="1.002"/>
<path d="m94.218 89.969c-13.421-8.0341-23.468-21.697-29.273-29.944 7.6586 8.8224 17.233 20.679 29.033 27.848" fill="#cc2918" stroke-width="1.002"/>
<path d="m97.333 83.146c-5.0155-11.29-7.5394-23.298-10.624-33.272 3.7807 10.012 8.4853 23.372 12.521 33.234" fill="#cc2918" stroke-width="1.002"/>
<path d="m101.81 83.847c-2.8671-1.1864-6.7182-1.7189-7.75 3.25-0.68531 3.3003 2.8099 10.7 5.75 9.375-1.464 1.7669-2.176 5.5658-1.1875 7.8125 0.64567 1.4675 3.3147 4.6405 3.0625 12.25" fill="none" stroke-width="1.002"/>
<path d="m92.189 96.278c2.2027-0.79271 4.4108-0.98091 5.7669 9e-3" fill="none" stroke-width="1.002"/>
<path d="m98.288 152.18c4.3211-0.99776 8.7277-1.8505 8.7434-10.398 8e-3 -4.5171 0.0104-9.0698 2.2168-13.467 1.5291-3.0471 2.0973-6.4921 2.5633-9.9879" fill="none" stroke-width="1.002"/>
<path d="m91.281 167.82c0.83846-1.9156 0.90849-3.623 4.4062-5.25 1.8855-0.87704 3.5076-2.0956 4.5312-4.2188" fill="none" stroke-width="1.002"/>
<path d="m111.91 165.91c-2.172-2.8443-2.9803-6.5635-0.28125-10 3.9278-5.0009 4.5758-9.2894 3.5-11.812-1.2096-2.8368-1.8555-5.1883-2.3125-7.5" fill="none" stroke-width="1.002"/>
<path d="m118.18 155.01c1.2079-1.6397 1.7506-3.5772 1.6685-5.7892" fill="none" stroke-width="1.002"/>
<path d="m125.4 151.96c-2.0246-1.4861-2.7615-3.4829-2.3697-5.9273 1.4518 1.4873 3.2213 1.631 4.9375 2" fill="none" stroke-width="1.002"/>
<path d="m95.857 148.78c4.8961-2.6632 11.169-6.5181 11.226-10.736" fill="none" stroke-width="1.002"/>
<path d="m93.381 145.26c4.1593-1.7948 7.6913-4.3254 8.4003-9.6959 0.87704-6.6434 1.8818-10.402 3.1578-14.297 1.5519-4.7373 1.769-9.4637 1.9984-14.359 0.10394-2.218 1.4227-4.1728 1.5625-6.6875 0.11583-2.084-1.4692-4.625-1.3125-6.9375" fill="none" stroke-width="1.002"/>
<path d="m111.88 97.347c-0.23491 1.8124 2.0726 3.3695 1.5 5.4375-0.83882 3.0296-1.4566 5.9793-1.8125 9" fill="none" stroke-width="1.002"/>
<path d="m96.524 143.64c-0.05262-5.9457-0.19268-11.886 2.7573-18.006" fill="none" stroke-width="1.002"/>
<path d="m104.43 163.94c-0.56366-0.70914-0.91503-2.3248-0.71149-6.3102" fill="none" stroke-width="1.002"/>
<path d="m116 131.63c0.47903 4.232 1.3997 5.9908 2.2812 7.9688" fill="none" stroke-width="1.002"/>
<path d="m122.77 93.051c-2.1083-0.252-3.6067 0.93275-4.4565 3.466" fill="none" stroke-width="1.002"/>
<path d="m86.709 49.874c-1.6944-4.9135-3.0333-10.409-4.2426-15.424" fill="none" stroke-width="1.002"/>
<path d="m85.336 45.536-2.8672-3.0323" fill="none" stroke-width="1.002"/>
<path d="m82.469 42.504c-7.3947-3.0104-9.8166-9.327-11.49-16.141 5.5896 3.962 10.18 8.7296 11.49 16.141z" fill="#009645" stroke-width="1.002"/>
<path d="m89.39 58.589-3.1204-2.7711" fill="none" stroke-width="1.002"/>
<path d="m86.27 55.818c-7.6288-2.355-10.591-8.4368-12.852-15.079 5.9133 3.4602 10.901 7.8101 12.852 15.079z" fill="#009645" stroke-width="1.002"/>
<path d="m90.141 67.685c-6.1573-1.3239-8.9896-6.335-11.322-11.901 5.0464 2.3363 9.5633 5.4365 11.322 11.901z" fill="#009645" stroke-width="1.002"/>
<path d="m85.336 45.536 0.89245-4.0766" fill="none" stroke-width="1.002"/>
<path d="m86.228 41.459c4.7826-6.3931 3.5995-13.054 1.519-19.755-2.7452 6.2773-4.2187 12.729-1.519 19.755z" fill="#009645" stroke-width="1.002"/>
<path d="m89.39 58.589 1.0767-4.2002" fill="none" stroke-width="1.002"/>
<path d="m90.467 54.389c5.1071-6.4245 4.1973-13.414 2.3825-20.488-3.0434 6.4018-4.8091 13.047-2.3825 20.488z" fill="#009645" stroke-width="1.002"/>
<path d="m93.906 69.386 0.54538-3.2613" fill="none" stroke-width="1.002"/>
<path d="m94.452 66.125c3.1365-4.7437 2.727-10.307 1.4602-16.03-2.1725 4.9267-3.6851 10.094-1.4602 16.03z" fill="#009645" stroke-width="1.002"/>
<path d="m93.729 76.903c-3.961-0.44717-6.014-3.8824-7.5015-7.628 3.1382 1.2545 6.2342 3.2006 7.5015 7.628z" fill="#009645" stroke-width="1.002"/>
<path d="m82.466 34.45c-4.4812-4.8719-5.1089-11.42-4.7973-18.327 3.4258 5.2812 6.1517 10.977 4.7973 18.327z" fill="#009645" stroke-width="1.002"/>
<path d="m121.58 119.17c-1.1688-0.25379-2.4708 0.15146-2.6719 3.3648-0.13576 2.1689 0.37185 4.3235 1.25 6.3125 1.104 2.5004 0.94077 5.4557 0.9375 7.9062" fill="none" stroke-width="1.002"/>
<path d="m106.8 78.098-1.3691-2.1931" fill="none" stroke-width="1.002"/>
<path d="m107.41 85.599c1.3128-11.316 2.2972-26.166 3.1342-37.335-1.5408 11.373-3.5135 26.469-5.0855 37.744" fill="#cc2918" stroke-width="1.002"/>
<path d="m112.96 84.831c-2.1282 2.5947-2.4048 5.3164-0.30406 6.5474 4.3054 2.5229 7.5423 5.4287 5.519 9.8928-3.0211 6.6653-1.7565 10.898-2.4976 16.105" fill="none" stroke-width="1.002"/>
<path d="m126.26 99.592c-3.3869-0.20115-5.4139 5.3064-5.5819 8.0486" fill="none" stroke-width="1.002"/>
<path d="m103.64 98.929c0.12648-2.927-1.5106-4.141-2.0771-5.8778-1.9886-6.0967 2.9419-8.0725 7.4246-6.6291" fill="none" stroke-width="1.002"/>
<path d="m110.55 48.264c0.59133-5.5432 0.683-11.612 0.75412-17.145" fill="none" stroke-width="1.002"/>
<path d="m110.94 43.4 2.2304-3.8524" fill="none" stroke-width="1.002"/>
<path d="m113.17 39.547c6.4146-4.9852 7.4224-12.169 8.0095-19.613-4.8018 5.4702-8.3926 11.547-8.0095 19.613z" fill="#009645" stroke-width="1.002"/>
<path d="m109.89 57.185 2.5504-3.639" fill="none" stroke-width="1.002"/>
<path d="m112.44 53.546c6.5087-4.8654 8.498-11.64 9.6514-18.824-5.2502 5.0219-9.3456 10.755-9.6514 18.824z" fill="#009645" stroke-width="1.002"/>
<path d="m108.92 69.824 2.2448-2.8462" fill="none" stroke-width="1.002"/>
<path d="m111.17 66.978c5.9974-2.844 7.7313-8.7589 8.8238-15.136-4.6241 3.6403-8.528 7.9546-8.8238 15.136z" fill="#009645" stroke-width="1.002"/>
<path d="m110.94 43.4-1.863-4.0547" fill="none" stroke-width="1.002"/>
<path d="m109.08 39.345c-6.3861-5.5572-6.7251-12.808-6.1545-20.313 4.2727 5.9186 7.2837 12.321 6.1545 20.313z" fill="#009645" stroke-width="1.002"/>
<path d="m109.43 57.159-2.0805-4.1403" fill="none" stroke-width="1.002"/>
<path d="m107.35 53.019c-6.7257-5.5132-7.4212-13.043-7.2096-20.876 4.607 5.9783 7.9622 12.513 7.2096 20.876z" fill="#009645" stroke-width="1.002"/>
<path d="m105.43 75.905c-4.0374-2.0596-5.0275-6.9746-5.3126-12.045 2.8889 2.7129 5.4951 6.2404 5.3126 12.045z" fill="#009645" stroke-width="1.002"/>
<path d="m107.71 69.434-1.4964-3.2836" fill="none" stroke-width="1.002"/>
<path d="m106.22 66.151c-4.9015-4.2211-5.896-10.14-5.9357-16.428 3.8289 4.641 6.9538 9.69 5.9357 16.428z" fill="#009645" stroke-width="1.002"/>
<path d="m108.08 78.924 1.599-1.8273" fill="none" stroke-width="1.002"/>
<path d="m109.68 77.097c4.3487-1.4741 5.7821-5.752 6.4989-10.23-3.2148 2.1553-6.2048 5.0588-6.4989 10.23z" fill="#009645" stroke-width="1.002"/>
<path d="m111.3 31.119c3.4549-6.1598 2.5734-13.161 0.64616-20.315-2.2788 6.3382-3.7444 12.944-0.64616 20.315z" fill="#009645" stroke-width="1.002"/>
<path d="m122.48 80.775 2.2809-1.1673" fill="none" stroke-width="1.002"/>
<path d="m118.71 88.655c6.2896-10.402 11.754-24.005 16.808-34.349-5.8309 10.287-12.27 23.275-18.262 33.442" fill="#cc2918" stroke-width="1.002"/>
<path d="m135.52 54.306c2.6832-5.0711 5.0679-10.822 7.2302-16.071" fill="none" stroke-width="1.002"/>
<path d="m137.75 49.811 3.6742-2.8708" fill="none" stroke-width="1.002"/>
<path d="m141.42 46.941c8.2636-2.4476 11.539-7.7843 14.936-14.668-6.843 3.4892-12.269 6.8423-14.936 14.668z" fill="#009645" stroke-width="1.002"/>
<path d="m131.49 62.573 3.9118-2.5525" fill="none" stroke-width="1.002"/>
<path d="m135.41 60.02c8.3118-2.2996 12.851-8.0423 16.713-14.476-7.1194 2.9008-13.359 6.8948-16.713 14.476z" fill="#009645" stroke-width="1.002"/>
<path d="m126.8 72.612 3.3083-1.9066" fill="none" stroke-width="1.002"/>
<path d="m130.11 70.705c7.0538-0.86196 11.641-5.6857 15.159-11.522-5.9746 1.8089-12.151 4.7841-15.159 11.522z" fill="#009645" stroke-width="1.002"/>
<path d="m137.75 49.811-0.3203-4.5339" fill="none" stroke-width="1.002"/>
<path d="m137.43 45.277c-3.9861-6.9291-2.3494-12.166 0.8495-19.627 1.1212 6.9533 2.3005 12.167-0.8495 19.627z" fill="#009645" stroke-width="1.002"/>
<path d="m131.04 62.383-0.5042-4.6936" fill="none" stroke-width="1.002"/>
<path d="m130.54 57.689c-4.6051-7.6707-2.4508-15.097 0.72015-22.488 2.3222 7.353 3.189 14.787-0.72015 22.488z" fill="#009645" stroke-width="1.002"/>
<path d="m125.7 72.478-0.24711-3.6672" fill="none" stroke-width="1.002"/>
<path d="m125.45 68.811c-3.2792-5.7839-2.0312-11.783 0.30609-17.791 2.0538 5.7988 3.2533 11.734-0.30609 17.791z" fill="#009645" stroke-width="1.002"/>
<path d="m124.76 79.608c4.882 0.15698 10.311-4.9525 12.716-8.9632-4.0118 0.89961-10.469 4.14-12.716 8.9632z" fill="#009645" stroke-width="1.002"/>
<path d="m142.75 38.234c5.7641-4.6303 7.5334-11.62 8.3209-19.132-4.6619 5.2228-8.6161 10.993-8.3209 19.132z" fill="#009645" stroke-width="1.002"/>
<path d="m121.69 79.919-0.5327-2.5821" fill="none" stroke-width="1.002"/>
<path d="m121.15 77.337c-3.2368-3.4133-2.3638-8.4536-0.73102-13.389 1.8477 3.6235 3.1064 7.9218 0.73102 13.389z" fill="#009645" stroke-width="1.002"/>
<path d="m71.615 69.054-3.5507-1.1903" fill="none" stroke-width="1.002"/>
<path d="m68.064 67.863c-6.6412 0.84717-11.565-3.5397-16.203-8.9448 5.9577 0.2807 11.599 2.0956 16.203 8.9448z" fill="#009645" stroke-width="1.002"/>
<path d="m79.262 77.771-3.1672-0.71869" fill="none" stroke-width="1.002"/>
<path d="m76.095 77.053c-5.6451 2.1738-10.29-1.5776-14.786-6.2203 5.2089-0.43112 10.341 0.27218 14.786 6.2203z" fill="#009645" stroke-width="1.002"/>
<path d="m71.711 69.027-0.7223-4.4387" fill="none" stroke-width="1.002"/>
<path d="m70.988 64.588c1.745-8.371-1.4747-14.488-5.0975-20.208-0.086643 7.6797 1.157 14.665 5.0975 20.208z" fill="#009645" stroke-width="1.002"/>
<path d="m80.307 76.973-0.78726-3.5216" fill="none" stroke-width="1.002"/>
<path d="m79.52 73.451c1.3631-6.3233-1.4141-11.644-5.1758-16.683-0.25428 6.0112 0.29898 11.923 5.1758 16.683z" fill="#009645" stroke-width="1.002"/>
<path d="m87.6 85.383-2.4102-0.29431" fill="none" stroke-width="1.002"/>
<path d="m85.189 85.088c-4.2228 1.8033-8.1447-0.42699-11.666-3.2844 3.8327-0.53939 7.9971-0.3714 11.666 3.2844z" fill="#009645" stroke-width="1.002"/>
<path d="m64.945 60.025c-3.5168-4.309-6.6685-9.0684-9.5245-13.839" fill="none" stroke-width="1.002"/>
<path d="m64.371 59.313-3.7543-2.1997" fill="none" stroke-width="1.002"/>
<path d="m60.616 57.113c-7.8892-1.1964-12.648-8.2066-16.303-14.451 6.8603 2.9215 12.782 7.4821 16.303 14.451z" fill="#009645" stroke-width="1.002"/>
<path d="m64.379 59.323-0.54811-3.9664" fill="none" stroke-width="1.002"/>
<path d="m63.831 55.357c1.6621-7.366-1.2022-12.952-4.7474-18.27-0.17794 6.5719 0.64406 12.87 4.7474 18.27z" fill="#009645" stroke-width="1.002"/>
<path d="m55.421 46.186c-5.7617-4.0845-6.6381-10.129-7.2289-17.515 4.2131 5.1247 6.8686 9.5272 7.2289 17.515z" fill="#009645" stroke-width="1.002"/>
<path d="m87.649 83.457-0.44333-2.547" fill="none" stroke-width="1.002"/>
<path d="m87.206 80.91c1.6333-4.2279-0.9083-8.5496-4.0787-12.517-0.34196 3.9483 0.07014 8.3147 4.0787 12.517z" fill="#009645" stroke-width="1.002"/>
<path d="m90.619 98.347c-11.505-4.4988-22.745-10.354-31.952-15.276 9.7292 4.4592 22.907 9.6793 32.711 13.852" fill="#cc2918" stroke-width="1.002"/>
<path d="m58.667 83.071c-4.6601-2.3015-9.477-5.267-13.863-7.9813" fill="none" stroke-width="1.002"/>
<path d="m54.64 80.953-4.1429-0.50177" fill="none" stroke-width="1.002"/>
<path d="m50.497 80.451c-7.6126 2.4069-13.511-0.90646-19.151-5.0803 6.8314-0.52168 13.409 0.21485 19.151 5.0803z" fill="#009645" stroke-width="1.002"/>
<path d="m66.703 87.382-4.1672 0.22446" fill="none" stroke-width="1.002"/>
<path d="m62.536 87.606c-7.0797 3.6909-13.463 1.4508-19.742-1.6814 6.6374-1.6987 13.243-2.1142 19.742 1.6814z" fill="#009645" stroke-width="1.002"/>
<path d="m76.623 92.24-3.3874 0.37624" fill="none" stroke-width="1.002"/>
<path d="m73.236 92.616c-5.3084 3.3891-10.846 1.8185-16.418-0.49825 5.2307-1.8881 10.622-2.8607 16.418 0.49825z" fill="#009645" stroke-width="1.002"/>
<path d="m54.64 80.953-2.2325-3.5258" fill="none" stroke-width="1.002"/>
<path d="m52.408 77.427c-1.0961-7.9084-5.559-12.374-11.751-15.675 2.463 6.3933 4.8906 12.579 11.751 15.675z" fill="#009645" stroke-width="1.002"/>
<path d="m66.703 87.382-2.1884-3.7433" fill="none" stroke-width="1.002"/>
<path d="m64.514 83.638c-0.88748-8.159-6.4498-12.488-12.715-16.241 2.3386 6.6915 5.7564 12.657 12.715 16.241z" fill="#009645" stroke-width="1.002"/>
<path d="m76.829 90.866-1.9058-2.702" fill="none" stroke-width="1.002"/>
<path d="m74.923 88.164c-1.7001-5.547-5.7162-9.2141-10.641-12.391 0.97066 5.3865 4.5728 9.8536 10.641 12.391z" fill="#009645" stroke-width="1.002"/>
<path d="m85.417 96.218-2.808 0.73805" fill="none" stroke-width="1.002"/>
<path d="m82.609 96.956c-3.8092 4.0576-9.2172 3.1706-14.483 1.3553 3.9828-2.3746 8.6716-4.0558 14.483-1.3553z" fill="#009645" stroke-width="1.002"/>
<path d="m44.804 75.09c-8.2612-1.5858-14.24-7.9837-16.175-13.656 5.4621 1.9038 12.655 5.8242 16.175 13.656z" fill="#009645" stroke-width="1.002"/>
<path d="m154.1 71.658c4.3508-3.7398 8.6723-8.2218 12.603-12.318" fill="none" stroke-width="1.002"/>
<path d="m157.02 69.045 4.4691-1.3296" fill="none" stroke-width="1.002"/>
<path d="m161.49 67.715c8.5865 0.74149 13.586-3.0291 19.264-8.1955-7.6448 0.74724-13.921 1.8856-19.264 8.1955z" fill="#009645" stroke-width="1.002"/>
<path d="m146.94 78.371 4.574-0.94644" fill="none" stroke-width="1.002"/>
<path d="m151.52 77.425c8.5773 0.89687 14.901-2.7899 20.847-7.3672-7.6871 0.09849-14.955 1.5359-20.847 7.3672z" fill="#009645" stroke-width="1.002"/>
<path d="m139.67 85.217 3.7762-0.56578" fill="none" stroke-width="1.002"/>
<path d="m143.44 84.651c6.8809 1.7754 12.913-1.0385 18.321-5.1859-6.2224-0.49956-13.058 0.01289-18.321 5.1859z" fill="#009645" stroke-width="1.002"/>
<path d="m157.24 68.841 1.3587-4.3373" fill="none" stroke-width="1.002"/>
<path d="m158.59 64.504c-1.1782-7.9065 2.2589-12.183 7.9633-17.959-1.4973 6.8821-2.305 12.167-7.9633 17.959z" fill="#009645" stroke-width="1.002"/>
<path d="m146.99 77.506 1.2303-4.2284" fill="none" stroke-width="1.002"/>
<path d="m148.22 73.278c-1.4648-8.1935 3.1953-13.882 8.7768-19.195-0.51887 7.1442-2.4048 13.865-8.7768 19.195z" fill="#009645" stroke-width="1.002"/>
<path d="m138.27 84.828 1.1101-3.5039" fill="none" stroke-width="1.002"/>
<path d="m139.38 81.324c-0.93878-6.5822 2.4151-11.71 6.7863-16.448-0.20738 6.1483-1.2596 12.111-6.7863 16.448z" fill="#009645" stroke-width="1.002"/>
<path d="m166.7 59.34c6.9325-2.5787 9.1961-7.6256 11.362-14.33-5.6398 4.1476-9.0767 6.5129-11.362 14.33z" fill="#009645" stroke-width="1.002"/>
<path d="m127.7 93.36 1.2162-2.9588" fill="none" stroke-width="1.002"/>
<path d="m128.91 90.401c-1.2284-4.7579 2.0688-8.9347 6.0008-12.632-0.1322 4.2503-1.1328 8.8218-6.0008 12.632z" fill="#009645" stroke-width="1.002"/>
<path d="m126.54 97.79c4.5062-0.59101 22.923-3.5716 27.301-4.5168" fill="none" stroke-width="1.002"/>
<path d="m144.07 95.039 3.5527 0.83384" fill="none" stroke-width="1.002"/>
<path d="m147.63 95.873c5.4137 3.4927 10.366 3.1157 16.369 2.1806-5.4229-2.3023-10.1-3.8913-16.369-2.1806z" fill="#009645" stroke-width="1.002"/>
<path d="m132.92 96.839 3.4586 1.0911" fill="none" stroke-width="1.002"/>
<path d="m136.37 97.93c5.341 3.5786 7.3687 2.2965 12.829 2.0281-4.3888-2.3808-6.3976-3.2681-12.829-2.0281z" fill="#009645" stroke-width="1.002"/>
<path d="m144.07 95.203 2.765-2.0026" fill="none" stroke-width="1.002"/>
<path d="m146.84 93.201c3.1945-5.05 6.727-6.1813 13.009-7.4571-2.5415 2.9128-7.0946 6.5618-13.009 7.4571z" fill="#009645" stroke-width="1.002"/>
<path d="m132.92 96.839 2.7823-2.1668" fill="none" stroke-width="1.002"/>
<path d="m135.7 94.672c2.0084-4.1222 6.3766-6.294 12.6-7.556-3.6465 4.2251-7.0841 6.6315-12.6 7.556z" fill="#009645" stroke-width="1.002"/>
<path d="m153.84 93.274c5.7628 0.58943 10.824-1.8776 15.679-5.0686-5.5347 0.22609-11.022 1.0551-15.679 5.0686z" fill="#009645" stroke-width="1.002"/>
</g>
<g stroke="#000" stroke-dashoffset="4.58">
<g transform="translate(-55.243 10.518)" stroke-width="1.002">
<path d="m239.44 154.39c-0.35478-4.1431-1.0972-7.9463-2.74-10.96 1.266 0.29941 2.8272 0.90859 3.8449 1.8562 0.048-2.2864 0.57913-4.3131 1.7236-6.0104 1.1444 1.6973 1.6756 3.7241 1.7236 6.0104 1.0177-0.94756 2.5789-1.5567 3.8449-1.8562-1.6429 3.0138-2.3853 6.8171-2.74 10.96z" fill="#009645"/>
<path d="m240.55 145.29c-0.0985 1.548 0.35406 3.1307 0.60717 4.7067" fill="none"/>
<path d="m244 145.29c0.0985 1.548-0.35406 3.1307-0.60717 4.7067" fill="#009645"/>
</g>
<g transform="matrix(1.0588 0 0 1.0546 -97.443 -2.7877)" stroke-width=".94824">
<path d="m239.44 154.39c-0.35478-4.1431-1.0972-7.9463-2.74-10.96 1.266 0.29941 2.8272 0.90859 3.8449 1.8562 0.048-2.2864 0.57913-4.3131 1.7236-6.0104 1.1444 1.6973 1.6756 3.7241 1.7236 6.0104 1.0177-0.94756 2.5789-1.5567 3.8449-1.8562-1.6429 3.0138-2.3853 6.8171-2.74 10.96z" fill="#009645"/>
<path d="m240.55 145.29c-0.0985 1.548 0.35406 3.1307 0.60717 4.7067" fill="none"/>
<path d="m244 145.29c0.0985 1.548-0.35406 3.1307-0.60717 4.7067" fill="#009645"/>
</g>
<g transform="translate(-67.38 31.451)" stroke-width="1.002">
<path d="m239.44 154.39c-0.35478-4.1431-1.0972-7.9463-2.74-10.96 1.266 0.29941 2.8272 0.90859 3.8449 1.8562 0.048-2.2864 0.57913-4.3131 1.7236-6.0104 1.1444 1.6973 1.6756 3.7241 1.7236 6.0104 1.0177-0.94756 2.5789-1.5567 3.8449-1.8562-1.6429 3.0138-2.3853 6.8171-2.74 10.96z" fill="#009645"/>
<path d="m240.55 145.29c-0.0985 1.548 0.35406 3.1307 0.60717 4.7067" fill="none"/>
<path d="m244 145.29c0.0985 1.548-0.35406 3.1307-0.60717 4.7067" fill="#009645"/>
</g>
<g transform="matrix(1.0588 0 0 1.0546 -94.443 50.071)" stroke-width=".94824">
<path d="m239.44 154.39c-0.35478-4.1431-1.0972-7.9463-2.74-10.96 1.266 0.29941 2.8272 0.90859 3.8449 1.8562 0.048-2.2864 0.57913-4.3131 1.7236-6.0104 1.1444 1.6973 1.6756 3.7241 1.7236 6.0104 1.0177-0.94756 2.5789-1.5567 3.8449-1.8562-1.6429 3.0138-2.3853 6.8171-2.74 10.96z" fill="#009645"/>
<path d="m240.55 145.29c-0.0985 1.548 0.35406 3.1307 0.60717 4.7067" fill="none"/>
<path d="m244 145.29c0.0985 1.548-0.35406 3.1307-0.60717 4.7067" fill="#009645"/>
</g>
<g transform="translate(-100.5 36.858)" stroke-width="1.002">
<path d="m239.44 154.39c-0.35478-4.1431-1.0972-7.9463-2.74-10.96 1.266 0.29941 2.8272 0.90859 3.8449 1.8562 0.048-2.2864 0.57913-4.3131 1.7236-6.0104 1.1444 1.6973 1.6756 3.7241 1.7236 6.0104 1.0177-0.94756 2.5789-1.5567 3.8449-1.8562-1.6429 3.0138-2.3853 6.8171-2.74 10.96z" fill="#009645"/>
<path d="m240.55 145.29c-0.0985 1.548 0.35406 3.1307 0.60717 4.7067" fill="none"/>
<path d="m244 145.29c0.0985 1.548-0.35406 3.1307-0.60717 4.7067" fill="#009645"/>
</g>
<g transform="matrix(.94123 0 0 .94538 -93.86 76.345)" stroke-width="1.0622">
<path d="m239.44 154.39c-0.35478-4.1431-1.0972-7.9463-2.74-10.96 1.266 0.29941 2.8272 0.90859 3.8449 1.8562 0.048-2.2864 0.57913-4.3131 1.7236-6.0104 1.1444 1.6973 1.6756 3.7241 1.7236 6.0104 1.0177-0.94756 2.5789-1.5567 3.8449-1.8562-1.6429 3.0138-2.3853 6.8171-2.74 10.96z" fill="#009645"/>
<path d="m240.55 145.29c-0.0985 1.548 0.35406 3.1307 0.60717 4.7067" fill="none"/>
<path d="m244 145.29c0.0985 1.548-0.35406 3.1307-0.60717 4.7067" fill="#009645"/>
</g>
<g transform="matrix(.99704 0 0 .99728 -130.97 80.927)" stroke-width="1.0049">
<path d="m239.44 154.39c-0.35478-4.1431-1.0972-7.9463-2.74-10.96 1.266 0.29941 2.8272 0.90859 3.8449 1.8562 0.048-2.2864 0.57913-4.3131 1.7236-6.0104 1.1444 1.6973 1.6756 3.7241 1.7236 6.0104 1.0177-0.94756 2.5789-1.5567 3.8449-1.8562-1.6429 3.0138-2.3853 6.8171-2.74 10.96z" fill="#009645"/>
<path d="m240.55 145.29c-0.0985 1.548 0.35406 3.1307 0.60717 4.7067" fill="none"/>
<path d="m244 145.29c0.0985 1.548-0.35406 3.1307-0.60717 4.7067" fill="#009645"/>
</g>
<g transform="matrix(1.0588 0 0 1.0546 -147.84 41.864)" stroke-width=".94824">
<path d="m239.44 154.39c-0.35478-4.1431-1.0972-7.9463-2.74-10.96 1.266 0.29941 2.8272 0.90859 3.8449 1.8562 0.048-2.2864 0.57913-4.3131 1.7236-6.0104 1.1444 1.6973 1.6756 3.7241 1.7236 6.0104 1.0177-0.94756 2.5789-1.5567 3.8449-1.8562-1.6429 3.0138-2.3853 6.8171-2.74 10.96z" fill="#009645"/>
<path d="m240.55 145.29c-0.0985 1.548 0.35406 3.1307 0.60717 4.7067" fill="none"/>
<path d="m244 145.29c0.0985 1.548-0.35406 3.1307-0.60717 4.7067" fill="#009645"/>
</g>
<g transform="translate(-161.66 72.037)" stroke-width="1.002">
<path d="m239.44 154.39c-0.35478-4.1431-1.0972-7.9463-2.74-10.96 1.266 0.29941 2.8272 0.90859 3.8449 1.8562 0.048-2.2864 0.57913-4.3131 1.7236-6.0104 1.1444 1.6973 1.6756 3.7241 1.7236 6.0104 1.0177-0.94756 2.5789-1.5567 3.8449-1.8562-1.6429 3.0138-2.3853 6.8171-2.74 10.96z" fill="#009645"/>
<path d="m240.55 145.29c-0.0985 1.548 0.35406 3.1307 0.60717 4.7067" fill="none"/>
<path d="m244 145.29c0.0985 1.548-0.35406 3.1307-0.60717 4.7067" fill="#009645"/>
</g>
<g transform="translate(-170.48 36.595)" stroke-width="1.002">
<path d="m239.44 154.39c-0.35478-4.1431-1.0972-7.9463-2.74-10.96 1.266 0.29941 2.8272 0.90859 3.8449 1.8562 0.048-2.2864 0.57913-4.3131 1.7236-6.0104 1.1444 1.6973 1.6756 3.7241 1.7236 6.0104 1.0177-0.94756 2.5789-1.5567 3.8449-1.8562-1.6429 3.0138-2.3853 6.8171-2.74 10.96z" fill="#009645"/>
<path d="m240.55 145.29c-0.0985 1.548 0.35406 3.1307 0.60717 4.7067" fill="none"/>
<path d="m244 145.29c0.0985 1.548-0.35406 3.1307-0.60717 4.7067" fill="#009645"/>
</g>
<g transform="matrix(1.1205 0 0 1.112 -214.69 -10.251)" stroke-width=".89767">
<path d="m239.44 154.39c-0.35478-4.1431-1.0972-7.9463-2.74-10.96 1.266 0.29941 2.8272 0.90859 3.8449 1.8562 0.048-2.2864 0.57913-4.3131 1.7236-6.0104 1.1444 1.6973 1.6756 3.7241 1.7236 6.0104 1.0177-0.94756 2.5789-1.5567 3.8449-1.8562-1.6429 3.0138-2.3853 6.8171-2.74 10.96z" fill="#009645"/>
<path d="m240.55 145.29c-0.0985 1.548 0.35406 3.1307 0.60717 4.7067" fill="none"/>
<path d="m244 145.29c0.0985 1.548-0.35406 3.1307-0.60717 4.7067" fill="#009645"/>
</g>
<g transform="translate(-215.99 8.9576)" stroke-width="1.002">
<path d="m239.44 154.39c-0.35478-4.1431-1.0972-7.9463-2.74-10.96 1.266 0.29941 2.8272 0.90859 3.8449 1.8562 0.048-2.2864 0.57913-4.3131 1.7236-6.0104 1.1444 1.6973 1.6756 3.7241 1.7236 6.0104 1.0177-0.94756 2.5789-1.5567 3.8449-1.8562-1.6429 3.0138-2.3853 6.8171-2.74 10.96z" fill="#009645"/>
<path d="m240.55 145.29c-0.0985 1.548 0.35406 3.1307 0.60717 4.7067" fill="none"/>
<path d="m244 145.29c0.0985 1.548-0.35406 3.1307-0.60717 4.7067" fill="#009645"/>
</g>
<g transform="translate(-210.26 39.365)" stroke-width="1.002">
<path d="m239.44 154.39c-0.35478-4.1431-1.0972-7.9463-2.74-10.96 1.266 0.29941 2.8272 0.90859 3.8449 1.8562 0.048-2.2864 0.57913-4.3131 1.7236-6.0104 1.1444 1.6973 1.6756 3.7241 1.7236 6.0104 1.0177-0.94756 2.5789-1.5567 3.8449-1.8562-1.6429 3.0138-2.3853 6.8171-2.74 10.96z" fill="#009645"/>
<path d="m240.55 145.29c-0.0985 1.548 0.35406 3.1307 0.60717 4.7067" fill="none"/>
<path d="m244 145.29c0.0985 1.548-0.35406 3.1307-0.60717 4.7067" fill="#009645"/>
</g>
<g transform="matrix(.99704 0 0 .99728 -185.9 57.355)" stroke-width="1.0049">
<path d="m239.44 154.39c-0.35478-4.1431-1.0972-7.9463-2.74-10.96 1.266 0.29941 2.8272 0.90859 3.8449 1.8562 0.048-2.2864 0.57913-4.3131 1.7236-6.0104 1.1444 1.6973 1.6756 3.7241 1.7236 6.0104 1.0177-0.94756 2.5789-1.5567 3.8449-1.8562-1.6429 3.0138-2.3853 6.8171-2.74 10.96z" fill="#009645"/>
<path d="m240.55 145.29c-0.0985 1.548 0.35406 3.1307 0.60717 4.7067" fill="none"/>
<path d="m244 145.29c0.0985 1.548-0.35406 3.1307-0.60717 4.7067" fill="#009645"/>
</g>
</g>
<path d="m1 1 3.7611 158c2.6865 112.86 196.65 112.86 199.34 0l3.7611-158z" fill="none" stroke="#000" stroke-width="2"/>
</svg>
