<?xml version="1.0" encoding="UTF-8"?>
<svg version="1.0" viewBox="0 0 208.86 244.66" xmlns="http://www.w3.org/2000/svg" xmlns:cc="http://creativecommons.org/ns#" xmlns:dc="http://purl.org/dc/elements/1.1/" xmlns:rdf="http://www.w3.org/1999/02/22-rdf-syntax-ns#">
<metadata>
<rdf:RDF>
<cc:Work rdf:about="">
<dc:format>image/svg+xml</dc:format>
<dc:type rdf:resource="http://purl.org/dc/dcmitype/StillImage"/>
<dc:title/>
</cc:Work>
</rdf:RDF>
</metadata>
<path d="m1 1 3.7611 158c2.6865 112.86 196.65 112.86 199.34 0l3.7611-158z" fill="#feeb00" fill-rule="evenodd" stroke="#000" stroke-width="2"/>
<path d="m3.7967 118.49c1.0558 29.769-2.7997 61.718 14.257 84.384 17.128 22.945 42.076 39.619 86.377 40.773 34.927-1.535 68.434-10.716 89.37-45.645 12.223-18.028 10.777-48.603 11.263-79.513z" stroke="#000" stroke-dashoffset="4.58" stroke-miterlimit="20" stroke-width="1.0016"/>
<path d="m60.162 142.04-11.418 13.36 11.418 13.36-17.292-3.1975-5.8736 16.557-5.8736-16.557-17.292 3.1975 11.418-13.36-11.418-13.36 17.292 3.1975 5.8736-16.557 5.8736 16.557z" fill="#feeb00" stroke="#000" stroke-dashoffset="4.58"/>
<path d="m117.72 143.75c-5.2576 10.597-6.803 21.49-7.1589 30.249 8.7586-0.3559 19.651-1.9013 30.249-7.1589v26.589c-10.597-5.2576-21.49-6.803-30.249-7.1589 0.35592 8.7586 1.9013 19.651 7.1589 30.249h-26.589c5.2576-10.597 6.803-21.49 7.1589-30.249-8.7586 0.35591-19.651 1.9013-30.249 7.1589v-26.589c10.597 5.2576 21.49 6.803 30.249 7.1589-0.35591-8.7586-1.9013-19.651-7.1589-30.249h13.295z" fill="#feeb00" stroke="#000" stroke-dashoffset="4.58"/>
<path d="m148.7 142.04 11.418 13.36-11.418 13.36 17.292-3.1975 5.8736 16.557 5.8736-16.557 17.292 3.1975-11.418-13.36 11.418-13.36-17.292 3.1975-5.8736-16.557-5.8736 16.557z" fill="#feeb00" stroke="#000" stroke-dashoffset="4.58"/>
<g stroke-dashoffset="4.58" stroke-miterlimit="20" stroke-width="1.0016">
<path d="m132.41 64.171c-10.294 7.3306-12.518 12.327-11.225 16.308 0.43075-0.31875 0.81304-0.64487 1.7678-0.88388-0.0961 4.1368 1.174 6.8354 3.3146 8.6179-8e-3 -1.166-0.0784-2.3499 0.30936-3.403 3.3948 1.469 3.7932 3.4439 1.1049 5.3475-6.8897 4.5197-8.8226 2.4845-11.8-4.9939-1.1508-2.8905-6.5481 0.37215-6.9385 3.3588-3.554-2.0754-7.3059 3.44-5.4801 5.7452-2.4668 3.7862-1.1952 7.0084 1.812 8.9272 2.6354 6.5952 9.2909 5.1269 11.314 3.2262 2.8099 0.53711 5.617 0.66341 8.5295-0.48613 7.4789-2.9519 5.9389-0.0672 17.015-5.5685-0.93759-0.51299-2.02-1.0984-2.6516-1.4584 4.9497-1.5707 8.4244-3.7009 10.96-6.1872-0.95005-0.17678-1.9469-0.35355-2.74-0.53033 3.144-2.4728 6.262-4.9496 6.2314-7.9108-5.4807-0.72728-12.39-5.7582-4.2426-12.993-7.6553-16.508-12.363-11.035-17.28-7.1153z" stroke="#feeb00"/>
<path d="m131.73 68.65c1.9502-2.0118 5.5427-4.6869 9.2021-5.4038l4.1184 2.269c0.40242 3.1618-5.5329 5.6694-6.137 1.0503-2.4023 0.4665-5.0242 1.3759-7.1834 2.0845z" stroke="#feeb00"/>
<path d="m28.152 87.329c1.4867-2.1047 2.8053-4.4338 7.0269-3.8007 3.1213 0.46806 1.9968 5.8914 1.812 9.2366-2.7753-1.6654-5.2911-3.1084-8.8388-5.4359z" stroke="#feeb00"/>
<path d="m169.48 94.113c0.0862-2.4697 0.75411-4.9198 3.3588-4.7288 4.2973 0.31516 4.3505 4.4305 4.5962 6.607z" stroke="#feeb00"/>
<path d="m76.844 14.566c0.51887-3.0285 1.7873-4.9055 4.4688-4.8125 3.9634 0.13742 4.1864 2.8817 4.4062 5.75z" stroke="#feeb00"/>
<path d="m46.838 23.182c-0.29859 3.7141-2.4827 4.6979-4.5877 5.9779-4.652 4.0975-3.4611 6.9451-1.9062 10.062 5.2482 5.8251 11.783 11.446 19.531 16.188l-4.375 18.812c-2.8617 2.1909-10.302 3.4576-10.5-2.875-2.9892-2.6033-4.7856-6.3292-6.375-10.25l-0.125 4.625c-3.288-3.1369-5.2316-7.9063-6.1875-13.875-0.2785 1.3608-0.32652 2.8367-0.375 4.3125-2.979-3.8959-4.0673-8.1699-4.5625-12.562-3.2385-1.8358-2.5099-6.4696-2.375-9.4219-3.0655-1.425-4.2477-4.0089-3.875-6.5781 0.23438-1.6156 1.496-2.9906 3.1875-4.25-0.16596-2.1386 0.15717-4.0934 2-5.375 2.8097-1.954 3.8263-0.64387 5.4375-0.4375 0.99742-1.6076 2.3121-3.2949 4.3125-3.0625 3.1775 0.36918 5.4177 2.2535 5.1875 5.4375 3.689 0.2459 5.7491 1.2655 5.5877 3.2721z" stroke="#feeb00"/>
<path d="m41.25 19.91c-2.6587-0.25986-5.4758 4.2977-6.5134 10.099-0.79889 4.4665-1.6644 11.857-3.7123 12.595" fill="none" stroke="#feeb00"/>
<path d="m25 34.176c0.26566-5.5066 3.6469-10.92 9.9375-13.047" fill="none" stroke="#feeb00"/>
<path d="m24.303 23.211 3.4162 3.199" fill="none" stroke="#feeb00"/>
<path d="m31.75 17.535c-0.09645 1.3452-0.01603 2.7914 0.46875 4.4688" fill="none" stroke="#feeb00"/>
<path d="m164.06 39.742c6.1717 1.4054 11.487 0.15674 18.017-9.866 6.3152 2.3106 7.0585 8.3199 3.3146 12.816-6.4326 7.7254-18.372 3.8647-28.02 2.7486-19.422-2.2468-41.834 3.4162-61.562 5.5312-14.776 8.0459-38.426 2.2475-42.742 26.609-4.0486 4.1529-7.3402 8.2807-12.323 12.045-3.1842 2.7756-6.0164 2.2821-8.6179-0.35355-2.8743-2.73-5.5823-5.4905-8.3527-1.0165-0.90004 1.4535-1.1636 3.0931-0.59662 5.3696-0.94931 4.4584 0.13714 6.8102 1.7457 8.4632 4.0486 7.6271 9.2811 5.2457 11.844 3.403 6.4581 0.37275 10.44-2.2116 13.7-5.6568 4.5918-0.46672 9.2147-1.1747 12.64-2.6409-0.94925-0.51021-1.861-1.0316-2.6084-1.6017 5.0192-0.83523 10.355-1.2177 14.275-3.6239-1.0226-0.49742-2.0366-0.99141-2.6516-1.3258 2.1238-0.83807 3.9865-1.5896 4.9497-2.2981 11.805 2.8145 24.519-4.0282 37.653-15.335 7.8461-3.7034 15.54-7.7094 24.338-9.5686 5.5061 2.3328 7.9468 4.9468 10.81 8.2492 1.2771 1.4729 6.7904 9.1158 9.9334 9.6279l-0.61872-2.0329c2.2098 1.5024 4.7913 2.4505 7.6456 2.2097 2.127-0.17944 4.4054 0.15001 6.581 0.53033l-1.8562-3.4516c7.1561 0.63726 9.0805 4.295 9.5018 8.4013 1.1243 10.959-5.9718 7.9171-11.977 5.922-5.2877-1.7568-4.9336 4.4812-3.4181 6.8135-0.67546 4.28 3.1663 5.6189 4.7685 5.6627 3.251 7.9394 10.328 5.2394 11.289 1.666 5.126-0.95862 9.2119-3.9973 11.049-11.535 2.3372-5.2881 3.0917-10.983 2.8329-17.192-0.76384 0.35346-1.0906 0.6913-1.8606 0.7955-0.21762-5.0211-0.62369-10.105-3.1075-14.672-0.69157 0.64282-0.9016 1.2395-1.7097 1.591-0.65045-2.7715-1.6982-5.3841-3.182-7.8224-4.3405 6.3212-12.386 3.9955-16.705-0.53033-1.518-1.5904-3.2015-3.1722-4.9498-4.6846 10.338 1.2117 21.675 0.76514 27.135-7.2037 3.5531-5.1859 4.968-12.172-2.2097-18.606-6.8396-6.1307-17.013-5.2666-26.207-3.2704-8.8288 1.9169-17.726 4.3587-26.649 6.7175-2.086-6.0132-7.1568-8.9054-13.833-10.076-3.7449-0.65683-6.0772-2.0746-7.1153-4.2426-2.3421 1.7807-1.4112 4.2433-1.0607 6.5849-3.7996-1.8048-5.2266-5.5754-4.9036-10.796-3.9596 2.9721-4.4824 6.7611-3.5398 11.062 4.1586 18.976 25.592 15.952 38.727 12.375 9.8207-2.6741 17.77-7.2921 32.339-6.6752-2.0685 3.8015-5.4155 3.8431-8.665 3.1861" stroke="#feeb00"/>
<path d="m56.625 21.16c-1.2541 0.82925-0.85725 2.2728 0.25 2.875 0.24461 2.5809 0.59512 5.042 2.125 5.9375 1.93 1.1296 3.1851 0.99942 4.25 0.25 2.3527-1.6557 3.9556-4.0914 5.75-1.875 1.9088 2.3577 2.4052 5.3224 2.6015 8.2807 0.06168 0.92934 0.86655 2.2459-1.4613 2.2969-2.4026 0.05264-4.8125 0.86975-6.7027 2.1098-0.86431 0.56706-1.4585 1.3918-0.125 3.125 1.1475 1.4915 1.8077 1.8878 2.375 2.0625 3.3109-1.3171 5.4741-1.2997 7.5-1.0625-2.5032 4.4956-10.28 1.924-14.5 7.25 0.97929-0.02035 1.9628-0.02374 3 0.1875-6.7734 3.677-9.6879 8.4322-10.812 13.688 1.0162-0.83208 2.2998-1.6369 3.0815-1.8826-1.601 3.9703-1.5582 8.6846-0.88614 13.179 6.0827-6.0985 10.454-9.7126 16.43-8.7969 6.049 0.92698 9.3602 4.6979 9.1875 11.438 3.7348-2.0512 6.4316-5.3659 8.25-9.75 0.11759 2.2345-0.0138 4.3695-0.3125 6.4375 4.6139-3.9397 7.0109-9.227 7.375-15.75 0.92675 1.4845 1.671 3.0604 2.4375 4.625 3.1557-4.487 2.5153-11.552 1.3125-19l2.1875 2.4375c0.04827-5.5506-0.77038-10.279-2.125-14.5l1.625 0.8125c-1.2146-6.6783-3.5287-11.295-6.0625-15.5 1.1553-1.4562 0.99878-4.0937-0.47097-5.7093-2.3135-2.5431-5.6748-1.1314-9.0915 0.33427-7.7857-2.2732-14.833-1.9761-20.375 3.5625-2.9763 1.082-4.9069 1.6774-6.8125 2.9375z" stroke="#feeb00"/>
<path d="m77.075 88.345c1.4666-1.0433 2.0318-2.5644 2.2535-4.3102" fill="none" stroke="#feeb00"/>
<path d="m114.73 73.01c1.4035-1.392 2.7271-2.996 3.2719-4.9748" fill="none" stroke="#feeb00"/>
<path d="m24.926 102.09c2.1175-1.8816 4.7949-2.5173 7.6677-2.7179" fill="none" stroke="#feeb00"/>
<path d="m23.18 93.626c3.3535-0.59722 5.7583 0.27181 8.5295 0.57452" fill="none" stroke="#feeb00"/>
<path d="m165.67 99.711c3.7788-1.4002 5.8598-0.46175 8.2375-0.14444" fill="none" stroke="#feeb00"/>
<path d="m170.44 105.37c2.0281-1.0805 3.7777-1.8731 5.594-2.1509" fill="none" stroke="#feeb00"/>
<path d="m108.94 88.522c0.65249 3.4225 2.2642 5.5043 4.6404 6.4744 3.467 1.4155 5.4044 2.0329 8.2643 3.9775" fill="none" stroke="#feeb00"/>
<path d="m108.67 95.748c-0.7959 5.6285 4.5012 8.5041 7.9108 10.673" fill="none" stroke="#feeb00"/>
<path d="m105.27 103.19 4.4724-2.448" fill="none" stroke="#feeb00"/>
<path d="m103.46 94.267c0.76946 0.97549 2.1397 1.6957 3.2925 2.2318" fill="none" stroke="#feeb00"/>
<path d="m104.53 109.58c-0.33939-2.9317 0.76542-4.707 2.4886-5.9871 0.84551 0.83884 1.1646 1.6118 1.6043 2.5697-2.0171 0.30437-2.9338 1.77-4.0929 3.4175z" fill="#feeb00" stroke="#000"/>
<path d="m98.244 102.86c0.43948-4.4176 2.3852-6.0462 5.1886-6.607 0.35206 1.3103 0.35041 2.5515 0.24418 3.8201-2.223-0.31827-3.7031 1.1317-5.4327 2.7869z" fill="#feeb00" stroke="#000"/>
<path d="m98.637 91.644c2.9303-2.0704 5.3074-3.8592 8.0527-2.4334-0.57823 1.2463-1.2196 2.442-2.2097 3.3588-1.4251-1.3707-3.353-1.1659-5.843-0.9254z" fill="#feeb00" stroke="#000"/>
<path d="m16.418 25.236c2.2927 0.24826 4.5504 0.54412 5.701 2.3423 1.007-0.73086 1.6071-1.578 2.0329-2.4749-2.3258-1.3429-4.9082-1.2745-7.734 0.13258z" fill="#feeb00" stroke="#000"/>
<path d="m34.202 10.117c1.1798 2.2274 1.6014 3.9417 1.3745 5.8381 0.99027 0.7595 2.164 1.152 3.403 1.4142-0.43988-2.4737 0.29694-4.459-4.7774-7.2523z" fill="#feeb00" stroke="#000"/>
<path d="m164.09 52.99c-0.87189-0.7142-1.6638-1.5425-2.718-2.1658" fill="none" stroke="#000"/>
<path d="m48.857 31.335c1.533 3.2252 4.6859 3.7812 8.5074 3.403 6.4474-0.6381 11.802-1.2627 16.263 0.26516l0.39775 1.9445c-6.2808-1.9714-11.308 0.37215-16.573 1.0607-9.0554 1.1843-10.954-1.7933-11.689-5.4359-0.42038-2.083 2.0959-3.3363 3.0936-1.2374z" stroke="#000"/>
<path d="m68.943 18.121c-0.26385 0.53812-0.46826 1.0287-0.92808 1.7236 1.8061 0.01723 4.3193-0.75912 5.8778-0.53033 0.13436 0.86915 0.29377 1.2652-0.09107 2.0918-0.51609 1.1085-2.4433 0.92413-3.1324 0.44194-0.76161-0.5329-0.51277-1.1576-0.66559-2.0476" fill="none" stroke="#feeb00"/>
<path d="m60.031 29.535 2.6641 3.7902 0.50649-3.0693 2.393 2.9086-0.06355-6.9733z" fill="none" stroke="#000"/>
<path d="m64.906 42.785-0.5625-5.125 2.5 2.3125 0.3125-2.9062 3 3.5938z" fill="none" stroke="#000"/>
<path d="m73.188 45.16c4.4033 0.5195 8.7239 0.79652 10.812-4.375 0.8349 1.0612 1.4246 2.2137 1.5533 4.2752 3.9782-5.7702 3.6027-10.514 0.75915-15.119-5.104-10.041-1.3526-11.228 0.75-14.062" fill="none" stroke="#feeb00"/>
<path d="m93.375 20.035-2.625 1.8125" fill="none" stroke="#feeb00"/>
<path d="m44.621 14.943c-0.30278 2.5584-1.1629 4.5363-2.049 6.5947l2.4026 1.3602c0.89973-2.586 1.3068-5.2038-0.35355-7.955z" fill="#feeb00" stroke="#000"/>
<path d="m23.754 13.392c1.3033 1.7313 3.1198 3.2599 2.961 5.5685 1.3624 0.06954 2.4114-0.33096 3.4471-0.7513-0.86944-2.8271-3.2091-4.2365-6.4082-4.8172z" fill="#feeb00" stroke="#000"/>
<path d="m168.17 32.057c-3.4634-0.70025-5.401-2.5655-7.5642-7.086-5.0505-10.555-15.02-12.053-20.815-9.6343-3.9742 1.6582-3.8356 4.6713-3.182 7.4688 1.4167-1.6269 2.9264-3.1801 5.3917-3.3588 4.3275-0.31366 6.2243 3.218 7.7782 6.9385 3.0837 7.3833 8.0345 11.928 14.326 13.361" stroke="#feeb00"/>
<path d="m166.04 87.771c2.2232 1.4101 4.0551 2.5084 4.8834 4.4415 1.1688-0.53432 2.0333-1.0432 2.8505-1.812-1.8778-1.7495-4.0364-2.7586-7.734-2.6296z" fill="#feeb00" stroke="#000"/>
<path d="m159.59 95.847c2.1973-0.16211 4.5432-0.42544 6.2812 0.3125 0.61665-0.95462 0.78196-1.5696 1.0069-2.6335-3.5526-0.71493-5.2859 0.62434-7.2882 2.321z" fill="#feeb00" stroke="#000"/>
<path d="m161.94 104.64c0.81042-2.0989 2.8016-3.8599 5.2386-4.3384 0.28798 1.0907 0.55594 2.2424 0.51137 3.2915-1.9379-0.0116-3.8538 0.35023-5.75 1.0469z" fill="#feeb00" stroke="#000"/>
<path d="m168.92 109.55c0.64673-1.7335 1.466-3.5568 4.2386-4.3621 0.58442 0.84334 0.75899 1.7056 1.0156 2.6719-1.5862 0.0599-3.2457 0.87559-5.2542 1.6902z" fill="#feeb00" stroke="#000"/>
<path d="m106.95 84.147c3.7237-0.79059 5.9866 0.08724 7.7652 1.6142-0.95693 0.80362-2.0252 1.4681-3.3146 1.8562-0.36818-1.5155-2.0874-2.5367-4.4507-3.4704z" fill="#feeb00" stroke="#000"/>
<path d="m29.168 79.772c1.5218 1.4456 3.2541 2.7509 3.5797 4.9939 0.96483 0.09551 1.8574-0.02573 2.74-0.17678-0.77179-3.0976-2.7166-4.8841-6.3198-4.8172z" fill="#feeb00" stroke="#000"/>
<path d="m18.435 88.719c3.0746-2.4373 5.55-2.1442 7.8156-0.89489-0.42603 0.97296-1.1903 1.7362-2.0671 2.4296-1.3306-1.4265-3.4365-1.6416-5.7485-1.5347z" fill="#feeb00" stroke="#000"/>
<path d="m18.235 101.63c0.61374-2.6929 2.4496-4.7179 5.6461-6.2443 0.25552 1.3415 0.58467 2.6535 0.44194 4.1543-2.5199-0.46996-4.2209 0.76506-6.0881 2.0901z" fill="#feeb00" stroke="#000"/>
<path d="m23.865 109.25c0.11153-2.5069 0.65685-4.7346 2.7606-6.8264 0.87277 0.83978 1.6311 1.8322 2.2539 3.0052-2.3474 0.75401-3.6517 2.1646-5.0145 3.8212z" fill="#feeb00" stroke="#000"/>
<path d="m139.06 63.441c-0.88555-0.40137-1.746-0.80608-2.7812-1.1875" fill="none" stroke="#feeb00"/>
<path d="m163.67 39.648 0.86082 0.19569" fill="#feeb00" stroke="#feeb00"/>
<path d="m114.15 22.894c2.3754 1.1669 4.7221 2.1852 7.049 2.7179 2.1739 0.49773 4.3457 0.83987 6.3419 1.5026" fill="none" stroke="#feeb00"/>
</g>
</svg>
