<?xml version="1.0" encoding="UTF-8" standalone="no"?>
<!-- Created with Inkscape (http://www.inkscape.org/) -->

<svg
   xmlns:dc="http://purl.org/dc/elements/1.1/"
   xmlns:cc="http://creativecommons.org/ns#"
   xmlns:rdf="http://www.w3.org/1999/02/22-rdf-syntax-ns#"
   xmlns:svg="http://www.w3.org/2000/svg"
   xmlns="http://www.w3.org/2000/svg"
   xmlns:sodipodi="http://sodipodi.sourceforge.net/DTD/sodipodi-0.dtd"
   xmlns:inkscape="http://www.inkscape.org/namespaces/inkscape"
   version="1.0"
   width="208.86046"
   height="244.65999"
   id="svg2780"
   inkscape:version="0.92.4 (5da689c313, 2019-01-14)"
   sodipodi:docname="Rebstein-blazon.svg">
  <metadata
     id="metadata27">
    <rdf:RDF>
      <cc:Work
         rdf:about="">
        <dc:format>image/svg+xml</dc:format>
        <dc:type
           rdf:resource="http://purl.org/dc/dcmitype/StillImage" />
        <dc:title></dc:title>
      </cc:Work>
    </rdf:RDF>
  </metadata>
  <sodipodi:namedview
     pagecolor="#ffffff"
     bordercolor="#666666"
     borderopacity="1"
     objecttolerance="10"
     gridtolerance="10"
     guidetolerance="10"
     inkscape:pageopacity="0"
     inkscape:pageshadow="2"
     inkscape:window-width="1599"
     inkscape:window-height="1355"
     id="namedview25"
     showgrid="false"
     inkscape:zoom="1.4142136"
     inkscape:cx="247.73776"
     inkscape:cy="118.15846"
     inkscape:window-x="19"
     inkscape:window-y="11"
     inkscape:window-maximized="0"
     inkscape:current-layer="svg2780"
     inkscape:measure-start="104.255,149.787"
     inkscape:measure-end="104.255,126.383"
     showguides="true"
     inkscape:object-paths="true"
     inkscape:snap-intersection-paths="true"
     inkscape:snap-global="true" />
  <defs
     id="defs2782" />
  <path
     inkscape:connector-curvature="0"
     style="fill:#ffffff;fill-opacity:1;fill-rule:evenodd;stroke:#000000;stroke-width:1.99999988;stroke-linecap:butt;stroke-miterlimit:4;stroke-dashoffset:0;stroke-opacity:1"
     id="path4212"
     d="m 1,1 3.761095,158.00304 c 2.686489,112.85918 196.651755,112.85918 199.338255,0 L 207.86045,1 Z" />
  <path
     style="opacity:1;fill:none;fill-opacity:1;stroke:#000000;stroke-width:1.00157475;stroke-miterlimit:20;stroke-dasharray:none;stroke-dashoffset:4.57999992;stroke-opacity:1"
     d="m 72.266791,198.99726 6.752392,-13.20391 53.413217,4.26669 10.30309,19.36741"
     id="path1586"
     inkscape:connector-curvature="0"
     sodipodi:nodetypes="cccc" />
  <path
     id="path1572-3"
     style="opacity:1;fill:#cc2918;fill-opacity:1;stroke:#000000;stroke-width:1.00157475;stroke-miterlimit:20;stroke-dasharray:none;stroke-dashoffset:4.57999992;stroke-opacity:1"
     d="m 97.81135,10.25409 v 210.18749 h 6.59039 6.59039 V 10.25409 h -6.59039 z"
     inkscape:connector-curvature="0"
     sodipodi:nodetypes="ccccccc" />
  <path
     style="opacity:1;fill:#009645;fill-opacity:1;stroke:#000000;stroke-width:1;stroke-miterlimit:4;stroke-dasharray:none;stroke-dashoffset:4.57999992;stroke-opacity:1"
     d="m 66.209695,153.75737 c 11.890554,2.43361 16.184304,-1.87324 20.282093,-6.35397 -1.248628,-0.50103 -2.531596,-0.85059 -3.650992,-1.92153 4.236251,-1.58218 6.129474,-6.49194 9.960278,-8.71958 -2.727342,-1.84955 -5.414627,-3.74799 -8.992815,-4.55939 l 0.484258,-3.28851 c -10.359542,-1.7055 -12.248847,1.92273 -14.73253,5.14152 -2.03668,2.63948 -5.809611,-0.34182 -2.848224,-2.73752 2.770096,-2.24097 6.457915,-7.56258 6.813848,-12.23771 -1.261692,-0.64937 -3.120768,-0.57232 -4.162778,-0.39787 1.788893,-4.82201 -0.106069,-9.39158 -1.386849,-14.00324 -4.413229,2.01913 -8.447076,4.41698 -10.383322,8.90878 l -2.273485,-1.39512 c -2.134843,5.35078 -4.349266,10.80201 -1.705904,15.48792 1.715339,3.0408 -2.925577,5.2852 -3.376501,0.84995 -0.961752,-9.46035 -6.058977,-14.58547 -14.332969,-16.84542 -0.864657,1.38675 -1.223657,2.72344 -1.512997,4.05323 -3.849467,-2.81633 -9.016489,-1.34728 -13.749561,-1.28964 0.494872,6.5126 -2.405024,13.82504 2.571072,18.52584 -0.466378,0.56174 -1.038361,1.13392 -1.598312,1.70492 5.291313,7.02186 10.451617,6.39765 15.684625,5.95882 3.497027,-0.29331 3.601814,3.73119 0.601577,3.84381 -6.832925,0.25652 -10.704306,1.18174 -14.343547,2.37799 0.673547,0.81312 1.404159,1.55661 2.338494,2.05152 -7.38648,3.62234 -6.969994,8.61472 -7.879378,13.37431 5.521985,-1.0876 7.215897,2.10061 14.50313,-1.51 -0.568971,1.27826 -1.198812,2.52411 -2.380083,3.47627 6.915543,0.85681 9.850795,-0.47583 15.564872,-6.40234 3.589802,-3.72353 7.687141,-0.17242 2.272121,2.86823 -3.22018,1.8082 -5.318261,5.22558 -7.131668,9.02864 l 3.521656,-0.12786 c -1.118308,3.65121 -0.250487,6.76576 1.040847,9.76587 2.205386,-2.04515 4.894153,-2.39991 7.505219,-3.02642 3.610435,-0.64615 5.024717,-2.54562 6.405619,-4.46414 0.71223,0.50268 1.353598,1.15526 1.893771,2.02192 9.374794,-9.18473 8.050052,-14.94811 4.998464,-20.1593 z"
     id="path913"
     inkscape:connector-curvature="0"
     sodipodi:nodetypes="ccccccsscccccsscccccsscccccssccccccc" />
  <path
     style="opacity:1;fill:#009645;fill-opacity:1;stroke:#000000;stroke-width:1;stroke-miterlimit:4;stroke-dasharray:none;stroke-dashoffset:4.57999992;stroke-opacity:1"
     d="m 143.44589,78.73104 c -4.97164,3.149392 -9.12862,3.767466 -12.7647,2.820264 -2.90913,-0.75783 -3.94106,-4.23953 -8.7334,-6.440775 0.66126,-0.907501 1.27583,-1.848365 2.27486,-2.514456 -5.04949,-1.847686 -5.704,-6.362048 -8.25808,-9.723818 3.21151,-2.842532 6.55499,-3.574084 9.97102,-3.144844 -0.13594,-0.988537 -0.35416,-2.002415 -0.62041,-3.031086 5.7856,-1.703819 8.72148,2.723141 12.31425,5.775351 2.85726,2.427355 4.16093,-0.827732 2.57225,-2.262112 -5.3916,-4.867919 -7.51349,-10.327523 -4.75459,-16.575335 0.57202,0.408082 0.98371,0.810948 2.29641,1.243129 3.12917,-5.512475 8.64149,-8.102068 14.20514,-10.628698 1.15605,3.460917 4.03323,6.11859 2.00377,11.066214 0.86716,0.03873 1.70049,0.01352 2.69579,0.294437 -0.18488,3.952253 -1.78997,6.301643 -3.56419,8.440377 -2.72856,3.289131 2.15855,6.499367 3.57637,1.958856 1.92583,-6.167439 7.14519,-10.105067 15.51192,-11.565844 -0.16281,1.11765 -0.69258,2.088051 -0.16306,4.18299 4.60786,-3.701229 10.26209,-3.030829 16.49141,0.04226 0.27952,3.044916 -4.71452,11.246896 -7.15774,14.192459 0.97692,0.964235 2.04919,1.092886 2.7557,1.491754 -2.56857,5.728018 -10.06192,5.280355 -16.11669,6.39618 -1.91496,0.352908 -2.87686,3.659708 0.77116,2.541663 3.92409,-1.202657 7.34459,0.153306 10.74142,2.183 -0.63022,0.925359 -1.35138,1.678826 -2.11669,2.348835 6.16868,1.974194 8.76858,6.127901 8.24989,12.186197 -3.88738,-0.240813 -6.01275,1.473118 -8.98229,1.698207 -2.23493,0.169412 -4.49263,-0.433932 -6.75992,-1.563297 l -0.37747,3.313185 c -4.92693,-1.895321 -8.81042,-4.301024 -9.76063,-8.846966 -0.82648,-3.954033 -6.22876,-0.920186 -3.68285,1.866464 3.13591,3.432429 5.57919,7.164573 7.28835,10.523631 -1.0799,0.0777 -1.9913,0.24046 -2.64146,0.66004 1.27682,3.120378 0.16377,6.688568 -0.9892,9.822888 -5.05031,-1.26369 -8.91661,-3.83163 -10.72833,-8.66275 -0.57423,0.77307 -1.16667,1.51169 -1.83045,2.11548 -5.00888,-8.395957 -5.14369,-15.505843 -3.71762,-22.203878 z"
     id="path911"
     inkscape:connector-curvature="0"
     sodipodi:nodetypes="cscccccsscccccsscccccsscccsccsscccccc" />
  <path
     id="path2376"
     style="opacity:1;fill:#009645;fill-opacity:1;stroke:#000000;stroke-width:1.00157475;stroke-miterlimit:20;stroke-dasharray:none;stroke-dashoffset:4.57999992;stroke-opacity:1"
     d="m 120.70083,29.764619 c -7.07095,-2.0461 -17.4212,4.1293 -24.20083,12.645369 -10.581139,13.291246 -5.794832,30.385634 0.5,36.125 9.22638,8.412227 16.82019,12.7888 25.24112,21.493722 4.57199,-10.893823 15.62764,-15.645978 21.06968,-22.946825 -4.50778,-3.23688 -10.1002,-6.206441 -15.31037,-9.27021 5.29334,1.788305 10.59514,3.427697 16.13675,6.012452 -0.17668,-9.013093 0.76074,-16.306328 1.72264,-23.98209 0.40854,7.522469 0.22094,14.881632 1.39439,22.613632 6.99069,-5.273799 14.43992,-9.635454 22.45926,-13.766492 -7.64021,5.54868 -13.24226,9.115686 -20.41618,15.913797 11.49862,0.982341 18.87559,3.046783 25.80156,6.964507 -12.92756,-3.822471 -21.66839,-5.115657 -27.14283,-3.714563 1.0918,6.876329 3.88911,14.181262 6.8363,20.930492 -3.64269,-5.327188 -6.74891,-11.791935 -9.5696,-18.862099 -15.96953,13.500378 -20.53836,20.509399 -19.84786,23.786719 1.00515,4.77069 3.82341,8.11729 4.06261,15.51446 3.68772,-2.38818 6.38175,-3.89153 13.625,-3.5 8.8241,0.47698 14.74365,1.31318 15.8125,4.5625 0.6407,1.94775 2.32426,2.25641 4,2.5 14.4267,2.09707 10.74758,5.35271 11.75,13.375 l -5.1875,2.25 c 0.56703,-10.58316 -0.72661,-9.89211 -8.1875,-11 1.0901,4.52669 1.2541,8.65651 1.1875,12.6875 l -5.1875,0.0625 c 0.35302,-3.5 0.083,-7 -0.5625,-10.5 -7.19495,4.14583 -5.98553,5.66667 -7.0625,12.625 l -4.6875,-0.9375 c 1.18027,-4.42119 0.28561,-9.53224 5.9375,-12.75 1.24019,-0.70607 2.30771,-1.26771 2.3125,-3 0.0102,-3.69413 -1.95565,-3.72355 -3.75,-4.0625 -9.1332,-1.72523 -18.49716,-1.58057 -20.125,7.8125 -4.10013,23.65883 -10.98882,28.10973 -20.8125,38.4375 -3.35335,3.52543 -4.40953,6.87054 -7.68862,12.25 -2.421258,4.42461 -2.073852,28.41161 -2.094312,42.66161 l -17.133854,0.42051 c 0,0 4.774411,-29.30918 2.562523,-42.2735 -0.365373,-2.14152 -1.183775,-5.00048 -2.235597,-6.59879 -3.889803,-5.91079 -9.798497,-14.7078 -17.306968,-20.65405 -3.365566,5.2703 -7.303668,10.40173 -11.742422,14.70313 3.419093,-5.00574 6.215455,-10.24676 8.771542,-16.04935 -8.81727,-0.92246 -17.451378,-0.81118 -26.022447,0.10352 7.976508,-2.58713 16.361545,-2.94677 24.07143,-3.24326 -7.040865,-7.1125 -14.78718,-13.94228 -22.446181,-20.30056 8.318085,5.12085 16.18178,11.3397 24.103607,17.5846 -1.812373,-8.10304 -3.046991,-16.37976 -0.144442,-24.85277 -1.274682,9.39545 0.599858,17.58996 3.82951,26.05014 5.224487,-3.97662 10.370145,-6.54719 15.615618,-7.92605 -4.890767,3.46032 -10.322502,5.52778 -13.962274,11.03826 7.319284,7.31154 14.462763,15.17412 19.508577,23.54368 9.419091,-17.7799 13.87035,-14.14075 23.56802,-27.39277 7.60703,-10.39513 9.22276,-28.71632 3.99632,-38.06434 C 109.96478,102.01473 99.184259,92.931576 96.924175,93.778706 89.839674,96.434136 85.164587,93.896202 79.5,89.409988 c -2.144588,-1.698461 -4.800316,-4.038937 -8.375,-2.125 -2.961426,1.58559 -5.206621,6.462245 -2.103553,8.781631 4.661094,3.483932 5.611646,-1.334011 7.103553,-2.781631 2.349476,3.390164 1.39454,7.071712 -4.375,7.500002 -5.053717,0.37515 -9.613256,-3.535562 -7.5,-10.875002 2.549723,-8.85531 11.370705,-8.383632 16.5,-4.625 3.000514,2.198709 6.397834,5.0218 11.8125,3.375 C 81.833859,77.15737 79.762912,63.672189 84,47.909988 85.018522,44.121029 83.899023,40.03074 81.935998,36.505429 78.838361,30.942519 75.697992,24.604309 65.318989,25.766245 c -5.597226,0.626613 -11.034118,1.784848 -11.402097,5.877825 10.054722,1.428199 11.779764,6.743581 11.313709,13.081476 l -5.038136,0.972271 c 1.88989,-7.618159 -3.539059,-8.603621 -9.015612,-9.545941 -3.15829,4.121853 -2.431357,8.567475 -3.005203,12.904699 l -5.568466,-0.707107 3.447145,-14.937631 c -7.13345,-1.139237 -7.499773,7.351671 -8.750446,14.584078 l -4.596194,-2.209709 c 1.037084,-9.76201 4.528318,-16.302711 11.313708,-17.324116 3.519922,-0.529854 5.727485,-0.77989 7.292039,-3.402952 2.00925,-3.36862 5.751602,-4.236239 9.236582,-4.331029 -2.429488,-3.060945 -2.778987,-6.043945 -0.353553,-7.999145 3.068252,-2.473391 6.847454,-3.505115 8.927223,-0.883884 1.451272,1.829106 -0.171822,3.597763 -1.325825,4.684583 -0.674114,-0.986863 -0.708658,-2.829576 -2.740039,-2.298097 -2.005135,0.524612 -2.135823,2.05343 -0.972272,3.71231 0.889928,1.268774 1.953014,2.378603 3.447146,2.121321 6.195692,-0.896993 17.829812,5.027137 21.846302,16.344791 6.429221,-7.186991 13.88219,-12.825903 23.71967,-13.743718 9.44653,-0.881341 13.89675,3.368838 21.07767,4.160849 3.45746,0.381337 7.65825,-7.19909 3.2526,-8.454505 -4.17813,-1.190581 -3.56616,-6.981757 -1.125,-9.0312497 2.79099,-2.3431977 5.7818,-3.2317165 8.375,-1.40625 2.68283,1.888564 0.57081,4.4038607 -1,5.7187497 -0.12161,-1.272017 0.49986,-3.9309787 -2.4375,-2.96875 -2.70054,0.884649 -3.48975,3.987262 -0.625,4.875 2.60471,0.807155 2.61947,2.113362 2.75,3.6875 5.35417,-6.479311 11.18144,-9.3930584 16.7696,-2.474111 3.68963,4.568302 5.39291,10.86218 11.4804,12.536611 2.55164,0.701855 3.8254,-0.762271 4.125,-3.0625 0.20311,-1.559391 -0.84274,-2.184849 -2.11742,-2.118068 -0.59265,0.03105 -1.27037,0.509891 -1.19508,2.680568 -1.89266,-1.168877 -2.84112,-3.553788 -0.25,-5.125 3.19481,-1.93728 7.59791,-0.495264 7.625,4.8125 0.0343,6.720434 -4.05499,7.15569 -8.5,7.125 -5.7858,-0.03995 -9.1168,-4.779336 -12.1875,-9.6875 -4.01201,-6.412755 -7.75453,-7.027239 -11.59283,-1.135723 -4.05309,6.221214 -5.21872,8.675466 -11.08135,10.421574 -3.38102,1.006992 -10.99799,-2.084907 -15.73743,-3.456346 z"
     inkscape:connector-curvature="0"
     sodipodi:nodetypes="sssccccccccccccscsccccccccccssssscccssccccccccccccsssssscssscssscccccccccsscsscssccssssscsscsssscsssssss" />
  <path
     style="opacity:1;fill:#cc2918;fill-opacity:1;stroke:#000000;stroke-width:1.00157475;stroke-miterlimit:20;stroke-dasharray:none;stroke-dashoffset:4.57999992;stroke-opacity:1"
     d="m 97.81135,127.0342 v 89.5625 h 13.18078 v -89.375"
     id="path2436"
     inkscape:connector-curvature="0" />
  <path
     style="opacity:1;fill:#ffffff;fill-opacity:1;stroke:#000000;stroke-width:1.00157475;stroke-miterlimit:20;stroke-dasharray:none;stroke-dashoffset:4.57999992;stroke-opacity:1"
     d="m 92.538303,212.31134 -23.418615,-15.38106 -15.898864,9.50673 -9.311578,21.00954 c 11.234758,7.15683 24.767621,11.94685 40.607825,14.36055"
     id="path1574"
     inkscape:connector-curvature="0"
     sodipodi:nodetypes="ccccc" />
  <path
     style="opacity:1;fill:#ffffff;fill-opacity:1;stroke:#000000;stroke-width:1.00157475;stroke-miterlimit:20;stroke-dasharray:none;stroke-dashoffset:4.57999992;stroke-opacity:1"
     d="m 134.14499,240.1168 c -23.00247,6.13459 -44.771915,3.6518 -66.110432,-1.8427 L 83.125,216.78499 l 37.875,-18 18.77037,14.22927"
     id="path1580"
     inkscape:connector-curvature="0"
     sodipodi:nodetypes="ccccc" />
  <path
     style="opacity:1;fill:#ffffff;fill-opacity:1;stroke:#000000;stroke-width:1.00157475;stroke-miterlimit:20;stroke-dasharray:none;stroke-dashoffset:4.57999992;stroke-opacity:1"
     d="m 128.43883,241.36476 9.2623,-25.84741 12.79887,-15.48236 8.125,11 5.51427,16.90694 c -11.27381,7.17076 -23.42374,10.56966 -35.70044,13.42283 z"
     id="path1578"
     inkscape:connector-curvature="0"
     sodipodi:nodetypes="cccccc" />
  <path
     style="opacity:1;fill:none;fill-opacity:1;stroke:#000000;stroke-width:1.00157475;stroke-miterlimit:20;stroke-dasharray:none;stroke-dashoffset:4.57999992;stroke-opacity:1"
     d="m 121,198.78499 -0.52668,23.95469 9.46102,15.82336"
     id="path1582"
     inkscape:connector-curvature="0"
     sodipodi:nodetypes="ccc" />
  <g
     id="g2474">
    <circle
       r="6.5407376"
       cy="186.3891"
       cx="158.10638"
       id="path1620"
       style="opacity:1;fill:#1b63c6;fill-opacity:1;stroke:#000000;stroke-width:1.00157475;stroke-miterlimit:20;stroke-dasharray:none;stroke-dashoffset:4.57999992;stroke-opacity:1" />
    <circle
       r="6.8942909"
       cy="178.15642"
       cx="167.35683"
       id="path1618"
       style="opacity:1;fill:#1b63c6;fill-opacity:1;stroke:#000000;stroke-width:1.00157475;stroke-miterlimit:20;stroke-dasharray:none;stroke-dashoffset:4.57999992;stroke-opacity:1" />
    <circle
       r="7.5130095"
       cy="178.16898"
       cx="149.26755"
       id="path1616"
       style="opacity:1;fill:#1b63c6;fill-opacity:1;stroke:#000000;stroke-width:1.00157475;stroke-miterlimit:20;stroke-dasharray:none;stroke-dashoffset:4.57999992;stroke-opacity:1" />
    <circle
       r="7.1355047"
       cy="165.48721"
       cx="144.87209"
       id="path1608"
       style="opacity:1;fill:#1b63c6;fill-opacity:1;stroke:#000000;stroke-width:1.00157475;stroke-miterlimit:20;stroke-dasharray:none;stroke-dashoffset:4.57999992;stroke-opacity:1" />
    <circle
       r="7.9685473"
       cy="171.84921"
       cx="157.44348"
       id="path1614"
       style="opacity:1;fill:#1b63c6;fill-opacity:1;stroke:#000000;stroke-width:1.00157475;stroke-miterlimit:20;stroke-dasharray:none;stroke-dashoffset:4.57999992;stroke-opacity:1" />
    <circle
       r="7.7781744"
       cy="165.17589"
       cx="173.75113"
       id="path1612"
       style="opacity:1;fill:#1b63c6;fill-opacity:1;stroke:#000000;stroke-width:1.00157475;stroke-miterlimit:20;stroke-dasharray:none;stroke-dashoffset:4.57999992;stroke-opacity:1" />
    <circle
       r="7.689786"
       cy="167.12044"
       cx="164.38196"
       id="path1610"
       style="opacity:1;fill:#1b63c6;fill-opacity:1;stroke:#000000;stroke-width:1.00157464;stroke-miterlimit:20;stroke-dasharray:none;stroke-dashoffset:4.57999992;stroke-opacity:1" />
    <circle
       r="8.7504463"
       cy="151.12215"
       cx="139.89839"
       id="path1594"
       style="opacity:1;fill:#1b63c6;fill-opacity:1;stroke:#000000;stroke-width:1.00157475;stroke-miterlimit:20;stroke-dasharray:none;stroke-dashoffset:4.57999992;stroke-opacity:1" />
    <circle
       r="8.087534"
       cy="157.35353"
       cx="153.81955"
       id="path1606"
       style="opacity:1;fill:#1b63c6;fill-opacity:1;stroke:#000000;stroke-width:1.00157475;stroke-miterlimit:20;stroke-dasharray:none;stroke-dashoffset:4.57999992;stroke-opacity:1" />
    <circle
       r="8.1317272"
       cy="156.07188"
       cx="166.68005"
       id="path1604"
       style="opacity:1;fill:#1b63c6;fill-opacity:1;stroke:#000000;stroke-width:1.00157464;stroke-miterlimit:20;stroke-dasharray:none;stroke-dashoffset:4.57999992;stroke-opacity:1" />
    <circle
       r="6.5991459"
       cy="144.39511"
       cx="183.23866"
       id="path1600"
       style="opacity:1;fill:#1b63c6;fill-opacity:1;stroke:#000000;stroke-width:1.00157475;stroke-miterlimit:20;stroke-dasharray:none;stroke-dashoffset:4.57999992;stroke-opacity:1" />
    <circle
       r="6.7835236"
       cy="152.66895"
       cx="178.5683"
       id="path1602"
       style="opacity:1;fill:#1b63c6;fill-opacity:1;stroke:#000000;stroke-width:1.00157475;stroke-miterlimit:20;stroke-dasharray:none;stroke-dashoffset:4.57999992;stroke-opacity:1" />
    <circle
       r="6.2755728"
       cy="137.74701"
       cx="141.14915"
       id="path1592"
       style="opacity:1;fill:#1b63c6;fill-opacity:1;stroke:#000000;stroke-width:1.00157475;stroke-miterlimit:20;stroke-dasharray:none;stroke-dashoffset:4.57999992;stroke-opacity:1" />
    <circle
       r="7.5130095"
       cy="144.49303"
       cx="147.49979"
       id="path1590"
       style="opacity:1;fill:#1b63c6;fill-opacity:1;stroke:#000000;stroke-width:1.00157475;stroke-miterlimit:20;stroke-dasharray:none;stroke-dashoffset:4.57999992;stroke-opacity:1" />
    <circle
       r="8.3085051"
       cy="143.78592"
       cx="160.13931"
       id="path1596"
       style="opacity:1;fill:#1b63c6;fill-opacity:1;stroke:#000000;stroke-width:1.00157475;stroke-miterlimit:20;stroke-dasharray:none;stroke-dashoffset:4.57999992;stroke-opacity:1" />
    <circle
       r="7.7227015"
       cy="140.1131"
       cx="176.8118"
       id="path1598"
       style="opacity:1;fill:#1b63c6;fill-opacity:1;stroke:#000000;stroke-width:1.00157475;stroke-miterlimit:20;stroke-dasharray:none;stroke-dashoffset:4.57999992;stroke-opacity:1" />
    <circle
       r="7.8665628"
       cy="142.54848"
       cx="169.33171"
       id="path1588"
       style="opacity:1;fill:#1b63c6;fill-opacity:1;stroke:#000000;stroke-width:1.00157475;stroke-miterlimit:20;stroke-dasharray:none;stroke-dashoffset:4.57999992;stroke-opacity:1" />
  </g>
  <path
     style="opacity:1;fill:none;fill-opacity:1;stroke:#000000;stroke-width:1.00157475;stroke-miterlimit:20;stroke-dasharray:none;stroke-dashoffset:4.57999992;stroke-opacity:1"
     d="m 53.220824,206.43701 15.545311,4.45863"
     id="path1576"
     inkscape:connector-curvature="0"
     sodipodi:nodetypes="cc" />
  <g
     id="g2434"
     style="stroke:#000000;stroke-opacity:1">
    <circle
       r="5.2149124"
       cy="94.134628"
       cx="41.100578"
       id="path1660"
       style="opacity:1;fill:#1b63c6;fill-opacity:1;stroke:#000000;stroke-width:1.00157475;stroke-miterlimit:20;stroke-dasharray:none;stroke-dashoffset:4.57999992;stroke-opacity:1" />
    <circle
       r="7.2942972"
       cy="87.593895"
       cx="48.17165"
       id="path1658"
       style="opacity:1;fill:#1b63c6;fill-opacity:1;stroke:#000000;stroke-width:1.00157475;stroke-miterlimit:20;stroke-dasharray:none;stroke-dashoffset:4.57999992;stroke-opacity:1" />
    <circle
       r="6.9826794"
       cy="83.793198"
       cx="36.592773"
       id="path1654"
       style="opacity:1;fill:#1b63c6;fill-opacity:1;stroke:#000000;stroke-width:1.00157475;stroke-miterlimit:20;stroke-dasharray:none;stroke-dashoffset:4.57999992;stroke-opacity:1" />
    <circle
       r="6.7175145"
       cy="82.467369"
       cx="54.712387"
       id="path1656"
       style="opacity:1;fill:#1b63c6;fill-opacity:1;stroke:#000000;stroke-width:1.00157475;stroke-miterlimit:20;stroke-dasharray:none;stroke-dashoffset:4.57999992;stroke-opacity:1" />
    <circle
       r="7.50491"
       cy="70.984985"
       cx="61.232296"
       id="path1648"
       style="opacity:1;fill:#1b63c6;fill-opacity:1;stroke:#000000;stroke-width:1.00157475;stroke-miterlimit:20;stroke-dasharray:none;stroke-dashoffset:4.57999992;stroke-opacity:1" />
    <circle
       r="6.805903"
       cy="73.451759"
       cx="54.889164"
       id="path1646"
       style="opacity:1;fill:#1b63c6;fill-opacity:1;stroke:#000000;stroke-width:1.00157475;stroke-miterlimit:20;stroke-dasharray:none;stroke-dashoffset:4.57999992;stroke-opacity:1" />
    <circle
       r="6.9769268"
       cy="72.131683"
       cx="27.535593"
       id="path1652"
       style="opacity:1;fill:#1b63c6;fill-opacity:1;stroke:#000000;stroke-width:1.00157475;stroke-miterlimit:20;stroke-dasharray:none;stroke-dashoffset:4.57999992;stroke-opacity:1" />
    <circle
       r="6.8835025"
       cy="74.600807"
       cx="34.206287"
       id="path1650"
       style="opacity:1;fill:#1b63c6;fill-opacity:1;stroke:#000000;stroke-width:1.00157475;stroke-miterlimit:20;stroke-dasharray:none;stroke-dashoffset:4.57999992;stroke-opacity:1" />
    <circle
       r="7.2920389"
       cy="74.910164"
       cx="44.415142"
       id="path1644"
       style="opacity:1;fill:#1b63c6;fill-opacity:1;stroke:#000000;stroke-width:1.00157475;stroke-miterlimit:20;stroke-dasharray:none;stroke-dashoffset:4.57999992;stroke-opacity:1" />
    <circle
       r="7.7170115"
       cy="59.219543"
       cx="67.664139"
       id="path1642"
       style="opacity:1;fill:#1b63c6;fill-opacity:1;stroke:#000000;stroke-width:1.00157475;stroke-miterlimit:20;stroke-dasharray:none;stroke-dashoffset:4.57999992;stroke-opacity:1" />
    <circle
       r="6.8942909"
       cy="61.519329"
       cx="61.164734"
       id="path1640"
       style="opacity:1;fill:#1b63c6;fill-opacity:1;stroke:#000000;stroke-width:1.00157475;stroke-miterlimit:20;stroke-dasharray:none;stroke-dashoffset:4.57999992;stroke-opacity:1" />
    <circle
       r="7.2478447"
       cy="62.226437"
       cx="25.102291"
       id="path1636"
       style="opacity:1;fill:#1b63c6;fill-opacity:1;stroke:#000000;stroke-width:1.00157475;stroke-miterlimit:20;stroke-dasharray:none;stroke-dashoffset:4.57999992;stroke-opacity:1" />
    <circle
       r="8.2201176"
       cy="63.640656"
       cx="37.211494"
       id="path1638"
       style="opacity:1;fill:#1b63c6;fill-opacity:1;stroke:#000000;stroke-width:1.00157475;stroke-miterlimit:20;stroke-dasharray:none;stroke-dashoffset:4.57999992;stroke-opacity:1" />
    <circle
       r="8.0433397"
       cy="62.138046"
       cx="51.176849"
       id="path1628"
       style="opacity:1;fill:#1b63c6;fill-opacity:1;stroke:#000000;stroke-width:1.00157475;stroke-miterlimit:20;stroke-dasharray:none;stroke-dashoffset:4.57999992;stroke-opacity:1" />
    <circle
       r="6.805903"
       cy="45.874592"
       cx="67.263535"
       id="path1626"
       style="opacity:1;fill:#1b63c6;fill-opacity:1;stroke:#000000;stroke-width:1.00157475;stroke-miterlimit:20;stroke-dasharray:none;stroke-dashoffset:4.57999992;stroke-opacity:1" />
    <circle
       r="7.5130095"
       cy="48.614632"
       cx="24.837126"
       id="path1634"
       style="opacity:1;fill:#1b63c6;fill-opacity:1;stroke:#000000;stroke-width:1.00157475;stroke-miterlimit:20;stroke-dasharray:none;stroke-dashoffset:4.57999992;stroke-opacity:1" />
    <circle
       r="7.9107571"
       cy="49.896259"
       cx="31.245281"
       id="path1632"
       style="opacity:1;fill:#1b63c6;fill-opacity:1;stroke:#000000;stroke-width:1.00157475;stroke-miterlimit:20;stroke-dasharray:none;stroke-dashoffset:4.57999992;stroke-opacity:1" />
    <circle
       r="7.5130095"
       cy="51.266281"
       cx="41.012192"
       id="path1630"
       style="opacity:1;fill:#1b63c6;fill-opacity:1;stroke:#000000;stroke-width:1.00157475;stroke-miterlimit:20;stroke-dasharray:none;stroke-dashoffset:4.57999992;stroke-opacity:1" />
    <circle
       r="7.4246211"
       cy="48.703018"
       cx="61.429901"
       id="path1624"
       style="opacity:1;fill:#1b63c6;fill-opacity:1;stroke:#000000;stroke-width:1.00157475;stroke-miterlimit:20;stroke-dasharray:none;stroke-dashoffset:4.57999992;stroke-opacity:1" />
    <circle
       r="7.601398"
       cy="49.586903"
       cx="52.591064"
       id="path1622"
       style="opacity:1;fill:#1b63c6;fill-opacity:1;stroke:#000000;stroke-width:1.00157475;stroke-miterlimit:20;stroke-dasharray:none;stroke-dashoffset:4.57999992;stroke-opacity:1" />
  </g>
  <path
     style="opacity:1;fill:#cc2918;fill-opacity:1;stroke:#000000;stroke-width:1.00157475;stroke-miterlimit:20;stroke-dasharray:none;stroke-dashoffset:4.57999992;stroke-opacity:1"
     d="M 97.81135,43.576497 V 10.25409 h 13.18078 v 32.968854"
     id="path2438"
     inkscape:connector-curvature="0" />
  <path
     inkscape:connector-curvature="0"
     style="fill:none;fill-opacity:1;fill-rule:evenodd;stroke:#000000;stroke-width:1.99999988;stroke-linecap:butt;stroke-miterlimit:4;stroke-dashoffset:0;stroke-opacity:1"
     id="path4212-7"
     d="M 1,0.99999834 4.761095,159.00304 c 2.686489,112.85918 196.651755,112.85918 199.338255,0 l 3.7611,-158.00304166 z" />
</svg>
