<?xml version="1.0" encoding="UTF-8"?>
<!DOCTYPE svg  PUBLIC '-//W3C//DTD SVG 1.1//EN'  'http://www.w3.org/Graphics/SVG/1.1/DTD/svg11.dtd'>
<svg enable-background="new 0 0 603 763" version="1.1" viewBox="0 0 603 763" xml:space="preserve" xmlns="http://www.w3.org/2000/svg">


<desc>Coat of Arms of Canton of Freiburg (Fribourg)</desc>

	<path d="m1.5 1.5v458.87c0 166.31 134.31 301.13 300 301.13s300-134.82 300-301.13v-458.87h-600z" fill="#5AB532"/>
	<path d="m201.5 744.34c31.281 11.102 64.933 17.159 100 17.159 165.69 0 300-134.82 300-301.13v-458.87h-400v742.84z" fill="#fff"/>
	<path d="m401.5 744.34c116.51-41.342 200-152.86 200-283.97v-458.87h-200v742.84z" fill="#5AB532"/>


	<g fill="none" stroke="#000" stroke-width="3">
		<line x1="201.5" x2="201.5" y1="1.5" y2="744.36"/>
		<line x1="401.5" x2="401.5" y1="1.5" y2="744.36"/>
	</g>


	<polygon points="301.5 244.5 301.5 244.5 226.5 244.5 226.5 494.5 261.5 519.5 261.5 359.5 286.5 359.5 286.5 534.5 301.5 534.5 301.5 534.5 316.5 534.5 316.5 359.5 341.5 359.5 341.5 519.5 376.5 494.5 376.5 244.5"/>
	<path d="m370.15 197.21c-13.059 0-23.646 10.587-23.646 23.647s10.588 23.646 23.646 23.646c13.06 0 23.646-10.584 23.646-23.646 1e-3 -13.06-10.587-23.647-23.646-23.647zm0 32.515c-4.896 0-8.867-3.973-8.867-8.866 0-4.896 3.972-8.868 8.867-8.868 4.898 0 8.868 3.972 8.868 8.868 1e-3 4.894-3.969 8.866-8.868 8.866z" fill="#FCEF3C" stroke="#000" stroke-width="3"/>
	<path d="m301.5 197.21c-13.058 0-23.646 10.587-23.646 23.646 0 13.062 10.589 23.646 23.646 23.646 13.06 0 23.646-10.585 23.646-23.646 0-13.059-10.586-23.646-23.646-23.646zm0 32.515c-4.896 0-8.867-3.973-8.867-8.866 0-4.896 3.971-8.867 8.867-8.867 4.898 0 8.87 3.972 8.87 8.867-1e-3 4.893-3.972 8.866-8.87 8.866z" fill="#FCEF3C" stroke="#000" stroke-width="3"/>
	<path d="m232.85 197.21c-13.058 0-23.646 10.587-23.646 23.646 0 13.062 10.589 23.646 23.646 23.646 13.06 0 23.646-10.585 23.646-23.646 0-13.059-10.587-23.646-23.646-23.646zm0 32.515c-4.896 0-8.867-3.973-8.867-8.866 0-4.896 3.971-8.867 8.867-8.867 4.899 0 8.869 3.972 8.869 8.867 0 4.893-3.971 8.866-8.869 8.866z" fill="#FCEF3C" stroke="#000" stroke-width="3"/>
	<path d="m301.5 159.5"/>
	
		<rect x="289.23" y="509.5" width="2.727" height="25" fill="#FCEF3C"/>
		<rect x="291.96" y="509.5" width="2.728" height="25"/>
		<rect x="294.68" y="509.5" width="2.727" height="25" fill="#FCEF3C"/>
		<rect x="297.41" y="509.5" width="2.728" height="25"/>
		<rect x="286.5" y="509.5" width="2.728" height="25"/>
		<rect x="300.14" y="509.5" width="2.726" height="25" fill="#FCEF3C"/>
		<rect x="302.86" y="509.5" width="2.729" height="25"/>
		<rect x="305.59" y="509.5" width="2.729" height="25" fill="#FCEF3C"/>
		<rect x="308.32" y="509.5" width="2.728" height="25"/>
		<rect x="311.04" y="509.5" width="2.729" height="25" fill="#FCEF3C"/>
		<rect x="313.77" y="509.5" width="2.729" height="25"/>
	
	
		<polygon points="345.1 491.56 348.24 489.4 348.24 514.4 345.1 516.56" fill="#FCEF3C"/>
		<polygon points="348.24 489.4 351.38 487.24 351.38 512.24 348.24 514.4"/>
		<polygon points="351.38 487.24 354.52 485.08 354.52 510.08 351.38 512.24" fill="#FCEF3C"/>
		<polygon points="354.52 485.08 357.66 482.92 357.66 507.92 354.52 510.08"/>
		<polygon points="341.96 493.73 345.1 491.56 345.1 516.56 341.96 518.73"/>
		<polygon points="357.66 482.92 360.8 480.75 360.8 505.75 357.66 507.92" fill="#FCEF3C"/>
		<polygon points="360.8 480.75 363.94 478.59 363.94 503.59 360.8 505.75"/>
		<polygon points="363.94 478.59 367.08 476.43 367.08 501.43 363.94 503.59" fill="#FCEF3C"/>
		<polygon points="367.08 476.43 370.22 474.26 370.22 499.26 367.08 501.43"/>
		<polygon points="370.22 474.26 373.36 472.1 373.36 497.1 370.22 499.26" fill="#FCEF3C"/>
		<polygon points="373.36 472.1 376.5 469.94 376.5 494.94 373.36 497.1"/>
	
	<polyline points="301.5 244.5 376.5 244.5 376.5 494.5 341.5 519.5 341.5 359.5 316.5 359.5 316.5 534.5 301.5 534.5" fill="none" stroke="#000"/>
	
		<polygon points="258.04 516.03 254.9 513.87 254.9 488.87 258.04 491.03" fill="#FCEF3C"/>
		<polygon points="254.9 513.87 251.75 511.7 251.75 486.7 254.9 488.87"/>
		<polygon points="251.75 511.7 248.61 509.54 248.61 484.54 251.75 486.7" fill="#FCEF3C"/>
		<polygon points="248.61 509.54 245.47 507.38 245.47 482.38 248.61 484.54"/>
		<polygon points="261.18 518.19 258.04 516.03 258.04 491.03 261.18 493.19"/>
		<polygon points="245.47 507.38 242.33 505.22 242.33 480.22 245.47 482.38" fill="#FCEF3C"/>
		<polygon points="242.33 505.22 239.19 503.06 239.19 478.06 242.33 480.22"/>
		<polygon points="239.19 503.06 236.05 500.9 236.05 475.9 239.19 478.06" fill="#FCEF3C"/>
		<polygon points="236.05 500.9 232.91 498.73 232.91 473.73 236.05 475.9"/>
		<polygon points="232.91 498.73 229.77 496.57 229.77 471.57 232.91 473.73" fill="#FCEF3C"/>
		<polygon points="229.77 496.57 226.63 494.41 226.63 469.41 229.77 471.57"/>
	
	<polyline points="301.5 244.5 226.5 244.5 226.5 494.5 261.5 519.5 261.5 359.5 286.5 359.5 286.5 534.5 301.5 534.5" fill="none" stroke="#000"/>


	
		<radialGradient id="a" cx="818.4" cy="-435.42" r="300" gradientTransform="matrix(1.215 0 0 1.2667 -791.03 795.62)" gradientUnits="userSpaceOnUse">
		<stop stop-color="#fff" stop-opacity=".3137" offset="0"/>
		<stop stop-color="#fff" stop-opacity=".251" offset=".19"/>
		<stop stop-color="#6B6B6B" stop-opacity=".1255" offset=".6"/>
		<stop stop-opacity=".1255" offset="1"/>
	</radialGradient>
	<path d="m1.5 1.5v458.87c0 166.31 134.31 301.13 300 301.13s300-134.82 300-301.13v-458.87h-600z" fill="url(#a)"/>


	<path d="m1.5 1.5v458.87c0 166.31 134.31 301.13 300 301.13s300-134.82 300-301.13v-458.87h-600z" fill="none" stroke="#000" stroke-width="3"/>

</svg>
