<?xml version="1.0" encoding="UTF-8"?>
<svg version="1.0" viewBox="0 0 208.86 244.66" xmlns="http://www.w3.org/2000/svg" xmlns:cc="http://creativecommons.org/ns#" xmlns:dc="http://purl.org/dc/elements/1.1/" xmlns:rdf="http://www.w3.org/1999/02/22-rdf-syntax-ns#">
<metadata>
<rdf:RDF>
<cc:Work rdf:about="">
<dc:format>image/svg+xml</dc:format>
<dc:type rdf:resource="http://purl.org/dc/dcmitype/StillImage"/>
<dc:title/>
</cc:Work>
</rdf:RDF>
</metadata>
<path d="m1 1 3.7611 158c2.6865 112.86 196.65 112.86 199.34 0l3.7611-158z" fill="#fff" fill-rule="evenodd" stroke="#000" stroke-width="2"/>
<path d="m104.43 1v242.65c-39.163-0.4626-90.66-18.393-98.938-74.922l-4.4921-167.73z" fill="#cc2918" stroke="#000" stroke-dashoffset="4.58"/>
<g fill="#cc2918" stroke="#000" stroke-dashoffset="4.58">
<rect x="114.75" y="23.66" width="13.25" height="184"/>
<path d="m145.69 23.66-13.403-1e-6 28.037 184 10.741-0.01 28.037-184h-13.403l-20.005 131.29z"/>
</g>
<g transform="translate(-2.5)" fill="#fff" stroke="#000" stroke-dashoffset="4.58">
<path d="m46.651 76.79c1.449 2.2312 1.3476 6.2011-0.8836 7.6501-2.2312 1.449-6.7374 1.0777-8.1864-1.1536-1.449-2.2312 0.0468-5.5107 3.0849-4.7435 0.15936-0.53501 0.2713-1.106 0.42925-1.5294-4.7233-0.40902-8.297-2.263-10.9-5.1071-0.59004 2.5901-3.1766 4.2064-5.7689 3.608-2.5923-0.59847-4.967-4.222-4.3685-6.8142 0.59847-2.5923 3.9966-3.7944 5.5552-1.076 0.49555-0.25702 0.94888-0.4741 1.3703-0.63911-1.7685-3.8658-2.5891-8.5806-2.6655-13.607-2.1523 1.5638-5.4443 1.1169-7.0081-1.0355-1.5638-2.1523-0.9788-6.445 1.1735-8.0088 2.1523-1.5638 5.5056-0.24168 4.8985 2.8324 0.54262 0.13114 1.0272 0.26471 1.4552 0.41474 0.95316-4.519 3.1857-8.708 6.3844-12.226-2.6604 2e-6 -4.3069-2.0103-4.3069-4.6707-1e-6 -2.6604 3.1511-5.8999 5.8115-5.8999 2.6604 2e-6 4.5962 3.0406 2.2981 5.1707 0.36191 0.42504 0.6754 0.81791 0.94418 1.1812 3.5669-2.5632 7.7983-4.4749 12.472-5.5009-2.1523-1.5638-2.3391-4.3397-0.77534-6.4921 1.5638-2.1523 5.8271-2.9225 7.9794-1.3587 2.1523 1.5638 1.9312 5.1615-1.1801 5.534 0.04296 0.55658 0.06566 1.0587 0.07624 1.5103 0.61051-0.02937 1.2198-0.04412 1.8338-0.04412 4.1547 0 8.0842 0.80258 11.683 2.2534-0.82212-2.5302 0.60187-5.064 3.1321-5.8862 2.5302-0.82212 6.432 1.0607 7.2541 3.591 0.82212 2.5302-1.4715 5.3108-4.2075 3.7835-0.2924 0.47554-0.56916 0.8951-0.83132 1.2632 3.9223 2.5463 7.3234 5.9926 9.9112 9.9415 0.82212-2.5302 3.5397-3.9149 6.07-3.0928 2.5302 0.82212 4.6507 4.6414 3.8286 7.1716-0.82212 2.5302-4.3121 3.4316-5.6278 0.58778-0.51607 0.21285-0.98658 0.3896-1.4249 0.55142 1.946 4.4792 3.0249 9.4044 3.0249 14.497 2.1523-1.5638 5.3307-1.0444 6.8945 1.1079 1.5638 2.1523 0.9788 6.445-1.1735 8.0088-2.1523 1.5638-5.5056 0.24168-4.8985-2.8324-0.54262-0.13114-1.0272-0.2647-1.4591-0.39629-1.0905 5.0968-3.5254 9.8385-6.937 13.916 2.629-0.0096 4.7858 2.1471 4.7858 4.8076s-2.9964 5.7894-5.6569 5.7894c-2.6604 0-4.5962-3.0406-2.2981-5.1707-0.36191-0.42504-0.6754-0.8179-0.93338-1.1713-3.5492 3.159-7.7331 5.7083-12.262 7.4467l0.001208 116.71h-11v-123.5c14.61-4.504 23.125-11.916 23.125-27 0-14.03-12.084-22.375-23.375-22.375-12.109 0-20.5 8.2574-20.5 19.062 0 9.1095 4.163 15.752 10.75 15.752 4.2102 0 7.522-0.28955 8.9299-3.2223-1.9261 0.86601-4.1361 1.3604-6.0323-0.0172-2.3663-1.7192-2.8909-5.031-1.1717-7.3972l2.5e-5 1.6e-5c0.29254-0.40263 0.63117-0.75196 0.99153-1.052-0.26006-0.04883-0.50816-0.10988-0.75463-0.18996-2.7818-0.90382-4.3042-3.8915-3.4003-6.6731 0.90387-2.7817 3.8917-4.304 6.6735-3.4001 0.46749 0.15189 0.89941 0.36263 1.3021 0.62986-0.02737-0.25142-0.04773-0.51752-0.04772-0.78838 3e-6 -2.9248 2.3711-5.2958 5.2961-5.2958 2.925-1e-6 5.2961 2.371 5.2961 5.2958h2.8e-5c-4e-6 0.49963-0.06917 0.9831-0.20252 1.4455 0.23269-0.11465 0.48129-0.21713 0.74086-0.30147l-3e-6 -4e-6c2.7818-0.90382 5.7696 0.61848 6.6735 3.4001 0.90386 2.7817-0.61851 5.7693-3.4003 6.6731-0.47988 0.15592-0.96589 0.23963-1.4442 0.25449 0.18805 0.18566 0.36225 0.39032 0.52259 0.611 1.7193 2.3662 1.1437 5.7004-1.2226 7.4195-2.0646 1.5-4.8491 1.2919-6.6675-0.35713-0.72722 5.0018-3.3031 8.9736-9.6809 10.156z"/>
<path d="m69.473 110.4c2.7667 0 4.5299-1.9214 4.5299-4.331 0-2.4096-1.7632-4.331-4.5299-4.331h-19.446c-2.7667 0-4.5299 1.9214-4.5299 4.331 0 2.4096 1.7632 4.331 4.5299 4.331h9.7232z"/>
<ellipse cx="55.518" cy="55.72" rx="3.7418" ry="3.7416"/>
</g>
<path d="m1 1 3.7611 158c2.6865 112.86 196.65 112.86 199.34 0l3.7611-158z" fill="none" stroke="#000" stroke-width="2"/>
</svg>
