<?xml version="1.0" encoding="UTF-8" standalone="no"?>
<svg
   xmlns:dc="http://purl.org/dc/elements/1.1/"
   xmlns:cc="http://creativecommons.org/ns#"
   xmlns:rdf="http://www.w3.org/1999/02/22-rdf-syntax-ns#"
   xmlns:svg="http://www.w3.org/2000/svg"
   xmlns="http://www.w3.org/2000/svg"
   xmlns:xlink="http://www.w3.org/1999/xlink"
   xmlns:sodipodi="http://sodipodi.sourceforge.net/DTD/sodipodi-0.dtd"
   xmlns:inkscape="http://www.inkscape.org/namespaces/inkscape"
   height="763"
   width="603"
   version="1.0"
   id="svg20"
   sodipodi:version="0.32"
   inkscape:version="0.46"
   sodipodi:docname="Lotzwil-coat of arms.svg"
   sodipodi:docbase="F:\MIS DOCUMENTOS\Mis imágenes\Encyclopédie\Escudos de Suiza"
   inkscape:output_extension="org.inkscape.output.svg.inkscape">
  <metadata
     id="metadata31">
    <rdf:RDF>
      <cc:Work
         rdf:about="">
        <dc:format>image/svg+xml</dc:format>
        <dc:type
           rdf:resource="http://purl.org/dc/dcmitype/StillImage" />
        <dc:date>07-AUG-2009</dc:date>
        <dc:creator>
          <cc:Agent>
            <dc:title>Juan G (aliman5040</dc:title>
          </cc:Agent>
        </dc:creator>
        <cc:license
           rdf:resource="" />
        <dc:coverage />
        <dc:description />
        <dc:subject>
          <rdf:Bag />
        </dc:subject>
        <dc:language />
        <dc:title>Blason commune Lotzwil</dc:title>
      </cc:Work>
    </rdf:RDF>
  </metadata>
  <defs
     id="defs29">
    <linearGradient
       id="linearGradient3612">
      <stop
         id="stop3614"
         offset="0"
         style="stop-color:black;stop-opacity:1;" />
      <stop
         id="stop3616"
         offset="1"
         style="stop-color:#fcef3c;stop-opacity:1;" />
    </linearGradient>
    <linearGradient
       id="linearGradient3606">
      <stop
         style="stop-color:black;stop-opacity:1;"
         offset="0"
         id="stop3608" />
      <stop
         style="stop-color:#fcef3c;stop-opacity:1;"
         offset="1"
         id="stop3610" />
    </linearGradient>
    <linearGradient
       id="linearGradient3600">
      <stop
         id="stop3602"
         offset="0"
         style="stop-color:black;stop-opacity:1;" />
      <stop
         id="stop3604"
         offset="1"
         style="stop-color:#fcef3c;stop-opacity:1;" />
    </linearGradient>
    <linearGradient
       id="linearGradient3594">
      <stop
         style="stop-color:black;stop-opacity:1;"
         offset="0"
         id="stop3596" />
      <stop
         style="stop-color:#fcef3c;stop-opacity:1;"
         offset="1"
         id="stop3598" />
    </linearGradient>
    <linearGradient
       id="linearGradient3588">
      <stop
         id="stop3590"
         offset="0"
         style="stop-color:black;stop-opacity:1;" />
      <stop
         id="stop3592"
         offset="1"
         style="stop-color:#fcef3c;stop-opacity:1;" />
    </linearGradient>
    <linearGradient
       id="linearGradient3582">
      <stop
         style="stop-color:black;stop-opacity:1;"
         offset="0"
         id="stop3584" />
      <stop
         style="stop-color:#fcef3c;stop-opacity:1;"
         offset="1"
         id="stop3586" />
    </linearGradient>
    <linearGradient
       id="linearGradient3576">
      <stop
         id="stop3578"
         offset="0"
         style="stop-color:black;stop-opacity:1;" />
      <stop
         id="stop3580"
         offset="1"
         style="stop-color:#fcef3c;stop-opacity:1;" />
    </linearGradient>
    <linearGradient
       id="linearGradient3570">
      <stop
         style="stop-color:black;stop-opacity:1;"
         offset="0"
         id="stop3572" />
      <stop
         style="stop-color:#fcef3c;stop-opacity:1;"
         offset="1"
         id="stop3574" />
    </linearGradient>
    <linearGradient
       id="linearGradient3564">
      <stop
         id="stop3566"
         offset="0"
         style="stop-color:black;stop-opacity:1;" />
      <stop
         id="stop3568"
         offset="1"
         style="stop-color:#fcef3c;stop-opacity:1;" />
    </linearGradient>
    <linearGradient
       id="linearGradient3558">
      <stop
         style="stop-color:black;stop-opacity:1;"
         offset="0"
         id="stop3560" />
      <stop
         style="stop-color:#fcef3c;stop-opacity:1;"
         offset="1"
         id="stop3562" />
    </linearGradient>
    <linearGradient
       id="linearGradient3552">
      <stop
         id="stop3554"
         offset="0"
         style="stop-color:black;stop-opacity:1;" />
      <stop
         id="stop3556"
         offset="1"
         style="stop-color:#fcef3c;stop-opacity:1;" />
    </linearGradient>
    <linearGradient
       id="linearGradient3546">
      <stop
         style="stop-color:black;stop-opacity:1;"
         offset="0"
         id="stop3548" />
      <stop
         style="stop-color:#fcef3c;stop-opacity:1;"
         offset="1"
         id="stop3550" />
    </linearGradient>
    <linearGradient
       id="linearGradient3540">
      <stop
         id="stop3542"
         offset="0"
         style="stop-color:black;stop-opacity:1;" />
      <stop
         id="stop3544"
         offset="1"
         style="stop-color:#fcef3c;stop-opacity:1;" />
    </linearGradient>
    <linearGradient
       id="linearGradient3534">
      <stop
         style="stop-color:black;stop-opacity:1;"
         offset="0"
         id="stop3536" />
      <stop
         style="stop-color:#fcef3c;stop-opacity:1;"
         offset="1"
         id="stop3538" />
    </linearGradient>
    <linearGradient
       id="linearGradient3528">
      <stop
         id="stop3530"
         offset="0"
         style="stop-color:black;stop-opacity:1;" />
      <stop
         id="stop3532"
         offset="1"
         style="stop-color:#fcef3c;stop-opacity:1;" />
    </linearGradient>
    <linearGradient
       id="linearGradient3522">
      <stop
         style="stop-color:black;stop-opacity:1;"
         offset="0"
         id="stop3524" />
      <stop
         style="stop-color:#fcef3c;stop-opacity:1;"
         offset="1"
         id="stop3526" />
    </linearGradient>
    <linearGradient
       id="linearGradient3516">
      <stop
         id="stop3518"
         offset="0"
         style="stop-color:black;stop-opacity:1;" />
      <stop
         id="stop3520"
         offset="1"
         style="stop-color:#fcef3c;stop-opacity:1;" />
    </linearGradient>
    <linearGradient
       id="linearGradient3510">
      <stop
         style="stop-color:black;stop-opacity:1;"
         offset="0"
         id="stop3512" />
      <stop
         style="stop-color:#fcef3c;stop-opacity:1;"
         offset="1"
         id="stop3514" />
    </linearGradient>
    <linearGradient
       id="linearGradient3504">
      <stop
         id="stop3506"
         offset="0"
         style="stop-color:black;stop-opacity:1;" />
      <stop
         id="stop3508"
         offset="1"
         style="stop-color:#fcef3c;stop-opacity:1;" />
    </linearGradient>
    <linearGradient
       id="linearGradient3498">
      <stop
         style="stop-color:black;stop-opacity:1;"
         offset="0"
         id="stop3500" />
      <stop
         style="stop-color:#fcef3c;stop-opacity:1;"
         offset="1"
         id="stop3502" />
    </linearGradient>
    <linearGradient
       id="linearGradient3492">
      <stop
         id="stop3494"
         offset="0"
         style="stop-color:black;stop-opacity:1;" />
      <stop
         id="stop3496"
         offset="1"
         style="stop-color:#fcef3c;stop-opacity:1;" />
    </linearGradient>
    <linearGradient
       id="linearGradient3486">
      <stop
         style="stop-color:black;stop-opacity:1;"
         offset="0"
         id="stop3488" />
      <stop
         style="stop-color:#fcef3c;stop-opacity:1;"
         offset="1"
         id="stop3490" />
    </linearGradient>
    <linearGradient
       id="linearGradient3480">
      <stop
         id="stop3482"
         offset="0"
         style="stop-color:black;stop-opacity:1;" />
      <stop
         id="stop3484"
         offset="1"
         style="stop-color:#fcef3c;stop-opacity:1;" />
    </linearGradient>
    <linearGradient
       id="linearGradient3474">
      <stop
         style="stop-color:black;stop-opacity:1;"
         offset="0"
         id="stop3476" />
      <stop
         style="stop-color:#fcef3c;stop-opacity:1;"
         offset="1"
         id="stop3478" />
    </linearGradient>
    <linearGradient
       id="linearGradient3468">
      <stop
         id="stop3470"
         offset="0"
         style="stop-color:black;stop-opacity:1;" />
      <stop
         id="stop3472"
         offset="1"
         style="stop-color:#fcef3c;stop-opacity:1;" />
    </linearGradient>
    <linearGradient
       id="linearGradient3462">
      <stop
         style="stop-color:black;stop-opacity:1;"
         offset="0"
         id="stop3464" />
      <stop
         style="stop-color:#fcef3c;stop-opacity:1;"
         offset="1"
         id="stop3466" />
    </linearGradient>
    <linearGradient
       id="linearGradient3456">
      <stop
         id="stop3458"
         offset="0"
         style="stop-color:black;stop-opacity:1;" />
      <stop
         id="stop3460"
         offset="1"
         style="stop-color:#fcef3c;stop-opacity:1;" />
    </linearGradient>
    <linearGradient
       id="linearGradient3450">
      <stop
         style="stop-color:black;stop-opacity:1;"
         offset="0"
         id="stop3452" />
      <stop
         style="stop-color:#fcef3c;stop-opacity:1;"
         offset="1"
         id="stop3454" />
    </linearGradient>
    <linearGradient
       id="linearGradient3444">
      <stop
         id="stop3446"
         offset="0"
         style="stop-color:black;stop-opacity:1;" />
      <stop
         id="stop3448"
         offset="1"
         style="stop-color:#fcef3c;stop-opacity:1;" />
    </linearGradient>
    <linearGradient
       id="linearGradient3438">
      <stop
         style="stop-color:black;stop-opacity:1;"
         offset="0"
         id="stop3440" />
      <stop
         style="stop-color:#fcef3c;stop-opacity:1;"
         offset="1"
         id="stop3442" />
    </linearGradient>
    <linearGradient
       id="linearGradient3432">
      <stop
         id="stop3434"
         offset="0"
         style="stop-color:black;stop-opacity:1;" />
      <stop
         id="stop3436"
         offset="1"
         style="stop-color:#fcef3c;stop-opacity:1;" />
    </linearGradient>
    <linearGradient
       id="linearGradient3426">
      <stop
         style="stop-color:black;stop-opacity:1;"
         offset="0"
         id="stop3428" />
      <stop
         style="stop-color:#fcef3c;stop-opacity:1;"
         offset="1"
         id="stop3430" />
    </linearGradient>
    <linearGradient
       id="linearGradient3420">
      <stop
         id="stop3422"
         offset="0"
         style="stop-color:black;stop-opacity:1;" />
      <stop
         id="stop3424"
         offset="1"
         style="stop-color:#fcef3c;stop-opacity:1;" />
    </linearGradient>
    <inkscape:perspective
       sodipodi:type="inkscape:persp3d"
       inkscape:vp_x="0 : 381.5 : 1"
       inkscape:vp_y="0 : 1000 : 0"
       inkscape:vp_z="603 : 381.5 : 1"
       inkscape:persp3d-origin="301.5 : 254.33333 : 1"
       id="perspective48" />
    <linearGradient
       id="linearGradient4712">
      <stop
         style="stop-color:black;stop-opacity:1;"
         offset="0"
         id="stop4714" />
      <stop
         style="stop-color:#fcef3c;stop-opacity:1;"
         offset="1"
         id="stop4716" />
    </linearGradient>
    <linearGradient
       id="linearGradient3767">
      <stop
         style="stop-color:black;stop-opacity:1;"
         offset="0"
         id="stop3769" />
      <stop
         style="stop-color:#fcef3c;stop-opacity:1;"
         offset="1"
         id="stop3771" />
    </linearGradient>
    <linearGradient
       inkscape:collect="always"
       id="linearGradient3743">
      <stop
         style="stop-color:black;stop-opacity:1;"
         offset="0"
         id="stop3745" />
      <stop
         style="stop-color:black;stop-opacity:0;"
         offset="1"
         id="stop3747" />
    </linearGradient>
    <linearGradient
       id="linearGradient2893">
      <stop
         style="stop-color:#ffffff;stop-opacity:0.3137255;"
         offset="0"
         id="stop2895" />
      <stop
         id="stop2897"
         offset="0.19"
         style="stop-color:#ffffff;stop-opacity:0.25098041;" />
      <stop
         style="stop-color:#6b6b6b;stop-opacity:0.1254902;"
         offset="0.60000002"
         id="stop2901" />
      <stop
         style="stop-color:#000000;stop-opacity:0.1254902;"
         offset="1"
         id="stop2899" />
    </linearGradient>
    <linearGradient
       id="linearGradient2955">
      <stop
         style="stop-color:white;stop-opacity:0;"
         offset="0"
         id="stop2965" />
      <stop
         style="stop-color:black;stop-opacity:0.64583331;"
         offset="1"
         id="stop2959" />
    </linearGradient>
    <radialGradient
       inkscape:collect="always"
       xlink:href="#linearGradient2893"
       id="radialGradient3236"
       gradientUnits="userSpaceOnUse"
       gradientTransform="matrix(1.215027,1.531577e-24,1.464684e-23,1.266667,-839.1924,-490.4894)"
       cx="858.04236"
       cy="579.93323"
       fx="858.04236"
       fy="579.93323"
       r="300" />
    <linearGradient
       inkscape:collect="always"
       xlink:href="#linearGradient3743"
       id="linearGradient3749"
       x1="139.04477"
       y1="275.33136"
       x2="135.0343"
       y2="341.76813"
       gradientUnits="userSpaceOnUse" />
    <linearGradient
       inkscape:collect="always"
       xlink:href="#linearGradient3767"
       id="linearGradient3773"
       x1="151.739"
       y1="374.98651"
       x2="189.64583"
       y2="348.03577"
       gradientUnits="userSpaceOnUse" />
    <linearGradient
       inkscape:collect="always"
       xlink:href="#linearGradient4712"
       id="linearGradient4718"
       x1="-75.688934"
       y1="468.80408"
       x2="-75.774818"
       y2="483.38681"
       gradientUnits="userSpaceOnUse" />
    <inkscape:perspective
       id="perspective2585"
       inkscape:persp3d-origin="372.04724 : 350.78739 : 1"
       inkscape:vp_z="744.09448 : 526.18109 : 1"
       inkscape:vp_y="0 : 1000 : 0"
       inkscape:vp_x="0 : 526.18109 : 1"
       sodipodi:type="inkscape:persp3d" />
    <linearGradient
       inkscape:collect="always"
       xlink:href="#linearGradient3767"
       id="linearGradient3379"
       gradientUnits="userSpaceOnUse"
       x1="151.739"
       y1="374.98651"
       x2="189.64583"
       y2="348.03577" />
    <linearGradient
       inkscape:collect="always"
       xlink:href="#linearGradient4712"
       id="linearGradient3381"
       gradientUnits="userSpaceOnUse"
       x1="-75.688934"
       y1="468.80408"
       x2="-75.774818"
       y2="483.38681" />
    <linearGradient
       inkscape:collect="always"
       xlink:href="#linearGradient3743"
       id="linearGradient3383"
       gradientUnits="userSpaceOnUse"
       x1="139.04477"
       y1="275.33136"
       x2="135.0343"
       y2="341.76813" />
    <linearGradient
       inkscape:collect="always"
       xlink:href="#linearGradient3767"
       id="linearGradient3396"
       gradientUnits="userSpaceOnUse"
       x1="151.739"
       y1="374.98651"
       x2="189.64583"
       y2="348.03577" />
    <linearGradient
       inkscape:collect="always"
       xlink:href="#linearGradient4712"
       id="linearGradient3398"
       gradientUnits="userSpaceOnUse"
       x1="-75.688934"
       y1="468.80408"
       x2="-75.774818"
       y2="483.38681" />
    <linearGradient
       inkscape:collect="always"
       xlink:href="#linearGradient3743"
       id="linearGradient3400"
       gradientUnits="userSpaceOnUse"
       x1="139.04477"
       y1="275.33136"
       x2="135.0343"
       y2="341.76813" />
    <linearGradient
       inkscape:collect="always"
       xlink:href="#linearGradient3743"
       id="linearGradient3404"
       gradientUnits="userSpaceOnUse"
       x1="139.04477"
       y1="275.33136"
       x2="135.0343"
       y2="341.76813"
       gradientTransform="matrix(1.139267,0,0,1.167853,-52.82881,-263.4298)" />
    <linearGradient
       inkscape:collect="always"
       xlink:href="#linearGradient3612"
       id="linearGradient3408"
       gradientUnits="userSpaceOnUse"
       x1="-75.688934"
       y1="468.80408"
       x2="-75.774818"
       y2="483.38681"
       gradientTransform="matrix(1.1483974,0,0,1.1582541,164.57462,-201.91159)" />
    <linearGradient
       inkscape:collect="always"
       xlink:href="#linearGradient3767"
       id="linearGradient3416"
       gradientUnits="userSpaceOnUse"
       x1="151.739"
       y1="374.98651"
       x2="189.64583"
       y2="348.03577"
       gradientTransform="matrix(1.139267,0,0,1.167853,-52.82881,-263.4298)" />
    <inkscape:perspective
       id="perspective5817"
       inkscape:persp3d-origin="372.04724 : 350.78739 : 1"
       inkscape:vp_z="744.09448 : 526.18109 : 1"
       inkscape:vp_y="0 : 1000 : 0"
       inkscape:vp_x="0 : 526.18109 : 1"
       sodipodi:type="inkscape:persp3d" />
  </defs>
  <sodipodi:namedview
     inkscape:window-height="720"
     inkscape:window-width="1280"
     inkscape:pageshadow="2"
     inkscape:pageopacity="0.0"
     guidetolerance="10.0"
     gridtolerance="10.0"
     objecttolerance="10.0"
     borderopacity="1.0"
     bordercolor="#666666"
     pagecolor="#ffffff"
     id="base"
     inkscape:zoom="0.46443193"
     inkscape:cx="264.49728"
     inkscape:cy="453.62527"
     inkscape:window-x="-8"
     inkscape:window-y="-8"
     inkscape:current-layer="layer2"
     showgrid="true"
     showguides="false">
    <inkscape:grid
       type="xygrid"
       id="grid3363"
       visible="true"
       enabled="true" />
  </sodipodi:namedview>
  <g
     inkscape:groupmode="layer"
     id="layer1"
     inkscape:label="Fond écu"
     sodipodi:insensitive="true">
    <path
       id="path1899"
       d="M 1.5,1.49998 L 1.5,460.3679 C 1.5,626.6785 135.81456,761.5 301.49999,761.5 C 467.18543,761.5 601.5,626.6785 601.5,460.3679 L 601.5,1.49998 L 1.5,1.49998 z"
       style="fill:#ffffff;fill-opacity:1" />
  </g>
  <g
     inkscape:groupmode="layer"
     id="layer2"
     inkscape:label="Meubles"
     sodipodi:insensitive="true">
    <g
       id="g3618"
       transform="matrix(4.2439653,0,0,4.2439653,-2645.852,-2454.1618)" />
    <g
       id="g7411"
       transform="matrix(4.1533377,0,0,4.1533377,-2587.88,-2367.2916)">
      <path
         sodipodi:nodetypes="cccc"
         id="path6348"
         d="M 656,587.52337 C 658,583.52337 655,577 652,577 C 653.07646,579.95107 653.68568,582.44759 652,585.52421 L 656,587.52337 z"
         style="opacity:1;fill:#2b5df2;fill-opacity:1;fill-rule:evenodd;stroke:#000000;stroke-width:1;stroke-miterlimit:4;stroke-dasharray:none;stroke-opacity:1" />
      <path
         style="opacity:1;fill:#2b5df2;fill-opacity:1;fill-rule:evenodd;stroke:#000000;stroke-width:1;stroke-miterlimit:4;stroke-dasharray:none;stroke-opacity:1"
         d="M 644,585 C 646,580 641.49162,575 636,578 C 638.46717,578.94159 640.42737,581.54119 639.59542,585.22782 L 644,585 z"
         id="path6350"
         sodipodi:nodetypes="cccc" />
      <path
         sodipodi:nodetypes="cccc"
         id="path6352"
         d="M 637,592 C 636,587 631,583 626.76506,586.7354 C 630,587 631.80953,589.32286 631.72925,593.10134 L 637,592 z"
         style="opacity:1;fill:#2b5df2;fill-opacity:1;fill-rule:evenodd;stroke:#000000;stroke-width:1;stroke-miterlimit:4;stroke-dasharray:none;stroke-opacity:1" />
      <path
         style="opacity:1;fill:#2b5df2;fill-opacity:1;fill-rule:evenodd;stroke:#000000;stroke-width:1;stroke-miterlimit:4;stroke-dasharray:none;stroke-opacity:1"
         d="M 643.39716,646.18658 C 644,641 641,639 633,639 C 638,640 639,644 638,647 L 643.39716,646.18658 z"
         id="path6354"
         sodipodi:nodetypes="cccc" />
      <path
         sodipodi:nodetypes="cccc"
         id="path6356"
         d="M 635.15411,655.90232 C 630.64958,652.95118 624.85536,656.37936 626.70765,662.35655 C 628.11946,660.12489 631.05594,658.7187 634.5046,660.2647 L 635.15411,655.90232 z"
         style="opacity:1;fill:#2b5df2;fill-opacity:1;fill-rule:evenodd;stroke:#000000;stroke-width:1;stroke-miterlimit:4;stroke-dasharray:none;stroke-opacity:1" />
      <path
         style="opacity:1;fill:#2b5df2;fill-opacity:1;fill-rule:evenodd;stroke:#000000;stroke-width:1;stroke-miterlimit:4;stroke-dasharray:none;stroke-opacity:1"
         d="M 635.40102,668.0044 C 630.65169,669.86018 627,677 636,681 C 634,678 634,674 637.40375,673.00268 L 635.40102,668.0044 z"
         id="path6358"
         sodipodi:nodetypes="cccc" />
      <path
         style="opacity:1;fill:#2b5df2;fill-opacity:1;fill-rule:evenodd;stroke:#000000;stroke-width:1;stroke-miterlimit:4;stroke-dasharray:none;stroke-opacity:1"
         d="M 663,700 C 665.46506,695.66259 664.2974,689.36848 658.77391,690.17595 C 660.1061,693.02075 660.40818,694.78687 659,698 L 663,700 z"
         id="path6366"
         sodipodi:nodetypes="cccc"
         inkscape:transform-center-x="-13.890278"
         inkscape:transform-center-y="-4.2937307" />
      <path
         sodipodi:nodetypes="cccc"
         id="path6368"
         d="M 651.50957,698.84943 C 651,694 644,690 639,696 C 643,695 646,698 647.14217,699.46429 L 651.50957,698.84943 z"
         style="opacity:1;fill:#2b5df2;fill-opacity:1;fill-rule:evenodd;stroke:#000000;stroke-width:1;stroke-miterlimit:4;stroke-dasharray:none;stroke-opacity:1"
         inkscape:transform-center-x="0.18421944"
         inkscape:transform-center-y="-4.1136808" />
      <path
         style="opacity:1;fill:#2b5df2;fill-opacity:1;fill-rule:evenodd;stroke:#000000;stroke-width:1;stroke-miterlimit:4;stroke-dasharray:none;stroke-opacity:1"
         d="M 644.98431,707.37797 C 641.95304,703.66716 636.76176,703.04176 633.49327,708.03063 C 637,707 639.15312,707.70266 641,711 L 644.98431,707.37797 z"
         id="path6370"
         sodipodi:nodetypes="cccc" />
      <path
         sodipodi:nodetypes="cccc"
         id="path6360"
         d="M 708,717 C 707.17403,711.3834 699.72573,708.95405 696,714 C 699.20475,713.95388 701.79047,714.2317 703,719 L 708,717 z"
         style="opacity:1;fill:#2b5df2;fill-opacity:1;fill-rule:evenodd;stroke:#000000;stroke-width:1;stroke-miterlimit:4;stroke-dasharray:none;stroke-opacity:1" />
      <path
         inkscape:transform-center-y="-2.4692141"
         inkscape:transform-center-x="3.5326"
         style="opacity:1;fill:#2b5df2;fill-opacity:1;fill-rule:evenodd;stroke:#000000;stroke-width:1;stroke-miterlimit:4;stroke-dasharray:none;stroke-opacity:1"
         d="M 700,727 C 695,722 688,725 688,731 C 689.84088,729.10668 696,729 698,732 L 700,727 z"
         id="path6362"
         sodipodi:nodetypes="cccc" />
      <path
         sodipodi:nodetypes="cccc"
         id="path6364"
         d="M 702,737 C 696.90265,736.86921 693,743 698,747 C 698,744 701,741 705,741 L 702,737 z"
         style="opacity:1;fill:#2b5df2;fill-opacity:1;fill-rule:evenodd;stroke:#000000;stroke-width:1;stroke-miterlimit:4;stroke-dasharray:none;stroke-opacity:1" />
      <path
         sodipodi:nodetypes="ccccccccccccccc"
         id="path6336"
         d="M 702,664 C 687,661 665,676 681,695 C 678.0615,701.2246 673.47051,706.7882 668,712 C 664.16376,710.33333 662.31917,708.66667 661,707 C 669,701 657,694 654,700 C 649,709 671,716 664,722 C 671,716 649,709 654,700 C 653,695 640,701 646,707 C 639,705 636,717 647,717 C 652.04026,720.71293 655.46134,729.71519 664,722 C 667,719 670.90875,718.83121 677,723 C 685.7778,718.0927 693,710 698,701 C 689.45096,690.927 698.81018,681.35702 710,683 L 719,675 L 702,664 z"
         style="opacity:1;fill:#2b5df2;fill-opacity:1;fill-rule:evenodd;stroke:#000000;stroke-width:1;stroke-miterlimit:4;stroke-dasharray:none;stroke-opacity:1" />
      <path
         sodipodi:nodetypes="cccc"
         id="path6338"
         d="M 704,666 C 706.92181,671.26044 710.25212,676.40416 712,682 L 718,675 L 704,666 z"
         style="opacity:1;fill:#e20909;fill-opacity:1;fill-rule:evenodd;stroke:#000000;stroke-width:1;stroke-miterlimit:4;stroke-dasharray:none;stroke-opacity:1" />
      <path
         sodipodi:nodetypes="cccsccsscsccsccccccccccccccsccccccccccscccc"
         id="path5823"
         d="M 731.61488,736.11598 C 738.06328,724.07288 742.85271,711.4768 745,698 C 735.86147,697.41746 733.12664,691.7448 737.9814,680.03939 C 752.21242,693 765,685.42589 765,673 C 765,655.57769 752.0552,653 761.61488,629.4803 C 757.11659,631.14721 752.61119,632.80205 751.61488,640.42231 C 748.39608,638 746.75456,631.76922 746.3726,628.60074 C 744.26147,611.0881 752.90785,618.46108 757.0186,614.90482 C 765,608 765,593 756.34573,583 C 758.00015,593 756.84728,598.3318 745,605.1576 C 735,610.91908 737.69925,623 745,641.5197 C 741.08352,641.49369 737.16703,641.21763 733.25055,645.0186 C 752.01908,648.61186 758.64226,660.21045 758.59399,671.62349 C 758.54588,683.00013 746.74734,679.42592 740,673 C 745,658 732.49095,669.86322 713.11598,640.28774 C 707.42783,630.34789 696.11757,626.03014 685,621.5197 C 673.62045,616.74781 661.33334,612.75383 652.28774,605.9814 L 652.28774,595.44311 C 665,590.59263 650,580.84683 647.28774,588 C 645,595.93858 652.30543,610.71927 642.30854,613 C 652.28774,610.71226 645,595.92961 647.28774,588 C 647.32007,581.14974 633.45701,583 637.69146,591.38512 C 633.25295,588 625,595.96023 635,600.69146 C 634.45382,606.67209 633.44485,612.9441 642.30854,613 C 643.90058,616.15961 647.36035,618.85229 645,623 C 652.46184,620.52931 662.11183,631.31885 672.9814,641.11598 C 657.25445,656.01894 660,663 646.63567,655.0186 C 653,649 644.51325,644.87169 640,646 C 636,647 633,653 639,654 C 631.56139,653.04093 630.19392,664.46261 640,663 C 627.61848,666.85323 641.34794,680.33107 646,669 C 651.20336,668.69878 656.29294,668.81478 660,674 L 691,655 L 703,647 L 691,655 C 699.03499,662.45622 707.22622,669.78461 718,675 C 704,684 701,703 725,703 C 724,720 727,723 713,725 C 716,719 712,717 706.58313,717.14222 C 701.99937,717.26256 700,723 704,724 C 695.85232,721.93771 695,736 703,734 C 697,743 714,746 714,736 C 719.87163,733.78624 725.74325,733.26763 731.61488,736.11598 z"
         style="opacity:1;fill:#2b5df2;fill-opacity:1;fill-rule:evenodd;stroke:#000000;stroke-width:1;stroke-miterlimit:4;stroke-dasharray:none;stroke-opacity:1" />
      <path
         transform="translate(0,-1.34573)"
         d="M 735,583 A 5,5 0 1 1 725,583 A 5,5 0 1 1 735,583 z"
         sodipodi:ry="5"
         sodipodi:rx="5"
         sodipodi:cy="583"
         sodipodi:cx="730"
         id="path6340"
         style="opacity:1;fill:#2b5df2;fill-opacity:1;fill-rule:evenodd;stroke:#000000;stroke-width:1;stroke-miterlimit:4;stroke-dasharray:none;stroke-opacity:1"
         sodipodi:type="arc" />
      <path
         sodipodi:nodetypes="ccscccccccsccccccccccc"
         id="path6334"
         d="M 728,633 C 726,617 741,610 732.33199,593 C 740,596 743.28821,589.53753 742,586 C 740.54107,581.99366 734.19626,578.75467 730,584 C 723,581 706,578 705,584 L 689,583 C 687.96643,583.21295 686.59426,582.88415 688,587 C 679.31702,596.35232 695.19403,599.71641 697.88499,593 C 705.20307,593.93113 709.51356,597.95577 707.97168,608 C 701.9072,606.42368 689.73931,612.30708 690,603 C 687.77018,608.70924 687.99104,614.96778 695,613 C 698.32438,612.06667 701.66667,612.39074 705,613 C 714,615 720,615 720,608 C 720,615 714,615 705,613 C 694,623 678,619 667,629 C 669.05469,629.11456 671.40067,628.06398 673,630 C 664.73942,636.66667 663.64967,643.33333 664.47579,650 C 677,635 709,611 707,650 C 711.0589,645.35184 714.93509,640.58545 716,634 C 717,637 718.67166,639.33333 721,642 C 719.85722,637 720.92354,632 723,627 L 728,633 z"
         style="opacity:1;fill:#2b5df2;fill-opacity:1;fill-rule:evenodd;stroke:#000000;stroke-width:1;stroke-miterlimit:4;stroke-dasharray:none;stroke-opacity:1" />
      <path
         sodipodi:nodetypes="ccc"
         id="path6342"
         d="M 707.71943,586.44022 C 712.23119,599.48837 720.63246,588.39166 720,586.57479 L 707.71943,586.44022 z"
         style="opacity:1;fill:#ffffff;fill-opacity:1;fill-rule:evenodd;stroke:#000000;stroke-width:1;stroke-miterlimit:4;stroke-dasharray:none;stroke-opacity:1" />
      <path
         sodipodi:nodetypes="cccc"
         id="path6344"
         d="M 711,587 C 711,590 712,590 714.52421,590 C 713.52421,589 713,588 713,587 L 711,587 z"
         style="opacity:1;fill:#000000;fill-opacity:1;fill-rule:evenodd;stroke:#000000;stroke-width:1;stroke-miterlimit:4;stroke-dasharray:none;stroke-opacity:1" />
      <path
         sodipodi:nodetypes="ccsc"
         id="path6346"
         d="M 708,607 C 697,594 667.07596,607.04733 672,584 C 664,584 659,600 672,603 C 683.7221,605.7051 696,599 708,607 z"
         style="opacity:1;fill:#e20909;fill-opacity:1;fill-rule:evenodd;stroke:#000000;stroke-width:1;stroke-miterlimit:4;stroke-dasharray:none;stroke-opacity:1" />
    </g>
    <path
       style="opacity:1;fill:#000000;fill-opacity:1;fill-rule:evenodd;stroke:#000000;stroke-width:1;stroke-miterlimit:4;stroke-dasharray:none;stroke-opacity:1"
       d="M 275,108 C 276.50963,112.50657 277.28183,117.01313 278.09518,121.5197 C 279.25164,116.38564 280.95083,113.17381 285,109.4803"
       id="path7433"
       sodipodi:nodetypes="ccc" />
  </g>
  <g
     inkscape:groupmode="layer"
     id="layer3"
     inkscape:label="Reflet final"
     style="display:inline"
     sodipodi:insensitive="true">
    <path
       style="fill:url(#radialGradient3236);fill-opacity:1"
       d="M 1.5,1.5 L 1.5,460.3679 C 1.5,626.67854 135.81454,761.5 301.49993,761.5 C 467.1854,761.5 601.5,626.67854 601.5,460.3679 L 601.5,1.5 L 1.5,1.5 z "
       id="path2346" />
  </g>
  <g
     inkscape:groupmode="layer"
     id="layer4"
     inkscape:label="Contour final"
     style="display:inline"
     sodipodi:insensitive="true">
    <path
       style="fill:none;fill-opacity:1;stroke:#000000;stroke-width:3;stroke-miterlimit:4;stroke-dasharray:none;stroke-opacity:1"
       d="M 1.5,1.5 L 1.5,460.36794 C 1.5,626.67854 135.81454,761.5 301.49993,761.5 C 467.1854,761.5 601.5,626.67854 601.5,460.36794 L 601.5,1.5 L 1.5,1.5 z "
       id="path3239" />
  </g>
</svg>
