<?xml version="1.0" encoding="UTF-8"?>
<svg version="1.0" viewBox="0 0 208.86 244.66" xmlns="http://www.w3.org/2000/svg" xmlns:cc="http://creativecommons.org/ns#" xmlns:dc="http://purl.org/dc/elements/1.1/" xmlns:rdf="http://www.w3.org/1999/02/22-rdf-syntax-ns#">
<metadata>
<rdf:RDF>
<cc:Work rdf:about="">
<dc:format>image/svg+xml</dc:format>
<dc:type rdf:resource="http://purl.org/dc/dcmitype/StillImage"/>
<dc:title/>
</cc:Work>
</rdf:RDF>
</metadata>
<path d="m1 1 3.7611 158c2.6865 112.86 196.65 112.86 199.34 0l3.7611-158z" fill="#feeb00" fill-rule="evenodd" stroke="#000" stroke-width="2"/>
<path d="m35.267 129.22c-2.169-2.127-4.8455-1.843-7.4688-1.812 5.4017-5.4378 8.8995-3.985 11.844-0.53033z" fill="#cc2918" stroke="#000" stroke-dashoffset="4.58" stroke-miterlimit="6"/>
<path d="m42.938 197.22c-4.141 0.69837-6.4325 4.0745-7.644 8.8744 2.0716-1.5743 3.8516-3.4422 7.394-3.4368z" fill="#cc2918" stroke="#000" stroke-dashoffset="4.58" stroke-miterlimit="6"/>
<path d="m51.917 182.39c-0.31111-2.6376-3.3875-4.2244-5.9-5.15 4.35-1.63 8.9252-1.0359 11.202 4.1348z" fill="#cc2918" stroke="#000" stroke-dashoffset="4.58" stroke-miterlimit="6"/>
<path d="m124.1 200.2c-1.5928-1.9054-4.7633-1.8388-8.2201-1.4142 4.0659-3.6481 8.1317-5.9631 12.198-1.1049z" fill="#cc2918" stroke="#000" stroke-dashoffset="4.58" stroke-miterlimit="6"/>
<path d="m126.26 207.76c-2.2796-1.819-3.3439-3.7714-3.3275-6.3372 0.014-2.1954 1.3899-5.7889 5.1221-4.3547 1.8512 0.71139 1.988 2.6178 2.8458 4.6814 1.5282 3.6768 4.5371 4.4451 7.513 4.5962-3.5742 2.093-7.3432 3.5236-12.153 1.4142z" fill="#cc2918" stroke="#000" stroke-dashoffset="4.58" stroke-miterlimit="6"/>
<path d="m43.312 185.41c-5.9755 0.12577-9.0813 2.8563-11.25 6.4375 3.282-0.97861 6.5811-2.2898 9.75-1.0625z" fill="#cc2918" stroke="#000" stroke-dashoffset="4.58" stroke-miterlimit="6"/>
<path d="m118.22 13.41c1.9283-2.2176 3.8979-4.3437 6.9688-4.0313 2.8015 0.51174 4.1406 3.084 5.125 6.1563-3.6591-0.03844-7.6032-0.59002-12.094-2.125z" fill="#cc2918" stroke="#000" stroke-dashoffset="4.58" stroke-miterlimit="6"/>
<path d="m97.404 49.278-0.88388-7.0269 3.5829 5.2619 0.4388-4.9967 3.6239 5.8778z" fill="none" stroke="#000" stroke-dashoffset="4.58" stroke-miterlimit="6"/>
<path d="m92.896 29.169 1.9196 7.1674 1.782-5.3756 2.2066 5.4662 1.6932-6.8603z" fill="none" stroke="#000" stroke-dashoffset="4.58" stroke-miterlimit="6"/>
<path d="m29.188 119.41h8.625v-78.691h3.207v-4.9883c6.058-1.5575 11.23-5.1434 11.23-11.262 0-8.601-10.189-12.188-18.75-12.188s-18.75 3.5865-18.75 12.188c0 6.1183 5.1725 9.7042 11.23 11.262v4.9883h3.207v52.749l-2.45 1e-6v-8.7504h-11.314v4.4636h5.8778v3.3146h-5.8778v4.9939h10.12v3.3332h-10.12v4.9939h5.8778v3.3146h-5.8778v4.4636h11.314v-8.7504h2.45zm-2.0564-101.37c2.7061 0 5.0911 1.3481 6.371 3.3212 1.2764-1.9861 3.6502-3.3212 6.3669-3.3212 4.0671 0 7.3641 2.9913 7.3641 6.6812s-3.297 6.6812-7.3641 6.6812c-2.7517 0-5.1048-1.353-6.3689-3.3815-1.2769 1.9843-3.6537 3.3815-6.3689 3.3815-4.0671 0-7.3641-2.9913-7.3641-6.6812s3.297-6.6812 7.3641-6.6812z" stroke="#000" stroke-dashoffset="4.58" stroke-miterlimit="6"/>
<path d="m73.893 102.53c-4.4266-2.7711-8.2551-5.901-12.109-9.0156 0.04089 1.5321 0.22458 3.0641 0.61872 4.5962-5.9936-3.6831-9.9659-8.6657-14.407-13.347-0.48536 1.3708-0.9567 2.7556-1.3258 4.2426-2.8015-3.0836-5.4986-5.5235-8.8565-10.872v-14.761c-3.3991-3.1424-7.7273-6.5309-8.625-10.872v25.544c-3.7418-0.40394-7.9154-1.8463-7.0904-8.4853-5.0275-1.5925-5.907-9.1311-2.2539-10.562-1.8089-5.0295 2.3598-11.817 9.3443-9.5017 4.8261-3.9911 11.49-4.6447 11.383 5.1265-0.05492 4.989 2.938 7.9476 7.3362 9.5459 10.451 3.7978 21.643 6.4163 30.406 12.198 10.275-4.9445 1.5262 19.098-4.4194 26.163z" fill="#cc2918" stroke="#000" stroke-dashoffset="4.58" stroke-miterlimit="6"/>
<path d="m35.264 46.767c-4.7144-4.1896-9.0391-3.1156-12.827 0.83079 2.3551 0.45359 4.611 0.21031 6.9362 1.6843 1.68-1.3452 3.5002-2.4745 5.8906-2.5151z" fill="#cc2918" stroke="#000" stroke-dashoffset="4.58" stroke-miterlimit="6"/>
<path d="m37.812 63.375c1.4292 2.1294 3.1445 4.0107 2.9345 7.3804-0.1613 2.5884-0.82501 4.7248-2.9345 5.7894" fill="none" stroke="#000" stroke-dashoffset="4.58" stroke-miterlimit="6"/>
<path d="m50.281 133.57c-2.9506 0.67694-4.8591-0.85038-5.6875-2.2188-2.2182-3.6641-4.6886-6.3862-7.4062-5.0938-5.2566 2.4999-4.5999 6.8133-1.0312 11.031 5.6231 1.9616 10.248 0.43155 14.125-3.7188z" fill="#cc2918" stroke="#000" stroke-dashoffset="4.58" stroke-miterlimit="6"/>
<path d="m41.41 155.3c-1.3489 4.6906 0.14418 6.9759 2.6075 10.165 0.16058-3.6248 0.08808-6.3028 2.1655-9.5901z" fill="#cc2918" stroke="#000" stroke-dashoffset="4.58" stroke-miterlimit="6"/>
<path d="m48.969 207.25c-2.8124 1.9792-3.8124 4.2918-3.375 8.4375 1.8875-2.6185 3.6007-4.5 6.7812-5.9062z" fill="#cc2918" stroke="#000" stroke-dashoffset="4.58" stroke-miterlimit="6"/>
<path d="m122.29 128.75c-21.359 8.9194-41.2 3.0284-46.545 28.227 1.4596-0.72769 2.8663-1.1909 4.2426-1.5026-1.0202 4.1542-2.0561 8.3085-1.2374 12.463 0.88656-1.1073 2.6637-2.5543 4.206-3.1605 1.7598 3.3436 0.98855 11.247-2.4383 14.297-6.7143 5.9777-13.72 12.36-18.12 10.43-2.9101-1.2765-3.8993-3.3176-3.8891-6.364 0.0194-5.7628-10.217-2.667-10.695 2.0329-4.1304-1.8732-7.1474-0.81348-7.7782 3.0936-0.44953 2.7846 1.3699 5.0873 2.9168 7.2478-2.633 0.19233-3.4801 4.8295-1.7678 6.9827 1.6302 2.0499 3.1362 3.9324 6.6291 3.8007-1.2892 3.1602 2.2613 4.8809 5.5342 4.578 2.9246-0.27065 5.5016-2.3083 6.2214-3.9593 5.5437 1.0713 15.222-0.37958 15.468-3.8007 7.3582-1.2725 11.619-4.8682 16.44-8.0433-1.2116-0.49761-2.2937-0.75795-3.9775-2.1213 5.5718-2.8162 11.369-5.4245 15.91-9.1924-0.87507-0.16086-2.8185-0.77265-4.1543-1.5026 2.3243-0.9509 8.7232-5.3356 9.3692-7.513-9.9461-9.226-6.8009-12.956-2.0329-14.672 8.5702-3.0847 17.159-6.1276 24.926-11.049z" fill="#cc2918" stroke="#000" stroke-dashoffset="4.58" stroke-miterlimit="6"/>
<path d="m75.042 203.12c0.09-2.2968-2.461-3.9001-6.9167-5.2387-4.6821-1.4066-9.8532-2.216-14.75-3.9375-5.9785-2.1018-5.7261-5.6783-5.5569-8.7666" fill="none" stroke="#000" stroke-dashoffset="4.58" stroke-miterlimit="6"/>
<path d="m119.06 206.92c-7.2835-0.61281-9.0798 3.6404-10.209 8.4853 2.6919-2.09 4.8017-3.9505 9.104-3.4472z" fill="#cc2918" stroke="#000" stroke-dashoffset="4.58" stroke-miterlimit="6"/>
<path d="m59.574 206.92c-8.992-2.0341-14.863-11.098-11.374-17.215" fill="none" stroke="#000" stroke-dashoffset="4.58" stroke-miterlimit="6"/>
<path d="m120.65 217.35c-3.5605 2.1115-4.4369 5.403-3.4029 11.402 1.8276-2.9199 3.028-5.1937 6.6291-6.8943z" fill="#cc2918" stroke="#000" stroke-dashoffset="4.58" stroke-miterlimit="6"/>
<path d="m130.46 224.07c-2.7739 2.8915-2.8236 6.526-1.7236 10.474 1.4267-3.1504 2.7611-6.3396 6.364-8.5737z" fill="#cc2918" stroke="#000" stroke-dashoffset="4.58" stroke-miterlimit="6"/>
<path d="m194.1 15.204c1.6249 8.8677 2.2242 15.863-2.2045 19.239-1.2808 7.2197-7.7352 9.9564-17.241 9.3984-3.099-0.18191-6.0559-0.54094-10.518 0.88388-2.2553 13.394 0.4566 25.448 4.2426 37.211 0.77915-4.8514 2.866-9.6306 5.2818-12.616 3.7057-4.5799 12.2-4.0488 11.07 4.2532-3.9244-2.5228-7.5277-0.66383-9.219 3.539-1.5385 3.8233-3.9119 13.342-2.8902 17.11 2.2761-4.7828 7.9269-9.3633 10.785-8.7656 2.2047 0.46099 4.4993 1.69 4.7709 6.6884-11.122-4.9015-12.468 8.8842-11.932 18.959 1.3851 26.064-6.1872 36.357-23.688 30.936 1.3299 5.6568 2.2328 11.314 2.5633 16.971 4.4628 3.7956 8.0098 2.0969 11.49 0 0.96853 3.6469 0.49821 8.5728 0 13.523 1.5149-0.30492 2.6016-0.86678 3.7123-1.4142-0.20218 5.9568-2.22 11.395-5.922 16.352 1.3352 0.19746 2.7933 0.0878 4.2426 0-2.3556 6.1369-6.339 11.406-10.43 16.617-3.0615 11.354-8.6712 14.327-14.982 16.904-1.7871 8.6512-14.888 8.5714-14.341 2.055-5.9701 3.1438-11.907-4.2647-8.3969-7.7561-2.3237-0.83943-5.5638-2.5114-4.1309-6.9499 1.1707-3.6261 5.0195-3.9542 7.5041-2.7498 4.3482 2.1077 9.8054 3.5819 13.487-0.61965 5.3336-6.0871 9.5353-12.48 10.872-19.18 1.4238-7.1378-5.8231-9.1302-10.518-12.728-0.15882 1.2964 0.0106 2.5927 0.17677 3.8891-4.6757-1.271-7.8162-5.0641-9.1924-11.756-0.71299 1.2476-1.4277 2.4932-1.8562 4.0659-4.3637-2.3606-4.056-11.735-0.74632-22.46-1.7204-10.601-10.958-23.941-16.755-26.242-6.2958-2.4996-10.245-6.8256-14.332-9.3621l34.043-29.44c5.7999 17.063 11.905 33.967 21.744 49.851 4.61 7.4425 19.247 9.1714 19.004-10.607-1.0899-14.089-4.8375-28.465-9.2808-42.868-5.5204-17.895-5.6327-31.434-0.7955-41.366 3.63-7.4527 11.423-11.123 20.506-12.816 6.7677-1.2614 10.499-4.705 13.877-8.7504z" fill="#cc2918" stroke="#000" stroke-dashoffset="4.58" stroke-miterlimit="6"/>
<path d="m32.306 147.39c-3.1777 3.8174-2.8332 8.2347-0.48614 12.993 0.76639-2.578 0.09942-5.3428 3.3146-7.6014z" fill="#cc2918" stroke="#000" stroke-dashoffset="4.58" stroke-miterlimit="6"/>
<path d="m30.803 136.91c-6.8386-0.73618-8.053 4.9187-9.8995 9.8553 2.7626-1.9732 5.079-5.3454 8.7946-4.331z" fill="#cc2918" stroke="#000" stroke-dashoffset="4.58" stroke-miterlimit="6"/>
<path d="m84.125 84.41c-11.815 14.179-22.989 28.773-32.125 44.75-5.3789 9.4062-11.446 7.53-17.438 6.5-2.6638-0.45793-5.9855-0.45206-6.5 3.375-0.24657 1.834-0.2736 5.7647 3.625 6.875-2.877 1.9414 1.495 11.378 7.5625 8.5625-0.28565 4.0665 10.736 5.1792 11.75-2.5 4.7389-1.8606 9.4245-3.8164 10.938-11.438 5.7955-2.1297 11.384-4.6565 16.188-8.6875-0.4375-0.42811-0.875-0.86481-1.3125-1.375 5.0334-2.4394 10.056-4.8954 14.438-8.3125-1.1875-0.56404-2.375-1.1513-3.5625-2.0625 9.1485-5.1574 16.393-11.743 22.886-18.892z" fill="#cc2918" stroke="#000" stroke-dashoffset="4.58" stroke-miterlimit="6"/>
<path d="m128.89 223.05c0.40443-4.5865 4.3372-5.4883 6.9164-6.5628" fill="none" stroke="#000" stroke-dashoffset="4.58" stroke-miterlimit="6"/>
<path d="m120.5 215.29c1.8602-1.9694 4.6381-2.6612 7.9991-2.5412" fill="none" stroke="#000" stroke-dashoffset="4.58" stroke-miterlimit="6"/>
<path d="m68.312 29.785c4.6735 5.9862 11.271 9.0909 21.125 8.5625 9.7693-0.52384 18.045 0.82105 22.188 5.25l-0.0625 1.875c-4.8785-2.5472-11.196-4.8182-20.125-3.25-8.4242 1.4795-16.285 3.2723-21.688-1.3125-5.7962-4.9192-2.793-8.1326-1.4375-11.125z" fill="#cc2918" stroke="#000" stroke-dashoffset="4.58" stroke-miterlimit="6"/>
<path d="m164.14 44.726c0.40668-2.6062 1.5888-4.9659 4.0191-6.7218" fill="none" stroke="#000" stroke-dashoffset="4.58" stroke-miterlimit="6"/>
<path d="m191.9 34.443c-1.837 1.259-3.7517 1.893-5.7063 2.1726" fill="none" stroke="#000" stroke-dashoffset="4.58" stroke-miterlimit="6"/>
<path d="m111.25 56.035c-4.2238-1.629-7.9278-2.3447-11.812-2.25-2.4317-1.6264-3.1581-3.6621-4.1875-5.625l13.125-1.25c1.5818-6.3721 0.3723-12.116-7.4375-16.375h-7.8125c-4.9439-0.67332-2.9017-4.4178-1.625-7.0625-0.64112-1.1769-2.1937-2.7904 0.75-3.375 4.9327-0.97183 9.1968-2.9943 13.312-5.25 7.7127-4.0219 14.505-3.4437 20.688 0.1875 3.7668-2.8019 7.868-2.1376 10.165-0.34781 4.2621 3.3214 1.5186 7.328-0.47725 11.41 6.3405 6.0431 9.7005 12.392 6.875 19.375 3.6815 6.9402 2.9651 13.081-0.75 17.75 2.8629 7.6052 1.0528 13.341-4 16.75-0.45225 7.0361-4.9868 9.8117-8.75 11.5-0.9814 4.5675-6.6524 8.3334-12 9.6875-4.2118 4.6183-7.8955 4.5726-11.821 4.2442-3.339 4.1346-8.6766 4.0257-11.358 3.7565 2.4698-3.9648 3.126-8.1206 2.4307-12.419-4.4243 6.7061-9.9357 11.419-18.341 10.828 3.0555-7.5284 2.473-13.732 5.4359-20.064-4.3417 1.3678-7.5403 3.1147-9.789 5.8778 0.17888-6.5719 2.4914-11.435 6.828-15.512-3.2053 0.40504-5.5122 2.1398-7.6898 4.0659 3.4828-9.3493 7.9704-17.861 21.302-19.003l-6.9827-1.8562c2.5785-2.1203 8.1051-2.6964 14.142-3.0052 4.2155-0.13308 7.8826-0.57955 9.7802-2.0372z" fill="#cc2918" stroke="#000" stroke-dashoffset="4.58" stroke-miterlimit="6"/>
<path d="m142.81 45.472c-1.8258-3.4115-3.9226-6.6993-7.0922-9.4974" fill="none" stroke="#000" stroke-dashoffset="4.58" stroke-miterlimit="6"/>
<path d="m142.06 63.222c-1.9892-5.0087-4.7542-9.4788-8.8613-13.017" fill="none" stroke="#000" stroke-dashoffset="4.58" stroke-miterlimit="6"/>
<path d="m138.06 79.972c0.3646-6.6772-1.8634-13.403-6.4081-18.939" fill="none" stroke="#000" stroke-dashoffset="4.58" stroke-miterlimit="6"/>
<path d="m129.31 91.472c1.0307-6.742 0.40893-13.798-2.2542-20.496" fill="none" stroke="#000" stroke-dashoffset="4.58" stroke-miterlimit="6"/>
<path d="m117.31 101.16c3.6719-4.9933 3.8051-12.702 3.2492-19.709" fill="none" stroke="#000" stroke-dashoffset="4.58" stroke-miterlimit="6"/>
<path d="m105.49 105.4c3.8432-5.3151 5.3917-11.817 3.6681-18.65" fill="none" stroke="#000" stroke-dashoffset="4.58" stroke-miterlimit="6"/>
<path d="m100.94 30.535c1.7084-0.12094 2.5572-1.2498 3.0625-2.7812" fill="none" stroke="#000" stroke-dashoffset="4.58" stroke-miterlimit="6"/>
<path d="m123.78 17.316c0.71559-0.78725 1.5042-1.5563 2.4688-2.2812" fill="none" stroke="#000" stroke-dashoffset="4.58" stroke-miterlimit="6"/>
<path d="m103.86 19.005c1.4774-0.11154 2.89-0.01751 4.6846-0.83969 5.9324-2.7179 8.9807-0.92357 11.27 2.1655" fill="none" stroke="#000" stroke-dashoffset="4.58" stroke-miterlimit="6"/>
<path d="m107.96 18.405c0.18904-0.06984 0.38213-0.1493 0.57985-0.23989 3.7264-1.7072 6.3148-1.6341 8.2919-0.57803 0.12316 5.3178-1.6239 6.9203-4.114 7.0575-3.5632 0.19638-4.4076-2.7339-4.7577-6.2396z" fill="#feeb00" stroke="#000" stroke-dashoffset="4.58" stroke-miterlimit="6"/>
<path d="m110.61 17.66c0.0363 1.2391-0.0232 2.5183 0.42187 3.5781 0.73359 1.747 2.2917 0.93157 2.5781-0.04687 0.38089-1.3012 0.1515-2.7169 0.0312-4.1094z" stroke="#000" stroke-dashoffset="4.58" stroke-miterlimit="6"/>
<path d="m111.25 56.035c2.4222 0.98354 4.6648 0.34095 7.0799-0.06202 10.385-1.7329 14.916-9.418 9.0819-27.997" fill="none" stroke="#000" stroke-dashoffset="4.58" stroke-miterlimit="6"/>
<path d="m42.957 195.52c2.5357-0.36741 4.5712 1.4712 5.5918 3.2166" fill="none" stroke="#000" stroke-dashoffset="4.58" stroke-miterlimit="6"/>
<path d="m126.84 19.898c1.3318-1.2888 2.5684-3.3618 5.875-3.125" fill="none" stroke="#000" stroke-dashoffset="4.58" stroke-miterlimit="6"/>
<path d="m47.818 206.3c0.51958-1.512 1.9345-2.5401 4.6328-2.8745" fill="none" stroke="#000" stroke-dashoffset="4.58" stroke-miterlimit="6"/>
<path d="m126.09 146.81c1.4913-5.6767 2.1399-11.494-0.71596-17.895" fill="none" stroke="#000" stroke-dashoffset="4.58" stroke-miterlimit="6"/>
<path d="m19.843 59c2.5136-0.94972 5.7068 0.24008 9.3443 2.8284" fill="none" stroke="#000" stroke-dashoffset="4.58" stroke-miterlimit="6"/>
<path d="m22.659 57.654c0.37335-2.4794 2.4552-3.3725 3.7377-3.6203 1.0474 3.3785 3.8844 5.9494 6.2286 7.8763-2.8676 0.31584-7.0232 0.28418-9.9663-4.256z" fill="#cc2918" stroke="#000" stroke-dashoffset="4.58" stroke-miterlimit="6"/>
<path d="m25.089 64.034c-1.5525 1.1073-1.5712 3.4484-1.4375 5.2011 3.4495 0.44278 8.017 0.07319 10.724-0.88729-2.6482-0.99649-6.9675-2.8229-9.2861-4.3138z" fill="#cc2918" stroke="#000" stroke-dashoffset="4.58" stroke-miterlimit="6"/>
<path d="m26.969 71.629c-1.1012 1.1879-1.4087 2.656-1.0938 4.3438 2.8623 1.3477 5.869 1.076 8.7188 1.0312-2.3785-1.4236-4.9205-2.5657-7.625-5.375z" fill="#cc2918" stroke="#000" stroke-dashoffset="4.58" stroke-miterlimit="6"/>
<path d="m22.097 69.563c2.4381 0.80616 4.8019 1.2495 7.0904 1.3258" fill="none" stroke="#000" stroke-dashoffset="4.58" stroke-miterlimit="6"/>
<path d="m124.95 150.93c-3.1393 1.1082-5.4553-0.0288-6.0455-2.5046-0.58507-2.4543 0.53064-3.7214 2.3447-5.0764-0.86169-3.4526-1.3254-5.8272-0.96999-11.017 3.2381 4.21 4.0506 7.7879 6.6392 10.734-0.44888 2.6961-1.1499 4.6311-1.9684 7.8641z" fill="#cc2918" stroke="#000" stroke-dashoffset="4.58" stroke-miterlimit="6"/>
<path d="m39.25 154.47c0.38135-4.5173 5.0971-7.68 7.4062-9.5" fill="none" stroke="#000" stroke-dashoffset="4.58" stroke-miterlimit="6"/>
<path d="m31.688 145.91c3.0521-2.0046 6.1042-3.134 9.1562-3.9062" fill="none" stroke="#000" stroke-dashoffset="4.58" stroke-miterlimit="6"/>
<path d="m29.188 52.504c0-1.0885 0-2.7801-0.66559-3.2009" fill="#cc2918" stroke="#000" stroke-dashoffset="4.58" stroke-miterlimit="6"/>
</svg>
