<?xml version="1.0" encoding="utf-8"?>
<!-- Generator: Adobe Illustrator 12.0.0, SVG Export Plug-In . SVG Version: 6.00 Build 51448)  -->
<!DOCTYPE svg PUBLIC "-//W3C//DTD SVG 1.1//EN" "http://www.w3.org/Graphics/SVG/1.1/DTD/svg11.dtd" [
	<!ENTITY ns_svg "http://www.w3.org/2000/svg">
	<!ENTITY ns_xlink "http://www.w3.org/1999/xlink">
]>
<svg  version="1.1"
	 id="svg20" xmlns:sodipodi="http://sodipodi.sourceforge.net/DTD/sodipodi-0.dtd" xmlns:cc="http://web.resource.org/cc/" xmlns:inkscape="http://www.inkscape.org/namespaces/inkscape" xmlns:dc="http://purl.org/dc/elements/1.1/" xmlns:rdf="http://www.w3.org/1999/02/22-rdf-syntax-ns#" xmlns:svg="http://www.w3.org/2000/svg" sodipodi:version="0.32" inkscape:version="0.44" sodipodi:docname="Zurich-coat_of_arms.svg" sodipodi:docbase="C:\Documents and Settings\Steve\Bureau\Blason Villages Suisse pour Wikipédia (par Delta-9)\Cantons"
	 xmlns="&ns_svg;" xmlns:xlink="&ns_xlink;" width="595.275" height="758.574" viewBox="0 0 595.275 758.574"
	 overflow="visible" enable-background="new 0 0 595.275 758.574" xml:space="preserve">
<g id="layer1" inkscape:label="Fond écu" inkscape:groupmode="layer" sodipodi:insensitive="true">
	<path id="path1968" fill="#E20909" stroke="#000000" stroke-width="3" d="M0.77,1.545V454.01
		c0,163.99,132.44,296.93,295.813,296.93c163.376,0,295.813-132.939,295.813-296.93V1.545H0.77z"/>
</g>
<g>
	<path fill="#FCEF3C" d="M487.772,165.866c-30.338,4.406-74.324,16.025-111.587,46.364c-42.763,34.817-67.894,86.444-74.693,153.446
		c-0.003,0.023-0.004,0.046-0.006,0.07c-0.012,0.213-1.085,21.636,5.018,50.248c5.636,26.418,18.719,64.592,49.041,96.428
		c39.821,41.809,98.896,62.791,175.584,62.363c0.689-0.004,1.288-0.479,1.449-1.149s-0.156-1.366-0.77-1.683
		c-0.298-0.155-30.202-15.825-60.191-49.042c-27.64-30.612-61.018-82.838-63.072-157.792c-0.002-0.331-0.121-36.286,16.698-78.56
		c9.864-24.792,23.542-46.881,40.652-65.653c21.382-23.459,48.229-41.786,79.793-54.473c0.64-0.257,1.021-0.917,0.926-1.6
		c-0.096-0.683-0.646-1.213-1.331-1.284C545.04,163.525,520.624,161.096,487.772,165.866z"/>
	<path d="M528.381,161.397c-26.676,0-78.583,4.085-126.506,31.447c-12.722,7.263-24.48,15.81-34.949,25.402
		c-11.583,10.612-21.863,22.758-30.555,36.1c-9.475,14.543-17.298,30.872-23.252,48.532c-6.419,19.035-10.833,40.112-13.12,62.647
		c-0.004,0.047-0.009,0.094-0.012,0.141c-0.012,0.221-0.287,5.521,0.193,14.421c0.442,8.172,1.638,21.061,4.828,36.058
		c3.588,16.867,8.917,32.916,15.839,47.702c8.667,18.517,19.87,35.09,33.296,49.264c8.757,9.244,18.605,17.606,29.271,24.853
		c11.577,7.868,24.411,14.62,38.146,20.07c14.76,5.856,30.946,10.361,48.109,13.391c18.304,3.231,38.211,4.869,59.168,4.869
		c0.823,0,1.555-0.002,2.301-0.007c1.38-0.009,2.575-0.958,2.898-2.3c0.321-1.343-0.313-2.73-1.539-3.365
		c-0.074-0.038-7.559-3.938-18.634-11.878c-10.208-7.317-25.644-19.663-41.214-36.924c-17.47-19.367-31.551-40.857-41.854-63.872
		c-6.112-13.656-10.947-28.011-14.368-42.665c-3.763-16.115-5.91-32.997-6.383-50.173c-0.003-0.532,0-9.419,1.971-23.129
		c1.188-8.258,2.845-16.624,4.928-24.868c2.602-10.293,5.877-20.422,9.735-30.106c9.804-24.603,23.387-46.521,40.373-65.143
		c10.077-11.048,21.483-21.048,33.901-29.722c13.67-9.549,28.908-17.73,45.294-24.315c1.279-0.515,2.044-1.836,1.852-3.202
		s-1.291-2.425-2.663-2.566C545.175,162.032,538.906,161.397,528.381,161.397L528.381,161.397z M302.899,370.209
		c0-2.832,0.084-4.381,0.084-4.381c18.854-185.768,173.689-201.431,225.397-201.431c10.493,0,16.748,0.645,16.748,0.645l0,0l0,0
		C408.3,220.037,407.045,359.845,407.045,365.014c0,0.098,0.001,0.147,0.001,0.147C411.049,511.25,531.12,573.287,531.12,573.287
		l0,0l0,0c-0.775,0.005-1.514,0.007-2.282,0.007C312.242,573.293,302.897,400.14,302.899,370.209L302.899,370.209z M410.046,365.134
		c0,0,0-0.001,0-0.002C410.046,365.133,410.046,365.134,410.046,365.134L410.046,365.134z"/>
</g>
<g>
	<path fill="#FCEF3C" d="M55.193,163.004l-9.455,0.538c-0.702,0.04-1.311,0.563-1.425,1.256s0.239,1.374,0.891,1.636
		c31.565,12.687,58.411,31.014,79.793,54.473c17.11,18.772,30.788,40.861,40.651,65.653c16.82,42.274,16.701,78.229,16.698,78.587
		c-2.053,74.927-35.432,127.152-63.071,157.765c-29.99,33.217-59.894,48.887-60.192,49.042c-0.613,0.316-0.931,1.012-0.77,1.683
		c0.162,0.671,0.76,1.146,1.45,1.149c74.725,0.417,132.78-19.521,172.553-59.259c31.97-31.942,45.79-70.956,51.753-98.06
		c5.464-24.836,5.382-42.277,5.338-51.646c0-0.048-0.003-0.097-0.008-0.145c-5.203-51.268-21.262-93.809-47.73-126.441
		c-21.192-26.128-49.05-45.978-82.799-59c-29.983-11.569-59.164-15.49-78.364-16.743C69.637,162.784,60.742,162.836,55.193,163.004z
		"/>
	<path d="M62.521,161.397c-0.005,0-0.005,0-0.01,0c-10.526,0-16.793,0.634-17.055,0.661c-1.372,0.141-2.471,1.2-2.663,2.566
		c-0.192,1.366,0.572,2.687,1.852,3.202c16.385,6.585,31.624,14.766,45.294,24.315c12.418,8.674,23.824,18.674,33.901,29.722
		c16.986,18.622,30.569,40.54,40.373,65.143c3.858,9.684,7.134,19.813,9.735,30.106c2.083,8.244,3.741,16.61,4.928,24.868
		c1.972,13.714,1.974,22.602,1.971,23.13c-0.474,17.205-2.627,34.114-6.402,50.254c-3.431,14.675-8.28,29.048-14.41,42.72
		c-10.329,23.034-24.443,44.537-41.952,63.911c-15.585,17.246-31.024,29.572-41.232,36.875
		c-11.016,7.882-18.382,11.713-18.455,11.751c-1.226,0.633-1.862,2.021-1.54,3.364c0.321,1.342,1.517,2.292,2.898,2.301
		c0.746,0.005,1.476,0.007,2.3,0.007c20.957,0,40.864-1.638,59.168-4.869c17.164-3.029,33.35-7.534,48.109-13.391
		c13.735-5.45,26.57-12.202,38.148-20.07c10.664-7.247,20.512-15.609,29.27-24.853c13.426-14.174,24.628-30.747,33.296-49.264
		c6.921-14.786,12.25-30.835,15.838-47.702c3.19-14.997,4.386-27.886,4.828-36.058c0.48-8.9,0.205-14.2,0.193-14.421
		c-0.003-0.047-0.007-0.094-0.011-0.141c-2.287-22.535-6.701-43.612-13.12-62.647c-5.955-17.66-13.778-33.989-23.252-48.532
		c-8.692-13.343-18.972-25.489-30.555-36.101c-10.469-9.592-22.228-18.138-34.949-25.402
		C141.101,165.485,89.2,161.397,62.521,161.397L62.521,161.397z M62.521,164.397L62.521,164.397c0.206,0,0.415,0,0.624,0.001
		c51.759,0.125,202.683,16.062,224.109,195.502c0.002,0.022,0.003,0.029,0.006,0.052c0.035,0.289,0.071,0.596,0.104,0.886
		c0.077,0.658,0.151,1.311,0.224,1.974c0.023,0.213,0.049,0.446,0.072,0.66c0.014,0.124,0.025,0.232,0.039,0.356
		c0.03,0.281,0.061,0.567,0.09,0.849c0.04,0.384,0.08,0.765,0.119,1.151l0,0c0,0,0.085,1.567,0.084,4.429
		c-0.007,30.067-9.457,203.036-225.938,203.036c-0.769,0-1.507-0.002-2.281-0.007l0,0l0,0c0,0,120.072-62.037,124.074-208.125v0
		c0-0.005,0-0.06,0-0.163c-0.002-5.432-1.391-145.017-138.083-199.956l0,0l0,0c0,0,6.254-0.645,16.747-0.645
		C62.514,164.397,62.518,164.397,62.521,164.397L62.521,164.397L62.521,164.397z"/>
</g>
<g>
	<path fill="#FFFFFF" d="M278.632,45.232c-0.536,0-1.032,0.286-1.299,0.75c-0.134,0.232-0.201,0.491-0.201,0.75
		c0,0.259,0.067,0.519,0.202,0.751c5.741,9.925,8.585,26.291,8.585,49.668c0,8.267-0.366,17.438-1.075,27.483
		c-6.407-0.125-13.085-0.043-19.576,0.051c-21.773,0.316-44.289,0.644-57.663-7.434c-0.463-0.28-1.041-0.288-1.513-0.022
		c-0.471,0.266-0.763,0.765-0.763,1.306v35.901c0,0.544,0.294,1.045,0.769,1.31c0.475,0.265,1.056,0.252,1.519-0.034
		c16.547-10.218,50.246-9.431,78.215-7.487c-0.009,2.41-0.059,15.836-0.059,15.836c0.009,2.327,0.018,4.662,0.018,6.994
		c0,20.818-0.707,41.438-8.447,54.415c-0.141,0.237-0.212,0.502-0.212,0.769c0,0.255,0.065,0.511,0.196,0.741
		c0.267,0.469,0.765,0.759,1.304,0.759h35.901c0.533,0,1.026-0.283,1.296-0.744c0.136-0.233,0.204-0.495,0.204-0.756
		c0-0.254-0.064-0.509-0.194-0.738c-7.977-14.109-8.416-36.422-8.416-58.548c0-1.373,0.002-2.745,0.004-4.114
		c0,0-0.074-13.034-0.089-15.592c5.959,0.105,12.126,0.059,18.123-0.001c22.81-0.226,46.396-0.459,60.056,8.447
		c0.461,0.301,1.05,0.325,1.534,0.063c0.483-0.262,0.785-0.769,0.785-1.319v-35.901c0-0.543-0.294-1.044-0.768-1.309
		c-0.475-0.265-1.055-0.253-1.518,0.031c-13.213,8.114-35.641,7.758-57.331,7.413c-6.938-0.11-14.071-0.204-20.882-0.041
		c0.016-2.546,0.091-14.994,0.091-14.994c-0.001-0.911-0.002-1.824-0.002-2.737c0-22.387,0.306-45.145,8.411-59.426
		c0.13-0.229,0.195-0.485,0.195-0.74c0-0.261-0.068-0.521-0.204-0.755c-0.269-0.461-0.762-0.745-1.296-0.745H278.632z
		 M286.285,124.65c-0.013,0-0.026,0-0.038,0C286.26,124.65,286.272,124.65,286.285,124.65z M305.827,124.65
		c-0.015,0-0.029,0-0.044,0C305.798,124.65,305.813,124.65,305.827,124.65z M305.795,147.231c0.011,0,0.021,0,0.032,0
		C305.816,147.231,305.806,147.231,305.795,147.231z"/>
	<path d="M314.532,43.732h-35.9c-1.072,0-2.063,0.572-2.599,1.501c-0.535,0.929-0.535,2.073,0.002,3.001
		c4.391,7.59,7.092,19.408,8.029,35.125c0.659,11.043,0.46,24.065-0.608,39.736c-1.634-0.023-3.355-0.035-5.198-0.035
		c-4.235,0-8.592,0.062-12.805,0.122l-0.207,0.003c-4.225,0.063-8.593,0.127-12.915,0.127c-16.512,0-33.264-0.89-43.95-7.345
		c-0.476-0.288-1.013-0.432-1.551-0.432c-0.508,0-1.016,0.129-1.475,0.387c-0.943,0.532-1.526,1.531-1.526,2.613v35.902
		c0,1.088,0.589,2.09,1.539,2.62c0.455,0.253,0.958,0.38,1.461,0.38c0.547,0,1.094-0.149,1.576-0.447
		c4.908-3.031,11.815-5.277,20.528-6.677c7.587-1.219,16.408-1.812,26.965-1.811c10.141,0,20.242,0.56,28.396,1.115
		c-0.058,4.796-0.039,9.692-0.021,14.452c0.044,11.574,0.089,23.541-0.964,34.122c-1.154,11.592-3.527,20.264-7.253,26.512
		c-0.553,0.927-0.566,2.08-0.033,3.019c0.533,0.938,1.53,1.518,2.609,1.518h35.9c1.067,0,2.055-0.567,2.592-1.488
		c0.538-0.922,0.546-2.06,0.021-2.988c-3.678-6.506-6.03-15.421-7.19-27.255c-1.058-10.782-1.042-22.926-1.028-34.67
		c0.006-4.626,0.012-9.383-0.048-14.053c1.746,0.023,3.595,0.034,5.584,0.034c3.651,0,7.395-0.038,11.014-0.074
		c3.611-0.035,7.342-0.072,10.968-0.072c8.532,0,18.46,0.173,27.414,1.457c8.955,1.285,15.772,3.515,20.84,6.819
		c0.497,0.323,1.067,0.487,1.639,0.487c0.49,0,0.981-0.12,1.429-0.362c0.968-0.525,1.571-1.537,1.571-2.638v-35.902
		c0-1.086-0.587-2.088-1.535-2.618c-0.456-0.255-0.961-0.382-1.465-0.382c-0.545,0-1.089,0.149-1.57,0.444
		c-10.495,6.445-26.944,7.334-43.157,7.334c-4.464,0-8.988-0.073-13.363-0.143c-4.435-0.07-9.019-0.142-13.469-0.142
		c-2.106,0-4.059,0.016-5.899,0.048c0.056-4.472,0.053-9.021,0.051-13.446c-0.006-11.65-0.013-23.697,1.046-34.392
		c1.163-11.735,3.507-20.575,7.168-27.025c0.527-0.929,0.521-2.068-0.016-2.991C316.588,44.3,315.601,43.732,314.532,43.732
		L314.532,43.732z M278.632,46.732c11.967,0,23.935,0,35.9,0l0,0l0,0c-8.289,14.605-8.605,37.177-8.605,60.067
		c0,1.893,0.002,3.789,0.002,5.682c0,4.589-0.013,9.167-0.1,13.669c0.993-0.03,1.993-0.054,2.998-0.072l0,0c0.001,0,0.002,0,0.003,0
		l0,0c1.964-0.036,3.948-0.05,5.946-0.05c4.427,0,8.924,0.071,13.42,0.142c4.493,0.072,8.989,0.143,13.412,0.143
		c17.501,0,33.882-1.117,44.728-7.778c0,11.967,0,23.935,0,35.902l0,0l0,0c-11.836-7.717-30.339-8.763-49.893-8.763
		c-3.641,0-7.317,0.036-10.995,0.072c-3.675,0.037-7.349,0.074-10.986,0.074c-2.907,0-5.791-0.024-8.633-0.089
		c0.02,0.997,0.035,1.996,0.048,3l0,0l0.001,0.002l0,0c0.042,3.297,0.052,6.626,0.052,9.966c0,2.788-0.007,5.583-0.007,8.371
		c0,22.595,0.453,44.741,8.609,59.17l0,0l0,0c-11.966,0-23.934,0-35.9,0l0,0l0,0c7.932-13.299,8.658-33.802,8.659-55.028
		c0-4.761-0.036-9.559-0.036-14.32c0-3.384,0.019-6.75,0.083-10.071c-9.741-0.694-20.648-1.32-31.439-1.32
		c-19.059-0.001-37.761,1.953-49.069,8.935c0-11.967,0-23.935,0-35.902l0,0l0,0c11.073,6.689,27.746,7.777,45.501,7.777
		c4.278,0,8.617-0.063,12.958-0.127c4.344-0.062,8.688-0.125,12.969-0.125c2.693,0,5.362,0.025,7.99,0.09
		c0.667-9.097,1.199-19.16,1.198-29.181C287.44,77.671,285.455,58.528,278.632,46.732L278.632,46.732L278.632,46.732z"/>
</g>
</svg>
