<?xml version="1.0" encoding="UTF-8"?>
<svg version="1.0" viewBox="0 0 208.86 244.66" xmlns="http://www.w3.org/2000/svg" xmlns:cc="http://creativecommons.org/ns#" xmlns:dc="http://purl.org/dc/elements/1.1/" xmlns:rdf="http://www.w3.org/1999/02/22-rdf-syntax-ns#">
<metadata>
<rdf:RDF>
<cc:Work rdf:about="">
<dc:format>image/svg+xml</dc:format>
<dc:type rdf:resource="http://purl.org/dc/dcmitype/StillImage"/>
<dc:title/>
</cc:Work>
</rdf:RDF>
</metadata>
<g transform="translate(70.5 -50.924)" stroke="#000" stroke-dashoffset="4.58" stroke-miterlimit="20">
<circle cx="104.43" cy="182.75" r="10.25"/>
<circle cx="104.97" cy="172.53" r="3.0312" fill="#feeb00"/>
<circle cx="111.5" cy="174.15" r="3.0312" fill="#feeb00"/>
<circle cx="114.75" cy="179.78" r="3.0312" fill="#feeb00"/>
<circle cx="103.91" cy="193.06" r="3.0312" fill="#feeb00"/>
<circle cx="110.75" cy="192.53" r="3.0312" fill="#feeb00"/>
<circle cx="97.625" cy="191.53" r="3.0312" fill="#feeb00"/>
<circle cx="94.219" cy="185.68" r="3.0312" fill="#feeb00"/>
<circle cx="98.281" cy="173.34" r="3.0312" fill="#feeb00"/>
<circle cx="94.969" cy="179.06" r="3.0312" fill="#feeb00"/>
<circle cx="114.09" cy="186.71" r="3.0312" fill="#feeb00"/>
<circle cx="110.59" cy="183.18" r="3.0312" fill="#feeb00"/>
<circle cx="107.67" cy="177.87" r="3.0312" fill="#feeb00"/>
<circle cx="107.23" cy="188.1" r="3.0312" fill="#feeb00"/>
<circle cx="101.23" cy="187.91" r="3.0312" fill="#feeb00"/>
<circle cx="98.612" cy="182.75" r="3.0312" fill="#feeb00"/>
<circle cx="101.66" cy="177.44" r="3.0312" fill="#feeb00"/>
<circle cx="104.43" cy="182.75" r="3.0312" fill="#feeb00"/>
</g>
<path d="m1 1 3.7611 158c2.6865 112.86 196.65 112.86 199.34 0l3.7611-158z" fill="#009645" fill-rule="evenodd" stroke="#000" stroke-width="2"/>
<path d="m8.2033 181.73c8.8541 32.224 43.753 61.92 96.227 61.92 43.929-0.23397 82.845-20.504 96.227-61.92-62.936-23.064-89.853-94.084-96.227-180.73-6.3735 86.643-33.291 157.66-96.227 180.73z" fill="#feeb00" stroke="#000" stroke-dashoffset="4.58"/>
<g transform="translate(-.75 3.0455)">
<path d="m178.76 22.226c-6.3533 11.507-8.3762 21.868-8.7977 32.242 10.374-0.42155 20.734-2.4444 32.242-8.7977v32.131c-11.507-6.3533-21.868-8.3762-32.242-8.7977 0.42156 10.374 2.4444 20.734 8.7977 32.242h-32.131c6.3533-11.507 8.3762-21.868 8.7977-32.242-10.374 0.42156-20.734 2.4444-32.242 8.7977v-32.131c11.507 6.3533 21.868 8.3762 32.242 8.7977-0.42156-10.374-2.4444-20.734-8.7977-32.242h16.065z" fill="#feeb00" stroke="#000" stroke-dashoffset="4.58"/>
</g>
<g transform="translate(2 -1)" stroke="#000" stroke-dashoffset="4.58">
<path d="m44.215 84.152c-6.2421 3.9918-11.482 7.0346-22.96 3.0125l4.9498-2.2097c-5.2337 0.1527-10.343-0.31801-14.761-4.2426l3.8891-1.9445c-3.9855-1.6125-6.6506-4.5453-8.0433-8.7504l3.9775 1.149c-2.5806-3.323-4.4013-7.6086-5.2149-13.17l4.0659 3.6239c-0.90577-4.5034-0.68941-9.2313-0.44194-13.965l2.9168 4.9498c-0.0433-4.2295 0.91214-8.5588 2.0329-12.905l2.5633 4.8614c1.0351-3.7936 2.3043-7.517 4.5078-10.96l1.9446 4.1542c1.4078-3.9908 3.336-7.6173 5.922-10.783l1.0607 4.8614c1.688-3.1884 3.2906-5.4378 4.8614-7.3362l1.0348 4.772c1.5505-3.6146 2.8363-4.5142 4.6221-7.0702l0.61872 4.6846c1.0493-2.5755 2.473-5.2914 4.4642-8.2201 1.9912 2.9287 3.4149 5.6446 4.4642 8.2201l0.61872-4.6846c1.7858 2.556 3.0716 3.4556 4.6221 7.0702l1.0348-4.772c1.5707 1.8984 3.1734 4.1478 4.8614 7.3362l1.0607-4.8614c2.586 3.1661 4.5142 6.7926 5.922 10.783l1.9446-4.1542c2.2035 3.4431 3.4727 7.1665 4.5078 10.96l2.5633-4.8614c1.1208 4.3459 2.0762 8.6752 2.0329 12.905l2.9168-4.9498c0.24747 4.7341 0.46383 9.4619-0.44194 13.965l4.0659-3.6239c-0.81363 5.5612-2.6343 9.8468-5.2149 13.17l3.9775-1.149c-1.3928 4.2052-4.0579 7.138-8.0433 8.7504l3.8891 1.9445c-4.4182 3.9246-9.5272 4.3953-14.761 4.2426l4.9498 2.2097c-12.716 5.0828-17.53 1.9573-23.419-3.0125-1.3136 8.2237-3.619 18.925 2.471 24.049-0.61621 2.3153-1.4185 3.6491-3.0936 4.9056-6.202-7.2322-7.0206-16.16-2.9388-28.954z" fill="#feeb00" stroke-miterlimit="8"/>
<path d="m46.982 71.425 28.75-14.165" fill="none" stroke-miterlimit="8"/>
<path d="m47.096 61.591 21.744-11.137" fill="none" stroke-miterlimit="8"/>
<path d="m46.744 51.783 17.501-8.7504" fill="none" stroke-miterlimit="8"/>
<path d="m46.364 42.49 9.1924-4.773" fill="none" stroke-miterlimit="8"/>
<path d="m16.924 66.57 28.38 13.918c0.21611-12.241 0.28895-28.167 0.9217-40.587 0.63276 12.42 0.70557 28.346 0.93276 40.587l28.369-13.918" fill="none" stroke-miterlimit="20"/>
<path d="m45.467 71.447-28.749-14.187" fill="none" stroke-miterlimit="8"/>
<path d="m45.354 61.591-21.744-11.137" fill="none" stroke-miterlimit="8"/>
<path d="m45.706 51.783-17.501-8.7504" fill="none" stroke-miterlimit="8"/>
<path d="m46.086 42.49-9.1924-4.773" fill="none" stroke-miterlimit="8"/>
</g>
<path d="m1 1 3.7611 158c2.6865 112.86 196.65 112.86 199.34 0l3.7611-158z" fill="none" stroke="#000" stroke-width="2"/>
<g stroke="#000" stroke-dashoffset="4.58" stroke-miterlimit="20">
<circle cx="104.43" cy="182.75" r="40.875"/>
<path d="m95.723 227.16 8.7068 11.137 8.7068-11.137-8.7068-6.1872z" fill="#009645"/>
<path d="m143.98 204.75 13.282-4.8392-7.9013-11.722-8.5749 6.3688z" fill="#009645"/>
<path d="m137.58 151.93-0.49786-14.128-13.59 3.8922 3.4072 10.123z" fill="#009645"/>
<path d="m85.369 141.7-13.59-3.8922-0.49786 14.128 10.681-0.11223z" fill="#009645"/>
<path d="m59.5 188.19-7.9013 11.722 13.282 4.8392 3.1938-10.193z" fill="#009645"/>
<path d="m105.34 219.03c-0.3412 2.4028-1.286 4.1283-0.73806 6.1082 2.4017 8.678 13.647 10.759 19.376 5.8611 3.1061-2.6553 6.1841-5.5036 9.6382-8.0132 3.4541-2.5096 7.1142-4.5568 10.599-6.6903 6.4282-3.9352 7.9245-15.273 0.41338-20.239-1.7136-1.1329-3.6467-0.76759-6.0373-1.1856-2.7678-0.48395-3.5788-1.0961-3.2324-2.061 0.28692-0.98433 1.3029-1.0027 3.8265 0.23258 2.1798 1.067 3.5289 2.4988 5.5812 2.5895 8.9954 0.39752 14.449-9.6548 11.562-16.617-1.5655-3.7746-3.3232-7.5822-4.6426-11.643-1.3194-4.0605-2.1353-8.1741-3.0875-12.148-1.7561-7.3296-12.077-12.256-19.121-6.6474-1.607 1.2797-1.8569 3.231-2.9932 5.3754-1.3156 2.4828-2.1483 3.065-2.9352 2.437-0.82364-0.57744-0.52722-1.5494 1.4275-3.5678 1.6884-1.7434 3.467-2.584 4.1874-4.5078 3.1578-8.4323-4.7172-16.726-12.231-16.131-4.0737 0.32248-8.238 0.81759-12.508 0.81759s-8.4339-0.49511-12.508-0.81759c-7.5136-0.5948-15.389 7.6986-12.231 16.131 0.72045 1.9238 2.499 2.7644 4.1874 4.5078 1.9547 2.0184 2.2511 2.9903 1.4037 3.5674-0.81071 0.62769-1.6435 0.0454-2.959-2.4373-1.1363-2.1444-1.3862-4.0958-2.9932-5.3754-7.0438-5.609-17.365-0.6822-19.121 6.6474-0.95213 3.9739-1.7681 8.0875-3.0875 12.148-1.3194 4.0605-3.0771 7.8681-4.6426 11.643-2.8875 6.962 2.5665 17.014 11.562 16.617 2.0523-0.0907 3.4014-1.5225 5.5812-2.5895 2.5236-1.2353 3.5396-1.2169 3.8265-0.23257 0.34644 0.965-0.46468 1.577-3.2324 2.061-2.3906 0.418-4.3236 0.0526-6.0373 1.1856-7.5111 4.9658-6.0148 16.304 0.41339 20.239 3.4852 2.1336 7.1453 4.1808 10.599 6.6903 3.4541 2.5096 6.5321 5.3579 9.6382 8.0132 5.729 4.8976 16.975 2.8169 19.376-5.8611 0.54793-1.9799-0.39687-3.7054-0.73807-6.1082-0.39502-2.7819-0.0635-3.7424 0.93743-3.7108 1.001-0.0309 1.3324 0.92966 0.93742 3.7115z" fill="#cc2918"/>
<path d="m83.642 148.65c-1.641-5.5251 4.6687-7.9043 10.906-6.1875 3.2311 0.8893 6.4921 1.4062 9.8823 1.4062s6.6511-0.51695 9.8823-1.4062c6.2376-1.7168 12.547 0.66237 10.906 6.1875" fill="none"/>
<path d="m65.581 191.98c-5.7618-0.14672-6.0747-6.8827-2.5144-12.284 1.8442-2.7982 3.3436-5.7398 4.3912-8.964 1.0476-3.2243 1.5637-6.4854 1.7164-9.8332 0.29479-6.4628 4.5073-11.728 9.2549-8.4604" fill="none"/>
<path d="m101.21 222.55c-1.92 5.4344-8.423 3.6505-12.46-1.4047-2.0913-2.6187-4.4256-4.9536-7.1683-6.9463-2.7427-1.9927-5.6847-3.4912-8.8215-4.671-6.0554-2.2775-9.7616-7.9109-5.1864-11.416" fill="none"/>
<path d="m141.29 198.11c4.5752 3.5054 0.86899 9.1388-5.1864 11.416-3.1368 1.1798-6.0788 2.6783-8.8215 4.671-2.7427 1.9927-5.077 4.3276-7.1683 6.9463-4.0372 5.0553-10.54 6.8392-12.46 1.4048" fill="none"/>
<path d="m130.43 152.44c4.7476-3.268 8.9601 1.9976 9.2549 8.4604 0.15269 3.3478 0.66874 6.6089 1.7164 9.8331 1.0476 3.2242 2.547 6.1659 4.3912 8.964 3.5602 5.4018 3.2473 12.138-2.5145 12.285" fill="none"/>
<g transform="translate(-163.87 .064403)">
<circle transform="rotate(5.033)" cx="283.22" cy="158.65" r="10.25"/>
<ellipse transform="rotate(185.03)" cx="-293.52" cy="-158.64" rx="2.8987" ry="3.2344" fill="#feeb00"/>
<ellipse transform="rotate(149.03)" cx="-146.95" cy="-294.73" rx="2.8987" ry="3.2344" fill="#feeb00"/>
<ellipse transform="rotate(113.03)" cx="52.94" cy="-318.45" rx="2.8987" ry="3.2344" fill="#feeb00"/>
<ellipse transform="rotate(69.947)" cx="253.16" cy="-190.13" rx="2.8987" ry="3.2344" fill="#feeb00"/>
<ellipse transform="rotate(41.033)" cx="310.83" cy="-38.256" rx="2.8987" ry="3.2344" fill="#feeb00"/>
<ellipse transform="rotate(5.033)" cx="272.83" cy="159.04" rx="2.8987" ry="3.2344" fill="#feeb00"/>
<ellipse transform="rotate(-30.967)" cx="124.53" cy="295.03" rx="2.8987" ry="3.2344" fill="#feeb00"/>
<ellipse transform="rotate(-66.967)" cx="-74.255" cy="318.29" rx="2.8987" ry="3.2344" fill="#feeb00"/>
<ellipse transform="rotate(257.03)" cx="-249.33" cy="220.24" rx="2.8987" ry="3.2344" fill="#feeb00"/>
<ellipse transform="rotate(235.8)" cx="-312.87" cy="121.53" rx="2.8987" ry="3.2344" fill="#feeb00"/>
<circle transform="rotate(31.565)" cx="330.42" cy="15.784" r="3.0312" fill="#feeb00"/>
<circle transform="rotate(31.565)" cx="327.67" cy="10.43" r="3.0312" fill="#feeb00"/>
<circle transform="rotate(31.565)" cx="327.05" cy="20.698" r="3.0312" fill="#feeb00"/>
<circle transform="rotate(31.565)" cx="321.06" cy="20.512" r="3.0312" fill="#feeb00"/>
<circle transform="rotate(31.565)" cx="318.24" cy="15.156" r="3.0312" fill="#feeb00"/>
<circle transform="rotate(31.565)" cx="321.54" cy="9.9655" r="3.0312" fill="#feeb00"/>
<circle transform="rotate(31.565)" cx="324.25" cy="15.346" r="3.0312" fill="#feeb00"/>
</g>
</g>
</svg>
