<?xml version="1.0" encoding="UTF-8"?>
<svg version="1.0" viewBox="0 0 603 763" xmlns="http://www.w3.org/2000/svg" xmlns:cc="http://web.resource.org/cc/" xmlns:dc="http://purl.org/dc/elements/1.1/" xmlns:rdf="http://www.w3.org/1999/02/22-rdf-syntax-ns#" xmlns:xlink="http://www.w3.org/1999/xlink">
<metadata>
<rdf:RDF>
<cc:Work rdf:about="">
<dc:format>image/svg+xml</dc:format>
<dc:type rdf:resource="http://purl.org/dc/dcmitype/StillImage"/>
<dc:date>07-AUG-2006</dc:date>
<dc:creator>
<cc:Agent>
<dc:title>Jérôme BLUM (wagner51)</dc:title>
</cc:Agent>
</dc:creator>
<cc:license rdf:resource="http://creativecommons.org/licenses/GPL/2.0/"/>
<dc:coverage/>
<dc:description>Gabarit pour le Projet:Blasons de WIkipédia</dc:description>
<dc:subject>
<rdf:Bag>
<rdf:li>blason suisse modèle gabarit projet blasons</rdf:li>
</rdf:Bag>
</dc:subject>
<dc:language>fr</dc:language>
<dc:title>Gabrit d'un blason suisse</dc:title>
</cc:Work>
<cc:License rdf:about="http://creativecommons.org/licenses/GPL/2.0/">
<cc:permits rdf:resource="http://web.resource.org/cc/Reproduction"/>
<cc:permits rdf:resource="http://web.resource.org/cc/Distribution"/>
<cc:requires rdf:resource="http://web.resource.org/cc/Notice"/>
<cc:permits rdf:resource="http://web.resource.org/cc/DerivativeWorks"/>
<cc:requires rdf:resource="http://web.resource.org/cc/ShareAlike"/>
<cc:requires rdf:resource="http://web.resource.org/cc/SourceCode"/>
</cc:License>
</rdf:RDF>
</metadata>
<defs>
<radialGradient id="a" cx="858.04" cy="579.93" r="300" gradientTransform="matrix(1.215 1.5316e-24 1.4647e-23 1.2667 -839.19 -490.49)" gradientUnits="userSpaceOnUse">
<stop stop-color="#fff" stop-opacity=".31373" offset="0"/>
<stop stop-color="#fff" stop-opacity=".25098" offset=".19"/>
<stop stop-color="#6b6b6b" stop-opacity=".12549" offset=".6"/>
<stop stop-opacity=".12549" offset="1"/>
</radialGradient>
</defs>
<desc>Coat of Arms of Canton of Freiburg (Fribourg)</desc>
<path d="m1.5 1.5v458.87c0 166.31 134.31 301.13 300 301.13 165.69 0 300-134.82 300-301.13v-458.87h-600z" fill="#fff"/>
<g transform="translate(-.088 .2852)" stroke="#000" stroke-width="3">
<path d="m295.44 499.21c-53.015 1.0294-92.747 21.116-96.719 55.004 0 1e-5 -77.263-45.642-140.41 21-9.1082 9.6128-15.611 19.631-19.938 29.844 48.416 88.522 139.84 149.96 246.06 155.94 0.04153 0.00234 0.08347-0.00232 0.125 0 5.1254 0.13766 10.244 0.1875 15.406 0.1875 7.3072-2e-5 14.605-0.13579 21.844-0.40625 103.57-6.9505 192.72-66.638 241.06-152.56-4.2801-11.308-11.137-22.393-21.188-33-63.14-66.642-140.44-21-140.44-21-5.1598-29.03-44.159-53.788-100.59-54.973-1.7636-0.037-3.5086-0.06446-5.2188-0.03125z" fill="#5ab532"/>
<path d="m302.12 761.19c-4.8914-0.40013 115.46-70.629 100.04-207.73" fill="none" stroke-linecap="round" stroke-linejoin="round"/>
<path d="m296.88 761.19c0.311 1.7127-113.05-88.512-99.104-203.34" fill="none" stroke-linecap="round" stroke-linejoin="round"/>
</g>
<g transform="matrix(4.0351 0 0 4.0351 -2544.9 -2315.7)" fill-rule="evenodd" stroke-width="1px">
<path d="m710.36 701.58c2.2499-19.882 12.166-88.25 12.166-88.25l-33.776 10.388s5.5515 55.252 7.1468 76.959c0.28478 3.8751 13.981 5.1699 14.463 0.90362z" stroke="#000"/>
<path d="m719.11 635.72c7.0992 3.1863 9.8693 9.4022 14.967 12.252 25.446 14.223 27.168-16.54 40.219-19.342-12.785-7.2107-17.971-0.36273-24.301 4.3675 15.527-12.36-0.44541-30.677 14.427-38.735-13.737-2.0636-17.694 4.9551-22.277 11.392 1.1291 12.47 4.7657 33.606-16.518 26.205 21.212 7.4234 17.737-13.714 16.518-26.205-1.4129-7.7556-4.7994-15.215 0.1265-23.922-10.209 2.3678-13.117 10.956-14.301 21.012 1.3329 7.3609-0.0992 12.141-1.205 15.253 1.1482-3.0799 2.503-7.9374 1.205-15.253-1.9899-7.3231-5.9913-14.395-2.976-22.344-4.3473 2.1562-7.169 6.6914-10.506 11.205-8.7875 13.181 1.6296 22.056 6.3915 31.771-4.8316-9.8251-15.171-18.661-6.3915-31.771 0.63176-6.925-2.561-12.112-13.036-13.988 4.7874 5.0843 3.2422 10.295-0.31951 16.012-2.6777 4.3591-7.5386 7.684-4.241 14.874-3.3297-7.1157 1.4597-10.498 4.241-14.874-1.799-6.5475-4.9839-12.208-15.126-13.416 6.2278 7.9471-0.69225 13.012-3.3555 18.988-6.8995 19.203 13.678 14.384 24.181 17.656-10.428-3.2681-31.041 1.4903-24.181-17.656-3.2923-6.3779-4.5107-13.301-13.795-18.103 4.9228 10.322-0.87508 15.563-2.976 22.783-8.7348 23.189 18.093 24.959 22.976 22.344-4.8551 2.5188-31.551 0.82376-22.976-22.344-3.8766-11.217-20.886-10.886-20.886-10.886 11.46 7.4768 1.5584 21.144 7.3435 32.723 6.7667 9.4029 15.913 10.032 23.289 6.771-7.3537 3.275-16.61 2.6025-23.289-6.771-6.1272-3.0469-9.7404-1.5904-15.826 1.771 13.19 8.2308 13.063 24.823 27.601 24.021 9.1546-0.5091 17.036-13.869 25.754-15.479l-1.012-9.807c9.5953-0.43716 13.234 4.7544 12.53 13.416 9.5558-3.6601 19.967-12.319 5.446-22.783 5.4213 1.6122 10.12 3.5123 14.048 6.518l-1.771 12.344z" fill="#e20909" stroke="#000"/>
<path d="m709.82 636.39-4.6422 63.936 2.3165-0.1789 5.1789-63.578-2.8532-0.1789z" fill="#fff" stroke="#fff"/>
<path d="m695 631.57 3.3899 0.89449 2.8624 68.211-2.3257-0.88535-3.9266-68.22z" fill="#fff" stroke="#fff"/>
<path d="m714.14 681.23c12.866-10.245-18.074-8.7565-21.817-15.363-10.664 10.575 20.245 6.6432 21.817 15.363z" stroke="#fff"/>
<path d="m717 658c10.416-16.082-21.914-6.9452-27.564-18.025-13.583 13.055 25.569 8.0232 27.564 18.025z" stroke="#fff"/>
</g>
<g>
<path d="m1.5 1.5v458.87c0 166.31 134.31 301.13 300 301.13 165.69 0 300-134.82 300-301.13v-458.87h-600z" fill="url(#a)"/>
<path d="m1.5 1.5v458.87c0 166.31 134.31 301.13 300 301.13 165.69 0 300-134.82 300-301.13v-458.87h-600z" fill="none" stroke="#000" stroke-width="3"/>
</g>
</svg>
