<?xml version="1.0" encoding="UTF-8"?>
<svg stroke="#000" viewBox="0 0 620 717" xmlns="http://www.w3.org/2000/svg">
<defs>
<clipPath id="a">
<path d="m0 0h620l-15 437c-15 165-130 280-295 280s-280-115-295-280l-15-437z" fill="none" stroke="#000" stroke-miterlimit="7.5" stroke-width="30"/>
</clipPath>
<clipPath id="b">
<path d="m0 0h620l-15 437c-15 165-130 280-295 280s-280-115-295-280l-15-437z" clip-path="url(#a)" fill="none" stroke="#000" stroke-miterlimit="7.5" stroke-width="16"/>
</clipPath>
</defs>
<rect transform="translate(0 1.4286)" x="15" y="210" width="590" height="505" clip-path="url(#a)" fill="#FFF"/>
<path transform="matrix(.99979 0 0 1.0843 .45016 -13.34)" d="m619 18.9-6 184.1-605.06 2c-0.287 3e-3 -0.51-0.231-0.518-0.518l-5.09-189z" clip-path="url(#a)" fill="#f4df1a" stroke="#000" stroke-width="5.8838"/>
<path d="m355 635h80v80h-80zm-170 0h80v80h-80zm255-85h80v80h-80zm-170 0h80v80h-80zm-170 0h80v80h-80zm425-85h80v80h-80zm-170 0h80v80h-80zm-170 0h80v80h-80zm-170 0h80v80h-80zm425-85h80v80h-80zm-170 0h80v80h-80zm-170 0h80v80h-80zm425-85h80v80h-80zm-170 0h80v80h-80zm-170 0h80v80h-80zm-170 0h80v80h-80zm425-85h80v80h-80zm-170 0h80v80h-80zm-170 0h80v80h-80z" clip-path="url(#b)" fill="#e0370f" stroke="#000" stroke-width="6"/>
<path d="m0 0h620l-15 437c-15 165-130 280-295 280s-280-115-295-280l-15-437z" clip-path="url(#a)" fill="none" stroke="#000" stroke-miterlimit="7.5" stroke-width="16"/>
</svg>
