<?xml version="1.0" encoding="UTF-8"?>
<svg version="1.0" viewBox="0 0 603 763" xmlns="http://www.w3.org/2000/svg" xmlns:cc="http://web.resource.org/cc/" xmlns:dc="http://purl.org/dc/elements/1.1/" xmlns:rdf="http://www.w3.org/1999/02/22-rdf-syntax-ns#" xmlns:xlink="http://www.w3.org/1999/xlink">
<metadata>
<rdf:RDF>
<cc:Work rdf:about="">
<dc:format>image/svg+xml</dc:format>
<dc:type rdf:resource="http://purl.org/dc/dcmitype/StillImage"/>
<dc:date>07-AUG-2006</dc:date>
<dc:creator>
<cc:Agent>
<dc:title>Jérôme BLUM (wagner51)</dc:title>
</cc:Agent>
</dc:creator>
<cc:license rdf:resource="http://creativecommons.org/licenses/GPL/2.0/"/>
<dc:coverage/>
<dc:description>Gabarit pour le Projet:Blasons de WIkipédia</dc:description>
<dc:subject>
<rdf:Bag>
<rdf:li>blason suisse modèle gabarit projet blasons</rdf:li>
</rdf:Bag>
</dc:subject>
<dc:language>fr</dc:language>
<dc:title>Gabrit d'un blason suisse</dc:title>
</cc:Work>
<cc:License rdf:about="http://creativecommons.org/licenses/GPL/2.0/">
<cc:permits rdf:resource="http://web.resource.org/cc/Reproduction"/>
<cc:permits rdf:resource="http://web.resource.org/cc/Distribution"/>
<cc:requires rdf:resource="http://web.resource.org/cc/Notice"/>
<cc:permits rdf:resource="http://web.resource.org/cc/DerivativeWorks"/>
<cc:requires rdf:resource="http://web.resource.org/cc/ShareAlike"/>
<cc:requires rdf:resource="http://web.resource.org/cc/SourceCode"/>
</cc:License>
</rdf:RDF>
</metadata>
<defs>
<radialGradient id="a" cx="858.04" cy="579.93" r="300" gradientTransform="matrix(1.215 1.5316e-24 1.4647e-23 1.2667 -839.19 -490.49)" gradientUnits="userSpaceOnUse">
<stop stop-color="#fff" stop-opacity=".31373" offset="0"/>
<stop stop-color="#fff" stop-opacity=".25098" offset=".19"/>
<stop stop-color="#6b6b6b" stop-opacity=".12549" offset=".6"/>
<stop stop-opacity=".12549" offset="1"/>
</radialGradient>
</defs>
<desc>Coat of Arms of Canton of Freiburg (Fribourg)</desc>
<path d="m1.5 1.5v458.87c0 166.31 134.31 301.13 300 301.13 165.69 0 300-134.82 300-301.13v-458.87h-600z" fill="#fcef3c"/>
<g>
<g transform="matrix(4.0607 0 0 4.0607 -2528.8 -2314.5)">
<path d="m703.76 703.21 57.686-0.41322v-31.653h5.8679l-16.281-28.141h-36.033l-15.413 26.591h4.1736v33.616z" fill-rule="evenodd" stroke="#000" stroke-width="1px"/>
<path d="m767.54 671.14h-36.985l-15.742-28.305" fill="none" stroke="#fff" stroke-width="1px"/>
<rect x="743.14" y="675.55" width="6.6888" height="11.094" rx="0" ry="5.5471" fill="none" stroke="#fff"/>
<path d="m732.41 674v29" fill="none" stroke="#fff" stroke-width="1px"/>
<path d="m716.41 650.28-11.033 19.653" fill="none" stroke="#fff" stroke-width="1px"/>
<path d="m714 703v-24h8v24" fill="none" stroke="#fff" stroke-width="1px"/>
</g>
<path d="m12.938 543c35.779 126.14 151.42 218.5 288.56 218.5 137.14 0 252.78-92.363 288.56-218.5h-577.12z" fill="#5ab532" fill-rule="evenodd" stroke="#000" stroke-width="3"/>
<g transform="matrix(-4.0607 0 0 4.0607 3128.8 -2314.5)">
<path d="m703.76 703.21 57.686-0.41322v-31.653h5.8679l-16.281-28.141h-36.033l-15.413 26.591h4.1736v33.616z" fill-rule="evenodd" stroke="#000" stroke-width="1px"/>
<path d="m767.54 671.14h-36.985l-15.742-28.305" fill="none" stroke="#fff" stroke-width="1px"/>
<rect x="743.14" y="675.55" width="6.6888" height="11.094" rx="0" ry="5.5471" fill="none" stroke="#fff"/>
<path d="m732.41 674v29" fill="none" stroke="#fff" stroke-width="1px"/>
<path d="m716.41 650.28-11.033 19.653" fill="none" stroke="#fff" stroke-width="1px"/>
<path d="m714 703v-24h8v24" fill="none" stroke="#fff" stroke-width="1px"/>
</g>
<path transform="matrix(.95364 -.02397 .02397 .95364 91.811 105.2)" d="m375.2 186.16-115.26-7.8554-46.268 95.906-50.829-103.75-106.19 7.884 64.435-95.894-59.923-88.022 115.26 7.8554 46.268-95.906 50.829 103.75 106.19-7.8841-64.435 95.894 59.923 88.022z" fill="#2b5df2" stroke="#000" stroke-width="3"/>
</g>
<g>
<path d="m1.5 1.5v458.87c0 166.31 134.31 301.13 300 301.13 165.69 0 300-134.82 300-301.13v-458.87h-600z" fill="url(#a)"/>
<path d="m1.5 1.5v458.87c0 166.31 134.31 301.13 300 301.13 165.69 0 300-134.82 300-301.13v-458.87h-600z" fill="none" stroke="#000" stroke-width="3"/>
</g>
</svg>
