<?xml version="1.0" encoding="UTF-8" standalone="no"?>
<!-- Created with Inkscape (http://www.inkscape.org/) -->

<svg
   xmlns:dc="http://purl.org/dc/elements/1.1/"
   xmlns:cc="http://creativecommons.org/ns#"
   xmlns:rdf="http://www.w3.org/1999/02/22-rdf-syntax-ns#"
   xmlns:svg="http://www.w3.org/2000/svg"
   xmlns="http://www.w3.org/2000/svg"
   xmlns:sodipodi="http://sodipodi.sourceforge.net/DTD/sodipodi-0.dtd"
   xmlns:inkscape="http://www.inkscape.org/namespaces/inkscape"
   version="1.0"
   width="208.86046"
   height="244.65999"
   id="svg2780"
   inkscape:version="0.92.4 (5da689c313, 2019-01-14)"
   sodipodi:docname="Andwil_SG-blazon.svg">
  <metadata
     id="metadata27">
    <rdf:RDF>
      <cc:Work
         rdf:about="">
        <dc:format>image/svg+xml</dc:format>
        <dc:type
           rdf:resource="http://purl.org/dc/dcmitype/StillImage" />
        <dc:title></dc:title>
      </cc:Work>
    </rdf:RDF>
  </metadata>
  <sodipodi:namedview
     pagecolor="#ffffff"
     bordercolor="#666666"
     borderopacity="1"
     objecttolerance="10"
     gridtolerance="10"
     guidetolerance="10"
     inkscape:pageopacity="0"
     inkscape:pageshadow="2"
     inkscape:window-width="3236"
     inkscape:window-height="1417"
     id="namedview25"
     showgrid="false"
     inkscape:zoom="2.0000001"
     inkscape:cx="48.234759"
     inkscape:cy="216.69039"
     inkscape:window-x="-8"
     inkscape:window-y="-8"
     inkscape:window-maximized="1"
     inkscape:current-layer="svg2780"
     inkscape:measure-start="104.255,149.787"
     inkscape:measure-end="104.255,126.383"
     showguides="true"
     inkscape:object-paths="true"
     inkscape:snap-intersection-paths="true" />
  <defs
     id="defs2782" />
  <path
     inkscape:connector-curvature="0"
     style="fill:#ffffff;fill-opacity:1;fill-rule:evenodd;stroke:#000000;stroke-width:1.99999988;stroke-linecap:butt;stroke-miterlimit:4;stroke-dashoffset:0;stroke-opacity:1"
     id="path4212"
     d="m 1,1 3.761095,158.00304 c 2.686489,112.85918 196.651755,112.85918 199.338255,0 L 207.86045,1 Z" />
  <path
     style="opacity:1;fill:#cc2918;fill-opacity:1;stroke:#000000;stroke-width:1;stroke-miterlimit:8;stroke-dasharray:none;stroke-dashoffset:4.57999992;stroke-opacity:1"
     d="m 90.274598,12.268502 c -2.411763,13.156282 -3.122526,26.530582 3.593825,35.462253 6.134707,-0.08355 12.468497,-0.01779 17.324117,-1.06066 4.19795,-14.691404 9.26317,-28.918638 29.87526,-34.825008 -10.54551,13.632595 -15.14368,24.550097 -14.84924,33.234018 10.79376,-0.950134 20.48563,-2.512432 28.28427,-5.126525 6.50369,-10.787932 10.5212,-22.313948 31.46625,-28.8146 -7.69944,8.960884 -14.59029,18.219668 -17.85445,28.8146 12.44035,8.108847 18.31645,14.930588 18.73833,20.682873 -8.92991,-5.12115 -19.81855,-10.88256 -29.16815,-10.606601 -19.66815,5.180621 -38.52613,10.152388 -58.689863,10.253048 -1.89673,0.335885 -3.650882,1.061494 -0.707107,3.18198 19.15124,11.106445 41.24022,15.288225 63.63961,18.73833 6.2038,-5.29313 22.63465,-17.747007 33.83145,-11.804825 -6.16488,3.412955 -14.72143,9.427423 -20.21965,15.340358 -1.19731,1.878306 -2.46418,3.737041 0.88389,6.894291 13.2785,10.549586 12.49071,18.176306 13.43503,26.162946 -12.46802,-14.77321 -24.84654,-28.390513 -50.02781,-27.223606 2.8483,13.156596 9.69454,21.035906 16.61701,28.814596 1.08028,3.2626 1.11983,5.78573 -4.06586,4.5962 -13.55045,-7.19668 -22.75082,-19.12172 -28.63783,-34.648233 L 99.525277,80.257666 c 7.356093,10.007479 12.258193,20.505754 11.313713,32.173354 -6.59702,-1.70269 -10.67722,-5.56265 -15.026024,-9.19238 8.384964,43.10792 44.857774,43.88626 75.660424,53.20978 -12.21467,25.86454 -25.23846,51.15114 -42.07285,73.71588 C 111.02646,221.15953 92.493364,213.74501 74.422987,201.70325 48.911429,180.50076 43.575545,148.6795 49.67425,110.84003 45.803728,106.67878 42.633461,102.17998 40.835416,97.051452 40.01481,94.710855 37.517244,93.108527 34.604037,92.278481 31.052131,91.266453 26.078102,86.993809 22.94972,87.69301 c -8.334136,1.8627 -8.407613,-4.492723 -8.807585,-7.965674 l 14.318912,0.176777 c -1.855499,-3.078995 -4.587521,-5.979438 -12.727922,-7.778175 -5.9753154,-2.262063 -1.126683,-8.16637 1.590991,-9.192388 -3.074076,-1.979779 -2.127029,-4.37438 0.53033,-5.3033 15.585043,-5.447989 32.140894,-6.663608 49.14392,-4.772971 1.320334,-6.394918 5.782545,-6.747766 10.076271,-7.424621 -0.522946,-14.11055 1.675808,-27.480429 10.107766,-33.840835 1.284716,-0.969089 3.591058,-2.0446446 3.092195,0.676679 z"
     id="path5163"
     inkscape:connector-curvature="0"
     sodipodi:nodetypes="scccccccccccccccccccccccccccsssccccsccss" />
  <path
     style="opacity:1;fill:#ffffff;fill-opacity:1;stroke:#000000;stroke-width:1;stroke-miterlimit:8;stroke-dasharray:none;stroke-dashoffset:4.57999992;stroke-opacity:1"
     d="m 60.413434,63.640657 c -3.319495,0.367193 -2.977153,3.026626 -1.193243,3.756505 0.512127,0.209535 0.928841,0.518309 1.37002,1.325825 5.230571,9.573819 10.47026,8.759289 15.644737,9.192388 C 75.526759,70.919594 77.1993,61.783853 60.413434,63.640657 Z"
     id="path5167"
     inkscape:connector-curvature="0"
     sodipodi:nodetypes="ssscs" />
  <path
     style="opacity:1;fill:none;fill-opacity:1;stroke:#000000;stroke-width:1;stroke-miterlimit:8;stroke-dasharray:none;stroke-dashoffset:4.57999992;stroke-opacity:1"
     d="m 17.324116,62.93355 c 1.911266,0.862335 4.274063,0.314093 5.175883,-2.211057"
     id="path5169"
     inkscape:connector-curvature="0"
     sodipodi:nodetypes="cc" />
  <path
     style="opacity:1;fill:#cc2918;fill-opacity:1;stroke:#000000;stroke-width:1;stroke-miterlimit:8;stroke-dasharray:none;stroke-dashoffset:4.57999992;stroke-opacity:1"
     d="m 68.666696,63.787816 c -2.430295,1.221335 -5.012016,5.177784 -1.358971,7.454239 3.155693,1.966522 5.889683,-1.366614 7.019928,-3.825918 -1.099636,-1.955481 -3.359468,-3.198938 -5.660957,-3.628321 z"
     id="path5165"
     inkscape:connector-curvature="0"
     sodipodi:nodetypes="cscc" />
</svg>
