<?xml version="1.0" encoding="iso-8859-1"?>
<!DOCTYPE svg PUBLIC "-//W3C//DTD SVG 1.1//EN" "http://www.w3.org/Graphics/SVG/1.1/DTD/svg11.dtd">
<!-- Auto-generated by fig2svg tool
     Date: Mon Oct 30 08:06:47 2006 -->
<svg xmlns="http://www.w3.org/2000/svg"
     width="438" height="480" viewBox="21 15 438 480">
<metadata>
<rdf:RDF xmlns:rdf="http://www.w3.org/1999/02/22-rdf-syntax-ns#"
         xmlns:dc="http://purl.org/dc/elements/1.1/">
<rdf:Description
 dc:title="Wappen Schmitten (CH-GR)"
 dc:date="2006-10-30"
 dc:format="image/svg+xml"
 dc:language="de">
<dc:creator rdf:resource="http://de.wikipedia.org/wiki/Benutzer:Bernina" />
</rdf:Description>
</rdf:RDF>
</metadata>
<title>
Wappen Schmitten (CH-GR)
</title>
<defs>
<clipPath id="clippath">
<path d="M360,4140 A3240,3240 0.0 0 0 6840,4140 L6840,270 L360,270 L360,4140 Z" />
</clipPath>
<style type="text/css">
  <![CDATA[
  .Rand2 { stroke: #202020; stroke-width:30; }
  .Rand6 { stroke: #202020; stroke-width:90; }
  .Blau { fill: #0000ff; }
  .Gold { fill: #ffef00; }
  ]]>
</style>
</defs>
<g stroke="none" stroke-miterlimit="10" stroke-width="10"
   stroke-linecap="butt" stroke-linejoin="miter"
   fill="none" fill-rule="evenodd" transform="scale(0.066667)">
<g clip-path="url(#clippath)">
<path id="feld-1" class="Blau"
      d="M-225,-225 L-225,7425 L7425,7425 L7425,-225 L-225,-225 Z" />
<g transform="rotate(45 3600,3465) translate(0,-900)">
<path id="zepter/lilie-1" class="Gold Rand2"
      d="M3660,2295 C3670,2145 3680,1995 3745,1845
         C3810,1695 3930,1545 3975,1395 C4020,1245 3990,1095 3930,1005
         C3870,915 3780,885 3720,840 C3660,795 3630,735 3600,675
         C3570,735 3540,795 3480,840 C3420,885 3330,915 3270,1005
         C3210,1095 3180,1245 3225,1395 C3270,1545 3390,1695 3455,1845
         C3520,1995 3530,2145 3540,2295" />
<path id="zepter/lilie-2" class="Gold Rand2"
      d="M3510,2295 C3480,2175 3450,2055 3390,1920
         C3330,1785 3240,1635 3105,1560 C2970,1485 2790,1485 2685,1590
         C2580,1695 2550,1905 2595,2040 C2640,2175 2760,2235 2880,2295
         C2880,2145 2880,1995 2925,1935 C2970,1875 3060,1905 3120,1935
         C3180,1965 3210,1995 3255,2055 C3300,2115 3360,2205 3420,2295" />
<path id="zepter/lilie-3" class="Gold Rand2"
      d="M3690,2295 C3720,2175 3750,2055 3810,1920
         C3870,1785 3960,1635 4095,1560 C4230,1485 4410,1485 4515,1590
         C4620,1695 4650,1905 4605,2040 C4560,2175 4440,2235 4320,2295
         C4320,2145 4320,1995 4275,1935 C4230,1875 4140,1905 4080,1935
         C4020,1965 3990,1995 3945,2055 C3900,2115 3840,2205 3780,2295" />
<path id="zepter/stab-1" class="Gold Rand2"
      d="M3420,2835 L3420,7065 L3555,7065 L3555,7290 L3645,7290 L3645,7065
         L3780,7065 L3780,2835 L3690,2835 L3690,2385 L3510,2385 L3510,2835
         L3420,2835 Z" />
<path id="zepter/bund-1" class="Gold Rand2"
      d="M3870,7289 A270,134 0.0 0 0 3330,7289 A270,134 0.0 0 0 3870,7289 Z" />
<path id="zepter/bund-2" class="Gold Rand2"
      d="M3420,2295 A90,90 0.0 0 0 3330,2385 A90,90 0.0 0 0 3420,2475
         L3780,2475 A90,90 0.0 0 0 3870,2385 A90,90 0.0 0 0 3780,2295
         L3420,2295 Z" />
<path id="zepter/bund-3" class="Gold Rand2"
      d="M3420,2745 A90,90 0.0 0 0 3330,2835 A90,90 0.0 0 0 3420,2925
         L3780,2925 A90,90 0.0 0 0 3870,2835 A90,90 0.0 0 0 3780,2745
         L3420,2745 Z" />
<path id="zepter/bund-4" class="Gold Rand2"
      d="M3420,6975 A90,90 0.0 0 0 3330,7065 A90,90 0.0 0 0 3420,7155
         L3780,7155 A90,90 0.0 0 0 3870,7065 A90,90 0.0 0 0 3780,6975
         L3420,6975 Z" />
</g>
<g transform="rotate(-45 3600,3465) translate(0,-500)">
<path id="bischof/krümme-1" class="Gold Rand2"
      d="M3690,1440 C3690,1485 3690,1530 3675,1575
         C3660,1620 3630,1665 3578,1688 C3525,1710 3450,1710 3390,1672
         C3330,1635 3285,1560 3262,1478 C3240,1395 3240,1305 3278,1222
         C3315,1140 3390,1065 3488,1028 C3585,990 3705,990 3818,1020
         C3930,1050 4035,1110 4088,1230 C4140,1350 4140,1530 4110,1650
         C4080,1770 4020,1830 3900,1905 C3780,1980 3600,2070 3510,2160
         C3420,2250 3420,2340 3420,2408 C3420,2475 3420,2520 3420,2565
         L3780,2565 C3780,2520 3780,2475 3772,2422
         C3765,2370 3750,2310 3855,2228 C3960,2145 4185,2040 4298,1852
         C4410,1665 4410,1395 4358,1192 C4305,990 4200,855 4012,788
         C3825,720 3555,720 3368,788 C3180,855 3075,990 3022,1132
         C2970,1275 2970,1425 3015,1552 C3060,1680 3150,1785 3255,1838
         C3360,1890 3480,1890 3562,1852 C3645,1815 3690,1740 3705,1665
         C3720,1590 3705,1515 3690,1440 Z" />
<path id="bischof/stab-1" class="Gold Rand2"
      d="M3420,2520 L3420,6930 L3510,7290 L3690,7290 L3780,6930 L3780,2520
         L3420,2520 Z" />
<path id="bischof/bund-1" class="Gold Rand2"
      d="M3870,6794 A270,134 0.0 0 0 3330,6794 A270,134 0.0 0 0 3870,6794 Z" />
<path id="bischof/bund-2" class="Gold Rand2"
      d="M3780,2520 L3420,2520 A90,90 0.0 0 0 3420,2700 L3780,2700
         A90,90 0.0 0 0 3780,2520 Z" />
<path id="bischof/kugel-1" class="Gold Rand2"
      d="M3870,1350 A90,90 0.0 0 0 3690,1350 A90,90 0.0 0 0 3870,1350 Z" />
<path id="bischof/kugel-2" class="Gold Rand2"
      d="M3690,1530 A90,90 0.0 0 0 3510,1530 A90,90 0.0 0 0 3690,1530 Z" />
<path id="bischof/kugel-3" class="Gold Rand2"
      d="M3870,1530 A90,90 0.0 0 0 3690,1530 A90,90 0.0 0 0 3870,1530 Z" />
<path id="bischof/kugel-4" class="Gold Rand2"
      d="M3008,1134 A120,120 0.0 0 0 2768,1134 A120,120 0.0 0 0 3008,1134 Z" />
<path id="bischof/kugel-5" class="Gold Rand2"
      d="M4508,1958 A120,120 0.0 0 0 4268,1958 A120,120 0.0 0 0 4508,1958 Z" />
<path id="bischof/kugel-6" class="Gold Rand2"
      d="M3690,1350 A90,90 0.0 0 0 3510,1350 A90,90 0.0 0 0 3690,1350 Z" />
<path id="bischof/kugel-7" class="Gold Rand2"
      d="M4605,1170 A120,120 0.0 0 0 4365,1170 A120,120 0.0 0 0 4605,1170 Z" />
<path id="bischof/kugel-8" class="Gold Rand2"
      d="M3240,1890 A120,120 0.0 0 0 3000,1890 A120,120 0.0 0 0 3240,1890 Z" />
<path id="bischof/kugel-9" class="Gold Rand2"
      d="M3494,645 A120,120 0.0 0 0 3254,645 A120,120 0.0 0 0 3494,645 Z" />
<path id="bischof/kugel-10" class="Gold Rand2"
      d="M4200,675 A120,120 0.0 0 0 3960,675 A120,120 0.0 0 0 4200,675 Z" />
<path id="bischof/kugelx-1" class="Gold Rand2"
      d="M3780,1440 A90,90 0.0 0 0 3600,1440 A90,90 0.0 0 0 3780,1440 Z" />
</g>
</g>
<path id="clip-boundary" class="Rand6"
      d="M360,4140 A3240,3240 0.0 0 0 6840,4140 L6840,270 L360,270 L360,4140 Z" />
</g>
</svg>
