<?xml version="1.0" encoding="UTF-8"?>
<!DOCTYPE svg  PUBLIC '-//W3C//DTD SVG 1.1//EN'  'http://www.w3.org/Graphics/SVG/1.1/DTD/svg11.dtd'>
<svg width="438" height="480" viewBox="21 15 438 480" xmlns="http://www.w3.org/2000/svg">
<metadata>xmlns:rdf="http://www.w3.org/1999/02/22-rdf-syntax-ns#"
         xmlns:dc="http://purl.org/dc/elements/1.1/"&gt;
 dc:title="Wappen Brusio (CH-GR)"
 dc:date="2006-10-26"
 dc:format="image/svg+xml"
 dc:language="de"&gt;
 dc:creator="http://de.wikipedia.org/wiki/Benutzer:Bernina"</metadata>
<title>Wappen Brusio (CH-GR)</title>
<defs>
<clipPath id="a">
<path d="m360 4140a3240 3240 0 0 0 6480 0v-3870h-6480v3870z"/>
</clipPath>
<style type="text/css"><![CDATA[
  .Rand3 { stroke: #202020; stroke-width:45; }
  .Rand6 { stroke: #202020; stroke-width:90; }
  .Rot { fill: #ff0000; }
  .Silber { fill: #ffffff; }
  ]]></style>
</defs>
<g transform="scale(.066667)" fill="none" fill-rule="evenodd" stroke-miterlimit="10" stroke-width="10">
<g clip-path="url(#a)">
<path class="Rot" d="m-225-225v7650h7650v-7650h-7650z"/>
<path class="Silber" d="m-225 2970v1260h7650v-1260h-7650z"/>
<path class="Silber" d="m2970-225v7650h1260v-7650h-1260z"/>
<path class="Rand3" d="m2970-225v3195h-3195"/>
<path class="Rand3" d="m4230-225v3195h3195"/>
<path class="Rand3" d="m-225 4230h3195v3195"/>
<path class="Rand3" d="m7425 4230h-3195v3195"/>
</g>
<path class="Rand6" d="m360 4140a3240 3240 0 0 0 6480 0v-3870h-6480v3870z"/>
</g>
</svg>
