<?xml version="1.0" encoding="UTF-8" standalone="no"?>
<svg
   xmlns:dc="http://purl.org/dc/elements/1.1/"
   xmlns:cc="http://creativecommons.org/ns#"
   xmlns:rdf="http://www.w3.org/1999/02/22-rdf-syntax-ns#"
   xmlns:svg="http://www.w3.org/2000/svg"
   xmlns="http://www.w3.org/2000/svg"
   class="nicermediapages-SVG"
   id="svg20"
   version="1.0"
   width="603"
   height="763">
  <defs
     id="defs29" />
  <desc
     id="desc22">Coat of Arms of Canton of Freiburg (Fribourg)</desc>
  <g
     style="display:inline"
     id="layer1">
    <path
       style="fill:#ffffff;fill-opacity:1"
       d="m 1.5,1.49998 0,458.86792 C 1.5,626.6785 135.81456,761.5 301.49999,761.5 467.18543,761.5 601.5,626.6785 601.5,460.3679 l 0,-458.86792 -600,0 z"
       id="path1899" />
  </g>
  <g
     style="display:inline"
     id="layer2">
    <path
       id="path2810"
       d="m 266.04628,678.70734 c -37.33448,-40.68467 -90.84701,-54.42475 -145.3588,-39.58825 29.14781,-18.5784 93.80661,-38.90838 -51.305009,-48.45628 39.562669,-23.8266 26.606592,-47.65316 -47.882516,-71.47976 36.277079,-12.49949 53.384084,-38.5556 3.422466,-102.80232 39.329905,15.90729 103.493989,76.15123 97.476309,-7.09442 24.06425,26.88863 56.96102,117.85796 64.41377,24.22814 16.73235,46.95996 20.95016,133.90102 59.28006,70.3085 -14.92098,22.13933 13.09992,134.48896 43.67821,151.7381 l -23.72449,23.14629 z"
       style="fill:#009944;fill-opacity:1;fill-rule:evenodd;stroke:#000000;stroke-width:2.99999928;stroke-linecap:square;stroke-linejoin:miter;stroke-miterlimit:4;stroke-dasharray:none;stroke-opacity:1" />
    <path
       style="fill:#009944;fill-opacity:1;fill-rule:evenodd;stroke:#000000;stroke-width:2.99999928;stroke-linecap:square;stroke-linejoin:miter;stroke-miterlimit:4;stroke-dasharray:none;stroke-opacity:1"
       d="m 334.05692,673.80816 c 37.33449,-40.68467 90.84702,-54.42475 145.3588,-39.58825 -29.14781,-18.5784 -93.80661,-38.90838 51.30501,-48.45628 -39.56266,-23.8266 -26.60659,-47.65316 47.88252,-71.47976 -36.27708,-12.49949 -53.38409,-38.5556 -3.42247,-102.80232 -39.3299,15.90729 -103.49399,76.15123 -97.47631,-7.09442 -24.06425,26.88863 -56.96102,117.85796 -64.41377,24.22814 -16.73234,46.95996 -20.95016,133.90102 -59.28006,70.30849 14.92098,22.13934 -15.17023,142.77022 -45.74852,160.01936 l 25.7948,14.86504 z"
       id="path4582" />
    <path
       d="m 1.4999996,4.5000004 596.9997604,0 0,377.9096696 -596.9997604,0 0,-377.9096696 z M 252.56091,741.50017 l 90.41611,-0.0564 c -6.02445,-10.46655 -18.54278,-22.18018 -15.87833,-44.50526 1.14154,-9.56485 4.69924,-21.84018 10.56059,-33.44702 66.5789,-85.5762 114.30927,-122.19594 171.46178,-183.28857 L 324.89947,641.66507 c -8.86284,-42.02574 -13.43568,-87.20223 -11.32388,-124.33108 0.64353,-11.31391 4.94566,-22.13299 20.81586,-42.47895 0,0 -10.41195,-0.38396 -14.82331,-17.72676 -3.84279,-15.10752 -4.184,-39.62994 2.77487,-53.11165 42.02952,-81.42556 114.69913,-123.05792 176.00662,-190.61452 -62.48021,48.76632 -124.96042,121.33021 -187.4409,146.25242 L 296.43979,114.91228 287.08293,359.9707 C 222.49406,328.9367 157.17322,258.47538 92.58435,206.39172 c 63.29001,64.6499 137.48529,117.61732 183.02503,193.94973 9.82499,16.46837 8.2127,31.31536 6.52644,51.1923 -1.5581,18.36643 -19.07918,21.67214 -19.07918,21.67214 0,0 13.43081,11.94083 17.1803,54.8554 3.74952,42.91458 -5.60475,113.24712 -5.60475,113.24712 C 172.73637,554.42213 162.35203,541.05392 105.45063,494.35818 c -6.9309,-5.68776 110.1499,110.79314 153.03412,171.03637 10.74905,15.10011 13.74991,27.18823 13.42834,32.46352 -0.73805,12.10697 -4.19699,26.60939 -18.7389,42.65443"
       style="fill:#009944;fill-opacity:1;fill-rule:nonzero;stroke:#000000;stroke-width:2.99999976;stroke-linecap:square;stroke-linejoin:miter;stroke-miterlimit:4;stroke-opacity:1"
       id="rect6378" />
    <path
       id="path4584"
       d="m 350.88234,360.53211 c 35.32868,-36.13162 69.9518,-28.34572 121.53494,-15.16959 -27.58187,-16.49929 -75.07693,-48.743 62.23855,-57.22237 -45.58814,-4.264 -40.72888,-34.91372 29.90888,-56.38598 -34.32811,-11.10069 -33.40362,-44.88243 13.87379,-101.93926 -37.21688,14.1271 -96.22249,67.62909 -90.52813,-6.30048 -20.0781,49.00278 -62.33331,130.65277 -71.22058,30.3848 -15.83341,41.70464 -19.82465,145.52012 -56.09524,89.04432 0.59496,16.85825 1.86525,83.6728 -17.96416,100.87913 70.81871,-49.98463 114.27829,-94.13536 169.165,-139.78086 -55.98298,52.48024 -114.90165,102.7636 -160.91305,156.49029 z"
       style="fill:#ffffff;fill-opacity:1;fill-rule:evenodd;stroke:#000000;stroke-width:3.00000119;stroke-linecap:square;stroke-linejoin:miter;stroke-miterlimit:4;stroke-dasharray:none;stroke-opacity:1" />
    <path
       style="fill:#ffffff;fill-opacity:1;fill-rule:evenodd;stroke:#000000;stroke-width:2.99999809;stroke-linecap:square;stroke-linejoin:miter;stroke-miterlimit:4;stroke-dasharray:none;stroke-opacity:1"
       d="m 288.41902,337.98728 c 1.98167,-41.55157 -20.80336,-68.98903 -69.14016,-110.81398 22.62352,1.53248 49.07274,0.27438 -9.26447,-78.56297 44.09246,11.03538 48.05672,-26.01481 12.43762,-88.590928 33.81461,15.807708 45.41162,35.823491 71.62083,-35.518955 16.51092,27.475325 14.6498,68.16582 67.88877,37.312924 -1.73617,31.894146 -46.65272,122.672909 23.16657,70.506489 -20.71098,39.37596 -79.46921,95.00453 -8.7973,81.04551 -25.70594,8.85519 -75.51444,98.38199 -66.04606,124.1756 L 296.56593,113.1287 288.41902,337.98728 Z"
       id="path4588" />
    <path
       style="fill:#ffffff;fill-opacity:1;fill-rule:evenodd;stroke:#000000;stroke-width:2.99999928;stroke-linecap:square;stroke-linejoin:miter;stroke-miterlimit:4;stroke-dasharray:none;stroke-opacity:1"
       d="m 256.62866,371.94903 c -34.87834,-34.30013 -67.75795,-29.16139 -118.6835,-25.90849 26.47897,-16.39046 37.2339,-26.47465 -78.732155,-51.46884 60.927065,-12.50426 48.420605,-37.36237 -32.753707,-63.68484 33.890462,-11.44655 49.872053,-35.30773 3.19731,-94.14245 36.742467,14.56729 91.551612,59.09474 85.929832,-17.13845 10.13273,31.02279 53.0725,121.30506 65.30983,32.82886 2.91323,43.00416 8.24208,154.65903 58.68393,96.4234 -13.93935,20.27436 -7.0599,82.33127 21.5067,98.12739 C 197.85068,308.32845 140.83847,248.92896 81.299629,199.17967 140.63255,254.83347 203.54086,307.55205 256.62866,371.94903 Z"
       id="path4586" />
  </g>
  <g
     style="display:inline"
     id="layer4">
    <path
       id="path3239"
       d="m 1.5,1.5 0,458.86794 C 1.5,626.67854 135.81454,761.5 301.49993,761.5 467.1854,761.5 601.5,626.67854 601.5,460.36794 L 601.5,1.5 1.5,1.5 Z"
       style="fill:none;fill-opacity:1;stroke:#000000;stroke-width:3;stroke-miterlimit:4;stroke-dasharray:none;stroke-opacity:1" />
  </g>
  <metadata
     id="metadata40">
    <rdf:RDF>
      <cc:Work
         rdf:about="">
        <dc:title></dc:title>
      </cc:Work>
    </rdf:RDF>
  </metadata>
</svg>
