<?xml version="1.0" encoding="UTF-8"?>
<!DOCTYPE svg  PUBLIC '-//W3C//DTD SVG 1.1//EN'  'http://www.w3.org/Graphics/SVG/1.1/DTD/svg11.dtd'>
<svg width="438" height="480" viewBox="21 15 438 480" xmlns="http://www.w3.org/2000/svg" xmlns:dc="http://purl.org/dc/elements/1.1/" xmlns:rdf="http://www.w3.org/1999/02/22-rdf-syntax-ns#" xmlns:xlink="http://www.w3.org/1999/xlink">
<metadata>
<rdf:RDF>
<rdf:Description dc:date="2006-11-05" dc:format="image/svg+xml" dc:language="de" dc:title="Wappen Sagogn (CH-GR)">
<dc:creator rdf:resource="http://de.wikipedia.org/wiki/Benutzer:Bernina"/>
</rdf:Description>
</rdf:RDF>
</metadata>
<title>Wappen Sagogn (CH-GR)</title>
<style type="text/css"><![CDATA[
  .Rand1 { stroke: #202020; stroke-width:15; }
  .Rand2 { stroke: #202020; stroke-width:30; }
  .Rand6 { stroke: #202020; stroke-width:90; }
  .Schwarz3 { stroke: #000000; stroke-width:45; }
  .Gold2 { stroke: #ffef00; stroke-width:30; }
  .Schwarz { fill: #000000; }
  .Rot { fill: #ff0000; }
  .Gold { fill: #ffef00; }
  .Silber { fill: #ffffff; }
  ]]></style>
<defs>
<path id="e" d="m5128 1696a46 46 0 0 0-92 0 46 46 0 0 0 92 0z"/>
<path id="d" d="m5218 1702a46 46 0 0 0-92 0 46 46 0 0 0 92 0z"/>
<path id="c" d="m5140 1516a46 46 0 0 0-92 0 46 46 0 0 0 92 0z"/>
<path id="b" d="m5230 1522a46 46 0 0 0-92 0 46 46 0 0 0 92 0z"/>
<path id="a" d="m5112 1202-330 5390 90 6 330-5390a269.54 269.54 0 0 0-538-34 49.06 49.06 0 1 0 78 1 185.54 185.54 0 0 1 370 27z"/>
<clipPath id="f">
<path d="m360 4140a3240 3240 0 0 0 6480 0v-3870h-6480v3870z"/>
</clipPath>
</defs>
<g transform="scale(.066667)" fill="none" fill-rule="evenodd" stroke-miterlimit="10" stroke-width="10">
<g clip-path="url(#f)">
<path class="Gold" d="m-225-225v7650h7650v-7650h-7650z"/>
<path class="Silber Rand2" d="m4236 1080a636 636 0 0 0-1272 0 636 636 0 0 0 1272 0z"/>
<path class="Schwarz Rand2" d="m4500 6660c0 60 0 120-15 165s-45 75-90 90-105 15-150 0-75-45-113-105c-37-60-82-150-127-240"/>
<path class="Schwarz Rand2" d="m2835 6795c-15 15-30 30-37 67-8 38-8 98 22 143s90 75 135 90 75 15 120-15 105-90 165-165 120-165 180-255"/>
<path class="Silber Rand2" d="m3510 5940c-30 150-60 300-60 420s30 210-15 300-165 180-240 240-105 90-150 105-105 15-150 0-75-45-90-75-15-60 0-90 45-60 90-105 105-105 150-180 75-165 90-270 15-225 15-345"/>
<path class="Silber Rand2" d="m3780 5850c30 150 60 300 60 405s-30 165 0 210 120 75 180 135 90 150 150 195 150 45 210 30 90-45 105-90 15-105 0-135-45-30-105-75-150-135-210-270-90-315-120-495"/>
<path class="Schwarz Rand2" d="m3240 1890c-150 30-300 60-405 75s-165 15-240 0-165-45-225-45-90 30-120 120-60 240-45 390 75 300 135 375 120 75 210 15 210-180 285-270 105-150 120-120 15 150 15 240 0 150 15 255 45 255 60 345 15 120-15 195-90 195-135 390-75 465-105 795-60 720-45 945 75 285 180 330 255 75 405 105h90c180 0 360 0 525-30s315-90 405-150 120-120 135-165 15-75-15-285-90-600-150-960-120-690-165-870-75-210-75-300 30-240 30-375-30-255-45-345-15-150 0-120 45 150 90 315 105 375 150 510 75 195 120 240 105 75 150 90 75 15 105 0 60-45 90-135 60-240 60-375-30-255-60-330-60-105-105-90-105 75-120 75 15-60 0-150-75-210-150-330-165-240-255-300-180-60-270-60"/>
<path class="Rot Rand2" d="m2992 6652c8 23 38 38 98 68s150 75 210 82c60 8 90-22 45-67s-165-105-233-135c-67-30-82-30-97-15s-30 45-23 67z"/>
<path class="Rot Rand2" d="m4388 6502c-23-7-68 8-128 38s-135 75-165 120-15 90 45 75 165-90 218-143c52-52 52-82 30-90z"/>
<path class="Schwarz3" d="m3156 6072 278 344"/>
<path class="Schwarz3" d="m3846 6064c38 48.67 76 97.33 128.33 137.33 52.34 40 119 71.34 185.67 102.67"/>
<path class="Schwarz3" d="m4078 6048c-9.33 54-18.67 108-55 163s-99.67 111-163 167"/>
<path class="Schwarz3" d="m3140 6372c58-28 116-56 170-100s104-104 154-164"/>
<path class="Silber Rand1" d="m2992 3165c-7 15 8 45 23 60s30 15 83 30c52 15 142 45 187 75s45 60 37 105c-7 45-22 105 0 135 23 30 83 30 106-15 22-45 7-135 37-180s105-45 150-30 60 45 60 90-15 105 7 135c23 30 83 30 106 0 22-30 7-90 7-135s15-75 75-105 165-60 218-90c52-30 52-60-23-60s-225 30-345 45-210 15-315 0-225-45-300-60-105-15-113 0z"/>
<path class="Gold2" d="m2340 1890c30 0 60 0 90 60s60 180 75 285 15 195 0 300-45 225-75 345"/>
<path class="Gold2" d="m2880 1980c150 90 300 180 465 225s345 45 480 15 225-90 315-150"/>
<path class="Gold2" d="m4770 2700c-30 0-60 0-90 60s-60 180-75 285-15 195 0 285 45 180 75 270"/>
<path class="Schwarz Rand2" d="m3960 2070c30-60 60-120 60-195s-30-165-45-300-15-315-30-420-45-135-90-165-105-60-120-75 15-15 15-30-30-45-75-60-105-15-180 15-165 90-225 255-90 435-105 585-15 180 0 240 45 150 75 240"/>
<path class="Rot Rand2" d="m3968 3255c-8 15-8 45-8 75s0 60 15 135 45 195 90 255 105 60 135 15 30-135 15-210-45-135-75-180-60-75-82-90c-23-15-38-15-53-15s-30 0-37 15z"/>
<path class="Rot Rand2" d="m2520 3735c-30 60-60 120 0 180s210 120 300 105 120-105 165-232c45-128 105-293 180-420 75-128 165-218 285-338s270-270 405-435 255-345 315-450 60-135 30-165-90-60-150-15-120 165-225 315-255 330-383 480c-127 150-232 270-322 338-90 67-165 82-240 97"/>
<path class="Schwarz Rand2" d="m2460 2502c-70-24-140-48-235-135s-215-237-275-327-60-120-30-150 90-60 135-75 75-15 120 15 105 90 150 150 75 120 97.33 165.67c22.34 45.66 37 77 51.67 108.33"/>
<path class="Schwarz Rand2" d="m4680 2880c30-30 60-60 120-105s150-105 225-105 135 60 150 120-15 120-60 180-105 120-180 165-165 75-221.33 88.33c-56.34 13.34-79 10-101.67 6.67"/>
<path class="Silber Rand2" d="m3510 1080c-60 0-120 0-150 135s-30 405 0 555 90 180 150 195 120 15 180-15 120-90 150-225 30-345 0-465-90-150-150-180"/>
<path class="Rot Rand2" d="m4342 3780a202 202 0 0 0-404 0 202 202 0 0 0 404 0z"/>
<path class="Rot Rand2" d="m2955 3135c-45-30-105-30-165 0s-120 90-180 195-120 255-105 360 105 165 165 150 90-105 150-210 150-225 180-315 0-150-45-180z"/>
<path class="Silber Rand2" d="m1725 1605c15 75 45 135 90 210s105 165 165 195 120 0 150-45 30-105 15-150-45-75-60-120-15-105-15-165 0-120 15-180 45-120 75-165 60-75 45-90-75-15-120 15-75 90-90 90-15-60-30-120-45-120-75-150-60-30-75 0-15 90 0 150 45 120 30 165-75 75-105 135-30 150-15 225z"/>
<path class="Silber Rand2" d="m4965 2715c-15 45-15 105 15 150s90 75 150 30 120-165 150-300 30-285 0-390-90-165-150-225-120-120-150-120-30 60 0 120 90 120 120 225 30 255 15 330-45 75-75 90-60 45-75 90z"/>
<path class="Rand2" d="m3690 1350c0-30 0-60 15-75s45-15 75-15"/>
<path class="Rand2" d="m3420 1260c60 0 120 0 135 45s-15 135 0 180 75 45 105 30 30-45 30-75"/>
<path class="Rand2" d="m3330 1710c60-60 120-120 180-150s120-30 180 0 120 90 180 150"/>
<path class="Rand2" d="m3510 1686c29.33 3.33 58.67 6.67 88.67 6.67s60.66-3.34 91.33-6.67"/>
<path class="Schwarz" d="m3512 1316a44 30 0 0 0-88 0 44 30 0 0 0 88 0z"/>
<path class="Schwarz" d="m3806 1316a44 30 0 0 0-88 0 44 30 0 0 0 88 0z"/>
<path class="Rand2" d="m1754 1662c40-27.33 80-54.67 97.67-102.33 17.66-47.67 13-115.67 8.33-183.67"/>
<path class="Rand2" d="m3442 1736c-13.33 12-26.67 24-23.33 41.67 3.33 17.66 23.33 41 24.33 59.33s-17 31.67-35 45"/>
<path class="Rand2" d="m3522 1756c-13.33 16.67-26.67 33.33-24 49.33s21.33 31.34 23 47.34-13.67 32.66-14.67 55c-1 22.33 12.34 50.33 25.67 78.33"/>
<path class="Rand2" d="m3608 1752c-15.33 18-30.67 36-26.67 50s27.34 24 30.67 39-13.33 35-11.67 56.67c1.67 21.66 21.67 45 41.67 68.33"/>
<path class="Rand2" d="m3708 1736c-18.67 22-37.33 44-35.67 60.67 1.67 16.66 23.67 28 28.67 41.33s-7 28.67 3 43.67 42 29.66 74 44.33"/>
<path class="Rand2" d="m3768 1692c-10 21.33-20 42.67-18.33 56.67 1.66 14 15 20.66 23.33 35.66s11.67 38.34 15 61.67"/>
<use class="Rand2" xlink:href="#e"/>
<use class="Rand2" xlink:href="#d"/>
<use class="Rand2" xlink:href="#c"/>
<use class="Rand2" xlink:href="#b"/>
<use class="Rand2" xlink:href="#a"/>
<use class="Schwarz" xlink:href="#e"/>
<use class="Schwarz" xlink:href="#d"/>
<use class="Schwarz" xlink:href="#c"/>
<use class="Schwarz" xlink:href="#b"/>
<use class="Schwarz" xlink:href="#a"/>
<path class="Silber Rand2" d="m5220 2070c-90 0-180 0-225 15s-45 45-15 60 90 15 150 15"/>
<path class="Silber Rand2" d="m5220 2160c-90 0-180 0-225 15s-45 45-15 60 90 15 150 15"/>
<path class="Silber Rand2" d="m5220 2250c-90 0-180 0-225 15s-45 45-15 60 90 15 150 15"/>
<path class="Silber Rand2" d="m5202 2340c-68.67 0-137.33 0-171.67 15-34.33 15-34.33 45-4.33 60s90 15 150 15"/>
</g>
<path class="Rand6" d="m360 4140a3240 3240 0 0 0 6480 0v-3870h-6480v3870z"/>
</g>
</svg>
