<?xml version="1.0" encoding="UTF-8"?>
<!DOCTYPE svg  PUBLIC '-//W3C//DTD SVG 1.1//EN'  'http://www.w3.org/Graphics/SVG/1.1/DTD/svg11.dtd'>
<svg width="438" height="480" viewBox="21 15 438 480" xmlns="http://www.w3.org/2000/svg">
<metadata>
<rdf:RDF xmlns:dc="http://purl.org/dc/elements/1.1/" xmlns:rdf="http://www.w3.org/1999/02/22-rdf-syntax-ns#">
<rdf:Description dc:date="2006-11-06" dc:format="image/svg+xml" dc:language="de" dc:title="Wappen Thusis (CH-GR)">
<dc:creator rdf:resource="http://de.wikipedia.org/wiki/Benutzer:Bernina"/>
</rdf:Description>
</rdf:RDF>
</metadata>
<title>Wappen Thusis (CH-GR)</title>
<defs>
<clipPath id="a">
<path d="m360 4140a3240 3240 0 0 0 6480 0v-3870h-6480v3870z"/>
</clipPath>
<style type="text/css"><![CDATA[
  .Rand1 { stroke: #202020; stroke-width:15; }
  .Rand2 { stroke: #202020; stroke-width:30; }
  .Rand6 { stroke: #202020; stroke-width:90; }
  .Schwarz { fill: #000000; }
  .Rot { fill: #ff0000; }
  .Gold { fill: #ffef00; }
  .Silber { fill: #ffffff; }
  ]]></style>
</defs>
<g transform="scale(.066667)" fill="none" fill-rule="evenodd" stroke-miterlimit="10" stroke-width="10">
<g clip-path="url(#a)">
<path class="Rot" d="m-225-225v7650h7650v-7650h-7650z"/>
<path class="Gold Rand2" d="m1035 3915c-30-30-60-60-90-83-30-22-60-37-90-30-30 8-60 38-75 46-15 7-15-8 0-38s45-75 82-98c38-22 83-22 128 0 45 23 90 68 135 113"/>
<path class="Gold Rand2" d="m855 4185c-60-45-120-90-173-90-52 0-97 45-120 83-22 37-22 67-22 90 0 22 0 37 15 30 15-8 45-38 75-53s60-15 82-7c23 7 38 22 60 30 23 7 53 7 83 7"/>
<path class="Gold Rand2" d="m945 4545c-60 30-120 60-157 105-38 45-53 105-46 150 8 45 38 75 53 82 15 8 15-7 15-22s0-30 8-52c7-23 22-53 52-83s75-60 120-90"/>
<path class="Gold Rand2" d="m1350 4680c30 45 60 90 68 128 7 37-8 67-23 90-15 22-30 37-30 44 0 8 15 8 37 0 23-7 53-22 76-44 22-23 37-53 37-90 0-38-15-83-30-128"/>
<path class="Gold Rand2" d="m1890 5490c-30-30-60-60-90-82-30-23-60-38-90-30-30 7-60 37-75 44-15 8-15-7 0-37s45-75 83-97c37-23 82-23 127 0 45 22 90 67 135 112"/>
<path class="Gold Rand2" d="m1665 5985c-60-30-120-60-173-60-52 0-97 30-120 53-22 22-22 37-30 30-7-8-22-38-22-68s15-60 45-90 75-60 127-60c53 0 113 30 173 60"/>
<path class="Gold Rand2" d="m1755 6255c-30 45-60 90-67 150-8 60 7 135 37 180s75 60 90 60 0-15-7-45c-8-30-8-75 7-128 15-52 45-112 75-172"/>
<path class="Gold Rand2" d="m2205 6390c30 60 60 120 60 165s-30 75-53 90c-22 15-37 15-30 23 8 7 38 22 76 14 37-7 82-37 104-74 23-38 23-83 16-120-8-38-23-68-38-98"/>
<path class="Gold Rand2" d="m4455 5940c-30-45-60-90-105-98-45-7-105 23-135 30-30 8-30-7-7-37 22-30 67-75 112-97 45-23 90-23 128 0 37 22 67 67 97 112"/>
<path class="Gold Rand2" d="m4230 6345c-60-30-120-60-172-53-53 8-98 53-113 106-15 52 0 112 7 127 8 15 8-15 23-45s45-60 97-60c53 0 128 30 203 60"/>
<path class="Gold Rand2" d="m4545 6705h-135c-45 0-90 0-112 23-23 22-23 67-16 112 8 45 23 90 30 98 8 7 8-23 23-53s45-60 67-75c23-15 38-15 60-8 23 8 53 23 76 23 22 0 37-15 52-30"/>
<path class="Gold Rand2" d="m4950 6660c0 45 0 90-22 128-23 37-68 67-76 82-7 15 23 15 53 8 30-8 60-23 90-46 30-22 60-52 67-90 8-37-7-82-22-127"/>
<path class="Gold Rand2" d="m4230 4230c-120 0-240 0-375 15s-285 45-435 75-300 60-420 105-210 105-255 165-45 120-60 150-45 30-105 60-150 90-120 105 180-15 180 30-150 165-135 195 195-30 240-15-45 105-60 150 45 45 105 15 120-90 142-98c23-7 8 38 8 68s15 45-8 82c-22 38-82 98-164 173-83 75-188 165-278 210s-165 45-210 45h-75c-15 0-30 0-60-38-30-37-75-112-90-172s0-105-7-142c-8-38-38-68-68-60-30 7-60 52-105 82s-105 45-105 68c0 22 60 52 112 104 53 53 98 128 106 166 7 37-23 37-76 37-52 0-127 0-180-15-52-15-82-45-104-52-23-8-38 7-38 37s15 75 15 113c0 37-15 67-15 90 0 22 15 37 38 37 22 0 52-15 112-23 60-7 150-7 195 0 45 8 45 23 15 53s-90 75-142 105c-53 30-98 45-120 60-23 15-23 30 0 45 22 15 67 30 104 60 38 30 68 75 90 90 23 15 38 0 53-37 15-38 30-98 67-143 38-45 98-75 136-90 37-15 52-15 67 0s30 45 23 83c-8 37-38 82-53 127s-15 90 7 105c23 15 68 0 113 0s90 15 113 8c22-8 22-38 7-83s-45-105-60-157c-15-53-15-98 7-128 23-30 68-45 98-52 30-8 45-8 98 22 52 30 142 90 172 75s0-105 45-105 165 90 210 75 15-135 60-150 165 75 195 60-30-135 0-150 150 75 195 67c45-7 15-112 30-142s75 15 97 8c23-8 8-68 23-128s60-120 37-158c-22-37-112-52-172-112s-90-165-75-278c15-112 75-232 210-322s345-150 480-180 195-30 255-30"/>
<path class="Gold Rand2" d="m5040 3510c75 15 150 30 338 60 187 30 487 75 637 120s150 90 127 120c-22 30-67 45-104 68-38 22-68 52-76 104-7 53 8 128 30 150 23 23 53-7 113-52s150-105 203-172c52-68 67-143 52-210-15-68-60-128-142-166-83-37-203-52-353-74-150-23-330-53-510-83"/>
<path class="Gold Rand2" d="m6075 3870c-30 15-60 30-90 30s-60-15-127-128c-68-112-173-322-286-540-112-217-232-442-314-614-83-173-128-293-150-420-23-128-23-263 0-376 22-112 67-202 127-277s135-135 180-173c45-37 60-52 97-44 38 7 98 37 173 52s165 15 240 8c75-8 135-23 187-68 53-45 98-120 83-142-15-23-90 7-165 22s-150 15-150 15 75 0 142-30c68-30 128-90 166-150 37-60 52-120 30-127-23-8-83 37-150 67-68 30-143 45-150 37-8-7 52-37 120-82 67-45 142-105 180-195 37-90 37-210 0-210-38 0-113 120-180 195-68 75-128 105-128 105s60-30 75-135-15-285-45-300-60 135-112 255c-53 120-128 210-196 263-67 52-127 67-164 90-38 22-53 52-53 82s15 60 15 82c0 23-15 38-75 83s-165 120-247 210c-83 90-143 195-173 300s-30 210-23 323c8 112 23 232 98 427s210 465 368 750c157 285 337 585 397 780s0 285-53 337c-52 53-97 68-142 76-45 7-90 7-142-8-53-15-113-45-166-68-52-22-97-37-120-37-22 0-22 15-22 37v76c0 22 0 37 22 60 23 22 68 52 120 82 53 30 113 60 196 75 82 15 187 15 277-30s165-135 210-203c45-67 60-112 60-150 0-37-15-67-7-97 7-30 37-60 67-90"/>
<path class="Gold Rand2" d="m5355 3375c-120-30-240-60-323-120-82-60-127-150-134-240-8-90 22-180 90-270 67-90 172-180 277-240s210-90 270-105 75-15 83 15c7 30 7 90 67 127 60 38 180 53 285 16 105-38 195-128 195-158s-90 0-165 15-135 15-135 15 60 0 150-45 210-135 233-165c22-30-53 0-143 15s-195 15-195 15 105 0 218-75c112-75 232-225 224-255-7-30-142 60-254 105-113 45-203 45-286 30-82-15-157-45-194-15-38 30-38 120-46 165-7 45-22 45-90 60-67 15-187 45-300 90-112 45-217 105-300 187-82 83-142 188-172 286-30 97-30 187-8 277 23 90 68 180 120 247 53 68 113 113 150 136 38 22 53 22 98 30 45 7 120 22 195 37"/>
<path class="Gold Rand2" d="m5355 4410c-30-15-60-30-127-60-68-30-173-75-240-105-68-30-98-45-128-90s-60-120-172-203c-113-82-308-172-458-307s-255-315-322-480c-68-165-98-315-136-397-37-83-82-98-210-106-127-7-337-7-517 0-180 8-330 23-465 23s-255-15-412-53c-158-37-353-97-466-180-112-82-142-187-187-254-45-68-105-98-150-120-45-23-75-38-120-46-45-7-105-7-165 0-60 8-120 23-142 53-23 30-8 75 7 113 15 37 30 67 37 104 8 38 8 83 0 128-7 45-22 90-14 128 7 37 37 67 104 90 68 22 173 37 263 52s165 30 217 120c53 90 83 255 106 262 22 8 37-142 60-120 22 23 52 218 82 240 30 23 60-127 82-104 23 22 38 217 60 240 23 22 53-128 76-113 22 15 37 195 60 225 22 30 52-90 74-128 23-37 38 8 143 113s300 270 473 367c172 98 322 128 457 143s255 15 390 30 285 45 330 75-15 60 0 90 105 60 150 90 45 60 45 135 0 195 45 300 135 195 180 255 45 90 30 165-45 195-30 210 75-75 105-105 30 0 30 45v165c0 60 0 120 15 120s45-60 75-135 60-165 75-150 15 135 15 210 0 105 15 105 45-30 60-75 15-105 30-135 45-30 75-15 60 45 105 105 105 150 135 232c30 83 30 158-15 240-45 83-135 173-195 210-60 38-90 23-112 16-23-8-38-8-60-30-23-23-53-68-68-120-15-53-15-113-22-150-8-38-23-53-46-46-22 8-52 38-97 68s-105 60-120 90 15 60 45 75 60 15 82 37c23 23 38 68 38 98s-15 45-60 60-120 30-172 30c-53 0-83-15-106-8-22 8-37 38-30 68 8 30 38 60 53 98 15 37 15 82 30 104 15 23 45 23 67 8 23-15 38-45 76-68 37-22 97-37 134-30 38 8 53 38 46 83-8 45-38 105-68 127-30 23-60 8-75 16-15 7-15 37 7 60 23 22 68 37 83 74 15 38 0 98 23 106 22 7 82-38 104-76 23-37 8-67 23-120 15-52 60-127 105-180 45-52 90-82 112-82 23 0 23 30 16 75-8 45-23 105-23 150s15 75 37 75c23 0 53-30 90-38 38-7 83 8 106-7 22-15 22-60 7-113-15-52-45-112-45-142s30-30 68-52c37-23 82-68 112-98s45-45 112-68c68-22 188-52 196-74 7-23-98-38-83-68s150-75 157-98c8-22-112-22-97-52s165-90 180-120-105-30-90-60 165-90 210-120-15-30-60-30-75 0-75-30 30-90 30-135-30-75-60-90-60-15-135-15-195 0-270-45-105-135-150-270-105-315-127-420c-23-105-8-135 44-120 53 15 143 75 233 135"/>
<path class="Gold Rand2" d="m3870 900c30-30 60-60 75-120s15-150-45-195-180-45-240 0-60 135-60 225"/>
<path class="Gold Rand2" d="m1110 3375v225h120v-225h-120z"/>
<path class="Gold Rand2" d="m1020 2385c0-90 0-180 10-330s30-360 50-570h180c20 210 40 420 50 570s10 240 10 330"/>
<path class="Gold Rand2" d="m1020 2340c0 90 0 180 10 330s30 360 50 570h180c20-210 40-420 50-570s10-240 10-330"/>
<path class="Gold Rand2" d="m1260 1305s-8.2-4.92-16.88-28.12c-8.67-23.21-13.12-61.88 16.88-151.88s74.52-169.45 103.86-206.89c29.33-37.44 56.76-66.11 91.14-93.11s75.73-43.37 115.84-43.37 73.54 16.37 94.16 43.37 32.53 72.07 36.68 122.08c4.16 50.01 0.2 98.54-6.68 132.92s-18.02 61.39-30 77.53-23.12 19.35-30 12.47-10.84-25.19-19.16-47.08c-8.31-21.89-20.22-44.17-40.84-57.92s-54.05-21.68-90-19.61c-35.95 2.08-69.38 13.99-90 34.61s-30.61 55.07-37.25 115.08c-6.63 60.02-7.75 109.92-7.75 109.92"/>
<path class="Gold Rand2" d="m1080 1305c0-90 0-180-15-240s-45-90-60-150-15-150 0-210 45-90 75-150 60-150 90-150 60 90 90 150 60 90 75 150 15 150 0 210-45 90-60 150-15 150-15 240"/>
<path class="Gold Rand2" d="m1080 1305s8.2-4.92 16.88-28.12c8.67-23.21 13.12-61.88-16.88-151.88s-74.52-169.45-103.86-206.89c-29.33-37.44-56.76-66.11-91.14-93.11s-75.73-43.37-115.84-43.37-73.54 16.37-94.16 43.37-32.53 72.07-36.68 122.08c-4.16 50.01-0.2 98.54 6.68 132.92s18.02 61.39 30 77.53 23.12 19.35 30 12.47 10.84-25.19 19.16-47.08c8.31-21.89 20.22-44.17 40.84-57.92s54.05-21.68 90-19.61c35.95 2.08 69.38 13.99 90 34.61s30.61 55.07 37.25 115.08c6.63 60.02 7.75 109.92 7.75 109.92"/>
<path class="Gold Rand2" d="m1170 3240h-180a180 180 0 0 0 360 0h-180z"/>
<path class="Gold Rand2" d="m990 1305a90 90 0 0 0-90 90 90 90 0 0 0 90 90h360a90 90 0 0 0 90-90 90 90 0 0 0-90-90h-360z"/>
<path class="Gold Rand2" d="m945 2565c30-15 60-30 97-23 38 8 83 38 106 76 22 37 22 82 22 112s0 45-15 30-45-60-83-90c-37-30-82-45-127-60"/>
<path class="Gold Rand2" d="m1035 2385c30-15 60-30 97-23 38 8 83 38 106 76 22 37 22 82 22 112s0 45-15 30-45-60-90-90-105-45-165-60"/>
<path class="Gold Rand2" d="m1080 2205h52c23 0 53 0 90 15 38 15 83 45 106 82 22 38 22 83 22 113s0 45-15 30-45-60-90-90-105-45-165-60"/>
<path class="Gold Rand2" d="m1305 2160c-45-30-90-60-127-75-38-15-68-15-90-7-23 7-38 22-46 22-7 0-7-15 8-38 15-22 45-52 75-67s60-15 97-7c38 7 83 22 128 37"/>
<path class="Gold Rand2" d="m1131.8 2235c0.17-32.33-25.83-53.67-67-78.33-41.16-24.67-97.5-52.67-138-39.34-40.5 13.34-65.16 68-50.5 107.67 14.67 39.67 68.67 64.33 109 83.33 40.34 19 67 32.34 93.5 17.34s52.84-58.34 53-90.67z"/>
<path class="Gold Rand2" d="m1131 2397c2.33-30.33-24.33-43.67-65-62.67s-95.33-43.66-135.17-32c-39.83 11.67-64.83 59.67-56.66 94.84 8.16 35.16 49.5 57.5 87 76.16 37.5 18.67 71.16 33.67 103.66 17.5 32.5-16.16 63.84-63.5 66.17-93.83z"/>
<path class="Gold Rand2" d="m1065.2 2567.3c0.5-26-14.84-36.66-49.84-54.33s-89.66-42.33-123.33-32-46.33 55.67-32.67 89.67c13.67 34 53.67 56.66 86.84 72.33 33.16 15.67 59.5 24.33 80.83 8s37.67-57.67 38.17-83.67z"/>
<path class="Gold Rand2" d="m1530 2595c0-30 0-60-15-90s-45-60-45.17-92.33c-0.16-32.34 29.5-67-3.16-107.34-32.67-40.33-127.67-86.33-157.5-129-29.84-42.66 5.5-82 23.16-114.16 17.67-32.17 17.67-57.17 32.67-70.17 15-12 45-12 60 3s15 45 37 67c23 23 68 38 113 60 45 23 90 53 113 88 22 35 22 75 14 112-7 38-22 73-14 98 7 25 37 40 67 55"/>
<path class="Gold Rand2" d="m3240 3600c-30 60-60 120-120 150s-150 30-135 60 135 90 105 105-210-15-240 0 90 75 60 90-210-15-240 0 90 75 60 90-210-15-240 0 90 75 60 90-210-15-240 0 90 75 68 97c-23 23-188 8-226 23-37 15 53 60 30 83-22 22-157 22-210 37-52 15-22 45-14 67 7 23-8 38-16 53-7 15-7 30-30 7-22-22-67-82-104-112-38-30-68-30-120-30-53 0-128 0-166 30-37 30-37 90-22 142 15 53 45 98 45 128s-30 45-60 45-60-15-83-15c-22 0-37 15-52 15s-30-15-30-45 15-75 22-112c8-38 8-68 0-90-7-23-22-38-44-46-23-7-53-7-90 23-38 30-83 90-120 143-38 52-68 97-90 90-23-8-38-68-60-90-23-23-53-8-83-16-30-7-60-37-53-60 8-22 53-37 113-67s135-75 165-105 15-45-15-60-75-30-113-22c-37 7-67 37-97 44-30 8-60-7-67-30-8-22 7-52 7-82s-15-60-15-90 15-60 38-60c22 0 52 30 97 45s105 15 143 7c37-7 52-22 60-44 7-23 7-53-16-76-22-22-67-37-97-60-30-22-45-52-37-74 7-23 37-38 67-60 30-23 60-53 90-68s60-15 67 15c8 30-7 90 8 150s60 120 90 157c30 38 45 53 82 60 38 8 98 8 188-52s210-180 300-278c90-97 150-172 225-262s165-195 255-300"/>
<path class="Gold Rand1" d="m3510 1800c-150 0-300 0-420 15s-210 45-315 60-225 15-315-15-150-90-165-150 15-120 60-150 105-30 165-30c-30 30-60 60-75 105s-15 105 45 135 180 30 308 15c127-15 262-45 382-50s225 15 330 35"/>
<path class="Gold Rand1" d="m3010 1592c31.33 71.33 62.67 142.67 86.67 137.67s40.66-86.34 57.33-167.67"/>
<path class="Gold Rand2" d="m4365 2025c75 45 150 90 225 90s150-45 165-67c15-23-30-23-67-38-38-15-68-45-90-82-23-38-38-83-76-113-37-30-97-45-157-60 30-15 60-30 113-30 52 0 127 15 187-7 60-23 105-83 127-120 23-38 23-53 8-53s-45 15-90 23c-45 7-105 7-158-16-52-22-97-67-142-90-45-22-90-22-135-22 30-15 60-30 105-30s105 15 158-8c52-22 97-82 120-127 22-45 22-75 14-75-7 0-22 30-67 45s-120 15-180 0-105-45-150-75c-75-90-150-180-217-255-68-75-128-135-218-165s-210-30-315 0-195 90-270 120-135 30-150 60 15 90-45 120-210 30-270 60-30 90 0 120 60 30 60 38c0 7-30 22-45 67s-15 120 30 173c45 52 135 82 225 67s180-75 270-60 180 105 210 195 0 180-45 225-105 45-150 15-75-90-105-105-60 15-75 60-15 105 15 150 90 75 165 75 165-30 165-22c0 7-90 52-180 82s-180 45-300 52c-120 8-270 8-390 38s-210 90-270 150-90 120-120 180c-30 30-60 60-90 82-30 23-60 38-98 38-37 0-82-15-74 0 7 15 67 60 127 82 60 23 120 23 173 8 52-15 97-45 142-82 45-38 90-83 135-128-30 45-60 90-75 142-15 53-15 113-52 166-38 52-113 97-136 127-22 30 8 45 46 53 37 7 82 7 127 0 45-8 90-23 120-53s45-75 67-113c23-37 53-67 83-97-30 105-60 210-105 277-45 68-105 98-128 120-22 23-7 38 30 46 38 7 98 7 166-16 67-22 142-67 194-120 53-52 83-112 113-172-15 90-30 180-15 262 15 83 60 158 98 203 37 45 67 60 82 60s15-15 8-45c-8-30-23-75-30-120-8-45-8-90 30-150 37-60 112-135 187-210-15 60-30 120-15 195s60 165 112 210c53 45 113 45 136 37 22-7 7-22-16-67-22-45-52-120-37-195s75-150 113-210c37-60 52-105 67-150-15 90-30 180-7 262 22 83 82 158 157 188s165 15 203 0c37-15 22-30-16-52-37-23-97-53-127-90-30-38-30-83-7-136 22-52 67-112 74-172 8-60-22-120-52-180 45 0 90 0 128 60 37 60 67 180 127 240s150 60 203 38c52-23 67-68 60-83-8-15-38 0-76-7-37-8-82-38-97-90-15-53 0-128-7-196-8-67-38-127-68-187 75 60 150 120 218 150 67 30 127 30 164 15 38-15 53-45 53-60s-15-15-53-38c-37-22-97-67-127-120-30-52-30-112-45-164-15-53-45-98-75-143z"/>
<path class="Gold Rand2" d="m4050 1125c105 0 210 0 262-67 53-68 53-203 0-270-52-68-157-68-240-38-82 30-142 90-202 150"/>
<path class="Silber Rand2" d="m3185.3 1137c11.34 26.33 44 53.67 81.34 65 37.33 11.33 79.33 6.67 114.33-13.33s63-55.34 75.67-83c12.66-27.67 10-47.67-7.67-60-17.67-12.34-50.33-17-95.33-13.34-45 3.67-102.34 15.67-136 34.34-33.67 18.66-43.67 44-32.34 70.33z"/>
<path class="Rand2" d="m3465 2115c45 0 90 0 135-15s90-45 120-82c30-38 45-83 45-136 0-52-15-112-30-172"/>
<path class="Rand2" d="m4005 945c45-45 90-90 135-105s90 0 105 30 0 75-15 105-30 45-45 60"/>
<path class="Rand2" d="m3168 1148c27.33 29.33 54.67 58.67 95.67 71.67s95.66 9.66 135.66-19.34 65.34-83.66 90.67-138.33"/>
<path class="Rand2" d="m2853 1268c26.33-2.33 52.67-4.67 70.17-10.33 17.5-5.67 26.16-14.67 34.83-23.67"/>
<path class="Rand2" d="m3110 1166c21.33-3.33 42.67-6.67 54.33-28.33 11.67-21.67 13.67-61.67 38-83.34 24.34-21.66 71-25 109.34-30 38.33-5 68.33-11.66 115 4.84 46.66 16.5 110 56.16 173.33 95.83"/>
<path class="Schwarz" d="m3362 1106a52 52 0 0 0-104 0 52 52 0 0 0 104 0z"/>
</g>
<path class="Rand6" d="m360 4140a3240 3240 0 0 0 6480 0v-3870h-6480v3870z"/>
</g>
</svg>
