<?xml version="1.0" encoding="UTF-8" standalone="no"?>
<!-- Auto-generated by fig2svg tool  Date: Sat Nov  4 09:25:47 2006 --><svg xmlns:rdf="http://www.w3.org/1999/02/22-rdf-syntax-ns#" xmlns="http://www.w3.org/2000/svg" height="480" width="438" version="1.1" xmlns:cc="http://creativecommons.org/ns#" xmlns:xlink="http://www.w3.org/1999/xlink" viewBox="21 15 438 480" xmlns:dc="http://purl.org/dc/elements/1.1/"> <metadata>  <rdf:RDF>   <rdf:Description dc:language="de" dc:title="Wappen Andeer (CH-GR)" dc:date="2006-11-04" dc:format="image/svg+xml">    <dc:creator rdf:resource="http://de.wikipedia.org/wiki/Benutzer:Bernina"/>   </rdf:Description>   <cc:Work rdf:about="">    <dc:format>image/svg+xml</dc:format>    <dc:type rdf:resource="http://purl.org/dc/dcmitype/StillImage"/>    <dc:title>Wappen Andeer (CH-GR)</dc:title>   </cc:Work>  </rdf:RDF> </metadata> <title>Wappen Andeer (CH-GR)</title> <defs>  <path id="bär2-1" d="M4455,2745c0-45,0-90-7-157-8-68-23-158-8-188s60,0,82,0c23,0,23-30,16-75-8-45-23-105-8-120s60,15,82,15c23,0,23-30,8-68-15-37-45-82-60-112s-15-45,0-45,45,15,60,15,15-15,8-38c-8-22-23-52-38-82s-30-60-22-75c7-15,37-15,44-30,8-15-7-45-30-83-22-37-52-82-67-120-15-37-15-67-7-104,7-38,22-83,30-136,7-52,7-112,0-164-8-53-23-98-38-120-15-23-30-23-120,37s-255,180-345,240-105,60-143,97c-37,38-97,113-157,158s-120,60-195,98c-75,37-165,97-210,164-45,68-45,143-30,240,15,98,45,218,90,293s105,105,135,187c30,83,30,218,83,346,52,127,157,247,224,322,68,75,98,105,128,135"/>  <path id="bär4-1" d="M3915,1935c-45-30-90-60-135-67-45-8-90,7-232,112-143,105-383,300-563,398-180,97-300,97-367,104-68,8-83,23-90,38-8,15-8,30-8,22,0-7,0-37-15-67s-45-60-75-75-60-15-90,8c-30,22-60,67-68,90-7,22,8,22,23,14,15-7,30-22,45-30,15-7,30-7,52,8,23,15,53,45,68,68,15,22,15,37-8,37-22,0-67-15-104-15-38,0-68,15-83,38-15,22-15,52,0,52s45-30,67-30c23,0,38,30,60,45,23,15,53,15,68,15s15,0,15,8c0,7,0,22-15,37s-45,30-82,23c-38-8-83-38-98-30-15,7,0,52,22,74,23,23,53,23,90,23,38,0,83,0,98,7,15,8,0,23-15,38s-30,30-53,30c-22,0-52-15-67-15s-15,15,0,37c15,23,45,53,75,60,30,8,60-7,82-14,23-8,38-8,38-16,0-7-15-22-15-30,0-7,15-7,60-22s120-45,187-60c68-15,128-15,188,15s120,90,142,75c23-15,8-105,38-112,30-8,105,67,135,60,30-8,15-98,45-106,30-7,105,68,135,60,30-7,15-97,53-104,37-8,127,67,164,60,38-8,23-98,38-113s60,45,112,30c53-15,113-105,173-195"/>  <path id="bär4-2" d="M4500,945c-30-45-60-90-105-127-45-38-105-68-165-83s-120-15-180-15-120,0-165,22c-45,23-75,68-127,76-53,7-128-23-173-38s-60-15-83,8c-22,22-52,67-67,112s-15,90,7,120c23,30,68,45,120,52,53,8,113,8,166,23,52,15,97,45,120,83,22,37,22,82,14,120-7,37-22,67-67,82s-120,15-165,8c-45-8-60-23-68-8-7,15-7,60,0,82,8,23,23,23,53,16,30-8,75-23,157-23,83,0,203,15,293,15s150-15,195-38c45-22,75-52,90-82s15-60,15-90"/>  <path id="bär5-1" d="M4365,945c60-45,120-90,173-105,52-15,97,0,127,30s45,75,45,112c0,38-15,68-30,98s-30,60-68,75c-37,15-97,15-157,15"/>  <clipPath id="clippath">   <path d="M360,4140a3240,3240,0,0,0,6480,0v-3870h-6480v3870z"/>  </clipPath>  <style type="text/css">.Rand0 { stroke: #202020; stroke-width:5; }
  .Rand1 { stroke: #202020; stroke-width:15; }
  .Rand3 { stroke: #202020; stroke-width:45; }
  .Rand6 { stroke: #202020; stroke-width:90; }
  .Rand1Hell { stroke: #ffffff; stroke-width:15; }
  .Rand3Hell { stroke: #ffffff; stroke-width:45; }
  .Schwarz { fill: #000000; }
  .Rot { fill: #ff0000; }
  .Silber { fill: #ffffff; }</style> </defs> <g stroke-linejoin="miter" fill-rule="evenodd" transform="scale(0.066667)" stroke="none" stroke-linecap="butt" stroke-miterlimit="10" stroke-width="10" fill="none">  <g clip-path="url(#clippath)">   <path d="M-225-225v7650h7650v-7650h-7650z" class="Silber"/>   <path d="M3960,5760h-720v-810h-1080v810h-720v-810h-1080v810h-585v1665h7650v-1665h-585v-810h-1080v810h-720v-810h-1080v810z" class="Schwarz"/>   <path d="M-225,5760h585v-810h1080v810h720v-810h1080v810h720v-810h1080v810h720v-810h1080v810h585" class="Rand3"/>   <path d="M3915,3645c-45,0-90,0-157,23-68,22-158,67-226,150-67,82-112,202-134,292-23,90-23,150-38,158-15,7-45-38-68-38-22,0-37,45-37,98,0,52,15,112,0,120-15,7-60-38-90-16-30,23-45,113-45,166,0,52,15,67,22,90,8,22,8,52-30,90-37,37-112,82-210,74-97-7-217-67-277-104-60-38-60-53-60-60,0-8,0-8-7-8-8,0-23,0-30,15-8,15-8,45-23,60s-45,15-83-7c-37-23-82-68-120-76-37-7-67,23-90,38-22,15-37,15-30-8,8-22,38-67,68-90,30-22,60-22,90-14,30,7,60,22,75,22s15-15,7-30c-7-15-22-30-52-45s-75-30-105-30-45,15-60,23c-15,7-30,7-30-8s15-45,30-68c15-22,30-37,53-37,22,0,52,15,74,30,23,15,38,30,53,37,15,8,30,8,37,0,8-7,8-22-7-44-15-23-45-53-75-68s-60-15-82-15c-23,0-38,0-30-15,7-15,37-45,60-60,22-15,37-15,60,0,22,15,52,45,74,60,23,15,38,15,46,8,7-8,7-23,0-46-8-22-23-52-53-67s-75-15-83-23c-7-7,23-22,60-30,38-7,83-7,113,0,30,8,45,23,53,46,7,22,7,52,7,74,0,23,0,38,7,38,8,0,23-15,53,0s75,60,105,82c30,23,45,23,60,0,15-22,30-67,22-90-7-22-37-22-30-44,8-23,53-68,60-90,8-23-22-23-52-23s-60,0-52-30c7-30,52-90,60-120,7-30-23-30-53-30s-60,0-45-30,75-90,90-120-15-30-45-30-60,0-37-37c22-38,97-113,120-158,22-45-8-60-46-60-37,0-82,15-60-15,23-30,113-105,158-165s45-105,75-158c30-52,90-112,165-142s165-30,262-8c98,23,203,68,286,113,82,45,142,90,202,135" class="Schwarz Rand1"/>   <path d="M3645,2070c-45,60-90,120-180,142-90,23-225,8-293-37-67-45-67-120-90-135-22-15-67,30-90,8-22-23-22-113-44-136-23-22-68,23-83,0-15-22,0-112-15-127s-60,45-75,30,0-105-15-143c-15-37-60-22-68-37-7-15,23-60,16-83-8-22-53-22-76-30-22-7-22-22-14-30,7-7,22-7,22-14,0-8-15-23-38-46-22-22-52-52-60-112-7-60,8-150,16-202,7-53,7-68,0-83-8-15-23-30-46-53-22-22-52-52-52-90,0-37,30-82,30-104,0-23-30-23-45-30-15-8-15-23,7-23,23,0,68,15,90,45,23,30,23,75,30,105,8,30,23,45,38,30s30-60,30-90-15-45-22-67c-8-23-8-53,7-46,15,8,45,53,60,98s15,90,23,105c7,15,22,0,37-30s30-75,30-105-15-45-23-68c-7-22-7-52,8-44,15,7,45,52,60,97s15,90,22,105c8,15,23,0,38-22,15-23,30-53,30-83s-15-60-22-83c-8-22-8-37,7-30,15,8,45,38,60,68s15,60,7,98c-7,37-22,82-30,112-7,30-7,45-7,112,0,68,0,188,53,293,52,105,157,195,270,255,112,60,232,90,307,120s105,60,135,90" class="Schwarz Rand1"/>   <path d="M4185,855c0-90,0-180,7-233,8-52,23-67,53-74,30-8,75-8,120,7s90,45,113,83c22,37,22,82,0,120-23,37-68,67-113,97" class="Schwarz Rand1"/>   <path d="M3780,3240c-60-90-120-180-150-210s-30,0,0,60,90,150,150,240" class="Rot Rand0"/>   <use xlink:href="#bär2-1" class="Rand3Hell"/>   <use xlink:href="#bär2-1" class="Schwarz Rand1"/>   <path d="M3862,1296c-84-20.7-168-41.3-252-41.3s-168,20.6-231,20.6-105-20.6-126-52c-21-31.3-21-73.3-10.7-105,10.4-31.6,31-53,41.4-53,10.3,0,10.3,21.4,21,42.4,10.6,21,32,41.6,95,52,63,10.3,167.6,10.3,262,31.3,94.3,21,178.3,63,262.3,105" class="Rot Rand1"/>   <path d="M3735,2880c60,60,120,120,105,210s-105,210-142,300c-38,90-23,150,7,180s75,30,97,38c23,7,23,22,8,67s-45,120-30,143c15,22,75-8,112-23,38-15,53-15,53,45s-15,180,0,195,60-75,90-113c30-37,45-22,45,46,0,67-15,187,0,202s60-75,90-112c30-38,45-23,45,30,0,52-15,142-7,164,7,23,37-22,60-44,22-23,37-23,52-8s30,45,30,82c0,38-15,83-8,90,8,8,38-22,68-22s60,30,68,60c7,30-8,60-23,82-15,23-30,38-45,38s-30-15-52-30c-23-15-53-30-76-45-22-15-37-30-67-30s-75,15-97,45c-23,30-23,75-16,90,8,15,23,0,38-15s30-30,45-37c15-8,30-8,45,0,15,7,30,22,45,37s30,30,15,30-60-15-98-7c-37,7-67,37-90,74-22,38-37,83-37,106,0,22,15,22,30,7s30-45,53-67c22-23,52-38,82-46,30-7,60-7,75,0,15,8,15,23,0,30-15,8-45,8-75,23s-60,45-75,75-15,60-7,68c7,7,22-8,52-30,30-23,75-53,105-68s45-15,37,0c-7,15-37,45-52,82-15,38-15,83-8,98,8,15,23,0,30-15,8-15,8-30,23-37,15-8,45-8,60-16,15-7,15-22,23-37,7-15,22-30,30-37,7-8,7-8,22,0,15,7,45,22,98,7,52-15,127-60,180-120,52-60,82-135,104-217,23-83,38-173,38-256,0-82-15-157-30-202s-30-60-52-52c-23,7-53,37-76,52-22,15-37,15-67-15s-75-90-83-173c-7-82,23-187,38-270,15-82,15-142-8-217-22-75-67-165-90-217-22-53-22-68-14-76,7-7,22-7,52,8s75,45,98,52c22,8,22-7,22-37s0-75-22-120c-23-45-68-90-106-120-37-30-67-45-82-75s-15-75-15-120" class="Rand3Hell"/>   <path d="M3735,2835c0,15,0,30,30,67,30,38,90,98,75,188s-105,210-142,300c-38,90-23,150,7,180s75,30,97,38c23,7,23,22,8,67s-45,120-30,143c15,22,75-8,112-23,38-15,53-15,53,45s-15,180,0,195,60-75,90-113c30-37,45-22,45,46,0,67-15,187,0,202s60-75,90-112c30-38,45-23,45,30,0,52-15,142-7,164,7,23,37-22,60-44,22-23,37-23,52-8s30,45,30,82c0,38-15,83-8,90,8,8,38-22,68-22s60,30,68,60c7,30-8,60-23,82-15,23-30,38-45,38s-30-15-52-30c-23-15-53-30-76-45-22-15-37-30-67-30s-75,15-97,45c-23,30-23,75-16,90,8,15,23,0,38-15s30-30,45-37c15-8,30-8,45,0,15,7,30,22,45,37s30,30,15,30-60-15-98-7c-37,7-67,37-90,74-22,38-37,83-37,106,0,22,15,22,30,7s30-45,53-67c22-23,52-38,82-46,30-7,60-7,75,0,15,8,15,23,0,30-15,8-45,8-75,23s-60,45-75,75-15,60-7,68c7,7,22-8,52-30,30-23,75-53,105-68s45-15,37,0c-7,15-37,45-52,82-15,38-15,83-8,98,8,15,23,0,30-15,8-15,8-30,23-37,15-8,45-8,60-16,15-7,15-22,23-37,7-15,22-30,30-37,7-8,7-8,22,0,15,7,45,22,98,7,52-15,127-60,180-120,52-60,82-135,104-217,23-83,38-173,38-256,0-82-15-157-30-202s-30-60-52-52c-23,7-53,37-76,52-22,15-37,15-67-15s-75-90-83-173c-7-82,23-187,38-270,15-82,15-142-8-217-22-75-67-165-90-217-22-53-22-68-14-76,7-7,22-7,52,8s75,45,98,52c22,8,22-7,22-37s0-75-22-120c-23-45-68-90-106-120-37-30-67-45-82-75s-15-75-17.2-105c-2.1-30-6.5-45-10.8-60" class="Schwarz Rand1"/>   <use xlink:href="#bär4-1" class="Rand3Hell"/>   <use xlink:href="#bär4-2" class="Rand3Hell"/>   <use xlink:href="#bär4-1" class="Rand1"/>   <use xlink:href="#bär4-2" class="Rand1"/>   <path d="M3512,1052l34,108,42-108" class="Schwarz Rand1"/>   <path d="M3640,1054l26,118,48-110" class="Schwarz Rand1"/>   <path d="M3828,1104l-50,106-12-136" class="Schwarz Rand1"/>   <path d="M3574,1416l-12-82,28-52,34,92" class="Schwarz Rand1"/>   <path d="M3646,1398l40-118,38,114" class="Schwarz Rand1"/>   <path d="M3750,1389l22-93,48,82" class="Schwarz Rand1"/>   <use xlink:href="#bär4-1" class="Schwarz"/>   <use xlink:href="#bär4-2" class="Schwarz"/>   <use xlink:href="#bär5-1" class="Rand3Hell"/>   <use xlink:href="#bär5-1" class="Schwarz Rand1"/>   <path d="M2655,1485c30,0,60,0,97-15,38-15,83-45,98-82,15-38,0-83-15-128" class="Rand1Hell"/>   <path d="M3484,856c0,20.67,0,41.33,21,51.67,21,10.33,63,10.33,105,10.33" class="Rand1Hell"/>   <path d="M4428,982c21.3,20.7,42.7,41.3,53.3,30.7,10.7-10.7,10.7-52.7,31.7-73.7s63-21,84,0,21,63,21,105" class="Rand1Hell"/>   <path d="M4058,894c-28.7-2-57.3-4-76,1.67-18.7,5.66-27.3,19-27,33.66,0.3,14.67,9.7,30.67,29.7,48,20,17.34,50.6,35.97,84.6,48.67s71.4,19.3,92.4,13.7c21-5.7,25.6-23.7,16-45.37-9.7-21.66-33.7-47-57.7-72.33" class="Silber Rand1"/>   <path d="M4030,880c2.7,29.33,5.3,58.67,16.7,77.67,11.3,19,31.3,27.66,52.3,23,21-4.67,43-22.67,65-40.67" class="Schwarz"/>   <path d="M3924,856c63.3,0,126.7,0,179.3,31.33,52.7,31.34,94.7,94,126,125.37,31.4,31.3,52,31.3,72.7,31.3" class="Rand1Hell"/>  </g>  <path d="M360,4140a3240,3240,0,0,0,6480,0v-3870h-6480v3870z" class="Rand6"/> </g></svg>