<?xml version="1.0" encoding="UTF-8"?>
<!DOCTYPE svg  PUBLIC '-//W3C//DTD SVG 1.1//EN'  'http://www.w3.org/Graphics/SVG/1.1/DTD/svg11.dtd'>
<svg width="438" height="480" viewBox="21 15 438 480" xmlns="http://www.w3.org/2000/svg">
<metadata>
<rdf:RDF xmlns:dc="http://purl.org/dc/elements/1.1/" xmlns:rdf="http://www.w3.org/1999/02/22-rdf-syntax-ns#">
<rdf:Description dc:date="2006-10-26" dc:format="image/svg+xml" dc:language="de" dc:title="Wappen Casti-Wergenstein (CH-GR)">
<dc:creator rdf:resource="http://de.wikipedia.org/wiki/Benutzer:Bernina"/>
</rdf:Description>
</rdf:RDF>
</metadata>
<title>Wappen Casti-Wergenstein (CH-GR)</title>
<defs>
<clipPath id="a">
<path d="m360 4140a3240 3240 0 0 0 6480 0v-3870h-6480v3870z"/>
</clipPath>
<style type="text/css"><![CDATA[
  .Rand2 { stroke: #202020; stroke-width:30; }
  .Rand6 { stroke: #202020; stroke-width:90; }
  .Rand2Hell { stroke: #f8f8f8; stroke-width:30; }
  .Schwarz { fill: #000000; }
  .Rot { fill: #ff0000; }
  .Silber { fill: #ffffff; }
  ]]></style>
</defs>
<g transform="scale(.066667)" fill="none" fill-rule="evenodd" stroke-miterlimit="10" stroke-width="10">
<g clip-path="url(#a)">
<path class="Silber" d="m-225-225v7650h7650v-7650h-7650z"/>
<path class="Rot Rand2" d="m4410 1800 270-90v-1080h-432v540h-432v-540h-432v540h-432v-540h-432v1080l270 90-90 2520-180 270v1080h2160v-1080l-180-270-90-2520z"/>
<path class="Silber Rand2" d="m3240 2430h180v-450h-180v450z"/>
<path class="Silber Rand2" d="m3780 2430h180v-450h-180v450z"/>
<path class="Silber Rand2" d="m3780 4050a180 180 0 0 0-360 0v540h360v-540z"/>
<path class="Rand2" d="m2790 1800h1620"/>
<path class="Rand2" d="m2520 4590h2160"/>
<path class="Rot Rand2" d="m1440 1980-194 562-586-112 390 450-390 450 586-112 194 562 196-562 584 112-390-450 390-450-586 112-194-562z"/>
<path class="Rot Rand2" d="m5760 1980-194 562-586-112 390 450-390 450 584-112 196 562 194-562 586 112-390-450 390-450-586 112-194-562z"/>
<path class="Schwarz" d="m675 7425h5850l-1125-2475-810 630-990-900-990 900-810-630-1125 2475z"/>
<path class="Rand2Hell" d="m2610 5580 990-900 990 900"/>
<path class="Rand2Hell" d="m675 7425 1125-2475 810 630 450 630"/>
<path class="Rand2Hell" d="m6525 7425-1125-2475-810 630-450 630"/>
</g>
<path class="Rand6" d="m360 4140a3240 3240 0 0 0 6480 0v-3870h-6480v3870z"/>
</g>
</svg>
