<?xml version="1.0" encoding="UTF-8"?>
<!DOCTYPE svg  PUBLIC '-//W3C//DTD SVG 1.1//EN'  'http://www.w3.org/Graphics/SVG/1.1/DTD/svg11.dtd'>
<svg width="438" height="480" viewBox="21 15 438 480" xmlns="http://www.w3.org/2000/svg">
<metadata>
<rdf:RDF xmlns:dc="http://purl.org/dc/elements/1.1/" xmlns:rdf="http://www.w3.org/1999/02/22-rdf-syntax-ns#">
<rdf:Description dc:date="2006-11-04" dc:format="image/svg+xml" dc:language="de" dc:title="Wappen Zillis-Reischen (CH-GR)">
<dc:creator rdf:resource="http://de.wikipedia.org/wiki/Benutzer:Bernina"/>
</rdf:Description>
</rdf:RDF>
</metadata>
<title>Wappen Zillis-Reischen (CH-GR)</title>
<defs>
<clipPath id="a">
<path d="m360 4140a3240 3240 0 0 0 6480 0v-3870h-6480v3870z"/>
</clipPath>
<style type="text/css"><![CDATA[
  .Rand2 { stroke: #202020; stroke-width:30; }
  .Rand6 { stroke: #202020; stroke-width:90; }
  .Schwarz { fill: #000000; }
  .Blau { fill: #0000ff; }
  .Rot { fill: #ff0000; }
  .Gold { fill: #ffef00; }
  .Silber { fill: #ffffff; }
  .Fleisch { fill: #f7c3b8; }
  ]]></style>
</defs>
<g transform="scale(.066667)" fill="none" fill-rule="evenodd" stroke-miterlimit="10" stroke-width="10">
<g clip-path="url(#a)">
<path class="Silber" d="m-225-225v7650h7650v-7650h-7650z"/>
<path class="Rot Rand2" d="m1350 540-150 460-474-100 324 360-324 360 474-100 150 460 150-460 474 100-324-360 324-360-474 100-150-460z"/>
<path class="Rot Rand2" d="m5850 540-150 460-474-100 324 360-324 360 474-100 150 460 150-460 474 100-324-360 324-360-474 100-150-460z"/>
<path class="Gold Rand2" d="m4230 1350a630 630 0 0 0-1260 0 630 630 0 0 0 1260 0z"/>
<path class="Blau Rand2" d="m2070 2520c-30 90-60 180-75 330s-15 360 45 660 180 690 315 975 285 465 495 615 480 270 720 330 450 60 675 0 465-180 630-345 255-375 285-570 0-375-45-525-105-270-195-345-210-105-285-120-105-15-120-60-15-135-15-255 0-270-15-420-45-300-60-405-15-165-45-225-90-120-150-180"/>
<path class="Schwarz Rand2" d="m4320 3780c-240 720-480 1440-600 1845s-120 495-90 540 90 45 135 15 75-90 210-480 375-1110 615-1830l-270-90z"/>
<path class="Rot Rand2" d="m3060 4230c-60 390-120 780-180 1110s-120 600-195 735-165 135-195 165 0 90-45 135-165 75-255 135-150 150-150 195 60 45 135 45 165 0 210-15 45-45 150-90 315-105 405-150 60-75 45-135-15-150 15-270 90-270 150-420 120-300 165-450 75-300 120-465 105-345 165-525"/>
<path class="Rot Rand2" d="m4230 4230c120 390 240 780 315 1095s105 555 165 675 150 120 180 150 0 90 45 135 165 75 240 135 105 150 90 195-75 45-150 45-165 0-225-30-90-90-180-135-240-75-300-120-30-105-15-135 15-30 0-105-45-225-105-390-150-345-225-510-135-315-195-480-120-345-180-525"/>
<path class="Gold Rand2" d="m2970 2340c0 90 0 180 30 345s90 405 120 570 30 255-15 450-135 495-165 645 0 150 240 150h930c240 0 270 0 225-150s-165-450-225-645-60-285-30-435 90-360 90-510-60-240-79.67-299c-19.66-59 1-87 14.67-55s20.33 124 100 168 232.33 40 338.67 38c106.33-2 166.33-2 256.33-17s210-45 285-90 105-105 105-165-30-120-60-135-60 15-90 30-60 15-135 30-195 45-315 45-240-30-345-105-195-195-255-270-90-105-135-120-105-15-165-15h-90-165c-45 0-75 0-225 75s-420 225-615 330-315 165-405 225-150 120-180 150-30 30 75 150 315 360 435 480 150 120 180 105 60-45 75-75 15-60 0-105-45-105-90-180-105-165-150-210-75-45-90-60-15-45 0-30 45 75 90 45 105-150 165-270"/>
<path class="Rand2" d="m3690 3600c60 0 120 0 180-15s120-45 180-75"/>
<path class="Rand2" d="m3600 3510c120 90 240 180 360 285s240 225 360 345"/>
<path class="Silber Rand2" d="m3536 3226c628-204 1256-408 1584-514.67 328-106.66 356-116 432-125s200-17.66 266.33-7.66c66.34 10 75 38.66 27 85.66s-152.66 112.34-219.33 149.67-95.33 46.67-423.33 153.33c-328 106.67-955.34 310.67-1582.7 514.67"/>
<path class="Silber Rand2" d="m2680 3504c-28.67 9.33-57.33 18.67-95.33 46.67s-85.34 74.66-104.34 112.33-9.66 66.33 28 85.67c37.67 19.33 103.67 29.33 151 29.66 47.34 0.34 76-9 104.67-18.33"/>
<path class="Blau Rand2" d="m2160 2430c60 0 120 0 255 60s345 180 525 240 330 60 480-15 300-225 390-330 120-165 165-210 105-75 150-60 75 75 120 105 105 30 135 0 30-90 0-150-90-120-150-150-120-30-180 0-120 90-158 120c-37 30-52 30-82 30s-75 0-142 15c-68 15-158 45-248 15s-180-120-270-210l-990 540z"/>
<path class="Schwarz Rand2" d="m3288 3338-598 194 64 200 600-196-66-198z"/>
<path class="Rot Rand2" d="m3420 1800c-30 0-60 0-105 15s-105 45-120 75 15 60 60 105 105 105 195 135 210 30 300 0 150-90 195-135 75-75 60-105-75-60-120-75-75-15-105-15"/>
<path class="Blau Rand2" d="m4950 1980c-30 180-60 360-135 600s-195 540-255 705-60 195 0 375 180 510 300 675 240 165 315 105 105-180 105-360-30-420-75-780l-165-1320"/>
<path class="Gold Rand2" d="m2476 6236s1.11-3.08 6.69-8.94c5.57-5.85 14.98-12.73 37.31-17.06s42.7-3.14 56.31-1.9c13.62 1.24 28.07 1.9 48.69 1.9s46.88 0 75 4.16 54.38 12.09 75 25.84 39.7 36.03 57.92 57.92 33.33 40.2 47.08 47.08 28.86 3.67 49.16-8.32c20.3-11.98 42.84-31.06 70.84-51.68s64.89-46.88 102.92-70.84c38.03-23.97 71.46-42.28 92.08-49.16s32.53-3.67 32.53 8.32c0 11.98-11.91 31.06-32.53 51.68s-54.05 46.88-90 75-69.38 54.38-90 75-32.53 39.7-40.84 55.84c-8.32 16.14-12.28 27.28-19.16 34.16s-18.36 10.2-38.36 12.42c-20.01 2.21-36.64 2.58-36.64 2.58s-0.75 15.51-5.17 28.89c-4.42 13.37-11.08 14.86-24.83 1.11s-36.03-43.21-64.16-77.08c-28.12-33.87-57.84-67.3-85.84-87.92s-50.03-30.32-74.96-34.05c-24.94-3.74-67.04-1.95-105.04-10.95s-46.23-23.27-48.38-35.44c-2.14-12.16 0.38-18.56 0.38-18.56"/>
<path class="Gold Rand2" d="m4410 6300c60-30 120-60 180-105s120-105 165-120 75 15 105 45c0 0-34.01 33.64-78.45 75.86-44.43 42.23-73.55 68.52-101.55 89.14s-48.96 36.19-71.89 51.91c-22.93 15.71-63.11 38.09-108.11 53.09s-64.34 12.77-75.94 8.44c-11.6-4.34-14.06-8.44-14.06-8.44"/>
<path class="Rand2" d="m3330 1890c60 60 120 120 180 150s120 30 180 0 120-90 180-150"/>
<path class="Blau Rand2" d="m5040 2340c60-150 120-300 120-420s-60-210-150-255-210-45-285-15-105 90-120 150-15 120 15 165 90 75 150 90 120 15 180 15"/>
<path class="Rand2" d="m2430 2340c60 0 120 0 240 30s300 90 420 120 180 30 285 0 255-90 405-150"/>
<path class="Rand2" d="m2700 2160c90 0 180 0 285 15s225 45 360 60 285 15 435 15"/>
<path class="Rand2" d="m5040 2340c60-150 120-300 120-420s-60-210-150-255-210-45-285-15-105 90-120 150-15 120 15 165 90 75 150 90 120 15 150-15 30-90 15-135-45-75-75-75-60 30-60 45 30 15 56 15h73"/>
<path class="Silber Rand2" d="m3578 3495.4a136 134 72 0 0-84.04-258.7 136 134 72 0 0 84.04 258.7z"/>
<path class="Gold Rand2" d="m5040 2175c-30 15-60 45-60 75s30 60 30 105-30 105-15 135 75 30 120 0 75-90 90-135 15-75 0-105-45-60-75-75-60-15-90 0z"/>
<path class="Schwarz Rand2" d="m3338 3006-142 46 250 770 142-46-250-770z"/>
<path class="Silber Rand2" d="m4956 2272c0-30 0-60-15-105s-45-105-75-135-60-30-75-15-15 45 0 90 45 105 75 165"/>
<path class="Silber Rand2" d="m2790 3240c30 30 60 60 120 45s150-75 225-75 135 60 165 120 30 120 15 165-45 75-60 45-15-120-15-120 0 90-30 135-90 45-105 30 15-45 15-90-30-105-75-105-105 60-150 75-75-15-105-45l-90-90"/>
<path class="Schwarz Rand2" d="m3600 1620c90 30 180 60 255 75s135 15 150-60-15-225-60-345-105-210-165-255-120-45-180-45-120 0-180 45-120 135-165 255-75 270-60 345 75 75 150 60 165-45 255-75z"/>
<path class="Silber Rand2" d="m3495 1815c45 75 75 75 105 75s60 0 105-75 105-225 135-330 30-165-15-210-135-75-225-75-180 30-225 75-45 105-15 210 90 255 135 330z"/>
<path class="Rand2" d="m3506 1416c-12 17.33-24 34.67-34.67 34.67-10.66 0-20-17.34-29.33-34.67"/>
<path class="Rand2" d="m3548 1352c-27.33-16-54.67-32-81.67-29s-53.66 25-80.33 47"/>
<path class="Rand2" d="m3522 1416h-112"/>
<path class="Rand2" d="m3678 1416h112"/>
<path class="Rand2" d="m3694 1416c12 17.33 24 34.67 34.67 34.67 10.66 0 20-17.34 29.33-34.67"/>
<path class="Rand2" d="m3652 1352c27.33-16 54.67-32 81.67-29s53.66 25 80.33 47"/>
<path class="Rand2" d="m3634 1454c6 38.67 12 77.33 14.33 100.33 2.34 23 1 30.34-12.66 34.67-13.67 4.33-39.67 5.67-65.67 7"/>
<path class="Rand2" d="m3544 1698c21.33 3.33 42.67 6.67 65 6s45.67-5.33 69-10"/>
<path class="Silber Rand2" d="m5039.3 2343.7c0.67-33.67 0.67-63.67-14.33-93.67s-45-60-75-75-60-15-89-12.33c-29 2.66-57 8-72 38s-17 84.66-12.67 141.33c4.34 56.67 15 115.33 45 130.33s79.34-13.66 118.34-24.33 67.66-3.33 82.66-18.33 16.34-52.34 17-86z"/>
<path class="Rand2" d="m4762 2292 114-20"/>
<path class="Rand2" d="m4770 2400 130-20"/>
<path class="Fleisch Rand2" d="m3960 6210c-150 30-300 60-420 105s-210 105-255 150-45 75-15 135 90 150 150 240"/>
<path class="Fleisch Rand2" d="m4410 5130c60 0 120 0 165-30s75-90 90-165 15-165-30-225-135-90-195-90-90 30-120 30-60-30-90-45-60-15-60 15 30 90 30 120-30 30-60 30h-105c-45 0-105 0-135 30s-30 90 15 135 135 75 180 105 45 60 60 75 45 15 45 30-30 45-75 60-105 15-165 15-120 0-165 75-75 225-105 315-60 120-120 120-150-30-210-75-90-105-150-165-150-120-195-135-45 15-30 45 45 60 45 75-30 15-60-15-60-90-105-120-105-30-105 15 60 135 120 195 120 90 165 105 75 15 165 75 240 180 345 240 165 60 225-30 120-270 165-360 75-90 75-60-30 90-45 195-15 255-30 360-45 165-165 270-330 255-435 345-105 120-75 165 90 105 195 120 255-15 420-45 345-60 450-60 135 30 195 60 150 60 210 60 90-30 60-75-120-105-180-180-90-165-120-210-60-45-105-15-105 90-195 135-210 75-315 90-195 15-240 0-45-45 0-60 135-15 225-30 180-45 270-75 180-60 240-105 90-105 120-225 60-300 60-435-30-225-30-285 30-90 120-135 240-105 330-135 120-30 120-105-30-225-45-315-15-120 0-135 45-15 75-30 60-45 75-75 15-60 30-90 45-60 60-90 15-60 0-60-45 30-75 60l-150 150s30-30 45-60 15-60-15-45-90 75-135 120-75 75-75 150 30 195 30 270-30 105-90 135-150 60-225 75-135 15-195 15"/>
<path class="Silber Rand2" d="m4500 6300c30-60 60-120 45-150s-75-30-135-15-120 45-195 45-165-30-225-15-90 75-120 105-60 30-30 75 120 135 195 180 135 45 210 15 165-90 210-135 45-75 45-105z"/>
<path class="Rand2" d="m4050 6300c30 60 60 120 105 150s105 30 165 30"/>
<path class="Rand2" d="m4140 6300c60 30 120 60 180 60s120-30 180-60"/>
<path class="Rand2" d="m4050 4770v90"/>
<path class="Rand2" d="m4310 5020c33.33 36.67 66.67 73.33 105.33 66 38.67-7.33 82.67-58.67 94.67-89.33 12-30.67-8-40.67-28-50.67"/>
<path class="Rand2" d="m4410 4680c0 30 0 60-15 90s-45 60-75 90"/>
</g>
<path class="Rand6" d="m360 4140a3240 3240 0 0 0 6480 0v-3870h-6480v3870z"/>
</g>
</svg>
