<?xml version="1.0" encoding="UTF-8"?>
<!DOCTYPE svg  PUBLIC '-//W3C//DTD SVG 1.1//EN'  'http://www.w3.org/Graphics/SVG/1.1/DTD/svg11.dtd'>
<svg width="438" height="480" viewBox="21 15 438 480" xmlns="http://www.w3.org/2000/svg">
<metadata>
<rdf:RDF xmlns:dc="http://purl.org/dc/elements/1.1/" xmlns:rdf="http://www.w3.org/1999/02/22-rdf-syntax-ns#">
<rdf:Description dc:date="2006-10-30" dc:format="image/svg+xml" dc:language="de" dc:title="Wappen Scuol (CH-GR)">
<dc:creator rdf:resource="http://de.wikipedia.org/wiki/Benutzer:Bernina"/>
</rdf:Description>
</rdf:RDF>
</metadata>
<title>Wappen Scuol (CH-GR)</title>
<defs>
<clipPath id="a">
<path d="m360 4140a3240 3240 0 0 0 6480 0v-3870h-6480v3870z"/>
</clipPath>
<style type="text/css"><![CDATA[
  .Rand1 { stroke: #202020; stroke-width:15; }
  .Rand2 { stroke: #202020; stroke-width:30; }
  .Rand6 { stroke: #202020; stroke-width:90; }
  .Rand2Hell { stroke: #ffffff; stroke-width:30; }
  .Wasser { stroke: #ffffff; stroke-width:75; }
  .Schwarz { fill: #000000; }
  .Blau { fill: #0000ff; }
  .Gold { fill: #ffef00; }
  .Silber { fill: #ffffff; }
  ]]></style>
</defs>
<g transform="scale(.066667)" fill="none" fill-rule="evenodd" stroke-miterlimit="10" stroke-width="10">
<g clip-path="url(#a)">
<path class="Gold" d="m-225-225v7650h7650v-7650h-7650z"/>
<path class="Blau Rand1" d="m1890 4770c120-780 240-1560 405-1965s375-435 570-315 375 390 465 720 90 720 90 1110h180c15-210 30-420 30-652 0-233-15-488-112-743-98-255-278-510-488-637-210-128-450-128-660-23s-390 315-540 750-270 1095-390 1755h450z"/>
<path class="Blau Rand1" d="m5310 4770h450c-120-660-240-1320-390-1755s-330-645-540-750-450-105-660 23c-210 127-390 382-488 637-97 255-112 510-112 743 0 232 15 442 30 652h180c0-390 0-780 90-1110s270-600 465-720 405-90 570 315 285 1185 405 1965z"/>
<path class="Wasser" d="m3600 4230c0-330 0-660 98-990 97-330 292-660 510-818 217-157 457-142 644 23 188 165 323 480 428 893 105 412 180 922 255 1432"/>
<path class="Wasser" d="m3600 4230c0-330 0-660-98-990-97-330-292-660-510-818-217-157-457-142-644 23-188 165-323 480-428 893-105 412-180 922-255 1432"/>
<path class="Blau Rand1" d="m3780 4320c-30-600-60-1200-60-1725s30-975 60-1260 60-405 120-465 150-60 225 300 135 1080 165 1740 30 1260 30 1860h450c-60-900-120-1800-210-2505s-210-1215-345-1470-285-255-390-180-165 225-225 375c-60-150-120-300-225-375s-255-75-390 180-255 765-345 1470-150 1605-210 2505h450c0-600 0-1200 30-1860s90-1380 165-1740 165-360 225-300 90 180 120 465 60 735 60 1260-30 1125-60 1725h360z"/>
<path class="Wasser" d="m3600 1620c0-120 0-240 38-390 37-150 112-330 194-435 83-105 173-135 270 30 98 165 203 525 278 1215s120 1710 165 2730"/>
<path class="Wasser" d="m3600 1620c0-120 0-240-38-390-37-150-112-330-194-435-83-105-173-135-270 30-98 165-203 525-278 1215s-120 1710-165 2730"/>
<path class="Silber Rand2Hell" d="m3510 4230h180c-30-210-60-420-75-675s-15-555-15-855c0 300 0 600-15 855s-45 465-75 675z"/>
<path class="Silber Rand2Hell" d="m3555 1350c15 180 30 360 37 488 8 127 8 202 8 277 0-75 0-150 8-277 7-128 22-308 37-488h-90z"/>
<path class="Schwarz Rand2" d="m3510 4815h180v-405l90-90v-90h-140v-180h-80v180h-140v90l90 90v405z"/>
<path class="Schwarz Rand2" d="m900 5040h450c255 165 510 330 742 480 233 150 443 285 616 368 172 82 307 112 442 142v270c-120 30-240 60-360 98-120 37-240 82-300 134-60 53-60 113-60 173v135h2340v-135c0-60 0-120-60-173-60-52-180-97-300-134-120-38-240-68-360-98v-270c135-30 270-60 442-142 173-83 383-218 616-368 232-150 487-315 742-480h450c0-60 0-120-60-165s-180-75-262-90c-83-15-128-15-886-15h-2984c-758 0-803 0-886 15-82 15-202 45-262 90s-60 105-60 165z"/>
<path class="Rand2Hell" d="m3150 6300h900"/>
<path class="Rand2Hell" d="m3150 6030h900"/>
<path class="Rand2Hell" d="m1350 5050h4500"/>
</g>
<path class="Rand6" d="m360 4140a3240 3240 0 0 0 6480 0v-3870h-6480v3870z"/>
</g>
</svg>
