<?xml version="1.0" encoding="UTF-8"?>
<!DOCTYPE svg  PUBLIC '-//W3C//DTD SVG 1.1//EN'  'http://www.w3.org/Graphics/SVG/1.1/DTD/svg11.dtd'>
<svg width="438" height="480" viewBox="21 15 438 480" xmlns="http://www.w3.org/2000/svg">
<metadata>
<rdf:RDF xmlns:dc="http://purl.org/dc/elements/1.1/" xmlns:rdf="http://www.w3.org/1999/02/22-rdf-syntax-ns#">
<rdf:Description dc:date="2006-11-04" dc:format="image/svg+xml" dc:language="de" dc:title="Wappen Bever (CH-GR)">
<dc:creator rdf:resource="http://de.wikipedia.org/wiki/Benutzer:Bernina"/>
</rdf:Description>
</rdf:RDF>
</metadata>
<title>Wappen Bever (CH-GR)</title>
<defs>
<clipPath id="a">
<path d="m360 4140a3240 3240 0 0 0 6480 0v-3870h-6480v3870z"/>
</clipPath>
<style type="text/css"><![CDATA[
  .Rand2 { stroke: #202020; stroke-width:30; }
  .Rand6 { stroke: #202020; stroke-width:90; }
  .Schwarz4 { stroke: #000000; stroke-width:60; }
  .Grau4 { stroke: #e0e0e0; stroke-width:60; }
  .Schwarz { fill: #000000; }
  .Blau { fill: #0000ff; }
  .Rot { fill: #ff0000; }
  .Gold { fill: #ffef00; }
  .Silber { fill: #ffffff; }
  ]]></style>
</defs>
<g transform="scale(.066667)" fill="none" fill-rule="evenodd" stroke-miterlimit="10" stroke-width="10">
<g clip-path="url(#a)">
<path class="Gold" d="m-225-225v7650h7650v-7650h-7650z"/>
<path class="Blau Rand2" d="m3330 5310c-90 300-180 600-210 765s0 195 45 210 105 15 150 0 75-45 120-135 105-240 150-375 75-255 105-375"/>
<path class="Blau Rand2" d="m4320 5220c90 180 180 360 255 540s135 360 195 450 120 90 180 75 120-45 135-120-15-195-75-345-150-330-240-510"/>
<path class="Rot Rand2" d="m3690 3510c-30-60-60-120-105-150s-105-30-150-30-75 0-90 15-15 45-15 120 0 195 30 315 90 240 150 360"/>
<path class="Rot Rand2" d="m3510 3420c30-60 60-120 120-210s150-210 195-285 45-105 30-120-45-15-105 45-150 180-210 285-90 195-120 285"/>
<path class="Blau Rand2" d="m3255 6105c-45-15-75-45-120-60s-105-15-120 30 15 135-15 225-120 180-195 225-135 45-195 60-120 45-150 75-30 60 0 90 90 60 195 60 255-30 375-30 210 30 270 30 90-30 90-90-30-150 0-255 120-225 135-285-45-60-105-60-120 0-165-15z"/>
<path class="Blau Rand2" d="m4860 6120c-60 0-120 0-165 15s-75 45-60 90 75 105 105 165 30 120-15 180-135 120-210 150-135 30-165 45-30 45-15 75 45 60 120 75 195 15 345-30 330-135 405-195 45-90 15-135-60-105-60-195 30-210 15-270-75-60-105-45-30 45-60 60-90 15-150 15z"/>
<path class="Blau Rand2" d="m3870 2700c-90 210-180 420-255 645s-135 465-210 795-165 750-210 975-45 255-15 285 90 60 225 75 345 15 525 0 330-45 495-30 345 75 450 90 135-15 105-120-120-285-165-585-45-720-45-1095v-1035"/>
<path class="Blau Rand2" d="m4410 1800c30 0 60 0 90-15s60-45 90-135 60-240 75-375 15-255-15-360-90-195-180-240-210-45-300-15-150 90-210 150"/>
<path class="Blau Rand2" d="m3330 2520c-180 30-360 60-480 75s-180 15-210 90-30 225-15 375 45 300 97 352c53 53 128 8 233-67s240-180 367-307c128-128 248-278 368-428"/>
<path class="Rot Rand2" d="m2430 1440v-360a360 360 0 0 0-720 0 90 90 0 0 0 180 0 180 180 0 0 1 360 0v360"/>
<path class="Silber Rand2" d="m2970 2700h-240-105c-15 0-15 0-45-30s-90-90-150-105-120 15-165 30-75 15-90 75-15 180 15 240 90 60 135 75 75 45 165 30 240-75 390-135"/>
<path class="Rot Rand2" d="m3528 3432a60 60 0 0 0-120 0 60 60 0 0 0 120 0z"/>
<path class="Blau Rand2" d="m3690 2610c-120 150-240 300-368 428-127 127-262 232-397 337l-90 45c15-120 30-240 23-375-8-135-38-285-60-360-23-75-38-75-53-75h45l540-90"/>
<path class="Blau Rand2" d="m3960 1890c-270 180-540 360-675 465s-135 135-30 225 315 240 510 315 375 75 615 75h705c165 0 195 0 210-15s15-45-60-225-225-510-360-690-255-210-300-240-15-60-15-135-30-195-75-330-105-285-165-390-120-165-188-225c-67-60-142-120-187-135s-60 15-67 45c-8 30-8 60-23 90s-45 60-60 90-15 60 0 75 45 15 120 60 195 135 315 225"/>
<path class="Rot Rand2" d="m2250 1440v5040l90 90 90-90v-5040h-180z"/>
<path class="Rot Rand2" d="m2250 1770a60 60 0 0 0-60 60 60 60 0 0 0 60 60h180a60 60 0 0 0 60-60 60 60 0 0 0-60-60h-180z"/>
<path class="Rot Rand2" d="m2250 1350a90 90 0 0 0-90 90 90 90 0 0 0 90 90h180a90 90 0 0 0 90-90 90 90 0 0 0-90-90h-180z"/>
<path class="Gold Rand2" d="m4725 3330v-540h-630v540h630z"/>
<path class="Schwarz4" d="m4185 3060h450"/>
<path class="Schwarz4" d="m4320 2880v360"/>
<path class="Silber Rand2" d="m2310 2805c-30-15-90-15-120 0s-30 45 0 60 90 15 120 0 30-45 0-60z"/>
<path class="Silber Rand2" d="m2310 2715c-30-15-90-15-120 0s-30 45 0 60 90 15 120 0 30-45 0-60z"/>
<path class="Silber Rand2" d="m2310 2625c-30-15-90-15-120 0s-30 45 0 60 90 15 120 0 30-45 0-60z"/>
<path class="Silber Rand2" d="m2610 2880c-60 0-120 0-135-30s15-90 0-135-75-75-105-105-30-60-15-75 45-15 90 15 105 90 165 150"/>
<path class="Silber Rand2" d="m4590 3330c-30 0-60 0-90-15s-60-45-60-90 30-105 15-135-75-30-105 15-30 135-45 180-45 45-75 30-60-45-90-75-60-60-90-60-60 30-45 60 75 60 105 105 30 105 45 150 45 75 120 90 195 15 315 15"/>
<path class="Silber Rand2" d="m3870 900c0 60 0 120-42.33 201.67-42.34 81.66-127 185-134.34 235.33-7.33 50.33 62.67 47.67 90 56 27.34 8.33 12 27.67 4.34 52.33-7.67 24.67-7.67 54.67 7.33 84.67s45 60 45 75-30 15-45 60-15 135-45 240-90 225-90 285 60 60 195-15 345-225 450-330 105-165 75-270-90-255-165-360-165-165-255-225"/>
<path class="Blau Rand2" d="m5220 2970c0 30 0 60-15 120s-45 150-105 255-150 225-240 315-180 150-240 165-90-15-105-105-15-240-30-345-45-165-30-195 75-30 135-45 120-45 150-90 30-105 75-150 135-75 210-60 135 75 195 135z"/>
<path class="Grau4" d="m3878 1818c20 50 40 100 47.33 142.33 7.34 42.34 2 77-3.33 111.67"/>
<path class="Grau4" d="m3960 1772c32.67 32.67 65.33 65.33 82.67 98 17.33 32.67 19.33 65.33 21.33 98"/>
<path class="Grau4" d="m4042 1720c40 22.67 80 45.33 108.67 67.67 28.66 22.33 46 44.33 63.33 66.33"/>
<path class="Grau4" d="m4170 1614c20-2 40-4 65 10s55 44 85 74"/>
<path class="Grau4" d="m4162 1510 112-38"/>
<path class="Grau4" d="m4162 1398 68-54"/>
<path class="Grau4" d="m4110 1652c-50 32.67-100 65.33-147.67 78-47.66 12.67-93 5.33-138.33-2"/>
<path class="Grau4" d="m3824 1764-6 84"/>
<path class="Grau4" d="m3794 1922c0 40 0 80-7.33 115-7.34 35-22 65-36.67 95"/>
<path class="Rand2" d="m4230 1260c-60 30-120 60-135 90s15 60 30 105 15 105 15 165"/>
<path class="Rand2" d="m3870 1440c30 0 60 0 105 30s105 90 135 135 30 75 30 105"/>
<path class="Rand2" d="m3804 1622c20-4.67 40-9.33 60-5.67 20 3.67 40 15.67 60 27.67"/>
<path class="Rand2" d="m3886 1112c35.33 7.33 70.67 14.67 99.67 29.67s51.66 37.66 74.33 60.33"/>
<path class="Rand2" d="m3812 1938c20-2.67 40-5.33 51.33 12 11.34 17.33 14 54.67 10.34 91-3.67 36.33-13.67 71.67-23.67 107"/>
<path class="Rand2" d="m3932 1878c12.67-8 25.33-16 36.67-6 11.33 10 21.33 38 27.66 68 6.34 30 9 62 11.67 94"/>
<path class="Rand2" d="m4014 1802c12.67-17.33 25.33-34.67 45.33-27s47.34 40.33 67.34 69 32.66 53.33 45.33 78"/>
<path class="Rand2" d="m4172 1728c20-22.67 40-45.33 57.33-50.33 17.34-5 32 7.66 37 32.66s0.34 62.34-4.33 99.67"/>
<path class="Rand2" d="m4240 1398c-18 27.33-36 54.67-25 75.67s51 35.66 58.67 52c7.66 16.33-17 34.33-9.34 52 7.67 17.66 47.67 35 87.67 52.33"/>
<path class="Schwarz" d="m3998 1172a44 44 0 0 0-88 0 44 44 0 0 0 88 0z"/>
<path class="Silber Rand2" d="m3892 578c-22 22-22 82-41 127s-57 75-57 105 38 60 64 60c27 0 42-30 87-60s120-60 143-90c22-30-8-60-46-60-37 0-82 30-90 22-7-7 23-52 16-82-8-30-53-45-76-22z"/>
</g>
<path class="Rand6" d="m360 4140a3240 3240 0 0 0 6480 0v-3870h-6480v3870z"/>
</g>
</svg>
