<?xml version="1.0" encoding="UTF-8"?>
<!DOCTYPE svg  PUBLIC '-//W3C//DTD SVG 1.1//EN'  'http://www.w3.org/Graphics/SVG/1.1/DTD/svg11.dtd'>
<svg width="438" height="480" viewBox="21 15 438 480" xmlns="http://www.w3.org/2000/svg">
<metadata>
<rdf:RDF xmlns:dc="http://purl.org/dc/elements/1.1/" xmlns:rdf="http://www.w3.org/1999/02/22-rdf-syntax-ns#">
<rdf:Description dc:date="2006-11-02" dc:format="image/svg+xml" dc:language="de" dc:title="Wappen La Punt-Chamues-ch (CH-GR)">
<dc:creator rdf:resource="http://de.wikipedia.org/wiki/Benutzer:Bernina"/>
</rdf:Description>
</rdf:RDF>
</metadata>
<title>Wappen La Punt-Chamues-ch (CH-GR)</title>
<defs>
<clipPath id="a">
<path d="m360 4140a3240 3240 0 0 0 6480 0v-3870h-6480v3870z"/>
</clipPath>
<style type="text/css"><![CDATA[
  .Rand2 { stroke: #202020; stroke-width:30; }
  .Rand3 { stroke: #202020; stroke-width:45; }
  .Rand6 { stroke: #202020; stroke-width:90; }
  .Schwarz { fill: #000000; }
  .Gold { fill: #ffef00; }
  .Silber { fill: #ffffff; }
  ]]></style>
</defs>
<g transform="scale(.066667)" fill="none" fill-rule="evenodd" stroke-miterlimit="10" stroke-width="10">
<g clip-path="url(#a)">
<path class="Schwarz" d="m-225-225v3465h7650v-3465h-7650z"/>
<path class="Gold" d="m-225 3240v4185h7650v-4185h-7650z"/>
<path class="Schwarz Rand2" d="m5850 6390a2250 2250 0 0 0-4500 0"/>
<path class="Silber Rand2" d="m7515 7425v-1530c-105 75-210 150-383 113-172-38-412-188-652-188s-480 150-720 150-480-150-720-150-480 150-720 150-480-150-720-150-480 150-720 150-480-150-720-150-480 150-720 150-480-150-720-150-480 150-652 188c-173 37-278-38-383-113v1530"/>
<path class="Rand2" d="m7515 6255c-105 75-210 150-383 113-172-38-412-188-652-196-240-7-480 128-720 128s-480-135-720-128c-240 8-480 158-720 158s-480-150-720-150-480 150-720 150-480-150-720-158c-240-7-480 128-720 128s-480-135-720-128c-240 8-480 158-652 196-173 37-278-38-383-113"/>
<path class="Rand2" d="m7515 6615c-105 75-210 150-383 113-172-38-412-188-652-188s-480 150-705 150-435-150-675-150-510 150-765 150-495-150-735-150-480 150-735 150-525-150-765-150-450 150-675 150-465-150-705-150-480 150-652 188c-173 37-278-38-383-113"/>
<path class="Rand2" d="m7515 6975c-105 75-210 150-383 113-172-38-412-188-652-180-240 7-480 172-720 164-240-7-480-187-720-194-240-8-480 157-720 164-240 8-480-142-720-142s-480 150-720 142c-240-7-480-172-720-164-240 7-480 187-720 194-240 8-480-157-720-164-240-8-480 142-652 180-173 37-278-38-383-113"/>
<path class="Silber Rand2" d="m4500 2520c8-60 15-120 0-180s-52-120-90-180c-90-120-180-240-240-450s-90-510-180-660-240-150-390-150-300 0-390 150-120 450-180 660-150 330-240 450c-38 60-75 120-90 180s-8 120 0 180c210-30 420-60 570-90s240-60 330-60 180 30 330 60 360 60 570 90z"/>
<path class="Silber Rand2" d="m4500 2520a900 240 0 0 0-1800 0 900 240 0 0 0 1800 0z"/>
<ellipse class="Silber Rand2" transform="translate(3810 690) rotate(15)" rx="120" ry="210"/>
<ellipse class="Silber Rand2" transform="translate(3390 690) rotate(-15)" rx="120" ry="210"/>
<ellipse class="Silber Rand2" cx="3600" cy="660" rx="120" ry="210"/>
<path class="Silber Rand2" d="m3570 2280c0 80 0 160-15 230s-45 130-60 180-15 90 5 135 60 95 100 95 80-50 100-95 20-85 5-135-45-110-60-180-15-150-15-230h-60z"/>
<path class="Rand2" d="m3600 1548 180-288h90l-224 360 224 360h-90l-180-288-180 288h-90l226-360-226-360h90l180 288z"/>
<path class="Rand2" d="m3150 1170c90-30 180-60 285-75s225-15 330 0 195 45 285 75"/>
<path class="Rand2" d="m2760 2190c160-40 320-80 460-100s260-20 380-20 240 0 380 20 300 60 460 100"/>
<path class="Rand3" d="m-225 3240h7650"/>
</g>
<path class="Rand6" d="m360 4140a3240 3240 0 0 0 6480 0v-3870h-6480v3870z"/>
</g>
</svg>
