<?xml version="1.0" encoding="iso-8859-1"?>
<!DOCTYPE svg PUBLIC "-//W3C//DTD SVG 1.1//EN" "http://www.w3.org/Graphics/SVG/1.1/DTD/svg11.dtd">
<!-- Auto-generated by fig2svg tool
     Date: Sun Nov  5 10:06:49 2006 -->
<svg xmlns="http://www.w3.org/2000/svg"
     width="438" height="480" viewBox="21 15 438 480">
<metadata>
<rdf:RDF xmlns:rdf="http://www.w3.org/1999/02/22-rdf-syntax-ns#"
         xmlns:dc="http://purl.org/dc/elements/1.1/">
<rdf:Description
 dc:title="Wappen Samedan (CH-GR)"
 dc:date="2006-11-05"
 dc:format="image/svg+xml"
 dc:language="de">
<dc:creator rdf:resource="http://de.wikipedia.org/wiki/Benutzer:Bernina" />
</rdf:Description>
</rdf:RDF>
</metadata>
<title>
Wappen Samedan (CH-GR)
</title>
<defs>
<clipPath id="clippath">
<path d="M360,4140 A3240,3240 0.0 0 0 6840,4140 L6840,270 L360,270 L360,4140 Z" />
</clipPath>
<style type="text/css">
  <![CDATA[
  .Rand1 { stroke: #202020; stroke-width:15; }
  .Rand2 { stroke: #202020; stroke-width:30; }
  .Rand6 { stroke: #202020; stroke-width:90; }
  .Schwarz { fill: #000000; }
  .Gold { fill: #ffef00; }
  ]]>
</style>
</defs>
<g stroke="none" stroke-miterlimit="10" stroke-width="10"
   stroke-linecap="butt" stroke-linejoin="miter"
   fill="none" fill-rule="evenodd" transform="scale(0.066667)">
<g clip-path="url(#clippath)">
<path id="feld-1" class="Schwarz"
      d="M-225,-225 L-225,7425 L7425,7425 L7425,-225 L-225,-225 Z" />
<path id="ruder1-1" class="Gold Rand2"
      d="M2060,3756 L2398,3632 L1568,1348 L1736,1286 L2568,3570 L2906,3448
         C2926.67,3504 2947.33,3560 2988.33,3672.67
         C3029.33,3785.33 3090.67,3954.67 3085.67,4116.33
         C3080.67,4278 3009.33,4432 2945.33,4519
         C2881.33,4606 2824.67,4626 2719.33,4600.33
         C2614,4574.67 2460,4503.33 2352.33,4383
         C2244.67,4262.67 2183.33,4093.33 2142.33,3980.67
         C2101.33,3868 2080.67,3812 2060,3756 Z" />
<path id="ruder2-1" class="Gold Rand2"
      d="M1960,1110 C1893.33,1102.67 1826.67,1095.33 1765,1101.67
         C1703.33,1108 1646.67,1128 1590.33,1148.33
         C1534,1168.67 1478,1189.33 1427,1224
         C1376,1258.67 1330,1307.33 1284,1356
         C1304,1412.67 1324,1469.33 1357.33,1473.33
         C1390.67,1477.33 1437.33,1428.67 1488.67,1394
         C1540,1359.33 1596,1338.67 1652.33,1318
         C1708.67,1297.33 1765.33,1276.67 1827,1270.33
         C1888.67,1264 1955.33,1272 1978.33,1247.67
         C2001.33,1223.33 1980.67,1166.67 1960,1110 Z" />
<path id="figur1-1" class="Gold Rand2"
      d="M5040,4770 C4980,4800 4920,4830 4860,4845
         C4800,4860 4740,4860 4605,4860 C4470,4860 4260,4860 4065,4890
         C3870,4920 3690,4980 3525,5085 C3360,5190 3210,5340 3045,5460
         C2880,5580 2700,5670 2520,5730 C2340,5790 2160,5820 2010,5850
         C1860,5880 1740,5910 1620,5865 C1500,5820 1380,5700 1335,5625
         C1290,5550 1320,5520 1365,5505 C1410,5490 1470,5490 1515,5475
         C1560,5460 1590,5430 1635,5415 C1680,5400 1740,5400 1800,5415
         C1860,5430 1920,5460 2025,5460 C2130,5460 2280,5430 2370,5385
         C2460,5340 2490,5280 2595,5100 C2700,4920 2880,4620 3195,4380
         C3510,4140 3960,3960 4260,3870 C4560,3780 4710,3780 4860,3780" />
<path id="figur2-1" class="Gold Rand2"
      d="M4410,4050 C4374,4056 4338,4062 4233,4092
         C4128,4122 3954,4176 3822,4233 C3690,4290 3600,4350 3525,4410
         C3450,4470 3390,4530 3315,4560 C3240,4590 3150,4590 3135,4650
         C3120,4710 3180,4830 3075,5010 C2970,5190 2700,5430 2565,5565
         C2430,5700 2430,5730 2445,5790 C2460,5850 2490,5940 2490,6000
         C2490,6060 2460,6090 2385,6090 C2310,6090 2190,6060 2040,6075
         C1890,6090 1710,6150 1590,6165 C1470,6180 1410,6150 1380,6120
         C1350,6090 1350,6060 1395,6030 C1440,6000 1530,5970 1620,5925
         C1710,5880 1800,5820 1890,5730 C1980,5640 2070,5520 2160,5385
         C2250,5250 2340,5100 2415,4950 C2490,4800 2550,4650 2580,4560
         C2610,4470 2610,4440 2625,4395 C2640,4350 2670,4290 2775,4215
         C2880,4140 3060,4050 3285,3960 C3510,3870 3780,3780 3915,3720
         C4050,3660 4050,3630 4080,3600 C4110,3570 4170,3540 4200,3495
         C4230,3450 4230,3390 4230,3330 C4230,3270 4230,3210 4230,3135
         C4230,3060 4230,2970 4215,2895 C4200,2820 4170,2760 4125,2715
         C4080,2670 4020,2640 3960,2610 L3960,2610
         C4050,2670 4140,2730 4110,2775 C4080,2820 3930,2850 3810,2880
         C3690,2910 3600,2940 3525,2985 C3450,3030 3390,3090 3285,3120
         C3180,3150 3030,3150 2895,3120 C2760,3090 2640,3030 2550,2985
         C2460,2940 2400,2910 2340,2910 C2280,2910 2220,2940 2160,2970
         C2160,2970 2128.24,2889.03 2088.38,2791.52
         C2048.53,2694.01 2023.74,2637.92 2004.33,2604
         C1984.93,2570.08 1967.04,2550.03 1951.56,2537.64
         C1936.08,2525.24 1924.97,2521.68 1917.33,2516.33
         C1909.69,2510.99 1903.78,2506.19 1897.86,2500.25
         C1891.94,2494.32 1886,2481 1890,2462
         C1894,2443 1904.88,2433.82 1914,2431.19
         C1924.12,2428.55 1934.72,2426.86 1950,2425.33
         C1965.28,2423.81 1986.85,2425.32 2010.83,2426.17
         C2034.82,2427.02 2057.97,2426.94 2076,2422.67
         C2094.03,2418.39 2110.49,2409.07 2127.77,2400.39
         C2145.05,2391.71 2161.07,2385.03 2178.33,2385.33
         C2195.60,2385.64 2217.52,2392.99 2241.88,2406.77
         C2266.24,2420.56 2289.83,2438.93 2310,2458.33
         C2330.17,2477.74 2350.89,2502.01 2374.73,2528
         C2398.57,2553.99 2422.60,2578.26 2448,2597.67
         C2474.40,2617.07 2507.27,2635.44 2545.06,2651.21
         C2582.85,2666.98 2620.62,2678.12 2655,2685
         C2689.38,2691.88 2727.15,2695.84 2766.46,2693.76
         C2805.77,2691.68 2841.56,2683.75 2872,2670
         C2903.44,2656.25 2935.64,2633.97 2968.96,2612.08
         C3002.28,2590.19 3032,2571.88 3060,2565
         C3088,2558.12 3117.72,2561.33 3156.24,2562.92
         C3194.76,2564.51 3236.88,2563.75 3285,2550
         C3333.12,2536.25 3396.77,2506.79 3460.84,2466.68
         C3524.92,2426.58 3580.62,2381.25 3615,2340
         C3649.38,2298.75 3669.21,2253.42 3687.92,2205
         C3706.63,2156.58 3722,2111.25 3750,2070
         C3778,2028.75 3822.07,1983.42 3878.32,1941.24
         C3934.57,1899.05 3995,1865.62 4050,1845
         C4105,1824.38 4165.43,1812.47 4238.32,1806.24
         C4311.20,1800 4388,1800 4470,1800 C4552,1800 4658,1800 4770,1802.08
         C4882,1804.16 4988,1808.12 5070,1815
         C5152,1821.88 5228.80,1833.02 5299.61,1849.16
         C5370.41,1865.30 5426.88,1884.38 5475,1905
         C5523.12,1925.62 5572.42,1951.88 5618.76,1984.16
         C5665.11,2016.44 5702,2050.62 5730,2085
         C5758,2119.38 5780.54,2160.73 5798.76,2209.16
         C5816.98,2257.58 5828.12,2306.88 5835,2355
         C5841.88,2403.12 5845.84,2459.59 5850,2526.24
         C5854.16,2592.88 5858.12,2661.25 5865,2730
         C5871.88,2798.75 5883.02,2881.47 5897.08,2963.76
         C5911.14,3046.06 5926.25,3116.88 5940,3165
         C5953.75,3213.12 5968.86,3248.07 5985,3278.76
         C6001.14,3309.46 6016.25,3332 6030,3360
         C6043.75,3388 6058.86,3424.89 6068.76,3467.08
         C6078.67,3509.27 6081.88,3550.62 6075,3585
         C6068.12,3619.38 6049.81,3653.56 6025.84,3685.84
         C6001.88,3718.12 5975.62,3744.38 5955,3765 L5891.81,3828.19
         L5850,3870" />
<path id="figur-schwarz-1" class="Schwarz Rand2"
      d="M5535,3645 L5760,3645 L5715,3375 L5580,3375 L5535,3645 Z" />
<path id="figur-schwarz-2" class="Schwarz Rand2"
      d="M5490,3240 C5490,3180 5490,3120 5475,3015
         C5460,2910 5430,2760 5430,2760 C5430,2760 5460,2910 5460,3015
         C5460,3120 5430,3180 5400,3240" /><path id="figur3-1" class="Gold Rand2"
      d="M1958.67,2554.67 C1928,2555.33 1900,2566.67 1888.33,2590
         C1876.67,2613.33 1881.33,2648.67 1913.67,2673
         C1946,2697.33 2006,2710.67 2056,2707.33
         C2106,2704 2146,2684 2167,2664 C2188,2644 2190,2624 2185,2609
         C2180,2594 2168,2584 2145.33,2579
         C2122.67,2574 2089.33,2574 2056,2569 C2022.67,2564 1989.33,2554 1958.67,2554.67 Z" />
<path id="figur3-2" class="Gold Rand2"
      d="M1960.33,2719 C1936,2728 1926,2748 1932,2775.67
         C1938,2803.33 1960,2838.67 1989.33,2856.33
         C2018.67,2874 2055.33,2874 2093.67,2864.67
         C2132,2855.33 2172,2836.67 2196,2819
         C2220,2801.33 2228,2784.67 2228,2768
         C2228,2751.33 2220,2734.67 2210,2723
         C2200,2711.33 2188,2704.67 2163,2704
         C2138,2703.33 2100,2708.67 2061.67,2710.33 C2023.33,2712 1984.67,2710 1960.33,2719 Z" />
<path id="figur3-3" class="Gold Rand2"
      d="M2062.67,2874 C2029.33,2893.33 2022.67,2908.67 2031,2929.67
         C2039.33,2950.67 2062.67,2977.33 2092,2986.33
         C2121.33,2995.33 2156.67,2986.67 2190,2972.33
         C2223.33,2958 2254.67,2938 2270.33,2919
         C2286,2900 2286,2882 2274.33,2863.67
         C2262.67,2845.33 2239.33,2826.67 2197.67,2829
         C2156,2831.33 2096,2854.67 2062.67,2874 Z" />
<path id="figur3-4" class="Gold Rand2"
      d="M5220,4770 C5430,4710 5640,4650 5790,4530
         C5940,4410 6030,4230 6030,4065 C6030,3900 5940,3750 5820,3660
         C5700,3570 5550,3540 5385,3600 C5220,3660 5040,3810 4860,3960" />
<path id="linie1-1" class="Rand2"
      d="M2292,2722 C2316.67,2748.67 2341.33,2775.33 2374,2791
         C2406.67,2806.67 2447.33,2811.33 2488,2816" />
<path id="figur4-1" class="Gold Rand2"
      d="M5850,3330 C5760,3300 5670,3270 5580,3255
         C5490,3240 5400,3240 5325,3255 C5250,3270 5190,3300 5128.33,3350.33
         C5066.67,3400.67 5003.33,3471.33 4964,3534.33
         C4924.67,3597.33 4909.33,3652.67 4936.17,3657.33
         C4963,3662 5032,3616 5069.67,3592
         C5107.33,3569 5113.67,3568 5090,3593.33
         C5067.33,3618.67 5014.67,3670.33 4986.33,3690.83
         C4958,3711.33 4954,3700.67 4960.33,3722.33
         C4966.67,3744 4983.33,3798 5043.33,3783
         C5103.33,3768 5206.67,3684 5291.67,3633.67
         C5376.67,3583.33 5443.33,3566.67 5501.67,3562.33
         C5560,3558 5610,3566 5636.17,3551.83
         C5662.33,3537.67 5664.67,3501.33 5672,3483.83
         C5678.33,3466.33 5689.67,3467.67 5687.17,3490.17
         C5684.67,3512.67 5668.33,3556.33 5705.17,3603.83
         C5742,3651.33 5832,3702.67 5922,3754" />
<path id="topf1-1" class="Gold Rand2"
      d="M5580,4320 A450,450 0.0 0 0 4680,4320 A450,450 0.0 0 0 5580,4320 Z" />
<path id="topf2-1" class="Schwarz Rand1"
      d="M5400,4320 A270,270 0.0 0 0 4860,4320 A270,270 0.0 0 0 5400,4320 Z" />
<path id="figur5-1" class="Gold Rand2"
      d="M4560,2295 C4680,2340 4860,2340 4995,2280
         C5130,2220 5220,2100 5280,1905 C5340,1710 5370,1440 5325,1215
         C5280,990 5160,810 5010,720 C4860,630 4680,630 4545,705
         C4410,780 4320,930 4290,1050 C4260,1170 4290,1260 4320,1335
         C4350,1410 4380,1470 4380,1590 C4380,1710 4350,1890 4365,2025
         C4380,2160 4440,2250 4560,2295 Z" />
<path id="wasser0-1" class="Gold Rand2"
      d="M3420,6210 C3330,6270 3240,6330 3120,6405
         C3000,6480 2850,6570 2700,6615 C2550,6660 2400,6660 2295,6630
         C2190,6600 2130,6540 2100,6495 C2070,6450 2070,6420 2115,6420
         C2160,6420 2250,6450 2400,6420 C2550,6390 2760,6300 2910,6240
         C3060,6180 3150,6150 3225,6128 C3300,6105 3360,6090 3420,6075" />
<path id="linie2-1" class="Rand2" d="M4142,3874 L4172,3934 L4116,4088" />
<path id="linie2-2" class="Rand2" d="M4472,3664 L4566,3684" />
<path id="linie2-3" class="Rand2" d="M4400,2824 L4450,2824" />
<path id="linie2-4" class="Rand2" d="M5200,2804 L5150,2804" />
<path id="linie2-5" class="Rand2"
      d="M4126,3828 C4149.33,3874.67 4172.67,3921.33 4212.67,3959
         C4252.67,3996.67 4309.33,4025.33 4368.67,4033.67
         C4428,4042 4490,4030 4550,4037.33 C4610,4044.67 4668,4071.33 4726,4098" />
<path id="linie2-6" class="Rand2"
      d="M1356,5666 C1384,5667.33 1412,5668.67 1457,5659 C1502,5649.33 1564,5628.67 1626,5608" />
<path id="linie2-7" class="Rand2"
      d="M1512,5808 C1541.33,5798.33 1570.67,5788.67 1598,5775.33
         C1625.33,5762 1650.67,5745 1676,5728" />
<path id="bart-1" class="Schwarz" d="M4608,2309 L4675,1949 L4676,2318" />
<path id="bart-2" class="Schwarz" d="M4512,2264 L4566,1949 L4452,2224" />
<path id="bart-3" class="Schwarz" d="M4382,2124 L4465,1900 L4364,2031" />
<path id="bart-4" class="Schwarz" d="M4986,2275 L4904,1952 L5056,2244" />
<path id="bart-5" class="Schwarz" d="M5126,2174 L5006,1914 L5174,2121" />
<path id="bart-6" class="Schwarz" d="M4799,2324 L4791,1941 L4876,2314" />
<path id="auge-1" class="Schwarz"
      d="M4616,1294 A44,30 0.0 0 0 4528,1294 A44,30 0.0 0 0 4616,1294 Z" />
<path id="auge-2" class="Schwarz"
      d="M4976,1302 A44,30 0.0 0 0 4888,1302 A44,30 0.0 0 0 4976,1302 Z" />
<path id="linie3-1" class="Rand2"
      d="M4376,1838 C4448,1738 4520,1638 4601.67,1587.33
         C4683.33,1536.67 4774.67,1535.33 4868,1594.67
         C4961.33,1654 5056.67,1774 5113.33,1851.33 C5170,1928.67 5188,1963.33 5206,1998" />
<path id="linie3-2" class="Rand2"
      d="M4582,1728 C4605.33,1708 4628.67,1688 4670.33,1679.67
         C4712,1671.33 4772,1674.67 4814.33,1691.33 C4856.67,1708 4881.33,1738 4906,1768" />
<path id="linie3-3" class="Rand2" d="M4666,1764 L4796,1768" />
<path id="linie3-4" class="Rand2"
      d="M5036,1674 C5061.33,1597.33 5086.67,1520.67 5096,1435.67
         C5105.33,1350.67 5098.67,1257.33 5060.33,1169
         C5022,1080.67 4952,997.33 4867.67,957.33
         C4783.33,917.33 4684.67,920.67 4613,957.33
         C4541.33,994 4496.67,1064 4476.67,1130.67
         C4456.67,1197.33 4461.33,1260.67 4463.67,1329
         C4466,1397.33 4466,1470.67 4471,1521.33 C4476,1572 4486,1600 4496,1628" />
<path id="linie3-5" class="Rand2"
      d="M4514,1176 C4556.67,1170 4599.33,1164 4631.83,1164
         C4664.33,1164 4686.67,1170 4692,1213.67
         C4696.33,1257.33 4683.67,1338.67 4676.83,1393
         C4670,1447.33 4669,1474.67 4684.67,1489.67
         C4700.33,1504.67 4732.67,1507.33 4763.83,1504.83
         C4795,1502.33 4825,1494.67 4855,1487" />
<path id="linie3-6" class="Rand2"
      d="M4816,1334 C4819.33,1295.33 4822.67,1256.67 4832.33,1228
         C4842,1200.33 4858,1182.67 4894.67,1177.67
         C4931.33,1172.67 4988.67,1180.33 5046,1188" />
<path id="linie3-7" class="Rand2"
      d="M4454,1217 C4425.33,1209.67 4396.67,1202.33 4371,1177.33
         C4345.33,1152.33 4322.67,1109.67 4300,1067" />
<path id="linie3-8" class="Rand2" d="M4442,1384 L4360,1416" />
<path id="linie3-9" class="Rand2"
      d="M4482,1084 C4458.67,1067.33 4435.33,1050.67 4419.33,1025.67
         C4403.33,1000.67 4394.67,967.33 4393,935.67 C4391.33,904 4396.67,874 4402,844" />
<path id="linie3-10" class="Rand2"
      d="M4576,968 C4559.33,948 4542.67,928 4535.33,904.67
         C4528,881.33 4530,854.67 4534.33,823 C4538.67,791.33 4545.33,754.67 4552,718" />
<path id="linie3-11" class="Rand2"
      d="M4722,918 C4707.67,890.33 4693.33,862.67 4687.33,836
         C4681.33,809.33 4683.67,783.67 4689.83,755.17 C4696,726.67 4706,695.33 4716,664" />
<path id="linie3-12" class="Rand2"
      d="M4806,928 C4822.67,894.67 4839.33,861.33 4849.33,834
         C4859.33,806.67 4862.67,785.33 4863.67,762 C4864.67,738.67 4863.33,713.33 4862,688" />
<path id="linie3-13" class="Rand2"
      d="M4916,978 C4947,956.67 4978,935.33 4997.33,914.67
         C5016.67,894 5024.33,874 5030,849 C5036.67,824 5041.33,794 5046,764" />
<path id="linie3-14" class="Rand2"
      d="M5020,1094 C5058.67,1079 5097.33,1064 5120,1047.33
         C5142.67,1030.67 5149.33,1012.33 5157,987.17 C5164.67,962 5173.33,930 5182,898" />
<path id="linie3-15" class="Rand2"
      d="M5076,1198 C5117.33,1195.67 5158.67,1193.33 5196.33,1179.33
         C5234,1165.33 5268,1139.67 5302,1114" />
<path id="linie3-16" class="Rand2"
      d="M5102,1308 C5142.33,1327.67 5182.67,1347.33 5221,1353.33
         C5259.33,1359.33 5295.67,1351.67 5332,1344" />
<path id="linie3-17" class="Rand2"
      d="M5106,1438 C5131,1473.33 5156,1508.67 5183.67,1531.33
         C5211.33,1554 5241.67,1564 5266.83,1566.33 C5292,1568.67 5312,1563.33 5332,1558" />
<path id="linie3-18" class="Rand2"
      d="M5072,1614 C5103.33,1650.67 5134.67,1687.33 5174.83,1712
         C5215,1737.67 5264,1751.33 5313,1765" />
<path id="wasser1-1" class="Gold Rand2"
      d="M5310,4230 C5220,4230 5130,4230 5055,4260
         C4980,4290 4920,4350 4860,4500 C4800,4650 4740,4890 4740,5115
         C4740,5340 4800,5550 4785,5700 C4770,5850 4680,5940 4590,5985
         C4500,6030 4410,6030 4320,6030 L4050,5940
         C3930,5880 3810,5820 3660,5805 C3510,5790 3330,5820 3195,5865
         C3060,5910 2970,5970 2910,6000 C2850,6030 2820,6030 2790,6030
         L2790,6030 C2820,6000 2850,5970 2850,5940
         C2850,5910 2820,5880 2775,5865 C2730,5850 2670,5850 2625,5880
         C2580,5910 2550,5970 2550,6030 C2550,6090 2580,6150 2625,6180
         C2670,6210 2730,6210 2790,6210 L2970,6120
         C2820,6210 2670,6300 2550,6345 C2430,6390 2340,6390 2250,6360
         C2160,6330 2070,6270 1995,6240 C1920,6210 1860,6210 1815,6225
         C1770,6240 1740,6270 1710,6300 L1800,6300
         C1830,6300 1860,6300 1905,6330 C1950,6360 2010,6420 2100,6465
         C2190,6510 2310,6540 2445,6525 C2580,6510 2730,6450 2895,6360
         C3060,6270 3240,6150 3420,6120 C3600,6090 3780,6150 3960,6210
         L3600,6120 C3540,6120 3480,6120 3420,6135
         C3360,6150 3300,6180 3270,6225 C3240,6270 3240,6330 3270,6375
         C3300,6420 3360,6450 3405,6450 C3450,6450 3480,6420 3495,6390
         C3510,6360 3510,6330 3510,6300 L3420,6300
         C3450,6270 3480,6240 3600,6270 C3720,6300 3930,6390 4170,6435
         C4410,6480 4680,6480 4875,6390 C5070,6300 5190,6120 5235,5940
         C5280,5760 5250,5580 5205,5400 C5160,5220 5100,5040 5040,4860" />
<path id="wasser2-1" class="Gold Rand2"
      d="M5310,4320 C5250,4320 5190,4320 5130,4380
         C5070,4440 5010,4560 4995,4815 C4980,5070 5010,5460 4965,5700
         C4920,5940 4800,6030 4695,6075 C4590,6120 4500,6120 4425,6120
         C4350,6120 4290,6120 4290,6105 C4290,6090 4350,6060 4365,6015
         C4380,5970 4350,5910 4305,5880 C4260,5850 4200,5850 4155,5865
         C4110,5880 4080,5910 4065,5955 C4050,6000 4050,6060 4110,6135
         C4170,6210 4290,6300 4455,6315 C4620,6330 4830,6270 4965,6120
         C5100,5970 5160,5730 5175,5490 C5190,5250 5160,5010 5160,4830
         C5160,4650 5190,4530 5220,4470 C5250,4410 5280,4410 5310,4410" />
<path id="wlinie-1" class="Rand2"
      d="M2790,6210 C2970,6120 3150,6030 3300,5985
         C3450,5940 3570,5940 3675,5955 C3780,5970 3870,6000 3930,6030
         C3990,6060 4020,6090 4050,6120" />
</g>
<path id="clip-boundary" class="Rand6"
      d="M360,4140 A3240,3240 0.0 0 0 6840,4140 L6840,270 L360,270 L360,4140 Z" />
</g>
</svg>
