<?xml version="1.0" encoding="UTF-8"?>
<svg width="438" height="480" viewBox="21 15 438 480" xmlns="http://www.w3.org/2000/svg">
<defs>
<clipPath id="b">
<path d="m431 32.9h136v10.2h-136v-10.2"/>
</clipPath>
<clipPath id="a">
<path d="m521 17.7h45.8v10.2h-45.8v-10.2"/>
</clipPath>
</defs>
<g transform="matrix(1.25 0 0-1.25 944 1053)">
<g clip-path="url(#b)" font-family="Helvetica" font-size="8">
<text transform="matrix(1 0 0-1 530 35.8)"><tspan x="0" y="0">Seite</tspan></text>
<text transform="matrix(1 0 0-1 551 35.8)"><tspan x="0" y="0">1</tspan></text>
<text transform="matrix(1 0 0-1 558 35.8)"><tspan x="0" y="0">/</tspan></text>
<text transform="matrix(1 0 0-1 562 35.8)"><tspan x="0" y="0">3</tspan></text>
</g>
<g clip-path="url(#a)">
<text transform="matrix(1 0 0-1 526 20.6)" font-family="Helvetica" font-size="8"><tspan x="0" y="0">03.02.2016</tspan></text>
</g>
</g>
<g fill-rule="evenodd" stroke="#202020" stroke-miterlimit="10">
<path d="m24 276a216 216 0 0 0 432 0v-258h-432v258z" fill="#fcdd09" stroke-width="8"/>
<path d="m100 90v-24l6-6-12-24-12 24 6 6v24" fill="#fff" stroke-width="4"/>
</g>
<g stroke="#000">
<g stroke-linecap="round" stroke-linejoin="round" stroke-miterlimit="1.4">
<path d="m205 259l79 .8c6.7-4.5 36 44 38.7 72 .9 10.2-24.4 72-29.4 67l8.3 82.9c-45.7 13.7-91 12-136-3.4l10.7-23-3.5-1.8 10.2-21.9-2.7-1.8 10.2-18.5-2.4-1.2 10.8-20.9c-15.9-15-20-34-26-53 18-22.5 29-47.9 32-77z" fill="#0f47af" stroke-width="6"/>
<g stroke-width="4">
<path transform="translate(21 15)" d="m228 277c-2.4 0-4.7 1.1-4.7 2.9l-.5 11.6-6.5.3c-4.8-.7-5 9.2-.8 9l4.2.8.4 4.1c-10.2 10.9-21.3 20.7-37 23.8l-10.7 28.3c5.7 24.8 83.9 57.8 114-5.9-9.2-2.5-10.4-14.8-15.9-24.5-17 .3-26.7-11.5-37.7-21.8v-3.8l6.2-.3c5.5.2 5.9-8.9.2-9.1l-5.7-.7-.4-11c.1-2.7-2.3-3.8-4.7-3.8z" fill="#0f47af"/>
<g fill="none">
<path d="m192 411c41 20 100 15.2 110 9"/>
<path d="m181 430c29.5 11.4 56.7 24.8 118 9.2"/>
<path d="m176 455c30 10.4 61.8 19.4 123 6.8"/>
</g>
<path d="m150 296-21 33.5-23-24 3.3-76c-15.5-1.6-36-0.1-33.8 44 1.5 26-4 58 4.8 77.9l8.5-1.5c8.9 24 30.6 33 52.9 41.9 21-25.8 30.9-48.8 44.8-73-15.9-4.2-29-10.7-36-22.8z" fill="#0f47af"/>
<path d="m77 339l2.9 11.4c17.3-.6 33-5.4 43.7-26.5l-10.7-10.3c-3.6 15-14.8 24-36 25.4z" fill="#fcdd09"/>
</g>
<path d="m76 304 29.5 2.3" fill="#f2a772" stroke-width="6"/>
</g>
<path d="m107 446-1-91v-174l-14.3 2.9 1.8 251z" fill="#f00" fill-rule="evenodd" stroke-miterlimit="10" stroke-width="6"/>
<g fill="#0f47af" stroke-width="4">
<path d="m356 229c-16.5 10.4-39.7-31-2.1-35 14.6-1.6 29.4 18.6 43.9-.5l22.9 4.7c-15.9 19-40.5 20.6-59 13-14.6-5.9-20.8 9.7-5.5 18z" stroke-linecap="round" stroke-linejoin="round" stroke-miterlimit="1.4"/>
<path d="m425 148c-12.4-44-45.7-97-112-95-34.8-2.5-69 4.7-103 11.3-24.8 9-111 13-123 11 .1 38 1.4 90 2.1 128 64-6.1 133-26.9 190-43.8 80.9-37.7 118-32 146-12z" fill-rule="evenodd" stroke-miterlimit="10"/>
</g>
</g>
<g stroke-width="4">
<path d="m414 119c-55-31-128-15.9-171-3.2-.7 7.3 4.2 23.6 4.2 34 1.1 2-34 6.6-32.7 3.1.1-6.8 5.4-14.7 1.3-25-47.6 14.4-90 30.9-127 10.7v-32c14 16 49 12.2 67.8 9.6 22-4.3 36-6.5 57-14.9 2.9-12.5 2.7-24.4 3.5-36.6 0-2.1 19.3-4 24.6-6 .1 12.3 1.7 20.2-.5 33.4 50.6-14.4 114-17.8 157 1.5 5.9 8.3 13 16.4 15.3 25.6z" fill="#fcdd09" fill-rule="evenodd" stroke="#202020" stroke-miterlimit="10"/>
<path d="m401 135c43 1.1 40 86-15 67 24.7-17.4 36-38 15-67z" fill="#0f47af" stroke="#000" stroke-linecap="round" stroke-linejoin="round" stroke-miterlimit="1.4"/>
</g>
<g stroke="#000" stroke-linecap="round" stroke-linejoin="round" stroke-miterlimit="1.4">
<path d="m181 197c2-39.9 31-61.9 59.9-62 28.5.3 58 24.5 58 62 .1 27.6-27 61-55 62-29.9 1-66-15-64-63z" fill="#fff" stroke-width="6"/>
<path d="m240 225c-10 .3-20 1.4-30 .4-16.8-1.8-15.4-38-5.1-53 17.3-24 54-21.8 69 0 9.3 14 10 44.6-1.1 51-9.3 5-21.4 1.3-32 1.7z" stroke-width="2"/>
<g stroke-width="4">
<g fill="#0f47af">
<path d="m204 230l-9.6-.8-.3 23c-17.6-7.7-28.6 2.9-38 17.9-2.8 8-5.2 16.2-10.7 22.9 12.5 9.6 26 18.7 40.6 27l4.6-5.6c28.6 12.6 31-20.3 22.5-27.4 10.8-14.2-4.5-27.4-9-41z"/>
<path d="m225 227h28.5c9.2 8.8 28.3 14.2 39.5 17.9-7.1 31.4-76.8 41-89 .2z"/>
<path d="m284 229l9.6-.4 3.1 12.2 6.5 7c32 2 34.9 21 43.7 39 2.9 3.3 3.6 6.4 4.9 8.3 24.8 37 41 55 43.8 64 1.4 4.6-.3 8.7-2.7 10.8-2.5 2.2-49.6 51.6-60 57-3.1 1.6-29.5 11.6-28.5 6.2 1.4-7.9-2.4-25.6-12.4-36.9-4-4.5 23.5 3.3 23.3.1-.3-5.2 14.7-13.2 15.3-18.8 1.1-11 7.4-24.5 1.4-32.8-5.4-7.6-18.2-24.3-23-29.8l-6.8-6.2c-28.5 10.2-32.9-16.4-24-24.7l-8.8-15c13.5-14.3 14.6-25.9 15.4-40z"/>
</g>
<path d="m240 335l16.4.5-4.3 22.4 25.9-4.2-.4 18.3-23.9-5.8 4.2 24h-18.4l2.9-24-22 3.1.4-17.8 22 6.4z" fill="#fcdd09"/>
<path d="m356 360l39.9.9m-58 1.2c-21.5 5.3-3.1 26.9 10.9 15.3 2.4-1.9 4.4-8 4.4-8l27 13c5.3-5.2 10.4-9.5 16.4-20-5.5-8.5-9.4-18.3-17.4-25-.9-1.7-23.6 16.3-25.5 13.5-16-23.6-32.9 1.4-15.6 8 1 .4.8 2.9-.3 3.1z" fill="#0f47af"/>
<g fill="#fcdd09">
<path d="m309 314 9 8.3c13-12.5 21.3-16.2 31-23l-7.3-11.2c-11.4 8.3-22.3 17-33 26z"/>
<path d="m319 325 5.5 7.5c10.3-8.6 20.3-18 32-23.4l-7.5-9.9z"/>
<path d="m371 328c-8 5.6-15.9 10.6-23.9 13.5l5.7 10.7c8.7-4.6 17.9-8.3 24.7-16z"/>
<path d="m354 370c8.4 2.5 18.5 5.3 23 13.5l-7.8 8c-7.4-6.8-14-10.3-20.8-13z"/>
<path d="m295 241 8 8c-3.6 13.9-10.8 23.6-17.7 34.8-2.1-3.9-5.6-7.4-5.2-12 10.1-11.9 11-21 14.8-30.9z"/>
<path d="m185 249l7.3-7c4 11.8 8 23.6 16 35 .2 4.3-1.3 7-3.9 8.6-8.6-8.5-14.3-22.3-19.5-36.9z"/>
<path d="m215 237c21.5 23.5 43.7 15 53 1l9.9 4.9c-4.1 20-49 28-70 1z"/>
<path d="m293 311 9-3.4 18.7 20c-5.1 6.2-25 6.6-27.8-16.6z"/>
<path d="m191 314-15.6 26c14 3.6 23-3.4 29-19.8l-13.8-5.5"/>
<path d="m140 313c10.7 8.7 22.4 16.8 36 23.5l4.4-7-35-24.8z"/>
<path d="m150 297-5.9 7.7 35 24.6 5.7-9.5c-2.7-1.3-5.2-2.6-7.7-4-11-6.2-19.9-13-27-18.8z"/>
<path d="m131 331l8-1.1c12.8 10.2 21 24 20 36l-8.5 10.7c-.5-28.7-11.3-33-19.9-44.8"/>
<path d="m128 385c14.2-16.7 10.7-37.5.5-56 8 11.8 21.6 19 24 45l-11.4 17.3z"/>
</g>
<g fill="none">
<path d="m188 288l-3.7 5.9 3.3 6.2.4-4 2.6-6.6z"/>
<path d="m294 290l-.6-2.2 4-1.8c1.9 3.8 2.7 7.5.7 10.8-.3-2.8 1.1-6.3-4.2-6.8z"/>
<path d="m284 286-1.3 2.2z"/>
<path d="m214 404l3.5-.6-1.8 8z"/>
<path d="m205 418 1.1 11.6 3.5-3.3z"/>
<path d="m195 443c7.6 3.3 8.7 6.7 2.6 10.5 3.8-4 2.9-7.5-2.6-10.5z"/>
<path d="m190 465c2.1 3.5 2.9 7 .2 10.5 5.8-5.1 2.6-7.8-.2-10.5z"/>
</g>
<path d="m108 229c-36-8.5-49 54-.7 56.8z" fill="#0f47af"/>
<path d="m93 242l16-.2c-1.4-3.4-.7-8.6-.7-13.4 2.6-1.1 5.9-1.7 10 1.3-.4 5.9-2.9 9.2-6.8 12.2 1.9 1 2.6 10.4-.2 10.9 3.3 3.8 2 9.5.3 10.3 3 1.5 2 10.9.7 10 2.2 1.3.6 9.6-1.7 9.9l-12.5-.6c-4.8-1.2-5.6-8.8-3.7-9.6-2.3-1.3-4.1-6.8-2.8-9-.6-4.2-4.8-7.8.9-11.9-2.6-1.2-2.4-9.9.2-10z" fill="#f2a772"/>
<g fill="none">
<path d="m93 252l18.9.5"/>
<path d="m92 263l20 .2"/>
<path d="m95 272l18 .5"/>
</g>
<path d="m290 454 11 27.6 28.5-10.8-12.7-29z" fill="#fff"/>
<path d="m293 460l15.3.6 11.9-9.6" fill="none"/>
<path d="m308 461 6 16" fill="#fcdd09"/>
<path d="m285 444c-5.2-.5-9.9-9.2-2.9-10.8-8.7.1-7.7-7.5-2.8-9-7.7-.1-9-7.3-3.1-10-8.9-.4-5-10.3-2-12.5l15.4-2.6c11-1.2 15.6 34 12.5 36-3.6 5-10.9 6.2-17 8.6z" fill="#f2a772"/>
<g fill="#fcdd09">
<path d="m275 402c-18-23.9 25.5-32.7 16.9-3.7z"/>
<path d="m275 414 13.5-3.2"/>
<path d="m278 424 13.9-2.7"/>
<path d="m281 433 11.8-2.3"/>
<path d="m264 461c15.6-8.6-7.9-24-9.4-2.9-.8 10.6 8.5 21 22 8.6 4.1-3.8 33.6-30 61-25 8.8 1.6 14.5-10.5 9.6-18-7.9-12.3-22 2.5-8.3 7.2-.8 7.3-18-3.3-25 1.1-9.9 6.1-22.5 10.1-33 16-3.1 1.7-12.3 21.8-16.7 13.4z"/>
</g>
<g fill="none">
<path d="m303 397c4.8 10.6 11.1 15 10.2 32.8"/>
<path d="m312 398c5 8.3 8.6 13.2 9.9 30.5"/>
<path d="m316 397c6.9 5 11.8 8.6 17.6 23.8"/>
</g>
<path d="m215 185c1.3-10 42.8-4.8 47-.1 3.4 3.7 2.9 22 2.2 24-7.3 44.8-39.9 38.5-50 3.8-2.4-5.9 0-20 1-27.7z" fill="#f2a772"/>
</g>
<g stroke-width=".5">
<path d="m238 234c1.7 2 3.7 1.6 4.9-.4-.8-1.6-5.5-4.9-4.9.4z"/>
<path d="m232 230c-.5-2 5.1-.6 8.5-1.1 3.3-.1 5.6.7 8.9 0 3.4.6-.4-2.2-.9-3-3.5.2-11.5.4-13 .1-3.3-.6-4.5-.5-5.7.4-.4 3.6.7 3.9 2.2 3.6z"/>
<path d="m234 215c-.9 9.3 14.9 8.3 12.7.2-6.3 5.9-9.8 2.2-12.7-.2z"/>
<path d="m215 197l-.1 5.6c0 2.1 4.9-2.8 6.2-1.2 3.9 4.7 6.8 4 8.7-1.3.4-1.1 2.6-.4 3.5.4 2.7 2.3 0 8.2 2.9 10.4.4.3 1.5.5 1.4 0-.5-3.2 1.4-10.6 0-14.8-.5-1.4-2.6-1.6-4-1.9-2.7-.6-5.6-.7-8.3-.1-1.8.4-3.3 1.8-5.1 2.3-1.7.5-5.1-.9-5.1.7z"/>
<path d="m246 210c.3-2.7-1-6.3.1-8.8.6-1.3 3.4-3.5 3.8-2.1 2.2 7.8 6.1 5.6 9 1.3 1-1.5 4.6 4.5 4.5 2.7l-.1-7.3c-9.7-.3-20.4-4.9-19.9 3.8-.5 2.9-.3 8.3.1 11.2.1 1.1 1.9-.1 2.4-.8z"/>
</g>
</g>
<g fill="#fcdd09">
<path d="m274 193c-3.1 4.8-6.6 9.9-6.6 12.9-1 3.9 1.4 3.7 3.2 1.9 3.5-4 3.3-9.5 3.4-14.8"/>
<path d="m258 165c2.4 5 4.6 9.9 3.2 12.9-.8 4.6 5.3 3.1 4.5.8 1-6.6-2.6-10.5-7.8-13.6"/>
<path d="m241 159c3.2 4.2 2.3 9.2 2.6 14 1.1 4.1 6 1.8 5.2 0 1.8-9-2.8-11.8-7.8-14"/>
<path d="m228 159c-4.1 5-9.9 9-9.7 15.7-.1 5.4 5.1 2.8 5.1 1.4 1.4-5.3 3.8-7.8 4.7-17"/>
<path d="m207 174c-2.9 3.5-6.4 11.9-.5 17.5.2 1.4 6.5 4 4.3-1.6-1.8-3.8-2.9-9.4-3.8-16"/>
<path d="m202 199c3.2 4.9 7.1 9.6 10.3 10.4 3 3.3 2.4 4.9-3 4.4-8.1-3.2-6.5-9.7-7.3-14.8"/>
</g>
<g fill="none" stroke="#000" stroke-linecap="round" stroke-linejoin="round" stroke-miterlimit="1.4" stroke-width="4">
<path d="m266 473c1.8 4.8 3.9 8.3 4.2 14.3"/>
<path d="m259 470c1.7 6.6 1.3 12.9.7 20"/>
<path d="m249 469c1.5 7.4 2.2 15 1.8 22.8"/>
<path d="m240 469c-.6 7.5-1.3 14.9 1.2 22.4"/>
<path d="m233 468c-1.4 8.2-2.8 16.3-1.9 22.5"/>
<path d="m231 469c-5.3 6.9-8.2 14.5-9.2 22.5"/>
</g>
</svg>
