<?xml version="1.0" encoding="UTF-8"?>
<svg width="438" height="480" version="1.1" viewBox="21 15 438 480" xmlns="http://www.w3.org/2000/svg" xmlns:cc="http://creativecommons.org/ns#" xmlns:dc="http://purl.org/dc/elements/1.1/" xmlns:rdf="http://www.w3.org/1999/02/22-rdf-syntax-ns#" xmlns:xlink="http://www.w3.org/1999/xlink">
<metadata>
<rdf:RDF>
<rdf:Description dc:date="2006-11-10" dc:format="image/svg+xml" dc:language="de" dc:title="Wappen Kreis Bergell (CH-GR)">
<dc:creator rdf:resource="http://de.wikipedia.org/wiki/Benutzer:Bernina"/>
</rdf:Description>
<cc:Work rdf:about="">
<dc:format>image/svg+xml</dc:format>
<dc:type rdf:resource="http://purl.org/dc/dcmitype/StillImage"/>
<dc:title>Wappen Kreis Bergell (CH-GR)</dc:title>
</cc:Work>
</rdf:RDF>
</metadata>
<title>Wappen Kreis Bergell (CH-GR)</title>
<defs>
<path id="m" d="m4416.9 896.82a150 150 15 0 0-289.8-77.64 150 150 15 0 0 289.8 77.64z"/>
<path id="l" d="m4932.9 904.82a150 150 15 0 0-289.8-77.64 150 150 15 0 0 289.8 77.64z"/>
<path id="k" d="m5472.9 1016.8a150 150 15 0 0-289.8-77.62 150 150 15 0 0 289.8 77.62z"/>
<path id="j" d="m5976.9 1302.8a150 150 15 0 0-289.8-77.6 150 150 15 0 0 289.8 77.6z"/>
<path id="i" d="m4050 990c-30-60-60-120-60-180s30-120 30-150-30-30-60-15-60 45-75 105-15 150-15 240"/>
<path id="h" d="m4050 1080h270c150 0 390 0 630 30s480 90 660 180 300 210 375 315 105 195 105 255-30 90-30 105 30 15 60-15 60-90 60-165-30-165-90-270-150-225-285-330-315-195-495-255-360-90-540-105-360-15-480 0-180 45-240 75"/>
<path id="n" d="m4140 1170c0-120 0-240-30-300s-90-60-180-30-210 90-300 105-150-15-195-15-75 30-105 45-60 15-75 45-15 90 15 120 90 30 135 45 75 45 90 90 15 105-30 120-135-15-195-15-90 30-60 60 120 60 150 105 0 105-30 135-60 30-105 15-105-45-120-30 15 75 60 105 105 30 150 15 75-45 105-90 60-105 90-135 60-30 90 0 60 90 105 120 105 30 150 15 75-45 105-75"/>
<path id="g" d="m4050 1440c60 90 120 180 210 225s210 45 255 30 15-45-15-90-60-105-120-150-150-75-240-105"/>
<path id="f" d="m4448 3645c-8-30-23-60-38-75s-30-15-60-68c-30-52-75-157-142-210-68-52-158-52-218-52s-90 0-120 15-60 45-75 75-15 60 15 60 90-30 150-30 120 30 135 90-15 150-15 225 30 135 75 180 105 75 157 53c53-23 98-98 120-150 23-53 23-83 16-113z"/>
<path id="e" d="m5554 1676a150 150 0 0 0-300 0 150 150 0 0 0 300 0z"/>
<path id="d" d="m5118 1406a150 150 0 0 0-300 0 150 150 0 0 0 300 0z"/>
<path id="c" d="m4616 1204a150 150 0 0 0-300 0 150 150 0 0 0 300 0z"/>
<path id="b" d="m5914 2052a150 150 0 0 0-300 0 150 150 0 0 0 300 0z"/>
<path id="a" d="m4050 1350c120 0 240 0 405 45s375 135 540 225 285 180 405 285 240 225 315 330 105 195 105 270-30 135-30 165 30 30 60-15 60-135 60-255-30-270-150-435-330-345-555-480-465-225-660-285-345-90-495-120"/>
<clipPath id="o">
<path d="m360 4140a3240 3240 0 0 0 6480 0v-3870h-6480v3870z"/>
</clipPath>
<style type="text/css">.Rand0 { stroke: #202020; stroke-width:5; }
  .Rand1 { stroke: #202020; stroke-width:15; }
  .Rand2 { stroke: #202020; stroke-width:30; }
  .Rand4 { stroke: #202020; stroke-width:60; }
  .Rand6 { stroke: #202020; stroke-width:90; }
  .Rand1Hell { stroke: #ffffff; stroke-width:15; }
  .Rand4Hell { stroke: #ffffff; stroke-width:60; }
  .Rand6Hell { stroke: #ffffff; stroke-width:90; }
  .Schwarz { fill: #000000; }
  .Rot { fill: #ff0000; }
  .Silber { fill: #ffffff; }</style>
</defs>
<g transform="scale(.066667)" fill="none" fill-rule="evenodd" stroke-miterlimit="10" stroke-width="10">
<g clip-path="url(#o)">
<path class="Silber" d="m-225-225v7650h7650v-7650h-7650z"/>
<path class="Schwarz" d="m3150 6300v-900h-900v900h-900v-900h-900v900h-675v1125h7650v-1125h-675v-900h-900v900h-900v-900h-900v900h-900z"/>
<path class="Schwarz Rand2" d="m3060 2340c-90-150-180-300-240-375s-90-75-120-120-60-135-120-195-150-90-225-135-135-105-195-180-120-165-180-210-120-45-150-60-30-45-45-75-45-60-105-90-150-60-195-75-45-15-45 0v75c0 30 0 60-15 60s-45-30-60-30-15 30 15 90 90 150 135 195 75 45 120 30 105-45 150-45 75 30 90 60 15 60 0 75-45 15-60 45-15 90 15 105 90-15 150-15 120 30 210 120 210 240 300 390 150 300 210 405 120 165 180 225"/>
<path class="Schwarz Rand2" d="m4230 3420c-60-45-120-90-300-90s-480 45-660 120-240 180-270 262c-30 83-30 143 0 188s90 75 105 120-15 105-113 158c-97 52-262 97-404 134-143 38-263 68-323 98s-60 60-75 90-45 60-60 90-15 60-30 75-45 15-75 15-60 0-90 30-60 90-90 135-60 75-75 105-15 60 15 90 90 60 135 75 75 15 135-15 150-90 180-135 0-75-15-120-15-105 0-150 45-75 75-60 60 75 90 105 60 30 75 0 15-90 30-120 45-30 158-75c112-45 307-135 427-180s165-45 225-60 135-45 180-75 60-60 52-82c-7-23-37-38-67-53s-60-30-75-67c-15-38-15-98 22-158 38-60 113-120 210-165 98-45 218-75 308-97 90-23 150-38 202-53 53-15 98-30 143-45"/>
<path class="Rand4Hell" d="m4230 1080c0 120 0 240-15 345s-45 195-45 285 30 180 0 195-120-45-135-15 45 150 30 180-105-30-120 0 45 150 30 180-105-30-120 0 45 150 45 195-60 15-90 15-30 30-15 60 45 60 120 120 195 150 315 225 240 135 360 240 240 255 345 405 195 300 270 375 135 75 165 53c30-23 30-68 52-83 23-15 68 0 113 60s90 165 157 270c68 105 158 210 233 277 75 68 135 98 165 128s30 60 22 82c-7 23-22 38-39 40s-36-9-59 14c-22 22-48 78-61 121s-13 73 2 103 45 60 75 90c-30 60-60 120-120 165s-150 75-225 60-135-75-165-105-30-30-15-45 45-45 75-90 60-105 90-120 60 15 90 0 60-75 75-120 15-75 7-113c-7-37-22-82-97-172s-210-225-323-278c-112-52-202-22-270-44-67-23-112-98-164-136-53-37-113-37-196-60-82-22-187-67-277-180-90-112-165-292-225-397s-105-135-188-150c-82-15-202-15-322-15s-240 0-315-60-105-180-135-300h-270l-270-90c0-90 0-180 15-270s45-180 105-270 150-180 225-210 135 0 180-15 75-75 120-105 105-30 150-60 75-90 90-135 15-75 15-150v-315"/>
<path class="Schwarz Rand2" d="m4230 1080c0 120 0 240-15 345s-45 195-45 285 30 180 0 195-120-45-135-15 45 150 30 180-105-30-120 0 45 150 30 180-105-30-120 0 45 150 45 195-60 15-90 15-30 30-15 60 45 60 120 120 195 150 315 225 240 135 360 240 240 255 345 405 195 300 270 375 135 75 165 53c30-23 30-68 52-83 23-15 68 0 113 60s90 165 157 270c68 105 158 210 233 277 75 68 135 98 165 128s30 60 22 82c-7 23-22 38-39 40s-36-9-59 14c-22 22-48 78-61 121s-13 73 2 103 45 60 75 90c-30 60-60 120-120 165s-150 75-225 60-135-75-165-105-30-30-15-45 45-45 75-90 60-105 90-120 60 15 90 0 60-75 75-120 15-75 7-113c-7-37-22-82-97-172s-210-225-323-278c-112-52-202-22-270-44-67-23-112-98-164-136-53-37-113-37-196-60-82-22-187-67-277-180-90-112-165-292-225-397s-105-135-188-150c-82-15-202-15-322-15s-240 0-315-60-105-180-135-300h-270l-270-90c0-90 0-180 15-270s45-180 105-270 150-180 225-210 135 0 180-15 75-75 120-105 105-30 150-60 75-90 90-135 15-75 15-150v-315"/>
<path class="Rot Rand1" d="m3468 1376c-74.7-30-149.3-60-217.3-64.3-68-4.4-129.4 17-190-2.4-60.7-19.3-120.7-79.3-120.7-139.3s60-120 90-135 30 15 30 60 0 105 20.7 132c20.6 27 62 21 101.3 20.3 39.3-0.6 76.7 4 113 16.4 36.3 12.3 71.7 32.3 100.2 50.6 28.5 18.4 50.1 35 71.8 51.7"/>
<path class="Rand4Hell" d="m3150 2700s-67.3-16.3-151.7-34c-84.5-17.8-137.1-26-178.3-26s-79.4 7.2-115.8 15c-36.5 7.8-66.2 15-94.2 15s-57.7-7.2-92.1-17.1c-34.3-9.9-68.5-21-102.9-27.9s-75.7-10.8-115.8-8.8c-40.2 2.1-73.6 10-94.2 23.8s-32.5 36-45 62.1c-12.5 26-24.4 52.3-45 72.9s-54 39.7-94.2 55.8c-40.1 16.2-81.4 27.3-115.8 34.2s-68.6 10.8-105 19.2c-36.4 8.3-70.6 20.2-105 40.8s-75.7 54-117.9 87.9-79.1 63.3-107.1 77.1-50.5 14.5-68.8 12.9c-18.2-1.6-29.3-4.8-36.2 2.1s-10.8 25.2-19.2 51.2c-8.3 26.1-20.2 55.8-40.8 83.8s-54 57.7-87.9 85.8c-33.9 28.2-63.3 50.4-77.1 64.2s-14.5 21.7-6.7 25.8c7.8 4.2 22.9 4.2 36.7 4.2s25.6-4.6 39.2-13.2 35.8-16.8 50.8 13.2 11.8 73.4 15.9 92.2 16.1 27.8 44.1 27.8 72.1-14.4 122.1-36.2c50-21.9 98.5-48.2 132.9-68.8s61.4-39.7 79.6-57.9 25.4-33.3 25.4-47.1-7.2-28.9-17.1-45-21-31.2-27.9-45-10.8-28.9-8.8-45c2.1-16.1 10-31.2 23.8-45s36-28.9 62.1-38.8c26-9.9 52.3-13.1 72.9-6.2s39.7 25.2 57.9 47.1 33.3 44.1 47.1 57.9 28.9 21.7 45 19.6 31.2-14 45-34.6 28.9-54 49.2-94.2c20.3-40.1 42.8-81.4 70.8-115.8s64.9-68.6 109.2-98.8c44.2-30.2 89.6-52.4 130.8-66.2s86.6-21.7 141.2-17.5c54.7 4.1 111.9 19.5 173.8 47.5s140.6 72.1 222.9 120 157.1 92 212.1 120 101.1 43.4 139.6 47.5c38.5 4.2 64.8-3.7 85.4-17.5s38.8-36.7 63.2-76.7 41.8-73.3 41.8-73.3"/>
<path class="Schwarz Rand2" d="m3150 2700s-67.3-16.3-151.7-34c-84.5-17.8-137.1-26-178.3-26s-79.4 7.2-115.8 15c-36.5 7.8-66.2 15-94.2 15s-57.7-7.2-92.1-17.1c-34.3-9.9-68.5-21-102.9-27.9s-75.7-10.8-115.8-8.8c-40.2 2.1-73.6 10-94.2 23.8s-32.5 36-45 62.1c-12.5 26-24.4 52.3-45 72.9s-54 39.7-94.2 55.8c-40.1 16.2-81.4 27.3-115.8 34.2s-68.6 10.8-105 19.2c-36.4 8.3-70.6 20.2-105 40.8s-75.7 54-117.9 87.9-79.1 63.3-107.1 77.1-50.5 14.5-68.8 12.9c-18.2-1.6-29.3-4.8-36.2 2.1s-10.8 25.2-19.2 51.2c-8.3 26.1-20.2 55.8-40.8 83.8s-54 57.7-87.9 85.8c-33.9 28.2-63.3 50.4-77.1 64.2s-14.5 21.7-6.7 25.8c7.8 4.2 22.9 4.2 36.7 4.2s25.6-4.6 39.2-13.2 35.8-16.8 50.8 13.2 11.8 73.4 15.9 92.2 16.1 27.8 44.1 27.8 72.1-14.4 122.1-36.2c50-21.9 98.5-48.2 132.9-68.8s61.4-39.7 79.6-57.9 25.4-33.3 25.4-47.1-7.2-28.9-17.1-45-21-31.2-27.9-45-10.8-28.9-8.8-45c2.1-16.1 10-31.2 23.8-45s36-28.9 62.1-38.8c26-9.9 52.3-13.1 72.9-6.2s39.7 25.2 57.9 47.1 33.3 44.1 47.1 57.9 28.9 21.7 45 19.6 31.2-14 45-34.6 28.9-54 49.2-94.2c20.3-40.1 42.8-81.4 70.8-115.8s64.9-68.6 109.2-98.8c44.2-30.2 89.6-52.4 130.8-66.2s86.6-21.7 141.2-17.5c54.7 4.1 111.9 19.5 173.8 47.5s140.6 72.1 222.9 120 157.1 92 212.1 120 101.1 43.4 139.6 47.5c38.5 4.2 64.8-3.7 85.4-17.5s38.8-36.7 63.2-76.7 41.8-73.3 41.8-73.3"/>
<path class="Schwarz Rand2" d="m4590 3330c90-60 180-120 270-150s180-30 240-15 90 45 90 90-30 105-30 120 30-15 60-45 60-60 90-45 60 75 105 105 105 30 150 30 75 0 60-15-75-45-105-75-30-60 0-75 90-15 135-45 75-90 90-135 15-75 0-75-45 30-75 45-60 15-60-15 30-90 0-135-120-75-150-75 0 30 15 75 15 105-15 135-90 30-150 15-120-45-210-45-210 30-300 75-150 105-210 165"/>
<path class="Rand6Hell" d="m4140 1170c0-120 0-240-30-300s-90-60-180-30-210 90-300 105-150-15-195-15-75 30-105 45-60 15-75 45-15 90 15 120 90 30 135 45 75 45 90 90 15 105-30 120-135-15-195-15-90 30-60 60 120 60 150 105 0 105-30 135-60 30-105 15-105-45-120-30 15 75 60 105 105 30 150 15 75-45 105-90 60-105 90-135 60-30 90 0 60 90 105 120 105 30 150 15 75-45 105-75"/>
<use class="Rand4" xlink:href="#m"/>
<use class="Rand4" xlink:href="#l"/>
<use class="Rand4" xlink:href="#k"/>
<use class="Rand4" xlink:href="#j"/>
<use class="Rand4" xlink:href="#i"/>
<use class="Rand4" xlink:href="#h"/>
<use class="Rand4" xlink:href="#n"/>
<use class="Schwarz" xlink:href="#m"/>
<use class="Schwarz" xlink:href="#l"/>
<use class="Schwarz" xlink:href="#k"/>
<use class="Schwarz" xlink:href="#j"/>
<use class="Schwarz" xlink:href="#i"/>
<use class="Schwarz" xlink:href="#h"/>
<use class="Schwarz" xlink:href="#n"/>
<use class="Rand4Hell" xlink:href="#g"/>
<use class="Schwarz Rand2" xlink:href="#g"/>
<use class="Rand4Hell" xlink:href="#f"/>
<use class="Schwarz Rand2" xlink:href="#f"/>
<path class="Rot Rand0" d="m3962.7 3323c12.3-8 27.3-23 25-34.3-2.4-11.4-22-19-47.7-18.5-26.7 0.5-59.3 9.1-86.8 29.8-27.5 21.7-49.9 55.3-36 62.8 13.8 7.5 63.8-11.1 93.6-21 29.9-9.8 39.5-10.8 51.9-18.8z"/>
<use class="Rand6Hell" xlink:href="#e"/>
<use class="Rand6Hell" xlink:href="#d"/>
<use class="Rand6Hell" xlink:href="#c"/>
<use class="Rand6Hell" xlink:href="#b"/>
<use class="Rand6Hell" xlink:href="#a"/>
<use class="Rand4" xlink:href="#e"/>
<use class="Rand4" xlink:href="#d"/>
<use class="Rand4" xlink:href="#c"/>
<use class="Rand4" xlink:href="#b"/>
<use class="Rand4" xlink:href="#a"/>
<use class="Schwarz" xlink:href="#e"/>
<use class="Schwarz" xlink:href="#d"/>
<use class="Schwarz" xlink:href="#c"/>
<use class="Schwarz" xlink:href="#b"/>
<use class="Schwarz" xlink:href="#a"/>
<path class="Rand1Hell" d="m1436 954c37.3 30 74.7 60 111 77.3 36.3 17.4 71.7 22 107 26.7"/>
<path class="Rand1Hell" d="m1260 3420c31.3-17.3 62.7-34.7 92.7-64.7s58.6-72.6 87.3-115.3"/>
<path class="Rand1Hell" d="m5568 5174c55.3-32.7 110.7-65.3 148.3-97.7 37.7-32.3 57.7-64.3 77.7-96.3"/>
<path class="Rand1Hell" d="m1879 5076c30-64.7 60-129.3 81.3-169.3 21.4-40 34-55.4 46.7-70.7"/>
<path class="Silber Rand2" d="m3988.1 1150.5a172 106 15 0 0-332.2-89 172 106 15 0 0 332.2 89z"/>
<path class="Schwarz" d="m3901.4 1087.7a76 76 15 0 0-146.8-39.4 76 76 15 0 0 146.8 39.4z"/>
<path class="Rand2" d="m7425 6300h-675v-900h-900v900h-900v-900h-900v900h-900v-900h-900v900h-900v-900h-900v900h-675"/>
</g>
<path class="Rand6" d="m360 4140a3240 3240 0 0 0 6480 0v-3870h-6480v3870z"/>
</g>
</svg>
