<?xml version="1.0" encoding="UTF-8"?>
<!DOCTYPE svg  PUBLIC '-//W3C//DTD SVG 1.1//EN'  'http://www.w3.org/Graphics/SVG/1.1/DTD/svg11.dtd'>
<svg width="438" height="480" viewBox="21 15 438 480" xmlns="http://www.w3.org/2000/svg">
<metadata>
<rdf:RDF xmlns:dc="http://purl.org/dc/elements/1.1/" xmlns:rdf="http://www.w3.org/1999/02/22-rdf-syntax-ns#">
<rdf:Description dc:date="2006-12-22" dc:format="image/svg+xml" dc:language="de" dc:title="Wappen Soazza (CH-GR)">
<dc:creator rdf:resource="http://de.wikipedia.org/wiki/Benutzer:Bernina"/>
</rdf:Description>
</rdf:RDF>
</metadata>
<title>Wappen Soazza (CH-GR)</title>
<defs>
<clipPath id="a">
<path d="m360 4140a3240 3240 0 0 0 6480 0v-3870h-6480v3870z"/>
</clipPath>
<style type="text/css"><![CDATA[
  .Rand1 { stroke: #202020; stroke-width:15; }
  .Rand2 { stroke: #202020; stroke-width:30; }
  .Rand6 { stroke: #202020; stroke-width:90; }
  .Gold3 { stroke: #ffef00; stroke-width:45; }
  .Schwarz { fill: #000000; }
  .Blau { fill: #0000ff; }
  .Rot { fill: #ff0000; }
  .Gold { fill: #ffef00; }
  .Silber { fill: #ffffff; }
  .Fleisch { fill: #f7c3b8; }
  ]]></style>
</defs>
<g transform="scale(.066667)" fill="none" fill-rule="evenodd" stroke-miterlimit="10" stroke-width="10">
<g clip-path="url(#a)">
<path class="Gold" d="m-225-225v7650h7650v-7650h-7650z"/>
<path class="Silber Rand2" d="m4050 1170a630 630 0 0 0-1260 0 630 630 0 0 0 1260 0z"/>
<path class="Silber Rand2" d="m1350 5850c30 60 60 120 90 165s60 75 75 75 15-30 30-90 45-150 60-225 15-135-15-165-90-30-150-30"/>
<path class="Silber Rand2" d="m1710 6120c0 30 0 60-15 105s-45 105-45 150 30 75 105 75 195-30 255-60 60-60 45-105-45-105-75-165"/>
<path class="Silber Rand2" d="m3150 5580c0 60 0 120 15 195s45 165 75 195 60 0 105-45 105-105 135-150 30-75 15-105-45-60-75-90"/>
<path class="Silber Rand2" d="m4320 6210c-60-30-120-60-165-15s-75 165-75 225 30 60 75 60 105 0 165-15 120-45 150-75 30-60 15-90-45-60-75-90"/>
<path class="Schwarz Rand2" d="m3780 4320c30 120 60 240 105 345s105 195 105 240-60 45-195 120-345 225-465 330-150 165-165 225-15 120 45 120 180-60 225-105 15-75 30-105 75-60 120-45 75 75 105 90 60-15 75-60 15-105 120-180 315-165 405-270 60-225 30-345"/>
<path class="Schwarz Rand2" d="m1800 4320c30 210 60 420 90 540s60 150 60 195-30 105-30 165 30 120 45 210 15 210 0 300-45 150-90 210-105 120-135 165-30 75 30 90 180 15 240-15 60-90 75-120 45-30 75-30 60 0 75-15 15-45 15-105v-225-240c0-105 0-255 15-450s45-435 75-675"/>
<path class="Gold3" d="m4770 5850c30-180 60-360 75-495s15-225 0-270-45-45-75-90-60-135-45-225 75-180 135-300 120-270 150-390 30-210 15-300-45-180-105-255-150-135-285-180-315-75-600-90-675-15-915-30-330-45-390-105-90-150-165-285-195-315-315-465-240-270-345-345-195-105-285-135"/>
<path class="Gold3" d="m1530 2880c30 60 60 120 75 210s15 210 0 390-45 420-15 600 120 300 202 390c83 90 158 150 203 150s60-60 75-82c15-23 30-8 75 7s120 30 247 53c128 22 308 52 503 52s405-30 600-75 375-105 480-75 135 150 195 225 150 105 210 180 90 195 120 300 60 195 75 285 15 180 15 270"/>
<path class="Schwarz Rand2" d="m2342 2694c60-30 120-60 165-45s75 75 60 120-75 75-135 105"/>
<path class="Schwarz Rand2" d="m2214 2492c60-30 120-60 165-45s75 75 60 120-75 75-135 105"/>
<path class="Schwarz Rand2" d="m2072 2290c60-30 120-60 165-45s75 75 60 120-75 75-135 105"/>
<path class="Schwarz Rand2" d="m1884 2140c60-30 120-60 165-60s75 30 75 75-30 105-60 165"/>
<path class="Schwarz Rand2" d="m1720 1990c60-30 120-60 165-60s75 30 75 75-30 105-60 165"/>
<path class="Rot Rand2" d="m3870 2880c-60-120-120-240-165-390s-75-330-90-435-15-135 45-150 180-15 255-15 105 0 135 90 60 270 135 450 195 360 315 540"/>
<path class="Fleisch Rand2" d="m3510 1710c-30-120-60-240-90-315s-60-105-120-45-150 210-240 360"/>
<path class="Schwarz Rand2" d="m1350 1980v360h360v-360h-360z"/>
<path class="Schwarz Rand2" d="m1530 2070v-165c0-45 0-75 15-135s45-150 30-165-75 45-120 105-75 120-105 180"/>
<path class="Schwarz Rand2" d="m1620 1890c90 30 180 60 285 135s225 195 345 345 240 330 315 465 105 225 165 285 150 90 390 105 630 15 915 30 465 45 593 90c127 45 202 105 254 157 53 53 83 98 98 128s15 45 38 38c22-8 67-38 150-38 82 0 202 30 262 120s60 240 0 345-180 165-225 240-15 165 0 225 15 90-15 120-90 60-135 60-75-30-90-75-15-105 0-150 45-75 60-120 15-105 45-180 90-165 105-255-15-180-53-210c-37-30-82 0-97 22-15 23 0 38 7 83 8 45 8 120-22 233-30 112-90 262-150 382s-120 210-135 300 15 180 45 225 60 45 75 90 15 135 0 270-45 315-60 450-15 225-30 285-45 90-75 90-60-30-90-45-60-15-75 15-15 90-60 105-135-15-180-45-45-60-30-75 45-15 105-75 150-180 195-285 45-195 30-285-45-180-75-285-60-225-120-300-150-105-210-180-90-195-195-225-285 30-480 75-405 75-600 75-375-30-503-52c-127-23-202-38-247-53s-60-30-75-7c-15 22-30 82-120 127s-255 75-368 105c-112 30-172 60-202 120s-30 150 0 225 90 135 105 180-15 75-45 90-60 15-75 30-15 45 0 75 45 60 75 75 60 15 45 75-75 180-120 240-75 60-120 0-105-180-120-315 15-285 0-405-75-210-90-285 15-135 75-180 150-75 225-135 135-150 187-202c53-53 98-68 113-83s0-30-15-53c-15-22-30-52-38-112-7-60-7-150 0-270 8-120 23-270 30-405 8-135 8-255-7-345s-45-150-75-210"/>
<path class="Schwarz Rand2" d="m5070 4395c60 15 150 15 195-15s45-90 0-120-135-30-195-15-90 45-90 75 30 60 90 75z"/>
<path class="Gold3" d="m1260 1980c-30 60-60 120-105 180s-105 120-135 195-30 165-60 255-90 180-120 240-30 90-45 120-45 60-30 120 75 150 135 150 120-90 165-120 75 0 60 60-75 150-75 195 60 45 105 15 75-90 90-150 15-120 45-165 90-75 150-120 120-105 180-165 120-120 135-165-15-75-45-105"/>
<path class="Schwarz Rand2" d="m1350 1980c-30 0-60 0-90 30s-60 90-105 150-105 120-135 195-30 165-60 255-90 180-120 240-30 90-45 120-45 60-30 120 75 150 135 150 120-90 165-120 75 0 60 60-75 150-75 195 60 45 105 15 75-90 90-150 15-120 45-165 90-75 150-120 120-105 180-165 120-120 135-195-15-165-45-255"/>
<path class="Schwarz Rand2" d="m1710 2070c0-60 0-120 15-180s45-120 60-165 15-75-15-75-90 30-135 75-75 105-90 150-15 75-15 105"/>
<path class="Schwarz Rand2" d="m1620 1890h-180c-60 0-120 0-165 15s-75 45-105 75-60 60-75 90-15 60 0 60 45-30 75-45 60-15 90 0 60 45 90 75"/>
<path class="Schwarz Rand2" d="m3600 1170c60 0 120 0 150-30s30-90 0-150-90-120-150-165-120-75-195-45-165 120-210 210-45 180-75 195-90-45-120-45-30 60-15 105 45 75 90 105 105 60 150 60 75-30 105-60"/>
<path class="Silber Rand1" d="m1460.9 2303.2a150 90-15 0 0-289.78 77.64 150 90-15 0 0 289.78-77.64z"/>
<path class="Rot Rand2" d="m1260 2970c180-300 360-600 450-765s90-195 75-210-45-15-150 150-285 495-465 825"/>
<path class="Rot Rand2" d="m1215 2145c45 15 135 15 210 45s135 90 180 105 75-15 60-60-75-105-165-135-210-30-270-15-60 45-15 60z"/>
<path class="Rot Rand2" d="m1170 2970v255c0 75 0 135 15 180s45 75 120 75 195-30 345-75 330-105 510-180 360-165 525-270 315-225 375-300 30-105-60-45-240 210-405 315-345 165-525 210-360 75-480 90-180 15-225 15-75 0-90-45-15-135-15-225"/>
<path class="Rot Rand2" d="m2610 3690c-240 30-480 60-660 105s-300 105-360 150-60 75-45 120 45 105 75 135 60 30 135 0 195-90 360-135 375-75 480-135 105-150 120-210 45-90 75-120"/>
<path class="Rot Rand2" d="m3960 3960c90 0 180 0 300 15s270 45 390 105 210 150 270 165 90-45 105-105 15-120-60-180-225-120-420-165-435-75-675-105"/>
<path class="Fleisch Rand2" d="m3330 1440c-30-30-60-60-45-135s75-195 120-255 75-60 135-30 150 90 170 132-30 66-48.33 104.67c-18.34 38.66-5 92-13.34 105.33-8.33 13.33-38.33-13.33-56-6.67-17.66 6.67-23 46.67-34.66 81.34-11.67 34.66-29.67 64-53.67 78.66-24 14.67-54 14.67-84 14.67"/>
<path class="Schwarz" d="m1382 2364a60 60 0 0 0-120 0 60 60 0 0 0 120 0z"/>
<path class="Silber Rand2" d="m1710 2250a90 90 0 0 0-180 0 90 90 0 0 0 180 0z"/>
<path class="Silber Rand2" d="m1304 2974a90 90 0 0 0-180 0 90 90 0 0 0 180 0z"/>
<path class="Gold Rand2" d="m2880 3240c-30-60-60-120-105-75s-105 195-150 315-75 210-90 300-15 180 15 255 90 135 315 165 615 30 825 30 240 0 255-30 15-90 15-225 0-345 15-480 45-195 45-225-30-30-105-30h-315"/>
<path class="Rand2" d="m3532 1186c13.33-1.33 26.67-2.67 36.67 4s16.66 21.33 23.33 36"/>
<path class="Rand2" d="m3492 1406 66 30"/>
<path class="Rot Rand2" d="m2880 3780c-60 330-120 660-150 840s-30 210 0 225 90 15 120 0 30-45 45-225 45-510 75-840"/>
<path class="Fleisch Rand2" d="m6030 3420c-150-60-300-120-420-165s-210-75-255-120-45-105-75-165-90-120-135-165-75-75-105-75-60 30-45 60 75 60 75 75-60 15-90 30-30 45 0 75 90 60 120 105 30 105 60 150 90 75 180 105 210 60 330 105 240 105 360 165"/>
<path class="Blau Rand2" d="m2970 3780c-30 210-60 420-75 555s-15 195-15 270 0 165-30 195-90 0-150 0-120 30-165 75-75 105-75 135 30 30 90 15 150-45 255-45 225 30 270 15 15-75 0-165-15-210 15-315 90-195 120-315 30-270 30-420"/>
<path class="Blau Rand2" d="m3780 1620c30 0 60 0 120 15s150 45 225 60 135 15 210 0 165-45 210-45 45 30 45 60 0 60 15 75 45 15 30 30-75 45-165 75-210 60-345 75-285 15-435 15"/>
<path class="Fleisch Rand2" d="m5580 4950c60 150 120 300 165 420s75 210 90 285 15 135-45 150-180-15-225 0-15 75 30 105 105 30 165 60 120 90 165 90 75-60 90-120 15-120 15-225 0-255-30-420-90-345-150-525"/>
<path class="Rot Rand2" d="m5490 5850c-60 0-120 0-165 15s-75 45-105 90-60 105-105 150-105 75-135 105-30 60 15 75 135 15 180 0 45-45 105-75 180-60 225-90 15-60 0-105-15-105-15-165z"/>
<path class="Silber Rand2" d="m4860 1800c-30 0-60 0-95 11.33-35 11.34-75 34-105 34s-50-22.66-75-64c-25-41.33-55-101.33-55-131.33s30-30 60-60 60-90 75-150 15-120 30-120 45 60 45 105-30 75-45 120-15 105-15 165"/>
<path class="Blau Rand2" d="m2970 1845c0 30 0 60 15 187 15 128 45 353 45 496 0 142-30 202-90 412s-150 570-150 765 90 225 195 240 225 15 360 15 285 0 360-15 75-45 75-405v-1740"/>
<path class="Fleisch Rand2" d="m5850 3240c30 60 60 120 30 165s-120 75-150 195 0 330 15 465 15 195-15 270-90 165-165 255-165 180-225 240-90 90-105 120-15 60 0 195 45 375 60 525 15 210 45 240 90 30 120 15 30-45 45-135 45-240 45-360-30-210-45-270-15-90 45-120 180-60 300-120 240-150 285-270 15-270 30-390 75-210 105-315 30-225 0-330-90-195-120-255-30-90-15-105 45-15 90-45 105-90 150-165 75-165 60-240-75-135-135-165-120-30-180-15-120 45-150 75-30 60-60 75-90 15-105 30 15 45 15 75-30 60-45 90-15 60-30 90-45 60-30 90 75 60 135 90z"/>
<path class="Gold Rand2" d="m3478 2700-390 224 60 104 390-224-60-104z"/>
<path class="Silber Rand2" d="m3540 2628 962-555c234-135 338-195 423.33-227 85.34-32 152-36 167-10s-21.66 82-92 140c-70.33 58-174.33 118-408.33 253l-962 555"/>
<path class="Rot Rand2" d="m2880 4680h-150c-30 0-30 0-45 45s-45 135-75 195-60 90-45 105 75 15 135 15 120 0 150-30 30-90 30-150v-180z"/>
<path class="Silber Rand2" d="m5775 5430c15 60 45 150 45 210s-30 90-15 120 75 60 120 75 75 15 90-45 15-180 15-285 0-195-30-225-90 0-135 15-75 15-90 30-15 45 0 105z"/>
<path class="Silber Rand2" d="m6165 4380c-45-30-135 0-210 0s-135-30-210 0-165 120-195 165 0 45 45 45 105 0 105 30-60 90-60 120 60 30 105 15 75-45 90-30 15 75 30 120 45 75 90 60 105-75 150-135 75-120 90-195 15-165-30-195z"/>
<path class="Blau Rand2" d="m2880 1710c-90 30-180 60-255 135s-135 195-165 285-30 150 30 240 180 210 270 285 150 105 210 135 120 60 150 60 30-30 45-75 45-105 30-165-75-120-120-150-75-30-105-30-60 0-90-30-60-90-75-135-15-75 30-135 135-150 225-240"/>
<path class="Rot Rand2" d="m4230 2880c30 0 60 0 105-30s105-90 165-255 120-435 142-690c23-255 8-495 68-645s195-210 262-255c68-45 68-75 38-135s-90-150-60-165 150 45 210 120 60 165 45 240-45 135-113 180c-67 45-172 75-217 135s-30 150-23 300c8 150 8 360-7 570s-45 420-120 630-195 420-270 540-105 150-165 150-150-30-240-180-180-420-270-690"/>
<path class="Rot Rand2" d="m3615 1545c-45-15-75-15-120 15s-105 90-165 90-120-60-180-90-120-30-180 0-120 90-135 135 15 75 60 105 105 60 195 75 210 15 300 15 150 0 240-30 210-90 240-135-30-75-90-105-120-60-165-75z"/>
<path class="Fleisch Rand2" d="m5940 3420c-150-30-300-60-420-90s-210-60-255-105-45-105-75-165-90-120-135-165-75-75-105-75-60 30-45 60 75 60 75 75-60 15-90 30-30 45 0 75 90 60 120 105 30 105 60 150 90 75 180 105 210 60 330 105 240 105 360 165"/>
<path class="Rand2" d="m6120 2880c30 0 60 0 75 30s15 90 0 120-45 30-75 30-60 0-75 15-15 45-15 75"/>
<path class="Rand2" d="m5940 2790c30 0 60 0 75 15s15 45 15 75"/>
<path class="Rand2" d="m5760 3060h90"/>
<path class="Rand2" d="m5850 5580c30 0 60 0 90-30s60-90 90-150"/>
<path class="Rand2" d="m5850 5760c30 0 60 0 90-30s60-90 90-150"/>
<path class="Rand2" d="m5760 5400c60 0 120 0 165-15s75-45 105-75"/>
<path class="Rand2" d="m6030 4860c0-60 0-120-30-165s-90-75-150-105"/>
<path class="Rand2" d="m6210 4590c-60-30-120-60-165-75s-75-15-105-15"/>
<path class="Gold Rand2" d="m3163 3053.9a90 90 60 0 0-90-155.88 90 90 60 0 0 90 155.88z"/>
<path class="Gold Rand2" d="m3547.7 2641c-22.34-39-37-65-39-98.33-2-33.34 8.66-74-6.34-100s-55.66-37.34-89-35.34c-33.33 2-59.33 17.34-57.33 51 2 33.67 32 85.67 62 137.67s60 104 90 156 60 104 90 156 60 104 88 122.33c28 18.34 54 3 72.33-25 18.34-28 29-68.66 14-94.66s-55.66-37.34-83.66-56c-28-18.67-43.34-44.67-66-83.67-22.67-39-52.67-91-75-130z"/>
<path class="Silber Rand2" d="m4589 1593c23.67-50 47.33-100 59.17-156.17 11.83-56.16 11.83-118.5 30.16-119 18.34-0.5 55 60.84 58.34 106.5 3.33 45.67-26.67 75.67-41.67 120.67s-15 105-30 135-45 30-75 30"/>
<path class="Silber Rand2" d="m4885 1620c-68.33 0-136.67 0-170.83 15-34.17 15-34.17 45-0.5 60 33.66 15 101 15 135.16 0 34.17-15 35.17-45 36.17-75z"/>
<path class="Silber Rand2" d="m4905 1530c-75 0-150 0-187 15-38 15-38 45-1.83 60 36.16 15 108.5 15 146 0s40.16-45 42.83-75z"/>
<path class="Silber Rand2" d="m4860 1710c-60 0-120 0-150 15s-30 45 0 60 90 15 120 0 30-45 30-75z"/>
<path class="Silber Rand2" d="m3195 2640c-45 30-45 90-45 135s0 75 15 105 45 60 75 75 60 15 90 0 60-45 90-45 60 30 90 45 60 15 45-45-75-180-150-240-165-60-210-30z"/>
<path class="Silber Rand2" d="m4905 1440c-75 0-150 0-187 15-38 15-38 45 0 60 37 15 112 15 150 0 37-15 37-45 37-75z"/>
</g>
<path class="Rand6" d="m360 4140a3240 3240 0 0 0 6480 0v-3870h-6480v3870z"/>
</g>
</svg>
