<?xml version="1.0" encoding="UTF-8"?>
<svg viewBox="0 0 412 492" xmlns="http://www.w3.org/2000/svg">
<path d="m6 6v280a200 200 0 0 0 400 0v-280z" fill="#dc281e" stroke="#000" stroke-width="10"/>
<path d="m378 11s-86 27-112 36.4c-24 8.8-49 22.3-49 46.4v100c-2 6-5 7-7 1-20-42-35-63-47-65-24-71.7-85.7-46-97.2-9 14.4-9 38.2-16 48.2 7-1 4-2 6-7 5-38-10-61.5 1-67.2 38 16.7-5 34.9-15 44 4-3.4 1-5.3 3-6.2 5-34.5-3-56.5 8-56.5 46 12.9-8 26.3-17 40.2-11-0.9 3-1.9 6-1.4 10-32.1 5-51.2 20-34 65 8.1-16 17.2-27 29.7-25 0 3 0.9 5 2.8 6-28.7 14-47.3 53-5.2 74-2-18-0.5-32 7.6-36 6.2 5 13.4 8 21.5 9 7.7 14 21.7 28 44.7 40 7 4 14 12 20 25 23 51 85 47 113 5 13-19 20-42 30-63 3 9 6 17 9 26 11-24 22-47 33-70 1 9 3 18 5 26 17-33 40-72 64-107v-189h-23zm-312 110h-0.2v1c0.1-1 0.1-1 0.2-1z"/>
<path d="m401 12.7-29 8.8c-74 19.7-149 40.4-149 72.3v103c0 5-4 8-5 13 8 26 24 49 52 67-60-15-80-140-117-139-6-56.4-52-56.5-78-26 39-12.6 44 7 48 24-14 4-20 15-18 29 2 12 12 21 25 24 16 3 39-14 24-39 5 5 5 7 8 11 24 22 26 51 37 73 9 28 23 54 45 73 14 12 22 29 21 52 9-21 18-40 29-57 2 10 4 20 7 27 11-27 22-51 35-72 2 9 5 18 7 27 17-33 36-65 58-97v-45c-25 25-49 54-73 84 22-35 45-68 73-101v-112zm-319 124c-14.3 0-26.1 7-33.4 23 17.7-5 35.4-11 43.5 16-7.6 5-10.8 11-8.2 19 4.5 13 13.5 18 26.8 16 11-2 15-9 17-16-33.2-11-32.7-31-27-53-6.9-4-13-5-18.7-5zm80.7 31c-1 13-16 28-32 27-3 11-7 17-17 22 3 11 0 22-10 30 3 12 1 20-4.9 27 9.9 16 6.9 30-7.7 41h-0.4c1.8 10 12 16 34 31 11 7 19 15 25 23 8 13 15 26 28 35 23 16 64 1 78-26 15-28 2-49-12-61s-25-21-32-33c-27-49-28-95-49-116zm-104 20c-13.9 0-23.7 8-28.5 24 13.4-7 26.8-11 42.1 2-12.5 18 9.3 33 24.4 28 12.8-5 15.8-14 11.8-25-26.2 0-29-13-31.4-27-6.8-1-12.9-2-18.4-2zm5.5 46c-27.3 2-41.2 14-38.8 40 8.1-12 17.7-22 38.8-18-8 14 9.3 26 20.5 22 16.8-6 15.8-18 15.8-29-21 3-31.1-3-36.3-15zm-1.5 45c-29.6 15-32.1 37-18.2 52 1-15 5.5-30 19.4-32 2.3 9 18.7 15 27 8 13.6-11 8.3-21 5.3-28-12.9 7-24.4 7-33.5 0z" fill="#fefefe"/>
</svg>
