<?xml version="1.0"?>
<svg xmlns="http://www.w3.org/2000/svg" xmlns:xlink="http://www.w3.org/1999/xlink" viewBox="0 0 1264 1419">
<path d="m10 10v777.2a622 621.8 0 0 0 1244 0v-777.2z" stroke="#000" stroke-width="17" fill="#00a94d"/>
<g transform="translate(-38 -4)">
	<use xlink:href="#a" x="-8.27"/>
	<path d="m801 276.3c-48.6-14.8-100.6-19.7-150.6-11-18.3 2.81-40.2 2.5-53.5-12.32-9.42-10.18-10.22-26.97-1.69-37.94-5.07-4.18-11.6.34-16.82 2.1-21.2 9.45-32.2 35.86-24.2 57.6 7.51 22.54 31.44 35.75 54.4 35.51 26.86.39 52.86-9.47 79.8-7.49 41.4 1.71 82 14 111.6 43.1"/>
	<path d="m799 288.2c-52.1-19.95-113.3-19.73-163.3-14-18.53 1.13-36.76-3.46-47.83-20.31-7.67-11.58-6.91-27.67 2.18-38.2-21.1 4.23-36.64 26.35-32.6 47.67 2.8 21.1 22.8 35.71 42.93 38.51 33.41 5.38 63.4-11.63 96.9-9.13 35.3 1.4 72.7 9.18 100.8 30.65" fill="#e7423f"/>
	<path id="a" stroke-linejoin="round" d="m711.6 345.1c-7-18-11.36-40-7.36-64-20 20-22 41-23 64m9.57-113.3c-7 18-11.57 40-7.57 65-20-20-24.28-42-24.28-65" stroke="#000" stroke-width="4.2" fill="#fff"/>
	<path d="m1120 99c-73-29.9-128-20.9-140 76 30 30.5 30 53.2 2 67 57 20 90 3 99-54-10-39 20-43.2 34-10.3 17 49.6 2 110-39 171-20 30.8-49 59.3-75 104-29.4 33.2-45.2 76.5-41.2 125 8.5 104 53.2 236.3 80.2 357.3 6 79-24 68-78.5-9.4-27-29.3-54-58.6-81.1-88-42.9-64.6-67.3-134-58.5-210 42.5-2.4 49.8-34.8 47.3-75.6 11.3-.3 12.9 4.7 7.6 17.8 58.7 1.3 47.4-38.2 33.8-78.9 13.9-12.5 21.9-2.2 25.9 23.7 43.1-36.8 24.2-72 3.4-107 17.8-7 26.4-.6 25.9 19.2 42.2-36.5 21.7-67.2-7.9-97 5.1-12.2 14.6-14.2 24.8-14.7 6.4 3 8.7 10.1 6.8 21.4 28.5-22.7 26.5-44.4 3.4-65.4-8-13.1-17.5-24.6-30.4-32.7 17.9-43.2 4.2-74.1-34.5-94-5-56.4-59.4-76.8-102-26.4-14-2-26.9-1.1-42 2-22.9-7.1-38.3-18.59-64 26-12 1-26 3-39 5-34 0-52.1 7.8-39 34.5-21.2 58.4-2.5 81.7 56.3 69.9 27.4-2.8 41.63 9.69 50.67 24.64 14.2 24.5 33.5 67.5 7.8 76.9-20.5-6-24.9-17.8-27-30.5-37-13.7-61.8-7.8-66.8 27.1 16.5-1.9 25.5.3 27 6.8-8.3 16.9-37.2 8.6-75.4-11.3-40.3 24-66.9 18-80.6-18-17 7-24.3 22.8-20.4 49.6-66.3 11.5-118 8.9-148-14.7 6.8.2 14.9 3.2 21.7-2 6.5-16.9 9.5-35.2 14.4-52.2-18.7-4.7-34.1-11.6-46.2-19.7 48.7-61.3 125.5-96.5 242.5-96 39.7-49.6 89.8-85.9 145.9-110-108-59.8-256.9-18.9-456.9 153-11.8-14.8-10.6-38.8-9-62-17.3-2.4-39.1-2.9-63-2 2.4 31.9 9.1 62.8 29.9 93-22.9 0-47.6 15-50.9 41.6-15.8 2.7-18.2 21.7-23 36.4-17 13.5-20.4 37-14 48-28-4-38 10-39 45.9-1.5 52.1 97.6 40.8 75-.9 12.5 0 24-4.1 34.8-12.4 11.2 24.4 34.1 43.7 73.2 54.4 37.4 10.2 61.1 46.6 92 70 2-6 3-9 5-12 10-1 19 6 23 17-23.2 18.4-65 33-95 48-10-10.8-16-22-33-28-10.7-24.6-32.4-34.6-65-30 9.9 11.6 19 23 17 36-3.1 9.5-8.4 14.8-17 17-4.7 11.7-2.7 23.1 5.4 33-1.5 6.4-4.8 5.4-10-1-19.4-22-37.4-17-55.4 0-16 1.6-26.5-8.7-37-20-8 31-4 57 25 72-1.3 10.5-.7 21.2 12.6 28.1-14.6 14.9-12.8 29.4 4.4 39.9-4.5 7.7-17.8 14.1-35 20 19.8 16.1 44 22.6 73 15 13.5 2.6 25.4-1.5 37-8 13.6 11.9 26.2 14.1 38 15 3 14-5.2 23.4-15 35 66.4-5.3 70-40.4 72-77 11-13 26-2 42 13 30-39 72-40 48-3 16.5 7.9 34.9 1.5 55-18 32.1-7.1 39.1.9 22 23 22.3 0 31.9-9 45.4-26.7 13.5-17.6 24.4-.1 25 22.5 13.1-1.5 22.4-9.3 30-20 19.9 15.1 38.2 31.7 49.9 54.9-53.6 3.1-119.5-35.7-166.5-5.2-5.9 2.2-10.8-2.1-16.8-.5-20.8 22-46 22.8-66-1-16.9 17.8-5.6 39.2 12.6 56.6 10.9 27.4-6 39-50.7 33.7 11.8 27.4 24.7 52.2 52.2 42.7 21.3 9.1 5.7 22.5-15.1 37 19.9 14.2 38.7 20.1 55.2 12.6 33.7 13.1 26.1 66.4-10 66.4-2.7-20-10.4-28-27.2-24-20.9-36.8-44-37-73-25 14 7 27 15 21 30-9.4 4-20 6-25 13-13 0-32.8 4-35 15-49 8-49 37-50 60 16-13 24-17 35-8 .5 11 8 20 23 25-21 4-33 17-13 38-20.4 24-12.1 46 23 67-4-19-1.7-33 14-37 4.4 10 9.7 20 25 22 16.3-2 26.5-12 30-32 8-8 20-5 25.3 13 12.5 10 3.4 22-7.8 32 19.1 4 37.2 2 52.2-25 34.3-7 32.3-25 22.5-45 10.8 0 21.2-2 30-10 44.4 17 72.1 14 69.9-25 83.6-9 36.4-33 27.5-53 26.3 4 43.7-7 52.4-32-11.7-2-22.8-5-32.4-12 13.7-4 20.6-8 17.5-13-45.6-22.5-57.5-51.5-34.1-89.1 3.3-3.4 6.7-3.4 10 0 39.3 44.1 75.5 102.1 118 132.1 48.6 35 62.1 88 51 114 2.7 19-10.2 2-20-7 3.7-42-30.1-43-65-43 23.3 26 26.7 43-5 48-5 7-4.5 15-2 22-37.5 1-50-14-45-36-33 13-41.2 37-25.4 71-7.3 13-11.9 25 2.5 38 4.2 5 4.1 13-.1 22-10.1 10-21.2 9-32 0 3.6 35 20.1 55 62.1 48 2.5 15 15 16 37.4 5 22.2 11-2.3 19-17.5 27 26.3 9 51.9 11 74.9-15 38.3 1 40-13 25-32 26.8-3 42.2-10 52.4-18 40.7 17 60 2 67.4-30 1.3-4 35.8-7 37.1-23-9.9-10-19.9-20-29.8-29 25.3 4 48.2-3 65.2-35-13.8 1-27.1 1-37.5-13 33-9 52.3-23 40.3-47-7 8-24.4-2-48-25-46 37-41-52-41-114 1.7-14.1-1.9-28-.3-42.2 59.6 121.2 135.3 148.2 231.3 65.2-20-7-45-11.3 8-40 32-28.6 37-57.6 32-86.2-20 16.3-40 26.3-62 25.9 8-17.1 23-24.7 36-34 45-35 56-68.4 36-99.1-20 31.5-55 40.1-91 46.4 1-13.3 7-20.4 19-27 39-21.2 113-39.1 72-115-24 37.4-63 47.3-106 49.6 3-12.3 6-32.7 25-35.6 53-8.2 123-41.3 81-122.4-8 25.2-28 55.3-60 50.6-26-3.8-48 4.5-70 13.7 4-15.4 12-29.9 29-31.9 57-6.7 135-51.9 110-131.3-43 45.9-95 24.6-142 55.3-2-12.8 14-22.6 41-31 53-16 121-42.5 106-133.8-28 33.6-58 56.6-98 41.7 9-12.8 19-24.3 32-27.1 54-17.7 85-51 80-107-12 5.5-24 12.7-24 1.5 4-33.8 6-67.5 2-101-14-38.4-12-75.2 2-110.3-51-9.7-63 15.2-70 40z"/>
	<path d="m715.7 1364c10.1-6 19.6-13 24.4-27 6.9-2.2 14.3.1 21.9 4.5-12.1 17-30.3 22-46.3 22zm-93-64c12.9.8 25.7 1.2 33.9-8.7 8.3 6.8 11.2 12.8 10.2 18.2-11.3 22-26.8 13-44.1-9zm33.5-129c-16.8 13.2-16.6 31.3-4.8 52.5 12.5 4.7 20.4-.2 23.7-14.7-14.2-12-18-25-18.9-38zm81.6-43c7.4 14 11.4 28.3 9.5 42.9 15.8 7.4 26.5 6.8 29.7-5.7-2.2-26-17.8-35-39.2-37zm-301.5 61c9.1-1.1 17.5 1 25.5 5.7-2.1 17.4-12.6 26.4-27.9 30.7 8.4-11 8.7-24 2.4-37zm-114.7-22c7.5 1.9 14.4 6.5 20.8 13.7-12 7.2-17.5 18.6-18.4 32.7-18-19-18.7-35-2.4-47zm-49.5-72c4.8-21.5 18.5-32.9 41.2-34.3 7.2 11.4 7.8 20.7 1.8 27.9-15.3-6-29.3-1-43 6zm104.4-103.4c8.5 13.2 11.4 25.4 10.5 37 10.5 3.8 19.7.3 27.5-10.7-8.8-18-21.3-27.2-38-26.4zm-78.3-206.7c1.3 10.6-1.5 21.3-8.3 31.9 17.1-5.1 27.2-15.7 34.2-28.8-8.6-7.5-17.3-7.8-25.9-3.1m-138.9-13.6c11.1-2 22.3-7.1 33.4-15.2 10.6 4 15.2 10.1 13.7 18.2-18.7 8.1-34.4 7.1-47.1-3m-25.1-142.1c1.5 18.8 11.1 31.4 28.8 38 9.9-7.1 17-14.4 4.6-23.5-12.2 1.3-23.3-3.6-33.4-14.5m107.1-75.3c14.6 13.9 18.5 27.3 19 41.2 8.1 3.8 18 .3 22-12.1-8.6-19.7-22.4-29.6-41-29.1m-19-156.7c8.7 3.5 18 4.2 28.2-1.1.8 9.5-7.3 19.6-19.7 20.5-12.3.9-11.7-10.1-8.5-19.4m34.5-36.8c6 7.3 14.4 8.6 24 7.1-5.6 13.7-15.8 17.5-30.8 11.5-3.1-8.4-2.4-15.3 6.8-18.6m-34.7-28.4c6.1-23 18.2-31.2 35.2-27.3 7.2.8 5.8 10.2 4.9 19.1-15.4-3-28.4 1-40.1 8.2" fill="#e7423f"/>
	<path d="m1132 126c-34-34-99-56.78-124-.7-27.8 60.4 22 65.7 2 113.7 80-7-40.8-84 40-132-30 29-30 78 10 104-10-29 0-73 20-69 50 7 59 34 59 90-20 72-57 141-117 204-54.8 80-57.8 149-33.8 212 20.8 78 43.8 165.3 62.8 267 18 98-22 113-68.8 70-47-43-70-131-122-132-56-84-73-171-58-260-14-8-24-19-33-30 2 42-21 60-70 55 10-17 9-34-2-50-18 31-45 31-75 18 13-8 14-23 3-46-24 4-48 2-74-18 25-1 30-15 27-34-16 9-32 10-48 6-28-32-21-57 22-75-13-6-22-13-29-22-45 4-89 6-133 3-21-6-36-20-50-43-13-22-43-34-64-55-4 17-10 31-20 34-3 6-7 11 7 17 9 7 16 5 22-5 4-9 9-10 12-1-2 9-6 17-9 26-11 15-11 31 1 48-9-4-15-9-13-15-7-11-14-12-20-2-5 3-7 8-9 13-11 23 42 38 79 55 23 11 44 28 64 56 4-4 5-10 5-18 18 3 32 18 47 32 22-21 20-44 41-64-28 41-11 53-49 89-46 31-92 51-137 63 0-2-2-5 0-7 23-17 9-26-3-32-12 3-18 8-17 15-10 8-17 4-24-2-24-2-23 13-2 29 10 20-7 24-25 19-16-41-57-29-41-2 1 11-2 19-11 20-17 20-4 46 22 22 8-5 15-4 22 0 2 11 2 20-12 19-39 7-38 16-20 27 7 0 15 6 25 19 6 21 29 19 32-1-3-18 2-26 15-24 16-2 14 7 6 22-13 20 1 32 26 22 5-4 14-5 19-3 30 9 23-17 7-29-42-29 62-32 68-4 43-41 60-28 67 10 25 3 25-16 18-41 23 6 46 14 66 39 9-16 2-31-7-46 36 2 55 19 62 46 23-16 15-34 4-54 46 36 59 15 56-32 8 7 10 24 9 49-15 3-28 9-32 20 26 29 45 57 47 87-112-35-164-36-180-17h-12c-33 26-51 19-67 10-2 10 6 19 19 25 8 3 8 55-42 58-6 6 34 23 40 15 18 15 15 32-4 51 15 13 29 6 43-8 5 16 15 29 33 40 4 48-34 71-91 81 16-16 42.5-38 6-53-9 20-23.1 21-38.1 11-31-8-20.9 27 .1 37 0 29-19.2 14-32 2 0-40-35-20-24 0 4 10 2 12-1 22-17.6 5-8.9 35 19 18 22.2-14 27 26-1 23-31.7-4-39 17-14 27 11 0 20.2 10 25.8 20 18.5 32 34.5 10 29.5-20-4.8-29 51.7-24 45.2 0-12 10-11.5 20 18.8 20 46.7 19 45.7-2 22.7-32 22 0 41-10 50-20 10 10 23 10 38 10 29 10 30-7 5-27 1-10 15-12 34-2 12 0 22 1 30-9-15-10-19-20-22-40 29 0 48-8 51-18-16 4-23.7-16-23.7-16s-.3-10 5.7-10c-30-10-40-39-45-57-14-40-2-53 47-59-3-27 1-49 20-64 17-4 31-11 29-44 10 27-3 41-25 50-21 14-20 40-16 68 29 66 91 110 144 160 32 50 45.4 89 13.7 131-19.8 26-48.9 13-28.4-1 23.7-17 13.1-26-1.5-18-15.1 9-22.8 0-26.2-2-20-10-33.1 1-20.1 21 24 30-10.2 29-19.7 10-5.7-12-21.8-11-28.8-1-1 10-4 20-10 20-24.2 11-26.4 32 8.8 20 22.8 6 23.4 23 0 23-26.3-15-29.8 7-12.8 17 8 5 11 12 7 22 4.8 28 32.8 20 30-2-3.8-30 30-25 30-2-24.7 14-26.2 19 3 20 13-4 23.8 4 23.8 4 30 10 23.2-12 17.2-22-18-15 29.8-8 58.8-28 21 10 44 9 65-1-14-10-17.8-23-15.8-33 18 10 34 8 50-2-20-10-29.1-29-31.9-39 22 0 42.9-5 47.9-15-16 0-25-14-27-24 21-10 39-18 41-28-13-10-26-24-26-24-15 4-16.2 10-34 0-31-18-18-104-26-205 37 20 57.8 94 129.8 126 29 11 68-1 103-26-13-6-33-13-12-39 12-14.3 5-8 13-15 22-7.5 46-31 46-58-40 50-50-9-80 60-10-12 9-28 7-71 30-32 53-7 73-39-10-2-20 8-30 2 50-15 29-10 49-50-40 52-71 5-101 67-7-26-6-50-6-70 50-35 55-8 95-47-20 0-29 16.2-39 5.2 50-27 40-17.2 50-49.2-60 59-73 0-124 76-3-38-8-81 27-95 40-12 75-17 88-50-20 13-32 18-42 12 33-11 53-26 60-52-80 77-103-24-153 101-10-50-11-93 26-109 120-25 78-38 110-54-16-8-29 14-39 6 20-9 51-11 51-51 0 56-89-29-169 98 0-48 11-88 57-105 70-17 70-16 100-45-30 1-30 16-70 13 80-26 53-24 82-54-60 42-87-15-137 70-10 8-20 9-14-8 28-32 49-63 79-95 40-9 80-29 90-73-30 5-53 18-73 39 40-52 62-91 45-159-13-31-19-59.7 1-105-31-9.7-41 34-41 59zm-258.1-25.9c-17 0-22.6 9.3-30.9 21.9 23 7 37 15 43 24 12 17 25 8 26-7 2-23-16-38.92-38.1-38.92zm-195.6 82c-41.8 12.9-45.3 35.4-35.5 54.5 14.2 27.9 39.2 13.4 59.2 3.4 7-2 15-2 23 0 6 11 19.1 19 34.1 23-5.51 23.88 20 54 20.39 75.4-10 45-35.5 27.6-62.5.6-18.86-23-39.5-14.21-41 10 9 3 20 3 26 10 28 33 82 41 118 1-21 34-56 46-121 12-10 13-44 4-81-6-20 2-43 18-62 8-3 5 1 12 11 20-25-6-32-20-37-36-7 31 15 52 52 69-24 1-45 5-36 13 10-4 20-1 28 10-35-5-47 4-48 19 10-2 19-3 29 1 5 2-16 15-18 16 13 3 34-6 36-8 4 1 22 2 27-4-25 29-1 30-22 54 13 6 28 2 31-8 3-11 6-18 12-15 1 22-9 12-8 31 17-20 13 1 23-8 0 19 7 32 2 54 12-5 22-8 25-18s7-16 12-20c0 14-3 28-8 40 20-14 19-26 33-33 13 19 16 39 11 60 16 2 25-8 29-24 5 1 6 11 7 16 7 1 4-66 28-53 14 23 36 49 62 54 26 4 20-22-2-39 7 1 13 1 14-4-22-11-33-23-20-37 11 14 22 23 33 13 8-7 26 11 38 16-5-9 0-24-10-28-8-2-22-8-21-17 9 6 19 9 29 7-14-15-20-31-16-49 9 8 18 13 28 10 12-2 23 9 34 13-6-9 5-29-20-28-5 0-10-7-14-21 12 11 25 16 37 11-4-7-5-19-13-21-15-4-22-19-26-41 10 5 19 9 29 6 12-4 25 5 38 8-2-12-4-29-17-29-17-1-26-14-35-24 17 12 34 17 52 14-22-12-39-27-49-46 24-7 47-12 70-10-9-25-33-26-57-27 9-6 22-10 33-10-13-18-32-20-48-27 58-29 17-102-31-78-8 4-19-3-32 0l18-12c-8-10-23-16-39-22-23.61-4.99-40.78-1.42-57.5.97-7.8 1.1-15.5-4-23.5-7-14-5.2-37.4 16-16 31 33 7 52 34 68 18-39 67-69 6-69 6s9-3 9-14c-13-2-23-7-30-14-18 4-28 6-26 13-13-2-14.91-13.51-38.1-6.76-11 5.1-16.6 17.5-.8 22.8 8 3 16.91-.15 22.51-1.39m231.5 1.4c10 0 19 7 21 14 2 8 1 11-4 6-5-4-19-11-21-10-11 3-28 9-37 7-8-2-10-6-1-7 10-2 25-6 38-9 1-1 3-1 4-1zm-677 8c2 71 43 120 142 157 0 0 8-17 8-28-78.5-25.4-118.1-55.2-122-129 0 0-21-5-28 0zm16 88c-19 1-34 8-41 25-4 17-2 34 6 49 9 10 20 13 32 10 9-18 3-25-17-20-7-6-17 2-12-18s24-32 40-25c11 4 14 0 9-9-6-5-11-8-17-12zm-54 47h-1c-8 0-12 7-13 22 9 39 28 52 57 37 5-5 4-8-4-11-33-4-41-23-36-48zm-26 38c-9 0-5 18-5 29 13 29 33 27 53 24 0-6-1-11-1-17-14-2-28-7-41-34-3-1-5-2-6-2z" fill="#ffd72e"/>
	<g stroke-linejoin="round" stroke-linecap="round" stroke="#000">
		<path d="m803 184c-24 36-55 24-55-3 10.1-37.91 46.3-12.36 55 3z" stroke-width="5" fill="#fff"/>
		<circle cx="772.7" cy="183.2" r="12"/>
		<circle r="7" cy="177.2" cx="778.7" fill="#fff" stroke="none"/>
		<path fill="#fff" d="m160 406c7.6 2.1 12.7 9.8 17 16.3 9.8 14.9 12 32.5-17 31-13.3-.7-22.1-7.9-24.8-17.1-9.1-30.3 5.5-35.5 24.8-30.2m136-158c-2.6 4.7 1.6 9.3 12.2 14.1 77.1-68.1 156-109 234-135-81 35.6-154 82.3-226 144 1.9 6.6 4.2 13.2 15.5 14.2 71.1-69.2 157-115 264-116 35.5-34.2 74.4-65.1 125-84.2-114-27.8-249.7 9.3-424.7 162.9" stroke="none"/>
		<g fill="none" stroke-width="4">
			<path d="m735 187c21-7 7.54-16.79 23.2-21.79 34.5-10.9 41.8 25.8 52.8 27.8"/>
			<path d="m140 411c3 14 9 20 31 30"/>
		</g>
	</g>
	<path d="m737.4 160.8c15.59 13.63 39.98 13.1 50.59 6.76"/>
	<path d="m743.1 157c16.94 12.97 42.98 13.56 49.67 1.33" fill="#ffd72e"/>
</g>
</svg>
