<?xml version="1.0" encoding="UTF-8"?>
<svg version="1.0" viewBox="0 0 603 763" xmlns="http://www.w3.org/2000/svg" xmlns:cc="http://web.resource.org/cc/" xmlns:dc="http://purl.org/dc/elements/1.1/" xmlns:rdf="http://www.w3.org/1999/02/22-rdf-syntax-ns#" xmlns:xlink="http://www.w3.org/1999/xlink">
<metadata>
<rdf:RDF>
<cc:Work rdf:about="">
<dc:format>image/svg+xml</dc:format>
<dc:type rdf:resource="http://purl.org/dc/dcmitype/StillImage"/>
<dc:date>07-AUG-2006</dc:date>
<dc:creator>
<cc:Agent>
<dc:title>Jérôme BLUM (wagner51)</dc:title>
</cc:Agent>
</dc:creator>
<cc:license rdf:resource="http://creativecommons.org/licenses/GPL/2.0/"/>
<dc:coverage/>
<dc:description>Gabarit pour le Projet:Blasons de WIkipédia</dc:description>
<dc:subject>
<rdf:Bag>
<rdf:li>blason suisse modèle gabarit projet blasons</rdf:li>
</rdf:Bag>
</dc:subject>
<dc:language>fr</dc:language>
<dc:title>Gabrit d'un blason suisse</dc:title>
</cc:Work>
<cc:License rdf:about="http://creativecommons.org/licenses/GPL/2.0/">
<cc:permits rdf:resource="http://web.resource.org/cc/Reproduction"/>
<cc:permits rdf:resource="http://web.resource.org/cc/Distribution"/>
<cc:requires rdf:resource="http://web.resource.org/cc/Notice"/>
<cc:permits rdf:resource="http://web.resource.org/cc/DerivativeWorks"/>
<cc:requires rdf:resource="http://web.resource.org/cc/ShareAlike"/>
<cc:requires rdf:resource="http://web.resource.org/cc/SourceCode"/>
</cc:License>
</rdf:RDF>
</metadata>
<defs>
<radialGradient id="a" cx="858.04" cy="579.93" r="300" gradientTransform="matrix(1.215 1.5316e-24 1.4647e-23 1.2667 -839.19 -490.49)" gradientUnits="userSpaceOnUse">
<stop stop-color="#fff" stop-opacity=".31373" offset="0"/>
<stop stop-color="#fff" stop-opacity=".25098" offset=".19"/>
<stop stop-color="#6b6b6b" stop-opacity=".12549" offset=".6"/>
<stop stop-opacity=".12549" offset="1"/>
</radialGradient>
</defs>
<desc>Coat of Arms of Canton of Freiburg (Fribourg)</desc>
<path d="m1.5 1.5v458.87c0 166.31 134.31 301.13 300 301.13 165.69 0 300-134.82 300-301.13v-458.87h-600z" fill="#2b5df2"/>
<g transform="matrix(4.083 0 0 4.083 -2554 -2319.4)" stroke="#000">
<path d="m715.88 580.61c0.50917 1.8956 1.466 3.5674 0.12209 6.3896l3.8779 2.7325c1.6484-3.2804 0.8677-8.3633-4-9.1221z" fill="#fcef3c" fill-rule="evenodd" stroke-width="1px"/>
<path d="m706.11 580.83c1.6033 1.005 3.1872 3.9686 2.8667 7.078l4.8136-0.6784c0.33173-2.7886-1.3747-7.1938-7.6802-6.3996z" fill="#fcef3c" fill-rule="evenodd" stroke-width="1px"/>
<path d="m699.99 583.77c1.3901 0.88786 2.8457 1.8709 2.8316 4.9967l4.6724-0.15582c0.09446-3.6701-2.7766-6.2274-7.5039-4.8409z" fill="#fcef3c" fill-rule="evenodd" stroke-width="1px"/>
<path d="m702.61 649.54c1.7825 0.82177 3.6795 1.1562 4.9882 3.995l4.5813-1.2314c-1.466-3.3659-5.8715-6.0186-9.5695-2.7635z" fill="#fcef3c" fill-rule="evenodd" stroke-width="1px"/>
<path d="m698.85 662.04c1.7918-0.80123 3.2921-1.8873 4.7036-1.2485l2.088-4.2597c-3.499-1.1115-6.8085 0.58179-6.7915 5.5082z" fill="#fcef3c" fill-rule="evenodd" stroke-width="1px"/>
<path d="m702.06 671.5c0.88785-2.7238 1.8447-3.3412 3.5718-3.5989l-0.81188-3.7644c-3.9039 0.60766-5.7465 3.5922-2.76 7.3633z" fill="#fcef3c" fill-rule="evenodd" stroke-width="1px"/>
<path d="m712.88 698.01c0.88344 1.7528 2.1598 3.1954 1.4169 6.2317l4.3519 1.8882c0.94805-3.5468-0.84843-8.3653-5.7688-8.1199z" fill="#fcef3c" fill-rule="evenodd" stroke-width="1px"/>
<path d="m702.5 699.29c1.4995 1.2666 3.239 2.094 3.7448 5.1786l4.7438 0.0325c-0.51712-3.6347-4.0576-7.3644-8.4886-5.2111z" fill="#fcef3c" fill-rule="evenodd" stroke-width="1px"/>
<path d="m699.5 707.29c1.4995 1.2666 2.9948 0.87312 3.5006 3.9578l2.5463-1.7988c-0.51712-3.6347-3.203-3.8239-6.0469-2.159z" fill="#fcef3c" fill-rule="evenodd" stroke-width="1px"/>
<path d="m722.74 726.82c1.831-0.70714 3.392-1.8358 6.3407-0.79839l1.2075-3.9014c-3.4366-1.2916-7.3094-0.22086-7.5482 4.6998z" fill="#fcef3c" fill-rule="evenodd" stroke-width="1px"/>
<path d="m723.98 738.03c1.0102-1.6829 1.5484-3.5324 4.5123-4.5256l-0.72734-4.6878c-3.505 1.0923-6.6198 5.1842-3.785 9.2134z" fill="#fcef3c" fill-rule="evenodd" stroke-width="1px"/>
<path d="m732.34 742.38c0.41087-2.5819-0.04449-3.5412 2.9252-4.5256l-1.5819-3.3449c-4.6038 1.2144-5.6431 7.1376-1.3433 7.8704z" fill="#fcef3c" fill-rule="evenodd" stroke-width="1px"/>
<path d="m750 728c5.8662-8.814 7.4437-19.646 5.8258-31.982-12.655 1.2827-10.214-7.8351-3.3034-13.018 11.541 16.295 24.052 1.2436 13.138-16.156-5.679-9.0538-9.5698-17.111-0.66068-23.844 7.4217-5.6088 6.1263-13.78-1.982-22.312 2.3766 13.603-17.364 16.793-8.018 37.312 4.4871 9.8518 9.3207 18.781 9.1122 22.568-0.14654 2.6614-4.5999 3.8082-7.2953-2.5684 1.3327-15.481-18.269-21.532-10.23-40.244 9.526-19.307-13.51-12.73-20.266-19.095-9.6595-9.3945-14.869-16.268-10.496-24.504 7.6261-2.4516 1.8207-10.08-1.8169-6.6517-1.3295-2.1123-6.2192-0.53941-6.3663 2.1472-0.71326-5.562-11.947 0.03722-2.9731 4.219-3.8081 4.1116-3.733 7.9805-0.49551 11.652 10.205-1.2981 4.0602-12.108 9.8348-18.018-5.6978 5.9199 0.31932 16.688-9.8348 18.018l-1.3663 5.991c5.3693 5.8019 10.42 11.922 13.183 20.33-4.7659 19.745 9.2917 23.519 18.018 31.817 3.4022 2.97 5.7834 5.5906 7.4776 9.009-1.687-3.4058-4.0848-6.056-7.4776-9.009l1.5246 7.5785c-17.174-7.4141-29.386 10.058-12.134 19.893 0.08167 6.2935 1.555 29.089-7.1187 18.88 6.31-2.6478-0.51871-10.166-3.9329-4.024-0.1251-3.878-8.9758-2.8934-5.5336 2.3321-5.3816-0.74824-5.7006 6.5532 0.19784 6.6918-1.26 6.952 4.162 12.168 7.988 7.988 1.883-6.6568-4.65-11.995-2.6523-17.012-1.9272 5.0104 4.5397 10.428 2.6523 17.012 3.755-2.5002 7.51-4.9811 11.265-4.1463 5.279-5.2603 9.3804-11.362 8.735-20.854-15.123-9.866-7.5637-28.19 6.4865-25.33-14.04-2.8691-21.6 15.396-6.4865 25.33 2.5329 1.6865 5.079 1.9314 6.8142 1.9209-0.04256 9.2731 4.8366 25.435-6.8142 23.079-1.7022-6.2013-10.554-0.44943-5.1067 3.8261-7.597 0.47063-2.4965 12.598 3.6127 5.4269-4.3449 8.7469 10.946 7.5094 6.494-0.83813 2.6248-3.264 6.254-3.5145 10-3.4149z" fill="#fcef3c" fill-rule="evenodd" stroke-width="1px"/>
<path d="m742 634c-4.3458 13.019-10.876 24.491-23 32-2.2199-1.6735-5.1544-1.2035-8-1 0.9564 7.6892-12.733 3.9966-6.6337-2-4.3688-1.3171-1.402-8.7478 2.2442-6.4883-1.5953-8.093 9.6727-6.9768 6.6104 0.61043l3.5117 0.63374c6.1819-10.458 10.48-21.857 15.488-32.901l9.7792 9.1454z" fill="#fcef3c" fill-rule="evenodd" stroke-width="1px"/>
<path transform="matrix(1.1328 0 0 .99436 -101.22 3.3105)" d="m761.93 586.53a4.5782 5.4328 0 1 1-9.1564 0 4.5782 5.4328 0 1 1 9.1564 0z" fill="#fcef3c"/>
<path d="m760 613 3.9012 3.535c1.5542-7.686 3.6739-19.142-3.4129-20.366 19.055 1.7922 0.22014-22.317-3.535-6.7037l-0.48834 2.6804 0.48834-2.6804c-5.9994-0.55345-13.113-10.3-17.93-1.0988l-11.826-5c-2.719-1.7138-0.84302 6.6823 0.48285 5.8546-2.551 1.8801-1.6374 7.3867 0.97668 7.5583v3.0466-3.0466c2.3164 0.34972 5.3128 1.3603 6.7092-2.07 3.1797 2.673 6.4674 4.1393 6.8258 9.6338-3.776 0.214-11.107 3.5157-11.704 1.5816l-1.465-1.8258c-0.45377 5.3226 0.24319 9.1573 5.9767 6.9479 2.2708-0.8751 4.8456-0.72478 6.9534 0.48834 4.2032 2.4763 9.2456 4.3801 12.925-2.192-3.6656 6.5141-8.6746 4.7219-12.925 2.192-10.39 9.9803-34.051 2.828-32.808 32.075 4.9374-5.9924 9.5568-12.409 17.32-14.634-3.1533 6.1881-3.2152 11.737 3.0466 15.977-1.743-7.3161 2.9617-12.053 7.5638-16.831-2.8591 5.971-0.44613 11.665 2.8025 17.314 0.96837-6.7727 2.378-13.361 7.1975-18.529-3.5812 6.4732-1.2153 12.227 3.1687 16.826 0.15189-15.2 10.592-18.265 9.7558-30.733z" fill="#fcef3c" fill-rule="evenodd" stroke-width="1px"/>
<path d="m741 601c-6.3306-1.3804-16.992 3.1942-18.634-4.6337-4.9644 2.2735-3.9536 7.2569-0.36626 8.6337 3.6856 1.4146 15.821-4.9935 19-4z" fill="#fcef3c" fill-rule="evenodd" stroke-width="1px"/>
<path d="m740.19 589.27 12.808 4.7325-3-1c0.3001 4.5103-8.0194 4.7577-7.0754-2.4883l-2.7325-1.2442z" fill="#fff" fill-rule="evenodd" stroke-width="1px"/>
<path d="m747.44 591.97c-0.27507 0.49438-0.4375 1.0878-0.4375 1.7188 0 0.92663 0.35766 1.732 0.90625 2.3125 1.2447-0.39332 2.199-1.4174 2.0938-3l2.5 0.8125-5.0625-1.8438z"/>
<g transform="matrix(-1 0 0 1 1398.7 0)">
<path d="m715.88 580.61c0.50917 1.8956 1.466 3.5674 0.12209 6.3896l3.8779 2.7325c1.6484-3.2804 0.8677-8.3633-4-9.1221z" fill="#fcef3c" fill-rule="evenodd" stroke-width="1px"/>
<path d="m706.11 580.83c1.6033 1.005 3.1872 3.9686 2.8667 7.078l4.8136-0.6784c0.33173-2.7886-1.3747-7.1938-7.6802-6.3996z" fill="#fcef3c" fill-rule="evenodd" stroke-width="1px"/>
<path d="m699.99 583.77c1.3901 0.88786 2.8457 1.8709 2.8316 4.9967l4.6724-0.15582c0.09446-3.6701-2.7766-6.2274-7.5039-4.8409z" fill="#fcef3c" fill-rule="evenodd" stroke-width="1px"/>
<path d="m702.61 649.54c1.7825 0.82177 3.6795 1.1562 4.9882 3.995l4.5813-1.2314c-1.466-3.3659-5.8715-6.0186-9.5695-2.7635z" fill="#fcef3c" fill-rule="evenodd" stroke-width="1px"/>
<path d="m697.82 655.38c2.4866 0.54743 4.5182 3.1396 5.7253 5.4131l2.088-4.2597c-1.7008-2.174-4.6425-3.3825-7.8132-1.1533z" fill="#fcef3c" fill-rule="evenodd" stroke-width="1px"/>
<path d="m702.06 671.5c0.88785-2.7238 1.8447-3.3412 3.5718-3.5989l-0.81188-3.7644c-3.9039 0.60766-5.7465 3.5922-2.76 7.3633z" fill="#fcef3c" fill-rule="evenodd" stroke-width="1px"/>
<path d="m712.88 698.01c0.88344 1.7528 2.1598 3.1954 1.4169 6.2317l4.3519 1.8882c0.94805-3.5468-0.84843-8.3653-5.7688-8.1199z" fill="#fcef3c" fill-rule="evenodd" stroke-width="1px"/>
<path d="m702.5 699.29c1.4995 1.2666 3.239 2.094 3.7448 5.1786l4.7438 0.0325c-0.51712-3.6347-4.0576-7.3644-8.4886-5.2111z" fill="#fcef3c" fill-rule="evenodd" stroke-width="1px"/>
<path d="m699.62 709.54c1.6221-0.69508 2.8722 0.13749 3.378 1.71l2.5463-1.7988c-0.72146-3.1034-4.2248-3.6196-5.9243 0.08878z" fill="#fcef3c" fill-rule="evenodd" stroke-width="1px"/>
<path d="m722.74 726.82c1.831-0.70714 3.392-1.8358 6.3407-0.79839l1.2075-3.9014c-3.4366-1.2916-7.3094-0.22086-7.5482 4.6998z" fill="#fcef3c" fill-rule="evenodd" stroke-width="1px"/>
<path d="m723.98 738.03c1.0102-1.6829 1.5484-3.5324 4.5123-4.5256l-0.72734-4.6878c-3.505 1.0923-6.6198 5.1842-3.785 9.2134z" fill="#fcef3c" fill-rule="evenodd" stroke-width="1px"/>
<path d="m732.34 742.38c0.41087-2.5819-0.04449-3.5412 2.9252-4.5256l-1.5819-3.3449c-4.6038 1.2144-5.6431 7.1376-1.3433 7.8704z" fill="#fcef3c" fill-rule="evenodd" stroke-width="1px"/>
<path d="m750 728c5.8662-8.814 7.4437-19.646 5.8258-31.982-12.655 1.2827-10.214-7.8351-3.3034-13.018 11.541 16.295 24.052 1.2436 13.138-16.156-5.679-9.0538-9.5698-17.111-0.66068-23.844 7.4217-5.6088 6.1263-13.78-1.982-22.312 2.3766 13.603-17.364 16.793-8.018 37.312 4.4871 9.8518 9.3207 18.781 9.1122 22.568-0.14654 2.6614-4.5999 3.8082-7.2953-2.5684 1.3327-15.481-18.269-21.532-10.23-40.244 9.526-19.307-13.51-12.73-20.266-19.095-9.6595-9.3945-14.869-16.268-10.496-24.504 7.6261-2.4516 1.8207-10.08-1.8169-6.6517-1.3295-2.1123-6.2192-0.53941-6.3663 2.1472-0.71326-5.562-11.947 0.03722-2.9731 4.219-3.8081 4.1116-3.733 7.9805-0.49551 11.652 10.205-1.2981 4.0602-12.108 9.8348-18.018-5.6978 5.9199 0.31932 16.688-9.8348 18.018l-1.3663 5.991c5.3693 5.8019 10.42 11.922 13.183 20.33-4.7659 19.745 9.2917 23.519 18.018 31.817 3.4022 2.97 5.7834 5.5906 7.4776 9.009-1.687-3.4058-4.0848-6.056-7.4776-9.009l1.5246 7.5785c-17.174-7.4141-29.386 10.058-12.134 19.893 0.08167 6.2935 1.555 29.089-7.1187 18.88 6.31-2.6478-0.51871-10.166-3.9329-4.024-0.1251-3.878-8.9758-2.8934-5.5336 2.3321-5.3816-0.74824-5.7006 6.5532 0.19784 6.6918-1.26 6.952 4.162 12.168 7.988 7.988 1.883-6.6568-4.65-11.995-2.6523-17.012-1.9272 5.0104 4.5397 10.428 2.6523 17.012 3.755-2.5002 7.51-4.9811 11.265-4.1463 5.279-5.2603 9.3804-11.362 8.735-20.854-15.123-9.866-7.5637-28.19 6.4865-25.33-14.04-2.8691-21.6 15.396-6.4865 25.33 2.5329 1.6865 5.079 1.9314 6.8142 1.9209-0.04256 9.2731 4.8366 25.435-6.8142 23.079-1.7022-6.2013-10.554-0.44943-5.1067 3.8261-7.597 0.47063-2.4965 12.598 3.6127 5.4269-4.3449 8.7469 10.946 7.5094 6.494-0.83813 2.6248-3.264 6.254-3.5145 10-3.4149z" fill="#fcef3c" fill-rule="evenodd" stroke-width="1px"/>
<path d="m742 634c-4.3458 13.019-10.876 24.491-23 32-2.2199-1.6735-5.1544-1.2035-8-1 0.9564 7.6892-12.733 3.9966-6.6337-2-4.3688-1.3171-1.402-8.7478 2.2442-6.4883-1.5953-8.093 9.6727-6.9768 6.6104 0.61043l3.5117 0.63374c6.1819-10.458 10.48-21.857 15.488-32.901l9.7792 9.1454z" fill="#fcef3c" fill-rule="evenodd" stroke-width="1px"/>
<path transform="matrix(1.1328 0 0 .99436 -101.22 3.3105)" d="m761.93 586.53a4.5782 5.4328 0 1 1-9.1564 0 4.5782 5.4328 0 1 1 9.1564 0z" fill="#fcef3c"/>
<path d="m760 613 3.9012 3.535c1.5542-7.686 3.6739-19.142-3.4129-20.366 19.055 1.7922 0.22014-22.317-3.535-6.7037l-0.48834 2.6804 0.48834-2.6804c-5.9994-0.55345-13.113-10.3-17.93-1.0988l-11.826-5c-2.719-1.7138-0.84302 6.6823 0.48285 5.8546-2.551 1.8801-1.6374 7.3867 0.97668 7.5583v3.0466-3.0466c2.3164 0.34972 5.3128 1.3603 6.7092-2.07 3.1797 2.673 6.4674 4.1393 6.8258 9.6338-3.776 0.214-11.107 3.5157-11.704 1.5816l-1.465-1.8258c-0.45377 5.3226 0.24319 9.1573 5.9767 6.9479 2.2708-0.8751 4.8456-0.72478 6.9534 0.48834 4.2032 2.4763 9.2456 4.3801 12.925-2.192-3.6656 6.5141-8.6746 4.7219-12.925 2.192-10.39 9.9803-34.051 2.828-32.808 32.075 4.9374-5.9924 9.5568-12.409 17.32-14.634-3.1533 6.1881-3.2152 11.737 3.0466 15.977-1.743-7.3161 2.9617-12.053 7.5638-16.831-2.8591 5.971-0.44613 11.665 2.8025 17.314 0.96837-6.7727 2.378-13.361 7.1975-18.529-3.5812 6.4732-1.2153 12.227 3.1687 16.826 0.15189-15.2 10.592-18.265 9.7558-30.733z" fill="#fcef3c" fill-rule="evenodd" stroke-width="1px"/>
<path d="m741 601c-6.3306-1.3804-16.992 3.1942-18.634-4.6337-4.9644 2.2735-3.9536 7.2569-0.36626 8.6337 3.6856 1.4146 15.821-4.9935 19-4z" fill="#fcef3c" fill-rule="evenodd" stroke-width="1px"/>
<path d="m740.19 589.27 12.808 4.7325-3-1c0.3001 4.5103-8.0194 4.7577-7.0754-2.4883l-2.7325-1.2442z" fill="#fff" fill-rule="evenodd" stroke-width="1px"/>
<path d="m747.44 591.97c-0.27507 0.49438-0.4375 1.0878-0.4375 1.7188 0 0.92663 0.35766 1.732 0.90625 2.3125 1.2447-0.39332 2.199-1.4174 2.0938-3l2.5 0.8125-5.0625-1.8438z"/>
</g>
</g>
<g>
<path d="m1.5 1.5v458.87c0 166.31 134.31 301.13 300 301.13 165.69 0 300-134.82 300-301.13v-458.87h-600z" fill="url(#a)"/>
<path d="m1.5 1.5v458.87c0 166.31 134.31 301.13 300 301.13 165.69 0 300-134.82 300-301.13v-458.87h-600z" fill="none" stroke="#000" stroke-width="3"/>
</g>
</svg>
