<?xml version="1.0" encoding="UTF-8" standalone="no"?>
<!-- Created with Inkscape (http://www.inkscape.org/) -->
<svg
   xmlns:svg="http://www.w3.org/2000/svg"
   xmlns="http://www.w3.org/2000/svg"
   version="1.0"
   width="209.25626"
   height="245.1111"
   id="svg2780">
  <defs
     id="defs2782" />
  <g
     transform="translate(-18.805046,-807.66327)"
     id="layer1">
    <path
       d="M 19.805046,808.66327 L 23.573338,966.96818 C 26.264967,1080.0431 220.60137,1080.0431 223.29301,966.96818 L 227.0613,808.66327 L 19.805046,808.66327 z"
       id="path3282"
       style="fill:#fbe130;fill-opacity:1;fill-rule:evenodd;stroke:#000000;stroke-width:2;stroke-linecap:butt;stroke-miterlimit:4;stroke-dashoffset:0;stroke-opacity:1" />
    <path
       d="M 70,169.28125 C 68.049855,169.35698 65.919296,170.1837 64.125,171.625 C 67.670511,171.71852 71.153924,173.15712 70.875,174.6875 C 66.212865,176.69503 68.234684,182.26601 70.15625,185.6875 C 65.815682,186.39214 61.088555,188.30625 59.71875,194.12312 C 62.260353,192.42954 64.547351,190.39182 65.967495,190.12594 C 66.174371,193.67256 70.395584,198.21749 73.125,197.84375 C 74.306014,197.68203 73.757697,198.51022 73.65625,199.21875 C 72.044471,200.26104 71.068312,202.45316 71.65625,207.125 C 73.437928,204.07446 74.51607,202.60475 75.90625,201.96875 C 78.378517,204.18124 82.194606,205.3736 87.125,200.84375 C 90.102238,198.1084 82.998943,190.51911 78.1875,185.40625 C 78.330245,182.67541 79.129708,175.46292 78.875,174.21875 C 78.261135,172.75344 76.830507,172.9692 75.5,173 C 74.714105,170.32768 72.507329,169.18388 70,169.28125 z"
       transform="translate(0,804.33069)"
       id="path3450"
       style="opacity:1;fill:#000000;fill-opacity:1;fill-rule:evenodd;stroke:#fbe130;stroke-width:1px;stroke-linecap:butt;stroke-linejoin:miter;marker:none;marker-start:none;marker-mid:none;marker-end:none;stroke-miterlimit:4;stroke-dasharray:none;stroke-dashoffset:0;stroke-opacity:1;visibility:visible;display:inline;overflow:visible;enable-background:accumulate" />
    <path
       d="M 73.988004,995.36738 C 82.516982,1007.0581 88.582677,1006.8907 94.891539,1005.0387 C 102.05822,1002.9349 104.04414,1001.8728 99.177365,999.61425 C 93.978622,997.20165 83.658463,986.44666 78.206314,985.25826 C 74.113305,986.07676 71.862732,992.45427 73.988004,995.36738 z"
       id="path3460"
       style="opacity:1;fill:#000000;fill-opacity:1;fill-rule:evenodd;stroke:#fbe130;stroke-width:1px;stroke-linecap:butt;stroke-linejoin:round;marker:none;marker-start:none;marker-mid:none;marker-end:none;stroke-miterlimit:4;stroke-dasharray:none;stroke-dashoffset:0;stroke-opacity:1;visibility:visible;display:inline;overflow:visible;enable-background:accumulate" />
    <path
       d="M 141.3125,134.5625 C 126.52315,134.65428 107.9791,138.95716 102.4375,156.84375 C 103.63924,155.92795 105.36373,153.9544 106.875,153.4375 C 105.39492,155.9144 105.88119,162.91905 106.3125,166.84375 C 108.30449,163.86771 109.75637,162.79155 111,162.4375 C 110.58308,164.79927 111.34985,169.45953 112.1875,171.5625 C 113.75114,170.76785 114.71137,169.55763 115.6875,167.5625 C 117.03769,169.30797 117.83142,171.20409 116.65625,172.21875 C 109.37604,178.50454 103.52835,181.88969 94.375,184.84375 C 91.239579,185.85564 89.235663,186.01798 88.34375,184.90625 C 86.940317,183.15694 85.384699,182.00644 87.03125,180.0625 C 91.536861,174.74311 87.600595,167.60595 80.71875,168.25 C 82.00792,169.3289 83.071214,170.74566 83.53125,172.21875 C 82.324793,172.13456 81.070751,172.14152 80,172.25 C 77.550526,172.49816 77.488521,177.4183 78.21875,180.9375 C 80.075864,189.88751 96.794105,194.01827 96.59375,200.125 C 98.521844,200.1623 106.92954,200.15365 110.6875,199.28125 C 109.79488,198.03475 106.73046,196.8072 104.8125,195.9375 C 106.15994,195.7572 115.05771,195.8364 118.09375,195.21875 C 117.51388,193.97762 115.17181,192.90296 114.34375,192.65625 C 118.5302,191.68526 123.63951,191.70937 126.15625,190.53125 C 124.78594,190.09116 123.28554,189.25759 122.1875,188.90625 C 127.19606,187.71025 131.06355,187.01755 134.5625,184.96875 C 132.38211,184.31265 130.19611,184.16892 128.03125,183.90625 C 131.35194,182.60217 136.2579,181.33832 140.9375,178.53125 C 139.35754,178.37464 137.73897,177.82665 135.78125,177.40625 C 139.20827,175.52195 142.38493,174.8882 143.59375,172.625 C 133.41572,170.63024 132.17862,165.858 134.6875,160.8125 C 137.31773,155.5229 146.06709,153.84558 154.25,153.6875 C 155.45569,152.0382 158.92275,139.23831 157.59375,136.1875 C 153.99998,135.36908 148.03493,134.52078 141.3125,134.5625 z"
       transform="translate(0,804.33069)"
       id="path3432"
       style="opacity:1;fill:#000000;fill-opacity:1;fill-rule:evenodd;stroke:#fbe130;stroke-width:1px;stroke-linecap:butt;stroke-linejoin:miter;marker:none;marker-start:none;marker-mid:none;marker-end:none;stroke-miterlimit:4;stroke-dasharray:none;stroke-dashoffset:0;stroke-opacity:1;visibility:visible;display:inline;overflow:visible;enable-background:accumulate" />
    <path
       d="M 140.46875,209.125 C 143.02671,209.05953 145.23796,209.6314 146.65688,210.71906 C 144.86132,211.90194 143.41047,212.59842 141.98131,215.35469 L 152.08415,221.22558 C 158.37224,209.74699 149.21566,205.18977 140.46875,209.125 z"
       transform="translate(0,804.33069)"
       id="path3437"
       style="opacity:1;fill:#000000;fill-opacity:1;fill-rule:evenodd;stroke:#fbe130;stroke-width:1px;stroke-linecap:butt;stroke-linejoin:miter;marker:none;marker-start:none;marker-mid:none;marker-end:none;stroke-miterlimit:4;stroke-dasharray:none;stroke-dashoffset:0;stroke-opacity:1;visibility:visible;display:inline;overflow:visible;enable-background:accumulate" />
    <path
       d="M 43.9375,42.125 C 47.328992,41.948825 49.165215,41.686149 50.71875,42.9375 C 50.078127,47.501938 50.878769,49.622489 53.15625,51.3125 C 49.638277,51.962942 46.057098,53.149604 43.5625,56.46875 C 46.257326,56.254515 49.254845,55.795495 51.375,56.5 C 51.790127,59.69174 53.981503,62.734654 58.71875,62.625 L 60.719377,41.589672 C 58.289603,39.210053 49.865191,37.199426 43.9375,42.125 z"
       transform="translate(0,804.33069)"
       id="path3441"
       style="opacity:1;fill:#000000;fill-opacity:1;fill-rule:evenodd;stroke:#fbe130;stroke-width:1px;stroke-linecap:butt;stroke-linejoin:miter;marker:none;marker-start:none;marker-mid:none;marker-end:none;stroke-miterlimit:4;stroke-dasharray:none;stroke-dashoffset:0;stroke-opacity:1;visibility:visible;display:inline;overflow:visible;enable-background:accumulate" />
    <path
       d="M 59.125,96.5625 C 61.021546,97.904996 61.257328,99.902525 61.437814,101.4353 C 58.548099,101.19581 56.265325,101.30862 54.71875,104.46875 L 62.3125,114.53125 C 67.777139,108.78259 67.406891,95.970369 59.125,96.5625 z"
       transform="translate(0,804.33069)"
       id="path3462"
       style="opacity:1;fill:#000000;fill-opacity:1;fill-rule:evenodd;stroke:#fbe130;stroke-width:1px;stroke-linecap:butt;stroke-linejoin:miter;marker:none;marker-start:none;marker-mid:none;marker-end:none;stroke-miterlimit:4;stroke-dasharray:none;stroke-dashoffset:0;stroke-opacity:1;visibility:visible;display:inline;overflow:visible;enable-background:accumulate" />
    <path
       d="M 151.53676,949.07061 C 151.50526,946.70858 151.32175,946.85417 149.11782,945.1769 C 144.89292,941.96159 145.5064,943.29829 146.90619,945.80264 C 147.79916,947.40024 148.87102,950.53129 149.79309,951.86885 C 150.7108,953.20009 151.60116,953.89904 151.53676,949.07061 z"
       id="path3489"
       style="opacity:1;fill:#fbe130;fill-opacity:1;fill-rule:evenodd;stroke:none;stroke-width:1px;stroke-linecap:butt;stroke-linejoin:round;marker:none;marker-start:none;marker-mid:none;marker-end:none;stroke-miterlimit:4;stroke-dasharray:none;stroke-dashoffset:0;stroke-opacity:0.56862745;visibility:visible;display:inline;overflow:visible;enable-background:accumulate" />
    <path
       d="M 216.0232,887.88828 C 215.50457,890.37557 214.32307,892.83254 212.3841,894.87562 C 214.32307,892.83254 215.50457,890.37557 216.0232,887.88828 C 217.21683,881.09286 213.89618,874.00543 206.3125,874.73694 C 214.08799,879.10499 209.85875,884.60085 205.78125,887.54944 C 196.2339,894.45349 188.76006,900.77407 190.8125,911.26819 C 194.5494,930.37495 206.32526,933.2876 207.8125,943.67444 C 208.66893,949.6558 204.2198,958.25799 195.65625,958.48694 C 188.35049,958.68514 178.38314,950.67905 174.65625,938.64319 C 171.6188,928.83383 168.52327,917.14347 168.125,908.42444 C 152.73287,902.75713 128.64906,912.2247 127.84375,923.61194 C 141.36433,927.51435 148.38502,938.46457 154.29833,950.12508 C 154.87595,948.63054 154.827,943.4317 154.79694,938.4504 C 154.827,943.4317 154.87595,948.63054 154.29833,950.12508 C 151.01155,958.62923 149.89606,971.84117 155.97462,982.86551 C 156.662,980.50143 156.87048,977.00729 157.9375,976.14319 C 157.97928,980.5597 160.49304,985.0395 164.34375,988.29944 C 163.90283,985.20976 164.63004,982.04744 165.1875,980.79944 C 165.5307,984.39702 169.11093,989.99834 172.9375,991.98694 C 172.8403,990.1284 172.35994,986.50979 172.5625,985.58069 C 174.02948,986.78439 175.71318,988.08382 175.78125,989.61194 C 176.56426,1007.0637 163.95591,1022.2813 158.3125,1024.6119 C 153.01302,1026.8004 149.61201,1022.325 145.471,1018.5573 C 143.41634,1016.6878 143.45349,1018.5403 141.73228,1019.5338 C 137.16293,1017.0012 132.91933,1017.9665 130.8125,1021.3307 C 133.47406,1020.5709 135.82279,1020.6774 137.53125,1021.5807 C 136.38403,1030.7407 138.83599,1029.116 141.73228,1028.8768 C 143.28754,1028.7483 144.3986,1027.8921 145.68507,1028.7961 C 144.3986,1027.8921 143.28754,1028.7483 141.73228,1028.8768 C 138.83599,1029.116 132.63752,1034.6456 134.21609,1040.3447 C 135.67702,1037.5572 137.61278,1035.6751 139.625,1035.2994 C 141.04588,1037.1209 142.96515,1037.9389 144.3668,1037.9642 C 149.47419,1038.0566 146.70062,1037.1458 153.25991,1033.7628 C 146.70062,1037.1458 147.97754,1042.6661 149.40625,1046.3932 C 150.10022,1043.4805 150.6919,1041.6658 152.21875,1040.2682 C 153.81176,1040.8891 155.52243,1041.1332 156.1875,1040.4244 C 158.3311,1038.14 160.63251,1037.1489 165,1036.0494 C 166.68941,1035.6242 169.70831,1032.4867 172.84375,1030.2682 C 177.28171,1027.1281 182.31025,1024.4415 184.84375,1022.2994 C 183.83901,1021.9021 180.7734,1021.745 178.34375,1022.0807 C 181.4829,1019.6778 188.04519,1013.8358 190.53125,1010.7057 C 189.25409,1010.4071 188.18369,1010.703 185.8125,1010.9557 C 189.71666,1008.0681 193.4897,1002.2903 196.375,999.73694 C 194.54942,999.22381 192.86624,999.00207 190.03125,1001.6119 C 192.89901,996.86164 197.51153,989.99129 198.0625,987.01819 C 196.67639,987.51022 194.86635,988.71669 192.875,990.20569 C 193.46885,987.9904 197.65471,981.19566 196.9375,977.29944 C 195.76667,977.79073 192.90867,981.86224 191.40625,982.20569 C 191.95118,980.22919 194.31528,973.40738 194.25,969.79944 C 182.99315,983.53272 178.71844,961.60159 176.40625,953.89319 C 189.44965,969.166 211.0726,965.34091 213.71875,946.33069 C 214.96587,937.37141 200.643,926.56644 197.5625,915.33069 C 196.40505,911.10902 199.53207,907.62528 201.625,907.45569 C 221.97688,905.79649 218.93579,888.01285 216.0232,887.88828 z"
       id="path3477"
       style="opacity:1;fill:#000000;fill-opacity:1;fill-rule:evenodd;stroke:#fbe130;stroke-width:1px;stroke-linecap:butt;stroke-linejoin:miter;marker:none;marker-start:none;marker-mid:none;marker-end:none;stroke-miterlimit:4;stroke-dasharray:none;stroke-dashoffset:0;stroke-opacity:1;visibility:visible;display:inline;overflow:visible;enable-background:accumulate" />
    <path
       d="M 66.247804,839.76376 C 58.491684,844.94453 75.240542,877.5492 69.076229,874.43479 C 75.240542,877.5492 58.491684,844.94453 66.247804,839.76376 C 67.304656,839.05782 72.440136,838.97497 73.65625,840.73694 C 74.25665,839.15848 74.660503,836.93593 72.65625,835.01819 C 80.348117,836.28243 76.48523,845.44641 73.78125,848.45569 C 70.936085,851.62209 71.174827,857.35011 75,861.45569 C 84.728286,871.89711 111.34738,878.92807 125.6875,887.29944 L 111.21875,911.58069 C 103.46189,909.36363 96.551604,899.56162 92.8125,894.73694 C 92.657703,895.87452 93.389041,899.88089 93.125,901.14319 C 91.392316,899.32283 85.386068,892.05267 84.09375,888.20569 C 83.741418,889.37959 84.008454,894.2559 83.65625,895.51819 C 79.427259,890.37784 78.569384,889.70667 76.21875,883.86194 C 76.085333,885.47621 76.205869,888.40013 75.375,889.54944 C 73.789045,886.44923 70.614486,878.40262 67.46875,876.98694 C 52.140005,870.08851 54.496328,848.70497 60.643914,846.54836 C 54.137886,848.8658 55.650325,839.17219 59.375,838.70569 C 58.167899,836.88791 55.164108,835.51875 52.625,834.26819 C 57.182943,832.10047 61.783537,833.74184 66.247804,839.76376 z"
       id="path3435"
       style="opacity:1;fill:#000000;fill-opacity:1;fill-rule:evenodd;stroke:#fbe130;stroke-width:0.99921262;stroke-linecap:butt;stroke-linejoin:miter;marker:none;marker-start:none;marker-mid:none;marker-end:none;stroke-miterlimit:4;stroke-dasharray:none;stroke-dashoffset:0;stroke-opacity:1;visibility:visible;display:inline;overflow:visible;enable-background:accumulate" />
    <path
       d="M 200.42337,843.08608 C 201.26089,843.09801 202.04171,842.99652 203.52229,844.29457 C 202.9175,841.23865 201.07961,837.89346 198.6466,836.04257 C 197.97892,837.10683 197.0284,838.19628 195.7472,839.27188 C 197.0284,838.19628 197.97892,837.10683 198.6466,836.04257 C 203.07459,828.98448 195.06226,823.03444 188.55993,829.58158 C 190.25199,825.29797 180.61728,816.88236 176.61256,828.752 C 172.53399,837.27258 188.36834,846.52539 172.91239,865.79111 C 169.9578,868.97005 164.22726,869.67592 157.70898,867.18219 C 157.93046,868.27534 158.41789,870.32442 159.44882,871.04474 C 154.71416,868.96642 149.48495,867.76163 145.8727,868.29998 C 147.36746,869.08911 148.86277,870.50127 149.98253,871.29087 C 140.08303,870.66485 134.08085,871.16798 130.9097,873.65717 C 132.9511,873.74221 135.33426,874.4412 136.87713,875.02357 C 132.34334,876.37051 121.10634,880.97481 119.42318,885.3352 C 120.43803,885.18963 124.94965,884.35985 126.1801,884.13821 C 118.63163,888.85634 107.06277,904.72881 107.13447,908.22444 C 125.8311,917.84497 135.75732,918.83912 144.93918,915.44432 C 144.54423,917.15933 143.24283,918.87433 140.85328,920.58934 C 146.77145,919.96534 153.62774,917.33105 161.87138,911.7239 C 161.75245,913.85533 160.30199,916.31964 158.88864,918.77467 C 166.26904,915.27458 171.6209,910.62128 174.20132,903.72571 C 174.11591,905.7142 174.03051,907.78488 173.9451,910.42943 C 177.09788,906.4185 180.40305,902.19422 181.91451,897.52676 L 182.23501,905.95145 C 185.03408,901.1883 187.39794,895.98994 189.53352,890.56331 L 190.45747,897.29415 C 193.66399,890.70767 195.88646,883.84003 196.76676,876.58892 C 198.01076,877.52673 198.34267,880.86943 198.93911,883.42613 C 200.38269,878.97265 201.75123,869.81711 200.83757,865.52856 C 201.75108,867.04393 202.66458,868.60962 203.57808,870.45367 C 203.7663,867.42042 203.52439,856.73299 201.79209,853.64996 C 203.15829,854.99619 204.37549,857.073 205.54737,858.37695 C 205.29725,855.5182 202.12771,844.49125 200.42337,843.08608 z"
       id="path3493"
       style="opacity:1;fill:#000000;fill-opacity:1;fill-rule:evenodd;stroke:#fbe130;stroke-width:1px;stroke-linecap:butt;stroke-linejoin:round;marker:none;marker-start:none;marker-mid:none;marker-end:none;stroke-miterlimit:4;stroke-dasharray:none;stroke-dashoffset:0;stroke-opacity:1;visibility:visible;display:inline;overflow:visible;enable-background:accumulate" />
    <path
       d="M 183.24365,866.42064 C 179.66142,866.93899 177.37845,866.25843 175.37876,866.46224 C 173.37907,866.66605 171.19462,862.58647 169.88058,865.03793 C 168.97094,866.73496 166.17878,868.14116 165.07111,864.40487 C 164.63307,862.92729 161.96903,860.04717 165.14835,860.39799 C 164.89999,858.21443 165.05192,856.43115 165.46791,854.91193 C 166.20517,856.8661 166.94244,858.66669 167.6797,859.96039 C 167.86213,857.90354 168.6531,855.56756 169.16714,854.17393 C 169.84418,855.74534 169.7129,857.8155 170.99699,859.38691 C 174.694,859.98039 175.87698,860.35763 174.57932,855.44512 C 172.5283,847.68063 171.41221,847.68287 170.68255,845.05672 C 170.26214,843.54363 167.36355,843.40745 166.45534,843.76733 C 166.794,845.62345 166.71842,847.73529 167.45711,851.26136 C 164.45521,850.04935 163.23112,845.58904 163.23112,845.58904 C 163.12655,847.0819 162.95799,848.63988 162.88223,851.0848 C 161.6843,850.53724 160.46702,848.20219 160.34885,846.6871 C 158.49213,846.59183 157.92522,846.33017 157.41724,845.84833 C 154.49469,843.0762 156.64814,839.86578 158.53209,838.89827 C 157.0495,839.05294 155.42881,838.57528 154.63842,837.92197 C 155.47703,836.04941 158.44339,835.15261 159.88053,834.62213 C 161.27297,834.10816 162.20997,833.71899 163.82932,831.97468 C 165.92298,829.71946 168.50111,827.92523 172.30045,827.80054 C 177.03247,827.64524 178.97525,827.79409 184.45042,827.55249 C 186.15277,827.47737 190.94589,827.21341 193.60936,828.82239 C 179.22683,834.68592 201.52258,863.77569 183.24365,866.42064 z"
       id="path3496"
       style="opacity:1;fill:#000000;fill-opacity:1;fill-rule:evenodd;stroke:#fbe130;stroke-width:1px;stroke-linecap:butt;stroke-linejoin:round;marker:none;marker-start:none;marker-mid:none;marker-end:none;stroke-miterlimit:4;stroke-dasharray:none;stroke-dashoffset:0;stroke-opacity:1;visibility:visible;display:inline;overflow:visible;enable-background:accumulate" />
    <path
       d="M 156.68144,860.13021 C 153.66636,863.42082 147.22583,864.64297 146.40463,862.44198 C 145.83804,860.9234 145.92412,860.49199 145.89436,859.32561 C 145.82117,856.45692 147.3352,857.46188 149.0982,858.60247 C 150.44182,859.47175 153.39661,857.48029 155.99322,855.48597 C 161.84948,850.9881 172.76223,851.37425 173.11373,854.82717 C 163.85511,854.00343 160.20973,856.2795 156.68144,860.13021 z"
       id="path3483"
       style="opacity:1;fill:#b50e18;fill-opacity:1;fill-rule:evenodd;stroke:#151518;stroke-width:1px;stroke-linecap:butt;stroke-linejoin:miter;marker:none;marker-start:none;marker-mid:none;marker-end:none;stroke-miterlimit:4;stroke-dasharray:none;stroke-dashoffset:0;stroke-opacity:1;visibility:visible;display:inline;overflow:visible;enable-background:accumulate" />
    <path
       d="M 136.79252,26.795313 A 1.9319216,1.9319216 0 1 1 132.92867,26.795313 A 1.9319216,1.9319216 0 1 1 136.79252,26.795313 z"
       transform="matrix(1.3872404,0,0,1.3872404,-16.254643,798.45708)"
       id="path4143"
       style="opacity:1;fill:none;fill-opacity:1;fill-rule:evenodd;stroke:#fbe130;stroke-width:0.72028798;stroke-linecap:butt;stroke-linejoin:round;marker:none;marker-start:none;marker-mid:none;marker-end:none;stroke-miterlimit:4;stroke-dasharray:none;stroke-dashoffset:0;stroke-opacity:1;visibility:visible;display:inline;overflow:visible;enable-background:accumulate" />
    <path
       d="M 168.08807,831.70158 C 168.08807,831.70158 166.70538,832.70314 166.09111,833.50614 C 168.96806,832.56353 173.92613,832.82903 175.06639,832.38803"
       id="path4148"
       style="opacity:1;fill:none;fill-opacity:1;fill-rule:evenodd;stroke:#fbe130;stroke-width:0.99921262;stroke-linecap:round;stroke-linejoin:round;marker:none;marker-start:none;marker-mid:none;marker-end:none;stroke-miterlimit:4;stroke-dasharray:none;stroke-dashoffset:0;stroke-opacity:1;visibility:visible;display:inline;overflow:visible;enable-background:accumulate" />
    <path
       d="M 136.79252,26.795313 A 1.9319216,1.9319216 0 1 1 132.92867,26.795313 A 1.9319216,1.9319216 0 1 1 136.79252,26.795313 z"
       transform="matrix(0.6127597,0,0,0.6127597,88.192286,817.7133)"
       id="path3545"
       style="opacity:1;fill:#fbe130;fill-opacity:1;fill-rule:evenodd;stroke:none;stroke-width:1.63196111px;stroke-linecap:butt;stroke-linejoin:round;marker:none;marker-start:none;marker-mid:none;marker-end:none;stroke-miterlimit:4;stroke-dasharray:none;stroke-dashoffset:0;stroke-opacity:0.56862745;visibility:visible;display:inline;overflow:visible;enable-background:accumulate" />
    <path
       d="M 51.75,918.01819 C 50.281961,916.4474 48.66761,915.74901 47.5,915.01819 C 46.922473,914.65671 36.452798,913.89016 34.341043,922.03062 C 37.32791,919.71492 40.307043,918.2647 41.75,919.23694 C 41.243234,924.15505 43.265415,928.65543 46.84375,927.61194 C 47.946357,927.29041 50.030111,927.11434 52.53125,925.98694 C 50.030111,927.11434 47.946357,927.29041 46.84375,927.61194 C 45.564234,927.98507 45.586685,928.61381 46.25,929.45569 C 43.516879,930.48656 40.464109,933.95278 40.34375,937.01819 C 42.595574,934.68813 46.825128,932.79997 49.34375,932.20569 C 55.204525,938.33324 56.828454,934.50941 58.626255,935.98819 C 67.249569,943.08134 72.239415,933.86976 74.3125,934.33069 C 78.61349,935.28699 83.823641,937.10006 89.217182,936.04819 C 88.56264,934.96966 86.32698,933.03946 84.813441,932.14444 C 88.980468,933.31782 93.17552,934.49108 98.803834,933.34386 C 96.890997,932.26773 93.793755,931.08077 93.151975,929.84575 C 97.679467,930.70496 103.62582,931.59798 108.52164,930.64978 C 106.99058,929.48446 103.56604,928.11645 103.4651,926.7776 C 106.54819,927.55859 112.93813,929.39524 116.95475,928.61131 C 115.58514,927.56788 114.422,926.37853 113.64351,925.17601 C 116.06506,924.83819 120.96968,927.54708 125.93538,927.55603 C 124.01575,925.69468 122.98859,923.38092 122.36163,922.71102 C 125.97123,922.27696 129.15334,925.88076 127.31219,925.16597 C 146.53912,912.49192 134.15876,896.84561 118.43875,898.95569 C 98.849824,901.58509 93.27118,915.67925 70.866142,920.51725 C 60.682998,922.71613 57.56437,904.10515 52.15625,905.01819 C 50.214105,902.51423 44.504189,900.73001 41.035328,904.01819 C 43.569533,904.37801 47.065021,905.07691 48.186873,906.14507 C 45.53603,908.863 45.189893,913.57226 47.5,915.01819 C 48.66761,915.74901 50.281961,916.4474 51.75,918.01819 z"
       id="path3471"
       style="opacity:1;fill:#000000;fill-opacity:1;fill-rule:evenodd;stroke:#fbe130;stroke-width:1.00000012px;stroke-linecap:butt;stroke-linejoin:miter;marker:none;marker-start:none;marker-mid:none;marker-end:none;stroke-miterlimit:4;stroke-dasharray:none;stroke-dashoffset:0;stroke-opacity:1;visibility:visible;display:inline;overflow:visible;enable-background:accumulate" />
    <rect
       width="45.493942"
       height="45.493942"
       x="100.50987"
       y="5.0444765"
       transform="translate(0,804.33069)"
       id="rect6923"
       style="opacity:1;fill:#ffffff;fill-opacity:1;fill-rule:evenodd;stroke:#000000;stroke-width:0.99921262;stroke-linecap:butt;stroke-linejoin:miter;marker:none;marker-start:none;marker-mid:none;marker-end:none;stroke-miterlimit:4;stroke-dasharray:none;stroke-dashoffset:0;stroke-opacity:1;visibility:visible;display:inline;overflow:visible;enable-background:accumulate" />
    <path
       d="M 114.69986,851.4541 L 130.89679,851.45411 C 126.94483,847.12348 126.45054,842.84134 126.45054,835.31753 C 133.97436,835.31753 138.2565,835.81182 142.58713,839.76376 L 142.58713,823.56682 C 138.2565,827.51876 133.97436,828.01305 126.45054,828.01305 C 126.45054,820.48924 126.94483,816.2071 130.89679,811.87647 L 114.69985,811.87647 C 118.65181,816.2071 119.1461,820.48924 119.1461,828.01305 C 111.62228,828.01305 107.34014,827.51876 103.00951,823.56682 L 103.00951,839.76376 C 107.34014,835.8118 111.62228,835.31751 119.14609,835.31751 C 119.14609,842.84133 118.65179,847.12348 114.69986,851.4541 z"
       id="path6987"
       style="fill:#000000;fill-opacity:1;fill-rule:evenodd;stroke:none;stroke-width:0.99999988px;stroke-linecap:butt;stroke-linejoin:miter;stroke-opacity:1" />
  </g>
</svg>
