<?xml version="1.0" encoding="iso-8859-1"?>
<!DOCTYPE svg PUBLIC "-//W3C//DTD SVG 1.1//EN" "http://www.w3.org/Graphics/SVG/1.1/DTD/svg11.dtd">
<!-- Auto-generated by fig2svg tool
     Date: Thu Nov  2 14:49:27 2006 -->
<svg xmlns="http://www.w3.org/2000/svg"
   xmlns:dc="http://purl.org/dc/elements/1.1/"
   xmlns:cc="http://creativecommons.org/ns#"
   xmlns:rdf="http://www.w3.org/1999/02/22-rdf-syntax-ns#"
   xmlns:svg="http://www.w3.org/2000/svg"
   xmlns:xlink="http://www.w3.org/1999/xlink"
     width="438" height="480" viewBox="21 15 438 480">
<metadata>
<rdf:RDF xmlns:rdf="http://www.w3.org/1999/02/22-rdf-syntax-ns#"
         xmlns:dc="http://purl.org/dc/elements/1.1/">
<rdf:Description
 dc:title="Wappen Jenins (CH-GR)"
 dc:date="2006-11-02"
 dc:format="image/svg+xml"
 dc:language="de">
<dc:creator rdf:resource="http://de.wikipedia.org/wiki/Benutzer:Bernina" />
</rdf:Description>
</rdf:RDF>
</metadata>
<title>
Wappen Jenins (CH-GR)
</title>
<style type="text/css">
  <![CDATA[
  .Rand2 { stroke: #202020; stroke-width:30; }
  .Rand6 { stroke: #202020; stroke-width:90; }
  .Schwarz6 { stroke: #000000; stroke-width:90; }
  .Schwarz { fill: #000000; }
  .Blau { fill: #0000ff; }
  .Grün { fill: #00b200; }
  .Silber { fill: #ffffff; }
  ]]>
</style>
<defs>
<circle id="beere1-1" cx="1094" cy="4090" r="180" />
<circle id="beere1-2" cx="1102" cy="4466" r="180" />
<circle id="beere1-3" cx="1168" cy="4856" r="180" />
<circle id="beere1-4" cx="1252" cy="5246" r="180" />
<circle id="beere1-5" cx="2496" cy="5156" r="180" />
<circle id="beere1-6" cx="2234" cy="5434" r="180" />
<circle id="beere1-7" cx="2482" cy="3580" r="180" />
<circle id="beere1-8" cx="2482" cy="3874" r="180" />
<circle id="beere1-9" cx="2526" cy="4278" r="180" />
<circle id="beere1-10" cx="2556" cy="4714" r="180" />
<circle id="beere1-11" cx="1078" cy="3716" r="180" />
<circle id="beere2-1" cx="1440" cy="4680" r="202" />
<circle id="beere2-2" cx="2250" cy="4590" r="202" />
<circle id="beere2-3" cx="1544" cy="5516" r="202" />
<circle id="beere2-4" cx="1544" cy="5088" r="202" />
<circle id="beere2-5" cx="2188" cy="5036" r="202" />
<circle id="beere2-6" cx="2196" cy="3738" r="180" />
<circle id="beere2-7" cx="2182" cy="4158" r="202" />
<circle id="beere3-1" cx="1350" cy="4230" r="202" />
<circle id="beere3-2" cx="1342" cy="3768" r="202" />
<circle id="beere3-3" cx="1942" cy="5644" r="202" />
<circle id="beere3-4" cx="1882" cy="5208" r="202" />
<circle id="beere3-5" cx="1844" cy="4736" r="202" />
<circle id="beere3-6" cx="1806" cy="4278" r="216" />
<circle id="beere3-7" cx="1792" cy="3768" r="202" />
<clipPath id="clippath">
<path d="M360,4140 A3240,3240 0.0 0 0 6840,4140 L6840,270 L360,270 L360,4140 Z" />
</clipPath>
</defs>
<g stroke="none" stroke-miterlimit="10" stroke-width="10"
   stroke-linecap="butt" stroke-linejoin="miter"
   fill="none" fill-rule="evenodd" transform="scale(0.066667)">
<g clip-path="url(#clippath)">
<path id="feld-1" class="Silber"
      d="M-225,-225 L-225,7425 L7425,7425 L7425,-225 L-225,-225 Z" />
<path id="traube-schwarz-1" class="Schwarz Rand2"
      d="M6002,5216 L6128,3730 L5806,3670 L5580,3420 L5360,3200 L5130,3420
         L5042,3640 L4770,3690 L4696,3940 L4674,4294 L4636,4706 L4682,5164
         L4936,5440 L5228,5696 L5632,5576 L6002,5216 Z" />
<path id="traube-schwarz-2" class="Schwarz Rand2"
      d="M1198,5216 L1568,5576 L1972,5696 L2264,5440 L2518,5164 L2564,4706
         L2526,4294 L2504,3940 L2430,3690 L2158,3640 L2070,3420 L1840,3200
         L1620,3420 L1394,3670 L1072,3730 L1198,5216 Z" />
<path id="ranke-1" class="Schwarz6"
      d="M5040,6030 C5100,6030 5160,6030 5190,6060
         C5220,6090 5220,6150 5205,6195 C5190,6240 5160,6270 5115,6300
         C5070,6330 5010,6360 4920,6390 C4830,6420 4710,6450 4605,6495
         C4500,6540 4410,6600 4320,6660" />
<path id="ranke-2" class="Schwarz6"
      d="M2700,5400 C2730,5460 2760,5520 2775,5565
         C2790,5610 2790,5640 2775,5670 C2760,5700 2730,5730 2685,5730
         C2640,5730 2580,5700 2520,5670" />
<path id="ranke-3" class="Schwarz6"
      d="M3150,5220 C3060,5190 2970,5160 2895,5175
         C2820,5190 2760,5250 2730,5295 C2700,5340 2700,5370 2700,5400
         C2700,5430 2700,5460 2730,5490 C2760,5520 2820,5550 2865,5550
         C2910,5550 2940,5520 2970,5490" />
<path id="ranke-4" class="Schwarz6"
      d="M3870,5130 C3960,5100 4050,5070 4140,5085
         C4230,5100 4320,5160 4365,5235 C4410,5310 4410,5400 4380,5475
         C4350,5550 4290,5610 4230,5625 C4170,5640 4110,5610 4050,5580" />
<path id="ranke-5" class="Schwarz6"
      d="M4410,5400 C4350,5490 4290,5580 4290,5655
         C4290,5730 4350,5790 4410,5820 C4470,5850 4530,5850 4575,5820
         C4620,5790 4650,5730 4650,5685 C4650,5640 4620,5610 4590,5580" />
<path id="ranke-6" class="Schwarz6"
      d="M4230,2520 C4350,2580 4470,2640 4530,2700
         C4590,2760 4590,2820 4590,2880 C4590,2940 4590,3000 4560,3030
         C4530,3060 4470,3060 4425,3045 C4380,3030 4350,3000 4320,2970" />
<path id="ranke-7" class="Schwarz6"
      d="M4230,2520 C4350,2580 4470,2640 4545,2730
         C4620,2820 4650,2940 4680,3015 C4710,3090 4740,3120 4785,3135
         C4830,3150 4890,3150 4920,3135 C4950,3120 4950,3090 4950,3060" />
<path id="ranke-8" class="Schwarz6"
      d="M2520,2700 C2490,2790 2460,2880 2460,2970
         C2460,3060 2490,3150 2550,3195 C2610,3240 2700,3240 2775,3210
         C2850,3180 2910,3120 2940,3060 C2970,3000 2970,2940 2940,2895
         C2910,2850 2850,2820 2805,2820 C2760,2820 2730,2850 2700,2880" />
<path id="ranke-9" class="Schwarz6"
      d="M2520,2610 C2490,2730 2460,2850 2430,2940
         C2400,3030 2370,3090 2325,3105 C2280,3120 2220,3090 2160,3060" />
<path id="ranke-10" class="Schwarz6"
      d="M3330,720 C3300,750 3270,780 3225,810 C3180,840 3120,870 3075,840
         C3030,810 3000,720 2970,630" />
<path id="ranke-11" class="Schwarz6"
      d="M3690,900 C3690,840 3690,780 3675,735 C3660,690 3630,660 3585,645
         C3540,630 3480,630 3435,645 C3390,660 3360,690 3330,720
         C3300,750 3270,780 3270,810 C3270,840 3300,870 3330,900" />
<path id="ranke-12" class="Schwarz6"
      d="M3690,900 C3690,840 3690,780 3705,720 C3720,660 3750,600 3795,570
         C3840,540 3900,540 3945,570 C3990,600 4020,660 4050,720" />
<path id="ranke-13" class="Schwarz6"
      d="M3330,1710 C3330,1680 3330,1650 3360,1605
         C3390,1560 3450,1500 3540,1485 C3630,1470 3750,1500 3825,1545
         C3900,1590 3930,1650 3943.33,1699.67
         C3956.67,1749.33 3953.33,1788.67 3945.83,1818.67
         C3938.33,1848.67 3926.67,1869.33 3915,1890" />
<path id="ranke-14" class="Schwarz6"
      d="M3310,1510 C3316.67,1471.67 3323.33,1433.33 3356.67,1376.67
         C3390,1320 3450,1245 3540,1222 C3630,1200 3750,1230 3825,1275
         C3900,1320 3930,1380 3945,1425 C3960,1470 3960,1500 3958,1518
         C3955,1535 3950,1540 3945,1545" />
<path id="ranke-15" class="Schwarz6"
      d="M3330,1260 C3330,1230 3330,1200 3352,1155
         C3375,1110 3420,1050 3480,1020 C3540,990 3615,990 3682,998
         C3750,1005 3810,1020 3848,1050 C3885,1080 3900,1125 3900,1155
         C3900,1185 3885,1200 3870,1215" />
<path id="ranke-16" class="Schwarz6"
      d="M2160,6030 C2130,6060 2100,6090 2085,6120
         C2070,6150 2070,6180 2085,6225 C2100,6270 2130,6330 2198,6375
         C2265,6420 2370,6450 2445,6480 C2520,6510 2565,6540 2632,6585
         C2700,6630 2790,6690 2880,6750" />
<path id="zweig1-1" class="Grün Rand2"
      d="M4005,4860 L3960,5040 C3990,5070 4020,5100 4005,5130
         C3990,5160 3930,5190 3900,5220 C3870,5250 3870,5280 3810,5400
         C3750,5520 3630,5730 3510,5895 C3390,6060 3270,6180 3150,6285
         C3030,6390 2910,6480 2850,6540 C2790,6600 2790,6630 2790,6660
         C2700,6600 2610,6540 2520,6495 C2430,6450 2340,6420 2250,6390
         C2340,6390 2430,6390 2535,6345 C2640,6300 2760,6210 2880,6105
         C3000,6000 3120,5880 3240,5715 C3360,5550 3480,5340 3555,5205
         C3630,5070 3660,5010 3690,4950 L3825,4905" />
<path id="zweig2-1" class="Grün Rand2"
      d="M5040,3690 L5310,3780 C5280,3720 5250,3660 5235,3585
         C5220,3510 5220,3420 5265,3375 C5310,3330 5400,3330 5445,3375
         C5490,3420 5490,3510 5490,3570 C5490,3630 5490,3660 5490,3690
         L5670,3780 C5700,3750 5730,3720 5745,3660
         C5760,3600 5760,3510 5745,3435 C5730,3360 5700,3300 5655,3270
         C5610,3240 5550,3240 5520,3210 C5490,3180 5490,3120 5490,3045
         C5490,2970 5490,2880 5445,2775 C5400,2670 5310,2550 5220,2475
         C5130,2400 5040,2370 4950,2340 L4860,2340
         C4920,2310 4980,2280 5055,2205 C5130,2130 5220,2010 5280,1935
         C5340,1860 5370,1830 5400,1830 C5430,1830 5460,1860 5475,1905
         C5490,1950 5490,2010 5475,2070 C5460,2130 5430,2190 5430,2250
         C5430,2310 5460,2370 5490,2415 C5520,2460 5550,2490 5610,2520
         C5670,2550 5760,2580 5850,2580 C5940,2580 6030,2550 6030,2505
         C6030,2460 5940,2400 5925,2370 C5910,2340 5970,2340 6045,2310
         C6120,2280 6210,2220 6210,2175 C6210,2130 6120,2100 6135,2055
         C6150,2010 6270,1950 6300,1905 C6330,1860 6270,1830 6195,1815
         C6120,1800 6030,1800 5940,1800 C5850,1800 5760,1800 5715,1770
         C5670,1740 5670,1680 5700,1635 C5730,1590 5790,1560 5865,1560
         C5940,1560 6030,1590 6135,1560 C6240,1530 6360,1440 6360,1395
         C6360,1350 6240,1350 6255,1305 C6270,1260 6420,1170 6435,1110
         C6450,1050 6330,1020 6300,990 C6270,960 6330,930 6360,870
         C6390,810 6390,720 6390,630 C6300,600 6210,570 6135,600
         C6060,630 6000,720 5970,705 C5940,690 5940,570 5910,540
         C5880,510 5820,570 5760,630 C5700,690 5640,750 5610,735
         C5580,720 5580,630 5550,615 C5520,600 5460,660 5400,735
         C5340,810 5280,900 5280,990 C5280,1080 5340,1170 5355,1245
         C5370,1320 5340,1380 5310,1410 C5280,1440 5250,1440 5205,1410
         C5160,1380 5100,1320 5085,1245 C5070,1170 5100,1080 5100,1005
         C5100,930 5070,870 5040,810 C5010,750 4980,690 4935,705
         C4890,720 4830,810 4785,810 C4740,810 4710,720 4665,720
         C4620,720 4560,810 4545,915 C4530,1020 4560,1140 4530,1155
         C4500,1170 4410,1080 4380,1110 C4350,1140 4380,1290 4440,1395
         C4500,1500 4590,1560 4575,1590 C4560,1620 4440,1620 4425,1665
         C4410,1710 4500,1800 4590,1845 C4680,1890 4770,1890 4860,1845
         C4950,1800 5040,1710 5100,1680 C5160,1650 5190,1680 5205,1710
         C5220,1740 5220,1770 5160,1845 C5100,1920 4980,2040 4875,2115
         C4770,2190 4680,2220 4575,2235 C4470,2250 4350,2250 4290,2220
         C4230,2190 4230,2130 4215,2100 C4200,2070 4170,2070 4155,2085
         C4140,2100 4140,2130 4125,2160 C4110,2190 4080,2220 4020,2250
         C3960,2280 3870,2310 3765,2370 C3660,2430 3540,2520 3435,2640
         C3330,2760 3240,2910 3150,3060 C3090,3210 3030,3360 2970,3420
         C2910,3480 2850,3450 2850,3480 C2850,3510 2910,3600 2925,3735
         C2940,3870 2910,4050 2910,4245 C2910,4440 2940,4650 3000,4845
         C3060,5040 3150,5220 3225,5370 C3300,5520 3360,5640 3465,5775
         C3570,5910 3720,6060 3885,6180 C4050,6300 4230,6390 4320,6450
         C4410,6510 4410,6540 4410,6570 L4590,6480
         C4710,6450 4830,6420 4898,6390 C4965,6360 4980,6330 4905,6300
         C4830,6270 4665,6240 4508,6180 C4350,6120 4200,6030 4050,5895
         C3900,5760 3750,5580 3630,5400 C3510,5220 3420,5040 3360,4905
         C3300,4770 3270,4680 3270,4620 C3270,4560 3300,4530 3330,4485
         C3360,4440 3390,4380 3375,4365 C3360,4350 3300,4380 3270,4335
         C3240,4290 3240,4170 3240,4050 C3240,3930 3240,3810 3270,3675
         C3300,3540 3360,3390 3420,3255 C3480,3120 3540,3000 3615,2895
         C3690,2790 3780,2700 3870,2625 C3960,2550 4050,2490 4110,2490
         C4170,2490 4200,2550 4230,2565 C4260,2580 4290,2550 4305,2520
         C4320,2490 4320,2460 4365,2445 C4410,2430 4500,2430 4605,2445
         C4710,2460 4830,2490 4935,2535 C5040,2580 5130,2640 5190,2745
         C5250,2850 5280,3000 5250,3090 C5220,3180 5130,3210 5085,3270
         C5040,3330 5040,3420 5040,3495 C5040,3570 5040,3630 5040,3690 Z" />
<path id="zweig3-1" class="Grün Rand2"
      d="M3690,4950 C3690,4950 3689.18,4955.74 3692.81,4952.81
         C3696.45,4949.88 3705,4935 3735,4860
         C3765,4785 3795.82,4700.52 3810.94,4650.37
         C3826.05,4600.21 3837.19,4555 3848,4500
         C3857.81,4445 3863.76,4384.57 3866.88,4324.16
         C3870,4263.75 3870,4211.25 3870,4170
         C3870,4128.75 3870,4090.60 3865.84,4054.16
         C3861.68,4017.72 3853.75,3988 3840,3960
         C3826.25,3932 3803.97,3902.28 3784.16,3874.16
         C3764.35,3846.03 3750,3823.75 3750,3810
         C3750,3796.25 3764.35,3788.32 3784.16,3775.84
         C3803.97,3763.37 3826.25,3748 3840,3720
         C3853.75,3692 3861.68,3647.93 3853.37,3581.29
         C3845.05,3514.65 3821.25,3434.38 3780,3345
         C3738.75,3255.62 3671.90,3139.48 3589.61,3021.24
         C3507.31,2902.99 3420.62,2798.75 3345,2730
         C3269.38,2661.25 3189.86,2614.40 3109.16,2587.87
         C3028.45,2561.33 2956.88,2558.12 2895,2565
         C2833.12,2571.88 2768.72,2590.19 2708.32,2612.08
         C2647.91,2633.97 2599.38,2656.25 2565,2670
         C2530.62,2683.75 2503.61,2691.68 2485.39,2691.68
         C2467.17,2691.68 2460,2683.75 2460,2670
         C2460,2656.25 2467.17,2633.97 2472.92,2610
         C2478.67,2586.03 2481.88,2563.75 2475,2550
         C2468.12,2536.25 2449.81,2528.32 2421.68,2528.32
         C2393.56,2528.32 2359.38,2536.25 2325,2550
         C2290.62,2563.75 2249.27,2586.03 2205,2620.39
         C2160.73,2654.76 2119.38,2696.88 2085,2745
         C2050.62,2793.12 2016.44,2856.77 1990.39,2922.92
         C1964.35,2989.08 1950,3048.75 1950,3090
         C1950,3131.25 1964.35,3162.23 1986.24,3190.84
         C2008.12,3219.46 2034.38,3242 2055,3270
         C2075.62,3298 2094.70,3334.89 2108.76,3377.08
         C2122.83,3419.27 2130,3460.62 2130,3495
         C2130,3529.38 2121.85,3562.32 2104.05,3608.97
         C2086.26,3655.62 2070,3690 2070,3690 L1890,3690
         C1890,3660 1890,3630 1890,3570 C1890,3510 1890,3420 1845,3375
         C1800,3330 1710,3330 1665,3375 C1620,3420 1620,3510 1620,3585
         C1620,3660 1620,3720 1620,3780 L1350,3690
         C1380,3600 1410,3510 1440,3420 C1470,3330 1500,3240 1530,3195
         C1560,3150 1590,3150 1620,3135 C1650,3120 1680,3090 1695,3030
         C1710,2970 1710,2880 1785,2775 C1860,2670 2010,2550 2122,2482
         C2235,2415 2310,2400 2385,2385 L2340,2340
         C2280,2310 2220,2280 2145,2205 C2070,2130 1980,2010 1920,1935
         C1860,1860 1830,1830 1800,1830 C1770,1830 1740,1860 1725,1905
         C1710,1950 1710,2010 1725,2070 C1740,2130 1770,2190 1770,2250
         C1770,2310 1740,2370 1710,2415 C1680,2460 1650,2490 1590,2520
         C1530,2550 1440,2580 1350,2580 C1260,2580 1170,2550 1170,2505
         C1170,2460 1260,2400 1275,2370 C1290,2340 1230,2340 1155,2310
         C1080,2280 990,2220 990,2175 C990,2130 1080,2100 1065,2055
         C1050,2010 930,1950 900,1890 C870,1830 930,1770 1005,1755
         C1080,1740 1170,1770 1260,1785 C1350,1800 1440,1800 1485,1770
         C1530,1740 1530,1680 1500,1635 C1470,1590 1410,1560 1335,1560
         C1260,1560 1170,1590 1065,1560 C960,1530 840,1440 840,1395
         C840,1350 960,1350 945,1305 C930,1260 780,1170 765,1110
         C750,1050 870,1020 900,990 C930,960 870,930 840,870
         C810,810 810,720 810,630 C900,600 990,570 1065,600
         C1140,630 1200,720 1230,705 C1260,690 1260,570 1290,540
         C1320,510 1380,570 1440,630 C1500,690 1560,750 1590,735
         C1620,720 1620,630 1650,615 C1680,600 1740,660 1800,735
         C1860,810 1920,900 1920,990 C1920,1080 1860,1170 1845,1245
         C1830,1320 1860,1380 1890,1410 C1920,1440 1950,1440 1980,1425
         C2010,1410 2040,1380 2055,1305 C2070,1230 2070,1110 2085,1020
         C2100,930 2130,870 2160,810 C2190,750 2220,690 2265,705
         C2310,720 2370,810 2415,810 C2460,810 2490,720 2535,720
         C2580,720 2640,810 2655,915 C2670,1020 2640,1140 2670,1155
         C2700,1170 2790,1080 2820,1110 C2850,1140 2820,1290 2760,1395
         C2700,1500 2610,1560 2625,1590 C2640,1620 2760,1620 2775,1665
         C2790,1710 2700,1800 2610,1845 C2520,1890 2430,1890 2340,1845
         C2250,1800 2160,1710 2100,1680 C2040,1650 2010,1680 1995,1710
         C1980,1740 1980,1770 2040,1845 C2100,1920 2220,2040 2325,2130
         C2430,2220 2520,2280 2610,2295 C2700,2310 2790,2280 2895,2280
         C3000,2280 3120,2310 3165,2295 C3210,2280 3180,2220 3180,2190
         C3180,2160 3210,2160 3240,2190 C3270,2220 3300,2280 3360,2340
         C3420,2400 3510,2460 3600,2535 C3690,2610 3780,2700 3855,2835
         C3930,2970 3990,3150 4050,3240 C4110,3330 4170,3330 4200,3345
         C4230,3360 4230,3390 4215,3405 C4200,3420 4170,3420 4155,3450
         C4140,3480 4140,3540 4140,3615 C4140,3690 4140,3780 4125,3915
         C4110,4050 4080,4230 4095,4335 C4110,4440 4170,4470 4200,4500
         C4230,4530 4230,4560 4215,4575 C4200,4590 4170,4590 4140,4605
         C4110,4620 4080,4650 4050,4725 C4020,4800 3990,4920 3960,5040" />
<path id="rankex-1" class="Schwarz6"
      d="M3240,2250 C3210,2190 3180,2130 3180,2070
         C3180,2010 3210,1950 3255,1890 C3300,1830 3360,1770 3450,1740
         C3540,1710 3660,1710 3735,1740 C3810,1770 3840,1830 3855,1875
         C3870,1920 3870,1950 3840,1980 C3810,2010 3750,2040 3690,2055
         C3630,2070 3570,2070 3525,2055 C3480,2040 3450,2010 3425.67,1983
         C3401.33,1956 3382.67,1932 3364,1908" />
<use class="Blau Rand2" xlink:href="#beere1-1" />
<use class="Blau Rand2" xlink:href="#beere1-2" />
<use class="Blau Rand2" xlink:href="#beere1-3" />
<use class="Blau Rand2" xlink:href="#beere1-4" />
<use class="Blau Rand2" xlink:href="#beere1-5" />
<use class="Blau Rand2" xlink:href="#beere1-6" />
<use class="Blau Rand2" xlink:href="#beere1-7" />
<use class="Blau Rand2" xlink:href="#beere1-8" />
<use class="Blau Rand2" xlink:href="#beere1-9" />
<use class="Blau Rand2" xlink:href="#beere1-10" />
<use class="Blau Rand2" xlink:href="#beere1-11" />
<use class="Blau Rand2" xlink:href="#beere2-1" />
<use class="Blau Rand2" xlink:href="#beere2-2" />
<use class="Blau Rand2" xlink:href="#beere2-3" />
<use class="Blau Rand2" xlink:href="#beere2-4" />
<use class="Blau Rand2" xlink:href="#beere2-5" />
<use class="Blau Rand2" xlink:href="#beere2-6" />
<use class="Blau Rand2" xlink:href="#beere2-7" />
<use class="Blau Rand2" xlink:href="#beere3-1" />
<use class="Blau Rand2" xlink:href="#beere3-2" />
<use class="Blau Rand2" xlink:href="#beere3-3" />
<use class="Blau Rand2" xlink:href="#beere3-4" />
<use class="Blau Rand2" xlink:href="#beere3-5" />
<use class="Blau Rand2" xlink:href="#beere3-6" />
<use class="Blau Rand2" xlink:href="#beere3-7" />
<g transform="translate(7200,0) scale(-1,1)">
<use class="Blau Rand2" xlink:href="#beere1-1" />
<use class="Blau Rand2" xlink:href="#beere1-2" />
<use class="Blau Rand2" xlink:href="#beere1-3" />
<use class="Blau Rand2" xlink:href="#beere1-4" />
<use class="Blau Rand2" xlink:href="#beere1-5" />
<use class="Blau Rand2" xlink:href="#beere1-6" />
<use class="Blau Rand2" xlink:href="#beere1-7" />
<use class="Blau Rand2" xlink:href="#beere1-8" />
<use class="Blau Rand2" xlink:href="#beere1-9" />
<use class="Blau Rand2" xlink:href="#beere1-10" />
<use class="Blau Rand2" xlink:href="#beere1-11" />
<use class="Blau Rand2" xlink:href="#beere2-1" />
<use class="Blau Rand2" xlink:href="#beere2-2" />
<use class="Blau Rand2" xlink:href="#beere2-3" />
<use class="Blau Rand2" xlink:href="#beere2-4" />
<use class="Blau Rand2" xlink:href="#beere2-5" />
<use class="Blau Rand2" xlink:href="#beere2-6" />
<use class="Blau Rand2" xlink:href="#beere2-7" />
<use class="Blau Rand2" xlink:href="#beere3-1" />
<use class="Blau Rand2" xlink:href="#beere3-2" />
<use class="Blau Rand2" xlink:href="#beere3-3" />
<use class="Blau Rand2" xlink:href="#beere3-4" />
<use class="Blau Rand2" xlink:href="#beere3-5" />
<use class="Blau Rand2" xlink:href="#beere3-6" />
<use class="Blau Rand2" xlink:href="#beere3-7" />
</g>
</g>
<path id="clip-boundary" class="Rand6"
      d="M360,4140 A3240,3240 0.0 0 0 6840,4140 L6840,270 L360,270 L360,4140 Z" />
</g>
</svg>
