<?xml version="1.0" encoding="UTF-8" standalone="no"?>
<svg
   xmlns:dc="http://purl.org/dc/elements/1.1/"
   xmlns:cc="http://creativecommons.org/ns#"
   xmlns:rdf="http://www.w3.org/1999/02/22-rdf-syntax-ns#"
   xmlns:svg="http://www.w3.org/2000/svg"
   xmlns="http://www.w3.org/2000/svg"
   xmlns:xlink="http://www.w3.org/1999/xlink"
   xmlns:sodipodi="http://sodipodi.sourceforge.net/DTD/sodipodi-0.dtd"
   xmlns:inkscape="http://www.inkscape.org/namespaces/inkscape"
   height="763"
   width="603"
   version="1.0"
   id="svg20"
   sodipodi:version="0.32"
   inkscape:version="0.46"
   sodipodi:docname="Landquart-coat of arms.svg"
   sodipodi:docbase="C:\Users\Camilo\Documents\Escudos de Suiza"
   inkscape:output_extension="org.inkscape.output.svg.inkscape">
  <metadata
     id="metadata31">
    <rdf:RDF>
      <cc:Work
         rdf:about="">
        <dc:format>image/svg+xml</dc:format>
        <dc:type
           rdf:resource="http://purl.org/dc/dcmitype/StillImage" />
        <dc:date>31-JAN-2012</dc:date>
        <dc:creator>
          <cc:Agent>
            <dc:title>aliman5040</dc:title>
          </cc:Agent>
        </dc:creator>
        <cc:license
           rdf:resource="" />
        <dc:coverage />
        <dc:description />
        <dc:subject>
          <rdf:Bag />
        </dc:subject>
        <dc:language />
        <dc:title>Wappen Gemeinde Landquart</dc:title>
      </cc:Work>
    </rdf:RDF>
  </metadata>
  <defs
     id="defs29">
    <inkscape:perspective
       sodipodi:type="inkscape:persp3d"
       inkscape:vp_x="0 : 381.5 : 1"
       inkscape:vp_y="0 : 1000 : 0"
       inkscape:vp_z="603 : 381.5 : 1"
       inkscape:persp3d-origin="301.5 : 254.33333 : 1"
       id="perspective5149" />
    <linearGradient
       id="linearGradient2893">
      <stop
         style="stop-color:#ffffff;stop-opacity:0.3137255;"
         offset="0"
         id="stop2895" />
      <stop
         id="stop2897"
         offset="0.19"
         style="stop-color:#ffffff;stop-opacity:0.25098041;" />
      <stop
         style="stop-color:#6b6b6b;stop-opacity:0.1254902;"
         offset="0.60000002"
         id="stop2901" />
      <stop
         style="stop-color:#000000;stop-opacity:0.1254902;"
         offset="1"
         id="stop2899" />
    </linearGradient>
    <radialGradient
       inkscape:collect="always"
       xlink:href="#linearGradient2893"
       id="radialGradient3236"
       gradientUnits="userSpaceOnUse"
       gradientTransform="matrix(1.215027,1.531577e-24,1.464684e-23,1.266667,-839.1924,-490.4894)"
       cx="858.04236"
       cy="579.93323"
       fx="858.04236"
       fy="579.93323"
       r="300" />
    <inkscape:perspective
       id="perspective5197"
       inkscape:persp3d-origin="372.04724 : 350.78739 : 1"
       inkscape:vp_z="744.09448 : 526.18109 : 1"
       inkscape:vp_y="0 : 1000 : 0"
       inkscape:vp_x="0 : 526.18109 : 1"
       sodipodi:type="inkscape:persp3d" />
    <inkscape:perspective
       id="perspective8046"
       inkscape:persp3d-origin="372.04724 : 350.78739 : 1"
       inkscape:vp_z="744.09448 : 526.18109 : 1"
       inkscape:vp_y="0 : 1000 : 0"
       inkscape:vp_x="0 : 526.18109 : 1"
       sodipodi:type="inkscape:persp3d" />
    <inkscape:perspective
       id="perspective9383"
       inkscape:persp3d-origin="372.04724 : 350.78739 : 1"
       inkscape:vp_z="744.09448 : 526.18109 : 1"
       inkscape:vp_y="0 : 1000 : 0"
       inkscape:vp_x="0 : 526.18109 : 1"
       sodipodi:type="inkscape:persp3d" />
    <inkscape:perspective
       id="perspective9513"
       inkscape:persp3d-origin="372.04724 : 350.78739 : 1"
       inkscape:vp_z="744.09448 : 526.18109 : 1"
       inkscape:vp_y="0 : 1000 : 0"
       inkscape:vp_x="0 : 526.18109 : 1"
       sodipodi:type="inkscape:persp3d" />
    <inkscape:perspective
       id="perspective9597"
       inkscape:persp3d-origin="372.04724 : 350.78739 : 1"
       inkscape:vp_z="744.09448 : 526.18109 : 1"
       inkscape:vp_y="0 : 1000 : 0"
       inkscape:vp_x="0 : 526.18109 : 1"
       sodipodi:type="inkscape:persp3d" />
    <inkscape:perspective
       id="perspective9760"
       inkscape:persp3d-origin="372.04724 : 350.78739 : 1"
       inkscape:vp_z="744.09448 : 526.18109 : 1"
       inkscape:vp_y="0 : 1000 : 0"
       inkscape:vp_x="0 : 526.18109 : 1"
       sodipodi:type="inkscape:persp3d" />
    <inkscape:perspective
       id="perspective9857"
       inkscape:persp3d-origin="372.04724 : 350.78739 : 1"
       inkscape:vp_z="744.09448 : 526.18109 : 1"
       inkscape:vp_y="0 : 1000 : 0"
       inkscape:vp_x="0 : 526.18109 : 1"
       sodipodi:type="inkscape:persp3d" />
    <inkscape:perspective
       id="perspective5219"
       inkscape:persp3d-origin="372.04724 : 350.78739 : 1"
       inkscape:vp_z="744.09448 : 526.18109 : 1"
       inkscape:vp_y="0 : 1000 : 0"
       inkscape:vp_x="0 : 526.18109 : 1"
       sodipodi:type="inkscape:persp3d" />
    <inkscape:perspective
       id="perspective5188"
       inkscape:persp3d-origin="372.04724 : 350.78739 : 1"
       inkscape:vp_z="744.09448 : 526.18109 : 1"
       inkscape:vp_y="0 : 1000 : 0"
       inkscape:vp_x="0 : 526.18109 : 1"
       sodipodi:type="inkscape:persp3d" />
    <inkscape:perspective
       id="perspective6860"
       inkscape:persp3d-origin="372.04724 : 350.78739 : 1"
       inkscape:vp_z="744.09448 : 526.18109 : 1"
       inkscape:vp_y="0 : 1000 : 0"
       inkscape:vp_x="0 : 526.18109 : 1"
       sodipodi:type="inkscape:persp3d" />
    <inkscape:perspective
       id="perspective8627"
       inkscape:persp3d-origin="372.04724 : 350.78739 : 1"
       inkscape:vp_z="744.09448 : 526.18109 : 1"
       inkscape:vp_y="0 : 1000 : 0"
       inkscape:vp_x="0 : 526.18109 : 1"
       sodipodi:type="inkscape:persp3d" />
    <inkscape:perspective
       id="perspective27150"
       inkscape:persp3d-origin="372.04724 : 350.78739 : 1"
       inkscape:vp_z="744.09448 : 526.18109 : 1"
       inkscape:vp_y="0 : 1000 : 0"
       inkscape:vp_x="0 : 526.18109 : 1"
       sodipodi:type="inkscape:persp3d" />
    <inkscape:perspective
       id="perspective28351"
       inkscape:persp3d-origin="372.04724 : 350.78739 : 1"
       inkscape:vp_z="744.09448 : 526.18109 : 1"
       inkscape:vp_y="0 : 1000 : 0"
       inkscape:vp_x="0 : 526.18109 : 1"
       sodipodi:type="inkscape:persp3d" />
    <inkscape:perspective
       id="perspective3273"
       inkscape:persp3d-origin="372.04724 : 350.78739 : 1"
       inkscape:vp_z="744.09448 : 526.18109 : 1"
       inkscape:vp_y="0 : 1000 : 0"
       inkscape:vp_x="0 : 526.18109 : 1"
       sodipodi:type="inkscape:persp3d" />
    <inkscape:perspective
       id="perspective3393"
       inkscape:persp3d-origin="372.04724 : 350.78739 : 1"
       inkscape:vp_z="744.09448 : 526.18109 : 1"
       inkscape:vp_y="0 : 1000 : 0"
       inkscape:vp_x="0 : 526.18109 : 1"
       sodipodi:type="inkscape:persp3d" />
    <inkscape:perspective
       id="perspective6925"
       inkscape:persp3d-origin="372.04724 : 350.78739 : 1"
       inkscape:vp_z="744.09448 : 526.18109 : 1"
       inkscape:vp_y="0 : 1000 : 0"
       inkscape:vp_x="0 : 526.18109 : 1"
       sodipodi:type="inkscape:persp3d" />
    <style
       id="style19"
       type="text/css">
  .Rand0 { stroke: #202020; stroke-width:5; }
  .Rand1 { stroke: #202020; stroke-width:15; }
  .Rand2 { stroke: #202020; stroke-width:30; }
  .Rand6 { stroke: #202020; stroke-width:90; }
  .Rand2Hell { stroke: #ffffff; stroke-width:30; }
  .Rand5Hell { stroke: #ffffff; stroke-width:75; }
  .Schwarz { fill: #000000; }
  .Rot { fill: #ff0000; }
  .Gold { fill: #ffef00; }
  .Silber { fill: #ffffff; }
  </style>
    <clipPath
       id="clippath">
      <path
         id="path17"
         d="M360,4140 A3240,3240 0.0 0 0 6840,4140 L6840,270 L360,270 L360,4140 Z" />
    </clipPath>
    <path
       d="M4185,1530 C4185,1500 4185,1470 4200,1455          C4215,1440 4245,1440 4275,1410 C4305,1380 4335,1320 4395,1290          C4455,1260 4545,1260 4605,1290 C4665,1320 4695,1380 4725,1418          C4755,1455 4785,1470 4830,1440 C4875,1410 4935,1335 5010,1320          C5085,1305 5175,1350 5220,1410 C5265,1470 5265,1545 5280,1598          C5295,1650 5325,1680 5370,1672 C5415,1665 5475,1620 5528,1620          C5580,1620 5625,1665 5640,1718 C5655,1770 5640,1830 5648,1875          C5655,1920 5685,1950 5738,1958 C5790,1965 5865,1950 5910,1972          C5955,1995 5970,2055 5962,2108 C5955,2160 5925,2205 5925,2242          C5925,2280 5955,2310 5992,2340 C6030,2370 6075,2400 6098,2445          C6120,2490 6120,2550 6098,2595 C6075,2640 6030,2670 6008,2708          C5985,2745 5985,2790 5992,2835 C6000,2880 6015,2925 6015,2962          C6015,3000 6000,3030 5978,3045 C5955,3060 5925,3060 5888,3068          C5850,3075 5805,3090 5760,3120 C5715,3150 5670,3195 5648,3202          C5625,3210 5625,3180 5662,3120 C5700,3060 5775,2970 5812,2865          C5850,2760 5850,2640 5820,2520 C5790,2400 5730,2280 5618,2152          C5505,2025 5340,1890 5152,1800 C4965,1710 4755,1665 4605,1665          C4455,1665 4365,1710 4275,1755"
       id="bock8-1" />
    <path
       d="M1215,3735 C1245,3735 1275,3735 1320,3765          C1365,3795 1425,3855 1448,3832 C1470,3810 1455,3705 1478,3682          C1500,3660 1560,3720 1575,3705 C1590,3690 1560,3600 1575,3585          C1590,3570 1650,3630 1665,3615 C1680,3600 1650,3510 1665,3495          C1680,3480 1740,3540 1755,3525 C1770,3510 1740,3420 1748,3368          C1755,3315 1800,3300 1845,3285"
       id="bock6x-2" />
    <path
       d="M2070,3465 C2100,3510 2130,3555 2145,3608          C2160,3660 2160,3720 2152,3780 C2145,3840 2130,3900 2108,3945          C2085,3990 2055,4020 2062,4035 C2070,4050 2115,4050 2168,4005          C2220,3960 2280,3870 2310,3870 C2340,3870 2340,3960 2325,4020          C2310,4080 2280,4110 2280,4125 C2280,4140 2310,4140 2355,4110          C2400,4080 2460,4020 2490,4020 C2520,4020 2520,4080 2505,4125          C2490,4170 2460,4200 2468,4215 C2475,4230 2520,4230 2565,4192          C2610,4155 2655,4080 2678,4110 C2700,4140 2700,4275 2722,4298          C2745,4320 2790,4230 2805,4155 C2820,4080 2805,4020 2812,3968          C2820,3915 2850,3870 2880,3825"
       id="bock6x-1" />
    <path
       d="M2745,3330 C2655,3360 2565,3390 2468,3360          C2370,3330 2265,3240 2198,3165 C2130,3090 2100,3030 2025,3000          C1950,2970 1830,2970 1755,3000 C1680,3030 1650,3090 1545,3180          C1440,3270 1260,3390 1155,3480 C1050,3570 1020,3630 990,3675          C960,3720 930,3750 922,3780 C915,3810 930,3840 915,3848          C900,3855 855,3840 810,3878 C765,3915 720,4005 690,4095          C660,4185 645,4275 668,4290 C690,4305 750,4245 780,4260          C810,4275 810,4365 855,4380 C900,4395 990,4335 1058,4268          C1125,4200 1170,4125 1200,4072 C1230,4020 1245,3990 1230,3968          C1215,3945 1170,3930 1140,3915 C1110,3900 1095,3885 1095,3870          C1095,3855 1110,3840 1132,3810 C1155,3780 1185,3735 1230,3735          C1275,3735 1335,3780 1372,3772 C1410,3765 1425,3705 1448,3652          C1470,3600 1500,3555 1552,3502 C1605,3450 1680,3390 1748,3352          C1815,3315 1875,3300 1942,3345 C2010,3390 2085,3495 2168,3592          C2250,3690 2340,3780 2430,3832 C2520,3885 2610,3900 2685,3892          C2760,3885 2820,3855 2880,3825"
       id="bock6-1" />
    <path
       d="M4140,1710 C4155,1770 4170,1830 4185,1920          C4200,2010 4215,2130 4208,2265 C4200,2400 4170,2550 4095,2700          C4020,2850 3900,3000 3825,3090 C3750,3180 3720,3210 3705,3240          C3690,3270 3690,3300 3705,3330 C3720,3360 3750,3390 3848,3488          C3945,3585 4110,3750 4200,3840 C4290,3930 4305,3945 4328,3960          C4350,3975 4380,3990 4425,3990 C4470,3990 4530,3975 4590,3922          C4650,3870 4710,3780 4785,3735 C4860,3690 4950,3690 5018,3705          C5085,3720 5130,3750 5205,3765 C5280,3780 5385,3780 5438,3750          C5490,3720 5490,3660 5475,3600 C5460,3540 5430,3480 5400,3450          C5370,3420 5340,3420 5340,3405 C5340,3390 5370,3360 5430,3375          C5490,3390 5580,3450 5625,3525 C5670,3600 5670,3690 5640,3750          C5610,3810 5550,3840 5528,3915 C5505,3990 5520,4110 5490,4185          C5460,4260 5385,4290 5332,4305 C5280,4320 5250,4320 5265,4290          C5280,4260 5340,4200 5355,4140 C5370,4080 5340,4020 5295,3990          C5250,3960 5190,3960 5160,3990 C5130,4020 5130,4080 5100,4125          C5070,4170 5010,4200 4965,4215 C4920,4230 4890,4230 4905,4200          C4920,4170 4980,4110 4995,4042 C5010,3975 4980,3900 4905,3900          C4830,3900 4710,3975 4635,4028 C4560,4080 4530,4110 4522,4132          C4515,4155 4530,4170 4560,4200 C4590,4230 4635,4275 4688,4342          C4740,4410 4800,4500 4845,4635 C4890,4770 4920,4950 4965,5040          C5010,5130 5070,5130 5100,5115 C5130,5100 5130,5070 5145,5055          C5160,5040 5190,5040 5235,5085 C5280,5130 5340,5220 5355,5325          C5370,5430 5340,5550 5355,5655 C5370,5760 5430,5850 5460,5940          C5490,6030 5490,6120 5445,6180 C5400,6240 5310,6270 5265,6300          C5220,6330 5220,6360 5228,6382 C5235,6405 5250,6420 5265,6435          C5280,6450 5295,6465 5302,6502 C5310,6540 5310,6600 5250,6645          C5190,6690 5070,6720 4965,6735 C4860,6750 4770,6750 4755,6720          C4740,6690 4800,6630 4785,6615 C4770,6600 4680,6630 4695,6585          C4710,6540 4830,6420 4905,6360 C4980,6300 5010,6300 5025,6292          C5040,6285 5040,6270 5040,6240 C5040,6210 5040,6165 5070,6142          C5100,6120 5160,6120 5190,6045 C5220,5970 5220,5820 5175,5700          C5130,5580 5040,5490 4935,5445 C4830,5400 4710,5400 4590,5370          C4470,5340 4350,5280 4305,5220 C4260,5160 4290,5100 4252,4950          C4215,4800 4110,4560 3885,4425 C3660,4290 3315,4260 3112,4215          C2910,4170 2850,4110 2775,4035 C2700,3960 2610,3870 2550,3750          C2490,3630 2460,3480 2460,3330 C2460,3180 2490,3030 2550,2910          C2610,2790 2700,2700 2812,2640 C2925,2580 3060,2550 3180,2505          C3300,2460 3405,2400 3465,2325 C3525,2250 3540,2160 3540,2092          C3540,2025 3525,1980 3510,1935"
       id="bock5-1" />
    <path
       d="M4275,4815 C4215,4905 4155,4995 4095,5040          C4035,5085 3975,5085 3915,5055 C3855,5025 3795,4965 3788,4890          C3780,4815 3825,4725 3795,4642 C3765,4560 3660,4485 3622,4432          C3585,4380 3615,4350 3720,4372 C3825,4395 4005,4470 4110,4538          C4215,4605 4245,4665 4275,4725"
       id="bock3-1" />
    <path
       d="M810,1530 C840,1560 870,1590 885,1688 C900,1785 900,1950 870,2025          C840,2100 780,2085 750,2108 C720,2130 720,2190 750,2220          C780,2250 840,2250 855,2265 C870,2280 840,2310 840,2400          C840,2490 870,2640 848,2888 C825,3135 750,3480 765,3682          C780,3885 885,3945 968,3938 C1050,3930 1110,3855 1140,3802          C1170,3750 1170,3720 1155,3660 C1140,3600 1110,3510 1110,3300          C1110,3090 1140,2760 1200,2528 C1260,2295 1350,2160 1402,2055          C1455,1950 1470,1875 1448,1852 C1425,1830 1365,1860 1328,1830          C1290,1800 1275,1710 1282,1650 C1290,1590 1320,1560 1350,1530"
       id="fackel-1" />
    <inkscape:perspective
       id="perspective86"
       inkscape:persp3d-origin="219 : 160 : 1"
       inkscape:vp_z="438 : 240 : 1"
       inkscape:vp_y="0 : 1000 : 0"
       inkscape:vp_x="0 : 240 : 1"
       sodipodi:type="inkscape:persp3d" />
    <clipPath
       id="clipPath12590">
      <path
         id="path15"
         d="M360,4140 A3240,3240 0.0 0 0 6840,4140 L6840,270 L360,270 L360,4140 Z" />
    </clipPath>
    <path
       d="M3600,4950 C3600,4890 3600,4830 3465,4740          C3330,4650 3060,4530 2790,4575 C2520,4620 2250,4830 2115,5130          C1980,5430 1980,5820 2250,6150 C2520,6480 3060,6750 3600,7020          C4140,6750 4680,6480 4950,6150 C5220,5820 5220,5430 5085,5130          C4950,4830 4680,4620 4410,4575 C4140,4530 3870,4650 3735,4740          C3600,4830 3600,4890 3600,4950 L3600,5310          C3660,5220 3720,5130 3825,5055 C3930,4980 4080,4920 4245,4965          C4410,5010 4590,5160 4665,5355 C4740,5550 4710,5790 4515,6015          C4320,6240 3960,6450 3600,6660 C3240,6450 2880,6240 2685,6015          C2490,5790 2460,5550 2535,5355 C2610,5160 2790,5010 2955,4965          C3120,4920 3270,4980 3375,5055 C3480,5130 3540,5220 3600,5310          L3600,4950 Z"
       id="herz-1" />
    <path
       d="M3330,4905 L3600,5175 L3870,4905 L3870,810 L3330,810 L3330,1440          L2880,1440 L2880,810 L1530,810 L1530,1980 L1980,1980 L1980,1440          L2430,1440 L2430,1980 L3330,1980 L3330,2430 L2430,2430 L2430,2970          L1980,2970 L1980,2430 L1530,2430 L1530,3600 L2880,3600 L2880,2970          L3330,2970 L3330,4905 Z"
       id="bart-1" />
    <inkscape:perspective
       id="perspective33"
       inkscape:persp3d-origin="219 : 160 : 1"
       inkscape:vp_z="438 : 240 : 1"
       inkscape:vp_y="0 : 1000 : 0"
       inkscape:vp_x="0 : 240 : 1"
       sodipodi:type="inkscape:persp3d" />
  </defs>
  <sodipodi:namedview
     inkscape:window-height="720"
     inkscape:window-width="1280"
     inkscape:pageshadow="2"
     inkscape:pageopacity="0.0"
     guidetolerance="10.0"
     gridtolerance="10.0"
     objecttolerance="10.0"
     borderopacity="1.0"
     bordercolor="#666666"
     pagecolor="#ffffff"
     id="base"
     inkscape:zoom="0.49790364"
     inkscape:cx="466.53785"
     inkscape:cy="379.76466"
     inkscape:window-x="-8"
     inkscape:window-y="-8"
     inkscape:current-layer="layer2"
     showgrid="true"
     showguides="true"
     inkscape:guide-bbox="true">
    <inkscape:grid
       type="xygrid"
       id="grid5151" />
  </sodipodi:namedview>
  <g
     inkscape:groupmode="layer"
     id="layer1"
     inkscape:label="Fond écu"
     style="display:inline"
     sodipodi:insensitive="true">
    <path
       id="path1899"
       d="M 1.5,1.49998 L 1.5,460.3679 C 1.5,626.6785 135.81456,761.5 301.49999,761.5 C 467.18543,761.5 601.5,626.6785 601.5,460.3679 L 601.5,1.49998 L 1.5,1.49998 z"
       style="fill:#000000;fill-opacity:1;stroke:#000000;stroke-opacity:1" />
  </g>
  <g
     inkscape:groupmode="layer"
     id="layer2"
     inkscape:label="Meubles"
     style="display:inline"
     sodipodi:insensitive="true">
    <path
       d=""
       style="fill:none;fill-opacity:1;fill-rule:evenodd;stroke:#000000;stroke-width:4.27536249;stroke-miterlimit:4;stroke-dasharray:none;stroke-opacity:1"
       id="path5257"
       sodipodi:nodetypes="cc" />
    <path
       style="fill:#ffffff;fill-opacity:1;fill-rule:evenodd;stroke:#000000;stroke-width:3.97767472;stroke-miterlimit:4;stroke-dasharray:none;stroke-opacity:1"
       d="M 2,2 L 522.6875,663.78125 C 571.62196,610.19685 601.5,538.7954 601.5,460.375 L 601.5,154.25 C 599.02449,101.7191 597.32324,50.087265 598.625,2 L 2,2 z"
       id="path6937" />
    <g
       transform="matrix(0.8416773,0,0,0.8416773,222.74418,-1.9329446)"
       id="g12163">
      <path
         id="bock1-1"
         class="Schwarz Rand2"
         d="M 179.88403,185.76719 C 172.884,182.76718 165.88396,179.76716 159.41726,174.30047 C 152.8839,168.76711 146.88387,160.76707 140.88384,156.76705 C 134.88381,152.76703 128.88378,152.76703 124.88376,153.76703 C 120.88374,154.76704 118.88373,156.76705 116.88372,157.76705 C 114.88371,158.76706 112.8837,158.76706 103.88365,161.76707 C 94.883607,164.76709 78.883527,170.76712 69.883482,176.30048 C 60.883437,181.76717 58.883427,186.7672 57.416753,189.23388 C 55.883412,191.76722 54.883407,191.76722 54.350071,191.23389 C 53.883402,190.76722 53.883402,189.76721 52.883397,189.23388 C 51.883392,188.76721 49.883382,188.76721 45.416693,191.76722 C 40.883337,194.76724 33.883302,200.76727 30.349951,204.76729 C 26.883267,208.76731 26.883267,210.76732 28.883277,211.76732 C 30.883287,212.76733 34.883307,212.76733 35.883312,213.76733 C 36.883317,214.76734 34.883307,216.76735 34.883307,219.23403 C 34.883307,221.76737 36.883317,224.76739 40.883337,224.76739 C 44.883357,224.76739 50.883387,221.76737 56.350081,218.30069 C 61.883442,214.76734 66.883467,210.76732 69.883482,207.7673 C 72.883497,204.76729 73.883502,202.76728 73.416833,201.23394 C 72.883497,199.76726 70.883487,198.76726 69.883482,197.23392 C 68.883477,195.76724 68.883477,193.76723 70.350151,191.76722 C 71.883492,189.76721 74.883507,187.7672 76.883517,187.23387 C 78.883527,186.7672 79.883532,187.7672 81.416873,190.30055 C 82.883547,192.76723 84.883557,196.76725 88.883577,193.76723 C 92.883597,190.76722 98.883627,180.76717 107.88367,176.76715 C 116.88372,172.76713 128.88378,174.76714 136.88382,180.76717 C 144.88386,186.7672 148.88388,196.76725 153.41723,202.76728 C 157.88392,208.76731 162.88395,210.76732 167.88397,212.76733"
         style="fill:#000000;fill-rule:evenodd;stroke:#202020;stroke-width:2.00001001;stroke-linecap:butt;stroke-linejoin:miter;stroke-miterlimit:10" />
      <path
         id="bock1x-1"
         class="Schwarz Rand2"
         d="M 77.883522,185.76719 C 77.883522,186.7672 77.883522,187.7672 78.883527,191.23389 C 79.883532,194.76724 81.883542,200.76727 83.416883,201.23394 C 84.883557,201.76727 85.883562,196.76725 87.883572,196.30058 C 89.883582,195.76724 92.883597,199.76726 93.883602,198.76726 C 94.883607,197.76725 93.883602,191.76722 94.883607,190.76722 C 95.883612,189.76721 98.883627,193.76723 100.3503,192.30056 C 101.88364,190.76722 101.88364,183.76718 102.88365,182.76718 C 103.88365,181.76717 105.88366,186.7672 107.417,186.30053 C 108.88368,185.76719 109.88368,179.76716 111.41702,176.76715 C 112.8837,173.76713 114.88371,173.76713 116.88372,173.76713"
         style="fill:#000000;fill-rule:evenodd;stroke:#202020;stroke-width:2.00001001;stroke-linecap:butt;stroke-linejoin:miter;stroke-miterlimit:10" />
      <path
         id="linie1-1"
         class="Rand2Hell"
         d="M 36.349981,213.30066 C 39.016661,209.96731 41.683341,206.63396 44.105353,204.54529 C 46.528032,202.45594 48.705376,201.61194 50.883387,200.76727"
         style="fill-rule:evenodd;stroke:#ffffff;stroke-width:2.00001001;stroke-linecap:butt;stroke-linejoin:miter;stroke-miterlimit:10" />
      <use
         class="Rand5Hell"
         xlink:href="#fackel-1"
         id="use29"
         style="fill-rule:evenodd;stroke:#ffffff;stroke-width:75;stroke-linecap:butt;stroke-linejoin:miter;stroke-miterlimit:10"
         x="0"
         y="0"
         width="438"
         height="480"
         transform="matrix(6.6667e-2,0,0,6.6667e-2,-3.1168831,-6.2337663)" />
      <use
         class="Schwarz Rand2"
         xlink:href="#fackel-1"
         id="use31"
         style="fill:#000000;fill-rule:evenodd;stroke:#202020;stroke-width:30;stroke-linecap:butt;stroke-linejoin:miter;stroke-miterlimit:10"
         x="0"
         y="0"
         width="438"
         height="480"
         transform="matrix(6.6667e-2,0,0,6.6667e-2,-3.1168831,-6.2337663)" />
      <path
         id="flamme1-1"
         class="Gold Rand2"
         d="M 56.883417,101.76677 C 50.883387,97.766754 44.883357,93.766734 41.883342,85.766694 C 38.883327,77.766654 38.883327,65.766594 43.883352,56.766549 C 48.883377,47.766504 58.883427,41.766474 64.883457,36.766449 C 70.883487,31.766424 72.883497,27.766404 74.883507,23.766384 L 74.883507,29.766414 C 74.883507,35.766444 74.883507,41.766474 72.883497,48.766509 C 70.883487,55.766544 66.883467,63.766584 65.883462,71.766624 C 64.883457,79.766664 66.883467,87.766704 68.883477,95.766744"
         style="fill:#ffef00;fill-rule:evenodd;stroke:#202020;stroke-width:2.00001001;stroke-linecap:butt;stroke-linejoin:miter;stroke-miterlimit:10" />
      <path
         id="flamme1-2"
         class="Gold Rand2"
         d="M 68.883477,95.766744 C 64.883457,89.766714 60.883437,83.766684 59.883432,76.766649 C 58.883427,69.766614 60.883437,61.766574 65.883462,54.766539 C 70.883487,47.766504 78.883527,41.766474 85.883562,38.766459 C 92.883597,35.766444 98.883627,35.766444 103.88365,33.766434 C 108.88368,31.766424 112.8837,27.766404 116.88372,23.766384 L 116.88372,29.766414 C 116.88372,37.766454 116.88372,45.766494 110.88369,52.766529 C 104.88366,59.766564 92.883597,65.766594 85.883562,72.766629 C 78.883527,79.766664 76.883517,87.766704 74.883507,95.766744"
         style="fill:#ffef00;fill-rule:evenodd;stroke:#202020;stroke-width:2.00001001;stroke-linecap:butt;stroke-linejoin:miter;stroke-miterlimit:10" />
      <path
         id="flamme1-3"
         class="Gold Rand2"
         d="M 80.883537,95.766744 C 82.883547,93.766734 84.883557,91.766724 90.883587,89.766714 C 96.883617,87.766704 106.88367,85.766694 116.88372,79.766664 C 126.88377,73.766634 136.88382,63.766584 141.88384,54.766539 C 146.88387,45.766494 146.88387,37.766454 146.88387,29.766414 L 146.88387,29.766414 C 144.88386,33.766434 142.88385,37.766454 134.88381,40.766469 C 126.88377,43.766484 112.8837,45.766494 101.88364,49.766514 C 90.883587,53.766534 82.883547,59.766564 78.883527,67.766604 C 74.883507,75.766644 74.883507,85.766694 74.883507,95.766744"
         style="fill:#ffef00;fill-rule:evenodd;stroke:#202020;stroke-width:2.00001001;stroke-linecap:butt;stroke-linejoin:miter;stroke-miterlimit:10" />
      <path
         id="flamme2-1"
         class="Rot"
         d="M 62.083443,96.833416 C 58.350091,95.478076 54.616739,94.122069 51.750058,90.94472 C 48.883377,87.766704 46.883367,82.766679 47.883372,76.766649 C 48.883377,70.766619 52.883397,63.766584 53.883402,62.766579 C 54.883407,61.766574 52.883397,66.766599 52.883397,70.29995 C 52.883397,73.766634 54.883407,75.766644 54.883407,77.766654 C 54.883407,79.766664 52.883397,81.766674 54.15007,84.700022 C 55.416743,87.63337 59.950099,91.500056 64.483455,95.366742"
         style="fill:#ff0000;fill-rule:evenodd;stroke-width:10;stroke-linecap:butt;stroke-linejoin:miter;stroke-miterlimit:10" />
      <path
         id="flamme2-2"
         class="Rot"
         d="M 77.683521,93.900068 C 80.483535,88.033372 83.283549,82.166676 86.683566,78.233323 C 90.083583,74.29997 94.083603,72.29996 97.894955,71.111287 C 101.70564,69.921948 105.32833,69.544613 108.35034,67.188601 C 111.37236,64.833256 113.79503,60.499901 115.01704,58.96656 C 116.30571,57.433219 116.39505,58.699892 116.56172,60.699902 C 116.72838,62.699912 116.97238,65.433259 115.15037,68.96661 C 113.39503,72.499961 109.57235,76.833316 105.41699,79.188661 C 101.19497,81.544673 96.638949,81.922008 93.361599,83.111347 C 90.083583,84.30002 88.083573,86.30003 86.083563,88.30004"
         style="fill:#ff0000;fill-rule:evenodd;stroke-width:10;stroke-linecap:butt;stroke-linejoin:miter;stroke-miterlimit:10" />
      <path
         id="flamme2-3"
         class="Rot"
         d="M 68.883477,89.766714 C 66.883467,84.766689 64.883457,79.766664 64.605456,75.63331 C 64.328121,71.499956 65.772128,68.233273 67.416803,65.721927 C 69.128145,63.211248 71.038821,61.455239 72.705496,59.988565 C 74.372171,58.521891 75.794845,57.344552 76.094846,57.677887 C 76.394848,58.011222 75.572177,59.855231 74.683506,63.455249 C 73.794835,67.055267 72.83883,72.411294 72.461495,77.688653 C 72.083493,82.96668 72.283494,88.166706 72.483495,93.366732"
         style="fill:#ff0000;fill-rule:evenodd;stroke-width:10;stroke-linecap:butt;stroke-linejoin:miter;stroke-miterlimit:10" />
      <path
         id="bock2-1"
         class="Schwarz Rand2"
         d="M 260.88444,287.7677 C 254.88441,295.76774 248.88438,303.76778 241.88434,309.76781 C 234.88431,315.76784 226.88427,319.76786 221.88424,323.76788 C 216.88422,327.7679 214.88421,331.76792 213.8842,335.76794 C 212.8842,339.76796 212.8842,343.76798 214.88421,346.768 C 216.88422,349.76801 220.88424,351.76802 222.88425,353.76803 C 224.88426,355.76804 224.88426,357.76805 213.8842,361.76807 C 202.88415,365.76809 180.88404,371.76812 166.88397,376.76815 C 152.8839,381.76817 146.88387,385.76819 143.41718,387.7682 C 139.88383,389.76821 138.88383,389.76821 138.88383,390.76822 C 138.88383,391.76822 139.88383,393.76823 138.35049,395.76824 C 136.88382,397.76825 132.8838,399.76826 131.88379,402.76828 C 130.88379,405.76829 132.8838,409.76831 132.8838,412.76833 C 132.8838,415.76834 130.88379,417.76835 125.88376,419.76836 C 120.88374,421.76837 112.8837,423.76838 107.88367,423.76838 C 102.88365,423.76838 100.88364,421.76837 100.88364,419.76836 C 100.88364,417.76835 102.88365,415.76834 101.88364,414.76834 C 100.88364,413.76833 96.883617,413.76833 95.883612,412.76833 C 94.883607,411.76832 96.883617,409.76831 99.883632,406.7683 C 102.88365,403.76828 106.88367,399.76826 110.88369,396.76825 C 114.88371,393.76823 118.88373,391.76822 121.88374,390.76822 C 124.88376,389.76821 126.88377,389.76821 127.88377,388.76821 C 128.88378,387.7682 128.88378,385.76819 128.88378,383.76818 C 128.88378,381.76817 128.88378,379.76816 135.88381,376.76815 C 142.88385,373.76813 156.88392,369.76811 165.88396,365.76809 C 174.88401,361.76807 178.88403,357.76805 179.88403,354.76804 C 180.88404,351.76802 178.88403,349.76801 176.88402,343.76798 C 174.88401,337.76795 172.884,327.7679 172.884,320.76787 C 172.884,313.76783 174.88401,309.76781 178.88403,306.7678 C 182.88405,303.76778 188.88408,301.76777 196.88412,298.30109 C 204.88416,294.76774 214.88421,289.76771 221.41757,285.76769 C 227.88427,281.76767 230.88429,278.76766 233.8843,275.76764"
         style="fill:#000000;fill-rule:evenodd;stroke:#202020;stroke-width:2.00001001;stroke-linecap:butt;stroke-linejoin:miter;stroke-miterlimit:10" />
      <path
         id="bock2x-1"
         class="Schwarz Rand2"
         d="M 185.88406,302.76778 C 178.88403,305.76779 171.88399,308.76781 166.88397,310.30115 C 161.88394,311.76782 158.88393,311.76782 155.88391,310.30115 C 152.8839,308.76781 149.88388,305.76779 148.35054,305.76779 C 146.88387,305.76779 146.88387,308.76781 148.35054,311.76782 C 149.88388,314.76784 152.8839,317.76785 158.35059,319.23453 C 163.88395,320.76787 171.88399,320.76787 173.41733,322.30121 C 174.88401,323.76788 169.88398,326.7679 165.88396,328.30124 C 161.88394,329.76791 158.88393,329.76791 155.88391,328.76791 C 152.8839,327.7679 149.88388,325.76789 148.35054,325.76789 C 146.88387,325.76789 146.88387,327.7679 148.35054,330.30125 C 149.88388,332.76793 152.8839,335.76794 158.88393,336.76795 C 164.88396,337.76795 173.884,336.76795 175.88401,338.30129 C 177.88402,339.76796 172.884,343.76798 168.88398,345.76799 C 164.88396,347.768 161.88394,347.768 158.88393,346.768 C 155.88391,345.76799 152.8839,343.76798 151.88389,344.30132 C 150.88389,344.76799 151.88389,347.768 153.8839,350.76802 C 155.88391,353.76803 158.88393,356.76805 162.35061,356.30138 C 165.88396,355.76804 169.88398,351.76802 173.41733,350.76802 C 176.88402,349.76801 179.88403,351.76802 182.88405,353.76803"
         style="fill:#000000;fill-rule:evenodd;stroke:#202020;stroke-width:2.00001001;stroke-linecap:butt;stroke-linejoin:miter;stroke-miterlimit:10" />
      <path
         id="bock2x-2"
         class="Schwarz Rand2"
         d="M 176.88402,368.76811 C 178.88403,373.76813 180.88404,378.76816 179.88403,380.3015 C 178.88403,381.76817 174.88401,379.76816 172.884,379.76816 C 170.88399,379.76816 170.88399,381.76817 171.88399,383.76818 C 172.884,385.76819 174.88401,387.7682 173.884,388.76821 C 172.884,389.76821 168.88398,389.76821 165.88396,387.7682 C 162.88395,385.76819 160.88394,381.76817 160.88394,382.76818 C 160.88394,383.76818 162.88395,389.76821 164.88396,392.76823 C 166.88397,395.76824 168.88398,395.76824 167.88397,396.76825 C 166.88397,397.76825 162.88395,399.76826 159.88393,397.76825 C 156.88392,395.76824 154.88391,389.76821 153.8839,389.76821 C 152.8839,389.76821 152.8839,395.76824 153.8839,398.76826 C 154.88391,401.76827 156.88392,401.76827 156.88392,402.76828 C 156.88392,403.76828 154.88391,405.76829 151.88389,404.76829 C 148.88388,403.76828 144.88386,399.76826 142.88385,396.30158 C 140.88384,392.76823 140.88384,389.76821 140.88384,386.7682"
         style="fill:#000000;fill-rule:evenodd;stroke:#202020;stroke-width:2.00001001;stroke-linecap:butt;stroke-linejoin:miter;stroke-miterlimit:10" />
      <path
         id="linie2-1"
         class="Rand2Hell"
         d="M 101.88364,413.76833 C 105.88366,410.76832 109.88368,407.7683 112.8837,406.30163 C 115.88371,404.76829 117.88372,404.76829 119.88373,404.76829"
         style="fill-rule:evenodd;stroke:#ffffff;stroke-width:2.00001001;stroke-linecap:butt;stroke-linejoin:miter;stroke-miterlimit:10" />
      <use
         class="Rand5Hell"
         xlink:href="#bock3-1"
         id="use43"
         style="fill-rule:evenodd;stroke:#ffffff;stroke-width:75;stroke-linecap:butt;stroke-linejoin:miter;stroke-miterlimit:10"
         x="0"
         y="0"
         width="438"
         height="480"
         transform="matrix(6.6667e-2,0,0,6.6667e-2,-3.1168831,-6.2337663)" />
      <use
         class="Schwarz Rand2"
         xlink:href="#bock3-1"
         id="use45"
         style="fill:#000000;fill-rule:evenodd;stroke:#202020;stroke-width:30;stroke-linecap:butt;stroke-linejoin:miter;stroke-miterlimit:10"
         x="0"
         y="0"
         width="438"
         height="480"
         transform="matrix(6.6667e-2,0,0,6.6667e-2,-3.1168831,-6.2337663)" />
      <path
         id="bewehrung-1"
         class="Rot Rand0"
         d="M 256.55108,301.70111 C 256.99575,301.05644 257.43975,300.41243 257.66242,299.08976 C 257.88442,297.76775 257.88442,295.76774 256.35108,293.76773 C 254.88441,291.76772 251.88439,289.76771 248.88438,288.76771 C 245.88436,287.7677 242.88435,287.7677 241.88434,288.30104 C 240.88434,288.76771 241.88434,289.76771 243.41768,291.23439 C 244.88436,292.76773 246.88437,294.76774 248.35104,296.76775 C 249.88438,298.76776 250.88439,300.76777 251.88439,302.76778"
         style="fill:#ff0000;fill-rule:evenodd;stroke:#202020;stroke-width:0.33333501;stroke-linecap:butt;stroke-linejoin:miter;stroke-miterlimit:10" />
      <path
         id="bock4-1"
         class="Schwarz Rand2"
         d="M 278.88453,68.766609 C 280.88454,67.766604 282.88455,66.766599 284.35122,64.766589 C 285.88456,62.766579 286.88457,59.766564 289.88458,57.233218 C 292.8846,54.766539 297.88462,52.766529 302.35131,53.766534 C 306.88467,54.766539 310.88469,58.766559 313.8847,60.766569 C 316.88472,62.766579 318.88473,62.766579 321.41807,60.766569 C 323.88475,58.766559 326.88477,54.766539 330.88479,53.233198 C 334.88481,51.766524 339.88483,52.766529 343.41818,55.233208 C 346.88487,57.766554 348.88488,61.766574 350.88489,64.29992 C 352.8849,66.766599 354.88491,67.766604 357.88492,66.766599 C 360.88494,65.766594 364.88496,62.766579 368.88498,62.766579 C 372.885,62.766579 376.88502,65.766594 378.88503,69.233278 C 380.88504,72.766629 380.88504,76.766649 381.88504,79.233328 C 382.88505,81.766674 384.88506,82.766679 387.88507,82.30001 C 390.88509,81.766674 394.88511,79.766664 397.88512,79.766664 C 400.88514,79.766664 402.88515,81.766674 403.88515,84.30002 C 404.88516,86.766699 404.88516,89.766714 405.41849,93.233398 C 405.88516,96.766749 406.88517,100.76677 408.88518,101.76677 C 410.88519,102.76678 413.8852,100.76677 416.35188,100.76677 C 418.88523,100.76677 420.88524,102.76678 421.41857,105.23346 C 421.88524,107.7668 420.88524,110.76682 420.88524,112.76683 C 420.88524,114.76684 421.88524,115.76684 423.41858,117.23352 C 424.88526,118.76686 426.88527,120.76687 427.88527,122.76688 C 428.88528,124.76689 428.88528,126.7669 427.88527,128.76691 C 426.88527,130.76692 424.88526,132.76693 423.88525,135.76694 C 422.88525,138.76696 422.88525,142.76698 422.35191,145.76699 C 421.88524,148.76701 420.88524,150.76702 419.88523,153.2337 C 418.88523,155.76704 417.88522,158.76706 417.41855,158.76706 C 416.88522,158.76706 416.88522,155.76704 416.88522,149.23368 C 416.88522,142.76698 416.88522,132.76693 413.8852,124.76689 C 410.88519,116.76685 404.88516,110.76682 397.41845,104.76679 C 389.88508,98.766759 380.88504,92.766729 371.41832,88.30004 C 361.88494,83.766684 351.88489,80.766669 341.88484,79.766664 C 331.88479,78.766659 321.88474,79.766664 312.35136,82.30001 C 302.88465,84.766689 293.8846,88.766709 284.88456,92.766729"
         style="fill:#000000;fill-rule:evenodd;stroke:#202020;stroke-width:2.00001001;stroke-linecap:butt;stroke-linejoin:miter;stroke-miterlimit:10" />
      <path
         id="zunge-1"
         class="Rot Rand1"
         d="M 218.88423,117.36685 C 215.88421,116.16685 212.8842,114.96684 209.88418,113.36683 C 206.88417,111.76682 203.88415,109.76681 199.41746,108.76681 C 194.88411,107.7668 188.88408,107.7668 184.88406,106.7668 C 180.88404,105.76679 178.88403,103.76678 177.88402,100.76677 C 176.88402,97.766754 176.88402,93.766734 175.41734,93.233398 C 173.884,92.766729 170.88399,95.766744 169.88398,99.233428 C 168.88398,102.76678 169.88398,106.7668 172.35066,109.23348 C 174.88401,111.76682 178.88403,112.76683 183.41738,113.2335 C 187.88407,113.76683 192.8841,113.76683 198.88413,114.76684 C 204.88416,115.76684 211.88419,117.76685 218.88423,119.76686"
         style="fill:#ff0000;fill-rule:evenodd;stroke:#202020;stroke-width:1.00000501;stroke-linecap:butt;stroke-linejoin:miter;stroke-miterlimit:10" />
      <use
         class="Rand5Hell"
         xlink:href="#bock5-1"
         id="use50"
         style="fill-rule:evenodd;stroke:#ffffff;stroke-width:75;stroke-linecap:butt;stroke-linejoin:miter;stroke-miterlimit:10"
         x="0"
         y="0"
         width="438"
         height="480"
         transform="matrix(6.6667e-2,0,0,6.6667e-2,-3.1168831,-6.2337663)" />
      <use
         class="Schwarz Rand2"
         xlink:href="#bock5-1"
         id="use52"
         style="fill:#000000;fill-rule:evenodd;stroke:#202020;stroke-width:30;stroke-linecap:butt;stroke-linejoin:miter;stroke-miterlimit:10"
         x="0"
         y="0"
         width="438"
         height="480"
         transform="matrix(6.6667e-2,0,0,6.6667e-2,-3.1168831,-6.2337663)" />
      <path
         id="bock5x-1"
         class="Schwarz Rand2"
         d="M 281.88454,332.76793 C 282.88455,335.76794 283.88455,338.76796 282.88455,341.76797 C 281.88454,344.76799 278.88453,347.768 276.35118,350.30135 C 273.8845,352.76803 271.88449,354.76804 269.41781,355.23471 C 266.88447,355.76804 263.88445,354.76804 263.88445,355.76804 C 263.88445,356.76805 266.88447,359.76806 269.88448,361.23474 C 272.8845,362.76808 275.88451,362.76808 279.41786,359.76806 C 282.88455,356.76805 286.88457,350.76802 287.88457,351.76802 C 288.88458,352.76803 286.88457,360.76807 283.41788,365.23476 C 279.88453,369.76811 274.88451,370.76812 273.41783,372.30146 C 271.88449,373.76813 273.8845,375.76814 277.41785,375.76814 C 280.88454,375.76814 285.88456,373.76813 289.41791,369.76811 C 292.8846,365.76809 294.88461,359.76806 295.88461,360.76807 C 296.88462,361.76807 296.88462,369.76811 294.88461,373.76813 C 292.8846,377.76815 288.88458,377.76815 287.88457,378.76816 C 286.88457,379.76816 288.88458,381.76817 291.88459,381.76817 C 294.88461,381.76817 298.88463,379.76816 301.88464,374.76814 C 304.88466,369.76811 306.88467,361.76807 308.88468,358.76806 C 310.88469,355.76804 312.8847,357.76805 312.8847,360.76807 C 312.8847,363.76808 310.88469,367.7681 309.88468,370.76812 C 308.88468,373.76813 308.88468,375.76814 309.88468,375.76814 C 310.88469,375.76814 312.8847,373.76813 314.88471,371.76812 C 316.88472,369.76811 318.88473,367.7681 319.88473,364.76809 C 320.88474,361.76807 320.88474,357.76805 320.88474,353.76803"
         style="fill:#000000;fill-rule:evenodd;stroke:#202020;stroke-width:2.00001001;stroke-linecap:butt;stroke-linejoin:miter;stroke-miterlimit:10" />
      <path
         id="bock5x-2"
         class="Schwarz Rand2"
         d="M 272.8845,131.76692 C 274.88451,135.76694 276.88452,139.76696 278.88453,142.76698 C 280.88454,145.76699 282.88455,147.767 285.41789,148.76701 C 287.88457,149.76701 290.88459,149.76701 291.41792,151.23369 C 291.88459,152.76703 289.88458,155.76704 286.35123,156.30038 C 282.88455,156.76705 277.88452,154.76704 277.41785,156.30038 C 276.88452,157.76705 280.88454,162.76708 283.88455,165.23376 C 286.88457,167.7671 288.88458,167.7671 288.88458,168.76711 C 288.88458,169.76711 286.88457,171.76712 282.88455,171.76712 C 278.88453,171.76712 272.8845,169.76711 271.88449,171.23379 C 270.88449,172.76713 274.88451,177.76715 277.88452,180.3005 C 280.88454,182.76718 282.88455,182.76718 282.88455,183.76718 C 282.88455,184.76719 280.88454,186.7672 276.88452,186.30053 C 272.8845,185.76719 266.88447,182.76718 265.88446,184.30052 C 264.88446,185.76719 268.88448,191.76722 271.88449,194.76724 C 274.88451,197.76725 276.88452,197.76725 276.88452,198.76726 C 276.88452,199.76726 274.88451,201.76727 270.88449,200.76727 C 266.88447,199.76726 260.88444,195.76724 258.88443,196.76725 C 256.88442,197.76725 258.88443,203.76728 260.88444,206.7673 C 262.88445,209.76731 264.88446,209.76731 264.88446,210.76732 C 264.88446,211.76732 262.88445,213.76733 259.41776,213.76733 C 255.88441,213.76733 250.88439,211.76732 247.88437,210.76732 C 244.88436,209.76731 243.88435,209.76731 242.88435,209.76731"
         style="fill:#000000;fill-rule:evenodd;stroke:#202020;stroke-width:2.00001001;stroke-linecap:butt;stroke-linejoin:miter;stroke-miterlimit:10" />
      <path
         id="bock5x-3"
         class="Schwarz Rand2"
         d="M 350.88489,365.76809 C 355.88491,367.7681 360.88494,369.76811 360.88494,371.76812 C 360.88494,373.76813 355.88491,375.76814 356.88492,377.76815 C 357.88492,379.76816 364.88496,381.76817 369.41831,382.76818 C 373.885,383.76818 375.88501,383.76818 375.41834,384.76819 C 374.88501,385.76819 371.88499,387.7682 368.35164,388.76821 C 364.88496,389.76821 360.88494,389.76821 361.41827,390.76822 C 361.88494,391.76822 366.88497,393.76823 370.88499,394.76824 C 374.88501,395.76824 377.88502,395.76824 378.35169,396.76825 C 378.88503,397.76825 376.88502,399.76826 372.885,400.76827 C 368.88498,401.76827 362.88495,401.76827 363.88495,402.76828 C 364.88496,403.76828 372.885,405.76829 373.885,407.7683 C 374.88501,409.76831 368.88498,411.76832 364.35162,411.76832 C 359.88493,411.76832 356.88492,409.76831 353.8849,407.7683"
         style="fill:#000000;fill-rule:evenodd;stroke:#202020;stroke-width:2.00001001;stroke-linecap:butt;stroke-linejoin:miter;stroke-miterlimit:10" />
      <path
         id="linie5-1"
         class="Rand2Hell"
         d="M 314.88471,434.76844 L 326.88477,425.76839 L 332.8848,422.76838"
         style="fill-rule:evenodd;stroke:#ffffff;stroke-width:2.00001001;stroke-linecap:butt;stroke-linejoin:miter;stroke-miterlimit:10" />
      <use
         class="Rand5Hell"
         xlink:href="#bock6-1"
         id="use58"
         style="fill-rule:evenodd;stroke:#ffffff;stroke-width:75;stroke-linecap:butt;stroke-linejoin:miter;stroke-miterlimit:10"
         x="0"
         y="0"
         width="438"
         height="480"
         transform="matrix(6.6667e-2,0,0,6.6667e-2,-3.1168831,-6.2337663)" />
      <use
         class="Rand5Hell"
         xlink:href="#bock6x-1"
         id="use60"
         style="fill-rule:evenodd;stroke:#ffffff;stroke-width:75;stroke-linecap:butt;stroke-linejoin:miter;stroke-miterlimit:10"
         x="0"
         y="0"
         width="438"
         height="480"
         transform="matrix(6.6667e-2,0,0,6.6667e-2,-3.1168831,-6.2337663)" />
      <use
         class="Rand5Hell"
         xlink:href="#bock6x-2"
         id="use62"
         style="fill-rule:evenodd;stroke:#ffffff;stroke-width:75;stroke-linecap:butt;stroke-linejoin:miter;stroke-miterlimit:10"
         x="0"
         y="0"
         width="438"
         height="480"
         transform="matrix(6.6667e-2,0,0,6.6667e-2,-3.1168831,-6.2337663)" />
      <use
         class="Schwarz Rand2"
         xlink:href="#bock6-1"
         id="use64"
         style="fill:#000000;fill-rule:evenodd;stroke:#202020;stroke-width:30;stroke-linecap:butt;stroke-linejoin:miter;stroke-miterlimit:10"
         x="0"
         y="0"
         width="438"
         height="480"
         transform="matrix(6.6667e-2,0,0,6.6667e-2,-3.1168831,-6.2337663)" />
      <use
         class="Schwarz Rand2"
         xlink:href="#bock6x-1"
         id="use66"
         style="fill:#000000;fill-rule:evenodd;stroke:#202020;stroke-width:30;stroke-linecap:butt;stroke-linejoin:miter;stroke-miterlimit:10"
         x="0"
         y="0"
         width="438"
         height="480"
         transform="matrix(6.6667e-2,0,0,6.6667e-2,-3.1168831,-6.2337663)" />
      <use
         class="Schwarz Rand2"
         xlink:href="#bock6x-2"
         id="use68"
         style="fill:#000000;fill-rule:evenodd;stroke:#202020;stroke-width:30;stroke-linecap:butt;stroke-linejoin:miter;stroke-miterlimit:10"
         x="0"
         y="0"
         width="438"
         height="480"
         transform="matrix(6.6667e-2,0,0,6.6667e-2,-3.1168831,-6.2337663)" />
      <path
         id="linie6-1"
         class="Rand2Hell"
         d="M 49.48338,276.70098 C 50.950054,272.38963 52.416728,268.07894 54.15007,264.92292 C 55.883412,261.76757 57.883422,259.76756 59.883432,257.76755"
         style="fill-rule:evenodd;stroke:#ffffff;stroke-width:2.00001001;stroke-linecap:butt;stroke-linejoin:miter;stroke-miterlimit:10" />
      <path
         id="bock7-1"
         class="Schwarz Rand2"
         d="M 287.88457,113.76683 C 286.88457,103.76678 285.88456,93.766734 284.35122,85.766694 C 282.88455,77.766654 280.88454,71.766624 278.88453,68.766609 C 276.88452,65.766594 274.88451,65.766594 266.88447,67.766604 C 258.88443,69.766614 244.88436,73.766634 235.88431,76.766649 C 226.88427,79.766664 222.88425,81.766674 217.72889,83.100014 C 212.57286,84.433354 206.26216,85.100024 203.26215,87.100034 C 200.26213,89.100044 200.5728,92.433394 201.72881,94.100069 C 202.88415,95.766744 204.88416,95.766744 205.88416,96.766749 C 206.88417,97.766754 206.88417,99.766764 205.57283,100.6781 C 204.26215,101.58877 201.63947,101.41144 201.1508,102.32211 C 200.66214,103.23345 202.30614,105.23346 206.72883,106.90013 C 211.15085,108.56681 218.35089,109.90015 221.83958,111.98882 C 225.32893,114.07817 225.10626,116.92218 222.99558,118.34486 C 220.88424,119.76686 216.88422,119.76686 213.8842,119.76686 C 210.88419,119.76686 208.88418,119.76686 205.88416,119.76686 C 202.88415,119.76686 198.88413,119.76686 196.88412,121.76687 C 194.88411,123.76688 194.88411,127.7669 195.88411,129.76691 C 196.88412,131.76692 198.88413,131.76692 197.88412,133.76693 C 196.88412,135.76694 192.8841,139.76696 189.88408,142.76698 C 186.88407,145.76699 184.88406,147.767 180.88404,147.767 C 176.88402,147.767 170.88399,145.76699 168.88398,145.76699 C 166.88397,145.76699 168.88398,147.767 170.88399,149.76701 C 172.884,151.76702 174.88401,153.76703 179.41736,154.76704 C 183.88405,155.76704 190.88409,155.76704 196.88412,151.76702 C 202.88415,147.767 207.88417,139.76696 211.41752,135.76694 C 214.88421,131.76692 216.88422,131.76692 220.3509,130.76692 C 223.88425,129.76691 228.88428,127.7669 232.35096,128.76691 C 235.88431,129.76691 237.88432,133.76693 240.351,135.76694 C 242.88435,137.76695 245.88436,137.76695 248.35104,136.76695 C 250.88439,135.76694 252.8844,133.76693 254.88441,131.76692"
         style="fill:#000000;fill-rule:evenodd;stroke:#202020;stroke-width:2.00001001;stroke-linecap:butt;stroke-linejoin:miter;stroke-miterlimit:10" />
      <path
         id="bock7x-1"
         class="Schwarz Rand2"
         d="M 254.88441,77.766654 C 254.88441,73.766634 254.88441,69.766614 252.35106,67.766604 C 249.88438,65.766594 244.88436,65.766594 243.88435,64.766589 C 242.88435,63.766584 245.88436,61.766574 248.35104,60.766569 C 250.88439,59.766564 252.8844,59.766564 255.41774,61.233238 C 257.88442,62.766579 260.88444,65.766594 261.88444,64.766589 C 262.88445,63.766584 261.88444,58.766559 259.88443,55.233208 C 257.88442,51.766524 254.88441,49.766514 254.35107,48.766509 C 253.8844,47.766504 255.88441,47.766504 258.35109,48.29984 C 260.88444,48.766509 263.88445,49.766514 266.35113,52.766529 C 268.88448,55.766544 270.88449,60.766569 272.8845,60.2999 C 274.88451,59.766564 276.88452,53.766534 275.88451,50.766519 C 274.88451,47.766504 270.88449,47.766504 269.88448,46.766499 C 268.88448,45.766494 270.88449,43.766484 273.41783,43.233148 C 275.88451,42.766479 278.88453,43.766484 280.88454,45.766494 C 282.88455,47.766504 283.88455,50.766519 283.41788,54.29987 C 282.88455,57.766554 280.88454,61.766574 277.88452,65.766594 C 274.88451,69.766614 270.88449,73.766634 266.88447,77.766654"
         style="fill:#000000;fill-rule:evenodd;stroke:#202020;stroke-width:2.00001001;stroke-linecap:butt;stroke-linejoin:miter;stroke-miterlimit:10" />
      <use
         class="Rand5Hell"
         xlink:href="#bock8-1"
         id="use73"
         style="fill-rule:evenodd;stroke:#ffffff;stroke-width:75;stroke-linecap:butt;stroke-linejoin:miter;stroke-miterlimit:10"
         x="0"
         y="0"
         width="438"
         height="480"
         transform="matrix(6.6667e-2,0,0,6.6667e-2,-3.1168831,-6.2337663)" />
      <use
         class="Schwarz Rand2"
         xlink:href="#bock8-1"
         id="use75"
         style="fill:#000000;fill-rule:evenodd;stroke:#202020;stroke-width:30;stroke-linecap:butt;stroke-linejoin:miter;stroke-miterlimit:10"
         x="0"
         y="0"
         width="438"
         height="480"
         transform="matrix(6.6667e-2,0,0,6.6667e-2,-3.1168831,-6.2337663)" />
      <path
         id="bockl9-1"
         class="Rand5Hell"
         d="M 275.88451,101.76677 C 277.88452,101.76677 279.88453,101.76677 284.35122,103.76678 C 288.88458,105.76679 295.88461,109.76681 303.41798,111.76682 C 310.88469,113.76683 318.88473,113.76683 322.88475,114.76684 C 326.88477,115.76684 326.88477,117.76685 323.88475,120.76687 C 320.88474,123.76688 314.88471,127.7669 308.88468,129.76691 C 302.88465,131.76692 296.88462,131.76692 291.88459,129.76691 C 286.88457,127.7669 282.88455,123.76688 278.88453,123.76688 C 274.88451,123.76688 270.88449,127.7669 266.88447,131.76692"
         style="fill-rule:evenodd;stroke:#ffffff;stroke-width:5.0000248;stroke-linecap:butt;stroke-linejoin:miter;stroke-miterlimit:10" />
      <path
         id="bock9-1"
         class="Schwarz Rand2"
         d="M 275.88451,101.76677 C 277.88452,101.76677 279.88453,101.76677 284.35122,103.76678 C 288.88458,105.76679 295.88461,109.76681 303.41798,111.76682 C 310.88469,113.76683 318.88473,113.76683 322.88475,114.76684 C 326.88477,115.76684 326.88477,117.76685 323.88475,120.76687 C 320.88474,123.76688 314.88471,127.7669 308.88468,129.76691 C 302.88465,131.76692 296.88462,131.76692 291.88459,129.76691 C 286.88457,127.7669 282.88455,123.76688 278.88453,123.76688 C 274.88451,123.76688 270.88449,127.7669 268.88448,129.76691 C 266.88447,131.76692 266.88447,131.76692 266.35113,131.23359 C 265.88446,130.76692 264.88446,129.76691 263.88445,128.76691"
         style="fill:#000000;fill-rule:evenodd;stroke:#202020;stroke-width:2.00001001;stroke-linecap:butt;stroke-linejoin:miter;stroke-miterlimit:10" />
      <path
         id="bock9x-1"
         class="Schwarz Rand2"
         d="M 278.88453,119.76686 C 280.88454,125.76689 282.88455,131.76692 284.88456,132.76693 C 286.88457,133.76693 288.88458,129.76691 290.88459,130.76692 C 292.8846,131.76692 294.88461,137.76695 296.88462,137.76695 C 298.88463,137.76695 300.88464,131.76692 302.88465,131.76692 C 304.88466,131.76692 306.88467,137.76695 308.88468,137.76695 C 310.88469,137.76695 312.8847,131.76692 314.88471,125.76689"
         style="fill:#000000;fill-rule:evenodd;stroke:#202020;stroke-width:2.00001001;stroke-linecap:butt;stroke-linejoin:miter;stroke-miterlimit:10" />
      <path
         id="linie9-1"
         class="Rand2Hell"
         d="M 242.88435,83.766684 C 246.88437,83.766684 250.88439,83.766684 253.8844,85.766694 C 256.88442,87.766704 258.88443,91.766724 259.88443,94.766739 C 260.88444,97.766754 260.88444,99.766764 260.88444,101.76677"
         style="fill-rule:evenodd;stroke:#ffffff;stroke-width:2.00001001;stroke-linecap:butt;stroke-linejoin:miter;stroke-miterlimit:10" />
      <path
         id="linie9-2"
         class="Rand2Hell"
         d="M 266.88447,113.76683 C 267.88447,115.76684 268.88448,117.76685 270.35115,117.76685 C 271.88449,117.76685 273.8845,115.76684 276.88452,114.76684 C 279.88453,113.76683 283.88455,113.76683 288.35124,114.76684 C 292.8846,115.76684 297.88462,117.76685 302.35131,118.76686 C 306.88467,119.76686 310.88469,119.76686 314.88471,119.76686"
         style="fill-rule:evenodd;stroke:#ffffff;stroke-width:2.00001001;stroke-linecap:butt;stroke-linejoin:miter;stroke-miterlimit:10" />
      <path
         id="auge-1"
         class="Silber Rand2"
         d="M 254.73241,96.302746 C 255.27446,93.046983 251.33688,89.646106 245.9196,88.691155 C 240.50233,87.736197 235.63964,89.585773 235.03631,92.830729 C 234.49425,96.086492 238.43184,99.487369 243.84911,100.44232 C 249.26638,101.39728 254.12907,99.547703 254.73241,96.302746 L 254.73241,96.302746 z"
         style="fill:#ffffff;fill-rule:evenodd;stroke:#202020;stroke-width:2.00001001;stroke-linecap:butt;stroke-linejoin:miter;stroke-miterlimit:10" />
      <path
         id="augei-1"
         class="Schwarz"
         d="M 248.48437,93.500066 C 248.48437,91.806384 247.11137,90.433384 245.41769,90.433384 C 243.72401,90.433384 242.35101,91.806384 242.35101,93.500066 C 242.35101,95.193748 243.72401,96.566748 245.41769,96.566748 C 247.11137,96.566748 248.48437,95.193748 248.48437,93.500066 z"
         style="fill:#000000;fill-rule:evenodd;stroke-width:10;stroke-linecap:butt;stroke-linejoin:miter;stroke-miterlimit:10" />
    </g>
    <g
       id="g13374">
      <use
         class="Rand4"
         xlink:href="#bart-1"
         id="use22"
         style="fill:#ffffff;fill-rule:evenodd;stroke:none;stroke-width:60;stroke-linecap:butt;stroke-linejoin:miter;stroke-miterlimit:10"
         x="0"
         y="0"
         width="438"
         height="480"
         transform="matrix(6.0606063e-2,0,0,6.0606063e-2,-45.454555,242.99999)" />
      <use
         class="Rand4"
         xlink:href="#herz-1"
         id="use24"
         style="fill:#ffffff;fill-rule:evenodd;stroke:none;stroke-width:60;stroke-linecap:butt;stroke-linejoin:miter;stroke-miterlimit:10"
         x="0"
         y="0"
         width="438"
         height="480"
         transform="matrix(6.0606063e-2,0,0,6.0606063e-2,-45.454555,242.99999)" />
      <use
         class="Schwarz"
         xlink:href="#bart-1"
         id="use26"
         style="fill:#ffffff;fill-rule:evenodd;stroke:none;stroke-width:10;stroke-linecap:butt;stroke-linejoin:miter;stroke-miterlimit:10"
         x="0"
         y="0"
         width="438"
         height="480"
         transform="matrix(6.0606063e-2,0,0,6.0606063e-2,-45.454555,242.99999)" />
      <use
         class="Schwarz"
         xlink:href="#herz-1"
         id="use28"
         style="fill:#ffffff;fill-rule:evenodd;stroke:none;stroke-width:10;stroke-linecap:butt;stroke-linejoin:miter;stroke-miterlimit:10"
         x="0"
         y="0"
         width="438"
         height="480"
         transform="matrix(6.0606063e-2,0,0,6.0606063e-2,-45.454555,242.99999)" />
      <path
         id="rund-1"
         class="Schwarz Rand2"
         d="M 152.72727,488.45455 C 148.71065,488.45455 145.45454,491.71066 145.45454,495.72727 L 145.45454,503 C 145.45454,507.01662 148.71065,510.27273 152.72727,510.27273 L 192.72727,510.27273 C 196.74389,510.27273 200,507.01662 200,503 L 200,495.72727 C 200,491.71066 196.74389,488.45455 192.72727,488.45455 L 152.72727,488.45455 z"
         style="fill:#ffffff;fill-rule:evenodd;stroke:none;stroke-width:1.81818187;stroke-linecap:butt;stroke-linejoin:miter;stroke-miterlimit:10" />
    </g>
  </g>
  <g
     inkscape:groupmode="layer"
     id="layer3"
     inkscape:label="Reflet final"
     style="display:inline"
     sodipodi:insensitive="true">
    <path
       style="fill:url(#radialGradient3236);fill-opacity:1"
       d="M 1.5,1.5 L 1.5,460.3679 C 1.5,626.67854 135.81454,761.5 301.49993,761.5 C 467.1854,761.5 601.5,626.67854 601.5,460.3679 L 601.5,1.5 L 1.5,1.5 z "
       id="path2346" />
  </g>
  <g
     inkscape:groupmode="layer"
     id="layer4"
     inkscape:label="Contour final"
     style="display:inline"
     sodipodi:insensitive="true">
    <path
       style="fill:none;fill-opacity:1;stroke:#000000;stroke-width:3;stroke-miterlimit:4;stroke-dasharray:none;stroke-opacity:1"
       d="M 1.5,1.5 L 1.5,460.36794 C 1.5,626.67854 135.81454,761.5 301.49993,761.5 C 467.1854,761.5 601.5,626.67854 601.5,460.36794 L 601.5,1.5 L 1.5,1.5 z"
       id="path3239" />
  </g>
</svg>
