<?xml version="1.0" encoding="UTF-8"?>
<!DOCTYPE svg  PUBLIC '-//W3C//DTD SVG 1.1//EN'  'http://www.w3.org/Graphics/SVG/1.1/DTD/svg11.dtd'>
<svg width="520" height="585" version="1.1" viewBox="0 0 100 112.5" xmlns="http://www.w3.org/2000/svg">
<title>Wappen von Erlinsbach</title>
<desc>Wappen der Schweizer Gemeinde Erlinsbach, Kanton Aargau</desc>
<defs>
<clipPath id="a">
<path d="m2 2h96v60.5a48 48 0 0 1-96 0z"/>
</clipPath>
</defs>
<path d="m0 0h100v62.5a50 50 0 0 1-100 0"/>
<g clip-path="url(#a)">
<path d="m0 0 112 112h-112" fill="#0093dd"/>
<path d="m0 0h82.4l-40 40m57.6-23v83l-40-43" fill="#fcdb00"/>
<g fill="#fff" stroke="#000">
<path transform="translate(7,-14.5) rotate(45)" d="m0 0c10 0 15 6 25 6s15-6 25-6 15 6 25 6 15-6 25-6 15 6 25 6 15-6 25-6v23.5c-10 0-15 6-25 6s-15-6-25-6-15 6-25 6-15-6-25-6-15 6-25 6-15-6-25-6"/>
<path d="m10 69h12l3.75-11.5 3.75 11.5h12l-9.7 7 3.7 11.5-9.75-7.1-9.75 7.1 3.7-11.5z"/>
</g>
</g>
</svg>
