<?xml version="1.0" encoding="UTF-8"?>
<svg version="1.0" viewBox="0 0 603 763" xmlns="http://www.w3.org/2000/svg" xmlns:cc="http://web.resource.org/cc/" xmlns:dc="http://purl.org/dc/elements/1.1/" xmlns:rdf="http://www.w3.org/1999/02/22-rdf-syntax-ns#" xmlns:xlink="http://www.w3.org/1999/xlink">
<metadata>
<rdf:RDF>
<cc:Work rdf:about="">
<dc:format>image/svg+xml</dc:format>
<dc:type rdf:resource="http://purl.org/dc/dcmitype/StillImage"/>
<dc:date>07-AUG-2006</dc:date>
<dc:creator>
<cc:Agent>
<dc:title>Jérôme BLUM (wagner51)</dc:title>
</cc:Agent>
</dc:creator>
<cc:license rdf:resource="http://creativecommons.org/licenses/GPL/2.0/"/>
<dc:coverage/>
<dc:description>Gabarit pour le Projet:Blasons de WIkipédia</dc:description>
<dc:subject>
<rdf:Bag>
<rdf:li>blason suisse modèle gabarit projet blasons</rdf:li>
</rdf:Bag>
</dc:subject>
<dc:language>fr</dc:language>
<dc:title>Gabrit d'un blason suisse</dc:title>
</cc:Work>
<cc:License rdf:about="http://creativecommons.org/licenses/GPL/2.0/">
<cc:permits rdf:resource="http://web.resource.org/cc/Reproduction"/>
<cc:permits rdf:resource="http://web.resource.org/cc/Distribution"/>
<cc:requires rdf:resource="http://web.resource.org/cc/Notice"/>
<cc:permits rdf:resource="http://web.resource.org/cc/DerivativeWorks"/>
<cc:requires rdf:resource="http://web.resource.org/cc/ShareAlike"/>
<cc:requires rdf:resource="http://web.resource.org/cc/SourceCode"/>
</cc:License>
</rdf:RDF>
</metadata>
<defs>
<radialGradient id="a" cx="858.04" cy="579.93" r="300" gradientTransform="matrix(1.215 1.5316e-24 1.4647e-23 1.2667 -839.19 -490.49)" gradientUnits="userSpaceOnUse">
<stop stop-color="#fff" stop-opacity=".31373" offset="0"/>
<stop stop-color="#fff" stop-opacity=".25098" offset=".19"/>
<stop stop-color="#6b6b6b" stop-opacity=".12549" offset=".6"/>
<stop stop-opacity=".12549" offset="1"/>
</radialGradient>
</defs>
<desc>Coat of Arms of Canton of Freiburg (Fribourg)</desc>
<g>
<path d="m1.5 1.5v458.87c0 166.31 134.31 301.13 300 301.13 165.69 0 300-134.82 300-301.13v-458.87h-600z" fill="#fff"/>
<path d="m1.4996 1.5004v458.87c0 166.31 134.31 301.12 300 301.12h0.15625v-760h-300.16z" stroke="#000" stroke-width="2.6732"/>
<g fill-rule="evenodd" stroke="#000" stroke-width="3.917px">
<path d="m300.49 716.95c10.294-33.13 14.495-83.33 54.062-62.094 13.912-17.075 28.013-17.893 44.736-8.3487 7.6959-21.295 12.339-42.932 11.793-69.434l12.245-2.2263c-1.91-54.852-50.145-149.92-112.5-139.32 2.68-59.899 8.5235-65.098 35.89-69.029 29.081-4.1776 80.494-2.571 173.42-10.98-89.004-4.2889-143.41-5.8765-174.74-9.0978-23.55-2.4216-30.207-8.5322-32.344-58.562 48.131 1.6357 98.088-60.047 108.6-141.1l-16.802 0.55656c3.5285-23.701-0.0889-47.403-15.689-71.104-13.322 11.745-33.241 14.324-43.066-9.4619-23.71 14.837-36.822-7.4362-45.849-20.698-11.309 11.826-24.642 35.954-42.509 20.698-8.0685 18.645-27.031 28.091-43.066 15.689-10.831 17.898-16.067 28.852-15.689 62.094h-12.906c-2.3818 32.857 28.493 143.27 103.49 144.33-0.15072 54.431-11.286 58.844-42.122 62.954-43.192 5.7568-99.559-0.01199-184.44 5.9243 100.54 7.8466 150.55 5.0756 183.62 8.7347 32.489 3.5953 39.915 4.7511 43.646 69.15-51.482-5.0293-103.52 63.592-107.08 141.45l12.454 0.5566c2.0208 22.032 5.1177 44.063 14.471 66.095 11.588-10.602 30.818-11.889 43.727 8.9053 35.299-15.429 35.028 32.185 46.646 64.321zm169.54-474.93-9.7603 20.029c21.582-6.7209 45.075-8.0672 70.798-0.88731-5.7454 14.594-8.4734 33.466 20.472 40.501-18.086 36.201-0.9907 46.175 36 56.537-33.151 5.4073-50.954 21.486-32.451 52.987-18.339 6.8208-42.59 15.659-18.254 46.712-22.965 5.0308-44.89 4.7704-70.29 0v12.93c-71.576 2.962-148.14-70.547-117.13-113.07-40.946-68.212 69.283-102.58 120.62-115.74z"/>
<path d="m126.97 242.01 9.7604 20.029c-21.582-6.7209-45.075-8.0672-70.798-0.88731 5.7455 14.594 8.4735 33.466-20.472 40.501 18.086 36.201 0.99072 46.175-36 56.537 33.151 5.4073 50.954 21.486 32.451 52.987 18.339 6.8208 42.59 15.659 18.254 46.712 22.965 5.0308 44.89 4.7704 70.29 0v12.93c71.576 2.962 148.14-70.547 117.13-113.07 40.946-68.212-69.283-102.58-120.62-115.74zm171.28-195.95c-11.309 11.826-24.632 35.944-42.5 20.688-8.0685 18.645-27.028 28.09-43.062 15.688-10.831 17.898-16.065 28.852-15.688 62.094h-12.906c-2.3818 32.857 28.471 143.29 103.47 144.34-0.15072 54.431-11.289 58.828-42.125 62.938-43.192 5.7568-99.553 0.00118-184.44 5.9375 100.54 7.8466 150.56 5.0596 183.62 8.7188 32.489 3.5953 39.925 4.7576 43.656 69.156-51.482-5.0293-103.54 63.584-107.09 141.44l12.469 0.5625c2.0208 22.032 5.1154 44.062 14.469 66.094 11.588-10.602 30.809-11.888 43.719 8.9062 35.299-15.429 35.039 32.177 46.656 64.312 1.1055-3.5581 2.1399-7.314 3.1562-11.156v-654.72c-1.194-1.7461-2.3376-3.43-3.4062-5z" fill="#fff"/>
</g>
<path d="m1.5 1.5v458.87c0 166.31 134.31 301.13 300 301.13 165.69 0 300-134.82 300-301.13v-458.87h-600z" fill="url(#a)"/>
<path d="m1.5 1.5v458.87c0 166.31 134.31 301.13 300 301.13 165.69 0 300-134.82 300-301.13v-458.87h-600z" fill="none" stroke="#000" stroke-width="3"/>
</g>
</svg>
