<?xml version="1.0" encoding="UTF-8"?>
<!DOCTYPE svg  PUBLIC '-//W3C//DTD SVG 1.1//EN'  'http://www.w3.org/Graphics/SVG/1.1/DTD/svg11.dtd'>
<svg width="520" height="585" version="1.1" viewBox="0 0 100 112.5" xmlns="http://www.w3.org/2000/svg" xmlns:xlink="http://www.w3.org/1999/xlink">
<title>Wappen von Villmergen</title>
<desc>Wappen der Schweizer Gemeinde Villmergen, Kanton Aargau</desc>
<path d="m1 1v61.5a49 49 0 0 0 98 0v-61.5z" fill="#fff" stroke="#000" stroke-width="2"/>
<circle cx="50" cy="51.5" r="29" fill="#f00000"/>
<g id="a" stroke="#000" stroke-linecap="round">
<path d="m33.26 27.69c-4.56-6.79-0.05-15.49 16.74-15.49s21.3 8.7 16.74 15.49m-24.94 12.51c3.07-2.24-6.79-10-8.54-12.51-2.07-2.97-2.36-6.9-0.06-9.07 4.67-4.4 11.62 1.2 16.8 1.17 5.18 0.03 12.13-5.57 16.8-1.17 2.3 2.17 2.01 6.1-0.06 9.07-1.75 2.51-11.61 10.27-8.54 12.51" fill="#f00000"/>
<path d="m50.48 80.58c0 4.65 3.16 5.62 2.64 11.14-0.58-0.14-0.87-0.28-1.36-0.88 0.12 2.22-0.46 3.75-1.76 5.33-1.3-1.58-1.88-3.11-1.76-5.33-0.49 0.6-0.78 0.74-1.36 0.88-0.52-5.52 2.64-6.49 2.64-11.14" fill="#094"/>
<path d="m47 39c3 0 2.5-19.5 3-19.5s0 19.5 3 19.5" stroke="none"/>
</g>
<g id="b">
<use transform="rotate(72,50,51.5)" xlink:href="#a"/>
<use transform="rotate(144,50,51.5)" xlink:href="#a"/>
</g>
<use transform="rotate(144,50,51.5)" xlink:href="#b"/>
<circle cx="50" cy="51.5" r="13" fill="#fcdb00" stroke="#000"/>
</svg>
