<?xml version="1.0" encoding="UTF-8"?>
<!DOCTYPE svg  PUBLIC '-//W3C//DTD SVG 1.0//EN'  'http://www.w3.org/TR/2001/REC-SVG-20010904/DTD/svg10.dtd'>
<svg width="687" height="768" version="1.0" viewBox="-2.3812 -2.3812 84.138 94.05" xmlns="http://www.w3.org/2000/svg">
<defs>
<clipPath id="b">
<path d="m354.48 410.28h63.71v-71.63h-63.71v71.63z"/>
</clipPath>
<clipPath id="a">
<path d="m354.48 410.28h63.71v-71.63h-63.71v71.63z"/>
</clipPath>
</defs>
<g transform="translate(-206.03 192.28)">
<g transform="matrix(1.25 0 0 1.25 -237.21 -615.71)">
<g clip-path="url(#b)">
<path d="m354.59 338.74h63.5v39.69 1.62l-0.17 1.62-0.17 1.57-0.28 1.57-0.39 1.57-0.4 1.51-0.5 1.46-0.56 1.45-0.67 1.4-0.67 1.34-0.78 1.34-0.79 1.29-0.89 1.23-0.96 1.23-1.01 1.13-1.05 1.12-1.07 1.06-1.18 0.95-1.17 0.95-1.29 0.9-1.29 0.84-1.29 0.72-1.4 0.73-1.4 0.62-1.45 0.55-1.46 0.51-1.51 0.44-1.52 0.34-1.56 0.28-1.62 0.22-1.57 0.12-1.68 0.06-1.63-0.06-1.62-0.12-1.57-0.22-1.56-0.28-1.52-0.34-1.51-0.44-1.51-0.51-1.4-0.55-1.4-0.62-1.4-0.73-1.34-0.72-1.29-0.84-1.23-0.9-2.36-1.9-1.05-1.06-1.07-1.12-1.01-1.13-0.95-1.23-0.9-1.23-0.79-1.29-0.78-1.34-0.72-1.34-0.62-1.4-0.56-1.45-0.5-1.46-0.45-1.51-0.34-1.57-0.28-1.57-0.22-1.57-0.12-1.62-0.05-1.62v-39.69z" fill-rule="evenodd"/>
</g>
<g clip-path="url(#a)">
<path d="m395.13 359.74v0l0.5-0.23 0.62-0.22v0l0.79-0.28 0.89-0.16v0l0.78-0.18 0.73-0.11 1.4-0.17v0l-0.78-0.11h-0.39-0.4v0h-0.94v0l-0.79 0.11-0.79 0.17-0.73 0.23-0.78 0.22v0l-0.11 0.73v0z" fill="#094" fill-rule="evenodd" stroke="#094" stroke-linecap="round" stroke-linejoin="round" stroke-miterlimit="10" stroke-width=".12"/>
<path d="m366.46 370.37v0l-3.08-1.34-0.06-0.29v0l3.14 1.24v0l-0.17-0.45v0l-0.16-0.27-0.29-0.34-0.55-0.56v0l-0.45-0.34-0.51-0.39-0.61-0.34-0.45-0.22v0l-0.5-0.17-0.57-0.11-0.56-0.06h-0.5v0 0.34l0.06 0.28 0.16 0.5v0l0.18 0.34 0.1 0.34v0l0.29 0.5 0.34 0.39 0.33 0.39 0.39 0.34 0.39 0.27 0.45 0.18 0.44 0.16 0.46 0.06v0l0.33-0.06 0.34-0.05v0l0.55-0.11 0.29-0.12 0.22-0.11v0z" fill="#094" fill-rule="evenodd" stroke="#094" stroke-linecap="round" stroke-linejoin="round" stroke-miterlimit="10" stroke-width=".12"/>
<path d="m412.27 366.62v0l-0.29-0.11v0l-0.34-0.06h-0.5l-0.55 0.06-0.57 0.11v0l-0.38 0.11-0.34 0.17-0.62 0.39v0l-0.56 0.45-0.5 0.62v0l-0.23 0.33-0.16 0.39-0.23 0.39v0l0.73-0.39 1-0.45 1.23-0.55v0l-0.32 0.28-0.73 0.5-1.18 0.84v0l-0.28 0.22v0l0.62 0.12 0.5 0.05h0.56v0l0.51-0.11 0.44-0.17 0.45-0.28 0.39-0.33v0l0.34-0.23 0.22-0.28 0.22-0.27 0.23-0.34v0l0.17-0.39 0.17-0.4v0-0.39-0.28 0z" fill="#094" fill-rule="evenodd" stroke="#094" stroke-linecap="round" stroke-linejoin="round" stroke-miterlimit="10" stroke-width=".12"/>
<path d="m404.98 369.42v0l0.23-1.57 0.28-1.4v0l-0.06 1.51v0.84l0.06 0.34v0.17 0l0.22-0.17 0.45-0.51 0.28-0.33 0.23-0.34 0.16-0.38 0.11-0.34v0l0.06-0.51v-0.5 0l-0.11-0.67-0.22-0.62-0.28-0.5-0.4-0.45v0l-0.28-0.22-0.16 0.11v0l-0.51 0.39-0.44 0.4-0.18 0.27-0.16 0.28-0.17 0.29-0.11 0.32v0l-0.11 0.4v0.33 0.4l0.05 0.39v0l0.06 0.39 0.11 0.34 0.33 0.66v0l0.29 0.34 0.27 0.34v0z" fill="#094" fill-rule="evenodd" stroke="#094" stroke-linecap="round" stroke-linejoin="round" stroke-miterlimit="10" stroke-width=".12"/>
<path d="m367.64 369.36v0-1l-0.12-1.07v0l-0.05-0.62v-0.32-0.29 0l0.28 0.5 0.17 0.51 0.11 0.62 0.05 0.5v0l0.06 0.5 0.11 0.51v0l0.29-0.28 0.22-0.34v0l0.16-0.22 0.06-0.28v0l0.17-0.39 0.05-0.34v-0.68 0l-0.05-0.44v0l-0.11-0.45-0.17-0.5-0.28-0.4-0.56-0.78-0.33-0.27-0.62-0.45v0l-0.06 0.11-0.11 0.22-0.23 0.44v0l-0.22 0.52-0.11 0.55-0.11 0.56-0.06 0.51v0 0.56 0.28l0.06 0.33v0l0.11 0.39 0.11 0.34 0.17 0.34 0.28 0.33v0l0.39 0.34 0.22 0.16h0.12v0z" fill="#094" fill-rule="evenodd" stroke="#094" stroke-linecap="round" stroke-linejoin="round" stroke-miterlimit="10" stroke-width=".12"/>
<path d="m393.34 368.58v0l0.11-0.16 0.11-0.18 0.11-0.39v0l0.12-0.39 0.11-0.33 0.05-0.84v0-0.68 0l-0.11-0.5-0.11-0.44-0.23-0.52-0.27-0.38v0l-0.46-0.56-0.32-0.34-0.12-0.06-0.11-0.05 0.05 0.16 0.39 1.75v0l0.17 0.44 0.06 0.45v0 0.22l-0.06 0.23h-0.11v0l-0.95-2.75v0l-0.22 0.57-0.17 0.66-0.06 0.39-0.05 0.4 0.05 0.39 0.11 0.45v0l0.12 0.33 0.28 0.45 0.56 0.79v0l0.38 0.39v0l0.29 0.22 0.17 0.12 0.11 0.16v0z" fill="#094" fill-rule="evenodd" stroke="#094" stroke-linecap="round" stroke-linejoin="round" stroke-miterlimit="10" stroke-width=".12"/>
<path d="m379.45 368.47v0l0.22-0.05v0l0.56-0.46 0.45-0.44v0l0.17-0.28v0l0.17-0.23 0.17-0.22v0l0.22-0.56 0.23-0.62v0-0.78 0l-0.18-0.5-0.16-0.45h-0.11v0l-0.96 2.57h-0.05v0l0.05-0.44v0l0.07-0.45v0l0.05-0.51 0.11-0.5v0l0.17-0.56 0.22-0.61v0h-0.11v0l-0.62 0.39v0l-0.33 0.38-0.28 0.46v0l-0.17 0.22-0.11 0.22v0l-0.06 0.23-0.05 0.23v0l-0.11 0.5v0 0.39 0 0.45 0l0.22 0.84 0.22 0.78v0z" fill="#094" fill-rule="evenodd" stroke="#094" stroke-linecap="round" stroke-linejoin="round" stroke-miterlimit="10" stroke-width=".12"/>
<path d="m396.08 366.12v0l0.12-0.11 0.11-0.12 0.22-0.38v0l0.28-0.57 0.17-0.61v0-0.28-0.34 0l-0.06-0.84-0.06-0.39-0.11-0.4v0l-0.22-0.44-0.28-0.34v0l-0.23-0.22-0.1-0.11-0.18-0.11v0l-0.33-0.06h-0.23v0l0.12 0.44 0.11 0.46v0l0.22 0.84 0.11 0.84v0l-0.05 0.27-0.11-0.05v0l-0.17-0.5v0l-0.45-1.13v0l-0.17-0.44-0.22-0.45v0l-0.12 0.22v0l-0.16 0.57-0.11 0.55v0l-0.05 0.34 0.05 0.34v0l0.11 0.5 0.16 0.45v0l0.12 0.44 0.17 0.39v0l0.28 0.4 0.28 0.33 0.39 0.28 0.39 0.23v0z" fill="#094" fill-rule="evenodd" stroke="#094" stroke-linecap="round" stroke-linejoin="round" stroke-miterlimit="10" stroke-width=".12"/>
<path d="m376.65 365.95v0l0.45-0.39 0.45-0.34v0l0.39-0.5v0l0.17-0.34 0.17-0.39v0l0.16-0.61 0.06-0.51v0l-0.06-0.45v0l-0.05-0.5-0.17-0.56-0.17-0.62v0l-0.5 1.07-0.22 0.56-0.18 0.55v0l-0.05 0.46-0.11 0.39v0-0.39-0.62 0l0.06-0.39 0.05-0.4 0.17-0.73v0l0.17-0.66v0l-0.17 0.05-0.17 0.11-0.39 0.39v0l-0.29 0.23-0.21 0.28v0l-0.17 0.39v0l-0.12 0.39-0.11 0.39-0.05 0.45v0.45 0 0.39l0.11 0.39v0l0.23 0.5 0.16 0.34v0l0.22 0.39 0.17 0.23v0z" fill="#094" fill-rule="evenodd" stroke="#094" stroke-linecap="round" stroke-linejoin="round" stroke-miterlimit="10" stroke-width=".12"/>
<path d="m403.47 365.39v0l0.17-0.4 0.23-0.38 0.11-0.4v0l0.11-0.44 0.05-0.34 0.06-0.39v-0.39 0l-0.06-0.45-0.16-0.39v0l-0.22-0.45-0.29-0.39v0l-0.67-0.84v0 0.33 0.34 0 0.5l-0.11 0.62-0.11 0.78v0l-0.23-1.34-0.11-0.78-0.11-0.39v0l-0.17 0.21-0.17 0.23-0.11 0.29-0.05 0.21v0.51 0.56 0l0.05 0.5 0.11 0.4 0.11 0.39 0.23 0.45v0l0.22 0.39 0.23 0.34v0l0.28 0.27 0.28 0.23 0.33 0.22v0z" fill="#094" fill-rule="evenodd" stroke="#094" stroke-linecap="round" stroke-linejoin="round" stroke-miterlimit="10" stroke-width=".12"/>
<path d="m369.71 364.55v0l0.56-0.28 0.28-0.22 0.22-0.17v0l0.22-0.28 0.23-0.39 0.34-0.9v0-0.39-0.39-0.34l-0.11-0.39v0l-0.17-0.34-0.23-0.33-0.33-0.56-0.57 2.63v0l-0.05-0.96v-0.89 0-0.45 0-0.44 0l-0.28 0.33v0l-0.28 0.4-0.16 0.33-0.12 0.4-0.11 0.38v0l-0.06 0.67v0.63l0.11 0.61 0.23 0.62v0l0.28 0.72v0z" fill="#094" fill-rule="evenodd" stroke="#094" stroke-linecap="round" stroke-linejoin="round" stroke-miterlimit="10" stroke-width=".12"/>
<path d="m409.07 360.86v0l-0.06-0.46-0.16-0.38-0.23-0.34-0.27-0.33-0.34-0.29-0.34-0.27-0.39-0.17-0.45-0.17-0.39-0.17-0.45-0.06-0.5-0.05-0.45 0.05-0.44 0.06-0.46 0.11-0.38 0.23-0.4 0.23v0l0.67 0.16 0.68 0.16v0l0.95 0.34 0.5 0.17 0.34 0.22v0l-1.52-0.27-1.95-0.28v0l0.05 0.16 0.17 0.23 0.28 0.39v0l0.45 0.39 0.56 0.4 0.33 0.16 0.34 0.16 0.34 0.12 0.39 0.11v0h0.33 0.34l0.67-0.05v0l0.5-0.06 0.45-0.12 0.39-0.16 0.45-0.22v0z" fill="#094" fill-rule="evenodd" stroke="#094" stroke-linecap="round" stroke-linejoin="round" stroke-miterlimit="10" stroke-width=".12"/>
<path d="m369.6 358.9v0l-0.56 0.16-1.01 0.29-1.46 0.33v0l0.45-0.22v0l2.41-0.9v0l-0.23-0.11-0.28-0.12-0.67-0.16-0.67-0.05h-0.56v0l-0.34 0.1-0.39 0.06-0.66 0.28v0l-0.29 0.17-0.34 0.28-0.55 0.5v0l-0.34 0.45-0.34 0.5v0l0.39 0.23 0.57 0.34v0l0.5 0.16 0.5 0.11v0h0.73l0.67-0.11 0.62-0.22 0.5-0.34v0l0.34-0.28 0.28-0.27 0.51-0.68v0l0.16-0.23 0.06-0.11v-0.16 0z" fill="#094" fill-rule="evenodd" stroke="#094" stroke-linecap="round" stroke-linejoin="round" stroke-miterlimit="10" stroke-width=".12"/>
<path d="m377.83 359.85v0l0.06-0.5v0l-0.96-0.34-0.95-0.28-1.9-0.4v0h-0.62l-0.9 0.06-1.45 0.12v0l0.06 0.05 0.16 0.06 0.23 0.05v0l1.84 0.06v0l0.68 0.06 0.72 0.16 1.35 0.34v0l1.68 0.56v0z" fill="#094" fill-rule="evenodd" stroke="#094" stroke-linecap="round" stroke-linejoin="round" stroke-miterlimit="10" stroke-width=".12"/>
<path d="m370.55 358.17v0l-0.06-0.5-0.22-1.02-0.34-1.39v0l0.28 0.62 0.28 0.61v0l0.56 1.46v0l0.12-0.34 0.16-0.44v0l0.06-0.34v-0.39l-0.06-0.34-0.05-0.39v0l-0.11-0.4-0.18-0.44-0.22-0.34-0.22-0.33-0.28-0.34-0.28-0.22-0.56-0.4v0l-0.23-0.11-0.22-0.05v0l-0.28 0.5-0.16 0.56v0l-0.12 0.67-0.06 0.34 0.06 0.39v0l0.06 0.34 0.11 0.33v0l0.17 0.5 0.28 0.4v0l0.34 0.38 0.39 0.34v0l0.44 0.18 0.34 0.16v0z" fill="#094" fill-rule="evenodd" stroke="#094" stroke-linecap="round" stroke-linejoin="round" stroke-miterlimit="10" stroke-width=".12"/>
<path d="m401.68 358.06v0l0.45-1.41 0.28-0.72 0.17-0.28 0.11-0.17v0l0.23-0.17v0l-0.18 0.62-0.22 0.67v0l-0.28 1.35v0h0.28l0.22-0.12 0.45-0.28v0l0.45-0.38 0.23-0.29 0.22-0.28 0.17-0.27 0.11-0.34 0.11-0.39 0.06-0.4v0l-0.06-0.44-0.06-0.45-0.11-0.34-0.11-0.28v0l-0.17-0.22-0.11-0.23-0.39-0.33v0l-0.45 0.22-0.39 0.23-0.39 0.33v0l-0.22 0.23-0.18 0.28-0.27 0.5-0.17 0.56-0.11 0.56v0 0.62 0l0.11 0.73v0l0.11 0.44 0.11 0.45v0z" fill="#094" fill-rule="evenodd" stroke="#094" stroke-linecap="round" stroke-linejoin="round" stroke-miterlimit="10" stroke-width=".12"/>
<path d="m398.15 357.28v0l0.12-0.23 0.06-0.4 0.32-1.78 0.12-0.34 0.11-0.16v0 0.39l-0.05 0.89-0.18 1.63v0l0.18-0.11 0.39-0.29 0.39-0.44 0.17-0.23 0.11-0.22v0l0.17-0.39 0.11-0.45v0l0.05-0.57-0.05-0.5v0l-0.06-0.39-0.1-0.39v0l-0.29-0.5-0.28-0.45-0.39-0.5v0l-0.51 0.22v0l-0.39 0.39-0.27 0.23-0.18 0.33v0l-0.22 0.51-0.17 0.5v0l-0.11 0.67v0.34l0.06 0.38v0l0.11 0.51 0.22 0.45 0.29 0.45 0.27 0.45v0z" fill="#094" fill-rule="evenodd" stroke="#094" stroke-linecap="round" stroke-linejoin="round" stroke-miterlimit="10" stroke-width=".12"/>
<path d="m373.4 357.17v0l0.12-0.73 0.17-0.79v0l0.11-0.45v0l0.05-0.28 0.17-0.22 0.17-0.33v0l-0.17 1.39-0.06 1.41v0l0.28-0.18 0.23-0.28v0l0.17-0.22 0.1-0.22 0.18-0.51v0l0.16-0.5 0.06-0.45v-0.44l-0.11-0.57v0l-0.17-0.61-0.22-0.61v0l-0.17-0.23-0.17-0.22v0l-0.45 0.27-0.33 0.34-0.34 0.45-0.28 0.5v0l-0.17 0.39-0.11 0.39v0.4l-0.06 0.44v0l0.06 0.51v0.17l0.05 0.22v0l0.18 0.28 0.16 0.22 0.39 0.46v0z" fill="#094" fill-rule="evenodd" stroke="#094" stroke-linecap="round" stroke-linejoin="round" stroke-miterlimit="10" stroke-width=".12"/>
<path d="m377.1 357.05v0l0.5-0.17v0l0.45-0.17 0.39-0.22 0.34-0.22 0.34-0.34v0l0.39-0.51 0.34-0.5v0l0.16-0.39 0.11-0.39v0l0.11-0.5 0.07-0.45 0.11-1.12v0l-0.18 0.17-0.16 0.16-0.28 0.34v0l-0.84 0.9-0.51 0.5v0l0.11-0.22v0l0.34-0.62 0.34-0.5v0l0.84-1.24v0h-0.34-0.22-0.23v0l-0.39 0.17-0.39 0.23v0l-0.39 0.28-0.28 0.28-0.28 0.33-0.22 0.45v0l-0.34 0.67-0.11 0.34-0.06 0.33-0.06 0.67 0.06 0.73v0l0.11 0.56 0.17 0.45v0z" fill="#094" fill-rule="evenodd" stroke="#094" stroke-linecap="round" stroke-linejoin="round" stroke-miterlimit="10" stroke-width=".12"/>
<path d="m396.31 356.6v0l0.11-0.45v-0.44 0-0.51l-0.11-0.5v0l-0.11-0.44-0.18-0.4-0.16-0.33-0.23-0.4v0l-0.22-0.22-0.28-0.22-0.5-0.4v0l-0.45-0.33-0.28-0.11-0.29-0.06v0l0.23 0.5 0.29 0.62v0l0.27 0.83 0.12 0.57v0l-0.91-1.57v0l-0.38-0.61v0l-0.12 0.22-0.05 0.23v0l-0.06 0.33v0.56 0l0.06 0.45 0.11 0.39 0.17 0.33 0.22 0.34 0.23 0.28 0.28 0.28 0.33 0.28 0.34 0.22v0l0.44 0.29v0l0.34 0.11 0.34 0.05 0.45 0.11v0z" fill="#094" fill-rule="evenodd" stroke="#094" stroke-linecap="round" stroke-linejoin="round" stroke-miterlimit="10" stroke-width=".12"/>
<path d="m382.92 352.35v0-0.62 0l-1.4-0.44-0.72-0.28-0.5-0.23v0 0.11 0l0.78 0.46v0l0.5 0.27v0l0.95 0.62v0l0.23 0.05 0.16 0.06v0z" fill="#094" fill-rule="evenodd" stroke="#094" stroke-linecap="round" stroke-linejoin="round" stroke-miterlimit="10" stroke-width=".12"/>
<path d="m390.54 351.9v0l1.18-0.78v0l-0.11-0.06-0.12-0.05v0l-1.01 0.5v0 0.22l0.06 0.17v0z" fill="#094" fill-rule="evenodd" stroke="#094" stroke-linecap="round" stroke-linejoin="round" stroke-miterlimit="10" stroke-width=".12"/>
<path d="m400.28 349.44v0l-0.22-0.23v0l-0.17-0.16-0.4-0.28-0.5-0.28-0.56-0.23v0l-0.55-0.22-0.29-0.06-0.33-0.06v0h-0.34l-0.39 0.06-0.28 0.06-0.33 0.11-0.56 0.28-0.57 0.4v0l-0.39 0.38-0.33 0.46v0h1.62 1.46v0l-1.01 0.22-0.84 0.1v0l-1.29 0.29v0l0.17 0.23 0.34 0.27 0.27 0.17 0.34 0.17v0l0.34 0.11 0.39 0.12h0.39l0.39 0.05 0.4-0.05 0.38-0.06 0.4-0.06 0.33-0.11v0l0.39-0.17 0.34-0.23v0l0.79-0.73 0.61-0.55v0z" fill="#094" fill-rule="evenodd" stroke="#094" stroke-linecap="round" stroke-linejoin="round" stroke-miterlimit="10" stroke-width=".12"/>
<path d="m378.83 350.62v0l-0.66-0.23-0.68-0.17v0l-0.56-0.17-0.56-0.16v0h0.34l0.89 0.05 1.63 0.17v0l-0.22-0.39-0.12-0.23-0.22-0.16v0l-0.23-0.17-0.22-0.17v0l-0.51-0.34-0.44-0.22-0.51-0.17-0.44-0.11h-0.51-0.44l-0.57 0.06-0.56 0.17v0l-0.39 0.11-0.39 0.16-0.39 0.18-0.4 0.27v0l0.18 0.28 0.22 0.23 0.22 0.28 0.29 0.28 0.32 0.22 0.4 0.23 0.39 0.21 0.39 0.18 0.9 0.22 0.44 0.06h0.51l0.51-0.12 0.45-0.11 0.5-0.17 0.44-0.27v0z" fill="#094" fill-rule="evenodd" stroke="#094" stroke-linecap="round" stroke-linejoin="round" stroke-miterlimit="10" stroke-width=".12"/>
<path d="m381.08 350.56v0l-0.06-0.23-0.06-0.28-0.28-0.78-0.45-1.12v0-0.17-0.22-0.22l1.29 2.85v0l0.17-0.34 0.11-0.33 0.06-0.34 0.06-0.39-0.06-0.39-0.11-0.34-0.11-0.39-0.23-0.39-0.39-0.78-0.56-0.67-0.56-0.57-0.56-0.38v0l-0.17 0.33-0.16 0.39-0.12 0.78v0.39l0.06 0.45 0.11 0.39 0.11 0.4 0.34 0.73 0.45 0.67 0.27 0.28 0.23 0.28 0.28 0.22 0.34 0.17v0z" fill="#094" fill-rule="evenodd" stroke="#094" stroke-linecap="round" stroke-linejoin="round" stroke-miterlimit="10" stroke-width=".12"/>
<path d="m391.83 349.99v0l0.39-0.1 0.34-0.17 0.33-0.23 0.28-0.28 0.17-0.27 0.16-0.34 0.17-0.34 0.12-0.34 0.05-0.38v-0.4-0.38l-0.05-0.34-0.06-0.39-0.12-0.34-0.16-0.34-0.16-0.33v0l-0.46 0.33-0.38 0.28-0.4 0.34v0l-0.28 0.33-0.22 0.28-0.23 0.34-0.17 0.39v0l-0.11 0.34-0.11 0.33-0.05 0.34v0.39 0 0.39 0.23l0.05 0.16v0l0.11 0.18 0.17 0.16 0.17 0.11v0l0.17-0.61 0.33-0.95v0l0.34-0.78v0l-0.11 0.94-0.28 1.45v0z" fill="#094" fill-rule="evenodd" stroke="#094" stroke-linecap="round" stroke-linejoin="round" stroke-miterlimit="10" stroke-width=".12"/>
<path d="m388.91 348.65v0l0.4-0.05 0.39-0.17v0l0.34-0.17 0.28-0.34 0.22-0.32 0.28-0.34 0.17-0.39 0.16-0.45 0.12-0.39 0.05-0.4v0l0.06-0.55 0.05-0.57v0l-0.05-0.72v0l-0.95 0.33v0l-0.45 0.17v0l-0.5 0.28-0.4 0.28-0.17 0.23-0.16 0.16-0.11 0.28-0.06 0.22v0l-0.06 0.4 0.06 0.22v0l0.06 0.34v0l0.22 1.06v0l0.11-0.11 0.11-0.05v0l0.23-0.34 0.33-0.45 0.34-0.57v0l-0.28 0.73-0.34 0.79-0.45 0.89v0z" fill="#094" fill-rule="evenodd" stroke="#094" stroke-linecap="round" stroke-linejoin="round" stroke-miterlimit="10" stroke-width=".12"/>
<path d="m383.76 348.65v0l0.29-0.05 0.22-0.06v0l-1.51-2.35v-0.22 0l0.38 0.39 0.62 0.72 0.84 1.07v0l0.06-0.5-0.06-0.57-0.11-0.5-0.17-0.55v0l-0.27-0.57-0.34-0.44-0.45-0.34-0.5-0.33v0l-0.51-0.29-0.45-0.1v0h-0.28v0l-0.06 0.5v0.56l0.12 0.61 0.17 0.61v0l0.17 0.4 0.16 0.39 0.22 0.34 0.29 0.33v0l0.28 0.34 0.22 0.28 0.28 0.22 0.23 0.06 0.16 0.05v0z" fill="#094" fill-rule="evenodd" stroke="#094" stroke-linecap="round" stroke-linejoin="round" stroke-miterlimit="10" stroke-width=".12"/>
<path d="m386.11 345.63v0-0.5l-0.05-0.39 0.05-0.39v0l0.06-0.45 0.06-0.28 0.05-0.11v0l0.17 1 0.12 1.07v0l0.27-0.12 0.34-0.22 0.17-0.16 0.17-0.23 0.11-0.17 0.05-0.22v0-0.34 0-0.56l-0.05-0.28-0.06-0.33v0l-0.11-0.28-0.17-0.28-0.45-0.51-0.5-0.5v0l-0.73 0.67v0l-0.34 0.44-0.22 0.52-0.11 0.5 0.06 0.61v0l0.05 0.34 0.06 0.28v0l0.11 0.22 0.17 0.17 0.28 0.22 0.28 0.11 0.11 0.06 0.05 0.11v0z" fill="#094" fill-rule="evenodd" stroke="#094" stroke-linecap="round" stroke-linejoin="round" stroke-miterlimit="10" stroke-width=".12"/>
<path d="m397.48 392.08v0l-0.17-0.22-0.16-0.16-0.11-0.12v0l-0.34-0.11v0l-0.5-0.23-0.51-0.22-0.22-0.16-0.23-0.17-0.22-0.23-0.17-0.22v0l-0.17-0.28-0.05-0.28-0.18-0.51v0l-0.21-0.44-0.34-0.4v0l-0.4-0.5-0.39-0.22v0l0.62-0.12 0.72-0.11v0l0.68-0.05h0.34l0.33 0.05v0l0.34 0.11v0l0.44 0.12 0.4 0.11 0.39 0.17 0.39 0.28v0l0.28 0.22 0.17 0.28 0.39 0.62v0l0.84 1.23v0l0.34 0.17 0.33 0.17 0.9 0.22 1.73 0.28v0l-0.5-0.23-0.45-0.21-0.5-0.23-0.45-0.23v0l-0.28-0.17-0.23-0.21v0l-0.16-0.18-0.11-0.22-0.23-0.45v0l-0.05-0.28-0.06-0.28-0.05-0.61-0.06-0.51-0.06-0.28-0.17-0.22v0l-0.21-0.22-0.29-0.18v0l0.23-0.05h0.16l0.4 0.11v0l0.61 0.17 0.34 0.23 0.78 0.61v0l0.56 0.34 0.62 0.22v0l0.72 0.23 0.84 0.11h0.78 0.85l1.62-0.11 0.84-0.06 0.78-0.06v0h0.63v0l0.38 0.06 0.4 0.17 0.44 0.17 0.28 0.16v0l0.29 0.22 0.16 0.12 0.17 0.06v0l-0.12-0.23-0.16-0.22-0.34-0.34v0l-0.45-0.28-0.39-0.28-0.45-0.17-0.44-0.11-0.45-0.11-0.45-0.06-1-0.06v0l-1.8-0.05v0h-0.79l-0.38-0.06-0.4-0.11v0l-0.44-0.1-0.45-0.23-0.39-0.23-0.34-0.22v0l-0.5-0.39-0.45-0.39v0l-0.51-0.34-0.5-0.22-0.5-0.23-0.51-0.16-0.56-0.12-0.56-0.06h-0.55-0.57v0l-0.56 0.12-0.55 0.17-1.07 0.28v0l-0.84 0.22v0l-0.62 0.11h-0.61l-0.56-0.06-0.62-0.22v0l-0.33-0.11-0.34-0.22-0.28-0.17-0.28-0.28v0l-0.33-0.5-0.23-0.56v0l-0.11-0.51-0.12-0.5v0l-0.16-1.01v0l-0.11-1.01-0.11-1v0l-0.12-1.52-0.05-0.84v-0.89l0.05-0.84 0.06-0.84 0.17-0.73 0.22-0.72v0l0.17-0.28 0.22-0.34 0.23-0.34 0.22-0.22v0l0.34-0.28 0.39-0.22 0.45-0.17 0.44-0.11v0l0.68-0.23v0l0.45-0.11 0.5-0.05h1.06v0l0.9 0.11 0.89 0.17v0l0.9 0.33 0.78 0.34v0l0.34 0.1 0.28 0.18v0l0.28 0.16 0.34 0.23 0.55 0.56 0.68 0.67v0l0.11-0.28v-0.16-0.12 0l-0.45-0.51-0.34-0.39-0.11-0.16-0.05-0.18v0l0.05-0.32v0l0.28-0.23 0.28-0.17 0.62-0.22 0.67-0.17 0.67-0.12v0l1.07-0.16 1.06-0.06v0l0.79-0.05h0.78v0l-0.23-0.11-0.27-0.06-0.68-0.11-0.67-0.06h-0.5v0l-1.18 0.17-1.23 0.28v0l-0.56 0.16-0.56 0.12-0.62 0.11h-0.56v0l-0.67-0.11-0.56-0.17-1.06-0.39v0l-0.96-0.34-0.89-0.11-0.89-0.06-1.01 0.06v0l-0.96 0.11-1 0.17v0l-0.62 0.17v0l-0.33 0.17-0.34 0.16-0.67 0.34v0l-0.11-0.34v-0.39-0.72 0-0.9 0l0.05-0.72v0l0.11-0.73v0l0.17-0.79 0.22-0.78 0.34-0.73 0.28-0.72v0l0.28-0.57 0.34-0.56v0l0.39-0.5v0l-1.29-0.17v0l-0.56 0.89v0l-0.51 0.96-0.38 0.95v0l-0.34 0.73v0l-0.28 0.89-0.28 0.9h-0.06v0l-0.28-4.75v0l-0.17-2.58v0-1.51 0l-0.05-2.75v0h-0.9l-0.89-0.11v0 4.48 0l0.05 2.13v2.12 0l-0.05 1.4-0.12 1.46-0.05-0.06v0l-0.11-0.51v0l-0.22-0.38-0.18-0.4v0l-0.61-1.22v0l-0.84-1.86-0.34-0.55v0h-0.33l-0.34 0.05-0.67 0.17v0l0.06 0.17 0.05 0.11 0.11 0.22v0l0.5 0.73 0.4 0.78 0.33 0.84 0.29 0.84v0l0.11 0.5 0.05 0.51 0.12 1.01v0l0.11 0.73 0.05 0.78v0 0.61l-0.05 0.57v0l-0.34-0.17-0.34-0.29-0.33-0.27-0.4-0.23v0l-0.32-0.16-0.4-0.12-0.84-0.11v0h-0.84l-0.89 0.05v0l-0.46 0.06h-0.5v0l-0.39 0.12-0.45 0.11v0l-1.4 0.5-0.73 0.23-0.39 0.05-0.33 0.06v0h-0.51-0.45l-0.95-0.17-1.79-0.39v0l-1.17-0.11-0.68-0.06-0.45 0.06v0l-0.55 0.16v0l1.68 0.17 0.84 0.11 0.84 0.17v0l1 0.34v0l0.39 0.11 0.4 0.17 0.22 0.11 0.17 0.11 0.11 0.16v0.18 0l-1.12 1v0l0.06 0.28 0.05 0.22v0l1.24-0.95v0l0.89-0.61v0l0.79-0.44 0.84-0.29 0.84-0.22 0.84-0.17v0l0.94-0.11 0.74 0.06 0.73 0.11 0.94 0.28v0l0.45 0.16 0.5 0.23 0.4 0.22 0.23 0.17 0.1 0.22v0l0.28 0.45 0.17 0.62 0.17 0.67 0.11 0.5v0 0.96 0.94 2.97 0l-0.05 1.07-0.06 1.12v0 0.5 0.5 0l-0.11 0.56v0 0.39 0l-0.11 0.23-0.12 0.33-0.33 0.51v0l-0.23 0.22-0.34 0.23-0.61 0.33v0l-0.55 0.22-0.57 0.11v0l-0.39 0.06h-0.39l-0.84-0.11-0.78-0.22-0.73-0.28v0l-0.62-0.23v0l-0.5-0.17-0.56-0.11v0l-0.56-0.05h-0.46v0l-0.5 0.05-0.44 0.11-0.9 0.34-0.39 0.23-0.39 0.22-0.79 0.56v0l-0.67 0.67-0.33 0.28-0.34 0.22v0l-0.56 0.23-0.51 0.11-0.56 0.05-0.5 0.06h-1.06l-1.12 0.05v0l-0.73 0.06-0.68 0.17-0.66 0.23-0.68 0.27v0l-0.39 0.29-0.45 0.28-0.39 0.33-0.34 0.39-0.11 0.28v0l0.29-0.16v0l0.5-0.28 0.44-0.23 0.45-0.17 0.5-0.11v0l0.52-0.11 0.5-0.11v0l0.61-0.06 0.62 0.06 1.29 0.11v0l1.17 0.11h0.62l0.56-0.05v0l0.39-0.12 0.44-0.16 0.4-0.23 0.33-0.22v0l1.07-0.68v0l0.72-0.5 0.79-0.44v0l0.44-0.06v0h0.46l0.38 0.11v0l-0.55 0.34-0.23 0.22-0.16 0.28v0l-0.17 0.34-0.05 0.33v0.62l-0.06 0.28-0.06 0.33-0.22 0.34-0.34 0.39v0l-0.34 0.23-0.39 0.21-0.84 0.4v0h0.62l0.56-0.11v0l0.73-0.29 0.39-0.16 0.27-0.16v0l0.29-0.34 0.28-0.34v0l0.22-0.56v0l0.17-0.22 0.22-0.29 0.23-0.27 0.33-0.23 0.28-0.22 0.34-0.17 0.28-0.11 0.34-0.06v0l0.39-0.05h0.39v0l1.01 0.27 0.61 0.23 0.29 0.11v0 0.17l-0.18 0.33-0.33 0.62v0l-0.11 0.34-0.17 0.28v0l-0.23 0.33-0.27 0.34v0l-0.51 0.45-0.5 0.33v0l-0.34 0.22-0.39 0.23-0.39 0.17-0.28 0.28v0l1.23-0.22 0.61-0.12 0.57-0.22v0l0.39-0.23 0.28-0.16 0.56-0.51v0l0.28-0.22v0l0.33-0.39v0l0.18-0.28 0.16-0.34 0.28-0.61v0l0.72 0.28 0.9 0.16 0.46 0.06h0.44 0.5l0.51-0.06v0l0.62-0.11 0.55-0.16v0l0.34-0.17 0.28-0.11 0.51-0.34v0l1.06 0.5 0.5 0.17 0.51 0.17 0.56 0.11 0.5 0.11h0.62 0.61v0h0.34l0.34-0.06v0l0.44-0.16 0.22-0.06h0.23v0l0.22 0.51 0.17 0.39 0.22 0.34 0.39 0.44v0l0.23 0.29 0.28 0.27v0l0.17 0.11 0.22 0.12 0.56 0.11 1.06 0.17v0l0.73 0.11 0.34 0.11 0.39 0.16v0z" fill="#094" fill-rule="evenodd" stroke="#094" stroke-linecap="round" stroke-linejoin="round" stroke-miterlimit="10" stroke-width=".12"/>
<path d="m365.06 380.95v0l0.34-0.12v0l0.5-0.16 0.39-0.28v0l0.23-0.28 0.22-0.17v0-0.27l-0.06-0.23-0.11-0.5v0l-0.05-0.45 0.05-0.51 0.06-0.44 0.11-0.4v0l0.17-0.33 0.17-0.34-0.34 0.06v0l-0.34 0.23-0.33 0.27v0l-0.28 0.28-0.22 0.28-0.17 0.33-0.17 0.34v0l-0.23 0.57v0l-0.05 0.5v0.55l0.05 0.57 0.06 0.5v0z" fill="#094" fill-rule="evenodd" stroke="#094" stroke-linecap="round" stroke-linejoin="round" stroke-miterlimit="10" stroke-width=".12"/>
<path d="m376.65 378.83v0l0.17-0.06 0.06-0.06 0.11-0.22v0l0.16-0.23v0l0.06-0.22v-0.17 0l0.17-0.61v0l0.06-0.45v-0.68l-0.06-0.61-0.11-0.39v0l-0.17-0.34-0.22-0.39-0.56-0.61v0l-0.51-0.4-0.55-0.28v0l-0.18-0.05v0l0.4 1.06v0l0.28 0.78v0l0.22 0.68v0l0.06 0.22 0.06 0.17v0l-0.06 0.22v0l-0.17-0.16v0l-0.23-0.63v0l-0.22-0.38v0l-0.34-0.67-0.34-0.68h-0.05v0l-0.11 0.5-0.11 0.51v0.56 0.5 0l0.11 0.39v0l0.06 0.4 0.1 0.39v0l0.06 0.05v0l0.17 0.29v0l0.51 0.61 0.5 0.51v0l0.34 0.22 0.16 0.11 0.17 0.12v0z" fill="#094" fill-rule="evenodd" stroke="#094" stroke-linecap="round" stroke-linejoin="round" stroke-miterlimit="10" stroke-width=".12"/>
<path d="m364.95 376.24v0l1.07-0.27 0.55-0.23 0.4-0.22v0l0.22-0.17 0.22-0.22 0.29-0.45 0.22-0.56 0.11-0.56 0.05-0.55-0.05-0.63-0.17-0.55-0.16-0.5v0l-0.23 0.32-0.23 0.52v0l-0.22 0.5v0l-0.34 0.66-0.22 0.4-0.17 0.28v0l0.17-1.18v0l0.22-0.61v0l0.4-0.95v0h-0.28v0l-0.34 0.11-0.44 0.33v0l-0.45 0.34-0.34 0.5v0l-0.23 0.34-0.16 0.39-0.05 0.39-0.12 0.45v0 0.34 0.33l0.12 0.67v0l0.05 0.46 0.05 0.21 0.06 0.11v0z" fill="#094" fill-rule="evenodd" stroke="#094" stroke-linecap="round" stroke-linejoin="round" stroke-miterlimit="10" stroke-width=".12"/>
<path d="m408.46 380.72v0-0.55-0.5 0l-0.17-0.57-0.22-0.67-0.34-0.62-0.17-0.27-0.17-0.23v0l-0.61-0.45v0l-0.51-0.39-0.28-0.17-0.33-0.06v0l0.22 0.4 0.17 0.33 0.22 0.84v0l0.12 0.68v0l0.05 0.45v0.39l-0.05 0.72 0.05 0.17v0l0.23 0.11 0.22 0.18v0l0.39 0.16 0.45 0.11v0h0.39l0.34-0.06v0z" fill="#094" fill-rule="evenodd" stroke="#094" stroke-linecap="round" stroke-linejoin="round" stroke-miterlimit="10" stroke-width=".12"/>
<path d="m396.36 379.27v0l0.28-0.12 0.28-0.05v0l0.78-0.67v0l0.29-0.33v0l0.34-0.45 0.32-0.51v0l0.29-0.78 0.11-0.44v-0.34 0-0.68 0l-0.06-0.5-0.05-0.45-0.11-0.5-0.18-0.44v0l-0.22 0.1v0l-0.67 1.12v0l-0.34 0.9-0.27 0.95h-0.17v0-0.22l0.06-0.28 0.11-0.56v0l0.05-0.51v0l0.11-0.39 0.17-0.39 0.34-0.72v0l-0.28 0.1-0.39 0.22-0.4 0.34-0.22 0.23-0.22 0.33v0l-0.34 0.67-0.23 0.68-0.11 0.61v0.62 0l0.06 0.39v0l0.05 0.39v0l0.28 0.84 0.34 0.84v0z" fill="#094" fill-rule="evenodd" stroke="#094" stroke-linecap="round" stroke-linejoin="round" stroke-miterlimit="10" stroke-width=".12"/>
<path d="m407.73 376.58v0l0.28-0.45 0.22-0.44 0.17-0.45v0l0.11-0.34 0.06-0.39v0l0.05-0.84-0.05-0.39-0.06-0.39-0.16-0.4-0.17-0.32-0.23-0.34-0.28-0.28v0l-0.33-0.28-0.4-0.17-0.44-0.22v0l0.17 1.56 0.16 1.23v0l-0.11-0.56-0.22-0.83-0.29-0.79-0.22-0.5h-0.22v0l-0.28 0.66-0.11 0.34-0.06 0.39-0.06 0.4v0.39 0.39l0.12 0.45v0l0.05 0.34 0.17 0.33v0l0.11 0.28 0.23 0.23 0.27 0.33v0l0.34 0.28 0.39 0.28 0.79 0.5v0z" fill="#094" fill-rule="evenodd" stroke="#094" stroke-linecap="round" stroke-linejoin="round" stroke-miterlimit="10" stroke-width=".12"/>
<path d="m399.22 369.7v0l0.45-0.17 0.44-0.22v0l0.4 0.16 0.44 0.06v0l-0.11-0.17-0.17-0.22v0l0.68-0.06v0l-0.12-0.11-0.17-0.23-0.27-0.21v0l0.05-0.11v-0.12-0.22 0l-0.22 0.11-0.23 0.11-0.22 0.12h-0.06v0l-0.39-0.18-0.28-0.05-0.17-0.06v0 0.17l0.11 0.28v0l-0.39 0.16-0.39 0.12v0l0.05 0.06 0.34 0.11 0.45 0.17v0l-0.22 0.5v0zm1-8.23v0l0.23 0.17 0.17 0.28v0l0.17 0.28 0.11 0.34 0.05 0.27 0.11 0.4v0l0.4 1.17v0l0.17 0.4 0.22 0.33 0.45 0.67 0.22 0.28 0.17 0.34 0.11 0.39v0.45 0 0.34 0l-0.17 0.55-0.22 0.45-0.33 0.45-0.51 0.33v0l-0.28 0.17-0.34 0.11v0l-0.44 0.12-0.5 0.05v0l-0.34 0.06-0.34-0.06v0l-0.45-0.05-0.39-0.18v0l-0.28-0.16-0.28-0.22-0.23-0.23-0.16-0.28v0l-0.28-0.39-0.17-0.45v0l-0.05-0.45 0.05-0.44v0l0.06-0.34 0.16-0.27 0.17-0.29 0.17-0.34v0l0.34-1v0l0.05-0.39v-0.39-0.34l0.06-0.39v0l0.11-0.84 0.12-0.4 0.1-0.16 0.17-0.17v0l0.23-0.11 0.22-0.11v0l0.33-0.12h0.29l0.28 0.06 0.27 0.11v0z" fill="#fcdb00" fill-rule="evenodd" stroke="#fcdb00" stroke-linecap="round" stroke-linejoin="round" stroke-miterlimit="10" stroke-width=".12"/>
<path d="m373.46 369.64v0l-0.22-0.22-0.23-0.22v0l-0.16 0.06-0.18 0.1-0.11 0.06-0.16 0.05v0-0.11l0.05-0.22 0.11-0.28v0l-0.44-0.12-0.34-0.16v0l0.34-0.11 0.39-0.05v0l-0.11-0.34-0.06-0.28h0.11v0l0.62 0.5v0l0.17-0.06 0.16-0.05 0.29-0.29v0l0.05 0.73v0l0.22 0.17 0.23 0.23v0l-0.17 0.05h-0.17l-0.33-0.05v0 0.17l0.06 0.22v0.11 0.11 0h0.32l0.4-0.17 0.34-0.16 0.33-0.28v0l0.29-0.34 0.27-0.39v0l0.17-0.34 0.06-0.38 0.05-0.34-0.05-0.34v0l-0.06-0.34v0l-0.12-0.33-0.1-0.34v0l-0.17-0.33-0.23-0.28-0.16-0.29-0.18-0.27v0l-0.05-0.28-0.05-0.34v-0.67l-0.06-0.67-0.05-0.34-0.17-0.34v0l-0.06-0.21-0.11-0.11v0l-0.11-0.12-0.12-0.06-0.27-0.05v0h-0.29-0.22l-0.22 0.11-0.17 0.12v0l-0.17 0.16-0.06 0.16-0.16 0.46v0l-0.11 0.33-0.06 0.23-0.11 0.61v0l-0.17 0.34-0.17 0.33v0l-0.17 0.4-0.28 0.27v0l-0.22 0.28-0.23 0.28v0l-0.33 0.56-0.17 0.23-0.05 0.33v0l-0.06 0.4v0.39 0l0.06 0.33 0.16 0.39v0l0.12 0.23 0.11 0.16 0.39 0.4v0l0.28 0.17 0.33 0.16 0.57 0.22v0l0.44 0.12h0.4v0l0.33-0.06v0z" fill="#fcdb00" fill-rule="evenodd" stroke="#fcdb00" stroke-linecap="round" stroke-linejoin="round" stroke-miterlimit="10" stroke-width=".12"/>
<path d="m381.69 360.74v0l0.67 0.29v0-0.11-0.18l-0.06-0.22v0l0.57-0.06v0l-0.05-0.22v0l-0.23-0.11-0.34-0.17v0l0.17-0.5v0l-0.12-0.06v0l-0.32 0.28-0.29 0.22v0l-0.61-0.44h-0.12v0l0.06 0.67v0l-0.28 0.06-0.23 0.11v0l-0.05 0.16v0h0.34l0.34 0.12v0l-0.18 0.45v0l0.34-0.11 0.39-0.18v0zm1.85-0.05v0l-0.4 0.34v0l-0.22 0.16-0.28 0.05-0.56 0.18v0h-0.33-0.34v0l-0.61-0.12-0.57-0.17v0l-0.33-0.16-0.28-0.23-0.23-0.28-0.22-0.33v0l-0.22-0.45-0.12-0.33-0.05-0.34v0l-0.05-0.28v-0.28l0.05-0.28 0.11-0.34v0l0.17-0.34 0.22-0.27 0.29-0.28 0.22-0.39v0l0.28-0.67 0.28-0.68v0l0.16-0.39 0.06-0.39 0.17-0.34 0.11-0.16 0.11-0.12v0l0.23-0.22 0.27-0.11v0l0.23-0.11h0.29v0h0.32l0.29 0.17v0l0.23 0.11 0.1 0.22 0.17 0.45v0l0.11 0.33 0.06 0.34v0l0.11 0.5 0.17 0.51v0l0.22 0.34 0.22 0.38v0l0.23 0.51 0.11 0.5v0l0.06 0.45v0.45l-0.11 0.73v0l-0.11 0.33-0.23 0.51v0l-0.17 0.27-0.22 0.23v0z" fill="#fcdb00" fill-rule="evenodd" stroke="#fcdb00" stroke-linecap="round" stroke-linejoin="round" stroke-miterlimit="10" stroke-width=".12"/>
<path d="m390.7 361.19v0l0.07-0.27 0.11-0.23v0h-0.23l-0.22-0.11-0.23-0.06-0.11-0.12v0l0.17-0.05 0.22-0.05 0.4-0.06v0l-0.29-0.34v0-0.11l0.06-0.11v0l0.34 0.11 0.33 0.17v0l0.11 0.06h0.18l0.16-0.12 0.22-0.16h0.17l0.11-0.06v0l-0.05 0.22-0.11 0.23v0l0.39 0.22 0.22 0.17 0.11 0.11v0l-0.33 0.06-0.28 0.05v0 0.18l0.05 0.16v0h0.23l0.27-0.05 0.29-0.11 0.28-0.18v0l0.33-0.28 0.28-0.33v0l0.12-0.17 0.06-0.22 0.11-0.45v0l0.05-0.5-0.05-0.4-0.11-0.44-0.18-0.51v0l-0.28-0.79-0.44-0.72v0l-0.28-0.45v0l-0.18-0.38-0.16-0.4v0l-0.16-0.56-0.06-0.22-0.17-0.28v0l-0.17-0.34-0.17-0.11-0.16-0.11v0l-0.29-0.12-0.28-0.05-0.27 0.05-0.29 0.06v0l-0.33 0.17-0.22 0.23-0.12 0.32-0.06 0.34-0.05 0.73-0.11 0.39-0.11 0.34v0l-0.23 0.45v0l-0.39 0.61-0.11 0.28-0.17 0.4v0l-0.17 0.5-0.11 0.5-0.05 0.51 0.05 0.38v0l0.06 0.4 0.22 0.33 0.22 0.34 0.29 0.22v0l0.33 0.28 0.39 0.18 0.4 0.16 0.38 0.11v0z" fill="#fcdb00" fill-rule="evenodd" stroke="#fcdb00" stroke-linecap="round" stroke-linejoin="round" stroke-miterlimit="10" stroke-width=".12"/>
<path d="m387.35 354.58v0l-0.23-0.11-0.22-0.1v0h-0.22l-0.23 0.05-0.22 0.05-0.23 0.06v0-0.11-0.11l0.11-0.23v0l-0.38-0.05-0.4-0.06v0l0.28-0.17 0.34-0.16v0-0.28l-0.06-0.34v0l0.17 0.06 0.22 0.05 0.4 0.23v0l0.39-0.06 0.33-0.11v0l-0.05 0.23-0.12 0.16v0l0.73 0.39-0.61 0.11v0l0.05 0.12 0.06 0.11v0.22 0l0.17-0.06 0.17-0.05v0l0.33-0.16 0.28-0.18v0l0.34-0.22 0.22-0.28v0l0.23-0.28 0.11-0.28 0.11-0.5v0l0.06-0.34-0.06-0.39v0l-0.11-0.39-0.17-0.39-0.17-0.29-0.22-0.27v0l-0.23-0.28-0.16-0.18-0.06-0.1v0l-0.12-0.28-0.05-0.28-0.06-0.56v-0.56l-0.05-0.56-0.11-0.51-0.11-0.22-0.12-0.16-0.16-0.18-0.29-0.16-0.28-0.06-0.33-0.06v0h-0.28l-0.28 0.06-0.22 0.11-0.23 0.23v0l-0.22 0.27-0.17 0.34v0 0.29 0l-0.11 0.94v0 0.4 0l-0.11 0.22-0.11 0.33-0.34 0.5v0l-0.5 0.63-0.18 0.33-0.11 0.4v0l-0.11 0.5v0.44l0.11 0.4 0.11 0.44v0l0.11 0.23 0.18 0.22v0l0.27 0.34 0.28 0.22v0l0.4 0.28v0l0.28 0.11 0.22 0.05 0.62 0.12h0.56l0.56-0.12v0z" fill="#fcdb00" fill-rule="evenodd" stroke="#fcdb00" stroke-linecap="round" stroke-linejoin="round" stroke-miterlimit="10" stroke-width=".12"/>
<path d="m402.97 380.33v0l0.61 0.28v0h0.23v0-0.05l-0.11-0.17-0.12-0.34v0h0.23l0.22 0.06v0h0.11l0.12-0.06v0l-0.28-0.22-0.34-0.16v0l0.17-0.34 0.11-0.29v0l-0.45 0.23-0.44 0.17v0l-0.4-0.23-0.22-0.11-0.28-0.06v0l0.11 0.23 0.17 0.34v0l-0.06 0.06v0l-0.84 0.38v0l0.84 0.12v0l-0.05 0.16-0.06 0.12v0l-0.11 0.16v0.17 0l0.84-0.45v0zm-0.39 1.01v0h-0.5l-0.51-0.11-0.4-0.17-0.38-0.28v0l-0.23-0.22-0.17-0.23-0.17-0.22-0.11-0.28v0l-0.1-0.34-0.06-0.34v0l-0.06-0.32-0.06-0.34v0l0.06-0.23v-0.22l0.17-0.45 0.39-0.73v0l0.39-0.67 0.33-0.73v0l0.18-0.44 0.05-0.39v0l0.06-0.46v-0.5 0l0.17-0.5 0.16-0.22 0.11-0.17v0l0.18-0.11 0.16-0.06 0.34-0.06v0l0.39 0.06 0.39 0.17 0.34 0.23 0.28 0.27v0l0.22 0.34v0l0.11 0.44v0l0.11 0.4v0.33 0.4l0.06 0.33v0l0.12 0.45 0.16 0.5 0.45 0.9v0l0.11 0.22 0.11 0.28v0l0.06 0.28v0.28 0 0.67l-0.06 0.34-0.11 0.28-0.11 0.22-0.17 0.23-0.44 0.5v0l-0.34 0.28v0l-0.39 0.22-0.4 0.12-0.44 0.05h-0.45v0z" fill="#fcdb00" fill-rule="evenodd" stroke="#fcdb00" stroke-linecap="round" stroke-linejoin="round" stroke-miterlimit="10" stroke-width=".12"/>
<path d="m370.15 380.39v0l0.34 0.17 0.39 0.11v0l-0.11-0.5v0l0.11-0.06h0.23l0.34-0.06v0l-0.28-0.17-0.4-0.1v0l0.22-0.68v0l-0.78 0.34v0l-0.61-0.17-0.34-0.12v0l0.12 0.29 0.05 0.17v0.11 0l-0.62 0.56v0l0.39-0.06 0.4-0.05v0l-0.34 0.44-0.11 0.17v0l0.39-0.17 0.28-0.16 0.33-0.06v0zm-0.55 0.73v0l-0.34-0.06-0.34-0.11v0l-0.44-0.12-0.34-0.16-0.33-0.22-0.29-0.34v0l-0.11-0.28-0.11-0.34v0l-0.11-0.55v-0.51-0.51l0.11-0.55v0l0.17-0.61v0l0.17-0.29 0.11-0.23 0.33-0.38 0.34-0.46 0.17-0.21 0.17-0.29v0l0.28-0.55v0l0.11-0.4v-0.39l0.11-0.39 0.12-0.16 0.11-0.12v0l0.33-0.22 0.28-0.18 0.34-0.05 0.33 0.05v0l0.28 0.12 0.23 0.17 0.17 0.23 0.16 0.21v0l0.06 0.34 0.05 0.34v0.67 0.62l0.06 0.33 0.05 0.34v0l0.12 0.44 0.17 0.4v0l0.39 0.72 0.16 0.39 0.12 0.45v0 0.34l-0.06 0.34-0.06 0.33-0.11 0.34v0l-0.22 0.33-0.22 0.34-0.29 0.28-0.38 0.22v0l-0.4 0.17-0.5 0.11-0.51 0.06h-0.44v0z" fill="#fcdb00" fill-rule="evenodd" stroke="#fcdb00" stroke-linecap="round" stroke-linejoin="round" stroke-miterlimit="10" stroke-width=".12"/>
<path d="m391.1 361.24 1.01-0.05v-0.06 0l-0.28-0.16-0.17-0.17h-0.11v0l-0.51 0.39 0.06 0.05z" fill="#fcdb00" fill-rule="evenodd" stroke="#fcdb00" stroke-linecap="round" stroke-linejoin="round" stroke-miterlimit="10" stroke-width=".12"/>
<path d="m386.34 340.37v0l-0.67 0.73-0.56 0.61-0.34 0.46v0l-0.28 0.5-0.17 0.5v0l-0.05 0.5-0.06 0.5v0l-0.5-0.32-0.89-0.46v0l-0.79-0.38-0.51-0.23-0.28-0.11v0l-0.05 0.45-0.05 0.39-0.12 0.39-0.06 0.39v0l-0.05 0.84-0.79-0.56v0l-0.22-0.17-0.33-0.17-0.4-0.11v0l-0.16 0.28-0.23 0.39v0l-0.39 0.73-0.11 0.4-0.06 0.38v0l-0.05 0.4v0.33l0.11 0.67v0l0.11 0.4 0.11 0.39v0l-0.79-0.45v0l-0.72-0.23-0.67-0.16-0.74-0.05-0.66 0.05-0.73 0.11-0.67 0.16-0.67 0.29-0.62 0.39v0l-0.45 0.28-0.33 0.28v0l0.44 0.67 0.56 0.62 0.68 0.61 0.72 0.61v0.06 0l-0.33 0.12-0.28 0.28-0.34 0.33-0.28 0.39-0.22 0.39-0.17 0.4-0.17 0.39-0.05 0.34v0l-0.06 0.5v0l-0.23-0.5-0.22-0.4-0.28-0.33-0.28-0.34-0.33-0.34-0.4-0.27-0.78-0.56v0l-0.23-0.12-0.11-0.05h-0.11v0l-0.44 0.67v0l-0.23 0.39-0.17 0.45-0.11 0.5-0.11 0.45-0.06 0.5-0.05 0.5 0.05 0.46 0.11 0.45v0l0.28 0.61 0.29 0.55v0l-0.4-0.05h-0.39-0.39l-0.39 0.05-0.73 0.29-0.84 0.34v0l-0.45 0.21-0.34 0.29-0.34 0.28-0.38 0.33v0l-0.46 0.45-0.44 0.56-0.28 0.45-0.11 0.23v0l0.17 0.16 0.39 0.22 0.5 0.34 0.5 0.23v0l0.51 0.21 0.5 0.12v0l0.56 0.06h0.56 0.45l0.5-0.06-0.05 0.22v0l-0.39 0.39-0.28 0.34-0.23 0.28v0l-0.27 0.56-0.23 0.62-0.16 0.61-0.12 0.61v0l-0.06 0.73v0 0.62l0.06 0.67v0l-1.29-0.84-0.67-0.39-0.78-0.22v0l-0.45-0.11-0.5-0.06v0h-0.9l-0.45-0.06-0.45-0.11v0l0.12 0.67 0.11 0.62 0.16 0.55 0.29 0.57 0.22 0.56 0.33 0.5 0.39 0.56 0.4 0.51v0l0.23 0.22 0.33 0.22 0.62 0.29v0l0.5 0.16 0.5 0.11 1.01 0.05v0l-0.28 0.34-0.28 0.39v0l-0.17 0.29-0.17 0.44-0.17 0.79v0l-0.05 0.39v0.45l0.05 0.84 0.11 0.89 0.12 0.84v0l0.84-0.17v0.12 0l-0.23 0.22-0.16 0.28-0.28 0.56-0.17 0.67-0.12 0.68v0.66l0.12 0.68 0.17 0.61 0.23 0.62v0l0.38-0.11 0.4-0.17v0l0.45-0.29 0.44-0.33 0.4-0.39h0.27v0l0.06 0.11 0.11 0.11 0.28 0.12v0l0.78 0.38 0.73 0.23 0.79 0.11h0.84v0l0.5-0.05v0l0.45-0.11 0.39-0.18 0.34-0.22 0.27-0.22v0l0.34-0.45 0.28-0.39v0l0.23-0.4 0.22-0.5v0l0.11-0.45v-0.39l-0.16-0.89v0l-0.11-0.45-0.18-0.45-0.39-0.83-0.22-0.4-0.12-0.39-0.11-0.39v-0.39l0.29-0.4v0l0.55-0.61 0.4-0.34 0.28-0.16v0l0.11 0.06v0 0.32l-0.11 0.34-0.18 0.39-0.1 0.4v0 0.62l0.05 0.72 0.11 0.73 0.17 0.61v0l0.23 0.45 0.28 0.51 0.39 0.5 0.34 0.34v0l0.61 0.44v0l0.62 0.45 0.33 0.11 0.4 0.11v0l0.44-1.06 0.45-1.01v0l0.11-0.33 0.11-0.28v0l0.06-0.84v-0.4l-0.06-0.39-0.11-0.39-0.11-0.33-0.17-0.34-0.22-0.39v0l-0.28-0.34-0.34-0.33-0.33-0.29-0.34-0.22v0l-0.56-0.33-0.56-0.29v-0.21 0l0.56-0.11 0.56-0.23 0.61-0.17 0.62-0.17v0l0.73-0.11 0.73 0.06 0.67 0.05 0.73 0.23v0l0.45 0.11v0l0.5 0.28 0.4 0.27v0.06 0l0.16 0.12 0.16 0.16 0.29 0.5 0.17 0.57 0.11 0.45v0l0.11 0.78v0 2.07 2.07 0l-0.06 1.18-0.1 1.11v0l-0.06 1.13v0l-0.17 0.73-0.11 0.32-0.18 0.29v0l-0.22 0.23-0.56 0.32-0.33 0.12v0l-0.39 0.11-0.39 0.06h-0.4-0.39l-0.67-0.06-0.67-0.23-1.35-0.44-0.72-0.22-0.79-0.12v0l-0.34-0.06-0.34 0.06-0.84 0.12-0.77 0.22-0.62 0.28v0l-0.39 0.22-0.34 0.23-0.73 0.5v0l-0.28 0.28-0.33 0.28v0l-0.62 0.45-0.33 0.22-0.4 0.11v0l-0.33 0.12-0.28 0.05-0.62 0.06-0.62-0.06h-0.61v0l-0.9 0.06-1 0.17-0.96 0.22-0.45 0.16-0.44 0.23v0l-0.68 0.34-0.33 0.22-0.33 0.28v0l-0.29 0.28v0l-0.16 0.11-0.11 0.22-0.34 0.62-0.28 0.61-0.11 0.46v0l0.05 0.5v0l0.22-0.12 0.12-0.11v0l0.61-0.44 0.73-0.4v0l1.24-0.5v0l0.5-0.11 0.61-0.05h0.67 0.51v0l0.56 0.05 0.5 0.11 0.51 0.06 0.56 0.05v0l0.61 0.06 0.62-0.06v0l0.45-0.05 0.45-0.11 0.44-0.23 0.45-0.22 0.84-0.5 0.73-0.51v0l0.73-0.56v0l0.05 0.17 0.06 0.44 0.06 0.57-0.06 0.22-0.11 0.17v0l-0.17 0.11-0.23 0.17-0.39 0.17v0l-0.56 0.34-0.56 0.27v0l-0.28 0.17-0.22 0.11v0l-0.34 0.34-0.28 0.39-0.16 0.45-0.12 0.45v0l0.5-0.18 0.51-0.16v0l0.84-0.11 0.79-0.11v0l0.67-0.17v0l0.44-0.11 0.45-0.18v0l0.34-0.22 0.28-0.16 0.22-0.23 0.23-0.28v0l0.16-0.27 0.18-0.4 0.22-0.45 0.1-0.22 0.18-0.17v0l0.39-0.33 0.22-0.12 0.23-0.11v0l0.39-0.06v0l0.16-0.05h0.23l0.45 0.11 0.39 0.23 0.28 0.22v0l-0.06 0.28-0.16 0.34-0.34 0.5v0l-0.23 0.23-0.22 0.16-0.56 0.34-0.56 0.28-0.5 0.33v0l-0.23 0.17-0.27 0.17v0l-0.29 0.28-0.16 0.27-0.18 0.34-0.16 0.45v0l-0.05 0.51 0.05 0.27 0.06 0.23 0.05-0.28v0l0.51-0.34 0.5-0.22 0.51-0.17 0.55-0.11 1.13-0.22 0.55-0.17 0.51-0.29v0l0.44-0.27 0.4-0.39v0l0.39-0.4 0.28-0.39 0.22-0.34 0.28-0.5v0l1.68 0.29 0.9 0.11 0.39-0.06 0.45-0.05v0l0.56-0.12v0l0.45-0.17 0.39-0.11 0.28-0.17 0.45-0.28v0l0.95 0.51 0.56 0.16 0.5 0.12v0l1.01 0.17v0l0.67 0.05h0.73v0l0.56-0.05 0.56-0.11v0l0.11 0.27 0.11 0.28 0.34 0.45v0l0.28 0.5 0.17 0.17 0.23 0.22v0l0.32 0.23 0.4 0.17v0l0.33 0.05 0.4 0.06v0l1.12 0.17 0.56 0.05 0.56 0.17v0l0.44 0.17 0.34 0.17 0.28 0.28 0.29 0.34v0h0.1l0.11-0.06 0.06-0.34 0.05-0.33v-0.23 0l-0.16-0.39-0.28-0.4-0.33-0.44-0.46-0.4v0l-0.22-0.16-0.28-0.16-0.5-0.18-0.45-0.16-0.23-0.18-0.22-0.21v0l-0.16-0.29-0.12-0.27-0.22-0.62v0l-0.12-0.22-0.11-0.23v0l0.79-0.05 0.39 0.05 0.39 0.11v0l0.39 0.17 0.17 0.06 0.17 0.16v0l0.22 0.23 0.11 0.28v0l0.34 0.56 0.39 0.56 0.23 0.28 0.22 0.22 0.28 0.23 0.29 0.16v0l0.5 0.17 0.55 0.11v0l2.19 0.45v0l0.45 0.06 0.5 0.11v0l0.34 0.11 0.28 0.11v0-0.28-0.34 0l-0.22-0.44v0l-0.4-0.4-0.39-0.27-0.51-0.28-0.44-0.23-0.45-0.22-0.4-0.22-0.33-0.28-0.22-0.28v0l-0.17-0.29-0.06-0.33-0.06-0.67v0l0.68 0.56v0l0.45 0.33 0.5 0.23v0l0.45 0.17 0.45 0.11 0.72 0.06v0l0.9 0.05 0.9-0.05v0l1.4-0.12 1.34-0.11h0.68l0.61 0.06 0.73 0.11 0.66 0.22v0l0.4 0.17 0.39 0.23v0l0.28 0.21 0.28 0.29 0.45 0.55v0l0.06-0.22 0.05-0.33v0l-0.11-0.61-0.17-0.62v0l-0.22-0.45-0.23-0.39-0.34-0.34-0.38-0.28v0l-0.34-0.22-0.44-0.23-0.46-0.22-0.38-0.11v0l-1.29-0.23v0h-0.79v0l-1.62-0.05-0.84-0.06-0.79-0.17v0l-0.5-0.17-0.45-0.21-0.44-0.29-0.4-0.28-0.84-0.67-0.45-0.28-0.44-0.23v0l-0.51-0.22-0.61-0.16-0.62-0.12-0.56-0.05v0h-0.73-0.67l-0.67 0.17-0.73 0.16v0l-1.17 0.4-0.68 0.11h-0.34-0.33v0l-0.51-0.06-0.5-0.11-0.39-0.17-0.22-0.11-0.23-0.22v0l-0.11-0.17-0.17-0.23-0.16-0.38-0.11-0.4-0.07-0.33v0l-0.11-0.79v0l-0.16-2.02v0l-0.11-1.62v0l-0.12-1.68v-0.84l0.06-0.84v0l0.11-0.78 0.17-0.39 0.16-0.45v0l0.29-0.45 0.28-0.34v0l0.39-0.27 0.39-0.23 0.4-0.11 0.32-0.11v0l0.68-0.12 0.73-0.05v0l0.61 0.05 0.79 0.06 1.12 0.12v0l0.45 0.11 0.39 0.11 0.73 0.33v0l-0.45 0.11-0.45 0.12v0l-0.51 0.34-0.44 0.33v0l-0.28 0.28-0.22 0.34-0.23 0.39-0.17 0.39-0.28 0.9-0.11 0.39-0.05 0.39v0 0.4l0.05 0.44 0.17 0.84v0l0.33 1.23 0.23 0.72 0.06 0.4v0l0.72-0.17 0.34-0.11 0.28-0.17v0l0.73-0.45 0.55-0.5v0l0.34-0.34 0.29-0.39v0 0.57 0.55l0.1 0.56 0.11 0.28 0.11 0.29v0l0.18 0.27 0.22 0.23v0l0.44 0.5 0.57 0.34v0l0.56 0.22 0.5 0.11h0.56 0.62v0l0.78-0.11 0.39-0.11 0.4-0.17v0l0.27-0.17v0l0.62-0.45 0.28-0.28v0l0.17 0.17 0.16 0.17 0.46 0.28 0.56 0.16 0.44 0.12v0h0.68v0h0.56l0.27-0.06 0.06-0.06v0l0.06-0.38 0.05-0.68v0l-0.05-0.78-0.06-0.62-0.17-0.61-0.27-0.73v0l-0.23-0.33-0.17-0.28v0l0.28-0.4v0l0.28-0.33 0.22-0.5 0.17-0.57 0.11-0.67v0-0.44l-0.05-0.45v0-0.51l-0.06-0.44v0l-0.22-0.57-0.22-0.44-0.29-0.39-0.39-0.45v-0.11l0.45 0.11v0l0.78-0.06 0.45-0.05 0.45-0.17v0l0.5-0.22 0.4-0.34 0.38-0.34 0.34-0.45v0l0.34-0.44 0.23-0.5 0.22-0.45 0.11-0.39v0l0.11-0.34 0.06-0.39v-0.45-0.39 0l-0.57-0.11-0.55-0.06v0l-0.84-0.06h-0.45l-0.45 0.06-0.44 0.11-0.45 0.11-0.45 0.18-0.39 0.27v0l-0.34 0.28-0.23 0.23v0-0.51-0.56 0l-0.11-0.45-0.11-0.39-0.22-0.55v0l-0.34-0.57-0.33-0.45-0.45-0.44-0.45-0.4v0l-0.17 0.06-0.16 0.11-0.34 0.28-0.06-1.12v0l0.45 0.17 0.45 0.11v0l0.5 0.06h0.56l0.56-0.06 0.45-0.11v0l0.68-0.28 0.84-0.39v0l0.61-0.34v0l-0.23-0.5-0.22-0.5v0l-0.28-0.45-0.34-0.5v0l-0.5-0.5-0.5-0.4-0.51-0.33-0.44-0.23v0l-0.56-0.17-0.68-0.11v0h-0.56l-0.33 0.06-0.28 0.05v0l-0.22 0.11-0.23 0.06v0l0.39-0.67 0.16-0.34 0.18-0.33v0l0.11-0.67 0.05-0.62v-0.62l-0.16-0.61-0.18-0.56-0.27-0.56-0.34-0.56-0.39-0.5v0l-0.62 0.33-0.56 0.34-0.55 0.44-0.45 0.46v0l-0.28 0.32-0.29 0.4v0l-0.05-0.4-0.06-0.32v0l-0.22-0.51-0.39-0.51-0.39-0.5-0.39-0.39v0l0.66-0.68 1.07-1.11v0l-0.11-0.11-0.12-0.17-0.5-0.45-0.66-0.45-0.68-0.39v0l-0.79-0.34-0.66-0.21-0.4-0.06-0.33-0.06-0.4 0.06-0.44 0.06v0l-0.45 0.1-0.39 0.17-0.45 0.23-0.34 0.28v0l0.06-0.34 0.05-0.39v0-0.51-0.44l-0.11-0.51-0.11-0.45-0.39-0.89-0.45-0.79v0l-0.5 0.29-0.78 0.5v0l-0.18-0.95-0.11-0.95v0l-0.55 0.06-0.68 0.11-0.61 0.21-0.51 0.23v0l-0.45 0.23-0.45 0.27v0l-0.05-0.27-0.06-0.28-0.05-0.23-0.06-0.33v0l-0.22-0.4-0.23-0.38-0.22-0.34-0.34-0.34v0l-0.39-0.39-0.45-0.34-0.5-0.39v0zm-15.79 54.24v0h-0.62l-0.55 0.06-0.51 0.1-0.45 0.11-0.9 0.34-0.84 0.39-0.84 0.34-0.89 0.34-1 0.22-0.57 0.05-0.61 0.06-0.68-0.06v0l-0.73-0.95-0.61-1-0.61-1.01-0.62-1.06-0.5-1.07-0.51-1.12-0.5-1.12-0.4-1.12-0.38-1.17-0.29-1.18-0.28-1.23-0.22-1.23-0.17-1.23-0.17-1.24-0.05-1.28-0.06-1.29v-38.11h60.69v38.11 0 1.29l-0.11 1.28-0.11 1.24-0.16 1.23-0.23 1.23-0.28 1.23-0.34 1.18-0.33 1.17-0.45 1.12-0.44 1.12-0.51 1.12-0.56 1.07-0.56 1.06-0.62 1.01-0.66 1-0.68 0.95v0l-0.68 0.06v0l-0.61-0.06-0.55-0.05-1.02-0.22-0.89-0.34-0.84-0.34-0.9-0.39-0.89-0.34-0.45-0.11-0.56-0.1-0.56-0.06h-0.61v0h-0.62l-0.56 0.06-0.51 0.1-0.5 0.11-0.9 0.34-0.84 0.39-0.84 0.34-0.95 0.34-0.44 0.11-0.56 0.11-0.57 0.05-0.61 0.06v0l-0.57-0.06-0.5-0.05-0.55-0.11-0.45-0.11-0.9-0.34-0.89-0.34-0.84-0.39-0.96-0.34-0.5-0.11-0.5-0.1-0.57-0.06h-0.61v0h-0.61l-0.57 0.06-0.5 0.1-0.5 0.11-0.9 0.34-0.84 0.39-0.9 0.34-0.89 0.34-0.51 0.11-0.5 0.11-0.56 0.05-0.62 0.06v0l-0.61-0.06-0.56-0.05-0.51-0.11-0.5-0.11-0.89-0.34-0.84-0.34-0.84-0.39-0.96-0.34-0.44-0.11-0.57-0.1-0.55-0.06h-0.62v0zm31.02-22.33v0l-0.28-0.34-0.28-0.29v-0.05 0l0.84-0.33 0.23-0.06v0l0.16 0.28 0.17 0.28v0l-0.06 0.22v0l-0.39 0.12-0.39 0.17v0zm-6.33-13.89v0l-0.06-0.44-0.16-0.46v0h0.56l0.62 0.12 0.72 0.17v0l0.17-1.01v0l0.61 0.95v0l-0.39 0.11-0.73 0.23-1.34 0.33v0zm4.77 17.8v0l0.05-0.73v0-0.67l-0.11-0.67v0l-0.06-0.28-0.06-0.22v0l0.84 0.95v0l-0.05 0.39-0.11 0.39v0l-0.23 0.45-0.27 0.39v0zm-31.14-3.58v0l-0.11-0.78-0.22-0.79v0h0.78v0l0.61 0.06 0.68 0.05v0l-0.17 0.68v0l-0.23 0.05-0.28 0.06-0.44 0.23v0l-0.17 0.11-0.12 0.1-0.16 0.11-0.17 0.12v0zm3.08-0.28v0l-0.23-0.16-0.22-0.18v0l-0.22-0.05h-0.23v0l0.12-0.61v0l0.39 0.05 0.33 0.11 0.4 0.16 0.33 0.23v0l-0.17 0.17v0l-0.28 0.17-0.22 0.11v0zm3.69-2.63v0l0.28-0.28 0.29-0.34v0l0.21-0.28v0l0.06-0.11v0l0.17-0.45 0.11-0.34 0.06-0.38 0.06-0.51v0l0.33-0.28v0l0.17-0.06v0l0.51-0.5 0.44-0.45v0l0.06 0.9 0.05 0.96v0l0.11 0.32v0l0.28 1.13v0h-0.39l-0.45 0.05v0l-1.17 0.34-1.18 0.28v0zm7.28-0.06v0l-0.16-0.11-0.23-0.11-0.55-0.22-1.13-0.23v0l0.45-0.5 0.39-0.45 0.34-0.5 0.27-0.56v0l0.18-0.45 0.16-0.39h0.06v0l0.17 0.55v0l0.05 0.73v0l0.17 1.07v0 0.56 0.55 0l-0.06 0.06h-0.11v0zm-12.65-0.06v0l-0.89-0.16v0l0.22-0.45 0.11-0.44v0h0.17v0l0.16 0.55 0.23 0.5v0zm19.77-0.05v0-0.61-0.62 0l0.11-0.61 0.17-0.79 0.16-0.78 0.11-0.29 0.11-0.16v0l0.23 0.73 0.17 0.5 0.28 0.45 0.45 0.67v0l0.16 0.22 0.28 0.23 0.29 0.27 0.16 0.18v0l-0.89 0.11v0l-0.9 0.23-0.89 0.27v0zm12.99-0.11v0l0.27-0.45 0.23-0.39v0l0.05-0.28v0l0.4 0.78v0l0.16 0.34h-1.11zm-6.17-0.16v0h-0.28l-0.27-0.12-0.29-0.06-0.22-0.11v0l-1.28-0.11v0l0.22-0.67 0.16-0.61 0.12-0.68v-0.67 0l0.67 0.39 0.33 0.17 0.34 0.17v0 0.62l0.11 0.55 0.11 0.56 0.28 0.57v0zm-26.98-3.2v0l-0.17-0.61v0l0.78-0.34v0 0.11 0l-0.28 0.39-0.17 0.22-0.16 0.23v0zm14.95-1.34v0l-0.23-0.45-0.22-0.44v0l-0.84-1.69v-0.17 0l0.33-0.16 0.34-0.23v0l0.28-0.34 0.22-0.32v0l0.06 0.05v0l0.06 1.9 0.06 0.96-0.06 0.89v0zm3.64-1.01v0-1.34-1.29 0l0.22 0.16 0.22 0.18 0.51 0.34v0l-0.95 1.95v0zm-19.77-0.06v0l-0.56-0.61v0l-0.33-0.5-0.29-0.46v0l0.56-0.16 0.51-0.28v0l0.06 1.01 0.05 1v0zm10.64-0.05v0l0.05-0.73v-0.73 0l-0.05-0.11-0.06-0.11v0l0.39 0.05v0l0.23 0.11 0.22 0.23 0.18 0.17 0.16 0.22v0l0.05 0.06v0 0.05 0l-0.61 0.34-0.28 0.23-0.28 0.22v0zm14.16-0.79v0l-0.27-0.27-0.4-0.23v0-0.05 0l0.46-0.29 0.21-0.1 0.23-0.06v0l-0.12 0.5v0.5h-0.11zm4.32-0.55v0l-0.12-0.29-0.16-0.33-0.34-0.51-0.45-0.44-0.44-0.45v0l0.44-0.16 0.51-0.18 0.56-0.05 0.51-0.06v0l0.32 0.56 0.23 0.51v0l-0.28 0.22-0.17 0.11-0.1 0.11v0l-0.18 0.23-0.11 0.28-0.11 0.22-0.11 0.23v0zm-22.34-0.34v0l-0.17-0.28-0.11-0.17-0.17-0.17v0l-0.29-0.11v0l-0.27-0.11-0.34-0.05v0l-0.05-0.4v-0.28l0.05-0.22 0.17-0.39v0l2.46 0.5v0.06 0l-0.39 0.39-0.33 0.34-0.28 0.39-0.28 0.5v0zm-2.97-0.62v0l-0.06-0.22v0l-0.05-0.34v0l-0.11-0.34-0.12-0.32-0.34-0.57v0l0.06-0.11v0l0.4-0.05 0.5 0.05 0.84 0.17v0l-0.23 0.62v0l-0.16 0.73v0l-0.06 0.05v0.06 0l-0.33 0.1-0.34 0.17v0zm28.33-0.22v0l-0.22-0.11-0.29-0.11v0l-0.32-0.06-0.4-0.06v0l-0.12-0.61-0.22-0.56v0l1.06-0.11 0.57-0.06h0.5v0l-0.28 0.56v0l-0.11 0.34-0.06 0.28-0.11 0.5v0zm-22.85-2.41v0h-0.22l-0.22-0.11-0.5-0.17v0l-2.25-0.61v0l0.46-0.56 0.16-0.28 0.22-0.34v0l0.06-0.22 0.11-0.17 0.06-0.06v0l0.23 0.73v0l0.22 0.51 0.1 0.56v0h0.29l0.34-0.06 0.61-0.28 0.56-0.28 0.17-0.05h0.11v0l-0.22 0.61v0l-0.29 0.78v0zm-5.7-0.95v0l0.11-0.78h0.05v0l0.22 0.34 0.23 0.39v0l-0.61 0.05v0zm12.09-1.68v0l-0.17-0.22v0l-0.11-0.51v0l0.17-0.21v0l0.11 0.05 0.05 0.05v0l0.12 0.4v0.44 0h-0.17v0zm-8.4-1.9v0l-0.22-1.12v0l-0.12-0.28-0.06-0.11v-0.17 0l0.63 0.06 0.67 0.06v0l-0.46 0.78-0.44 0.78v0zm20.88-0.72v0l-0.05-0.29-0.17-0.28v0l-0.28-0.22-0.22-0.23h1.17v0l-0.45 1.02v0zm-4.53-1.07v0l-0.4-0.06v0l-0.32-0.05h-0.34v0l1.56-1.01v0l-0.27 0.56-0.11 0.28-0.12 0.28v0zm-9.41-1.12v0l-0.39-0.22-0.23-0.12v0l0.57-1.34v0l1 0.17v0l-0.5 0.73v0l-0.23 0.38-0.22 0.4v0zm7.34-0.34v0l-0.34-0.67-0.22-0.28-0.22-0.27v0l0.27-0.18 0.45-0.16v0l0.28 0.78 0.17 0.51v0l-0.39 0.27v0zm14.28 22.17v0l-0.12-0.28v0l-0.16-0.17v0l-0.23-0.23v0l-0.45-0.21-0.44-0.18v0l-0.11-0.5-0.11-0.45v0l1.06-0.16 0.56-0.12h0.44l0.06 0.12v0 0.27l-0.06 0.29-0.16 0.55v0l-0.17 1.02-0.11 0.05z" fill="#f00000" fill-rule="evenodd" stroke="#f00000" stroke-linecap="round" stroke-linejoin="round" stroke-miterlimit="10" stroke-width=".12"/>
<path d="m386.34 403.9h-0.61l-0.57 0.11-0.5 0.05-0.5 0.17-0.9 0.28-0.84 0.39-0.9 0.39-0.89 0.29-0.51 0.16-0.5 0.06-0.56 0.11h-0.62-0.61l-0.56-0.11-0.51-0.06-0.5-0.16-0.89-0.29-1.68-0.78-0.96-0.28-0.44-0.17-0.57-0.05-0.55-0.11h-0.62-0.62l-0.89-0.57-0.9-0.66-0.84-0.68-0.84-0.66 0.9-0.4 0.95-0.39 0.5-0.12 0.51-0.11 0.61-0.05 0.62-0.06 0.62 0.06 0.55 0.05 0.57 0.11 0.44 0.12 0.96 0.34 0.84 0.33 0.84 0.39 0.89 0.34 0.5 0.11 0.51 0.12 0.56 0.05h0.61 0.62l0.56-0.05 0.5-0.12 0.51-0.11 0.89-0.34 0.9-0.39 0.84-0.33 0.9-0.34 0.5-0.12 0.5-0.11 0.57-0.05 0.61-0.06 0.61 0.06 0.57 0.05 0.5 0.11 0.5 0.12 0.96 0.34 0.84 0.33 0.89 0.39 0.9 0.34 0.45 0.11 0.55 0.12 0.5 0.05h0.57 0.61l0.57-0.05 0.56-0.12 0.44-0.11 0.95-0.34 0.84-0.39 0.84-0.33 0.9-0.34 0.5-0.12 0.51-0.11 0.56-0.05 0.62-0.06 0.66 0.06 0.56 0.05 0.57 0.11 0.5 0.12 0.95 0.39 0.89 0.4-0.83 0.66-0.84 0.68-0.9 0.66-0.9 0.62-0.66-0.05h-0.62l-0.56 0.11-0.51 0.05-0.5 0.17-0.9 0.28-1.68 0.78-0.95 0.29-0.44 0.16-0.56 0.06-0.57 0.11h-0.61-0.57l-0.5-0.11-0.55-0.06-0.45-0.16-0.9-0.29-0.89-0.39-0.84-0.39-0.96-0.28-0.5-0.17-0.5-0.05-0.57-0.11h-0.61z" fill="#fff"/>
<path d="m371.67 404.96 0.95 0.17 0.78 0.27 0.79 0.34 0.73 0.34 1.56 0.56 0.9 0.17 0.51 0.05 0.55 0.06 0.62-0.06 0.56-0.05 0.5-0.11 0.51-0.12 0.89-0.34 0.9-0.33 0.84-0.39 0.9-0.34 0.5-0.1 0.5-0.12 0.57-0.06h0.61 0.61l0.57 0.06 0.5 0.12 0.5 0.1 0.96 0.34 0.84 0.39 0.89 0.33 0.9 0.34 0.45 0.12 0.55 0.11 0.5 0.05 0.57 0.06 0.56-0.06 0.5-0.05 0.96-0.17 1.56-0.56 0.78-0.34 0.73-0.34 0.84-0.27 0.95-0.17-1.68 0.84-1.73 0.78-1.73 0.62-1.85 0.56-1.85 0.44-1.9 0.29-1.96 0.22-2.02 0.06-1.96-0.06-1.96-0.22-1.91-0.29-1.84-0.44-1.85-0.5-1.74-0.68-1.73-0.78-1.68-0.84z" fill="#fff"/>
<path d="m386.34 399.25h-0.61l-0.57 0.06-1 0.22-0.9 0.34-0.84 0.39-0.9 0.34-0.89 0.33-0.51 0.11-0.5 0.11-0.56 0.06-0.62 0.06-0.61-0.06-0.56-0.06-0.51-0.11-0.5-0.11-0.89-0.33-0.84-0.34-0.84-0.39-0.96-0.34-0.44-0.11-0.57-0.11-0.55-0.06h-0.62-0.73l-0.73 0.11-0.61 0.17-0.56 0.17-1.12 0.45-1.07 0.5-0.78-0.73-0.73-0.78-0.67-0.78-0.73-0.78 0.61-0.06 0.57-0.06 1-0.22 0.84-0.34 0.84-0.39 0.84-0.34 0.9-0.34 0.45-0.11 0.56-0.11 0.5-0.05h0.62 0.62l0.55 0.05 0.57 0.11 0.44 0.11 0.96 0.34 0.84 0.39 0.84 0.34 0.89 0.34 0.5 0.11 0.51 0.11 0.56 0.06 0.61 0.06 0.62-0.06 0.56-0.06 0.5-0.11 0.51-0.11 0.89-0.34 0.9-0.34 0.84-0.39 0.9-0.34 1-0.22 0.57-0.05h0.61 0.61l0.57 0.05 1 0.22 0.96 0.34 0.84 0.39 0.89 0.34 0.9 0.34 0.45 0.11 0.55 0.11 0.5 0.06 0.57 0.06 0.61-0.06 0.57-0.06 0.56-0.11 0.44-0.11 0.95-0.34 0.84-0.34 0.84-0.39 0.9-0.34 0.5-0.11 0.51-0.11 0.56-0.05h0.62 0.61l0.56 0.05 0.51 0.11 0.5 0.11 0.89 0.34 0.84 0.34 0.84 0.39 0.9 0.34 1 0.22 0.57 0.06 0.55 0.06-0.67 0.78-0.72 0.78-0.73 0.78-0.73 0.73-1.12-0.5-1.12-0.45-0.56-0.17-0.67-0.17-0.67-0.11h-0.78-0.62l-0.56 0.06-0.51 0.11-0.5 0.11-0.9 0.34-0.84 0.39-0.84 0.34-0.95 0.33-0.44 0.11-0.56 0.11-0.57 0.06-0.61 0.06-0.57-0.06-0.5-0.06-0.55-0.11-0.45-0.11-0.9-0.33-0.89-0.34-0.84-0.39-0.96-0.34-1-0.22-0.57-0.06h-0.61z" fill="#fff"/>
</g>
</g>
</g>
</svg>
