<?xml version="1.0" encoding="UTF-8"?>
<svg version="1.0" viewBox="0 0 360 400" xmlns="http://www.w3.org/2000/svg" xmlns:cc="http://web.resource.org/cc/" xmlns:dc="http://purl.org/dc/elements/1.1/" xmlns:rdf="http://www.w3.org/1999/02/22-rdf-syntax-ns#">
<metadata>
<rdf:RDF>
<cc:Work rdf:about="">
<dc:format>image/svg+xml</dc:format>
<dc:type rdf:resource="http://purl.org/dc/dcmitype/StillImage"/>
</cc:Work>
</rdf:RDF>
</metadata>
<g transform="translate(2 -.26516)">
<path d="m11 11.53h334v207.47c0 100.48-79.442 170-167 170-86.851 0-167-69.608-167-170v-207.47z" fill="#fff" stroke="#000" stroke-linejoin="round" stroke-width="6.25"/>
<g>
<rect x="40.25" y="274.03" width="105.18" height="26.921"/>
<rect x="226.1" y="274.03" width="87.013" height="26.921"/>
<path d="m47.73 270.12v-172.75h111.77v37l-19 19v24.562h88v-39.562h79.5v131.75h-79.5v-16.319c0-11.49-14.343-40.128-44-40.128-29.306 0-44 28.638-44 40.128v16.319h-92.77z" fill-rule="evenodd"/>
<path d="m268.17 73.67 46.139 60.705h-92.277l46.139-60.705z" fill-rule="evenodd"/>
<path d="m40.128 93.292 53.663-70.604 43.385 57.081 10.976-37.282 14.949 50.805"/>
</g>
</g>
</svg>
