<?xml version="1.0" encoding="UTF-8"?>
<!DOCTYPE svg  PUBLIC '-//W3C//DTD SVG 1.0//EN'  'http://www.w3.org/TR/2001/REC-SVG-20010904/DTD/svg10.dtd'>
<svg width="687" height="768" version="1.0" viewBox="-2.3812 -2.3812 84.138 94.038" xmlns="http://www.w3.org/2000/svg">
<defs>
<clipPath id="b">
<path d="m354.48 210.24h63.71v-71.64h-63.71v71.64z"/>
</clipPath>
<clipPath id="a">
<path d="m354.48 210.24h63.71v-71.64h-63.71v71.64z"/>
</clipPath>
</defs>
<g transform="translate(-594.6 -107.72)">
<g transform="matrix(1.25 0 0 1.25 151.36 -65.663)" clip-path="url(#b)">
<path d="m354.59 138.71h63.5v39.68 1.62l-0.17 1.62-0.17 1.57-0.28 1.57-0.39 1.57-0.4 1.51-0.5 1.46-0.56 1.45-0.67 1.4-0.67 1.34-0.78 1.34-0.79 1.29-0.89 1.23-0.96 1.23-1.01 1.13-1.05 1.12-1.07 1.06-1.18 0.95-1.17 0.95-1.29 0.9-1.29 0.84-1.29 0.72-1.4 0.73-1.4 0.62-1.45 0.55-1.46 0.51-1.51 0.45-1.52 0.33-1.56 0.28-1.62 0.23-1.57 0.11-1.68 0.06-1.63-0.06-1.62-0.11-1.57-0.23-1.56-0.28-1.52-0.33-1.51-0.45-1.51-0.51-1.4-0.55-1.4-0.62-1.4-0.73-1.34-0.72-1.29-0.84-1.23-0.9-2.36-1.9-1.05-1.06-1.07-1.12-1.01-1.13-0.95-1.23-0.9-1.23-0.79-1.29-0.78-1.34-0.72-1.34-0.62-1.4-0.56-1.45-0.5-1.46-0.45-1.51-0.34-1.57-0.28-1.57-0.22-1.57-0.12-1.62-0.05-1.62v-39.68z" fill-rule="evenodd"/>
</g>
<g transform="matrix(1.25 0 0 1.25 151.36 -65.663)" clip-path="url(#a)">
<path d="m393.9 197.48-2.86-8.85 7.5-5.48h-9.29l-2.91-8.84-2.86 8.84h-9.35l7.56 5.48-2.86 8.85 7.51-5.44 7.56 5.44zm6.16 7.95 0.16-1.07-0.05-0.5-0.06-0.51-0.44-1.12-0.29-0.5-0.33-0.44-0.17-0.23-0.45-0.4-0.44-0.33-0.51-0.4-0.62-0.33-0.33-0.11-0.45-0.17-1.12-0.22-0.56-0.06-0.56 0.06-0.67 0.11-0.72 0.17-0.29 0.11-0.33 0.11-0.17-0.72-0.23-0.68-0.33-0.72-0.4-0.57-0.33-0.33-0.22-0.28-0.29-0.28-0.66-0.5-0.4-0.28-0.39-0.17-0.45-0.17-0.44-0.17-0.45-0.05-0.5-0.11h-1.35l-0.33 0.06-0.4 0.1-0.73 0.23-0.39 0.17-0.45 0.16-0.5 0.39-0.44 0.4-0.29 0.22-0.28 0.33-0.45 0.57-0.16 0.28-0.23 0.39-0.22 0.51-0.17 0.5-0.11 0.5-0.17-0.17-0.28-0.22-1.23-0.28-0.5-0.06h-0.34-0.34l-0.89 0.11-0.9 0.23-0.39 0.16-0.45 0.23-0.39 0.22-0.34 0.28-0.27 0.23-0.23 0.27-0.28 0.23-0.22 0.28-0.4 0.5-0.33 0.68-0.29 0.67-0.22 0.55-0.05 0.96 0.11 0.67-1.68-1.01-1.68-1.17-1.57-1.24-1.45-1.34-1.4-1.4-1.29-1.51-1.18-1.62-1.06-1.68-1.01-1.79-0.45-0.9-0.39-0.89-0.39-0.95-0.34-0.95-0.33-0.96-0.28-1.01-0.28-0.94-0.23-1.02-0.22-1.06-0.11-1-0.17-1.07-0.06-1.06-0.05-1.06-0.06-1.07v-4.25h60.69v4.25 1.12l-0.05 1.12-0.11 1.06-0.11 1.07-0.17 1.06-0.22 1.07-0.23 1.05-0.27 1.02-0.34 1-0.34 1.01-0.39 1.01-0.4 0.95-0.44 0.95-0.51 0.9-0.5 0.89-0.5 0.9-0.57 0.89-0.61 0.84-0.62 0.84-0.61 0.78-0.68 0.79-0.72 0.78-0.73 0.73-0.73 0.67-0.78 0.73-0.79 0.62-0.84 0.67-0.84 0.55-0.84 0.62-0.89 0.56-0.9 0.51-0.89 0.45z" fill="#fff" fill-rule="evenodd"/>
<path d="m389.86 171.34-0.61 0.06h-0.67l-1.18-0.11-0.89-0.34-0.67-0.28-0.62-0.4-0.56-0.39-0.34-0.28-0.56-0.67-0.28-0.39-0.16-0.28-0.06-0.06-0.06-0.05-0.17 0.23-0.11 0.33-0.1 0.28-0.12 0.67-0.06 0.17-0.05 0.16 0.05 0.62 0.18 0.56-0.68-0.11-0.68-0.17-0.66-0.22-0.57-0.29-0.66-0.5-0.34-0.28-0.68-0.89-0.27-0.78-0.06-0.34 0.9-0.23 0.45-0.11 0.44-0.11 1.4-0.56 0.45-0.17 0.78-0.33 0.45-0.23 0.45-0.28 0.39-0.33 0.39-0.34 0.39-0.56 0.29-0.44 0.22-0.34 0.22-0.5 0.29-0.68 0.22-0.67 0.11-0.78v-0.62-0.67l-0.11-0.73-0.11-0.39-0.29-0.78-0.33-0.67-0.45-0.62-0.45-0.67-0.45-0.4-0.39-0.33-0.45-0.33-0.39-0.23-0.39-0.22-0.73-0.28-0.78-0.17-0.73-0.17-1.84-0.39-1.69-0.33-0.84-0.23-0.78-0.22-0.44-0.17-0.73-0.39-0.4-0.22-0.33-0.23-0.29-0.34-0.44-0.45-0.4-0.5-0.84-1.51-0.84-1.45-0.77-1.18-0.79-1.12h0.28l0.62 0.17 0.61 0.22 0.56 0.23 0.67 0.39 0.62 0.45 0.39 0.27 0.33 0.34 0.34 0.39 0.62 0.79 0.27 0.39 0.34 0.5 0.29 0.57 0.16 0.05 0.05-0.73v-0.78l-0.05-0.51-0.16-0.95-0.17-0.95-0.28-0.95-0.34-0.89-0.34-0.57 0.5 0.12 0.46 0.16 0.67 0.29 0.67 0.39 0.45 0.39 0.27 0.28 0.34 0.33 0.29 0.45 0.22 0.34 0.39 0.83 0.17 0.56 0.22 1.24 0.06 0.56 0.06 0.5v1.06l0.05 0.06 0.51-0.78 0.44-0.79 0.22-0.5 0.51-1.4 0.22-0.67 0.18-0.73 0.21-1.12 0.23-1.12 0.11-0.84 0.39 0.39 0.68 0.9 0.27 0.45 0.29 0.5 0.22 0.5 0.17 0.51 0.11 0.5 0.11 0.28 0.05 0.28v0.5l-0.05 0.51v0.73l-0.06 0.39-0.11 0.34-0.44 1.5-0.18 0.46-0.05 0.22-0.06 0.28 0.73-0.5 0.34-0.29 0.34-0.28 0.22-0.28 0.67-0.89 0.62-0.95 0.89-1.35 0.51-0.83 0.44-0.79 0.4-0.89 0.39-0.84 0.28-0.68 0.22-0.61 0.28-1.07 0.17 0.06 0.22 0.23 0.68 0.89 0.11 0.34 0.22 0.55 0.06 0.34v0.34 0.67l-0.06 0.89-0.11 0.51-0.11 0.5-0.28 1.29-0.17 0.62-0.23 0.61-0.61 1.23-0.5 1.01-0.23 0.45-0.28 0.45-0.61 0.72 0.61-0.22 0.84-0.34 0.67-0.44 1.24-0.84 1.17-0.84 2.08-1.63 1-0.84 1.01-0.84 0.11-0.11 0.62-0.51 0.56-0.55 0.5-0.56 0.28-0.28 0.62-0.73 0.95-1.18 0.44-0.66 0.4-0.73 0.12 0.22v0.28 0.5 0.73l-0.06 0.67-0.17 0.95-0.11 0.51-0.18 0.5-0.38 0.9-0.4 0.84-0.33 0.61-0.34 0.62-0.56 0.72-0.33 0.45-0.29 0.45-0.44 0.51-0.84 0.84-0.17 0.16-0.11 0.17-0.28 0.22-1.07 1.07-1.18 0.95-0.55 0.45-0.61 0.44h0.38l1.12-0.27 1.18-0.46 1.51-0.72 2.69-1.34 1.79-1.07 1.18-0.62 1.12-0.66 1-0.68 1.02-0.66 0.61-0.4 0.56-0.39 1.12-0.84 1-0.96 0.06 0.4-0.11 0.62-0.17 0.67-0.16 0.67-0.17 0.45-0.23 0.44-0.44 0.84-0.28 0.57-0.4 0.55-1.17 1.57-0.84 0.78-0.62 0.45-1.12 0.84-1.07 0.62-1.11 0.67-1.18 0.56-2.63 1.23-1.62 0.62-1.63 0.67v0.05l1.24 0.23 0.55 0.05 0.62 0.06 2.97 0.17 2.18 0.11 2.24 0.06h1.8 1.84l1.63-0.06 0.66-0.05 0.12 0.05-0.45 0.56-0.67 0.67-0.39 0.33-0.45 0.34-0.56 0.39-0.62 0.28-1.34 0.68-0.67 0.27-0.73 0.18-0.45 0.11-0.62 0.05-0.61 0.05h-1.23l-0.79-0.05-0.84-0.11-1.12-0.11-1.17-0.17-1.18-0.22-1.29-0.23-1.28-0.28-2.02-0.28 0.06 0.22 0.72 0.62 0.78 0.56 2.02 1.34 1.41 0.79 1.9 1.17 1.07 0.67 1.45 0.73 1.39 0.84h0.06l-0.78 0.23-0.73 0.05-0.73 0.11h-0.61-0.68l-1.39-0.16-1.41-0.29-0.66-0.16-0.57-0.23-1.11-0.45-1.01-0.5-0.96-0.44-0.89-0.56-0.62-0.51-0.61-0.5-0.62-0.73-0.33-0.34-0.12-0.06-0.11 0.18v0.33 0.4l0.11 0.72 0.23 0.67 0.22 0.62 0.39 0.72 0.51 0.68 0.56 0.61 0.33 0.34 0.22 0.28z" fill="#fff" fill-rule="evenodd"/>
<path d="m391.99 172.01v0l-0.11-0.11-0.22-0.17-0.62-0.5v0l-0.34-0.23v0l-0.55-0.5-0.56-0.56-0.57-0.67-0.44-0.68v0l-0.11-0.27v0l-0.11-0.34-0.06-0.28v0l0.45 0.39 0.45 0.4 0.5 0.39 0.5 0.33v0l0.9 0.51v0l1.12 0.61v0l0.44 0.17 0.45 0.17 0.9 0.28v0l0.84 0.22 0.89 0.23 0.84 0.16 0.9 0.06v0h0.95l1.01-0.06 1.91-0.33v0l0.61-0.12 0.62-0.16v0l0.34-0.17 0.33-0.17v0l-1.79-0.89v0l-1.85-0.96-1.96-1.06v0l-1.07-0.67v0l-1.9-1.18-0.89-0.56-0.9-0.66v0l0.34 0.05 0.33 0.11v0l1.8 0.39v0l1.06 0.17 1.12 0.11v0l1.06 0.17 1.12 0.11v0l0.56 0.05h0.51v0l1.73-0.16v0l0.78-0.17 0.84-0.22 0.78-0.34 0.74-0.33v0l0.73-0.34v0l0.39-0.22 0.39-0.28v0l0.78-0.51v0l0.28-0.22 0.23-0.23v0l0.55-0.55v0l0.68-0.84 0.33-0.5 0.23-0.4v0-0.17 0l-0.17-0.05v0l-3.69 0.17v0l-1.52 0.05v0h-1.57v0l-1.84-0.05-1.85-0.06-3.69-0.28v0l-0.34-0.05v0l1.12-0.4 1.06-0.44v0l1.41-0.62v0l1.45-0.73 1.4-0.72v0l0.5-0.34 0.45-0.34 0.95-0.67v0l1-0.9v0l0.96-1v0l0.95-1.23v0l0.34-0.45 0.22-0.45v0l0.39-0.56v0l0.34-0.73 0.28-0.78 0.22-0.84 0.18-0.78v0l0.05-0.45v0-0.45l-0.05-0.51-0.18-0.95v0h-0.11v0l-1.34 1.29v0l-0.45 0.39v0l-0.95 0.73v0l-0.95 0.79v0l-0.79 0.5-0.78 0.5-1.62 1.01v0l-1.46 0.84v0l-1.29 0.73-1.34 0.67-2.69 1.28v0l1.57-1.45v0l0.33-0.33 0.62-0.73 0.96-1.18v0l0.44-0.61 0.4-0.73v0l0.55-0.95 0.45-1.01v0l0.11-0.34v0l0.23-0.67 0.22-0.78 0.11-0.79 0.06-0.73v0-0.61 0-0.39 0l-0.06-0.45-0.17-0.61-0.22-0.62-0.23-0.45v0l-0.16-0.05v0l-0.28 0.39-0.29 0.45-0.44 0.89v0l-0.67 0.9v0l-0.62 0.84v0l-0.61 0.67v0l-0.45 0.56-0.5 0.5v0l-0.9 0.84v0l-0.9 0.84v0l-1.06 0.84-1.07 0.84v0l-1.79 1.34v0l-1.51 1.01v0l0.05-0.23 0.23-0.39 0.34-0.61v0l0.05-0.23v0l0.28-0.55v0l0.23-0.62 0.17-0.67 0.27-1.4v0l0.11-0.51 0.12-0.5v0-1.06-1.07 0l-0.05-0.22-0.07-0.28-0.27-0.67-0.34-0.56-0.28-0.45v0l-0.79-0.78v0l-0.38-0.22-0.23-0.12-0.23-0.05v0l-0.16 0.84-0.17 0.67-0.17 0.61v0l-0.22 0.56-0.17 0.45v0l-0.28 0.67-0.28 0.68v0l-0.5 0.95-0.5 0.89v0l-0.51 0.84v0l-0.62 0.84v0l-1 1.46v0l0.27-1.4v0l0.11-0.96v0-0.61 0l-0.16-0.9-0.11-0.44-0.17-0.56-0.22-0.51-0.29-0.5-0.33-0.56-0.4-0.51v0l-0.5-0.55-0.56-0.56-0.5-0.39-0.51-0.28v0h-0.16v0l0.05 0.28v0.33 0l0.06 0.73v0l-0.06 1-0.16 1.07v0l-0.23 0.95v0l-0.22 0.89v0l-0.34 0.96-0.34 0.95v0l-0.05-0.61-0.17-0.68v0l-0.17-0.5-0.27-0.62-0.28-0.61-0.29-0.45v0l-0.27-0.34-0.28-0.33v0l-0.17-0.17v0-0.05l-0.4-0.4v0l-0.22-0.17v0l-0.62-0.45v0l-1-0.5-1.06-0.39v0l-0.73-0.16-0.79-0.06v0 0.06 0l0.39 0.83 0.45 0.78v0l0.28 0.62v0l0.22 0.68v0l0.23 0.66v0l0.17 0.68 0.16 0.66v0l-0.06 0.18v0l-0.83-0.96-0.51-0.56v0l-0.61-0.39-0.62-0.45v0l-0.39-0.16-0.39-0.17v0l-0.9-0.33-0.45-0.12-0.44-0.11h-0.45-0.45l-0.5 0.05-0.5 0.11v0l0.16 0.23 0.17 0.23v0l0.89 1.17v0l0.79 1.28 0.51 0.91v0l0.72 1 1.18 1.84 0.61 0.96v0l0.28 0.39v0l0.34 0.34v0l0.11 0.11v0l0.73 0.5 0.45 0.29 0.33 0.16v0l0.56 0.17v0l0.95 0.28v0l4.54 0.89v0l1.06 0.28v0l0.56 0.22v0l0.34 0.12v0l0.68 0.45 0.61 0.5v0l0.39 0.45v0l0.5 0.73v0l0.39 0.66 0.18 0.45 0.11 0.51v0l0.16 0.84v0.39 0.4l-0.16 0.72-0.29 0.84v0l-0.16 0.44-0.17 0.34-0.51 0.73v0l-0.5 0.45-0.5 0.5v0l-0.57 0.39-0.61 0.45v0l-0.55 0.23-0.46 0.16-1.01 0.34v0l-0.78 0.23-0.84 0.22v0l-0.72 0.11v0l0.05 0.84v0l0.22 0.78v0l0.11 0.39v0l0.28 0.45v0l0.23 0.34 0.33 0.33 0.68 0.56 0.62 0.39 0.33 0.18v0l0.45 0.22 0.51 0.11v0l1.16 0.33 1.18 0.18v0h0.45 0.23l0.16-0.06v-0.12 0l-0.5-0.44v0l-0.11-0.17-0.23-0.34v0l-0.11-0.39v-0.28 0-0.28-0.33h0.06v0l0.17 0.22 0.27 0.33 0.34 0.4v0l0.56 0.39 0.62 0.45v0l1.18 0.44v0l0.38 0.06v0l0.9 0.12 0.84 0.05v0l0.51 0.06h0.55v0l0.62-0.06v0l1.62-0.17v0zm24.69 1.01h-60.69v-32.91h60.69v32.91z" fill="#f00000" fill-rule="evenodd" stroke="#f00000" stroke-linecap="round" stroke-linejoin="round" stroke-miterlimit="10" stroke-width=".12"/>
<path d="m392.77 195.97-6.43-4.65-6.38 4.65 2.4-7.56-6.38-4.65h7.89l2.47-7.55 2.46 7.55h7.9l-6.38 4.65 2.45 7.56z" fill="#f00000" stroke="#f00000" stroke-linecap="round" stroke-linejoin="round" stroke-miterlimit="10" stroke-width=".12"/>
<path d="m372.73 205.48v0l-0.11-0.23v0l-0.11-0.89v0l0.05-0.62v0l0.06-0.5 0.11-0.5v0l0.56-1.06v0l0.29-0.39 0.38-0.4 0.4-0.39 0.38-0.28v0l0.57-0.23 0.56-0.22v0l0.55-0.11v0l0.29-0.06 0.28-0.06v0h0.56l0.56 0.06v0l0.44 0.06 0.57 0.22v0l0.45 0.23 0.39 0.27v0l0.22 0.23 0.23 0.28 0.22 0.4v0l0.28 0.39v0l-0.06-0.23-0.05-0.39v0l-0.06-0.73 0.06-0.73v0l0.11-0.56 0.11-0.45v0l0.28-0.44 0.34-0.5 0.34-0.51 0.38-0.39v0l0.56-0.39 0.68-0.39 0.72-0.34 0.39-0.11 0.29-0.06v0h0.44v0h0.45v0l0.68 0.11 0.72 0.22 0.67 0.23 0.56 0.34v0l0.73 0.5v0l0.34 0.34 0.33 0.45 0.34 0.5 0.22 0.39v0l0.22 0.78 0.23 0.79v0l0.06 1v0l0.39-0.34v0l0.73-0.32 0.78-0.29v0l0.51-0.17 0.5-0.06v0h0.78 0.45l0.34 0.06v0l0.22 0.12v0l0.33 0.05v0l0.56 0.29 0.62 0.32v0l0.39 0.29 0.23 0.17 0.06 0.16v0l0.16 0.06v0l0.29 0.39 0.21 0.39v0l0.29 0.4 0.22 0.39v0l0.06 0.33 0.06 0.28v0l0.1 0.68v0 0.61l-0.05 0.33-0.05 0.29v0l-0.12 0.39v0l-1.46 0.61-1.51 0.56-1.56 0.51-1.57 0.39-1.57 0.34-1.68 0.22-1.63 0.11-1.73 0.06v0l-1.79-0.06-1.79-0.17-1.8-0.28-1.73-0.34-1.68-0.45-1.63-0.55-1.62-0.67-1.57-0.73v0z" fill="#094" fill-rule="evenodd" stroke="#094" stroke-linecap="round" stroke-linejoin="round" stroke-miterlimit="10" stroke-width=".12"/>
</g>
</g>
</svg>
