<?xml version="1.0" encoding="UTF-8" standalone="no"?>
<!-- Created with Inkscape (http://www.inkscape.org/) -->
<svg
   xmlns:svg="http://www.w3.org/2000/svg"
   xmlns="http://www.w3.org/2000/svg"
   version="1.0"
   width="465.17999"
   height="520.70001"
   id="svg2">
  <defs
     id="defs4">
    <clipPath
       id="clipPath3580">
      <path
         d="M 418.2,703.56 L 421.56,703.56 L 421.56,691.21 L 418.2,691.21 L 418.2,703.56 z"
         id="path3582" />
    </clipPath>
    <clipPath
       id="clipPath3562">
      <path
         d="M 354.48,701.16 L 418.19,701.16 L 418.19,629.53 L 354.48,629.53 L 354.48,701.16 z"
         id="path3564" />
    </clipPath>
    <clipPath
       id="clipPath3550">
      <path
         d="M 354.48,701.16 L 418.19,701.16 L 418.19,629.53 L 354.48,629.53 L 354.48,701.16 z"
         id="path3552" />
    </clipPath>
    <clipPath
       id="clipPath3474">
      <path
         d="M 418.2,603.6 L 421.56,603.6 L 421.56,591.24 L 418.2,591.24 L 418.2,603.6 z"
         id="path3476" />
    </clipPath>
    <clipPath
       id="clipPath3348">
      <path
         d="M 354.48,601.2 L 418.19,601.2 L 418.19,529.56 L 354.48,529.56 L 354.48,601.2 z"
         id="path3350" />
    </clipPath>
    <clipPath
       id="clipPath3336">
      <path
         d="M 354.48,601.2 L 418.19,601.2 L 418.19,529.56 L 354.48,529.56 L 354.48,601.2 z"
         id="path3338" />
    </clipPath>
    <clipPath
       id="clipPath3260">
      <path
         d="M 418.2,512.64 L 421.56,512.64 L 421.56,500.28 L 418.2,500.28 L 418.2,512.64 z"
         id="path3262" />
    </clipPath>
    <clipPath
       id="clipPath3238">
      <path
         d="M 354.48,510.24 L 418.19,510.24 L 418.19,438.61 L 354.48,438.61 L 354.48,510.24 z"
         id="path3240" />
    </clipPath>
    <clipPath
       id="clipPath3226">
      <path
         d="M 354.48,510.24 L 418.19,510.24 L 418.19,438.61 L 354.48,438.61 L 354.48,510.24 z"
         id="path3228" />
    </clipPath>
    <clipPath
       id="clipPath3146">
      <path
         d="M 418.2,412.68 L 421.56,412.68 L 421.56,400.32 L 418.2,400.32 L 418.2,412.68 z"
         id="path3148" />
    </clipPath>
    <clipPath
       id="clipPath3084">
      <path
         d="M 354.48,410.28 L 418.19,410.28 L 418.19,338.65 L 354.48,338.65 L 354.48,410.28 z"
         id="path3086" />
    </clipPath>
    <clipPath
       id="clipPath3072">
      <path
         d="M 354.48,410.28 L 418.19,410.28 L 418.19,338.65 L 354.48,338.65 L 354.48,410.28 z"
         id="path3074" />
    </clipPath>
    <clipPath
       id="clipPath3000">
      <path
         d="M 418.2,312.72 L 421.56,312.72 L 421.56,300.36 L 418.2,300.36 L 418.2,312.72 z"
         id="path3002" />
    </clipPath>
    <clipPath
       id="clipPath2974">
      <path
         d="M 354.48,310.32 L 418.19,310.32 L 418.19,238.69 L 354.48,238.69 L 354.48,310.32 z"
         id="path2976" />
    </clipPath>
    <clipPath
       id="clipPath2962">
      <path
         d="M 354.48,310.32 L 418.19,310.32 L 418.19,238.69 L 354.48,238.69 L 354.48,310.32 z"
         id="path2964" />
    </clipPath>
    <clipPath
       id="clipPath2888">
      <path
         d="M 418.2,212.64 L 421.56,212.64 L 421.56,200.29 L 418.2,200.29 L 418.2,212.64 z"
         id="path2890" />
    </clipPath>
    <clipPath
       id="clipPath2796">
      <path
         d="M 354.48,210.24 L 418.19,210.24 L 418.19,138.6 L 354.48,138.6 L 354.48,210.24 z"
         id="path2798" />
    </clipPath>
    <clipPath
       id="clipPath2784">
      <path
         d="M 354.48,210.24 L 418.19,210.24 L 418.19,138.6 L 354.48,138.6 L 354.48,210.24 z"
         id="path2786" />
    </clipPath>
    <clipPath
       id="clipPath2710">
      <path
         d="M 422.04,110.76 L 422.04,135.12 L 549.12,135.12 L 549.12,110.76 L 545.88,110.76 L 545.88,125.88 L 425.28,125.88 L 425.28,110.76 L 422.04,110.76 z"
         id="path2712" />
    </clipPath>
    <clipPath
       id="clipPath2688">
      <path
         d="M 351.12,110.76 L 351.12,135.12 L 354.48,135.12 L 354.48,110.76 L 351.12,110.76 z M 418.32,110.76 L 418.32,135.12 L 421.56,135.12 L 421.56,110.76 L 418.32,110.76 z"
         id="path2690" />
    </clipPath>
    <clipPath
       id="clipPath2666">
      <path
         d="M 288.84,110.76 L 288.84,135.12 L 350.64,135.12 L 350.64,110.76 L 347.4,110.76 L 347.4,132.84 L 292.08,132.84 L 292.08,110.76 L 288.84,110.76 z"
         id="path2668" />
    </clipPath>
    <clipPath
       id="clipPath2650">
      <path
         d="M 147.12,110.76 L 147.12,135.12 L 288.36,135.12 L 288.36,110.76 L 285.12,110.76 L 285.12,125.88 L 150.36,125.88 L 150.36,110.76 L 147.12,110.76 z"
         id="path2652" />
    </clipPath>
    <clipPath
       id="clipPath2634">
      <path
         d="M 67.68,110.76 L 67.68,135.12 L 146.64,135.12 L 146.64,110.76 L 143.28,110.76 L 143.28,125.88 L 70.92,125.88 L 70.92,110.76 L 67.68,110.76 z"
         id="path2636" />
    </clipPath>
    <clipPath
       id="clipPath2502">
      <path
         d="M 70.92,803.76 L 574.44,803.76 L 574.44,774.97 L 70.92,774.97 L 70.92,803.76 z"
         id="path2504" />
    </clipPath>
    <clipPath
       id="clipPath2480">
      <path
         d="M 70.92,803.76 L 574.44,803.76 L 574.44,801.97 L 70.92,801.97 L 70.92,803.76 z"
         id="path2482" />
    </clipPath>
    <clipPath
       id="clipPath2470">
      <path
         d="M 70.92,776.76 L 574.44,776.76 L 574.44,774.97 L 70.92,774.97 L 70.92,776.76 z"
         id="path2472" />
    </clipPath>
  </defs>
  <g
     transform="translate(-66.026772,-17.72467)"
     id="layer1">
    <g
       transform="matrix(1.25,0,0,1.25,-50.89375,2.07865)"
       clip-path="url(#clipPath2888)"
       id="g2886" />
    <g
       transform="matrix(1.25,0,0,1.25,-50.89375,2.07865)"
       clip-path="url(#clipPath3000)"
       id="g2998" />
    <g
       transform="matrix(1.25,0,0,1.25,-50.89375,2.07865)"
       clip-path="url(#clipPath3146)"
       id="g3144" />
    <g
       transform="matrix(1.25,0,0,1.25,-50.89375,2.07865)"
       clip-path="url(#clipPath3260)"
       id="g3258" />
    <g
       transform="matrix(1.25,0,0,1.25,-50.89375,2.07865)"
       clip-path="url(#clipPath3474)"
       id="g3472" />
    <g
       transform="matrix(1.25,0,0,1.25,-50.89375,2.07865)"
       clip-path="url(#clipPath3580)"
       id="g3578" />
    <g
       transform="matrix(5.608553,0,0,5.608553,-4236.299,-840.85991)"
       id="g6312">
      <g
         transform="translate(376.54018,-20.598611)"
         id="g6205">
        <g
           transform="matrix(1.25,0,0,1.25,-50.89375,2.07865)"
           clip-path="url(#clipPath2784)"
           id="g6207">
          <g
             id="g6209">
            <path
               d="M 354.59,138.71 L 418.09,138.71 L 418.09,178.39 L 418.09,178.39 L 418.09,180.01 L 417.92,181.63 L 417.75,183.2 L 417.47,184.77 L 417.08,186.34 L 416.68,187.85 L 416.18,189.31 L 415.62,190.76 L 414.95,192.16 L 414.28,193.5 L 413.5,194.84 L 412.71,196.13 L 411.82,197.36 L 410.86,198.59 L 409.85,199.72 L 408.8,200.84 L 407.73,201.9 L 406.55,202.85 L 405.38,203.8 L 404.09,204.7 L 402.8,205.54 L 401.51,206.26 L 400.11,206.99 L 398.71,207.61 L 397.26,208.16 L 395.8,208.67 L 394.29,209.12 L 392.77,209.45 L 391.21,209.73 L 389.59,209.96 L 388.02,210.07 L 386.34,210.13 L 386.34,210.13 L 384.71,210.07 L 383.09,209.96 L 381.52,209.73 L 379.96,209.45 L 378.44,209.12 L 376.93,208.67 L 375.42,208.16 L 374.02,207.61 L 372.62,206.99 L 371.22,206.26 L 369.88,205.54 L 368.59,204.7 L 367.36,203.8 L 366.18,202.85 L 365,201.9 L 363.95,200.84 L 362.88,199.72 L 361.87,198.59 L 360.92,197.36 L 360.02,196.13 L 359.23,194.84 L 358.45,193.5 L 357.73,192.16 L 357.11,190.76 L 356.55,189.31 L 356.05,187.85 L 355.6,186.34 L 355.26,184.77 L 354.98,183.2 L 354.76,181.63 L 354.64,180.01 L 354.59,178.39 L 354.59,138.71 z"
               id="path6211"
               style="fill:#000000;fill-opacity:1;fill-rule:evenodd;stroke:none" />
          </g>
        </g>
        <g
           transform="matrix(1.25,0,0,1.25,-50.89375,2.07865)"
           clip-path="url(#clipPath2796)"
           id="g6213">
          <path
             d="M 362.15,196.58 L 362.15,196.58 L 363.49,194.84 L 364.84,193.22 L 366.74,191.04 L 366.74,191.04 L 405.94,191.04 L 405.94,191.04 L 407.51,192.77 L 409.01,194.51 L 410.64,196.52 L 410.64,196.52 L 409.58,197.87 L 408.4,199.15 L 407.17,200.38 L 405.88,201.56 L 404.54,202.63 L 403.14,203.63 L 401.68,204.59 L 400.17,205.43 L 398.54,206.15 L 396.92,206.82 L 395.3,207.38 L 393.56,207.83 L 391.83,208.22 L 390.04,208.5 L 388.18,208.67 L 386.34,208.73 L 386.34,208.73 L 384.49,208.67 L 382.7,208.5 L 380.91,208.22 L 379.17,207.88 L 377.49,207.38 L 375.81,206.82 L 374.19,206.15 L 372.62,205.43 L 371.11,204.59 L 369.6,203.68 L 368.2,202.68 L 366.86,201.62 L 365.57,200.45 L 364.33,199.21 L 363.22,197.93 L 362.15,196.58 L 362.15,196.58 z"
             id="path6215"
             style="fill:#009944;fill-opacity:1;fill-rule:evenodd;stroke:#009944;stroke-width:0.12;stroke-linecap:round;stroke-linejoin:round;stroke-miterlimit:10;stroke-dasharray:none;stroke-opacity:1" />
          <path
             d="M 387.85,190.09 L 387.85,190.09 L 393.73,190.15 L 393.73,190.15 L 393.73,177.61 L 393.67,165.18 L 392.05,165.13 L 392.05,163.34 L 392.05,163.34 L 391.38,163.34 L 390.65,163.34 L 390.65,160.99 L 389.59,160.99 L 389.53,158.86 L 388.36,158.86 L 388.36,156.9 L 387.85,156.9 L 387.85,156.9 L 387.85,190.09 L 387.85,190.09 z"
             id="path6217"
             style="fill:#ffffff;fill-opacity:1;fill-rule:evenodd;stroke:none" />
          <path
             d="M 399.55,177.72 L 400.22,177.72 L 400.22,174.7 L 399.55,174.7 L 399.55,177.72 z M 403.3,177.55 L 403.98,177.55 L 403.98,174.52 L 403.3,174.52 L 403.3,177.55 z M 404.65,177.49 L 405.26,177.49 L 405.26,177.49 L 405.32,174.52 L 404.6,174.52 L 404.6,174.52 L 404.65,177.49 L 404.65,177.49 z M 402.41,171.84 L 402.46,168.93 L 401.74,168.93 L 401.74,171.84 L 402.41,171.84 z M 396.86,171.9 L 397.65,171.9 L 397.65,168.82 L 396.86,168.82 L 396.86,171.9 z M 403.19,171.79 L 403.87,171.79 L 403.87,168.93 L 403.19,168.88 L 403.19,171.79 z M 404.6,171.79 L 405.32,171.79 L 405.32,168.99 L 404.6,168.99 L 404.6,171.79 z M 405.88,189.98 L 405.88,189.98 L 394.34,190.04 L 394.29,167.2 L 394.29,167.2 L 405.88,167.2 L 405.88,167.2 L 405.88,189.98 L 405.88,189.98 z"
             id="path6219"
             style="fill:#ffffff;fill-opacity:1;fill-rule:evenodd;stroke:none" />
          <path
             d="M 368.76,148.73 L 368.76,145.88 L 368.76,145.88 L 366.57,145.88 L 366.57,148.73 L 368.76,148.73 z"
             id="path6221"
             style="fill:#ffffff;fill-opacity:1;fill-rule:evenodd;stroke:none" />
          <path
             d="M 373.35,148.73 L 373.35,145.82 L 371.39,145.82 L 371.39,148.73 L 373.35,148.73 z"
             id="path6223"
             style="fill:#ffffff;fill-opacity:1;fill-rule:evenodd;stroke:none" />
          <path
             d="M 376.1,148.79 L 377.99,148.79 L 377.99,145.76 L 376.1,145.76 L 376.1,148.79 z"
             id="path6225"
             style="fill:#ffffff;fill-opacity:1;fill-rule:evenodd;stroke:none" />
          <path
             d="M 380.57,148.73 L 382.48,148.73 L 382.48,145.82 L 380.57,145.76 L 380.57,148.73 z"
             id="path6227"
             style="fill:#ffffff;fill-opacity:1;fill-rule:evenodd;stroke:none" />
          <path
             d="M 387.01,148.67 L 387.07,145.82 L 385,145.76 L 385,148.67 L 387.01,148.67 z"
             id="path6229"
             style="fill:#ffffff;fill-opacity:1;fill-rule:evenodd;stroke:none" />
          <path
             d="M 377.71,181.08 L 377.71,177.04 L 377.71,177.04 L 370.38,177.04 L 370.38,177.04 L 370.38,181.02 L 370.38,181.02 L 377.71,181.08 L 377.71,181.08 z"
             id="path6231"
             style="fill:#ffffff;fill-opacity:1;fill-rule:evenodd;stroke:none" />
          <path
             d="M 383.32,181.08 L 383.32,176.99 L 378.33,176.99 L 378.33,181.08 L 383.32,181.08 z"
             id="path6233"
             style="fill:#ffffff;fill-opacity:1;fill-rule:evenodd;stroke:none" />
          <path
             d="M 369.77,181.02 L 369.77,177.04 L 366.52,177.04 L 366.52,181.02 L 369.77,181.02 z"
             id="path6235"
             style="fill:#ffffff;fill-opacity:1;fill-rule:evenodd;stroke:none" />
          <path
             d="M 383.87,181.02 L 386.9,181.02 L 386.9,181.02 L 386.9,177.04 L 383.87,177.04 L 383.87,181.02 z"
             id="path6237"
             style="fill:#ffffff;fill-opacity:1;fill-rule:evenodd;stroke:none" />
          <path
             d="M 373.96,176.49 L 373.96,176.49 L 373.96,174.47 L 373.9,172.4 L 366.46,172.4 L 366.46,176.49 L 373.96,176.49 z"
             id="path6239"
             style="fill:#ffffff;fill-opacity:1;fill-rule:evenodd;stroke:none" />
          <path
             d="M 374.53,176.49 L 381.41,176.49 L 381.41,172.46 L 381.41,172.46 L 377.99,172.46 L 374.53,172.46 L 374.53,176.49 z"
             id="path6241"
             style="fill:#ffffff;fill-opacity:1;fill-rule:evenodd;stroke:none" />
          <path
             d="M 386.9,176.43 L 386.9,172.46 L 386.9,172.46 L 381.92,172.46 L 381.86,176.43 L 386.9,176.43 z"
             id="path6243"
             style="fill:#ffffff;fill-opacity:1;fill-rule:evenodd;stroke:none" />
          <path
             d="M 377.71,171.84 L 377.71,171.84 L 377.71,169.49 L 377.66,167.7 L 377.66,167.7 L 370.38,167.7 L 370.38,171.9 L 377.71,171.84 z"
             id="path6245"
             style="fill:#ffffff;fill-opacity:1;fill-rule:evenodd;stroke:none" />
          <path
             d="M 369.71,171.79 L 369.71,167.7 L 366.46,167.7 L 366.46,171.84 L 366.46,171.84 L 369.71,171.79 L 369.71,171.79 z"
             id="path6247"
             style="fill:#ffffff;fill-opacity:1;fill-rule:evenodd;stroke:none" />
          <path
             d="M 378.28,171.84 L 383.2,171.84 L 383.2,167.7 L 378.33,167.7 L 378.28,171.84 z"
             id="path6249"
             style="fill:#ffffff;fill-opacity:1;fill-rule:evenodd;stroke:none" />
          <path
             d="M 383.82,171.84 L 386.9,171.79 L 386.9,167.76 L 383.82,167.76 L 383.82,171.84 z"
             id="path6251"
             style="fill:#ffffff;fill-opacity:1;fill-rule:evenodd;stroke:none" />
          <path
             d="M 373.85,167.14 L 373.85,162.95 L 373.85,162.95 L 366.52,162.95 L 366.52,167.14 L 373.85,167.14 z"
             id="path6253"
             style="fill:#ffffff;fill-opacity:1;fill-rule:evenodd;stroke:none" />
          <path
             d="M 374.53,167.2 L 381.46,167.14 L 381.46,162.95 L 374.53,162.95 L 374.53,167.2 z"
             id="path6255"
             style="fill:#ffffff;fill-opacity:1;fill-rule:evenodd;stroke:none" />
          <path
             d="M 382.03,167.14 L 386.95,167.14 L 386.95,163 L 382.03,162.95 L 382.03,167.14 z"
             id="path6257"
             style="fill:#ffffff;fill-opacity:1;fill-rule:evenodd;stroke:none" />
          <path
             d="M 383.26,162.33 L 383.26,158.35 L 378.28,158.35 L 378.28,162.33 L 378.28,162.33 L 383.26,162.33 L 383.26,162.33 z"
             id="path6259"
             style="fill:#ffffff;fill-opacity:1;fill-rule:evenodd;stroke:none" />
          <path
             d="M 369.71,162.33 L 369.65,158.35 L 366.52,158.35 L 366.46,162.33 L 369.71,162.33 z"
             id="path6261"
             style="fill:#ffffff;fill-opacity:1;fill-rule:evenodd;stroke:none" />
          <path
             d="M 370.33,162.33 L 377.71,162.33 L 377.71,158.35 L 370.33,158.35 L 370.33,162.33 z"
             id="path6263"
             style="fill:#ffffff;fill-opacity:1;fill-rule:evenodd;stroke:none" />
          <path
             d="M 383.93,162.33 L 386.95,162.27 L 386.95,158.35 L 383.93,158.35 L 383.93,162.33 z"
             id="path6265"
             style="fill:#ffffff;fill-opacity:1;fill-rule:evenodd;stroke:none" />
          <path
             d="M 373.85,157.68 L 373.85,153.65 L 366.52,153.65 L 366.52,157.68 L 366.52,157.68 L 373.85,157.68 L 373.85,157.68 z"
             id="path6267"
             style="fill:#ffffff;fill-opacity:1;fill-rule:evenodd;stroke:none" />
          <path
             d="M 374.42,157.74 L 381.35,157.74 L 381.35,153.65 L 374.42,153.65 L 374.42,157.74 z"
             id="path6269"
             style="fill:#ffffff;fill-opacity:1;fill-rule:evenodd;stroke:none" />
          <path
             d="M 381.98,157.74 L 386.95,157.74 L 386.95,153.65 L 381.98,153.65 L 381.98,157.74 z"
             id="path6271"
             style="fill:#ffffff;fill-opacity:1;fill-rule:evenodd;stroke:none" />
          <path
             d="M 369.65,153.04 L 369.65,149.29 L 366.57,149.29 L 366.57,152.98 L 369.65,153.04 z"
             id="path6273"
             style="fill:#ffffff;fill-opacity:1;fill-rule:evenodd;stroke:none" />
          <path
             d="M 370.27,153.04 L 377.66,153.04 L 377.66,149.34 L 377.66,149.34 L 370.27,149.34 L 370.27,149.34 L 370.27,153.04 L 370.27,153.04 z"
             id="path6275"
             style="fill:#ffffff;fill-opacity:1;fill-rule:evenodd;stroke:none" />
          <path
             d="M 383.32,152.98 L 383.32,149.34 L 378.28,149.34 L 378.28,153.04 L 378.28,153.04 L 383.32,152.98 L 383.32,152.98 z"
             id="path6277"
             style="fill:#ffffff;fill-opacity:1;fill-rule:evenodd;stroke:none" />
          <path
             d="M 383.93,152.98 L 386.9,152.98 L 386.9,149.34 L 383.93,149.34 L 383.93,152.98 z"
             id="path6279"
             style="fill:#ffffff;fill-opacity:1;fill-rule:evenodd;stroke:none" />
          <path
             d="M 373.85,185.77 L 373.85,181.58 L 373.85,181.58 L 366.52,181.58 L 366.52,185.77 L 373.85,185.77 z"
             id="path6281"
             style="fill:#ffffff;fill-opacity:1;fill-rule:evenodd;stroke:none" />
          <path
             d="M 374.53,185.77 L 381.46,185.77 L 381.46,181.52 L 374.53,181.52 L 374.53,185.77 z"
             id="path6283"
             style="fill:#ffffff;fill-opacity:1;fill-rule:evenodd;stroke:none" />
          <path
             d="M 382.03,185.77 L 386.95,185.77 L 386.95,181.58 L 382.03,181.58 L 382.03,185.77 z"
             id="path6285"
             style="fill:#ffffff;fill-opacity:1;fill-rule:evenodd;stroke:none" />
          <path
             d="M 369.65,190.09 L 369.65,186.34 L 366.57,186.4 L 366.57,190.09 L 369.65,190.09 z"
             id="path6287"
             style="fill:#ffffff;fill-opacity:1;fill-rule:evenodd;stroke:none" />
          <path
             d="M 370.27,190.09 L 377.66,190.09 L 377.66,186.45 L 377.66,186.45 L 370.27,186.45 L 370.27,186.45 L 370.27,190.09 L 370.27,190.09 z"
             id="path6289"
             style="fill:#ffffff;fill-opacity:1;fill-rule:evenodd;stroke:none" />
          <path
             d="M 383.32,190.09 L 383.32,186.45 L 378.28,186.45 L 378.28,190.09 L 378.28,190.09 L 383.32,190.09 L 383.32,190.09 z"
             id="path6291"
             style="fill:#ffffff;fill-opacity:1;fill-rule:evenodd;stroke:none" />
          <path
             d="M 383.93,190.15 L 386.9,190.15 L 386.9,186.45 L 383.93,186.45 L 383.93,190.15 z"
             id="path6293"
             style="fill:#ffffff;fill-opacity:1;fill-rule:evenodd;stroke:none" />
          <path
             d="M 405.83,166.19 L 405.83,166.19 L 398.33,156.84 L 389.2,156.84 L 389.2,158.24 L 390.37,158.24 L 390.37,160.54 L 391.43,160.54 L 391.43,162.83 L 392.72,162.83 L 392.72,164.63 L 394.29,164.63 L 394.29,166.19 L 405.83,166.19 z"
             id="path6295"
             style="fill:#f00000;fill-opacity:1;fill-rule:evenodd;stroke:#f00000;stroke-width:0.12;stroke-linecap:round;stroke-linejoin:round;stroke-miterlimit:10;stroke-dasharray:none;stroke-opacity:1" />
          <path
             d="M 411.32,195.63 L 411.32,195.63 L 409.8,193.84 L 408.35,192.27 L 406.78,190.59 L 406.78,190.59 L 406.78,167.36 L 406.78,167.36 L 407.51,166.63 L 407.51,166.63 L 406.83,165.85 L 406.83,165.85 L 405.77,164.57 L 405.77,164.57 L 403.81,162.04 L 403.81,162.04 L 403.19,161.32 L 403.19,161.32 L 399.55,156.79 L 399.55,156.79 L 398.88,156.06 L 398.88,156.06 L 396.81,156.11 L 390.82,156.11 L 390.82,156.11 L 387.74,156.11 L 387.8,145.31 L 387.8,145.31 L 386.06,145.31 L 384.27,145.31 L 384.27,148.61 L 384.27,148.61 L 383.03,148.61 L 383.03,145.31 L 379.9,145.31 L 379.9,148.67 L 378.73,148.67 L 378.73,145.26 L 375.48,145.26 L 375.48,148.67 L 374.08,148.61 L 374.08,145.26 L 370.83,145.26 L 370.83,145.26 L 370.77,145.82 L 370.77,146.99 L 370.77,148.67 L 370.77,148.67 L 369.43,148.67 L 369.43,145.26 L 369.43,145.26 L 366.74,145.26 L 366.74,145.26 L 365.63,145.26 L 365.63,145.26 L 365.63,190.65 L 365.63,190.65 L 364.11,192.38 L 362.82,194 L 361.48,195.68 L 361.48,195.68 L 360.86,194.73 L 360.25,193.79 L 359.68,192.77 L 359.18,191.77 L 358.68,190.76 L 358.23,189.7 L 357.84,188.63 L 357.45,187.51 L 357.11,186.45 L 356.83,185.27 L 356.61,184.15 L 356.39,182.98 L 356.21,181.81 L 356.1,180.63 L 356.05,179.45 L 355.99,178.22 L 355.99,140.11 L 416.68,140.11 L 416.68,178.22 L 416.68,178.22 L 416.68,179.45 L 416.63,180.63 L 416.52,181.81 L 416.36,182.98 L 416.13,184.15 L 415.9,185.27 L 415.62,186.4 L 415.29,187.51 L 414.89,188.58 L 414.5,189.64 L 414.05,190.7 L 413.55,191.71 L 413.05,192.72 L 412.48,193.73 L 411.93,194.68 L 411.32,195.63 L 411.32,195.63 z"
             id="path6297"
             style="fill:#0093dd;fill-opacity:1;fill-rule:nonzero;stroke:#0093dd;stroke-width:0.12;stroke-linecap:round;stroke-linejoin:round;stroke-miterlimit:10;stroke-dasharray:none;stroke-opacity:1" />
        </g>
      </g>
    </g>
  </g>
</svg>
