<?xml version="1.0" encoding="UTF-8"?>
<svg version="1.0" viewBox="0 0 419.25 457.86" xmlns="http://www.w3.org/2000/svg">
<defs>
<clipPath id="a">
<path d="m354.48 610.32h63.71v-71.64h-63.71v71.64z"/>
</clipPath>
<clipPath id="b">
<path d="m354.48 610.32h63.71v-71.64h-63.71v71.64z"/>
</clipPath>
</defs>
<g transform="translate(-156.74 -444.15)">
<g transform="matrix(4.9039 0 0 4.9039 -1752.3 -2858.7)">
<g transform="matrix(1.25 0 0 1.25 -50.894 2.0786)">
<g clip-path="url(#b)">
<path d="m354.59 538.78h63.5v39.69 1.62l-0.17 1.63-0.17 1.56-0.28 1.57-0.39 1.57-0.4 1.51-0.5 1.46-0.56 1.45-0.67 1.4-0.67 1.34-0.78 1.34-0.79 1.29-0.89 1.23-0.96 1.23-1.01 1.13-1.05 1.11-1.07 1.07-1.18 0.95-1.17 0.95-1.29 0.9-1.29 0.84-1.29 0.72-1.4 0.73-1.4 0.62-1.45 0.55-1.46 0.51-1.51 0.45-1.52 0.33-1.56 0.28-1.62 0.22-1.57 0.12-1.68 0.06-1.63-0.06-1.62-0.12-1.57-0.22-1.56-0.28-1.52-0.33-1.51-0.45-1.51-0.51-1.4-0.55-1.4-0.62-1.4-0.73-1.34-0.72-1.29-0.84-1.23-0.9-2.36-1.9-1.05-1.07-1.07-1.11-1.01-1.13-0.95-1.23-0.9-1.23-0.79-1.29-0.78-1.34-0.72-1.34-0.62-1.4-0.56-1.45-0.5-1.46-0.45-1.51-0.34-1.57-0.28-1.57-0.22-1.56-0.12-1.63-0.05-1.62v-39.69z" fill-rule="evenodd"/>
</g>
<g clip-path="url(#a)" fill-rule="evenodd">
<path d="m399.83 605.62v0l0.34-0.57v0l0.28-0.56 0.17-0.55 0.17-0.51 0.05-0.56v0-0.56 0l-0.11-0.61-0.11-0.73v0l-0.11-0.5-0.18-0.51-0.16-0.45-0.28-0.44v0l-0.34-0.45-0.38-0.45-0.46-0.44-0.44-0.34v0l-0.79-0.4-0.78-0.33v0l-0.68-0.17v0l0.45-1.68v0l0.28-0.89v0l0.45-0.17 0.39-0.22v0l0.11-0.18 0.12-0.27 0.17-0.45v0l0.28-0.78v0l1.22-2.46v0l0.57-0.79v0l0.27-0.5v0l0.51-0.62 0.95-1.12v0l0.29-0.28 0.22-0.28v0l-0.22-1.62-0.06-0.84 0.06-0.79v0l0.05-0.22v0l0.79-1.96v0l0.27-0.61 0.28-0.62v0l1.57-2.74v0l0.45-0.89v0l0.17-0.28v0l0.11-0.63v0l0.44 0.12 0.46 0.11v0l0.72 0.06h0.39l0.34-0.06v0l0.68-0.33v0l0.78-0.51v0l0.22-0.22 0.22-0.28 0.17-0.34 0.06-0.28v0-0.55 0l-0.06-0.34v0h-0.17l-0.22 0.11-0.39 0.17v0l-0.68 0.16v0l-0.72 0.06h-0.78v0l-0.29-0.11-0.22-0.16-0.11-0.06v0l-0.28-0.34v0l-0.9-1.12v0l-1.29-1.51v0l-0.5-0.61v0l-0.67-0.68-0.67-0.73v0l-0.62-0.56-0.39-0.33-0.28-0.22v0l-0.45-0.12-0.78-0.22-1.57-0.34v0l-0.67-0.11v0l-2.07-0.28v0l-0.39-0.11v0l-0.68-0.11v0l-0.79-0.23v0l-2.4-0.67-1.4-0.45v0l-0.73-0.22-0.67-0.28v0l-0.17-0.56-0.06-0.56v0l-0.22-1.74-0.11-1.73v0l-0.22-2.07v0l-0.06-0.5-0.05-0.45v0-0.5 0l0.33 0.5 0.39 0.5v0l0.34 0.28 0.39 0.22v0l0.28 0.12v0l0.28 0.06 0.28 0.05v0h0.28l0.28-0.11v0l0.9-0.39 0.5-0.23 0.45-0.27v0l0.39-0.29v-0.16 0l-0.39-0.45-0.45-0.45v0l-0.84-0.61-0.84-0.68-1.79-1.17v0l0.06-0.06v0l0.95-0.27 1.01-0.23 1.06-0.11 0.95-0.12v0h1.23v0h0.96 1l1.01 0.06 1.01 0.11v0l0.89 0.23v0l0.51 0.11v0l0.78 0.22 1.07 0.34v0l0.95 0.44 0.89 0.51v0l0.79 0.45 0.72 0.5v0l0.62 0.51 0.62 0.55 0.72 0.73v0l-0.05 0.61v0l-0.17 0.91v0l-0.11 0.55v0l-0.51 1.34v0l-0.16 0.45-0.23 0.5v0l-0.16 0.29v0l-0.51 0.83v0l-0.5 0.74v0l-0.56 0.67-0.28 0.33-0.28 0.34v0l-0.79 0.61v0l-0.78 0.56v0l-0.11 0.11-0.17 0.12v0l-0.06 0.17v0l0.62-0.11 0.79-0.18 1.34-0.39v0l0.39-0.16v0l0.5-0.34 0.45-0.34v0l0.16-0.11 0.12-0.11v0l0.11-0.23 0.06-0.21v0l0.17-0.06 0.22-0.12v0l0.23-0.22v0l0.33-0.39v0l0.23-0.51 0.22-0.5v0l0.11-0.11 0.17-0.11 0.28-0.39 0.22-0.4 0.12-0.39v0-0.28-0.33 0l0.05-0.06 0.11-0.11 0.17-0.28h0.05v0l0.29 0.56 0.17 0.39v0l0.72 2.01v0l0.17 0.57v0l0.17 1 0.11 1.07v0 0.67 0l-0.06 1.51-0.05 0.73-0.11 0.72v0l-0.23 1.06-0.27 1.13v0l-0.07 0.67v0h0.12v0l0.39-0.45v0l0.51-0.9v0l0.78-1.68v0l0.16-0.39 0.17-0.39v0l0.06-0.33v-0.34 0l0.11-0.45v0l0.23-0.39 0.06-0.17-0.06-0.27v0l0.17-0.4 0.1-0.22v-0.29 0l-0.1-0.66v0l0.05-0.29 0.11-0.27v0-0.4 0l-0.33-0.5v0-0.61-0.62 0-0.17l-0.12-0.17v-0.06 0-0.83-0.45-0.39 0l-0.16-0.62v0l-0.23-0.39-0.16-0.34v0-0.27l-0.06-0.34v0l-0.11-0.28-0.17-0.45-0.34-0.67v0l-0.33-0.39-0.12-0.17-0.11-0.23v0l0.06-0.5v0-0.72 0l-0.06-0.51-0.17-0.45v0l-0.17-0.27v0-0.57 0l-0.21-0.89v0l-0.34-0.56v0l-0.28-0.34-0.34-0.39v0l-0.06-0.5v0l-0.11-0.39-0.16-0.34v0l-0.62-0.73v0l-0.68-0.73v0l-0.38-0.27-0.34-0.34v0l-0.11-0.17-0.12-0.17v0l-0.44-0.39v0l-0.68-0.5-0.72-0.45v0l-2.3-1.23v0l-0.95-0.29v0l-0.9-0.16-0.44-0.05-0.4-0.11v0l-0.39-0.12v0l-0.62-0.17-0.67-0.11v0h-1.01-0.95v0l-0.27-0.11v0l-0.39-0.06h-0.4v0h-0.39v0l-0.68 0.12v0l-1.28 0.27v0l-0.45 0.18-0.45 0.11v0l-0.67 0.11v0l-0.45 0.1-0.45 0.18-0.84 0.45v0l-0.78 0.33v0l-0.5 0.28v0l-0.28 0.06h-0.34v0l-0.22 0.06-0.22 0.11-0.46 0.16v0l-0.44 0.28-0.4 0.28-0.78 0.62v0l-0.33 0.33-0.4 0.34v0h-0.16v0l-0.28-0.67-0.34-0.62v0l-0.56-0.89-0.5-0.9v0l-0.23-0.5-0.17-0.51v0l-0.22 0.17-0.16 0.23-0.29 0.5v0l-0.28 0.44-0.22 0.57v0l-0.17 0.33-0.06 0.34v0 0.22 0.28l0.11 0.51v0l0.46 0.77 0.5 0.68v0l-1.12 0.45v0l-0.28 0.11-0.22 0.06v0l-0.18 0.16-0.16 0.17v0l-0.06 0.45-0.16 0.44v0l-0.23 0.23v0l-0.89 0.56-0.95 0.56v0l-1.18 0.84v0l-1.46 0.9v0l-0.17 0.39-0.11 0.33v0l-0.11 0.28v0 0.28l0.06 0.17v0 0.23l-0.06 0.21-0.11 0.45v0l-0.06 0.18v0.16 0l-0.05 0.23v0.11l0.05 0.11v0l0.23 0.17 0.39 0.16 0.67 0.23v0l0.28 0.39 0.17 0.22 0.16 0.11v0l0.28 0.06 0.29 0.06v0l0.33-0.17 0.34-0.17v0l0.44-0.28 0.4-0.27v0l0.22-0.12h0.34 0.55v0l0.51 0.06v0 0.11 0l-1.01 0.5v0l-0.73 0.51-0.66 0.56v0l-1.18 1.28v0l-0.45 0.56v0l-0.23 0.34-0.22 0.39v0 0.28 0l1.74-0.84v0l0.11 0.06v0l-0.5 0.61v0l-0.4 0.34v0l-0.67 0.79-0.61 0.66v0l-1.24 1.63v0l-0.28 0.39-0.22 0.39v0l-0.06 0.17 0.06 0.17v0l0.67-0.34v0l0.67-0.34 0.61-0.28v0l-1.05 1.91v0l-0.29 0.67-0.33 0.67v0l-0.4-0.22-0.38-0.17-0.79-0.45v0l-2.35-1.45v0l-1.07-0.62-1.06-0.56v0l-0.61-0.45-0.34-0.22-0.34-0.17v0l-0.28-0.05v0l-0.61 0.16-0.45 0.12-0.23 0.11v0l-0.21 0.34v0l-0.12 0.33-0.06 0.28v0l-0.28 1.07v0l-0.78 2.07-0.84 2v0l-0.28 0.73-0.39 0.73v0l-0.84 1.29v0l-0.22 0.34v0l-0.07 0.28v0l-0.1 0.5v0 0.33 0l0.17 0.4 0.22 0.39v0l-0.06 0.56-0.05 0.5v0l0.11 0.51v0l0.16 0.94v0l0.18 1.18 0.16 1.18v0l0.17 0.62 0.06 0.33 0.05 0.23v0l0.06 0.21v0l0.11 0.06v0l0.84-0.83v0l0.89-1.01v0l0.4-0.4 0.45-0.44v0l-0.67-1.51-0.4-0.96-0.22-0.55v0l0.06-0.4v0l0.22-0.22v0l0.11-0.22v0l-0.06-0.51 0.06-0.51v0l0.05-0.32 0.12-0.4 0.33-0.73 0.73-1.4v0l1.51-3.13h0.22v0l0.57 0.39 0.61 0.34v0l2.07 1.62v0l1.18 0.9v0l1.23 0.84 0.68 0.44 0.44 0.22v0.06 0l-1.62 0.4-1.23 0.27-0.73 0.12v0l-0.56 0.44v0l-0.78 0.73v0l-0.06 0.28-0.05 0.23v0l0.11 0.27v0l0.22 1.01v0l0.11 0.4v0l0.17 0.95 0.05 0.95v0l0.06 0.73v0.66 0 3.09 0l-0.06 0.44v0.4 0 0.5 0l0.18 0.17 0.11 0.11v0l0.16 0.05 0.11 0.06v0l0.51 0.67v0l1.18 1.85 0.61 0.89 0.61 0.9 0.51 0.67v0l0.11-0.11v0l0.62-1.73v0l0.39-1.52v0-0.16 0l-0.45-0.4v0l-0.89-0.72-0.62-0.5-0.28-0.23v0l0.06-0.22v0l0.22-0.34 0.17-0.39v0l-0.39-0.45-0.29-0.45v0l-0.16-0.56v0l-0.06-0.84v-0.9 0-2.96 0l0.06-0.45v0l0.16-0.16v0l0.62-0.17v0l1.35-0.23v0l2.8-0.33v0l0.95-0.18v0l1.62-0.21v0l0.62-0.06 0.56-0.05v0l3.58 0.83 2.69 0.56 1.74 0.34v0l-0.9 1.57v0l-0.23 0.27-0.16 0.34v0l-0.23 0.95v0l-0.16 1.12-0.17 1.07v0l-0.34 2.29v0l-0.17 1.06v0l-0.11 0.4-0.11 0.39v0l-0.05 0.28v0l-0.23 0.33v0l-1.34 1.68v0l-0.45 0.5v0l-0.28 0.29v0l-0.67 0.61v0l-0.34 0.23v0l-0.44 0.33-0.45 0.39v0l-0.18 0.22-0.16 0.23v0 0.45 0l-0.23 0.45-0.67 1.17v0l-1.06 1.85v0l-0.4 0.67-0.39 0.73v0l-0.05 0.11v0l1.79-0.17v0l1.07-0.11v0h0.44v0l0.17-0.28 0.05-0.34 0.23-0.67v0l1.06-2.69v0h0.4 0.16l0.28-0.11v0l0.73-0.89 0.78-0.9v0l0.45-0.55v0l0.28-0.34v0l1.13-1.07v0l0.61-0.61v0l0.56-0.39 0.33-0.23 0.23-0.22 0.17-0.23v0l0.11-0.5v0l0.28-0.78 0.34-0.73v0l0.33-0.62v0l0.67-0.83v0l0.23-0.23 0.22-0.28v0l0.56-0.56v0l0.22-0.22v0l1.57-1.41v0l0.5-0.38 0.57-0.39v0 0.11 0l-0.34 0.72v0l-0.23 0.62-0.1 0.62v0 0.61 0 0.34l0.05 0.33v0l0.16 0.62 0.18 0.33 0.16 0.28v0l0.45 0.39 0.45 0.28v0l0.73 0.29v0l0.22 0.05 0.28 0.06 0.5-0.06v0l0.23-0.05 0.23-0.12 0.44-0.28v0l0.62-0.62v0l0.28-0.5 0.28-0.55v0l0.39 1.28 0.17 0.79 0.05 0.28v0.22 0l-0.33 0.78-0.4 0.84v0l-0.72 1.63-0.73 1.56v0l-0.28 0.51-0.28 0.55v0l-0.22 0.17-0.17 0.23-0.45 0.39v0l-0.11 0.95v0l-1.34 2.3v0l-0.23 0.39v0l-0.51 0.73-0.39 0.45v0l-0.05-1.02v0l-0.06-0.39-0.11-0.39v0l-0.06-0.33v0l-0.16-0.34-0.17-0.33v0l-0.28-0.57-0.34-0.56v0l-0.27-0.39-0.34-0.39v0l-0.45-0.34-0.5-0.39-0.51-0.28-0.5-0.22v0l-0.23-0.11v0l-0.89-0.22v0l-0.84-0.12h-0.84v0l-0.67 0.12-0.62 0.22v0l-0.51 0.11v0l-0.78 0.44-0.39 0.29-0.4 0.28-0.32 0.33-0.29 0.34-0.28 0.39-0.27 0.39v0l-0.12 0.28-0.17 0.4-0.22 0.83-0.22 1.07v0 0.39l-0.06 0.45v0l-0.62-0.23-0.61-0.22-0.62-0.11-0.67-0.06v0h-0.5v0l-0.91 0.17-0.38 0.06-0.46 0.16-0.38 0.17-0.4 0.17-0.78 0.5v0l-0.22 0.17-0.17 0.17v0l-0.62 0.73v0l-0.45 0.61-0.22 0.34-0.17 0.39v0l-0.22 0.67-0.12 0.67v0l-0.05 0.73v0.5l0.05 0.51v0l0.06 0.61 0.17 0.56 0.11 0.5 0.17 0.4v0l0.45 0.67v0l-0.96-0.45-0.89-0.51-0.9-0.55-0.84-0.56-0.84-0.62-0.84-0.66-0.78-0.63-0.79-0.67-1.45-1.45-0.73-0.79-0.66-0.78-0.68-0.79-0.61-0.83-0.57-0.84-0.61-0.9-0.5-0.89-0.51-0.9-0.5-0.95-0.45-0.95-0.39-0.95-0.4-0.95-0.34-1.01-0.32-1.01-0.29-1.07-0.23-1-0.21-1.07-0.17-1.05-0.17-1.13-0.06-1.06-0.05-1.12-0.06-1.12v-38.11h60.69v38.11 0 1.12l-0.05 1.12-0.11 1.12-0.11 1.07-0.17 1.05-0.22 1.07-0.29 1.06-0.28 1.01-0.27 1.01-0.4 1.01-0.33 1-0.45 0.96-0.9 1.9-0.55 0.89-0.51 0.9-0.56 0.84-0.62 0.9-0.61 0.83-0.67 0.79-0.67 0.78-0.73 0.78-0.73 0.73-0.73 0.67-0.78 0.73-0.84 0.62-0.79 0.67-0.84 0.56-0.89 0.61-0.9 0.5-0.89 0.57-0.96 0.45v0z" fill="#f00000" stroke="#f00000" stroke-linecap="round" stroke-linejoin="round" stroke-miterlimit="10" stroke-width=".12"/>
<path d="m405.43 550.43v0l-0.28-0.4-0.55-0.66v0l-0.46-0.39-0.44-0.4v0l-0.84-0.55v0l-0.78-0.51v0l-0.79-0.39-0.84-0.34-0.9-0.28-0.9-0.23v0l-0.72-0.1v0l-0.84-0.17v0l-0.78-0.05h-0.79v0l-1.39 0.11-1.36 0.16v0l-0.05 0.17v0l0.17 0.06h0.17v0l0.34 0.05v0l0.33-0.05 0.4-0.06v0h1.23v0l0.72-0.06v0l0.5 0.12v0l0.28 0.16v0l0.23 0.17v0h0.45l0.45-0.06v0l0.66 0.18 0.68 0.1v0l0.84 0.34 0.39 0.17 0.17 0.12 0.06 0.1v0l0.44 0.11 0.4 0.12v0l1 0.44 0.95 0.57v0l0.34 0.33 0.34 0.4v0l0.61 0.38v0l0.34 0.17 0.22 0.17v0z" fill="#f00000" stroke="#f00000" stroke-linecap="round" stroke-linejoin="round" stroke-miterlimit="10" stroke-width=".12"/>
<path d="m403.14 563.53 0.44-0.17 0.45-0.28 0.23-0.17 0.16-0.22 0.23-0.17 0.17-0.39 0.28-0.06 0.28-0.28 0.28-0.33 0.33-0.62-0.05-0.22 0.11-0.06 0.11-0.05 0.51-0.62 0.16-0.34 0.11-0.39v-0.27-0.12l-0.05-0.17 0.22-0.17 0.23-0.33v-0.17l0.05-0.17 0.06-0.11v-0.17l-0.4-0.61h-0.11l-0.16 0.84-0.23 0.78-0.34 0.73-0.16 0.39-0.45 0.84-0.28 0.45-0.22 0.44-0.28 0.34-0.28 0.33-0.45 0.45-0.45 0.57-0.22 0.27-0.28 0.23z" fill="#fff"/>
<path d="m383.65 551.05h0.4l-0.12-0.23-0.22-0.28-0.23-0.22-0.56-0.23-0.33-0.06-0.45 0.06-0.34 0.06-0.39 0.11-0.33 0.22-0.34 0.23-0.23 0.34-0.05 0.34h0.22l0.17-0.06 0.29-0.12 0.27 0.34 0.28 0.23 0.29 0.16 0.27 0.06 0.28-0.06 0.29-0.05 0.27-0.11 0.23-0.18 0.22-0.27 0.11-0.28zm9.75 45.5 1.56-2.69 0.34-0.56 0.17-0.16 0.05-0.45v-0.23l0.06-0.22 0.34-0.28 0.44-0.68 0.22-0.38 0.4-0.67 0.33-0.73 0.68-1.46 1.23-2.8-0.11-0.39-0.12-0.39-0.22-0.84-0.28-0.84-0.95-3.75-0.68-2.52-0.22-1.06-0.06-0.45v-0.4l-0.05-0.32 0.05-0.68 0.17-1.39-0.05-0.06-0.17 0.17-0.17 0.44-0.16 0.45-0.23 0.67-0.11 0.4v0.32l0.11 0.45 0.05 0.4 0.06 0.45-0.78 0.06h-0.78l-3.42-0.23-1.12-0.11-4.14-0.62-0.62-0.06-1.96-0.39-1.01-0.16-0.95-0.23-0.39-0.11-0.4-0.17 0.9-0.39 0.45-0.23 0.39-0.28 0.39-0.33 0.34-0.33 0.16-0.45 0.06-0.28v-0.23l-0.56 0.45-0.66 0.45-0.74 0.39-0.67 0.22-0.72 0.28-0.28 0.06-3.36 0.5-2.86 0.39-3.02 0.45-0.23 0.17-0.45 0.33-0.61 0.57-0.06 0.22v3.42l0.06 1.06 0.05 0.56 0.06 0.5 0.05 0.28 0.34 0.34 0.17 0.22 0.11 0.17-0.11 0.28-0.17 0.28 0.17 0.28 0.22 0.33 0.84 0.79 0.28 0.22 0.73 0.56v0.4l-0.11 0.66-0.22 0.62h-0.06l-1.18-1.73-0.78-1.12-0.45-0.56-0.73-0.45v-0.79-0.72l-0.05-4.14-0.06-0.57-0.06-0.61-0.16-1.18-0.17-0.55-0.11-0.56 0.84-0.96 0.11-0.11 0.39-0.05 0.4-0.06 1.06-0.28 1.79-0.5 2.63-0.79 0.67-0.22 0.57-0.28 0.11-0.05 0.05-0.12v-0.22l-0.05-0.17-0.23-0.06h-0.34l-0.38 0.17-0.96 0.4 0.06-0.12 0.78-0.9 0.5-0.55 0.34-0.29 0.44-0.1v-0.17h-0.16l-0.11-0.06h-0.11-0.12l-0.5 0.12-0.34 0.05-0.28 0.16-0.22 0.17-0.16 0.23-0.73 0.89 0.05-0.5 0.06-0.5 0.1-0.45 0.29-0.9 0.23-0.67 0.11-0.22 0.27-0.62 0.28-0.56 0.23-0.39 0.22-0.33-0.33 0.05-0.28 0.11-0.96 0.78-0.44 0.4-0.45 0.39v-0.16l0.73-1.47 0.5-0.94 0.62-1.01 0.89-1.35h-0.11l-0.78 0.29-0.73 0.39-0.17-0.06 0.72-0.9 0.52-0.56 1.62-1.62 0.78-0.73 0.84-0.72-0.06-0.06h-0.73l-0.83 0.22-0.46 0.11-0.32 0.12 0.05-0.17 0.17-0.17 0.39-0.28 0.34-0.33 0.39-0.28 0.45-0.34 0.55-0.23 0.51-0.27 0.56-0.17 0.22-0.06 0.57 0.06 0.61 0.11h0.44 0.45 0.45 0.23l0.22-0.06 0.22-0.11 0.22-0.16 0.46-0.34 0.38-0.45 0.34-0.39-0.05-0.17v-0.17l-0.4 0.34-0.22 0.17-0.17 0.11-0.5 0.22-0.39 0.23-0.67 0.11h-0.51l-0.56-0.06-1.18-0.16-2.18-0.57-1.12-0.33h-0.33l-0.62 0.39-0.34 0.23-0.28 0.05h-0.38l-0.29-0.05-0.28-0.12-0.22-0.11 0.06-0.39 0.16-0.4h0.79l0.22-0.32 0.17-0.23 0.05-0.17-0.22-0.05h-0.33-0.4l-0.17-0.06 0.06-0.34 0.06-0.28 0.72-0.44 1.57-1.07 2.41-1.51 0.23-0.56 0.11-0.5 1-0.45 0.51-0.16 0.89-0.23 0.84-0.23 0.62-0.17 0.16-0.05 0.23-0.11 0.11-0.45 0.28-0.39 0.51-0.39 0.56-0.39 0.61-0.4 0.79-0.28 0.5-0.05 0.28 0.05 0.22 0.11 0.29 0.17 0.22 0.17 0.33 0.45v-0.17l-0.22-0.5-0.33-0.5v-0.12l0.72-0.39 0.73-0.28 0.51-0.23 0.5-0.16 0.39-0.06 0.33 0.06 0.29 0.06 0.62 0.5 0.27 0.39 0.11 0.23h0.06v-0.34l-0.12-0.34-0.16-0.44-0.11-0.18-0.23-0.16 0.06-0.11 1.07-0.23 0.61-0.11 0.44-0.05 0.63 0.05 0.61 0.16 0.45 0.23 0.22 0.56 0.28 0.51 0.06-0.06v-0.28l-0.06-0.51-0.11-0.5h0.73l0.73 0.05 0.33 0.12 0.4 0.11 0.27 0.11 0.28 0.23 0.17 0.16 0.11 0.23 0.12 0.34 0.16 0.33 0.06-0.33 0.06-0.4 0.06-0.39 0.89 0.17 0.5 0.11 0.34 0.11 0.39 0.28 0.11 0.12 0.11 0.11 0.17 0.56 0.11 0.55h0.11l0.06-0.05 0.23-0.78 0.22 0.11 0.33 0.11 1.07 0.61 0.56 0.4 0.39 0.33 0.11 0.29v0.55 0.51h0.11l0.4-0.62 0.11 0.06 0.06 0.11 0.5 0.45 0.45 0.51 0.28 0.27 0.22 0.45 0.11 0.17v0.16 0.23 0.39l-0.06 0.11 0.06 0.11 0.23 0.06 0.17 0.06 0.27 0.33 0.29 0.34 0.16 0.56 0.12 0.33v0.39l-0.06 0.18-0.06 0.16 0.34 0.28 0.11 0.45 0.05 0.22v0.17l-0.22-0.28-0.28-0.28-0.22-0.17-0.12-0.11-0.27-0.22-0.23-0.17-0.16-0.5-0.29-0.57-0.33-0.55-0.4-0.56-0.16-0.34-0.22-0.28-0.73-0.73-0.62-0.61-0.72-0.51-0.79-0.5-0.67-0.34-0.51-0.22-1-0.39-1.12-0.34-1.13-0.22-1.12-0.17h-1.17l-0.45-0.06-0.5 0.06-1.06 0.11-1.07 0.17-1.01 0.28-0.95 0.28-0.73 0.23-0.73 0.27-0.27 0.17-0.34 0.22h-0.67-0.67l-0.73 0.12-0.28 0.06-0.34 0.1-0.45 0.29-0.22 0.11-0.23 0.17-0.33 0.33v0.06l0.11 0.11 0.22 0.33 0.34-0.27 0.11-0.11 0.23-0.18 0.39-0.21 0.45-0.18 0.73-0.11h0.27 0.51l0.22 0.06 0.28 0.11 0.51 0.28 0.22 0.23 0.17 0.22 0.11 0.22 0.17 0.17h0.11l0.17-0.06v-0.17l-0.11-0.5-0.23-0.45v-0.05-0.11l0.68-0.17 0.78-0.17 0.39-0.05 0.4-0.06 0.32 0.06 0.34 0.05 0.18 0.11 0.16 0.17 0.22 0.28 0.17 0.45 0.06 0.22 0.05 0.17 0.23-0.11 0.06-0.17v-0.34l-0.06-0.33-0.05-0.11-0.06-0.12 0.22-0.17 0.5-0.05h0.34 0.39l0.4 0.05 0.33 0.06 0.17 0.11 0.28 0.34 0.22 0.33 0.12 0.4 0.11 0.33 0.11-0.17 0.11-0.22 0.17-0.73 0.39-0.05 1.18 0.23 0.38 0.16 0.52 0.23 0.38 0.27 0.17 0.17 0.11 0.17 0.12 0.56v0.56h0.16l0.17-0.23 0.17-0.5v-0.17l0.06-0.22h0.16l1.12 0.56 0.56 0.39 0.23 0.23 0.22 0.16 0.12 0.23v1.18h0.11l0.22-0.4 0.33-0.45 0.18 0.06 0.78 0.45 0.72 0.55 0.23 0.18 0.11 0.22 0.06 0.16-0.06 0.57v0.28 0.22h0.06l0.61-0.68h0.12l0.5 0.34 0.28 0.34 0.28 0.28 0.22 0.39 0.17 0.33 0.05 0.4 0.07 0.39-0.12 0.33v0.18l0.05 0.05h0.07l0.27-0.17 0.17-0.17 0.06 0.11 0.11 0.12 0.17 0.33 0.17 0.45 0.16 0.51 0.11 0.27-0.11 0.45-0.39 0.23 0.06 0.16 0.33-0.05h0.17l0.17 0.05 0.17 0.29 0.06 0.16 0.05 0.11v1.01l-0.05 0.28-0.34 0.28 0.05 0.11 0.5 0.23 0.06 0.33-0.06 0.4-0.05 0.39-0.11 0.11 0.27 0.44 0.06 0.29v0.34 0.33l-0.06 0.11-0.11 0.11 0.06 0.28 0.11 0.22v0.29l-0.06 0.28-0.16 0.22-0.05 0.28v0.27 0.06l0.05 0.28-0.11 0.39-0.17 0.45v0.06 0.39l-0.22 0.39-0.23 0.39 0.17-1.11 0.06-0.57 0.05-0.55v-0.73l0.06-0.73-0.11-0.78-0.06-0.73-0.17-1.4-0.73-2.07-0.33-0.79-0.39-0.77-0.23-0.4-0.56-0.78-0.56-0.73-0.9-0.95-0.61-0.57-0.68-0.44-1.11-0.84-0.78-0.45-0.79-0.39-0.5-0.22-0.73-0.34-0.79-0.28-1.17-0.34-1.17-0.27-0.79-0.06-0.78-0.06-1.18-0.11-1.34-0.05h-1.4l-0.78 0.05-0.96 0.11-0.95 0.12-0.39 0.11-0.45 0.11-1.68 0.5-0.34-0.27h-0.22l0.06 0.55 0.11 0.23 2.35 1.62 1.96 1.4 0.51 0.34 0.05 0.11 0.06 0.11-0.45 0.17-0.5 0.16-0.57 0.12h-0.22-0.23l-0.5-0.23-0.39-0.22-0.22-0.22-0.34-0.29-0.67-0.83-1.12-1.52-0.12-0.05 0.12 1.51v0.39l0.11 1.23 0.39 4.42 0.34 3.81 0.39 0.17 1.17 0.34 6.11 1.73 2.91 0.45 1.01 0.17 1.01 0.16 0.61 0.23 0.56 0.33 0.62 0.5 0.28 0.29 0.22 0.28 0.34 0.34 0.56 0.61 0.95 1.06 0.28 0.4h0.11l1.18 1.5 0.22 0.34 0.28 0.34 0.39 0.16 0.45 0.23h0.45 0.5l0.51-0.06 1-0.11v0.11l-0.05 0.06-0.11 0.22-0.29 0.34-0.28 0.11-0.27 0.11-0.45 0.17-0.28 0.05h-0.45-0.45l-0.28-0.05-0.28-0.17-0.33-0.17-0.23-0.22-0.28-0.34-0.17-0.5h-0.05l-0.06 0.06-0.05 0.16v0.96l-0.18 0.95-0.21 0.45-0.51 0.84-0.5 0.89-1.62 3.36-0.62 1.4-0.17 0.56-0.12 0.55-0.05 0.57 0.05 0.56 0.06 0.39 0.06 0.45v0.39l-0.06 0.45-1.06 1.34-0.45 0.55-0.67 0.9-0.84 1.51-0.73 1.46-0.33 0.61-0.23 0.57-0.39 0.27-0.39 0.18-0.28 0.66-0.34 0.73-0.22 0.79-0.28 0.67-0.12 0.45-1.5 0.22z" fill="#fff"/>
<path d="m377.89 595.26 0.84-0.11 0.44-0.12 0.34-0.11 0.61-2.07 0.23-0.72 0.28-0.67 0.17-0.29 0.16-0.21h0.28 0.22l0.52-0.18 0.21-0.22 0.17-0.23 0.84-1.11 1.4-1.46 1.35-1.28 0.39-0.29 0.17-0.16 0.17-0.18 0.22-0.55 0.22-0.67 0.28-0.62 0.34-0.55 0.17-0.29 0.16-0.28 1.46-1.68 0.39-0.39 0.45-0.34 0.9-0.83 0.95-0.73 1.01-0.78 0.06-0.17-2.14-0.06v-0.56l1.62-0.67-0.38-0.06-0.73-0.05-1.12-0.06-1.46-0.17-1.45-0.17-0.28 0.11-0.4 0.51-0.33 0.56-0.34 0.5-0.33 0.45-0.11 0.45-0.11 0.67-0.29 2.13-0.33 2.23-0.06 0.68-0.28 1.45-0.22 0.34-0.39 0.45-0.62 0.83-1.12 1.24-0.62 0.62-1.5 1.23v0.44l-1.13 1.91-0.73 1.29-0.55 1z" fill="#fff"/>
<path d="m395.36 583.84 0.33-0.06 0.39-0.27 0.28-0.34 0.17-0.11 0.17-0.17 0.11-0.39 0.23-0.56 0.16-0.56v-0.45l-0.05-0.67-0.11-0.67-0.4-1.45-0.67-0.06-0.73-0.05-0.39 0.32-0.56 0.68-0.22 0.45-0.23 0.44-0.17 0.51-0.11 0.45-0.16 0.9v0.5 0.45l0.05 0.28 0.11 0.27 0.28 0.5h0.29v-0.32-0.34l0.11-0.34 0.05-0.23 0.28-0.39 0.17-0.06v0.18l-0.06 0.16v0.29 0.33l0.06 0.22 0.16 0.23 0.23 0.16 0.23 0.17z" fill="#fff"/>
<path d="m360.75 578.58 1.34-1.4-0.33-0.84-0.28-0.83-0.34-0.85-0.28-0.83-0.06-0.23-0.05-0.22h0.45l0.11-0.17-0.06-0.68-0.05-0.5 0.16-0.44 0.23-0.45 1.34-2.74 1.4-2.75 0.51-0.11 0.5-0.06 1.18 0.73 1.06 0.79 3.03 2.35 0.38 0.39 0.46 0.39 0.27 0.17 0.45 0.23 0.45 0.16 0.34 0.06 0.22-1.68 0.34-1.68h-0.12l-1 0.73-0.51 0.39-0.22 0.22 0.11-0.56 0.17-0.67v-0.17l-1.12-0.61-1.18-0.67-1.34-0.96-2.36-1.34-0.66-0.5-0.34-0.22h-0.16-0.23l-0.45 0.11-0.39 0.16-0.5 1.85-0.29 0.9-0.33 0.95-0.56 1.28-0.4 0.95-0.78 1.46-0.5 0.79-0.45 0.78-0.17 0.45 0.17 0.39 0.28 0.33v0.85 0.83l0.11 0.73 0.17 0.78 0.28 1.96z" fill="#fff"/>
<path d="m392.66 577.52 0.74-0.06h0.73l1.45-0.05 0.16-0.06 0.18-0.05 0.16-0.06 0.17-0.06-0.11-0.11-0.17-0.06h-0.56l-0.56-0.05h-0.45-0.39l-0.34 0.11-1.06 0.34 0.05 0.11z" fill="#fff"/>
<path d="m375.08 555.8 0.12 0.06h0.06l0.11 0.05h0.05l0.5-0.33 0.18-0.23 0.11-0.16 0.11-0.17-0.11-0.06-0.57 0.34-0.56 0.28v0.22z" fill="#fff"/>
<path d="m382.14 551.27 0.22 0.06 0.17-0.06 0.17-0.11 0.22-0.17-0.05-0.23-0.28-0.1h-0.23l-0.56 0.1v0.17l0.06 0.17 0.17 0.11 0.11 0.06z" fill="#fff"/>
<path d="m381.58 546.73 0.34-0.05 0.16-0.06 0.11-0.11v-0.23l-0.84-1.56-0.84-1.51-0.05-0.05-0.28 0.67-0.22 0.45v0.38l0.39 0.9 0.39 0.51 0.4 0.44 0.44 0.22z" fill="#fff"/>
<path d="m398.33 598.78v0l0.38 0.45 0.28 0.45v0l0.39 0.67v0l0.34 0.95v0 0.28l0.06 0.34v0l0.05 0.39v0l-0.05 0.62-0.06 0.56v0l-0.11 0.34v0l-0.23 0.5v0l-0.33 0.72-0.45 0.68v0l-0.5 0.73v0l-1.35 0.5-1.39 0.5-1.46 0.39-1.45 0.34-1.52 0.28-1.51 0.17-1.51 0.11-1.57 0.05v0l-1.57-0.05-1.57-0.11-1.56-0.23-1.52-0.27-1.51-0.34-1.46-0.45-1.45-0.5-1.4-0.57v0l-0.56-0.83-0.39-0.73v0l-0.39-0.84v0l-0.11-0.33-0.12-0.34v0l-0.11-0.62v0-0.38 0-0.51 0l0.11-0.51 0.34-1 0.22-0.45v0l0.23-0.39 0.38-0.45 0.46-0.5 0.56-0.39v0l0.56-0.28 0.39-0.18v0l0.61-0.16v0l0.51-0.06 0.61-0.05v0h0.51l0.5 0.05v0l0.62 0.17 0.62 0.23 0.56 0.28 0.5 0.33v0l0.73 0.5v0l-0.12-0.44-0.11-0.39v0l-0.06-1.07-0.05-1.06v0l0.11-0.45 0.11-0.56 0.23-0.5 0.23-0.45v0l0.32-0.51 0.34-0.5v0l0.34-0.28 0.34-0.22v0l0.89-0.56v0l0.5-0.17v0l0.4-0.11v0l0.73-0.11h0.78l0.78 0.16 0.4 0.06 0.33 0.17v0l0.34 0.16v0l0.33 0.17 0.28 0.17v0l0.45 0.34 0.28 0.28 0.28 0.33v0l0.28 0.39 0.22 0.39 0.29 0.68v0l0.22 0.89v0 0.51 0l0.05 0.67-0.05 0.67-0.11 1.4v0l0.39-0.28 0.34-0.22v0l0.78-0.39v0l0.61-0.28v0l0.5-0.23 0.63-0.11h0.55 0.57v0l0.33 0.05 0.45 0.11 0.78 0.34v0l0.67 0.39v0l0.4 0.23 0.34 0.27v0z" fill="#094" stroke="#094" stroke-linecap="round" stroke-linejoin="round" stroke-miterlimit="10" stroke-width=".12"/>
</g>
</g>
</g>
</g>
</svg>
