<?xml version="1.0" encoding="UTF-8" standalone="no"?>
<!-- Created with Inkscape (http://www.inkscape.org/) -->
<svg
   xmlns:svg="http://www.w3.org/2000/svg"
   xmlns="http://www.w3.org/2000/svg"
   version="1.0"
   width="352.76999"
   height="394.26999"
   id="svg2">
  <defs
     id="defs4">
    <clipPath
       id="clipPath3448">
      <path
         d="M 418.2,712.68 L 421.56,712.68 L 421.56,700.33 L 418.2,700.33 L 418.2,712.68 z"
         id="path3450" />
    </clipPath>
    <clipPath
       id="clipPath3382">
      <path
         d="M 354.48,710.28 L 418.19,710.28 L 418.19,638.65 L 354.48,638.65 L 354.48,710.28 z"
         id="path3384" />
    </clipPath>
    <clipPath
       id="clipPath3370">
      <path
         d="M 354.48,710.28 L 418.19,710.28 L 418.19,638.65 L 354.48,638.65 L 354.48,710.28 z"
         id="path3372" />
    </clipPath>
    <clipPath
       id="clipPath3290">
      <path
         d="M 418.2,612.72 L 421.56,612.72 L 421.56,600.36 L 418.2,600.36 L 418.2,612.72 z"
         id="path3292" />
    </clipPath>
    <clipPath
       id="clipPath3250">
      <path
         d="M 354.48,610.32 L 418.19,610.32 L 418.19,538.68 L 354.48,538.68 L 354.48,610.32 z"
         id="path3252" />
    </clipPath>
    <clipPath
       id="clipPath3238">
      <path
         d="M 354.48,610.32 L 418.19,610.32 L 418.19,538.68 L 354.48,538.68 L 354.48,610.32 z"
         id="path3240" />
    </clipPath>
    <clipPath
       id="clipPath3160">
      <path
         d="M 418.2,512.64 L 421.56,512.64 L 421.56,500.28 L 418.2,500.28 L 418.2,512.64 z"
         id="path3162" />
    </clipPath>
    <clipPath
       id="clipPath3128">
      <path
         d="M 354.48,510.24 L 418.19,510.24 L 418.19,438.61 L 354.48,438.61 L 354.48,510.24 z"
         id="path3130" />
    </clipPath>
    <clipPath
       id="clipPath3116">
      <path
         d="M 354.48,510.24 L 418.19,510.24 L 418.19,438.61 L 354.48,438.61 L 354.48,510.24 z"
         id="path3118" />
    </clipPath>
    <clipPath
       id="clipPath3038">
      <path
         d="M 418.2,412.68 L 421.56,412.68 L 421.56,400.32 L 418.2,400.32 L 418.2,412.68 z"
         id="path3040" />
    </clipPath>
    <clipPath
       id="clipPath3000">
      <path
         d="M 354.48,410.28 L 418.19,410.28 L 418.19,338.65 L 354.48,338.65 L 354.48,410.28 z"
         id="path3002" />
    </clipPath>
    <clipPath
       id="clipPath2988">
      <path
         d="M 354.48,410.28 L 418.19,410.28 L 418.19,338.65 L 354.48,338.65 L 354.48,410.28 z"
         id="path2990" />
    </clipPath>
    <clipPath
       id="clipPath2914">
      <path
         d="M 418.2,312.72 L 421.56,312.72 L 421.56,300.36 L 418.2,300.36 L 418.2,312.72 z"
         id="path2916" />
    </clipPath>
    <clipPath
       id="clipPath2898">
      <path
         d="M 354.48,310.32 L 418.19,310.32 L 418.19,238.69 L 354.48,238.69 L 354.48,310.32 z"
         id="path2900" />
    </clipPath>
    <clipPath
       id="clipPath2886">
      <path
         d="M 354.48,310.32 L 418.19,310.32 L 418.19,238.69 L 354.48,238.69 L 354.48,310.32 z"
         id="path2888" />
    </clipPath>
    <clipPath
       id="clipPath2816">
      <path
         d="M 418.2,212.64 L 421.56,212.64 L 421.56,200.29 L 418.2,200.29 L 418.2,212.64 z"
         id="path2818" />
    </clipPath>
    <clipPath
       id="clipPath2794">
      <path
         d="M 354.48,210.24 L 418.19,210.24 L 418.19,138.6 L 354.48,138.6 L 354.48,210.24 z"
         id="path2796" />
    </clipPath>
    <clipPath
       id="clipPath2782">
      <path
         d="M 354.48,210.24 L 418.19,210.24 L 418.19,138.6 L 354.48,138.6 L 354.48,210.24 z"
         id="path2784" />
    </clipPath>
    <clipPath
       id="clipPath2710">
      <path
         d="M 422.04,110.76 L 422.04,135.12 L 549.12,135.12 L 549.12,110.76 L 545.88,110.76 L 545.88,125.88 L 425.28,125.88 L 425.28,110.76 L 422.04,110.76 z"
         id="path2712" />
    </clipPath>
    <clipPath
       id="clipPath2688">
      <path
         d="M 351.12,110.76 L 351.12,135.12 L 354.48,135.12 L 354.48,110.76 L 351.12,110.76 z M 418.32,110.76 L 418.32,135.12 L 421.56,135.12 L 421.56,110.76 L 418.32,110.76 z"
         id="path2690" />
    </clipPath>
    <clipPath
       id="clipPath2666">
      <path
         d="M 288.84,110.76 L 288.84,135.12 L 350.64,135.12 L 350.64,110.76 L 347.4,110.76 L 347.4,132.84 L 292.08,132.84 L 292.08,110.76 L 288.84,110.76 z"
         id="path2668" />
    </clipPath>
    <clipPath
       id="clipPath2650">
      <path
         d="M 147.12,110.76 L 147.12,135.12 L 288.36,135.12 L 288.36,110.76 L 285.12,110.76 L 285.12,125.88 L 150.36,125.88 L 150.36,110.76 L 147.12,110.76 z"
         id="path2652" />
    </clipPath>
    <clipPath
       id="clipPath2634">
      <path
         d="M 67.68,110.76 L 67.68,135.12 L 146.64,135.12 L 146.64,110.76 L 143.28,110.76 L 143.28,125.88 L 70.92,125.88 L 70.92,110.76 L 67.68,110.76 z"
         id="path2636" />
    </clipPath>
    <clipPath
       id="clipPath2502">
      <path
         d="M 70.92,803.76 L 574.44,803.76 L 574.44,774.97 L 70.92,774.97 L 70.92,803.76 z"
         id="path2504" />
    </clipPath>
    <clipPath
       id="clipPath2480">
      <path
         d="M 70.92,803.76 L 574.44,803.76 L 574.44,801.97 L 70.92,801.97 L 70.92,803.76 z"
         id="path2482" />
    </clipPath>
    <clipPath
       id="clipPath2470">
      <path
         d="M 70.92,776.76 L 574.44,776.76 L 574.44,774.97 L 70.92,774.97 L 70.92,776.76 z"
         id="path2472" />
    </clipPath>
  </defs>
  <g
     transform="translate(-152.45541,-146.29615)"
     id="layer1">
    <g
       transform="matrix(4.1923831,0,0,4.1923831,-1482.4001,-1103.7948)"
       id="g5507">
      <g
         transform="matrix(1.25,0,0,1.25,-50.89375,2.07865)"
         id="g2882">
        <g
           clip-path="url(#clipPath2886)"
           id="g2884">
          <g
             id="g2890">
            <path
               d="M 354.59,238.79 L 418.09,238.79 L 418.09,278.47 L 418.09,278.47 L 418.09,280.1 L 417.92,281.71 L 417.75,283.28 L 417.47,284.85 L 417.08,286.42 L 416.68,287.93 L 416.18,289.39 L 415.62,290.84 L 414.95,292.24 L 414.28,293.58 L 413.5,294.92 L 412.71,296.21 L 411.82,297.44 L 410.86,298.67 L 409.85,299.8 L 408.8,300.92 L 407.73,301.98 L 406.55,302.93 L 405.38,303.88 L 404.09,304.78 L 402.8,305.62 L 401.51,306.35 L 400.11,307.07 L 398.71,307.69 L 397.26,308.24 L 395.8,308.75 L 394.29,309.2 L 392.77,309.53 L 391.21,309.81 L 389.59,310.04 L 388.02,310.15 L 386.34,310.21 L 386.34,310.21 L 384.71,310.15 L 383.09,310.04 L 381.52,309.81 L 379.96,309.53 L 378.44,309.2 L 376.93,308.75 L 375.42,308.24 L 374.02,307.69 L 372.62,307.07 L 371.22,306.35 L 369.88,305.62 L 368.59,304.78 L 367.36,303.88 L 366.18,302.93 L 365,301.98 L 363.95,300.92 L 362.88,299.8 L 361.87,298.67 L 360.92,297.44 L 360.02,296.21 L 359.23,294.92 L 358.45,293.58 L 357.73,292.24 L 357.11,290.84 L 356.55,289.39 L 356.05,287.93 L 355.6,286.42 L 355.26,284.85 L 354.98,283.28 L 354.76,281.71 L 354.64,280.1 L 354.59,278.47 L 354.59,238.79 z"
               id="path2892"
               style="fill:#000000;fill-opacity:1;fill-rule:evenodd;stroke:none" />
          </g>
        </g>
      </g>
      <g
         transform="matrix(1.25,0,0,1.25,-50.89375,2.07865)"
         id="g2894">
        <g
           clip-path="url(#clipPath2898)"
           id="g2896">
          <path
             d="M 400.01,305.56 L 400.01,305.56 L 400.28,304.83 L 400.56,304.16 L 400.73,303.49 L 400.79,302.98 L 400.79,302.98 L 400.79,302.6 L 400.79,302.14 L 400.62,301.25 L 400.39,300.41 L 400.06,299.63 L 400.06,299.63 L 399.67,299.07 L 399.22,298.45 L 399.22,298.45 L 398.94,298.23 L 398.54,297.89 L 397.99,297.5 L 397.42,297.17 L 397.42,297.17 L 397.09,296.99 L 396.75,296.89 L 396.75,296.89 L 395.63,296.71 L 395.63,296.71 L 394.96,296.71 L 394.96,296.71 L 394.29,296.77 L 393.73,296.89 L 393.17,297.05 L 392.56,297.33 L 392.56,297.33 L 392.61,296.99 L 392.61,296.99 L 392.61,296.21 L 392.61,296.21 L 392.56,295.88 L 392.45,295.48 L 392.22,294.76 L 391.88,294.03 L 391.49,293.42 L 391.49,293.42 L 391.15,292.91 L 390.77,292.41 L 390.77,292.41 L 390.59,291.96 L 390.37,291.29 L 390.04,290 L 390.04,290 L 389.81,289.05 L 389.64,288.04 L 389.36,285.97 L 389.2,283.9 L 389.08,281.89 L 389.08,281.89 L 390.26,282.55 L 390.82,282.83 L 391.49,283.06 L 391.49,283.06 L 391.77,283.17 L 391.93,283.17 L 392.05,283.17 L 392.05,283.17 L 391.61,282.28 L 391.38,281.77 L 391.15,281.33 L 391.15,281.33 L 391.04,280.82 L 391.04,280.82 L 391.43,281.44 L 391.83,282 L 392.27,282.55 L 392.77,283.06 L 393.29,283.51 L 393.84,283.96 L 394.4,284.35 L 395.02,284.68 L 395.02,284.68 L 396.08,285.19 L 396.14,285.13 L 396.14,285.13 L 395.86,284.63 L 395.58,284.07 L 395.58,284.07 L 395.52,283.79 L 395.69,283.79 L 395.69,283.79 L 396.47,284.46 L 397.31,285.19 L 397.31,285.19 L 398.21,285.75 L 399.11,286.3 L 399.11,286.3 L 399.61,286.58 L 399.61,286.58 L 400.28,286.87 L 401.01,286.98 L 401.79,287.09 L 402.52,287.03 L 402.52,287.03 L 402.52,286.98 L 402.46,286.87 L 402.46,286.87 L 401.85,286.42 L 401.23,285.8 L 401.23,285.8 L 401.01,285.52 L 400.84,285.24 L 400.84,285.24 L 401.12,285.35 L 401.46,285.52 L 402.08,285.8 L 402.08,285.8 L 402.35,285.92 L 402.35,285.92 L 402.86,286.03 L 402.86,286.03 L 403.7,286.14 L 404.48,286.08 L 404.87,285.97 L 405.26,285.92 L 405.66,285.75 L 406.05,285.58 L 406.05,285.58 L 406.44,285.3 L 406.83,284.96 L 406.83,284.96 L 406.94,284.8 L 407.05,284.68 L 407.05,284.68 L 407.39,284.18 L 407.51,283.9 L 407.62,283.67 L 407.62,283.67 L 407.62,283.45 L 407.67,283.23 L 407.67,283.23 L 406.83,283.39 L 406.44,283.45 L 406.05,283.51 L 406.05,283.45 L 406.05,283.45 L 406.5,283.28 L 406.94,283.06 L 407.39,282.78 L 407.78,282.5 L 408.18,282.17 L 408.57,281.77 L 408.85,281.38 L 409.07,280.99 L 409.07,280.99 L 409.18,280.65 L 409.24,280.37 L 409.24,280.37 L 409.35,280.1 L 409.41,279.87 L 409.41,279.87 L 409.41,279.31 L 409.35,278.69 L 409.35,278.69 L 409.3,278.69 L 409.3,278.69 L 409.24,278.64 L 409.24,278.64 L 408.51,279.08 L 407.84,279.48 L 407.84,279.48 L 407.39,279.64 L 407,279.76 L 407,279.76 L 406.16,280.1 L 406.16,280.1 L 405.38,280.26 L 405.38,280.26 L 404.54,280.43 L 404.54,280.43 L 403.92,280.48 L 403.92,280.48 L 403.19,280.55 L 403.19,280.55 L 402.69,280.55 L 402.13,280.55 L 401.01,280.37 L 399.89,280.1 L 398.94,279.82 L 398.94,279.82 L 397.88,279.31 L 396.86,278.8 L 396.86,278.8 L 396.08,278.3 L 395.36,277.8 L 394.68,277.24 L 394.01,276.62 L 394.01,276.62 L 393.5,276.17 L 393.23,275.89 L 393.17,275.73 L 393.17,275.73 L 393.4,275.89 L 393.61,276.07 L 393.61,276.07 L 394.29,276.4 L 394.63,276.57 L 394.96,276.68 L 394.96,276.68 L 395.47,276.68 L 395.97,276.73 L 395.97,276.73 L 395.58,276.07 L 395.47,275.73 L 395.36,275.34 L 395.36,275.34 L 395.47,275.34 L 395.47,275.34 L 395.63,275.56 L 395.63,275.56 L 396.2,276.01 L 396.86,276.46 L 397.54,276.85 L 398.15,277.13 L 398.15,277.13 L 398.99,277.46 L 399.44,277.58 L 399.95,277.63 L 399.95,277.63 L 400.45,277.63 L 400.95,277.58 L 400.95,277.58 L 401.23,277.52 L 401.51,277.46 L 401.51,277.3 L 401.51,277.3 L 400.62,276.57 L 400.62,276.57 L 400.56,276.46 L 400.51,276.4 L 400.51,276.4 L 400.9,276.46 L 401.29,276.57 L 401.29,276.57 L 402.46,276.9 L 402.46,276.9 L 403.19,276.96 L 403.98,276.96 L 403.98,276.96 L 404.31,276.85 L 404.71,276.73 L 405.1,276.57 L 405.49,276.4 L 405.83,276.17 L 406.16,275.89 L 406.39,275.62 L 406.61,275.28 L 406.61,275.28 L 405.99,275.17 L 405.55,275.05 L 405.21,274.94 L 405.21,274.94 L 405.6,274.72 L 405.99,274.5 L 406.33,274.27 L 406.33,274.27 L 406.67,274.05 L 406.94,273.77 L 406.94,273.77 L 407.05,273.55 L 407.17,273.32 L 407.39,272.71 L 407.45,272.09 L 407.45,271.59 L 407.45,271.59 L 407.34,271.03 L 407.17,270.46 L 407.11,270.41 L 407.11,270.41 L 406.72,270.69 L 406.39,270.86 L 405.66,271.14 L 405.66,271.14 L 404.42,271.53 L 403.58,271.76 L 402.97,271.92 L 402.97,271.92 L 401.4,272.03 L 401.4,272.03 L 400.67,272.03 L 399.95,271.98 L 399.95,271.98 L 399.17,271.81 L 398.38,271.59 L 397.59,271.36 L 396.86,271.08 L 396.86,271.08 L 396.25,270.8 L 395.69,270.46 L 394.57,269.68 L 394.57,269.68 L 393.67,269.12 L 393.67,269.12 L 393.17,268.62 L 392.61,268.12 L 392.61,268.12 L 391.99,267.33 L 391.55,266.6 L 391.15,265.99 L 391.15,265.99 L 391.72,266.55 L 392.27,267.05 L 392.27,267.05 L 393.11,267.73 L 393.56,268.06 L 394.01,268.28 L 394.01,268.28 L 394.63,268.45 L 395.18,268.57 L 395.18,268.57 L 395.86,268.62 L 395.86,268.62 L 395.58,268.01 L 395.47,267.67 L 395.47,267.33 L 395.47,267.33 L 395.74,267.5 L 395.92,267.61 L 395.92,267.61 L 396.92,268.17 L 397.48,268.45 L 397.93,268.62 L 397.93,268.62 L 398.21,268.62 L 398.49,268.67 L 398.49,268.67 L 398.99,268.79 L 399.49,268.85 L 399.49,268.85 L 399.83,268.79 L 400.17,268.73 L 400.51,268.62 L 400.79,268.45 L 400.79,268.34 L 400.79,268.34 L 400.45,268.12 L 400.06,267.84 L 399.72,267.55 L 399.49,267.22 L 399.49,267.22 L 399.38,267.05 L 399.38,267.05 L 399.72,267.05 L 399.72,267.05 L 399.83,267.17 L 399.95,267.22 L 400.33,267.33 L 400.73,267.39 L 401.01,267.39 L 401.01,267.39 L 401.4,267.39 L 401.85,267.39 L 402.3,267.33 L 402.52,267.22 L 402.69,267.11 L 402.69,267.11 L 402.97,266.77 L 403.14,266.49 L 403.14,266.49 L 403.42,266.16 L 403.53,265.88 L 403.58,265.65 L 403.58,265.21 L 403.58,265.21 L 403.14,265.37 L 403.14,265.37 L 402.19,265.37 L 402.19,265.37 L 401.9,265.32 L 401.63,265.26 L 401.63,265.15 L 401.63,265.15 L 401.96,264.98 L 402.3,264.76 L 402.52,264.48 L 402.8,264.14 L 402.8,264.14 L 402.92,263.92 L 402.92,263.92 L 402.97,263.64 L 403.03,263.36 L 403.03,263.36 L 403.08,262.91 L 403.08,262.41 L 403.08,262.41 L 402.97,262.01 L 402.8,261.57 L 402.8,261.57 L 402.63,261.51 L 402.63,261.51 L 402.41,261.91 L 402.24,262.13 L 402.02,262.35 L 402.02,262.35 L 401.85,262.52 L 401.68,262.58 L 401.23,262.69 L 400.62,262.8 L 400.62,262.8 L 399.44,263.02 L 399.44,263.02 L 398.15,263.02 L 398.15,263.02 L 397.65,262.96 L 397.04,262.85 L 396.47,262.69 L 395.97,262.58 L 395.97,262.58 L 395.18,262.24 L 394.4,261.91 L 394.4,261.91 L 393.95,261.62 L 393.5,261.29 L 393.5,261.29 L 392.5,260.56 L 391.99,260.17 L 391.61,259.78 L 391.61,259.78 L 392.05,260 L 392.56,260.23 L 393.06,260.39 L 393.56,260.45 L 393.56,260.45 L 393.9,260.45 L 394.18,260.45 L 394.18,260.45 L 394.52,260.45 L 394.85,260.34 L 394.85,260.34 L 395.24,260.17 L 395.24,260.17 L 395.24,260.05 L 395.24,260.05 L 395.18,259.94 L 395.08,259.89 L 394.9,259.83 L 394.79,259.72 L 394.79,259.72 L 394.34,259.33 L 394.18,259.16 L 394.07,258.99 L 394.07,258.99 L 395.02,259.33 L 395.02,259.33 L 395.47,259.44 L 395.97,259.5 L 396.47,259.55 L 396.92,259.55 L 396.92,259.55 L 397.42,259.44 L 397.65,259.33 L 397.88,259.16 L 398.04,258.99 L 398.21,258.83 L 398.33,258.6 L 398.38,258.32 L 398.38,258.32 L 397.76,258.16 L 397.2,257.98 L 397.2,257.98 L 398.04,257.65 L 398.04,257.65 L 398.27,257.48 L 398.49,257.26 L 398.49,257.26 L 398.83,256.92 L 398.83,256.92 L 399.05,256.48 L 399.27,256.03 L 399.27,256.03 L 399.27,255.69 L 399.27,255.35 L 399.27,255.02 L 399.17,254.74 L 399.17,254.74 L 398.99,254.74 L 398.99,254.74 L 398.54,255.02 L 398.15,255.19 L 397.65,255.35 L 397.2,255.52 L 397.2,255.52 L 396.42,255.69 L 396.42,255.69 L 395.97,255.75 L 395.52,255.75 L 395.08,255.75 L 394.57,255.69 L 393.67,255.46 L 393.23,255.3 L 392.83,255.13 L 392.83,255.13 L 392.27,254.85 L 392.27,254.85 L 391.66,254.46 L 391.32,254.18 L 391.1,254.01 L 391.1,254.01 L 391.61,254.24 L 391.88,254.35 L 392.11,254.46 L 392.11,254.46 L 392.39,254.46 L 392.61,254.46 L 392.61,254.46 L 393.17,254.46 L 393.61,254.41 L 394.07,254.24 L 394.52,253.96 L 394.52,253.96 L 394.34,253.79 L 394.18,253.68 L 394.01,253.51 L 393.84,253.34 L 393.84,253.34 L 394.34,253.34 L 394.79,253.28 L 394.79,253.28 L 395.02,253.23 L 395.3,253.06 L 395.74,252.78 L 395.74,252.78 L 396.02,252.44 L 396.25,252 L 396.42,251.49 L 396.53,251.1 L 396.53,251.1 L 396.53,250.71 L 396.53,250.37 L 396.53,250.37 L 396.42,250.26 L 396.42,250.26 L 395.8,250.49 L 395.47,250.6 L 395.13,250.6 L 395.13,250.6 L 395.24,250.32 L 395.3,249.98 L 395.3,249.98 L 395.13,248.8 L 395.13,248.8 L 395.02,248.48 L 394.85,248.14 L 394.85,248.14 L 394.68,248.14 L 394.68,248.14 L 394.4,248.48 L 394.07,248.8 L 394.07,248.8 L 393.61,249.2 L 393.4,249.37 L 393.11,249.53 L 393.11,249.53 L 392.66,249.76 L 392.27,249.87 L 392.27,249.87 L 391.88,249.93 L 391.43,249.93 L 390.99,249.87 L 390.59,249.76 L 390.59,249.76 L 390.32,249.59 L 390.09,249.42 L 389.59,248.98 L 389.59,248.98 L 389.64,248.92 L 389.64,248.92 L 389.98,249.09 L 389.98,249.09 L 390.48,249.2 L 390.99,249.26 L 390.99,249.26 L 391.32,249.2 L 391.66,248.98 L 391.99,248.8 L 392.22,248.53 L 392.22,248.53 L 392.33,248.25 L 392.45,247.91 L 392.45,247.57 L 392.45,247.24 L 392.45,247.24 L 392.11,247.3 L 391.72,247.41 L 391.77,247.3 L 391.77,247.3 L 391.99,247.07 L 392.05,246.96 L 392.11,246.85 L 392.11,246.85 L 392.16,246.51 L 392.22,246.07 L 392.22,245.67 L 392.16,245.45 L 392.16,245.34 L 392.16,245.34 L 391.93,245.17 L 391.93,245.17 L 391.61,245.56 L 391.61,245.56 L 391.21,245.78 L 390.7,246.01 L 390.7,246.01 L 390.37,246.07 L 389.98,246.07 L 389.59,246.01 L 389.25,245.9 L 389.25,245.9 L 388.86,245.62 L 388.86,245.62 L 389.2,245.62 L 389.53,245.56 L 389.53,245.56 L 389.98,245.28 L 389.98,245.28 L 390.09,245.12 L 390.2,244.78 L 390.37,244.27 L 390.37,244.27 L 390.37,243.66 L 390.37,243.66 L 390.26,243.43 L 390.15,243.16 L 389.98,242.99 L 389.81,242.82 L 389.81,242.82 L 389.64,243.04 L 389.53,243.26 L 389.53,243.26 L 389.25,243.38 L 389.02,243.49 L 388.75,243.55 L 388.47,243.55 L 388.47,243.55 L 388.3,243.49 L 388.02,243.38 L 388.02,243.38 L 387.85,243.16 L 387.68,242.87 L 387.68,242.87 L 387.46,242.37 L 387.07,241.76 L 386.62,241.19 L 386.45,241.03 L 386.34,240.98 L 386.34,240.98 L 386.23,241.48 L 386,242.15 L 385.78,242.82 L 385.67,243.1 L 385.55,243.26 L 385.55,243.26 L 385.39,243.32 L 385.22,243.38 L 384.94,243.38 L 384.94,243.38 L 384.71,243.38 L 384.55,243.32 L 384.55,243.32 L 384.32,243.21 L 384.16,242.93 L 383.87,242.48 L 383.87,242.48 L 383.48,242.71 L 383.2,242.99 L 383.2,242.99 L 383.03,243.32 L 382.92,243.71 L 382.92,244.16 L 382.92,244.5 L 382.92,244.5 L 383.09,245.05 L 383.09,245.05 L 383.26,245.28 L 383.43,245.45 L 383.6,245.62 L 383.71,245.73 L 383.71,245.73 L 383.09,245.73 L 382.48,245.67 L 382.48,245.67 L 382.25,245.56 L 382.25,245.56 L 381.75,245.28 L 381.58,245.12 L 381.35,244.83 L 381.35,244.83 L 381.24,244.89 L 381.24,244.89 L 381.08,245.28 L 380.96,245.73 L 380.96,245.73 L 380.96,246.01 L 381.02,246.46 L 381.14,246.85 L 381.24,247.13 L 381.24,247.13 L 381.46,247.3 L 381.64,247.41 L 382.14,247.57 L 382.14,247.57 L 381.58,247.96 L 381.58,247.96 L 381.8,248.3 L 382.08,248.53 L 382.42,248.69 L 382.82,248.87 L 382.82,248.87 L 383.14,249.03 L 383.14,249.03 L 383.48,249.09 L 383.82,249.09 L 383.82,249.09 L 383.54,249.37 L 383.14,249.65 L 383.14,249.65 L 382.7,249.82 L 382.14,249.93 L 381.58,249.93 L 381.35,249.87 L 381.14,249.76 L 381.14,249.76 L 380.68,249.53 L 380.41,249.37 L 380.12,249.14 L 380.12,249.14 L 379.85,248.8 L 379.62,248.48 L 379.45,248.19 L 379.39,248.08 L 379.39,248.08 L 379.06,248.48 L 378.73,248.92 L 378.5,249.42 L 378.44,249.71 L 378.44,249.87 L 378.44,249.87 L 378.55,250.43 L 378.78,250.93 L 378.78,250.93 L 378.5,250.93 L 378.17,250.93 L 378.17,250.93 L 377.66,250.76 L 377.1,250.49 L 377.1,250.49 L 377.1,250.76 L 377.1,251.05 L 377.15,251.55 L 377.15,251.55 L 377.27,252.05 L 377.33,252.28 L 377.44,252.5 L 377.44,252.5 L 377.83,252.84 L 378.33,253.12 L 378.83,253.34 L 379.39,253.51 L 379.39,253.51 L 379.9,253.57 L 379.9,253.57 L 379.51,253.73 L 378.95,253.96 L 378.95,253.96 L 379.17,254.18 L 379.51,254.41 L 379.85,254.57 L 380.18,254.68 L 380.18,254.68 L 380.74,254.74 L 381.24,254.8 L 381.24,254.8 L 380.8,255.19 L 380.3,255.52 L 380.3,255.52 L 379.51,255.86 L 378.78,256.08 L 378.78,256.08 L 378.11,256.19 L 377.49,256.19 L 376.88,256.03 L 376.21,255.8 L 376.21,255.8 L 375.92,255.75 L 375.76,255.64 L 375.76,255.64 L 375.53,255.41 L 375.31,255.19 L 374.97,254.74 L 374.97,254.74 L 374.74,255.13 L 374.64,255.58 L 374.53,256.03 L 374.53,256.48 L 374.53,256.48 L 374.69,257.03 L 374.69,257.03 L 374.97,257.43 L 375.26,257.82 L 375.26,257.82 L 375.76,258.1 L 376.26,258.32 L 376.26,258.32 L 375.98,258.43 L 375.98,258.43 L 375.64,258.43 L 375.26,258.38 L 374.92,258.38 L 374.64,258.38 L 374.64,258.38 L 374.64,258.43 L 374.64,258.43 L 374.74,258.77 L 374.92,259.05 L 374.92,259.05 L 375.08,259.27 L 375.26,259.44 L 375.58,259.72 L 375.58,259.72 L 375.92,259.94 L 375.92,259.94 L 376.21,260.05 L 376.48,260.11 L 377.1,260.17 L 377.77,260.11 L 378.33,260 L 378.33,260 L 378.44,259.94 L 378.55,259.94 L 378.55,259.94 L 378.5,260.45 L 378.44,260.73 L 378.44,260.73 L 379.01,260.89 L 379.01,260.89 L 379.79,260.84 L 379.79,260.84 L 380.23,260.73 L 380.46,260.73 L 380.63,260.73 L 380.63,260.73 L 379.85,261.23 L 379.45,261.51 L 379.01,261.73 L 379.01,261.73 L 378.33,262.07 L 377.6,262.35 L 377.6,262.35 L 376.76,262.58 L 376.26,262.69 L 375.7,262.74 L 375.7,262.74 L 375.2,262.8 L 374.64,262.74 L 373.74,262.69 L 373.74,262.69 L 373.13,262.52 L 372.51,262.3 L 372.51,262.3 L 371.83,262.07 L 371.22,261.73 L 371.22,261.73 L 371.05,261.57 L 370.88,261.46 L 370.88,261.46 L 370.72,261.85 L 370.72,261.85 L 370.61,262.46 L 370.61,262.85 L 370.61,263.14 L 370.61,263.14 L 370.77,263.8 L 370.88,264.2 L 371.05,264.48 L 371.05,264.48 L 371.39,264.92 L 371.39,264.92 L 371.72,265.15 L 372.12,265.32 L 372.12,265.32 L 371.83,265.37 L 371.83,265.37 L 371.45,265.37 L 371.05,265.32 L 370.72,265.21 L 370.38,264.98 L 370.21,264.98 L 370.21,264.98 L 370.21,265.26 L 370.21,265.55 L 370.21,265.55 L 370.44,266.05 L 370.72,266.49 L 371.11,266.89 L 371.11,266.89 L 371.45,267.05 L 371.72,267.17 L 371.72,267.17 L 372.06,267.33 L 372.45,267.39 L 372.45,267.39 L 373.13,267.39 L 373.8,267.39 L 373.8,267.39 L 373.63,267.55 L 373.4,267.84 L 372.9,268.23 L 372.9,268.23 L 373.13,268.39 L 373.46,268.62 L 373.46,268.62 L 374.02,268.79 L 374.58,268.9 L 374.58,268.9 L 375.7,268.9 L 375.7,268.9 L 375.98,268.85 L 376.26,268.73 L 376.82,268.45 L 376.82,268.45 L 377.44,268.01 L 377.99,267.5 L 377.99,267.5 L 377.89,267.78 L 377.77,268.12 L 377.6,268.51 L 377.55,268.67 L 377.55,268.67 L 378.33,268.57 L 379.01,268.45 L 379.01,268.45 L 379.23,268.39 L 379.34,268.34 L 379.45,268.34 L 379.45,268.34 L 379.34,268.45 L 379.23,268.62 L 379.23,268.62 L 378.17,269.3 L 377.1,269.96 L 377.1,269.96 L 376.26,270.41 L 375.26,270.8 L 374.19,271.14 L 373.24,271.42 L 373.24,271.42 L 372.73,271.48 L 372.73,271.48 L 371.89,271.53 L 371.11,271.59 L 370.27,271.53 L 369.38,271.42 L 369.38,271.42 L 368.87,271.3 L 368.36,271.14 L 367.41,270.75 L 366.63,270.41 L 366.24,270.24 L 366.24,270.24 L 366.24,270.58 L 366.24,270.86 L 366.24,270.86 L 366.29,271.42 L 366.4,271.98 L 366.63,272.48 L 366.86,273.05 L 366.86,273.05 L 366.97,273.32 L 367.08,273.55 L 367.08,273.55 L 367.36,273.88 L 367.75,274.21 L 368.2,274.55 L 368.54,274.78 L 368.54,274.78 L 368.87,274.83 L 368.87,274.83 L 368.81,274.94 L 368.81,274.94 L 367.24,275.23 L 367.24,275.23 L 367.41,275.67 L 367.58,275.95 L 367.7,276.12 L 367.7,276.12 L 367.92,276.29 L 368.2,276.51 L 368.92,276.85 L 369.65,277.07 L 370.38,277.18 L 370.38,277.18 L 370.94,277.18 L 371.56,277.13 L 371.56,277.13 L 372.01,277.01 L 372.45,276.85 L 372.45,276.85 L 372.85,276.62 L 373.01,276.57 L 373.18,276.51 L 373.18,276.51 L 372.67,277.07 L 372.67,277.07 L 372.29,277.46 L 371.78,277.91 L 371.78,277.91 L 372.23,278.02 L 372.79,278.08 L 373.85,278.08 L 373.85,278.08 L 374.3,277.96 L 374.3,277.96 L 374.74,277.85 L 375.14,277.69 L 375.14,277.69 L 375.64,277.46 L 376.26,277.01 L 376.88,276.57 L 377.33,276.23 L 377.33,276.23 L 377.49,275.89 L 377.71,275.56 L 377.71,275.56 L 377.71,276.07 L 377.66,276.73 L 377.66,276.73 L 378.05,276.68 L 378.05,276.68 L 378.73,276.35 L 379.34,276.07 L 379.34,276.07 L 379.17,276.4 L 379.17,276.4 L 378.61,276.96 L 377.83,277.58 L 377.05,278.14 L 376.37,278.58 L 376.37,278.58 L 375.58,278.98 L 374.64,279.42 L 373.63,279.87 L 372.73,280.1 L 372.73,280.1 L 371.72,280.26 L 370.55,280.37 L 369.43,280.37 L 368.87,280.32 L 368.36,280.21 L 368.36,280.21 L 366.68,279.82 L 366.68,279.82 L 366.07,279.53 L 365.51,279.26 L 364.33,278.58 L 364.33,278.58 L 364.27,278.69 L 364.22,278.8 L 364.22,278.8 L 364.22,279.37 L 364.27,279.87 L 364.39,280.37 L 364.56,280.88 L 364.56,280.88 L 364.67,281.33 L 364.84,281.77 L 364.84,281.77 L 365.11,282.22 L 365.11,282.22 L 365.45,282.61 L 365.73,282.95 L 366.07,283.23 L 366.4,283.45 L 366.74,283.62 L 367.19,283.73 L 367.58,283.85 L 368.08,283.9 L 368.08,283.9 L 368.42,283.9 L 368.42,283.9 L 368.2,284.07 L 367.81,284.3 L 367.81,284.3 L 367.41,284.35 L 367.19,284.4 L 367.08,284.51 L 367.08,284.51 L 367.19,284.63 L 367.3,284.74 L 367.3,284.74 L 367.7,285.02 L 368.14,285.3 L 368.14,285.3 L 368.54,285.46 L 368.92,285.64 L 368.92,285.64 L 369.6,285.8 L 369.6,285.8 L 369.99,285.86 L 370.49,285.92 L 371.22,285.92 L 371.22,285.92 L 372.01,285.69 L 372.4,285.58 L 372.85,285.46 L 372.85,285.46 L 372.45,285.92 L 372.45,285.92 L 372.01,286.19 L 371.56,286.48 L 371.61,286.58 L 371.61,286.58 L 372.06,286.76 L 372.56,286.81 L 372.56,286.81 L 373.18,286.87 L 373.85,286.81 L 374.47,286.64 L 375.08,286.48 L 375.08,286.48 L 375.53,286.25 L 375.92,286.03 L 375.92,286.03 L 376.65,285.46 L 377.38,284.91 L 377.38,284.91 L 377.94,284.18 L 378.5,283.45 L 378.5,283.45 L 378.61,283.39 L 378.61,283.39 L 378.61,283.67 L 378.5,283.9 L 378.33,284.35 L 378.05,284.8 L 377.83,285.24 L 377.83,285.24 L 378.17,285.13 L 378.5,284.96 L 378.5,284.96 L 379.23,284.57 L 379.96,284.12 L 380.63,283.67 L 381.3,283.17 L 381.3,283.17 L 381.64,282.95 L 381.64,282.95 L 381.98,282.55 L 382.36,282.17 L 382.36,282.17 L 382.7,281.6 L 383.09,281.05 L 383.09,281.05 L 383.09,281.33 L 383.09,281.33 L 382.87,281.94 L 382.59,282.44 L 381.92,283.51 L 381.92,283.51 L 382.7,283.23 L 384.05,282.73 L 384.05,282.73 L 383.71,285.24 L 383.54,286.48 L 383.32,287.76 L 383.32,287.76 L 382.98,289.33 L 382.59,290.95 L 382.59,290.95 L 382.36,291.85 L 382.25,292.35 L 382.14,292.69 L 382.14,292.69 L 381.75,293.14 L 381.35,293.64 L 381.35,293.64 L 381.08,294.08 L 380.85,294.59 L 380.57,295.6 L 380.57,295.6 L 380.46,295.93 L 380.41,296.33 L 380.41,297.11 L 380.41,297.11 L 379.73,296.89 L 379.06,296.71 L 378.33,296.6 L 377.66,296.6 L 376.99,296.66 L 376.32,296.83 L 375.7,297.05 L 375.03,297.33 L 375.03,297.33 L 374.58,297.61 L 374.19,297.89 L 374.19,297.89 L 373.8,298.28 L 373.8,298.28 L 373.35,298.73 L 372.96,299.23 L 372.62,299.8 L 372.34,300.35 L 372.34,300.35 L 372.06,301.64 L 372.06,301.64 L 372.01,302.14 L 371.95,302.48 L 371.95,302.87 L 371.95,302.87 L 372.01,303.26 L 372.12,303.66 L 372.29,304.16 L 372.29,304.16 L 372.45,304.78 L 372.62,305.17 L 372.85,305.62 L 372.85,305.62 L 371.95,305.17 L 370.99,304.67 L 370.1,304.1 L 369.26,303.55 L 368.36,302.93 L 367.52,302.31 L 366.74,301.64 L 365.95,300.97 L 365.17,300.3 L 364.45,299.51 L 363.77,298.79 L 363.11,298.01 L 362.43,297.22 L 361.82,296.38 L 361.2,295.54 L 360.64,294.64 L 360.08,293.75 L 359.57,292.85 L 359.13,291.9 L 358.68,290.95 L 358.23,290 L 357.89,288.99 L 357.55,287.98 L 357.23,286.98 L 356.94,285.97 L 356.71,284.91 L 356.5,283.85 L 356.33,282.78 L 356.16,281.66 L 356.1,280.55 L 356.05,279.42 L 355.99,278.3 L 355.99,240.19 L 416.68,240.19 L 416.68,278.3 L 416.68,278.3 L 416.68,279.42 L 416.63,280.55 L 416.52,281.66 L 416.41,282.73 L 416.24,283.79 L 416.02,284.85 L 415.79,285.92 L 415.52,286.92 L 415.18,287.93 L 414.84,288.94 L 414.45,289.94 L 414.05,290.89 L 413.61,291.85 L 413.16,292.74 L 412.66,293.69 L 412.1,294.59 L 411.53,295.43 L 410.92,296.27 L 410.3,297.11 L 409.69,297.89 L 409.01,298.67 L 408.29,299.46 L 407.56,300.19 L 406.83,300.86 L 406.05,301.58 L 405.26,302.2 L 404.42,302.87 L 403.58,303.43 L 402.69,304.05 L 401.85,304.55 L 400.9,305.05 L 400.01,305.56 L 400.01,305.56 z"
             id="path2902"
             style="fill:#fcdb00;fill-opacity:1;fill-rule:evenodd;stroke:#fcdb00;stroke-width:0.12;stroke-linecap:round;stroke-linejoin:round;stroke-miterlimit:10;stroke-dasharray:none;stroke-opacity:1" />
          <path
             d="M 383.6,291.57 L 383.6,291.57 L 384.1,291.35 L 384.66,291.17 L 385.16,291.06 L 385.73,290.95 L 386.28,290.89 L 386.84,290.95 L 387.4,291.01 L 387.96,291.12 L 387.96,291.12 L 388.64,291.29 L 389.31,291.57 L 389.31,291.57 L 388.8,289.1 L 388.8,289.1 L 388.64,288.43 L 388.52,287.76 L 388.52,287.76 L 388.41,286.87 L 388.36,286.03 L 388.36,286.03 L 388.18,284.3 L 388.18,284.3 L 388.13,282.83 L 388.13,282.83 L 387.96,280.99 L 387.96,280.99 L 387.46,280.43 L 387.01,279.98 L 387.01,279.98 L 386.57,280.55 L 386,281.1 L 386,281.1 L 385.5,281.49 L 385.22,281.77 L 385.05,282 L 385.05,282 L 384.77,284.57 L 384.6,285.92 L 384.43,287.2 L 384.43,287.2 L 384.16,288.71 L 383.82,290.23 L 383.82,290.23 L 383.71,290.89 L 383.6,291.57 L 383.6,291.57 z"
             id="path2904"
             style="fill:#744223;fill-opacity:1;fill-rule:evenodd;stroke:#744223;stroke-width:0.12;stroke-linecap:round;stroke-linejoin:round;stroke-miterlimit:10;stroke-dasharray:none;stroke-opacity:1" />
          <path
             d="M 391.38,299.74 L 391.38,299.74 L 391.66,299.35 L 391.93,299.01 L 391.93,299.01 L 392.27,298.73 L 392.72,298.39 L 393.23,298.12 L 393.61,297.95 L 393.61,297.95 L 393.9,297.89 L 393.9,297.89 L 394.45,297.78 L 395.02,297.73 L 395.63,297.67 L 396.2,297.73 L 396.2,297.73 L 397.04,297.95 L 397.04,297.95 L 397.65,298.34 L 398.15,298.73 L 398.15,298.73 L 398.43,299.07 L 398.77,299.4 L 398.99,299.8 L 399.22,300.24 L 399.22,300.24 L 399.49,300.86 L 399.67,301.47 L 399.67,301.47 L 399.72,301.92 L 399.72,301.92 L 399.72,302.42 L 399.67,302.93 L 399.61,303.49 L 399.44,304.1 L 399.22,304.67 L 398.99,305.22 L 398.77,305.78 L 398.43,306.29 L 398.43,306.29 L 397.04,306.85 L 395.63,307.35 L 394.13,307.8 L 392.61,308.14 L 391.1,308.42 L 389.53,308.64 L 387.96,308.75 L 386.34,308.8 L 386.34,308.8 L 384.77,308.75 L 383.2,308.64 L 381.64,308.42 L 380.12,308.14 L 378.61,307.8 L 377.15,307.35 L 375.7,306.85 L 374.3,306.29 L 374.3,306.29 L 373.8,305.33 L 373.35,304.33 L 373.18,303.83 L 373.07,303.38 L 372.96,302.93 L 372.96,302.54 L 372.96,302.54 L 372.96,301.92 L 373.07,301.36 L 373.07,301.36 L 373.29,300.8 L 373.52,300.3 L 373.52,300.3 L 373.85,299.74 L 374.24,299.18 L 374.24,299.18 L 374.64,298.85 L 375.08,298.51 L 375.08,298.51 L 375.92,298.06 L 376.32,297.89 L 376.76,297.78 L 377.15,297.73 L 377.6,297.67 L 378.05,297.67 L 378.5,297.73 L 378.5,297.73 L 379.06,297.83 L 379.06,297.83 L 379.45,297.95 L 379.85,298.12 L 380.63,298.51 L 380.63,298.51 L 381.02,298.85 L 381.58,299.4 L 381.58,299.4 L 381.64,299.51 L 381.75,299.57 L 381.75,299.57 L 381.52,298.39 L 381.41,297.44 L 381.41,296.6 L 381.41,296.6 L 381.46,295.93 L 381.69,295.32 L 381.92,294.7 L 382.3,294.08 L 382.3,294.08 L 382.64,293.64 L 382.98,293.3 L 383.37,292.96 L 383.82,292.63 L 383.82,292.63 L 384.43,292.35 L 384.71,292.18 L 385.05,292.13 L 385.05,292.13 L 385.5,292.01 L 385.89,292.01 L 386.34,291.96 L 386.79,292.01 L 387.18,292.07 L 387.63,292.18 L 388.02,292.3 L 388.41,292.46 L 388.8,292.69 L 389.14,292.91 L 389.48,293.14 L 389.81,293.42 L 390.09,293.75 L 390.37,294.08 L 390.65,294.42 L 390.88,294.81 L 390.88,294.81 L 391.15,295.37 L 391.38,296.05 L 391.38,296.05 L 391.43,296.49 L 391.49,296.94 L 391.55,297.83 L 391.49,298.79 L 391.38,299.74 L 391.38,299.74 z"
             id="path2906"
             style="fill:#009944;fill-opacity:1;fill-rule:evenodd;stroke:#009944;stroke-width:0.12;stroke-linecap:round;stroke-linejoin:round;stroke-miterlimit:10;stroke-dasharray:none;stroke-opacity:1" />
          <path
             d="M 400.45,285.92 L 400.45,285.92 L 400.33,285.92 L 400.33,285.92 L 399.17,285.3 L 398.04,284.63 L 397.04,283.9 L 395.97,283.06 L 395.97,283.06 L 395.02,282.22 L 395.02,282.22 L 394.63,281.83 L 394.24,281.44 L 394.24,281.44 L 394.18,281.6 L 394.18,281.83 L 394.18,281.83 L 394.34,282.5 L 394.57,283.23 L 394.57,283.23 L 394.07,282.89 L 394.07,282.89 L 392.77,281.71 L 392.77,281.71 L 392.45,281.33 L 392.11,280.93 L 391.49,280.04 L 391.49,280.04 L 390.88,279.26 L 390.88,279.26 L 390.65,278.86 L 390.43,278.47 L 390.43,278.47 L 390.32,278.58 L 390.32,278.58 L 390.32,278.98 L 390.32,279.48 L 390.32,280.37 L 390.32,280.37 L 390.43,281.16 L 390.43,281.16 L 390.54,281.44 L 390.59,281.6 L 390.59,281.71 L 390.59,281.71 L 389.92,281.33 L 389.31,280.93 L 388.64,280.48 L 388.07,279.98 L 388.07,279.98 L 387.68,279.59 L 387.68,279.59 L 387.35,279.31 L 387.35,279.31 L 386.84,278.64 L 386.84,278.64 L 386.45,279.2 L 386,279.87 L 386,279.87 L 385.61,280.32 L 385.61,280.32 L 385.11,280.82 L 384.55,281.21 L 383.48,282 L 383.43,282 L 383.43,282 L 383.65,281.27 L 383.82,280.43 L 383.98,279.53 L 383.98,279.14 L 383.98,278.8 L 383.98,278.8 L 383.87,278.14 L 383.76,278.14 L 383.76,278.14 L 383.65,278.64 L 383.48,279.08 L 383.48,279.08 L 382.82,280.32 L 382.82,280.32 L 382.08,281.33 L 381.64,281.77 L 381.24,282.22 L 381.24,282.22 L 381.02,282.39 L 380.8,282.61 L 380.8,282.61 L 380.07,283.06 L 379.34,283.51 L 379.34,283.51 L 379.34,282.44 L 379.34,281.38 L 379.23,281.1 L 379.23,281.1 L 378.39,282.39 L 377.94,283.01 L 377.44,283.56 L 377.44,283.56 L 376.93,284.12 L 376.54,284.46 L 376.15,284.8 L 376.15,284.8 L 375.64,285.08 L 375.2,285.3 L 375.2,285.3 L 374.74,285.52 L 374.36,285.69 L 373.9,285.8 L 373.4,285.86 L 373.4,285.86 L 373.74,285.58 L 373.9,285.35 L 374.24,284.74 L 374.24,284.74 L 374.47,284.12 L 374.47,284.12 L 374.13,284.18 L 373.8,284.35 L 373.07,284.63 L 373.07,284.63 L 372.29,284.85 L 371.5,285.02 L 371.5,285.02 L 370.61,285.08 L 369.71,285.08 L 369.71,285.08 L 369.49,285.02 L 369.26,284.91 L 368.76,284.63 L 368.76,284.63 L 368.76,284.57 L 368.76,284.57 L 369.04,284.4 L 369.38,284.23 L 369.6,284.01 L 369.82,283.79 L 369.82,283.79 L 369.99,283.45 L 369.99,283.45 L 369.32,283.39 L 368.59,283.23 L 368.59,283.23 L 367.97,283.12 L 367.47,282.95 L 367.02,282.73 L 366.52,282.39 L 366.52,282.39 L 366.18,282.11 L 366.18,282.11 L 365.95,281.77 L 365.73,281.44 L 365.73,281.44 L 365.57,281.16 L 365.4,280.88 L 365.4,280.88 L 365.23,280.32 L 365.06,279.76 L 365.06,279.76 L 366.63,280.37 L 367.36,280.6 L 368.2,280.76 L 368.2,280.76 L 369.77,280.93 L 369.77,280.93 L 370.83,280.88 L 372.17,280.76 L 372.17,280.76 L 372.9,280.6 L 373.58,280.37 L 374.3,280.15 L 374.97,279.82 L 375.7,279.48 L 376.37,279.14 L 376.99,278.75 L 377.55,278.36 L 377.55,278.36 L 378.67,277.46 L 379.45,276.8 L 379.45,276.8 L 380.46,275.45 L 380.46,275.45 L 381.69,273.71 L 381.69,273.71 L 382.14,272.82 L 382.53,271.98 L 382.92,271.08 L 383.2,270.19 L 383.2,270.19 L 383.2,270.19 L 383.2,270.19 L 382.82,270.92 L 382.59,271.3 L 382.36,271.59 L 382.36,271.59 L 382.08,271.87 L 381.86,272.14 L 381.86,272.14 L 381.14,273.21 L 380.41,274.05 L 380.01,274.44 L 379.57,274.83 L 379.06,275.17 L 378.5,275.56 L 378.5,275.56 L 378.5,275.05 L 378.5,274.72 L 378.44,274.33 L 378.22,273.88 L 378.22,273.88 L 378.11,273.88 L 378.11,273.88 L 377.55,274.67 L 376.93,275.39 L 376.21,276.01 L 375.87,276.29 L 375.48,276.57 L 375.48,276.57 L 375.14,276.8 L 375.14,276.8 L 374.8,276.9 L 374.36,277.01 L 373.58,277.18 L 373.58,277.18 L 373.69,276.9 L 373.85,276.68 L 374.02,276.46 L 374.19,276.17 L 374.19,276.17 L 374.3,275.89 L 374.36,275.56 L 374.42,275.17 L 374.42,274.89 L 374.42,274.89 L 373.96,275.23 L 373.52,275.51 L 373.07,275.73 L 372.56,275.95 L 372.56,275.95 L 372.17,276.07 L 371.83,276.23 L 371.83,276.23 L 371.39,276.29 L 370.77,276.29 L 370.21,276.29 L 369.77,276.23 L 369.77,276.23 L 369.26,276.07 L 368.81,275.89 L 368.81,275.89 L 368.7,275.78 L 368.54,275.67 L 368.54,275.67 L 369.32,275.39 L 369.77,275.23 L 370.1,275.05 L 370.1,275.05 L 370.44,274.78 L 370.44,274.78 L 370.33,274.67 L 369.99,274.55 L 369.49,274.44 L 369.49,274.44 L 369.04,274.16 L 368.48,273.66 L 367.92,273.15 L 367.58,272.76 L 367.58,272.76 L 367.41,272.48 L 367.3,272.14 L 367.19,271.76 L 367.13,271.42 L 367.13,271.42 L 367.52,271.53 L 367.86,271.64 L 367.86,271.64 L 369.04,271.87 L 370.21,272.09 L 370.21,272.09 L 370.94,272.09 L 371.72,272.09 L 372.45,272.03 L 373.18,271.98 L 373.18,271.98 L 373.85,271.81 L 374.53,271.64 L 375.2,271.42 L 375.87,271.14 L 377.21,270.52 L 377.83,270.19 L 378.39,269.8 L 378.39,269.8 L 379.17,269.3 L 379.9,268.67 L 381.3,267.39 L 381.3,267.39 L 381.8,266.77 L 381.8,266.77 L 382.48,265.6 L 383.09,264.42 L 383.09,264.42 L 383.54,263.3 L 383.54,263.3 L 383.43,263.19 L 383.43,263.19 L 383.14,263.64 L 382.92,264.03 L 382.92,264.03 L 382.48,264.64 L 382.03,265.21 L 381.08,266.33 L 381.08,266.33 L 380.46,266.83 L 380.07,267.17 L 379.79,267.33 L 379.79,267.33 L 379.17,267.55 L 378.5,267.78 L 378.5,267.78 L 378.61,267.28 L 378.73,266.49 L 378.78,266.1 L 378.78,265.71 L 378.73,265.43 L 378.67,265.37 L 378.61,265.32 L 378.61,265.32 L 378.44,265.65 L 378.28,265.99 L 377.83,266.55 L 377.83,266.55 L 377.49,266.94 L 377.49,266.94 L 376.76,267.55 L 376.76,267.55 L 376.37,267.78 L 375.98,267.89 L 375.53,267.95 L 375.14,268.01 L 375.14,268.01 L 374.64,268.01 L 374.13,267.89 L 374.13,267.89 L 374.69,267.17 L 374.92,266.83 L 375.14,266.39 L 375.14,266.39 L 375.31,265.99 L 375.26,265.93 L 375.26,265.93 L 375.03,265.99 L 374.69,266.1 L 374.19,266.39 L 374.19,266.39 L 373.74,266.49 L 373.18,266.55 L 372.56,266.6 L 372.12,266.55 L 372.12,266.55 L 371.78,266.39 L 371.5,266.16 L 371.5,266.16 L 371.45,266.1 L 371.45,266.1 L 371.45,266.05 L 371.45,266.05 L 371.89,266.05 L 372.29,265.93 L 372.67,265.82 L 373.07,265.65 L 373.07,265.65 L 373.24,265.55 L 373.4,265.43 L 373.4,265.43 L 373.69,265.15 L 373.69,265.15 L 373.18,265.04 L 373.18,265.04 L 372.9,264.92 L 372.56,264.76 L 372.23,264.59 L 372.01,264.37 L 372.01,264.37 L 371.83,264.14 L 371.72,263.92 L 371.72,263.92 L 371.61,263.75 L 371.56,263.58 L 371.56,263.58 L 371.45,263.3 L 371.45,263.14 L 371.56,262.64 L 371.56,262.64 L 371.83,262.74 L 372.45,262.91 L 373.24,263.14 L 373.96,263.3 L 373.96,263.3 L 374.92,263.36 L 375.7,263.36 L 375.7,263.36 L 376.48,263.19 L 377.27,263.02 L 377.27,263.02 L 378.11,262.8 L 379.01,262.35 L 379.9,261.91 L 380.63,261.4 L 380.63,261.4 L 381.46,260.67 L 381.46,260.67 L 382.19,260 L 382.82,259.21 L 383.37,258.38 L 383.87,257.54 L 383.87,257.54 L 384.1,257.09 L 384.27,256.59 L 384.27,256.59 L 384.32,256.42 L 384.38,256.3 L 384.27,256.3 L 384.27,256.3 L 383.71,257.09 L 383.2,257.76 L 383.2,257.76 L 382.87,258.1 L 382.59,258.38 L 382.59,258.38 L 382.03,258.89 L 381.41,259.39 L 381.08,259.55 L 380.74,259.78 L 380.35,259.89 L 380.01,260 L 380.01,260 L 379.62,260 L 379.17,260 L 379.17,260 L 379.17,259.78 L 379.23,259.61 L 379.28,259.16 L 379.28,259.16 L 379.28,258.49 L 379.23,258.43 L 379.23,258.43 L 378.83,258.83 L 378.83,258.83 L 378.5,259.05 L 378.17,259.21 L 377.83,259.33 L 377.49,259.39 L 377.1,259.39 L 376.76,259.33 L 375.98,259.1 L 375.98,259.1 L 375.98,259.05 L 375.98,259.05 L 376.54,258.89 L 376.82,258.71 L 377.1,258.6 L 377.1,258.6 L 377.27,258.43 L 377.33,258.38 L 377.44,258.32 L 377.44,258.32 L 377.6,258.16 L 377.66,257.93 L 377.66,257.93 L 376.99,257.87 L 376.99,257.87 L 376.6,257.76 L 376.04,257.48 L 375.76,257.32 L 375.58,257.09 L 375.42,256.92 L 375.37,256.76 L 375.37,256.76 L 375.31,256.42 L 375.37,256.14 L 375.37,256.14 L 376.15,256.48 L 376.6,256.64 L 377.05,256.76 L 377.05,256.76 L 377.44,256.76 L 377.83,256.76 L 377.83,256.76 L 378.44,256.76 L 379.12,256.64 L 379.73,256.48 L 380.3,256.25 L 380.85,255.91 L 381.35,255.58 L 381.86,255.19 L 382.36,254.74 L 382.36,254.74 L 382.76,254.29 L 382.76,254.29 L 383.26,253.57 L 383.76,252.84 L 383.76,252.84 L 383.65,252.73 L 383.65,252.73 L 383.26,253.06 L 382.82,253.4 L 382.3,253.68 L 381.86,253.85 L 381.86,253.85 L 381.46,253.96 L 381.02,254.01 L 381.02,254.01 L 380.74,254.01 L 380.57,254.01 L 380.41,253.96 L 380.41,253.96 L 380.96,253.4 L 381.19,253.12 L 381.35,252.78 L 381.35,252.78 L 380.68,252.89 L 380.68,252.89 L 379.9,252.89 L 379.51,252.84 L 379.12,252.73 L 378.78,252.55 L 378.5,252.33 L 378.28,252.05 L 378.11,251.66 L 378.11,251.66 L 378.67,251.6 L 379.23,251.55 L 379.23,251.55 L 379.62,251.38 L 379.96,251.21 L 379.96,251.21 L 379.96,251.05 L 379.96,251.05 L 379.73,250.88 L 379.51,250.66 L 379.51,250.66 L 379.45,250.37 L 379.39,249.98 L 379.34,249.59 L 379.34,249.37 L 379.51,249.37 L 379.51,249.37 L 379.67,249.59 L 379.9,249.76 L 379.9,249.76 L 380.35,250.1 L 380.8,250.37 L 380.8,250.37 L 381.35,250.49 L 381.98,250.54 L 382.59,250.54 L 382.87,250.49 L 383.14,250.43 L 383.14,250.43 L 383.65,250.1 L 384.16,249.76 L 384.16,249.76 L 384.43,249.31 L 384.66,248.98 L 384.77,248.75 L 384.77,248.75 L 384.83,248.53 L 384.83,248.19 L 384.77,247.69 L 384.77,247.69 L 384.32,248.08 L 384.32,248.08 L 384.16,248.19 L 383.87,248.25 L 383.43,248.36 L 383.43,248.36 L 382.53,248.14 L 382.53,248.14 L 382.59,248.08 L 382.64,248.02 L 382.87,247.85 L 383.2,247.69 L 383.37,247.24 L 383.37,247.24 L 383.26,247.18 L 383.09,247.18 L 383.09,247.18 L 382.53,247.13 L 382.3,247.07 L 382.08,246.96 L 381.92,246.85 L 381.8,246.68 L 381.75,246.4 L 381.75,246.07 L 381.75,246.07 L 382.08,246.23 L 382.42,246.35 L 382.42,246.35 L 382.7,246.4 L 383.09,246.4 L 383.76,246.4 L 383.76,246.4 L 384.05,246.29 L 384.32,246.18 L 384.32,246.18 L 384.71,245.9 L 384.94,245.67 L 385.05,245.51 L 385.05,245.51 L 385.11,245.34 L 385.22,245.05 L 385.22,245.05 L 385,245.17 L 384.83,245.23 L 384.83,245.23 L 384.66,245.23 L 384.38,245.23 L 384.16,245.17 L 383.98,245.12 L 383.98,245.12 L 383.82,244.89 L 383.65,244.78 L 383.65,244.78 L 383.54,244.44 L 383.54,244.05 L 383.6,243.71 L 383.65,243.55 L 383.71,243.43 L 383.82,243.43 L 383.82,243.43 L 383.93,243.55 L 384.1,243.71 L 384.1,243.71 L 384.38,243.94 L 384.66,244.05 L 384.94,244.1 L 385.33,244.1 L 385.33,244.1 L 385.61,243.94 L 385.89,243.77 L 385.89,243.77 L 386.06,243.49 L 386.23,242.99 L 386.51,242.37 L 386.51,242.37 L 387.01,243.04 L 387.57,243.77 L 387.57,243.77 L 387.8,244 L 388.07,244.1 L 388.41,244.21 L 388.69,244.21 L 388.69,244.21 L 388.91,244.21 L 388.91,244.21 L 389.25,244.1 L 389.59,244.05 L 389.59,244.05 L 389.64,244.33 L 389.64,244.33 L 389.53,244.55 L 389.36,244.73 L 389.02,245.05 L 389.02,245.05 L 388.47,245.05 L 388.18,245.05 L 387.96,245 L 387.96,245 L 387.74,244.83 L 387.74,244.83 L 387.74,245.17 L 387.74,245.17 L 388.3,246.12 L 388.3,246.12 L 388.58,246.29 L 388.58,246.29 L 388.97,246.51 L 389.42,246.68 L 389.86,246.74 L 390.32,246.74 L 390.32,246.74 L 390.77,246.68 L 391.15,246.57 L 391.15,246.57 L 391.04,246.91 L 390.88,247.13 L 390.65,247.24 L 390.32,247.35 L 390.32,247.35 L 390.65,247.63 L 390.93,247.8 L 391.32,247.96 L 391.32,247.96 L 391.1,248.14 L 390.88,248.3 L 390.65,248.41 L 390.65,248.41 L 390.2,248.41 L 389.7,248.36 L 389.7,248.36 L 389.25,248.14 L 388.86,247.91 L 388.86,247.91 L 388.58,247.63 L 388.41,247.35 L 388.41,247.35 L 388.41,247.8 L 388.41,247.8 L 388.58,248.3 L 388.75,248.8 L 388.75,248.8 L 389.08,249.37 L 389.48,249.87 L 389.48,249.87 L 389.81,250.1 L 390.26,250.32 L 390.7,250.49 L 391.1,250.6 L 391.1,250.6 L 391.43,250.6 L 391.77,250.6 L 392.39,250.49 L 392.39,250.49 L 392.66,250.43 L 392.66,250.43 L 393.23,250.21 L 393.56,250.04 L 393.79,249.87 L 393.79,249.87 L 393.95,249.65 L 394.13,249.48 L 394.29,249.37 L 394.57,249.26 L 394.57,249.26 L 394.57,249.93 L 394.57,249.93 L 394.29,250.37 L 394.29,250.37 L 394.07,250.71 L 393.84,250.88 L 393.61,250.99 L 393.23,251.16 L 393.23,251.16 L 393.45,251.32 L 393.45,251.32 L 393.67,251.49 L 394.01,251.55 L 394.34,251.6 L 394.63,251.6 L 394.63,251.6 L 394.85,251.55 L 395.08,251.44 L 395.52,251.21 L 395.52,251.21 L 395.47,251.49 L 395.36,251.77 L 395.36,251.77 L 395.18,251.94 L 394.9,252.22 L 394.9,252.22 L 394.74,252.33 L 394.52,252.5 L 394.34,252.55 L 394.24,252.67 L 394.24,252.67 L 393.67,252.73 L 393.23,252.67 L 392.22,252.44 L 392.22,252.44 L 392.16,252.44 L 392.16,252.44 L 392.33,252.78 L 392.33,252.78 L 392.72,253.23 L 393.17,253.62 L 393.17,253.62 L 392.95,253.68 L 392.66,253.68 L 392.05,253.62 L 391.49,253.46 L 390.99,253.23 L 390.99,253.23 L 390.65,253.01 L 390.32,252.78 L 390.32,252.78 L 389.92,252.5 L 389.59,252.22 L 389.59,252.22 L 389.08,251.49 L 388.8,251.16 L 388.58,250.88 L 388.58,250.88 L 388.41,250.88 L 388.41,250.88 L 388.69,251.71 L 388.8,252.11 L 389.02,252.5 L 389.02,252.5 L 389.36,253.01 L 389.75,253.46 L 389.75,253.46 L 390.2,254.01 L 390.77,254.57 L 390.77,254.57 L 391.21,254.85 L 391.77,255.19 L 392.33,255.52 L 392.83,255.75 L 392.83,255.75 L 393.5,256.03 L 394.34,256.19 L 395.18,256.3 L 395.92,256.3 L 395.92,256.3 L 396.53,256.19 L 397.26,256.03 L 398.21,255.75 L 398.27,255.86 L 398.27,255.86 L 397.99,256.3 L 397.88,256.59 L 397.7,256.76 L 397.7,256.76 L 397.54,256.92 L 397.37,257.09 L 397.37,257.09 L 396.98,257.26 L 396.64,257.37 L 396.64,257.37 L 396.31,257.43 L 395.97,257.43 L 395.24,257.32 L 395.24,257.32 L 395.41,257.6 L 395.58,257.82 L 395.58,257.82 L 395.8,257.98 L 395.8,257.98 L 396.08,258.21 L 396.31,258.32 L 396.92,258.49 L 396.92,258.6 L 396.92,258.6 L 396.64,258.66 L 396.64,258.66 L 396.14,258.66 L 395.52,258.6 L 394.9,258.49 L 394.4,258.38 L 394.4,258.38 L 393.61,258.1 L 392.83,257.76 L 392.77,257.76 L 392.77,257.76 L 392.83,258.16 L 392.83,258.16 L 393.17,258.89 L 393.4,259.27 L 393.61,259.55 L 393.61,259.55 L 393.29,259.55 L 393,259.5 L 392.39,259.27 L 391.83,258.94 L 391.32,258.6 L 391.32,258.6 L 390.54,257.98 L 390.54,257.98 L 389.59,256.87 L 388.97,256.19 L 388.97,256.19 L 389.08,256.59 L 389.2,256.92 L 389.48,257.65 L 389.48,257.65 L 389.75,258.21 L 390.09,258.83 L 390.09,258.83 L 390.2,259.16 L 390.2,259.16 L 390.65,259.67 L 391.21,260.23 L 391.77,260.73 L 392.33,261.12 L 392.33,261.12 L 393.17,261.73 L 394.01,262.3 L 394.01,262.3 L 394.63,262.58 L 395.36,262.91 L 396.14,263.14 L 396.75,263.36 L 396.75,263.36 L 397.54,263.47 L 398.33,263.58 L 398.33,263.58 L 398.94,263.58 L 399.55,263.53 L 400.17,263.47 L 400.79,263.36 L 400.79,263.36 L 401.4,263.14 L 402.02,262.91 L 402.02,262.91 L 401.9,263.42 L 401.74,263.75 L 401.46,264.09 L 401.06,264.37 L 401.06,264.37 L 400.84,264.53 L 400.62,264.7 L 400.62,264.7 L 400.39,264.76 L 400.22,264.82 L 400.01,264.87 L 399.83,264.92 L 399.83,264.92 L 399.89,265.04 L 399.95,265.15 L 400.22,265.37 L 400.56,265.55 L 400.95,265.65 L 401.74,265.88 L 402.41,266.05 L 402.41,266.05 L 402.19,266.21 L 402.19,266.21 L 401.96,266.33 L 401.68,266.44 L 401.01,266.49 L 400.33,266.49 L 399.78,266.39 L 399.78,266.39 L 398.94,266.05 L 398.54,265.82 L 398.21,265.6 L 398.21,265.6 L 398.1,265.6 L 398.1,265.6 L 398.04,265.82 L 398.04,266.1 L 398.04,266.1 L 398.21,266.39 L 398.21,266.39 L 398.43,266.83 L 398.71,267.22 L 399.38,267.95 L 399.38,267.95 L 398.71,267.89 L 398.38,267.78 L 398.1,267.73 L 398.1,267.73 L 397.04,267.22 L 395.97,266.66 L 395.97,266.66 L 395.63,266.44 L 395.36,266.21 L 395.36,266.21 L 394.79,265.65 L 394.79,265.65 L 394.24,265.1 L 394.24,265.1 L 394.34,265.93 L 394.57,266.77 L 394.57,266.77 L 394.68,267.17 L 394.74,267.39 L 394.79,267.61 L 394.79,267.61 L 394.63,267.55 L 394.4,267.5 L 394.4,267.5 L 393.61,267 L 392.89,266.44 L 392.89,266.44 L 392.27,265.88 L 391.72,265.32 L 391.21,264.7 L 390.77,264.09 L 390.77,264.09 L 390.2,263.36 L 390.2,263.36 L 389.98,262.91 L 389.7,262.52 L 389.7,262.52 L 389.64,262.46 L 389.64,262.46 L 389.64,263.08 L 389.64,263.08 L 389.86,264.03 L 390.15,265.04 L 390.48,265.99 L 390.88,266.83 L 390.88,266.83 L 391.1,267.17 L 391.32,267.44 L 391.32,267.44 L 392.11,268.45 L 392.11,268.45 L 392.5,268.85 L 392.95,269.23 L 392.95,269.23 L 393.95,270.08 L 394.9,270.69 L 395.97,271.25 L 397.15,271.81 L 397.15,271.81 L 397.76,271.98 L 398.94,272.32 L 399.67,272.42 L 400.39,272.6 L 401.17,272.65 L 401.9,272.65 L 401.9,272.65 L 402.69,272.6 L 403.36,272.54 L 403.36,272.54 L 404.42,272.26 L 405.04,272.09 L 405.49,271.92 L 405.49,271.92 L 405.94,271.7 L 406.27,271.59 L 406.44,271.53 L 406.44,271.53 L 406.44,271.92 L 406.39,272.32 L 406.39,272.32 L 406.1,272.98 L 406.1,272.98 L 405.94,273.26 L 405.71,273.49 L 405.43,273.66 L 405.15,273.83 L 404.48,274.05 L 403.92,274.21 L 403.92,274.21 L 403.3,274.21 L 403.3,274.21 L 403.08,274.16 L 402.8,274.1 L 402.8,274.1 L 402.92,274.39 L 402.92,274.39 L 403.42,274.78 L 403.98,275.17 L 403.98,275.17 L 404.26,275.28 L 404.6,275.39 L 405.21,275.56 L 405.21,275.67 L 405.21,275.67 L 404.71,275.84 L 404.26,276.01 L 404.26,276.01 L 403.81,276.01 L 403.3,276.01 L 402.74,275.95 L 402.19,275.89 L 401.12,275.62 L 400.62,275.45 L 400.22,275.28 L 400.22,275.28 L 399.38,274.78 L 398.65,274.27 L 398.65,274.27 L 398.54,274.27 L 398.54,274.27 L 398.54,274.5 L 398.6,274.72 L 398.83,275.28 L 399.17,275.73 L 399.38,276.12 L 399.38,276.12 L 399.89,276.68 L 399.89,276.68 L 399.67,276.68 L 399.49,276.68 L 399.49,276.68 L 398.83,276.46 L 398.21,276.23 L 398.21,276.23 L 397.15,275.67 L 396.58,275.34 L 396.14,275 L 396.14,275 L 395.74,274.61 L 395.24,274.16 L 394.85,273.6 L 394.52,273.15 L 394.52,273.15 L 394.34,273.15 L 394.34,273.15 L 394.29,273.6 L 394.29,273.6 L 394.34,274.1 L 394.4,274.61 L 394.4,274.61 L 394.57,275.11 L 394.63,275.39 L 394.68,275.62 L 394.68,275.62 L 394.52,275.67 L 394.52,275.67 L 393.9,275.34 L 393.56,275.17 L 393.23,274.94 L 393.23,274.94 L 392.33,274.05 L 391.49,273.05 L 391.49,273.05 L 390.37,271.36 L 390.37,271.36 L 389.98,270.8 L 389.98,270.8 L 389.98,270.86 L 389.98,270.86 L 390.32,271.98 L 390.65,273.15 L 390.65,273.15 L 390.82,273.49 L 390.99,273.88 L 391.43,274.61 L 391.93,275.39 L 392.45,276.01 L 392.45,276.01 L 392.72,276.29 L 393,276.51 L 393,276.51 L 394.24,277.69 L 394.24,277.69 L 394.63,278.08 L 395.08,278.42 L 396.02,279.03 L 396.02,279.03 L 397.04,279.59 L 398.1,280.1 L 399.17,280.55 L 400.28,280.88 L 401.46,281.05 L 402.58,281.16 L 403.76,281.1 L 404.98,280.99 L 404.98,280.99 L 405.6,280.82 L 406.21,280.65 L 406.21,280.65 L 407.05,280.37 L 407.78,280.1 L 407.78,280.1 L 408.01,279.92 L 408.12,279.87 L 408.23,279.87 L 408.23,279.87 L 408.23,280.21 L 408.12,280.55 L 408.12,280.55 L 407.73,281.05 L 407.45,281.44 L 407.23,281.66 L 407.23,281.66 L 406.1,282.44 L 406.1,282.44 L 405.71,282.67 L 405.26,282.83 L 404.76,283.01 L 404.37,283.12 L 404.37,283.12 L 403.7,283.12 L 403.03,283.12 L 403.03,283.12 L 403.08,283.23 L 403.08,283.23 L 403.42,283.45 L 403.81,283.67 L 403.81,283.67 L 404.54,283.9 L 404.87,284.01 L 405.26,284.07 L 405.26,284.07 L 405.77,284.07 L 406.33,284.07 L 406.33,284.07 L 406.1,284.35 L 405.88,284.57 L 405.55,284.74 L 405.26,284.91 L 405.26,284.91 L 404.65,285.13 L 404.31,285.19 L 404.03,285.24 L 404.03,285.24 L 403.47,285.24 L 402.86,285.13 L 402.19,284.96 L 401.57,284.68 L 400.33,284.07 L 399.27,283.51 L 399.27,283.51 L 399.27,283.62 L 399.27,283.85 L 399.38,284.12 L 399.38,284.12 L 399.49,284.46 L 399.72,284.85 L 399.72,284.85 L 400.06,285.35 L 400.45,285.92 L 400.45,285.92 z"
             id="path2908"
             style="fill:#009944;fill-opacity:1;fill-rule:evenodd;stroke:#009944;stroke-width:0.12;stroke-linecap:round;stroke-linejoin:round;stroke-miterlimit:10;stroke-dasharray:none;stroke-opacity:1" />
        </g>
      </g>
    </g>
  </g>
</svg>
