<?xml version="1.0" encoding="utf-8" standalone="no"?>
<!DOCTYPE svg PUBLIC "-//W3C//DTD SVG 1.1//EN" "http://www.w3.org/Graphics/SVG/1.1/DTD/svg11.dtd">
<svg version="1.1"
   xmlns="http://www.w3.org/2000/svg"
   xmlns:xlink="http://www.w3.org/1999/xlink"
   width="520" height="585" viewBox="0,0 100,112.5">
  <title>Wappen von Schinznach-Bad</title>
  <desc>Wappen der Schweizer Gemeinde Schinznach-Bad, Kanton Aargau</desc>
  <defs>
    <clipPath id="cpSchild"> <path d="M 2,2 H 98 V 62.5 A 48,48 0 0,1 2,62.5 z" /> </clipPath>
  </defs>
  <path d="M 1,1 H 99 V 62.5 A 49,49 0 0,1 1,62.5 z" stroke="black" stroke-width="2" fill="#0093dd" />
  <g stroke="black" stroke-width="1" fill="#fcdb00" clip-path="url(#cpSchild)">
    <path d="M 26.44,7.7 a 24,23 0 1,0 47.12,0 24.5,21 0 0,1 -47.12,0 z" />
    <path d="M 5.5,38.5 l 12.6,0 3.9,-12 3.9,12 12.6,0 -10.2,7.4 3.9,12 -10.2,-7.4 -10.2,7.4 3.9,-12 z" id="stern" />
    <use x="56" xlink:href="#stern" />
    <path d="M -1,69.5 c 7,0 10,-4 17,-4 s 10,4 17,4 10,-4 17,-4 10,4 17,4 10,-4 17,-4 10,4 17,4 v 7 c -7,0 -10,-4 -17,-4 s -10,4 -17,4 -10,-4 -17,-4 -10,4 -17,4 -10,-4 -17,-4 -10,4 -17,4" id="welle" fill="white" />
    <use y="14" xlink:href="#welle" />
    <use y="28" xlink:href="#welle" />
  </g>
</svg>

