<?xml version="1.0" encoding="UTF-8"?>
<svg version="1.0" viewBox="0 0 337.49 377.14" xmlns="http://www.w3.org/2000/svg">
<defs>
<clipPath id="a">
<path d="m354.48 510.24h63.71v-71.63h-63.71v71.63z"/>
</clipPath>
<clipPath id="b">
<path d="m354.48 510.24h63.71v-71.63h-63.71v71.63z"/>
</clipPath>
</defs>
<g transform="translate(-143.88 -366.29)">
<g transform="matrix(3.9999 0 0 3.9999 -1415.5 -1825.5)">
<g transform="matrix(1.25 0 0 1.25 -50.894 2.0786)">
<g clip-path="url(#b)">
<path d="m354.59 438.7h63.5v39.69 1.63l-0.17 1.62-0.17 1.56-0.28 1.57-0.39 1.57-0.4 1.51-0.5 1.46-0.56 1.45-0.67 1.4-0.67 1.34-0.78 1.34-0.79 1.29-0.89 1.23-0.96 1.23-1.01 1.13-1.05 1.11-1.07 1.07-1.18 0.95-1.17 0.95-1.29 0.9-1.29 0.84-1.29 0.73-1.4 0.72-1.4 0.62-1.45 0.55-1.46 0.51-1.51 0.44-1.52 0.34-1.56 0.28-1.62 0.22-1.57 0.12-1.68 0.06-1.63-0.06-1.62-0.12-1.57-0.22-1.56-0.28-1.52-0.34-1.51-0.44-1.51-0.51-1.4-0.55-1.4-0.62-1.4-0.72-1.34-0.73-1.29-0.84-1.23-0.9-2.36-1.9-1.05-1.07-1.07-1.11-1.01-1.13-0.95-1.23-0.9-1.23-0.79-1.29-0.78-1.34-0.72-1.34-0.62-1.4-0.56-1.45-0.5-1.46-0.45-1.51-0.34-1.57-0.28-1.57-0.22-1.56-0.12-1.62-0.05-1.63v-39.69z" fill-rule="evenodd"/>
</g>
<g clip-path="url(#a)">
<path d="m355.99 440.11h60.69v38.11 1.57l-0.11 1.57-0.21 1.5-0.29 1.52-0.34 1.45-0.39 1.46-1 2.8-0.62 1.34-0.67 1.34-0.73 1.29-0.79 1.23-0.84 1.18-0.89 1.18-0.95 1.05-1.01 1.07-1.06 1-1.12 1.02-1.12 0.89-1.24 0.84-1.22 0.79-1.24 0.73-1.35 0.66-1.34 0.62-1.34 0.56-1.45 0.45-1.41 0.44-1.45 0.34-1.51 0.28-1.51 0.17-1.57 0.11-1.57 0.06-1.57-0.06-1.51-0.11-1.51-0.17-1.52-0.28-1.45-0.34-1.45-0.44-1.41-0.45-1.39-0.56-1.35-0.62-1.29-0.66-1.28-0.73-1.23-0.79-1.18-0.84-1.12-0.89-1.13-1.02-1.06-1-1-1.07-0.96-1.05-0.89-1.18-0.84-1.18-0.79-1.23-0.73-1.29-0.66-1.34-0.63-1.34-0.55-1.4-0.45-1.4-0.45-1.46-0.33-1.45-0.22-1.52-0.23-1.5-0.11-1.57-0.06-1.57v-38.11zm34.71 58.71 0.07-0.12 0.72 0.29 0.39 0.05 0.39 0.06 0.45 0.05 0.51-0.05 0.61-0.11 0.73-0.29 0.61-0.32 0.34-0.18 0.22-0.16 0.46-0.5 0.22-0.23 0.16-0.23 0.12-0.27 0.11-0.29 0.23-0.44 0.11-0.4 0.05-0.44 0.06-0.45v-0.45l-0.11-0.73 0.78-0.66 0.34-0.4 0.27-0.44 0.17-0.34 0.17-0.39 0.06-0.4 0.11-0.39v-0.78l-0.06-0.84-0.11-0.34-0.11-0.27-0.06-0.23-0.11-0.23-0.33-0.5v-0.06l0.61-0.21 0.5-0.29 0.45-0.34 0.45-0.39 0.34-0.44 0.28-0.51 0.22-0.5 0.17-0.62 0.06-0.66 0.05-0.29v-0.34l-0.11-0.67-0.17-0.67-0.28-0.61-0.39-0.56-0.44-0.5-0.23-0.23-0.29-0.22-0.22-0.06 0.34-0.17 0.28-0.22 0.5-0.45 0.45-0.44 0.22-0.46 0.29-0.5 0.16-0.56 0.12-0.44v-0.4l-0.06-0.39-0.11-0.84-0.11-0.34-0.12-0.39-0.22-0.33-0.17-0.28-0.56-0.68-0.27-0.21-0.34-0.29-0.4-0.23-0.5-0.27-0.56-0.17-0.62-0.11-0.05-0.39-0.06-0.34-0.28-0.95-0.22-0.45-0.23-0.39-0.39-0.39-0.5-0.34-0.34-0.27-0.39-0.23-0.61-0.23-0.62-0.16-0.67-0.06h-0.62l-0.56 0.11-0.44 0.17-0.23 0.06-0.17 0.05-0.56-0.67-0.56-0.72-0.95-1.41 0.17 0.12 0.33 0.06 0.4 0.05h0.55 0.51l0.56-0.05 0.61-0.12 0.5-0.17 0.57-0.17 0.5-0.16 0.5-0.22 0.79-0.46 0.5-0.27 0.45-0.29 0.78-0.5 0.73-0.62h0.11l-0.16 0.28-0.12 0.51-0.05 0.56-0.06 0.61v0.45l0.11 0.34 0.12 0.34 0.28 0.61 0.22 0.39 0.11 0.17 0.18 0.11 0.16-0.16 0.11-0.29 0.11-0.22 0.34 0.73 0.33 0.73 0.51 0.84 0.22 0.16 0.22 0.17 0.57 0.34 0.56 0.17 0.33 0.1 0.29 0.06 0.05-0.06-0.05-0.1-0.06-0.11-0.17-0.46-0.06-0.22-0.05-0.16 0.61 0.44 0.62 0.34 0.67 0.17 0.67 0.16 0.45 0.12h0.45l0.67-0.12 0.62-0.16 0.5-0.17 0.28-0.06 0.23-0.17 0.11-0.17-0.45-0.44-0.45-0.56-0.33-0.51h0.11l0.22 0.17 0.28 0.17 0.56 0.22 0.56 0.17 0.61 0.11 0.68 0.06h0.61l0.62-0.06 0.62-0.11 0.61-0.11 0.56-0.17 1.29-0.45-0.06-1.17-0.11-0.95-0.11-0.5-0.11-0.46-0.45-1.06-0.45-0.78-0.22-0.4-0.17-0.21 0.39-0.06h0.39l0.11-0.12-0.05-0.55-0.11-0.57-0.17-0.33-0.23-0.28-0.22-0.34-0.22-0.22-0.4-0.28-0.55-0.34-0.56-0.27-0.46-0.17-0.72-0.17-0.73-0.05-0.28-0.06-0.34-0.06-0.27-0.17v-0.23l0.33-0.21h0.28l0.84 0.05 0.78 0.06 0.57-0.11 0.5-0.06 0.4-0.17 0.5-0.22 0.45-0.28 0.44-0.28 0.39-0.4 0.34-0.38 0.33-0.4 0.28-0.44 0.29-0.45 0.11-0.34 0.11-0.33 0.22-0.62h-0.55-0.57l0.17-0.22 0.22-0.29 0.4-0.66 0.28-0.57 0.22-0.44 0.12-0.51 0.11-0.39 0.05-0.95 0.06-1.17-0.79 0.16-0.5 0.12-0.28 0.05 0.33-0.62 0.34-0.55 0.11-0.51 0.11-0.5-0.11-0.96-0.16-0.44h-0.57l-0.56 0.11-0.5 0.11-0.56 0.17-0.56 0.28h-0.06l-0.05-0.62v-0.27l-0.11-0.23-0.39-0.05-0.56 0.05-0.51 0.11-0.45 0.12-0.84 0.38-0.78 0.46 0.05-0.73v-0.34l-0.05-0.34h-0.73-0.78l-0.5 0.11-0.57 0.18-0.55 0.22-0.51 0.22-0.44 0.34-0.51 0.34-0.56 0.55-0.34 0.51-0.27 0.5-0.18 0.34-0.11 0.39-0.16 0.73-0.06 0.27v0.34 0.67l-0.11 0.51-0.06 0.28-0.05 0.16-0.12 0.12-0.22 0.17h-0.28l-0.11-0.06-0.06-0.11-0.11-0.34-0.06-0.33v-0.4l0.06-0.78 0.06-0.61-0.06-0.46-0.06-0.55-0.17-0.56-0.11-0.39-0.33-0.51-0.4-0.39-0.44-0.33-0.9-0.51h-0.11l-0.39 0.56-0.23 0.61-0.33-0.38-0.34-0.4-0.5-0.39-0.51-0.39-0.33-0.17-0.51-0.17-0.45-0.11h-0.39l-0.16 0.11-0.23 0.22-0.27 0.34-0.52 0.62-0.38 0.61-0.12 0.34-0.16 0.23-0.18 0.33-0.1 0.33-0.17 0.57-0.11 0.56-0.12 0.5v1.12 0.61l0.12 0.84 0.17 0.84 0.05 0.12-0.05 0.05-1.24-0.67-0.78-0.45-0.28-0.11-0.22-0.05-0.18 0.83-0.16 0.78 0.05 1.12 0.11 0.4 0.18 0.44 0.33 0.79 0.33 0.5 0.4 0.56-0.28-0.06-0.34-0.05-0.62-0.11 0.12 0.56v0.28l0.39 0.56 0.39 0.67 0.12 0.05 0.05 0.06 0.39 0.28 0.45 0.23 0.45 0.22 0.45 0.11 0.94 0.17-0.05 0.06-0.61 0.44-0.45 0.11 0.17 0.28 0.22 0.23 0.61 0.33 0.4 0.17 0.34 0.17 0.39 0.05 0.45 0.06 0.44 0.06 0.5-0.06 0.79-0.06 0.45-0.11 0.28-0.05h0.16l-0.84 0.56-0.89 0.56-0.95 0.45-0.95 0.38-1.18 0.28-0.33 0.06h-0.45l-0.45-0.06-0.28-0.05-0.22-0.11-0.4-0.28-0.22-0.22-0.68-1.07-0.11-0.5-0.16-0.56-0.17-0.84-0.17-0.9-0.11-0.89-0.12-0.95v-0.9-0.89l0.12-1.8 0.17-1.06 0.22-1.17 0.33-1.41-0.11-0.05-0.39 0.28-0.22 0.11-0.23 0.12-0.39 0.11-0.45 0.05h-0.44l-0.4-0.05-0.89-0.29-1.01-0.33-0.51-0.22-0.27-0.17h-0.23v0.33l0.06 0.28 0.11 0.67 0.17 1.07 0.05 1.06v1.06 1.02 1.73 1.73l-0.05 1.12-0.06 1.06-0.22 1.18-0.11 0.22-0.17 0.28-0.17 0.18-0.22 0.16-0.57 0.23-0.32 0.11-0.4 0.11-0.5 0.05h-0.57-0.44l-0.45-0.11-1.01-0.34-0.95-0.39-0.78-0.44-0.46-0.4 0.23 0.06 0.28 0.06h0.4 0.5l1-0.12 0.51-0.16 0.28-0.06 0.34-0.17 0.39-0.22 0.22-0.23 0.11-0.11 0.06-0.11-0.44-0.17-0.18-0.11-0.16-0.22v-0.06l0.5-0.06 0.45-0.05 0.5-0.23 0.51-0.22 0.33-0.28 0.28-0.22 0.34-0.45 0.16-0.33 0.34-0.9v-0.17-0.17l-0.17 0.06-0.17 0.05h-0.39-0.39l0.39-0.55 0.39-0.62 0.17-0.33 0.12-0.34 0.11-0.34v-0.33-0.9l-0.06-0.89-0.11-0.68-0.17-0.66h-0.17l-2.12 1.34v-0.11l0.22-0.68 0.06-0.39 0.06-0.34v-0.89l-0.12-0.9-0.22-0.89-0.29-0.84-0.44-0.78-0.45-0.79-0.67-0.84-0.62-0.89-0.22 0.05-0.34 0.11-0.5 0.29-1.4 0.94-0.56 0.45-0.11 0.17-0.12 0.17-0.11-0.17-0.11-0.33-0.12-0.34-0.1-0.17-0.11-0.06-0.51 0.28-0.44 0.4-0.45 0.33-0.23 0.4-0.23 0.44-0.22 0.45-0.11 0.45-0.05 0.44v0.45 0.51l0.11 0.56 0.11 0.61v0.79l-0.11 0.17-0.11 0.16-0.23 0.06h-0.23l-0.16-0.11-0.17-0.18-0.11-0.32-0.11-0.4-0.11-1.17-0.12-0.62-0.17-0.56-0.16-0.45-0.23-0.44-0.28-0.4-0.67-0.67-0.39-0.34-0.79-0.56-0.5-0.22-0.62-0.22-0.67-0.17-0.33-0.11h-0.34-0.84l-0.56 0.11 0.06 0.67-0.56-0.22-0.57-0.23-0.55-0.11-0.56-0.05-0.62 0.05-0.56 0.06-0.05 0.39v0.39l-0.34-0.11-0.45-0.17-0.62-0.06-0.55-0.1-0.51 0.05v0.61 0.51l0.06 0.56 0.17 0.55 0.11 0.51 0.17 0.4 0.17 0.33-0.34 0.05h-0.34l-0.28 0.06-0.16 0.11-0.11 0.06-0.06 0.56v0.51l0.06 0.5 0.11 0.45 0.16 0.44 0.23 0.45 0.28 0.39 0.38 0.45 0.4 0.34 0.39 0.33-0.39 0.06-0.4-0.06h-0.38l0.11 0.62 0.17 0.67 0.22 0.5 0.33 0.45 0.4 0.67 0.28 0.45 0.34 0.39 0.61 0.56 0.28 0.22 0.28 0.12h0.4 0.38l0.51-0.18 0.73-0.16 0.72-0.11h0.28l0.22 0.06 0.12 0.11 0.11 0.1 0.06 0.34-0.06 0.18-0.11 0.11-0.17 0.05h-0.22-0.45-0.56-0.56l-0.67 0.11-0.67 0.23-0.62 0.27-0.56 0.46-0.17 0.22-0.17 0.33-0.27 0.62-0.12 0.51 0.06 0.22h0.11l0.56-0.06 0.5-0.05 0.17 0.11-0.39 0.22-0.39 0.28-0.34 0.44-0.33 0.63-0.29 0.66-0.16 0.57-0.06 0.67-0.05 0.28v0.33l-0.11 0.29-0.12 0.27-0.11 0.28-0.11 0.34 0.17 0.16 0.33 0.23 0.56 0.28 0.62 0.28 0.61 0.17 0.68 0.17 0.67 0.05h0.67l0.68-0.05 0.66-0.11 0.62-0.18 0.67-0.28 0.67-0.33 0.51-0.34-0.4 0.62-0.39 0.62-0.34 0.5-0.5 0.78v0.11l0.06 0.06 0.17 0.06 0.39 0.11 0.79 0.16 0.72 0.06h0.78l0.4-0.11 0.33-0.11 1.4-0.57 0.39-0.27 0.4-0.34-0.06 0.56-0.17 0.78h0.28 0.28l0.28-0.05 0.28-0.11 0.56-0.28 0.45-0.39 0.4-0.4 0.32-0.5 0.12-0.11 0.06-0.17 0.05-0.17 0.11-0.33 0.12-0.4 0.06-0.39v-0.84-0.05l0.32 0.23 0.23 0.21h0.11l0.18-0.21 0.16-0.29 0.22-0.55 0.12-0.57 0.05-0.61-0.05-0.45 0.39 0.33 0.33 0.23 0.79 0.5 1.01 0.51 0.45 0.22 0.61 0.16 0.62 0.12 0.5 0.11h0.73 0.67l0.67-0.17 0.84-0.16 0.39-0.11 0.4-0.11 0.27-0.23-0.11 0.5-1 1.8-0.23 0.38-0.33 0.51-0.4 0.45-0.61-0.17-0.67-0.17-0.67-0.16-0.62-0.06-0.84 0.06-0.96 0.27-0.55 0.34-0.45 0.34-0.39 0.39-0.39 0.55-0.23 0.56-0.17 0.57-0.05 0.5-0.06 0.5-0.62-0.05-0.61 0.05-0.39 0.11-0.39 0.06-0.56 0.28-0.51 0.34-0.45 0.33-0.34 0.45-0.33 0.5-0.22 0.51-0.17 0.56-0.12 0.61-0.05 0.89 0.05 0.46 0.12 0.38 0.22 0.57 0.28 0.5 0.34 0.39 0.45 0.4 0.45 0.39 0.39 0.28-0.62 0.5-0.61 0.56-0.4 0.5-0.33 0.57-0.17 0.38-0.06 0.46-0.06 0.44v0.45 0.56l0.12 0.5 0.11 0.5 0.17 0.51 0.22 0.45 0.68 0.78 0.44 0.34 0.34 0.22 0.51 0.28 0.44 0.11 0.45 0.17v0.12l-0.11 0.16-0.17 0.23-0.17 0.38-0.12 0.4-0.1 0.39v0.45l-0.06 0.44 0.06 0.46 0.05 0.44 0.11 0.45 0.34 0.78 0.28 0.34 0.28 0.33 0.56 0.62-0.05 0.61-0.06 0.56 0.06 0.51 0.11 0.61 0.16 0.51 0.12 0.44 0.22 0.46 0.34 0.38 0.22 0.28 0.11 0.12 0.11 0.11 0.06 0.11 0.06 0.05 0.56 0.4 0.61 0.33 0.68 0.29 0.33 0.05 0.33 0.06h0.51 0.56l0.56-0.11 0.56-0.23 0.5-0.22v0.33 0.39l0.06 0.68 0.16 0.61 0.29 0.67 0.33 0.61 0.22 0.23 0.29 0.29 0.33 0.27 0.34 0.23 0.39 0.22 0.4 0.17 0.38 0.16 0.46 0.12 0.38 0.06h0.34l0.5-0.06 0.79-0.12 0.39-0.11 0.34-0.17 0.44-0.27 0.34-0.34 0.39-0.34 0.28-0.34 0.28-0.5 0.23-0.55 0.22-0.63 0.05-0.55v-0.56z" fill="#fff" fill-rule="evenodd"/>
<path d="m388.02 466.47-0.34-0.11-0.61-0.17h-0.62l-0.61 0.05-0.62 0.06 0.28-0.5 0.34-0.62 0.61-1.12 0.12 0.05 1.56 2.36h-0.11z" fill="#fff" fill-rule="evenodd"/>
<path d="m382.98 468.26v0l0.5-0.72 0.5-0.73 0.91-1.52v0l0.22-0.45 0.28-0.39 0.89-2.01v0l0.17 0.05v0l0.23 0.34 0.27 0.34v0l0.68 1.06v0l0.78 1.23 0.84 1.18v0l0.34 0.44v0l0.11 0.12v0l0.56 0.66v0l0.17-0.05v0l0.27-0.16v-0.11 0l-1.34-1.68-1.23-1.8v0l-0.22-0.27-0.11-0.4-0.28-0.67v0-0.11 0l0.55 0.34 0.57 0.33v0l0.44 0.17 0.51 0.11 0.56 0.11 0.44 0.06v0h0.68l0.61-0.06v0l0.34-0.06 0.34-0.16 0.67-0.23v0l0.72-0.33 0.79-0.4 0.78-0.44 0.84-0.51 1.57-1.06 1.34-0.95v0l0.17-0.06 0.05 0.11v0l-0.38 0.62-0.34 0.62v0l-0.44 1.01-0.23 0.61-0.11 0.45v0 0.39 0.45l0.16 0.84v0l0.12-0.23 0.11-0.23v0l0.16-0.21 0.29-0.29 0.28-0.22 0.11-0.06h0.16v0l-0.11 0.57v0.55 0l0.06 0.68 0.16 0.55 0.29 0.56 0.33 0.57v0l0.17 0.27v0l0.56 0.46v0l-0.05-0.18v0l-0.06-0.44v-0.51-0.5l0.06-0.23 0.11-0.11v0l0.11-0.05v0l0.5 0.56 0.45 0.44 0.5 0.34 0.68 0.34v0l1.28 0.39v0l0.56 0.11 0.28 0.06h0.34v0l0.34-0.11 0.33-0.11 0.06-0.12v0l-0.17-0.17v0l-0.5-0.78-0.45-0.79v0l-0.34-0.78-0.27-0.79v0-0.05 0l0.78 0.62v0l0.45 0.34 0.56 0.27 0.5 0.28 0.5 0.17v0l0.9 0.34v0l0.51 0.11 0.55 0.05h0.56l0.57-0.05 1.05-0.22 1.07-0.23v0l0.45-0.28v0-0.44 0l-0.06-0.45v0l-0.11-0.67-0.22-0.68-0.29-0.67-0.33-0.62v0l-0.45-0.5v0l-0.33-0.44v0l-0.34-0.34-0.44-0.29-0.52-0.27-0.44-0.17v-0.11 0h0.44 0.4v0l0.73 0.17 0.39 0.06h0.34v0l0.39-0.12v0l-0.06-0.17v0l-0.28-0.44-0.28-0.34v0l-0.84-0.61v0l-0.45-0.18-0.45-0.16-0.89-0.23v0l-0.56-0.05-0.56-0.11-0.22-0.06-0.28-0.17-0.17-0.16-0.17-0.23v0l-0.06-0.17v0-0.28-0.22 0l0.23-0.39v0l0.11-0.17 0.23-0.11 0.16-0.11 0.28-0.06 0.45-0.05 0.45 0.05v0h0.39 0.56l0.73-0.11v0l0.56-0.17 0.55-0.28v0l0.57-0.39 0.61-0.51 0.23-0.34 0.22-0.32 0.17-0.29 0.11-0.33v0h-0.73-0.39l-0.39-0.06v0l-0.51-0.16v0-0.12-0.11 0l0.45-0.23 0.45-0.22v0l0.56-0.5 0.51-0.56v0l0.22-0.45 0.28-0.61 0.23-0.62 0.16-0.45v0l0.06-0.5v-0.51 0l-0.28 0.11-0.34 0.06-0.67 0.12v0l-0.89 0.05v0l0.28-0.45 0.22-0.39v0l0.33-0.51 0.23-0.5 0.22-0.56 0.17-0.55v0-0.4-0.33l-0.11-0.06v0l-0.56 0.11-0.5 0.17v0l-0.51 0.22-0.45 0.23v0l-0.5 0.33-0.45 0.34v0h-0.22v0l0.11-0.95 0.06-0.9v0l-0.4 0.06v0l-0.55 0.16-0.63 0.29-0.61 0.27-0.45 0.34v0l-0.61 0.5-0.62 0.46v0-0.4-0.33 0l0.11-0.9 0.17-0.84v0h-0.45v0l-0.34 0.06-0.38 0.11-0.73 0.28v0l-0.5 0.22v0l-0.51 0.34-0.51 0.39-0.44 0.5-0.34 0.51v0l-0.11 0.28-0.17 0.33-0.17 0.73v0l-0.11 0.73-0.05 0.72-0.17 0.73-0.12 0.4-0.16 0.33v0l-0.06 0.11-0.11 0.11-0.28 0.11-0.34 0.12h-0.33v0l-0.29-0.17v0l-0.22-0.06-0.22-0.11v0l-0.11-0.16-0.17-0.23-0.12-0.22-0.05-0.23v-1.73 0-1.07 0-0.22l-0.11-0.22-0.22-0.56-0.34-0.5-0.34-0.34v0l-0.22-0.17h-0.11v0l-0.11 0.33-0.11 0.34v0l-0.06 1v0.63l-0.06 0.33v0l-0.22 0.06v0l-0.12-0.34-0.11-0.34v0l-0.16-0.44-0.29-0.45-0.28-0.39-0.33-0.4-0.33-0.33-0.4-0.33-0.44-0.28-0.4-0.23v0l-0.78-0.22v0l-0.61 0.78-0.52 0.84-0.32 0.9-0.18 0.5-0.11 0.44v0l-0.05 0.51v0 0.84 0 0.78l0.05 0.39 0.06 0.4v0l0.23 0.89 0.11 0.45 0.05 0.45v0l-0.11 0.06v0l-0.78-0.18-0.68-0.22v0l-0.22-0.11-0.17-0.11v0l-0.79-0.4v0l-0.05 0.68v0.34 0.33 0l0.11 0.51 0.23 0.44 0.22 0.51 0.28 0.44 0.62 0.9 0.66 0.73v0.11 0l-0.32 0.11h-0.46-0.78v0l0.11 0.22v0l0.4 0.4v0l0.39 0.21 0.39 0.18 0.73 0.22 0.78 0.17 0.78 0.11v0l0.12 0.16v0l-0.17 0.34v0l-0.4 0.45-0.39 0.39v0.11 0l0.68 0.17 0.78 0.06 0.79 0.05 0.72-0.05v0l0.5-0.06 0.68-0.17 0.67-0.16 0.56-0.22v0l0.34-0.18 0.84-0.66v0-0.12 0l-0.5-0.73-0.52-0.67v0l-0.66-1.06-0.57-1.06v0l-0.38-0.79-0.4-0.84-0.67-1.73v0l-0.39-0.95-0.17-0.51-0.11-0.5v0l0.06-0.06v0l0.16 0.06v0l1.01 2.24 0.51 1.06 0.5 1.12 0.61 1.06 0.62 1.01 0.67 1.01 0.73 0.95h0.11v0l2.18-1.9v0l4.48-3.98v0l1.91-1.68v0l0.06 0.23v0l-0.45 0.45-0.45 0.5v0l-2.13 1.96v0l-1.51 1.51v0l-1.18 1.06v0l-2.52 2.24v0l0.06 0.17v0l1.17 1.06 1.24 1.07 1.34 0.89 1.35 0.9v0l1.11 0.62 1.13 0.55v0l1.45 0.73v0l-0.06 0.11-0.16 0.06v0l-0.95-0.39-0.96-0.4v0l-1.56-0.78v0l-0.57-0.28-0.55-0.28v0l-0.79-0.5-0.78-0.57v0l-1.29-1-1.23-1.06v0l-0.17-0.22-0.28-0.18v0l-0.22 0.18-0.4 0.28-0.61 0.5v0l-1.01 0.84-1.07 0.78v0l-0.89 0.56-1.12 0.61v0l-1.01 0.46v0l-0.44 0.16-0.45 0.11v0l-0.9 0.17v0l-0.39 0.06h-0.39l-0.34-0.06v0l-0.67-0.11-0.34-0.11-0.33-0.22v0l-0.28-0.18-0.29-0.28-0.44-0.56-0.28-0.44-0.12-0.23v0l-0.33-1.22-0.28-1.35-0.22-1.34-0.06-1.24v0-1.45l0.06-1.46v0l0.05-0.84 0.12-0.89v0l0.11-0.68v0l0.11-0.38v0l-0.45 0.06h-0.34l-0.84-0.18v0l-0.44-0.05v0l-0.73-0.28-0.78-0.22v0l0.11 0.61 0.05 0.56v0l0.11 1.17 0.06 1.24v2.46 0l0.06 1.46-0.06 1.45v0l-0.11 1.35v0 0.61l-0.06 0.34-0.11 0.33v0l-0.11 0.28-0.17 0.23-0.17 0.21-0.16 0.18-0.46 0.33-0.55 0.22v0l-0.67 0.23-0.68 0.11h-0.67l-0.67-0.05-0.67-0.17-0.62-0.17-0.67-0.28-0.61-0.28v0l-0.34-0.17-0.28-0.16v0l-0.84-0.63v0l-0.56-0.32v0l-0.17-0.18v0l-1.34-1-1.35-1.01h-0.11v0l-0.22 0.23v0l-0.95 0.83-1.02 0.73v0l-1.34 0.95-1.45 1.01v0l-0.84 0.45-1.18 0.61-1.39 0.67-0.73 0.28-0.68 0.29v0l-0.16-0.06-0.11-0.05v0-0.12 0l0.78-0.34v0l1.11-0.61 1.07-0.61 2.13-1.35v0l2.24-1.45v0l0.84-0.62 0.84-0.67v0l0.61-0.62v0l-2.91-2.57v0l-0.22-0.17v0l-2.86-2.69v0l-0.39-0.39v0l-1.62-1.73v0l-0.4-0.45-0.33-0.45 0.06-0.28v0l1.11 1.07v0l1.62 1.56 1.63 1.46 3.3 2.96v0l0.29 0.23v0l1.12 0.95h0.16v0l0.51-0.5 0.28-0.29 0.22-0.28v0l0.62-0.89 0.61-0.95 0.51-1.07 0.44-1v0l0.23-0.62 0.17-0.62v0l0.95-2.79 0.06-0.12v0 0.4l-0.06 0.56-0.34 1.4-0.39 1.39-0.28 0.9v0l-0.34 0.78v0l-0.56 1.18-0.34 0.61-0.32 0.57v0l-0.34 0.44-0.34 0.45v0l-0.5 0.5v0l-0.17 0.18-0.17 0.22v0l0.28 0.22 0.34 0.22 0.61 0.39v0l0.34 0.23 0.39 0.22v0l0.22 0.11v0l0.34 0.12 0.34 0.05v0l0.61 0.11h0.68l0.66-0.05 0.62-0.06v0l0.45-0.05 0.45-0.17v0-0.06 0l-1.24-0.89v0-0.11 0h0.74 0.66v0l0.57-0.11 0.67-0.23 0.61-0.34 0.28-0.11 0.17-0.17v0l0.29-0.33 0.27-0.34v0-0.11 0h-0.45l-0.45-0.06-0.44-0.05-0.4-0.17v0l0.68-0.62 0.33-0.33 0.28-0.33v0l0.12-0.18 0.11-0.22v0l0.33-0.61 0.23-0.56 0.05-0.22 0.06-0.29 0.06-0.33v-0.34l-0.12-1.06v0l-0.45 0.39-0.78 0.5-1.29 0.84v0l-0.67 0.4-0.44 0.16v0l0.38-0.73 0.34-0.72v0l0.12-0.45v0l0.16-0.84 0.06-0.95v-0.9l-0.06-0.45-0.05-0.39v0l-0.45-1.11v0l-0.39-0.73-0.39-0.68-0.9-1.34v0l-0.28 0.11-0.4 0.17-0.67 0.4v0l-0.22 0.16-0.22 0.28-0.51 0.62-0.89 1.17v0l-0.11-0.78-0.11-0.73v0l-0.18-0.28v0h-0.11v0l-0.28 0.28-0.27 0.34v0l-0.23 0.33-0.17 0.45-0.11 0.45-0.11 0.39v0 0.34 0.39l0.11 0.89 0.11 0.9v0.39l-0.05 0.28v0l-0.17 0.28-0.11 0.17-0.18 0.16-0.22 0.12v0l-0.28 0.17v0h-0.22l-0.34-0.06-0.33-0.11-0.23-0.06v0l-0.22-0.22-0.22-0.34-0.17-0.33-0.11-0.28v0l-0.12-0.45-0.06-0.39-0.05-0.84v0l-0.11-0.56-0.17-0.62-0.22-0.61-0.11-0.28-0.17-0.17v0l-0.34-0.39v0l-0.28-0.28v0l-0.62-0.34-0.56-0.33-0.66-0.23-0.68-0.11v0l-0.39-0.05h-0.45v0l0.11 0.5 0.18 0.44v0l0.16 0.4 0.05 0.16 0.06 0.23-0.11 0.05v0l-0.5-0.44-0.5-0.4v0l-0.46-0.22-0.56-0.22-0.55-0.22-0.45-0.06v0h-0.5-0.51v0l0.11 0.39 0.17 0.39 0.16 0.39 0.23 0.34-0.11 0.11v0l-0.34-0.28-0.44-0.17v0l-0.34-0.22-0.4-0.23v0l-0.33-0.11-0.39-0.05-0.73-0.12v0 0.4 0.39 0l0.11 0.39 0.11 0.44v0l0.17 0.57 0.17 0.5 0.23 0.45 0.33 0.5v0h-1.57v0 0.62l0.12 0.5 0.16 0.45 0.34 0.56v0l0.45 0.67 0.5 0.62v0l0.67 0.67v0l0.17 0.11 0.17 0.17v0 0.17 0l-0.45 0.11-0.39 0.05v0l-0.5 0.06-0.46-0.06v0l0.23 0.57v0l0.39 0.61 0.5 0.62 0.62 0.61 0.28 0.28 0.28 0.11v0l0.22 0.06h0.34l0.73-0.11 0.84-0.17 0.39-0.05 0.34 0.05v0l0.22 0.06 0.28 0.16v0l0.34 0.34 0.16 0.17 0.11 0.22 0.12 0.16v0.23 0.23l-0.12 0.28v0l-0.11 0.22-0.21 0.17v0l-0.23 0.11-0.23 0.05-0.61 0.06h-1.13v0l-0.55 0.06-0.56 0.11v0l-0.23 0.05-0.22 0.12v0l-0.73 0.5v0l-0.16 0.28-0.18 0.28v0h0.45 0.34 0.28l0.22 0.11 0.23 0.11v0l0.28 0.23 0.28 0.28v0.22 0l-0.34 0.05v0l-0.39 0.18-0.45 0.22-0.39 0.23-0.28 0.28v0l-0.33 0.38-0.23 0.51-0.17 0.5-0.11 0.51v0l-0.17 1.06v0l-0.16 0.51-0.12 0.5v0l0.4 0.22 0.44 0.11 0.4 0.17 0.44 0.06 0.9 0.06h0.9v0h0.5l0.55-0.06v0l0.46-0.17 0.67-0.23 1-0.45v0l0.79-0.44 0.73-0.45v0l0.44-0.45v0l0.18-0.11 0.11-0.11v0 0.34 0l-0.17 0.56-0.28 0.61-0.62 1.12v0l-0.22 0.39-0.28 0.34-0.56 0.67v0 0.12 0l0.56 0.05 0.56 0.06v0l0.67-0.06 0.73-0.17 0.73-0.22 0.61-0.28v0l0.67-0.4 0.62-0.44v0l0.16-0.22v0h0.12v0l0.11 0.27v0.39l0.11 0.68v0l0.39-0.28 0.4-0.34v0l0.22-0.34 0.17-0.33 0.11-0.45 0.12-0.39v0l-0.06-0.39v0-0.57 0l-0.12-0.27-0.16-0.39-0.23-0.34-0.16-0.28v0h0.28l0.27 0.06 0.45 0.17 0.39 0.22 0.45 0.33v0l0.11-0.22v0l0.06-0.28v-0.22 0-0.28-0.23 0l-0.12-0.45v0l-0.05-0.28-0.11-0.33v0l-0.16-0.39-0.29-0.51-0.5-0.84v0l-0.39-0.44 0.05-0.12 2.02 1.63v0l1.01 0.78v0l0.78 0.62v0l0.67 0.33 0.67 0.34v0l0.84 0.28 0.84 0.22v0l0.29 0.06h0.27 0.62v0l0.73 0.05v0l0.45-0.05 0.55-0.11 0.57-0.17 0.45-0.23v0l0.84-0.61v0h0.16 0.11v0 0.73 0.39l-0.11 0.33v0l-0.28 0.9-0.39 0.78-0.45 0.84-0.5 0.73v0l-0.34 0.5-0.39 0.4v0.1l0.28 0.4z" fill="#094" fill-rule="evenodd" stroke="#094" stroke-linecap="round" stroke-linejoin="round" stroke-miterlimit="10" stroke-width=".12"/>
<path d="m383.37 496.3v0l0.56-0.56 0.45-0.28 0.51-0.28 0.66-0.23v0l-0.55-0.22-0.51-0.22v0l-0.39-0.28-0.23-0.12-0.16-0.11v0 0.63l-0.06 0.55-0.11 0.5-0.17 0.62v0z" fill="#0093dd" fill-rule="evenodd" stroke="#0093dd" stroke-linecap="round" stroke-linejoin="round" stroke-miterlimit="10" stroke-width=".12"/>
<path d="m388.97 495.86v0l0.05-0.46-0.05-0.38-0.06-0.85v0l-0.44 0.28-0.4 0.18-0.95 0.32v0l0.73 0.23 0.33 0.17 0.34 0.17v0l0.45 0.34v0z" fill="#0093dd" fill-rule="evenodd" stroke="#0093dd" stroke-linecap="round" stroke-linejoin="round" stroke-miterlimit="10" stroke-width=".12"/>
<path d="m396.47 492.95v0l0.28-0.18 0.23-0.22 0.39-0.5v0l0.28-0.45 0.23-0.45v0l0.11-0.56 0.05-0.61-0.05-0.62-0.17-0.5v0l-0.28-0.56-0.34-0.56v0l-0.34-0.17v0l-0.16 0.5-0.17 0.51-0.28 0.44-0.28 0.4v0l-0.61 0.5-0.46 0.33-0.38 0.17v0l-0.45 0.17-0.46 0.17v0l0.57 0.17 0.56 0.27v0l0.28 0.18 0.28 0.22v0l0.56 0.56 0.22 0.11v0l0.23 0.34 0.11 0.16 0.05 0.18v0z" fill="#0093dd" fill-rule="evenodd" stroke="#0093dd" stroke-linecap="round" stroke-linejoin="round" stroke-miterlimit="10" stroke-width=".12"/>
<path d="m376.15 492.49v0l0.22-0.27 0.17-0.23v0l0.56-0.5 0.34-0.22 0.33-0.23 0.4-0.16 0.33-0.18 0.39-0.05 0.39-0.06v-0.05 0l-0.73-0.18-0.33-0.11-0.33-0.1v0l-0.4-0.29-0.39-0.28-0.28-0.33-0.28-0.34-0.28-0.39-0.16-0.39-0.18-0.45-0.11-0.45v0h-0.11v0l-0.44 0.56-0.18 0.28-0.16 0.34v0l-0.12 0.45-0.11 0.45v0.44l0.05 0.45 0.12 0.45 0.11 0.39 0.23 0.39 0.22 0.39v0l0.39 0.34 0.34 0.33v0z" fill="#0093dd" fill-rule="evenodd" stroke="#0093dd" stroke-linecap="round" stroke-linejoin="round" stroke-miterlimit="10" stroke-width=".12"/>
<path d="m382.36 491.65v0-0.83l0.06-0.4 0.06-0.38v0l0.16-0.62v0l-0.61 0.44-0.51 0.34-0.56 0.16-0.78 0.23v0l0.67 0.17 0.5 0.22 0.45 0.22 0.56 0.45v0z" fill="#0093dd" fill-rule="evenodd" stroke="#0093dd" stroke-linecap="round" stroke-linejoin="round" stroke-miterlimit="10" stroke-width=".12"/>
<path d="m390.37 491.65v0l0.9-0.5 0.95-0.39v0l-0.79-0.22v0l-0.33-0.18-0.28-0.11-0.56-0.39v0l0.06 0.34 0.05 0.34v0 0.55 0.56 0z" fill="#0093dd" fill-rule="evenodd" stroke="#0093dd" stroke-linecap="round" stroke-linejoin="round" stroke-miterlimit="10" stroke-width=".12"/>
<path d="m383.54 488.13v0l0.51-0.39 0.5-0.34 0.5-0.17 0.62-0.22v0l0.06-0.06v0l-0.57-0.16-0.5-0.23v0l-0.45-0.27-0.45-0.29v0l0.06 0.56-0.06 0.62v0l-0.11 0.45-0.11 0.5v0z" fill="#0093dd" fill-rule="evenodd" stroke="#0093dd" stroke-linecap="round" stroke-linejoin="round" stroke-miterlimit="10" stroke-width=".12"/>
<path d="m388.91 487.9h0.06v0l-0.06-0.77-0.05-0.84v0l-0.39 0.16-0.4 0.22v0l-0.44 0.23-0.45 0.11v0l0.5 0.17 0.39 0.16 0.4 0.23 0.44 0.33v0z" fill="#0093dd" fill-rule="evenodd" stroke="#0093dd" stroke-linecap="round" stroke-linejoin="round" stroke-miterlimit="10" stroke-width=".12"/>
<path d="m397.04 486.61v0l0.89-0.16 0.45-0.11 0.39-0.23v0l0.34-0.22 0.27-0.22 0.29-0.28 0.22-0.28 0.22-0.34 0.17-0.34 0.11-0.39 0.06-0.39v0-0.9 0l-0.23-0.94v0l-0.21-0.45-0.4-0.45-0.39-0.39-0.39-0.34v0l-0.34-0.16-0.45-0.18-0.84-0.21v0l-0.11 0.32-0.17 0.4-0.22 0.45-0.34 0.44-0.39 0.4-0.45 0.38-0.44 0.34-0.56 0.29v0l-0.34 0.1-0.34 0.11v0 0l0.5 0.18 0.51 0.22 0.45 0.28 0.39 0.34v0l0.39 0.44 0.34 0.51 0.28 0.56 0.16 0.56v0l0.18 0.66v0z" fill="#0093dd" fill-rule="evenodd" stroke="#0093dd" stroke-linecap="round" stroke-linejoin="round" stroke-miterlimit="10" stroke-width=".12"/>
<path d="m375.7 486.06v0l0.11-0.23 0.06-0.27 0.11-0.34 0.06-0.28v0l0.28-0.51 0.39-0.5 0.44-0.45 0.45-0.33v0l0.51-0.29 0.5-0.21v0l-0.56-0.23-0.5-0.22v0l-0.45-0.34-0.39-0.39-0.34-0.45-0.27-0.45v0l-0.23-0.44v0l-0.11-0.39-0.06-0.4v0h-0.78l-0.39 0.06-0.4 0.11v0l-0.39 0.12-0.34 0.21-0.33 0.23-0.34 0.28v0l-0.28 0.33-0.28 0.4-0.16 0.44-0.18 0.4-0.05 0.44v0.5l0.05 0.46 0.12 0.45v0l0.06 0.22 0.05 0.16v0l0.23 0.46 0.27 0.38v0l0.51 0.46 0.56 0.32 0.61 0.29 0.68 0.11v0l0.78-0.11v0z" fill="#0093dd" fill-rule="evenodd" stroke="#0093dd" stroke-linecap="round" stroke-linejoin="round" stroke-miterlimit="10" stroke-width=".12"/>
<path d="m382.48 483.54v0l0.05-1.06 0.23-1.07v0l-0.46 0.4-0.44 0.33-0.56 0.28-0.5 0.23v0l0.84 0.39 0.84 0.5v0z" fill="#0093dd" fill-rule="evenodd" stroke="#0093dd" stroke-linecap="round" stroke-linejoin="round" stroke-miterlimit="10" stroke-width=".12"/>
<path d="m390.54 483.48v0l0.56-0.33v0l0.45-0.17 0.28-0.06 0.16-0.11v0l-0.78-0.33-0.78-0.46v0l0.05 0.4 0.06 0.33v0 0.73 0z" fill="#0093dd" fill-rule="evenodd" stroke="#0093dd" stroke-linecap="round" stroke-linejoin="round" stroke-miterlimit="10" stroke-width=".12"/>
<path d="m383.6 480.13v0l0.56-0.39 0.61-0.4v0l0.39-0.17 0.45-0.11v0l-0.5-0.16-0.45-0.23-0.84-0.45v0 0.57l-0.06 0.61-0.16 0.73v0z" fill="#0093dd" fill-rule="evenodd" stroke="#0093dd" stroke-linecap="round" stroke-linejoin="round" stroke-miterlimit="10" stroke-width=".12"/>
<path d="m388.97 479.79v0l-0.06-0.62v-0.61 0l0.06-0.39v0l-0.17 0.05v0l-0.33 0.28-0.4 0.23-0.84 0.27v0l0.23 0.11 0.28 0.12 0.5 0.17v0l0.4 0.17 0.33 0.22v0z" fill="#0093dd" fill-rule="evenodd" stroke="#0093dd" stroke-linecap="round" stroke-linejoin="round" stroke-miterlimit="10" stroke-width=".12"/>
<path d="m396.98 472.24v0l-0.34 0.72-0.22 0.34-0.28 0.33-0.28 0.28-0.28 0.29-0.4 0.27-0.33 0.17v0l-0.9 0.34v0l0.45 0.11 0.39 0.22 0.79 0.45v0l0.05 0.12v0l0.11 0.05 0.18 0.16 0.28 0.29v0l0.33 0.55 0.28 0.56 0.17 0.57 0.11 0.61v0h0.67l0.62-0.11 0.56-0.23 0.55-0.33 0.46-0.39 0.33-0.5 0.23-0.62 0.16-0.67v0l0.06-0.23v-0.23 0l-0.11-0.55-0.17-0.61-0.28-0.51-0.39-0.51v0l-0.17-0.16-0.23-0.17-0.44-0.28v0l-0.29-0.17-0.32-0.16-0.4-0.11h-0.28v0h-0.34l-0.33 0.11v0z" fill="#0093dd" fill-rule="evenodd" stroke="#0093dd" stroke-linecap="round" stroke-linejoin="round" stroke-miterlimit="10" stroke-width=".12"/>
<path d="m375.64 478.17v0l0.12-0.4 0.11-0.44v0l0.17-0.34 0.22-0.39 0.28-0.4 0.22-0.27v0l0.57-0.45 0.61-0.39v0l0.34-0.17 0.39-0.17v-0.05 0l-0.34-0.12-0.34-0.16v0l-0.66-0.4-0.51-0.5-0.45-0.56-0.39-0.67v0l-0.06-0.22-0.05-0.28v0l-0.17-0.12-0.17-0.06-0.39-0.1-0.45 0.05-0.33 0.05v0l-0.62 0.18v0l-0.28 0.11-0.28 0.17v0l-0.28 0.22-0.28 0.23-0.22 0.27-0.23 0.28v0l-0.16 0.45v0l-0.18 0.39-0.11 0.45v0 0.45 0 0.28 0.27 0l0.11 0.52 0.18 0.44 0.22 0.45 0.28 0.39v0l0.45 0.39 0.44 0.28v0l0.34 0.17 0.34 0.11 0.39 0.11 0.33 0.05v0h0.46l0.38-0.1v0z" fill="#0093dd" fill-rule="evenodd" stroke="#0093dd" stroke-linecap="round" stroke-linejoin="round" stroke-miterlimit="10" stroke-width=".12"/>
<path d="m390.32 475.88v0l0.5-0.34 0.45-0.23 0.95-0.39v0l-0.67-0.22-0.34-0.12-0.28-0.16v0l-0.67-0.51h-0.06v0l0.12 0.34 0.05 0.33v0 0.62l-0.05 0.68v0z" fill="#0093dd" fill-rule="evenodd" stroke="#0093dd" stroke-linecap="round" stroke-linejoin="round" stroke-miterlimit="10" stroke-width=".12"/>
<path d="m382.36 475.7v0-0.5-0.5 0l0.06-0.45 0.11-0.45v0l-0.5 0.34-0.57 0.38v0l-0.38 0.12-0.4 0.17v0l0.4 0.11 0.38 0.17v0l0.57 0.39 0.33 0.22v0z" fill="#0093dd" fill-rule="evenodd" stroke="#0093dd" stroke-linecap="round" stroke-linejoin="round" stroke-miterlimit="10" stroke-width=".12"/>
<path d="m389.31 472.29v0-0.16l-0.06-0.23-0.05-0.39v0-0.4-0.44 0-0.56 0l0.11-0.34 0.22-0.56v-0.22 0l-0.17-0.34-0.16-0.33-0.29-0.34-0.33-0.22v0l-0.4-0.34-0.5-0.22v0l-0.39-0.12-0.5-0.11h-0.51l-0.44 0.06-0.51 0.11-0.44 0.17-0.4 0.23-0.39 0.27v0l-0.23 0.23-0.22 0.28-0.33 0.61v0l0.22 0.62v0l0.06 0.33 0.05 0.45 0.06 0.39-0.06 0.39v0l-0.11 0.96v0l0.39-0.34 0.45-0.28v0l0.45-0.22 0.56-0.17 0.56-0.11 0.44-0.06v0l0.51 0.11 0.56 0.11 0.5 0.23 0.45 0.17v0l0.23 0.16 0.22 0.17 0.45 0.45v0z" fill="#0093dd" fill-rule="evenodd" stroke="#0093dd" stroke-linecap="round" stroke-linejoin="round" stroke-miterlimit="10" stroke-width=".12"/>
<path d="m379.73 467.36v0h0.34l0.34 0.06 0.33 0.06 0.34 0.11 0.56 0.33 0.55 0.46 0.4 0.5 0.33 0.61 0.11 0.34 0.11 0.33 0.06 0.34v0.33 0 0.4l-0.06 0.33-0.22 0.68-0.33 0.55-0.4 0.51-0.55 0.44-0.56 0.34-0.34 0.12-0.33 0.11h-0.34l-0.34 0.05v0l-0.39-0.05h-0.33l-0.34-0.11-0.34-0.12-0.56-0.34-0.5-0.44-0.45-0.51-0.34-0.55-0.11-0.34-0.05-0.34-0.06-0.33-0.05-0.4v0l0.05-0.33 0.06-0.34 0.05-0.33 0.11-0.34 0.34-0.61 0.45-0.5 0.5-0.46 0.56-0.33 0.34-0.11 0.34-0.06 0.33-0.06h0.39v0z" fill="#0093dd" stroke="#0093dd" stroke-linecap="round" stroke-linejoin="round" stroke-miterlimit="10" stroke-width=".12"/>
<path d="m393.11 467.54v0l0.34 0.05 0.34 0.06 0.34 0.05 0.32 0.11 0.57 0.34 0.56 0.44 0.39 0.51 0.34 0.62 0.11 0.27 0.11 0.34v0.34l0.05 0.39v0l-0.05 0.34v0.39l-0.11 0.34-0.11 0.27-0.34 0.62-0.39 0.5-0.56 0.45-0.57 0.34-0.32 0.11-0.68 0.1-0.34 0.06v0l-0.39-0.06-0.33-0.05-0.34-0.05-0.33-0.11-0.57-0.34-0.5-0.45-0.45-0.5-0.34-0.62-0.11-0.27-0.05-0.34-0.06-0.39-0.05-0.34v0l0.05-0.39 0.06-0.34 0.05-0.34 0.11-0.27 0.34-0.62 0.45-0.51 0.5-0.44 0.57-0.34 0.33-0.11 0.34-0.05 0.33-0.06 0.39-0.05v0z" fill="#0093dd" stroke="#0093dd" stroke-linecap="round" stroke-linejoin="round" stroke-miterlimit="10" stroke-width=".12"/>
<path d="m393.06 475.48v0h0.34l0.33 0.06 0.34 0.11 0.33 0.11 0.62 0.33 0.5 0.4 0.4 0.5 0.33 0.62 0.11 0.34 0.11 0.32 0.06 0.34v0.34 0 0.39l-0.06 0.34-0.11 0.34-0.11 0.33-0.33 0.62-0.4 0.5-0.5 0.39-0.62 0.34-0.33 0.11-0.34 0.11-0.33 0.06h-0.34v0h-0.4l-0.33-0.06-0.34-0.11-0.27-0.11-0.62-0.34-0.51-0.39-0.44-0.5-0.34-0.62-0.11-0.33-0.06-0.34-0.05-0.34v-0.39 0-0.34l0.05-0.34 0.06-0.32 0.11-0.34 0.34-0.62 0.44-0.5 0.51-0.4 0.62-0.33 0.27-0.11 0.34-0.11 0.33-0.06h0.4v0z" fill="#0093dd" stroke="#0093dd" stroke-linecap="round" stroke-linejoin="round" stroke-miterlimit="10" stroke-width=".12"/>
<path d="m393 483.32v0h0.34l0.39 0.06 0.34 0.1 0.27 0.11 0.62 0.34 0.51 0.39 0.45 0.56 0.28 0.57 0.11 0.32 0.11 0.34 0.05 0.34v0.39 0 0.34l-0.05 0.34-0.22 0.66-0.28 0.62-0.45 0.51-0.51 0.44-0.62 0.29-0.27 0.16-0.34 0.05-0.39 0.06h-0.34v0h-0.34l-0.39-0.06-0.28-0.05-0.33-0.16-0.62-0.29-0.5-0.44-0.45-0.51-0.28-0.62-0.22-0.66-0.06-0.34v-0.34 0-0.39l0.06-0.34 0.11-0.34 0.11-0.32 0.28-0.57 0.45-0.56 0.5-0.39 0.62-0.34 0.33-0.11 0.28-0.1 0.39-0.06h0.34v0z" fill="#0093dd" stroke="#0093dd" stroke-linecap="round" stroke-linejoin="round" stroke-miterlimit="10" stroke-width=".12"/>
<path d="m392.95 491.32v0h0.39l0.33 0.06 0.34 0.11 0.28 0.11 0.61 0.33 0.51 0.4 0.45 0.56 0.34 0.56 0.11 0.34 0.05 0.32 0.06 0.34v0.39 0 0.34l-0.06 0.34-0.05 0.34-0.11 0.32-0.34 0.63-0.45 0.5-0.51 0.44-0.61 0.29-0.28 0.16-0.34 0.06-0.33 0.06h-0.39v0h-0.34l-0.68-0.12-0.32-0.16-0.62-0.29-0.51-0.44-0.39-0.5-0.34-0.63-0.11-0.32-0.11-0.34-0.05-0.34v-0.34 0-0.39l0.05-0.34 0.11-0.32 0.11-0.34 0.34-0.56 0.39-0.56 0.51-0.4 0.62-0.33 0.32-0.11 0.34-0.11 0.34-0.06h0.34v0z" fill="#0093dd" stroke="#0093dd" stroke-linecap="round" stroke-linejoin="round" stroke-miterlimit="10" stroke-width=".12"/>
<path d="m379.73 475.26v0h0.34l0.34 0.05 0.33 0.11 0.34 0.12 0.56 0.34 0.55 0.39 0.4 0.55 0.33 0.56 0.22 0.68 0.06 0.33v0.4 0 0.32l-0.06 0.34-0.22 0.68-0.33 0.61-0.4 0.5-0.55 0.46-0.56 0.27-0.34 0.17-0.33 0.06-0.34 0.05h-0.34v0h-0.39l-0.33-0.05-0.34-0.06-0.34-0.17-0.56-0.27-0.5-0.46-0.45-0.5-0.34-0.61-0.11-0.34-0.05-0.34-0.06-0.34-0.05-0.32v0l0.05-0.4 0.06-0.33 0.05-0.34 0.11-0.34 0.34-0.56 0.45-0.55 0.5-0.39 0.56-0.34 0.34-0.12 0.34-0.11 0.33-0.05h0.39v0z" fill="#0093dd" stroke="#0093dd" stroke-linecap="round" stroke-linejoin="round" stroke-miterlimit="10" stroke-width=".12"/>
<path d="m379.73 483.09v0h0.39l0.34 0.06 0.34 0.11 0.34 0.12 0.55 0.32 0.5 0.4 0.45 0.56 0.34 0.56 0.11 0.34 0.05 0.33 0.06 0.34 0.06 0.38v0l-0.12 0.68-0.05 0.34-0.11 0.33-0.34 0.62-0.45 0.5-0.5 0.44-0.55 0.29-0.34 0.17-0.34 0.06-0.34 0.05h-0.39v0h-0.34l-0.33-0.05-0.33-0.06-0.34-0.17-0.56-0.29-0.56-0.44-0.39-0.5-0.34-0.62-0.12-0.33-0.1-0.34v-0.34l-0.06-0.34v0l0.06-0.38v-0.34l0.1-0.33 0.12-0.34 0.34-0.56 0.39-0.56 0.56-0.4 0.56-0.32 0.34-0.12 0.33-0.11 0.33-0.06h0.34v0z" fill="#0093dd" stroke="#0093dd" stroke-linecap="round" stroke-linejoin="round" stroke-miterlimit="10" stroke-width=".12"/>
<path d="m379.67 491.09v0h0.34l0.34 0.06 0.33 0.05 0.34 0.12 0.62 0.33 0.5 0.46 0.39 0.5 0.34 0.61 0.22 0.68 0.05 0.33v0.34 0 0.38l-0.05 0.34-0.22 0.68-0.34 0.55-0.39 0.5-0.5 0.46-0.62 0.33-0.34 0.11-0.33 0.12h-0.34l-0.34 0.05v0l-0.39-0.05h-0.33l-0.34-0.12-0.28-0.11-0.62-0.33-0.5-0.46-0.45-0.5-0.28-0.55-0.16-0.34-0.06-0.34-0.05-0.34v-0.38 0-0.34l0.05-0.33 0.06-0.34 0.16-0.34 0.28-0.61 0.45-0.5 0.5-0.46 0.62-0.33 0.28-0.12 0.34-0.05 0.33-0.06h0.39v0z" fill="#0093dd" stroke="#0093dd" stroke-linecap="round" stroke-linejoin="round" stroke-miterlimit="10" stroke-width=".12"/>
<path d="m386.45 471.56v0h0.34l0.33 0.05 0.34 0.12 0.34 0.11 0.56 0.29 0.55 0.44 0.4 0.5 0.33 0.62 0.11 0.33 0.11 0.34 0.06 0.34v0.34 0 0.38l-0.06 0.34-0.11 0.33-0.11 0.34-0.33 0.56-0.4 0.56-0.55 0.4-0.56 0.32-0.34 0.12-0.34 0.11-0.33 0.06h-0.34v0h-0.39l-0.33-0.06-0.34-0.11-0.34-0.12-0.56-0.32-0.51-0.4-0.44-0.56-0.34-0.56-0.11-0.34-0.06-0.33-0.05-0.34-0.06-0.38v0l0.06-0.34 0.05-0.34 0.06-0.34 0.11-0.33 0.34-0.62 0.44-0.5 0.51-0.44 0.56-0.29 0.34-0.11 0.34-0.12 0.33-0.05h0.39v0z" fill="#0093dd" stroke="#0093dd" stroke-linecap="round" stroke-linejoin="round" stroke-miterlimit="10" stroke-width=".12"/>
<path d="m386.51 479.45v0l0.39 0.06 0.33 0.06 0.34 0.06 0.28 0.11 0.62 0.33 0.5 0.45 0.45 0.5 0.33 0.62 0.11 0.28 0.06 0.33 0.06 0.4v0.33 0 0.34l-0.06 0.38-0.06 0.34-0.11 0.28-0.33 0.62-0.45 0.51-0.5 0.44-0.62 0.34-0.28 0.11-0.34 0.06-0.33 0.05-0.39 0.05v0l-0.34-0.05-0.33-0.05-0.34-0.06-0.34-0.11-0.61-0.34-0.5-0.44-0.4-0.51-0.33-0.62-0.12-0.28-0.11-0.34-0.06-0.38v-0.34 0-0.33l0.06-0.4 0.11-0.33 0.12-0.28 0.33-0.62 0.4-0.5 0.5-0.45 0.61-0.33 0.34-0.11 0.34-0.06 0.33-0.06 0.34-0.06v0z" fill="#0093dd" stroke="#0093dd" stroke-linecap="round" stroke-linejoin="round" stroke-miterlimit="10" stroke-width=".12"/>
<path d="m386.51 487.45v0h0.39l0.33 0.07 0.34 0.11 0.28 0.11 0.62 0.28 0.5 0.45 0.45 0.5 0.33 0.61 0.11 0.34 0.06 0.33 0.06 0.34v0.34 0 0.39l-0.06 0.33-0.06 0.34-0.11 0.34-0.33 0.56-0.45 0.56-0.5 0.39-0.62 0.33-0.28 0.12-0.34 0.11-0.33 0.05h-0.39v0h-0.34l-0.33-0.05-0.34-0.11-0.34-0.12-0.61-0.33-0.5-0.39-0.4-0.56-0.33-0.56-0.12-0.34-0.11-0.34-0.06-0.33v-0.39 0-0.34l0.06-0.34 0.11-0.33 0.12-0.34 0.33-0.61 0.4-0.5 0.5-0.45 0.61-0.28 0.68-0.22 0.33-0.07h0.34v0z" fill="#0093dd" stroke="#0093dd" stroke-linecap="round" stroke-linejoin="round" stroke-miterlimit="10" stroke-width=".12"/>
<path d="m386.51 495.46v0h0.39l0.33 0.06 0.34 0.11 0.28 0.11 0.62 0.34 0.5 0.39 0.45 0.55 0.33 0.57 0.11 0.33 0.06 0.34 0.06 0.33v0.4 0 0.33l-0.06 0.34-0.06 0.33-0.11 0.34-0.33 0.62-0.45 0.5-0.5 0.39-0.62 0.34-0.28 0.11-0.34 0.11-0.33 0.05h-0.39v0h-0.34l-0.33-0.05-0.68-0.22-0.61-0.34-0.5-0.39-0.4-0.5-0.33-0.62-0.12-0.34-0.11-0.33-0.06-0.34v-0.33 0-0.4l0.06-0.33 0.11-0.34 0.12-0.33 0.33-0.57 0.4-0.55 0.5-0.39 0.61-0.34 0.68-0.22 0.33-0.06h0.34v0z" fill="#0093dd" stroke="#0093dd" stroke-linecap="round" stroke-linejoin="round" stroke-miterlimit="10" stroke-width=".12"/>
</g>
</g>
</g>
</g>
</svg>
