<?xml version="1.0" encoding="UTF-8" standalone="no"?>
<!-- Created with Inkscape (http://www.inkscape.org/) -->
<svg
   xmlns:svg="http://www.w3.org/2000/svg"
   xmlns="http://www.w3.org/2000/svg"
   version="1.0"
   width="518.46997"
   height="580.71997"
   id="svg2">
  <defs
     id="defs4">
    <clipPath
       id="clipPath3342">
      <path
         d="M 418.2,612.72 L 421.44,612.72 L 421.44,600.36 L 418.2,600.36 L 418.2,612.72 z"
         id="path3344" />
    </clipPath>
    <clipPath
       id="clipPath3322">
      <path
         d="M 354.48,610.32 L 418.19,610.32 L 418.19,538.68 L 354.48,538.68 L 354.48,610.32 z"
         id="path3324" />
    </clipPath>
    <clipPath
       id="clipPath3310">
      <path
         d="M 354.48,610.32 L 418.19,610.32 L 418.19,538.68 L 354.48,538.68 L 354.48,610.32 z"
         id="path3312" />
    </clipPath>
    <clipPath
       id="clipPath3234">
      <path
         d="M 418.2,512.64 L 421.44,512.64 L 421.44,500.28 L 418.2,500.28 L 418.2,512.64 z"
         id="path3236" />
    </clipPath>
    <clipPath
       id="clipPath3204">
      <path
         d="M 354.48,510.24 L 418.19,510.24 L 418.19,438.61 L 354.48,438.61 L 354.48,510.24 z"
         id="path3206" />
    </clipPath>
    <clipPath
       id="clipPath3192">
      <path
         d="M 354.48,510.24 L 418.19,510.24 L 418.19,438.61 L 354.48,438.61 L 354.48,510.24 z"
         id="path3194" />
    </clipPath>
    <clipPath
       id="clipPath3116">
      <path
         d="M 418.2,412.68 L 421.44,412.68 L 421.44,400.32 L 418.2,400.32 L 418.2,412.68 z"
         id="path3118" />
    </clipPath>
    <clipPath
       id="clipPath3054">
      <path
         d="M 354.48,410.28 L 418.19,410.28 L 418.19,338.65 L 354.48,338.65 L 354.48,410.28 z"
         id="path3056" />
    </clipPath>
    <clipPath
       id="clipPath3042">
      <path
         d="M 354.48,410.28 L 418.19,410.28 L 418.19,338.65 L 354.48,338.65 L 354.48,410.28 z"
         id="path3044" />
    </clipPath>
    <clipPath
       id="clipPath2970">
      <path
         d="M 418.2,312.72 L 421.44,312.72 L 421.44,300.36 L 418.2,300.36 L 418.2,312.72 z"
         id="path2972" />
    </clipPath>
    <clipPath
       id="clipPath2940">
      <path
         d="M 354.48,310.32 L 418.19,310.32 L 418.19,238.69 L 354.48,238.69 L 354.48,310.32 z"
         id="path2942" />
    </clipPath>
    <clipPath
       id="clipPath2928">
      <path
         d="M 354.48,310.32 L 418.19,310.32 L 418.19,238.69 L 354.48,238.69 L 354.48,310.32 z"
         id="path2930" />
    </clipPath>
    <clipPath
       id="clipPath2836">
      <path
         d="M 418.2,212.64 L 421.44,212.64 L 421.44,200.29 L 418.2,200.29 L 418.2,212.64 z"
         id="path2838" />
    </clipPath>
    <clipPath
       id="clipPath2802">
      <path
         d="M 354.48,210.24 L 418.19,210.24 L 418.19,138.6 L 354.48,138.6 L 354.48,210.24 z"
         id="path2804" />
    </clipPath>
    <clipPath
       id="clipPath2790">
      <path
         d="M 354.48,210.24 L 418.19,210.24 L 418.19,138.6 L 354.48,138.6 L 354.48,210.24 z"
         id="path2792" />
    </clipPath>
    <clipPath
       id="clipPath2710">
      <path
         d="M 422.04,110.76 L 422.04,135.12 L 549.12,135.12 L 549.12,110.76 L 545.88,110.76 L 545.88,125.88 L 425.28,125.88 L 425.28,110.76 L 422.04,110.76 z"
         id="path2712" />
    </clipPath>
    <clipPath
       id="clipPath2688">
      <path
         d="M 351.12,110.76 L 351.12,135.12 L 354.48,135.12 L 354.48,110.76 L 351.12,110.76 z M 418.32,110.76 L 418.32,135.12 L 421.56,135.12 L 421.56,110.76 L 418.32,110.76 z"
         id="path2690" />
    </clipPath>
    <clipPath
       id="clipPath2666">
      <path
         d="M 288.84,110.76 L 288.84,135.12 L 350.64,135.12 L 350.64,110.76 L 347.4,110.76 L 347.4,132.84 L 292.08,132.84 L 292.08,110.76 L 288.84,110.76 z"
         id="path2668" />
    </clipPath>
    <clipPath
       id="clipPath2650">
      <path
         d="M 147.12,110.76 L 147.12,135.12 L 288.36,135.12 L 288.36,110.76 L 285.12,110.76 L 285.12,125.88 L 150.36,125.88 L 150.36,110.76 L 147.12,110.76 z"
         id="path2652" />
    </clipPath>
    <clipPath
       id="clipPath2634">
      <path
         d="M 67.68,110.76 L 67.68,135.12 L 146.64,135.12 L 146.64,110.76 L 143.28,110.76 L 143.28,125.88 L 70.92,125.88 L 70.92,110.76 L 67.68,110.76 z"
         id="path2636" />
    </clipPath>
    <clipPath
       id="clipPath2502">
      <path
         d="M 70.92,803.76 L 574.44,803.76 L 574.44,774.97 L 70.92,774.97 L 70.92,803.76 z"
         id="path2504" />
    </clipPath>
    <clipPath
       id="clipPath2480">
      <path
         d="M 70.92,803.76 L 574.44,803.76 L 574.44,801.97 L 70.92,801.97 L 70.92,803.76 z"
         id="path2482" />
    </clipPath>
    <clipPath
       id="clipPath2470">
      <path
         d="M 70.92,776.76 L 574.44,776.76 L 574.44,774.97 L 70.92,774.97 L 70.92,776.76 z"
         id="path2472" />
    </clipPath>
  </defs>
  <g
     transform="translate(-87.003519,-82.651994)"
     id="layer1">
    <g
       transform="matrix(6.2798944,0,0,6.2798944,-2366.8721,-3364.1369)"
       id="g5581">
      <g
         transform="matrix(1.25,0,0,1.25,-50.89375,2.07865)"
         id="g3196">
        <path
           d="M 354.59,438.7 L 418.09,438.7 L 418.09,478.39 L 418.09,478.39 L 418.09,480.02 L 417.92,481.64 L 417.75,483.2 L 417.47,484.77 L 417.08,486.34 L 416.68,487.85 L 416.18,489.31 L 415.62,490.76 L 414.95,492.16 L 414.28,493.5 L 413.5,494.84 L 412.71,496.13 L 411.82,497.36 L 410.86,498.59 L 409.85,499.72 L 408.8,500.83 L 407.73,501.9 L 406.55,502.85 L 405.38,503.8 L 404.09,504.7 L 402.8,505.54 L 401.51,506.27 L 400.11,506.99 L 398.71,507.61 L 397.26,508.16 L 395.8,508.67 L 394.29,509.11 L 392.77,509.45 L 391.21,509.73 L 389.59,509.95 L 388.02,510.07 L 386.34,510.13 L 386.34,510.13 L 384.71,510.07 L 383.09,509.95 L 381.52,509.73 L 379.96,509.45 L 378.44,509.11 L 376.93,508.67 L 375.42,508.16 L 374.02,507.61 L 372.62,506.99 L 371.22,506.27 L 369.88,505.54 L 368.59,504.7 L 367.36,503.8 L 366.18,502.85 L 365,501.9 L 363.95,500.83 L 362.88,499.72 L 361.87,498.59 L 360.92,497.36 L 360.02,496.13 L 359.23,494.84 L 358.45,493.5 L 357.73,492.16 L 357.11,490.76 L 356.55,489.31 L 356.05,487.85 L 355.6,486.34 L 355.26,484.77 L 354.98,483.2 L 354.76,481.64 L 354.64,480.02 L 354.59,478.39 L 354.59,438.7 z"
           id="path3198"
           style="fill:#000000;fill-opacity:1;fill-rule:evenodd;stroke:none" />
      </g>
      <path
         d="M 461.98125,583.55365 L 458.83125,573.89115 L 467.03125,567.95365 L 456.86875,567.89115 L 453.73125,558.22865 L 450.56875,567.89115 L 440.43125,567.95365 L 448.61875,573.89115 L 445.46875,583.55365 L 453.73125,577.60365 L 461.98125,583.55365 z M 418.51875,583.55365 L 415.44375,573.89115 L 423.63125,567.95365 L 413.48125,567.89115 L 410.33125,558.22865 L 407.18125,567.89115 L 396.96875,567.95365 L 405.21875,573.89115 L 402.08125,583.55365 L 410.33125,577.60365 L 418.51875,583.55365 z M 394.09375,552.21615 L 469.95625,552.21615 L 469.95625,599.85365 L 469.95625,599.85365 L 469.95625,601.81615 L 469.81875,603.77865 L 469.55625,605.65365 L 469.19375,607.55365 L 468.76875,609.36615 L 468.28125,611.19115 L 467.65625,612.94115 L 467.03125,614.69115 L 466.25625,616.36615 L 465.41875,618.04115 L 464.50625,619.65365 L 463.51875,621.19115 L 462.46875,622.66615 L 461.35625,624.14115 L 460.16875,625.45365 L 458.90625,626.79115 L 457.58125,628.04115 L 456.18125,629.31615 L 454.78125,630.42865 L 453.23125,631.47865 L 451.70625,632.46615 L 450.15625,633.37865 L 448.46875,634.20365 L 446.79375,634.97865 L 445.11875,635.67865 L 443.30625,636.24115 L 441.54375,636.79115 L 439.73125,637.21615 L 437.84375,637.56615 L 435.95625,637.77865 L 433.99375,637.91615 L 432.03125,637.99115 L 432.03125,637.99115 L 430.06875,637.91615 L 428.18125,637.77865 L 426.29375,637.56615 L 424.39375,637.21615 L 422.58125,636.79115 L 420.76875,636.24115 L 419.00625,635.67865 L 417.26875,634.97865 L 415.58125,634.20365 L 413.96875,633.37865 L 412.36875,632.46615 L 410.83125,631.47865 L 409.35625,630.42865 L 407.95625,629.31615 L 406.54375,628.04115 L 405.21875,626.79115 L 403.96875,625.45365 L 402.76875,624.14115 L 401.65625,622.66615 L 400.60625,621.19115 L 399.61875,619.65365 L 398.70625,618.04115 L 397.88125,616.36615 L 397.09375,614.69115 L 396.40625,612.94115 L 395.84375,611.19115 L 395.28125,609.36615 L 394.86875,607.55365 L 394.59375,605.65365 L 394.30625,603.77865 L 394.16875,601.81615 L 394.09375,599.85365 L 394.09375,552.21615 z M 430.55625,629.02865 L 430.55625,629.02865 L 430.63125,628.54115 L 430.69375,627.84115 L 430.76875,626.65365 L 430.76875,626.65365 L 431.11875,621.67865 L 431.11875,621.67865 L 431.46875,621.61615 L 431.74375,621.54115 L 431.74375,621.54115 L 432.59375,621.54115 L 433.43125,621.54115 L 433.43125,621.54115 L 433.70625,621.61615 L 434.05625,621.67865 L 434.05625,621.67865 L 434.19375,623.77865 L 434.33125,625.74115 L 434.33125,625.74115 L 434.61875,627.35365 L 434.75625,628.11615 L 434.83125,628.89115 L 434.83125,628.89115 L 435.18125,628.89115 L 435.18125,628.89115 L 436.09375,628.69115 L 437.00625,628.40365 L 437.00625,628.40365 L 437.41875,628.11615 L 437.41875,628.11615 L 437.98125,627.84115 L 438.46875,627.49115 L 438.46875,627.49115 L 439.09375,626.79115 L 439.09375,626.79115 L 439.44375,626.09115 L 439.80625,625.31615 L 439.93125,624.47865 L 440.00625,623.71615 L 440.00625,623.71615 L 439.86875,622.59115 L 439.80625,621.90365 L 439.80625,621.90365 L 439.51875,620.49115 L 439.51875,620.49115 L 439.44375,620.00365 L 439.38125,619.51615 L 439.38125,619.51615 L 439.24375,618.66615 L 439.24375,618.66615 L 438.95625,616.71615 L 438.95625,616.71615 L 438.81875,614.96615 L 438.81875,614.12865 L 438.89375,613.29115 L 438.89375,613.29115 L 438.95625,612.52865 L 438.95625,612.52865 L 439.09375,612.10365 L 439.24375,611.67865 L 439.24375,611.67865 L 439.51875,611.19115 L 439.80625,610.70365 L 440.56875,609.79115 L 441.40625,608.95365 L 442.31875,608.31615 L 442.31875,608.31615 L 442.80625,608.04115 L 442.80625,608.04115 L 443.85625,607.41615 L 443.85625,607.41615 L 444.41875,607.20365 L 445.18125,606.99115 L 445.95625,606.85365 L 446.23125,606.79115 L 446.51875,606.85365 L 446.51875,606.85365 L 446.73125,608.17865 L 446.94375,609.57865 L 446.94375,609.57865 L 447.01875,610.20365 L 447.08125,610.84115 L 447.08125,610.84115 L 447.28125,611.25365 L 447.70625,611.89115 L 448.40625,612.94115 L 448.40625,612.94115 L 448.83125,612.94115 L 448.83125,612.94115 L 449.59375,612.66615 L 449.59375,612.66615 L 450.15625,612.30365 L 450.85625,611.89115 L 451.48125,611.32865 L 451.98125,610.91615 L 451.98125,610.91615 L 452.33125,610.41615 L 452.68125,609.94115 L 452.95625,609.29115 L 453.16875,608.74115 L 453.16875,608.74115 L 453.16875,608.31615 L 453.16875,607.90365 L 453.16875,607.90365 L 453.03125,607.20365 L 452.81875,606.50365 L 452.33125,605.25365 L 452.33125,605.25365 L 449.88125,599.22865 L 449.88125,599.22865 L 445.95625,589.71615 L 443.44375,583.62865 L 443.44375,583.62865 L 441.83125,579.85365 L 441.83125,579.85365 L 435.88125,565.07865 L 431.89375,555.29115 L 431.89375,555.29115 L 429.36875,561.86615 L 426.84375,568.37865 L 426.84375,568.37865 L 421.10625,583.55365 L 421.10625,583.55365 L 417.60625,592.57865 L 417.60625,592.57865 L 413.83125,602.37865 L 413.83125,602.37865 L 412.64375,605.31615 L 412.64375,605.31615 L 412.21875,606.30365 L 411.86875,607.26615 L 411.86875,607.26615 L 411.59375,608.46615 L 411.45625,609.02865 L 411.45625,609.65365 L 411.45625,609.65365 L 411.73125,610.84115 L 411.73125,610.84115 L 411.86875,610.91615 L 412.01875,611.19115 L 412.21875,611.54115 L 412.21875,611.54115 L 412.64375,611.89115 L 412.64375,611.89115 L 412.99375,612.24115 L 413.41875,612.59115 L 413.41875,612.59115 L 413.89375,612.80365 L 414.60625,613.15365 L 414.60625,613.15365 L 415.79375,613.50365 L 416.41875,613.57865 L 416.70625,613.64115 L 416.90625,613.57865 L 416.90625,613.57865 L 418.03125,609.29115 L 418.73125,606.79115 L 418.73125,606.79115 L 419.23125,606.85365 L 419.23125,606.85365 L 419.78125,607.06615 L 420.41875,607.26615 L 421.53125,607.90365 L 421.53125,607.90365 L 421.95625,608.17865 L 422.36875,608.46615 L 423.06875,609.16615 L 423.06875,609.16615 L 423.69375,609.71615 L 424.25625,610.34115 L 424.74375,610.99115 L 425.24375,611.67865 L 425.24375,611.67865 L 425.65625,612.37865 L 425.65625,612.37865 L 425.93125,612.94115 L 426.15625,613.64115 L 426.29375,614.40365 L 426.35625,615.02865 L 426.35625,615.02865 L 426.35625,615.60365 L 426.29375,616.16615 L 426.29375,616.16615 L 426.00625,618.66615 L 426.00625,618.66615 L 425.73125,620.00365 L 425.73125,620.00365 L 425.30625,621.47865 L 424.95625,622.95365 L 424.95625,622.95365 L 424.81875,623.57865 L 424.68125,624.20365 L 424.68125,624.20365 L 424.74375,624.76615 L 424.74375,624.76615 L 424.74375,625.17865 L 424.74375,625.54115 L 424.74375,625.54115 L 424.81875,625.81615 L 424.95625,626.09115 L 425.38125,626.72865 L 425.93125,627.49115 L 425.93125,627.49115 L 426.64375,628.04115 L 427.40625,628.46615 L 428.25625,628.81615 L 429.08125,629.09115 L 429.08125,629.09115 L 429.79375,629.16615 L 430.28125,629.09115 L 430.55625,629.02865 L 430.55625,629.02865 z"
         id="path3208"
         style="fill:#0093dd;fill-opacity:1;fill-rule:evenodd;stroke:#0093dd;stroke-width:0.14999999;stroke-linecap:round;stroke-linejoin:round;stroke-miterlimit:10;stroke-dasharray:none;stroke-opacity:1" />
      <path
         d="M 429.08125,627.77865 L 429.08125,627.77865 L 429.50625,627.70365 L 429.50625,627.70365 L 429.58125,626.99115 L 429.64375,626.30365 L 429.64375,626.30365 L 429.36875,626.30365 L 429.16875,626.22865 L 428.66875,626.01615 L 428.66875,626.01615 L 428.25625,625.74115 L 428.10625,625.60365 L 427.96875,625.45365 L 427.96875,625.45365 L 427.63125,624.76615 L 427.48125,624.40365 L 427.40625,624.06615 L 427.40625,623.71615 L 427.48125,623.35365 L 427.63125,623.01615 L 427.75625,622.59115 L 427.75625,622.59115 L 427.96875,622.24115 L 427.96875,622.24115 L 428.18125,621.96615 L 428.45625,621.75365 L 428.45625,621.75365 L 428.94375,621.26615 L 429.23125,621.05365 L 429.50625,620.91615 L 429.50625,620.91615 L 429.99375,620.76615 L 429.99375,620.76615 L 431.19375,620.49115 L 431.74375,620.36615 L 432.38125,620.36615 L 432.38125,620.36615 L 433.21875,620.36615 L 433.99375,620.42865 L 434.69375,620.62865 L 435.45625,620.91615 L 435.45625,620.91615 L 435.95625,621.12865 L 436.36875,621.47865 L 436.79375,621.82865 L 437.14375,622.24115 L 437.34375,622.66615 L 437.56875,623.15365 L 437.63125,623.71615 L 437.56875,624.20365 L 437.56875,624.20365 L 437.48125,624.55365 L 437.34375,624.82865 L 436.93125,625.31615 L 436.93125,625.31615 L 436.71875,625.54115 L 436.58125,625.74115 L 436.58125,625.74115 L 436.15625,625.95365 L 435.66875,626.22865 L 435.10625,626.44115 L 435.10625,626.44115 L 435.24375,627.84115 L 435.24375,627.84115 L 437.14375,626.65365 L 437.14375,626.65365 L 437.63125,626.30365 L 438.04375,625.87865 L 438.39375,625.39115 L 438.68125,624.90365 L 438.68125,624.90365 L 438.81875,624.20365 L 438.81875,624.20365 L 438.95625,623.57865 L 438.95625,623.57865 L 438.89375,623.29115 L 438.81875,622.80365 L 438.54375,622.10365 L 438.54375,622.10365 L 438.25625,621.54115 L 438.25625,621.54115 L 438.11875,621.32865 L 437.90625,621.05365 L 437.90625,621.05365 L 437.48125,620.70365 L 437.48125,620.70365 L 437.00625,620.29115 L 436.58125,620.00365 L 436.15625,619.71615 L 435.53125,619.51615 L 435.53125,619.51615 L 434.90625,619.24115 L 434.90625,619.24115 L 434.40625,619.16615 L 433.85625,619.09115 L 432.73125,619.09115 L 432.73125,619.09115 L 431.95625,619.02865 L 431.95625,619.02865 L 431.26875,619.09115 L 430.41875,619.24115 L 429.64375,619.45365 L 428.94375,619.71615 L 428.94375,619.71615 L 428.45625,620.00365 L 428.45625,620.00365 L 427.89375,620.36615 L 427.40625,620.70365 L 427.05625,621.12865 L 426.64375,621.61615 L 426.64375,621.61615 L 426.43125,621.82865 L 426.29375,621.96615 L 426.29375,621.96615 L 426.21875,622.30365 L 426.15625,622.59115 L 426.15625,622.59115 L 425.86875,623.42865 L 425.86875,623.42865 L 425.86875,624.06615 L 425.86875,624.69115 L 426.08125,625.31615 L 426.29375,625.87865 L 426.29375,625.87865 L 426.58125,626.16615 L 426.58125,626.16615 L 427.13125,626.72865 L 427.69375,627.14115 L 428.39375,627.49115 L 429.08125,627.77865 L 429.08125,627.77865 z"
         id="path3210"
         style="fill:#fcdb00;fill-opacity:1;fill-rule:evenodd;stroke:#fcdb00;stroke-width:0.14999999;stroke-linecap:round;stroke-linejoin:round;stroke-miterlimit:10;stroke-dasharray:none;stroke-opacity:1" />
      <path
         d="M 435.04375,625.74115 L 435.04375,625.74115 L 435.74375,625.39115 L 436.09375,625.17865 L 436.36875,624.90365 L 436.36875,624.90365 L 436.43125,624.69115 L 436.50625,624.47865 L 436.50625,624.06615 L 436.50625,624.06615 L 436.50625,623.85365 L 436.43125,623.64115 L 436.43125,623.64115 L 436.23125,623.09115 L 436.23125,623.09115 L 435.95625,622.72865 L 435.60625,622.37865 L 435.24375,622.17865 L 434.83125,621.96615 L 434.83125,621.96615 L 434.83125,622.87865 L 434.90625,623.85365 L 435.04375,625.74115 L 435.04375,625.74115 z"
         id="path3212"
         style="fill:#fcdb00;fill-opacity:1;fill-rule:evenodd;stroke:#fcdb00;stroke-width:0.14999999;stroke-linecap:round;stroke-linejoin:round;stroke-miterlimit:10;stroke-dasharray:none;stroke-opacity:1" />
      <path
         d="M 429.50625,625.45365 L 429.50625,625.45365 L 429.71875,625.39115 L 429.71875,625.39115 L 429.93125,623.71615 L 429.99375,622.66615 L 429.99375,622.04115 L 429.99375,622.04115 L 429.79375,622.10365 L 429.50625,622.30365 L 428.94375,622.72865 L 428.45625,623.35365 L 428.31875,623.64115 L 428.25625,623.92865 L 428.25625,623.92865 L 428.25625,624.34115 L 428.25625,624.34115 L 428.53125,624.76615 L 428.74375,625.05365 L 429.01875,625.25365 L 429.50625,625.45365 L 429.50625,625.45365 z"
         id="path3214"
         style="fill:#fcdb00;fill-opacity:1;fill-rule:evenodd;stroke:#fcdb00;stroke-width:0.14999999;stroke-linecap:round;stroke-linejoin:round;stroke-miterlimit:10;stroke-dasharray:none;stroke-opacity:1" />
      <path
         d="M 426.50625,620.36615 L 426.50625,620.36615 L 427.34375,619.71615 L 427.75625,619.45365 L 428.25625,619.24115 L 428.25625,619.24115 L 429.23125,618.81615 L 430.28125,618.46615 L 430.28125,618.46615 L 430.84375,618.32865 L 431.40625,618.26615 L 432.79375,618.26615 L 434.13125,618.32865 L 434.75625,618.46615 L 435.24375,618.60365 L 435.24375,618.60365 L 435.95625,618.81615 L 436.65625,619.09115 L 436.65625,619.09115 L 437.00625,619.37865 L 437.41875,619.65365 L 438.19375,620.29115 L 438.19375,620.29115 L 437.84375,618.04115 L 437.48125,615.74115 L 437.48125,615.74115 L 437.41875,615.02865 L 437.48125,614.34115 L 437.48125,612.94115 L 437.48125,612.94115 L 437.56875,612.24115 L 437.63125,611.54115 L 437.63125,611.54115 L 437.70625,610.62865 L 437.70625,610.62865 L 437.90625,609.86615 L 438.25625,609.02865 L 438.68125,608.17865 L 439.01875,607.47865 L 439.01875,607.47865 L 439.66875,606.64115 L 439.66875,606.64115 L 440.06875,606.36615 L 440.49375,606.07865 L 440.49375,606.07865 L 441.26875,605.51615 L 442.03125,605.02865 L 442.80625,604.60365 L 443.78125,604.26615 L 443.78125,604.26615 L 444.90625,603.84115 L 446.03125,603.62865 L 447.21875,603.56615 L 448.40625,603.70365 L 448.40625,603.70365 L 448.96875,603.77865 L 449.51875,603.84115 L 449.51875,603.84115 L 450.50625,604.12865 L 450.50625,604.12865 L 444.98125,590.41615 L 438.81875,575.16615 L 431.74375,557.80365 L 431.74375,557.80365 L 419.15625,590.41615 L 419.15625,590.41615 L 415.51875,599.85365 L 415.51875,599.85365 L 414.60625,602.24115 L 413.69375,604.60365 L 413.69375,604.60365 L 414.53125,604.20365 L 414.88125,604.05365 L 415.30625,603.84115 L 415.30625,603.84115 L 415.85625,603.77865 L 416.35625,603.70365 L 417.33125,603.70365 L 417.33125,603.70365 L 418.24375,603.70365 L 419.08125,603.77865 L 419.08125,603.77865 L 419.85625,603.97865 L 420.54375,604.20365 L 421.31875,604.54115 L 422.01875,604.89115 L 423.34375,605.72865 L 424.61875,606.70365 L 424.61875,606.70365 L 424.74375,606.85365 L 424.89375,606.99115 L 424.89375,606.99115 L 425.03125,607.20365 L 425.38125,607.61615 L 425.93125,608.25365 L 425.93125,608.25365 L 426.64375,609.36615 L 426.64375,609.36615 L 426.84375,609.94115 L 426.84375,609.94115 L 426.98125,610.49115 L 426.98125,610.49115 L 427.13125,611.47865 L 427.20625,612.45365 L 427.26875,614.34115 L 427.26875,614.34115 L 427.26875,614.89115 L 427.26875,615.45365 L 427.26875,615.45365 L 426.98125,617.35365 L 426.98125,617.35365 L 426.50625,620.36615 L 426.50625,620.36615 z"
         id="path3216"
         style="fill:#fcdb00;fill-opacity:1;fill-rule:evenodd;stroke:#fcdb00;stroke-width:0.14999999;stroke-linecap:round;stroke-linejoin:round;stroke-miterlimit:10;stroke-dasharray:none;stroke-opacity:1" />
      <path
         d="M 416.21875,612.30365 L 416.21875,612.30365 L 416.35625,612.02865 L 416.41875,611.67865 L 416.41875,611.67865 L 416.41875,611.61615 L 416.41875,611.61615 L 415.85625,611.47865 L 415.44375,611.39115 L 415.44375,611.39115 L 414.80625,610.99115 L 414.18125,610.56615 L 414.18125,610.56615 L 413.83125,610.00365 L 413.48125,609.29115 L 413.48125,609.29115 L 413.41875,608.95365 L 413.41875,608.95365 L 413.34375,608.31615 L 413.41875,607.84115 L 413.61875,607.34115 L 413.89375,606.85365 L 413.89375,606.85365 L 414.25625,606.42865 L 414.66875,606.01615 L 414.66875,606.01615 L 415.23125,605.65365 L 415.93125,605.45365 L 416.63125,605.31615 L 417.26875,605.25365 L 417.26875,605.25365 L 418.10625,605.31615 L 419.00625,605.45365 L 419.00625,605.45365 L 419.56875,605.59115 L 420.13125,605.87865 L 421.10625,606.36615 L 421.10625,606.36615 L 422.23125,606.99115 L 422.23125,606.99115 L 422.79375,607.41615 L 423.34375,607.84115 L 423.84375,608.31615 L 424.39375,608.89115 L 425.30625,610.00365 L 426.15625,611.19115 L 426.15625,611.19115 L 426.08125,610.84115 L 426.00625,610.56615 L 425.86875,610.00365 L 425.86875,610.00365 L 425.73125,609.57865 L 425.73125,609.57865 L 425.24375,608.81615 L 424.68125,608.11615 L 423.91875,607.34115 L 423.14375,606.70365 L 422.29375,606.07865 L 421.39375,605.59115 L 420.54375,605.17865 L 419.70625,604.82865 L 419.70625,604.82865 L 419.29375,604.75365 L 418.73125,604.67865 L 417.81875,604.54115 L 417.81875,604.54115 L 416.08125,604.60365 L 416.08125,604.60365 L 415.71875,604.67865 L 415.23125,604.82865 L 415.23125,604.82865 L 414.60625,605.10365 L 414.11875,605.45365 L 413.61875,605.80365 L 413.34375,606.15365 L 413.34375,606.15365 L 413.06875,606.64115 L 412.78125,607.12865 L 412.56875,607.61615 L 412.50625,608.25365 L 412.50625,608.25365 L 412.36875,608.74115 L 412.36875,609.16615 L 412.50625,609.57865 L 412.70625,610.14115 L 412.70625,610.14115 L 412.91875,610.56615 L 412.91875,610.56615 L 413.13125,610.91615 L 413.48125,611.19115 L 414.18125,611.75365 L 414.18125,611.75365 L 414.53125,611.89115 L 415.01875,612.10365 L 415.85625,612.37865 L 415.85625,612.37865 L 416.21875,612.30365 L 416.21875,612.30365 z"
         id="path3218"
         style="fill:#fcdb00;fill-opacity:1;fill-rule:evenodd;stroke:#fcdb00;stroke-width:0.14999999;stroke-linecap:round;stroke-linejoin:round;stroke-miterlimit:10;stroke-dasharray:none;stroke-opacity:1" />
      <path
         d="M 448.69375,611.89115 L 448.69375,611.89115 L 448.83125,611.89115 L 448.96875,611.75365 L 448.96875,611.75365 L 449.11875,611.75365 L 449.11875,611.75365 L 449.45625,611.61615 L 449.94375,611.32865 L 450.79375,610.76615 L 450.79375,610.76615 L 451.14375,610.41615 L 451.14375,610.41615 L 451.70625,609.71615 L 451.98125,609.29115 L 452.18125,608.95365 L 452.18125,608.95365 L 452.25625,608.66615 L 452.25625,608.39115 L 452.18125,607.84115 L 452.04375,607.26615 L 451.84375,606.79115 L 451.84375,606.79115 L 451.48125,606.07865 L 450.99375,605.51615 L 450.99375,605.51615 L 450.56875,605.17865 L 450.09375,604.89115 L 449.45625,604.60365 L 448.96875,604.47865 L 448.96875,604.47865 L 447.56875,604.26615 L 447.56875,604.26615 L 446.16875,604.34115 L 446.16875,604.34115 L 444.13125,604.89115 L 444.13125,604.89115 L 443.08125,605.31615 L 443.08125,605.31615 L 442.10625,605.87865 L 441.61875,606.22865 L 441.26875,606.56615 L 441.26875,606.56615 L 440.49375,607.20365 L 439.86875,607.84115 L 439.86875,607.84115 L 439.38125,608.66615 L 438.89375,609.57865 L 438.89375,609.57865 L 438.81875,609.79115 L 438.81875,609.94115 L 438.81875,609.94115 L 439.86875,608.89115 L 440.98125,607.84115 L 440.98125,607.84115 L 441.19375,607.61615 L 441.19375,607.61615 L 441.83125,607.20365 L 442.53125,606.79115 L 443.30625,606.36615 L 444.00625,606.07865 L 444.00625,606.07865 L 444.83125,605.87865 L 445.88125,605.80365 L 446.94375,605.72865 L 447.78125,605.72865 L 447.78125,605.72865 L 448.19375,605.80365 L 448.69375,605.94115 L 448.69375,605.94115 L 449.59375,606.22865 L 449.59375,606.22865 L 450.09375,606.50365 L 450.50625,606.85365 L 450.79375,607.34115 L 450.93125,607.55365 L 450.99375,607.84115 L 450.99375,607.84115 L 451.06875,608.31615 L 450.93125,608.74115 L 450.93125,608.74115 L 450.56875,609.29115 L 450.43125,609.65365 L 450.23125,609.86615 L 450.23125,609.86615 L 449.59375,610.27865 L 448.96875,610.70365 L 448.96875,610.70365 L 448.61875,610.84115 L 448.26875,610.91615 L 448.26875,610.91615 L 448.13125,610.99115 L 448.13125,610.99115 L 448.69375,611.89115 L 448.69375,611.89115 z"
         id="path3220"
         style="fill:#fcdb00;fill-opacity:1;fill-rule:evenodd;stroke:#fcdb00;stroke-width:0.14999999;stroke-linecap:round;stroke-linejoin:round;stroke-miterlimit:10;stroke-dasharray:none;stroke-opacity:1" />
      <path
         d="M 416.21875,610.70365 L 416.21875,610.70365 L 416.70625,610.62865 L 416.70625,610.62865 L 416.98125,609.65365 L 417.26875,608.60365 L 417.68125,606.56615 L 417.68125,606.56615 L 416.98125,606.56615 L 416.35625,606.70365 L 416.35625,606.70365 L 415.85625,606.92865 L 415.30625,607.20365 L 415.30625,607.20365 L 414.88125,607.61615 L 414.60625,607.90365 L 414.53125,608.17865 L 414.53125,608.17865 L 414.46875,608.66615 L 414.46875,609.09115 L 414.46875,609.09115 L 414.53125,609.44115 L 414.53125,609.44115 L 414.66875,609.71615 L 414.80625,609.94115 L 415.23125,610.27865 L 415.71875,610.49115 L 416.21875,610.70365 L 416.21875,610.70365 z"
         id="path3222"
         style="fill:#fcdb00;fill-opacity:1;fill-rule:evenodd;stroke:#fcdb00;stroke-width:0.14999999;stroke-linecap:round;stroke-linejoin:round;stroke-miterlimit:10;stroke-dasharray:none;stroke-opacity:1" />
      <path
         d="M 447.84375,610.07865 L 447.84375,610.07865 L 448.33125,610.00365 L 448.83125,609.86615 L 448.83125,609.86615 L 449.45625,609.44115 L 449.45625,609.44115 L 449.94375,608.95365 L 449.94375,608.95365 L 450.09375,608.60365 L 450.15625,608.31615 L 450.15625,608.31615 L 450.15625,608.11615 L 450.09375,607.90365 L 449.94375,607.61615 L 449.66875,607.34115 L 449.31875,607.12865 L 449.31875,607.12865 L 448.83125,606.92865 L 448.33125,606.79115 L 448.33125,606.79115 L 447.84375,606.70365 L 447.56875,606.70365 L 447.35625,606.70365 L 447.35625,606.70365 L 447.35625,607.34115 L 447.49375,608.31615 L 447.84375,610.07865 L 447.84375,610.07865 z"
         id="path3224"
         style="fill:#fcdb00;fill-opacity:1;fill-rule:evenodd;stroke:#fcdb00;stroke-width:0.14999999;stroke-linecap:round;stroke-linejoin:round;stroke-miterlimit:10;stroke-dasharray:none;stroke-opacity:1" />
      <path
         d="M 417.33125,581.87865 L 410.33125,576.84115 L 403.33125,581.87865 L 405.99375,573.69115 L 398.99375,568.57865 L 407.60625,568.57865 L 410.33125,560.32865 L 412.99375,568.57865 L 421.59375,568.57865 L 414.66875,573.69115 L 417.33125,581.87865 z"
         id="path3226"
         style="fill:#fcdb00;fill-opacity:1;fill-rule:nonzero;stroke:#fcdb00;stroke-width:0.14999999;stroke-linecap:round;stroke-linejoin:round;stroke-miterlimit:10;stroke-dasharray:none;stroke-opacity:1" />
      <path
         d="M 460.73125,581.87865 L 453.73125,576.84115 L 446.73125,581.87865 L 449.38125,573.69115 L 442.39375,568.57865 L 451.06875,568.57865 L 453.73125,560.32865 L 456.39375,568.57865 L 465.06875,568.57865 L 458.06875,573.69115 L 460.73125,581.87865 z"
         id="path3228"
         style="fill:#fcdb00;fill-opacity:1;fill-rule:nonzero;stroke:#fcdb00;stroke-width:0.14999999;stroke-linecap:round;stroke-linejoin:round;stroke-miterlimit:10;stroke-dasharray:none;stroke-opacity:1" />
    </g>
  </g>
</svg>
