<?xml version="1.0" encoding="UTF-8"?>
<!DOCTYPE svg  PUBLIC '-//W3C//DTD SVG 1.0//EN'  'http://www.w3.org/TR/2001/REC-SVG-20010904/DTD/svg10.dtd'>
<svg width="687" height="768" version="1.0" viewBox="-2.3812 -2.3812 84.138 94.05" xmlns="http://www.w3.org/2000/svg">
<defs>
<clipPath id="b">
<path d="m354.48 510.24h63.71v-71.63h-63.71v71.63z"/>
</clipPath>
<clipPath id="a">
<path d="m354.48 510.24h63.71v-71.63h-63.71v71.63z"/>
</clipPath>
</defs>
<g transform="translate(-335.31 -487.72)">
<g transform="matrix(1.25 0 0 1.25 -107.92 -60.657)">
<g clip-path="url(#b)">
<path d="m354.59 438.7h63.5v39.69 1.63l-0.17 1.62-0.17 1.56-0.28 1.57-0.39 1.57-0.4 1.51-0.5 1.46-0.56 1.45-0.67 1.4-0.67 1.34-0.78 1.34-0.79 1.29-0.89 1.23-0.96 1.23-1.01 1.13-1.05 1.11-1.07 1.07-1.18 0.95-1.17 0.95-1.29 0.9-1.29 0.84-1.29 0.73-1.4 0.72-1.4 0.62-1.45 0.55-1.46 0.51-1.51 0.44-1.52 0.34-1.56 0.28-1.62 0.22-1.57 0.12-1.68 0.06-1.63-0.06-1.62-0.12-1.57-0.22-1.56-0.28-1.52-0.34-1.51-0.44-1.51-0.51-1.4-0.55-1.4-0.62-1.4-0.72-1.34-0.73-1.29-0.84-1.23-0.9-2.36-1.9-1.05-1.07-1.07-1.11-1.01-1.13-0.95-1.23-0.9-1.23-0.79-1.29-0.78-1.34-0.72-1.34-0.62-1.4-0.56-1.45-0.5-1.46-0.45-1.51-0.34-1.57-0.28-1.57-0.22-1.56-0.12-1.62-0.05-1.63v-39.69z" fill-rule="evenodd"/>
</g>
<g clip-path="url(#a)" fill-rule="evenodd">
<path d="m386.51 488.58v0l0.22-0.28 0.17-0.23 0.28-0.55v0l0.56 0.16 0.56 0.11 0.5 0.11 0.28-0.05 0.34-0.06v0l-0.51-0.72-0.22-0.46-0.11-0.27v0l0.44 0.22 0.51 0.11 1.01 0.23v0l0.56 0.17v0h0.28 0.34l0.78-0.12 0.73-0.22 0.61-0.23v0l0.45-0.27 0.45-0.34 0.34-0.33 0.33-0.45v0l0.45-0.68 0.45-0.95 0.39-0.89 0.22-0.84v0l0.12-0.67v0l0.22-1.79 0.05-0.96-0.05-0.89v0l-0.06-0.67-0.11-0.62-0.17-0.61-0.17-0.62-0.44-1.23-0.57-1.17v0l-0.66-1.23-0.68-1.24-0.73-1.23-0.61-1.23v0l-0.29-0.73-0.27-0.84-0.67-1.85-0.34-0.95-0.39-0.89-0.4-0.73-0.16-0.28-0.22-0.23v0l-0.34-0.33-0.39-0.28-0.39-0.22-0.45-0.17-0.45-0.11-0.45-0.12-0.95-0.16v0l-0.06-0.73-0.05-0.39 0.05-0.4v0l0.06-0.5 0.17-0.55 0.16-0.52 0.29-0.55 0.28-0.5 0.33-0.45 0.34-0.39 0.39-0.39v0l0.45-0.29 0.44-0.22v0l0.51 0.06h0.51v0l0.33 0.05 0.45 0.11 1.06 0.29 1 0.39 0.79 0.27v0l1.29 0.62 1.29 0.73 1.17 0.84 1.12 0.9 1.01 1 1.01 1.01 0.9 1.11 0.84 1.24v0l0.33 0.56 0.34 0.61v0l0.95 1.74 0.45 0.89 0.39 0.9v0l0.39 1.18 0.33 1.17v0l0.29 0.9v0l0.17 0.72 0.16 0.73 0.22 1.52v0l0.18-0.68 0.22-0.61v0l0.44-1.12v0l0.34-0.73 0.39-0.67 0.9-1.29v0l-0.51-1.23-0.44-1.17-0.39-1.23-0.23-1.24v0l-0.06-0.67-0.05-0.73-0.06-1.34v0l1.13-0.39 0.44-0.17 0.45-0.23 0.39-0.22 0.4-0.28 0.44-0.39 0.45-0.39v0l0.39-0.45 0.34-0.45 0.56-0.95v0l0.28-0.39 0.16-0.51 0.23-0.56 0.17-0.55 0.11-0.57 0.11-0.55 0.06-0.56v-0.5 0l-0.06-1.07-0.06-0.56-0.05-0.51v0l-0.17-0.72-0.34-0.78-0.33-0.84-0.45-0.84-0.45-0.79-0.5-0.78-0.45-0.67-0.5-0.62v0l-0.45-0.5-0.56-0.5-0.56-0.46-0.56-0.38-1.17-0.79-1.24-0.73v0l-0.28-0.17-0.33-0.11 0.11 0.06v0l0.06 0.33 0.05 0.4-0.05 0.39-0.06 0.39v0l-0.28 0.56-0.29 0.51-0.61 1.06-1.28 2.01v0l-0.4 0.68-0.44 0.89-0.4 0.9-0.22 0.78v0l-0.06 0.5-0.05 0.56v1.07 0 0.55l0.05 0.62 0.06 0.62 0.11 0.5v0l0.22 0.56 0.29 0.67 0.33 0.67 0.28 0.51v0l0.5 0.73 0.57 0.66v0l0.33 0.4 0.34 0.28 0.67 0.62v0l0.39 0.33 0.34 0.33-0.06 2.02v0l-1.01-1.46-1-1.34-1.13-1.29-1.17-1.18-1.24-1.05-1.34-1.01-1.51-0.9-1.56-0.78v0l-0.62-0.28-0.67-0.23-1.29-0.39v0l-0.95-0.22-0.96-0.23-1-0.16-1.01-0.06v0h-1.24-0.66-0.62v0l-1.96-0.11-1.96-0.22-1-0.11-0.96-0.23-0.95-0.23-0.95-0.33v0l-0.17-0.17v0l-0.06-1v0l-0.16-0.84-0.23-0.79-0.28-0.78-0.39-0.73v0l-0.5-0.72-0.28-0.34-0.29-0.34v0l-0.34-0.28-0.32-0.22-0.79-0.45v0l-0.73-0.33-0.73-0.29-0.72-0.22-0.79-0.17-0.78-0.11-0.79-0.05h-0.78-0.79v0l-0.78 0.05-0.78 0.11-0.73 0.17-0.78 0.22v0l-0.84 0.34-0.79 0.28-0.78 0.39-0.79 0.4-1.45 0.89-1.46 0.9v0.11 0l0.68 0.39v0l0.39 0.34 0.39 0.33v0l0.72 0.67 0.73 0.67v0l0.39 0.4 0.34 0.44 0.73 0.95v0l0.84 0.95v0l0.61 0.73 0.56 0.57 0.62 0.5 0.79 0.5v0l0.5 0.28 0.5 0.17 0.45 0.22 0.56 0.12v0l0.95 0.22 1.01 0.06h0.95l1.01-0.12v0l0.73-0.16 0.67-0.18 0.62-0.27 0.61-0.34 0.56-0.39 0.56-0.45 0.5-0.5 0.45-0.56v0l0.57 0.11 0.61 0.11 1.12 0.34v0l-1.57 0.45v0l-0.5 0.11-0.45 0.11v0l-1.12 0.56v0l-1.68 0.78-0.89 0.51-0.84 0.5-0.79 0.56-0.78 0.62-0.67 0.61-0.62 0.73v0l-0.79-0.17-0.78-0.05v0h-0.39-0.45l-0.84 0.16-0.84 0.28-0.84 0.34-0.73 0.5-0.72 0.51-0.62 0.61-0.56 0.62v0l-0.45 0.66-0.39 0.68-0.34 0.67-0.22 0.62-0.23 0.67-0.16 0.73-0.23 1.34-0.11 1.4-0.16 1.39-0.18 1.46-0.1 0.73-0.18 0.72v0l-0.27 1.29-0.23 0.62-0.11 0.28-0.17 0.22v0l-0.39 0.45-0.39 0.39v0h0.39l0.67-0.05 1.12-0.17v0l0.95-0.17 0.96-0.16 1.01-0.29 0.94-0.28 0.95-0.33 0.91-0.39 0.89-0.45 0.84-0.56v0l0.56-0.45 0.62-0.45v0l0.33-0.28 0.39-0.27v0l0.34-0.4 0.34-0.44v0l0.39-0.45 0.33-0.5v0l0.51-0.79 0.39-0.9 0.39-0.89 0.28-0.84v0l0.17-0.67 0.17-0.62 0.1-1.34-0.05-0.67-0.05-0.62-0.17-0.67-0.23-0.67v0l-0.27-0.62-0.17-0.33-0.23-0.28v0l-0.22-0.23v0l1.18-1 1.23-0.84 1.23-0.73 1.29-0.61 1.29-0.57 1.39-0.39 1.46-0.34 1.51-0.22v0l1.74-0.16 0.95-0.07h0.39l0.28 0.07v0l-0.17 0.33-0.22 0.33v0l-0.39 0.96-0.34 1.01-0.22 1-0.06 0.5v0.51 0l0.06 0.67v0.67 0l-0.62 0.23-0.56 0.11v0l-0.79 0.33-0.32 0.17-0.34 0.23-0.34 0.22-0.28 0.28-0.22 0.33-0.29 0.4v0l-0.27 0.61-0.23 0.51-0.11 0.5-0.17 0.62v0l-0.27 0.66v0l-0.34 1.18v0l-0.68 1.68v0l-0.5 0.89-0.5 0.91-0.57 0.84-0.44 0.95v0l-0.45 1-0.4 1.07-0.27 1.05-0.23 1.07v0l-0.16 0.84v0l-0.12 0.56-0.06 0.56v0 0.95l0.06 0.95v0l0.12 1.35 0.05 0.61 0.11 0.56 0.18 0.57 0.16 0.55 0.28 0.56 0.34 0.62v0l0.45 0.78 0.27 0.34 0.34 0.33v0l0.5 0.39 0.62 0.39 0.61 0.29 0.34 0.11 0.34 0.05v0l0.39 0.06h0.4v0l0.66-0.06 0.5-0.05 0.57-0.11 0.61-0.23v0l0.79-0.27 0.78-0.29v0l-0.56 0.9-0.33 0.44-0.4 0.4 0.11 0.22v0h0.51l0.56-0.06 0.5-0.16 0.23-0.11 0.22-0.11h0.11v0l0.28 0.5 0.11 0.28 0.12 0.28v0zm13.82 16.73v0l0.51-1.29 0.22-0.78v0l0.06-0.56v-0.55 0-0.68 0-0.34l-0.11-0.39-0.22-0.67v0l-0.12-0.33-0.11-0.34v0l-0.28-0.45-0.33-0.45-0.4-0.44-0.5-0.45v0l-0.28-0.28-0.34-0.23v0l-0.33-0.22-0.34-0.16-0.78-0.29-0.67-0.11-0.57-0.06v0l-0.72-0.06-0.78 0.06v0l-0.4 0.06-0.67 0.17v0l-0.45 0.17-0.22 0.06-0.11 0.05v0-1.12 0l-0.12-0.61-0.16-0.73-0.28-0.68-0.28-0.5v0l-0.56-0.73-0.4-0.5-0.44-0.39v0l-0.4-0.34-0.44-0.22-0.67-0.28v0l-0.57-0.23-0.55-0.11-0.62-0.11h-0.62v0l-0.5 0.05-0.51 0.17v0l-0.78 0.23-0.67 0.33-0.62 0.4-0.67 0.5v0l-0.28 0.23-0.27 0.27v0l-0.46 0.57-0.28 0.55-0.22 0.5-0.17 0.57v0l-0.28 1.06v0 0.67l0.06 0.67v0l-0.67-0.27-0.73-0.23-0.73-0.17-0.79-0.06v0l-0.72 0.12-0.73 0.11v0l-1 0.34v0l-0.79 0.44-0.67 0.5-0.56 0.63-0.51 0.66-0.39 0.73-0.28 0.79-0.17 0.78v0.89 0 0.56 0l0.12 0.51 0.16 0.61 0.23 0.56 0.22 0.51 0.45 0.67v0l-0.95-0.51-0.9-0.5-0.89-0.5-0.9-0.62-0.84-0.56-0.84-0.67-0.84-0.62-0.78-0.72-0.79-0.68-0.73-0.78-0.66-0.72-0.73-0.79-0.68-0.84-0.61-0.84-0.62-0.84-0.56-0.83-0.56-0.9-0.51-0.96-0.5-0.95-0.45-0.94-0.39-0.96-0.39-1.01-0.4-1.01-0.27-1-0.34-1.01-0.23-1.06-0.21-1.06-0.17-1.12-0.12-1.07-0.11-1.12-0.05-1.12-0.06-1.12v-38.11h60.69v38.11 0 1.12l-0.05 1.06-0.11 1.12-0.11 1.07-0.17 1.06-0.22 1.01-0.23 1.06-0.27 1.01-0.29 1.01-0.39 0.95-0.34 1.01-0.39 0.95-0.45 0.95-0.5 0.89-0.45 0.9-0.56 0.9-1.12 1.68-0.61 0.84-0.62 0.78-0.67 0.79-0.67 0.77-1.46 1.46-0.79 0.68-0.78 0.66-0.78 0.62-0.84 0.61-0.84 0.56-0.84 0.57-1.8 1v0z" fill="#0093dd" stroke="#0093dd" stroke-linecap="round" stroke-linejoin="round" stroke-miterlimit="10" stroke-width=".12"/>
<path d="m386.62 487.4 0.11-0.17 0.06-0.28 0.11-0.22 0.11-0.23 0.17 0.17 0.22 0.12 0.45 0.28 0.33 0.11 0.23 0.05-0.11-0.16-0.5-0.73-0.17-0.28-0.23-0.5 0.56-0.4 0.9 0.4 0.95 0.33 0.51 0.11 0.5 0.11 0.5 0.06h0.45l0.39-0.06 0.45-0.16 0.45-0.18 0.34-0.16 0.5-0.39 0.5-0.45 0.28-0.34 0.28-0.33 0.4-0.78 0.27-0.51 0.23-0.5 0.11-0.5 0.11-0.51 0.17-1.17 0.06-1.13-0.06-1.17-0.17-1.18-0.11-0.95-0.28-0.72-0.28-0.96-0.33-0.95-0.68-1.28-0.67-1.23-0.73-1.24-0.61-1.28-0.34-0.9-0.22-0.9-0.68-2.07-0.22-0.72-0.34-0.73-0.39-0.73-0.22-0.34-0.28-0.27-0.39-0.34-0.4-0.22-0.44-0.17-0.45-0.11-0.5-0.12h-0.45-1.01l-0.9 0.06-0.5 0.06-0.9 0.22-0.39 0.17-0.39 0.27-0.39 0.29-0.4 0.39-0.39 0.56-0.34 0.56-0.22 0.56-0.16 0.67-0.57 2.13-0.33 0.95-0.45 0.95-0.5 0.89-0.5 0.84-0.68 1.24-0.61 1.34-0.51 1.34-0.22 0.67-0.11 0.68-0.18 0.78-0.05 0.78-0.05 0.9v0.89 0.9l0.1 0.89 0.12 0.79 0.17 0.73 0.17 0.62 0.67 1.34 0.34 0.5 0.33 0.45 0.39 0.39 0.4 0.34 0.5 0.27 0.5 0.17 0.29 0.11 0.27 0.06h0.51 0.5l0.5-0.06 0.51-0.11 1.06-0.23 0.95-0.27 0.73-0.34 0.45 0.51-0.11 0.28-0.12 0.22-0.39 0.62-0.33 0.5 0.11-0.06h0.11l0.28-0.16 0.34-0.23 0.56-0.5 0.16 0.5 0.23 0.56z" fill="#fff"/>
<path d="m390.7 499.49v0l0.51-0.56 0.67-0.67v0l0.34-0.22 0.34-0.23v0l0.44-0.22 0.5-0.23 0.51-0.16 0.51-0.12v0h0.5 0.5l0.45 0.12 0.5 0.11 0.45 0.17 0.45 0.22 0.39 0.22 0.45 0.34 0.33 0.28 0.68 0.78 0.27 0.4 0.23 0.44 0.17 0.45 0.12 0.45 0.1 0.5v0 0.45 0l-0.05 0.62-0.05 0.55-0.18 0.56-0.22 0.57v0l-0.73 1.73v0l-1.46 0.61-1.5 0.51-1.52 0.5-1.57 0.34-1.56 0.33-1.63 0.23-1.62 0.11-1.68 0.06v0l-1.51-0.06-1.51-0.11-1.52-0.17-1.45-0.28-1.46-0.34-1.4-0.39-1.39-0.45-1.36-0.5v0l-0.84-1.18-0.5-0.78v0l-0.22-0.5v0l-0.22-0.67-0.11-0.67v-0.73l0.05-0.67 0.23-0.73 0.27-0.62 0.45-0.67 0.51-0.56v0l0.38-0.39 0.4-0.22 0.39-0.29 0.51-0.21v0l0.78-0.29 0.51-0.11v0l0.33-0.06h0.39l0.73 0.12v0l0.39 0.11 0.45 0.11 0.39 0.23 0.34 0.16v0l0.39 0.39 0.4 0.34v0l0.27 0.39 0.28 0.39v0l-0.05-0.28-0.06-0.45-0.17-0.78v0l-0.06-0.61 0.06-0.73v-0.73l0.11-0.56v0l0.12-0.34 0.16-0.5 0.23-0.44 0.16-0.34v0l0.45-0.5v0l0.45-0.57 0.56-0.38 0.56-0.34 0.68-0.28v0l0.78-0.17 0.72-0.05v0l0.62 0.05 0.51 0.06 0.5 0.16 0.5 0.17v0l0.62 0.34 0.28 0.17 0.28 0.21v0l0.34 0.34v0l0.33 0.4 0.22 0.39 0.29 0.44 0.16 0.4 0.17 0.44 0.11 0.45 0.06 0.51 0.05 0.5v0 0.61l-0.05 0.74v0l-0.11 0.5-0.17 0.5-0.4 0.84v0z" fill="#094" stroke="#094" stroke-linecap="round" stroke-linejoin="round" stroke-miterlimit="10" stroke-width=".12"/>
<path d="m360.58 473.74v0l0.22-0.61 0.18-0.68v0l0.11-0.78 0.11-0.72v0l0.22-1.57v0l0.06-0.95v0l0.11-1.35 0.17-1.4 0.28-1.39 0.23-0.62 0.21-0.67v0l0.34-0.78 0.23-0.39 0.22-0.34v0l0.5-0.5v0l0.68-0.9v0l0.61-0.56 0.73-0.45 0.78-0.39 0.79-0.33v0l0.61-0.18 0.73-0.1h0.73 0.34l0.27 0.05v0l0.34 0.11v0l0.28 0.06 0.33 0.17v0l0.23-0.34 0.28-0.28 0.62-0.61v0l0.5-0.57v0l0.45-0.38 0.56-0.4 1.34-0.78 1.35-0.73 1.17-0.56v0l1.57-0.5v0l0.95-0.34v0l0.56-0.17 0.62-0.11 1.17-0.22 0.12-0.4v0l-1.29-0.27-1.29-0.29v0l-1.51-0.55v0l-1.4-0.45-1.35-0.5v0l-0.84-0.34-0.84-0.39v0l-0.89-0.5v0l-1.46-0.57-1.51-0.5-1.51-0.39-1.57-0.28v0l2.13 0.67 1 0.39 1.02 0.39v0l1.06 0.45 1.01 0.5v0l2.02 0.95 2.07 0.84v0l-0.34 0.51-0.45 0.45v0l-0.44 0.34-0.46 0.27-0.44 0.23-0.46 0.16-0.44 0.18-0.5 0.11-1.01 0.11v0l-0.84 0.05h-0.78l-0.79-0.11-0.78-0.22-0.73-0.28-0.67-0.34-0.73-0.39-0.67-0.5v0l-0.62-0.57-0.61-0.61v0l-0.4-0.56-0.38-0.5-0.84-1.07v0l-0.57-0.73-0.61-0.61v0l-0.39-0.33-0.4-0.29-0.84-0.61v0l0.45-0.34 0.39-0.33v0l0.79-0.51 0.84-0.44 0.89-0.45 0.95-0.34 0.95-0.28 1.01-0.22 0.95-0.17 0.9-0.11v0h0.45 0.5l1.18 0.11 1.12 0.17 1.01 0.22v0l0.61 0.23 0.67 0.33 0.68 0.4 0.5 0.33v0l0.34 0.28 0.22 0.28 0.45 0.56 0.34 0.62 0.27 0.66v0l0.29 0.9 0.1 0.45 0.06 0.45v0l0.06 0.78v0.84 0l0.72 0.33 0.74 0.29v0l0.78 0.16 0.84 0.11 1.68 0.23v0l1.62 0.23 1.68 0.16v0l3.25 0.11v0h0.78l0.79 0.11v0l1.17 0.23 1.18 0.28 1.11 0.33 1.07 0.46 1.01 0.44 0.95 0.51 0.95 0.61 0.9 0.62 0.89 0.67 0.84 0.72 0.79 0.79 0.78 0.84 0.73 0.84 0.73 0.94 0.73 0.96 0.67 1.01v0l0.34 0.62 0.33 0.61v0l0.23 0.05 0.16 0.06v0-2.07-2.07 0l-0.45-0.28-0.44-0.39-0.45-0.39-0.39-0.39-0.73-0.9-0.62-0.95v0l-0.61-1.01-0.23-0.5-0.22-0.51-0.17-0.51-0.11-0.55-0.11-0.5-0.06-0.57v-0.5-0.56l0.06-0.56 0.11-0.51 0.11-0.55 0.17-0.56 0.22-0.51 0.23-0.56v0l0.44-0.78 0.57-0.79 0.5-0.78 0.55-0.78v0l0.34-0.62 0.34-0.61 0.56-1.34v0l0.78 0.45 0.79 0.5 0.73 0.61 0.72 0.62 0.67 0.67 0.63 0.73 0.5 0.73 0.5 0.78v0l0.34 0.67 0.28 0.67 0.22 0.73 0.16 0.72 0.18 0.73 0.05 0.79 0.06 0.73-0.06 0.78-0.05 0.72-0.18 0.73-0.16 0.73-0.28 0.67-0.34 0.68-0.38 0.62-0.52 0.55-0.55 0.56v0l-0.56 0.39-0.56 0.34v0l-0.67 0.34-0.68 0.22v0l0.06-1.01 0.05-0.95v0-0.56 0l0.06-0.67 0.12-0.67 0.11-0.73 0.05-0.67v0l0.06-0.62v-0.67l-0.11-1.28v0l-0.06-0.23-0.05-0.23v0l-0.12 1.74-0.06 0.84-0.11 0.84v0l-0.22 1.01-0.17 1v0l-0.22 1.85-0.06 0.95-0.06 0.89v0.96l0.06 0.95 0.12 0.9 0.11 0.94v0l0.17 0.84 0.05 0.45 0.11 0.46v0l0.4 1 0.22 0.56 0.17 0.39v0l-0.06 0.23-0.39 0.78-0.67 0.9v0l-0.11-0.23-0.12-0.22-0.11-0.5v0l-0.39-1.07-0.45-1.06-0.45-1.07-0.5-1-1.12-2.02-0.67-0.95-0.62-0.95v0l-0.67-0.9v0l-0.96-1.12-1.06-1-1.12-0.96-1.23-0.89-1.23-0.73-1.35-0.67-1.34-0.56-1.39-0.44v0l-0.57-0.12-0.56-0.11-0.55-0.06h-0.57v0l-0.5 0.11-0.56 0.18-0.56 0.27-0.45 0.34v0l-0.22 0.22-0.23 0.28-0.45 0.56v0l-0.28 0.56-0.22 0.56-0.16 0.56-0.18 0.56-0.05 0.61-0.11 0.57v1.23 0h-0.28-0.28v0l-0.06-0.5v-0.51 0-0.51-0.55 0l0.06-0.34 0.11-0.39 0.33-0.95 0.4-0.96 0.39-0.66v0l0.67-0.79 0.67-0.67v0l-0.39-0.06h-0.39l-0.84 0.06v0h-1.23l-1.29 0.05v0l-1.12 0.12-1.12 0.16-1.06 0.23-1.13 0.27v0l-0.84 0.29-0.94 0.34-0.96 0.39-0.95 0.44-0.95 0.56-0.9 0.51-0.78 0.56-0.68 0.56v0l-0.38 0.44-0.4 0.39-0.67 0.9v0l-1.29 1.57v0l-0.61 0.78-0.56 0.84-1.06 1.68v0l-1.75 3.02v0.06 0l1.18-1.68 1.18-1.74 1.29-1.62 1.34-1.57v0l0.51-0.5 0.5-0.45v0l0.28 0.34 0.17 0.34 0.16 0.33 0.11 0.34 0.06 0.33 0.06 0.39v0.84 0 0.79l-0.06 0.73-0.11 0.67-0.17 0.67-0.22 0.67-0.28 0.61-0.28 0.68-0.39 0.66v0l-0.45 0.68-0.45 0.56-0.56 0.62-1.12 1-0.67 0.51-0.62 0.38-0.73 0.34v0l-1 0.5-1.07 0.4-1.12 0.33-1.11 0.29v0l-0.9 0.16-0.9 0.11v0z" fill="#094" stroke="#094" stroke-linecap="round" stroke-linejoin="round" stroke-miterlimit="10" stroke-width=".12"/>
</g>
</g>
</g>
</svg>
