<?xml version="1.0" encoding="UTF-8"?>
<svg version="1.0" viewBox="0 0 500 559.87" xmlns="http://www.w3.org/2000/svg" xmlns:cc="http://creativecommons.org/ns#" xmlns:dc="http://purl.org/dc/elements/1.1/" xmlns:rdf="http://www.w3.org/1999/02/22-rdf-syntax-ns#">
<metadata>
<rdf:RDF>
<cc:Work rdf:about="">
<dc:format>image/svg+xml</dc:format>
<dc:type rdf:resource="http://purl.org/dc/dcmitype/StillImage"/>
</cc:Work>
</rdf:RDF>
</metadata>
<g transform="translate(-308.88 147.96)">
<g transform="matrix(6.0472 0 0 6.0472 -1549 -1968.1)">
<g transform="matrix(1.25 0 0 1.25 -134.35 129.25)">
<path d="m354.59 138.71h63.5v39.68 1.62l-0.17 1.62-0.17 1.57-0.28 1.57-0.39 1.57-0.4 1.51-0.5 1.46-0.56 1.45-0.67 1.4-0.67 1.34-0.78 1.34-0.79 1.29-0.89 1.23-0.96 1.23-1.01 1.13-1.05 1.12-1.07 1.06-1.18 0.95-1.17 0.95-1.29 0.9-1.29 0.84-1.29 0.72-1.4 0.73-1.4 0.62-1.45 0.55-1.46 0.51-1.51 0.45-1.52 0.33-1.56 0.28-1.62 0.23-1.57 0.11-1.68 0.06-1.63-0.06-1.62-0.11-1.57-0.23-1.56-0.28-1.52-0.33-1.51-0.45-1.51-0.51-1.4-0.55-1.4-0.62-1.4-0.73-1.34-0.72-1.29-0.84-1.23-0.9-2.36-1.9-1.05-1.06-1.07-1.12-1.01-1.13-0.95-1.23-0.9-1.23-0.79-1.29-0.78-1.34-0.72-1.34-0.62-1.4-0.56-1.45-0.5-1.46-0.45-1.51-0.34-1.57-0.28-1.57-0.22-1.57-0.12-1.62-0.05-1.62v-39.68z" fill-rule="evenodd"/>
</g>
<path d="m364.81 376.02 0.2-0.2125 0.225-0.2875-1.9-0.7625-0.625-0.2875-0.35-0.3375-0.4125-0.4875-0.7125-0.9125-0.275-0.425-0.5625-0.625-0.4875-0.85-0.2125-0.55-0.2-0.8375-0.2875-1.5375-0.8375-3.6375-0.4875-2.1625-0.775-3.575-0.7625-0.35-0.6375-0.35-0.55-0.4125-0.775-0.65-0.6375-0.6875-0.4125-0.7-0.2875-0.6375v3.0875 1.05l0.075 0.975v0.4875l0.1375 0.4875 0.2125 0.625 0.2125 0.5 0.275 0.4875 0.8375 1.75 1.75 3.5 0.2875 0.8375 0.275 0.8375 0.2875 1.2 0.0625 0.8375 0.0625 0.9-0.0625 0.7v0.7l0.2 0.425 0.15 0.2125 0.2125 0.125 0.2125 0.075 0.275 0.075 0.2875 0.075h0.275 0.55l0.5625 0.0625 0.4875 0.1375 0.9875 0.2875 1.1875 0.3375 0.7125 0.2875 0.6875 0.2875h0.2125l0.35-0.075z" fill="#fff" fill-rule="evenodd"/>
<path d="m330.93 375.46h0.7l0.4875-0.1375 0.8375-0.2 0.35-0.15 0.2875-0.1375 0.35-0.2125 0.35-0.15 0.825-0.2625 0.575-0.15h0.7625l0.775-0.075 1.125-0.2 0.2-0.425 0.2125-0.4125 0.0625-0.2875v-0.275l-0.0625-0.6375v-0.4875l0.0625-0.6875 0.075-0.5 0.2125-0.55 0.2875-0.6375 0.2-0.4125 2.5875-4.625 0.85-1.475 0.3375-0.55 0.1375-0.4875 0.425-1.6125 0.225-2.1625v-0.6375l0.125-0.6375 0.1375-0.275h-0.1375l-0.275 0.275-0.2125 0.2875-0.425 0.5625-0.2625 0.35-0.5 0.35-0.55 0.35-0.575 0.2125-0.7 0.2-0.4875 0.075-0.4875 0.0625-0.7 3.0125-0.35 1.4125-0.5625 1.8125-0.4875 1.6-0.5625 1.5375-0.5625 1.825-0.425 0.9875-0.2 0.4125-0.2 0.35-0.225 0.2125-0.2 0.1375-0.425 0.425-1.9625 1.675-0.4125 0.275-0.6375 0.2125-1.1875 0.4125v0.2875l0.2125 0.1375z" fill="#fff" fill-rule="evenodd"/>
<path d="m339.88 357.69-0.1375-0.625v-0.4875l0.075-0.4875 0.0625-0.2125 0.075-0.1375 1.2-0.35 1.1125-0.35 0.4875-0.2125 0.4875-0.35 0.7-0.55v0.2l0.075 0.1375-0.075 0.4875-0.1375 0.425-0.2875 0.4875-0.2 0.2875-0.275 0.2-0.5 0.5-0.475 0.4125-0.575 0.3625-0.625 0.2-0.9875 0.0625zm2.875-2.5875v0.1375l0.1375 0.15 0.075 0.075 0.15 0.0625 0.125-0.0625 0.1375-0.075 0.075-0.15 0.0625-0.1375-0.0625-0.1375-0.075-0.1375-0.1375-0.075h-0.125-0.15l-0.2125 0.2125v0.1375z" fill="#fff" fill-rule="evenodd"/>
<path d="m357.52 357.42-0.625-0.2875-0.55-0.275-0.5625-0.35-0.5625-0.5-0.425-0.35-0.35-0.4875-0.275-0.7-0.0625-0.275v-0.275l1.6 0.3375 1.6125 0.2125 0.3375 0.7 0.225 0.425 0.1375 0.275v0.275 0.225 0.275l-0.1375 0.2125-0.15 0.275-0.2125 0.2875zm-3.075-2.675v0.15l0.075 0.1375 0.1375 0.0625h0.1375 0.1375l0.15-0.0625 0.075-0.1375v-0.15-0.1375l-0.075-0.1375-0.15-0.0625-0.1375-0.075-0.1375 0.075-0.1375 0.0625-0.075 0.1375v0.1375z" fill="#fff" fill-rule="evenodd"/>
<path d="m339.55 354.9 0.0625-0.35 0.1375-0.35 0.2875-1.125 0.7625-0.1375 0.85-0.2 0.9-0.425 0.8375-0.4875 0.7125-0.5 0.4125-0.4125v0.4875l-0.3375 0.975-0.2875 0.5-0.2875 0.275-0.2125 0.2125-0.55 0.425-0.5625 0.3375-0.4875 0.2125-0.5625 0.2125-0.8375 0.2-0.8375 0.15zm3.575-2.45v0.1375l0.0625 0.15 0.1375 0.0625h0.1375 0.1375l0.15-0.0625 0.0625-0.15v-0.1375-0.1375l-0.0625-0.1375-0.15-0.0875-0.1375-0.0625-0.1375 0.0625-0.1375 0.0875-0.0625 0.1375v0.1375z" fill="#fff" fill-rule="evenodd"/>
<path d="m357.66 353.71-1.675-0.2125-1.1875-0.2125-0.4125-0.1375-0.275-0.075-0.225-0.1375-0.1375-0.1375-0.2-0.2875-0.075-0.275-0.1375-0.55v-0.2875l0.4125 0.2 0.6375 0.2875 0.7 0.1375 0.475 0.0625h0.425 0.9125l0.7625 1.625zm-3.8375-1.3375 0.0625 0.1375 0.075 0.15 0.0625 0.075h0.15 0.2125l0.0625-0.075 0.075-0.15 0.0625-0.1375-0.0625-0.1375-0.075-0.15-0.0625-0.0625-0.2125-0.0625-0.15 0.0625-0.0625 0.0625-0.075 0.15-0.0625 0.1375z" fill="#fff" fill-rule="evenodd"/>
<path d="m352.56 352.74-0.35-1.625-0.625-2.575-1.05-3.8625-0.9875 0.85 0.5 1.1875 0.7625 1.9625 0.8375 1.8125 0.9125 2.25z" fill="#fff" fill-rule="evenodd"/>
<path d="m344.23 349.36-0.1375 0.6375-0.075 0.35v0.1375l-0.7 0.4875-0.85 0.5625-0.6875 0.2875-0.7 0.2625-0.5625 0.0875-0.4125 0.1375 0.275-0.775 0.275-0.7 1.05-0.2125 0.4875-0.1375 0.425-0.1375 0.5625-0.2875 0.4875-0.3375 0.5625-0.3625zm-0.9875 0.9125v0.1375l0.075 0.1375 0.1375 0.075h0.0625 0.15l0.1375-0.075 0.075-0.1375v-0.1375-0.1375l-0.075-0.075-0.1375-0.0625-0.15-0.075-0.0625 0.075-0.1375 0.0625-0.075 0.075v0.1375z" fill="#fff" fill-rule="evenodd"/>
<path d="m345.07 352.17 0.9125-2.3125 0.975-3.0875 0.2125-0.55 0.1375-0.5-1.05-0.7625-0.55 3.15-0.425 2.375-0.2125 1.6875z" fill="#fff" fill-rule="evenodd"/>
<path d="m357.4 351.32-0.7125 0.075h-0.7l-0.55-0.075-0.5-0.0625-0.4875-0.15-0.4875-0.275-0.275-0.1375-0.2125-0.15-0.2125-0.2-0.2125-0.2875-0.1375-0.275-0.075-0.275-0.0625-0.275v-0.2875l0.9125 0.35 1.1125 0.2125 0.7625 0.0625h0.7875l0.2625 0.35 0.3625 0.625 0.425 0.775zm-4.0625-1.4625v0.1375l0.0625 0.1375 0.15 0.075 0.1375 0.0625 0.1375-0.0625 0.1375-0.075 0.0625-0.1375v-0.1375-0.1375l-0.0625-0.15-0.1375-0.0625h-0.1375-0.1375l-0.15 0.0625-0.0625 0.15v0.1375z" fill="#fff" fill-rule="evenodd"/>
<path d="m340.46 350 0.475-1.8875 0.9125-0.2125 0.9125-0.1375 0.7625-0.3625 0.775-0.4 0.35-0.225 0.2125-0.1375 0.1375-0.0625-0.1375 0.625-0.2125 0.5625-0.35 0.775-0.2 0.0625-0.2125 0.1375-0.5625 0.425-0.625 0.275-0.5625 0.2125-0.9125 0.275-0.7625 0.075zm3.0625-2.175 0.075 0.15 0.075 0.1375 0.1375 0.075 0.1375 0.0625 0.15-0.0625 0.075-0.075 0.0625-0.1375 0.0625-0.15-0.125-0.275-0.075-0.0625h-0.15-0.1375l-0.1375 0.0625-0.15 0.275z" fill="#fff" fill-rule="evenodd"/>
<path d="m356.68 348.74-0.8375 0.075h-0.7625l-0.775-0.1375-0.5625-0.1375-0.4875-0.2125-0.35-0.275-0.275-0.2875-0.2125-0.275-0.1375-0.2875-0.1375-0.425-0.075-0.4875 0.625 0.2875 0.7 0.2 0.625 0.225 0.6375 0.0625h0.7 0.5625l0.35 0.8375 0.4125 0.8375zm-4.05-1.4625v0.2125l0.2 0.2h0.1375 0.15l0.1375-0.1375 0.075-0.0625 0.0625-0.2125-0.0625-0.1375-0.075-0.075-0.1375-0.15h-0.15-0.1375l-0.1375 0.15-0.0625 0.075v0.1375z" fill="#fff" fill-rule="evenodd"/>
<path d="m340.87 347.27 0.2125-0.9125 0.1375-0.775 0.625-0.1375 0.7-0.1375 1.05-0.275 0.5-0.2125 0.55-0.275 0.6375-0.425h0.0625l-0.0625 0.35-0.1375 0.35-0.2125 0.4875-0.1375 0.275-0.225 0.275-0.275 0.2875-0.4875 0.275-0.7625 0.35-0.6375 0.2875-0.625 0.1375-0.9125 0.075zm2.8-1.75v0.1375l0.075 0.1375 0.1375 0.0625 0.1375 0.075 0.275-0.1375 0.075-0.1375 0.0625-0.1375-0.0625-0.15-0.075-0.1375-0.275-0.1375-0.1375 0.075-0.1375 0.0625-0.075 0.1375v0.15z" fill="#fff" fill-rule="evenodd"/>
<path d="m356.27 346.22-0.7125 0.0625h-0.6875l-0.7625-0.1375-0.775-0.2125-0.5-0.2125-0.3375-0.2-0.425-0.2875-0.2875-0.4125-0.2-0.35-0.1375-0.425 0.4125 0.2125 0.4875 0.15 0.7 0.0625 0.7 0.075h0.6375l1.175-0.075 0.3625 0.8375 0.2125 0.4875 0.1375 0.425zm-4.125-1.2625 0.0625 0.1375 0.075 0.1375 0.1375 0.075 0.1375 0.0625 0.1375-0.0625 0.2125-0.2125v-0.1375-0.1375l-0.1375-0.15-0.075-0.0625h-0.1375-0.1375l-0.1375 0.0625-0.075 0.15-0.0625 0.1375z" fill="#fff" fill-rule="evenodd"/>
<path d="m340.52 344.82 0.7-2.175 1.1875-0.0625 1.1875-0.1375 0.975-0.225 0.9125-0.2-0.0625 0.4875-0.075 0.2125-0.0625 0.275-0.2875 0.2875-0.425 0.4125-0.4 0.35-0.425 0.1375-0.425 0.15-0.4875 0.1375-0.5625 0.1375-0.9125 0.1375-0.8375 0.075zm3.5-2.025v0.2l0.15 0.075 0.0625 0.1375h0.1375 0.1375l0.2125-0.2125 0.075-0.2-0.075-0.15-0.075-0.0625-0.1375-0.1375h-0.1375-0.1375l-0.0625 0.1375-0.15 0.0625v0.15z" fill="#fff" fill-rule="evenodd"/>
<path d="m349.2 344.12 0.2125-0.275 0.075-0.2875 0.2-0.625-0.0625-0.5625-0.4875 0.425-0.275 0.2-0.3625 0.075-0.4125 0.0625-0.35-0.0625-0.35-0.1375-0.35-0.2125-0.5-0.4125v0.7625l0.075 0.2875 0.2125 0.3375 0.275 0.4875 0.2125 0.225 0.2125 0.1375 0.2125 0.125h0.2125 0.2 0.2875l0.2-0.0625 0.225-0.1375 0.3375-0.35z" fill="#fff" fill-rule="evenodd"/>
<path d="m355.71 343.56-0.4875 0.075-1.1125 0.2125h-0.5l-0.6375-0.075-0.825-0.275-0.3625-0.2125-0.2-0.2125-0.35-0.5625-0.2875-0.5625 1.125 0.275 0.625 0.0875 0.6375-0.0875 0.4875-0.0625 0.5625-0.075 0.4125-0.1375h0.2125l0.7 1.6125zm-3.9875-0.7 0.0625 0.1375 0.075 0.1375 0.1375 0.075 0.15 0.075 0.1375-0.075 0.0625-0.075 0.15-0.275-0.15-0.275-0.0625-0.075h-0.1375-0.15l-0.1375 0.075-0.075 0.1375-0.0625 0.1375z" fill="#fff" fill-rule="evenodd"/>
<path d="m348.22 342.31 0.4125-0.15 0.3625-0.2125 0.2-0.35 0.075-0.275 0.0625-0.2875v-0.275l-0.0625-0.35h-2.375l-0.075 0.35 0.075 0.275 0.0625 0.2875 0.2125 0.4875 0.1375 0.2125 0.2125 0.1375 0.35 0.15h0.35z" fill="#fff" fill-rule="evenodd"/>
<path d="m345.98 340.27-0.1375 0.275-0.225 0.35-0.3375 0.2125-0.4875 0.2875-0.775 0.3375-0.7 0.15h-0.775l-0.7625-0.075-0.5625-0.075-0.425-0.1375v-0.1375l1.275-2.2375 1.175 0.35 2.7375 0.7zm-1.6875 0.275 0.075 0.2125 0.0625 0.075 0.1375 0.1375h0.15 0.1375l0.075-0.1375 0.1375-0.075v-0.2125-0.1375l-0.1375-0.0625-0.075-0.15h-0.1375-0.15l-0.1375 0.15-0.0625 0.0625-0.075 0.1375z" fill="#fff" fill-rule="evenodd"/>
<path d="m355.3 340.9-0.425 0.2125-0.4875 0.1375-0.5 0.15-0.4125 0.1375h-0.5-0.475l-0.5-0.075h-0.4125l-0.35-0.1375-0.3625-0.2875-0.2-0.2-0.1375-0.2125-0.1375-0.425 2.575-0.55 1.6875-0.425 0.6375 1.675zm-4.275-0.35v0.1375l0.075 0.15 0.1375 0.0625 0.1375 0.075 0.1375-0.075 0.1375-0.0625 0.075-0.15v-0.1375-0.1375l-0.075-0.1375-0.1375-0.075h-0.1375-0.1375l-0.1375 0.075-0.075 0.1375v0.1375z" fill="#fff" fill-rule="evenodd"/>
<path d="m354.87 338.39-0.075-0.2125-0.1375-0.2125-0.2125-0.3375-2.525 0.3375-1.525 0.2125-1.6125 0.075h-1.2l-1.675-0.075-0.8375-0.0625-0.8375-0.15-0.85-0.2-0.7625-0.1375-0.35 0.275-0.1375 0.2125v0.1375l1.25 0.5625 1.4125 0.4125 0.6875 0.2125 0.775 0.1375 0.8375 0.075h0.85 0.7625l0.975-0.075 0.9875-0.2125 1.8875-0.35 1.55-0.4125 0.7625-0.2125z" fill="#fff" fill-rule="evenodd"/>
<path d="m354.17 336.64v-0.15l-0.15-0.3375-0.275-0.7h-0.2-0.35l-0.5625 0.1375-3.3625 0.1375-2.7375 0.1375-1.6-0.0625-1.6125-0.075-0.1375 0.2125-0.2125 0.35-0.2125 0.625 0.9125 0.2125 1.05 0.2125 1.1875 0.1375 0.7 0.0625h1.75l1.825-0.1375 1.2625-0.1375 1.675-0.35 1.05-0.275z" fill="#fff" fill-rule="evenodd"/>
<path d="m348.01 335.1h-2.725-0.9125l-0.85-0.0625-0.2-0.15-0.625-1.325-0.7-1.475-0.2125-0.4875-0.2875-0.625-0.0625-0.4875-0.075-0.5625-0.075-0.85-0.0625-0.7625-0.2-2.025-0.2875-2.1 0.425 0.0625 0.4125 0.1375 0.975 0.3625 1.05 0.4875 0.9125 0.4875 0.425 0.275 0.4125 0.35 0.3625 0.35 0.3375 0.4125 0.2875 0.6375 0.275 0.4125 0.2875 0.7125 0.275 0.7625 0.1375 0.6375 0.1375 0.55 0.1375 0.5625-0.975 0.6375-1.125 0.55-1.1875 0.5-0.8375 0.275h0.7125l0.825-0.1375 0.9125-0.3625 0.9875-0.3375 0.7625-0.35 0.2125 0.975 0.075 0.9875 0.0625 0.4875v0.4875zm-6.5125-9.5875v0.15l0.075 0.1375 0.1375 0.1375h0.1375 0.15l0.1375-0.1375 0.0625-0.1375 0.075-0.15-0.075-0.1375-0.0625-0.1375-0.1375-0.075-0.15-0.0625-0.1375 0.0625-0.1375 0.075-0.075 0.1375v0.1375z" fill="#fff" fill-rule="evenodd"/>
<path d="m348.5 335.04 0.075-2.875 1.1875 0.35 0.9125 0.2 0.9125 0.225 0.7625 0.0625h0.4875l-1.9625-0.7-0.475-0.1375-0.5-0.2125-0.625-0.2875-0.5625-0.35v-0.4875l0.15-0.4125 0.275-0.9125 0.35-0.8375 0.8375-1.325 0.4875-0.7125 0.4875-0.625 0.625-0.5625 0.5-0.3375 0.4875-0.425 0.775-0.35 0.7625-0.275 0.35-0.075h0.2125 0.15l0.0625 1.6125-0.0625 1.4625v1.825l-0.15 1.25-0.275 1.1875-0.625 1.6875-0.425 1.125-0.2875 0.625-1.05 0.1375-2.725 0.075-1.125 0.075zm5.1875-9.9375 0.0625 0.1375 0.075 0.1375 0.1375 0.0625 0.15 0.075 0.1375-0.075 0.1375-0.0625 0.0625-0.1375 0.075-0.1375-0.075-0.15-0.0625-0.1375-0.1375-0.0625-0.1375-0.075-0.15 0.075-0.1375 0.0625-0.075 0.1375-0.0625 0.15z" fill="#fff" fill-rule="evenodd"/>
<path d="m332.4 333.91 0.425-0.075 1.675-0.7625 1.3375-0.775 1.1875-0.7625 1.05-0.775 1.2625-0.975 1.1875-1.05-0.0625-1.2-0.15-1.1875-0.35-3.15-0.275 0.075-0.2125 0.1375-0.4125 0.35-0.5625 0.425-0.9125 0.9125-0.8375 0.975-1.625 1.675-2.575 2.6625h-0.15l-1.9625-0.775-2.4375-1.1125-1.5375-0.7-0.2875 0.625-0.425 0.7-0.3375 0.775-0.075 0.35v0.275l2.5875 1.325 2.5875 1.3375 0.9125 0.35 0.975 0.35z" fill="#fff" fill-rule="evenodd"/>
<path d="m363.62 331.95 0.3375-0.075 0.775-0.4125 1.325-0.85 1.4125-0.9 1.1125-0.775 0.5625-0.55v-0.3625l-0.1375-0.4875-0.2875-0.4875-0.275-0.4875-0.35-0.425h-0.1375l-0.4875 0.2875-0.5 0.2-1.6 0.9125-0.6375 0.2875-0.625 0.2-0.425-0.2-3.8375-2.8-2.3875-1.75-0.9875-0.625h-0.3375l0.075 5.5125 1.8125 1.0625 1.8875 0.9 3.7125 1.825z" fill="#fff" fill-rule="evenodd"/>
<path d="m348.15 331.17 0.075-0.2 0.0625-0.2875 0.15-0.8375 0.1375-0.4875 0.1375-0.425 0.4875-0.9125 0.4875-0.8375 0.5625-0.7 0.5625-0.6875 0.6375-0.7 0.625-0.5625 0.7625-0.425 0.7125-0.4125 0.8375-0.2875 0.625-0.2125v-0.7h-0.1375l-1.675 0.8375-0.425 0.225-0.625 0.2-1.05 0.2875-0.9875 0.2-1.8875 0.2125v1.75l-0.075 1.75-0.0625 0.8375-0.275-1.825-0.2875-2.4375-1.1875-0.075-0.85-0.1375-0.7625-0.1375-1.6-0.425-0.575-0.1375-0.625-0.2875-0.4875-0.35-0.7-0.4875 0.0625 0.8375 1.75 0.775 1.2 0.5 0.625 0.3375 0.5625 0.35 0.625 0.6375 0.5625 0.4875 0.4125 0.4875 0.425 0.7 0.35 0.7 0.275 0.8375 0.225 0.775 0.2 0.625 0.1375 0.625z" fill="#fff" fill-rule="evenodd"/>
<path d="m324.63 329.79 0.4125-0.9875 0.3625-0.775-0.5-0.2-0.4875-0.2875-0.275-0.35-0.5-0.625-0.7-1.1875-0.4875-0.2125-0.625-0.0625-0.85 0.0625-1.45 0.1375v0.2125l0.625 0.2125 0.625 0.1375h0.5625 0.35 0.275l-0.075 0.4875 0.7875 0.5 0.2625 1.1125 0.2875 1.1125 0.7 0.225 0.7 0.4875z" fill="#fff" fill-rule="evenodd"/>
<path d="m321.13 328.74 0.275-0.15 0.15-0.0625 0.3375-0.275 0.075-0.5-0.075-0.4125-0.2-0.225-0.4875-0.4125-0.625-0.275-0.3625-0.1375h-0.2125-0.2125-0.125l-0.075 0.3375 0.075 0.5625 0.125 0.975 1.3375 0.575z" fill="#fff" fill-rule="evenodd"/>
<path d="m370.12 327.54 2.1-1.4 0.5-0.0625 0.7625-0.075-0.2125-0.2-0.2-0.2875-0.5625-0.4125-0.2875-0.075h-0.275l0.1375-0.275 0.2125-0.1375 0.1375-0.3625 0.15-0.35 0.0625-0.2v-0.2875l0.2875-0.075 0.1375 0.1375h0.4125 0.2875l0.275-0.0625 0.275-0.1375 0.2875-0.1375v-0.075l-0.9125-0.075-0.9125-0.0625-0.35-0.1375-0.4125 0.2-0.425 0.2875-0.275 0.35-0.425 0.7-0.275 0.35-0.275 0.275-1.2 0.775v0.4125l0.2875 0.425 0.275 0.4125 0.275 0.3625 0.1375 0.2z" fill="#fff" fill-rule="evenodd"/>
<path d="m375.03 325.16 0.275-0.0625 0.2-0.15 0.075-0.2 0.075-0.2125-0.425-0.8375-0.4875 0.1375-0.425 0.2125 0.2875 0.5625 0.425 0.55z" fill="#fff" fill-rule="evenodd"/>
<path d="m354.93 321.39-1.4625-0.275-1.475-0.2875-0.2125 0.075-0.275 0.275-0.4125 0.275-0.5625 0.35-0.6375 0.2125-0.5625 0.2125-0.55 0.0625h-0.5625l-0.5625-0.0625-0.8375-0.1375-0.425-0.075-0.35-0.2125-0.7-0.4125-0.275-0.2125-0.2125-0.275h-0.7625-0.7125l-1.1125 0.275-1.1125 0.425 0.125 0.275 0.3625 0.35 0.4875 0.425 0.4875 0.3375 0.5625 0.2875 0.625 0.2 0.5625 0.15 0.7 0.1375 1.4 0.1375h0.975l1.125-0.0625 0.975-0.075 0.85-0.1375 0.8375-0.2125 0.9125-0.35 0.825-0.35 0.6375-0.425 1.325-0.9z" fill="#fff" fill-rule="evenodd"/>
<path d="m350.6 320.75h-0.0625l-1.2625-0.3375 0.0625-0.425 0.075-0.425v-0.6875l-0.4875-0.3625-0.2125-0.1375-0.275-0.075v2.25l-1.2625 0.2-1.1875 0.15 0.4125 0.275 1.2625 0.35 0.975-0.075 0.9125-0.1375 0.9125-0.4125 0.1375-0.15z" fill="#fff" fill-rule="evenodd"/>
<path d="m320.78 320.34-0.2-0.4875-0.15-0.4875-0.35-0.9875-0.2875-1.05-0.2-0.625v-0.275l0.625-1.05-0.6875-1.4125-0.9125-1.8875-0.9875-2.0875-0.425-0.775 0.075 0.9125 0.1375 2.925 0.075 1.7625 0.075 1.05 1.05 0.7 0.125 0.0625 0.15 0.2125 0.4875 3.775h0.2125l0.4125-0.0625 0.775-0.2125z" fill="#fff" fill-rule="evenodd"/>
<path d="m347.45 319.64v-3.35-3.3l1.125-0.1375 1.05-0.1375 1.4-0.2125 0.7-0.2125 0.7-0.275 0.7-0.4125 0.7-0.425h-1.05-0.5625l-0.4875-0.1375-0.425 0.275-0.425 0.35-0.2 0.1375-0.275 0.1375-0.5 0.1375-0.4875 0.15 1.6875-1.5375v-0.2125l-0.2875-0.2875-0.4875-0.55-0.5625-0.425-0.625-0.2875-0.775-0.275-0.775-0.0625h-0.7625l-0.7 0.1375-0.6375 0.2-0.55 0.2875-0.5 0.425-0.2625 0.275-0.2875 0.4125-0.2125 0.5625-0.075 0.35-0.1375 0.8375-0.075 0.4875 0.075 0.425 0.1375 0.9125 0.2125 0.9125-0.425-0.7125-0.3375-0.7625-0.2125-0.9125v-0.4875l0.0625-0.8375 0.075-0.4125 0.15-0.425 0.3375-0.625 0.425-0.4875 0.4875-0.425 0.625-0.3625 0.425-0.2 0.35-0.1375 0.8375-0.15h0.7 0.425l0.4875 0.15 0.5625 0.2 0.4875 0.2875 0.4125 0.275 0.425 0.425 0.425 0.4875 0.275 0.2125v-0.2125l-0.275-0.7-0.2875-0.7-0.7-0.975-0.55-0.4125-0.6375-0.3625-0.625-0.275-0.6375-0.1375-0.625-0.075-0.7 0.075-0.4875 0.0625-0.425 0.075-0.425 0.2125-0.4125 0.2-0.425 0.2875-0.35 0.275-0.35 0.35-0.275 0.425-0.35 0.4125-0.2 0.4875-0.225 0.4875-0.0625 0.575-0.075 0.5625 0.075 0.55 0.1375 0.9125 0.275 0.775 0.35 0.825 0.35 0.7125 0.425 0.55 0.35 0.5 0.625 0.6875 0.5625 0.6375-0.4875 0.625-0.4875 0.5625-0.5625 0.4125-1.4 0.9125 0.2125 0.15 0.2 0.0625 0.9875 0.2125 0.9125 0.1375h1.1125l1.1875-0.1375h0.9125z" fill="#fff" fill-rule="evenodd"/>
<path d="m350.87 318.24v-0.7l0.15-0.0625v-0.225h-0.7l0.075-0.275 0.1375-0.2125 0.5625-0.0625 0.2-0.1375-0.0625-0.275h-0.2125l-0.15-0.225v-0.275-0.2125l0.075-0.2 0.2875 0.275 0.4875-0.2125 0.0625-0.1375-0.275-0.625-0.0625-0.2875-0.075-0.2v-0.425h-0.35l0.075 0.3375-0.075 0.2875-0.15 0.2125-0.1375 0.15-0.1375 0.0625-0.4125 0.1375-0.35-0.075-0.2125-0.0625-0.1375-0.0625-0.075-0.15v-0.2125-0.2l0.5625-0.2875 0.35-0.1375 0.275-0.075 0.6375-0.075v-0.1375-0.0625h-0.425l-1.1875 0.275-1.2625 0.2125v0.1375 3.6375l0.5 0.2875 0.2 0.0625 0.275 0.1375 0.425 0.1375h0.425 0.35l0.3375-0.0625z" fill="#fff" fill-rule="evenodd"/>
<path d="m332.76 373.22 0.3375-0.1375v0l-6.0875-24.55-4.825-19.462v0l-0.2875 0.075v0l10.862 44.075v0z" fill="#fcdb00" fill-rule="evenodd" stroke="#fcdb00" stroke-linecap="round" stroke-linejoin="round" stroke-miterlimit="10" stroke-width=".15"/>
<path d="m374.4 325.66h0.0625v0l-0.2-0.6375-0.2125-0.5625-0.975-0.2125v0l0.625 0.6375 0.7 0.775v0z" fill="#fcdb00" fill-rule="evenodd" stroke="#fcdb00" stroke-linecap="round" stroke-linejoin="round" stroke-miterlimit="10" stroke-width=".15"/>
<path d="m365.23 325.3v0l0.7625-0.4875 1.2625-0.9125 2.5875-1.8875v0l0.6375 0.7v0l0.2-0.0625 0.35-0.225v0l0.425-0.1375 0.3375-0.125 0.85-0.075v0h0.425 0.3375v0l-0.0625-0.6375-0.2125-0.8375-0.2-0.9125v0l5.1625-4.05h-5.725v0l-0.8375-2.2375-0.7125-1.9625-0.475-1.4625-1.9625 5.7375-5.8875 0.0625v0l2.3125 1.95 2.2375 2.1125v0l-1.8125 5.45v0z" fill="#fcdb00" fill-rule="evenodd" stroke="#fcdb00" stroke-linecap="round" stroke-linejoin="round" stroke-miterlimit="10" stroke-width=".15"/>
<path d="m320.92 324.54v0l0.35-0.075v0l-0.2875-1.1875-0.475-1.8875v0h-0.35v0l0.7625 3.15v0z" fill="#fcdb00" fill-rule="evenodd" stroke="#fcdb00" stroke-linecap="round" stroke-linejoin="round" stroke-miterlimit="10" stroke-width=".15"/>
<path d="m365.66 386.1v0l0.55-1.3375 0.2125-0.6875 0.1375-0.7125 0.075-0.6875 0.0625-0.7625-0.0625-0.7125-0.15-0.7625v0l-0.35-1.125-0.2125-0.4875-0.2625-0.5625v0l-0.65-0.775-0.275-0.3375-0.2-0.15v0-0.0625 0h0.3375l0.3625-0.075v0l0.425-0.35 0.4-0.3375v0-0.15 0l0.15-0.5-0.15-0.4v0l-1.1125-0.425-0.7-0.2875-0.4875-0.2v0l-0.4875-0.425-0.5-0.5625-0.825-1.05v0l-0.3625-0.425v0l-0.35-0.4875-0.275-0.425-0.35-0.7625v0l-0.2125-0.775-0.1375-0.7625v0l-1.125-5.25v0l-0.3375-2.0875v0l-0.225-1.275-0.125-1.25v0-0.4875l0.0625-0.35 0.35-0.7v0l0.1375-0.275v0-0.2875 0-0.4875l-0.1375-0.4875-0.2875-0.9875v0l0.2875-0.0625 0.2125-0.075v0l-1.05-2.2375v0-0.2125 0l0.4875-0.1375 0.35-0.2v0l-0.625-0.9875-0.2875-0.5625-0.2125-0.4125v0-0.15 0l0.2125-0.1375 0.2125-0.2v0-0.1375 0l-0.9-2.325v0l0.3375-0.35v0l-0.9875-2.2375v0l0.575-0.3375v-0.15 0l-0.575-0.975-0.55-1.125v0-0.1375 0l0.2125-0.2125 0.2-0.1375v0-0.1375 0l-0.8375-1.9625v0-0.2 0l0.2875-0.1375h0.1375v0l-0.35-0.6375-0.4125-0.8375v0-0.2125 0l0.2625-0.1375v0l-0.475-1.05-0.425-0.9125v0l0.075-0.4125 0.1375-0.425 0.35-0.9125v0l0.5625-1.5375v0l0.275-1.1125 0.075-0.425 0.1375-0.35v0l7.55 3.5625v0h0.1375v0l2.8125-1.9625v0l1.25-0.9v0l1.2-0.9125v0l1.05-0.7v0l0.075-0.2125 0.0625-0.2v0l1.6125-0.775 1.3875-0.6375v0l0.5-0.2 0.275-0.075h0.275l0.9875 0.7v0l0.2125 0.2125h0.075v0l-0.225-0.8375-0.1375-0.775v0l0.075-0.1375 0.0625-0.0625 0.3625-0.2125 0.1375-0.15 0.1375-0.2 0.075-0.2875 0.0625-0.275v0-0.2875 0l-0.4875-1.1125-0.5625-1.1125v0h-0.2l-0.2125-0.075v0l-0.2125-0.9125-0.15-0.7-0.0625-0.55v0l1.4-1.1375 1.9625-1.7375 1.75-1.475 0.8375-0.625v0h-7.2125v0l-1.3375-3.575-1.3875-3.7v0l-1.4 3.5625-1.4 3.7125v0h-3.575-3.4875v0l5.8 5.25v0l-1.9625 6.425v0l0.775-0.4125 1.75-1.05 2.45-1.4v0h0.275v0l0.4875 0.7v0l-2.725 1.475-3.075 1.4625v0h-0.1375l-0.225-0.1375-0.55-0.35-0.9875-0.775-2.375-1.75v0l-1.1125-0.9125v0l-1.275-0.825-1.25-0.85v0l-0.1375-0.2-0.0625-0.625v0l-2.6-0.5625v0l-3.2875-0.6375v0-0.35l0.075-0.35v0l0.7625-0.0625v0l0.2125-0.075v0l0.075-0.0625v-0.15l0.0625-0.2125v0-0.4125-0.425 0h0.1375l0.1375-0.075 0.075-0.625v0l0.0625-0.35v-0.4875 0l0.5-0.1375 0.2125-0.075 0.1375-0.2v0l-0.2125-0.6375-0.35-0.625v0l-0.1375-0.2125v0l-0.075-1.05v0l0.6375-0.15 0.5625-0.2625v0l0.55-0.2875 0.6375-0.5625 0.55-0.5625 0.3625-0.4875v0l0.2625-0.625v0l-0.825 0.1375-0.85 0.075v0h-1.05l-0.975-0.075v0l-0.075-0.3375-0.2-0.5-0.5625-1.2v0l-0.2125-0.4875-0.2125-0.4125v0l-0.4125-0.625-0.5625-0.5625v0l-0.4875-0.275-0.5-0.2875v0l-0.6875-0.275-0.6375-0.0625v0l-0.7-0.075h-0.5625l-0.5625 0.075v0l-0.8375 0.2-0.625 0.2875-0.6375 0.3375-0.625 0.4875v0l-0.625 0.6375-0.4875 0.7v0l-0.425 0.7625-0.2875 0.85v0l-0.0625 0.55v0.425 0.4875l0.0625 0.5v0l0.0875 0.4125 0.1375 0.4125 0.275 0.7v0l0.275 0.7 0.5625 0.925v0l0.425 0.625 0.4875 0.625v0l0.3375 0.35 0.2875 0.2125v0 0.2 0l-0.2125 0.35v0l-0.35 0.3625-0.4875 0.4125-0.5625 0.4875-0.625 0.4125v0l-0.4125 0.225-0.425 0.2-0.425 0.15-0.35 0.2v0l0.5 0.2875 0.5625 0.2125v0l0.475 0.1375 0.5 0.2125v0.0625 0l-1.0625 0.425v0l-1.1125 0.4875v0l-0.1375 0.35-0.075 0.35v0l-0.275 0.275v0l-0.275 0.2875v0l-0.5 0.4875-0.4875 0.4875v0l-1.475 1.5375-1.475 1.6125v0l-2.1 2.1625v0l-0.475 0.425v0l-0.4875 0.075v0l-0.425-0.075-0.35-0.1375-0.5625-0.2875v0l-2.2375-0.975-2.1625-1.05v0l-0.3625-0.0625v0l-0.1375 0.4875v0l-0.35-0.075v0l-0.275-0.15-0.35-0.2625v0l-0.2125-0.225-0.1375-0.275v0l-0.275-0.35-0.2875-0.4125v0l-0.2875-0.4875-0.2-0.425v0l-0.7-0.2125-0.6375-0.275v0l-0.7625-2.9375v0l0.0625-0.075 0.15-0.1375 0.275-0.1375v0l0.0625-0.15v0l-1.3125-3.7v0-0.2125 0l0.0625-0.2125 0.075-0.2 0.2-0.425 0.1375-0.35 0.075-0.1375v-0.075 0l-0.7-1.675-0.9-1.825v0l-3.0125-5.9375v0h-0.15v0l0.15 6.2875v0l0.0625 2.0375 0.1375 1.9625v0l0.625 0.475 0.775 0.425v0l0.2125 2.1 0.15 1.1875 0.2 0.775v0l0.1375 0.1375 0.1375 0.0625 0.5 0.075v0l0.075 0.7 0.2 0.7v0l0.35 1.6875v0l-0.35 0.0625h-0.35l-0.6375 0.1375v0l0.075 0.9125v0l0.075 0.075v0 0.55 0.5625 0l0.2125 0.9125 0.1375 0.4875 0.1375 0.425v0l0.15 0.0625 0.2 0.1375 0.4875 0.2125 0.9875 0.2125v0l2.1 8.4v0l6.9875 28.538v0l0.85 3.5625 0.8375 3.6375v0l-0.1375 0.075v0l-0.425 0.2125-0.4875 0.1375-0.5625 0.2125-0.35 0.1375v0l-0.2125 0.625-0.0625 0.3625v0.35 0l0.0625 0.0625 0.075 0.2125v0l0.2125 0.2875v0l1.4625 0.0625v0l-0.625 0.8375v0l-0.35 0.5625-0.2875 0.4875-0.275 0.55-0.2125 0.6375v0l-0.2 0.7-0.075 0.7v0l-0.075 0.6375 0.075 0.5625 0.2125 1.175v0l0.2125 0.7 0.1375 0.5625v0l0.275 0.55 0.5625 0.85v0l-1.125-0.5625-1.1125-0.6875-1.05-0.7125-1.05-0.7-1.05-0.7625-0.9875-0.775-0.975-0.8375-0.9-0.8375-0.925-0.9125-0.9125-0.9125-0.8375-0.9-0.7625-0.975-0.85-0.9875-0.7-1.05-0.7625-1.05-0.6375-1.05-0.6875-1.1125-0.6375-1.1375-0.55-1.175-0.5-1.125-0.55-1.1875-0.425-1.2625-0.425-1.1875-0.4125-1.25-0.2875-1.2625-0.35-1.2625-0.2-1.3375-0.2125-1.3125-0.2125-1.3375-0.075-1.3375-0.0625-1.325-0.075-1.4v-47.638h75.862v47.638 0 1.4l-0.0625 1.4-0.1375 1.325-0.1375 1.3375-0.2125 1.4-0.275 1.2625-0.2875 1.3125-0.3375 1.275-0.425 1.25-0.425 1.2625-0.4875 1.2625-0.5 1.1875-0.55 1.1875-0.6375 1.125-0.625 1.1875-0.625 1.1125-0.7125 1.05-0.7625 1.05-0.775 1.05-0.825 0.975-0.85 0.9875-0.8375 0.975-0.9125 0.9125-0.975 0.9-0.9125 0.85-1.05 0.85-0.9875 0.7625-1.05 0.7625-1.05 0.7-1.1125 0.7-1.125 0.6375-1.175 0.625v0z" fill="#f00000" fill-rule="evenodd" stroke="#f00000" stroke-linecap="round" stroke-linejoin="round" stroke-miterlimit="10" stroke-width=".15"/>
<path d="m355.71 375.52v0l1.325-0.625v0l-0.1375-0.2-0.2125-0.425v0l-0.1375-0.4875v-0.4875l0.0625-0.425 0.075-0.4875v0-0.7625-0.7875 0l-0.275-1.25v0l-0.35-0.975-0.35-0.9125v0l-0.275-0.6375-0.35-0.55-0.5625-1.05v0l-0.9125-1.8875v0l-0.5625-1.05-0.2125-0.4875-0.2-0.575v0l-0.1375-0.4875-0.075-0.4875v0l-0.075-1.1125v0l-0.1375-2.725v0-1.125l-0.1375-1.1125v0l-0.075-0.3625v0l-0.2125-0.6875v0l-0.4125-1.1875-0.5625-1.2v0l-1.95-4.825v0h-0.425-0.35v0l-0.7 2.175-0.775 2.375v0l-0.625 1.75-0.5 1.75v0l-0.2 0.9v0l-0.075 0.6375v0.6375 0l-0.1375 3.275v0l-0.075 0.5v0l-0.0625 0.4875v0l-0.1375 0.425v0l-0.225 0.7625v0l-0.4 0.9125-0.5 0.9v0l-0.7 1.2625v0l-1.325 2.1v0l-0.9125 1.5375v0l-0.425 0.9125-0.35 0.9875v0l-0.075 0.3375-0.0625 0.4875v0.85 0 0.9l-0.075 0.9125v0l-0.3375 0.4875v0l1.3875 0.7125v0-1.2 0l0.075-0.8375 0.2125-0.9125v0l0.275-0.8375 0.425-0.9 0.55-0.775 0.6375-0.7v0l0.4125-0.425 0.5-0.35v0l0.625-0.4125 0.7-0.35v0l1.05-0.3625 0.5-0.125 0.55-0.075v0l0.9125-0.0625 0.8375 0.0625v0l0.9875 0.1375v0l0.825 0.2875 0.7125 0.275v0l0.9125 0.4875 0.7625 0.625v0l0.85 0.85 0.275 0.4875 0.35 0.4875v0l0.4875 0.9875 0.3375 0.825v0l0.075 0.4875v0l0.075 0.7v0.7125 1.3125 0z" fill="#f00000" fill-rule="evenodd" stroke="#f00000" stroke-linecap="round" stroke-linejoin="round" stroke-miterlimit="10" stroke-width=".15"/>
<path d="m334.01 372.17v0l0.5625-0.4875 0.55-0.4875v0l0.425-0.7625v0l0.225-0.575v0l0.6875-1.8875v0l0.625-1.825v0l0.7-2.4375v0l0.425-1.4v0l0.4875-1.825 0.2125-0.975 0.275-0.9125v0l-0.125-0.4125-0.225-0.5v0l-0.0625-0.4875v-0.425l0.2875-0.9v0l-0.85-0.075v0l0.075-0.2 0.1375-0.2875 0.275-0.4875v0l0.2125-0.35 0.15-0.425 0.2-0.825v0l-0.5625-0.075v0l-0.0625-0.075v0l0.425-0.625 0.35-0.625v0l0.3375-0.85v0l-0.275-0.0625v0l-0.35-0.2875v0l0.4875-1.05 0.35-0.9v0-0.2875 0l-0.625-0.1375v0l0.55-1.4 0.225-0.7625 0.125-0.5v0h-0.4125l-0.4125-0.0625v0l0.275-0.6375v0l0.4875-1.25 0.425-1.2625v0l-0.425-0.0625v0l-0.4875-0.2875v0l0.4875-0.7 0.35-0.775 0.7-1.5375v0-0.1375l-0.625-0.2v0l-0.075-0.075v0l0.6375-0.8375 0.3375-0.5v0l-0.275-0.1375v0l0.5625-0.8375 0.55-0.8375v0-0.2125 0l-0.3375-0.7-0.35-0.7v0l-0.85-1.8875v0l-0.2-0.7-0.2125-0.7v0l-2.9375 1.8125v0l-1.125 0.7125v0l-1.4 0.7625v0l-1.6125 0.775v0l-0.8375 0.425v0l-1.325-0.5625-1.3375-0.5625v0l-0.975-0.4875v0l-2.2375-1.0625v0l-1.2625-0.7v0l-0.9125-0.4875v0l-0.1375-0.1375v0-0.625 0l-0.2875-0.2125-0.2-0.2125v0h-0.35v0l0.2 0.9875 0.2875 0.975 0.7 3.0125v0l2.5125 10.275v0l2.0375 8.2625 2.1 8.25v0l1.3375 5.25 1.3875 5.175v0z" fill="#f00000" fill-rule="evenodd" stroke="#f00000" stroke-linecap="round" stroke-linejoin="round" stroke-miterlimit="10" stroke-width=".15"/>
<path d="m354.02 378.12v0l0.7125-0.6375v0l0.625-0.4875 0.7-0.3375 0.775-0.35 0.7625-0.2125 0.85-0.15 0.7625-0.0625 0.8375 0.0625 0.775 0.15v0l0.55 0.2125 0.575 0.275 0.475 0.35 0.5 0.35v0l0.4125 0.35 0.425 0.4125 0.35 0.425 0.275 0.425 0.2875 0.4875 0.275 0.4875 0.1375 0.5625 0.15 0.4875v0l0.1375 0.7v0.625 0.625l-0.075 0.7125-0.1375 0.625-0.2125 0.55-0.275 0.6375-0.35 0.5625v0l-0.425 0.975v0l-1.8125 0.7-1.9 0.7-1.875 0.5625-1.9 0.425-1.9625 0.35-1.8875 0.275-1.9625 0.1375-2.025 0.075v0l-1.6125-0.075-1.675-0.075-1.6125-0.2-1.6-0.225-1.6875-0.3375-1.6125-0.35-1.5375-0.4875-1.5375-0.5625v0l-1.2-0.425-0.625-0.2-0.4875-0.2875v0l-0.425-0.4875v0l-0.7-0.8375-0.55-0.9125-0.5-0.975-0.2-0.5-0.2125-0.55v0l-0.075-0.6375v-0.7625l0.075-0.775 0.1375-0.625v0l0.1375-0.5625 0.2125-0.4125 0.5625-0.9125 0.625-0.7625 0.775-0.7125 0.425-0.275 0.475-0.2125 0.425-0.2125 0.4875-0.2 0.4875-0.15 0.5625-0.075 0.4875-0.0625h0.5625v0l0.5625 0.0625 0.5625 0.1375 1.05 0.3625v0l0.775 0.2875 0.35 0.1375 0.3375 0.2v0l0.7 0.4875 0.7 0.5625v0l-0.125-1.3875v-1.55l0.0625-0.775 0.0625-0.6875 0.1375-0.7 0.2875-0.7125v0l0.2125-0.4875 0.2875-0.4875 0.2625-0.425 0.3625-0.3375 0.425-0.425 0.3375-0.2875 0.4875-0.3375 0.425-0.2125 0.975-0.425 0.5-0.1375 0.4875-0.1375h0.5625l0.4875-0.075 0.5625 0.075 0.4875 0.0625v0l0.7 0.15 0.625 0.1375 0.5625 0.275 0.55 0.425v0l0.425 0.275 0.35 0.35 0.35 0.425 0.2875 0.425 0.4875 0.8375 0.425 0.975v0l0.1375 0.5625 0.0625 0.625 0.075 0.5625v0.625l-0.1375 1.2625-0.2125 1.125v0l-0.15 0.4875-0.1375 0.4125 0.1375 0.075z" fill="#094" fill-rule="evenodd" stroke="#094" stroke-linecap="round" stroke-linejoin="round" stroke-miterlimit="10" stroke-width=".15"/>
</g>
</g>
</svg>
