<?xml version="1.0" encoding="UTF-8" standalone="no"?>
<!-- Created with Inkscape (http://www.inkscape.org/) -->
<svg
   xmlns:dc="http://purl.org/dc/elements/1.1/"
   xmlns:cc="http://creativecommons.org/ns#"
   xmlns:rdf="http://www.w3.org/1999/02/22-rdf-syntax-ns#"
   xmlns:svg="http://www.w3.org/2000/svg"
   xmlns="http://www.w3.org/2000/svg"
   xmlns:sodipodi="http://sodipodi.sourceforge.net/DTD/sodipodi-0.dtd"
   xmlns:inkscape="http://www.inkscape.org/namespaces/inkscape"
   width="500"
   height="559.87"
   id="svg2"
   sodipodi:version="0.32"
   inkscape:version="0.46"
   version="1.0"
   sodipodi:docname="Coat of arms of Menziken.svg"
   inkscape:output_extension="org.inkscape.output.svg.inkscape">
  <defs
     id="defs4">
    <inkscape:perspective
       sodipodi:type="inkscape:persp3d"
       inkscape:vp_x="0 : 526.18109 : 1"
       inkscape:vp_y="0 : 1000 : 0"
       inkscape:vp_z="744.09448 : 526.18109 : 1"
       inkscape:persp3d-origin="372.04724 : 350.78739 : 1"
       id="perspective10" />
    <clipPath
       id="clipPath3868"
       clipPathUnits="userSpaceOnUse">
      <path
         id="path3870"
         clip-rule="evenodd"
         d="M 418.2,720.72 L 421.56,720.72 L 421.56,708.36 L 418.2,708.36 L 418.2,720.72 z" />
    </clipPath>
    <clipPath
       id="clipPath3794"
       clipPathUnits="userSpaceOnUse">
      <path
         id="path3796"
         clip-rule="evenodd"
         d="M 354.48,718.32 L 418.19,718.32 L 418.19,646.68 L 354.48,646.68 L 354.48,718.32 z" />
    </clipPath>
    <clipPath
       id="clipPath3782"
       clipPathUnits="userSpaceOnUse">
      <path
         id="path3784"
         clip-rule="evenodd"
         d="M 354.48,718.32 L 418.19,718.32 L 418.19,646.68 L 354.48,646.68 L 354.48,718.32 z" />
    </clipPath>
    <clipPath
       id="clipPath3680"
       clipPathUnits="userSpaceOnUse">
      <path
         id="path3682"
         clip-rule="evenodd"
         d="M 418.2,620.64 L 421.56,620.64 L 421.56,608.28 L 418.2,608.28 L 418.2,620.64 z" />
    </clipPath>
    <clipPath
       id="clipPath3662"
       clipPathUnits="userSpaceOnUse">
      <path
         id="path3664"
         clip-rule="evenodd"
         d="M 354.48,618.24 L 418.19,618.24 L 418.19,546.61 L 354.48,546.61 L 354.48,618.24 z" />
    </clipPath>
    <clipPath
       id="clipPath3650"
       clipPathUnits="userSpaceOnUse">
      <path
         id="path3652"
         clip-rule="evenodd"
         d="M 354.48,618.24 L 418.19,618.24 L 418.19,546.61 L 354.48,546.61 L 354.48,618.24 z" />
    </clipPath>
    <clipPath
       id="clipPath3576"
       clipPathUnits="userSpaceOnUse">
      <path
         id="path3578"
         clip-rule="evenodd"
         d="M 418.2,520.67 L 421.56,520.67 L 421.56,508.32 L 418.2,508.32 L 418.2,520.67 z" />
    </clipPath>
    <clipPath
       id="clipPath3272"
       clipPathUnits="userSpaceOnUse">
      <path
         id="path3274"
         clip-rule="evenodd"
         d="M 354.48,518.28 L 418.19,518.28 L 418.19,446.65 L 354.48,446.65 L 354.48,518.28 z" />
    </clipPath>
    <clipPath
       id="clipPath3260"
       clipPathUnits="userSpaceOnUse">
      <path
         id="path3262"
         clip-rule="evenodd"
         d="M 354.48,518.28 L 418.19,518.28 L 418.19,446.65 L 354.48,446.65 L 354.48,518.28 z" />
    </clipPath>
    <clipPath
       id="clipPath3186"
       clipPathUnits="userSpaceOnUse">
      <path
         id="path3188"
         clip-rule="evenodd"
         d="M 418.2,420.6 L 421.56,420.6 L 421.56,408.24 L 418.2,408.24 L 418.2,420.6 z" />
    </clipPath>
    <clipPath
       id="clipPath3136"
       clipPathUnits="userSpaceOnUse">
      <path
         id="path3138"
         clip-rule="evenodd"
         d="M 354.48,418.2 L 418.19,418.2 L 418.19,346.57 L 354.48,346.57 L 354.48,418.2 z" />
    </clipPath>
    <clipPath
       id="clipPath3124"
       clipPathUnits="userSpaceOnUse">
      <path
         id="path3126"
         clip-rule="evenodd"
         d="M 354.48,418.2 L 418.19,418.2 L 418.19,346.57 L 354.48,346.57 L 354.48,418.2 z" />
    </clipPath>
    <clipPath
       id="clipPath3048"
       clipPathUnits="userSpaceOnUse">
      <path
         id="path3050"
         clip-rule="evenodd"
         d="M 418.2,320.64 L 421.56,320.64 L 421.56,308.28 L 418.2,308.28 L 418.2,320.64 z" />
    </clipPath>
    <clipPath
       id="clipPath3002"
       clipPathUnits="userSpaceOnUse">
      <path
         id="path3004"
         clip-rule="evenodd"
         d="M 354.48,318.24 L 418.19,318.24 L 418.19,246.6 L 354.48,246.6 L 354.48,318.24 z" />
    </clipPath>
    <clipPath
       id="clipPath2990"
       clipPathUnits="userSpaceOnUse">
      <path
         id="path2992"
         clip-rule="evenodd"
         d="M 354.48,318.24 L 418.19,318.24 L 418.19,246.6 L 354.48,246.6 L 354.48,318.24 z" />
    </clipPath>
    <clipPath
       id="clipPath2900"
       clipPathUnits="userSpaceOnUse">
      <path
         id="path2902"
         clip-rule="evenodd"
         d="M 418.2,212.64 L 421.56,212.64 L 421.56,200.29 L 418.2,200.29 L 418.2,212.64 z" />
    </clipPath>
    <clipPath
       id="clipPath2804"
       clipPathUnits="userSpaceOnUse">
      <path
         id="path2806"
         clip-rule="evenodd"
         d="M 354.48,210.24 L 418.19,210.24 L 418.19,138.6 L 354.48,138.6 L 354.48,210.24 z" />
    </clipPath>
    <clipPath
       id="clipPath2792"
       clipPathUnits="userSpaceOnUse">
      <path
         id="path2794"
         clip-rule="evenodd"
         d="M 354.48,210.24 L 418.19,210.24 L 418.19,138.6 L 354.48,138.6 L 354.48,210.24 z" />
    </clipPath>
    <clipPath
       id="clipPath2710"
       clipPathUnits="userSpaceOnUse">
      <path
         id="path2712"
         clip-rule="evenodd"
         d="M 422.04,110.76 L 422.04,135.12 L 549.12,135.12 L 549.12,110.76 L 545.88,110.76 L 545.88,125.88 L 425.28,125.88 L 425.28,110.76 L 422.04,110.76 z" />
    </clipPath>
    <clipPath
       id="clipPath2688"
       clipPathUnits="userSpaceOnUse">
      <path
         id="path2690"
         clip-rule="evenodd"
         d="M 351.12,110.76 L 351.12,135.12 L 354.48,135.12 L 354.48,110.76 L 351.12,110.76 z M 418.32,110.76 L 418.32,135.12 L 421.56,135.12 L 421.56,110.76 L 418.32,110.76 z" />
    </clipPath>
    <clipPath
       id="clipPath2666"
       clipPathUnits="userSpaceOnUse">
      <path
         id="path2668"
         clip-rule="evenodd"
         d="M 288.84,110.76 L 288.84,135.12 L 350.64,135.12 L 350.64,110.76 L 347.4,110.76 L 347.4,132.84 L 292.08,132.84 L 292.08,110.76 L 288.84,110.76 z" />
    </clipPath>
    <clipPath
       id="clipPath2650"
       clipPathUnits="userSpaceOnUse">
      <path
         id="path2652"
         clip-rule="evenodd"
         d="M 147.12,110.76 L 147.12,135.12 L 288.36,135.12 L 288.36,110.76 L 285.12,110.76 L 285.12,125.88 L 150.36,125.88 L 150.36,110.76 L 147.12,110.76 z" />
    </clipPath>
    <clipPath
       id="clipPath2634"
       clipPathUnits="userSpaceOnUse">
      <path
         id="path2636"
         clip-rule="evenodd"
         d="M 67.68,110.76 L 67.68,135.12 L 146.64,135.12 L 146.64,110.76 L 143.28,110.76 L 143.28,125.88 L 70.92,125.88 L 70.92,110.76 L 67.68,110.76 z" />
    </clipPath>
    <clipPath
       id="clipPath2502"
       clipPathUnits="userSpaceOnUse">
      <path
         id="path2504"
         clip-rule="evenodd"
         d="M 70.92,803.76 L 574.44,803.76 L 574.44,774.97 L 70.92,774.97 L 70.92,803.76 z" />
    </clipPath>
    <clipPath
       id="clipPath2480"
       clipPathUnits="userSpaceOnUse">
      <path
         id="path2482"
         clip-rule="evenodd"
         d="M 70.92,803.76 L 574.44,803.76 L 574.44,801.97 L 70.92,801.97 L 70.92,803.76 z" />
    </clipPath>
    <clipPath
       id="clipPath2470"
       clipPathUnits="userSpaceOnUse">
      <path
         id="path2472"
         clip-rule="evenodd"
         d="M 70.92,776.76 L 574.44,776.76 L 574.44,774.97 L 70.92,774.97 L 70.92,776.76 z" />
    </clipPath>
    <inkscape:perspective
       id="perspective2450"
       inkscape:persp3d-origin="372.04724 : 350.78739 : 1"
       inkscape:vp_z="744.09448 : 526.18109 : 1"
       inkscape:vp_y="0 : 1000 : 0"
       inkscape:vp_x="0 : 526.18109 : 1"
       sodipodi:type="inkscape:persp3d" />
  </defs>
  <sodipodi:namedview
     id="base"
     pagecolor="#ffffff"
     bordercolor="#666666"
     borderopacity="1.0"
     inkscape:pageopacity="0.0"
     inkscape:pageshadow="2"
     inkscape:zoom="1.4"
     inkscape:cx="395.05401"
     inkscape:cy="688.59658"
     inkscape:document-units="px"
     inkscape:current-layer="layer1"
     showgrid="false"
     inkscape:window-width="1280"
     inkscape:window-height="750"
     inkscape:window-x="-8"
     inkscape:window-y="-8" />
  <metadata
     id="metadata7">
    <rdf:RDF>
      <cc:Work
         rdf:about="">
        <dc:format>image/svg+xml</dc:format>
        <dc:type
           rdf:resource="http://purl.org/dc/dcmitype/StillImage" />
      </cc:Work>
    </rdf:RDF>
  </metadata>
  <g
     inkscape:label="Ebene 1"
     inkscape:groupmode="layer"
     id="layer1"
     transform="translate(-308.88392,147.95638)">
    <g
       id="g7552"
       transform="matrix(6.0472441,0,0,6.0472441,-1549.0126,-1968.0708)">
      <g
         transform="matrix(1.25,0,0,1.25,-134.35357,129.24879)"
         id="g2796">
        <path
           id="path2798"
           style="fill:#000000;fill-opacity:1;fill-rule:evenodd;stroke:none"
           d="M 354.59,138.71 L 418.09,138.71 L 418.09,178.39 L 418.09,178.39 L 418.09,180.01 L 417.92,181.63 L 417.75,183.2 L 417.47,184.77 L 417.08,186.34 L 416.68,187.85 L 416.18,189.31 L 415.62,190.76 L 414.95,192.16 L 414.28,193.5 L 413.5,194.84 L 412.71,196.13 L 411.82,197.36 L 410.86,198.59 L 409.85,199.72 L 408.8,200.84 L 407.73,201.9 L 406.55,202.85 L 405.38,203.8 L 404.09,204.7 L 402.8,205.54 L 401.51,206.26 L 400.11,206.99 L 398.71,207.61 L 397.26,208.16 L 395.8,208.67 L 394.29,209.12 L 392.77,209.45 L 391.21,209.73 L 389.59,209.96 L 388.02,210.07 L 386.34,210.13 L 386.34,210.13 L 384.71,210.07 L 383.09,209.96 L 381.52,209.73 L 379.96,209.45 L 378.44,209.12 L 376.93,208.67 L 375.42,208.16 L 374.02,207.61 L 372.62,206.99 L 371.22,206.26 L 369.88,205.54 L 368.59,204.7 L 367.36,203.8 L 366.18,202.85 L 365,201.9 L 363.95,200.84 L 362.88,199.72 L 361.87,198.59 L 360.92,197.36 L 360.02,196.13 L 359.23,194.84 L 358.45,193.5 L 357.73,192.16 L 357.11,190.76 L 356.55,189.31 L 356.05,187.85 L 355.6,186.34 L 355.26,184.77 L 354.98,183.2 L 354.76,181.63 L 354.64,180.01 L 354.59,178.39 L 354.59,138.71 z" />
      </g>
      <path
         id="path2808"
         style="fill:#ffffff;fill-opacity:1;fill-rule:evenodd;stroke:none"
         d="M 364.80893,376.02379 L 364.80893,376.02379 L 365.00893,375.81129 L 365.23393,375.52379 L 365.23393,375.52379 L 363.33393,374.76129 L 363.33393,374.76129 L 362.70893,374.47379 L 362.70893,374.47379 L 362.35893,374.13629 L 361.94643,373.64879 L 361.23393,372.73629 L 361.23393,372.73629 L 360.95893,372.31129 L 360.39643,371.68629 L 360.39643,371.68629 L 359.90893,370.83629 L 359.90893,370.83629 L 359.69643,370.28629 L 359.49643,369.44879 L 359.20893,367.91129 L 359.20893,367.91129 L 358.37143,364.27379 L 358.37143,364.27379 L 357.88393,362.11129 L 357.88393,362.11129 L 357.10893,358.53629 L 357.10893,358.53629 L 356.34643,358.18629 L 356.34643,358.18629 L 355.70893,357.83629 L 355.15893,357.42379 L 355.15893,357.42379 L 354.38393,356.77379 L 353.74643,356.08629 L 353.74643,356.08629 L 353.33393,355.38629 L 353.04643,354.74879 L 353.04643,354.74879 L 353.04643,357.83629 L 353.04643,357.83629 L 353.04643,358.88629 L 353.12143,359.86129 L 353.12143,359.86129 L 353.12143,360.34879 L 353.25893,360.83629 L 353.25893,360.83629 L 353.47143,361.46129 L 353.47143,361.46129 L 353.68393,361.96129 L 353.95893,362.44879 L 353.95893,362.44879 L 354.79643,364.19879 L 354.79643,364.19879 L 355.84643,366.29879 L 355.84643,366.29879 L 356.54643,367.69879 L 356.54643,367.69879 L 356.83393,368.53629 L 357.10893,369.37379 L 357.10893,369.37379 L 357.39643,370.57379 L 357.39643,370.57379 L 357.45893,371.41129 L 357.52143,372.31129 L 357.52143,372.31129 L 357.45893,373.01129 L 357.45893,373.71129 L 357.45893,373.71129 L 357.65893,374.13629 L 357.80893,374.34879 L 358.02143,374.47379 L 358.02143,374.47379 L 358.23393,374.54879 L 358.50893,374.62379 L 358.50893,374.62379 L 358.79643,374.69879 L 359.07143,374.69879 L 359.62143,374.69879 L 359.62143,374.69879 L 360.18393,374.76129 L 360.67143,374.89879 L 361.65893,375.18629 L 361.65893,375.18629 L 362.84643,375.52379 L 362.84643,375.52379 L 363.55893,375.81129 L 364.24643,376.09879 L 364.24643,376.09879 L 364.45893,376.09879 L 364.80893,376.02379 L 364.80893,376.02379 z" />
      <path
         id="path2810"
         style="fill:#ffffff;fill-opacity:1;fill-rule:evenodd;stroke:none"
         d="M 330.93393,375.46129 L 330.93393,375.46129 L 331.63393,375.46129 L 331.63393,375.46129 L 332.12143,375.32379 L 332.95893,375.12379 L 332.95893,375.12379 L 333.30893,374.97379 L 333.59643,374.83629 L 333.94643,374.62379 L 334.29643,374.47379 L 334.29643,374.47379 L 335.12143,374.21129 L 335.69643,374.06129 L 335.69643,374.06129 L 336.45893,374.06129 L 337.23393,373.98629 L 337.23393,373.98629 L 338.35893,373.78629 L 338.35893,373.78629 L 338.55893,373.36129 L 338.77143,372.94879 L 338.77143,372.94879 L 338.83393,372.66129 L 338.83393,372.38629 L 338.77143,371.74879 L 338.77143,371.74879 L 338.77143,371.26129 L 338.77143,371.26129 L 338.83393,370.57379 L 338.90893,370.07379 L 339.12143,369.52379 L 339.40893,368.88629 L 339.40893,368.88629 L 339.60893,368.47379 L 339.60893,368.47379 L 342.19643,363.84879 L 342.19643,363.84879 L 343.04643,362.37379 L 343.04643,362.37379 L 343.38393,361.82379 L 343.38393,361.82379 L 343.52143,361.33629 L 343.52143,361.33629 L 343.94643,359.72379 L 343.94643,359.72379 L 344.17143,357.56129 L 344.17143,357.56129 L 344.17143,356.92379 L 344.29643,356.28629 L 344.29643,356.28629 L 344.43393,356.01129 L 344.43393,356.01129 L 344.29643,356.01129 L 344.29643,356.01129 L 344.02143,356.28629 L 343.80893,356.57379 L 343.38393,357.13629 L 343.38393,357.13629 L 343.12143,357.48629 L 342.62143,357.83629 L 342.62143,357.83629 L 342.07143,358.18629 L 341.49643,358.39879 L 341.49643,358.39879 L 340.79643,358.59879 L 340.79643,358.59879 L 340.30893,358.67379 L 339.82143,358.73629 L 339.82143,358.73629 L 339.12143,361.74879 L 339.12143,361.74879 L 338.77143,363.16129 L 338.77143,363.16129 L 338.20893,364.97379 L 338.20893,364.97379 L 337.72143,366.57379 L 337.15893,368.11129 L 337.15893,368.11129 L 336.59643,369.93629 L 336.17143,370.92379 L 335.97143,371.33629 L 335.77143,371.68629 L 335.77143,371.68629 L 335.54643,371.89879 L 335.34643,372.03629 L 334.92143,372.46129 L 334.92143,372.46129 L 332.95893,374.13629 L 332.95893,374.13629 L 332.54643,374.41129 L 331.90893,374.62379 L 330.72143,375.03629 L 330.72143,375.32379 L 330.72143,375.32379 L 330.93393,375.46129 L 330.93393,375.46129 z" />
      <path
         id="path2812"
         style="fill:#ffffff;fill-opacity:1;fill-rule:evenodd;stroke:none"
         d="M 339.88393,357.68629 L 339.88393,357.68629 L 339.74643,357.06129 L 339.74643,356.57379 L 339.82143,356.08629 L 339.82143,356.08629 L 339.88393,355.87379 L 339.95893,355.73629 L 339.95893,355.73629 L 341.15893,355.38629 L 341.15893,355.38629 L 342.27143,355.03629 L 342.75893,354.82379 L 343.24643,354.47379 L 343.24643,354.47379 L 343.94643,353.92379 L 343.94643,353.92379 L 343.94643,354.12379 L 344.02143,354.26129 L 344.02143,354.26129 L 343.94643,354.74879 L 343.94643,354.74879 L 343.80893,355.17379 L 343.52143,355.66129 L 343.52143,355.66129 L 343.32143,355.94879 L 343.04643,356.14879 L 343.04643,356.14879 L 342.54643,356.64879 L 342.07143,357.06129 L 341.49643,357.42379 L 340.87143,357.62379 L 340.87143,357.62379 L 339.88393,357.68629 L 339.88393,357.68629 z M 342.75893,355.09879 L 342.75893,355.09879 L 342.75893,355.23629 L 342.89643,355.38629 L 342.97143,355.46129 L 343.12143,355.52379 L 343.12143,355.52379 L 343.24643,355.46129 L 343.38393,355.38629 L 343.45893,355.23629 L 343.52143,355.09879 L 343.52143,355.09879 L 343.45893,354.96129 L 343.38393,354.82379 L 343.24643,354.74879 L 343.12143,354.74879 L 343.12143,354.74879 L 342.97143,354.74879 L 342.89643,354.82379 L 342.75893,354.96129 L 342.75893,355.09879 L 342.75893,355.09879 z" />
      <path
         id="path2814"
         style="fill:#ffffff;fill-opacity:1;fill-rule:evenodd;stroke:none"
         d="M 357.52143,357.42379 L 357.52143,357.42379 L 356.89643,357.13629 L 356.34643,356.86129 L 355.78393,356.51129 L 355.22143,356.01129 L 355.22143,356.01129 L 354.79643,355.66129 L 354.44643,355.17379 L 354.44643,355.17379 L 354.17143,354.47379 L 354.10893,354.19879 L 354.10893,353.92379 L 354.10893,353.92379 L 355.70893,354.26129 L 357.32143,354.47379 L 357.32143,354.47379 L 357.65893,355.17379 L 357.65893,355.17379 L 357.88393,355.59879 L 358.02143,355.87379 L 358.02143,356.14879 L 358.02143,356.14879 L 358.02143,356.37379 L 358.02143,356.64879 L 358.02143,356.64879 L 357.88393,356.86129 L 357.73393,357.13629 L 357.52143,357.42379 L 357.52143,357.42379 z M 354.44643,354.74879 L 354.44643,354.74879 L 354.44643,354.89879 L 354.52143,355.03629 L 354.65893,355.09879 L 354.79643,355.09879 L 354.79643,355.09879 L 354.93393,355.09879 L 355.08393,355.03629 L 355.15893,354.89879 L 355.15893,354.74879 L 355.15893,354.74879 L 355.15893,354.61129 L 355.08393,354.47379 L 354.93393,354.41129 L 354.79643,354.33629 L 354.79643,354.33629 L 354.65893,354.41129 L 354.52143,354.47379 L 354.44643,354.61129 L 354.44643,354.74879 L 354.44643,354.74879 z" />
      <path
         id="path2816"
         style="fill:#ffffff;fill-opacity:1;fill-rule:evenodd;stroke:none"
         d="M 339.54643,354.89879 L 339.54643,354.89879 L 339.60893,354.54879 L 339.74643,354.19879 L 339.74643,354.19879 L 340.03393,353.07379 L 340.03393,353.07379 L 340.79643,352.93629 L 341.64643,352.73629 L 341.64643,352.73629 L 342.54643,352.31129 L 343.38393,351.82379 L 343.38393,351.82379 L 344.09643,351.32379 L 344.50893,350.91129 L 344.50893,350.91129 L 344.50893,351.39879 L 344.50893,351.39879 L 344.17143,352.37379 L 344.17143,352.37379 L 343.88393,352.87379 L 343.88393,352.87379 L 343.59643,353.14879 L 343.38393,353.36129 L 343.38393,353.36129 L 342.83393,353.78629 L 342.27143,354.12379 L 341.78393,354.33629 L 341.22143,354.54879 L 341.22143,354.54879 L 340.38393,354.74879 L 339.54643,354.89879 L 339.54643,354.89879 z M 343.12143,352.44879 L 343.12143,352.44879 L 343.12143,352.58629 L 343.18393,352.73629 L 343.32143,352.79879 L 343.45893,352.79879 L 343.45893,352.79879 L 343.59643,352.79879 L 343.74643,352.73629 L 343.80893,352.58629 L 343.80893,352.44879 L 343.80893,352.44879 L 343.80893,352.31129 L 343.74643,352.17379 L 343.59643,352.08629 L 343.45893,352.02379 L 343.45893,352.02379 L 343.32143,352.08629 L 343.18393,352.17379 L 343.12143,352.31129 L 343.12143,352.44879 L 343.12143,352.44879 z" />
      <path
         id="path2818"
         style="fill:#ffffff;fill-opacity:1;fill-rule:evenodd;stroke:none"
         d="M 357.65893,353.71129 L 357.65893,353.71129 L 355.98393,353.49879 L 354.79643,353.28629 L 354.38393,353.14879 L 354.10893,353.07379 L 354.10893,353.07379 L 353.88393,352.93629 L 353.74643,352.79879 L 353.74643,352.79879 L 353.54643,352.51129 L 353.47143,352.23629 L 353.33393,351.68629 L 353.33393,351.68629 L 353.33393,351.39879 L 353.33393,351.39879 L 353.74643,351.59879 L 353.74643,351.59879 L 354.38393,351.88629 L 355.08393,352.02379 L 355.08393,352.02379 L 355.55893,352.08629 L 355.98393,352.08629 L 356.89643,352.08629 L 356.89643,352.08629 L 357.65893,353.71129 L 357.65893,353.71129 z M 353.82143,352.37379 L 353.82143,352.37379 L 353.88393,352.51129 L 353.95893,352.66129 L 354.02143,352.73629 L 354.17143,352.73629 L 354.17143,352.73629 L 354.38393,352.73629 L 354.44643,352.66129 L 354.52143,352.51129 L 354.58393,352.37379 L 354.58393,352.37379 L 354.52143,352.23629 L 354.44643,352.08629 L 354.38393,352.02379 L 354.17143,351.96129 L 354.17143,351.96129 L 354.02143,352.02379 L 353.95893,352.08629 L 353.88393,352.23629 L 353.82143,352.37379 L 353.82143,352.37379 z" />
      <path
         id="path2820"
         style="fill:#ffffff;fill-opacity:1;fill-rule:evenodd;stroke:none"
         d="M 352.55893,352.73629 L 352.55893,352.73629 L 352.20893,351.11129 L 351.58393,348.53629 L 350.53393,344.67379 L 350.53393,344.67379 L 349.54643,345.52379 L 349.54643,345.52379 L 350.04643,346.71129 L 350.04643,346.71129 L 350.80893,348.67379 L 350.80893,348.67379 L 351.64643,350.48629 L 352.55893,352.73629 L 352.55893,352.73629 z" />
      <path
         id="path2822"
         style="fill:#ffffff;fill-opacity:1;fill-rule:evenodd;stroke:none"
         d="M 344.23393,349.36129 L 344.23393,349.36129 L 344.09643,349.99879 L 344.02143,350.34879 L 344.02143,350.48629 L 344.02143,350.48629 L 343.32143,350.97379 L 342.47143,351.53629 L 342.47143,351.53629 L 341.78393,351.82379 L 341.08393,352.08629 L 341.08393,352.08629 L 340.52143,352.17379 L 340.10893,352.31129 L 340.10893,352.31129 L 340.38393,351.53629 L 340.65893,350.83629 L 340.65893,350.83629 L 341.70893,350.62379 L 341.70893,350.62379 L 342.19643,350.48629 L 342.62143,350.34879 L 342.62143,350.34879 L 343.18393,350.06129 L 343.67143,349.72379 L 344.23393,349.36129 L 344.23393,349.36129 z M 343.24643,350.27379 L 343.24643,350.27379 L 343.24643,350.41129 L 343.32143,350.54879 L 343.45893,350.62379 L 343.52143,350.62379 L 343.52143,350.62379 L 343.67143,350.62379 L 343.80893,350.54879 L 343.88393,350.41129 L 343.88393,350.27379 L 343.88393,350.27379 L 343.88393,350.13629 L 343.80893,350.06129 L 343.67143,349.99879 L 343.52143,349.92379 L 343.52143,349.92379 L 343.45893,349.99879 L 343.32143,350.06129 L 343.24643,350.13629 L 343.24643,350.27379 L 343.24643,350.27379 z" />
      <path
         id="path2824"
         style="fill:#ffffff;fill-opacity:1;fill-rule:evenodd;stroke:none"
         d="M 345.07143,352.17379 L 345.07143,352.17379 L 345.98393,349.86129 L 346.95893,346.77379 L 346.95893,346.77379 L 347.17143,346.22379 L 347.30893,345.72379 L 347.30893,345.72379 L 346.25893,344.96129 L 346.25893,344.96129 L 345.70893,348.11129 L 345.28393,350.48629 L 345.07143,352.17379 L 345.07143,352.17379 z" />
      <path
         id="path2826"
         style="fill:#ffffff;fill-opacity:1;fill-rule:evenodd;stroke:none"
         d="M 357.39643,351.32379 L 357.39643,351.32379 L 356.68393,351.39879 L 355.98393,351.39879 L 355.98393,351.39879 L 355.43393,351.32379 L 354.93393,351.26129 L 354.44643,351.11129 L 353.95893,350.83629 L 353.95893,350.83629 L 353.68393,350.69879 L 353.47143,350.54879 L 353.47143,350.54879 L 353.25893,350.34879 L 353.04643,350.06129 L 353.04643,350.06129 L 352.90893,349.78629 L 352.83393,349.51129 L 352.77143,349.23629 L 352.77143,348.94879 L 352.77143,348.94879 L 353.68393,349.29879 L 354.79643,349.51129 L 354.79643,349.51129 L 355.55893,349.57379 L 356.34643,349.57379 L 356.34643,349.57379 L 356.60893,349.92379 L 356.97143,350.54879 L 357.39643,351.32379 L 357.39643,351.32379 z M 353.33393,349.86129 L 353.33393,349.86129 L 353.33393,349.99879 L 353.39643,350.13629 L 353.54643,350.21129 L 353.68393,350.27379 L 353.68393,350.27379 L 353.82143,350.21129 L 353.95893,350.13629 L 354.02143,349.99879 L 354.02143,349.86129 L 354.02143,349.86129 L 354.02143,349.72379 L 353.95893,349.57379 L 353.82143,349.51129 L 353.68393,349.51129 L 353.68393,349.51129 L 353.54643,349.51129 L 353.39643,349.57379 L 353.33393,349.72379 L 353.33393,349.86129 L 353.33393,349.86129 z" />
      <path
         id="path2828"
         style="fill:#ffffff;fill-opacity:1;fill-rule:evenodd;stroke:none"
         d="M 340.45893,349.99879 L 340.45893,349.99879 L 340.93393,348.11129 L 340.93393,348.11129 L 341.84643,347.89879 L 342.75893,347.76129 L 342.75893,347.76129 L 343.52143,347.39879 L 344.29643,346.99879 L 344.29643,346.99879 L 344.64643,346.77379 L 344.85893,346.63629 L 344.99643,346.57379 L 344.99643,346.57379 L 344.85893,347.19879 L 344.64643,347.76129 L 344.64643,347.76129 L 344.29643,348.53629 L 344.29643,348.53629 L 344.09643,348.59879 L 343.88393,348.73629 L 343.32143,349.16129 L 343.32143,349.16129 L 342.69643,349.43629 L 342.13393,349.64879 L 341.22143,349.92379 L 341.22143,349.92379 L 340.45893,349.99879 L 340.45893,349.99879 z M 343.52143,347.82379 L 343.52143,347.82379 L 343.59643,347.97379 L 343.67143,348.11129 L 343.80893,348.18629 L 343.94643,348.24879 L 343.94643,348.24879 L 344.09643,348.18629 L 344.17143,348.11129 L 344.23393,347.97379 L 344.29643,347.82379 L 344.29643,347.82379 L 344.23393,347.68629 L 344.17143,347.54879 L 344.09643,347.48629 L 343.94643,347.48629 L 343.94643,347.48629 L 343.80893,347.48629 L 343.67143,347.54879 L 343.59643,347.68629 L 343.52143,347.82379 L 343.52143,347.82379 z" />
      <path
         id="path2830"
         style="fill:#ffffff;fill-opacity:1;fill-rule:evenodd;stroke:none"
         d="M 356.68393,348.73629 L 356.68393,348.73629 L 355.84643,348.81129 L 355.08393,348.81129 L 354.30893,348.67379 L 354.30893,348.67379 L 353.74643,348.53629 L 353.25893,348.32379 L 353.25893,348.32379 L 352.90893,348.04879 L 352.63393,347.76129 L 352.42143,347.48629 L 352.28393,347.19879 L 352.28393,347.19879 L 352.14643,346.77379 L 352.07143,346.28629 L 352.07143,346.28629 L 352.69643,346.57379 L 353.39643,346.77379 L 353.39643,346.77379 L 354.02143,346.99879 L 354.65893,347.06129 L 354.65893,347.06129 L 355.35893,347.06129 L 355.92143,347.06129 L 355.92143,347.06129 L 356.27143,347.89879 L 356.68393,348.73629 L 356.68393,348.73629 z M 352.63393,347.27379 L 352.63393,347.27379 L 352.63393,347.48629 L 352.69643,347.54879 L 352.83393,347.68629 L 352.97143,347.68629 L 352.97143,347.68629 L 353.12143,347.68629 L 353.25893,347.54879 L 353.33393,347.48629 L 353.39643,347.27379 L 353.39643,347.27379 L 353.33393,347.13629 L 353.25893,347.06129 L 353.12143,346.91129 L 352.97143,346.91129 L 352.97143,346.91129 L 352.83393,346.91129 L 352.69643,347.06129 L 352.63393,347.13629 L 352.63393,347.27379 L 352.63393,347.27379 z" />
      <path
         id="path2832"
         style="fill:#ffffff;fill-opacity:1;fill-rule:evenodd;stroke:none"
         d="M 340.87143,347.27379 L 340.87143,347.27379 L 341.08393,346.36129 L 341.22143,345.58629 L 341.22143,345.58629 L 341.84643,345.44879 L 342.54643,345.31129 L 342.54643,345.31129 L 343.59643,345.03629 L 344.09643,344.82379 L 344.64643,344.54879 L 344.64643,344.54879 L 345.28393,344.12379 L 345.34643,344.12379 L 345.34643,344.12379 L 345.28393,344.47379 L 345.14643,344.82379 L 345.14643,344.82379 L 344.93393,345.31129 L 344.93393,345.31129 L 344.79643,345.58629 L 344.79643,345.58629 L 344.57143,345.86129 L 344.29643,346.14879 L 344.29643,346.14879 L 343.80893,346.42379 L 343.04643,346.77379 L 343.04643,346.77379 L 342.40893,347.06129 L 341.78393,347.19879 L 341.78393,347.19879 L 340.87143,347.27379 L 340.87143,347.27379 z M 343.67143,345.52379 L 343.67143,345.52379 L 343.67143,345.66129 L 343.74643,345.79879 L 343.88393,345.86129 L 344.02143,345.93629 L 344.02143,345.93629 L 344.17143,345.86129 L 344.29643,345.79879 L 344.37143,345.66129 L 344.43393,345.52379 L 344.43393,345.52379 L 344.37143,345.37379 L 344.29643,345.23629 L 344.17143,345.17379 L 344.02143,345.09879 L 344.02143,345.09879 L 343.88393,345.17379 L 343.74643,345.23629 L 343.67143,345.37379 L 343.67143,345.52379 L 343.67143,345.52379 z" />
      <path
         id="path2834"
         style="fill:#ffffff;fill-opacity:1;fill-rule:evenodd;stroke:none"
         d="M 356.27143,346.22379 L 356.27143,346.22379 L 355.55893,346.28629 L 354.87143,346.28629 L 354.87143,346.28629 L 354.10893,346.14879 L 353.33393,345.93629 L 353.33393,345.93629 L 352.83393,345.72379 L 352.49643,345.52379 L 352.07143,345.23629 L 351.78393,344.82379 L 351.78393,344.82379 L 351.58393,344.47379 L 351.44643,344.04879 L 351.44643,344.04879 L 351.85893,344.26129 L 352.34643,344.41129 L 352.34643,344.41129 L 353.04643,344.47379 L 353.04643,344.47379 L 353.74643,344.54879 L 354.38393,344.54879 L 355.55893,344.47379 L 355.55893,344.47379 L 355.92143,345.31129 L 356.13393,345.79879 L 356.27143,346.22379 L 356.27143,346.22379 z M 352.14643,344.96129 L 352.14643,344.96129 L 352.20893,345.09879 L 352.28393,345.23629 L 352.42143,345.31129 L 352.55893,345.37379 L 352.55893,345.37379 L 352.69643,345.31129 L 352.77143,345.23629 L 352.90893,345.09879 L 352.90893,344.96129 L 352.90893,344.96129 L 352.90893,344.82379 L 352.77143,344.67379 L 352.69643,344.61129 L 352.55893,344.61129 L 352.55893,344.61129 L 352.42143,344.61129 L 352.28393,344.67379 L 352.20893,344.82379 L 352.14643,344.96129 L 352.14643,344.96129 z" />
      <path
         id="path2836"
         style="fill:#ffffff;fill-opacity:1;fill-rule:evenodd;stroke:none"
         d="M 340.52143,344.82379 L 340.52143,344.82379 L 341.22143,342.64879 L 341.22143,342.64879 L 342.40893,342.58629 L 343.59643,342.44879 L 343.59643,342.44879 L 344.57143,342.22379 L 345.48393,342.02379 L 345.48393,342.02379 L 345.42143,342.51129 L 345.34643,342.72379 L 345.28393,342.99879 L 345.28393,342.99879 L 344.99643,343.28629 L 344.57143,343.69879 L 344.57143,343.69879 L 344.17143,344.04879 L 343.74643,344.18629 L 343.32143,344.33629 L 342.83393,344.47379 L 342.83393,344.47379 L 342.27143,344.61129 L 342.27143,344.61129 L 341.35893,344.74879 L 340.52143,344.82379 L 340.52143,344.82379 z M 344.02143,342.79879 L 344.02143,342.79879 L 344.02143,342.99879 L 344.17143,343.07379 L 344.23393,343.21129 L 344.37143,343.21129 L 344.37143,343.21129 L 344.50893,343.21129 L 344.64643,343.07379 L 344.72143,342.99879 L 344.79643,342.79879 L 344.79643,342.79879 L 344.72143,342.64879 L 344.64643,342.58629 L 344.50893,342.44879 L 344.37143,342.44879 L 344.37143,342.44879 L 344.23393,342.44879 L 344.17143,342.58629 L 344.02143,342.64879 L 344.02143,342.79879 L 344.02143,342.79879 z" />
      <path
         id="path2838"
         style="fill:#ffffff;fill-opacity:1;fill-rule:evenodd;stroke:none"
         d="M 349.19643,344.12379 L 349.19643,344.12379 L 349.40893,343.84879 L 349.48393,343.56129 L 349.48393,343.56129 L 349.68393,342.93629 L 349.68393,342.93629 L 349.62143,342.37379 L 349.62143,342.37379 L 349.13393,342.79879 L 348.85893,342.99879 L 348.49643,343.07379 L 348.49643,343.07379 L 348.08393,343.13629 L 347.73393,343.07379 L 347.73393,343.07379 L 347.38393,342.93629 L 347.03393,342.72379 L 346.53393,342.31129 L 346.53393,342.31129 L 346.53393,343.07379 L 346.53393,343.07379 L 346.60893,343.36129 L 346.82143,343.69879 L 346.82143,343.69879 L 347.09643,344.18629 L 347.30893,344.41129 L 347.52143,344.54879 L 347.52143,344.54879 L 347.73393,344.67379 L 347.94643,344.67379 L 348.14643,344.67379 L 348.43393,344.67379 L 348.43393,344.67379 L 348.63393,344.61129 L 348.85893,344.47379 L 349.19643,344.12379 L 349.19643,344.12379 z" />
      <path
         id="path2840"
         style="fill:#ffffff;fill-opacity:1;fill-rule:evenodd;stroke:none"
         d="M 355.70893,343.56129 L 355.70893,343.56129 L 355.22143,343.63629 L 355.22143,343.63629 L 354.10893,343.84879 L 353.60893,343.84879 L 352.97143,343.77379 L 352.97143,343.77379 L 352.55893,343.63629 L 352.14643,343.49879 L 351.78393,343.28629 L 351.58393,343.07379 L 351.58393,343.07379 L 351.23393,342.51129 L 350.94643,341.94879 L 350.94643,341.94879 L 351.50893,342.08629 L 352.07143,342.22379 L 352.07143,342.22379 L 352.69643,342.31129 L 353.33393,342.22379 L 353.33393,342.22379 L 353.82143,342.16129 L 354.38393,342.08629 L 354.79643,341.94879 L 355.00893,341.94879 L 355.00893,341.94879 L 355.70893,343.56129 L 355.70893,343.56129 z M 351.72143,342.86129 L 351.72143,342.86129 L 351.78393,342.99879 L 351.85893,343.13629 L 351.99643,343.21129 L 352.14643,343.28629 L 352.14643,343.28629 L 352.28393,343.21129 L 352.34643,343.13629 L 352.42143,342.99879 L 352.49643,342.86129 L 352.49643,342.86129 L 352.42143,342.72379 L 352.34643,342.58629 L 352.28393,342.51129 L 352.14643,342.51129 L 352.14643,342.51129 L 351.99643,342.51129 L 351.85893,342.58629 L 351.78393,342.72379 L 351.72143,342.86129 L 351.72143,342.86129 z" />
      <path
         id="path2842"
         style="fill:#ffffff;fill-opacity:1;fill-rule:evenodd;stroke:none"
         d="M 348.22143,342.31129 L 348.22143,342.31129 L 348.63393,342.16129 L 348.99643,341.94879 L 348.99643,341.94879 L 349.19643,341.59879 L 349.27143,341.32379 L 349.27143,341.32379 L 349.33393,341.03629 L 349.33393,340.76129 L 349.27143,340.41129 L 346.89643,340.41129 L 346.89643,340.41129 L 346.82143,340.76129 L 346.89643,341.03629 L 346.95893,341.32379 L 346.95893,341.32379 L 347.17143,341.81129 L 347.30893,342.02379 L 347.52143,342.16129 L 347.52143,342.16129 L 347.87143,342.31129 L 348.22143,342.31129 L 348.22143,342.31129 z" />
      <path
         id="path2844"
         style="fill:#ffffff;fill-opacity:1;fill-rule:evenodd;stroke:none"
         d="M 345.98393,340.27379 L 345.98393,340.27379 L 345.84643,340.54879 L 345.62143,340.89879 L 345.62143,340.89879 L 345.28393,341.11129 L 344.79643,341.39879 L 344.79643,341.39879 L 344.02143,341.73629 L 343.32143,341.88629 L 342.54643,341.88629 L 341.78393,341.81129 L 341.78393,341.81129 L 341.22143,341.73629 L 340.79643,341.59879 L 340.79643,341.46129 L 340.79643,341.46129 L 342.07143,339.22379 L 342.07143,339.22379 L 343.24643,339.57379 L 343.24643,339.57379 L 345.98393,340.27379 L 345.98393,340.27379 z M 344.29643,340.54879 L 344.29643,340.54879 L 344.37143,340.76129 L 344.43393,340.83629 L 344.57143,340.97379 L 344.72143,340.97379 L 344.72143,340.97379 L 344.85893,340.97379 L 344.93393,340.83629 L 345.07143,340.76129 L 345.07143,340.54879 L 345.07143,340.54879 L 345.07143,340.41129 L 344.93393,340.34879 L 344.85893,340.19879 L 344.72143,340.19879 L 344.72143,340.19879 L 344.57143,340.19879 L 344.43393,340.34879 L 344.37143,340.41129 L 344.29643,340.54879 L 344.29643,340.54879 z" />
      <path
         id="path2846"
         style="fill:#ffffff;fill-opacity:1;fill-rule:evenodd;stroke:none"
         d="M 355.29643,340.89879 L 355.29643,340.89879 L 354.87143,341.11129 L 354.38393,341.24879 L 354.38393,341.24879 L 353.88393,341.39879 L 353.47143,341.53629 L 352.97143,341.53629 L 352.49643,341.53629 L 352.49643,341.53629 L 351.99643,341.46129 L 351.58393,341.46129 L 351.23393,341.32379 L 350.87143,341.03629 L 350.87143,341.03629 L 350.67143,340.83629 L 350.53393,340.62379 L 350.39643,340.19879 L 350.39643,340.19879 L 352.97143,339.64879 L 354.65893,339.22379 L 354.65893,339.22379 L 355.29643,340.89879 L 355.29643,340.89879 z M 351.02143,340.54879 L 351.02143,340.54879 L 351.02143,340.68629 L 351.09643,340.83629 L 351.23393,340.89879 L 351.37143,340.97379 L 351.37143,340.97379 L 351.50893,340.89879 L 351.64643,340.83629 L 351.72143,340.68629 L 351.72143,340.54879 L 351.72143,340.54879 L 351.72143,340.41129 L 351.64643,340.27379 L 351.50893,340.19879 L 351.37143,340.19879 L 351.37143,340.19879 L 351.23393,340.19879 L 351.09643,340.27379 L 351.02143,340.41129 L 351.02143,340.54879 L 351.02143,340.54879 z" />
      <path
         id="path2848"
         style="fill:#ffffff;fill-opacity:1;fill-rule:evenodd;stroke:none"
         d="M 354.87143,338.38629 L 354.87143,338.38629 L 354.79643,338.17379 L 354.65893,337.96129 L 354.44643,337.62379 L 354.44643,337.62379 L 351.92143,337.96129 L 351.92143,337.96129 L 350.39643,338.17379 L 348.78393,338.24879 L 348.78393,338.24879 L 347.58393,338.24879 L 347.58393,338.24879 L 345.90893,338.17379 L 345.07143,338.11129 L 344.23393,337.96129 L 344.23393,337.96129 L 343.38393,337.76129 L 342.62143,337.62379 L 342.62143,337.62379 L 342.27143,337.89879 L 342.13393,338.11129 L 342.13393,338.24879 L 342.13393,338.24879 L 343.38393,338.81129 L 344.79643,339.22379 L 345.48393,339.43629 L 346.25893,339.57379 L 347.09643,339.64879 L 347.94643,339.64879 L 347.94643,339.64879 L 348.70893,339.64879 L 348.70893,339.64879 L 349.68393,339.57379 L 350.67143,339.36129 L 352.55893,339.01129 L 354.10893,338.59879 L 354.87143,338.38629 L 354.87143,338.38629 z" />
      <path
         id="path2850"
         style="fill:#ffffff;fill-opacity:1;fill-rule:evenodd;stroke:none"
         d="M 354.17143,336.63629 L 354.17143,336.63629 L 354.17143,336.48629 L 354.02143,336.14879 L 353.74643,335.44879 L 353.74643,335.44879 L 353.54643,335.44879 L 353.19643,335.44879 L 352.63393,335.58629 L 352.63393,335.58629 L 349.27143,335.72379 L 346.53393,335.86129 L 346.53393,335.86129 L 344.93393,335.79879 L 343.32143,335.72379 L 343.32143,335.72379 L 343.18393,335.93629 L 342.97143,336.28629 L 342.75893,336.91129 L 342.75893,336.91129 L 343.67143,337.12379 L 344.72143,337.33629 L 344.72143,337.33629 L 345.90893,337.47379 L 346.60893,337.53629 L 346.60893,337.53629 L 348.35893,337.53629 L 350.18393,337.39879 L 350.18393,337.39879 L 351.44643,337.26129 L 351.44643,337.26129 L 353.12143,336.91129 L 354.17143,336.63629 L 354.17143,336.63629 z" />
      <path
         id="path2852"
         style="fill:#ffffff;fill-opacity:1;fill-rule:evenodd;stroke:none"
         d="M 348.00893,335.09879 L 348.00893,335.09879 L 345.28393,335.09879 L 345.28393,335.09879 L 344.37143,335.09879 L 343.52143,335.03629 L 343.52143,335.03629 L 343.32143,334.88629 L 343.32143,334.88629 L 342.69643,333.56129 L 341.99643,332.08629 L 341.99643,332.08629 L 341.78393,331.59879 L 341.49643,330.97379 L 341.49643,330.97379 L 341.43393,330.48629 L 341.35893,329.92379 L 341.35893,329.92379 L 341.28393,329.07379 L 341.22143,328.31129 L 341.22143,328.31129 L 341.02143,326.28629 L 340.73393,324.18629 L 340.73393,324.18629 L 341.15893,324.24879 L 341.57143,324.38629 L 342.54643,324.74879 L 342.54643,324.74879 L 343.59643,325.23629 L 344.50893,325.72379 L 344.93393,325.99879 L 345.34643,326.34879 L 345.70893,326.69879 L 346.04643,327.11129 L 346.04643,327.11129 L 346.33393,327.74879 L 346.33393,327.74879 L 346.60893,328.16129 L 346.60893,328.16129 L 346.89643,328.87379 L 346.89643,328.87379 L 347.17143,329.63629 L 347.17143,329.63629 L 347.30893,330.27379 L 347.44643,330.82379 L 347.44643,330.82379 L 347.58393,331.38629 L 347.58393,331.38629 L 346.60893,332.02379 L 345.48393,332.57379 L 345.48393,332.57379 L 344.29643,333.07379 L 343.45893,333.34879 L 343.45893,333.34879 L 344.17143,333.34879 L 344.17143,333.34879 L 344.99643,333.21129 L 345.90893,332.84879 L 346.89643,332.51129 L 347.65893,332.16129 L 347.65893,332.16129 L 347.87143,333.13629 L 347.94643,334.12379 L 347.94643,334.12379 L 348.00893,334.61129 L 348.00893,335.09879 L 348.00893,335.09879 z M 341.49643,325.51129 L 341.49643,325.51129 L 341.49643,325.66129 L 341.57143,325.79879 L 341.70893,325.93629 L 341.84643,325.93629 L 341.84643,325.93629 L 341.99643,325.93629 L 342.13393,325.79879 L 342.19643,325.66129 L 342.27143,325.51129 L 342.27143,325.51129 L 342.19643,325.37379 L 342.13393,325.23629 L 341.99643,325.16129 L 341.84643,325.09879 L 341.84643,325.09879 L 341.70893,325.16129 L 341.57143,325.23629 L 341.49643,325.37379 L 341.49643,325.51129 L 341.49643,325.51129 z" />
      <path
         id="path2854"
         style="fill:#ffffff;fill-opacity:1;fill-rule:evenodd;stroke:none"
         d="M 348.49643,335.03629 L 348.49643,335.03629 L 348.57143,332.16129 L 348.57143,332.16129 L 349.75893,332.51129 L 349.75893,332.51129 L 350.67143,332.71129 L 351.58393,332.93629 L 352.34643,332.99879 L 352.83393,332.99879 L 352.83393,332.99879 L 350.87143,332.29879 L 350.87143,332.29879 L 350.39643,332.16129 L 349.89643,331.94879 L 349.89643,331.94879 L 349.27143,331.66129 L 348.70893,331.31129 L 348.70893,331.31129 L 348.70893,330.82379 L 348.85893,330.41129 L 349.13393,329.49879 L 349.13393,329.49879 L 349.48393,328.66129 L 349.48393,328.66129 L 350.32143,327.33629 L 350.80893,326.62379 L 351.29643,325.99879 L 351.29643,325.99879 L 351.92143,325.43629 L 352.42143,325.09879 L 352.90893,324.67379 L 352.90893,324.67379 L 353.68393,324.32379 L 354.44643,324.04879 L 354.44643,324.04879 L 354.79643,323.97379 L 355.00893,323.97379 L 355.15893,323.97379 L 355.15893,323.97379 L 355.22143,325.58629 L 355.22143,325.58629 L 355.15893,327.04879 L 355.15893,327.04879 L 355.15893,328.87379 L 355.15893,328.87379 L 355.00893,330.12379 L 354.73393,331.31129 L 354.73393,331.31129 L 354.10893,332.99879 L 353.68393,334.12379 L 353.39643,334.74879 L 353.39643,334.74879 L 352.34643,334.88629 L 352.34643,334.88629 L 349.62143,334.96129 L 349.62143,334.96129 L 348.49643,335.03629 L 348.49643,335.03629 z M 353.68393,325.09879 L 353.68393,325.09879 L 353.74643,325.23629 L 353.82143,325.37379 L 353.95893,325.43629 L 354.10893,325.51129 L 354.10893,325.51129 L 354.24643,325.43629 L 354.38393,325.37379 L 354.44643,325.23629 L 354.52143,325.09879 L 354.52143,325.09879 L 354.44643,324.94879 L 354.38393,324.81129 L 354.24643,324.74879 L 354.10893,324.67379 L 354.10893,324.67379 L 353.95893,324.74879 L 353.82143,324.81129 L 353.74643,324.94879 L 353.68393,325.09879 L 353.68393,325.09879 z" />
      <path
         id="path2856"
         style="fill:#ffffff;fill-opacity:1;fill-rule:evenodd;stroke:none"
         d="M 332.39643,333.91129 L 332.39643,333.91129 L 332.82143,333.83629 L 332.82143,333.83629 L 334.49643,333.07379 L 334.49643,333.07379 L 335.83393,332.29879 L 337.02143,331.53629 L 338.07143,330.76129 L 339.33393,329.78629 L 339.33393,329.78629 L 340.52143,328.73629 L 340.52143,328.73629 L 340.45893,327.53629 L 340.30893,326.34879 L 340.30893,326.34879 L 339.95893,323.19879 L 339.95893,323.19879 L 339.68393,323.27379 L 339.47143,323.41129 L 339.47143,323.41129 L 339.05893,323.76129 L 338.49643,324.18629 L 337.58393,325.09879 L 337.58393,325.09879 L 336.74643,326.07379 L 336.74643,326.07379 L 335.12143,327.74879 L 335.12143,327.74879 L 332.54643,330.41129 L 332.39643,330.41129 L 332.39643,330.41129 L 330.43393,329.63629 L 330.43393,329.63629 L 327.99643,328.52379 L 326.45893,327.82379 L 326.45893,327.82379 L 326.17143,328.44879 L 325.74643,329.14879 L 325.40893,329.92379 L 325.33393,330.27379 L 325.33393,330.54879 L 325.33393,330.54879 L 327.92143,331.87379 L 330.50893,333.21129 L 330.50893,333.21129 L 331.42143,333.56129 L 332.39643,333.91129 L 332.39643,333.91129 z" />
      <path
         id="path2858"
         style="fill:#ffffff;fill-opacity:1;fill-rule:evenodd;stroke:none"
         d="M 363.62143,331.94879 L 363.62143,331.94879 L 363.95893,331.87379 L 363.95893,331.87379 L 364.73393,331.46129 L 366.05893,330.61129 L 367.47143,329.71129 L 368.58393,328.93629 L 368.58393,328.93629 L 369.14643,328.38629 L 369.14643,328.38629 L 369.14643,328.02379 L 369.14643,328.02379 L 369.00893,327.53629 L 368.72143,327.04879 L 368.44643,326.56129 L 368.09643,326.13629 L 368.09643,326.13629 L 367.95893,326.13629 L 367.95893,326.13629 L 367.47143,326.42379 L 366.97143,326.62379 L 366.97143,326.62379 L 365.37143,327.53629 L 365.37143,327.53629 L 364.73393,327.82379 L 364.10893,328.02379 L 364.10893,328.02379 L 363.68393,327.82379 L 363.68393,327.82379 L 359.84643,325.02379 L 359.84643,325.02379 L 357.45893,323.27379 L 357.45893,323.27379 L 356.47143,322.64879 L 356.47143,322.64879 L 356.13393,322.64879 L 356.13393,322.64879 L 356.20893,328.16129 L 356.20893,328.16129 L 358.02143,329.22379 L 359.90893,330.12379 L 363.62143,331.94879 L 363.62143,331.94879 z" />
      <path
         id="path2860"
         style="fill:#ffffff;fill-opacity:1;fill-rule:evenodd;stroke:none"
         d="M 348.14643,331.17379 L 348.14643,331.17379 L 348.22143,330.97379 L 348.28393,330.68629 L 348.28393,330.68629 L 348.43393,329.84879 L 348.57143,329.36129 L 348.70893,328.93629 L 348.70893,328.93629 L 349.19643,328.02379 L 349.68393,327.18629 L 349.68393,327.18629 L 350.24643,326.48629 L 350.80893,325.79879 L 351.44643,325.09879 L 352.07143,324.53629 L 352.07143,324.53629 L 352.83393,324.11129 L 353.54643,323.69879 L 353.54643,323.69879 L 354.38393,323.41129 L 354.38393,323.41129 L 355.00893,323.19879 L 355.00893,323.19879 L 355.00893,322.49879 L 355.00893,322.49879 L 354.87143,322.49879 L 354.87143,322.49879 L 353.19643,323.33629 L 353.19643,323.33629 L 352.77143,323.56129 L 352.14643,323.76129 L 352.14643,323.76129 L 351.09643,324.04879 L 350.10893,324.24879 L 348.22143,324.46129 L 348.22143,324.46129 L 348.22143,326.21129 L 348.14643,327.96129 L 348.14643,327.96129 L 348.08393,328.79879 L 348.08393,328.79879 L 347.80893,326.97379 L 347.52143,324.53629 L 347.52143,324.53629 L 346.33393,324.46129 L 346.33393,324.46129 L 345.48393,324.32379 L 344.72143,324.18629 L 343.12143,323.76129 L 343.12143,323.76129 L 342.54643,323.62379 L 342.54643,323.62379 L 341.92143,323.33629 L 341.43393,322.98629 L 341.43393,322.98629 L 340.73393,322.49879 L 340.73393,322.49879 L 340.79643,323.33629 L 340.79643,323.33629 L 342.54643,324.11129 L 342.54643,324.11129 L 343.74643,324.61129 L 344.37143,324.94879 L 344.93393,325.29879 L 344.93393,325.29879 L 345.55893,325.93629 L 345.55893,325.93629 L 346.12143,326.42379 L 346.53393,326.91129 L 346.53393,326.91129 L 346.95893,327.61129 L 347.30893,328.31129 L 347.58393,329.14879 L 347.80893,329.92379 L 347.80893,329.92379 L 348.00893,330.54879 L 348.14643,331.17379 L 348.14643,331.17379 z" />
      <path
         id="path2862"
         style="fill:#ffffff;fill-opacity:1;fill-rule:evenodd;stroke:none"
         d="M 324.63393,329.78629 L 324.63393,329.78629 L 325.04643,328.79879 L 325.04643,328.79879 L 325.40893,328.02379 L 325.40893,328.02379 L 324.90893,327.82379 L 324.42143,327.53629 L 324.42143,327.53629 L 324.14643,327.18629 L 323.64643,326.56129 L 322.94643,325.37379 L 322.94643,325.37379 L 322.45893,325.16129 L 322.45893,325.16129 L 321.83393,325.09879 L 320.98393,325.16129 L 319.53393,325.29879 L 319.53393,325.29879 L 319.53393,325.51129 L 319.53393,325.51129 L 320.15893,325.72379 L 320.78393,325.86129 L 320.78393,325.86129 L 321.34643,325.86129 L 321.69643,325.86129 L 321.97143,325.86129 L 321.97143,325.86129 L 321.89643,326.34879 L 321.89643,326.34879 L 322.68393,326.84879 L 322.68393,326.84879 L 322.94643,327.96129 L 323.23393,329.07379 L 323.23393,329.07379 L 323.93393,329.29879 L 323.93393,329.29879 L 324.63393,329.78629 L 324.63393,329.78629 z" />
      <path
         id="path2864"
         style="fill:#ffffff;fill-opacity:1;fill-rule:evenodd;stroke:none"
         d="M 321.13393,328.73629 L 321.13393,328.73629 L 321.40893,328.58629 L 321.55893,328.52379 L 321.89643,328.24879 L 321.89643,328.24879 L 321.97143,327.74879 L 321.89643,327.33629 L 321.89643,327.33629 L 321.69643,327.11129 L 321.69643,327.11129 L 321.20893,326.69879 L 320.58393,326.42379 L 320.58393,326.42379 L 320.22143,326.28629 L 320.00893,326.28629 L 319.79643,326.28629 L 319.79643,326.28629 L 319.67143,326.28629 L 319.67143,326.28629 L 319.59643,326.62379 L 319.67143,327.18629 L 319.79643,328.16129 L 319.79643,328.16129 L 321.13393,328.73629 L 321.13393,328.73629 z" />
      <path
         id="path2866"
         style="fill:#ffffff;fill-opacity:1;fill-rule:evenodd;stroke:none"
         d="M 370.12143,327.53629 L 370.12143,327.53629 L 372.22143,326.13629 L 372.22143,326.13629 L 372.72143,326.07379 L 373.48393,325.99879 L 373.48393,325.99879 L 373.27143,325.79879 L 373.07143,325.51129 L 372.50893,325.09879 L 372.50893,325.09879 L 372.22143,325.02379 L 371.94643,325.02379 L 371.94643,325.02379 L 372.08393,324.74879 L 372.29643,324.61129 L 372.29643,324.61129 L 372.43393,324.24879 L 372.58393,323.89879 L 372.58393,323.89879 L 372.64643,323.69879 L 372.64643,323.41129 L 372.64643,323.41129 L 372.93393,323.33629 L 372.93393,323.33629 L 373.07143,323.47379 L 373.07143,323.47379 L 373.48393,323.47379 L 373.48393,323.47379 L 373.77143,323.47379 L 374.04643,323.41129 L 374.32143,323.27379 L 374.60893,323.13629 L 374.60893,323.13629 L 374.60893,323.06129 L 374.60893,323.06129 L 373.69643,322.98629 L 372.78393,322.92379 L 372.78393,322.92379 L 372.43393,322.78629 L 372.43393,322.78629 L 372.02143,322.98629 L 371.59643,323.27379 L 371.59643,323.27379 L 371.32143,323.62379 L 371.32143,323.62379 L 370.89643,324.32379 L 370.62143,324.67379 L 370.34643,324.94879 L 370.34643,324.94879 L 369.14643,325.72379 L 369.14643,325.72379 L 369.14643,326.13629 L 369.14643,326.13629 L 369.43393,326.56129 L 369.70893,326.97379 L 369.70893,326.97379 L 369.98393,327.33629 L 370.12143,327.53629 L 370.12143,327.53629 z" />
      <path
         id="path2868"
         style="fill:#ffffff;fill-opacity:1;fill-rule:evenodd;stroke:none"
         d="M 375.03393,325.16129 L 375.03393,325.16129 L 375.30893,325.09879 L 375.50893,324.94879 L 375.50893,324.94879 L 375.58393,324.74879 L 375.65893,324.53629 L 375.65893,324.53629 L 375.23393,323.69879 L 375.23393,323.69879 L 374.74643,323.83629 L 374.32143,324.04879 L 374.32143,324.04879 L 374.60893,324.61129 L 375.03393,325.16129 L 375.03393,325.16129 z" />
      <path
         id="path2870"
         style="fill:#ffffff;fill-opacity:1;fill-rule:evenodd;stroke:none"
         d="M 354.93393,321.38629 L 354.93393,321.38629 L 353.47143,321.11129 L 351.99643,320.82379 L 351.99643,320.82379 L 351.78393,320.89879 L 351.78393,320.89879 L 351.50893,321.17379 L 351.09643,321.44879 L 351.09643,321.44879 L 350.53393,321.79879 L 349.89643,322.01129 L 349.89643,322.01129 L 349.33393,322.22379 L 348.78393,322.28629 L 348.22143,322.28629 L 347.65893,322.22379 L 347.65893,322.22379 L 346.82143,322.08629 L 346.39643,322.01129 L 346.04643,321.79879 L 346.04643,321.79879 L 345.34643,321.38629 L 345.07143,321.17379 L 344.85893,320.89879 L 344.85893,320.89879 L 344.09643,320.89879 L 343.38393,320.89879 L 343.38393,320.89879 L 342.27143,321.17379 L 341.15893,321.59879 L 341.15893,321.59879 L 341.28393,321.87379 L 341.64643,322.22379 L 341.64643,322.22379 L 342.13393,322.64879 L 342.62143,322.98629 L 343.18393,323.27379 L 343.80893,323.47379 L 344.37143,323.62379 L 345.07143,323.76129 L 346.47143,323.89879 L 346.47143,323.89879 L 347.44643,323.89879 L 348.57143,323.83629 L 348.57143,323.83629 L 349.54643,323.76129 L 350.39643,323.62379 L 351.23393,323.41129 L 352.14643,323.06129 L 352.14643,323.06129 L 352.97143,322.71129 L 353.60893,322.28629 L 354.93393,321.38629 L 354.93393,321.38629 z" />
      <path
         id="path2872"
         style="fill:#ffffff;fill-opacity:1;fill-rule:evenodd;stroke:none"
         d="M 350.59643,320.74879 L 350.53393,320.74879 L 350.53393,320.74879 L 349.27143,320.41129 L 349.27143,320.41129 L 349.33393,319.98629 L 349.40893,319.56129 L 349.40893,319.56129 L 349.40893,318.87379 L 349.40893,318.87379 L 348.92143,318.51129 L 348.70893,318.37379 L 348.43393,318.29879 L 348.43393,320.54879 L 348.43393,320.54879 L 347.17143,320.74879 L 345.98393,320.89879 L 345.98393,320.89879 L 346.39643,321.17379 L 346.39643,321.17379 L 347.65893,321.52379 L 347.65893,321.52379 L 348.63393,321.44879 L 349.54643,321.31129 L 349.54643,321.31129 L 350.45893,320.89879 L 350.45893,320.89879 L 350.59643,320.74879 L 350.59643,320.74879 z" />
      <path
         id="path2874"
         style="fill:#ffffff;fill-opacity:1;fill-rule:evenodd;stroke:none"
         d="M 320.78393,320.33629 L 320.78393,320.33629 L 320.58393,319.84879 L 320.43393,319.36129 L 320.43393,319.36129 L 320.08393,318.37379 L 319.79643,317.32379 L 319.79643,317.32379 L 319.59643,316.69879 L 319.59643,316.69879 L 319.59643,316.42379 L 319.59643,316.42379 L 320.22143,315.37379 L 320.22143,315.37379 L 319.53393,313.96129 L 318.62143,312.07379 L 318.62143,312.07379 L 317.63393,309.98629 L 317.63393,309.98629 L 317.20893,309.21129 L 317.20893,309.21129 L 317.28393,310.12379 L 317.28393,310.12379 L 317.42143,313.04879 L 317.49643,314.81129 L 317.57143,315.86129 L 317.57143,315.86129 L 318.62143,316.56129 L 318.62143,316.56129 L 318.74643,316.62379 L 318.89643,316.83629 L 318.89643,316.83629 L 319.38393,320.61129 L 319.38393,320.61129 L 319.59643,320.61129 L 320.00893,320.54879 L 320.78393,320.33629 L 320.78393,320.33629 z" />
      <path
         id="path2876"
         style="fill:#ffffff;fill-opacity:1;fill-rule:evenodd;stroke:none"
         d="M 347.44643,319.63629 L 347.44643,319.63629 L 347.44643,316.28629 L 347.44643,312.98629 L 347.44643,312.98629 L 348.57143,312.84879 L 349.62143,312.71129 L 349.62143,312.71129 L 351.02143,312.49879 L 351.02143,312.49879 L 351.72143,312.28629 L 352.42143,312.01129 L 352.42143,312.01129 L 353.12143,311.59879 L 353.82143,311.17379 L 353.82143,311.17379 L 352.77143,311.17379 L 352.20893,311.17379 L 351.72143,311.03629 L 351.72143,311.03629 L 351.29643,311.31129 L 351.29643,311.31129 L 350.87143,311.66129 L 350.67143,311.79879 L 350.39643,311.93629 L 350.39643,311.93629 L 349.89643,312.07379 L 349.40893,312.22379 L 349.40893,312.22379 L 351.09643,310.68629 L 351.09643,310.47379 L 351.09643,310.47379 L 350.80893,310.18629 L 350.80893,310.18629 L 350.32143,309.63629 L 349.75893,309.21129 L 349.13393,308.92379 L 348.35893,308.64879 L 348.35893,308.64879 L 347.58393,308.58629 L 346.82143,308.58629 L 346.82143,308.58629 L 346.12143,308.72379 L 345.48393,308.92379 L 345.48393,308.92379 L 344.93393,309.21129 L 344.43393,309.63629 L 344.43393,309.63629 L 344.17143,309.91129 L 343.88393,310.32379 L 343.88393,310.32379 L 343.67143,310.88629 L 343.59643,311.23629 L 343.59643,311.23629 L 343.45893,312.07379 L 343.38393,312.56129 L 343.45893,312.98629 L 343.45893,312.98629 L 343.59643,313.89879 L 343.80893,314.81129 L 343.80893,314.81129 L 343.38393,314.09879 L 343.04643,313.33629 L 343.04643,313.33629 L 342.83393,312.42379 L 342.83393,312.42379 L 342.83393,311.93629 L 342.83393,311.93629 L 342.89643,311.09879 L 342.97143,310.68629 L 343.12143,310.26129 L 343.12143,310.26129 L 343.45893,309.63629 L 343.88393,309.14879 L 344.37143,308.72379 L 344.99643,308.36129 L 344.99643,308.36129 L 345.42143,308.16129 L 345.77143,308.02379 L 346.60893,307.87379 L 346.60893,307.87379 L 347.30893,307.87379 L 347.73393,307.87379 L 347.73393,307.87379 L 348.22143,308.02379 L 348.78393,308.22379 L 349.27143,308.51129 L 349.68393,308.78629 L 349.68393,308.78629 L 350.10893,309.21129 L 350.10893,309.21129 L 350.53393,309.69879 L 350.53393,309.69879 L 350.80893,309.91129 L 350.80893,309.91129 L 350.80893,309.69879 L 350.80893,309.69879 L 350.53393,308.99879 L 350.53393,308.99879 L 350.24643,308.29879 L 350.24643,308.29879 L 349.89643,307.81129 L 349.54643,307.32379 L 348.99643,306.91129 L 348.35893,306.54879 L 348.35893,306.54879 L 347.73393,306.27379 L 347.09643,306.13629 L 346.47143,306.06129 L 345.77143,306.13629 L 345.77143,306.13629 L 345.28393,306.19879 L 344.85893,306.27379 L 344.43393,306.48629 L 344.02143,306.68629 L 344.02143,306.68629 L 343.59643,306.97379 L 343.24643,307.24879 L 342.89643,307.59879 L 342.62143,308.02379 L 342.62143,308.02379 L 342.27143,308.43629 L 342.07143,308.92379 L 341.84643,309.41129 L 341.78393,309.98629 L 341.78393,309.98629 L 341.70893,310.54879 L 341.78393,311.09879 L 341.78393,311.09879 L 341.92143,312.01129 L 342.19643,312.78629 L 342.19643,312.78629 L 342.54643,313.61129 L 342.89643,314.32379 L 343.32143,314.87379 L 343.67143,315.37379 L 343.67143,315.37379 L 344.29643,316.06129 L 344.85893,316.69879 L 344.85893,316.69879 L 344.37143,317.32379 L 343.88393,317.88629 L 343.88393,317.88629 L 343.32143,318.29879 L 343.32143,318.29879 L 341.92143,319.21129 L 341.92143,319.21129 L 342.13393,319.36129 L 342.33393,319.42379 L 342.33393,319.42379 L 343.32143,319.63629 L 344.23393,319.77379 L 344.23393,319.77379 L 345.34643,319.77379 L 346.53393,319.63629 L 346.53393,319.63629 L 347.44643,319.63629 L 347.44643,319.63629 z" />
      <path
         id="path2878"
         style="fill:#ffffff;fill-opacity:1;fill-rule:evenodd;stroke:none"
         d="M 350.87143,318.23629 L 350.87143,318.23629 L 350.87143,317.53629 L 350.87143,317.53629 L 351.02143,317.47379 L 351.02143,317.47379 L 351.02143,317.24879 L 350.32143,317.24879 L 350.32143,317.24879 L 350.39643,316.97379 L 350.53393,316.76129 L 350.53393,316.76129 L 351.09643,316.69879 L 351.09643,316.69879 L 351.29643,316.56129 L 351.29643,316.56129 L 351.23393,316.28629 L 351.23393,316.28629 L 351.02143,316.28629 L 351.02143,316.28629 L 350.87143,316.06129 L 350.87143,315.78629 L 350.87143,315.57379 L 350.94643,315.37379 L 350.94643,315.37379 L 351.23393,315.64879 L 351.72143,315.43629 L 351.72143,315.43629 L 351.78393,315.29879 L 351.78393,315.29879 L 351.50893,314.67379 L 351.44643,314.38629 L 351.37143,314.18629 L 351.37143,314.18629 L 351.37143,313.76129 L 351.02143,313.76129 L 351.02143,313.76129 L 351.09643,314.09879 L 351.02143,314.38629 L 350.87143,314.59879 L 350.87143,314.59879 L 350.73393,314.74879 L 350.59643,314.81129 L 350.18393,314.94879 L 350.18393,314.94879 L 349.83393,314.87379 L 349.62143,314.81129 L 349.48393,314.74879 L 349.48393,314.74879 L 349.40893,314.59879 L 349.40893,314.38629 L 349.40893,314.18629 L 349.40893,314.18629 L 349.97143,313.89879 L 349.97143,313.89879 L 350.32143,313.76129 L 350.59643,313.68629 L 351.23393,313.61129 L 351.23393,313.61129 L 351.23393,313.47379 L 351.23393,313.41129 L 351.23393,313.41129 L 350.80893,313.41129 L 350.80893,313.41129 L 349.62143,313.68629 L 348.35893,313.89879 L 348.35893,313.89879 L 348.35893,314.03629 L 348.35893,314.03629 L 348.35893,317.67379 L 348.35893,317.67379 L 348.85893,317.96129 L 349.05893,318.02379 L 349.33393,318.16129 L 349.33393,318.16129 L 349.75893,318.29879 L 350.18393,318.29879 L 350.53393,318.29879 L 350.87143,318.23629 L 350.87143,318.23629 z" />
      <path
         id="path2880"
         style="fill:#fcdb00;fill-opacity:1;fill-rule:evenodd;stroke:#fcdb00;stroke-width:0.14999999;stroke-linecap:round;stroke-linejoin:round;stroke-miterlimit:10;stroke-dasharray:none;stroke-opacity:1"
         d="M 332.75893,373.22379 L 333.09643,373.08629 L 333.09643,373.08629 L 327.00893,348.53629 L 322.18393,329.07379 L 322.18393,329.07379 L 321.89643,329.14879 L 321.89643,329.14879 L 332.75893,373.22379 L 332.75893,373.22379 z" />
      <path
         id="path2882"
         style="fill:#fcdb00;fill-opacity:1;fill-rule:evenodd;stroke:#fcdb00;stroke-width:0.14999999;stroke-linecap:round;stroke-linejoin:round;stroke-miterlimit:10;stroke-dasharray:none;stroke-opacity:1"
         d="M 374.39643,325.66129 L 374.45893,325.66129 L 374.45893,325.66129 L 374.25893,325.02379 L 374.04643,324.46129 L 373.07143,324.24879 L 373.07143,324.24879 L 373.69643,324.88629 L 374.39643,325.66129 L 374.39643,325.66129 z" />
      <path
         id="path2884"
         style="fill:#fcdb00;fill-opacity:1;fill-rule:evenodd;stroke:#fcdb00;stroke-width:0.14999999;stroke-linecap:round;stroke-linejoin:round;stroke-miterlimit:10;stroke-dasharray:none;stroke-opacity:1"
         d="M 365.23393,325.29879 L 365.23393,325.29879 L 365.99643,324.81129 L 367.25893,323.89879 L 369.84643,322.01129 L 369.84643,322.01129 L 370.48393,322.71129 L 370.48393,322.71129 L 370.68393,322.64879 L 371.03393,322.42379 L 371.03393,322.42379 L 371.45893,322.28629 L 371.79643,322.16129 L 372.64643,322.08629 L 372.64643,322.08629 L 373.07143,322.08629 L 373.40893,322.08629 L 373.40893,322.08629 L 373.34643,321.44879 L 373.13393,320.61129 L 372.93393,319.69879 L 372.93393,319.69879 L 378.09643,315.64879 L 372.37143,315.64879 L 372.37143,315.64879 L 371.53393,313.41129 L 370.82143,311.44879 L 370.34643,309.98629 L 368.38393,315.72379 L 362.49643,315.78629 L 362.49643,315.78629 L 364.80893,317.73629 L 367.04643,319.84879 L 367.04643,319.84879 L 365.23393,325.29879 L 365.23393,325.29879 z" />
      <path
         id="path2886"
         style="fill:#fcdb00;fill-opacity:1;fill-rule:evenodd;stroke:#fcdb00;stroke-width:0.14999999;stroke-linecap:round;stroke-linejoin:round;stroke-miterlimit:10;stroke-dasharray:none;stroke-opacity:1"
         d="M 320.92143,324.53629 L 320.92143,324.53629 L 321.27143,324.46129 L 321.27143,324.46129 L 320.98393,323.27379 L 320.50893,321.38629 L 320.50893,321.38629 L 320.15893,321.38629 L 320.15893,321.38629 L 320.92143,324.53629 L 320.92143,324.53629 z" />
      <path
         id="path2888"
         style="fill:#f00000;fill-opacity:1;fill-rule:evenodd;stroke:#f00000;stroke-width:0.14999999;stroke-linecap:round;stroke-linejoin:round;stroke-miterlimit:10;stroke-dasharray:none;stroke-opacity:1"
         d="M 365.65893,386.09879 L 365.65893,386.09879 L 366.20893,384.76129 L 366.42143,384.07379 L 366.55893,383.36129 L 366.63393,382.67379 L 366.69643,381.91129 L 366.63393,381.19879 L 366.48393,380.43629 L 366.48393,380.43629 L 366.13393,379.31129 L 365.92143,378.82379 L 365.65893,378.26129 L 365.65893,378.26129 L 365.00893,377.48629 L 364.73393,377.14879 L 364.53393,376.99879 L 364.53393,376.99879 L 364.53393,376.93629 L 364.53393,376.93629 L 364.87143,376.93629 L 365.23393,376.86129 L 365.23393,376.86129 L 365.65893,376.51129 L 366.05893,376.17379 L 366.05893,376.17379 L 366.05893,376.02379 L 366.05893,376.02379 L 366.20893,375.52379 L 366.05893,375.12379 L 366.05893,375.12379 L 364.94643,374.69879 L 364.24643,374.41129 L 363.75893,374.21129 L 363.75893,374.21129 L 363.27143,373.78629 L 362.77143,373.22379 L 361.94643,372.17379 L 361.94643,372.17379 L 361.58393,371.74879 L 361.58393,371.74879 L 361.23393,371.26129 L 360.95893,370.83629 L 360.60893,370.07379 L 360.60893,370.07379 L 360.39643,369.29879 L 360.25893,368.53629 L 360.25893,368.53629 L 359.13393,363.28629 L 359.13393,363.28629 L 358.79643,361.19879 L 358.79643,361.19879 L 358.57143,359.92379 L 358.44643,358.67379 L 358.44643,358.67379 L 358.44643,358.18629 L 358.50893,357.83629 L 358.85893,357.13629 L 358.85893,357.13629 L 358.99643,356.86129 L 358.99643,356.86129 L 358.99643,356.57379 L 358.99643,356.57379 L 358.99643,356.08629 L 358.85893,355.59879 L 358.57143,354.61129 L 358.57143,354.61129 L 358.85893,354.54879 L 359.07143,354.47379 L 359.07143,354.47379 L 358.02143,352.23629 L 358.02143,352.23629 L 358.02143,352.02379 L 358.02143,352.02379 L 358.50893,351.88629 L 358.85893,351.68629 L 358.85893,351.68629 L 358.23393,350.69879 L 357.94643,350.13629 L 357.73393,349.72379 L 357.73393,349.72379 L 357.73393,349.57379 L 357.73393,349.57379 L 357.94643,349.43629 L 358.15893,349.23629 L 358.15893,349.23629 L 358.15893,349.09879 L 358.15893,349.09879 L 357.25893,346.77379 L 357.25893,346.77379 L 357.59643,346.42379 L 357.59643,346.42379 L 356.60893,344.18629 L 356.60893,344.18629 L 357.18393,343.84879 L 357.18393,343.69879 L 357.18393,343.69879 L 356.60893,342.72379 L 356.05893,341.59879 L 356.05893,341.59879 L 356.05893,341.46129 L 356.05893,341.46129 L 356.27143,341.24879 L 356.47143,341.11129 L 356.47143,341.11129 L 356.47143,340.97379 L 356.47143,340.97379 L 355.63393,339.01129 L 355.63393,339.01129 L 355.63393,338.81129 L 355.63393,338.81129 L 355.92143,338.67379 L 356.05893,338.67379 L 356.05893,338.67379 L 355.70893,338.03629 L 355.29643,337.19879 L 355.29643,337.19879 L 355.29643,336.98629 L 355.29643,336.98629 L 355.55893,336.84879 L 355.55893,336.84879 L 355.08393,335.79879 L 354.65893,334.88629 L 354.65893,334.88629 L 354.73393,334.47379 L 354.87143,334.04879 L 355.22143,333.13629 L 355.22143,333.13629 L 355.78393,331.59879 L 355.78393,331.59879 L 356.05893,330.48629 L 356.13393,330.06129 L 356.27143,329.71129 L 356.27143,329.71129 L 363.82143,333.27379 L 363.82143,333.27379 L 363.95893,333.27379 L 363.95893,333.27379 L 366.77143,331.31129 L 366.77143,331.31129 L 368.02143,330.41129 L 368.02143,330.41129 L 369.22143,329.49879 L 369.22143,329.49879 L 370.27143,328.79879 L 370.27143,328.79879 L 370.34643,328.58629 L 370.40893,328.38629 L 370.40893,328.38629 L 372.02143,327.61129 L 373.40893,326.97379 L 373.40893,326.97379 L 373.90893,326.77379 L 374.18393,326.69879 L 374.45893,326.69879 L 375.44643,327.39879 L 375.44643,327.39879 L 375.58393,327.53629 L 375.65893,327.61129 L 375.73393,327.61129 L 375.73393,327.61129 L 375.50893,326.77379 L 375.37143,325.99879 L 375.37143,325.99879 L 375.44643,325.86129 L 375.50893,325.79879 L 375.87143,325.58629 L 376.00893,325.43629 L 376.14643,325.23629 L 376.22143,324.94879 L 376.28393,324.67379 L 376.28393,324.67379 L 376.28393,324.38629 L 376.28393,324.38629 L 375.79643,323.27379 L 375.23393,322.16129 L 375.23393,322.16129 L 375.03393,322.16129 L 374.82143,322.08629 L 374.82143,322.08629 L 374.60893,321.17379 L 374.45893,320.47379 L 374.39643,319.92379 L 374.39643,319.92379 L 375.79643,318.78629 L 377.75893,317.04879 L 379.50893,315.57379 L 380.34643,314.94879 L 380.34643,314.94879 L 373.13393,314.94879 L 373.13393,314.94879 L 371.79643,311.37379 L 370.40893,307.67379 L 370.40893,307.67379 L 369.00893,311.23629 L 367.60893,314.94879 L 367.60893,314.94879 L 364.03393,314.94879 L 360.54643,314.94879 L 360.54643,314.94879 L 366.34643,320.19879 L 366.34643,320.19879 L 364.38393,326.62379 L 364.38393,326.62379 L 365.15893,326.21129 L 366.90893,325.16129 L 369.35893,323.76129 L 369.35893,323.76129 L 369.63393,323.76129 L 369.63393,323.76129 L 370.12143,324.46129 L 370.12143,324.46129 L 367.39643,325.93629 L 364.32143,327.39879 L 364.32143,327.39879 L 364.18393,327.39879 L 363.95893,327.26129 L 363.40893,326.91129 L 362.42143,326.13629 L 360.04643,324.38629 L 360.04643,324.38629 L 358.93393,323.47379 L 358.93393,323.47379 L 357.65893,322.64879 L 356.40893,321.79879 L 356.40893,321.79879 L 356.27143,321.59879 L 356.20893,320.97379 L 356.20893,320.97379 L 353.60893,320.41129 L 353.60893,320.41129 L 350.32143,319.77379 L 350.32143,319.77379 L 350.32143,319.42379 L 350.39643,319.07379 L 350.39643,319.07379 L 351.15893,319.01129 L 351.15893,319.01129 L 351.37143,318.93629 L 351.37143,318.93629 L 351.44643,318.87379 L 351.44643,318.72379 L 351.50893,318.51129 L 351.50893,318.51129 L 351.50893,318.09879 L 351.50893,317.67379 L 351.50893,317.67379 L 351.64643,317.67379 L 351.78393,317.59879 L 351.85893,316.97379 L 351.85893,316.97379 L 351.92143,316.62379 L 351.92143,316.13629 L 351.92143,316.13629 L 352.42143,315.99879 L 352.63393,315.92379 L 352.77143,315.72379 L 352.77143,315.72379 L 352.55893,315.08629 L 352.20893,314.46129 L 352.20893,314.46129 L 352.07143,314.24879 L 352.07143,314.24879 L 351.99643,313.19879 L 351.99643,313.19879 L 352.63393,313.04879 L 353.19643,312.78629 L 353.19643,312.78629 L 353.74643,312.49879 L 354.38393,311.93629 L 354.93393,311.37379 L 355.29643,310.88629 L 355.29643,310.88629 L 355.55893,310.26129 L 355.55893,310.26129 L 354.73393,310.39879 L 353.88393,310.47379 L 353.88393,310.47379 L 352.83393,310.47379 L 351.85893,310.39879 L 351.85893,310.39879 L 351.78393,310.06129 L 351.58393,309.56129 L 351.02143,308.36129 L 351.02143,308.36129 L 350.80893,307.87379 L 350.59643,307.46129 L 350.59643,307.46129 L 350.18393,306.83629 L 349.62143,306.27379 L 349.62143,306.27379 L 349.13393,305.99879 L 348.63393,305.71129 L 348.63393,305.71129 L 347.94643,305.43629 L 347.30893,305.37379 L 347.30893,305.37379 L 346.60893,305.29879 L 346.04643,305.29879 L 345.48393,305.37379 L 345.48393,305.37379 L 344.64643,305.57379 L 344.02143,305.86129 L 343.38393,306.19879 L 342.75893,306.68629 L 342.75893,306.68629 L 342.13393,307.32379 L 341.64643,308.02379 L 341.64643,308.02379 L 341.22143,308.78629 L 340.93393,309.63629 L 340.93393,309.63629 L 340.87143,310.18629 L 340.87143,310.61129 L 340.87143,311.09879 L 340.93393,311.59879 L 340.93393,311.59879 L 341.02143,312.01129 L 341.15893,312.42379 L 341.43393,313.12379 L 341.43393,313.12379 L 341.70893,313.82379 L 342.27143,314.74879 L 342.27143,314.74879 L 342.69643,315.37379 L 343.18393,315.99879 L 343.18393,315.99879 L 343.52143,316.34879 L 343.80893,316.56129 L 343.80893,316.56129 L 343.80893,316.76129 L 343.80893,316.76129 L 343.59643,317.11129 L 343.59643,317.11129 L 343.24643,317.47379 L 342.75893,317.88629 L 342.19643,318.37379 L 341.57143,318.78629 L 341.57143,318.78629 L 341.15893,319.01129 L 340.73393,319.21129 L 340.30893,319.36129 L 339.95893,319.56129 L 339.95893,319.56129 L 340.45893,319.84879 L 341.02143,320.06129 L 341.02143,320.06129 L 341.49643,320.19879 L 341.99643,320.41129 L 341.99643,320.47379 L 341.99643,320.47379 L 340.93393,320.89879 L 340.93393,320.89879 L 339.82143,321.38629 L 339.82143,321.38629 L 339.68393,321.73629 L 339.60893,322.08629 L 339.60893,322.08629 L 339.47143,322.22379 L 339.33393,322.36129 L 339.33393,322.36129 L 339.05893,322.64879 L 339.05893,322.64879 L 338.55893,323.13629 L 338.07143,323.62379 L 338.07143,323.62379 L 336.59643,325.16129 L 335.12143,326.77379 L 335.12143,326.77379 L 333.02143,328.93629 L 333.02143,328.93629 L 332.54643,329.36129 L 332.54643,329.36129 L 332.05893,329.43629 L 332.05893,329.43629 L 331.63393,329.36129 L 331.28393,329.22379 L 330.72143,328.93629 L 330.72143,328.93629 L 328.48393,327.96129 L 326.32143,326.91129 L 326.32143,326.91129 L 325.95893,326.84879 L 325.95893,326.84879 L 325.82143,327.33629 L 325.82143,327.33629 L 325.47143,327.26129 L 325.47143,327.26129 L 325.19643,327.11129 L 324.84643,326.84879 L 324.84643,326.84879 L 324.63393,326.62379 L 324.49643,326.34879 L 324.49643,326.34879 L 324.22143,325.99879 L 323.93393,325.58629 L 323.93393,325.58629 L 323.64643,325.09879 L 323.44643,324.67379 L 323.44643,324.67379 L 322.74643,324.46129 L 322.10893,324.18629 L 322.10893,324.18629 L 321.34643,321.24879 L 321.34643,321.24879 L 321.40893,321.17379 L 321.55893,321.03629 L 321.83393,320.89879 L 321.83393,320.89879 L 321.89643,320.74879 L 321.89643,320.74879 L 320.58393,317.04879 L 320.58393,317.04879 L 320.58393,316.83629 L 320.58393,316.83629 L 320.64643,316.62379 L 320.72143,316.42379 L 320.92143,315.99879 L 321.05893,315.64879 L 321.13393,315.51129 L 321.13393,315.43629 L 321.13393,315.43629 L 320.43393,313.76129 L 319.53393,311.93629 L 319.53393,311.93629 L 316.52143,305.99879 L 316.52143,305.99879 L 316.37143,305.99879 L 316.37143,305.99879 L 316.52143,312.28629 L 316.52143,312.28629 L 316.58393,314.32379 L 316.72143,316.28629 L 316.72143,316.28629 L 317.34643,316.76129 L 318.12143,317.18629 L 318.12143,317.18629 L 318.33393,319.28629 L 318.48393,320.47379 L 318.68393,321.24879 L 318.68393,321.24879 L 318.82143,321.38629 L 318.95893,321.44879 L 319.45893,321.52379 L 319.45893,321.52379 L 319.53393,322.22379 L 319.73393,322.92379 L 319.73393,322.92379 L 320.08393,324.61129 L 320.08393,324.61129 L 319.73393,324.67379 L 319.38393,324.67379 L 318.74643,324.81129 L 318.74643,324.81129 L 318.82143,325.72379 L 318.82143,325.72379 L 318.89643,325.79879 L 318.89643,325.79879 L 318.89643,326.34879 L 318.89643,326.91129 L 318.89643,326.91129 L 319.10893,327.82379 L 319.24643,328.31129 L 319.38393,328.73629 L 319.38393,328.73629 L 319.53393,328.79879 L 319.73393,328.93629 L 320.22143,329.14879 L 321.20893,329.36129 L 321.20893,329.36129 L 322.25893,333.56129 L 323.30893,337.76129 L 323.30893,337.76129 L 330.29643,366.29879 L 330.29643,366.29879 L 331.14643,369.86129 L 331.98393,373.49879 L 331.98393,373.49879 L 331.84643,373.57379 L 331.84643,373.57379 L 331.42143,373.78629 L 330.93393,373.92379 L 330.37143,374.13629 L 330.02143,374.27379 L 330.02143,374.27379 L 329.80893,374.89879 L 329.74643,375.26129 L 329.74643,375.61129 L 329.74643,375.61129 L 329.80893,375.67379 L 329.88393,375.88629 L 329.88393,375.88629 L 330.09643,376.17379 L 330.09643,376.17379 L 331.55893,376.23629 L 331.55893,376.23629 L 330.93393,377.07379 L 330.93393,377.07379 L 330.58393,377.63629 L 330.29643,378.12379 L 330.02143,378.67379 L 329.80893,379.31129 L 329.80893,379.31129 L 329.60893,380.01129 L 329.53393,380.71129 L 329.53393,380.71129 L 329.45893,381.34879 L 329.53393,381.91129 L 329.74643,383.08629 L 329.74643,383.08629 L 329.95893,383.78629 L 330.09643,384.34879 L 330.09643,384.34879 L 330.37143,384.89879 L 330.93393,385.74879 L 330.93393,385.74879 L 329.80893,385.18629 L 328.69643,384.49879 L 327.64643,383.78629 L 326.59643,383.08629 L 325.54643,382.32379 L 324.55893,381.54879 L 323.58393,380.71129 L 322.68393,379.87379 L 321.75893,378.96129 L 320.84643,378.04879 L 320.00893,377.14879 L 319.24643,376.17379 L 318.39643,375.18629 L 317.69643,374.13629 L 316.93393,373.08629 L 316.29643,372.03629 L 315.60893,370.92379 L 314.97143,369.78629 L 314.42143,368.61129 L 313.92143,367.48629 L 313.37143,366.29879 L 312.94643,365.03629 L 312.52143,363.84879 L 312.10893,362.59879 L 311.82143,361.33629 L 311.47143,360.07379 L 311.27143,358.73629 L 311.05893,357.42379 L 310.84643,356.08629 L 310.77143,354.74879 L 310.70893,353.42379 L 310.63393,352.02379 L 310.63393,304.38629 L 386.49643,304.38629 L 386.49643,352.02379 L 386.49643,352.02379 L 386.49643,353.42379 L 386.43393,354.82379 L 386.29643,356.14879 L 386.15893,357.48629 L 385.94643,358.88629 L 385.67143,360.14879 L 385.38393,361.46129 L 385.04643,362.73629 L 384.62143,363.98629 L 384.19643,365.24879 L 383.70893,366.51129 L 383.20893,367.69879 L 382.65893,368.88629 L 382.02143,370.01129 L 381.39643,371.19879 L 380.77143,372.31129 L 380.05893,373.36129 L 379.29643,374.41129 L 378.52143,375.46129 L 377.69643,376.43629 L 376.84643,377.42379 L 376.00893,378.39879 L 375.09643,379.31129 L 374.12143,380.21129 L 373.20893,381.06129 L 372.15893,381.91129 L 371.17143,382.67379 L 370.12143,383.43629 L 369.07143,384.13629 L 367.95893,384.83629 L 366.83393,385.47379 L 365.65893,386.09879 L 365.65893,386.09879 z" />
      <path
         id="path2890"
         style="fill:#f00000;fill-opacity:1;fill-rule:evenodd;stroke:#f00000;stroke-width:0.14999999;stroke-linecap:round;stroke-linejoin:round;stroke-miterlimit:10;stroke-dasharray:none;stroke-opacity:1"
         d="M 355.70893,375.52379 L 355.70893,375.52379 L 357.03393,374.89879 L 357.03393,374.89879 L 356.89643,374.69879 L 356.68393,374.27379 L 356.68393,374.27379 L 356.54643,373.78629 L 356.54643,373.29879 L 356.60893,372.87379 L 356.68393,372.38629 L 356.68393,372.38629 L 356.68393,371.62379 L 356.68393,370.83629 L 356.68393,370.83629 L 356.54643,370.21129 L 356.40893,369.58629 L 356.40893,369.58629 L 356.05893,368.61129 L 355.70893,367.69879 L 355.70893,367.69879 L 355.43393,367.06129 L 355.08393,366.51129 L 354.52143,365.46129 L 354.52143,365.46129 L 353.60893,363.57379 L 353.60893,363.57379 L 353.04643,362.52379 L 352.83393,362.03629 L 352.63393,361.46129 L 352.63393,361.46129 L 352.49643,360.97379 L 352.42143,360.48629 L 352.42143,360.48629 L 352.34643,359.37379 L 352.34643,359.37379 L 352.20893,356.64879 L 352.20893,356.64879 L 352.20893,355.52379 L 352.07143,354.41129 L 352.07143,354.41129 L 351.99643,354.04879 L 351.99643,354.04879 L 351.78393,353.36129 L 351.78393,353.36129 L 351.37143,352.17379 L 350.80893,350.97379 L 350.80893,350.97379 L 348.85893,346.14879 L 348.85893,346.14879 L 348.43393,346.14879 L 348.08393,346.14879 L 348.08393,346.14879 L 347.38393,348.32379 L 346.60893,350.69879 L 346.60893,350.69879 L 345.98393,352.44879 L 345.48393,354.19879 L 345.48393,354.19879 L 345.28393,355.09879 L 345.28393,355.09879 L 345.20893,355.73629 L 345.20893,356.37379 L 345.20893,356.37379 L 345.07143,359.64879 L 345.07143,359.64879 L 344.99643,360.14879 L 344.99643,360.14879 L 344.93393,360.63629 L 344.93393,360.63629 L 344.79643,361.06129 L 344.79643,361.06129 L 344.57143,361.82379 L 344.57143,361.82379 L 344.17143,362.73629 L 343.67143,363.63629 L 343.67143,363.63629 L 342.97143,364.89879 L 342.97143,364.89879 L 341.64643,366.99879 L 341.64643,366.99879 L 340.73393,368.53629 L 340.73393,368.53629 L 340.30893,369.44879 L 339.95893,370.43629 L 339.95893,370.43629 L 339.88393,370.77379 L 339.82143,371.26129 L 339.82143,372.11129 L 339.82143,372.11129 L 339.82143,373.01129 L 339.74643,373.92379 L 339.74643,373.92379 L 339.40893,374.41129 L 339.40893,374.41129 L 340.79643,375.12379 L 340.79643,375.12379 L 340.79643,373.92379 L 340.79643,373.92379 L 340.87143,373.08629 L 341.08393,372.17379 L 341.08393,372.17379 L 341.35893,371.33629 L 341.78393,370.43629 L 342.33393,369.66129 L 342.97143,368.96129 L 342.97143,368.96129 L 343.38393,368.53629 L 343.88393,368.18629 L 343.88393,368.18629 L 344.50893,367.77379 L 345.20893,367.42379 L 345.20893,367.42379 L 346.25893,367.06129 L 346.75893,366.93629 L 347.30893,366.86129 L 347.30893,366.86129 L 348.22143,366.79879 L 349.05893,366.86129 L 349.05893,366.86129 L 350.04643,366.99879 L 350.04643,366.99879 L 350.87143,367.28629 L 351.58393,367.56129 L 351.58393,367.56129 L 352.49643,368.04879 L 353.25893,368.67379 L 353.25893,368.67379 L 353.74643,369.16129 L 354.10893,369.52379 L 354.38393,370.01129 L 354.73393,370.49879 L 354.73393,370.49879 L 355.22143,371.48629 L 355.55893,372.31129 L 355.55893,372.31129 L 355.63393,372.79879 L 355.63393,372.79879 L 355.70893,373.49879 L 355.70893,374.21129 L 355.70893,375.52379 L 355.70893,375.52379 z" />
      <path
         id="path2892"
         style="fill:#f00000;fill-opacity:1;fill-rule:evenodd;stroke:#f00000;stroke-width:0.14999999;stroke-linecap:round;stroke-linejoin:round;stroke-miterlimit:10;stroke-dasharray:none;stroke-opacity:1"
         d="M 334.00893,372.17379 L 334.00893,372.17379 L 334.57143,371.68629 L 335.12143,371.19879 L 335.12143,371.19879 L 335.54643,370.43629 L 335.54643,370.43629 L 335.77143,369.86129 L 335.77143,369.86129 L 336.45893,367.97379 L 336.45893,367.97379 L 337.08393,366.14879 L 337.08393,366.14879 L 337.78393,363.71129 L 337.78393,363.71129 L 338.20893,362.31129 L 338.20893,362.31129 L 338.69643,360.48629 L 338.90893,359.51129 L 339.18393,358.59879 L 339.18393,358.59879 L 339.05893,358.18629 L 338.83393,357.68629 L 338.83393,357.68629 L 338.77143,357.19879 L 338.77143,356.77379 L 339.05893,355.87379 L 339.05893,355.87379 L 338.20893,355.79879 L 338.20893,355.79879 L 338.28393,355.59879 L 338.42143,355.31129 L 338.69643,354.82379 L 338.69643,354.82379 L 338.90893,354.47379 L 339.05893,354.04879 L 339.25893,353.22379 L 339.25893,353.22379 L 338.69643,353.14879 L 338.69643,353.14879 L 338.63393,353.07379 L 338.63393,353.07379 L 339.05893,352.44879 L 339.40893,351.82379 L 339.40893,351.82379 L 339.74643,350.97379 L 339.74643,350.97379 L 339.47143,350.91129 L 339.47143,350.91129 L 339.12143,350.62379 L 339.12143,350.62379 L 339.60893,349.57379 L 339.95893,348.67379 L 339.95893,348.67379 L 339.95893,348.38629 L 339.95893,348.38629 L 339.33393,348.24879 L 339.33393,348.24879 L 339.88393,346.84879 L 340.10893,346.08629 L 340.23393,345.58629 L 340.23393,345.58629 L 339.82143,345.58629 L 339.40893,345.52379 L 339.40893,345.52379 L 339.68393,344.88629 L 339.68393,344.88629 L 340.17143,343.63629 L 340.59643,342.37379 L 340.59643,342.37379 L 340.17143,342.31129 L 340.17143,342.31129 L 339.68393,342.02379 L 339.68393,342.02379 L 340.17143,341.32379 L 340.52143,340.54879 L 341.22143,339.01129 L 341.22143,339.01129 L 341.22143,338.87379 L 340.59643,338.67379 L 340.59643,338.67379 L 340.52143,338.59879 L 340.52143,338.59879 L 341.15893,337.76129 L 341.49643,337.26129 L 341.49643,337.26129 L 341.22143,337.12379 L 341.22143,337.12379 L 341.78393,336.28629 L 342.33393,335.44879 L 342.33393,335.44879 L 342.33393,335.23629 L 342.33393,335.23629 L 341.99643,334.53629 L 341.64643,333.83629 L 341.64643,333.83629 L 340.79643,331.94879 L 340.79643,331.94879 L 340.59643,331.24879 L 340.38393,330.54879 L 340.38393,330.54879 L 337.44643,332.36129 L 337.44643,332.36129 L 336.32143,333.07379 L 336.32143,333.07379 L 334.92143,333.83629 L 334.92143,333.83629 L 333.30893,334.61129 L 333.30893,334.61129 L 332.47143,335.03629 L 332.47143,335.03629 L 331.14643,334.47379 L 329.80893,333.91129 L 329.80893,333.91129 L 328.83393,333.42379 L 328.83393,333.42379 L 326.59643,332.36129 L 326.59643,332.36129 L 325.33393,331.66129 L 325.33393,331.66129 L 324.42143,331.17379 L 324.42143,331.17379 L 324.28393,331.03629 L 324.28393,331.03629 L 324.28393,330.41129 L 324.28393,330.41129 L 323.99643,330.19879 L 323.79643,329.98629 L 323.79643,329.98629 L 323.44643,329.98629 L 323.44643,329.98629 L 323.64643,330.97379 L 323.93393,331.94879 L 324.63393,334.96129 L 324.63393,334.96129 L 327.14643,345.23629 L 327.14643,345.23629 L 329.18393,353.49879 L 331.28393,361.74879 L 331.28393,361.74879 L 332.62143,366.99879 L 334.00893,372.17379 L 334.00893,372.17379 z" />
      <path
         id="path2894"
         style="fill:#009944;fill-opacity:1;fill-rule:evenodd;stroke:#009944;stroke-width:0.14999999;stroke-linecap:round;stroke-linejoin:round;stroke-miterlimit:10;stroke-dasharray:none;stroke-opacity:1"
         d="M 354.02143,378.12379 L 354.02143,378.12379 L 354.73393,377.48629 L 354.73393,377.48629 L 355.35893,376.99879 L 356.05893,376.66129 L 356.83393,376.31129 L 357.59643,376.09879 L 358.44643,375.94879 L 359.20893,375.88629 L 360.04643,375.94879 L 360.82143,376.09879 L 360.82143,376.09879 L 361.37143,376.31129 L 361.94643,376.58629 L 362.42143,376.93629 L 362.92143,377.28629 L 362.92143,377.28629 L 363.33393,377.63629 L 363.75893,378.04879 L 364.10893,378.47379 L 364.38393,378.89879 L 364.67143,379.38629 L 364.94643,379.87379 L 365.08393,380.43629 L 365.23393,380.92379 L 365.23393,380.92379 L 365.37143,381.62379 L 365.37143,382.24879 L 365.37143,382.87379 L 365.29643,383.58629 L 365.15893,384.21129 L 364.94643,384.76129 L 364.67143,385.39879 L 364.32143,385.96129 L 364.32143,385.96129 L 364.10893,386.44879 L 363.89643,386.93629 L 363.89643,386.93629 L 362.08393,387.63629 L 360.18393,388.33629 L 358.30893,388.89879 L 356.40893,389.32379 L 354.44643,389.67379 L 352.55893,389.94879 L 350.59643,390.08629 L 348.57143,390.16129 L 348.57143,390.16129 L 346.95893,390.08629 L 345.28393,390.01129 L 343.67143,389.81129 L 342.07143,389.58629 L 340.38393,389.24879 L 338.77143,388.89879 L 337.23393,388.41129 L 335.69643,387.84879 L 335.69643,387.84879 L 334.49643,387.42379 L 333.87143,387.22379 L 333.38393,386.93629 L 333.38393,386.93629 L 332.95893,386.44879 L 332.95893,386.44879 L 332.25893,385.61129 L 331.70893,384.69879 L 331.20893,383.72379 L 331.00893,383.22379 L 330.79643,382.67379 L 330.79643,382.67379 L 330.72143,382.03629 L 330.72143,381.27379 L 330.79643,380.49879 L 330.93393,379.87379 L 330.93393,379.87379 L 331.07143,379.31129 L 331.28393,378.89879 L 331.84643,377.98629 L 332.47143,377.22379 L 333.24643,376.51129 L 333.67143,376.23629 L 334.14643,376.02379 L 334.57143,375.81129 L 335.05893,375.61129 L 335.54643,375.46129 L 336.10893,375.38629 L 336.59643,375.32379 L 337.15893,375.32379 L 337.15893,375.32379 L 337.72143,375.38629 L 338.28393,375.52379 L 339.33393,375.88629 L 339.33393,375.88629 L 340.10893,376.17379 L 340.45893,376.31129 L 340.79643,376.51129 L 340.79643,376.51129 L 341.49643,376.99879 L 342.19643,377.56129 L 342.19643,377.56129 L 342.07143,376.17379 L 342.07143,374.62379 L 342.13393,373.84879 L 342.19643,373.16129 L 342.33393,372.46129 L 342.62143,371.74879 L 342.62143,371.74879 L 342.83393,371.26129 L 343.12143,370.77379 L 343.38393,370.34879 L 343.74643,370.01129 L 344.17143,369.58629 L 344.50893,369.29879 L 344.99643,368.96129 L 345.42143,368.74879 L 345.90893,368.53629 L 346.39643,368.32379 L 346.89643,368.18629 L 347.38393,368.04879 L 347.94643,368.04879 L 348.43393,367.97379 L 348.99643,368.04879 L 349.48393,368.11129 L 349.48393,368.11129 L 350.18393,368.26129 L 350.80893,368.39879 L 351.37143,368.67379 L 351.92143,369.09879 L 351.92143,369.09879 L 352.34643,369.37379 L 352.69643,369.72379 L 353.04643,370.14879 L 353.33393,370.57379 L 353.82143,371.41129 L 354.24643,372.38629 L 354.24643,372.38629 L 354.38393,372.94879 L 354.44643,373.57379 L 354.52143,374.13629 L 354.52143,374.76129 L 354.38393,376.02379 L 354.17143,377.14879 L 354.17143,377.14879 L 354.02143,377.63629 L 353.88393,378.04879 L 354.02143,378.12379 z" />
    </g>
  </g>
</svg>
