<?xml version="1.0" encoding="UTF-8"?>
<!DOCTYPE svg  PUBLIC '-//W3C//DTD SVG 1.0//EN'  'http://www.w3.org/TR/2001/REC-SVG-20010904/DTD/svg10.dtd'>
<svg width="687" height="768" version="1.0" viewBox="-2.3812 -2.3812 84.138 94.038" xmlns="http://www.w3.org/2000/svg">
<defs>
<clipPath id="b">
<path d="m354.48 210.24h63.71v-71.64h-63.71v71.64z"/>
</clipPath>
<clipPath id="a">
<path d="m354.48 210.24h63.71v-71.64h-63.71v71.64z"/>
</clipPath>
</defs>
<g transform="translate(-335.31 -487.72)">
<g transform="matrix(1.25 0 0 1.25 -107.92 314.34)">
<g clip-path="url(#b)">
<path d="m354.59 138.71h63.5v39.68 1.62l-0.17 1.62-0.17 1.57-0.28 1.57-0.39 1.57-0.4 1.51-0.5 1.46-0.56 1.45-0.67 1.4-0.67 1.34-0.78 1.34-0.79 1.29-0.89 1.23-0.96 1.23-1.01 1.13-1.05 1.12-1.07 1.06-1.18 0.95-1.17 0.95-1.29 0.9-1.29 0.84-1.29 0.72-1.4 0.73-1.4 0.62-1.45 0.55-1.46 0.51-1.51 0.45-1.52 0.33-1.56 0.28-1.62 0.23-1.57 0.11-1.68 0.06-1.63-0.06-1.62-0.11-1.57-0.23-1.56-0.28-1.52-0.33-1.51-0.45-1.51-0.51-1.4-0.55-1.4-0.62-1.4-0.73-1.34-0.72-1.29-0.84-1.23-0.9-2.36-1.9-1.05-1.06-1.07-1.12-1.01-1.13-0.95-1.23-0.9-1.23-0.79-1.29-0.78-1.34-0.72-1.34-0.62-1.4-0.56-1.45-0.5-1.46-0.45-1.51-0.34-1.57-0.28-1.57-0.22-1.57-0.12-1.62-0.05-1.62v-39.68z" fill-rule="evenodd"/>
</g>
<g clip-path="url(#a)" stroke-linecap="round" stroke-linejoin="round" stroke-miterlimit="10" stroke-width=".12">
<path d="m355.99 140.11h60.69v38.11 1.57l-0.11 1.57-0.21 1.51-0.29 1.51-0.34 1.46-0.39 1.45-1 2.8-0.62 1.34-0.67 1.34-0.73 1.29-0.79 1.23-0.84 1.18-0.89 1.18-0.95 1.06-1.01 1.06-1.06 1-1.12 1.02-1.12 0.89-1.24 0.84-1.22 0.79-1.24 0.73-1.35 0.66-1.34 0.62-1.34 0.56-1.45 0.45-1.41 0.44-1.45 0.34-1.51 0.28-1.51 0.17-1.57 0.11-1.57 0.06-1.57-0.06-1.51-0.11-1.51-0.17-1.52-0.28-1.45-0.34-1.45-0.44-1.41-0.45-1.39-0.56-1.35-0.62-1.29-0.66-1.28-0.73-1.23-0.79-1.18-0.84-1.12-0.89-1.13-1.02-1.06-1-1-1.06-0.96-1.06-0.89-1.18-0.84-1.18-0.79-1.23-0.73-1.29-0.66-1.34-0.63-1.34-0.55-1.4-0.45-1.4-0.45-1.45-0.33-1.46-0.22-1.51-0.23-1.51-0.11-1.57-0.06-1.57v-38.11zm37.41 65.76 0.33-0.28 0.56-0.39 0.34-0.34 0.33-0.34 0.28-0.32 0.17-0.12 0.33-0.17 0.4-0.11 0.39-0.12 0.39-0.16 0.5-0.34 0.96-0.78 0.84-0.84 0.39-0.5h0.61l0.29-0.06 0.33-0.05 0.39-0.23 0.4-0.34 0.33-0.33 0.28-0.39 0.17-0.51v-0.27-0.29l-0.06-0.61v-0.56l0.06-0.51 0.28 0.06 0.39-0.06h0.22l0.23-0.1 0.45-0.23 0.33-0.28 0.29-0.22 0.27-0.29 0.23-0.27 0.22-0.28 0.28-0.23 0.34-0.17v-0.05l-0.06-0.06-0.17-0.16-0.28-0.06h-0.28l-0.33 0.06-1.18 0.16h-0.67l-0.11-0.05 0.39-0.11 0.39-0.17 0.34-0.22 0.28-0.28 0.22-0.29 0.28-0.27 0.56-0.39 0.62-0.34-0.34-0.12-0.39-0.11-0.29-0.05-0.38 0.05-0.73 0.05h-0.39-0.39l-0.34-0.1-0.23-0.11 0.62-0.12 0.34-0.17 0.34-0.28 0.33-0.27 0.22-0.4 0.51-0.78 0.39-0.73v-0.05l-0.34-0.06-0.45 0.34-0.5 0.16-0.5 0.12h-0.56-0.28l-0.39-0.06-0.45-0.11-0.45-0.17-0.67-0.33-0.56-0.4-0.73-0.44-0.68-0.57-0.32-0.27-0.29-0.29-0.5-0.61-0.28-0.39-0.11-0.34-0.11-0.5-0.06-0.56v-0.62-1.39l-0.06-1.41h0.06l0.11 0.18 0.17 0.11 0.11 0.11 0.11 0.17 1.57 1.39 0.39 0.28 0.51 0.34 0.95 0.5 0.5 0.23 0.5 0.22 0.96 0.33 0.44 0.07 0.51 0.05 0.67 0.06 0.44-0.06 0.74-0.12 0.39-0.05 0.45-0.17 0.44-0.17 0.51-0.27 0.62-0.4 0.28-0.22 0.27-0.28 0.39-0.44 0.34-0.45 0.29-0.45 0.32-0.73 0.18-0.39 0.22-0.9 0.06-0.56 0.11-0.45v-1.18-1.84l0.06-0.89 0.1-0.95 0.06-0.39 0.17-0.46 0.34-0.84 0.38-0.77 0.4-0.79 0.39-0.5 0.28-0.57 0.28-0.55 0.22-0.62 0.12-0.61 0.06-0.62v-0.62l-0.12-0.67-0.11-0.22-0.11-0.23-0.28-0.45h-0.11l-0.23 0.73-0.22 0.73-0.68 1.12-0.73 0.95-0.32 0.45-0.9 1.29-0.4 0.67-0.27 0.72 0.05-0.44 0.05-0.45 0.29-0.61 0.34-0.62 0.78-1.18 0.67-1.06 0.73-1.06 0.05-0.17 0.06-0.28 0.11-0.34 0.11-0.45 0.06-0.89-0.06-0.89-0.05-0.4-0.12-0.39-0.16-0.28-0.18-0.28h-0.05l-0.06 0.56-0.05 0.45-0.16 0.39-0.18 0.45-0.16 0.34-0.29 0.39-0.55 0.84-1.07 1.34-0.45 0.62-0.39 0.66-0.67 1.35 0.06-0.73 0.22-0.56 0.34-0.5 0.44-0.61 1.07-1.46 0.5-0.79 0.45-0.84 0.11-0.27 0.05-0.34 0.12-0.39v-1.07l-0.12-0.67-0.21-1.12-0.17-0.28-0.12-0.11-0.05 0.23-0.06 0.33v0.39l-0.05 0.28-0.29 0.5-0.33 0.45-0.79 1.01-0.38 0.4-0.46 0.44-0.5 0.67-0.16 0.23-0.4 0.72-0.39 0.78-0.23 0.68-0.22 0.73v-0.34-0.39l0.06-0.34 0.05-0.27 0.17-0.57 0.23-0.67 0.22-0.56 0.56-1.06 1.12-1.85 1.06-1.84 1.34-2.41 0.57-1.18 0.56-1.11 0.44-1.12 0.4-1.07 0.33-1.01 0.29-1.01 0.16-1.11 0.06-0.56v-0.51l-0.06-0.5-0.11-0.45-0.23-0.56-0.28-0.51-0.33-0.55-0.39-0.45-0.39-0.39-0.39-0.28-0.29-0.11-0.39-0.17-0.45-0.11-0.5-0.12h-0.45l-0.44 0.06-0.4 0.12-0.33 0.11-0.67 0.33-0.46 0.34-0.95 0.95-0.16-0.45-0.11-0.22-0.17-0.28-0.23-0.17-0.22-0.17-0.29-0.11-0.27-0.06-0.39-0.05-0.34 0.05h-0.45l-0.22 0.06-0.22 0.11-0.4 0.22-0.28 0.34-0.22 0.45-0.17 0.44-0.06 0.45v0.39l0.06 0.23 0.12 0.22 0.27 0.45 0.23 0.28 0.28 0.28-0.23 0.22-0.17 0.23-0.16 0.33-0.11 0.34-0.06 0.33v0.34 0.28l0.11 0.33 0.17 0.29 0.17 0.22 0.22 0.17 0.23 0.17 0.44 0.22 0.45 0.11h0.39 0.45l0.39-0.16 0.28-0.17 0.51-0.51 0.22-0.27 0.17-0.34 0.61 0.16 0.34 0.06h0.34l0.45-0.11 0.33-0.11 0.28-0.17 0.28-0.28 0.22-0.28 0.12-0.23 0.11-0.22 0.05-0.33 0.06-0.4v-0.44l-0.11-0.45-0.11-0.39-0.23-0.34-0.16-0.11-0.23-0.17-0.22-0.06-0.17-0.05 0.28-0.22 0.28-0.18 0.39-0.11h0.34 0.33l0.34 0.11 0.34 0.18 0.27 0.27 0.12 0.17 0.05 0.17 0.11 0.39 0.06 0.62v0.28 0.28l-0.06 0.67-0.16 0.78-0.29 0.9-0.33 0.9-0.4 1-0.89 2.07-1.06 2.18-0.9 1.63-0.78 1.4-0.39 0.72-0.39 0.68-0.45 0.84-0.23 0.39-0.22 0.45-0.39 0.95-0.23 0.78-0.16 0.89v1.02 0.78l0.05 0.56 0.11 0.55 0.17 0.73 0.17 0.34 0.11 0.28 0.23 0.62 0.27 0.56 0.34 0.56 0.34 0.5 0.95 1.51 0.28 0.51 0.28 0.5 0.22 0.5 0.23 0.62 0.39 0.84 0.11 0.39 0.11 0.45v0.22 0.33l-0.05 0.63-0.11 0.66-0.18 0.56-0.16 0.39-0.22 0.39-0.23 0.29-0.23 0.22-0.44 0.34-0.4 0.17-0.66 0.28-0.45 0.05-0.45 0.06h-0.45l-0.44-0.11-0.51-0.12-0.51-0.11-0.66-0.28-0.57-0.33-0.5-0.39-1-0.79-0.4-0.39-0.73-0.68-0.61-0.78-0.34-0.5-0.28-0.45-0.5-0.89-0.34-0.62-0.23-0.67-1-2.46-0.28-0.79-0.17-0.78h0.28l0.22 0.11 0.29 0.12 0.66 0.11 0.79 0.05-0.45-0.56-0.34-0.56-0.11-0.33-0.11-0.39-0.22-1.13-0.12-1.06-0.05-0.72 0.11-0.68 0.12-0.67h0.05l0.22 0.22 0.34 0.11 0.39 0.11 0.39 0.07h0.34 0.17l0.17-0.07-0.23-0.22-0.16-0.22-0.23-0.56-0.39-0.79-0.17-0.44-0.11-0.45v-0.45-0.44l0.06-0.45 0.05-0.45 0.28-0.9 0.33-0.83h0.06l0.23 0.11 0.22 0.11 0.17 0.05h0.16l0.4-0.11 0.33-0.16 0.28-0.23v-0.16l-0.17-0.29-0.21-0.28-0.12-0.27-0.06-0.23-0.22-0.79-0.12-0.83v-0.79-0.78l0.12-1.68 0.11-1.56-0.05-0.62-0.06-0.9-0.06-0.44-0.06-0.45-0.32-1.18-0.23-0.61-0.22-0.51-0.12-0.22 0.23-0.28 0.28-0.56 0.16-0.51 0.11-0.5 0.06-0.56v-0.39l-0.06-0.28-0.11-0.06-0.55-0.16-0.62-0.11h-0.34-0.34-0.5l-0.34 0.11-0.33 0.16-0.39 0.28-0.34-0.05-0.34-0.11-0.61-0.23-1.17-0.28-1.29-0.16-1.01-0.06h-1.01-0.45-0.39l-0.61 0.11-0.57 0.23-0.39 0.39-0.05 0.22-1.68 0.28-1.06 0.17-0.57 0.17-0.16 0.27 0.05 0.45 0.11 0.23 0.12 0.22 0.16 0.23 0.06 0.16 0.05 0.56 0.06 0.62 0.12 0.33 0.16 0.34 0.34 0.61h0.5l0.45-0.05 0.11 0.23v0.05l-0.45 0.06h-0.61-0.68l-0.89-0.06h-0.45l-0.45-0.11-0.39-0.17-0.39-0.22-0.22-0.23-0.23-0.22-0.17-0.23-0.11-0.33-0.16-0.29-0.11-0.33v-0.28-0.39l0.05-0.28 0.22-0.56v-0.16h-0.27-0.29l-0.5 0.11-0.17 0.05-0.22 0.17-0.23 0.22-0.16 0.34-0.23 0.5-0.17 0.56-0.05 0.51 0.05 0.5 0.11 0.34 0.11 0.39 0.18 0.33 0.22 0.28 0.28 0.22 0.22 0.18 0.22 0.21 0.23 0.06 0.22 0.06 0.68 0.17 0.61 0.11 0.67 0.05h0.74l2.68-0.22-0.06 0.22h-0.44l-0.29 0.12v0.73 1.06 0.34l0.12 0.22 0.22 0.22 0.17 0.06 0.17 0.05 0.34 0.06 0.33-0.06 0.33-0.11 0.34-0.11h0.28 0.28l-0.39 0.22-0.56 0.34-0.95 0.5-0.9 0.5-0.89 0.57-0.9 0.5-0.84 0.62-1.51-1.18-2.18-1.56-5.04-3.59-2.19-1.79-0.06-0.5-0.05-0.57-0.22-0.66-0.34-0.73-0.45-0.73-0.22-0.28-0.28-0.22-0.56-0.34-0.11-0.5-0.11-0.22-0.12-0.23-0.28-0.17-0.56-0.22-0.5-0.17h-0.56-0.57l-0.11 0.06v0.11 0.05l0.11 0.06 0.4 0.56 0.39 0.61v0.18l-0.06 0.05-0.05 0.11-0.06 0.23-0.44-0.17-0.29-0.06h-0.78l-0.11-0.22-0.39-0.33-0.4-0.23-0.5-0.17-0.44-0.12h-0.34-0.28l-0.12 0.12 0.17 0.73 0.06 0.33 0.11 0.34 0.34 0.56 0.22 0.28 0.34 0.22 0.17 0.62 0.22 0.39 0.11 0.28 0.05 0.17-0.11 0.05-0.1 0.12-0.11 0.06-0.12 0.05-0.22 0.05-0.23-0.05-0.16-0.17-0.17-0.17-0.34-0.39-0.23-0.17-0.21-0.06h-0.23l-0.06 0.34v0.39l0.06 0.45 0.05 0.28 0.23 0.34 0.28 0.39 0.39 0.28 0.33 0.22 0.57 0.17 0.17 0.28 0.21 0.28 0.29 0.28 0.39 0.22 0.39 0.17 0.34 0.17 0.27 0.06 0.34 0.05h0.62v0.45l-0.34 0.17-0.55 0.17-0.57 0.11-0.39 0.05-0.39-0.11 0.06 0.34 0.16 0.34 0.22 0.27 0.68 0.34 0.56 0.16 0.28 0.06h0.23l0.27-0.06 0.23-0.05 0.28-0.11 0.22-0.17 0.39 0.11 0.67 0.34 0.51 0.11 0.45 0.05 0.45 0.06 0.5 0.17 0.56 0.33 0.22 0.17 0.17 0.22-0.22 0.07-0.62 0.16-0.67 0.06-0.34 0.05v0.17l0.17 0.34 0.28 0.39 0.23 0.22 0.27 0.23 0.62 0.28 0.39 0.16 0.34 0.12 1.17 0.33 0.34 0.17-0.73 0.16-0.39 0.12-0.39 0.06h-0.22-0.29v0.11l0.23 0.33 0.28 0.4 0.28 0.28 0.34 0.27 0.33 0.18 0.4 0.16 0.78 0.23 0.78 0.22 0.06 0.05-0.84-0.05-0.4 0.05-0.27 0.06 0.44 0.33 0.45 0.34 0.39 0.5 0.4 0.45 0.21 0.23 0.23 0.16 0.29 0.11 0.27 0.12 0.39 0.11-0.39 0.62-0.22 0.33-0.23 0.28-0.61 0.73-0.34 0.28-0.39 0.22-0.39 0.17-0.34 0.11v0.12l0.39 0.11 0.4 0.11 0.56 0.05 0.56 0.06-2.02 1.01-1.79 0.73-1.74 0.72-0.83-0.33-0.46-0.17-0.56-0.11h-0.5-0.5l-0.39-0.28-0.4-0.17h-0.28-0.34l-0.32 0.06-0.29 0.11-0.5 0.33-0.62 0.62h0.39l0.23 0.06 0.16 0.05 0.57 0.39 0.5 0.45v0.22l-0.44-0.11-0.4-0.05h-0.96-0.38l-0.34 0.11-0.39 0.11-0.51 0.28-0.22 0.23-0.16 0.22-0.68 0.06-0.34 0.05-0.27 0.06-0.28 0.22-0.29 0.28-0.27 0.34-0.17 0.22-0.17 0.39-0.12 0.28-0.05 0.28 1.29-0.11 1.35-0.06-0.4 0.45-0.56 0.56-0.61 0.51-0.45 0.39-0.28 0.56-0.23 0.44v0.12l0.17 0.06 0.23 0.05 1.5 0.06 0.29-0.06 0.34-0.11 0.27-0.12 0.34-0.05 0.23 0.11h0.27 0.57v0.17l-0.73 0.84-0.51 0.45-0.17 0.22-0.11 0.22 0.68 0.06h0.66 0.34l0.34-0.06 0.34-0.11 0.27-0.17 0.28-0.16 0.11-0.18 0.12-0.11 0.16-0.28 0.4-0.11 0.61-0.22 0.62-0.39 0.56-0.45 0.28-0.28 0.67-0.68 0.28-0.21 0.28-0.23 0.67-0.28 0.67-0.22 1.06-0.29v0.12l-0.38 0.5-0.17 0.29-0.11 0.22 0.95 0.05h0.44l0.45-0.11 0.39-0.23 0.4-0.22 0.78-0.56 0.73-0.61-0.17 0.33-0.17 0.34-0.23 0.33-0.21 0.23-0.45 0.39h0.61l0.62-0.05 0.33-0.11 0.34-0.12 0.5-0.22 0.4-0.17 0.72-0.67 0.45-0.34 0.5-0.34h0.06l-0.17 0.4-0.27 0.33-0.51 0.67h0.39l0.39-0.05 0.51-0.06 0.5-0.05 0.51-0.17 0.45-0.23 0.5-0.39 0.44-0.45 1.01-0.72 0.06 0.17-0.06 0.16-0.22 0.34-0.68 0.78-0.11 0.17-0.11 0.23 0.34-0.06 0.28-0.12 0.67-0.27 0.67-0.28 0.62-0.23 0.28-0.05h0.22l0.17 0.22 1.12 1.29 1.23 1.4v0.22l-2.68-0.78-0.18 0.05-0.22 0.68 0.67 0.45 0.68 0.44-1.4 0.45-1.12 0.34-1.74 0.61-1.68 0.73-0.73 0.28-0.45 0.34-0.28 0.33-0.22 0.39-0.11 0.23-0.05 0.33-0.12 0.73-0.06 1.29-0.16 5.87-0.11 0.23-0.46 0.33-0.5 0.22-1.18 0.51-0.84 0.34-0.83 0.27-1.35 0.4-0.16-0.11-0.23-0.11-0.39-0.18-0.33-0.1-0.73-0.11h-0.68l-0.61 0.11-0.39 0.1-0.34 0.12-0.45 0.28-0.39 0.28-0.22 0.16-0.17 0.23-0.17 0.22-0.11 0.17-0.22 0.06-0.23 0.05-0.22 0.17-0.23 0.23-0.28 0.21-0.22 0.29-0.16 0.28-0.12 0.22-0.06 0.28v0.34l-0.05 0.73 0.05 0.11 0.18-0.05 0.27-0.23 0.23-0.22 0.5-0.28 0.5-0.23h0.39l0.06-0.06v0.23l-0.06 0.22-0.22 0.12-0.11 0.16-0.4 0.45-0.16 0.28-0.11 0.22-0.05 0.39-0.06 0.5 0.06 0.52 0.05 0.21 0.11 0.18 0.67-0.62 0.22-0.11 0.29-0.18 0.55-0.33 0.29-0.11h0.33v0.34l-0.06 0.33-0.16 0.34-0.11 0.11-0.06 0.23-0.05 0.27v0.34 0.39l0.05 0.29 0.11 0.27 0.22 0.39h0.12l0.39-0.5 0.39-0.45 0.9-0.84 0.61-0.11 0.34-0.12 0.28-0.11 0.56-0.28 0.28-0.22 0.22-0.23h0.17l0.11 0.06 0.11 0.85 0.06 0.84h0.23l0.89-0.45 0.28-0.23 0.11-0.11 0.11-0.17 0.18-0.27 0.05-0.34v-0.39l0.27-0.23 0.29-0.28 0.23-0.28 0.22-0.39 0.5-0.67 0.62-0.62 0.05 0.06 0.06 0.34 0.05 0.33 0.12 0.22 0.17 0.28 0.16 0.23 0.17 0.17 0.28 0.16 0.23 0.11 0.28 0.06h0.27l-0.22-0.56-0.05-0.27v-0.18-0.22l0.11-0.23 0.27-0.55 0.06 0.05v0.06l0.06 0.11 0.34 0.39 0.33 0.28 0.39 0.23 0.23 0.16h0.45 0.1l-0.05-0.16-0.05-0.17-0.06-0.5v-0.45l0.06-0.18 0.05-0.1 0.34 0.22 0.34 0.17 0.55 0.05 0.56 0.06 0.57-0.17 0.27-0.11-0.06-0.12-0.78-0.78-0.22-0.56-0.17-0.61 0.06-0.44v-0.63l0.11-0.73 0.22-1.67 0.39-1.68 0.18-0.67 0.21-0.62 0.23-0.34 0.34-0.44 0.33-0.28 0.34-0.23 1.68-1 1.34-0.78 0.45-0.23 0.44-0.22 0.06 0.05 0.06 1.74 0.06 0.84 0.05 0.89 0.11 0.34 0.12 0.34 0.33 0.67 0.11 0.17 0.12 0.16 0.11 0.23 0.44 0.39 0.45 0.39 1.01 0.72 1.01 0.79 1.34 0.84 1.68 1.06 1.12 0.67 0.56 0.34 0.5 0.39 0.12 0.57 0.05 0.55 0.06 1.01 0.05 0.95-0.05 2.02-0.39 0.11h-0.4-0.39-0.73-0.78l-0.72 0.11-0.51 0.17-0.44 0.17-0.63 0.34-0.55 0.44-0.18 0.22-0.21 0.28-0.23 0.11-0.22 0.11-0.28 0.18-0.22 0.21-0.45 0.57-0.28 0.45-0.23 0.67-0.17 0.67-0.05 0.28 0.05 0.22 0.17-0.05 0.11-0.06 0.12-0.05 0.05-0.12 0.56-0.22 0.39-0.16 0.28-0.06 0.29-0.06-0.06 0.12-0.12 0.05-0.22 0.33-0.17 0.34-0.16 0.44-0.11 0.45-0.07 0.51v0.45l0.4-0.11 0.56-0.18 0.73-0.44 0.67-0.39h0.23l0.16 0.1 0.05 0.18v0.22l-0.1 0.28-0.17 0.5-0.06 0.28v0.29l0.12 0.27 0.11 0.17zm-6-57.53 0.28 0.06 0.23 0.16 0.16 0.23 0.11 0.22 0.18 0.33 0.05 0.34-0.89-0.05h-0.9l0.06-0.23 0.16-0.45 0.17-0.22 0.17-0.23 0.22-0.16zm-0.61 2.63 0.67 0.05 0.78 0.22-0.17 0.28-0.16 0.11-0.17 0.07-0.51 0.11-0.28-0.51-0.16-0.33z" fill="#fcdb00" fill-rule="evenodd" stroke="#fcdb00"/>
<path d="m407.56 150.18h0.22l0.17-0.11 0.12-0.06 0.11-0.11 0.05-0.11v-0.11l-0.05-0.28-0.11-0.17-0.12-0.11-0.17-0.06-0.16-0.05-0.11-0.17-0.17-0.17-0.17-0.11h-0.17-0.17l-0.16 0.11-0.12 0.12-0.05 0.16v0.17 0.17l0.05 0.16 0.17 0.12h0.17l0.28 0.06 0.06 0.27 0.16 0.17 0.17 0.11zm-1.4-0.78 0.05-0.28 0.06-0.28 0.12-0.23 0.16-0.21 0.23-0.12 0.22-0.17 0.23-0.05 0.28-0.06 0.27 0.06 0.29 0.05 0.22 0.17 0.17 0.12 0.16 0.21 0.18 0.23 0.05 0.28v0.28 0.23l-0.05 0.27-0.18 0.23-0.16 0.22-0.17 0.11-0.22 0.17-0.29 0.05-0.27 0.06-0.28-0.06-0.23-0.05-0.22-0.17-0.23-0.11-0.16-0.22-0.12-0.23-0.06-0.27-0.05-0.23z" fill="#f00000" stroke="#f00000"/>
<path d="m404.37 151.3 0.05-0.45 0.23-0.06h0.11l0.06-0.11 0.1-0.1 0.06-0.18v-0.11l-0.06-0.16-0.1-0.17-0.11-0.11-0.17-0.11h-0.17l-0.17 0.05-0.22 0.22-0.06 0.12-0.05 0.27-0.17 0.06-0.17 0.12-0.11 0.1-0.06 0.11-0.06 0.18v0.11l0.12 0.28 0.16 0.16 0.18 0.06 0.16 0.05 0.17-0.05 0.28-0.28zm-1.45-0.56v-0.28l0.11-0.22 0.11-0.23 0.16-0.22 0.17-0.16 0.29-0.12 0.22-0.06 0.28-0.05 0.28 0.05 0.22 0.06 0.22 0.12 0.23 0.16 0.17 0.22 0.11 0.23 0.11 0.22v0.28 0.28l-0.11 0.28-0.11 0.22-0.17 0.18-0.23 0.16-0.22 0.17-0.22 0.06h-0.28-0.28l-0.22-0.06-0.29-0.17-0.17-0.16-0.16-0.18-0.11-0.22-0.11-0.28v-0.28z" fill="#f00000" stroke="#f00000"/>
<path d="m404.48 148.06 0.12-0.06 0.11-0.05 0.11-0.23 0.05-0.17-0.05-0.17-0.17-0.16-0.17-0.18h-0.28l-0.22-0.39-0.17-0.11h-0.17-0.17l-0.17 0.06-0.11 0.17-0.11 0.16v0.17l0.06 0.17 0.05 0.11 0.11 0.11 0.23 0.06h0.28l0.11 0.28 0.17 0.17 0.17 0.11 0.22-0.05zm-1.74-0.73v-0.29l0.12-0.27 0.11-0.23 0.17-0.16 0.16-0.17 0.23-0.11 0.28-0.11h0.28 0.28l0.23 0.11 0.22 0.11 0.22 0.17 0.17 0.16 0.11 0.23 0.06 0.27 0.05 0.29-0.05 0.28-0.06 0.22-0.11 0.23-0.17 0.22-0.22 0.17-0.22 0.11-0.23 0.05-0.28 0.06-0.28-0.06-0.28-0.05-0.23-0.11-0.16-0.17-0.17-0.22-0.11-0.23-0.12-0.22v-0.28z" fill="#f00000" stroke="#f00000"/>
<path d="m405.66 149.57-0.06-0.62v-0.45l-0.34 0.29-0.22 0.11-0.17 0.05 0.23 0.11 0.22 0.12 0.34 0.39z" fill="#f00000" fill-rule="evenodd" stroke="#f00000"/>
<path d="m401.46 199.38v-0.5-0.5l0.05-0.96 0.17-0.67 0.06-0.57 0.05-0.5 0.29 0.17 0.27 0.12 0.28 0.05h0.23 0.28l0.28-0.11 0.28-0.12 0.28-0.16 0.22-0.23h-0.67-0.34-0.33l-0.56-0.22-0.17-0.17-0.34-0.44-0.05-0.28-0.06-0.29-0.05-0.55 0.16 0.16 0.17 0.12 0.17 0.06 0.17 0.05 0.44-0.05 0.45-0.12 0.34-0.11 0.23-0.22 0.22-0.17-0.73-0.06h-0.33l-0.34-0.05-0.28-0.11-0.28-0.18-0.28-0.22-0.17-0.33-0.11-0.18-0.11-0.22v-0.17-0.16-0.23l0.61 0.06 0.28 0.06 0.68-0.12 0.33-0.17 0.28-0.21 0.17-0.18h-0.84l-0.45-0.05-0.39-0.06-0.9-0.28-0.56-0.22-0.55-0.34-1.02-0.67-0.61-0.5-0.62-0.51-0.5-0.56-0.28-0.33-0.17-0.28-0.34-0.61-0.11-0.45-0.05-0.62-0.06-1.07-0.11-1.9-0.12-1.01-0.05-0.5-0.11-0.39-0.28-0.72-0.28-0.63-0.4-0.55 0.06-0.28 0.06-0.11 0.06-0.06 0.39 0.34 0.27 0.33 0.46 0.56 1 1.4 1.07 1.07 0.56 0.5 0.55 0.5 0.45 0.34 0.56 0.34 0.84 0.5 0.51 0.22 0.61 0.22 0.79 0.17 0.84 0.11h0.67l0.61-0.06 0.62-0.16 0.67-0.23 0.45-0.22 0.45-0.28 0.62-0.45 0.5-0.5 0.23-0.28 0.16-0.33 0.34-0.73 0.22-0.79 0.17-0.83 0.06-0.84 0.05-0.84 0.05-0.79-0.05-0.62v-0.61l-0.05-0.67 0.1-0.73 0.17-0.62 0.12-0.55 0.28-0.68 0.33-0.66 0.68-1.13 0.67-1.12 0.27-0.61 0.23-0.62 0.17-0.61 0.05-0.62-0.45 0.73-0.39 0.67-0.89 1.17-0.84 1.18-0.11 0.17-0.12 0.22-0.22 0.51-0.22 0.44-0.12 0.39-0.05 0.39-0.06 0.84-0.05 1.02-0.06 0.05-0.51-0.89-0.5-1.02-0.05-0.39-0.06-0.39v-0.27l0.06-0.34 0.11-0.56 0.17-0.56 0.16-0.33 0.18-0.29 0.38-0.78 0.46-0.79 0.55-0.78 0.56-0.78 0.34-0.67 0.34-0.62 0.16-0.56-0.22 0.22-0.11 0.17-0.57 0.67-0.5 0.68-0.84 1.17-0.39 0.62-0.5 0.95-0.45 0.9-0.12 0.44-0.11 0.29-0.05 0.89v0.5l-0.22-0.22-0.23-0.39-0.23-0.45-0.16-0.51-0.11-0.44v-0.34-0.56l0.05-0.56 0.17-0.56 0.23-0.5 1.06-1.52 1.06-1.45 0.23-0.44 0.27-0.62 0.23-0.67 0.11-0.45v-0.34l-0.78 0.9-0.68 0.73-0.33 0.34-0.28 0.38-0.39 0.51-0.28 0.5-0.51 0.95-0.27 0.57-0.17 0.55-0.11 0.62-0.06 0.5v0.84 0.33l-0.34-0.5-0.33-0.61-0.23-0.62-0.11-0.61v-0.62-0.33-0.28l0.06-0.4 0.11-0.33 0.11-0.4 0.28-0.61 0.28-0.56 0.51-1.12 0.61-1.06 1.01-1.79 0.84-1.52 0.95-1.78 0.95-1.91 0.79-1.9 0.39-0.89 0.27-0.84 0.18-0.73 0.11-0.68 0.05-0.66 0.06-0.62-0.06-0.56-0.16-0.62-0.23-0.39-0.16-0.34-0.4-0.5-0.17-0.17-0.27-0.17-0.51-0.33-0.33-0.17-0.45-0.11-0.29-0.06h-0.27l-0.57 0.11-0.5 0.12-0.39 0.17-0.39 0.27-0.45 0.28-0.78 0.68-0.06 0.22h0.17l0.11-0.11 0.39-0.06h0.34l0.17-0.17 0.16-0.17 0.45-0.28 0.5-0.22 0.51-0.11 0.51 0.06 0.5 0.11 0.44 0.16 0.34 0.28 0.29 0.29 0.21 0.39 0.17 0.34 0.12 0.27 0.05 0.34 0.06 0.28-0.06 0.67-0.05 0.73v0.44l-0.12 0.45-0.33 1.07-0.51 1.23-0.5 1.23-1.12 2.24-0.67 1.23-1.18 2.24-1.23 2.24-0.5 0.89-0.28 0.51-0.23 0.56-0.28 0.61-0.16 0.56-0.11 0.56-0.12 0.62v0.84l0.06 0.78 0.11 0.73 0.22 0.72 0.28 0.85 0.28 0.72 0.4 0.62 0.44 0.67 0.62 1.06 0.67 1.07 0.22 0.5 0.29 0.56 0.39 0.95 0.27 0.84 0.12 0.44 0.06 0.46v0.45 0.56l-0.11 0.61-0.23 0.67-0.28 0.73-0.17 0.27-0.17 0.23-0.28 0.29-0.28 0.27-0.39 0.28-0.39 0.23-0.45 0.16-0.45 0.11-0.45 0.12-0.44 0.05h-0.51l-0.44-0.05-0.62-0.12-0.56-0.16-0.79-0.34-0.55-0.28-1.18-0.72-0.56-0.46-0.5-0.44-0.51-0.45-0.5-0.5-0.4-0.45-0.33-0.5-0.67-0.95-0.45-0.9-0.33-0.62-0.9-2.46-0.39-1.23-0.23-0.95-0.27-0.95-0.46-0.51-0.44-0.67-0.34-0.67-0.12-0.34-0.05-0.33-0.33 0.22-0.56 0.34-0.45 0.22-0.28 0.11-0.28 0.12-0.45 0.05-0.45 0.06h-0.44l-0.4-0.06-0.5-0.11-1.12-0.17-0.84-0.17 0.61-0.22 0.34-0.11 0.39-0.23 0.51-0.33 0.44-0.39 0.73-0.73-0.05-0.06-0.57 0.34-0.55 0.34-0.51 0.22-0.61 0.23-0.67 0.16-0.79 0.11h-0.73l-0.78-0.11-0.51-0.11-0.39-0.11-0.84-0.23 0.56-0.33 0.73-0.51 0.34-0.22 0.33-0.28 0.23-0.23 0.11-0.28-0.67 0.39-0.73 0.34-0.78 0.28-0.68 0.11-0.94 0.12h-0.91l-0.89-0.06-0.73-0.11-0.44-0.06v-0.16l0.44-0.17 0.96-0.62 0.5-0.39 0.34-0.28 0.39-0.5 0.11-0.12-0.17 0.06-0.28 0.17-0.67 0.33-0.45 0.22-0.51 0.18-0.44 0.11-0.5 0.11-0.79 0.05-0.17 0.17-0.28 0.17-2.63 1.35-0.95 0.39-1.01 0.39-0.84 0.39-0.78 0.33-0.23 0.06-0.22-0.06-0.28-0.05-0.11-0.11-0.84-0.34-0.4-0.11-0.44-0.06-0.34 0.06-0.17 0.06-0.22 0.05-0.22 0.11-0.17 0.17-0.12 0.11-0.11 0.22v0.23l0.06 0.17 0.17 0.11 0.22 0.11 0.5 0.11 0.56 0.11-0.33 0.12-0.28 0.11-0.28 0.06-1.46-0.11-0.89-0.06h-0.45-0.39l-0.34 0.11-0.28 0.11-0.33 0.23-0.23 0.22-0.17 0.17-0.11 0.17v0.22 0.28l0.06 0.12 0.11 0.11 0.56 0.1 0.28 0.06-0.78 0.78-0.17 0.34-0.12 0.17-0.05 0.28-0.05 0.34 0.05 0.16 0.05 0.17 0.12 0.17 0.17 0.11 0.34 0.17 0.16 0.06h0.28l0.51-0.06 0.55-0.11 0.45-0.12-0.22 0.34-0.11 0.34v0.16 0.12l0.11 0.11 0.16 0.11h0.11 0.18l0.39-0.05 0.27-0.11 0.4-0.23 0.33-0.22 0.4-0.34 0.33-0.34 0.67-0.73 0.46-0.33 0.5-0.28 0.56-0.28 0.55-0.28 1.18-0.39 1.12-0.28 0.45-0.11 0.45-0.06-0.45 0.78-0.5 0.79h0.16 0.17l0.4-0.17 0.72-0.45 0.34-0.28 0.34-0.22 0.61-0.33 0.67-0.23 0.73-0.17-0.28 0.51-0.28 0.72-0.28 0.56 0.51-0.34 0.21-0.22 0.68-0.5 0.67-0.51 0.45-0.22 0.56-0.28 0.56-0.16 0.28-0.06h0.23l0.05 0.11-0.23 0.39-0.22 0.4-0.33 0.72 0.39-0.11 0.45-0.23 0.27-0.22 0.28-0.22 0.34-0.34 0.56-0.39 0.73-0.34 0.39-0.16 0.34-0.12 0.39-0.05h0.34l-0.12 0.28-0.22 0.56-0.12 0.28 0.46-0.06 0.78-0.05 0.45-0.06 0.5-0.11 0.4-0.17 0.38-0.23 0.34-0.27 0.34-0.28 0.22 0.05-0.11 0.28-0.28 0.51-0.28 0.33-0.17 0.17-0.17 0.11-0.27 0.17-0.23 0.06v0.1l0.84 1.01 0.78 1.01 1.24 1.4 0.33-0.39 0.62-0.56h0.17l-0.23 0.73-0.17 0.39-0.11 0.33-0.11 0.45v0.39 0.73 0.51l0.05 0.56v1.78 1.13l0.06 1.06 0.05 0.61 0.06 0.62 0.12 0.44 0.16 0.57 0.28 0.5 0.22 0.45 0.4 0.39 0.44 0.34 0.79 0.67 0.9 0.61 1.74 1.13 2.12 1.34 0.61 0.39 0.62 0.39 0.4 0.28 0.33 0.33 0.12 1.8v1.17l0.05 1.12v0.89 0.96l-0.05 0.11-0.18 0.17-0.27 0.11-0.23 0.06-0.5 0.06h-0.51-0.39l-0.45-0.06h-0.39l-0.73 0.06-0.67 0.1-0.28 0.11-0.23 0.17-0.44 0.23-0.29 0.22-0.21 0.28-0.29 0.39-0.11 0.28-0.05 0.29v0.27l0.16-0.11 0.18-0.23 0.21-0.22 0.34-0.23 0.34-0.16 0.5-0.28 0.17-0.06 0.23-0.05 0.16 0.05 0.17 0.06 0.51 0.34-0.29 0.05h-0.27l-0.45 0.17-0.46 0.22-0.5 0.29-0.16 0.21-0.18 0.23-0.21 0.34-0.06 0.16-0.05 0.23v0.34l0.05 0.11 0.06 0.16 0.21 0.23 0.18 0.11 0.16 0.11h0.29l0.27-0.5 0.34-0.5 0.23-0.34 0.21-0.16 0.23-0.12 0.22-0.06h0.18l0.39-0.05h0.33v0.05l-0.17 0.18-0.16 0.1-0.34 0.17-0.34 0.28-0.39 0.45-0.16 0.28-0.11 0.22v0.23l0.05 0.16 0.27 0.06 0.29 0.11 0.34-0.06h0.39l0.27-0.11 0.34-0.11 0.62-0.39 0.61-0.5 0.51-0.39 0.33-0.4 0.34-0.44 0.28-0.45 0.17-0.23 0.17-0.11 0.27-0.17h0.11 0.23l0.39 0.06h0.22l0.23-0.06 0.28-0.06 0.17-0.16 0.45-0.39z" fill="#f00000" fill-rule="evenodd" stroke="#f00000"/>
<path d="m371.78 195.57 0.11-0.5 0.12-0.28 0.22-0.34 0.22-0.33 0.22-0.22 0.68-0.34 0.34-0.06h0.33l-0.89 0.84-0.23 0.23-0.17 0.22-0.11 0.22v0.34 0.17l0.05 0.11 0.18 0.11 0.16 0.05 0.23-0.05 0.22-0.06 0.34-0.22 0.16-0.06 0.23-0.16 0.34-0.4 0.27-0.39 0.28-0.39 0.34-0.39 0.22-0.33 0.34-0.28 0.44-0.29 0.46-0.16 0.56-0.12-0.11 0.46v0.44 0.4l0.16 0.44 0.06-0.28 0.16-0.39 0.23-0.34 0.17-0.27 0.22-0.29 0.34-0.23 0.28-0.16v0.22l0.06 0.28v0.29l0.11 0.28 0.27 0.33 0.18 0.17 0.16-0.57 0.17-0.39 0.22-0.33 0.34-0.45 0.39 0.45 0.23 0.22 0.16 0.11 0.22 0.12h0.34l-0.34-0.39-0.11-0.18-0.16-0.21-0.05-0.34-0.12-1 0.06-0.51 0.22-1.9 0.45-2.3 0.28-1.34 0.16-0.51 0.11-0.33 0.29-0.28 0.28-0.28 0.73-0.45 1.56-0.96 1.18-0.66 1.18-0.68 0.39-0.22 0.33-0.33 0.06-0.39v-0.34l-0.06-0.34-0.11-0.39-0.22-0.22-0.9-0.73-1.12-0.73-0.56 0.17-0.67 0.17-1.52 0.44-1.45 0.57-1.68 0.56-0.84 0.33-0.34 0.17-0.33 0.23-0.28 0.27-0.23 0.45-0.05 0.33-0.05 0.4v0.5l-0.18 2.85v2.19l-0.05 1.28-0.06 0.45-0.05 0.28-0.34 0.45-1.29 0.73-0.95 0.39-2.07 0.78-0.5 0.23-0.45 0.11-0.28-0.06-0.45-0.11-0.34-0.17-0.27-0.16-0.34-0.12-0.34-0.05-0.33-0.06h-0.28l-0.62 0.11-0.5 0.18-0.68 0.44-0.22 0.28-0.39 0.5-0.28 0.56 0.11 0.17 0.06 0.05 0.06 0.07 0.11 0.05 0.11-0.05h0.22l0.34-0.4 0.39-0.33 0.51-0.23 0.61-0.22 0.34-0.06h0.28l0.27 0.06 0.23 0.05-0.23 0.11-0.22 0.11-0.67 0.29-0.5 0.22-0.34 0.22-0.23 0.23-0.38 0.45-0.23 0.22-0.11 0.28-0.12 0.28-0.05 0.22 0.11 0.23 0.17 0.16 0.34 0.12h0.16 0.23l0.28-0.12 0.22-0.44 0.28-0.4 0.34-0.39 0.22-0.11 0.23-0.11 0.27-0.12h0.29 0.5l-0.45 0.29-0.89 0.89-0.29 0.39-0.16 0.34-0.12 0.34-0.05 0.39 0.05 0.22 0.12 0.17 0.11 0.11 0.11 0.06 0.28 0.05h0.28l0.22-0.05 0.57-0.17 0.5-0.22 0.34-0.23 0.33-0.28z" fill="#f00000" fill-rule="evenodd" stroke="#f00000"/>
<path d="m388.3 177.49v-0.84l-0.9-0.39-1.06-0.27-0.56-0.11-0.51-0.06 1.8 1 0.5 0.34 0.61 0.33h0.12z" fill="#f00000" fill-rule="evenodd" stroke="#f00000"/>
<path d="m393.61 164.68 0.29-0.05 0.11-0.06 0.23-0.23 0.1-0.33 0.23-0.84 0.17-0.9 0.05-0.56 0.06-0.5 0.17-0.9 0.06-0.22v-0.34l-0.23 0.29-0.22 0.5-0.23 0.67-0.33 1.28-0.17 0.73-0.11 0.39-0.12 0.4-0.11-0.34-0.06-0.45-0.05-0.89 0.05-0.34v-0.34l-0.21 0.34-0.18 0.5-0.11 0.46-0.05 0.95 0.22 0.44 0.23 0.17 0.21 0.17zm-4.92-0.39 0.22-0.06 0.29-0.11 0.22-0.22 0.22-0.29 0.45-0.5 0.39-0.56 0.34-0.62 0.33-0.55 0.23-0.5 0.23-0.57 0.44-1.06h-0.06l-0.38 0.34-0.4 0.39-0.28 0.45-0.28 0.5-0.5 1-0.51 0.73-0.5 0.68h-0.12l0.06-0.51 0.12-0.56 0.28-1.12-0.28 0.11-0.12 0.23-0.22 0.34-0.22 0.33-0.17 0.39-0.06 0.4v0.39l0.06 0.45 0.05 0.27 0.06 0.12 0.11 0.11zm-3.75-1.29 0.28-0.12 0.05-0.05 0.62-0.39 0.28-0.17 0.67-0.67 0.34-0.51 0.56-0.94 0.28-0.56 0.34-0.57 0.16-0.22 0.34-0.56-0.28 0.17-0.28 0.11-0.39 0.39-0.34 0.45-0.34 0.5-0.89 1.35-0.11 0.11-0.12 0.11-0.22 0.28-0.45 0.28h-0.11l0.06-0.22 0.72-1.57h-0.16l-0.11 0.06-0.23 0.22-0.39 0.4-0.28 0.38-0.17 0.57-0.11 0.5v0.16 0.17l0.17 0.29 0.11 0.05zm-3.25-1.57 0.45-0.11 0.45-0.17 0.44-0.27 0.4-0.29 0.33-0.44 0.4-0.45 1-1.23 0.23-0.39 0.45-0.68h-0.17l-0.23 0.06-0.33 0.17-0.45 0.45-0.56 0.72-0.62 0.73-0.5 0.56-0.11 0.11-0.17 0.11-0.34 0.17 0.12-0.28 0.11-0.22 0.23-0.51 0.16-0.39 0.05-0.17h-0.16l-0.23 0.11-0.16 0.11-0.45 0.51-0.17 0.34-0.17 0.22-0.11 0.45-0.12 0.5 0.06 0.17 0.17 0.11zm14.67-7.33-0.16 0.73v0.44l-0.06 0.45-0.12 0.73-0.28 0.68h-0.05l-0.06-0.23v-0.28-0.22-0.23l-0.16-0.61-0.06-0.06h-0.05l-0.23 0.56-0.05 0.23-0.12 0.33v0.22l0.06 0.23 0.22 0.44 0.23 0.23 0.11 0.05 0.11 0.06h0.17l0.16-0.06 0.23-0.33 0.17-0.33 0.16-0.45 0.06-0.34-0.06-0.5-0.05-0.79-0.17-0.95zm-3.86 3.41 0.33-0.05 0.46-0.39 0.27-0.34 0.23-0.39 0.28-0.5 0.17-0.73 0.16-0.9 0.12-0.45 0.05-0.44h0.06v0.06l-0.11 0.33-0.51 1.17-0.34 0.62-0.27 0.56-0.29 0.34-0.11 0.11h-0.11l-0.06-0.06v-0.05l-0.06-0.23 0.06-0.61 0.12-0.84-0.29 0.33-0.27 0.4-0.12 0.27-0.16 0.39-0.06 0.45v0.28l0.17 0.4 0.28 0.27zm-3.64-0.61 0.39-0.06 0.45-0.16 0.39-0.23 0.28-0.22 0.28-0.34 0.56-0.62 0.34-0.39 0.28-0.39 0.22-1.29-0.17 0.12-0.16 0.11-0.29 0.45-0.22 0.39-0.51 0.72-0.61 0.62-0.23 0.17-0.16 0.11-0.39 0.22v-0.11l0.05-0.11 0.17-0.33 0.33-0.57 0.18-0.39 0.16-0.39-0.22 0.06-0.17 0.06-0.39 0.33-0.28 0.39-0.28 0.45-0.11 0.45v0.84l0.11 0.11zm7.16-4.65 0.23-0.05 0.17-0.06 0.33-0.33-0.05-0.4-0.12-0.44-0.11 0.22-0.16 0.28v-0.79l-0.34-0.44h-0.05l-0.12 0.05-0.06 0.23v0.39 0.67 0.17l0.06 0.17 0.22 0.33zm-2.29-0.05 0.22-0.06 0.57-0.28 0.11-0.16 0.11-0.18 0.22-0.33 0.12-0.22 0.05-0.23 0.11-0.61v-0.68l-0.06-1.28h-0.16l-0.06 0.33-0.11 0.4v0.39l-0.06 0.39-0.16 0.67-0.11 0.39-0.07 0.23-0.21 0.22-0.17 0.22h-0.12-0.05l0.11-0.62 0.06-0.5v-0.44h-0.06l-0.17 0.16-0.17 0.17-0.17 0.45-0.1 0.45v0.44l0.1 0.29 0.17 0.28 0.06 0.11zm1.45-5.94 0.34-0.22 0.4-0.22 0.28-0.06h0.27l0.57 0.12h0.16l0.11-0.12 0.06-0.17v-0.28l-0.17-0.05-0.16-0.06h-0.34l-0.5 0.06-0.23 0.05-0.23 0.12-0.16 0.11-0.17 0.16-0.11 0.18-0.12 0.27v0.11zm0.45 24.8-0.55-0.39-0.51-0.34-0.39-0.45-0.17-0.28-0.17-0.33-0.17-0.23-0.11-0.28v-0.38-0.4-0.56l0.05-0.5 0.23-0.56 0.23-0.62-0.17 0.05-0.61 0.79-0.63 0.84-0.05 0.17-0.28 0.28-0.34 0.28-0.44 0.28-0.34 0.22-0.44 0.11-0.62 0.12-0.67 0.05h-0.51v-0.05l0.45-0.39 0.39-0.34 0.39-0.45 0.34-0.5 0.39-0.79 0.22-0.78 0.23-0.73 0.05-0.33-1.11 1.06-0.57 0.5-0.55 0.45-1.18 0.67-0.39 0.17-0.51 0.17-0.55 0.11-0.4 0.06h-0.56-0.5-0.28l-0.23-0.06 0.11-0.16 0.23-0.18 0.28-0.22 0.22-0.28 0.34-0.45 0.28-0.5 0.28-0.51 0.17-0.56 0.39-1.05h-0.06l-0.11 0.05-0.34 0.28-0.22 0.22-0.44 0.45-0.46 0.39-0.44 0.34-0.51 0.27-0.56 0.29-0.62 0.28-0.55 0.16-0.4 0.06-0.84 0.05h-0.84v-0.11l0.51-0.33 0.22-0.22 0.28-0.4 0.23-0.39 0.17-0.28 0.27-0.78 0.29-0.78 0.11-0.39 0.23-0.4 0.16-0.33 0.28-0.34 0.06-0.11-0.4 0.27-0.44 0.29-0.45 0.5-0.39 0.51-0.45 0.45-0.51 0.44-0.56 0.34-0.73 0.33-0.72 0.28-0.62 0.17-0.67 0.11-0.78 0.06h-0.45l-0.39-0.12 0.11-0.11 0.34-0.28 0.27-0.38 0.51-0.68 0.45-0.73 0.89-1.51 0.4-0.56 0.44-0.56 1.01-1.12 0.84-0.78 0.96-0.79 1-0.66 0.95-0.68 1.62-0.95 0.79-0.45 1.23-0.73 1.23-0.72 0.17-0.22 0.73-0.62 0.78-0.73 0.79-0.78 0.34-0.39 0.22-0.34 0.22-0.56 0.11-0.22 0.11-0.28v-0.23-0.28l-0.16-0.16h-0.28l-0.06 0.16-0.05 0.12-0.11 0.33-0.29 0.56-0.33 0.56-0.56 0.67-0.62 0.62-1.34 1.12-0.11 0.05h-0.68l-1.06 0.11h-0.62-0.27l-0.29-0.05-0.11-0.17v-0.28-0.34l0.11-0.55v-0.06h0.06 0.11l0.17 0.34 0.5 0.33 0.29 0.06 0.27 0.06h0.28l0.28-0.06 0.51-0.12 0.39-0.16 0.34-0.23 0.27-0.39 0.23-0.34 0.11-0.33 0.06-0.39-0.06-0.51-0.05-0.44-0.12-0.39-0.11-0.39-0.17-0.39-0.22-0.34-0.28-0.29-0.23-0.16-0.22-0.12-0.28-0.05h-0.28-0.5l-0.51 0.11-0.28 0.11-0.27 0.17-0.23 0.23-0.23 0.16-0.05 0.18v0.16l-0.11 0.05-0.17 0.06h-0.17l-0.11-0.11-0.11-0.06-0.06-0.16v-0.12-0.67-0.22l0.06-0.29 0.72-0.94-0.16 0.11-0.22 0.17-0.23 0.05h-0.23l-0.27-0.11-0.06-0.11-0.05-0.11v-0.11l0.78-0.23 0.33-0.11 0.39-0.11h0.62 1.12l1.12 0.05-0.05 0.4 0.05 0.39 0.11 0.39 0.17 0.33 0.33 0.34 0.34 0.28 0.34 0.11 0.39 0.12 0.5 0.05 0.18-0.05 0.16-0.07 0.34-0.22 0.5-0.5 0.11-0.28 0.05-0.23 0.06-0.16 0.46-0.28 0.44-0.28-0.06-0.11h-0.33l-0.28-0.06-0.34-0.06-0.33-0.16-0.73-0.17-0.78-0.17-1.52-0.22-0.45-0.06-0.44-0.11 0.22-0.11 0.28-0.11 0.34-0.06h0.44 1.07l1.06 0.06 0.79 0.06 0.94 0.16 0.52 0.11 0.61 0.17 0.28 0.11 0.11 0.06 0.16 0.11 0.12 0.17 0.11 0.16 0.06 0.23 0.11 0.17 0.05-0.11 0.06-0.06 0.06-0.23 0.22-0.22 0.23-0.22 0.33-0.17 0.4-0.23 0.72 0.06h0.45l0.28 0.12 0.11 0.33v0.28 0.28l-0.11 0.33-0.17 0.34-0.17 0.23-0.22 0.21-0.34 0.18-0.22 0.11 0.51 0.73 0.22 0.39 0.22 0.5 0.22 0.62 0.18 0.72 0.05 0.73 0.06 0.68-0.06 1.23v0.72l-0.11 2.02v1.01l0.06 1 0.11 0.73 0.05 0.33 0.11 0.34 0.06 0.17 0.17 0.22 0.27 0.28v0.06 0.11l-0.27-0.06-0.34-0.22-0.16-0.11-0.18-0.22-0.16-0.18-0.23 0.23-0.11 0.28-0.28 0.56-0.28 0.73-0.22 0.78-0.11 0.51-0.06 0.66v0.62 0.56l0.17 0.62 0.11 0.39 0.11 0.28 0.17 0.22 0.23 0.22h-0.18l-0.44-0.44-0.4-0.56h-0.05l-0.28 0.28-0.06 0.39-0.11 0.17-0.22 1.46v0.95l0.06 1.06 0.16 1.06 0.22 0.84-0.11 0.06z" fill="#f00000" fill-rule="evenodd" stroke="#f00000"/>
<path d="m377.05 162.55 0.28-0.33 0.27-0.45 0.51-0.84 0.67-0.89 0.79-0.84 0.84-0.85 0.78-0.72-0.11-0.12-3.98-3.02-4.14-3.13-1.4-1.12-1.35-1.12-0.06-0.67-0.05-0.62-0.06-0.22-0.11-0.28-0.33-0.68-0.22-0.33-0.23-0.33-0.23-0.17-0.27-0.28-0.29-0.06-0.33-0.05-0.22-0.06-0.17 0.06-0.17 0.05-0.11 0.06 0.05 0.5 0.17 0.45 0.56 0.78-0.06 0.06h-0.61-0.56l-0.23 0.05-0.28 0.17-0.22 0.28-0.16 0.23-0.07 0.61-0.05-0.11-0.06-0.06-0.21-0.33-0.06-0.29v-0.22l0.06-0.22 0.05-0.22 0.11-0.18 0.16-0.11 0.18-0.1 0.39-0.18 0.5-0.11-0.22-0.16-0.17-0.17-0.61-0.28-0.34-0.11h-0.28l-0.34 0.11-0.11 0.06-0.16 0.11-0.18 0.22-0.11 0.22-0.05 0.34v0.16l0.05 0.18 0.11 0.33 0.39 0.62 0.11 0.11 0.06 0.12v0.05l-0.33 0.05-0.28 0.11-0.06 0.18-0.05 0.72 0.16 0.39 0.18 0.28 0.16 0.22 0.22 0.23 0.28 0.22 0.23 0.12 0.34 0.11 0.27 0.11 0.34 0.05h0.39 0.5 0.45l0.23 0.06 0.16 0.06 0.18 0.11 0.11 0.16 0.22 0.34-0.56-0.11-0.61-0.05-0.12 0.11v0.22 0.28l0.06 0.17 0.11 0.22 0.17 0.23 0.11 0.11 0.22 0.11 0.29 0.12 0.55 0.11 0.56 0.11 0.56 0.05 0.45 0.17 0.45 0.22 0.45 0.29 0.61 0.5 0.39 0.39 0.68 0.84h-1.07-0.67l-0.33 0.05 0.11 0.18 0.28 0.27 0.22 0.12 0.17 0.11 0.45 0.16 1.06 0.45 0.96 0.39 0.5 0.29 0.28 0.16 0.17 0.23 0.16 0.33-0.61-0.06-0.34-0.05-0.39 0.05-0.39 0.06-0.4 0.11-0.39 0.11v0.18l0.62 0.27 0.56 0.23 1.23 0.34 0.62 0.27 0.38 0.23 0.18 0.11 0.16 0.17 0.17 0.27 0.06 0.17-0.06 0.06-0.72-0.06h-0.68l0.57 0.62 0.32 0.34 0.23 0.22 0.4 0.11z" fill="#f00000" fill-rule="evenodd" stroke="#f00000"/>
<path d="m388.52 150.63-0.05-0.17-0.45-0.11-0.56-0.06h-1.07-2.46l-0.61 0.06h-0.34-0.39l-0.34-0.11-0.39-0.11-0.51-0.17-0.33-0.22-0.34-0.29-0.22-0.27-0.28-0.34-0.17-0.34-0.16-0.39-0.12-0.39-0.11-0.39v-0.4-0.33h-0.05l-0.23 0.33-0.17 0.4-0.16 0.39-0.12 0.34 0.06 0.55 0.06 0.57 0.16 0.22 0.22 0.28 0.34 0.39 0.45 0.28 0.45 0.17 0.45 0.06 0.72 0.05h1.18 1.18l2.23-0.11h1.24 0.5l0.39 0.11z" fill="#f00000" fill-rule="evenodd" stroke="#f00000"/>
<path d="m390.77 147.16 0.16-0.06 0.11-0.11 0.17-0.28 0.06-0.28-0.06-0.11-0.06-0.17-0.16-0.11-0.22-0.05h-0.23l-0.22 0.11-0.12 0.16-0.05 0.12v0.16l0.05 0.17 0.06 0.17 0.06 0.16 0.33 0.18 0.12-0.06z" fill="#f00000" fill-rule="evenodd" stroke="#f00000"/>
<path d="m389.59 147.1 0.05-0.06v-0.16l-0.05-0.28v-0.17-0.22l0.05-0.39-0.56-0.12-0.06 0.45 0.12 0.34 0.17 0.34 0.28 0.27z" fill="#f00000" fill-rule="evenodd" stroke="#f00000"/>
<path d="m393.73 204.86 0.28-0.16 0.28-0.18 0.05-0.21 0.11-0.18-0.27-0.11-0.23-0.11-0.16 0.5-0.06 0.45z" fill="#f00000" fill-rule="evenodd" stroke="#f00000"/>
<path d="m391.55 203.68 0.38-0.21 0.23-0.12 0.06-0.11v-0.06l-0.39-0.28-0.06 0.17-0.11 0.17-0.11 0.44z" fill="#f00000" fill-rule="evenodd" stroke="#f00000"/>
<path d="m390.48 201.68 0.29-0.18 0.55-0.16 0.06-0.5v-0.57h-0.11l-0.28 0.34-0.29 0.5-0.11 0.28-0.11 0.29z" fill="#f00000" fill-rule="evenodd" stroke="#f00000"/>
<path d="m368.31 197.93 0.23-0.18 0.61-0.61-0.56-0.17-0.23 0.45-0.05 0.51z" fill="#f00000" fill-rule="evenodd" stroke="#f00000"/>
<path d="m373.07 197.25 0.33-0.34 0.34-0.33v-0.4l-0.34 0.06h-0.22l-0.11 0.17v0.5 0.23 0.11z" fill="#f00000" fill-rule="evenodd" stroke="#f00000"/>
<path d="m366.86 195.46 0.05-0.06-0.17-0.44h-0.11-0.11l-0.28 0.44-0.06 0.17v0.17l-0.05 0.34 0.27-0.17 0.23-0.23 0.23-0.22z" fill="#f00000" fill-rule="evenodd" stroke="#f00000"/>
<path d="m365.06 193.73 0.23-0.12 0.22-0.16 0.39-0.28v-0.17l-0.06-0.17-0.05-0.22-0.28 0.27-0.22 0.29-0.12 0.28-0.11 0.28z" fill="#f00000" fill-rule="evenodd" stroke="#f00000"/>
<path d="m363.72 177.22 0.34-0.12 0.33-0.11 0.28-0.11 0.22-0.17 0.06-0.11h-0.73l-0.5 0.62z" fill="#f00000" fill-rule="evenodd" stroke="#f00000"/>
<path d="m360.58 175.43h0.62l0.34-0.06 0.28-0.11 0.22-0.17v-0.17l-0.11-0.11-0.06-0.11-0.05-0.34h-0.23l-0.28 0.16-0.33 0.29-0.28 0.34-0.12 0.16v0.12z" fill="#f00000" fill-rule="evenodd" stroke="#f00000"/>
<path d="m360.7 172.18 0.55-0.05 0.51-0.12 0.11-0.56h-0.39l-0.28 0.17-0.17 0.17-0.17 0.16-0.16 0.23z" fill="#f00000" fill-rule="evenodd" stroke="#f00000"/>
<path d="m366.13 168.93 0.27-0.22 0.17-0.12 0.11-0.16-0.22-0.11-0.44 0.06-0.45 0.11v0.05l0.56 0.39z" fill="#f00000" fill-rule="evenodd" stroke="#f00000"/>
<path d="m367.24 153.43v-0.11l-0.11-0.17-0.05-0.11-0.68 0.11-0.33 0.11h-0.34v0.12l0.67 0.27h0.17l0.29-0.05 0.22-0.06 0.16-0.11z" fill="#f00000" fill-rule="evenodd" stroke="#f00000"/>
<path d="m363.72 149.63-0.06-0.51-0.5-0.22-0.51-0.23v0.17l0.28 0.28 0.29 0.28 0.5 0.23z" fill="#f00000" fill-rule="evenodd" stroke="#f00000"/>
<path d="m363.95 146.21h0.11v-0.17l0.39-0.56-0.23-0.28-0.33-0.22-0.34-0.17-0.33-0.11 0.05 0.45 0.11 0.28 0.11 0.27 0.23 0.29 0.23 0.22z" fill="#f00000" fill-rule="evenodd" stroke="#f00000"/>
<path d="m367.3 144.7h0.78l-0.16-0.28-0.22-0.22-0.29-0.18-0.28-0.1h-0.33l0.28 0.39 0.22 0.39z" fill="#f00000" fill-rule="evenodd" stroke="#f00000"/>
<path d="m386.11 149.45 0.12-0.27 0.05-0.23 0.17-0.22 0.34-0.33 0.16-0.18h-0.38l-0.34 0.12-0.28 0.22-0.11 0.28 0.11 0.28 0.16 0.33z" fill="#f00000" stroke="#f00000"/>
<path d="m386 151.3 0.28 0.4 0.23 0.16h0.17 0.11l-0.22-0.34-0.18-0.28-0.22-0.5-0.17 0.56z" fill="#f00000" stroke="#f00000"/>
</g>
</g>
</g>
</svg>
