<?xml version="1.0" encoding="UTF-8"?>
<!DOCTYPE svg  PUBLIC '-//W3C//DTD SVG 1.0//EN'  'http://www.w3.org/TR/2001/REC-SVG-20010904/DTD/svg10.dtd'>
<svg width="687" height="768" version="1.0" viewBox="-2.3812 -2.3812 84.138 94.038" xmlns="http://www.w3.org/2000/svg">
<defs>
<clipPath id="b">
<path d="m354.48 310.32h63.71v-71.63h-63.71v71.63z"/>
</clipPath>
<clipPath id="a">
<path d="m354.48 310.32h63.71v-71.63h-63.71v71.63z"/>
</clipPath>
</defs>
<g transform="translate(-335.31 -487.72)">
<g transform="matrix(1.25 0 0 1.25 -107.92 189.24)">
<g clip-path="url(#b)">
<path d="m354.59 238.79h63.5v39.68 1.63l-0.17 1.61-0.17 1.57-0.28 1.57-0.39 1.57-0.4 1.51-0.5 1.46-0.56 1.45-0.67 1.4-0.67 1.34-0.78 1.34-0.79 1.29-0.89 1.23-0.96 1.23-1.01 1.13-1.05 1.12-1.07 1.06-1.18 0.95-1.17 0.95-1.29 0.9-1.29 0.84-1.29 0.73-1.4 0.72-1.4 0.62-1.45 0.55-1.46 0.51-1.51 0.45-1.52 0.33-1.56 0.28-1.62 0.23-1.57 0.11-1.68 0.06-1.63-0.06-1.62-0.11-1.57-0.23-1.56-0.28-1.52-0.33-1.51-0.45-1.51-0.51-1.4-0.55-1.4-0.62-1.4-0.72-1.34-0.73-1.29-0.84-1.23-0.9-2.36-1.9-1.05-1.06-1.07-1.12-1.01-1.13-0.95-1.23-0.9-1.23-0.79-1.29-0.78-1.34-0.72-1.34-0.62-1.4-0.56-1.45-0.5-1.46-0.45-1.51-0.34-1.57-0.28-1.57-0.22-1.57-0.12-1.61-0.05-1.63v-39.68z" fill-rule="evenodd"/>
</g>
<g clip-path="url(#a)" fill-rule="evenodd">
<path d="m370.33 290.45h-8.06l-0.07-5.65h-5.59v0l-0.22-1.57-0.23-1.63-0.11-1.68-0.06-1.62v-38.11h60.69v38.11 0 1.57l-0.16 1.62-0.16 1.63-0.34 1.56h-5.27v0l0.05 5.65h-8.39v0l-0.06-5.53h-10.08v5.65h-3.02v0l-0.05-3.92v-3.86 0l0.66 0.28 1.29 0.44 0.78 0.23 0.79 0.11 0.68 0.12h0.27l0.23-0.06v0l-0.29-0.45-0.21-0.51-0.23-0.61-0.11-0.67v0l0.5 0.34 0.51 0.28 0.5 0.27 0.51 0.23 1 0.22 0.45 0.12h0.51 0.44 0.45l0.4-0.12 0.44-0.11 0.34-0.11 0.38-0.17 0.29-0.22 0.28-0.23v0l-1.68-1-0.84-0.57-0.9-0.61-0.84-0.67-0.9-0.73-1.73-1.57v0l0.9 0.45 1.01 0.39 0.5 0.11 0.44 0.11h0.45l0.34-0.05v0l-0.56-0.39-0.56-0.45-0.45-0.56-0.45-0.67v0l1.46 0.78 0.79 0.39 0.84 0.34 0.89 0.23 0.95 0.22 1.01 0.05h0.5l0.51-0.05v0h-0.11l-0.17-0.06-0.4-0.16-0.39-0.28-0.39-0.4-0.79-0.83-0.61-0.79v0l0.9 0.34 0.84 0.22 0.78 0.23 0.73 0.05 0.79 0.05 0.78-0.1 0.84-0.23 0.89-0.28v0l-1.06-0.45-1.07-0.56-1-0.67-0.95-0.73v0l0.67 0.06 0.67-0.06 0.61-0.05 0.62-0.17 0.56-0.17 0.5-0.16 0.51-0.28 0.39-0.23 0.79-0.5 0.56-0.51 0.55-0.56v0l-1.39 0.06-1.35-0.06-1.28-0.06-1.24-0.16-1.17-0.17-1.13-0.28-1.05-0.34-1.02-0.39v0l0.84-0.11 0.68-0.11 0.61-0.11 0.51-0.22 0.44-0.23 0.4-0.28 0.39-0.33 0.39-0.4v0l-1.06-0.11-1.07-0.17-1.01-0.22-0.94-0.34-0.91-0.39-0.89-0.45-0.79-0.44-0.72-0.57v0l0.84 0.18 0.72 0.1h0.73 0.62l0.67-0.1 0.62-0.12 0.56-0.17 0.61-0.22v0l-1.56-0.56-0.73-0.33-0.68-0.34v0l0.79 0.06 0.78 0.05h0.68l0.61-0.05 0.62-0.12 0.5-0.11 0.45-0.11 0.39-0.16 0.39-0.18 0.29-0.16 0.44-0.39 0.34-0.4 0.11-0.28v0l-1.01-0.06-1.01-0.16-0.95-0.23-0.95-0.27-0.95-0.34-0.9-0.39-0.84-0.45-0.84-0.39-1.46-0.89-1.17-0.85-0.96-0.72-0.55-0.45v0l1.18 0.11h0.39 0.39v0l0.39-0.06 0.51-0.11 1.45-0.45v0l-0.56-0.22-0.45-0.23-0.5-0.27-0.45-0.39v0h0.79 0.61l0.61-0.12 0.73-0.22 0.73-0.28 0.34-0.22 0.39-0.29 0.34-0.27 0.33-0.34v0l-1.06-0.05-1.01-0.12-0.95-0.28-1.01-0.33-1.01-0.51-1.11-0.67-1.24-0.89-1.4-1.02v0l1.07-0.16 0.44-0.11 0.34-0.12 0.33-0.22 0.34-0.23 0.33-0.33 0.4-0.39v0l-0.5-0.23-1.24-0.44-1.46-0.61-0.61-0.29-0.5-0.33v0l-0.57-0.45v0l-0.72-0.84v0l-0.23-0.28v0l-0.27-0.45v0l-0.57-0.89v0l-0.5-1.06v0l-0.16-0.39-0.23-0.34v0l-0.45 0.89-0.45 0.84-0.44 0.73-0.51 0.72-0.51 0.62-0.44 0.56-0.51 0.51-0.5 0.45-0.45 0.39-0.44 0.27-0.45 0.29-0.45 0.22-0.39 0.17-0.39 0.11-0.34 0.05-0.28 0.06v0l0.17 0.22 0.22 0.28 0.78 0.56 0.45 0.22 0.45 0.18 0.45 0.05h0.44v0l-0.95 0.84-0.89 0.73-0.95 0.61-0.96 0.5-0.95 0.45-0.95 0.28-0.95 0.23-1.01 0.17v0l1.23 0.62 0.5 0.22 0.51 0.22 0.9 0.22h0.45 0.39v0l-0.56 0.39-0.51 0.29-0.5 0.22v0l0.56 0.28 0.56 0.16 0.56 0.18 0.56 0.11 0.51 0.05h0.56l0.5-0.05 0.55-0.06v0l-0.78 0.61-0.83 0.57-0.84 0.56-0.84 0.5-1.69 0.96-1.74 0.78-1.61 0.61-1.46 0.5-1.29 0.29-0.56 0.1h-0.5v0l0.28 0.34 0.33 0.34 0.51 0.39 0.73 0.34 0.44 0.16 0.45 0.17 0.56 0.11 0.62 0.12 0.61 0.05h0.73v0l-0.34 0.28-0.61 0.33-0.73 0.34-0.39 0.17-0.39 0.06v0l0.95 0.33 0.89 0.17 0.78 0.11h0.74l0.62-0.06 1-0.1v0l-1.57 0.89-1.51 0.84-0.78 0.34-0.68 0.22-0.61 0.17-0.5 0.05v0l0.38 0.34 0.4 0.28 0.44 0.22 0.46 0.17 0.5 0.11 0.61 0.06h0.68l0.72-0.06v0l-0.38 0.22-0.57 0.29-1.17 0.5-1.46 0.5-1.51 0.39-1.51 0.29-1.52 0.22-1.34 0.11-0.55 0.06-0.52-0.06v0l0.29 0.45 0.28 0.34 0.34 0.33 0.33 0.33 0.62 0.45 0.67 0.39 0.61 0.23 0.62 0.17 0.9 0.22v0l-1.96 0.39v0l0.22 0.34 0.28 0.33 0.28 0.29 0.28 0.22 0.33 0.22 0.34 0.17 0.73 0.28 0.72 0.17 0.73 0.06 1.29 0.05v0l-1.34 1.06-1.12 0.84v0l0.17 0.12 0.22 0.05h0.56l0.79-0.05 0.84-0.17 0.95-0.17 0.89-0.34 0.95-0.33 0.79-0.4v0l-0.11 0.29-0.45 0.5-0.62 0.56-0.33 0.28-0.46 0.22v0l0.57 0.12 0.5 0.05 0.56-0.05 0.56-0.06 0.51-0.12 0.5-0.16 0.39-0.17 0.4-0.22v0l-0.56 0.55-0.62 0.57-0.67 0.55-0.78 0.51-0.84 0.5-0.96 0.45-1.01 0.33-1.06 0.23v0l0.44 0.39 0.46 0.34 0.45 0.28 0.5 0.28 0.45 0.16 0.5 0.12 0.5 0.11h0.51 0.5l0.51-0.06 0.55-0.17 0.51-0.16 1.12-0.56 0.62-0.39 0.56-0.39v0l-0.06 0.33-0.12 0.28-0.22 0.45-0.28 0.39-0.34 0.51v0h1.52l0.5-0.06 0.45-0.06v0l0.44-0.17 0.52-0.28 1.5-0.84v7.89 0h-4.25v0l0.05-5.48h-9.74v0 2.8l-0.05 2.8v0z" fill="#f00000" stroke="#f00000" stroke-linecap="round" stroke-linejoin="round" stroke-miterlimit="10" stroke-width=".12"/>
<path d="m376.32 307.07 0.05-3.69h9.74v5.42l-1.22-0.05-1.29-0.06-1.24-0.16-1.28-0.17-1.18-0.28-1.23-0.28-1.18-0.34-1.17-0.39z" fill="#fff"/>
<path d="m386.79 308.8 0.05-5.42h9.86l0.11 3.58-1.23 0.39-1.18 0.39-1.23 0.28-1.24 0.28-1.23 0.17-1.28 0.17-1.29 0.11-1.34 0.05z" fill="#fff"/>
<path d="m375.64 303.38v3.47l-1.68-0.73-1.67-0.79-1.63-0.89-1.51-1.01h3.25l3.24-0.05z" fill="#fff"/>
<path d="m397.42 306.73 0.06-3.35h6.16l-1.45 0.95-1.57 0.89-1.57 0.79-1.63 0.72z" fill="#fff"/>
<path d="m362.48 297.11 7.85-0.06 0.05 5.66-2.18 0.05-1.57-1.29-1.46-1.34-1.4-1.46-1.29-1.56z" fill="#fff"/>
<path d="m370.99 302.76h9.81v-5.71h-9.81v5.71z" fill="#fff"/>
<path d="m381.46 302.76h10.09v-5.77l-10.09 0.06v5.71z" fill="#fff"/>
<path d="m392.27 302.76 9.75-0.05v-5.72h-9.75v5.77z" fill="#fff"/>
<path d="m402.69 302.76v-5.77h7.67l-0.61 0.79-0.68 0.78-0.72 0.73-0.68 0.73-0.73 0.72-0.78 0.68-0.78 0.67-0.78 0.62-1.91 0.05z" fill="#fff"/>
<path d="m358.79 291.06h6.21v5.38h-3.02l-0.89-1.29-0.84-1.29-0.79-1.34-0.67-1.46z" fill="#fff"/>
<path d="m365.68 296.44h10.02l-0.06-5.38-9.91 0.06-0.05 5.32z" fill="#fff"/>
<path d="m376.42 296.44h9.69l-0.05-5.32-9.64-0.06v5.38z" fill="#fff"/>
<path d="m386.84 296.44 9.91-0.11v-5.21l-9.91-0.06v5.38z" fill="#fff"/>
<path d="m397.42 296.38h9.69l-0.06-5.26-9.63-0.06v5.32z" fill="#fff"/>
<path d="m407.73 296.38v-5.32h6.21l-0.67 1.4-0.79 1.34-0.78 1.3-0.9 1.23-3.07 0.05z" fill="#fff"/>
<path d="m356.83 285.41 4.76-0.06-0.05 5.1-3.03 0.06-0.5-1.24-0.46-1.29-0.38-1.28-0.34-1.29z" fill="#fff"/>
<path d="m379.34 290.33 0.05-4.92h-8.22v4.87l8.17 0.05z" fill="#fff"/>
<path d="m401.74 290.33v-4.98l-4.37-0.05h-4.37v5.03h4.37 4.37z" fill="#fff"/>
<path d="m414.28 290.28h-2.8v-4.87h4.42l-0.33 1.23-0.39 1.23-0.45 1.23-0.45 1.18z" fill="#fff"/>
<path d="m387.18 289.55v0l0.39-0.05v-0.73l-0.39-0.11v0.89zm-1.57-1.06v0l0.39-0.06v-0.78l-0.39-0.05v0.89zm1.46-1.62v0l0.45-0.11v-0.73l-0.4-0.06-0.05 0.9zm-0.17-3.48v0l0.39-0.05v-0.79l-0.39-0.05v0.89zm-1.29 1.8v0l0.45-0.06-0.06-0.73-0.33-0.05-0.06 0.84zm-0.06-2.58v0l0.45-0.11-0.11-0.73-0.34-0.06v0.9zm2.69 7.72h-3.24v-8.33 0l0.84-0.62 0.73-0.73v0l0.33 0.4 0.33 0.28 0.45 0.33 0.5 0.28v0l0.06 8.39v0z" fill="#094" stroke="#094" stroke-linecap="round" stroke-linejoin="round" stroke-miterlimit="10" stroke-width=".12"/>
<path d="m380.85 282.83v0l0.5-0.1 0.45-0.12 0.9-0.33 0.78-0.45 0.73-0.5 0.68-0.51 0.55-0.56 0.95-1.06v0l0.68 0.72 0.67 0.63 0.73 0.55 0.78 0.5 0.79 0.4 0.84 0.33 0.89 0.28 0.89 0.22v0l-0.1-0.66-0.17-0.84-0.12-1.29v0l1.02 0.67 0.95 0.56 0.89 0.39 0.84 0.28 0.73 0.17h0.61l0.34-0.06 0.28-0.05 0.22-0.11 0.28-0.12v0l-1.23-0.84-1.23-0.89-1.45-1.12-0.73-0.62-0.68-0.61-0.66-0.68-0.62-0.66-0.51-0.62-0.39-0.68-0.28-0.61-0.06-0.28-0.05-0.33v0l0.95 1.06 0.39 0.39 0.34 0.28 0.39 0.22 0.5 0.29 1.46 0.55v0l-0.5-0.73-0.46-0.66-0.21-0.68-0.17-0.61v0l1.11 0.67 1.52 0.9 0.84 0.38 0.84 0.4 0.89 0.28 0.84 0.16v0l-0.67-0.61-0.45-0.5-0.45-0.51-0.39-0.56-0.33-0.56-0.23-0.56-0.05-0.22v-0.28 0l0.72 0.5 0.85 0.4 0.95 0.44 0.89 0.34 0.9 0.28 0.84 0.16 0.67 0.06h0.28l0.23-0.06v0l-0.9-0.5-0.56-0.39-0.56-0.45-0.5-0.45-0.45-0.44-0.28-0.4-0.11-0.22-0.06-0.17v0l0.56 0.11 0.56 0.06 0.78 0.06 0.84-0.06 0.45-0.06 0.5-0.11 0.51-0.16 0.45-0.17 0.5-0.22 0.5-0.34v0l-2.68-0.28-1.41-0.22-1.39-0.34-0.67-0.17-0.68-0.28-0.61-0.28-0.62-0.27-0.56-0.4-0.56-0.45-0.5-0.44-0.5-0.57 0.05-0.05v0l0.56 0.22 0.62 0.23 0.61 0.17 0.67 0.11h0.62l0.62-0.06 0.61-0.17 0.28-0.16 0.29-0.18v0l-1.18-0.33-1.24-0.45-1.23-0.61-1.18-0.68-0.5-0.38-0.5-0.4-0.51-0.44-0.38-0.46-0.4-0.44-0.33-0.45-0.23-0.5-0.17-0.5v0l0.56 0.55 0.62 0.45 0.61 0.34 0.68 0.28 0.73 0.22 0.66 0.11 0.79 0.06h0.73v0l-0.45-0.28-0.45-0.34-0.44-0.39-0.4-0.39-0.39-0.45-0.33-0.39-0.23-0.45-0.22-0.45v0l0.5 0.34 0.5 0.28 0.95 0.4 0.9 0.27 0.9 0.11 0.84 0.06 0.79-0.11 0.78-0.12 0.67-0.21v0l-0.95-0.29-1.02-0.34-1.06-0.39-2.12-1-1.01-0.57-1.06-0.61-0.95-0.67-0.96-0.67-0.84-0.73-0.72-0.73-0.68-0.73-0.56-0.72-0.45-0.73-0.11-0.39-0.22-0.68v-0.39 0l0.39 0.62 0.45 0.56 0.56 0.56 0.55 0.51 0.4 0.16 0.33 0.23 0.4 0.11 0.44 0.11 0.45 0.11 0.51 0.06h0.56l0.61-0.06v0l-0.16-0.06-0.23-0.22-0.28-0.34-0.39-0.39-0.28-0.44-0.34-0.51-0.16-0.44-0.06-0.23-0.05-0.22v0l0.32 0.27 0.34 0.29 0.5 0.28 0.29 0.11 0.34 0.11 0.33 0.06h0.39 0.4l0.44-0.06 0.51-0.11 0.44-0.22v0l-1.45-0.62-1.4-0.68-1.34-0.72-1.18-0.84-1.06-0.78-0.9-0.84-0.4-0.39-0.33-0.4-0.28-0.33-0.17-0.4v0l0.4 0.23 0.38 0.22 0.51 0.23 0.51 0.11 0.5 0.05 0.5-0.05 0.51-0.11 0.22-0.12 0.22-0.16v0l-0.89-0.4-0.84-0.44-0.78-0.5-0.73-0.56-0.68-0.68-0.61-0.67-0.56-0.73-0.56-0.83v0l-0.61 0.83-0.57 0.73-0.73 0.78-0.78 0.84-0.89 0.79-0.9 0.67-0.51 0.28-0.44 0.22v0l0.33 0.22 0.45 0.12h0.39l0.51-0.06 0.5-0.17 0.51-0.28 0.61-0.39 0.56-0.44v0l-0.22 0.67-0.39 0.61-0.4 0.56-0.5 0.56-0.56 0.57-0.56 0.5-0.56 0.45-0.62 0.39-1.17 0.72-1.12 0.56-0.9 0.4-0.67 0.22v0l0.45 0.11 0.44 0.11 0.9 0.11 0.9-0.05 0.89-0.06v0l-0.83 0.9-0.4 0.34-0.33 0.22v0l0.78 0.11 0.78 0.06 0.73-0.06 0.67-0.17 0.68-0.28 0.67-0.33 0.62-0.45 0.55-0.62v0l-0.5 0.9-0.67 0.78-0.73 0.78-0.84 0.79-0.9 0.73-0.95 0.67-1 0.62-1.02 0.61-1 0.5-0.95 0.51-1.85 0.84-1.57 0.55-1.06 0.29v0l0.05 0.11 0.17 0.11 0.45 0.23 0.62 0.16 0.73 0.11 0.78 0.06h0.78l0.84-0.11 0.73-0.22v0l-0.06 0.27-0.17 0.28-0.27 0.28-0.34 0.34-0.67 0.5-0.46 0.4v0h1.02l0.89-0.06 0.9-0.23 0.84-0.27 0.84-0.4 0.73-0.5 0.72-0.56 0.62-0.73v0l-0.06 0.39-0.16 0.34-0.23 0.39-0.34 0.39-0.33 0.45-0.39 0.39-1.01 0.79-1.12 0.84-1.24 0.72-1.28 0.73-1.29 0.73v0l0.57 0.11h0.66l0.73-0.06 0.79-0.11 0.78-0.22 0.73-0.28 0.62-0.28 0.44-0.34v0l-0.62 0.73-0.72 0.73-0.73 0.61-0.84 0.57-0.84 0.45-0.84 0.44-0.84 0.34-0.89 0.33-0.84 0.23-0.84 0.22-1.57 0.33-2.3 0.45v0l0.22 0.28 0.23 0.22 0.28 0.23 0.33 0.17 0.4 0.17 0.39 0.11 0.84 0.11h0.89l0.9-0.11 0.78-0.22 0.34-0.12 0.34-0.16v0l-0.11 0.28-0.17 0.22-0.17 0.23-0.28 0.16-0.56 0.39-0.62 0.34-0.61 0.27-0.51 0.23-0.5 0.17v0l0.11 0.17 0.17 0.16 0.28 0.11 0.28 0.12 0.33 0.11 0.4 0.11 0.44 0.06h0.45 0.45l0.51-0.06 0.5-0.11 0.5-0.17 0.56-0.22 0.45-0.28 0.5-0.34 0.46-0.39v0l-0.34 0.51-0.34 0.5-0.78 1-0.84 0.84-0.67 0.73v0 0.06h0.11l0.45-0.17 1.68-0.67 0.95-0.45 0.89-0.45 0.78-0.39 0.56-0.39v0 0 0.05l-0.11 0.29-0.5 1.01-0.61 1.06-0.23 0.39-0.17 0.16v0h0.45l0.45-0.11 0.39-0.11 0.45-0.22 0.78-0.45 0.67-0.5 0.56-0.5 0.46-0.45 0.38-0.45v0l-0.11 0.39-0.17 0.39-0.22 0.45-0.28 0.5-0.73 0.95-0.89 1.01-0.51 0.45-0.5 0.51-0.56 0.44-0.62 0.45-0.67 0.45-0.68 0.39-0.66 0.34-0.73 0.28v0l0.11 0.11 0.28 0.16 0.56 0.17 0.34 0.06h0.44 0.45l0.56-0.12 0.56-0.16 0.62-0.22 0.72-0.34 0.79-0.45 0.79-0.5 0.89-0.73v0h0.05v0.06 0.27l-0.16 0.85-0.34 1.5v0z" fill="#094" stroke="#094" stroke-linecap="round" stroke-linejoin="round" stroke-miterlimit="10" stroke-width=".12"/>
</g>
</g>
</g>
</svg>
