<?xml version="1.0" encoding="UTF-8"?>
<svg version="1.0" viewBox="0 0 401.21 448.72" xmlns="http://www.w3.org/2000/svg">
<defs>
<clipPath id="a">
<path d="m354.48 410.28h63.71v-71.63h-63.71v71.63z"/>
</clipPath>
<clipPath id="b">
<path d="m354.48 410.28h63.71v-71.63h-63.71v71.63z"/>
</clipPath>
</defs>
<g transform="translate(-165.24 -333.36)">
<g transform="matrix(4.7936 0 0 4.7936 -1705.1 -1696)">
<g transform="matrix(1.25 0 0 1.25 -50.894 2.0786)" clip-path="url(#b)">
<path d="m354.59 338.74h63.5v39.69 0 1.62l-0.17 1.62-0.17 1.57-0.28 1.57-0.39 1.57-0.4 1.51-0.5 1.46-0.56 1.45-0.67 1.4-0.67 1.34-0.78 1.34-0.79 1.29-0.89 1.23-0.96 1.23-1.01 1.13-1.05 1.12-1.07 1.06-1.18 0.95-1.17 0.95-1.29 0.9-1.29 0.84-1.29 0.72-1.4 0.73-1.4 0.62-1.45 0.55-1.46 0.51-1.51 0.44-1.52 0.34-1.56 0.28-1.62 0.22-1.57 0.12-1.68 0.06v0l-1.63-0.06-1.62-0.12-1.57-0.22-1.56-0.28-1.52-0.34-1.51-0.44-1.51-0.51-1.4-0.55-1.4-0.62-1.4-0.73-1.34-0.72-1.29-0.84-1.23-0.9-2.36-1.9-1.05-1.06-1.07-1.12-1.01-1.13-0.95-1.23-0.9-1.23-0.79-1.29-0.78-1.34-0.72-1.34-0.62-1.4-0.56-1.45-0.5-1.46-0.45-1.51-0.34-1.57-0.28-1.57-0.22-1.57-0.12-1.62-0.05-1.62v-39.69z" fill-rule="evenodd" stroke="#000" stroke-linecap="round" stroke-linejoin="round" stroke-miterlimit="10" stroke-width=".12"/>
</g>
<g transform="matrix(1.25 0 0 1.25 -50.894 2.0786)" clip-path="url(#a)" fill-rule="evenodd">
<path d="m399.22 405.86v0l-1.52 0.67-1.5 0.61-3.14 0.9-1.68 0.28-1.63 0.28-1.68 0.11-1.73 0.06v0l-1.79-0.06-1.79-0.17-1.8-0.28-1.73-0.34-1.68-0.44-1.63-0.56-1.62-0.68-1.57-0.72-0.06-0.12v0l-0.27-0.61-0.23-0.56-0.16-0.61-0.12-0.56v-0.57-0.5l0.06-0.5 0.17-0.5 0.17-0.45 0.22-0.45 0.22-0.39 0.34-0.39 0.33-0.34 0.34-0.28 0.39-0.27 0.9-0.46 0.45-0.11 0.44-0.11 0.5-0.05h0.51l0.51 0.05 0.5 0.05 0.5 0.17 0.51 0.23 0.5 0.23 0.51 0.32 0.45 0.4 0.44 0.44 0.45 0.51 0.45 0.61 0.33 0.68v0l-0.39-1.01-0.28-1.01-0.17-0.89-0.05-0.78v-0.79l0.11-0.73 0.22-0.61 0.28-0.57 0.34-0.5 0.39-0.45 0.5-0.39 0.51-0.33 0.51-0.22 0.55-0.23 0.62-0.11 0.56-0.06h0.61l0.56 0.06 0.62 0.11 0.56 0.23 0.51 0.28 0.5 0.27 0.45 0.39 0.45 0.51 0.33 0.5 0.28 0.56 0.17 0.68 0.11 0.72 0.06 0.78-0.11 0.84-0.18 0.9-0.27 1.01v0l0.5-0.62 0.5-0.56 0.56-0.44 0.51-0.4 0.56-0.33 0.55-0.29 0.52-0.16 0.55-0.11 0.5-0.05 0.51-0.06 0.51 0.06 0.44 0.11 0.51 0.16 0.44 0.17 0.4 0.22 0.78 0.56 0.34 0.34 0.27 0.39 0.29 0.39 0.22 0.45 0.17 0.45 0.16 0.45 0.11 0.5 0.06 0.5v0.51l-0.06 0.5-0.11 0.51-0.16 0.56-0.23 0.5-0.28 0.5-0.33 0.51v0z" fill="#094" stroke="#094" stroke-linecap="round" stroke-linejoin="round" stroke-miterlimit="10" stroke-width=".12"/>
<path d="m384.94 390.4v0l0.17-0.05 0.22-0.06v0-0.33-0.33 0l-0.39-0.12v0l-0.05 0.45 0.05 0.44v0zm1.01 0.9v0h0.22l0.22-0.06v0l-0.05-0.32v-0.34 0l-0.17-0.12-0.22-0.06v0 0.46 0.44 0zm0.95-0.84v0l0.22-0.06 0.17-0.05v0-0.67 0l-0.17-0.05-0.22-0.06v0 0.45 0.44 0zm0.95 1.29v0l-0.28-0.05-0.22-0.12v0l-0.9-0.11v0l-0.67 0.06-0.62 0.05v0l-0.5 0.06v0l-0.06-0.56 0.06-0.62 0.05-1.23v0l0.56 0.12 0.57 0.05v0h1.96v0l0.05 2.35v0z" fill="#094" stroke="#094" stroke-linecap="round" stroke-linejoin="round" stroke-miterlimit="10" stroke-width=".12"/>
<path d="m385.27 375.4v0h0.17l0.23-0.05v0-0.39l-0.06-0.39v0h-0.17l-0.17-0.06v0l-0.05 0.45 0.05 0.44v0zm1.12 1.18v0l0.23-0.05 0.17-0.06v0-0.34-0.44 0h-0.4v0l-0.05 0.44 0.05 0.45v0zm-1 1.01v0h0.22l0.23-0.05v0-0.46l-0.06-0.32v0l-0.34-0.06v0l-0.05 0.44v0.45 0zm1.9 0.11v0l-1.18 0.11-1.11 0.06v0-2.63l0.11-2.13v0l0.16 0.17 0.17 0.23 0.29 0.61 0.27 0.56 0.17 0.28v0l0.17-0.28 0.23-0.56 0.33-0.61 0.22-0.34v0l0.06 2.35 0.05 1.51 0.06 0.67v0z" fill="#094" stroke="#094" stroke-linecap="round" stroke-linejoin="round" stroke-miterlimit="10" stroke-width=".12"/>
<path d="m395.97 373.56v0l-0.5-0.73-0.51-0.78-0.89-1.63v0l1.23 0.68 0.84 0.45 0.95 0.39 0.95 0.34 0.5 0.1 0.51 0.06h0.5 0.46l0.44-0.11 0.39-0.16v0l-1.85-1.02-1.79-1.06-1.57-1.12-1.5-1.12-1.36-1.12-1.11-1.17-0.56-0.57-0.45-0.61-0.45-0.55-0.39-0.57v0l0.67 0.34 1.29 0.67 0.84 0.4 0.84 0.27 0.79 0.17h0.39 0.33v0l-1.56-1.28-1.35-1.29-1.17-1.24-0.96-1.17v0l0.45 0.27 0.56 0.34 1.34 0.73 1.23 0.61 0.9 0.34v0l-0.11-0.61-0.11-0.78v0l1.79 1.39 1.18 0.79 0.44 0.33 0.4 0.17v0l-0.11-0.67-0.12-0.73v0l0.78 0.39 0.79 0.34 0.78 0.28 0.84 0.17 0.84 0.05h0.4l0.44-0.05 0.45-0.06 0.45-0.17 0.39-0.16 0.45-0.23v0l-1.4-0.39-1.34-0.4-1.41-0.5-1.34-0.5-1.29-0.62-1.23-0.56-1.23-0.61-1.12-0.67-1.06-0.67-0.96-0.62-0.89-0.68-0.78-0.66-0.73-0.62-0.57-0.61-0.44-0.56-0.34-0.56v0l0.96 0.44 1.28 0.45 0.73 0.23 0.67 0.16 0.68 0.06h0.67v0l-1.24-0.67-1-0.73-0.95-0.67-0.79-0.62-0.61-0.62-0.51-0.55-0.28-0.5-0.17-0.45v0l0.84 0.55 0.84 0.45 0.9 0.34 0.89 0.28v0l-0.33-1.23v0l1.17 0.5 0.78 0.34 0.4 0.11h0.39 0.51l0.56-0.06v0-0.05 0l-1.07-0.51-1.17-0.67-1.24-0.78-1.17-0.79-1.12-0.78-0.9-0.67-0.67-0.62-0.22-0.22-0.12-0.22v0l1.01 0.16 0.84 0.12 0.73 0.11v0l-0.51-0.39-0.55-0.51-1.18-1.17-0.95-1.07-0.45-0.56v0l-0.22 0.5-0.28 0.52-0.28 0.5-0.34 0.44-0.39 0.45-0.9 0.9-0.5 0.39v0l1.07-0.17 1-0.17v0l-0.22 0.39-0.34 0.39-0.78 0.79-1.07 0.84-1.12 0.78-1.29 0.79-1.22 0.72-1.24 0.62-1.12 0.5v0l0.11 0.06 0.23 0.06 0.45 0.05 0.5-0.11 0.56-0.17 1.17-0.45 1.07-0.44v0l-0.17 0.5-0.16 0.56v0l0.44-0.17 0.45-0.17 0.95-0.56 1.01-0.66 0.84-0.73v0 0.05 0l-0.9 1.52-0.44 0.61-0.51 0.62-0.56 0.55-0.61 0.61-0.85 0.68-0.95 0.78v0h0.29l0.44-0.05 0.56-0.17 0.67-0.22 0.79-0.39 0.73-0.45 0.78-0.56 0.39-0.4 0.34-0.38v0l-0.17 0.44-0.23 0.51-0.22 0.44-0.33 0.45-0.73 0.89-0.84 0.9-1.01 0.9-1.07 0.84-1.17 0.84-1.23 0.78-1.29 0.78-1.29 0.68-1.29 0.67-1.28 0.56-1.29 0.5-1.23 0.45-1.18 0.33-1.06 0.29v0l0.11 0.16 0.23 0.22 0.22 0.17 0.22 0.11 0.34 0.12 0.33 0.11 0.45 0.06h0.45l0.56-0.11 0.56-0.12 0.67-0.22 0.79-0.34 0.78-0.45 0.89-0.56v0l-0.06 1.17v0l0.9-0.5 1.01-0.67 1.01-0.78 1.01-1.01v0l-0.12 0.73-0.05 0.68v0l0.45-0.18 0.5-0.22 1.12-0.56 1.23-0.84 1.4-1.01v0 0.06 0l-0.33 0.45-0.51 0.67-1.4 1.57-2.52 2.63v0l0.39-0.06 0.4-0.12 0.89-0.32 0.84-0.46 0.84-0.5 0.79-0.56 0.67-0.45 0.67-0.5v0.06 0l-0.5 0.84-0.51 0.84-0.62 0.84-0.61 0.73-0.62 0.72-0.66 0.73-0.74 0.67-0.72 0.61-0.78 0.62-0.79 0.56-1.68 1-1.68 0.96-1.79 0.79v0l0.56 0.16 0.72 0.05 0.91-0.05 0.5-0.05 0.5-0.11 0.56-0.18 0.56-0.22 0.62-0.22 0.61-0.34 0.62-0.33 0.67-0.46 0.67-0.5 0.73-0.56v0l-0.61 1.85-0.34 0.78-0.34 0.68v0l0.4-0.12 0.44-0.17 1.01-0.55 0.96-0.56 0.44-0.17 0.28-0.11v0l0.06 0.22v0.23l-0.06 0.44-0.4 1.13v0l0.06 0.05h0.12l0.28-0.11 0.38-0.17 0.4-0.23 0.95-0.56 0.9-0.61v0l0.89 0.95 0.79 0.89v0l0.72-0.94 0.9-1.13v0l1.01 0.73 0.89 0.67 0.84 0.51 0.34 0.16 0.39 0.11v0l-0.67-2.68-0.11-0.39v-0.28 0l0.95 0.9 0.62 0.61 0.72 0.56 0.78 0.56 0.79 0.5 0.78 0.34 0.4 0.11h0.39v0z" fill="#094" stroke="#094" stroke-linecap="round" stroke-linejoin="round" stroke-miterlimit="10" stroke-width=".12"/>
<path d="m400.9 405.18 1.51-0.73 1.46-0.78 1.39-0.89 1.35-0.95 1.23-1.07 1.12-1.12 1.12-1.22 1.01-1.29 0.89-1.35 0.84-1.45 0.79-1.57 0.73-1.63 0.61-1.67 0.57-1.74 0.44-1.9 0.4-1.9-0.51 0.34-0.62 0.44-0.56 0.5-0.73 0.51-1.06 0.73-1.01 0.78-0.95 0.73-1.01 0.72-0.73 0.45h-0.17l0.57-1.12 0.27-0.62 0.29-0.67-1.85 1.24-0.73 0.5-0.39 0.17-1.18 0.5h-0.22l0.11-0.17 0.11-0.16 0.22-0.51 0.12-0.45 0.11-0.45-2.18 1.13-0.62 0.33-0.67 0.28-1.51 0.62-0.17 0.11 0.06-0.22 0.28-0.4 0.45-0.72 0.33-0.73v-0.06l-1.24 0.5-1.28 0.62-1.24 0.45-1.23 0.45-0.05-0.06h-0.06l0.51-0.84 0.28-0.51 0.17-0.33-1.01 0.22-0.95 0.23-1.57 0.28-1.57 0.17h-1.18l-0.5-0.06h-0.5l-0.29 0.06-0.27 0.05-1.57 0.34v1.45 1.52l0.45 0.16 0.39 0.23 0.34 0.27 0.33 0.34 0.56 0.68 0.45 0.78 0.34 0.73 0.21 0.78 0.12 0.67 0.06 0.56 0.55-0.28 0.57-0.28 0.56-0.17 0.55-0.11 0.56-0.11h0.51 0.51l0.5 0.05 0.5 0.11 0.45 0.12 0.45 0.16 0.45 0.23 0.38 0.22 0.4 0.29 0.39 0.27 0.67 0.67 0.28 0.4 0.23 0.39 0.22 0.39 0.22 0.45 0.17 0.39 0.17 0.45 0.06 0.44 0.05 0.45 0.06 0.5v0.46l-0.06 0.44-0.22 0.9-0.17 0.45-0.22 0.44z" fill="#fff"/>
<path d="m416.68 358.62-0.5 0.33-0.45 0.34-0.39 0.28-0.33 0.28-0.56 0.5 0.05 0.11 1.07-0.06-0.12 0.18-0.33 0.22-0.62 0.5-0.56 0.34-2.18 1.4 0.28 0.06h0.44l0.68-0.06 0.67-0.17v0.05l-2.24 1.35-1.11 0.72-1.75 1.13v0.05l0.79 0.06h0.78l0.23-0.06-1.18 0.84-1.23 0.73-0.78 0.45-1.4 0.73v0.05l0.22 0.11 0.23-0.05h0.33 0.56l0.34-0.06 0.33-0.05v0.05l-0.72 0.5-0.73 0.45-1.12 0.73-0.51 0.28-0.56 0.22-1.12 0.45v0.11l0.17 0.12 1.12 0.22v0.12l-1.79 1.05-0.61 0.29-1.41 0.66-0.66 0.29-0.74 0.22v0.11l0.17 0.06 0.05 0.11 0.4 0.12 0.33 0.22v0.05l-0.39 0.28-0.5 0.29-0.5 0.27-0.5 0.17-1.47 0.4v0.1l0.56 0.34-0.61 0.39h-0.23l-0.27 0.22-0.57 0.23h-0.11-0.22-0.78l-1.23-0.12-2.47-0.11-1.45-0.05h-1.12v-0.39l-0.06-0.34-0.06-1.17-0.06-2.69v-0.95l0.51 0.5 0.45 0.34 0.56 0.45 0.67 0.39 0.73 0.27 0.39 0.12 0.39 0.06 0.45 0.05h0.44l-0.11-0.28-0.27-0.61-0.4-0.84-0.16-0.5-0.11-0.46 0.5 0.57 0.5 0.5 0.57 0.5 0.66 0.45 0.73 0.33 0.4 0.17 0.44 0.06 0.45 0.11h0.45 0.5l0.56-0.05v-0.06l-0.78-0.96-0.39-0.55-0.11-0.23v-0.11l0.27 0.23 0.28 0.16 0.34 0.12 0.39 0.11 0.79 0.16 0.9 0.06 0.89-0.06 0.89-0.21 0.9-0.29 0.39-0.17 0.39-0.22-1.4-0.62-1.34-0.67-1.35-0.78-1.28-0.84-2.58-1.9-1.23-0.96-1.18-1.05-0.11-0.06-0.05-0.06 0.39 0.12 0.5 0.16 1.34 0.28 1.52 0.17 0.72 0.05h0.68l-2.08-1.68-2.18-1.73 0.4 0.22 0.67 0.4 0.78 0.27 0.39 0.12 0.28 0.06-0.11-0.29-0.05-0.22-0.06-0.4 0.67 0.57 0.61 0.45 0.62 0.33 0.62 0.28 0.51 0.17 0.5 0.11h0.34l0.27-0.05-0.17-0.17-0.1-0.17-0.18-0.29v-0.27-0.17l0.5 0.17 0.68 0.22 0.84 0.23 0.45 0.05 0.44 0.06h0.51l0.56-0.06 0.56-0.11 0.5-0.17 0.62-0.22 0.56-0.34 0.56-0.39 0.56-0.5-2.19-0.51-2.12-0.61-2.13-0.73-2.07-0.84-1.96-0.95-0.96-0.5-0.89-0.56-0.9-0.51-0.84-0.56-0.78-0.61-0.72-0.56 1.62 0.17 0.61 0.05h0.56l0.51-0.05 0.56-0.12 0.55-0.22 0.68-0.28-0.78-0.11-0.74-0.23-0.78-0.34-0.79-0.38-0.72-0.46-0.73-0.44-0.67-0.5-0.67-0.51 1.23 0.29 1.51 0.33-0.06-0.11-0.1-0.22-0.29-0.45 1.8 0.16h0.56l0.39-0.05 0.34-0.06 0.33-0.17 0.89-0.45-2.06-0.89-0.96-0.45-0.9-0.5-0.89-0.51-0.89-0.56-0.9-0.61-0.84-0.67h0.95l0.68-0.06 0.27-0.11 0.23-0.12-1.79-1.39-0.73-0.61-0.68-0.62-0.55-0.67-0.62-0.78-0.56-0.9-0.56-1.12-0.17 0.61-0.28 0.57-0.22 0.55-0.28 0.56-0.62 0.95-0.73 0.85-0.66 0.66-0.79 0.56-0.73 0.4-0.34 0.17-0.39 0.1 0.28 0.11 0.29 0.12 0.61 0.11 0.67 0.06h0.78l-1.06 0.84-1.12 0.78-1.01 0.68-1.06 0.61-1.01 0.55-1.01 0.46-0.95 0.38-1.01 0.34 0.23 0.23 0.17 0.16 0.27 0.18 0.28 0.16 0.29 0.06 0.27 0.11 0.67 0.05 0.68-0.05 0.61-0.11 0.57-0.17 0.38-0.17-0.11 0.39-0.11 0.34 0.22 0.05h0.23 0.23l0.27-0.05 0.62-0.28 0.72-0.33-1.11 1.11-1.07 0.89-0.55 0.4-0.51 0.33-0.51 0.29-0.5 0.28 0.12 0.11 0.33 0.11 0.39 0.05 0.5 0.06 0.62-0.06 0.73-0.11 0.78-0.22 0.9-0.34-0.78 0.79-0.9 0.78-0.95 0.73-1.01 0.67-1.06 0.67-1.07 0.67-1.12 0.61-1.11 0.57-1.13 0.5-1.06 0.45-1.12 0.45-1.07 0.39-1 0.28-0.96 0.28-0.89 0.22-0.84 0.11v0.06l0.73 0.67 0.33 0.29 0.4 0.27 0.39 0.23 0.39 0.16 0.45 0.12 0.39 0.11 0.45 0.05h0.5 0.45l0.5-0.1 0.45-0.12 0.56-0.22 0.51-0.23 0.55-0.27v0.16l-0.05 0.16-0.22 0.4-0.51 0.67h0.17l0.17-0.05 0.61-0.18 0.73-0.38 0.78-0.46 0.84-0.44 0.68-0.5 0.56-0.45 0.16-0.22 0.12-0.17-0.06 0.39-0.17 0.61 0.39-0.11 0.68-0.27 0.67-0.4 0.33-0.22 0.29-0.29-0.12 0.34-0.33 0.34-0.39 0.45-0.56 0.44-1.12 0.9-0.95 0.78 0.27 0.12 0.34 0.06h0.67l0.67-0.12 0.68-0.17 0.66-0.23 0.68-0.27 1.23-0.57-1.4 1.41-1.4 1.29-1.45 1.11-1.41 0.96-1.45 0.84-0.73 0.39-0.73 0.28-0.72 0.33-0.73 0.23-0.73 0.22-0.73 0.17 0.22 0.11 0.57 0.28 0.84 0.28 0.56 0.17 0.61 0.05 0.67 0.06h0.68l0.77-0.06 0.79-0.16 0.84-0.23 0.84-0.39 0.9-0.45 0.9-0.61-0.06 0.22-0.12 0.34-0.1 0.28-0.23 0.33-0.51 0.67-0.55 0.79 0.45-0.06 1-0.22 0.56-0.17 0.51-0.23 0.55-0.27 1.18-0.67-0.22 0.55-0.33 0.79-0.45 0.95 0.61-0.06 0.56-0.16 0.56-0.18 0.5-0.27 1.12-0.68 1.18-0.84v2.02l-0.06 3.36-0.05 0.22-0.51 0.12-0.44 0.11-0.18 0.17h-0.55l-0.51 0.11-0.5 0.11-0.44 0.11-0.4 0.23-0.33 0.16-0.68 0.45-0.5 0.44-0.34 0.52-0.22 0.38-0.12 0.28h0.28l0.29-0.05 0.5-0.11v0.11l-0.89 0.44-0.74 0.51-0.61 0.51-0.39 0.55 2.29-0.05-0.05 0.28-2.18 0.06 0.1 0.21 0.23 0.29 0.67 0.66 0.39 0.34 0.39 0.28 0.45 0.22 0.39 0.23v0.06h-0.28l-0.33 0.05-0.62 0.06 0.68 0.72 0.55 0.57 0.51 0.44 0.5 0.28 0.56 0.28 0.56 0.22 1.52 0.51 0.66 0.28 0.07 1.34-0.07 1.4-0.55 0.28-0.51 0.28-0.44 0.34-0.4 0.28-0.33 0.34-0.34 0.39-0.22 0.33-0.23 0.34-0.39 0.78-0.22 0.79-0.17 0.72-0.11 0.79-0.5-0.28-0.51-0.23-0.51-0.16-0.44-0.12-0.51-0.11-0.5-0.06h-0.45-0.44l-0.51 0.06-0.44 0.05-0.4 0.18-0.44 0.1-0.4 0.23-0.39 0.17-0.73 0.55-0.61 0.57-0.28 0.33-0.29 0.4-0.22 0.38-0.22 0.4-0.17 0.39-0.12 0.45-0.11 0.45-0.05 0.44-0.06 0.51v0.45l0.06 0.5 0.22 1 0.17 0.51-1.68-1.01-1.57-1.18-1.51-1.22-1.46-1.35-1.34-1.4-1.23-1.51-1.18-1.56-1.06-1.68-0.96-1.74-0.78-1.79-0.72-1.91-0.62-1.89-0.28-1.02-0.17-0.95-0.22-1-0.17-1.01-0.11-1.06-0.06-1.01-0.05-1.06-0.06-1.07v-38.11h60.69v18.47z" fill="#fff"/>
<path d="m382.48 387.61 0.28-0.06 0.06-0.06 0.1-0.05v-0.17l-0.05-0.16-0.05-0.17-0.12-0.11-0.11-0.18-0.45-0.21-0.45-0.06-1.28 0.06-0.51 0.05 0.73 0.56 0.61 0.39 0.34 0.11 0.45 0.06h0.22 0.23z" fill="#fff"/>
<path d="m381.64 385.31 0.28-0.11 0.16-0.05 0.17-0.17 0.05-0.11v-0.45l-0.11-0.28-0.16-0.11-0.17-0.06h-1.01l-2.52 0.06 0.34 0.28 0.78 0.45 0.4 0.22 0.38 0.11 0.57 0.17 0.39 0.05h0.45z" fill="#fff"/>
<path d="m382.25 382.24 0.11-0.11v-0.17l-0.06-0.34-0.11-0.22-0.11-0.11-0.1-0.06-0.18-0.06h-0.11l-0.28 0.06-1 0.17-0.51 0.16-0.45 0.23-0.44 0.28-0.4 0.22-0.17 0.11-0.16 0.12 0.89 0.06h0.9l1.01-0.06h0.38l0.4-0.06 0.22-0.06 0.17-0.16z" fill="#fff"/>
<path d="m379.85 380.45 0.27-0.06 0.29-0.06 1.11-0.05 0.62-0.11 0.22-0.06 0.17-0.12h0.06l0.17-0.11 0.11-0.21 0.27-0.4-0.11-0.12-0.27-0.05h-0.28l-0.4 0.05-0.44 0.12-0.5 0.17-0.34 0.17-0.5 0.33-0.29 0.23-0.11 0.11-0.05 0.17z" fill="#fff"/>
</g>
</g>
</g>
</svg>
