<?xml version="1.0" encoding="UTF-8" standalone="no"?>
<!-- Created with Inkscape (http://www.inkscape.org/) -->
<svg
   xmlns:svg="http://www.w3.org/2000/svg"
   xmlns="http://www.w3.org/2000/svg"
   version="1.0"
   width="298.76001"
   height="333.53"
   id="svg2">
  <defs
     id="defs4">
    <clipPath
       id="clipPath3416">
      <path
         d="M 418.2,712.68 L 421.56,712.68 L 421.56,700.33 L 418.2,700.33 L 418.2,712.68 z"
         id="path3418" />
    </clipPath>
    <clipPath
       id="clipPath3398">
      <path
         d="M 354.48,710.28 L 418.19,710.28 L 418.19,638.65 L 354.48,638.65 L 354.48,710.28 z"
         id="path3400" />
    </clipPath>
    <clipPath
       id="clipPath3386">
      <path
         d="M 354.48,710.28 L 418.19,710.28 L 418.19,638.65 L 354.48,638.65 L 354.48,710.28 z"
         id="path3388" />
    </clipPath>
    <clipPath
       id="clipPath3306">
      <path
         d="M 418.2,612.72 L 421.56,612.72 L 421.56,600.36 L 418.2,600.36 L 418.2,612.72 z"
         id="path3308" />
    </clipPath>
    <clipPath
       id="clipPath3278">
      <path
         d="M 354.48,610.32 L 418.19,610.32 L 418.19,538.68 L 354.48,538.68 L 354.48,610.32 z"
         id="path3280" />
    </clipPath>
    <clipPath
       id="clipPath3266">
      <path
         d="M 354.48,610.32 L 418.19,610.32 L 418.19,538.68 L 354.48,538.68 L 354.48,610.32 z"
         id="path3268" />
    </clipPath>
    <clipPath
       id="clipPath3188">
      <path
         d="M 418.2,512.64 L 421.56,512.64 L 421.56,500.28 L 418.2,500.28 L 418.2,512.64 z"
         id="path3190" />
    </clipPath>
    <clipPath
       id="clipPath3126">
      <path
         d="M 354.48,510.24 L 418.19,510.24 L 418.19,438.61 L 354.48,438.61 L 354.48,510.24 z"
         id="path3128" />
    </clipPath>
    <clipPath
       id="clipPath3114">
      <path
         d="M 354.48,510.24 L 418.19,510.24 L 418.19,438.61 L 354.48,438.61 L 354.48,510.24 z"
         id="path3116" />
    </clipPath>
    <clipPath
       id="clipPath3042">
      <path
         d="M 418.2,412.68 L 421.56,412.68 L 421.56,400.32 L 418.2,400.32 L 418.2,412.68 z"
         id="path3044" />
    </clipPath>
    <clipPath
       id="clipPath3016">
      <path
         d="M 354.48,410.28 L 418.19,410.28 L 418.19,338.65 L 354.48,338.65 L 354.48,410.28 z"
         id="path3018" />
    </clipPath>
    <clipPath
       id="clipPath3004">
      <path
         d="M 354.48,410.28 L 418.19,410.28 L 418.19,338.65 L 354.48,338.65 L 354.48,410.28 z"
         id="path3006" />
    </clipPath>
    <clipPath
       id="clipPath2934">
      <path
         d="M 418.2,312.72 L 421.56,312.72 L 421.56,300.36 L 418.2,300.36 L 418.2,312.72 z"
         id="path2936" />
    </clipPath>
    <clipPath
       id="clipPath2902">
      <path
         d="M 354.48,310.32 L 418.19,310.32 L 418.19,238.69 L 354.48,238.69 L 354.48,310.32 z"
         id="path2904" />
    </clipPath>
    <clipPath
       id="clipPath2890">
      <path
         d="M 354.48,310.32 L 418.19,310.32 L 418.19,238.69 L 354.48,238.69 L 354.48,310.32 z"
         id="path2892" />
    </clipPath>
    <clipPath
       id="clipPath2820">
      <path
         d="M 418.2,212.64 L 421.56,212.64 L 421.56,200.29 L 418.2,200.29 L 418.2,212.64 z"
         id="path2822" />
    </clipPath>
    <clipPath
       id="clipPath2796">
      <path
         d="M 354.48,210.24 L 418.19,210.24 L 418.19,138.6 L 354.48,138.6 L 354.48,210.24 z"
         id="path2798" />
    </clipPath>
    <clipPath
       id="clipPath2784">
      <path
         d="M 354.48,210.24 L 418.19,210.24 L 418.19,138.6 L 354.48,138.6 L 354.48,210.24 z"
         id="path2786" />
    </clipPath>
    <clipPath
       id="clipPath2710">
      <path
         d="M 422.04,110.76 L 422.04,135.12 L 549.12,135.12 L 549.12,110.76 L 545.88,110.76 L 545.88,125.88 L 425.28,125.88 L 425.28,110.76 L 422.04,110.76 z"
         id="path2712" />
    </clipPath>
    <clipPath
       id="clipPath2688">
      <path
         d="M 351.12,110.76 L 351.12,135.12 L 354.48,135.12 L 354.48,110.76 L 351.12,110.76 z M 418.32,110.76 L 418.32,135.12 L 421.56,135.12 L 421.56,110.76 L 418.32,110.76 z"
         id="path2690" />
    </clipPath>
    <clipPath
       id="clipPath2666">
      <path
         d="M 288.84,110.76 L 288.84,135.12 L 350.64,135.12 L 350.64,110.76 L 347.4,110.76 L 347.4,132.84 L 292.08,132.84 L 292.08,110.76 L 288.84,110.76 z"
         id="path2668" />
    </clipPath>
    <clipPath
       id="clipPath2650">
      <path
         d="M 147.12,110.76 L 147.12,135.12 L 288.36,135.12 L 288.36,110.76 L 285.12,110.76 L 285.12,125.88 L 150.36,125.88 L 150.36,110.76 L 147.12,110.76 z"
         id="path2652" />
    </clipPath>
    <clipPath
       id="clipPath2634">
      <path
         d="M 67.68,110.76 L 67.68,135.12 L 146.64,135.12 L 146.64,110.76 L 143.28,110.76 L 143.28,125.88 L 70.92,125.88 L 70.92,110.76 L 67.68,110.76 z"
         id="path2636" />
    </clipPath>
    <clipPath
       id="clipPath2502">
      <path
         d="M 70.92,803.76 L 574.44,803.76 L 574.44,774.97 L 70.92,774.97 L 70.92,803.76 z"
         id="path2504" />
    </clipPath>
    <clipPath
       id="clipPath2480">
      <path
         d="M 70.92,803.76 L 574.44,803.76 L 574.44,801.97 L 70.92,801.97 L 70.92,803.76 z"
         id="path2482" />
    </clipPath>
    <clipPath
       id="clipPath2470">
      <path
         d="M 70.92,776.76 L 574.44,776.76 L 574.44,774.97 L 70.92,774.97 L 70.92,776.76 z"
         id="path2472" />
    </clipPath>
  </defs>
  <g
     transform="translate(-152.74656,-107.67876)"
     id="layer1">
    <g
       transform="matrix(3.5119447,0,0,3.5119447,-798.72699,-418.27487)"
       id="g5417">
      <g
         transform="matrix(1.25,0,0,1.25,-169.46518,-20.77855)"
         id="g2780">
        <g
           clip-path="url(#clipPath2784)"
           id="g2782">
          <g
             id="g2788">
            <path
               d="M 354.59,138.71 L 418.09,138.71 L 418.09,178.39 L 418.09,178.39 L 418.09,180.01 L 417.92,181.63 L 417.75,183.2 L 417.47,184.77 L 417.08,186.34 L 416.68,187.85 L 416.18,189.31 L 415.62,190.76 L 414.95,192.16 L 414.28,193.5 L 413.5,194.84 L 412.71,196.13 L 411.82,197.36 L 410.86,198.59 L 409.85,199.72 L 408.8,200.84 L 407.73,201.9 L 406.55,202.85 L 405.38,203.8 L 404.09,204.7 L 402.8,205.54 L 401.51,206.26 L 400.11,206.99 L 398.71,207.61 L 397.26,208.16 L 395.8,208.67 L 394.29,209.12 L 392.77,209.45 L 391.21,209.73 L 389.59,209.96 L 388.02,210.07 L 386.34,210.13 L 386.34,210.13 L 384.71,210.07 L 383.09,209.96 L 381.52,209.73 L 379.96,209.45 L 378.44,209.12 L 376.93,208.67 L 375.42,208.16 L 374.02,207.61 L 372.62,206.99 L 371.22,206.26 L 369.88,205.54 L 368.59,204.7 L 367.36,203.8 L 366.18,202.85 L 365,201.9 L 363.95,200.84 L 362.88,199.72 L 361.87,198.59 L 360.92,197.36 L 360.02,196.13 L 359.23,194.84 L 358.45,193.5 L 357.73,192.16 L 357.11,190.76 L 356.55,189.31 L 356.05,187.85 L 355.6,186.34 L 355.26,184.77 L 354.98,183.2 L 354.76,181.63 L 354.64,180.01 L 354.59,178.39 L 354.59,138.71 z"
               id="path2790"
               style="fill:#000000;fill-opacity:1;fill-rule:evenodd;stroke:none" />
          </g>
        </g>
      </g>
      <g
         transform="matrix(1.25,0,0,1.25,-169.46518,-20.77855)"
         id="g2792">
        <g
           clip-path="url(#clipPath2796)"
           id="g2794">
          <path
             d="M 355.99,140.11 L 416.68,140.11 L 416.68,178.22 L 416.68,178.22 L 416.68,179.79 L 416.57,181.36 L 416.36,182.87 L 416.07,184.38 L 415.73,185.84 L 415.34,187.29 L 414.84,188.69 L 414.34,190.09 L 413.72,191.43 L 413.05,192.77 L 412.32,194.06 L 411.53,195.29 L 410.69,196.47 L 409.8,197.65 L 408.85,198.71 L 407.84,199.77 L 406.78,200.77 L 405.66,201.79 L 404.54,202.68 L 403.3,203.52 L 402.08,204.31 L 400.84,205.04 L 399.49,205.7 L 398.15,206.32 L 396.81,206.88 L 395.36,207.33 L 393.95,207.77 L 392.5,208.11 L 390.99,208.39 L 389.48,208.56 L 387.91,208.67 L 386.34,208.73 L 386.34,208.73 L 384.77,208.67 L 383.26,208.56 L 381.75,208.39 L 380.23,208.11 L 378.78,207.77 L 377.33,207.33 L 375.92,206.88 L 374.53,206.32 L 373.18,205.7 L 371.89,205.04 L 370.61,204.31 L 369.38,203.52 L 368.2,202.68 L 367.08,201.79 L 365.95,200.77 L 364.89,199.77 L 363.89,198.71 L 362.93,197.65 L 362.04,196.47 L 361.2,195.29 L 360.41,194.06 L 359.68,192.77 L 359.02,191.43 L 358.39,190.09 L 357.84,188.69 L 357.39,187.29 L 356.94,185.84 L 356.61,184.38 L 356.39,182.87 L 356.16,181.36 L 356.05,179.79 L 355.99,178.22 L 355.99,140.11 z M 386.39,166.47 L 389.59,158.97 L 396.7,160.09 L 396.7,160.09 L 396.7,160.04 L 396.7,160.04 L 394.24,157.07 L 391.88,154.33 L 397.04,148.11 L 389.81,149.4 L 386.34,141.73 L 386.34,141.73 L 383.37,149.29 L 375.14,148.11 L 380.3,154.49 L 375.42,160.15 L 383.76,159.53 L 386.39,166.47 z M 390.43,196.81 L 390.43,196.81 L 391.83,195.79 L 391.83,195.79 L 391.83,196.02 L 391.77,196.3 L 391.49,196.86 L 391.15,197.36 L 390.88,197.75 L 390.88,197.75 L 391.1,197.81 L 391.49,197.75 L 391.99,197.65 L 392.56,197.48 L 393.23,197.25 L 393.84,196.91 L 394.4,196.52 L 394.68,196.3 L 394.9,196.02 L 394.9,196.02 L 394.85,196.24 L 394.68,196.7 L 394.45,197.14 L 394.24,197.59 L 394.24,197.59 L 394.74,197.42 L 395.18,197.25 L 395.69,197.02 L 396.14,196.75 L 396.58,196.36 L 397.04,195.97 L 397.48,195.52 L 397.88,195.01 L 397.88,195.01 L 397.76,195.74 L 397.65,196.41 L 397.65,196.41 L 397.93,196.3 L 398.33,196.13 L 398.77,195.91 L 399.22,195.63 L 399.61,195.29 L 400.01,194.96 L 400.33,194.51 L 400.56,194.12 L 400.56,194.12 L 400.56,194.57 L 400.51,194.9 L 400.28,195.57 L 400.28,195.57 L 401.01,195.01 L 401.01,195.01 L 401.74,194.34 L 402.24,193.73 L 402.52,193.39 L 402.74,193 L 403.25,191.88 L 403.25,191.88 L 403.3,192.43 L 403.3,192.95 L 403.19,194 L 403.19,194 L 403.98,193.17 L 404.6,192.43 L 405.04,191.6 L 405.49,190.59 L 405.49,190.59 L 405.77,191.15 L 405.83,191.26 L 405.94,191.38 L 406.05,191.38 L 406.16,191.38 L 406.16,191.38 L 406.1,191.09 L 406.05,190.82 L 406.05,190.54 L 406.05,190.54 L 406.1,190.15 L 406.27,189.64 L 406.72,188.24 L 406.94,187.4 L 407.17,186.45 L 407.28,185.38 L 407.28,184.32 L 407.28,184.32 L 407.23,183.59 L 407.11,182.81 L 406.78,181.13 L 406.33,179.63 L 406.16,179 L 405.94,178.5 L 405.04,175.88 L 405.04,175.88 L 405.04,175.76 L 405.1,175.59 L 405.1,175.59 L 406.21,175.43 L 407.17,175.2 L 408.01,174.92 L 408.8,174.64 L 409.46,174.31 L 410.02,173.91 L 410.53,173.47 L 410.98,172.96 L 411.32,172.4 L 411.59,171.84 L 411.87,171.17 L 412.04,170.5 L 412.15,169.77 L 412.21,168.99 L 412.27,168.09 L 412.27,167.2 L 412.27,167.2 L 411.53,167.48 L 410.86,167.65 L 410.36,167.76 L 410.36,167.76 L 408.68,167.7 L 407,167.7 L 405.21,167.76 L 403.42,167.87 L 403.42,167.87 L 403.08,164.68 L 403.03,163.45 L 403.03,162.44 L 403.08,161.93 L 403.19,161.54 L 403.3,161.09 L 403.47,160.76 L 403.7,160.37 L 403.92,160.04 L 404.26,159.7 L 404.6,159.36 L 404.6,159.36 L 403.3,159.42 L 402.08,159.59 L 401.01,159.75 L 400.01,160.04 L 399.17,160.37 L 398.38,160.7 L 397.7,161.15 L 397.15,161.6 L 396.7,162.1 L 396.36,162.66 L 396.08,163.28 L 395.92,163.9 L 395.86,164.57 L 395.86,165.29 L 395.97,166.02 L 396.14,166.75 L 396.14,166.75 L 395.41,166.75 L 394.68,166.81 L 394.68,166.81 L 394.45,166.92 L 394.24,166.97 L 393.79,167.14 L 393.79,167.14 L 393.29,167.2 L 393.29,167.2 L 392.77,167.31 L 392.33,167.48 L 392.33,167.48 L 392.22,167.59 L 392.11,167.7 L 392.11,167.7 L 391.88,167.7 L 391.66,167.76 L 391.21,167.81 L 391.21,167.81 L 390.59,167.98 L 389.98,168.26 L 389.98,168.26 L 389.86,168.38 L 389.75,168.49 L 389.48,168.76 L 389.48,168.76 L 389.31,168.88 L 389.08,168.99 L 388.69,169.21 L 388.69,169.21 L 388.64,169.32 L 388.52,169.43 L 388.24,169.6 L 388.24,169.6 L 387.91,170.05 L 387.63,170.5 L 387.4,171 L 387.23,171.51 L 387.23,171.51 L 387.85,171.23 L 388.41,170.95 L 388.91,170.78 L 389.42,170.72 L 389.42,170.72 L 389.42,170.78 L 389.36,170.84 L 389.36,170.84 L 388.52,171.62 L 387.74,172.34 L 387.74,172.34 L 385.44,173.18 L 383.43,174.08 L 382.48,174.52 L 381.64,174.98 L 380.85,175.43 L 380.12,175.93 L 380.12,175.93 L 378.22,175.88 L 376.48,175.88 L 374.8,175.93 L 373.24,176.09 L 373.24,176.09 L 373.52,175.31 L 373.9,174.64 L 374.3,174.02 L 374.74,173.47 L 375.26,172.96 L 375.76,172.51 L 376.26,172.18 L 376.71,171.9 L 376.71,171.9 L 376.15,171.84 L 375.53,171.9 L 374.97,171.95 L 374.47,172.07 L 373.9,172.18 L 373.4,172.34 L 372.9,172.57 L 372.45,172.85 L 371.95,173.18 L 371.5,173.52 L 371.05,173.97 L 370.61,174.42 L 370.15,174.92 L 369.71,175.48 L 368.87,176.71 L 368.87,176.77 L 368.87,176.77 L 368.87,176.54 L 368.98,176.21 L 369.38,175.54 L 369.93,174.75 L 370.61,173.91 L 371.33,173.07 L 372.17,172.34 L 372.9,171.73 L 373.24,171.51 L 373.58,171.29 L 373.58,171.29 L 372.9,171.34 L 372.23,171.34 L 371.61,171.45 L 370.99,171.56 L 370.38,171.73 L 369.82,171.95 L 369.26,172.18 L 368.7,172.46 L 368.2,172.79 L 367.75,173.13 L 367.24,173.52 L 366.8,173.97 L 366.4,174.47 L 366.02,175.04 L 365.63,175.59 L 365.29,176.21 L 365.29,176.21 L 365.11,176.71 L 365,176.99 L 364.95,177.16 L 364.95,177.16 L 364.56,176.99 L 364.56,176.99 L 364.16,176.93 L 363.77,176.88 L 363.77,176.88 L 363.55,176.99 L 363.32,177.1 L 363.22,177.1 L 363.22,177.1 L 362.82,176.77 L 362.82,176.77 L 362.54,176.6 L 362.27,176.43 L 361.82,176.26 L 361.25,176.21 L 360.64,176.15 L 360.64,176.15 L 360.7,177.16 L 360.64,177.72 L 360.58,178.11 L 360.58,178.11 L 360.52,178.39 L 360.47,178.56 L 360.47,178.73 L 360.47,178.73 L 360.92,179 L 361.31,179.29 L 361.64,179.68 L 361.87,180.07 L 362.04,180.52 L 362.2,181.08 L 362.32,181.81 L 362.43,182.65 L 362.43,182.65 L 362.65,182.93 L 362.93,183.2 L 363.72,183.82 L 364.67,184.43 L 365.23,184.77 L 365.79,185.05 L 366.4,185.27 L 367.02,185.5 L 367.7,185.72 L 368.36,185.84 L 369.04,185.89 L 369.77,185.95 L 370.44,185.89 L 371.11,185.77 L 371.11,185.77 L 371.5,186.11 L 371.89,186.4 L 372.4,186.68 L 373.35,187.01 L 373.35,187.01 L 373.01,187.13 L 372.67,187.29 L 372.67,187.29 L 372.17,187.4 L 371.67,187.51 L 371.67,187.51 L 371.17,187.57 L 370.72,187.63 L 370.21,187.63 L 369.77,187.57 L 369.77,187.57 L 369.32,187.4 L 368.87,187.23 L 368.2,186.9 L 368.2,186.9 L 367.92,186.79 L 367.47,186.79 L 367.08,186.79 L 366.63,186.84 L 366.18,186.95 L 365.84,187.07 L 365.57,187.23 L 365.4,187.34 L 365.4,187.34 L 365.9,188.63 L 365.9,188.63 L 366.13,188.58 L 366.63,188.58 L 367.19,188.63 L 367.47,188.74 L 367.7,188.86 L 367.7,188.86 L 368.14,189.13 L 368.48,189.47 L 369.15,190.2 L 369.54,190.54 L 369.99,190.88 L 370.55,191.15 L 371.28,191.43 L 371.28,191.43 L 371.72,191.49 L 372.12,191.49 L 372.51,191.43 L 372.96,191.26 L 372.96,191.26 L 373.29,191.15 L 373.69,191.09 L 374.02,191.09 L 374.3,191.21 L 374.3,191.21 L 373.52,191.65 L 372.9,191.99 L 372.67,192.04 L 372.34,192.1 L 371.61,192.1 L 372.01,192.38 L 372.01,192.38 L 372.51,192.61 L 372.51,192.61 L 373.13,192.77 L 373.74,192.88 L 374.42,192.95 L 375.03,192.95 L 375.03,192.95 L 376.15,192.77 L 376.15,192.77 L 375.87,193.06 L 375.53,193.39 L 375.08,193.67 L 374.74,193.84 L 374.42,193.95 L 374.42,193.95 L 374.58,194 L 374.86,194.06 L 375.26,194.12 L 375.26,194.12 L 375.58,194.18 L 375.87,194.23 L 376.15,194.29 L 376.48,194.34 L 376.48,194.34 L 376.88,194.34 L 377.38,194.29 L 378.28,194.12 L 379.28,193.9 L 379.28,193.9 L 378.95,194.29 L 378.5,194.68 L 378.11,195.01 L 377.6,195.29 L 377.6,195.29 L 378.17,195.52 L 378.17,195.52 L 378.44,195.57 L 378.83,195.63 L 379.62,195.63 L 380.41,195.57 L 381.08,195.46 L 381.08,195.46 L 381.92,195.18 L 381.92,195.18 L 381.52,195.63 L 381.19,195.97 L 380.8,196.18 L 380.35,196.36 L 380.35,196.36 L 380.8,196.47 L 381.24,196.58 L 381.75,196.58 L 382.3,196.58 L 382.82,196.52 L 383.37,196.41 L 383.93,196.24 L 384.49,196.02 L 384.49,196.02 L 384.05,196.58 L 383.76,196.86 L 383.48,197.09 L 383.14,197.31 L 383.14,197.31 L 384.89,197.36 L 384.89,197.36 L 385.84,197.31 L 386.17,197.25 L 386.45,197.2 L 387.07,196.86 L 388.13,196.24 L 388.13,196.24 L 388.07,196.41 L 387.85,196.75 L 387.68,196.97 L 387.46,197.2 L 387.18,197.48 L 386.79,197.75 L 386.79,197.75 L 387.68,197.75 L 388.52,197.65 L 388.97,197.54 L 389.48,197.36 L 389.92,197.14 L 390.43,196.81 L 390.43,196.81 z"
             id="path2800"
             style="fill:#0093dd;fill-opacity:1;fill-rule:evenodd;stroke:#0093dd;stroke-width:0.12;stroke-linecap:round;stroke-linejoin:round;stroke-miterlimit:10;stroke-dasharray:none;stroke-opacity:1" />
          <path
             d="M 386.39,164.23 L 388.91,157.85 L 395.02,158.91 L 390.82,154.1 L 394.79,149.23 L 389.14,150.35 L 386.39,143.8 L 383.82,150.24 L 377.38,149.34 L 381.58,154.15 L 377.1,159.02 L 384.27,158.52 L 386.39,164.23 z"
             id="path2802"
             style="fill:#fcdb00;fill-opacity:1;fill-rule:evenodd;stroke:#fcdb00;stroke-width:0.12;stroke-linecap:round;stroke-linejoin:round;stroke-miterlimit:10;stroke-dasharray:none;stroke-opacity:1" />
          <path
             d="M 403.81,185.84 L 403.81,185.84 L 403.81,185.77 L 403.76,185.84 L 403.76,185.84 L 403.47,186.45 L 403.47,186.45 L 403.25,186.84 L 402.97,187.29 L 402.63,187.68 L 402.3,188.07 L 401.4,188.91 L 400.45,189.7 L 399.38,190.43 L 398.27,191.04 L 397.09,191.65 L 395.92,192.1 L 395.92,192.1 L 394.68,192.49 L 393.4,192.77 L 392.05,193 L 390.7,193.11 L 389.42,193.11 L 388.18,193.11 L 387.01,193 L 386,192.83 L 386,192.83 L 385.33,192.61 L 385.33,192.61 L 385.84,192.88 L 386.39,193.17 L 387.01,193.34 L 387.63,193.5 L 388.3,193.67 L 388.97,193.73 L 389.7,193.79 L 390.43,193.84 L 391.15,193.79 L 391.88,193.79 L 393.4,193.56 L 394.9,193.22 L 396.36,192.77 L 397.76,192.22 L 398.43,191.93 L 399.11,191.6 L 399.72,191.21 L 400.33,190.82 L 400.9,190.43 L 401.4,189.98 L 401.9,189.52 L 402.35,189.02 L 402.74,188.52 L 403.08,188.02 L 403.36,187.51 L 403.58,186.95 L 403.76,186.4 L 403.81,185.84 L 403.81,185.84 z M 386,191.32 L 386,191.32 L 386.34,191.15 L 387.01,190.65 L 387.35,190.31 L 387.68,189.98 L 387.96,189.64 L 388.13,189.36 L 388.13,189.36 L 388.18,188.97 L 388.18,188.97 L 387.74,189.02 L 387.29,189.02 L 387.29,189.02 L 387.18,189.36 L 387.01,189.75 L 386.62,190.43 L 386.23,191.04 L 386,191.32 L 386,191.32 z M 382.03,191.04 L 382.03,191.04 L 383.09,190.54 L 383.48,190.31 L 383.76,190.09 L 384.05,189.81 L 384.27,189.52 L 384.43,189.25 L 384.6,188.91 L 384.6,188.91 L 383.76,188.91 L 383.76,188.91 L 383.32,189.59 L 382.87,190.2 L 382.87,190.2 L 382.42,190.65 L 382.03,191.04 L 382.03,191.04 z M 389.64,190.98 L 389.64,190.98 L 390.09,190.7 L 390.54,190.37 L 390.54,190.37 L 390.88,190.04 L 391.27,189.59 L 391.66,189.08 L 391.77,188.86 L 391.83,188.69 L 391.83,188.69 L 391.88,188.41 L 391.88,188.41 L 390.93,188.58 L 390.93,188.58 L 390.77,188.97 L 390.59,189.42 L 390.59,189.42 L 390.15,190.2 L 389.64,190.98 L 389.64,190.98 z M 393.06,190.04 L 393.06,190.04 L 393.67,189.42 L 394.18,188.8 L 394.63,188.18 L 395.08,187.34 L 395.08,187.34 L 394.96,187.29 L 394.9,187.34 L 394.74,187.46 L 394.45,187.57 L 394.29,187.63 L 394.07,187.63 L 394.07,187.63 L 393.06,190.04 L 393.06,190.04 z M 396.02,189.31 L 396.02,189.31 L 396.36,189.08 L 396.75,188.74 L 397.09,188.35 L 397.42,187.9 L 397.42,187.9 L 397.65,187.34 L 397.82,186.73 L 397.76,186.62 L 397.76,186.62 L 397.42,186.68 L 397.09,186.84 L 397.09,186.84 L 396.92,187.18 L 396.64,187.9 L 396.36,188.69 L 396.2,189.08 L 396.02,189.31 L 396.02,189.31 z M 380.74,182.75 L 380.74,182.75 L 380.85,182.98 L 380.96,183.26 L 381.02,183.54 L 381.02,183.93 L 380.96,184.32 L 380.91,184.72 L 380.74,185.16 L 380.46,185.61 L 380.18,186.11 L 379.73,186.56 L 379.17,187.01 L 378.55,187.46 L 377.77,187.9 L 376.82,188.29 L 375.76,188.63 L 374.53,188.97 L 374.53,188.97 L 375.31,189.02 L 376.1,189.02 L 376.1,189.02 L 377.05,188.86 L 377.89,188.58 L 378.67,188.24 L 379.34,187.79 L 379.96,187.34 L 380.51,186.9 L 380.96,186.4 L 381.3,185.89 L 381.58,185.33 L 381.75,184.88 L 381.8,184.38 L 381.8,183.93 L 381.69,183.54 L 381.46,183.2 L 381.19,182.93 L 380.74,182.75 L 380.74,182.75 z M 399.67,187.51 L 399.67,187.51 L 400.06,187.07 L 400.51,186.5 L 400.67,186.17 L 400.9,185.72 L 401.06,185.27 L 401.23,184.72 L 401.23,184.72 L 400.95,184.77 L 400.73,184.94 L 400.22,185.27 L 400.22,185.27 L 399.67,187.51 L 399.67,187.51 z M 387.8,186.5 L 387.8,186.5 L 388.58,185.77 L 389.02,185.33 L 389.14,185.16 L 389.25,184.94 L 389.53,184.21 L 389.53,184.21 L 388.47,184.38 L 388.47,184.38 L 388.41,184.83 L 388.24,185.33 L 387.8,186.5 L 387.8,186.5 z M 385.67,184.49 L 385.67,184.49 L 384.77,184.43 L 384.77,184.43 L 384.6,184.88 L 384.43,185.38 L 384.1,186.4 L 384.1,186.4 L 384.21,186.34 L 384.38,186.17 L 384.83,185.61 L 385.67,184.49 L 385.67,184.49 z M 391.04,186.17 L 391.04,186.17 L 391.66,185.56 L 391.88,185.27 L 392.05,184.99 L 392.16,184.72 L 392.33,184.38 L 392.56,183.48 L 392.56,183.48 L 391.55,183.76 L 391.55,183.76 L 391.49,184.43 L 391.43,184.99 L 391.27,185.56 L 391.04,186.17 L 391.04,186.17 z M 395.69,182.42 L 395.69,182.42 L 394.79,182.75 L 394.79,182.75 L 394.45,185.11 L 394.45,185.11 L 394.63,184.88 L 394.96,184.21 L 395.36,183.38 L 395.52,182.87 L 395.69,182.42 L 395.69,182.42 z M 397.31,183.88 L 397.31,183.88 L 397.54,183.71 L 397.7,183.43 L 397.88,183.09 L 397.99,182.7 L 398.21,181.92 L 398.27,181.3 L 398.27,181.3 L 397.93,181.52 L 397.48,181.81 L 397.48,181.81 L 397.31,183.88 L 397.31,183.88 z M 401.46,180.01 L 401.46,180.01 L 400.56,180.52 L 400.56,180.52 L 400.33,182.87 L 400.33,182.87 L 400.45,182.75 L 400.62,182.54 L 400.95,181.81 L 401.29,180.91 L 401.4,180.46 L 401.46,180.01 L 401.46,180.01 z M 403.03,182.59 L 403.03,182.59 L 403.36,181.97 L 403.58,181.47 L 403.76,181.02 L 403.76,181.02 L 403.87,180.46 L 403.92,179.96 L 403.92,179.96 L 403.76,180.01 L 403.58,180.13 L 403.42,180.24 L 403.14,180.29 L 403.14,180.29 L 403.03,182.59 L 403.03,182.59 z M 388.24,180.52 L 387.4,180.52 L 387.35,180.63 L 387.35,180.63 L 387.29,181.13 L 387.18,181.63 L 387.07,182.09 L 386.84,182.54 L 386.84,182.54 L 387.35,182.14 L 387.74,181.7 L 388.07,181.13 L 388.24,180.52 L 388.24,180.52 z M 390.37,182.48 L 390.37,182.48 L 390.59,182.25 L 390.93,181.86 L 391.15,181.3 L 391.27,181.02 L 391.38,180.63 L 391.38,180.63 L 391.32,180.57 L 391.27,180.52 L 390.59,180.52 L 390.59,180.52 L 390.59,181.3 L 390.54,181.92 L 390.48,182.2 L 390.37,182.48 L 390.37,182.48 z M 383.98,181.97 L 383.98,181.97 L 384.21,181.81 L 384.66,181.47 L 384.83,181.24 L 384.94,180.97 L 385,180.74 L 385,180.57 L 384.94,180.46 L 384.94,180.46 L 384.6,180.46 L 384.32,180.52 L 384.32,180.52 L 384.27,180.57 L 384.27,180.57 L 383.98,181.97 L 383.98,181.97 z M 397.82,179.06 L 397.82,179.06 L 397.93,178.95 L 398.1,178.73 L 398.33,178.34 L 398.33,178.34 L 398.54,177.88 L 398.65,177.38 L 398.77,176.32 L 398.77,176.32 L 398.04,176.71 L 398.04,176.71 L 397.93,177.83 L 397.88,178.61 L 397.82,179.06 L 397.82,179.06 z M 395.97,176.6 L 395.97,176.6 L 395.69,176.38 L 395.69,176.38 L 395.13,176.15 L 394.52,175.93 L 393.79,175.82 L 393,175.76 L 392.22,175.76 L 391.43,175.82 L 390.65,175.93 L 389.98,176.09 L 389.98,176.09 L 389.75,176.21 L 389.59,176.38 L 389.59,176.49 L 389.59,176.49 L 390.04,176.71 L 390.43,176.99 L 390.43,176.99 L 390.59,177.27 L 390.82,177.61 L 390.99,177.88 L 391.15,178.11 L 391.15,178.11 L 391.38,178.27 L 391.66,178.5 L 391.99,178.67 L 392.45,178.84 L 392.95,178.9 L 393.45,178.84 L 393.73,178.79 L 394.07,178.67 L 394.34,178.5 L 394.68,178.34 L 394.68,178.34 L 395.13,177.83 L 395.52,177.27 L 395.97,176.6 L 395.97,176.6 z M 401.12,177.77 L 401.12,177.77 L 401.35,177.33 L 401.57,176.77 L 401.57,176.77 L 401.63,176.49 L 401.63,176.04 L 401.57,175.31 L 401.57,175.31 L 401.4,175.37 L 401.17,175.48 L 401.01,175.65 L 400.9,175.82 L 400.9,175.82 L 400.9,176.32 L 400.9,176.32 L 401.01,176.49 L 401.01,176.49 L 401.12,177.77 L 401.12,177.77 z M 395.63,175.82 L 395.63,175.82 L 395.52,175.59 L 395.3,175.31 L 394.96,175.04 L 394.74,174.92 L 394.52,174.81 L 394.52,174.81 L 394.29,174.7 L 394.01,174.52 L 394.01,174.52 L 393.67,174.42 L 393.23,174.42 L 392.66,174.47 L 392.11,174.59 L 391.49,174.75 L 390.88,174.98 L 390.32,175.26 L 389.81,175.54 L 389.81,175.54 L 389.7,175.65 L 389.7,175.7 L 389.7,175.7 L 389.7,175.7 L 391.15,175.43 L 392.33,175.37 L 393.34,175.37 L 394.13,175.43 L 394.74,175.54 L 395.18,175.65 L 395.63,175.82 L 395.63,175.82 z M 399.78,173.47 L 399.78,173.47 L 399.89,173.52 L 399.95,173.47 L 400.01,173.41 L 400.01,173.41 L 399.89,173.07 L 399.83,172.79 L 399.83,172.79 L 399.83,172.24 L 399.95,171.62 L 400.22,171 L 400.56,170.38 L 400.56,170.38 L 400.33,170.33 L 400.11,170.33 L 399.95,170.38 L 399.72,170.45 L 399.61,170.56 L 399.44,170.72 L 399.27,171.11 L 399.17,171.56 L 399.17,172.13 L 399.27,172.34 L 399.33,172.63 L 399.49,172.85 L 399.67,173.07 L 399.67,173.07 L 399.72,173.29 L 399.78,173.47 L 399.78,173.47 z M 397.54,173.35 L 397.54,173.35 L 397.65,173.41 L 397.7,173.35 L 397.76,173.29 L 397.76,173.29 L 397.7,172.85 L 397.7,172.4 L 397.7,172.01 L 397.82,171.62 L 397.99,171.29 L 398.21,170.89 L 398.49,170.5 L 398.88,170.05 L 398.88,170.05 L 398.54,170.11 L 398.49,170.11 L 398.43,169.99 L 398.43,169.99 L 397.93,170.22 L 397.54,170.56 L 397.26,170.95 L 397.04,171.4 L 397.04,171.4 L 396.92,171.73 L 396.86,172.01 L 396.86,172.24 L 396.92,172.46 L 397.04,172.68 L 397.15,172.85 L 397.54,173.35 L 397.54,173.35 z M 395.74,173.18 L 395.74,173.18 L 395.8,173.24 L 395.86,173.13 L 395.86,173.13 L 395.74,172.57 L 395.69,172.24 L 395.69,171.84 L 395.8,171.4 L 395.97,170.89 L 396.31,170.33 L 396.75,169.72 L 396.7,169.6 L 396.7,169.6 L 396.58,169.6 L 396.42,169.66 L 395.97,169.94 L 395.52,170.27 L 395.24,170.5 L 395.24,170.5 L 395.08,170.84 L 394.96,171.23 L 394.9,171.68 L 394.9,172.01 L 394.9,172.01 L 394.96,172.24 L 395.08,172.51 L 395.08,172.51 L 395.13,172.68 L 395.24,172.85 L 395.24,172.85 L 395.58,173.02 L 395.58,173.02 L 395.63,173.13 L 395.74,173.18 L 395.74,173.18 z M 391.21,173.13 L 391.21,173.13 L 391.27,173.13 L 391.27,173.13 L 391.32,172.96 L 391.27,172.4 L 391.27,172.01 L 391.38,171.62 L 391.49,171.17 L 391.72,170.84 L 391.72,170.84 L 392.05,170.38 L 392.16,170.11 L 392.16,169.99 L 392.05,169.99 L 392.05,169.99 L 391.83,170.05 L 391.55,170.16 L 391.27,170.38 L 390.99,170.67 L 390.77,171.06 L 390.65,171.51 L 390.59,171.73 L 390.65,172.01 L 390.65,172.24 L 390.77,172.51 L 390.77,172.51 L 390.93,172.79 L 391.04,172.96 L 391.21,173.13 L 391.21,173.13 z M 407.28,173.07 L 407.28,173.07 L 407.45,172.96 L 407.67,172.85 L 407.78,172.68 L 407.89,172.46 L 407.89,172.46 L 407.23,172.4 L 406.55,172.29 L 405.99,172.18 L 405.49,172.07 L 405.49,172.07 L 405.26,172.07 L 405.21,172.13 L 405.21,172.18 L 405.21,172.24 L 405.43,172.34 L 405.43,172.34 L 407.28,173.07 L 407.28,173.07 z M 393.61,172.96 L 393.61,172.96 L 393.67,173.02 L 393.79,173.02 L 393.79,172.96 L 393.84,172.85 L 393.84,172.85 L 393.67,172.63 L 393.56,172.34 L 393.56,172.13 L 393.5,171.84 L 393.56,171.34 L 393.79,170.89 L 394.01,170.45 L 394.29,170.05 L 394.57,169.77 L 394.85,169.54 L 394.85,169.54 L 394.4,169.6 L 393.95,169.66 L 393.61,169.83 L 393.29,170.05 L 393.06,170.38 L 392.89,170.78 L 392.83,171.34 L 392.89,171.95 L 392.89,171.95 L 393.61,172.96 L 393.61,172.96 z M 409.07,171.51 L 409.07,171.51 L 408.91,171.45 L 408.91,171.45 L 407.45,171.45 L 405.66,171.51 L 405.66,171.51 L 405.6,171.56 L 405.6,171.56 L 405.66,171.62 L 405.66,171.62 L 408.46,172.07 L 408.46,172.07 L 408.68,172.01 L 408.8,171.9 L 408.96,171.73 L 409.07,171.51 L 409.07,171.51 z M 403.19,171.79 L 403.19,171.79 L 404.14,171.73 L 404.14,171.73 L 404.26,171.4 L 404.42,171.11 L 404.54,170.84 L 404.76,170.61 L 404.92,170.45 L 405.21,170.27 L 405.77,169.99 L 406.55,169.77 L 407.45,169.6 L 409.85,169.32 L 409.85,169.32 L 409.69,169.27 L 409.52,169.15 L 409.52,169.15 L 408.07,169.1 L 406.83,169.15 L 406.27,169.21 L 405.77,169.32 L 405.26,169.43 L 404.87,169.6 L 404.48,169.77 L 404.14,169.99 L 403.87,170.22 L 403.64,170.5 L 403.47,170.78 L 403.3,171.06 L 403.25,171.4 L 403.19,171.79 L 403.19,171.79 z M 409.41,171 L 409.41,171 L 409.69,170.33 L 409.69,170.33 L 408.01,170.5 L 406.16,170.72 L 406.16,170.72 L 406.21,170.84 L 406.33,170.84 L 406.67,170.95 L 408.07,171.06 L 408.07,171.06 L 409.41,171 L 409.41,171 z M 388.64,196.91 L 388.64,196.91 L 389.2,195.85 L 389.48,195.52 L 389.92,195.07 L 389.92,195.07 L 389.7,195.07 L 389.42,195.07 L 389.42,195.07 L 389.14,195.18 L 388.75,195.35 L 388.02,195.68 L 388.02,195.68 L 386.84,196.18 L 385.89,196.58 L 385.89,196.58 L 385.67,196.63 L 385.39,196.7 L 384.83,196.7 L 384.83,196.7 L 385.05,196.47 L 385.33,196.18 L 385.73,195.57 L 385.73,195.57 L 386.11,195.24 L 386.51,194.9 L 386.51,194.9 L 385.84,195.01 L 385.22,195.18 L 383.98,195.57 L 383.98,195.57 L 383.09,195.74 L 382.36,195.85 L 382.36,195.85 L 382.7,195.35 L 382.98,195.01 L 383.32,194.73 L 383.82,194.45 L 383.82,194.45 L 383.54,194.4 L 383.14,194.4 L 383.14,194.4 L 379.45,194.84 L 379.45,194.84 L 379.79,194.4 L 380.18,194 L 380.63,193.67 L 381.02,193.39 L 381.02,193.39 L 380.68,193.27 L 380.23,193.27 L 379.12,193.34 L 377.99,193.45 L 377.1,193.5 L 377.1,193.5 L 376.54,193.5 L 376.54,193.39 L 376.54,193.39 L 377.1,193 L 377.66,192.66 L 377.66,192.66 L 377.94,192.55 L 378.28,192.43 L 378.61,192.33 L 378.89,192.16 L 378.89,192.16 L 377.71,192.04 L 377.1,191.99 L 376.48,191.99 L 376.48,191.99 L 375.37,192.1 L 374.8,192.1 L 374.19,192.1 L 374.19,192.1 L 375.2,191.49 L 375.53,191.26 L 375.92,191.21 L 375.92,191.21 L 374.74,190.54 L 374.74,190.54 L 374.53,190.48 L 374.24,190.43 L 373.63,190.43 L 372.45,190.48 L 372.45,190.48 L 372.01,190.54 L 371.67,190.54 L 371.28,190.48 L 370.94,190.43 L 370.61,190.25 L 370.21,190.09 L 369.88,189.81 L 369.54,189.47 L 369.54,189.47 L 369.2,189.08 L 369.2,189.08 L 368.81,188.63 L 368.42,188.29 L 367.97,188.07 L 367.47,187.9 L 367.47,187.9 L 367.19,187.9 L 366.91,187.9 L 366.35,188.02 L 366.35,188.02 L 366.24,187.96 L 366.18,187.9 L 366.18,187.79 L 366.24,187.68 L 366.24,187.68 L 366.29,187.57 L 366.46,187.51 L 366.8,187.4 L 367.19,187.34 L 367.47,187.4 L 367.47,187.4 L 367.97,187.51 L 368.54,187.74 L 369.54,188.13 L 369.54,188.13 L 370.04,188.29 L 370.61,188.35 L 371.17,188.35 L 371.72,188.29 L 372.29,188.18 L 372.85,188.02 L 373.52,187.79 L 374.13,187.51 L 374.13,187.51 L 374.64,187.23 L 375.08,186.9 L 375.92,186.23 L 376.6,185.56 L 377.15,184.83 L 377.6,184.15 L 377.89,183.59 L 378.05,183.15 L 378.11,182.81 L 378.11,182.81 L 377.94,182.75 L 377.83,182.7 L 377.71,182.65 L 377.6,182.59 L 377.6,182.59 L 377.38,182.59 L 377.38,182.59 L 377.27,182.65 L 377.15,182.7 L 377.05,182.7 L 376.82,182.75 L 376.82,182.75 L 376.26,182.48 L 375.58,182.09 L 374.97,181.58 L 374.36,180.91 L 374.08,180.57 L 373.85,180.18 L 373.58,179.79 L 373.4,179.34 L 373.24,178.84 L 373.13,178.34 L 373.07,177.77 L 373.07,177.22 L 373.07,177.22 L 374.19,176.88 L 374.19,176.88 L 374.97,176.77 L 375.76,176.65 L 376.48,176.6 L 377.21,176.6 L 377.99,176.65 L 378.73,176.71 L 380.3,176.88 L 380.3,176.88 L 380.96,176.38 L 381.8,175.82 L 382.82,175.2 L 383.93,174.64 L 385.11,174.13 L 386.28,173.69 L 387.35,173.35 L 388.36,173.13 L 388.36,173.13 L 388.86,172.34 L 389.31,171.79 L 389.7,171.29 L 390.09,170.89 L 390.59,170.33 L 390.7,170.16 L 390.77,169.99 L 390.77,169.99 L 390.48,169.99 L 390.04,169.94 L 389.42,169.94 L 388.69,170.05 L 388.69,170.05 L 388.86,169.88 L 389.02,169.72 L 389.53,169.49 L 390.15,169.32 L 390.77,169.27 L 391.88,169.21 L 392.5,169.21 L 392.5,169.21 L 392.45,169.1 L 392.27,168.93 L 392.05,168.82 L 391.77,168.76 L 391.32,168.65 L 390.82,168.59 L 390.82,168.59 L 391.38,168.43 L 391.66,168.38 L 392.05,168.38 L 392.05,168.38 L 393.11,168.38 L 393.95,168.43 L 393.95,168.43 L 393.95,168.32 L 393.84,168.15 L 393.61,167.93 L 393.5,167.87 L 393.29,167.81 L 393.34,167.76 L 393.34,167.76 L 394.07,167.7 L 394.79,167.76 L 395.52,167.87 L 396.25,168.09 L 396.25,168.09 L 396.31,168.04 L 396.25,167.98 L 396.25,167.93 L 396.14,167.81 L 395.97,167.7 L 395.69,167.54 L 395.3,167.42 L 395.3,167.42 L 395.58,167.36 L 395.92,167.31 L 396.58,167.42 L 397.31,167.59 L 398.04,167.81 L 399.27,168.32 L 399.89,168.59 L 399.89,168.59 L 399.49,168.2 L 399.11,167.87 L 398.65,167.59 L 398.27,167.36 L 397.88,167.2 L 397.54,166.97 L 397.31,166.75 L 397.09,166.47 L 397.09,166.47 L 396.92,166.08 L 396.81,165.63 L 396.75,165.24 L 396.7,164.9 L 396.7,164.51 L 396.7,164.18 L 396.75,163.84 L 396.86,163.56 L 397.15,163 L 397.48,162.49 L 397.93,162.04 L 398.43,161.65 L 398.99,161.32 L 399.55,161.04 L 400.11,160.82 L 400.73,160.59 L 401.29,160.48 L 401.79,160.43 L 402.24,160.37 L 402.58,160.37 L 402.58,160.37 L 402.58,160.54 L 402.46,160.76 L 402.24,161.09 L 402.24,161.09 L 402.13,161.38 L 402.02,161.71 L 401.9,162.61 L 401.85,163.61 L 401.9,164.68 L 401.96,165.74 L 402.08,166.7 L 402.24,168.09 L 402.24,168.09 L 400.9,168.82 L 400.9,168.99 L 400.9,168.99 L 401.23,169.04 L 401.23,169.04 L 401.51,169.15 L 401.79,169.38 L 402.3,169.77 L 402.3,169.77 L 402.3,169.54 L 402.41,169.32 L 402.46,169.15 L 402.58,169.04 L 402.74,168.88 L 402.97,168.76 L 403.47,168.59 L 404.09,168.49 L 404.92,168.43 L 405.88,168.43 L 407.05,168.43 L 407.05,168.43 L 408.07,168.49 L 409.18,168.59 L 410.25,168.65 L 410.75,168.65 L 411.26,168.65 L 411.26,168.65 L 411.26,169.15 L 411.2,169.6 L 411.14,170.05 L 411.03,170.5 L 410.86,170.89 L 410.69,171.29 L 410.25,172.01 L 409.75,172.63 L 409.18,173.18 L 408.51,173.63 L 407.84,173.97 L 407.11,174.25 L 406.39,174.42 L 405.6,174.47 L 404.87,174.47 L 404.2,174.42 L 403.53,174.2 L 402.92,173.91 L 402.35,173.58 L 402.35,173.58 L 402.35,173.8 L 402.35,174.08 L 402.52,174.47 L 402.69,174.75 L 402.97,175.04 L 403.58,175.37 L 403.87,175.54 L 404.03,175.76 L 404.03,175.76 L 404.37,176.6 L 404.92,178.39 L 405.77,181.13 L 405.77,181.13 L 406.16,183.04 L 406.33,183.99 L 406.44,184.94 L 406.44,185.84 L 406.39,186.79 L 406.21,187.79 L 405.94,188.74 L 405.94,188.74 L 405.88,188.8 L 405.83,188.8 L 405.77,188.74 L 405.77,188.74 L 405.66,188.58 L 405.49,188.35 L 405.32,187.85 L 405.21,187.4 L 405.15,187.18 L 405.15,187.18 L 405.1,187.51 L 405.04,187.85 L 404.98,188.41 L 404.98,188.41 L 404.98,189.36 L 404.87,190.15 L 404.71,190.82 L 404.54,191.32 L 404.31,191.71 L 404.14,191.93 L 403.92,192.16 L 403.92,192.16 L 403.87,191.54 L 403.81,190.88 L 403.81,190.15 L 403.87,189.47 L 403.87,189.47 L 403.58,189.75 L 403.36,190.04 L 402.97,190.76 L 402.3,192.16 L 402.3,192.16 L 401.85,193 L 401.57,193.45 L 401.35,193.73 L 401.35,193.73 L 401.29,192.88 L 401.29,192.33 L 401.4,191.77 L 401.4,191.77 L 401.17,191.93 L 400.95,192.22 L 400.56,192.77 L 399.89,193.79 L 399.89,193.79 L 399.27,194.45 L 398.94,194.84 L 398.6,195.07 L 398.6,195.07 L 398.65,194.68 L 398.77,194 L 398.94,193.27 L 399.11,192.95 L 399.27,192.61 L 399.27,192.61 L 398.99,192.83 L 398.6,193.17 L 397.76,194 L 396.42,195.52 L 396.42,195.52 L 395.69,196.02 L 395.69,196.02 L 395.86,195.4 L 396.14,194.73 L 396.47,194 L 396.7,193.67 L 396.98,193.39 L 396.98,193.39 L 396.64,193.61 L 395.92,194.18 L 394.96,194.96 L 394.07,195.79 L 394.07,195.79 L 393.73,196.08 L 393.29,196.3 L 392.89,196.47 L 392.45,196.63 L 392.45,196.63 L 392.61,195.85 L 392.77,195.4 L 393.06,194.9 L 393.67,194.18 L 393.67,194.18 L 393.23,194.34 L 392.5,194.68 L 392.5,194.68 L 392.11,194.9 L 391.72,195.07 L 391.72,195.07 L 390.99,195.57 L 390.32,196.02 L 390.32,196.02 L 389.48,196.52 L 389.08,196.75 L 388.64,196.91 L 388.64,196.91 z"
             id="path2804"
             style="fill:#ffffff;fill-opacity:1;fill-rule:evenodd;stroke:none" />
          <path
             d="M 376.99,183.88 L 376.99,183.88 L 376.15,183.54 L 375.76,183.32 L 375.31,183.04 L 374.92,182.75 L 374.47,182.36 L 374.02,181.92 L 373.58,181.41 L 373.58,181.41 L 373.24,180.97 L 372.9,180.52 L 372.67,179.96 L 372.45,179.45 L 372.23,178.9 L 372.12,178.34 L 372.06,177.77 L 372.12,177.22 L 372.12,177.22 L 372.17,176.54 L 372.29,175.93 L 372.45,175.37 L 372.67,174.81 L 372.96,174.25 L 373.35,173.74 L 373.85,173.24 L 374.47,172.68 L 374.47,172.68 L 373.74,172.96 L 372.9,173.47 L 372.45,173.74 L 372.01,174.08 L 371.56,174.47 L 371.11,174.92 L 370.66,175.43 L 370.27,175.93 L 369.93,176.49 L 369.65,177.1 L 369.43,177.72 L 369.26,178.45 L 369.15,179.12 L 369.2,179.9 L 369.2,179.9 L 369.26,180.4 L 369.32,180.91 L 369.49,181.41 L 369.65,181.92 L 369.82,182.42 L 370.1,182.87 L 370.38,183.38 L 370.66,183.82 L 370.99,184.21 L 371.39,184.66 L 371.78,184.99 L 372.23,185.33 L 372.73,185.67 L 373.24,185.95 L 373.8,186.17 L 374.36,186.34 L 374.36,186.34 L 374.64,186.29 L 375.03,186.11 L 375.37,185.89 L 375.76,185.56 L 376.1,185.22 L 376.42,184.77 L 376.76,184.32 L 376.99,183.88 L 376.99,183.88 z"
             id="path2806"
             style="fill:#ffffff;fill-opacity:1;fill-rule:evenodd;stroke:none" />
          <path
             d="M 370.15,184.88 L 370.15,184.88 L 370.21,184.83 L 370.21,184.77 L 370.21,184.77 L 369.77,184.15 L 369.26,183.43 L 368.87,182.65 L 368.48,181.75 L 368.25,180.79 L 368.14,180.29 L 368.08,179.84 L 368.08,179.34 L 368.14,178.84 L 368.25,178.27 L 368.42,177.77 L 368.42,177.77 L 368.25,177.77 L 368.25,177.77 L 367.58,178.06 L 367.58,178.06 L 367.36,178.22 L 367.36,178.22 L 367.41,178.39 L 367.47,178.5 L 367.58,178.79 L 367.58,178.79 L 367.75,179.57 L 367.86,180.01 L 367.86,180.01 L 367.47,179.68 L 367.47,179.68 L 367.24,179.4 L 367.08,179.06 L 366.68,178.39 L 366.68,178.39 L 366.24,177.83 L 366.24,177.83 L 366.02,177.77 L 365.79,177.77 L 365.63,177.83 L 365.63,177.88 L 365.63,177.95 L 365.63,177.95 L 365.73,178.27 L 365.9,178.56 L 365.9,178.56 L 366.46,179.84 L 366.46,179.84 L 366.52,180.01 L 366.63,180.18 L 366.91,180.4 L 366.91,180.4 L 366.86,180.4 L 366.74,180.4 L 366.52,180.29 L 366.52,180.29 L 366.18,180.07 L 366.02,179.96 L 365.68,179.45 L 365.68,179.45 L 365.51,179.23 L 365.34,178.9 L 365,178.27 L 365,178.27 L 364.84,177.95 L 364.84,177.95 L 364.56,177.72 L 364.39,177.66 L 364.22,177.61 L 364.22,177.61 L 364,177.61 L 363.83,177.66 L 363.77,177.72 L 363.77,177.72 L 363.77,177.83 L 363.89,178 L 364.06,178.27 L 364.06,178.27 L 364.22,178.61 L 364.27,178.95 L 364.5,179.63 L 364.5,179.63 L 364.84,180.4 L 364.84,180.4 L 364.61,180.29 L 364.45,180.13 L 364.11,179.74 L 363.89,179.29 L 363.66,178.84 L 363.66,178.84 L 363.38,178.45 L 363.11,178 L 362.77,177.61 L 362.38,177.27 L 362.38,177.27 L 361.82,176.99 L 361.82,176.99 L 361.48,176.99 L 361.48,176.99 L 361.42,177.55 L 361.36,178.11 L 361.42,178.27 L 361.42,178.27 L 361.7,178.39 L 362.09,178.79 L 362.48,179.18 L 362.71,179.57 L 362.71,179.57 L 362.93,179.96 L 363.11,180.35 L 363.11,180.35 L 363.16,180.79 L 363.27,181.36 L 363.38,181.86 L 363.43,182.09 L 363.49,182.25 L 363.49,182.25 L 363.77,182.54 L 364.11,182.81 L 364.95,183.43 L 365.84,183.93 L 366.74,184.43 L 366.74,184.43 L 367.08,184.54 L 367.52,184.66 L 368.31,184.88 L 368.31,184.88 L 369.32,184.94 L 369.32,184.94 L 369.77,184.94 L 370.15,184.88 L 370.15,184.88 z"
             id="path2808"
             style="fill:#ffffff;fill-opacity:1;fill-rule:evenodd;stroke:none" />
          <path
             d="M 394.79,177.1 L 394.79,177.1 L 394.57,177.1 L 394.57,177.1 L 394.4,177.33 L 394.24,177.55 L 394.01,177.72 L 393.84,177.88 L 393.61,177.95 L 393.4,178.06 L 393.17,178.06 L 392.95,178.06 L 392.72,178 L 392.5,177.88 L 392.33,177.77 L 392.16,177.61 L 392.05,177.38 L 391.93,177.16 L 391.88,176.82 L 391.88,176.54 L 391.15,176.54 L 391.15,176.54 L 391.15,176.71 L 391.15,176.88 L 391.15,176.88 L 391.32,177.22 L 391.55,177.55 L 391.77,177.77 L 391.99,177.95 L 392.22,178.11 L 392.5,178.22 L 392.77,178.27 L 393.06,178.34 L 393.34,178.34 L 393.56,178.27 L 393.84,178.17 L 394.07,178.06 L 394.29,177.83 L 394.52,177.66 L 394.68,177.38 L 394.79,177.1 L 394.79,177.1 z"
             id="path2810"
             style="fill:#ffffff;fill-opacity:1;fill-rule:evenodd;stroke:none" />
          <path
             d="M 393.84,176.77 L 393.84,176.77 L 393.17,176.6 L 392.83,176.6 L 392.5,176.6 L 392.5,176.6 L 392.56,176.88 L 392.66,177.1 L 392.83,177.27 L 393.06,177.38 L 393.29,177.38 L 393.5,177.27 L 393.73,177.04 L 393.84,176.77 L 393.84,176.77 z"
             id="path2812"
             style="fill:#ffffff;fill-opacity:1;fill-rule:evenodd;stroke:none" />
          <path
             d="M 366.63,177.33 L 366.63,177.33 L 367.19,177.27 L 367.7,177.1 L 367.7,177.1 L 367.86,176.43 L 368.08,175.7 L 368.48,175.04 L 368.92,174.36 L 369.43,173.74 L 369.99,173.13 L 370.55,172.63 L 371.17,172.18 L 371.17,172.18 L 370.77,172.24 L 370.27,172.4 L 369.54,172.74 L 368.76,173.24 L 368.31,173.52 L 367.92,173.91 L 367.47,174.31 L 367.08,174.7 L 366.68,175.2 L 366.35,175.76 L 366.02,176.38 L 365.73,176.99 L 365.73,176.99 L 366.24,177.1 L 366.46,177.22 L 366.63,177.33 L 366.63,177.33 z"
             id="path2814"
             style="fill:#ffffff;fill-opacity:1;fill-rule:evenodd;stroke:none" />
        </g>
      </g>
    </g>
  </g>
</svg>
