<?xml version="1.0" encoding="UTF-8"?>
<!DOCTYPE svg  PUBLIC '-//W3C//DTD SVG 1.1//EN'  'http://www.w3.org/Graphics/SVG/1.1/DTD/svg11.dtd'>
<svg width="400" height="450" version="1.1" viewBox="0 0 100 112.5" xmlns="http://www.w3.org/2000/svg">
<title>Wappen von Böttstein</title>
<desc>Wappen der Schweizer Gemeinde Böttstein, Kanton Aargau</desc>
<defs>
<pattern id="c" x="24" y="9.5" width="17.75" height="17.75" patternUnits="userSpaceOnUse">
<path d="m0 7.25 7.25-7.25 7.25 7.25-7.25 7.25z" fill="#fcdb00"/>
</pattern>
<pattern id="b" x="14.2" y="17.45" width="35.5" height="35.5" patternUnits="userSpaceOnUse">
<path d="m25 0 9.1 9.1-25 25-9.1-9.1z" fill="#f00000"/>
</pattern>
<pattern id="a" x="-3.52" y="-.3" width="35.5" height="35.5" patternUnits="userSpaceOnUse">
<path d="m9.1 0 25 25-9.1 9.1-25-25z" fill="#f00000"/>
</pattern>
</defs>
<path d="m0 0h100v62.5a50 50 0 0 1-100 0z"/>
<path d="m2 2h96v60.5a48 48 0 0 1-96 0z" fill="url(#c)"/>
<path d="m2 2h96v60.5a48 48 0 0 1-96 0z" fill="url(#b)"/>
<path d="m2 2h96v60.5a48 48 0 0 1-96 0z" fill="url(#a)"/>
<path d="m2 2h2v2h-2" fill="#f00000"/>
</svg>
