<?xml version="1.0" encoding="UTF-8"?>
<!DOCTYPE svg  PUBLIC '-//W3C//DTD SVG 1.0//EN'  'http://www.w3.org/TR/2001/REC-SVG-20010904/DTD/svg10.dtd'>
<svg width="687" height="768" version="1.0" viewBox="-2.3812 -2.3812 84.138 94.038" xmlns="http://www.w3.org/2000/svg">
<defs>
<clipPath id="b">
<path d="m354.48 210.24h63.71v-71.64h-63.71v71.64z"/>
</clipPath>
<clipPath id="a">
<path d="m354.48 210.24h63.71v-71.64h-63.71v71.64z"/>
</clipPath>
</defs>
<g transform="translate(-866.03 -202.01)">
<g transform="matrix(1.25 0 0 1.25 422.79 28.623)" clip-path="url(#b)">
<path d="m354.59 138.71h63.5v39.68 1.62l-0.17 1.62-0.17 1.57-0.28 1.57-0.39 1.57-0.4 1.51-0.5 1.46-0.56 1.45-0.67 1.4-0.67 1.34-0.78 1.34-0.79 1.29-0.89 1.23-0.96 1.23-1.01 1.13-1.05 1.12-1.07 1.06-1.18 0.95-1.17 0.95-1.29 0.9-1.29 0.84-1.29 0.72-1.4 0.73-1.4 0.62-1.45 0.55-1.46 0.51-1.51 0.45-1.52 0.33-1.56 0.28-1.62 0.23-1.57 0.11-1.68 0.06-1.63-0.06-1.62-0.11-1.57-0.23-1.56-0.28-1.52-0.33-1.51-0.45-1.51-0.51-1.4-0.55-1.4-0.62-1.4-0.73-1.34-0.72-1.29-0.84-1.23-0.9-2.36-1.9-1.05-1.06-1.07-1.12-1.01-1.13-0.95-1.23-0.9-1.23-0.79-1.29-0.78-1.34-0.72-1.34-0.62-1.4-0.56-1.45-0.5-1.46-0.45-1.51-0.34-1.57-0.28-1.57-0.22-1.57-0.12-1.62-0.05-1.62v-39.68z" fill-rule="evenodd"/>
</g>
<g transform="matrix(1.25 0 0 1.25 422.79 28.623)" clip-path="url(#a)" fill-rule="evenodd" stroke-linecap="round" stroke-linejoin="round" stroke-miterlimit="10" stroke-width=".12">
<path d="m359.8 193h53.13l-1.06 1.73-1.12 1.63-1.23 1.57-1.34 1.5-1.4 1.34-1.52 1.3-1.62 1.22-1.68 1.07-1.74 1.01-0.89 0.45-0.9 0.39-0.95 0.39-0.95 0.33-1.9 0.68-1.02 0.22-1 0.23-1 0.21-1.02 0.18-2.12 0.22-1.07 0.06h-1.06-1.07l-1.06-0.06-1.01-0.11-1.06-0.11-1-0.18-1.02-0.21-1-0.23-1.01-0.22-0.96-0.34-1-0.34-0.89-0.33-0.96-0.39-0.9-0.39-0.95-0.45-1.73-1.01-1.68-1.07-1.57-1.22-1.52-1.3-1.45-1.34-1.28-1.5-1.24-1.57-1.18-1.63-1-1.73z" fill="#094" stroke="#094"/>
<path d="m411.32 162.83h1.73l-0.06-13.15-3.19-2.58-9.74-0.06h-6.77l-3.2-0.05-0.05-2.97-2.13-0.05-0.06 3.02-11.93 0.05-1.73-1.28-2.36-1.84h-1.73-3.86-5.6v1.56l0.06 1.51h-1.57v2.3h28.72l-0.05 4.53-1.74 0.06 0.05 3.63h12.72v-3.75h-1.85-1.24-0.56l1.91-4.42 14.11 0.06 0.12 13.43zm-13.62-3.52 1.01-1.35-12.37-0.06 1.06 1.41h10.3zm0.12 32.73-0.17-32.34h-10.08l0.06 7.33-8.06-0.06-1.35 2.07 9.46 0.06v8.62l-0.05 7.5-0.06 6.77 0.06 0.05h-4.03l0.5-0.33 0.5-0.45 0.51-0.56 0.5-0.66 0.78-1.46 0.23-0.79 0.06-0.39v-0.39l0.05-10.58-19.43 0.06v10.41l0.11 0.89 0.29 0.79 0.33 0.73 0.39 0.61 0.5 0.62 0.51 0.55 1.01 0.95h-11.14l-0.79-1.61-0.62-1.69-0.61-1.67-0.45-1.74-0.33-1.74-0.29-1.78-0.16-1.8-0.06-1.79v-38.11h60.69v38.11l-0.05 1.79-0.11 1.8-0.28 1.78-0.39 1.74-0.45 1.74-0.56 1.67-0.67 1.69-0.73 1.61h-15.62z" fill="#fcdb00" stroke="#fcdb00"/>
<path d="m389.86 149.23v4.59h3.81l1.96-4.59h-5.77z" fill="#fcdb00" stroke="#fcdb00"/>
</g>
</g>
</svg>
