<?xml version="1.0" encoding="UTF-8"?>
<!DOCTYPE svg  PUBLIC '-//W3C//DTD SVG 1.0//EN'  'http://www.w3.org/TR/2001/REC-SVG-20010904/DTD/svg10.dtd'>
<svg width="687" height="768" version="1.0" viewBox="-2.3812 -2.3812 84.138 94.038" xmlns="http://www.w3.org/2000/svg">
<defs>
<clipPath id="b">
<path d="m354.48 310.32h63.71v-71.63h-63.71v71.63z"/>
</clipPath>
<clipPath id="a">
<path d="m354.48 310.32h63.71v-71.63h-63.71v71.63z"/>
</clipPath>
</defs>
<g transform="translate(-335.31 -487.72)">
<g transform="matrix(1.25 0 0 1.25 -107.92 189.24)">
<g clip-path="url(#b)">
<path d="m354.59 238.79h63.5v39.68 1.63l-0.17 1.61-0.17 1.57-0.28 1.57-0.39 1.57-0.4 1.51-0.5 1.46-0.56 1.45-0.67 1.4-0.67 1.34-0.78 1.34-0.79 1.29-0.89 1.23-0.96 1.23-1.01 1.13-1.05 1.12-1.07 1.06-1.18 0.95-1.17 0.95-1.29 0.9-1.29 0.84-1.29 0.73-1.4 0.72-1.4 0.62-1.45 0.55-1.46 0.51-1.51 0.45-1.52 0.33-1.56 0.28-1.62 0.23-1.57 0.11-1.68 0.06-1.63-0.06-1.62-0.11-1.57-0.23-1.56-0.28-1.52-0.33-1.51-0.45-1.51-0.51-1.4-0.55-1.4-0.62-1.4-0.72-1.34-0.73-1.29-0.84-1.23-0.9-2.36-1.9-1.05-1.06-1.07-1.12-1.01-1.13-0.95-1.23-0.9-1.23-0.79-1.29-0.78-1.34-0.72-1.34-0.62-1.4-0.56-1.45-0.5-1.46-0.45-1.51-0.34-1.57-0.28-1.57-0.22-1.57-0.12-1.61-0.05-1.63v-39.68z" fill-rule="evenodd"/>
</g>
<g clip-path="url(#a)" fill-rule="evenodd" stroke-linecap="round" stroke-linejoin="round" stroke-miterlimit="10" stroke-width=".12">
<path d="m375.7 306.85 0.17-0.5 0.45-0.9 0.44-0.56 0.73-1.01 0.4-0.39 0.33-0.34 0.84-0.67 0.56-0.45 1.06-0.67 1.07-0.67 0.33-0.17 0.34-0.22 0.95-0.79 0.23-0.16 0.16-0.17 0.22-0.22 0.34-0.29 0.28-0.28 0.56-0.66 0.51-0.62 0.5-0.62 0.4-0.61 0.44-0.73 0.84-1.35 0.28-0.55 0.28-0.56 0.61-1.01 0.73-0.9 0.4-0.55 0.5-0.56 0.56-0.51 1.01-0.84 0.5-0.39 0.57-0.33 0.61-0.29 0.67-0.33 1.01-0.56 0.95-0.56 0.33-0.22 0.29-0.18 0.73-0.66 0.5-0.34 0.39-0.39 1.18-1.46 0.33-0.44 0.28-0.46 0.61-1.06 1.41 0.34 0.84 0.22 1 0.17 0.62 0.11 0.62 0.06h0.78 0.79l0.66-0.06 0.73-0.11 0.68-0.11 0.66-0.17 0.57-0.17 0.56-0.22 1.12-0.5 0.45-0.17 0.39-0.12 0.95-0.16 0.5-0.12h0.39 0.34 0.39l0.51 0.12 0.55 0.16-0.11 1.46-0.21 1.51-0.23 1.46-0.34 1.4-0.39 1.39-0.45 1.41-0.5 1.34-0.56 1.34-0.68 1.29-0.66 1.23-0.73 1.17-1.68 2.36-0.9 1.06-0.95 1.06-1.01 1.01-1.07 0.95-1.06 0.9-1.12 0.84-1.17 0.78-1.18 0.79-1.29 0.66-1.22 0.62-1.35 0.62-1.35 0.5-1.34 0.45-1.4 0.39-1.46 0.33-1.45 0.23-1.46 0.17-1.51 0.11-1.51 0.05-1.4-0.05-1.34-0.06-1.41-0.16-1.34-0.23-1.34-0.28-1.29-0.33-1.29-0.39-1.23-0.45z" fill="#fcdb00" stroke="#fcdb00"/>
<path d="m356.05 280.32 0.84-0.17h0.39l0.73 0.06 0.72 0.11 0.73 0.16 0.68 0.23 1 0.45 0.5 0.17 0.23 0.05 1.01 0.17 1.01 0.16h0.61 0.56 1.18l0.44-0.05 0.51-0.06 0.89-0.22 1.57-0.33 1.52-0.45 2.01-0.39 0.62-0.17 0.56-0.06h0.84 0.78l0.78 0.12 0.51 0.05 2.3 0.5 2.23 0.62v0.06l-0.72 0.44-0.73 0.51-0.23 0.22-0.22 0.23-0.11 0.1-0.34 0.4-0.72 0.84-0.34 0.5-0.4 0.56-0.5 0.84-1.01 1.74-0.5 0.84-0.22 0.39-0.34 0.39-0.78 0.78-0.45 0.34-0.23 0.22-0.27 0.17-0.68 0.33-0.84 0.45-0.89 0.39-0.95 0.45-0.29 0.12-1.9 1.22-0.17 0.18-0.22 0.05-0.39 0.34-0.5 0.5-0.51 0.56-0.9 1.12-0.05 0.16-0.45 0.79-0.22 0.28-0.17 0.28-0.45 0.9-0.05 0.05-0.84-0.95-0.79-1.01-0.79-1-0.72-1.07-0.67-1.06-0.62-1.12-0.56-1.18-0.56-1.11-0.5-1.24-0.4-1.23-0.38-1.23-0.34-1.23-0.28-1.28-0.22-1.35-0.23-1.29-0.11-1.34z" fill="#fcdb00" stroke="#fcdb00"/>
<path d="m414.11 253.4-0.45-1.91-1.11 0.45-1.12 0.39-1.18 0.34-1.24 0.28-1.34 0.22-1.46 0.23-1.61 0.17-1.86 0.16h-24.85v-4.47h-2.19v4.31l1.63 1.67 15.12 0.11h7.88 3.81l1.63-0.11 1.46-0.17 1.39-0.16 1.29-0.23 1.18-0.22 1.12-0.28 1-0.39 0.9-0.39zm-45.75 10.24-0.55 0.22-0.62 0.17-0.62 0.06h-0.62l-0.66-0.11-0.68-0.12-1.39-0.44-1.52-0.51-0.84-0.22-0.84-0.23-0.95-0.16-0.95-0.12-1.01-0.05h-1.12v-21.94h60.69v15.67l-0.05 2.97v2.97l-1.06-0.29-1.01-0.16-1.35-0.06-0.55 0.06-0.68 0.11-1.18 0.27-0.78 0.28-0.78 0.34-0.84 0.34-0.78 0.39-0.73 0.22-0.73 0.23-0.5 0.11-0.51 0.05-1.01 0.06 0.4-0.45 1.01-1.06 2.91-3.14 4.42-4.64-1.12 0.28-1.12 0.22-1.18 0.23-1.11 0.16-2.36 0.23-2.29 0.11-25.81 0.06 8.22 8.05h-0.33l-9.74-9.62-9.13-9.01 1.34-1.35-1.23-1.22-3.7 3.58 1.29 1.23 1.29-1.34 17.86 17.62h-0.11l-0.11-0.05-8.17-7.84-3.87-0.11-4.59-0.11-3.3-0.17-0.73-0.11-1.01-0.23-1.07-0.27-0.5-0.12-0.39-0.17 4.2 4.48 4.25 4.65zm6.61-8.34-1.57-1.57-2.35 0.06-2.18-0.06-1.12-0.05-1.07-0.06-2.23-0.22-1.02-0.17-0.83-0.17-0.84-0.22-0.78-0.29-0.73-0.39-0.79-0.56-0.95 1.41 0.45 0.33 0.45 0.28 0.5 0.28 0.45 0.22 1 0.34 1.07 0.28 1 0.17 1.02 0.11 1.9 0.17 4.48 0.05 4.14 0.06z" fill="#fcdb00" stroke="#fcdb00"/>
<path d="m364.89 299.85 0.45-0.78 0.45-0.79 0.45-0.73 0.5-0.84 0.56-0.72 0.62-0.67 0.39-0.34 0.39-0.28 1.01-0.67 1.01-0.56 1-0.45 1.46-0.67 0.78-0.39 0.4-0.23 0.5-0.38 0.45-0.4 0.39-0.28 0.4-0.56 0.38-0.44 0.34-0.46 0.28-0.44 0.28-0.45 1.12-1.96 0.51-0.84 0.44-0.61 0.51-0.68 0.67-0.72 0.33-0.39 0.39-0.34 0.84-0.56 0.45-0.22 0.45-0.17 0.39-0.17 0.39-0.06 0.4-0.11 0.39-0.16 0.61-0.28 0.57-0.4 0.44-0.39-0.67 0.17-0.56 0.12h-0.56-0.56-0.56l-1.18-0.18-1.05-0.27-1.02-0.28-0.95-0.34-1.06-0.22-1.01-0.18-0.95-0.1-0.67-0.06h-0.84l-0.9 0.11-1.68 0.34-2.24 0.55-2.24 0.51-0.72 0.17-1.23 0.05h-1.3l-0.84-0.05-0.89-0.23-0.84-0.22-0.84-0.28-1.24-0.45-1-0.28-0.5-0.11-0.51-0.05h-0.84l-0.84 0.05v-0.73-15.22l0.28-0.06h0.28 0.68l0.66 0.12 0.5 0.05 1.29 0.28 1.3 0.33 1.29 0.46 0.66 0.22 0.62 0.22 1.01 0.22 0.95 0.12 0.95 0.06h0.51l0.5-0.06 0.61-0.12 0.57-0.16 3.91-1.23 1.24-0.39 1.28-0.29 0.4-0.11 0.39-0.1h0.67 0.84 0.39l0.45 0.05 0.95 0.22 0.73 0.17 0.67 0.28 1.29 0.5 0.62 0.23 0.61 0.17 1.29 0.22 0.33 0.28 0.29 0.34 0.22 0.33 0.28 0.39 0.61 0.95 0.28 0.51 0.23 0.56 0.22 0.61 0.17 0.67 0.06 0.23 0.05 0.28 4.76 4.7 3.42 3.47 1.96 1.96 0.22-0.17 0.45-0.39 1.29-1.24 1.95-1.89-5.2-4.88-5.27-4.8h-0.33l-0.39-0.06-0.39-0.12-0.45-0.22-1.07-0.62-1.34-0.84 0.95-0.11 1.18-0.22 0.73-0.11 1.34-0.34 1.34-0.39 0.84-0.17 0.45-0.11 0.45-0.12h0.44l0.68-0.05h0.73l0.56 0.05 0.56 0.12 1.12 0.34 2.07 0.61 0.89 0.28 0.84 0.28 0.9 0.17 0.45 0.11h0.51 0.44l0.84-0.05 0.79-0.06 0.84-0.23 0.84-0.27 1.56-0.62 0.89-0.34 1.8-0.56 0.67-0.1 0.39-0.06h0.68 0.61 0.5l0.51 0.06 0.73 0.21 0.61 0.17 0.22 0.06v15.22 0.23h-1.06l-0.5-0.06-0.45 0.06-0.67 0.11-0.79 0.11-0.78 0.23-1.17 0.39-1.12 0.45-0.56 0.22-0.57 0.11-1.12 0.17-0.44 0.05-0.45 0.06h-0.61l-1.01-0.06-0.67-0.05-0.62-0.11-0.95-0.11-0.9-0.23-0.89-0.23-0.9-0.22-0.12 0.45-0.16 0.45-0.22 0.44-0.28 0.45-0.34 0.45-0.39 0.51-0.4 0.5-1.23 1.23-0.5 0.33-0.5 0.34-1.01 0.67-1.12 0.68-0.73 0.33-0.68 0.33-0.72 0.34-0.62 0.45-0.39 0.39-0.5 0.39-0.45 0.4-0.34 0.33-0.22 0.33-0.45 0.51-0.5 0.79-0.51 0.84-0.39 0.55-0.45 0.9-0.5 0.89-0.5 0.79-0.9 1.34-0.56 0.78-0.61 0.73-0.68 0.68-0.72 0.61-0.62 0.56-0.62 0.45-0.61 0.33-0.61 0.34-0.73 0.39-0.74 0.5-0.1 0.11-0.34 0.28-0.34 0.23-0.34 0.22-0.44 0.39-0.39 0.4-0.51 0.56-0.39 0.56-0.56 0.84-0.78 1.68-1.4-0.62-1.29-0.67-1.29-0.78-1.23-0.79-1.23-0.84-1.12-0.89-1.13-1.01-1.06-1.01z" fill="#0093dd" stroke="#0093dd"/>
</g>
</g>
</g>
</svg>
