<?xml version="1.0" encoding="UTF-8"?>
<svg version="1.0" viewBox="0 0 603 763" xmlns="http://www.w3.org/2000/svg" xmlns:cc="http://web.resource.org/cc/" xmlns:dc="http://purl.org/dc/elements/1.1/" xmlns:rdf="http://www.w3.org/1999/02/22-rdf-syntax-ns#" xmlns:xlink="http://www.w3.org/1999/xlink">
<metadata>
<rdf:RDF>
<cc:Work rdf:about="">
<dc:format>image/svg+xml</dc:format>
<dc:type rdf:resource="http://purl.org/dc/dcmitype/StillImage"/>
<dc:date>07-AUG-2006</dc:date>
<dc:creator>
<cc:Agent>
<dc:title>Jérôme BLUM (wagner51)</dc:title>
</cc:Agent>
</dc:creator>
<cc:license rdf:resource="http://creativecommons.org/licenses/GPL/2.0/"/>
<dc:coverage/>
<dc:description>Gabarit pour le Projet:Blasons de WIkipédia</dc:description>
<dc:subject>
<rdf:Bag>
<rdf:li>blason suisse modèle gabarit projet blasons</rdf:li>
</rdf:Bag>
</dc:subject>
<dc:language>fr</dc:language>
<dc:title>Gabrit d'un blason suisse</dc:title>
</cc:Work>
<cc:License rdf:about="http://creativecommons.org/licenses/GPL/2.0/">
<cc:permits rdf:resource="http://web.resource.org/cc/Reproduction"/>
<cc:permits rdf:resource="http://web.resource.org/cc/Distribution"/>
<cc:requires rdf:resource="http://web.resource.org/cc/Notice"/>
<cc:permits rdf:resource="http://web.resource.org/cc/DerivativeWorks"/>
<cc:requires rdf:resource="http://web.resource.org/cc/ShareAlike"/>
<cc:requires rdf:resource="http://web.resource.org/cc/SourceCode"/>
</cc:License>
</rdf:RDF>
</metadata>
<defs>
<radialGradient id="a" cx="858.04" cy="579.93" r="300" gradientTransform="matrix(1.215 1.5316e-24 1.4647e-23 1.2667 -839.19 -490.49)" gradientUnits="userSpaceOnUse">
<stop stop-color="#fff" stop-opacity=".31373" offset="0"/>
<stop stop-color="#fff" stop-opacity=".25098" offset=".19"/>
<stop stop-color="#6b6b6b" stop-opacity=".12549" offset=".6"/>
<stop stop-opacity=".12549" offset="1"/>
</radialGradient>
</defs>
<desc>Coat of Arms of Canton of Freiburg (Fribourg)</desc>
<g>
<path d="m1.5 1.5v458.87c0 166.31 134.31 301.13 300 301.13 165.69 0 300-134.82 300-301.13v-458.87h-600z" fill="#fcef3c"/>
<path d="m121.5 1.5v699.81c34.094 25.704 73.831 44.239 117 53.5v-753.31h-117z" fill="#2b5df2" stroke="#000" stroke-width="3"/>
<path d="m361.5 1.5v753.97c43.077-8.7763 82.78-26.825 117-51.969v-702h-117z" fill="#2b5df2" stroke="#000" stroke-width="3"/>
<path d="m1.5 1.5v218.53l480.38 480.97c66.654-50.421 111.68-128.1 118.66-216.53l-482.34-482.97h-116.69z" fill="#fff" stroke="#000" stroke-width="2.9999"/>
</g>
<g fill="#e20909" stroke="#000">
<path transform="matrix(.95319 .027309 -.02836 1.0004 697.99 230.17)" d="m-341.6 220.58-71.139-35.416-69.504 38.525 11.699-78.601-58.117-54.197 78.369-13.162 33.586-72.021 36.736 70.466 78.874 9.6863-55.665 56.713 15.161 78.007z" stroke-width="3.071"/>
<path transform="matrix(.95319 .027309 -.02836 1.0004 527.99 57.025)" d="m-341.6 220.58-71.139-35.416-69.504 38.525 11.699-78.601-58.117-54.197 78.369-13.162 33.586-72.021 36.736 70.466 78.874 9.6863-55.665 56.713 15.161 78.007z" stroke-width="3.071"/>
<path transform="matrix(.95319 .027309 -.02836 1.0004 867.99 400.17)" d="m-341.6 220.58-71.139-35.416-69.504 38.525 11.699-78.601-58.117-54.197 78.369-13.162 33.586-72.021 36.736 70.466 78.874 9.6863-55.665 56.713 15.161 78.007z" stroke-width="3.071"/>
</g>
<g>
<path d="m1.5 1.5v458.87c0 166.31 134.31 301.13 300 301.13 165.69 0 300-134.82 300-301.13v-458.87h-600z" fill="url(#a)"/>
<path d="m1.5 1.5v458.87c0 166.31 134.31 301.13 300 301.13 165.69 0 300-134.82 300-301.13v-458.87h-600z" fill="none" stroke="#000" stroke-width="3"/>
</g>
</svg>
