<?xml version="1.0" encoding="UTF-8"?>
<svg version="1.0" viewBox="0 0 603 763" xmlns="http://www.w3.org/2000/svg" xmlns:cc="http://web.resource.org/cc/" xmlns:dc="http://purl.org/dc/elements/1.1/" xmlns:rdf="http://www.w3.org/1999/02/22-rdf-syntax-ns#" xmlns:xlink="http://www.w3.org/1999/xlink">
<metadata>
<rdf:RDF>
<cc:Work rdf:about="">
<dc:format>image/svg+xml</dc:format>
<dc:type rdf:resource="http://purl.org/dc/dcmitype/StillImage"/>
<dc:date>07-AUG-2006</dc:date>
<dc:creator>
<cc:Agent>
<dc:title>Jérôme BLUM (wagner51)</dc:title>
</cc:Agent>
</dc:creator>
<cc:license rdf:resource="http://creativecommons.org/licenses/GPL/2.0/"/>
<dc:coverage/>
<dc:description>Gabarit pour le Projet:Blasons de WIkipédia</dc:description>
<dc:subject>
<rdf:Bag>
<rdf:li>blason suisse modèle gabarit projet blasons</rdf:li>
</rdf:Bag>
</dc:subject>
<dc:language>fr</dc:language>
<dc:title>Gabrit d'un blason suisse</dc:title>
</cc:Work>
<cc:License rdf:about="http://creativecommons.org/licenses/GPL/2.0/">
<cc:permits rdf:resource="http://web.resource.org/cc/Reproduction"/>
<cc:permits rdf:resource="http://web.resource.org/cc/Distribution"/>
<cc:requires rdf:resource="http://web.resource.org/cc/Notice"/>
<cc:permits rdf:resource="http://web.resource.org/cc/DerivativeWorks"/>
<cc:requires rdf:resource="http://web.resource.org/cc/ShareAlike"/>
<cc:requires rdf:resource="http://web.resource.org/cc/SourceCode"/>
</cc:License>
</rdf:RDF>
</metadata>
<defs>
<radialGradient id="a" cx="858.04" cy="579.93" r="300" gradientTransform="matrix(1.215 1.5316e-24 1.4647e-23 1.2667 -839.19 -490.49)" gradientUnits="userSpaceOnUse">
<stop stop-color="#fff" stop-opacity=".31373" offset="0"/>
<stop stop-color="#fff" stop-opacity=".25098" offset=".19"/>
<stop stop-color="#6b6b6b" stop-opacity=".12549" offset=".6"/>
<stop stop-opacity=".12549" offset="1"/>
</radialGradient>
</defs>
<desc>Coat of Arms of Canton of Freiburg (Fribourg)</desc>
<path d="m1.5 1.5v458.87c0 166.31 134.31 301.13 300 301.13 165.69 0 300-134.82 300-301.13v-458.87h-600z" fill="#e20909"/>
<g fill-rule="evenodd" stroke="#000">
<path d="m435.18 1.7166h166.53l-0.38497 179.54-493.86 508.19c-69.477-57.069-109.99-151.42-105.49-235.67l433.21-452.05z" fill="#fff" stroke-width="3.948px"/>
<g transform="matrix(4.1886 0 0 4.1886 -2615.6 -2406.1)" fill="#e20909" stroke-width="1px">
<path d="m732.8 598.73c-15.613-8.705-32.788 4.1816-20.562 22.612 6.5574 9.8859 16.183 11.368 22.758 21.656 4.2978-13.809 28.937-22.806 26.003-39.984-2.9037-17.002-19.116-18.585-28.199-4.2837z"/>
<path d="m693.75 637.5c-15.613-8.705-27.178 2.7561-23.49 17.855 3.546 14.518 20.209 16.858 23.856 29.341 6.8597-14.175 30.035-22.44 27.101-39.618-2.9037-17.002-18.384-21.879-27.467-7.5776z"/>
<path d="m653.58 678.23c-15.613-8.705-25.252 2.2847-22.026 17.489 3.546 16.714 17.281 17.224 22.758 29.341 6.8597-14.175 30.767-18.414 27.833-42.18-2.1132-17.118-19.482-18.951-28.565-4.6497z"/>
</g>
<path d="m1.2188 2.7188c-2.4511 73.87 2.9336 544.42 0.75 451.06l67.912-70.868c76.644 18.131 43.467 158.89 54.968 243.59 9.4877-103.8 44.489-263.04-24.493-275.39l125.3-130.76c90.475 7.1442 51.047 163.02 66.067 235.53 10.27-72.537 40.292-269.09-35.683-267.24l113.35-118.28c109.46 3.355 74.628 138.86 94.02 215.33 3.2198-83.141 34.655-242.07-59.329-251.53l30.14-31.451h-433z" fill="#e20909" stroke-width="3"/>
</g>
<g>
<path d="m1.5 1.5v458.87c0 166.31 134.31 301.13 300 301.13 165.69 0 300-134.82 300-301.13v-458.87h-600z" fill="url(#a)"/>
<path d="m1.5 1.5v458.87c0 166.31 134.31 301.13 300 301.13 165.69 0 300-134.82 300-301.13v-458.87h-600z" fill="none" stroke="#000" stroke-width="3"/>
</g>
</svg>
