<?xml version="1.0" encoding="UTF-8"?>
<svg version="1.0" viewBox="0 0 603 763" xmlns="http://www.w3.org/2000/svg" xmlns:cc="http://web.resource.org/cc/" xmlns:dc="http://purl.org/dc/elements/1.1/" xmlns:rdf="http://www.w3.org/1999/02/22-rdf-syntax-ns#" xmlns:xlink="http://www.w3.org/1999/xlink">
<metadata>
<rdf:RDF>
<cc:Work rdf:about="">
<dc:format>image/svg+xml</dc:format>
<dc:type rdf:resource="http://purl.org/dc/dcmitype/StillImage"/>
<dc:date>07-AUG-2006</dc:date>
<dc:creator>
<cc:Agent>
<dc:title>Jérôme BLUM (wagner51)</dc:title>
</cc:Agent>
</dc:creator>
<cc:license rdf:resource="http://creativecommons.org/licenses/GPL/2.0/"/>
<dc:coverage/>
<dc:description>Gabarit pour le Projet:Blasons de WIkipédia</dc:description>
<dc:subject>
<rdf:Bag>
<rdf:li>blason suisse modèle gabarit projet blasons</rdf:li>
</rdf:Bag>
</dc:subject>
<dc:language>fr</dc:language>
<dc:title>Gabrit d'un blason suisse</dc:title>
</cc:Work>
<cc:License rdf:about="http://creativecommons.org/licenses/GPL/2.0/">
<cc:permits rdf:resource="http://web.resource.org/cc/Reproduction"/>
<cc:permits rdf:resource="http://web.resource.org/cc/Distribution"/>
<cc:requires rdf:resource="http://web.resource.org/cc/Notice"/>
<cc:permits rdf:resource="http://web.resource.org/cc/DerivativeWorks"/>
<cc:requires rdf:resource="http://web.resource.org/cc/ShareAlike"/>
<cc:requires rdf:resource="http://web.resource.org/cc/SourceCode"/>
</cc:License>
</rdf:RDF>
</metadata>
<defs>
<radialGradient id="a" cx="858.04" cy="579.93" r="300" gradientTransform="matrix(1.215 1.5316e-24 1.4647e-23 1.2667 -839.19 -490.49)" gradientUnits="userSpaceOnUse">
<stop stop-color="#fff" stop-opacity=".31373" offset="0"/>
<stop stop-color="#fff" stop-opacity=".25098" offset=".19"/>
<stop stop-color="#6b6b6b" stop-opacity=".12549" offset=".6"/>
<stop stop-opacity=".12549" offset="1"/>
</radialGradient>
</defs>
<desc>Coat of Arms of Canton of Freiburg (Fribourg)</desc>
<g>
<path d="m1.5 1.5v458.87c0 166.31 134.31 301.13 300 301.13 165.69 0 300-134.82 300-301.13v-458.87h-600z" fill="#e20909"/>
<path d="m1.5 1.5v458.88c0 166.31 134.31 301.12 300 301.12 165.69 0 300-134.81 300-301.12v-458.88h-600zm74.656 77.656h450.69v366.91c0 132.98-100.89 240.78-225.34 240.78-124.45 0-225.34-107.8-225.34-240.78v-366.91z" fill="#fcef3c" stroke="#000" stroke-width="3"/>
</g>
<g>
<path d="m76.5 79.5v125l311.03 464.16c54.943-24.27 98.915-71.086 121.88-129.66l-307.91-459.5h-125z" fill="#fff" fill-rule="evenodd" stroke="#000" stroke-width="3"/>
<g transform="translate(28.707 28.972)" stroke="#000" stroke-width="3.7634px">
<path d="m373.53 504.01c-17.023-80.938 51.54-73.762 50.548-46.15 25.164-4.7535 47.899 69.637-49.607 49.003 34.219-3.7552 104.93 54.651 40.382 62.913-31.645 47.59-55.475 5.7819-40.258-63.293-0.25237 47.257-64.736 85.063-65.287 29.749-38.409-45.514 23.065-52.681 64.223-32.222z" fill="#5ab532" fill-rule="evenodd"/>
<path d="m308.77 534.47 65.218-29.039 49.982-46.571" fill="none"/>
<path d="m318.14 468.42 37.505-25.437c2.9247 48.969 59.475 125.81 59.062 125.78-1.8891-1.3474-18.687-30.546-43.579-63.553-16.567-14.69-35.435-32.481-52.988-36.787z" fill="#5ab532" fill-rule="evenodd"/>
</g>
<g transform="translate(15.991 10)" stroke="#000" stroke-width="3.7634px">
<path d="m284.74 370.88c-17.023-80.938 51.54-73.762 50.548-46.15 25.164-4.7535 47.899 69.637-49.607 49.003 34.219-3.7552 104.93 54.651 40.382 62.913-31.645 47.59-55.475 5.7819-40.258-63.293-0.25237 47.257-64.736 85.063-65.287 29.749-38.409-45.514 23.065-52.681 64.223-32.222z" fill="#5ab532" fill-rule="evenodd"/>
<path d="m219.98 401.34 65.218-29.039 49.982-46.571" fill="none"/>
<path d="m229.36 335.29 37.505-25.437c2.9247 48.969 59.475 125.81 59.062 125.78-1.8891-1.3474-18.687-30.546-43.579-63.553-16.567-14.69-35.435-32.481-52.988-36.787z" fill="#5ab532" fill-rule="evenodd"/>
</g>
<g transform="matrix(1.0168 0 0 1.0168 -7.9832 -21.488)" stroke="#000" stroke-width="3.7634px">
<path d="m195.96 237.74c-17.023-80.938 51.54-73.762 50.548-46.15 25.164-4.7535 47.899 69.637-49.607 49.003 34.219-3.7552 104.93 54.651 40.382 62.913-31.645 47.59-55.475 5.7819-40.258-63.293-0.25237 47.257-64.736 85.063-65.287 29.749-38.409-45.514 23.065-52.681 64.223-32.222z" fill="#5ab532" fill-rule="evenodd"/>
<path d="m131.2 268.21 65.218-29.039 49.982-46.571" fill="none"/>
<path d="m140.57 202.16 37.505-25.437c2.9247 48.969 59.475 125.81 59.062 125.78-1.8891-1.3474-18.687-30.546-43.579-63.553-16.567-14.69-35.435-32.481-52.988-36.787z" fill="#5ab532" fill-rule="evenodd"/>
</g>
<path d="m1.5 1.5v458.87c0 166.31 134.31 301.13 300 301.13 165.69 0 300-134.82 300-301.13v-458.87h-600z" fill="url(#a)"/>
<path d="m1.5 1.5v458.87c0 166.31 134.31 301.13 300 301.13 165.69 0 300-134.82 300-301.13v-458.87h-600z" fill="none" stroke="#000" stroke-width="3"/>
</g>
</svg>
