<?xml version="1.0" encoding="UTF-8"?>
<svg version="1.0" viewBox="0 0 208.86 244.66" xmlns="http://www.w3.org/2000/svg" xmlns:cc="http://creativecommons.org/ns#" xmlns:dc="http://purl.org/dc/elements/1.1/" xmlns:rdf="http://www.w3.org/1999/02/22-rdf-syntax-ns#">
<metadata>
<rdf:RDF>
<cc:Work rdf:about="">
<dc:format>image/svg+xml</dc:format>
<dc:type rdf:resource="http://purl.org/dc/dcmitype/StillImage"/>
<dc:title/>
</cc:Work>
</rdf:RDF>
</metadata>
<path d="m1 1 3.7611 158c2.6865 112.86 196.65 112.86 199.34 0l3.7611-158z" fill="#fff" fill-rule="evenodd" stroke="#000" stroke-width="2"/>
<g transform="translate(-205.69)" stroke="#000" stroke-dashoffset="4.58">
<path d="m275.12 26.783c-0.34749 3.1398-1.1701 6.8438 0.26517 7.8666 2.7456-3.8937 5.2628-4.5886 7.7782-5.2591 0.35139 3.0076 1.2154 5.6246 4.0217 6.7617-0.59608-5.2778-0.0178-5.5228 0.13258-7.6014z" fill="#feeb00" stroke-miterlimit="14"/>
<path d="m258.01 22.66c-7.7576 4.2586-8.131 18.868 3.8125 21.75 12.386 2.9883 16.468-6.5102 25.875-5.625 7.1492 0.67274 10.154 3.8018 13.625 6.75l2.25-1.75c-8.488-6.7992-17.566-12.179-32.125-4.375l1.375 1c-12.309 4.8624-16.962-5.9158-12.5-14.625-0.8974 0.07342-2.1881 1.0253-3.25 2.25 0.066-1.6508 0.11991-2.672 0.9375-5.375z" fill="#cc2918" stroke-miterlimit="14"/>
<path d="m229.32 143.03c-2.7404 1.6829-3.9381 2.2722-5.875 4.75-1.5562 5.8778 0.20585 6.8938 1.471 6.346 4.4802-1.9401 3.0215 1.418 2.404 2.404-1.4642 2.3381-2.2697 0.77785-3.5 0.25-2.6735-1.147-3.7691 1.0574-4.375 3.75-0.0588 2.7969-1.3372 6.3815 2 7.375 1.8184 0.5413 3.5373-0.48966 4.75-3.375 2.5736 1.7227 4.4495 3.1806 1.625 3.875-8.532 2.0976-1.5646 7.7227-1.625 10 2.4724 0.76582 4.8066 3.8338 7.75-3.25 2.069 0.0198 3.7217-0.89695 5.125-2.375-0.85302 3.8742 0.60367 6.2087 4.75 6.75 5.8192 3.7122 10.5 8.6628 21.375 6.875 1.8478-2.6552 3.7795-5.2072 7.75-5.25 2.3387 0.0451 4.3684-0.58961 5.875-2.375v-49.375c-10.473-3.2907-41.407 17.023-16.125 32.875 2.3281 1.4598 1.3976 2.182-0.625 2.5-7.9284 1.2467-16.973 1.5285-22-1.75-3.909-2.5494 1.6574-9.3203-5-14.25 1.6925-5.3655-1.0072-7.7366-5.75-5.75z" fill="#cc2918" stroke-miterlimit="14"/>
<path d="m299.44 11.41c12.27-6.2434 16.981 0.98526 16.125 7.125l-11-3.375z" fill="#cc2918" stroke-miterlimit="14"/>
<path d="m241.54 24.159c7.5894-0.50936 7.7788 4.0239 5.4079 6.0013-8.6851 7.2436-5.4149 9.998-2.625 13.75 6.938 9.3304 17.936 12.465 31.875 10.5l7.5-6c2.2326-1.7861-0.77675-2.0645-2.25-2.125-4.5204-0.18553-3.855-2.3237-1.375-2.875 4.8246-1.0726 9.6092-1.1851 14.125 0.75 2.2488-2.5577 5.5853-3.6495 9.75-3.625-2.4497-2.4291-4.9588-4.7473-5.625-10.5-4.5093 2.9964-8.9425 2.5134-13.375 1.5-4.054-0.92683-7.9672-4.8884-12.25-1.25-2.4463-2.7507-2.3067-5.9006-0.875-9.25-3.0426-2.5202-0.54705-9.3512 7-8.375 4.6853 0.60602 8.2176 1.25 11.5 1.875 3.8386-6.4151 9.5927-4.7277 15.188-3.0625 4.886 1.4543 8.0696 3.6457 9.625 5.75 12.384-0.3539 19.125 8.4342 10.938 18.938 4.375 6.5156 3.3452 11.455-0.75 15.5-1.0965-0.92579-2.1462-1.5234-3.125-1.625 0.184 3.4432 0.37086 6.704-0.375 10.375-1.2083-0.44474-2.4167-1.0526-3.625-0.25l-14.5 21.75c-4.116 6.1739-10.575 15.323-8.25 20.75 4.7806 11.158 10.704 21.93 13.5 33.625 1.8406 1.3757 3.4415 2.9227 4.125 5.125 0.9887 2.8434 2.4565 0.49936 3-0.625 1.1708-1.6438 1.7867-3.565 1.625-5.875-6.0382-1.9037-7.0451-5.513-3.25-10.75-7.6776-24.341 0.0413-42.172 5.3321-47.735 8.9794-9.4404 22.028-21.443 20.668-39.265-4.4359-3.5218-7.5134-8.2226-5.75-17.125l3.375 2.625c-2.0467-6.2086-2.6423-11.462 0.125-14.5 0.32696 3.6064 1.085 4.9494 1.875 6.125 1.375-2.5357 2.75-3.8603 4.125-5 2.7257 4.043 0.42916 8.3574-1 12.625 1.4834 0.30533 2.3112 1.4122 2.875 2.75-2.188 2.44-4.3504 4.8756-2.625 6.625 1.0222-0.47206 1.9704-1.3146 2.875-2.375 2.4325 6.9098-0.28056 10.125-2.25 13.875-0.4385 8.7832-2.7987 16.422-8 22.25-6.5117 7.2966-12.013 14.7-15.875 22.625 2.7881 0.62806 6.2939 0.64092 5.75 4.125-5.2126 0.35856-7.5651 2.7765-8.625 6.125 3.0465 0.20476 5.8762-2.0645 9.25 1.875-2.7994 1.658-4.4905 3.801-4.625 6.625-4.1714 1.8402-5.0671 4.6632-4.25 8 3.0094-2.0612 6.6575-4.6031 8.625 0-3.397 2.413-5.2278 5.087-5.625 8 4.8105 2.9809 5.6847 8.5204 1.625 12.5 1.1332 6.3534-4.9483 20.96-14.625 13.125-13.789 13.696-7.3432 22.235 2.625 29.875 8.2756 24.174 0.51584 35.977 1.75 40.125 7.4586-0.89365 9.0791 4.3434 3.375 7.875-8.5366 7.9016-12.573 1.9357-11.25-3.625l-3.5 2.5c0.4285 7.4475-5.0032 5.9114-9.5 5.625-5.5448-0.13484-8.5323-1.7564-4-7.75-5.8469 3.5809-9.1311 1.7162-13.25 1.625-2.657-1.7093-4.412-4.1894-1.75-5.75-0.14452-4.8828 3.1315-7.4855 7.875-4.125 2.2851-2.0824 4.3112-2.481 6.125-1.5 1.8782-2.4989 5.5424-4.0754 8.5-4.25 0.97827-11.627-3.8516-18.736-9.125-25.5-24.85-7.0429-26.536-38.282-10.875-52.75 10.342-9.5546-3.7042-24.063-8.875-27.875-14.518 4.0425-23.304 0.46883-31.5-6.625 0.98904 6.2703-4.081 9.172-10.375 7.25-2.9483-0.90032-8.1304-8.0743 1-10 3.5406-0.74673 2.1271-1.2277 0.75-2-1.1208-0.6286-3.2416 0.76508-4.625 1-2.5954 0.44072-4.3398-13.373 2.25-13.5 1.7232-0.03326 3.4167 2.6782 5.125 4.25-1.1555-8.2123-5.7026-5.0814-7-8.375-1.3412-3.4049-0.96857-8.7637 7.625-8.5 5.2346 0.16062 3.3382 5.0261 2.75 7.75 6.8106 8.5561 14.988 12 25.625 6.25-12.763 0.93998-18.209-8.982-19-17.375-2.172-2.1972-5.4221-4.7681-5-9.75-1.8744 0.54818-3.7614 0.96915-6.125-3.375-8.145 3.2152-15.668-13.924-2-11.5l0.375-2c-3.6315 0.30142-6.6113-4.0627 0.75-9.125 1.571-1.0804 8.4498-1.1784 6.625 2.75-1.1911 2.5642-0.79582 3.9294 0.25 4.875 1.0892-2.5754 3.7137-2.384 2.375-5.5-2.3434-5.4543 3.0969-4.6921 5.8421-4.8763z" fill="#cc2918" stroke-miterlimit="14"/>
<path d="m265.82 102.53c5.6946-1.6656 10.563-4.3183 13.938-8.7539" fill="none" stroke-miterlimit="14"/>
<path d="m228.44 82.91c2.1924 4.2344 7.2605 5.3259 12.469 6.125" fill="none" stroke-miterlimit="14"/>
<path d="m257.44 80.035c5.4657-1.787 8.1949-6.0637 9.4375-12.375" fill="none" stroke-miterlimit="14"/>
<path d="m233.32 34.535c0.85068 2.4952 2.4896 3.4927 4.1562 4.4375" fill="none" stroke-miterlimit="14"/>
<path d="m225.32 38.035c-0.21839 1.0418-0.0614 2.1773 0.71875 3.4687" fill="none" stroke-miterlimit="14"/>
<path d="m227.32 49.535c0.76026-0.40735 1.498-0.97197 2.0938-2.5312" fill="none" stroke-miterlimit="14"/>
<path d="m251.3 74.866c0.24981-11.129 7.5679-18.656 20.074-19.974" fill="none" stroke-miterlimit="14"/>
<path d="m307.69 148.03c-2.2206-2.6355-2.9329-6.1441-4.125-9.375" fill="none" stroke-miterlimit="14"/>
<path d="m285.63 220.03c-0.28625-2.3932-1.1894-4.8102 0.5625-7.125" fill="none" stroke-miterlimit="14"/>
<path d="m274.41 223.31c0.16504 4.1947 1.621 6.7757 5.0823 6.8501-0.54326-2.0216-0.53153-3.8413 0.22097-5.3917-2.3671-2.8084-3.8613-2.2345-5.3033-1.4584z" fill="#feeb00" stroke-miterlimit="14"/>
<path d="m287.71 229.94c1.4128 2.3833 3.0637 4.4442 6.4524 4.1542-0.7522-1.5705-1.0713-3.0545-1.2374-4.5078-2.0629-1.911-3.6044-0.56287-5.2149 0.35355z" fill="#feeb00" stroke-miterlimit="14"/>
<path d="m313.43 227.34c1.9402 0.37204 2.1668 2.5647 2.2539 4.9056 4.0908-3.2558 3.1308-5.7193 1.2816-8.0433-3.93-0.68361-3.605 1.3074-3.5355 3.1378z" fill="#feeb00" stroke-miterlimit="14"/>
<path d="m218.94 145.66c2.193-0.18504 3.9095 0.50039 5.3125 1.8125 4.8577 0.41371 5.3173-1.5115 5.4375-3.875-3.537-0.5178-7.0527-1.5884-10.75 2.0625z" fill="#feeb00" stroke-miterlimit="14"/>
<path d="m216.26 158.72c0.39619 2.8256 1.9671 3.106 3.3125 3.875 1.2183-0.5981 2.5585-1.0521 2-3.75-1.8385 0.22886-3.6395 0.30806-5.3125-0.125z" fill="#feeb00" stroke-miterlimit="14"/>
<path d="m225.32 175.47c-1.7568 3.4348-2.6137 6.6939 2.375 8.8125-0.70581-2.263 0.29357-3.9577 1.5625-5.5625 0.0455-2.8294-1.6643-3.4019-3.9375-3.25z" fill="#feeb00" stroke-miterlimit="14"/>
<path d="m220.88 86.472c-1.5457 0.24219-3.1262 0.29933-4.1875 3.125-1.9294-4.5894 0.83425-6.4276 3.625-8.25 1.3317 1.4483 2.7962 2.8664 0.5625 5.125z" fill="#feeb00" stroke-miterlimit="14"/>
<path d="m222.26 101.6c-0.40179 4.453 0.38723 7.477 3.3125 7.9375-0.25037-2.253-0.28065-4.4746 0.625-6.5625-0.7613-1.2851-1.5471-2.5335-3.9375-1.375z" fill="#feeb00" stroke-miterlimit="14"/>
<path d="m218.44 65.972c2.8214 0.16071 4.0851 1.6395 4.75 3.625 1.7512-0.06092 3.398-0.26094 3.1875-2.9375-2.4218-1.5172-4.8631-2.9224-7.9375-0.6875z" fill="#feeb00" stroke-miterlimit="14"/>
<path d="m219.13 43.347c-2.9381 2.7951-5.008 5.6264-0.0625 8.75-0.10959-1.819-0.44463-3.7574 2.1875-4.125 0.78973-2.6455 0.25007-4.3115-2.125-4.625z" fill="#feeb00" stroke-miterlimit="14"/>
<path d="m224.76 29.097c-0.91358-3.5245-2.8085-4.9461-4.875-6 3.0208-2.612 6.0417-1.5544 9.0625 3.5-1.3958 2.9639-2.7917 2.5987-4.1875 2.5z" fill="#feeb00" stroke-miterlimit="14"/>
<path d="m236.63 18.41c1.8502 1.784 3.3804 3.7374 2.4375 7 1.9093 1.0803 3.611 0.60364 5.1875-0.8125-0.83078-5.2277-3.4614-7.1256-7.625-6.1875z" fill="#feeb00" stroke-miterlimit="14"/>
<path d="m278.08 52.946c5.8393 10.741 14.961 19.329 30.936 23.423 2.2122 0.60841 3.4637-2.1909 1.2267-2.7191-16.617-2.8985-24.278-11.96-30.306-22.206-0.76684-1.3035-2.6801-0.01297-1.8562 1.5026z" fill="#feeb00" stroke-miterlimit="14"/>
<path d="m284.8 47.996c5.3433 9.1008 14.024 16.063 29.317 19.82 1.5096 0.37089 1.9657-1.9413 1.0607-2.1213-11.264-2.241-20.638-7.2153-28.698-19.113-0.65602-0.96837-2.4056 0.17737-1.6794 1.4142z" fill="#feeb00" stroke-miterlimit="14"/>
<path d="m282.08 48.461c-0.66731 0.09005-1.1954 0.77408-0.55078 1.9219 5.5659 9.9106 14.629 16.553 25.986 21.035 0.26421 2.2991 3.6363 2.9102 4.8613 1.416 1.6886 4.9502 3.5238 10.006 11.668 9.8984 4.8886-0.06465 9.9694-2.4964 10.254-10.076 0.24548-6.5393-4.9625-10.15-10.607-10.076-5.7888 0.07567-8.0525 3.9209-10.139 7.1543-0.1972-1.9479-3.5539-2.7672-4.8867-0.83398-16.226-5.6274-20.544-12.829-25.457-19.932-0.2781-0.40203-0.72852-0.56184-1.1289-0.50781zm41.477 16.934c0.21735-0.0064 0.43199-0.0018 0.64258 0.01563 4.1281 0.34138 7.3129 3.5516 7 7.875-0.30669 4.2378-3.6542 5.8782-7.75 5.9375-3.5501 0.05139-7.3361-3.3702-7.1875-7.0625 0.15869-3.9418 4.0347-6.6696 7.2949-6.7656z" fill="#feeb00" stroke-miterlimit="2"/>
<path d="m292.75 17.988c-0.56022 2.0781-0.11976 3.9949 1.9004 5.6569l5.922 1.2374c1.5753-1.8878 3.2517-2.0549 4.9056-2.6075-3.7241-2.2068-7.8401-3.8257-12.728-4.2868z" fill="#feeb00"/>
<path d="m271.82 21.035c1.0698-0.41163 1.9164-0.97212 2.2813-1.8537-1.1484-0.29105-2.2975-0.32298-3.4473-0.08374" fill="none"/>
<path d="m295.62 23.848 0.0706-1.7195 0.96875 0.90625 0.83682-4.193 2.5062 5.9219z" stroke-miterlimit="3"/>
<path d="m316.44 25.035c-0.58072-1.4911-1.1333-3.1162-1.5625-5.125 4.983-0.06403 10.998 0.82095 10.75 11.062-0.0132 0.54529-0.85726 0.22757-0.875-0.1875-0.0991-2.3188 1.1053-7.516-7.4375-8.5 0.10406 1.0936 0.0429 1.964 0 2.8125-0.0134 0.26509-0.70339 0.37813-0.875-0.0625z" stroke-miterlimit="3"/>
</g>
<path d="m148.09 201.79c-3.2529 2.8733-5.2449 5.5527-5.4359 7.955 4.5868-1.1626 9.0755-2.5831 13.347-4.7288 2.6891-1.3509 3.1086-3.5001 4.1984-5.4359z" fill="#feeb00" stroke="#000" stroke-dashoffset="4.58"/>
<path d="m152.88 75.347c-4.4181 0.23565-9.6357 0.32378-13.062-2.9375-2.6472-2.5194-6.3274-4.5005-11.938-3.9375l-0.25 9.1875c2.5102 3.0702 5.3536 5.5248 8.125 7.625 5.0402 3.8194 7.9252 3.9671 11.812 5.75z" fill="#cc2918" stroke="#000" stroke-dashoffset="4.58"/>
<path d="m147.84 75.391c0.3471 3.297-0.34776 7.1149-0.90558 10.864l4.7842-10.852c-1.3495 0.0642-2.6117 0.05638-3.8786-0.01253z" stroke="#000" stroke-dashoffset="4.58"/>
<path d="m150.26 16.972c-3.4356 7.4091-1.4828 12.754-0.17678 18.385 1.3098 5.6476 3.1832 11.292 1.2374 16.263-8.8867 7.8066-5.7828 13.399 1.0607 18.738-0.86724 6.1269-12.403 32.467-18.007 47.052-5.9123 15.388-12.156 28.222-12.875 53.562 3.7902 4.7758 1.4106 15.659 1.4482 23.836 0.0313 6.815 3.0418 12.751 12.64 12.64 6.4398-0.0746 16.254-10.358 38.272-4.9497 1.2227 0.30034 2.4458 2e-3 3.7651-0.96376 3.0939-2.2655 6.1663-4.9556 9-8.625 1.3506-1.7489 0.69067-2.734 0.25-3.8125l-2.375-5.8125c1.4152-1.6316 3.0771-2.8383 3.375-6.375 0.15998-1.8994 2.4826-4.542 4-6.6875-5.1386-11.88-7.1591-22.604-7.055-32.601 0.14551-13.965 0.11225-28.081-0.61872-42.515 5.2737-4.3186 9.7918-9.6979 11.756-18.473 1.4087-6.2943 1.009-11.671-1.149-16.087 2.8059-0.26058 2.3556-1.6841 1.9446-3.0936-1.2905-3.3153-3.0461-6.6559-6.2756-10.076 2.0902-0.89802 3.1529-1.9042 0.7955-3.2704-4.1141-2.7344-7.7623-2.8055-11.402-2.8284-2.4443-6.9671-3.6047-13.078-3.0052-17.501 0.9863-7.277 0.84008-14.7-9.7227-13.877-6.9746 0.54373-13.194 2.5318-17.766 5.2149z" fill="#cc2918" stroke="#000" stroke-dashoffset="4.58" stroke-miterlimit="3"/>
<path d="m152.82 51.531c6.1182-0.08033 12.216-0.32812 18.562 1.4142-3.8309-4.8106-6.9386-9.7787-9.3381-14.989 0.19857 2.4519 0.0258 4.9945-0.11942 6.4151-2.5826 2.9677-5.6981 5.2503-9.104 7.1595z" fill="#feeb00" stroke="#000" stroke-dashoffset="4.58" stroke-miterlimit="3"/>
<path d="m151.32 51.62 1.5026-0.08839" fill="none" stroke="#000" stroke-dashoffset="4.58" stroke-miterlimit="3"/>
<path d="m148.58 22.318 2.3471 2.8292-0.13258 6.4082 2.0771 0.97227c0.8813 2.6181 1.5052 6.3475 3.0052 6.364 2.093 0.02294 4.1641-0.23875 6.174-0.93505-2.1717-4.7712-2.7825-10.252-6.616-14.268l-5.1707-6.7175c-0.65147 1.5194-1.4187 3.3503-1.6842 5.3467z" fill="#feeb00" stroke="#000" stroke-dashoffset="4.58" stroke-miterlimit="3"/>
<path d="m158.83 65.011c-0.11337-3.3224 0.57009-6.0319 1.9887-8.1759l3.0936 1.2816-3.5797 6.9827z" fill="#feeb00" stroke="#000" stroke-dashoffset="4.58" stroke-miterlimit="3"/>
<path d="m152.78 65.232c-0.6625-3.6827-0.17494-6.9821 1.9887-9.7227l3.0936 0.83969c-1.5008 2.5273-2.0485 5.5312-1.9004 8.883z" fill="#feeb00" stroke="#000" stroke-dashoffset="4.58" stroke-miterlimit="3"/>
<path d="m150.44 63.906c-0.143-2.6829 0.17808-5.2655 0.61872-7.8224-0.77213 0.41221-2.3249 2.0328-3.0052 4.3752 0.31073 2.3533 1.414 2.8219 2.3865 3.4471z" fill="#feeb00" stroke="#000" stroke-dashoffset="4.58" stroke-miterlimit="3"/>
<path d="m121.65 167.32c3.3361 3.4729 6.5184 7.4777 7.1363 16.881 0.48256 7.343 5.2937 16.294 18.296 12.551 10.219-2.9419 22.308-4.5853 30.957 4.4783l2.5431-2.0178c-10.43-9.5881-21.079-8.977-31.291-6.2611-12.285 3.2674-17.279-1.6055-17.678-10.076-0.48056-10.218-3.7718-16.2-9.6958-19.641z" fill="#feeb00" stroke="#000" stroke-dashoffset="4.58" stroke-miterlimit="3"/>
<path d="m184.5 183.28c-2.8588-6.6482-7.0624-22.48-3.0442-46.105-1.0122 13.928-0.16908 28.839 5.8505 42.298-0.56208 1.4982-1.7247 2.6277-2.8063 3.8069z" stroke="#000" stroke-dashoffset="4.58"/>
<path d="m153.53 34.732c1.5686-0.11964 2.6598-0.53772 3.5648-1.0721" fill="none" stroke="#000" stroke-dashoffset="4.58"/>
<path d="m154.64 22.662c-1.017 0.07385-1.9194 0.86097-1.7343 1.3726 0.2939 0.81275 0.8736 1.2248 1.375 1.4375 1.118 0.47436 1.5955-0.15828 1.9998-0.80582z" fill="none" stroke="#000" stroke-dashoffset="4.58"/>
<path d="m153.44 31.202 0.97227-0.48614" fill="none" stroke="#000" stroke-dashoffset="4.58"/>
<path d="m153.47 24.939 1.9562-1.2497" fill="none" stroke="#000" stroke-dashoffset="4.58"/>
<path d="m158 11.52c-0.42938 3.9455 0.89289 7.7989 3.6294 11.578" fill="none" stroke="#000" stroke-dashoffset="4.58"/>
<path d="m151.75 13.856c0.49058 2.2774 1.4766 4.7124 5.311 8.0537 1.7239 1.7062 3.3578 3.9071 4.75 7.4375 4.1744 10.963 8.3416 21.928 21.625 29.312" fill="none" stroke="#000" stroke-dashoffset="4.58"/>
<path d="m171.38 52.946c3.6745 3.7554 7.5362 7.2197 11.74 10.152-0.10888-4.5538 1.4563-8.8104 3.75-12.938-12.747-8.6528-12.861-13.753-15.5-19.562" fill="none" stroke="#000" stroke-dashoffset="4.58"/>
<path d="m167.19 29.655c1.1021 6.1752 3.2742 11.841 6.8501 16.838" fill="none" stroke="#000" stroke-dashoffset="4.58"/>
<path d="m184.64 106.33c-0.23372-5.982-4.1001-18.204-8.3051-30.406-0.0574-0.59775 0.46185-0.68286 1.149-0.61872 2.2752 0.09015 5.4158 3.0581 6.2756 6.5407 0.95299 3.8406 1.3476 8.0003 1.7301 12.167l-1.2882 1.0913z" stroke="#000" stroke-dashoffset="4.58"/>
<path d="m176.98 72.546c-0.67525-1.4853-1.5675-3.0259-1.4142-4.2205 0.28974-2.2575 2.22-3.228 4.3531-3.9554-0.0669 2.5749 0.49091 6.5849-2.9389 8.1759z" fill="#fff" stroke="#000" stroke-dashoffset="4.58"/>
<path d="m176.33 75.927c-0.16044-1.0448 0.38796-2.2371 0.64081-3.3809" fill="none" stroke="#000" stroke-dashoffset="4.58"/>
<g fill="#feeb00" stroke="#000" stroke-dashoffset="4.58">
<path d="m146.06 124.23 0.0884 5.8778c0.0286 1.9054 5.4652 2.0841 5.3917-0.61872l-0.17678-6.4965c-0.0529-1.9441-5.3449-1.5295-5.3033 1.2374z"/>
<path d="m148.67 124.1 0.0884 4.9056"/>
</g>
<g transform="matrix(1 0 0 1.0997 -.97249 -26.773)" fill="#feeb00" stroke="#000" stroke-dashoffset="4.58" stroke-width=".95358">
<path d="m146.06 124.23 0.0884 5.8778c0.0286 1.9054 5.4652 2.0841 5.3917-0.61872l-0.17678-6.4965c-0.0529-1.9441-5.3449-1.5295-5.3033 1.2374z"/>
<path d="m148.67 124.1 0.0884 4.9056"/>
</g>
<g transform="translate(1.9443 13.613)" fill="#feeb00" stroke="#000" stroke-dashoffset="4.58">
<path d="m146.06 124.23 0.0884 5.8778c0.0286 1.9054 5.4652 2.0841 5.3917-0.61872l-0.17678-6.4965c-0.0529-1.9441-5.3449-1.5295-5.3033 1.2374z"/>
<path d="m148.67 124.1 0.0884 4.9056"/>
</g>
<g transform="matrix(.49812 -.60814 .68024 .44532 -28.454 121.12)" fill="#feeb00" stroke="#000" stroke-dashoffset="4.58" stroke-width="1.2544">
<path d="m146.06 124.23 0.0884 5.8778c0.0286 1.9054 5.4652 2.0841 5.3917-0.61872l-0.17678-6.4965c-0.0529-1.9441-5.3449-1.5295-5.3033 1.2374z"/>
<path d="m148.67 124.1 0.0884 4.9056"/>
</g>
<g transform="matrix(.81153 -.16476 .14958 .80981 7.3304 21.727)" fill="#feeb00" stroke="#000" stroke-dashoffset="4.58" stroke-width="1.211">
<path d="m146.06 124.23 0.0884 5.8778c0.0286 1.9054 5.4652 2.0841 5.3917-0.61872l-0.17678-6.4965c-0.0529-1.9441-5.3449-1.5295-5.3033 1.2374z"/>
<path d="m148.67 124.1 0.0884 4.9056"/>
</g>
<path d="m146.77 116.57 0.35355 6.1855c0.0683 1.1955 2.4827 2.0486 2.3865-0.0515l-0.30936-6.7525c-0.0454-0.99058-2.5432-1.3506-2.4307 0.61855z" fill="#feeb00" stroke="#000" stroke-dashoffset="4.58"/>
<path d="m147.9 130.52 0.8592 6.3269c0.16603 1.2229 2.6393 1.8225 2.3713-0.32841l-0.86171-6.9158c-0.12643-1.0145-2.6423-1.0969-2.3688 0.91724z" fill="#feeb00" stroke="#000" stroke-dashoffset="4.58"/>
<path d="m146.08 102.8 0.59085 6.0273c0.11416 1.165 2.5595 1.9032 2.3827-0.14414l-0.56846-6.5828c-0.0834-0.96567-2.5932-1.2191-2.405 0.69964z" fill="#feeb00" stroke="#000" stroke-dashoffset="4.58"/>
<path d="m133.96 89.826 4.3911 2.9947c0.8487 0.57884 2.9142-0.86958 1.438-1.9051l-4.7464-3.3295c-0.69628-0.4884-2.4807 1.2865-1.0828 2.2399z" fill="#feeb00" stroke="#000" stroke-dashoffset="4.58"/>
<path d="m138.11 75.396c-0.17999-1.1795-0.25945-2.3497-1.5026-3.4471-3.0187-2.6649-5.8565-3.9382-8.6179-4.1543-0.7038-0.63693-0.69228-0.9296-2.2539-2.0329-1.3909-0.98273-2.4935-0.29556-3.0494 1.37-1.1717-0.77218-3.5054 0.2217-3.2483 2.0108-2.9477 0.81634-2.3984 2.4921-1.9887 3.0936-0.15666 1.1692-0.70125 2.5234 0.68501 3.4692 2.6669 1.8196 5.6819 1.2192 8.6179 0.97227 1.5046-0.12654 2.6435-0.76473 5.0381 0.30936l3.6529 1.6384c1.0478-0.86729 3.0097-0.98239 2.6668-3.2294z" fill="#feeb00" stroke="#000" stroke-dashoffset="4.58"/>
<path d="m117.45 72.236c1.2594 1.7201 4.9478 2.8029 8.2643 2.4749 1.711 0.62539 0.30543 2.1193-0.86746 2.1479" fill="none" stroke="#000" stroke-dashoffset="4.58"/>
<path d="m119.43 69.143c0.17913 1.6113 2.664 3.7199 6.6512 3.6681 1.2313 0.80069 0.43929 1.4845-0.37565 1.9003" fill="none" stroke="#000" stroke-dashoffset="4.58"/>
<path d="m122.68 67.132c0.70092 2.5127 2.2304 3.1045 3.8326 3.528 1.2869 0.47714 0.7125 1.6904-0.19769 2.1067" fill="#feeb00" stroke="#000" stroke-dashoffset="4.58"/>
<path d="m153.43 142.36c-1.807-0.11672-3.5883-1e-3 -5.3537 0.25638l-0.0243 1.4508c-3.1345 1.3695-5.4345 4.591-5.4345 8.2303 0 4.9015 3.9735 8.875 8.875 8.875s8.875-3.9735 8.875-8.875c0-4.2296-2.9587-7.7682-6.9194-8.6588zm-1.9375 4.3125c3.1066 0 5.625 2.5184 5.625 5.625s-2.5184 5.625-5.625 5.625-5.625-2.5184-5.625-5.625 2.5184-5.625 5.625-5.625z" fill="#feeb00" stroke="#000" stroke-dashoffset="4.58"/>
<path d="m142.06 90.16c-2.7348 1.7622-5.1942 3.8162-6.125 7.5-0.29969 1.186 0.3415 1.6174 0.75 1.875-0.41606 1.0749-0.17875 2.2971 0.625 2.5-0.69428 1.2484 1.4786 2.7794 2.4375 0.51563 0.62786 0.15087 1.1259 0.57292 2.5469-0.96875 2.5117-2.725 6.0015-4.2234 9.7031-5.3594 2.1914-0.67254 4.2406-1.1844 6.5625-2.25 8.2097-3.7675 18.7-3.8935 25.556-10.542-0.44969-2.9348-2.0587-6.211-5.3201-7.7998-8.7548 4.0753-19.638 10.322-26.236 12.154-4.0017 1.111-8.7944-0.57839-12.641 0.23438-1.1137 0.18524-1.5482 1.4007-0.375 1.4375 0.93547 0.17622 1.868 0.3542 2.5156 0.70312z" fill="#feeb00" stroke="#000" stroke-dashoffset="4.58"/>
<path d="m139.75 102.55c1.0165-2.7261 2.8598-5.0388 5.875-6.7656" fill="none" stroke="#000" stroke-dashoffset="4.58"/>
<path d="m136.69 99.535c1.085-3.0967 2.948-5.1822 5.2812-6.6562" fill="none" stroke="#000" stroke-dashoffset="4.58"/>
<path d="m137.31 102.03c1.6622-3.1313 3.6132-6.0119 6.8438-7.7812" fill="none" stroke="#000" stroke-dashoffset="4.58"/>
<path d="m147.07 208.52c1.7994-0.62187 11.012-5.124 12.437-7.5446-2.6384 0.0588-6.5103 0.93543-9.0952 1.4828 7.5943-1.3813 4.4898 3.0935-3.3418 6.0618z" stroke="#000" stroke-dashoffset="4.58"/>
<path d="m76.387 48.461c-0.66731 0.09005-1.1954 0.77408-0.55078 1.9219 5.5659 9.9106 14.629 16.553 25.986 21.035 0.26421 2.2991 3.6363 2.9102 4.8613 1.416 1.6886 4.9502 3.5238 10.006 11.668 9.8984 4.8886-0.06465 9.9694-2.4964 10.254-10.076 0.24548-6.5393-4.9625-10.15-10.607-10.076-5.7888 0.07567-8.0525 3.9209-10.139 7.1543-0.1972-1.9479-3.5539-2.7672-4.8867-0.83398-16.226-5.6274-20.544-12.829-25.457-19.932-0.2781-0.40203-0.72852-0.56184-1.1289-0.50781zm41.477 16.934c0.21735-0.0064 0.43199-0.0018 0.64258 0.01563 4.1281 0.34138 7.3129 3.5516 7 7.875-0.30669 4.2378-3.6542 5.8782-7.75 5.9375-3.5501 0.05139-7.3361-3.3702-7.1875-7.0625 0.15869-3.9418 4.0347-6.6696 7.2949-6.7656z" fill="#feeb00" stroke="#000" stroke-dashoffset="4.58" stroke-miterlimit="2"/>
<g transform="translate(8.5981 -322.17)" stroke="#000" stroke-dashoffset="4.58">
<path d="m128.01 394.12c-3.0187-2.6649-5.6534-3.485-8.4147-3.7011-0.7038-0.63693-1.5071-1.3333-2.7695-2.2673-1.077-0.79679-2.181-0.51431-2.7369 1.1513-1.1717-0.77218-3.5054 0.2217-3.2483 2.0108-2.9477 0.81634-2.3984 2.4921-1.9887 3.0936-0.15666 1.1692-0.70125 2.5234 0.68501 3.4692 1.7189 1.1728 3.5823 1.3402 5.476 1.245 3.6588-0.0169 3.0003-1.9738 2.3761-2.1367 1.0968-1.5006 0.74303-1.1268 0.38759-2.0462 0.5096-0.71143 0.24816-2.0804 0.14487-2.1078 0.11469 0.0581 1.6021 0.57333 2.057 0.86405 0.0774 2.4429-0.35952 4.1366-0.65899 4.9503 1.1182-0.26842 2.0695-0.29619 3.8734 0.51291l6.0104 2.6958c1.3617 0.53578 1.3274-2.2917 1.0271-4.4088-0.19205-1.3538-1.3266-2.506-2.2203-3.3252z" fill="#feeb00"/>
<path d="m108.85 394.41c1.2594 1.7201 4.9478 2.8029 8.2643 2.4749 1.711 0.62539 0.30543 2.1193-0.86746 2.1479" fill="none"/>
<path d="m110.84 391.32c0.17913 1.6113 2.664 3.7199 6.6512 3.6681 1.2313 0.80069 0.43929 1.4845-0.37565 1.9004" fill="none"/>
<path d="m114.08 389.31c0.0915 2.0908 2.2773 2.9795 3.8326 3.528 1.2869 0.47714-0.19769 2.1067-0.19769 2.1067" fill="#feeb00"/>
</g>
<g transform="matrix(.54454 -.67295 .55099 .45694 -26.729 124.19)" fill="#feeb00" stroke="#000" stroke-dashoffset="4.58" stroke-width="1.2704">
<path d="m146.06 124.23 0.0884 5.8778c0.0286 1.9054 5.4652 2.0841 5.3917-0.61872l-0.17678-6.4965c-0.0529-1.9441-5.3449-1.5295-5.3033 1.2374z"/>
<path d="m148.67 124.1 0.0884 4.9056"/>
</g>
<path d="m119.36 79.787 2.1128 1.4161c0.40834 0.27374 2.2772-1.2939 1.5758-1.7924l-2.2554-1.603c-0.33086-0.23514-2.1057 1.5285-1.4332 1.9793z" fill="#feeb00" stroke="#000" stroke-dashoffset="4.58"/>
<path d="m125.55 84.619 3.3581 2.0946c0.64903 0.40488 2.5384-1.1936 1.4126-1.9238l-3.6197-2.3477c-0.53101-0.34439-2.22 1.5101-1.151 2.1769z" fill="#feeb00" stroke="#000" stroke-dashoffset="4.58"/>
</svg>
