<?xml version="1.0" encoding="UTF-8" standalone="no"?>
<!-- Created with Inkscape (http://www.inkscape.org/) -->

<svg
   xmlns:dc="http://purl.org/dc/elements/1.1/"
   xmlns:cc="http://creativecommons.org/ns#"
   xmlns:rdf="http://www.w3.org/1999/02/22-rdf-syntax-ns#"
   xmlns:svg="http://www.w3.org/2000/svg"
   xmlns="http://www.w3.org/2000/svg"
   xmlns:sodipodi="http://sodipodi.sourceforge.net/DTD/sodipodi-0.dtd"
   xmlns:inkscape="http://www.inkscape.org/namespaces/inkscape"
   version="1.0"
   width="208.86046"
   height="244.65999"
   id="svg2780"
   inkscape:version="0.92.3 (2405546, 2018-03-11)"
   sodipodi:docname="Gachnang-blazon.svg">
  <metadata
     id="metadata27">
    <rdf:RDF>
      <cc:Work
         rdf:about="">
        <dc:format>image/svg+xml</dc:format>
        <dc:type
           rdf:resource="http://purl.org/dc/dcmitype/StillImage" />
        <dc:title></dc:title>
      </cc:Work>
    </rdf:RDF>
  </metadata>
  <sodipodi:namedview
     pagecolor="#ffffff"
     bordercolor="#666666"
     borderopacity="1"
     objecttolerance="10"
     gridtolerance="10"
     guidetolerance="10"
     inkscape:pageopacity="0"
     inkscape:pageshadow="2"
     inkscape:window-width="1752"
     inkscape:window-height="1281"
     id="namedview25"
     showgrid="false"
     inkscape:zoom="3.3234019"
     inkscape:cx="46.294713"
     inkscape:cy="157.74703"
     inkscape:window-x="167"
     inkscape:window-y="96"
     inkscape:window-maximized="0"
     inkscape:current-layer="svg2780"
     inkscape:measure-start="104.255,149.787"
     inkscape:measure-end="104.255,126.383"
     inkscape:object-paths="true"
     inkscape:snap-nodes="true"
     inkscape:snap-bbox="false" />
  <defs
     id="defs2782" />
  <path
     inkscape:connector-curvature="0"
     style="fill:#ffffff;fill-opacity:1;fill-rule:evenodd;stroke:#000000;stroke-width:1.99999988;stroke-linecap:butt;stroke-miterlimit:4;stroke-dashoffset:0;stroke-opacity:1"
     id="path4212"
     d="m 1,1 3.761095,158.00304 c 2.686489,112.85918 196.651755,112.85918 199.338255,0 L 207.86045,1 Z" />
  <g
     id="g25751"
     transform="translate(2,-0.3008965)">
    <path
       sodipodi:nodetypes="ccsssscccsssssscccc"
       inkscape:connector-curvature="0"
       id="path25708"
       d="m 18.617021,35.404669 c 2.361545,0.100126 6.792005,2.002566 12.659575,4.361702 0,0 5.546008,4.727112 7.021276,5.425532 1.240992,0.587509 26.903419,7.945346 28.829788,8.297872 4.263441,0.780211 5.379356,-0.971957 7.87234,-0.319149 1.819426,0.476431 2.590347,2.728759 3.93617,4.042554 6.715273,6.555465 29.55236,26.784185 29.55236,26.784185 -6.54223,2.336866 -10.118347,2.986345 -11.131686,8.23315 l -4.755158,2.036397 c 0,0 -18.868379,-30.380391 -20.048494,-31.734583 -1.179,-1.352912 -2.973262,-2.107716 -4.680851,-2.659575 -1.260258,-0.407291 -30.000001,-4.361702 -30.000001,-4.361702 -2.62837,-0.382139 -3.244167,-2.37133 -3.93617,-4.361702 -0.621052,-1.7863 -2.409587,-2.723567 -5.531915,-1.276596 -1.062229,0.492266 -2.093303,1.258589 -3.297872,0.957447 l -7.659574,-1.914894 c -1.687437,-2.253126 -2.734757,-6.553096 -2.978724,-9.521276 l 4.468085,1.329787 c -0.703155,-1.465153 -0.76361,-3.587545 -0.319149,-5.319149 z"
       style="fill:#cc2918;fill-opacity:1;fill-rule:evenodd;stroke:#000000;stroke-width:1px;stroke-linecap:butt;stroke-linejoin:miter;stroke-opacity:1" />
    <path
       sodipodi:nodetypes="ccccssssscccccccsscc"
       inkscape:connector-curvature="0"
       id="path25712"
       d="m 92.375226,137.23994 c -2.575048,-7.45687 24.397694,-10.98273 41.674164,-16.69976 l 5.11524,10.08003 c -12.0066,5.87724 -22.59627,12.22678 -31.59413,19.10693 -1.87568,5.40961 1.97094,16.88745 2.40717,20.00962 0.34538,2.47198 -1.82325,3.42626 -3.46031,4.66389 -1.98432,1.50016 -3.86528,0.23695 -4.81434,0.15045 -4.067096,-0.37068 -24.668604,9.39201 -36.859824,14.44304 -1.680078,0.69608 -3.60451,0.6401 -5.867481,-0.90269 -2.882241,-1.96498 -6.498594,0.16358 -6.01793,3.30986 -2.678706,2.7259 -4.333372,7.09447 -8.725999,7.07107 -3.337948,-0.62018 -6.67059,-1.24479 -9.177343,-2.55763 l 1.955827,-1.65493 c -2.379893,-1.05158 -3.85615,-2.60517 -4.964792,-4.363 l 11.584515,-7.8233 c 3.791505,-2.34739 5.467268,-0.69837 8.124206,-0.90269 6.080046,1.26366 7.005174,0.16906 9.478239,-0.75224 4.781469,-1.78126 19.271031,-6.92757 23.047206,-8.97453 6.136593,-3.32647 5.897255,-9.39193 2.829894,-21.56647 -6.315718,-7.00833 -0.922181,-10.11213 5.265688,-12.63765 z"
       style="fill:#cc2918;fill-opacity:1;fill-rule:evenodd;stroke:#000000;stroke-width:1px;stroke-linecap:butt;stroke-linejoin:miter;stroke-opacity:1" />
    <path
       inkscape:connector-curvature="0"
       id="path25714"
       d="m 132.44681,138.17063 -13.29787,-25.53192 19.68085,7.87234 z"
       style="fill:#cc2918;fill-opacity:1;fill-rule:evenodd;stroke:#000000;stroke-width:1px;stroke-linecap:butt;stroke-linejoin:miter;stroke-opacity:1" />
    <path
       inkscape:connector-curvature="0"
       id="path25716"
       d="m 104.68085,106.04297 2.06218,-6.49032"
       style="fill:#cc2918;fill-opacity:1;fill-rule:evenodd;stroke:#000000;stroke-width:1px;stroke-linecap:butt;stroke-linejoin:miter;stroke-opacity:1" />
    <path
       inkscape:connector-curvature="0"
       id="path25732"
       d="m 18.93617,40.723818 8.829788,3.031915"
       style="fill:#cc2918;fill-opacity:1;fill-rule:evenodd;stroke:#000000;stroke-width:1px;stroke-linecap:butt;stroke-linejoin:miter;stroke-opacity:1" />
    <path
       sodipodi:nodetypes="ccscccccccccsssccccccssccccsssssscccccccccccscccccccccccc"
       inkscape:connector-curvature="0"
       id="path25710"
       d="m 121.26129,14.77506 c -12.99439,7.668042 -14.44124,15.096757 11.13317,21.965445 11.62497,8.956635 8.71667,21.371852 3.15941,26.930237 -3.70896,3.709709 -8.48183,7.067615 -12.63765,9.177343 -16.21449,-0.214966 -28.941473,0.514096 -31.255623,16.737368 l -29.745703,8.159642 c -3.249997,-0.159211 -6.476188,-0.256524 -7.765958,4.680855 L 34.255319,122.6919 c -10.930492,2.35489 -16.132871,6.91289 -21.702127,11.32979 1.173399,2.2254 3.148514,3.16805 5,4.30851 l -1.382979,1.80851 c 5.788361,1.76399 12.343442,2.13449 17.021276,-5.95744 -0.491202,-2.49465 -1.014786,-6.64012 3.936171,-6.01064 4.340463,0.55186 5.317037,-0.75198 6.43617,-2.12766 0,0 15.03287,-19.07579 16.010638,-19.68085 1.104066,-0.68322 33.829787,1.38297 33.829787,1.38297 1.325921,4.32417 9.599225,3.12313 11.276595,-1.70212 10.56282,6.02035 19.77323,12.75668 27.92553,20.05319 -1.88954,10.26861 -7.47614,24.02889 -2.39361,27.71276 -2.02729,14.14473 1.75823,15.21064 5.85106,15.58511 l 14.68532,11.7768 c 0,0 -2.49835,26.38018 -2.93374,28.17143 -1.43138,5.88887 -7.71198,4.48762 -11.05795,8.91406 l -7.22152,9.55346 c 1.93732,0.99181 4.30183,1.35887 6.92062,1.35404 l -2.03105,4.13733 c 11.47892,0.54805 13.42434,-4.07923 15.19528,-8.80123 -0.0555,-1.41894 -1.70035,-3.30086 -1.35404,-4.43822 1.05737,-3.47264 5.11909,-2.61936 6.5445,-3.68598 3.52114,-2.63486 4.16277,-31.6078 6.13344,-33.75895 2.47266,-2.69911 4.05488,-5.38958 4.17227,-8.96836 0.0493,-1.50347 -0.91257,-2.48447 -3.00897,-2.78329 -5.54762,-0.79074 -8.19247,-5.101 -7.97376,-9.02689 l 1.50449,-27.00547 5.49136,6.77018 c 4.08521,6.42504 9.32986,9.37173 14.81915,11.58451 -1.22499,-2.45488 -1.93118,-4.56388 -1.8806,-6.16838 2.65031,2.99085 9.25955,0.34689 9.40301,4.9648 1.61787,-1.0331 5.4251,-4.35073 -1.50448,-6.99585 5.21943,-1.90255 8.17031,-4.60109 5.34091,-9.32779 -0.91985,2.45367 -3.1637,3.11963 -4.96479,3.68598 2.09247,-3.19576 2.95999,-5.16657 2.78329,-6.09315 -10.12419,8.2957 -20.91973,-0.69943 -28.28427,-2.1815 0.001,-1.88861 -0.68457,-3.45381 -3.08419,-4.21255 L 146.2357,93.609944 c -0.50391,-2.227301 2.57679,-4.617527 4.96479,0.601793 2.23796,-1.147066 3.85202,-3.749922 5.19047,-6.995844 0.84112,2.633375 1.87099,4.909109 4.58867,3.986879 -0.18993,-4.921492 -0.15694,-9.749504 2.70807,-13.389895 2.5382,-1.96143 3.23553,0.04953 3.91165,2.106276 2.06015,-8.216143 4.87419,-13.575693 2.70807,-28.923676 1.87598,1.281835 3.48866,2.230568 4.58867,4.062103 0.88962,-10.898254 -5.31572,-25.464279 -14.29258,-28.397108 1.10122,-0.577406 2.48806,-1.059606 4.43822,-1.354034 -2.85942,-1.609914 -6.28899,-2.440652 -9.71303,-3.344801 2.46001,-0.798513 4.74111,-1.298853 6.77929,-1.394319 -9.65335,-4.836377 -24.90315,-5.568692 -40.8467,-5.792258 z"
       style="fill:#cc2918;fill-opacity:1;fill-rule:evenodd;stroke:#000000;stroke-width:1px;stroke-linecap:butt;stroke-linejoin:miter;stroke-opacity:1" />
    <path
       sodipodi:nodetypes="cccscccscccscccccscsccc"
       inkscape:connector-curvature="0"
       id="path25706"
       d="m 19.574468,21.042967 73.19149,6.595744 c 0.943656,5.833614 1.913733,13.8902 6.382978,15.531915 0,0 2.682144,8.899453 2.234044,12.12766 -0.37413,2.695306 -4.045443,7.820664 -2.021278,7.765957 l 2.872338,-0.212766 v 2.978724 c 2.87234,0.619986 8.12731,0.01445 10,-8.191489 0.68536,-3.003198 4.24095,-4.13061 5.6383,-3.19149 l 1.48936,10.319149 c 3.69663,-0.854275 5.38475,-3.040688 4.46809,-12.127659 1.31104,-2.851443 19.05541,-20.597331 8.0851,-26.808511 -4.21854,-2.388456 -8.81423,-2.981521 -15.63829,-2.659575 4.60595,-2.846307 8.85031,-7.009823 11.48936,-17.0212763 -5.62381,2.1929219 -10.53673,4.9782533 -15.31915,7.8723403 -4.89764,-2.373458 -10.26732,-0.458247 -13.51064,2.340426 -2.366782,0.0877 -9.836894,-2.633044 -14.978738,-4.157867 1.458893,1.893723 1.284599,3.352266 0.829802,4.370633 -1.149893,2.574803 -9.909696,-1.624859 -14.98288,-2.877304 1.296761,1.36574 0.424554,3.523107 -0.180439,4.178605 -1.249759,1.354009 -8.751104,-1.308053 -13.02432,-2.785336 0.749593,1.071967 0.74719,3.07532 -0.322963,3.186162 z"
       style="fill:#cc2918;fill-opacity:1;fill-rule:evenodd;stroke:#000000;stroke-width:1px;stroke-linecap:butt;stroke-linejoin:miter;stroke-opacity:1" />
    <path
       inkscape:connector-curvature="0"
       id="path25730"
       d="m 17.553192,138.3302 6.217632,-7.03297"
       style="fill:#cc2918;fill-opacity:1;fill-rule:evenodd;stroke:#000000;stroke-width:1px;stroke-linecap:butt;stroke-linejoin:miter;stroke-opacity:1" />
    <path
       sodipodi:nodetypes="cccc"
       inkscape:connector-curvature="0"
       id="path25720"
       d="m 99.822415,42.231866 c 4.548125,1.965434 6.420385,0.111388 6.920615,-0.827466 0.7086,-1.40837 -0.87037,-4.385845 -2.78329,-6.39405 -0.95554,2.746028 -2.18367,5.27398 -4.137325,7.221516 z"
       style="fill:#ffffff;fill-opacity:1;fill-rule:evenodd;stroke:#000000;stroke-width:1px;stroke-linecap:butt;stroke-linejoin:miter;stroke-opacity:1" />
    <path
       inkscape:connector-curvature="0"
       id="path25724"
       d="m 106.74303,41.4044 -4.70418,-2.08437"
       style="fill:#cc2918;fill-opacity:1;fill-rule:evenodd;stroke:#000000;stroke-width:1px;stroke-linecap:butt;stroke-linejoin:miter;stroke-opacity:1" />
    <path
       inkscape:connector-curvature="0"
       id="path25726"
       d="m 136.45656,229.16382 3.27748,-6.84426"
       style="fill:#cc2918;fill-opacity:1;fill-rule:evenodd;stroke:#000000;stroke-width:1px;stroke-linecap:butt;stroke-linejoin:miter;stroke-opacity:1" />
    <path
       inkscape:connector-curvature="0"
       id="path25728"
       d="m 37.01027,194.25982 7.898533,-7.07106"
       style="fill:#cc2918;fill-opacity:1;fill-rule:evenodd;stroke:#000000;stroke-width:1px;stroke-linecap:butt;stroke-linejoin:miter;stroke-opacity:1" />
    <path
       sodipodi:nodetypes="cc"
       inkscape:connector-curvature="0"
       id="path25734"
       d="m 104.68085,106.04297 c 0.9723,-2.50786 1.71681,-5.59392 2.5532,-8.377662"
       style="fill:none;fill-rule:evenodd;stroke:#000000;stroke-width:1px;stroke-linecap:butt;stroke-linejoin:miter;stroke-opacity:1" />
    <path
       sodipodi:nodetypes="cccc"
       inkscape:connector-curvature="0"
       id="path25718"
       d="m 112.44681,14.02169 c -3.50116,2.293028 -4.6614,5.23987 -3.07093,8.351007 L 127.76596,6.1493497 C 122.71591,7.3027298 117.6375,10.470176 112.44681,14.02169 Z"
       style="fill:#cc2918;fill-opacity:1;fill-rule:evenodd;stroke:#000000;stroke-width:1px;stroke-linecap:butt;stroke-linejoin:miter;stroke-opacity:1" />
    <path
       sodipodi:nodetypes="cc"
       inkscape:connector-curvature="0"
       id="path25722"
       d="m 103.95974,35.01035 c 0.27472,-0.712246 0.43011,-1.762529 0.50835,-2.690788"
       style="fill:#cc2918;fill-opacity:1;fill-rule:evenodd;stroke:#000000;stroke-width:1px;stroke-linecap:butt;stroke-linejoin:miter;stroke-opacity:1" />
  </g>
</svg>
