<svg height="244.65999" width="208.86046" xmlns="http://www.w3.org/2000/svg"><path d="m1 1 3.761095 158.00304c2.686489 112.85918 196.651755 112.85918 199.338255 0l3.7611-158.00304z" fill-rule="evenodd"/><ellipse cx="104.26063" cy="240.40981" fill="#fffbff" rx="22.943359" ry="3.197025"/><path d="m80.813217.569868h47.234043v240.70287h-47.234043z" fill="#fffbff"/><path d="m4.255319 95.085526h200.85106v46.808514h-200.85106z" fill="#fffbff"/><g fill="none" stroke="#000"><path d="m1 1 3.761095 158.00304c2.686489 112.85918 196.651755 112.85918 199.338255 0l3.7611-158.00304z" stroke-width="2"/><path d="m80.813218.5698684v95.0248946"/><path d="m128.04726 1.1716632v94.3972918"/><path d="m4.2553191 141.89404h76.3829759"/><path d="m4.2553191 95.085525h76.7312539"/><path d="m80.813218 141.38943v99.95853"/><path d="m128.04726 141.35828v99.91446"/><path d="m127.77267 95.085528h78.11243"/><path d="m127.97872 141.89404h77.12766"/></g></svg>