<?xml version="1.0" encoding="UTF-8"?>
<svg version="1.0" viewBox="0 0 208.86 244.66" xmlns="http://www.w3.org/2000/svg" xmlns:cc="http://creativecommons.org/ns#" xmlns:dc="http://purl.org/dc/elements/1.1/" xmlns:rdf="http://www.w3.org/1999/02/22-rdf-syntax-ns#">
<metadata>
<rdf:RDF>
<cc:Work rdf:about="">
<dc:format>image/svg+xml</dc:format>
<dc:type rdf:resource="http://purl.org/dc/dcmitype/StillImage"/>
<dc:title/>
</cc:Work>
</rdf:RDF>
</metadata>
<path d="m1 1 3.7611 158c2.6865 112.86 196.65 112.86 199.34 0l3.7611-158z" fill="#cc2918" fill-rule="evenodd" stroke="#000" stroke-width="2"/>
<path d="m132.61 95.118c1.4698 74.569-3.0809 114.52-28.177 142.82-25.096-28.307-29.647-68.255-28.177-142.82l56.355-2e-6" fill="#fff" fill-rule="evenodd" stroke="#000" stroke-width="1px"/>
<path d="m75.235 25.972c4.3584 1.1088 10.752 0.86136 13.312 4.4375 3.1394 4.384-1.6773 13.955-2 25-0.1727 5.9115 2.1688 19.709 0.1875 25.25-9.887 4.5824-17.517 1.4906-25.875 0.875 8.4496 13.468 14.862 7.3315 22.125 9.375l21.445 2.375 21.445-2.375c7.2626-2.0435 13.675 4.0933 22.125-9.375-8.3582 0.61558-15.988 3.7074-25.875-0.875-1.9813-5.5412 0.3602-19.338 0.1875-25.25-0.32268-11.045-5.1394-20.616-2-25 2.5608-3.5761 8.9541-3.3287 13.312-4.4375 2.1362-5.8332-8.4269-4.7964-29.195-8.3125-20.768 3.5161-31.331 2.4793-29.195 8.3125z" fill-rule="evenodd" stroke="#000" stroke-width="1px"/>
<path d="m96.86 10.66c0 2.4553 2.7099 4.75 7.5698 4.75-11.484 0-28.045 1.9407-42.945 8-1.7265 2.434-1.6909 5.0281-1.625 7.625 1.5901-3.0933 11.922-3.507 18.125-4.375 1.8483-6.1369 22.67-6.875 26.445-6.875s24.596 0.7381 26.445 6.875c6.2027 0.86804 16.535 1.2817 18.125 4.375 0.0659-2.5969 0.10146-5.191-1.625-7.625-14.9-6.0593-31.461-8-42.945-8 4.8598 0 7.5698-2.2947 7.5698-4.75 0-3.0673-2.845-4.75-7.5698-4.75-4.7248-1e-7 -7.5698 1.6827-7.5698 4.75z" fill="#fff" fill-rule="evenodd" stroke="#000" stroke-width="1px"/>
<path d="m103.36 96.418h2.1394c-1.0697 63.35-1.0697 66.34-1.0697 141.52 0-75.185 0-78.174-1.0697-141.52z" fill-rule="evenodd" stroke="#000" stroke-width="1px"/>
<path d="m70.829 87.535c-1.2562-0.26815-1.7905-2.5625-2.4688-5-7.86-1.9177-20.079-3.304-23.25-9.125 0.14535 4.3503-0.0536 8.6447 2.125 12 15.913 10.314 37.187 11.168 57.195 11 20.008 0.16756 41.282-0.68567 57.195-11 2.1786-3.3553 1.9796-7.6497 2.125-12-3.1706 5.821-15.39 7.2073-23.25 9.125-0.67827 2.4375-1.2126 4.7318-2.4688 5-9.5643 2.0417-22.448 2.5312-33.601 2.5313-11.153 1e-6 -24.037-0.48954-33.601-2.5312z" fill="#fff" fill-rule="evenodd" stroke="#000" stroke-width="1px"/>
</svg>
