<?xml version="1.0" encoding="UTF-8"?>
<svg version="1.0" viewBox="0 0 208.86 244.66" xmlns="http://www.w3.org/2000/svg" xmlns:cc="http://creativecommons.org/ns#" xmlns:dc="http://purl.org/dc/elements/1.1/" xmlns:rdf="http://www.w3.org/1999/02/22-rdf-syntax-ns#">
<metadata>
<rdf:RDF>
<cc:Work rdf:about="">
<dc:format>image/svg+xml</dc:format>
<dc:type rdf:resource="http://purl.org/dc/dcmitype/StillImage"/>
<dc:title/>
</cc:Work>
</rdf:RDF>
</metadata>
<path d="m1 1 3.7611 158c2.6865 112.86 196.65 112.86 199.34 0l3.7611-158z" fill="#cc2918" fill-rule="evenodd" stroke="#000" stroke-width="2"/>
<path d="m3.7967 118.49h201.27l2.7967-117.49h-206.86z" fill="#fff" fill-rule="evenodd" stroke="#000" stroke-width="1px"/>
<g transform="translate(0,-1.25)" stroke="#000">
<path d="m147.73 70.91c-1.2542 2.3816-8.0674 15.544-9.3243 19.169-1.4317 4.1298-2.6868 8.6374 1.6363 13.169 2.8315 2.9681 10.112 2.8763 15.182 2.8763s12.351 0.0918 15.182-2.8763c4.3231-4.5318 3.068-9.0394 1.6363-13.169-1.2568-3.6255-8.0701-16.788-9.3243-19.169l-7.494-11.75z" fill="#cc2918" fill-rule="evenodd" stroke-width="1px"/>
<path d="m164.08 69.918c1.8774 1.9287 12.29 12.476 15.35 14.792 3.4852 2.6378 7.3844 5.2244 13.03 2.5133 3.6978-1.7757 5.8603-8.7283 7.427-13.55s3.9038-11.718 1.956-15.328c-2.974-5.5119-7.649-5.7111-12.019-5.6257-3.8364 0.075-18.46 2.4875-21.112 2.9443l-13.491 3.4963z" fill="#cc2918" fill-rule="evenodd" stroke-width="1px"/>
<path d="m168.19 54.059c2.4145-1.1895 15.663-7.8332 18.811-10.028 3.5856-2.4995 7.2506-5.4085 6.4169-11.616-0.54609-4.0656-6.4902-8.2707-10.592-11.251-4.1017-2.98-9.9378-7.3337-13.973-6.5968-6.1612 1.1252-7.7953 5.5097-9.0645 9.6923-1.1142 3.6718-3.3386 18.325-3.7239 20.989l-0.84366 13.911z" fill="#cc2918" fill-rule="evenodd" stroke-width="1px"/>
<path d="m141.73 55.664c-2.6526-0.45685-17.276-2.8693-21.112-2.9443-4.37-0.08542-9.045 0.11377-12.019 5.6257-1.9479 3.6101 0.38928 10.506 1.956 15.328 1.5667 4.8218 3.7292 11.774 7.427 13.55 5.6459 2.7112 9.545 0.12448 13.03-2.5133 3.0596-2.3157 13.472-12.863 15.35-14.792l8.8591-10.758z" fill="#cc2918" fill-rule="evenodd" stroke-width="1px"/>
<path d="m154.38 45.249c-0.3852-2.6639-2.6097-17.317-3.7239-20.989-1.2692-4.1826-2.9032-8.5671-9.0644-9.6923-4.0354-0.73697-9.8715 3.6168-13.973 6.5968-4.1017 2.98-10.046 7.1852-10.592 11.251-0.83378 6.2074 2.8312 9.1163 6.4168 11.616 3.1478 2.1943 16.396 8.838 18.811 10.028l12.969 5.1011z" fill="#cc2918" fill-rule="evenodd" stroke-width="1px"/>
<circle cx="155.22" cy="59.16" r="18.375" fill="#feeb00" stroke-dashoffset="4.58"/>
</g>
<g stroke="#000" stroke-width="1px">
<path d="m9.0094 176.85c46.872-18.152 77.16-35.724 95.421-57.534 18.66 21.475 48.549 39.383 95.421 57.534-46.872 18.152-78.406 42.61-95.421 65.392-17.014-22.781-48.549-47.24-95.421-65.392z" fill="#fff" fill-rule="evenodd"/>
<path d="m192.38 176.2c-16.899-0.071-34.378-5.4802-46.187-11.092" fill="none"/>
<path d="m189.42 173.82c-13.504-3.5769-23.634-7.0459-31.02-10.805" fill="none"/>
<path d="m191.07 175.1c-12.443-1.0135-27.978-5.8188-37.991-11.364" fill="none"/>
<path d="m192.38 177.5c-16.899 0.071-34.378 6.4802-46.187 12.092" fill="none"/>
<path d="m189.42 179.89c-13.504 3.5769-23.634 8.0459-31.02 11.805" fill="none"/>
<path d="m191.07 178.6c-12.443 1.0135-27.978 6.8188-37.991 12.364" fill="none"/>
<path d="m16.475 176.2c16.899-0.071 34.378-5.4802 46.187-11.092" fill="none"/>
<path d="m19.444 173.82c13.504-3.5769 23.634-7.0459 31.02-10.805" fill="none"/>
<path d="m17.788 175.1c12.443-1.0135 27.978-5.8188 37.991-11.364" fill="none"/>
<path d="m16.475 177.5c16.899 0.071 34.378 6.4802 46.187 12.092" fill="none"/>
<path d="m19.444 179.89c13.504 3.5769 23.634 8.0459 31.02 11.805" fill="none"/>
<path d="m17.788 178.6c12.443 1.0135 27.978 6.8188 37.991 12.364" fill="none"/>
<path d="m105.26 237.9c0.0903-8.7957 17.029-30.071 24.167-36.217" fill="none"/>
<path d="m108.29 234.23c4.5496-7.0289 15.927-18.512 20.708-22.356" fill="none"/>
<path d="m106.66 236.07c1.2891-6.4765 15.471-23.602 22.524-28.813" fill="none"/>
<path d="m103.6 237.9c-0.0903-8.7957-17.029-30.071-24.167-36.217" fill="none"/>
<path d="m100.57 234.23c-4.5495-7.0289-15.927-18.512-20.708-22.356" fill="none"/>
<path d="m102.2 236.07c-1.2891-6.4765-15.471-23.602-22.524-28.813" fill="none"/>
<path d="m105.26 124.19c0.0903 8.7957 17.029 24.415 24.167 30.562" fill="none"/>
<path d="m108.29 126.27c4.5496 7.0289 15.927 14.448 20.708 18.292" fill="none"/>
<path d="m106.66 125.5c1.2891 6.4765 15.471 18.477 22.524 23.688" fill="none"/>
<path d="m103.6 124.19c-0.0903 8.7957-17.029 24.415-24.167 30.562" fill="none"/>
<path d="m100.57 126.27c-4.5496 7.0289-15.927 14.448-20.708 18.292" fill="none"/>
<path d="m102.2 125.5c-1.2891 6.4765-15.471 18.477-22.524 23.688" fill="none"/>
</g>
<g transform="translate(0,-1.25)" stroke="#000">
<path d="m46.143 70.91c-1.2542 2.3816-8.0674 15.544-9.3243 19.169-1.4317 4.1298-2.6868 8.6374 1.6363 13.169 2.8315 2.9681 10.112 2.8763 15.182 2.8763s12.351 0.0918 15.182-2.8763c4.3231-4.5318 3.068-9.0394 1.6363-13.169-1.2568-3.6255-8.0701-16.788-9.3243-19.169l-7.494-11.75z" fill="#cc2918" fill-rule="evenodd" stroke-width="1px"/>
<path d="m62.496 69.918c1.8774 1.9287 12.29 12.476 15.35 14.792 3.4852 2.6378 7.3844 5.2244 13.03 2.5133 3.6978-1.7757 5.8603-8.7283 7.427-13.55s3.9038-11.718 1.956-15.328c-2.974-5.5119-7.649-5.7111-12.019-5.6257-3.8364 0.075-18.46 2.4875-21.112 2.9443l-13.491 3.4963z" fill="#cc2918" fill-rule="evenodd" stroke-width="1px"/>
<path d="m66.607 54.059c2.4145-1.1895 15.663-7.8332 18.811-10.028 3.5856-2.4995 7.2506-5.4085 6.4169-11.616-0.54609-4.0656-6.4902-8.2707-10.592-11.251-4.1017-2.98-9.9378-7.3337-13.973-6.5968-6.1612 1.1252-7.7953 5.5097-9.0645 9.6923-1.1142 3.6718-3.3386 18.325-3.7239 20.989l-0.84366 13.911z" fill="#cc2918" fill-rule="evenodd" stroke-width="1px"/>
<path d="m40.147 55.664c-2.6526-0.45685-17.276-2.8693-21.112-2.9443-4.37-0.08542-9.045 0.11377-12.019 5.6257-1.9479 3.6101 0.38928 10.506 1.956 15.328 1.5667 4.8218 3.7292 11.774 7.427 13.55 5.6459 2.7112 9.545 0.12448 13.03-2.5133 3.0596-2.3157 13.472-12.863 15.35-14.792l8.8591-10.758z" fill="#cc2918" fill-rule="evenodd" stroke-width="1px"/>
<path d="m52.794 45.249c-0.3852-2.6639-2.6097-17.317-3.7239-20.989-1.2692-4.1826-2.9032-8.5671-9.0644-9.6923-4.0354-0.73697-9.8715 3.6168-13.973 6.5968-4.1017 2.98-10.046 7.1852-10.592 11.251-0.83378 6.2074 2.8312 9.1163 6.4168 11.616 3.1478 2.1943 16.396 8.838 18.811 10.028l12.969 5.1011z" fill="#cc2918" fill-rule="evenodd" stroke-width="1px"/>
<circle cx="53.637" cy="59.16" r="18.375" fill="#feeb00" stroke-dashoffset="4.58"/>
</g>
</svg>
