<?xml version="1.0" encoding="UTF-8"?>
<svg version="1.0" viewBox="0 0 208.86 244.66" xmlns="http://www.w3.org/2000/svg" xmlns:cc="http://creativecommons.org/ns#" xmlns:dc="http://purl.org/dc/elements/1.1/" xmlns:rdf="http://www.w3.org/1999/02/22-rdf-syntax-ns#">
<metadata>
<rdf:RDF>
<cc:Work rdf:about="">
<dc:format>image/svg+xml</dc:format>
<dc:type rdf:resource="http://purl.org/dc/dcmitype/StillImage"/>
<dc:title/>
</cc:Work>
</rdf:RDF>
</metadata>
<path d="m1 1 3.7611 158c2.6865 112.86 196.65 112.86 199.34 0l3.7611-158z" fill="#1b63c6" fill-rule="evenodd" stroke="#000" stroke-width="2"/>
<path d="m70.43 1h68v237.98c-22.609 6.1899-45.275 6.2456-68 1e-5z" fill="#fff" fill-rule="evenodd" stroke="#000" stroke-width="1px"/>
<path transform="matrix(1.0452 0 0 1.0452 -4.7182 -2.2248)" d="m104.43 22.283 6.0214 18.671 19.618-0.04288-15.896 11.496 6.1029 18.644-15.846-11.566-15.846 11.566 6.1029-18.644-15.896-11.496 19.618 0.04288z" fill="#1b63c6" stroke="#000" stroke-dashoffset="4.58" stroke-width=".95675"/>
<path transform="matrix(1.0452 0 0 1.0452 -4.7182 70.961)" d="m104.43 22.283 6.0214 18.671 19.618-0.04288-15.896 11.496 6.103 18.644-15.846-11.566-15.846 11.566 6.1029-18.644-15.896-11.496 19.618 0.04288z" fill="#1b63c6" stroke="#000" stroke-dashoffset="4.58" stroke-width=".95675"/>
<path transform="matrix(1.0452 0 0 1.0452 -4.7182 144.15)" d="m104.43 22.283 6.0214 18.671 19.618-0.04288-15.896 11.496 6.103 18.644-15.846-11.566-15.846 11.566 6.1029-18.644-15.896-11.496 19.618 0.04288z" fill="#1b63c6" stroke="#000" stroke-dashoffset="4.58" stroke-width=".95675"/>
<path d="m1 1 3.7611 158c2.6865 112.86 196.65 112.86 199.34 0l3.7611-158z" fill="none" stroke="#000" stroke-width="2"/>
</svg>
