<?xml version="1.0" encoding="UTF-8"?>
<svg version="1.0" viewBox="0 0 208.86 244.66" xmlns="http://www.w3.org/2000/svg" xmlns:cc="http://creativecommons.org/ns#" xmlns:dc="http://purl.org/dc/elements/1.1/" xmlns:rdf="http://www.w3.org/1999/02/22-rdf-syntax-ns#">
<metadata>
<rdf:RDF>
<cc:Work rdf:about="">
<dc:format>image/svg+xml</dc:format>
<dc:type rdf:resource="http://purl.org/dc/dcmitype/StillImage"/>
</cc:Work>
</rdf:RDF>
</metadata>
<path d="m1 1 3.7611 158c2.6865 112.86 196.65 112.86 199.34 0l3.7611-158z" fill="#cb2918" fill-rule="evenodd"/>
<rect transform="scale(-1,1)" x="-173.42" y="158.05" width="14.914" height="14.085" fill="#fff"/>
<rect x="35.793" y="157.91" width="14.914" height="14.085" fill="#fff"/>
<rect x="138.8" y="14.987" width="22.635" height="16.24" fill="#fff"/>
<rect x="93.029" y="14.489" width="22.802" height="16.571" fill="#fff"/>
<rect x="47.426" y="14.642" width="22.802" height="16.418" fill="#fff"/>
<rect x="47.426" y="31.226" width="114.01" height="24.359" fill="#fff"/>
<rect x="67.146" y="55.72" width="74.569" height="115.82" fill="#fff"/>
<rect x="34.915" y="172" width="139.03" height="33.225" fill="#fff"/>
<path d="m1 1 3.7611 158c2.6865 112.86 196.65 112.86 199.34 0l3.7611-158z" fill="none" stroke="#000" stroke-width="2"/>
<path d="m34.804 188.61h138.78" fill="none" stroke="#0b0000" stroke-width="1.5"/>
<path d="m34.915 205.22h139.03" fill="none" stroke="#0b0000" stroke-width="1.5"/>
<g fill="none" stroke="#0b0000" stroke-width="1.5">
<path d="m116.86 188.32v16.571"/>
<path d="m92.002 188.32v16.571"/>
<path d="m67.146 188.32v16.571"/>
<path d="m42.289 188.32v16.571"/>
<path d="m166.57 188.32v16.571"/>
<path d="m141.71 188.32v16.571"/>
</g>
<g transform="translate(0 66.45)" fill="none" stroke="#0b0000" stroke-width="1.5">
<path d="m129.25 105.46v16.571"/>
<path d="m104.4 105.46v16.571"/>
<path d="m79.541 105.46v16.571"/>
</g>
<path d="m154.11 171.91v16.571" fill="none" stroke="#0b0000" stroke-width="1.5"/>
<path d="m54.684 171.42v17.068" fill="none" stroke="#0b0000" stroke-width="1.5"/>
<path d="m173.86 171.91v34.001" fill="none" stroke="#0b0000" stroke-width="1.5"/>
<path d="m34.915 172h139.03" fill="none" stroke="#0b0000" stroke-width="1.5"/>
<g transform="matrix(1 0 0 .50503 0 19.475)" fill="none" stroke="#0b0000" stroke-width="1.8293">
<path d="m116.86 22.775v16.571"/>
<path d="m92.002 22.775v16.571"/>
<path d="m67.146 22.775v16.571"/>
<path d="m141.71 22.775v16.571"/>
</g>
<g stroke="#0b0000" stroke-width="1.5">
<path d="m47.008 55.751h114.87" fill="none"/>
<g fill="none">
<path d="m104.43 39.014v16.571"/>
<path d="m79.574 39.014v16.571"/>
<path d="m54.717 39.014v16.571"/>
<path d="m154.14 39.014v16.571"/>
<path d="m129.29 39.014v16.571"/>
</g>
<path d="m47.26 39.512h114.17" fill="none"/>
<path d="m47.426 31.226h114.01" fill="none"/>
<g fill="none">
<path d="m161.43 14.877v40.709"/>
<path d="m47.426 14.642v40.943"/>
<path d="m46.993 14.987h23.102"/>
<path d="m93.029 14.489v16.571"/>
<path d="m70.228 14.489v16.571"/>
<path d="m138.63 14.489v16.571"/>
<path d="m115.83 14.489v16.571"/>
<path d="m138.8 14.987h23.102"/>
<path d="m93.063 14.987h23.102"/>
</g>
<path d="m67.146 55.72v115.82" fill="none"/>
<path d="m141.71 55.72v116.06" fill="none"/>
<path d="m116.86 155.18v16.571" fill="none"/>
<path d="m92.002 155.18v16.571" fill="none"/>
<path d="m67.146 72.359h74.569" fill="none"/>
<path d="m67.146 105.57h74.569" fill="none"/>
<path d="m67.146 88.967h74.569" fill="none"/>
<path d="m67.146 122.18h74.569" fill="none"/>
<path d="m67.146 138.79h74.569" fill="none"/>
<path d="m67.146 155.4h74.569" fill="none"/>
<g transform="translate(0 -33.142)" fill="none">
<path d="m116.86 155.18v16.571"/>
<path d="m92.002 155.18v16.571"/>
</g>
<g transform="translate(0 -66.45)" fill="none">
<path d="m116.86 155.18v16.571"/>
<path d="m92.002 155.18v16.571"/>
</g>
<g transform="translate(0 -99.591)" fill="none">
<path d="m116.86 155.18v16.571"/>
<path d="m92.002 155.18v16.571"/>
</g>
<path d="m104.4 72.156v16.571" fill="none"/>
<g transform="translate(0 32.81)" fill="none">
<path d="m129.25 105.46v16.571"/>
<path d="m104.4 105.46v16.571"/>
<path d="m79.541 105.46v16.571"/>
</g>
<path d="m129.25 72.156v16.571" fill="none"/>
<path d="m79.541 72.156v16.571" fill="none"/>
<rect x="99.469" y="72.636" width="9.9833" height="16.076" fill="#000001"/>
<g fill="none">
<path d="m129.25 105.46v16.571"/>
<path d="m104.4 105.46v16.571"/>
<path d="m79.541 105.46v16.571"/>
</g>
<rect x="99.469" y="105.68" width="9.9833" height="16.076" fill="#000001"/>
</g>
<path d="m35.329 157.77v48.17" fill="none" stroke="#0b0000" stroke-width="1.5"/>
<path d="m34.584 157.86 16.957-0.0829" fill="none" stroke="#000" stroke-width="1.5"/>
<path d="m50.79 157.91-0.08285 14.085" fill="none" stroke="#0b0000" stroke-width="1.5"/>
<path d="m173.88 157.91v48.17" fill="none" stroke="#0b0000" stroke-width="1.5"/>
<path d="m174.63 157.99-16.957-0.0829" fill="none" stroke="#000" stroke-width="1.5"/>
<path d="m158.42 158.05 0.0829 14.085" fill="none" stroke="#0b0000" stroke-width="1.5"/>
</svg>
