<?xml version="1.0" encoding="UTF-8"?>
<svg version="1.0" viewBox="0 0 603 763" xmlns="http://www.w3.org/2000/svg" xmlns:cc="http://creativecommons.org/ns#" xmlns:dc="http://purl.org/dc/elements/1.1/" xmlns:rdf="http://www.w3.org/1999/02/22-rdf-syntax-ns#" xmlns:xlink="http://www.w3.org/1999/xlink">
<metadata>
<rdf:RDF>
<cc:Work rdf:about="">
<dc:format>image/svg+xml</dc:format>
<dc:type rdf:resource="http://purl.org/dc/dcmitype/StillImage"/>
<dc:date>07-AUG-2006</dc:date>
<dc:creator>
<cc:Agent>
<dc:title>Jérôme BLUM (wagner51)</dc:title>
</cc:Agent>
</dc:creator>
<cc:license rdf:resource="http://creativecommons.org/licenses/GPL/2.0/"/>
<dc:coverage/>
<dc:description>Gabarit pour le Projet:Blasons de WIkipédia</dc:description>
<dc:subject>
<rdf:Bag>
<rdf:li>blason suisse modèle gabarit projet blasons</rdf:li>
</rdf:Bag>
</dc:subject>
<dc:language>fr</dc:language>
<dc:title>Gabrit d'un blason suisse</dc:title>
</cc:Work>
<cc:License rdf:about="http://creativecommons.org/licenses/GPL/2.0/">
<cc:permits rdf:resource="http://web.resource.org/cc/Reproduction"/>
<cc:permits rdf:resource="http://web.resource.org/cc/Distribution"/>
<cc:requires rdf:resource="http://web.resource.org/cc/Notice"/>
<cc:permits rdf:resource="http://web.resource.org/cc/DerivativeWorks"/>
<cc:requires rdf:resource="http://web.resource.org/cc/ShareAlike"/>
<cc:requires rdf:resource="http://web.resource.org/cc/SourceCode"/>
</cc:License>
</rdf:RDF>
</metadata>
<defs>
<radialGradient id="a" cx="858.04" cy="579.93" r="300" gradientTransform="matrix(1.215 1.5316e-24 1.4647e-23 1.2667 -839.19 -490.49)" gradientUnits="userSpaceOnUse">
<stop stop-color="#fff" stop-opacity=".31373" offset="0"/>
<stop stop-color="#fff" stop-opacity=".25098" offset=".19"/>
<stop stop-color="#6b6b6b" stop-opacity=".12549" offset=".6"/>
<stop stop-opacity=".12549" offset="1"/>
</radialGradient>
</defs>
<desc>Coat of Arms of Canton of Freiburg (Fribourg)</desc>
<g>
<path d="m1.5 1.5v458.87c0 166.31 134.31 301.13 300 301.13 165.69 0 300-134.82 300-301.13v-458.87h-600z" fill="#e20909"/>
<path d="m301.5 761.5c165.69 0 300-134.82 300-301.13v-458.87h-300v760z" fill="#2b5df2"/>
<g fill="#fcef3c" stroke="#000" stroke-linecap="round" stroke-linejoin="round" stroke-width="2.75">
<path d="m166.18 503.4-14.576-1.012-14.576 1.012s3.239 41.847-25.914 72.589h80.979c-29.152-30.742-25.913-72.589-25.913-72.589z"/>
<path d="m91.397 254.04s-28.249-5.266-38.87 20.496c-12.451 30.2 18.395 60.479 24.294 90.523 7.021 35.752-12.267 72.537-37.251 57.217-10.615-6.512-6.06-30.122 5.02-30.987 0 0-2.875 16.013 7.652 16.013 9.849 0 23.392-23.803-8.617-75.3-22.409-36.053-13.773-96.749 42.103-96.749 24.522 0 30.678 16.687 30.678 29.669 0 12.984-9.028 24.235-25.033 24.235-9.029 0-18.057-6.058-18.057-16.444 1e-3 -10.389 6.615-18.673 18.081-18.673z"/>
<path d="m211.8 254.04s28.249-5.266 38.87 20.496c12.451 30.2-18.395 60.479-24.294 90.522-7.02 35.753 12.267 72.537 37.251 57.218 10.615-6.512 6.06-30.122-5.02-30.987 0 0 2.875 16.013-7.652 16.013-9.849 0-23.392-23.803 8.617-75.3 22.41-36.053 13.772-96.749-42.103-96.749-24.522 0-30.678 16.688-30.678 29.669 0 12.984 9.028 24.235 25.033 24.235 9.029 0 18.057-6.058 18.057-16.444-1e-3 -10.389-6.615-18.673-18.081-18.673z"/>
<path d="m178.32 314.67c-11.59-22.917-12.147-52.094-12.147-52.094l-14.576-1.011-14.576 1.011s-0.557 29.176-12.147 52.094c-19.435 38.429-52.637 58.071-52.637 109.31 0 47.823 41.299 74.141 79.36 74.141s79.36-26.317 79.36-74.142c-1e-3 -51.238-33.203-70.879-52.637-109.31z"/>
<path d="m170.63 494.17h-38.06c-5.144 0-9.313 4.36-9.313 9.738s4.169 9.734 9.313 9.734h38.06c5.144 0 9.313-4.356 9.313-9.734s-4.169-9.738-9.313-9.738z"/>
<path d="m189.32 572.57h-75.451c-6 0-10.862 5.129-10.862 11.454v5.626h97.175v-5.626c0-6.325-4.863-11.454-10.862-11.454z"/>
<path d="m208.03 589.65h-112.86c-4.249 0-7.693 3.632-7.693 8.11 0 4.481 3.444 8.113 7.693 8.113h112.86c4.249 0 7.693-3.632 7.693-8.113 0-4.478-3.445-8.11-7.693-8.11z"/>
<path d="m55.308 200.35c60.106 24.179 68.966 59.152 68.966 59.152h12.674s10.46-2.34-17.036-36.845c-29.324-36.797-64.604-22.307-64.604-22.307zm127.98 22.307c-27.496 34.504-17.036 36.845-17.036 36.845h12.674s8.86-34.973 68.966-59.153c1e-3 0-35.28-14.489-64.604 22.308z"/>
<path d="m55.646 162.02c61.262 37.021 81.325 99.226 81.325 99.226l11-1.165s6.122-28.134-25.392-66.935c-33.825-41.647-66.933-31.126-66.933-31.126zm124.97 31.126c-31.514 38.8-25.392 66.935-25.392 66.935l11 1.165s20.063-62.205 81.325-99.226c-1e-3 0-33.109-10.521-66.933 31.126z"/>
<path d="m216.45 102.09s-41.662-3.08-62.104 66.154c-0.998 3.378-1.9 6.647-2.744 9.84-0.844-3.193-1.746-6.462-2.744-9.84-20.442-69.234-62.104-66.154-62.104-66.154 33.162 30.749 49.658 77.456 57.529 112.25l7.319 50.252 7.319-50.252c7.872-34.797 24.368-81.504 57.529-112.25z"/>
<path d="m167.33 180.5c-7.943 16.644-12.811 30.293-15.732 41.324-2.921-11.031-7.789-24.68-15.732-41.324-30.892-64.727-67.933-49.15-67.933-49.15 63.004 38.273 79.499 131.65 79.499 131.65l4.167-0.734 4.167 0.734s16.495-93.373 79.499-131.65c-2e-3 -1e-3 -37.043-15.577-67.935 49.15z"/>
<path d="m151.6 54s-20.665 44.238-13.761 92.526c6.381 44.642 11.233 112.97 11.233 112.97h5.056s4.852-68.331 11.233-112.97c6.904-48.288-13.761-92.526-13.761-92.526z"/>
<path d="m180.75 254.04h-58.306c-4.025 0-7.288 3.442-7.288 7.686 0 4.245 3.263 7.686 7.288 7.686h58.306c4.025 0 7.288-3.44 7.288-7.686 0-4.244-3.263-7.686-7.288-7.686z"/>
</g>
<path d="m329.75 96.31c0-22.232 18.023-40.256 40.256-40.256 14.378 0 26.991 7.546 34.111 18.887 0.021-0.601 0.045-1.202 0.045-1.808 0-25.603-20.756-46.356-46.356-46.356s-46.354 20.753-46.354 46.356c0 16.503 8.633 30.982 21.619 39.196-2.134-4.911-3.321-10.325-3.321-16.019z" fill="#fff" stroke="#000" stroke-linecap="round" stroke-linejoin="round" stroke-width="2.75"/>
<path d="m372.48 128.74s0.807-8.136 0.656-10.008c-0.672-8.524 2.354-12.072 9.538-12.111 7.186-0.041 13.258 17.158 6.521 19.401-7.021 2.337-11.342 13.728-8.746 19.674l-3.265 1.854-9.007-18.411 4.303-0.399z" fill="#fcef3c" stroke="#000" stroke-linecap="round" stroke-linejoin="round" stroke-width="2.75"/>
<path d="m372.45 332.25-5.351 7.872-24.352 0.114-5.991-10.505s-3.797-13.427 7.024-18.305c10.818-4.878 16.474 26.403 26.225 17.182l2.445 3.642z" fill="#fcef3c" stroke="#000" stroke-linecap="round" stroke-linejoin="round" stroke-width="2.75"/>
<path d="m506.92 582.66c-3.047 5.049-6.101 8.592-13.781 4.686-8.139-4.136-8.176-23.194-20.773-16.669-10.491 5.434-7.994 18.015-7.994 18.015l4.178 5.292 20.87 6.886 16.162-8.208 5.483-10.374-4.145 0.372" fill="#fcef3c" stroke="#000" stroke-linecap="round" stroke-linejoin="round" stroke-width="2.75"/>
<path d="m350.18 502.11s-2.934-18.622 10.96-19.61c13.892-0.986 10.479 17.735 25.83 12.843 15.349-4.89 14.005 3.493 14.005 3.493s-55.458 11.03-54.686 10.326c0.773-0.703 3.891-7.052 3.891-7.052z" fill="#fcef3c" stroke="#000" stroke-linecap="round" stroke-linejoin="round" stroke-width="2.75"/>
<path d="m496.77 139.94s-20.301-13.144-35.443-8.016c-21.141 7.164-33.782-11.208-37.058-14.888-3.272-3.682-8.121 18.555 4.342 28.39 12.461 9.836 26.612-1.372 34.787-4.666 8.181-3.295 21.681-1.863 33.201 4.694l0.171-5.514z" fill="#fcef3c" stroke="#000" stroke-linecap="round" stroke-linejoin="round" stroke-width="2.75"/>
<path d="m520.63 82.248c-1.695-3.351-5.771-15.221 3.579-20.175 9.354-4.956 20.225 2.661 21.854 8.119 1.632 5.459 0.817 14.656-6.147 17.717l-19.286-5.661z" fill="#fcef3c" stroke="#000" stroke-linecap="round" stroke-linejoin="round" stroke-width="2.75"/>
<path d="m497.41 394s-61.296-25.28-84.614-16.675-33.721 44.163-59.379 27.827c0 0 4.364 16.723 27.515 13.639 0 0-13.932 6.157-23.982 1.398 0 0 8.467 12.993 24.378 14.64 0 0 5.666 17.211 23.261 36.701 5.145 5.699 10.605 12.047-13.981 22.177-30.981 12.767-43.948 1.83-48.616 9.407-5.842 9.485-2.343 33.07 9.769 28.508 0 0-6.955 17.137 13.903 23.675 7.905 2.478 12.623-6.756 14.373-20.509 1.752-13.752 15.264-6.113 11.943 0.957-3.321 7.072-4.597 19.736 8.726 19.083 13.318-0.655 19.517-8.914 11.884-26.118-1.243-2.805 18.377-20.929 36.586-21.969 0 0-8.264-5.253-11.839-4.271 0 0 7.661-18.525 22.638-15.256 0 0-22.014-19.53-28.659-34.12-6.646-14.589 4.949-31.325 20.4-29.146 15.451 2.181 53.317-3.721 53.317-3.721l-2.338-24.943-5.285-1.284z" fill="#fcef3c" stroke="#000" stroke-linecap="round" stroke-linejoin="round" stroke-width="2.75"/>
<path d="m497.18 418.53s-4.613-30.341-19.729-41.762l12.063-3.229 14.1 25.569-6.434 19.422z" fill="#fcef3c" stroke="#000" stroke-linecap="round" stroke-linejoin="round" stroke-width="2.75"/>
<path d="m542.49 457.52c6.857 6.93 15.651 8.826 23.528 5.076 5.484-2.612 15.147-10.301 18.232-32.469 2.553-18.338-5.428-42.594-13.878-68.27-0.09-0.276-0.181-0.549-0.271-0.826-1.563-4.963-8.896-31.497 6.038-51.152 17.785-23.41 11.939-47.12 11.939-47.12s-0.616 11.779-12.996 23.162c-12.379 11.383-16.652 25.59-16.652 25.59s-1.37-13.761 16.632-33.247c18.003-19.483 10.61-53.863 10.61-53.863-0.792 17.514-13.674 28.564-13.674 28.564 17.09-25.664 1.945-63.408 1.945-63.408 7.344 35.97-29.74 50.386-31.394 104.23-0.688 22.48 7.943 48.715 16.292 74.085 7.415 22.53 15.08 45.824 13.142 59.767-1.497 10.751-5.152 18.023-10.301 20.473-3.674 1.747-7.896 0.747-11.291-2.684-3.853-3.894-5.055-11.561-6.576-21.268-1.424-9.067-3.086-19.651-7.44-30.529-1.498-5.922-3.959-12.248-7.776-19.018-14.299-25.348-29.21-59.553-9.859-155.59l-81.351 35.923s-13.856 47.046 29.933 93.833c43.786 46.79 26.06 75.472 16.931 98.37-9.124 22.896-13.108 37.128-29.545 38.23 0 0 5.569 6.265 20.595 7.878 0 0-5.909 4.775-13.541 7.829 0 0 11.688 9.234 27.77 5.361 0 0 10.684 13.066 30.82 21.485 0 0-6.311 46.749-15.523 58.04-9.216 11.291-29.607 11.152-31.686 6.663-2.076-4.491-12.131-9.254-17.342 1.621-5.208 10.877-1.342 14.874-1.342 14.874s-7.302 21.299 9.493 22.975c16.797 1.672 16.35-12.707 23.896-13.006 7.546-0.295 14.155 1.031 14.155 1.031s-14.886 8.336-4.595 19.734 23.013 1.335 23.045-14.137c0.03-15.472 11.562-20.142 17.896-34.204 8.09-17.957 15.021-27.118 25.649-26.757 0 0-16.271-4.418-13.734-14.831 2.537-10.408 10.315-32.799 24.013-31.233 0 0-39.013-28.942-43.581-39.043-4.207-9.303-0.985-27.717 2.675-42.118 1.605 7.785 3.989 14.794 9.119 19.977z" fill="#fcef3c" stroke="#000" stroke-linecap="round" stroke-linejoin="round" stroke-width="2.75"/>
<path d="m447.06 235.22s-21.471 16.49-31.041 19.179c-9.571 2.687-14.081-1.143-14.081-1.143l6.974-8.307s-20.775-7.396-25.969-18.634c-5.191-11.238-15.174-11.744-15.174-11.744s7.522-6.136 24.333 12.121c0 0-15.298-42.018-18.168-45.593-2.871-3.574-6.212 8.262-13.398 6.268-8.008-2.222-13.917-17.34-2.592-24.396 4.936-3.074 6.942-15.571-2.263-13.694-9.205 1.878-19.737-3.982-13.854-22.807 4.063-13.002 9.641-7.592 13.536-2.03 0 0-6.983-4.803-5.195-13.2 1.793-8.398 12.137-16.295 17.493-9.267 5.356 7.027-1.033 12.647 10.222 37.529 0.927 2.052 1.894 4.224 2.91 6.485 11.314 25.203 29.024 61.449 72.596 61.004l-6.329 28.229z" fill="#fcef3c" stroke="#000" stroke-linecap="round" stroke-linejoin="round" stroke-width="2.75"/>
<path d="m414.46 272.28s-25.618 36.544-43.059 55.011c-10.858 11.498-30.817 9.188-36.131 0.413-5.312-8.772-20.385 11.586-4.26 21.134 0 0-8.464 8.305 0.331 21.288 8.796 12.983 14.154-1.157 17.927-6.349 3.771-5.192 10.269-2.925 7.811 2.311-2.46 5.233-8.003 15.877 10.271 18.349 12.1 1.638 12.738-19.209 6.91-21.86 0 0 18.793-13.277 23.99-22.103 0 0-1.336 11.413-6.936 22.681 0 0 24.115-26.19 32.795-30.807 0 0-4.818 7.203-1.979 21.619 0 0 12.318-37.635 21.676-43.049 9.362-5.411 19.443-2.206 19.443-2.206s-22.587-23.678-16.876-38.624c5.715-14.947-31.913 2.192-31.913 2.192z" fill="#fcef3c" stroke="#000" stroke-linecap="round" stroke-linejoin="round" stroke-width="2.75"/>
<path d="m558.22 107.9c0.526 2.209 0.933 4.577 1.202 7.105 2.023 19.025 8.588 31.704 17.058 39.031 0 0-8.769 2.412-14.243-3.19 0 0 0.885 13.57-3.052 28.601-3.938 15.032-7.158 34.96-3.164 46.47 0 0-6.831-4.02-10.823-15.529 0 0 3.823 22.508-17.024 44.917-11.233 12.078-12.983 26.64-12.983 26.64s-5.498-19.142-1.16-33.076c0 0-5.588 26.35-51.405 32.381 0 0 5.36-4.693 10.936-16.419 0 0-14.108 6.564-33.763 9.69-19.653 3.126-33.027-0.034-45.565 11.998 0 0 7.457-30.62 31.985-36.831 0 0-9.552-0.323-14.909 4.37 0 0 13.084-29.886 23.636-33.86 2.036-0.768 4.268-1.245 6.553-1.519 0 0-4.264-2.196-9.139 0.888 0 0 10.18-20.237 34.928-19.4l-4.709-2.324s3.947-7.793 25.627-13.757c7.014-1.928 14.425-16.843 14.425-16.843-9.101-0.851-31.332-3.815-29.31 6.642 0 0-14.6-11.754-5.492-19.732 1.787-1.564 17.787 1.142 22.643-1.4 4.858-2.542 8.914-34.9-11.075-35.577-9.119-0.309-9.885 10.496-18.9 6.941-9.02-3.556-5.097-18.047-5.097-18.047s-8.438-8.41-0.572-9.767c7.867-1.358 22.776-5.728 26.815-9.924 4.043-4.197 2.003-8.596 16.361-9.193 7.021-0.292 20.854-1.345 33.611 2.573 1.269-4.383 4.218-8.803 11.032-7.452 12.689 2.517 22.521 16.414 19.436 28.306-0.892 3.432-2.303 5.737-3.86 7.282v5e-3h-3e-3z" fill="#fcef3c" stroke="#000" stroke-linecap="round" stroke-linejoin="round" stroke-width="2.75"/>
<path d="m558.22 107.89c-3.849 3.814-8.595 2.992-8.595 2.992" fill="none" stroke="#000" stroke-linecap="round" stroke-linejoin="round" stroke-width="2.75"/>
<path d="m530.67 87.29s-0.154-3.753 0.941-7.533" fill="none" stroke="#000" stroke-linecap="round" stroke-linejoin="round" stroke-width="2.75"/>
<path d="m487.29 89.212c10.634 6.59 19.205-5.09 31.678 4.461" fill="none" stroke="#000" stroke-linecap="round" stroke-linejoin="round" stroke-width="2.75"/>
<path d="m454.46 609.14s3.254-4.861 12.98-3.981" fill="none" stroke="#000" stroke-linecap="round" stroke-linejoin="round" stroke-width="2.75"/>
<path d="m330.75 348.72s3.381-3.16 10.822 0.366" fill="none" stroke="#000" stroke-linecap="round" stroke-linejoin="round" stroke-width="2.75"/>
<path d="m351.76 531.62s4.665-7.577 10.148-12.917" fill="none" stroke="#000" stroke-linecap="round" stroke-linejoin="round" stroke-width="2.75"/>
<path d="m441.5 218.68c9.563-1.139 19.964 1.331 19.964 1.331" fill="none" stroke="#000" stroke-linecap="round" stroke-linejoin="round" stroke-width="2.75"/>
<path d="m467.29 200.17c9.551 0.323 23.025 0.239 23.025 0.239" fill="none" stroke="#000" stroke-linecap="round" stroke-linejoin="round" stroke-width="2.75"/>
<path d="m540.3 143.6s4.934 27.615-37.665 23.638" fill="none" stroke="#000" stroke-linecap="round" stroke-linejoin="round" stroke-width="2.75"/>
<path d="m538.75 100.73c-0.662-6.429 7.512-7.576 5.372-16.9" fill="none" stroke="#000" stroke-linecap="round" stroke-linejoin="round" stroke-width="2.75"/>
<path d="m337.72 176.62s7.708 9.601 15.371-2.02c0 0 4.091 5.44 3.982 11.026 0 0-4.378 6.959-12.854 2.409-4.195-2.252-6.499-11.415-6.499-11.415z" fill="#fcef3c" stroke="#000" stroke-linecap="round" stroke-linejoin="round" stroke-width="2.75"/>
<path d="m343.51 126.28s-15.945-5.676-20.835 18.784c0 0 12.019-10.545 19.778-3.735 0 0 1.839-8.921 1.057-15.049z" fill="#fcef3c" stroke="#000" stroke-linecap="round" stroke-linejoin="round" stroke-width="2.75"/>
<path d="m351.43 107.9s-3.773-10.191-16.157 0.694c0 0 5.373-14.367 14.745-14.124 9.284 0.24 11.015 6.511 11.015 6.511s-4.99 6.035-9.603 6.919z" fill="#fcef3c" stroke="#000" stroke-linecap="round" stroke-linejoin="round" stroke-width="2.75"/>
<path d="m377.72 101.17s8.655 0.14 7.709 7.201c0 0 0.785 6.126 6.136 9.356 0 0 5.153-11.554-1.986-18.721-4.251-4.261-11.859 2.164-11.859 2.164z" fill="#fcef3c" stroke="#000" stroke-linecap="round" stroke-linejoin="round" stroke-width="2.75"/>
<path d="m337.75 319.07s-1.017-8.36-10.196-9.859c0 0 11.145-10.724 18.385 2.206-2e-3 1e-3 -3.092 7.429-8.189 7.653z" fill="#fcef3c" stroke="#000" stroke-linecap="round" stroke-linejoin="round" stroke-width="2.75"/>
<path d="m312.32 349.53s2.833-9.419 12.414-10.681c0 0 3.374-6.229 3.837-10.972 0 0-7.189-4.457-13.86 5.876-4.007 6.207-2.391 15.777-2.391 15.777z" fill="#fcef3c" stroke="#000" stroke-linecap="round" stroke-linejoin="round" stroke-width="2.75"/>
<path d="m327.32 358.36s-11.891 14.266-3.782 30.001c0 0 1.403-14.619 9.117-17.134 0-1e-3 -0.371-8.734-5.335-12.867z" fill="#fcef3c" stroke="#000" stroke-linecap="round" stroke-linejoin="round" stroke-width="2.75"/>
<path d="m362.55 381.76s3.12 12.395-7.733 13.613c0 0 12.45 5.587 17.991-5.734 3.054-6.241 1.854-8.658 1.854-8.658s-4.67-3.331-12.112 0.779z" fill="#fcef3c" stroke="#000" stroke-linecap="round" stroke-linejoin="round" stroke-width="2.75"/>
<path d="m357.03 484.67s-18.078-12.11-28.073 12.928c0 0 16.181-8.972 21.329-0.471 0 0 5.512-3.382 6.744-12.457z" fill="#fcef3c" stroke="#000" stroke-linecap="round" stroke-linejoin="round" stroke-width="2.75"/>
<path d="m340.43 507.5s-18.946 5.704-11.802 32.108c0 0 6.607-18.405 12.88-15.419 0 1e-3 1.88-9.45-1.078-16.689z" fill="#fcef3c" stroke="#000" stroke-linecap="round" stroke-linejoin="round" stroke-width="2.75"/>
<path d="m351.48 541.18s-12.206 14.254 0.287 32.12c0 0 2.844-20.121 9.272-22.282 2e-3 -1e-3 -3.792-11.227-9.559-9.838z" fill="#fcef3c" stroke="#000" stroke-linecap="round" stroke-linejoin="round" stroke-width="2.75"/>
<path d="m385.66 567.7s10.901-2.804 9.945-13.141c0 0 1.727-4.303 10.844-0.822 0 0 3.454 6.478-3.604 13.752-5.585 5.761-17.185 0.211-17.185 0.211z" fill="#fcef3c" stroke="#000" stroke-linecap="round" stroke-linejoin="round" stroke-width="2.75"/>
<path d="m474.96 570.72s-8.669-18.129-24.896 2.729c0 0 15.045-3.062 15.717 6.082 0 0 5.782-1.788 9.179-8.811z" fill="#fcef3c" stroke="#000" stroke-linecap="round" stroke-linejoin="round" stroke-width="2.75"/>
<path d="m462.66 588.15s-15.708-16.785-26.094 10.615c0 0 13.298-8.273 17.432 2.176 0 1e-3 6.452-2.955 8.662-12.791z" fill="#fcef3c" stroke="#000" stroke-linecap="round" stroke-linejoin="round" stroke-width="2.75"/>
<path d="m452.64 613.98s-17.38 6.548-7.036 32.269c0 0 4.691-18.079 11.685-17.844-2e-3 0 0.878-7.895-4.649-14.425z" fill="#fcef3c" stroke="#000" stroke-linecap="round" stroke-linejoin="round" stroke-width="2.75"/>
<path d="m500.81 640.58s-1.979 12.619-12.49 13.058c0 0 15.893 10.845 24.824-10.658-1e-3 -2e-3 -3.376-4.078-12.334-2.4z" fill="#fcef3c" stroke="#000" stroke-linecap="round" stroke-linejoin="round" stroke-width="2.75"/>
<path d="m572 252.96c-6.438 9.669-15.662 18.286-17.186 26.21" fill="none" stroke="#000" stroke-linecap="round" stroke-linejoin="round" stroke-width="2.75"/>
<path d="m508.78 89.208c-4.96-0.227-9.122 2.548-13.717 2.292-0.862 1.091-1.373 2.56-0.663 4.449 2.205 5.884 11.594 7.06 13.262 5.071 3.887-4.641 2.483-9.257 1.118-11.812zm-11.524 8.974c-0.598-0.158-0.843-1.56-0.554-3.127 0.29-1.569 1.009-2.713 1.604-2.552 0.593 0.157 0.84 1.559 0.55 3.127-0.295 1.569-1.009 2.711-1.6 2.552z"/>
<path d="m301.5 149.28v135.38l281.09 281.09c12.21-32.802 18.906-68.299 18.906-105.38v-11.063l-300-300.03z" fill="#e20909"/>
<path d="m324.55 307.71 23.051 23.051v-135.37l-23.051-23.053v135.37zm92.205 92.205 23.051 23.051v-135.36l-23.051-23.053v135.36zm-46.103-46.102 23.051 23.051v-135.37l-23.051-23.053v135.37zm184.41 49.061v135.35l23.051 23.051v-135.35l-23.051-23.054zm-46.102 89.246 23.051 23.051v-135.35l-23.051-23.053v135.35zm-46.103-46.102 23.051 23.051v-135.36l-23.051-23.053v135.36z" fill="#fff"/>
<path d="m301.5 149.28v135.38l281.09 281.09c12.21-32.802 18.906-68.299 18.906-105.38v-11.063l-300-300.03z" fill="none" stroke="#000" stroke-linecap="round" stroke-linejoin="round" stroke-width="2.75"/>
<path d="m301.5 1.5v760" fill="none" stroke="#000" stroke-width="3"/>
</g>
<g>
<path d="m1.5 1.5v458.87c0 166.31 134.31 301.13 300 301.13 165.69 0 300-134.82 300-301.13v-458.87h-600z" fill="url(#a)"/>
<path d="m1.5 1.5v458.87c0 166.31 134.31 301.13 300 301.13 165.69 0 300-134.82 300-301.13v-458.87h-600z" fill="none" stroke="#000" stroke-width="3"/>
</g>
</svg>
