<?xml version="1.0" encoding="UTF-8"?>
<svg version="1.0" viewBox="0 0 603 763" xmlns="http://www.w3.org/2000/svg" xmlns:cc="http://web.resource.org/cc/" xmlns:dc="http://purl.org/dc/elements/1.1/" xmlns:rdf="http://www.w3.org/1999/02/22-rdf-syntax-ns#" xmlns:xlink="http://www.w3.org/1999/xlink">
<metadata>
<rdf:RDF>
<cc:Work rdf:about="">
<dc:format>image/svg+xml</dc:format>
<dc:type rdf:resource="http://purl.org/dc/dcmitype/StillImage"/>
<dc:date>07-AUG-2006</dc:date>
<dc:creator>
<cc:Agent>
<dc:title>Jérôme BLUM (wagner51)</dc:title>
</cc:Agent>
</dc:creator>
<cc:license rdf:resource="http://creativecommons.org/licenses/GPL/2.0/"/>
<dc:coverage/>
<dc:description>Gabarit pour le Projet:Blasons de WIkipédia</dc:description>
<dc:subject>
<rdf:Bag>
<rdf:li>blason suisse modèle gabarit projet blasons</rdf:li>
</rdf:Bag>
</dc:subject>
<dc:language>fr</dc:language>
<dc:title>Gabrit d'un blason suisse</dc:title>
</cc:Work>
<cc:License rdf:about="http://creativecommons.org/licenses/GPL/2.0/">
<cc:permits rdf:resource="http://web.resource.org/cc/Reproduction"/>
<cc:permits rdf:resource="http://web.resource.org/cc/Distribution"/>
<cc:requires rdf:resource="http://web.resource.org/cc/Notice"/>
<cc:permits rdf:resource="http://web.resource.org/cc/DerivativeWorks"/>
<cc:requires rdf:resource="http://web.resource.org/cc/ShareAlike"/>
<cc:requires rdf:resource="http://web.resource.org/cc/SourceCode"/>
</cc:License>
</rdf:RDF>
</metadata>
<defs>
<radialGradient id="a" cx="858.04" cy="579.93" r="300" gradientTransform="matrix(1.215 1.5316e-24 1.4647e-23 1.2667 -839.19 -490.49)" gradientUnits="userSpaceOnUse">
<stop stop-color="#fff" stop-opacity=".31373" offset="0"/>
<stop stop-color="#fff" stop-opacity=".25098" offset=".19"/>
<stop stop-color="#6b6b6b" stop-opacity=".12549" offset=".6"/>
<stop stop-opacity=".12549" offset="1"/>
</radialGradient>
</defs>
<desc>Coat of Arms of Canton of Freiburg (Fribourg)</desc>
<path d="m1.5 1.5v458.87c0 166.31 134.31 301.13 300 301.13 165.69 0 300-134.82 300-301.13v-458.87h-600z" fill="#2b5df2"/>
<g fill-rule="evenodd">
<g transform="matrix(-2.843 0 0 3.7095 2212 -824.21)" stroke="#000">
<path d="m735 323.73v-5.732c97.088-54.768-33.723-122.06-55-40 18.906-28.755 88.898-6.6109 30.366 37.804l6.098 7.9279h18.536z" fill="#fff" stroke-width="1px"/>
<g fill="#fcef3c">
<path d="m716.83 332.63s-7.5311 46.029-8.2938 60.366c-0.90553 17.02 35.622 17.292 34.634 0-0.78914-13.808-9.634-60-9.634-60l-16.706-0.36598z" stroke-width="1px"/>
<rect x="708.59" y="323.09" width="33.828" height="12.726" ry="6.3628" stroke-linecap="round" stroke-linejoin="round"/>
</g>
</g>
<g transform="matrix(1.1967 0 0 1.2366 -79.952 -88.648)">
<path d="m326.41 163 14.939 94.939 130 0.82801 13.65-95.767-84.111 26.472-74.478-26.472z" fill="#fff" stroke="#000" stroke-width="1px"/>
<path d="m260.5 257.24c12.922 201.1 71.233 282.77 142.92 365.26 118.03-117.58 129.32-239.65 145.93-368.03l-288.84 2.7693z" fill="#fff" stroke="#000" stroke-width="3"/>
<path transform="matrix(3.9251 0 0 3.775 -2699.2 -1088.9)" d="m811.72 331.21a20.637 9.8775 0 1 1-41.274 0 20.637 9.8775 0 1 1 41.274 0z" fill="#fff" stroke="#000" stroke-linecap="round" stroke-linejoin="round" stroke-width=".77936"/>
<path d="m535.88 262.5-65.125 9.9375-5.488 6.6443 70.769-15.582-0.15625-1z" stroke="#000" stroke-width="3"/>
<path d="m340 246.29c0.1384 10.611 0.84698 12.504 3.5361 20.484l125.86-0.12376c1.6551-4.8002 2.5362-13.656 2.8041-19.263l-132.2-1.098z" fill="#fff" stroke="#fff" stroke-width="1px"/>
<path d="m274.66 262.5-0.15625 1 70.067 15.595-1.2548-5.9388-68.656-10.656z" fill="#000100" stroke="#000" stroke-width="3"/>
<path d="m405.63 140.08c-29.057 0-52.62 6.9809-52.62 15.578 0 7.1466 17.708 20.057 39.899 21.887l-1.7506 97.722-19.161 9.7912c-23.078-5.889-32.743-20.497-32.995-29.309-0.30872-10.817-11.829-79.708-13.037-89.473l14.635 103.06c10.818 76.181 31.098 174.54 66.133 167.33 37.087-7.6296 50.605-99.466 63.873-160.65 2.985-13.765 13.573-100.06 16.798-109.41-2.9072 9.2173-12.375 75.305-14.176 87.86-0.68814 4.7971-8.2161 22.165-33.668 31.483l-20.195-9.8683-3.1353-99.924c22.527-1.7643 42.02-13.286 42.02-20.503 0-8.5967-23.563-15.578-52.62-15.578z" fill="#fff" stroke="#000" stroke-linecap="round" stroke-linejoin="round" stroke-width="3"/>
<path d="m416.25 177.52-0.55767 0.16464 3.781 99.115 19.245 8.5098 2.0986-89.125v-0.6875l-0.5-0.46875-24.067-17.508z" fill="#fff" stroke="#000" stroke-width="3"/>
<path d="m394.27 177.52 0.55767 0.16464-3.781 99.588-17.129 7.3319-4.2152-88.419v-0.6875l0.5-0.46875 24.067-17.508z" fill="#fff" stroke="#000" stroke-width="3"/>
</g>
</g>
<g>
<path d="m1.5 1.5v458.87c0 166.31 134.31 301.13 300 301.13 165.69 0 300-134.82 300-301.13v-458.87h-600z" fill="url(#a)"/>
<path d="m1.5 1.5v458.87c0 166.31 134.31 301.13 300 301.13 165.69 0 300-134.82 300-301.13v-458.87h-600z" fill="none" stroke="#000" stroke-width="3"/>
</g>
</svg>
