<?xml version="1.0" encoding="UTF-8"?>
<!DOCTYPE svg  PUBLIC '-//W3C//DTD SVG 1.1//EN'  'http://www.w3.org/Graphics/SVG/1.1/DTD/svg11.dtd'>
<svg version="1.1" viewBox="0 0 185 220" xmlns="http://www.w3.org/2000/svg">
<g transform="scale(1.25)">
<g transform="translate(0 176) scale(.04 -.04)" fill="#f8db00">
<path d="m2970 3976c0-2 7-7 16-10 8-3 12-2 9 4-6 10-25 14-25 6z"/>
<path d="m2738 3956c3-5-5-7-16-4-13 4-20 2-16-3 3-6-5-7-19-4-15 4-28 2-32-6-6-8-4-10 5-4 9 5 11 4 6-4-4-7-13-10-19-8-5 1-21-7-35-20-13-12-28-21-32-18s-14-3-21-13c-13-16-12-16 6-2 20 14 20 14 1-7-10-13-23-20-28-17-4 3-7 2-6-3 4-11-27-54-34-48-3 3-8-1-12-10-3-9-2-13 4-10s7-1 4-9c-3-9-11-13-16-10-6 4-7-2-3-16 5-14 3-20-3-16s-8-2-4-16c3-11 1-19-4-16-5 4-9-34-9-88 0-52 4-94 9-94 4 0 5-7 2-16-4-10-2-13 6-8 7 5 9 0 6-14-4-14-2-20 5-15 7 4 8 0 4-11-5-11-3-15 5-10s9 2 5-10c-4-10-3-15 3-11 9 6 14-8 11-28-1-5 3-6 8-3 13 8 34-21 25-36-4-7-4-10 1-6 4 4 14 0 22-10 10-11 12-12 8-2-3 8 8-1 26-20 17-19 29-29 25-23-5 9-2 11 8 7 9-3 14-10 11-14s2-11 11-14c10-4 13-2 8 6s-2 9 10 5c10-4 20-7 22-7 3 0 2-5-2-12-4-6-3-9 2-6s55 3 111-1c55-3 99-2 96 2-2 4 8 5 24 2 15-3 22-2 15 1-9 4 1 13 28 25 23 10 45 17 50 14 4-2 16 5 26 18l19 22-50-40 19 23c11 12 26 21 35 20 10-2 15 3 13 13-1 9 8 24 20 35l23 19-40-50 22 19c13 10 20 23 16 29-3 5 0 15 8 21s14 18 14 26 6 14 14 12c9-2 12 4 8 19-7 25 2 51 14 43 5-3 9 30 9 74 0 64-3 81-16 86-11 4-14 13-10 30s1 26-10 30c-9 3-14 13-11 20 3 8-1 17-10 20-8 4-13 12-10 20s-4 22-16 33c-22 18-22 18-7-2 9-12 5-10-8 4-13 13-32 31-41 40-11 11-12 13-1 6 13-9 13-8 2 7-8 10-17 17-20 16-21-2-32 3-27 13 4 6 1 10-6 8-27-3-40 1-33 12 4 7 0 9-13 5-22-7-55 2-49 13 2 3-36 6-84 6-50 0-86-4-82-9z"/>
<path d="m2426 3745c-9-26-7-32 5-12 6 10 9 21 6 23-2 3-7-2-11-11z"/>
<path d="m2443 3605c0-38 2-53 4-32 2 20 2 52 0 70-2 17-4 1-4-38z"/>
<path d="m2401 3609c1-24 5-55 9-69 5-15 6 1 3 40-7 76-13 93-12 29z"/>
<path d="m3129 3353c-13-16-12-17 4-4s21 21 13 21c-2 0-10-8-17-17z"/>
<path d="m2520 3326c0-2 8-10 18-17 15-13 16-12 3 4s-21 21-21 13z"/>
<path d="m1827 3313c-3-5 25-7 61-5 116 5 130 9 35 10-50 1-94-1-96-5z"/>
<path d="m3069 3293c-13-16-12-17 4-4 9 7 17 15 17 17 0 8-8 3-21-13z"/>
<path d="m1915 3280 50-8-58 2-57 1 2-475c3-417 5-474 18-470 19 5 81 5 97 0 10-4 13 96 13 475v480l-57 1-58 1 50-7z"/>
<path d="m1825 2800c0-261 1-368 2-238 2 131 2 345 0 475-1 131-2 24-2-237z"/>
<path d="m1293 3123c26-2 68-2 95 0 26 2 4 3-48 3s-74-1-47-3z"/>
<path d="m1280 3093c-5-125-3-950 3-946 4 2 7-1 7-7 0-7 20-10 55-8l55 3v480 480l-60 3c-33 2-60 0-60-5zm83-10c-13-2-33-2-45 0-13 2-3 4 22 4s35-2 23-4zm0-940c-13-2-33-2-45 0-13 2-3 4 22 4s35-2 23-4z"/>
<path d="m770 2890-55-5-10-940 120 10 5 468c3 258 3 470 0 471s-30-1-60-4z"/>
<path d="m1903 2323c9-2 25-2 35 0 9 3 1 5-18 5s-27-2-17-5z"/>
<path d="m1829 2297c4-4 50-6 102-5l94 3-102 5c-56 3-99 1-94-3z"/>
<path d="m1853 2103c-2-6-3-50-1-97l3-87-580 6 1-103 2-103-573 6v-100-100h-285-285l275 2c151 2 278 7 282 11s-124 6-284 4c-160-1-288-5-285-9 4-3 2-14-4-24-7-13-6-19 2-19 7 0 10-14 7-39-2-22 0-37 5-34 4 2 5-8 2-24-5-19-4-24 3-15 12 18 26-31 16-60-4-15-3-18 7-13 9 6 11 2 7-13-4-14-2-20 4-16s8-2 3-16c-5-17-4-21 6-15 9 6 11 2 7-13-4-14-2-20 4-16s8-2 3-16c-4-14-3-20 3-16 13 8 23-19 15-41-4-10-2-14 4-10 13 8 26-20 16-35-4-7-1-8 7-3 10 6 12 4 7-9-5-11-3-15 5-10s9 2 5-10c-5-11-3-15 5-10s9 2 5-10c-5-11-3-15 5-10s9 2 5-10c-5-11-3-15 5-10s9 2 5-10c-5-11-3-15 5-10s9 2 5-10c-5-11-3-15 5-10s9 2 5-10c-5-11-3-15 5-10s9 1 4-12c-4-10-4-15 0-11 10 9 45-44 37-56-3-6-1-7 5-3 11 7 17-6 13-27-1-5 3-6 9-2 9 6 14-8 11-28-1-5 2-6 6-4 5 3 17-7 27-21 12-15 14-22 5-17-8 5 1-6 19-23 20-19 31-36 26-43-4-7-3-9 3-6 10 6 57-36 49-44-2-2 192-4 432-4h437l-3 423c-2 313 1 422 9 416 7-4 9 0 5 13-7 23 2 55 14 48 4-3 11 2 14 11 3 8 2 12-4 9s-7 1-4 9c3 9 10 14 14 11s11 2 14 11c4 9 2 13-5 8-29-17 16 38 72 90 45 42 66 55 80 51 13-5 19-2 17 7-2 8 5 12 20 11 13-2 21 1 18 6-8 13 18 21 45 14 14-4 20-2 16 4s0 14 9 17c24 9 31 7 14-4-9-6-10-10-3-10 6 0 15 5 18 10 7 11 106 13 142 4 13-4 20-11 17-16-4-6 1-8 13-4 25 8 55-3 46-17-3-6-1-7 5-3 11 6 92-29 92-40 0-3-5-2-12 2s-8 3-4-4c4-6 12-9 19-6 16 6 112-91 103-104-3-5 1-13 10-16s14-13 11-20c-3-8 1-17 10-20 11-4 13-14 9-32-4-16-3-23 3-19 6 3 13-4 16-17s4-207 3-433l-3-410 480 2 479 3 26 27 25 28-31-25c-16-14-10-5 15 19 25 25 37 38 26 30-20-14-20-14 0 11 10 14 30 36 45 49 14 13 18 20 10 16-8-3-6 1 5 10 11 8 20 23 20 31s11 24 25 35c14 12 19 18 12 14-11-6-11-3-1 13 7 12 17 19 21 16s5 3 1 12c-4 12-3 15 5 10s10-1 5 10c-4 12-3 15 5 10s10-1 5 10c-4 12-3 15 5 10s10-1 5 10c-4 12-3 15 5 10s10-1 5 10c-4 12-3 15 5 10s10-1 5 10c-4 12-3 15 5 10s10-1 5 10c-4 12-3 15 5 10s10-1 5 10c-4 12-3 15 5 10s10-1 5 10c-4 12-3 15 5 10s10-1 5 10c-4 11-3 15 4 11 7-5 9 1 5 15-3 14-1 19 6 14 8-5 10-1 5 10-4 11-3 15 4 11 7-5 9 1 5 15-4 15-2 19 7 13 10-6 11-2 6 15-5 14-3 20 3 16s8 2 4 16c-4 15-2 19 7 13 10-6 11-2 6 15-4 14-3 20 2 17 6-4 8 5 6 21-4 22-2 24 7 12s10-9 5 13c-6 30 2 70 13 63 4-2 5 16 3 41s1 43 5 40c5-3 9 9 9 26 2 110 6 147 20 161 12 12 15 50 15 216 0 151-3 199-12 194-7-5-9-2-6 7 5 12-120 14-875 14-662 0-881-3-884-12zm1764-310c-1-54-3-10-3 97s2 151 3 98c2-54 2-142 0-195z"/>
<path d="m1293 2103c26-2 68-2 95 0 26 2 4 3-48 3s-74-1-47-3z"/>
<path d="m1823 2045c0-38 2-53 4-32 2 20 2 52 0 70-2 17-4 1-4-38z"/>
<path d="m1778 1773c23-2 59-2 80 0 20 2 1 4-43 4s-61-2-37-4z"/>
<path d="m858 1733c79-2 205-2 280 0 75 1 11 3-143 3s-216-2-137-3z"/>
<path d="m3676 1722c-2-4-4-46-4-92 0-52-5-86-11-88s-11-28-11-57c0-30-4-57-10-60-5-3-10-21-10-40s-4-37-10-40c-5-3-10-17-10-30s-4-27-10-30c-5-3-10-17-10-30s-4-27-10-30c-5-3-10-14-10-24 0-9-31-80-70-156-38-76-70-144-70-151s-8-19-17-26c-21-16-43-52-43-72 0-7-18-30-40-50s-40-42-40-49c0-16-271-287-288-287-7 0-25-13-39-30-13-16-32-30-41-30-10 0-23-9-30-20s-19-20-27-20c-21 0-57-21-73-42-7-10-19-18-26-18s-57-23-111-50-106-50-116-50-21-4-24-10c-3-5-15-10-25-10-11 0-35-9-55-20s-49-20-65-20-32-4-35-10c-3-5-21-10-40-10s-37-4-40-10c-3-5-31-10-61-10s-54-4-54-10c0-5-45-11-102-12-70-2-103-7-106-15-3-10 178-13 882-13h886v865c0 534-4 865-9 865-6 0-12-3-15-8z"/>
<path d="m1525 1658-40-43 43 40c39 36 47 45 39 45-2 0-21-19-42-42z"/>
<path d="m0 836v-836h876c696 0 875 3 872 13-3 8-34 13-96 15-51 1-92 7-92 12 0 6-24 10-54 10s-58 5-61 10c-3 6-21 10-40 10s-37 5-40 10c-3 6-21 10-40 10s-37 5-40 10c-3 6-17 10-30 10s-27 5-30 10c-3 6-14 10-24 10s-62 22-116 50c-54 27-108 50-121 50s-29 8-36 18c-16 21-52 42-73 42-8 0-20 9-27 20s-20 20-30 20c-9 0-28 13-41 30-14 16-32 30-40 30s-31 18-51 40-41 40-48 40c-17 0-188 171-188 188 0 7-13 25-30 39-16 13-30 31-30 40 0 8-13 26-30 40-16 13-30 32-30 41 0 10-9 23-20 30s-20 18-20 25-31 76-70 152c-38 76-70 144-70 152 0 7-9 28-20 48s-20 44-20 55c0 10-4 22-10 25-5 3-10 21-10 40s-4 37-10 40c-5 3-10 26-10 50s-5 45-10 47c-7 2-12 41-13 92-1 61-6 91-14 94-10 3-13-168-13-832z"/>
<path d="m3613 1620c0-30 2-43 4-27 2 15 2 39 0 55-2 15-4 2-4-28z"/>
<path d="m385 1570-280-5 277-3c176-1 279 2 283 8 3 6 5 9 3 8-2-2-129-5-283-8z"/>
<path d="m111 1454c0-11 3-14 6-6 3 7 2 16-1 19-3 4-6-2-5-13z"/>
<path d="m2635 250c-3-6 1-7 9-4 18 7 21 14 7 14-6 0-13-4-16-10z"/>
</g>
<g transform="translate(0 176) scale(.04 -.04)" fill="#fb0000">
<path d="m110 2948 1-1357 269-3 270-3v98c0 63-4 96-10 92-5-3-10-43-10-88v-82l-244 3c-242 3-244 3-250 25-3 12-6 614-6 1337v1315h1719c1133 0 1721-3 1727-10 5-6 9-466 9-1048v-1037h-882c-577 0-884-3-888-10s296-10 892-10h898l-3 1065-2 1065-1745 2-1745 3v-1357z"/>
<path d="m2700 4040c-8-4-33-16-55-27s-51-26-65-34c-35-20-150-139-150-155 0-8-3-14-7-14-11 0-33-50-33-71 0-10-4-21-10-24s-10-52-10-111c0-63 4-104 10-104s10-13 10-30c0-16 5-30 10-30 6 0 10-7 10-15s5-15 10-15c6 0 10-7 10-15s33-48 73-88c70-71 140-117 178-117 10 0 19-4 19-10s45-10 114-10c66 0 117 4 121 10 3 6 17 10 31 10 13 0 24 3 24 8 0 4 14 13 32 21 17 8 39 20 47 27 9 8 25 20 36 28s17 18 12 22c-4 4-20-4-35-17-25-23-73-49-145-78-38-15-204-14-247 2-52 19-115 53-129 71-8 9-19 16-25 16-11 0-75 79-85 105-2 6-12 22-22 37-11 14-19 35-19 46 0 12-4 24-10 27s-10 50-10 105 4 102 10 105 10 16 10 28 9 33 20 47 20 30 20 36c0 18 132 137 180 162 65 34 174 48 255 34 86-16 245-105 245-137 0-6 9-16 20-23s20-19 20-27 3-15 8-15c9 0 25-36 48-108 18-58 17-200-3-237-6-11-21-40-33-65-13-25-32-55-43-67-11-13-17-26-14-30 8-8 57 47 57 65 0 6 3 12 8 12 4 0 13 15 20 33 7 17 18 40 23 49 12 24 12 258-1 258-5 0-10 11-10 25s-4 25-10 25c-5 0-10 9-10 20s-4 20-10 20c-5 0-10 4-10 10 0 28-138 159-167 160-7 0-13 5-13 10 0 6-9 10-20 10s-20 5-20 10c0 6-11 10-24 10-14 0-27 4-30 9-7 10-195 11-216 1z"/>
<path d="m2970 3976c0-2 7-7 16-10 8-3 12-2 9 4-6 10-25 14-25 6z"/>
<path d="m2656 3941c-4-5 3-7 14-4 23 6 26 13 6 13-8 0-17-4-20-9z"/>
<path d="m3030 3906c0-2 8-10 18-17 15-13 16-12 3 4s-21 21-21 13z"/>
<path d="m2559 3873c-13-16-12-17 4-4s21 21 13 21c-2 0-10-8-17-17z"/>
<path d="m3105 3830c10-11 20-20 23-20s-3 9-13 20-20 20-23 20 3-9 13-20z"/>
<path d="m2486 3783c-6-14-5-15 5-6 7 7 10 15 7 18s-9-2-12-12z"/>
<path d="m2426 3745c-9-26-7-32 5-12 6 10 9 21 6 23-2 3-7-2-11-11z"/>
<path d="m3183 3600c0-47 2-66 4-42 2 23 2 61 0 85-2 23-4 4-4-43z"/>
<path d="m2443 3605c0-38 2-53 4-32 2 20 2 52 0 70-2 17-4 1-4-38z"/>
<path d="m2401 3609c1-24 5-55 9-69 5-15 6 1 3 40-7 76-13 93-12 29z"/>
<path d="m3161 3474c0-11 3-14 6-6 3 7 2 16-1 19-3 4-6-2-5-13z"/>
<path d="m3104 3378-19-23 23 19c12 11 22 21 22 23 0 8-8 2-26-19z"/>
<path d="m3129 3353c-13-16-12-17 4-4s21 21 13 21c-2 0-10-8-17-17z"/>
<path d="m1815 3340c-4-6 33-10 104-10 67 0 111 4 111 10s-41 10-104 10c-59 0-108-4-111-10z"/>
<path d="m2520 3326c0-2 8-10 18-17 15-13 16-12 3 4s-21 21-21 13z"/>
<path d="m3034 3308-19-23 23 19c12 11 22 21 22 23 0 8-8 2-26-19z"/>
<path d="m1790 2805c0-342 3-514 10-510 6 4 10 185 10 510s-4 506-10 510c-7 4-10-168-10-510z"/>
<path d="m1827 3313c-3-5 25-7 61-5 116 5 130 9 35 10-50 1-94-1-96-5z"/>
<path d="m2046 3289c-8-40-8-972 0-993 20-51 24 43 24 510s-5 575-24 483z"/>
<path d="m3069 3293c-13-16-12-17 4-4 9 7 17 15 17 17 0 8-8 3-21-13z"/>
<path d="m1880 3284c34-7 108-8 103-1-2 4-30 6-61 6-31-1-50-3-42-5z"/>
<path d="m1852 2808c-1-262 1-479 6-481 6-5 6 353-1 788-1 94-4-45-5-307z"/>
<path d="m2640 3276c0-2 7-7 16-10 8-3 12-2 9 4-6 10-25 14-25 6z"/>
<path d="m1825 2800c0-261 1-368 2-238 2 131 2 345 0 475-1 131-2 24-2-237z"/>
<path d="m2928 3253c7-3 16-2 19 1 4 3-2 6-13 5-11 0-14-3-6-6z"/>
<path d="m1235 3160c-4-6 33-10 104-10 67 0 111 4 111 10s-41 10-104 10c-59 0-108-4-111-10z"/>
<path d="m1200 2615c0-337 3-515 10-515s10 178 10 515-3 515-10 515-10-178-10-515z"/>
<path d="m1293 3123c26-2 68-2 95 0 26 2 4 3-48 3s-74-1-47-3z"/>
<path d="m1460 2615c0-409 3-516 13-512 9 3 12 114 12 512s-3 509-12 513c-10 3-13-104-13-513z"/>
<path d="m1277 3093c-4-3-7-11-7-17 0-7 3-7 8 1 4 6 30 13 57 16l50 3-51 2c-28 1-54-1-57-5z"/>
<path d="m660 2960c0-6 43-10 110-10s110 4 110 10-43 10-110 10-110-4-110-10z"/>
<path d="m630 2420c0-340 3-520 10-520s10 180 10 520-3 520-10 520-10-180-10-520z"/>
<path d="m890 2420c0-340 3-520 10-520s10 180 10 520-3 520-10 520-10-180-10-520z"/>
<path d="m1903 2323c9-2 25-2 35 0 9 3 1 5-18 5s-27-2-17-5z"/>
<path d="m1829 2297c4-4 50-6 102-5l94 3-102 5c-56 3-99 1-94-3z"/>
<path d="m1815 2260c3-6 52-10 110-10s107 4 110 10c4 6-35 10-110 10s-114-4-110-10z"/>
<path d="m1790 2088v-78l-277-2c-177-2-278-7-278-13s104-11 286-13l286-2 1 77c1 43-3 85-8 93-7 10-10-8-10-62z"/>
<path d="m1345 2140-60-7 57-1c31-1 60 3 63 8 3 6 5 9 3 8s-30-4-63-8z"/>
<path d="m1854 2107c-3-8-4-52-2-98l3-84 5 98c5 96 4 109-6 84z"/>
<path d="m1293 2103c26-2 68-2 95 0 26 2 4 3-48 3s-74-1-47-3z"/>
<path d="m1823 2045c0-38 2-53 4-32 2 20 2 52 0 70-2 17-4 1-4-38z"/>
<path d="m3624 1895c0-115 2-161 3-102 2 59 2 154 0 210-1 56-3 8-3-108z"/>
<path d="m1235 2080c3-6 52-10 111-10 63 0 104 4 104 10s-44 10-111 10c-71 0-108-4-104-10z"/>
<path d="m1206 1958c-4-9-6-46-4-83l3-65h-272c-170 0-273-4-273-10 0-10 560-20 563-10 1 3 0 46-3 95-3 57-8 84-14 73z"/>
<path d="m660 1880c0-6 43-10 110-10s110 4 110 10-43 10-110 10-110-4-110-10z"/>
<path d="m1698 1793c7-3 16-2 19 1 4 3-2 6-13 5-11 0-14-3-6-6z"/>
<path d="m1778 1773c23-2 59-2 80 0 20 2 1 4-43 4s-61-2-37-4z"/>
<path d="m1270 1757c0-15-27-17-277-20l-278-2 278-3c242-2 278 0 284 13 3 9 3 19-1 22-3 4-6-1-6-10z"/>
<path d="m1705 1742c-6-5-29-14-52-22-23-7-64-33-93-58-46-40-62-65-99-155-15-37-16-911-1-902 6 4 10 163 10 445s4 441 10 445c6 3 10 14 10 24 0 33 30 80 82 126 27 25 56 45 64 45s14 5 14 10c0 6 11 10 24 10 14 0 28 5 31 10 3 6 52 10 111 10 63 0 104-4 104-10 0-5 9-10 19-10 46 0 171-93 171-127 0-7 5-13 10-13 6 0 10-11 10-25s5-25 10-25c7 0 10-156 10-449 0-273 4-452 9-456 19-11 22 65 19 470l-3 410-24 55c-39 86-103 140-224 189-32 13-208 15-222 3z"/>
<path d="m3676 1722c-2-4-4-46-4-92 0-52-5-86-11-88s-11-28-11-57c0-30-4-57-10-60-5-3-10-21-10-40s-4-37-10-40c-5-3-10-17-10-30s-4-27-10-30c-5-3-10-17-10-30s-4-27-10-30c-5-3-10-14-10-24 0-9-31-80-70-156-38-76-70-144-70-151s-8-19-17-26c-21-16-43-52-43-72 0-7-18-30-40-50s-40-42-40-49c0-16-271-287-288-287-7 0-25-13-39-30-13-16-32-30-41-30-10 0-23-9-30-20s-19-20-27-20c-21 0-57-21-73-42-7-10-19-18-26-18s-57-23-111-50-106-50-116-50-21-4-24-10c-3-5-15-10-25-10-11 0-35-9-55-20s-49-20-65-20-32-4-35-10c-3-5-21-10-40-10s-37-4-40-10c-3-5-31-10-61-10s-54-4-54-10c0-5-45-11-102-12-70-2-103-7-106-15-3-10 178-13 882-13h886v865c0 534-4 865-9 865-6 0-12-3-15-8z"/>
<path d="m1525 1658-40-43 43 40c39 36 47 45 39 45-2 0-21-19-42-42z"/>
<path d="m0 836v-836h876c696 0 875 3 872 13-3 8-34 13-96 15-51 1-92 7-92 12 0 6-24 10-54 10s-58 5-61 10c-3 6-21 10-40 10s-37 5-40 10c-3 6-21 10-40 10s-37 5-40 10c-3 6-17 10-30 10s-27 5-30 10c-3 6-14 10-24 10s-62 22-116 50c-54 27-108 50-121 50s-29 8-36 18c-16 21-52 42-73 42-8 0-20 9-27 20s-20 20-30 20c-9 0-28 13-41 30-14 16-32 30-40 30s-31 18-51 40-41 40-48 40c-17 0-188 171-188 188 0 7-13 25-30 39-16 13-30 31-30 40 0 8-13 26-30 40-16 13-30 32-30 41 0 10-9 23-20 30s-20 18-20 25-31 76-70 152c-38 76-70 144-70 152 0 7-9 28-20 48s-20 44-20 55c0 10-4 22-10 25-5 3-10 21-10 40s-4 37-10 40c-5 3-10 26-10 50s-5 45-10 47c-7 2-12 41-13 92-1 61-6 91-14 94-10 3-13-168-13-832z"/>
<path d="m3613 1620c0-30 2-43 4-27 2 15 2 39 0 55-2 15-4 2-4-28z"/>
<path d="m1445 1609c-4-6-5-12-2-15 2-3 7 2 10 11 7 17 1 20-8 4z"/>
<path d="m385 1570-280-5 277-3c176-1 279 2 283 8 3 6 5 9 3 8-2-2-129-5-283-8z"/>
<path d="m1425 1569c-4-6-5-12-2-15 2-3 7 2 10 11 7 17 1 20-8 4z"/>
<path d="m405 1540-290-5 287-3c183-1 289 2 293 8 3 6 5 9 3 8-2-2-133-5-293-8z"/>
<path d="m111 1454c0-11 3-14 6-6 3 7 2 16-1 19-3 4-6-2-5-13z"/>
<path d="m131 1384c0-11 3-14 6-6 3 7 2 16-1 19-3 4-6-2-5-13z"/>
<path d="m3561 1344c0-11 3-14 6-6 3 7 2 16-1 19-3 4-6-2-5-13z"/>
<path d="m3249 733c-13-16-12-17 4-4s21 21 13 21c-2 0-10-8-17-17z"/>
<path d="m3204 678-29-33 33 29c30 28 37 36 29 36-2 0-16-15-33-32z"/>
<path d="m618 582c13-9 39-34 59-54 20-21 40-38 44-38s21-13 39-30c18-16 38-30 46-30s14-4 14-9c0-9 96-71 111-71 5 0 9-3 9-7 0-15 210-115 315-151 170-59 426-102 600-102 138 0 321 25 465 62 122 31 178 52 340 127 72 33 252 146 258 163 2 4 9 8 16 8s42 27 77 60 67 60 70 60c4 0 12 6 18 14 11 13-48 14-443 13-298-1-455-5-453-12 1-6 151-10 425-10 232 0 422-3 422-6 0-4-10-14-22-22-13-8-43-34-68-56-24-23-50-41-56-41-7 0-14-4-16-8-4-12-95-72-107-72-6 0-11-4-11-8 0-5-16-14-35-22s-35-16-35-19c0-4-15-12-32-19-40-17-117-51-140-63-10-5-25-9-33-9s-15-4-15-10c0-5-13-10-29-10-17 0-33-4-36-10-3-5-22-10-41-10s-34-4-34-10c0-5-15-10-34-10s-37-4-40-9c-6-9-8-10-206-36-122-16-401-17-417-1-3 3-25 6-48 6s-45 3-48 7c-4 4-26 8-49 10-23 3-50 9-59 14-10 5-29 9-43 9s-28 4-31 10c-3 5-19 10-35 10s-32 5-35 10-17 10-30 10-27 5-30 10c-3 6-17 10-31 10-13 0-24 5-24 10 0 6-6 10-14 10-12 0-58 20-121 53-11 6-38 20-60 31-22 12-42 23-45 26s-17 11-32 19-37 22-47 33c-11 10-25 18-31 18-5 0-10 5-10 10 0 6-7 10-15 10s-15 4-15 8-13 15-28 24c-29 17-102 81-102 89 0 2 173 4 385 4 250 0 385 4 385 10s-147 11-418 12c-392 1-416 1-394-15z"/>
<path d="m2635 250c-3-6 1-7 9-4 18 7 21 14 7 14-6 0-13-4-16-10z"/>
</g>
<g transform="translate(0 176) scale(.04 -.04)" fill="#ed0000">
<path d="m95 2980c0-737 3-1340 7-1340s8-10 10-22c2-13 2 587 0 1332-1 745-6 1358-10 1362s-7-596-7-1332z"/>
<path d="m1857 4303 1743-3 3-1063 2-1062 3 1068 2 1067-1747-2-1748-3 1742-2z"/>
<path d="m130 2970c0-723 3-1325 6-1337 6-22 8-22 250-25l244-3v82c0 122 18 112 22-12l3-105-275-3-275-2h279 279l-2 103c-2 92 0 102 16 102h280c173 0 264 3 268 10 4 6 3 10-2 9-4-1-133-1-285 0-178 1-278 5-278 11s97 10 273 10h272l-3 71c-2 43 1 76 7 82 8 8 12-14 13-79l2-89 5 85 6 85h292c161 0 289 3 285 7s-135 9-290 10c-180 2-282 7-282 13s100 11 275 13l275 2 1 78c0 42 3 71 6 65 2-7 11-13 19-13 9 0 12 5 9 10-4 7 289 9 893 8 495-2 898 0 895 5-2 4-409 7-904 7-598 0-898 3-894 10s311 10 888 10h882v1037c0 582-4 1042-9 1048-6 7-594 10-1727 10h-1719v-1315zm2786 1069c3-5 16-9 30-9 13 0 24-4 24-10 0-5 9-10 20-10s20-4 20-10c0-5 6-10 13-10 6 0 26-12 42-26 17-14 37-30 45-34 8-5 11-12 7-16s-17 2-30 13c-41 37-99 65-110 54-10-10-4-13 20-10 3 0 10-6 15-15s14-14 19-10c12 7 71-41 61-50-3-4 2-4 13 0 15 6 17 4 12-10-4-11-3-15 4-11 6 4 8 13 5 21-10 26 13 14 31-16 9-16 21-30 25-30 14 0 8-22-9-37-10-8-12-11-4-7 11 5 13 3 8-9-4-10-2-16 6-14 7 1 11-7 10-18-1-19-1-19 11-2 18 24 26 21 26-8 0-14 5-25 10-25 13 0 13-234 1-258-5-9-16-32-23-49-7-18-16-33-20-33-5 0-8-6-8-12 0-18-49-73-57-65-3 4 3 17 14 30 21 24 63 94 63 105 0 4-5-1-11-11-6-9-14-15-20-12-5 4-6-2-2-11 4-12 3-15-5-10s-10 1-5-10c4-12 3-15-5-10s-10 1-5-10c4-11 3-15-5-10-11 7-25-9-28-32-3-18-9-23-31-26-10-1-22-12-28-24-5-12-15-20-22-18-6 3-14-2-17-11-4-8-13-13-21-9-8 3-15 1-15-5s-5-7-12-3c-7 5-8 3-3-6 6-10 3-12-13-8-12 4-22 2-22-4s-7-7-16-4c-8 3-12 2-9-4 4-6-28-10-87-10-103 0-141 7-131 23 4 6 0 8-10 4-21-8-49 2-41 14 3 5-2 6-10 3s-22 3-32 15c-10 11-21 18-25 15-4-2-17 10-29 26-12 17-24 29-27 26-8-8-65 63-59 73 3 5-1 12-10 15-8 3-12 10-9 16 3 5 1 10-5 10-7 0-9 7-6 16 4 9 2 13-5 8-8-4-9 1-4 16s4 20-4 16c-16-10-13-34 8-64 10-15 20-31 22-37 10-26 74-105 85-105 6 0 17-7 25-16 14-18 77-52 129-71 45-16 204-16 250 0 19 7 50 20 69 30 38 19 51 21 51 9 0-5-16-14-35-22s-35-17-35-22c0-4-11-8-24-8-14 0-28-4-31-10-4-6-55-10-121-10-69 0-114 4-114 10s-9 10-19 10c-38 0-108 46-178 117-40 40-73 80-73 88s-4 15-10 15c-5 0-10 7-10 15s-4 15-10 15c-5 0-10 14-10 30 0 17-4 30-10 30s-10 41-10 104c0 59 4 108 10 111s10 14 10 24c0 21 22 71 33 71 4 0 7 6 7 14 0 16 115 135 150 155 14 8 43 23 65 34s47 23 55 27c21 10 209 9 216-1zm294-240c0-11-4-17-10-14-5 3-10 13-10 21s5 14 10 14c6 0 10-9 10-21zm-1180-459c0-6-44-10-111-10-71 0-108 4-104 10 3 6 52 10 111 10 63 0 104-4 104-10zm-203-33c-3 4 42 8 99 8h104l-2-515-3-515-102-3c-57-1-103 1-103 5s46 8 102 7l103-1-100 6c-55 3-108 2-117-2-17-7-18 21-18 508v516l21-12c12-6 19-7 16-2zm243-501c0-467-4-561-24-510-8 21-8 953 0 993 19 92 24-16 24-483zm1050 485c0-9-44-41-55-41-4 0-3 6 2 13 4 6 8 15 9 20 2 12 3 13 24 14 11 1 20-2 20-6zm-1670-131c0-6-44-10-111-10-71 0-108 4-104 10 3 6 52 10 111 10 63 0 104-4 104-10zm-2-540 2-515h-110-110v511c0 281 3 514 7 518s52 5 107 4l101-3 3-515zm-228-5c0-337-3-515-10-515s-10 178-10 515 3 515 10 515 10-178 10-515zm265 0c0-398-3-509-12-512-10-4-13 103-13 512s3 516 13 513c9-4 12-115 12-513zm-605 345c0-6-43-10-110-10s-110 4-110 10 43 10 110 10 110-4 110-10zm-230-540c0-340-3-520-10-520s-10 180-10 520 3 520 10 520 10-180 10-520zm228-2 2-518h-110-110v520 521l108-3 107-3 3-517zm32 2c0-340-3-520-10-520s-10 180-10 520 3 520 10 520 10-180 10-520zm1125-160c-3-6-52-10-110-10s-107 4-110 10c-4 6 35 10 110 10s114-4 110-10zm-585-180c0-6-41-10-104-10-59 0-108 4-111 10-4 6 33 10 104 10 67 0 111-4 111-10zm-570-200c0-6-43-10-110-10s-110 4-110 10 43 10 110 10 110-4 110-10z"/>
<path d="m2715 4018c-56-10-75-22-50-32 10-4 14-2 9 6-5 7 0 9 14 6 14-4 20-2 16 4-4 7 6 9 29 6 20-2 33 0 31 4-3 4 18 8 46 8s49-4 46-8c-2-4 11-6 31-4 20 3 33 1 30-4s8-9 23-9c41 0 24 11-38 24s-117 13-187-1z"/>
<path d="m2595 3968c-43-31-145-131-145-143 0-5-9-21-20-35s-20-35-20-47-4-25-10-28c-12-8-13-202-1-209 17-11 20 24 11 97-12 96-13 91 10 117 11 13 18 31 15 41s1 19 10 23c9 3 13 10 10 16-3 5-1 10 5 10s8 4 5 10c-8 13 85 111 98 103 6-3 7-1 3 5-7 11 6 17 27 13 5-1 5 4 1 10-5 9-2 10 10 6 11-4 15-3 11 4-4 6-1 9 6 7 8-1 15 1 17 7 6 18-13 15-43-7zm-188-440c-3-7-5-2-5 12s2 19 5 13c2-7 2-19 0-25z"/>
<path d="m2656 3941c-4-5 3-7 14-4 23 6 26 13 6 13-8 0-17-4-20-9z"/>
<path d="m3030 3906c0-2 8-10 18-17 15-13 16-12 3 4s-21 21-21 13z"/>
<path d="m2559 3873c-13-16-12-17 4-4s21 21 13 21c-2 0-10-8-17-17z"/>
<path d="m3145 3850c10-11 20-18 23-15 7 6-18 35-31 35-5 0-2-9 8-20z"/>
<path d="m3105 3830c10-11 20-20 23-20s-3 9-13 20-20 20-23 20 3-9 13-20z"/>
<path d="m2486 3783c-6-14-5-15 5-6 7 7 10 15 7 18s-9-2-12-12z"/>
<path d="m3207 3726c-5-11-3-15 5-10s9-2 5-22c-6-26-5-27 4-8 7 15 8 28 2 39-9 16-11 16-16 1z"/>
<path d="m3183 3600c0-47 2-66 4-42 2 23 2 61 0 85-2 23-4 4-4-43z"/>
<path d="m3232 3602c-1-47-6-81-11-78-5 4-7-4-3-16 3-14 1-19-6-14-8 5-10 2-6-8 18-47 38 41 32 139-4 53-4 50-6-23z"/>
<path d="m2443 3605c0-38 2-53 4-32 2 20 2 52 0 70-2 17-4 1-4-38z"/>
<path d="m3161 3474c0-11 3-14 6-6 3 7 2 16-1 19-3 4-6-2-5-13z"/>
<path d="m3104 3378-19-23 23 19c12 11 22 21 22 23 0 8-8 2-26-19z"/>
<path d="m3034 3308-19-23 23 19c12 11 22 21 22 23 0 8-8 2-26-19z"/>
<path d="m2640 3276c0-2 7-7 16-10 8-3 12-2 9 4-6 10-25 14-25 6z"/>
<path d="m2928 3253c7-3 16-2 19 1 4 3-2 6-13 5-11 0-14-3-6-6z"/>
<path d="m1880 3284c34-7 108-8 103-1-2 4-30 6-61 6-31-1-50-3-42-5z"/>
<path d="m1852 2808c-1-262 1-479 6-481 6-5 6 353-1 788-1 94-4-45-5-307z"/>
<path d="m1825 2800c0-261 1-368 2-238 2 131 2 345 0 475-1 131-2 24-2-237z"/>
<path d="m1903 2323c9-2 25-2 35 0 9 3 1 5-18 5s-27-2-17-5z"/>
<path d="m1293 3123c26-2 68-2 95 0 26 2 4 3-48 3s-74-1-47-3z"/>
<path d="m1277 3093c-4-3-7-11-7-17 0-7 3-7 8 1 4 6 30 13 57 16l50 3-51 2c-28 1-54-1-57-5z"/>
<path d="m1345 2140-60-7 57-1c31-1 60 3 63 8 3 6 5 9 3 8s-30-4-63-8z"/>
<path d="m1854 2107c-3-8-4-52-2-98l3-84 5 98c5 96 4 109-6 84z"/>
<path d="m1823 2045c0-38 2-53 4-32 2 20 2 52 0 70-2 17-4 1-4-38z"/>
<path d="m3624 1895c0-115 2-161 3-102 2 59 2 154 0 210-1 56-3 8-3-108z"/>
<path d="m1698 1793c7-3 16-2 19 1 4 3-2 6-13 5-11 0-14-3-6-6z"/>
<path d="m1778 1773c23-2 59-2 80 0 20 2 1 4-43 4s-61-2-37-4z"/>
<path d="m1270 1757c0-15-27-17-277-20l-278-2 278-3c242-2 278 0 284 13 3 9 3 19-1 22-3 4-6-1-6-10z"/>
<path d="m1710 1756c0-4-7-5-16-2-10 4-13 2-8-6 5-7 0-9-14-6-14 4-20 2-15-5 4-7 0-8-11-4-11 5-15 3-10-5s1-9-12-4-16 4-9-3c10-10 75 6 91 22 12 11 191 8 221-4 75-30 120-57 156-92 22-21 41-36 43-34 3 2-15 22-38 43-24 21-42 42-40 47 1 5-3 5-9 1-7-4-18 1-25 10-7 10-15 17-18 17-21-3-26 0-20 10 4 8-1 9-16 4-14-5-20-3-16 3s-2 8-14 5c-11-3-20-1-20 3 0 5-45 9-100 9s-100-4-100-9z"/>
<path d="m1705 1720c-3-5-17-10-31-10-13 0-24-4-24-10 0-5-6-10-14-10s-37-20-64-45c-52-46-82-93-82-126 0-10-4-21-10-24-6-4-10-163-10-445s-4-441-10-445c-15-9-14 865 1 902 37 90 53 115 99 155 28 25 44 45 36 45s-12-5-9-10c4-6 0-8-9-4-10 3-30-9-54-34-22-22-38-42-36-44 6-13 1-25-9-20-6 4-10 1-8-6 3-27-1-40-11-34-5 3-9-2-8-12 2-32-2-54-9-50-5 3-7-195-5-439l3-444h-425c-366 0-425-2-430-15-3-8-2-14 2-12 13 4 52-30 44-38-4-5-2-5 4-2 7 4 28-11 47-32 20-22 37-37 40-35 3 3 14-7 26-22 11-15 21-23 21-18s7 0 15-10c8-11 15-16 15-12 0 5 7 3 15-4 13-11 14-10 9 4-9 22 12 20 38-4 12-11 34-26 50-32 28-13 37-28 17-28-6 0-23 8-37 18-38 26-61 37-37 17 11-9 19-20 18-25-2-5 4-7 12-4 8 4 17-1 21-10 3-9 10-14 15-11 4 3 13-3 19-14s16-18 24-15c7 3 16-2 19-10 4-9 13-13 22-10 10 4 15 2 13-7s4-13 15-11c9 2 17-2 17-7 0-6 7-7 17-4 11 4 14 3 9-5-4-8-2-10 7-6 8 3 17-2 21-11 3-9 10-14 15-11 13 8 69-13 75-29 3-8 13-11 25-8s21 1 21-5 10-8 23-5c18 4 19 3 7-7-12-9-11-10 8-5 12 3 22 2 22-3 0-6 10-8 23-5 18 4 19 3 7-6-11-8-7-9 19-4 22 4 32 3 28-4-4-6 4-8 20-5s24 1 20-5 4-8 20-5 24 1 20-5 4-8 20-5c15 3 23 1 20-4-3-6 9-8 30-6 20 3 33 0 30-4-3-5 13-8 35-6 22 3 38 0 35-4-3-5 21-7 54-6 32 2 59 0 59-5 0-4 52-8 115-8s115 4 115 8c0 5 27 7 59 5 33-1 57 1 54 6-3 4 13 7 35 4 22-2 38 1 35 6s8 7 25 4c18-3 29 0 25 5-3 6 7 8 25 5 17-2 33 0 35 5 1 5 18 9 37 10s38 6 41 10c4 5 23 9 43 10 25 1 32 4 22 9-9 5-45 0-88-11-140-36-325-61-463-61-174 0-430 43-600 102-105 36-315 136-315 151 0 12 17 8 53-12 82-46 157-81 173-81 8 0 14-4 14-10 0-5 11-10 24-10 14 0 28-4 31-10 3-5 17-10 30-10s27-5 30-10c3-6 19-10 35-10s32-4 35-10c3-5 17-10 31-10s33-4 43-9c9-5 36-11 59-14 23-2 45-6 49-10 3-4 25-7 48-7s45-3 48-6c16-16 295-15 417 1 198 26 200 27 206 36 3 5 21 9 40 9s34 5 34 10c0 6 15 10 34 10s38 5 41 10c3 6 19 10 36 10 16 0 29 5 29 10 0 6 7 10 15 10s23 4 33 9c23 12 100 46 140 63 17 7 32 15 32 19 0 3 16 11 35 19s35 17 35 22c0 4 5 8 11 8 12 0 103 60 107 72 2 4 9 8 16 8 6 0 32 18 56 41 25 22 55 48 68 56 12 8 22 18 22 22 0 3-191 6-425 6-278 0-424 3-422 10 1 6 163 11 455 12 393 1 452 0 441-13-6-8-14-14-18-14-3 0-35-27-70-60s-70-60-77-60-14-4-16-9c-4-11-189-131-201-131-5 0-20-9-33-19-18-14-21-20-10-24 8-3 22 4 31 16s13 15 10 7c-4-10-1-9 8 3 8 10 21 16 28 15 8-2 13 3 11 11s3 11 10 8c8-2 27 8 43 24 16 17 35 27 42 24 8-2 12-1 9 4s5 16 19 25 25 13 25 9 7 2 15 13c8 10 15 15 15 10s10 3 21 18c12 15 23 25 26 22 3-2 20 13 40 35 19 21 40 36 47 32 6-3 8-3 4 2-8 8 31 42 44 38 4-2 5 4 2 12-5 13-69 15-470 15h-464l2 439c2 242-1 437-6 434-4-3-5 5-1 17 5 17 4 21-6 15-9-6-11-2-7 13 4 14 2 20-5 15-7-4-8 0-4 11 5 11 3 15-5 10s-9-2-5 10c5 11 3 15-5 10s-9-1-4 12c5 14 4 16-4 8-7-7-4-24 12-60 23-48 23-57 26-459 3-405 0-481-19-470-5 4-9 183-9 456 0 293-3 449-10 449-5 0-10 11-10 25s-4 25-10 25c-5 0-10 6-10 13 0 34-125 127-171 127-10 0-19 5-19 10 0 6-41 10-104 10-59 0-108-4-111-10zm-135-33c0-2-17-19-37-38l-38-34 34 38c33 34 41 42 41 34zm-140-1102c0-6-135-10-385-10-212 0-385-2-385-4 0-8 73-72 102-89 15-9 28-20 28-24s7-8 15-8 15-4 15-10c0-19-28-10-60 20-18 17-35 30-39 30s-24 17-44 38c-20 20-46 45-59 54-22 16 2 16 394 15 271-1 418-6 418-12z"/>
<path d="m3676 1722c-2-4-4-46-4-92 0-52-5-86-11-88s-11-28-11-57c0-30-4-57-10-60-5-3-10-21-10-40s-4-37-10-40c-5-3-10-17-10-30s-4-27-10-30c-5-3-10-17-10-30s-4-27-10-30c-5-3-10-14-10-24 0-9-31-80-70-156-38-76-70-144-70-151s-8-19-17-26c-21-16-43-52-43-72 0-7-18-30-40-50s-40-42-40-49c0-16-271-287-288-287-7 0-25-13-39-30-13-16-32-30-41-30-10 0-23-9-30-20s-19-20-27-20c-21 0-57-21-73-42-7-10-19-18-26-18s-57-23-111-50-106-50-116-50-21-4-24-10c-3-5-15-10-25-10-11 0-35-9-55-20s-49-20-65-20-32-4-35-10c-3-5-21-10-40-10s-37-4-40-10c-3-5-31-10-61-10s-54-4-54-10c0-5-45-11-102-12-70-2-103-7-106-15-3-10 178-13 882-13h886v865c0 534-4 865-9 865-6 0-12-3-15-8z"/>
<path d="m0 836v-836h876c696 0 875 3 872 13-3 8-34 13-96 15-51 1-92 7-92 12 0 6-24 10-54 10s-58 5-61 10c-3 6-21 10-40 10s-37 5-40 10c-3 6-21 10-40 10s-37 5-40 10c-3 6-17 10-30 10s-27 5-30 10c-3 6-14 10-24 10s-62 22-116 50c-54 27-108 50-121 50s-29 8-36 18c-16 21-52 42-73 42-8 0-20 9-27 20s-20 20-30 20c-9 0-28 13-41 30-14 16-32 30-40 30s-31 18-51 40-41 40-48 40c-17 0-188 171-188 188 0 7-13 25-30 39-16 13-30 31-30 40 0 8-13 26-30 40-16 13-30 32-30 41 0 10-9 23-20 30s-20 18-20 25-31 76-70 152c-38 76-70 144-70 152 0 7-9 28-20 48s-20 44-20 55c0 10-4 22-10 25-5 3-10 21-10 40s-4 37-10 40c-5 3-10 26-10 50s-5 45-10 47c-7 2-12 41-13 92-1 61-6 91-14 94-10 3-13-168-13-832z"/>
<path d="m3613 1620c0-30 2-43 4-27 2 15 2 39 0 55-2 15-4 2-4-28z"/>
<path d="m1445 1609c-4-6-5-12-2-15 2-3 7 2 10 11 7 17 1 20-8 4z"/>
<path d="m243 1583c76-2 198-2 270 0 73 1 11 3-138 3-148 0-208-2-132-3z"/>
<path d="m1425 1569c-4-6-5-12-2-15 2-3 7 2 10 11 7 17 1 20-8 4z"/>
<path d="m405 1540-290-5 287-3c183-1 289 2 293 8 3 6 5 9 3 8-2-2-133-5-293-8z"/>
<path d="m111 1454c0-11 3-14 6-6 3 7 2 16-1 19-3 4-6-2-5-13z"/>
<path d="m131 1384c0-11 3-14 6-6 3 7 2 16-1 19-3 4-6-2-5-13z"/>
<path d="m3561 1344c0-11 3-14 6-6 3 7 2 16-1 19-3 4-6-2-5-13z"/>
<path d="m3249 733c-13-16-12-17 4-4s21 21 13 21c-2 0-10-8-17-17z"/>
<path d="m3204 678-29-33 33 29c30 28 37 36 29 36-2 0-16-15-33-32z"/>
<path d="m2595 251c-16-9-57-27-90-40-106-40-103-39-63-38 21 1 34 5 31 11-4 5 3 7 15 4 14-4 25 0 31 9 5 10 15 14 25 10s19-1 23 9c3 8 12 13 20 10 7-3 16 1 20 9 3 9 10 15 17 14 24-3 37 1 31 11-9 14-25 11-60-9z"/>
</g>
<g transform="translate(0 176) scale(.04 -.04)" fill="#812d00">
<path d="m91 2988c0-733 4-1353 7-1378l7-45h280 280l3 98 3 97h284 284l3 98 3 97 285 3c211 2 286 5 292 15 5 6 7 48 6 92l-3 80 898 3 897 2v1085 1085h-1765-1765l1-1332zm3519 247v-1075h-894c-806 0-894-2-900-16-3-9-6-51-6-95v-79l-287-2-288-3-10-190-265-2c-146-2-273-3-282-3-16 0-18-11-18-95v-95h-274-273l-7 46c-3 26-6 640-6 1365v1319h1755 1755v-1075z"/>
<path d="m2722 4009c-63-12-129-48-188-102-98-89-138-184-132-316 2-72 8-97 35-151 42-87 119-165 202-204 57-27 79-31 164-34 100-4 120 0 207 42 72 34 125 85 168 159 73 127 69 307-8 412-16 22-34 49-40 60s-23 28-38 38c-120 77-139 86-197 96-70 12-111 12-173 0zm159-9c118-22 239-108 290-205 62-118 64-276 5-370-71-112-100-139-194-183-46-22-75-27-150-30-93-4-109-1-201 40-60 27-142 107-174 170-81 159-47 366 76 474 75 65 179 109 268 113 15 1 51-4 80-9z"/>
<path d="m2700 3958c-151-48-269-218-258-371 6-72 37-160 72-200 14-16 26-32 28-35 9-20 99-79 149-97 49-17 71-19 151-14 109 7 169 32 236 99 81 81 116 171 110 281-5 99-43 182-113 248-78 74-131 95-245 98-52 1-111-3-130-9zm229-14c69-24 95-40 142-88 48-48 89-116 89-146 0-11 5-22 10-25 14-8 13-137-1-172-47-117-110-190-199-232-48-23-68-26-155-26-86 1-108 4-155 26-73 34-137 100-172 176-37 81-39 192-6 280 35 95 124 175 233 211 46 16 165 14 214-4z"/>
<path d="m1817 3313c-10-9-8-1006 1-1021 6-9 35-12 108-10l99 3 3 518 2 517h-103c-57 0-107-3-110-7zm203-508v-506l-190 6v495 503c0 4 43 7 95 7h95v-505z"/>
<path d="m1862 3282c-9-7-12-110-10-483l3-474h65 65v480 480l-55 3c-30 1-61-2-68-6zm116-482-3-464h-55-55l-3 466-2 467 52 3c29 2 56 0 61-3 4-3 6-214 5-469z"/>
<path d="m1237 3134c-4-4-7-238-7-521v-513h110 110l-2 518-3 517-101 3c-55 1-103 0-107-4zm203-519v-505h-100-100v505 505h100 100v-505z"/>
<path d="m1277 3094c-4-4-7-220-7-480v-474l23-5c13-4 43-5 68-3l44 3v480 480l-60 3c-34 2-64 0-68-4zm118-479v-468h-55-55l-3 459c-1 253 0 464 2 469 2 6 28 9 57 9l54-2v-467z"/>
<path d="m660 2420v-520h110 110l-2 518-3 517-107 3-108 3v-521zm205 0v-505l-97-3-98-3v504c0 277 3 507 7 511s48 5 98 4l90-3v-505z"/>
<path d="m700 2420v-480h70 70l-2 478-3 477-67 3-68 3v-481zm125 0v-465l-57-3-58-3v464c0 255 3 467 7 471s30 6 58 4l50-3v-465z"/>
<path d="m1857 2113c-4-3-7-46-7-95v-88h-290-290v-95-95h-272c-150 0-278-4-285-8-8-5-13-41-15-97l-3-90-284-3c-297-2-320-6-300-43 5-11 7-24 4-29-12-19 76-284 131-400 60-126 179-310 244-377l41-43h434 434l3 428 3 427 34 73c41 87 95 139 191 185 61 30 72 32 180 32 114 0 117-1 193-38 122-60 162-105 208-229 18-49 19-83 19-465v-413h479 479l30 34c37 42 122 161 122 171 0 4 12 21 26 38 75 89 213 432 229 572 2 17 7 44 10 60 21 116 35 536 19 579-6 14-93 16-883 16-483 0-881-3-884-7zm1753-15c6-342-10-572-53-743-53-209-201-494-339-650l-40-45h-469-469v415c0 287-3 423-11 442-67 163-152 242-311 290-177 52-401-49-492-222l-31-60-3-432-3-433h-429-428l-41 46c-66 76-155 212-214 330-73 146-144 356-150 447l-2 38 580 4 3 98 3 97h284 285v100 100h290 290v88c0 49 3 92 7 95 3 4 397 7 875 7 688 0 868-3 868-12z"/>
<path d="m1685 1756c-76-28-132-64-172-109-28-32-39-51-69-122-5-11-11-218-14-460l-5-440-427-3c-272-1-428-6-428-12 0-5 12-21 27-34 16-13 51-44 80-69 61-53 187-148 229-171 16-9 47-28 69-41 22-14 51-30 65-36s50-22 80-36c107-49 155-65 290-98 223-53 421-67 640-45 135 15 384 73 465 109 11 5 52 23 90 40 39 18 78 37 89 42 70 39 90 51 128 76 57 37 163 117 214 162 22 20 54 48 72 64 18 15 32 32 32 37 0 6-170 11-467 12l-468 3-5 440c-5 432-5 441-28 490-80 174-308 269-487 201zm296-29c84-41 141-96 175-169l29-63 3-442 3-443h464c256 0 465-4 465-8 0-13-157-146-235-199-322-220-632-316-1025-317-195 0-280 9-445 50-227 57-374 123-574 256-87 59-251 196-251 210 0 4 191 8 425 8h425v435c0 420 1 436 21 492 30 78 95 145 183 189 69 34 74 34 176 32 91-3 112-7 161-31z"/>
<path d="m3676 1722c-2-4-4-46-4-92 0-52-5-86-11-88s-11-28-11-57c0-30-4-57-10-60-5-3-10-21-10-40s-4-37-10-40c-5-3-10-17-10-30s-4-27-10-30c-5-3-10-17-10-30s-4-27-10-30c-5-3-10-14-10-24 0-9-31-80-70-156-38-76-70-144-70-151s-8-19-17-26c-21-16-43-52-43-72 0-7-18-30-40-50s-40-42-40-49c0-16-271-287-288-287-7 0-25-13-39-30-13-16-32-30-41-30-10 0-23-9-30-20s-19-20-27-20c-21 0-57-21-73-42-7-10-19-18-26-18s-57-23-111-50-106-50-116-50-21-4-24-10c-3-5-15-10-25-10-11 0-35-9-55-20s-49-20-65-20-32-4-35-10c-3-5-21-10-40-10s-37-4-40-10c-3-5-31-10-61-10s-54-4-54-10c0-5-45-11-102-12-70-2-103-7-106-15-3-10 178-13 882-13h886v865c0 534-4 865-9 865-6 0-12-3-15-8z"/>
<path d="m0 836v-836h876c696 0 875 3 872 13-3 8-34 13-96 15-51 1-92 7-92 12 0 6-24 10-54 10s-58 5-61 10c-3 6-21 10-40 10s-37 5-40 10c-3 6-21 10-40 10s-37 5-40 10c-3 6-17 10-30 10s-27 5-30 10c-3 6-14 10-24 10s-62 22-116 50c-54 27-108 50-121 50s-29 8-36 18c-16 21-52 42-73 42-8 0-20 9-27 20s-20 20-30 20c-9 0-28 13-41 30-14 16-32 30-40 30s-31 18-51 40-41 40-48 40c-17 0-188 171-188 188 0 7-13 25-30 39-16 13-30 31-30 40 0 8-13 26-30 40-16 13-30 32-30 41 0 10-9 23-20 30s-20 18-20 25-31 76-70 152c-38 76-70 144-70 152 0 7-9 28-20 48s-20 44-20 55c0 10-4 22-10 25-5 3-10 21-10 40s-4 37-10 40c-5 3-10 26-10 50s-5 45-10 47c-7 2-12 41-13 92-1 61-6 91-14 94-10 3-13-168-13-832z"/>
</g>
<g transform="translate(0 176) scale(.04 -.04)" fill="#2e1600">
<path d="m2970 3976c0-2 7-7 16-10 8-3 12-2 9 4-6 10-25 14-25 6z"/>
<path d="m2656 3941c-4-5 3-7 14-4 23 6 26 13 6 13-8 0-17-4-20-9z"/>
<path d="m3030 3906c0-2 8-10 18-17 15-13 16-12 3 4s-21 21-21 13z"/>
<path d="m2559 3873c-13-16-12-17 4-4s21 21 13 21c-2 0-10-8-17-17z"/>
<path d="m3105 3830c10-11 20-20 23-20s-3 9-13 20-20 20-23 20 3-9 13-20z"/>
<path d="m2486 3783c-6-14-5-15 5-6 7 7 10 15 7 18s-9-2-12-12z"/>
<path d="m2426 3745c-9-26-7-32 5-12 6 10 9 21 6 23-2 3-7-2-11-11z"/>
<path d="m3183 3600c0-47 2-66 4-42 2 23 2 61 0 85-2 23-4 4-4-43z"/>
<path d="m2443 3605c0-38 2-53 4-32 2 20 2 52 0 70-2 17-4 1-4-38z"/>
<path d="m2401 3609c1-24 5-55 9-69 5-15 6 1 3 40-7 76-13 93-12 29z"/>
<path d="m3161 3474c0-11 3-14 6-6 3 7 2 16-1 19-3 4-6-2-5-13z"/>
<path d="m3104 3378-19-23 23 19c12 11 22 21 22 23 0 8-8 2-26-19z"/>
<path d="m3129 3353c-13-16-12-17 4-4s21 21 13 21c-2 0-10-8-17-17z"/>
<path d="m2520 3326c0-2 8-10 18-17 15-13 16-12 3 4s-21 21-21 13z"/>
<path d="m3034 3308-19-23 23 19c12 11 22 21 22 23 0 8-8 2-26-19z"/>
<path d="m1827 3313c-3-5 25-7 61-5 116 5 130 9 35 10-50 1-94-1-96-5z"/>
<path d="m3069 3293c-13-16-12-17 4-4 9 7 17 15 17 17 0 8-8 3-21-13z"/>
<path d="m1880 3284c34-7 108-8 103-1-2 4-30 6-61 6-31-1-50-3-42-5z"/>
<path d="m1852 2808c-1-262 1-479 6-481 6-5 6 353-1 788-1 94-4-45-5-307z"/>
<path d="m2640 3276c0-2 7-7 16-10 8-3 12-2 9 4-6 10-25 14-25 6z"/>
<path d="m1825 2800c0-261 1-368 2-238 2 131 2 345 0 475-1 131-2 24-2-237z"/>
<path d="m2928 3253c7-3 16-2 19 1 4 3-2 6-13 5-11 0-14-3-6-6z"/>
<path d="m1293 3123c26-2 68-2 95 0 26 2 4 3-48 3s-74-1-47-3z"/>
<path d="m1277 3093c-4-3-7-11-7-17 0-7 3-7 8 1 4 6 30 13 57 16l50 3-51 2c-28 1-54-1-57-5z"/>
<path d="m1903 2323c9-2 25-2 35 0 9 3 1 5-18 5s-27-2-17-5z"/>
<path d="m1829 2297c4-4 50-6 102-5l94 3-102 5c-56 3-99 1-94-3z"/>
<path d="m1345 2140-60-7 57-1c31-1 60 3 63 8 3 6 5 9 3 8s-30-4-63-8z"/>
<path d="m1854 2107c-3-8-4-52-2-98l3-84 5 98c5 96 4 109-6 84z"/>
<path d="m1293 2103c26-2 68-2 95 0 26 2 4 3-48 3s-74-1-47-3z"/>
<path d="m1823 2045c0-38 2-53 4-32 2 20 2 52 0 70-2 17-4 1-4-38z"/>
<path d="m3624 1895c0-115 2-161 3-102 2 59 2 154 0 210-1 56-3 8-3-108z"/>
<path d="m1698 1793c7-3 16-2 19 1 4 3-2 6-13 5-11 0-14-3-6-6z"/>
<path d="m1778 1773c23-2 59-2 80 0 20 2 1 4-43 4s-61-2-37-4z"/>
<path d="m1270 1757c0-15-27-17-277-20l-278-2 278-3c242-2 278 0 284 13 3 9 3 19-1 22-3 4-6-1-6-10z"/>
<path d="m3676 1722c-2-4-4-46-4-92 0-52-5-86-11-88s-11-28-11-57c0-30-4-57-10-60-5-3-10-21-10-40s-4-37-10-40c-5-3-10-17-10-30s-4-27-10-30c-5-3-10-17-10-30s-4-27-10-30c-5-3-10-14-10-24 0-9-31-80-70-156-38-76-70-144-70-151s-8-19-17-26c-21-16-43-52-43-72 0-7-18-30-40-50s-40-42-40-49c0-16-271-287-288-287-7 0-25-13-39-30-13-16-32-30-41-30-10 0-23-9-30-20s-19-20-27-20c-21 0-57-21-73-42-7-10-19-18-26-18s-57-23-111-50-106-50-116-50-21-4-24-10c-3-5-15-10-25-10-11 0-35-9-55-20s-49-20-65-20-32-4-35-10c-3-5-21-10-40-10s-37-4-40-10c-3-5-31-10-61-10s-54-4-54-10c0-5-45-11-102-12-70-2-103-7-106-15-3-10 178-13 882-13h886v865c0 534-4 865-9 865-6 0-12-3-15-8z"/>
<path d="m1525 1658-40-43 43 40c39 36 47 45 39 45-2 0-21-19-42-42z"/>
<path d="m0 836v-836h876c696 0 875 3 872 13-3 8-34 13-96 15-51 1-92 7-92 12 0 6-24 10-54 10s-58 5-61 10c-3 6-21 10-40 10s-37 5-40 10c-3 6-21 10-40 10s-37 5-40 10c-3 6-17 10-30 10s-27 5-30 10c-3 6-14 10-24 10s-62 22-116 50c-54 27-108 50-121 50s-29 8-36 18c-16 21-52 42-73 42-8 0-20 9-27 20s-20 20-30 20c-9 0-28 13-41 30-14 16-32 30-40 30s-31 18-51 40-41 40-48 40c-17 0-188 171-188 188 0 7-13 25-30 39-16 13-30 31-30 40 0 8-13 26-30 40-16 13-30 32-30 41 0 10-9 23-20 30s-20 18-20 25-31 76-70 152c-38 76-70 144-70 152 0 7-9 28-20 48s-20 44-20 55c0 10-4 22-10 25-5 3-10 21-10 40s-4 37-10 40c-5 3-10 26-10 50s-5 45-10 47c-7 2-12 41-13 92-1 61-6 91-14 94-10 3-13-168-13-832z"/>
<path d="m3613 1620c0-30 2-43 4-27 2 15 2 39 0 55-2 15-4 2-4-28z"/>
<path d="m1445 1609c-4-6-5-12-2-15 2-3 7 2 10 11 7 17 1 20-8 4z"/>
<path d="m385 1570-280-5 277-3c176-1 279 2 283 8 3 6 5 9 3 8-2-2-129-5-283-8z"/>
<path d="m1425 1569c-4-6-5-12-2-15 2-3 7 2 10 11 7 17 1 20-8 4z"/>
<path d="m405 1540-290-5 287-3c183-1 289 2 293 8 3 6 5 9 3 8-2-2-133-5-293-8z"/>
<path d="m111 1454c0-11 3-14 6-6 3 7 2 16-1 19-3 4-6-2-5-13z"/>
<path d="m131 1384c0-11 3-14 6-6 3 7 2 16-1 19-3 4-6-2-5-13z"/>
<path d="m3561 1344c0-11 3-14 6-6 3 7 2 16-1 19-3 4-6-2-5-13z"/>
<path d="m3249 733c-13-16-12-17 4-4s21 21 13 21c-2 0-10-8-17-17z"/>
<path d="m3204 678-29-33 33 29c30 28 37 36 29 36-2 0-16-15-33-32z"/>
<path d="m2635 250c-3-6 1-7 9-4 18 7 21 14 7 14-6 0-13-4-16-10z"/>
</g>
<g transform="translate(0 176) scale(.04 -.04)" fill="#070100">
<path d="m0 2200v-2200h1850 1850v2200 2200h-1850-1850v-2200zm3618 1038-3-1083-897-3-897-2-3-93-3-92-287-3-287-2-3-98-3-97-282-3-282-2-3-93-3-92-281-3-281-2-7 61c-8 82-8 2674 1 2682 3 4 798 7 1765 7h1758l-2-1082zm-3-1373c-1-318-12-403-88-630-56-170-191-406-307-538l-42-47-471 2-472 3-10 860-29 62c-37 81-105 145-203 190-72 33-82 35-184 35-103 0-109-1-183-37-49-25-93-56-124-89-44-46-56-66-88-141-5-11-11-213-14-450l-5-430-426-3c-492-3-440-13-532 111-92 123-117 164-177 290-69 143-131 329-145 434l-5 43 292 2 293 3 10 190 285 5 284 5-1 85c0 46 1 90 4 97 4 10 67 13 294 13h289v88c0 49 3 92 7 95 3 4 398 6 877 5l871-3v-250zm-1631-129c69-33 140-95 167-147 48-96 49-99 49-546v-423h464c256 0 467-4 470-9 10-16-236-219-326-270-21-12-53-30-72-40-275-156-541-224-876-225-188 0-282 10-425 45-132 33-220 61-295 97-99 46-127 60-162 80-21 12-55 31-75 43-90 50-323 242-323 266 0 11 79 13 425 13h424l3 443 3 442 27 56c28 58 102 135 158 164 75 39 104 45 205 42 84-3 109-8 159-31z"/>
<path d="m2722 4e3c-71-15-134-51-197-115-86-84-119-164-119-285-1-139 98-292 232-357 52-25 67-27 177-28 112 0 124 2 179 28 142 69 226 203 226 362 0 75-13 126-47 190-42 81-149 170-231 194-59 17-167 22-220 11zm199-45c115-40 185-102 231-202 24-53 28-76 28-147 0-47-5-98-11-113-32-77-42-93-89-141-85-86-163-116-285-110-61 3-93 11-137 32-73 36-145 107-177 176-23 48-26 68-26 155 1 87 4 107 27 155 76 159 281 250 439 195z"/>
<path d="m1825 3308c-3-7-4-238-3-513l3-500 98-3 97-3-2 513-3 513-93 3c-68 2-94-1-97-10zm163-497c1-275-2-468-7-475-5-6-33-11-63-10h-53l-3 478-2 477 62-3 63-3 3-464z"/>
<path d="m1245 3118c-3-7-4-238-3-513l3-500h95 95v510 510l-93 3c-68 2-94-1-97-10zm163-507-3-466h-65-65l-2 457c-1 252 0 464 3 472 7 17 101 26 122 12 9-7 12-109 10-475z"/>
<path d="m670 2420v-510h100 100v510 510h-100-100v-510zm159 466c8-9 10-143 9-477l-3-464h-65-65l-3 465c-1 256 0 471 3 478 6 17 109 16 124-2z"/>
</g>
<g transform="translate(0 176) scale(.04 -.04)">
<path d="m2970 3976c0-2 7-7 16-10 8-3 12-2 9 4-6 10-25 14-25 6z"/>
<path d="m2656 3941c-4-5 3-7 14-4 23 6 26 13 6 13-8 0-17-4-20-9z"/>
<path d="m3030 3906c0-2 8-10 18-17 15-13 16-12 3 4s-21 21-21 13z"/>
<path d="m2559 3873c-13-16-12-17 4-4s21 21 13 21c-2 0-10-8-17-17z"/>
<path d="m3105 3830c10-11 20-20 23-20s-3 9-13 20-20 20-23 20 3-9 13-20z"/>
<path d="m2486 3783c-6-14-5-15 5-6 7 7 10 15 7 18s-9-2-12-12z"/>
<path d="m2426 3745c-9-26-7-32 5-12 6 10 9 21 6 23-2 3-7-2-11-11z"/>
<path d="m3183 3600c0-47 2-66 4-42 2 23 2 61 0 85-2 23-4 4-4-43z"/>
<path d="m2443 3605c0-38 2-53 4-32 2 20 2 52 0 70-2 17-4 1-4-38z"/>
<path d="m2401 3609c1-24 5-55 9-69 5-15 6 1 3 40-7 76-13 93-12 29z"/>
<path d="m3161 3474c0-11 3-14 6-6 3 7 2 16-1 19-3 4-6-2-5-13z"/>
<path d="m3104 3378-19-23 23 19c12 11 22 21 22 23 0 8-8 2-26-19z"/>
<path d="m3129 3353c-13-16-12-17 4-4s21 21 13 21c-2 0-10-8-17-17z"/>
<path d="m2520 3326c0-2 8-10 18-17 15-13 16-12 3 4s-21 21-21 13z"/>
<path d="m3034 3308-19-23 23 19c12 11 22 21 22 23 0 8-8 2-26-19z"/>
<path d="m1827 3313c-3-5 25-7 61-5 116 5 130 9 35 10-50 1-94-1-96-5z"/>
<path d="m3069 3293c-13-16-12-17 4-4 9 7 17 15 17 17 0 8-8 3-21-13z"/>
<path d="m1880 3284c34-7 108-8 103-1-2 4-30 6-61 6-31-1-50-3-42-5z"/>
<path d="m1852 2808c-1-262 1-479 6-481 6-5 6 353-1 788-1 94-4-45-5-307z"/>
<path d="m2640 3276c0-2 7-7 16-10 8-3 12-2 9 4-6 10-25 14-25 6z"/>
<path d="m1825 2800c0-261 1-368 2-238 2 131 2 345 0 475-1 131-2 24-2-237z"/>
<path d="m2928 3253c7-3 16-2 19 1 4 3-2 6-13 5-11 0-14-3-6-6z"/>
<path d="m1293 3123c26-2 68-2 95 0 26 2 4 3-48 3s-74-1-47-3z"/>
<path d="m1277 3093c-4-3-7-11-7-17 0-7 3-7 8 1 4 6 30 13 57 16l50 3-51 2c-28 1-54-1-57-5z"/>
<path d="m1903 2323c9-2 25-2 35 0 9 3 1 5-18 5s-27-2-17-5z"/>
<path d="m1829 2297c4-4 50-6 102-5l94 3-102 5c-56 3-99 1-94-3z"/>
<path d="m1345 2140-60-7 57-1c31-1 60 3 63 8 3 6 5 9 3 8s-30-4-63-8z"/>
<path d="m1854 2107c-3-8-4-52-2-98l3-84 5 98c5 96 4 109-6 84z"/>
<path d="m1293 2103c26-2 68-2 95 0 26 2 4 3-48 3s-74-1-47-3z"/>
<path d="m1823 2045c0-38 2-53 4-32 2 20 2 52 0 70-2 17-4 1-4-38z"/>
<path d="m3624 1895c0-115 2-161 3-102 2 59 2 154 0 210-1 56-3 8-3-108z"/>
<path d="m1698 1793c7-3 16-2 19 1 4 3-2 6-13 5-11 0-14-3-6-6z"/>
<path d="m1778 1773c23-2 59-2 80 0 20 2 1 4-43 4s-61-2-37-4z"/>
<path d="m1270 1757c0-15-27-17-277-20l-278-2 278-3c242-2 278 0 284 13 3 9 3 19-1 22-3 4-6-1-6-10z"/>
<path d="m3676 1722c-2-4-4-46-4-92 0-52-5-86-11-88s-11-28-11-57c0-30-4-57-10-60-5-3-10-21-10-40s-4-37-10-40c-5-3-10-17-10-30s-4-27-10-30c-5-3-10-17-10-30s-4-27-10-30c-5-3-10-14-10-24 0-9-31-80-70-156-38-76-70-144-70-151s-8-19-17-26c-21-16-43-52-43-72 0-7-18-30-40-50s-40-42-40-49c0-16-271-287-288-287-7 0-25-13-39-30-13-16-32-30-41-30-10 0-23-9-30-20s-19-20-27-20c-21 0-57-21-73-42-7-10-19-18-26-18s-57-23-111-50-106-50-116-50-21-4-24-10c-3-5-15-10-25-10-11 0-35-9-55-20s-49-20-65-20-32-4-35-10c-3-5-21-10-40-10s-37-4-40-10c-3-5-31-10-61-10s-54-4-54-10c0-5-45-11-102-12-70-2-103-7-106-15-3-10 178-13 882-13h886v865c0 534-4 865-9 865-6 0-12-3-15-8z"/>
<path d="m1525 1658-40-43 43 40c39 36 47 45 39 45-2 0-21-19-42-42z"/>
<path d="m0 836v-836h876c696 0 875 3 872 13-3 8-34 13-96 15-51 1-92 7-92 12 0 6-24 10-54 10s-58 5-61 10c-3 6-21 10-40 10s-37 5-40 10c-3 6-21 10-40 10s-37 5-40 10c-3 6-17 10-30 10s-27 5-30 10c-3 6-14 10-24 10s-62 22-116 50c-54 27-108 50-121 50s-29 8-36 18c-16 21-52 42-73 42-8 0-20 9-27 20s-20 20-30 20c-9 0-28 13-41 30-14 16-32 30-40 30s-31 18-51 40-41 40-48 40c-17 0-188 171-188 188 0 7-13 25-30 39-16 13-30 31-30 40 0 8-13 26-30 40-16 13-30 32-30 41 0 10-9 23-20 30s-20 18-20 25-31 76-70 152c-38 76-70 144-70 152 0 7-9 28-20 48s-20 44-20 55c0 10-4 22-10 25-5 3-10 21-10 40s-4 37-10 40c-5 3-10 26-10 50s-5 45-10 47c-7 2-12 41-13 92-1 61-6 91-14 94-10 3-13-168-13-832z"/>
<path d="m3613 1620c0-30 2-43 4-27 2 15 2 39 0 55-2 15-4 2-4-28z"/>
<path d="m1445 1609c-4-6-5-12-2-15 2-3 7 2 10 11 7 17 1 20-8 4z"/>
<path d="m385 1570-280-5 277-3c176-1 279 2 283 8 3 6 5 9 3 8-2-2-129-5-283-8z"/>
<path d="m1425 1569c-4-6-5-12-2-15 2-3 7 2 10 11 7 17 1 20-8 4z"/>
<path d="m405 1540-290-5 287-3c183-1 289 2 293 8 3 6 5 9 3 8-2-2-133-5-293-8z"/>
<path d="m111 1454c0-11 3-14 6-6 3 7 2 16-1 19-3 4-6-2-5-13z"/>
<path d="m131 1384c0-11 3-14 6-6 3 7 2 16-1 19-3 4-6-2-5-13z"/>
<path d="m3561 1344c0-11 3-14 6-6 3 7 2 16-1 19-3 4-6-2-5-13z"/>
<path d="m3249 733c-13-16-12-17 4-4s21 21 13 21c-2 0-10-8-17-17z"/>
<path d="m3204 678-29-33 33 29c30 28 37 36 29 36-2 0-16-15-33-32z"/>
<path d="m2635 250c-3-6 1-7 9-4 18 7 21 14 7 14-6 0-13-4-16-10z"/>
<path d="m2970 3976c0-2 7-7 16-10 8-3 12-2 9 4-6 10-25 14-25 6z"/>
<path d="m2656 3941c-4-5 3-7 14-4 23 6 26 13 6 13-8 0-17-4-20-9z"/>
<path d="m3030 3906c0-2 8-10 18-17 15-13 16-12 3 4s-21 21-21 13z"/>
<path d="m2559 3873c-13-16-12-17 4-4s21 21 13 21c-2 0-10-8-17-17z"/>
<path d="m3105 3830c10-11 20-20 23-20s-3 9-13 20-20 20-23 20 3-9 13-20z"/>
<path d="m2486 3783c-6-14-5-15 5-6 7 7 10 15 7 18s-9-2-12-12z"/>
<path d="m2426 3745c-9-26-7-32 5-12 6 10 9 21 6 23-2 3-7-2-11-11z"/>
<path d="m3183 3600c0-47 2-66 4-42 2 23 2 61 0 85-2 23-4 4-4-43z"/>
<path d="m2443 3605c0-38 2-53 4-32 2 20 2 52 0 70-2 17-4 1-4-38z"/>
<path d="m2401 3609c1-24 5-55 9-69 5-15 6 1 3 40-7 76-13 93-12 29z"/>
<path d="m3161 3474c0-11 3-14 6-6 3 7 2 16-1 19-3 4-6-2-5-13z"/>
<path d="m3104 3378-19-23 23 19c12 11 22 21 22 23 0 8-8 2-26-19z"/>
<path d="m3129 3353c-13-16-12-17 4-4s21 21 13 21c-2 0-10-8-17-17z"/>
<path d="m2520 3326c0-2 8-10 18-17 15-13 16-12 3 4s-21 21-21 13z"/>
<path d="m3034 3308-19-23 23 19c12 11 22 21 22 23 0 8-8 2-26-19z"/>
<path d="m1827 3313c-3-5 25-7 61-5 116 5 130 9 35 10-50 1-94-1-96-5z"/>
<path d="m3069 3293c-13-16-12-17 4-4 9 7 17 15 17 17 0 8-8 3-21-13z"/>
<path d="m1880 3284c34-7 108-8 103-1-2 4-30 6-61 6-31-1-50-3-42-5z"/>
<path d="m1852 2808c-1-262 1-479 6-481 6-5 6 353-1 788-1 94-4-45-5-307z"/>
<path d="m2640 3276c0-2 7-7 16-10 8-3 12-2 9 4-6 10-25 14-25 6z"/>
<path d="m1825 2800c0-261 1-368 2-238 2 131 2 345 0 475-1 131-2 24-2-237z"/>
<path d="m2928 3253c7-3 16-2 19 1 4 3-2 6-13 5-11 0-14-3-6-6z"/>
<path d="m1293 3123c26-2 68-2 95 0 26 2 4 3-48 3s-74-1-47-3z"/>
<path d="m1277 3093c-4-3-7-11-7-17 0-7 3-7 8 1 4 6 30 13 57 16l50 3-51 2c-28 1-54-1-57-5z"/>
<path d="m1903 2323c9-2 25-2 35 0 9 3 1 5-18 5s-27-2-17-5z"/>
<path d="m1829 2297c4-4 50-6 102-5l94 3-102 5c-56 3-99 1-94-3z"/>
<path d="m1345 2140-60-7 57-1c31-1 60 3 63 8 3 6 5 9 3 8s-30-4-63-8z"/>
<path d="m1854 2107c-3-8-4-52-2-98l3-84 5 98c5 96 4 109-6 84z"/>
<path d="m1293 2103c26-2 68-2 95 0 26 2 4 3-48 3s-74-1-47-3z"/>
<path d="m1823 2045c0-38 2-53 4-32 2 20 2 52 0 70-2 17-4 1-4-38z"/>
<path d="m3624 1895c0-115 2-161 3-102 2 59 2 154 0 210-1 56-3 8-3-108z"/>
<path d="m1698 1793c7-3 16-2 19 1 4 3-2 6-13 5-11 0-14-3-6-6z"/>
<path d="m1778 1773c23-2 59-2 80 0 20 2 1 4-43 4s-61-2-37-4z"/>
<path d="m1270 1757c0-15-27-17-277-20l-278-2 278-3c242-2 278 0 284 13 3 9 3 19-1 22-3 4-6-1-6-10z"/>
<path d="m3676 1722c-2-4-4-46-4-92 0-52-5-86-11-88s-11-28-11-57c0-30-4-57-10-60-5-3-10-21-10-40s-4-37-10-40c-5-3-10-17-10-30s-4-27-10-30c-5-3-10-17-10-30s-4-27-10-30c-5-3-10-14-10-24 0-9-31-80-70-156-38-76-70-144-70-151s-8-19-17-26c-21-16-43-52-43-72 0-7-18-30-40-50s-40-42-40-49c0-16-271-287-288-287-7 0-25-13-39-30-13-16-32-30-41-30-10 0-23-9-30-20s-19-20-27-20c-21 0-57-21-73-42-7-10-19-18-26-18s-57-23-111-50-106-50-116-50-21-4-24-10c-3-5-15-10-25-10-11 0-35-9-55-20s-49-20-65-20-32-4-35-10c-3-5-21-10-40-10s-37-4-40-10c-3-5-31-10-61-10s-54-4-54-10c0-5-45-11-102-12-70-2-103-7-106-15-3-10 178-13 882-13h886v865c0 534-4 865-9 865-6 0-12-3-15-8z"/>
<path d="m1525 1658-40-43 43 40c39 36 47 45 39 45-2 0-21-19-42-42z"/>
<path d="m0 836v-836h876c696 0 875 3 872 13-3 8-34 13-96 15-51 1-92 7-92 12 0 6-24 10-54 10s-58 5-61 10c-3 6-21 10-40 10s-37 5-40 10c-3 6-21 10-40 10s-37 5-40 10c-3 6-17 10-30 10s-27 5-30 10c-3 6-14 10-24 10s-62 22-116 50c-54 27-108 50-121 50s-29 8-36 18c-16 21-52 42-73 42-8 0-20 9-27 20s-20 20-30 20c-9 0-28 13-41 30-14 16-32 30-40 30s-31 18-51 40-41 40-48 40c-17 0-188 171-188 188 0 7-13 25-30 39-16 13-30 31-30 40 0 8-13 26-30 40-16 13-30 32-30 41 0 10-9 23-20 30s-20 18-20 25-31 76-70 152c-38 76-70 144-70 152 0 7-9 28-20 48s-20 44-20 55c0 10-4 22-10 25-5 3-10 21-10 40s-4 37-10 40c-5 3-10 26-10 50s-5 45-10 47c-7 2-12 41-13 92-1 61-6 91-14 94-10 3-13-168-13-832z"/>
<path d="m3613 1620c0-30 2-43 4-27 2 15 2 39 0 55-2 15-4 2-4-28z"/>
<path d="m1445 1609c-4-6-5-12-2-15 2-3 7 2 10 11 7 17 1 20-8 4z"/>
<path d="m385 1570-280-5 277-3c176-1 279 2 283 8 3 6 5 9 3 8-2-2-129-5-283-8z"/>
<path d="m1425 1569c-4-6-5-12-2-15 2-3 7 2 10 11 7 17 1 20-8 4z"/>
<path d="m405 1540-290-5 287-3c183-1 289 2 293 8 3 6 5 9 3 8-2-2-133-5-293-8z"/>
<path d="m111 1454c0-11 3-14 6-6 3 7 2 16-1 19-3 4-6-2-5-13z"/>
<path d="m131 1384c0-11 3-14 6-6 3 7 2 16-1 19-3 4-6-2-5-13z"/>
<path d="m3561 1344c0-11 3-14 6-6 3 7 2 16-1 19-3 4-6-2-5-13z"/>
<path d="m3249 733c-13-16-12-17 4-4s21 21 13 21c-2 0-10-8-17-17z"/>
<path d="m3204 678-29-33 33 29c30 28 37 36 29 36-2 0-16-15-33-32z"/>
<path d="m2635 250c-3-6 1-7 9-4 18 7 21 14 7 14-6 0-13-4-16-10z"/>
</g>
</g>
</svg>
