<?xml version="1.0" encoding="UTF-8" standalone="no"?>
<svg
   xmlns:dc="http://purl.org/dc/elements/1.1/"
   xmlns:cc="http://creativecommons.org/ns#"
   xmlns:rdf="http://www.w3.org/1999/02/22-rdf-syntax-ns#"
   xmlns:svg="http://www.w3.org/2000/svg"
   xmlns="http://www.w3.org/2000/svg"
   xmlns:xlink="http://www.w3.org/1999/xlink"
   xmlns:sodipodi="http://sodipodi.sourceforge.net/DTD/sodipodi-0.dtd"
   xmlns:inkscape="http://www.inkscape.org/namespaces/inkscape"
   height="763"
   width="603"
   version="1.0"
   id="svg20"
   sodipodi:version="0.32"
   inkscape:version="0.46"
   sodipodi:docname="Ascona-coat_of_arms.svg"
   sodipodi:docbase="C:\Documents and Settings\Steve\Bureau\Blason Villages Suisse pour Wikipédia (par Delta-9)"
   inkscape:output_extension="org.inkscape.output.svg.inkscape">
  <metadata
     id="metadata31">
    <rdf:RDF>
      <cc:Work
         rdf:about="">
        <dc:format>image/svg+xml</dc:format>
        <dc:type
           rdf:resource="http://purl.org/dc/dcmitype/StillImage" />
        <dc:date>07-AUG-2006</dc:date>
        <dc:creator>
          <cc:Agent>
            <dc:title>Jérôme BLUM (wagner51)</dc:title>
          </cc:Agent>
        </dc:creator>
        <cc:license
           rdf:resource="http://creativecommons.org/licenses/GPL/2.0/" />
        <dc:coverage />
        <dc:description>Gabarit pour le Projet:Blasons de WIkipédia</dc:description>
        <dc:subject>
          <rdf:Bag>
            <rdf:li>blason suisse modèle gabarit projet blasons</rdf:li>
          </rdf:Bag>
        </dc:subject>
        <dc:language>fr</dc:language>
        <dc:title>Gabrit d'un blason suisse</dc:title>
      </cc:Work>
      <cc:License
         rdf:about="http://creativecommons.org/licenses/GPL/2.0/">
        <cc:permits
           rdf:resource="http://web.resource.org/cc/Reproduction" />
        <cc:permits
           rdf:resource="http://web.resource.org/cc/Distribution" />
        <cc:requires
           rdf:resource="http://web.resource.org/cc/Notice" />
        <cc:permits
           rdf:resource="http://web.resource.org/cc/DerivativeWorks" />
        <cc:requires
           rdf:resource="http://web.resource.org/cc/ShareAlike" />
        <cc:requires
           rdf:resource="http://web.resource.org/cc/SourceCode" />
      </cc:License>
    </rdf:RDF>
  </metadata>
  <defs
     id="defs29"><inkscape:perspective
   sodipodi:type="inkscape:persp3d"
   inkscape:vp_x="0 : 381.5 : 1"
   inkscape:vp_y="0 : 1000 : 0"
   inkscape:vp_z="603 : 381.5 : 1"
   inkscape:persp3d-origin="301.5 : 254.33333 : 1"
   id="perspective28" />
<linearGradient
   id="linearGradient2893">
  <stop
     style="stop-color:#ffffff;stop-opacity:0.3137255;"
     offset="0"
     id="stop2895" />
  <stop
     id="stop2897"
     offset="0.19"
     style="stop-color:#ffffff;stop-opacity:0.25098041;" />
  <stop
     style="stop-color:#6b6b6b;stop-opacity:0.1254902;"
     offset="0.60000002"
     id="stop2901" />
  <stop
     style="stop-color:#000000;stop-opacity:0.1254902;"
     offset="1"
     id="stop2899" />
</linearGradient>
<linearGradient
   id="linearGradient2955">
  <stop
     style="stop-color:white;stop-opacity:0;"
     offset="0"
     id="stop2965" />
  <stop
     style="stop-color:black;stop-opacity:0.64583331;"
     offset="1"
     id="stop2959" />
</linearGradient>
<radialGradient
   inkscape:collect="always"
   xlink:href="#linearGradient2893"
   id="radialGradient3236"
   gradientUnits="userSpaceOnUse"
   gradientTransform="matrix(1.215027,1.531577e-24,1.464684e-23,1.266667,-839.1924,-490.4894)"
   cx="858.04236"
   cy="579.93323"
   fx="858.04236"
   fy="579.93323"
   r="300" />
<inkscape:perspective
   id="perspective2667"
   inkscape:persp3d-origin="306 : 264 : 1"
   inkscape:vp_z="612 : 396 : 1"
   inkscape:vp_y="0 : 1000 : 0"
   inkscape:vp_x="0 : 396 : 1"
   sodipodi:type="inkscape:persp3d" />

	
	

	

		
		
		
		
		
		
		
		
		
		
		
			
		
			
		
			
		
			
		
			
		
			
		
			
		
			
		
		
			
	
		
		
		
	
			
			
			
			
			
			
			
			
		
			
			
			
			
				
			
			
			
			
			
				
		
			
			
			
			
				
			
			
			
			
			
				
		</defs>
  <sodipodi:namedview
     inkscape:window-height="813"
     inkscape:window-width="1105"
     inkscape:pageshadow="2"
     inkscape:pageopacity="0.0"
     guidetolerance="10.0"
     gridtolerance="10.0"
     objecttolerance="10.0"
     borderopacity="1.0"
     bordercolor="#666666"
     pagecolor="#ffffff"
     id="base"
     inkscape:zoom="0.63313689"
     inkscape:cx="217.85727"
     inkscape:cy="381.5"
     inkscape:window-x="1348"
     inkscape:window-y="104"
     inkscape:current-layer="layer2"
     showgrid="false"
     showguides="true"
     inkscape:guide-bbox="true">
    <sodipodi:guide
       orientation="horizontal"
       position="761.5"
       id="guide1885" />
    <sodipodi:guide
       orientation="vertical"
       position="1.5"
       id="guide1887" />
    <sodipodi:guide
       orientation="horizontal"
       position="1.5"
       id="guide1889" />
    <sodipodi:guide
       orientation="vertical"
       position="601.5"
       id="guide1891" />
    <sodipodi:guide
       orientation="vertical"
       position="301.50081"
       id="guide1893" />
  </sodipodi:namedview>
  <desc
     id="desc22">Coat of Arms of Canton of Freiburg (Fribourg)</desc>
  <g
     inkscape:groupmode="layer"
     id="layer1"
     inkscape:label="Fond écu"
     style="opacity:1"
     sodipodi:insensitive="true">
    <path
       id="path1899"
       d="M 1.5,1.49998 L 1.5,460.3679 C 1.5,626.6785 135.81456,761.5 301.49999,761.5 C 467.18543,761.5 601.5,626.6785 601.5,460.3679 L 601.5,1.49998 L 1.5,1.49998 z"
       style="fill:#2b5df2;fill-opacity:1" />
  </g>
  <g
     inkscape:groupmode="layer"
     id="layer2"
     inkscape:label="Meubles"
     style="opacity:1;display:inline"
     sodipodi:insensitive="true">
    <g
       id="g3679">
      <path
         style="fill:#ffffff;stroke:#000000;stroke-width:3;stroke-linecap:round;stroke-linejoin:round"
         d="M 73.634,271.405 L 66.168,263.939 L 90.26,239.849 L 107.826,257.414 L 114.35,250.89 L 100.799,237.338 C 100.799,237.338 96.632,233.476 99.922,230.186 C 103.211,226.897 107.073,231.064 107.073,231.064 L 131.164,255.155 L 138.693,247.627 L 110.587,219.521 L 124.13,205.978 L 165.034,246.882 L 137.689,274.228 L 120.875,257.414 L 114.35,263.939 L 131.164,280.752 L 116.86,295.056 L 125.392,303.589 L 139.697,289.285 L 156.51,306.098 L 163.034,299.573 L 146.22,282.759 L 173.566,255.414 L 214.47,296.318 L 200.927,309.862 L 172.821,281.756 L 165.293,289.285 L 189.384,313.375 C 189.384,313.375 193.551,317.237 190.263,320.526 C 186.973,323.816 183.11,319.649 183.11,319.649 L 169.559,306.098 L 163.034,312.623 L 180.6,330.189 L 156.51,354.28 L 149.044,346.814 L 164.101,331.757 L 156.636,324.292 L 141.578,339.349 L 134.112,331.883 L 149.17,316.826 L 141.705,309.361 L 126.648,324.418 L 96.032,293.802 L 111.09,278.745 L 103.623,271.279 L 88.567,286.336 L 81.101,278.871 L 96.157,263.813 L 88.692,256.348 L 73.634,271.405 z"
         id="path2564" />
      <path
         style="fill:#ffffff;stroke:#000000;stroke-width:3;stroke-linecap:round;stroke-linejoin:round"
         d="M 406.335,446.999 C 407.514,448.179 407.514,450.087 406.335,451.266 L 390.012,467.589 C 388.832,468.769 386.923,468.771 385.741,467.589 L 101.225,183.073 C 100.046,181.895 100.047,179.984 101.225,178.806 L 117.55,162.481 C 118.729,161.303 120.639,161.303 121.817,162.481 L 406.335,446.999 z"
         id="path2566" />
      <path
         style="fill:#ffffff;stroke:#000000;stroke-width:3;stroke-linecap:round;stroke-linejoin:round"
         d="M 369.837,535.57 C 387.653,553.387 426.61,566.753 455.862,565.482 C 483.874,564.266 488.927,554.878 491.275,552.53 C 493.622,550.182 503.012,545.129 504.228,517.116 C 505.499,487.865 492.133,448.908 474.316,431.092 C 462.083,418.858 431.473,403.041 412.457,422.059 C 394.32,440.196 400.69,449.383 394.409,455.664 C 388.128,461.945 378.939,455.574 360.805,473.71 C 341.786,492.728 357.604,523.337 369.837,535.57 z M 386.812,518.972 C 375.519,507.679 371.853,492.275 380.541,483.587 C 389.229,474.9 411.435,478.792 414.487,475.74 C 417.538,472.688 413.644,450.482 422.333,441.794 C 431.021,433.108 446.425,436.773 457.718,448.066 C 460.731,451.078 470.915,459.963 477.883,493.587 C 482.065,513.771 479.78,534.458 476.493,537.746 C 473.206,541.033 452.517,543.318 432.335,539.135 C 398.709,532.168 389.824,521.983 386.812,518.972 z"
         id="path2568" />
      <circle
         style="fill:#ffffff;stroke:#000000;stroke-width:3;stroke-linecap:round;stroke-linejoin:round"
         sodipodi:ry="15.26"
         sodipodi:rx="15.26"
         sodipodi:cy="544.75"
         sodipodi:cx="483.496"
         cx="483.496"
         cy="544.75"
         r="15.26"
         id="circle2570" />
      <path
         style="fill:#ffffff;stroke:#000000;stroke-width:3;stroke-linecap:round;stroke-linejoin:round"
         d="M 395.161,435.822 C 396.577,434.404 395.799,431.326 393.419,428.947 C 391.04,426.567 387.963,425.788 386.543,427.205 L 365.951,447.796 C 364.532,449.215 365.312,452.294 367.692,454.675 C 370.071,457.055 373.15,457.834 374.57,456.414 L 395.161,435.822 z"
         id="path2572" />
      <path
         style="fill:none;stroke:#000000;stroke-width:3;stroke-linecap:round;stroke-linejoin:round"
         d="M 138.671,179.334 L 118.079,199.926"
         id="path2574" />
      <path
         style="fill:none;stroke:#000000;stroke-width:3;stroke-linecap:round;stroke-linejoin:round"
         d="M 127.148,167.811 L 106.556,188.403"
         id="path2576" />
      <path
         style="fill:none;stroke:#000000;stroke-width:3;stroke-linecap:round;stroke-linejoin:round"
         d="M 126.697,208.543 L 147.289,187.951"
         id="path2578" />
      <circle
         style="fill:#ffffff;stroke:#000000;stroke-width:3;stroke-linecap:round;stroke-linejoin:round"
         sodipodi:ry="23.246"
         sodipodi:rx="23.246"
         sodipodi:cy="155.681"
         sodipodi:cx="94.427002"
         cx="94.427002"
         cy="155.681"
         r="23.246"
         id="circle2580" />
      <path
         style="fill:#ffffff;stroke:#000000;stroke-width:3;stroke-linecap:round;stroke-linejoin:round"
         d="M 528.7,271.405 L 536.166,263.939 L 512.074,239.849 L 494.509,257.414 L 487.985,250.89 L 501.536,237.338 C 501.536,237.338 505.703,233.476 502.413,230.186 C 499.125,226.897 495.263,231.064 495.263,231.064 L 471.172,255.155 L 463.643,247.627 L 491.749,219.521 L 478.205,205.978 L 437.302,246.882 L 464.646,274.228 L 481.46,257.414 L 487.985,263.939 L 471.172,280.752 L 485.476,295.056 L 476.944,303.589 L 462.639,289.285 L 445.826,306.098 L 439.302,299.573 L 456.115,282.759 L 428.769,255.414 L 387.865,296.318 L 401.408,309.862 L 429.514,281.756 L 437.043,289.285 L 412.95,313.375 C 412.95,313.375 408.783,317.237 412.072,320.526 C 415.362,323.816 419.224,319.649 419.224,319.649 L 432.775,306.098 L 439.3,312.623 L 421.734,330.189 L 445.825,354.28 L 453.292,346.814 L 438.234,331.757 L 445.699,324.292 L 460.757,339.349 L 468.223,331.883 L 453.165,316.826 L 460.631,309.361 L 475.689,324.418 L 506.304,293.802 L 491.247,278.745 L 498.713,271.279 L 513.77,286.336 L 521.237,278.871 L 506.18,263.813 L 513.645,256.348 L 528.7,271.405 z"
         id="path2584" />
      <path
         style="fill:#ffffff;stroke:#000000;stroke-width:3;stroke-linecap:round;stroke-linejoin:round"
         d="M 195.998,446.999 C 194.819,448.179 194.82,450.087 195.998,451.266 L 212.322,467.589 C 213.501,468.769 215.412,468.771 216.592,467.589 L 501.109,183.073 C 502.289,181.895 502.288,179.984 501.109,178.806 L 484.785,162.481 C 483.606,161.303 481.696,161.303 480.518,162.481 L 195.998,446.999 z"
         id="path2586" />
      <path
         style="fill:#ffffff;stroke:#000000;stroke-width:3;stroke-linecap:round;stroke-linejoin:round"
         d="M 241.53,473.71 C 223.393,455.574 214.206,461.945 207.925,455.664 C 201.644,449.383 208.014,440.195 189.877,422.059 C 170.86,403.041 140.252,418.858 128.018,431.092 C 110.201,448.908 96.836,487.865 98.106,517.116 C 99.322,545.129 108.711,550.182 111.058,552.53 C 113.406,554.878 118.459,564.266 146.471,565.482 C 175.723,566.753 214.68,553.387 232.498,535.57 C 244.731,523.337 260.547,492.728 241.53,473.71 z M 170,539.136 C 149.817,543.32 129.128,541.034 125.842,537.747 C 122.554,534.459 120.27,513.771 124.452,493.588 C 131.42,459.964 141.605,451.078 144.617,448.067 C 155.909,436.774 171.314,433.109 180.002,441.795 C 188.689,450.483 184.797,472.69 187.849,475.741 C 190.901,478.792 213.107,474.901 221.794,483.588 C 230.482,492.276 226.815,507.68 215.523,518.973 C 212.51,521.983 203.625,532.168 170,539.136 z"
         id="path2588" />
      <circle
         style="fill:#ffffff;stroke:#000000;stroke-width:3;stroke-linecap:round;stroke-linejoin:round"
         sodipodi:ry="15.26"
         sodipodi:rx="15.26"
         sodipodi:cy="544.75"
         sodipodi:cx="118.838"
         cx="118.838"
         cy="544.75"
         r="15.26"
         id="circle2590" />
      <path
         style="fill:#ffffff;stroke:#000000;stroke-width:3;stroke-linecap:round;stroke-linejoin:round"
         d="M 207.172,435.822 C 205.756,434.404 206.534,431.326 208.914,428.947 C 211.294,426.567 214.371,425.788 215.791,427.205 L 236.382,447.796 C 237.8,449.215 237.021,452.294 234.641,454.675 C 232.261,457.055 229.183,457.834 227.764,456.414 L 207.172,435.822 z"
         id="path2592" />
      <path
         style="fill:none;stroke:#000000;stroke-width:3;stroke-linecap:round;stroke-linejoin:round"
         d="M 463.662,179.334 L 484.254,199.926"
         id="path2594" />
      <path
         style="fill:none;stroke:#000000;stroke-width:3;stroke-linecap:round;stroke-linejoin:round"
         d="M 475.186,167.811 L 495.779,188.403"
         id="path2596" />
      <path
         style="fill:none;stroke:#000000;stroke-width:3;stroke-linecap:round;stroke-linejoin:round"
         d="M 475.637,208.543 L 455.046,187.951"
         id="path2598" />
      <circle
         style="fill:#ffffff;stroke:#000000;stroke-width:3;stroke-linecap:round;stroke-linejoin:round"
         sodipodi:ry="23.247"
         sodipodi:rx="23.247"
         sodipodi:cy="155.681"
         sodipodi:cx="507.90701"
         cx="507.90701"
         cy="155.681"
         r="23.247"
         id="circle2600" />
      <path
         style="fill:#ffffff;stroke:#000000;stroke-width:3;stroke-linecap:round;stroke-linejoin:round"
         d="M 301.167,633.422 C 298.092,633.422 280.316,633.71 267.513,626.121 C 270.948,635.714 275.309,641.502 282.898,644.522 C 287.58,646.385 293.489,647.196 301.167,647.196 C 308.845,647.196 314.754,646.385 319.437,644.522 C 327.026,641.501 331.386,635.713 334.822,626.121 C 322.017,633.71 304.242,633.422 301.167,633.422 z"
         id="path2604" />
      <path
         style="fill:#ffffff;stroke:#000000;stroke-width:3;stroke-linecap:round;stroke-linejoin:round"
         d="M 301.167,596.957 C 296.266,596.957 278.688,597.547 258.938,590.816 C 260.557,598.533 261.952,605.295 263.329,611.197 L 263.329,611.199 C 277.542,614.548 291.192,615.699 301.166,615.699 C 311.14,615.699 324.79,614.548 339.003,611.199 L 339.003,611.197 C 340.381,605.296 341.775,598.533 343.395,590.816 C 323.646,597.547 306.068,596.957 301.167,596.957 z"
         id="path2606" />
      <path
         style="fill:#ffffff;stroke:#000000;stroke-width:3;stroke-linecap:round;stroke-linejoin:round"
         d="M 248.787,606.989 C 246.282,602.877 243.958,598.123 241.899,592.631 C 240.18,588.049 238.633,583.681 237.192,579.546 C 211.827,560.245 193.988,522.717 193.988,522.717 C 179.614,529.461 174.687,538.108 174.687,538.108 C 174.687,538.108 199.669,577.498 222.379,593.696 C 230.395,599.412 239.484,603.746 248.787,606.989 z"
         id="path2608" />
      <path
         style="fill:#ffffff;stroke:#000000;stroke-width:3;stroke-linecap:round;stroke-linejoin:round"
         d="M 353.547,606.989 C 356.051,602.877 358.375,598.123 360.435,592.631 C 362.154,588.049 363.701,583.681 365.143,579.546 C 390.506,560.245 408.346,522.717 408.346,522.717 C 422.719,529.461 427.647,538.108 427.647,538.108 C 427.647,538.108 402.665,577.498 379.954,593.696 C 371.939,599.412 362.849,603.746 353.547,606.989 z"
         id="path2610" />
      <path
         style="fill:#ffffff;stroke:#000000;stroke-width:3;stroke-linecap:round;stroke-linejoin:round"
         d="M 267.513,626.121 C 262.832,613.049 259.873,592.911 252.812,563.086 C 249.038,547.145 243.577,536.604 237.505,529.746 C 235.833,531.969 234.133,533.934 232.497,535.57 C 229.594,538.472 226.129,541.258 222.237,543.881 C 229.462,554.098 233.773,570.963 241.898,592.631 C 243.958,598.123 246.281,602.877 248.786,606.989 C 254.32,618.184 264.628,638.887 282.897,644.522 C 275.309,641.502 270.948,635.714 267.513,626.121 z"
         id="path2612" />
      <path
         style="fill:#ffffff;stroke:#000000;stroke-width:3;stroke-linecap:round;stroke-linejoin:round"
         d="M 334.821,626.121 C 339.502,613.049 342.461,592.911 349.521,563.086 C 353.294,547.145 358.754,536.604 364.828,529.746 C 366.501,531.969 368.2,533.934 369.837,535.57 C 372.739,538.472 376.204,541.258 380.096,543.881 C 372.871,554.098 368.56,570.963 360.435,592.631 C 358.375,598.123 356.051,602.877 353.547,606.989 C 348.013,618.184 337.705,638.887 319.437,644.522 C 327.025,641.502 331.386,635.714 334.821,626.121 z"
         id="path2614" />
      <path
         style="fill:#ffffff;stroke:#000000;stroke-width:3;stroke-linecap:round;stroke-linejoin:round"
         d="M 198.116,530.607 C 195.446,525.783 193.988,522.716 193.988,522.716 C 193.988,522.716 204.072,516.937 216.229,518.246 C 215.997,518.49 215.761,518.731 215.522,518.971 C 213.624,520.868 209.395,525.614 198.116,530.607 z"
         id="path2616" />
      <path
         style="fill:#ffffff;stroke:#000000;stroke-width:3;stroke-linecap:round;stroke-linejoin:round"
         d="M 404.217,530.607 C 406.889,525.783 408.346,522.716 408.346,522.716 C 408.346,522.716 398.261,516.937 386.106,518.246 C 386.337,518.49 386.573,518.731 386.812,518.971 C 388.71,520.868 392.938,525.614 404.217,530.607 z"
         id="path2618" />
      <path
         id="path2622"
         d="M 371.627,246.435 C 362.074,159.061 310.632,104.64 301.167,104.64 C 291.702,104.64 240.259,159.062 230.708,246.435 C 230.708,252.194 262.254,256.863 301.167,256.863 C 340.081,256.863 371.627,252.194 371.627,246.435 z"
         style="fill:#ffffff;stroke:#000000;stroke-width:3;stroke-linecap:round;stroke-linejoin:round" />
      <path
         id="path2624"
         d="M 230.708,246.435 C 230.708,240.676 262.254,236.006 301.167,236.006 C 340.081,236.006 371.627,240.675 371.627,246.435"
         style="fill:none;stroke:#000000;stroke-width:3;stroke-linecap:round;stroke-linejoin:round" />
      <path
         id="path2626"
         d="M 233.1,229.697 C 233.1,223.938 264.154,219.268 301.167,219.268 C 338.18,219.268 369.232,223.937 369.232,229.697"
         style="fill:none;stroke:#000000;stroke-width:3;stroke-linecap:round;stroke-linejoin:round" />
      <path
         id="path2628"
         d="M 238.021,207.651 C 238.021,202.376 266.155,198.099 301.167,198.099 C 336.178,198.099 364.313,202.376 364.313,207.651"
         style="fill:none;stroke:#000000;stroke-width:3;stroke-linecap:round;stroke-linejoin:round" />
      <path
         id="path2630"
         d="M 246.23,182.581 C 246.23,177.306 270.57,173.029 301.167,173.029 C 331.763,173.029 356.104,177.306 356.104,182.581"
         style="fill:none;stroke:#000000;stroke-width:3;stroke-linecap:round;stroke-linejoin:round" />
      <path
         id="path2632"
         d="M 255.156,162.255 C 255.156,157.948 276.186,154.456 301.167,154.456 C 326.148,154.456 347.178,157.948 347.178,162.255"
         style="fill:none;stroke:#000000;stroke-width:3;stroke-linecap:round;stroke-linejoin:round" />
      <path
         id="path2634"
         d="M 268.208,139.249 C 268.208,136.146 283.278,133.63 301.276,133.63 C 319.275,133.63 334.125,136.146 334.125,139.249"
         style="fill:none;stroke:#000000;stroke-width:3;stroke-linecap:round;stroke-linejoin:round" />
      <path
         id="path2636"
         d="M 302.388,173.534 C 301.713,172.86 300.62,172.86 299.947,173.534 L 289.326,184.154 C 288.652,184.829 288.652,185.922 289.326,186.596 L 299.946,197.216 C 300.621,197.89 301.714,197.89 302.388,197.216 L 313.007,186.595 C 313.682,185.922 313.682,184.829 313.007,184.154 L 302.388,173.534 z"
         style="fill:none;stroke:#000000;stroke-width:3;stroke-linecap:round;stroke-linejoin:round" />
      <path
         id="path2638"
         d="M 301.95,220.135 C 301.517,219.703 300.817,219.703 300.385,220.135 L 293.577,226.943 C 293.144,227.375 293.144,228.076 293.577,228.508 L 300.384,235.315 C 300.817,235.747 301.517,235.747 301.949,235.315 L 308.756,228.507 C 309.188,228.075 309.188,227.375 308.756,226.943 L 301.95,220.135 z"
         style="fill:none;stroke:#000000;stroke-width:3;stroke-linecap:round;stroke-linejoin:round" />
      <path
         id="path2640"
         d="M 302.153,134.345 C 301.608,133.8 300.725,133.8 300.181,134.345 L 291.6,142.926 C 291.055,143.471 291.055,144.355 291.6,144.9 L 300.18,153.48 C 300.725,154.025 301.607,154.025 302.153,153.48 L 310.733,144.899 C 311.278,144.355 311.278,143.471 310.733,142.926 L 302.153,134.345 z"
         style="fill:none;stroke:#000000;stroke-width:3;stroke-linecap:round;stroke-linejoin:round" />
      <circle
         id="circle2642"
         r="5.6079998"
         cy="188.245"
         cx="265.061"
         sodipodi:cx="265.061"
         sodipodi:cy="188.245"
         sodipodi:rx="5.6079998"
         sodipodi:ry="5.6079998"
         style="fill:none;stroke:#000000;stroke-width:3;stroke-linecap:round;stroke-linejoin:round" />
      <circle
         id="circle2644"
         r="4.9070001"
         cy="145.82899"
         cx="273.64899"
         sodipodi:cx="273.64899"
         sodipodi:cy="145.82899"
         sodipodi:rx="4.9070001"
         sodipodi:ry="4.9070001"
         style="fill:none;stroke:#000000;stroke-width:3;stroke-linecap:round;stroke-linejoin:round" />
      <circle
         id="circle2646"
         r="5.6079998"
         cy="188.245"
         cx="337.272"
         sodipodi:cx="337.272"
         sodipodi:cy="188.245"
         sodipodi:rx="5.6079998"
         sodipodi:ry="5.6079998"
         style="fill:none;stroke:#000000;stroke-width:3;stroke-linecap:round;stroke-linejoin:round" />
      <circle
         id="circle2648"
         r="4.9070001"
         cy="145.82899"
         cx="328.685"
         sodipodi:cx="328.685"
         sodipodi:cy="145.82899"
         sodipodi:rx="4.9070001"
         sodipodi:ry="4.9070001"
         style="fill:none;stroke:#000000;stroke-width:3;stroke-linecap:round;stroke-linejoin:round" />
      <rect
         id="rect2650"
         height="6.6041198"
         width="6.6041198"
         transform="matrix(0.608589,-0.7934856,0.7934856,0.608589,0,0)"
         y="333.89322"
         x="-36.892693"
         style="fill:none;stroke:#000000;stroke-width:3.00005436;stroke-linecap:round;stroke-linejoin:round" />
      <rect
         id="rect2652"
         height="7.3728261"
         width="7.3728261"
         transform="matrix(0.6697158,-0.7426175,0.7426175,0.6697158,0,0)"
         y="350.24771"
         x="7.235724"
         style="fill:none;stroke:#000000;stroke-width:2.99992919;stroke-linecap:round;stroke-linejoin:round" />
      <rect
         id="rect2654"
         height="6.6049976"
         width="6.6049976"
         transform="matrix(-0.6087002,-0.7934003,0.7934003,-0.6087002,0,0)"
         y="137.38969"
         x="-403.50659"
         style="fill:none;stroke:#000000;stroke-width:2.99999881;stroke-linecap:round;stroke-linejoin:round" />
      <rect
         id="rect2656"
         height="7.37288"
         width="7.3718801"
         transform="matrix(-0.6696109,-0.7427121,0.7427121,-0.6696109,0,0)"
         y="89.742401"
         x="-396.14694"
         style="fill:none;stroke:#000000;stroke-width:2.99995112;stroke-linecap:round;stroke-linejoin:round" />
      <polygon
         id="polygon2658"
         points="304.147,66.131 304.147,58.77 298.187,58.77 298.187,66.131 291.702,66.131 291.702,72.44 298.187,72.44 298.187,84.709 304.147,84.709 304.147,72.44 310.632,72.44 310.632,66.131 304.147,66.131 "
         style="fill:#ffffff;stroke:#000000;stroke-width:3;stroke-linecap:round;stroke-linejoin:round" />
      <circle
         id="circle2660"
         r="11.568"
         cy="95.875999"
         cx="301.16699"
         sodipodi:cx="301.16699"
         sodipodi:cy="95.875999"
         sodipodi:rx="11.568"
         sodipodi:ry="11.568"
         style="fill:#ffffff;stroke:#000000;stroke-width:3;stroke-linecap:round;stroke-linejoin:round" />
    </g>
  </g>
  <g
     inkscape:groupmode="layer"
     id="layer3"
     inkscape:label="Reflet final"
     style="display:inline"
     sodipodi:insensitive="true">
    <path
       style="fill:url(#radialGradient3236);fill-opacity:1"
       d="M 1.5,1.5 L 1.5,460.3679 C 1.5,626.67854 135.81454,761.5 301.49993,761.5 C 467.1854,761.5 601.5,626.67854 601.5,460.3679 L 601.5,1.5 L 1.5,1.5 z "
       id="path2346" />
  </g>
  <g
     inkscape:groupmode="layer"
     id="layer4"
     inkscape:label="Contour final"
     style="display:inline"
     sodipodi:insensitive="true">
    <path
       style="fill:none;fill-opacity:1;stroke:#000000;stroke-width:3;stroke-miterlimit:4;stroke-dasharray:none;stroke-opacity:1"
       d="M 1.5,1.5 L 1.5,460.36794 C 1.5,626.67854 135.81454,761.5 301.49993,761.5 C 467.1854,761.5 601.5,626.67854 601.5,460.36794 L 601.5,1.5 L 1.5,1.5 z "
       id="path3239" />
  </g>
</svg>
