<?xml version="1.0" encoding="UTF-8"?>
<svg version="1.0" viewBox="0 0 603 763" xmlns="http://www.w3.org/2000/svg" xmlns:cc="http://creativecommons.org/ns#" xmlns:dc="http://purl.org/dc/elements/1.1/" xmlns:rdf="http://www.w3.org/1999/02/22-rdf-syntax-ns#" xmlns:xlink="http://www.w3.org/1999/xlink">
<metadata>
<rdf:RDF>
<cc:Work rdf:about="">
<dc:format>image/svg+xml</dc:format>
<dc:type rdf:resource="http://purl.org/dc/dcmitype/StillImage"/>
<dc:date>07-AUG-2006</dc:date>
<dc:creator>
<cc:Agent>
<dc:title>Jérôme BLUM (wagner51)</dc:title>
</cc:Agent>
</dc:creator>
<cc:license rdf:resource="http://creativecommons.org/licenses/GPL/2.0/"/>
<dc:coverage/>
<dc:description>Gabarit pour le Projet:Blasons de WIkipédia</dc:description>
<dc:subject>
<rdf:Bag>
<rdf:li>blason suisse modèle gabarit projet blasons</rdf:li>
</rdf:Bag>
</dc:subject>
<dc:language>fr</dc:language>
<dc:title>Gabrit d'un blason suisse</dc:title>
</cc:Work>
<cc:License rdf:about="http://creativecommons.org/licenses/GPL/2.0/">
<cc:permits rdf:resource="http://web.resource.org/cc/Reproduction"/>
<cc:permits rdf:resource="http://web.resource.org/cc/Distribution"/>
<cc:requires rdf:resource="http://web.resource.org/cc/Notice"/>
<cc:permits rdf:resource="http://web.resource.org/cc/DerivativeWorks"/>
<cc:requires rdf:resource="http://web.resource.org/cc/ShareAlike"/>
<cc:requires rdf:resource="http://web.resource.org/cc/SourceCode"/>
</cc:License>
</rdf:RDF>
</metadata>
<defs>
<radialGradient id="a" cx="858.04" cy="579.93" r="300" gradientTransform="matrix(1.215 1.5316e-24 1.4647e-23 1.2667 -839.19 -490.49)" gradientUnits="userSpaceOnUse">
<stop stop-color="#fff" stop-opacity=".31373" offset="0"/>
<stop stop-color="#fff" stop-opacity=".25098" offset=".19"/>
<stop stop-color="#6b6b6b" stop-opacity=".12549" offset=".6"/>
<stop stop-opacity=".12549" offset="1"/>
</radialGradient>
</defs>
<desc>Coat of Arms of Canton of Freiburg (Fribourg)</desc>
<g>
<path d="m1.5 1.5v458.87c0 166.31 134.31 301.13 300 301.13 165.69 0 300-134.82 300-301.13v-458.87h-600z" fill="#2b5df2"/>
</g>
<g>
<g stroke="#000" stroke-linecap="round" stroke-linejoin="round">
<path d="m73.634 271.4-7.466-7.466 24.092-24.09 17.566 17.565 6.524-6.524-13.551-13.552s-4.167-3.862-0.877-7.152c3.289-3.289 7.151 0.878 7.151 0.878l24.091 24.091 7.529-7.528-28.106-28.106 13.543-13.543 40.904 40.904-27.345 27.346-16.814-16.814-6.525 6.525 16.814 16.813-14.304 14.304 8.532 8.533 14.305-14.304 16.813 16.813 6.524-6.525-16.814-16.814 27.346-27.345 40.904 40.904-13.543 13.544-28.106-28.106-7.528 7.529 24.091 24.09s4.167 3.862 0.879 7.151c-3.29 3.29-7.153-0.877-7.153-0.877l-13.551-13.551-6.525 6.525 17.566 17.566-24.09 24.091-7.466-7.466 15.057-15.057-7.465-7.465-15.058 15.057-7.466-7.466 15.058-15.057-7.465-7.465-15.057 15.057-30.616-30.616 15.058-15.057-7.467-7.466-15.056 15.057-7.466-7.465 15.056-15.058-7.465-7.465-15.058 15.057z" fill="#fff" stroke-width="3"/>
<path d="m406.34 447c1.179 1.18 1.179 3.088 0 4.267l-16.323 16.323c-1.18 1.18-3.089 1.182-4.271 0l-284.52-284.52c-1.179-1.178-1.178-3.089 0-4.267l16.325-16.325c1.179-1.178 3.089-1.178 4.267 0l284.52 284.52z" fill="#fff" stroke-width="3"/>
<path d="m369.84 535.57c17.816 17.817 56.773 31.183 86.025 29.912 28.012-1.216 33.065-10.604 35.413-12.952 2.347-2.348 11.737-7.401 12.953-35.414 1.271-29.251-12.095-68.208-29.912-86.024-12.233-12.234-42.843-28.051-61.859-9.033-18.137 18.137-11.767 27.324-18.048 33.605s-15.47-0.09-33.604 18.046c-19.019 19.018-3.201 49.627 9.032 61.86zm16.975-16.598c-11.293-11.293-14.959-26.697-6.271-35.385 8.688-8.687 30.894-4.795 33.946-7.847 3.051-3.052-0.843-25.258 7.846-33.946 8.688-8.686 24.092-5.021 35.385 6.272 3.013 3.012 13.197 11.897 20.165 45.521 4.182 20.184 1.897 40.871-1.39 44.159-3.287 3.287-23.976 5.572-44.158 1.389-33.626-6.967-42.511-17.152-45.523-20.163z" fill="#fff" stroke-width="3"/>
<circle cx="483.5" cy="544.75" r="15.26" fill="#fff" stroke-width="3"/>
<path d="m395.16 435.82c1.416-1.418 0.638-4.496-1.742-6.875-2.379-2.38-5.456-3.159-6.876-1.742l-20.592 20.591c-1.419 1.419-0.639 4.498 1.741 6.879 2.379 2.38 5.458 3.159 6.878 1.739l20.591-20.592z" fill="#fff" stroke-width="3"/>
<path d="m138.67 179.33-20.592 20.592" fill="none" stroke-width="3"/>
<path d="m127.15 167.81-20.592 20.592" fill="none" stroke-width="3"/>
<path d="m126.7 208.54 20.592-20.592" fill="none" stroke-width="3"/>
<circle cx="94.427" cy="155.68" r="23.246" fill="#fff" stroke-width="3"/>
<path d="m528.7 271.4 7.466-7.466-24.092-24.09-17.565 17.565-6.524-6.524 13.551-13.552s4.167-3.862 0.877-7.152c-3.288-3.289-7.15 0.878-7.15 0.878l-24.091 24.091-7.529-7.528 28.106-28.106-13.544-13.543-40.903 40.904 27.344 27.346 16.814-16.814 6.525 6.525-16.813 16.813 14.304 14.304-8.532 8.533-14.305-14.304-16.813 16.813-6.524-6.525 16.813-16.814-27.346-27.345-40.904 40.904 13.543 13.544 28.106-28.106 7.529 7.529-24.093 24.09s-4.167 3.862-0.878 7.151c3.29 3.29 7.152-0.877 7.152-0.877l13.551-13.551 6.525 6.525-17.566 17.566 24.091 24.091 7.467-7.466-15.058-15.057 7.465-7.465 15.058 15.057 7.466-7.466-15.058-15.057 7.466-7.465 15.058 15.057 30.615-30.616-15.057-15.057 7.466-7.466 15.057 15.057 7.467-7.465-15.057-15.058 7.465-7.465 15.055 15.057z" fill="#fff" stroke-width="3"/>
<path d="m196 447c-1.179 1.18-1.178 3.088 0 4.267l16.324 16.323c1.179 1.18 3.09 1.182 4.27 0l284.52-284.52c1.18-1.178 1.179-3.089 0-4.267l-16.324-16.325c-1.179-1.178-3.089-1.178-4.267 0l-284.52 284.52z" fill="#fff" stroke-width="3"/>
<path d="m241.53 473.71c-18.137-18.136-27.324-11.765-33.605-18.046s0.089-15.469-18.048-33.605c-19.017-19.018-49.625-3.201-61.859 9.033-17.817 17.816-31.182 56.773-29.912 86.024 1.216 28.013 10.605 33.066 12.952 35.414 2.348 2.348 7.401 11.736 35.413 12.952 29.252 1.271 68.209-12.095 86.027-29.912 12.233-12.233 28.049-42.842 9.032-61.86zm-71.53 65.426c-20.183 4.184-40.872 1.898-44.158-1.389-3.288-3.288-5.572-23.976-1.39-44.159 6.968-33.624 17.153-42.51 20.165-45.521 11.292-11.293 26.697-14.958 35.385-6.272 8.687 8.688 4.795 30.895 7.847 33.946s25.258-0.84 33.945 7.847c8.688 8.688 5.021 24.092-6.271 35.385-3.013 3.01-11.898 13.195-45.523 20.163z" fill="#fff" stroke-width="3"/>
<circle cx="118.84" cy="544.75" r="15.26" fill="#fff" stroke-width="3"/>
<path d="m207.17 435.82c-1.416-1.418-0.638-4.496 1.742-6.875 2.38-2.38 5.457-3.159 6.877-1.742l20.591 20.591c1.418 1.419 0.639 4.498-1.741 6.879-2.38 2.38-5.458 3.159-6.877 1.739l-20.592-20.592z" fill="#fff" stroke-width="3"/>
<path d="m463.66 179.33 20.592 20.592" fill="none" stroke-width="3"/>
<path d="m475.19 167.81 20.593 20.592" fill="none" stroke-width="3"/>
<path d="m475.64 208.54-20.591-20.592" fill="none" stroke-width="3"/>
<circle cx="507.91" cy="155.68" r="23.247" fill="#fff" stroke-width="3"/>
<path d="m301.17 633.42c-3.075 0-20.851 0.288-33.654-7.301 3.435 9.593 7.796 15.381 15.385 18.401 4.682 1.863 10.591 2.674 18.269 2.674s13.587-0.811 18.27-2.674c7.589-3.021 11.949-8.809 15.385-18.401-12.805 7.589-30.58 7.301-33.655 7.301z" fill="#fff" stroke-width="3"/>
<path d="m301.17 596.96c-4.901 0-22.479 0.59-42.229-6.141 1.619 7.717 3.014 14.479 4.391 20.381v2e-3c14.213 3.349 27.863 4.5 37.837 4.5s23.624-1.151 37.837-4.5v-2e-3c1.378-5.901 2.772-12.664 4.392-20.381-19.749 6.731-37.327 6.141-42.228 6.141z" fill="#fff" stroke-width="3"/>
<path d="m248.79 606.99c-2.505-4.112-4.829-8.866-6.888-14.358-1.719-4.582-3.266-8.95-4.707-13.085-25.365-19.301-43.204-56.829-43.204-56.829-14.374 6.744-19.301 15.391-19.301 15.391s24.982 39.39 47.692 55.588c8.016 5.716 17.105 10.05 26.408 13.293z" fill="#fff" stroke-width="3"/>
<path d="m353.55 606.99c2.504-4.112 4.828-8.866 6.888-14.358 1.719-4.582 3.266-8.95 4.708-13.085 25.363-19.301 43.203-56.829 43.203-56.829 14.373 6.744 19.301 15.391 19.301 15.391s-24.982 39.39-47.693 55.588c-8.015 5.716-17.105 10.05-26.407 13.293z" fill="#fff" stroke-width="3"/>
<path d="m267.51 626.12c-4.681-13.072-7.64-33.21-14.701-63.035-3.774-15.941-9.235-26.482-15.307-33.34-1.672 2.223-3.372 4.188-5.008 5.824-2.903 2.902-6.368 5.688-10.26 8.311 7.225 10.217 11.536 27.082 19.661 48.75 2.06 5.492 4.383 10.246 6.888 14.358 5.534 11.195 15.842 31.898 34.111 37.533-7.588-3.02-11.949-8.808-15.384-18.401z" fill="#fff" stroke-width="3"/>
<path d="m334.82 626.12c4.681-13.072 7.64-33.21 14.7-63.035 3.773-15.941 9.233-26.482 15.307-33.34 1.673 2.223 3.372 4.188 5.009 5.824 2.902 2.902 6.367 5.688 10.259 8.311-7.225 10.217-11.536 27.082-19.661 48.75-2.06 5.492-4.384 10.246-6.888 14.358-5.534 11.195-15.842 31.898-34.11 37.533 7.588-3.02 11.949-8.808 15.384-18.401z" fill="#fff" stroke-width="3"/>
<path d="m198.12 530.61c-2.67-4.824-4.128-7.891-4.128-7.891s10.084-5.779 22.241-4.47c-0.232 0.244-0.468 0.485-0.707 0.725-1.898 1.897-6.127 6.643-17.406 11.636z" fill="#fff" stroke-width="3"/>
<path d="m404.22 530.61c2.672-4.824 4.129-7.891 4.129-7.891s-10.085-5.779-22.24-4.47c0.231 0.244 0.467 0.485 0.706 0.725 1.898 1.897 6.126 6.643 17.405 11.636z" fill="#fff" stroke-width="3"/>
<path d="m371.63 246.44c-9.553-87.374-60.995-141.8-70.46-141.8s-60.908 54.422-70.459 141.8c0 5.759 31.546 10.428 70.459 10.428 38.914 0 70.46-4.669 70.46-10.428z" fill="#fff" stroke-width="3"/>
<path d="m230.71 246.44c0-5.759 31.546-10.429 70.459-10.429 38.914 0 70.46 4.669 70.46 10.429" fill="none" stroke-width="3"/>
<path d="m233.1 229.7c0-5.759 31.054-10.429 68.067-10.429s68.065 4.669 68.065 10.429" fill="none" stroke-width="3"/>
<path d="m238.02 207.65c0-5.275 28.134-9.552 63.146-9.552 35.011 0 63.146 4.277 63.146 9.552" fill="none" stroke-width="3"/>
<path d="m246.23 182.58c0-5.275 24.34-9.552 54.937-9.552 30.596 0 54.937 4.277 54.937 9.552" fill="none" stroke-width="3"/>
<path d="m255.16 162.26c0-4.307 21.03-7.799 46.011-7.799s46.011 3.492 46.011 7.799" fill="none" stroke-width="3"/>
<path d="m268.21 139.25c0-3.103 15.07-5.619 33.068-5.619 17.999 0 32.849 2.516 32.849 5.619" fill="none" stroke-width="3"/>
<path d="m302.39 173.53c-0.675-0.674-1.768-0.674-2.441 0l-10.621 10.62c-0.674 0.675-0.674 1.768 0 2.442l10.62 10.62c0.675 0.674 1.768 0.674 2.442 0l10.619-10.621c0.675-0.673 0.675-1.766 0-2.441l-10.619-10.62z" fill="none" stroke-width="3"/>
<path d="m301.95 220.14c-0.433-0.432-1.133-0.432-1.565 0l-6.808 6.808c-0.433 0.432-0.433 1.133 0 1.565l6.807 6.807c0.433 0.432 1.133 0.432 1.565 0l6.807-6.808c0.432-0.432 0.432-1.132 0-1.564l-6.806-6.808z" fill="none" stroke-width="3"/>
<path d="m302.15 134.34c-0.545-0.545-1.428-0.545-1.972 0l-8.581 8.581c-0.545 0.545-0.545 1.429 0 1.974l8.58 8.58c0.545 0.545 1.427 0.545 1.973 0l8.58-8.581c0.545-0.544 0.545-1.428 0-1.973l-8.58-8.581z" fill="none" stroke-width="3"/>
<circle cx="265.06" cy="188.24" r="5.608" fill="none" stroke-width="3"/>
<circle cx="273.65" cy="145.83" r="4.907" fill="none" stroke-width="3"/>
<circle cx="337.27" cy="188.24" r="5.608" fill="none" stroke-width="3"/>
<circle cx="328.68" cy="145.83" r="4.907" fill="none" stroke-width="3"/>
<rect transform="matrix(.60859 -.79349 .79349 .60859 0 0)" x="-36.893" y="333.89" width="6.6041" height="6.6041" fill="none" stroke-width="3.0001"/>
<rect transform="matrix(.66972 -.74262 .74262 .66972 0 0)" x="7.2357" y="350.25" width="7.3728" height="7.3728" fill="none" stroke-width="2.9999"/>
<rect transform="matrix(-.6087 -.7934 .7934 -.6087 0 0)" x="-403.51" y="137.39" width="6.605" height="6.605" fill="none" stroke-width="3"/>
<rect transform="matrix(-.66961 -.74271 .74271 -.66961 0 0)" x="-396.15" y="89.742" width="7.3719" height="7.3729" fill="none" stroke-width="3"/>
<polygon points="304.15 66.131 304.15 58.77 298.19 58.77 298.19 66.131 291.7 66.131 291.7 72.44 298.19 72.44 298.19 84.709 304.15 84.709 304.15 72.44 310.63 72.44 310.63 66.131" fill="#fff" stroke-width="3"/>
<circle cx="301.17" cy="95.876" r="11.568" fill="#fff" stroke-width="3"/>
</g>
</g>
<g>
<path d="m1.5 1.5v458.87c0 166.31 134.31 301.13 300 301.13 165.69 0 300-134.82 300-301.13v-458.87h-600z" fill="url(#a)"/>
<path d="m1.5 1.5v458.87c0 166.31 134.31 301.13 300 301.13 165.69 0 300-134.82 300-301.13v-458.87h-600z" fill="none" stroke="#000" stroke-width="3"/>
</g>
</svg>
