<?xml version="1.0" encoding="UTF-8" standalone="no"?>
<svg
   xmlns:dc="http://purl.org/dc/elements/1.1/"
   xmlns:cc="http://creativecommons.org/ns#"
   xmlns:rdf="http://www.w3.org/1999/02/22-rdf-syntax-ns#"
   xmlns:svg="http://www.w3.org/2000/svg"
   xmlns="http://www.w3.org/2000/svg"
   xmlns:xlink="http://www.w3.org/1999/xlink"
   xmlns:sodipodi="http://sodipodi.sourceforge.net/DTD/sodipodi-0.dtd"
   xmlns:inkscape="http://www.inkscape.org/namespaces/inkscape"
   height="763"
   width="603"
   version="1.0"
   id="svg20"
   sodipodi:version="0.32"
   inkscape:version="0.46"
   sodipodi:docname="Brissago-coat_of_arms.svg"
   sodipodi:docbase="C:\Documents and Settings\Steve\Bureau\Blason Villages Suisse pour Wikipédia (par Delta-9)"
   inkscape:output_extension="org.inkscape.output.svg.inkscape">
  <metadata
     id="metadata31">
    <rdf:RDF>
      <cc:Work
         rdf:about="">
        <dc:format>image/svg+xml</dc:format>
        <dc:type
           rdf:resource="http://purl.org/dc/dcmitype/StillImage" />
        <dc:date>07-AUG-2006</dc:date>
        <dc:creator>
          <cc:Agent>
            <dc:title>Jérôme BLUM (wagner51)</dc:title>
          </cc:Agent>
        </dc:creator>
        <cc:license
           rdf:resource="http://creativecommons.org/licenses/GPL/2.0/" />
        <dc:coverage />
        <dc:description>Gabarit pour le Projet:Blasons de WIkipédia</dc:description>
        <dc:subject>
          <rdf:Bag>
            <rdf:li>blason suisse modèle gabarit projet blasons</rdf:li>
          </rdf:Bag>
        </dc:subject>
        <dc:language>fr</dc:language>
        <dc:title>Gabrit d'un blason suisse</dc:title>
      </cc:Work>
      <cc:License
         rdf:about="http://creativecommons.org/licenses/GPL/2.0/">
        <cc:permits
           rdf:resource="http://web.resource.org/cc/Reproduction" />
        <cc:permits
           rdf:resource="http://web.resource.org/cc/Distribution" />
        <cc:requires
           rdf:resource="http://web.resource.org/cc/Notice" />
        <cc:permits
           rdf:resource="http://web.resource.org/cc/DerivativeWorks" />
        <cc:requires
           rdf:resource="http://web.resource.org/cc/ShareAlike" />
        <cc:requires
           rdf:resource="http://web.resource.org/cc/SourceCode" />
      </cc:License>
    </rdf:RDF>
  </metadata>
  <defs
     id="defs29"><inkscape:perspective
   sodipodi:type="inkscape:persp3d"
   inkscape:vp_x="0 : 381.5 : 1"
   inkscape:vp_y="0 : 1000 : 0"
   inkscape:vp_z="603 : 381.5 : 1"
   inkscape:persp3d-origin="301.5 : 254.33333 : 1"
   id="perspective28" />
<linearGradient
   id="linearGradient2893">
  <stop
     style="stop-color:#ffffff;stop-opacity:0.3137255;"
     offset="0"
     id="stop2895" />
  <stop
     id="stop2897"
     offset="0.19"
     style="stop-color:#ffffff;stop-opacity:0.25098041;" />
  <stop
     style="stop-color:#6b6b6b;stop-opacity:0.1254902;"
     offset="0.60000002"
     id="stop2901" />
  <stop
     style="stop-color:#000000;stop-opacity:0.1254902;"
     offset="1"
     id="stop2899" />
</linearGradient>
<linearGradient
   id="linearGradient2955">
  <stop
     style="stop-color:white;stop-opacity:0;"
     offset="0"
     id="stop2965" />
  <stop
     style="stop-color:black;stop-opacity:0.64583331;"
     offset="1"
     id="stop2959" />
</linearGradient>
<radialGradient
   inkscape:collect="always"
   xlink:href="#linearGradient2893"
   id="radialGradient3236"
   gradientUnits="userSpaceOnUse"
   gradientTransform="matrix(1.215027,1.531577e-24,1.464684e-23,1.266667,-839.1924,-490.4894)"
   cx="858.04236"
   cy="579.93323"
   fx="858.04236"
   fy="579.93323"
   r="300" />
<inkscape:perspective
   id="perspective2695"
   inkscape:persp3d-origin="306 : 264 : 1"
   inkscape:vp_z="612 : 396 : 1"
   inkscape:vp_y="0 : 1000 : 0"
   inkscape:vp_x="0 : 396 : 1"
   sodipodi:type="inkscape:persp3d" />

	

	
	
	

	

		
		
		
		
		
		
		
		
		
		
		
		
		
		
		
		
		
		
		
		
		
		
		
		
		
	
		
		
		
			
		
			
		
			
		
			
		
		
		
		
			
		
			
		
			
		
		
		
		
	
		
		
		
		
		
		
		
		
			
		
		
		
		
		
	</defs>
  <sodipodi:namedview
     inkscape:window-height="831"
     inkscape:window-width="1209"
     inkscape:pageshadow="2"
     inkscape:pageopacity="0.0"
     guidetolerance="10.0"
     gridtolerance="10.0"
     objecttolerance="10.0"
     borderopacity="1.0"
     bordercolor="#666666"
     pagecolor="#ffffff"
     id="base"
     inkscape:zoom="0.61053103"
     inkscape:cx="353.83163"
     inkscape:cy="347.37484"
     inkscape:window-x="1302"
     inkscape:window-y="109"
     inkscape:current-layer="layer2"
     showgrid="false"
     showguides="true"
     inkscape:guide-bbox="true">
    <sodipodi:guide
       orientation="horizontal"
       position="761.5"
       id="guide1885" />
    <sodipodi:guide
       orientation="vertical"
       position="1.5"
       id="guide1887" />
    <sodipodi:guide
       orientation="horizontal"
       position="1.5"
       id="guide1889" />
    <sodipodi:guide
       orientation="vertical"
       position="601.5"
       id="guide1891" />
    <sodipodi:guide
       orientation="vertical"
       position="301.50081"
       id="guide1893" />
  </sodipodi:namedview>
  <desc
     id="desc22">Coat of Arms of Canton of Freiburg (Fribourg)</desc>
  <g
     inkscape:groupmode="layer"
     id="layer1"
     inkscape:label="Fond écu"
     style="opacity:1"
     sodipodi:insensitive="true">
    <path
       d="M 1.5,1.5 L 1.5,460.368 C 1.5,626.679 135.814,761.5 301.5,761.5 C 467.186,761.5 601.5,626.679 601.5,460.368 L 601.5,1.5 L 1.5,1.5 z"
       id="path2702"
       style="opacity:1;fill:#ffffff" />
  </g>
  <g
     inkscape:groupmode="layer"
     id="layer2"
     inkscape:label="Meubles"
     style="opacity:1"
     sodipodi:insensitive="true">
    <path
       style="fill:#ffffff;stroke:#000000;stroke-width:3;stroke-linecap:round;stroke-linejoin:round"
       d="M 151.032,166.528 C 153.834,166.528 157.423,169.16 159.115,164.461 C 160.807,159.762 157.235,132.32 176.219,122.922 C 176.219,122.922 169.64,114.276 168.512,105.442 C 168.512,105.442 175.56,109.859 180.166,114.464 C 180.166,114.464 186.126,111.403 193.125,115.423 C 193.125,115.423 195.579,108.825 198.585,102.434 C 198.585,102.434 202.907,111.455 201.592,120.854 C 201.592,120.854 218.56,138.455 214.561,158.446 C 213.621,163.145 201.739,165.389 198.585,157.506 C 197.081,153.747 197.081,151.491 197.081,151.491 C 197.081,151.491 192.535,152.249 186.919,150.69 C 186.919,150.69 187.119,160.513 192.382,171.979 C 197.645,183.445 199.337,187.204 197.645,196.413 C 197.645,196.413 212.399,196.884 221.328,205.811 C 223.771,208.254 223.959,215.209 219.824,219.344 C 218.509,220.659 217.381,221.787 217.381,221.787 C 217.381,221.787 217.05,226.141 213.738,227.442 C 213.932,231.481 213.258,235.673 211.178,239.455 C 209.11,243.214 207.983,243.214 207.983,243.214 C 207.983,243.214 206.668,252.424 201.405,251.297 L 200.653,238.328 C 200.653,238.328 207.513,237.106 204.693,234.286 C 204.693,234.286 205.728,223.103 199.15,221.411 C 192.571,219.719 181.669,221.035 173.023,224.23 C 164.377,227.425 146.521,239.831 116.072,229.493 C 116.072,229.493 109.118,240.394 115.133,249.416 C 121.147,258.438 128.478,268.024 128.478,268.024 L 118.297,268.803 C 118.297,268.803 103.726,241.622 90.410003,241.622 C 85.872003,246.36 83.744003,249.592 83.744003,254.68 C 83.744003,262.01 86.657003,266.803 90.886003,271.032 C 95.115003,275.261 102.351,280.429 102.351,280.429 C 102.351,280.429 112.125,280.804 114.944,289.451 L 105.734,294.526 C 105.734,294.526 102.163,289.451 95.209003,290.767 C 95.209003,290.767 94.927003,287.477 92.390003,284.94 C 89.852003,282.402 73.219003,265.58 69.647003,262.009 C 66.076003,258.438 64.572003,253.175 68.331003,249.416 C 72.090003,245.657 72.466003,235.507 69.271003,228.74 C 66.076003,221.974 58.934003,210.133 67.767003,199.608 C 67.767003,199.608 56.443003,197.258 49.254003,202.897 C 42.065003,208.536 42.205003,215.866 46.435003,221.787 C 50.664003,227.708 51.791003,250.404 29.941,261.54 C 29.941,261.54 24.302,258.157 25.43,252.518 C 26.557,246.879 24.373,244.694 24.373,244.694 C 24.373,244.694 38.117,240.958 38.117,229.681 C 38.117,221.223 30.505,215.161 38.117,202.615 C 45.730003,190.069 64.901003,189.223 69.976003,186.545 C 75.051003,183.867 83.790003,174 120.583,174 C 143.984,174 137.834,166.528 151.032,166.528 z"
       id="path2576" />
    <path
       style="fill:none;stroke:#000000;stroke-width:3;stroke-linecap:round;stroke-linejoin:round"
       d="M 193.125,115.423 C 193.686,115.745 194.254,116.113 194.826,116.531"
       id="path2578" />
    <path
       style="fill:none;stroke:#000000;stroke-width:3;stroke-linecap:round;stroke-linejoin:round"
       d="M 186.92,150.69 C 182.847,149.56 178.211,147.211 174.339,142.469"
       id="path2580" />
    <path
       style="fill:none;stroke:#000000;stroke-width:3;stroke-linecap:round;stroke-linejoin:round"
       d="M 166.821,198.857 C 166.821,198.857 172.084,208.254 181.67,208.254 C 191.256,208.254 204.977,206.562 208.924,212.389 C 211.277,215.861 213.454,221.484 213.74,227.442"
       id="path2582" />
    <path
       style="fill:none;stroke:#000000;stroke-width:3;stroke-linecap:round;stroke-linejoin:round"
       d="M 197.082,151.492 L 198.022,147.357 C 198.022,147.357 210.628,143.164 214.821,147.357"
       id="path2584" />
    <path
       style="fill:none;stroke:#000000;stroke-width:3;stroke-linecap:round;stroke-linejoin:round"
       d="M 169.761,127.554 C 169.761,127.554 193.229,142.564 198.022,147.357"
       id="path2586" />
    <path
       style="fill:none;stroke:#000000;stroke-width:3;stroke-linecap:round;stroke-linejoin:round"
       d="M 181.122,148.268 C 181.122,148.268 179.602,125.554 201.593,120.855"
       id="path2588" />
    <line
       style="fill:none;stroke:#000000;stroke-width:3;stroke-linecap:round;stroke-linejoin:round"
       x1="205.35199"
       y1="156.002"
       x2="205.35199"
       y2="156.002"
       id="line2590" />
    <path
       d="M 191.443,131.756 C 191.443,131.756 192.571,137.395 198.022,135.703 C 198.022,135.703 197.082,130.439 191.443,131.756 z"
       id="path2592" />
    <path
       style="fill:none;stroke:#000000;stroke-width:3;stroke-linecap:round;stroke-linejoin:round"
       d="M 101.035,211.45 C 101.035,211.45 107.52,224.513 97.841003,234.192 C 94.879003,237.154 92.410003,239.535 90.409003,241.623"
       id="path2594" />
    <path
       style="fill:none;stroke:#000000;stroke-width:3;stroke-linecap:round;stroke-linejoin:round"
       d="M 185.71,173.858 C 185.71,173.858 194.171,190.885 193.042,208.028"
       id="path2596" />
    <path
       style="fill:none;stroke:#000000;stroke-width:3;stroke-linecap:round;stroke-linejoin:round"
       d="M 207.232,210.698 C 207.232,210.698 215.853,216.657 211.213,216.657"
       id="path2598" />
    <path
       style="stroke:#000000;stroke-width:2;stroke-linecap:round;stroke-linejoin:round"
       d="M 159.665,160.171 C 160.246,150.784 160.524,130.691 176.219,122.922 C 176.219,122.922 174.246,120.32 172.276,116.524 L 172.272,116.525 C 172.271,116.525 154.575,129.193 159.665,160.171 L 159.665,160.171 z"
       id="path2600" />
    <path
       style="fill:#5ab532;stroke:#000000;stroke-width:2.75;stroke-linecap:round;stroke-linejoin:round"
       d="M 36.002,291.99 C 36.002,291.99 52.919003,317.364 74.909003,303.267 C 74.909003,303.267 82.240003,306.862 90.980003,306.862 C 99.720003,306.862 121.429,306.862 121.429,306.862 L 176.97,306.862 L 228.001,306.862 C 228.001,306.862 226.661,295.02 218.732,297.593 C 210.802,300.165 205.163,294.527 202.203,291.566 C 202.203,291.566 207.822,285.405 205.445,271.972 C 202.203,253.646 189.908,260.109 186.838,255.338 C 182.256,248.219 185.851,240.536 178.38,240.536 C 173.065,240.536 173.386,248.741 175.486,254.238 C 175.486,254.238 171.755,261.259 177.675,267.179 C 183.596,273.099 189.234,270.28 187.824,280.571 C 186.908,287.254 175.842,283.954 170.062,278.175 C 170.062,278.175 124.812,293.54 82.944003,293.54 C 82.944003,293.54 84.213003,291.285 84.213003,287.761 C 84.213003,281.699 77.728003,276.201 71.525003,276.201 C 65.323003,276.201 54.327003,284.659 61.376003,297.205 C 61.377003,297.206 50.733003,301.223 36.002,291.99 z"
       id="path2604" />
    <path
       style="fill:#5ab532;stroke:#000000;stroke-width:3;stroke-linecap:round;stroke-linejoin:round"
       d="M 162.31,295.796 L 126.222,299.038 L 109.023,290.439 L 110.715,281.558 L 118.046,285.646 L 109.235,276.835 C 109.235,276.835 114.663,271.408 115.79,265.91 C 115.79,265.91 126.081,263.654 126.081,255.619 C 126.081,255.619 136.795,259.707 143.844,248.429 C 143.844,248.429 149.623,258.579 161.323,255.76 C 161.323,255.76 159.561,268.658 170.345,272.113 L 159.632,278.88 L 171.614,274.369 L 174.682,281.657 L 162.31,295.796 z"
       id="path2606" />
    <line
       style="fill:none;stroke:#000000;stroke-width:3;stroke-linecap:round;stroke-linejoin:round"
       x1="127.632"
       y1="279.58401"
       x2="115.78999"
       y2="265.91101"
       id="line2608" />
    <line
       style="fill:none;stroke:#000000;stroke-width:3;stroke-linecap:round;stroke-linejoin:round"
       x1="135.38499"
       y1="275.35501"
       x2="126.054"
       y2="256.30301"
       id="line2610" />
    <line
       style="fill:none;stroke:#000000;stroke-width:3;stroke-linecap:round;stroke-linejoin:round"
       x1="143.138"
       y1="275.21399"
       x2="143.843"
       y2="248.43001"
       id="line2612" />
    <line
       style="fill:none;stroke:#000000;stroke-width:3;stroke-linecap:round;stroke-linejoin:round"
       x1="150.187"
       y1="276.483"
       x2="161.323"
       y2="255.761"
       id="line2614" />
    <path
       style="fill:none;stroke:#000000;stroke-width:3;stroke-linecap:round;stroke-linejoin:round"
       d="M 175.486,254.238 C 176.338,256.467 177.483,258.252 178.662,258.862 C 182.75,260.977 184.512,264.29 182.75,266.052"
       id="path2616" />
    <path
       style="fill:none;stroke:#000000;stroke-width:3;stroke-linecap:round;stroke-linejoin:round"
       d="M 82.945003,293.54 C 82.945003,293.54 81.394003,299.038 74.909003,303.267"
       id="path2618" />
    <path
       style="fill:none;stroke:#000000;stroke-width:3;stroke-linecap:round;stroke-linejoin:round"
       d="M 61.377003,297.206 C 61.377003,297.206 67.673003,295.843 70.116003,293.4"
       id="path2620" />
    <line
       style="fill:none;stroke:#000000;stroke-width:3;stroke-linecap:round;stroke-linejoin:round"
       x1="167.573"
       y1="298.66299"
       x2="175.77299"
       y2="306.862"
       id="line2622" />
    <line
       style="fill:none;stroke:#000000;stroke-width:3;stroke-linecap:round;stroke-linejoin:round"
       x1="204.694"
       y1="298.66299"
       x2="212.89499"
       y2="306.862"
       id="line2624" />
    <line
       style="fill:none;stroke:#000000;stroke-width:3;stroke-linecap:round;stroke-linejoin:round"
       x1="186.134"
       y1="298.66299"
       x2="194.334"
       y2="306.862"
       id="line2626" />
    <path
       style="fill:none;stroke:#000000;stroke-width:3;stroke-linecap:round;stroke-linejoin:round"
       d="M 129.887,292.694 C 129.887,292.694 140.6,284.518 157.658,290.156"
       id="path2628" />
    <path
       d="M 190.644,265.347 C 190.644,265.347 194.294,264.063 197.834,267.602 C 199.244,269.012 198.116,272.818 198.116,272.818 C 198.116,272.818 192.477,272.818 190.644,265.347 z"
       id="path2630" />
    <path
       style="fill:none;stroke:#000000;stroke-width:3;stroke-linecap:round;stroke-linejoin:round"
       d="M 70.973003,292.481 C 70.973003,292.481 67.121003,292.589 67.121003,289.206 C 67.121003,286.246 69.270003,285.364 71.103003,285.364 C 72.935003,285.364 75.003003,289.03 70.116003,293.4"
       id="path2632" />
    <circle
       sodipodi:ry="2.678"
       sodipodi:rx="2.678"
       sodipodi:cy="288.81799"
       sodipodi:cx="70.115997"
       cx="70.115997"
       cy="288.81799"
       r="2.678"
       id="circle2634" />
    <path
       style="fill:#e20909;stroke:#000000;stroke-width:3;stroke-linecap:round;stroke-linejoin:round"
       d="M 69.976003,186.545 C 75.051003,183.867 83.790003,174 120.583,174 C 122.39,174 124.087,173.951 125.703,173.869 L 101.972,142.221 L 76.319003,165.4 L 57.908003,180.179 C 60.985003,183.256 63.911003,185.724 66.658003,187.719 C 68.043003,187.339 69.182003,186.965 69.976003,186.545 z"
       id="path2638" />
    <path
       style="fill:#e20909;stroke:#000000;stroke-width:3;stroke-linecap:round;stroke-linejoin:round"
       d="M 96.196003,123.25 C 91.121003,125.224 74.157003,106.005 62.881003,106.005 C 51.605003,106.005 38.569,105.03 29.8,122.922 C 25.101,132.508 39.198,142.469 44.837003,144.537 C 50.476003,146.604 52.543003,153.37 43.897003,159.95 C 35.251,166.528 31.868,177.429 44.461003,180.249 C 57.054003,183.069 73.219003,176.678 86.564003,165.588 C 91.357003,161.547 102.146,153.712 102.146,153.712 L 96.196003,123.25"
       id="path2640" />
    <path
       style="fill:#ffffff;stroke:#000000;stroke-width:3;stroke-linecap:round;stroke-linejoin:round"
       d="M 105.547,98.300002 C 105.547,98.300002 104.608,81.948002 121.9,78.189002 L 123.591,87.962002 C 123.591,87.962002 114.005,86.646002 105.547,98.300002 z"
       id="path2642" />
    <polygon
       style="fill:#ffffff;stroke:#000000;stroke-width:3;stroke-linecap:round;stroke-linejoin:round"
       points="121.899,78.188 127.35,78 123.591,87.962 121.899,78.188 "
       id="polygon2644" />
    <path
       style="fill:#ffffff;stroke:#000000;stroke-width:3;stroke-linecap:round;stroke-linejoin:round"
       d="M 123.591,87.962002 C 123.591,87.962002 114.005,86.646002 105.547,98.300002 C 105.547,106.194 107.614,107.133 107.614,107.133 C 107.614,107.133 112.689,98.675002 124.531,98.675002 C 127.914,98.675002 130.546,101.306 130.546,101.306 C 130.546,101.306 132.801,90.781002 123.591,87.962002 z"
       id="path2646" />
    <path
       style="fill:#ffffff;stroke:#000000;stroke-width:3;stroke-linecap:round;stroke-linejoin:round"
       d="M 107.614,107.133 C 107.614,107.133 104.583,109.929 107.614,112.96 C 107.614,112.96 109.529,116.346 112.582,118.276 C 114.253,119.334 115.368,123.673 119.033,123.673 C 121.712,123.673 123.826,120.29 126.152,119.233 C 128.478,118.175 129.324,112.678 129.324,110 C 129.324,107.321 130.546,104.456 130.546,101.307 C 130.546,101.307 127.914,98.676002 124.531,98.676002 C 112.689,98.675002 107.614,107.133 107.614,107.133 z"
       id="path2648" />
    <path
       style="fill:none;stroke:#000000;stroke-width:3;stroke-linecap:round;stroke-linejoin:round"
       d="M 115.368,108.59 C 115.368,108.59 116.566,108.096 117.059,108.59"
       id="path2650" />
    <path
       style="fill:none;stroke:#000000;stroke-width:3;stroke-linecap:round;stroke-linejoin:round"
       d="M 123.121,108.59 C 123.121,108.59 124.319,108.096 124.813,108.59"
       id="path2652" />
    <path
       style="fill:none;stroke:#000000;stroke-width:3;stroke-linecap:round;stroke-linejoin:round"
       d="M 118.468,116.062 C 118.468,116.062 119.596,115.357 120.301,116.062"
       id="path2654" />
    <path
       style="fill:#ffffff;stroke:#000000;stroke-width:3;stroke-linecap:round;stroke-linejoin:round"
       d="M 142.715,125.365 L 129.605,124.238 L 137.677,136.814 L 145.769,142.47 C 149.904,142.47 153.476,143.974 153.476,143.974 C 155.13,145.077 157.026,145.497 158.881,145.557 C 159.089,142.453 159.54,139.621 160.161,137.052 C 157.829,136.809 155.274,135.906 153.006,133.637 C 146.803,127.433 142.715,125.365 142.715,125.365 z"
       id="path2656" />
    <path
       style="fill:#e20909;stroke:#000000;stroke-width:3;stroke-linecap:round;stroke-linejoin:round"
       d="M 120.666,123.266 C 120.142,123.516 119.601,123.674 119.033,123.674 C 115.368,123.674 114.254,119.334 112.582,118.277 C 112.286,118.09 112.004,117.886 111.731,117.676 L 111.729,117.675 C 103.438,117.675 96.196003,123.251 96.196003,123.251 C 101.059,126.564 101.411,130.018 101.411,130.018 C 101.411,130.018 103.385,129.504 114.43,129.504 C 125.475,129.503 120.666,123.266 120.666,123.266 L 120.666,123.266 z"
       id="path2658" />
    <path
       style="fill:#e20909;stroke:#000000;stroke-width:3;stroke-linecap:round;stroke-linejoin:round"
       d="M 126.891,118.7 C 126.663,118.927 126.418,119.113 126.151,119.234 C 124.318,120.067 122.616,122.338 120.666,123.266 L 120.666,123.266 C 120.666,123.266 121.147,129.171 128.196,128.043 C 135.244,126.916 137.217,125.365 142.716,125.365 C 142.715,125.365 135.854,121.074 126.891,118.7 z"
       id="path2660" />
    <path
       style="fill:#ffffff;stroke:#000000;stroke-width:3;stroke-linecap:round;stroke-linejoin:round"
       d="M 139.146,176.205 L 146.804,176.205 C 146.804,176.205 143.702,166.528 151.033,166.528 C 151.033,166.528 145.817,163.709 145.817,161.312 C 145.817,158.916 145.817,154.898 141.799,154.898 C 137.781,154.898 140.319,157.506 135.526,159.856 C 133.343,160.926 135.526,159.856 135.526,159.856 L 127.257,168.126 L 132.707,176.205 L 139.146,176.205 L 139.146,176.205 z"
       id="path2662" />
    <path
       style="fill:#ffffff;stroke:#000000;stroke-width:3;stroke-linecap:round;stroke-linejoin:round"
       d="M 135.808,143.598 C 140.695,136.643 134.513,126.681 134.513,126.681 L 122.295,124.99 L 101.411,130.017 L 101.411,142.726 L 100.284,149.189 L 108.639,159.856 L 134.305,159.856 L 135.808,143.598 z"
       id="path2664" />
    <path
       style="fill:#ffffff;stroke:#000000;stroke-width:3;stroke-linecap:round;stroke-linejoin:round"
       d="M 100.22,151.115 C 100.22,151.115 98.028003,158.258 96.149003,158.258 C 94.270003,158.258 87.691003,153.935 84.684003,145.477 C 81.676003,137.019 83.180003,137.019 83.180003,137.019 C 83.180003,137.019 86.244003,136.906 88.222003,134.927 L 100.22,151.115 z"
       id="path2666" />
    <path
       style="fill:#ffffff;stroke:#000000;stroke-width:3;stroke-linecap:round;stroke-linejoin:round"
       d="M 96.196003,123.25 C 96.196003,123.25 87.270003,120.485 87.270003,133.642 L 100.22,151.115 C 100.22,151.115 103.478,143.503 101.411,130.017 C 101.411,130.017 101.059,126.563 96.196003,123.25 z"
       id="path2668" />
    <path
       style="fill:#ffffff;stroke:#000000;stroke-width:3;stroke-linecap:round;stroke-linejoin:round"
       d="M 134.961,213.893 C 134.961,213.893 134.116,217.135 131.719,217.135 C 129.322,217.135 134.115,222.492 134.115,226.157 C 134.115,229.823 137.216,229.823 138.485,228.554 C 139.754,227.285 137.216,221.928 137.216,220.378 C 137.216,218.827 138.978,217.911 138.978,217.911 L 134.961,213.893 z"
       id="path2670" />
    <path
       style="fill:#ffffff;stroke:#000000;stroke-width:3;stroke-linecap:round;stroke-linejoin:round"
       d="M 134.305,159.856 L 134.305,159.856 C 134.305,159.856 136.725,161.92 135.864,164.781 C 134.967,167.759 132.848,170.052 136.654,173.859 C 140.037,177.242 150.187,185.136 150.187,194.441 C 150.187,198.388 139.755,218.688 139.755,218.688 L 134.116,213.049 C 134.116,213.049 135.243,202.899 140.6,195.006 C 140.6,195.006 127.532,187.967 120.278,178.179 C 113.023,168.391 108.638,159.858 108.638,159.858 L 134.305,159.858 L 134.305,159.856 z"
       id="path2672" />
    <polygon
       style="fill:none;stroke:#000000;stroke-width:3;stroke-linecap:round;stroke-linejoin:round"
       points="61.729,94.423 165.975,239.831 59.403,96.044 61.729,94.423 "
       id="polygon2674" />
    <path
       style="fill:none;stroke:#000000;stroke-width:3;stroke-linecap:round;stroke-linejoin:round"
       d="M 122.295,126.654 C 122.295,126.654 127.894,138.146 125.094,157.506"
       id="path2676" />
    <path
       style="fill:none;stroke:#000000;stroke-width:3;stroke-linecap:round;stroke-linejoin:round"
       d="M 109.494,146.041 C 109.494,146.041 119.268,147.168 125.804,143.77 C 130.922,145.853 135.808,143.597 135.808,143.597"
       id="path2678" />
    <path
       style="fill:#ffffff;stroke:#000000;stroke-width:3;stroke-linecap:round;stroke-linejoin:round"
       d="M 128.336,166.951 C 128.336,166.951 133.904,171.109 136.653,173.858"
       id="path2680" />
    <path
       style="fill:none;stroke:#000000;stroke-width:3;stroke-linecap:round;stroke-linejoin:round"
       d="M 188.902,162.404 C 192.6,163.611 196.527,163.278 200.464,160.325"
       id="path2682" />
    <path
       style="fill:none;stroke:#000000;stroke-width:3;stroke-linecap:round;stroke-linejoin:round"
       d="M 197.082,151.492 C 197.082,151.492 181.821,190.485 153.664,159.95 C 149.684,155.634 152.21,148.829 160.863,142.793"
       id="path2684" />
    <path
       style="fill:#ffffff;stroke:#000000;stroke-width:3;stroke-linecap:round;stroke-linejoin:round"
       d="M 88.222003,134.927 C 88.222003,134.927 85.998003,131.847 87.490003,130.356 C 87.490003,130.356 87.635003,126.598 83.442003,124.709 C 83.442003,124.709 76.720003,130.559 83.180003,137.019 C 83.180003,137.019 86.244003,136.905 88.222003,134.927 z"
       id="path2686" />
    <path
       d="M 249.5,1.5 L 249.5,306.938 L 1.5,306.938 L 1.5,410.969 L 249.5,410.969 L 249.5,756.969 C 266.394,759.933 283.761,761.5 301.5,761.5 C 319.207,761.5 336.541,759.923 353.406,756.969 L 353.406,410.969 L 601.5,410.969 L 601.5,306.938 L 353.406,306.938 L 353.406,1.5 L 249.5,1.5 z"
       id="path1896"
       style="fill:#e20909;stroke:#000000;stroke-width:2.75" />
  </g>
  <g
     inkscape:groupmode="layer"
     id="layer3"
     inkscape:label="Reflet final"
     style="display:inline"
     sodipodi:insensitive="true">
    <path
       style="fill:url(#radialGradient3236);fill-opacity:1"
       d="M 1.5,1.5 L 1.5,460.3679 C 1.5,626.67854 135.81454,761.5 301.49993,761.5 C 467.1854,761.5 601.5,626.67854 601.5,460.3679 L 601.5,1.5 L 1.5,1.5 z "
       id="path2346" />
  </g>
  <g
     inkscape:groupmode="layer"
     id="layer4"
     inkscape:label="Contour final"
     style="display:inline"
     sodipodi:insensitive="true">
    <path
       style="fill:none;fill-opacity:1;stroke:#000000;stroke-width:3;stroke-miterlimit:4;stroke-dasharray:none;stroke-opacity:1"
       d="M 1.5,1.5 L 1.5,460.36794 C 1.5,626.67854 135.81454,761.5 301.49993,761.5 C 467.1854,761.5 601.5,626.67854 601.5,460.36794 L 601.5,1.5 L 1.5,1.5 z "
       id="path3239" />
  </g>
</svg>
