<?xml version="1.0" encoding="UTF-8"?>
<svg version="1.0" viewBox="0 0 603 763" xmlns="http://www.w3.org/2000/svg" xmlns:cc="http://creativecommons.org/ns#" xmlns:dc="http://purl.org/dc/elements/1.1/" xmlns:rdf="http://www.w3.org/1999/02/22-rdf-syntax-ns#" xmlns:xlink="http://www.w3.org/1999/xlink">
<metadata>
<rdf:RDF>
<cc:Work rdf:about="">
<dc:format>image/svg+xml</dc:format>
<dc:type rdf:resource="http://purl.org/dc/dcmitype/StillImage"/>
<dc:date>07-AUG-2006</dc:date>
<dc:creator>
<cc:Agent>
<dc:title>Jérôme BLUM (wagner51)</dc:title>
</cc:Agent>
</dc:creator>
<cc:license rdf:resource="http://creativecommons.org/licenses/GPL/2.0/"/>
<dc:coverage/>
<dc:description>Gabarit pour le Projet:Blasons de WIkipédia</dc:description>
<dc:subject>
<rdf:Bag>
<rdf:li>blason suisse modèle gabarit projet blasons</rdf:li>
</rdf:Bag>
</dc:subject>
<dc:language>fr</dc:language>
<dc:title>Gabrit d'un blason suisse</dc:title>
</cc:Work>
<cc:License rdf:about="http://creativecommons.org/licenses/GPL/2.0/">
<cc:permits rdf:resource="http://web.resource.org/cc/Reproduction"/>
<cc:permits rdf:resource="http://web.resource.org/cc/Distribution"/>
<cc:requires rdf:resource="http://web.resource.org/cc/Notice"/>
<cc:permits rdf:resource="http://web.resource.org/cc/DerivativeWorks"/>
<cc:requires rdf:resource="http://web.resource.org/cc/ShareAlike"/>
<cc:requires rdf:resource="http://web.resource.org/cc/SourceCode"/>
</cc:License>
</rdf:RDF>
</metadata>
<defs>
<radialGradient id="a" cx="858.04" cy="579.93" r="300" gradientTransform="matrix(1.215 1.5316e-24 1.4647e-23 1.2667 -839.19 -490.49)" gradientUnits="userSpaceOnUse">
<stop stop-color="#fff" stop-opacity=".31373" offset="0"/>
<stop stop-color="#fff" stop-opacity=".25098" offset=".19"/>
<stop stop-color="#6b6b6b" stop-opacity=".12549" offset=".6"/>
<stop stop-opacity=".12549" offset="1"/>
</radialGradient>
</defs>
<desc>Coat of Arms of Canton of Freiburg (Fribourg)</desc>
<g>
<path d="m1.5 1.5v458.87c0 166.31 134.31 301.13 300 301.13s300-134.82 300-301.13v-458.87h-600z" fill="#2b5df2"/>
</g>
<g>
<path d="m220.17 95.309s-21.343 3.831-54.724 3.831c-53.082 0-91.388-12.586-113.82-20.248 0 0 18.606 44.326 76.613 54.724 58.007 10.397 134.62-1.642 134.62-1.642l19.701-8.756-12.587-12.586-49.798-15.323z" fill="#fff" stroke="#000" stroke-linecap="round" stroke-linejoin="round" stroke-width="3"/>
<path d="m220.17 130.33s-71.689 10.397-160.89-13.68c0 0 27.909 49.251 92.482 55.271 64.574 6.019 134.07-22.984 134.07-22.984l-65.667-18.607z" fill="#fff" stroke="#000" stroke-linecap="round" stroke-linejoin="round" stroke-width="3"/>
<path d="m240.5 160.34-6.293-6.293s-70.411 29.368-163.44 2.553c0 0 26.268 50.347 101.24 50.347s90.567-15.597 90.567-15.597l24.899-6.841-21.616-21.615-25.355-2.554z" fill="#fff" stroke="#000" stroke-linecap="round" stroke-linejoin="round" stroke-width="3"/>
<path d="m251.36 183.42s-71.141 36.118-165.26 18.058c0 0 27.361 46.516 110.54 34.476 83.18-12.039 86.555-31.831 86.555-31.831l-31.831-20.703z" fill="#fff" stroke="#000" stroke-linecap="round" stroke-linejoin="round" stroke-width="3"/>
<path d="m268.87 208.59s-44.326 27.362-154.32 31.74c0 0 43.232 33.929 108.35 20.248s82.633-37.759 82.633-37.759l-36.665-14.229z" fill="#fff" stroke="#000" stroke-linecap="round" stroke-linejoin="round" stroke-width="3"/>
<path d="m273.52 225.28s-38.581 38.033-126.69 42.411c0 0 44.874 25.173 103.98 12.586 59.102-12.586 59.102-30.645 59.102-30.645l-36.391-24.352z" fill="#fff" stroke="#000" stroke-linecap="round" stroke-linejoin="round" stroke-width="3"/>
<path d="m295.14 246.89s-20.795 32.834-107.26 44.326c0 0 37.576 21.89 83.727 6.567 46.15-15.323 46.15-22.984 46.15-22.984l-22.619-27.909z" fill="#fff" stroke="#000" stroke-linecap="round" stroke-linejoin="round" stroke-width="3"/>
<path d="m301.7 279.73s-41.589 22.983-76.065 28.456c0 0 44.874 22.437 88.105 0.548l18.15-34.931-30.19 5.927z" fill="#fff" stroke="#000" stroke-linecap="round" stroke-linejoin="round" stroke-width="3"/>
<path d="m275.48 259.43c9.349 26.313 27.18 27.181 27.18 27.181-5.883-0.045-10.079-0.867-10.079-0.867 10.581 10.581 25.172 12.04 25.172 12.04l66.399-75.519s-16.782-3.283-35.389-3.283-31.374-8.39-31.374-18.605c0-9.122 8.025-15.688 44.143-36.118s41.591-43.779 41.591-52.535-13.133-26.997-42.319-26.997c-59.832 0-57.643 12.404-97.773 12.404-43.778 0-59.101-13.134-59.101-13.134s18.969 40.132 66.397 40.132c0 0-37.212 11.309-57.278 0 0 0 9.439 28.589 41.538 32.198 0 0-10.528-0.458-22.932-4.836 0 0 9.486 24.809 46.698 31.74 0 0-22.619-0.366-47.792-10.581 0 0 11.674 16.417 19.701 16.417 0 0-8.755 0.729-15.688-1.824 0 0 13.889 26.009 38.304 26.137 0 0-8.023 0.86-20.063-2.788 0 0 9.121 32.104 53.994 29.186 0 0-19.7 4.378-45.967-6.567 0 0 13.686 29.329 51.813 31.039 0-2e-3 -12.867 0.424-37.175-4.82z" fill="#fff" stroke="#000" stroke-linecap="round" stroke-linejoin="round" stroke-width="3"/>
<path d="m302.66 286.61c5.884 0.046 13.453-0.684 20.202-3.785" fill="#fff" stroke="#000" stroke-linecap="round" stroke-linejoin="round" stroke-width="3"/>
<path d="m254.59 156.33c5.233 0.588 11.069 0.513 17.564-0.458" fill="#fff" stroke="#000" stroke-linecap="round" stroke-linejoin="round" stroke-width="3"/>
<path d="m272.88 213.38c4.931 0.025 10.292-1.005 16.055-3.519" fill="#fff" stroke="#000" stroke-linecap="round" stroke-linejoin="round" stroke-width="3"/>
<path d="m312.66 264.25c5.447 0.245 11.394-0.075 17.868-1.124" fill="#fff" stroke="#000" stroke-linecap="round" stroke-linejoin="round" stroke-width="3"/>
<path d="m314.48 88.589c20.518-4.867 54.216 11.874 54.216 28.108 0 13.635-8.161 24.58-31.967 30.782-24.061 6.269-37.576 31.375-37.576 31.375" fill="#fff" stroke="#000" stroke-linecap="round" stroke-linejoin="round" stroke-width="3"/>
<path d="m531.91 389.72s-1.823 42.686-42.318 136.08c-40.496 93.394-59.466 114.19-73.329 131.7 0 0-2.19-43.413 16.051-85.732 18.242-42.319 47.429-125.86 47.429-125.86l21.889-60.925 0.364-20.43h19.7l10.214 25.172z" fill="#fff" stroke="#000" stroke-linecap="round" stroke-linejoin="round" stroke-width="3"/>
<path d="m503.63 393.55s-7.661 39.401-34.475 108.35c-26.815 68.952-45.968 98.685-53.995 111.09-8.026 12.405-5.838 20.431-5.838 20.431s-14.957-28.093 0-71.87c14.958-43.779 41.227-117.11 41.227-117.11l14.774-39.948 9.303-20.795 2.736-24.626h12.586l13.682 34.474z" fill="#fff" stroke="#000" stroke-linecap="round" stroke-linejoin="round" stroke-width="3"/>
<path d="m470.25 374.4 3.649 20.431s-11.555 36.291-29.551 85.734c-41.555 114.16-50.712 114.92-50.712 128.05 0 0-13.133-41.225 1.094-88.288 14.229-47.062 51.806-137.9 51.806-137.9l13.862-32.834 9.852 24.807z" fill="#fff" stroke="#000" stroke-linecap="round" stroke-linejoin="round" stroke-width="3"/>
<path d="m439.78 351.95 8.756 36.118s-12.404 17.511-34.293 76.247c-21.89 58.737-22.892 71.157-24.442 79.532-2.317 12.507-13.227 30.839-11.857 49.445 0 0-29.005-62.214-2.736-147.04 26.266-84.821 54.175-107.26 54.175-107.26l10.397 12.952z" fill="#fff" stroke="#000" stroke-linecap="round" stroke-linejoin="round" stroke-width="3"/>
<path d="m422.83 375.86s-13.135 16.053-31.011 60.561-18.602 54.748-21.524 66.763c-2.923 12.017-8.026 16.417-10.216 36.482 0 0-15.321-77.344 10.216-129.88s42.685-69.681 42.685-69.681l9.85 35.753z" fill="#fff" stroke="#000" stroke-linecap="round" stroke-linejoin="round" stroke-width="3"/>
<path d="m411.7 347.58s-19.518 29.003-32.651 56.365c-13.134 27.362-22.983 39.036-25.174 50.346 0 0 3.649-66.763 27.727-90.841 24.08-24.079 37.943-28.821 37.943-28.821l-7.845 12.951z" fill="#fff" stroke="#000" stroke-linecap="round" stroke-linejoin="round" stroke-width="3"/>
<path d="m443.99 297.24s2.188 22.984 14.774 22.984c12.587 0 20.233-23.517 37.212-40.495 14.228-14.229 20.521-16.144 28.729-16.144 8.482 0 28.184 12.586 28.184 43.505 0 54.724-23.257 51.167-9.851 111.09 0 0-31.466-15.322-36.939-44.326 0 0-0.547 21.616 4.926 33.381 0 0-26.814-10.124-29.003-37.485 0 0-7.114 12.86-2.736 32.013 0 0-18.881-8.208-18.881-39.4 0 0-7.112 9.577-5.198 36.392 0 0-21.068-12.587-21.068-41.043 0 0-10.67 5.472-8.208 26.267 0 0-18.425-15.048-16.965-43.869l35.024-42.868z" fill="#fff" stroke="#000" stroke-linecap="round" stroke-linejoin="round" stroke-width="3"/>
<path d="m505 156.7c0.788-9.392-0.414-19.034-1.545-20.164-3.102-3.102-13.862 2.188-22.983 7.661s-51.44 29.185-89.383 62.75c-37.941 33.563-100.88 115.47-127.14 159.79s-36.938 84.547-61.29 108.9-33.381 30.646-36.665 30.646-42.138-2.188-79.896 35.571c0 0 20.794-6.021 39.948 7.66 19.153 13.682 30.098 16.418 53.082-1.094 0 0-19.701 26.814 3.831 44.873s15.87 41.589 15.87 41.589 24.079-15.869 24.079-71.14c0-35.023 33.382-73.33 70.594-110.54 37.211-37.213 62.568-53.995 103.06-91.207s64.208-64.573 81.356-91.936c17.146-27.362 49.616-87.74 49.616-98.32 0-7.296-4.926-9.485-6.02-9.485 0 0-0.092 2.827-2.919 5.654-2.827 2.828-14.047 9.668-30.099 46.15 0 4e-3 14.777-36.844 16.503-57.358z" fill="#fff" stroke="#000" stroke-linecap="round" stroke-linejoin="round" stroke-width="3"/>
<path d="m480.47 144.2s11.126 11.126 8.025 69.864" fill="none" stroke="#000" stroke-linecap="round" stroke-linejoin="round" stroke-width="3"/>
<path d="m398.02 223.73s10.11 64.734 80.756 44.954" fill="none" stroke="#000" stroke-linecap="round" stroke-linejoin="round" stroke-width="3"/>
<circle cx="440.7" cy="205.73" r="16.691" fill="none" stroke="#000" stroke-linecap="round" stroke-linejoin="round" stroke-width="3"/>
<ellipse transform="matrix(.6057 .7957 -.7957 .6057 337.67 -269.4)" cx="440.65" cy="205.99" rx="6.778" ry="9.644"/>
</g>
<g>
<path d="m1.5 1.5v458.87c0 166.31 134.31 301.13 300 301.13 165.69 0 300-134.82 300-301.13v-458.87h-600z" fill="url(#a)"/>
<path d="m1.5 1.5v458.87c0 166.31 134.31 301.13 300 301.13 165.69 0 300-134.82 300-301.13v-458.87h-600z" fill="none" stroke="#000" stroke-width="3"/>
</g>
</svg>
