<?xml version="1.0" encoding="UTF-8" standalone="no"?>
<svg
   xmlns:dc="http://purl.org/dc/elements/1.1/"
   xmlns:cc="http://creativecommons.org/ns#"
   xmlns:rdf="http://www.w3.org/1999/02/22-rdf-syntax-ns#"
   xmlns:svg="http://www.w3.org/2000/svg"
   xmlns="http://www.w3.org/2000/svg"
   xmlns:xlink="http://www.w3.org/1999/xlink"
   xmlns:sodipodi="http://sodipodi.sourceforge.net/DTD/sodipodi-0.dtd"
   xmlns:inkscape="http://www.inkscape.org/namespaces/inkscape"
   height="763"
   width="603"
   version="1.0"
   id="svg20"
   sodipodi:version="0.32"
   inkscape:version="0.46"
   sodipodi:docname="Lavertezzo-coat_of_arms.svg"
   sodipodi:docbase="C:\Documents and Settings\Steve\Bureau\Blason Villages Suisse pour Wikipédia (par Delta-9)"
   inkscape:output_extension="org.inkscape.output.svg.inkscape">
  <metadata
     id="metadata31">
    <rdf:RDF>
      <cc:Work
         rdf:about="">
        <dc:format>image/svg+xml</dc:format>
        <dc:type
           rdf:resource="http://purl.org/dc/dcmitype/StillImage" />
        <dc:date>07-AUG-2006</dc:date>
        <dc:creator>
          <cc:Agent>
            <dc:title>Jérôme BLUM (wagner51)</dc:title>
          </cc:Agent>
        </dc:creator>
        <cc:license
           rdf:resource="http://creativecommons.org/licenses/GPL/2.0/" />
        <dc:coverage />
        <dc:description>Gabarit pour le Projet:Blasons de WIkipédia</dc:description>
        <dc:subject>
          <rdf:Bag>
            <rdf:li>blason suisse modèle gabarit projet blasons</rdf:li>
          </rdf:Bag>
        </dc:subject>
        <dc:language>fr</dc:language>
        <dc:title>Gabrit d'un blason suisse</dc:title>
      </cc:Work>
      <cc:License
         rdf:about="http://creativecommons.org/licenses/GPL/2.0/">
        <cc:permits
           rdf:resource="http://web.resource.org/cc/Reproduction" />
        <cc:permits
           rdf:resource="http://web.resource.org/cc/Distribution" />
        <cc:requires
           rdf:resource="http://web.resource.org/cc/Notice" />
        <cc:permits
           rdf:resource="http://web.resource.org/cc/DerivativeWorks" />
        <cc:requires
           rdf:resource="http://web.resource.org/cc/ShareAlike" />
        <cc:requires
           rdf:resource="http://web.resource.org/cc/SourceCode" />
      </cc:License>
    </rdf:RDF>
  </metadata>
  <defs
     id="defs29"><inkscape:perspective
   sodipodi:type="inkscape:persp3d"
   inkscape:vp_x="0 : 381.5 : 1"
   inkscape:vp_y="0 : 1000 : 0"
   inkscape:vp_z="603 : 381.5 : 1"
   inkscape:persp3d-origin="301.5 : 254.33333 : 1"
   id="perspective28" />
<linearGradient
   id="linearGradient2893">
  <stop
     style="stop-color:#ffffff;stop-opacity:0.3137255;"
     offset="0"
     id="stop2895" />
  <stop
     id="stop2897"
     offset="0.19"
     style="stop-color:#ffffff;stop-opacity:0.25098041;" />
  <stop
     style="stop-color:#6b6b6b;stop-opacity:0.1254902;"
     offset="0.60000002"
     id="stop2901" />
  <stop
     style="stop-color:#000000;stop-opacity:0.1254902;"
     offset="1"
     id="stop2899" />
</linearGradient>
<linearGradient
   id="linearGradient2955">
  <stop
     style="stop-color:white;stop-opacity:0;"
     offset="0"
     id="stop2965" />
  <stop
     style="stop-color:black;stop-opacity:0.64583331;"
     offset="1"
     id="stop2959" />
</linearGradient>
<radialGradient
   inkscape:collect="always"
   xlink:href="#linearGradient2893"
   id="radialGradient3236"
   gradientUnits="userSpaceOnUse"
   gradientTransform="matrix(1.215027,1.531577e-24,1.464684e-23,1.266667,-839.1924,-490.4894)"
   cx="858.04236"
   cy="579.93323"
   fx="858.04236"
   fy="579.93323"
   r="300" />
<inkscape:perspective
   id="perspective2763"
   inkscape:persp3d-origin="306 : 264 : 1"
   inkscape:vp_z="612 : 396 : 1"
   inkscape:vp_y="0 : 1000 : 0"
   inkscape:vp_x="0 : 396 : 1"
   sodipodi:type="inkscape:persp3d" />

	
	

	

		
		
		
	
		
		
		
		
	
			
			
			
			
		
			
			
			
			
			
		
			
			
			
			
			
			
			
			
		
			
			
			
			
			
			
			
			
		
			
			
			
			
		
			
			
			
		
			
			
			
			
		
				
				
				
				
				
				
				
				
				
				
			
				
				
				
				
				
			
				
				
				
				
				
			
				
				
				
				
				
				
				
				
				
				
			</defs>
  <sodipodi:namedview
     inkscape:window-height="786"
     inkscape:window-width="1257"
     inkscape:pageshadow="2"
     inkscape:pageopacity="0.0"
     guidetolerance="10.0"
     gridtolerance="10.0"
     objecttolerance="10.0"
     borderopacity="1.0"
     bordercolor="#666666"
     pagecolor="#ffffff"
     id="base"
     inkscape:zoom="0.47223172"
     inkscape:cx="378.32592"
     inkscape:cy="301.43041"
     inkscape:window-x="1289"
     inkscape:window-y="136"
     inkscape:current-layer="layer2"
     showgrid="false"
     showguides="true"
     inkscape:guide-bbox="true">
    <sodipodi:guide
       orientation="horizontal"
       position="761.5"
       id="guide1885" />
    <sodipodi:guide
       orientation="vertical"
       position="1.5"
       id="guide1887" />
    <sodipodi:guide
       orientation="horizontal"
       position="1.5"
       id="guide1889" />
    <sodipodi:guide
       orientation="vertical"
       position="601.5"
       id="guide1891" />
    <sodipodi:guide
       orientation="vertical"
       position="301.50081"
       id="guide1893" />
  </sodipodi:namedview>
  <desc
     id="desc22">Coat of Arms of Canton of Freiburg (Fribourg)</desc>
  <g
     inkscape:groupmode="layer"
     id="layer1"
     inkscape:label="Fond écu"
     style="opacity:1"
     sodipodi:insensitive="true">
    <path
       d="M 1.5,1.5 L 1.5,460.368 C 1.5,626.679 135.814,761.5 301.5,761.5 C 467.186,761.5 601.5,626.679 601.5,460.368 L 601.5,1.5 L 1.5,1.5 z"
       id="path2770"
       style="opacity:1;fill:#2b5df2" />
  </g>
  <g
     inkscape:groupmode="layer"
     id="layer2"
     inkscape:label="Meubles"
     style="opacity:1"
     sodipodi:insensitive="true">
    <g
       id="g3250">
      <path
         style="fill:#ffffff;stroke:#000000;stroke-width:3;stroke-linecap:round;stroke-linejoin:round"
         d="M 54.833,492.377 C 54.833,492.377 102.741,424.369 92.843,344.291 L 106.304,270.65 L 120.557,256.164 L 152.035,224.173 L 240.525,255.359 L 260.718,271.858 L 234.191,318.94 C 234.191,318.94 225.481,308.477 225.481,321.756 C 225.481,335.035 229.439,387.75 185.887,426.784 C 185.887,426.784 209.247,382.922 192.222,337.047 C 192.222,337.047 203.308,413.505 146.294,452.135 C 146.294,452.135 168.916,404.275 160.773,340.078 C 160.773,340.078 174.01,448.514 99.97,476.28 C 99.97,476.28 137.188,419.942 129.269,354.35 C 129.269,354.351 138.375,452.942 54.833,492.377 z"
         id="path2612" />
      <path
         style="fill:#ffffff;stroke:#000000;stroke-width:3;stroke-linecap:round;stroke-linejoin:round"
         d="M 170.842,245.701 C 170.842,245.701 182.72,312.501 156.589,346.303 C 156.589,346.303 207.268,329.804 196.974,251.737 L 170.842,245.701 z"
         id="path2614" />
      <path
         style="fill:#ffffff;stroke:#000000;stroke-width:3;stroke-linecap:round;stroke-linejoin:round"
         d="M 147.482,207.472 C 147.482,207.472 160.943,304.855 124.122,351.131 C 124.122,351.131 178.959,342.479 175.594,246.908 L 147.482,207.472 z"
         id="path2616" />
      <path
         style="fill:#ffffff;stroke:#000000;stroke-width:3;stroke-linecap:round;stroke-linejoin:round"
         d="M 147.482,217.13 C 147.482,217.13 164.111,318.134 92.447,366.423 C 92.447,366.423 125.706,326.988 109.076,246.506 L 141.15,194.183 L 147.482,217.13 z"
         id="path2618" />
      <path
         style="fill:#ffffff;stroke:#000000;stroke-width:3;stroke-linecap:round;stroke-linejoin:round"
         d="M 86.112,258.176 C 86.112,258.176 95.219,328.597 58.793,383.324 C 58.793,383.324 117.787,372.459 113.036,240.872 L 99.178,240.872 L 86.112,258.176 z"
         id="path2620" />
      <path
         style="fill:#ffffff;stroke:#000000;stroke-width:3;stroke-linecap:round;stroke-linejoin:round"
         d="M 62.749,281.781 C 87.416,269.136 101.745,251.339 110.029,234.116 C 110.029,234.116 100.168,253.849 92.151,264.11 C 92.151,264.11 130.927,246.87 141.234,203.429 L 151.541,155.762 L 125.112,128.901 L 94.527,159.987 L 81.163,237.25 L 62.749,281.781 z"
         id="path2622" />
      <path
         style="fill:none;stroke:#000000;stroke-width:3;stroke-linecap:round;stroke-linejoin:round"
         d="M 120.954,179.304 C 120.954,179.304 123.582,205.94 110.028,234.117"
         id="path2624" />
      <path
         style="fill:#ffffff;stroke:#000000;stroke-width:3;stroke-linecap:round;stroke-linejoin:round"
         d="M 261.906,251.737 C 261.906,251.737 246.466,229.202 208.455,229.202 C 185.095,229.202 181.285,235.263 170.445,227.19 C 157.478,217.532 169.653,193.387 169.653,153.952 C 169.653,118.139 147.085,95.201 131.643,95.201 C 116.201,95.201 87.3,118.54 85.32,168.438 C 83.341,218.336 66.315,273.869 56.021,289.563 C 56.021,289.563 100.761,243.688 100.761,183.328 C 100.761,162.806 109.866,143.087 125.705,143.087 C 141.543,143.087 143.127,162.805 141.543,185.742 C 139.959,208.68 140.723,249.84 178.76,256.566 C 213.75,262.753 220.729,251.737 250.424,276.284 L 261.906,251.737 z"
         id="path2626" />
      <path
         style="fill:#ffffff;stroke:#000000;stroke-width:3;stroke-linecap:round;stroke-linejoin:round"
         d="M 548.166,492.377 C 548.166,492.377 500.259,424.369 510.156,344.291 L 496.695,270.65 L 482.441,256.164 L 450.964,224.173 L 362.473,255.359 L 342.281,271.858 L 368.807,318.94 C 368.807,318.94 377.519,308.477 377.519,321.756 C 377.519,335.035 373.56,387.75 417.112,426.784 C 417.112,426.784 393.752,382.922 410.777,337.047 C 410.777,337.047 399.69,413.505 456.705,452.135 C 456.705,452.135 434.084,404.275 442.227,340.078 C 442.227,340.078 428.99,448.514 503.029,476.28 C 503.029,476.28 465.812,419.942 473.731,354.35 C 473.731,354.351 464.624,452.942 548.166,492.377 z"
         id="path2630" />
      <path
         style="fill:#ffffff;stroke:#000000;stroke-width:3;stroke-linecap:round;stroke-linejoin:round"
         d="M 432.158,245.701 C 432.158,245.701 420.28,312.501 446.412,346.303 C 446.412,346.303 395.731,329.804 406.026,251.737 L 432.158,245.701 z"
         id="path2632" />
      <path
         style="fill:#ffffff;stroke:#000000;stroke-width:3;stroke-linecap:round;stroke-linejoin:round"
         d="M 455.518,207.472 C 455.518,207.472 442.057,304.855 478.878,351.131 C 478.878,351.131 424.041,342.479 427.407,246.908 L 455.518,207.472 z"
         id="path2634" />
      <path
         style="fill:#ffffff;stroke:#000000;stroke-width:3;stroke-linecap:round;stroke-linejoin:round"
         d="M 455.518,217.13 C 455.518,217.13 438.889,318.134 510.553,366.423 C 510.553,366.423 477.295,326.988 493.924,246.506 L 461.85,194.183 L 455.518,217.13 z"
         id="path2636" />
      <path
         style="fill:#ffffff;stroke:#000000;stroke-width:3;stroke-linecap:round;stroke-linejoin:round"
         d="M 516.888,258.176 C 516.888,258.176 507.782,328.597 544.207,383.324 C 544.207,383.324 485.213,372.459 489.964,240.872 L 503.822,240.872 L 516.888,258.176 z"
         id="path2638" />
      <path
         style="fill:#ffffff;stroke:#000000;stroke-width:3;stroke-linecap:round;stroke-linejoin:round"
         d="M 540.252,281.781 C 515.584,269.136 501.255,251.339 492.972,234.116 C 492.972,234.116 502.832,253.849 510.85,264.11 C 510.85,264.11 472.074,246.87 461.767,203.429 L 451.46,155.762 L 477.889,128.901 L 508.475,159.987 L 521.837,237.249 L 540.252,281.781 z"
         id="path2640" />
      <path
         style="fill:none;stroke:#000000;stroke-width:3;stroke-linecap:round;stroke-linejoin:round"
         d="M 482.046,179.304 C 482.046,179.304 479.417,205.94 492.972,234.117"
         id="path2642" />
      <path
         style="fill:#ffffff;stroke:#000000;stroke-width:3;stroke-linecap:round;stroke-linejoin:round"
         d="M 341.093,251.737 C 341.093,251.737 356.534,229.202 394.544,229.202 C 417.904,229.202 421.715,235.263 432.554,227.19 C 445.521,217.532 433.346,193.387 433.346,153.952 C 433.346,118.139 455.914,95.201 471.356,95.201 C 486.798,95.201 515.701,118.54 517.68,168.439 C 519.659,218.337 536.685,273.87 546.979,289.564 C 546.979,289.564 502.239,243.689 502.239,183.329 C 502.239,162.807 493.134,143.088 477.296,143.088 C 461.457,143.088 459.873,162.806 461.457,185.743 C 463.042,208.681 462.277,249.841 424.24,256.567 C 389.25,262.754 382.271,251.738 352.576,276.285 L 341.093,251.737 z"
         id="path2644" />
      <path
         style="fill:#ffffff;stroke:#000000;stroke-width:3;stroke-linecap:round;stroke-linejoin:round"
         d="M 273.375,225.788 C 255.077,220.513 246.564,203.148 246.564,187.754 C 246.564,143.087 276.556,134.032 263.49,87.856 C 263.49,87.856 275.665,92.383 275.665,113.208 C 275.665,113.208 284.276,84.234 311.001,84.234 C 337.727,84.234 356.731,102.041 356.731,137.05 C 356.731,175.983 339.805,197.11 339.805,221.857 C 339.805,254.15 376.033,286.142 376.033,335.94 C 376.033,440.466 334.362,426.38 343.864,510.081 L 346.24,518.934 L 301.499,526.177 L 268.538,519.739 C 268.538,519.739 270.023,506.76 270.023,499.82 C 270.023,450.626 224.589,417.729 224.589,355.557 C 224.59,295.197 273.375,225.788 273.375,225.788 z"
         id="path2648" />
      <path
         style="fill:#ffffff;stroke:#000000;stroke-width:3;stroke-linecap:round;stroke-linejoin:round"
         d="M 273.375,225.788 C 276.96,226.822 280.92,227.392 285.267,227.392 C 289.919,227.392 293.998,226.71 297.568,225.467 C 297.568,225.467 278.932,274.373 287.247,330.207 C 287.247,330.207 261.503,279.404 273.375,225.788 z"
         id="path2650" />
      <path
         style="fill:none;stroke:#000000;stroke-width:3;stroke-linecap:round;stroke-linejoin:round"
         d="M 312.587,116.126 C 312.587,116.126 313.593,129.85 317.338,145.904 C 321.413,163.373 328.027,214.856 297.568,225.466"
         id="path2652" />
      <path
         style="fill:none;stroke:#000000;stroke-width:3;stroke-linecap:round;stroke-linejoin:round"
         d="M 297.145,182.724 C 297.145,182.724 291.602,180.51 291.602,168.64 C 291.602,156.77 299.124,153.548 299.124,151.337"
         id="path2654" />
      <path
         d="M 297.343,164.415 C 297.252,164.415 297.167,164.437 297.077,164.442 C 296.775,166.392 297.046,168.741 297.046,168.741 C 296.46,167.37 296.152,165.721 295.998,164.601 C 293.59,165.214 291.8,167.411 291.8,170.049 C 291.8,173.161 294.282,175.683 297.343,175.683 C 300.404,175.683 302.886,173.161 302.886,170.049 C 302.886,166.937 300.404,164.415 297.343,164.415 z"
         id="path2656" />
      <path
         style="fill:#e20909;stroke:#000000;stroke-width:3;stroke-linecap:round;stroke-linejoin:round"
         d="M 264.48,400.225 C 264.48,400.225 251.164,419.403 256.062,424.38 C 261.404,429.81 264.363,419.107 263.094,412.901 C 262.251,408.776 264.48,400.225 264.48,400.225 z"
         id="path2660" />
      <path
         style="fill:#e20909;stroke:#000000;stroke-width:3;stroke-linecap:round;stroke-linejoin:round"
         d="M 292.591,363.606 C 291.206,365.015 293.779,370.045 293.779,375.88 C 293.779,381.714 293.185,387.751 298.63,386.644 C 304.075,385.537 302.491,377.69 299.323,371.654 C 296.155,365.619 293.878,362.298 292.591,363.606 z"
         id="path2662" />
      <path
         style="fill:#e20909;stroke:#000000;stroke-width:3;stroke-linecap:round;stroke-linejoin:round"
         d="M 285.465,360.99 C 284.574,360.085 266.181,371.586 274.775,378.898 C 283.288,386.141 288.137,363.707 285.465,360.99 z"
         id="path2664" />
      <path
         style="fill:#e20909;stroke:#000000;stroke-width:3;stroke-linecap:round;stroke-linejoin:round"
         d="M 289.622,336.846 C 289.622,336.846 303.48,365.014 309.419,358.978 C 315.358,352.943 289.622,336.846 289.622,336.846 z"
         id="path2666" />
      <path
         style="fill:#ffffff;stroke:#000000;stroke-width:3;stroke-linecap:round;stroke-linejoin:round"
         d="M 445.818,565.842 L 441.859,586.742 C 441.859,586.742 425.823,587.949 425.823,608.271 C 425.823,608.271 430.179,598.009 443.047,598.009 C 455.915,598.009 460.171,599.114 465.022,604.044 C 465.022,604.044 462.25,591.771 450.57,587.545 L 452.5,565.841 L 449.148,562.434 L 445.818,565.842 z"
         id="path2672" />
      <path
         style="fill:#ffffff;stroke:#000000;stroke-width:3;stroke-linecap:round;stroke-linejoin:round"
         d="M 423.474,473.367 C 424.74,470.024 427.342,466.484 433.643,463.906 C 445.076,459.227 463.634,464.409 472.147,475.677 C 480.661,486.946 489.372,496.603 493.924,497.609 C 493.924,497.609 492.557,498.768 490.057,499.335 C 490.057,499.335 496.1,518.332 537.476,541.471 C 537.476,541.471 528.233,546.209 513.536,540.226 C 513.536,540.226 506.232,545.247 493.447,539.542 C 493.447,539.542 490.751,541.612 485.807,541.797 C 485.807,541.797 497.549,562.735 519.462,580.504 C 519.462,580.504 503.82,579.901 502.436,581.31 C 501.052,582.719 499.864,600.022 499.864,600.022 C 499.864,600.022 481.338,574.249 472.147,552.739 C 472.147,552.739 463.041,555.355 453.142,549.52 C 453.142,549.52 455.246,565.843 452.499,565.843 L 445.001,565.843 C 445.001,565.843 442.255,562.447 441.215,558.675 C 440.176,554.902 439.285,552.638 436.909,551.582 C 434.534,550.525 408.185,531.615 400.088,490.466 C 399.717,488.58 399.94,485.939 391.774,481.412 C 383.607,476.885 371.729,468.585 374.105,450.778 L 337.728,419.542 L 381.38,442.479 C 381.38,442.479 399.882,434.947 408.996,449.421 C 413.747,456.966 413.747,465.718 413.747,465.718 L 423.474,473.367 z"
         id="path2674" />
      <path
         id="path2678"
         d="M 490.057,499.334 C 485.568,500.353 477.427,499.465 467,486.541"
         style="fill:none;stroke:#000000;stroke-width:3;stroke-linecap:round;stroke-linejoin:round" />
      <path
         id="path2680"
         d="M 513.535,540.225 C 505.167,536.818 495.031,529.935 483.827,516.723"
         style="fill:none;stroke:#000000;stroke-width:3;stroke-linecap:round;stroke-linejoin:round" />
      <path
         id="path2682"
         d="M 493.446,539.541 C 487.049,536.687 479.279,531.146 470.366,520.947"
         style="fill:none;stroke:#000000;stroke-width:3;stroke-linecap:round;stroke-linejoin:round" />
      <path
         id="path2684"
         d="M 485.807,541.796 C 479.576,542.027 469.775,539.263 457.301,525.574"
         style="fill:none;stroke:#000000;stroke-width:3;stroke-linecap:round;stroke-linejoin:round" />
      <path
         id="path2686"
         d="M 447.006,528.593 C 447.006,528.593 462.646,546.748 481.057,541.796"
         style="fill:none;stroke:#000000;stroke-width:3;stroke-linecap:round;stroke-linejoin:round" />
      <path
         id="path2688"
         d="M 415.232,485.938 C 415.232,485.938 420.577,484.581 421.764,480.506 C 422.298,478.677 422.442,476.088 423.473,473.367"
         style="fill:none;stroke:#000000;stroke-width:3;stroke-linecap:round;stroke-linejoin:round" />
      <path
         id="path2690"
         d="M 456.508,489.409 C 456.508,489.409 472.286,513.907 486.357,499.605"
         style="fill:none;stroke:#000000;stroke-width:3;stroke-linecap:round;stroke-linejoin:round" />
      <path
         id="path2692"
         d="M 474.666,503.903 C 474.666,503.903 462.002,516.421 445.67,493.935"
         style="fill:none;stroke:#000000;stroke-width:3;stroke-linecap:round;stroke-linejoin:round" />
      <path
         id="path2694"
         d="M 462.647,507.095 C 462.647,507.095 451.756,522.004 435.573,498.765"
         style="fill:none;stroke:#000000;stroke-width:3;stroke-linecap:round;stroke-linejoin:round" />
      <path
         id="path2696"
         d="M 452.22,511.747 C 452.22,511.747 435.87,524.569 419.984,501.33"
         style="fill:none;stroke:#000000;stroke-width:3;stroke-linecap:round;stroke-linejoin:round" />
      <ellipse
         sodipodi:ry="3.4200001"
         sodipodi:rx="3.365"
         sodipodi:cy="455.15302"
         sodipodi:cx="390.78299"
         cx="390.78299"
         cy="455.15302"
         rx="3.365"
         ry="3.4200001"
         id="ellipse2698" />
      <path
         id="path2704"
         d="M 291.701,520.646 C 291.701,520.646 269.133,513.705 267.054,511.592 C 264.975,509.479 271.211,504.047 271.211,495.295 C 271.211,486.541 267.351,479.902 256.661,479.902 C 245.971,479.902 231.123,506.761 234.093,551.128 C 237.063,595.493 262.303,635.633 262.303,635.633 C 262.303,615.645 260.842,608.382 258.445,602.645 C 263.203,589.793 262.366,578.772 259.549,567.524 C 259.549,567.524 265.412,558.944 263.704,546.178 C 263.704,546.178 266.856,544.45 270.816,546.181 C 272.29,546.824 273.051,546.252 273.272,544.793 C 279.003,550.618 282.149,548.689 282.149,548.689 L 291.701,520.646 z"
         style="fill:#ffffff;stroke:#000000;stroke-width:3;stroke-linecap:round;stroke-linejoin:round" />
      <path
         id="path2706"
         d="M 273.271,544.793 C 273.644,542.33 272.482,537.346 270.618,531.41"
         style="fill:none;stroke:#000000;stroke-width:3;stroke-linecap:round;stroke-linejoin:round" />
      <path
         id="path2708"
         d="M 263.703,546.178 C 263.492,544.603 263.165,542.964 262.699,541.27 C 261.313,536.24 260.324,530.406 260.324,530.406"
         style="fill:none;stroke:#000000;stroke-width:3;stroke-linecap:round;stroke-linejoin:round" />
      <path
         id="path2710"
         d="M 252.503,529.096 C 252.503,529.096 254.412,549.921 257.848,561.389 C 258.465,563.451 259.039,565.492 259.548,567.524"
         style="fill:none;stroke:#000000;stroke-width:3;stroke-linecap:round;stroke-linejoin:round" />
      <path
         id="path2712"
         d="M 244.188,527.286 C 244.188,527.286 246.496,578.152 256.957,599.417 C 257.485,600.489 257.982,601.539 258.444,602.645"
         style="fill:none;stroke:#000000;stroke-width:3;stroke-linecap:round;stroke-linejoin:round" />
      <path
         id="path2716"
         d="M 311.3,520.646 C 311.3,520.646 333.867,513.705 335.946,511.592 C 338.025,509.479 331.789,504.047 331.789,495.295 C 331.789,486.541 335.649,479.902 346.34,479.902 C 357.029,479.902 371.877,506.761 368.908,551.128 C 365.938,595.493 340.697,635.633 340.697,635.633 C 340.697,615.645 342.158,608.382 344.555,602.645 C 339.796,589.793 340.634,578.772 343.451,567.524 C 343.451,567.524 337.589,558.944 339.296,546.178 C 339.296,546.178 336.145,544.45 332.185,546.181 C 330.71,546.824 329.951,546.252 329.729,544.793 C 323.998,550.618 320.852,548.689 320.852,548.689 L 311.3,520.646 z"
         style="fill:#ffffff;stroke:#000000;stroke-width:3;stroke-linecap:round;stroke-linejoin:round" />
      <path
         id="path2718"
         d="M 329.729,544.793 C 329.357,542.33 330.519,537.346 332.383,531.41"
         style="fill:none;stroke:#000000;stroke-width:3;stroke-linecap:round;stroke-linejoin:round" />
      <path
         id="path2720"
         d="M 339.296,546.178 C 339.508,544.603 339.834,542.964 340.301,541.27 C 341.687,536.24 342.677,530.406 342.677,530.406"
         style="fill:none;stroke:#000000;stroke-width:3;stroke-linecap:round;stroke-linejoin:round" />
      <path
         id="path2722"
         d="M 350.497,529.096 C 350.497,529.096 348.588,549.921 345.151,561.389 C 344.534,563.451 343.961,565.492 343.451,567.524"
         style="fill:none;stroke:#000000;stroke-width:3;stroke-linecap:round;stroke-linejoin:round" />
      <path
         id="path2724"
         d="M 358.812,527.286 C 358.812,527.286 356.503,578.152 346.043,599.417 C 345.515,600.489 345.018,601.539 344.556,602.645"
         style="fill:none;stroke:#000000;stroke-width:3;stroke-linecap:round;stroke-linejoin:round" />
      <path
         style="fill:#ffffff;stroke:#000000;stroke-width:3;stroke-linecap:round;stroke-linejoin:round"
         d="M 308.627,597.405 C 333.175,541.067 313.773,504.851 313.773,504.851 C 328.027,483.121 308.627,463 308.627,463 L 301.5,409.882 L 294.373,463 C 294.373,463 274.973,483.12 289.227,504.851 C 289.227,504.851 269.826,541.067 294.373,597.405 L 279.328,643.682 C 279.328,643.682 298.332,628.792 301.5,628.792 C 304.668,628.792 323.672,643.682 323.672,643.682 L 308.627,597.405 z"
         id="path2726" />
      <path
         style="fill:#ffffff;stroke:#000000;stroke-width:3;stroke-linecap:round;stroke-linejoin:round"
         d="M 157.182,565.842 L 161.141,586.742 C 161.141,586.742 177.176,587.949 177.176,608.271 C 177.176,608.271 172.821,598.009 159.953,598.009 C 147.086,598.009 142.828,599.114 137.979,604.044 C 137.979,604.044 140.751,591.771 152.431,587.545 L 150.501,565.841 L 153.853,562.434 L 157.182,565.842 z"
         id="path2730" />
      <path
         style="fill:#ffffff;stroke:#000000;stroke-width:3;stroke-linecap:round;stroke-linejoin:round"
         d="M 179.526,473.367 C 178.261,470.024 175.658,466.484 169.357,463.906 C 157.924,459.227 139.366,464.409 130.854,475.677 C 122.341,486.946 113.629,496.603 109.077,497.609 C 109.077,497.609 110.445,498.768 112.944,499.335 C 112.944,499.335 106.901,518.332 65.525,541.471 C 65.525,541.471 74.769,546.209 89.465,540.226 C 89.465,540.226 96.769,545.247 109.554,539.542 C 109.554,539.542 112.25,541.612 117.194,541.797 C 117.194,541.797 105.451,562.735 83.539,580.504 C 83.539,580.504 99.18,579.901 100.565,581.31 C 101.95,582.718 103.138,600.022 103.138,600.022 C 103.138,600.022 121.664,574.249 130.854,552.739 C 130.854,552.739 139.961,555.355 149.859,549.52 C 149.859,549.52 147.755,565.843 150.502,565.843 L 158,565.843 C 158,565.843 160.747,562.447 161.786,558.675 C 162.826,554.902 163.716,552.638 166.092,551.582 C 168.467,550.525 194.816,531.615 202.914,490.466 C 203.285,488.58 203.062,485.939 211.228,481.412 C 219.394,476.885 231.272,468.585 228.896,450.778 L 265.272,419.542 L 221.621,442.479 C 221.621,442.479 203.118,434.947 194.004,449.421 C 189.253,456.966 189.253,465.718 189.253,465.718 L 179.526,473.367 z"
         id="path2732" />
      <path
         id="path2736"
         d="M 112.943,499.334 C 117.432,500.353 125.573,499.465 136,486.541"
         style="fill:none;stroke:#000000;stroke-width:3;stroke-linecap:round;stroke-linejoin:round" />
      <path
         id="path2738"
         d="M 89.465,540.225 C 97.833,536.818 107.968,529.935 119.173,516.723"
         style="fill:none;stroke:#000000;stroke-width:3;stroke-linecap:round;stroke-linejoin:round" />
      <path
         id="path2740"
         d="M 109.554,539.541 C 115.951,536.687 123.721,531.146 132.634,520.947"
         style="fill:none;stroke:#000000;stroke-width:3;stroke-linecap:round;stroke-linejoin:round" />
      <path
         id="path2742"
         d="M 117.194,541.796 C 123.425,542.027 133.226,539.263 145.7,525.574"
         style="fill:none;stroke:#000000;stroke-width:3;stroke-linecap:round;stroke-linejoin:round" />
      <path
         id="path2744"
         d="M 155.994,528.593 C 155.994,528.593 140.354,546.748 121.944,541.796"
         style="fill:none;stroke:#000000;stroke-width:3;stroke-linecap:round;stroke-linejoin:round" />
      <path
         id="path2746"
         d="M 187.768,485.938 C 187.768,485.938 182.423,484.581 181.235,480.506 C 180.701,478.677 180.557,476.088 179.526,473.367"
         style="fill:none;stroke:#000000;stroke-width:3;stroke-linecap:round;stroke-linejoin:round" />
      <path
         id="path2748"
         d="M 146.492,489.409 C 146.492,489.409 130.714,513.907 116.644,499.605"
         style="fill:none;stroke:#000000;stroke-width:3;stroke-linecap:round;stroke-linejoin:round" />
      <path
         id="path2750"
         d="M 128.334,503.903 C 128.334,503.903 140.999,516.421 157.331,493.935"
         style="fill:none;stroke:#000000;stroke-width:3;stroke-linecap:round;stroke-linejoin:round" />
      <path
         id="path2752"
         d="M 140.352,507.095 C 140.352,507.095 151.243,522.004 167.427,498.765"
         style="fill:none;stroke:#000000;stroke-width:3;stroke-linecap:round;stroke-linejoin:round" />
      <path
         id="path2754"
         d="M 150.78,511.747 C 150.78,511.747 167.13,524.569 183.016,501.33"
         style="fill:none;stroke:#000000;stroke-width:3;stroke-linecap:round;stroke-linejoin:round" />
      <ellipse
         sodipodi:ry="3.4200001"
         sodipodi:rx="3.365"
         sodipodi:cy="455.15302"
         sodipodi:cx="212.217"
         cx="212.217"
         cy="455.15302"
         rx="3.365"
         ry="3.4200001"
         id="ellipse2756" />
    </g>
  </g>
  <g
     inkscape:groupmode="layer"
     id="layer3"
     inkscape:label="Reflet final"
     style="display:inline"
     sodipodi:insensitive="true">
    <path
       style="fill:url(#radialGradient3236);fill-opacity:1"
       d="M 1.5,1.5 L 1.5,460.3679 C 1.5,626.67854 135.81454,761.5 301.49993,761.5 C 467.1854,761.5 601.5,626.67854 601.5,460.3679 L 601.5,1.5 L 1.5,1.5 z "
       id="path2346" />
  </g>
  <g
     inkscape:groupmode="layer"
     id="layer4"
     inkscape:label="Contour final"
     style="display:inline"
     sodipodi:insensitive="true">
    <path
       style="fill:none;fill-opacity:1;stroke:#000000;stroke-width:3;stroke-miterlimit:4;stroke-dasharray:none;stroke-opacity:1"
       d="M 1.5,1.5 L 1.5,460.36794 C 1.5,626.67854 135.81454,761.5 301.49993,761.5 C 467.1854,761.5 601.5,626.67854 601.5,460.36794 L 601.5,1.5 L 1.5,1.5 z "
       id="path3239" />
  </g>
</svg>
