<?xml version="1.0" encoding="UTF-8"?>
<svg version="1.0" viewBox="0 0 603 763" xmlns="http://www.w3.org/2000/svg" xmlns:cc="http://creativecommons.org/ns#" xmlns:dc="http://purl.org/dc/elements/1.1/" xmlns:rdf="http://www.w3.org/1999/02/22-rdf-syntax-ns#" xmlns:xlink="http://www.w3.org/1999/xlink">
<metadata>
<rdf:RDF>
<cc:Work rdf:about="">
<dc:format>image/svg+xml</dc:format>
<dc:type rdf:resource="http://purl.org/dc/dcmitype/StillImage"/>
<dc:date>07-AUG-2006</dc:date>
<dc:creator>
<cc:Agent>
<dc:title>Jérôme BLUM (wagner51)</dc:title>
</cc:Agent>
</dc:creator>
<cc:license rdf:resource="http://creativecommons.org/licenses/GPL/2.0/"/>
<dc:coverage/>
<dc:description>Gabarit pour le Projet:Blasons de WIkipédia</dc:description>
<dc:subject>
<rdf:Bag>
<rdf:li>blason suisse modèle gabarit projet blasons</rdf:li>
</rdf:Bag>
</dc:subject>
<dc:language>fr</dc:language>
<dc:title>Gabrit d'un blason suisse</dc:title>
</cc:Work>
<cc:License rdf:about="http://creativecommons.org/licenses/GPL/2.0/">
<cc:permits rdf:resource="http://web.resource.org/cc/Reproduction"/>
<cc:permits rdf:resource="http://web.resource.org/cc/Distribution"/>
<cc:requires rdf:resource="http://web.resource.org/cc/Notice"/>
<cc:permits rdf:resource="http://web.resource.org/cc/DerivativeWorks"/>
<cc:requires rdf:resource="http://web.resource.org/cc/ShareAlike"/>
<cc:requires rdf:resource="http://web.resource.org/cc/SourceCode"/>
</cc:License>
</rdf:RDF>
</metadata>
<defs>
<radialGradient id="a" cx="858.04" cy="579.93" r="300" gradientTransform="matrix(1.215 1.5316e-24 1.4647e-23 1.2667 -839.19 -490.49)" gradientUnits="userSpaceOnUse">
<stop stop-color="#fff" stop-opacity=".31373" offset="0"/>
<stop stop-color="#fff" stop-opacity=".25098" offset=".19"/>
<stop stop-color="#6b6b6b" stop-opacity=".12549" offset=".6"/>
<stop stop-opacity=".12549" offset="1"/>
</radialGradient>
</defs>
<desc>Coat of Arms of Canton of Freiburg (Fribourg)</desc>
<g>
<path d="m1.5 1.5v458.87c0 166.31 134.31 301.13 300 301.13 165.69 0 300-134.82 300-301.13v-458.87h-600z" fill="#e20909"/>
<polygon points="1.5 1.5 290.05 367 301.5 367 301.5 1.5" fill="#2b5df2"/>
<polygon points="601.5 367 312.95 367 601.5 1.5" fill="#2b5df2"/>
<path d="m1.5 460.37c0 77.944 29.502 148.97 77.91 202.45l222.09-281.31v-14.5h-300v93.368z" fill="#2b5df2"/>
<path d="m301.5 381.5v380c88.034 0 167.21-38.063 222.09-98.686l-222.09-281.31z" fill="#2b5df2"/>
<path d="m1.501 367h600" fill="none" stroke="#000" stroke-linejoin="round" stroke-width="3"/>
<line x1="301.5" x2="301.5" y1="1.5" y2="761.5" fill="none" stroke="#000" stroke-linejoin="round" stroke-width="3"/>
<line x1="1.5" x2="523.59" y1="1.5" y2="662.81" fill="none" stroke="#000" stroke-linejoin="round" stroke-width="3"/>
<line x1="601.5" x2="79.41" y1="1.5" y2="662.81" fill="none" stroke="#000" stroke-linejoin="round" stroke-width="3"/>
<g transform="matrix(1.1079 0 0 1.1079 -32.522 -41.661)">
<path d="m203.71 257.63v149.58c0 54.212 43.782 98.159 97.789 98.159 54.008 0 97.789-43.947 97.789-98.159v-149.58h-195.58z" fill="#fcef3c"/>
<path d="m278.23 376.14-3.078 7.719s-15.11 20.539-24.343 48.21c0 0 12.312-12.232 33.018-17.768 0 0-27.281 21.409-37.774 35.829 0 0-1.958 3.495 0 8.738 1.959 5.244-1.678 13.109-1.678 13.109l34.416 2.913 61.277-30.005 2.239-26.216s4.477 1.456 4.477 7.281c0 0 13.017-60.705-1.74-77.979l-27.36-1.546-39.454 29.715z" stroke="#fcef3c" stroke-linecap="round" stroke-linejoin="round" stroke-width="3"/>
<path d="m269.09 317.68s-3.545-26.605 7.181-37.772c1.399-1.457 9.7 19.614 12.125 30.684l-1.306 10.875-15.668 2.719-2.332-6.506z" stroke="#fcef3c" stroke-linecap="round" stroke-linejoin="round" stroke-width="3"/>
<path d="m319.71 319.28s19.228-24.935 47.777-3.05c16.977 13.011 7.398 46.827-2.61 63.116-1.492 2.427 0.046 9.564 5.409 3.981 5.362-5.583 44.582-61.077-0.56-93.12-7.554-13.303-28.54-24.274-54.282-13.827-25.742 10.448-27.047 34.219-27.047 34.219-7.834 10.487-16.788 8.156-19.306 7.088-2.519-1.068-3.638 3.787-4.757 6.505-1.12 2.719-11.846 8.836-14.924 13.352-3.077 4.515-1.119 4.806-11.472 12.088-10.353 7.283-19.866 16.896-20.985 18.062-1.12 1.165-3.638 13.837-3.638 13.837-3.498 12.233 5.596 10.487 5.596 10.487-0.699 2.184 0 5.171 5.806 5.171s7.625-7.938 10.563-4.88c7.717 8.035-0.839 31.46-0.839 31.46 21.125-8.156 12.451-21.265 20.565-33.5 8.115-12.235 16.509-6.409 20.146-6.409 0 0 10.819-0.63 26.302-10.535 15.483-9.903 21.638-22.528 23.503-22.528 36.423 0 44.629-22.868 44.629-23.887s-14.689-11.393-32.689-0.615c-18.002 10.779-20.147 9.549-20.147 9.549 12.983-4.505 12.124-12.623 12.124-12.623-6.434 6.7-17.159 4.078-17.159 4.078 10.26 0 12.311-8.352 12.311-8.352-1.523 0.155-2.961 0.264-4.316 0.333z" stroke="#fcef3c" stroke-linecap="round" stroke-linejoin="round" stroke-width="3"/>
<path d="m280.82 333.9c-14.16 0.071-16.918 2.139-20.216 7.864-1.188 2.06-2.515 3.647-3.735 4.837 0 0 5.274 6.086 15.487-0.759 10.212-6.845 8.464-11.942 8.464-11.942z" fill="#fff" stroke="#000" stroke-linecap="round" stroke-linejoin="round" stroke-width="3"/>
<path d="m268.6 337.15c-2.197 0-3.979 1.854-3.979 4.142s1.781 4.142 3.979 4.142c2.197 0 3.978-1.854 3.978-4.142s-1.781-4.142-3.978-4.142zm0.349 4.926c-1.243 0.601-2.406 0.737-2.599 0.304-0.193-0.434 0.657-1.272 1.899-1.872 1.243-0.601 2.406-0.737 2.6-0.304s-0.657 1.272-1.9 1.872z"/>
<path d="m252.77 349.63s1.87-0.853 4.099-3.028" fill="none" stroke="#000" stroke-linecap="round" stroke-linejoin="round" stroke-width="3"/>
<path d="m280.82 333.9c0.253-1e-3 0.509-1e-3 0.769-1e-3 2.797 0 5.386-2.695 5.386-2.695" fill="none" stroke="#000" stroke-linecap="round" stroke-linejoin="round" stroke-width="3"/>
<path d="m226.19 390.56s-3.961 1.738-7.275 1.457" fill="none" stroke="#fcef3c" stroke-linecap="round" stroke-linejoin="round" stroke-width="3"/>
<path d="m319.71 319.28c-15.747 0.803-20.464-3.741-20.121-4.992 2.843-10.353 9.768-20.217 25.184-27.578 21.639-10.332 44.954 3.496 44.954 3.496" fill="none" stroke="#fcef3c" stroke-linecap="round" stroke-linejoin="round" stroke-width="3"/>
<path d="m323.7 343.8c0-0.583-1.538-2.185-1.538-2.185s26.58-18.061 37.634-13.108" fill="none" stroke="#fcef3c" stroke-linecap="round" stroke-linejoin="round" stroke-width="3"/>
<path d="m370.82 367.27s4.759-0.111 7.567 4.379" fill="none" stroke="#fcef3c" stroke-linecap="round" stroke-linejoin="round" stroke-width="3"/>
<path d="m374.34 356.58s5.146-0.801 10.131 3.043" fill="none" stroke="#fcef3c" stroke-linecap="round" stroke-linejoin="round" stroke-width="3"/>
<path d="m376.5 344.77s6.277-1.83 12.693 0.933" fill="none" stroke="#fcef3c" stroke-linecap="round" stroke-linejoin="round" stroke-width="3"/>
<path d="m375.62 329.17s4.302-6.258 15.085-6.258" fill="none" stroke="#fcef3c" stroke-linecap="round" stroke-linejoin="round" stroke-width="3"/>
<path d="m367.98 316.62s4.443-8.559 13.17-15.813" fill="none" stroke="#fcef3c" stroke-linecap="round" stroke-linejoin="round" stroke-width="3"/>
<path d="m358.4 310.6s5.846-10.781 10.548-20.831" fill="none" stroke="#fcef3c" stroke-linecap="round" stroke-linejoin="round" stroke-width="3"/>
<path d="m348.86 307.6s1.625-8.831 1.625-24.036" fill="none" stroke="#fcef3c" stroke-linecap="round" stroke-linejoin="round" stroke-width="3"/>
<path d="m335.43 308.62s0.369-13.98-3.161-24.573" fill="none" stroke="#fcef3c" stroke-linecap="round" stroke-linejoin="round" stroke-width="3"/>
<path d="m327.1 312.68s-4.759-12.562-15.197-17.738" fill="none" stroke="#fcef3c" stroke-linecap="round" stroke-linejoin="round" stroke-width="3"/>
<path d="m288.4 310.6s1.212 6.652 11.192 3.69" fill="none" stroke="#fcef3c" stroke-linecap="round" stroke-linejoin="round" stroke-width="3"/>
<path d="m295.24 292.3s7.53-0.856 14.431 4.715" fill="none" stroke="#fcef3c" stroke-linecap="round" stroke-linejoin="round" stroke-width="3"/>
<path d="m315.45 276.38s6.047 6.398 6.047 12.007" fill="none" stroke="#fcef3c" stroke-linecap="round" stroke-linejoin="round" stroke-width="3"/>
<path d="m334.47 272.24s2.249 5.906 2.249 10.989" fill="none" stroke="#fcef3c" stroke-linecap="round" stroke-linejoin="round" stroke-width="3"/>
<path d="m353.82 276.13s-0.446 3.928-1.911 7.685" fill="none" stroke="#fcef3c" stroke-linecap="round" stroke-linejoin="round" stroke-width="3"/>
<path d="m203.71 257.63v149.58c0 54.212 43.782 98.159 97.789 98.159 54.008 0 97.789-43.947 97.789-98.159v-149.58h-195.58z" fill="none" stroke="#000" stroke-width="3"/>
</g>
</g>
<g>
<path d="m1.5 1.5v458.87c0 166.31 134.31 301.13 300 301.13 165.69 0 300-134.82 300-301.13v-458.87h-600z" fill="url(#a)"/>
<path d="m1.5 1.5v458.87c0 166.31 134.31 301.13 300 301.13 165.69 0 300-134.82 300-301.13v-458.87h-600z" fill="none" stroke="#000" stroke-width="3"/>
</g>
</svg>
