<?xml version="1.0" encoding="UTF-8" standalone="no"?>
<svg
   xmlns:dc="http://purl.org/dc/elements/1.1/"
   xmlns:cc="http://creativecommons.org/ns#"
   xmlns:rdf="http://www.w3.org/1999/02/22-rdf-syntax-ns#"
   xmlns:svg="http://www.w3.org/2000/svg"
   xmlns="http://www.w3.org/2000/svg"
   xmlns:xlink="http://www.w3.org/1999/xlink"
   xmlns:sodipodi="http://sodipodi.sourceforge.net/DTD/sodipodi-0.dtd"
   xmlns:inkscape="http://www.inkscape.org/namespaces/inkscape"
   height="763"
   width="603"
   version="1.0"
   id="svg20"
   sodipodi:version="0.32"
   inkscape:version="0.46"
   sodipodi:docname="Minusio-coat_of_arms.svg"
   sodipodi:docbase="C:\Documents and Settings\Steve\Bureau\Blason Villages Suisse pour Wikipédia (par Delta-9)"
   inkscape:output_extension="org.inkscape.output.svg.inkscape">
  <metadata
     id="metadata31">
    <rdf:RDF>
      <cc:Work
         rdf:about="">
        <dc:format>image/svg+xml</dc:format>
        <dc:type
           rdf:resource="http://purl.org/dc/dcmitype/StillImage" />
        <dc:date>07-AUG-2006</dc:date>
        <dc:creator>
          <cc:Agent>
            <dc:title>Jérôme BLUM (wagner51)</dc:title>
          </cc:Agent>
        </dc:creator>
        <cc:license
           rdf:resource="http://creativecommons.org/licenses/GPL/2.0/" />
        <dc:coverage />
        <dc:description>Gabarit pour le Projet:Blasons de WIkipédia</dc:description>
        <dc:subject>
          <rdf:Bag>
            <rdf:li>blason suisse modèle gabarit projet blasons</rdf:li>
          </rdf:Bag>
        </dc:subject>
        <dc:language>fr</dc:language>
        <dc:title>Gabrit d'un blason suisse</dc:title>
      </cc:Work>
      <cc:License
         rdf:about="http://creativecommons.org/licenses/GPL/2.0/">
        <cc:permits
           rdf:resource="http://web.resource.org/cc/Reproduction" />
        <cc:permits
           rdf:resource="http://web.resource.org/cc/Distribution" />
        <cc:requires
           rdf:resource="http://web.resource.org/cc/Notice" />
        <cc:permits
           rdf:resource="http://web.resource.org/cc/DerivativeWorks" />
        <cc:requires
           rdf:resource="http://web.resource.org/cc/ShareAlike" />
        <cc:requires
           rdf:resource="http://web.resource.org/cc/SourceCode" />
      </cc:License>
    </rdf:RDF>
  </metadata>
  <defs
     id="defs29"><inkscape:perspective
   sodipodi:type="inkscape:persp3d"
   inkscape:vp_x="0 : 381.5 : 1"
   inkscape:vp_y="0 : 1000 : 0"
   inkscape:vp_z="603 : 381.5 : 1"
   inkscape:persp3d-origin="301.5 : 254.33333 : 1"
   id="perspective28" />
<linearGradient
   id="linearGradient2893">
  <stop
     style="stop-color:#ffffff;stop-opacity:0.3137255;"
     offset="0"
     id="stop2895" />
  <stop
     id="stop2897"
     offset="0.19"
     style="stop-color:#ffffff;stop-opacity:0.25098041;" />
  <stop
     style="stop-color:#6b6b6b;stop-opacity:0.1254902;"
     offset="0.60000002"
     id="stop2901" />
  <stop
     style="stop-color:#000000;stop-opacity:0.1254902;"
     offset="1"
     id="stop2899" />
</linearGradient>
<linearGradient
   id="linearGradient2955">
  <stop
     style="stop-color:white;stop-opacity:0;"
     offset="0"
     id="stop2965" />
  <stop
     style="stop-color:black;stop-opacity:0.64583331;"
     offset="1"
     id="stop2959" />
</linearGradient>
<radialGradient
   inkscape:collect="always"
   xlink:href="#linearGradient2893"
   id="radialGradient3236"
   gradientUnits="userSpaceOnUse"
   gradientTransform="matrix(1.215027,1.531577e-24,1.464684e-23,1.266667,-839.1924,-490.4894)"
   cx="858.04236"
   cy="579.93323"
   fx="858.04236"
   fy="579.93323"
   r="300" />
<inkscape:perspective
   id="perspective2679"
   inkscape:persp3d-origin="306 : 264 : 1"
   inkscape:vp_z="612 : 396 : 1"
   inkscape:vp_y="0 : 1000 : 0"
   inkscape:vp_x="0 : 396 : 1"
   sodipodi:type="inkscape:persp3d" />

	
	
	
	
	
	

	
	

		
		
		
		
		
	
		
		
		
		
		
		
		
		
		
		
		
		
	
		
		
		
	
		
		
		
	
			
			
			
			
		
			
			
			
		
			
			
				
			
			
			
				
		
			
			
		
			
			
			
			
		
				
				
				
				
				
				
			</defs>
  <sodipodi:namedview
     inkscape:window-height="691"
     inkscape:window-width="939"
     inkscape:pageshadow="2"
     inkscape:pageopacity="0.0"
     guidetolerance="10.0"
     gridtolerance="10.0"
     objecttolerance="10.0"
     borderopacity="1.0"
     bordercolor="#666666"
     pagecolor="#ffffff"
     id="base"
     inkscape:zoom="0.41723905"
     inkscape:cx="330.55132"
     inkscape:cy="404.00717"
     inkscape:window-x="1309"
     inkscape:window-y="137"
     inkscape:current-layer="layer1"
     showgrid="false"
     showguides="true"
     inkscape:guide-bbox="true">
    <sodipodi:guide
       orientation="horizontal"
       position="761.5"
       id="guide1885" />
    <sodipodi:guide
       orientation="vertical"
       position="1.5"
       id="guide1887" />
    <sodipodi:guide
       orientation="horizontal"
       position="1.5"
       id="guide1889" />
    <sodipodi:guide
       orientation="vertical"
       position="601.5"
       id="guide1891" />
    <sodipodi:guide
       orientation="vertical"
       position="301.50081"
       id="guide1893" />
  </sodipodi:namedview>
  <desc
     id="desc22">Coat of Arms of Canton of Freiburg (Fribourg)</desc>
  <g
     inkscape:groupmode="layer"
     id="layer1"
     inkscape:label="Fond écu"
     style="opacity:1"
     sodipodi:insensitive="true">
    <path
       d="M 1.499997,1.5 L 1.499997,460.368 C 1.499997,626.679 135.814,761.5 301.5,761.5 C 467.186,761.5 601.5,626.679 601.5,460.368 L 601.5,1.5 L 1.499997,1.5 z"
       id="path2686"
       style="opacity:1;fill:#ffffff" />
  </g>
  <g
     inkscape:groupmode="layer"
     id="layer2"
     inkscape:label="Meubles"
     style="opacity:1"
     sodipodi:insensitive="true">
    <rect
       id="rect2564"
       height="127"
       width="600"
       y="295.45401"
       x="1.4999968"
       style="fill:#2b5df2" />
    <line
       id="line2568"
       y2="295.45401"
       x2="601.5"
       y1="295.45401"
       x1="1.4999968"
       style="fill:none;stroke:#000000;stroke-width:3" />
    <line
       id="line2570"
       y2="422.453"
       x2="601.5"
       y1="422.453"
       x1="1.4999968"
       style="fill:none;stroke:#000000;stroke-width:3" />
    <path
       id="path2576"
       d="M 139.814,582.376 L 127.258,586.281 C 127.258,586.281 129.65,596.119 112.61,604.551 C 112.61,604.551 134.881,607.205 140.711,595.808 L 139.814,582.376 z"
       style="fill:#e20909;stroke:#000000;stroke-width:3;stroke-linecap:round;stroke-linejoin:round" />
    <path
       id="path2578"
       d="M 83.013997,577.691 C 83.013997,577.691 78.430997,561.401 86.999997,556.195 L 101.101,552.862 L 97.961997,563.95 C 97.960997,563.95 89.739997,562.7 83.013997,577.691 z"
       style="fill:#e20909;stroke:#000000;stroke-width:3;stroke-linecap:round;stroke-linejoin:round" />
    <path
       id="path2580"
       d="M 58.499997,525.848 C 58.499997,525.848 67.916997,509.295 86.601997,512.575 L 93.178997,522.1 L 82.217997,527.046 C 82.216997,527.046 76.287997,517.571 58.499997,525.848 z"
       style="fill:#e20909;stroke:#000000;stroke-width:3;stroke-linecap:round;stroke-linejoin:round" />
    <path
       id="path2582"
       d="M 104.688,491.806 C 104.688,491.806 112.22,500.394 109.919,508.515 L 117.243,514.292 L 124.717,513.667 L 124.07,507.474 C 124.07,507.474 121.13,494.46 104.688,491.806 z"
       style="fill:#e20909;stroke:#000000;stroke-width:3;stroke-linecap:round;stroke-linejoin:round" />
    <path
       style="fill:#e20909;stroke:#000000;stroke-width:3;stroke-linecap:round;stroke-linejoin:round"
       d="M 109.919,508.515 C 109.919,508.515 104.355,509.724 105.842,515.261 L 110.119,525.379 L 129.052,543.909 L 166.72,545.576 L 168.116,541.411 C 168.116,541.411 172.756,536.262 161.258,540.543 C 149.76,544.825 135.481,532.562 132.043,524.493 C 128.874,517.055 131.968,512.183 124.071,507.473 C 124.07,507.474 119.935,513.512 109.919,508.515 z"
       id="path2584" />
    <path
       style="fill:#e20909;stroke:#000000;stroke-width:3;stroke-linecap:round;stroke-linejoin:round"
       d="M 307.526,387.96 C 307.526,387.96 285.403,401.077 249.828,402.639 C 214.253,404.201 198.707,409.198 183.76,427.624 C 168.812,446.051 155.36,449.174 141.906,449.174 C 141.906,449.174 147.885,470.411 169.709,463.539 C 169.709,463.539 161.338,471.973 162.833,483.528 C 164.328,495.083 157.153,505.702 157.153,505.702 C 157.153,505.702 175.688,501.955 181.966,482.903 C 181.966,482.903 181.966,505.39 205.583,511.325 C 205.583,511.325 189.439,517.883 176.884,531.001 C 164.328,544.118 132.764,551.934 112.31,523.818 C 100.95,508.201 97.959997,504.765 86.600997,512.574 C 86.600997,512.574 90.288997,518.612 82.215997,527.046 C 82.215997,527.046 79.027997,532.666 84.009997,535.582 C 88.991997,538.498 93.655997,532.125 96.366997,534.958 C 98.296997,536.974 96.543997,541.138 92.108997,542.543 C 87.922997,543.869 85.604997,548.906 86.999997,556.195 C 86.999997,556.195 94.672997,554.424 97.960997,563.95 C 97.960997,563.95 101.997,568.479 107.677,568.479 C 113.357,568.479 116.496,565.199 119.486,562.076 C 122.476,558.953 126.511,559.265 126.511,563.169 C 126.511,569.728 121.429,577.691 127.259,586.281 C 127.259,586.281 138.32,584.718 140.712,595.807 C 140.712,595.807 151.757,595.541 156.257,582.22 C 157.154,579.565 172.401,581.752 187.647,570.039 C 187.647,570.039 182.564,580.815 187.647,589.091 C 187.647,589.091 209.321,570.664 222.176,547.864 C 222.176,547.864 218.29,558.797 227.557,567.228 C 227.557,567.228 231.144,550.832 251.174,531.936 C 271.204,513.041 275.987,490.398 275.987,490.398 C 275.987,490.398 265.972,500.392 252.42,500.392 C 237.074,500.392 229.102,484.359 229.102,475.407 C 229.102,457.293 247.239,439.386 315.798,416.692 L 307.526,387.96 z"
       id="path2586" />
    <polygon
       style="fill:#e20909;stroke:#000000;stroke-width:3;stroke-linecap:round;stroke-linejoin:round"
       points="187.722,118.248 175.689,118.041 175.689,129.909 186.675,140.605 190.337,126.941 187.722,118.248 "
       id="polygon2590"
       transform="translate(-2.9999999e-6,0)" />
    <path
       id="path2594"
       d="M 212.922,89.976 C 128.577,89.976 92.579997,92.684 92.579997,104.169 C 92.579997,115.653 128.577,118.363 212.922,118.363 L 215.15,104.169 L 212.922,89.976 z"
       style="fill:#fcef3c;stroke:#000000;stroke-width:3;stroke-linecap:round;stroke-linejoin:round" />
    <ellipse
       id="ellipse2596"
       ry="19.156"
       rx="18.336"
       cy="104.169"
       cx="87.198997"
       sodipodi:cx="87.198997"
       sodipodi:cy="104.169"
       sodipodi:rx="18.336"
       sodipodi:ry="19.156"
       style="fill:#fcef3c;stroke:#000000;stroke-width:3;stroke-linecap:round;stroke-linejoin:round"
       transform="translate(-2.9999999e-6,0)" />
    <path
       id="path2598"
       d="M 482.612,89.976 C 463.635,89.976 217.542,89.976 217.542,89.976 L 217.542,118.363 C 217.542,118.363 463.636,118.363 482.612,118.363 C 501.588,118.363 522.23,104.169 542.402,104.169 C 522.23,104.169 501.589,89.976 482.612,89.976 z"
       style="fill:#fcef3c;stroke:#000000;stroke-width:3;stroke-linecap:round;stroke-linejoin:round" />
    <path
       id="path2600"
       d="M 236.376,142.376 C 226.81,142.376 221.129,122.492 221.129,104.169 C 221.129,85.846 226.809,65.962 236.376,65.962 C 241.66,65.962 245.942,61.487 245.942,55.968 C 245.942,50.448 241.659,45.974 236.376,45.974 C 234.223,45.974 232.241,46.727 230.643,47.981 C 223.116,52.799 210.965,79.392 210.965,104.169 C 210.965,128.946 223.116,155.539 230.643,160.357 C 232.242,161.611 234.223,162.364 236.376,162.364 C 241.66,162.364 245.942,157.89 245.942,152.369 C 245.942,146.85 241.66,142.376 236.376,142.376 z"
       style="fill:#fcef3c;stroke:#000000;stroke-width:3;stroke-linecap:round;stroke-linejoin:round" />
    <line
       id="line2602"
       y2="104.169"
       x2="221.129"
       y1="104.169"
       x1="492.17899"
       style="fill:#fcef3c;stroke:#000000;stroke-width:3;stroke-linecap:round;stroke-linejoin:round" />
    <path
       id="path2606"
       d="M 171.096,90.291 C 171.096,90.291 167.5,96.654 165.973,109.062 L 171.379,114.709 L 178.081,109.062 C 178.081,109.062 177.265,99.314 171.096,90.291 z"
       style="fill:#e20909;stroke:#000000;stroke-width:3;stroke-linecap:round;stroke-linejoin:round" />
    <path
       id="path2608"
       d="M 180.393,128.352 C 184.425,124.14 184.262,118.231 184.262,118.231 L 210.965,118.362 C 210.965,118.362 213.956,161.601 242.654,178.484 L 278.528,197.031 L 268.763,217.435 L 215.731,211.295 C 215.731,211.295 212.908,211.657 212.011,212.594 C 212.011,212.594 202.196,205.15 202.196,182.664 C 202.196,182.664 194.223,187.87 195.818,202.236 C 195.818,202.236 185.554,190.576 190.038,171.212 C 190.038,171.212 181.069,159.344 178.379,151.849 C 175.689,144.354 167.982,140.919 163.722,117.894 C 162.983,113.902 163.431,109.998 165.972,109.061 C 165.972,109.061 172.848,111.56 178.08,109.061 C 178.08,109.061 180.172,112.34 179.276,119.836 C 178.379,127.331 183.312,134.202 183.312,134.202"
       style="fill:#e20909;stroke:#000000;stroke-width:3;stroke-linecap:round;stroke-linejoin:round" />
    <path
       style="fill:#e20909;stroke:#000000;stroke-width:3;stroke-linecap:round;stroke-linejoin:round"
       d="M 182.287,90.213 L 178.65,95.059 C 178.65,95.059 179.653,103.644 182.162,107.936 C 182.162,107.936 184.689,101.963 186.178,94.69 L 182.287,90.213 z"
       id="path2612" />
    <path
       style="fill:#e20909;stroke:#000000;stroke-width:3;stroke-linecap:round;stroke-linejoin:round"
       d="M 175.981,90.266 C 175.981,90.266 174.984,83.805 181.835,83.805 C 188.685,83.805 188.019,90.12 188.019,90.12 C 188.019,92.66 186.179,94.691 186.179,94.691 C 186.179,94.691 180.921,92.553 178.651,95.059 C 178.65,95.059 175.981,92.857 175.981,90.266 z"
       id="path2614" />
    <path
       style="fill:#e20909;stroke:#000000;stroke-width:3;stroke-linecap:round;stroke-linejoin:round"
       d="M 193.668,89.973 L 190.512,94.597 C 190.512,94.597 190.379,101.198 193.39,107.567 C 193.39,107.567 196.935,100.744 197.546,94.255 L 193.668,89.973 z"
       id="path2616" />
    <path
       style="fill:#e20909;stroke:#000000;stroke-width:3;stroke-linecap:round;stroke-linejoin:round"
       d="M 188.018,90.12 C 188.018,90.12 187.087,84.082 193.489,84.082 C 199.889,84.082 199.268,89.982 199.268,89.982 C 199.268,92.356 197.547,94.255 197.547,94.255 C 197.547,94.255 192.633,92.255 190.512,94.596 C 190.513,94.597 188.018,92.541 188.018,90.12 z"
       id="path2618" />
    <path
       style="fill:#e20909;stroke:#000000;stroke-width:3;stroke-linecap:round;stroke-linejoin:round"
       d="M 204.917,89.836 L 201.761,94.461 C 201.761,94.461 201.629,101.06 204.639,107.43 C 204.639,107.43 208.185,100.606 208.796,94.118 L 204.917,89.836 z"
       id="path2620" />
    <path
       style="fill:#e20909;stroke:#000000;stroke-width:3;stroke-linecap:round;stroke-linejoin:round"
       d="M 199.268,89.982 C 199.268,89.982 198.336,83.944 204.738,83.944 C 211.139,83.944 210.517,89.845 210.517,89.845 C 210.517,92.218 208.797,94.118 208.797,94.118 C 208.797,94.118 203.883,92.119 201.762,94.461 C 201.762,94.462 199.268,92.404 199.268,89.982 z"
       id="path2622" />
    <path
       style="fill:#e20909;stroke:#000000;stroke-width:3;stroke-linecap:round;stroke-linejoin:round"
       d="M 364.028,665.921 L 377.48,668.109 L 376.733,676.852 C 376.733,676.852 381.068,691.843 366.42,700.277 C 366.42,700.277 370.605,683.099 360.59,680.757 L 360.59,670.919 L 364.028,665.921 z"
       id="path2626" />
    <path
       style="fill:#e20909;stroke:#000000;stroke-width:3;stroke-linecap:round;stroke-linejoin:round"
       d="M 317.69,668.108 L 310.216,677.321 C 310.216,677.321 305.732,687.47 318.587,697.153 C 318.587,697.153 317.765,685.363 323.37,679.506 L 323.37,669.668 L 317.69,668.108 z"
       id="path2628" />
    <path
       style="fill:#e20909;stroke:#000000;stroke-width:3;stroke-linecap:round;stroke-linejoin:round"
       d="M 275.09,657.489 C 275.09,657.489 265.075,667.483 272.549,684.347 C 272.549,684.347 273.446,671.074 284.208,671.074 L 294.298,660.533 L 275.09,657.489 z"
       id="path2630" />
    <path
       style="fill:#e20909;stroke:#000000;stroke-width:3;stroke-linecap:round;stroke-linejoin:round"
       d="M 281.219,623.134 C 281.219,623.134 297.96,614.076 309.022,625.633 L 308.125,636.564 L 296.466,633.441 C 296.465,633.44 291.682,625.32 281.219,623.134 z"
       id="path2632" />
    <path
       style="fill:#e20909;stroke:#000000;stroke-width:3;stroke-linecap:round;stroke-linejoin:round"
       d="M 297.963,643.723 C 297.963,643.723 290.935,639.219 296.465,633.441 C 296.465,633.441 305.882,634.221 309.022,625.633 C 309.022,625.633 315.001,624.383 324.567,630.319 C 334.133,636.252 346.136,632.156 362.903,619.222 L 362.903,626.57 L 328.155,645.933 L 298.857,648.432 L 297.963,643.723 z"
       id="path2634" />
    <path
       style="fill:#e20909;stroke:#000000;stroke-width:3;stroke-linecap:round;stroke-linejoin:round"
       d="M 108.325,98.339 C 108.325,98.339 108.126,90.323 111.264,90.323 C 114.403,90.323 117.094,95.84 117.094,95.84 L 115.002,101.722 L 108.325,98.339 z"
       id="path2636" />
    <path
       style="fill:#e20909;stroke:#000000;stroke-width:3;stroke-linecap:round;stroke-linejoin:round"
       d="M 122.276,95.424 C 122.276,95.424 122.276,86.575 126.511,86.575 C 130.747,86.575 133.437,93.966 133.437,93.966 L 129.65,100.005 L 122.276,95.424 z"
       id="path2638" />
    <path
       style="fill:#e20909;stroke:#000000;stroke-width:3;stroke-linecap:round;stroke-linejoin:round"
       d="M 140.413,94.383 C 140.413,94.383 140.114,84.545 143.851,84.545 C 147.588,84.545 150.179,94.383 150.179,94.383 L 145.595,99.172 L 140.413,94.383 z"
       id="path2640" />
    <path
       style="fill:#e20909;stroke:#000000;stroke-width:3;stroke-linecap:round;stroke-linejoin:round"
       d="M 519.482,440.429 C 482.412,437.307 453.175,429.581 421.755,456.711 L 421.755,456.711 C 418.031,459.544 414.367,462.994 411.337,467.14 C 407.204,464.687 403.278,461.894 398.547,458.519 C 384.797,448.721 376.276,431.204 370.054,418.413 L 368.811,415.86 C 366.219,409.616 352.07,394.831 328.751,357.353 C 305.433,319.875 315.597,277.401 315.597,277.401 L 302.443,261.993 L 270.555,258.661 L 259.793,258.661 C 259.793,258.661 241.856,248.668 228.303,246.585 C 228.303,246.585 212.359,226.181 186.051,205.359 C 159.743,184.538 159.545,169.963 160.541,159.552 C 161.537,149.142 154.001,125.31 151.99,117.55 C 149.978,109.79 153.965,104.168 153.965,100.837 C 153.965,97.506 150.178,94.383 150.178,94.383 C 150.178,94.383 144.01,97.27 140.412,94.383 C 140.412,94.383 138.747,97.883 139.25,102.44 C 138.45,99.225 136.705,94.315 133.437,93.966 C 133.437,93.966 128.654,98.547 122.276,95.424 C 122.276,95.424 120.697,96.05 122.893,102.599 C 121.593,99.598 119.49,95.84 117.094,95.84 C 117.094,95.84 114.576,100.465 108.325,98.339 C 108.325,98.339 103.884,104.882 111.314,118.951 C 114.503,124.99 110.688,136.443 114.702,147.268 C 118.987,158.824 125.863,163.716 125.863,163.716 C 127.359,165.278 124.268,181.831 144.597,216.185 C 144.597,216.185 134.034,226.388 139.216,244.71 C 139.216,244.71 143.402,230.968 152.968,224.721 C 152.968,224.721 159.345,246.792 166.321,254.079 C 174.891,259.701 174.891,259.701 174.891,259.701 C 174.891,259.701 165.823,273.026 172.4,289.891 C 172.4,289.891 176.585,274.275 185.554,272.401 C 185.554,272.401 178.379,284.894 183.162,306.131 C 183.162,306.131 185.255,289.89 194.821,284.894 C 194.821,284.894 190.635,300.197 202.593,306.443 C 202.593,306.443 199.604,290.203 207.077,290.203 C 207.077,290.203 216.658,307.76 235.926,320.341 C 237.122,321.122 240.859,349.231 268.661,372.341 C 296.463,395.453 308.122,402.636 303.937,419.814 C 299.751,436.991 288.605,479.714 302.143,515.07 C 308.721,532.248 308.421,538.495 306.926,546.615 C 306.926,546.615 317.091,541.305 317.091,526.627 C 317.091,526.627 327.255,539.119 324.266,557.545 C 324.266,557.545 334.43,551.611 334.43,536.934 C 334.43,536.934 357.451,549.738 363.827,560.566 C 370.205,571.393 370.205,584.3 370.205,593.046 C 370.205,605.122 367.951,636.292 312.807,644.682 C 307.674,645.463 300.499,644.057 294.969,643.277 C 289.439,642.497 277.48,645.308 275.089,657.488 C 275.089,657.488 287.197,662.016 284.207,671.073 C 284.207,671.073 284.955,677.476 293.325,677.476 C 301.695,677.476 304.237,672.635 304.237,672.635 C 304.237,672.635 302.443,678.725 310.216,677.32 C 310.216,677.32 317.69,670.604 323.37,679.505 C 323.37,679.505 334.132,685.128 335.328,677.788 C 336.523,670.449 338.317,660.142 348.182,660.142 C 358.047,660.142 354.311,669.981 353.563,673.728 C 352.816,677.476 355.656,682.785 360.588,680.755 C 360.588,680.755 366.269,669.043 376.732,676.85 C 376.732,676.85 383.757,676.694 384.953,670.604 C 386.149,664.513 385.552,660.767 380.918,655.926 C 380.918,655.926 394.919,642.6 394.919,613.451 C 394.919,613.451 396.713,624.486 408.472,632.189 C 408.472,632.189 410.067,607.202 405.682,573.89 C 405.682,573.89 410.066,581.385 424.017,578.886 C 424.017,578.886 409.269,565.977 407.276,547.655 C 405.283,529.333 402.092,515.593 386.348,509.554 C 370.604,503.515 357.052,498.045 357.052,491.854 C 357.052,471.659 361.013,458.451 363.106,431.592 L 363.107,431.586 C 369.576,444.36 378.289,459.2 391.806,468.835 C 396.871,472.446 401.202,475.461 405.696,478.109 C 405.639,478.288 405.567,478.453 405.511,478.633 C 404.473,482.034 403.956,485.505 403.956,489.034 C 403.956,496.479 406.258,504.184 410.847,512.056 C 426.713,539.262 448.116,554.246 471.111,554.246 C 492.925,554.246 507.583,543.954 507.583,528.637 C 507.583,504.443 488.863,488.299 451.944,480.66 C 438.516,477.88 429.587,475.391 422.57,472.622 C 425.727,468.971 429.924,465.608 434.967,462.74 C 449.536,454.791 469.86,454.792 485.999,457.914 C 502.143,461.037 553.861,482.587 571.499,418.249 C 571.5,418.254 556.553,443.552 519.482,440.429 z M 449.62,492.917 C 480.577,499.326 495.625,511.01 495.625,528.642 C 495.625,537.701 483.312,541.759 471.111,541.759 C 452.447,541.759 434.673,528.903 421.059,505.559 C 417.652,499.715 415.941,494.16 415.941,488.965 C 415.941,487.122 416.212,485.339 416.644,483.592 C 424.639,486.938 434.564,489.802 449.62,492.917 z"
       id="path2642" />
    <path
       style="fill:none;stroke:#000000;stroke-width:3;stroke-linecap:round;stroke-linejoin:round"
       d="M 313.805,655.928 C 313.805,655.928 304.238,660.301 304.238,672.637"
       id="path2644" />
    <path
       style="fill:#e20909;stroke:#000000;stroke-width:3;stroke-linecap:round;stroke-linejoin:round"
       d="M 405.696,478.112 C 405.696,478.112 415.185,482.995 416.644,483.591"
       id="path2646" />
    <path
       style="fill:none;stroke:#000000;stroke-width:3;stroke-linecap:round;stroke-linejoin:round"
       d="M 411.338,467.14 C 411.338,467.14 416.571,470.486 422.57,472.627"
       id="path2648" />
    <path
       id="path2654"
       d="M 330.943,191.109 C 330.943,191.109 332.189,187.453 337.122,187.453 C 337.122,187.453 334.513,190.609 334.513,195.98 L 331.144,194.792 L 330.943,191.109 z"
       style="fill:#e20909;stroke:#000000;stroke-width:3;stroke-linecap:round;stroke-linejoin:round" />
    <path
       id="path2656"
       d="M 337.273,199.123 C 337.273,199.123 338.14,195.752 342.563,195.384 C 342.563,195.384 340.438,198.409 340.805,203.224 L 337.703,202.41 L 337.273,199.123 z"
       style="fill:#e20909;stroke:#000000;stroke-width:3;stroke-linecap:round;stroke-linejoin:round" />
    <path
       id="path2658"
       d="M 354.864,165.196 C 354.864,165.196 351.621,167.309 350.575,173.867 C 350.575,173.867 354.996,169.339 360.035,168.245 L 359.096,164.966 L 354.864,165.196 z"
       style="fill:#e20909;stroke:#000000;stroke-width:3;stroke-linecap:round;stroke-linejoin:round" />
    <path
       id="path2660"
       d="M 363.897,169.605 C 363.897,169.605 361.005,171.489 360.072,177.338 C 360.072,177.338 364.015,173.299 368.509,172.324 L 367.67,169.4 L 363.897,169.605 z"
       style="fill:#e20909;stroke:#000000;stroke-width:3;stroke-linecap:round;stroke-linejoin:round" />
    <path
       style="fill:#e20909;stroke:#000000;stroke-width:3;stroke-linecap:round;stroke-linejoin:round"
       d="M 372.1,240.546 C 372.1,240.546 352.419,248.731 338.02,229.927 C 326.062,214.312 318.129,196.91 326.211,191.668 C 330.546,188.857 332.787,192.449 333.685,194.635 C 334.581,196.821 346.543,212.135 364.029,205.722 C 378.08,200.569 378.827,185.578 378.827,185.578 C 378.827,185.578 373.277,171.909 360.591,168.4 C 355.509,166.994 353.117,165.745 355.509,160.123 C 357.901,154.502 357.751,152.16 362.086,150.91 C 366.421,149.66 364.776,147.786 362.982,147.786 C 361.188,147.786 364.178,139.354 370.007,144.038 C 375.837,148.723 388.692,152.627 403.041,165.588 C 417.391,178.549 410.963,183.234 420.829,191.197 C 427.195,196.338 437.735,209.021 435.367,225.053 C 436.598,227.351 437.3,229.999 437.3,232.82 C 437.3,241.497 430.66,248.553 422.399,248.745 C 420.764,250.424 418.997,252.189 416.943,253.817 C 401.896,265.737 372.599,289.473 367.018,310.502 C 367.018,310.502 355.258,299.258 365.025,283.019 C 365.025,283.019 353.065,295.304 334.532,295.304 C 315.997,295.304 298.459,293.43 284.109,320.705 C 284.109,320.705 276.137,291.139 305.035,279.896 C 305.035,279.896 283.91,281.146 270.357,273.858 C 256.804,266.569 245.245,267.195 231.892,277.605 C 231.892,277.605 232.49,253.454 264.179,249.497 C 264.179,249.497 245.445,239.711 215.749,256.993 C 215.749,256.993 232.292,227.427 260.791,231.591 C 260.791,231.591 242.255,213.06 208.574,217.849 C 208.574,217.849 225.913,195.987 263.581,198.277 C 263.581,198.277 236.675,193.904 224.717,179.329 C 224.717,179.329 273.147,171.834 293.476,199.942 C 293.476,199.942 289.889,176.206 313.206,172.459 C 313.206,172.459 291.084,204.315 329.947,218.682"
       id="path2662" />
    <path
       style="fill:none;stroke:#000000;stroke-width:3;stroke-linecap:round;stroke-linejoin:round"
       d="M 409.193,241.383 C 411.901,245.815 416.649,248.752 422.053,248.752 C 422.168,248.752 422.283,248.75 422.398,248.748"
       id="path2664" />
    <path
       style="fill:none;stroke:#000000;stroke-width:3;stroke-linecap:round;stroke-linejoin:round"
       d="M 435.367,225.057 C 432.76,220.188 427.774,216.895 422.054,216.895 C 420.561,216.895 419.117,217.119 417.753,217.537"
       id="path2666" />
    <path
       id="path2670"
       d="M 400.5,181.207 C 399.105,179.75 398.178,178.04 397.548,176.338 L 397.538,176.332 C 397.538,176.332 393.895,180.895 395.717,186.049 C 397.538,191.201 400.687,192.803 402.444,190.968 C 404.184,189.149 404.048,186.482 404.045,186.433 C 403.346,184.753 402.235,183.02 400.5,181.207 z" />
    <path
       id="path2672"
       d="M 396.314,167.882 C 396.314,167.882 395.617,176.106 400.5,181.207 C 405.383,186.308 405.383,190.785 404.885,195.157"
       style="fill:none;stroke:#000000;stroke-width:3;stroke-linecap:round;stroke-linejoin:round" />
  </g>
  <g
     inkscape:groupmode="layer"
     id="layer3"
     inkscape:label="Reflet final"
     style="display:inline"
     sodipodi:insensitive="true">
    <path
       style="fill:url(#radialGradient3236);fill-opacity:1"
       d="M 1.5,1.5 L 1.5,460.3679 C 1.5,626.67854 135.81454,761.5 301.49993,761.5 C 467.1854,761.5 601.5,626.67854 601.5,460.3679 L 601.5,1.5 L 1.5,1.5 z "
       id="path2346" />
  </g>
  <g
     inkscape:groupmode="layer"
     id="layer4"
     inkscape:label="Contour final"
     style="display:inline"
     sodipodi:insensitive="true">
    <path
       style="fill:none;fill-opacity:1;stroke:#000000;stroke-width:3;stroke-miterlimit:4;stroke-dasharray:none;stroke-opacity:1"
       d="M 1.5,1.5 L 1.5,460.36794 C 1.5,626.67854 135.81454,761.5 301.49993,761.5 C 467.1854,761.5 601.5,626.67854 601.5,460.36794 L 601.5,1.5 L 1.5,1.5 z "
       id="path3239" />
  </g>
</svg>
