<?xml version="1.0" encoding="UTF-8"?>
<svg version="1.0" viewBox="0 0 603 763" xmlns="http://www.w3.org/2000/svg" xmlns:cc="http://creativecommons.org/ns#" xmlns:dc="http://purl.org/dc/elements/1.1/" xmlns:rdf="http://www.w3.org/1999/02/22-rdf-syntax-ns#" xmlns:xlink="http://www.w3.org/1999/xlink">
<metadata>
<rdf:RDF>
<cc:Work rdf:about="">
<dc:format>image/svg+xml</dc:format>
<dc:type rdf:resource="http://purl.org/dc/dcmitype/StillImage"/>
<dc:date>07-AUG-2006</dc:date>
<dc:creator>
<cc:Agent>
<dc:title>Jérôme BLUM (wagner51)</dc:title>
</cc:Agent>
</dc:creator>
<cc:license rdf:resource="http://creativecommons.org/licenses/GPL/2.0/"/>
<dc:coverage/>
<dc:description>Gabarit pour le Projet:Blasons de WIkipédia</dc:description>
<dc:subject>
<rdf:Bag>
<rdf:li>blason suisse modèle gabarit projet blasons</rdf:li>
</rdf:Bag>
</dc:subject>
<dc:language>fr</dc:language>
<dc:title>Gabrit d'un blason suisse</dc:title>
</cc:Work>
<cc:License rdf:about="http://creativecommons.org/licenses/GPL/2.0/">
<cc:permits rdf:resource="http://web.resource.org/cc/Reproduction"/>
<cc:permits rdf:resource="http://web.resource.org/cc/Distribution"/>
<cc:requires rdf:resource="http://web.resource.org/cc/Notice"/>
<cc:permits rdf:resource="http://web.resource.org/cc/DerivativeWorks"/>
<cc:requires rdf:resource="http://web.resource.org/cc/ShareAlike"/>
<cc:requires rdf:resource="http://web.resource.org/cc/SourceCode"/>
</cc:License>
</rdf:RDF>
</metadata>
<defs>
<radialGradient id="a" cx="858.04" cy="579.93" r="300" gradientTransform="matrix(1.215 1.5316e-24 1.4647e-23 1.2667 -839.19 -490.49)" gradientUnits="userSpaceOnUse">
<stop stop-color="#fff" stop-opacity=".31373" offset="0"/>
<stop stop-color="#fff" stop-opacity=".25098" offset=".19"/>
<stop stop-color="#6b6b6b" stop-opacity=".12549" offset=".6"/>
<stop stop-opacity=".12549" offset="1"/>
</radialGradient>
</defs>
<desc>Coat of Arms of Canton of Freiburg (Fribourg)</desc>
<g>
<path d="m1.5 1.5v458.87c0 166.31 134.31 301.13 300 301.13s300-134.82 300-301.13v-458.87h-600z" fill="#fff"/>
<path d="m4.669 504.17c21.131 145.55 145.97 257.33 296.83 257.33 150.86 0 275.7-111.78 296.83-257.33h-593.66z" fill="#e20909"/>
<path d="m312.71 685.25c14.274 3.064 18.221-10.729 18.221-10.729-20.042 7.053-19.131-15.637-15.791-27.594 3.341-11.959 17.578-22.781 25.509-13.797 7.93 8.982-0.609 19.011-0.609 19.011s29.456-7.053 29.456-30.968-25.265-32.308-43.422-18.396c-8.808 6.742-20.348 19.313-20.348 52.428-1e-3 10.425 0.608 28.205 6.984 30.045z" fill="#fff" stroke="#000" stroke-linecap="round" stroke-linejoin="round" stroke-width="3"/>
<path d="m290.28 685.25c-14.274 3.064-18.219-10.729-18.219-10.729 20.041 7.053 19.13-15.637 15.792-27.594-3.341-11.959-17.579-22.781-25.509-13.797-7.929 8.982 0.608 19.011 0.608 19.011s-29.455-7.053-29.455-30.968 25.262-32.308 43.423-18.396c8.806 6.742 20.346 19.313 20.346 52.428 0 10.425-0.608 28.205-6.986 30.045z" fill="#fff" stroke="#000" stroke-linecap="round" stroke-linejoin="round" stroke-width="3"/>
<path d="m284.22 591.36c0-17.675 12.457-26.563 17.275-48.46 4.819 21.897 17.274 30.784 17.274 48.46 0 26.577-12.913 33.385-12.913 62.794 0 22.447 6.264 22.131 6.264 30.669 0 9.169-6.89 8.853-10.625 21.55-3.737-12.697-10.626-12.383-10.626-21.55 0-8.538 6.263-8.224 6.263-30.669 1e-3 -29.406-12.912-36.217-12.912-62.794z" fill="#fff" stroke="#000" stroke-linecap="round" stroke-linejoin="round" stroke-width="3"/>
<path d="m322.13 654.15c0-2.64-2.118-4.778-4.734-4.778h-31.789c-2.612 0-4.732 2.14-4.732 4.778v0c0 2.639 2.119 4.778 4.732 4.778h31.789c2.616 0 4.734-2.14 4.734-4.778v0z" fill="#fff" stroke="#000" stroke-linecap="round" stroke-linejoin="round" stroke-width="3"/>
<line x1="4.669" x2="598.33" y1="504.17" y2="504.17" fill="none" stroke="#000" stroke-linejoin="round" stroke-width="3"/>
<path d="m312.71 194.61c14.274 3.064 18.221-10.729 18.221-10.729-20.042 7.053-19.131-15.637-15.791-27.594 3.341-11.959 17.578-22.781 25.509-13.797 7.93 8.982-0.609 19.011-0.609 19.011s29.456-7.053 29.456-30.968-25.265-32.308-43.422-18.396c-8.808 6.742-20.348 19.313-20.348 52.428-1e-3 10.425 0.608 28.205 6.984 30.045z" fill="#e20909" stroke="#000" stroke-linecap="round" stroke-linejoin="round" stroke-width="3"/>
<path d="m290.28 194.61c-14.274 3.064-18.219-10.729-18.219-10.729 20.041 7.053 19.13-15.637 15.792-27.594-3.341-11.959-17.579-22.781-25.509-13.797-7.929 8.982 0.608 19.011 0.608 19.011s-29.455-7.053-29.455-30.968 25.262-32.308 43.423-18.396c8.806 6.742 20.346 19.313 20.346 52.428 0 10.425-0.608 28.205-6.986 30.045z" fill="#e20909" stroke="#000" stroke-linecap="round" stroke-linejoin="round" stroke-width="3"/>
<path d="m284.22 100.73c0-17.675 12.457-26.563 17.275-48.46 4.819 21.897 17.274 30.784 17.274 48.46 0 26.577-12.913 33.385-12.913 62.794 0 22.447 6.264 22.131 6.264 30.669 0 9.169-6.89 8.853-10.625 21.55-3.737-12.697-10.626-12.383-10.626-21.55 0-8.538 6.263-8.224 6.263-30.669 1e-3 -29.406-12.912-36.217-12.912-62.794z" fill="#e20909" stroke="#000" stroke-linecap="round" stroke-linejoin="round" stroke-width="3"/>
<path d="m322.13 163.52c0-2.64-2.118-4.778-4.734-4.778h-31.789c-2.612 0-4.732 2.14-4.732 4.778v0c0 2.639 2.119 4.778 4.732 4.778h31.789c2.616-1e-3 4.734-2.14 4.734-4.778v0z" fill="#e20909" stroke="#000" stroke-linecap="round" stroke-linejoin="round" stroke-width="3"/>
<path d="m112.15 439.97c14.274 3.064 18.221-10.729 18.221-10.729-20.042 7.053-19.131-15.637-15.791-27.594 3.341-11.959 17.578-22.781 25.509-13.797 7.93 8.982-0.609 19.011-0.609 19.011s29.456-7.053 29.456-30.968-25.265-32.308-43.422-18.396c-8.808 6.742-20.348 19.313-20.348 52.428 0 10.425 0.608 28.205 6.984 30.045z" fill="#e20909" stroke="#000" stroke-linecap="round" stroke-linejoin="round" stroke-width="3"/>
<path d="m89.717 439.97c-14.274 3.064-18.219-10.729-18.219-10.729 20.041 7.053 19.13-15.637 15.792-27.594-3.341-11.959-17.579-22.781-25.509-13.797-7.929 8.982 0.608 19.011 0.608 19.011s-29.455-7.053-29.455-30.968 25.262-32.308 43.423-18.396c8.806 6.742 20.346 19.313 20.346 52.428 0 10.425-0.608 28.205-6.986 30.045z" fill="#e20909" stroke="#000" stroke-linecap="round" stroke-linejoin="round" stroke-width="3"/>
<path d="m83.657 346.09c0-17.675 12.457-26.563 17.275-48.46 4.819 21.897 17.275 30.784 17.275 48.46 0 26.577-12.914 33.385-12.914 62.794 0 22.447 6.264 22.131 6.264 30.669 0 9.169-6.891 8.853-10.625 21.55-3.737-12.697-10.626-12.383-10.626-21.55 0-8.538 6.263-8.224 6.263-30.669 1e-3 -29.406-12.912-36.217-12.912-62.794z" fill="#e20909" stroke="#000" stroke-linecap="round" stroke-linejoin="round" stroke-width="3"/>
<path d="m121.56 408.88c0-2.64-2.118-4.778-4.734-4.778h-31.79c-2.612 0-4.732 2.14-4.732 4.778v0c0 2.639 2.119 4.778 4.732 4.778h31.789c2.616-1e-3 4.735-2.14 4.735-4.778v0z" fill="#e20909" stroke="#000" stroke-linecap="round" stroke-linejoin="round" stroke-width="3"/>
<path d="m497.84 409.93c0-33.115-11.541-45.686-20.349-52.428-18.157-13.912-43.422-5.52-43.422 18.396s29.456 30.968 29.456 30.968-8.539-10.028-0.609-19.011c7.931-8.984 22.168 1.838 25.509 13.797 3.34 11.957 4.251 34.646-15.791 27.594 0 0 3.946 13.794 18.221 10.729 6.376-1.84 6.985-19.62 6.985-30.045z" fill="#e20909" stroke="#000" stroke-linecap="round" stroke-linejoin="round" stroke-width="3"/>
<path d="m506.3 409.93c0-33.115 11.541-45.686 20.347-52.428 18.161-13.912 43.423-5.52 43.423 18.396s-29.454 30.968-29.454 30.968 8.537-10.028 0.607-19.011c-7.931-8.984-22.168 1.838-25.509 13.797-3.339 11.957-4.25 34.646 15.791 27.594 0 0-3.944 13.794-18.219 10.729-6.378-1.84-6.986-19.62-6.986-30.045z" fill="#e20909" stroke="#000" stroke-linecap="round" stroke-linejoin="round" stroke-width="3"/>
<path d="m506.43 408.88c0 22.445 6.263 22.131 6.263 30.669 0 9.167-6.89 8.853-10.626 21.55-3.735-12.697-10.626-12.381-10.626-21.55 0-8.538 6.265-8.222 6.265-30.669 0-29.409-12.914-36.217-12.914-62.794 0-17.676 12.456-26.563 17.275-48.46 4.818 21.897 17.275 30.785 17.275 48.46 0 26.577-12.914 33.388-12.912 62.794z" fill="#e20909" stroke="#000" stroke-linecap="round" stroke-linejoin="round" stroke-width="3"/>
<path d="m481.44 408.88c0 2.638 2.118 4.777 4.734 4.778h31.789c2.613 0 4.732-2.14 4.732-4.778v0c0-2.639-2.12-4.778-4.732-4.778h-31.789c-2.615 0-4.734 2.138-4.734 4.778v0z" fill="#e20909" stroke="#000" stroke-linecap="round" stroke-linejoin="round" stroke-width="3"/>
<path d="m314.83 377.29v-25.524h-26.58v25.524h-26.58v108.01h24.034v-28.483c0-9.193 7.071-16.646 15.793-16.646s15.793 7.453 15.793 16.646v28.483h24.034v-108.01h-26.494z" fill="#e20909" stroke="#000" stroke-linecap="round" stroke-linejoin="round" stroke-width="3"/>
<path d="m248.63 316.99h-24.033v-27.743h-13.046v196.05h50.126v-196.05h-13.047v27.743zm129.78-27.743v27.743h-24.033v-27.743h-13.047v196.05h50.126v-196.05h-13.046z" fill="#e20909" stroke="#000" stroke-linecap="round" stroke-linejoin="round" stroke-width="3"/>
<path d="m198.5 504.17h87.207v-18.864h-87.207v18.864zm118.79-18.864v18.864h87.207v-18.864h-87.207z" fill="#e20909" stroke="#000" stroke-linecap="round" stroke-linejoin="round" stroke-width="3"/>
<path d="m256.87 274.45h-13.047v-19.975h-14.42v19.975h-13.046v-19.975h-14.42v34.771h69.353v-34.771h-14.42v19.975zm129.78-19.975v19.975h-13.046v-19.975h-14.42v19.975h-13.047v-19.975h-14.42v34.771h69.354v-34.771h-14.421z" fill="#e20909" stroke="#000" stroke-linecap="round" stroke-linejoin="round" stroke-width="3"/>
</g>
<g>
<path d="m1.5 1.5v458.87c0 166.31 134.31 301.13 300 301.13 165.69 0 300-134.82 300-301.13v-458.87h-600z" fill="url(#a)"/>
<path d="m1.5 1.5v458.87c0 166.31 134.31 301.13 300 301.13 165.69 0 300-134.82 300-301.13v-458.87h-600z" fill="none" stroke="#000" stroke-width="3"/>
</g>
</svg>
