<?xml version="1.0" encoding="UTF-8" standalone="no"?>
<svg
   xmlns:dc="http://purl.org/dc/elements/1.1/"
   xmlns:cc="http://creativecommons.org/ns#"
   xmlns:rdf="http://www.w3.org/1999/02/22-rdf-syntax-ns#"
   xmlns:svg="http://www.w3.org/2000/svg"
   xmlns="http://www.w3.org/2000/svg"
   xmlns:xlink="http://www.w3.org/1999/xlink"
   xmlns:sodipodi="http://sodipodi.sourceforge.net/DTD/sodipodi-0.dtd"
   xmlns:inkscape="http://www.inkscape.org/namespaces/inkscape"
   height="763"
   width="603"
   version="1.0"
   id="svg20"
   sodipodi:version="0.32"
   inkscape:version="0.46"
   sodipodi:docname="Bioggio-coat_of_arms.svg"
   sodipodi:docbase="C:\Documents and Settings\Steve\Bureau\Blason Villages Suisse pour Wikipédia (par Delta-9)"
   inkscape:output_extension="org.inkscape.output.svg.inkscape">
  <metadata
     id="metadata31">
    <rdf:RDF>
      <cc:Work
         rdf:about="">
        <dc:format>image/svg+xml</dc:format>
        <dc:type
           rdf:resource="http://purl.org/dc/dcmitype/StillImage" />
        <dc:date>07-AUG-2006</dc:date>
        <dc:creator>
          <cc:Agent>
            <dc:title>Jérôme BLUM (wagner51)</dc:title>
          </cc:Agent>
        </dc:creator>
        <cc:license
           rdf:resource="http://creativecommons.org/licenses/GPL/2.0/" />
        <dc:coverage />
        <dc:description>Gabarit pour le Projet:Blasons de WIkipédia</dc:description>
        <dc:subject>
          <rdf:Bag>
            <rdf:li>blason suisse modèle gabarit projet blasons</rdf:li>
          </rdf:Bag>
        </dc:subject>
        <dc:language>fr</dc:language>
        <dc:title>Gabrit d'un blason suisse</dc:title>
      </cc:Work>
      <cc:License
         rdf:about="http://creativecommons.org/licenses/GPL/2.0/">
        <cc:permits
           rdf:resource="http://web.resource.org/cc/Reproduction" />
        <cc:permits
           rdf:resource="http://web.resource.org/cc/Distribution" />
        <cc:requires
           rdf:resource="http://web.resource.org/cc/Notice" />
        <cc:permits
           rdf:resource="http://web.resource.org/cc/DerivativeWorks" />
        <cc:requires
           rdf:resource="http://web.resource.org/cc/ShareAlike" />
        <cc:requires
           rdf:resource="http://web.resource.org/cc/SourceCode" />
      </cc:License>
    </rdf:RDF>
  </metadata>
  <defs
     id="defs29"><inkscape:perspective
   sodipodi:type="inkscape:persp3d"
   inkscape:vp_x="0 : 381.5 : 1"
   inkscape:vp_y="0 : 1000 : 0"
   inkscape:vp_z="603 : 381.5 : 1"
   inkscape:persp3d-origin="301.5 : 254.33333 : 1"
   id="perspective28" />
<linearGradient
   id="linearGradient2893">
  <stop
     style="stop-color:#ffffff;stop-opacity:0.3137255;"
     offset="0"
     id="stop2895" />
  <stop
     id="stop2897"
     offset="0.19"
     style="stop-color:#ffffff;stop-opacity:0.25098041;" />
  <stop
     style="stop-color:#6b6b6b;stop-opacity:0.1254902;"
     offset="0.60000002"
     id="stop2901" />
  <stop
     style="stop-color:#000000;stop-opacity:0.1254902;"
     offset="1"
     id="stop2899" />
</linearGradient>
<linearGradient
   id="linearGradient2955">
  <stop
     style="stop-color:white;stop-opacity:0;"
     offset="0"
     id="stop2965" />
  <stop
     style="stop-color:black;stop-opacity:0.64583331;"
     offset="1"
     id="stop2959" />
</linearGradient>
<radialGradient
   inkscape:collect="always"
   xlink:href="#linearGradient2893"
   id="radialGradient3236"
   gradientUnits="userSpaceOnUse"
   gradientTransform="matrix(1.215027,1.531577e-24,1.464684e-23,1.266667,-839.1924,-490.4894)"
   cx="858.04236"
   cy="579.93323"
   fx="858.04236"
   fy="579.93323"
   r="300" />
<inkscape:perspective
   id="perspective2607"
   inkscape:persp3d-origin="306 : 264 : 1"
   inkscape:vp_z="612 : 396 : 1"
   inkscape:vp_y="0 : 1000 : 0"
   inkscape:vp_x="0 : 396 : 1"
   sodipodi:type="inkscape:persp3d" />
<inkscape:perspective
   id="perspective2634"
   inkscape:persp3d-origin="306 : 264 : 1"
   inkscape:vp_z="612 : 396 : 1"
   inkscape:vp_y="0 : 1000 : 0"
   inkscape:vp_x="0 : 396 : 1"
   sodipodi:type="inkscape:persp3d" />

	
	
	
	
	

	
	

		
		
		
	
		
		
		
	
		
		
	
		
		
	
			
			
			
		
			
			
			
			
			
			
				
		
			
			
			
		
				
				
				
				
			
				
				
				
				
			</defs>
  <sodipodi:namedview
     inkscape:window-height="691"
     inkscape:window-width="939"
     inkscape:pageshadow="2"
     inkscape:pageopacity="0.0"
     guidetolerance="10.0"
     gridtolerance="10.0"
     objecttolerance="10.0"
     borderopacity="1.0"
     bordercolor="#666666"
     pagecolor="#ffffff"
     id="base"
     inkscape:zoom="0.30129657"
     inkscape:cx="128.10697"
     inkscape:cy="427.07448"
     inkscape:window-x="1405"
     inkscape:window-y="113"
     inkscape:current-layer="layer2"
     showgrid="false"
     showguides="true"
     inkscape:guide-bbox="true">
    <sodipodi:guide
       orientation="horizontal"
       position="761.5"
       id="guide1885" />
    <sodipodi:guide
       orientation="vertical"
       position="1.5"
       id="guide1887" />
    <sodipodi:guide
       orientation="horizontal"
       position="1.5"
       id="guide1889" />
    <sodipodi:guide
       orientation="vertical"
       position="601.5"
       id="guide1891" />
    <sodipodi:guide
       orientation="vertical"
       position="301.50081"
       id="guide1893" />
  </sodipodi:namedview>
  <desc
     id="desc22">Coat of Arms of Canton of Freiburg (Fribourg)</desc>
  <g
     inkscape:groupmode="layer"
     id="layer1"
     inkscape:label="Fond écu"
     style="opacity:1"
     sodipodi:insensitive="true">
    <path
       id="path1899"
       d="M 1.5,1.49998 L 1.5,460.3679 C 1.5,626.6785 135.81456,761.5 301.49999,761.5 C 467.18543,761.5 601.5,626.6785 601.5,460.3679 L 601.5,1.49998 L 1.5,1.49998 z"
       style="fill:#e20909;fill-opacity:1" />
    <path
       id="path2555"
       d="M 301.5,761.5 C 467.186,761.5 601.5,626.679 601.5,460.368 L 601.5,1.5 L 301.5,1.5 L 301.5,761.5 z"
       style="opacity:1;fill:#2b5df2;display:inline" />
  </g>
  <g
     inkscape:groupmode="layer"
     id="layer2"
     inkscape:label="Meubles"
     style="opacity:1;display:inline"
     sodipodi:insensitive="true">
    <path
       style="fill:#fcef3c;stroke:#000000;stroke-width:3"
       d="M 459.017,340.041 C 466.163,314.472 484.977,299.295 524.197,270.977 L 520.413,265.44 C 494.352,283.374 472.758,297.955 461.743,313.228 C 460.531,314.909 459.411,316.611 458.351,318.335 C 457.245,281.775 456.206,245.056 455.412,213.692 C 456.815,196.315 463.16,178.126 487.435,166.407 L 485.032,161.429 C 469.289,169.03 460.113,178.875 454.821,189.375 C 454.244,164.524 453.896,145.058 453.896,134.824 L 449.105,134.824 C 449.105,145.058 448.756,164.524 448.18,189.375 C 442.887,178.875 433.711,169.029 417.968,161.429 L 415.566,166.407 C 439.84,178.126 446.185,196.314 447.588,213.692 C 446.793,245.056 445.755,281.775 444.649,318.335 C 443.589,316.611 442.47,314.909 441.257,313.228 C 430.243,297.955 408.648,283.374 382.587,265.44 L 378.803,270.977 C 418.024,299.296 436.837,314.473 443.983,340.041 C 441.879,407.775 439.653,471.132 438.435,494.204 C 436.984,521.688 434.372,534.753 423.629,554.786 C 423.629,554.786 430.858,563.375 451.5,563.375 C 472.142,563.375 479.37,554.786 479.37,554.786 C 468.627,534.753 466.016,521.688 464.564,494.204 C 463.348,471.132 461.121,407.775 459.017,340.041 z"
       id="path2561" />
    <path
       style="fill:#fcef3c;stroke:#000000;stroke-width:3"
       d="M 334.025,331.704 C 334.025,331.704 322.338,270.311 383.562,268.703 C 383.563,268.703 390.93,325.353 334.025,331.704 z"
       id="path2567" />
    <path
       style="fill:#fcef3c;stroke:#000000;stroke-width:3"
       d="M 383.563,268.703 C 383.563,268.703 376.704,216.371 430.814,211.544 C 430.813,211.544 434.878,272.259 383.563,268.703 z"
       id="path2569" />
    <path
       style="fill:#fcef3c;stroke:#000000;stroke-width:3"
       d="M 316.242,216.117 C 316.242,216.117 314.21,275.054 383.562,268.703 C 383.563,268.703 390.294,209.893 316.242,216.117 z"
       id="path2571" />
    <path
       style="fill:#fcef3c;stroke:#000000;stroke-width:3"
       d="M 422.938,166.071 C 422.996,168.764 358.92,175.978 353.585,115.771 C 353.586,115.771 421.668,106.88 422.938,166.071 z"
       id="path2573" />
    <path
       style="fill:#fcef3c;stroke:#000000;stroke-width:3"
       d="M 568.975,331.704 C 568.975,331.704 580.661,270.311 519.438,268.703 C 519.438,268.703 512.07,325.353 568.975,331.704 z"
       id="path2577" />
    <path
       style="fill:#fcef3c;stroke:#000000;stroke-width:3"
       d="M 519.438,268.703 C 519.438,268.703 526.296,216.371 472.186,211.544 C 472.186,211.544 468.121,272.259 519.438,268.703 z"
       id="path2579" />
    <path
       style="fill:#fcef3c;stroke:#000000;stroke-width:3"
       d="M 586.757,216.117 C 586.757,216.117 588.789,275.054 519.438,268.703 C 519.438,268.703 512.705,209.893 586.757,216.117 z"
       id="path2581" />
    <path
       style="fill:#fcef3c;stroke:#000000;stroke-width:3"
       d="M 480.062,166.071 C 480.004,168.764 544.08,175.978 549.414,115.771 C 549.413,115.771 481.331,106.88 480.062,166.071 z"
       id="path2583" />
    <path
       id="path2585"
       d="M 451.5,145.24 C 446.817,145.24 425.732,127.965 425.732,102.815 C 425.732,77.666 442.499,60.391 448.087,51.5 C 448.087,51.5 470.95,68.013 470.95,95.957 C 470.951,123.901 456.436,145.24 451.5,145.24 z"
       style="fill:#fcef3c;stroke:#000000;stroke-width:3" />
    <path
       id="path2591"
       d="M 151.5,177.5 C 144.538,177.5 110.038,199 110.038,316.5 C 110.038,434 146.462,477 151.5,528 C 156.538,477 192.962,434 192.962,316.5 C 192.962,199 158.462,177.5 151.5,177.5 z"
       style="fill:#fcef3c;stroke:#000000;stroke-width:3;stroke-linecap:round;stroke-linejoin:round" />
    <path
       id="path2593"
       d="M 178.205,73.833 C 178.205,60.946 166.249,50.5 151.5,50.5 C 136.751,50.5 124.795,60.947 124.795,73.833 C 124.795,81.589 129.13,88.458 135.795,92.701 L 135.795,159.167 L 167.204,159.167 L 167.204,92.701 C 173.87,88.458 178.205,81.59 178.205,73.833 z"
       style="fill:#fcef3c;stroke:#000000;stroke-width:3;stroke-linecap:round;stroke-linejoin:round" />
    <path
       id="path2595"
       d="M 232.712,151.5 C 221.462,151.5 151.5,151.5 151.5,151.5 C 151.5,151.5 81.538,151.5 70.288,151.5 C 56.619,151.5 45.538,161.909 45.538,174.75 C 45.538,187.591 56.619,198 70.288,198 C 80.907,198 89.964,191.718 93.477,182.894 C 93.477,182.894 111.204,182.894 118.644,182.894 C 142,182.894 151.5,215.75 151.5,215.75 C 151.5,215.75 161,182.894 184.356,182.894 C 191.796,182.894 209.523,182.894 209.523,182.894 C 213.036,191.718 222.093,198 232.712,198 C 246.381,198 257.462,187.591 257.462,174.75 C 257.462,161.909 246.381,151.5 232.712,151.5 z"
       style="fill:#fcef3c;stroke:#000000;stroke-width:3;stroke-linecap:round;stroke-linejoin:round" />
    <path
       id="path2599"
       d="M 149.07,151.5 C 157.642,146.405 167.204,141.317 167.204,136.167"
       style="fill:none;stroke:#000000;stroke-width:3;stroke-linecap:round;stroke-linejoin:round" />
    <path
       id="path2601"
       d="M 135.795,142.233 C 135.795,132.9 167.204,123.768 167.204,114.434"
       style="fill:none;stroke:#000000;stroke-width:3;stroke-linecap:round;stroke-linejoin:round" />
    <path
       id="path2603"
       d="M 135.795,120.5 C 135.795,111.167 167.204,102.035 167.204,92.701"
       style="fill:none;stroke:#000000;stroke-width:3;stroke-linecap:round;stroke-linejoin:round" />
    <path
       id="path2605"
       d="M 90.842,161.794 C 93.492,165.496 95.038,169.953 95.038,174.75 C 95.038,177.615 94.486,180.359 93.477,182.894"
       style="fill:none;stroke:#000000;stroke-width:3;stroke-linecap:round;stroke-linejoin:round" />
    <path
       id="path2607"
       d="M 212.158,161.794 C 209.508,165.496 207.962,169.953 207.962,174.75 C 207.962,177.615 208.514,180.359 209.523,182.894"
       style="fill:none;stroke:#000000;stroke-width:3;stroke-linecap:round;stroke-linejoin:round" />
    <line
       id="line2609"
       y2="215.75"
       x2="151.5"
       y1="453.5"
       x1="151.5"
       style="fill:none;stroke:#000000;stroke-width:3;stroke-linecap:round;stroke-linejoin:round" />
    <line
       id="line2611"
       y2="1.5"
       x2="301.5"
       y1="761.5"
       x1="301.5"
       style="fill:none;stroke:#000000;stroke-width:3" />
    <path
       style="fill:#ffffff"
       d="M 551.961,544.963 C 529.698,544.963 524.133,530.501 501.87,530.501 C 479.607,530.501 474.042,544.963 451.779,544.963 C 429.514,544.963 423.95,530.501 401.685,530.501 C 379.421,530.501 373.857,544.963 351.592,544.963 C 329.327,544.963 323.763,530.501 301.499,530.501 C 279.234,530.501 273.67,544.963 251.405,544.963 C 229.142,544.963 223.577,530.501 201.314,530.501 C 179.051,530.501 173.486,544.963 151.223,544.963 C 128.958,544.963 123.394,530.501 101.129,530.501 C 78.866,530.501 73.3,544.963 51.037,544.963 C 32.1,544.963 25.238,534.505 9.911,531.378 C 15.601,555.004 24.057,577.544 34.933,598.628 C 39.43,600.383 44.515,601.629 51.037,601.629 C 73.301,601.629 78.866,587.167 101.129,587.167 C 123.394,587.167 128.958,601.629 151.223,601.629 C 173.486,601.629 179.051,587.167 201.314,587.167 C 223.577,587.167 229.142,601.629 251.405,601.629 C 273.67,601.629 279.234,587.167 301.499,587.167 C 323.763,587.167 329.327,601.629 351.592,601.629 C 373.857,601.629 379.421,587.167 401.685,587.167 C 423.95,587.167 429.514,601.629 451.779,601.629 C 474.042,601.629 479.607,587.167 501.87,587.167 C 524.133,587.167 529.698,601.629 551.961,601.629 C 558.484,601.629 563.569,600.384 568.065,598.628 C 578.941,577.544 587.397,555.004 593.087,531.378 C 577.761,534.505 570.899,544.963 551.961,544.963 z"
       id="path2615" />
    <path
       style="fill:none;stroke:#000000;stroke-width:3;stroke-linecap:round;stroke-linejoin:round"
       d="M 34.934,598.628 C 39.431,600.383 44.516,601.629 51.038,601.629 C 73.302,601.629 78.867,587.167 101.13,587.167 C 123.395,587.167 128.959,601.629 151.224,601.629 C 173.487,601.629 179.052,587.167 201.315,587.167 C 223.578,587.167 229.143,601.629 251.406,601.629 C 273.671,601.629 279.235,587.167 301.5,587.167 C 323.764,587.167 329.328,601.629 351.593,601.629 C 373.858,601.629 379.422,587.167 401.686,587.167 C 423.951,587.167 429.515,601.629 451.78,601.629 C 474.043,601.629 479.608,587.167 501.871,587.167 C 524.134,587.167 529.699,601.629 551.962,601.629 C 558.485,601.629 563.57,600.384 568.066,598.628"
       id="path2617" />
    <path
       style="fill:none;stroke:#000000;stroke-width:3;stroke-linecap:round;stroke-linejoin:round"
       d="M 593.088,531.378 C 577.761,534.505 570.9,544.963 551.961,544.963 C 529.698,544.963 524.133,530.501 501.87,530.501 C 479.607,530.501 474.042,544.963 451.779,544.963 C 429.514,544.963 423.95,530.501 401.685,530.501 C 379.421,530.501 373.857,544.963 351.592,544.963 C 329.327,544.963 323.763,530.501 301.499,530.501 C 279.234,530.501 273.67,544.963 251.405,544.963 C 229.142,544.963 223.577,530.501 201.314,530.501 C 179.051,530.501 173.486,544.963 151.223,544.963 C 128.958,544.963 123.394,530.501 101.129,530.501 C 78.866,530.501 73.3,544.963 51.037,544.963 C 32.1,544.963 25.238,534.505 9.911,531.378"
       id="path2619" />
    <path
       style="fill:#ffffff;stroke:#000000;stroke-width:3;stroke-linecap:round;stroke-linejoin:round"
       d="M 217.243,467.702 C 157.577,467.702 151.243,553.702 151.243,553.702 C 182.577,518.368 246.366,508.88 249.91,571.035 C 253.407,632.369 197.91,643.702 197.91,643.702 C 245.91,678.369 289.091,617.702 289.091,569.035 C 289.091,520.368 255.827,467.702 217.243,467.702 z M 451.758,553.702 C 451.758,553.702 445.424,467.702 385.758,467.702 C 347.174,467.702 313.91,520.368 313.91,569.035 C 313.91,617.702 357.09,678.369 405.09,643.702 C 405.09,643.702 349.594,632.369 353.09,571.035 C 356.635,508.88 420.424,518.368 451.758,553.702 z"
       id="path2623" />
    <path
       style="fill:#ffffff;stroke:#000000;stroke-width:3;stroke-linecap:round;stroke-linejoin:round"
       d="M 358.576,423.036 C 358.576,373.702 309.756,323.702 301.5,271.036 C 293.244,323.703 244.423,373.703 244.423,423.036 C 244.423,479.035 289.09,509.035 289.09,569.035 C 289.09,608.368 270.423,627.702 270.423,666.369 C 270.423,705.036 301.5,717.702 301.5,717.702 C 301.5,717.702 332.576,705.036 332.576,666.369 C 332.576,627.702 313.91,608.368 313.91,569.035 C 313.91,509.035 358.576,479.035 358.576,423.036 z"
       id="path2625" />
    <path
       style="fill:#fcef3c;stroke:#000000;stroke-width:3"
       d="M 364.738,552.5 L 238.262,552.5 C 229.323,552.5 222.077,561.007 222.077,571.5 C 222.077,581.993 229.323,590.5 238.262,590.5 L 364.739,590.5 C 373.677,590.5 380.925,581.993 380.925,571.5 C 380.925,561.007 373.676,552.5 364.738,552.5 z"
       id="path2627" />
  </g>
  <g
     inkscape:groupmode="layer"
     id="layer3"
     inkscape:label="Reflet final"
     style="display:inline"
     sodipodi:insensitive="true">
    <path
       style="fill:url(#radialGradient3236);fill-opacity:1"
       d="M 1.5,1.5 L 1.5,460.3679 C 1.5,626.67854 135.81454,761.5 301.49993,761.5 C 467.1854,761.5 601.5,626.67854 601.5,460.3679 L 601.5,1.5 L 1.5,1.5 z "
       id="path2346" />
  </g>
  <g
     inkscape:groupmode="layer"
     id="layer4"
     inkscape:label="Contour final"
     style="display:inline"
     sodipodi:insensitive="true">
    <path
       style="fill:none;fill-opacity:1;stroke:#000000;stroke-width:3;stroke-miterlimit:4;stroke-dasharray:none;stroke-opacity:1"
       d="M 1.5,1.5 L 1.5,460.36794 C 1.5,626.67854 135.81454,761.5 301.49993,761.5 C 467.1854,761.5 601.5,626.67854 601.5,460.36794 L 601.5,1.5 L 1.5,1.5 z "
       id="path3239" />
  </g>
</svg>
