<?xml version="1.0" encoding="UTF-8"?>
<svg version="1.0" viewBox="0 0 603 763" xmlns="http://www.w3.org/2000/svg" xmlns:cc="http://creativecommons.org/ns#" xmlns:dc="http://purl.org/dc/elements/1.1/" xmlns:rdf="http://www.w3.org/1999/02/22-rdf-syntax-ns#" xmlns:xlink="http://www.w3.org/1999/xlink">
<metadata>
<rdf:RDF>
<cc:Work rdf:about="">
<dc:format>image/svg+xml</dc:format>
<dc:type rdf:resource="http://purl.org/dc/dcmitype/StillImage"/>
<dc:date>07-AUG-2006</dc:date>
<dc:creator>
<cc:Agent>
<dc:title>Jérôme BLUM (wagner51)</dc:title>
</cc:Agent>
</dc:creator>
<cc:license rdf:resource="http://creativecommons.org/licenses/GPL/2.0/"/>
<dc:coverage/>
<dc:description>Gabarit pour le Projet:Blasons de WIkipédia</dc:description>
<dc:subject>
<rdf:Bag>
<rdf:li>blason suisse modèle gabarit projet blasons</rdf:li>
</rdf:Bag>
</dc:subject>
<dc:language>fr</dc:language>
<dc:title>Gabrit d'un blason suisse</dc:title>
</cc:Work>
<cc:License rdf:about="http://creativecommons.org/licenses/GPL/2.0/">
<cc:permits rdf:resource="http://web.resource.org/cc/Reproduction"/>
<cc:permits rdf:resource="http://web.resource.org/cc/Distribution"/>
<cc:requires rdf:resource="http://web.resource.org/cc/Notice"/>
<cc:permits rdf:resource="http://web.resource.org/cc/DerivativeWorks"/>
<cc:requires rdf:resource="http://web.resource.org/cc/ShareAlike"/>
<cc:requires rdf:resource="http://web.resource.org/cc/SourceCode"/>
</cc:License>
</rdf:RDF>
</metadata>
<defs>
<radialGradient id="a" cx="858.04" cy="579.93" r="300" gradientTransform="matrix(1.215 1.5316e-24 1.4647e-23 1.2667 -839.19 -490.49)" gradientUnits="userSpaceOnUse">
<stop stop-color="#fff" stop-opacity=".31373" offset="0"/>
<stop stop-color="#fff" stop-opacity=".25098" offset=".19"/>
<stop stop-color="#6b6b6b" stop-opacity=".12549" offset=".6"/>
<stop stop-opacity=".12549" offset="1"/>
</radialGradient>
</defs>
<desc>Coat of Arms of Canton of Freiburg (Fribourg)</desc>
<g>
<path d="m1.5 1.5v458.87c0 166.31 134.31 301.13 300 301.13s300-134.82 300-301.13v-458.87h-600z" fill="#2b5df2"/>
<g transform="translate(0,-2)">
<rect x="158.26" y="511.04" width="142.76" height="97.031" fill="#fff" stroke="#000" stroke-linecap="round" stroke-linejoin="round" stroke-width="3"/>
<polygon transform="translate(2e-6)" points="291.6 478.73 158.26 478.73 158.26 514.99 308.34 514.99" fill="#e20909" stroke="#000" stroke-linecap="round" stroke-linejoin="round" stroke-width="3"/>
<rect x="100.74" y="433.41" width="61.182" height="174.66" fill="#fff" stroke="#000" stroke-linecap="round" stroke-linejoin="round" stroke-width="3"/>
<polygon transform="translate(2e-6)" points="131.33 388.44 97.946 433.41 164.71 433.41" fill="#e20909" stroke="#000" stroke-linecap="round" stroke-linejoin="round" stroke-width="3"/>
<line x1="100.74" x2="161.92" y1="452.82" y2="452.82" fill="none" stroke="#000" stroke-width="3"/>
<line x1="100.74" x2="161.92" y1="472.23" y2="472.23" fill="none" stroke="#000" stroke-width="3"/>
<line x1="100.74" x2="161.92" y1="491.63" y2="491.63" fill="none" stroke="#000" stroke-width="3"/>
<line x1="100.74" x2="161.92" y1="511.04" y2="511.04" fill="none" stroke="#000" stroke-width="3"/>
<line x1="100.74" x2="301.02" y1="530.44" y2="530.44" fill="none" stroke="#000" stroke-width="3"/>
<line x1="100.74" x2="301.02" y1="549.85" y2="549.85" fill="none" stroke="#000" stroke-width="3"/>
<line x1="100.74" x2="301.02" y1="569.26" y2="569.26" fill="none" stroke="#000" stroke-width="3"/>
<line x1="100.74" x2="301.02" y1="588.66" y2="588.66" fill="none" stroke="#000" stroke-width="3"/>
<line x1="131.33" x2="131.33" y1="433.41" y2="452.82" fill="none" stroke="#000" stroke-width="3"/>
<line x1="131.33" x2="131.33" y1="472.23" y2="491.63" fill="none" stroke="#000" stroke-width="3"/>
<line x1="131.33" x2="131.33" y1="511.04" y2="530.44" fill="none" stroke="#000" stroke-width="3"/>
<line x1="131.33" x2="131.33" y1="549.85" y2="569.26" fill="none" stroke="#000" stroke-width="3"/>
<line x1="131.33" x2="131.33" y1="588.66" y2="608.07" fill="none" stroke="#000" stroke-width="3"/>
<line x1="208.28" x2="208.28" y1="514.99" y2="530.44" fill="none" stroke="#000" stroke-width="3"/>
<line x1="254.65" x2="254.65" y1="514.99" y2="530.44" fill="none" stroke="#000" stroke-width="3"/>
<line x1="208.28" x2="208.28" y1="549.85" y2="569.26" fill="none" stroke="#000" stroke-width="3"/>
<line x1="254.65" x2="254.65" y1="549.85" y2="569.26" fill="none" stroke="#000" stroke-width="3"/>
<line x1="208.28" x2="208.28" y1="588.66" y2="608.07" fill="none" stroke="#000" stroke-width="3"/>
<line x1="254.65" x2="254.65" y1="588.66" y2="608.07" fill="none" stroke="#000" stroke-width="3"/>
<line x1="185.1" x2="185.1" y1="530.44" y2="549.85" fill="none" stroke="#000" stroke-width="3"/>
<line x1="231.47" x2="231.47" y1="530.44" y2="549.85" fill="none" stroke="#000" stroke-width="3"/>
<line x1="277.83" x2="277.83" y1="530.44" y2="549.85" fill="none" stroke="#000" stroke-width="3"/>
<line x1="185.1" x2="185.1" y1="569.26" y2="588.66" fill="none" stroke="#000" stroke-width="3"/>
<line x1="231.47" x2="231.47" y1="569.26" y2="588.66" fill="none" stroke="#000" stroke-width="3"/>
<line x1="277.83" x2="277.83" y1="569.26" y2="588.66" fill="none" stroke="#000" stroke-width="3"/>
<path d="m131.33 558.14c-6.138 0-11.113 4.977-11.113 11.113v38.813h22.226v-38.813c0-6.137-4.975-11.113-11.113-11.113z"/>
<path d="m208.28 530.44c-4.669 0-8.454 3.785-8.454 8.453v30.359h16.909v-30.359c0-4.668-3.785-8.453-8.455-8.453z"/>
<path d="m254.65 530.44c-4.669 0-8.455 3.785-8.455 8.453v30.359h16.909v-30.359c0-4.668-3.785-8.453-8.454-8.453z"/>
<rect x="125.49" y="452.82" width="11.679" height="29.515"/>
<line x1="131.33" x2="131.33" y1="361.95" y2="388.44" fill="none" stroke="#000" stroke-width="3"/>
<line x1="123.57" x2="131.33" y1="372.06" y2="372.06" fill="none" stroke="#000" stroke-width="3"/>
<line x1="139.08" x2="131.33" y1="372.06" y2="372.06" fill="none" stroke="#000" stroke-width="3"/>
<path d="m442.65 587.15c-6.814-13.247-3.933-85.412-3.933-85.412l-10.036-1.568-10.035 1.568s2.884 72.165-3.93 85.412c-6.814 13.246-8.519 18.65-8.519 18.65h44.97c1e-3 1e-3 -1.702-5.404-8.517-18.65z" fill="#5ab532" stroke="#000" stroke-linecap="round" stroke-linejoin="round" stroke-width="3"/>
<path d="m480.08 529.42c-30.854 4.184-37.925-20.443-37.925-20.443-3.66 19.349-11.766 26.408-11.766 26.408-11.766-11.767-12.812-25.886-12.812-25.886-18.826 27.716-43.815 18.391-43.815 18.391-11.758 4.251-22.073 2.004-22.073 2.004 35.73-25.19 42.618-53.16 42.618-53.16v-6.192l6.798-9.15 18.825-9.413 24.316-0.784 12.812 12.812 9.151 7.844v6.436s10.72 30.954 39.48 52.133c2e-3 -3e-3 -12.524 5.612-25.609-1z" fill="#5ab532" stroke="#000" stroke-linecap="round" stroke-linejoin="round" stroke-width="3"/>
<path d="m480.08 529.42c-4.55-2.298-9.166-6.074-13.348-12.076" fill="none" stroke="#000" stroke-linecap="round" stroke-linejoin="round" stroke-width="3"/>
<path d="m373.76 527.89c7.055-2.551 14.629-7.441 20.807-16.56" fill="none" stroke="#000" stroke-linecap="round" stroke-linejoin="round" stroke-width="3"/>
<path d="m427.77 402.82-18.563 19.349v4.321s3.138 24.439-35.559 52.678c0 0 28.237 4.184 35.559-17.779 0 0-0.262 8.628-3.138 15.949 0 0 12.812-3.138 16.864-16.864 0 0 0.393 12.681 8.498 20.786 0 0 8.89-7.06 8.89-19.349 0 0 12.027 21.963 43.402 15.688 0 0-25.829-22.134-28.993-49.24l-1.074-6.451-16.211-16.211-9.675-2.877z" fill="#5ab532" stroke="#000" stroke-linecap="round" stroke-linejoin="round" stroke-width="3"/>
<path d="m432.22 361.51s-13.857 45.495-44.188 70.857c0 0 20.917 2.353 35.56-18.303 0 0-0.393 12.42 6.014 18.825 0 0 6.536-3.398 9.674-18.041 0 0 5.752 14.643 30.068 15.949 0 1e-3 -29.023-25.884-37.128-69.287z" fill="#5ab532" stroke="#000" stroke-linecap="round" stroke-linejoin="round" stroke-width="3"/>
</g>
<g transform="translate(.19567 2)">
<path d="m428.67 98.642c81.523-25.281 134.18-27.922 134.18-27.922s-7.768 4.82-13.665 12.26c-5.896 7.44-56.714 61.863-119.6 100.42-62.893 38.558-142.9 90.04-243.84 53.817l3.878-10.017 83.855-55.031 46.795-27.702 45.67-20.215 33.178-14.039 15.724-6.177s11.484-4.673 13.825-5.395z" fill="#fff" stroke="#000" stroke-linecap="round" stroke-linejoin="round" stroke-width="3"/>
<path d="m204.4 223.93s21.627-5.664 60.139 7.345c26.444 8.933 45.648 10.588 45.648 10.588" fill="none" stroke="#000" stroke-linecap="round" stroke-linejoin="round" stroke-width="3"/>
<path d="m268.96 181.98c18.046 0 43.268 8.146 61.587 17.857 20.341 10.782 45.328 15.291 56.36 9.005" fill="none" stroke="#000" stroke-linecap="round" stroke-linejoin="round" stroke-width="3"/>
<path d="m284.72 172.57s30.883-4.471 53.145 7.087c26.859 13.945 55.665 25.466 68.613 17.837" fill="none" stroke="#000" stroke-linecap="round" stroke-linejoin="round" stroke-width="3"/>
<path d="m304.31 161.28s24.481-6.426 56.207 7.332c30.711 13.316 61.129 19.78 69.07 14.787" fill="none" stroke="#000" stroke-linecap="round" stroke-linejoin="round" stroke-width="3"/>
<path d="m326.67 148.91s28.514-5.847 54.905 5.103 64.038 19.301 72.043 13.55" fill="none" stroke="#000" stroke-linecap="round" stroke-linejoin="round" stroke-width="3"/>
<path d="m354.32 134.32s17.707-5.018 50.838 7.898c33.13 12.915 60.241 16.931 67.534 11.261" fill="none" stroke="#000" stroke-linecap="round" stroke-linejoin="round" stroke-width="3"/>
<path d="m372.37 125.21s14.824-9.657 47.954 2.977c33.131 12.635 60.746 18.805 67.194 13.469" fill="none" stroke="#000" stroke-linecap="round" stroke-linejoin="round" stroke-width="3"/>
<path d="m396.53 113.47s15.646-6.341 45.126 6.013c29.48 12.353 57.719 12.243 63.355 7.201" fill="none" stroke="#000" stroke-linecap="round" stroke-linejoin="round" stroke-width="3"/>
<path d="m415.77 104.49s15.758-5.732 47.695 4.229c29.106 9.078 54.765 6.06 62.529-1.496" fill="none" stroke="#000" stroke-linecap="round" stroke-linejoin="round" stroke-width="3"/>
<path d="m450.71 92.144s19.963-2.52 40.365 2.347c20.402 4.867 46.833 1.238 51.91-4.521" fill="none" stroke="#000" stroke-linecap="round" stroke-linejoin="round" stroke-width="3"/>
<path d="m428.67 98.642c-92.094 28.559-221.02 86.01-352.48 201.18 0 0 1.798 14.413 16.847 14.413 2.152 0 103.7-111.74 335.63-215.59z" fill="#fff" stroke="#000" stroke-linecap="round" stroke-linejoin="round" stroke-width="3"/>
<path d="m174.24 150.1-8.946 9.128-0.776 12.758s10.017 9.781 113.33 55.68c103.32 45.901 182.46 76.144 247.69 91.604-55.196-38.039-130.69-76.493-234.01-122.39-103.32-45.901-117.29-46.777-117.29-46.777z" fill="#fff" stroke="#000" stroke-linecap="round" stroke-linejoin="round" stroke-width="3"/>
<path d="m71.642 104.36-15.996 6.155 6.155 15.996s33.857 26.255 90.019 39.99l12.447-7.731-2.606-14.419c-47.841-32.466-90.019-39.991-90.019-39.991z" fill="#fff"/>
<path d="m146.48 134.73c6.164 2.738 2.167 30.16 8.331 32.898" fill="none" stroke="#000" stroke-linecap="round" stroke-linejoin="round" stroke-width="3"/>
<path d="m135.97 128.81c6.164 2.739 1.041 32.697 7.204 35.436" fill="none" stroke="#000" stroke-linecap="round" stroke-linejoin="round" stroke-width="3"/>
<path d="m125.26 123.35c6.164 2.738 0.164 34.67 6.328 37.408" fill="none" stroke="#000" stroke-linecap="round" stroke-linejoin="round" stroke-width="3"/>
<path d="m114.34 118.36c6.164 2.738-0.3 35.713 5.865 38.451" fill="none" stroke="#000" stroke-linecap="round" stroke-linejoin="round" stroke-width="3"/>
<path d="m103.2 113.84c6.164 2.738-0.347 35.821 5.817 38.56" fill="none" stroke="#000" stroke-linecap="round" stroke-linejoin="round" stroke-width="3"/>
<path d="m91.853 109.83c6.164 2.739 0.034 34.964 6.197 37.702" fill="none" stroke="#000" stroke-linecap="round" stroke-linejoin="round" stroke-width="3"/>
<path d="m80.248 106.38c6.163 2.738 0.879 33.059 7.044 35.796" fill="none" stroke="#000" stroke-linecap="round" stroke-linejoin="round" stroke-width="3"/>
<path d="m68.245 103.82c6.163 2.738 2.351 29.746 8.516 32.483" fill="none" stroke="#000" stroke-linecap="round" stroke-linejoin="round" stroke-width="3"/>
<path d="m71.642 104.36-15.996 6.155 6.155 15.996s33.857 26.255 90.019 39.99l12.447-7.731-2.606-14.419c-47.841-32.466-90.019-39.991-90.019-39.991z" fill="none" stroke="#000" stroke-linecap="round" stroke-linejoin="round" stroke-width="3"/>
<path d="m160.18 105.71s9.364-2.94 18.89-3.24c0.111 2.981-0.293 6.377-1.347 10.074-4.181 14.652-7.68 22.311-23.344 41.84-15.665 19.53-26.928 34.394-26.871 47.375s11.181 28.577 24.416 26.971c13.235-1.607 14.324-17.822 14.324-17.822s-9.378 2.948-18.873 3.265c-0.114-2.987 0.272-6.392 1.33-10.098 4.179-14.652 7.678-22.31 23.344-41.84 15.665-19.529 26.927-34.394 26.871-47.375-0.058-12.982-11.183-28.578-24.417-26.97-13.235 1.603-14.323 17.82-14.323 17.82z" fill="#fff" stroke="#000" stroke-linecap="round" stroke-linejoin="round" stroke-width="3"/>
<path d="m179.07 102.47c9.466-0.298 19.093 2.006 19.851 12.389" fill="#fff" stroke="#000" stroke-linecap="round" stroke-linejoin="round" stroke-width="3"/>
<path d="m159.69 225.32c-5.499 4.517-11.915-0.81-12.312-11.146" fill="#fff" stroke="#000" stroke-linecap="round" stroke-linejoin="round" stroke-width="3"/>
<ellipse transform="matrix(.406 -.9139 .9139 .406 -67.943 116.5)" cx="55.646" cy="110.52" rx="18.717" ry="15.911" fill="#fff" stroke="#000" stroke-linecap="round" stroke-linejoin="round" stroke-width="3"/>
</g>
</g>
<g>
<path d="m1.5 1.5v458.87c0 166.31 134.31 301.13 300 301.13 165.69 0 300-134.82 300-301.13v-458.87h-600z" fill="url(#a)"/>
<path d="m1.5 1.5v458.87c0 166.31 134.31 301.13 300 301.13 165.69 0 300-134.82 300-301.13v-458.87h-600z" fill="none" stroke="#000" stroke-width="3"/>
</g>
</svg>
