<?xml version="1.0" encoding="UTF-8" standalone="no"?>
<svg
   xmlns:dc="http://purl.org/dc/elements/1.1/"
   xmlns:cc="http://creativecommons.org/ns#"
   xmlns:rdf="http://www.w3.org/1999/02/22-rdf-syntax-ns#"
   xmlns:svg="http://www.w3.org/2000/svg"
   xmlns="http://www.w3.org/2000/svg"
   xmlns:xlink="http://www.w3.org/1999/xlink"
   xmlns:sodipodi="http://sodipodi.sourceforge.net/DTD/sodipodi-0.dtd"
   xmlns:inkscape="http://www.inkscape.org/namespaces/inkscape"
   height="763"
   width="603"
   version="1.0"
   id="svg20"
   sodipodi:version="0.32"
   inkscape:version="0.46"
   sodipodi:docname="Cadempino-coat_of_arms.svg"
   sodipodi:docbase="C:\Documents and Settings\Steve\Bureau\Blason Villages Suisse pour Wikipédia (par Delta-9)"
   inkscape:output_extension="org.inkscape.output.svg.inkscape">
  <metadata
     id="metadata31">
    <rdf:RDF>
      <cc:Work
         rdf:about="">
        <dc:format>image/svg+xml</dc:format>
        <dc:type
           rdf:resource="http://purl.org/dc/dcmitype/StillImage" />
        <dc:date>07-AUG-2006</dc:date>
        <dc:creator>
          <cc:Agent>
            <dc:title>Jérôme BLUM (wagner51)</dc:title>
          </cc:Agent>
        </dc:creator>
        <cc:license
           rdf:resource="http://creativecommons.org/licenses/GPL/2.0/" />
        <dc:coverage />
        <dc:description>Gabarit pour le Projet:Blasons de WIkipédia</dc:description>
        <dc:subject>
          <rdf:Bag>
            <rdf:li>blason suisse modèle gabarit projet blasons</rdf:li>
          </rdf:Bag>
        </dc:subject>
        <dc:language>fr</dc:language>
        <dc:title>Gabrit d'un blason suisse</dc:title>
      </cc:Work>
      <cc:License
         rdf:about="http://creativecommons.org/licenses/GPL/2.0/">
        <cc:permits
           rdf:resource="http://web.resource.org/cc/Reproduction" />
        <cc:permits
           rdf:resource="http://web.resource.org/cc/Distribution" />
        <cc:requires
           rdf:resource="http://web.resource.org/cc/Notice" />
        <cc:permits
           rdf:resource="http://web.resource.org/cc/DerivativeWorks" />
        <cc:requires
           rdf:resource="http://web.resource.org/cc/ShareAlike" />
        <cc:requires
           rdf:resource="http://web.resource.org/cc/SourceCode" />
      </cc:License>
    </rdf:RDF>
  </metadata>
  <defs
     id="defs29"><inkscape:perspective
   sodipodi:type="inkscape:persp3d"
   inkscape:vp_x="0 : 381.5 : 1"
   inkscape:vp_y="0 : 1000 : 0"
   inkscape:vp_z="603 : 381.5 : 1"
   inkscape:persp3d-origin="301.5 : 254.33333 : 1"
   id="perspective28" />
<linearGradient
   id="linearGradient2893">
  <stop
     style="stop-color:#ffffff;stop-opacity:0.3137255;"
     offset="0"
     id="stop2895" />
  <stop
     id="stop2897"
     offset="0.19"
     style="stop-color:#ffffff;stop-opacity:0.25098041;" />
  <stop
     style="stop-color:#6b6b6b;stop-opacity:0.1254902;"
     offset="0.60000002"
     id="stop2901" />
  <stop
     style="stop-color:#000000;stop-opacity:0.1254902;"
     offset="1"
     id="stop2899" />
</linearGradient>
<linearGradient
   id="linearGradient2955">
  <stop
     style="stop-color:white;stop-opacity:0;"
     offset="0"
     id="stop2965" />
  <stop
     style="stop-color:black;stop-opacity:0.64583331;"
     offset="1"
     id="stop2959" />
</linearGradient>
<radialGradient
   inkscape:collect="always"
   xlink:href="#linearGradient2893"
   id="radialGradient3236"
   gradientUnits="userSpaceOnUse"
   gradientTransform="matrix(1.215027,1.531577e-24,1.464684e-23,1.266667,-839.1924,-490.4894)"
   cx="858.04236"
   cy="579.93323"
   fx="858.04236"
   fy="579.93323"
   r="300" />
<inkscape:perspective
   id="perspective2803"
   inkscape:persp3d-origin="306 : 264 : 1"
   inkscape:vp_z="612 : 396 : 1"
   inkscape:vp_y="0 : 1000 : 0"
   inkscape:vp_x="0 : 396 : 1"
   sodipodi:type="inkscape:persp3d" />

	
	

	

		
		
	
		
		
	
			
			
			
			
		
			
			
			
			
			
		
			
			
			
			
				
		
			
			
		
				
				
				
				
				
				
				
				
				
				
				
			
				
				
				
			
				
				
				
			
				
				
				
			
				
				
				
				
			
				
				
				
				
				
				
				
				
				
				
				
				
				
				
				
				
				
				
				
				
				
				
				
				
				
			
				
					
				
			
				
					
				
			
				
				
				
			
					
					
					
					
					
					
					
					
				</defs>
  <sodipodi:namedview
     inkscape:window-height="968"
     inkscape:window-width="1280"
     inkscape:pageshadow="2"
     inkscape:pageopacity="0.0"
     guidetolerance="10.0"
     gridtolerance="10.0"
     objecttolerance="10.0"
     borderopacity="1.0"
     bordercolor="#666666"
     pagecolor="#ffffff"
     id="base"
     inkscape:zoom="0.45172598"
     inkscape:cx="71.15661"
     inkscape:cy="46.218654"
     inkscape:window-x="-4"
     inkscape:window-y="-4"
     inkscape:current-layer="layer2"
     showgrid="false"
     showguides="true"
     inkscape:guide-bbox="true">
    <sodipodi:guide
       orientation="horizontal"
       position="761.5"
       id="guide1885" />
    <sodipodi:guide
       orientation="vertical"
       position="1.5"
       id="guide1887" />
    <sodipodi:guide
       orientation="horizontal"
       position="1.5"
       id="guide1889" />
    <sodipodi:guide
       orientation="vertical"
       position="601.5"
       id="guide1891" />
    <sodipodi:guide
       orientation="vertical"
       position="301.50081"
       id="guide1893" />
  </sodipodi:namedview>
  <desc
     id="desc22">Coat of Arms of Canton of Freiburg (Fribourg)</desc>
  <g
     inkscape:groupmode="layer"
     id="layer1"
     inkscape:label="Fond écu"
     style="opacity:1"
     sodipodi:insensitive="true">
    <path
       d="M 1.500002,1.5 L 1.500002,460.368 C 1.500002,626.679 135.814,761.5 301.5,761.5 C 467.186,761.5 601.5,626.679 601.5,460.368 L 601.5,1.5 L 1.500002,1.5 z"
       id="path2810"
       style="opacity:1;fill:#2b5df2" />
  </g>
  <g
     inkscape:groupmode="layer"
     id="layer2"
     inkscape:label="Meubles"
     style="opacity:1"
     sodipodi:insensitive="true">
    <g
       id="g3344"
       transform="translate(0,-2)">
      <rect
         id="rect2634"
         height="97.030998"
         width="142.759"
         y="511.03903"
         x="158.258"
         style="fill:#ffffff;stroke:#000000;stroke-width:3;stroke-linecap:round;stroke-linejoin:round" />
      <polygon
         transform="translate(2e-6,0)"
         id="polygon2636"
         points="291.604,478.732 158.258,478.732 158.258,514.989 308.338,514.989 291.604,478.732 "
         style="fill:#e20909;stroke:#000000;stroke-width:3;stroke-linecap:round;stroke-linejoin:round" />
      <rect
         id="rect2640"
         height="174.657"
         width="61.181999"
         y="433.41299"
         x="100.736"
         style="fill:#ffffff;stroke:#000000;stroke-width:3;stroke-linecap:round;stroke-linejoin:round" />
      <polygon
         transform="translate(2e-6,0)"
         id="polygon2642"
         points="131.327,388.441 97.946,433.413 164.708,433.413 131.327,388.441 "
         style="fill:#e20909;stroke:#000000;stroke-width:3;stroke-linecap:round;stroke-linejoin:round" />
      <line
         id="line2646"
         y2="452.819"
         x2="161.918"
         y1="452.819"
         x1="100.736"
         style="fill:none;stroke:#000000;stroke-width:3" />
      <line
         id="line2648"
         y2="472.22601"
         x2="161.918"
         y1="472.22601"
         x1="100.736"
         style="fill:none;stroke:#000000;stroke-width:3" />
      <line
         id="line2650"
         y2="491.63199"
         x2="161.918"
         y1="491.63199"
         x1="100.736"
         style="fill:none;stroke:#000000;stroke-width:3" />
      <line
         id="line2652"
         y2="511.03903"
         x2="161.918"
         y1="511.03903"
         x1="100.736"
         style="fill:none;stroke:#000000;stroke-width:3" />
      <line
         id="line2654"
         y2="530.44397"
         x2="301.017"
         y1="530.44397"
         x1="100.736"
         style="fill:none;stroke:#000000;stroke-width:3" />
      <line
         id="line2656"
         y2="549.85101"
         x2="301.017"
         y1="549.85101"
         x1="100.736"
         style="fill:none;stroke:#000000;stroke-width:3" />
      <line
         id="line2658"
         y2="569.25702"
         x2="301.017"
         y1="569.25702"
         x1="100.736"
         style="fill:none;stroke:#000000;stroke-width:3" />
      <line
         id="line2660"
         y2="588.664"
         x2="301.017"
         y1="588.664"
         x1="100.736"
         style="fill:none;stroke:#000000;stroke-width:3" />
      <line
         id="line2662"
         y2="452.819"
         x2="131.327"
         y1="433.41299"
         x1="131.327"
         style="fill:none;stroke:#000000;stroke-width:3" />
      <line
         id="line2664"
         y2="491.63199"
         x2="131.327"
         y1="472.22601"
         x1="131.327"
         style="fill:none;stroke:#000000;stroke-width:3" />
      <line
         id="line2666"
         y2="530.44397"
         x2="131.327"
         y1="511.03799"
         x1="131.327"
         style="fill:none;stroke:#000000;stroke-width:3" />
      <line
         id="line2668"
         y2="569.25702"
         x2="131.327"
         y1="549.85101"
         x1="131.327"
         style="fill:none;stroke:#000000;stroke-width:3" />
      <line
         id="line2670"
         y2="608.07001"
         x2="131.327"
         y1="588.664"
         x1="131.327"
         style="fill:none;stroke:#000000;stroke-width:3" />
      <line
         id="line2672"
         y2="530.44397"
         x2="208.284"
         y1="514.98901"
         x1="208.284"
         style="fill:none;stroke:#000000;stroke-width:3" />
      <line
         id="line2674"
         y2="530.44397"
         x2="254.64999"
         y1="514.98901"
         x1="254.64999"
         style="fill:none;stroke:#000000;stroke-width:3" />
      <line
         id="line2676"
         y2="569.25702"
         x2="208.284"
         y1="549.85199"
         x1="208.284"
         style="fill:none;stroke:#000000;stroke-width:3" />
      <line
         id="line2678"
         y2="569.25702"
         x2="254.64999"
         y1="549.85199"
         x1="254.64999"
         style="fill:none;stroke:#000000;stroke-width:3" />
      <line
         id="line2680"
         y2="608.07001"
         x2="208.284"
         y1="588.66498"
         x1="208.284"
         style="fill:none;stroke:#000000;stroke-width:3" />
      <line
         id="line2682"
         y2="608.07001"
         x2="254.64999"
         y1="588.66498"
         x1="254.64999"
         style="fill:none;stroke:#000000;stroke-width:3" />
      <line
         id="line2684"
         y2="549.85101"
         x2="185.10201"
         y1="530.44397"
         x1="185.10201"
         style="fill:none;stroke:#000000;stroke-width:3" />
      <line
         id="line2686"
         y2="549.85101"
         x2="231.467"
         y1="530.44397"
         x1="231.467"
         style="fill:none;stroke:#000000;stroke-width:3" />
      <line
         id="line2688"
         y2="549.85101"
         x2="277.83301"
         y1="530.44397"
         x1="277.83301"
         style="fill:none;stroke:#000000;stroke-width:3" />
      <line
         id="line2690"
         y2="588.664"
         x2="185.10201"
         y1="569.25702"
         x1="185.10201"
         style="fill:none;stroke:#000000;stroke-width:3" />
      <line
         id="line2692"
         y2="588.664"
         x2="231.467"
         y1="569.25702"
         x1="231.467"
         style="fill:none;stroke:#000000;stroke-width:3" />
      <line
         id="line2694"
         y2="588.664"
         x2="277.83301"
         y1="569.25702"
         x1="277.83301"
         style="fill:none;stroke:#000000;stroke-width:3" />
      <path
         id="path2698"
         d="M 131.327,558.144 C 125.189,558.144 120.214,563.121 120.214,569.257 L 120.214,608.07 L 142.44,608.07 L 142.44,569.257 C 142.44,563.12 137.465,558.144 131.327,558.144 z" />
      <path
         id="path2700"
         d="M 208.284,530.444 C 203.615,530.444 199.83,534.229 199.83,538.897 L 199.83,569.256 L 216.739,569.256 L 216.739,538.897 C 216.739,534.229 212.954,530.444 208.284,530.444 z" />
      <path
         id="path2702"
         d="M 254.65,530.444 C 249.981,530.444 246.195,534.229 246.195,538.897 L 246.195,569.256 L 263.104,569.256 L 263.104,538.897 C 263.104,534.229 259.319,530.444 254.65,530.444 z" />
      <rect
         id="rect2704"
         height="29.514999"
         width="11.679"
         y="452.819"
         x="125.487" />
      <line
         id="line2708"
         y2="388.44101"
         x2="131.327"
         y1="361.94601"
         x1="131.327"
         style="fill:none;stroke:#000000;stroke-width:3" />
      <line
         id="line2710"
         y2="372.056"
         x2="131.327"
         y1="372.056"
         x1="123.56999"
         style="fill:none;stroke:#000000;stroke-width:3" />
      <line
         id="line2712"
         y2="372.056"
         x2="131.327"
         y1="372.056"
         x1="139.08299"
         style="fill:none;stroke:#000000;stroke-width:3" />
    </g>
    <g
       id="g3336"
       transform="translate(0,-2)">
      <path
         style="fill:#5ab532;stroke:#000000;stroke-width:3;stroke-linecap:round;stroke-linejoin:round"
         d="M 442.654,587.154 C 435.84,573.907 438.721,501.742 438.721,501.742 L 428.685,500.174 L 418.65,501.742 C 418.65,501.742 421.534,573.907 414.72,587.154 C 407.906,600.4 406.201,605.804 406.201,605.804 L 451.171,605.804 C 451.172,605.805 449.469,600.4 442.654,587.154 z"
         id="path2716" />
      <path
         id="path2720"
         d="M 480.076,529.419 C 449.222,533.603 442.151,508.976 442.151,508.976 C 438.491,528.325 430.385,535.384 430.385,535.384 C 418.619,523.617 417.573,509.498 417.573,509.498 C 398.747,537.214 373.758,527.889 373.758,527.889 C 362,532.14 351.685,529.893 351.685,529.893 C 387.415,504.703 394.303,476.733 394.303,476.733 L 394.303,470.541 L 401.101,461.391 L 419.926,451.978 L 444.242,451.194 L 457.054,464.006 L 466.205,471.85 L 466.205,478.286 C 466.205,478.286 476.925,509.24 505.685,530.419 C 505.687,530.416 493.161,536.031 480.076,529.419 z"
         style="fill:#5ab532;stroke:#000000;stroke-width:3;stroke-linecap:round;stroke-linejoin:round" />
      <path
         id="path2722"
         d="M 480.076,529.419 C 475.526,527.121 470.91,523.345 466.728,517.343"
         style="fill:none;stroke:#000000;stroke-width:3;stroke-linecap:round;stroke-linejoin:round" />
      <path
         id="path2724"
         d="M 373.759,527.889 C 380.814,525.338 388.388,520.448 394.566,511.329"
         style="fill:none;stroke:#000000;stroke-width:3;stroke-linecap:round;stroke-linejoin:round" />
      <path
         style="fill:#5ab532;stroke:#000000;stroke-width:3;stroke-linecap:round;stroke-linejoin:round"
         d="M 427.771,402.821 L 409.208,422.17 L 409.208,426.491 C 409.208,426.491 412.346,450.93 373.649,479.169 C 373.649,479.169 401.886,483.353 409.208,461.39 C 409.208,461.39 408.946,470.018 406.07,477.339 C 406.07,477.339 418.882,474.201 422.934,460.475 C 422.934,460.475 423.327,473.156 431.432,481.261 C 431.432,481.261 440.322,474.201 440.322,461.912 C 440.322,461.912 452.349,483.875 483.724,477.6 C 483.724,477.6 457.895,455.466 454.731,428.36 L 453.657,421.909 L 437.446,405.698 L 427.771,402.821 z"
         id="path2726" />
      <path
         style="fill:#5ab532;stroke:#000000;stroke-width:3;stroke-linecap:round;stroke-linejoin:round"
         d="M 432.216,361.51 C 432.216,361.51 418.359,407.005 388.028,432.367 C 388.028,432.367 408.945,434.72 423.588,414.064 C 423.588,414.064 423.195,426.484 429.602,432.889 C 429.602,432.889 436.138,429.491 439.276,414.848 C 439.276,414.848 445.028,429.491 469.344,430.797 C 469.344,430.798 440.321,404.913 432.216,361.51 z"
         id="path2728" />
    </g>
    <g
       id="g3307"
       transform="translate(0.1956681,2)">
      <g
         id="g3382">
        <path
           style="fill:#ffffff;stroke:#000000;stroke-width:3;stroke-linecap:round;stroke-linejoin:round"
           d="M 428.671,98.642005 C 510.194,73.361 562.855,70.72 562.855,70.72 C 562.855,70.72 555.087,75.54 549.19,82.98 C 543.294,90.42 492.476,144.843 429.586,183.401 C 366.693,221.959 286.686,273.441 185.746,237.218 L 189.624,227.201 L 273.479,172.17 L 320.274,144.468 L 365.944,124.253 L 399.122,110.214 L 414.846,104.037 C 414.846,104.037 426.33,99.364005 428.671,98.642005 z"
           id="path2736" />
        <path
           style="fill:none;stroke:#000000;stroke-width:3;stroke-linecap:round;stroke-linejoin:round"
           d="M 204.403,223.926 C 204.403,223.926 226.03,218.262 264.542,231.271 C 290.986,240.204 310.19,241.859 310.19,241.859"
           id="path2738" />
        <path
           style="fill:none;stroke:#000000;stroke-width:3;stroke-linecap:round;stroke-linejoin:round"
           d="M 268.957,181.984 C 287.003,181.984 312.225,190.13 330.544,199.841 C 350.885,210.623 375.872,215.132 386.904,208.846"
           id="path2740" />
        <path
           style="fill:none;stroke:#000000;stroke-width:3;stroke-linecap:round;stroke-linejoin:round"
           d="M 284.725,172.57 C 284.725,172.57 315.608,168.099 337.87,179.657 C 364.729,193.602 393.535,205.123 406.483,197.494"
           id="path2742" />
        <path
           style="fill:none;stroke:#000000;stroke-width:3;stroke-linecap:round;stroke-linejoin:round"
           d="M 304.309,161.282 C 304.309,161.282 328.79,154.856 360.516,168.614 C 391.227,181.93 421.645,188.394 429.586,183.401"
           id="path2744" />
        <path
           style="fill:none;stroke:#000000;stroke-width:3;stroke-linecap:round;stroke-linejoin:round"
           d="M 326.669,148.91 C 326.669,148.91 355.183,143.063 381.574,154.013 C 407.965,164.963 445.612,173.314 453.617,167.563"
           id="path2746" />
        <path
           style="fill:none;stroke:#000000;stroke-width:3;stroke-linecap:round;stroke-linejoin:round"
           d="M 354.321,134.323 C 354.321,134.323 372.028,129.305 405.159,142.221 C 438.289,155.136 465.4,159.152 472.693,153.482"
           id="path2748" />
        <path
           style="fill:none;stroke:#000000;stroke-width:3;stroke-linecap:round;stroke-linejoin:round"
           d="M 372.366,125.206 C 372.366,125.206 387.19,115.549 420.32,128.183 C 453.451,140.818 481.066,146.988 487.514,141.652"
           id="path2750" />
        <path
           style="fill:none;stroke:#000000;stroke-width:3;stroke-linecap:round;stroke-linejoin:round"
           d="M 396.532,113.466 C 396.532,113.466 412.178,107.125 441.658,119.479 C 471.138,131.832 499.377,131.722 505.013,126.68"
           id="path2752" />
        <path
           style="fill:none;stroke:#000000;stroke-width:3;stroke-linecap:round;stroke-linejoin:round"
           d="M 415.77,104.488 C 415.77,104.488 431.528,98.756005 463.465,108.717 C 492.571,117.795 518.23,114.777 525.994,107.221"
           id="path2754" />
        <path
           style="fill:none;stroke:#000000;stroke-width:3;stroke-linecap:round;stroke-linejoin:round"
           d="M 450.708,92.144 C 450.708,92.144 470.671,89.624 491.073,94.491005 C 511.475,99.358005 537.906,95.729005 542.983,89.97"
           id="path2756" />
        <path
           id="path2758"
           d="M 428.671,98.642005 C 336.577,127.201 207.65,184.652 76.194002,299.824 C 76.194002,299.824 77.992002,314.237 93.041,314.237 C 95.193,314.237 196.736,202.493 428.671,98.642005 z"
           style="fill:#ffffff;stroke:#000000;stroke-width:3;stroke-linecap:round;stroke-linejoin:round" />
        <path
           id="path2762"
           d="M 174.239,150.099 L 165.293,159.227 L 164.517,171.985 C 164.517,171.985 174.534,181.766 277.851,227.665 C 381.169,273.566 460.312,303.809 525.538,319.269 C 470.342,281.23 394.85,242.776 291.531,196.876 C 188.21,150.975 174.239,150.099 174.239,150.099 z"
           style="fill:#ffffff;stroke:#000000;stroke-width:3;stroke-linecap:round;stroke-linejoin:round" />
        <path
           style="fill:#ffffff"
           d="M 71.642002,104.36 L 55.646002,110.515 L 61.801002,126.511 C 61.801002,126.511 95.658,152.766 151.82,166.501 L 164.267,158.77 L 161.661,144.351 C 113.82,111.885 71.642002,104.36 71.642002,104.36 z"
           id="path2766" />
        <path
           id="path2770"
           d="M 146.478,134.728 C 152.642,137.466 148.645,164.888 154.809,167.626"
           style="fill:none;stroke:#000000;stroke-width:3;stroke-linecap:round;stroke-linejoin:round" />
        <path
           id="path2772"
           d="M 135.969,128.81 C 142.133,131.549 137.01,161.507 143.173,164.246"
           style="fill:none;stroke:#000000;stroke-width:3;stroke-linecap:round;stroke-linejoin:round" />
        <path
           id="path2774"
           d="M 125.256,123.354 C 131.42,126.092 125.42,158.024 131.584,160.762"
           style="fill:none;stroke:#000000;stroke-width:3;stroke-linecap:round;stroke-linejoin:round" />
        <path
           id="path2776"
           d="M 114.336,118.362 C 120.5,121.1 114.036,154.075 120.201,156.813"
           style="fill:none;stroke:#000000;stroke-width:3;stroke-linecap:round;stroke-linejoin:round" />
        <path
           id="path2778"
           d="M 103.205,113.845 C 109.369,116.583 102.858,149.666 109.022,152.405"
           style="fill:none;stroke:#000000;stroke-width:3;stroke-linecap:round;stroke-linejoin:round" />
        <path
           id="path2780"
           d="M 91.853,109.826 C 98.017,112.565 91.887,144.79 98.05,147.528"
           style="fill:none;stroke:#000000;stroke-width:3;stroke-linecap:round;stroke-linejoin:round" />
        <path
           id="path2782"
           d="M 80.248002,106.377 C 86.411,109.115 81.127002,139.436 87.292,142.173"
           style="fill:none;stroke:#000000;stroke-width:3;stroke-linecap:round;stroke-linejoin:round" />
        <path
           id="path2784"
           d="M 68.245002,103.824 C 74.408002,106.562 70.596002,133.57 76.761002,136.307"
           style="fill:none;stroke:#000000;stroke-width:3;stroke-linecap:round;stroke-linejoin:round" />
        <path
           style="fill:none;stroke:#000000;stroke-width:3;stroke-linecap:round;stroke-linejoin:round"
           d="M 71.642002,104.36 L 55.646002,110.515 L 61.801002,126.511 C 61.801002,126.511 95.658,152.766 151.82,166.501 L 164.267,158.77 L 161.661,144.351 C 113.82,111.885 71.642002,104.36 71.642002,104.36 z"
           id="path2786" />
        <path
           style="fill:#ffffff;stroke:#000000;stroke-width:3;stroke-linecap:round;stroke-linejoin:round"
           d="M 160.184,105.707 C 160.184,105.707 169.548,102.767 179.074,102.467 C 179.185,105.448 178.781,108.844 177.727,112.541 C 173.546,127.193 170.047,134.852 154.383,154.381 C 138.718,173.911 127.455,188.775 127.512,201.756 C 127.569,214.737 138.693,230.333 151.928,228.727 C 165.163,227.12 166.252,210.905 166.252,210.905 C 166.252,210.905 156.874,213.853 147.379,214.17 C 147.265,211.183 147.651,207.778 148.709,204.072 C 152.888,189.42 156.387,181.762 172.053,162.232 C 187.718,142.703 198.98,127.838 198.924,114.857 C 198.866,101.875 187.741,86.279 174.507,87.887 C 161.272,89.49 160.184,105.707 160.184,105.707 z"
           id="path2790" />
        <path
           style="fill:#ffffff;stroke:#000000;stroke-width:3;stroke-linecap:round;stroke-linejoin:round"
           d="M 179.074,102.466 C 188.54,102.168 198.167,104.472 198.925,114.855"
           id="path2792" />
        <path
           style="fill:#ffffff;stroke:#000000;stroke-width:3;stroke-linecap:round;stroke-linejoin:round"
           d="M 159.691,225.315 C 154.192,229.832 147.776,224.505 147.379,214.169"
           id="path2794" />
        <ellipse
           id="ellipse2796"
           ry="15.911"
           rx="18.716999"
           cy="110.516"
           cx="55.646"
           transform="matrix(0.406,-0.9139,0.9139,0.406,-67.943498,116.5009)"
           sodipodi:cx="55.646"
           sodipodi:cy="110.516"
           sodipodi:rx="18.716999"
           sodipodi:ry="15.911"
           style="fill:#ffffff;stroke:#000000;stroke-width:3;stroke-linecap:round;stroke-linejoin:round" />
      </g>
    </g>
  </g>
  <g
     inkscape:groupmode="layer"
     id="layer3"
     inkscape:label="Reflet final"
     style="display:inline"
     sodipodi:insensitive="true">
    <path
       style="fill:url(#radialGradient3236);fill-opacity:1"
       d="M 1.5,1.5 L 1.5,460.3679 C 1.5,626.67854 135.81454,761.5 301.49993,761.5 C 467.1854,761.5 601.5,626.67854 601.5,460.3679 L 601.5,1.5 L 1.5,1.5 z "
       id="path2346" />
  </g>
  <g
     inkscape:groupmode="layer"
     id="layer4"
     inkscape:label="Contour final"
     style="display:inline"
     sodipodi:insensitive="true">
    <path
       style="fill:none;fill-opacity:1;stroke:#000000;stroke-width:3;stroke-miterlimit:4;stroke-dasharray:none;stroke-opacity:1"
       d="M 1.5,1.5 L 1.5,460.36794 C 1.5,626.67854 135.81454,761.5 301.49993,761.5 C 467.1854,761.5 601.5,626.67854 601.5,460.36794 L 601.5,1.5 L 1.5,1.5 z "
       id="path3239" />
  </g>
</svg>
