<?xml version="1.0" encoding="UTF-8"?>
<svg version="1.0" viewBox="0 0 603 763" xmlns="http://www.w3.org/2000/svg" xmlns:cc="http://creativecommons.org/ns#" xmlns:dc="http://purl.org/dc/elements/1.1/" xmlns:rdf="http://www.w3.org/1999/02/22-rdf-syntax-ns#" xmlns:xlink="http://www.w3.org/1999/xlink">
<metadata>
<rdf:RDF>
<cc:Work rdf:about="">
<dc:format>image/svg+xml</dc:format>
<dc:type rdf:resource="http://purl.org/dc/dcmitype/StillImage"/>
<dc:date>07-AUG-2006</dc:date>
<dc:creator>
<cc:Agent>
<dc:title>Jérôme BLUM (wagner51)</dc:title>
</cc:Agent>
</dc:creator>
<cc:license rdf:resource="http://creativecommons.org/licenses/GPL/2.0/"/>
<dc:coverage/>
<dc:description>Gabarit pour le Projet:Blasons de WIkipédia</dc:description>
<dc:subject>
<rdf:Bag>
<rdf:li>blason suisse modèle gabarit projet blasons</rdf:li>
</rdf:Bag>
</dc:subject>
<dc:language>fr</dc:language>
<dc:title>Gabrit d'un blason suisse</dc:title>
</cc:Work>
<cc:License rdf:about="http://creativecommons.org/licenses/GPL/2.0/">
<cc:permits rdf:resource="http://web.resource.org/cc/Reproduction"/>
<cc:permits rdf:resource="http://web.resource.org/cc/Distribution"/>
<cc:requires rdf:resource="http://web.resource.org/cc/Notice"/>
<cc:permits rdf:resource="http://web.resource.org/cc/DerivativeWorks"/>
<cc:requires rdf:resource="http://web.resource.org/cc/ShareAlike"/>
<cc:requires rdf:resource="http://web.resource.org/cc/SourceCode"/>
</cc:License>
</rdf:RDF>
</metadata>
<defs>
<radialGradient id="a" cx="858.04" cy="579.93" r="300" gradientTransform="matrix(1.215 1.5316e-24 1.4647e-23 1.2667 -839.19 -490.49)" gradientUnits="userSpaceOnUse">
<stop stop-color="#fff" stop-opacity=".31373" offset="0"/>
<stop stop-color="#fff" stop-opacity=".25098" offset=".19"/>
<stop stop-color="#6b6b6b" stop-opacity=".12549" offset=".6"/>
<stop stop-opacity=".12549" offset="1"/>
</radialGradient>
</defs>
<desc>Coat of Arms of Canton of Freiburg (Fribourg)</desc>
<g>
<path d="m1.5 1.5v458.87c0 166.31 134.31 301.13 300 301.13 165.69 0 300-134.82 300-301.13v-458.87h-600z" fill="#2b5df2"/>
<path d="m1.5 1.5v458.87c0 166.31 134.31 301.13 300 301.13v-760h-300z" fill="#fff"/>
<path d="m534.01 148.84c0.329-4.24 0.489-8.726 0.489-13.492 0-7.568-1.025-14.55-2.887-20.948 4.251-1.636 7.272-5.748 7.272-10.575 0-6.262-5.076-11.338-11.339-11.338-2.119 0-4.096 0.592-5.792 1.604-4.938-6.896-11.041-12.678-17.823-17.346 0.95-1.595 1.506-3.453 1.506-5.444 0-5.891-4.775-10.667-10.667-10.667-4.391 0-8.159 2.655-9.795 6.445-7.516-2.696-15.277-4.299-22.813-4.804 0-0.035 5e-3 -0.069 5e-3 -0.104 0-5.891-4.775-10.667-10.667-10.667s-10.667 4.776-10.667 10.667c0 0.543 0.05399 1.073 0.13198 1.595-10.148 2.122-19.633 6.241-27.459 12.096-1.953-2.164-4.77-3.532-7.914-3.532-5.892 0-10.667 4.776-10.667 10.667 0 3.529 1.721 6.648 4.361 8.589-4.089 7.03-6.453 15.166-6.453 24.263 0 3.283 0.19398 6.408 0.55998 9.377-4.882 0.979-8.56 5.287-8.56 10.457 0 5.891 4.775 10.667 10.667 10.667 1.435 0 2.801-0.288 4.05-0.801 4.804 9.087 11.709 15.385 19.126 18.972-0.54199 1.279-0.84299 2.685-0.84299 4.162 0 5.891 4.775 10.667 10.667 10.667s10.667-4.776 10.667-10.667c0-0.317-0.02098-0.63-0.04798-0.941 12.922-1.748 17.066-9.392 22.381-9.392 5.892 0 10.667-4.776 10.667-10.667 0-2.222-0.68099-4.285-1.843-5.993v0c-0.00101 0-0.00101-1e-3 -2e-3 -1e-3 -0.83101-1.22-1.913-2.251-3.165-3.037-3.555-4.309-2.323-7.699-2.323-10.968 0-5.891-4.775-10.667-10.667-10.667-5.892 0-10.667 4.776-10.667 10.667 0 2.258 0.70601 4.348 1.902 6.072h-9.9e-4l0.00599 9e-3c1.095 2.01 3.164 7.501-4.49 7.501-12 0-20.083-7.25-20.083-19.25s9.25-30.583 37.583-30.583c23.333 0 49.25 21.417 49.25 53.917s-33.917 57.75-71.667 71.75l2.25 48.501v462.87c9.117-4.694 17.954-9.856 26.5-15.431v-447.44l1.5-33.001c8.942-4.874 16.852-9.482 23.84-14.058 2.568 3.606 6.774 5.966 11.541 5.966 7.829 0 14.173-6.346 14.173-14.173 0-3.613-1.363-6.9-3.589-9.404 7.813-7.998 13.337-16.704 16.935-27.122 1.034 0.271 2.113 0.429 3.231 0.429 7.046 0 12.756-5.711 12.756-12.756 0-6.491-4.853-11.838-11.126-12.64z" fill="#fcef3c" stroke="#000" stroke-linecap="round" stroke-linejoin="round" stroke-width="3"/>
<path d="m474.75 269.35c0-2.348-1.903-4.252-4.252-4.252h-37.996c-2.349 0-4.252 1.904-4.252 4.252v9.996c0 2.348 1.903 4.252 4.252 4.252h37.996c2.349 0 4.252-1.904 4.252-4.252v-9.996z" fill="#fcef3c" stroke="#000" stroke-linecap="round" stroke-linejoin="round" stroke-width="3"/>
<path d="m527.82 313.12-30.531-30.529s-25.076 11.267-45.793 11.267c-20.715 0-45.793-11.267-45.793-11.267l-30.531 30.529s18.172 41.07-1.816 85.41c0 0 47.066 41.979 50.882 113.4 0 0 15.538-3.27 27.259-3.27s27.259 3.27 27.259 3.27c3.815-71.416 50.882-113.4 50.882-113.4-19.99-44.34-1.818-85.41-1.818-85.41z" fill="#fff" stroke="#000" stroke-linecap="round" stroke-linejoin="round" stroke-width="3"/>
<path d="m521.51 370.95h-56.763v-78.359c-4.429 0.774-8.934 1.268-13.25 1.268s-8.821-0.494-13.25-1.268v78.359h-56.763c-1.286 8.465-3.677 17.406-7.654 26.5h64.417v112.18c4.31-0.544 9.026-0.969 13.25-0.969s8.94 0.425 13.25 0.969v-112.18h64.417c-3.978-9.093-6.368-18.035-7.654-26.5z" fill="#e20909" stroke="#000" stroke-linecap="round" stroke-linejoin="round" stroke-width="3"/>
<line x1="301.5" x2="301.5" y1="1.5" y2="761.5" fill="none" stroke="#000" stroke-width="3"/>
<path d="m163.27 385.43c-0.351-29.081-0.767-59.792-1.107-87.119 1.293 0.068 2.571 0.149 3.827 0.247 33 59.333 97.181 83.943 97.181 83.943-9.117-81.173-83.744-96.302-101.19-98.739-0.284-23.883-0.481-44.114-0.481-56.761 0-11.466-0.065-23.06-0.16201-33.975 3.212 0.281 6.296 0.647 9.251 1.098 26.86 50.474 90.91 73.877 90.91 73.877-21.541-76.138-79.314-86.775-100.3-88.259-0.295-25.573-0.70301-44.741-0.70301-44.741 21.333 25.5 55.333 31.5 55.333 31.5-7-24-25-41-25-41 23.333 8 52.667 5.667 52.667 5.667-28-38.333-72.75-33.417-72.75-33.417-6.5-21.5-19.25-25.75-19.25-25.75s-16 1-22.5 22.5c0 0-41.5-17.5-69.5 27 0 0 27.5-5 49-2 0 0-18 9-29.5 33 0 0 38-1.5 63.5-17.5 0 0-0.426 20.045-0.722 46.486-21.581-0.128-73.144 0.247-103.28 70.348 0 0 68.667-16.333 98.667-60 1.794-0.135 3.308-0.192 4.508-0.217-0.10401 11.322-0.175 23.423-0.175 35.383 0 12.896-0.206 33.686-0.499 58.185-93.169 10.846-101.17 85.478-101.17 99.982 0 0 61.777-34.82 95.111-86.487 2.388-0.446 4.382-0.724 5.903-0.898-0.345 27.674-0.768 58.868-1.123 88.34-29.79 3.063-98.322 31.203-83.891 103.04 0 0 54.647-29.395 80.761-92.405 1.076-0.22 2.08-0.404 3.011-0.561-0.348 30.03-0.605 57.575-0.605 76.799 0 60-11.833 131.5-11.833 131.5s11.999 5.001 24.333 5.001 24.333-5.001 24.333-5.001-11.833-71.499-11.833-131.5c0-18.521-0.238-44.76-0.56799-73.508 0.44299 0.106 0.90699 0.221 1.397 0.347 37.25 66 95.67 92.911 95.67 92.911-2.684-80.085-80.82-103.32-97.232-107.32z" fill="#5ab532" stroke="#000" stroke-linecap="round" stroke-linejoin="round" stroke-width="3"/>
<path d="m157.16 57.33s1.588-5.83 9.088-5.83 19.5 9.5 19.5 24.75-8.25 23.333-16.833 23.333c-5.192 0-11.941-1.738-17.422-8.204 5.481 6.466 9.255 23.121 1.088 37.704 0 0 1.417-13.083-9.083-27.25s-14.667-22.833-14.667-29.666c0-8.833 6-16.833 19.833-16.833 2.301-1e-3 5.235 0.141 8.496 1.996z" fill="#fcef3c" stroke="#000" stroke-linecap="round" stroke-linejoin="round" stroke-width="3"/>
<path d="m120.83 103.17s-25-6-49.333 12" fill="none" stroke="#000" stroke-linecap="round" stroke-linejoin="round" stroke-width="3"/>
<path d="m182.17 109.17s25.667 4 46.333 16.667" fill="none" stroke="#000" stroke-linecap="round" stroke-linejoin="round" stroke-width="3"/>
<path d="m91.833 144.17s16-13.667 41.667-21.667" fill="none" stroke="#000" stroke-linecap="round" stroke-linejoin="round" stroke-width="3"/>
<path d="m164.83 125.5s22 10.667 37.333 30" fill="none" stroke="#000" stroke-linecap="round" stroke-linejoin="round" stroke-width="3"/>
<path d="m137.17 191.83c-16.335 1.23-55.318 7.096-80.885 54.356" fill="none" stroke="#000" stroke-linecap="round" stroke-linejoin="round" stroke-width="3"/>
<path d="m116.77 195.34c-12.273 3.527-28.374 27.428-31.574 38.211" fill="none" stroke="#000" stroke-linecap="round" stroke-linejoin="round" stroke-width="3"/>
<path d="m239.99 258.02s-1.104-53.505-69.398-63.9" fill="none" stroke="#000" stroke-linecap="round" stroke-linejoin="round" stroke-width="3"/>
<path d="m190.61 198.93c6.944 3.184 23.731 24.389 23.731 43.104" fill="none" stroke="#000" stroke-linecap="round" stroke-linejoin="round" stroke-width="3"/>
<path d="m134.94 298.68c-18.62 3.481-60.771 17.119-82.444 70.153" fill="none" stroke="#000" stroke-linecap="round" stroke-linejoin="round" stroke-width="3"/>
<path d="m113.16 305.29c-6.611 3.058-15.002 24.401-15.002 36.307" fill="none" stroke="#000" stroke-linecap="round" stroke-linejoin="round" stroke-width="3"/>
<path d="m90.715 318.11c-8.816 7.32-16.337 31.271-16.337 43.579" fill="none" stroke="#000" stroke-linecap="round" stroke-linejoin="round" stroke-width="3"/>
<path d="m249.68 376.47c0-9.038-6.14-71.836-83.694-77.917" fill="none" stroke="#000" stroke-linecap="round" stroke-linejoin="round" stroke-width="3"/>
<path d="m202.6 307.27c12.678 6.976 22.421 42.91 22.421 54.193" fill="none" stroke="#000" stroke-linecap="round" stroke-linejoin="round" stroke-width="3"/>
<path d="m182.42 300.87c9.234 2.351 16.059 25.393 16.059 39.135" fill="none" stroke="#000" stroke-linecap="round" stroke-linejoin="round" stroke-width="3"/>
<path d="m136.59 396.76c-22.078 4.504-72.542 22.838-65.533 82.381" fill="none" stroke="#000" stroke-linecap="round" stroke-linejoin="round" stroke-width="3"/>
<path d="m120.69 401.32c-10.791 4.703-12.258 29.563-9.097 38.245" fill="none" stroke="#000" stroke-linecap="round" stroke-linejoin="round" stroke-width="3"/>
<path d="m101.55 410.83c-10.145 7.838-12.876 37.596-6.339 47.383" fill="none" stroke="#000" stroke-linecap="round" stroke-linejoin="round" stroke-width="3"/>
<path d="m164.83 399.84c19.729 5.059 76.832 25.935 84.532 86.972" fill="none" stroke="#000" stroke-linecap="round" stroke-linejoin="round" stroke-width="3"/>
<path d="m181.77 405.49c11.562 5.332 17.282 29.271 16.59 39.806" fill="none" stroke="#000" stroke-linecap="round" stroke-linejoin="round" stroke-width="3"/>
<path d="m201.55 415.46c12.472 8.763 20.842 41.086 19.646 51.229" fill="none" stroke="#000" stroke-linecap="round" stroke-linejoin="round" stroke-width="3"/>
<path d="m151.5 91.379c-3.579-4.222-6.617-10.46-8.329-19.545" fill="none" stroke="#000" stroke-linecap="round" stroke-linejoin="round" stroke-width="3"/>
<path d="m157.16 57.33c3.829 2.178 8.107 6.72 12.338 16.17" fill="none" stroke="#000" stroke-linecap="round" stroke-linejoin="round" stroke-width="3"/>
</g>
<g>
<path d="m1.5 1.5v458.87c0 166.31 134.31 301.13 300 301.13 165.69 0 300-134.82 300-301.13v-458.87h-600z" fill="url(#a)"/>
<path d="m1.5 1.5v458.87c0 166.31 134.31 301.13 300 301.13 165.69 0 300-134.82 300-301.13v-458.87h-600z" fill="none" stroke="#000" stroke-width="3"/>
</g>
</svg>
