<?xml version="1.0" encoding="UTF-8"?>
<svg version="1.0" viewBox="0 0 603 763" xmlns="http://www.w3.org/2000/svg" xmlns:cc="http://creativecommons.org/ns#" xmlns:dc="http://purl.org/dc/elements/1.1/" xmlns:rdf="http://www.w3.org/1999/02/22-rdf-syntax-ns#" xmlns:xlink="http://www.w3.org/1999/xlink">
<metadata>
<rdf:RDF>
<cc:Work rdf:about="">
<dc:format>image/svg+xml</dc:format>
<dc:type rdf:resource="http://purl.org/dc/dcmitype/StillImage"/>
<dc:date>07-AUG-2006</dc:date>
<dc:creator>
<cc:Agent>
<dc:title>Jérôme BLUM (wagner51)</dc:title>
</cc:Agent>
</dc:creator>
<cc:license rdf:resource="http://creativecommons.org/licenses/GPL/2.0/"/>
<dc:coverage/>
<dc:description>Gabarit pour le Projet:Blasons de WIkipédia</dc:description>
<dc:subject>
<rdf:Bag>
<rdf:li>blason suisse modèle gabarit projet blasons</rdf:li>
</rdf:Bag>
</dc:subject>
<dc:language>fr</dc:language>
<dc:title>Gabrit d'un blason suisse</dc:title>
</cc:Work>
<cc:License rdf:about="http://creativecommons.org/licenses/GPL/2.0/">
<cc:permits rdf:resource="http://web.resource.org/cc/Reproduction"/>
<cc:permits rdf:resource="http://web.resource.org/cc/Distribution"/>
<cc:requires rdf:resource="http://web.resource.org/cc/Notice"/>
<cc:permits rdf:resource="http://web.resource.org/cc/DerivativeWorks"/>
<cc:requires rdf:resource="http://web.resource.org/cc/ShareAlike"/>
<cc:requires rdf:resource="http://web.resource.org/cc/SourceCode"/>
</cc:License>
</rdf:RDF>
</metadata>
<defs>
<radialGradient id="a" cx="858.04" cy="579.93" r="300" gradientTransform="matrix(1.215 1.5316e-24 1.4647e-23 1.2667 -839.19 -490.49)" gradientUnits="userSpaceOnUse">
<stop stop-color="#fff" stop-opacity=".31373" offset="0"/>
<stop stop-color="#fff" stop-opacity=".25098" offset=".19"/>
<stop stop-color="#6b6b6b" stop-opacity=".12549" offset=".6"/>
<stop stop-opacity=".12549" offset="1"/>
</radialGradient>
</defs>
<desc>Coat of Arms of Canton of Freiburg (Fribourg)</desc>
<g>
<path d="m1.5 1.5v458.87c0 166.31 134.31 301.13 300 301.13s300-134.82 300-301.13v-458.87h-600z" fill="#2b5df2"/>
<path d="m238 754.72c20.471 4.429 41.71 6.782 63.5 6.782s43.029-2.354 63.5-6.782v-753.22h-127v753.22z" fill="#fcef3c"/>
<path d="m442.55 382.28s-5.417 14.002-14.169 22.553c-8.904 7.289-15.935-2.114-22.651-3.658-4.488-1.03-5.503 3.028-5.503 3.028-5.321 0-4.508 4.78-4.508 4.78-0.691 0.533-1.246 1.321-1.607 2.422 0 0-6.354 1.542-4.72 8.106 0 0 4.086-3.765 5.628-2.122 0 0 0.906 3.859 6.716 2.895s19.061-4.634 28.5-1.931c9.44 2.704 17.428 5.791 21.421 4.246 3.993-1.542 5.354-0.095 6.988 1.643 0 0-0.09-8.205-5.354-8.205-3.449 0-7.536-1.445-10.529-3.474-2.922-1.981 0.236-9.65 8.226-21.011 7.229 7.271 15.823 14.383 26.042 21.186 1.521 5.571-0.052 10.745-1.411 16.617-2.179 9.41-7.874 34.672-15.294 40.535-5.038 3.474-11.573-1.883-18.652-5.067-7.08-3.185-10.075 1.158-10.075 1.158-6.807-0.869-7.215 5.646-7.215 5.646s3.199-1.751 5.99 0c0 0-0.222 2.271 1.172 2.83-0.775 0.664-1.127 1.223-1.127 1.223-8.713 0-7.624 10.81-7.624 10.81 4.267-4.536 9.983-2.123 9.983-2.123 4.357 7.141 13.07-4.826 24.144-4.826s16.156 2.124 23.055 5.983c6.898 3.861 12.161 0 15.066-1.35 2.904-1.352 5.809 5.403 5.809 5.403 1.452-5.02 0-8.878-3.268-12.352-4.175-4.44-15.43 2.895-21.239-3.283-7.059-7.507 10.892-41.5 14.159-47.677 0.852-1.607 1.518-2.971 2.037-4.132 9.06 4.991 19.042 9.698 30.275 14.17 0 0 7.764 96.272 27.047 102.3 12.345 3.86 36.307-15.44 36.307-30.497 0-15.056-7.806-16.793-21.965-47.483-14.159-30.689-17.972-62.538-17.972-73.251 0-38.314-22.328-110.89-65.35-156.64 0-11.002-11.617-50.378-46.107-50.378-17.791 0-29.771 16.214-29.771 16.214s-12.525 1.352-24.869 14.476c0 0 17.199-1.689 28.318 8.107 19.061 16.793 4.356 35.902 4.356 69.198-1e-3 23.609 1.429 59.807 29.741 93.926z" fill="#fff"/>
<path d="m413.2 224.28-4e-3 7e-3c11.503 15.636-0.39 34.108-0.39 64.069 0 16.089 0.722 38.06 10.154 61.233 0.021-0.028 20.888-26.032 20.888-73.104 1e-3 -47.095-18.153-52.205-30.648-52.205z" fill="#e20909"/>
<ellipse cx="424.97" cy="202.36" rx="5.083" ry="5.404"/>
<path d="m422.96 349.58c0.021-0.028 20.888-26.032 20.888-73.104 0-47.096-18.153-52.205-30.648-52.205l-4e-3 7e-3" fill="none" stroke="#000" stroke-linecap="round" stroke-linejoin="round" stroke-width="3"/>
<path d="m455.83 253.7s40.07 14.73 53.369 70.646c7.987 33.586-2.723 47.291 6.172 79.14 0 0-72.61-28.568-68.979-112.34" fill="none" stroke="#000" stroke-linecap="round" stroke-linejoin="round" stroke-width="3"/>
<path d="m478.43 291.54s6.535 50.667 33.217 46.625" fill="none" stroke="#000" stroke-linecap="round" stroke-linejoin="round" stroke-width="3"/>
<path d="m462.37 291.54s0.635 61.727 36.755 44.101" fill="none" stroke="#000" stroke-linecap="round" stroke-linejoin="round" stroke-width="3"/>
<path d="m475.37 334s-21.692 15.334-28.058-20.318" fill="none" stroke="#000" stroke-linecap="round" stroke-linejoin="round" stroke-width="3"/>
<path d="m491.69 338.29s4.971 42.245 20.682 50.439" fill="none" stroke="#000" stroke-linecap="round" stroke-linejoin="round" stroke-width="3"/>
<path d="m472.74 335.46s7.236 48.661 32.923 63.172" fill="none" stroke="#000" stroke-linecap="round" stroke-linejoin="round" stroke-width="3"/>
<path d="m542.42 425.88s12.669 56.401 39.428 94.464" fill="none" stroke="#000" stroke-linecap="round" stroke-linejoin="round" stroke-width="3"/>
<path d="m529.62 432.83s19.188 68.774 25.808 106.13" fill="none" stroke="#000" stroke-linecap="round" stroke-linejoin="round" stroke-width="3"/>
<path d="m570.96 531.77s-18.921-31.774-34.896-101.65" fill="none" stroke="#000" stroke-linecap="round" stroke-linejoin="round" stroke-width="3"/>
<path d="m431.54 474.46c1.313-1.123 3.842-2.544 7.949-2.059 6.535 0.772 15.002 2.096 20.831-2.509" fill="none" stroke="#000" stroke-linecap="round" stroke-linejoin="round" stroke-width="3"/>
<path d="m477.03 412.74c-0.46-1.684-1.364-3.301-2.32-5.193-3.708-7.348-2.178-17.952-2.178-17.952" fill="none" stroke="#000" stroke-linecap="round" stroke-linejoin="round" stroke-width="3"/>
<path d="m486.15 391.14s0.317 13.703 8.168 24.899c0.624 0.892-0.298 2.796-1.775 6.098" fill="none" stroke="#000" stroke-linecap="round" stroke-linejoin="round" stroke-width="3"/>
<path d="m428.38 404.83c-2.714 2.65-5.746 4.776-9.037 5.801-7.442 2.317-13.068-0.772-16.7-1.931-2.596-0.829-5.192-1.064-6.925 0.28" fill="none" stroke="#000" stroke-linecap="round" stroke-linejoin="round" stroke-width="3"/>
<path d="m442.55 382.28c2.582 3.111 5.388 6.206 8.437 9.272" fill="none" stroke="#000" stroke-linecap="round" stroke-linejoin="round" stroke-width="3"/>
<path d="m442.55 382.28s-5.417 14.002-14.169 22.553c-8.904 7.289-15.935-2.114-22.651-3.658-4.488-1.03-5.503 3.028-5.503 3.028-5.321 0-4.508 4.78-4.508 4.78-0.691 0.533-1.246 1.321-1.607 2.422 0 0-6.354 1.542-4.72 8.106 0 0 4.086-3.765 5.628-2.122 0 0 0.906 3.859 6.716 2.895s19.061-4.634 28.5-1.931c9.44 2.704 17.428 5.791 21.421 4.246 3.993-1.542 5.354-0.095 6.988 1.643 0 0-0.09-8.205-5.354-8.205-3.449 0-7.536-1.445-10.529-3.474-2.922-1.981 0.236-9.65 8.226-21.011 7.229 7.271 15.823 14.383 26.042 21.186 1.521 5.571-0.052 10.745-1.411 16.617-2.179 9.41-7.874 34.672-15.294 40.535-5.038 3.474-11.573-1.883-18.652-5.067-7.08-3.185-10.075 1.158-10.075 1.158-6.807-0.869-7.215 5.646-7.215 5.646s3.199-1.751 5.99 0c0 0-0.222 2.271 1.172 2.83-0.775 0.664-1.127 1.223-1.127 1.223-8.713 0-7.624 10.81-7.624 10.81 4.267-4.536 9.983-2.123 9.983-2.123 4.357 7.141 13.07-4.826 24.144-4.826s16.156 2.124 23.055 5.983c6.898 3.861 12.161 0 15.066-1.35 2.904-1.352 5.809 5.403 5.809 5.403 1.452-5.02 0-8.878-3.268-12.352-4.175-4.44-15.43 2.895-21.239-3.283-7.059-7.507 10.892-41.5 14.159-47.677 0.852-1.607 1.518-2.971 2.037-4.132 9.06 4.991 19.042 9.698 30.275 14.17 0 0 7.764 96.272 27.047 102.3 12.345 3.86 36.307-15.44 36.307-30.497 0-15.056-7.806-16.793-21.965-47.483-14.159-30.689-17.972-62.538-17.972-73.251 0-38.314-22.328-110.89-65.35-156.64 0-11.002-11.617-50.378-46.107-50.378-17.791 0-29.771 16.214-29.771 16.214s-12.525 1.352-24.869 14.476c0 0 17.199-1.689 28.318 8.107 19.061 16.793 4.356 35.902 4.356 69.198-1e-3 23.609 1.429 59.807 29.741 93.926z" fill="none" stroke="#000" stroke-linecap="round" stroke-linejoin="round" stroke-width="3"/>
<path d="m365 754.72v-753.22" fill="none" stroke="#000" stroke-linecap="round" stroke-linejoin="round" stroke-width="3"/>
<path d="m238 1.5v753.22" fill="none" stroke="#000" stroke-linecap="round" stroke-linejoin="round" stroke-width="3"/>
<path d="m112.08 273.01s-10.508 19.947-17.406 51.024c-6.897 31.077-8.615 38.055-17.012 40.682-3.679 30.271-11.634 25.295-11.634 25.295-0.314 28.862-2.156 32.89-10.203 36.473 0.401 13.031-0.783 23.628-10.941 30.351-0.166 14.583-2.012 25.294-8.229 31.863 1.621 14.65 2.639 31.164-3.155 40.792 0 0-15.793-27.815-15.793-141.38 0-185.31 89.907-289.04 108.19-269.72 7.475 7.898 0.397 18.416-6.784 36.308 5.678-7.615 14.453-11.449 21.85-12.521 6.115-0.886 12.745 3.985 11.435 10.36-2.088 10.166-27.228 11.796-27.228 53.329 0 8.44 1.268 13.587 1.268 13.587 3.28-11.083 11.212-22.776 14.798-29.366 6.263-11.51 14.704-12.806 20.422-12.806 8.713 0 28.5 3.837 28.5 17.841 0 3.837-2.178 7.099-2.178 7.099s1.528 5.403-1.997 12.853c-1.634 3.453 1.615 14.277-0.544 15.155-1.77 0.719-6.082-1.151-6.082-1.151s-1.134 3.406-1.815 4.125c0 0 0.908 1.343-0.999 2.206-1.906 0.863-3.177 2.686-3.177 5.755s-2.088 4.508-5.718 4.508c-2.12 0-5.602-2.388-8.132-4.375 0 0-3.032 9.075-1.398 10.801s16.882 8.057 13.615 40.573c-0.388 3.863-0.01 13.071 0.398 22.71 3.25-1.164 5.683-3.622 5.683-3.622 5.764-11.463 11.8-12.47 11.8-12.47 1.633-2.877 1.583-9.384 2.328-14.131 0.744-4.742 1.191-7.777 2.21-9.849 2.359-4.795 15.225-15.563 19.219-15.563 2.813 0 2.745 2.901 2.745 2.901s2.791-1.343 4.084 0.744c1.293 2.086-1.293 7.41-10.143 14.388 0 0 7.329 1.654 4.425 9.232s-7.973 13.434-13.342 23.595c0 0-1.542 9.497-11.572 15.012 0 0-4.038 4.653-10.075 9.855-5.364 4.622-9.534 10.398-13.827 13.979 0 0 4.217 7.703 7.972 22.783 0.681 2.732 10.166 9.351 17.79 12.804 7.624 3.452 24.506 8.634 24.506 27.435 0 18.799-1.997 103.92 0.317 114.28-0.369 0.063-0.744 0.129-1.125 0.201 2.284 4.056 5.254 5.122 5.254 5.122 4.084 6.427-1.542 13.045-8.078 13.045s-15.639-8.345-21.386-9.471c-0.141 0.064-0.283 0.129-0.425 0.192-4.945 2.238-10.368 4.834-16.309 7.745-18.788 9.207-59.769 5.334-68.482 1.881-2.039 1.938-4.17 3.9-6.398 5.889 0 0-4.901-6.619-19.605-8.921s-23.961-2.494-23.961-2.494 20.953-46.925 29.499-85.846c6.444-29.352 5.354-64.457 8.078-78.269 2.723-13.813 7.08-26.762 16.337-42.012 0 0 3.812-32.612 10.075-56.975" fill="#fff"/>
<path d="m103.81 547.24c0.635-0.593 1.278-1.188 1.896-1.773-0.618 0.586-1.261 1.179-1.896 1.773zm111.65-30.41c-21.303 1.155-28.474 9.939-53.07 17.451-22.086 6.747-46.54 0.905-46.54 0.905l-0.029 0.021c-1.771 1.924-3.622 3.863-5.579 5.826-0.038 0.039-0.082 0.064-0.121 0.099-1.425 1.434-2.88 2.874-4.414 4.334 8.713 3.453 49.694 7.326 68.482-1.881 5.941-2.911 11.364-5.507 16.309-7.745 10.097-4.568 18.198-7.648 24.635-8.889 0.381-0.072 0.756-0.139 1.125-0.201-0.365-1.631-0.622-5.125-0.798-9.92z" fill="#e20909"/>
<path d="m61.053 527.4c-3.181 7.766-5.315 12.547-5.315 12.547s9.258 0.192 23.961 2.494c14.704 2.302 19.605 8.921 19.605 8.921 2.229-1.988 4.36-3.951 6.398-5.889 1.954-1.86 3.802-3.693 5.589-5.512-14.701-11.014-41.901-12.399-50.238-12.561z" fill="#e20909"/>
<path d="m170.78 213.97s0.817 1.726 2.995 3.165c0 0 2.655-1.296 2.314-3.31 1e-3 0-2.11-1.007-5.309 0.145z"/>
<path d="m156.4 238.67s1.319 1.211 3.122 2.627" fill="none" stroke="#000" stroke-linecap="round" stroke-linejoin="round" stroke-width="3"/>
<path d="m158.12 252.1s-1.429 7.553-23.184-5.926" fill="none" stroke="#000" stroke-linecap="round" stroke-linejoin="round" stroke-width="3"/>
<line x1="144.57" x2="146.82" y1="251.46" y2="259.76" fill="none" stroke="#000" stroke-linecap="round" stroke-linejoin="round" stroke-width="3"/>
<path d="m177.82 311.76s5.471 7.219 11.754 13.86" fill="none" stroke="#000" stroke-linecap="round" stroke-linejoin="round" stroke-width="3"/>
<path d="m156.12 324.51c2.451-8.152 8.078-8.538 12.798-8.538 1.117 0 2.204-0.236 3.212-0.597" fill="none" stroke="#000" stroke-linecap="round" stroke-linejoin="round" stroke-width="3"/>
<path d="m165.67 349.45c-2.44 2.034-4.921 3.359-7.685 3.359-11.98 0-28.182-43.307-28.182-64.169 0-20.861 7.08-28.883 17.019-28.883 9.938 0 14.272 13.696 12.797 26.87-1.53 13.668-2.042 23.02 1.77 24.027s3.156 5.629 3.156 5.629" fill="none" stroke="#000" stroke-linecap="round" stroke-linejoin="round" stroke-width="3"/>
<path d="m161.93 402.88s-0.544 22.732 4.629 48.63c5.174 25.898 8.033 52.803-8.713 70.501" fill="none" stroke="#000" stroke-linecap="round" stroke-linejoin="round" stroke-width="3"/>
<path d="m93.314 375.83s47.469 22.731 80.326-3.597" fill="none" stroke="#000" stroke-linecap="round" stroke-linejoin="round" stroke-width="3"/>
<path d="m109.65 333.82s16.767 7.93 35.023 5.787" fill="none" stroke="#000" stroke-linecap="round" stroke-linejoin="round" stroke-width="3"/>
<path d="m142.98 384.5c0 6.042 6.431 24.996 6.431 61.827 0 34.95-5.883 63.162-43.703 99.143" fill="none" stroke="#000" stroke-linecap="round" stroke-linejoin="round" stroke-width="3"/>
<path d="m189.62 299.29s7.17 5.852 11.526 11.318" fill="none" stroke="#000" stroke-linecap="round" stroke-linejoin="round" stroke-width="3"/>
<path d="m126.44 219.45c-2.449 8.274-2.305 16.208 4.178 21.422 9.122 7.337 22.056-2.446 24.506-18.704 2.451-16.258 10.156-28.987 23.281-23.739 5.038 2.014 7.125 3.789 9.576 3.789" fill="none" stroke="#000" stroke-linecap="round" stroke-linejoin="round" stroke-width="3"/>
<path d="m136.44 243.3s-0.806 2.616-2.009 3.045c-3.63 1.295-8.544 6.54-14.704 30.502 0 0-9.439 3.069-22.146-29.927s-4.719-80.571 4.72-97.836c0 0-85.077 92.743-67.67 321.28 0.391 5.125 1.273 11.53 2.026 18.336" fill="none" stroke="#000" stroke-linecap="round" stroke-linejoin="round" stroke-width="3"/>
<path d="m124.08 262.23s-15.249-11.863-15.249-56.369c0-19.664 8.441-37.792 14.432-40.669 0 0-5.87 2.54-11.209 11.635-1.931 8.456-3.222 18.063-3.222 29.034" fill="none" stroke="#000" stroke-linecap="round" stroke-linejoin="round" stroke-width="3"/>
<path d="m119.12 154.7c-2.557 6.371-5.127 13.678-7.058 22.134" fill="none" stroke="#000" stroke-linecap="round" stroke-linejoin="round" stroke-width="3"/>
<path d="m109.72 270.31s-9.597 20.973-20.827 16.369" fill="none" stroke="#000" stroke-linecap="round" stroke-linejoin="round" stroke-width="3"/>
<path d="m103.6 260.52s-2.912 3.478-5.655 10.759c-3.205 8.507-8.168 22.836-27.983 19.479" fill="none" stroke="#000" stroke-linecap="round" stroke-linejoin="round" stroke-width="3"/>
<path d="m96.989 245.33c-14.666 30.747-21.373 54.346-40.434 44.178" fill="none" stroke="#000" stroke-linecap="round" stroke-linejoin="round" stroke-width="3"/>
<path d="m92.296 225.79c-21.854 40.695-26.665 75.8-44.179 59.779" fill="none" stroke="#000" stroke-linecap="round" stroke-linejoin="round" stroke-width="3"/>
<path d="m91.047 202.61c-33.403 52.36-30.671 87.734-46.524 82.479" fill="none" stroke="#000" stroke-linecap="round" stroke-linejoin="round" stroke-width="3"/>
<path d="m215.13 526.96c-6.346 1.223-14.311 4.233-24.209 8.696" fill="none" stroke="#000" stroke-linecap="round" stroke-linejoin="round" stroke-width="3"/>
<path d="m55.065 289.45s-14.409 55.282-11.58 126.28c0.636 15.979 1.53 29.721 1.401 41.103" fill="none" stroke="#000" stroke-linecap="round" stroke-linejoin="round" stroke-width="3"/>
<path d="m67.582 291.59s-15.41 43.971-12.478 119.54c0.208 5.378 0.575 10.526 0.724 15.356" fill="none" stroke="#000" stroke-linecap="round" stroke-linejoin="round" stroke-width="3"/>
<path d="m78.971 291.02s-12.885 43.658-12.885 86.725c0 4.523-0.016 8.594-0.055 12.263" fill="none" stroke="#000" stroke-linecap="round" stroke-linejoin="round" stroke-width="3"/>
<path d="m92.125 287.34s-10.52 33.245-13.787 70.844c-0.204 2.343-0.43 4.518-0.675 6.536" fill="none" stroke="#000" stroke-linecap="round" stroke-linejoin="round" stroke-width="3"/>
<path d="m169.15 211.38c2.178 0 7.556-2.159 8.373 1.51" fill="none" stroke="#000" stroke-linecap="round" stroke-linejoin="round" stroke-width="3"/>
<path d="m112.08 273.01s-10.508 19.947-17.406 51.024c-6.897 31.077-8.615 38.055-17.012 40.682-3.679 30.271-11.634 25.295-11.634 25.295-0.314 28.862-2.156 32.89-10.203 36.473 0.401 13.031-0.783 23.628-10.941 30.351-0.166 14.583-2.012 25.294-8.229 31.863 1.621 14.65 2.639 31.164-3.155 40.792 0 0-15.793-27.815-15.793-141.38 0-185.31 89.907-289.04 108.19-269.72 7.475 7.898 0.397 18.416-6.784 36.308 5.678-7.615 14.453-11.449 21.85-12.521 6.115-0.886 12.745 3.985 11.435 10.36-2.088 10.166-27.228 11.796-27.228 53.329 0 8.44 1.268 13.587 1.268 13.587 3.28-11.083 11.212-22.776 14.798-29.366 6.263-11.51 14.704-12.806 20.422-12.806 8.713 0 28.5 3.837 28.5 17.841 0 3.837-2.178 7.099-2.178 7.099s1.528 5.403-1.997 12.853c-1.634 3.453 1.615 14.277-0.544 15.155-1.77 0.719-6.082-1.151-6.082-1.151s-1.134 3.406-1.815 4.125c0 0 0.908 1.343-0.999 2.206-1.906 0.863-3.177 2.686-3.177 5.755s-2.088 4.508-5.718 4.508c-2.12 0-5.602-2.388-8.132-4.375 0 0-3.032 9.075-1.398 10.801s16.882 8.057 13.615 40.573c-0.388 3.863-0.01 13.071 0.398 22.71 3.25-1.164 5.683-3.622 5.683-3.622 5.764-11.463 11.8-12.47 11.8-12.47 1.633-2.877 1.583-9.384 2.328-14.131 0.744-4.742 1.191-7.777 2.21-9.849 2.359-4.795 15.225-15.563 19.219-15.563 2.813 0 2.745 2.901 2.745 2.901s2.791-1.343 4.084 0.744c1.293 2.086-1.293 7.41-10.143 14.388 0 0 7.329 1.654 4.425 9.232s-7.973 13.434-13.342 23.595c0 0-1.542 9.497-11.572 15.012 0 0-4.038 4.653-10.075 9.855-5.364 4.622-9.534 10.398-13.827 13.979 0 0 4.217 7.703 7.972 22.783 0.681 2.732 10.166 9.351 17.79 12.804 7.624 3.452 24.506 8.634 24.506 27.435 0 18.799-1.997 103.92 0.317 114.28-0.369 0.063-0.744 0.129-1.125 0.201 2.284 4.056 5.254 5.122 5.254 5.122 4.084 6.427-1.542 13.045-8.078 13.045s-15.639-8.345-21.386-9.471c-0.141 0.064-0.283 0.129-0.425 0.192-4.945 2.238-10.368 4.834-16.309 7.745-18.788 9.207-59.769 5.334-68.482 1.881-2.039 1.938-4.17 3.9-6.398 5.889 0 0-4.901-6.619-19.605-8.921s-23.961-2.494-23.961-2.494 20.953-46.925 29.499-85.846c6.444-29.352 5.354-64.457 8.078-78.269 2.723-13.813 7.08-26.762 16.337-42.012 0 0 3.812-32.612 10.075-56.975" fill="none" stroke="#000" stroke-linecap="round" stroke-linejoin="round" stroke-width="3"/>
</g>
<g>
<path d="m1.5 1.5v458.87c0 166.31 134.31 301.13 300 301.13 165.69 0 300-134.82 300-301.13v-458.87h-600z" fill="url(#a)"/>
<path d="m1.5 1.5v458.87c0 166.31 134.31 301.13 300 301.13 165.69 0 300-134.82 300-301.13v-458.87h-600z" fill="none" stroke="#000" stroke-width="3"/>
</g>
</svg>
