<?xml version="1.0" encoding="UTF-8" standalone="no"?>
<svg
   xmlns:ns="http://creativecommons.org/ns#"
   xmlns:dc="http://purl.org/dc/elements/1.1/"
   xmlns:cc="http://web.resource.org/cc/"
   xmlns:rdf="http://www.w3.org/1999/02/22-rdf-syntax-ns#"
   xmlns:svg="http://www.w3.org/2000/svg"
   xmlns="http://www.w3.org/2000/svg"
   xmlns:xlink="http://www.w3.org/1999/xlink"
   xmlns:sodipodi="http://sodipodi.sourceforge.net/DTD/sodipodi-0.dtd"
   xmlns:inkscape="http://www.inkscape.org/namespaces/inkscape"
   height="763"
   width="603"
   version="1.0"
   id="svg20"
   sodipodi:version="0.32"
   inkscape:version="0.45pre1"
   sodipodi:docname="PonteTresa-coat_of_arms.svg"
   sodipodi:docbase="C:\Documents and Settings\ivaldelli.DARWIN\Desktop"
   inkscape:output_extension="org.inkscape.output.svg.inkscape"
   sodipodi:modified="true">
  <metadata
     id="metadata31">
    <rdf:RDF>
      <ns:Work
         rdf:about="">
        <dc:format>image/svg+xml</dc:format>
        <dc:type
           rdf:resource="http://purl.org/dc/dcmitype/StillImage" />
        <dc:date>07-AUG-2006</dc:date>
        <dc:creator>
          <ns:Agent>
            <dc:title>Jérôme BLUM (wagner51)</dc:title>
          </ns:Agent>
        </dc:creator>
        <ns:license
           rdf:resource="http://creativecommons.org/licenses/GPL/2.0/" />
        <dc:coverage />
        <dc:description>Gabarit pour le Projet:Blasons de WIkipédia</dc:description>
        <dc:subject>
          <rdf:Bag>
            <rdf:li>blason suisse modèle gabarit projet blasons</rdf:li>
          </rdf:Bag>
        </dc:subject>
        <dc:language>fr</dc:language>
        <dc:title>Gabrit d'un blason suisse</dc:title>
      </ns:Work>
      <ns:License
         rdf:about="http://creativecommons.org/licenses/GPL/2.0/">
        <ns:permits
           rdf:resource="http://web.resource.org/cc/Reproduction" />
        <ns:permits
           rdf:resource="http://web.resource.org/cc/Distribution" />
        <ns:requires
           rdf:resource="http://web.resource.org/cc/Notice" />
        <ns:permits
           rdf:resource="http://web.resource.org/cc/DerivativeWorks" />
        <ns:requires
           rdf:resource="http://web.resource.org/cc/ShareAlike" />
        <ns:requires
           rdf:resource="http://web.resource.org/cc/SourceCode" />
      </ns:License>
      <cc:Work
         rdf:about="">
        <dc:format>image/svg+xml</dc:format>
        <dc:type
           rdf:resource="http://purl.org/dc/dcmitype/StillImage" />
      </cc:Work>
    </rdf:RDF>
  </metadata>
  <defs
     id="defs29">
    <marker
       inkscape:stockid="Arrow2Send"
       orient="auto"
       refY="0.0"
       refX="0.0"
       id="Arrow2Send"
       style="overflow:visible;">
      <path
         id="path3324"
         style="font-size:12.0;fill-rule:evenodd;stroke-width:0.62500000;stroke-linejoin:round;"
         d="M 8.7185878,4.0337352 L -2.2072895,0.016013256 L 8.7185884,-4.0017078 C 6.9730900,-1.6296469 6.9831476,1.6157441 8.7185878,4.0337352 z "
         transform="scale(0.3) rotate(180) translate(-2.3,0)" />
    </marker>
    <marker
       inkscape:stockid="Arrow2Mend"
       orient="auto"
       refY="0.0"
       refX="0.0"
       id="Arrow2Mend"
       style="overflow:visible;">
      <path
         id="path3330"
         style="font-size:12.0;fill-rule:evenodd;stroke-width:0.62500000;stroke-linejoin:round;"
         d="M 8.7185878,4.0337352 L -2.2072895,0.016013256 L 8.7185884,-4.0017078 C 6.9730900,-1.6296469 6.9831476,1.6157441 8.7185878,4.0337352 z "
         transform="scale(0.6) rotate(180) translate(0,0)" />
    </marker>
    <marker
       inkscape:stockid="TriangleInS"
       orient="auto"
       refY="0.0"
       refX="0.0"
       id="TriangleInS"
       style="overflow:visible">
      <path
         id="path3262"
         d="M 5.77,0.0 L -2.88,5.0 L -2.88,-5.0 L 5.77,0.0 z "
         style="fill-rule:evenodd;stroke:#000000;stroke-width:1.0pt;marker-start:none"
         transform="scale(-0.2)" />
    </marker>
    <marker
       inkscape:stockid="Dot_s"
       orient="auto"
       refY="0.0"
       refX="0.0"
       id="Dot_s"
       style="overflow:visible">
      <path
         id="path3289"
         d="M -2.5,-1.0 C -2.5,1.7600000 -4.7400000,4.0 -7.5,4.0 C -10.260000,4.0 -12.5,1.7600000 -12.5,-1.0 C -12.5,-3.7600000 -10.260000,-6.0 -7.5,-6.0 C -4.7400000,-6.0 -2.5,-3.7600000 -2.5,-1.0 z "
         style="fill-rule:evenodd;stroke:#000000;stroke-width:1.0pt;marker-start:none;marker-end:none"
         transform="scale(0.2) translate(7.4, 1)" />
    </marker>
    <marker
       inkscape:stockid="Dot_m"
       orient="auto"
       refY="0.0"
       refX="0.0"
       id="Dot_m"
       style="overflow:visible">
      <path
         id="path3292"
         d="M -2.5,-1.0 C -2.5,1.7600000 -4.7400000,4.0 -7.5,4.0 C -10.260000,4.0 -12.5,1.7600000 -12.5,-1.0 C -12.5,-3.7600000 -10.260000,-6.0 -7.5,-6.0 C -4.7400000,-6.0 -2.5,-3.7600000 -2.5,-1.0 z "
         style="fill-rule:evenodd;stroke:#000000;stroke-width:1.0pt;marker-start:none;marker-end:none"
         transform="scale(0.4) translate(7.4, 1)" />
    </marker>
    <marker
       inkscape:stockid="Club"
       orient="auto"
       refY="0.0"
       refX="0.0"
       id="Club"
       style="overflow:visible">
      <path
         id="path3190"
         d="M -1.5971367,-7.0977635 C -3.4863874,-7.0977635 -5.0235187,-5.5606321 -5.0235187,-3.6713813 C -5.0235187,-3.0147015 -4.7851656,-2.4444556 -4.4641095,-1.9232271 C -4.5028609,-1.8911157 -4.5437814,-1.8647646 -4.5806531,-1.8299921 C -5.2030765,-2.6849849 -6.1700514,-3.2751330 -7.3077730,-3.2751330 C -9.1970245,-3.2751331 -10.734155,-1.7380016 -10.734155,0.15124914 C -10.734155,2.0404999 -9.1970245,3.5776313 -7.3077730,3.5776313 C -6.3143268,3.5776313 -5.4391540,3.1355702 -4.8137404,2.4588126 C -4.9384274,2.8137041 -5.0235187,3.1803000 -5.0235187,3.5776313 C -5.0235187,5.4668819 -3.4863874,7.0040135 -1.5971367,7.0040135 C 0.29211394,7.0040135 1.8292454,5.4668819 1.8292454,3.5776313 C 1.8292454,2.7842354 1.5136868,2.0838028 1.0600576,1.5031550 C 2.4152718,1.7663868 3.7718375,2.2973711 4.7661444,3.8340272 C 4.0279463,3.0958289 3.5540908,1.7534117 3.5540908,-0.058529361 L 2.9247554,-0.10514681 L 3.5074733,-0.12845553 C 3.5074733,-1.9403966 3.9580199,-3.2828138 4.6962183,-4.0210121 C 3.7371277,-2.5387813 2.4390549,-1.9946496 1.1299838,-1.7134486 C 1.5341802,-2.2753578 1.8292454,-2.9268556 1.8292454,-3.6713813 C 1.8292454,-5.5606319 0.29211394,-7.0977635 -1.5971367,-7.0977635 z "
         style="fill-rule:evenodd;stroke:#000000;stroke-width:0.74587913pt;marker-start:none"
         transform="scale(0.6)" />
    </marker>
    <marker
       inkscape:stockid="Dot_l"
       orient="auto"
       refY="0.0"
       refX="0.0"
       id="Dot_l"
       style="overflow:visible">
      <path
         id="path3295"
         d="M -2.5,-1.0 C -2.5,1.7600000 -4.7400000,4.0 -7.5,4.0 C -10.260000,4.0 -12.5,1.7600000 -12.5,-1.0 C -12.5,-3.7600000 -10.260000,-6.0 -7.5,-6.0 C -4.7400000,-6.0 -2.5,-3.7600000 -2.5,-1.0 z "
         style="fill-rule:evenodd;stroke:#000000;stroke-width:1.0pt;marker-start:none;marker-end:none"
         transform="scale(0.8) translate(7.4, 1)" />
    </marker>
    <inkscape:perspective
       sodipodi:type="inkscape:persp3d"
       inkscape:vp_x="0 : 381.5 : 1"
       inkscape:vp_y="0 : 1000 : 0"
       inkscape:vp_z="603 : 381.5 : 1"
       inkscape:persp3d-origin="301.5 : 254.33333 : 1"
       id="perspective28" />
    <linearGradient
       id="linearGradient2893">
      <stop
         style="stop-color:#ffffff;stop-opacity:0.3137255;"
         offset="0"
         id="stop2895" />
      <stop
         id="stop2897"
         offset="0.19"
         style="stop-color:#ffffff;stop-opacity:0.25098041;" />
      <stop
         style="stop-color:#6b6b6b;stop-opacity:0.1254902;"
         offset="0.60000002"
         id="stop2901" />
      <stop
         style="stop-color:#000000;stop-opacity:0.1254902;"
         offset="1"
         id="stop2899" />
    </linearGradient>
    <linearGradient
       id="linearGradient2955">
      <stop
         style="stop-color:white;stop-opacity:0;"
         offset="0"
         id="stop2965" />
      <stop
         style="stop-color:black;stop-opacity:0.64583331;"
         offset="1"
         id="stop2959" />
    </linearGradient>
    <radialGradient
       inkscape:collect="always"
       xlink:href="#linearGradient2893"
       id="radialGradient3236"
       gradientUnits="userSpaceOnUse"
       gradientTransform="matrix(1.215027,1.531577e-24,1.464684e-23,1.266667,-839.1924,-490.4894)"
       cx="858.04236"
       cy="579.93323"
       fx="858.04236"
       fy="579.93323"
       r="300" />
    <inkscape:perspective
       id="perspective2523"
       inkscape:persp3d-origin="306 : 264 : 1"
       inkscape:vp_z="612 : 396 : 1"
       inkscape:vp_y="0 : 1000 : 0"
       inkscape:vp_x="0 : 396 : 1"
       sodipodi:type="inkscape:persp3d" />
  </defs>
  <sodipodi:namedview
     inkscape:window-height="990"
     inkscape:window-width="1680"
     inkscape:pageshadow="2"
     inkscape:pageopacity="0.0"
     guidetolerance="10.0"
     gridtolerance="10.0"
     objecttolerance="10.0"
     borderopacity="1.0"
     bordercolor="#666666"
     pagecolor="#ffffff"
     id="base"
     inkscape:zoom="1.0406291"
     inkscape:cx="301.5"
     inkscape:cy="381.5"
     inkscape:window-x="-4"
     inkscape:window-y="-4"
     inkscape:current-layer="layer2"
     showgrid="false"
     showguides="true"
     inkscape:guide-bbox="true">
    <sodipodi:guide
       orientation="horizontal"
       position="761.5"
       id="guide1885" />
    <sodipodi:guide
       orientation="vertical"
       position="1.5"
       id="guide1887" />
    <sodipodi:guide
       orientation="horizontal"
       position="1.5"
       id="guide1889" />
    <sodipodi:guide
       orientation="vertical"
       position="601.5"
       id="guide1891" />
    <sodipodi:guide
       orientation="vertical"
       position="301.50081"
       id="guide1893" />
  </sodipodi:namedview>
  <desc
     id="desc22">Coat of Arms of Canton of Freiburg (Fribourg)</desc>
  <g
     inkscape:groupmode="layer"
     id="layer1"
     inkscape:label="Fond écu"
     style="opacity:1;display:inline"
     sodipodi:insensitive="true">
    <path
       id="path1899"
       d="M 1.5,1.49998 L 1.5,460.3679 C 1.5,626.6785 135.81456,761.5 301.49999,761.5 C 467.18543,761.5 601.5,626.6785 601.5,460.3679 L 601.5,1.49998 L 1.5,1.49998 z "
       style="fill:#e20909;fill-opacity:1" />
    <path
       id="path2486"
       d="M 1.5,346.5 L 1.5,460.368 C 1.5,626.679 135.814,761.5 301.5,761.5 C 467.186,761.5 601.5,626.679 601.5,460.368 L 601.5,346.5 L 1.5,346.5 z "
       style="opacity:1;fill:#ffffff" />
  </g>
  <g
     inkscape:groupmode="layer"
     id="layer2"
     inkscape:label="Meubles"
     style="opacity:1;display:inline"
     sodipodi:insensitive="true">
    <path
       style="fill:#2b5df2"
       d="M 399.198,674.725 C 355.776,674.725 344.924,651.234 301.5,651.234 C 258.076,651.234 247.224,674.725 203.802,674.725 C 160.379,674.725 149.525,651.234 106.103,651.234 C 92.941,651.234 82.779,653.398 73.788,656.407 C 84.365,668.774 95.928,680.262 108.348,690.764 C 149.895,691.564 161.145,714.218 203.802,714.218 C 247.224,714.218 258.076,690.726 301.5,690.726 C 344.924,690.726 355.776,714.218 399.198,714.218 C 441.855,714.218 453.105,691.564 494.652,690.764 C 507.072,680.262 518.635,668.774 529.213,656.407 C 520.221,653.398 510.06,651.234 496.898,651.234 C 453.476,651.233 442.621,674.725 399.198,674.725 z M 594.597,437.775 C 551.174,437.775 540.32,414.282 496.898,414.282 C 453.476,414.282 442.622,437.775 399.199,437.775 C 355.777,437.775 344.925,414.282 301.501,414.282 C 258.077,414.282 247.225,437.775 203.803,437.775 C 160.38,437.775 149.526,414.282 106.104,414.282 C 62.682,414.282 51.827,437.775 8.405,437.775 C 6.003,437.775 3.716,437.692 1.502,437.556 L 1.502,460.368 C 1.502,465.973 1.667,471.541 1.969,477.071 C 4.04,477.189 6.17,477.265 8.406,477.265 C 51.828,477.265 62.683,453.775 106.105,453.775 C 149.527,453.775 160.381,477.265 203.804,477.265 C 247.226,477.265 258.078,453.775 301.502,453.775 C 344.926,453.775 355.778,477.265 399.2,477.265 C 442.623,477.265 453.477,453.775 496.899,453.775 C 540.321,453.775 551.175,477.265 594.598,477.265 C 596.833,477.265 598.963,477.189 601.035,477.071 C 601.337,471.541 601.502,465.973 601.502,460.368 L 601.502,437.556 C 599.286,437.692 596.999,437.775 594.597,437.775 z M 496.897,493.267 C 453.475,493.267 442.621,516.758 399.198,516.758 C 355.776,516.758 344.924,493.267 301.5,493.267 C 258.076,493.267 247.224,516.758 203.802,516.758 C 160.379,516.758 149.525,493.267 106.103,493.267 C 62.681,493.267 51.826,516.758 8.404,516.758 C 7.846,516.758 7.317,516.737 6.77,516.731 C 9.298,530.128 12.698,543.215 16.931,555.922 C 53.465,553.113 65.676,532.759 106.103,532.759 C 149.525,532.759 160.379,556.251 203.802,556.251 C 247.224,556.251 258.076,532.759 301.5,532.759 C 344.924,532.759 355.776,556.251 399.198,556.251 C 442.621,556.251 453.475,532.759 496.897,532.759 C 537.325,532.759 549.535,553.113 586.07,555.922 C 590.302,543.215 593.703,530.128 596.23,516.731 C 595.683,516.738 595.154,516.758 594.596,516.758 C 551.174,516.758 540.319,493.267 496.897,493.267 z M 399.198,595.741 C 355.776,595.741 344.924,572.249 301.5,572.249 C 258.076,572.249 247.224,595.741 203.802,595.741 C 160.379,595.741 149.525,572.249 106.103,572.249 C 71.839,572.249 57.843,586.869 32.132,593.039 C 37.747,604.504 44.068,615.556 51.035,626.142 C 66.883,619.534 81.093,611.743 106.102,611.743 C 149.524,611.743 160.378,635.234 203.801,635.234 C 247.223,635.234 258.075,611.743 301.499,611.743 C 344.923,611.743 355.775,635.234 399.197,635.234 C 442.62,635.234 453.474,611.743 496.896,611.743 C 521.906,611.743 536.116,619.534 551.963,626.142 C 558.931,615.556 565.251,604.504 570.866,593.039 C 545.155,586.869 531.159,572.249 496.895,572.249 C 453.476,572.249 442.621,595.741 399.198,595.741 z "
       id="path2492" />
    <path
       style="fill:none;stroke:#000000;stroke-width:3;stroke-linejoin:round"
       d="M 529.213,656.406 C 520.221,653.397 510.06,651.233 496.898,651.233 C 453.476,651.233 442.622,674.724 399.199,674.724 C 355.777,674.724 344.925,651.233 301.501,651.233 C 258.077,651.233 247.225,674.724 203.803,674.724 C 160.38,674.724 149.526,651.233 106.104,651.233 C 92.942,651.233 82.78,653.397 73.789,656.406 M 108.348,690.764 C 149.895,691.564 161.145,714.218 203.802,714.218 C 247.224,714.218 258.076,690.726 301.5,690.726 C 344.924,690.726 355.776,714.218 399.198,714.218 C 441.855,714.218 453.105,691.564 494.652,690.764 M 601.5,437.557 C 599.286,437.693 596.999,437.776 594.597,437.776 C 551.174,437.776 540.32,414.283 496.898,414.283 C 453.476,414.283 442.622,437.776 399.199,437.776 C 355.777,437.776 344.925,414.283 301.501,414.283 C 258.077,414.283 247.225,437.776 203.803,437.776 C 160.38,437.776 149.526,414.283 106.104,414.283 C 62.682,414.283 51.827,437.776 8.405,437.776 C 6.003,437.776 3.716,437.693 1.502,437.557 M 1.967,477.071 C 4.038,477.189 6.168,477.265 8.404,477.265 C 51.826,477.265 62.681,453.775 106.103,453.775 C 149.525,453.775 160.379,477.265 203.802,477.265 C 247.224,477.265 258.076,453.775 301.5,453.775 C 344.924,453.775 355.776,477.265 399.198,477.265 C 442.621,477.265 453.475,453.775 496.897,453.775 C 540.319,453.775 551.173,477.265 594.596,477.265 C 596.831,477.265 598.961,477.189 601.033,477.071 M 596.23,516.73 C 595.683,516.737 595.154,516.757 594.596,516.757 C 551.173,516.757 540.319,493.266 496.897,493.266 C 453.475,493.266 442.621,516.757 399.198,516.757 C 355.776,516.757 344.924,493.266 301.5,493.266 C 258.076,493.266 247.224,516.757 203.802,516.757 C 160.379,516.757 149.525,493.266 106.103,493.266 C 62.681,493.266 51.826,516.757 8.404,516.757 C 7.846,516.757 7.317,516.736 6.77,516.73 M 16.93,555.922 C 53.464,553.113 65.675,532.759 106.102,532.759 C 149.524,532.759 160.378,556.251 203.801,556.251 C 247.223,556.251 258.075,532.759 301.499,532.759 C 344.923,532.759 355.775,556.251 399.197,556.251 C 442.62,556.251 453.474,532.759 496.896,532.759 C 537.324,532.759 549.534,553.113 586.069,555.922 M 570.868,593.039 C 545.157,586.869 531.161,572.249 496.897,572.249 C 453.475,572.249 442.621,595.741 399.198,595.741 C 355.776,595.741 344.924,572.249 301.5,572.249 C 258.076,572.249 247.224,595.741 203.802,595.741 C 160.379,595.741 149.525,572.249 106.103,572.249 C 71.839,572.249 57.843,586.869 32.132,593.039 M 51.035,626.142 C 66.883,619.534 81.093,611.743 106.102,611.743 C 149.524,611.743 160.378,635.234 203.801,635.234 C 247.223,635.234 258.075,611.743 301.499,611.743 C 344.923,611.743 355.775,635.234 399.197,635.234 C 442.62,635.234 453.474,611.743 496.896,611.743 C 521.906,611.743 536.116,619.534 551.963,626.142"
       id="path2494" />
    <path
       id="path2496"
       d="M 447.5,210.5 C 440.167,198.167 438.167,176.167 431.167,154.167 C 424.167,132.167 399.834,122.834 378.834,122.834 C 355.168,122.834 353.834,128.167 329.5,128.167 C 294.833,128.167 258.167,118.167 258.167,118.167 L 266.834,112.834 C 258.501,110.501 255.834,106.501 228.501,94.834 C 190.056,78.425 176.167,81.5 176.167,81.5 C 157.5,67.833 147.5,64.5 147.5,64.5 C 152.167,75.833 166.167,92.833 166.167,92.833 C 166.167,92.833 164.625,94.375 163.438,95.562 C 163.438,95.562 147,84.666 128.334,80.999 C 128.334,80.999 137.501,99.832 157.501,104.832 C 157.501,104.832 152.501,111.499 151.668,120.499 C 150.835,129.499 152.335,138.666 149.168,146.332 C 146.001,153.998 148.333,169 159,174.667 C 159,174.667 163.75,181.417 171.5,173.667 C 174.75,170.417 174.75,155.834 174.75,155.834 C 174.75,155.834 183.167,154 190.333,138.167 C 190.333,138.167 210.706,160.575 221.166,178.167 C 223.811,182.616 228.278,192.874 233.126,200.811 C 228.568,206.911 218.666,220.5 214.499,228.834 C 208.999,239.834 211.499,244.001 217.166,255.167 C 222.833,266.333 226.75,272.917 228.333,274.5 C 228.333,274.5 233,281.667 243.333,278.667 L 237.333,266.5 C 237.333,266.5 230.5,268.834 232.75,261.917 C 232.75,261.917 225.833,252 225.833,242.5 C 225.833,240.042 239.142,224.703 246.446,220.101 C 252.45,231.254 258.5,245.879 258.5,248.167 C 258.5,251.5 261,259.75 258.5,275.25 C 258.5,275.25 252.533,278.25 250.767,285.625 L 254.25,291.75 L 265.744,285.058 C 265.744,285.058 266.25,280.25 269.5,277 C 269.5,277 268,260.25 268,235.25 C 268,235.25 267,223.5 263.25,206.75 C 314,220 350.75,194 350.75,194 C 354.5,226.25 369,231 369,238.5 C 369,246 346,273.75 346,273.75 C 337.5,273.75 332.259,284.913 332.259,284.913 L 330.75,290.75 L 349.493,285.506 C 353.236,277.512 358.75,276.25 358.75,276.25 C 369.5,257 386.25,238.75 386.25,238.75 C 382.25,215.75 376,195 376,195 C 396,222.5 409.5,228.5 416.25,233 C 423,237.5 423,244.75 423,248.75 C 423,267.75 424.178,282.428 424.178,282.428 C 419.606,284.106 416.295,290.311 416.295,290.311 L 415.25,295 L 429.994,291.797 C 431.238,281.844 435,278.75 435,278.75 C 431.5,252.5 433.75,227.5 433.75,227.5 C 428.5,219 419,203 419,203 C 422.25,164 411.25,146 411.25,146 C 426.875,151.625 421.637,176 423.5,188.5 C 427.178,213.175 440.125,226.5 444.938,226.5 C 452.5,226.5 454.833,222.833 447.5,210.5 z M 160.375,129.25 C 160.375,129.25 162.063,126.062 164.125,124 C 166.187,121.938 167.25,123.875 169.375,123.875 C 169.375,123.875 167.625,132.25 160.375,129.25 z " />
    <path
       style="fill:#fcef3c"
       d="M 601.5,355.654 L 601.5,325.919 C 509.254,299.256 407.895,284.5 301.5,284.5 C 195.105,284.5 93.746,299.257 1.5,325.919 L 1.5,355.654 C 24.592,357.006 48.5,367 48.5,367 L 97,367 C 97,367 124.5,355.5 149,355.5 C 173.5,355.5 201,367 201,367 L 249.5,367 C 249.5,367 277,355.5 301.5,355.5 C 326,355.5 353.5,367 353.5,367 L 402,367 C 402,367 429.5,355.5 454,355.5 C 478.5,355.5 506,367 506,367 L 554.5,367 C 554.5,367 578.408,357.006 601.5,355.654 z "
       id="path2500" />
    <polygon
       id="polygon2504"
       points="72.75,344.5 48.5,367 48.5,396 97,396 97,367 72.75,344.5 "
       style="fill:#fcef3c;stroke:#000000;stroke-width:3;stroke-linecap:round;stroke-linejoin:round" />
    <polygon
       id="polygon2506"
       points="225.25,344.5 201,367 201,396 249.5,396 249.5,367 225.25,344.5 "
       style="fill:#fcef3c;stroke:#000000;stroke-width:3;stroke-linecap:round;stroke-linejoin:round" />
    <polygon
       id="polygon2508"
       points="377.75,344.5 353.5,367 353.5,396 402,396 402,367 377.75,344.5 "
       style="fill:#fcef3c;stroke:#000000;stroke-width:3;stroke-linecap:round;stroke-linejoin:round" />
    <polygon
       id="polygon2510"
       points="530.25,344.5 506,367 506,396 554.5,396 554.5,367 530.25,344.5 "
       style="fill:#fcef3c;stroke:#000000;stroke-width:3;stroke-linecap:round;stroke-linejoin:round" />
    <path
       id="path2514"
       d="M 1.5,355.654 C 24.592,357.006 48.5,367 48.5,367 L 97,367 C 97,367 124.5,355.5 149,355.5 C 173.5,355.5 201,367 201,367 L 249.5,367 C 249.5,367 277,355.5 301.5,355.5 C 326,355.5 353.5,367 353.5,367 L 402,367 C 402,367 429.5,355.5 454,355.5 C 478.5,355.5 506,367 506,367 L 554.5,367 C 554.5,367 578.408,357.006 601.5,355.654"
       style="fill:none;stroke:#000000;stroke-width:3;stroke-linecap:round;stroke-linejoin:round" />
    <path
       id="path2516"
       d="M 601.5,325.919 C 509.254,299.256 407.895,284.5 301.5,284.5 C 195.105,284.5 93.746,299.257 1.5,325.919"
       style="fill:none;stroke:#000000;stroke-width:3;stroke-linecap:round;stroke-linejoin:round" />
    <path
       style="opacity:1;fill:none;fill-rule:evenodd;stroke:#000000;stroke-width:9.90717506;stroke-linecap:round;stroke-linejoin:miter;marker-start:none;marker-end:none;stroke-miterlimit:12;stroke-dasharray:none;stroke-opacity:1"
       d="M 146.76858,460.4532 C 127.1574,477.67866 109.31315,509.437 128.5392,529.70165 C 142.96432,544.90599 138.26438,554.51851 131.14058,563.61711 C 123.737,573.07305 115.89442,588.00283 122.00214,602.04859 C 133.98675,629.60935 163.40352,642.52844 163.40352,642.52844"
       id="path2193"
       sodipodi:nodetypes="csssc" />
    <rect
       style="opacity:1;stroke-width:10.5;stroke-linecap:round;stroke-miterlimit:6.0999999;stroke-dasharray:none"
       id="rect3484"
       width="24.138794"
       height="14.773465"
       x="-334.46027"
       y="396.08514"
       ry="7.143713"
       transform="matrix(0.6137245,-0.7895203,0.8715914,0.490233,0,0)"
       inkscape:transform-center-x="14.222216"
       inkscape:transform-center-y="5.9372956"
       rx="7.3465929" />
    <path
       style="opacity:1;fill:none;fill-rule:evenodd;stroke:#000000;stroke-width:9.90717506;stroke-linecap:round;stroke-linejoin:miter;marker-start:none;marker-end:none;stroke-miterlimit:12;stroke-dasharray:none;stroke-opacity:1;display:inline"
       d="M 305.94035,481.6875 C 286.32917,498.91296 295.98085,518.61278 302.87554,546.13117 C 307.96919,566.46121 297.43615,575.75281 290.31235,584.85141 C 282.90877,594.30735 276.4561,605.35079 277.85092,622.79931 C 279.20466,639.73407 301.29764,666.90603 301.29764,666.90603"
       id="path3490"
       sodipodi:nodetypes="csssc" />
    <rect
       style="opacity:1;stroke-width:10.5;stroke-linecap:round;stroke-miterlimit:6.0999999;stroke-dasharray:none;display:inline"
       id="rect3492"
       width="24.138794"
       height="14.773466"
       x="-278.10645"
       y="534.58618"
       ry="7.1437135"
       transform="matrix(0.6084351,-0.7936036,0.8748478,0.484398,0,0)"
       inkscape:transform-center-x="14.182226"
       inkscape:transform-center-y="6.0321813"
       rx="7.3465924" />
    <path
       style="opacity:1;fill:none;fill-rule:evenodd;stroke:#000000;stroke-width:9.90717506;stroke-linecap:round;stroke-linejoin:miter;marker-start:none;marker-end:none;stroke-miterlimit:12;stroke-dasharray:none;stroke-opacity:1;display:inline"
       d="M 460.90347,469.19505 C 480.51465,486.42051 489.8962,493.75791 470.67015,514.02256 C 456.24503,529.2269 469.40767,563.26036 476.53147,572.35896 C 483.93505,581.8149 491.77763,596.74468 485.66991,610.79044 C 473.6853,638.3512 444.26853,651.27029 444.26853,651.27029"
       id="path3494"
       sodipodi:nodetypes="csssc" />
    <rect
       style="opacity:1;stroke-width:10.5;stroke-linecap:round;stroke-miterlimit:6.0999999;stroke-dasharray:none;display:inline"
       id="rect3496"
       width="24.138794"
       height="14.773466"
       x="-649.95319"
       y="-63.282509"
       ry="7.3867331"
       transform="matrix(-0.6375254,-0.7704293,-0.8562298,0.5165952,0,0)"
       inkscape:transform-center-x="-14.396789"
       inkscape:transform-center-y="5.5006556"
       rx="7.3465929" />
  </g>
  <g
     inkscape:groupmode="layer"
     id="layer3"
     inkscape:label="Reflet final"
     style="display:inline"
     sodipodi:insensitive="true">
    <path
       style="fill:url(#radialGradient3236);fill-opacity:1"
       d="M 1.5,1.5 L 1.5,460.3679 C 1.5,626.67854 135.81454,761.5 301.49993,761.5 C 467.1854,761.5 601.5,626.67854 601.5,460.3679 L 601.5,1.5 L 1.5,1.5 z "
       id="path2346" />
  </g>
  <g
     inkscape:groupmode="layer"
     id="layer4"
     inkscape:label="Contour final"
     style="display:inline"
     sodipodi:insensitive="true">
    <path
       style="fill:none;fill-opacity:1;stroke:#000000;stroke-width:3;stroke-miterlimit:4;stroke-dasharray:none;stroke-opacity:1"
       d="M 1.5,1.5 L 1.5,460.36794 C 1.5,626.67854 135.81454,761.5 301.49993,761.5 C 467.1854,761.5 601.5,626.67854 601.5,460.36794 L 601.5,1.5 L 1.5,1.5 z "
       id="path3239" />
  </g>
</svg>
