<?xml version="1.0" encoding="UTF-8" standalone="no"?>
<svg
   xmlns:dc="http://purl.org/dc/elements/1.1/"
   xmlns:cc="http://creativecommons.org/ns#"
   xmlns:rdf="http://www.w3.org/1999/02/22-rdf-syntax-ns#"
   xmlns:svg="http://www.w3.org/2000/svg"
   xmlns="http://www.w3.org/2000/svg"
   xmlns:xlink="http://www.w3.org/1999/xlink"
   xmlns:sodipodi="http://sodipodi.sourceforge.net/DTD/sodipodi-0.dtd"
   xmlns:inkscape="http://www.inkscape.org/namespaces/inkscape"
   height="763"
   width="603"
   version="1.0"
   id="svg20"
   sodipodi:version="0.32"
   inkscape:version="0.46"
   sodipodi:docname="Capriasca-coat_of_arms.svg"
   sodipodi:docbase="C:\Documents and Settings\Steve\Bureau\Blason Villages Suisse pour Wikipédia (par Delta-9)"
   inkscape:output_extension="org.inkscape.output.svg.inkscape">
  <metadata
     id="metadata31">
    <rdf:RDF>
      <cc:Work
         rdf:about="">
        <dc:format>image/svg+xml</dc:format>
        <dc:type
           rdf:resource="http://purl.org/dc/dcmitype/StillImage" />
        <dc:date>07-AUG-2006</dc:date>
        <dc:creator>
          <cc:Agent>
            <dc:title>Jérôme BLUM (wagner51)</dc:title>
          </cc:Agent>
        </dc:creator>
        <cc:license
           rdf:resource="http://creativecommons.org/licenses/GPL/2.0/" />
        <dc:coverage />
        <dc:description>Gabarit pour le Projet:Blasons de WIkipédia</dc:description>
        <dc:subject>
          <rdf:Bag>
            <rdf:li>blason suisse modèle gabarit projet blasons</rdf:li>
          </rdf:Bag>
        </dc:subject>
        <dc:language>fr</dc:language>
        <dc:title>Gabrit d'un blason suisse</dc:title>
      </cc:Work>
      <cc:License
         rdf:about="http://creativecommons.org/licenses/GPL/2.0/">
        <cc:permits
           rdf:resource="http://web.resource.org/cc/Reproduction" />
        <cc:permits
           rdf:resource="http://web.resource.org/cc/Distribution" />
        <cc:requires
           rdf:resource="http://web.resource.org/cc/Notice" />
        <cc:permits
           rdf:resource="http://web.resource.org/cc/DerivativeWorks" />
        <cc:requires
           rdf:resource="http://web.resource.org/cc/ShareAlike" />
        <cc:requires
           rdf:resource="http://web.resource.org/cc/SourceCode" />
      </cc:License>
    </rdf:RDF>
  </metadata>
  <defs
     id="defs29"><inkscape:perspective
   sodipodi:type="inkscape:persp3d"
   inkscape:vp_x="0 : 381.5 : 1"
   inkscape:vp_y="0 : 1000 : 0"
   inkscape:vp_z="603 : 381.5 : 1"
   inkscape:persp3d-origin="301.5 : 254.33333 : 1"
   id="perspective28" />
<linearGradient
   id="linearGradient2893">
  <stop
     style="stop-color:#ffffff;stop-opacity:0.3137255;"
     offset="0"
     id="stop2895" />
  <stop
     id="stop2897"
     offset="0.19"
     style="stop-color:#ffffff;stop-opacity:0.25098041;" />
  <stop
     style="stop-color:#6b6b6b;stop-opacity:0.1254902;"
     offset="0.60000002"
     id="stop2901" />
  <stop
     style="stop-color:#000000;stop-opacity:0.1254902;"
     offset="1"
     id="stop2899" />
</linearGradient>
<linearGradient
   id="linearGradient2955">
  <stop
     style="stop-color:white;stop-opacity:0;"
     offset="0"
     id="stop2965" />
  <stop
     style="stop-color:black;stop-opacity:0.64583331;"
     offset="1"
     id="stop2959" />
</linearGradient>
<radialGradient
   inkscape:collect="always"
   xlink:href="#linearGradient2893"
   id="radialGradient3236"
   gradientUnits="userSpaceOnUse"
   gradientTransform="matrix(1.215027,1.531577e-24,1.464684e-23,1.266667,-839.1924,-490.4894)"
   cx="858.04236"
   cy="579.93323"
   fx="858.04236"
   fy="579.93323"
   r="300" />
<inkscape:perspective
   id="perspective2689"
   inkscape:persp3d-origin="306 : 264 : 1"
   inkscape:vp_z="612 : 396 : 1"
   inkscape:vp_y="0 : 1000 : 0"
   inkscape:vp_x="0 : 396 : 1"
   sodipodi:type="inkscape:persp3d" />

	
	

	
	

		
		
		
	
		
		
		
	
			
		
			
			
			
			
		
			
			
			
			
		
				
				
				
				
			
				
				
				
				
				
				
				
				
				
				
				
			
				
				
					
			
				
				
				
			
				
				
				
				
			
				
				
				
				
				
				
				
				
				
				
				
			
				
				
					
			
				
				
				
			</defs>
  <sodipodi:namedview
     inkscape:window-height="691"
     inkscape:window-width="939"
     inkscape:pageshadow="2"
     inkscape:pageopacity="0.0"
     guidetolerance="10.0"
     gridtolerance="10.0"
     objecttolerance="10.0"
     borderopacity="1.0"
     bordercolor="#666666"
     pagecolor="#ffffff"
     id="base"
     inkscape:zoom="0.47938702"
     inkscape:cx="308.99906"
     inkscape:cy="354.13375"
     inkscape:window-x="145"
     inkscape:window-y="70"
     inkscape:current-layer="layer2"
     showgrid="false"
     showguides="true"
     inkscape:guide-bbox="true">
    <sodipodi:guide
       orientation="horizontal"
       position="761.5"
       id="guide1885" />
    <sodipodi:guide
       orientation="vertical"
       position="1.5"
       id="guide1887" />
    <sodipodi:guide
       orientation="horizontal"
       position="1.5"
       id="guide1889" />
    <sodipodi:guide
       orientation="vertical"
       position="601.5"
       id="guide1891" />
    <sodipodi:guide
       orientation="vertical"
       position="301.50081"
       id="guide1893" />
  </sodipodi:namedview>
  <desc
     id="desc22">Coat of Arms of Canton of Freiburg (Fribourg)</desc>
  <g
     inkscape:groupmode="layer"
     id="layer1"
     inkscape:label="Fond écu"
     style="opacity:1"
     sodipodi:insensitive="true">
    <path
       d="M 1.500004,1.5 L 1.500004,460.368 C 1.500004,626.679 135.814,761.5 301.5,761.5 C 467.186,761.5 601.5,626.679 601.5,460.368 L 601.5,1.5 L 1.500004,1.5 z"
       id="path2672"
       style="opacity:1;fill:#2b5df2" />
  </g>
  <g
     inkscape:groupmode="layer"
     id="layer2"
     inkscape:label="Meubles"
     style="opacity:1"
     sodipodi:insensitive="true">
    <path
       id="path2569"
       d="M 4.210004,500.875 C 23.924004,648.027 149.501,761.5 301.5,761.5 C 453.499,761.5 579.076,648.027 598.789,500.875 L 4.210004,500.875 z"
       style="fill:#ffffff" />
    <path
       style="fill:#2b5df2"
       d="M 568.239,598.27 C 535.682,593.668 523.728,568.981 486.454,568.981 C 445.352,568.981 435.078,599.034 393.977,599.034 C 352.875,599.034 342.601,568.981 301.499,568.981 C 260.397,568.981 250.123,599.034 209.021,599.034 C 167.919,599.034 157.645,568.981 116.544,568.981 C 79.270004,568.981 67.316004,593.669 34.759004,598.27 C 44.603004,617.42 56.440004,635.368 69.983004,651.85 C 82.937004,644.282 95.827,636.652 116.544,636.652 C 157.645,636.652 167.919,666.706 209.021,666.706 C 250.123,666.706 260.397,636.652 301.499,636.652 C 342.601,636.652 352.875,666.706 393.977,666.706 C 435.078,666.706 445.352,636.652 486.454,636.652 C 507.171,636.652 520.061,644.282 533.016,651.85 C 546.559,635.367 558.395,617.42 568.239,598.27 z"
       id="path2575" />
    <path
       style="fill:none;stroke:#000000;stroke-width:3"
       id="path2579_99_"
       d="M 533.043,651.866 C 520.08,644.292 507.186,636.651 486.454,636.651 C 445.352,636.651 435.078,666.705 393.977,666.705 C 352.875,666.705 342.601,636.651 301.499,636.651 C 260.397,636.651 250.123,666.705 209.021,666.705 C 167.919,666.705 157.645,636.651 116.544,636.651 C 95.815,636.651 82.922004,644.29 69.961004,651.863" />
    <path
       style="fill:none;stroke:#000000;stroke-width:3"
       id="path2579_97_"
       d="M 568.232,598.285 C 535.669,593.686 523.731,568.98 486.454,568.98 C 445.352,568.98 435.078,599.033 393.977,599.033 C 352.875,599.033 342.601,568.98 301.499,568.98 C 260.397,568.98 250.123,599.033 209.021,599.033 C 167.919,599.033 157.645,568.98 116.544,568.98 C 79.258004,568.98 67.324004,593.698 34.744004,598.288" />
    <path
       d="M 466.404,128.001 C 465.562,128.956 477.347,131.435 486.101,134.489 C 494.856,137.542 504.115,140.405 501.505,145.08 C 498.896,149.755 463.374,132.58 463.374,132.58 L 466.404,128.001 z"
       id="path2585" />
    <path
       style="fill:#ffffff;stroke:#000000;stroke-width:3;stroke-linecap:round;stroke-linejoin:round"
       d="M 403.533,309.514 C 411.343,324.255 411.329,350.274 404.926,362.128 C 397.653,375.591 374.905,402.982 374.905,407.778 C 374.905,412.574 381.302,442.078 402.14,471.07 C 405.7,476.022 418.388,479.286 425.817,492.58 C 428.757,497.841 424.734,501.169 419.318,498.769 C 415.603,502.484 404.302,503.723 395.022,481.128 C 391.463,472.462 383.725,471.998 382.488,475.093 C 382.488,475.093 373.151,453.53 362.009,431.454 C 350.866,409.377 347.153,400.299 354.168,390.188 C 361.184,380.077 362.215,379.251 359.327,370.173 C 356.438,361.095 353.239,338.604 355.406,317.249 C 355.406,317.249 352.99,327.992 346.894,332.259 C 340.705,336.592 336.217,349.436 336.217,349.436 C 336.217,349.436 334.462,321.295 355.405,293.727 C 380.347,260.895 416.375,238.637 416.375,217.901 C 416.375,197.164 385.117,174.778 385.117,126.497 C 385.117,122.99 385.653,115.796 385.653,115.796 C 383.774,115.054 381.868,113.959 380.009,112.363 C 370.105,103.852 366.237,94.103003 366.237,94.103003 C 375.986,91.627003 389.108,94.124003 394.865,97.817003 C 399.93,101.067 402.603,100.138 402.603,100.138 C 403.532,95.186003 407.398,93.071003 407.398,93.071003 C 396.771,82.445 382.175,74.502 372.323,74.502 C 369.44,74.502 365.931,74.856 362.487,76 C 355.086,78.458 347.977,84.563 347.977,98.643003 C 347.977,119.276 363.451,134.338 363.451,134.338 C 346.656,127.683 339.108,115.189 336.511,101.992 C 336.052,104.23 335.803,106.619 335.803,109.166 C 335.803,124.229 343.745,135.886 349.832,141.973 C 349.832,141.973 324.92,132.481 324.92,107.103 C 324.92,88.998003 331.664,77.61 340.57,70.511 C 346.769,59.561 358.852,50.569 378.512,50.569 C 409.462,50.569 421.635,72.234 421.635,72.234 C 418.333,53.458 427.619,48.299 427.619,48.299 C 442.682,58.616 436.49,74.297 436.49,74.297 C 447.168,74.297 452.817,80.874 456.609,84.665 C 460.4,88.457003 475.642,105.401 490.343,118.4 C 494.36,121.951 495.015,126.512 492.2,130.006 C 487.712,135.576 472.005,125.596 468.523,129.077 C 458.283,139.316 487.557,143.855 487.557,145.712 C 487.557,147.673 478.953,153.694 469.553,149.787 C 469.553,149.787 465.067,156.674 474.712,165.907 C 474.712,165.907 459.393,160.026 456.762,144.861 C 456.762,144.861 450.108,137.124 439.121,137.124 C 439.121,137.124 434.734,140.631 442.678,148.575 C 447.483,153.38 470.089,176.59 487.646,197.135 C 487.646,197.135 495.292,192.318 497.357,181.795 C 499.42,171.272 511.006,117.596 527.172,91.938003 C 534.897,79.679 543.576,59.44 550.591,69.963 C 557.401,67.383 555.337,88.473003 549.248,97.508003 C 542.646,107.308 532.434,105.244 532.434,111.641 C 532.434,118.038 542.956,114.736 542.956,114.736 C 542.956,114.736 516.546,146.717 516.546,187.57 C 516.546,228.424 513.967,227.083 509.221,228.114 C 511.595,244.037 506.126,253.492 506.126,253.492 C 535.064,264.17 549.146,276.394 551.622,280.109 C 554.536,284.479 558.121,344.484 558.121,348.197 C 558.121,351.911 562.661,357.586 561.01,368.624 C 557.559,391.696 551.829,384.512 551.829,384.512 C 541.615,390.496 542.053,362.356 545.433,358.411 C 552.755,349.862 540.79,345.102 540.79,345.102 C 545.122,309.716 541.617,297.013 532.95,285.561 C 524.285,274.11 501.174,268.966 483.223,274.537 C 480.035,275.526 477.2,275.627 474.689,275.124 C 460.011,283.357 451.388,280.781 432.973,290.685 C 432.973,290.685 487.866,324.675 487.866,357.172 C 487.866,384.408 474.558,385.646 474.558,397.716 C 474.558,404.216 477.497,408.239 481.211,411.953 C 487.065,417.807 526.148,461.837 529.861,468.232 C 529.861,468.232 540.583,473.536 544.716,487.42 C 548.741,500.936 544.149,501.504 539.971,499.596 C 537.186,503.205 531.936,497.814 528.109,492.27 C 522.704,484.436 518.337,482.47 516.243,476.589 C 513.183,467.991 506.34,468.645 506.34,468.645 C 506.34,468.645 480.025,431.449 461.661,417.625 C 443.297,403.803 444.948,402.771 444.948,398.851 C 444.948,394.931 450.725,385.893 450.725,377.805 C 450.73,369.762 449.926,332.913 403.533,309.514 z"
       id="path2587" />
    <path
       d="M 537.665,106.167 L 537.665,106.167 C 541.148,104.603 545.718,102.757 549.252,97.510003 C 555.341,88.474003 557.404,67.385 550.595,69.965 C 543.58,59.442 534.901,79.681 527.176,91.940003 C 527.176,91.939003 541,84.861 537.665,106.167 z M 406.142,474.546 L 406.142,474.546 C 406.142,474.547 414.543,486.508 395.022,481.129 C 404.302,503.724 415.603,502.484 419.318,498.77 C 424.734,501.169 428.757,497.841 425.817,492.581 C 420.19,482.513 411.552,478.198 406.142,474.546 z M 561.139,360.281 C 557.528,373.762 546.576,356.882 546.575,356.881 C 546.263,357.378 545.887,357.889 545.437,358.415 C 542.057,362.36 541.62,390.5 551.833,384.516 C 551.833,384.516 557.562,391.7 561.014,368.628 C 561.494,365.415 561.442,362.668 561.139,360.281 z M 529.866,468.236 C 529.866,468.236 539.922,482.297 515.711,475.266 C 515.709,475.265 515.707,475.265 515.705,475.264 C 515.894,475.684 516.079,476.118 516.248,476.593 C 518.342,482.474 522.709,484.44 528.114,492.274 C 531.941,497.818 537.191,503.21 539.976,499.6 C 544.154,501.508 548.747,500.94 544.721,487.424 C 540.588,473.54 529.866,468.236 529.866,468.236 z"
       id="path2589" />
    <path
       d="M 438.572,104.425 C 438.572,103.635 439.786,102.994 441.29,102.994 C 442.792,102.994 444.007,103.635 444.007,104.425 C 444.007,105.214 442.792,105.857 441.29,105.857 C 439.786,105.856 438.572,105.214 438.572,104.425 z"
       id="path2593" />
    <circle
       style="fill:none;stroke:#000000;stroke-width:2;stroke-linecap:round;stroke-linejoin:round"
       sodipodi:ry="3.3280001"
       sodipodi:rx="3.3280001"
       sodipodi:cy="104.425"
       sodipodi:cx="441.29001"
       cx="441.29001"
       cy="104.425"
       r="3.3280001"
       id="circle2595"
       transform="translate(4e-6,0)" />
    <path
       style="fill:none;stroke:#000000;stroke-width:3;stroke-linecap:round;stroke-linejoin:round"
       d="M 448.808,103.474 C 448.808,103.474 444.946,99.949003 439.405,99.949003 C 436.049,99.949003 433.362,102.299 431.012,102.299 C 431.012,102.299 433.699,108.679 443.603,108.679"
       id="path2599" />
    <path
       style="fill:none;stroke:#000000;stroke-width:3;stroke-linecap:round;stroke-linejoin:round"
       d="M 432.978,290.689 C 418.03,298.728 410.854,303.939 406.576,307.127 C 404.501,308.674 403.534,309.513 403.534,309.513"
       id="path2601" />
    <path
       style="fill:none;stroke:#000000;stroke-width:3;stroke-linecap:round;stroke-linejoin:round"
       d="M 458.468,257.519 C 458.468,257.519 463.073,272.799 474.694,275.128"
       id="path2603" />
    <path
       style="fill:none;stroke:#000000;stroke-width:3;stroke-linecap:round;stroke-linejoin:round"
       d="M 506.13,253.495 C 498.737,250.767 501.489,237.092 485.602,232.759"
       id="path2605" />
    <path
       style="fill:none;stroke:#000000;stroke-width:3;stroke-linecap:round;stroke-linejoin:round"
       d="M 487.649,197.136 C 499.123,210.561 508.439,222.848 509.224,228.117"
       id="path2607" />
    <path
       style="fill:none;stroke:#000000;stroke-width:3;stroke-linecap:round;stroke-linejoin:round"
       d="M 397.785,104.969 C 397.785,104.969 386.974,96.375003 374.802,98.851003"
       id="path2609" />
    <path
       style="fill:none;stroke:#000000;stroke-width:3;stroke-linecap:round;stroke-linejoin:round"
       d="M 436.492,74.297 C 425.814,74.297 421.224,80.693 421.224,80.693"
       id="path2611" />
    <path
       style="fill:none;stroke:#000000;stroke-width:3;stroke-linecap:round;stroke-linejoin:round"
       d="M 385.654,115.798 C 393.788,119.011 401.384,115.586 402.139,117.472 C 409.346,135.489 428.137,137.125 439.124,137.125"
       id="path2613" />
    <path
       style="fill:none;stroke:#000000;stroke-width:3;stroke-linecap:round;stroke-linejoin:round"
       d="M 362.475,76.006 C 351.625,79.132 339.52,87.298 336.511,101.992"
       id="path2615" />
    <path
       style="fill:none;stroke:#000000;stroke-width:3;stroke-linecap:round;stroke-linejoin:round"
       d="M 340.572,70.51 C 353.663,60.073 371.419,58.908 379.262,59.312 C 404.873,60.629 416.686,76.154 421.224,80.693"
       id="path2617" />
    <path
       style="fill:none;stroke:#000000;stroke-width:3;stroke-linecap:round;stroke-linejoin:round"
       d="M 403.842,288.623 C 403.842,288.623 397.26,297.676 403.533,309.514"
       id="path2619" />
    <path
       style="fill:none;stroke:#2b5df2;stroke-width:3;stroke-linecap:round;stroke-linejoin:round"
       d="M 542.031,82.654 C 542.031,82.654 547.08,72.337 552.084,67.334"
       id="path2623" />
    <path
       style="fill:none;stroke:#2b5df2;stroke-width:3;stroke-linecap:round;stroke-linejoin:round"
       d="M 554.515,369.556 C 554.515,369.556 553.357,379.264 551.5,387"
       id="path2625" />
    <path
       style="fill:none;stroke:#2b5df2;stroke-width:3;stroke-linecap:round;stroke-linejoin:round"
       d="M 535.179,486.549 C 535.179,486.549 540.416,491.487 541.344,500.875"
       id="path2627" />
    <path
       style="fill:none;stroke:#2b5df2;stroke-width:3;stroke-linecap:round;stroke-linejoin:round"
       d="M 410.96,487.938 C 410.96,487.938 417.925,492.084 420.866,500.876"
       id="path2629" />
    <path
       d="M 136.596,128.001 C 137.438,128.956 125.653,131.435 116.899,134.489 C 108.144,137.542 98.885,140.405 101.495,145.08 C 104.104,149.755 139.626,132.58 139.626,132.58 L 136.596,128.001 z"
       id="path2635" />
    <path
       style="fill:#ffffff;stroke:#000000;stroke-width:3;stroke-linecap:round;stroke-linejoin:round"
       d="M 199.467,309.514 C 191.657,324.255 191.671,350.274 198.074,362.128 C 205.347,375.591 228.095,402.982 228.095,407.778 C 228.095,412.574 221.698,442.078 200.86,471.07 C 197.3,476.022 184.612,479.286 177.183,492.58 C 174.243,497.841 178.266,501.169 183.682,498.769 C 187.397,502.484 198.698,503.723 207.978,481.128 C 211.537,472.462 219.275,471.998 220.512,475.093 C 220.512,475.093 229.849,453.53 240.991,431.454 C 252.134,409.377 255.847,400.299 248.832,390.188 C 241.816,380.077 240.785,379.251 243.673,370.173 C 246.562,361.095 249.761,338.604 247.594,317.249 C 247.594,317.249 250.01,327.992 256.106,332.259 C 262.295,336.592 266.783,349.436 266.783,349.436 C 266.783,349.436 268.538,321.295 247.595,293.727 C 222.653,260.895 186.625,238.637 186.625,217.901 C 186.625,197.164 217.883,174.778 217.883,126.497 C 217.883,122.99 217.347,115.796 217.347,115.796 C 219.226,115.054 221.132,113.959 222.991,112.363 C 232.895,103.852 236.763,94.103003 236.763,94.103003 C 227.014,91.627003 213.892,94.124003 208.135,97.817003 C 203.07,101.067 200.397,100.138 200.397,100.138 C 199.468,95.186003 195.602,93.071003 195.602,93.071003 C 206.229,82.445 220.825,74.502 230.677,74.502 C 233.56,74.502 237.069,74.856 240.513,76 C 247.914,78.458 255.023,84.563 255.023,98.643003 C 255.023,119.276 239.549,134.338 239.549,134.338 C 256.344,127.683 263.892,115.189 266.489,101.992 C 266.948,104.23 267.197,106.619 267.197,109.166 C 267.197,124.229 259.255,135.886 253.168,141.973 C 253.168,141.973 278.08,132.481 278.08,107.103 C 278.08,88.998003 271.336,77.61 262.43,70.511 C 256.231,59.561 244.148,50.569 224.488,50.569 C 193.538,50.569 181.365,72.234 181.365,72.234 C 184.667,53.458 175.381,48.299 175.381,48.299 C 160.318,58.616 166.51,74.297 166.51,74.297 C 155.832,74.297 150.183,80.874 146.391,84.665 C 142.6,88.457003 127.358,105.401 112.657,118.4 C 108.64,121.951 107.985,126.512 110.8,130.006 C 115.288,135.576 130.995,125.596 134.477,129.077 C 144.717,139.316 115.443,143.855 115.443,145.712 C 115.443,147.673 124.047,153.694 133.447,149.787 C 133.447,149.787 137.933,156.674 128.288,165.907 C 128.288,165.907 143.607,160.026 146.238,144.861 C 146.238,144.861 152.892,137.124 163.879,137.124 C 163.879,137.124 168.266,140.631 160.322,148.575 C 155.517,153.38 132.911,176.59 115.354,197.135 C 115.354,197.135 107.708,192.318 105.643,181.795 C 103.58,171.272 91.994,117.596 75.828004,91.938003 C 68.100004,79.68 59.420004,59.441 52.405004,69.964 C 45.595004,67.384 47.659004,88.474003 53.748004,97.509003 C 60.350004,107.309 70.562004,105.245 70.562004,111.642 C 70.562004,118.039 60.040004,114.737 60.040004,114.737 C 60.040004,114.737 86.450004,146.718 86.450004,187.571 C 86.450004,228.425 89.029004,227.084 93.775,228.115 C 91.401,244.038 96.87,253.493 96.87,253.493 C 67.932004,264.171 53.850004,276.395 51.374004,280.11 C 48.460004,284.48 44.875004,344.485 44.875004,348.198 C 44.875004,351.912 40.335004,357.587 41.986004,368.625 C 45.437004,391.697 51.167004,384.513 51.167004,384.513 C 61.381004,390.497 60.943004,362.357 57.563004,358.412 C 50.241004,349.863 62.206004,345.103 62.206004,345.103 C 57.874004,309.717 61.379004,297.014 70.046004,285.562 C 78.711004,274.111 101.822,268.967 119.773,274.538 C 122.961,275.527 125.796,275.628 128.307,275.125 C 142.985,283.358 151.608,280.782 170.023,290.686 C 170.023,290.686 115.13,324.676 115.13,357.173 C 115.13,384.409 128.438,385.647 128.438,397.717 C 128.438,404.217 125.499,408.24 121.785,411.954 C 115.931,417.808 76.848004,461.838 73.135004,468.233 C 73.135004,468.233 62.413004,473.537 58.280004,487.421 C 54.255004,500.937 58.847004,501.505 63.025004,499.597 C 65.810004,503.206 71.060004,497.815 74.887004,492.271 C 80.292004,484.437 84.659004,482.471 86.753004,476.59 C 89.813004,467.992 96.656,468.646 96.656,468.646 C 96.656,468.646 122.971,431.45 141.335,417.626 C 159.699,403.804 158.048,402.772 158.048,398.852 C 158.048,394.932 152.271,385.894 152.271,377.806 C 152.27,369.762 153.074,332.913 199.467,309.514 z"
       id="path2637" />
    <path
       d="M 75.824004,91.939003 C 68.100004,79.68 59.420004,59.441 52.405004,69.964 C 45.595004,67.384 47.659004,88.474003 53.748004,97.509003 C 57.282004,102.756 61.852004,104.602 65.334004,106.166 L 65.335004,106.166 C 62.000004,84.861 75.824004,91.939003 75.824004,91.939003 z M 177.184,492.58 C 174.244,497.841 178.267,501.169 183.683,498.769 C 187.398,502.484 198.699,503.723 207.979,481.128 C 188.458,486.507 196.859,474.546 196.859,474.546 L 196.859,474.545 C 191.448,478.198 182.81,482.513 177.184,492.58 z M 41.986004,368.627 C 45.437004,391.699 51.167004,384.515 51.167004,384.515 C 61.381004,390.499 60.943004,362.359 57.563004,358.414 C 57.113004,357.888 56.737004,357.377 56.425004,356.88 C 56.424004,356.881 45.472004,373.761 41.861004,360.28 C 41.558004,362.668 41.506004,365.415 41.986004,368.627 z M 58.278004,487.425 C 54.253004,500.941 58.845004,501.509 63.023004,499.601 C 65.808004,503.21 71.058004,497.819 74.885004,492.275 C 80.290004,484.441 84.657004,482.475 86.751004,476.594 C 86.920004,476.119 87.105004,475.685 87.294004,475.265 C 87.292004,475.266 87.290004,475.266 87.288004,475.267 C 63.077004,482.297 73.133004,468.237 73.133004,468.237 C 73.133004,468.237 62.412004,473.54 58.278004,487.425 z"
       id="path2639" />
    <path
       d="M 164.428,104.425 C 164.428,103.635 163.214,102.994 161.71,102.994 C 160.208,102.994 158.993,103.635 158.993,104.425 C 158.993,105.214 160.208,105.857 161.71,105.857 C 163.214,105.856 164.428,105.214 164.428,104.425 z"
       id="path2643" />
    <circle
       style="fill:none;stroke:#000000;stroke-width:2;stroke-linecap:round;stroke-linejoin:round"
       sodipodi:ry="3.3280001"
       sodipodi:rx="3.3280001"
       sodipodi:cy="104.425"
       sodipodi:cx="161.71001"
       cx="161.71001"
       cy="104.425"
       r="3.3280001"
       id="circle2645"
       transform="translate(4e-6,0)" />
    <path
       style="fill:none;stroke:#000000;stroke-width:3;stroke-linecap:round;stroke-linejoin:round"
       d="M 154.192,103.474 C 154.192,103.474 158.054,99.949003 163.595,99.949003 C 166.951,99.949003 169.638,102.299 171.988,102.299 C 171.988,102.299 169.301,108.679 159.397,108.679"
       id="path2649" />
    <path
       style="fill:none;stroke:#000000;stroke-width:3;stroke-linecap:round;stroke-linejoin:round"
       d="M 170.022,290.689 C 184.97,298.728 192.146,303.939 196.424,307.127 C 198.499,308.674 199.466,309.513 199.466,309.513"
       id="path2651" />
    <path
       style="fill:none;stroke:#000000;stroke-width:3;stroke-linecap:round;stroke-linejoin:round"
       d="M 144.532,257.519 C 144.532,257.519 139.927,272.799 128.306,275.128"
       id="path2653" />
    <path
       style="fill:none;stroke:#000000;stroke-width:3;stroke-linecap:round;stroke-linejoin:round"
       d="M 96.87,253.495 C 104.263,250.767 101.511,237.092 117.398,232.759"
       id="path2655" />
    <path
       style="fill:none;stroke:#000000;stroke-width:3;stroke-linecap:round;stroke-linejoin:round"
       d="M 115.351,197.136 C 103.877,210.561 94.561,222.848 93.776,228.117"
       id="path2657" />
    <path
       style="fill:none;stroke:#000000;stroke-width:3;stroke-linecap:round;stroke-linejoin:round"
       d="M 205.215,104.969 C 205.215,104.969 216.026,96.375003 228.198,98.851003"
       id="path2659" />
    <path
       style="fill:none;stroke:#000000;stroke-width:3;stroke-linecap:round;stroke-linejoin:round"
       d="M 166.508,74.297 C 177.186,74.297 181.776,80.693 181.776,80.693"
       id="path2661" />
    <path
       style="fill:none;stroke:#000000;stroke-width:3;stroke-linecap:round;stroke-linejoin:round"
       d="M 217.346,115.798 C 209.212,119.011 201.616,115.586 200.861,117.472 C 193.654,135.489 174.863,137.125 163.876,137.125"
       id="path2663" />
    <path
       style="fill:none;stroke:#000000;stroke-width:3;stroke-linecap:round;stroke-linejoin:round"
       d="M 240.525,76.006 C 251.375,79.132 263.48,87.298 266.489,101.992"
       id="path2665" />
    <path
       style="fill:none;stroke:#000000;stroke-width:3;stroke-linecap:round;stroke-linejoin:round"
       d="M 262.428,70.51 C 249.337,60.073 231.581,58.908 223.738,59.312 C 198.127,60.629 186.314,76.154 181.776,80.693"
       id="path2667" />
    <path
       style="fill:none;stroke:#000000;stroke-width:3;stroke-linecap:round;stroke-linejoin:round"
       d="M 199.158,288.623 C 199.158,288.623 205.74,297.676 199.467,309.514"
       id="path2669" />
    <path
       style="fill:none;stroke:#2b5df2;stroke-width:3;stroke-linecap:round;stroke-linejoin:round"
       d="M 60.969004,82.654 C 60.969004,82.654 55.920004,72.337 50.916004,67.334"
       id="path2673" />
    <path
       style="fill:none;stroke:#2b5df2;stroke-width:3;stroke-linecap:round;stroke-linejoin:round"
       d="M 48.485004,369.556 C 48.485004,369.556 49.643004,379.264 51.500004,387"
       id="path2675" />
    <path
       style="fill:none;stroke:#2b5df2;stroke-width:3;stroke-linecap:round;stroke-linejoin:round"
       d="M 67.821004,486.549 C 67.821004,486.549 62.584004,491.487 61.656004,500.875"
       id="path2677" />
    <path
       style="fill:none;stroke:#2b5df2;stroke-width:3;stroke-linecap:round;stroke-linejoin:round"
       d="M 192.04,487.938 C 192.04,487.938 185.075,492.084 182.134,500.876"
       id="path2679" />
    <line
       y2="500.875"
       x2="598.789"
       y1="500.875"
       x1="4.2100053"
       id="line2583"
       style="fill:none;stroke:#000000;stroke-width:3" />
  </g>
  <g
     inkscape:groupmode="layer"
     id="layer3"
     inkscape:label="Reflet final"
     style="display:inline"
     sodipodi:insensitive="true">
    <path
       style="fill:url(#radialGradient3236);fill-opacity:1"
       d="M 1.5,1.5 L 1.5,460.3679 C 1.5,626.67854 135.81454,761.5 301.49993,761.5 C 467.1854,761.5 601.5,626.67854 601.5,460.3679 L 601.5,1.5 L 1.5,1.5 z "
       id="path2346" />
  </g>
  <g
     inkscape:groupmode="layer"
     id="layer4"
     inkscape:label="Contour final"
     style="display:inline"
     sodipodi:insensitive="true">
    <path
       style="fill:none;fill-opacity:1;stroke:#000000;stroke-width:3;stroke-miterlimit:4;stroke-dasharray:none;stroke-opacity:1"
       d="M 1.5,1.5 L 1.5,460.36794 C 1.5,626.67854 135.81454,761.5 301.49993,761.5 C 467.1854,761.5 601.5,626.67854 601.5,460.36794 L 601.5,1.5 L 1.5,1.5 z "
       id="path3239" />
  </g>
</svg>
