<?xml version="1.0" encoding="UTF-8"?>
<svg enable-background="new 0 0 297.638 298.589" version="1.1" viewBox="0 0 603 763" xml:space="preserve" xmlns="http://www.w3.org/2000/svg" xmlns:cc="http://creativecommons.org/ns#" xmlns:dc="http://purl.org/dc/elements/1.1/" xmlns:rdf="http://www.w3.org/1999/02/22-rdf-syntax-ns#"><metadata><rdf:RDF><cc:Work rdf:about=""><dc:format>image/svg+xml</dc:format><dc:type rdf:resource="http://purl.org/dc/dcmitype/StillImage"/><dc:title/></cc:Work></rdf:RDF></metadata><g transform="matrix(3.11 0 0 3.1652 -200.37 -95.235)"><path d="m67.823 207.99c-1.704-4.943-2.84-9.888-3.313-15.066l20.165-7.533 17.987 3.296 20.354 5.649 20.922-5.885 17.798-2.59 14.675 2.59 17.04 4.473 13.539-0.706 18.177-5.179 14.579-1.884 8.71 2.118 9.846 5.65c-0.378 5.414-1.515 10.358-3.313 15.302l-8.047-2.354-23.668-0.235-19.408 6.592-21.017-1.413-23.289-4.708-21.68 4.473-15.621 2.354-23.763-7.062-15.81 0.706-13.728 3.061-1.135-1.649" fill="#fff"/><path d="m110.52 187.98c5.396 1.883 10.035 3.295 14.201 3.295 4.544 0 10.13-1.647 16-3.53 6.816-2.354 13.917-4.474 20.733-4.474s13.916 2.119 20.732 4.474c5.87 1.883 11.455 3.53 16 3.53 4.166 0 8.805-1.412 14.201-3.295 6.91-2.354 14.674-4.944 23.762-4.944 4.734 0 11.834 1.648 17.041 3.061-2.746-39.55-42.887-71.095-91.737-71.095-48.851 0-88.992 31.545-91.737 71.094 5.207-1.412 12.307-3.061 17.041-3.061 9.088 0 16.851 2.59 23.763 4.945" fill="#54ad4d"/><path d="m161.45 35.196h-91.926v129.71c4.733-11.771 12.686-22.364 23.573-31.31 18.271-15.302 42.507-23.541 68.353-23.541s50.081 8.239 68.353 23.541c10.888 8.945 18.84 19.539 23.573 31.31v-129.71h-91.926" fill="#fc0"/><polyline points="148.29 142.31 161.45 155.49 174.61 142.31 148.29 142.31" fill="#e2001a"/><path d="m210.59 231.76c-5.303 1.647-10.131 3.531-14.863 3.531-5.018 0-10.604-1.884-16.474-4.002-5.964-1.884-12.212-4.002-17.798-4.002s-11.834 2.118-17.798 4.002c-5.87 2.118-11.456 4.002-16.473 4.002-4.733 0-9.562-1.884-14.769-3.531-6.059-2.119-12.97-4.708-20.639-4.708-1.988 0-4.639 0.471-7.384 1.177 3.124 4.002 6.532 8.004 10.414 11.771 17.798 16.949 41.466 26.366 66.649 26.366 25.182 0 48.85-9.417 66.648-26.366 3.881-3.767 7.289-7.769 10.414-11.771-2.746-0.706-5.396-1.177-7.385-1.177-7.667 0-14.578 2.589-20.542 4.708" fill="#0088c9"/><path d="m211.44 212.22c-5.302 1.883-10.319 3.767-15.147 3.767-5.018 0-10.698-1.884-16.662-4.002-6.153-2.119-12.497-4.237-18.177-4.237-5.681 0-12.023 2.118-18.177 4.237-5.964 2.118-11.645 4.002-16.662 4.002-4.828 0-9.846-1.884-15.147-3.767-6.154-2.119-13.159-4.473-20.922-4.473-4.26 0-11.266 1.883-16.094 3.296 1.894 4.237 4.26 8.475 6.911 12.712 3.692-0.941 7.479-1.648 10.414-1.648 8.521 0 15.811 2.59 22.248 4.709 5.018 1.883 9.278 3.295 13.159 3.295 4.26 0 9.373-1.647 14.864-3.53 6.343-2.119 12.97-4.238 19.408-4.238s13.064 2.119 19.407 4.238c5.491 1.883 10.698 3.53 14.864 3.53 3.881 0 8.141-1.412 13.158-3.295 6.438-2.119 13.729-4.709 22.248-4.709 2.936 0 6.723 0.707 10.414 1.648 2.65-4.237 5.018-8.475 6.911-12.712-4.828-1.413-11.834-3.296-16.095-3.296-7.763 0-14.768 2.353-20.923 4.473" fill="#fc0"/><path d="m250.35 206.34c-5.112-1.647-12.971-3.767-17.988-3.767-8.615 0-16.094 2.59-22.626 4.944-5.112 1.883-9.468 3.295-13.443 3.295-4.261 0-9.562-1.647-15.053-3.53-6.532-2.119-13.254-4.474-19.786-4.474-6.533 0-13.254 2.354-19.787 4.474-5.491 1.883-10.792 3.53-15.053 3.53-3.976 0-8.331-1.412-13.443-3.295-6.532-2.354-14.011-4.944-22.626-4.944-5.018 0-12.875 2.119-17.988 3.767-2.367 0.707-4.166 1.178-4.828 1.413 0.663 1.647 1.23 3.296 1.894 4.708 1.893 4.473 4.071 8.475 6.627 12.477 0.947 1.648 1.894 3.061 2.935 4.473 3.503 5.18 7.574 9.888 12.118 14.125 18.745 17.891 43.644 27.778 70.152 27.778s51.406-9.888 70.151-27.778c4.544-4.237 8.615-8.945 12.118-14.125 1.041-1.412 2.082-2.824 2.935-4.473 2.556-4.002 4.733-8.004 6.627-12.477 0.663-1.412 1.231-3.061 1.894-4.708-0.664-0.235-2.463-0.706-4.83-1.413zm-22.248 33.664c-17.799 16.949-41.467 26.366-66.648 26.366-25.183 0-48.851-9.417-66.649-26.366-3.882-3.767-7.29-7.769-10.414-11.771 2.746-0.706 5.396-1.177 7.384-1.177 7.668 0 14.58 2.589 20.639 4.708 5.207 1.647 10.035 3.531 14.769 3.531 5.018 0 10.604-1.884 16.473-4.002 5.964-1.884 12.212-4.002 17.798-4.002s11.834 2.118 17.798 4.002c5.87 2.118 11.456 4.002 16.474 4.002 4.732 0 9.561-1.884 14.863-3.531 5.964-2.119 12.875-4.708 20.543-4.708 1.988 0 4.639 0.471 7.385 1.177-3.126 4.002-6.535 8.004-10.415 11.771zm13.443-16.243c-3.691-0.941-7.479-1.648-10.414-1.648-8.52 0-15.811 2.59-22.248 4.709-5.018 1.883-9.277 3.295-13.158 3.295-4.166 0-9.373-1.647-14.864-3.53-6.343-2.119-12.97-4.238-19.407-4.238s-13.065 2.119-19.408 4.238c-5.491 1.883-10.604 3.53-14.864 3.53-3.881 0-8.142-1.412-13.159-3.295-6.438-2.119-13.728-4.709-22.248-4.709-2.935 0-6.722 0.707-10.414 1.648-2.651-4.237-5.018-8.475-6.911-12.712 4.828-1.413 11.834-3.296 16.094-3.296 7.763 0 14.769 2.354 20.922 4.473 5.302 1.883 10.319 3.767 15.147 3.767 5.018 0 10.698-1.884 16.662-4.002 6.154-2.119 12.497-4.237 18.177-4.237s12.023 2.118 18.177 4.237c5.964 2.118 11.645 4.002 16.662 4.002 4.828 0 9.846-1.884 15.147-3.767 6.154-2.119 13.159-4.473 20.922-4.473 4.261 0 11.267 1.883 16.095 3.296-1.893 4.237-4.26 8.474-6.91 12.712"/><path d="m255.94 30.252h-191.43v162.67c2.177-0.706 15.431-4.943 22.248-4.943 8.237 0 15.621 2.589 22.153 4.708 5.585 1.883 10.792 3.767 15.81 3.767 5.302 0 11.266-1.884 17.514-4.002 6.438-2.119 13.16-4.237 19.219-4.237s12.78 2.118 19.219 4.237c6.248 2.118 12.212 4.002 17.514 4.002 5.018 0 10.225-1.884 15.811-3.767 6.531-2.119 13.916-4.708 22.152-4.708 6.816 0 20.07 4.237 22.248 4.943v-162.67h-2.462zm-78.957 42.845c0 8.475-6.91 15.537-15.525 15.537s-15.526-7.062-15.526-15.537c0-8.71 6.911-15.537 15.526-15.537s15.525 6.827 15.525 15.537zm33.988 53.909-40.236 40.255-1.23 1.178-8.047 8.004-8.047-8.004c-0.096 0-1.231-1.178-1.231-1.178l-40.235-40.255-3.692-3.767-13.917-13.889 8.047-8.004 16.757 16.714 3.881 4.002 37.207 37.194 1.23 1.178 1.23-1.178 37.206-37.194 3.882-4.002 16.756-16.714 8.048 8.004-13.917 13.889zm-62.674 15.302h26.319l-13.159 13.183zm29.822-3.532h-33.325l-18.082-18.126c10.698-3.531 22.437-5.65 34.745-5.65 12.307 0 24.047 2.119 34.744 5.65zm-108.59-48.023v-55.557h90.127v18.833c-2.178 0.236-4.26 0.707-6.154 1.648l-10.224-17.656-3.124 1.648 10.319 17.891c-1.798 1.177-3.313 2.825-4.544 4.473l-17.798-10.358-1.799 3.061 17.798 10.358c-0.852 1.883-1.42 4.002-1.609 6.121h-20.544v3.531h20.544c0.189 2.354 0.757 4.237 1.609 6.356l-17.798 10.122 1.799 3.061 17.798-10.123c1.23 1.648 2.746 3.061 4.544 4.473l-10.319 17.656 3.124 1.883 10.224-17.892c1.895 0.941 3.977 1.647 6.154 1.647v18.127c-12.875 0.235-25.372 2.589-36.922 6.591l-19.124-19.067-1.23-1.177-1.231 1.177-10.603 10.593-1.231 1.177 1.231 1.177 14.485 14.596c-4.166 2.354-8.237 5.179-11.929 8.475-10.887 8.945-18.84 19.539-23.573 31.31v-74.155zm166.62 92.28c-9.088 0-16.852 2.59-23.762 4.944-5.396 1.883-10.035 3.295-14.201 3.295-4.545 0-10.13-1.647-16-3.53-6.816-2.354-13.916-4.474-20.732-4.474s-13.917 2.119-20.733 4.474c-5.87 1.883-11.455 3.53-16 3.53-4.166 0-8.804-1.412-14.201-3.295-6.911-2.354-14.674-4.944-23.763-4.944-4.733 0-11.834 1.648-17.041 3.061 1.609-23.541 16.662-44.492 39.004-57.205l39.762 39.549 1.23 1.177 10.51 10.594 1.23 1.177 1.23-1.177 10.508-10.594 1.231-1.177 39.763-39.549c22.342 12.712 37.395 33.664 39.004 57.205-5.205-1.412-12.304-3.061-17.039-3.061zm17.231-92.28v74.154c-4.733-11.771-12.686-22.364-23.573-31.31-3.692-3.296-7.763-6.121-11.929-8.475l14.484-14.596 1.231-1.177-1.231-1.177-10.602-10.592-1.231-1.177-1.23 1.177-19.123 19.068c-11.551-4.002-24.047-6.356-36.922-6.591v-18.127c2.178 0 4.26-0.706 6.153-1.647l10.319 17.891 3.029-1.883-10.319-17.656c1.799-1.413 3.313-2.825 4.544-4.473l17.799 10.123 1.799-3.061-17.799-10.123c0.853-2.119 1.42-4.002 1.609-6.356h20.544v-3.531h-20.544c-0.189-2.119-0.757-4.237-1.609-6.121l17.799-10.358-1.799-3.061-17.799 10.358c-1.23-1.648-2.745-3.295-4.544-4.473l10.319-17.891-3.029-1.648-10.319 17.656c-1.894-0.941-3.976-1.412-6.153-1.648v-18.832h90.127v55.557"/><path d="m162.68 159.26-1.23 1.178-1.23-1.178-57.845-57.911-8.047 8.004 57.844 57.91s1.136 1.178 1.231 1.178l8.047 8.004 8.047-8.004 1.23-1.178 57.845-57.91-8.048-8.004-57.844 57.911" fill="#e2001a"/><polyline points="64.509 30.252 64.509 271.31 258.4 271.31 258.4 30.252" fill="none"/></g></svg>
