<?xml version="1.0" encoding="UTF-8"?>
<!DOCTYPE svg  PUBLIC '-//W3C//DTD SVG 1.1//EN'  'http://www.w3.org/Graphics/SVG/1.1/DTD/svg11.dtd'>
<svg version="1.1" viewBox="0 0 1302 1637" xmlns="http://www.w3.org/2000/svg">
<g transform="scale(1.25)">
<g transform="translate(0 1309.6) scale(.04 -.04)" fill="#1e3998">
<path d="m0 23350c0-5164 2-9390 5-9390s103 59 223 131c119 73 305 185 412 249 107 65 289 175 405 245s309 187 430 260 315 190 430 260c116 70 309 187 430 260s315 190 430 260c116 70 309 187 430 260s324 195 450 272c127 77 320 194 430 260s304 183 430 260c127 77 320 194 430 260s328 198 485 293 373 226 480 290c107 65 301 182 430 260s323 195 430 260 301 182 430 260 323 195 430 260 290 175 405 245c116 70 309 187 430 260s315 190 430 260c116 70 309 187 430 260 512 309 691 417 700 426 7 7 2 24-14 52-115 200-253 516-301 692-22 80-58 226-69 280-7 33-16 78-21 100s-14 81-20 130c-6 50-15 120-20 157-13 86-13 632-1 712 5 34 15 99 21 146 32 231 118 573 179 715 5 11 17 40 26 65 25 68 40 102 117 260 161 330 357 607 623 878 341 350 665 575 1115 775 178 79 467 169 700 216 130 27 297 48 498 62l162 12v3738 3739h-6505-6505v-9390z"/>
<path d="m13025 19293c3-1363 7-2920 10-3460l5-983h1720c1180 0 1720-3 1720-10 0-10-73-102-400-505-123-152-357-442-373-462-9-12 14-42 393-508 304-375 380-470 380-477 0-4-774-9-1720-10l-1720-3-3-975c-2-536-7-987-11-1002l-8-28h1731c1187 0 1731-3 1731-10 0-10-73-102-400-505-123-152-357-442-373-462-9-12 14-42 393-508 304-375 380-470 380-477 0-4-774-9-1720-10l-1720-3v-975-975l1720-3c1212-1 1720-5 1720-13 0-6-6-16-12-23-7-7-67-80-133-161-66-82-172-212-235-290-436-537-403-493-385-521 9-14 31-42 49-62s88-106 157-191c68-85 176-218 239-296s161-198 218-268c56-69 102-131 102-137 0-7-522-10-1727-10h-1728l-3-2485-2-2485h6510 6510v6973 6972l-188 112c-103 62-311 187-462 279-151 91-374 226-495 299s-314 190-430 260c-115 70-309 187-430 260s-314 190-430 260c-115 70-309 187-430 260s-314 190-430 260c-115 70-309 187-430 260s-314 190-430 260c-115 70-309 187-430 260s-314 190-430 260c-115 70-298 180-405 245s-301 182-430 260-323 195-430 260-301 182-430 260-323 195-430 260-301 182-430 260-347 210-485 293c-137 83-353 213-480 290-126 77-320 194-430 260s-303 183-430 260c-488 296-621 375-656 390-20 8-92 48-160 89s-236 141-374 223c-137 82-315 187-395 235-223 134-572 341-605 360-16 9-131 78-255 152s-304 181-400 238-309 184-473 282-300 178-303 178c-2 0-2-1115 1-2477z"/>
<path d="m0 6211v-6211h6256c3483 0 6253 4 6250 9-3 4-90 11-193 14-197 7-322 14-386 22-21 3-71 8-110 11-67 5-262 25-422 44-198 23-390 52-680 101-107 19-148 26-260 49l-155 31c-25 5-63 13-85 18s-65 14-95 21-71 16-90 21c-19 4-55 13-80 18-25 6-99 24-165 42-66 17-136 34-155 39s-51 13-70 18c-19 6-62 18-95 26-55 15-165 47-225 66-14 4-59 18-100 30-113 35-492 160-515 170-11 5-40 16-65 24-43 14-113 39-155 56-11 4-58 23-105 40-47 18-104 41-127 51-24 11-49 19-56 19s-17 4-22 8c-6 5-48 24-95 42s-110 44-140 58c-30 13-68 30-85 37-16 7-52 23-80 35-27 13-69 31-92 41-171 73-685 330-893 446-208 115-292 164-445 256-71 44-144 88-161 97-18 10-73 46-124 79-50 34-93 61-96 61-8 0-262 174-510 349-330 233-763 584-1144 925-187 167-729 709-896 896-344 383-695 818-934 1156-148 209-218 312-378 559-72 111-227 363-283 463-30 51-57 99-81 140-11 20-39 71-61 112s-43 80-47 85c-24 30-317 616-380 760-12 28-37 82-56 122s-34 75-34 77c0 3-13 35-30 71s-30 68-30 70c0 3-10 27-21 53-38 84-47 105-94 227-49 125-93 242-127 335-11 30-24 64-29 75-14 33-192 576-210 643-16 59-42 148-59 207-31 108-129 495-159 630-12 55-26 118-31 140s-14 65-20 95c-7 30-16 73-20 95-5 22-14 69-20 105s-16 85-20 110c-31 157-99 612-120 805-6 55-15 138-20 185s-12 116-15 154-7 86-10 105c-8 61-15 188-22 379-3 100-10 185-14 188-5 3-9-2756-9-6205z"/>
<path d="m0 23350c0-5164 2-9390 5-9390s103 59 223 131c119 73 305 185 412 249 107 65 289 175 405 245s309 187 430 260 315 190 430 260c116 70 309 187 430 260s315 190 430 260c116 70 309 187 430 260s324 195 450 272c127 77 320 194 430 260s304 183 430 260c127 77 320 194 430 260s328 198 485 293 373 226 480 290c107 65 301 182 430 260s323 195 430 260 301 182 430 260 323 195 430 260 290 175 405 245c116 70 309 187 430 260s315 190 430 260c116 70 309 187 430 260 512 309 691 417 700 426 7 7 2 24-14 52-115 200-253 516-301 692-22 80-58 226-69 280-7 33-16 78-21 100s-14 81-20 130c-6 50-15 120-20 157-13 86-13 632-1 712 5 34 15 99 21 146 32 231 118 573 179 715 5 11 17 40 26 65 25 68 40 102 117 260 161 330 357 607 623 878 341 350 665 575 1115 775 178 79 467 169 700 216 130 27 297 48 498 62l162 12v3738 3739h-6505-6505v-9390z"/>
<path d="m13025 19293c3-1363 7-2920 10-3460l5-983h1720c1180 0 1720-3 1720-10 0-10-73-102-400-505-123-152-357-442-373-462-9-12 14-42 393-508 304-375 380-470 380-477 0-4-774-9-1720-10l-1720-3-3-975c-2-536-7-987-11-1002l-8-28h1731c1187 0 1731-3 1731-10 0-10-73-102-400-505-123-152-357-442-373-462-9-12 14-42 393-508 304-375 380-470 380-477 0-4-774-9-1720-10l-1720-3v-975-975l1720-3c1212-1 1720-5 1720-13 0-6-6-16-12-23-7-7-67-80-133-161-66-82-172-212-235-290-436-537-403-493-385-521 9-14 31-42 49-62s88-106 157-191c68-85 176-218 239-296s161-198 218-268c56-69 102-131 102-137 0-7-522-10-1727-10h-1728l-3-2485-2-2485h6510 6510v6973 6972l-188 112c-103 62-311 187-462 279-151 91-374 226-495 299s-314 190-430 260c-115 70-309 187-430 260s-314 190-430 260c-115 70-309 187-430 260s-314 190-430 260c-115 70-309 187-430 260s-314 190-430 260c-115 70-309 187-430 260s-314 190-430 260c-115 70-298 180-405 245s-301 182-430 260-323 195-430 260-301 182-430 260-323 195-430 260-301 182-430 260-347 210-485 293c-137 83-353 213-480 290-126 77-320 194-430 260s-303 183-430 260c-488 296-621 375-656 390-20 8-92 48-160 89s-236 141-374 223c-137 82-315 187-395 235-223 134-572 341-605 360-16 9-131 78-255 152s-304 181-400 238-309 184-473 282-300 178-303 178c-2 0-2-1115 1-2477z"/>
<path d="m0 6211v-6211h6256c3483 0 6253 4 6250 9-3 4-90 11-193 14-197 7-322 14-386 22-21 3-71 8-110 11-67 5-262 25-422 44-198 23-390 52-680 101-107 19-148 26-260 49l-155 31c-25 5-63 13-85 18s-65 14-95 21-71 16-90 21c-19 4-55 13-80 18-25 6-99 24-165 42-66 17-136 34-155 39s-51 13-70 18c-19 6-62 18-95 26-55 15-165 47-225 66-14 4-59 18-100 30-113 35-492 160-515 170-11 5-40 16-65 24-43 14-113 39-155 56-11 4-58 23-105 40-47 18-104 41-127 51-24 11-49 19-56 19s-17 4-22 8c-6 5-48 24-95 42s-110 44-140 58c-30 13-68 30-85 37-16 7-52 23-80 35-27 13-69 31-92 41-171 73-685 330-893 446-208 115-292 164-445 256-71 44-144 88-161 97-18 10-73 46-124 79-50 34-93 61-96 61-8 0-262 174-510 349-330 233-763 584-1144 925-187 167-729 709-896 896-344 383-695 818-934 1156-148 209-218 312-378 559-72 111-227 363-283 463-30 51-57 99-81 140-11 20-39 71-61 112s-43 80-47 85c-24 30-317 616-380 760-12 28-37 82-56 122s-34 75-34 77c0 3-13 35-30 71s-30 68-30 70c0 3-10 27-21 53-38 84-47 105-94 227-49 125-93 242-127 335-11 30-24 64-29 75-14 33-192 576-210 643-16 59-42 148-59 207-31 108-129 495-159 630-12 55-26 118-31 140s-14 65-20 95c-7 30-16 73-20 95-5 22-14 69-20 105s-16 85-20 110c-31 157-99 612-120 805-6 55-15 138-20 185s-12 116-15 154-7 86-10 105c-8 61-15 188-22 379-3 100-10 185-14 188-5 3-9-2756-9-6205z"/>
</g>
<g transform="translate(0 1309.6) scale(.04 -.04)" fill="#c68e15">
<path d="m13020 28996v-3743l92-7c50-3 119-6 152-6 103 0 322-32 546-80 151-32 420-121 570-187 107-47 286-137 364-182 128-75 385-248 416-281 3-3 41-35 85-70 121-99 340-319 451-455 186-229 310-423 436-685 66-137 76-158 97-212 4-13 13-34 19-48 36-87 62-166 100-300 92-328 119-511 128-890 12-468-64-913-226-1320-51-129-157-349-212-439-21-35-37-65-36-67 4-3 210-129 493-299 121-73 315-190 430-260 116-70 309-187 430-260s315-190 430-260c116-70 323-195 460-278 138-83 354-213 480-290 127-77 320-194 430-260s304-183 430-260c127-77 331-201 455-275 124-75 317-192 430-260s304-184 425-257 315-190 430-260c116-70 309-187 430-260s315-190 430-260c116-70 309-187 430-260s315-190 430-260c116-70 309-187 430-260s315-190 430-260c116-70 309-187 430-260s315-190 430-260c116-70 309-187 430-260s315-190 430-260c315-191 405-245 410-245 3 0 5 4226 5 9390v9390h-6510-6510v-3744z"/>
<path d="m12921 21719c-34-21-65-39-68-39-2 0-23-13-46-29-23-15-47-30-52-32-12-5-340-199-397-235-21-13-40-24-43-24-4 0-25-13-48-29-23-15-47-30-52-32-12-5-340-199-397-235-21-13-40-24-43-24-4 0-25-13-48-29-23-15-47-30-52-32-12-5-340-199-397-235-21-13-40-24-43-24-4 0-26-13-50-30-24-16-46-30-48-30-3 0-64-36-137-80s-134-80-135-80c-2 0-40-22-85-50-45-27-84-50-86-50-3 0-25-13-49-30-24-16-46-30-48-30-3 0-64-36-137-80s-134-80-135-80c-2 0-40-22-85-50-45-27-84-50-87-50s-17-8-31-19c-15-10-43-28-62-38-34-20-466-281-915-552-121-74-308-187-415-251-107-65-289-175-405-245-115-70-309-187-430-260s-323-195-450-272c-126-77-320-194-430-260s-303-183-430-260c-126-77-320-194-430-260s-303-183-430-260c-126-77-342-207-480-290-137-83-344-208-460-278-115-70-309-187-430-260s-314-190-430-260c-115-70-309-187-430-260s-314-190-430-260c-115-70-309-187-430-260s-314-190-430-260c-115-70-309-187-430-260s-314-190-430-260c-115-70-309-187-430-260s-326-197-455-275c-129-79-286-173-347-209l-112-66-1-6972v-6973h6505 6505l-2 3468-3 3467-1717 3c-945 1-1718 4-1718 7s34 46 76 97 130 161 197 243c66 83 134 166 151 186s38 44 46 55c69 87 189 236 214 265 58 68 101 123 101 130 0 4-11 20-25 36-14 15-81 98-150 183-68 85-127 157-130 160s-62 75-130 160-127 157-130 160c-11 10-220 270-220 275 0 3 773 6 1718 7l1717 3v1005 1005l-1717 3c-945 1-1718 4-1718 7 0 5 127 164 140 175 4 3 62 75 130 160s127 157 130 160 62 75 130 160 127 157 130 160c18 15 120 149 120 158 0 6-66 93-147 193-82 100-200 246-263 324s-172 213-242 299c-71 86-128 159-128 161 0 3 773 6 1718 7l1717 3 3 978 2 977h-1720c-946 0-1720 3-1720 6 0 7 86 116 144 185 17 20 38 44 46 55 68 85 189 236 214 265 17 20 38 44 46 55 69 87 189 236 214 265 39 45 97 117 113 139 10 14 9 21-5 36-10 10-26 31-37 45-11 15-67 84-125 155-57 71-111 138-120 148-8 11-29 35-46 55s-68 83-115 141c-102 128-94 118-174 215-37 44-87 107-112 140l-45 60 1721 3 1721 2v2475c0 1974-3 2475-12 2474-7 0-42-18-77-40z"/>
<path d="m26020 13091c0-183 4-292 10-296 7-4 10 95 10 289 0 191-4 296-10 296s-10-103-10-289z"/>
<path d="m26027 12563c-3-5-7-111-11-238-7-247-17-397-42-650-126-1300-439-2549-934-3730-988-2359-2658-4371-4801-5784-130-86-259-169-285-185-27-17-100-61-163-99-1191-718-2504-1246-3856-1548-790-177-1601-284-2298-305-131-4-240-11-243-15-3-5 2795-9 6320-9h6326v6285c0 3457-2 6285-4 6285-3 0-7-3-9-7z"/>
</g>
<g transform="translate(0 1309.6) scale(.04 -.04)" fill="#ab0828">
<path d="m12940 25244c-189-8-407-32-555-61-44-8-100-19-125-24-44-8-57-11-175-44-217-58-524-185-735-301-535-295-1013-763-1317-1289-195-338-329-694-403-1070-24-124-29-152-36-210-4-33-9-69-11-80-11-63-14-584-4-695 35-379 107-687 236-1002 50-121 147-320 189-387 14-22 26-45 26-51 0-18 31-10 75 20 24 17 46 30 49 30 2 0 41 23 86 50 45 28 83 50 85 50 1 0 62 36 135 80s134 80 137 80c2 0 24 14 48 30 24 17 46 30 49 30 2 0 41 23 86 50 45 28 83 50 85 50 1 0 62 36 135 80s134 80 137 80c2 0 24 14 48 30 24 17 46 30 50 30 3 0 22 11 43 24 57 36 385 230 397 235 5 2 29 17 52 32 23 16 44 29 48 29 3 0 22 11 43 24 57 36 385 230 397 235 5 2 29 17 52 32 23 16 44 29 48 29 3 0 22 11 43 24 57 36 385 230 397 235 5 2 29 17 52 32 23 16 44 29 46 29 3 0 35 18 71 40s70 40 75 40 11 6 14 13c5 14 21 7 147-69 93-56 618-368 745-444 44-26 233-138 420-250 187-111 376-224 420-250s222-132 395-235 329-196 345-205c17-9 137-81 269-160 186-111 240-139 248-129 64 97 184 337 248 499 162 407 238 852 226 1320-9 379-36 562-128 890-38 134-64 213-100 300-6 14-15 35-19 48-21 54-31 75-97 212-126 262-250 456-436 685-111 136-330 356-451 455-44 35-82 67-85 70-31 33-288 206-416 281-78 45-257 135-364 182-150 66-419 155-570 187-321 69-592 95-870 84z"/>
<path d="m9586 16783c17-28 111-147 168-214 17-20 38-44 46-55 68-85 189-236 214-265 17-20 38-44 46-55 9-10 63-77 120-148 58-71 114-140 125-155 11-14 27-35 37-45 14-15 15-22 5-36-16-22-74-94-113-139-25-29-145-178-214-265-8-11-29-35-46-55-25-29-146-180-214-265-8-11-29-35-46-55-58-69-144-178-144-185 0-3 776-6 1725-6h1725v985 985h-1726-1726l18-27z"/>
<path d="m13040 14838c0-2-1-441-3-976l-2-972h1702c936 0 1708-3 1717-6s16-2 16 2c0 5-49 68-108 140s-170 209-247 304-204 251-282 347c-79 96-143 180-143 186 0 7 22 37 48 68s90 109 142 174 111 137 130 160 78 95 130 160 111 137 130 160c92 111 200 245 200 250 0 3-772 5-1715 5s-1715-1-1715-2z"/>
<path d="m26020 13091c0-183 4-292 10-296 7-4 10 95 10 289 0 191-4 296-10 296s-10-103-10-289z"/>
<path d="m11288 12883c-945-2-1718-5-1718-8 0-2 57-75 128-161 70-86 179-221 242-299s181-224 263-324c81-100 147-187 147-193 0-9-102-143-120-158-3-3-62-75-130-160s-127-157-130-160-62-75-130-160-126-157-130-160c-19-17-141-172-138-176 3-2 778-4 1724-4h1719l3 985c1 542-1 984-5 983-5-2-781-4-1725-5z"/>
<path d="m26027 12563c-3-5-7-111-11-238-7-247-17-397-42-650-126-1300-439-2549-934-3730-988-2359-2658-4371-4801-5784-130-86-259-169-285-185-27-17-100-61-163-99-1191-718-2504-1246-3856-1548-790-177-1601-284-2298-305-131-4-240-11-243-15-3-5 2795-9 6320-9h6326v6285c0 3457-2 6285-4 6285-3 0-7-3-9-7z"/>
<path d="m0 6211v-6211h6256c3483 0 6253 4 6250 9-3 4-90 11-193 14-197 7-322 14-386 22-21 3-71 8-110 11-67 5-262 25-422 44-198 23-390 52-680 101-107 19-148 26-260 49l-155 31c-25 5-63 13-85 18s-65 14-95 21-71 16-90 21c-19 4-55 13-80 18-25 6-99 24-165 42-66 17-136 34-155 39s-51 13-70 18c-19 6-62 18-95 26-55 15-165 47-225 66-14 4-59 18-100 30-113 35-492 160-515 170-11 5-40 16-65 24-43 14-113 39-155 56-11 4-58 23-105 40-47 18-104 41-127 51-24 11-49 19-56 19s-17 4-22 8c-6 5-48 24-95 42s-110 44-140 58c-30 13-68 30-85 37-16 7-52 23-80 35-27 13-69 31-92 41-171 73-685 330-893 446-208 115-292 164-445 256-71 44-144 88-161 97-18 10-73 46-124 79-50 34-93 61-96 61-8 0-262 174-510 349-330 233-763 584-1144 925-187 167-729 709-896 896-344 383-695 818-934 1156-148 209-218 312-378 559-72 111-227 363-283 463-30 51-57 99-81 140-11 20-39 71-61 112s-43 80-47 85c-24 30-317 616-380 760-12 28-37 82-56 122s-34 75-34 77c0 3-13 35-30 71s-30 68-30 70c0 3-10 27-21 53-38 84-47 105-94 227-49 125-93 242-127 335-11 30-24 64-29 75-14 33-192 576-210 643-16 59-42 148-59 207-31 108-129 495-159 630-12 55-26 118-31 140s-14 65-20 95c-7 30-16 73-20 95-5 22-14 69-20 105s-16 85-20 110c-31 157-99 612-120 805-6 55-15 138-20 185s-12 116-15 154-7 86-10 105c-8 61-15 188-22 379-3 100-10 185-14 188-5 3-9-2756-9-6205z"/>
<path d="m13040 10858c0-2-1-441-3-976l-2-972h1702c936 0 1708-3 1717-6s16-2 16 2c0 5-49 68-108 140s-170 209-247 304-204 251-282 347c-79 96-143 180-143 186 0 7 22 37 48 68s90 109 142 174 111 137 130 160 78 95 130 160 111 137 130 160c92 111 200 245 200 250 0 3-772 5-1715 5s-1715-1-1715-2z"/>
<path d="m11288 8903c-945-2-1718-5-1718-8 0-5 209-265 220-275 3-3 62-75 130-160s127-157 130-160 62-75 130-160c69-85 136-168 150-183 14-16 25-32 25-36 0-7-43-62-101-130-25-29-145-178-214-265-8-11-29-35-46-55s-85-103-151-186c-67-82-155-192-198-243-42-52-75-96-72-98 2-2 778-5 1725-6l1722-3v988c0 543-3 986-7 985-5-2-781-4-1725-5z"/>
<path d="m14745 6933-1710-3 2-973 3-972 1715-3c943-1 1715 1 1715 4s-35 47-77 98c-43 51-132 160-198 241-66 82-172 212-235 290s-150 185-192 237c-43 53-78 100-78 104 0 10 23 39 215 275 584 717 582 714 558 707-5-2-777-4-1718-5z"/>
</g>
<g transform="translate(0 1309.6) scale(.04 -.04)" fill="#7b6654">
<path d="m13015 28995c0-2062 1-2908 2-1878 2 1029 2 2717 0 3750-1 1033-2 191-2-1872z"/>
<path d="m13015 19290c0-1367 1-1926 2-1242 2 683 2 1801 0 2485-1 683-2 124-2-1243z"/>
<path d="m10015 20011c-6-5-116-73-245-151s-239-146-245-152c-14-15-17-17 255 147 246 147 273 165 254 165-5 0-14-4-19-9z"/>
<path d="m16006 20012c8-8 256-159 279-170 7-3 7-1 0 6-5 6-70 47-144 91-122 74-160 95-135 73z"/>
<path d="m16315 19825c11-9 34-23 50-31 28-14 29-14 10 1-11 9-33 23-50 31-28 14-29 14-10-1z"/>
<path d="m16405 19772c10-10 60-41 490-300 268-162 264-159 250-144-9 10-150 96-575 352-175 105-179 107-165 92z"/>
<path d="m9463 19674c-48-28-59-43-15-20 30 16 70 45 62 46-3 0-24-12-47-26z"/>
<path d="m9255 19549c-82-50-242-146-355-214-177-107-270-167-235-152 6 2 80 46 165 97 536 323 596 360 580 360-3 0-72-41-155-91z"/>
<path d="m17175 19305c11-9 34-23 50-31 28-14 29-14 10 1-11 9-33 23-50 31-28 14-29 14-10-1z"/>
<path d="m17265 19252c10-10 60-41 490-300 268-162 264-159 250-144-9 10-150 96-575 352-175 105-179 107-165 92z"/>
<path d="m8603 19154c-48-28-59-43-15-20 30 16 70 45 62 46-3 0-24-12-47-26z"/>
<path d="m8395 19029c-82-50-242-146-355-214-177-107-270-167-235-152 6 2 80 46 165 97 536 323 596 360 580 360-3 0-72-41-155-91z"/>
<path d="m18035 18785c11-9 34-23 50-31 28-14 29-14 10 1-11 9-33 23-50 31-28 14-29 14-10-1z"/>
<path d="m18135 18725c11-9 34-23 50-31 28-14 29-14 10 1-11 9-33 23-50 31-28 14-29 14-10-1z"/>
<path d="m18225 18672c9-10 152-97 600-367 150-90 154-92 140-77-10 10-60 41-490 300-269 162-264 159-250 144z"/>
<path d="m7743 18634c-48-28-59-43-15-20 30 16 70 45 62 46-3 0-24-12-47-26z"/>
<path d="m7535 18509c-82-50-242-147-355-215-176-105-272-167-235-151 9 4 294 175 610 366 111 67 146 91 135 91-3 0-72-41-155-91z"/>
<path d="m18995 18205c11-9 34-23 50-31 28-14 29-14 10 1-11 9-33 23-50 31-28 14-29 14-10-1z"/>
<path d="m19085 18152c9-10 152-97 600-367 150-90 154-92 140-77-10 10-60 41-490 300-269 162-264 159-250 144z"/>
<path d="m6883 18114c-48-28-59-43-15-20 30 16 70 45 62 46-3 0-24-12-47-26z"/>
<path d="m6675 17989c-82-50-242-147-355-215-176-105-272-167-235-151 9 4 294 175 610 366 111 67 146 91 135 91-3 0-72-41-155-91z"/>
<path d="m19855 17685c11-9 34-23 50-31 28-14 29-14 10 1-11 9-33 23-50 31-28 14-29 14-10-1z"/>
<path d="m19945 17632c6-6 114-73 240-150 530-319 528-318 490-287-11 9-67 45-125 79-58 35-215 130-350 211-274 165-269 162-255 147z"/>
<path d="m6023 17594c-48-28-59-43-15-20 30 16 70 45 62 46-3 0-24-12-47-26z"/>
<path d="m5835 17481c-71-43-258-156-415-250-157-95-289-177-295-183-14-15-13-14 190 107 586 353 671 405 655 405-3 0-63-36-135-79z"/>
<path d="m20715 17165c11-9 34-23 50-31 28-14 29-14 10 1-11 9-33 23-50 31-28 14-29 14-10-1z"/>
<path d="m20805 17112c9-10 150-96 575-352 176-106 179-107 165-92-9 10-150 96-575 352-176 106-179 107-165 92z"/>
<path d="m5063 17014c-48-28-59-43-15-20 30 16 70 45 62 46-3 0-24-12-47-26z"/>
<path d="m4925 16931c-44-26-208-126-365-220-157-95-289-177-295-183-14-15-11-13 165 92 536 323 596 360 580 360-3 0-41-22-85-49z"/>
<path d="m21575 16645c11-9 34-23 50-31 28-14 29-14 10 1-11 9-33 23-50 31-28 14-29 14-10-1z"/>
<path d="m21665 16592c9-10 150-96 575-352 176-106 179-107 165-92-9 10-150 96-575 352-176 106-179 107-165 92z"/>
<path d="m4203 16494c-48-28-59-43-15-20 30 16 70 45 62 46-3 0-24-12-47-26z"/>
<path d="m4065 16411c-44-26-208-126-365-220-157-95-289-177-295-183-14-15-11-13 165 92 536 323 596 360 580 360-3 0-41-22-85-49z"/>
<path d="m22435 16125c11-9 34-23 50-31 28-14 29-14 10 1-11 9-33 23-50 31-28 14-29 14-10-1z"/>
<path d="m22525 16072c9-10 150-96 575-352 176-106 179-107 165-92-9 10-150 96-575 352-176 106-179 107-165 92z"/>
<path d="m3343 15974c-48-28-59-43-15-20 30 16 70 45 62 46-3 0-24-12-47-26z"/>
<path d="m3135 15849c-82-50-242-146-355-214-177-107-270-167-235-152 6 2 80 46 165 97 536 323 596 360 580 360-3 0-72-41-155-91z"/>
<path d="m23295 15605c11-9 34-23 50-31 28-14 29-14 10 1-11 9-33 23-50 31-28 14-29 14-10-1z"/>
<path d="m23385 15552c9-10 150-96 575-352 176-106 179-107 165-92-9 10-150 96-575 352-176 106-179 107-165 92z"/>
<path d="m2483 15454c-48-28-59-43-15-20 30 16 70 45 62 46-3 0-24-12-47-26z"/>
<path d="m2275 15329c-82-50-242-146-355-214-177-107-270-167-235-152 6 2 80 46 165 97 536 323 596 360 580 360-3 0-72-41-155-91z"/>
<path d="m24155 15085c11-9 34-23 50-31 28-14 29-14 10 1-11 9-33 23-50 31-28 14-29 14-10-1z"/>
<path d="m24245 15032c9-10 150-96 575-352 176-106 179-107 165-92-9 10-150 96-575 352-176 106-179 107-165 92z"/>
<path d="m1623 14934c-48-28-59-43-15-20 30 16 70 45 62 46-3 0-24-12-47-26z"/>
<path d="m1415 14809c-82-50-242-146-355-214-177-107-270-167-235-152 6 2 80 46 165 97 536 323 596 360 580 360-3 0-72-41-155-91z"/>
<path d="m13015 13865c0-539 1-758 2-487 2 272 2 713 0 980-1 268-2 46-2-493z"/>
<path d="m25015 14565c11-9 34-23 50-31 28-14 29-14 10 1-11 9-33 23-50 31-28 14-29 14-10-1z"/>
<path d="m25115 14505c11-9 67-45 125-79 58-35 215-130 350-211 273-165 269-162 255-147-9 10-150 96-575 352-166 100-186 111-155 85z"/>
<path d="m763 14414c-48-28-59-43-15-20 30 16 70 45 62 46-3 0-24-12-47-26z"/>
<path d="m465 14234c-132-80-290-175-352-212-62-36-110-68-108-70 4-4 78 39 455 267 213 129 263 161 250 161-3 0-113-66-245-146z"/>
<path d="m25875 14045c11-9 34-23 50-31 28-14 29-14 10 1-11 9-33 23-50 31-28 14-29 14-10-1z"/>
<path d="m25960 13996c0-7 71-49 75-44 3 2-13 15-35 27s-40 20-40 17z"/>
<path d="m26020 13091c0-183 4-292 10-296 7-4 10 95 10 289 0 191-4 296-10 296s-10-103-10-289z"/>
<path d="m26027 12563c-3-5-7-111-11-238-7-247-17-397-42-650-126-1300-439-2549-934-3730-988-2359-2658-4371-4801-5784-130-86-259-169-285-185-27-17-100-61-163-99-1191-718-2504-1246-3856-1548-790-177-1601-284-2298-305-131-4-240-11-243-15-3-5 2795-9 6320-9h6326v6285c0 3457-2 6285-4 6285-3 0-7-3-9-7z"/>
<path d="m0 6211v-6211h6256c3483 0 6253 4 6250 9-3 4-90 11-193 14-197 7-322 14-386 22-21 3-71 8-110 11-67 5-262 25-422 44-198 23-390 52-680 101-107 19-148 26-260 49l-155 31c-25 5-63 13-85 18s-65 14-95 21-71 16-90 21c-19 4-55 13-80 18-25 6-99 24-165 42-66 17-136 34-155 39s-51 13-70 18c-19 6-62 18-95 26-55 15-165 47-225 66-14 4-59 18-100 30-113 35-492 160-515 170-11 5-40 16-65 24-43 14-113 39-155 56-11 4-58 23-105 40-47 18-104 41-127 51-24 11-49 19-56 19s-17 4-22 8c-6 5-48 24-95 42s-110 44-140 58c-30 13-68 30-85 37-16 7-52 23-80 35-27 13-69 31-92 41-171 73-685 330-893 446-208 115-292 164-445 256-71 44-144 88-161 97-18 10-73 46-124 79-50 34-93 61-96 61-8 0-262 174-510 349-330 233-763 584-1144 925-187 167-729 709-896 896-344 383-695 818-934 1156-148 209-218 312-378 559-72 111-227 363-283 463-30 51-57 99-81 140-11 20-39 71-61 112s-43 80-47 85c-24 30-317 616-380 760-12 28-37 82-56 122s-34 75-34 77c0 3-13 35-30 71s-30 68-30 70c0 3-10 27-21 53-38 84-47 105-94 227-49 125-93 242-127 335-11 30-24 64-29 75-14 33-192 576-210 643-16 59-42 148-59 207-31 108-129 495-159 630-12 55-26 118-31 140s-14 65-20 95c-7 30-16 73-20 95-5 22-14 69-20 105s-16 85-20 110c-31 157-99 612-120 805-6 55-15 138-20 185s-12 116-15 154-7 86-10 105c-8 61-15 188-22 379-3 100-10 185-14 188-5 3-9-2756-9-6205z"/>
<path d="m13015 9915c0-555 1-784 2-508 2 276 2 730 0 1010-1 279-2 54-2-502z"/>
<path d="m13015 3465c0-1909 1-2688 2-1732 2 956 2 2518 0 3470-1 953-2 171-2-1738z"/>
</g>
<g transform="translate(0 1309.6) scale(.04 -.04)" fill="#761d56">
<path d="m12855 25250c-53-6-47-7 48-8 66-1 107 2 107 8 0 11-58 11-155 0z"/>
<path d="m12590 25229c-25-4-70-12-100-18l-55-10 65 6c36 3 117 11 180 18l115 13h-80c-44 0-100-4-125-9z"/>
<path d="m12355 25190c-18-8-18-9 5-8 14 0 36 4 50 8 24 8 24 8-5 8-16 0-39-3-50-8z"/>
<path d="m12255 25170c-17-7-16-9 10-9 17 0 39 4 50 9 17 7 16 9-10 9-16 0-39-4-50-9z"/>
<path d="m12175 25150-20-9h20c11 0 29 4 40 9l20 9h-20c-11 0-29-4-40-9z"/>
<path d="m12067 25123c-27-8-47-17-44-19 5-5 117 23 125 31 9 9-32 3-81-12z"/>
<path d="m11865 25056c-178-64-183-66-370-156-504-242-963-634-1312-1120-108-150-314-512-300-526 3-3 22 30 43 73 159 325 378 627 654 903 237 238 492 431 770 584 162 90 379 185 560 246 52 17 97 34 99 36 12 12-37-2-144-40z"/>
<path d="m9856 23206c-36-80-45-103-61-146-9-25-21-54-26-65-50-116-162-535-147-551 3-3 9 12 13 33 31 173 129 489 205 665 22 50 38 93 36 95-2 3-11-11-20-31z"/>
<path d="m9605 22385c-4-25-5-48-2-51s9 15 12 41c4 25 5 48 2 51s-9-15-12-41z"/>
<path d="m9585 22255c-4-31-5-58-2-61s9 20 12 51c4 31 5 58 2 61s-9-20-12-51z"/>
<path d="m9574 22163c-14-30-18-626-5-733 24-194 33-256 42-285 11-37 4 32-18 180-18 123-28 623-15 755 5 52 8 96 7 98-2 2-6-5-11-15z"/>
<path d="m13040 21761c19-10 159-92 310-183 151-90 354-211 450-268s276-164 400-238 239-143 255-152c33-19 380-225 605-360 80-48 269-160 420-250s326-194 389-232c63-37 119-68 125-68s-106 70-248 155c-143 85-260 155-262 155-1 0-42 24-91 54-81 49-487 291-798 476-71 42-260 154-420 250-159 95-348 207-420 250-71 42-249 148-395 235-318 190-327 195-343 195-6 0 4-8 23-19z"/>
<path d="m9622 21085c0-16 3-39 8-50 8-18 9-18 8 5 0 14-4 36-8 50-8 24-8 24-8-5z"/>
<path d="m9641 20999c-1-14 25-119 59-244 12-46 64-190 99-280 62-154 231-483 231-447 0 7-12 31-26 53-42 67-139 266-189 387-55 136-95 255-140 422-18 69-34 118-34 109z"/>
<path d="m13020 13865c0-1926 4-2955 10-2945 6 9 10 372 10 985v970l3415 10-1710 3-1710 2 2 972 3 973 1715 3c943 1 1715 0 1715-3 0-5-107-139-200-250-19-23-78-95-130-160s-111-137-130-160-78-95-130-160-116-143-142-174-48-61-48-68c0-6 64-90 143-186 78-96 178-219 222-273 173-213 254-313 338-417 48-59 87-104 87-99 0 7-75 101-380 477-379 466-402 496-393 508 16 20 250 310 373 462 327 403 400 495 400 505 0 7-540 10-1720 10h-1720v973c0 610-4 978-10 987-6 10-10-1030-10-2945z"/>
<path d="m26020 13091c0-183 4-292 10-296 7-4 10 95 10 289 0 191-4 296-10 296s-10-103-10-289z"/>
<path d="m26027 12563c-3-5-7-111-11-238-7-247-17-397-42-650-126-1300-439-2549-934-3730-988-2359-2658-4371-4801-5784-130-86-259-169-285-185-27-17-100-61-163-99-1191-718-2504-1246-3856-1548-790-177-1601-284-2298-305-131-4-240-11-243-15-3-5 2795-9 6320-9h6326v6285c0 3457-2 6285-4 6285-3 0-7-3-9-7z"/>
<path d="m0 6211v-6211h6256c3483 0 6253 4 6250 9-3 4-90 11-193 14-197 7-322 14-386 22-21 3-71 8-110 11-67 5-262 25-422 44-198 23-390 52-680 101-107 19-148 26-260 49l-155 31c-25 5-63 13-85 18s-65 14-95 21-71 16-90 21c-19 4-55 13-80 18-25 6-99 24-165 42-66 17-136 34-155 39s-51 13-70 18c-19 6-62 18-95 26-55 15-165 47-225 66-14 4-59 18-100 30-113 35-492 160-515 170-11 5-40 16-65 24-43 14-113 39-155 56-11 4-58 23-105 40-47 18-104 41-127 51-24 11-49 19-56 19s-17 4-22 8c-6 5-48 24-95 42s-110 44-140 58c-30 13-68 30-85 37-16 7-52 23-80 35-27 13-69 31-92 41-171 73-685 330-893 446-208 115-292 164-445 256-71 44-144 88-161 97-18 10-73 46-124 79-50 34-93 61-96 61-8 0-262 174-510 349-330 233-763 584-1144 925-187 167-729 709-896 896-344 383-695 818-934 1156-148 209-218 312-378 559-72 111-227 363-283 463-30 51-57 99-81 140-11 20-39 71-61 112s-43 80-47 85c-24 30-317 616-380 760-12 28-37 82-56 122s-34 75-34 77c0 3-13 35-30 71s-30 68-30 70c0 3-10 27-21 53-38 84-47 105-94 227-49 125-93 242-127 335-11 30-24 64-29 75-14 33-192 576-210 643-16 59-42 148-59 207-31 108-129 495-159 630-12 55-26 118-31 140s-14 65-20 95c-7 30-16 73-20 95-5 22-14 69-20 105s-16 85-20 110c-31 157-99 612-120 805-6 55-15 138-20 185s-12 116-15 154-7 86-10 105c-8 61-15 188-22 379-3 100-10 185-14 188-5 3-9-2756-9-6205z"/>
<path d="m13020 7920v-2950h1730c1207 0 1730 3 1730 10 0 6-46 68-102 137-57 70-155 190-218 268s-171 211-239 296c-69 85-139 171-157 191s-40 48-49 62c-18 28-51-16 385 521 63 78 169 208 235 290 66 81 126 154 133 161 6 7 12 18 12 24s-44-44-99-112c-98-122-206-255-476-587-192-236-215-265-215-275 0-4 35-51 78-104 42-52 129-159 192-237s169-208 235-290c66-81 155-190 198-241 42-51 77-95 77-98s-772-5-1715-4l-1715 3-3 973-2 972 1710 2 1710 3-3415 10v975 975l3415 10-1710 3-1710 2 2 972 3 973 1715 3c943 1 1715 0 1715-3 0-5-107-139-200-250-19-23-78-95-130-160s-111-137-130-160-78-95-130-160-116-143-142-174-48-61-48-68c0-6 64-90 143-186 78-96 178-219 222-273 173-213 254-313 338-417 48-59 87-104 87-99 0 7-75 101-380 477-379 466-402 496-393 508 16 20 250 310 373 462 327 403 400 495 400 505 0 7-543 10-1730 10h-1730v-2950z"/>
</g>
<g transform="translate(0 1309.6) scale(.04 -.04)" fill="#a17a3a">
<path d="m26020 13091c0-183 4-292 10-296 7-4 10 95 10 289 0 191-4 296-10 296s-10-103-10-289z"/>
<path d="m26027 12563c-3-5-7-111-11-238-7-247-17-397-42-650-126-1300-439-2549-934-3730-988-2359-2658-4371-4801-5784-130-86-259-169-285-185-27-17-100-61-163-99-1191-718-2504-1246-3856-1548-790-177-1601-284-2298-305-131-4-240-11-243-15-3-5 2795-9 6320-9h6326v6285c0 3457-2 6285-4 6285-3 0-7-3-9-7z"/>
<path d="m0 6211v-6211h6256c3483 0 6253 4 6250 9-3 4-90 11-193 14-197 7-322 14-386 22-21 3-71 8-110 11-67 5-262 25-422 44-198 23-390 52-680 101-107 19-148 26-260 49l-155 31c-25 5-63 13-85 18s-65 14-95 21-71 16-90 21c-19 4-55 13-80 18-25 6-99 24-165 42-66 17-136 34-155 39s-51 13-70 18c-19 6-62 18-95 26-55 15-165 47-225 66-14 4-59 18-100 30-113 35-492 160-515 170-11 5-40 16-65 24-43 14-113 39-155 56-11 4-58 23-105 40-47 18-104 41-127 51-24 11-49 19-56 19s-17 4-22 8c-6 5-48 24-95 42s-110 44-140 58c-30 13-68 30-85 37-16 7-52 23-80 35-27 13-69 31-92 41-171 73-685 330-893 446-208 115-292 164-445 256-71 44-144 88-161 97-18 10-73 46-124 79-50 34-93 61-96 61-8 0-262 174-510 349-330 233-763 584-1144 925-187 167-729 709-896 896-344 383-695 818-934 1156-148 209-218 312-378 559-72 111-227 363-283 463-30 51-57 99-81 140-11 20-39 71-61 112s-43 80-47 85c-24 30-317 616-380 760-12 28-37 82-56 122s-34 75-34 77c0 3-13 35-30 71s-30 68-30 70c0 3-10 27-21 53-38 84-47 105-94 227-49 125-93 242-127 335-11 30-24 64-29 75-14 33-192 576-210 643-16 59-42 148-59 207-31 108-129 495-159 630-12 55-26 118-31 140s-14 65-20 95c-7 30-16 73-20 95-5 22-14 69-20 105s-16 85-20 110c-31 157-99 612-120 805-6 55-15 138-20 185s-12 116-15 154-7 86-10 105c-8 61-15 188-22 379-3 100-10 185-14 188-5 3-9-2756-9-6205z"/>
</g>
<g transform="translate(0 1309.6) scale(.04 -.04)" fill="#47704c">
<path d="m26020 13091c0-183 4-292 10-296 7-4 10 95 10 289 0 191-4 296-10 296s-10-103-10-289z"/>
<path d="m26027 12563c-3-5-7-111-11-238-7-247-17-397-42-650-126-1300-439-2549-934-3730-988-2359-2658-4371-4801-5784-130-86-259-169-285-185-27-17-100-61-163-99-1191-718-2504-1246-3856-1548-790-177-1601-284-2298-305-131-4-240-11-243-15-3-5 2795-9 6320-9h6326v6285c0 3457-2 6285-4 6285-3 0-7-3-9-7z"/>
<path d="m0 6211v-6211h6256c3483 0 6253 4 6250 9-3 4-90 11-193 14-197 7-322 14-386 22-21 3-71 8-110 11-67 5-262 25-422 44-198 23-390 52-680 101-107 19-148 26-260 49l-155 31c-25 5-63 13-85 18s-65 14-95 21-71 16-90 21c-19 4-55 13-80 18-25 6-99 24-165 42-66 17-136 34-155 39s-51 13-70 18c-19 6-62 18-95 26-55 15-165 47-225 66-14 4-59 18-100 30-113 35-492 160-515 170-11 5-40 16-65 24-43 14-113 39-155 56-11 4-58 23-105 40-47 18-104 41-127 51-24 11-49 19-56 19s-17 4-22 8c-6 5-48 24-95 42s-110 44-140 58c-30 13-68 30-85 37-16 7-52 23-80 35-27 13-69 31-92 41-171 73-685 330-893 446-208 115-292 164-445 256-71 44-144 88-161 97-18 10-73 46-124 79-50 34-93 61-96 61-8 0-262 174-510 349-330 233-763 584-1144 925-187 167-729 709-896 896-344 383-695 818-934 1156-148 209-218 312-378 559-72 111-227 363-283 463-30 51-57 99-81 140-11 20-39 71-61 112s-43 80-47 85c-24 30-317 616-380 760-12 28-37 82-56 122s-34 75-34 77c0 3-13 35-30 71s-30 68-30 70c0 3-10 27-21 53-38 84-47 105-94 227-49 125-93 242-127 335-11 30-24 64-29 75-14 33-192 576-210 643-16 59-42 148-59 207-31 108-129 495-159 630-12 55-26 118-31 140s-14 65-20 95c-7 30-16 73-20 95-5 22-14 69-20 105s-16 85-20 110c-31 157-99 612-120 805-6 55-15 138-20 185s-12 116-15 154-7 86-10 105c-8 61-15 188-22 379-3 100-10 185-14 188-5 3-9-2756-9-6205z"/>
</g>
</g>
</svg>
