<?xml version="1.0" encoding="UTF-8"?>
<svg version="1.0" viewBox="0 0 603 763" xmlns="http://www.w3.org/2000/svg" xmlns:cc="http://creativecommons.org/ns#" xmlns:dc="http://purl.org/dc/elements/1.1/" xmlns:rdf="http://www.w3.org/1999/02/22-rdf-syntax-ns#" xmlns:xlink="http://www.w3.org/1999/xlink">
<metadata>
<rdf:RDF>
<cc:Work rdf:about="">
<dc:format>image/svg+xml</dc:format>
<dc:type rdf:resource="http://purl.org/dc/dcmitype/StillImage"/>
<dc:date/>
<dc:creator>
<cc:Agent>
<dc:title/>
</cc:Agent>
</dc:creator>
<cc:license rdf:resource="http://creativecommons.org/licenses/GPL/2.0/"/>
<dc:coverage/>
<dc:description/>
<dc:subject>
<rdf:Bag/>
</dc:subject>
<dc:language/>
<dc:title/>
</cc:Work>
<cc:License rdf:about="http://creativecommons.org/licenses/GPL/2.0/">
<cc:permits rdf:resource="http://web.resource.org/cc/Reproduction"/>
<cc:permits rdf:resource="http://web.resource.org/cc/Distribution"/>
<cc:requires rdf:resource="http://web.resource.org/cc/Notice"/>
<cc:permits rdf:resource="http://web.resource.org/cc/DerivativeWorks"/>
<cc:requires rdf:resource="http://web.resource.org/cc/ShareAlike"/>
<cc:requires rdf:resource="http://web.resource.org/cc/SourceCode"/>
</cc:License>
</rdf:RDF>
</metadata>
<defs>
<radialGradient id="a" cx="858.04" cy="579.93" r="300" gradientTransform="matrix(1.215 1.5316e-24 1.4647e-23 1.2667 -839.19 -490.49)" gradientUnits="userSpaceOnUse">
<stop stop-color="#fff" stop-opacity=".31373" offset="0"/>
<stop stop-color="#fff" stop-opacity=".25098" offset=".19"/>
<stop stop-color="#6b6b6b" stop-opacity=".12549" offset=".6"/>
<stop stop-opacity=".12549" offset="1"/>
</radialGradient>
</defs>
<desc>Coat of Arms of Canton of Freiburg (Fribourg)</desc>
<g>
<path d="m1.5 1.5v458.87c0 166.31 134.31 301.13 300 301.13 165.69 0 300-134.82 300-301.13v-458.87h-600z" fill="#fff"/>
<g fill="#e20909" stroke="#000" stroke-linecap="round" stroke-linejoin="round" stroke-width="3">
<g transform="translate(196.09 -708.68)">
<path d="m17.91 1439.3 35.322-24.649c14.615-23.678 72.165-93.484 104.24-130.22l47.439-54.321-24.898-21.739-47.439 54.32c-32.079 36.733-93.5 103.16-115 120.83l-19.667 38.318z"/>
<path d="m209.99 1235.1c-2.3607 2.7031-6.3295 3.0735-8.8986 0.8305l-26.375-23.029c-2.5692-2.2432-2.7369-6.2252-0.37622-8.9284 5.1488-5.8957 8.3132-5.9023 24.346 8.096 16.033 13.999 16.453 17.135 11.304 23.03z"/>
<path d="m17.582 1383.5 35.649 31.126"/>
</g>
<g transform="translate(-37.376 -737.65)" fill-rule="evenodd">
<path d="m445.63 1449-176.59-204.29c-1.099-1.2714-3.2663-1.4068-4.7546-0.1441l-12.129 10.288c-1.4884 1.2626-1.7081 3.4228-0.63287 4.7143l172.78 207.53c2.4647 2.9602 8.6871-0.3295 14.14-4.9543 5.4525-4.6252 9.7127-10.228 7.1936-13.142z"/>
<path d="m324.98 1269.8c2.8953-3.4205 4.1356-7.6636 1.6014-10.651l-23.613-27.834c-2.5341-2.987-6.923-2.4552-10.77-0.1569-11.896 7.1076-21.578 14.081-31.009 22.08-9.4304 7.9995-17.89 16.415-26.842 26.992-2.8952 3.4205-4.1354 7.6637-1.6014 10.651l23.613 27.834c2.5341 2.987 6.9229 2.4554 10.77 0.157 11.896-7.1078 21.578-14.081 31.009-22.08 9.4305-7.9994 17.89-16.415 26.842-26.992z"/>
</g>
</g>
<rect x="1.5" y="-7.1054e-15" width="600" height="660" fill="none"/>
<path d="m433.92 235.23s-32.843 2.4717-66.102-21.099c10.119-8.1952 17.922-14.471 40.191-18.259-22.763-6.3597-40.544-1.2022-51.988 8.9151-23.293-23.622-45.222-39.748-55.88-45.758h29.742c40.156 0 60.232-31.033 60.232-57.041 0-26.01-20.99-53.388-57.684-53.388h-54.306-109.05v5.475s22.092 1.75 22.092 20.267v147.01c0 18.52-22.092 20.27-22.092 20.27v5.475h98.027v-5.475s-22.092-1.75-22.092-20.27v-62.322h13.501c6.657 0 23.584 7.8995 62.574 70.287-8.1202 7.9838-12.667 12.146-31.717 15.299 11.99 3.6169 27.99 5.3305 42.145-3.7262 30.86 26.712 86.896 5.7725 102.41-5.6595zm-188.91-88.982v-85.972h67.992c23.727 0 31.029 22.548 31.029 40.342 0 17.797-5.477 45.631-27.381 45.631-21.902-1e-3 -71.64-1e-3 -71.64-1e-3z" fill="#e20909" stroke="#000" stroke-linecap="round" stroke-linejoin="round" stroke-width="2.75"/>
<path d="m601.24 317.78c-11.048-5.4801-20.426-12.5-41.076-12.5-32.723 1e-5 -33.743 18.708-65.238 18.656-31.495-0.0513-33.037-18.916-65.144-18.656-32.096 0.25989-33.006 19.174-65.207 18.656-32.201-0.5182-34.144-18.693-65.238-18.656-31.094 0.0367-32.48 18.674-65.207 18.656-32.727-0.0174-32.642-18.273-65.207-18.656-33.086-0.38952-35.477 18.575-65.144 18.656-29.667 0.0811-34.336-18.539-65.238-18.656-18.394-0.0706-26.537 6.3268-36.777 11.875v133.78c10.239-5.5482 18.383-11.946 36.777-11.875 30.902 0.11679 35.571 18.737 65.238 18.656 29.667-0.0811 32.058-19.046 65.144-18.656 32.564 0.38343 32.48 18.639 65.207 18.656 32.726 0.0174 34.113-18.62 65.207-18.656 31.094-0.0367 33.037 18.138 65.238 18.656 32.201 0.5182 33.11-18.396 65.207-18.656 32.107-0.25993 33.649 18.605 65.144 18.656 31.495 0.0514 32.515-18.656 65.238-18.656 20.65 0 30.027 7.0199 41.076 12.5z" fill="#2b5df2" fill-rule="evenodd" stroke="#000" stroke-width="2.997"/>
<rect x="1.5" y="-7.1054e-15" width="600" height="660" fill="none"/>
<path d="m1.5 1.5v458.87c0 166.31 134.31 301.13 300 301.13 165.69 0 300-134.82 300-301.13v-458.87h-600z" fill="url(#a)"/>
<path d="m1.5 1.5v458.87c0 166.31 134.31 301.13 300 301.13 165.69 0 300-134.82 300-301.13v-458.87h-600z" fill="none" stroke="#000" stroke-width="3"/>
</g>
</svg>
