<?xml version="1.0" encoding="UTF-8"?>
<svg version="1.0" viewBox="0 0 603 763" xmlns="http://www.w3.org/2000/svg" xmlns:cc="http://web.resource.org/cc/" xmlns:dc="http://purl.org/dc/elements/1.1/" xmlns:rdf="http://www.w3.org/1999/02/22-rdf-syntax-ns#" xmlns:xlink="http://www.w3.org/1999/xlink">
<metadata>
<rdf:RDF>
<cc:Work rdf:about="">
<dc:format>image/svg+xml</dc:format>
<dc:type rdf:resource="http://purl.org/dc/dcmitype/StillImage"/>
<dc:date>07-AUG-2006</dc:date>
<dc:creator>
<cc:Agent>
<dc:title>Jérôme BLUM (wagner51)</dc:title>
</cc:Agent>
</dc:creator>
<cc:license rdf:resource="http://creativecommons.org/licenses/GPL/2.0/"/>
<dc:coverage/>
<dc:description>Gabarit pour le Projet:Blasons de WIkipédia</dc:description>
<dc:subject>
<rdf:Bag>
<rdf:li>blason suisse modèle gabarit projet blasons</rdf:li>
</rdf:Bag>
</dc:subject>
<dc:language>fr</dc:language>
<dc:title>Gabrit d'un blason suisse</dc:title>
</cc:Work>
<cc:License rdf:about="http://creativecommons.org/licenses/GPL/2.0/">
<cc:permits rdf:resource="http://web.resource.org/cc/Reproduction"/>
<cc:permits rdf:resource="http://web.resource.org/cc/Distribution"/>
<cc:requires rdf:resource="http://web.resource.org/cc/Notice"/>
<cc:permits rdf:resource="http://web.resource.org/cc/DerivativeWorks"/>
<cc:requires rdf:resource="http://web.resource.org/cc/ShareAlike"/>
<cc:requires rdf:resource="http://web.resource.org/cc/SourceCode"/>
</cc:License>
</rdf:RDF>
</metadata>
<defs>
<radialGradient id="a" cx="858.04" cy="579.93" r="300" gradientTransform="matrix(1.215 1.5316e-24 1.4647e-23 1.2667 -839.19 -490.49)" gradientUnits="userSpaceOnUse">
<stop stop-color="#fff" stop-opacity=".31373" offset="0"/>
<stop stop-color="#fff" stop-opacity=".25098" offset=".19"/>
<stop stop-color="#6b6b6b" stop-opacity=".12549" offset=".6"/>
<stop stop-opacity=".12549" offset="1"/>
</radialGradient>
</defs>
<desc>Coat of Arms of Canton of Freiburg (Fribourg)</desc>
<g>
<path d="m1.5 1.5v458.87c0 166.31 134.31 301.13 300 301.13 165.69 0 300-134.82 300-301.13v-458.87h-600z" fill="#e20909"/>
<g transform="matrix(4.024 0 0 4.024 -2504.9 -2266.2)" fill="#fcef3c" fill-rule="evenodd" stroke="#000" stroke-width="1px">
<path d="m690 658.56c0.26414-10.01 5.493-10.733 8.5142-19.814 1.9792 9.2493 8.0057 11.219 7.7714 20-7.3476 18.428-8.938 19.018-16.286-0.18572z"/>
<path d="m715.34 657.81 7.8994-16.742-4.8143-4.2571-8.0851 19.156c-5.1068 3.5129-8.3707 6.4228-11.814 14.071-3.4505-6.4779-6.7064-9.5126-10.9-13.329l-9.9423-18.613-5.357 3.9001 9.3563 17.67c-6.4276 39.406 41.349 39.893 33.657-1.8572z"/>
<path d="m718.13 676.89 15.514-28.814-4.8143-4.2571-14.028 30.671c-7.0418 3.7376-11.648 8.433-16.271 15.557-5.6791-7.0351-8.7493-13.413-15.914-16.486l-16.071-29.014-5.357 3.9001 17.342 29.185c-6.4276 39.406 44.692 41.936 39.6-0.74287z"/>
<path d="m721.1 696.7 24.243-41.071-4.8143-4.2571-23.686 42.185c-7.0418 3.7376-14.063 7.5044-18.686 14.629-4.2649-7.5654-12.092-12.113-19.257-15.186l-23.5-41.085-5.357 3.9001 26.071 41.814c-3.5751 34.49 45.105 38.914 44.986-0.92859z"/>
<path d="m698.89 740.21c27.286-0.20984 19.422-19.428 27.6-31.314l30.557-44.414-4.8143-4.2571-35.386 53.329c-7.0418 3.7376-14.063 7.5044-18.686 14.629-5.6791-7.0351-12.092-12.113-19.257-15.186l-35.757-53.714-5.357 3.9001 32.386 47.386c9.3962 13.748 1.6286 28.926 28.714 29.643z"/>
<path d="m707.03 748.93c-10.726-6.9765-4.3917-51.986-8.5053-79.886-5.0116 28.171 1.9825 72.908-10.009 79.886h18.514z"/>
</g>
<rect x="2.0832" y="2.0803" width="598.83" height="270.84" fill="#fcef3c" fill-rule="evenodd" stroke="#000" stroke-width="4.1606"/>
<path d="m272.5 2.1305c-10.316 38.953-37.841 51.002 0 126.99 23.35 46.888-38.958 73.22-20.118 143.75h85.817c-32.542-84.967 36.718-108.17 9.5416-158.83-28.394-52.934-13.826-70.336 5.2308-111.07l-80.471-0.83803z" fill="#2b5df2" fill-rule="evenodd" stroke="#000" stroke-width="4.2609px"/>
<path d="m445.85 2.1305c-10.316 38.953-37.841 51.002 0 126.99 23.35 46.888-38.958 73.22-20.118 143.75h85.817c-32.542-84.967 36.718-108.17 9.5416-158.83-28.394-52.934-13.826-70.336 5.2308-111.07l-80.471-0.83803z" fill="#2b5df2" fill-rule="evenodd" stroke="#000" stroke-width="4.2609px"/>
<path d="m96.156 2.1305c-10.316 38.953-37.841 51.002 0 126.99 23.35 46.888-38.958 73.22-20.118 143.75h85.817c-32.542-84.967 36.718-108.17 9.5417-158.83-28.394-52.934-13.826-70.336 5.2307-111.07l-80.471-0.83803z" fill="#2b5df2" fill-rule="evenodd" stroke="#000" stroke-width="4.2609px"/>
<path d="m1.5 1.5v458.87c0 166.31 134.31 301.13 300 301.13 165.69 0 300-134.82 300-301.13v-458.87h-600z" fill="url(#a)"/>
<path d="m1.5 1.5v458.87c0 166.31 134.31 301.13 300 301.13 165.69 0 300-134.82 300-301.13v-458.87h-600z" fill="none" stroke="#000" stroke-width="3"/>
</g>
</svg>
