<?xml version="1.0" encoding="UTF-8"?>
<svg version="1.0" viewBox="0 0 500 627.36" xmlns="http://www.w3.org/2000/svg" xmlns:cc="http://creativecommons.org/ns#" xmlns:dc="http://purl.org/dc/elements/1.1/" xmlns:rdf="http://www.w3.org/1999/02/22-rdf-syntax-ns#" xmlns:xlink="http://www.w3.org/1999/xlink">
<metadata>
<rdf:RDF>
<cc:Work rdf:about="">
<dc:format>image/svg+xml</dc:format>
<dc:type rdf:resource="http://purl.org/dc/dcmitype/StillImage"/>
</cc:Work>
</rdf:RDF>
</metadata>
<g transform="translate(730.07 -12.213)">
<g transform="matrix(.79602 0 0 .79602 -138.92 136.38)">
<path d="m-728.57-141.92v458.87c0 166.31 134.31 301.13 300 301.13 165.69 0 300-134.82 300-301.13v-458.87h-600z" fill="#fcef3c"/>
<rect x="-727.86" y="-139.72" width="598.59" height="348.59" fill-rule="evenodd" stroke="#000" stroke-width="1.4137px"/>
<path d="m-428.69 591.44c1.0213-14.002-33.146-11.875-30.037-39.022 5.0312 3.9273 10.122-0.32289 11.534-5.1994-2.433-2.9601-32.275 3.9994-33.521 16.923-18.277-19.051-15.033-30.034-6.9235-31.78 13.156-2.5922 40.97-3.654 41.991-13.354-41.976 14.05-40.369 2.4285-35.579-15.559 3.8597 9.5066 29.211 3.633 37.846-8.2391-26.492 8.8654-34.107 4.0039-28.7-11.653 5.1964 5.5703 16.911-2.2257 23.369-15.238 6.4729-13.012 6.2176-40.506-0.70587-44.074-3.7546-1.8382-34.332 35.341-24.87 47.706-9.5817 6.8559-21.026-0.22678-22.828-4.9396-3.5594 3.1794-14.763 17.076-19.359 17.169-12.09 27.467 34.257 30.756 3.4542 52.087 2.6883-7.8351-11.444-5.7536-7.1337-22.975-7.4642-3.5774-6.2326-12.437-10.062-14.32-3.0202 2.5726-7.781 10.595-9.7965 19.569-5.6244 8.2601-17.561 3.4753-17.472 11.777-13.074-5.6875-11.663-16.954-1.1249-21.095 9.0095-2.8235 15.263-8.4418 13.273-11.611-11.205 3.1614-26.485-4.0189-34.041-7.2224-13.605 9.6298-20.318-12.234-23.69-1.2931-5.1303-6.575 2.1356-11.593 6.2446-9.7725 3.5639-8.568 21.428-3.9679 20.794 1.1324 13.996 6.9565 23.393 4.121 32.208 7.0842-7.4251-7.8937-9.804-9.4511-19.141-16.843-19.273-9.0095-6.7853-16.702-15.567-18.755 2.8895-5.5178 5.749-1.4823 9.2889-1.1639 5.8527-4.1976 15.981 5.1032 14.503 14.874 6.8964 8.131 15.446 13.635 24.159 10.692 7.0737-2.3894 16.385-11.681 19.614-20.042-4.5956-0.89059-6.2777-5.1393-3.4242-11.378 5.752 5.8061 24.525-12.775 26.673-17.258-3.6495 1.3096-6.7583-0.0856-8.2601-3.6164 7.0286 0.88609 22.498-33.829 4.1-35.547-4.9861 14.769-7.2839 30.887-17.692 40.927-4.4605 4.7143-22.918 13.344-35.883 6.4894 12.41-1.7767 30.237-42.103 23.764-48.484-15.915 27.059-25.069 38.33-33.712 46.35-9.1297 8.4298-37.9 20.442-56.655-3.717 21.991 3.3086 61.493-33.542 69.052-57.163-31.561 27.999-62.142 53.126-89.564 55.525-13.419 1.2165-20.901-8.981-26.842-35.44 14.431 19.967 100.36-30.124 100.35-42.884-28.595 18.309-69.559 30.992-97.226 32.997-16.651 2.1521-29.304-9.6088-33.758-41.622 8.2271 25.985 107.37-3.1899 125.69-21.323-45.766 8.562-88.02 16.792-115.68 17.144-15.107-2.1266-22.586-31.222-18.27-46.108 8.7152 8.7978 16.546 13.111 41.302 13.111 13.06 0 79.722-4.2938 90.519-15.045-44.647 2.008-109.32 4.8239-126.67-10.041-14.086-12.07-5.7986-31.306-1.8893-51.856 8.0904 30.002 24.49 25.782 158.22 36.954-20.646-10.965-11.749-23.061 12.272-25.166-7.5843 36.369 40.294 41.93 33.761 75.455-20.62 9.343-16.28 27.569-3.5143 33.919 13.982 7.4611 28.009-4.5836 27.228-15.546 6.5931 3.3281 15.139-5.9338 13.667-12.917-6.0374-1.7346-8.7107-3.4888-9.2063-14.686 10.393 9.9647 16.1-19.715 7.1337-25.659-5.2715-1.658-22.798-4.1316-17.496-15.448 3.0938 3.0127 16.941 8.8984 19.719-2.5696-2.2077-1.6821-14.343-1.6851-23.354-0.84554-6.2477 0.54818-12.48 4.863-16.43 5.6845-5.9923 0.94466-10.693-9.3339-7.344-20.449 3.259 8.0664 11.549 8.0138 14.643 8.0769 7.1488 0.13967 17.782-0.9822 32.064 6.7778-0.67583-4.2187-20.05-18.349-29.496-13.61-0.28535-17.911 3.4843-20.808 23.188-10.705-0.58572-12.664 23.354-0.21776 35.098 4.5296 9.0861 3.8162 18.953 5.4021 23.248 2.1807 2.5231 13.53-5.3616 16.289-10.768 16.268 9.3565 16.193 8.8008 35.906 17.331 41.048-0.82601 5.1078-5.1513 7.0857-8.8608 4.0129-1.6821 5.2745 5.9923 22.116 18.172 16.639 4.4154 14.876-6.2476 19.09-12.751 15.245 3.0337 17.505 22.062 21.37 35.804 11.953 10.918-6.7778 14.823-24.216-3.6645-34.27-6.533-33.526 41.346-39.087 33.761-75.455 24.014 2.1056 32.92 14.201 12.27 25.166 133.72-11.172 150.12-6.952 158.22-36.954 3.9048 20.55 12.195 39.785-1.8923 51.856-17.346 14.865-82.016 12.049-126.67 10.041 10.798 10.752 77.465 15.045 90.516 15.045 24.765 0 32.59-4.3133 41.301-13.111 4.3253 14.886-3.1539 43.981-18.262 46.108-27.664-0.35143-69.911-8.5815-115.67-17.144 18.307 18.133 117.46 47.308 125.69 21.323-4.4605 32.013-17.121 43.774-33.761 41.622-27.664-2.005-68.634-14.688-97.229-32.997 0 12.76 85.92 62.85 100.35 42.884-5.9473 26.459-13.426 36.657-26.838 35.44-27.424-2.3984-58.001-27.526-89.57-55.525 7.5543 23.621 47.068 60.472 69.055 57.163-18.758 24.159-47.533 12.147-56.649 3.717-8.6506-8.0198-17.797-19.291-33.716-46.35-6.4729 6.3813 11.354 46.707 23.759 48.484-12.961 6.8544-31.418-1.7752-35.879-6.4894-10.408-10.04-12.706-26.158-17.692-40.927-18.398 1.7181-2.9286 36.433 4.1 35.547-1.5018 3.5308-4.6106 4.926-8.2601 3.6164 2.1476 4.483 20.921 23.064 26.673 17.258 2.8535 6.2386 1.1714 10.487-3.4242 11.378 3.229 8.3608 12.54 17.653 19.614 20.042 8.7107 2.9436 17.256-2.5606 24.15-10.692-1.4718-9.771 8.6506-19.072 14.508-14.874 3.5443-0.31839 6.3978-4.3538 9.2964 1.1639-8.7858 2.053 3.6945 9.7454-15.574 18.755-9.3414 7.392-11.714 8.9495-19.133 16.843 8.8158-2.9631 18.202-0.12765 32.199-7.0842-0.63077-5.1002 17.241-9.7004 20.8-1.1324 4.1-1.8202 11.369 3.1974 6.2476 9.7725-3.3791-10.941-10.092 10.923-23.699 1.2931-7.5543 3.2034-22.828 10.384-34.032 7.2224-1.9974 3.1689 4.2652 8.7873 13.261 11.611 10.543 4.1406 11.955 15.407-1.1114 21.095 0.07509-8.3022-11.85-3.5173-17.481-11.777-2.0125-8.9735-6.7733-16.996-9.792-19.569-3.8297 1.8833-2.5982 10.743-10.062 14.32 4.3103 17.222-9.822 15.14-7.1337 22.975-30.803-21.331 15.544-24.62 3.4542-52.087-4.5956-0.09312-15.799-13.99-19.359-17.169-1.8022 4.7128-13.246 11.795-22.828 4.9396 9.4616-12.365-21.116-49.544-24.87-47.706-6.9235 3.5684-7.1788 31.063-0.70586 44.074 6.4579 13.012 18.172 20.808 23.369 15.238 5.4066 15.657-2.2077 20.518-28.7 11.653 8.6356 11.872 33.987 17.746 37.846 8.2391 4.7909 17.988 6.3978 29.609-35.579 15.559 1.0212 9.7004 28.835 10.762 41.991 13.354 8.1099 1.7466 11.354 12.73-6.9235 31.78-1.2465-12.923-31.088-19.883-33.521-16.923 1.4117 4.8765 6.503 9.1267 11.534 5.1994 3.1088 27.147-31.058 25.021-30.277 39.393z" fill-rule="evenodd" stroke="#000" stroke-width="2.3644"/>
<path d="m-528.36 310.89c-10.053 3.6763-10.246 17.381-3.1189 22.762-14.781 9.3797-8.2352 31.089 8.8136 25.612 2.152 10.188 16.809 14.646 27.044 7.9826" fill="none" stroke="#fcef3c" stroke-linecap="round" stroke-linejoin="round" stroke-width="4.4717"/>
<path d="m-454.8 239.01c4.7723 0.43359 7.2897 1.3786 9.4652 2.8091 1.9027 1.4305 3.2494 3.743 6.5887 4.3026-7.8629-2.8424-6.5369-0.25201-10.332-0.28907-4.1991-2.7868-0.70445-6.5484-0.70445-6.5484" fill="none" stroke="#fcef3c" stroke-width="2.2358"/>
<path d="m-328.39 311.6c10.053 3.6763 10.246 17.381 3.1189 22.762 14.781 9.3797 8.2352 31.089-8.8136 25.612-2.152 10.188-16.809 14.646-27.044 7.9826" fill="none" stroke="#fcef3c" stroke-linecap="round" stroke-linejoin="round" stroke-width="4.4717"/>
<path d="m-426.54-96.824c-16.862-2.2582-35.685-13.257-35.823-3.4559-17.915-4.7331-32.429 4.2488-22.826 17.148 14.455-7.961 30.609 5.4533 29.13 11.462-21.091-13.13-26.007-5.4272-32.424-4.9883-2.6302-0.013606-8.1576 1.0639-11.768-4.4971-3.3542 11.114 3.8618 17.815 9.8485 16.87 3.955-0.82118 11.28-6.7724 14.624-7.4756 8.976-1.6514 17.569-1.5516 19.787 0.12931 1.8682 13.616-11.969 9.5206-18.278 7.5822-4.5996 9.5251 14.372 9.1361 16.406 11.152-1.0981 4.2919-0.84603 10.346-9.113 15.71 2.1997 2.2662 7.0652 4.1841 11.869 0.44914-1.0256 12.028-9.4893 21.158-18.561 23.442 6.7302 10.155 14.731 5.8264 18.734 3.0726-2.6762 15.961-8.9265 22.355-18.077 26.749-6.9547 2.9376-18.481 3.6363-20.049-7.6582-26.465 19.907-62.492-30.89-9.555-40.1 12.01-40.153-31.901-25.862-24.31-62.231-38.192-4.5062-43.31 20.815-12.273 25.167-100.67-4.5595-149.18 0.60454-161.05-14.282-8.633 6.38-7.4727 26.56 0 32.962 17.345 14.864 66.905 6.38 114.39 5.3172 4.3165 11.697-61.401 18.825-74.461 18.825-24.756 0-33.53 1.3543-42.246-7.4438-4.3165 14.887-1.5608 28.868 13.547 30.995 24.821 5.316 60.465-1.969 95.84-6.7531 6.2399 14.355-91.958 30.304-104.91 17.544-2.1582 24.457 4.6929 34.109 25.257 33.121 23.678-1.1388 61.073-11.855 85.891-23.551 0 12.76-90.646 55.293-107.91 37.216-5.3939 17.013 5.9464 29.112 25.899 29.773 21.696 0.71908 63.67-26.583 97.121-48.913 7.5556 8.5066-78.923 66.038-88.633 61.785-1.0808 13.823 15.57 24.104 40.074 7.0741 21.365-14.606 38.845-26.326 67.983-57.162 6.4747 6.3799-16.185 37.216-32.374 44.66-2.1548 10.633 10.812 10.276 17.266 9.5694 22.681-2.4828 32.374-30.836 34.532-44.66 29.135-9.5693 29.286 43.143-18.195 55.903 10.974 9.4015-11.019 10.525-21.113 13.214-14.652 4.3452-22.957 5.6212-38.389 5.3161-8.481-8.3489-27.501-3.7792-27.308 1.8431-9.586 0.74745-13.868 7.7376-7.5107 11.833 9.8485-11.107 12.3 10.812 34.062-3.6533 14.673 1.3463 40.882-5.6336 50.085-8.054 2.5657 0.9482-33.151 16.233-47.502 22.793-21.064-4.3894-15.097 4.5266-27.553 4.5584-5.8877-0.04311-8.1737 7.4654-2.3309 11.55 7.9941-10.939 10.795 11.991 33.292-5.4646 7.5556-1.0628 23.903-8.8219 40.088-20.519 1.989 3.169-12.801 16.256-23.589 22.635-6.6267 6.6306-2.3447 19.32 4.3268 17.182-0.80112-12.214 10.781 8.9308 21.741-22.804 6.637-11.107 11.399-14.15 17.266-18.856 3.833-0.25066 8.633 6.1179 15.405 7.9179 1.3778 20.066 19.783 8.3807 24.203 16.572 12.663-34.49-49.332-12.171-22.663-46.04 4.5928-0.09299-4.5996 8.6325 9.106 11.697 0.89438-8.1255 4.9139-20.204 8.4707-23.383 7.5556-10.633-2.4794 9.4934 9.403 12.612 6.2572-57.25 64.032-67.737 57.192-30.7-1.2811 7.2442-14.793 9.254-19.424 4.2533-14.818 18.551 4.3199 18.992 9.7138 19.14 0.57669 9.5705-43.969 7.0015-23.271 35.09 6.8856-14.243 25.45-4.7285 34.062-21.266-12.808 36.163 10.322 33.721 14.853 49.782 4.5317-18.302 27.661-15.859 14.853-52.023 8.6122 16.539 27.177 7.0242 34.062 21.266 20.698-28.088-23.848-25.52-23.271-35.089 5.3939-0.14745 24.531-0.58866 9.7138-19.14-4.6307 5.0007-18.143 2.9909-19.424-4.2533-6.8408-37.039 50.934-26.551 57.192 30.7 11.882-3.1191 1.8475-23.246 9.403-12.612 3.5568 3.1792 7.5763 15.257 8.4707 23.382 13.706-3.0635 4.5133-11.789 9.106-11.696 26.669 33.868-35.326 11.55-22.663 46.039 4.4201-8.1902 22.826 3.4956 24.203-16.571 6.7717-1.8 11.572-8.1686 15.405-7.9179 5.867 4.7058 10.629 7.7489 17.266 18.856 10.96 31.734 22.542 10.59 21.741 22.804 6.6716 2.138 10.953-10.552 4.3268-17.182-10.788-6.3799-25.578-19.468-23.589-22.635 16.185 11.696 32.532 19.456 40.088 20.519 22.498 17.456 25.298-5.4748 33.292 5.4646 5.8428-4.0843 3.5568-11.594-2.3309-11.55-12.456-0.03289-6.4886-8.9489-27.553-4.5584-14.351-6.5603-50.068-21.845-47.502-22.794 9.2027 2.4215 35.412 9.4015 50.085 8.054 21.762 14.467 24.214-7.454 34.062 3.6533 6.3574-4.0945 2.0754-11.085-7.5106-11.832 0.19329-5.6223-18.827-10.192-27.308-1.8431-15.432 0.3051-23.737-0.97089-38.389-5.3172-10.094-2.687-32.087-3.811-21.113-13.212-47.481-12.76-47.329-65.474-18.195-55.903 2.1582 13.823 11.851 42.177 34.532 44.66 6.454 0.70661 19.421 1.0628 17.266-9.5705-16.189-7.4427-38.848-38.28-32.374-44.66 29.138 30.837 46.618 42.556 67.983 57.162 24.504 17.031 41.155 6.7497 40.074-7.0729-9.7103 4.2533-96.188-53.278-88.633-61.785 33.451 22.329 75.424 49.632 97.121 48.913 19.953-0.66124 31.293-12.76 25.899-29.773-17.266 18.076-107.91-24.457-107.91-37.217 24.818 11.697 62.213 22.413 85.891 23.552 20.564 0.9879 27.415-8.6654 25.257-33.121-12.949 12.76-111.15-3.1905-104.13-17.545 36.15 4.7852 70.244 12.07 95.065 6.7531 15.108-2.1267 17.863-16.108 13.547-30.993-8.7158 8.7981-17.49 7.4427-42.246 7.4427-13.06 0-78.778-7.1274-74.461-18.823 47.481 1.0628 97.041 9.5467 114.39-5.3172 7.4727-6.4038 8.6329-26.583 0-32.962-11.869 14.887-55.037 8.5066-153.24 10.633 30.215-6.3799 8.6364-27.646-20.502-22.33 21.582 23.393-42.084 21.266-22.663 60.61 49.643 14.887 14.027 56.356-10.791 42.533-1.5678 11.293-12.469 5.0631-19.424 2.1267-9.1509-4.3951-23.513-16.935-28.057-25.52 4.0022 2.7539 12.003 5.2378 11.872 0-5.9533-2.899-7.5556-9.5705-12.949-19.14 9.7932 8.6518 14.381-2.4851 11.869-1.0639-13.878-13.968-1.0774-20.203-14.027-47.849 6.4747-2.1266 11.872-12.76 8.633-20.204-5.7323 7.2952-14.734 8.9353-20.38 8.1981z" fill="#fcef3c" fill-rule="evenodd" stroke="#fcef3c" stroke-width="1.7988"/>
<path d="m-305.99-36.938c12.898 3.6763 13.091 13.112 7.387 20.627 7.6674 7.9566 1.1216 23.262-11.659 20.631 4.9615 13.745 2.3975 26.027-14.951 22.921" fill="none" stroke="#000" stroke-linecap="round" stroke-linejoin="round" stroke-width="3.5773pt"/>
<path d="m-550.36-34.572c-12.898 3.6763-13.091 13.112-7.387 20.627-7.6674 7.9566-1.1216 23.262 11.659 20.631-4.9615 13.745-2.3976 26.027 14.951 22.921" fill="none" stroke="#000" stroke-linecap="round" stroke-linejoin="round" stroke-width="4.4717"/>
<path d="m-460.24-95.394c4.7723 0.43359 5.9326 1.9197 8.1081 3.3502 1.9027 1.4305 3.5222 2.1161 6.8615 2.6757-6.7786-1.7566-6.8097 1.3749-10.605 1.3378-4.1991-2.7869-1.2466-7.3637-1.2466-7.3637" fill="#000200" fill-rule="evenodd" stroke="#000" stroke-width="2.2358"/>
<path d="m-728.57-141.92v458.87c0 166.31 134.31 301.13 300 301.13 165.69 0 300-134.82 300-301.13v-458.87h-600z" fill="none" stroke="#000" stroke-width="3"/>
</g>
</g>
</svg>
