<?xml version="1.0" encoding="UTF-8" standalone="no"?>
<!-- Created with Inkscape (http://www.inkscape.org/) -->

<svg
   xmlns:dc="http://purl.org/dc/elements/1.1/"
   xmlns:cc="http://creativecommons.org/ns#"
   xmlns:rdf="http://www.w3.org/1999/02/22-rdf-syntax-ns#"
   xmlns:svg="http://www.w3.org/2000/svg"
   xmlns="http://www.w3.org/2000/svg"
   xmlns:xlink="http://www.w3.org/1999/xlink"
   version="1.0"
   width="603"
   height="763"
   id="svg20">
  <title
     id="title3023">Lavey-Morcles</title>
  <desc
     id="desc22">Coat of Arms of Canton of Freiburg (Fribourg)</desc>
  <metadata
     id="metadata31">
    <rdf:RDF>
      <cc:Work
         rdf:about="">
        <dc:format>image/svg+xml</dc:format>
        <dc:type
           rdf:resource="http://purl.org/dc/dcmitype/StillImage" />
        <dc:date />
        <dc:creator>
          <cc:Agent>
            <dc:title />
          </cc:Agent>
        </dc:creator>
        <cc:license
           rdf:resource="" />
        <dc:coverage />
        <dc:description />
        <dc:subject>
          <rdf:Bag />
        </dc:subject>
        <dc:language />
        <dc:title>Lavey-Morcles</dc:title>
      </cc:Work>
      <cc:License
         rdf:about="http://creativecommons.org/licenses/GPL/2.0/">
        <cc:permits
           rdf:resource="http://web.resource.org/cc/Reproduction" />
        <cc:permits
           rdf:resource="http://web.resource.org/cc/Distribution" />
        <cc:requires
           rdf:resource="http://web.resource.org/cc/Notice" />
        <cc:permits
           rdf:resource="http://web.resource.org/cc/DerivativeWorks" />
        <cc:requires
           rdf:resource="http://web.resource.org/cc/ShareAlike" />
        <cc:requires
           rdf:resource="http://web.resource.org/cc/SourceCode" />
      </cc:License>
    </rdf:RDF>
  </metadata>
  <defs
     id="defs29">
    <linearGradient
       id="linearGradient2893">
      <stop
         id="stop2895"
         style="stop-color:#ffffff;stop-opacity:0.31372601"
         offset="0" />
      <stop
         id="stop2897"
         style="stop-color:#ffffff;stop-opacity:0.25097999"
         offset="0.19" />
      <stop
         id="stop2901"
         style="stop-color:#6b6b6b;stop-opacity:0.12548999"
         offset="0.60000002" />
      <stop
         id="stop2899"
         style="stop-color:#000000;stop-opacity:0.12548999"
         offset="1" />
    </linearGradient>
    <radialGradient
       cx="858.04236"
       cy="579.93323"
       r="300"
       fx="858.04236"
       fy="579.93323"
       id="radialGradient3236"
       xlink:href="#linearGradient2893"
       gradientUnits="userSpaceOnUse"
       gradientTransform="matrix(1.21503,0,0,1.26667,-839.192,-490.489)" />
  </defs>
  <g
     id="layer1"
     style="display:inline">
    <path
       d="m 1.5,1.49998 0,458.86792 C 1.5,626.6785 135.81456,761.5 301.49999,761.5 467.18543,761.5 601.5,626.6785 601.5,460.3679 l 0,-458.86792 -600,0 z"
       id="path1899"
       style="fill:#5ab532;fill-opacity:1" />
  </g>
  <g
     id="layer2"
     style="display:inline">
    <g
       transform="matrix(1.1843442,0,0,1.1843442,-70.241158,-51.179292)"
       id="g3851">
      <path
         d="m 144.97138,153.80214 c 16.16175,-6.78281 30.08188,2.68613 43.95085,12.52601 l -10.98771,4.83459 c -1.56322,-8.06174 -14.45054,-13.39008 -32.96314,-17.3606 z"
         id="path3367"
         style="fill:#e20909;fill-opacity:1;fill-rule:evenodd;stroke:#000000;stroke-width:2.28299999;stroke-linecap:butt;stroke-linejoin:miter;stroke-miterlimit:4;stroke-opacity:1;stroke-dasharray:none" />
      <path
         d="m 234.63114,444.09761 -1.97779,34.06192 -18.89888,48.5657 c -4.91998,2.50854 -6.87774,7.78179 -19.99765,2.63706 -2.69701,-6.54595 -7.57535,-8.72925 -13.18526,-9.44943 -10.69599,0.96702 -14.87929,3.84733 -16.65902,7.2342 l 4.32858,4.23313 c 3.4509,-0.68453 6.59099,-2.58926 10.04189,-2.56405 4.10266,1.04755 5.91997,-0.33305 13.71579,8.0178 -10.22428,-1.08959 -20.59545,-2.31787 -29.75064,0.76694 -1.34537,0.45332 -2.91445,2.15185 -4.24692,2.54499 l 1.24312,8.29277 c 9.65199,-7.07354 20.92685,-2.5841 29.99324,-0.27954 -11.03418,4.31317 -17.34705,10.21054 -20.97226,16.80339 l 8.57042,4.39509 c 8.67421,-12.69313 23.55916,-15.83128 39.77553,-16.92109 8.07461,-2.60314 18.42113,-0.66244 28.12855,0 l 5.05435,-7.25189 c -0.25544,-6.89922 -14.94477,-3.60982 -24.17299,-4.17533 -2.27212,-5.78685 3.0342,-11.57373 6.18437,-17.36059 22.71756,3.38771 13.16357,0.39338 14.62715,-6.26623 -2.9515,0.0533 -5.92953,-0.0914 -8.72502,-2.3042 6.95511,-21.07619 19.07221,-38.97578 33.62241,-55.37809 l -23.95322,-19.33837 -12.74575,3.73582 z"
         id="path3343"
         style="fill:#e20909;fill-opacity:1;fill-rule:evenodd;stroke:#000000;stroke-width:2.28299999;stroke-linecap:butt;stroke-linejoin:miter;stroke-miterlimit:4;stroke-opacity:1;stroke-dasharray:none" />
      <path
         d="m 195.81075,405.84577 c 1.95942,8.90901 0.16536,17.81803 8.08027,26.72704 5.68424,11.99849 14.02879,17.34619 22.99769,21.13302 l -0.62156,14.91741 c 2.92732,-2.69342 4.03255,-5.38684 9.94495,-8.08026 l 6.83715,10.56649 13.67431,4.97248 6.83713,-8.70183 -7.4587,-18.02521 11.18806,16.16053 c 4.40293,-9.32338 -3.14503,-18.64677 -6.21558,-27.97015"
         id="path3327"
         style="fill:#ffffff;fill-opacity:1;fill-rule:evenodd;stroke:#000000;stroke-width:2.28299999;stroke-linecap:butt;stroke-linejoin:miter;stroke-miterlimit:4;stroke-opacity:1;stroke-dasharray:none" />
      <path
         d="m 271.54987,303.67459 c 33.10288,2.07117 74.08003,14.85129 79.55107,-20.6569 l 11.42722,1.31853 c -10.71342,-33.25616 -15.02204,-66.51231 2.19753,-99.76847 28.34775,-38.03648 65.85312,-32.31989 104.60308,-20.65691 41.16478,23.96098 55.8506,49.74808 63.28924,76.03499 -19.97578,-27.15763 -112.52543,-112.19982 -151.19098,-25.931 40.97466,-73.94675 126.03118,-12.64317 123.06243,18.01985 -19.95843,-26.92013 -58.4202,-38.71748 -76.47451,-32.52363 20.92432,-8.80896 54.86954,11.84686 67.70553,33.82029 9.06844,15.52392 23.60334,29.70675 47.44574,35.18256 -11.34751,18.63881 -41.47575,2.2602 -64.01684,-23.47888 -19.83971,-22.65442 -48.63279,-34.76645 -70.37989,-25.27534 27.64683,-8.62064 57.1996,4.94729 72.06996,30.59244 9.59517,16.54764 24.1583,36.75139 45.62543,52.44346 -7.57656,7.96954 -38.62729,-10.31722 -69.29356,-48.67255 -15.04367,-18.81565 -45.59604,-13.27602 -68.27264,1.64512 74.72371,-38.96763 76.19584,29.52216 112.95372,56.2571 -8.51945,2.85953 -17.41466,3.9326 -33.4914,-19.68859 -22.62979,-33.24942 -55.46652,-40.25393 -78.1438,-9.75848 23.64773,-23.33579 46.69657,-26.79482 70.32296,-0.90259 8.78119,9.62335 7.33583,28.87972 28.12698,42.2164 -9.39216,3.87889 -20.72796,-1.27297 -38.27108,-27.19236 -12.35867,-18.25953 -38.0682,-15.1894 -57.1023,3.45889 38.4077,-29.60259 56.41978,-5.53257 72.95845,22.41495 -24.11542,-18.05095 -47.81524,-23.6337 -70.7609,-6.59263 30.82295,-19.46759 50.92945,-4.83734 69.00286,16.26182 -24.81604,-12.51278 -47.55502,-14.10751 -67.68434,3.95558 34.28566,-16.29398 67.61619,-8.74248 71.63991,30.3261 -16.59425,-28.8745 -45.49294,-16.22154 -70.76089,-15.82232 22.42126,-0.0823 45.48194,-1.08383 49.66447,25.05199 -16.55483,-9.22431 -33.10965,-7.05473 -49.66447,-4.83459 33.16847,2.48626 54.4996,4.71803 55.37808,26.37052 -14.48742,-7.74843 -34.73587,-10.88806 -54.93858,-14.06428 23.44548,3.79511 47.14648,7.45263 40.87431,27.24954 -16.15359,-11.22927 -33.72347,-9.71198 -50.983,-10.98771 13.30716,3.64653 31.44357,0.85405 31.64463,21.97542 -10.98772,-7.00182 -21.97543,-10.63062 -32.96316,-12.74575 8.07595,8.26838 18.2865,6.93107 24.17298,25.052 L 373.95538,420.5839 271.54987,303.67459 z"
         id="path3363"
         style="fill:#ffffff;fill-opacity:1;fill-rule:evenodd;stroke:#000000;stroke-width:2.28299999;stroke-linecap:butt;stroke-linejoin:miter;stroke-miterlimit:4;stroke-opacity:1;stroke-dasharray:none" />
      <path
         d="m 335.27861,477.50027 12.96551,13.18527 c -3.86525,17.94659 -4.92441,35.89319 -3.51606,53.83981 3.43037,0.76238 7.03869,0.45703 10.76863,-0.57794 l 2.32788,6.54957 c -3.69139,2.56589 -8.15621,4.35836 -13.97553,4.79632 0.45759,3.73583 0.0373,7.47164 4.39508,11.20747 9.6692,3.63945 14.50379,-1.89889 21.75568,5.27411 l -2.85681,7.03213 c -5.93336,-0.93684 -11.86673,-1.38828 -17.80009,0 l -10.54821,7.91116 -7.91116,0 c -4.7061,9.14915 -16.86029,10.0394 -16.70133,20.87667 l -8.1309,1.75803 -7.69141,-5.27411 c 12.04539,-5.17618 13.63567,-18.44983 25.93101,-23.95322 -9.31029,5.09114 -18.43883,9.27352 -26.59027,8.57042 -3.64243,4.10163 -3.23494,10.56569 -13.18526,10.98771 l -5.93337,-8.13091 14.9433,-12.74575 22.85445,-5.49385 -8.35067,-4.39509 c -5.17763,4.00333 -10.81558,2.42157 -13.18527,5.27411 l -2.63704,-7.91115 c 0.77091,-4.97606 9.46192,-5.55205 14.9433,-7.91118 6.51051,2.73452 12.73451,8.62079 19.77788,5.49387 0.40229,-17.35458 2.56837,-34.4152 -0.21976,-52.30153 -0.90774,-1.24976 -1.7728,-2.49953 -2.59409,-3.74929 -1.2968,-1.97331 -2.48451,-3.94661 -3.55902,-5.91991 l -2.19755,-18.89887 16.92108,-5.49385 z"
         id="path3353"
         style="fill:#e20909;fill-opacity:1;fill-rule:evenodd;stroke:#000000;stroke-width:2.28299999;stroke-linecap:butt;stroke-linejoin:miter;stroke-miterlimit:4;stroke-opacity:1;stroke-dasharray:none" />
      <path
         d="m 179.8056,128.16424 -5.74941,-5.59403 c -0.0439,-17.66657 9.57327,-19.96322 18.33599,-23.619242 -4.45169,6.476462 -1.78002,8.373622 -0.77695,11.343462 19.01152,-22.268574 27.156,-12.660444 37.91511,-10.721907 -7.12352,1.053507 -13.62504,2.884497 -13.82969,12.586567 11.46139,-0.002 19.55734,-7.15532 28.9025,-11.65422 -1.95091,3.26897 -4.58044,6.31173 -4.04014,10.4111 12.55158,0.56348 20.35583,-4.41161 29.67946,-7.61409 -5.56523,8.47509 -13.50282,16.00123 -27.81478,20.97761 24.66846,-8.9288 38.73436,-6.19479 45.83999,4.19553 -20.17827,-0.29831 -22.45463,15.71157 -53.76486,16.93749 L 179.8056,128.16424 z"
         id="path3339"
         style="fill:#e20909;fill-opacity:1;fill-rule:evenodd;stroke:#000000;stroke-width:2.28299999;stroke-linecap:butt;stroke-linejoin:miter;stroke-miterlimit:4;stroke-opacity:1;stroke-dasharray:none" />
      <path
         d="m 309.78712,309.82772 c 33.84568,2.4275 35.43774,-18.06204 49.22496,-29.8866 -7.15253,13.97692 4.17429,24.81583 -30.76561,43.51136 18.11555,-5.23516 31.99133,-31.66917 47.46695,-50.10399 -8.73485,19.79492 -8.01528,42.4989 -37.79774,55.81761 19.79549,-8.96009 31.77793,-23.77999 44.82988,-37.79774 -1.33691,19.98625 -12.08185,35.64482 -42.63235,42.19282 18.30492,-2.77709 36.59317,-5.64303 53.18055,-17.58034 -2.13597,15.51384 -20.58432,24.03666 -51.4225,27.24954 18.93312,-0.39945 37.89321,-0.42159 56.25709,-8.79017 -7.2428,15.92602 -37.5155,16.49882 -65.04727,18.89886 21.68243,-0.80998 43.36484,1.53427 65.04727,-5.7136 -5.55524,10.74908 -29.26239,13.02726 -51.86201,15.8223 16.78148,-0.62192 33.38388,-0.94537 51.86201,-4.39508 -11.95744,8.40644 -28.55534,12.17246 -45.70889,15.3828 14.94329,0.0964 29.88659,0.373 44.82988,-3.51607 -6.99938,5.58075 -17.61323,9.65549 -31.64462,12.30624 12.74576,-1.61152 24.31948,-1.46503 34.72118,0.43951 -6.24343,2.53398 -11.36483,5.3084 -25.4915,6.15312 7.75489,0.74229 15.37601,1.61833 21.97543,3.51606 -5.60875,4.68542 -10.8961,9.54226 -25.052,9.66921 l -35.16069,-16.26183 -26.81002,-76.91401 z"
         id="path3182"
         style="fill:#ffffff;fill-opacity:1;fill-rule:evenodd;stroke:#000000;stroke-width:2.28299999;stroke-linecap:butt;stroke-linejoin:miter;stroke-miterlimit:4;stroke-opacity:1;stroke-dasharray:none" />
      <path
         d="m 180.27177,129.25197 c 10.74009,-4.64212 24.32385,-0.74665 38.31692,2.74369 19.18273,11.83856 28.11491,24.04971 35.61092,37.36896 l -3.58501,0.10018 c 5.89184,12.224 8.6763,27.7443 7.97363,39.9683 -5.17966,24.49997 -10.35932,29.0728 -15.53898,37.91511 -2.11331,5.80121 -4.90628,11.60243 -0.62156,17.40364 12.95838,14.22101 31.33908,14.88617 47.23849,21.75458 l 16.78209,11.80961 -12.43117,0 c 8.65715,4.21688 16.55491,6.15566 26.72704,14.91742 l -29.21328,-5.59402 c 21.1241,5.76011 43.07553,11.06062 49.72473,24.86236 l -47.86005,-15.53898 c 24.23371,10.67601 52.12466,18.30432 67.12837,36.67199 L 282.20747,329.394 c 35.90807,13.46712 77.68252,26.93423 85.1536,40.40134 L 290.9093,347.41922 c 44.08817,14.79104 80.44705,30.39569 93.23387,48.4816 l -98.20634,-33.56419 c 48.16758,14.67193 97.66973,28.52829 116.85311,60.91279 L 292.77398,378.49717 c 78.58674,28.54899 106.75517,48.89036 114.36687,65.88527 L 294.0171,398.38707 c 40.89298,21.01243 97.8937,31.28638 111.88063,70.23617 l -68.99305,-34.18575 c 4.52787,5.38685 12.02875,10.77368 5.59403,16.16055 -1.73739,7.17514 7.0614,8.02857 13.05274,10.5665 -11.60244,6.04148 -23.20488,-1.49914 -34.80731,-18.64678 l 27.34859,31.07796 c -7.66589,2.98453 -15.33178,-4.64146 -22.99768,-13.05274 l 24.86236,29.21327 -9.32338,6.21559 -21.75458,4.97248 -8.08026,-20.51146 c -11.56051,-9.26131 -20.69932,-18.92623 -22.37613,-29.83482 l -49.72473,-14.91743 c -17.89665,-13.86025 -33.30901,-15.29905 -49.72472,-21.75456 -21.31841,-15.12462 -21.47062,-30.24922 -27.3486,-45.37382 -31.96316,-25.71687 -32.9328,-43.27755 -34.18575,-60.91279 3.43469,-19.47553 12.7333,-38.95104 26.10548,-58.42657 15.03726,-14.34577 24.5348,-31.85709 27.97016,-52.83251 l -6.83714,-15.53899 c 1.80122,-6.11212 -4.04684,-18.25102 8.48965,-14.1929 -14.43768,-15.47867 -7.01338,-25.60549 -2.89564,-40.50429"
         id="path2338"
         style="fill:#ffffff;fill-opacity:1;fill-rule:evenodd;stroke:#000000;stroke-width:2.28299999;stroke-linecap:butt;stroke-linejoin:miter;stroke-miterlimit:4;stroke-opacity:1;stroke-dasharray:none" />
      <path
         d="m 162.77147,248.51625 c 10.03415,0.95054 16.97774,-2.21966 18.23962,-12.9655"
         id="path3331"
         style="fill:none;stroke:#000000;stroke-width:2.28299999;stroke-linecap:butt;stroke-linejoin:miter;stroke-miterlimit:4;stroke-opacity:1;stroke-dasharray:none" />
      <path
         d="m 197.93213,140.28712 c 0,3.82306 -3.19759,6.92226 -7.14202,6.92226 -3.94442,0 -7.14201,-3.0992 -7.14201,-6.92226 0,-3.82306 3.19759,-6.92226 7.14201,-6.92226 3.94443,0 7.14202,3.0992 7.14202,6.92226 z"
         id="path3333"
         style="fill:none;stroke:#000000;stroke-width:2.28299999;stroke-miterlimit:4;stroke-opacity:1;stroke-dasharray:none" />
      <path
         d="m 175.45471,183.01683 c -4.88022,13.13384 -9.40498,23.11414 -29.48638,29.17558 -8.99065,7.03387 -8.19837,15.69519 -6.61739,23.98335 5.61011,6.27671 8.86468,5.57614 13.46559,5.12786 -1.68892,-5.94748 0.21851,-9.79594 2.69496,-16.95311 6.94654,-5.43897 7.35664,-7.25704 11.70755,-9.94495 6.79959,-8.28496 8.88508,-16.64386 11.18807,-25.48391 -6.34037,34.31892 -30.26516,26.50458 -25.37082,54.73489 l 6.10248,8.04258 c 17.08806,6.68192 28.13046,-4.83089 28.29656,-8.73954 0.23562,-28.61172 2.68156,-35.32753 9.32338,-40.40133"
         id="path3329"
         style="fill:#e20909;fill-opacity:1;fill-rule:evenodd;stroke:#000000;stroke-width:2.28299999;stroke-linecap:butt;stroke-linejoin:miter;stroke-miterlimit:4;stroke-opacity:1;stroke-dasharray:none" />
      <path
         d="m 192.84382,139.74765 c 0,1.70078 -1.43669,3.07954 -3.20894,3.07954 -1.77224,0 -3.20893,-1.37876 -3.20893,-3.07954 0,-1.70078 1.43669,-3.07954 3.20893,-3.07954 1.77225,0 3.20894,1.37876 3.20894,3.07954 z"
         id="path3337"
         style="fill:none;stroke:#000000;stroke-width:2.28299999;stroke-miterlimit:4;stroke-opacity:1;stroke-dasharray:none" />
      <path
         d="m 158.20643,540.41332 c -5.86793,2.1985 -8.90357,6.1672 -11.49884,10.41111 3.77086,-0.89059 6.24505,-4.7549 11.80962,-1.86468 3.07884,-3.16787 3.23818,-4.96432 -0.31078,-8.54643 z"
         id="path3345"
         style="fill:#e20909;fill-opacity:1;fill-rule:evenodd;stroke:#000000;stroke-width:2.28299999;stroke-linecap:butt;stroke-linejoin:miter;stroke-miterlimit:4;stroke-opacity:1;stroke-dasharray:none" />
      <path
         d="m 164.57741,526.42824 c 2.96127,0.27411 4.79467,1.55079 4.04013,5.12787 -3.05598,-0.0409 -6.112,1.92935 -9.16799,4.35091 0.83438,-3.33458 2.23171,-6.55656 5.12786,-9.47878 z"
         id="path3349"
         style="fill:#e20909;fill-opacity:1;fill-rule:evenodd;stroke:#000000;stroke-width:2.28299999;stroke-linecap:butt;stroke-linejoin:miter;stroke-miterlimit:4;stroke-opacity:1;stroke-dasharray:none" />
      <path
         d="m 293.08579,565.402 c -8.34507,-1.26221 -9.51132,6.37577 -11.20748,11.64697 7.17488,-2.34404 9.09211,-4.02881 13.40501,-5.05433 1.37474,-1.7761 -0.81071,-4.26424 -2.19753,-6.59264 z"
         id="path3355"
         style="fill:#e20909;fill-opacity:1;fill-rule:evenodd;stroke:#000000;stroke-width:2.28299999;stroke-linecap:butt;stroke-linejoin:miter;stroke-miterlimit:4;stroke-opacity:1;stroke-dasharray:none" />
      <path
         d="m 279.46102,592.21203 c -4.40397,3.12396 -10.15404,2.84042 -1.75804,16.26181 4.02883,-6.61982 2.78356,-6.88134 8.13092,-9.88893 -0.36255,-3.88605 -3.10919,-5.38799 -6.37288,-6.37288 z"
         id="path3357"
         style="fill:#e20909;fill-opacity:1;fill-rule:evenodd;stroke:#000000;stroke-width:2.28299999;stroke-linecap:butt;stroke-linejoin:miter;stroke-miterlimit:4;stroke-opacity:1;stroke-dasharray:none" />
      <path
         d="m 297.26112,604.07877 c -7.44611,5.76642 -1.42893,10.1362 -2.63705,15.38279 2.30618,-4.92677 5.53801,-7.96233 12.526,-10.5482 -1.54374,-3.6092 -5.44652,-4.72376 -9.88895,-4.83459 z"
         id="path3359"
         style="fill:#e20909;fill-opacity:1;fill-rule:evenodd;stroke:#000000;stroke-width:2.28299999;stroke-linecap:butt;stroke-linejoin:miter;stroke-miterlimit:4;stroke-opacity:1;stroke-dasharray:none" />
      <path
         d="m 369.12079,571.55511 c 6.0359,1.99979 7.44202,5.1058 8.79017,9.44945 l -11.42722,-2.63706 c 0.11398,-2.01578 -0.78307,-3.69455 2.63705,-6.81239 z"
         id="path3361"
         style="fill:#e20909;fill-opacity:1;fill-rule:evenodd;stroke:#000000;stroke-width:2.28299999;stroke-linecap:butt;stroke-linejoin:miter;stroke-miterlimit:4;stroke-opacity:1;stroke-dasharray:none" />
      <path
         d="m 216.17178,289.17081 c 4.16894,10.59174 10.15731,21.30476 -2.63707,30.76561 -15.82656,9.52168 -21.67816,21.39041 -17.58034,35.60019 16.62878,46.1532 94.11863,53.18142 141.52179,79.55107"
         id="path3369"
         style="fill:none;stroke:#000000;stroke-width:2.28299999;stroke-linecap:butt;stroke-linejoin:miter;stroke-miterlimit:4;stroke-opacity:1;stroke-dasharray:none" />
      <path
         d="m 155.95908,263.2398 c -22.13443,39.93661 -17.72072,48.9004 -12.30622,56.69662 -1.27382,-11.86139 3.62252,-24.97554 13.18526,-34.72119 l 8.35065,-21.97543 c -14.40374,45.31542 -4.46714,44.90935 -1.31852,56.25711 -1.93397,-37.03752 8.89272,-47.77318 17.14084,-59.77317 -13.90888,29.37387 -5.66129,39.26578 0,46.58791 -2.90999,-20.77883 1.33473,-48.30111 13.62476,-53.62006"
         id="path3371"
         style="fill:none;stroke:#000000;stroke-width:2.28299999;stroke-linecap:butt;stroke-linejoin:miter;stroke-miterlimit:4;stroke-opacity:1;stroke-dasharray:none" />
      <path
         d="m 247.08938,516.79407 c -2.22005,3.05456 -1.59916,5.54093 0.31078,7.7695 4.83653,-2.37576 9.7626,-5.62914 14.60663,-8.70184 -4.98104,0.34508 -10.70262,3.65227 -14.91741,0.93234 z"
         id="path3375"
         style="fill:#e20909;fill-opacity:1;fill-rule:evenodd;stroke:#000000;stroke-width:2.28299999;stroke-linecap:butt;stroke-linejoin:miter;stroke-miterlimit:4;stroke-opacity:1;stroke-dasharray:none" />
      <path
         d="m 354.92988,544.45346 c 0.66839,1.74936 -0.53853,3.96757 3.1078,4.97246 6.51137,-1.21009 8.48876,-7.23298 11.80962,-12.43117 -4.77741,2.58376 -8.64701,5.62143 -14.91742,7.45871 z"
         id="path3377"
         style="fill:#e20909;fill-opacity:1;fill-rule:evenodd;stroke:#000000;stroke-width:2.28299999;stroke-linecap:butt;stroke-linejoin:miter;stroke-miterlimit:4;stroke-opacity:1;stroke-dasharray:none" />
      <path
         d="m 373.07637,266.75588 c 4.01246,-22.87514 1.33582,-46.08018 31.64461,-69.44238 24.9975,-17.05846 52.92414,-22.87876 70.32139,-32.08411 31.43049,-23.41106 27.76239,-24.70846 33.40266,-39.99532 12.47528,33.99545 -11.53882,48.05438 -32.52364,61.53124 -20.49994,8.66991 -39.59339,13.73236 -62.41023,29.88657 -22.71196,19.63139 -25.17851,39.26278 -33.84216,58.89416"
         id="path3373"
         style="fill:#ffffff;fill-opacity:1;fill-rule:evenodd;stroke:#000000;stroke-width:2.28299999;stroke-linecap:butt;stroke-linejoin:miter;stroke-miterlimit:4;stroke-opacity:1;stroke-dasharray:none" />
      <path
         d="m 168.77295,564.18796 c 1.29643,0.0147 3.53668,-1.54357 3.72934,0.31077 1.47997,0.66585 3.95542,1.04997 3.88473,4.81709 -3.76892,1.52888 -3.19575,6.43493 -3.41855,10.7219 -2.81279,-4.6404 -5.81267,-9.19577 -4.19552,-15.84976 z"
         id="path3347"
         style="fill:#e20909;fill-opacity:1;fill-rule:evenodd;stroke:#000000;stroke-width:2.28299999;stroke-linecap:butt;stroke-linejoin:miter;stroke-miterlimit:4;stroke-opacity:1;stroke-dasharray:none" />
      <path
         d="m 249.8864,545.54118 c 5.42532,2.53821 7.90715,6.38462 9.63417,10.56651 -4.80706,-1.74252 -7.5333,-4.40985 -15.69437,-4.6617 l 6.0602,-5.90481 z"
         id="path3351"
         style="fill:#e20909;fill-opacity:1;fill-rule:evenodd;stroke:#000000;stroke-width:2.28299999;stroke-linecap:butt;stroke-linejoin:miter;stroke-miterlimit:4;stroke-opacity:1;stroke-dasharray:none" />
      <path
         d="M 333.96009,423.66045 278.582,401.24552"
         id="path3222"
         style="fill:none;stroke:#000000;stroke-width:2.28299999;stroke-linecap:butt;stroke-linejoin:miter;stroke-miterlimit:4;stroke-opacity:1;stroke-dasharray:none" />
      <path
         d="m 139.47751,137.97984 c 6.05279,0.49784 11.37961,-0.4299 15.73172,1.34189 13.72262,5.58666 21.70697,16.46196 27.9994,26.78665 -12.60115,-0.0592 -26.63068,-3.33225 -37.13849,1.31853 1.15748,1.03171 2.2336,2.58021 3.7478,2.61549 10.84314,0.25273 19.72146,3.68346 23.94125,9.69076 5.34643,-1.019 10.98865,-4.10861 16.92108,-9.2297 -4.24858,-7.91114 -4.19431,-1.47945 -12.74575,-23.73346 1.53828,-4.76134 -0.068,-8.73655 4.61484,-14.28403 l -2.63704,-4.83459 c 0.57031,-2.75392 -3.202,-4.06028 -5.93338,-5.71362 -2.57781,1.75843 -5.48019,3.31402 -3.51607,7.91116 -9.48505,-3.31496 -26.13371,-8.48903 -30.98536,8.13092 z"
         id="path3365"
         style="fill:#e20909;fill-opacity:1;fill-rule:evenodd;stroke:#000000;stroke-width:2.28299999;stroke-linecap:butt;stroke-linejoin:miter;stroke-miterlimit:4;stroke-opacity:1;stroke-dasharray:none" />
    </g>
  </g>
  <g
     id="layer3"
     style="display:inline">
    <path
       d="m 1.5,1.5 0,458.8679 C 1.5,626.67854 135.81454,761.5 301.49993,761.5 467.1854,761.5 601.5,626.67854 601.5,460.3679 L 601.5,1.5 1.5,1.5 z"
       id="path2346"
       style="fill:url(#radialGradient3236) #000000;fill-opacity:1" />
  </g>
  <g
     id="layer4"
     style="display:inline">
    <path
       d="m 1.5,1.5 0,458.86794 C 1.5,626.67854 135.81454,761.5 301.49993,761.5 467.1854,761.5 601.5,626.67854 601.5,460.36794 L 601.5,1.5 1.5,1.5 z"
       id="path3239"
       style="fill:none;stroke:#000000;stroke-width:3;stroke-miterlimit:4;stroke-opacity:1;stroke-dasharray:none" />
  </g>
</svg>
