<?xml version="1.0" encoding="UTF-8"?>
<svg version="1.0" viewBox="0 0 603 763" xmlns="http://www.w3.org/2000/svg" xmlns:cc="http://creativecommons.org/ns#" xmlns:dc="http://purl.org/dc/elements/1.1/" xmlns:rdf="http://www.w3.org/1999/02/22-rdf-syntax-ns#" xmlns:xlink="http://www.w3.org/1999/xlink">
<title>Lavey-Morcles</title>
<desc>Coat of Arms of Canton of Freiburg (Fribourg)</desc>
<metadata>
<rdf:RDF>
<cc:Work rdf:about="">
<dc:format>image/svg+xml</dc:format>
<dc:type rdf:resource="http://purl.org/dc/dcmitype/StillImage"/>
<dc:date/>
<dc:creator>
<cc:Agent>
<dc:title/>
</cc:Agent>
</dc:creator>
<cc:license rdf:resource=""/>
<dc:coverage/>
<dc:description/>
<dc:subject>
<rdf:Bag/>
</dc:subject>
<dc:language/>
<dc:title>Lavey-Morcles</dc:title>
</cc:Work>
<cc:License rdf:about="http://creativecommons.org/licenses/GPL/2.0/">
<cc:permits rdf:resource="http://web.resource.org/cc/Reproduction"/>
<cc:permits rdf:resource="http://web.resource.org/cc/Distribution"/>
<cc:requires rdf:resource="http://web.resource.org/cc/Notice"/>
<cc:permits rdf:resource="http://web.resource.org/cc/DerivativeWorks"/>
<cc:requires rdf:resource="http://web.resource.org/cc/ShareAlike"/>
<cc:requires rdf:resource="http://web.resource.org/cc/SourceCode"/>
</cc:License>
</rdf:RDF>
</metadata>
<defs>
<radialGradient id="a" cx="858.04" cy="579.93" r="300" gradientTransform="matrix(1.215 0 0 1.2667 -839.19 -490.49)" gradientUnits="userSpaceOnUse">
<stop stop-color="#fff" stop-opacity=".31373" offset="0"/>
<stop stop-color="#fff" stop-opacity=".25098" offset=".19"/>
<stop stop-color="#6b6b6b" stop-opacity=".12549" offset=".6"/>
<stop stop-opacity=".12549" offset="1"/>
</radialGradient>
</defs>
<g>
<path d="m1.5 1.5v458.87c0 166.31 134.31 301.13 300 301.13 165.69 0 300-134.82 300-301.13v-458.87h-600z" fill="#5ab532"/>
<g transform="matrix(1.1843 0 0 1.1843 -70.241 -51.179)" stroke="#000" stroke-width="2.283">
<path d="m144.97 153.8c16.162-6.7828 30.082 2.6861 43.951 12.526l-10.988 4.8346c-1.5632-8.0617-14.451-13.39-32.963-17.361z" fill="#e20909" fill-rule="evenodd"/>
<path d="m234.63 444.1-1.9778 34.062-18.899 48.566c-4.92 2.5085-6.8777 7.7818-19.998 2.6371-2.697-6.546-7.5754-8.7292-13.185-9.4494-10.696 0.96702-14.879 3.8473-16.659 7.2342l4.3286 4.2331c3.4509-0.68453 6.591-2.5893 10.042-2.564 4.1027 1.0476 5.92-0.33305 13.716 8.0178-10.224-1.0896-20.595-2.3179-29.751 0.76694-1.3454 0.45332-2.9144 2.1518-4.2469 2.545l1.2431 8.2928c9.652-7.0735 20.927-2.5841 29.993-0.27954-11.034 4.3132-17.347 10.211-20.972 16.803l8.5704 4.3951c8.6742-12.693 23.559-15.831 39.776-16.921 8.0746-2.6031 18.421-0.66244 28.129 0l5.0544-7.2519c-0.25544-6.8992-14.945-3.6098-24.173-4.1753-2.2721-5.7868 3.0342-11.574 6.1844-17.361 22.718 3.3877 13.164 0.39338 14.627-6.2662-2.9515 0.0533-5.9295-0.0914-8.725-2.3042 6.9551-21.076 19.072-38.976 33.622-55.378l-23.953-19.338-12.746 3.7358z" fill="#e20909" fill-rule="evenodd"/>
<path d="m195.81 405.85c1.9594 8.909 0.16536 17.818 8.0803 26.727 5.6842 11.998 14.029 17.346 22.998 21.133l-0.62156 14.917c2.9273-2.6934 4.0326-5.3868 9.945-8.0803l6.8372 10.566 13.674 4.9725 6.8371-8.7018-7.4587-18.025 11.188 16.161c4.4029-9.3234-3.145-18.647-6.2156-27.97" fill="#fff" fill-rule="evenodd"/>
<path d="m271.55 303.67c33.103 2.0712 74.08 14.851 79.551-20.657l11.427 1.3185c-10.713-33.256-15.022-66.512 2.1975-99.768 28.348-38.036 65.853-32.32 104.6-20.657 41.165 23.961 55.851 49.748 63.289 76.035-19.976-27.158-112.53-112.2-151.19-25.931 40.975-73.947 126.03-12.643 123.06 18.02-19.958-26.92-58.42-38.717-76.475-32.524 20.924-8.809 54.87 11.847 67.706 33.82 9.0684 15.524 23.603 29.707 47.446 35.183-11.348 18.639-41.476 2.2602-64.017-23.479-19.84-22.654-48.633-34.766-70.38-25.275 27.647-8.6206 57.2 4.9473 72.07 30.592 9.5952 16.548 24.158 36.751 45.625 52.443-7.5766 7.9695-38.627-10.317-69.294-48.673-15.044-18.816-45.596-13.276-68.273 1.6451 74.724-38.968 76.196 29.522 112.95 56.257-8.5194 2.8595-17.415 3.9326-33.491-19.689-22.63-33.249-55.467-40.254-78.144-9.7585 23.648-23.336 46.697-26.795 70.323-0.90259 8.7812 9.6234 7.3358 28.88 28.127 42.216-9.3922 3.8789-20.728-1.273-38.271-27.192-12.359-18.26-38.068-15.189-57.102 3.4589 38.408-29.603 56.42-5.5326 72.958 22.415-24.115-18.051-47.815-23.634-70.761-6.5926 30.823-19.468 50.929-4.8373 69.003 16.262-24.816-12.513-47.555-14.108-67.684 3.9556 34.286-16.294 67.616-8.7425 71.64 30.326-16.594-28.874-45.493-16.222-70.761-15.822 22.421-0.0823 45.482-1.0838 49.664 25.052-16.555-9.2243-33.11-7.0547-49.664-4.8346 33.168 2.4863 54.5 4.718 55.378 26.371-14.487-7.7484-34.736-10.888-54.939-14.064 23.445 3.7951 47.146 7.4526 40.874 27.25-16.154-11.229-33.723-9.712-50.983-10.988 13.307 3.6465 31.444 0.85405 31.645 21.975-10.988-7.0018-21.975-10.631-32.963-12.746 8.076 8.2684 18.286 6.9311 24.173 25.052l-36.919-13.185-102.41-116.91z" fill="#fff" fill-rule="evenodd"/>
<path d="m335.28 477.5 12.966 13.185c-3.8652 17.947-4.9244 35.893-3.5161 53.84 3.4304 0.76238 7.0387 0.45703 10.769-0.57794l2.3279 6.5496c-3.6914 2.5659-8.1562 4.3584-13.976 4.7963 0.45759 3.7358 0.0373 7.4716 4.3951 11.207 9.6692 3.6394 14.504-1.8989 21.756 5.2741l-2.8568 7.0321c-5.9334-0.93684-11.867-1.3883-17.8 0l-10.548 7.9112h-7.9112c-4.7061 9.1492-16.86 10.039-16.701 20.877l-8.1309 1.758-7.6914-5.2741c12.045-5.1762 13.636-18.45 25.931-23.953-9.3103 5.0911-18.439 9.2735-26.59 8.5704-3.6424 4.1016-3.2349 10.566-13.185 10.988l-5.9334-8.1309 14.943-12.746 22.854-5.4938-8.3507-4.3951c-5.1776 4.0033-10.816 2.4216-13.185 5.2741l-2.637-7.9112c0.77091-4.9761 9.4619-5.552 14.943-7.9112 6.5105 2.7345 12.735 8.6208 19.778 5.4939 0.40229-17.355 2.5684-34.415-0.21976-52.302-0.90774-1.2498-1.7728-2.4995-2.5941-3.7493-1.2968-1.9733-2.4845-3.9466-3.559-5.9199l-2.1976-18.899 16.921-5.4938z" fill="#e20909" fill-rule="evenodd"/>
<path d="m179.81 128.16-5.7494-5.594c-0.0439-17.667 9.5733-19.963 18.336-23.619-4.4517 6.4765-1.78 8.3736-0.77695 11.343 19.012-22.269 27.156-12.66 37.915-10.722-7.1235 1.0535-13.625 2.8845-13.83 12.587 11.461-2e-3 19.557-7.1553 28.902-11.654-1.9509 3.269-4.5804 6.3117-4.0401 10.411 12.552 0.56348 20.356-4.4116 29.679-7.6141-5.5652 8.4751-13.503 16.001-27.815 20.978 24.668-8.9288 38.734-6.1948 45.84 4.1955-20.178-0.29831-22.455 15.712-53.765 16.937l-54.697-17.248z" fill="#e20909" fill-rule="evenodd"/>
<path d="m309.79 309.83c33.846 2.4275 35.438-18.062 49.225-29.887-7.1525 13.977 4.1743 24.816-30.766 43.511 18.116-5.2352 31.991-31.669 47.467-50.104-8.7348 19.795-8.0153 42.499-37.798 55.818 19.795-8.9601 31.778-23.78 44.83-37.798-1.3369 19.986-12.082 35.645-42.632 42.193 18.305-2.7771 36.593-5.643 53.181-17.58-2.136 15.514-20.584 24.037-51.422 27.25 18.933-0.39945 37.893-0.42159 56.257-8.7902-7.2428 15.926-37.516 16.499-65.047 18.899 21.682-0.80998 43.365 1.5343 65.047-5.7136-5.5552 10.749-29.262 13.027-51.862 15.822 16.781-0.62192 33.384-0.94537 51.862-4.3951-11.957 8.4064-28.555 12.172-45.709 15.383 14.943 0.0964 29.887 0.373 44.83-3.5161-6.9994 5.5808-17.613 9.6555-31.645 12.306 12.746-1.6115 24.319-1.465 34.721 0.43951-6.2434 2.534-11.365 5.3084-25.492 6.1531 7.7549 0.74229 15.376 1.6183 21.975 3.5161-5.6088 4.6854-10.896 9.5423-25.052 9.6692l-35.161-16.262-26.81-76.914z" fill="#fff" fill-rule="evenodd"/>
<path d="m180.27 129.25c10.74-4.6421 24.324-0.74665 38.317 2.7437 19.183 11.839 28.115 24.05 35.611 37.369l-3.585 0.10018c5.8918 12.224 8.6763 27.744 7.9736 39.968-5.1797 24.5-10.359 29.073-15.539 37.915-2.1133 5.8012-4.9063 11.602-0.62156 17.404 12.958 14.221 31.339 14.886 47.238 21.755l16.782 11.81h-12.431c8.6572 4.2169 16.555 6.1557 26.727 14.917l-29.213-5.594c21.124 5.7601 43.076 11.061 49.725 24.862l-47.86-15.539c24.234 10.676 52.125 18.304 67.128 36.672l-78.316-24.241c35.908 13.467 77.683 26.934 85.154 40.401l-76.452-22.376c44.088 14.791 80.447 30.396 93.234 48.482l-98.206-33.564c48.168 14.672 97.67 28.528 116.85 60.913l-110.02-44.752c78.587 28.549 106.76 48.89 114.37 65.885l-113.12-45.995c40.893 21.012 97.894 31.286 111.88 70.236l-68.993-34.186c4.5279 5.3868 12.029 10.774 5.594 16.161-1.7374 7.1751 7.0614 8.0286 13.053 10.566-11.602 6.0415-23.205-1.4991-34.807-18.647l27.349 31.078c-7.6659 2.9845-15.332-4.6415-22.998-13.053l24.862 29.213-9.3234 6.2156-21.755 4.9725-8.0803-20.511c-11.561-9.2613-20.699-18.926-22.376-29.835l-49.725-14.917c-17.897-13.86-33.309-15.299-49.725-21.755-21.318-15.125-21.471-30.249-27.349-45.374-31.963-25.717-32.933-43.278-34.186-60.913 3.4347-19.476 12.733-38.951 26.105-58.427 15.037-14.346 24.535-31.857 27.97-52.833l-6.8371-15.539c1.8012-6.1121-4.0468-18.251 8.4896-14.193-14.438-15.479-7.0134-25.605-2.8956-40.504" fill="#fff" fill-rule="evenodd"/>
<path d="m162.77 248.52c10.034 0.95054 16.978-2.2197 18.24-12.966" fill="none"/>
<path d="m197.93 140.29c0 3.8231-3.1976 6.9223-7.142 6.9223-3.9444 0-7.142-3.0992-7.142-6.9223s3.1976-6.9223 7.142-6.9223c3.9444 0 7.142 3.0992 7.142 6.9223z" fill="none"/>
<path d="m175.45 183.02c-4.8802 13.134-9.405 23.114-29.486 29.176-8.9906 7.0339-8.1984 15.695-6.6174 23.983 5.6101 6.2767 8.8647 5.5761 13.466 5.1279-1.6889-5.9475 0.21851-9.7959 2.695-16.953 6.9465-5.439 7.3566-7.257 11.708-9.945 6.7996-8.285 8.8851-16.644 11.188-25.484-6.3404 34.319-30.265 26.505-25.371 54.735l6.1025 8.0426c17.088 6.6819 28.13-4.8309 28.297-8.7395 0.23562-28.612 2.6816-35.328 9.3234-40.401" fill="#e20909" fill-rule="evenodd"/>
<path d="m192.84 139.75c0 1.7008-1.4367 3.0795-3.2089 3.0795-1.7722 0-3.2089-1.3788-3.2089-3.0795s1.4367-3.0795 3.2089-3.0795c1.7722 0 3.2089 1.3788 3.2089 3.0795z" fill="none"/>
<path d="m158.21 540.41c-5.8679 2.1985-8.9036 6.1672-11.499 10.411 3.7709-0.89059 6.245-4.7549 11.81-1.8647 3.0788-3.1679 3.2382-4.9643-0.31078-8.5464z" fill="#e20909" fill-rule="evenodd"/>
<path d="m164.58 526.43c2.9613 0.27411 4.7947 1.5508 4.0401 5.1279-3.056-0.0409-6.112 1.9294-9.168 4.3509 0.83438-3.3346 2.2317-6.5566 5.1279-9.4788z" fill="#e20909" fill-rule="evenodd"/>
<path d="m293.09 565.4c-8.3451-1.2622-9.5113 6.3758-11.207 11.647 7.1749-2.344 9.0921-4.0288 13.405-5.0543 1.3747-1.7761-0.81071-4.2642-2.1975-6.5926z" fill="#e20909" fill-rule="evenodd"/>
<path d="m279.46 592.21c-4.404 3.124-10.154 2.8404-1.758 16.262 4.0288-6.6198 2.7836-6.8813 8.1309-9.8889-0.36255-3.886-3.1092-5.388-6.3729-6.3729z" fill="#e20909" fill-rule="evenodd"/>
<path d="m297.26 604.08c-7.4461 5.7664-1.4289 10.136-2.637 15.383 2.3062-4.9268 5.538-7.9623 12.526-10.548-1.5437-3.6092-5.4465-4.7238-9.889-4.8346z" fill="#e20909" fill-rule="evenodd"/>
<path d="m369.12 571.56c6.0359 1.9998 7.442 5.1058 8.7902 9.4494l-11.427-2.6371c0.11398-2.0158-0.78307-3.6946 2.637-6.8124z" fill="#e20909" fill-rule="evenodd"/>
<path d="m216.17 289.17c4.1689 10.592 10.157 21.305-2.6371 30.766-15.827 9.5217-21.678 21.39-17.58 35.6 16.629 46.153 94.119 53.181 141.52 79.551" fill="none"/>
<path d="m155.96 263.24c-22.134 39.937-17.721 48.9-12.306 56.697-1.2738-11.861 3.6225-24.976 13.185-34.721l8.3506-21.975c-14.404 45.315-4.4671 44.909-1.3185 56.257-1.934-37.038 8.8927-47.773 17.141-59.773-13.909 29.374-5.6613 39.266 0 46.588-2.91-20.779 1.3347-48.301 13.625-53.62" fill="none"/>
<path d="m247.09 516.79c-2.22 3.0546-1.5992 5.5409 0.31078 7.7695 4.8365-2.3758 9.7626-5.6291 14.607-8.7018-4.981 0.34508-10.703 3.6523-14.917 0.93234z" fill="#e20909" fill-rule="evenodd"/>
<path d="m354.93 544.45c0.66839 1.7494-0.53853 3.9676 3.1078 4.9725 6.5114-1.2101 8.4888-7.233 11.81-12.431-4.7774 2.5838-8.647 5.6214-14.917 7.4587z" fill="#e20909" fill-rule="evenodd"/>
<path d="m373.08 266.76c4.0125-22.875 1.3358-46.08 31.645-69.442 24.998-17.058 52.924-22.879 70.321-32.084 31.43-23.411 27.762-24.708 33.403-39.995 12.475 33.995-11.539 48.054-32.524 61.531-20.5 8.6699-39.593 13.732-62.41 29.887-22.712 19.631-25.179 39.263-33.842 58.894" fill="#fff" fill-rule="evenodd"/>
<path d="m168.77 564.19c1.2964 0.0147 3.5367-1.5436 3.7293 0.31077 1.48 0.66585 3.9554 1.05 3.8847 4.8171-3.7689 1.5289-3.1958 6.4349-3.4186 10.722-2.8128-4.6404-5.8127-9.1958-4.1955-15.85z" fill="#e20909" fill-rule="evenodd"/>
<path d="m249.89 545.54c5.4253 2.5382 7.9072 6.3846 9.6342 10.567-4.8071-1.7425-7.5333-4.4098-15.694-4.6617l6.0602-5.9048z" fill="#e20909" fill-rule="evenodd"/>
<path d="m333.96 423.66-55.378-22.415" fill="none"/>
<path d="m139.48 137.98c6.0528 0.49784 11.38-0.4299 15.732 1.3419 13.723 5.5867 21.707 16.462 27.999 26.787-12.601-0.0592-26.631-3.3322-37.138 1.3185 1.1575 1.0317 2.2336 2.5802 3.7478 2.6155 10.843 0.25273 19.721 3.6835 23.941 9.6908 5.3464-1.019 10.989-4.1086 16.921-9.2297-4.2486-7.9111-4.1943-1.4794-12.746-23.733 1.5383-4.7613-0.068-8.7366 4.6148-14.284l-2.637-4.8346c0.57031-2.7539-3.202-4.0603-5.9334-5.7136-2.5778 1.7584-5.4802 3.314-3.5161 7.9112-9.485-3.315-26.134-8.489-30.985 8.1309z" fill="#e20909" fill-rule="evenodd"/>
</g>
<path d="m1.5 1.5v458.87c0 166.31 134.31 301.13 300 301.13 165.69 0 300-134.82 300-301.13v-458.87h-600z" fill="url(#a) #000000"/>
<path d="m1.5 1.5v458.87c0 166.31 134.31 301.13 300 301.13 165.69 0 300-134.82 300-301.13v-458.87h-600z" fill="none" stroke="#000" stroke-width="3"/>
</g>
</svg>
