<?xml version="1.0" encoding="UTF-8"?>
<svg width="134.29mm" height="184.04mm" version="1.1" viewBox="0 0 134.29 184.04" xmlns="http://www.w3.org/2000/svg" xmlns:cc="http://creativecommons.org/ns#" xmlns:dc="http://purl.org/dc/elements/1.1/" xmlns:rdf="http://www.w3.org/1999/02/22-rdf-syntax-ns#" xmlns:xlink="http://www.w3.org/1999/xlink">
<defs>
<clipPath id="a">
<path d="m84.118 103.36v-24.29c0-14.857 16.973-22.396 16.973-22.396s16.972 7.539 16.972 22.396v24.29z"/>
</clipPath>
</defs>
<metadata>
<rdf:RDF>
<cc:Work rdf:about="">
<dc:format>image/svg+xml</dc:format>
<dc:type rdf:resource="http://purl.org/dc/dcmitype/StillImage"/>
<dc:title/>
</cc:Work>
</rdf:RDF>
</metadata>
<g transform="translate(603.56 17.517)">
<g transform="matrix(3.8972 0 0 -3.8972 -930.39 386.34)" clip-path="url(#a)" stroke-width=".09052">
<g transform="matrix(.12487 0 0 -.12487 101.58 80.686)" stroke-width=".09052">
<path d="m185.83 2.912h-381.75v-206.69h381.75z" clip-path="none"/>
<path d="m185.83 206.02h-381.75v-206.69h381.75z" clip-path="none" fill="#ffd500"/>
<g transform="translate(11.888 77.623)" stroke-width=".09052">
<path d="m0 0-0.052-0.07 1.19-0.926zm99.998 2.137-5.794-2.593-9.147-0.149-25.302-13.262-13.841-11.284-11.918 7.166-17.836 18.442-7.471-8.077-7.547 6.622-1.257 0.832-0.951-1.355v-36.394c11.842 5.839 20.274 1.635 20.274 1.635 17.684 10.367 32.316-3.658 32.316-3.658-7.318-3.048-9.753-7.925-9.753-7.925 21.951-1.828 21.951-21.949 21.951-21.949-29.878 8.536-40.243-7.929-40.243-7.929 14.022 1.829 22.435-6.709 22.435-6.709-14.518-3.66-17.557-10.467-17.557-10.467 8.538 0.609 14.394-5.991 14.394-5.991-19.885-6.712-26.591-23.173-26.591-23.173 12.943 5.486 24.39 0 24.39 0-18.294-15.243-29.27-35.975-29.27-35.975 7.319 4.268 15.246 0 15.246 0-23.78-15.851-27.742-29.879-27.742-29.879 8.231 3.659 14.936 0 14.936 0-14.022-7.926-23.779-19.511-18.594-17.07 5.181 2.439 11.277 0 11.277 0-10.362-3.658-22.56-22.562-22.56-22.562s-12.196 18.904-22.562 22.562c0 0 6.099 2.439 11.282 0 5.181-2.441-4.574 9.144-18.598 17.07 0 0 6.709 3.659 14.941 0 0 0-3.967 14.028-27.745 29.879 0 0 7.927 4.268 15.243 0 0 0-10.974 20.732-29.266 35.975 0 0 11.446 5.486 24.39 0 0 0-6.71 16.461-26.591 23.173 0 0 5.856 6.6 14.394 5.991 0 0-3.039 6.807-17.557 10.467 0 0 8.411 8.538 22.437 6.709 0 0-10.366 16.465-40.242 7.929 0 0 0 20.121 21.95 21.949 0 0-2.44 4.877-9.758 7.925 0 0 14.634 14.025 32.316 3.658 0 0 9.26 4.616 22.004-2.549 0.08 12.871 0.086 31.724-0.51 34.102 0 0-1.219 2.597-1.981 3.206l-5.337-3.964-10.975 0.152-16.92-17.681-16.613 16.919-4.117 0.152-21.035 12.5-5.641 2.59 1.829 1.984 2.898 0.911-17.685 9.452-78.326 37.972c28.612 37.98 33.19 130.8 81.41 130.8l82.618-6.404c55.275 0 290.08-42.927 319.72-92.445z" fill="#00893d" stroke="#000" stroke-width="2.0548"/>
</g>
<g transform="translate(-169.59 126.2)" stroke-width=".09052">
<path d="m0 0 55.875-27.087 17.686-9.452-2.899-0.911-1.829-1.984 5.642-2.59 21.035-12.5 4.116-0.152 16.613-16.919 16.92 17.681 10.976-0.152 5.337 3.964c0.761-0.609 1.98-3.206 1.98-3.206 0.914-3.657 0-33.93 0-33.93" fill="none" stroke="#000" stroke-linecap="round" stroke-linejoin="round" stroke-width=".077666"/>
</g>
<g transform="translate(11.051 39.82)" stroke-width=".09052">
<path d="m0 0-0.229 36.282 1.067 1.521 8.689-7.62 7.471 8.077 17.836-18.443 11.918-7.166 13.841 11.285 25.302 13.261 9.147 0.15 5.794 2.592 115.8 57.499" fill="none" stroke="#000" stroke-linecap="round" stroke-linejoin="round" stroke-width=".077666"/>
</g>
<g transform="translate(-4.2687 45.459)" stroke-width=".09052">
<path d="m0 0c5.184-4.724 5.184-12.651 5.184-12.651 16.768 15.245 30.181 8.535 30.181 8.535 17.684 10.367 32.317-3.658 32.317-3.658-7.319-3.048-9.754-7.925-9.754-7.925 21.951-1.828 21.951-21.948 21.951-21.948-29.878 8.535-40.242-7.93-40.242-7.93 14.021 1.829 22.434-6.709 22.434-6.709-14.518-3.66-17.556-10.467-17.556-10.467 8.537 0.609 14.393-5.991 14.393-5.991-19.885-6.712-26.591-23.173-26.591-23.173 12.943 5.486 24.39 0 24.39 0-18.294-15.243-29.27-35.975-29.27-35.975 7.319 4.268 15.247 0 15.247 0-23.781-15.851-27.743-29.878-27.743-29.878 8.231 3.658 14.936 0 14.936 0-14.022-7.927-23.778-19.512-18.594-17.071 5.181 2.439 11.278 0 11.278 0-10.363-3.658-22.561-22.562-22.561-22.562s-12.195 18.904-22.562 22.562c0 0 6.099 2.439 11.283 0 5.18-2.441-4.575 9.144-18.599 17.071 0 0 6.709 3.658 14.941 0 0 0-3.966 14.027-27.745 29.878 0 0 7.927 4.268 15.244 0 0 0-10.975 20.732-29.267 35.975 0 0 11.446 5.486 24.391 0 0 0-6.71 16.461-26.592 23.173 0 0 5.856 6.6 14.394 5.991 0 0-3.039 6.807-17.556 10.467 0 0 8.41 8.538 22.436 6.709 0 0-10.366 16.465-40.242 7.93 0 0 0 20.12 21.95 21.948 0 0-2.44 4.877-9.758 7.925 0 0 14.634 14.025 32.316 3.658 0 0 13.417 6.71 30.181-8.535 0 0 0 7.927 5.185 12.651z" fill="none" stroke="#000" stroke-linecap="round" stroke-linejoin="round" stroke-width="2.0548"/>
</g>
<g transform="translate(-9.4533 -84.873)" stroke-width=".09052">
<path d="m0 0s-7.01 13.74-16.765 13.416l1.828-6.708s-5.555 7.832-14.362 6.965" fill="none" stroke="#000" stroke-linecap="round" stroke-linejoin="round" stroke-width="2.0548"/>
</g>
<g transform="translate(-15.856 -56.825)" stroke-width=".09052">
<path d="m0 0s-3.962 9.449-8.245 10.976c-1.915 0.679-3.337-5.489-3.337-5.489s-2.44 4.366-4.88 6.146c-2.439 1.781 0-5.816 0-5.816s-3.914 4.976-7.86 5.816" fill="none" stroke="#000" stroke-linecap="round" stroke-linejoin="round" stroke-width="2.0548"/>
</g>
<g transform="translate(-15.856 -27.556)" stroke-width=".09052">
<path d="m0 0s-7.011 9.756-12.16 10.062c-1.708 0.098-1.862-5.033-1.862-5.033s-7.318 7.468-8.874 5.04c-0.667-1.035 0-4.956 0-4.956s-7.332 7.127-14.535 4.819" fill="none" stroke="#000" stroke-linecap="round" stroke-linejoin="round" stroke-width="2.0548"/>
</g>
<g transform="translate(-15.244 -7.4388)" stroke-width=".09052">
<path d="m0 0s-10.053 10.806-13.414 9.604c-2.133-0.762-1.373-6.859-1.373-6.859s-9.607 4.998-18.749 4.86" fill="none" stroke="#000" stroke-linecap="round" stroke-linejoin="round" stroke-width="2.0548"/>
</g>
<g transform="translate(-11.586 16.346)" stroke-width=".09052">
<path d="m0 0s-6.626 9.275-8.993 9.296c-1.23 0.011-2.439-1.829-2.439-1.829s-4.573 5.337-8.079 5.337c-2.134 0-2.287-6.404-2.287-6.404s-4.898 6.404-6.794 6.404c-1.895 0-2.962-2.137-2.962-2.137s-6.762 5.337-23.197 2.137" fill="none" stroke="#000" stroke-linecap="round" stroke-linejoin="round" stroke-width="2.0548"/>
</g>
<g transform="translate(.9149 -84.873)" stroke-width=".09052">
<path d="m0 0s7.015 13.74 16.769 13.416l-1.83-6.708s5.554 7.832 14.363 6.965" fill="none" stroke="#000" stroke-linecap="round" stroke-linejoin="round" stroke-width="2.0548"/>
</g>
<g transform="translate(7.3172 -56.825)" stroke-width=".09052">
<path d="m0 0s3.962 9.449 8.25 10.976c1.912 0.679 3.336-5.489 3.336-5.489s2.436 4.366 4.878 6.146c2.441 1.781 0-5.816 0-5.816s3.914 4.976 7.86 5.816" fill="none" stroke="#000" stroke-linecap="round" stroke-linejoin="round" stroke-width="2.0548"/>
</g>
<g transform="translate(7.3172,-27.556)" stroke-width=".09052">
<path d="m0 0s7.013 9.756 12.164 10.062c1.705 0.098 1.858-5.033 1.858-5.033s7.318 7.468 8.877 5.04c0.665-1.035 0-4.956 0-4.956s7.33 7.127 14.537 4.819" fill="none" stroke="#000" stroke-linecap="round" stroke-linejoin="round" stroke-width="2.0548"/>
</g>
<g transform="translate(6.7069,-7.4388)" stroke-width=".09052">
<path d="m0 0s10.054 10.806 13.416 9.604c2.132-0.762 1.37-6.859 1.37-6.859s9.608 4.998 18.753 4.86" fill="none" stroke="#000" stroke-linecap="round" stroke-linejoin="round" stroke-width="2.0548"/>
</g>
<g transform="translate(3.0487 16.346)" stroke-width=".09052">
<path d="m0 0s6.629 9.275 8.996 9.296c1.231 0.011 2.436-1.829 2.436-1.829s4.578 5.337 8.082 5.337c2.133 0 2.286-6.404 2.286-6.404s4.897 6.404 6.793 6.404 2.96-2.137 2.96-2.137 6.762 5.337 23.201 2.137" fill="none" stroke="#000" stroke-linecap="round" stroke-linejoin="round" stroke-width="2.0548"/>
</g>
<g transform="translate(-22.226 74.536)" stroke-width=".09052">
<path d="m0 0 16.893 16.349-12.426 12.425 0.227 6.478-3.504 3.66-0.153 7.315-6.86 6.403" fill="none" stroke="#000" stroke-linecap="round" stroke-linejoin="round" stroke-width="2.0548"/>
</g>
<g transform="translate(32.62 73.353)" stroke-width=".09052">
<path d="m0 0-4.571 4.727v4.118l-4.573 4.88-0.914 5.943-8.54 7.832" fill="none" stroke="#000" stroke-linecap="round" stroke-linejoin="round" stroke-width="2.0548"/>
</g>
<g transform="translate(-51.218 119.09)" stroke-width=".09052">
<path d="m0 0 8.842-0.916 14.633-8.688 4.879-1.069 2.132-2.133 15.399-15.398 18.364-14.26" fill="none" stroke="#000" stroke-linecap="round" stroke-linejoin="round" stroke-width="2.0548"/>
</g>
</g>
</g>
<path d="m-602.56-16.517v94.664c0 57.901 66.148 87.282 66.148 87.282s66.144-29.381 66.144-87.282v-94.664z" fill="none" stroke="#000" stroke-width="2"/>
</g>
</svg>
