<?xml version="1.0" encoding="UTF-8"?>
<svg version="1.0" viewBox="0 0 603 763" xmlns="http://www.w3.org/2000/svg" xmlns:cc="http://creativecommons.org/ns#" xmlns:dc="http://purl.org/dc/elements/1.1/" xmlns:rdf="http://www.w3.org/1999/02/22-rdf-syntax-ns#" xmlns:xlink="http://www.w3.org/1999/xlink">
<desc>Coat of Arms of Canton of Freiburg (Fribourg)</desc>
<metadata>
<rdf:RDF>
<cc:Work rdf:about="">
<dc:format>image/svg+xml</dc:format>
<dc:type rdf:resource="http://purl.org/dc/dcmitype/StillImage"/>
<dc:date>07-AUG-2006</dc:date>
<dc:creator>
<cc:Agent>
<dc:title>Jérôme BLUM (wagner51)</dc:title>
</cc:Agent>
</dc:creator>
<cc:license rdf:resource="http://creativecommons.org/licenses/GPL/2.0/"/>
<dc:coverage/>
<dc:description>Gabarit pour le Projet:Blasons de WIkipédia</dc:description>
<dc:subject>
<rdf:Bag>
<rdf:li>blason suisse modèle gabarit projet blasons</rdf:li>
</rdf:Bag>
</dc:subject>
<dc:language>fr</dc:language>
<dc:title/>
</cc:Work>
<cc:License rdf:about="http://creativecommons.org/licenses/GPL/2.0/">
<cc:permits rdf:resource="http://web.resource.org/cc/Reproduction"/>
<cc:permits rdf:resource="http://web.resource.org/cc/Distribution"/>
<cc:requires rdf:resource="http://web.resource.org/cc/Notice"/>
<cc:permits rdf:resource="http://web.resource.org/cc/DerivativeWorks"/>
<cc:requires rdf:resource="http://web.resource.org/cc/ShareAlike"/>
<cc:requires rdf:resource="http://web.resource.org/cc/SourceCode"/>
</cc:License>
</rdf:RDF>
</metadata>
<defs>
<radialGradient id="a" cx="858.04" cy="579.93" r="300" gradientTransform="matrix(1.215 0 0 1.2667 -839.19 -490.49)" gradientUnits="userSpaceOnUse">
<stop stop-color="#fff" stop-opacity=".31373" offset="0"/>
<stop stop-color="#fff" stop-opacity=".25098" offset=".19"/>
<stop stop-color="#6b6b6b" stop-opacity=".12549" offset=".6"/>
<stop stop-opacity=".12549" offset="1"/>
</radialGradient>
</defs>
<g>
<path d="m1.5 1.5v458.87c0 166.31 134.31 301.13 300 301.13 165.69 0 300-134.82 300-301.13v-458.87h-600z" fill="#2b5df2"/>
<path d="m115.7 360.18c1.5326-5.2068-8.4302-14.747-12.182-11.94-1.7795 1.3313-6.3284 3.8145-9.2315 7.9739l-5.2784 7.5624 11.047 1.2329c11.844 1.3219 14.033 0.64604 15.645-4.8292z" fill="#e20909"/>
<path d="m191.7 618.43c-1.7078-2.8132-3.0167-9.2171-2.9086-14.231 0.25901-12.017-4.1437-13.67-12.777-4.7966-8.2332 8.4622-7.7328 11.527 2.9387 17.998 11.632 7.0533 16.65 7.4587 12.747 1.0296z" fill="#e20909"/>
<path d="m296.43 682.55c-4.8774-5.0631-7.3051-10.052-7.924-16.283-0.72377-7.2882-0.96344-6.5463-1.2697 3.9305-0.20776 7.1029-1.2596 12.914-2.3375 12.914-2.702 0-20.5-19.549-20.5-22.517 0-2.469 10.809-13.419 13.246-13.419 0.7482 0 3.7766-4.5546 6.7298-10.121 6.2576-11.796 16.714-19.068 27.455-19.096 4.1777-0.0112 12.756-0.63961 19.064-1.3975l11.468-1.378 3.6926-11.714c6.3548-20.16 5.2006-26.742-6.9758-39.782l-10.668-11.426-1.123 7.4127c-1.8722 12.358-5.6456 9.8518-11.051-7.3405-3.2213-10.245-7.0696-17.783-10.324-20.223-4.8624-3.6445-6.1177-3.66-19.953-0.24566-15.175 3.7449-17.677 3.3754-37.773-5.5783-0.90015-0.40107-0.54219 2.4103 0.79548 6.2475 2.3863 6.8454 1.9055 15.53-1.2683 22.909-1.2061 2.804 1.417 5.8496 10.639 12.353 13.492 9.5143 18.164 18.24 15.881 29.656-1.8972 9.4859-4.2185 10.505-11.28 4.95-8.8198-6.9377-13.339-5.777-26.697 6.857-13.033 12.326-17.196 12.935-21.648 3.1642-2.3064-5.062-3.7111-5.6016-12.895-4.9544-9.6478 0.67997-10.279 1.1141-9.8768 6.7919 0.26595 3.7528 3.5557 13.562 2.0944 12.659-1.3331-0.82392-5.8445-12.863-5.1399-17.205 0.83247-5.1299 0.29573-8.0583-1.6111-8.7901-3.7651-1.4448-14.864 2.836-14.864 5.733 0 4.9412 12.663 16.237 18.588 16.581 6.3406 0.36823 8.7528 3.7241 2.677 3.7241-7.6102 0-18.902-6.7351-22.296-13.299-2.3102-4.4675-5.2838-6.9149-8.4016-6.9149h-4.8258l4.8835 5.1982c6.5587 6.9814 6.1795 8.2792-2.416 8.2693-8.3555-9e-3 -21.898-7.4163-21.898-11.976 0-4.3368 4.2275-17.007 8.6208-25.837 5.0837-10.218 12.149-13.349 37.288-16.524l21.47-2.7118v-12.889c0-12.236-2.5153-18.169-5.5923-13.191-2.9268 4.7357-5.0101 1.8874-7.7762-10.632-3.4838-15.768-5.2895-18.204-12.475-16.83-3.0804 0.58885-5.5909 0.19472-5.5789-0.87567 0.0633-5.6567 28.349-34.513 33.831-34.513 0.98502 0 4.6361-1.1148 8.1136-2.4773 6.2586-2.4522 6.2714-2.497 1.2692-4.4196-6.7662-2.6006-6.4267-6.579 0.5615-6.579 5.2674 0 5.615-0.72087 5.615-11.647 0-8.982 1.1562-12.881 5.0535-17.042l5.0535-5.3957-9.6386 3.8476c-5.3012 2.1162-10.355 3.0774-11.23 2.136-0.87523-0.94138-0.31636-2.1667 1.2419-2.7229 1.5583-0.55617 3.8926-2.9908 5.1875-5.4102 2.143-4.0043 1.9483-4.1455-2.1696-1.5738-6.991 4.366-7.4302 1.4033-1.5794-10.653 2.9512-6.0815 4.9844-11.46 4.5182-11.952-1.0637-1.1235-17.874 10.432-21.458 14.751-1.4642 1.7642-5.4073 10.991-8.7624 20.505-7.4695 21.18-12.126 23.533-14.29 7.2203-0.83265-6.2768-0.85439-14.928-0.0483-19.224 1.1823-6.3022 0.83115-7.5686-1.8169-6.5525-1.8053 0.69278-5.4878 4.2425-8.1833 7.8884-5.9335 8.0255-11.664 8.9448-9.8185 1.5753 1.2031-4.8048 1.0546-4.8687-3.0178-1.298-2.3557 2.0655-7.0625 4.4491-10.46 5.297-8.6116 2.1492-7.8439 7.5116 2.8075 19.612 7.8923 8.9661 8.9839 11.555 8.9839 21.305 0 12.773-2.3054 15.561-18.815 22.748-12.88 5.6073-12.629 5.5687-12.629 1.94 0-1.5558 1.9749-4.062 4.3886-5.5694 9.7895-6.1136 9.5554-10.264-1.4399-25.532-5.6876-7.8974-10.647-14.728-11.021-15.179-0.37411-0.45115-4.4999 2.3282-9.1684 6.1764-10.293 8.4843-15.109 8.7249-26.034 1.3008-10.617-7.2147-10.606-10.007 0.0402-10.097 13.323-0.11298 17.027-4.2764 15.292-17.19-0.91454-6.8086-0.31212-14.557 1.6266-20.921 2.7797-9.1245 2.6812-10.762-1.0124-16.845-5.6487-9.3018-5.203-11.757 3.0447-16.773l7.1598-4.3542-6.183-2.3508c-3.4007-1.2929-7.6333-2.3508-9.4058-2.3508-4.2217 0-4.1333-5.4322 0.14621-8.9839 4.0605-3.3699 4.5373 0.1725 0.5615 4.1714-2.2531 2.2662-0.37225 2.6876 9.5244 2.1337 13.47-0.75384 15.174-5.2662 9.2533-13.255-2.8789-3.8842-10.657 4.6101-14.89 7.1973-6.8118 4.1638-5.732-0.81844 0.95915-5.2026 6.3215-4.142 12.594-11.703 19.358-1.5928 2.3168 3.4629 1.8109 4.0306 7.9464 0.85781 7.6189-3.9399 8.5895-9.0949 2.1002-11.155-6.8347-2.1692-5.3677-7.2479 2.8075-9.7191 17.019-5.1445 17.558-5.0656 20.958 3.0715 1.7525 4.1944 3.1766 10.943 3.1645 14.998-0.0231 7.7986-7.9929 26.212-15.233 35.195-3.6428 4.5198-3.9767 6.729-2.1217 14.037 3.1158 12.275 10.547 10.594 18.142-4.1046 2.0357-3.9397 5.903-8.7052 8.594-10.59 4.3162-3.0232 4.45-3.5968 1.1358-4.8686-2.7229-1.0449-3.7568-4.1571-3.7568-11.308 0-12.187 2.4891-12.534 21.337-2.9761l13.476 6.8336 1.4606-5.1776c0.80334-2.8477 1.5614-9.9126 1.6845-15.7 0.12308-5.7872 1.2096-13.115 2.4143-16.283 2.5915-6.8161 2.4803-6.8448-7.7009-1.9897-7.2312 3.4483-14.382 2.5689-8.8316-1.0861 1.9523-1.2856 14.342-26.092 14.342-28.715 0-0.42958-1.6915-0.13206-3.7589 0.66133-2.8477 1.0928-3.4092 0.53122-2.3165-2.3165 1.1989-3.1244-0.0582-3.7589-7.4469-3.7589-4.8892 0-14.206 2.0209-20.705 4.4908-6.4985 2.47-12.068 4.4913-12.377 4.492-1.4516 2e-3 -0.34768-6.4526 1.216-7.1112 0.97763-0.41176 4.5015-4.3638 7.8309-8.7822l6.0534-8.0335-31.035-28.853-0.99283 9.2922c-0.64098 5.9992-4.4533 14.556-10.758 24.144-8.696 13.227-10.559 14.852-17.022 14.852-4.9533 0-8.3672-1.5847-10.754-4.9917-4.7474-6.7779-4.4077-8.4842 1.6893-8.4842 9.2841 0 12.131-4.6648 15.076-24.706 1.5433-10.5 4.2465-21.939 6.0071-25.419 3.0956-6.12 3.046-6.2454-1.5077-3.8083-2.5898 1.386-5.2982 5.4673-6.0186 9.0694-0.77464 3.8731-3.1749 7.1413-5.874 7.998-7.6857 2.4393-26.188 1.6108-29.733-1.3315-3.7834-3.1399-4.8596-29.182-1.206-29.182 1.1791 0 4.6706 2.5267 7.7588 5.615 7.8866 7.8866 13.23 7.1699 17.786-2.3857 2.7207-5.7054 6.7061-9.2794 13.892-12.458 9.9796-4.4144 12.174-7.1779 7.8307-9.8621-1.2353-0.76346-2.246-4.7832-2.246-8.9328 0-10.966-2.0374-14.65-8.1012-14.65-7.0224 0-6.8697-4.6166 0.43996-13.304 7.3677-8.756 12.198-8.7054 22.38 0.23442 6.866 6.0284 8.0014 8.3093 7.2671 14.599-0.66747 5.7173-0.027 7.4542 2.7484 7.4542 3.675 0 13.447-11.359 13.447-15.631 0-1.2853 1.516-2.3369 3.369-2.3369 4.9117 0 4.1216-3.9504-1.123-5.615-2.4706-0.78414-4.492-3.379-4.492-5.7663 0-3.6922 1.6237-4.3406 10.869-4.3406 9.468 0 11.205 0.73754 13.476 5.7206 7.1801 15.759 0.9569 32.392-14.299 38.219-7.7129 2.9456-11.631 6.2544-15.77 13.316-8.3785 14.297-7.4216 17.455 10.629 35.081 8.8744 8.6657 17.909 16.705 20.078 17.866 7.1797 3.8425 6.5253-1.664-1.4372-12.092-4.3031-5.6356-7.8239-10.813-7.8239-11.504 0-2.4513 5.8977-1.2019 14.124 2.9921l8.3358 4.2498v-4.9436c0-9.1977 5.0832-13.35 14.239-11.633 4.5213 0.8482 8.2205 1.9496 8.2205 2.4477 0 0.49802-2.5267 3.6319-5.615 6.9641-3.0882 3.3322-5.615 7.7808-5.615 9.8856 0 4.2072 12.431 22.469 15.295 22.469 0.98522 0 5.2014-3.5184 9.3694-7.8186 4.168-4.3002 10.959-8.9345 15.091-10.298 5.4047-1.7837 8.8314-5.1049 12.21-11.834 2.5831-5.1448 7.129-12.599 10.102-16.565l5.4055-7.2113-19.518-0.64961c-13.133-0.43711-19.822-1.5681-20.448-3.4571-0.54596-1.6483 1.0122-2.8075 3.7737-2.8075 7.2117 0 27.083-9.8694 21.5-10.678-2.4706-0.35788-10.219-2.279-17.219-4.2691-12.335-3.5068-12.966-3.4707-20.479 1.1725-4.2635 2.635-9.939 4.7909-12.612 4.7909-7.5109 0-20.438-6.1393-20.438-9.7063 0-1.7586 4.5255-7.369 10.057-12.468 9.2534-8.5295 11.048-9.27 22.46-9.27 6.8217 0 12.403 0.88622 12.403 1.9694 0 4.2079 22.279 11.507 35.123 11.507h12.954l-8.6354-8.8434c-11.897-12.183-19.77-15.25-26.997-10.514-8.4474 5.5349-10.199 4.4972-10.199-6.0417 0-15.21 3.3994-17.969 26.2-21.269 10.913-1.5793 23.192-3.4662 27.287-4.1931 5.6902-1.0103 10.796 0.37982 21.672 5.8999 15.707 7.9723 27.438 8.4965 49.053 2.1921 13.593-3.9644 14.957-2.2774 15.005 18.547 0.0306 13.421-0.67572 15.895-6.4117 22.46-5.1188 5.8585-5.9494 8.157-4.0337 11.163 2.0665 3.2424 3.8097 1.702 12.16-10.745 14.586-21.743 22.158-42.876 26.425-73.749 2.0374-14.743 3.257-29.145 2.7102-32.005-0.58048-3.0365 0.0979-5.2 1.6305-5.2 3.7346 0 10.855 29.11 9.0897 37.164l-1.4535 6.633 6.967-7.3975c3.8319-4.0686 7.8753-6.8361 8.9854-6.15 4.7379 2.9282 10.126 25.335 9.9419 41.342l-0.19069 16.565 7.5145-8.7037c20.679-23.952 33.635-49.864 46.126-92.256 9.9936-33.915 12.989-33.438 13.424 2.1353 0.18507 15.132 0.75757 24.734 1.2722 21.337 0.51462-3.397 1.8792-6.1765 3.0325-6.1765 3.637 0 2.5613 63.211-1.2661 74.397l-3.363 9.8278 6.6839-7.861c3.6762-4.3235 7.279-9.6296 8.0062-11.791 2.7448-8.1589 5.5115-3.4441 5.5115 9.3922 0 23.603-18.12 66.037-34.004 79.634-5.2129 4.462-8.6752 8.1128-7.6939 8.1128 3.0957 0 37.206-20.984 37.206-22.888 0-0.99969 1.0107-1.8176 2.246-1.8176s2.246 4.8921 2.246 10.871c0 9.0695-1.8774 13.995-11.327 29.718-12.68 21.097-18.159 27.721-27.978 33.818-3.7059 2.3016-5.6649 4.1886-4.3535 4.1932 2.7154 9e-3 34.36-8.134 39.964-10.285 8.9422-3.4315 1.8548 4.8549-22.696 26.536-14.515 12.818-30.866 25.487-36.337 28.154-12.274 5.9833-8.5782 8.2477 11.134 6.8218 7.376-0.53353 13.411-0.21943 13.411 0.69819 0 2.4775-30.628 21.101-45.545 27.695-7.1382 3.155-16.487 5.7363-20.775 5.7363h-7.7969v20.214c0 11.118-0.57753 20.214-1.2834 20.214-0.70587 0-2.9115-1.6281-4.9014-3.6181-3.3268-3.3267-3.8563-3.2922-6.5776 0.42928-1.6445 2.249-2.9595 9.8443-2.9595 17.094 0 12.404-2.5045 16.974-5.3042 9.6776-1.9332-5.0378-4.5209-4.1076-8.8202 3.1705l-3.863 6.5395 10.678 7.8968c11.43 8.4525 29.042 26.08 34.991 35.021 5.0585 7.6026 1.2651 11.383-11.422 11.383-8.8099 0-11.503 1.2539-20.5 9.5454l-10.358 9.5454-0.70381-7.2994c-0.93808-9.7294-4.1628-9.2451-7.006 1.0522-3.6014 13.043 2.3539 31.009 15.845 47.801l6.3183 7.8641-3.2162 13.473c-4.1854 17.533-4.1878 31.945-7e-3 43.794 1.8529 5.2518 3.369 13.45 3.369 18.218 0 9.1136-4.5584 28.964-6.6423 28.925-0.67027-0.0135-2.9123-4.0553-4.9824-8.9839-3.1828-7.5769-4.7882-8.9611-10.394-8.9611-3.6464 0-7.8752-1.5007-9.3975-3.335-2.372-2.858-3.4648-2.3006-7.6419 3.8978-2.6808 3.978-7.3085 8.4464-10.284 9.9298-2.9754 1.4834-6.7674 5.2882-8.4268 8.4552-4.1417 7.9047-11.158 7.3979-15.892-1.148-7.7442-13.979-9.017-14.979-12.81-10.071-1.8529 2.3979-3.369 8.2093-3.369 12.914 0 4.7051-0.81241 8.5547-1.8054 8.5547-0.99297 0-4.9697-3.2848-8.8372-7.2994z"/>
<path d="m307.23 666.38c3.1538-3.2107 2.5556-5.3232-2.2334-7.8862-11.228-6.009-15.548 7.9209-6.3392 20.442l5.0535 6.8713 0.71159-8.6468c0.39137-4.7557 1.6547-9.6069 2.8075-10.78z" fill="#e20909"/>
<path d="m337.75 674.13c2.1891-3.7059 4.773-6.738 5.742-6.738 2.9213 0 1.9807-6.0062-1.377-8.7929-2.435-2.0209-5.2047-1.5281-12.353 2.1977-5.0678 2.6415-9.2141 5.575-9.2141 6.519 0 2.6487 9.064 13.552 11.266 13.552 1.0758 0 3.7471-3.0321 5.9362-6.738z" fill="#e20909"/>
<path d="m285.22 663.46c0.75043-8.6771 0.35566-14.037-1.0338-14.037-2.9074 0-15.294 8.8045-15.294 10.871 0 1.9239 13.764 18.835 14.554 17.881 0.30813-0.37238 1.1065-6.9939 1.7742-14.714z" fill="#e20909"/>
<path d="m391.99 652.23c-0.57151-6.8628-1.8292-8.7395-7.0896-10.579-5.311-1.8568-6.9289-1.5055-9.5454 2.0729-1.7328 2.3697-3.1506 6.7518-3.1506 9.7378 0 4.6762 0.7823 5.2328 5.6407 4.0134 4.5819-1.15 6.1345-0.33184 8.2716 4.3585 2.1982 4.8245 2.9547 5.1957 4.5995 2.2565 1.0827-1.9348 1.656-7.272 1.2738-11.861z" fill="#e20909"/>
<path d="m357.55 646.06c0.0384-6.5445 1.0471-10.099 2.8669-10.104 1.5972-4e-3 2.8075 2.7789 2.8075 6.4558 0 3.5546 1.516 7.7211 3.369 9.2589 2.8375 2.3549 3.369 1.9346 3.369-2.6647 0-9.0879 4.9875-13.824 13.277-12.607 6.5459 0.96074 7.1215 0.59977 5.7753-3.6218-3.351-10.508-3.5085-30.062-0.34907-43.345l3.3181-13.95-7.4596-9.6323c-8.6465-11.165-17.62-35.882-15.596-42.955 0.76489-2.6722 1.884-6.6273 2.4868-8.7891 0.79307-2.8438-0.20821-3.9305-3.6219-3.9305-2.5949 0-9.5021-2.4243-15.349-5.3873-5.8473-2.963-14.91-6.5394-20.139-7.9475-12.135-3.2676-12.086-5.9823 0.14015-7.8158 9.3859-1.4075 9.6242-1.6503 8.7728-8.9423-0.48463-4.1513 0.72224-10.584 2.705-14.419 1.969-3.8077 3.5939-11.774 3.6107-17.703 0.0591-20.758 5.0879-28.222 7.6408-11.341 2.4343 16.097 4.8665 16.688 7.9955 1.9432 1.577-7.4311 2.304-14.979 1.6156-16.773-2.1426-5.5835-33.012-28.883-36.496-27.546-1.7856 0.6852-3.2466 2.3588-3.2466 3.7191 0 1.3603-3.1309 7.0238-6.9575 12.586-5.714 8.305-6.6992 11.489-5.5122 17.816 1.8274 9.7407-7.0785 32.047-9.8448 24.659-1.5091-4.0308-1.749-3.9432-3.0764 1.123-0.79185 3.0221-0.28358 8.6956 1.1295 12.608 2.0785 5.7546 1.7943 9.9754-1.4877 22.1-2.7377 10.114-4.6771 14.009-5.9644 11.978-1.486-2.3445-1.9151-2.3732-1.9419-0.12982-0.0786 6.5809 6.5924 17.894 14.791 25.084 5.8737 5.1507 9.9753 11.425 12.457 19.056 2.1709 6.6748 3.7953 9.3429 3.9305 6.4557 0.12667-2.7065 1.0691-5.4392 2.0941-6.0727 2.1736-1.3434 23.4 19.924 27.077 27.129 3.7367 7.3229 3.045 18.447-2.0934 33.662l-4.5967 13.612-11.687 1.4039c-6.4277 0.77214-15.105 1.4127-19.283 1.4234-9.6229 0.0247-20.389 6.6331-25.811 15.843-3.4531 5.8656-3.661 7.4886-1.1577 9.0357 1.9436 1.2012 4.6948 0.39449 7.5781-2.222 5.8156-5.2776 13.385-9.1612 17.855-9.1612 6.0554 0 3.8447 3.4709-4.0224 6.3158-4.1465 1.4994-9.3566 4.7345-11.578 7.1892-3.9439 4.3579-3.8822 4.463 2.6178 4.463 3.6612 0 8.6187 1.4839 11.017 3.2976 6.1354 4.6406 7.7286 4.2334 7.7286-1.975 0-5.144 11.097-17.045 15.894-17.045 4.0053 0 2.0073 3.6963-4.6643 8.6288-3.7059 2.7399-6.738 6.4674-6.738 8.2833 0 4.0815 0.24039 4.0799 8.1657-0.0535 9.1204-4.7566 11.28-4.2666 14.639 3.3211 2.9605 6.6883 2.9778 6.6935 7.4283 2.243 3.1019-3.1019 4.479-7.5368 4.5203-14.558z" fill="#fcef3c"/>
<path d="m160.5 614.05c-1.9392-2.1618-4.4163-7.3992-5.5048-11.639-2.6087-10.161-6.3016-11.014-10.717-2.476-4.2107 8.1425-3.1197 10.665 6.4061 14.81 10.384 4.5187 14.247 4.245 9.8153-0.69538z" fill="#e20909"/>
<path d="m228.25 610.35c4.8612-5.1745 4.9154-5.6647 1.3827-12.496-4.1684-8.0607-7.5642-7.9373-12.292 0.44655-2.6133 4.6345-2.7347 6.9473-0.60965 11.611 3.2816 7.2023 5.0991 7.2715 11.519 0.43828z" fill="#e20909"/>
<path d="m173.11 593.68c1.221-7.6357 2.6145-9.1641 12.633-13.857 6.1936-2.9009 12.022-4.4593 12.952-3.4631s0.68033 2.1959-0.55496 2.666c-15.652 5.9561-28.26 19.445-15.981 17.098 3.1028-0.59314 7.8522 0.5312 10.715 2.5367 7.9248 5.5508 13.502 4.7543 11.883-1.6969-0.93759-3.7356 0.31864-7.2143 4.2581-11.791 3.0734-3.5709 6.3518-5.7305 7.2853-4.7992 0.9335 0.93134-0.49657 4.0286-3.1779 6.8827-5.2446 5.5826-6.1565 9.4578-2.7248 11.579 1.1827 0.73093 3.7354-1.7362 5.6726-5.4824 4.6323-8.9578 9.2376-8.6059 14.991 1.1456 4.4417 7.5281 4.9175 7.7554 8.8271 4.2173 3.9884-3.6094 3.893-4.0877-2.741-13.73-3.7803-5.4946-6.2706-10.593-5.5339-11.33 1.5718-1.5718 1.3036-1.855 8.5488 9.0265l5.6558 8.4944 3.8053-5.8077c2.0929-3.1942 5.893-6.5799 8.4445-7.5238 4.2508-1.5725 3.8168-2.348-5.1844-9.2628-5.403-4.1506-10.719-8.3125-11.813-9.2486-1.1016-0.9425-0.34999-3.3413 1.6845-5.3757 4.8544-4.8544 4.5762-15.747-0.69904-27.366-2.3508-5.1779-3.3964-9.726-2.3236-10.107 1.0894-0.38674 0.97543-8.13-0.25807-17.537-1.2148-9.2647-1.6011-21.14-0.85848-26.39 1.2077-8.5376 0.86902-9.5454-3.2076-9.5454-2.6626 0-5.9512 2.5684-7.9086 6.1765-1.8429 3.397-3.3913 5.4601-3.4407 4.5847-0.19113-3.3835-22.415 9.8467-31.057 18.489l-9.0942 9.0942 5.1735 5.1735c2.8454 2.8454 5.8903 9.4163 6.7664 14.602 1.3415 7.9405 2.2682 9.2142 5.8715 8.0705 5.7961-1.8396 8.774 6.4505 8.774 24.425v13.959l-22.158 2.6498c-24.697 2.9534-32.377 5.6452-37.227 13.047-3.0098 4.5935-2.9144 5.134 1.0915 6.1815 2.9322 0.76678 4.3896 3.0821 4.3896 6.9732 0 5.118 0.9195 5.8252 7.5739 5.8252 7.0404 0 7.6706-0.60452 8.9463-8.5824z" fill="#fcef3c"/>
<path d="m271.14 594.83c0-15.275-10.839-19.446-18.833-7.2456-3.395 5.1814-3.2938 5.4096 3.0128 6.7947 3.5892 0.78832 7.7301 2.8844 9.202 4.6579 4.3204 5.2058 6.6181 3.7452 6.6181-4.2071z" fill="#e20909"/>
<path d="m290.67 525.68c4.8038-1.7823 4.8345-2.0223 1.1778-9.2311-2.3736-4.6792-3.817-13.183-3.9246-23.123-0.1826-16.85-1.9287-21.701-10.797-29.995-7.2903-6.8183-10.489-4.6413-10.441 7.1058 0.0535 12.978-7.232 44.448-10.071 43.504-1.2763-0.42438-2.9589-3.7203-3.7392-7.3243-1.1845-5.4708-1.4626-5.694-1.6845-1.3516-0.14621 2.8606-1.3249 7.1801-2.6194 9.5989-2.0878 3.9011-1.0099 5.0231 9.5454 9.935 11.914 5.5441 19.436 5.7477 32.553 0.88121z" fill="#fcef3c"/>
<path d="m412.17 501.19c6.0477 0 9.4507-1.0078 9.4507-2.7988 0-3.2584-34.891-37.629-38.199-37.629-1.2256 0-2.2284 3.3428-2.2284 7.4286 0 6.2961 1.6058 8.5605 10.533 14.853l10.533 7.4246-5.4199 2.9007c-5.7759 3.0912-27.018 2.1289-34.176-1.5481-2.4203-1.2434-3.9305-4.6063-3.9305-8.7527 0-7.4002 9.3988-27.583 16.14-34.659 2.3538-2.4706 7.9673-11.054 12.475-19.074 8.0521-14.328 8.0909-14.514 2.2221-10.668-3.2851 2.1525-6.564 3.9136-7.2865 3.9136-0.72247 0-0.6386-5.9657 0.18619-13.257 1.4321-12.658 1.1246-13.822-6.8021-25.764-5.5897-8.4213-12.292-14.913-20.515-19.871-20.901-12.602-30.89-17.474-35.639-17.381-3.9301 0.0773-3.704 0.56383 1.5989 3.4407 8.3728 4.5423 7.7658 6.9068-2.246 8.7498-15.754 2.9001-26.469 9.0566-30.483 17.515-2.0727 4.3681-3.7686 10.063-3.7686 12.656 0 4.0946-1.3375 4.714-10.179 4.714-5.5985 0-13.937 1.5654-18.529 3.4786-8.3828 3.4922-23.735 16.783-27.642 23.93-1.935 3.54-1.5081 3.5818 5.7206 0.56149 8.9997-3.7603 19.186-4.3007 19.186-1.0179 0 1.2353-1.4983 2.246-3.3295 2.246s-7.8954 4.3749-13.476 9.7219c-9.4268 9.0325-10.134 10.506-9.969 20.775 0.16957 10.568 0.28037 10.758 2.5262 4.3155 2.8002-8.0327 12.613-19.091 16.94-19.091 1.6947 0 2.571 0.82566 1.9474 1.8348-2.85 4.6113-5.6823 40.895-4.3118 55.237 1.7901 18.732 4.5933 13.447 4.9568-9.3444 0.12308-7.7206 1.0746-14.037 2.1143-14.037 1.9952 0 6.9084 14.419 7.3592 21.597 0.68229 10.864 3.7228-11.32 3.9605-28.897 0.14622-10.809 1.1676-19.652 2.2698-19.652 1.1022 0 7.5015 5.9379 14.221 13.195 8.7129 9.4109 12.859 16.013 14.456 23.021l2.2394 9.826 1.6719-10.107c1.4732-8.9061 0.71847-12.034-6.3531-26.328-4.4137-8.9216-8.0112-19.029-7.9943-22.46 0.0467-9.4946 2.4134-16.346 5.6466-16.346 4.3682 0 14.591 13.186 16.11 20.78 1.1019 5.5096 1.6978 6.0286 3.4097 2.9696 2.8099-5.021 0.25099-15.55-7.5523-31.073-6.1684-12.271-6.3257-13.284-3.0482-19.622 1.9007-3.6756 6.5737-10.234 10.384-14.574 6.1235-6.9743 8.1413-7.8712 17.364-7.7187 12.212 0.20192 27.696 4.442 28.848 7.8998 0.44266 1.328-1.4977 3.524-4.312 4.88-4.7947 2.3103-4.622 2.4797 2.7441 2.6922 9.3091 0.2685 15.891 5.2523 19.945 15.103 2.5584 6.2167 2.277 10.377-2.1272 31.444-4.6618 22.299-6.876 27.519-11.713 27.614-0.96629 0.018-2.6709-2.2397-3.7881-5.0191-1.94-4.8266-2.0376-4.7711-2.1736 1.2345-0.0784 3.4584-1.7356 9.369-3.6829 13.135-2.0626 3.9887-3.2346 10.69-2.8075 16.053 0.65203 8.1891 0.11252 9.3813-4.8819 10.786-4.9545 1.3933-5.0538 1.6053-0.84438 1.8029 2.6238 0.12308 9.513 2.8745 15.309 6.1141 8.3955 4.6923 12.564 5.662 20.497 4.7679 9.8675-1.1122 9.9579-1.0596 9.9579 5.7955v6.9179l8.5171-8.3168c7.0915-6.9246 10.099-8.3168 17.968-8.3168z" fill="#fcef3c"/>
<path d="m389.88 486.33c-6.9099-3.8311-8.686-3.8112-8.686 0.0973 0 3.4638 5.9744 5.5956 10.932 3.9007 2.133-0.7292 1.4469-1.9504-2.246-3.9978z" fill="#2b5df2"/>
<path d="m145.18 486.81c3.8842-4.6802 6.7213-16.209 5.3135-21.592-1.2036-4.6026-1.4026-4.5649-7.69 1.4589-4.1704 3.9955-6.0081 7.5899-5.1932 10.157 0.69367 2.1855 0.15901 6.0333-1.1882 8.5505-2.0677 3.8636-1.78 4.5768 1.8465 4.5768 2.3628 0 5.4729-1.4181 6.9113-3.1513z" fill="#e20909"/>
<path d="m376.7 474.24c0-8.7665-0.97343-15.722-2.2003-15.722-3.158 0-11.276 16.779-11.276 23.306 0 5.5972 2.4498 7.6402 9.5454 7.9603 3.3859 0.15273 3.9305-2.0011 3.9305-15.545z" fill="#fcef3c"/>
<path d="m143.12 461.88c2.9012-3.0882 4.1569-5.615 2.7904-5.615-3.689 0-12.082-12.744-14.004-21.262-1.6224-7.1934-1.4133-7.4857 6.2408-8.7278 7.9843-1.2957 20.694-11.245 20.694-16.199 0-1.4712 2.2741-4.3383 5.0535-6.3713 4.9884-3.6489 4.9547-3.678-2.6195-2.2594-4.2201 0.79038-9.7168 3.3412-12.215 5.6686-2.4981 2.3273-6.839 4.2315-9.6464 4.2315-4.2057 0-5.7116-2.0444-8.5528-11.612-1.8966-6.3866-2.982-12.078-2.412-12.648 0.56998-0.56998 0.0256-2.9248-1.2097-5.233-2.3791-4.4455 0.91627-6.175 3.5735-1.8754 1.7988 2.9105 9.0382-6.0642 13.494-16.729 3.2557-7.792 3.2046-7.9886-2.893-11.142-5.593-2.8923-6.7293-2.7871-11.484 1.0628-2.9021 2.35-6.6998 4.2726-8.4394 4.2726-2.1634 0-2.7601 1.6052-1.8881 5.0795 0.70118 2.7938-0.25393 8.7385-2.1225 13.211-2.5408 6.0811-2.8515 10.035-1.2321 15.681 2.6576 9.2664 2.7462 13.195 0.29771 13.195-1.0272 0-2.9628-4.7859-4.3013-10.635-1.9224-8.401-1.766-12.233 0.74459-18.242 4.0407-9.6707 4.002-11.725-0.19068-10.116-1.8529 0.71106-3.369 3.1801-3.369 5.4868 0 2.3884-2.9008 5.6941-6.738 7.6783-7.9655 4.1191-7.9798 4.1984-2.3832 13.254 4.0997 6.6334 4.1505 7.6667 0.86713 17.64-4.7613 14.463-2.577 26.379 4.8355 26.379 3.2167 0 5.882-1.6389 6.662-4.0965 1.6911-5.3283 14.244-17.346 16.139-15.451 0.80377 0.80377-2.2178 5.5338-6.7145 10.511s-8.1759 9.9165-8.1759 10.976c0 1.0594 2.6462 5.8256 5.8806 10.592 14.805 21.816 15.137 22.006 23.317 13.298z" fill="#fcef3c"/>
<path d="m222.15 463.72c-1.6213-0.64879-3.5585-0.56902-4.3048 0.17721-0.74634 0.74634 0.58021 1.2772 2.9478 1.1796 2.6164-0.10781 3.1486-0.63997 1.3569-1.3569z"/>
<path d="m239.7 457.58c0-1.7519 0.58996-5.0367 1.311-7.2994 1.0209-3.2038 0.27535-2.9408-3.369 1.1881-5.5279 6.263-5.9557 9.2966-1.311 9.2966 1.8529 0 3.369-1.4334 3.369-3.1853z"/>
<path d="m104.67 451.84c5.1091-4.3694 7.1355-7.7002 6.1875-10.171-1.7745-4.6244-10.201-2.559-14.62 3.5834-1.7285 2.4025-5.7551 4.283-9.1711 4.283-8.8028 0-10.154 2.674-2.9609 5.8599 9.258 4.1006 12.209 3.5904 20.565-3.5558z" fill="#e20909"/>
<path d="m295.85 450.65c0-1.8529-0.97898-3.369-2.1755-3.369-1.1965 0-1.5937 1.516-0.88267 3.369 0.71104 1.8529 1.69 3.369 2.1755 3.369 0.48547 0 0.8827-1.516 0.8827-3.369z"/>
<path d="m193.23 416.66c4.069-7.8686 14.831-16.625 27.515-22.389 4.8627-2.2094 9.5992-4.4074 10.526-4.8842 3.7638-1.9374 1.2716 4.4537-5.4618 14.006-3.9305 5.5762-6.6636 10.621-6.0737 11.211s6.7745-3.4025 13.743-8.8722c6.9689-5.4697 17.03-12.003 22.357-14.518 5.3275-2.515 12.554-6.8713 16.059-9.6806 5.6444-4.524 6.1943-6.0592 4.8112-13.432-0.92829-4.9482-5.219-12.479-10.58-18.57-4.9601-5.635-8.2878-10.96-7.3947-11.832 3.0438-2.9749 19.19 17.946 21.776 28.214l2.5194 10.006 3.6006-6.0631c1.9803-3.3347 7.3907-8.0164 12.023-10.404s8.4224-5.2226 8.4224-6.3006c0-2.3927-5.5865-4.6866-11.414-4.6866-2.3695 0-4.3083-1.0107-4.3083-2.246s4.1742-2.246 9.276-2.246h9.276l-1.1392-10.107c-0.62656-5.5588-0.56001-10.107 0.14779-10.107 0.70789 0 5.5204 4.8008 10.694 10.668l9.4074 10.668 1.7072-20.214c0.93898-11.118 0.76986-27.036-0.3758-35.374-2.4455-17.798 0.26076-19.953 8.9673-7.1407l5.4495 8.0197 3.9277-10.284c3.8502-10.082 3.7932-27.823-0.12129-37.76-2.6999-6.8541 2.0869-4.2154 7.9163 4.3638l5.615 8.2636 0.66939-16.61c0.60772-15.08 0.19698-16.967-4.4584-20.478-6.1034-4.6038-4.2202-7.8606 2.4737-4.2781 4.1183 2.204 4.6845 1.8818 4.6845-2.6656 0-5.644-10.069-21.937-13.557-21.937-1.1908 0-2.1788 2.7794-2.1957 6.1764-0.0786 15.824-4.7695 20.145-12.536 11.546l-4.2786-4.7374-2.4471 8.6679c-3.217 11.395-8.2162 12.039-15.077 1.9427l-5.5121-8.1119-1.5485 6.2955c-2.3191 9.4288-7.5598 16.402-12.326 16.402-2.3323 0-6.8986-3.159-10.147-7.02-3.2488-3.861-6.4412-6.4857-7.0942-5.8327-2.9333 2.9332-21.088 31.687-21.088 33.4 0 1.0521 2.5267 1.913 5.615 1.913 10.154 0 5.8664 3.5413-7.6729 6.3378-7.3083 1.5095-15.647 4.7102-18.529 7.1126l-5.2415 4.368 5.0535 0.0748c8.3483 0.12353 5.7166 3.4577-4.9891 6.321-5.5234 1.4773-13.34 5.6322-17.37 9.2331l-7.3275 6.5471 10.632-1.1984c5.8476-0.65912 10.581-0.30893 10.519 0.77819-0.062 1.0871-6.1462 4.8355-13.52 8.3298-10.419 4.9369-14.399 8.2967-17.855 15.071-2.4461 4.7946-4.4474 9.8041-4.4474 11.132 0 3.3327 6.4617-0.32585 14.144-8.0082 3.3758-3.3758 6.6808-5.595 7.3443-4.9315 0.6635 0.66353-1.7996 7.1335-5.4735 14.378-4.789 9.4429-6.9743 17.463-7.7198 28.332-0.57192 8.3382-0.23819 15.16 0.74162 15.16s7.4951-4.6543 14.479-10.343c14.55-11.852 20.375-11.218 6.8056 0.74147-12.144 10.703-21.5 16.321-27.197 16.331-2.6053 4e-3 -10.691-3.0109-17.968-6.7011-7.277-3.6902-13.484-6.7223-13.792-6.738-0.30882-0.0157-0.56149 2.475-0.56149 5.5347 0 6.0164 6.095 11.114 16.283 13.619 9.6902 2.3825 7.2364 5.5236-4.3151 5.5236-6.6107 0-12.011 1.375-14.599 3.7171-6.2736 5.6775-4.951 7.2357 4.3151 5.0839 17.909-4.159 27.89-1.063 14.48 4.4917-9.3439 3.8704-18.417 13.162-18.36 18.803l0.0499 4.9626 3.8805-4.6366c4.6875-5.6009 16.182-13.008 17.751-11.439 0.6205 0.6205-0.10915 6.6574-1.6216 13.415-1.5479 6.9169-2.011 15.092-1.0596 18.704 1.6525 6.2733 1.778 6.1634 5.6302-4.9287 2.167-6.2398 5.5263-14.413 7.4651-18.162z" fill="#fcef3c"/>
<path d="m298.09 436.79c0-5.8325-5.5028-14.214-9.332-14.214-3.7642 0-2 15.439 2.0326 17.788 6.0557 3.5271 7.2994 2.9182 7.2994-3.5737z" fill="#fcef3c"/>
<path d="m391.53 429.93c-0.74634-0.74632-1.2772 0.58023-1.1796 2.9479 0.10781 2.6164 0.63997 3.1486 1.3569 1.357 0.6488-1.6213 0.56902-3.5585-0.1772-4.3048z"/>
<path d="m367.72 413.96c0-1.0326-3.6726-6.5914-8.1614-12.353-7.1053-9.12-9.2124-10.458-16.283-10.343-7.2085 0.11724-7.6394 0.43298-3.831 2.8075 2.3601 1.4715 9.4349 6.8988 15.722 12.061 12.895 10.587 12.554 10.375 12.554 7.828z" fill="#2b5df2"/>
<path d="m392.39 410.55c-0.018-1.4119-1.0141-4.0832-2.2116-5.9362-1.8826-2.9132-2.1819-2.862-2.2116 0.37779-0.018 2.0607-0.65225 5.3569-1.4074 7.3249-1.005 2.6189-0.40286 3.2058 2.246 2.1894 1.9905-0.76381 3.6036-2.544 3.5847-3.9559z" fill="#fcef3c"/>
<path d="m306.09 394.23c-0.73762-2.939-2.2245-5.3436-3.304-5.3436-4.0983 0-4.4324 7.1272-0.70376 15.012l3.8752 8.195 0.73687-6.26c0.40528-3.443 0.13341-8.6646-0.60429-11.604z"/>
<path d="m322.79 386.08c0.0112-8.5465 3.3277-10.946 8.2814-5.9921 1.7432 1.7432 3.7754 1.5904 7.1872-0.54025 6.4712-4.0414 5.9915-5.5736-2.2619-7.2243-13.297-2.6593-18.945-1.5582-25.132 4.8997-5.4822 5.7221-5.7346 6.7059-2.7376 10.668 1.8158 2.4008 3.3651 8.9131 3.443 14.472l0.14149 10.107 5.5334-8.9839c3.2885-5.3392 5.538-12.401 5.5449-17.406z" fill="#fcef3c"/>
<path d="m408.14 392.01c0-16.619-0.28017-17.494-10.107-31.551-5.5588-7.952-10.107-14.915-10.107-15.473 0-3.859 4.7985 1.0401 13.305 13.584 9.1096 13.433 10.543 14.596 17.95 14.567 5.0943-0.0202 16.709-4.2827 31.633-11.608l23.583-11.576-14.599-1.7563c-29.141-3.5057-42.674-6.805-42.674-10.404 0-2.8894 2.5443-3.1939 16.286-1.9487 13.797 1.2503 17.645 0.78284 25.181-3.0592 4.8923-2.4942 9.8108-4.535 10.93-4.535 1.679 0 29.321-23.424 41.935-35.536 2.96-2.8422 2.6874-3.0493-2.246-1.7061-11.749 3.199-40.025 7.5792-57.834 8.9592-15.728 1.2187-18.529 0.91852-18.529-1.9857 0-2.5457 2.5266-3.4215 9.8703-3.4215 14.471 0 38.393-8.1132 47.501-16.11 10.366-9.1017 30.222-41.526 30.222-49.352v-6.1309l-14.893 9.048c-8.1913 4.9764-18.989 10.493-23.995 12.259-13.107 4.6245-44.76 12.305-45.922 11.143-1.8096-1.8096 1.9273-5.7775 5.4412-5.7775 6.333 0 40.008-17.069 48.657-24.664 4.6842-4.1128 10.517-11.398 12.961-16.19 8.2728-16.216 17.972-45.355 17.298-51.966-0.64181-6.2951-1.308-5.7738-15.642 12.24-17.797 22.365-39.296 43.906-41.56 41.641-0.88914-0.88914 4.9346-8.4101 12.942-16.713 8.9593-9.2907 17.55-21.125 22.336-30.771 7.2966-14.704 7.824-17.276 8.5181-41.551l0.73991-25.876-8.9057 13.476c-11.718 17.731-22.061 29.586-24.083 27.603-0.89457-0.87701 2.378-6.4358 7.2725-12.353 19.671-23.781 19.833-24.221 18.956-51.428l-0.78888-24.464-7.2659 22.46c-16.434 50.8-26.357 66.131-75.899 117.26-20.715 21.379-37.728 40.126-37.807 41.661-3.0591 59.328-3.9521 62.145-28.83 90.934-8.7702 10.149-15.946 19.752-15.946 21.341 0 1.5881 5.7358 6.3183 12.746 10.511 17.919 10.718 28.728 21.104 36.986 35.537 4.6423 8.114 9.3455 13.288 13.508 14.859 3.512 1.3256 6.3854 3.1993 6.3854 4.1638s1.0107 1.7536 2.246 1.7536c1.3006 0 2.246-7.1951 2.246-17.093z" fill="#fcef3c"/>
<path d="m369.96 403.66c0-4.5251-10.974-17.017-14.949-17.017-2.1938 0-0.51084 3.4278 4.9622 10.107 9.0337 11.024 9.9867 11.684 9.9867 6.9103z" fill="#fcef3c"/>
<path d="m279.06 386.74c-0.7301-1.1813-2.8111-1.5785-4.6245-0.88269-4.6427 1.7816-4.0956 3.0306 1.3275 3.0306 2.5435 0 4.0272-0.96656 3.297-2.1479z"/>
<path d="m148.67 348.56c1.9696-3.1868-4.8584-18.079-8.2467-17.987-1.6072 0.0438-5.3017 1.3992-8.2102 3.0121l-5.2881 2.9325 8.6073 7.0949c9.228 7.6065 11.067 8.2989 13.138 4.9478z" fill="#e20909"/>
<path d="m317.18 339.48c-0.76345-1.2353-1.8338-2.246-2.3785-2.246s-0.99043 1.0107-0.99043 2.246 1.0703 2.246 2.3785 2.246c1.3082 0 1.7539-1.0107 0.99043-2.246z"/>
<path d="m353.3 310.06c15.6-19.068 18.68-27.294 18.838-50.316 0.22714-33.099-0.18394-32.252 31.557-65.005l28.527-29.436 1.5112-14.544c1.0688-10.287 0.47653-18.461-2.0233-27.926-1.944-7.3601-3.8255-13.673-4.1811-14.029s-3.0166 1.8762-5.9132 4.9595c-2.8967 3.0834-7.5358 5.6061-10.309 5.6061-4.7098 0-4.8945-0.5358-2.7996-8.1226 1.2335-4.4674 1.5041-10.784 0.60127-14.037-1.2446-4.4846-2.3983-0.51312-4.7715 16.425-3.5686 25.47-12.411 49.715-25.463 69.817l-8.7962 13.547-1.5244 31.934c-0.83843 17.564-1.9406 31.934-2.4492 31.934-0.5086 0-2.8797-1.0462-5.269-2.325-3.9118-2.0935-4.3443-1.5397-4.3443 5.5627 0 7.8594-8.7873 32.689-11.571 32.695-0.80516 2e-3 -3.3319-2.9489-5.615-6.5569l-4.151-6.56v23.21c0 26.53-0.84597 26.382 18.147 3.1676z" fill="#fcef3c"/>
<path d="m112.97 294c2.3771-2.7794 5.5939-7.3275 7.1485-10.107 2.7087-4.8428 2.3778-5.3322-4.024-5.9519-1.2762-0.12353-3.5737 2.3021-5.1055 5.3904-1.753 3.5341-5.0544 5.8783-8.9087 6.3256-5.291 0.61398-5.8076 1.3011-3.7994 5.0535 3.1018 5.7958 9.3844 5.4919 14.689-0.71061z" fill="#e20909"/>
<path d="m185.28 292.31c11.532 0 13.423-0.73184 20.996-8.1267l8.3225-8.1267-7.6663-10.671c-8.5382-11.884-9.3619-16.821-4.0682-24.379 3.9737-5.6732 2.96-8.3659-2.3782-6.3174-2.3307 0.89439-3.4658 4.2954-3.4658 10.384 0 6.3862-0.95371 9.0544-3.2364 9.0544-1.78 0-3.8577-1.0053-4.617-2.2339-0.75935-1.2287-3.5984-3.3971-6.309-4.8188-4.6836-2.4565-4.7475-2.3734-1.2865 1.6724 7.0985 8.298 9.2546 14.372 6.3459 17.877-1.4723 1.774-4.9112 3.2254-7.642 3.2254-3.7929 0-6.5882 3.1471-11.84 13.33l-6.8747 13.33 5.5231-2.0999c3.0377-1.1549 11.226-2.0999 18.197-2.0999z" fill="#fcef3c"/>
<path d="m167.82 273.5c0-1.7017 1.5285-4.3625 3.3967-5.9129 4.112-3.4127 1.3924-7.5305-8.2753-12.53-8.2792-4.2813-24.319-24.674-24.319-30.919 0-2.6878 2.049-8.4085 4.5534-12.713 2.5044-4.3042 5.1136-9.4593 5.7983-11.456 0.68471-1.9964 4.9719-4.7465 9.5271-6.1113 4.5552-1.3648 10.284-3.9517 12.731-5.7487 4.3618-3.2034 4.3198-3.4024-2.1478-10.172-6.9289-7.2525-10.248-8.6483-10.248-4.3093 0 1.4275-2.5973 6.0008-5.7718 10.163-5.5475 7.2732-13.401 9.2456-18.1 4.5459-0.87025-0.87026-3.9405-1.5822-6.8229-1.5822-4.1121 0-5.2406 1.2262-5.2406 5.694 0 3.1317 1.653 8.2167 3.6732 11.3 4.2833 6.5371 4.8314 5.8446-8.5498 10.801-13.492 4.9969-17.368 9.3195-12.616 14.071 3.1138 3.1138 4.1463 3.1025 10.364-0.11275 3.7981-1.9641 7.9665-3.571 9.2632-3.571 3.7431 0 2.7464 6.3807-2.0315 13.005-2.5832 3.5817-5.011 11.845-5.9006 20.084-1.3135 12.164-0.99001 14.198 2.4679 15.525 5.7015 2.1879 10.068-4.9005 10.068-16.344 0-5.2498 0.98643-10.155 2.1921-10.9 1.2056-0.74513 8.9083 5.7647 17.117 14.466 14.959 15.857 18.873 18.496 18.873 12.727z" fill="#fcef3c"/>
<path d="m104.49 244.7c3.7217-3.7217 3.3728-9.6684-0.76898-13.106-2.6239-2.1776-4.0948-2.2443-6.0642-0.275-4.1325 4.1325-13.31 3.0274-18.963-2.2835l-5.1982-4.8835v5.8602c0 3.2231 0.98567 8.4528 2.1904 11.621 1.9727 5.1887 3.3788 5.7612 14.15 5.7612 6.5776 0 13.172-1.2128 14.654-2.6952z" fill="#e20909"/>
<path d="m299.83 219.88c1.259-1.5441 3.5641-7.1029 5.1225-12.353 1.5584-5.25 3.5499-9.5454 4.4255-9.5454 0.87562 0 4.4145 4.2651 7.8642 9.478 5.5854 8.4401 6.4616 8.9935 8.0015 5.0535 0.95113-2.4335 1.8004-7.2039 1.8872-10.601 0.18731-7.331 4.5124-8.0408 10.265-1.6845 5.835 6.4475 7.8609 5.5793 7.8609-3.369 0-5.9703-0.94533-7.873-3.9305-7.9109-5.0518-0.0642-15.606-8.1144-13.456-10.264 0.90044-0.90044 3.4916 0.0411 5.7582 2.0924 6.1681 5.582 22.41 4.9332 28.89-1.1539 4.449-4.1796 5.1982-7.0932 5.1982-20.214 0-8.4317-0.88362-15.33-1.9636-15.33s-6.2605 1.516-11.512 3.369c-5.2518 1.8529-12.353 3.369-15.781 3.369-5.3273 0-6.5158 1.1981-8.1835 8.2498-1.0731 4.5374-3.3559 8.718-5.073 9.2904-2.1845 0.72815-2.6744-0.12577-1.6315-2.8434 4.3364-11.301 4.2664-14.697-0.30314-14.697-2.479 0-10.271-3.0321-17.316-6.738-13.352-7.0234-20.137-8.1943-25.829-4.4576-2.9946 1.9659-2.9946 2.4573 0 4.4232 1.8529 1.2164 5.9918 2.2271 9.1973 2.246 3.2056 0.018 7.6577 2.0558 9.8935 4.5264 2.2505 2.4868 6.9176 4.492 10.455 4.492 3.5144 0 6.3898 1.0107 6.3898 2.246s-3.0458 2.246-6.7684 2.246-8.694 1.2026-11.048 2.6723c-5.1569 3.2205-12.018-1.1775-10.855-6.9578 1.2127-6.0251-19.501-13.578-33.094-12.067-13.743 1.5275-16.845 3.7768-16.845 12.215 0 5.9247 0.43974 6.3066 4.6601 4.048 5.8118-3.1104 22.292-0.61877 22.292 3.3703 0 1.587 4.6969 7.215 10.438 12.506l10.438 9.621-8.0096 6.9485c-4.4053 3.8217-12.852 10.233-18.769 14.248l-10.76 7.2994h13.686c13.166 0 14.001-0.34863 21.982-9.1837 4.5633-5.051 8.8961-8.5845 9.6285-7.8521s-0.86223 3.6668-3.5436 6.521c-6.0675 6.4586-6.0667 7.834 9e-3 14.301 5.5884 5.9486 7.1382 6.3072 10.331 2.3907z" fill="#fcef3c"/>
<path d="m334.83 171.48c-4.0683-6.5144 1.3311-11.68 12.208-11.68 9.6551 0 13.356 4.2898 10.383 12.036-2.0546 5.3541-19.194 5.0839-22.591-0.35615z"/>
<path d="m354.24 167.66c0-3.6959-14.483-4.9451-16.651-1.4363-1.9493 3.1541 1.1997 4.8052 9.1647 4.8052 5.1574 0 7.4866-1.0481 7.4866-3.369z"/>
<path d="m214.51 194.61c9.5597-6.496 16.772-7.0254 28.568-2.0967 5.7662 2.4093 11.339 3.0375 17.681 1.9931 15.923-2.6225 17.195-5.3685 2.5224-5.4448-10.209-0.053-16.928-1.703-27.715-6.8062-18.898-8.94-25.122-8.7023-36.289 1.3861-4.9447 4.4673-8.9904 8.9312-8.9904 9.9198 0 1.6198 9.6556 6.044 14.157 6.4864 0.992 0.0975 5.5221-2.3494 10.067-5.4376z" fill="#e20909"/>
<path d="m138.15 179.75c0.90828-4.7696-10.068-17.706-15.024-17.706-2.1297 0-6.777 3.0321-10.327 6.738-6.3447 6.6225-6.3676 6.738-1.336 6.738 2.8157 0 7.7463 2.0663 10.957 4.5918 6.6373 5.2209 14.703 5.0354 15.73-0.36189z" fill="#e20909"/>
<path d="m179.05 172c0-12.121-3.3707-16.697-12.299-16.697-8.6794 0-12.389 3.3852-5.6432 5.1493 2.4567 0.64244 4.4667 2.9662 4.4667 5.1641 0 4.1046 8.3071 14.392 11.621 14.392 1.0199 0 1.8545-3.6039 1.8545-8.0086z" fill="#e20909"/>
<path d="m1.5 1.5v458.87c0 166.31 134.31 301.13 300 301.13 165.69 0 300-134.82 300-301.13v-458.87h-600z" fill="url(#a) #000000"/>
<path d="m1.5 1.5v458.87c0 166.31 134.31 301.13 300 301.13 165.69 0 300-134.82 300-301.13v-458.87h-600z" fill="none" stroke="#000" stroke-width="3"/>
</g>
</svg>
