<?xml version="1.0" encoding="UTF-8"?>
<svg version="1.0" viewBox="0 0 603 763" xmlns="http://www.w3.org/2000/svg" xmlns:cc="http://web.resource.org/cc/" xmlns:dc="http://purl.org/dc/elements/1.1/" xmlns:rdf="http://www.w3.org/1999/02/22-rdf-syntax-ns#" xmlns:xlink="http://www.w3.org/1999/xlink">
<metadata>
<rdf:RDF>
<cc:Work rdf:about="">
<dc:format>image/svg+xml</dc:format>
<dc:type rdf:resource="http://purl.org/dc/dcmitype/StillImage"/>
<dc:date>07-AUG-2006</dc:date>
<dc:creator>
<cc:Agent>
<dc:title>Jérôme BLUM (wagner51)</dc:title>
</cc:Agent>
</dc:creator>
<cc:license rdf:resource="http://creativecommons.org/licenses/GPL/2.0/"/>
<dc:coverage/>
<dc:description>Gabarit pour le Projet:Blasons de WIkipédia</dc:description>
<dc:subject>
<rdf:Bag>
<rdf:li>blason suisse modèle gabarit projet blasons</rdf:li>
</rdf:Bag>
</dc:subject>
<dc:language>fr</dc:language>
<dc:title>Gabrit d'un blason suisse</dc:title>
</cc:Work>
<cc:License rdf:about="http://creativecommons.org/licenses/GPL/2.0/">
<cc:permits rdf:resource="http://web.resource.org/cc/Reproduction"/>
<cc:permits rdf:resource="http://web.resource.org/cc/Distribution"/>
<cc:requires rdf:resource="http://web.resource.org/cc/Notice"/>
<cc:permits rdf:resource="http://web.resource.org/cc/DerivativeWorks"/>
<cc:requires rdf:resource="http://web.resource.org/cc/ShareAlike"/>
<cc:requires rdf:resource="http://web.resource.org/cc/SourceCode"/>
</cc:License>
</rdf:RDF>
</metadata>
<defs>
<radialGradient id="a" cx="858.04" cy="579.93" r="300" gradientTransform="matrix(1.215 1.5316e-24 1.4647e-23 1.2667 -839.19 -490.49)" gradientUnits="userSpaceOnUse">
<stop stop-color="#fff" stop-opacity=".31373" offset="0"/>
<stop stop-color="#fff" stop-opacity=".25098" offset=".19"/>
<stop stop-color="#6b6b6b" stop-opacity=".12549" offset=".6"/>
<stop stop-opacity=".12549" offset="1"/>
</radialGradient>
</defs>
<desc>Coat of Arms of Canton of Freiburg (Fribourg)</desc>
<g>
<path d="m1.5 1.5v458.87c0 166.31 134.31 301.13 300 301.13 165.69 0 300-134.82 300-301.13v-458.87h-600z" fill="#fff"/>
<path d="m492.49 254.32c-7.9418-16.861-6.4957-24.736-5.668-35.576-22.884 15.08-36.488 39.441-52.212 61.682-5.479-10.908-7.4756-21.816-6.6186-32.724-22.394 9.9226-40.557 28.309-59.305 45.522-3.0194-10.274-5.0406-20.549-4.2777-30.823-32.069 18.21-64.873 29.083-98.209 34.626 69.482-51.733-2.5251-97.169-55.503-123.84-53.091-26.653-82.89-56.264-56.454-93.016-26.731 36.705 3.2312 66.513 56.454 93.016 52.889 26.629 125.21 72.338 55.503 123.84-44.234 8.3979-84.021-34.449-129.51-45.082-12.316 9.5176-26.568 15.164-27.971 46.508-33.558-12.423-16.9-51.179-3.838-72.103-24.498 3.3144-32.871 22.754-44.096 39.343-20.566-48.214 14.382-65.203 37.477-78.282-28.517-13.573-45.703 1.81-63.108 16.635-8.5065-48.321 19.243-64.013 61.207-66.91-13.057-11.227-30.911-17.221-57.88-13.273 18.275-49.506 48.624-38.096 73.054-31.334-6.7175-18.763-16.501-35.589-46.983-39.343 35.285-38.286 86.628-3.4102 89.689 26.985-77.197 43.192-40.604 110.92-22.779 157.55-17.544-46.504-54.387-114.6 22.779-157.55 33.756-10.003 47.731 13.469 49.324 44.167 13.936 10.861 32.381 20.595 56.454 28.922l70.237-40.329c-7.8924-3.6135-15.921-6.7519-21.353-18.976 27.585-0.93142 53.254-11.442 79.708-18.026-17.332-4.6292-21.467-13.029-30.859-19.927 32.113-0.67623 65.87-9.567 99.159-16.125 32.611 40.354 74.097 78.933 112.47 118.14-26.67 30.618-58.212 54.276-76.892 96.308z" fill-rule="evenodd" stroke="#fff" stroke-width="3.8903px"/>
<path d="m201.66 321.44v134.47h-199.72c1.4407 46.644 10.096 88.117 24.312 124.38 46.173 106.64 152.03 181.22 275.25 181.22 139.8 0 257.27-95.982 290.56-225.88 0.01065-0.04155 0.02062-0.08344 0.03125-0.125 5.3878-24.573 8.4937-51.103 8.9688-79.594h-202.31v-134.47h-197.09z" fill-rule="evenodd" stroke="#000" stroke-width="3.8903px"/>
<path d="m1.5 1.5v458.87c0 166.31 134.31 301.13 300 301.13 165.69 0 300-134.82 300-301.13v-458.87h-600z" fill="url(#a)"/>
<path d="m1.5 1.5v458.87c0 166.31 134.31 301.13 300 301.13 165.69 0 300-134.82 300-301.13v-458.87h-600z" fill="none" stroke="#000" stroke-width="3"/>
</g>
</svg>
