<?xml version="1.0" encoding="UTF-8" standalone="no"?>
<svg
   xmlns:dc="http://purl.org/dc/elements/1.1/"
   xmlns:cc="http://creativecommons.org/ns#"
   xmlns:rdf="http://www.w3.org/1999/02/22-rdf-syntax-ns#"
   xmlns:svg="http://www.w3.org/2000/svg"
   xmlns="http://www.w3.org/2000/svg"
   xmlns:xlink="http://www.w3.org/1999/xlink"
   xmlns:sodipodi="http://sodipodi.sourceforge.net/DTD/sodipodi-0.dtd"
   xmlns:inkscape="http://www.inkscape.org/namespaces/inkscape"
   height="763"
   width="603"
   version="1.0"
   id="svg20"
   sodipodi:version="0.32"
   inkscape:version="0.46"
   sodipodi:docname="Saubraz-coat_of_arms.svg"
   sodipodi:docbase="C:\Documents and Settings\Steve\Bureau\Blason Villages Suisse pour Wikipédia (par Delta-9)"
   inkscape:output_extension="org.inkscape.output.svg.inkscape">
  <metadata
     id="metadata31">
    <rdf:RDF>
      <cc:Work
         rdf:about="">
        <dc:format>image/svg+xml</dc:format>
        <dc:type
           rdf:resource="http://purl.org/dc/dcmitype/StillImage" />
        <dc:date>07-AUG-2006</dc:date>
        <dc:creator>
          <cc:Agent>
            <dc:title>Jérôme BLUM (wagner51)</dc:title>
          </cc:Agent>
        </dc:creator>
        <cc:license
           rdf:resource="http://creativecommons.org/licenses/GPL/2.0/" />
        <dc:coverage />
        <dc:description>Gabarit pour le Projet:Blasons de WIkipédia</dc:description>
        <dc:subject>
          <rdf:Bag>
            <rdf:li>blason suisse modèle gabarit projet blasons</rdf:li>
          </rdf:Bag>
        </dc:subject>
        <dc:language>fr</dc:language>
        <dc:title>Gabrit d'un blason suisse</dc:title>
      </cc:Work>
      <cc:License
         rdf:about="http://creativecommons.org/licenses/GPL/2.0/">
        <cc:permits
           rdf:resource="http://web.resource.org/cc/Reproduction" />
        <cc:permits
           rdf:resource="http://web.resource.org/cc/Distribution" />
        <cc:requires
           rdf:resource="http://web.resource.org/cc/Notice" />
        <cc:permits
           rdf:resource="http://web.resource.org/cc/DerivativeWorks" />
        <cc:requires
           rdf:resource="http://web.resource.org/cc/ShareAlike" />
        <cc:requires
           rdf:resource="http://web.resource.org/cc/SourceCode" />
      </cc:License>
    </rdf:RDF>
  </metadata>
  <defs
     id="defs29"><inkscape:perspective
   sodipodi:type="inkscape:persp3d"
   inkscape:vp_x="0 : 381.5 : 1"
   inkscape:vp_y="0 : 1000 : 0"
   inkscape:vp_z="603 : 381.5 : 1"
   inkscape:persp3d-origin="301.5 : 254.33333 : 1"
   id="perspective28" />
<linearGradient
   id="linearGradient2893">
  <stop
     style="stop-color:#ffffff;stop-opacity:0.3137255;"
     offset="0"
     id="stop2895" />
  <stop
     id="stop2897"
     offset="0.19"
     style="stop-color:#ffffff;stop-opacity:0.25098041;" />
  <stop
     style="stop-color:#6b6b6b;stop-opacity:0.1254902;"
     offset="0.60000002"
     id="stop2901" />
  <stop
     style="stop-color:#000000;stop-opacity:0.1254902;"
     offset="1"
     id="stop2899" />
</linearGradient>
<linearGradient
   id="linearGradient2955">
  <stop
     style="stop-color:white;stop-opacity:0;"
     offset="0"
     id="stop2965" />
  <stop
     style="stop-color:black;stop-opacity:0.64583331;"
     offset="1"
     id="stop2959" />
</linearGradient>
<radialGradient
   inkscape:collect="always"
   xlink:href="#linearGradient2893"
   id="radialGradient3236"
   gradientUnits="userSpaceOnUse"
   gradientTransform="matrix(1.215027,1.531577e-24,1.464684e-23,1.266667,-839.1924,-490.4894)"
   cx="858.04236"
   cy="579.93323"
   fx="858.04236"
   fy="579.93323"
   r="300" />
<inkscape:perspective
   id="perspective2524"
   inkscape:persp3d-origin="297.63751 : 280.63 : 1"
   inkscape:vp_z="595.27502 : 420.94501 : 1"
   inkscape:vp_y="0 : 1000 : 0"
   inkscape:vp_x="0 : 420.94501 : 1"
   sodipodi:type="inkscape:persp3d" />

	
	
	

	
	

		
		
		
		
		
		
		
		
		
		
		
		
		
		
		
		
		
		
		
		
		
		
		
		
		
			
		
			
	</defs>
  <sodipodi:namedview
     inkscape:window-height="968"
     inkscape:window-width="1280"
     inkscape:pageshadow="2"
     inkscape:pageopacity="0.0"
     guidetolerance="10.0"
     gridtolerance="10.0"
     objecttolerance="10.0"
     borderopacity="1.0"
     bordercolor="#666666"
     pagecolor="#ffffff"
     id="base"
     inkscape:zoom="0.92652193"
     inkscape:cx="173.53758"
     inkscape:cy="399.00713"
     inkscape:window-x="1280"
     inkscape:window-y="22"
     inkscape:current-layer="layer2"
     showgrid="false"
     showguides="true"
     inkscape:guide-bbox="true">
    <sodipodi:guide
       orientation="horizontal"
       position="761.5"
       id="guide1885" />
    <sodipodi:guide
       orientation="vertical"
       position="1.5"
       id="guide1887" />
    <sodipodi:guide
       orientation="horizontal"
       position="1.5"
       id="guide1889" />
    <sodipodi:guide
       orientation="vertical"
       position="601.5"
       id="guide1891" />
    <sodipodi:guide
       orientation="vertical"
       position="301.50081"
       id="guide1893" />
  </sodipodi:namedview>
  <desc
     id="desc22">Coat of Arms of Canton of Freiburg (Fribourg)</desc>
  <g
     inkscape:groupmode="layer"
     id="layer1"
     inkscape:label="Fond écu"
     style="opacity:1"
     sodipodi:insensitive="true">
    <path
       id="path1899"
       d="M 1.5,1.49998 L 1.5,460.3679 C 1.5,626.6785 135.81456,761.5 301.49999,761.5 C 467.18543,761.5 601.5,626.6785 601.5,460.3679 L 601.5,1.49998 L 1.5,1.49998 z"
       style="fill:#e20909;fill-opacity:1" />
    <path
       id="path2486"
       d="M 301.499,761.5 C 467.185,761.5 601.499,626.68 601.499,460.369 L 601.499,1.5009964 L 301.499,1.5009964 L 301.499,761.5 L 301.499,761.5 z"
       style="opacity:1;fill:#fcef3c" />
  </g>
  <g
     inkscape:groupmode="layer"
     id="layer2"
     inkscape:label="Meubles"
     style="opacity:1"
     sodipodi:insensitive="true">
    <line
       id="line2489"
       y2="1.5009956"
       x2="301.49899"
       y1="761.5"
       x1="301.49899"
       style="fill:none;stroke:#000000;stroke-width:3" />
    <g
       id="g2668">
      <path
         d="M 244.433,471.844 C 215.871,483.561 175.592,502.604 165.705,502.604 C 155.818,502.604 143.872,490.657 140.302,487.086 C 136.732,483.516 133.025,469.647 118.469,469.647 C 103.914,469.647 95.126,484.204 95.126,484.204 C 95.126,484.204 109.132,474.866 112.153,480.907 C 115.174,486.95 124.786,494.364 140.989,505.899 C 140.989,505.899 127.258,509.469 118.469,505.899 C 109.681,502.329 97.597,501.504 91.555,507.545 C 85.513,513.588 85.925,521.963 87.71,523.748 C 87.71,523.748 90.731,515.236 96.223,515.236 C 101.716,515.236 110.504,520.177 124.235,520.177 C 137.967,520.177 153.896,520.177 153.896,520.177 C 153.896,520.177 150.325,528.14 137.967,535.829 C 125.609,543.518 109.405,550.933 120.116,576.751 C 120.116,576.751 120.06,565.382 126.432,562.194 C 131.376,559.721 136.044,555.602 146.755,547.913 C 157.466,540.224 164.606,533.907 166.528,533.907 C 168.451,533.907 185.203,541.872 195.09,549.286 C 204.977,556.702 210.469,560.821 206.35,572.081 C 206.35,572.081 220.905,566.04 214.314,552.583 C 207.723,539.126 199.759,535.28 190.421,531.985 C 181.084,528.69 173.119,520.723 171.746,519.35 C 171.746,519.35 217.884,515.782 261.55,489.416 L 261.55,471.291 L 244.433,471.844 z"
         id="path2564"
         style="fill:#ffffff;stroke:#000000;stroke-width:3;stroke-linecap:round;stroke-linejoin:round" />
      <path
         d="M 307.413,466.35 C 328.973,507.957 348.607,559.176 355.198,578.401 C 355.198,578.401 342.842,570.987 327.463,559.452 C 312.084,547.917 312.358,541.876 306.04,541.876 C 299.724,541.876 286.542,545.995 282.561,559.04 C 282.561,559.04 298.352,550.663 302.747,557.804 C 307.143,564.947 312.908,563.847 326.64,573.185 C 340.37,582.521 350.808,588.837 350.808,588.837 C 350.808,588.837 335.704,586.64 324.444,588.837 C 313.184,591.034 308.516,588.288 304.946,588.288 C 301.376,588.288 286.82,581.972 281.739,607.925 C 281.739,607.925 288.794,595.945 297.805,599.548 C 301.925,601.196 309.889,602.569 324.444,601.196 C 338.999,599.823 349.161,603.393 359.872,599.823 C 359.872,599.823 338.863,617.538 333.921,624.54 C 328.977,631.544 320.874,630.171 321.698,644.311 C 322.522,658.456 332.135,656.122 332.135,656.122 C 332.135,656.122 329.527,644.587 332.822,642.804 C 336.118,641.017 338.591,639.37 340.787,635.249 C 342.983,631.132 365.228,615.202 373.881,602.706 C 373.881,602.706 383.491,605.179 398.598,601.47 C 413.702,597.765 417.823,596.529 423.452,594.195 C 429.082,591.861 437.32,594.334 432.24,608.886 C 432.24,608.886 447.757,595.156 437.731,582.384 C 427.709,569.614 414.387,584.032 407.66,586.23 C 400.931,588.427 378,581.011 376.902,589.937 C 376.902,589.937 375.94,577.031 366.053,574.007 C 366.053,574.007 357.587,500.04 330.122,458.663 L 307.413,466.35 z"
         id="path2566"
         style="fill:#ffffff;stroke:#000000;stroke-width:3;stroke-linecap:round;stroke-linejoin:round" />
      <path
         d="M 370.912,277.036 C 372.357,264.359 373.325,250.153 373.325,234.565 C 373.325,190.624 356.846,124.712 344.215,106.038 C 355.198,104.116 377.993,119.495 382.8,131.716 C 386.599,141.372 399.908,142.969 411.02,172.067 C 410.658,139.299 408.073,109.138 401.887,96.151996 C 409.575,94.778996 431.124,105.672 435.665,126.361 C 440.608,148.881 454.342,142.976 454.342,184.308 C 454.342,207.436 450.695,233.239 442.385,258.635 C 467.329,215.476 483.071,168.371 478.782,135.15 C 484.647,141.016 491.348,150.499 494.721,170.637 C 496.087,178.786 497.091,188.68 495.443,200.786 C 494.143,210.341 495.634,221.589 492.753,233.716 C 485.886,262.59 469.877,296.935 440.162,329.262 C 466.775,310.087 494.981,286.69 520.489,259.97 C 520.489,259.97 524.874,285.298 505.696,306.793 C 493.201,320.799 500.775,332.585 481.803,351.558 C 474.262,359.098 465.513,365.323 456.194,370.567 C 476.824,364.191 499.068,354.921 521.259,341.488 C 521.259,341.488 520.967,347.676 517.897,356.628 C 516.76,359.943 514.668,363.637 512.012,367.536 C 509.018,371.933 507.574,377.28 503.41,382.293 C 495.334,392.025 483.609,401.728 466.604,409.142 C 479.164,408.373 494.167,406.325 512.651,402.639 C 512.651,402.639 511.274,419.02 495.442,426.258 C 489.034,429.187 483.5,438.518 460.471,440.537 C 455.452,440.976 447.6,441.08 438.559,439.256 C 441.922,443.194 445.058,447.555 446.649,451.385 C 449.368,457.932 447.884,468.344 456.673,476.514 C 460.653,480.217 463.537,479.811 463.537,479.811 C 445.274,503.016 426.081,481.747 426.081,481.747 C 426.971,501.214 407.786,514.003 407.786,514.003 C 412.317,482.009 392.27,466.903 392.27,466.903 C 401.195,486.813 389.524,498.348 389.524,498.348 C 382.932,474.592 356.156,456.879 356.156,456.879 C 365.083,474.18 357.391,479.123 357.391,479.123 C 364.806,485.029 367.828,493.816 367.828,493.816 C 330.066,499.17 323.2,479.123 323.2,479.123 C 325.262,495.187 317.846,505.486 317.846,505.486 C 317.846,505.486 317.846,498.896 311.256,493.677 C 306.721,490.087 302.965,482.208 298.156,476.21 C 291.639,478.017 283.944,481.501 271.982,487.773 C 254.955,496.699 247.266,508.093 247.266,508.093 C 246.167,487.773 252.347,478.296 252.347,478.296 C 232.71,480.357 220.627,475.55 220.627,475.55 C 224.168,474.655 228.286,473.093 232.407,471.29 C 179.668,470.794 150.87,424.173 150.87,394.671 C 150.87,362.814 171.848,336.449 199.039,320.725 C 221.45,307.764 249.193,303.219 272.073,303.219 C 299.535,303.219 313.084,307.248 313.084,307.248 C 313.084,307.248 329.196,290.587 329.196,268.25 C 329.196,232.366 293.675,205.451 282.508,199.226 C 275.185,203.987 246.074,214.789 229.779,214.789 C 213.485,214.789 210.738,210.761 210.738,210.761 C 198.471,216.437 142.263,238.773 128.348,244.082 C 114.434,249.391 110.406,242.435 110.406,242.435 C 139.7,228.337 200.484,200.874 200.484,200.874 C 147.389,208.747 94.843,219.915 94.843,219.915 C 95.942,209.113 104.547,206.733 139.883,195.565 C 175.219,184.397 190.64,181.733 190.64,181.733 C 190.987,177.162 193.716,165.964 206.71,158.031 C 220.808,149.427 246.348,150.135 246.989,149.976 C 253.55,148.334 263.965,139.174 267.8,133.803 C 267.8,133.803 271.705,149.06 260.904,156.201 C 260.904,156.201 272.255,156.201 290.198,165.721 C 308.141,175.242 341.28,196.113 356.475,228.52 C 364.991,246.671 369.013,263.131 370.912,277.036 z"
         id="path2568"
         style="fill:#ffffff;stroke:#000000;stroke-width:3;stroke-linecap:round;stroke-linejoin:round" />
      <path
         d="M 119.293,225.501 C 119.293,225.501 172.937,208.108 200.491,200.876"
         id="path2572"
         style="fill:none;stroke:#000000;stroke-width:3;stroke-linecap:round;stroke-linejoin:round" />
      <path
         d="M 254.547,459.899 C 254.547,459.899 243.47,466.458 232.411,471.294"
         id="path2574"
         style="fill:none;stroke:#000000;stroke-width:3;stroke-linecap:round;stroke-linejoin:round" />
      <path
         d="M 261.689,436.555 C 261.689,436.555 266.008,457.578 290.8,469.784 C 293.585,471.155 295.982,473.489 298.163,476.21"
         id="path2576"
         style="fill:none;stroke:#000000;stroke-width:3;stroke-linecap:round;stroke-linejoin:round" />
      <path
         d="M 357.397,479.122 C 349.983,473.218 338.31,461.684 334.191,455.505"
         id="path2578"
         style="fill:none;stroke:#000000;stroke-width:3;stroke-linecap:round;stroke-linejoin:round" />
      <path
         d="M 426.085,481.745 C 425.796,475.38 423.357,468.302 417.402,460.724"
         id="path2580"
         style="fill:none;stroke:#000000;stroke-width:3;stroke-linecap:round;stroke-linejoin:round" />
      <path
         d="M 228.32,395.223 C 223.239,390.142 216.785,371.88 227.221,358.148 C 237.657,344.417 258.255,340.023 283.246,337.276 C 308.237,334.529 374.148,315.58 386.781,299.926 C 386.781,299.926 390.901,335.903 368.656,350.458 C 368.656,350.458 379.641,359.521 389.254,355.95 C 389.254,355.95 382.938,367.21 369.205,368.858 C 369.205,368.858 381.563,370.78 385.408,387.533 C 385.408,387.533 372.775,383.963 365.637,393.85 C 365.637,393.85 376.346,394.949 378.132,406.345 C 378.132,406.345 363.163,407.032 358.495,416.37 C 358.495,416.37 365.637,419.116 369.205,427.081 C 369.205,427.081 363.713,427.355 361.103,435.183"
         id="path2582"
         style="fill:none;stroke:#000000;stroke-width:3;stroke-linecap:round;stroke-linejoin:round" />
      <path
         d="M 438.563,439.254 C 428.8,437.283 417.654,433.066 407.198,424.608 C 390.988,411.493 371.811,411.899 359.601,414.562"
         id="path2584"
         style="fill:none;stroke:#000000;stroke-width:3;stroke-linecap:round;stroke-linejoin:round" />
      <path
         d="M 368.736,390.577 C 379.823,389.764 390.945,391.156 404.45,397.694 C 420.689,405.555 436.746,410.967 466.606,409.141"
         id="path2586"
         style="fill:none;stroke:#000000;stroke-width:3;stroke-linecap:round;stroke-linejoin:round" />
      <path
         d="M 384.326,383.779 C 402.268,382.662 427.691,379.376 456.194,370.566"
         id="path2588"
         style="fill:none;stroke:#000000;stroke-width:3;stroke-linecap:round;stroke-linejoin:round" />
      <path
         d="M 374.081,370.768 C 392.53,360.976 415.674,346.906 440.162,329.261"
         id="path2590"
         style="fill:none;stroke:#000000;stroke-width:3;stroke-linecap:round;stroke-linejoin:round" />
      <path
         d="M 380.583,336.985 C 403.21,316.783 425.024,288.664 442.385,258.633"
         id="path2592"
         style="fill:none;stroke:#000000;stroke-width:3;stroke-linecap:round;stroke-linejoin:round" />
      <path
         d="M 387.011,310.213 C 396.887,298.234 405.835,278.959 408.479,246.282 C 410.239,224.516 411.3,197.505 411.02,172.066"
         id="path2594"
         style="fill:none;stroke:#000000;stroke-width:3;stroke-linecap:round;stroke-linejoin:round" />
      <path
         d="M 364.927,313.775 C 367.062,303.601 369.288,291.284 370.912,277.035"
         id="path2596"
         style="fill:none;stroke:#000000;stroke-width:3;stroke-linecap:round;stroke-linejoin:round" />
      <path
         d="M 309.887,351.831 C 309.887,351.831 330.484,354.852 315.379,367.21 C 315.379,367.21 332.681,374.35 317.025,384.512 C 317.025,384.512 334.052,388.082 317.025,402.088"
         id="path2598"
         style="fill:none;stroke:#000000;stroke-width:3;stroke-linecap:round;stroke-linejoin:round" />
      <path
         d="M 295.606,372.978 C 295.606,372.978 309.612,379.02 297.803,388.357 C 297.803,388.357 311.261,392.477 301.647,402.088"
         id="path2600"
         style="fill:none;stroke:#000000;stroke-width:3;stroke-linecap:round;stroke-linejoin:round" />
      <path
         d="M 391.45,196.116 C 391.45,196.116 395.395,259.951 379.967,305.754"
         id="path2602"
         style="fill:none;stroke:#000000;stroke-width:3;stroke-linecap:round;stroke-linejoin:round" />
      <path
         d="M 428.801,202.158 C 428.801,202.158 427.409,261.562 403.702,313.33"
         id="path2604"
         style="fill:none;stroke:#000000;stroke-width:3;stroke-linecap:round;stroke-linejoin:round" />
      <path
         d="M 380.218,356.259 C 380.218,356.259 420.919,333.926 457.911,270.816"
         id="path2606"
         style="fill:none;stroke:#000000;stroke-width:3;stroke-linecap:round;stroke-linejoin:round" />
      <path
         d="M 382.853,380.306 C 382.853,380.306 424.59,365.654 474.389,326.84"
         id="path2608"
         style="fill:none;stroke:#000000;stroke-width:3;stroke-linecap:round;stroke-linejoin:round" />
      <path
         d="M 416.553,402.956 C 416.553,402.956 436.308,401.905 472.925,383.963"
         id="path2610"
         style="fill:none;stroke:#000000;stroke-width:3;stroke-linecap:round;stroke-linejoin:round" />
      <path
         d="M 375.937,400.334 C 385.592,400.334 394.716,402.87 416.168,412.524 C 424.405,416.231 445.965,426.669 466.698,423.508"
         id="path2612"
         style="fill:none;stroke:#000000;stroke-width:3;stroke-linecap:round;stroke-linejoin:round" />
      <ellipse
         transform="translate(-3.8e-2,-4.4003605e-2)"
         ry="5.71"
         rx="7.2319999"
         cy="179.282"
         cx="215.726"
         sodipodi:rx="7.2319999"
         sodipodi:cx="215.726"
         sodipodi:cy="179.282"
         sodipodi:ry="5.71"
         id="ellipse2614"
         style="fill:none;stroke:#000000;stroke-width:3;stroke-linecap:round;stroke-linejoin:round">
		</ellipse>
      <ellipse
         transform="translate(-3.8e-2,-4.4003605e-2)"
         ry="2.931"
         rx="3.1129999"
         cy="177.257"
         cx="215.726"
         sodipodi:rx="3.1129999"
         sodipodi:cx="215.726"
         sodipodi:cy="177.257"
         sodipodi:ry="2.931"
         id="ellipse2616">
		</ellipse>
    </g>
    <polygon
       points="108.078,34.016 125.562,87.831 182.146,87.831 136.368,121.09 153.856,174.906 108.078,141.646 62.301,174.906 79.784,121.09 34.009,87.831 90.592,87.831 108.078,34.016 "
       stroke-miterlimit="20"
       id="polygon2528_4_"
       style="fill:#fcef3c;stroke:#000000;stroke-width:3;stroke-miterlimit:20"
       transform="translate(-3.8e-2,-4.4003605e-2)" />
  </g>
  <g
     inkscape:groupmode="layer"
     id="layer3"
     inkscape:label="Reflet final"
     style="display:inline"
     sodipodi:insensitive="true">
    <path
       style="fill:url(#radialGradient3236);fill-opacity:1"
       d="M 1.5,1.5 L 1.5,460.3679 C 1.5,626.67854 135.81454,761.5 301.49993,761.5 C 467.1854,761.5 601.5,626.67854 601.5,460.3679 L 601.5,1.5 L 1.5,1.5 z "
       id="path2346" />
  </g>
  <g
     inkscape:groupmode="layer"
     id="layer4"
     inkscape:label="Contour final"
     style="display:inline"
     sodipodi:insensitive="true">
    <path
       style="fill:none;fill-opacity:1;stroke:#000000;stroke-width:3;stroke-miterlimit:4;stroke-dasharray:none;stroke-opacity:1"
       d="M 1.5,1.5 L 1.5,460.36794 C 1.5,626.67854 135.81454,761.5 301.49993,761.5 C 467.1854,761.5 601.5,626.67854 601.5,460.36794 L 601.5,1.5 L 1.5,1.5 z "
       id="path3239" />
  </g>
</svg>
