<?xml version="1.0" encoding="UTF-8"?>
<svg version="1.0" viewBox="0 0 603 763" xmlns="http://www.w3.org/2000/svg" xmlns:cc="http://web.resource.org/cc/" xmlns:dc="http://purl.org/dc/elements/1.1/" xmlns:rdf="http://www.w3.org/1999/02/22-rdf-syntax-ns#" xmlns:xlink="http://www.w3.org/1999/xlink">
<metadata>
<rdf:RDF>
<cc:Work rdf:about="">
<dc:format>image/svg+xml</dc:format>
<dc:type rdf:resource="http://purl.org/dc/dcmitype/StillImage"/>
<dc:date>07-AUG-2006</dc:date>
<dc:creator>
<cc:Agent>
<dc:title>Jérôme BLUM (wagner51)</dc:title>
</cc:Agent>
</dc:creator>
<cc:license rdf:resource="http://creativecommons.org/licenses/GPL/2.0/"/>
<dc:coverage/>
<dc:description>Gabarit pour le Projet:Blasons de WIkipédia</dc:description>
<dc:subject>
<rdf:Bag>
<rdf:li>blason suisse modèle gabarit projet blasons</rdf:li>
</rdf:Bag>
</dc:subject>
<dc:language>fr</dc:language>
<dc:title>Gabrit d'un blason suisse</dc:title>
</cc:Work>
<cc:License rdf:about="http://creativecommons.org/licenses/GPL/2.0/">
<cc:permits rdf:resource="http://web.resource.org/cc/Reproduction"/>
<cc:permits rdf:resource="http://web.resource.org/cc/Distribution"/>
<cc:requires rdf:resource="http://web.resource.org/cc/Notice"/>
<cc:permits rdf:resource="http://web.resource.org/cc/DerivativeWorks"/>
<cc:requires rdf:resource="http://web.resource.org/cc/ShareAlike"/>
<cc:requires rdf:resource="http://web.resource.org/cc/SourceCode"/>
</cc:License>
</rdf:RDF>
</metadata>
<defs>
<radialGradient id="a" cx="858.04" cy="579.93" r="300" gradientTransform="matrix(1.215 1.5316e-24 1.4647e-23 1.2667 -839.19 -490.49)" gradientUnits="userSpaceOnUse">
<stop stop-color="#fff" stop-opacity=".31373" offset="0"/>
<stop stop-color="#fff" stop-opacity=".25098" offset=".19"/>
<stop stop-color="#6b6b6b" stop-opacity=".12549" offset=".6"/>
<stop stop-opacity=".12549" offset="1"/>
</radialGradient>
</defs>
<desc>Coat of Arms of Canton of Freiburg (Fribourg)</desc>
<g>
<path d="m1.5 1.5v458.87c0 166.31 134.31 301.13 300 301.13 165.69 0 300-134.82 300-301.13v-458.87h-600z" fill="#e20909"/>
<path d="m192 1.5-190.5 1.5v301.41l447.69 418.09c90.931-51.732 152.31-149.72 152.31-262.12v-92.219c-1.0298-1.7133-2.0561-3.4293-3.125-5.1562l-398.31-361.5h-8.0625z" fill="#fff" fill-rule="evenodd" stroke="#000" stroke-width="3"/>
<g transform="matrix(4.1303 0 0 4.1303 -2576.1 -2364.9)" fill="#5ab532" fill-rule="evenodd" stroke="#000" stroke-width="1px">
<path d="m759.74 684.57c4.148-6.1706 2.4998-14.412-4.6661-20.451-7.2131-6.0786-17.512-12.174-17.98-5.3334-7.0349-0.16997-3.9348 8.0243 1.8105 15.975 6.9612 9.6328 11.66 13.016 20.836 9.81z"/>
<path d="m766.44 684.96c-9.9944-4.8363-17.16-13.814-25.654-20.915 6.6958 8.8043 15.208 15.274 19.738 26.862l5.9154-5.9463z"/>
<path d="m739.17 697.73c4.148-6.1706 0.53836-15.982-6.6276-22.02-7.2131-6.0786-17.512-12.174-17.98-5.3334-7.0349-0.16997-3.9348 8.0243 1.8105 15.975 6.9612 9.6328 13.621 14.585 22.797 11.379z"/>
<path d="m745.9 698.55c-9.9944-4.8363-19.16-15.814-27.654-22.915 6.6958 8.8043 17.208 17.274 21.738 28.862l5.9154-5.9463z"/>
<path d="m725.5 718.81c4.148-6.1706 0.93065-13.759-6.2353-19.797-7.2131-6.0786-18.428-12.567-18.895-5.7257-7.0349-0.16997-2.2348 9.0705 3.5105 17.021 6.9612 9.6328 12.444 11.708 21.62 8.5024z"/>
<path d="m733.64 719.85c-9.9944-4.8363-20.037-14.599-28.531-21.7 6.6958 8.8043 17.431 17.497 21.569 28.431l6.9615-6.7309z"/>
<path d="m687.8 682.3c4.148-6.1706 2.4998-14.412-4.6661-20.451-7.2131-6.0786-17.512-12.174-17.98-5.3334-7.0349-0.16997-3.9348 8.0243 1.8105 15.975 6.9612 9.6328 11.66 13.016 20.836 9.81z"/>
<path d="m694.5 682.7c-9.9944-4.8363-17.16-13.814-25.654-20.915 6.6958 8.8043 15.208 15.274 19.738 26.862l5.9154-5.9463z"/>
<path d="m653.98 646.65c4.148-6.1706 2.0677-13.941-4.7969-20.32-8.6515-8.04-16.859-12.567-18.111-5.2026-7.0349-0.16997-3.9348 8.0243 1.8105 15.975 6.9612 9.6328 11.921 12.755 21.097 9.5485z"/>
<path d="m659.5 647.7c-9.9944-4.8363-17.029-15.252-25.523-22.354 6.6958 8.8043 15.077 16.712 19.608 28.3l5.9154-5.9463z"/>
<path d="m701.16 658.81c4.148-6.1706 3.546-12.059-3.62-18.097-7.2131-6.0786-19.212-14.267-19.68-7.4256-7.0349-0.16997-2.2348 10.117 3.5105 18.067 6.9612 9.6328 10.614 10.662 19.79 7.4562z"/>
<path d="m708.51 659.59c-9.9944-4.8363-16.768-11.853-25.262-18.954 6.6958 8.8043 14.946 14.358 19.346 24.9l5.9154-5.9463z"/>
<path d="m725.94 648.87c4.148-6.1706-0.63853-15.982-7.8045-22.02-7.2131-6.0786-15.943-10.605-16.411-3.7642-6.7734-0.03921-2.6271 7.3705 1.6798 14.405 6.2055 10.136 13.36 14.585 22.536 11.379z"/>
<path d="m732.12 648.74c-9.9944-4.8363-19.775-14.86-28.269-21.961 6.6958 8.8043 17.823 16.32 22.354 27.908l5.9154-5.9463z"/>
<path d="m687.8 612.3c4.148-6.1706 2.4998-14.412-4.6661-20.451-7.2131-6.0786-17.512-12.174-17.98-5.3334-7.0349-0.16997-3.9348 8.0243 1.8105 15.975 6.9612 9.6328 11.66 13.016 20.836 9.81z"/>
<path d="m694.5 612.7c-9.9944-4.8363-17.16-13.814-25.654-20.915 6.6958 8.8043 15.208 15.274 19.738 26.862l5.9154-5.9463z"/>
<path d="m664.72 622.5c4.148-6.1706 2.3691-14.151-4.7969-20.19-7.2131-6.0786-17.512-11.913-17.98-5.0718-7.0349-0.16997-3.6732 8.6782 2.072 16.628 6.9612 9.6328 14.929 12.232 20.705 8.6331z"/>
<path d="m673.25 625.38c-9.9944-4.8363-18.86-16.299-27.354-23.4 6.6958 8.8043 16.908 17.758 21.438 29.346l5.9154-5.9463z"/>
</g>
<path d="m1.5 1.5v458.87c0 166.31 134.31 301.13 300 301.13 165.69 0 300-134.82 300-301.13v-458.87h-600z" fill="url(#a)"/>
<path d="m1.5 1.5v458.87c0 166.31 134.31 301.13 300 301.13 165.69 0 300-134.82 300-301.13v-458.87h-600z" fill="none" stroke="#000" stroke-width="3"/>
</g>
</svg>
