<?xml version="1.0" encoding="UTF-8" standalone="no"?>
<svg
   xmlns:dc="http://purl.org/dc/elements/1.1/"
   xmlns:cc="http://creativecommons.org/ns#"
   xmlns:rdf="http://www.w3.org/1999/02/22-rdf-syntax-ns#"
   xmlns:svg="http://www.w3.org/2000/svg"
   xmlns="http://www.w3.org/2000/svg"
   xmlns:xlink="http://www.w3.org/1999/xlink"
   xmlns:sodipodi="http://sodipodi.sourceforge.net/DTD/sodipodi-0.dtd"
   xmlns:inkscape="http://www.inkscape.org/namespaces/inkscape"
   height="763"
   width="603"
   version="1.0"
   id="svg20"
   sodipodi:version="0.32"
   inkscape:version="0.46"
   sodipodi:docname="Cottens-coat_of_arms.svg"
   sodipodi:docbase="C:\Documents and Settings\Steve\Bureau\Blason Villages Suisse pour Wikipédia (par Delta-9)"
   inkscape:output_extension="org.inkscape.output.svg.inkscape">
  <metadata
     id="metadata31">
    <rdf:RDF>
      <cc:Work
         rdf:about="">
        <dc:format>image/svg+xml</dc:format>
        <dc:type
           rdf:resource="http://purl.org/dc/dcmitype/StillImage" />
        <dc:date>07-AUG-2006</dc:date>
        <dc:creator>
          <cc:Agent>
            <dc:title>Jérôme BLUM (wagner51)</dc:title>
          </cc:Agent>
        </dc:creator>
        <cc:license
           rdf:resource="http://creativecommons.org/licenses/GPL/2.0/" />
        <dc:coverage />
        <dc:description>Gabarit pour le Projet:Blasons de WIkipédia</dc:description>
        <dc:subject>
          <rdf:Bag>
            <rdf:li>blason suisse modèle gabarit projet blasons</rdf:li>
          </rdf:Bag>
        </dc:subject>
        <dc:language>fr</dc:language>
        <dc:title>Gabrit d'un blason suisse</dc:title>
      </cc:Work>
      <cc:License
         rdf:about="http://creativecommons.org/licenses/GPL/2.0/">
        <cc:permits
           rdf:resource="http://web.resource.org/cc/Reproduction" />
        <cc:permits
           rdf:resource="http://web.resource.org/cc/Distribution" />
        <cc:requires
           rdf:resource="http://web.resource.org/cc/Notice" />
        <cc:permits
           rdf:resource="http://web.resource.org/cc/DerivativeWorks" />
        <cc:requires
           rdf:resource="http://web.resource.org/cc/ShareAlike" />
        <cc:requires
           rdf:resource="http://web.resource.org/cc/SourceCode" />
      </cc:License>
    </rdf:RDF>
  </metadata>
  <defs
     id="defs29"><inkscape:perspective
   sodipodi:type="inkscape:persp3d"
   inkscape:vp_x="0 : 381.5 : 1"
   inkscape:vp_y="0 : 1000 : 0"
   inkscape:vp_z="603 : 381.5 : 1"
   inkscape:persp3d-origin="301.5 : 254.33333 : 1"
   id="perspective28" />
<linearGradient
   id="linearGradient2893">
  <stop
     style="stop-color:#ffffff;stop-opacity:0.3137255;"
     offset="0"
     id="stop2895" />
  <stop
     id="stop2897"
     offset="0.19"
     style="stop-color:#ffffff;stop-opacity:0.25098041;" />
  <stop
     style="stop-color:#6b6b6b;stop-opacity:0.1254902;"
     offset="0.60000002"
     id="stop2901" />
  <stop
     style="stop-color:#000000;stop-opacity:0.1254902;"
     offset="1"
     id="stop2899" />
</linearGradient>
<linearGradient
   id="linearGradient2955">
  <stop
     style="stop-color:white;stop-opacity:0;"
     offset="0"
     id="stop2965" />
  <stop
     style="stop-color:black;stop-opacity:0.64583331;"
     offset="1"
     id="stop2959" />
</linearGradient>
<radialGradient
   inkscape:collect="always"
   xlink:href="#linearGradient2893"
   id="radialGradient3236"
   gradientUnits="userSpaceOnUse"
   gradientTransform="matrix(1.215027,1.531577e-24,1.464684e-23,1.266667,-839.1924,-490.4894)"
   cx="858.04236"
   cy="579.93323"
   fx="858.04236"
   fy="579.93323"
   r="300" />
<inkscape:perspective
   id="perspective2574"
   inkscape:persp3d-origin="297.63751 : 280.63 : 1"
   inkscape:vp_z="595.27502 : 420.94501 : 1"
   inkscape:vp_y="0 : 1000 : 0"
   inkscape:vp_x="0 : 420.94501 : 1"
   sodipodi:type="inkscape:persp3d" />

	
	

	

		
		
		
	
			
			
			
		
			
			
		
				
				
					
				
				
					
				
					
				
				
				
				
				
				
				
				
				
					
				
					
				
					
				
					
				
					
			
				
				
				
				
				
				
				
				
				
				
				
				
				
				
				
				
				
				
				
				
				
				
			</defs>
  <sodipodi:namedview
     inkscape:window-height="968"
     inkscape:window-width="1280"
     inkscape:pageshadow="2"
     inkscape:pageopacity="0.0"
     guidetolerance="10.0"
     gridtolerance="10.0"
     objecttolerance="10.0"
     borderopacity="1.0"
     bordercolor="#666666"
     pagecolor="#ffffff"
     id="base"
     inkscape:zoom="0.92652193"
     inkscape:cx="173.53758"
     inkscape:cy="399.00713"
     inkscape:window-x="1280"
     inkscape:window-y="22"
     inkscape:current-layer="layer2"
     showgrid="false"
     showguides="true"
     inkscape:guide-bbox="true">
    <sodipodi:guide
       orientation="horizontal"
       position="761.5"
       id="guide1885" />
    <sodipodi:guide
       orientation="vertical"
       position="1.5"
       id="guide1887" />
    <sodipodi:guide
       orientation="horizontal"
       position="1.5"
       id="guide1889" />
    <sodipodi:guide
       orientation="vertical"
       position="601.5"
       id="guide1891" />
    <sodipodi:guide
       orientation="vertical"
       position="301.50081"
       id="guide1893" />
  </sodipodi:namedview>
  <desc
     id="desc22">Coat of Arms of Canton of Freiburg (Fribourg)</desc>
  <g
     inkscape:groupmode="layer"
     id="layer1"
     inkscape:label="Fond écu"
     style="opacity:1;display:inline"
     sodipodi:insensitive="true">
    <path
       id="path1899"
       d="M 1.5,1.49998 L 1.5,460.3679 C 1.5,626.6785 135.81456,761.5 301.49999,761.5 C 467.18543,761.5 601.5,626.6785 601.5,460.3679 L 601.5,1.49998 L 1.5,1.49998 z"
       style="fill:#2b5df2;fill-opacity:1" />
  </g>
  <g
     inkscape:groupmode="layer"
     id="layer2"
     inkscape:label="Meubles"
     style="opacity:1;display:inline"
     sodipodi:insensitive="true">
    <g
       id="g2918">
      <path
         d="M 228.275,554.003 C 224.089,563.687 221.768,574.358 221.768,585.572 C 221.768,629.572 257.488,665.282 301.499,665.282 C 345.512,665.282 381.232,629.572 381.232,585.572 C 381.232,574.358 378.91,563.686 374.725,554.003 C 368.424,589.045 337.566,615.503 300.765,615.142 C 264.471,614.786 234.475,588.457 228.275,554.003 z"
         id="path28154"
         style="fill:#fcef3c;stroke:#000000;stroke-width:3" />
      <g
         id="g2914">
        <polygon
           points="120.257,268.186 135.324,314.566 184.094,314.566 144.64,343.232 159.712,389.614 120.257,360.948 80.802,389.614 95.873,343.232 56.419,314.566 105.188,314.566 120.257,268.186 "
           stroke-miterlimit="20"
           id="polygon2528_4_"
           style="fill:#fcef3c;stroke:#000000;stroke-width:3;stroke-miterlimit:20"
           transform="translate(-3.8e-2,-4.5e-2)" />
        <polygon
           points="497.887,314.566 546.655,314.566 507.201,343.232 522.271,389.614 482.817,360.948 443.361,389.614 458.435,343.232 418.98,314.566 467.75,314.566 482.817,268.186 497.887,314.566 "
           stroke-miterlimit="20"
           id="polygon2528_7_"
           style="fill:#fcef3c;stroke:#000000;stroke-width:3;stroke-miterlimit:20"
           transform="translate(-3.8e-2,-4.5e-2)" />
      </g>
      <g
         id="g2871">
        <path
           id="path2522"
           d="M 324.256,185.851 C 324.198,185.616 324.173,185.383 324.177,185.158 C 321.993,185.158 319.568,186.017 317.17,187.379 C 322.929,180.414 327.148,170.457 324.256,158.674 C 324.198,158.439 324.173,158.207 324.177,157.982 C 321.993,157.982 319.567,158.841 317.168,160.204 C 322.927,153.239 327.142,143.283 324.249,131.5 C 324.193,131.264 324.169,131.034 324.174,130.808 C 321.989,130.808 319.564,131.666 317.167,133.028 C 322.927,126.063 327.142,116.106 324.249,104.324 C 324.193,104.089 324.167,103.857 324.173,103.632 C 321.988,103.632 319.564,104.489 317.167,105.851 C 322.926,98.887 327.142,88.93 324.249,77.147 C 324.193,76.911 324.167,76.68 324.173,76.454 C 319.923,76.454 314.761,79.702 310.665,83.592 C 311.229,72.93 304.94,63.053 301.5,60.947 C 298.062,63.053 291.771,72.931 292.336,83.592 C 288.239,79.702 283.077,76.454 278.827,76.454 C 278.831,76.681 278.807,76.911 278.749,77.147 C 275.858,88.929 280.074,98.886 285.834,105.851 C 283.437,104.49 281.011,103.632 278.827,103.632 C 278.831,103.858 278.807,104.09 278.749,104.324 C 275.858,116.106 280.074,126.063 285.832,133.028 C 283.436,131.666 281.01,130.808 278.825,130.808 C 278.831,131.034 278.805,131.265 278.748,131.5 C 275.857,143.283 280.073,153.239 285.83,160.204 C 283.433,158.842 281.006,157.982 278.821,157.982 C 278.827,158.207 278.8,158.439 278.744,158.674 C 275.853,170.457 280.068,180.414 285.828,187.379 C 283.431,186.017 281.005,185.158 278.82,185.158 C 278.826,185.384 278.799,185.616 278.743,185.851 C 275.852,197.632 280.067,207.589 285.825,214.552 L 285.82,214.549 C 285.823,214.551 285.824,214.553 285.825,214.556 C 289.767,219.324 295.163,231.146 295.163,231.146 C 296.712,233.344 298.848,236.481 298.848,248.204 L 304.146,248.204 C 304.146,236.481 306.284,233.345 307.834,231.146 C 307.834,231.146 313.23,219.325 317.17,214.556 C 317.173,214.554 317.175,214.552 317.176,214.549 L 317.173,214.551 C 322.934,207.588 327.148,197.632 324.256,185.851 z"
           style="fill:#fcef3c;stroke:#000000;stroke-width:3;stroke-linecap:round;stroke-linejoin:round" />
        <path
           style="fill:none;stroke:#000000;stroke-width:3;stroke-linejoin:round"
           id="path3496"
           d="M 310.665,83.59 C 310.458,87.489 309.334,91.495 306.815,95.262" />
        <path
           style="fill:none;stroke:#000000;stroke-width:3;stroke-linejoin:round"
           id="path3500"
           d="M 310.665,110.768 C 310.458,114.666 309.334,118.672 306.815,122.439" />
        <path
           style="fill:none;stroke:#000000;stroke-width:3;stroke-linejoin:round"
           id="path3504"
           d="M 301.499,88.122 C 304.937,90.229 311.229,100.105 310.663,110.768 C 312.653,108.877 314.896,107.136 317.164,105.848" />
        <path
           style="fill:none;stroke:#000000;stroke-width:3;stroke-linejoin:round"
           id="path3528"
           d="M 310.665,137.944 C 310.458,141.844 309.334,145.848 306.818,149.617" />
        <path
           style="fill:none;stroke:#000000;stroke-width:3;stroke-linejoin:round"
           id="path3530"
           d="M 301.5,115.298 C 304.94,117.405 311.229,127.282 310.665,137.944 C 312.653,136.053 314.896,134.314 317.167,133.026" />
        <path
           style="fill:none;stroke:#000000;stroke-width:3;stroke-linejoin:round"
           id="path3534"
           d="M 310.665,165.12 C 310.458,169.021 309.334,173.025 306.818,176.794" />
        <path
           style="fill:none;stroke:#000000;stroke-width:3;stroke-linejoin:round"
           id="path3538"
           d="M 301.5,142.476 C 304.942,144.583 311.23,154.461 310.665,165.122 C 312.656,163.232 314.898,161.491 317.167,160.204" />
        <path
           style="fill:none;stroke:#000000;stroke-width:3;stroke-linejoin:round"
           id="path3542"
           d="M 310.666,192.297 C 310.46,196.198 309.336,200.202 306.819,203.968" />
        <path
           style="fill:none;stroke:#000000;stroke-width:3;stroke-linejoin:round"
           id="path3544"
           d="M 301.502,169.651 C 304.942,171.76 311.231,181.637 310.666,192.298 C 312.658,190.408 314.898,188.668 317.169,187.38" />
        <path
           style="fill:none;stroke:#000000;stroke-width:3;stroke-linejoin:round"
           id="path3548"
           d="M 310.666,219.472 C 310.46,223.372 308.877,228.939 306.819,232.705" />
        <path
           style="fill:none;stroke:#000000;stroke-width:3;stroke-linejoin:round"
           id="path3550"
           d="M 301.502,196.825 C 304.942,198.935 311.231,208.81 310.666,219.472 C 312.658,217.583 314.898,215.84 317.169,214.554" />
        <path
           style="fill:none;stroke:#000000;stroke-width:3;stroke-linejoin:round"
           id="path3554"
           d="M 292.336,83.59 C 292.543,87.489 293.667,91.495 296.183,95.262" />
        <path
           style="fill:none;stroke:#000000;stroke-width:3;stroke-linejoin:round"
           id="path3556"
           d="M 292.336,110.768 C 292.543,114.666 293.667,118.672 296.183,122.439" />
        <path
           style="fill:none;stroke:#000000;stroke-width:3;stroke-linejoin:round"
           id="path3560"
           d="M 301.499,88.122 C 298.059,90.229 291.77,100.105 292.336,110.768 C 290.345,108.877 288.102,107.136 285.833,105.848" />
        <path
           style="fill:none;stroke:#000000;stroke-width:3;stroke-linejoin:round"
           id="path3564"
           d="M 292.335,137.944 C 292.542,141.844 293.667,145.848 296.182,149.617" />
        <path
           style="fill:none;stroke:#000000;stroke-width:3;stroke-linejoin:round"
           id="path3566"
           d="M 301.499,115.298 C 298.057,117.405 291.769,127.282 292.334,137.944 C 290.343,136.053 288.101,134.314 285.831,133.026" />
        <path
           style="fill:none;stroke:#000000;stroke-width:3;stroke-linejoin:round"
           id="path3570"
           d="M 292.334,165.12 C 292.541,169.021 293.665,173.025 296.182,176.794" />
        <path
           style="fill:none;stroke:#000000;stroke-width:3;stroke-linejoin:round"
           id="path3574"
           d="M 301.498,142.476 C 298.057,144.583 291.768,154.461 292.334,165.122 C 290.342,163.232 288.1,161.491 285.831,160.204" />
        <path
           style="fill:none;stroke:#000000;stroke-width:3;stroke-linejoin:round"
           id="path3578"
           d="M 292.334,192.297 C 292.54,196.198 293.665,200.202 296.18,203.968" />
        <path
           style="fill:none;stroke:#000000;stroke-width:3;stroke-linejoin:round"
           id="path3580"
           d="M 301.497,169.651 C 298.056,171.76 291.767,181.637 292.333,192.298 C 290.34,190.408 288.099,188.668 285.83,187.38" />
        <path
           style="fill:none;stroke:#000000;stroke-width:3;stroke-linejoin:round"
           id="path3584"
           d="M 292.334,219.472 C 292.54,223.372 293.988,228.66 296.18,232.705" />
        <path
           style="fill:none;stroke:#000000;stroke-width:3;stroke-linejoin:round"
           id="path3586"
           d="M 301.497,196.825 C 298.056,198.935 291.767,208.81 292.333,219.472 C 290.34,217.583 288.099,215.84 285.83,214.554" />
        <path
           style="fill:none;stroke:#000000;stroke-width:3;stroke-linecap:round;stroke-linejoin:round"
           id="path3492"
           d="M 324.173,76.453 C 324.224,74.016 327.652,72.153 329.009,71.764" />
        <line
           style="fill:none;stroke:#000000;stroke-width:3;stroke-linecap:round;stroke-linejoin:round"
           id="line3494"
           x1="301.49899"
           y1="55.899998"
           x2="301.49899"
           y2="60.945999" />
        <path
           style="fill:none;stroke:#000000;stroke-width:3;stroke-linecap:round;stroke-linejoin:round"
           id="path3498"
           d="M 324.173,103.628 C 324.224,101.192 327.652,99.329 329.009,98.939" />
        <line
           style="fill:none;stroke:#000000;stroke-width:3;stroke-linecap:round;stroke-linejoin:round"
           id="line3502"
           x1="301.49899"
           y1="83.078003"
           x2="301.49899"
           y2="88.122002" />
        <line
           style="fill:none;stroke:#000000;stroke-width:3;stroke-linecap:round;stroke-linejoin:round"
           id="line3506"
           x1="301.5"
           y1="83.077003"
           x2="301.5"
           y2="88.122002" />
        <path
           style="fill:none;stroke:#000000;stroke-width:3;stroke-linecap:round;stroke-linejoin:round"
           id="path3508"
           d="M 324.173,130.806 C 324.225,128.369 327.652,126.507 329.01,126.117" />
        <path
           style="fill:none;stroke:#000000;stroke-width:3;stroke-linecap:round;stroke-linejoin:round"
           id="path3510"
           d="M 324.177,157.981 C 324.228,155.544 327.659,153.68 329.016,153.291" />
        <path
           style="fill:none;stroke:#000000;stroke-width:3;stroke-linecap:round;stroke-linejoin:round"
           id="path3512"
           d="M 324.177,185.156 C 324.228,182.721 327.659,180.858 329.016,180.468" />
        <path
           style="fill:none;stroke:#000000;stroke-width:3;stroke-linecap:round;stroke-linejoin:round"
           id="path3516"
           d="M 278.822,157.981 C 278.771,155.544 275.343,153.68 273.985,153.291" />
        <path
           style="fill:none;stroke:#000000;stroke-width:3;stroke-linecap:round;stroke-linejoin:round"
           id="path3518"
           d="M 278.822,185.156 C 278.771,182.721 275.343,180.858 273.985,180.468" />
        <path
           style="fill:none;stroke:#000000;stroke-width:3;stroke-linecap:round;stroke-linejoin:round"
           id="path3522"
           d="M 278.822,76.453 C 278.771,74.016 275.343,72.153 273.985,71.764" />
        <path
           style="fill:none;stroke:#000000;stroke-width:3;stroke-linecap:round;stroke-linejoin:round"
           id="path3524"
           d="M 278.822,103.628 C 278.771,101.191 275.343,99.329 273.985,98.939" />
        <path
           style="fill:none;stroke:#000000;stroke-width:3;stroke-linecap:round;stroke-linejoin:round"
           id="path3526"
           d="M 278.821,130.806 C 278.77,128.37 275.341,126.506 273.983,126.117" />
        <line
           style="fill:none;stroke:#000000;stroke-width:3;stroke-linecap:round;stroke-linejoin:round"
           id="line3532"
           x1="301.5"
           y1="110.25401"
           x2="301.5"
           y2="115.298" />
        <line
           style="fill:none;stroke:#000000;stroke-width:3;stroke-linecap:round;stroke-linejoin:round"
           id="line3536"
           x1="301.5"
           y1="137.431"
           x2="301.5"
           y2="142.47598" />
        <line
           style="fill:none;stroke:#000000;stroke-width:3;stroke-linecap:round;stroke-linejoin:round"
           id="line3540"
           x1="301.50201"
           y1="137.42999"
           x2="301.50201"
           y2="142.47501" />
        <line
           style="fill:none;stroke:#000000;stroke-width:3;stroke-linecap:round;stroke-linejoin:round"
           id="line3546"
           x1="301.50201"
           y1="164.60699"
           x2="301.50201"
           y2="169.651" />
        <line
           style="fill:none;stroke:#000000;stroke-width:3;stroke-linecap:round;stroke-linejoin:round"
           id="line3588"
           x1="301.49701"
           y1="191.782"
           x2="301.49701"
           y2="196.825" />
      </g>
      <path
         style="fill:#ffffff;stroke:#000000;stroke-width:3;stroke-linecap:round"
         d="M 457.194,181.058 C 463.463,174.789 473.332,156.578 456.941,140.188 C 440.551,123.798 418.963,123.972 394.882,135.66 C 420.061,143.813 433.416,167.651 413.898,187.17 L 301.499,299.569 L 189.1,187.17 C 169.581,167.651 182.937,143.814 208.116,135.661 C 184.034,123.972 162.447,123.799 146.057,140.188 C 129.667,156.578 139.536,174.79 145.804,181.058 C 139.535,174.789 121.324,164.921 104.934,181.31 C 88.544,197.7 88.717,219.288 100.406,243.37 C 108.559,218.19 132.397,204.834 151.916,224.353 L 264.316,336.752 L 151.916,449.152 C 132.397,468.67 108.56,455.314 100.407,430.134 C 88.718,454.216 88.545,475.804 104.934,492.195 C 121.324,508.584 139.536,498.716 145.804,492.447 C 139.535,498.717 129.667,516.927 146.057,533.318 C 162.447,549.707 184.035,549.535 208.117,537.845 C 182.937,529.693 169.582,505.855 189.1,486.335 L 301.499,373.935 L 413.898,486.335 C 433.417,505.855 420.061,529.692 394.882,537.845 C 418.963,549.534 440.551,549.706 456.941,533.318 C 473.332,516.927 463.462,498.716 457.194,492.447 C 463.463,498.717 481.674,508.584 498.064,492.195 C 514.454,475.804 514.281,454.216 502.591,430.136 C 494.439,455.314 470.601,468.669 451.082,449.152 L 338.682,336.752 L 451.082,224.353 C 470.601,204.834 494.438,218.19 502.592,243.369 C 514.28,219.287 514.453,197.7 498.064,181.309 C 481.675,164.921 463.463,174.789 457.194,181.058 z"
         id="path2567" />
    </g>
  </g>
  <g
     inkscape:groupmode="layer"
     id="layer3"
     inkscape:label="Reflet final"
     style="display:inline"
     sodipodi:insensitive="true">
    <path
       style="fill:url(#radialGradient3236);fill-opacity:1"
       d="M 1.5,1.5 L 1.5,460.3679 C 1.5,626.67854 135.81454,761.5 301.49993,761.5 C 467.1854,761.5 601.5,626.67854 601.5,460.3679 L 601.5,1.5 L 1.5,1.5 z "
       id="path2346" />
  </g>
  <g
     inkscape:groupmode="layer"
     id="layer4"
     inkscape:label="Contour final"
     style="display:inline"
     sodipodi:insensitive="true">
    <path
       style="fill:none;fill-opacity:1;stroke:#000000;stroke-width:3;stroke-miterlimit:4;stroke-dasharray:none;stroke-opacity:1"
       d="M 1.5,1.5 L 1.5,460.36794 C 1.5,626.67854 135.81454,761.5 301.49993,761.5 C 467.1854,761.5 601.5,626.67854 601.5,460.36794 L 601.5,1.5 L 1.5,1.5 z "
       id="path3239" />
  </g>
</svg>
