<?xml version="1.0" encoding="UTF-8" standalone="no"?>
<svg
   xmlns:dc="http://purl.org/dc/elements/1.1/"
   xmlns:cc="http://creativecommons.org/ns#"
   xmlns:rdf="http://www.w3.org/1999/02/22-rdf-syntax-ns#"
   xmlns:svg="http://www.w3.org/2000/svg"
   xmlns="http://www.w3.org/2000/svg"
   xmlns:xlink="http://www.w3.org/1999/xlink"
   xmlns:sodipodi="http://sodipodi.sourceforge.net/DTD/sodipodi-0.dtd"
   xmlns:inkscape="http://www.inkscape.org/namespaces/inkscape"
   height="763"
   width="603"
   version="1.0"
   id="svg20"
   sodipodi:version="0.32"
   inkscape:version="0.46"
   sodipodi:docname="Cuarnens-coat_of_arms.svg"
   sodipodi:docbase="C:\Documents and Settings\Steve\Bureau\Blason Villages Suisse pour Wikipédia (par Delta-9)"
   inkscape:output_extension="org.inkscape.output.svg.inkscape">
  <metadata
     id="metadata31">
    <rdf:RDF>
      <cc:Work
         rdf:about="">
        <dc:format>image/svg+xml</dc:format>
        <dc:type
           rdf:resource="http://purl.org/dc/dcmitype/StillImage" />
        <dc:date>07-AUG-2006</dc:date>
        <dc:creator>
          <cc:Agent>
            <dc:title>Jérôme BLUM (wagner51)</dc:title>
          </cc:Agent>
        </dc:creator>
        <cc:license
           rdf:resource="http://creativecommons.org/licenses/GPL/2.0/" />
        <dc:coverage />
        <dc:description>Gabarit pour le Projet:Blasons de WIkipédia</dc:description>
        <dc:subject>
          <rdf:Bag>
            <rdf:li>blason suisse modèle gabarit projet blasons</rdf:li>
          </rdf:Bag>
        </dc:subject>
        <dc:language>fr</dc:language>
        <dc:title>Gabrit d'un blason suisse</dc:title>
      </cc:Work>
      <cc:License
         rdf:about="http://creativecommons.org/licenses/GPL/2.0/">
        <cc:permits
           rdf:resource="http://web.resource.org/cc/Reproduction" />
        <cc:permits
           rdf:resource="http://web.resource.org/cc/Distribution" />
        <cc:requires
           rdf:resource="http://web.resource.org/cc/Notice" />
        <cc:permits
           rdf:resource="http://web.resource.org/cc/DerivativeWorks" />
        <cc:requires
           rdf:resource="http://web.resource.org/cc/ShareAlike" />
        <cc:requires
           rdf:resource="http://web.resource.org/cc/SourceCode" />
      </cc:License>
    </rdf:RDF>
  </metadata>
  <defs
     id="defs29"><inkscape:perspective
   sodipodi:type="inkscape:persp3d"
   inkscape:vp_x="0 : 381.5 : 1"
   inkscape:vp_y="0 : 1000 : 0"
   inkscape:vp_z="603 : 381.5 : 1"
   inkscape:persp3d-origin="301.5 : 254.33333 : 1"
   id="perspective28" />
<linearGradient
   id="linearGradient2893">
  <stop
     style="stop-color:#ffffff;stop-opacity:0.3137255;"
     offset="0"
     id="stop2895" />
  <stop
     id="stop2897"
     offset="0.19"
     style="stop-color:#ffffff;stop-opacity:0.25098041;" />
  <stop
     style="stop-color:#6b6b6b;stop-opacity:0.1254902;"
     offset="0.60000002"
     id="stop2901" />
  <stop
     style="stop-color:#000000;stop-opacity:0.1254902;"
     offset="1"
     id="stop2899" />
</linearGradient>
<linearGradient
   id="linearGradient2955">
  <stop
     style="stop-color:white;stop-opacity:0;"
     offset="0"
     id="stop2965" />
  <stop
     style="stop-color:black;stop-opacity:0.64583331;"
     offset="1"
     id="stop2959" />
</linearGradient>
<radialGradient
   inkscape:collect="always"
   xlink:href="#linearGradient2893"
   id="radialGradient3236"
   gradientUnits="userSpaceOnUse"
   gradientTransform="matrix(1.215027,1.531577e-24,1.464684e-23,1.266667,-839.1924,-490.4894)"
   cx="858.04236"
   cy="579.93323"
   fx="858.04236"
   fy="579.93323"
   r="300" />
<inkscape:perspective
   id="perspective2656"
   inkscape:persp3d-origin="297.63751 : 280.63 : 1"
   inkscape:vp_z="595.27502 : 420.94501 : 1"
   inkscape:vp_y="0 : 1000 : 0"
   inkscape:vp_x="0 : 420.94501 : 1"
   sodipodi:type="inkscape:persp3d" />

	
	

	

		
		
		
	
		
		
		
		
		
	
			
			
		
			
			
			
			
			
			
			
			
			
			
			
			
			
			
			
			
			
			
			
			
			
			
		
			
			
			
			
			
			
		</defs>
  <sodipodi:namedview
     inkscape:window-height="968"
     inkscape:window-width="1280"
     inkscape:pageshadow="2"
     inkscape:pageopacity="0.0"
     guidetolerance="10.0"
     gridtolerance="10.0"
     objecttolerance="10.0"
     borderopacity="1.0"
     bordercolor="#666666"
     pagecolor="#ffffff"
     id="base"
     inkscape:zoom="0.82943301"
     inkscape:cx="301.36417"
     inkscape:cy="361.27391"
     inkscape:window-x="1280"
     inkscape:window-y="22"
     inkscape:current-layer="layer2"
     showgrid="false"
     showguides="true"
     inkscape:guide-bbox="true">
    <sodipodi:guide
       orientation="horizontal"
       position="761.5"
       id="guide1885" />
    <sodipodi:guide
       orientation="vertical"
       position="1.5"
       id="guide1887" />
    <sodipodi:guide
       orientation="horizontal"
       position="1.5"
       id="guide1889" />
    <sodipodi:guide
       orientation="vertical"
       position="601.5"
       id="guide1891" />
    <sodipodi:guide
       orientation="vertical"
       position="301.50081"
       id="guide1893" />
  </sodipodi:namedview>
  <desc
     id="desc22">Coat of Arms of Canton of Freiburg (Fribourg)</desc>
  <g
     inkscape:groupmode="layer"
     id="layer1"
     inkscape:label="Fond écu"
     style="opacity:1;display:inline"
     sodipodi:insensitive="true">
    <path
       id="path1899"
       d="M 1.5,1.49998 L 1.5,460.3679 C 1.5,626.6785 135.81456,761.5 301.49999,761.5 C 467.18543,761.5 601.5,626.6785 601.5,460.3679 L 601.5,1.49998 L 1.5,1.49998 z"
       style="fill:#2b5df2;fill-opacity:1" />
  </g>
  <g
     inkscape:groupmode="layer"
     id="layer2"
     inkscape:label="Meubles"
     style="opacity:1;display:inline"
     sodipodi:insensitive="true">
    <path
       style="fill:#ffffff"
       id="path3774"
       d="M 244.375,1.5 L 244.375,300.563 L 1.5,300.563 L 1.5,416.563 L 244.375,416.563 L 244.375,756 C 262.872,759.58 281.962,761.5 301.5,761.5 C 321.662,761.5 341.36,759.494 360.406,755.687 L 360.406,416.562 L 601.5,416.562 L 601.5,300.562 L 360.404,300.562 L 360.404,1.5 L 244.375,1.5 z" />
    <path
       style="fill:none;stroke:#000000;stroke-width:3;stroke-linecap:round;stroke-linejoin:round"
       id="path3774_7_"
       d="M 601.499,300.562 L 360.404,300.562 L 360.404,1.5" />
    <path
       style="fill:none;stroke:#000000;stroke-width:3;stroke-linecap:round;stroke-linejoin:round"
       id="path3774_6_"
       d="M 360.404,755.687 L 360.404,416.562 L 601.499,416.562" />
    <path
       style="fill:none;stroke:#000000;stroke-width:3;stroke-linecap:round;stroke-linejoin:round"
       id="path3774_5_"
       d="M 1.5,416.562 L 244.375,416.562 L 244.375,756" />
    <path
       style="fill:none;stroke:#000000;stroke-width:3;stroke-linecap:round;stroke-linejoin:round"
       id="path3774_4_"
       d="M 244.375,1.5 L 244.375,300.563 L 1.5,300.563" />
    <g
       id="g2859">
      <path
         style="fill:#fcef3c;stroke:#000000;stroke-width:3;stroke-linecap:round;stroke-linejoin:round"
         d="M 245.129,189.579 C 223.172,213.383 208.705,227.542 194.033,227.542 C 185.415,227.542 184.532,218.246 177.206,222.207 C 169.086,226.597 180.386,240.47 195.572,240.47 C 211.681,240.47 238.254,211.742 250.875,194.094 L 245.129,189.579 z"
         id="path2590" />
      <path
         style="fill:#fcef3c;stroke:#000000;stroke-width:3;stroke-linecap:round;stroke-linejoin:round"
         d="M 265.097,108.222 C 265.097,108.222 275.141,87.24 279.451,75.081 C 279.451,75.081 283.914,98.981 298.843,109.754 L 267.6,120.944 L 265.097,108.222 z"
         id="path2592" />
      <path
         style="fill:#fcef3c;stroke:#000000;stroke-width:3;stroke-linecap:round;stroke-linejoin:round"
         d="M 304.843,439.929 C 296.224,458.604 288.632,464.554 267.701,468.865 C 246.77,473.175 228.815,477.585 217.631,495.54 C 232.868,491.847 231.791,503.082 250.567,492.77 C 250.567,492.77 234.869,514.624 249.028,534.631 C 263.187,554.639 268.881,561.256 268.881,568.49 C 268.881,575.723 255.768,589.53 242.102,594.808 C 232.406,598.553 217.016,597.526 217.016,597.526 C 208.006,597.628 195.095,596.655 182.145,603.615 C 175.094,607.405 177.869,614.017 186.101,615.209 C 188.247,622.037 201.343,631.522 227.508,612.854 C 231.904,613.167 233.227,616.509 233.227,616.509 C 255.081,605.736 265.804,597.297 272.729,597.297 C 292.737,597.297 295.225,597.297 302.176,590.345 C 313.36,579.16 327.364,590.345 327.364,590.345 C 321.208,568.491 311.666,573.724 303.97,560.795 C 296.275,547.867 302.74,534.323 301.97,520.78 C 338.907,522.319 367.533,509.391 367.533,509.391 L 355.323,463.118 L 304.843,439.929 z"
         id="path2594" />
      <path
         style="fill:#fcef3c;stroke:#000000;stroke-width:3;stroke-linecap:round;stroke-linejoin:round"
         d="M 231.996,280.895 C 226.626,280.895 223.069,282.229 214.142,273.303 C 205.216,264.376 177.821,248.678 154.428,248.678 C 131.035,248.678 118.366,247.761 85.171,272.482 C 78.747,277.266 70.939,283.492 66.298,292.376 C 63.211,298.786 68.664,302.088 75.205,298.64 C 79.923,302.136 92.538,302.379 101.567,281.074 C 105.524,279.983 108.667,282.332 108.667,282.332 C 107.641,272.893 129.187,264.068 145.604,264.068 C 162.021,264.068 180.591,275.662 189.518,284.588 C 195.879,290.949 198.342,307.776 203.678,317.627 C 209.014,327.477 212.728,324.578 218.658,323.373 L 231.996,280.895 z"
         id="path2596" />
      <path
         style="fill:#fcef3c;stroke:#000000;stroke-width:3;stroke-linecap:round;stroke-linejoin:round"
         d="M 341.869,123.683 C 348.408,124.283 350.603,120.528 358.3,122.991 C 358.3,122.991 350.071,111.201 336.64,111.201 C 328.134,111.201 322.957,116.378 322.957,116.378 C 322.957,116.378 310.383,98.88 307.306,71.587 C 307.306,71.587 300.123,88.157 294.583,100.777 C 289.042,113.397 267.265,113.32 260.724,117.399 C 255.346,120.752 248.001,127.813 243.487,139.099 C 238.973,150.386 231.944,160.492 227.712,161.646 C 223.48,162.801 205.165,171.727 206.858,184.809 C 208.551,197.891 204.242,209.126 212.707,209.126 C 221.172,209.126 231.791,188.965 243.642,194.813 C 255.493,200.662 238.871,216.051 239.794,218.207 C 240.718,220.361 250.876,222.67 256.108,208.357 C 261.341,194.044 269.498,189.581 281.964,186.964 C 289.031,185.481 294.368,181.92 297.665,179.113 C 299.202,186.194 298.688,209.69 287.402,228.158 C 276.115,246.627 247.798,258.734 233.023,273.509 C 218.248,288.283 211.169,308.496 212.913,337.122 C 212.949,337.717 212.992,338.319 213.036,338.928 C 198.239,338.354 179.926,336.837 172.693,335.069 C 163.458,332.813 151.557,332.196 141.091,342.662 C 130.626,353.128 124.059,376.315 116.672,393.553 C 109.285,410.79 111.694,420.915 114.065,427.3 C 111.489,434.885 109.183,444.033 110.401,453.983 C 111.495,461.013 117.86,460.639 121.289,454.088 C 127.647,454.307 139.468,446.127 131.544,418.677 C 130.461,415.467 130.643,413.46 134.108,411.82 C 129.365,411.82 127.547,396.837 134.319,384.319 C 141.09,371.801 158.367,355.686 165.715,354.975 C 171.306,354.433 193.777,366.415 220.765,377.088 C 228.744,400.45 243.728,424.377 270.369,438.493 C 296.122,452.139 316.437,448.446 334.29,461.374 C 352.143,474.303 354.913,488.769 349.373,505.698 C 343.832,522.628 345.371,560.796 360.145,575.57 C 360.145,575.57 359.534,564.474 366.148,560.796 C 368.756,559.346 370.204,557.02 371.005,554.568 C 375.843,566.182 381.693,573.724 395.389,578.648 C 409.087,583.574 407.24,605.427 407.24,614.355 C 407.24,628.36 404.924,636.748 400.161,639.594 C 392.426,644.217 380.781,649.875 373.094,662.407 C 368.907,669.23 374.635,673.549 382.347,670.434 C 387.637,675.254 403.729,676.859 416.942,647.557 C 421.298,637.131 417.708,632.412 426.737,625.127 C 435.765,617.842 435.765,617.842 435.149,611.07 C 434.534,604.299 432.173,584.496 440.638,576.032 C 449.103,567.566 459.107,568.336 467.11,570.337 C 467.11,570.337 463.724,556.024 450.796,556.024 C 437.868,556.024 430.789,561.719 430.789,561.719 C 430.789,561.719 421.555,551.868 421.555,538.633 C 421.555,525.397 432.483,506.314 449.566,494.617 C 466.649,482.92 476.345,485.689 491.889,473.532 C 507.433,461.373 515.898,446.29 515.898,422.589 C 515.898,384.729 490.35,354.871 505.433,320.398 C 505.433,320.398 482.347,328.4 486.964,347.484 C 486.964,347.484 480.193,338.712 480.193,322.706 C 480.193,306.7 490.043,289.462 506.203,281.151 C 506.203,281.151 487.734,270.07 473.267,283.152 C 476.191,272.84 482.014,266.237 489.888,267.299 C 509.281,269.916 518.206,257.45 539.907,252.525 C 539.907,252.525 518.361,252.525 506.511,246.523 C 494.66,240.521 482.749,234.688 466.958,245.292 C 451.028,255.988 442.795,276.38 441.717,283.152 C 441.717,283.152 445.41,264.838 432.637,255.141 C 432.637,255.141 434.329,268.993 432.175,282.536 C 430.021,296.08 429.251,335.325 444.795,357.18 C 460.339,379.035 469.42,388.423 479.424,399.658 C 489.428,410.893 494.814,417.357 494.814,432.285 C 494.814,447.214 477.885,466.605 459.417,466.605 C 454.03,466.605 453.261,456.755 448.183,443.52 C 443.103,430.284 434.639,412.124 414.015,396.015 C 388.108,375.778 360.253,368.723 352.661,326.04 C 349.974,310.944 354.862,295.746 360.576,280.173 C 369.044,285.852 372.154,297.619 372.154,297.619 C 381.482,284.56 379.503,274.431 377.215,264.226 C 378.646,271.469 385.391,270.686 385.391,281.151 C 385.391,281.151 394.163,268.223 392.316,252.217 C 391.569,245.738 389.358,241.78 386.82,238.191 C 391.443,244.433 396.318,243.906 398.627,251.601 C 398.627,251.601 406.553,230.594 396.779,220.821 C 392.484,216.526 388.636,212.231 385.553,208.139 C 391.588,215.392 398.011,207.739 405.705,216.973 C 405.705,216.973 406.783,187.577 388.468,179.575 C 385.248,178.168 382.405,176.704 379.895,175.221 C 387.295,179.054 392.47,174.203 400.627,179.044 C 400.627,179.044 394.47,150.487 372.463,146.947 C 368.396,146.293 365.021,145.56 362.224,144.8 C 369.943,146.516 370.154,142.023 385.237,144.331 C 385.233,144.331 363.181,125.552 341.869,123.683 z"
         id="path2598" />
      <path
         style="fill:#fcef3c;stroke:#000000;stroke-width:3;stroke-linecap:round;stroke-linejoin:round"
         d="M 252.61,125.418 C 257.068,127.978 266.874,128.062 272.318,123.041 C 278.167,117.648 280.732,110.473 275.788,108.577 L 121.596,50.185 L 252.61,125.418 L 252.61,125.418 z"
         id="path2600" />
      <path
         style="fill:none;stroke:#000000;stroke-width:3;stroke-linecap:round;stroke-linejoin:round"
         d="M 371.006,554.568 C 372.074,551.297 371.996,547.803 371.996,545.867"
         id="path2604" />
      <path
         style="fill:none;stroke:#000000;stroke-width:3;stroke-linecap:round;stroke-linejoin:round"
         d="M 297.664,179.112 C 300.182,176.969 301.509,175.266 301.509,175.266"
         id="path2606" />
      <path
         style="fill:none;stroke:#000000;stroke-width:3;stroke-linecap:round;stroke-linejoin:round"
         id="path2632"
         d="M 394.254,657.026 C 394.254,657.026 386.542,660.44 382.355,671.073" />
      <path
         style="fill:none;stroke:#000000;stroke-width:3;stroke-linecap:round;stroke-linejoin:round"
         d="M 308.055,76.991 C 309.744,85.251 300.284,100.893 307.876,113.923"
         id="path2609" />
      <path
         style="fill:none;stroke:#000000;stroke-width:3;stroke-linecap:round;stroke-linejoin:round"
         d="M 139.344,56.908 C 147.922,60.158 141.767,61.768 146.01,64.203"
         id="path2611" />
      <path
         style="fill:none;stroke:#000000;stroke-width:3;stroke-linecap:round;stroke-linejoin:round"
         d="M 153.838,62.396 C 167.994,67.756 158.066,71.126 165.067,75.147"
         id="path2613" />
      <path
         style="fill:none;stroke:#000000;stroke-width:3;stroke-linecap:round;stroke-linejoin:round"
         d="M 170.846,68.88 C 190.91,76.478 176.596,81.767 186.52,87.466"
         id="path2615" />
      <path
         style="fill:none;stroke:#000000;stroke-width:3;stroke-linecap:round;stroke-linejoin:round"
         d="M 193.515,77.421 C 221.031,87.841 201.062,95.814 214.668,103.629"
         id="path2617" />
      <path
         style="fill:none;stroke:#000000;stroke-width:3;stroke-linecap:round;stroke-linejoin:round"
         d="M 219.378,87.215 C 254.966,100.695 228.794,111.736 246.393,121.847"
         id="path2619" />
      <path
         style="fill:none;stroke:#000000;stroke-width:3;stroke-linecap:round;stroke-linejoin:round"
         d="M 252.254,99.712 C 275.043,108.345 272.505,115.977 272.356,123.005"
         id="path2621" />
      <path
         style="fill:none;stroke:#000000;stroke-width:3;stroke-linecap:round;stroke-linejoin:round"
         d="M 214.63,183.731 C 214.63,182.192 216.361,178.498 218.478,181.115 C 220.36,183.442 218.246,187.039 213.244,188.27"
         id="path2623" />
      <path
         style="fill:none;stroke:#000000;stroke-width:3;stroke-linecap:round;stroke-linejoin:round"
         id="path2632_2_"
         d="M 203.138,609.616 C 203.138,609.616 194.755,608.685 185.785,615.764" />
      <path
         style="fill:none;stroke:#000000;stroke-width:3;stroke-linecap:round;stroke-linejoin:round"
         id="path2632_3_"
         d="M 121.254,435.677 C 121.254,435.677 117.59,443.276 121.288,454.088" />
      <path
         style="fill:none;stroke:#000000;stroke-width:3;stroke-linecap:round;stroke-linejoin:round"
         d="M 220.765,377.088 C 226.786,379.479 232.476,381.585 237.331,383.088 C 260.519,390.27 261.956,385.14 266.265,380.83"
         id="path2627" />
      <path
         style="fill:none;stroke:#000000;stroke-width:3;stroke-linecap:round;stroke-linejoin:round"
         d="M 256.825,335.48 C 241.639,335.48 239.178,339.174 224.198,339.174 C 220.952,339.174 217.128,339.087 213.035,338.928"
         id="path2629" />
      <path
         style="fill:none;stroke:#000000;stroke-width:3;stroke-linecap:round;stroke-linejoin:round"
         id="path2632_4_"
         d="M 85.622,283.46 C 85.622,283.46 78.295,287.638 75.205,298.641" />
      <path
         style="fill:none;stroke:#000000;stroke-width:3;stroke-linecap:round;stroke-linejoin:round"
         d="M 374.921,248.986 C 374.921,254.313 376.104,259.279 377.211,264.227"
         id="path2633" />
      <path
         style="fill:none;stroke:#000000;stroke-width:3;stroke-linecap:round;stroke-linejoin:round"
         d="M 386.816,238.192 C 383.081,232.914 378.633,228.432 377.077,217.898"
         id="path2635" />
      <path
         style="fill:none;stroke:#000000;stroke-width:3;stroke-linecap:round;stroke-linejoin:round"
         d="M 385.549,208.14 C 381.616,202.92 378.929,198.029 378.153,193.889"
         id="path2637" />
      <path
         style="fill:none;stroke:#000000;stroke-width:3;stroke-linecap:round;stroke-linejoin:round"
         d="M 379.891,175.222 C 368.12,168.271 363.669,160.911 362.148,157.105"
         id="path2639" />
      <path
         style="fill:none;stroke:#000000;stroke-width:3;stroke-linecap:round;stroke-linejoin:round"
         d="M 362.22,144.8 C 349.883,141.446 348.758,137.559 348.758,137.559"
         id="path2641" />
      <path
         style="fill:none;stroke:#000000;stroke-width:3;stroke-linecap:round;stroke-linejoin:round"
         d="M 341.869,123.683 C 339.161,123.445 336.465,123.481 333.828,123.863"
         id="path2643" />
      <path
         style="fill:none;stroke:#000000;stroke-width:3;stroke-linecap:round;stroke-linejoin:round"
         d="M 270.369,135.097 C 273.945,135.422 277.346,137.457 277.346,140.741 C 277.346,144.025 270.471,143.409 266.573,145.358 C 262.674,147.307 261.229,143.203 263.493,140.432 C 265.132,138.427 265.855,134.687 270.369,135.097 z"
         id="path2647" />
      <path
         style="stroke:#000000;stroke-width:2.79999995"
         d="M 265.002,138.068 C 264.485,138.904 264.039,139.764 263.493,140.432 C 261.228,143.203 262.673,147.307 266.573,145.358 C 267.081,145.104 267.64,144.895 268.228,144.714 C 267.788,141.533 266.134,139.275 265.002,138.068 z"
         id="path2649" />
    </g>
  </g>
  <g
     inkscape:groupmode="layer"
     id="layer3"
     inkscape:label="Reflet final"
     style="display:inline"
     sodipodi:insensitive="true">
    <path
       style="fill:url(#radialGradient3236);fill-opacity:1"
       d="M 1.5,1.5 L 1.5,460.3679 C 1.5,626.67854 135.81454,761.5 301.49993,761.5 C 467.1854,761.5 601.5,626.67854 601.5,460.3679 L 601.5,1.5 L 1.5,1.5 z"
       id="path2346" />
  </g>
  <g
     inkscape:groupmode="layer"
     id="layer4"
     inkscape:label="Contour final"
     style="display:inline"
     sodipodi:insensitive="true">
    <path
       style="fill:none;fill-opacity:1;stroke:#000000;stroke-width:3;stroke-miterlimit:4;stroke-dasharray:none;stroke-opacity:1"
       d="M 1.5,1.5 L 1.5,460.36794 C 1.5,626.67854 135.81454,761.5 301.49993,761.5 C 467.1854,761.5 601.5,626.67854 601.5,460.36794 L 601.5,1.5 L 1.5,1.5 z "
       id="path3239" />
  </g>
</svg>
