<?xml version="1.0" encoding="UTF-8" standalone="no"?>
<svg
   xmlns:dc="http://purl.org/dc/elements/1.1/"
   xmlns:cc="http://creativecommons.org/ns#"
   xmlns:rdf="http://www.w3.org/1999/02/22-rdf-syntax-ns#"
   xmlns:svg="http://www.w3.org/2000/svg"
   xmlns="http://www.w3.org/2000/svg"
   xmlns:xlink="http://www.w3.org/1999/xlink"
   xmlns:sodipodi="http://sodipodi.sourceforge.net/DTD/sodipodi-0.dtd"
   xmlns:inkscape="http://www.inkscape.org/namespaces/inkscape"
   height="763"
   width="603"
   version="1.0"
   id="svg20"
   sodipodi:version="0.32"
   inkscape:version="0.46"
   sodipodi:docname="Severy-coat_of_arms.svg"
   sodipodi:docbase="C:\Documents and Settings\Steve\Bureau\Blason Villages Suisse pour Wikipédia (par Delta-9)"
   inkscape:output_extension="org.inkscape.output.svg.inkscape">
  <metadata
     id="metadata31">
    <rdf:RDF>
      <cc:Work
         rdf:about="">
        <dc:format>image/svg+xml</dc:format>
        <dc:type
           rdf:resource="http://purl.org/dc/dcmitype/StillImage" />
        <dc:date>07-AUG-2006</dc:date>
        <dc:creator>
          <cc:Agent>
            <dc:title>Jérôme BLUM (wagner51)</dc:title>
          </cc:Agent>
        </dc:creator>
        <cc:license
           rdf:resource="http://creativecommons.org/licenses/GPL/2.0/" />
        <dc:coverage />
        <dc:description>Gabarit pour le Projet:Blasons de WIkipédia</dc:description>
        <dc:subject>
          <rdf:Bag>
            <rdf:li>blason suisse modèle gabarit projet blasons</rdf:li>
          </rdf:Bag>
        </dc:subject>
        <dc:language>fr</dc:language>
        <dc:title>Gabrit d'un blason suisse</dc:title>
      </cc:Work>
      <cc:License
         rdf:about="http://creativecommons.org/licenses/GPL/2.0/">
        <cc:permits
           rdf:resource="http://web.resource.org/cc/Reproduction" />
        <cc:permits
           rdf:resource="http://web.resource.org/cc/Distribution" />
        <cc:requires
           rdf:resource="http://web.resource.org/cc/Notice" />
        <cc:permits
           rdf:resource="http://web.resource.org/cc/DerivativeWorks" />
        <cc:requires
           rdf:resource="http://web.resource.org/cc/ShareAlike" />
        <cc:requires
           rdf:resource="http://web.resource.org/cc/SourceCode" />
      </cc:License>
    </rdf:RDF>
  </metadata>
  <defs
     id="defs29"><inkscape:perspective
   sodipodi:type="inkscape:persp3d"
   inkscape:vp_x="0 : 381.5 : 1"
   inkscape:vp_y="0 : 1000 : 0"
   inkscape:vp_z="603 : 381.5 : 1"
   inkscape:persp3d-origin="301.5 : 254.33333 : 1"
   id="perspective28" />
<linearGradient
   id="linearGradient2893">
  <stop
     style="stop-color:#ffffff;stop-opacity:0.3137255;"
     offset="0"
     id="stop2895" />
  <stop
     id="stop2897"
     offset="0.19"
     style="stop-color:#ffffff;stop-opacity:0.25098041;" />
  <stop
     style="stop-color:#6b6b6b;stop-opacity:0.1254902;"
     offset="0.60000002"
     id="stop2901" />
  <stop
     style="stop-color:#000000;stop-opacity:0.1254902;"
     offset="1"
     id="stop2899" />
</linearGradient>
<linearGradient
   id="linearGradient2955">
  <stop
     style="stop-color:white;stop-opacity:0;"
     offset="0"
     id="stop2965" />
  <stop
     style="stop-color:black;stop-opacity:0.64583331;"
     offset="1"
     id="stop2959" />
</linearGradient>
<radialGradient
   inkscape:collect="always"
   xlink:href="#linearGradient2893"
   id="radialGradient3236"
   gradientUnits="userSpaceOnUse"
   gradientTransform="matrix(1.215027,1.531577e-24,1.464684e-23,1.266667,-839.1924,-490.4894)"
   cx="858.04236"
   cy="579.93323"
   fx="858.04236"
   fy="579.93323"
   r="300" />
<inkscape:perspective
   id="perspective2711"
   inkscape:persp3d-origin="297.63751 : 280.63 : 1"
   inkscape:vp_z="595.27502 : 420.94501 : 1"
   inkscape:vp_y="0 : 1000 : 0"
   inkscape:vp_x="0 : 420.94501 : 1"
   sodipodi:type="inkscape:persp3d" />

	
	
		
	

	
	

		
		
		
	
			
			
			
			
			
			
			
			
			
			
			
			
			
			
			
			
			
			
			
			
			
			
			
			
		
			
			
			
			
			
			
			
			
			
			
			
			
			
			
			
			
			
			
			
			
			
			
			
			
		
			
			
			
			
			
			
			
			
			
			
			
			
			
			
			
			
			
			
			
			
			
			
			
			
		</defs>
  <sodipodi:namedview
     inkscape:window-height="968"
     inkscape:window-width="1280"
     inkscape:pageshadow="2"
     inkscape:pageopacity="0.0"
     guidetolerance="10.0"
     gridtolerance="10.0"
     objecttolerance="10.0"
     borderopacity="1.0"
     bordercolor="#666666"
     pagecolor="#ffffff"
     id="base"
     inkscape:zoom="0.95380146"
     inkscape:cx="186.55155"
     inkscape:cy="379.04932"
     inkscape:window-x="1280"
     inkscape:window-y="22"
     inkscape:current-layer="layer2"
     showgrid="false"
     showguides="true"
     inkscape:guide-bbox="true">
    <sodipodi:guide
       orientation="horizontal"
       position="761.5"
       id="guide1885" />
    <sodipodi:guide
       orientation="vertical"
       position="1.5"
       id="guide1887" />
    <sodipodi:guide
       orientation="horizontal"
       position="1.5"
       id="guide1889" />
    <sodipodi:guide
       orientation="vertical"
       position="601.5"
       id="guide1891" />
    <sodipodi:guide
       orientation="vertical"
       position="301.50081"
       id="guide1893" />
  </sodipodi:namedview>
  <desc
     id="desc22">Coat of Arms of Canton of Freiburg (Fribourg)</desc>
  <g
     inkscape:groupmode="layer"
     id="layer1"
     inkscape:label="Fond écu"
     style="opacity:1;display:inline"
     sodipodi:insensitive="true">
    <path
       id="path1899"
       d="M 1.5,1.49998 L 1.5,460.3679 C 1.5,626.6785 135.81456,761.5 301.49999,761.5 C 467.18543,761.5 601.5,626.6785 601.5,460.3679 L 601.5,1.49998 L 1.5,1.49998 z"
       style="fill:#e20909;fill-opacity:1" />
    <rect
       id="rect2624"
       height="249.688"
       width="600"
       y="1.5"
       x="1.5"
       style="opacity:1;fill:#ffffff" />
  </g>
  <g
     inkscape:groupmode="layer"
     id="layer2"
     inkscape:label="Meubles"
     style="opacity:1;display:inline"
     sodipodi:insensitive="true">
    <path
       id="path2627"
       d="M 489.736,482.461 C 485.325,478.048 479.459,475.618 473.22,475.618 C 473.22,475.618 472.065,475.618 471.326,475.618 C 471.326,474.025 471.326,472.27 471.326,472.27 C 471.326,459.391 460.848,448.913 447.971,448.913 C 435.094,448.913 424.616,459.392 424.616,472.27 C 424.616,472.27 424.616,476.131 424.616,479.759 C 415.529,479.759 329.803,479.759 320.717,479.759 C 320.717,470.673 320.717,384.947 320.717,375.862 C 324.346,375.862 328.206,375.862 328.206,375.862 C 341.085,375.862 351.562,365.384 351.562,352.506 C 351.562,339.627 341.084,329.15 328.206,329.15 C 328.206,329.15 326.45,329.15 324.856,329.15 C 324.856,328.412 324.856,327.256 324.856,327.256 C 324.856,314.377 314.378,303.9 301.5,303.9 C 288.622,303.9 278.144,314.378 278.144,327.256 C 278.144,327.256 278.144,328.411 278.144,329.15 C 276.551,329.15 274.795,329.15 274.795,329.15 C 261.917,329.15 251.439,339.628 251.439,352.506 C 251.439,365.384 261.917,375.862 274.795,375.862 C 274.795,375.862 278.656,375.862 282.285,375.862 C 282.285,384.948 282.285,470.674 282.285,479.759 C 273.199,479.759 187.473,479.759 178.387,479.759 C 178.387,476.131 178.387,472.27 178.387,472.27 C 178.387,459.391 167.909,448.913 155.032,448.913 C 142.153,448.913 131.675,459.392 131.675,472.27 C 131.675,472.27 131.675,474.025 131.675,475.618 C 130.937,475.618 129.782,475.618 129.782,475.618 C 116.903,475.618 106.425,486.096 106.425,498.975 C 106.425,511.854 116.903,522.332 129.782,522.332 C 129.782,522.332 130.937,522.332 131.675,522.332 C 131.675,523.925 131.675,525.68 131.675,525.68 C 131.675,538.559 142.153,549.037 155.032,549.037 C 167.91,549.037 178.387,538.558 178.387,525.68 C 178.387,525.68 178.387,521.819 178.387,518.192 C 187.473,518.192 273.199,518.192 282.285,518.192 C 282.285,527.278 282.285,613.003 282.285,622.089 C 278.657,622.089 274.795,622.089 274.795,622.089 C 268.556,622.089 262.691,624.518 258.28,628.929 C 253.869,633.341 251.439,639.206 251.439,645.447 C 251.439,658.325 261.917,668.801 274.795,668.801 C 274.795,668.801 276.55,668.801 278.144,668.801 C 278.144,669.539 278.144,670.695 278.144,670.695 C 278.144,683.574 288.622,694.051 301.5,694.051 C 314.378,694.051 324.856,683.573 324.856,670.695 C 324.856,670.695 324.856,669.54 324.856,668.801 C 326.45,668.801 328.206,668.801 328.206,668.801 C 341.085,668.801 351.562,658.324 351.562,645.447 C 351.562,639.207 349.132,633.342 344.72,628.929 C 340.308,624.518 334.445,622.089 328.205,622.089 C 328.205,622.089 324.345,622.089 320.716,622.089 C 320.716,613.002 320.716,527.277 320.716,518.192 C 329.802,518.192 415.528,518.192 424.614,518.192 C 424.614,521.819 424.614,525.68 424.614,525.68 C 424.614,538.559 435.092,549.037 447.969,549.037 C 460.848,549.037 471.325,538.558 471.325,525.68 C 471.325,525.68 471.325,523.925 471.325,522.332 C 472.063,522.332 473.218,522.332 473.218,522.332 C 486.097,522.332 496.574,511.854 496.574,498.975 C 496.574,498.974 496.574,498.973 496.574,498.973 C 496.576,492.738 494.147,486.872 489.736,482.461 z"
       style="fill:#ffffff;stroke:#000000;stroke-width:3;stroke-linecap:round;stroke-linejoin:round" />
    <line
       y2="251.188"
       x2="601.49902"
       y1="251.188"
       x1="1.5"
       id="line2741"
       style="fill:none;stroke:#000000;stroke-width:3;stroke-linejoin:round" />
    <g
       id="g3188">
      <g
         id="g3136">
        <path
           d="M 301.996,205.4 C 321.982,205.4 323.086,192.441 323.086,189.705 C 327.721,193.742 334.357,197.519 341.242,193.481 C 348.132,189.444 349.133,181.108 347.256,178.242 C 347.256,178.242 355.02,182.019 361.029,174.203 C 367.042,166.388 363.784,159.746 360.277,157.271 C 362.782,159.225 368.167,156.49 370.672,152.582 C 373.178,148.673 373.677,140.729 370.424,139.109 C 373.572,135.834 377.114,132.355 377.114,127.032 C 377.114,122.21 376.586,118.639 366.074,115.094 C 366.074,115.094 371.492,110.826 365.302,103.58 C 359.108,96.333 346.333,92.229 337.672,92.229 C 332.6,81.937 338.776,75.643 338.776,71.185 C 338.776,66.264 335.465,62.908 328.301,62.908 C 321.139,62.908 315.267,62.908 315.267,62.908 C 315.267,57.594 309.326,53.287 301.996,53.287 C 294.666,53.287 288.725,57.594 288.725,62.908 C 288.725,62.908 282.853,62.908 275.69,62.908 C 268.528,62.908 265.215,66.263 265.215,71.185 C 265.215,75.643 271.393,81.937 266.32,92.229 C 257.658,92.229 244.884,96.334 238.692,103.58 C 232.499,110.827 237.919,115.094 237.919,115.094 C 227.407,118.639 226.878,122.211 226.878,127.032 C 226.878,132.354 230.42,135.833 233.568,139.109 C 230.315,140.729 230.816,148.673 233.32,152.582 C 235.824,156.49 241.21,159.225 243.714,157.271 C 240.208,159.746 236.952,166.388 242.963,174.203 C 248.973,182.019 256.737,178.242 256.737,178.242 C 254.859,181.108 255.861,189.444 262.748,193.481 C 269.637,197.519 276.273,193.742 280.907,189.705 C 280.909,192.441 282.012,205.4 301.996,205.4 z"
           id="path3840"
           style="stroke:#ffffff;stroke-width:3;stroke-linecap:round;stroke-linejoin:round" />
        <path
           d="M 297.827,109.528 C 297.827,109.528 294.45,144.903 288.046,168.343 C 284.915,179.804 280.908,186.968 280.908,189.704"
           id="path3842"
           style="fill:none;stroke:#ffffff;stroke-width:2.5;stroke-linecap:round;stroke-linejoin:round" />
        <path
           d="M 306.168,109.528 C 306.168,109.528 309.546,144.903 315.948,168.343 C 319.078,179.804 323.086,186.968 323.086,189.704"
           id="path3844"
           style="fill:none;stroke:#ffffff;stroke-width:2.5;stroke-linecap:round;stroke-linejoin:round" />
        <path
           d="M 291.177,104.13 C 291.177,104.13 284.915,132.134 273.27,152.583 C 261.624,173.033 258.618,175.376 256.74,178.242"
           id="path3846"
           style="fill:none;stroke:#ffffff;stroke-width:2.5;stroke-linecap:round;stroke-linejoin:round" />
        <path
           d="M 287.045,98.529 C 287.045,98.529 276.245,127.051 258.367,144.116 C 249.226,152.843 247.222,154.796 243.716,157.271"
           id="path3848"
           style="fill:none;stroke:#ffffff;stroke-width:2.5;stroke-linecap:round;stroke-linejoin:round" />
        <path
           d="M 282.036,92.277 C 282.036,92.277 268.367,118.1 245.971,131.873 C 237.921,136.822 236.824,137.489 233.57,139.109"
           id="path3850"
           style="fill:none;stroke:#ffffff;stroke-width:2.5;stroke-linecap:round;stroke-linejoin:round" />
        <path
           d="M 237.92,115.095 C 278.53,101.394 285.523,71.769 285.523,71.769"
           id="path3852"
           style="fill:none;stroke:#ffffff;stroke-width:2.5;stroke-linecap:round;stroke-linejoin:round" />
        <path
           d="M 266.322,92.23 C 265.795,93.3 265.146,94.412 264.356,95.57"
           id="path3854"
           style="fill:none;stroke:#ffffff;stroke-width:2.5;stroke-linecap:round;stroke-linejoin:round" />
        <path
           d="M 312.817,104.13 C 312.817,104.13 319.078,132.134 330.723,152.583 C 342.369,173.033 345.375,175.376 347.254,178.242"
           id="path3856"
           style="fill:none;stroke:#ffffff;stroke-width:2.5;stroke-linecap:round;stroke-linejoin:round" />
        <path
           d="M 316.95,98.529 C 316.95,98.529 327.749,127.051 345.627,144.116 C 354.77,152.843 356.772,154.796 360.277,157.271"
           id="path3858"
           style="fill:none;stroke:#ffffff;stroke-width:2.5;stroke-linecap:round;stroke-linejoin:round" />
        <path
           d="M 321.959,92.277 C 321.959,92.277 335.629,118.1 358.024,131.873 C 366.074,136.822 367.171,137.489 370.422,139.109"
           id="path3860"
           style="fill:none;stroke:#ffffff;stroke-width:2.5;stroke-linecap:round;stroke-linejoin:round" />
        <path
           d="M 366.074,115.095 C 325.466,101.394 318.471,71.769 318.471,71.769"
           id="path3862"
           style="fill:none;stroke:#ffffff;stroke-width:2.5;stroke-linecap:round;stroke-linejoin:round" />
        <path
           d="M 337.672,92.23 C 338.198,93.3 338.85,94.412 339.639,95.57"
           id="path3864"
           style="fill:none;stroke:#ffffff;stroke-width:2.5;stroke-linecap:round;stroke-linejoin:round" />
        <path
           d="M 244.809,102.322 C 244.809,102.322 239.517,104.525 240.424,110.658"
           id="path3866"
           style="fill:none;stroke:#ffffff;stroke-width:2.5;stroke-linecap:round;stroke-linejoin:round" />
        <path
           d="M 233.316,121.196 C 233.316,121.196 230.292,128.117 234.677,133.464"
           id="path3868"
           style="fill:none;stroke:#ffffff;stroke-width:2.5;stroke-linecap:round;stroke-linejoin:round" />
        <path
           d="M 236.643,141.643 C 236.643,141.643 235.584,149.35 241.18,152.81"
           id="path3870"
           style="fill:none;stroke:#ffffff;stroke-width:2.5;stroke-linecap:round;stroke-linejoin:round" />
        <path
           d="M 244.96,162.404 C 244.96,162.404 245.565,172.155 254.94,173.414"
           id="path3872"
           style="fill:none;stroke:#ffffff;stroke-width:2.5;stroke-linecap:round;stroke-linejoin:round" />
        <path
           d="M 261.292,181.121 C 261.292,181.121 261.897,189.143 272.785,188.986"
           id="path3874"
           style="fill:none;stroke:#ffffff;stroke-width:2.5;stroke-linecap:round;stroke-linejoin:round" />
        <path
           d="M 359.186,102.322 C 359.186,102.322 364.479,104.525 363.573,110.658"
           id="path3876"
           style="fill:none;stroke:#ffffff;stroke-width:2.5;stroke-linecap:round;stroke-linejoin:round" />
        <path
           d="M 370.68,121.196 C 370.68,121.196 373.702,128.117 369.32,133.464"
           id="path3878"
           style="fill:none;stroke:#ffffff;stroke-width:2.5;stroke-linecap:round;stroke-linejoin:round" />
        <path
           d="M 367.352,141.643 C 367.352,141.643 368.412,149.35 362.816,152.81"
           id="path3880"
           style="fill:none;stroke:#ffffff;stroke-width:2.5;stroke-linecap:round;stroke-linejoin:round" />
        <path
           d="M 359.034,162.404 C 359.034,162.404 358.43,172.155 349.054,173.414"
           id="path3882"
           style="fill:none;stroke:#ffffff;stroke-width:2.5;stroke-linecap:round;stroke-linejoin:round" />
        <path
           d="M 342.702,181.121 C 342.702,181.121 342.098,189.143 331.21,188.986"
           id="path3884"
           style="fill:none;stroke:#ffffff;stroke-width:2.5;stroke-linecap:round;stroke-linejoin:round" />
        <path
           d="M 317.149,193.075 C 317.149,193.075 313.765,198.673 301.998,198.673 C 290.231,198.673 286.85,193.075 286.85,193.075"
           id="path3886"
           style="fill:none;stroke:#ffffff;stroke-width:2.5;stroke-linecap:round;stroke-linejoin:round" />
      </g>
      <g
         id="g3110">
        <path
           d="M 512.027,189.705 C 516.661,193.742 523.298,197.519 530.184,193.481 C 537.072,189.444 538.074,181.108 536.197,178.242 C 536.197,178.242 543.961,182.019 549.97,174.203 C 555.982,166.388 552.726,159.746 549.219,157.271 C 551.723,159.225 557.11,156.49 559.613,152.582 C 562.118,148.673 562.618,140.729 559.366,139.109 C 562.514,135.834 566.054,132.355 566.054,127.032 C 566.054,122.21 565.527,118.639 555.014,115.094 C 555.014,115.094 560.435,110.826 554.242,103.58 C 548.049,96.334 535.273,92.229 526.613,92.229 C 521.54,81.937 527.718,75.643 527.718,71.185 C 527.718,66.264 524.405,62.908 517.241,62.908 C 510.077,62.908 504.207,62.908 504.207,62.908 C 504.207,57.594 498.268,53.287 490.936,53.287 C 483.607,53.287 477.665,57.594 477.665,62.908 C 477.665,62.908 471.794,62.908 464.631,62.908 C 457.467,62.908 454.155,66.263 454.155,71.185 C 454.155,75.643 460.333,81.937 455.259,92.229 C 446.599,92.229 433.824,96.333 427.631,103.58 C 421.439,110.827 426.858,115.094 426.858,115.094 C 416.345,118.639 415.818,122.211 415.818,127.032 C 415.818,132.354 419.359,135.834 422.508,139.109 C 419.254,140.729 419.754,148.673 422.26,152.582 C 424.764,156.49 430.149,159.225 432.655,157.271 C 429.148,159.746 425.891,166.388 431.902,174.203 C 437.913,182.019 445.676,178.242 445.676,178.242 C 443.799,181.108 444.801,189.444 451.688,193.481 C 458.575,197.519 465.212,193.742 469.846,189.705 C 469.846,192.441 470.95,205.4 490.935,205.4 C 510.924,205.4 512.026,192.441 512.027,189.705 z"
           id="path5795_1_"
           style="stroke:#ffffff;stroke-width:3;stroke-linecap:round;stroke-linejoin:round" />
        <path
           d="M 512.026,189.704 C 512.026,186.968 508.018,179.805 504.888,168.343 C 498.485,144.903 495.107,109.528 495.107,109.528"
           id="path5797_1_"
           style="fill:none;stroke:#ffffff;stroke-width:2.5;stroke-linecap:round;stroke-linejoin:round" />
        <path
           d="M 469.849,189.704 C 469.849,186.968 473.857,179.805 476.987,168.343 C 483.389,144.903 486.768,109.528 486.768,109.528"
           id="path5799_1_"
           style="fill:none;stroke:#ffffff;stroke-width:2.5;stroke-linecap:round;stroke-linejoin:round" />
        <path
           d="M 536.196,178.243 C 534.316,175.377 531.31,173.034 519.664,152.584 C 508.018,132.135 501.759,104.131 501.759,104.131"
           id="path5801_1_"
           style="fill:none;stroke:#ffffff;stroke-width:2.5;stroke-linecap:round;stroke-linejoin:round" />
        <path
           d="M 549.219,157.271 C 545.714,154.796 543.708,152.843 534.568,144.116 C 516.692,127.051 505.892,98.529 505.892,98.529"
           id="path5803_1_"
           style="fill:none;stroke:#ffffff;stroke-width:2.5;stroke-linecap:round;stroke-linejoin:round" />
        <path
           d="M 559.364,139.11 C 556.112,137.49 555.014,136.823 546.966,131.874 C 524.569,118.101 510.9,92.278 510.9,92.278"
           id="path5805_1_"
           style="fill:none;stroke:#ffffff;stroke-width:2.5;stroke-linecap:round;stroke-linejoin:round" />
        <path
           d="M 507.412,71.769 C 507.412,71.769 514.405,101.394 555.016,115.095"
           id="path5807_1_"
           style="fill:none;stroke:#ffffff;stroke-width:2.5;stroke-linecap:round;stroke-linejoin:round" />
        <path
           d="M 528.578,95.57 C 527.788,94.412 527.14,93.3 526.612,92.23"
           id="path5809_1_"
           style="fill:none;stroke:#ffffff;stroke-width:2.5;stroke-linecap:round;stroke-linejoin:round" />
        <path
           d="M 445.679,178.243 C 447.559,175.377 450.565,173.034 462.21,152.584 C 473.856,132.135 480.116,104.131 480.116,104.131"
           id="path5811_1_"
           style="fill:none;stroke:#ffffff;stroke-width:2.5;stroke-linecap:round;stroke-linejoin:round" />
        <path
           d="M 432.656,157.271 C 436.163,154.796 438.165,152.843 447.307,144.116 C 465.183,127.051 475.983,98.529 475.983,98.529"
           id="path5813_1_"
           style="fill:none;stroke:#ffffff;stroke-width:2.5;stroke-linecap:round;stroke-linejoin:round" />
        <path
           d="M 422.511,139.11 C 425.763,137.49 426.861,136.823 434.909,131.874 C 457.305,118.101 470.974,92.278 470.974,92.278"
           id="path5815_1_"
           style="fill:none;stroke:#ffffff;stroke-width:2.5;stroke-linecap:round;stroke-linejoin:round" />
        <path
           d="M 474.463,71.769 C 474.463,71.769 467.469,101.394 426.859,115.095"
           id="path5817_1_"
           style="fill:none;stroke:#ffffff;stroke-width:2.5;stroke-linecap:round;stroke-linejoin:round" />
        <path
           d="M 453.297,95.57 C 454.087,94.412 454.735,93.3 455.262,92.23"
           id="path5819_1_"
           style="fill:none;stroke:#ffffff;stroke-width:2.5;stroke-linecap:round;stroke-linejoin:round" />
        <path
           d="M 552.512,110.658 C 553.419,104.525 548.127,102.322 548.127,102.322"
           id="path5821_1_"
           style="fill:none;stroke:#ffffff;stroke-width:2.5;stroke-linecap:round;stroke-linejoin:round" />
        <path
           d="M 558.26,133.464 C 562.645,128.117 559.619,121.196 559.619,121.196"
           id="path5823_1_"
           style="fill:none;stroke:#ffffff;stroke-width:2.5;stroke-linecap:round;stroke-linejoin:round" />
        <path
           d="M 551.756,152.811 C 557.351,149.35 556.292,141.644 556.292,141.644"
           id="path5825_1_"
           style="fill:none;stroke:#ffffff;stroke-width:2.5;stroke-linecap:round;stroke-linejoin:round" />
        <path
           d="M 537.993,173.414 C 547.37,172.155 547.975,162.404 547.975,162.404"
           id="path5827_1_"
           style="fill:none;stroke:#ffffff;stroke-width:2.5;stroke-linecap:round;stroke-linejoin:round" />
        <path
           d="M 520.15,188.986 C 531.039,189.143 531.644,181.121 531.644,181.121"
           id="path5829_1_"
           style="fill:none;stroke:#ffffff;stroke-width:2.5;stroke-linecap:round;stroke-linejoin:round" />
        <path
           d="M 429.362,110.658 C 428.455,104.525 433.748,102.322 433.748,102.322"
           id="path5831_1_"
           style="fill:none;stroke:#ffffff;stroke-width:2.5;stroke-linecap:round;stroke-linejoin:round" />
        <path
           d="M 423.615,133.464 C 419.23,128.117 422.256,121.196 422.256,121.196"
           id="path5833_1_"
           style="fill:none;stroke:#ffffff;stroke-width:2.5;stroke-linecap:round;stroke-linejoin:round" />
        <path
           d="M 430.119,152.811 C 424.524,149.35 425.583,141.644 425.583,141.644"
           id="path5835_1_"
           style="fill:none;stroke:#ffffff;stroke-width:2.5;stroke-linecap:round;stroke-linejoin:round" />
        <path
           d="M 443.882,173.414 C 434.505,172.155 433.9,162.404 433.9,162.404"
           id="path5837_1_"
           style="fill:none;stroke:#ffffff;stroke-width:2.5;stroke-linecap:round;stroke-linejoin:round" />
        <path
           d="M 461.726,188.986 C 450.836,189.143 450.232,181.121 450.232,181.121"
           id="path5839_1_"
           style="fill:none;stroke:#ffffff;stroke-width:2.5;stroke-linecap:round;stroke-linejoin:round" />
        <path
           d="M 506.089,193.075 C 506.089,193.075 502.704,198.673 490.938,198.673 C 479.172,198.673 475.788,193.075 475.788,193.075"
           id="path5841_1_"
           style="fill:none;stroke:#ffffff;stroke-width:2.5;stroke-linecap:round;stroke-linejoin:round" />
      </g>
      <g
         id="g3162">
        <path
           d="M 112.061,205.4 C 132.045,205.4 133.149,192.441 133.149,189.705 C 137.783,193.742 144.421,197.519 151.308,193.481 C 158.195,189.444 159.197,181.108 157.319,178.242 C 157.319,178.242 165.083,182.019 171.094,174.203 C 177.105,166.388 173.848,159.746 170.342,157.271 C 172.848,159.225 178.232,156.49 180.737,152.582 C 183.242,148.673 183.742,140.729 180.488,139.109 C 183.637,135.834 187.179,132.355 187.179,127.032 C 187.179,122.21 186.651,118.639 176.139,115.094 C 176.139,115.094 181.556,110.826 175.365,103.58 C 169.172,96.333 156.399,92.229 147.737,92.229 C 142.665,81.937 148.841,75.643 148.841,71.185 C 148.841,66.264 145.53,62.908 138.367,62.908 C 131.204,62.908 125.332,62.908 125.332,62.908 C 125.332,57.594 119.39,53.287 112.061,53.287 C 104.731,53.287 98.789997,57.594 98.789997,62.908 C 98.789997,62.908 92.917997,62.908 85.755997,62.908 C 78.591997,62.908 75.279997,66.263 75.279997,71.185 C 75.279997,75.643 81.457997,81.937 76.385997,92.229 C 67.723997,92.229 54.949997,96.334 48.756997,103.58 C 42.563997,110.827 47.983997,115.094 47.983997,115.094 C 37.471997,118.639 36.943997,122.211 36.943997,127.032 C 36.943997,132.354 40.484997,135.833 43.632997,139.109 C 40.380997,140.729 40.880997,148.673 43.384997,152.582 C 45.888997,156.49 51.274997,159.225 53.778997,157.271 C 50.272997,159.746 47.016997,166.388 53.028997,174.203 C 59.039997,182.019 66.802997,178.242 66.802997,178.242 C 64.924997,181.108 65.926997,189.444 72.814997,193.481 C 79.701997,197.519 86.337997,193.742 90.972997,189.705 C 90.970997,192.441 92.074997,205.4 112.061,205.4 z"
           id="path5795_2_"
           style="stroke:#ffffff;stroke-width:3;stroke-linecap:round;stroke-linejoin:round" />
        <path
           d="M 107.89,109.528 C 107.89,109.528 104.513,144.903 98.108997,168.343 C 94.978997,179.804 90.971997,186.968 90.971997,189.704"
           id="path5797_2_"
           style="fill:none;stroke:#ffffff;stroke-width:2.5;stroke-linecap:round;stroke-linejoin:round" />
        <path
           d="M 116.231,109.528 C 116.231,109.528 119.609,144.903 126.012,168.343 C 129.142,179.804 133.149,186.968 133.149,189.704"
           id="path5799_2_"
           style="fill:none;stroke:#ffffff;stroke-width:2.5;stroke-linecap:round;stroke-linejoin:round" />
        <path
           d="M 101.24,104.13 C 101.24,104.13 94.977997,132.134 83.332997,152.583 C 71.686997,173.033 68.680997,175.376 66.801997,178.242"
           id="path5801_2_"
           style="fill:none;stroke:#ffffff;stroke-width:2.5;stroke-linecap:round;stroke-linejoin:round" />
        <path
           d="M 97.106997,98.529 C 97.106997,98.529 86.306997,127.051 68.429997,144.116 C 59.288997,152.843 57.282997,154.796 53.778997,157.271"
           id="path5803_2_"
           style="fill:none;stroke:#ffffff;stroke-width:2.5;stroke-linecap:round;stroke-linejoin:round" />
        <path
           d="M 92.098997,92.277 C 92.098997,92.277 78.429997,118.1 56.032997,131.873 C 47.982997,136.822 46.885997,137.489 43.633997,139.109"
           id="path5805_2_"
           style="fill:none;stroke:#ffffff;stroke-width:2.5;stroke-linecap:round;stroke-linejoin:round" />
        <path
           d="M 47.981997,115.095 C 88.591997,101.394 95.584997,71.769 95.584997,71.769"
           id="path5807_2_"
           style="fill:none;stroke:#ffffff;stroke-width:2.5;stroke-linecap:round;stroke-linejoin:round" />
        <path
           d="M 76.383997,92.23 C 75.855997,93.3 75.207997,94.412 74.417997,95.57"
           id="path5809_2_"
           style="fill:none;stroke:#ffffff;stroke-width:2.5;stroke-linecap:round;stroke-linejoin:round" />
        <path
           d="M 122.879,104.13 C 122.879,104.13 129.141,132.134 140.787,152.583 C 152.433,173.033 155.438,175.376 157.317,178.242"
           id="path5811_2_"
           style="fill:none;stroke:#ffffff;stroke-width:2.5;stroke-linecap:round;stroke-linejoin:round" />
        <path
           d="M 127.013,98.529 C 127.013,98.529 137.813,127.051 155.69,144.116 C 164.832,152.843 166.835,154.796 170.341,157.271"
           id="path5813_2_"
           style="fill:none;stroke:#ffffff;stroke-width:2.5;stroke-linecap:round;stroke-linejoin:round" />
        <path
           d="M 132.023,92.277 C 132.023,92.277 145.692,118.1 168.088,131.873 C 176.138,136.822 177.235,137.489 180.487,139.109"
           id="path5815_2_"
           style="fill:none;stroke:#ffffff;stroke-width:2.5;stroke-linecap:round;stroke-linejoin:round" />
        <path
           d="M 176.138,115.095 C 135.529,101.394 128.535,71.769 128.535,71.769"
           id="path5817_2_"
           style="fill:none;stroke:#ffffff;stroke-width:2.5;stroke-linecap:round;stroke-linejoin:round" />
        <path
           d="M 147.735,92.23 C 148.262,93.3 148.91,94.412 149.7,95.57"
           id="path5819_2_"
           style="fill:none;stroke:#ffffff;stroke-width:2.5;stroke-linecap:round;stroke-linejoin:round" />
        <path
           d="M 54.870997,102.322 C 54.870997,102.322 49.578997,104.525 50.485997,110.658"
           id="path5821_2_"
           style="fill:none;stroke:#ffffff;stroke-width:2.5;stroke-linecap:round;stroke-linejoin:round" />
        <path
           d="M 43.378997,121.196 C 43.378997,121.196 40.354997,128.117 44.738997,133.464"
           id="path5823_2_"
           style="fill:none;stroke:#ffffff;stroke-width:2.5;stroke-linecap:round;stroke-linejoin:round" />
        <path
           d="M 46.706997,141.643 C 46.706997,141.643 45.646997,149.35 51.241997,152.81"
           id="path5825_2_"
           style="fill:none;stroke:#ffffff;stroke-width:2.5;stroke-linecap:round;stroke-linejoin:round" />
        <path
           d="M 55.021997,162.404 C 55.021997,162.404 55.626997,172.155 65.002997,173.414"
           id="path5827_2_"
           style="fill:none;stroke:#ffffff;stroke-width:2.5;stroke-linecap:round;stroke-linejoin:round" />
        <path
           d="M 71.353997,181.121 C 71.353997,181.121 71.958997,189.143 82.846997,188.986"
           id="path5829_2_"
           style="fill:none;stroke:#ffffff;stroke-width:2.5;stroke-linecap:round;stroke-linejoin:round" />
        <path
           d="M 169.249,102.322 C 169.249,102.322 174.542,104.525 173.635,110.658"
           id="path5831_2_"
           style="fill:none;stroke:#ffffff;stroke-width:2.5;stroke-linecap:round;stroke-linejoin:round" />
        <path
           d="M 180.742,121.196 C 180.742,121.196 183.766,128.117 179.382,133.464"
           id="path5833_2_"
           style="fill:none;stroke:#ffffff;stroke-width:2.5;stroke-linecap:round;stroke-linejoin:round" />
        <path
           d="M 177.415,141.643 C 177.415,141.643 178.474,149.35 172.879,152.81"
           id="path5835_2_"
           style="fill:none;stroke:#ffffff;stroke-width:2.5;stroke-linecap:round;stroke-linejoin:round" />
        <path
           d="M 169.098,162.404 C 169.098,162.404 168.493,172.155 159.117,173.414"
           id="path5837_2_"
           style="fill:none;stroke:#ffffff;stroke-width:2.5;stroke-linecap:round;stroke-linejoin:round" />
        <path
           d="M 152.766,181.121 C 152.766,181.121 152.162,189.143 141.273,188.986"
           id="path5839_2_"
           style="fill:none;stroke:#ffffff;stroke-width:2.5;stroke-linecap:round;stroke-linejoin:round" />
        <path
           d="M 127.211,193.075 C 127.211,193.075 123.828,198.673 112.061,198.673 C 100.294,198.673 96.909997,193.075 96.909997,193.075"
           id="path5841_2_"
           style="fill:none;stroke:#ffffff;stroke-width:2.5;stroke-linecap:round;stroke-linejoin:round" />
      </g>
    </g>
  </g>
  <g
     inkscape:groupmode="layer"
     id="layer3"
     inkscape:label="Reflet final"
     style="display:inline"
     sodipodi:insensitive="true">
    <path
       style="fill:url(#radialGradient3236);fill-opacity:1"
       d="M 1.5,1.5 L 1.5,460.3679 C 1.5,626.67854 135.81454,761.5 301.49993,761.5 C 467.1854,761.5 601.5,626.67854 601.5,460.3679 L 601.5,1.5 L 1.5,1.5 z "
       id="path2346" />
  </g>
  <g
     inkscape:groupmode="layer"
     id="layer4"
     inkscape:label="Contour final"
     style="display:inline"
     sodipodi:insensitive="true">
    <path
       style="fill:none;fill-opacity:1;stroke:#000000;stroke-width:3;stroke-miterlimit:4;stroke-dasharray:none;stroke-opacity:1"
       d="M 1.5,1.5 L 1.5,460.36794 C 1.5,626.67854 135.81454,761.5 301.49993,761.5 C 467.1854,761.5 601.5,626.67854 601.5,460.36794 L 601.5,1.5 L 1.5,1.5 z "
       id="path3239" />
  </g>
</svg>
