<?xml version="1.0" encoding="UTF-8"?>
<svg version="1.0" viewBox="0 0 603 763" xmlns="http://www.w3.org/2000/svg" xmlns:cc="http://creativecommons.org/ns#" xmlns:dc="http://purl.org/dc/elements/1.1/" xmlns:rdf="http://www.w3.org/1999/02/22-rdf-syntax-ns#" xmlns:xlink="http://www.w3.org/1999/xlink">
<metadata>
<rdf:RDF>
<cc:Work rdf:about="">
<dc:format>image/svg+xml</dc:format>
<dc:type rdf:resource="http://purl.org/dc/dcmitype/StillImage"/>
<dc:date>07-AUG-2006</dc:date>
<dc:creator>
<cc:Agent>
<dc:title>Jérôme BLUM (wagner51)</dc:title>
</cc:Agent>
</dc:creator>
<cc:license rdf:resource="http://creativecommons.org/licenses/GPL/2.0/"/>
<dc:coverage/>
<dc:description>Gabarit pour le Projet:Blasons de WIkipédia</dc:description>
<dc:subject>
<rdf:Bag>
<rdf:li>blason suisse modèle gabarit projet blasons</rdf:li>
</rdf:Bag>
</dc:subject>
<dc:language>fr</dc:language>
<dc:title/>
</cc:Work>
<cc:License rdf:about="http://creativecommons.org/licenses/GPL/2.0/">
<cc:permits rdf:resource="http://web.resource.org/cc/Reproduction"/>
<cc:permits rdf:resource="http://web.resource.org/cc/Distribution"/>
<cc:requires rdf:resource="http://web.resource.org/cc/Notice"/>
<cc:permits rdf:resource="http://web.resource.org/cc/DerivativeWorks"/>
<cc:requires rdf:resource="http://web.resource.org/cc/ShareAlike"/>
<cc:requires rdf:resource="http://web.resource.org/cc/SourceCode"/>
</cc:License>
</rdf:RDF>
</metadata>
<defs>
<radialGradient id="a" cx="858.04" cy="579.93" r="300" gradientTransform="matrix(1.215 1.5316e-24 1.4647e-23 1.2667 -839.19 -490.49)" gradientUnits="userSpaceOnUse">
<stop stop-color="#fff" stop-opacity=".31373" offset="0"/>
<stop stop-color="#fff" stop-opacity=".25098" offset=".19"/>
<stop stop-color="#6b6b6b" stop-opacity=".12549" offset=".6"/>
<stop stop-opacity=".12549" offset="1"/>
</radialGradient>
</defs>
<desc>Coat of Arms of Canton of Freiburg (Fribourg)</desc>
<g>
<path d="m1.5 1.5v458.87c0 166.31 134.31 301.13 300 301.13 165.69 0 300-134.82 300-301.13v-458.87h-600z" fill="#2b5df2"/>
<path d="m1.5 367v93.369c0 166.31 134.31 301.13 300 301.13 165.69 0 300-134.82 300-301.13v-93.369h-600z" fill="#e20909"/>
<line x1="1.5" x2="601.5" y1="367" y2="367" fill="none" stroke="#000" stroke-width="3"/>
<path d="m274.42 32.358c-21.364 0.0168-40.253 23.221-18.43 40.032-9.0446-17.191 32.653-26.774 32.653 12.253v78.361h-78.361c-39.027 0-29.445-41.698-12.253-32.653-16.81-21.823-40.015-2.9343-40.032 18.43-8e-3 9.711 4.7753 19.936 17.128 27.077-12.353 7.1412-17.135 17.366-17.128 27.077 0.0168 21.364 23.222 40.253 40.032 18.43-17.191 9.0446-26.774-32.653 12.253-32.653h78.361v78.361c0 39.027-41.698 29.445-32.653 12.253-21.823 16.81-2.9343 40.015 18.43 40.032 9.711 8e-3 19.936-4.7753 27.077-17.128 7.1412 12.353 17.366 17.135 27.077 17.128 21.364-0.0168 40.253-23.222 18.43-40.032 9.0446 17.191-32.653 26.774-32.653-12.253v-78.361h78.361c39.027 0 29.445 41.698 12.253 32.653 16.81 21.823 40.015 2.9343 40.032-18.43 8e-3 -9.711-4.7753-19.936-17.128-27.077 12.353-7.1412 17.135-17.366 17.128-27.077-0.0168-21.364-23.221-40.253-40.032-18.43 17.191-9.0446 26.774 32.653-12.253 32.653h-78.361v-78.361c0-39.027 41.698-29.445 32.653-12.253 21.823-16.81 2.9343-40.015-18.43-40.032-9.711-8e-3 -19.936 4.7753-27.077 17.128-7.1412-12.353-17.366-17.135-27.077-17.128z" fill="#fcef3c" stroke="#000" stroke-linecap="round" stroke-linejoin="round" stroke-width="3"/>
<g transform="matrix(.40925 0 0 .49382 -462.35 -556.18)" fill="#fcef3c" stroke="#000" stroke-width="6.2285">
<g transform="translate(1320.3 1895.1)" fill="#fff" stroke="#000">
<path d="m325.71 595.22 174.29-1.1835c26.222-20.72 54.981-37.821 65.714-55.959l-158.99-2.8571c-10.044 16.19-61.009 43.81-81.01 60z" fill-rule="evenodd" stroke-width="6.2285"/>
<path d="m302.86 569.51c21.179-11.24 38.432-26.995 48.318-48.751 30.555-67.881 17.33-120.87 59.457-304.43-15.271-0.13224-16.756-9.7696-29.552 0-19.553 94.286-64.89 258.9-78.223 353.18z" fill-rule="evenodd" stroke-width="6.2285"/>
<rect transform="matrix(.9887 .1499 -.1499 .9887 0 0)" x="628.51" y="163.76" width="22.223" height="252.54" stroke-width="6.2285"/>
<path d="m1140.1 8.8125c-3.384-0.091575-7.04 0.49917-10.656 1.8125l-62.656 22.75c-5.2412 1.9035-9.4889 5.0244-12.312 8.6562-105.59 33.271-165.01 73.225-225.25 147.81-32.481 40.216-53.244 67.857-77.5 83.406-24.256 15.549-53.409 21.275-108.03 15.875l-2.4375 24.844c57.325 5.6667 94.101-0.5298 123.94-19.656 29.836-19.126 51.346-48.939 83.5-88.75 58.402-72.31 111.32-108.09 215.19-140.34 4.252 0.7047 9.1081 0.28512 13.938-1.4688l62.656-22.75c11.572-4.2026 18.432-14.365 15.375-22.781-2.1014-5.7861-8.3054-9.2048-15.75-9.4062z" fill-rule="evenodd" stroke-width="6.2285"/>
<path d="m1097 185.66c-5.5716 0-10.639 1.4913-14.531 3.9375-85.451 4.445-145.85 25.287-214.66 70.094-43.319 28.21-71.595 48.083-99.469 55.375-27.873 7.2923-57.345 3.7024-107.62-18.312l-10.031 22.875c52.768 23.104 89.682 28.595 123.97 19.625 34.287-8.9701 63.93-30.699 106.81-58.625 66.066-43.024 120.3-62.233 201.59-66.219 3.807 2.2263 8.6501 3.5625 13.937 3.5625h66.656c12.312 0 22.219-7.2023 22.219-16.156s-9.907-16.156-22.219-16.156h-66.656z" fill-rule="evenodd" stroke-width="6.2285"/>
<path d="m55.688 255.97c-0.76978 2e-3 -1.561 0.0444-2.3438 0.125l-47.219 4.8438c-12.525 1.2902-7.5715 12.413-6.2812 24.938l0.53125 5.0312c1.2902 12.525-1.5872 21.571 10.938 20.281l47.219-4.875c6.2073-0.63943 11.556-3.6819 15.219-8.125 74.437-6.4821 148.26-6.8837 223.09-5.3125 66.029 1.5845 132.04 3.645 198.06 5.625 71.201-3.8011 157.72 16.226 203.34 73.5 35.13 57.883-3.6038 104.55-132.56 110.62l4.0312 22.25c166.4 9.3836 200.15-70.228 158.06-150.81-43.656-74.276-118.91-82.553-198.53-90.688-75.746-5.2839-150.88 2.9973-226.34-3.25-70.204-5.5486-149.74-4.0864-230.56 3.0938-4.1873-4.5118-10.145-7.2633-16.656-7.25z" fill-rule="evenodd" stroke-width="6.2285"/>
<path d="m402.86 539.26c20.297-33.064 40.226-72.014 62.292-96.235 36.016-36.385 86.886-56.52 135.94-68.027 111.51-25.364 211.55-20.673 170.76 99.528-34.115 49.709-80.639 59.954-135.22 60.539-29.025-0.0457-45.496 3.0356-73.606 3.1852-88.111 6.2483-113.48 3.8518-160.17 1.0102z" fill-rule="evenodd" stroke-width="6.2285"/>
<rect transform="matrix(.99605 .088818 -.088818 .99605 0 0)" x="382.63" y="222.96" width="45.245" height="45.245" stroke-width="6.2285"/>
<rect transform="matrix(.98959 .14395 -.14395 .98959 0 0)" x="615.01" y="178.38" width="42.841" height="49.696" stroke-width="6.2285"/>
<path d="m-25.219 250.63c-21.339 0-38.649 17.31-38.649 38.649s17.31 38.649 38.649 38.649c21.339 0 38.678-17.31 38.678-38.649 0-21.339-17.339-38.649-38.678-38.649zm0 14.789c13.171 0 23.86 10.69 23.86 23.86-4e-6 13.171-10.69 23.86-23.86 23.86s-23.86-10.69-23.86-23.86c0-13.171 10.69-23.86 23.86-23.86z" stroke-width="6.2285"/>
</g>
</g>
<path d="m1.5 1.5v458.87c0 166.31 134.31 301.13 300 301.13 165.69 0 300-134.82 300-301.13v-458.87h-600z" fill="url(#a)"/>
<path d="m1.5 1.5v458.87c0 166.31 134.31 301.13 300 301.13 165.69 0 300-134.82 300-301.13v-458.87h-600z" fill="none" stroke="#000" stroke-width="3"/>
</g>
</svg>
