<?xml version="1.0" encoding="UTF-8"?>
<svg version="1.0" viewBox="0 0 603 763" xmlns="http://www.w3.org/2000/svg" xmlns:cc="http://creativecommons.org/ns#" xmlns:dc="http://purl.org/dc/elements/1.1/" xmlns:rdf="http://www.w3.org/1999/02/22-rdf-syntax-ns#" xmlns:xlink="http://www.w3.org/1999/xlink">
<metadata>
<rdf:RDF>
<cc:Work rdf:about="">
<dc:format>image/svg+xml</dc:format>
<dc:type rdf:resource="http://purl.org/dc/dcmitype/StillImage"/>
<dc:date>07-AUG-2006</dc:date>
<dc:creator>
<cc:Agent>
<dc:title>Jérôme BLUM (wagner51)</dc:title>
</cc:Agent>
</dc:creator>
<cc:license rdf:resource="http://creativecommons.org/licenses/GPL/2.0/"/>
<dc:coverage/>
<dc:description>Gabarit pour le Projet:Blasons de WIkipédia</dc:description>
<dc:subject>
<rdf:Bag>
<rdf:li>blason suisse modèle gabarit projet blasons</rdf:li>
</rdf:Bag>
</dc:subject>
<dc:language>fr</dc:language>
<dc:title/>
</cc:Work>
<cc:License rdf:about="http://creativecommons.org/licenses/GPL/2.0/">
<cc:permits rdf:resource="http://web.resource.org/cc/Reproduction"/>
<cc:permits rdf:resource="http://web.resource.org/cc/Distribution"/>
<cc:requires rdf:resource="http://web.resource.org/cc/Notice"/>
<cc:permits rdf:resource="http://web.resource.org/cc/DerivativeWorks"/>
<cc:requires rdf:resource="http://web.resource.org/cc/ShareAlike"/>
<cc:requires rdf:resource="http://web.resource.org/cc/SourceCode"/>
</cc:License>
</rdf:RDF>
</metadata>
<defs>
<radialGradient id="a" cx="858.04" cy="579.93" r="300" gradientTransform="matrix(1.215 1.5316e-24 1.4647e-23 1.2667 -839.19 -490.49)" gradientUnits="userSpaceOnUse">
<stop stop-color="#fff" stop-opacity=".31373" offset="0"/>
<stop stop-color="#fff" stop-opacity=".25098" offset=".19"/>
<stop stop-color="#6b6b6b" stop-opacity=".12549" offset=".6"/>
<stop stop-opacity=".12549" offset="1"/>
</radialGradient>
</defs>
<desc>Coat of Arms of Canton of Freiburg (Fribourg)</desc>
<g>
<path d="m1.5 1.5v458.87c0 166.31 134.31 301.13 300 301.13s300-134.82 300-301.13v-458.87h-600z" fill="#e20909"/>
<path d="m1.5 1.5v458.87c0 166.31 134.31 301.13 300 301.13v-760h-300z" fill="#fcef3c"/>
<path d="m301.5 2.9996v757" fill="none" stroke="#000" stroke-linecap="square" stroke-width="2.9995"/>
<g transform="matrix(-1.4645 0 0 1.4583 2064.4 -86.636)" fill="#fcef3c" stroke="#000" stroke-width="1.9904">
<g transform="matrix(.85712 -.75783 .75783 .85712 -60.668 913.13)" fill="#fcef3c" fill-rule="evenodd" stroke="#000" stroke-width="1.9904">
<path d="m1017.5 390.16c38.552-55.338 45.08-84.275 55.556-119.05-37.682 16.27-52.886 49.952-79.365 87.302 18.743-46.96 44.27-105.44 84.127-126.98 10.904 1.2089 17.138 7.7871 23.81 17.46-1.0581 21.492-21.958 65.853-43.651 97.222l57.143-63.095 2.7777 2.381-59.921 67.46c20.616-12.982 42.347-24.849 65.079-35.714 11.772 4.6826 17.051 10.664 18.254 17.46-38.516 61.486-63.176 57.699-99.206 80.952 22.248-22.241 50.052-33.371 66.667-70.635-39.732 11.838-59.941 29.548-89.683 50l-1.5873-4.7619z"/>
<path d="m1236.5 151.04c-19.492 22.085-11.328 38.486-33.552 37.354-1.5509-22.514 14.378-16.024 33.552-37.354z" stroke-width="1.9904"/>
<g stroke-width="1.9904">
<path d="m1210.4 152.46c-13.245 27.249 5.4547 25.132-22.222 51.587-1.1338-3.3768 2.9151-9.5864 2.5508-12.341 0.1374-21.16 13.048-25.216 19.672-39.246z"/>
<path d="m1185 167.54c-2.5309 16.138 15.772 27.116-9.5238 50.397 0.9102-4.0948 2.4117-9.9967 1.461-12.117-2.788-11.344 7.739-23.86 8.0628-38.28z"/>
<path d="m1172.6 181.23c-2.5309 16.138 15.772 27.116-9.5238 50.397 0.9102-4.0948 2.4117-9.9967 1.461-12.117-2.788-11.344 7.739-23.86 8.0628-38.28z"/>
<path d="m1160.7 194.72c-2.5309 16.138 15.772 27.116-9.5238 50.397 0.9102-4.0948 2.4117-9.9967 1.461-12.117-2.788-11.344 7.739-23.86 8.0628-38.28z"/>
<path d="m1148.4 208.21c-2.5309 16.138 15.772 27.116-9.5238 50.397 0.9102-4.0948 2.4117-9.9967 1.461-12.117-2.788-11.344 7.739-23.86 8.0628-38.28z"/>
<path d="m1136.5 221.71c-2.5309 16.138 15.772 27.116-9.5238 50.397 0.9102-4.0948 2.4117-9.9967 1.461-12.117-2.788-11.344 7.739-23.86 8.0628-38.28z"/>
<path d="m1124.2 235.2c-2.5309 16.138 15.772 27.116-9.5238 50.397 0.9102-4.0948 2.4117-9.9967 1.461-12.117-2.788-11.344 7.739-23.86 8.0628-38.28z"/>
</g>
<g transform="matrix(-.10453 -.99452 -.99452 .10453 1516.3 1364.7)" stroke-width="1.9904">
<path d="m1210.4 152.46c-13.245 27.249 5.4547 25.132-22.222 51.587-1.1338-3.3768 2.9151-9.5864 2.5508-12.341 0.1374-21.16 13.048-25.216 19.672-39.246z"/>
<path d="m1185 167.54c-2.5309 16.138 15.772 27.116-9.5238 50.397 0.9102-4.0948 2.4117-9.9967 1.461-12.117-2.788-11.344 7.739-23.86 8.0628-38.28z"/>
<path d="m1172.6 181.23c-2.5309 16.138 15.772 27.116-9.5238 50.397 0.9102-4.0948 2.4117-9.9967 1.461-12.117-2.788-11.344 7.739-23.86 8.0628-38.28z"/>
<path d="m1160.7 194.72c-2.5309 16.138 15.772 27.116-9.5238 50.397 0.9102-4.0948 2.4117-9.9967 1.461-12.117-2.788-11.344 7.739-23.86 8.0628-38.28z"/>
<path d="m1148.4 208.21c-2.5309 16.138 15.772 27.116-9.5238 50.397 0.9102-4.0948 2.4117-9.9967 1.461-12.117-2.788-11.344 7.739-23.86 8.0628-38.28z"/>
<path d="m1136.5 221.71c-2.5309 16.138 15.772 27.116-9.5238 50.397 0.9102-4.0948 2.4117-9.9967 1.461-12.117-2.788-11.344 7.739-23.86 8.0628-38.28z"/>
<path d="m1124.2 235.2c-2.5309 16.138 15.772 27.116-9.5238 50.397 0.9102-4.0948 2.4117-9.9967 1.461-12.117-2.788-11.344 7.739-23.86 8.0628-38.28z"/>
</g>
<path d="m1072.2 271.9c4.0488-14.401 5.0417-27.121 5.9524-40.476"/>
<path d="m1076.2 248.89c-13.488 9.2593-23.125 18.519-31.349 27.778"/>
<path d="m1079 284.6c-10.978 36.655-28.946 65.318-52.381 95.238"/>
<path d="m1060.3 350.87-42.857 39.286"/>
<path d="m1059.5 344.13-31.746 37.302"/>
<path d="m1095.6 340.16c-40.829 17.857-53.483 34.524-76.984 52.381"/>
<path d="m1107.1 345.71c8.8426-4.1574 19.221-8.0076 33.333-11.111"/>
<path d="m1127.4 337.78c-7.1149 11.884-14.454 22.871-22.619 30.556"/>
</g>
</g>
<g transform="matrix(1.4645 0 0 1.4583 -1460.2 -86.636)" fill="#e20909" stroke="#000" stroke-width="1.9904">
<g transform="matrix(.85712 -.75783 .75783 .85712 -60.668 913.13)" fill="#e20909" fill-rule="evenodd" stroke="#000" stroke-width="1.9904">
<path d="m1017.5 390.16c38.552-55.338 45.08-84.275 55.556-119.05-37.682 16.27-52.886 49.952-79.365 87.302 18.743-46.96 44.27-105.44 84.127-126.98 10.904 1.2089 17.138 7.7871 23.81 17.46-1.0581 21.492-21.958 65.853-43.651 97.222l57.143-63.095 2.7777 2.381-59.921 67.46c20.616-12.982 42.347-24.849 65.079-35.714 11.772 4.6826 17.051 10.664 18.254 17.46-38.516 61.486-63.176 57.699-99.206 80.952 22.248-22.241 50.052-33.371 66.667-70.635-39.732 11.838-59.941 29.548-89.683 50l-1.5873-4.7619z"/>
<path d="m1236.5 151.04c-19.492 22.085-11.328 38.486-33.552 37.354-1.5509-22.514 14.378-16.024 33.552-37.354z" stroke-width="1.9904"/>
<g stroke-width="1.9904">
<path d="m1210.4 152.46c-13.245 27.249 5.4547 25.132-22.222 51.587-1.1338-3.3768 2.9151-9.5864 2.5508-12.341 0.1374-21.16 13.048-25.216 19.672-39.246z"/>
<path d="m1185 167.54c-2.5309 16.138 15.772 27.116-9.5238 50.397 0.9102-4.0948 2.4117-9.9967 1.461-12.117-2.788-11.344 7.739-23.86 8.0628-38.28z"/>
<path d="m1172.6 181.23c-2.5309 16.138 15.772 27.116-9.5238 50.397 0.9102-4.0948 2.4117-9.9967 1.461-12.117-2.788-11.344 7.739-23.86 8.0628-38.28z"/>
<path d="m1160.7 194.72c-2.5309 16.138 15.772 27.116-9.5238 50.397 0.9102-4.0948 2.4117-9.9967 1.461-12.117-2.788-11.344 7.739-23.86 8.0628-38.28z"/>
<path d="m1148.4 208.21c-2.5309 16.138 15.772 27.116-9.5238 50.397 0.9102-4.0948 2.4117-9.9967 1.461-12.117-2.788-11.344 7.739-23.86 8.0628-38.28z"/>
<path d="m1136.5 221.71c-2.5309 16.138 15.772 27.116-9.5238 50.397 0.9102-4.0948 2.4117-9.9967 1.461-12.117-2.788-11.344 7.739-23.86 8.0628-38.28z"/>
<path d="m1124.2 235.2c-2.5309 16.138 15.772 27.116-9.5238 50.397 0.9102-4.0948 2.4117-9.9967 1.461-12.117-2.788-11.344 7.739-23.86 8.0628-38.28z"/>
</g>
<g transform="matrix(-.10453 -.99452 -.99452 .10453 1516.3 1364.7)" stroke-width="1.9904">
<path d="m1210.4 152.46c-13.245 27.249 5.4547 25.132-22.222 51.587-1.1338-3.3768 2.9151-9.5864 2.5508-12.341 0.1374-21.16 13.048-25.216 19.672-39.246z"/>
<path d="m1185 167.54c-2.5309 16.138 15.772 27.116-9.5238 50.397 0.9102-4.0948 2.4117-9.9967 1.461-12.117-2.788-11.344 7.739-23.86 8.0628-38.28z"/>
<path d="m1172.6 181.23c-2.5309 16.138 15.772 27.116-9.5238 50.397 0.9102-4.0948 2.4117-9.9967 1.461-12.117-2.788-11.344 7.739-23.86 8.0628-38.28z"/>
<path d="m1160.7 194.72c-2.5309 16.138 15.772 27.116-9.5238 50.397 0.9102-4.0948 2.4117-9.9967 1.461-12.117-2.788-11.344 7.739-23.86 8.0628-38.28z"/>
<path d="m1148.4 208.21c-2.5309 16.138 15.772 27.116-9.5238 50.397 0.9102-4.0948 2.4117-9.9967 1.461-12.117-2.788-11.344 7.739-23.86 8.0628-38.28z"/>
<path d="m1136.5 221.71c-2.5309 16.138 15.772 27.116-9.5238 50.397 0.9102-4.0948 2.4117-9.9967 1.461-12.117-2.788-11.344 7.739-23.86 8.0628-38.28z"/>
<path d="m1124.2 235.2c-2.5309 16.138 15.772 27.116-9.5238 50.397 0.9102-4.0948 2.4117-9.9967 1.461-12.117-2.788-11.344 7.739-23.86 8.0628-38.28z"/>
</g>
<path d="m1072.2 271.9c4.0488-14.401 5.0417-27.121 5.9524-40.476"/>
<path d="m1076.2 248.89c-13.488 9.2593-23.125 18.519-31.349 27.778"/>
<path d="m1079 284.6c-10.978 36.655-28.946 65.318-52.381 95.238"/>
<path d="m1060.3 350.87-42.857 39.286"/>
<path d="m1059.5 344.13-31.746 37.302"/>
<path d="m1095.6 340.16c-40.829 17.857-53.483 34.524-76.984 52.381"/>
<path d="m1107.1 345.71c8.8426-4.1574 19.221-8.0076 33.333-11.111"/>
<path d="m1127.4 337.78c-7.1149 11.884-14.454 22.871-22.619 30.556"/>
</g>
</g>
<path d="m1.5 1.5v458.87c0 166.31 134.31 301.13 300 301.13 165.69 0 300-134.82 300-301.13v-458.87h-600z" fill="url(#a)"/>
<path d="m1.5 1.5v458.87c0 166.31 134.31 301.13 300 301.13 165.69 0 300-134.82 300-301.13v-458.87h-600z" fill="none" stroke="#000" stroke-width="3"/>
</g>
</svg>
