<?xml version="1.0" encoding="UTF-8"?>
<svg version="1.0" viewBox="0 0 603 763" xmlns="http://www.w3.org/2000/svg" xmlns:cc="http://creativecommons.org/ns#" xmlns:dc="http://purl.org/dc/elements/1.1/" xmlns:rdf="http://www.w3.org/1999/02/22-rdf-syntax-ns#" xmlns:xlink="http://www.w3.org/1999/xlink">
<metadata>
<rdf:RDF>
<cc:Work rdf:about="">
<dc:format>image/svg+xml</dc:format>
<dc:type rdf:resource="http://purl.org/dc/dcmitype/StillImage"/>
<dc:date>07-AUG-2006</dc:date>
<dc:creator>
<cc:Agent>
<dc:title>Jérôme BLUM (wagner51)</dc:title>
</cc:Agent>
</dc:creator>
<cc:license rdf:resource="http://creativecommons.org/licenses/GPL/2.0/"/>
<dc:coverage/>
<dc:description>Gabarit pour le Projet:Blasons de WIkipédia</dc:description>
<dc:subject>
<rdf:Bag>
<rdf:li>blason suisse modèle gabarit projet blasons</rdf:li>
</rdf:Bag>
</dc:subject>
<dc:language>fr</dc:language>
<dc:title/>
</cc:Work>
<cc:License rdf:about="http://creativecommons.org/licenses/GPL/2.0/">
<cc:permits rdf:resource="http://web.resource.org/cc/Reproduction"/>
<cc:permits rdf:resource="http://web.resource.org/cc/Distribution"/>
<cc:requires rdf:resource="http://web.resource.org/cc/Notice"/>
<cc:permits rdf:resource="http://web.resource.org/cc/DerivativeWorks"/>
<cc:requires rdf:resource="http://web.resource.org/cc/ShareAlike"/>
<cc:requires rdf:resource="http://web.resource.org/cc/SourceCode"/>
</cc:License>
</rdf:RDF>
</metadata>
<defs>
<radialGradient id="a" cx="858.04" cy="579.93" r="300" gradientTransform="matrix(1.215 1.5316e-24 1.4647e-23 1.2667 -839.19 -490.49)" gradientUnits="userSpaceOnUse">
<stop stop-color="#fff" stop-opacity=".31373" offset="0"/>
<stop stop-color="#fff" stop-opacity=".25098" offset=".19"/>
<stop stop-color="#6b6b6b" stop-opacity=".12549" offset=".6"/>
<stop stop-opacity=".12549" offset="1"/>
</radialGradient>
</defs>
<desc>Coat of Arms of Canton of Freiburg (Fribourg)</desc>
<g>
<path d="m1.5 1.5v458.87c0 166.31 134.31 301.13 300 301.13s300-134.82 300-301.13v-458.87h-600z" fill="#2b5df2"/>
</g>
<g>
<path d="m601.5 433.67-300-300-300 300v26.695c0 55.321 14.876 107.15 40.811 151.7 67.039-67.039 201.6-201.6 259.19-259.19 57.589 57.588 192.15 192.15 259.19 259.19 25.935-44.549 40.812-96.376 40.812-151.7v-26.695h1e-3z" fill="#fff"/>
<path d="m42.311 612.07c67.039-67.039 201.6-201.6 259.19-259.19 57.589 57.588 192.15 192.15 259.19 259.19" fill="none" stroke="#000" stroke-width="3"/>
<polyline transform="translate(-.038 -.045)" points="601.54 433.72 301.54 133.72 1.538 433.72" fill="none" stroke="#000" stroke-width="3"/>
<path transform="matrix(1.2323 0 0 1.2599 -79.403 -110.56)" d="m236.95 185.31a71.818 70.245 0 1 1-143.64 0 71.818 70.245 0 1 1 143.64 0z" fill="#fcef3c" stroke="#000" stroke-width="2.4077"/>
<path transform="matrix(1.2323 0 0 1.2599 275.01 -110.56)" d="m236.95 185.31a71.818 70.245 0 1 1-143.64 0 71.818 70.245 0 1 1 143.64 0z" fill="#fcef3c" stroke="#000" stroke-width="2.4077"/>
<path transform="matrix(1.2323 0 0 1.2599 98.515 329.53)" d="m236.95 185.31a71.818 70.245 0 1 1-143.64 0 71.818 70.245 0 1 1 143.64 0z" fill="#fcef3c" stroke="#000" stroke-width="2.4077"/>
<path d="m1.5 1.5v458.87c0 166.31 134.31 301.13 300 301.13 165.69 0 300-134.82 300-301.13v-458.87h-600z" fill="url(#a)"/>
<path d="m1.5 1.5v458.87c0 166.31 134.31 301.13 300 301.13 165.69 0 300-134.82 300-301.13v-458.87h-600z" fill="none" stroke="#000" stroke-width="3"/>
</g>
</svg>
