<?xml version="1.0" encoding="UTF-8" standalone="no"?>
<svg
   xmlns:dc="http://purl.org/dc/elements/1.1/"
   xmlns:cc="http://creativecommons.org/ns#"
   xmlns:rdf="http://www.w3.org/1999/02/22-rdf-syntax-ns#"
   xmlns:svg="http://www.w3.org/2000/svg"
   xmlns="http://www.w3.org/2000/svg"
   xmlns:xlink="http://www.w3.org/1999/xlink"
   xmlns:sodipodi="http://sodipodi.sourceforge.net/DTD/sodipodi-0.dtd"
   xmlns:inkscape="http://www.inkscape.org/namespaces/inkscape"
   height="763"
   width="603"
   version="1.0"
   id="svg20"
   sodipodi:version="0.32"
   inkscape:version="0.46"
   sodipodi:docname="Concise-coat_of_arms.svg"
   sodipodi:docbase="C:\Documents and Settings\Steve\Bureau\Blason Villages Suisse pour Wikipédia (par Delta-9)"
   inkscape:output_extension="org.inkscape.output.svg.inkscape">
  <metadata
     id="metadata31">
    <rdf:RDF>
      <cc:Work
         rdf:about="">
        <dc:format>image/svg+xml</dc:format>
        <dc:type
           rdf:resource="http://purl.org/dc/dcmitype/StillImage" />
        <dc:date>07-AUG-2006</dc:date>
        <dc:creator>
          <cc:Agent>
            <dc:title>Jérôme BLUM (wagner51)</dc:title>
          </cc:Agent>
        </dc:creator>
        <cc:license
           rdf:resource="http://creativecommons.org/licenses/GPL/2.0/" />
        <dc:coverage />
        <dc:description>Gabarit pour le Projet:Blasons de WIkipédia</dc:description>
        <dc:subject>
          <rdf:Bag>
            <rdf:li>blason suisse modèle gabarit projet blasons</rdf:li>
          </rdf:Bag>
        </dc:subject>
        <dc:language>fr</dc:language>
        <dc:title>Gabrit d'un blason suisse</dc:title>
      </cc:Work>
      <cc:License
         rdf:about="http://creativecommons.org/licenses/GPL/2.0/">
        <cc:permits
           rdf:resource="http://web.resource.org/cc/Reproduction" />
        <cc:permits
           rdf:resource="http://web.resource.org/cc/Distribution" />
        <cc:requires
           rdf:resource="http://web.resource.org/cc/Notice" />
        <cc:permits
           rdf:resource="http://web.resource.org/cc/DerivativeWorks" />
        <cc:requires
           rdf:resource="http://web.resource.org/cc/ShareAlike" />
        <cc:requires
           rdf:resource="http://web.resource.org/cc/SourceCode" />
      </cc:License>
    </rdf:RDF>
  </metadata>
  <defs
     id="defs29"><inkscape:perspective
   sodipodi:type="inkscape:persp3d"
   inkscape:vp_x="0 : 381.5 : 1"
   inkscape:vp_y="0 : 1000 : 0"
   inkscape:vp_z="603 : 381.5 : 1"
   inkscape:persp3d-origin="301.5 : 254.33333 : 1"
   id="perspective28" />
<linearGradient
   id="linearGradient2893">
  <stop
     style="stop-color:#ffffff;stop-opacity:0.3137255;"
     offset="0"
     id="stop2895" />
  <stop
     id="stop2897"
     offset="0.19"
     style="stop-color:#ffffff;stop-opacity:0.25098041;" />
  <stop
     style="stop-color:#6b6b6b;stop-opacity:0.1254902;"
     offset="0.60000002"
     id="stop2901" />
  <stop
     style="stop-color:#000000;stop-opacity:0.1254902;"
     offset="1"
     id="stop2899" />
</linearGradient>
<linearGradient
   id="linearGradient2955">
  <stop
     style="stop-color:white;stop-opacity:0;"
     offset="0"
     id="stop2965" />
  <stop
     style="stop-color:black;stop-opacity:0.64583331;"
     offset="1"
     id="stop2959" />
</linearGradient>
<radialGradient
   inkscape:collect="always"
   xlink:href="#linearGradient2893"
   id="radialGradient3236"
   gradientUnits="userSpaceOnUse"
   gradientTransform="matrix(1.215027,1.531577e-24,1.464684e-23,1.266667,-839.1924,-490.4894)"
   cx="858.04236"
   cy="579.93323"
   fx="858.04236"
   fy="579.93323"
   r="300" />
<inkscape:perspective
   id="perspective2532"
   inkscape:persp3d-origin="297.63751 : 280.63 : 1"
   inkscape:vp_z="595.27502 : 420.94501 : 1"
   inkscape:vp_y="0 : 1000 : 0"
   inkscape:vp_x="0 : 420.94501 : 1"
   sodipodi:type="inkscape:persp3d" />

	
		
	
		
	
	
		
	
		
	
	
		
	
		
	
	
		
	
		
	
	
	

	

		
		
			
	
		
			
		
		
		
		
	
		
		
		
	
		
			
		
			
	</defs>
  <sodipodi:namedview
     inkscape:window-height="968"
     inkscape:window-width="1280"
     inkscape:pageshadow="2"
     inkscape:pageopacity="0.0"
     guidetolerance="10.0"
     gridtolerance="10.0"
     objecttolerance="10.0"
     borderopacity="1.0"
     bordercolor="#666666"
     pagecolor="#ffffff"
     id="base"
     inkscape:zoom="0.65514994"
     inkscape:cx="161.52946"
     inkscape:cy="305.70951"
     inkscape:window-x="1280"
     inkscape:window-y="22"
     inkscape:current-layer="layer2"
     showgrid="false"
     showguides="true"
     inkscape:guide-bbox="true">
    <sodipodi:guide
       orientation="horizontal"
       position="761.5"
       id="guide1885" />
    <sodipodi:guide
       orientation="vertical"
       position="1.5"
       id="guide1887" />
    <sodipodi:guide
       orientation="horizontal"
       position="1.5"
       id="guide1889" />
    <sodipodi:guide
       orientation="vertical"
       position="601.5"
       id="guide1891" />
    <sodipodi:guide
       orientation="vertical"
       position="301.50081"
       id="guide1893" />
  </sodipodi:namedview>
  <desc
     id="desc22">Coat of Arms of Canton of Freiburg (Fribourg)</desc>
  <g
     inkscape:groupmode="layer"
     id="layer1"
     inkscape:label="Fond écu"
     style="opacity:1;display:inline"
     sodipodi:insensitive="true">
    <path
       id="path1899"
       d="M 1.5,1.49998 L 1.5,460.3679 C 1.5,626.6785 135.81456,761.5 301.49999,761.5 C 467.18543,761.5 601.5,626.6785 601.5,460.3679 L 601.5,1.49998 L 1.5,1.49998 z"
       style="fill:#2b5df2;fill-opacity:1" />
  </g>
  <g
     inkscape:groupmode="layer"
     id="layer2"
     inkscape:label="Meubles"
     style="opacity:1;display:inline"
     sodipodi:insensitive="true">
    <path
       d="M 177.54602,385.59409 C 151.99002,374.30609 123.03902,366.11309 101.52502,350.20309 C 92.38902,364.14609 79.66402,380.50109 70.37602,390.32109 L 72.03402,401.59209 L 61.11202,402.02209 C 64.12402,404.52709 69.23002,404.22709 70.22802,409.15309 C 73.41702,424.89409 66.03402,430.95509 57.98702,438.03209 C 52.63002,424.05009 51.49502,409.92709 50.68102,395.35209 C 64.93302,379.67809 76.15002,364.35209 84.39302,348.33009 C 92.15902,333.23409 95.49002,328.71409 109.74702,335.82409 C 131.93302,346.88909 152.32002,355.97409 173.20402,365.58609"
       sodipodi:nodetypes="cccccsccssc"
       id="path3189"
       style="fill:#fcef3c;stroke:#000000;stroke-width:3;stroke-linecap:round;stroke-linejoin:round" />
    <path
       d="M 246.88502,146.41709 C 246.54202,144.70409 246.47602,131.30309 246.47602,131.30309 C 228.81002,124.04709 218.79602,101.74909 224.44802,89.080091 C 227.23802,83.228091 233.04002,84.045091 232.93902,90.222091 C 232.66102,107.19009 249.21202,123.89809 261.82502,119.52309 C 283.12302,112.13809 315.72002,115.25109 318.76602,113.67709 C 326.40102,109.73309 307.85502,90.833091 304.80602,80.673091 C 302.67902,73.583091 310.33702,69.573091 314.93202,76.487091 C 321.19402,85.907091 332.45302,112.82009 340.47202,113.37409 C 347.21802,113.84009 372.79002,113.28109 377.57902,109.29909 C 396.97602,93.172091 420.79302,79.443091 437.66702,78.366091 C 445.52902,77.863091 447.61802,83.752091 440.30102,86.301091 C 428.19102,90.521091 410.24002,89.532091 392.87902,110.11909 C 423.54202,110.13809 447.31602,124.01709 454.96802,117.51709 C 467.56902,106.81609 483.07702,90.458091 493.05502,82.727091 C 498.03802,78.866091 503.97302,81.122091 501.11102,86.499091 C 497.86602,92.593091 487.91002,103.71309 479.83302,110.51409 C 462.35602,125.22709 466.17902,130.11609 484.62302,136.25509 C 498.67102,140.93209 506.77202,145.56009 518.23702,152.42509 C 523.72602,155.71209 518.88602,162.30309 511.28002,159.48509 C 481.60302,146.20209 462.65502,138.71909 438.11702,128.63109 C 430.65702,125.56409 395.69802,117.85309 362.35602,122.90309 C 308.27002,131.06009 284.98202,115.44109 257.65902,132.63009 L 257.27602,146.88109 L 246.88502,146.41709 z"
       sodipodi:nodetypes="cccssssssssscsssssscssccc"
       id="path3193"
       style="fill:#fcef3c;stroke:#000000;stroke-width:3;stroke-linecap:round;stroke-linejoin:round" />
    <path
       id="path2493"
       d="M 549.17802,127.09409 C 537.71402,120.22909 527.17802,113.77909 513.86802,107.28909 C 499.78602,100.42409 495.72002,93.355091 503.02102,85.667091 C 510.29202,78.012091 519.84402,68.958091 523.08802,62.863091 C 525.95002,57.487091 520.01502,55.232091 515.03302,59.092091 C 505.05402,66.824091 487.22802,83.944091 475.25002,95.337091 C 471.47302,98.930091 428.31602,93.530091 401.04802,95.934091 C 418.40902,75.348091 446.04902,70.036091 458.15802,65.818091 C 465.47502,63.269091 463.38702,57.380091 455.52502,57.882091 C 438.65002,58.961091 404.65702,72.819091 387.68502,91.480091 C 381.20002,98.611091 370.73202,97.029091 340.40302,99.189091 C 348.13502,86.665091 362.56202,76.141091 371.31102,69.571091 C 376.34802,64.447091 369.20102,62.253091 364.33502,64.793091 C 353.58402,70.405091 340.44402,84.716091 330.81002,93.194091 C 329.28302,94.538091 327.69902,95.694091 326.02502,96.699091 C 321.53302,88.788091 317.29102,80.076091 314.22002,75.455091 C 309.49802,68.350091 301.62802,72.471091 303.81402,79.757091 C 305.50602,85.398091 311.84102,93.656091 316.07802,100.70109 C 307.07802,102.96709 295.10102,103.29009 277.01702,103.64209 C 263.54302,103.10109 250.51902,86.704091 250.79702,69.737091 C 250.89802,63.560091 245.09702,62.743091 242.30602,68.595091 C 236.65402,81.264091 246.91002,100.17109 261.42802,116.14809 C 261.42802,116.14809 261.00902,136.81809 261.35102,138.53109 L 274.16302,139.47609 L 274.79002,115.29109 C 430.77302,108.28609 402.36902,105.35309 476.08202,110.32309 C 502.55502,112.10809 515.44902,119.90009 545.12702,133.18309 C 552.73502,136.00409 554.66702,130.38109 549.17802,127.09409 z"
       style="fill:#fcef3c;stroke:#000000;stroke-width:3;stroke-linecap:round;stroke-linejoin:round" />
    <path
       d="M 153.20602,183.16709 C 153.23502,177.94309 160.17602,185.40709 172.35202,176.38509 C 179.26102,171.26609 191.77402,170.86909 208.88202,176.56909 C 182.05002,173.35809 173.80702,186.67809 164.20402,189.70509 C 159.29702,191.25209 153.16802,189.70709 153.20602,183.16709 z"
       sodipodi:nodetypes="cscss"
       id="path3196"
       style="fill:#fcef3c;stroke:#000000;stroke-width:3;stroke-linecap:round;stroke-linejoin:round" />
    <path
       d="M 459.30602,602.18509 C 459.30602,602.18509 458.17102,607.51109 461.45902,610.79909 C 464.74402,614.08509 462.76802,619.44409 462.36502,621.33609 C 460.15502,631.73409 457.54902,635.95509 452.50602,635.95509 C 447.18002,635.95509 445.95902,633.94109 445.95902,633.94109 C 445.95902,633.94109 438.90702,635.16209 438.22702,631.19509 C 437.54702,627.22909 441.06102,619.97809 444.91402,615.10409 C 448.76702,610.23309 446.44102,601.98609 446.44102,601.98609 C 431.94002,506.07609 403.81602,533.92809 364.15102,464.57609 C 355.17402,448.88109 349.57402,445.09909 327.99302,432.11109 L 377.70202,409.97509 L 432.80402,446.07209 L 433.38202,446.64709 C 438.09402,459.71109 439.46702,473.72909 439.68102,488.07609 C 439.63502,543.29009 457.74002,581.95509 466.68002,595.56909 C 468.89102,600.91309 464.31802,604.54309 459.30602,602.18509 z"
       sodipodi:nodetypes="czscsssssccccccccssscccscccccsccccccsssssssssssc"
       id="path2206_5_"
       style="fill:#fcef3c;stroke:#000000;stroke-width:3;stroke-linecap:round;stroke-linejoin:round" />
    <polygon
       id="polygon2497"
       points="-956.599,505.533 -994.975,498.704 -994.975,492.67 -980.762,485.46 -957.827,485.46 -952.659,498.382 -956.599,505.533 "
       style="fill:#fcef3c;stroke:#000000;stroke-width:3;stroke-linecap:round;stroke-linejoin:round"
       transform="translate(1340.99,-59.253909)" />
    <path
       d="M 518.06802,621.15509 C 515.70502,632.26909 512.91902,636.78109 507.52902,636.78109 C 501.83602,636.78109 500.52902,634.62809 500.52902,634.62809 C 500.52902,634.62809 492.99302,635.93409 492.26502,631.69409 C 491.53802,627.45409 495.29302,619.70109 499.41202,614.49209 C 503.53002,609.28409 500.59602,599.23509 500.59602,599.23509 C 469.63102,479.13509 425.78602,536.78509 392.86702,461.89609 C 363.24002,394.49609 329.95602,462.91309 281.49202,437.37909 C 284.05602,440.98109 291.36502,441.87609 296.41402,446.10109 C 278.71202,442.94809 267.48802,444.26709 247.80102,431.83709 L 256.85802,442.36809 C 248.96202,436.41409 239.65902,433.95509 232.66902,426.64309 C 232.92802,430.00409 237.33202,432.69609 239.86902,436.96809 C 222.45402,425.72509 212.93102,419.83609 201.12102,410.46109 C 175.17202,389.85309 161.83102,368.33809 161.56502,345.86409 C 161.41202,332.98809 162.10802,326.38409 171.45802,307.58209 C 172.63202,305.22209 175.34702,300.29009 176.42602,298.05809 C 177.35102,296.14609 170.05402,303.26609 170.70702,301.28009 C 171.64502,298.42509 181.35302,282.46109 183.21002,280.36309 C 184.42602,278.98909 177.56602,283.74309 177.98902,281.98509 C 178.61902,279.36609 189.39302,264.50609 191.58202,262.35309 C 193.37002,260.59509 185.70302,264.99309 186.79602,262.79109 C 188.66902,259.01509 197.92402,249.39009 200.96902,246.78409 C 202.80002,245.21709 195.34602,247.08909 197.24002,245.63309 C 221.28502,227.13409 225.95402,214.54609 232.38502,203.67509 C 222.08202,197.76909 215.37902,191.06209 202.02402,190.64609 C 188.66202,190.23009 184.45402,186.74309 183.12902,180.66809 C 182.27102,176.73009 202.81802,177.51509 211.68802,177.90609 C 211.17702,172.25209 200.99202,172.47209 190.43102,172.14609 C 182.23902,171.89209 171.10202,170.79309 173.58502,164.52009 C 176.69302,156.66609 180.69002,154.77409 186.81402,154.01909 C 207.55502,151.45609 209.92102,151.18609 225.83502,142.33509 C 239.35702,134.81509 290.71002,129.48509 297.84402,148.79709 C 305.97202,170.80209 307.34902,185.18609 310.03802,206.23009 L 306.16502,202.73009 C 306.66202,209.23309 305.33602,216.40009 303.56902,222.45209 L 300.90002,217.35909 C 300.72702,229.89709 297.26502,236.85809 294.83202,244.29709 L 292.69202,237.49009 C 293.10802,246.59709 288.71302,254.84809 284.88302,262.92809 L 282.58402,256.21709 C 282.16402,270.14209 264.08702,284.61609 276.70402,301.01309 C 282.09602,308.01809 293.11902,308.33809 306.40102,319.09609 C 366.49502,367.76709 404.15802,320.51809 447.24102,394.42709 C 467.24802,428.75209 440.85702,508.94409 481.94602,518.71109 C 502.07602,562.81009 505.02602,580.22409 516.89402,586.20609 C 524.36102,589.41609 525.08702,597.53209 514.79102,600.68209 C 514.79102,600.68209 513.57902,606.37509 517.09202,609.88909 C 520.61002,613.40409 518.49802,619.12909 518.06802,621.15509 z"
       sodipodi:nodetypes="czscsssssccccccccssscccscccccsccccccsssssssssssc"
       id="path2206_41_"
       style="fill:#fcef3c;stroke:#000000;stroke-width:3;stroke-linecap:round;stroke-linejoin:round" />
    <path
       d=""
       sodipodi:nodetypes="czscsssssccccccccssscccscccccsccccccsssssssssssc"
       id="path2206_1_"
       style="fill:#fcef3c;stroke:#000000;stroke-width:3;stroke-linecap:round;stroke-linejoin:round" />
    <path
       style="fill:#fcef3c;stroke:#000000;stroke-width:3;stroke-linecap:round;stroke-linejoin:round"
       id="path3179"
       sodipodi:nodetypes="csccccccssc"
       d="M 279.61065,149.77222 C 293.11065,147.42522 293.95165,140.36522 306.81465,139.76322 C 322.11065,139.03822 329.95265,151.80722 359.80265,145.84322 C 355.52865,149.91622 357.61065,158.53022 350.42465,160.52322 L 354.18865,163.33922 C 348.17865,164.94222 342.32365,166.92422 334.90965,166.96022 L 341.34765,168.91122 C 335.97765,170.62322 328.20265,172.64622 320.06165,172.91122 C 322.56265,173.88222 325.71465,174.74822 323.42365,175.11322 C 319.45965,175.74422 311.38265,177.88722 307.46065,177.91622 C 295.81765,177.99722 289.03265,174.41822 283.91665,167.38622" />
    <path
       style="fill:#fcef3c;stroke:#000000;stroke-width:3;stroke-linecap:round;stroke-linejoin:round"
       id="path3181"
       sodipodi:nodetypes="cc"
       d="M 299.76465,162.48322 C 269.49765,154.34422 314.53165,144.96522 327.17365,156.14422" />
    <path
       d="M 180.87502,380.23009 C 176.75202,394.82709 147.46102,390.77509 129.02902,383.86409 C 101.65902,373.60209 97.75102,385.57809 96.56502,397.91609 C 94.52202,419.15209 92.39502,442.72109 88.51902,449.14109 C 84.64302,455.56109 86.93202,461.43109 82.46202,465.74509 C 77.99102,470.06009 73.63902,476.61509 73.78202,480.63709 C 73.92502,484.65809 81.07602,485.38209 81.07602,485.38209 C 81.07602,485.38209 81.18702,487.29609 86.45002,488.11909 C 90.75902,488.79309 94.81102,485.09309 98.39002,475.08409 C 99.04202,473.26109 101.74902,467.13009 98.93302,463.43609 C 96.11502,459.74009 97.60302,454.23009 97.60302,454.23009 C 108.02302,448.16909 103.41702,442.48009 106.73902,411.48309 C 109.51902,382.40009 145.20702,408.70309 166.09602,413.66309 C 194.07502,420.30909 197.14102,420.46809 218.91102,409.30209"
       sodipodi:nodetypes="csscccccssc"
       id="path3187_4_"
       style="fill:#fcef3c;stroke:#000000;stroke-width:3;stroke-linecap:round;stroke-linejoin:round" />
    <path
       d="M 438.85702,383.86109 C 486.60902,374.70409 464.08602,406.48809 505.48202,398.27709 C 500.57202,408.24709 495.99402,414.48709 485.42302,415.61709 C 483.63502,415.80709 478.67302,411.17509 477.08202,411.38209 C 475.39002,411.60409 481.61902,416.96409 478.36102,416.19009 C 476.80002,415.81909 469.15002,410.82309 467.58102,410.53209 C 466.07402,410.25209 472.30502,416.09709 470.84802,415.70809 C 466.18402,414.46209 458.44002,411.33709 454.79902,409.07209 C 446.16602,403.70109 446.05502,393.40809 437.31702,391.96509"
       sodipodi:nodetypes="ccssssssc"
       id="path3197"
       style="fill:#fcef3c;stroke:#000000;stroke-width:3;stroke-linecap:round;stroke-linejoin:round" />
    <path
       style="fill:#fcef3c;stroke:#000000;stroke-width:3;stroke-linecap:round;stroke-linejoin:round"
       id="rect3210"
       d="M 261.42002,128.12509 L 273.55302,128.12509 C 275.19702,128.12509 276.53002,129.45809 276.53002,131.10309 L 276.53002,135.27109 C 276.53002,136.91509 275.19702,138.24809 273.55302,138.24809 L 261.42002,138.24809 C 259.77602,138.24809 258.44202,136.91509 258.44202,135.27109 L 258.44202,131.10309 C 258.44302,129.45709 259.77602,128.12509 261.42002,128.12509 z" />
    <path
       style="fill:none;stroke:#000000;stroke-width:3;stroke-linecap:round;stroke-linejoin:round"
       id="path3212"
       d="M 264.45902,128.93309 L 264.45902,134.32409" />
    <path
       style="fill:none;stroke:#000000;stroke-width:3;stroke-linecap:round;stroke-linejoin:round"
       id="path3214"
       d="M 270.33402,129.11509 L 270.33402,134.74809" />
    <path
       style="fill:none;stroke:#000000;stroke-width:3;stroke-linecap:round;stroke-linejoin:round"
       id="path3229"
       sodipodi:nodetypes="cc"
       d="M 264.84702,211.67909 C 254.49202,211.54909 241.18202,208.03509 232.02402,203.48709" />
    <path
       style="fill:none;stroke:#000000;stroke-width:3;stroke-linecap:round;stroke-linejoin:round"
       d="M 174.33302,162.80209 C 182.48902,165.39109 199.09402,167.59709 193.90802,162.41209"
       id="path2513" />
    <path
       style="fill:none;stroke:#000000;stroke-width:3;stroke-linecap:round;stroke-linejoin:round"
       d="M 506.43902,618.85309 C 506.43902,618.85309 503.07402,625.66409 500.53002,634.62709"
       id="path2515" />
    <path
       style="fill:none;stroke:#000000;stroke-width:3;stroke-linecap:round;stroke-linejoin:round"
       d="M 451.48602,619.18409 C 451.48602,619.18409 448.33902,625.55509 445.95902,633.94209"
       id="path2517" />
    <path
       style="fill:none;stroke:#000000;stroke-width:3;stroke-linecap:round;stroke-linejoin:round"
       d="M 88.52602,471.49509 C 88.52602,471.49509 84.55502,477.39109 81.07502,485.38209"
       id="path2519" />
    <path
       style="fill:none;stroke:#000000;stroke-width:3;stroke-linecap:round;stroke-linejoin:round"
       d="M 228.60302,154.31109 C 228.60302,154.31109 236.51202,147.22609 244.91402,153.48809"
       id="path2523" />
    <ellipse
       style="fill:none;stroke:#000000;stroke-width:3;stroke-linecap:round;stroke-linejoin:round"
       sodipodi:ry="2.4990001"
       sodipodi:rx="1.302"
       sodipodi:cy="212.694"
       sodipodi:cx="-1104.434"
       cx="-1104.434"
       cy="212.694"
       rx="1.302"
       ry="2.4990001"
       id="ellipse2525"
       transform="translate(1340.99,-59.253909)" />
  </g>
  <g
     inkscape:groupmode="layer"
     id="layer3"
     inkscape:label="Reflet final"
     style="display:inline"
     sodipodi:insensitive="true">
    <path
       style="fill:url(#radialGradient3236);fill-opacity:1"
       d="M 1.5,1.5 L 1.5,460.3679 C 1.5,626.67854 135.81454,761.5 301.49993,761.5 C 467.1854,761.5 601.5,626.67854 601.5,460.3679 L 601.5,1.5 L 1.5,1.5 z "
       id="path2346" />
  </g>
  <g
     inkscape:groupmode="layer"
     id="layer4"
     inkscape:label="Contour final"
     style="display:inline"
     sodipodi:insensitive="true">
    <path
       style="fill:none;fill-opacity:1;stroke:#000000;stroke-width:3;stroke-miterlimit:4;stroke-dasharray:none;stroke-opacity:1"
       d="M 1.5,1.5 L 1.5,460.36794 C 1.5,626.67854 135.81454,761.5 301.49993,761.5 C 467.1854,761.5 601.5,626.67854 601.5,460.36794 L 601.5,1.5 L 1.5,1.5 z "
       id="path3239" />
  </g>
</svg>
