<?xml version="1.0" encoding="UTF-8"?>
<svg version="1.0" viewBox="0 0 603 763" xmlns="http://www.w3.org/2000/svg" xmlns:cc="http://creativecommons.org/ns#" xmlns:dc="http://purl.org/dc/elements/1.1/" xmlns:rdf="http://www.w3.org/1999/02/22-rdf-syntax-ns#" xmlns:xlink="http://www.w3.org/1999/xlink">
<metadata>
<rdf:RDF>
<cc:Work rdf:about="">
<dc:format>image/svg+xml</dc:format>
<dc:type rdf:resource="http://purl.org/dc/dcmitype/StillImage"/>
<dc:date>07-AUG-2006</dc:date>
<dc:creator>
<cc:Agent>
<dc:title>Jérôme BLUM (wagner51)</dc:title>
</cc:Agent>
</dc:creator>
<cc:license rdf:resource="http://creativecommons.org/licenses/GPL/2.0/"/>
<dc:coverage/>
<dc:description>Gabarit pour le Projet:Blasons de WIkipédia</dc:description>
<dc:subject>
<rdf:Bag>
<rdf:li>blason suisse modèle gabarit projet blasons</rdf:li>
</rdf:Bag>
</dc:subject>
<dc:language>fr</dc:language>
<dc:title>Gabrit d'un blason suisse</dc:title>
</cc:Work>
<cc:License rdf:about="http://creativecommons.org/licenses/GPL/2.0/">
<cc:permits rdf:resource="http://web.resource.org/cc/Reproduction"/>
<cc:permits rdf:resource="http://web.resource.org/cc/Distribution"/>
<cc:requires rdf:resource="http://web.resource.org/cc/Notice"/>
<cc:permits rdf:resource="http://web.resource.org/cc/DerivativeWorks"/>
<cc:requires rdf:resource="http://web.resource.org/cc/ShareAlike"/>
<cc:requires rdf:resource="http://web.resource.org/cc/SourceCode"/>
</cc:License>
</rdf:RDF>
</metadata>
<defs>
<radialGradient id="a" cx="858.04" cy="579.93" r="300" gradientTransform="matrix(1.215 1.5316e-24 1.4647e-23 1.2667 -839.19 -490.49)" gradientUnits="userSpaceOnUse">
<stop stop-color="#fff" stop-opacity=".31373" offset="0"/>
<stop stop-color="#fff" stop-opacity=".25098" offset=".19"/>
<stop stop-color="#6b6b6b" stop-opacity=".12549" offset=".6"/>
<stop stop-opacity=".12549" offset="1"/>
</radialGradient>
</defs>
<desc>Coat of Arms of Canton of Freiburg (Fribourg)</desc>
<g>
<path d="m1.5 1.5v458.87c0 166.31 134.31 301.13 300 301.13 165.69 0 300-134.82 300-301.13v-458.87h-600z" fill="#2b5df2"/>
<path d="m177.55 385.59c-25.556-11.288-54.507-19.481-76.021-35.391-9.136 13.943-21.861 30.298-31.149 40.118l1.658 11.271-10.922 0.43c3.012 2.505 8.118 2.205 9.116 7.131 3.189 15.741-4.194 21.802-12.241 28.879-5.357-13.982-6.492-28.105-7.306-42.68 14.252-15.674 25.469-31 33.712-47.022 7.766-15.096 11.097-19.616 25.354-12.506 22.186 11.065 42.573 20.15 63.457 29.762" fill="#fcef3c" stroke="#000" stroke-linecap="round" stroke-linejoin="round" stroke-width="3"/>
<path d="m246.89 146.42c-0.343-1.713-0.409-15.114-0.409-15.114-17.666-7.256-27.68-29.554-22.028-42.223 2.79-5.852 8.592-5.035 8.491 1.142-0.278 16.968 16.273 33.676 28.886 29.301 21.298-7.385 53.895-4.272 56.941-5.846 7.635-3.944-10.911-22.844-13.96-33.004-2.127-7.09 5.531-11.1 10.126-4.186 6.262 9.42 17.521 36.333 25.54 36.887 6.746 0.466 32.318-0.093 37.107-4.075 19.397-16.127 43.214-29.856 60.088-30.933 7.862-0.503 9.951 5.386 2.634 7.935-12.11 4.22-30.061 3.231-47.422 23.818 30.663 0.019 54.437 13.898 62.089 7.398 12.601-10.701 28.109-27.059 38.087-34.79 4.983-3.861 10.918-1.605 8.056 3.772-3.245 6.094-13.201 17.214-21.278 24.015-17.477 14.713-13.654 19.602 4.79 25.741 14.048 4.677 22.149 9.305 33.614 16.17 5.489 3.287 0.649 9.878-6.957 7.06-29.677-13.283-48.625-20.766-73.163-30.854-7.46-3.067-42.419-10.778-75.761-5.728-54.086 8.157-77.374-7.462-104.7 9.727l-0.383 14.251-10.391-0.464z" fill="#fcef3c" stroke="#000" stroke-linecap="round" stroke-linejoin="round" stroke-width="3"/>
<path d="m549.18 127.09c-11.464-6.865-22-13.315-35.31-19.805-14.082-6.865-18.148-13.934-10.847-21.622 7.271-7.655 16.823-16.709 20.067-22.804 2.862-5.376-3.073-7.631-8.055-3.771-9.979 7.732-27.805 24.852-39.783 36.245-3.777 3.593-46.934-1.807-74.202 0.597 17.361-20.586 45.001-25.898 57.11-30.116 7.317-2.549 5.229-8.438-2.633-7.936-16.875 1.079-50.868 14.937-67.84 33.598-6.485 7.131-16.953 5.549-47.282 7.709 7.732-12.524 22.159-23.048 30.908-29.618 5.037-5.124-2.11-7.318-6.976-4.778-10.751 5.612-23.891 19.923-33.525 28.401-1.527 1.344-3.111 2.5-4.785 3.505-4.492-7.911-8.734-16.623-11.805-21.244-4.722-7.105-12.592-2.984-10.406 4.302 1.692 5.641 8.027 13.899 12.264 20.944-9 2.266-20.977 2.589-39.061 2.941-13.474-0.541-26.498-16.938-26.22-33.905 0.101-6.177-5.7-6.994-8.491-1.142-5.652 12.669 4.604 31.576 19.122 47.553 0 0-0.419 20.67-0.077 22.383l12.812 0.945 0.627-24.185c155.98-7.005 127.58-9.938 201.29-4.968 26.473 1.785 39.367 9.577 69.045 22.86 7.608 2.821 9.54-2.802 4.051-6.089z" fill="#fcef3c" stroke="#000" stroke-linecap="round" stroke-linejoin="round" stroke-width="3"/>
<path d="m153.21 183.17c0.029-5.224 6.97 2.24 19.146-6.782 6.909-5.119 19.422-5.516 36.53 0.184-26.832-3.211-35.075 10.109-44.678 13.136-4.907 1.547-11.036 2e-3 -10.998-6.538z" fill="#fcef3c" stroke="#000" stroke-linecap="round" stroke-linejoin="round" stroke-width="3"/>
<path d="m459.31 602.19s-1.135 5.326 2.153 8.614c3.285 3.286 1.309 8.645 0.906 10.537-2.21 10.398-4.816 14.619-9.859 14.619-5.326 0-6.547-2.014-6.547-2.014s-7.052 1.221-7.732-2.746c-0.68-3.966 2.834-11.217 6.687-16.091 3.853-4.871 1.527-13.118 1.527-13.118-14.501-95.91-42.625-68.058-82.29-137.41-8.977-15.695-14.577-19.477-36.158-32.465l49.709-22.136 55.102 36.097 0.578 0.575c4.712 13.064 6.085 27.082 6.299 41.429-0.046 55.214 18.059 93.879 26.999 107.49 2.211 5.344-2.362 8.974-7.374 6.616z" fill="#fcef3c" stroke="#000" stroke-linecap="round" stroke-linejoin="round" stroke-width="3"/>
<polygon transform="translate(1341 -59.254)" points="-956.6 505.53 -994.98 498.7 -994.98 492.67 -980.76 485.46 -957.83 485.46 -952.66 498.38" fill="#fcef3c" stroke="#000" stroke-linecap="round" stroke-linejoin="round" stroke-width="3"/>
<path d="m518.07 621.16c-2.363 11.114-5.149 15.626-10.539 15.626-5.693 0-7-2.153-7-2.153s-7.536 1.306-8.264-2.934c-0.727-4.24 3.028-11.993 7.147-17.202 4.118-5.208 1.184-15.257 1.184-15.257-30.965-120.1-74.81-62.45-107.73-137.34-29.627-67.4-62.911 1.017-111.38-24.517 2.564 3.602 9.873 4.497 14.922 8.722-17.702-3.153-28.926-1.834-48.613-14.264l9.057 10.531c-7.896-5.954-17.199-8.413-24.189-15.725 0.259 3.361 4.663 6.053 7.2 10.325-17.415-11.243-26.938-17.132-38.748-26.507-25.949-20.608-39.29-42.123-39.556-64.597-0.153-12.876 0.543-19.48 9.893-38.282 1.174-2.36 3.889-7.292 4.968-9.524 0.925-1.912-6.372 5.208-5.719 3.222 0.938-2.855 10.646-18.819 12.503-20.917 1.216-1.374-5.644 3.38-5.221 1.622 0.63-2.619 11.404-17.479 13.593-19.632 1.788-1.758-5.879 2.64-4.786 0.438 1.873-3.776 11.128-13.401 14.173-16.007 1.831-1.567-5.623 0.305-3.729-1.151 24.045-18.499 28.714-31.087 35.145-41.958-10.303-5.906-17.006-12.613-30.361-13.029-13.362-0.416-17.57-3.903-18.895-9.978-0.858-3.938 19.689-3.153 28.559-2.762-0.511-5.654-10.696-5.434-21.257-5.76-8.192-0.254-19.329-1.353-16.846-7.626 3.108-7.854 7.105-9.746 13.229-10.501 20.741-2.563 23.107-2.833 39.021-11.684 13.522-7.52 64.875-12.85 72.009 6.462 8.128 22.005 9.505 36.389 12.194 57.433l-3.873-3.5c0.497 6.503-0.829 13.67-2.596 19.722l-2.669-5.093c-0.173 12.538-3.635 19.499-6.068 26.938l-2.14-6.807c0.416 9.107-3.979 17.358-7.809 25.438l-2.299-6.711c-0.42 13.925-18.497 28.399-5.88 44.796 5.392 7.005 16.415 7.325 29.697 18.083 60.094 48.671 97.757 1.422 140.84 75.331 20.007 34.325-6.384 114.52 34.705 124.28 20.13 44.099 23.08 61.513 34.948 67.495 7.467 3.21 8.193 11.326-2.103 14.476 0 0-1.212 5.693 2.301 9.207 3.518 3.515 1.406 9.24 0.976 11.266z" fill="#fcef3c" stroke="#000" stroke-linecap="round" stroke-linejoin="round" stroke-width="3"/>
<path d="m279.61 149.77c13.5-2.347 14.341-9.407 27.204-10.009 15.296-0.725 23.138 12.044 52.988 6.08-4.274 4.073-2.192 12.687-9.378 14.68l3.764 2.816c-6.01 1.603-11.865 3.585-19.279 3.621l6.438 1.951c-5.37 1.712-13.145 3.735-21.286 4 2.501 0.971 5.653 1.837 3.362 2.202-3.964 0.631-12.041 2.774-15.963 2.803-11.643 0.081-18.428-3.498-23.544-10.53" fill="#fcef3c" stroke="#000" stroke-linecap="round" stroke-linejoin="round" stroke-width="3"/>
<path d="m299.76 162.48c-30.267-8.139 14.767-17.518 27.409-6.339" fill="#fcef3c" stroke="#000" stroke-linecap="round" stroke-linejoin="round" stroke-width="3"/>
<path d="m180.88 380.23c-4.123 14.597-33.414 10.545-51.846 3.634-27.37-10.262-31.278 1.714-32.464 14.052-2.043 21.236-4.17 44.805-8.046 51.225s-1.587 12.29-6.057 16.604c-4.471 4.315-8.823 10.87-8.68 14.892 0.143 4.021 7.294 4.745 7.294 4.745s0.111 1.914 5.374 2.737c4.309 0.674 8.361-3.026 11.94-13.035 0.652-1.823 3.359-7.954 0.543-11.648-2.818-3.696-1.33-9.206-1.33-9.206 10.42-6.061 5.814-11.75 9.136-42.747 2.78-29.083 38.468-2.78 59.357 2.18 27.979 6.646 31.045 6.805 52.815-4.361" fill="#fcef3c" stroke="#000" stroke-linecap="round" stroke-linejoin="round" stroke-width="3"/>
<path d="m438.86 383.86c47.752-9.157 25.229 22.627 66.625 14.416-4.91 9.97-9.488 16.21-20.059 17.34-1.788 0.19-6.75-4.442-8.341-4.235-1.692 0.222 4.537 5.582 1.279 4.808-1.561-0.371-9.211-5.367-10.78-5.658-1.507-0.28 4.724 5.565 3.267 5.176-4.664-1.246-12.408-4.371-16.049-6.636-8.633-5.371-8.744-15.664-17.482-17.107" fill="#fcef3c" stroke="#000" stroke-linecap="round" stroke-linejoin="round" stroke-width="3"/>
<path d="m261.42 128.13h12.133c1.644 0 2.977 1.333 2.977 2.978v4.168c0 1.644-1.333 2.977-2.977 2.977h-12.133c-1.644 0-2.978-1.333-2.978-2.977v-4.168c1e-3 -1.646 1.334-2.978 2.978-2.978z" fill="#fcef3c" stroke="#000" stroke-linecap="round" stroke-linejoin="round" stroke-width="3"/>
<path d="m264.46 128.93v5.391" fill="none" stroke="#000" stroke-linecap="round" stroke-linejoin="round" stroke-width="3"/>
<path d="m270.33 129.12v5.633" fill="none" stroke="#000" stroke-linecap="round" stroke-linejoin="round" stroke-width="3"/>
<path d="m264.85 211.68c-10.355-0.13-23.665-3.644-32.823-8.192" fill="none" stroke="#000" stroke-linecap="round" stroke-linejoin="round" stroke-width="3"/>
<path d="m174.33 162.8c8.156 2.589 24.761 4.795 19.575-0.39" fill="none" stroke="#000" stroke-linecap="round" stroke-linejoin="round" stroke-width="3"/>
<path d="m506.44 618.85s-3.365 6.811-5.909 15.774" fill="none" stroke="#000" stroke-linecap="round" stroke-linejoin="round" stroke-width="3"/>
<path d="m451.49 619.18s-3.147 6.371-5.527 14.758" fill="none" stroke="#000" stroke-linecap="round" stroke-linejoin="round" stroke-width="3"/>
<path d="m88.526 471.5s-3.971 5.896-7.451 13.887" fill="none" stroke="#000" stroke-linecap="round" stroke-linejoin="round" stroke-width="3"/>
<path d="m228.6 154.31s7.909-7.085 16.311-0.823" fill="none" stroke="#000" stroke-linecap="round" stroke-linejoin="round" stroke-width="3"/>
<ellipse transform="translate(1341 -59.254)" cx="-1104.4" cy="212.69" rx="1.302" ry="2.499" fill="none" stroke="#000" stroke-linecap="round" stroke-linejoin="round" stroke-width="3"/>
</g>
<g>
<path d="m1.5 1.5v458.87c0 166.31 134.31 301.13 300 301.13 165.69 0 300-134.82 300-301.13v-458.87h-600z" fill="url(#a)"/>
<path d="m1.5 1.5v458.87c0 166.31 134.31 301.13 300 301.13 165.69 0 300-134.82 300-301.13v-458.87h-600z" fill="none" stroke="#000" stroke-width="3"/>
</g>
</svg>
