<?xml version="1.0" encoding="UTF-8"?>
<svg version="1.0" viewBox="0 0 603 763" xmlns="http://www.w3.org/2000/svg" xmlns:cc="http://creativecommons.org/ns#" xmlns:dc="http://purl.org/dc/elements/1.1/" xmlns:rdf="http://www.w3.org/1999/02/22-rdf-syntax-ns#" xmlns:xlink="http://www.w3.org/1999/xlink">
<metadata>
<rdf:RDF>
<cc:Work rdf:about="">
<dc:format>image/svg+xml</dc:format>
<dc:type rdf:resource="http://purl.org/dc/dcmitype/StillImage"/>
<dc:date>07-AUG-2006</dc:date>
<dc:creator>
<cc:Agent>
<dc:title>Jérôme BLUM (wagner51)</dc:title>
</cc:Agent>
</dc:creator>
<cc:license rdf:resource="http://creativecommons.org/licenses/GPL/2.0/"/>
<dc:coverage/>
<dc:description>Gabarit pour le Projet:Blasons de WIkipédia</dc:description>
<dc:subject>
<rdf:Bag>
<rdf:li>blason suisse modèle gabarit projet blasons</rdf:li>
</rdf:Bag>
</dc:subject>
<dc:language>fr</dc:language>
<dc:title>Gabrit d'un blason suisse</dc:title>
</cc:Work>
<cc:License rdf:about="http://creativecommons.org/licenses/GPL/2.0/">
<cc:permits rdf:resource="http://web.resource.org/cc/Reproduction"/>
<cc:permits rdf:resource="http://web.resource.org/cc/Distribution"/>
<cc:requires rdf:resource="http://web.resource.org/cc/Notice"/>
<cc:permits rdf:resource="http://web.resource.org/cc/DerivativeWorks"/>
<cc:requires rdf:resource="http://web.resource.org/cc/ShareAlike"/>
<cc:requires rdf:resource="http://web.resource.org/cc/SourceCode"/>
</cc:License>
</rdf:RDF>
</metadata>
<defs>
<radialGradient id="a" cx="858.04" cy="579.93" r="300" gradientTransform="matrix(1.215 1.5316e-24 1.4647e-23 1.2667 -839.19 -490.49)" gradientUnits="userSpaceOnUse">
<stop stop-color="#fff" stop-opacity=".31373" offset="0"/>
<stop stop-color="#fff" stop-opacity=".25098" offset=".19"/>
<stop stop-color="#6b6b6b" stop-opacity=".12549" offset=".6"/>
<stop stop-opacity=".12549" offset="1"/>
</radialGradient>
</defs>
<desc>Coat of Arms of Canton of Freiburg (Fribourg)</desc>
<g>
<path d="m1.5 1.5v458.87c0 166.31 134.31 301.13 300 301.13 165.69 0 300-134.82 300-301.13v-458.87h-600z" fill="#fff"/>
</g>
<g>
<path d="m501.5 1.503v683.29c61.368-55.139 100-135.25 100-224.43v-458.87h-100zm-400 683.29c28.855 25.926 62.736 46.322 100 59.543v-742.84h-100v683.29zm200 76.703c35.066 0 68.722-6.061 99.999-17.158v-742.84h-99.999v760z" fill="#2b5df2"/>
<path d="m501.5 1.503v683.29m-400-683.29v683.29m99.999 59.543v-742.84m99.997 274.07v485.93m0-760v190.07m99.999 552.77v-742.84" fill="none" stroke="#000" stroke-width="3"/>
<path d="m581.1 486.82v82.853c7.994-20.586 13.807-42.267 17.13-64.764l-17.13-18.089zm-69.9-73.811-69.901-73.813v84.024l-69.899-73.811v-84.024l-69.9-73.812v84.024l-69.899-73.811v-84.024l-69.899-73.811v84.024l-69.901-73.809v-52.66h-90.297v125.33l514.83 543.7c27.641-28.468 49.702-62.406 64.444-100.04l-69.573-73.467v-84.024h-1e-3z" fill="#e20909"/>
<path d="m1.5048 126.84 514.83 543.7" fill="none" stroke="#000" stroke-width="3"/>
<path d="m598.23 504.91-17.13-18.089v82.853m-0.326 0.827-69.573-73.467v-84.023l-69.901-73.813v84.024l-69.899-73.811v-84.024l-69.9-73.812v84.024l-69.899-73.811v-84.024l-69.899-73.811v84.024l-69.902-73.81v-52.66" fill="none" stroke="#000" stroke-width="3"/>
</g>
<g>
<path d="m1.5 1.5v458.87c0 166.31 134.31 301.13 300 301.13 165.69 0 300-134.82 300-301.13v-458.87h-600z" fill="url(#a)"/>
<path d="m1.5 1.5v458.87c0 166.31 134.31 301.13 300 301.13 165.69 0 300-134.82 300-301.13v-458.87h-600z" fill="none" stroke="#000" stroke-width="3"/>
</g>
</svg>
