<?xml version="1.0" encoding="UTF-8"?>
<svg version="1.0" viewBox="0 0 603 763" xmlns="http://www.w3.org/2000/svg" xmlns:cc="http://creativecommons.org/ns#" xmlns:dc="http://purl.org/dc/elements/1.1/" xmlns:rdf="http://www.w3.org/1999/02/22-rdf-syntax-ns#" xmlns:xlink="http://www.w3.org/1999/xlink">
<metadata>
<rdf:RDF>
<cc:Work rdf:about="">
<dc:format>image/svg+xml</dc:format>
<dc:type rdf:resource="http://purl.org/dc/dcmitype/StillImage"/>
<dc:date>07-AUG-2006</dc:date>
<dc:creator>
<cc:Agent>
<dc:title>Jérôme BLUM (wagner51)</dc:title>
</cc:Agent>
</dc:creator>
<cc:license rdf:resource="http://creativecommons.org/licenses/GPL/2.0/"/>
<dc:coverage/>
<dc:description>Gabarit pour le Projet:Blasons de WIkipédia</dc:description>
<dc:subject>
<rdf:Bag>
<rdf:li>blason suisse modèle gabarit projet blasons</rdf:li>
</rdf:Bag>
</dc:subject>
<dc:language>fr</dc:language>
<dc:title>Gabrit d'un blason suisse</dc:title>
</cc:Work>
<cc:License rdf:about="http://creativecommons.org/licenses/GPL/2.0/">
<cc:permits rdf:resource="http://web.resource.org/cc/Reproduction"/>
<cc:permits rdf:resource="http://web.resource.org/cc/Distribution"/>
<cc:requires rdf:resource="http://web.resource.org/cc/Notice"/>
<cc:permits rdf:resource="http://web.resource.org/cc/DerivativeWorks"/>
<cc:requires rdf:resource="http://web.resource.org/cc/ShareAlike"/>
<cc:requires rdf:resource="http://web.resource.org/cc/SourceCode"/>
</cc:License>
</rdf:RDF>
</metadata>
<defs>
<radialGradient id="a" cx="858.04" cy="579.93" r="300" gradientTransform="matrix(1.215 1.5316e-24 1.4647e-23 1.2667 -839.19 -490.49)" gradientUnits="userSpaceOnUse">
<stop stop-color="#fff" stop-opacity=".31373" offset="0"/>
<stop stop-color="#fff" stop-opacity=".25098" offset=".19"/>
<stop stop-color="#6b6b6b" stop-opacity=".12549" offset=".6"/>
<stop stop-opacity=".12549" offset="1"/>
</radialGradient>
</defs>
<desc>Coat of Arms of Canton of Freiburg (Fribourg)</desc>
<g>
<path d="m1.5 1.5v458.87c0 166.31 134.31 301.13 300 301.13 165.69 0 300-134.82 300-301.13v-458.87h-600z" fill="#fff"/>
<path d="m501.5 1.501v683.3c61.368-55.139 100-135.25 100-224.43v-458.87h-100zm-400 683.3c28.855 25.926 62.736 46.322 100 59.543v-742.84h-100v683.3zm200 76.703c35.066 0 68.721-6.061 99.999-17.158v-742.84h-99.999v760z" fill="#2b5df2"/>
<path d="m501.5 1.501v683.3m-400-683.3v683.3m99.999 59.543v-742.84m99.998 0v760m99.999-17.16v-742.84" fill="none" stroke="#000" stroke-width="3"/>
<g fill="#fcef3c" stroke="#000" stroke-linecap="round" stroke-linejoin="round" stroke-width="3">
<path d="m116.81 347.5-8e-3 38.937-33.245-1e-3c-15.748 0.095-0.145 27.135-27.433 31.757-3.586-16.519-5.46-33.672-5.458-51.253 5e-3 -17.566 1.882-34.708 5.43-51.297 26.894 5.078 12.139 31.758 27.468 31.852l33.246 5e-3z"/>
<path d="m519.44 347.5c15.33-0.094 0.575-26.774 27.469-31.852 3.547 16.589 5.425 33.73 5.43 51.297 2e-3 17.581-1.871 34.734-5.458 51.253-27.288-4.622-11.686-31.663-27.433-31.757l-33.245 1e-3 -8e-3 -38.937 33.245-5e-3z"/>
<path d="m282.1 551.6 38.937 8e-3 -1e-3 33.245c0.095 15.747 27.135 0.145 31.758 27.433-16.52 3.587-33.673 5.46-51.254 5.458-17.566-5e-3 -34.708-1.883-51.297-5.43 5.078-26.894 31.758-12.139 31.852-27.469l5e-3 -33.245z"/>
<path d="m282.09 148.97c-0.094-15.33-26.774-0.575-31.852-27.469 16.589-3.547 33.73-5.425 51.297-5.43 17.581-2e-3 34.734 1.871 51.253 5.458-4.622 27.288-31.662 11.686-31.757 27.433l1e-3 33.245-38.937 8e-3 -5e-3 -33.245z"/>
<path d="m157.18 483.78 27.527 27.538-23.508 23.507c-11.068 11.202 19.085 19.29 3.058 41.854-14.217-9.145-27.671-19.949-40.101-32.383-12.418-12.425-23.211-25.873-32.433-40.111 22.607-15.426 31.04 13.873 41.946 3.1l23.511-23.505z"/>
<path d="m441.88 199.08c10.773-10.906-18.525-19.338-3.1-41.946 14.238 9.222 27.687 20.015 40.111 32.433 12.434 12.431 23.238 25.884 32.383 40.101-22.564 16.027-30.652-14.125-41.854-3.058l-23.507 23.509-27.538-27.527 23.505-23.512z"/>
<path d="m418.38 511.22 27.537-27.526 23.508 23.508c11.201 11.068 19.289-19.085 41.854-3.058-9.145 14.217-19.949 27.671-32.383 40.101-12.425 12.418-25.873 23.211-40.111 32.434-15.426-22.607 13.873-31.04 3.1-41.946l-23.505-23.513z"/>
<path d="m133.67 226.52c-10.906-10.773-19.339 18.525-41.946 3.1 9.223-14.238 20.015-27.687 32.433-40.112 12.43-12.433 25.884-23.238 40.101-32.382 16.027 22.564-14.125 30.651-3.058 41.854l23.509 23.507-27.527 27.538-23.512-23.505z"/>
<path d="m341.28 347.5v-20.281h-20.282v-157.82h-38.999v157.82h-20.28v20.281h-157.82v38.999h157.82v20.281h20.28v157.82h38.999v-157.82h20.282v-20.281h157.82v-38.999h-157.82zm-20.282 38.998h-38.996v-38.996h38.996v38.996z"/>
<path d="m520.04 366.99c0-120.63-97.905-218.53-218.54-218.53-120.64 0-218.54 97.898-218.54 218.53l0.015 0.023h-0.015c0 120.63 97.906 218.53 218.54 218.53 120.64 0 218.54-97.898 218.54-218.53h-0.017l0.017-0.023zm-218.54 178.52c-98.572 0-178.6-79.957-178.7-178.5h-0.046l0.046-0.023c0.102-98.543 80.129-178.5 178.7-178.5 98.574 0 178.57 79.957 178.67 178.5l0.015 0.023h-0.015c-0.102 98.543-80.096 178.5-178.67 178.5z"/>
</g>
</g>
<g>
<path d="m1.5 1.5v458.87c0 166.31 134.31 301.13 300 301.13 165.69 0 300-134.82 300-301.13v-458.87h-600z" fill="url(#a)"/>
<path d="m1.5 1.5v458.87c0 166.31 134.31 301.13 300 301.13 165.69 0 300-134.82 300-301.13v-458.87h-600z" fill="none" stroke="#000" stroke-width="3"/>
</g>
</svg>
