<?xml version="1.0" encoding="UTF-8" standalone="no"?>
<svg
   xmlns:dc="http://purl.org/dc/elements/1.1/"
   xmlns:cc="http://creativecommons.org/ns#"
   xmlns:rdf="http://www.w3.org/1999/02/22-rdf-syntax-ns#"
   xmlns:svg="http://www.w3.org/2000/svg"
   xmlns="http://www.w3.org/2000/svg"
   xmlns:xlink="http://www.w3.org/1999/xlink"
   xmlns:sodipodi="http://sodipodi.sourceforge.net/DTD/sodipodi-0.dtd"
   xmlns:inkscape="http://www.inkscape.org/namespaces/inkscape"
   height="763"
   width="603"
   version="1.0"
   id="svg20"
   sodipodi:version="0.32"
   inkscape:version="0.46"
   sodipodi:docname="Belmont-sur-Lausanne-coat_of_arms.svg"
   sodipodi:docbase="C:\Documents and Settings\Steve\Bureau\Blason Villages Suisse pour Wikipédia (par Delta-9)"
   inkscape:output_extension="org.inkscape.output.svg.inkscape">
  <metadata
     id="metadata31">
    <rdf:RDF>
      <cc:Work
         rdf:about="">
        <dc:format>image/svg+xml</dc:format>
        <dc:type
           rdf:resource="http://purl.org/dc/dcmitype/StillImage" />
        <dc:date>07-AUG-2006</dc:date>
        <dc:creator>
          <cc:Agent>
            <dc:title>Jérôme BLUM (wagner51)</dc:title>
          </cc:Agent>
        </dc:creator>
        <cc:license
           rdf:resource="http://creativecommons.org/licenses/GPL/2.0/" />
        <dc:coverage />
        <dc:description>Gabarit pour le Projet:Blasons de WIkipédia</dc:description>
        <dc:subject>
          <rdf:Bag>
            <rdf:li>blason suisse modèle gabarit projet blasons</rdf:li>
          </rdf:Bag>
        </dc:subject>
        <dc:language>fr</dc:language>
        <dc:title>Gabrit d'un blason suisse</dc:title>
      </cc:Work>
      <cc:License
         rdf:about="http://creativecommons.org/licenses/GPL/2.0/">
        <cc:permits
           rdf:resource="http://web.resource.org/cc/Reproduction" />
        <cc:permits
           rdf:resource="http://web.resource.org/cc/Distribution" />
        <cc:requires
           rdf:resource="http://web.resource.org/cc/Notice" />
        <cc:permits
           rdf:resource="http://web.resource.org/cc/DerivativeWorks" />
        <cc:requires
           rdf:resource="http://web.resource.org/cc/ShareAlike" />
        <cc:requires
           rdf:resource="http://web.resource.org/cc/SourceCode" />
      </cc:License>
    </rdf:RDF>
  </metadata>
  <defs
     id="defs29"><inkscape:perspective
   sodipodi:type="inkscape:persp3d"
   inkscape:vp_x="0 : 381.5 : 1"
   inkscape:vp_y="0 : 1000 : 0"
   inkscape:vp_z="603 : 381.5 : 1"
   inkscape:persp3d-origin="301.5 : 254.33333 : 1"
   id="perspective28" />
<linearGradient
   id="linearGradient2893">
  <stop
     style="stop-color:#ffffff;stop-opacity:0.3137255;"
     offset="0"
     id="stop2895" />
  <stop
     id="stop2897"
     offset="0.19"
     style="stop-color:#ffffff;stop-opacity:0.25098041;" />
  <stop
     style="stop-color:#6b6b6b;stop-opacity:0.1254902;"
     offset="0.60000002"
     id="stop2901" />
  <stop
     style="stop-color:#000000;stop-opacity:0.1254902;"
     offset="1"
     id="stop2899" />
</linearGradient>
<linearGradient
   id="linearGradient2955">
  <stop
     style="stop-color:white;stop-opacity:0;"
     offset="0"
     id="stop2965" />
  <stop
     style="stop-color:black;stop-opacity:0.64583331;"
     offset="1"
     id="stop2959" />
</linearGradient>
<radialGradient
   inkscape:collect="always"
   xlink:href="#linearGradient2893"
   id="radialGradient3236"
   gradientUnits="userSpaceOnUse"
   gradientTransform="matrix(1.215027,1.531577e-24,1.464684e-23,1.266667,-839.1924,-490.4894)"
   cx="858.04236"
   cy="579.93323"
   fx="858.04236"
   fy="579.93323"
   r="300" />
<inkscape:perspective
   id="perspective2940"
   inkscape:persp3d-origin="297.63751 : 280.63 : 1"
   inkscape:vp_z="595.27502 : 420.94501 : 1"
   inkscape:vp_y="0 : 1000 : 0"
   inkscape:vp_x="0 : 420.94501 : 1"
   sodipodi:type="inkscape:persp3d" />

	
	
	

	
	

		
		
		
	
		
	
		
		
		
	
			
			
			
			
		
			
			
			
			
		
			
			
			
			
		
				
				
				
				
			
				
			
				
				
				
			
				
				
				
			
				
				
				
				
			
				
			
				
				
				
			
				
				
				
			
				
				
				
				
			
				
			
				
				
				
			
				
				
				
			
					
					
				
					
					
				
					
					
				
					
					
						
				
					
					
				
					
					
				
					
					
				
					
					
				
					
					
						
				
					
					
				
					
					
				
					
					
				
					
					
				
					
					
						
				
					
					
				
						
						
						
					
						
						
						
					
						
						
						
					
						
						
						
					
						
						
						
					
						
						
						
					
						
						
						
					
						
						
						
					
						
						
						
					
						
						
						
					
						
						
						
					
						
						
						
					</defs>
  <sodipodi:namedview
     inkscape:window-height="968"
     inkscape:window-width="1280"
     inkscape:pageshadow="2"
     inkscape:pageopacity="0.0"
     guidetolerance="10.0"
     gridtolerance="10.0"
     objecttolerance="10.0"
     borderopacity="1.0"
     bordercolor="#666666"
     pagecolor="#ffffff"
     id="base"
     inkscape:zoom="0.92652193"
     inkscape:cx="173.53758"
     inkscape:cy="379.21516"
     inkscape:window-x="1280"
     inkscape:window-y="22"
     inkscape:current-layer="layer2"
     showgrid="false"
     showguides="true"
     inkscape:guide-bbox="true">
    <sodipodi:guide
       orientation="horizontal"
       position="761.5"
       id="guide1885" />
    <sodipodi:guide
       orientation="vertical"
       position="1.5"
       id="guide1887" />
    <sodipodi:guide
       orientation="horizontal"
       position="1.5"
       id="guide1889" />
    <sodipodi:guide
       orientation="vertical"
       position="601.5"
       id="guide1891" />
    <sodipodi:guide
       orientation="vertical"
       position="301.50081"
       id="guide1893" />
  </sodipodi:namedview>
  <desc
     id="desc22">Coat of Arms of Canton of Freiburg (Fribourg)</desc>
  <g
     inkscape:groupmode="layer"
     id="layer1"
     inkscape:label="Fond écu"
     style="opacity:1"
     sodipodi:insensitive="true">
    <path
       d="M 1.5,1.5 L 1.5,460.369 C 1.5,626.68 135.814,761.5 301.5,761.5 C 467.187,761.5 601.5,626.68 601.5,460.369 L 601.5,1.5 L 1.5,1.5 z"
       id="path2509"
       style="opacity:1;fill:#ffffff" />
    <path
       d="M 1.5,251.188 L 1.5,460.369 C 1.5,626.68 135.814,761.5 301.5,761.5 C 467.188,761.5 601.5,626.68 601.5,460.369 L 601.5,251.188 L 1.5,251.188 z"
       id="path2472"
       style="opacity:1;fill:#e20909" />
  </g>
  <g
     inkscape:groupmode="layer"
     id="layer2"
     inkscape:label="Meubles"
     style="opacity:1;display:inline"
     sodipodi:insensitive="true">
    <g
       id="g3912">
      <g
         id="g3907">
        <path
           style="fill:#fcef3c"
           id="path2598"
           d="M 426.835,611.88 C 397.308,611.88 369.713,637.79 341.925,657.503 C 314.138,677.216 301.497,663.181 301.497,663.181 C 301.497,663.181 288.859,677.216 261.071,657.503 C 233.283,637.79 205.688,611.88 176.162,611.88 C 152.083,611.88 124.581,630.89 124.581,668.909 C 124.581,678.013 126.299,692.04 130.921,708.091 C 179.355,741.757 238.125,761.499 301.497,761.499 C 364.869,761.499 423.642,741.757 472.073,708.093 C 476.695,692.04 478.413,678.017 478.413,668.909 C 478.413,630.89 450.911,611.88 426.835,611.88 z" />
        <path
           style="fill:none;stroke:#000000;stroke-width:3"
           id="path2600"
           d="M 472.073,708.093 C 476.695,692.04 478.413,678.017 478.413,668.909 C 478.413,630.888 450.911,611.88 426.835,611.88 C 397.308,611.88 369.713,637.79 341.925,657.503 C 314.138,677.216 301.497,663.181 301.497,663.181 C 301.497,663.181 288.859,677.216 261.071,657.503 C 233.283,637.79 205.688,611.88 176.162,611.88 C 152.083,611.88 124.581,630.89 124.581,668.909 C 124.581,678.013 126.299,692.04 130.921,708.091" />
        <path
           style="fill:#fcef3c;stroke:#000000;stroke-width:3"
           id="path2602"
           d="M 369.934,633.425 C 369.934,595.63 339.294,564.989 301.497,564.989 C 263.704,564.989 233.062,595.63 233.062,633.425 C 233.062,671.22 286.795,761.374 301.497,761.374 C 316.198,761.374 369.934,671.22 369.934,633.425 z" />
      </g>
      <line
         y2="251.188"
         x2="601.49805"
         y1="251.188"
         x1="1.4999965"
         id="line2592"
         style="fill:none;stroke:#000000;stroke-width:3" />
      <g
         id="g3830">
        <g
           id="g3778">
          <path
             id="path2715"
             d="M 258.469,74.732 C 252.065,59.575 251.263,50.335 251.198,40.337 C 254.015,39.629 254.733,37.326 255.105,36.115 C 255.105,36.115 255.186,35.885 255.256,35.683 C 255.943,35.423 256.434,34.778 256.434,34.012 C 256.434,33.017 255.611,32.21 254.596,32.21 C 252.465,32.21 251.871,34.146 251.585,35.076 C 251.178,36.403 251.009,36.951 249.354,36.951 C 247.699,36.951 247.531,36.402 247.124,35.076 C 246.838,34.146 246.244,32.21 244.113,32.21 C 243.098,32.21 242.275,33.017 242.275,34.012 C 242.275,34.778 242.766,35.423 243.453,35.683 C 243.523,35.885 243.604,36.115 243.604,36.115 C 243.976,37.327 244.695,39.635 247.523,40.34 C 247.587,50.742 248.411,60.343 255.073,76.111 C 255.462,77.03 256.537,77.466 257.475,77.086 C 258.412,76.706 258.858,75.652 258.469,74.732 z" />
          <path
             id="path2717"
             d="M 255.06,135.978 C 254.205,135.442 253.068,135.687 252.521,136.526 C 249.79,140.714 246.6,144.303 243.786,147.47 C 239.233,152.593 235.257,157.082 234.571,162.397 C 231.652,163.068 230.919,165.421 230.542,166.648 C 230.501,166.78 230.454,166.936 230.408,167.069 C 229.712,167.326 229.213,167.979 229.213,168.751 C 229.213,169.747 230.036,170.553 231.051,170.553 C 233.182,170.553 233.777,168.617 234.062,167.687 C 234.469,166.36 234.638,165.812 236.292,165.812 C 237.946,165.812 238.116,166.361 238.523,167.687 C 238.809,168.617 239.403,170.553 241.534,170.553 C 242.549,170.553 243.372,169.747 243.372,168.751 C 243.372,167.979 242.874,167.326 242.178,167.069 C 242.133,166.936 242.084,166.78 242.044,166.648 C 241.678,165.457 240.98,163.206 238.273,162.46 C 238.979,158.374 242.375,154.544 246.558,149.837 C 249.456,146.576 252.741,142.881 255.62,138.467 C 256.166,137.629 255.915,136.515 255.06,135.978 z" />
          <path
             id="path2719"
             d="M 263.87,179.718 C 264.127,178.755 263.538,177.77 262.557,177.519 C 261.575,177.268 260.57,177.844 260.313,178.807 C 258.209,186.704 255.641,192.501 253.375,197.616 C 250.903,203.198 248.917,207.725 248.558,212.747 C 245.673,213.432 244.945,215.767 244.57,216.989 C 244.529,217.121 244.481,217.276 244.436,217.41 C 243.74,217.666 243.241,218.32 243.241,219.092 C 243.241,220.087 244.064,220.894 245.079,220.894 C 247.21,220.894 247.804,218.958 248.09,218.028 C 248.497,216.702 248.666,216.153 250.321,216.153 C 251.976,216.153 252.144,216.702 252.551,218.028 C 252.837,218.959 253.431,220.894 255.562,220.894 C 256.577,220.894 257.4,220.087 257.4,219.092 C 257.4,218.32 256.901,217.666 256.205,217.41 C 256.16,217.276 256.112,217.121 256.071,216.989 C 255.702,215.789 254.995,213.514 252.237,212.785 C 252.607,208.426 254.457,204.223 256.747,199.052 C 258.951,194.076 261.693,187.884 263.87,179.718 z" />
          <path
             id="path2723"
             d="M 344.525,74.732 C 350.928,59.575 351.731,50.335 351.795,40.337 C 348.978,39.629 348.261,37.326 347.889,36.115 C 347.889,36.115 347.809,35.885 347.739,35.683 C 347.052,35.423 346.561,34.778 346.561,34.012 C 346.561,33.017 347.383,32.21 348.398,32.21 C 350.53,32.21 351.124,34.146 351.41,35.076 C 351.817,36.403 351.986,36.951 353.64,36.951 C 355.295,36.951 355.463,36.402 355.87,35.076 C 356.156,34.146 356.751,32.21 358.881,32.21 C 359.897,32.21 360.72,33.017 360.72,34.012 C 360.72,34.778 360.229,35.423 359.541,35.683 C 359.472,35.885 359.391,36.115 359.391,36.115 C 359.02,37.327 358.299,39.635 355.472,40.34 C 355.408,50.742 354.583,60.343 347.922,76.111 C 347.533,77.03 346.458,77.466 345.521,77.086 C 344.582,76.706 344.137,75.652 344.525,74.732 z" />
          <path
             id="path2725"
             d="M 347.934,135.978 C 348.789,135.442 349.926,135.687 350.473,136.526 C 353.204,140.714 356.394,144.303 359.208,147.47 C 363.761,152.593 367.737,157.082 368.424,162.397 C 371.343,163.068 372.075,165.421 372.452,166.648 C 372.492,166.78 372.541,166.936 372.586,167.069 C 373.282,167.326 373.78,167.979 373.78,168.751 C 373.78,169.747 372.957,170.553 371.942,170.553 C 369.811,170.553 369.216,168.617 368.931,167.687 C 368.524,166.36 368.355,165.812 366.701,165.812 C 365.046,165.812 364.878,166.361 364.471,167.687 C 364.185,168.617 363.59,170.553 361.459,170.553 C 360.443,170.553 359.621,169.747 359.621,168.751 C 359.621,167.979 360.12,167.326 360.816,167.069 C 360.861,166.936 360.909,166.78 360.95,166.648 C 361.315,165.457 362.013,163.206 364.721,162.46 C 364.014,158.374 360.618,154.544 356.435,149.837 C 353.538,146.576 350.252,142.881 347.374,138.467 C 346.828,137.629 347.079,136.515 347.934,135.978 z" />
          <path
             id="path2727"
             d="M 339.124,179.718 C 338.867,178.755 339.455,177.77 340.437,177.519 C 341.419,177.268 342.423,177.844 342.68,178.807 C 344.784,186.704 347.352,192.501 349.618,197.616 C 352.091,203.198 354.076,207.725 354.435,212.747 C 357.32,213.432 358.048,215.767 358.423,216.989 C 358.464,217.121 358.512,217.276 358.557,217.41 C 359.253,217.666 359.751,218.32 359.751,219.092 C 359.751,220.087 358.929,220.894 357.914,220.894 C 355.782,220.894 355.187,218.958 354.902,218.028 C 354.495,216.702 354.326,216.153 352.672,216.153 C 351.017,216.153 350.849,216.702 350.442,218.028 C 350.156,218.959 349.561,220.894 347.431,220.894 C 346.415,220.894 345.592,220.087 345.592,219.092 C 345.592,218.32 346.091,217.666 346.787,217.41 C 346.832,217.276 346.881,217.121 346.921,216.989 C 347.29,215.789 347.997,213.514 350.755,212.785 C 350.385,208.426 348.536,204.223 346.245,199.052 C 344.042,194.076 341.301,187.884 339.124,179.718 z" />
          <path
             id="path2733"
             d="M 276.201,87.592 C 262.657,84.154 262.778,78.583 261.205,74.316 C 259.633,70.049 256.368,73.368 256.368,73.368 C 250.442,71.116 248.628,77.398 248.628,77.398 C 252.861,75.62 253.949,77.398 257.819,82.614 C 261.689,87.83 266.466,88.6 275.536,92.275 L 276.201,87.592 z" />
          <path
             id="path2735"
             d="M 274.468,104.623 C 263.866,104.623 261.931,118.096 256.126,128.053 C 250.321,138.01 246.572,138.208 249.112,140.697 C 249.959,141.527 252.498,140.934 252.498,140.934 C 252.498,140.934 252.135,145.32 257.879,146.209 C 257.879,146.209 255.339,139.334 259.33,132.34 C 263.321,125.346 267.13,111.892 274.507,111.892 L 274.468,104.623 z" />
          <path
             id="path2737"
             d="M 274.507,132.637 C 265.074,132.637 261.689,144.965 261.689,159.189 C 261.689,173.413 260.318,175.784 259.028,178.787 C 257.738,181.79 259.834,184.793 261.769,182.897 C 261.769,182.897 262.897,186.532 268.058,182.897 C 268.058,182.897 264.631,181.949 265.437,176.417 C 266.244,170.885 264.833,142.751 274.507,147.335 L 274.507,132.637 z" />
          <path
             id="path2741"
             d="M 326.794,87.592 C 340.338,84.154 340.217,78.583 341.789,74.316 C 343.361,70.049 346.626,73.368 346.626,73.368 C 352.552,71.116 354.366,77.398 354.366,77.398 C 350.134,75.62 349.045,77.398 345.175,82.614 C 341.306,87.83 336.529,88.6 327.459,92.275 L 326.794,87.592 z" />
          <path
             id="path2743"
             d="M 328.526,104.623 C 339.129,104.623 341.063,118.096 346.868,128.053 C 352.673,138.01 356.422,138.208 353.882,140.697 C 353.036,141.527 350.496,140.934 350.496,140.934 C 350.496,140.934 350.859,145.32 345.114,146.209 C 345.114,146.209 347.654,139.334 343.663,132.34 C 339.673,125.346 335.863,111.892 328.486,111.892 L 328.526,104.623 z" />
          <path
             id="path2745"
             d="M 328.486,132.637 C 337.919,132.637 341.305,144.965 341.305,159.189 C 341.305,173.413 342.675,175.784 343.965,178.787 C 345.255,181.79 343.158,184.793 341.224,182.897 C 341.224,182.897 340.095,186.532 334.935,182.897 C 334.935,182.897 338.362,181.949 337.556,176.417 C 336.749,170.885 338.16,142.751 328.486,147.335 L 328.486,132.637 L 328.486,132.637 z" />
          <path
             d="M 300.328,57.975 C 295.347,54.054 290.012,51.749 285.725,49.898 C 280.37,47.585 277.165,46.072 276.258,43.486 C 280.582,42.819 282.391,39.867 282.391,33.775 C 282.391,32.779 281.568,31.973 280.553,31.973 C 279.538,31.973 278.715,32.779 278.715,33.775 C 278.715,36.898 278.259,38.459 277.409,39.244 L 277.409,33.797 C 277.409,33.011 276.759,31.973 275.957,31.973 C 275.156,31.973 274.506,33.012 274.506,33.797 L 274.506,40.03 C 274.387,40.031 274.268,40.032 274.143,40.032 C 274.019,40.032 273.9,40.031 273.78,40.03 L 273.78,33.797 C 273.78,33.011 273.131,31.973 272.329,31.973 C 271.528,31.973 270.878,33.012 270.878,33.797 L 270.878,39.244 C 270.028,38.459 269.572,36.898 269.572,33.775 C 269.572,32.779 268.749,31.973 267.734,31.973 C 266.719,31.973 265.896,32.779 265.896,33.775 C 265.896,40.068 267.834,43.006 272.474,43.54 C 273.41,48.501 278.463,50.7 284.242,53.195 C 288.544,55.053 293.421,57.159 298.025,60.784 C 298.817,61.407 299.973,61.283 300.61,60.508 C 301.247,59.732 301.12,58.598 300.328,57.975 z"
             id="path2749" />
          <path
             d="M 302.666,57.975 C 307.646,54.054 312.981,51.749 317.269,49.898 C 322.623,47.585 325.829,46.072 326.736,43.486 C 322.413,42.819 320.602,39.867 320.602,33.775 C 320.602,32.779 321.425,31.973 322.441,31.973 C 323.456,31.973 324.278,32.779 324.278,33.775 C 324.278,36.898 324.735,38.459 325.585,39.244 L 325.585,33.797 C 325.585,33.011 326.234,31.973 327.036,31.973 C 327.838,31.973 328.487,33.012 328.487,33.797 L 328.487,40.03 C 328.606,40.031 328.725,40.032 328.85,40.032 C 328.973,40.032 329.092,40.031 329.212,40.03 L 329.212,33.797 C 329.212,33.011 329.861,31.973 330.663,31.973 C 331.465,31.973 332.114,33.012 332.114,33.797 L 332.114,39.244 C 332.964,38.459 333.42,36.898 333.42,33.775 C 333.42,32.779 334.243,31.973 335.259,31.973 C 336.274,31.973 337.097,32.779 337.097,33.775 C 337.097,40.068 335.159,43.006 330.519,43.54 C 329.584,48.501 324.531,50.7 318.751,53.195 C 314.448,55.053 309.572,57.159 304.967,60.784 C 304.176,61.407 303.02,61.283 302.383,60.508 C 301.747,59.732 301.874,58.598 302.666,57.975 z"
             id="path2751" />
          <path
             id="path2755"
             d="M 330.903,106.953 C 330.903,93.134 318.772,96.99 301.497,96.99 C 284.222,96.99 272.091,93.134 272.091,106.953 C 272.091,119.837 268.928,194.041 295.293,207.984 L 295.278,207.987 C 300.984,210.875 299.306,223.649 301.498,223.649 C 303.69,223.649 302.012,210.875 307.718,207.987 L 307.702,207.984 C 334.066,194.041 330.903,119.837 330.903,106.953 z"
             style="stroke:#000000;stroke-width:3;stroke-linecap:round;stroke-linejoin:round" />
          <path
             id="path2757"
             d="M 330.903,106.953 C 330.903,93.134 318.772,96.99 301.497,96.99 C 284.222,96.99 272.091,93.134 272.091,106.953 C 272.091,113.189 271.35,133.791 273.573,154.974 C 275.003,165.889 279.147,180.256 290.286,165.88 C 299.467,154.033 301.496,136.81 301.496,128.967 C 301.496,136.81 303.525,154.033 312.706,165.88 C 323.85,180.26 327.991,165.88 329.421,154.964 C 329.421,154.963 329.421,154.962 329.421,154.961 C 331.645,133.783 330.903,113.188 330.903,106.953 z M 278.539,142.91 C 278.539,143.696 277.889,144.332 277.088,144.332 C 276.286,144.332 275.637,143.695 275.637,142.91 L 275.637,104.986 C 275.637,104.2 276.286,103.563 277.088,103.563 C 277.889,103.563 278.539,104.2 278.539,104.986 L 278.539,142.91 z M 284.821,164.09 C 284.821,164.876 284.172,165.512 283.37,165.512 C 282.568,165.512 281.919,164.875 281.919,164.09 L 281.919,107.615 C 281.919,106.83 282.568,106.193 283.37,106.193 C 284.172,106.193 284.821,106.83 284.821,107.615 L 284.821,164.09 z M 291.104,155.871 C 291.104,156.657 290.455,157.293 289.653,157.293 C 288.851,157.293 288.202,156.656 288.202,155.871 L 288.202,108.939 C 288.202,108.153 288.851,107.516 289.653,107.516 C 290.455,107.516 291.104,108.153 291.104,108.939 L 291.104,155.871 z M 297.386,140.065 C 297.386,140.851 296.737,141.488 295.935,141.488 C 295.133,141.488 294.484,140.851 294.484,140.065 L 294.484,109.565 C 294.484,108.779 295.133,108.143 295.935,108.143 C 296.737,108.143 297.386,108.78 297.386,109.565 L 297.386,140.065 z M 308.51,140.065 C 308.51,140.851 307.862,141.488 307.059,141.488 C 306.258,141.488 305.608,140.851 305.608,140.065 L 305.608,109.565 C 305.608,108.779 306.258,108.143 307.059,108.143 C 307.862,108.143 308.51,108.78 308.51,109.565 L 308.51,140.065 z M 314.793,155.871 C 314.793,156.657 314.143,157.293 313.342,157.293 C 312.54,157.293 311.891,156.656 311.891,155.871 L 311.891,108.939 C 311.891,108.153 312.54,107.516 313.342,107.516 C 314.143,107.516 314.793,108.153 314.793,108.939 L 314.793,155.871 z M 321.076,164.09 C 321.076,164.876 320.426,165.512 319.625,165.512 C 318.822,165.512 318.174,164.875 318.174,164.09 L 318.174,107.615 C 318.174,106.83 318.822,106.193 319.625,106.193 C 320.426,106.193 321.076,106.83 321.076,107.615 L 321.076,164.09 z M 327.358,142.91 C 327.358,143.696 326.71,144.332 325.907,144.332 C 325.106,144.332 324.456,143.695 324.456,142.91 L 324.456,104.986 C 324.456,104.2 325.106,103.563 325.907,103.563 C 326.71,103.563 327.358,104.2 327.358,104.986 L 327.358,142.91 z"
             style="fill:#b7502c" />
          <path
             style="fill:none;stroke:#000000;stroke-width:3;stroke-linecap:round;stroke-linejoin:round"
             d="M 330.903,106.953 C 330.903,93.134 318.772,96.99 301.497,96.99 C 284.222,96.99 272.091,93.134 272.091,106.953 C 272.091,113.189 271.35,133.791 273.573,154.974 C 275.003,165.889 279.147,180.256 290.286,165.88 C 299.467,154.033 301.496,136.81 301.496,128.967 C 301.496,136.81 303.525,154.033 312.706,165.88 C 323.85,180.26 327.991,165.88 329.421,154.964 C 329.421,154.963 329.421,154.962 329.421,154.961 C 331.645,133.783 330.903,113.188 330.903,106.953 z"
             id="path2761" />
          <line
             style="fill:none;stroke:#000000;stroke-width:3;stroke-linecap:round;stroke-linejoin:round"
             x1="301.49701"
             y1="128.966"
             x2="301.49701"
             y2="103.081"
             id="line2763" />
          <path
             style="stroke:#000000;stroke-width:3;stroke-linecap:round;stroke-linejoin:round"
             d="M 301.497,57.128 C 296.88,57.128 290.954,63.055 295.67,70.997 L 307.323,70.997 C 312.04,63.055 306.114,57.128 301.497,57.128 z"
             id="path2769" />
          <path
             style="stroke:#000000;stroke-width:3;stroke-linecap:round;stroke-linejoin:round"
             d="M 301.497,69.258 C 283.698,69.258 273.379,86.327 273.379,93.914 C 273.379,96.759 280.114,103.081 301.497,103.081 C 322.88,103.081 329.614,96.759 329.614,93.914 C 329.614,86.327 319.296,69.258 301.497,69.258 z"
             id="path2771" />
          <path
             id="path2775"
             d="M 316.319,187.417 C 317.393,183.788 316.964,180.475 315.36,180.019 C 313.757,179.563 311.584,182.136 310.509,185.766 C 309.436,189.396 309.865,192.708 311.468,193.164 C 313.072,193.62 315.244,191.047 316.319,187.417 z"
             style="fill:#ffffff;stroke:#000000;stroke-linecap:round;stroke-linejoin:round" />
          <path
             id="path2777"
             d="M 291.737,75.762 C 288.427,77.366 285.85,79.586 283.994,81.601 C 280.133,85.792 277.984,90.685 277.773,93.461 C 278.687,94.574 282.586,97.165 291.871,98.283 C 294.413,88.336 293.476,80.882 291.737,75.762 z"
             style="fill:#ffffff;stroke:#000000;stroke-linecap:round;stroke-linejoin:round" />
          <path
             id="path2779"
             d="M 280.539,171.643 C 283.517,186.514 287.745,195.151 292.095,200.015 C 288.433,189.397 286.965,178.675 286.473,169.947 C 284.117,171.878 282.162,172.278 280.539,171.643 z"
             style="fill:#ffffff;stroke:#000000;stroke-linecap:round;stroke-linejoin:round" />
          <path
             id="path2781"
             d="M 297.183,69.612 C 298.072,69.468 298.98,69.359 299.912,69.305 C 300.636,68.424 301.11,66.933 301.11,65.242 C 301.11,62.536 299.892,60.342 298.39,60.342 C 296.888,60.342 295.67,62.536 295.67,65.242 C 295.67,67.163 296.29,68.809 297.183,69.612 z"
             style="fill:#ffffff;stroke:#000000;stroke-linecap:round;stroke-linejoin:round" />
        </g>
        <g
           id="g3752">
          <path
             id="path2791"
             d="M 83.454,74.732 C 77.05,59.575 76.248,50.335 76.183,40.337 C 79,39.629 79.718,37.326 80.09,36.115 C 80.09,36.115 80.171,35.885 80.241,35.683 C 80.928,35.423 81.419,34.778 81.419,34.012 C 81.419,33.017 80.596,32.21 79.581,32.21 C 77.45,32.21 76.856,34.146 76.57,35.076 C 76.163,36.403 75.994,36.951 74.339,36.951 C 72.684,36.951 72.516,36.402 72.109,35.076 C 71.823,34.146 71.229,32.21 69.098,32.21 C 68.083,32.21 67.26,33.017 67.26,34.012 C 67.26,34.778 67.751,35.423 68.438,35.683 C 68.508,35.885 68.589,36.115 68.589,36.115 C 68.961,37.327 69.68,39.635 72.508,40.34 C 72.572,50.742 73.396,60.343 80.058,76.111 C 80.447,77.03 81.522,77.466 82.46,77.086 C 83.397,76.706 83.843,75.652 83.454,74.732 z" />
          <path
             id="path2793"
             d="M 80.045,135.978 C 79.19,135.442 78.053,135.687 77.506,136.526 C 74.775,140.714 71.585,144.303 68.771,147.47 C 64.218,152.593 60.242,157.082 59.556,162.397 C 56.637,163.068 55.904,165.421 55.527,166.648 C 55.486,166.78 55.439,166.936 55.393,167.069 C 54.697,167.326 54.198,167.979 54.198,168.751 C 54.198,169.747 55.021,170.553 56.036,170.553 C 58.167,170.553 58.762,168.617 59.047,167.687 C 59.454,166.36 59.623,165.812 61.277,165.812 C 62.931,165.812 63.101,166.361 63.508,167.687 C 63.794,168.617 64.388,170.553 66.519,170.553 C 67.534,170.553 68.357,169.747 68.357,168.751 C 68.357,167.979 67.859,167.326 67.163,167.069 C 67.118,166.936 67.069,166.78 67.029,166.648 C 66.663,165.457 65.965,163.206 63.258,162.46 C 63.964,158.374 67.36,154.544 71.543,149.837 C 74.441,146.576 77.726,142.881 80.605,138.467 C 81.151,137.629 80.9,136.515 80.045,135.978 z" />
          <path
             id="path2795"
             d="M 88.856,179.718 C 89.113,178.755 88.524,177.77 87.543,177.519 C 86.56,177.268 85.556,177.844 85.299,178.807 C 83.195,186.704 80.627,192.501 78.361,197.616 C 75.889,203.198 73.903,207.725 73.544,212.747 C 70.659,213.432 69.931,215.767 69.556,216.989 C 69.515,217.121 69.467,217.276 69.422,217.41 C 68.726,217.666 68.227,218.32 68.227,219.092 C 68.227,220.087 69.05,220.894 70.065,220.894 C 72.196,220.894 72.79,218.958 73.076,218.028 C 73.483,216.702 73.652,216.153 75.307,216.153 C 76.962,216.153 77.13,216.702 77.537,218.028 C 77.823,218.959 78.417,220.894 80.548,220.894 C 81.563,220.894 82.386,220.087 82.386,219.092 C 82.386,218.32 81.887,217.666 81.191,217.41 C 81.146,217.276 81.098,217.121 81.057,216.989 C 80.688,215.789 79.981,213.514 77.223,212.785 C 77.593,208.426 79.443,204.223 81.733,199.052 C 83.937,194.076 86.679,187.884 88.856,179.718 z" />
          <path
             id="path2799"
             d="M 169.511,74.732 C 175.914,59.575 176.717,50.335 176.781,40.337 C 173.964,39.629 173.246,37.326 172.874,36.115 C 172.874,36.115 172.793,35.885 172.724,35.683 C 172.037,35.423 171.546,34.778 171.546,34.012 C 171.546,33.017 172.369,32.21 173.384,32.21 C 175.515,32.21 176.11,34.146 176.395,35.076 C 176.802,36.403 176.972,36.951 178.626,36.951 C 180.281,36.951 180.449,36.402 180.856,35.076 C 181.142,34.146 181.736,32.21 183.867,32.21 C 184.883,32.21 185.705,33.017 185.705,34.012 C 185.705,34.778 185.214,35.423 184.527,35.683 C 184.457,35.885 184.376,36.115 184.376,36.115 C 184.005,37.327 183.285,39.635 180.457,40.34 C 180.393,50.742 179.569,60.343 172.908,76.111 C 172.519,77.03 171.444,77.466 170.506,77.086 C 169.567,76.706 169.122,75.652 169.511,74.732 z" />
          <path
             id="path2801"
             d="M 172.92,135.978 C 173.775,135.442 174.912,135.687 175.459,136.526 C 178.19,140.714 181.38,144.303 184.194,147.47 C 188.747,152.593 192.723,157.082 193.409,162.397 C 196.328,163.068 197.061,165.421 197.438,166.648 C 197.479,166.78 197.526,166.936 197.572,167.069 C 198.268,167.326 198.766,167.979 198.766,168.751 C 198.766,169.747 197.943,170.553 196.929,170.553 C 194.798,170.553 194.203,168.617 193.918,167.687 C 193.511,166.36 193.342,165.812 191.688,165.812 C 190.033,165.812 189.864,166.361 189.457,167.687 C 189.171,168.617 188.577,170.553 186.446,170.553 C 185.43,170.553 184.608,169.747 184.608,168.751 C 184.608,167.979 185.107,167.326 185.803,167.069 C 185.848,166.936 185.897,166.78 185.937,166.648 C 186.303,165.457 187.001,163.206 189.708,162.46 C 189.001,158.374 185.606,154.544 181.422,149.837 C 178.525,146.576 175.239,142.881 172.36,138.467 C 171.814,137.629 172.065,136.515 172.92,135.978 z" />
          <path
             id="path2803"
             d="M 164.109,179.718 C 163.852,178.755 164.441,177.77 165.422,177.519 C 166.405,177.268 167.409,177.844 167.666,178.807 C 169.77,186.704 172.338,192.501 174.604,197.616 C 177.076,203.198 179.062,207.725 179.421,212.747 C 182.305,213.432 183.034,215.767 183.409,216.989 C 183.45,217.121 183.498,217.276 183.543,217.41 C 184.239,217.666 184.737,218.32 184.737,219.092 C 184.737,220.087 183.914,220.894 182.9,220.894 C 180.769,220.894 180.174,218.958 179.889,218.028 C 179.482,216.702 179.312,216.153 177.658,216.153 C 176.003,216.153 175.835,216.702 175.428,218.028 C 175.142,218.959 174.548,220.894 172.417,220.894 C 171.401,220.894 170.579,220.087 170.579,219.092 C 170.579,218.32 171.078,217.666 171.774,217.41 C 171.819,217.276 171.867,217.121 171.908,216.989 C 172.277,215.789 172.984,213.514 175.742,212.785 C 175.372,208.426 173.523,204.223 171.232,199.052 C 169.028,194.076 166.286,187.884 164.109,179.718 z" />
          <path
             id="path2809"
             d="M 101.186,87.592 C 87.642,84.155 87.763,78.583 86.191,74.316 C 84.619,70.049 81.354,73.368 81.354,73.368 C 75.428,71.116 73.614,77.398 73.614,77.398 C 77.847,75.62 78.935,77.398 82.805,82.614 C 86.675,87.83 91.451,88.6 100.522,92.275 L 101.186,87.592 z" />
          <path
             id="path2811"
             d="M 99.453,104.623 C 88.851,104.623 86.916,118.096 81.111,128.053 C 75.306,138.01 71.557,138.208 74.097,140.697 C 74.944,141.527 77.483,140.934 77.483,140.934 C 77.483,140.934 77.12,145.32 82.864,146.209 C 82.864,146.209 80.324,139.334 84.315,132.34 C 88.306,125.346 92.115,111.892 99.492,111.892 L 99.453,104.623 z" />
          <path
             id="path2813"
             d="M 99.493,132.637 C 90.06,132.637 86.675,144.965 86.675,159.189 C 86.675,173.413 85.304,175.784 84.014,178.787 C 82.724,181.79 84.82,184.793 86.755,182.897 C 86.755,182.897 87.883,186.532 93.044,182.897 C 93.044,182.897 89.617,181.949 90.423,176.417 C 91.23,170.885 89.819,142.751 99.493,147.335 L 99.493,132.637 z" />
          <path
             id="path2817"
             d="M 151.779,87.592 C 165.323,84.154 165.202,78.583 166.775,74.316 C 168.347,70.049 171.612,73.368 171.612,73.368 C 177.538,71.116 179.352,77.398 179.352,77.398 C 175.119,75.62 174.031,77.398 170.161,82.614 C 166.291,87.83 161.514,88.6 152.444,92.275 L 151.779,87.592 z" />
          <path
             id="path2819"
             d="M 153.512,104.623 C 164.114,104.623 166.049,118.096 171.854,128.053 C 177.659,138.01 181.408,138.208 178.868,140.697 C 178.021,141.527 175.482,140.934 175.482,140.934 C 175.482,140.934 175.845,145.32 170.101,146.209 C 170.101,146.209 172.641,139.334 168.65,132.34 C 164.659,125.346 160.85,111.892 153.473,111.892 L 153.512,104.623 z" />
          <path
             id="path2821"
             d="M 153.472,132.637 C 162.905,132.637 166.29,144.965 166.29,159.189 C 166.29,173.413 167.661,175.784 168.951,178.787 C 170.241,181.79 168.144,184.793 166.209,182.897 C 166.209,182.897 165.081,186.532 159.92,182.897 C 159.92,182.897 163.347,181.949 162.541,176.417 C 161.734,170.885 163.145,142.751 153.471,147.335 L 153.471,132.637 L 153.472,132.637 z" />
          <path
             d="M 125.314,57.975 C 120.333,54.054 114.998,51.749 110.711,49.898 C 105.356,47.585 102.151,46.072 101.244,43.486 C 105.568,42.819 107.377,39.867 107.377,33.775 C 107.377,32.779 106.554,31.973 105.539,31.973 C 104.524,31.973 103.701,32.779 103.701,33.775 C 103.701,36.898 103.245,38.459 102.395,39.244 L 102.395,33.797 C 102.395,33.011 101.746,31.973 100.944,31.973 C 100.143,31.973 99.493,33.012 99.493,33.797 L 99.493,40.03 C 99.374,40.031 99.255,40.032 99.13,40.032 C 99.006,40.032 98.887,40.031 98.767,40.03 L 98.767,33.797 C 98.767,33.011 98.118,31.973 97.316,31.973 C 96.515,31.973 95.865,33.012 95.865,33.797 L 95.865,39.244 C 95.015,38.459 94.559,36.898 94.559,33.775 C 94.559,32.779 93.736,31.973 92.721,31.973 C 91.706,31.973 90.883,32.779 90.883,33.775 C 90.883,40.068 92.821,43.006 97.461,43.54 C 98.397,48.501 103.45,50.7 109.229,53.195 C 113.531,55.053 118.408,57.159 123.012,60.784 C 123.804,61.407 124.961,61.283 125.596,60.508 C 126.232,59.732 126.106,58.598 125.314,57.975 z"
             id="path2825" />
          <path
             d="M 127.651,57.975 C 132.632,54.054 137.967,51.749 142.254,49.898 C 147.609,47.585 150.814,46.072 151.721,43.486 C 147.398,42.819 145.588,39.867 145.588,33.775 C 145.588,32.779 146.411,31.973 147.426,31.973 C 148.441,31.973 149.264,32.779 149.264,33.775 C 149.264,36.898 149.72,38.459 150.57,39.244 L 150.57,33.797 C 150.57,33.011 151.219,31.973 152.022,31.973 C 152.823,31.973 153.473,33.012 153.473,33.797 L 153.473,40.03 C 153.592,40.031 153.711,40.032 153.836,40.032 C 153.96,40.032 154.079,40.031 154.199,40.03 L 154.199,33.797 C 154.199,33.011 154.848,31.973 155.65,31.973 C 156.451,31.973 157.101,33.012 157.101,33.797 L 157.101,39.244 C 157.95,38.459 158.407,36.898 158.407,33.775 C 158.407,32.779 159.23,31.973 160.245,31.973 C 161.26,31.973 162.082,32.779 162.082,33.775 C 162.082,40.068 160.144,43.006 155.505,43.54 C 154.569,48.501 149.516,50.7 143.736,53.195 C 139.434,55.053 134.558,57.159 129.953,60.784 C 129.161,61.407 128.005,61.283 127.369,60.508 C 126.733,59.732 126.859,58.598 127.651,57.975 z"
             id="path2827" />
          <path
             id="path2831"
             d="M 155.889,106.953 C 155.889,93.134 143.758,96.99 126.483,96.99 C 109.208,96.99 97.077,93.134 97.077,106.953 C 97.077,119.837 93.914,194.041 120.279,207.984 L 120.264,207.987 C 125.97,210.875 124.293,223.649 126.484,223.649 C 128.675,223.649 126.998,210.875 132.704,207.987 L 132.689,207.984 C 159.052,194.041 155.889,119.837 155.889,106.953 z"
             style="stroke:#000000;stroke-width:3;stroke-linecap:round;stroke-linejoin:round" />
          <path
             id="path2833"
             d="M 155.889,106.953 C 155.889,93.134 143.758,96.99 126.483,96.99 C 109.208,96.99 97.077,93.134 97.077,106.953 C 97.077,113.189 96.336,133.791 98.559,154.974 C 99.989,165.889 104.133,180.256 115.272,165.88 C 124.453,154.033 126.482,136.81 126.482,128.967 C 126.482,136.81 128.511,154.033 137.692,165.88 C 148.836,180.26 152.978,165.88 154.407,154.964 C 154.407,154.963 154.407,154.962 154.407,154.961 C 156.629,133.783 155.889,113.188 155.889,106.953 z M 103.524,142.91 C 103.524,143.696 102.874,144.332 102.073,144.332 C 101.271,144.332 100.622,143.695 100.622,142.91 L 100.622,104.986 C 100.622,104.2 101.271,103.563 102.073,103.563 C 102.874,103.563 103.524,104.2 103.524,104.986 L 103.524,142.91 z M 109.806,164.09 C 109.806,164.876 109.157,165.512 108.355,165.512 C 107.553,165.512 106.904,164.875 106.904,164.09 L 106.904,107.615 C 106.904,106.83 107.553,106.193 108.355,106.193 C 109.157,106.193 109.806,106.83 109.806,107.615 L 109.806,164.09 z M 116.089,155.871 C 116.089,156.657 115.44,157.293 114.638,157.293 C 113.836,157.293 113.187,156.656 113.187,155.871 L 113.187,108.939 C 113.187,108.153 113.836,107.516 114.638,107.516 C 115.44,107.516 116.089,108.153 116.089,108.939 L 116.089,155.871 z M 122.371,140.065 C 122.371,140.851 121.722,141.488 120.92,141.488 C 120.118,141.488 119.469,140.851 119.469,140.065 L 119.469,109.565 C 119.469,108.779 120.118,108.143 120.92,108.143 C 121.722,108.143 122.371,108.78 122.371,109.565 L 122.371,140.065 z M 133.496,140.065 C 133.496,140.851 132.847,141.488 132.045,141.488 C 131.244,141.488 130.594,140.851 130.594,140.065 L 130.594,109.565 C 130.594,108.779 131.244,108.143 132.045,108.143 C 132.847,108.143 133.496,108.78 133.496,109.565 L 133.496,140.065 z M 139.778,155.871 C 139.778,156.657 139.128,157.293 138.327,157.293 C 137.525,157.293 136.876,156.656 136.876,155.871 L 136.876,108.939 C 136.876,108.153 137.525,107.516 138.327,107.516 C 139.128,107.516 139.778,108.153 139.778,108.939 L 139.778,155.871 z M 146.061,164.09 C 146.061,164.876 145.411,165.512 144.61,165.512 C 143.808,165.512 143.159,164.875 143.159,164.09 L 143.159,107.615 C 143.159,106.83 143.808,106.193 144.61,106.193 C 145.411,106.193 146.061,106.83 146.061,107.615 L 146.061,164.09 z M 152.343,142.91 C 152.343,143.696 151.694,144.332 150.892,144.332 C 150.091,144.332 149.441,143.695 149.441,142.91 L 149.441,104.986 C 149.441,104.2 150.091,103.563 150.892,103.563 C 151.694,103.563 152.343,104.2 152.343,104.986 L 152.343,142.91 z"
             style="fill:#b7502c" />
          <path
             style="fill:none;stroke:#000000;stroke-width:3;stroke-linecap:round;stroke-linejoin:round"
             d="M 155.889,106.953 C 155.889,93.134 143.758,96.99 126.483,96.99 C 109.208,96.99 97.077,93.134 97.077,106.953 C 97.077,113.189 96.336,133.791 98.559,154.974 C 99.989,165.889 104.133,180.256 115.272,165.88 C 124.453,154.033 126.482,136.81 126.482,128.967 C 126.482,136.81 128.511,154.033 137.692,165.88 C 148.836,180.26 152.978,165.88 154.407,154.964 C 154.407,154.963 154.407,154.962 154.407,154.961 C 156.629,133.783 155.889,113.188 155.889,106.953 z"
             id="path2837" />
          <line
             style="fill:none;stroke:#000000;stroke-width:3;stroke-linecap:round;stroke-linejoin:round"
             x1="126.483"
             y1="128.966"
             x2="126.483"
             y2="103.081"
             id="line2839" />
          <path
             style="stroke:#000000;stroke-width:3;stroke-linecap:round;stroke-linejoin:round"
             d="M 126.483,57.128 C 121.866,57.128 115.94,63.055 120.656,70.997 L 132.309,70.997 C 137.025,63.055 131.1,57.128 126.483,57.128 z"
             id="path2845" />
          <path
             style="stroke:#000000;stroke-width:3;stroke-linecap:round;stroke-linejoin:round"
             d="M 126.483,69.258 C 108.684,69.258 98.365,86.327 98.365,93.914 C 98.365,96.759 105.1,103.081 126.483,103.081 C 147.866,103.081 154.601,96.759 154.601,93.914 C 154.6,86.327 144.281,69.258 126.483,69.258 z"
             id="path2847" />
          <path
             id="path2851"
             d="M 141.305,187.417 C 142.379,183.788 141.949,180.475 140.346,180.019 C 138.742,179.563 136.57,182.136 135.495,185.766 C 134.42,189.396 134.85,192.708 136.454,193.164 C 138.058,193.62 140.23,191.047 141.305,187.417 z"
             style="fill:#ffffff;stroke:#000000;stroke-linecap:round;stroke-linejoin:round" />
          <path
             id="path2853"
             d="M 116.723,75.762 C 113.413,77.366 110.836,79.586 108.98,81.601 C 105.119,85.792 102.97,90.685 102.759,93.461 C 103.673,94.574 107.572,97.165 116.857,98.283 C 119.398,88.336 118.461,80.882 116.723,75.762 z"
             style="fill:#ffffff;stroke:#000000;stroke-linecap:round;stroke-linejoin:round" />
          <path
             id="path2855"
             d="M 105.525,171.643 C 108.503,186.514 112.731,195.151 117.081,200.015 C 113.419,189.397 111.951,178.675 111.459,169.947 C 109.103,171.878 107.147,172.278 105.525,171.643 z"
             style="fill:#ffffff;stroke:#000000;stroke-linecap:round;stroke-linejoin:round" />
          <path
             id="path2857"
             d="M 122.168,69.612 C 123.057,69.468 123.964,69.359 124.897,69.305 C 125.621,68.424 126.096,66.933 126.096,65.242 C 126.096,62.536 124.878,60.342 123.376,60.342 C 121.874,60.342 120.656,62.536 120.656,65.242 C 120.656,67.163 121.275,68.809 122.168,69.612 z"
             style="fill:#ffffff;stroke:#000000;stroke-linecap:round;stroke-linejoin:round" />
        </g>
        <g
           id="g3804">
          <path
             id="path2867"
             d="M 433.483,74.732 C 427.08,59.575 426.277,50.335 426.212,40.337 C 429.029,39.629 429.747,37.325 430.119,36.115 C 430.119,36.115 430.199,35.885 430.269,35.682 C 430.956,35.422 431.447,34.777 431.447,34.012 C 431.447,33.016 430.624,32.21 429.609,32.21 C 427.478,32.21 426.883,34.146 426.598,35.076 C 426.191,36.403 426.022,36.951 424.368,36.951 C 422.713,36.951 422.545,36.402 422.138,35.076 C 421.852,34.146 421.257,32.21 419.127,32.21 C 418.111,32.21 417.288,33.016 417.288,34.012 C 417.288,34.778 417.779,35.423 418.466,35.682 C 418.536,35.884 418.617,36.115 418.617,36.115 C 418.988,37.327 419.708,39.635 422.536,40.34 C 422.6,50.742 423.425,60.343 430.086,76.111 C 430.475,77.029 431.55,77.466 432.487,77.086 C 433.427,76.706 433.872,75.652 433.483,74.732 z" />
          <path
             id="path2869"
             d="M 430.074,135.978 C 429.22,135.442 428.083,135.687 427.536,136.526 C 424.805,140.714 421.615,144.303 418.801,147.47 C 414.248,152.593 410.272,157.083 409.585,162.397 C 406.666,163.068 405.934,165.42 405.557,166.648 C 405.516,166.78 405.468,166.935 405.423,167.069 C 404.727,167.325 404.229,167.979 404.229,168.751 C 404.229,169.746 405.051,170.553 406.066,170.553 C 408.198,170.553 408.793,168.617 409.078,167.687 C 409.485,166.36 409.654,165.812 411.308,165.812 C 412.963,165.812 413.131,166.361 413.538,167.687 C 413.824,168.617 414.419,170.553 416.549,170.553 C 417.565,170.553 418.388,169.746 418.388,168.751 C 418.388,167.979 417.889,167.325 417.193,167.069 C 417.148,166.935 417.099,166.78 417.059,166.648 C 416.693,165.457 415.995,163.206 413.288,162.459 C 413.994,158.373 417.39,154.543 421.573,149.837 C 424.471,146.576 427.756,142.88 430.635,138.467 C 431.18,137.629 430.93,136.515 430.074,135.978 z" />
          <path
             id="path2871"
             d="M 438.885,179.718 C 439.142,178.755 438.553,177.771 437.572,177.519 C 436.59,177.267 435.586,177.844 435.329,178.806 C 433.225,186.703 430.656,192.501 428.391,197.615 C 425.918,203.198 423.933,207.725 423.573,212.746 C 420.689,213.431 419.961,215.766 419.586,216.988 C 419.545,217.12 419.497,217.275 419.451,217.409 C 418.755,217.665 418.258,218.319 418.258,219.091 C 418.258,220.086 419.08,220.893 420.095,220.893 C 422.227,220.893 422.821,218.957 423.107,218.026 C 423.514,216.7 423.683,216.151 425.337,216.151 C 426.992,216.151 427.16,216.7 427.567,218.026 C 427.853,218.957 428.448,220.893 430.578,220.893 C 431.594,220.893 432.417,220.086 432.417,219.091 C 432.417,218.319 431.918,217.665 431.222,217.409 C 431.177,217.275 431.128,217.12 431.088,216.988 C 430.719,215.788 430.012,213.513 427.254,212.784 C 427.624,208.425 429.473,204.222 431.764,199.051 C 433.966,194.076 436.708,187.885 438.885,179.718 z" />
          <path
             id="path2875"
             d="M 519.54,74.732 C 525.943,59.575 526.746,50.335 526.811,40.337 C 523.994,39.629 523.276,37.325 522.904,36.115 C 522.904,36.115 522.824,35.885 522.754,35.682 C 522.067,35.422 521.576,34.777 521.576,34.012 C 521.576,33.016 522.399,32.21 523.414,32.21 C 525.545,32.21 526.14,34.146 526.425,35.076 C 526.832,36.403 527.001,36.951 528.655,36.951 C 530.31,36.951 530.478,36.402 530.885,35.076 C 531.171,34.146 531.766,32.21 533.897,32.21 C 534.913,32.21 535.735,33.016 535.735,34.012 C 535.735,34.778 535.244,35.423 534.557,35.682 C 534.487,35.884 534.406,36.115 534.406,36.115 C 534.035,37.327 533.315,39.635 530.487,40.34 C 530.423,50.742 529.598,60.343 522.937,76.111 C 522.548,77.029 521.473,77.466 520.536,77.086 C 519.597,76.706 519.151,75.652 519.54,74.732 z" />
          <path
             id="path2877"
             d="M 522.949,135.978 C 523.803,135.442 524.94,135.687 525.487,136.526 C 528.218,140.714 531.408,144.303 534.222,147.47 C 538.775,152.593 542.751,157.083 543.438,162.397 C 546.357,163.068 547.089,165.42 547.466,166.648 C 547.507,166.78 547.555,166.935 547.6,167.069 C 548.296,167.325 548.794,167.979 548.794,168.751 C 548.794,169.746 547.972,170.553 546.957,170.553 C 544.825,170.553 544.23,168.617 543.945,167.687 C 543.538,166.36 543.369,165.812 541.715,165.812 C 540.06,165.812 539.892,166.361 539.485,167.687 C 539.199,168.617 538.604,170.553 536.474,170.553 C 535.458,170.553 534.635,169.746 534.635,168.751 C 534.635,167.979 535.134,167.325 535.83,167.069 C 535.875,166.935 535.924,166.78 535.964,166.648 C 536.33,165.457 537.028,163.206 539.735,162.459 C 539.029,158.373 535.633,154.543 531.45,149.837 C 528.552,146.576 525.267,142.88 522.388,138.467 C 521.844,137.629 522.094,136.515 522.949,135.978 z" />
          <path
             id="path2879"
             d="M 514.139,179.718 C 513.882,178.755 514.471,177.771 515.452,177.519 C 516.434,177.267 517.438,177.844 517.695,178.806 C 519.799,186.703 522.368,192.501 524.633,197.615 C 527.106,203.198 529.091,207.725 529.451,212.746 C 532.335,213.431 533.063,215.766 533.438,216.988 C 533.479,217.12 533.527,217.275 533.573,217.409 C 534.269,217.665 534.767,218.319 534.767,219.091 C 534.767,220.086 533.944,220.893 532.929,220.893 C 530.797,220.893 530.203,218.957 529.917,218.026 C 529.511,216.7 529.341,216.151 527.687,216.151 C 526.032,216.151 525.864,216.7 525.457,218.026 C 525.171,218.957 524.576,220.893 522.446,220.893 C 521.43,220.893 520.607,220.086 520.607,219.091 C 520.607,218.319 521.106,217.665 521.802,217.409 C 521.847,217.275 521.896,217.12 521.936,216.988 C 522.305,215.788 523.012,213.513 525.77,212.784 C 525.4,208.425 523.551,204.222 521.26,199.051 C 519.058,194.076 516.316,187.885 514.139,179.718 z" />
          <path
             id="path2885"
             d="M 451.215,87.592 C 437.671,84.154 437.792,78.583 436.22,74.315 C 434.648,70.048 431.382,73.367 431.382,73.367 C 425.457,71.115 423.643,77.397 423.643,77.397 C 427.875,75.619 428.964,77.397 432.833,82.613 C 436.703,87.828 441.48,88.599 450.55,92.274 L 451.215,87.592 z" />
          <path
             id="path2887"
             d="M 449.483,104.622 C 438.88,104.622 436.946,118.095 431.141,128.053 C 425.336,138.01 421.587,138.208 424.126,140.697 C 424.973,141.527 427.513,140.934 427.513,140.934 C 427.513,140.934 427.15,145.32 432.894,146.209 C 432.894,146.209 430.355,139.334 434.345,132.339 C 438.336,125.345 442.146,111.891 449.523,111.891 L 449.483,104.622 z" />
          <path
             id="path2889"
             d="M 449.523,132.637 C 440.09,132.637 436.704,144.965 436.704,159.19 C 436.704,173.415 435.333,175.785 434.044,178.788 C 432.754,181.792 434.851,184.795 436.785,182.898 C 436.785,182.898 437.914,186.533 443.074,182.898 C 443.074,182.898 439.647,181.95 440.453,176.419 C 441.26,170.887 439.849,142.753 449.523,147.337 L 449.523,132.637 L 449.523,132.637 z" />
          <path
             id="path2893"
             d="M 501.809,87.592 C 515.353,84.154 515.232,78.583 516.804,74.315 C 518.376,70.048 521.642,73.367 521.642,73.367 C 527.567,71.115 529.381,77.397 529.381,77.397 C 525.149,75.619 524.06,77.397 520.191,82.613 C 516.321,87.828 511.544,88.599 502.474,92.274 L 501.809,87.592 z" />
          <path
             id="path2895"
             d="M 503.541,104.622 C 514.144,104.622 516.078,118.095 521.883,128.053 C 527.688,138.01 531.437,138.208 528.898,140.697 C 528.051,141.527 525.511,140.934 525.511,140.934 C 525.511,140.934 525.874,145.32 520.13,146.209 C 520.13,146.209 522.669,139.334 518.679,132.339 C 514.688,125.345 510.878,111.891 503.501,111.891 L 503.541,104.622 z" />
          <path
             id="path2897"
             d="M 503.501,132.637 C 512.934,132.637 516.32,144.965 516.32,159.19 C 516.32,173.415 517.691,175.785 518.98,178.788 C 520.27,181.792 518.173,184.795 516.239,182.898 C 516.239,182.898 515.111,186.533 509.95,182.898 C 509.95,182.898 513.377,181.95 512.571,176.419 C 511.764,170.887 513.175,142.753 503.501,147.337 L 503.501,132.637 L 503.501,132.637 z" />
          <path
             d="M 475.343,57.975 C 470.363,54.053 465.028,51.749 460.74,49.898 C 455.386,47.585 452.18,46.073 451.273,43.486 C 455.596,42.819 457.407,39.867 457.407,33.775 C 457.407,32.779 456.584,31.973 455.568,31.973 C 454.553,31.973 453.731,32.779 453.731,33.775 C 453.731,36.898 453.274,38.459 452.424,39.244 L 452.424,33.797 C 452.424,33.011 451.775,31.973 450.973,31.973 C 450.171,31.973 449.522,33.012 449.522,33.797 L 449.522,40.03 C 449.403,40.031 449.284,40.033 449.159,40.033 C 449.035,40.033 448.916,40.032 448.797,40.03 L 448.797,33.797 C 448.797,33.011 448.148,31.973 447.346,31.973 C 446.544,31.973 445.895,33.012 445.895,33.797 L 445.895,39.244 C 445.045,38.459 444.589,36.898 444.589,33.775 C 444.589,32.779 443.766,31.973 442.75,31.973 C 441.735,31.973 440.912,32.779 440.912,33.775 C 440.912,40.068 442.85,43.006 447.49,43.54 C 448.425,48.501 453.478,50.7 459.258,53.195 C 463.561,55.053 468.437,57.159 473.042,60.784 C 473.833,61.407 474.989,61.283 475.626,60.508 C 476.262,59.732 476.135,58.598 475.343,57.975 z"
             id="path2901" />
          <path
             d="M 477.681,57.975 C 482.661,54.053 487.996,51.749 492.284,49.898 C 497.638,47.585 500.844,46.073 501.751,43.486 C 497.428,42.819 495.617,39.867 495.617,33.775 C 495.617,32.779 496.44,31.973 497.456,31.973 C 498.471,31.973 499.293,32.779 499.293,33.775 C 499.293,36.898 499.75,38.459 500.6,39.244 L 500.6,33.797 C 500.6,33.011 501.249,31.973 502.051,31.973 C 502.853,31.973 503.502,33.012 503.502,33.797 L 503.502,40.03 C 503.621,40.031 503.74,40.033 503.865,40.033 C 503.989,40.033 504.108,40.032 504.227,40.03 L 504.227,33.797 C 504.227,33.011 504.876,31.973 505.678,31.973 C 506.48,31.973 507.129,33.012 507.129,33.797 L 507.129,39.244 C 507.979,38.459 508.435,36.898 508.435,33.775 C 508.435,32.779 509.258,31.973 510.274,31.973 C 511.289,31.973 512.112,32.779 512.112,33.775 C 512.112,40.068 510.174,43.006 505.534,43.54 C 504.599,48.501 499.546,50.7 493.766,53.195 C 489.463,55.053 484.587,57.159 479.983,60.784 C 479.191,61.407 478.035,61.283 477.399,60.508 C 476.762,59.732 476.889,58.598 477.681,57.975 z"
             id="path2903" />
          <path
             id="path2907"
             d="M 505.918,106.953 C 505.918,93.134 493.787,96.99 476.512,96.99 C 459.238,96.99 447.106,93.134 447.106,106.953 C 447.106,119.837 443.943,194.041 470.308,207.984 L 470.292,207.987 C 475.998,210.875 474.32,223.649 476.512,223.649 C 478.704,223.649 477.026,210.875 482.732,207.987 L 482.716,207.984 C 509.081,194.041 505.918,119.837 505.918,106.953 z"
             style="stroke:#000000;stroke-width:3;stroke-linecap:round;stroke-linejoin:round" />
          <path
             id="path2909"
             d="M 505.918,106.953 C 505.918,93.134 493.787,96.99 476.512,96.99 C 459.238,96.99 447.106,93.134 447.106,106.953 C 447.106,113.188 446.365,133.791 448.588,154.974 C 450.019,165.889 454.162,180.256 465.302,165.88 C 474.483,154.033 476.512,136.809 476.512,128.966 C 476.512,136.809 478.541,154.032 487.722,165.88 C 498.866,180.26 503.007,165.88 504.437,154.964 C 504.437,154.963 504.437,154.962 504.437,154.961 C 506.659,133.783 505.918,113.188 505.918,106.953 z M 453.554,142.91 C 453.554,143.696 452.904,144.332 452.103,144.332 C 451.3,144.332 450.652,143.695 450.652,142.91 L 450.652,104.986 C 450.652,104.2 451.3,103.563 452.103,103.563 C 452.904,103.563 453.554,104.2 453.554,104.986 L 453.554,142.91 z M 459.835,164.09 C 459.835,164.876 459.187,165.512 458.384,165.512 C 457.583,165.512 456.933,164.875 456.933,164.09 L 456.933,107.615 C 456.933,106.83 457.583,106.193 458.384,106.193 C 459.187,106.193 459.835,106.83 459.835,107.615 L 459.835,164.09 z M 466.118,155.871 C 466.118,156.657 465.469,157.293 464.667,157.293 C 463.866,157.293 463.216,156.656 463.216,155.871 L 463.216,108.939 C 463.216,108.153 463.866,107.516 464.667,107.516 C 465.469,107.516 466.118,108.153 466.118,108.939 L 466.118,155.871 z M 472.401,140.065 C 472.401,140.851 471.751,141.488 470.95,141.488 C 470.147,141.488 469.499,140.851 469.499,140.065 L 469.499,109.565 C 469.499,108.779 470.147,108.143 470.95,108.143 C 471.751,108.143 472.401,108.78 472.401,109.565 L 472.401,140.065 z M 483.525,140.065 C 483.525,140.851 482.877,141.488 482.074,141.488 C 481.273,141.488 480.623,140.851 480.623,140.065 L 480.623,109.565 C 480.623,108.779 481.273,108.143 482.074,108.143 C 482.877,108.143 483.525,108.78 483.525,109.565 L 483.525,140.065 z M 489.808,155.871 C 489.808,156.657 489.158,157.293 488.357,157.293 C 487.555,157.293 486.906,156.656 486.906,155.871 L 486.906,108.939 C 486.906,108.153 487.555,107.516 488.357,107.516 C 489.158,107.516 489.808,108.153 489.808,108.939 L 489.808,155.871 z M 496.091,164.09 C 496.091,164.876 495.441,165.512 494.64,165.512 C 493.837,165.512 493.189,164.875 493.189,164.09 L 493.189,107.615 C 493.189,106.83 493.837,106.193 494.64,106.193 C 495.441,106.193 496.091,106.83 496.091,107.615 L 496.091,164.09 z M 502.372,142.91 C 502.372,143.696 501.724,144.332 500.921,144.332 C 500.12,144.332 499.47,143.695 499.47,142.91 L 499.47,104.986 C 499.47,104.2 500.12,103.563 500.921,103.563 C 501.724,103.563 502.372,104.2 502.372,104.986 L 502.372,142.91 z"
             style="fill:#b7502c" />
          <path
             style="fill:none;stroke:#000000;stroke-width:3;stroke-linecap:round;stroke-linejoin:round"
             d="M 505.918,106.953 C 505.918,93.134 493.787,96.99 476.512,96.99 C 459.238,96.99 447.106,93.134 447.106,106.953 C 447.106,113.188 446.365,133.791 448.588,154.974 C 450.019,165.889 454.162,180.256 465.302,165.88 C 474.483,154.033 476.512,136.809 476.512,128.966 C 476.512,136.809 478.541,154.032 487.722,165.88 C 498.866,180.26 503.007,165.88 504.437,154.964 C 504.437,154.963 504.437,154.962 504.437,154.961 C 506.659,133.783 505.918,113.188 505.918,106.953 z"
             id="path2913" />
          <line
             style="fill:none;stroke:#000000;stroke-width:3;stroke-linecap:round;stroke-linejoin:round"
             x1="476.51199"
             y1="128.966"
             x2="476.51199"
             y2="103.081"
             id="line2915" />
          <path
             style="stroke:#000000;stroke-width:3;stroke-linecap:round;stroke-linejoin:round"
             d="M 476.512,57.127 C 471.895,57.127 465.969,63.054 470.686,70.996 L 482.338,70.996 C 487.055,63.055 481.129,57.127 476.512,57.127 z"
             id="path2921" />
          <path
             style="stroke:#000000;stroke-width:3;stroke-linecap:round;stroke-linejoin:round"
             d="M 476.512,69.258 C 458.713,69.258 448.395,86.327 448.395,93.914 C 448.395,96.759 455.129,103.081 476.512,103.081 C 497.895,103.081 504.63,96.759 504.63,93.914 C 504.63,86.327 494.311,69.258 476.512,69.258 z"
             id="path2923" />
          <path
             id="path2927"
             d="M 491.334,187.417 C 492.408,183.788 491.979,180.475 490.375,180.019 C 488.772,179.563 486.6,182.136 485.525,185.767 C 484.45,189.398 484.88,192.709 486.484,193.165 C 488.087,193.621 490.26,191.048 491.334,187.417 z"
             style="fill:#ffffff;stroke:#000000;stroke-linecap:round;stroke-linejoin:round" />
          <path
             id="path2929"
             d="M 466.752,75.762 C 463.442,77.366 460.865,79.586 459.01,81.6 C 455.149,85.791 453,90.684 452.789,93.46 C 453.703,94.573 457.602,97.164 466.887,98.282 C 469.428,88.336 468.49,80.882 466.752,75.762 z"
             style="fill:#ffffff;stroke:#000000;stroke-linecap:round;stroke-linejoin:round" />
          <path
             id="path2931"
             d="M 455.554,171.643 C 458.532,186.514 462.761,195.151 467.11,200.016 C 463.448,189.398 461.98,178.676 461.489,169.948 C 459.133,171.878 457.177,172.278 455.554,171.643 z"
             style="fill:#ffffff;stroke:#000000;stroke-linecap:round;stroke-linejoin:round" />
          <path
             id="path2933"
             d="M 472.198,69.612 C 473.087,69.468 473.994,69.36 474.927,69.305 C 475.651,68.424 476.125,66.934 476.125,65.242 C 476.125,62.536 474.907,60.343 473.405,60.343 C 471.903,60.343 470.685,62.537 470.685,65.242 C 470.686,67.163 471.305,68.809 472.198,69.612 z"
             style="fill:#ffffff;stroke:#000000;stroke-linecap:round;stroke-linejoin:round" />
        </g>
      </g>
    </g>
  </g>
  <g
     inkscape:groupmode="layer"
     id="layer3"
     inkscape:label="Reflet final"
     style="display:inline"
     sodipodi:insensitive="true">
    <path
       style="fill:url(#radialGradient3236);fill-opacity:1"
       d="M 1.5,1.5 L 1.5,460.3679 C 1.5,626.67854 135.81454,761.5 301.49993,761.5 C 467.1854,761.5 601.5,626.67854 601.5,460.3679 L 601.5,1.5 L 1.5,1.5 z "
       id="path2346" />
  </g>
  <g
     inkscape:groupmode="layer"
     id="layer4"
     inkscape:label="Contour final"
     style="display:inline"
     sodipodi:insensitive="true">
    <path
       style="fill:none;fill-opacity:1;stroke:#000000;stroke-width:3;stroke-miterlimit:4;stroke-dasharray:none;stroke-opacity:1"
       d="M 1.5,1.5 L 1.5,460.36794 C 1.5,626.67854 135.81454,761.5 301.49993,761.5 C 467.1854,761.5 601.5,626.67854 601.5,460.36794 L 601.5,1.5 L 1.5,1.5 z "
       id="path3239" />
  </g>
</svg>
