<?xml version="1.0" encoding="UTF-8" standalone="no"?>
<svg
   xmlns:dc="http://purl.org/dc/elements/1.1/"
   xmlns:cc="http://creativecommons.org/ns#"
   xmlns:rdf="http://www.w3.org/1999/02/22-rdf-syntax-ns#"
   xmlns:svg="http://www.w3.org/2000/svg"
   xmlns="http://www.w3.org/2000/svg"
   xmlns:xlink="http://www.w3.org/1999/xlink"
   xmlns:sodipodi="http://sodipodi.sourceforge.net/DTD/sodipodi-0.dtd"
   xmlns:inkscape="http://www.inkscape.org/namespaces/inkscape"
   height="763"
   width="603"
   version="1.0"
   id="svg20"
   sodipodi:version="0.32"
   inkscape:version="0.46"
   sodipodi:docname="Epalinges-coat_of_arms.svg"
   sodipodi:docbase="C:\Documents and Settings\Steve\Bureau\Blason Villages Suisse pour Wikipédia (par Delta-9)"
   inkscape:output_extension="org.inkscape.output.svg.inkscape">
  <metadata
     id="metadata31">
    <rdf:RDF>
      <cc:Work
         rdf:about="">
        <dc:format>image/svg+xml</dc:format>
        <dc:type
           rdf:resource="http://purl.org/dc/dcmitype/StillImage" />
        <dc:date>07-AUG-2006</dc:date>
        <dc:creator>
          <cc:Agent>
            <dc:title>Jérôme BLUM (wagner51)</dc:title>
          </cc:Agent>
        </dc:creator>
        <cc:license
           rdf:resource="http://creativecommons.org/licenses/GPL/2.0/" />
        <dc:coverage />
        <dc:description>Gabarit pour le Projet:Blasons de WIkipédia</dc:description>
        <dc:subject>
          <rdf:Bag>
            <rdf:li>blason suisse modèle gabarit projet blasons</rdf:li>
          </rdf:Bag>
        </dc:subject>
        <dc:language>fr</dc:language>
        <dc:title>Gabrit d'un blason suisse</dc:title>
      </cc:Work>
      <cc:License
         rdf:about="http://creativecommons.org/licenses/GPL/2.0/">
        <cc:permits
           rdf:resource="http://web.resource.org/cc/Reproduction" />
        <cc:permits
           rdf:resource="http://web.resource.org/cc/Distribution" />
        <cc:requires
           rdf:resource="http://web.resource.org/cc/Notice" />
        <cc:permits
           rdf:resource="http://web.resource.org/cc/DerivativeWorks" />
        <cc:requires
           rdf:resource="http://web.resource.org/cc/ShareAlike" />
        <cc:requires
           rdf:resource="http://web.resource.org/cc/SourceCode" />
      </cc:License>
    </rdf:RDF>
  </metadata>
  <defs
     id="defs29"><inkscape:perspective
   sodipodi:type="inkscape:persp3d"
   inkscape:vp_x="0 : 381.5 : 1"
   inkscape:vp_y="0 : 1000 : 0"
   inkscape:vp_z="603 : 381.5 : 1"
   inkscape:persp3d-origin="301.5 : 254.33333 : 1"
   id="perspective28" />
<linearGradient
   id="linearGradient2893">
  <stop
     style="stop-color:#ffffff;stop-opacity:0.3137255;"
     offset="0"
     id="stop2895" />
  <stop
     id="stop2897"
     offset="0.19"
     style="stop-color:#ffffff;stop-opacity:0.25098041;" />
  <stop
     style="stop-color:#6b6b6b;stop-opacity:0.1254902;"
     offset="0.60000002"
     id="stop2901" />
  <stop
     style="stop-color:#000000;stop-opacity:0.1254902;"
     offset="1"
     id="stop2899" />
</linearGradient>
<linearGradient
   id="linearGradient2955">
  <stop
     style="stop-color:white;stop-opacity:0;"
     offset="0"
     id="stop2965" />
  <stop
     style="stop-color:black;stop-opacity:0.64583331;"
     offset="1"
     id="stop2959" />
</linearGradient>
<radialGradient
   inkscape:collect="always"
   xlink:href="#linearGradient2893"
   id="radialGradient3236"
   gradientUnits="userSpaceOnUse"
   gradientTransform="matrix(1.215027,1.531577e-24,1.464684e-23,1.266667,-839.1924,-490.4894)"
   cx="858.04236"
   cy="579.93323"
   fx="858.04236"
   fy="579.93323"
   r="300" />
<inkscape:perspective
   id="perspective2589"
   inkscape:persp3d-origin="297.63751 : 280.63 : 1"
   inkscape:vp_z="595.27502 : 420.94501 : 1"
   inkscape:vp_y="0 : 1000 : 0"
   inkscape:vp_x="0 : 420.94501 : 1"
   sodipodi:type="inkscape:persp3d" />

	
		
	

	
	

		
		
		
		
		
	
			
				
			
				
			
		
			
			
			
			
			
			
			
			
			
			
			
		
			
			
			
		
			
			
		
			
			
		</defs>
  <sodipodi:namedview
     inkscape:window-height="968"
     inkscape:window-width="1280"
     inkscape:pageshadow="2"
     inkscape:pageopacity="0.0"
     guidetolerance="10.0"
     gridtolerance="10.0"
     objecttolerance="10.0"
     borderopacity="1.0"
     bordercolor="#666666"
     pagecolor="#ffffff"
     id="base"
     inkscape:zoom="0.92652193"
     inkscape:cx="173.53758"
     inkscape:cy="399.00713"
     inkscape:window-x="1280"
     inkscape:window-y="22"
     inkscape:current-layer="layer1"
     showgrid="false"
     showguides="true"
     inkscape:guide-bbox="true">
    <sodipodi:guide
       orientation="horizontal"
       position="761.5"
       id="guide1885" />
    <sodipodi:guide
       orientation="vertical"
       position="1.5"
       id="guide1887" />
    <sodipodi:guide
       orientation="horizontal"
       position="1.5"
       id="guide1889" />
    <sodipodi:guide
       orientation="vertical"
       position="601.5"
       id="guide1891" />
    <sodipodi:guide
       orientation="vertical"
       position="301.50081"
       id="guide1893" />
  </sodipodi:namedview>
  <desc
     id="desc22">Coat of Arms of Canton of Freiburg (Fribourg)</desc>
  <g
     inkscape:groupmode="layer"
     id="layer1"
     inkscape:label="Fond écu"
     style="opacity:1;display:inline"
     sodipodi:insensitive="true">
    <path
       id="path1899"
       d="M 1.5,1.49998 L 1.5,460.3679 C 1.5,626.6785 135.81456,761.5 301.49999,761.5 C 467.18543,761.5 601.5,626.6785 601.5,460.3679 L 601.5,1.49998 L 1.5,1.49998 z"
       style="fill:#e20909;fill-opacity:1" />
    <rect
       height="365.5"
       width="600"
       y="1.5"
       x="1.5"
       id="rect2505"
       style="opacity:1;fill:#ffffff;display:inline" />
  </g>
  <g
     inkscape:groupmode="layer"
     id="layer2"
     inkscape:label="Meubles"
     style="opacity:1;display:inline"
     sodipodi:insensitive="true">
    <line
       y2="367.00003"
       x2="601.49896"
       y1="367.00003"
       x1="1.5"
       stroke-miterlimit="11"
       id="line2465"
       style="fill:#ffffff;stroke:#000000;stroke-width:3;stroke-miterlimit:11" />
    <g
       id="g2738">
      <path
         style="stroke:#000000;stroke-width:3;stroke-linecap:round;stroke-linejoin:round"
         d="M 268.862,520.978 C 269.943,529.804 271.745,545.297 267.241,548.18 C 262.737,551.062 237.876,550.882 221.662,549.441 C 206.545,548.097 196.439,547.38 188.863,553.57 C 188.314,554.018 188.312,554.836 189.956,554.664 C 194.888,554.148 205.089,553.81 207.791,559.35 C 210.493,564.89 202.758,571.242 198.721,574.07 C 197.376,575.012 197.633,575.233 199.545,574.933 C 207.1,573.746 225.899,573.05 226.849,595.221 C 226.873,595.8 227.461,596.336 228.494,595.221 C 231.826,591.619 239.926,583.322 248.866,577.545 C 260.575,569.98 266.521,558.629 277.51,557.549 C 281.193,557.187 285.198,557.876 287.586,558.171 C 288.647,558.3 288.846,557.766 288.077,556.89 C 286.381,554.957 283.206,551.644 280.267,550.261 C 277.97,549.18 280.46,538.227 278.906,523.77 L 268.862,520.978 z"
         id="path2534" />
      <path
         style="stroke:#000000;stroke-width:3;stroke-linecap:round;stroke-linejoin:round"
         d="M 332.85,588.204 C 325.947,587.516 317.864,567.81 313.541,549.621 L 304.894,548.9 C 308.136,565.833 313.251,584.573 306.177,589.255 C 301.672,591.346 299.748,594.836 289.985,598.486 C 275.538,603.888 253.731,606.837 247.483,623.083 C 247.012,624.31 247.295,625.889 248.968,624.565 C 252.718,621.599 260.093,617.542 268.502,622.401 C 277.501,627.599 277.473,637.831 276.85,642.799 C 276.632,644.544 277.036,645.073 278.28,644.227 C 284.761,639.817 306.119,627.775 321.445,648.262 C 322.093,649.129 323.197,649.8 322.995,647.676 C 322.174,639.019 320.697,615.75 326.872,602.674 C 331.467,592.945 342.275,589.702 342.275,589.702 C 342.275,589.702 338.38,588.89 332.85,588.204 z"
         id="path2536" />
      <path
         d="M 498.376,462.607 C 493.15,460.627 478.919,461.346 467.751,464.949 C 458.848,467.82 451.905,471.258 449.449,472.537 C 458.44,467.178 456.761,450.357 456.761,450.357 C 444.871,466.929 426.856,463.328 426.856,463.328 C 434.601,460.626 436.585,448.556 436.585,448.556 C 423.974,453.961 411.004,448.556 401.275,423.334 C 391.546,398.113 363.803,339.744 343.986,313.441 C 324.436,287.495 299.982,264.004 274.161,248.501 C 273.232,247.867 272.96,246.959 272.893,246.505 C 269.836,225.59 269.588,204.262 282.284,187.336 C 295.255,170.041 300.93,151.396 300.93,129.507 C 300.93,116.266 296.606,109.24 296.606,109.24 C 305.253,114.105 312.819,109.24 312.819,109.24 C 296.336,107.078 292.552,74.651 261.476,74.651 C 230.4,74.651 208.241,104.106 208.241,104.106 C 158.519,108.97 153.926,128.967 153.926,128.967 C 176.117,123.166 206.715,124.137 217.8,124.736 C 204.368,144.371 166.357,154.549 166.357,154.549 C 192.299,161.755 230.851,144.461 230.851,144.461 C 230.851,144.461 236.976,156.351 235.535,168.961 C 228.956,226.523 205.45,228.951 184.372,250.029 C 163.293,271.107 144.379,301.553 144.379,339.025 C 144.379,388.386 205.945,464.995 229.05,488.1 C 238.405,497.455 251.086,508.893 264.782,519.194 C 266.29,525.978 268.142,530.167 276.97,530.167 C 278.27,530.167 279.461,530.174 280.568,530.172 C 286.18,533.74 291.815,536.941 297.33,539.566 C 298.972,547.5 300.284,552.506 309.938,552.506 C 319.554,552.506 323.652,552.921 325.854,546.986 C 378.245,546.477 424.967,517.898 455.23,495.937 C 485.766,473.777 486.307,466.93 498.376,462.607 z"
         id="path2540" />
      <path
         style="fill:#e20909"
         d="M 153.926,128.966 C 176.117,123.165 206.715,124.136 217.8,124.735 C 204.368,144.37 166.357,154.548 166.357,154.548 C 192.299,161.754 230.851,144.46 230.851,144.46 C 226.525,130.702 222.023,125.003 222.023,125.003 C 222.023,115.274 208.242,104.105 208.242,104.105 C 158.52,108.969 153.926,128.966 153.926,128.966 z"
         id="path2542" />
      <path
         style="fill:none;stroke:#000000;stroke-width:3;stroke-linecap:round;stroke-linejoin:round"
         d="M 230.85,144.459 C 226.524,130.701 222.022,125.002 222.022,125.002 C 222.022,115.273 208.241,104.104 208.241,104.104"
         id="path2546" />
      <path
         style="fill:none;stroke:#000000;stroke-width:3;stroke-linecap:round;stroke-linejoin:round"
         d="M 222.023,125.003 C 222.023,125.003 220.483,124.879 217.8,124.734"
         id="path2548" />
      <path
         style="fill:none;stroke:#000000;stroke-width:3;stroke-linecap:round;stroke-linejoin:round"
         d="M 498.376,462.607 C 493.15,460.627 478.919,461.346 467.751,464.949 C 458.848,467.82 451.905,471.258 449.449,472.537 C 458.44,467.178 456.761,450.357 456.761,450.357 C 444.871,466.929 426.856,463.328 426.856,463.328 C 434.601,460.626 436.585,448.556 436.585,448.556 C 423.974,453.961 411.004,448.556 401.275,423.334 C 391.546,398.113 363.803,339.744 343.986,313.441 C 324.436,287.495 299.982,264.004 274.161,248.501 C 273.232,247.867 272.96,246.959 272.893,246.505 C 269.836,225.59 269.588,204.262 282.284,187.336 C 295.255,170.041 300.93,151.396 300.93,129.507 C 300.93,116.266 296.606,109.24 296.606,109.24 C 305.253,114.105 312.819,109.24 312.819,109.24 C 296.336,107.078 292.552,74.651 261.476,74.651 C 230.4,74.651 208.241,104.106 208.241,104.106 C 158.519,108.97 153.926,128.967 153.926,128.967 C 176.117,123.166 206.715,124.137 217.8,124.736 C 204.368,144.371 166.357,154.549 166.357,154.549 C 192.299,161.755 230.851,144.461 230.851,144.461 C 230.851,144.461 236.976,156.351 235.535,168.961 C 228.956,226.523 205.45,228.951 184.372,250.029 C 163.293,271.107 144.379,301.553 144.379,339.025 C 144.379,388.386 205.945,464.995 229.05,488.1 C 238.405,497.455 251.086,508.893 264.782,519.194 C 266.29,525.978 268.142,530.167 276.97,530.167 C 278.27,530.167 279.461,530.174 280.568,530.172 C 286.18,533.74 291.815,536.941 297.33,539.566 C 298.972,547.5 300.284,552.506 309.938,552.506 C 319.554,552.506 323.652,552.921 325.854,546.986 C 378.245,546.477 424.967,517.898 455.23,495.937 C 485.766,473.777 486.307,466.93 498.376,462.607 z"
         id="path2550" />
      <path
         style="fill:none;stroke:#ffffff;stroke-width:3.5;stroke-linecap:round;stroke-linejoin:round"
         d="M 407.94,444.051 C 354.076,423.852 332.704,377.578 306.513,340.103 C 286.455,311.401 260.238,287.319 234.454,287.319 C 214.457,287.319 203.108,302.992 203.108,316.504 C 203.108,335.42 223.579,382.547 268.503,419.191 C 315.972,457.909 386.121,480.737 417.128,467.292"
         id="path2554" />
      <path
         style="fill:none;stroke:#ffffff;stroke-width:3.5;stroke-linecap:round;stroke-linejoin:round"
         d="M 206.593,334.137 C 215.401,354.682 247.785,357.399 257.874,342.987 C 270.484,355.597 300.383,352.201 300.383,331.741"
         id="path2556" />
      <path
         style="fill:none;stroke:#ffffff;stroke-width:3.5;stroke-linecap:round;stroke-linejoin:round"
         d="M 217.08,357.838 C 227.969,378.383 261.117,384.061 272.646,364.604 C 287.34,382.547 322.174,378.368 318.227,357.64"
         id="path2558" />
      <path
         style="fill:none;stroke:#ffffff;stroke-width:3.5;stroke-linecap:round;stroke-linejoin:round"
         d="M 241.142,392.484 C 253.852,406.077 275.529,411.804 287.779,392.708 C 305.975,410.904 338.935,406.616 334.796,382.547"
         id="path2560" />
      <path
         style="fill:none;stroke:#ffffff;stroke-width:3.5;stroke-linecap:round;stroke-linejoin:round"
         d="M 278.702,427.019 C 295.425,438.097 306.334,427.837 310.928,418.109 C 328.899,436.08 364.186,422.413 351.743,404.317"
         id="path2562" />
      <path
         style="fill:none;stroke:#ffffff;stroke-width:3.5;stroke-linecap:round;stroke-linejoin:round"
         d="M 284.851,627.671 C 292.687,617.942 304.916,612.47 312.414,601.594"
         id="path2564" />
      <path
         style="fill:none;stroke:#ffffff;stroke-width:3.5;stroke-linecap:round;stroke-linejoin:round"
         d="M 269.403,612.853 C 269.403,612.853 277.329,612.494 280.572,619.88"
         id="path2566" />
      <path
         style="fill:none;stroke:#ffffff;stroke-width:3.5;stroke-linecap:round;stroke-linejoin:round"
         d="M 295.704,629.068 C 295.704,629.068 306.515,623.483 312.279,631.589"
         id="path2568" />
      <path
         style="fill:none;stroke:#ffffff;stroke-width:3.5;stroke-linecap:round;stroke-linejoin:round"
         d="M 219.591,568.897 C 231.751,566.735 246.614,560.25 249.451,560.25"
         id="path2570" />
      <path
         style="fill:none;stroke:#ffffff;stroke-width:3.5;stroke-linecap:round;stroke-linejoin:round"
         d="M 213.916,554.485 C 213.916,554.485 222.204,557.368 216.979,564.934"
         id="path2572" />
      <path
         style="fill:none;stroke:#ffffff;stroke-width:3.5;stroke-linecap:round;stroke-linejoin:round"
         d="M 225.987,572.861 C 225.987,572.861 232.517,574.367 231.571,583.67"
         id="path2574" />
      <ellipse
         style="fill:#ffffff;stroke:#ffffff;stroke-width:8;stroke-linecap:round;stroke-linejoin:round"
         sodipodi:ry="2.589"
         sodipodi:rx="2.4619999"
         sodipodi:cy="104.911"
         sodipodi:cx="247.283"
         transform="matrix(0.9724,-0.2334,0.2334,0.9724,-17.692504,60.5559)"
         cx="247.283"
         cy="104.911"
         rx="2.4619999"
         ry="2.589"
         id="ellipse2578" />
      <ellipse
         style="stroke:#000000;stroke-width:3;stroke-linecap:round;stroke-linejoin:round"
         sodipodi:ry="2.589"
         sodipodi:rx="2.4619999"
         sodipodi:cy="104.911"
         sodipodi:cx="247.283"
         transform="matrix(0.9724,-0.2334,0.2334,0.9724,-17.692504,60.5559)"
         cx="247.283"
         cy="104.911"
         rx="2.4619999"
         ry="2.589"
         id="ellipse2580" />
      <circle
         transform="translate(-3.8003567e-2,-4.5000331e-2)"
         style="fill:#ffffff"
         sodipodi:ry="0.898"
         sodipodi:rx="0.898"
         sodipodi:cy="103.609"
         sodipodi:cx="248.138"
         cx="248.138"
         cy="103.609"
         r="0.898"
         id="circle2582" />
    </g>
  </g>
  <g
     inkscape:groupmode="layer"
     id="layer3"
     inkscape:label="Reflet final"
     style="display:inline"
     sodipodi:insensitive="true">
    <path
       style="fill:url(#radialGradient3236);fill-opacity:1"
       d="M 1.5,1.5 L 1.5,460.3679 C 1.5,626.67854 135.81454,761.5 301.49993,761.5 C 467.1854,761.5 601.5,626.67854 601.5,460.3679 L 601.5,1.5 L 1.5,1.5 z "
       id="path2346" />
  </g>
  <g
     inkscape:groupmode="layer"
     id="layer4"
     inkscape:label="Contour final"
     style="display:inline"
     sodipodi:insensitive="true">
    <path
       style="fill:none;fill-opacity:1;stroke:#000000;stroke-width:3;stroke-miterlimit:4;stroke-dasharray:none;stroke-opacity:1"
       d="M 1.5,1.5 L 1.5,460.36794 C 1.5,626.67854 135.81454,761.5 301.49993,761.5 C 467.1854,761.5 601.5,626.67854 601.5,460.36794 L 601.5,1.5 L 1.5,1.5 z "
       id="path3239" />
  </g>
</svg>
