<?xml version="1.0" encoding="UTF-8"?>
<svg version="1.0" viewBox="0 0 603 763" xmlns="http://www.w3.org/2000/svg" xmlns:cc="http://creativecommons.org/ns#" xmlns:dc="http://purl.org/dc/elements/1.1/" xmlns:rdf="http://www.w3.org/1999/02/22-rdf-syntax-ns#" xmlns:xlink="http://www.w3.org/1999/xlink">
<metadata>
<rdf:RDF>
<cc:Work rdf:about="">
<dc:format>image/svg+xml</dc:format>
<dc:type rdf:resource="http://purl.org/dc/dcmitype/StillImage"/>
<dc:date>07-AUG-2006</dc:date>
<dc:creator>
<cc:Agent>
<dc:title>Jérôme BLUM (wagner51)</dc:title>
</cc:Agent>
</dc:creator>
<cc:license rdf:resource="http://creativecommons.org/licenses/GPL/2.0/"/>
<dc:coverage/>
<dc:description>Gabarit pour le Projet:Blasons de WIkipédia</dc:description>
<dc:subject>
<rdf:Bag>
<rdf:li>blason suisse modèle gabarit projet blasons</rdf:li>
</rdf:Bag>
</dc:subject>
<dc:language>fr</dc:language>
<dc:title>Gabrit d'un blason suisse</dc:title>
</cc:Work>
<cc:License rdf:about="http://creativecommons.org/licenses/GPL/2.0/">
<cc:permits rdf:resource="http://web.resource.org/cc/Reproduction"/>
<cc:permits rdf:resource="http://web.resource.org/cc/Distribution"/>
<cc:requires rdf:resource="http://web.resource.org/cc/Notice"/>
<cc:permits rdf:resource="http://web.resource.org/cc/DerivativeWorks"/>
<cc:requires rdf:resource="http://web.resource.org/cc/ShareAlike"/>
<cc:requires rdf:resource="http://web.resource.org/cc/SourceCode"/>
</cc:License>
</rdf:RDF>
</metadata>
<defs>
<radialGradient id="a" cx="858.04" cy="579.93" r="300" gradientTransform="matrix(1.215 1.5316e-24 1.4647e-23 1.2667 -839.19 -490.49)" gradientUnits="userSpaceOnUse">
<stop stop-color="#fff" stop-opacity=".31373" offset="0"/>
<stop stop-color="#fff" stop-opacity=".25098" offset=".19"/>
<stop stop-color="#6b6b6b" stop-opacity=".12549" offset=".6"/>
<stop stop-opacity=".12549" offset="1"/>
</radialGradient>
</defs>
<desc>Coat of Arms of Canton of Freiburg (Fribourg)</desc>
<g>
<path d="m1.5 1.5v458.87c0 166.31 134.31 301.13 300 301.13 165.69 0 300-134.82 300-301.13v-458.87h-600z" fill="#e20909"/>
<path d="m558.69 615.46-557.19-613.96v458.96c0.05 166.27 134.34 301.04 300 301.04 109.17 0 204.71-58.537 257.19-146.04z" fill="#fff"/>
<path d="m558.69 615.46-557.19-613.96" fill="none" stroke="#000" stroke-width="3"/>
<g stroke="#000" stroke-linecap="round" stroke-linejoin="round" stroke-width="3">
<path d="m537.74 131.98-0.011-0.018c-1.419-2.45-2.94-4.855-5.928-7.349-2.842-2.301-7.025-3.091-10.669-2.024-6.422 1.79-11.305 8.071-11.863 15.273-0.17 2.074 0.474 3.979 1.722 5.094 0.81 0.723 1.782 0.999 2.67 0.758 2.22-0.57 3.408-2.918 3.597-4.992 0.309-3.54 2.896-6.842 5.893-7.522 2.472-0.784 4.344 0.687 6.969 5.411 1.859 3.412 2.863 7.465 2.863 11.174 0 1.522-0.169 2.986-0.518 4.325-0.736 2.826-2.228 4.975-4.312 6.214-4.854 3.175-8.523 4.878-11.923 5.539-0.035 8e-3 -0.18 0.041-0.301 0.068-3.074-1.185-6.834-1.355-9.672-0.392-3.323 0.959-5.777 2.478-8.412 4.217-8.554 5.514-15.175 13.091-21.578 20.42-5.175 5.923-10.094 11.468-15.432 15.161-3.031-22.496-6.65-41.576-8.338-49.403l-1.71-7.716s-1.846-8.565-2.046-9.494c18.24-11.99 31.729-27.142 44.766-41.806 0.021-0.025 3.033-3.672 3.033-3.672 5.785-6.966 11.249-13.546 15.887-22.829 1.053-2.917 1.462-5.716 1.462-8.381 0-5.297-1.617-10.061-3.009-14.158-1.043-3.071-1.967-5.791-1.967-8.011 0-0.422 0.033-0.827 0.105-1.211 0.05-0.192 0.073-0.405 0.073-0.633 0-1.171-0.627-2.746-1.67-4.049-0.622-0.825-1.681-1.197-2.816-0.975-1.536 0.3-2.777 1.568-3.32 3.391-0.305 1.579-0.432 3.043-0.432 4.413 0 3.615 0.881 6.577 1.685 9.278 0.417 1.399 0.81 2.722 1.057 4.038 0.737 2.79 1.105 5.191 1.105 7.241 0 1.915-0.32 3.522-0.96 4.857-4.215 7.508-11.685 15.552-18.275 22.649-11.296 11.622-23.529 23.542-36.506 32.444 0.203-1.358 0.351-2.774 0.351-4.232 0-3.582-0.691-7.199-2.447-9.541-1.219-1.625-2.866-2.484-4.764-2.484-3.889 0-4.621 3.628-5.329 7.138-0.424 2.1-0.895 4.229-1.945 5.888-5.501-17.248-15.803-32.781-28.485-42.761-19.066-15.911-38.531-25.533-57.837-28.586-19.096-3.122-40.344-0.66-63.153 7.318-21.688 7.649-40.355 18.157-55.484 31.229-6.249 4.885-12.045 10.708-17.651 16.34-9.368 9.412-18.216 18.301-28.525 22.432-7.827 2.556-17.931 1.032-25.099-3.809-7.126-4.674-12.024-13.083-13.446-23.077-2.079-10.484 0.596-22.478 6.966-31.348 4.912-6.837 11.463-10.877 18.445-11.377 5.674-0.275 10.951 1.488 14.1 4.717 2.176 2.233 3.25 5.014 3.193 8.266 0.351 8.291-7.425 16.914-14.83 20.178-2.171 0.884-3.479 3.053-3.162 5.267 0.136 0.977 0.71 1.824 1.617 2.381 1.259 0.775 2.943 0.858 4.506 0.223 6.011-2.803 19.95-11.143 20.274-28.325 0.057-6.774-3.582-13.876-8.847-17.28-4.671-3.19-10.251-4.73-17.044-4.697-10.246 0.836-19.09 5.985-25.631 14.893-7.796 10.616-11.258 25.425-9.035 38.647 1.609 12.674 8.146 24.024 17.483 30.33 10.297 6.786 22.221 8.704 33.583 5.404 10.633-3.627 18.25-10.766 25.616-17.67l1.535-1.437c7e-3 -7e-3 2.224-2.135 2.224-2.135 6.938-6.667 13.491-12.964 20.585-18.731 2.241-1.883 4.6-3.699 7.001-5.466-3.214 7.792-5.264 16.616-5.826 25.811-0.105 1.813-0.158 3.642-0.158 5.485 0 14.528 3.273 29.999 9.757 46.075 0.384 1.017 1.114 1.831 1.996 2.217 0.714 0.314 1.477 0.321 2.148 0.02 1.124-0.503 1.788-1.75 1.788-3.112 0-0.501-0.09-1.02-0.281-1.522-4.969-13.978-7.473-27.272-7.473-39.639 0-2.985 0.146-5.916 0.438-8.79 1.548-16.504 8.597-31.29 18.856-39.58 7.402-3.744 15.497-7.123 24.065-10.039 21.042-7.056 40.374-9.096 57.454-6.063 1.749 0.295 3.529 0.719 5.305 1.148-3.326 2.58-6.247 5.552-9.151 8.649-6.019 6.866-11.376 14.985-16.877 25.57-9.468 18.983-17.621 48.049-18.972 67.621-6e-3 0.097-9e-3 0.194-9e-3 0.292 0 1.088 0.367 2.104 1.049 2.889 0.713 0.822 1.688 1.291 2.745 1.32 2.199 0.061 4.093-1.661 4.22-3.838 2.231-18.646 11.275-46.107 20.585-62.464 5.413-9.207 10.734-16.428 16.264-22.064 6.762-7.083 14.146-11.014 18.82-10.022l0.07 0.015h0.071c0.329 3e-3 0.738-0.183 1.195-0.468 8.701 4.434 17.471 10.392 26.075 17.74 12.433 10.312 21.07 24.636 25.012 41.434-0.116 0.303-0.245 0.643-0.417 1.096-16.907-0.945-35.313 7.482-47.038 21.6-12.595 14.314-21.559 32.532-28.193 57.317-0.335 1.16-0.225 2.383 0.315 3.429 0.506 0.977 1.335 1.681 2.335 1.981 2.121 0.637 4.379-0.684 5.031-2.946 7.079-22.212 16.64-39.571 28.41-51.572 11.472-12.097 27.097-17.847 40.892-15.109 3.688 10.253 9.2 26.05 13.791 90.369 0.321 4.503 0.536 8.629 0.536 12.558 0 20.241-5.688 35.251-31.71 69.85-26.461 35.183-48.634 51.593-69.779 51.644-35.764-0.054-53.091-48.104-58.88-68.76-1.655-6.838-5.133-13.664-9.789-19.19-6.409-7.966-14.205-13.956-22.534-17.311-18.794-7.64-38.354-2.03-53.294 3.71-4.772 1.56-9.563 3.729-14.197 5.827-11.036 4.997-21.459 9.717-30.981 6.204-6.421-1.964-10.743-8.188-10.792-15.499 0.015-3.934 0.824-6.635 2.63-11.199 1.761-5.364 2.461-10.28 2.155-15.077-0.524-7.307-3.016-12.271-7.616-15.185-6.5-3.275-12.139-0.787-16.332 1.743-8.39 5.941-11.943 14.962-15.079 22.92l-0.436 1.104c-0.431 1.173-0.403 2.451 0.069 3.525 0.441 1.001 1.222 1.75 2.2 2.105 2.079 0.757 4.417-0.386 5.207-2.542 3.136-8.011 6.822-15.938 12.461-19.567 2.478-1.695 6.256-2.388 7.646-1.412 1.73 0.984 3.008 4.27 3.101 7.851 0.181 3.427-0.442 7.307-1.802 11.244-1.065 2.446-3.573 8.884-3.381 14.569-0.426 10.999 7.013 21.997 16.935 24.98 9.789 3.898 20.611 1.101 27.956-1.937-0.021 8e-3 10.99-4.381 10.99-4.381 4.359-1.785 8.477-3.473 12.717-5.009 19.483-7.221 34.029-8.203 45.779-3.091 12.761 5.743 25.672 19.507 25.672 34.713v0.181c0 1.736-0.16 3.646-0.408 5.687-17.038-19.321-42.93-29.517-71.311-27.992-14.896 1.065-27.824 6.056-37.402 14.436-11.266 9.327-15.55 23.322-18.5 37.054-5.375 28.799-3.55 57.693-1.36 79.649 0.082 0.8 0.485 1.537 1.135 2.076 0.853 0.707 2.034 1.017 3.24 0.85 2.212-0.307 3.797-1.992 3.608-3.839-2.539-31.186-1.678-55.516 2.71-76.552 2.455-10.63 6.452-23.749 15.612-30.734 10.104-8.527 22.755-10.831 31.594-11.265 24.614-1.006 48.337 8.906 61.906 25.869l4.368 5.63s0.593 0.767 0.897 1.16c-0.155 0.573-0.611 2.253-0.611 2.253-2.373 8.727-4.827 17.751-5.34 27.452-0.122 1.826-0.183 3.662-0.183 5.501 0 7.92 1.124 15.902 3.31 23.365 2e-3 6e-3 0.88 2.765 0.88 2.765 2.018 6.192 5.067 15.55 5.067 31.829v102.64c0 43.873 0 65.896-13.251 93.25l-0.082 0.168v7.731h77.5v-7.868l-0.22-0.231c-11.446-12.071-18.28-38.971-18.28-71.959 0-14.308 10.84-30.151 22.316-46.926 9.113-13.319 18.537-27.093 22.153-40.204 6.465-23.433 18.419-35.641 40.119-57.805l16.358-16.906c15.546-16.394 27.791-33.453 36.452-50.719 1.051 1.116 1.994 2.336 2.795 3.781 2.917 5.178 4.884 12.208 6.015 21.5 0.846 7.255 1.161 14.673 1.161 21.958 0 9.132-0.495 18.059-1.063 26.202-0.012 0.128-0.018 0.254-0.018 0.379 0 1.781 1.158 3.315 2.716 3.49 0.746 0.084 1.493-0.159 2.104-0.683 0.708-0.609 1.169-1.547 1.263-2.574 1.326-11.701 2.485-24.067 2.485-36.677 0-4.312-0.136-8.651-0.446-13.002-0.684-8.225-1.898-16.995-6.124-25.474-1.352-3.07-3.548-5.911-6.468-8.444 7.743-18.255 11.682-37.073 11.682-55.944 0-13.735-1.035-29.928-3.063-48.109 9.705-4.858 16.954-13.838 21.77-19.83 4.689-5.773 8.952-10.432 13.004-14.284-0.124 1.161-0.208 2.336-0.208 3.533 0 1.449 0.092 2.92 0.273 4.407l0.021 0.127c1.09 6.117 2.216 12.442 9.221 17.649 4.621 2.781 9.899 1.352 13.107-1.279 3.266-2.599 5.051-5.872 6.24-8.432 2.063-4.833 3.078-9.633 3.078-14.579 0-1.373-0.078-2.758-0.234-4.157-0.376-2.916-1.138-6.706-3.731-10.295-4e-3 -5e-3 -0.13-0.169-0.275-0.359 3.19-1.515 6.072-3.374 8.26-4.878 5.281-3.58 8.82-10.491 8.82-17.214v-0.075c0.012-0.351 0.018-0.7 0.018-1.051 2e-3 -5.579-1.48-11.13-4.408-16.496zm-25.512 44.31c0.806 0.381 2.285 1.847 3.597 3.566 0.67 0.786 1.246 2.43 1.494 4.224 0.143 0.931 0.212 1.919 0.212 2.934 0 3.014-0.613 6.269-1.742 9.02l-0.016 0.042c-1.039 3-2.93 4.203-3.51 4.456-1.582-1.17-3.018-4.074-3.762-7.697-0.357-1.743-0.533-3.48-0.533-5.131 0-3.13 0.63-5.948 1.834-7.908 0.615-1.215 1.564-2.61 2.37-3.54 0.027 0.015 0.056 0.034 0.056 0.034z" fill="#5ab532"/>
<path d="m502.06 334.46c31.975-8.375 55.045 15.297 55.045 15.297-12.996 8.402-23.854 9.063-23.854 9.063 48.785 16.614 41.422 62.521 41.422 62.521-19.82 8.556-35.767-8.396-35.767-8.396 26.114 47.137 1.466 82.634 1.466 82.634-26.298-15.544-31.383-33.16-37.005-50.466-5.625-17.311-26.999-4.904-12.165 11.2 25.623 27.81 21.285 56.407 21.285 56.407-9.34-7.183-15.755-8.153-15.755-8.153 5.34 34.402-23.976 58.734-23.976 58.734-46.726-14.663-40.946-54.4-40.946-54.4-6.753 10.137-10.117 18.724-10.117 18.724-33.021-44.337 18.074-88.883 18.074-88.883-21.96 23.141-38.688 19.104-38.688 19.104 7.226-8.329 10.317-15.502 10.317-15.502-17.1 20.383-45.069 16.179-45.069 16.179-6.342-57.894 27.725-90.118 27.725-90.118-16.58 6.722-22.297 3.946-22.297 3.946-1.334-8.6 5.906-30.082 32.25-40.108 26.349-10.027 50.727 10.171 59.211 38.335 0-1e-3 9.113-28.334 38.844-36.118z" fill="#5ab532"/>
<path d="m140.84 370.25c8.622-28.209 33.253-48.485 59.8-38.521 26.543 9.964 33.793 31.443 32.428 40.053 0 0-5.771 2.793-22.476-3.89 0 0 34.277 32.159 27.746 90.111 0 0-28.216 4.28-45.412-16.072 0 0 3.101 7.171 10.368 15.486 0 0-16.879 4.085-38.97-19.017 0 0 51.42 44.444 18.017 88.901 0 0-3.373-8.585-10.158-18.712 0 0 5.733 39.751-41.419 54.551 0 0-29.506-24.275-24.039-58.717 0 0-6.472 0.988-15.908 8.201 0 0-4.306-28.608 21.598-56.506 14.997-16.155-6.528-28.513-12.241-11.177-5.71 17.335-10.88 34.977-37.436 50.603 0 0-24.773-35.46 1.673-82.701 0 0-16.121 17.008-36.088 8.497 0 0-7.317-45.922 41.919-62.675 0 0-10.948-0.633-24.033-9.007 0 0 23.32-23.749 55.545-15.453 29.962 7.714 39.086 36.045 39.086 36.045z" fill="#5ab532"/>
<path d="m147.36 391.38s25.109-33.297 53.294-26.162" fill="none"/>
<path d="m136.83 392.41s-17.934-34.383-49.692-33.876" fill="none"/>
<path d="m130.94 403.4s-36.85-1.006-50.214 42.179" fill="none"/>
<path d="m152.26 402.13s34.479-5.197 62.372 24.276" fill="none"/>
<path d="m141.64 408.72s-6.889 28.508-5.516 55.918c1.075 21.414 2.387 33.745 1.405 47.592" fill="none"/>
<path d="m403.92 365.71c27.967-7.204 52.789 26.004 52.789 26.004" fill="none"/>
<path d="m516.5 358.73c-31.491-0.425-49.356 33.98-49.356 33.98" fill="none"/>
<path d="m522.65 445.69c-13.151-43.117-49.695-42.017-49.695-42.017" fill="none"/>
<path d="m389.91 426.89c27.729-29.524 61.907-24.421 61.907-24.421" fill="none"/>
<path d="m466.17 512.45c-0.942-13.836 0.388-26.162 1.504-47.561 1.426-27.395-5.338-55.865-5.338-55.865" fill="none"/>
<polygon transform="translate(-.038 -.045)" points="177.98 203.16 172.67 210.77 197.19 283.48 251.43 384.3 254.51 429.1 302.23 465.04 342.25 439.44 360.88 404.7" fill="#e20909"/>
<ellipse transform="translate(-.038 -.045)" cx="207.98" cy="273.44" rx="27.193" ry="26.092" fill="#e20909"></ellipse>
<path d="m171.04 188.31c-7.685 4.61-12.799 12.797-12.799 22.135 0 14.409 12.175 26.091 27.192 26.091 8.385 0 15.881-3.645 20.87-9.37l-35.263-38.856z" fill="#e20909"/>
<path d="m207.35 228.32c-2.534-0.749-5.225-1.153-8.014-1.153-15.019 0-27.194 11.682-27.194 26.091 0 14.41 12.175 26.092 27.194 26.092 15.018 0 27.192-11.682 27.192-26.092 0-1.429-0.125-2.83-0.355-4.197l-18.823-20.741z" fill="#e20909"/>
<ellipse transform="translate(-.038 -.045)" cx="209.82" cy="304.51" rx="27.193" ry="26.09" fill="#e20909"></ellipse>
<ellipse transform="translate(-.038 -.045)" cx="234.01" cy="342.98" rx="27.193" ry="26.091" fill="#e20909"></ellipse>
<path d="m332.53 366.26c-2.146 3.731-3.37 8.019-3.37 12.583 0 14.409 12.177 26.09 27.193 26.09 3.423 0 6.695-0.613 9.713-1.72l-33.536-36.953z" fill="#e20909"/>
<path d="m353.3 389.15c-2.684-0.851-5.55-1.318-8.531-1.318-15.019 0-27.193 11.682-27.193 26.091s12.175 26.091 27.193 26.091 27.191-11.682 27.191-26.091c0-1.608-0.16-3.181-0.45-4.708l-18.21-20.065z" fill="#e20909"/>
<ellipse transform="translate(-.038 -.045)" cx="265.94" cy="427.14" rx="27.192" ry="26.091" fill="#e20909"></ellipse>
<ellipse transform="translate(-.038 -.045)" cx="319.85" cy="437.65" rx="27.194" ry="26.092" fill="#e20909"></ellipse>
<ellipse transform="translate(-.038 -.045)" cx="253.81" cy="384.3" rx="27.193" ry="26.093" fill="#e20909"></ellipse>
<ellipse transform="translate(-.038 -.045)" cx="301.71" cy="462.09" rx="27.194" ry="26.093" fill="#e20909"></ellipse>
<ellipse transform="translate(-.038 -.045)" cx="298.94" cy="420.18" rx="27.193" ry="26.091" fill="#e20909"></ellipse>
<ellipse transform="translate(-.038 -.045)" cx="272.62" cy="389.78" rx="27.193" ry="26.092" fill="#e20909"></ellipse>
<path d="m326.19 359.27c-0.402-0.017-0.807-0.029-1.214-0.029-15.02 0-27.193 11.681-27.193 26.092 0 14.41 12.174 26.09 27.193 26.09 14.163 0 25.794-10.391 27.072-23.661l-25.858-28.492z" fill="#e20909"/>
<path d="m313.28 345.04c9e-3 13.179 10.199 24.065 23.434 25.821l-23.434-25.821z" fill="#e20909"/>
<path d="m297.07 327.18c-11.998 2.716-20.929 13.049-20.929 25.389 0 14.409 12.175 26.092 27.193 26.092 11.545 0 21.403-6.908 25.35-16.647l-31.614-34.834z" fill="#e20909"/>
<path d="m251.17 276.6c-14.886 0.147-26.907 11.767-26.907 26.086 0 14.412 12.174 26.093 27.192 26.093 13.65 0 24.949-9.651 26.895-22.23l-27.18-29.949z" fill="#e20909"/>
<path d="m275.46 303.37c-0.571 2.107-0.877 4.316-0.877 6.595 0 14.41 12.173 26.091 27.191 26.091 1.078 0 2.139-0.067 3.184-0.184l-29.498-32.502z" fill="#e20909"/>
<path d="m217.29 239.27c-8.6 4.383-14.458 13.061-14.458 23.055 0 14.41 12.175 26.093 27.193 26.093 9.074 0 17.105-4.27 22.044-10.824l-34.779-38.324z" fill="#e20909"/>
<path d="m245.29 270.13c0.205 12.876 10.124 23.493 23.04 25.387l-23.04-25.387z" fill="#e20909"/>
<path d="m192.5 211.96c-0.258 1.443-0.4 2.925-0.4 4.439 0 14.411 12.175 26.092 27.194 26.092 0.3 0 0.597-0.013 0.895-0.021l-27.689-30.51z" fill="#e20909"/>
<polygon transform="translate(-.038 -.045)" points="366.11 394.95 369.44 388.74 368.42 347.87 381.24 277.97 416.13 235.63 412.03 196.74 382.78 165.72 288.38 171.14 196.53 176.55 184.09 194.39" fill="#fff"/>
<ellipse transform="translate(-.038 -.045)" cx="240.03" cy="152.87" rx="27.194" ry="26.092" fill="#fff"></ellipse>
<ellipse transform="translate(-.038 -.045)" cx="318.62" cy="159.54" rx="27.195" ry="26.092" fill="#fff"></ellipse>
<ellipse transform="translate(-.038 -.045)" cx="274.62" cy="170.54" rx="27.196" ry="26.092" fill="#fff"></ellipse>
<path d="m206.3 227.17c3.946-4.528 6.323-10.358 6.323-16.722 0-14.411-12.176-26.092-27.193-26.092-5.287 0-10.218 1.453-14.393 3.958l35.263 38.856z" fill="#fff"/>
<ellipse transform="translate(-.038 -.045)" cx="386.7" cy="272.72" rx="27.193" ry="26.093" fill="#fff"></ellipse>
<path d="m226.18 249.07c-1.661-9.854-9.07-17.859-18.824-20.742l18.824 20.742z" fill="#fff"/>
<ellipse transform="translate(-.038 -.045)" cx="402.49" cy="244.1" rx="27.193" ry="26.093" fill="#fff"></ellipse>
<ellipse transform="translate(-.038 -.045)" cx="402.03" cy="196.78" rx="27.195" ry="26.092" fill="#fff"></ellipse>
<ellipse transform="translate(-.038 -.045)" cx="337.63" cy="180" rx="27.192" ry="26.092" fill="#fff"></ellipse>
<ellipse transform="translate(-.038 -.045)" cx="375.76" cy="170.22" rx="27.193" ry="26.092" fill="#fff"></ellipse>
<ellipse transform="translate(-.038 -.045)" cx="202.53" cy="178.03" rx="27.194" ry="26.091" fill="#fff"></ellipse>
<ellipse transform="translate(-.038 -.045)" cx="250.4" cy="178.35" rx="27.193" ry="26.091" fill="#fff"></ellipse>
<ellipse transform="translate(-.038 -.045)" cx="290.04" cy="179.44" rx="27.194" ry="26.092" fill="#fff"></ellipse>
<path d="m382.14 281.75c15.016 0 27.193 11.683 27.193 26.092 0 14.411-12.178 26.094-27.193 26.094-15.02 0-27.195-11.683-27.195-26.094 0-14.409 12.175-26.092 27.195-26.092z" fill="#fff"/>
<ellipse transform="translate(-.038 -.045)" cx="366" cy="339.78" rx="27.192" ry="26.091" fill="#fff"></ellipse>
<path d="m366.07 403.21c10.222-3.752 17.481-13.245 17.481-24.37 0-14.412-12.174-26.09-27.193-26.09-10.262 0-19.193 5.455-23.824 13.508l33.536 36.952z" fill="#fff"/>
<path d="m371.51 409.21c-1.794-9.444-8.882-17.11-18.211-20.066l18.211 20.066z" fill="#fff"/>
<path d="m352.05 387.76c0.077-0.8 0.121-1.61 0.121-2.43 0-14.021-11.525-25.453-25.979-26.063l25.858 28.493z" fill="#fff"/>
<path d="m336.71 370.86c1.229 0.163 2.483 0.254 3.76 0.254 15.018 0 27.191-11.681 27.191-26.093 0-14.411-12.174-26.092-27.191-26.092-15.021 0-27.193 11.681-27.193 26.092 0 6e-3 1e-3 0.012 1e-3 0.018l23.432 25.821z" fill="#fff"/>
<path d="m328.68 362.02c1.188-2.93 1.846-6.113 1.846-9.445 0-14.41-12.177-26.093-27.194-26.093-2.157 0-4.252 0.249-6.265 0.704l31.613 34.834z" fill="#fff"/>
<path d="m278.34 306.55c0.195-1.261 0.299-2.551 0.299-3.864 0-14.411-12.175-26.093-27.193-26.093-0.096 0-0.19 6e-3 -0.286 7e-3l27.18 29.95z" fill="#fff"/>
<ellipse transform="translate(-.038 -.045)" cx="348.34" cy="300.04" rx="27.193" ry="26.093" fill="#fff"></ellipse>
<path d="m304.96 335.87c13.517-1.513 24.01-12.532 24.01-25.907 0-14.413-12.176-26.093-27.193-26.093-12.644 0-23.269 8.28-26.313 19.498l29.496 32.502z" fill="#fff"/>
<path d="m252.07 277.6c3.236-4.293 5.148-9.565 5.148-15.269 0-14.41-12.175-26.092-27.193-26.092-4.603 0-8.935 1.101-12.735 3.038l34.78 38.323z" fill="#fff"/>
<ellipse transform="translate(-.038 -.045)" cx="355.75" cy="258.86" rx="27.191" ry="26.093" fill="#fff"></ellipse>
<path d="m268.33 295.52c1.35 0.198 2.733 0.301 4.142 0.301 15.018 0 27.194-11.683 27.194-26.093s-12.176-26.092-27.194-26.092-27.192 11.682-27.192 26.092c0 0.136 9e-3 0.27 0.011 0.406l23.039 25.386z" fill="#fff"/>
<path d="m220.19 242.47c14.603-0.454 26.298-11.947 26.298-26.07 0-14.411-12.174-26.091-27.192-26.091-13.44 0-24.596 9.357-26.794 21.652l27.688 30.509z" fill="#fff"/>
<ellipse transform="translate(-.038 -.045)" cx="370.89" cy="214.55" rx="27.191" ry="26.092" fill="#fff"></ellipse>
<ellipse transform="translate(-.038 -.045)" cx="315.75" cy="268.72" rx="27.193" ry="26.092" fill="#fff"></ellipse>
<ellipse transform="translate(-.038 -.045)" cx="334.12" cy="223.52" rx="27.193" ry="26.092" fill="#fff"></ellipse>
<ellipse transform="translate(-.038 -.045)" cx="262.38" cy="224.52" rx="27.192" ry="26.091" fill="#fff"></ellipse>
<ellipse transform="translate(-.038 -.045)" cx="298.56" cy="224.84" rx="27.194" ry="26.092" fill="#fff"></ellipse>
</g>
<path d="m40.823 609.5c51.666 90.795 149.05 152 260.67 152 111.63 0 209.01-61.205 260.68-152h-521.35z" fill="#5ab532"/>
<line x1="40.823" x2="562.18" y1="609.5" y2="609.5" fill="none" stroke="#000" stroke-width="3"/>
</g>
<g>
<path d="m1.5 1.5v458.87c0 166.31 134.31 301.13 300 301.13 165.69 0 300-134.82 300-301.13v-458.87h-600z" fill="url(#a)"/>
<path d="m1.5 1.5v458.87c0 166.31 134.31 301.13 300 301.13 165.69 0 300-134.82 300-301.13v-458.87h-600z" fill="none" stroke="#000" stroke-width="3"/>
</g>
</svg>
