<?xml version="1.0" encoding="UTF-8"?>
<svg version="1.0" viewBox="0 0 603 763" xmlns="http://www.w3.org/2000/svg" xmlns:cc="http://web.resource.org/cc/" xmlns:dc="http://purl.org/dc/elements/1.1/" xmlns:rdf="http://www.w3.org/1999/02/22-rdf-syntax-ns#" xmlns:xlink="http://www.w3.org/1999/xlink">
<metadata>
<rdf:RDF>
<cc:Work rdf:about="">
<dc:format>image/svg+xml</dc:format>
<dc:type rdf:resource="http://purl.org/dc/dcmitype/StillImage"/>
<dc:date>07-AUG-2006</dc:date>
<dc:creator>
<cc:Agent>
<dc:title>Jérôme BLUM (wagner51)</dc:title>
</cc:Agent>
</dc:creator>
<cc:license rdf:resource="http://creativecommons.org/licenses/GPL/2.0/"/>
<dc:coverage/>
<dc:description>Gabarit pour le Projet:Blasons de WIkipédia</dc:description>
<dc:subject>
<rdf:Bag>
<rdf:li>blason suisse modèle gabarit projet blasons</rdf:li>
</rdf:Bag>
</dc:subject>
<dc:language>fr</dc:language>
<dc:title>Gabrit d'un blason suisse</dc:title>
</cc:Work>
<cc:License rdf:about="http://creativecommons.org/licenses/GPL/2.0/">
<cc:permits rdf:resource="http://web.resource.org/cc/Reproduction"/>
<cc:permits rdf:resource="http://web.resource.org/cc/Distribution"/>
<cc:requires rdf:resource="http://web.resource.org/cc/Notice"/>
<cc:permits rdf:resource="http://web.resource.org/cc/DerivativeWorks"/>
<cc:requires rdf:resource="http://web.resource.org/cc/ShareAlike"/>
<cc:requires rdf:resource="http://web.resource.org/cc/SourceCode"/>
</cc:License>
</rdf:RDF>
</metadata>
<defs>
<radialGradient id="a" cx="858.04" cy="579.93" r="300" gradientTransform="matrix(1.215 1.5316e-24 1.4647e-23 1.2667 -839.19 -490.49)" gradientUnits="userSpaceOnUse">
<stop stop-color="#fff" stop-opacity=".31373" offset="0"/>
<stop stop-color="#fff" stop-opacity=".25098" offset=".19"/>
<stop stop-color="#6b6b6b" stop-opacity=".12549" offset=".6"/>
<stop stop-opacity=".12549" offset="1"/>
</radialGradient>
</defs>
<desc>Coat of Arms of Canton of Freiburg (Fribourg)</desc>
<path d="m1.5 1.5v458.87c0 166.31 134.31 301.13 300 301.13 165.69 0 300-134.82 300-301.13v-458.87h-600z" fill="#fff"/>
<g transform="matrix(4.0883 0 0 4.0883 -2547 -2340.5)" fill-rule="evenodd" stroke="#fff" stroke-width="1px">
<path d="m667.44 641.46c1.5618-17.346-19.601-21.839-30.219-6.7554 12.2-2.7124 17.584 1.3912 17.951 10.512-8.0977-7.9128-22.11-5.092-24.488 8.9754 8.3457-4.2137 14.613-2.4505 19.317 3.8046-8.2387-2.2955-21.233-3.1514-22.268 15 5.7792-4.3318 12.172-5.391 19.317-2.4385-9.1961 0.95911-23.035 5.5588-17.049 22.439 3.3735-6.31 7.0951-12.019 15.389-9.8292-15.987 9.0115-14.428 18.466-9.194 26.366 0.99957-5.4279 1.4884-11.083 10.435-12.978-1.2348-15.687 7.4968-54.915 20.808-55.095z"/>
<path d="m770 618c-10.29 12.149-13.954 26.756-16.926 41.025-4.8707-1.8433-5.4093-6.9358-6.8306-11.366-3.0472 11.511-5.1132 23.266-4.5355 35.683-3.1203-3.6135-7.1608-6.6135-7.7323-11.926-1.2573 11.136-3.6582 22.845-3.2923 33.169-3.0408-0.69096-5.244-3.8945-7.3907-7.2677-1.0614 9.6068 0.14764 19.718-8.6339 27.609 7.7536-20.527-10.948-32.253-20.56-37.486-16.167-8.8211-34.139-15.997-35.547-41.613 1.5725 25.552 19.356 32.8 35.547 41.613 9.6723 5.2648 28.203 17.041 20.56 37.486-21.434 21.334-36.022-0.17872-43.702-5.7512-11.345-8.2317-24.117-14.926-24.78-22.99-1.6644-20.249 7.8969-49.706 17.115-54.209 12.531-6.121 28.074 27.732 28.074 27.732 2.3585 4.0987 5.936 5.7246 9.6585 5.9016-3.7584-0.35063-7.1812-1.7077-9.6585-5.9016-11.043-73.815-10.684-63.13 23.634-96.708h55v45z"/>
<path d="m770 598c-15.739 17.398-29.975 40.74-41.755 64.317 8.8738-26.37 26.182-48.859 41.755-69.317v5z" fill="#fff"/>
</g>
<g>
<path d="m1.5 1.5v458.87c0 166.31 134.31 301.13 300 301.13 165.69 0 300-134.82 300-301.13v-458.87h-600z" fill="url(#a)"/>
<path d="m1.5 1.5v458.87c0 166.31 134.31 301.13 300 301.13 165.69 0 300-134.82 300-301.13v-458.87h-600z" fill="none" stroke="#000" stroke-width="3"/>
</g>
</svg>
