<?xml version="1.0" encoding="UTF-8"?>
<svg version="1.0" viewBox="0 0 603 763" xmlns="http://www.w3.org/2000/svg" xmlns:cc="http://creativecommons.org/ns#" xmlns:dc="http://purl.org/dc/elements/1.1/" xmlns:rdf="http://www.w3.org/1999/02/22-rdf-syntax-ns#" xmlns:xlink="http://www.w3.org/1999/xlink">
<metadata>
<rdf:RDF>
<cc:Work rdf:about="">
<dc:format>image/svg+xml</dc:format>
<dc:type rdf:resource="http://purl.org/dc/dcmitype/StillImage"/>
<dc:date>07-AUG-2006</dc:date>
<dc:creator>
<cc:Agent>
<dc:title>Jérôme BLUM (wagner51)</dc:title>
</cc:Agent>
</dc:creator>
<cc:license rdf:resource="http://creativecommons.org/licenses/GPL/2.0/"/>
<dc:coverage/>
<dc:description>Gabarit pour le Projet:Blasons de WIkipédia</dc:description>
<dc:subject>
<rdf:Bag>
<rdf:li>blason suisse modèle gabarit projet blasons</rdf:li>
</rdf:Bag>
</dc:subject>
<dc:language>fr</dc:language>
<dc:title>Gabrit d'un blason suisse</dc:title>
</cc:Work>
<cc:License rdf:about="http://creativecommons.org/licenses/GPL/2.0/">
<cc:permits rdf:resource="http://web.resource.org/cc/Reproduction"/>
<cc:permits rdf:resource="http://web.resource.org/cc/Distribution"/>
<cc:requires rdf:resource="http://web.resource.org/cc/Notice"/>
<cc:permits rdf:resource="http://web.resource.org/cc/DerivativeWorks"/>
<cc:requires rdf:resource="http://web.resource.org/cc/ShareAlike"/>
<cc:requires rdf:resource="http://web.resource.org/cc/SourceCode"/>
</cc:License>
</rdf:RDF>
</metadata>
<defs>
<radialGradient id="a" cx="858.04" cy="579.93" r="300" gradientTransform="matrix(1.215 1.5316e-24 1.4647e-23 1.2667 -839.19 -490.49)" gradientUnits="userSpaceOnUse">
<stop stop-color="#fff" stop-opacity=".31373" offset="0"/>
<stop stop-color="#fff" stop-opacity=".25098" offset=".19"/>
<stop stop-color="#6b6b6b" stop-opacity=".12549" offset=".6"/>
<stop stop-opacity=".12549" offset="1"/>
</radialGradient>
</defs>
<desc>Coat of Arms of Canton of Freiburg (Fribourg)</desc>
<g>
<path d="m1.5 1.5v458.87c0 166.31 134.31 301.13 300 301.13 165.69 0 300-134.82 300-301.13v-458.87h-600z" fill="#e20909"/>
<g fill="#fcef3c" stroke="#000" stroke-width="3">
<path d="m421.7 258.25 7.253 1.046 2.717 6.805c-19.466 27.55-246.14 322.48-251.32 329.06-5.183 6.583-7.59 0.24-10.615 4.083l-25.487 32.36c-3.887 4.937-7.232 7.41-11.623 3.954-4.39-3.458-2.769-7.289 1.119-12.227l25.487-32.361c3.025-3.841-3.703-4.694 1.48-11.275 5.184-6.581 238.78-296.07 260.99-321.45z"/>
<path d="m525.76 96.709c3.678-0.437 9.252 1.51 22.088 11.618 12.836 10.109 16.035 15.072 16.473 18.75 0.436 3.678-15.97 25.638-39.296 55.257-23.326 29.618-66.083 63.596-78.77 72.934-12.687 9.337-14.591 10.838-14.591 10.838l-9.97-7.852s1.013-2.202 7.117-16.724 29.115-64.051 52.442-93.67c23.327-29.617 40.83-50.714 44.507-51.151z"/>
<path d="m180.38 258.25-7.252 1.046-2.717 6.805c19.466 27.549 246.14 322.48 251.33 329.06 5.183 6.583 7.59 0.24 10.615 4.083l25.486 32.36c3.888 4.937 7.232 7.41 11.623 3.954 4.391-3.458 2.769-7.289-1.118-12.227l-25.487-32.361c-3.025-3.841 3.703-4.694-1.479-11.275-5.186-6.581-238.78-296.07-261-321.45z"/>
<path d="m76.316 96.709c-3.677-0.437-9.252 1.51-22.088 11.618-12.835 10.109-16.035 15.072-16.472 18.75-0.436 3.678 15.969 25.638 39.295 55.257 23.326 29.618 66.083 63.596 78.77 72.934 12.687 9.337 14.59 10.838 14.59 10.838l9.97-7.852s-1.012-2.202-7.117-16.724c-6.104-14.522-29.115-64.051-52.441-93.67-23.326-29.617-40.83-50.714-44.507-51.151z"/>
</g>
<path d="m409.76 72.561s-57.685-22.161-108.26-22.161c-50.579 0-108.26 22.161-108.26 22.161s-6.518 32.264-6.518 65.506 6.518 65.505 6.518 65.505 57.684 22.162 108.26 22.162c50.578 0 108.26-22.162 108.26-22.162s6.519-32.264 6.519-65.505-6.519-65.506-6.519-65.506z" fill="#fcef3c"/>
<path d="m412.09 86.271c-16.998-4.819-66.319-17.621-110.59-17.621s-93.593 12.802-110.59 17.622" fill="none" stroke="#000" stroke-width="3"/>
<path d="m415.16 112.61c-13.166-1.928-66.305-9.253-113.66-9.253-47.361 0-100.5 7.325-113.66 9.253" fill="none" stroke="#000" stroke-width="3"/>
<path d="m416.28 138.07h-114.78-114.78" fill="none" stroke="#000" stroke-width="3"/>
<path d="m415.27 163.5c-12.979 1.903-66.281 9.27-113.77 9.27-47.36 0-100.5-7.325-113.66-9.253" fill="none" stroke="#000" stroke-width="3"/>
<path d="m412.09 189.86c-16.999 4.82-66.319 17.621-110.59 17.621s-93.591-12.802-110.59-17.621" fill="none" stroke="#000" stroke-width="3"/>
<path d="m325.28 51.831c0.196 2.112 4.024 43.854 4.024 86.235s-3.828 84.123-4.024 86.235c5.017-0.568 10.007-1.284 14.907-2.104 0.962-11.262 3.782-47.445 3.782-84.131s-2.82-72.869-3.782-84.131c-4.9-0.82-9.89-1.535-14.907-2.104zm71.651 16.265c-4.401-1.436-9.774-3.104-15.866-4.834l0.595 2.946c0.071 0.355 7.148 35.868 7.148 71.858s-7.077 71.503-7.148 71.858l-0.595 2.946c6.092-1.729 11.465-3.398 15.866-4.834 1.983-11.137 6.543-39.985 6.543-69.971s-4.56-58.832-6.543-69.969zm-174.99-4.834c-6.092 1.729-11.464 3.398-15.866 4.834-1.984 11.137-6.543 39.984-6.543 69.97s4.559 58.833 6.543 69.97c4.401 1.436 9.774 3.105 15.866 4.834l-0.594-2.946c-0.071-0.355-7.149-35.868-7.149-71.858s7.078-71.503 7.149-71.858l0.594-2.946zm40.877-9.327c-0.961 11.262-3.782 47.445-3.782 84.131s2.821 72.869 3.782 84.131c4.901 0.82 9.89 1.536 14.908 2.104-0.197-2.113-4.024-43.855-4.024-86.235s3.828-84.122 4.024-86.235c-5.018 0.569-10.007 1.284-14.908 2.104z" fill="#fcef3c"/>
<path d="m340.18 222.2c0.962-11.262 3.782-47.445 3.782-84.131s-2.82-72.869-3.782-84.131" fill="none" stroke="#000" stroke-width="3"/>
<path d="m381.06 212.87 0.595-2.946c0.071-0.355 7.148-35.868 7.148-71.858s-7.077-71.503-7.148-71.858l-0.595-2.946" fill="none" stroke="#000" stroke-width="3"/>
<path d="m396.93 208.04c1.983-11.137 6.543-39.985 6.543-69.971s-4.56-58.833-6.543-69.971" fill="none" stroke="#000" stroke-width="3"/>
<path d="m325.28 224.3c0.196-2.112 4.024-43.854 4.024-86.235s-3.828-84.123-4.024-86.235" fill="none" stroke="#000" stroke-width="3"/>
<path d="m221.94 63.262-0.594 2.946c-0.071 0.355-7.149 35.868-7.149 71.858s7.078 71.503 7.149 71.858l0.594 2.946" fill="none" stroke="#000" stroke-width="3"/>
<path d="m277.72 51.831c-0.197 2.113-4.024 43.855-4.024 86.235s3.828 84.122 4.024 86.235" fill="none" stroke="#000" stroke-width="3"/>
<path d="m206.07 68.097c-1.984 11.137-6.543 39.984-6.543 69.97s4.559 58.833 6.543 69.97" fill="none" stroke="#000" stroke-width="3"/>
<path d="m262.82 53.935c-0.961 11.262-3.782 47.445-3.782 84.131s2.821 72.869 3.782 84.131" fill="none" stroke="#000" stroke-width="3"/>
<path d="m409.76 72.561s-57.685-22.161-108.26-22.161c-50.579 0-108.26 22.161-108.26 22.161s-6.518 32.264-6.518 65.506 6.518 65.505 6.518 65.505 57.684 22.162 108.26 22.162c50.578 0 108.26-22.162 108.26-22.162s6.519-32.264 6.519-65.505-6.519-65.506-6.519-65.506z" fill="none" stroke="#000" stroke-width="3"/>
</g>
<g>
<path d="m1.5 1.5v458.87c0 166.31 134.31 301.13 300 301.13 165.69 0 300-134.82 300-301.13v-458.87h-600z" fill="url(#a)"/>
<path d="m1.5 1.5v458.87c0 166.31 134.31 301.13 300 301.13 165.69 0 300-134.82 300-301.13v-458.87h-600z" fill="none" stroke="#000" stroke-width="3"/>
</g>
</svg>
