<?xml version="1.0" encoding="UTF-8"?>
<svg version="1.0" viewBox="0 0 603 763" xmlns="http://www.w3.org/2000/svg" xmlns:cc="http://creativecommons.org/ns#" xmlns:dc="http://purl.org/dc/elements/1.1/" xmlns:rdf="http://www.w3.org/1999/02/22-rdf-syntax-ns#" xmlns:xlink="http://www.w3.org/1999/xlink">
<metadata>
<rdf:RDF>
<cc:Work rdf:about="">
<dc:format>image/svg+xml</dc:format>
<dc:type rdf:resource="http://purl.org/dc/dcmitype/StillImage"/>
<dc:date>07-AUG-2006</dc:date>
<dc:creator>
<cc:Agent>
<dc:title>Jérôme BLUM (wagner51)</dc:title>
</cc:Agent>
</dc:creator>
<cc:license rdf:resource="http://creativecommons.org/licenses/GPL/2.0/"/>
<dc:coverage/>
<dc:description>Gabarit pour le Projet:Blasons de WIkipédia</dc:description>
<dc:subject>
<rdf:Bag>
<rdf:li>blason suisse modèle gabarit projet blasons</rdf:li>
</rdf:Bag>
</dc:subject>
<dc:language>fr</dc:language>
<dc:title>Gabrit d'un blason suisse</dc:title>
</cc:Work>
<cc:License rdf:about="http://creativecommons.org/licenses/GPL/2.0/">
<cc:permits rdf:resource="http://web.resource.org/cc/Reproduction"/>
<cc:permits rdf:resource="http://web.resource.org/cc/Distribution"/>
<cc:requires rdf:resource="http://web.resource.org/cc/Notice"/>
<cc:permits rdf:resource="http://web.resource.org/cc/DerivativeWorks"/>
<cc:requires rdf:resource="http://web.resource.org/cc/ShareAlike"/>
<cc:requires rdf:resource="http://web.resource.org/cc/SourceCode"/>
</cc:License>
</rdf:RDF>
</metadata>
<defs>
<radialGradient id="a" cx="858.04" cy="579.93" r="300" gradientTransform="matrix(1.215 1.5316e-24 1.4647e-23 1.2667 -839.19 -490.49)" gradientUnits="userSpaceOnUse">
<stop stop-color="#fff" stop-opacity=".31373" offset="0"/>
<stop stop-color="#fff" stop-opacity=".25098" offset=".19"/>
<stop stop-color="#6b6b6b" stop-opacity=".12549" offset=".6"/>
<stop stop-opacity=".12549" offset="1"/>
</radialGradient>
</defs>
<desc>Coat of Arms of Canton of Freiburg (Fribourg)</desc>
<g>
<path d="m1.502 1.5v458.87c0 166.31 134.31 301.13 300 301.13s300-134.82 300-301.13v-458.87h-600z" fill="#2b5df2"/>
</g>
<g>
<path d="m601.5 447.99-300-300-300 300v12.381c0 47.908 11.164 93.189 30.994 133.4 111.22-111.22 231.88-231.88 269.01-269.01 37.13 37.129 157.78 157.78 269.01 269.01 19.83-40.213 30.993-85.494 30.993-133.4v-12.381z" fill="#fff"/>
<path d="m32.495 593.77c111.22-111.22 231.88-231.88 269-269.01 37.13 37.129 157.78 157.78 269.01 269.01" fill="none" stroke="#000" stroke-width="3"/>
<polyline transform="translate(-.037 -.045)" points="601.54 448.03 301.54 148.03 1.539 448.03" fill="none" stroke="#000" stroke-width="3"/>
<g fill="#fcef3c" stroke="#000" stroke-width="3">
<path d="m479.37 53.237c14.225 8.534 28.006 2.222 45.109 5.283 3.403 3.403 0 7.721 0 7.721-12.049-1.269-23.851 2.164-36.563 0.452 1.481 5.542 3.294 16.188 0.19 28.809h-7.619s6.646-13.306 0.898-30.169c-1.469-0.419-2.954-0.921-4.454-1.529-17.067-6.909-34.137 0-34.137 0 0-8.128-6.502-9.753-6.502-9.753 10.161-5.692 28.857-9.349 43.078-0.814z"/>
<circle transform="translate(-.037 -.045)" cx="461.94" cy="158.94" r="19.507"></circle>
<circle transform="translate(-.037 -.045)" cx="499.86" cy="152.66" r="19.507"></circle>
<circle transform="translate(-.037 -.045)" cx="507.58" cy="181.28" r="19.507"></circle>
<circle transform="translate(-.037 -.045)" cx="479.14" cy="194.27" r="19.506"></circle>
<circle transform="translate(-.037 -.045)" cx="494.03" cy="224.56" r="19.507"></circle>
<circle transform="translate(-.037 -.045)" cx="470.47" cy="222.95" r="19.506"></circle>
<circle transform="translate(-.037 -.045)" cx="447.14" cy="201.39" r="19.506"></circle>
<circle transform="translate(-.037 -.045)" cx="462.44" cy="120.59" r="19.507"></circle>
<circle transform="translate(-.037 -.045)" cx="514.36" cy="99.203" r="19.506"></circle>
<circle transform="translate(-.037 -.045)" cx="425.36" cy="99.203" r="19.506"></circle>
<circle transform="translate(-.037 -.045)" cx="458.28" cy="99.203" r="19.506"></circle>
<circle transform="translate(-.037 -.045)" cx="486.02" cy="107.43" r="19.507"></circle>
<circle transform="translate(-.037 -.045)" cx="483.58" cy="248.55" r="19.507"></circle>
<circle transform="translate(-.037 -.045)" cx="450.97" cy="222.95" r="19.506"></circle>
<circle transform="translate(-.037 -.045)" cx="483.88" cy="213.19" r="19.507"></circle>
<circle transform="translate(-.037 -.045)" cx="513.75" cy="199.78" r="19.506"></circle>
<circle transform="translate(-.037 -.045)" cx="410.73" cy="133.34" r="19.507"></circle>
<circle transform="translate(-.037 -.045)" cx="432.07" cy="184.54" r="19.506"></circle>
<circle transform="translate(-.037 -.045)" cx="527.16" cy="161.38" r="19.507"></circle>
<circle transform="translate(-.037 -.045)" cx="457.06" cy="185.15" r="19.506"></circle>
<circle transform="translate(-.037 -.045)" cx="488.76" cy="168.7" r="19.507"></circle>
<circle transform="translate(-.037 -.045)" cx="441.21" cy="122.37" r="19.507"></circle>
<circle transform="translate(-.037 -.045)" cx="538.75" cy="119.32" r="19.507"></circle>
<circle transform="translate(-.037 -.045)" cx="510.7" cy="132.73" r="19.507"></circle>
<circle transform="translate(-.037 -.045)" cx="472.91" cy="138.22" r="19.507"></circle>
<circle transform="translate(-.037 -.045)" cx="435.73" cy="152.84" r="19.507"></circle>
</g>
<g fill="#fcef3c" stroke="#000" stroke-width="3">
<path d="m166.7 54.052s-6.502 1.625-6.502 9.753c0 0-17.069-6.909-34.137 0-1.5 0.608-2.985 1.109-4.454 1.529-5.747 16.863 0.898 30.169 0.898 30.169h-7.619c-3.103-12.62-1.291-23.266 0.191-28.809-12.712 1.711-24.514-1.721-36.563-0.452 0 0-3.403-4.318 0-7.721 17.104-3.061 30.886 3.251 45.109-5.283 14.223-8.536 32.919-4.879 43.077 0.814z"/>
<circle transform="translate(-.037 -.045)" cx="141.14" cy="158.94" r="19.506"></circle>
<circle transform="translate(-.037 -.045)" cx="103.21" cy="152.66" r="19.507"></circle>
<circle transform="translate(-.037 -.045)" cx="95.493" cy="181.28" r="19.506"></circle>
<circle transform="translate(-.037 -.045)" cx="123.93" cy="194.27" r="19.506"></circle>
<circle transform="translate(-.037 -.045)" cx="109.04" cy="224.56" r="19.506"></circle>
<circle transform="translate(-.037 -.045)" cx="132.6" cy="222.95" r="19.507"></circle>
<circle transform="translate(-.037 -.045)" cx="155.94" cy="201.39" r="19.506"></circle>
<circle transform="translate(-.037 -.045)" cx="140.63" cy="120.59" r="19.507"></circle>
<circle transform="translate(-.037 -.045)" cx="88.713" cy="99.203" r="19.507"></circle>
<circle transform="translate(-.037 -.045)" cx="177.71" cy="99.203" r="19.506"></circle>
<circle transform="translate(-.037 -.045)" cx="144.79" cy="99.203" r="19.506"></circle>
<circle transform="translate(-.037 -.045)" cx="117.06" cy="107.43" r="19.507"></circle>
<circle transform="translate(-.037 -.045)" cx="119.5" cy="248.55" r="19.506"></circle>
<circle transform="translate(-.037 -.045)" cx="152.11" cy="222.95" r="19.506"></circle>
<circle transform="translate(-.037 -.045)" cx="119.19" cy="213.19" r="19.506"></circle>
<circle transform="translate(-.037 -.045)" cx="89.322" cy="199.78" r="19.507"></circle>
<circle transform="translate(-.037 -.045)" cx="192.34" cy="133.34" r="19.506"></circle>
<circle transform="translate(-.037 -.045)" cx="171" cy="184.54" r="19.506"></circle>
<circle transform="translate(-.037 -.045)" cx="75.912" cy="161.38" r="19.506"></circle>
<circle transform="translate(-.037 -.045)" cx="146.02" cy="185.15" r="19.507"></circle>
<circle transform="translate(-.037 -.045)" cx="114.31" cy="168.69" r="19.506"></circle>
<circle transform="translate(-.037 -.045)" cx="161.86" cy="122.37" r="19.507"></circle>
<circle transform="translate(-.037 -.045)" cx="64.33" cy="119.32" r="19.506"></circle>
<circle transform="translate(-.037 -.045)" cx="92.371" cy="132.73" r="19.506"></circle>
<circle transform="translate(-.037 -.045)" cx="130.16" cy="138.22" r="19.507"></circle>
<circle transform="translate(-.037 -.045)" cx="167.35" cy="152.85" r="19.507"></circle>
</g>
<g fill="#fcef3c" stroke="#000" stroke-width="3">
<path d="m340.84 471.22s-6.502 1.625-6.502 9.753c0 0-17.069-6.909-34.137 0-1.5 0.608-2.985 1.108-4.455 1.528-5.747 16.863 0.898 30.17 0.898 30.17h-7.619c-3.103-12.621-1.291-23.267 0.191-28.81-12.712 1.712-24.514-1.721-36.563-0.452 0 0-3.403-4.318 0-7.721 17.104-3.061 30.886 3.251 45.109-5.283 14.224-8.534 32.92-4.878 43.078 0.815z"/>
<circle transform="translate(-.037 -.045)" cx="315.28" cy="576.11" r="19.506"></circle>
<circle transform="translate(-.037 -.045)" cx="277.35" cy="569.83" r="19.507"></circle>
<circle transform="translate(-.037 -.045)" cx="269.63" cy="598.45" r="19.506"></circle>
<circle transform="translate(-.037 -.045)" cx="298.07" cy="611.44" r="19.506"></circle>
<circle transform="translate(-.037 -.045)" cx="283.18" cy="641.73" r="19.506"></circle>
<circle transform="translate(-.037 -.045)" cx="306.74" cy="640.11" r="19.507"></circle>
<circle transform="translate(-.037 -.045)" cx="330.08" cy="618.55" r="19.506"></circle>
<circle transform="translate(-.037 -.045)" cx="314.77" cy="537.76" r="19.507"></circle>
<circle transform="translate(-.037 -.045)" cx="262.85" cy="516.37" r="19.507"></circle>
<circle transform="translate(-.037 -.045)" cx="351.85" cy="516.37" r="19.506"></circle>
<circle transform="translate(-.037 -.045)" cx="318.93" cy="516.37" r="19.506"></circle>
<circle transform="translate(-.037 -.045)" cx="291.2" cy="524.6" r="19.507"></circle>
<circle transform="translate(-.037 -.045)" cx="293.64" cy="665.72" r="19.506"></circle>
<circle transform="translate(-.037 -.045)" cx="326.25" cy="640.11" r="19.506"></circle>
<circle transform="translate(-.037 -.045)" cx="293.33" cy="630.36" r="19.506"></circle>
<circle transform="translate(-.037 -.045)" cx="263.46" cy="616.95" r="19.507"></circle>
<circle transform="translate(-.037 -.045)" cx="366.48" cy="550.5" r="19.506"></circle>
<circle transform="translate(-.037 -.045)" cx="345.14" cy="601.71" r="19.506"></circle>
<circle transform="translate(-.037 -.045)" cx="250.05" cy="578.55" r="19.506"></circle>
<circle transform="translate(-.037 -.045)" cx="320.15" cy="602.32" r="19.507"></circle>
<circle transform="translate(-.037 -.045)" cx="288.45" cy="585.86" r="19.506"></circle>
<circle transform="translate(-.037 -.045)" cx="336" cy="539.53" r="19.507"></circle>
<circle transform="translate(-.037 -.045)" cx="238.47" cy="536.49" r="19.506"></circle>
<circle transform="translate(-.037 -.045)" cx="266.51" cy="549.9" r="19.506"></circle>
<circle transform="translate(-.037 -.045)" cx="304.3" cy="555.38" r="19.507"></circle>
<circle transform="translate(-.037 -.045)" cx="341.49" cy="570.01" r="19.507"></circle>
</g>
</g>
<g>
<path d="m1.5 1.5v458.87c0 166.31 134.31 301.13 300 301.13 165.69 0 300-134.82 300-301.13v-458.87h-600z" fill="url(#a)"/>
<path d="m1.5 1.5v458.87c0 166.31 134.31 301.13 300 301.13 165.69 0 300-134.82 300-301.13v-458.87h-600z" fill="none" stroke="#000" stroke-width="3"/>
</g>
</svg>
