<?xml version="1.0" encoding="UTF-8" standalone="no"?>
<svg
   xmlns:dc="http://purl.org/dc/elements/1.1/"
   xmlns:cc="http://creativecommons.org/ns#"
   xmlns:rdf="http://www.w3.org/1999/02/22-rdf-syntax-ns#"
   xmlns:svg="http://www.w3.org/2000/svg"
   xmlns="http://www.w3.org/2000/svg"
   xmlns:xlink="http://www.w3.org/1999/xlink"
   xmlns:sodipodi="http://sodipodi.sourceforge.net/DTD/sodipodi-0.dtd"
   xmlns:inkscape="http://www.inkscape.org/namespaces/inkscape"
   height="763"
   width="603"
   version="1.0"
   id="svg20"
   sodipodi:version="0.32"
   inkscape:version="0.46"
   sodipodi:docname="Denges-coat_of_arms.svg"
   sodipodi:docbase="C:\Documents and Settings\Steve\Bureau\Blason Villages Suisse pour Wikipédia (par Delta-9)"
   inkscape:output_extension="org.inkscape.output.svg.inkscape">
  <metadata
     id="metadata31">
    <rdf:RDF>
      <cc:Work
         rdf:about="">
        <dc:format>image/svg+xml</dc:format>
        <dc:type
           rdf:resource="http://purl.org/dc/dcmitype/StillImage" />
        <dc:date>07-AUG-2006</dc:date>
        <dc:creator>
          <cc:Agent>
            <dc:title>Jérôme BLUM (wagner51)</dc:title>
          </cc:Agent>
        </dc:creator>
        <cc:license
           rdf:resource="http://creativecommons.org/licenses/GPL/2.0/" />
        <dc:coverage />
        <dc:description>Gabarit pour le Projet:Blasons de WIkipédia</dc:description>
        <dc:subject>
          <rdf:Bag>
            <rdf:li>blason suisse modèle gabarit projet blasons</rdf:li>
          </rdf:Bag>
        </dc:subject>
        <dc:language>fr</dc:language>
        <dc:title>Gabrit d'un blason suisse</dc:title>
      </cc:Work>
      <cc:License
         rdf:about="http://creativecommons.org/licenses/GPL/2.0/">
        <cc:permits
           rdf:resource="http://web.resource.org/cc/Reproduction" />
        <cc:permits
           rdf:resource="http://web.resource.org/cc/Distribution" />
        <cc:requires
           rdf:resource="http://web.resource.org/cc/Notice" />
        <cc:permits
           rdf:resource="http://web.resource.org/cc/DerivativeWorks" />
        <cc:requires
           rdf:resource="http://web.resource.org/cc/ShareAlike" />
        <cc:requires
           rdf:resource="http://web.resource.org/cc/SourceCode" />
      </cc:License>
    </rdf:RDF>
  </metadata>
  <defs
     id="defs29">
    <inkscape:perspective
       sodipodi:type="inkscape:persp3d"
       inkscape:vp_x="0 : 381.5 : 1"
       inkscape:vp_y="0 : 1000 : 0"
       inkscape:vp_z="603 : 381.5 : 1"
       inkscape:persp3d-origin="301.5 : 254.33333 : 1"
       id="perspective28" />
    <linearGradient
       id="linearGradient2893">
      <stop
         style="stop-color:#ffffff;stop-opacity:0.3137255;"
         offset="0"
         id="stop2895" />
      <stop
         id="stop2897"
         offset="0.19"
         style="stop-color:#ffffff;stop-opacity:0.25098041;" />
      <stop
         style="stop-color:#6b6b6b;stop-opacity:0.1254902;"
         offset="0.60000002"
         id="stop2901" />
      <stop
         style="stop-color:#000000;stop-opacity:0.1254902;"
         offset="1"
         id="stop2899" />
    </linearGradient>
    <linearGradient
       id="linearGradient2955">
      <stop
         style="stop-color:white;stop-opacity:0;"
         offset="0"
         id="stop2965" />
      <stop
         style="stop-color:black;stop-opacity:0.64583331;"
         offset="1"
         id="stop2959" />
    </linearGradient>
    <radialGradient
       inkscape:collect="always"
       xlink:href="#linearGradient2893"
       id="radialGradient3236"
       gradientUnits="userSpaceOnUse"
       gradientTransform="matrix(1.215027,1.531577e-24,1.464684e-23,1.266667,-839.1924,-490.4894)"
       cx="858.04236"
       cy="579.93323"
       fx="858.04236"
       fy="579.93323"
       r="300" />
    <inkscape:perspective
       id="perspective2544"
       inkscape:persp3d-origin="297.63751 : 280.63 : 1"
       inkscape:vp_z="595.27502 : 420.94501 : 1"
       inkscape:vp_y="0 : 1000 : 0"
       inkscape:vp_x="0 : 420.94501 : 1"
       sodipodi:type="inkscape:persp3d" />
  </defs>
  <sodipodi:namedview
     inkscape:window-height="887"
     inkscape:window-width="1205"
     inkscape:pageshadow="2"
     inkscape:pageopacity="0.0"
     guidetolerance="10.0"
     gridtolerance="10.0"
     objecttolerance="10.0"
     borderopacity="1.0"
     bordercolor="#666666"
     pagecolor="#ffffff"
     id="base"
     inkscape:zoom="0.68873437"
     inkscape:cx="135.72469"
     inkscape:cy="373.12717"
     inkscape:window-x="1320"
     inkscape:window-y="43"
     inkscape:current-layer="layer2"
     showgrid="false"
     showguides="true"
     inkscape:guide-bbox="true">
    <sodipodi:guide
       orientation="horizontal"
       position="761.5"
       id="guide1885" />
    <sodipodi:guide
       orientation="vertical"
       position="1.5"
       id="guide1887" />
    <sodipodi:guide
       orientation="horizontal"
       position="1.5"
       id="guide1889" />
    <sodipodi:guide
       orientation="vertical"
       position="601.5"
       id="guide1891" />
    <sodipodi:guide
       orientation="vertical"
       position="301.50081"
       id="guide1893" />
  </sodipodi:namedview>
  <desc
     id="desc22">Coat of Arms of Canton of Freiburg (Fribourg)</desc>
  <g
     inkscape:groupmode="layer"
     id="layer1"
     inkscape:label="Fond écu"
     style="opacity:1;display:inline"
     sodipodi:insensitive="true">
    <path
       id="path1899"
       d="M 1.5,1.49998 L 1.5,460.3679 C 1.5,626.6785 135.81456,761.5 301.49999,761.5 C 467.18543,761.5 601.5,626.6785 601.5,460.3679 L 601.5,1.49998 L 1.5,1.49998 z"
       style="fill:#e20909;fill-opacity:1" />
    <rect
       id="rect2505"
       height="365.5"
       width="600"
       y="1.5"
       x="1.5"
       style="opacity:1;fill:#ffffff" />
  </g>
  <g
     inkscape:groupmode="layer"
     id="layer2"
     inkscape:label="Meubles"
     style="opacity:1;display:inline"
     sodipodi:insensitive="true">
    <line
       id="line2509"
       y2="367.00003"
       x2="601.49896"
       y1="367.00003"
       x1="1.5"
       style="fill:none;stroke:#000000;stroke-width:3" />
    <g
       id="g2632">
      <path
         id="path2513"
         d="M 301.499,281.067 C 289.559,281.067 277.858,282.057 266.474,283.936 L 275.989,331.771 C 284.288,330.438 292.809,329.733 301.5,329.733 C 310.191,329.733 318.711,330.438 327.011,331.771 L 336.526,283.936 C 325.14,282.057 313.44,281.067 301.499,281.067 z M 194.531,309.911 L 221.992,351.009 C 236.597,342.509 252.808,336.279 270.081,332.83 L 260.565,284.989 C 236.801,289.606 214.53,298.168 194.531,309.911 z M 342.433,284.989 L 332.916,332.83 C 350.189,336.279 366.4,342.509 381.006,351.009 L 408.467,309.911 C 388.468,298.168 366.197,289.606 342.433,284.989 z M 136.215,361.352 L 178.16,389.379 C 188.79,375.589 201.9,363.64 216.864,354.134 L 189.399,313.029 C 168.763,325.968 150.73,342.366 136.215,361.352 z M 102.211,432.701 L 152.454,442.694 C 156.705,425.11 164.308,408.733 174.586,394.207 L 132.636,366.177 C 118.398,386.035 107.931,408.522 102.211,432.701 z M 413.599,313.029 L 386.133,354.134 C 401.097,363.64 414.208,375.589 424.837,389.379 L 466.783,361.352 C 452.269,342.365 434.235,325.968 413.599,313.029 z M 97.231,475.4 L 148.564,475.4 C 148.564,466.231 149.468,457.261 151.177,448.558 L 100.928,438.563 C 98.512005,450.495 97.231,462.807 97.231,475.4 z M 502.069,438.563 L 451.82,448.558 C 453.53,457.261 454.433,466.231 454.433,475.4 L 505.766,475.4 C 505.767,462.807 504.485,450.495 502.069,438.563 z M 470.363,366.177 L 428.413,394.207 C 438.69,408.733 446.294,425.11 450.545,442.694 L 500.787,432.701 C 495.066,408.522 484.6,386.035 470.363,366.177 z" />
      <path
         id="path2515"
         d="M 505.767,475.4 L 528.767,475.4 C 528.767,355.37 427.016,258.067 301.499,258.067 C 175.982,258.067 74.231,355.37 74.231,475.4 L 86.767,475.4 L 97.231,475.4 C 97.231,462.807 98.512005,450.495 100.928,438.563 L 151.177,448.558 C 149.468,457.261 148.564,466.231 148.564,475.4 L 171.564,475.4 C 171.564,407.653 229.738,352.733 301.499,352.733 C 373.26,352.733 431.434,407.652 431.434,475.4 L 454.434,475.4 C 454.434,466.231 453.531,457.261 451.821,448.558 L 502.07,438.563 C 504.485,450.495 505.767,462.807 505.767,475.4 z M 408.467,309.911 L 381.006,351.009 C 366.401,342.509 350.19,336.279 332.916,332.83 L 342.433,284.989 C 366.197,289.606 388.468,298.168 408.467,309.911 z M 260.566,284.989 L 270.082,332.83 C 252.809,336.279 236.598,342.509 221.993,351.009 L 194.532,309.911 C 214.53,298.168 236.801,289.606 260.566,284.989 z M 152.453,442.694 L 102.21,432.701 C 107.93,408.522 118.398,386.035 132.634,366.177 L 174.584,394.207 C 164.308,408.733 156.705,425.11 152.453,442.694 z M 178.16,389.379 L 136.215,361.352 C 150.73,342.366 168.763,325.968 189.399,313.03 L 216.864,354.135 C 201.9,363.641 188.79,375.589 178.16,389.379 z M 275.988,331.771 L 266.473,283.936 C 277.857,282.057 289.558,281.067 301.498,281.067 C 313.438,281.067 325.139,282.057 336.523,283.936 L 327.008,331.771 C 318.708,330.438 310.189,329.733 301.497,329.733 C 292.808,329.733 284.288,330.438 275.988,331.771 z M 386.133,354.134 L 413.599,313.029 C 434.236,325.967 452.269,342.365 466.784,361.352 L 424.838,389.379 C 414.208,375.589 401.097,363.64 386.133,354.134 z M 450.545,442.694 C 446.294,425.11 438.691,408.733 428.413,394.207 L 470.363,366.177 C 484.599,386.035 495.066,408.522 500.787,432.701 L 450.545,442.694 z"
         style="fill:#ffffff;stroke:#000000;stroke-width:3" />
      <line
         id="line2517"
         y2="475.40002"
         x2="505.767"
         y1="475.40002"
         x1="454.43399"
         style="fill:none;stroke:#000000;stroke-width:3" />
      <line
         id="line2519"
         y2="475.40002"
         x2="148.565"
         y1="475.40002"
         x1="97.231995"
         style="fill:none;stroke:#000000;stroke-width:3" />
    </g>
  </g>
  <g
     inkscape:groupmode="layer"
     id="layer3"
     inkscape:label="Reflet final"
     style="display:inline"
     sodipodi:insensitive="true">
    <path
       style="fill:url(#radialGradient3236);fill-opacity:1"
       d="M 1.5,1.5 L 1.5,460.3679 C 1.5,626.67854 135.81454,761.5 301.49993,761.5 C 467.1854,761.5 601.5,626.67854 601.5,460.3679 L 601.5,1.5 L 1.5,1.5 z "
       id="path2346" />
  </g>
  <g
     inkscape:groupmode="layer"
     id="layer4"
     inkscape:label="Contour final"
     style="display:inline"
     sodipodi:insensitive="true">
    <path
       style="fill:none;fill-opacity:1;stroke:#000000;stroke-width:3;stroke-miterlimit:4;stroke-dasharray:none;stroke-opacity:1"
       d="M 1.5,1.5 L 1.5,460.36794 C 1.5,626.67854 135.81454,761.5 301.49993,761.5 C 467.1854,761.5 601.5,626.67854 601.5,460.36794 L 601.5,1.5 L 1.5,1.5 z "
       id="path3239" />
  </g>
</svg>
