<?xml version="1.0" encoding="UTF-8"?>
<svg version="1.0" viewBox="0 0 603 763" xmlns="http://www.w3.org/2000/svg" xmlns:cc="http://creativecommons.org/ns#" xmlns:dc="http://purl.org/dc/elements/1.1/" xmlns:rdf="http://www.w3.org/1999/02/22-rdf-syntax-ns#" xmlns:xlink="http://www.w3.org/1999/xlink">
<metadata>
<rdf:RDF>
<cc:Work rdf:about="">
<dc:format>image/svg+xml</dc:format>
<dc:type rdf:resource="http://purl.org/dc/dcmitype/StillImage"/>
<dc:date>07-AUG-2006</dc:date>
<dc:creator>
<cc:Agent>
<dc:title>Jérôme BLUM (wagner51)</dc:title>
</cc:Agent>
</dc:creator>
<cc:license rdf:resource="http://creativecommons.org/licenses/GPL/2.0/"/>
<dc:coverage/>
<dc:description>Gabarit pour le Projet:Blasons de WIkipédia</dc:description>
<dc:subject>
<rdf:Bag>
<rdf:li>blason suisse modèle gabarit projet blasons</rdf:li>
</rdf:Bag>
</dc:subject>
<dc:language>fr</dc:language>
<dc:title>Gabrit d'un blason suisse</dc:title>
</cc:Work>
<cc:License rdf:about="http://creativecommons.org/licenses/GPL/2.0/">
<cc:permits rdf:resource="http://web.resource.org/cc/Reproduction"/>
<cc:permits rdf:resource="http://web.resource.org/cc/Distribution"/>
<cc:requires rdf:resource="http://web.resource.org/cc/Notice"/>
<cc:permits rdf:resource="http://web.resource.org/cc/DerivativeWorks"/>
<cc:requires rdf:resource="http://web.resource.org/cc/ShareAlike"/>
<cc:requires rdf:resource="http://web.resource.org/cc/SourceCode"/>
</cc:License>
</rdf:RDF>
</metadata>
<defs>
<radialGradient id="a" cx="858.04" cy="579.93" r="300" gradientTransform="matrix(1.215 1.5316e-24 1.4647e-23 1.2667 -839.19 -490.49)" gradientUnits="userSpaceOnUse">
<stop stop-color="#fff" stop-opacity=".31373" offset="0"/>
<stop stop-color="#fff" stop-opacity=".25098" offset=".19"/>
<stop stop-color="#6b6b6b" stop-opacity=".12549" offset=".6"/>
<stop stop-opacity=".12549" offset="1"/>
</radialGradient>
</defs>
<desc>Coat of Arms of Canton of Freiburg (Fribourg)</desc>
<g>
<path d="m1.5 1.499v458.87c0 166.31 134.31 301.13 300 301.13 165.69 0 300-134.82 300-301.13v-458.87h-600z" fill="#2b5df2"/>
<path d="m1.5 1.499v458.87c0 166.31 134.31 301.13 300 301.13v-760h-300v-1e-3z" fill="#e20909"/>
<path d="m281.77 334.72c-3.053-3.053-7.113-4.735-11.43-4.735h-1.311v-2.317c0-8.914-7.251-16.163-16.163-16.163-8.913 0-16.165 7.251-16.165 16.163v5.184h-71.902v-160.84h5.181c8.916 0 16.165-7.252 16.165-16.165s-7.251-16.164-16.165-16.164h-2.317v-1.31c0-8.914-7.251-16.165-16.165-16.165-8.912 0-16.163 7.252-16.163 16.165v1.31h-2.318c-8.913 0-16.164 7.252-16.164 16.164 0 8.913 7.251 16.165 16.164 16.165h5.184v160.84h-71.904v-5.184c0-8.914-7.251-16.163-16.163-16.163-8.913 0-16.165 7.251-16.165 16.163v2.317h-1.309c-8.915 0-16.166 7.251-16.166 16.164 0 8.914 7.251 16.166 16.166 16.166h1.309v2.316c0 8.913 7.252 16.165 16.165 16.165 8.912 0 16.163-7.251 16.163-16.165v-5.181h71.904v160.84h-5.184c-4.317 0-8.375 1.681-11.431 4.732-3.051 3.055-4.733 7.114-4.733 11.433 0 8.913 7.251 16.163 16.164 16.163h2.318v1.311c0 8.912 7.251 16.163 16.163 16.163 8.914 0 16.165-7.251 16.165-16.163v-1.311h2.317c8.916 0 16.165-7.252 16.165-16.163 0-4.318-1.681-8.378-4.735-11.433-3.052-3.052-7.111-4.732-11.429-4.732h-5.183v-160.84h71.904v5.181c0 8.913 7.251 16.165 16.163 16.165 8.914 0 16.165-7.251 16.165-16.165v-2.316h1.308c8.914 0 16.165-7.252 16.165-16.166v-1e-3c0-4.315-1.679-8.375-4.733-11.428z" fill="#fff" stroke="#000" stroke-linecap="round" stroke-linejoin="round" stroke-width="3"/>
<line x1="301.5" x2="301.5" y1="761.5" y2="1.499" fill="none" stroke="#000" stroke-width="3"/>
<g fill="#fcef3c" stroke="#000" stroke-linecap="round" stroke-linejoin="round" stroke-width="3">
<polygon transform="translate(-.041 -.047003)" points="418.8 138.1 418.8 113.17 347.94 113.17 347.94 142.44 361.67 142.44 361.67 176.41 391.34 176.41 391.34 154.36 405.07 154.36 405.07 212.18 391.34 212.18 391.34 190.14 361.67 190.14 361.67 224.1 347.94 224.1 347.94 253.37 418.8 253.37 418.8 228.44 442.07 228.44 442.07 138.1"/>
<path d="m451.5 362.18-106.13 106.13 106.13 106.13 106.13-106.13-106.13-106.13zm21.255 127.39c1.688 13.066-2.65 30.077-21.255 39.348-18.604-9.271-22.943-26.281-21.255-39.348-13.067 1.686-30.08-2.65-39.347-21.256 9.267-18.606 26.279-22.944 39.347-21.257-1.688-13.066 2.65-30.08 21.255-39.347 18.604 9.267 22.943 26.28 21.255 39.347 13.067-1.688 30.08 2.65 39.348 21.257-9.268 18.605-26.281 22.941-39.348 21.256z"/>
<path d="m468.77 373.12v-267.58c0-3.394-2.752-6.146-6.145-6.146h-22.254c-3.393 0-6.145 2.751-6.145 6.146v267.58h34.544z"/>
<ellipse transform="translate(-.041 -.047003)" cx="350.65" cy="468.36" rx="12.085" ry="17.706"/>
<ellipse transform="translate(-.041 -.047003)" cx="552.42" cy="468.36" rx="12.084" ry="17.706"/>
<ellipse transform="translate(-.041 -.047003)" cx="451.54" cy="569.25" rx="17.704" ry="12.086"/>
<path d="m482.77 370.04c0-3.395-2.751-6.146-6.145-6.146h-50.256c-3.394 0-6.145 2.751-6.145 6.146v3.335c0 3.394 2.751 6.145 6.145 6.145h50.256c3.394 0 6.145-2.751 6.145-6.145v-3.335z"/>
<path d="m482.77 566.59c0 3.395-2.751 6.145-6.145 6.145h-50.256c-3.394 0-6.145-2.75-6.145-6.145v-3.335c0-3.394 2.751-6.146 6.145-6.146h50.256c3.394 0 6.145 2.752 6.145 6.146v3.335z"/>
<path d="m353.22 437.04c-3.395 0-6.146 2.751-6.146 6.146v50.256c0 3.394 2.751 6.145 6.146 6.145h3.334c3.396 0 6.146-2.751 6.146-6.145v-50.256c0-3.395-2.75-6.146-6.146-6.146h-3.334z"/>
<path d="m549.78 437.04c3.394 0 6.145 2.751 6.145 6.146v50.256c0 3.394-2.751 6.145-6.145 6.145h-3.334c-3.396 0-6.146-2.751-6.146-6.145v-50.256c0-3.395 2.749-6.146 6.146-6.146h3.334z"/>
</g>
</g>
<g>
<path d="m1.5 1.5v458.87c0 166.31 134.31 301.13 300 301.13 165.69 0 300-134.82 300-301.13v-458.87h-600z" fill="url(#a)"/>
<path d="m1.5 1.5v458.87c0 166.31 134.31 301.13 300 301.13 165.69 0 300-134.82 300-301.13v-458.87h-600z" fill="none" stroke="#000" stroke-width="3"/>
</g>
</svg>
