<?xml version="1.0" encoding="UTF-8"?>
<svg version="1.0" viewBox="0 0 603 763" xmlns="http://www.w3.org/2000/svg" xmlns:cc="http://creativecommons.org/ns#" xmlns:dc="http://purl.org/dc/elements/1.1/" xmlns:rdf="http://www.w3.org/1999/02/22-rdf-syntax-ns#" xmlns:xlink="http://www.w3.org/1999/xlink">
<metadata>
<rdf:RDF>
<cc:Work rdf:about="">
<dc:format>image/svg+xml</dc:format>
<dc:type rdf:resource="http://purl.org/dc/dcmitype/StillImage"/>
<dc:date>07-AUG-2006</dc:date>
<dc:creator>
<cc:Agent>
<dc:title>Jérôme BLUM (wagner51)</dc:title>
</cc:Agent>
</dc:creator>
<cc:license rdf:resource="http://creativecommons.org/licenses/GPL/2.0/"/>
<dc:coverage/>
<dc:description>Gabarit pour le Projet:Blasons de WIkipédia</dc:description>
<dc:subject>
<rdf:Bag>
<rdf:li>blason suisse modèle gabarit projet blasons</rdf:li>
</rdf:Bag>
</dc:subject>
<dc:language>fr</dc:language>
<dc:title>Gabrit d'un blason suisse</dc:title>
</cc:Work>
<cc:License rdf:about="http://creativecommons.org/licenses/GPL/2.0/">
<cc:permits rdf:resource="http://web.resource.org/cc/Reproduction"/>
<cc:permits rdf:resource="http://web.resource.org/cc/Distribution"/>
<cc:requires rdf:resource="http://web.resource.org/cc/Notice"/>
<cc:permits rdf:resource="http://web.resource.org/cc/DerivativeWorks"/>
<cc:requires rdf:resource="http://web.resource.org/cc/ShareAlike"/>
<cc:requires rdf:resource="http://web.resource.org/cc/SourceCode"/>
</cc:License>
</rdf:RDF>
</metadata>
<defs>
<radialGradient id="a" cx="858.04" cy="579.93" r="300" gradientTransform="matrix(1.215 1.5316e-24 1.4647e-23 1.2667 -839.19 -490.49)" gradientUnits="userSpaceOnUse">
<stop stop-color="#fff" stop-opacity=".31373" offset="0"/>
<stop stop-color="#fff" stop-opacity=".25098" offset=".19"/>
<stop stop-color="#6b6b6b" stop-opacity=".12549" offset=".6"/>
<stop stop-opacity=".12549" offset="1"/>
</radialGradient>
</defs>
<desc>Coat of Arms of Canton of Freiburg (Fribourg)</desc>
<g>
<path d="m1.503 1.5v458.87c0 166.31 134.31 301.13 300 301.13s300-134.82 300-301.13v-458.87h-600z" fill="#2b5df2"/>
<path d="m601.5 447.99-300-300-300 300v12.381c0 47.908 11.164 93.189 30.994 133.4 111.22-111.22 231.88-231.88 269.01-269.01 37.131 37.129 157.78 157.78 269.01 269.01 19.83-40.213 30.992-85.494 30.992-133.4v-12.381z" fill="#fff"/>
<path d="m32.496 593.77c111.22-111.22 231.88-231.88 269-269.01 37.131 37.129 157.78 157.78 269.01 269.01" fill="none" stroke="#000" stroke-width="3"/>
<polyline transform="translate(-.037 -.045)" points="601.54 448.03 301.54 148.03 1.54 448.03" fill="none" stroke="#000" stroke-width="3"/>
<g stroke="#000" stroke-linecap="round" stroke-linejoin="round">
<path d="m253.08 640.35s15.351 14.934 42.091 14.934c22.337 0 40.467 10.814 40.467 10.814s-14.65-4.535-15.349-1.744c-0.7 2.791 6.279 5.232 14.652 12.909 0 0-20.234-9.771-40.818-12.909-20.582-3.141-41.043-6.909-41.043-24.004z" fill="#fff" stroke-width="3"/>
<path d="m280.33 640.06s-2.709 15.229 14.84 15.229c17.548 0 14.839-14.453 14.839-14.453l-29.679-0.776z" fill="#fff" stroke-width="3"/>
<path d="m254.98 584.45s5.797-65.938 9.058-90.573c3.259-24.635 25.832-21.64 27.896-22.1 3.259-0.726 0.36-9.781 9.781-9.781 8.332 0 7.609 9.058 9.056 10.506 1.449 1.45 22.463 1.812 25 21.375 2.536 19.564 4.346 87.675 4.346 87.675l-6.883 20.286-38.766 8.696-31.156-4.348-8.332-21.736z" fill="#fff" stroke-width="3"/>
<path d="m313.52 479.24c6.354 1.197 13.961 5.351 15.609 18.076 2.537 19.563 4.536 90.706 4.536 90.706" fill="none" stroke-width="2.5"/>
<path d="m312.55 484.11c5.926 2.232 9 7.595 9.979 15.126 2.522 19.378 4.511 92.271 4.511 92.271" fill="none" stroke-width="2.5"/>
<path d="m311.63 489.86c2.073 2.493 3.66 5.912 4.244 10.591 2.425 19.392 3.813 92.971 3.813 92.971" fill="none" stroke-width="2.5"/>
<path d="m310.54 533.94c1.175 27.878 1.817 61.931 1.817 61.931" fill="none" stroke-width="2.5"/>
<path d="m304.74 569.18c0.422 15.313 0.644 27.033 0.644 27.033" fill="none" stroke-width="2.5"/>
<path d="m295.92 644.58c-22.825 0-46.736-16.303-46.736-40.939 0-24.635 3.987-20.286 5.797-19.199 0 0 0.725 12.318 38.766 12.318 38.04 0 46.371-15.216 46.371-15.216s4.712-3.263 5.073 5.434c0.362 8.694 6.521 57.602-49.271 57.602z" fill="#fff" stroke-width="3"/>
<path d="m281.15 646.8c1.371 0.424 12.854 4.116 28.168 0.61" fill="none" stroke-width="2.5"/>
<path d="m283.7 651.44s10.306 2.209 22.451 0.295" fill="none" stroke-width="2.5"/>
<path d="m261.5 598.52c1.181 2.224 21.708 40.271 48.049 44.941" fill="none" stroke-width="2.5"/>
<path d="m249.18 601.83c4.798 8.952 19.007 33.063 37.16 41.814" fill="none" stroke-width="2.5"/>
<path d="m279.92 602.36c5.97 9.225 22.376 31.837 42.681 36.99" fill="none" stroke-width="2.5"/>
<path d="m298.2 603.46c5.771 7.843 18.253 22.779 33.896 29.59" fill="none" stroke-width="2.5"/>
<path d="m312.83 602.82c4.786 5.595 14.115 15.311 26.009 21.82" fill="none" stroke-width="2.5"/>
<path d="m326.04 600.7c3.015 3.059 9.054 8.709 17.113 13.868" fill="none" stroke-width="2.5"/>
<path d="m338.84 596.03s-21.679 41.296-47.349 48.36" fill="none" stroke-width="2.5"/>
<path d="m343.78 612.18c-5.643 9.062-14.447 21.155-25.073 28.837" fill="none" stroke-width="2.5"/>
<path d="m319.35 602.02c-4.521 7.313-21.445 32.579-42.908 38.674" fill="none" stroke-width="2.5"/>
<path d="m301.02 603.44c-5.127 7.228-18.361 24.022-35.257 31.3" fill="none" stroke-width="2.5"/>
<path d="m286.4 603c-4.468 5.422-15.018 17.011-28.755 24.063" fill="none" stroke-width="2.5"/>
<path d="m272.98 601.29c-2.787 2.935-10.385 10.41-20.898 16.604" fill="none" stroke-width="2.5"/>
<path d="m259.73 597.96s-4.27 3.595-10.5 7.458" fill="none" stroke-width="2.5"/>
<path d="m250.98 594.36s-0.571 0.481-1.604 1.283" fill="none" stroke-width="2.5"/>
<path d="m337.08 596.92c1.029 0.845 4.756 3.857 8.2 6.199" fill="none" stroke-width="2.5"/>
<path d="m344.05 592.63c0.295 0.242 0.807 0.657 1.47 1.187" fill="none" stroke-width="2.5"/>
</g>
<g stroke="#000" stroke-linecap="round" stroke-linejoin="round">
<path d="m80.706 224.48s15.351 14.934 42.091 14.934c22.337 0 40.467 10.814 40.467 10.814s-14.651-4.535-15.349-1.744c-0.699 2.792 6.28 5.232 14.653 12.909 0 0-20.234-9.771-40.818-12.909-20.583-3.14-41.044-6.909-41.044-24.004z" fill="#fff" stroke-width="3"/>
<path d="m107.96 224.18s-2.709 15.229 14.84 15.229 14.839-14.454 14.839-14.454l-29.679-0.775z" fill="#fff" stroke-width="3"/>
<path d="m82.606 168.57s5.797-65.938 9.058-90.573c3.259-24.634 25.832-21.64 27.896-22.1 3.259-0.725 0.36-9.781 9.782-9.781 8.332 0 7.608 9.058 9.056 10.506 1.449 1.45 22.462 1.812 24.999 21.375 2.537 19.565 4.346 87.675 4.346 87.675l-6.883 20.287-38.766 8.696-31.156-4.348-8.332-21.737z" fill="#fff" stroke-width="3"/>
<path d="m141.15 63.365c6.354 1.197 13.961 5.351 15.61 18.076 2.537 19.564 4.536 90.707 4.536 90.707" fill="none" stroke-width="2.5"/>
<path d="m140.18 68.239c5.925 2.232 9 7.595 9.98 15.126 2.522 19.377 4.51 92.271 4.51 92.271" fill="none" stroke-width="2.5"/>
<path d="m139.26 73.99c2.074 2.493 3.66 5.912 4.245 10.591 2.425 19.392 3.813 92.971 3.813 92.971" fill="none" stroke-width="2.5"/>
<path d="m138.17 118.06c1.175 27.878 1.818 61.931 1.818 61.931" fill="none" stroke-width="2.5"/>
<path d="m132.37 153.31c0.421 15.314 0.643 27.034 0.643 27.034" fill="none" stroke-width="2.5"/>
<path d="m123.54 228.71c-22.825 0-46.736-16.302-46.736-40.938 0-24.635 3.987-20.287 5.797-19.2 0 0 0.725 12.318 38.766 12.318s46.371-15.215 46.371-15.215 4.712-3.263 5.073 5.434c0.361 8.693 6.52 57.601-49.271 57.601z" fill="#fff" stroke-width="3"/>
<path d="m108.78 230.92c1.371 0.424 12.854 4.116 28.168 0.611" fill="none" stroke-width="2.5"/>
<path d="m111.33 235.57s10.306 2.209 22.452 0.294" fill="none" stroke-width="2.5"/>
<path d="m89.127 182.65c1.181 2.224 21.708 40.271 48.049 44.942" fill="none" stroke-width="2.5"/>
<path d="m76.814 185.95c4.798 8.952 19.007 33.063 37.16 41.814" fill="none" stroke-width="2.5"/>
<path d="m107.55 186.49c5.97 9.225 22.376 31.836 42.681 36.99" fill="none" stroke-width="2.5"/>
<path d="m125.82 187.58c5.771 7.843 18.253 22.779 33.896 29.59" fill="none" stroke-width="2.5"/>
<path d="m140.46 186.94c4.786 5.595 14.116 15.311 26.009 21.82" fill="none" stroke-width="2.5"/>
<path d="m153.67 184.82c3.015 3.059 9.054 8.709 17.113 13.868" fill="none" stroke-width="2.5"/>
<path d="m166.46 180.16s-21.678 41.296-47.349 48.36" fill="none" stroke-width="2.5"/>
<path d="m171.41 196.3c-5.643 9.062-14.447 21.155-25.073 28.837" fill="none" stroke-width="2.5"/>
<path d="m146.98 186.14c-4.521 7.312-21.445 32.578-42.907 38.673" fill="none" stroke-width="2.5"/>
<path d="m128.65 187.56c-5.126 7.228-18.361 24.022-35.256 31.3" fill="none" stroke-width="2.5"/>
<path d="m114.03 187.13c-4.467 5.422-15.018 17.011-28.755 24.063" fill="none" stroke-width="2.5"/>
<path d="m100.6 185.42c-2.787 2.934-10.385 10.41-20.898 16.604" fill="none" stroke-width="2.5"/>
<path d="m87.36 182.08s-4.27 3.594-10.5 7.458" fill="none" stroke-width="2.5"/>
<path d="m78.609 178.48s-0.571 0.482-1.604 1.284" fill="none" stroke-width="2.5"/>
<path d="m164.71 181.04c1.03 0.844 4.756 3.857 8.201 6.199" fill="none" stroke-width="2.5"/>
<path d="m171.68 176.76c0.294 0.242 0.807 0.657 1.469 1.186" fill="none" stroke-width="2.5"/>
</g>
<g stroke="#000" stroke-linecap="round" stroke-linejoin="round">
<path d="m431.45 224.48s15.352 14.934 42.091 14.934c22.339 0 40.469 10.814 40.469 10.814s-14.65-4.535-15.349-1.744c-0.701 2.792 6.278 5.232 14.652 12.909 0 0-20.235-9.771-40.819-12.909-20.583-3.14-41.044-6.909-41.044-24.004z" fill="#fff" stroke-width="3"/>
<path d="m458.7 224.18s-2.709 15.229 14.839 15.229c17.549 0 14.84-14.454 14.84-14.454l-29.679-0.775z" fill="#fff" stroke-width="3"/>
<path d="m433.35 168.57s5.798-65.938 9.058-90.573c3.26-24.634 25.832-21.64 27.896-22.1 3.26-0.725 0.361-9.781 9.782-9.781 8.331 0 7.608 9.058 9.056 10.506 1.448 1.45 22.462 1.812 24.999 21.375 2.536 19.565 4.346 87.675 4.346 87.675l-6.883 20.287-38.766 8.696-31.156-4.348-8.332-21.737z" fill="#fff" stroke-width="3"/>
<path d="m491.89 63.365c6.353 1.197 13.96 5.351 15.609 18.076 2.537 19.564 4.535 90.707 4.535 90.707" fill="none" stroke-width="2.5"/>
<path d="m490.92 68.239c5.926 2.232 9 7.595 9.979 15.126 2.522 19.377 4.511 92.271 4.511 92.271" fill="none" stroke-width="2.5"/>
<path d="m490 73.99c2.074 2.493 3.66 5.912 4.245 10.591 2.424 19.392 3.813 92.971 3.813 92.971" fill="none" stroke-width="2.5"/>
<path d="m488.92 118.06c1.175 27.878 1.817 61.931 1.817 61.931" fill="none" stroke-width="2.5"/>
<path d="m483.11 153.31c0.422 15.314 0.644 27.034 0.644 27.034" fill="none" stroke-width="2.5"/>
<path d="m474.29 228.71c-22.825 0-46.735-16.302-46.735-40.938 0-24.635 3.987-20.287 5.797-19.2 0 0 0.725 12.318 38.766 12.318 38.04 0 46.371-15.215 46.371-15.215s4.712-3.263 5.073 5.434c0.361 8.693 6.521 57.601-49.272 57.601z" fill="#fff" stroke-width="3"/>
<path d="m459.52 230.92c1.372 0.424 12.854 4.116 28.169 0.611" fill="none" stroke-width="2.5"/>
<path d="m462.07 235.57s10.307 2.209 22.451 0.294" fill="none" stroke-width="2.5"/>
<path d="m439.87 182.65c1.182 2.224 21.708 40.271 48.05 44.942" fill="none" stroke-width="2.5"/>
<path d="m427.56 185.95c4.798 8.952 19.007 33.063 37.159 41.814" fill="none" stroke-width="2.5"/>
<path d="m458.3 186.49c5.969 9.225 22.376 31.836 42.681 36.99" fill="none" stroke-width="2.5"/>
<path d="m476.57 187.58c5.771 7.843 18.253 22.779 33.896 29.59" fill="none" stroke-width="2.5"/>
<path d="m491.2 186.94c4.786 5.595 14.116 15.311 26.009 21.82" fill="none" stroke-width="2.5"/>
<path d="m504.41 184.82c3.015 3.059 9.054 8.709 17.113 13.868" fill="none" stroke-width="2.5"/>
<path d="m517.21 180.16s-21.678 41.296-47.35 48.36" fill="none" stroke-width="2.5"/>
<path d="m522.16 196.3c-5.642 9.062-14.447 21.155-25.072 28.837" fill="none" stroke-width="2.5"/>
<path d="m497.72 186.14c-4.521 7.312-21.445 32.578-42.906 38.673" fill="none" stroke-width="2.5"/>
<path d="m479.4 187.56c-5.127 7.228-18.362 24.022-35.258 31.3" fill="none" stroke-width="2.5"/>
<path d="m464.77 187.13c-4.468 5.422-15.019 17.011-28.755 24.063" fill="none" stroke-width="2.5"/>
<path d="m451.35 185.42c-2.787 2.934-10.385 10.41-20.898 16.604" fill="none" stroke-width="2.5"/>
<path d="m438.1 182.08s-4.271 3.594-10.5 7.458" fill="none" stroke-width="2.5"/>
<path d="m429.35 178.48s-0.571 0.482-1.604 1.284" fill="none" stroke-width="2.5"/>
<path d="m515.46 181.04c1.028 0.844 4.755 3.857 8.199 6.199" fill="none" stroke-width="2.5"/>
<path d="m522.42 176.76c0.294 0.242 0.807 0.657 1.469 1.186" fill="none" stroke-width="2.5"/>
</g>
</g>
<g>
<path d="m1.5 1.5v458.87c0 166.31 134.31 301.13 300 301.13 165.69 0 300-134.82 300-301.13v-458.87h-600z" fill="url(#a)"/>
<path d="m1.5 1.5v458.87c0 166.31 134.31 301.13 300 301.13 165.69 0 300-134.82 300-301.13v-458.87h-600z" fill="none" stroke="#000" stroke-width="3"/>
</g>
</svg>
