<?xml version="1.0" encoding="UTF-8" standalone="no"?>
<svg
   xmlns:dc="http://purl.org/dc/elements/1.1/"
   xmlns:cc="http://creativecommons.org/ns#"
   xmlns:rdf="http://www.w3.org/1999/02/22-rdf-syntax-ns#"
   xmlns:svg="http://www.w3.org/2000/svg"
   xmlns="http://www.w3.org/2000/svg"
   xmlns:xlink="http://www.w3.org/1999/xlink"
   xmlns:sodipodi="http://sodipodi.sourceforge.net/DTD/sodipodi-0.dtd"
   xmlns:inkscape="http://www.inkscape.org/namespaces/inkscape"
   height="763"
   width="603"
   version="1.0"
   id="svg20"
   sodipodi:version="0.32"
   inkscape:version="0.46"
   sodipodi:docname="Reverolle-coat_of_arms.svg"
   sodipodi:docbase="C:\Documents and Settings\Steve\Bureau\Blason Villages Suisse pour Wikipédia (par Delta-9)"
   inkscape:output_extension="org.inkscape.output.svg.inkscape">
  <metadata
     id="metadata31">
    <rdf:RDF>
      <cc:Work
         rdf:about="">
        <dc:format>image/svg+xml</dc:format>
        <dc:type
           rdf:resource="http://purl.org/dc/dcmitype/StillImage" />
        <dc:date>07-AUG-2006</dc:date>
        <dc:creator>
          <cc:Agent>
            <dc:title>Jérôme BLUM (wagner51)</dc:title>
          </cc:Agent>
        </dc:creator>
        <cc:license
           rdf:resource="http://creativecommons.org/licenses/GPL/2.0/" />
        <dc:coverage />
        <dc:description>Gabarit pour le Projet:Blasons de WIkipédia</dc:description>
        <dc:subject>
          <rdf:Bag>
            <rdf:li>blason suisse modèle gabarit projet blasons</rdf:li>
          </rdf:Bag>
        </dc:subject>
        <dc:language>fr</dc:language>
        <dc:title>Gabrit d'un blason suisse</dc:title>
      </cc:Work>
      <cc:License
         rdf:about="http://creativecommons.org/licenses/GPL/2.0/">
        <cc:permits
           rdf:resource="http://web.resource.org/cc/Reproduction" />
        <cc:permits
           rdf:resource="http://web.resource.org/cc/Distribution" />
        <cc:requires
           rdf:resource="http://web.resource.org/cc/Notice" />
        <cc:permits
           rdf:resource="http://web.resource.org/cc/DerivativeWorks" />
        <cc:requires
           rdf:resource="http://web.resource.org/cc/ShareAlike" />
        <cc:requires
           rdf:resource="http://web.resource.org/cc/SourceCode" />
      </cc:License>
    </rdf:RDF>
  </metadata>
  <defs
     id="defs29"><inkscape:perspective
   sodipodi:type="inkscape:persp3d"
   inkscape:vp_x="0 : 381.5 : 1"
   inkscape:vp_y="0 : 1000 : 0"
   inkscape:vp_z="603 : 381.5 : 1"
   inkscape:persp3d-origin="301.5 : 254.33333 : 1"
   id="perspective28" />
<linearGradient
   id="linearGradient2893">
  <stop
     style="stop-color:#ffffff;stop-opacity:0.3137255;"
     offset="0"
     id="stop2895" />
  <stop
     id="stop2897"
     offset="0.19"
     style="stop-color:#ffffff;stop-opacity:0.25098041;" />
  <stop
     style="stop-color:#6b6b6b;stop-opacity:0.1254902;"
     offset="0.60000002"
     id="stop2901" />
  <stop
     style="stop-color:#000000;stop-opacity:0.1254902;"
     offset="1"
     id="stop2899" />
</linearGradient>
<linearGradient
   id="linearGradient2955">
  <stop
     style="stop-color:white;stop-opacity:0;"
     offset="0"
     id="stop2965" />
  <stop
     style="stop-color:black;stop-opacity:0.64583331;"
     offset="1"
     id="stop2959" />
</linearGradient>
<radialGradient
   inkscape:collect="always"
   xlink:href="#linearGradient2893"
   id="radialGradient3236"
   gradientUnits="userSpaceOnUse"
   gradientTransform="matrix(1.215027,1.531577e-24,1.464684e-23,1.266667,-839.1924,-490.4894)"
   cx="858.04236"
   cy="579.93323"
   fx="858.04236"
   fy="579.93323"
   r="300" />
<inkscape:perspective
   id="perspective2648"
   inkscape:persp3d-origin="297.63751 : 280.63 : 1"
   inkscape:vp_z="595.27502 : 420.94501 : 1"
   inkscape:vp_y="0 : 1000 : 0"
   inkscape:vp_x="0 : 420.94501 : 1"
   sodipodi:type="inkscape:persp3d" />

	
	

	

		
		
		
	
		
		
		
	
			
			
			
			
			
			
			
			
			
			
			
			
			
			
			
			
			
			
			
			
			
			
			
			
			
			
			
		
			
			
			
			
			
			
			
			
			
			
			
			
			
			
			
			
			
			
			
			
			
			
			
			
			
			
			
		
			
			
			
			
			
			
			
			
			
			
			
			
			
			
			
			
			
			
			
			
			
			
			
			
			
			
			
		</defs>
  <sodipodi:namedview
     inkscape:window-height="968"
     inkscape:window-width="1280"
     inkscape:pageshadow="2"
     inkscape:pageopacity="0.0"
     guidetolerance="10.0"
     gridtolerance="10.0"
     objecttolerance="10.0"
     borderopacity="1.0"
     bordercolor="#666666"
     pagecolor="#ffffff"
     id="base"
     inkscape:zoom="0.96099076"
     inkscape:cx="296.86901"
     inkscape:cy="384.79796"
     inkscape:window-x="1280"
     inkscape:window-y="22"
     inkscape:current-layer="layer2"
     showgrid="false"
     showguides="true"
     inkscape:guide-bbox="true">
    <sodipodi:guide
       orientation="horizontal"
       position="761.5"
       id="guide1885" />
    <sodipodi:guide
       orientation="vertical"
       position="1.5"
       id="guide1887" />
    <sodipodi:guide
       orientation="horizontal"
       position="1.5"
       id="guide1889" />
    <sodipodi:guide
       orientation="vertical"
       position="601.5"
       id="guide1891" />
    <sodipodi:guide
       orientation="vertical"
       position="301.50081"
       id="guide1893" />
  </sodipodi:namedview>
  <desc
     id="desc22">Coat of Arms of Canton of Freiburg (Fribourg)</desc>
  <g
     inkscape:groupmode="layer"
     id="layer1"
     inkscape:label="Fond écu"
     style="opacity:1;display:inline"
     sodipodi:insensitive="true">
    <path
       d="M 1.503,1.5 L 1.503,460.369 C 1.503,626.68 135.817,761.5 301.503,761.5 C 467.189,761.5 601.503,626.68 601.503,460.369 L 601.503,1.5 L 1.503,1.5 z"
       id="path2655"
       style="opacity:1;fill:#2b5df2;display:inline" />
  </g>
  <g
     inkscape:groupmode="layer"
     id="layer2"
     inkscape:label="Meubles"
     style="opacity:1;display:inline"
     sodipodi:insensitive="true">
    <path
       style="fill:#ffffff"
       id="path2579"
       d="M 601.5,447.988 L 301.5,147.988 L 1.5,447.988 L 1.5,460.369 C 1.5,508.277 12.664,553.558 32.494,593.771 C 143.718,482.546 264.373,361.893 301.5,324.765 C 338.631,361.894 459.282,482.548 570.508,593.771 C 590.338,553.558 601.5,508.277 601.5,460.369 L 601.5,447.988 L 601.5,447.988 z" />
    <path
       style="fill:none;stroke:#000000;stroke-width:3"
       id="path2581"
       d="M 32.496,593.771 C 143.718,482.546 264.373,361.893 301.5,324.765 C 338.631,361.894 459.282,482.548 570.508,593.771" />
    <polyline
       style="fill:none;stroke:#000000;stroke-width:3"
       id="polyline2583"
       points="601.537,448.033 301.537,148.033     1.54,448.033   "
       transform="translate(-3.7e-2,-4.5e-2)" />
    <g
       id="g3169">
      <path
         style="fill:#ffffff;stroke:#000000;stroke-width:3;stroke-linecap:round;stroke-linejoin:round"
         id="path2007_1_"
         d="M 253.078,640.352 C 253.078,640.352 268.429,655.286 295.169,655.286 C 317.506,655.286 335.636,666.1 335.636,666.1 C 335.636,666.1 320.986,661.565 320.287,664.356 C 319.587,667.147 326.566,669.588 334.939,677.265 C 334.939,677.265 314.705,667.494 294.121,664.356 C 273.539,661.215 253.078,657.447 253.078,640.352 z" />
      <path
         style="fill:#ffffff;stroke:#000000;stroke-width:3;stroke-linecap:round;stroke-linejoin:round"
         id="path2009_1_"
         d="M 280.329,640.057 C 280.329,640.057 277.62,655.286 295.169,655.286 C 312.717,655.286 310.008,640.833 310.008,640.833 L 280.329,640.057 z" />
      <path
         style="fill:#ffffff;stroke:#000000;stroke-width:3;stroke-linecap:round;stroke-linejoin:round"
         id="path2011_1_"
         d="M 254.978,584.447 C 254.978,584.447 260.775,518.509 264.036,493.874 C 267.295,469.239 289.868,472.234 291.932,471.774 C 295.191,471.048 292.292,461.993 301.713,461.993 C 310.045,461.993 309.322,471.051 310.769,472.499 C 312.218,473.949 333.232,474.311 335.769,493.874 C 338.305,513.438 340.115,581.549 340.115,581.549 L 333.232,601.835 L 294.466,610.531 L 263.31,606.183 L 254.978,584.447 z" />
      <path
         style="fill:none;stroke:#000000;stroke-width:2.5;stroke-linecap:round;stroke-linejoin:round"
         id="path2013_1_"
         d="M 313.522,479.24 C 319.876,480.437 327.483,484.591 329.131,497.316 C 331.668,516.879 333.667,588.022 333.667,588.022" />
      <path
         style="fill:none;stroke:#000000;stroke-width:2.5;stroke-linecap:round;stroke-linejoin:round"
         id="path2015_1_"
         d="M 312.549,484.114 C 318.475,486.346 321.549,491.709 322.528,499.24 C 325.05,518.618 327.039,591.511 327.039,591.511" />
      <path
         style="fill:none;stroke:#000000;stroke-width:2.5;stroke-linecap:round;stroke-linejoin:round"
         id="path2017_1_"
         d="M 311.631,489.865 C 313.704,492.358 315.291,495.777 315.875,500.456 C 318.3,519.848 319.688,593.427 319.688,593.427" />
      <path
         style="fill:none;stroke:#000000;stroke-width:2.5;stroke-linecap:round;stroke-linejoin:round"
         id="path2019_1_"
         d="M 310.544,533.936 C 311.719,561.814 312.361,595.867 312.361,595.867" />
      <path
         style="fill:none;stroke:#000000;stroke-width:2.5;stroke-linecap:round;stroke-linejoin:round"
         id="path2021_1_"
         d="M 304.741,569.184 C 305.163,584.497 305.385,596.217 305.385,596.217" />
      <path
         style="fill:#ffffff;stroke:#000000;stroke-width:3;stroke-linecap:round;stroke-linejoin:round"
         id="path2023_1_"
         d="M 295.916,644.585 C 273.091,644.585 249.18,628.282 249.18,603.646 C 249.18,579.011 253.167,583.36 254.977,584.447 C 254.977,584.447 255.702,596.765 293.743,596.765 C 331.783,596.765 340.114,581.549 340.114,581.549 C 340.114,581.549 344.826,578.286 345.187,586.983 C 345.549,595.677 351.708,644.585 295.916,644.585 z" />
      <path
         style="fill:none;stroke:#000000;stroke-width:2.5;stroke-linecap:round;stroke-linejoin:round"
         id="path2025_1_"
         d="M 281.149,646.797 C 282.52,647.221 294.003,650.913 309.317,647.407" />
      <path
         style="fill:none;stroke:#000000;stroke-width:2.5;stroke-linecap:round;stroke-linejoin:round"
         id="path2027_1_"
         d="M 283.701,651.445 C 283.701,651.445 294.007,653.654 306.152,651.74" />
      <path
         style="fill:none;stroke:#000000;stroke-width:2.5;stroke-linecap:round;stroke-linejoin:round"
         id="path2029_1_"
         d="M 261.499,598.524 C 262.68,600.748 283.207,638.795 309.548,643.465" />
      <path
         style="fill:none;stroke:#000000;stroke-width:2.5;stroke-linecap:round;stroke-linejoin:round"
         id="path2031_1_"
         d="M 249.185,601.826 C 253.983,610.778 268.192,634.889 286.345,643.64" />
      <path
         style="fill:none;stroke:#000000;stroke-width:2.5;stroke-linecap:round;stroke-linejoin:round"
         id="path2033_1_"
         d="M 279.923,602.362 C 285.893,611.587 302.299,634.199 322.604,639.352" />
      <path
         style="fill:none;stroke:#000000;stroke-width:2.5;stroke-linecap:round;stroke-linejoin:round"
         id="path2035_1_"
         d="M 298.196,603.46 C 303.967,611.303 316.449,626.239 332.092,633.05" />
      <path
         style="fill:none;stroke:#000000;stroke-width:2.5;stroke-linecap:round;stroke-linejoin:round"
         id="path2037_1_"
         d="M 312.834,602.817 C 317.62,608.412 326.949,618.128 338.843,624.637" />
      <path
         style="fill:none;stroke:#000000;stroke-width:2.5;stroke-linecap:round;stroke-linejoin:round"
         id="path2039_1_"
         d="M 326.043,600.697 C 329.058,603.756 335.097,609.406 343.156,614.565" />
      <path
         style="fill:none;stroke:#000000;stroke-width:2.5;stroke-linecap:round;stroke-linejoin:round"
         id="path2041_1_"
         d="M 338.835,596.033 C 338.835,596.033 317.156,637.329 291.486,644.393" />
      <path
         style="fill:none;stroke:#000000;stroke-width:2.5;stroke-linecap:round;stroke-linejoin:round"
         id="path2043_1_"
         d="M 343.784,612.176 C 338.141,621.238 329.337,633.331 318.711,641.013" />
      <path
         style="fill:none;stroke:#000000;stroke-width:2.5;stroke-linecap:round;stroke-linejoin:round"
         id="path2045_1_"
         d="M 319.354,602.015 C 314.833,609.328 297.909,634.594 276.446,640.689" />
      <path
         style="fill:none;stroke:#000000;stroke-width:2.5;stroke-linecap:round;stroke-linejoin:round"
         id="path2047_1_"
         d="M 301.024,603.437 C 295.897,610.665 282.663,627.459 265.767,634.737" />
      <path
         style="fill:none;stroke:#000000;stroke-width:2.5;stroke-linecap:round;stroke-linejoin:round"
         id="path2049_1_"
         d="M 286.4,603.001 C 281.932,608.423 271.382,620.012 257.645,627.064" />
      <path
         style="fill:none;stroke:#000000;stroke-width:2.5;stroke-linecap:round;stroke-linejoin:round"
         id="path2051_1_"
         d="M 272.976,601.292 C 270.189,604.227 262.591,611.702 252.078,617.896" />
      <path
         style="fill:none;stroke:#000000;stroke-width:2.5;stroke-linecap:round;stroke-linejoin:round"
         id="path2053_1_"
         d="M 259.732,597.956 C 259.732,597.956 255.462,601.551 249.232,605.414" />
      <path
         style="fill:none;stroke:#000000;stroke-width:2.5;stroke-linecap:round;stroke-linejoin:round"
         id="path2055_1_"
         d="M 250.981,594.356 C 250.981,594.356 250.41,594.837 249.377,595.639" />
      <path
         style="fill:none;stroke:#000000;stroke-width:2.5;stroke-linecap:round;stroke-linejoin:round"
         id="path2057_1_"
         d="M 337.084,596.917 C 338.113,597.762 341.84,600.774 345.284,603.116" />
      <path
         style="fill:none;stroke:#000000;stroke-width:2.5;stroke-linecap:round;stroke-linejoin:round"
         id="path2059_1_"
         d="M 344.051,592.633 C 344.346,592.875 344.858,593.29 345.521,593.82" />
    </g>
    <g
       id="g3140">
      <path
         style="fill:#ffffff;stroke:#000000;stroke-width:3;stroke-linecap:round;stroke-linejoin:round"
         id="path2007_2_"
         d="M 80.706,224.477 C 80.706,224.477 96.057,239.411 122.797,239.411 C 145.134,239.411 163.264,250.225 163.264,250.225 C 163.264,250.225 148.613,245.69 147.915,248.481 C 147.216,251.273 154.195,253.713 162.568,261.39 C 162.568,261.39 142.334,251.619 121.75,248.481 C 101.167,245.341 80.706,241.572 80.706,224.477 z" />
      <path
         style="fill:#ffffff;stroke:#000000;stroke-width:3;stroke-linecap:round;stroke-linejoin:round"
         id="path2009_2_"
         d="M 107.957,224.182 C 107.957,224.182 105.248,239.411 122.797,239.411 C 140.346,239.411 137.636,224.957 137.636,224.957 L 107.957,224.182 z" />
      <path
         style="fill:#ffffff;stroke:#000000;stroke-width:3;stroke-linecap:round;stroke-linejoin:round"
         id="path2011_2_"
         d="M 82.606,168.571 C 82.606,168.571 88.403,102.633 91.664,77.998 C 94.923,53.364 117.496,56.358 119.56,55.898 C 122.819,55.173 119.92,46.117 129.342,46.117 C 137.674,46.117 136.95,55.175 138.398,56.623 C 139.847,58.073 160.86,58.435 163.397,77.998 C 165.934,97.563 167.743,165.673 167.743,165.673 L 160.86,185.96 L 122.094,194.656 L 90.938,190.308 L 82.606,168.571 z" />
      <path
         style="fill:none;stroke:#000000;stroke-width:2.5;stroke-linecap:round;stroke-linejoin:round"
         id="path2013_2_"
         d="M 141.15,63.365 C 147.504,64.562 155.111,68.716 156.76,81.441 C 159.297,101.005 161.296,172.148 161.296,172.148" />
      <path
         style="fill:none;stroke:#000000;stroke-width:2.5;stroke-linecap:round;stroke-linejoin:round"
         id="path2015_2_"
         d="M 140.177,68.239 C 146.102,70.471 149.177,75.834 150.157,83.365 C 152.679,102.742 154.667,175.636 154.667,175.636" />
      <path
         style="fill:none;stroke:#000000;stroke-width:2.5;stroke-linecap:round;stroke-linejoin:round"
         id="path2017_2_"
         d="M 139.259,73.99 C 141.333,76.483 142.919,79.902 143.504,84.581 C 145.929,103.973 147.317,177.552 147.317,177.552" />
      <path
         style="fill:none;stroke:#000000;stroke-width:2.5;stroke-linecap:round;stroke-linejoin:round"
         id="path2019_2_"
         d="M 138.172,118.061 C 139.347,145.939 139.99,179.992 139.99,179.992" />
      <path
         style="fill:none;stroke:#000000;stroke-width:2.5;stroke-linecap:round;stroke-linejoin:round"
         id="path2021_2_"
         d="M 132.37,153.309 C 132.791,168.623 133.013,180.343 133.013,180.343" />
      <path
         style="fill:#ffffff;stroke:#000000;stroke-width:3;stroke-linecap:round;stroke-linejoin:round"
         id="path2023_2_"
         d="M 123.545,228.71 C 100.72,228.71 76.809,212.408 76.809,187.772 C 76.809,163.137 80.796,167.485 82.606,168.572 C 82.606,168.572 83.331,180.89 121.372,180.89 C 159.413,180.89 167.743,165.675 167.743,165.675 C 167.743,165.675 172.455,162.412 172.816,171.109 C 173.177,179.802 179.336,228.71 123.545,228.71 z" />
      <path
         style="fill:none;stroke:#000000;stroke-width:2.5;stroke-linecap:round;stroke-linejoin:round"
         id="path2025_2_"
         d="M 108.777,230.922 C 110.148,231.346 121.631,235.038 136.945,231.533" />
      <path
         style="fill:none;stroke:#000000;stroke-width:2.5;stroke-linecap:round;stroke-linejoin:round"
         id="path2027_2_"
         d="M 111.33,235.57 C 111.33,235.57 121.636,237.779 133.782,235.864" />
      <path
         style="fill:none;stroke:#000000;stroke-width:2.5;stroke-linecap:round;stroke-linejoin:round"
         id="path2029_2_"
         d="M 89.127,182.649 C 90.308,184.873 110.835,222.92 137.176,227.591" />
      <path
         style="fill:none;stroke:#000000;stroke-width:2.5;stroke-linecap:round;stroke-linejoin:round"
         id="path2031_2_"
         d="M 76.814,185.951 C 81.612,194.903 95.821,219.014 113.974,227.765" />
      <path
         style="fill:none;stroke:#000000;stroke-width:2.5;stroke-linecap:round;stroke-linejoin:round"
         id="path2033_2_"
         d="M 107.552,186.487 C 113.522,195.712 129.928,218.323 150.233,223.477" />
      <path
         style="fill:none;stroke:#000000;stroke-width:2.5;stroke-linecap:round;stroke-linejoin:round"
         id="path2035_2_"
         d="M 125.824,187.585 C 131.595,195.428 144.077,210.364 159.72,217.175" />
      <path
         style="fill:none;stroke:#000000;stroke-width:2.5;stroke-linecap:round;stroke-linejoin:round"
         id="path2037_2_"
         d="M 140.463,186.942 C 145.249,192.537 154.579,202.253 166.472,208.762" />
      <path
         style="fill:none;stroke:#000000;stroke-width:2.5;stroke-linecap:round;stroke-linejoin:round"
         id="path2039_2_"
         d="M 153.671,184.822 C 156.686,187.881 162.725,193.531 170.784,198.69" />
      <path
         style="fill:none;stroke:#000000;stroke-width:2.5;stroke-linecap:round;stroke-linejoin:round"
         id="path2041_2_"
         d="M 166.463,180.158 C 166.463,180.158 144.785,221.454 119.114,228.518" />
      <path
         style="fill:none;stroke:#000000;stroke-width:2.5;stroke-linecap:round;stroke-linejoin:round"
         id="path2043_2_"
         d="M 171.413,196.301 C 165.77,205.363 156.966,217.456 146.34,225.138" />
      <path
         style="fill:none;stroke:#000000;stroke-width:2.5;stroke-linecap:round;stroke-linejoin:round"
         id="path2045_2_"
         d="M 146.982,186.141 C 142.461,193.453 125.537,218.719 104.075,224.814" />
      <path
         style="fill:none;stroke:#000000;stroke-width:2.5;stroke-linecap:round;stroke-linejoin:round"
         id="path2047_2_"
         d="M 128.651,187.562 C 123.525,194.79 110.29,211.584 93.395,218.862" />
      <path
         style="fill:none;stroke:#000000;stroke-width:2.5;stroke-linecap:round;stroke-linejoin:round"
         id="path2049_2_"
         d="M 114.028,187.126 C 109.561,192.548 99.01,204.137 85.273,211.189" />
      <path
         style="fill:none;stroke:#000000;stroke-width:2.5;stroke-linecap:round;stroke-linejoin:round"
         id="path2051_2_"
         d="M 100.604,185.417 C 97.817,188.351 90.219,195.827 79.706,202.021" />
      <path
         style="fill:none;stroke:#000000;stroke-width:2.5;stroke-linecap:round;stroke-linejoin:round"
         id="path2053_2_"
         d="M 87.36,182.082 C 87.36,182.082 83.09,185.676 76.86,189.54" />
      <path
         style="fill:none;stroke:#000000;stroke-width:2.5;stroke-linecap:round;stroke-linejoin:round"
         id="path2055_2_"
         d="M 78.609,178.48 C 78.609,178.48 78.038,178.962 77.005,179.764" />
      <path
         style="fill:none;stroke:#000000;stroke-width:2.5;stroke-linecap:round;stroke-linejoin:round"
         id="path2057_2_"
         d="M 164.712,181.043 C 165.742,181.887 169.468,184.9 172.913,187.242" />
      <path
         style="fill:none;stroke:#000000;stroke-width:2.5;stroke-linecap:round;stroke-linejoin:round"
         id="path2059_2_"
         d="M 171.679,176.758 C 171.973,177 172.486,177.415 173.148,177.944" />
    </g>
    <g
       id="g3111">
      <path
         style="fill:#ffffff;stroke:#000000;stroke-width:3;stroke-linecap:round;stroke-linejoin:round"
         id="path2007_3_"
         d="M 431.448,224.477 C 431.448,224.477 446.8,239.411 473.539,239.411 C 495.878,239.411 514.008,250.225 514.008,250.225 C 514.008,250.225 499.358,245.69 498.659,248.481 C 497.958,251.273 504.937,253.713 513.311,261.39 C 513.311,261.39 493.076,251.619 472.492,248.481 C 451.909,245.341 431.448,241.572 431.448,224.477 z" />
      <path
         style="fill:#ffffff;stroke:#000000;stroke-width:3;stroke-linecap:round;stroke-linejoin:round"
         id="path2009_3_"
         d="M 458.7,224.182 C 458.7,224.182 455.991,239.411 473.539,239.411 C 491.088,239.411 488.379,224.957 488.379,224.957 L 458.7,224.182 z" />
      <path
         style="fill:#ffffff;stroke:#000000;stroke-width:3;stroke-linecap:round;stroke-linejoin:round"
         id="path2011_3_"
         d="M 433.349,168.571 C 433.349,168.571 439.147,102.633 442.407,77.998 C 445.667,53.364 468.239,56.358 470.303,55.898 C 473.563,55.173 470.664,46.117 480.085,46.117 C 488.416,46.117 487.693,55.175 489.141,56.623 C 490.589,58.073 511.603,58.435 514.14,77.998 C 516.676,97.563 518.486,165.673 518.486,165.673 L 511.603,185.96 L 472.837,194.656 L 441.681,190.308 L 433.349,168.571 z" />
      <path
         style="fill:none;stroke:#000000;stroke-width:2.5;stroke-linecap:round;stroke-linejoin:round"
         id="path2013_3_"
         d="M 491.894,63.365 C 498.247,64.562 505.854,68.716 507.503,81.441 C 510.04,101.005 512.038,172.148 512.038,172.148" />
      <path
         style="fill:none;stroke:#000000;stroke-width:2.5;stroke-linecap:round;stroke-linejoin:round"
         id="path2015_3_"
         d="M 490.92,68.239 C 496.846,70.471 499.92,75.834 500.899,83.365 C 503.421,102.742 505.41,175.636 505.41,175.636" />
      <path
         style="fill:none;stroke:#000000;stroke-width:2.5;stroke-linecap:round;stroke-linejoin:round"
         id="path2017_3_"
         d="M 490.002,73.99 C 492.076,76.483 493.662,79.902 494.247,84.581 C 496.671,103.973 498.06,177.552 498.06,177.552" />
      <path
         style="fill:none;stroke:#000000;stroke-width:2.5;stroke-linecap:round;stroke-linejoin:round"
         id="path2019_3_"
         d="M 488.915,118.061 C 490.09,145.939 490.732,179.992 490.732,179.992" />
      <path
         style="fill:none;stroke:#000000;stroke-width:2.5;stroke-linecap:round;stroke-linejoin:round"
         id="path2021_3_"
         d="M 483.112,153.309 C 483.534,168.623 483.756,180.343 483.756,180.343" />
      <path
         style="fill:#ffffff;stroke:#000000;stroke-width:3;stroke-linecap:round;stroke-linejoin:round"
         id="path2023_3_"
         d="M 474.287,228.71 C 451.462,228.71 427.552,212.408 427.552,187.772 C 427.552,163.137 431.539,167.485 433.349,168.572 C 433.349,168.572 434.074,180.89 472.115,180.89 C 510.155,180.89 518.486,165.675 518.486,165.675 C 518.486,165.675 523.198,162.412 523.559,171.109 C 523.92,179.802 530.08,228.71 474.287,228.71 z" />
      <path
         style="fill:none;stroke:#000000;stroke-width:2.5;stroke-linecap:round;stroke-linejoin:round"
         id="path2025_3_"
         d="M 459.52,230.922 C 460.892,231.346 472.374,235.038 487.689,231.533" />
      <path
         style="fill:none;stroke:#000000;stroke-width:2.5;stroke-linecap:round;stroke-linejoin:round"
         id="path2027_3_"
         d="M 462.072,235.57 C 462.072,235.57 472.379,237.779 484.523,235.864" />
      <path
         style="fill:none;stroke:#000000;stroke-width:2.5;stroke-linecap:round;stroke-linejoin:round"
         id="path2029_3_"
         d="M 439.869,182.649 C 441.051,184.873 461.577,222.92 487.919,227.591" />
      <path
         style="fill:none;stroke:#000000;stroke-width:2.5;stroke-linecap:round;stroke-linejoin:round"
         id="path2031_3_"
         d="M 427.557,185.951 C 432.355,194.903 446.564,219.014 464.716,227.765" />
      <path
         style="fill:none;stroke:#000000;stroke-width:2.5;stroke-linecap:round;stroke-linejoin:round"
         id="path2033_3_"
         d="M 458.295,186.487 C 464.264,195.712 480.671,218.323 500.976,223.477" />
      <path
         style="fill:none;stroke:#000000;stroke-width:2.5;stroke-linecap:round;stroke-linejoin:round"
         id="path2035_3_"
         d="M 476.567,187.585 C 482.338,195.428 494.82,210.364 510.463,217.175" />
      <path
         style="fill:none;stroke:#000000;stroke-width:2.5;stroke-linecap:round;stroke-linejoin:round"
         id="path2037_3_"
         d="M 491.205,186.942 C 495.991,192.537 505.321,202.253 517.214,208.762" />
      <path
         style="fill:none;stroke:#000000;stroke-width:2.5;stroke-linecap:round;stroke-linejoin:round"
         id="path2039_3_"
         d="M 504.414,184.822 C 507.429,187.881 513.468,193.531 521.527,198.69" />
      <path
         style="fill:none;stroke:#000000;stroke-width:2.5;stroke-linecap:round;stroke-linejoin:round"
         id="path2041_3_"
         d="M 517.206,180.158 C 517.206,180.158 495.528,221.454 469.856,228.518" />
      <path
         style="fill:none;stroke:#000000;stroke-width:2.5;stroke-linecap:round;stroke-linejoin:round"
         id="path2043_3_"
         d="M 522.155,196.301 C 516.513,205.363 507.708,217.456 497.083,225.138" />
      <path
         style="fill:none;stroke:#000000;stroke-width:2.5;stroke-linecap:round;stroke-linejoin:round"
         id="path2045_3_"
         d="M 497.725,186.141 C 493.204,193.453 476.28,218.719 454.819,224.814" />
      <path
         style="fill:none;stroke:#000000;stroke-width:2.5;stroke-linecap:round;stroke-linejoin:round"
         id="path2047_3_"
         d="M 479.396,187.562 C 474.269,194.79 461.034,211.584 444.138,218.862" />
      <path
         style="fill:none;stroke:#000000;stroke-width:2.5;stroke-linecap:round;stroke-linejoin:round"
         id="path2049_3_"
         d="M 464.772,187.126 C 460.304,192.548 449.753,204.137 436.017,211.189" />
      <path
         style="fill:none;stroke:#000000;stroke-width:2.5;stroke-linecap:round;stroke-linejoin:round"
         id="path2051_3_"
         d="M 451.347,185.417 C 448.56,188.351 440.962,195.827 430.449,202.021" />
      <path
         style="fill:none;stroke:#000000;stroke-width:2.5;stroke-linecap:round;stroke-linejoin:round"
         id="path2053_3_"
         d="M 438.104,182.082 C 438.104,182.082 433.833,185.676 427.604,189.54" />
      <path
         style="fill:none;stroke:#000000;stroke-width:2.5;stroke-linecap:round;stroke-linejoin:round"
         id="path2055_3_"
         d="M 429.352,178.48 C 429.352,178.48 428.781,178.962 427.748,179.764" />
      <path
         style="fill:none;stroke:#000000;stroke-width:2.5;stroke-linecap:round;stroke-linejoin:round"
         id="path2057_3_"
         d="M 515.456,181.043 C 516.484,181.887 520.211,184.9 523.655,187.242" />
      <path
         style="fill:none;stroke:#000000;stroke-width:2.5;stroke-linecap:round;stroke-linejoin:round"
         id="path2059_3_"
         d="M 522.423,176.758 C 522.717,177 523.23,177.415 523.892,177.944" />
    </g>
  </g>
  <g
     inkscape:groupmode="layer"
     id="layer3"
     inkscape:label="Reflet final"
     style="display:inline"
     sodipodi:insensitive="true">
    <path
       style="fill:url(#radialGradient3236);fill-opacity:1"
       d="M 1.5,1.5 L 1.5,460.3679 C 1.5,626.67854 135.81454,761.5 301.49993,761.5 C 467.1854,761.5 601.5,626.67854 601.5,460.3679 L 601.5,1.5 L 1.5,1.5 z "
       id="path2346" />
  </g>
  <g
     inkscape:groupmode="layer"
     id="layer4"
     inkscape:label="Contour final"
     style="display:inline"
     sodipodi:insensitive="true">
    <path
       style="fill:none;fill-opacity:1;stroke:#000000;stroke-width:3;stroke-miterlimit:4;stroke-dasharray:none;stroke-opacity:1"
       d="M 1.5,1.5 L 1.5,460.36794 C 1.5,626.67854 135.81454,761.5 301.49993,761.5 C 467.1854,761.5 601.5,626.67854 601.5,460.36794 L 601.5,1.5 L 1.5,1.5 z "
       id="path3239" />
  </g>
</svg>
