<?xml version="1.0" encoding="UTF-8"?>
<svg version="1.0" viewBox="0 0 603 763" xmlns="http://www.w3.org/2000/svg" xmlns:cc="http://creativecommons.org/ns#" xmlns:dc="http://purl.org/dc/elements/1.1/" xmlns:rdf="http://www.w3.org/1999/02/22-rdf-syntax-ns#" xmlns:xlink="http://www.w3.org/1999/xlink">
<metadata>
<rdf:RDF>
<cc:Work rdf:about="">
<dc:format>image/svg+xml</dc:format>
<dc:type rdf:resource="http://purl.org/dc/dcmitype/StillImage"/>
<dc:date>07-AUG-2006</dc:date>
<dc:creator>
<cc:Agent>
<dc:title>Jérôme BLUM (wagner51)</dc:title>
</cc:Agent>
</dc:creator>
<cc:license rdf:resource="http://creativecommons.org/licenses/GPL/2.0/"/>
<dc:coverage/>
<dc:description>Gabarit pour le Projet:Blasons de WIkipédia</dc:description>
<dc:subject>
<rdf:Bag>
<rdf:li>blason suisse modèle gabarit projet blasons</rdf:li>
</rdf:Bag>
</dc:subject>
<dc:language>fr</dc:language>
<dc:title>Gabrit d'un blason suisse</dc:title>
</cc:Work>
<cc:License rdf:about="http://creativecommons.org/licenses/GPL/2.0/">
<cc:permits rdf:resource="http://web.resource.org/cc/Reproduction"/>
<cc:permits rdf:resource="http://web.resource.org/cc/Distribution"/>
<cc:requires rdf:resource="http://web.resource.org/cc/Notice"/>
<cc:permits rdf:resource="http://web.resource.org/cc/DerivativeWorks"/>
<cc:requires rdf:resource="http://web.resource.org/cc/ShareAlike"/>
<cc:requires rdf:resource="http://web.resource.org/cc/SourceCode"/>
</cc:License>
</rdf:RDF>
</metadata>
<defs>
<radialGradient id="a" cx="858.04" cy="579.93" r="300" gradientTransform="matrix(1.215 1.5316e-24 1.4647e-23 1.2667 -839.19 -490.49)" gradientUnits="userSpaceOnUse">
<stop stop-color="#fff" stop-opacity=".31373" offset="0"/>
<stop stop-color="#fff" stop-opacity=".25098" offset=".19"/>
<stop stop-color="#6b6b6b" stop-opacity=".12549" offset=".6"/>
<stop stop-opacity=".12549" offset="1"/>
</radialGradient>
</defs>
<desc>Coat of Arms of Canton of Freiburg (Fribourg)</desc>
<g>
<path d="m1.5 1.5v458.87c0 166.31 134.31 301.13 300 301.13 165.69 0 300-134.82 300-301.13v-458.87h-600z" fill="#e20909"/>
<path d="m1.5 251.19v209.18c0 166.31 134.31 301.13 300 301.13 165.69 0 300-134.82 300-301.13v-209.18h-600z" fill="#fff"/>
<line x1="1.5" x2="601.5" y1="251.19" y2="251.19" fill="none" stroke="#000" stroke-width="3"/>
<path d="m1.504 126.83 514.83 543.7c42.941-44.225 72.449-101.64 81.9-165.63l-476.73-503.4h-120v125.33z"/>
<g stroke="#000" stroke-linejoin="round" stroke-width="3">
<path d="m230.31 172.16s11.574 15.775 14.643 31.653c3.791 19.61 17.358 38.004 26.716 52.909 6.953 11.073 5.937 21.702 4.956 26.438-6.314-5.143-11.345-9.111-15.176-13.128-11.568-12.133-12.363-17.572-12.863-21.438 0 0-5.856-17.774-6.316-26.755-0.671-13.124-5.958-27.756-20.699-36.981-0.293-0.185-0.546-0.397-0.766-0.637-2.352 2.243-4.118 5.622-5.355 9.492-0.67-13.119-5.957-27.752-20.698-36.977-0.292-0.187-0.549-0.4-0.766-0.639-2.352 2.242-4.116 5.622-5.354 9.494-0.671-13.122-5.957-27.756-20.697-36.98-0.292-0.187-0.549-0.4-0.766-0.639-2.354 2.244-4.118 5.625-5.354 9.498-0.673-13.122-5.959-27.754-20.699-36.979-0.295-0.184-0.55-0.398-0.766-0.638-2.353 2.244-4.118 5.622-5.355 9.493-0.672-13.121-5.958-27.754-20.697-36.979-0.294-0.184-0.551-0.396-0.768-0.637-2.352 2.242-4.117 5.621-5.355 9.492-0.67-13.121-5.956-27.756-20.696-36.981-0.294-0.185-0.551-0.397-0.768-0.637-4.577 4.364-6.929 13.026-7.502 21.259-9.915-11.615-26.436-15.379-32.219-14.029-1.625 5.712 1.348 22.394 12.479 32.846-8.25 0.181-17.015 2.119-21.592 6.484 0.229 0.228 0.43 0.493 0.6 0.797 8.515 15.161 22.882 21.136 35.957 22.43-3.927 1.052-7.386 2.657-9.738 4.899 0.23 0.229 0.431 0.493 0.6 0.798 8.515 15.161 22.881 21.136 35.954 22.431-3.925 1.052-7.385 2.655-9.736 4.896 0.228 0.229 0.43 0.494 0.6 0.796 8.513 15.163 22.878 21.137 35.955 22.433-3.928 1.052-7.391 2.654-9.743 4.897 0.227 0.229 0.431 0.495 0.6 0.798 8.514 15.162 22.881 21.137 35.956 22.43-3.926 1.053-7.386 2.655-9.737 4.897 0.227 0.229 0.43 0.494 0.6 0.797 8.515 15.163 22.879 21.139 35.953 22.431-3.925 1.051-7.384 2.655-9.736 4.898 0.23 0.229 0.43 0.493 0.6 0.795 8.513 15.163 22.879 21.138 35.956 22.433 8.95 0.888 26.425 7.581 26.425 7.581 3.839 0.687 9.234 1.736 20.803 13.868 0.67 0.704 1.362 1.4 2.071 2.091-1.482 0.031-3.323-0.126-5.372-0.742-5.159-1.551-11.433-3.66-25.43-3.993s-25.761-4.34-29.451-5.896c0 0 22.255 19.278 47.641 19.882 11.256 0.268 13.156-4.492 18.106-4.254 10.201 8.798 23.46 18.228 39.442 34.988 20.276 21.264 30.941 47.721 30.941 47.721 1.188 2.738 9.046-0.462 9.105-2.945 0.146-6.096-12.46-26.952-34.94-50.527-10.377-10.883-19.185-18.648-26.53-24.766 1.246-5.655 2.577-18.618-3.563-39.651-8.565-29.34-14.413-49.358-47.456-75.217z" fill="#fcef3c" stroke-linecap="round"/>
<path d="m59.47 83.681c4.071 3.823 9.232 6.814 15.661 8.129" fill="none"/>
<path d="m86.29 111.81c4.071 3.823 9.232 6.815 15.661 8.128" fill="none"/>
<path d="m73.811 78.961c-1.625 5.712 1.347 22.393 12.479 32.845-4.01 0.086-8.142 0.589-11.855 1.585" fill="none"/>
<path d="m113.11 139.93c4.07 3.824 9.233 6.814 15.663 8.128" fill="none"/>
<path d="m100.63 107.08c-1.625 5.713 1.347 22.395 12.479 32.847-4.01 0.086-8.141 0.59-11.855 1.586" fill="none"/>
<path d="m139.92 168.06c4.071 3.826 9.234 6.815 15.662 8.131" fill="none"/>
<path d="m127.45 135.21c-1.625 5.712 1.348 22.395 12.478 32.847-4.011 0.088-8.143 0.589-11.854 1.587" fill="none"/>
<path d="m166.74 196.18c4.072 3.824 9.234 6.814 15.66 8.129" fill="none"/>
<path d="m154.26 163.34c-1.621 5.715 1.352 22.395 12.482 32.847-4.01 0.087-8.143 0.589-11.854 1.587" fill="none"/>
<path d="m193.56 224.31c4.073 3.824 9.233 6.815 15.66 8.13" fill="none"/>
<path d="m181.08 191.46c-1.621 5.715 1.35 22.393 12.48 32.845-4.009 0.089-8.143 0.59-11.854 1.587" fill="none"/>
<path d="m79.207 64.861c3.625 4.249 6.366 9.548 7.375 16.03" fill="none"/>
<path d="m106.03 92.987c3.624 4.25 6.366 9.548 7.374 16.029" fill="none"/>
<path d="m73.811 78.961c5.783-1.351 22.302 2.412 32.216 14.025 0.276-4 0.975-8.104 2.146-11.766" fill="none"/>
<path d="m132.84 121.11c3.626 4.248 6.366 9.549 7.375 16.032" fill="none"/>
<path d="m100.63 107.08c5.784-1.351 22.304 2.412 32.216 14.026 0.277-4 0.977-8.103 2.149-11.766" fill="none"/>
<path d="m159.66 149.23c3.626 4.25 6.367 9.549 7.376 16.031" fill="none"/>
<path d="m127.45 135.21c5.783-1.351 22.304 2.413 32.216 14.026 0.279-4.001 0.977-8.105 2.15-11.766" fill="none"/>
<path d="m186.48 177.36c3.626 4.25 6.365 9.55 7.374 16.03" fill="none"/>
<path d="m154.27 163.33c5.784-1.346 22.305 2.415 32.217 14.029 0.278-4.001 0.975-8.104 2.148-11.765" fill="none"/>
<path d="m213.3 205.48c3.626 4.249 6.365 9.55 7.374 16.029" fill="none"/>
<path d="m181.08 191.45c5.784-1.346 22.303 2.414 32.215 14.028 0.28-4 0.975-8.105 2.149-11.766" fill="none"/>
<path d="m220.37 252.44c4.071 3.823 7.631 8.343 14.571 9.167" fill="none"/>
<path d="m207.89 219.59c-1.623 5.714 1.349 22.395 12.48 32.848" fill="none"/>
<path d="m240.11 233.61c3.625 4.248 7.968 8.021 8.462 14.992" fill="none"/>
<path d="m207.9 219.58c5.783-1.348 22.304 2.414 32.216 14.03" fill="none"/>
<path d="m37.879 90.165c-2.46-2.47-7.988-0.878-9.837 0.114" fill="none" stroke-linecap="round"/>
<path d="m64.697 118.29c-2.459-2.469-7.989-0.877-9.837 0.114" fill="none" stroke-linecap="round"/>
<path d="m91.516 146.42c-2.46-2.47-7.991-0.876-9.837 0.114" fill="none" stroke-linecap="round"/>
<path d="m118.33 174.54c-2.458-2.469-7.991-0.875-9.836 0.115" fill="none" stroke-linecap="round"/>
<path d="m145.14 202.67c-2.458-2.467-7.99-0.875-9.835 0.116" fill="none" stroke-linecap="round"/>
<path d="m171.96 230.8c-2.459-2.471-7.992-0.878-9.837 0.112" fill="none" stroke-linecap="round"/>
<path d="m167.17 127.97c-2.349-2.574-0.497-8.022 0.582-9.82" fill="none" stroke-linecap="round"/>
<path d="m193.98 156.1c-2.348-2.572-0.495-8.021 0.584-9.819" fill="none" stroke-linecap="round"/>
<path d="m220.81 184.22c-2.35-2.575-0.497-8.023 0.582-9.822" fill="none" stroke-linecap="round"/>
<path d="m86.716 43.598c-2.35-2.575-0.496-8.022 0.582-9.821" fill="none" stroke-linecap="round"/>
<path d="m113.53 71.723c-2.35-2.575-0.495-8.022 0.583-9.82" fill="none" stroke-linecap="round"/>
<path d="m140.35 99.847c-2.349-2.574-0.497-8.023 0.582-9.82" fill="none" stroke-linecap="round"/>
<line x1="42.014" x2="46.992" y1="45.615" y2="50.835" fill="none" stroke-linecap="round"/>
<line x1="68.833" x2="73.811" y1="73.741" y2="78.961" fill="none" stroke-linecap="round"/>
<line x1="68.832" x2="73.811" y1="73.74" y2="78.961" fill="none" stroke-linecap="round"/>
<line x1="95.65" x2="100.63" y1="101.87" y2="107.08" fill="none" stroke-linecap="round"/>
<line x1="122.47" x2="127.45" y1="129.99" y2="135.21" fill="none" stroke-linecap="round"/>
<line x1="122.46" x2="127.44" y1="129.99" y2="135.21" fill="none" stroke-linecap="round"/>
<line x1="149.28" x2="154.26" y1="158.12" y2="163.34" fill="none" stroke-linecap="round"/>
<line x1="176.1" x2="181.08" y1="186.24" y2="191.46" fill="none" stroke-linecap="round"/>
<line x1="68.833" x2="73.811" y1="73.741" y2="78.961" fill="none" stroke-linecap="round"/>
<line x1="68.833" x2="73.812" y1="73.739" y2="78.96" fill="none" stroke-linecap="round"/>
<line x1="95.651" x2="100.63" y1="101.86" y2="107.08" fill="none" stroke-linecap="round"/>
<line x1="122.47" x2="127.45" y1="129.99" y2="135.21" fill="none" stroke-linecap="round"/>
<line x1="122.47" x2="127.45" y1="129.98" y2="135.21" fill="none" stroke-linecap="round"/>
<line x1="149.29" x2="154.27" y1="158.11" y2="163.33" fill="none" stroke-linecap="round"/>
<line x1="176.11" x2="181.08" y1="186.23" y2="191.45" fill="none" stroke-linecap="round"/>
<line x1="202.92" x2="207.9" y1="214.36" y2="219.58" fill="none" stroke-linecap="round"/>
</g>
</g>
<g>
<path d="m1.5 1.5v458.87c0 166.31 134.31 301.13 300 301.13 165.69 0 300-134.82 300-301.13v-458.87h-600z" fill="url(#a)"/>
<path d="m1.5 1.5v458.87c0 166.31 134.31 301.13 300 301.13 165.69 0 300-134.82 300-301.13v-458.87h-600z" fill="none" stroke="#000" stroke-width="3"/>
</g>
</svg>
