<?xml version="1.0" encoding="UTF-8" standalone="no"?>
<svg
   xmlns:dc="http://purl.org/dc/elements/1.1/"
   xmlns:cc="http://creativecommons.org/ns#"
   xmlns:rdf="http://www.w3.org/1999/02/22-rdf-syntax-ns#"
   xmlns:svg="http://www.w3.org/2000/svg"
   xmlns="http://www.w3.org/2000/svg"
   xmlns:xlink="http://www.w3.org/1999/xlink"
   xmlns:sodipodi="http://sodipodi.sourceforge.net/DTD/sodipodi-0.dtd"
   xmlns:inkscape="http://www.inkscape.org/namespaces/inkscape"
   height="763"
   width="603"
   version="1.0"
   id="svg20"
   sodipodi:version="0.32"
   inkscape:version="0.46"
   sodipodi:docname="Saint_Prex-coat_of_arms.svg"
   sodipodi:docbase="C:\Documents and Settings\Steve\Bureau\Blason Villages Suisse pour Wikipédia (par Delta-9)"
   inkscape:output_extension="org.inkscape.output.svg.inkscape">
  <metadata
     id="metadata31">
    <rdf:RDF>
      <cc:Work
         rdf:about="">
        <dc:format>image/svg+xml</dc:format>
        <dc:type
           rdf:resource="http://purl.org/dc/dcmitype/StillImage" />
        <dc:date>07-AUG-2006</dc:date>
        <dc:creator>
          <cc:Agent>
            <dc:title>Jérôme BLUM (wagner51)</dc:title>
          </cc:Agent>
        </dc:creator>
        <cc:license
           rdf:resource="http://creativecommons.org/licenses/GPL/2.0/" />
        <dc:coverage />
        <dc:description>Gabarit pour le Projet:Blasons de WIkipédia</dc:description>
        <dc:subject>
          <rdf:Bag>
            <rdf:li>blason suisse modèle gabarit projet blasons</rdf:li>
          </rdf:Bag>
        </dc:subject>
        <dc:language>fr</dc:language>
        <dc:title>Gabrit d'un blason suisse</dc:title>
      </cc:Work>
      <cc:License
         rdf:about="http://creativecommons.org/licenses/GPL/2.0/">
        <cc:permits
           rdf:resource="http://web.resource.org/cc/Reproduction" />
        <cc:permits
           rdf:resource="http://web.resource.org/cc/Distribution" />
        <cc:requires
           rdf:resource="http://web.resource.org/cc/Notice" />
        <cc:permits
           rdf:resource="http://web.resource.org/cc/DerivativeWorks" />
        <cc:requires
           rdf:resource="http://web.resource.org/cc/ShareAlike" />
        <cc:requires
           rdf:resource="http://web.resource.org/cc/SourceCode" />
      </cc:License>
    </rdf:RDF>
  </metadata>
  <defs
     id="defs29">
    <inkscape:perspective
       sodipodi:type="inkscape:persp3d"
       inkscape:vp_x="0 : 381.5 : 1"
       inkscape:vp_y="0 : 1000 : 0"
       inkscape:vp_z="603 : 381.5 : 1"
       inkscape:persp3d-origin="301.5 : 254.33333 : 1"
       id="perspective28" />
    <linearGradient
       id="linearGradient2893">
      <stop
         style="stop-color:#ffffff;stop-opacity:0.3137255;"
         offset="0"
         id="stop2895" />
      <stop
         id="stop2897"
         offset="0.19"
         style="stop-color:#ffffff;stop-opacity:0.25098041;" />
      <stop
         style="stop-color:#6b6b6b;stop-opacity:0.1254902;"
         offset="0.60000002"
         id="stop2901" />
      <stop
         style="stop-color:#000000;stop-opacity:0.1254902;"
         offset="1"
         id="stop2899" />
    </linearGradient>
    <linearGradient
       id="linearGradient2955">
      <stop
         style="stop-color:white;stop-opacity:0;"
         offset="0"
         id="stop2965" />
      <stop
         style="stop-color:black;stop-opacity:0.64583331;"
         offset="1"
         id="stop2959" />
    </linearGradient>
    <radialGradient
       inkscape:collect="always"
       xlink:href="#linearGradient2893"
       id="radialGradient3236"
       gradientUnits="userSpaceOnUse"
       gradientTransform="matrix(1.215027,1.531577e-24,1.464684e-23,1.266667,-839.1924,-490.4894)"
       cx="858.04236"
       cy="579.93323"
       fx="858.04236"
       fy="579.93323"
       r="300" />
    <inkscape:perspective
       id="perspective2496"
       inkscape:persp3d-origin="297.63751 : 280.63 : 1"
       inkscape:vp_z="595.27502 : 420.94501 : 1"
       inkscape:vp_y="0 : 1000 : 0"
       inkscape:vp_x="0 : 420.94501 : 1"
       sodipodi:type="inkscape:persp3d" />
  </defs>
  <sodipodi:namedview
     inkscape:window-height="900"
     inkscape:window-width="1235"
     inkscape:pageshadow="2"
     inkscape:pageopacity="0.0"
     guidetolerance="10.0"
     gridtolerance="10.0"
     objecttolerance="10.0"
     borderopacity="1.0"
     bordercolor="#666666"
     pagecolor="#ffffff"
     id="base"
     inkscape:zoom="0.86797494"
     inkscape:cx="298.74809"
     inkscape:cy="379.51429"
     inkscape:window-x="1304"
     inkscape:window-y="8"
     inkscape:current-layer="layer2"
     showgrid="false"
     showguides="true"
     inkscape:guide-bbox="true">
    <sodipodi:guide
       orientation="horizontal"
       position="761.5"
       id="guide1885" />
    <sodipodi:guide
       orientation="vertical"
       position="1.5"
       id="guide1887" />
    <sodipodi:guide
       orientation="horizontal"
       position="1.5"
       id="guide1889" />
    <sodipodi:guide
       orientation="vertical"
       position="601.5"
       id="guide1891" />
    <sodipodi:guide
       orientation="vertical"
       position="301.50081"
       id="guide1893" />
  </sodipodi:namedview>
  <desc
     id="desc22">Coat of Arms of Canton of Freiburg (Fribourg)</desc>
  <g
     inkscape:groupmode="layer"
     id="layer1"
     inkscape:label="Fond écu"
     style="opacity:1;display:inline"
     sodipodi:insensitive="true">
    <path
       d="M 1.501812,1.5009984 L 1.501812,460.37 C 1.501812,626.681 135.81581,761.501 301.50181,761.501 C 467.18781,761.501 601.50181,626.681 601.50181,460.37 L 601.50181,1.5009984 L 1.501812,1.5009984 z"
       id="path2503"
       style="opacity:1;fill:#e20909" />
  </g>
  <g
     inkscape:groupmode="layer"
     id="layer2"
     inkscape:label="Meubles"
     style="opacity:1;display:inline"
     sodipodi:insensitive="true">
    <path
       id="path2487"
       d="M 371.30581,516.837 C 334.62581,516.837 304.82581,484.17 304.82581,399.922 C 304.82581,315.673 361.56281,237.73 361.56281,178.699 C 361.56281,119.668 308.83681,92.157998 301.50081,78.976998 C 294.16581,92.158998 241.43881,119.668 241.43881,178.699 C 241.43881,237.73 298.17681,315.673 298.17681,399.922 C 298.17681,484.17 268.37581,516.837 231.69581,516.837 C 195.01681,516.837 187.56681,501.363 187.56681,501.363 C 187.56681,535.751 193.29781,582.745 231.69581,582.745 C 256.34081,582.745 269.52181,558.101 269.52181,558.101 C 269.52181,558.101 268.48981,624.811 301.50081,657.824 C 334.51281,624.811 333.47981,558.101 333.47981,558.101 C 333.47981,558.101 346.66181,582.745 371.30481,582.745 C 409.70281,582.745 415.43581,535.751 415.43581,501.363 C 415.43681,501.364 407.98481,516.837 371.30581,516.837 z M 232.26981,327.137 C 277.41281,372.281 259.20581,424.566 243.73181,446.345 C 228.25781,468.123 208.19881,459.526 208.19881,459.526 C 208.19881,459.526 215.64881,485.317 233.98881,485.317 C 252.32781,485.317 272.38681,461.246 272.38681,399.922 C 272.38681,307.651 208.77081,208.501 140.56981,208.501 C 113.06081,208.501 90.70881,226.841 82.685812,242.315 C 74.661812,257.789 71.795812,284.152 95.29381,315.101 C 118.79181,346.05 126.52881,366.108 118.21781,385.021 C 144.00881,385.021 148.02081,356.938 157.76281,334.586 C 163.39681,321.664 195.87581,290.744 232.26981,327.137 z M 520.31581,242.315 C 512.29381,226.841 489.94081,208.501 462.43081,208.501 C 394.23081,208.501 330.61481,307.65 330.61481,399.922 C 330.61481,461.245 350.67481,485.317 369.01281,485.317 C 387.35381,485.317 394.80381,459.526 394.80381,459.526 C 394.80381,459.526 374.74481,468.124 359.27081,446.345 C 343.79681,424.566 325.58781,372.28 370.73381,327.137 C 407.12581,290.744 439.60581,321.665 445.23781,334.587 C 454.98081,356.939 458.99281,385.022 484.78381,385.022 C 476.47281,366.109 484.21081,346.05 507.70781,315.102 C 531.20481,284.153 528.33881,257.789 520.31581,242.315 z"
       stroke-miterlimit="20"
       style="fill:#ffffff;fill-opacity:1;stroke:#000000;stroke-width:3;stroke-miterlimit:20" />
    <path
       id="path2489"
       d="M 351.24681,386.741 L 251.75481,386.741 C 244.15781,386.741 237.99981,392.899 237.99981,400.496 C 237.99981,408.092 244.15781,414.251 251.75481,414.251 L 351.24681,414.251 C 358.84281,414.251 365.00181,408.092 365.00181,400.496 C 365.00181,392.899 358.84281,386.741 351.24681,386.741 z"
       stroke-miterlimit="20"
       style="fill:#ffffff;fill-opacity:1;stroke:#000000;stroke-width:3;stroke-miterlimit:20" />
  </g>
  <g
     inkscape:groupmode="layer"
     id="layer3"
     inkscape:label="Reflet final"
     style="display:inline"
     sodipodi:insensitive="true">
    <path
       style="fill:url(#radialGradient3236);fill-opacity:1"
       d="M 1.5,1.5 L 1.5,460.3679 C 1.5,626.67854 135.81454,761.5 301.49993,761.5 C 467.1854,761.5 601.5,626.67854 601.5,460.3679 L 601.5,1.5 L 1.5,1.5 z"
       id="path2346" />
  </g>
  <g
     inkscape:groupmode="layer"
     id="layer4"
     inkscape:label="Contour final"
     style="display:inline"
     sodipodi:insensitive="true">
    <path
       style="fill:none;fill-opacity:1;stroke:#000000;stroke-width:3;stroke-miterlimit:4;stroke-dasharray:none;stroke-opacity:1"
       d="M 1.5,1.5 L 1.5,460.36794 C 1.5,626.67854 135.81454,761.5 301.49993,761.5 C 467.1854,761.5 601.5,626.67854 601.5,460.36794 L 601.5,1.5 L 1.5,1.5 z"
       id="path3239" />
  </g>
</svg>
