<?xml version="1.0" encoding="UTF-8"?>
<svg version="1.0" viewBox="0 0 603 763" xmlns="http://www.w3.org/2000/svg" xmlns:cc="http://web.resource.org/cc/" xmlns:dc="http://purl.org/dc/elements/1.1/" xmlns:rdf="http://www.w3.org/1999/02/22-rdf-syntax-ns#" xmlns:xlink="http://www.w3.org/1999/xlink">
<metadata>
<rdf:RDF>
<cc:Work rdf:about="">
<dc:format>image/svg+xml</dc:format>
<dc:type rdf:resource="http://purl.org/dc/dcmitype/StillImage"/>
<dc:date>07-AUG-2006</dc:date>
<dc:creator>
<cc:Agent>
<dc:title>Jérôme BLUM (wagner51)</dc:title>
</cc:Agent>
</dc:creator>
<cc:license rdf:resource="http://creativecommons.org/licenses/GPL/2.0/"/>
<dc:coverage/>
<dc:description>Gabarit pour le Projet:Blasons de WIkipédia</dc:description>
<dc:subject>
<rdf:Bag>
<rdf:li>blason suisse modèle gabarit projet blasons</rdf:li>
</rdf:Bag>
</dc:subject>
<dc:language>fr</dc:language>
<dc:title>Gabrit d'un blason suisse</dc:title>
</cc:Work>
<cc:License rdf:about="http://creativecommons.org/licenses/GPL/2.0/">
<cc:permits rdf:resource="http://web.resource.org/cc/Reproduction"/>
<cc:permits rdf:resource="http://web.resource.org/cc/Distribution"/>
<cc:requires rdf:resource="http://web.resource.org/cc/Notice"/>
<cc:permits rdf:resource="http://web.resource.org/cc/DerivativeWorks"/>
<cc:requires rdf:resource="http://web.resource.org/cc/ShareAlike"/>
<cc:requires rdf:resource="http://web.resource.org/cc/SourceCode"/>
</cc:License>
</rdf:RDF>
</metadata>
<defs>
<radialGradient id="a" cx="858.04" cy="579.93" r="300" gradientTransform="matrix(1.215 1.5316e-24 1.4647e-23 1.2667 -839.19 -490.49)" gradientUnits="userSpaceOnUse">
<stop stop-color="#fff" stop-opacity=".31373" offset="0"/>
<stop stop-color="#fff" stop-opacity=".25098" offset=".19"/>
<stop stop-color="#6b6b6b" stop-opacity=".12549" offset=".6"/>
<stop stop-opacity=".12549" offset="1"/>
</radialGradient>
</defs>
<desc>Coat of Arms of Canton of Freiburg (Fribourg)</desc>
<path d="m1.5 1.5v458.87c0 166.31 134.31 301.13 300 301.13 165.69 0 300-134.82 300-301.13v-458.87h-600z" fill="#2b5df2"/>
<g>
<path d="m1.5 4.3438v297.31h600v-297.31h-600z" fill="#fff" stroke="#000" stroke-width="2.6908"/>
<path d="m384.94 204.46-57.055-25.471 1.3826-10.37 36.424 0.69132c26.75 33.064 51.504 44.581 73.647 27.89-13.981-14.655-29.134-29.179-35.149-44.719 65.303 47.779 115.9 132.16 174.04 72.81-59.863-15.93-99.895-60.697-142.21-97.998 40.666 21.921 116.45 105.53 157.87 28.92-42.76-12.642-86.59-32.018-126.18-59.131 37.614 14.629 108.41 49.655 126.74-14-27.814-0.90704-55.666-2.0457-84.921-11.605 14.704-10.079 23.046-21.976 27.448-34.999-41.364 13.424-78.857 13.134-124.34-0.18527-37.237-10.905-53.161 42.388-18.421 56.368-11.154 14.472-36.395 25.086-56.736 23.394-0.67068-6.3907-5.8164-8.3063-12.342-8.8416 7.2178-21.769 23.204-19.993 23.947-47.894 7.614-3.3137 15.228-6.2536 22.842-22.474-17.948 1.6722-36.048 3.4999-51.395-1.1052-10.881-3.265-22.227-5.0537-33.341 1.1052-18.587-0.088302-45.209-10.371-39.605 18.974 15.231-4.3217 31.339 6.1068 36.43 18.669-12.742-1.2329-23.989-4.4274-38.641-2.4583-24.978 3.3569-24.182-13.668-20.804-22.533 11.785 23.868 39.854 3.8976 59.445 24.991-9.6326 4.2755-19.265 8.5231-28.898 2.8994 2.9591 23.143 21.972 9.8559 32.038 17.175l-7.2588 13.027c-7.7066-0.9351-12.569 1.2376-14.755 8.123-29.195 2.996-51.218-7.7303-69.844-24.952 29.803-10.894 28.619-63.697-17.002-53.361-32.415 7.3439-71.922 14.106-106.79 2.4196 5.6374 12.024 9.8277 24.369 23.397 34.631-25.694 8.6015-49.008 24.184-81.143 13.891 37.415 76.815 81.121 18.719 122.23 16.246-42.429 21.992-82.902 53.376-127.42 65.351 58.91 66.237 104.66-21.556 158.42-37.05-48.069 32.357-91.89 80.289-144.87 94.624 62.95 53.143 118.38-21.835 181.99-72.955l-45.065 50.488c39.339 13.172 58.84-5.3962 78.032-34.35l38.26-1.037 1.0498 9.687c-14.07 6.0059-36.174 17.053-52.682 27.19l4.1479 5.7681-41.609 16.484c-24.903-14.296-49.593-28.259-47.485-0.23759 11.508-9.701 21.711 0.17458 32.384 3.0029-28.548-1.3841-56.705-2.5403-35.732 24.887 5.1135-15.381 22.417-13.492 38.152-13.826-16.111 9.4694-42.552 18.25-5.8762 31.239-3.0994-19.326 14.366-21.026 22.705-30.547 14.347 5.5978 25.355 13.907 25.471 24.779 28.012-7.5329 12.182-18.912-11.752-31.001l29.51-10.715 9.6784 14.863 36.877-41.609c5.4304 25.632-9.051 45.006-35.84 60.512 11.94 15.048 26.221 7.857 39.88 6.5675 2.8176 8.3161 11.425 12.772 19.594 17.52 6.2162-5.5309 13.515-9.6183 17.175-18.557 12.062 5.0746 24.124 2.1297 36.186-3.8022-31.707-17.624-39.03-40.381-35.84-65.351l40.917 44.028 12.789-18.212 35.387 14.755c-24.853 6.3871-43.574 14.307-17.52 33.421 0.51302-14.814 9.1745-24.482 27.199-28.236 9.8556 7.9637 24.627 14.562 18.903 26.853 29.739-2.4448 16.221-15.887-7.9502-32.038 17.096 3.5358 39.663 1.5999 41.263 20.631 15.686-35.201-10.833-28.198-29.273-29.273 6.614-6.2769 13.928-10.452 24.196-5.7681-9.2408-26.898-28.08-10.942-45.319 4.3766l-40.771-16.712 3.8022-5.8762z" fill-rule="evenodd" stroke="#000" stroke-width="2"/>
<path d="m272.96 173.49c-7.2759-15.004-11.198-31.125-11.973-48.296" fill="#fff" fill-rule="evenodd" stroke="#fff" stroke-width="4.1263px"/>
<path d="m332.82 173.49c4.0178-16.255 8.4241-32.51 8.2526-48.765" fill="#fff" fill-rule="evenodd" stroke="#fff" stroke-width="4.1263px"/>
<path d="m282.5 47.268c3.1865 14.231 7.9237 27.222 16.505 37.137" fill="#fff" fill-rule="evenodd" stroke="#fff" stroke-width="4.1263px"/>
<path d="m294.13 48.831 6.7572-0.43664c2.5958 3.7649 3.7874 8.2321 10.435 9.971-2.6747-2.3817-1.9698-5.6084-0.34363-9.0653l17.724 1.2191c-0.87192 15.308-27.048 26.615-34.573-1.6881z" fill="#fff" fill-rule="evenodd" stroke="#000" stroke-width="4.1263px"/>
<g fill="#fcef3c" stroke="#000">
<rect x="157.12" y="302.37" width="288.92" height="50.146" stroke-width="4.1922"/>
<rect x="156.98" y="352.47" width="289.05" height="51.025" stroke-width="4.2297"/>
<rect x="156.98" y="403.48" width="289.05" height="51.025" stroke-width="4.2297"/>
<rect x="156.98" y="454.48" width="289.05" height="51.025" stroke-width="4.2297"/>
<rect x="156.98" y="505.49" width="289.05" height="51.025" stroke-width="4.2297"/>
<rect x="156.98" y="556.49" width="289.05" height="51.025" stroke-width="4.2297"/>
<rect x="156.98" y="607.5" width="289.05" height="51.025" stroke-width="4.2297"/>
<rect x="156.98" y="658.5" width="289.05" height="51.025" stroke-width="4.2297"/>
<path d="m156.97 709.5v14.781c36.231 20.035 77.005 32.785 120.41 36.25h48.25c43.401-3.4652 84.175-16.215 120.41-36.25v-14.781h-289.06z" stroke-width="3"/>
<path d="m382 302.5v448c13.32-3.705 26.28-8.2817 38.785-13.711v-434.29h-38.785z" stroke-width="2.9959"/>
<path d="m186.47 302.5v436.1c12.521 5.2069 25.476 9.5972 38.785 13.088v-449.19h-38.785z" stroke-width="2.9959"/>
<path transform="matrix(6.2877 0 0 6.0459 -4019.7 -3753.1)" d="m673.4 734.08a1.1893 1.2368 0 1 1-2.3785 0 1.1893 1.2368 0 1 1 2.3785 0z" stroke-width=".67657"/>
<path transform="matrix(6.2877 0 0 6.0459 -4019.7 -3702)" d="m673.4 734.08a1.1893 1.2368 0 1 1-2.3785 0 1.1893 1.2368 0 1 1 2.3785 0z" stroke-width=".67657"/>
<path transform="matrix(6.2877 0 0 6.0459 -4019.7 -3804.1)" d="m673.4 734.08a1.1893 1.2368 0 1 1-2.3785 0 1.1893 1.2368 0 1 1 2.3785 0z" stroke-width=".67657"/>
<path transform="matrix(6.2877 0 0 6.0459 -4019.7 -3855.1)" d="m673.4 734.08a1.1893 1.2368 0 1 1-2.3785 0 1.1893 1.2368 0 1 1 2.3785 0z" stroke-width=".67657"/>
<path transform="matrix(6.2877 0 0 6.0459 -4019.7 -3906.1)" d="m673.4 734.08a1.1893 1.2368 0 1 1-2.3785 0 1.1893 1.2368 0 1 1 2.3785 0z" stroke-width=".67657"/>
<path transform="matrix(6.2877 0 0 6.0459 -4019.7 -3957.1)" d="m673.4 734.08a1.1893 1.2368 0 1 1-2.3785 0 1.1893 1.2368 0 1 1 2.3785 0z" stroke-width=".67657"/>
<path transform="matrix(6.2877 0 0 6.0459 -4019.7 -4008.1)" d="m673.4 734.08a1.1893 1.2368 0 1 1-2.3785 0 1.1893 1.2368 0 1 1 2.3785 0z" stroke-width=".67657"/>
<path transform="matrix(6.2877 0 0 6.0459 -4019.7 -4059.1)" d="m673.4 734.08a1.1893 1.2368 0 1 1-2.3785 0 1.1893 1.2368 0 1 1 2.3785 0z" stroke-width=".67657"/>
<path transform="matrix(6.2877 0 0 6.0459 -4019.7 -4110.1)" d="m673.4 734.08a1.1893 1.2368 0 1 1-2.3785 0 1.1893 1.2368 0 1 1 2.3785 0z" stroke-width=".67657"/>
<path transform="matrix(6.2877 0 0 6.0459 -3824.2 -4110.1)" d="m673.4 734.08a1.1893 1.2368 0 1 1-2.3785 0 1.1893 1.2368 0 1 1 2.3785 0z" stroke-width=".67657"/>
<path transform="matrix(6.2877 0 0 6.0459 -3824.2 -4059.1)" d="m673.4 734.08a1.1893 1.2368 0 1 1-2.3785 0 1.1893 1.2368 0 1 1 2.3785 0z" stroke-width=".67657"/>
<path transform="matrix(6.2877 0 0 6.0459 -3824.2 -4008.1)" d="m673.4 734.08a1.1893 1.2368 0 1 1-2.3785 0 1.1893 1.2368 0 1 1 2.3785 0z" stroke-width=".67657"/>
<path transform="matrix(6.2877 0 0 6.0459 -3824.2 -3957.1)" d="m673.4 734.08a1.1893 1.2368 0 1 1-2.3785 0 1.1893 1.2368 0 1 1 2.3785 0z" stroke-width=".67657"/>
<path transform="matrix(6.2877 0 0 6.0459 -3824.2 -3906.1)" d="m673.4 734.08a1.1893 1.2368 0 1 1-2.3785 0 1.1893 1.2368 0 1 1 2.3785 0z" stroke-width=".67657"/>
<path transform="matrix(6.2877 0 0 6.0459 -3824.2 -3855.1)" d="m673.4 734.08a1.1893 1.2368 0 1 1-2.3785 0 1.1893 1.2368 0 1 1 2.3785 0z" stroke-width=".67657"/>
<path transform="matrix(6.2877 0 0 6.0459 -3824.2 -3804.1)" d="m673.4 734.08a1.1893 1.2368 0 1 1-2.3785 0 1.1893 1.2368 0 1 1 2.3785 0z" stroke-width=".67657"/>
<path transform="matrix(6.2877 0 0 6.0459 -3824.2 -3753.1)" d="m673.4 734.08a1.1893 1.2368 0 1 1-2.3785 0 1.1893 1.2368 0 1 1 2.3785 0z" stroke-width=".67657"/>
<path transform="matrix(6.2877 0 0 6.0459 -3824.2 -3702)" d="m673.4 734.08a1.1893 1.2368 0 1 1-2.3785 0 1.1893 1.2368 0 1 1 2.3785 0z" stroke-width=".67657"/>
</g>
</g>
<g>
<path d="m1.5 1.5v458.87c0 166.31 134.31 301.13 300 301.13 165.69 0 300-134.82 300-301.13v-458.87h-600z" fill="url(#a)"/>
<path d="m1.5 1.5v458.87c0 166.31 134.31 301.13 300 301.13 165.69 0 300-134.82 300-301.13v-458.87h-600z" fill="none" stroke="#000" stroke-width="3"/>
</g>
</svg>
