<?xml version="1.0" encoding="UTF-8"?>
<svg version="1.0" viewBox="0 0 603 763" xmlns="http://www.w3.org/2000/svg" xmlns:cc="http://creativecommons.org/ns#" xmlns:dc="http://purl.org/dc/elements/1.1/" xmlns:rdf="http://www.w3.org/1999/02/22-rdf-syntax-ns#" xmlns:xlink="http://www.w3.org/1999/xlink">
<metadata>
<rdf:RDF>
<cc:Work rdf:about="">
<dc:format>image/svg+xml</dc:format>
<dc:type rdf:resource="http://purl.org/dc/dcmitype/StillImage"/>
<dc:date>07-AUG-2006</dc:date>
<dc:creator>
<cc:Agent>
<dc:title>Jérôme BLUM (wagner51)</dc:title>
</cc:Agent>
</dc:creator>
<cc:license rdf:resource="http://creativecommons.org/licenses/GPL/2.0/"/>
<dc:coverage/>
<dc:description>Gabarit pour le Projet:Blasons de WIkipédia</dc:description>
<dc:subject>
<rdf:Bag>
<rdf:li>blason suisse modèle gabarit projet blasons</rdf:li>
</rdf:Bag>
</dc:subject>
<dc:language>fr</dc:language>
<dc:title>Gabrit d'un blason suisse</dc:title>
</cc:Work>
<cc:License rdf:about="http://creativecommons.org/licenses/GPL/2.0/">
<cc:permits rdf:resource="http://web.resource.org/cc/Reproduction"/>
<cc:permits rdf:resource="http://web.resource.org/cc/Distribution"/>
<cc:requires rdf:resource="http://web.resource.org/cc/Notice"/>
<cc:permits rdf:resource="http://web.resource.org/cc/DerivativeWorks"/>
<cc:requires rdf:resource="http://web.resource.org/cc/ShareAlike"/>
<cc:requires rdf:resource="http://web.resource.org/cc/SourceCode"/>
</cc:License>
</rdf:RDF>
</metadata>
<defs>
<radialGradient id="a" cx="858.04" cy="579.93" r="300" gradientTransform="matrix(1.215 1.5316e-24 1.4647e-23 1.2667 -839.19 -490.49)" gradientUnits="userSpaceOnUse">
<stop stop-color="#fff" stop-opacity=".31373" offset="0"/>
<stop stop-color="#fff" stop-opacity=".25098" offset=".19"/>
<stop stop-color="#6b6b6b" stop-opacity=".12549" offset=".6"/>
<stop stop-opacity=".12549" offset="1"/>
</radialGradient>
</defs>
<desc>Coat of Arms of Canton of Freiburg (Fribourg)</desc>
<g>
<path d="m1.5 1.5v458.87c0 166.31 134.31 301.13 300 301.13 165.69 0 300-134.82 300-301.13v-458.87h-600z" fill="#e20909"/>
<path d="m1.5 251.19v209.18c0 13.74 0.936 27.258 2.71 40.508h594.58c1.775-13.25 2.711-26.768 2.711-40.508v-209.18h-600z" fill="#fff"/>
<line x1="4.195" x2="598.8" y1="500.88" y2="500.88" fill="none" stroke="#000" stroke-width="3"/>
<line x1="1.5" x2="601.5" y1="251.19" y2="251.19" fill="none" stroke="#000" stroke-width="3"/>
<g stroke="#000" stroke-linecap="round" stroke-linejoin="round">
<path d="m301.5 722.62c23.753 0 25.066-15.404 25.066-18.656 5.509 4.799 13.399 9.289 21.586 4.489 8.187-4.799 9.378-14.709 7.145-18.114 0 0 9.229 4.489 16.375-4.802 7.146-9.289 3.274-17.186-0.894-20.127 2.979 2.323 9.378-0.929 12.355-5.574 2.979-4.646 3.573-14.089-0.296-16.015 3.744-3.894 7.954-8.029 7.954-14.354 0-5.732-0.629-9.978-13.124-14.193 0 0 6.44-5.072-0.919-13.687-7.362-8.612-22.546-13.491-32.842-13.491-6.028-12.234 1.312-19.715 1.312-25.014 0-5.851-3.936-9.84-12.449-9.84h-15.494c0-6.317-7.063-11.437-15.775-11.437-8.713 0-15.775 5.119-15.775 11.437h-15.493c-8.516 0-12.453 3.988-12.453 9.84 0 5.299 7.344 12.779 1.315 25.014-10.297 0-25.481 4.879-32.843 13.491-7.361 8.616-0.918 13.687-0.918 13.687-12.496 4.216-13.124 8.461-13.124 14.193 0 6.324 4.209 10.461 7.951 14.354-3.866 1.926-3.271 11.368-0.295 16.015 2.978 4.646 9.379 7.897 12.355 5.574-4.167 2.941-8.037 10.838-0.891 20.127 7.146 9.291 16.374 4.802 16.374 4.802-2.233 3.405-1.042 13.315 7.146 18.114 8.187 4.8 16.074 0.31 21.584-4.489-2e-3 3.252 1.31 18.656 25.067 18.656z" fill="#fcef3c" stroke-width="3"/>
<path d="m296.54 608.66s-4.015 42.05-11.627 69.913c-3.721 13.624-8.484 22.14-8.484 25.393" fill="none" stroke-width="2.5"/>
<path d="m306.46 608.66s4.016 42.05 11.627 69.913c3.721 13.624 8.483 22.14 8.483 25.393" fill="none" stroke-width="2.5"/>
<path d="m288.64 602.25s-7.444 33.289-21.286 57.596c-13.844 24.308-17.417 27.095-19.65 30.501" fill="none" stroke-width="2.5"/>
<path d="m283.72 595.59s-12.837 33.902-34.088 54.19c-10.866 10.372-13.25 12.694-17.416 15.636" fill="none" stroke-width="2.5"/>
<path d="m277.77 588.16s-16.248 30.696-42.871 47.066c-9.569 5.884-10.873 6.678-14.739 8.603" fill="none" stroke-width="2.5"/>
<path d="m225.33 615.28c48.272-16.286 56.585-51.502 56.585-51.502" fill="none" stroke-width="2.5"/>
<path d="m259.09 588.1c-0.628 1.272-1.397 2.594-2.337 3.971" fill="none" stroke-width="2.5"/>
<path d="m314.36 602.25s7.444 33.289 21.287 57.596c13.845 24.308 17.416 27.095 19.649 30.501" fill="none" stroke-width="2.5"/>
<path d="m319.27 595.59s12.837 33.902 34.088 54.19c10.867 10.372 13.247 12.694 17.414 15.636" fill="none" stroke-width="2.5"/>
<path d="m325.23 588.16s16.248 30.696 42.87 47.066c9.568 5.884 10.873 6.678 14.738 8.603" fill="none" stroke-width="2.5"/>
<path d="m377.67 615.28c-48.271-16.286-56.585-51.502-56.585-51.502" fill="none" stroke-width="2.5"/>
<path d="m343.9 588.1c0.627 1.272 1.396 2.594 2.335 3.971" fill="none" stroke-width="2.5"/>
<path d="m233.52 600.1s-6.291 2.618-5.213 9.909" fill="none" stroke-width="2.5"/>
<path d="m219.86 622.53s-3.595 8.228 1.616 14.583" fill="none" stroke-width="2.5"/>
<path d="m223.81 646.84s-1.26 9.162 5.391 13.274" fill="none" stroke-width="2.5"/>
<path d="m233.7 671.52s0.719 11.591 11.864 13.087" fill="none" stroke-width="2.5"/>
<path d="m253.11 693.76s0.719 9.536 13.662 9.35" fill="none" stroke-width="2.5"/>
<path d="m369.48 600.1s6.291 2.618 5.214 9.909" fill="none" stroke-width="2.5"/>
<path d="m383.14 622.53s3.594 8.228-1.618 14.583" fill="none" stroke-width="2.5"/>
<path d="m379.18 646.84s1.26 9.162-5.392 13.274" fill="none" stroke-width="2.5"/>
<path d="m369.3 671.52s-0.719 11.591-11.864 13.087" fill="none" stroke-width="2.5"/>
<path d="m349.88 693.76s-0.717 9.536-13.661 9.35" fill="none" stroke-width="2.5"/>
<path d="m319.51 707.98s-4.021 6.653-18.008 6.653-18.01-6.653-18.01-6.653" fill="none" stroke-width="2.5"/>
</g>
<g stroke="#000" stroke-linecap="round" stroke-linejoin="round">
<path d="m151.5 217.74c23.753 0 25.067-15.404 25.067-18.656 5.508 4.798 13.398 9.289 21.585 4.488 8.186-4.798 9.377-14.708 7.144-18.114 0 0 9.23 4.49 16.375-4.801 7.145-9.289 3.273-17.186-0.894-20.127 2.978 2.323 9.378-0.928 12.355-5.573 2.979-4.646 3.574-14.089-0.295-16.015 3.744-3.893 7.954-8.029 7.954-14.355 0-5.731-0.629-9.977-13.124-14.192 0 0 6.44-5.072-0.919-13.686-7.362-8.613-22.546-13.492-32.842-13.492-6.028-12.234 1.312-19.715 1.312-25.014 0-5.85-3.936-9.84-12.449-9.84h-15.495c0-6.317-7.063-11.436-15.774-11.436-8.713 0-15.775 5.119-15.775 11.436h-15.493c-8.516 0-12.453 3.989-12.453 9.84 0 5.299 7.344 12.78 1.315 25.014-10.297 0-25.481 4.879-32.843 13.492-7.362 8.616-0.919 13.686-0.919 13.686-12.495 4.215-13.123 8.461-13.123 14.192 0 6.325 4.208 10.462 7.951 14.355-3.866 1.926-3.271 11.369-0.295 16.015 2.977 4.645 9.379 7.896 12.355 5.573-4.167 2.941-8.038 10.838-0.892 20.127 7.146 9.291 16.374 4.801 16.374 4.801-2.233 3.406-1.042 13.316 7.146 18.114 8.187 4.801 16.074 0.31 21.584-4.488-1e-3 3.252 1.311 18.656 25.068 18.656z" fill="#fcef3c" stroke-width="3"/>
<path d="m146.54 103.78s-4.015 42.049-11.627 69.913c-3.721 13.624-8.484 22.138-8.484 25.392" fill="none" stroke-width="2.5"/>
<path d="m156.46 103.78s4.016 42.049 11.627 69.913c3.721 13.624 8.484 22.138 8.484 25.392" fill="none" stroke-width="2.5"/>
<path d="m138.64 97.361s-7.444 33.288-21.286 57.596c-13.844 24.307-17.416 27.093-19.65 30.5" fill="none" stroke-width="2.5"/>
<path d="m133.72 90.702s-12.837 33.904-34.088 54.19c-10.865 10.373-13.25 12.695-17.416 15.636" fill="none" stroke-width="2.5"/>
<path d="m127.77 83.27s-16.248 30.696-42.871 47.067c-9.569 5.884-10.873 6.678-14.739 8.603" fill="none" stroke-width="2.5"/>
<path d="m75.329 110.4c48.272-16.287 56.585-51.502 56.585-51.502" fill="none" stroke-width="2.5"/>
<path d="m109.09 83.215c-0.628 1.272-1.398 2.593-2.337 3.971" fill="none" stroke-width="2.5"/>
<path d="m164.36 97.361s7.445 33.288 21.287 57.596c13.845 24.307 17.416 27.093 19.649 30.5" fill="none" stroke-width="2.5"/>
<path d="m169.27 90.702s12.838 33.904 34.088 54.19c10.868 10.373 13.247 12.695 17.414 15.636" fill="none" stroke-width="2.5"/>
<path d="m175.23 83.27s16.248 30.696 42.87 47.067c9.569 5.884 10.873 6.678 14.738 8.603" fill="none" stroke-width="2.5"/>
<path d="m227.67 110.4c-48.271-16.287-56.585-51.502-56.585-51.502" fill="none" stroke-width="2.5"/>
<path d="m193.9 83.215c0.626 1.272 1.396 2.593 2.336 3.971" fill="none" stroke-width="2.5"/>
<path d="m83.518 95.211s-6.291 2.618-5.213 9.908" fill="none" stroke-width="2.5"/>
<path d="m69.858 117.65s-3.595 8.227 1.616 14.583" fill="none" stroke-width="2.5"/>
<path d="m73.814 141.95s-1.26 9.162 5.391 13.273" fill="none" stroke-width="2.5"/>
<path d="m83.698 166.63s0.719 11.592 11.864 13.087" fill="none" stroke-width="2.5"/>
<path d="m103.11 188.88s0.719 9.536 13.662 9.35" fill="none" stroke-width="2.5"/>
<path d="m219.48 95.211s6.292 2.618 5.215 9.908" fill="none" stroke-width="2.5"/>
<path d="m233.14 117.65s3.594 8.227-1.618 14.583" fill="none" stroke-width="2.5"/>
<path d="m229.18 141.95s1.259 9.162-5.392 13.273" fill="none" stroke-width="2.5"/>
<path d="m219.3 166.63s-0.719 11.592-11.864 13.087" fill="none" stroke-width="2.5"/>
<path d="m199.88 188.88s-0.717 9.536-13.662 9.35" fill="none" stroke-width="2.5"/>
<path d="m169.51 203.09s-4.022 6.653-18.008 6.653c-13.987 0-18.01-6.653-18.01-6.653" fill="none" stroke-width="2.5"/>
</g>
<g stroke="#000" stroke-linecap="round" stroke-linejoin="round">
<path d="m476.56 199.08c5.511 4.798 13.397 9.289 21.585 4.488 8.188-4.798 9.379-14.708 7.146-18.113 0 0 9.229 4.489 16.374-4.802 7.146-9.289 3.275-17.186-0.892-20.127 2.977 2.323 9.378-0.928 12.354-5.573 2.977-4.646 3.571-14.089-0.295-16.015 3.743-3.893 7.951-8.03 7.951-14.355 0-5.732-0.628-9.977-13.122-14.192 0 0 6.442-5.07-0.92-13.686-7.36-8.613-22.546-13.492-32.843-13.492-6.028-12.234 1.315-19.715 1.315-25.014 0-5.851-3.937-9.84-12.453-9.84h-15.492c0-6.316-7.063-11.436-15.775-11.436s-15.775 5.12-15.775 11.436h-15.493c-8.515 0-12.45 3.99-12.45 9.84 0 5.299 7.341 12.78 1.313 25.014-10.297 0-25.481 4.879-32.843 13.492-7.359 8.613-0.92 13.686-0.92 13.686-12.494 4.215-13.123 8.46-13.123 14.192 0 6.326 4.211 10.462 7.954 14.355-3.869 1.926-3.274 11.369-0.295 16.015 2.977 4.645 9.376 7.896 12.354 5.573-4.167 2.941-8.038 10.838-0.894 20.127 7.146 9.291 16.375 4.802 16.375 4.802-2.232 3.406-1.041 13.315 7.146 18.113 8.187 4.801 16.076 0.31 21.585-4.488 0 3.252 1.313 18.657 25.066 18.657 23.757 0 25.069-15.404 25.067-18.657z" fill="#fcef3c" stroke-width="3"/>
<path d="m476.57 199.08c0-3.253-4.762-11.769-8.483-25.392-7.612-27.864-11.627-69.913-11.627-69.913" fill="none" stroke-width="2.5"/>
<path d="m426.43 199.08c0-3.253 4.762-11.769 8.483-25.392 7.611-27.864 11.627-69.913 11.627-69.913" fill="none" stroke-width="2.5"/>
<path d="m505.3 185.46c-2.234-3.407-5.807-6.193-19.65-30.5-13.842-24.308-21.286-57.596-21.286-57.596" fill="none" stroke-width="2.5"/>
<path d="m520.78 160.53c-4.167-2.941-6.551-5.263-17.416-15.636-21.251-20.287-34.088-54.19-34.088-54.19" fill="none" stroke-width="2.5"/>
<path d="m532.84 138.94c-3.866-1.924-5.169-2.719-14.738-8.603-26.623-16.371-42.872-47.066-42.872-47.066" fill="none" stroke-width="2.5"/>
<path d="m471.08 58.893s8.312 35.215 56.584 51.502" fill="none" stroke-width="2.5"/>
<path d="m496.25 87.185c-0.94-1.376-1.71-2.698-2.338-3.97" fill="none" stroke-width="2.5"/>
<path d="m397.7 185.46c2.232-3.407 5.804-6.193 19.648-30.5 13.842-24.308 21.287-57.596 21.287-57.596" fill="none" stroke-width="2.5"/>
<path d="m382.22 160.53c4.168-2.941 6.547-5.263 17.414-15.636 21.251-20.287 34.088-54.19 34.088-54.19" fill="none" stroke-width="2.5"/>
<path d="m370.16 138.94c3.866-1.924 5.169-2.719 14.738-8.603 26.622-16.371 42.87-47.066 42.87-47.066" fill="none" stroke-width="2.5"/>
<path d="m431.92 58.893s-8.315 35.215-56.587 51.502" fill="none" stroke-width="2.5"/>
<path d="m406.76 87.185c0.938-1.376 1.708-2.698 2.336-3.97" fill="none" stroke-width="2.5"/>
<path d="m524.69 105.12c1.078-7.291-5.213-9.908-5.213-9.908" fill="none" stroke-width="2.5"/>
<path d="m531.52 132.23c5.212-6.357 1.616-14.584 1.616-14.584" fill="none" stroke-width="2.5"/>
<path d="m523.79 155.22c6.65-4.112 5.39-13.273 5.39-13.273" fill="none" stroke-width="2.5"/>
<path d="m507.44 179.72c11.145-1.495 11.864-13.087 11.864-13.087" fill="none" stroke-width="2.5"/>
<path d="m486.22 198.23c12.943 0.187 13.663-9.349 13.663-9.349" fill="none" stroke-width="2.5"/>
<path d="m378.31 105.12c-1.077-7.291 5.215-9.908 5.215-9.908" fill="none" stroke-width="2.5"/>
<path d="m371.48 132.23c-5.212-6.357-1.618-14.584-1.618-14.584" fill="none" stroke-width="2.5"/>
<path d="m379.2 155.22c-6.65-4.112-5.391-13.273-5.391-13.273" fill="none" stroke-width="2.5"/>
<path d="m395.56 179.72c-11.145-1.495-11.864-13.087-11.864-13.087" fill="none" stroke-width="2.5"/>
<path d="m416.78 198.23c-12.944 0.187-13.662-9.349-13.662-9.349" fill="none" stroke-width="2.5"/>
<path d="m469.51 203.09s-4.021 6.653-18.009 6.653c-13.987 0-18.008-6.653-18.008-6.653" fill="none" stroke-width="2.5"/>
</g>
</g>
<g>
<path d="m1.5 1.5v458.87c0 166.31 134.31 301.13 300 301.13 165.69 0 300-134.82 300-301.13v-458.87h-600z" fill="url(#a)"/>
<path d="m1.5 1.5v458.87c0 166.31 134.31 301.13 300 301.13 165.69 0 300-134.82 300-301.13v-458.87h-600z" fill="none" stroke="#000" stroke-width="3"/>
</g>
</svg>
