<?xml version="1.0" encoding="UTF-8"?>
<svg version="1.0" viewBox="0 0 603 763" xmlns="http://www.w3.org/2000/svg" xmlns:cc="http://creativecommons.org/ns#" xmlns:dc="http://purl.org/dc/elements/1.1/" xmlns:rdf="http://www.w3.org/1999/02/22-rdf-syntax-ns#" xmlns:xlink="http://www.w3.org/1999/xlink">
<metadata>
<rdf:RDF>
<cc:Work rdf:about="">
<dc:format>image/svg+xml</dc:format>
<dc:type rdf:resource="http://purl.org/dc/dcmitype/StillImage"/>
<dc:date>07-AUG-2006</dc:date>
<dc:creator>
<cc:Agent>
<dc:title>Jérôme BLUM (wagner51)</dc:title>
</cc:Agent>
</dc:creator>
<cc:license rdf:resource="http://creativecommons.org/licenses/GPL/2.0/"/>
<dc:coverage/>
<dc:description>Gabarit pour le Projet:Blasons de WIkipédia</dc:description>
<dc:subject>
<rdf:Bag>
<rdf:li>blason suisse modèle gabarit projet blasons</rdf:li>
</rdf:Bag>
</dc:subject>
<dc:language>fr</dc:language>
<dc:title/>
</cc:Work>
<cc:License rdf:about="http://creativecommons.org/licenses/GPL/2.0/">
<cc:permits rdf:resource="http://web.resource.org/cc/Reproduction"/>
<cc:permits rdf:resource="http://web.resource.org/cc/Distribution"/>
<cc:requires rdf:resource="http://web.resource.org/cc/Notice"/>
<cc:permits rdf:resource="http://web.resource.org/cc/DerivativeWorks"/>
<cc:requires rdf:resource="http://web.resource.org/cc/ShareAlike"/>
<cc:requires rdf:resource="http://web.resource.org/cc/SourceCode"/>
</cc:License>
</rdf:RDF>
</metadata>
<defs>
<radialGradient id="a" cx="858.04" cy="579.93" r="300" gradientTransform="matrix(1.215 1.5316e-24 1.4647e-23 1.2667 -839.19 -490.49)" gradientUnits="userSpaceOnUse">
<stop stop-color="#fff" stop-opacity=".31373" offset="0"/>
<stop stop-color="#fff" stop-opacity=".25098" offset=".19"/>
<stop stop-color="#6b6b6b" stop-opacity=".12549" offset=".6"/>
<stop stop-opacity=".12549" offset="1"/>
</radialGradient>
</defs>
<desc>Coat of Arms of Canton of Freiburg (Fribourg)</desc>
<g>
<path d="m1.5 1.5v458.87c0 166.31 134.31 301.13 300 301.13s300-134.82 300-301.13v-458.87h-600z" fill="#e20909"/>
<path d="m1.5 251.19v209.18c0 166.31 134.31 301.13 300 301.13 165.69 0 300-134.82 300-301.13v-209.18h-600z" fill="#e20909"/>
<path d="m201.5 744.34c31.28 11.099 64.933 17.158 100 17.158h1e-3v-510.31h-100v493.15h-1e-3zm200-493.15v493.15c37.264-13.223 71.146-33.617 100-59.544v-433.61h-100zm-400 209.18c0 89.18 38.632 169.29 100 224.43v-433.61h-100v209.18z" fill="#fcef3c"/>
<path d="m201.5 251.19v493.15m99.999 17.158 1e-3 -510.31m200 433.61v-433.61m-100 0v493.15m-300-59.544v-433.61" fill="none" stroke="#000" stroke-width="3"/>
<line x1="1.5" x2="601.5" y1="251.19" y2="251.19" fill="none" stroke="#000" stroke-width="3"/>
<path d="m261.8 1.5v83.095h-260.38v83.062h260.38v83.095h79.25v-83.095h260.38v-83.062h-260.38v-83.095h-79.25z" fill="#fff" stroke="#000" stroke-width="2"/>
<path d="m1.5 360.41v99.969c0 5.1972 0.11581 10.367 0.375 15.5s0.6754 10.22 1.1875 15.281 1.1475 10.078 1.9062 15.062 1.6259 9.943 2.625 14.844c0.77401 3.7968 1.6788 7.538 2.5938 11.281h582.62c0.91491-3.7432 1.8197-7.4845 2.5938-11.281 0.99907-4.9007 1.8663-9.8594 2.625-14.844s1.3942-10.001 1.9062-15.062 0.92831-10.149 1.1875-15.281 0.375-10.303 0.375-15.5v-99.969h-600z" fill="#fff" stroke="#000" stroke-linejoin="round" stroke-width="3"/>
<path d="m1.5 1.5v458.87c0 166.31 134.31 301.13 300 301.13 165.69 0 300-134.82 300-301.13v-458.87h-600z" fill="url(#a)"/>
<path d="m1.5 1.5v458.87c0 166.31 134.31 301.13 300 301.13 165.69 0 300-134.82 300-301.13v-458.87h-600z" fill="none" stroke="#000" stroke-width="3"/>
<g transform="matrix(1.0939 0 0 1.0942 -28.303 -52.495)" stroke="#000">
<path d="m246.53 439.96c-3.546 1.2098-8.1893 3.2504-7.0352 6.7485 0.6508 1.9725 3.8098 6.1092 8.92 7.5264 3.1076 0.86187 5.5727-0.50538 7.5306-2.0018" fill="#fff" fill-rule="evenodd" stroke-width="2.7422"/>
<path d="m353.07 446.15s-103.94-1.6467-101.7 0.20845c2.2389 1.8551 4.68 1.6252 4.4409 10.156-0.23917 8.5306-3.0247 13.738-6.6968 23.758-2.7904 7.6137-2.8148 13.485-0.15945 18.177 3.9722 7.019 5.5805 9.1528 11.002 13.075 7.3298 5.3027 11.193 6.767 18.496 8.7698 8.3704 2.2954 16.763 2.2057 23.062 2.2641 6.2987 0.0585 15.393-0.37797 23.179-2.2641 7.3599-1.783 11.166-3.4671 18.496-8.7698 5.4215-3.9221 7.0298-6.0559 11.002-13.075 2.6553-4.6921 2.6309-10.564-0.15946-18.177-3.6722-10.02-6.4577-15.227-6.6968-23.758-0.23917-8.5306 5.7402-10.364 5.7402-10.364z" fill-rule="evenodd" stroke-width="2.7422"/>
<path d="m357.3 439.96c3.546 1.2098 8.1893 3.2504 7.0352 6.7485-0.6508 1.9725-3.8098 6.1092-8.92 7.5264-3.1076 0.86187-5.5727-0.50538-7.5306-2.0018" fill="#fff" fill-rule="evenodd" stroke-width="2.7422"/>
<path transform="matrix(.28145 0 0 .30846 36.498 382.33)" d="m1139.1 182.12a197.59 64.278 0 1 1-395.19 0 197.59 64.278 0 1 1 395.19 0z" stroke-linecap="square" stroke-width="9.3066"/>
<path transform="matrix(.32224 0 0 .31109 -5.16 383.83)" d="m1098.7 174.98a147.01 38.09 0 1 1-294.01 0 147.01 38.09 0 1 1 294.01 0z" fill="#fff" stroke-linecap="square" stroke-width="8.661"/>
<path d="m348.57 439.77c-2.4192 2.8533-3.2948 3.1144-7.5521 5.0491-0.53148-7.5662 1.1196-13.276 4.9508-20.538 3.2083-6.0811 2.2211-10.502 0.97911-12.809-2.4203-4.497-6.354-6.0014-10.544-7.4946-6.6275-2.3622-9.9215-2.9569-13.527-3.3882-3.7998-0.45459-10.619-1.383-21.252-1.3824-10.661 5.7e-4 -17.561 0.92784-21.361 1.3824-3.6055 0.43135-6.8995 1.026-13.527 3.3882-4.1895 1.4932-8.1232 2.9976-10.544 7.4946-1.242 2.3076-2.1312 6.6776 0.97913 12.809 3.489 6.8783 5.1614 12.633 5.0728 20.599-2.5466-1.0142-6.4495-2.3953-7.9789-5.8417-2.7592-7.94-8.1465-14.986-8.2659-24.823-0.0812-6.6932 6.7893-11.783 8.8174-13.503 4.2956-3.6435 11.196-5.8735 18.228-7.379 11.359-2.4319 23.309-2.6551 28.541-2.6551 5.2317 0 17.15 0.22317 28.509 2.6551 7.0316 1.5054 13.932 3.7355 18.228 7.379 2.0281 1.7202 7.3744 6.3833 7.2932 13.076-0.11937 9.8366-3.6167 18.041-7.0465 25.981z" fill-rule="evenodd" stroke-width="2.7422"/>
</g>
</g>
</svg>
