<?xml version="1.0" encoding="UTF-8"?>
<svg version="1.0" viewBox="0 0 603 763" xmlns="http://www.w3.org/2000/svg" xmlns:cc="http://creativecommons.org/ns#" xmlns:dc="http://purl.org/dc/elements/1.1/" xmlns:rdf="http://www.w3.org/1999/02/22-rdf-syntax-ns#" xmlns:xlink="http://www.w3.org/1999/xlink">
<metadata>
<rdf:RDF>
<cc:Work rdf:about="">
<dc:format>image/svg+xml</dc:format>
<dc:type rdf:resource="http://purl.org/dc/dcmitype/StillImage"/>
<dc:date>07-AUG-2006</dc:date>
<dc:creator>
<cc:Agent>
<dc:title>Jérôme BLUM (wagner51)</dc:title>
</cc:Agent>
</dc:creator>
<cc:license rdf:resource="http://creativecommons.org/licenses/GPL/2.0/"/>
<dc:coverage/>
<dc:description>Gabarit pour le Projet:Blasons de WIkipédia</dc:description>
<dc:subject>
<rdf:Bag>
<rdf:li>blason suisse modèle gabarit projet blasons</rdf:li>
</rdf:Bag>
</dc:subject>
<dc:language>fr</dc:language>
<dc:title/>
</cc:Work>
<cc:License rdf:about="http://creativecommons.org/licenses/GPL/2.0/">
<cc:permits rdf:resource="http://web.resource.org/cc/Reproduction"/>
<cc:permits rdf:resource="http://web.resource.org/cc/Distribution"/>
<cc:requires rdf:resource="http://web.resource.org/cc/Notice"/>
<cc:permits rdf:resource="http://web.resource.org/cc/DerivativeWorks"/>
<cc:requires rdf:resource="http://web.resource.org/cc/ShareAlike"/>
<cc:requires rdf:resource="http://web.resource.org/cc/SourceCode"/>
</cc:License>
</rdf:RDF>
</metadata>
<defs>
<radialGradient id="a" cx="858.04" cy="579.93" r="300" gradientTransform="matrix(1.215 1.5316e-24 1.4647e-23 1.2667 -839.19 -490.49)" gradientUnits="userSpaceOnUse">
<stop stop-color="#fff" stop-opacity=".31373" offset="0"/>
<stop stop-color="#fff" stop-opacity=".25098" offset=".19"/>
<stop stop-color="#6b6b6b" stop-opacity=".12549" offset=".6"/>
<stop stop-opacity=".12549" offset="1"/>
</radialGradient>
</defs>
<desc>Coat of Arms of Canton of Freiburg (Fribourg)</desc>
<g>
<path d="m1.5 1.5v458.87c0 166.31 134.31 301.13 300 301.13s300-134.82 300-301.13v-458.87h-600z" fill="#5ab532"/>
<path d="m1.5 1.5v458.87c0 166.31 134.31 301.13 300 301.13v-760h-300z" fill="#e20909"/>
<path d="m301.5 2.9996v757" fill="none" stroke="#000" stroke-linecap="square" stroke-width="2.9995"/>
<g transform="matrix(1.2 0 0 1.1993 -47.613 -51.179)" fill="#fff">
<path d="m144.78 549.72c-3.0549 4.9812 7.8478 7.3402 9.7496 2.7502 2.7581-6.6565 5.8692-12.725 9.0105-18.743 1.9908 0.72175 4.1185 2.9398 8.3758 4.8492-4.2573-1.9095-6.385-4.1275-8.3758-4.8492-3.1413 6.018-6.2523 12.086-9.0105 18.743-1.9018 4.59-3.6358 9.4595-5.0962 14.785 22.783-2.4502 35.676-10.062 35.707-30.883 5.6814-2.6572 8.4223-6.0497 11.902-9.2575-0.147 4.4085 3.6258 10.876 8.8166 7.935 23.59-13.365 59.312-30.083 90.371-42.32-11.525-36.863 11.888-52.762 40.997-65.243l-39.675-52.9c-7.983 1.8437-17.283 3.7325-24.385 7.4625-2.4404 1.2816-3.4549 4.1414-5.6532 5.4411-3.6085 2.1334-6.8435 3.313-9.549 5.6743-1.6972 1.4814-1.2706 5.7609-2.6743 7.0545-3.2314 2.9778-6.2895 4.0747-7.4156 7.1071-1.0646 2.8669-0.92205 4.7737-1.8163 6.8918-3.1315 7.4171-2.1536 25.992 4.5628 33.325 2.0564 2.2452 4.1495 5.2757 5.9334 7.7159 0.65833 0.90058-0.25432 5.1096 0.31348 6.3762 0.69154 1.5427 2.6129 2.4165 3.0569 4.2417 1.4158 5.8198 1.2578 12.349-2.4887 14.95-16.419 11.4-42.096 22.539-56.647 22.262-3.811-0.0727-8.231 1.4941-11.462 3.5267-7.6804 4.8321-15.371 9.1835-23.364 13.445-2.8154 1.5012-6.023 3.8548-7.935 7.494-3.6331 6.9155-9.6111 16.231-13.25 22.164z" fill-rule="evenodd" stroke="#000" stroke-linejoin="round" stroke-width="2.5008"/>
<path d="m349.86 449.8c-2.5334 24.246-19.786 24.774-28.99 11.533-8.6259-12.409-11.558-34.74 3.4289-43.64l25.561 32.107z" fill-rule="evenodd" stroke="#000" stroke-linejoin="round" stroke-width="2.5008"/>
<path d="m222.97 244.28c-6.8301-3.438-73.3-30.686-81.233-32.855-5.5111-1.5067-17.639 0.94102-21.003 4.8851-29.43 34.503-40.317 49.731-48.683 75.924-2.3601 7.3899-5.2789 21.11-6.3679 24.959-1.7973 6.352 5.7734 7.801 8.5387 0.2035 2.6014-7.1472 4.4398-12.198 5.2197-16.786 2.0622-0.64772 4.4643-1.7138 8.615-3.8452-4.1506 2.1314-6.5527 3.1975-8.615 3.8452-0.7799 4.5878-2.6183 9.6388-5.2197 16.786-1.7022 4.6767-0.62632 11.42 0.52502 16.208 17.562-2.7752 39.123-28.179 21.967-45.822-3.5773-3.6788 0.99915-9.5822 3.7976-4.8436 2.5632 4.3399 5.5283 3.351 8.1697-3.7544 3.6477-9.8123 23.115-50.626 40.061-37.031 12.992 10.423 48.307 44.427 56.198 53.018 4.3406 4.7255 10.123 0.72334 28.417-6.0751" fill-rule="evenodd" stroke="#000" stroke-linecap="round" stroke-linejoin="round" stroke-width="2.5008"/>
<path d="m375.58 208.84c1.6646-3.3322 1.7058-5.6031 1.5429-8.1554 6.67-0.3481 5.0326-6.2503 8.3758-7.0533 3.3431-0.80297 6.0373-0.26857 8.1554-3.0858 2.1181-2.8172 3.4511-4.407 5.0696-5.7308 1.2604-1.031 3.814-1.669 6.2685-5.4616 2.5541-3.9466 0.86122-5.7884 1.6665-7.5429 0.80527-1.7545 5.897-2.9499 6.1991-7.9868 0.30317-5.0549-2.1692-8.0976-2.2316-9.6464-0.10725-2.6618 6.0318-4.9947 5.4375-9.5305-0.57827-4.4133-6.6252-9.4445-6.9804-10.968-0.35512-1.5237 4.1496-4.4176 1.7634-9.3296-1.485-3.057-5.4799-3.1755-6.5156-4.5566-1.0358-1.381-0.26035-6.3448-2.301-9.2575-2.0407-2.9127-5.991-4.5065-7.2737-5.9512-1.1774-1.326-2.1073-4.9422-5.5104-7.2737-3.2547-2.2298-6.1818-2.6965-9.037-4.6287-2.8552-1.9322-4.4309-5.0208-7.2737-6.3921-2.8428-1.3712-5.7542 0.63655-8.5962-0.44082-3.0356-1.1508-6.954-5.7906-16.972-5.7906-10.018 0-19.182 3.2889-21.821 3.8069-2.639 0.518-9.1013 0.28945-11.778 0.84097-2.6767 0.55152-6.6221 5.3331-8.2798 6.2123-1.8397 0.97575-6.0739 0.56022-8.7458 2.203-2.9511 1.8144-6.9657 4.5663-8.6671 8.377-16.752 7.7523-42.759 20.033-48.932 25.789-6.0619 5.6526-13.598 6.3295-20.278 10.139-4.7753 2.7235-2.4946 7.6773 1.1021 7.935-1.6865 2.0452-1.1531 4.7978-1.3225 7.935-0.31515 5.8364 7.8863 11.768 14.327 3.9675 4.0318-4.8828 25.161-4.8342 25.127 7.4942-0.0175 6.9775-16.811 9.9366-16.752 14.768 0.0648 5.4878 8.3349 6.4597 18.295 6.6125 5.9691 0.095 5.2315-5.1574 9.2575-1.7633 6.3538 5.3566 26.162 6.2398 25.568 7.2737-0.5933 1.0339-17.51 3.4579-20.058 10.36-8.4328-1.3692-14.564 1.002-18.295 7.2737-9.4974-1.8813-15.163 1.7718-19.397 7.4941-15.356 1.4361-18.219 7.4147-20.94 13.445-8.0926 1.9605-12.319 7.0143-14.547 13.666-7.0296 4.683-14.174 9.2919-11.462 20.278-4.5274 4.0974-9.2601 8.1177-4.6288 15.65-6.361 7.3397-9.641 3.1802-0.2205 18.735 9.4206 15.555 29.062 50.767 53.629 57.35 1.4142 0.37895 3.9374 4.8038 9.0774 7.0401 5.5385 2.4097 4.3454 1.1813 11.664 4.2138 2.7014 1.1194 3.1514 3.0929 6.0049 4.6829 2.9129 1.623 6.7109 0.50375 9.0404 1.4013 2.4777 0.95473 2.5507 4.5089 5.0595 4.8811 10.275 1.5242 19.431 8.6985 22.346 9.4786-3.0366 1.221-6.8198 2.7619-8.9722 5.228 56.255 6.3763 54.537 66.713 59.986 70.199 19.255 12.318 24.739 17.572 36.004 25.307 8.9214 6.1263-5.8433 37.769-14.708 54.683-4.984 9.51-23.788 16.665-31.936 17.965-3.1507 0.50275-10.543 7.907-12.455 11.546-3.6331 6.9155-8.7406 10.467-12.626 16.242-4.9252 7.319 9.6033 3.78 12.087-0.52275 1.1292-1.956 3.195-6.577 5.2699-10.171 1.9908 0.72175 4.8978 3.5632 9.1551 5.4728-4.2573-1.9095-7.1643-4.751-9.1551-5.4728-2.2125 3.8322-4.1333 8.202-5.2699 10.171-2.4842 4.3028-9.0908 18.655-10.551 23.981 24.653-0.67375 39.261-11.153 38.669-33.844 5.6814-2.6572 11.434-6.876 15.331-5.6727 4.039 1.247-0.69907 7.8007 4.9202 9.8052 7.5367 2.6885 8.9902-6.051 10.727-10.992 8.264-23.508 25.966-59.157 37.413-79.426 2.6432-4.6804 3.4716-10.889-4.7627-14.871-13.218-6.3921-21.268-22.48-17.514-37.61 3.9405-15.881 1.6398-40.496-2.4246-55.324-0.35135-1.2818 1.6332-1.7742 4.0643-1.7633 10.568 0.0433 27.819 4.2031 32.525 13.666 0.9358 1.8816 2.3015 5.4413-1.9837 6.8329-5.0351 1.6352-5.1621 6.8277-5.9512 9.6983-0.78918 2.8706-5.3602 4.9075-5.5104 8.1554-0.15025 3.2479 4.4719 6.5461 4.4083 8.8167-0.0635 2.2705-2.1123 3.7766-1.1021 8.1554s7.1329 6.4765 8.3758 7.4942c1.3791 1.1292 3.2338 7.7179 12.123 8.3758 9.1083 0.67408 10.989-3.9045 12.784-4.6287 1.9866-0.8013 6.9472 2.8332 10.8-2.2042 3.7478-4.8995 3.4637-11.099 4.6287-13.445 1.0782-2.1717 5.931-2.8725 6.1716-8.5962 0.2405-5.7187-1.6388-11.879-2.2041-14.768-0.60688-3.1011 0.77172-9.8591-1.5429-14.327-15.316-29.565-36.711-47.462-78.468-37.25-6.6785 1.6332-8.6423-1.1455-8.5962-3.7471 0.181-10.22-8.16-9.7668-9.6983-12.343-1.5383-2.5764-2.0115-8.0013-4.4083-11.021-2.3968-3.0196-4.908-1.9953-6.3921-3.9675-1.592-2.1156-1.2577-4.889-3.7471-8.3758-2.3864-3.3424-5.2433-2.8091-6.5032-4.4083-1.1559-1.4671 0-3.3765-3.4155-7.2737-3.1389-3.5816-5.1834-1.9705-7.4942-4.7504-2.4173-2.9081-2.763-5.7413-5.9512-9.1359-2.4397-2.5976-10.049-2.6923-11.682-8.3758-1.5751-5.4802 3.4599-6.1859 5.7308-9.9187 2.2136-3.6385-0.31617-7.846 1.3225-9.4779 1.7528-1.7455 5.2545-3.3736 8.1554-6.6125 3.1338-3.499 4.056-8.6653 5.29-10.58 1.132-1.7563 5.0031-0.97442 6.8329-5.7308 1.7562-4.565 2.2598-8.0244 2.8654-9.4779 0.60557-1.4535 3.3453-2.0671 5.0696-6.8329 1.6539-4.5714-1.0336-5.936 0.2205-9.2575 1.254-3.3214 6.2703-5.0437 7.935-8.3758zm9.4779-58.41c-7.0138-42.359-42.799-45.274-58.631-27.332l58.631 27.332z" fill-rule="evenodd" stroke="#000" stroke-linejoin="round" stroke-width="2.5008"/>
<path d="m209.73 294.63c-7.594-0.89463-79.374-3.7653-87.571-3.09-5.6941 0.46908-16.254 6.9172-18.066 11.774-15.854 42.488-20.877 60.521-19.779 87.996 0.30972 7.7515 2.2595 21.642 2.5524 25.631 0.48357 6.5836 8.0934 5.3559 8.0934-2.7292 0-7.6058 0-12.981-0.83622-17.559 1.7163-1.314 3.6089-3.1374 6.7803-6.5598-3.1713 3.4225-5.064 5.2458-6.7803 6.5598 0.83622 4.5778 0.83622 9.9531 0.83622 17.559 0 4.9769 3.3174 10.946 6.0369 15.051 15.554-8.6143 27.126-39.861 4.9698-50.572-4.6198-2.2334-2.3384-9.346 1.9121-5.8504 3.8929 3.2016 6.341 1.2582 6.3929-6.3222 0.0718-10.468 4.4061-55.478 24.979-48.499 15.773 5.3509 60.589 25.226 70.942 30.6 5.6951 2.956 9.76-2.7825 24.625-15.428" fill-rule="evenodd" stroke="#000" stroke-linecap="round" stroke-linejoin="round" stroke-width="2.5008"/>
<path d="m258.64 158.42c-11.074 1.3167-21.684 7.0622-27.65 10.936-5.0472 3.277-13.717 7.0533-19.609 4.2187-4.2181-2.0291-4.6744-0.92305-4.4531 1.9531 0.98085 12.746 18.478 11.504 26.25 5.0781 1.7499-1.4468 13.792-11.499 27.025-14.764 1.0213-2.7652-0.3155-5.0176-1.5625-7.4219z" fill-rule="evenodd" stroke="#000" stroke-linejoin="round" stroke-width="2.5008"/>
<path d="m262.72 134.44c-0.19925-1.0424 1.6905-0.9131 2.287-1.6143 1.3486-1.5853 1.9672-3.8184 2.6534-5.439 1.1844-2.797 2.8608-3.8192 7.7146-3.8192 4.6979 0 7.9459 1.8146 7.6924 6.9696-0.26085 5.3054-3.363 7.0679-8.0531 7.2248-3.03 0.1015-5.9255-1.1536-8.5657-2.1728-1.3108-0.5061-3.5091-5.7e-4 -3.7287-1.1491zm14.512-5.2411c0.62343-1.4096 1.053-4.8522-2.0261-4.8522s-4.6069 2.4729-5.2992 5.7873c-0.72339 3.4636 4.2064 0.33712 4.9874 3.5847 0.81655 3.3951 3.3509 0.5715 3.7405-1.091 0.38312-1.6346 0.67542-2.234-1.4027-3.4289z" fill-rule="evenodd" stroke="#000" stroke-width="2.5008"/>
<path d="m309.65 356.59c3.2165 3.7477 4.9696 8.5589 6.0144 13.879 0.5651 2.8776-1.1581 5.902-0.67125 10.093 0.3982 3.4281 3.1214 7.551 2.9673 10.619-0.234 4.6582-2.9237 6.0707-1.5429 12.085 0.7624 3.3207 3.3281 4.5421 4.3493 8.1824 0.83285 2.9688-0.6865 6.313 1.337 10.728 1.0246 2.2357 3.9023 4.9222 5.0942 7.1506 1.3593 2.5413 0.81547 5.0551 2.3221 7.5021 1.8569 3.0158 4.5195 5.269 6.6267 8.0087 2.1298 2.7691 2.1432 5.3798 4.4155 7.7494 2.9802 3.1078 7.8701 3.2575 10.007 6.5691 4.9233 7.6313 17.543 8.122 24.541 2.1696" fill-rule="evenodd" stroke="#000" stroke-linecap="round" stroke-linejoin="round" stroke-width="2.5008"/>
<rect transform="matrix(.91755 .39761 -.60971 .79263 0 0)" x="342" y="-46.744" width="71.656" height="40.689"/>
<g transform="matrix(2.5 0 0 2.5 -45.039 47.581)" stroke="#000" stroke-width="1.0003">
<g fill="#fff" stroke="#000" stroke-linecap="round" stroke-width="1.0003">
<path d="m141.53 21.898s-6.01-4.006-5.608-5.408c0.4-1.402 4.206-4.807 8.012-1.402 0 0 3.405-8.814 9.215-2.203 0 0 4.607-7.212 8.613 0 0 0 5.208-7.413 9.215 0 0 0 6.409-4.607 7.813 5.008 0 0 9.414 13.621 0 22.635 0 0 3.404-4.207 4.206-5.208 0 0 2.805-2.003 2.403 7.212 0 0 4.207 3.806-0.4 7.812 0 0 2.203 4.807-2.003 7.813 0 0 0.401 6.409-2.403 8.213 0 0 0.2 6.209-3.205 6.41 0 0 0.601 3.005-0.801 5.008 0 0 2.002 3.807-0.4 6.41 0 0-0.802 6.811 1.201 11.218 0 0-10.016-12.619-3.005-36.457 7.009-23.84-22.438-46.876-32.853-37.061z"/>
<path d="m143.94 15.088s2.004 2.003 2.805 3.406"/>
<path d="m153.15 12.885s1.203 2.404 1.803 4.207"/>
<line x1="161.77" x2="162.37" y1="12.885" y2="15.088"/>
<path d="m185.4 42.532s-0.4 1.802-5.207 4.006"/>
<path d="m185 50.343s-2.604 2.003-6.01 2.204"/>
<path d="m183 58.156s-2.604 0.8-4.808 0"/>
<path d="m180.6 66.369s-4.207 0.602-5.008 0.4"/>
<path d="m177.39 72.778h-2.805"/>
<path d="m176.59 77.786s-2.004 1.403-2.805 1.403"/>
<path d="m176.19 84.196s-1.003 1.403-1.604 1.403"/>
<path d="m194.41 96.683s-12.82-3.606-7.412-28.445c5.408-24.84 8.613-27.644-10.818-38.26 0 0-26.44 2.404-32.65-1.203-6.21-3.604-0.4-11.617 4.607-8.212 0 0 4.205-9.815 10.616-2.404 0 0 2.004-8.813 8.614-1.001 0 0 2.203-6.41 8.213 0.4 0 0 8.213-3.406 8.813 4.207 0 0 6.21-3.005 6.61 2.804 0 0 7.612 0.802 5.609 7.612 0 0 5.809 1.803 3.404 8.214 0 0 3.605 2.804 0 8.213 0 0 5.208 3.605-1.402 7.611 0 0 2.404 3.406-2.002 6.411 0 0 4.206 3.806-2.404 6.811 0 0 3.205 3.004-1.602 6.209 0 0 0.199 4.607-0.803 6.21 0 0 1.803 3.005 0.201 5.208l2.406 9.615z"/>
<path d="m148.14 20.563s2.403 2.604 3.205 4.808"/>
<path d="m158.35 17.558s1.602 3.005 2.002 5.008"/>
<path d="m167.37 17.157s0.801 3.004 0.801 5.809"/>
<path d="m175.58 17.558s1.602 3.005 1.201 6.01"/>
<path d="m184.39 21.764s1.002 3.406-1.603 6.811"/>
<path d="m190.94 25.042s-0.6 1.803-1.2 3.407"/>
<path d="m196.61 32.18s-1.002 3.606-3.606 4.407"/>
<path d="m200.02 40.394s-1.402 2.002-5.207 2.804"/>
<path d="m200.22 47.805s0 1.001-3.806 1.802"/>
<path d="m199.42 55.617s-1.401 0.4-3.205 0.801"/>
<path d="m197.62 61.828s-2.205 1-4.809 1"/>
<path d="m195.41 68.638s-2.203 1.402-3.807 1.402"/>
<path d="m192.61 75.648s-3.006 1.002-3.607 1.002"/>
<path d="m192.2 81.059s-0.199 1-2.403 1"/>
<path d="m192.41 86.266s-1.203 1.602-1.803 1.602"/>
</g>
</g>
<path d="m315.73 151.2c29.494-19.423 46.885-15.247 63.916-9.8969-18.22 15.253-40.495 23.547-55.59 18.448 12.038-15.795 30.377-20.397 51.777-19.564" stroke="#000" stroke-linecap="round" stroke-linejoin="round" stroke-width="2.5008"/>
</g>
<path d="m1.5 1.5v458.87c0 166.31 134.31 301.13 300 301.13 165.69 0 300-134.82 300-301.13v-458.87h-600z" fill="url(#a)"/>
<path d="m1.5 1.5v458.87c0 166.31 134.31 301.13 300 301.13 165.69 0 300-134.82 300-301.13v-458.87h-600z" fill="none" stroke="#000" stroke-width="3"/>
</g>
</svg>
