<?xml version="1.0" encoding="UTF-8"?>
<svg version="1.0" viewBox="0 0 603 763" xmlns="http://www.w3.org/2000/svg" xmlns:cc="http://creativecommons.org/ns#" xmlns:dc="http://purl.org/dc/elements/1.1/" xmlns:rdf="http://www.w3.org/1999/02/22-rdf-syntax-ns#" xmlns:xlink="http://www.w3.org/1999/xlink">
<metadata>
<rdf:RDF>
<cc:Work rdf:about="">
<dc:format>image/svg+xml</dc:format>
<dc:type rdf:resource="http://purl.org/dc/dcmitype/StillImage"/>
<dc:date/>
<dc:creator>
<cc:Agent>
<dc:title/>
</cc:Agent>
</dc:creator>
<cc:license rdf:resource="http://creativecommons.org/publicdomain/zero/1.0/"/>
<dc:coverage/>
<dc:description/>
<dc:subject>
<rdf:Bag/>
</dc:subject>
<dc:language/>
<dc:title/>
</cc:Work>
<cc:License rdf:about="http://creativecommons.org/publicdomain/zero/1.0/">
<cc:permits rdf:resource="http://creativecommons.org/ns#Reproduction"/>
<cc:permits rdf:resource="http://creativecommons.org/ns#Distribution"/>
<cc:permits rdf:resource="http://creativecommons.org/ns#DerivativeWorks"/>
</cc:License>
</rdf:RDF>
</metadata>
<defs>
<radialGradient id="a" cx="858.04" cy="579.93" r="300" gradientTransform="matrix(1.215 1.5316e-24 1.4647e-23 1.2667 -839.19 -490.49)" gradientUnits="userSpaceOnUse">
<stop stop-color="#fff" stop-opacity=".31373" offset="0"/>
<stop stop-color="#fff" stop-opacity=".25098" offset=".19"/>
<stop stop-color="#6b6b6b" stop-opacity=".12549" offset=".6"/>
<stop stop-opacity=".12549" offset="1"/>
</radialGradient>
</defs>
<desc>Coat of Arms of Canton of Freiburg (Fribourg)</desc>
<g>
<path d="m1.5 1.5v458.87c0 166.31 134.31 301.13 300 301.13 165.69 0 300-134.82 300-301.13v-458.87h-600z" fill="#5ab532"/>
<path d="m1.5 1.5v343.29h600v-343.29z" fill="#e20909" stroke="#000" stroke-width="3"/>
<rect transform="matrix(-.99981 -.019322 -.49545 .86864 0 0)" x="-536.51" y="58.884" width="137.29" height="128.24" fill="#fff" stroke="#000" stroke-linecap="round" stroke-linejoin="round" stroke-width="3.2016"/>
<rect transform="matrix(.99714 -.075541 -9.5918e-5 1 0 0)" x="431.78" y="177.86" width="120.7" height="151.47" fill="#fff" stroke="#000" stroke-linecap="round" stroke-linejoin="round" stroke-width="3.0043"/>
<path d="m430.31 58.685-44.195 4.0375-58.674 98.221 1.7e-4 99.914 102.87 35.826z" fill="#fff" stroke="#000" stroke-linecap="round" stroke-linejoin="round" stroke-width="3"/>
<rect transform="matrix(.99981 -.019322 .49545 .86864 0 0)" x="333.87" y="75.299" width="137.09" height="143.68" fill="#fff" stroke="#000" stroke-linecap="round" stroke-linejoin="round" stroke-width="3.2016"/>
<rect transform="matrix(.99742 -.071837 -.00010089 1 0 0)" x="485.38" y="279.14" width="25.518" height="48.029" fill="#fff" stroke="#000" stroke-linecap="round" stroke-linejoin="round" stroke-width="3.0039"/>
<rect transform="matrix(.99887 -.047437 .0052913 .99999 0 0)" x="511.57" y="225.76" width="28.401" height="20.14" fill="#fff" stroke="#000" stroke-linecap="round" stroke-linejoin="round" stroke-width="3.0013"/>
<path d="m504.82 243.67 0.37256 46.942" fill="none" stroke="#000" stroke-width="3"/>
<path d="m536.03 200.3 0.0659 20.351" fill="none" stroke="#000" stroke-width="3"/>
<rect transform="matrix(.99887 -.047437 .0052913 .99999 0 0)" x="449.28" y="225.6" width="28.401" height="20.14" fill="#fff" stroke="#000" stroke-linecap="round" stroke-linejoin="round" stroke-width="3.0013"/>
<path d="m473.81 203.09 0.0659 20.351" fill="none" stroke="#000" stroke-width="3"/>
<g transform="translate(0,-26)" stroke="#000" stroke-width="3.3047">
<path d="m400.07 162.44-31.74-8.0327-0.11924 21.843 31.74 8.0327z" fill="#fff" stroke-linecap="round" stroke-linejoin="round"/>
<path d="m372.8 154.57-0.0737 22.072" fill="none"/>
</g>
<rect transform="matrix(-.99981 -.019322 -.49545 .86864 0 0)" x="-371.64" y="100.8" width="123.06" height="119.34" fill="#fff" stroke="#000" stroke-linecap="round" stroke-linejoin="round" stroke-width="3.2016"/>
<rect transform="matrix(.9972 -.074842 -9.6819e-5 1 0 0)" x="252.03" y="196.68" width="114.72" height="115.91" fill="#fff" stroke="#000" stroke-linecap="round" stroke-linejoin="round" stroke-width="3.0042"/>
<path d="m251.18 91.527-35.998 2.9198-54.204 94.495 1.7e-4 69.914 90.202 35.081z" fill="#fff" stroke="#000" stroke-linecap="round" stroke-linejoin="round" stroke-width="3"/>
<rect transform="matrix(.99981 -.019322 .49545 .86864 0 0)" x="146.03" y="109.37" width="121.39" height="128.74" fill="#fff" stroke="#000" stroke-linecap="round" stroke-linejoin="round" stroke-width="3.2016"/>
<rect transform="matrix(.99742 -.071837 -.00010089 1 0 0)" x="299.98" y="263.19" width="25.518" height="48.029" fill="#fff" stroke="#000" stroke-linecap="round" stroke-linejoin="round" stroke-width="3.0039"/>
<rect transform="matrix(.99835 -.057412 .0043696 .99999 0 0)" x="328.99" y="232.6" width="19.542" height="16.771" fill="#fff" stroke="#000" stroke-linecap="round" stroke-linejoin="round" stroke-width="3.0021"/>
<path d="m344.62 213.5 0.20888 15.209" fill="none" stroke="#000" stroke-width="3"/>
<path d="m319.57 241.06 0.0885 46.664" fill="none" stroke="#000" stroke-width="3.0328"/>
<rect transform="matrix(.99835 -.057412 .0043696 .99999 0 0)" x="275.78" y="231.94" width="19.542" height="16.771" fill="#fff" stroke="#000" stroke-linecap="round" stroke-linejoin="round" stroke-width="3.0021"/>
<path d="m291.49 215.89 0.20888 15.209" fill="none" stroke="#000" stroke-width="3"/>
<rect transform="matrix(-.99981 -.019322 -.49545 .86864 0 0)" x="-233.65" y="120.8" width="97.47" height="111.85" fill="#fff" stroke="#000" stroke-linecap="round" stroke-linejoin="round" stroke-width="3.2016"/>
<rect transform="matrix(.9972 -.074842 -9.6819e-5 1 0 0)" x="127.67" y="196.38" width="89.115" height="117.44" fill="#fff" stroke="#000" stroke-linecap="round" stroke-linejoin="round" stroke-width="3.0042"/>
<path d="m127.22 108.03-35.419 2.2212-49.599 85.703v73.781l85.019 34.641z" fill="#fff" stroke="#000" stroke-linecap="round" stroke-linejoin="round" stroke-width="3"/>
<rect transform="matrix(.99981 -.019322 .49545 .86864 0 0)" x="15.524" y="124.31" width="96.204" height="126.3" fill="#fff" stroke="#000" stroke-linecap="round" stroke-linejoin="round" stroke-width="3.2016"/>
<rect transform="matrix(.99742 -.071837 -.00010089 1 0 0)" x="159.84" y="265.22" width="25.518" height="48.029" fill="#fff" stroke="#000" stroke-linecap="round" stroke-linejoin="round" stroke-width="3.0039"/>
<rect transform="matrix(.99858 -.05334 .0047042 .99999 0 0)" x="141.33" y="236.94" width="16.639" height="13.267" fill="#fff" stroke="#000" stroke-linecap="round" stroke-linejoin="round" stroke-width="3.0018"/>
<rect transform="matrix(.99852 -.054411 .0046114 .99999 0 0)" x="187.38" y="238.31" width="17.139" height="13.94" fill="#fff" stroke="#000" stroke-linecap="round" stroke-linejoin="round" stroke-width="3.0019"/>
<path d="m180.32 252.92v46.497" fill="none" stroke="#000" stroke-width="2.5"/>
<path d="m154.64 228.88v12.908" fill="none" stroke="#000" stroke-width="2.5"/>
<path d="m201.4 228.16v12.908" fill="none" stroke="#000" stroke-width="2.5"/>
<g transform="translate(2,-24)" stroke="#000" stroke-width="2.4141">
<path d="m96.313 204.53-23.187-5.8681-0.08711 15.957 23.187 5.8681z" fill="#fff" stroke-linecap="round" stroke-linejoin="round"/>
<path d="m76.394 198.78-0.05384 16.124" fill="none"/>
</g>
<rect transform="matrix(-.99981 -.019679 -.48861 .8725 0 0)" x="-700.37" y="410.05" width="133.68" height="126.61" fill="#fff" stroke="#000" stroke-linecap="round" stroke-linejoin="round" stroke-width="3.1945"/>
<rect transform="matrix(.99704 -.076931 -9.4176e-5 1 0 0)" x="426.5" y="487.4" width="117.53" height="150.21" fill="#fff" stroke="#000" stroke-linecap="round" stroke-linejoin="round" stroke-width="3.0045"/>
<path d="m424.97 368.75-43.032 4.0041-57.131 97.407 1.6e-4 99.087 100.16 35.53z" fill="#fff" stroke="#000" stroke-linecap="round" stroke-linejoin="round" stroke-width="3"/>
<rect transform="matrix(.99981 -.019679 .48861 .8725 0 0)" x="158.96" y="426.53" width="133.49" height="141.85" fill="#fff" stroke="#000" stroke-linecap="round" stroke-linejoin="round" stroke-width="3.1945"/>
<rect transform="matrix(.99732 -.073159 -9.906e-5 1 0 0)" x="478.69" y="587.81" width="24.849" height="47.631" fill="#fff" stroke="#000" stroke-linecap="round" stroke-linejoin="round" stroke-width="2.952"/>
<rect transform="matrix(.99883 -.048312 .0051951 .99999 0 0)" x="502.51" y="534.66" width="27.656" height="19.973" fill="#fff" stroke="#000" stroke-linecap="round" stroke-linejoin="round" stroke-width="2.9494"/>
<path d="m497.52 552.2 0.36276 46.554" fill="none" stroke="#000" stroke-width="2.948"/>
<path d="m527.91 509.19 0.0643 20.182" fill="none" stroke="#000" stroke-width="2.948"/>
<rect transform="matrix(.99883 -.048312 .0051951 .99999 0 0)" x="441.85" y="534.5" width="27.656" height="19.973" fill="#fff" stroke="#000" stroke-linecap="round" stroke-linejoin="round" stroke-width="2.9494"/>
<path d="m467.33 511.96 0.0642 20.182" fill="none" stroke="#000" stroke-width="2.948"/>
<g transform="matrix(.9737 0 0 .99172 5.9789 284.76)" stroke="#000" stroke-width="3.3047">
<path d="m400.07 162.44-31.74-8.0327-0.11924 21.843 31.74 8.0327z" fill="#fff" stroke-linecap="round" stroke-linejoin="round"/>
<path d="m372.8 154.57-0.0737 22.072" fill="none"/>
</g>
<rect transform="matrix(-.99981 -.019679 -.48861 .8725 0 0)" x="-539.84" y="451.43" width="119.83" height="117.83" fill="#fff" stroke="#000" stroke-linecap="round" stroke-linejoin="round" stroke-width="3.1945"/>
<rect transform="matrix(.99709 -.076219 -9.506e-5 1 0 0)" x="251.45" y="506.06" width="111.72" height="114.95" fill="#fff" stroke="#000" stroke-linecap="round" stroke-linejoin="round" stroke-width="3.0044"/>
<path d="m250.56 401.32-35.052 2.8956-52.778 93.712 1.6e-4 69.335 87.83 34.791z" fill="#fff" stroke="#000" stroke-linecap="round" stroke-linejoin="round" stroke-width="3"/>
<rect transform="matrix(.99981 -.019679 .48861 .8725 0 0)" x="-23.949" y="460.16" width="118.2" height="127.11" fill="#fff" stroke="#000" stroke-linecap="round" stroke-linejoin="round" stroke-width="3.1945"/>
<rect transform="matrix(.99732 -.073159 -9.906e-5 1 0 0)" x="298.15" y="572" width="24.849" height="47.631" fill="#fff" stroke="#000" stroke-linecap="round" stroke-linejoin="round" stroke-width="2.952"/>
<rect transform="matrix(.99829 -.058471 .0042902 .99999 0 0)" x="325.01" y="541.5" width="19.029" height="16.632" fill="#fff" stroke="#000" stroke-linecap="round" stroke-linejoin="round" stroke-width="2.9502"/>
<path d="m341.53 522.28 0.20339 15.083" fill="none" stroke="#000" stroke-width="2.948"/>
<path d="m317.14 549.62 0.0862 46.278" fill="none" stroke="#000" stroke-width="2.9802"/>
<rect transform="matrix(.99829 -.058471 .0042902 .99999 0 0)" x="273.19" y="540.84" width="19.029" height="16.632" fill="#fff" stroke="#000" stroke-linecap="round" stroke-linejoin="round" stroke-width="2.9502"/>
<path d="m289.8 524.65 0.20338 15.083" fill="none" stroke="#000" stroke-width="2.948"/>
<rect transform="matrix(-.99981 -.019679 -.48861 .8725 0 0)" x="-405.47" y="471.18" width="94.908" height="110.43" fill="#fff" stroke="#000" stroke-linecap="round" stroke-linejoin="round" stroke-width="3.1945"/>
<rect transform="matrix(.99709 -.076219 -9.506e-5 1 0 0)" x="130.35" y="505.76" width="86.781" height="116.47" fill="#fff" stroke="#000" stroke-linecap="round" stroke-linejoin="round" stroke-width="3.0044"/>
<path d="m129.86 417.69-34.488 2.2028-48.295 84.993v73.17l82.783 34.354z" fill="#fff" stroke="#000" stroke-linecap="round" stroke-linejoin="round" stroke-width="3"/>
<rect transform="matrix(.99981 -.019679 .48861 .8725 0 0)" x="-151.02" y="474.92" width="93.674" height="124.7" fill="#fff" stroke="#000" stroke-linecap="round" stroke-linejoin="round" stroke-width="3.1945"/>
<rect transform="matrix(.99732 -.073159 -9.906e-5 1 0 0)" x="161.68" y="574.01" width="24.849" height="47.631" fill="#fff" stroke="#000" stroke-linecap="round" stroke-linejoin="round" stroke-width="2.952"/>
<rect transform="matrix(.99852 -.054325 .0046188 .99999 0 0)" x="142.17" y="545.77" width="16.202" height="13.158" fill="#fff" stroke="#000" stroke-linecap="round" stroke-linejoin="round" stroke-width="2.9498"/>
<rect transform="matrix(.99846 -.055415 .0045276 .99999 0 0)" x="187.04" y="547.14" width="16.689" height="13.825" fill="#fff" stroke="#000" stroke-linecap="round" stroke-linejoin="round" stroke-width="2.9499"/>
<path d="m181.56 561.38v46.112" fill="none" stroke="#000" stroke-width="2.4567"/>
<path d="m156.55 537.54v12.802" fill="none" stroke="#000" stroke-width="2.4567"/>
<path d="m202.08 536.82v12.802" fill="none" stroke="#000" stroke-width="2.4567"/>
<g transform="matrix(.9737 0 0 .99172 7.9263 286.75)" stroke="#000" stroke-width="2.4141">
<path d="m96.313 204.53-23.187-5.8681-0.08711 15.957 23.187 5.8681z" fill="#fff" stroke-linecap="round" stroke-linejoin="round"/>
<path d="m76.394 198.78-0.05384 16.124" fill="none"/>
</g>
<path d="m1.5 1.5v458.87c0 166.31 134.31 301.13 300 301.13 165.69 0 300-134.82 300-301.13v-458.87h-600z" fill="url(#a) #000000"/>
<path d="m1.5 1.5v458.87c0 166.31 134.31 301.13 300 301.13 165.69 0 300-134.82 300-301.13v-458.87h-600z" fill="none" stroke="#000" stroke-width="3"/>
</g>
</svg>
