<?xml version="1.0" encoding="UTF-8" standalone="no"?>
<svg
   xmlns:dc="http://purl.org/dc/elements/1.1/"
   xmlns:cc="http://creativecommons.org/ns#"
   xmlns:rdf="http://www.w3.org/1999/02/22-rdf-syntax-ns#"
   xmlns:svg="http://www.w3.org/2000/svg"
   xmlns="http://www.w3.org/2000/svg"
   xmlns:xlink="http://www.w3.org/1999/xlink"
   xmlns:sodipodi="http://sodipodi.sourceforge.net/DTD/sodipodi-0.dtd"
   xmlns:inkscape="http://www.inkscape.org/namespaces/inkscape"
   height="763"
   width="603"
   version="1.0"
   id="svg20"
   sodipodi:version="0.32"
   inkscape:version="0.46"
   sodipodi:docname="Bogis-Bossey-coat_of_arms.svg"
   sodipodi:docbase="C:\Documents and Settings\Steve\Bureau\Blason Villages Suisse pour Wikipédia (par Delta-9)"
   inkscape:output_extension="org.inkscape.output.svg.inkscape">
  <metadata
     id="metadata31">
    <rdf:RDF>
      <cc:Work
         rdf:about="">
        <dc:format>image/svg+xml</dc:format>
        <dc:type
           rdf:resource="http://purl.org/dc/dcmitype/StillImage" />
        <dc:date>07-AUG-2006</dc:date>
        <dc:creator>
          <cc:Agent>
            <dc:title>Jérôme BLUM (wagner51)</dc:title>
          </cc:Agent>
        </dc:creator>
        <cc:license
           rdf:resource="http://creativecommons.org/licenses/GPL/2.0/" />
        <dc:coverage />
        <dc:description>Gabarit pour le Projet:Blasons de WIkipédia</dc:description>
        <dc:subject>
          <rdf:Bag>
            <rdf:li>blason suisse modèle gabarit projet blasons</rdf:li>
          </rdf:Bag>
        </dc:subject>
        <dc:language>fr</dc:language>
        <dc:title>Gabrit d'un blason suisse</dc:title>
      </cc:Work>
      <cc:License
         rdf:about="http://creativecommons.org/licenses/GPL/2.0/">
        <cc:permits
           rdf:resource="http://web.resource.org/cc/Reproduction" />
        <cc:permits
           rdf:resource="http://web.resource.org/cc/Distribution" />
        <cc:requires
           rdf:resource="http://web.resource.org/cc/Notice" />
        <cc:permits
           rdf:resource="http://web.resource.org/cc/DerivativeWorks" />
        <cc:requires
           rdf:resource="http://web.resource.org/cc/ShareAlike" />
        <cc:requires
           rdf:resource="http://web.resource.org/cc/SourceCode" />
      </cc:License>
    </rdf:RDF>
  </metadata>
  <defs
     id="defs29"><inkscape:perspective
   sodipodi:type="inkscape:persp3d"
   inkscape:vp_x="0 : 381.5 : 1"
   inkscape:vp_y="0 : 1000 : 0"
   inkscape:vp_z="603 : 381.5 : 1"
   inkscape:persp3d-origin="301.5 : 254.33333 : 1"
   id="perspective28" />
<linearGradient
   id="linearGradient2893">
  <stop
     style="stop-color:#ffffff;stop-opacity:0.3137255;"
     offset="0"
     id="stop2895" />
  <stop
     id="stop2897"
     offset="0.19"
     style="stop-color:#ffffff;stop-opacity:0.25098041;" />
  <stop
     style="stop-color:#6b6b6b;stop-opacity:0.1254902;"
     offset="0.60000002"
     id="stop2901" />
  <stop
     style="stop-color:#000000;stop-opacity:0.1254902;"
     offset="1"
     id="stop2899" />
</linearGradient>
<linearGradient
   id="linearGradient2955">
  <stop
     style="stop-color:white;stop-opacity:0;"
     offset="0"
     id="stop2965" />
  <stop
     style="stop-color:black;stop-opacity:0.64583331;"
     offset="1"
     id="stop2959" />
</linearGradient>
<radialGradient
   inkscape:collect="always"
   xlink:href="#linearGradient2893"
   id="radialGradient3236"
   gradientUnits="userSpaceOnUse"
   gradientTransform="matrix(1.215027,1.531577e-24,1.464684e-23,1.266667,-839.1924,-490.4894)"
   cx="858.04236"
   cy="579.93323"
   fx="858.04236"
   fy="579.93323"
   r="300" />
<inkscape:perspective
   id="perspective2730"
   inkscape:persp3d-origin="297.63751 : 280.63 : 1"
   inkscape:vp_z="595.27502 : 420.94501 : 1"
   inkscape:vp_y="0 : 1000 : 0"
   inkscape:vp_x="0 : 420.94501 : 1"
   sodipodi:type="inkscape:persp3d" />

	
	
	
	

	

		
		
	
		
		
	
		
		
		
		
		
		
		
		
		
		
		
		
		
		
		
		
		
		
		
		
		
		
		
		
		
		
		
		
		
		
		
		
		
		
		
		
		
		
		
		
		
		
		
		
		
		
		
		
		
		
		
		
		
		
	
		
		
		
		
		
	</defs>
  <sodipodi:namedview
     inkscape:window-height="927"
     inkscape:window-width="1219"
     inkscape:pageshadow="2"
     inkscape:pageopacity="0.0"
     guidetolerance="10.0"
     gridtolerance="10.0"
     objecttolerance="10.0"
     borderopacity="1.0"
     bordercolor="#666666"
     pagecolor="#ffffff"
     id="base"
     inkscape:zoom="0.85225056"
     inkscape:cx="287.37878"
     inkscape:cy="387.662"
     inkscape:window-x="20"
     inkscape:window-y="42"
     inkscape:current-layer="layer2"
     showgrid="false"
     showguides="true"
     inkscape:guide-bbox="true">
    <sodipodi:guide
       orientation="horizontal"
       position="761.5"
       id="guide1885" />
    <sodipodi:guide
       orientation="vertical"
       position="1.5"
       id="guide1887" />
    <sodipodi:guide
       orientation="horizontal"
       position="1.5"
       id="guide1889" />
    <sodipodi:guide
       orientation="vertical"
       position="601.5"
       id="guide1891" />
    <sodipodi:guide
       orientation="vertical"
       position="301.50081"
       id="guide1893" />
  </sodipodi:namedview>
  <desc
     id="desc22">Coat of Arms of Canton of Freiburg (Fribourg)</desc>
  <g
     inkscape:groupmode="layer"
     id="layer1"
     inkscape:label="Fond écu"
     style="opacity:1"
     sodipodi:insensitive="true">
    <path
       d="M 1.5,1.5010022 L 1.5,460.376 C 1.5,626.69 135.814,761.501 301.5,761.501 C 467.188,761.501 601.5,626.688 601.5,460.376 L 601.5,1.5010022 L 1.5,1.5010022 z"
       id="path2632"
       style="opacity:1;fill:#ffffff" />
  </g>
  <g
     inkscape:groupmode="layer"
     id="layer2"
     inkscape:label="Meubles"
     style="opacity:1;display:inline"
     sodipodi:insensitive="true">
    <path
       d="M 91.1,340.708 L 111.1,340.708 L 111.1,290.708 L 91.1,290.708 L 91.1,340.708 z M 191.499,340.708 L 211.499,340.708 L 211.499,290.708 L 191.499,290.708 L 191.499,340.708 z M 291.499,340.708 L 311.499,340.708 L 311.499,290.708 L 291.499,290.708 L 291.499,340.708 z M 391.499,340.708 L 411.499,340.708 L 411.499,290.708 L 391.499,290.708 L 391.499,340.708 z M 491.499,290.708 L 491.499,340.708 L 511.499,340.708 L 511.499,290.708 L 491.499,290.708 z"
       id="path2646" />
    <path
       d="M 41.299,274.98 L 61.299,274.98 L 61.299,224.98 L 41.299,224.98 L 41.299,274.98 z M 141.699,274.98 L 161.699,274.98 L 161.699,224.98 L 141.699,224.98 L 141.699,274.98 z M 241.699,274.98 L 261.699,274.98 L 261.699,224.98 L 241.699,224.98 L 241.699,274.98 L 241.699,274.98 z M 341.699,274.98 L 361.699,274.98 L 361.699,224.98 L 341.699,224.98 L 341.699,274.98 z M 441.699,274.98 L 461.699,274.98 L 461.699,224.98 L 441.699,224.98 L 441.699,274.98 z M 541.699,224.98 L 541.699,274.98 L 561.699,274.98 L 561.699,224.98 L 541.699,224.98 z"
       id="path2648" />
    <path
       d="M 91.1,209.251 L 111.1,209.251 L 111.1,159.251 L 91.1,159.251 L 91.1,209.251 z M 191.499,209.251 L 211.499,209.251 L 211.499,159.251 L 191.499,159.251 L 191.499,209.251 z M 291.499,209.251 L 311.499,209.251 L 311.499,159.251 L 291.499,159.251 L 291.499,209.251 z M 391.499,209.251 L 411.499,209.251 L 411.499,159.251 L 391.499,159.251 L 391.499,209.251 z M 491.499,159.251 L 491.499,209.251 L 511.499,209.251 L 511.499,159.251 L 491.499,159.251 z"
       id="path2650" />
    <path
       d="M 41.299,143.523 L 61.299,143.523 L 61.299,93.523003 L 41.299,93.523003 L 41.299,143.523 z M 141.699,143.523 L 161.699,143.523 L 161.699,93.523003 L 141.699,93.523003 L 141.699,143.523 z M 241.699,143.523 L 261.699,143.523 L 261.699,93.523003 L 241.699,93.523003 L 241.699,143.523 L 241.699,143.523 z M 341.699,143.523 L 361.699,143.523 L 361.699,93.523003 L 341.699,93.523003 L 341.699,143.523 z M 441.699,143.523 L 461.699,143.523 L 461.699,93.523003 L 441.699,93.523003 L 441.699,143.523 z M 541.699,93.523003 L 541.699,143.523 L 561.699,143.523 L 561.699,93.523003 L 541.699,93.523003 L 541.699,93.523003 z"
       id="path2652" />
    <path
       d="M 91.1,77.794003 L 111.1,77.794003 L 111.1,27.794003 L 91.1,27.794003 L 91.1,77.794003 z M 191.499,77.794003 L 211.499,77.794003 L 211.499,27.794003 L 191.499,27.794003 L 191.499,77.794003 z M 291.499,77.794003 L 311.499,77.794003 L 311.499,27.794003 L 291.499,27.794003 L 291.499,77.794003 z M 391.499,77.794003 L 411.499,77.794003 L 411.499,27.794003 L 391.499,27.794003 L 391.499,77.794003 z M 491.499,27.794003 L 491.499,77.794003 L 511.499,77.794003 L 511.499,27.794003 L 491.499,27.794003 L 491.499,27.794003 z"
       id="path2654" />
    <path
       style="fill:#ffffff;stroke:#000000;stroke-width:3;stroke-linecap:round;stroke-linejoin:round"
       id="path2068"
       d="M 110.807,82.666003 C 90.349,81.017003 91.973,99.233 91.973,99.233 C 98.383,91.550003 107.466,94.400003 107.466,94.400003 L 113.772,92.979003 L 121.027,90.140003 L 118.19,83.852003 L 110.807,82.666003 z" />
    <path
       style="fill:#ffffff;stroke:#000000;stroke-width:3;stroke-linecap:round;stroke-linejoin:round"
       id="path2070"
       d="M 103.9,138.223 C 103.9,138.223 105.888,122.667 118.149,122.98 C 130.449,123.293 128.299,133.097 128.299,133.097 C 128.299,133.097 112.7,127.922 103.9,138.223 z" />
    <path
       style="fill:#ffffff;stroke:#000000;stroke-width:3;stroke-linecap:round;stroke-linejoin:round"
       id="path2072"
       d="M 137.846,41.143003 C 137.846,41.143003 152.486,51.763003 144.036,59.792003 C 144.036,59.792003 145.636,75.305003 156.916,72.095003 C 156.916,72.095003 165.896,60.100003 157.91,49.152003 C 149.92,38.205003 137.846,41.143003 137.846,41.143003 z" />
    <path
       style="fill:#ffffff;stroke:#000000;stroke-width:3;stroke-linecap:round;stroke-linejoin:round"
       id="path2076"
       d="M 115.76,70.564003 C 115.76,70.564003 111.817,63.280003 99.783,69.655003 C 99.783,69.655003 105.564,55.813003 122.25,58.303003 C 129.143,59.979003 129.98,67.179003 129.98,67.179003 C 129.98,67.179003 125.467,76.808003 115.76,70.564003 z" />
    <path
       style="stroke:#ffffff;stroke-width:3;stroke-linecap:round;stroke-linejoin:round"
       id="path2093"
       d="M 248.794,176.98 C 248.794,176.98 233.097,161.649 206.003,145.587 C 183.864,132.462 173.483,122.266 161.213,98.97 C 158.357,93.657003 156.82,88.436003 156.947,83.477003 C 157.348,67.754003 157.46,51.108003 138.869,58.745003 C 133.718,60.860003 131.756,65.949003 132.585,70.006003 C 132.585,70.006003 130.249,62.461003 118.897,67.527003 C 109.154,71.875003 104.621,85.847003 117.067,88.572003 C 117.067,88.572003 103.636,88.877003 108.171,99.504 C 108.96,101.349 114.464,103.838 111.268,108.975 C 108.076,114.111 112.17,120.615 119.449,118.972 C 119.449,118.972 106.846,128.072 123.49,131.984 C 125.982,132.569 132.036,134.358 130.276,138.939 C 129.678,140.49 135.8,140.645 140.121,145.973 C 141.396,147.549 143.149,149.593 144.97,151.846 C 149.315,157.211 154.064,163.757 153.759,167.976 C 153.328,173.964 154.784,182.351 159.183,184.551 C 159.183,184.551 160.794,175.984 163.072,173.953 C 163.072,173.953 161.11,185.381 166.958,196.228 C 166.958,196.228 169.677,187.949 173.114,184.123 C 173.114,184.123 168.871,197.581 176.67,208.475 C 176.67,208.475 177.941,202.246 181.102,198.414 C 181.102,198.414 202.144,215.579 208.67,222.012 C 210.572,223.887 220.612,233.116 230.245,226.577 C 239.882,220.04 295.32,204.946 295.32,204.946 L 276.802,176.307 L 270.206,173.008 L 248.794,176.98 z" />
    <path
       style="fill:none;stroke:#ffffff;stroke-width:3;stroke-linecap:round;stroke-linejoin:round"
       id="path2137"
       d="M 117.066,88.573003 C 120.441,89.190003 127.138,92.930003 124.125,102.158" />
    <path
       style="fill:none;stroke:#ffffff;stroke-width:3;stroke-linecap:round;stroke-linejoin:round"
       id="path2139"
       d="M 132.585,70.006003 C 133.082,72.441003 135.371,75.040003 137.763,75.936003 C 140.568,76.980003 137.659,87.478003 137.659,87.478003 C 137.659,87.478003 136.683,90.980003 134.819,93.355003" />
    <path
       style="fill:none;stroke:#ffffff;stroke-width:3;stroke-linecap:round;stroke-linejoin:round"
       id="path2153"
       d="M 144.968,151.844 C 144.968,151.844 153.103,155.537 155.317,149.185 C 157.528,142.833 151.386,131.008 145.487,124.317" />
    <path
       style="fill:none;stroke:#ffffff;stroke-width:3;stroke-linecap:round;stroke-linejoin:round"
       id="path2155"
       d="M 161.212,98.969 C 159.462,96.147 151.393,93.729003 147.797,95.377003 C 147.275,95.618003 146.776,95.864003 146.307,96.12 C 136.028,101.663 137.689,110.531 139.296,115.882 C 140.571,120.128 142.734,122.861 145.487,124.32 C 148.819,126.081 153.01,125.986 157.543,124.464 C 165.822,121.685 166.744,130.04 166.744,130.04 C 167.017,135.558 154.021,150.603 153.754,167.975" />
    <path
       style="fill:none;stroke:#ffffff;stroke-width:3;stroke-linecap:round;stroke-linejoin:round"
       id="path2157"
       d="M 146.308,96.12 C 146.308,96.12 144.871,91.840003 139.547,92.129003 C 138.202,92.204003 136.566,92.612003 134.817,93.357003 C 131.258,94.874003 127.217,97.794 124.125,102.158 C 120.865,106.759 117.867,112.972 119.449,118.972 C 120.108,121.472 121.517,123.974 124.117,126.224 C 133.192,134.076 132.843,139.661 130.276,138.939" />
    <path
       style="fill:#ffffff;stroke:#000000;stroke-width:3;stroke-linecap:round;stroke-linejoin:round"
       id="path2161"
       d="M 142.079,105.216 C 142.079,105.216 140.434,96.428 126.515,98.571 C 126.515,98.571 130.49,88.515003 144.045,90.775003 C 149.357,91.660003 153.784,95.772003 154.502,99.038 C 154.501,99.037 151.265,110.947 142.079,105.216 z" />
    <path
       style="stroke:#ffffff;stroke-width:3;stroke-linecap:round;stroke-linejoin:round"
       id="path2074"
       d="M 105.762,490.514 C 105.762,490.514 109.026,476.403 91.853,479.399 C 91.853,479.399 99.358,468.368 109.979,471.139 C 120.599,473.91 119.286,485.379 119.286,485.379 L 105.762,490.514 z" />
    <path
       style="stroke:#ffffff;stroke-width:3;stroke-linecap:round;stroke-linejoin:round"
       id="path2078"
       d="M 96.543,511.336 C 96.543,511.336 93.772,497.795 79.871,505.975 C 79.871,505.975 86.104,493.704 97.112,495 C 108.118,496.299 105.349,504.973 105.349,504.973 L 96.543,511.336 z" />
    <path
       style="stroke:#ffffff;stroke-width:3;stroke-linecap:round;stroke-linejoin:round"
       id="path2080"
       d="M 96.134,545.09 C 96.134,545.09 93.064,533.143 99.074,525.776 C 102.782,521.235 109.839,518.348 113.378,519.276 L 109.624,533.653 C 109.626,533.653 99.093,528.93 96.134,545.09 z" />
    <path
       style="stroke:#ffffff;stroke-width:3;stroke-linecap:round;stroke-linejoin:round"
       id="path2082"
       d="M 123.781,535.77 C 123.781,535.77 111.496,534.534 115.315,550.495 C 115.315,550.495 117.922,542.114 125.981,543.436 L 123.781,535.77 z" />
    <path
       style="stroke:#ffffff;stroke-width:3;stroke-linecap:round;stroke-linejoin:round"
       id="path2086"
       d="M 348.276,363.066 C 348.276,363.066 337.785,361.797 327.715,365.167 C 322.926,365.167 281.513,368.696 250.936,372.152 C 227.894,374.597 189.502,386.78 180.597,409 C 180.597,409 190.645,399.399 197.801,403.177 C 197.801,403.177 186.874,409.053 184.245,428.872 C 184.245,428.872 193.96,420.812 199.201,422.183 C 199.201,422.183 193.772,431.55 191.813,442.962 C 191.813,442.962 199.379,436.036 203.899,436.265 C 203.899,436.265 200.59,438.579 202.317,449.523 C 202.317,449.523 221.513,457.503 218.335,463.83 C 215.157,470.15 167.437,505.076 148.28,504.371 C 148.28,504.371 146.227,498.586 138.274,501.76 C 138.274,501.76 134.842,499.684 133.104,493.125 C 131.367,486.568 123.206,478.75 114.187,481.904 C 107.094,484.383 99.854,491.47 102.96,497.752 C 102.96,497.752 80.773,512.705 103.846,522.074 C 105.319,522.67 106.526,522.455 107.653,521.902 C 107.653,521.902 97.355,530.781 109.195,535.929 C 115.921,538.857 120.821,535.534 120.821,535.534 C 119.872,538.179 119.014,542.352 122.811,545.895 C 125.94,548.823 134.901,548.401 141.135,547.543 C 147.018,546.736 154.341,552.367 164.032,549.297 C 170.721,547.18 179.622,541.604 188.502,536.818 C 194.349,533.666 221.267,525.759 226.46,524.509 C 237.676,521.808 247.691,513.484 247.691,513.484 C 247.691,513.484 238.025,514.084 233.87,510.183 C 233.87,510.183 260.408,505.693 268.988,490.042 C 268.988,490.042 256.946,493.446 251.501,489.921 C 251.501,489.921 281.654,481.187 283.527,471.15 C 283.527,471.15 276.521,472.552 270.195,468.091 C 263.869,463.634 259.436,453.599 262.207,447.136 C 266.637,436.804 288.986,426.808 306.187,421.385 C 323.384,415.961 339.309,410.029 350.987,418.338 C 362.672,426.652 355.383,378.827 355.383,378.827 L 355.975,352.767 L 348.276,363.066 z" />
    <path
       style="fill:none;stroke:#ffffff;stroke-width:3;stroke-linecap:round;stroke-linejoin:round"
       id="path2123"
       d="M 107.654,521.897 C 113.882,520.383 113.242,516.241 118.852,519.655 C 128.004,525.218 125.709,529.618 125.709,529.618 C 125.709,529.618 122.204,531.681 120.822,535.528" />
    <path
       style="fill:none;stroke:#ffffff;stroke-width:3;stroke-linecap:round;stroke-linejoin:round"
       id="path2125"
       d="M 136.603,526.477 C 136.603,526.477 129.397,526.782 125.71,529.618" />
    <path
       style="fill:none;stroke:#ffffff;stroke-width:3;stroke-linecap:round;stroke-linejoin:round"
       id="path2127"
       d="M 102.962,497.748 C 104.102,500.055 106.635,502.25 111.084,504.072 C 115.933,506.052 123.424,500.113 130.663,513.494" />
    <path
       style="fill:none;stroke:#ffffff;stroke-width:3;stroke-linecap:round;stroke-linejoin:round"
       id="path2129"
       d="M 138.275,501.752 C 130.321,504.922 128.382,520.152 135.304,524.822 C 142.229,529.488 151.271,529.943 160.042,523.646 C 168.809,517.353 190.806,522.156 188.503,536.816" />
    <path
       style="stroke:#ffffff;stroke-width:3;stroke-linecap:round;stroke-linejoin:round"
       id="path2171"
       d="M 134.958,513.883 C 134.958,513.883 128.22,502.672 116.582,511.842 C 116.582,511.842 119.076,500.682 128.301,499.151 C 137.524,497.624 144.536,504.571 144.536,504.571 C 144.536,504.571 144.093,514.301 134.958,513.883 z" />
    <path
       style="stroke:#ffffff;stroke-width:3;stroke-linecap:round;stroke-linejoin:round"
       id="path2662"
       d="M 291.631,375.272 C 291.631,375.272 315.574,389.772 317.092,422.147 L 329.821,409.418 C 329.822,409.417 324.006,381.343 291.631,375.272 z" />
    <path
       style="stroke:#ffffff;stroke-width:3;stroke-linecap:round;stroke-linejoin:round"
       id="path2084"
       d="M 340.3,576.397 C 340.3,576.397 337.845,573.344 333.228,573.145 C 328.616,572.942 333.228,573.145 333.228,573.145 L 332.371,580.209 L 339.411,579.82 L 340.3,576.397" />
    <path
       style="stroke:#ffffff;stroke-width:3;stroke-linecap:round;stroke-linejoin:round"
       id="path2667"
       d="M 510.328,124.875 C 507.8,106.665 497.177,94.777003 484.529,94.777003 C 471.883,94.777003 457.466,103.882 447.602,120.575 C 434.588,142.599 442.782,185.986 450.081,225.086 L 450.081,225.085 C 450.081,225.085 432.597,216.772 419.106,234.645 C 419.106,234.645 451.923,237.583 456.919,260.935 C 464.288,296.847 473.146,332.275 473.146,332.275 C 463.662,322.79 458.982,315.835 447.347,315.835 C 437.231,315.835 425.09,327.47 430.149,340.875 C 430.149,340.875 433.437,327.976 447.347,327.976 C 461.259,327.976 483.769,350.487 483.769,378.561 C 483.769,406.635 462.776,417.764 450.383,417.764 C 437.988,417.764 428.125,410.935 424.584,402.589 C 421.051,394.26 417.723,388.535 414.039,385.075 C 408.932,380.278 404.435,379.347 404.435,379.347 C 404.435,379.347 400.611,358.047 375.68,341.098 C 341.974,318.183 347.274,301.079 360.763,270.054 L 354.294,261.457 L 351.318,249.118 L 241.562,255.403 L 236.997,277.473 C 238.977,288.712 237.737,295.406 243.239,312.812 L 243.256,312.85 C 246.488,322.714 263.093,337.781 276.136,343.759 C 287.984,349.189 323.447,363.887 317.091,395.119 C 314.237,408.815 308.898,435.455 319.958,453.172 C 319.958,453.172 323.515,445.942 327.238,445.668 C 327.238,445.668 324.3,455.522 328.653,472.656 C 328.653,472.656 332.175,466.295 339.639,465.314 C 339.639,465.314 335.013,475.71 340.502,488.115 C 340.502,488.115 344.638,478.302 350.268,476.808 C 350.268,476.808 346.037,488.79 352.66,496.466 C 352.66,496.466 354.37,493.513 360.33,495.077 C 366.293,496.638 392.391,509.417 387.006,526.561 C 381.778,543.207 363.455,584.122 349.625,585.823 C 350.081,582.602 348.312,579.673 346.174,578.259 C 339.969,574.138 335.246,578.784 335.246,578.784 C 335.246,578.784 335.236,568.35 322.643,569.973 C 310.045,571.6 304.469,579.176 308.718,588.049 C 303.529,592.916 295.738,603.18 301.533,611.363 C 303.887,614.681 310.058,616.42 317.959,614.418 C 317.959,614.418 317.759,626.129 330.796,626.6 C 344.043,627.075 342.066,611.077 350.759,609.983 C 353.525,609.631 356.635,620.327 360.578,619.753 C 365.983,618.97 375.61,601.095 385.755,600.357 C 395.9,599.607 406.398,590.595 406.398,590.595 C 406.398,590.595 400.512,590.339 396.888,586.63 C 396.888,586.63 413.369,585.372 424.904,572.06 C 424.904,572.06 420.278,571.859 416.231,568.128 C 416.231,568.128 432.482,562.526 441.122,547.903 C 441.122,547.903 433.941,548.378 430.716,545.079 C 430.716,545.079 444.112,537.374 447.904,527.671 C 447.904,527.671 441.898,530.171 436.621,525.599 C 436.621,525.599 448.405,511.015 447.303,507.415 C 412.779,499.352 402.885,475.101 401.233,473.302 C 399.996,471.952 398.141,466.4 398.141,454.407 C 398.141,450.44 399.104,445.907 402.066,440.969 C 411.074,425.959 405.076,410.643 408.4,399.55 C 410.928,410.931 426.104,433.442 450.385,433.442 C 474.664,433.442 496.67,408.402 496.67,378.558 C 496.67,367.032 490.317,346.369 481.825,310.939 C 490.054,313.609 496.949,308.704 498.607,303.185 C 499.965,299.177 499.173,292.815 496.697,286.474 C 489.46,267.945 509.822,247.12 509.822,247.12 C 496.709,247.12 488.895,254.192 484.259,263.982 C 480.947,270.967 478.393,283.775 479.723,291.298 C 479.039,295.58 477.575,292.618 477.574,292.642 C 475.564,283.707 473.485,274.012 471.378,263.475 C 458.226,197.715 448.315,146.922 459.49,135.747 C 465.939,129.297 472.182,127.189 477.068,128.16 C 482.172,129.174 486.047,133.668 488.027,138.783 C 491.832,148.647 484.001,162.158 473.739,158.427 C 473.739,158.427 481.596,170.749 498.018,160.115 L 500.145,163.668 C 503.536,168.126 507.616,170.906 513.363,170.906 C 532.332,170.906 540.3,148.522 540.3,148.522 C 517.915,155.227 512.833,142.913 510.328,124.875 z" />
    <path
       style="fill:none;stroke:#ffffff;stroke-width:3;stroke-linecap:round;stroke-linejoin:round"
       id="path2131"
       d="M 349.627,585.831 C 349.206,585.882 348.796,585.901 348.385,585.886 C 341.441,585.581 335.245,578.792 335.245,578.792" />
    <path
       style="fill:none;stroke:#ffffff;stroke-width:3;stroke-linecap:round;stroke-linejoin:round"
       id="path2159"
       d="M 317.967,614.424 C 317.967,614.424 318.077,604.772 323.581,600.322 C 329.086,595.877 335.124,596.849 338.528,598.828 C 342.666,601.242 344.306,596.851 344.306,596.851 C 344.306,596.851 338.113,596.58 333.669,591.101 C 329.91,586.458 322.985,576.525 310.429,586.574 C 309.914,586.988 309.337,587.488 308.72,588.056" />
    <path
       style="stroke:#ffffff;stroke-width:3;stroke-linecap:round;stroke-linejoin:round"
       id="path2173"
       d="M 327.345,570.956 C 327.345,570.956 328.927,561.438 320.268,557.483 C 309.58,552.6 297.364,562.438 297.364,562.438 C 297.364,562.438 314.444,562.665 312.14,574.991 C 312.139,574.991 323.547,576.868 327.345,570.956 z" />
    <path
       style="stroke:#ffffff;stroke-width:3;stroke-linecap:round;stroke-linejoin:round"
       id="path2175"
       d="M 311.058,586.262 C 311.058,586.262 299.677,578.323 290.119,588.117 C 280.556,597.922 289.993,612.166 289.993,612.166 C 289.993,612.166 292.074,595.832 301.901,600.219 C 301.9,600.221 311.738,597.614 311.058,586.262 z" />
    <path
       style="stroke:#ffffff;stroke-width:3;stroke-linecap:round;stroke-linejoin:round"
       id="path2177"
       d="M 324.561,600.93 C 324.561,600.93 308.983,599.979 304.791,614.983 C 302.048,624.809 309.001,633.385 309.001,633.385 C 309.001,633.385 312.147,615.303 320.605,617.324 C 320.604,617.331 327.292,612.649 324.561,600.93 z" />
    <path
       style="stroke:#ffffff;stroke-width:3;stroke-linecap:round;stroke-linejoin:round"
       id="path2179"
       d="M 343.267,618.041 C 343.267,618.041 347.556,627.703 341.913,635.467 C 341.913,635.467 355.72,630.17 354.62,614.393 C 355.154,608.895 350.487,608.022 346.774,611.844 C 345.231,613.43 343.066,615.821 343.267,618.041 z" />
    <path
       style="stroke:#ffffff;stroke-width:3;stroke-linecap:round;stroke-linejoin:round"
       id="path2677"
       d="M 296.596,224.389 C 296.596,224.389 264.322,213.165 246.604,209.069 C 239.027,212.488 226.674,245.673 226.674,245.673 C 213.931,251.68 212.476,254.992 203.481,261.371 C 187.679,272.574 169.796,272.278 152.643,279.126 C 148.541,280.765 144.671,282.66 141.051,284.528 C 115.554,288.284 118.97,268.207 120.155,258.939 C 121.339,249.669 108.6,245.408 96.181,253.727 C 83.161,262.449 95.177,272.746 95.177,272.746 C 95.177,272.746 100.326,279.222 95.65,284.83 C 90.972,290.44 84.023,289.115 84.023,289.115 C 81.299,290.699 79.607,296.482 80.755,301.456 C 82.911,310.811 95.825,306.384 103.679,305.238 C 111.531,304.096 109.747,315.036 103.227,319.543 C 97.669,323.387 97.556,329.861 105.276,330.717 C 112.999,331.568 120.23,326.164 127.466,320.76 C 134.7,315.354 139.979,328.433 147.777,326.901 C 155.573,325.37 154.146,318.461 155.763,315.059 C 158.756,308.756 168.305,321.765 171.482,323.279 C 182.529,329.58 192.751,327.303 192.751,327.303 C 187.226,324.152 193.765,316.87 193.765,316.87 C 209.192,321.347 218.079,315.703 218.079,315.703 C 212.423,314.547 213.946,307.602 213.946,307.602 C 224.468,313.191 234.293,308.2 234.293,308.2 C 229.185,304.989 230.218,300.487 230.218,300.487 C 241.924,305.505 253.146,301.215 253.146,301.215 C 246.833,301.343 246.187,294.207 246.187,294.207 C 246.187,294.207 257.704,299.273 262.814,294.428 C 253.916,288.263 261.603,285.385 263.926,284.439 C 265.481,283.833 271.348,283.369 277.649,280.334 C 280.965,278.736 285.543,276.457 288.534,273.039 C 290.892,270.341 289.703,266.865 291.227,262.592 C 292.726,258.394 295.82,253.399 295.982,247.309 L 296.154,240.874 C 296.283,236.047 302.323,226.871 302.323,226.871 L 296.596,224.389 z" />
    <path
       style="fill:none;stroke:#ffffff;stroke-width:3;stroke-linecap:round;stroke-linejoin:round"
       id="path2135_1_"
       d="M 141.049,284.527 C 129.534,290.475 120.573,296.124 114.854,292.141 C 107.34,286.907 115.297,280.169 111.659,275.995 C 105.342,268.741 95.174,272.744 95.174,272.744" />
    <path
       style="fill:#ffffff;stroke:#000000;stroke-width:3;stroke-linecap:round;stroke-linejoin:round"
       id="path2163_1_"
       d="M 81.393,252.251 C 81.393,252.251 93.756,245.758 98.165,255.022 C 98.165,255.022 102.018,260.457 109.645,259.348 C 114.55,258.632 116.793,254.919 116.238,251.089 C 116.238,251.089 116.06,242.705 101.346,241.619 C 90.655,240.83 81.393,252.251 81.393,252.251 z" />
    <path
       style="fill:#ffffff;stroke:#000000;stroke-width:3;stroke-linecap:round;stroke-linejoin:round"
       id="path2165_1_"
       d="M 64.202,293.312 C 64.202,293.312 66.531,274.975 84.443,271.622 C 93.103,270.002 98.501,274.528 98.501,274.528 C 98.501,274.528 106.338,279.073 99.652,288.177 C 96.867,291.972 88.977,291.295 88.977,291.295 C 88.977,291.295 83.97,286.917 77.682,288.247 C 69.857,289.907 64.202,293.312 64.202,293.312 z" />
    <path
       style="fill:#ffffff;stroke:#000000;stroke-width:3;stroke-linecap:round;stroke-linejoin:round"
       id="path2167_1_"
       d="M 89.216,340.309 C 89.216,340.309 80.587,335.242 82.105,324.363 C 83.739,312.654 93.637,304.953 106.664,303.842 C 111.605,303.812 113.809,309.484 111.456,313.835 C 108.562,319.183 103.246,320.503 103.246,320.503 C 103.246,320.503 87.947,322.993 89.216,340.309 z" />
    <path
       style="fill:#ffffff;stroke:#000000;stroke-width:3;stroke-linecap:round;stroke-linejoin:round"
       id="path2169_1_"
       d="M 128.845,312.867 C 121.762,313.899 105.96,333.402 128.277,351.011 C 128.277,351.011 124.057,327.618 137.528,322.812 C 141.23,321.492 139.471,311.319 128.845,312.867 z" />
    <path
       style="fill:#e20909;stroke:#000000;stroke-width:3;stroke-linecap:round;stroke-linejoin:round"
       id="path2638"
       d="M 327.513,113.271 C 327.513,113.271 271.097,108.167 251.673,106.127 C 232.25,104.085 224.159,96.98 225.436,84.839003 C 226.713,72.698003 241.113,63.287003 251.315,67.494003 C 252.758,68.088003 239.201,82.331003 248.033,92.023003 C 256.863,101.713 307.571,105.626 328.09,107.782 L 327.513,113.271 z" />
    <path
       style="fill:#ffffff;stroke:#000000;stroke-width:3;stroke-linecap:round;stroke-linejoin:round"
       id="path2640"
       d="M 286.596,90.120003 C 286.596,90.120003 284.237,96.242 289.481,100.068 C 289.481,100.068 293.309,93.330003 292.275,89.740003 L 289.957,87.180003 L 286.596,90.120003 z" />
    <path
       style="fill:#ffffff;stroke:#000000;stroke-width:3;stroke-linecap:round;stroke-linejoin:round"
       id="path2642"
       d="M 287.106,121.276 C 287.106,121.276 285.844,116.966 290.474,113.368 C 290.474,113.368 293.512,117.582 291.821,122.265 L 289.021,123.33 L 287.106,121.276 z" />
    <path
       style="stroke:#ffffff;stroke-width:3;stroke-linecap:round;stroke-linejoin:round"
       id="path2689"
       d="M 414.211,186.399 C 416.175,178.815 416.095,168.28 415.184,157.866 C 414.674,149.575 428.971,147.876 428.971,147.876 C 417.858,147.876 412.685,137.246 410.885,128.712 C 409.906,123.779 409.59,122.516 409.59,122.516 C 408.649,116.683 412.206,113.936 415.998,114.687 C 419.792,115.438 423.82,119.691 423.82,119.691 C 423.82,87.231003 402.645,85.440003 402.645,85.440003 C 413.305,85.017003 420.279,65.635003 406.061,55.295003 C 399.516,50.536003 394.126,50.148003 389.957,51.498003 C 390.682,48.845003 390.319,45.856003 388.85,42.528003 C 384.941,33.699003 368.578,29.059003 361.12,34.862003 C 353.053,41.138003 356.708,48.746003 356.708,48.746003 C 351.491,48.359003 346.146,48.218003 341.479,47.319003 C 323.845,43.921003 319.428,53.636003 313.081,58.576003 C 306.727,63.517003 298.891,61.360003 288.236,63.178003 C 277.583,64.998003 280.492,76.667003 281.5,75.883003 C 285.937,72.431003 286.628,76.422003 286.628,76.422003 C 277.936,76.933003 279.874,91.379003 287.638,90.297003 C 295.407,89.214003 319.567,89.050003 317.454,109.125 C 315.346,129.201 286.723,120.851 286.723,120.851 C 286.723,120.851 283.806,121.611 283.08,123.79 C 279.604,134.268 287.848,136.575 287.848,136.575 C 289.391,130.685 304.037,135.785 317.224,137.17 C 330.41,138.557 334.837,134.712 334.837,134.712 C 330.387,139.992 324.011,145.913 314.991,151.358 C 310.512,154.062 302.738,155.071 296.352,154.922 C 250.573,154.922 233.504,127.957 233.504,127.957 C 226.881,148.313 235.099,164.386 235.099,164.386 C 207.082,174.517 202.578,192.903 202.578,192.903 C 210.583,200.908 225.259,199.53 225.259,199.53 C 204.746,210.748 215.999,226.521 203.033,239.721 C 198.631,244.202 192.924,247.667 185.401,249.105 C 192.992,255.99 211.75,258.443 237.099,238.432 C 241.669,253.775 229.094,268.868 238.1,286.212 C 245.771,273.871 249.607,262.28 263.449,258.778 C 267.118,281.458 284.087,297.852 289.132,300.47 C 286.131,273.12 302.974,263.616 302.974,263.616 C 302.974,263.616 311.48,290.799 328.49,304.141 C 335.828,282.461 348.836,272.121 348.836,272.121 C 355.173,287.464 373.02,290.632 373.02,290.632 C 369.183,261.28 379.857,249.273 379.857,249.273 C 384.693,263.782 403.205,263.448 403.205,263.448 C 397.442,256.611 394.914,241.29 399.845,222.58 C 402.465,211.948 399.952,207.038 399.952,207.038 C 404.955,218.045 422.218,213.417 422.218,213.417 C 422.218,213.417 409.534,205.346 414.211,186.399 z" />
    <path
       style="fill:none;stroke:#ffffff;stroke-width:3;stroke-linecap:round;stroke-linejoin:round"
       id="path2697"
       d="M 334.837,134.712 C 342.285,125.875 344.332,118.833 344.332,118.833" />
    <path
       style="fill:none;stroke:#ffffff;stroke-width:3;stroke-linecap:round;stroke-linejoin:round"
       id="path2699"
       d="M 356.707,48.747003 C 366.645,49.483003 376.128,51.115003 379.586,60.582003 C 379.586,60.582003 383.138,53.709003 389.958,51.498003" />
    <path
       style="fill:none;stroke:#ffffff;stroke-width:3;stroke-linecap:round;stroke-linejoin:round"
       id="path2701"
       d="M 388.949,67.799003 C 388.949,67.799003 393.373,59.183003 402.561,63.353003" />
    <path
       style="fill:none;stroke:#ffffff;stroke-width:3;stroke-linecap:round;stroke-linejoin:round"
       id="path2656"
       d="M 333.135,59.589003 C 333.135,59.589003 347.553,58.078003 351.558,60.458003 C 355.571,62.835003 355.365,64.773003 360.128,65.274003" />
    <path
       style="fill:#ffffff"
       id="path2658"
       d="M 337.128,65.206003 C 337.128,65.206003 342.232,61.224003 347.016,66.244003 C 350.486,69.885003 351.924,72.773003 354.329,75.558003 C 354.329,75.558003 341.351,76.471003 337.53,71.941003 C 335.49,69.520003 337.128,65.206003 337.128,65.206003 z" />
    <path
       style="fill:none;stroke:#ffffff;stroke-width:3;stroke-linecap:round;stroke-linejoin:round"
       id="path2696"
       d="M 264.118,164.72 C 264.118,164.72 244.666,160.185 235.1,164.387" />
    <path
       style="fill:none;stroke:#ffffff;stroke-width:3;stroke-linecap:round;stroke-linejoin:round"
       id="path2698"
       d="M 247.108,201.409 C 247.108,201.409 233.767,196.317 225.261,199.53" />
    <path
       style="fill:none;stroke:#ffffff;stroke-width:3;stroke-linecap:round;stroke-linejoin:round"
       id="path2700"
       d="M 237.102,238.432 C 234.768,225.59 244.44,220.421 244.44,220.421" />
    <path
       style="fill:none;stroke:#ffffff;stroke-width:3;stroke-linecap:round;stroke-linejoin:round"
       id="path2702"
       d="M 267.788,233.428 C 267.788,233.428 261.784,246.937 263.452,258.778" />
    <path
       style="fill:none;stroke:#ffffff;stroke-width:3;stroke-linecap:round;stroke-linejoin:round"
       id="path2704"
       d="M 302.392,226.424 C 302.392,226.424 297.555,243.769 302.976,263.614" />
    <path
       style="fill:none;stroke:#ffffff;stroke-width:3;stroke-linecap:round;stroke-linejoin:round"
       id="path2706"
       d="M 342.917,230.927 C 342.917,230.927 341.251,254.275 348.837,272.119" />
    <path
       style="fill:none;stroke:#ffffff;stroke-width:3;stroke-linecap:round;stroke-linejoin:round"
       id="path2708"
       d="M 378.189,215.917 C 380.941,223.923 374.771,235.346 379.857,249.271" />
    <path
       style="fill:none;stroke:#ffffff;stroke-width:3;stroke-linecap:round;stroke-linejoin:round"
       id="path2710"
       d="M 398.033,185.732 C 396.199,194.071 396.533,198.991 399.951,207.037" />
    <circle
       sodipodi:ry="2.25"
       sodipodi:rx="2.25"
       sodipodi:cy="69.195"
       sodipodi:cx="341.388"
       cx="341.388"
       cy="69.195"
       r="2.25"
       id="circle2713"
       transform="translate(-3.8e-2,-4.39978e-2)" />
    <path
       style="fill:#e20909"
       id="path1892"
       d="M 1.5,367.001 L 1.5,460.376 C 1.5,626.69 135.814,761.501 301.5,761.501 C 467.188,761.501 601.5,626.688 601.5,460.376 L 601.5,367.001 L 1.5,367.001 L 1.5,367.001 z" />
    <path
       style="fill:#fcef3c"
       d="M 401.499,367.001 L 401.499,744.343 C 438.764,731.121 472.645,710.727 501.5,684.801 L 501.5,367.001 L 401.499,367.001 L 401.499,367.001 z M 201.5,744.343 C 232.78,755.441 266.433,761.5 301.5,761.5 L 301.501,761.5 L 301.501,367 L 201.501,367 L 201.501,744.343 L 201.5,744.343 z M 1.5,460.375 C 1.5,549.557 40.132,629.666 101.5,684.802 L 101.5,367.001 L 1.5,367.001 L 1.5,460.375 L 1.5,460.375 z"
       id="path2718" />
    <path
       style="fill:none;stroke:#000000;stroke-width:3"
       d="M 501.5,684.801 L 501.5,367.001 M 401.499,367.001 L 401.499,744.343 M 201.5,367.001 L 201.5,744.343 M 301.499,761.5 L 301.499,761.5 L 301.5,367 M 101.5,684.802 L 101.5,367.001"
       id="path2722" />
    <line
       style="fill:none;stroke:#000000;stroke-width:3"
       id="path6594"
       x1="1.5000001"
       y1="367.00101"
       x2="601.49896"
       y2="367.00101" />
  </g>
  <g
     inkscape:groupmode="layer"
     id="layer3"
     inkscape:label="Reflet final"
     style="display:inline"
     sodipodi:insensitive="true">
    <path
       style="fill:url(#radialGradient3236);fill-opacity:1"
       d="M 1.5,1.5 L 1.5,460.3679 C 1.5,626.67854 135.81454,761.5 301.49993,761.5 C 467.1854,761.5 601.5,626.67854 601.5,460.3679 L 601.5,1.5 L 1.5,1.5 z "
       id="path2346" />
  </g>
  <g
     inkscape:groupmode="layer"
     id="layer4"
     inkscape:label="Contour final"
     style="display:inline"
     sodipodi:insensitive="true">
    <path
       style="fill:none;fill-opacity:1;stroke:#000000;stroke-width:3;stroke-miterlimit:4;stroke-dasharray:none;stroke-opacity:1"
       d="M 1.5,1.5 L 1.5,460.36794 C 1.5,626.67854 135.81454,761.5 301.49993,761.5 C 467.1854,761.5 601.5,626.67854 601.5,460.36794 L 601.5,1.5 L 1.5,1.5 z "
       id="path3239" />
  </g>
</svg>
