<?xml version="1.0" encoding="UTF-8" standalone="no"?>
<svg
   xmlns:dc="http://purl.org/dc/elements/1.1/"
   xmlns:cc="http://creativecommons.org/ns#"
   xmlns:rdf="http://www.w3.org/1999/02/22-rdf-syntax-ns#"
   xmlns:svg="http://www.w3.org/2000/svg"
   xmlns="http://www.w3.org/2000/svg"
   xmlns:xlink="http://www.w3.org/1999/xlink"
   xmlns:sodipodi="http://sodipodi.sourceforge.net/DTD/sodipodi-0.dtd"
   xmlns:inkscape="http://www.inkscape.org/namespaces/inkscape"
   height="763"
   width="603"
   version="1.0"
   id="svg20"
   sodipodi:version="0.32"
   inkscape:version="0.46"
   sodipodi:docname="Cheserex-coat_of_arms.svg"
   sodipodi:docbase="C:\Documents and Settings\Steve\Bureau\Blason Villages Suisse pour Wikipédia (par Delta-9)"
   inkscape:output_extension="org.inkscape.output.svg.inkscape">
  <metadata
     id="metadata31">
    <rdf:RDF>
      <cc:Work
         rdf:about="">
        <dc:format>image/svg+xml</dc:format>
        <dc:type
           rdf:resource="http://purl.org/dc/dcmitype/StillImage" />
        <dc:date>07-AUG-2006</dc:date>
        <dc:creator>
          <cc:Agent>
            <dc:title>Jérôme BLUM (wagner51)</dc:title>
          </cc:Agent>
        </dc:creator>
        <cc:license
           rdf:resource="http://creativecommons.org/licenses/GPL/2.0/" />
        <dc:coverage />
        <dc:description>Gabarit pour le Projet:Blasons de WIkipédia</dc:description>
        <dc:subject>
          <rdf:Bag>
            <rdf:li>blason suisse modèle gabarit projet blasons</rdf:li>
          </rdf:Bag>
        </dc:subject>
        <dc:language>fr</dc:language>
        <dc:title>Gabrit d'un blason suisse</dc:title>
      </cc:Work>
      <cc:License
         rdf:about="http://creativecommons.org/licenses/GPL/2.0/">
        <cc:permits
           rdf:resource="http://web.resource.org/cc/Reproduction" />
        <cc:permits
           rdf:resource="http://web.resource.org/cc/Distribution" />
        <cc:requires
           rdf:resource="http://web.resource.org/cc/Notice" />
        <cc:permits
           rdf:resource="http://web.resource.org/cc/DerivativeWorks" />
        <cc:requires
           rdf:resource="http://web.resource.org/cc/ShareAlike" />
        <cc:requires
           rdf:resource="http://web.resource.org/cc/SourceCode" />
      </cc:License>
    </rdf:RDF>
  </metadata>
  <defs
     id="defs29"><inkscape:perspective
   sodipodi:type="inkscape:persp3d"
   inkscape:vp_x="0 : 381.5 : 1"
   inkscape:vp_y="0 : 1000 : 0"
   inkscape:vp_z="603 : 381.5 : 1"
   inkscape:persp3d-origin="301.5 : 254.33333 : 1"
   id="perspective28" />
<linearGradient
   id="linearGradient2893">
  <stop
     style="stop-color:#ffffff;stop-opacity:0.3137255;"
     offset="0"
     id="stop2895" />
  <stop
     id="stop2897"
     offset="0.19"
     style="stop-color:#ffffff;stop-opacity:0.25098041;" />
  <stop
     style="stop-color:#6b6b6b;stop-opacity:0.1254902;"
     offset="0.60000002"
     id="stop2901" />
  <stop
     style="stop-color:#000000;stop-opacity:0.1254902;"
     offset="1"
     id="stop2899" />
</linearGradient>
<linearGradient
   id="linearGradient2955">
  <stop
     style="stop-color:white;stop-opacity:0;"
     offset="0"
     id="stop2965" />
  <stop
     style="stop-color:black;stop-opacity:0.64583331;"
     offset="1"
     id="stop2959" />
</linearGradient>
<radialGradient
   inkscape:collect="always"
   xlink:href="#linearGradient2893"
   id="radialGradient3236"
   gradientUnits="userSpaceOnUse"
   gradientTransform="matrix(1.215027,1.531577e-24,1.464684e-23,1.266667,-839.1924,-490.4894)"
   cx="858.04236"
   cy="579.93323"
   fx="858.04236"
   fy="579.93323"
   r="300" />
<inkscape:perspective
   id="perspective2623"
   inkscape:persp3d-origin="297.63751 : 280.63 : 1"
   inkscape:vp_z="595.27502 : 420.94501 : 1"
   inkscape:vp_y="0 : 1000 : 0"
   inkscape:vp_x="0 : 420.94501 : 1"
   sodipodi:type="inkscape:persp3d" />

	
	
	
	
	
	
	
	
	

	

		
		
	
		
		
		
	
		
		
		
		
		
		
		
		
		
		
		
		
		
		
		
		
		
		
			
	
		
		
		
		
		
		
	
		
		
		
		
		
		
		
		
		
		
		
	
		
		
		
		
		
	
			
			
			
			
			
			
			
				
			
				
			
				
			
		
			
			
			
			
			
			
			
				
			
				
			
				
			
		</defs>
  <sodipodi:namedview
     inkscape:window-height="691"
     inkscape:window-width="939"
     inkscape:pageshadow="2"
     inkscape:pageopacity="0.0"
     guidetolerance="10.0"
     gridtolerance="10.0"
     objecttolerance="10.0"
     borderopacity="1.0"
     bordercolor="#666666"
     pagecolor="#ffffff"
     id="base"
     inkscape:zoom="0.43342249"
     inkscape:cx="269.40511"
     inkscape:cy="356.77974"
     inkscape:window-x="20"
     inkscape:window-y="42"
     inkscape:current-layer="layer2"
     showgrid="false"
     showguides="true"
     inkscape:guide-bbox="true">
    <sodipodi:guide
       orientation="horizontal"
       position="761.5"
       id="guide1885" />
    <sodipodi:guide
       orientation="vertical"
       position="1.5"
       id="guide1887" />
    <sodipodi:guide
       orientation="horizontal"
       position="1.5"
       id="guide1889" />
    <sodipodi:guide
       orientation="vertical"
       position="601.5"
       id="guide1891" />
    <sodipodi:guide
       orientation="vertical"
       position="301.50081"
       id="guide1893" />
  </sodipodi:namedview>
  <desc
     id="desc22">Coat of Arms of Canton of Freiburg (Fribourg)</desc>
  <g
     inkscape:groupmode="layer"
     id="layer1"
     inkscape:label="Fond écu"
     style="opacity:1"
     sodipodi:insensitive="true">
    <path
       d="M 1.4999929,1.5 L 1.4999929,460.369 C 1.4999929,626.68 135.814,761.5 301.5,761.5 C 467.186,761.5 601.5,626.68 601.5,460.369 L 601.5,1.5 L 1.4999929,1.5 z"
       id="path2630"
       style="opacity:1;fill:#ffffff" />
  </g>
  <g
     inkscape:groupmode="layer"
     id="layer2"
     inkscape:label="Meubles"
     style="opacity:1"
     sodipodi:insensitive="true">
    <path
       id="path2675"
       d="M 91.099992,340.707 L 111.1,340.707 L 111.1,290.707 L 91.099992,290.707 L 91.099992,340.707 z M 191.499,340.707 L 211.499,340.707 L 211.499,290.707 L 191.499,290.707 L 191.499,340.707 z M 291.499,340.707 L 311.499,340.707 L 311.499,290.707 L 291.499,290.707 L 291.499,340.707 z M 391.498,340.707 L 411.498,340.707 L 411.498,290.707 L 391.498,290.707 L 391.498,340.707 z M 491.498,290.707 L 491.498,340.707 L 511.498,340.707 L 511.498,290.707 L 491.498,290.707 z" />
    <path
       id="path2677"
       d="M 41.297992,274.979 L 61.297992,274.979 L 61.297992,224.979 L 41.297992,224.979 L 41.297992,274.979 z M 141.699,274.979 L 161.699,274.979 L 161.699,224.979 L 141.699,224.979 L 141.699,274.979 z M 241.699,274.979 L 261.699,274.979 L 261.699,224.979 L 241.699,224.979 L 241.699,274.979 L 241.699,274.979 z M 341.698,274.979 L 361.698,274.979 L 361.698,224.979 L 341.698,224.979 L 341.698,274.979 z M 441.698,274.979 L 461.698,274.979 L 461.698,224.979 L 441.698,224.979 L 441.698,274.979 z M 541.698,224.979 L 541.698,274.979 L 561.698,274.979 L 561.698,224.979 L 541.698,224.979 z" />
    <path
       id="path2679"
       d="M 91.099992,209.25 L 111.1,209.25 L 111.1,159.25 L 91.099992,159.25 L 91.099992,209.25 z M 191.499,209.25 L 211.499,209.25 L 211.499,159.25 L 191.499,159.25 L 191.499,209.25 z M 291.499,209.25 L 311.499,209.25 L 311.499,159.25 L 291.499,159.25 L 291.499,209.25 z M 391.498,209.25 L 411.498,209.25 L 411.498,159.25 L 391.498,159.25 L 391.498,209.25 z M 491.498,159.25 L 491.498,209.25 L 511.498,209.25 L 511.498,159.25 L 491.498,159.25 z" />
    <path
       id="path2681"
       d="M 41.297992,143.522 L 61.297992,143.522 L 61.297992,93.522001 L 41.297992,93.522001 L 41.297992,143.522 z M 141.699,143.522 L 161.699,143.522 L 161.699,93.522001 L 141.699,93.522001 L 141.699,143.522 z M 241.699,143.522 L 261.699,143.522 L 261.699,93.522001 L 241.699,93.522001 L 241.699,143.522 L 241.699,143.522 z M 341.698,143.522 L 361.698,143.522 L 361.698,93.522001 L 341.698,93.522001 L 341.698,143.522 z M 441.698,143.522 L 461.698,143.522 L 461.698,93.522001 L 441.698,93.522001 L 441.698,143.522 z M 541.698,93.522001 L 541.698,143.522 L 561.698,143.522 L 561.698,93.522001 L 541.698,93.522001 L 541.698,93.522001 z" />
    <path
       id="path2683"
       d="M 91.099992,77.793001 L 111.1,77.793001 L 111.1,27.793001 L 91.099992,27.793001 L 91.099992,77.793001 z M 191.499,77.793001 L 211.499,77.793001 L 211.499,27.793001 L 191.499,27.793001 L 191.499,77.793001 z M 291.499,77.793001 L 311.499,77.793001 L 311.499,27.793001 L 291.499,27.793001 L 291.499,77.793001 z M 391.498,77.793001 L 411.498,77.793001 L 411.498,27.793001 L 391.498,27.793001 L 391.498,77.793001 z M 491.498,27.793001 L 491.498,77.793001 L 511.498,77.793001 L 511.498,27.793001 L 491.498,27.793001 L 491.498,27.793001 z" />
    <path
       style="fill:#ffffff;stroke:#000000;stroke-width:3;stroke-linecap:round;stroke-linejoin:round"
       id="path2068"
       d="M 110.807,82.665001 C 90.348992,81.016001 91.972992,99.232 91.972992,99.232 C 98.38299,91.549001 107.466,94.399001 107.466,94.399001 L 113.772,92.978001 L 121.027,90.139001 L 118.19,83.851001 L 110.807,82.665001 z" />
    <path
       style="fill:#ffffff;stroke:#000000;stroke-width:3;stroke-linecap:round;stroke-linejoin:round"
       id="path2070"
       d="M 103.9,138.222 C 103.9,138.222 105.888,122.666 118.149,122.979 C 130.449,123.292 128.299,133.096 128.299,133.096 C 128.299,133.096 112.7,127.921 103.9,138.222 z" />
    <path
       style="fill:#ffffff;stroke:#000000;stroke-width:3;stroke-linecap:round;stroke-linejoin:round"
       id="path2072"
       d="M 137.846,41.142001 C 137.846,41.142001 152.486,51.762001 144.036,59.791001 C 144.036,59.791001 145.636,75.304001 156.916,72.094001 C 156.916,72.094001 165.896,60.099001 157.91,49.151001 C 149.92,38.204001 137.846,41.142001 137.846,41.142001 z" />
    <path
       style="fill:#ffffff;stroke:#000000;stroke-width:3;stroke-linecap:round;stroke-linejoin:round"
       id="path2076"
       d="M 115.759,70.563001 C 115.759,70.563001 111.816,63.279001 99.78199,69.654001 C 99.78199,69.654001 105.563,55.812001 122.249,58.302001 C 129.142,59.978001 129.979,67.178001 129.979,67.178001 C 129.979,67.178001 125.466,76.807001 115.759,70.563001 z" />
    <path
       style="stroke:#ffffff;stroke-width:3;stroke-linecap:round;stroke-linejoin:round"
       id="path2093"
       d="M 248.794,176.979 C 248.794,176.979 233.097,161.648 206.003,145.586 C 183.864,132.461 173.483,122.265 161.213,98.969 C 158.357,93.656001 156.82,88.435001 156.947,83.476001 C 157.348,67.753001 157.46,51.107001 138.869,58.744001 C 133.718,60.859001 131.756,65.948001 132.585,70.005001 C 132.585,70.005001 130.249,62.460001 118.897,67.526001 C 109.154,71.874001 104.621,85.846001 117.067,88.571001 C 117.067,88.571001 103.636,88.876001 108.171,99.503 C 108.96,101.348 114.464,103.837 111.268,108.974 C 108.076,114.11 112.17,120.614 119.449,118.971 C 119.449,118.971 106.846,128.071 123.49,131.983 C 125.982,132.568 132.036,134.357 130.276,138.938 C 129.678,140.489 135.8,140.644 140.121,145.972 C 141.396,147.548 143.149,149.592 144.97,151.845 C 149.315,157.21 154.064,163.756 153.759,167.975 C 153.328,173.963 154.784,182.35 159.183,184.55 C 159.183,184.55 160.794,175.983 163.072,173.952 C 163.072,173.952 161.11,185.38 166.958,196.227 C 166.958,196.227 169.677,187.948 173.114,184.122 C 173.114,184.122 168.871,197.58 176.67,208.474 C 176.67,208.474 177.941,202.245 181.102,198.413 C 181.102,198.413 202.144,215.578 208.67,222.011 C 210.572,223.886 220.612,233.115 230.245,226.576 C 239.882,220.039 295.32,204.945 295.32,204.945 L 276.802,176.306 L 270.206,173.007 L 248.794,176.979 z" />
    <path
       style="fill:none;stroke:#ffffff;stroke-width:3;stroke-linecap:round;stroke-linejoin:round"
       id="path2137"
       d="M 117.066,88.572001 C 120.441,89.189001 127.138,92.929001 124.125,102.157" />
    <path
       style="fill:none;stroke:#ffffff;stroke-width:3;stroke-linecap:round;stroke-linejoin:round"
       id="path2139"
       d="M 132.585,70.005001 C 133.082,72.440001 135.371,75.039001 137.763,75.935001 C 140.568,76.979001 137.659,87.477001 137.659,87.477001 C 137.659,87.477001 136.683,90.979001 134.819,93.354001" />
    <path
       style="fill:none;stroke:#ffffff;stroke-width:3;stroke-linecap:round;stroke-linejoin:round"
       id="path2153"
       d="M 144.967,151.843 C 144.967,151.843 153.102,155.536 155.316,149.184 C 157.527,142.832 151.385,131.007 145.486,124.316" />
    <path
       style="fill:none;stroke:#ffffff;stroke-width:3;stroke-linecap:round;stroke-linejoin:round"
       id="path2155"
       d="M 161.212,98.968 C 159.462,96.146001 151.393,93.728001 147.797,95.376001 C 147.275,95.617001 146.776,95.863001 146.307,96.119001 C 136.028,101.662 137.689,110.53 139.296,115.881 C 140.571,120.127 142.734,122.86 145.487,124.319 C 148.819,126.08 153.01,125.985 157.543,124.463 C 165.822,121.684 166.744,130.039 166.744,130.039 C 167.017,135.557 154.021,150.602 153.754,167.974" />
    <path
       style="fill:none;stroke:#ffffff;stroke-width:3;stroke-linecap:round;stroke-linejoin:round"
       id="path2157"
       d="M 146.308,96.119001 C 146.308,96.119001 144.871,91.839001 139.547,92.128001 C 138.202,92.203001 136.566,92.611001 134.817,93.356001 C 131.258,94.873001 127.217,97.793 124.125,102.157 C 120.865,106.758 117.867,112.971 119.449,118.971 C 120.108,121.471 121.517,123.973 124.117,126.223 C 133.192,134.075 132.843,139.66 130.276,138.938" />
    <path
       style="fill:#ffffff;stroke:#000000;stroke-width:3;stroke-linecap:round;stroke-linejoin:round"
       id="path2161"
       d="M 142.079,105.215 C 142.079,105.215 140.434,96.427001 126.515,98.57 C 126.515,98.57 130.49,88.514001 144.045,90.774001 C 149.357,91.659001 153.784,95.771001 154.502,99.037 C 154.501,99.036 151.265,110.946 142.079,105.215 z" />
    <path
       d="M 510.327,124.874 C 507.8,106.664 497.177,94.776001 484.528,94.776001 C 471.882,94.776001 457.465,103.881 447.601,120.574 C 434.587,142.598 442.781,185.985 450.08,225.085 L 450.08,225.084 C 450.08,225.084 432.597,216.771 419.105,234.644 C 419.105,234.644 451.922,237.582 456.918,260.934 C 464.286,296.846 473.145,332.274 473.145,332.274 C 463.661,322.789 458.981,315.834 447.346,315.834 C 437.23,315.834 425.089,327.469 430.148,340.874 C 430.148,340.874 433.436,327.975 447.346,327.975 C 461.258,327.975 483.768,350.486 483.768,378.56 C 483.768,406.634 462.775,417.763 450.382,417.763 C 437.986,417.763 428.123,410.934 424.583,402.588 C 421.05,394.259 417.722,388.534 414.037,385.074 C 408.931,380.277 404.433,379.346 404.433,379.346 C 404.433,379.346 400.609,358.046 375.678,341.097 C 341.972,318.182 347.272,301.078 360.761,270.053 L 354.292,261.456 L 351.315,249.117 L 241.562,255.402 L 236.997,277.472 C 238.977,288.711 237.737,295.405 243.239,312.811 L 243.256,312.849 C 246.488,322.713 263.093,337.78 276.136,343.758 C 287.984,349.188 323.447,363.886 317.091,395.118 C 314.237,408.814 308.898,435.454 319.958,453.171 C 319.958,453.171 323.515,445.941 327.237,445.667 C 327.237,445.667 324.299,455.521 328.652,472.655 C 328.652,472.655 332.174,466.294 339.638,465.311 C 339.638,465.311 335.012,475.707 340.501,488.114 C 340.501,488.114 344.637,478.3 350.267,476.805 C 350.267,476.805 346.036,488.787 352.659,496.463 C 352.659,496.463 354.369,493.51 360.329,495.074 C 366.293,496.635 392.391,509.414 387.006,526.558 C 381.777,543.204 363.454,584.119 349.624,585.82 C 350.08,582.599 348.311,579.67 346.174,578.256 C 339.969,574.135 335.245,578.781 335.245,578.781 C 335.245,578.781 335.235,568.347 322.642,569.97 C 310.044,571.597 304.468,579.173 308.717,588.046 C 303.528,592.913 295.737,603.177 301.531,611.36 C 303.885,614.676 310.056,616.417 317.958,614.415 C 317.958,614.415 317.758,626.126 330.795,626.597 C 344.042,627.072 342.065,611.074 350.758,609.98 C 353.524,609.628 356.634,620.324 360.576,619.75 C 365.981,618.967 375.608,601.092 385.754,600.355 C 395.899,599.605 406.397,590.591 406.397,590.591 C 406.397,590.591 400.511,590.335 396.887,586.626 C 396.887,586.626 413.367,585.368 424.903,572.056 C 424.903,572.056 420.277,571.857 416.23,568.124 C 416.23,568.124 432.481,562.522 441.121,547.899 C 441.121,547.899 433.94,548.374 430.716,545.075 C 430.716,545.075 444.112,537.37 447.904,527.667 C 447.904,527.667 441.898,530.167 436.621,525.595 C 436.621,525.595 448.405,511.011 447.304,507.411 C 412.78,499.348 402.886,475.097 401.234,473.298 C 399.997,471.948 398.142,466.398 398.142,454.403 C 398.142,450.436 399.105,445.903 402.067,440.965 C 411.075,425.955 405.077,410.639 408.401,399.546 C 410.929,410.927 426.105,433.438 450.386,433.438 C 474.664,433.438 496.671,408.398 496.671,378.554 C 496.671,367.028 490.317,346.365 481.825,310.935 C 490.054,313.605 496.949,308.7 498.607,303.181 C 499.965,299.173 499.173,292.811 496.697,286.47 C 489.461,267.941 509.822,247.116 509.822,247.116 C 496.71,247.116 488.895,254.188 484.259,263.978 C 480.946,270.963 478.393,283.771 479.723,291.294 C 479.038,295.576 477.575,292.614 477.574,292.638 C 475.564,283.703 473.485,274.008 471.379,263.471 C 458.227,197.711 448.316,146.918 459.49,135.743 C 465.939,129.293 472.182,127.185 477.068,128.156 C 482.172,129.17 486.047,133.664 488.027,138.779 C 491.832,148.643 484.002,162.154 473.739,158.423 C 473.739,158.423 481.596,170.745 498.018,160.111 L 500.145,163.664 C 503.536,168.122 507.616,170.902 513.363,170.902 C 532.332,170.902 540.301,148.518 540.301,148.518 C 517.914,155.226 512.833,142.912 510.327,124.874 z"
       id="path2667"
       style="stroke:#ffffff;stroke-width:3;stroke-linecap:round;stroke-linejoin:round" />
    <path
       d="M 1.4999929,367 L 1.4999929,460.375 C 1.4999929,626.689 135.814,761.5 301.5,761.5 C 467.188,761.5 601.5,626.687 601.5,460.375 L 601.5,367 L 1.4999929,367 L 1.4999929,367 z"
       id="path1892"
       style="fill:#e20909" />
    <path
       style="stroke:#ffffff;stroke-width:3;stroke-linecap:round;stroke-linejoin:round"
       id="path2716"
       d="M 296.596,224.388 C 296.596,224.388 264.322,213.164 246.604,209.068 C 239.027,212.487 226.674,245.672 226.674,245.672 C 213.931,251.679 212.476,254.991 203.481,261.37 C 187.679,272.573 169.796,272.277 152.643,279.125 C 148.541,280.764 144.671,282.659 141.051,284.527 C 115.554,288.283 118.97,268.206 120.155,258.938 C 121.339,249.668 108.6,245.407 96.180992,253.726 C 83.160992,262.448 95.176992,272.745 95.176992,272.745 C 95.176992,272.745 100.32599,279.221 95.649992,284.829 C 90.971992,290.439 84.022992,289.114 84.022992,289.114 C 81.298992,290.698 79.606992,296.481 80.754992,301.455 C 82.910992,310.81 95.824992,306.383 103.679,305.237 C 111.531,304.095 109.747,315.035 103.227,319.542 C 97.668992,323.386 97.555992,329.86 105.276,330.716 C 112.999,331.567 120.23,326.163 127.466,320.759 C 134.7,315.353 139.979,328.432 147.777,326.9 C 155.573,325.369 154.146,318.46 155.763,315.058 C 158.756,308.755 168.305,321.764 171.482,323.278 C 182.529,329.579 192.751,327.302 192.751,327.302 C 187.226,324.151 193.765,316.869 193.765,316.869 C 209.192,321.346 218.079,315.702 218.079,315.702 C 212.423,314.546 213.946,307.601 213.946,307.601 C 224.468,313.19 234.293,308.199 234.293,308.199 C 229.185,304.988 230.218,300.486 230.218,300.486 C 241.924,305.504 253.146,301.214 253.146,301.214 C 246.833,301.342 246.187,294.206 246.187,294.206 C 246.187,294.206 257.704,299.272 262.814,294.427 C 253.916,288.262 261.603,285.384 263.926,284.438 C 265.481,283.832 271.348,283.368 277.649,280.333 C 280.965,278.735 285.543,276.456 288.534,273.038 C 290.892,270.34 289.703,266.864 291.227,262.591 C 292.726,258.393 295.82,253.398 295.982,247.308 L 296.154,240.873 C 296.283,236.046 302.323,226.87 302.323,226.87 L 296.596,224.388 z" />
    <path
       style="fill:none;stroke:#ffffff;stroke-width:3;stroke-linecap:round;stroke-linejoin:round"
       id="path2135_1_"
       d="M 141.048,284.526 C 129.533,290.474 120.572,296.123 114.853,292.14 C 107.339,286.906 115.296,280.168 111.658,275.994 C 105.341,268.74 95.172992,272.743 95.172992,272.743" />
    <path
       style="fill:#ffffff;stroke:#000000;stroke-width:3;stroke-linecap:round;stroke-linejoin:round"
       id="path2163_1_"
       d="M 81.392992,252.25 C 81.392992,252.25 93.755992,245.757 98.16499,255.021 C 98.16499,255.021 102.018,260.456 109.645,259.347 C 114.55,258.631 116.793,254.918 116.238,251.088 C 116.238,251.088 116.06,242.704 101.346,241.618 C 90.653992,240.829 81.392992,252.25 81.392992,252.25 z" />
    <path
       style="fill:#ffffff;stroke:#000000;stroke-width:3;stroke-linecap:round;stroke-linejoin:round"
       id="path2165_1_"
       d="M 64.201992,293.311 C 64.201992,293.311 66.530992,274.974 84.442992,271.621 C 93.102992,270.001 98.50099,274.527 98.50099,274.527 C 98.50099,274.527 106.338,279.072 99.65199,288.176 C 96.866992,291.971 88.976992,291.294 88.976992,291.294 C 88.976992,291.294 83.969992,286.916 77.681992,288.246 C 69.856992,289.906 64.201992,293.311 64.201992,293.311 z" />
    <path
       style="fill:#ffffff;stroke:#000000;stroke-width:3;stroke-linecap:round;stroke-linejoin:round"
       id="path2167_1_"
       d="M 89.214992,340.308 C 89.214992,340.308 80.585992,335.241 82.103992,324.362 C 83.737992,312.653 93.635992,304.952 106.663,303.841 C 111.604,303.811 113.808,309.483 111.455,313.834 C 108.561,319.182 103.245,320.502 103.245,320.502 C 103.245,320.502 87.945992,322.992 89.214992,340.308 z" />
    <path
       style="fill:#ffffff;stroke:#000000;stroke-width:3;stroke-linecap:round;stroke-linejoin:round"
       id="path2169_1_"
       d="M 128.845,312.866 C 121.762,313.898 105.96,333.401 128.277,351.01 C 128.277,351.01 124.057,327.617 137.528,322.811 C 141.23,321.491 139.471,311.318 128.845,312.866 z" />
    <path
       style="fill:#e20909;stroke:#000000;stroke-width:3;stroke-linecap:round;stroke-linejoin:round"
       id="path2638"
       d="M 327.513,113.27 C 327.513,113.27 271.097,108.166 251.673,106.126 C 232.25,104.084 224.159,96.979001 225.436,84.838001 C 226.713,72.697001 241.113,63.286001 251.315,67.493001 C 252.758,68.087001 239.201,82.330001 248.033,92.022001 C 256.863,101.712 307.571,105.625 328.09,107.781 L 327.513,113.27 z" />
    <path
       style="fill:#ffffff;stroke:#000000;stroke-width:3;stroke-linecap:round;stroke-linejoin:round"
       id="path2640"
       d="M 286.596,90.119001 C 286.596,90.119001 284.237,96.241001 289.481,100.067 C 289.481,100.067 293.309,93.329001 292.275,89.739001 L 289.957,87.179001 L 286.596,90.119001 z" />
    <path
       style="fill:#ffffff;stroke:#000000;stroke-width:3;stroke-linecap:round;stroke-linejoin:round"
       id="path2642"
       d="M 287.106,121.275 C 287.106,121.275 285.844,116.965 290.474,113.367 C 290.474,113.367 293.512,117.581 291.821,122.264 L 289.021,123.329 L 287.106,121.275 z" />
    <path
       style="stroke:#ffffff;stroke-width:3;stroke-linecap:round;stroke-linejoin:round"
       id="path2689"
       d="M 414.211,186.398 C 416.175,178.814 416.095,168.279 415.184,157.865 C 414.674,149.574 428.971,147.875 428.971,147.875 C 417.858,147.875 412.685,137.245 410.885,128.711 C 409.906,123.778 409.59,122.515 409.59,122.515 C 408.649,116.682 412.205,113.935 415.997,114.686 C 419.792,115.437 423.819,119.69 423.819,119.69 C 423.819,87.230001 402.644,85.439001 402.644,85.439001 C 413.304,85.016001 420.278,65.634001 406.06,55.294001 C 399.515,50.535001 394.125,50.147001 389.956,51.497001 C 390.682,48.844001 390.318,45.855001 388.85,42.527001 C 384.941,33.698001 368.578,29.058001 361.12,34.861001 C 353.054,41.137001 356.709,48.745001 356.709,48.745001 C 351.491,48.358001 346.146,48.217001 341.48,47.318001 C 323.846,43.920001 319.429,53.635001 313.082,58.575001 C 306.728,63.516001 298.893,61.359001 288.237,63.177001 C 277.584,64.997001 280.493,76.666001 281.501,75.882001 C 285.938,72.430001 286.629,76.421001 286.629,76.421001 C 277.937,76.932001 279.875,91.378001 287.639,90.296001 C 295.408,89.213001 319.568,89.049001 317.454,109.124 C 315.347,129.2 286.724,120.85 286.724,120.85 C 286.724,120.85 283.807,121.61 283.081,123.789 C 279.605,134.267 287.849,136.574 287.849,136.574 C 289.392,130.684 304.037,135.784 317.225,137.169 C 330.411,138.556 334.838,134.711 334.838,134.711 C 330.388,139.991 324.012,145.912 314.991,151.357 C 310.512,154.061 302.738,155.07 296.352,154.921 C 250.573,154.921 233.504,127.956 233.504,127.956 C 226.881,148.312 235.099,164.385 235.099,164.385 C 207.082,174.516 202.578,192.902 202.578,192.902 C 210.583,200.907 225.259,199.529 225.259,199.529 C 204.746,210.747 215.999,226.52 203.033,239.72 C 198.631,244.201 192.924,247.666 185.401,249.104 C 192.992,255.989 211.75,258.442 237.099,238.431 C 241.669,253.774 229.094,268.867 238.1,286.211 C 245.771,273.87 249.607,262.279 263.449,258.777 C 267.118,281.457 284.087,297.851 289.132,300.469 C 286.131,273.119 302.974,263.615 302.974,263.615 C 302.974,263.615 311.48,290.798 328.49,304.14 C 335.828,282.46 348.837,272.12 348.837,272.12 C 355.174,287.463 373.021,290.631 373.021,290.631 C 369.184,261.279 379.858,249.272 379.858,249.272 C 384.694,263.781 403.206,263.447 403.206,263.447 C 397.443,256.61 394.915,241.289 399.847,222.579 C 402.467,211.947 399.953,207.037 399.953,207.037 C 404.956,218.044 422.22,213.416 422.22,213.416 C 422.22,213.416 409.533,205.345 414.211,186.398 z" />
    <path
       style="fill:none;stroke:#ffffff;stroke-width:3;stroke-linecap:round;stroke-linejoin:round"
       id="path2650"
       d="M 334.837,134.711 C 342.284,125.874 344.331,118.832 344.331,118.832" />
    <path
       style="fill:none;stroke:#ffffff;stroke-width:3;stroke-linecap:round;stroke-linejoin:round"
       id="path2652"
       d="M 356.706,48.746001 C 366.644,49.482001 376.128,51.114001 379.586,60.581001 C 379.586,60.581001 383.138,53.708001 389.958,51.497001" />
    <path
       style="fill:none;stroke:#ffffff;stroke-width:3;stroke-linecap:round;stroke-linejoin:round"
       id="path2654"
       d="M 388.948,67.798001 C 388.948,67.798001 393.372,59.182001 402.56,63.352001" />
    <path
       style="fill:none;stroke:#ffffff;stroke-width:3;stroke-linecap:round;stroke-linejoin:round"
       id="path2656"
       d="M 333.135,59.588001 C 333.135,59.588001 347.553,58.077001 351.558,60.457001 C 355.571,62.834001 355.365,64.772001 360.128,65.273001" />
    <path
       style="fill:#ffffff"
       id="path2658"
       d="M 337.128,65.205001 C 337.128,65.205001 342.232,61.223001 347.016,66.243001 C 350.486,69.884001 351.924,72.772001 354.329,75.557001 C 354.329,75.557001 341.351,76.470001 337.53,71.940001 C 335.489,69.519001 337.128,65.205001 337.128,65.205001 z" />
    <path
       style="fill:none;stroke:#ffffff;stroke-width:3;stroke-linecap:round;stroke-linejoin:round"
       id="path2696"
       d="M 264.118,164.719 C 264.118,164.719 244.666,160.184 235.1,164.386" />
    <path
       style="fill:none;stroke:#ffffff;stroke-width:3;stroke-linecap:round;stroke-linejoin:round"
       id="path2698"
       d="M 247.108,201.408 C 247.108,201.408 233.767,196.316 225.261,199.529" />
    <path
       style="fill:none;stroke:#ffffff;stroke-width:3;stroke-linecap:round;stroke-linejoin:round"
       id="path2700"
       d="M 237.102,238.431 C 234.768,225.589 244.44,220.42 244.44,220.42" />
    <path
       style="fill:none;stroke:#ffffff;stroke-width:3;stroke-linecap:round;stroke-linejoin:round"
       id="path2702"
       d="M 267.788,233.427 C 267.788,233.427 261.784,246.936 263.452,258.777" />
    <path
       style="fill:none;stroke:#ffffff;stroke-width:3;stroke-linecap:round;stroke-linejoin:round"
       id="path2704"
       d="M 302.392,226.423 C 302.392,226.423 297.555,243.768 302.976,263.613" />
    <path
       style="fill:none;stroke:#ffffff;stroke-width:3;stroke-linecap:round;stroke-linejoin:round"
       id="path2706"
       d="M 342.917,230.926 C 342.917,230.926 341.251,254.274 348.837,272.118" />
    <path
       style="fill:none;stroke:#ffffff;stroke-width:3;stroke-linecap:round;stroke-linejoin:round"
       id="path2708"
       d="M 378.189,215.916 C 380.941,223.922 374.771,235.345 379.857,249.27" />
    <path
       style="fill:none;stroke:#ffffff;stroke-width:3;stroke-linecap:round;stroke-linejoin:round"
       id="path2710"
       d="M 398.032,185.731 C 396.198,194.07 396.532,198.99 399.95,207.036" />
    <circle
       id="circle2740"
       sodipodi:cy="69.195"
       sodipodi:cx="341.388"
       sodipodi:ry="2.25"
       sodipodi:rx="2.25"
       cx="341.388"
       cy="69.195"
       r="2.25"
       transform="translate(-3.80071e-2,-4.5e-2)">
		</circle>
    <path
       style="fill:#5ab532"
       id="path2598"
       d="M 426.836,612.005 C 397.309,612.005 369.714,637.915 341.926,657.628 C 314.139,677.341 301.499,663.306 301.499,663.306 C 301.499,663.306 288.861,677.341 261.073,657.628 C 233.285,637.915 205.69,612.005 176.164,612.005 C 152.085,612.005 124.583,631.015 124.583,669.034 C 124.583,678.139 126.301,692.165 130.923,708.216 C 179.357,741.882 238.127,761.624 301.499,761.624 C 364.871,761.624 423.643,741.882 472.075,708.218 C 476.697,692.165 478.415,678.142 478.415,669.034 C 478.415,631.015 450.913,612.005 426.836,612.005 z" />
    <path
       style="fill:none;stroke:#000000;stroke-width:3"
       id="path2600"
       d="M 472.075,708.218 C 476.697,692.165 478.415,678.142 478.415,669.034 C 478.415,631.013 450.913,612.005 426.836,612.005 C 397.309,612.005 369.714,637.915 341.926,657.628 C 314.139,677.341 301.499,663.306 301.499,663.306 C 301.499,663.306 288.861,677.341 261.073,657.628 C 233.285,637.915 205.69,612.005 176.164,612.005 C 152.085,612.005 124.583,631.015 124.583,669.034 C 124.583,678.139 126.301,692.165 130.923,708.216" />
    <path
       style="fill:#5ab532;stroke:#000000;stroke-width:3"
       id="path2602"
       d="M 369.935,633.55 C 369.935,595.755 339.295,565.114 301.499,565.114 C 263.705,565.114 233.064,595.755 233.064,633.55 C 233.064,671.345 286.797,761.499 301.499,761.499 C 316.2,761.499 369.935,671.345 369.935,633.55 z" />
    <polygon
       points="164.41,430.222 142.552,419.874 130.174,446.015 167.081,463.49 170.306,456.679 145.701,445.031 150.276,435.365 213.984,465.529 209.408,475.195 184.804,463.544 181.58,470.355 218.485,487.83 230.863,461.687 209.005,451.337 214.985,438.707 170.391,417.591 164.41,430.222 "
       id="polygon2753"
       style="fill:#ffffff;stroke:#000000;stroke-width:3"
       transform="translate(-3.80071e-2,-4.5e-2)" />
    <path
       d="M 152.763,392.678 L 369.665,495.378 L 360.637,514.446 L 143.733,411.746 C 143.733,411.746 140.623,410.274 142.095,407.164 C 143.228,404.769 146.707,397.424 148.179,394.314 C 149.65,391.205 152.763,392.678 152.763,392.678 z"
       id="path2755"
       style="fill:#ffffff;stroke:#000000;stroke-width:3" />
    <path
       d="M 135.446,388.559 C 132.002,391.477 129.068,392.184 128.701,392.958 C 128.334,393.732 129.647,396.45 129.572,400.964 C 129.463,407.514 138.609,409.328 140.246,408.711 C 141.883,408.094 143.45,405.439 145.576,400.948 C 147.702,396.457 148.764,393.563 148.203,391.905 C 147.645,390.249 140.444,384.323 135.446,388.559 z"
       id="path2757"
       style="fill:#ffffff;stroke:#000000;stroke-width:3" />
    <path
       d="M 375.171,493.413 C 373.108,492.434 370.643,493.315 369.664,495.38 L 360.638,514.446 C 359.66,516.509 360.54,518.971 362.605,519.95 L 363.407,520.331 C 365.47,521.308 367.934,520.427 368.912,518.362 L 377.94,499.298 C 378.918,497.235 378.036,494.771 375.972,493.792 L 375.171,493.413 z"
       id="path2759"
       style="fill:#ffffff;stroke:#000000;stroke-width:3" />
    <path
       d="M 393.397,502.042 C 391.334,501.065 388.87,501.944 387.892,504.009 L 378.865,523.075 C 377.888,525.138 378.768,527.602 380.831,528.579 L 381.634,528.96 C 383.697,529.937 386.162,529.056 387.141,526.991 L 396.168,507.925 C 397.145,505.862 396.264,503.4 394.198,502.421 L 393.397,502.042 z"
       id="path2761"
       style="fill:#ffffff;stroke:#000000;stroke-width:3" />
    <path
       d="M 386.025,493.837 C 383.544,492.661 380.509,493.866 379.248,496.53 L 367.602,521.13 C 366.34,523.79 367.331,526.901 369.813,528.077 L 370.776,528.534 C 373.257,529.708 376.294,528.503 377.552,525.841 L 389.198,501.241 C 390.46,498.579 389.469,495.468 386.987,494.292 L 386.025,493.837 z"
       id="path2763"
       style="fill:#ffffff;stroke:#000000;stroke-width:3" />
    <ellipse
       ry="12.25"
       rx="10.45"
       cy="555.42603"
       cx="471.785"
       transform="matrix(-0.9038,-0.4279,0.4279,-0.9038,660.4939,1259.2663)"
       sodipodi:rx="10.45"
       sodipodi:ry="12.25"
       sodipodi:cx="471.785"
       sodipodi:cy="555.42603"
       id="ellipse2765"
       style="fill:#ffffff;stroke:#000000;stroke-width:3">
			</ellipse>
    <ellipse
       ry="12.251"
       rx="10.452"
       cy="491.371"
       cx="448.883"
       transform="matrix(-0.4279,0.9038,-0.9038,-0.4279,1085.0282,295.845)"
       sodipodi:rx="10.452"
       sodipodi:ry="12.251"
       sodipodi:cx="448.883"
       sodipodi:cy="491.371"
       id="ellipse2767"
       style="fill:#ffffff;stroke:#000000;stroke-width:3">
			</ellipse>
    <ellipse
       ry="12.251"
       rx="10.451"
       cy="578.35797"
       cx="407.71301"
       transform="matrix(-0.4279,0.9038,-0.9038,-0.4279,1104.8708,457.2898)"
       sodipodi:rx="10.451"
       sodipodi:ry="12.251"
       sodipodi:cx="407.71301"
       sodipodi:cy="578.35797"
       id="ellipse2769"
       style="fill:#ffffff;stroke:#000000;stroke-width:3">
			</ellipse>
    <path
       d="M 437.283,492.63 L 396.51,507.2 L 386.794,527.718 L 401.363,568.493 L 419.26,576.966 L 461.968,561.708 L 470.44,543.812 L 455.178,501.101 L 437.283,492.63 z M 445.792,525.06 C 444.629,527.519 442.565,529.285 440.119,530.218 L 440.34,530.831 C 442.824,530.005 445.537,530.065 447.997,531.227 C 453.362,533.768 455.474,540.545 452.717,546.372 C 449.959,552.196 443.376,554.858 438.012,552.319 C 435.552,551.155 433.785,549.092 432.852,546.645 L 432.241,546.866 C 433.065,549.35 433.008,552.065 431.843,554.522 C 429.303,559.885 422.525,562.001 416.698,559.243 C 410.873,556.485 408.213,549.901 410.752,544.538 C 411.916,542.079 413.978,540.311 416.425,539.376 L 416.205,538.767 C 413.722,539.593 411.009,539.535 408.549,538.369 C 403.185,535.83 401.071,529.051 403.829,523.224 C 406.588,517.402 413.171,514.74 418.534,517.279 C 420.992,518.443 422.758,520.504 423.694,522.949 L 424.305,522.732 C 423.479,520.246 423.536,517.535 424.701,515.074 C 427.241,509.711 434.02,507.597 439.847,510.355 C 445.67,513.113 448.331,519.697 445.792,525.06 z"
       id="path2771"
       style="fill:#ffffff;stroke:#000000;stroke-width:3" />
    <polygon
       points="438.664,430.222 460.521,419.874 472.898,446.015 435.992,463.49 432.769,456.679 457.373,445.031 452.797,435.365 389.089,465.529 393.667,475.195 418.27,463.544 421.493,470.355 384.588,487.83 372.21,461.687 394.067,451.337 388.088,438.707 432.683,417.591 438.664,430.222 "
       id="polygon2775"
       style="fill:#ffffff;stroke:#000000;stroke-width:3"
       transform="translate(-3.80071e-2,-4.5e-2)" />
    <path
       d="M 450.234,392.678 L 233.331,495.378 L 242.36,514.446 L 459.263,411.745 C 459.263,411.745 462.373,410.273 460.902,407.163 C 459.768,404.768 456.292,397.423 454.817,394.313 C 453.346,391.205 450.234,392.678 450.234,392.678 z"
       id="path2777"
       style="fill:#ffffff;stroke:#000000;stroke-width:3" />
    <path
       d="M 467.551,388.559 C 470.994,391.477 473.93,392.184 474.295,392.958 C 474.662,393.732 473.35,396.45 473.425,400.964 C 473.533,407.514 464.387,409.328 462.751,408.711 C 461.112,408.094 459.548,405.439 457.42,400.948 C 455.294,396.457 454.232,393.563 454.793,391.905 C 455.353,390.249 462.554,384.323 467.551,388.559 z"
       id="path2779"
       style="fill:#ffffff;stroke:#000000;stroke-width:3" />
    <path
       d="M 227.827,493.413 C 229.891,492.434 232.356,493.315 233.333,495.38 L 242.36,514.446 C 243.337,516.509 242.457,518.971 240.393,519.95 L 239.592,520.331 C 237.529,521.308 235.064,520.427 234.087,518.362 L 225.06,499.298 C 224.083,497.235 224.964,494.771 227.026,493.792 L 227.827,493.413 z"
       id="path2781"
       style="fill:#ffffff;stroke:#000000;stroke-width:3" />
    <path
       d="M 209.601,502.042 C 211.664,501.065 214.129,501.944 215.106,504.009 L 224.133,523.075 C 225.11,525.138 224.23,527.602 222.167,528.579 L 221.365,528.96 C 219.302,529.937 216.836,529.056 215.86,526.991 L 206.833,507.925 C 205.855,505.862 206.737,503.4 208.8,502.421 L 209.601,502.042 z"
       id="path2783"
       style="fill:#ffffff;stroke:#000000;stroke-width:3" />
    <path
       d="M 216.973,493.837 C 219.455,492.661 222.489,493.866 223.75,496.53 L 235.396,521.13 C 236.656,523.79 235.667,526.901 233.185,528.077 L 232.222,528.534 C 229.74,529.708 226.704,528.503 225.445,525.841 L 213.798,501.241 C 212.537,498.579 213.527,495.468 216.009,494.292 L 216.973,493.837 z"
       id="path2785"
       style="fill:#ffffff;stroke:#000000;stroke-width:3" />
    <ellipse
       ry="12.252"
       rx="10.451"
       cy="555.45203"
       cx="131.259"
       transform="matrix(-0.9038,0.4279,-0.4279,-0.9038,487.5275,1001.2774)"
       sodipodi:rx="10.451"
       sodipodi:ry="12.252"
       sodipodi:cx="131.259"
       sodipodi:cy="555.45203"
       id="ellipse2787"
       style="fill:#ffffff;stroke:#000000;stroke-width:3">
			</ellipse>
    <ellipse
       ry="12.251"
       rx="10.451"
       cy="491.34698"
       cx="154.151"
       transform="matrix(-0.4279,-0.9038,0.9038,-0.4279,-224.0039,840.8905)"
       sodipodi:rx="10.451"
       sodipodi:ry="12.251"
       sodipodi:cx="154.151"
       sodipodi:cy="491.34698"
       id="ellipse2789"
       style="fill:#ffffff;stroke:#000000;stroke-width:3">
			</ellipse>
    <ellipse
       ry="12.25"
       rx="10.452"
       cy="578.32898"
       cx="195.351"
       transform="matrix(-0.4279,-0.9038,0.9038,-0.4279,-243.7963,1002.3227)"
       sodipodi:rx="10.452"
       sodipodi:ry="12.25"
       sodipodi:cx="195.351"
       sodipodi:cy="578.32898"
       id="ellipse2791"
       style="fill:#ffffff;stroke:#000000;stroke-width:3">
			</ellipse>
    <path
       d="M 147.817,501.101 L 132.555,543.812 L 141.027,561.708 L 183.735,576.966 L 201.633,568.493 L 216.204,527.718 L 206.488,507.2 L 165.712,492.63 L 147.817,501.101 z M 163.537,511.165 C 169.168,508.499 175.723,510.542 178.178,515.728 C 179.304,518.107 179.362,520.726 178.563,523.13 L 179.153,523.341 C 180.059,520.976 181.766,518.986 184.143,517.861 C 189.328,515.404 195.694,517.978 198.359,523.609 C 201.026,529.24 198.983,535.795 193.798,538.25 C 191.42,539.377 188.796,539.436 186.393,538.635 L 186.182,539.225 C 188.548,540.131 190.541,541.838 191.668,544.215 C 194.122,549.403 191.549,555.768 185.917,558.434 C 180.286,561.098 173.731,559.057 171.276,553.871 C 170.151,551.492 170.094,548.869 170.891,546.467 L 170.3,546.256 C 169.396,548.621 167.689,550.613 165.311,551.74 C 160.125,554.193 153.761,551.621 151.094,545.99 C 148.428,540.357 150.47,533.802 155.656,531.347 C 158.034,530.222 160.657,530.163 163.06,530.962 L 163.271,530.368 C 160.906,529.466 158.914,527.759 157.787,525.382 C 155.332,520.197 157.904,513.831 163.537,511.165 z"
       id="path2793"
       style="fill:#ffffff;stroke:#000000;stroke-width:3" />
    <line
       y2="367.00003"
       x2="601.49805"
       y1="367.00003"
       x1="1.4999927"
       id="path6594"
       style="fill:none;stroke:#000000;stroke-width:3" />
  </g>
  <g
     inkscape:groupmode="layer"
     id="layer3"
     inkscape:label="Reflet final"
     style="display:inline"
     sodipodi:insensitive="true">
    <path
       style="fill:url(#radialGradient3236);fill-opacity:1"
       d="M 1.5,1.5 L 1.5,460.3679 C 1.5,626.67854 135.81454,761.5 301.49993,761.5 C 467.1854,761.5 601.5,626.67854 601.5,460.3679 L 601.5,1.5 L 1.5,1.5 z "
       id="path2346" />
  </g>
  <g
     inkscape:groupmode="layer"
     id="layer4"
     inkscape:label="Contour final"
     style="display:inline"
     sodipodi:insensitive="true">
    <path
       style="fill:none;fill-opacity:1;stroke:#000000;stroke-width:3;stroke-miterlimit:4;stroke-dasharray:none;stroke-opacity:1"
       d="M 1.5,1.5 L 1.5,460.36794 C 1.5,626.67854 135.81454,761.5 301.49993,761.5 C 467.1854,761.5 601.5,626.67854 601.5,460.36794 L 601.5,1.5 L 1.5,1.5 z "
       id="path3239" />
  </g>
</svg>
