<?xml version="1.0" encoding="UTF-8" standalone="no"?>
<svg
   xmlns:dc="http://purl.org/dc/elements/1.1/"
   xmlns:cc="http://web.resource.org/cc/"
   xmlns:rdf="http://www.w3.org/1999/02/22-rdf-syntax-ns#"
   xmlns:svg="http://www.w3.org/2000/svg"
   xmlns="http://www.w3.org/2000/svg"
   xmlns:xlink="http://www.w3.org/1999/xlink"
   xmlns:sodipodi="http://sodipodi.sourceforge.net/DTD/sodipodi-0.dtd"
   xmlns:inkscape="http://www.inkscape.org/namespaces/inkscape"
   height="763"
   width="603"
   version="1.0"
   id="svg20"
   sodipodi:version="0.32"
   inkscape:version="0.45.1"
   sodipodi:docname="Bönigen-coat of arms.svg"
   sodipodi:docbase="C:\Users\Camilo\Documents\Escudos de Suiza\escudos prestados"
   inkscape:output_extension="org.inkscape.output.svg.inkscape">
  <metadata
     id="metadata31">
    <rdf:RDF>
      <cc:Work
         rdf:about="">
        <dc:format>image/svg+xml</dc:format>
        <dc:type
           rdf:resource="http://purl.org/dc/dcmitype/StillImage" />
        <dc:date>07-AUG-2006</dc:date>
        <dc:creator>
          <cc:Agent>
            <dc:title>Jérôme BLUM (wagner51)</dc:title>
          </cc:Agent>
        </dc:creator>
        <cc:license
           rdf:resource="http://creativecommons.org/licenses/GPL/2.0/" />
        <dc:coverage />
        <dc:description>Gabarit pour le Projet:Blasons de WIkipédia</dc:description>
        <dc:subject>
          <rdf:Bag>
            <rdf:li>blason suisse modèle gabarit projet blasons</rdf:li>
          </rdf:Bag>
        </dc:subject>
        <dc:language>fr</dc:language>
        <dc:title>Gabrit d'un blason suisse</dc:title>
      </cc:Work>
      <cc:License
         rdf:about="http://creativecommons.org/licenses/GPL/2.0/">
        <cc:permits
           rdf:resource="http://web.resource.org/cc/Reproduction" />
        <cc:permits
           rdf:resource="http://web.resource.org/cc/Distribution" />
        <cc:requires
           rdf:resource="http://web.resource.org/cc/Notice" />
        <cc:permits
           rdf:resource="http://web.resource.org/cc/DerivativeWorks" />
        <cc:requires
           rdf:resource="http://web.resource.org/cc/ShareAlike" />
        <cc:requires
           rdf:resource="http://web.resource.org/cc/SourceCode" />
      </cc:License>
    </rdf:RDF>
  </metadata>
  <defs
     id="defs29">
    <linearGradient
       id="linearGradient2893">
      <stop
         style="stop-color:#ffffff;stop-opacity:0.3137255;"
         offset="0"
         id="stop2895" />
      <stop
         id="stop2897"
         offset="0.19"
         style="stop-color:#ffffff;stop-opacity:0.25098041;" />
      <stop
         style="stop-color:#6b6b6b;stop-opacity:0.1254902;"
         offset="0.60000002"
         id="stop2901" />
      <stop
         style="stop-color:#000000;stop-opacity:0.1254902;"
         offset="1"
         id="stop2899" />
    </linearGradient>
    <linearGradient
       id="linearGradient2955">
      <stop
         style="stop-color:white;stop-opacity:0;"
         offset="0"
         id="stop2965" />
      <stop
         style="stop-color:black;stop-opacity:0.64583331;"
         offset="1"
         id="stop2959" />
    </linearGradient>
    <radialGradient
       inkscape:collect="always"
       xlink:href="#linearGradient2893"
       id="radialGradient3236"
       gradientUnits="userSpaceOnUse"
       gradientTransform="matrix(1.215027,1.531577e-24,1.464684e-23,1.266667,-839.1924,-490.4894)"
       cx="858.04236"
       cy="579.93323"
       fx="858.04236"
       fy="579.93323"
       r="300" />
  </defs>
  <sodipodi:namedview
     inkscape:window-height="750"
     inkscape:window-width="1280"
     inkscape:pageshadow="2"
     inkscape:pageopacity="0.0"
     guidetolerance="10.0"
     gridtolerance="10.0"
     objecttolerance="10.0"
     borderopacity="1.0"
     bordercolor="#666666"
     pagecolor="#ffffff"
     id="base"
     inkscape:zoom="0.54981264"
     inkscape:cx="596.35819"
     inkscape:cy="385.70088"
     inkscape:window-x="-8"
     inkscape:window-y="-8"
     inkscape:current-layer="layer2"
     showgrid="true"
     showguides="true"
     inkscape:guide-bbox="true" />
  <desc
     id="desc22">Coat of Arms of Canton of Freiburg (Fribourg)</desc>
  <g
     inkscape:groupmode="layer"
     id="layer1"
     inkscape:label="Fond écu"
     sodipodi:insensitive="true">
    <path
       id="path1899"
       d="M 1.5,1.49998 L 1.5,460.3679 C 1.5,626.6785 135.81456,761.5 301.49999,761.5 C 467.18543,761.5 601.5,626.6785 601.5,460.3679 L 601.5,1.49998 L 1.5,1.49998 z "
       style="fill:#ffffff;fill-opacity:1" />
  </g>
  <g
     inkscape:groupmode="layer"
     id="layer2"
     inkscape:label="Meubles"
     sodipodi:insensitive="true">
    <rect
       style="fill:#fcef3c;fill-opacity:1;fill-rule:evenodd;stroke:#000000;stroke-width:2.99999976;stroke-miterlimit:4;stroke-dasharray:none;stroke-opacity:1"
       id="rect7513"
       width="600"
       height="376.99997"
       x="1.4999999"
       y="1.4999999" />
    <g
       id="g7501"
       transform="matrix(1,0,0,1.2348781,-0.97977,-11.213544)">
      <path
         sodipodi:nodetypes="cccccscccsccccsccccccccccccccsccccccccccccccsccccccccccccccccsccscccsccccccccc"
         id="path18653"
         d="M 356.53611,272.22202 C 319.24106,271.68562 322.16796,253.28598 317.31555,226.84661 L 357.31745,256.12216 L 368.31557,251.51084 L 396.23158,264.38246 C 385.70397,271.82685 373.90993,278.29674 373.12863,288.50134 C 372.76315,293.27438 382.28281,300.72373 394.20618,295.48144 C 382.65483,278.17975 401.98808,272.1213 408.83008,268.04806 C 419.45128,279.52245 448.22408,284.36897 437.06238,296.07735 C 447.76798,300.03828 451.70828,297.88214 452.84748,288.86046 C 454.49408,275.81987 432.89428,276.67224 424.77248,269.04027 C 436.50928,266.46203 471.00068,266.31407 464.31488,285.14361 C 490.71258,255.71633 442.14218,258.23895 418.96788,259.47721 C 431.75818,251.04106 444.54838,244.26546 457.33858,251.6707 C 465.27778,240.78329 457.13178,236.38247 446.34038,234.3144 C 435.92068,232.31757 413.58148,252.57889 407.18098,256.99449 L 379.89081,244.79438 L 388.43414,236.52526 L 326.34601,206.14216 C 329.70742,196.03047 328.73036,182.01414 345.81874,184.2567 C 380.80244,201.17299 385.90101,255.79101 435.73948,223.84015 C 413.39568,210.77861 410.64788,203.97296 401.71728,187.12233 C 441.06458,195.73894 534.86158,313.5932 580.98648,247.52455 C 527.39828,239.70181 476.40028,193.46092 436.61518,159.71792 C 478.71658,179.50754 562.23338,233.84137 581.25388,171.81483 C 553.36248,180.1678 477.57378,144.15099 452.57088,127.73556 C 488.11308,132.09527 577.01838,163.25916 580.92538,105.19991 C 556.36338,115.18343 493.59718,106.32369 462.00208,94.706708 C 498.17578,85.890968 577.09758,101.34692 581.59128,43.458114 C 548.47118,65.318848 428.10458,44.264531 388.79033,53.515148 C 355.07746,61.447748 363.48059,100.72557 394.76218,98.485538 C 395.87098,123.89191 384.77218,151.29211 335.32882,150.64965 C 330.96991,144.46667 332.95777,141.83499 324.2208,142.65683 C 329.05903,121.82853 337.81547,134.88029 336.09902,105.04678 C 342.86128,104.40804 352.60668,103.55318 357.40399,94.099578 L 334.13024,92.785558 L 276.1851,92.785558 C 261.16992,91.629318 244.81844,87.961318 253.29209,113.09837 C 262.22214,98.803778 284.66596,103.15187 282.4311,125.1986 L 263.4279,127.0108 C 270.98523,145.22825 286.87695,126.69075 294.85979,132.10601 C 295.84919,138.4781 288.4623,134.19564 289.01449,145.06951 C 281.68834,145.38347 271.60094,141.88259 269.02574,154.59619 C 214.69035,146.38485 200.65287,120.93461 212.86412,96.951788 C 232.58407,96.673328 246.87982,59.159958 211.49133,54.718188 C 178.23293,50.543788 64.91003,57.367458 29.55977,36.770463 C 42.54566,97.867068 102.78609,84.958578 148.0504,93.614658 C 119.09774,101.53992 55.46188,114.60539 24.29928,97.689778 C 41.15872,155.98117 112.29113,130.47947 152.32757,133.43774 C 123.17162,140.95072 55.20806,174.58819 25.1761,167.20911 C 50.9631,230.6952 126.19647,165.68342 158.58463,167.72184 C 136.13375,186.17188 56.75379,241.34646 23.36826,239.67829 C 58.59444,308.65152 168.20722,185.9078 201.17346,186.65953 C 188.26421,201.65616 187.96455,212.64903 159.15625,223.72812 C 199.71255,257.77903 232.36094,200.52272 262.3925,180.74532 C 273.46787,188.53011 275.48454,191.13122 276.47698,205.4807 C 257.49626,223.8609 230.99383,224.6904 208.07975,233.89278 L 219.0945,240.9589 L 186.36971,257.10547 C 168.86199,254.4342 144.10341,210.37221 130.87391,248.17931 C 146.86948,241.28524 164.12429,252.16504 173.82338,260.22509 C 166.79865,261.31073 146.40951,260.23567 134.9084,258.11547 C 122.59238,255.84502 116.72761,270.85908 130.98489,276.59359 C 134.31882,264.27657 153.76828,271.58357 165.70852,268.65523 C 160.72149,277.45919 143.0503,273.57198 141.23169,283.81693 C 139.95697,290.99768 148.26495,300.52396 156.71244,291.80458 C 146.26363,277.0082 178.72334,280.43729 182.52978,267.44995 C 193.42629,278.84513 211.02483,283.89194 198.58088,294.05423 C 207.83062,297.08758 219.08564,293.65148 217.20204,283.04013 C 216.06215,276.6184 207.87229,272.5228 200.6717,264.76762 L 232.23906,250.26577 L 242.26613,255.35413 L 283.5298,235.5119 C 273.99811,251.51244 283.95923,277.06213 246.23042,272.22202 C 246.38416,297.40238 265.89808,292.76161 284.7372,286.92797 C 291.34043,294.59417 292.32815,296.61332 302.03797,301.79058 C 309.61662,296.1352 310.6874,294.88649 316.04921,286.37974 C 332.31799,292.25881 344.14432,301.25826 356.53611,272.22202 z "
         style="fill:#000000;fill-rule:evenodd;stroke:#000000;stroke-width:2.76979136px;stroke-linecap:butt;stroke-linejoin:miter;stroke-opacity:1" />
      <path
         sodipodi:nodetypes="cc"
         id="path20429"
         d="M 291.03416,133.35985 C 299.98881,122.23492 285.10946,110.67924 279.53838,96.693518"
         style="fill:none;fill-rule:evenodd;stroke:#fcef3c;stroke-width:2.82683444px;stroke-linecap:butt;stroke-linejoin:miter;stroke-opacity:1" />
      <path
         sodipodi:nodetypes="cccccc"
         id="path21316"
         d="M 288.96237,98.460928 L 299.90127,98.460928 C 300.7627,107.98585 303.69965,107.2052 307.81027,106.11751 C 304.84571,104.65485 305.58017,102.07809 306.18389,98.460928 L 320.37558,98.460928 C 322.27301,116.28449 294.94152,127.08629 288.96237,98.460928 z "
         style="fill:#ffffff;fill-rule:evenodd;stroke:#000000;stroke-width:2.82683444px;stroke-linecap:butt;stroke-linejoin:miter;stroke-opacity:1" />
      <path
         sodipodi:nodetypes="cscsc"
         id="path22203"
         d="M 282.45065,121.6792 C 274.95077,114.83605 260.31109,117.20017 249.77498,118.28541 C 237.4646,119.55339 232.04846,110.37638 232.04846,110.37638 C 231.18936,119.5098 236.03022,131.17968 249.77498,124.56803 C 261.64887,118.85632 269.57381,117.85574 282.45065,121.6792 z "
         style="fill:#000000;fill-rule:evenodd;stroke:#000000;stroke-width:2.82683444px;stroke-linecap:butt;stroke-linejoin:miter;stroke-opacity:1" />
      <g
         transform="matrix(3.141322,0,0,3.141322,-1853.419,-1783.19)"
         id="g26639">
        <path
           style="fill:#fcef3c;fill-opacity:1;fill-rule:evenodd;stroke:#000000;stroke-width:0.89988697px;stroke-linecap:butt;stroke-linejoin:miter;stroke-opacity:1"
           d="M 698,597 C 698.96154,592.34714 700.18233,587.77405 704,584 C 700.7319,586.8302 692.31478,586.39936 695,593 L 690,593 L 690,591 C 694.46894,588.48325 689.7475,585.98382 687.5,584 C 684.83205,586.1371 680.52336,588.02236 685,591 L 685,593 L 680,593 C 684.4639,587.98882 675.26139,586.83226 672,584 C 674.20445,588.23555 677.10632,592.34431 677,597 L 698,597 z "
           id="path23090"
           sodipodi:nodetypes="cccccccccccc" />
        <path
           style="opacity:1;fill:#fcef3c;fill-opacity:1;fill-rule:nonzero;stroke:#000000;stroke-width:0.74724036;stroke-linejoin:miter;stroke-miterlimit:4;stroke-dasharray:none;stroke-opacity:1"
           d="M 686.40625,574.40625 L 686.40625,576.46875 L 683.46875,576.46875 L 683.46875,578.53125 L 686.40625,578.53125 L 686.40625,584.59375 L 688.59375,584.59375 L 688.59375,578.53125 L 691.53125,578.53125 L 691.53125,576.46875 L 688.59375,576.46875 L 688.59375,574.40625 L 686.40625,574.40625 z "
           id="rect23979" />
        <path
           style="fill:none;fill-rule:evenodd;stroke:#000000;stroke-width:0.89988697px;stroke-linecap:butt;stroke-linejoin:miter;stroke-opacity:1"
           d="M 675.83254,585.75358 C 682.71589,581.06465 693.36887,581.02775 700.33493,585.75358"
           id="path23977"
           sodipodi:nodetypes="cc" />
      </g>
    </g>
    <g
       id="g8490">
      <path
         id="path4235"
         style="fill:#000000;fill-opacity:1;fill-rule:evenodd;stroke:#ffffff;stroke-width:4.26322174px;stroke-linecap:butt;stroke-linejoin:miter;stroke-opacity:1"
         d="M 438.8963,413.98852 C 468.57735,392.3195 493.40458,418.59032 493.40458,418.59032 C 517.66276,412.37263 532.79786,428.2169 532.25721,444.66132 C 551.99066,442.47655 574.90367,479.39973 543.46113,490.27969 L 530.29189,545.88331 C 526.30267,563.05923 515.11358,573.6037 500.67783,581.15791 C 505.55609,595.78377 483.9126,614.11542 463.20244,611.26063 C 456.80158,636.87728 416.9197,639.19098 394.86978,628.38073 C 528.50551,573.954 506.70127,493.37994 438.8963,413.98852 z " />
      <path
         id="path3259"
         style="fill:#000000;fill-opacity:1;fill-rule:evenodd;stroke:#ffffff;stroke-width:4.26322174px;stroke-linecap:butt;stroke-linejoin:miter;stroke-opacity:1"
         d="M 256.7602,562.43333 L 226.47855,539.40994 C 198.92869,519.93779 209.84309,516.49948 200.46478,504.91873 C 189.07546,490.85468 183.5245,497.95907 166.04017,480.66732 C 155.25175,469.99778 157.434,459.18578 146.51167,448.73608 C 134.04253,436.80652 124.13112,435.14756 124.13112,435.14756 C 105.94081,435.45347 104.6759,446.92718 98.117342,456.41594 C 104.34024,446.62446 105.90851,435.59342 124.13112,435.14756 L 94.874724,389.62778 C 90.779316,399.29174 88.528701,404.29129 87.462953,412.72469 L 111.16057,437.34181 L 87.462953,412.72469 L 71.640355,397.67333 C 69.526896,413.78367 61.314461,434.70897 71.640355,440.99887 L 98.117342,456.41594 L 105.60175,460.86178 L 93.485019,461.59319 L 93.021771,474.4503 C 116.81856,472.20909 125.86732,479.76048 134.39494,488.03884 C 153.78129,506.85855 143.78248,514.31258 152.99694,526.18711 C 166.95603,544.17595 174.17501,534.98782 185.56863,558.48404 C 194.14914,576.17901 203.56322,593.85367 216.58487,607.19571 L 256.7602,562.43333 z " />
      <path
         id="path2287"
         style="fill:#000000;fill-opacity:1;fill-rule:evenodd;stroke:#ffffff;stroke-width:4.26322174px;stroke-linecap:butt;stroke-linejoin:miter;stroke-opacity:1"
         d="M 428.34749,694.7924 C 413.67197,677.26101 398.99646,661.48288 384.32098,648.08678 C 383.80191,636.32857 386.76438,624.57039 376.45961,612.81218 C 403.13796,582.03595 425.63923,554.49883 423.76169,504.86674 C 396.34116,502.2907 382.50021,488.99403 377.76985,468.50486 C 382.83244,488.77997 396.18536,502.23748 423.76169,504.86674 C 440.11358,504.22047 452.37334,497.11301 465.16776,490.84977 C 436.51897,481.06016 391.21802,490.98999 386.82901,452.47204 C 391.2226,490.84734 436.62082,481.29295 465.16776,490.84977 L 416.66785,459.39894 C 414.28466,449.64232 411.37881,440.66401 399.45555,434.78185 C 411.29667,440.57821 414.57349,449.75521 416.66785,459.39894 C 560.51657,484.92511 525.99656,609.34245 455.34107,647.56959 C 486.76164,653.21469 516.23561,650.26197 524.5741,612.10675 C 540.62377,606.30518 551.48704,586.01438 546.88201,570.60977 C 561.3869,558.24027 561.66704,540.38514 551.51434,529.11276 C 564.96705,511.24587 554.64794,491.37624 534.76528,482.86157 C 534.65017,462.07643 521.13591,450.75597 497.56123,446.54183 C 493.78131,428.69971 475.77784,418.05606 451.09249,424.11898 C 424.56376,401.61528 398.78197,405.6299 380.39029,419.73049 C 356.25784,415.66262 321.36167,404.79596 304.12928,419.73049 C 278.86335,417.17052 224.10047,406.7033 225.5521,421.55902 C 218.36183,427.87195 212.61392,435.09582 217.60444,449.1018 C 260.73969,440.24681 287.66955,445.49757 282.74786,478.47307 L 217.60444,478.10739 C 222.58165,507.90483 269.06591,492.45067 297.03548,497.18152 C 302.0215,506.85286 311.41445,514.87361 325.04748,515.88993 C 343.38707,517.21174 360.78073,510.11072 369.66327,503.82161 C 360.83949,510.07987 343.36744,517.31138 325.04748,515.88993 C 269.1244,564.87638 227.82033,548.80358 211.11916,619.4209 L 246.00706,647.69508 L 283.21107,650.98645 L 246.00706,647.69508 L 211.11916,619.4209 C 204.85478,614.68872 199.41344,609.89974 196.15038,604.62057 C 193.07661,584.12649 180.0105,571.6152 160.5045,567.574 C 148.5176,565.09059 136.45635,551.87746 132.86914,541.53025 C 125.10795,519.14346 116.06472,508.35113 100.4335,510.03863 C 88.121505,514.8954 85.40627,525.45627 82.294744,536.06119 C 85.366538,525.35155 88.12345,515.00401 100.4335,510.03863 L 67.007994,473.35317 C 63.849149,480.64381 61.605397,487.57321 60.91329,493.89015 L 89.315905,517.41012 L 60.91329,493.89015 L 50.044532,485.30964 C 49.599244,498.12021 37.535056,519.18615 48.869235,523.62714 L 82.294744,536.06119 L 86.073249,541.60415 L 74.205357,542.67349 L 74.181334,554.45055 C 92.89289,558.59798 100.11862,551.31989 106.94871,559.31656 C 106.94871,559.31656 116.35616,565.97925 126.98321,576.8268 C 135.24025,585.25516 135.6672,597.22527 144.57601,606.76114 C 152.55802,615.30496 166.31666,621.01171 172.0622,628.62095 C 191.44443,654.2902 196.94342,699.04628 241.37469,702.0492 L 286.91697,698.0264 L 241.37469,702.0492 L 294.95771,755.51502 C 334.76481,732.0067 373.32555,707.62378 428.34749,694.7924 z " />
      <path
         id="path5206"
         style="fill:#000000;fill-opacity:1;fill-rule:evenodd;stroke:#000000;stroke-width:4.26322174px;stroke-linecap:butt;stroke-linejoin:miter;stroke-opacity:1"
         d="M 285.06402,464.88456 C 249.62835,453.94924 198.46876,470.32364 186.46219,418.6961 C 166.60755,422.81858 143.64136,456.14758 189.73775,464.88456 C 229.3417,472.391 285.06402,464.88456 285.06402,464.88456 z " />
      <path
         id="path5208"
         style="fill:#ffffff;fill-opacity:1;fill-rule:evenodd;stroke:#000000;stroke-width:4.26322174px;stroke-linecap:butt;stroke-linejoin:miter;stroke-opacity:1"
         d="M 270.16788,493.52443 C 265.66821,504.82249 254.45716,507.44149 245.08056,508.57579 C 264.40007,515.83734 283.73288,510.19269 287.38018,493.52443 C 285.79723,501.38937 281.33055,510.63114 270.16788,515.58159 C 293.02068,515.62696 306.03092,507.90194 302.27636,494.25587 L 270.16788,493.52443 z " />
      <path
         id="path6179"
         style="fill:#ffffff;fill-opacity:1;fill-rule:evenodd;stroke:#000000;stroke-width:4.26322174px;stroke-linecap:butt;stroke-linejoin:miter;stroke-opacity:1"
         d="M 307.94233,431.77157 C 312.52241,429.43551 316.82315,429.28837 323.08735,430.30873 C 325.50143,439.5083 332.19451,442.62721 340.7629,443.08125 C 336.74302,438.42984 334.9104,435.24124 336.94984,430.58983 C 348.11713,431.9288 357.87274,432.5711 365.13809,440.80239 C 350.13728,457.16309 317.39835,453.37238 307.94233,431.77157 z " />
    </g>
  </g>
  <g
     inkscape:groupmode="layer"
     id="layer3"
     inkscape:label="Reflet final"
     style="display:inline"
     sodipodi:insensitive="true">
    <path
       style="fill:url(#radialGradient3236);fill-opacity:1"
       d="M 1.5,1.5 L 1.5,460.3679 C 1.5,626.67854 135.81454,761.5 301.49993,761.5 C 467.1854,761.5 601.5,626.67854 601.5,460.3679 L 601.5,1.5 L 1.5,1.5 z "
       id="path2346" />
  </g>
  <g
     inkscape:groupmode="layer"
     id="layer4"
     inkscape:label="Contour final"
     style="display:inline"
     sodipodi:insensitive="true">
    <path
       style="fill:none;fill-opacity:1;stroke:#000000;stroke-width:3;stroke-miterlimit:4;stroke-dasharray:none;stroke-opacity:1"
       d="M 1.5,1.5 L 1.5,460.36794 C 1.5,626.67854 135.81454,761.5 301.49993,761.5 C 467.1854,761.5 601.5,626.67854 601.5,460.36794 L 601.5,1.5 L 1.5,1.5 z "
       id="path3239" />
  </g>
</svg>
