<?xml version="1.0" encoding="UTF-8"?>
<svg version="1.0" viewBox="0 0 603 763" xmlns="http://www.w3.org/2000/svg" xmlns:cc="http://creativecommons.org/ns#" xmlns:dc="http://purl.org/dc/elements/1.1/" xmlns:rdf="http://www.w3.org/1999/02/22-rdf-syntax-ns#" xmlns:xlink="http://www.w3.org/1999/xlink">
<metadata>
<rdf:RDF>
<cc:Work rdf:about="">
<dc:format>image/svg+xml</dc:format>
<dc:type rdf:resource="http://purl.org/dc/dcmitype/StillImage"/>
<dc:date>07-AUG-2006</dc:date>
<dc:creator>
<cc:Agent>
<dc:title>Jérôme BLUM (wagner51)</dc:title>
</cc:Agent>
</dc:creator>
<cc:license rdf:resource="http://creativecommons.org/licenses/GPL/2.0/"/>
<dc:coverage/>
<dc:description>Gabarit pour le Projet:Blasons de WIkipédia</dc:description>
<dc:subject>
<rdf:Bag>
<rdf:li>blason suisse modèle gabarit projet blasons</rdf:li>
</rdf:Bag>
</dc:subject>
<dc:language>fr</dc:language>
<dc:title>Gabrit d'un blason suisse</dc:title>
</cc:Work>
<cc:License rdf:about="http://creativecommons.org/licenses/GPL/2.0/">
<cc:permits rdf:resource="http://web.resource.org/cc/Reproduction"/>
<cc:permits rdf:resource="http://web.resource.org/cc/Distribution"/>
<cc:requires rdf:resource="http://web.resource.org/cc/Notice"/>
<cc:permits rdf:resource="http://web.resource.org/cc/DerivativeWorks"/>
<cc:requires rdf:resource="http://web.resource.org/cc/ShareAlike"/>
<cc:requires rdf:resource="http://web.resource.org/cc/SourceCode"/>
</cc:License>
</rdf:RDF>
</metadata>
<defs>
<radialGradient id="a" cx="858.04" cy="579.93" r="300" gradientTransform="matrix(1.215 1.5316e-24 1.4647e-23 1.2667 -839.19 -490.49)" gradientUnits="userSpaceOnUse">
<stop stop-color="#fff" stop-opacity=".31373" offset="0"/>
<stop stop-color="#fff" stop-opacity=".25098" offset=".19"/>
<stop stop-color="#6b6b6b" stop-opacity=".12549" offset=".6"/>
<stop stop-opacity=".12549" offset="1"/>
</radialGradient>
</defs>
<desc>Coat of Arms of Canton of Freiburg (Fribourg)</desc>
<g>
<path d="m1.5 1.5v458.87c0 166.31 134.31 301.13 300 301.13 165.69 0 300-134.82 300-301.13v-458.87h-600z" fill="#fff"/>
</g>
<g>
<path d="m244.38 1.5v299.06h-242.88v116h242.88v339.44c18.497 3.58 37.587 5.5 57.125 5.5 20.162 0 39.86-2.006 58.906-5.813v-339.12h241.09v-116h-241.1v-299.06h-116.03z"/>
<path d="m601.5 300.56h-241.1v-299.06" fill="none" stroke="#000" stroke-linecap="round" stroke-linejoin="round" stroke-width="3"/>
<path d="m360.4 755.69v-339.12h241.1" fill="none" stroke="#000" stroke-linecap="round" stroke-linejoin="round" stroke-width="3"/>
<path d="m1.5 416.56h242.88v339.44" fill="none" stroke="#000" stroke-linecap="round" stroke-linejoin="round" stroke-width="3"/>
<path d="m244.38 1.5v299.06h-242.88" fill="none" stroke="#000" stroke-linecap="round" stroke-linejoin="round" stroke-width="3"/>
<g stroke="#000" stroke-linecap="round" stroke-linejoin="round" stroke-width="3">
<g fill="#e20909">
<polygon transform="translate(-.038 -.045)" points="442.47 266.93 455.32 250.7 470.67 262.85 494.28 233.03 478.93 220.87 491.78 204.65 507.13 216.8 527.27 191.36 508.19 176.26 498.47 188.54 487.94 180.2 497.66 167.92 488.89 160.98 473.44 180.5 461.82 171.29 440.98 197.61 456.99 210.28 439.98 231.78 423.97 219.1 403.13 245.42 414.76 254.62 399.3 274.14 408.08 281.08 417.8 268.8 428.32 277.13 418.6 289.42 437.68 304.52 457.82 279.08"/>
<path d="m476.27 135.63c-6.587-5.216-15.507-4.929-19.918 0.642l-256.61 324.13 23.86 18.89 256.61-324.13c4.409-5.573 2.642-14.318-3.946-19.534z"/>
<path d="m207.35 475.32-107.19 12.459 12.461 107.19 107.19-12.463-12.462-107.18zm-37.386 85.47c-5.39-4.268-3.403-9.001-7.978-8.471-4.577 0.532-1.559 4.683-5.826 10.074-4.77 6.025-13.522 7.045-19.546 2.274-6.024-4.772-7.042-13.522-2.272-19.549 4.267-5.389 9-3.406 8.468-7.98-0.532-4.575-4.683-1.556-10.074-5.823-6.025-4.769-7.042-13.521-2.272-19.546 4.77-6.024 13.521-7.041 19.546-2.271 5.39 4.268 3.404 9.001 7.979 8.468 4.573-0.532 1.558-4.683 5.825-10.071 4.77-6.025 13.521-7.043 19.546-2.273s7.042 13.521 2.273 19.546c-4.268 5.392-9.002 3.407-8.468 7.979 0.531 4.576 4.683 1.558 10.073 5.825 6.024 4.77 7.042 13.518 2.273 19.544-4.771 6.025-13.522 7.043-19.547 2.274z"/>
<path d="m120.56 600.24c1.61-2.032 1.269-4.985-0.767-6.594l-7.529-5.964c-2.034-1.609-4.986-1.265-6.596 0.769l-2.738 3.458c-1.611 2.034-0.4 5.673 1.633 7.283l5.796 4.588c2.034 1.611 5.852 1.954 7.462-0.079l2.739-3.461z"/>
<path d="m129.77 600.84c1.61-2.032 1.266-4.985-0.768-6.596l-19.433-15.386c-2.033-1.609-4.986-1.268-6.595 0.767l-1.711 2.163c-1.609 2.03-1.267 4.985 0.766 6.595l19.435 15.386c2.033 1.609 4.986 1.266 6.595-0.767l1.711-2.162z"/>
<path d="m225.08 574.56c-2.033-1.609-4.987-1.267-6.595 0.766l-5.962 7.531c-1.61 2.033-1.266 4.985 0.767 6.596l3.459 2.736c2.034 1.61 5.671 0.403 7.281-1.63l4.591-5.801c1.61-2.032 1.951-5.85-0.082-7.459l-3.459-2.739z"/>
<path d="m225.68 565.35c-2.033-1.608-4.985-1.267-6.596 0.768l-15.385 19.433c-1.611 2.035-1.267 4.985 0.768 6.595l2.16 1.711c2.034 1.61 4.987 1.268 6.596-0.766l15.386-19.435c1.61-2.032 1.267-4.984-0.767-6.596l-2.162-1.71z"/>
<path d="m106.68 480.83c2.033 1.608 2.376 4.562 0.768 6.596l-5.963 7.529c-1.609 2.034-4.562 2.375-6.595 0.767l-3.46-2.739c-2.032-1.608-1.691-5.428-0.082-7.461l4.59-5.799c1.611-2.033 5.249-3.243 7.281-1.632l3.461 2.739z"/>
<path d="m115.51 478.13c2.034 1.611 2.376 4.563 0.767 6.597l-15.385 19.435c-1.611 2.032-4.563 2.376-6.596 0.767l-2.162-1.711c-2.033-1.609-2.376-4.563-0.767-6.596l15.387-19.433c1.608-2.035 4.561-2.378 6.595-0.77l2.161 1.711z"/>
<path d="m233.41 477.96c1.631-2.06 1.283-5.051-0.777-6.684l-27.146-21.492c-2.06-1.631-5.052-1.281-6.684 0.778l-0.69 0.873c-1.631 2.062-1.283 5.054 0.776 6.684l27.147 21.492c2.06 1.631 5.052 1.283 6.683-0.775l0.691-0.876z"/>
<path d="m228.89 487.94c1.631-2.06 1.284-5.051-0.777-6.682l-31.315-24.79c-2.059-1.632-5.05-1.285-6.683 0.775l-3.779 4.776c-1.631 2.06-1.283 5.051 0.777 6.682l31.314 24.791c2.06 1.63 5.052 1.283 6.683-0.775l3.78-4.777z"/>
<path d="m216.43 499.4c-1.63 2.061-4.623 2.408-6.683 0.777l-27.146-21.494c-2.06-1.629-2.409-4.621-0.778-6.682l0.692-0.874c1.63-2.059 4.624-2.406 6.682-0.775l27.147 21.49c2.061 1.634 2.409 4.623 0.777 6.684l-0.691 0.874z"/>
</g>
<path d="m122.76 133.99c-12.692-13.453-26.241-19.933-26.972-19.322-0.731 0.609 3.229 15.098 14.203 29.985 10.973 14.889 270.01 339.36 293.2 367.12l28.513-23.809c-23.187-27.766-296.25-340.52-308.94-353.98z" fill="#e20909"/>
<path d="m418.32 500.91-14.372 16.069c14.823 17.748 49.619 53.312 69.952 68.644l17.861-14.915c-11.458-22.741-40.244-63.323-55.066-81.074l-18.375 11.276z" fill="#e20909"/>
<circle transform="translate(-.038 -.045)" cx="492.19" cy="589.38" r="10.741" fill="#e20909"/>
<path d="m491.54 563.03-25.163 21.01 4.996 5.979c1.635 1.965 4.48 2.284 6.355 0.72l18.376-15.346c1.874-1.565 2.068-4.421 0.429-6.383l-4.993-5.98z" fill="#e20909"/>
<path d="m472.29 459.67c-2.244 1.872-3.169 4.736-2.683 7.421-13.616 3-39.393 10.766-57.739 26.089-18.351 15.319-30.591 39.297-35.971 52.163-2.553-0.961-5.536-0.563-7.779 1.312-3.32 2.772-3.765 7.713-0.991 11.032 2.771 3.318 7.712 3.763 11.03 0.991 1.824-1.522 2.771-3.695 2.806-5.899 0.419-4.633 11.961-25.379 39.959-48.757 27.996-23.379 50.469-31.038 55.103-30.621 2.172 0.361 4.481-0.187 6.304-1.71 3.32-2.77 3.766-7.709 0.993-11.028-2.774-3.323-7.711-3.766-11.032-0.993z" fill="#e20909"/>
<line x1="114.35" x2="381.74" y1="136.89" y2="457.11" fill="none"/>
<polyline transform="translate(-.038 -.045)" points="403.9 455.64 381.78 457.16 376.34 478.65" fill="none"/>
</g>
</g>
<g>
<path d="m1.5 1.5v458.87c0 166.31 134.31 301.13 300 301.13 165.69 0 300-134.82 300-301.13v-458.87h-600z" fill="url(#a)"/>
<path d="m1.5 1.5v458.87c0 166.31 134.31 301.13 300 301.13 165.69 0 300-134.82 300-301.13v-458.87h-600z" fill="none" stroke="#000" stroke-width="3"/>
</g>
</svg>
