<?xml version="1.0" encoding="UTF-8" standalone="no"?>
<svg
   xmlns:dc="http://purl.org/dc/elements/1.1/"
   xmlns:cc="http://creativecommons.org/ns#"
   xmlns:rdf="http://www.w3.org/1999/02/22-rdf-syntax-ns#"
   xmlns:svg="http://www.w3.org/2000/svg"
   xmlns="http://www.w3.org/2000/svg"
   xmlns:xlink="http://www.w3.org/1999/xlink"
   xmlns:sodipodi="http://sodipodi.sourceforge.net/DTD/sodipodi-0.dtd"
   xmlns:inkscape="http://www.inkscape.org/namespaces/inkscape"
   height="763"
   width="603"
   version="1.0"
   id="svg20"
   sodipodi:version="0.32"
   inkscape:version="0.46"
   sodipodi:docname="Bofflens-coat_of_arms.svg"
   sodipodi:docbase="C:\Documents and Settings\Steve\Bureau\Blason Villages Suisse pour Wikipédia (par Delta-9)"
   inkscape:output_extension="org.inkscape.output.svg.inkscape">
  <metadata
     id="metadata31">
    <rdf:RDF>
      <cc:Work
         rdf:about="">
        <dc:format>image/svg+xml</dc:format>
        <dc:type
           rdf:resource="http://purl.org/dc/dcmitype/StillImage" />
        <dc:date>07-AUG-2006</dc:date>
        <dc:creator>
          <cc:Agent>
            <dc:title>Jérôme BLUM (wagner51)</dc:title>
          </cc:Agent>
        </dc:creator>
        <cc:license
           rdf:resource="http://creativecommons.org/licenses/GPL/2.0/" />
        <dc:coverage />
        <dc:description>Gabarit pour le Projet:Blasons de WIkipédia</dc:description>
        <dc:subject>
          <rdf:Bag>
            <rdf:li>blason suisse modèle gabarit projet blasons</rdf:li>
          </rdf:Bag>
        </dc:subject>
        <dc:language>fr</dc:language>
        <dc:title>Gabrit d'un blason suisse</dc:title>
      </cc:Work>
      <cc:License
         rdf:about="http://creativecommons.org/licenses/GPL/2.0/">
        <cc:permits
           rdf:resource="http://web.resource.org/cc/Reproduction" />
        <cc:permits
           rdf:resource="http://web.resource.org/cc/Distribution" />
        <cc:requires
           rdf:resource="http://web.resource.org/cc/Notice" />
        <cc:permits
           rdf:resource="http://web.resource.org/cc/DerivativeWorks" />
        <cc:requires
           rdf:resource="http://web.resource.org/cc/ShareAlike" />
        <cc:requires
           rdf:resource="http://web.resource.org/cc/SourceCode" />
      </cc:License>
    </rdf:RDF>
  </metadata>
  <defs
     id="defs29"><inkscape:perspective
   sodipodi:type="inkscape:persp3d"
   inkscape:vp_x="0 : 381.5 : 1"
   inkscape:vp_y="0 : 1000 : 0"
   inkscape:vp_z="603 : 381.5 : 1"
   inkscape:persp3d-origin="301.5 : 254.33333 : 1"
   id="perspective28" />
<linearGradient
   id="linearGradient2893">
  <stop
     style="stop-color:#ffffff;stop-opacity:0.3137255;"
     offset="0"
     id="stop2895" />
  <stop
     id="stop2897"
     offset="0.19"
     style="stop-color:#ffffff;stop-opacity:0.25098041;" />
  <stop
     style="stop-color:#6b6b6b;stop-opacity:0.1254902;"
     offset="0.60000002"
     id="stop2901" />
  <stop
     style="stop-color:#000000;stop-opacity:0.1254902;"
     offset="1"
     id="stop2899" />
</linearGradient>
<linearGradient
   id="linearGradient2955">
  <stop
     style="stop-color:white;stop-opacity:0;"
     offset="0"
     id="stop2965" />
  <stop
     style="stop-color:black;stop-opacity:0.64583331;"
     offset="1"
     id="stop2959" />
</linearGradient>
<radialGradient
   inkscape:collect="always"
   xlink:href="#linearGradient2893"
   id="radialGradient3236"
   gradientUnits="userSpaceOnUse"
   gradientTransform="matrix(1.215027,1.531577e-24,1.464684e-23,1.266667,-839.1924,-490.4894)"
   cx="858.04236"
   cy="579.93323"
   fx="858.04236"
   fy="579.93323"
   r="300" />
<inkscape:perspective
   id="perspective2510"
   inkscape:persp3d-origin="297.63751 : 280.63 : 1"
   inkscape:vp_z="595.27502 : 420.94501 : 1"
   inkscape:vp_y="0 : 1000 : 0"
   inkscape:vp_x="0 : 420.94501 : 1"
   sodipodi:type="inkscape:persp3d" />

	
	

	
	

		
		
		
		
		
		
		
		
		
		
		
		
		
		
		
		
		
		
		
			
	</defs>
  <sodipodi:namedview
     inkscape:window-height="968"
     inkscape:window-width="1280"
     inkscape:pageshadow="2"
     inkscape:pageopacity="0.0"
     guidetolerance="10.0"
     gridtolerance="10.0"
     objecttolerance="10.0"
     borderopacity="1.0"
     bordercolor="#666666"
     pagecolor="#ffffff"
     id="base"
     inkscape:zoom="0.9432158"
     inkscape:cx="319.74003"
     inkscape:cy="367.2516"
     inkscape:window-x="1280"
     inkscape:window-y="22"
     inkscape:current-layer="layer2"
     showgrid="false"
     showguides="true"
     inkscape:guide-bbox="true">
    <sodipodi:guide
       orientation="horizontal"
       position="761.5"
       id="guide1885" />
    <sodipodi:guide
       orientation="vertical"
       position="1.5"
       id="guide1887" />
    <sodipodi:guide
       orientation="horizontal"
       position="1.5"
       id="guide1889" />
    <sodipodi:guide
       orientation="vertical"
       position="601.5"
       id="guide1891" />
    <sodipodi:guide
       orientation="vertical"
       position="301.50081"
       id="guide1893" />
  </sodipodi:namedview>
  <desc
     id="desc22">Coat of Arms of Canton of Freiburg (Fribourg)</desc>
  <g
     inkscape:groupmode="layer"
     id="layer1"
     inkscape:label="Fond écu"
     style="opacity:1;display:inline"
     sodipodi:insensitive="true">
    <path
       id="path1899"
       d="M 1.5,1.49998 L 1.5,460.3679 C 1.5,626.6785 135.81456,761.5 301.49999,761.5 C 467.18543,761.5 601.5,626.6785 601.5,460.3679 L 601.5,1.49998 L 1.5,1.49998 z"
       style="fill:#e20909;fill-opacity:1" />
    <path
       id="path2609"
       d="M 1.5018299,1.5009964 L 1.5018299,460.37 C 1.5018299,626.681 135.81583,761.501 301.50183,761.501 L 301.50183,1.5009964 L 1.5018299,1.5009964 L 1.5018299,1.5009964 z"
       style="opacity:1;fill:#ffffff" />
  </g>
  <g
     inkscape:groupmode="layer"
     id="layer2"
     inkscape:label="Meubles"
     style="opacity:1;display:inline"
     sodipodi:insensitive="true">
    <line
       id="line2483"
       y2="761.5"
       x2="301.50082"
       y1="1.5009956"
       x1="301.50082"
       style="fill:none;stroke:#000000;stroke-width:3" />
    <path
       style="stroke:#ffffff;stroke-width:3.5;stroke-linecap:round;stroke-linejoin:round"
       id="path1999"
       d="M 100.21783,144.065 C 65.03883,109.687 84.95183,78.677996 84.95183,78.677996 C 51.09983,82.722996 33.17983,133.279 69.02183,182.487 C 104.86383,231.695 167.92083,241.806 167.92083,241.806 L 177.87683,177.768 C 177.87783,177.769 135.39783,178.443 100.21783,144.065 z M 518.04383,78.677996 C 518.04383,78.677996 537.95583,109.686 502.77683,144.064 C 467.59683,178.442 425.11783,177.768 425.11783,177.768 L 435.07383,241.806 C 435.07383,241.806 498.13283,231.695 533.97283,182.487 C 569.81583,133.279 551.89583,82.722996 518.04383,78.677996 z" />
    <path
       style="stroke:#ffffff;stroke-width:3.5;stroke-linecap:round;stroke-linejoin:round"
       id="path2003"
       d="M 158.31783,217.406 C 158.31783,217.406 120.07083,200.475 69.07483,200.475 C 18.07883,200.475 15.13683,223.382 15.13683,223.382 C 15.13683,223.382 32.42083,234.529 42.59583,254.257 C 53.38383,275.172 102.41783,303.059 141.64483,294.096 C 141.64483,294.096 160.27783,286.128 168.12383,258.242 C 169.52083,253.274 170.10983,248.781 170.13283,244.751 C 170.24183,226.152 158.31783,217.406 158.31783,217.406 z M 533.59383,200.475 C 482.59783,200.475 444.35083,217.406 444.35083,217.406 C 444.35083,217.406 432.42683,226.152 432.53483,244.75 C 432.55783,248.78 433.14683,253.273 434.54583,258.241 C 442.39183,286.127 461.02483,294.095 461.02483,294.095 C 500.25283,303.058 549.28683,275.171 560.07483,254.256 C 570.24883,234.528 587.53383,223.381 587.53383,223.381 C 587.53383,223.381 584.58883,200.475 533.59383,200.475 z" />
    <path
       style="stroke:#ffffff;stroke-width:3.5;stroke-linecap:round;stroke-linejoin:round"
       id="path2005"
       d="M 453.99483,303.823 L 426.78083,288.319 L 301.33283,321.175 L 175.88483,288.319 L 148.67183,303.823 C 148.67183,303.823 137.38783,348.987 152.65383,382.691 C 167.92083,416.395 220.35683,442.684 220.35683,514.137 L 382.31083,514.137 C 382.31083,442.684 434.74783,416.395 450.01283,382.691 C 465.27783,348.987 453.99483,303.823 453.99483,303.823 z" />
    <path
       style="fill:none;stroke:#ffffff;stroke-width:3;stroke-linecap:round;stroke-linejoin:round"
       id="path2007"
       d="M 15.13783,223.382 C 25.51483,219.021 49.30483,209.499 77.21683,230.214 C 105.12783,250.928 138.76483,250.202 170.13383,244.75" />
    <path
       style="fill:none;stroke:#ffffff;stroke-width:3;stroke-linecap:round;stroke-linejoin:round"
       id="path2009"
       d="M 587.52983,223.382 C 577.15183,219.021 553.36183,209.499 525.45083,230.214 C 497.53983,250.929 463.90283,250.202 432.53283,244.75" />
    <path
       style="stroke:#ffffff;stroke-width:3.5;stroke-linecap:round;stroke-linejoin:round"
       id="path2011"
       d="M 459.96983,282.926 C 455.21183,266.282 440.05783,231.696 440.05783,231.696 L 301.49783,208.831 L 301.49783,208.777 L 301.33483,208.804 L 301.17083,208.777 L 301.17083,208.831 L 162.61083,231.696 C 162.61083,231.696 147.45583,266.283 142.69783,282.926 C 136.72383,303.823 143.36183,315.282 168.58383,313.259 C 193.80683,311.237 240.26883,310.562 252.87983,357.075 C 265.49083,403.587 263.15883,466.95 254.20783,481.782 C 241.59583,502.677 211.06383,492.567 211.06383,520.878 C 211.06383,532.339 219.69283,549.192 219.69283,572.11 C 219.69283,607.774 237.88083,659.426 301.17083,659.608 L 301.17083,659.612 C 301.22583,659.612 301.27883,659.61 301.33483,659.61 C 301.38983,659.61 301.44283,659.612 301.49783,659.612 L 301.49783,659.608 C 364.78683,659.426 382.97583,607.774 382.97583,572.11 C 382.97583,549.19 391.60483,532.339 391.60483,520.878 C 391.60483,492.567 361.07183,502.679 348.45983,481.782 C 339.50883,466.95 337.17583,403.588 349.78683,357.075 C 362.39783,310.562 408.85983,311.237 434.08283,313.259 C 459.30683,315.282 465.94283,303.823 459.96983,282.926 z" />
    <path
       style="stroke:#ffffff;stroke-width:3.5;stroke-linecap:round;stroke-linejoin:round"
       id="path2013"
       d="M 437.06683,186.532 C 437.06683,186.532 441.04883,161.591 413.83583,160.917 C 413.83583,160.917 407.86183,134.628 382.64083,148.109 C 382.64083,148.109 364.05583,125.864 334.85083,144.738 C 334.85083,144.738 325.39483,133.696 301.49883,133.696 C 277.60383,133.696 268.14683,144.738 268.14683,144.738 C 238.94183,125.863 220.35683,148.109 220.35683,148.109 C 195.13383,134.628 189.16083,160.917 189.16083,160.917 C 161.94683,161.591 165.92983,186.532 165.92983,186.532 C 151.99083,197.318 162.61083,214.844 162.61083,214.844 C 158.62783,246.526 191.15283,245.177 191.15283,245.177 C 199.11783,272.815 232.96883,270.118 232.96883,270.118 C 244.91583,297.756 272.12983,285.622 272.12983,285.622 C 272.12983,285.622 279.59483,302.218 301.49883,302.218 C 323.40283,302.218 330.86783,285.622 330.86783,285.622 C 330.86783,285.622 358.08183,297.756 370.02883,270.118 C 370.02883,270.118 403.88083,272.815 411.84483,245.177 C 411.84483,245.177 444.36783,246.525 440.38583,214.844 C 440.38583,214.844 451.00583,197.317 437.06683,186.532 z" />
    <path
       style="fill:#ffffff;stroke:#ffffff;stroke-width:1.5;stroke-linecap:round;stroke-linejoin:round"
       id="path2015"
       d="M 232.36483,352.099 C 225.85883,356.711 216.54283,357.042 208.78083,352.229 C 200.52583,347.112 196.56283,337.747 198.38283,329.353 C 198.80783,327.392 190.40783,314.908 185.19983,323.571 C 178.28383,335.074 185.04783,352.069 200.30483,361.528 C 215.56283,370.988 233.53683,369.333 240.45283,357.829 C 244.32183,351.395 234.39583,350.661 232.36483,352.099 z M 417.79683,323.571 C 412.58883,314.908 404.18883,327.392 404.61183,329.353 C 406.43183,337.747 402.46983,347.113 394.21583,352.229 C 386.45283,357.042 377.13683,356.711 370.63183,352.099 C 368.60283,350.661 358.67483,351.395 362.54183,357.829 C 369.45683,369.333 387.43283,370.988 402.68883,361.528 C 417.94683,352.068 424.71183,335.074 417.79683,323.571 z" />
    <path
       style="fill:#e20909;stroke:#000000;stroke-width:3;stroke-linecap:round;stroke-linejoin:round"
       id="path2017"
       d="M 301.49783,620.92 C 289.52783,620.92 274.71883,619.086 274.71883,619.086 C 274.71883,643.719 288.34383,657.373 301.49783,657.373 C 314.65183,657.373 328.27683,643.719 328.27683,619.086 C 328.27683,619.086 313.46883,620.92 301.49783,620.92 z" />
    <path
       style="fill:#fcef3c;stroke:#000000;stroke-width:3;stroke-linecap:round;stroke-linejoin:round"
       id="path2019"
       d="M 349.15383,528.836 C 348.89383,535.443 349.98983,543.813 351.04983,553.299 C 351.51383,557.44 351.24383,561.5 350.54783,565.432 C 356.04883,574.651 359.23483,585.526 359.23483,597.18 C 359.23483,630.422 333.38483,657.373 301.49683,657.373 C 269.60883,657.373 243.75883,630.422 243.75883,597.18 C 243.75883,585.772 246.80283,575.11 252.08983,566.018 C 251.31283,561.905 250.99483,557.645 251.48183,553.299 C 252.52583,543.969 253.60583,535.715 253.39383,529.158 C 231.85683,544.545 217.77083,569.961 217.77083,598.734 C 217.77083,645.695 255.25583,683.763 301.49683,683.763 C 347.73783,683.763 385.22383,645.695 385.22383,598.734 C 385.22483,569.762 370.94283,544.188 349.15383,528.836 z" />
    <path
       style="fill:none;stroke:#ffffff;stroke-width:3;stroke-linecap:round;stroke-linejoin:round"
       id="path2021"
       d="M 230.88883,525.159 C 233.70183,514.864 240.80283,511.03 247.56083,515.2 C 255.80083,520.282 253.57183,534.632 251.48283,553.3 C 248.94183,576.003 268.24683,596.38 261.28983,605.831 C 256.70483,612.061 249.52183,605.831 249.52183,605.831" />
    <path
       style="fill:none;stroke:#ffffff;stroke-width:3;stroke-linecap:round;stroke-linejoin:round"
       id="path2023"
       d="M 371.64683,525.159 C 368.83383,514.864 361.73283,511.03 354.97483,515.2 C 346.73483,520.282 348.96383,534.632 351.05183,553.3 C 353.59283,576.003 334.28683,596.38 341.24383,605.831 C 345.82983,612.061 353.01383,605.831 353.01383,605.831" />
    <path
       style="fill:none;stroke:#ffffff;stroke-width:3;stroke-linecap:round;stroke-linejoin:round"
       id="path2025"
       d="M 261.20783,494.924 C 261.20783,494.924 270.29383,483.178 273.59883,461.994" />
    <path
       style="fill:none;stroke:#ffffff;stroke-width:3;stroke-linecap:round;stroke-linejoin:round"
       id="path2027"
       d="M 276.48883,493.875 C 276.48883,493.875 279.79383,477.727 280.61883,463.045" />
    <path
       style="fill:none;stroke:#ffffff;stroke-width:3;stroke-linecap:round;stroke-linejoin:round"
       id="path2029"
       d="M 288.88083,493.875 C 288.88083,493.875 290.11983,473.951 290.11983,463.045" />
    <path
       style="fill:none;stroke:#ffffff;stroke-width:3;stroke-linecap:round;stroke-linejoin:round"
       id="path2031"
       d="M 341.78783,494.924 C 341.78783,494.924 332.70183,483.178 329.39683,461.994" />
    <path
       style="fill:none;stroke:#ffffff;stroke-width:3;stroke-linecap:round;stroke-linejoin:round"
       id="path2033"
       d="M 326.50683,493.875 C 326.50683,493.875 323.20183,477.727 322.37583,463.045" />
    <path
       style="fill:none;stroke:#ffffff;stroke-width:3;stroke-linecap:round;stroke-linejoin:round"
       id="path2035"
       d="M 314.11483,493.875 C 314.11483,493.875 312.87583,473.951 312.87583,463.045" />
    <line
       style="fill:none;stroke:#ffffff;stroke-width:3;stroke-linecap:round;stroke-linejoin:round"
       id="line2037"
       x1="301.49783"
       y1="493.94598"
       x2="301.49783"
       y2="464.375" />
  </g>
  <g
     inkscape:groupmode="layer"
     id="layer3"
     inkscape:label="Reflet final"
     style="display:inline"
     sodipodi:insensitive="true">
    <path
       style="fill:url(#radialGradient3236);fill-opacity:1"
       d="M 1.5,1.5 L 1.5,460.3679 C 1.5,626.67854 135.81454,761.5 301.49993,761.5 C 467.1854,761.5 601.5,626.67854 601.5,460.3679 L 601.5,1.5 L 1.5,1.5 z "
       id="path2346" />
  </g>
  <g
     inkscape:groupmode="layer"
     id="layer4"
     inkscape:label="Contour final"
     style="display:inline"
     sodipodi:insensitive="true">
    <path
       style="fill:none;fill-opacity:1;stroke:#000000;stroke-width:3;stroke-miterlimit:4;stroke-dasharray:none;stroke-opacity:1"
       d="M 1.5,1.5 L 1.5,460.36794 C 1.5,626.67854 135.81454,761.5 301.49993,761.5 C 467.1854,761.5 601.5,626.67854 601.5,460.36794 L 601.5,1.5 L 1.5,1.5 z "
       id="path3239" />
  </g>
</svg>
