<?xml version="1.0" encoding="UTF-8"?>
<svg version="1.0" viewBox="0 0 603 763" xmlns="http://www.w3.org/2000/svg" xmlns:cc="http://creativecommons.org/ns#" xmlns:dc="http://purl.org/dc/elements/1.1/" xmlns:rdf="http://www.w3.org/1999/02/22-rdf-syntax-ns#" xmlns:xlink="http://www.w3.org/1999/xlink">
<metadata>
<rdf:RDF>
<cc:Work rdf:about="">
<dc:format>image/svg+xml</dc:format>
<dc:type rdf:resource="http://purl.org/dc/dcmitype/StillImage"/>
<dc:date>07-AUG-2006</dc:date>
<dc:creator>
<cc:Agent>
<dc:title>Jérôme BLUM (wagner51)</dc:title>
</cc:Agent>
</dc:creator>
<cc:license rdf:resource="http://creativecommons.org/licenses/GPL/2.0/"/>
<dc:coverage/>
<dc:description>Gabarit pour le Projet:Blasons de WIkipédia</dc:description>
<dc:subject>
<rdf:Bag>
<rdf:li>blason suisse modèle gabarit projet blasons</rdf:li>
</rdf:Bag>
</dc:subject>
<dc:language>fr</dc:language>
<dc:title>Gabrit d'un blason suisse</dc:title>
</cc:Work>
<cc:License rdf:about="http://creativecommons.org/licenses/GPL/2.0/">
<cc:permits rdf:resource="http://web.resource.org/cc/Reproduction"/>
<cc:permits rdf:resource="http://web.resource.org/cc/Distribution"/>
<cc:requires rdf:resource="http://web.resource.org/cc/Notice"/>
<cc:permits rdf:resource="http://web.resource.org/cc/DerivativeWorks"/>
<cc:requires rdf:resource="http://web.resource.org/cc/ShareAlike"/>
<cc:requires rdf:resource="http://web.resource.org/cc/SourceCode"/>
</cc:License>
</rdf:RDF>
</metadata>
<defs>
<radialGradient id="a" cx="858.04" cy="579.93" r="300" gradientTransform="matrix(1.215 1.5316e-24 1.4647e-23 1.2667 -839.19 -490.49)" gradientUnits="userSpaceOnUse">
<stop stop-color="#fff" stop-opacity=".31373" offset="0"/>
<stop stop-color="#fff" stop-opacity=".25098" offset=".19"/>
<stop stop-color="#6b6b6b" stop-opacity=".12549" offset=".6"/>
<stop stop-opacity=".12549" offset="1"/>
</radialGradient>
</defs>
<desc>Coat of Arms of Canton of Freiburg (Fribourg)</desc>
<g>
<path d="m1.5 1.5v458.87c0 166.31 134.31 301.13 300 301.13 165.69 0 300-134.82 300-301.13v-458.87h-600z" fill="#fff"/>
<path d="m301.5 761.5c165.69 0 300-134.82 300-301.13v-458.86h-300v760z" fill="#e20909"/>
<line x1="301.5" x2="301.5" y1="1.5" y2="761.5" fill="none" stroke="#000" stroke-width="3"/>
<g stroke="#000" stroke-linecap="round" stroke-linejoin="round">
<polygon transform="translate(-.038 -.048)" points="412.06 473.29 191.01 473.29 100.11 509.14 207.31 533.05 395.77 533.05 502.97 509.14" fill="#fcef3c" stroke-width="3"/>
<path d="m508.05 508.72c-0.489-2.351-2.79-3.858-5.141-3.369 0 0-107.02 21.669-107.9 21.851h-187.03c-0.87-0.182-107.9-21.851-107.9-21.851-2.35-0.489-4.651 1.019-5.141 3.369-0.489 2.35 1.019 4.651 3.369 5.141l108.33 21.941c0.292 0.061 0.588 0.091 0.886 0.091h187.92c0.298 0 0.594-0.03 0.886-0.091l108.33-21.941c2.35-0.49 3.858-2.791 3.369-5.141z" fill="#fcef3c" stroke-width="3"/>
<path d="m453.49 335.81c-21.548-13.218-71.525-37.624-151.99-37.624s-130.44 24.405-151.99 37.624c-19.012 11.663-26.255 13.219-36.758 13.219l0.687 16.297c37.973-13.309 41.232-29.878 89.037-45.088 36.535-11.625 70.286-14.362 87.816-15.009 0 23.83-13.484 32.936-13.484 32.936h49.39s-13.483-9.106-13.484-32.936c17.53 0.646 51.281 3.384 87.816 15.009 47.805 15.21 51.063 31.779 89.037 45.088l0.687-16.297c-10.505 0-17.749-1.556-36.761-13.219z" fill="#fcef3c" stroke-width="3"/>
<path d="m528.5 205.25c-15.844 18.832-37.572 22.363-45.449 42.19-7.413 18.661-2.444 46.718 8.148 62.2-10.593-15.482-27.705-41.829-41.285-41.829-16.297 0-17.384 25.803-8.692 42.372 8.692 16.568 13.038 19.104 13.038 19.104s2.173-15.753 13.037-15.753c10.865 0 17.927 12.132 17.927 20.823 0 8.692-7.605 15.482-12.766 10.321 0 0 1.357 15.21 17.111 20.643 15.754 5.432 19.285-6.519 19.285-6.519v-42.915c1e-3 -64.916 15.889-91.126 19.646-110.64z" fill="#fcef3c" stroke-width="3"/>
<path d="m452.63 311.81c0-2.444-5.284-12.61 3.531-18.198 6.111-3.874 10.593 3.531 10.593 3.531" fill="none" stroke-width="3"/>
<ellipse transform="translate(-.038 -.048)" cx="508.89" cy="330.97" rx="10.593" ry="23.811" fill="#5ab532" stroke-width="3"/>
<path d="m359.11 227.4c-18.47 0-25.124 13.801-32.549 26.039-1.709 2.818-8.691 3.217-8.691-6.432 0-11.792 20.643-33.588 20.643-54.312 0-8.933-5.069-20.368-19.918-35.017-14.848-14.65-13.762-36.446-17.093-36.446s-2.245 21.796-17.093 36.446c-14.848 14.649-19.918 26.084-19.918 35.017 0 20.724 20.643 42.52 20.643 54.312 0 9.648-6.982 9.25-8.691 6.432-7.424-12.238-14.079-26.039-32.549-26.039s-33.544 12.64-33.544 29.255c0 18.401 17.746 33.409 21.729 45.737 5.794-17.152 12.857-26.442 25.532-26.442 12.674 0 18.107 10.185 18.107 17.33 0 9.47-11.951 25.548-22.816 18.223 3.079 13.042 12.132 23.762 23.902 23.762s20.605-9.827 24.698-18.581c4.094 8.754 12.929 18.581 24.698 18.581 11.771 0 20.823-10.72 23.901-23.762-10.864 7.325-22.815-8.753-22.815-18.223 0-7.146 5.434-17.33 18.108-17.33s19.736 9.291 25.531 26.442c3.983-12.328 21.729-27.336 21.729-45.737 0-16.616-15.075-29.255-33.544-29.255z" fill="#fcef3c" stroke-width="3"/>
<line x1="301.5" x2="301.5" y1="316.68" y2="158.03" fill="none" stroke-width="3"/>
<path d="m231.53 285.42c0-4.288-6.915-15.658 2.173-25.905 9.507-10.72 24.038-0.223 27.162 0.983" fill="none" stroke-width="3"/>
<path d="m371.47 285.42c0-4.288 6.915-15.658-2.173-25.905-9.506-10.72-24.037-0.223-27.161 0.983" fill="none" stroke-width="3"/>
<ellipse transform="translate(-.038 -.048)" cx="301.54" cy="282.79" rx="16.135" ry="27.871" fill="#2b5df2" stroke-width="3"/>
<path d="m74.502 205.25c15.844 18.832 37.573 22.363 45.45 42.19 7.413 18.661 2.445 46.718-8.148 62.2 10.593-15.482 27.705-41.829 41.286-41.829 16.297 0 17.383 25.803 8.691 42.372-8.691 16.568-13.038 19.104-13.038 19.104s-2.173-15.753-13.037-15.753c-10.865 0-17.927 12.132-17.927 20.823 0 8.692 7.605 15.482 12.766 10.321 0 0-1.358 15.21-17.112 20.643-15.754 5.432-19.285-6.519-19.285-6.519v-42.915c0-64.916-15.89-91.126-19.646-110.64z" fill="#fcef3c" stroke-width="3"/>
<path d="m150.37 311.81c0-2.444 5.284-12.61-3.531-18.198-6.111-3.874-10.593 3.531-10.593 3.531" fill="none" stroke-width="3"/>
<ellipse transform="translate(-.038 -.048)" cx="94.186" cy="330.97" rx="10.593" ry="23.811" fill="#5ab532" stroke-width="3"/>
<polygon transform="translate(-.038 -.048)" points="411.15 344.18 191.91 344.18 97.392 380.58 97.392 506.07 191.91 469.67 411.15 469.67 505.68 506.07 505.68 380.58" fill="#fcef3c" stroke-width="3"/>
<path d="m191.88 467.45c-0.667 0-1.329 0.123-1.952 0.363l-92.57 35.645c-2.799 1.077-4.195 4.222-3.117 7.021 1.078 2.8 4.222 4.195 7.022 3.117 0 0 89.778-34.569 91.627-35.281h217.23c1.849 0.712 91.621 35.279 91.621 35.279 2.8 1.077 5.943-0.317 7.021-3.117 1.078-2.801-0.317-5.943-3.117-7.022l-92.563-35.642c-0.623-0.24-1.285-0.363-1.952-0.363h-219.25z" fill="#fcef3c" stroke-width="3"/>
<path d="m191.88 335.26c-0.667 0-1.329 0.123-1.952 0.363l-98.868 38.069c-2.799 1.078-4.195 4.222-3.117 7.022 1.078 2.799 4.222 4.195 7.021 3.117 0 0 96.076-36.995 97.925-37.707h217.23c1.849 0.712 97.925 37.707 97.925 37.707 2.8 1.078 5.944-0.317 7.021-3.117 1.078-2.8-0.316-5.943-3.117-7.022l-98.867-38.069c-0.623-0.24-1.285-0.363-1.952-0.363h-219.25z" fill="#fcef3c" stroke-width="3"/>
<rect x="207.52" y="359.78" width="187.96" height="94.204" fill="none" stroke-width="3"/>
<polygon transform="translate(-.038 -.048)" points="178.82 457.33 110.48 483.65 110.48 392.92 178.82 366.6" fill="none" stroke-width="3"/>
<polygon transform="translate(-.038 -.048)" points="424.25 457.33 492.59 483.65 492.59 392.92 424.25 366.6" fill="none" stroke-width="3"/>
<line x1="191.88" x2="191.88" y1="467.45" y2="346.52" fill="none" stroke-width="3"/>
<line x1="411.12" x2="411.12" y1="467.45" y2="346.51" fill="none" stroke-width="3"/>
<path d="m190.74 335.39s-3.205 5.307 1.141 10.739" fill="none" stroke-width="3"/>
<path d="m412.26 335.39s3.205 5.307-1.141 10.739" fill="none" stroke-width="3"/>
<path d="m410.91 478.62s4.558-5.74 0.212-11.173" fill="none" stroke-width="3"/>
<path d="m206.65 535.8s3.136-3.471 1.334-8.601" fill="none" stroke-width="3"/>
<path d="m396.34 535.8s-3.136-3.471-1.334-8.601" fill="none" stroke-width="3"/>
<path d="m192.08 478.62s-4.558-5.74-0.212-11.173" fill="none" stroke-width="3"/>
<line x1="207.98" x2="207.98" y1="527.2" y2="478.31" fill="none" stroke-width="3"/>
<line x1="395.01" x2="395.01" y1="527.2" y2="478.31" fill="none" stroke-width="3"/>
<path d="m152.23 421.39c0-11.495-3.387-19.53-7.565-17.947s-7.565 12.185-7.565 23.679c0 11.497 3.387 19.533 7.565 17.95 4.177-1.583 7.565-12.186 7.565-23.682z" fill="#2b5df2" stroke-width="3"/>
<polygon transform="translate(-.038 -.048)" points="120.61 398.86 116.28 412.42 120.61 422.69 124.94 409.13" fill="#5ab532" stroke-width="3"/>
<polygon transform="translate(-.038 -.048)" points="168.79 380.61 173.12 390.88 168.79 404.43 164.46 394.16" fill="#5ab532" stroke-width="3"/>
<polygon transform="translate(-.038 -.048)" points="120.61 468 116.28 457.73 120.61 444.18 124.94 454.45" fill="#5ab532" stroke-width="3"/>
<polygon transform="translate(-.038 -.048)" points="168.79 449.75 173.12 436.2 168.79 425.93 164.46 439.48" fill="#5ab532" stroke-width="3"/>
<circle transform="translate(-.038 -.048)" cx="301.53" cy="406.93" r="22.374" fill="#2b5df2" stroke-width="3"/>
<rect transform="matrix(.70711 -.70711 .70711 .70711 0 0)" x="-116.7" y="424.24" width="18.107" height="18.108" fill="#5ab532" stroke-width="3"/>
<rect transform="matrix(-.70711 -.70711 .70711 -.70711 0 0)" x="-543.11" y="-15.973" width="18.107" height="18.107" fill="#5ab532" stroke-width="3"/>
<rect transform="matrix(.70711 .70711 -.70711 .70711 0 0)" x="458.7" y="133.04" width="18.108" height="18.107" fill="#5ab532" stroke-width="3"/>
<rect transform="matrix(-.70711 .70711 -.70711 -.70711 0 0)" x="32.292" y="-577.53" width="18.108" height="18.106" fill="#5ab532" stroke-width="3"/>
<path d="m450.77 421.39c0-11.495 3.387-19.53 7.564-17.947 4.179 1.583 7.565 12.185 7.565 23.679 0 11.497-3.387 19.533-7.565 17.95s-7.564-12.186-7.564-23.682z" fill="#2b5df2" stroke-width="3"/>
<polygon transform="translate(-.038 -.048)" points="482.46 398.86 486.79 412.42 482.46 422.69 478.13 409.13" fill="#5ab532" stroke-width="3"/>
<polygon transform="translate(-.038 -.048)" points="434.29 380.61 429.96 390.88 434.29 404.43 438.62 394.16" fill="#5ab532" stroke-width="3"/>
<polygon transform="translate(-.038 -.048)" points="482.46 468 486.79 457.73 482.46 444.18 478.13 454.45" fill="#5ab532" stroke-width="3"/>
<polygon transform="translate(-.038 -.048)" points="434.29 449.75 429.96 436.2 434.29 425.93 438.62 439.48" fill="#5ab532" stroke-width="3"/>
</g>
</g>
<g>
<path d="m1.5 1.5v458.87c0 166.31 134.31 301.13 300 301.13 165.69 0 300-134.82 300-301.13v-458.87h-600z" fill="url(#a)"/>
<path d="m1.5 1.5v458.87c0 166.31 134.31 301.13 300 301.13 165.69 0 300-134.82 300-301.13v-458.87h-600z" fill="none" stroke="#000" stroke-width="3"/>
</g>
</svg>
