<?xml version="1.0" encoding="UTF-8"?>
<svg version="1.0" viewBox="0 0 603 763" xmlns="http://www.w3.org/2000/svg" xmlns:cc="http://creativecommons.org/ns#" xmlns:dc="http://purl.org/dc/elements/1.1/" xmlns:rdf="http://www.w3.org/1999/02/22-rdf-syntax-ns#" xmlns:xlink="http://www.w3.org/1999/xlink">
<metadata>
<rdf:RDF>
<cc:Work rdf:about="">
<dc:format>image/svg+xml</dc:format>
<dc:type rdf:resource="http://purl.org/dc/dcmitype/StillImage"/>
<dc:date>04-AUG-2009</dc:date>
<dc:creator>
<cc:Agent>
<dc:title>Juan G (aliman5040)</dc:title>
</cc:Agent>
</dc:creator>
<cc:license rdf:resource="http://creativecommons.org/licenses/GPL/2.0/"/>
<dc:coverage/>
<dc:description/>
<dc:subject>
<rdf:Bag/>
</dc:subject>
<dc:language/>
<dc:title>Wappen Gemeinde Grindelwald</dc:title>
</cc:Work>
<cc:License rdf:about="http://creativecommons.org/licenses/GPL/2.0/">
<cc:permits rdf:resource="http://web.resource.org/cc/Reproduction"/>
<cc:permits rdf:resource="http://web.resource.org/cc/Distribution"/>
<cc:requires rdf:resource="http://web.resource.org/cc/Notice"/>
<cc:permits rdf:resource="http://web.resource.org/cc/DerivativeWorks"/>
<cc:requires rdf:resource="http://web.resource.org/cc/ShareAlike"/>
<cc:requires rdf:resource="http://web.resource.org/cc/SourceCode"/>
</cc:License>
</rdf:RDF>
</metadata>
<defs>
<radialGradient id="a" cx="858.04" cy="579.93" r="300" gradientTransform="matrix(1.215 1.5316e-24 1.4647e-23 1.2667 -839.19 -490.49)" gradientUnits="userSpaceOnUse">
<stop stop-color="#fff" stop-opacity=".31373" offset="0"/>
<stop stop-color="#fff" stop-opacity=".25098" offset=".19"/>
<stop stop-color="#6b6b6b" stop-opacity=".12549" offset=".6"/>
<stop stop-opacity=".12549" offset="1"/>
</radialGradient>
</defs>
<g>
<path d="m1.5 1.5v458.87c0 166.31 134.31 301.13 300 301.13 165.69 0 300-134.82 300-301.13v-458.87h-600z" fill="#e20909"/>
<path d="m1.5 192.97v267.41c0 38.696 7.2854 75.671 20.531 109.66h558.94c13.246-33.985 20.531-70.96 20.531-109.66v-267.41h-600z" fill="#fff" stroke="#000" stroke-width="3"/>
<g transform="matrix(2.8582 0 0 2.8582 -1769.9 -1436.9)" fill-rule="evenodd">
<path d="m706 641c-4.625-3.0833-12.28-11.957-13-17-1.2795-8.9566-6.2775-11.421-16-14-11.486-3.0471-18.141-15.08-29.84-14.526l0.83977 10.526-0.83977-10.526-16.16-2.4739 2 6 11 1-11-1c1 4 7.682 14.105 13 12 2.355-0.77486 4.71-1.3893 7.065-0.17376l0.93502 4.1738c21.736 0 28 17 29 23 1.382 8.292 1.8489 17.472 7 25l16-22z" stroke="#fff"/>
<path d="m787 617c8.9602 3.2661 17.81 6.8094 28 7-2.8963 2.7451-6.5134 4.4812-11 5-10.034-0.4634-17.78-3.4049-24-8l7-4z" stroke="#fff"/>
<path d="m780 610 23-14c6.8684-4.1808 17.216-7.0349 16 4 9-16-9.9544-13.385-18-9-10.895 5.9376-24 10-28 13l7 6z" stroke="#fff"/>
<path d="m792 702-39-35c11.993-6.0528 21.983-12.136 32-34l-6-6 6 6c5 3 17.799 4.2302 24-4-9.8086-1.4226-20.003-2.2518-27-8 18-9 43-24 42-2 16.111-24.397-29-15-44-7-2 2-4 3-3 6-1-3 1.1899-4.2893 3-6 1-12-12.964-7.7993-23-5-12.834 3.58-27-14-26-3-3-3-8-1-3 3l5 5-10-1c0 9 17 5 20 21 1 5 4 7 7 10-3-3-6-5-7-10-18.53 7.9141-38.474-3.9748-55 32l7 4 13-7-13 7c-2-1-4.9886-2.7104-7-4l-8-6c-10-7.5-12.803-8.7933-22 0-7.4158 7.0906-17 10-24 16l9 9-9-9-12 10 3 2 10-7-10 7c3.5793 2.3678 7.7561 3.7398 12 5 3.1457-2.2375 5.9741-4.5385 8-7h6l-1-6 14-12c3.6667-3.2172 5.9137 0.08983 9 3 8.5801 8.0904 15.24 21.186 26 25l13-10-13 10 7 8h86z" stroke="#fff"/>
<path d="m759 610c-1.0731 6.7695 6.1868 7.6731 9 6 0.11874-2.7854-2.1964-4.1369-4-5-0.53083 0.80561-0.60188 1-0.51202 2.504-1.488-0.50398-1.0855-1.5227-1.008-2.856-0.88816-0.41957-2.4296-0.64004-3.48-0.64798z" fill="#fff" stroke="#000"/>
</g>
<rect x="560" y="123" width="60" height="0" rx="7.5" fill="#fff" fill-rule="evenodd" stroke="#000" stroke-width="3"/>
<path d="m245 570h255" fill="#fff" fill-rule="evenodd" stroke="#000" stroke-width="3"/>
<path transform="matrix(2.6569 0 0 2.6569 -1588.2 -1291.7)" d="m677.41 743-13.795-1.1461-6.3427 12.304-5.905-12.52-13.827 0.65912 7.8902-11.374-7.4843-11.645 13.795 1.1461 6.3427-12.304 5.905 12.52 13.827-0.65912-7.8902 11.374 7.4843 11.645z" fill="#fff" fill-rule="evenodd" stroke="#000" stroke-width="1.1257"/>
<path transform="matrix(2.6569 0 0 2.6569 -1376.4 -1844.7)" d="m677.41 743-13.795-1.1461-6.3427 12.304-5.905-12.52-13.827 0.65912 7.8902-11.374-7.4843-11.645 13.795 1.1461 6.3427-12.304 5.905 12.52 13.827-0.65912-7.8902 11.374 7.4843 11.645z" fill="#fff" fill-rule="evenodd" stroke="#000" stroke-width="1.1257"/>
<path transform="matrix(2.6569 0 0 2.6569 -1518.4 -1844.7)" d="m677.41 743-13.795-1.1461-6.3427 12.304-5.905-12.52-13.827 0.65912 7.8902-11.374-7.4843-11.645 13.795 1.1461 6.3427-12.304 5.905 12.52 13.827-0.65912-7.8902 11.374 7.4843 11.645z" fill="#fff" fill-rule="evenodd" stroke="#000" stroke-width="1.1257"/>
<path transform="matrix(2.6569 0 0 2.6569 -1660.4 -1844.7)" d="m677.41 743-13.795-1.1461-6.3427 12.304-5.905-12.52-13.827 0.65912 7.8902-11.374-7.4843-11.645 13.795 1.1461 6.3427-12.304 5.905 12.52 13.827-0.65912-7.8902 11.374 7.4843 11.645z" fill="#fff" fill-rule="evenodd" stroke="#000" stroke-width="1.1257"/>
<path transform="matrix(2.6569 0 0 2.6569 -1234.4 -1844.7)" d="m677.41 743-13.795-1.1461-6.3427 12.304-5.905-12.52-13.827 0.65912 7.8902-11.374-7.4843-11.645 13.795 1.1461 6.3427-12.304 5.905 12.52 13.827-0.65912-7.8902 11.374 7.4843 11.645z" fill="#fff" fill-rule="evenodd" stroke="#000" stroke-width="1.1257"/>
<path transform="matrix(2.6569 0 0 2.6569 -1306.2 -1291.7)" d="m677.41 743-13.795-1.1461-6.3427 12.304-5.905-12.52-13.827 0.65912 7.8902-11.374-7.4843-11.645 13.795 1.1461 6.3427-12.304 5.905 12.52 13.827-0.65912-7.8902 11.374 7.4843 11.645z" fill="#fff" fill-rule="evenodd" stroke="#000" stroke-width="1.1257"/>
<path transform="matrix(2.6569 0 0 2.6569 -1447.2 -1291.7)" d="m677.41 743-13.795-1.1461-6.3427 12.304-5.905-12.52-13.827 0.65912 7.8902-11.374-7.4843-11.645 13.795 1.1461 6.3427-12.304 5.905 12.52 13.827-0.65912-7.8902 11.374 7.4843 11.645z" fill="#fff" fill-rule="evenodd" stroke="#000" stroke-width="1.1257"/>
<path d="m1.5 1.5v458.87c0 166.31 134.31 301.13 300 301.13 165.69 0 300-134.82 300-301.13v-458.87h-600z" fill="url(#a)"/>
<path d="m1.5 1.5v458.87c0 166.31 134.31 301.13 300 301.13 165.69 0 300-134.82 300-301.13v-458.87h-600z" fill="none" stroke="#000" stroke-width="3"/>
</g>
</svg>
