<?xml version="1.0" encoding="UTF-8"?>
<svg version="1.0" viewBox="0 0 603 763" xmlns="http://www.w3.org/2000/svg" xmlns:cc="http://creativecommons.org/ns#" xmlns:dc="http://purl.org/dc/elements/1.1/" xmlns:rdf="http://www.w3.org/1999/02/22-rdf-syntax-ns#" xmlns:xlink="http://www.w3.org/1999/xlink">
<metadata>
<rdf:RDF>
<cc:Work rdf:about="">
<dc:format>image/svg+xml</dc:format>
<dc:type rdf:resource="http://purl.org/dc/dcmitype/StillImage"/>
<dc:date>07-AUG-2006</dc:date>
<dc:creator>
<cc:Agent>
<dc:title>Jérôme BLUM (wagner51)</dc:title>
</cc:Agent>
</dc:creator>
<cc:license rdf:resource="http://creativecommons.org/licenses/GPL/2.0/"/>
<dc:coverage/>
<dc:description>Gabarit pour le Projet:Blasons de WIkipédia</dc:description>
<dc:subject>
<rdf:Bag>
<rdf:li>blason suisse modèle gabarit projet blasons</rdf:li>
</rdf:Bag>
</dc:subject>
<dc:language>fr</dc:language>
<dc:title>Gabrit d'un blason suisse</dc:title>
</cc:Work>
<cc:License rdf:about="http://creativecommons.org/licenses/GPL/2.0/">
<cc:permits rdf:resource="http://web.resource.org/cc/Reproduction"/>
<cc:permits rdf:resource="http://web.resource.org/cc/Distribution"/>
<cc:requires rdf:resource="http://web.resource.org/cc/Notice"/>
<cc:permits rdf:resource="http://web.resource.org/cc/DerivativeWorks"/>
<cc:requires rdf:resource="http://web.resource.org/cc/ShareAlike"/>
<cc:requires rdf:resource="http://web.resource.org/cc/SourceCode"/>
</cc:License>
</rdf:RDF>
</metadata>
<defs>
<radialGradient id="a" cx="858.04" cy="579.93" r="300" gradientTransform="matrix(1.215 1.5316e-24 1.4647e-23 1.2667 -839.19 -490.49)" gradientUnits="userSpaceOnUse">
<stop stop-color="#fff" stop-opacity=".31373" offset="0"/>
<stop stop-color="#fff" stop-opacity=".25098" offset=".19"/>
<stop stop-color="#6b6b6b" stop-opacity=".12549" offset=".6"/>
<stop stop-opacity=".12549" offset="1"/>
</radialGradient>
</defs>
<desc>Coat of Arms of Canton of Freiburg (Fribourg)</desc>
<g>
<path d="m1.5 1.5v458.87c0 166.31 134.31 301.13 300 301.13 165.69 0 300-134.82 300-301.13v-458.87h-600z" fill="#fff"/>
</g>
<g>
<g stroke="#000" stroke-linecap="round" stroke-linejoin="round">
<rect x="182.8" y="556.46" width="96.308" height="155.07" fill="#fff" stroke-width="3"/>
<polygon transform="translate(-.038 -.045)" points="363.21 656.89 363.04 657.35 360.15 649.85 224.87 649.85 219.67 656.89 219.67 711.57 363.21 711.57 368.72 705.86 368.72 661.38" fill="#fff" stroke-width="3"/>
<polygon transform="translate(-.038 -.045)" points="437.89 656.89 403 596.29 389.23 602.72 360.15 649.85 363.21 656.89 363.21 711.57 437.89 711.57" fill="#fff" stroke-width="3"/>
<polygon transform="translate(-.038 -.045)" points="201.71 711.78 201.71 701.63 206.2 701.63 206.2 691.48 210.69 691.48 210.69 681.33 215.18 681.33 215.18 671.17 219.67 671.17 219.67 661.94 182.84 661.94 182.84 671.17 178.35 671.17 178.35 681.33 173.86 681.33 173.86 691.48 169.37 691.48 169.37 701.63 164.88 701.63 164.88 711.78" fill="#fff" stroke-width="3"/>
<path d="m255.24 665.21c-3.944 0-7.142 2.193-7.142 4.897v24.894h14.283v-24.894c1e-3 -2.703-3.197-4.897-7.141-4.897z" fill="#fff" stroke-width="3"/>
<path d="m292.27 665.21c-3.944 0-7.142 2.193-7.142 4.897v24.894h14.283v-24.894c0-2.703-3.197-4.897-7.141-4.897z" fill="#fff" stroke-width="3"/>
<path d="m329.3 665.21c-3.945 0-7.143 2.193-7.143 4.897v24.894h14.282v-24.894c0-2.703-3.196-4.897-7.139-4.897z" fill="#fff" stroke-width="3"/>
<rect x="191.45" y="567.07" width="7.754" height="17.548"/>
<rect x="211.6" y="567.07" width="7.754" height="17.548"/>
<rect x="238.3" y="567.07" width="9.386" height="17.548"/>
<rect x="258.71" y="567.07" width="9.386" height="17.548"/>
<path d="m402.96 674.14c-3.568 0-10.329 7.501-10.329 10.867v26.524h20.659v-26.524c0-3.366-6.76-10.867-10.33-10.867z"/>
<polygon transform="translate(-.038 -.045)" points="259.76 597.51 214.46 656.89 363.21 656.89 401.78 597.51" fill="#e20909" stroke-width="3"/>
<path d="m230.96 459.33s-11.835 57.541-56.725 97.125h113.45c-44.889-39.584-56.723-97.125-56.723-97.125z" fill="#e20909" stroke-width="3"/>
<line x1="227.36" x2="227.36" y1="556.46" y2="639.89" fill="none" stroke-width="3"/>
<line x1="230.95" x2="230.95" y1="459.33" y2="556.46" fill="none" stroke-width="3"/>
<line x1="182.8" x2="215.14" y1="671.13" y2="671.13" fill="#fff" stroke-width="3"/>
<line x1="178.31" x2="210.65" y1="681.28" y2="681.28" fill="#fff" stroke-width="3"/>
<line x1="173.82" x2="206.16" y1="691.43" y2="691.43" fill="#fff" stroke-width="3"/>
<line x1="169.33" x2="201.67" y1="701.58" y2="701.58" fill="#fff" stroke-width="3"/>
</g>
<path d="m601.5 436.42v-103.24c-6.363 1.729-13.866 2.816-23.302 2.816-46.114 0-46.114-25.968-92.23-25.968s-46.116 25.968-92.233 25.968-46.117-25.968-92.234-25.968c-46.116 0-46.116 25.968-92.23 25.968-46.116 0-46.117-25.968-92.232-25.968-46.117 0-46.117 25.968-92.234 25.968-9.434 0-16.937-1.088-23.301-2.816v103.24c6.364 1.729 13.867 2.816 23.301 2.816 46.117 0 46.117-25.97 92.234-25.97 46.115 0 46.115 25.97 92.232 25.97s46.117-25.97 92.23-25.97c46.117 0 46.117 25.97 92.234 25.97s46.117-25.97 92.233-25.97 46.116 25.97 92.23 25.97c9.436 1e-3 16.939-1.087 23.302-2.816z" fill="#2b5df2"/>
<path d="m601.5 333.19c-6.363 1.729-13.866 2.816-23.302 2.816-46.114 0-46.114-25.968-92.23-25.968s-46.116 25.968-92.233 25.968-46.117-25.968-92.234-25.968c-46.116 0-46.116 25.968-92.23 25.968-46.116 0-46.117-25.968-92.232-25.968-46.117 0-46.117 25.968-92.234 25.968-9.434 0-16.937-1.088-23.301-2.816" fill="none" stroke="#000" stroke-width="3"/>
<path d="m1.5 436.42c6.364 1.729 13.867 2.816 23.301 2.816 46.117 0 46.117-25.97 92.234-25.97 46.115 0 46.115 25.97 92.232 25.97s46.117-25.97 92.23-25.97c46.117 0 46.117 25.97 92.234 25.97s46.117-25.97 92.233-25.97c46.114 0 46.114 25.97 92.23 25.97 9.436 0 16.938-1.088 23.3-2.816" fill="none" stroke="#000" stroke-width="3"/>
<g stroke="#000" stroke-linecap="round" stroke-linejoin="round" stroke-width=".25">
<path d="m243.06 154.3-3e-3 12.321h-10.52c-4.982 0.03-0.046 8.586-8.68 10.049-1.135-5.228-1.728-10.654-1.728-16.218 1e-3 -5.558 0.596-10.982 1.718-16.231 8.51 1.607 3.841 10.049 8.691 10.079h10.522z"/>
<path d="m370.46 154.3c4.851-0.03 0.181-8.472 8.691-10.079 1.121 5.249 1.716 10.673 1.718 16.231 1e-3 5.564-0.592 10.991-1.727 16.218-8.635-1.462-3.698-10.02-8.681-10.049h-10.52l-3e-3 -12.321h10.522z"/>
<path d="m295.36 218.88 12.321 3e-3v10.52c0.031 4.982 8.585 0.045 10.048 8.68-5.227 1.135-10.654 1.728-16.218 1.727-5.558-1e-3 -10.981-0.595-16.231-1.718 1.607-8.51 10.049-3.841 10.079-8.692l1e-3 -10.52z"/>
<path d="m295.36 91.476c-0.029-4.851-8.471-0.182-10.078-8.692 5.249-1.122 10.673-1.716 16.23-1.718 5.564 0 10.991 0.592 16.219 1.727-1.463 8.635-10.018 3.698-10.049 8.68l1e-3 10.52-12.321 2e-3 -2e-3 -10.519z"/>
<path d="m255.83 197.42 8.71 8.714-7.438 7.438c-3.502 3.544 6.039 6.104 0.967 13.243-4.499-2.893-8.756-6.313-12.688-10.247-3.93-3.931-7.345-8.187-10.263-12.692 7.153-4.881 9.822 4.39 13.272 0.981l7.44-7.437z"/>
<path d="m345.92 107.33c3.408-3.451-5.861-6.119-0.98-13.272 4.505 2.917 8.761 6.333 12.691 10.262 3.936 3.934 7.354 8.19 10.248 12.689-7.141 5.071-9.7-4.47-13.244-0.967l-7.438 7.439-8.715-8.711 7.438-7.44z"/>
<path d="m338.48 206.1 8.715-8.71 7.438 7.438c3.544 3.501 6.104-6.04 13.244-0.968-2.894 4.499-6.313 8.756-10.248 12.689-3.931 3.929-8.187 7.345-12.691 10.262-4.881-7.153 4.389-9.822 0.98-13.272l-7.438-7.439z"/>
<path d="m248.39 116.02c-3.45-3.409-6.119 5.862-13.272 0.98 2.917-4.505 6.333-8.76 10.262-12.692 3.933-3.934 8.19-7.353 12.689-10.246 5.071 7.14-4.47 9.698-0.968 13.243l7.439 7.438-8.71 8.714-7.44-7.437z"/>
<path d="m314.09 154.3v-6.417h-6.417v-49.938h-12.34v49.938h-6.417v6.417h-49.938v12.34h49.938v6.417h6.417v49.938h12.341v-49.938h6.416v-6.417h49.938v-12.34h-49.938zm-6.417 12.34h-12.34v-12.339h12.34v12.339z"/>
<path d="m370.65 160.46c0-38.171-30.979-69.148-69.152-69.148-38.172 0-69.152 30.977-69.152 69.148l5e-3 7e-3h-5e-3c0 38.171 30.98 69.149 69.152 69.149 38.174 0 69.152-30.978 69.152-69.149h-5e-3l5e-3 -7e-3zm-69.152 56.489c-31.19 0-56.512-25.301-56.544-56.481h-0.014l0.014-6e-3c0.033-31.182 25.354-56.482 56.544-56.482 31.191 0 56.503 25.3 56.536 56.482l5e-3 6e-3h-5e-3c-0.033 31.18-25.344 56.481-56.536 56.481z"/>
<path d="m56.633 154.3-3e-3 12.321h-10.52c-4.982 0.03-0.046 8.586-8.68 10.049-1.135-5.228-1.728-10.654-1.728-16.218 1e-3 -5.558 0.596-10.982 1.718-16.231 8.51 1.607 3.841 10.049 8.691 10.079h10.522z"/>
<path d="m184.03 154.3c4.851-0.03 0.182-8.472 8.692-10.079 1.121 5.249 1.716 10.673 1.718 16.231 1e-3 5.564-0.592 10.991-1.728 16.218-8.634-1.462-3.698-10.02-8.68-10.049h-10.519l-3e-3 -12.321h10.52z"/>
<path d="m108.93 218.88 12.321 3e-3v10.52c0.03 4.982 8.585 0.045 10.047 8.68-5.226 1.135-10.654 1.728-16.217 1.727-5.558-1e-3 -10.982-0.595-16.231-1.718 1.607-8.51 10.049-3.841 10.079-8.692l1e-3 -10.52z"/>
<path d="m108.93 91.476c-0.029-4.851-8.471-0.182-10.078-8.692 5.249-1.122 10.673-1.716 16.23-1.718 5.564 0 10.991 0.592 16.218 1.727-1.462 8.635-10.018 3.698-10.048 8.68l1e-3 10.52-12.321 2e-3 -2e-3 -10.519z"/>
<path d="m69.408 197.42 8.71 8.714-7.438 7.438c-3.502 3.544 6.039 6.104 0.967 13.243-4.499-2.893-8.756-6.313-12.688-10.247-3.93-3.931-7.345-8.187-10.263-12.692 7.153-4.881 9.822 4.39 13.272 0.981l7.44-7.437z"/>
<path d="m159.49 107.33c3.409-3.451-5.861-6.119-0.98-13.272 4.504 2.917 8.76 6.333 12.691 10.262 3.935 3.934 7.354 8.19 10.247 12.689-7.14 5.071-9.699-4.47-13.243-0.967l-7.439 7.439-8.714-8.711 7.438-7.44z"/>
<path d="m152.06 206.1 8.714-8.71 7.439 7.438c3.543 3.501 6.103-6.04 13.243-0.968-2.894 4.499-6.313 8.756-10.247 12.689-3.931 3.929-8.187 7.345-12.691 10.262-4.881-7.153 4.389-9.822 0.98-13.272l-7.438-7.439z"/>
<path d="m61.968 116.02c-3.45-3.409-6.119 5.862-13.272 0.98 2.917-4.505 6.333-8.76 10.262-12.692 3.933-3.934 8.19-7.353 12.689-10.246 5.071 7.14-4.47 9.698-0.968 13.243l7.439 7.438-8.71 8.714-7.44-7.437z"/>
<path d="m127.66 154.3v-6.417h-6.417v-49.938h-12.34v49.938h-6.417v6.417h-49.938v12.34h49.938v6.417h6.417v49.938h12.341v-49.938h6.417v-6.417h49.938v-12.34h-49.939zm-6.417 12.34h-12.339v-12.339h12.339v12.339z"/>
<path d="m184.22 160.46c0-38.171-30.979-69.148-69.153-69.148-38.172 0-69.152 30.977-69.152 69.148l5e-3 7e-3h-5e-3c0 38.171 30.98 69.149 69.152 69.149 38.173 0 69.153-30.978 69.153-69.149h-5e-3l5e-3 -7e-3zm-69.153 56.489c-31.19 0-56.512-25.301-56.544-56.481h-0.014l0.014-6e-3c0.033-31.182 25.354-56.482 56.544-56.482 31.192 0 56.503 25.3 56.536 56.482l6e-3 6e-3h-6e-3c-0.032 31.18-25.344 56.481-56.536 56.481z"/>
<path d="m556.88 154.3c4.851-0.03 0.182-8.472 8.691-10.079 1.123 5.249 1.717 10.673 1.719 16.231 0 5.564-0.592 10.991-1.728 16.218-8.635-1.462-3.697-10.019-8.68-10.049h-10.52l-3e-3 -12.321h10.521z"/>
<path d="m429.48 154.3-3e-3 12.321h-10.52c-4.982 0.029-0.046 8.586-8.681 10.049-1.136-5.228-1.728-10.654-1.727-16.218 2e-3 -5.558 0.596-10.982 1.718-16.231 8.51 1.606 3.841 10.049 8.691 10.079h10.522z"/>
<path d="m494.07 229.4c0.031 4.851 8.472 0.182 10.08 8.692-5.249 1.123-10.674 1.717-16.231 1.718-5.563 1e-3 -10.992-0.592-16.218-1.727 1.463-8.635 10.017-3.698 10.048-8.681v-10.52l12.32-3e-3 1e-3 10.521z"/>
<path d="m494.06 102-12.32-2e-3 1e-3 -10.52c-0.031-4.982-8.586-0.045-10.049-8.681 5.227-1.134 10.654-1.727 16.219-1.727 5.557 1e-3 10.981 0.596 16.23 1.718-1.607 8.51-10.049 3.841-10.079 8.692l-2e-3 10.52z"/>
<path d="m541.03 204.86c3.45 3.408 6.119-5.863 13.272-0.981-2.919 4.505-6.333 8.761-10.263 12.692-3.934 3.935-8.19 7.353-12.688 10.247-5.071-7.14 4.47-9.699 0.968-13.244l-7.439-7.438 8.71-8.714 7.44 7.438z"/>
<path d="m450.94 114.77-8.715 8.71-7.438-7.439c-3.543-3.502-6.103 6.039-13.243 0.968 2.894-4.499 6.313-8.756 10.248-12.689 3.93-3.929 8.186-7.344 12.69-10.263 4.882 7.154-4.389 9.822-0.979 13.273l7.437 7.44z"/>
<path d="m443.51 213.54c-3.409 3.451 5.861 6.12 0.979 13.272-4.505-2.918-8.761-6.333-12.69-10.262-3.936-3.933-7.354-8.19-10.248-12.689 7.141-5.072 9.7 4.47 13.243 0.968l7.438-7.438 8.715 8.709-7.437 7.44z"/>
<path d="m533.59 123.45-8.71-8.713 7.44-7.439c3.501-3.544-6.04-6.104-0.969-13.243 4.498 2.893 8.755 6.312 12.689 10.246 3.929 3.932 7.343 8.188 10.262 12.692-7.152 4.881-9.821-4.39-13.271-0.981l-7.441 7.438z"/>
<path d="m475.34 154.3h-49.938v12.341h49.938v6.417h6.416v49.938h12.342v-49.938h6.416v-6.417h49.938v-12.341h-49.938v-6.417h-6.416v-49.938h-12.341v49.938h-6.417v6.417zm6.417 1e-3h12.34v12.339h-12.34v-12.339z"/>
<path d="m418.78 160.47h-5e-3c0 38.171 30.979 69.149 69.153 69.149 38.172 0 69.152-30.979 69.152-69.149h-5e-3l5e-3 -7e-3c0-38.171-30.98-69.148-69.152-69.148-38.174 0-69.153 30.978-69.153 69.148l5e-3 7e-3zm12.613 0h-5e-3l5e-3 -6e-3c0.033-31.182 25.345-56.482 56.536-56.482 31.189 0 56.512 25.3 56.545 56.482l0.014 6e-3h-0.014c-0.033 31.181-25.355 56.482-56.545 56.482-31.192 0-56.503-25.301-56.536-56.482z"/>
</g>
</g>
<g>
<path d="m1.5 1.5v458.87c0 166.31 134.31 301.13 300 301.13 165.69 0 300-134.82 300-301.13v-458.87h-600z" fill="url(#a)"/>
<path d="m1.5 1.5v458.87c0 166.31 134.31 301.13 300 301.13 165.69 0 300-134.82 300-301.13v-458.87h-600z" fill="none" stroke="#000" stroke-width="3"/>
</g>
</svg>
