<?xml version="1.0" encoding="UTF-8" standalone="no"?>
<svg
   xmlns:dc="http://purl.org/dc/elements/1.1/"
   xmlns:cc="http://creativecommons.org/ns#"
   xmlns:rdf="http://www.w3.org/1999/02/22-rdf-syntax-ns#"
   xmlns:svg="http://www.w3.org/2000/svg"
   xmlns="http://www.w3.org/2000/svg"
   xmlns:xlink="http://www.w3.org/1999/xlink"
   xmlns:sodipodi="http://sodipodi.sourceforge.net/DTD/sodipodi-0.dtd"
   xmlns:inkscape="http://www.inkscape.org/namespaces/inkscape"
   height="763"
   width="603"
   version="1.0"
   id="svg20"
   sodipodi:version="0.32"
   inkscape:version="0.46"
   sodipodi:docname="Vuiteboeuf-coat_of_arms.svg"
   sodipodi:docbase="C:\Documents and Settings\Steve\Bureau\Blason Villages Suisse pour Wikipédia (par Delta-9)"
   inkscape:output_extension="org.inkscape.output.svg.inkscape">
  <metadata
     id="metadata31">
    <rdf:RDF>
      <cc:Work
         rdf:about="">
        <dc:format>image/svg+xml</dc:format>
        <dc:type
           rdf:resource="http://purl.org/dc/dcmitype/StillImage" />
        <dc:date>07-AUG-2006</dc:date>
        <dc:creator>
          <cc:Agent>
            <dc:title>Jérôme BLUM (wagner51)</dc:title>
          </cc:Agent>
        </dc:creator>
        <cc:license
           rdf:resource="http://creativecommons.org/licenses/GPL/2.0/" />
        <dc:coverage />
        <dc:description>Gabarit pour le Projet:Blasons de WIkipédia</dc:description>
        <dc:subject>
          <rdf:Bag>
            <rdf:li>blason suisse modèle gabarit projet blasons</rdf:li>
          </rdf:Bag>
        </dc:subject>
        <dc:language>fr</dc:language>
        <dc:title>Gabrit d'un blason suisse</dc:title>
      </cc:Work>
      <cc:License
         rdf:about="http://creativecommons.org/licenses/GPL/2.0/">
        <cc:permits
           rdf:resource="http://web.resource.org/cc/Reproduction" />
        <cc:permits
           rdf:resource="http://web.resource.org/cc/Distribution" />
        <cc:requires
           rdf:resource="http://web.resource.org/cc/Notice" />
        <cc:permits
           rdf:resource="http://web.resource.org/cc/DerivativeWorks" />
        <cc:requires
           rdf:resource="http://web.resource.org/cc/ShareAlike" />
        <cc:requires
           rdf:resource="http://web.resource.org/cc/SourceCode" />
      </cc:License>
    </rdf:RDF>
  </metadata>
  <defs
     id="defs29"><inkscape:perspective
   sodipodi:type="inkscape:persp3d"
   inkscape:vp_x="0 : 381.5 : 1"
   inkscape:vp_y="0 : 1000 : 0"
   inkscape:vp_z="603 : 381.5 : 1"
   inkscape:persp3d-origin="301.5 : 254.33333 : 1"
   id="perspective28" />
<linearGradient
   id="linearGradient2893">
  <stop
     style="stop-color:#ffffff;stop-opacity:0.3137255;"
     offset="0"
     id="stop2895" />
  <stop
     id="stop2897"
     offset="0.19"
     style="stop-color:#ffffff;stop-opacity:0.25098041;" />
  <stop
     style="stop-color:#6b6b6b;stop-opacity:0.1254902;"
     offset="0.60000002"
     id="stop2901" />
  <stop
     style="stop-color:#000000;stop-opacity:0.1254902;"
     offset="1"
     id="stop2899" />
</linearGradient>
<linearGradient
   id="linearGradient2955">
  <stop
     style="stop-color:white;stop-opacity:0;"
     offset="0"
     id="stop2965" />
  <stop
     style="stop-color:black;stop-opacity:0.64583331;"
     offset="1"
     id="stop2959" />
</linearGradient>
<radialGradient
   inkscape:collect="always"
   xlink:href="#linearGradient2893"
   id="radialGradient3236"
   gradientUnits="userSpaceOnUse"
   gradientTransform="matrix(1.215027,1.531577e-24,1.464684e-23,1.266667,-839.1924,-490.4894)"
   cx="858.04236"
   cy="579.93323"
   fx="858.04236"
   fy="579.93323"
   r="300" />
<inkscape:perspective
   id="perspective2644"
   inkscape:persp3d-origin="297.63751 : 280.63 : 1"
   inkscape:vp_z="595.27502 : 420.94501 : 1"
   inkscape:vp_y="0 : 1000 : 0"
   inkscape:vp_x="0 : 420.94501 : 1"
   sodipodi:type="inkscape:persp3d" />

	
	
	

	

		
		
		
	
		
		
		
	
		
		
		
		
	
			
				
			
				
			
				
			
				
			
				
			
				
		
			
			
		
			
			
			
			
			
		
			
				
			
			
			
			
		
			
				
			
				
			
				
			
				
			
				
			
				
			
				
			
				
			
			
		
			
				
			
				
			
				
			
				
			
				
			
				
			
				
			
				
			
			
		
			
				
			
				
			
				
			
				
			
				
			
				
			
				
			
				
			
			
		
				
				
				
			</defs>
  <sodipodi:namedview
     inkscape:window-height="968"
     inkscape:window-width="1280"
     inkscape:pageshadow="2"
     inkscape:pageopacity="0.0"
     guidetolerance="10.0"
     gridtolerance="10.0"
     objecttolerance="10.0"
     borderopacity="1.0"
     bordercolor="#666666"
     pagecolor="#ffffff"
     id="base"
     inkscape:zoom="0.92652193"
     inkscape:cx="327.1868"
     inkscape:cy="399.00713"
     inkscape:window-x="1280"
     inkscape:window-y="22"
     inkscape:current-layer="layer2"
     showgrid="false"
     showguides="true"
     inkscape:guide-bbox="true">
    <sodipodi:guide
       orientation="horizontal"
       position="761.5"
       id="guide1885" />
    <sodipodi:guide
       orientation="vertical"
       position="1.5"
       id="guide1887" />
    <sodipodi:guide
       orientation="horizontal"
       position="1.5"
       id="guide1889" />
    <sodipodi:guide
       orientation="vertical"
       position="601.5"
       id="guide1891" />
    <sodipodi:guide
       orientation="vertical"
       position="301.50081"
       id="guide1893" />
  </sodipodi:namedview>
  <desc
     id="desc22">Coat of Arms of Canton of Freiburg (Fribourg)</desc>
  <g
     inkscape:groupmode="layer"
     id="layer1"
     inkscape:label="Fond écu"
     style="opacity:1"
     sodipodi:insensitive="true">
    <path
       id="path1899"
       d="M 1.5,1.49998 L 1.5,460.3679 C 1.5,626.6785 135.81456,761.5 301.49999,761.5 C 467.18543,761.5 601.5,626.6785 601.5,460.3679 L 601.5,1.49998 L 1.5,1.49998 z"
       style="fill:#ffffff;fill-opacity:1" />
  </g>
  <g
     inkscape:groupmode="layer"
     id="layer2"
     inkscape:label="Meubles"
     style="opacity:1;display:inline"
     sodipodi:insensitive="true">
    <g
       id="g3037">
      <rect
         style="fill:#ffffff;stroke:#000000;stroke-width:3;stroke-linecap:round;stroke-linejoin:round"
         x="182.8"
         y="556.45599"
         width="96.307999"
         height="155.07201"
         id="rect2551" />
      <polygon
         transform="translate(-3.8e-2,-4.5e-2)"
         style="fill:#ffffff;stroke:#000000;stroke-width:3;stroke-linecap:round;stroke-linejoin:round"
         points="363.214,656.89 363.037,657.353 360.153,649.85 224.872,649.85 219.668,656.89 219.668,711.574 363.214,711.574 368.722,705.862 368.722,661.379 363.214,656.89 "
         id="polygon2553" />
      <polygon
         transform="translate(-3.8e-2,-4.5e-2)"
         style="fill:#ffffff;stroke:#000000;stroke-width:3;stroke-linecap:round;stroke-linejoin:round"
         points="437.893,656.89 403.002,596.29 389.229,602.716 360.153,649.85 363.214,656.89 363.214,711.574 437.893,711.574 437.893,656.89 "
         id="polygon2555" />
      <polygon
         transform="translate(-3.8e-2,-4.5e-2)"
         style="fill:#ffffff;stroke:#000000;stroke-width:3;stroke-linecap:round;stroke-linejoin:round"
         points="201.71,711.779 201.71,701.628 206.2,701.628 206.2,691.476 210.689,691.476 210.689,681.327 215.179,681.327 215.179,671.173 219.668,671.173 219.668,661.94 182.838,661.94 182.838,671.173 178.35,671.173 178.35,681.327 173.86,681.327 173.86,691.476 169.37,691.476 169.37,701.628 164.881,701.628 164.881,711.779 201.71,711.779 "
         id="polygon2557" />
      <path
         id="path2561"
         d="M 255.236,665.21 C 251.292,665.21 248.094,667.403 248.094,670.107 L 248.094,695.001 L 262.377,695.001 L 262.377,670.107 C 262.378,667.404 259.18,665.21 255.236,665.21 z"
         style="fill:#ffffff;stroke:#000000;stroke-width:3;stroke-linecap:round;stroke-linejoin:round" />
      <path
         id="path2563"
         d="M 292.27,665.21 C 288.326,665.21 285.128,667.403 285.128,670.107 L 285.128,695.001 L 299.411,695.001 L 299.411,670.107 C 299.411,667.404 296.214,665.21 292.27,665.21 z"
         style="fill:#ffffff;stroke:#000000;stroke-width:3;stroke-linecap:round;stroke-linejoin:round" />
      <path
         id="path2565"
         d="M 329.305,665.21 C 325.36,665.21 322.162,667.403 322.162,670.107 L 322.162,695.001 L 336.444,695.001 L 336.444,670.107 C 336.444,667.404 333.248,665.21 329.305,665.21 z"
         style="fill:#ffffff;stroke:#000000;stroke-width:3;stroke-linecap:round;stroke-linejoin:round" />
      <rect
         style="stroke:#000000;stroke-linecap:round;stroke-linejoin:round"
         x="191.446"
         y="567.06702"
         width="7.7540002"
         height="17.548"
         id="rect2569" />
      <rect
         style="stroke:#000000;stroke-linecap:round;stroke-linejoin:round"
         x="211.60199"
         y="567.06702"
         width="7.7540002"
         height="17.548"
         id="rect2571" />
      <rect
         style="stroke:#000000;stroke-linecap:round;stroke-linejoin:round"
         x="238.29999"
         y="567.06702"
         width="9.3859997"
         height="17.548"
         id="rect2573" />
      <rect
         style="stroke:#000000;stroke-linecap:round;stroke-linejoin:round"
         x="258.70502"
         y="567.06702"
         width="9.3859997"
         height="17.548"
         id="rect2575" />
      <path
         style="stroke:#000000;stroke-linecap:round;stroke-linejoin:round"
         d="M 402.964,674.137 C 399.396,674.137 392.635,681.638 392.635,685.004 C 392.635,688.371 392.635,711.528 392.635,711.528 L 413.294,711.528 C 413.294,711.528 413.294,688.371 413.294,685.004 C 413.294,681.638 406.534,674.137 402.964,674.137 z"
         id="path2577" />
      <polygon
         transform="translate(-3.8e-2,-4.5e-2)"
         style="fill:#e20909;stroke:#000000;stroke-width:3;stroke-linecap:round;stroke-linejoin:round"
         points="259.763,597.513 214.465,656.89 363.214,656.89 401.777,597.513 259.763,597.513 "
         id="polygon2581" />
      <path
         style="fill:#e20909;stroke:#000000;stroke-width:3;stroke-linecap:round;stroke-linejoin:round"
         d="M 230.955,459.331 C 230.955,459.331 219.12,516.872 174.23,556.456 L 287.678,556.456 C 242.789,516.872 230.955,459.331 230.955,459.331 z"
         id="path2583" />
      <line
         style="fill:none;stroke:#000000;stroke-width:3;stroke-linecap:round;stroke-linejoin:round"
         x1="227.35799"
         y1="556.45599"
         x2="227.35799"
         y2="639.89404"
         id="line2587" />
      <line
         style="fill:none;stroke:#000000;stroke-width:3;stroke-linecap:round;stroke-linejoin:round"
         x1="230.95499"
         y1="459.33102"
         x2="230.95499"
         y2="556.45599"
         id="line2589" />
      <line
         style="fill:#ffffff;stroke:#000000;stroke-width:3;stroke-linecap:round;stroke-linejoin:round"
         x1="182.8"
         y1="671.12799"
         x2="215.14099"
         y2="671.12799"
         id="line2591" />
      <line
         style="fill:#ffffff;stroke:#000000;stroke-width:3;stroke-linecap:round;stroke-linejoin:round"
         x1="178.31201"
         y1="681.28204"
         x2="210.65099"
         y2="681.28204"
         id="line2593" />
      <line
         style="fill:#ffffff;stroke:#000000;stroke-width:3;stroke-linecap:round;stroke-linejoin:round"
         x1="173.82201"
         y1="691.43103"
         x2="206.16199"
         y2="691.43103"
         id="line2595" />
      <line
         style="fill:#ffffff;stroke:#000000;stroke-width:3;stroke-linecap:round;stroke-linejoin:round"
         x1="169.332"
         y1="701.58301"
         x2="201.672"
         y2="701.58301"
         id="line2597" />
    </g>
    <g
       id="g3059">
      <path
         d="M 601.499,436.425 L 601.499,333.186 C 595.136,334.915 587.633,336.002 578.197,336.002 C 532.083,336.002 532.083,310.034 485.967,310.034 C 439.851,310.034 439.851,336.002 393.734,336.002 C 347.617,336.002 347.617,310.034 301.5,310.034 C 255.384,310.034 255.384,336.002 209.27,336.002 C 163.154,336.002 163.153,310.034 117.038,310.034 C 70.921,310.034 70.921,336.002 24.804,336.002 C 15.37,336.002 7.867,334.914 1.503,333.186 L 1.503,436.425 C 7.867,438.154 15.37,439.241 24.804,439.241 C 70.921,439.241 70.921,413.271 117.038,413.271 C 163.153,413.271 163.153,439.241 209.27,439.241 C 255.387,439.241 255.387,413.271 301.5,413.271 C 347.617,413.271 347.617,439.241 393.734,439.241 C 439.851,439.241 439.851,413.271 485.967,413.271 C 532.083,413.271 532.083,439.241 578.197,439.241 C 587.633,439.242 595.136,438.154 601.499,436.425 z"
         id="path2606"
         style="fill:#2b5df2" />
      <path
         d="M 601.499,333.186 C 595.136,334.915 587.633,336.002 578.197,336.002 C 532.083,336.002 532.083,310.034 485.967,310.034 C 439.851,310.034 439.851,336.002 393.734,336.002 C 347.617,336.002 347.617,310.034 301.5,310.034 C 255.384,310.034 255.384,336.002 209.27,336.002 C 163.154,336.002 163.153,310.034 117.038,310.034 C 70.921,310.034 70.921,336.002 24.804,336.002 C 15.37,336.002 7.867,334.914 1.503,333.186"
         id="path2608"
         style="fill:none;stroke:#000000;stroke-width:3" />
      <path
         d="M 1.5,436.425 C 7.864,438.154 15.367,439.241 24.801,439.241 C 70.918,439.241 70.918,413.271 117.035,413.271 C 163.15,413.271 163.15,439.241 209.267,439.241 C 255.384,439.241 255.384,413.271 301.497,413.271 C 347.614,413.271 347.614,439.241 393.731,439.241 C 439.848,439.241 439.848,413.271 485.964,413.271 C 532.078,413.271 532.078,439.241 578.194,439.241 C 587.63,439.241 595.132,438.153 601.494,436.425"
         id="path2610"
         style="fill:none;stroke:#000000;stroke-width:3" />
    </g>
    <g
       id="g3002">
      <g
         id="g2978">
        <path
           d="M 243.059,154.296 L 243.056,166.617 L 232.536,166.617 C 227.554,166.647 232.49,175.203 223.856,176.666 C 222.721,171.438 222.128,166.012 222.128,160.448 C 222.129,154.89 222.724,149.466 223.846,144.217 C 232.356,145.824 227.687,154.266 232.537,154.296 L 243.059,154.296 z"
           sodipodi:nodetypes="ccsccccc"
           id="path3411_2_"
           style="stroke:#000000;stroke-width:0.25;stroke-linecap:round;stroke-linejoin:round" />
        <path
           d="M 370.46,154.295 C 375.311,154.265 370.641,145.823 379.151,144.216 C 380.272,149.465 380.867,154.889 380.869,160.447 C 380.87,166.011 380.277,171.438 379.142,176.665 C 370.507,175.203 375.444,166.645 370.461,166.616 L 359.941,166.616 L 359.938,154.295 L 370.46,154.295 z"
           sodipodi:nodetypes="ccsccccc"
           id="path3411_11_"
           style="stroke:#000000;stroke-width:0.25;stroke-linecap:round;stroke-linejoin:round" />
        <path
           d="M 295.359,218.876 L 307.68,218.879 L 307.68,229.399 C 307.711,234.381 316.265,229.444 317.728,238.079 C 312.501,239.214 307.074,239.807 301.51,239.806 C 295.952,239.805 290.529,239.211 285.279,238.088 C 286.886,229.578 295.328,234.247 295.358,229.396 L 295.359,218.876 z"
           sodipodi:nodetypes="ccsccccc"
           id="path3411_15_"
           style="stroke:#000000;stroke-width:0.25;stroke-linecap:round;stroke-linejoin:round" />
        <path
           d="M 295.357,91.476 C 295.328,86.625 286.886,91.294 285.279,82.784 C 290.528,81.662 295.952,81.068 301.509,81.066 C 307.073,81.066 312.5,81.658 317.728,82.793 C 316.265,91.428 307.71,86.491 307.679,91.473 L 307.68,101.993 L 295.359,101.995 L 295.357,91.476 z"
           sodipodi:nodetypes="ccsccccc"
           id="path3411_14_"
           style="stroke:#000000;stroke-width:0.25;stroke-linecap:round;stroke-linejoin:round" />
        <path
           d="M 255.834,197.418 L 264.544,206.132 L 257.106,213.57 C 253.604,217.114 263.145,219.674 258.073,226.813 C 253.574,223.92 249.317,220.5 245.385,216.566 C 241.455,212.635 238.04,208.379 235.122,203.874 C 242.275,198.993 244.944,208.264 248.394,204.855 L 255.834,197.418 z"
           sodipodi:nodetypes="ccsccccc"
           id="path3411_19_"
           style="stroke:#000000;stroke-width:0.25;stroke-linecap:round;stroke-linejoin:round" />
        <path
           d="M 345.918,107.331 C 349.326,103.88 340.057,101.212 344.938,94.059 C 349.443,96.976 353.699,100.392 357.629,104.321 C 361.565,108.255 364.983,112.511 367.877,117.01 C 360.736,122.081 358.177,112.54 354.633,116.043 L 347.195,123.482 L 338.48,114.771 L 345.918,107.331 z"
           sodipodi:nodetypes="ccsccccc"
           id="path3411_18_"
           style="stroke:#000000;stroke-width:0.25;stroke-linecap:round;stroke-linejoin:round" />
        <path
           d="M 338.481,206.101 L 347.196,197.391 L 354.634,204.829 C 358.178,208.33 360.738,198.789 367.878,203.861 C 364.984,208.36 361.565,212.617 357.63,216.55 C 353.699,220.479 349.443,223.895 344.939,226.812 C 340.058,219.659 349.328,216.99 345.919,213.54 L 338.481,206.101 z"
           sodipodi:nodetypes="ccsccccc"
           id="path3411_17_"
           style="stroke:#000000;stroke-width:0.25;stroke-linecap:round;stroke-linejoin:round" />
        <path
           d="M 248.394,116.017 C 244.944,112.608 242.275,121.879 235.122,116.997 C 238.039,112.492 241.455,108.237 245.384,104.305 C 249.317,100.371 253.574,96.952 258.073,94.059 C 263.144,101.199 253.603,103.757 257.105,107.302 L 264.544,114.74 L 255.834,123.454 L 248.394,116.017 z"
           sodipodi:nodetypes="ccsccccc"
           id="path3411_16_"
           style="stroke:#000000;stroke-width:0.25;stroke-linecap:round;stroke-linejoin:round" />
        <path
           d="M 314.086,154.296 L 314.086,147.879 L 307.669,147.879 L 307.669,97.941 L 295.329,97.941 L 295.329,147.879 L 288.912,147.879 L 288.912,154.296 L 238.974,154.296 L 238.974,166.636 L 288.912,166.636 L 288.912,173.053 L 295.329,173.053 L 295.329,222.991 L 307.67,222.991 L 307.67,173.053 L 314.086,173.053 L 314.086,166.636 L 364.024,166.636 L 364.024,154.296 L 314.086,154.296 L 314.086,154.296 z M 307.669,166.636 L 295.329,166.636 L 295.329,154.297 L 307.669,154.297 L 307.669,166.636 z"
           id="path2485"
           style="stroke:#000000;stroke-width:0.25;stroke-linecap:round;stroke-linejoin:round" />
        <path
           d="M 370.65,160.463 C 370.65,122.292 339.671,91.315 301.498,91.315 C 263.326,91.315 232.346,122.292 232.346,160.463 L 232.351,160.47 L 232.346,160.47 C 232.346,198.641 263.326,229.619 301.498,229.619 C 339.672,229.619 370.65,198.641 370.65,160.47 L 370.645,160.47 L 370.65,160.463 z M 301.498,216.952 C 270.308,216.952 244.986,191.651 244.954,160.471 L 244.94,160.471 L 244.954,160.465 C 244.987,129.283 270.308,103.983 301.498,103.983 C 332.689,103.983 358.001,129.283 358.034,160.465 L 358.039,160.471 L 358.034,160.471 C 358.001,191.651 332.69,216.952 301.498,216.952 z"
           id="path2487"
           style="stroke:#000000;stroke-width:0.25;stroke-linecap:round;stroke-linejoin:round" />
      </g>
      <g
         id="g2966">
        <path
           d="M 56.633,154.296 L 56.63,166.617 L 46.11,166.617 C 41.128,166.647 46.064,175.203 37.43,176.666 C 36.295,171.438 35.702,166.012 35.702,160.448 C 35.703,154.89 36.298,149.466 37.42,144.217 C 45.93,145.824 41.261,154.266 46.111,154.296 L 56.633,154.296 z"
           sodipodi:nodetypes="ccsccccc"
           id="path3411_9_"
           style="stroke:#000000;stroke-width:0.25;stroke-linecap:round;stroke-linejoin:round" />
        <path
           d="M 184.034,154.295 C 188.885,154.265 184.216,145.823 192.726,144.216 C 193.847,149.465 194.442,154.889 194.444,160.447 C 194.445,166.011 193.852,171.438 192.716,176.665 C 184.082,175.203 189.018,166.645 184.036,166.616 L 173.517,166.616 L 173.514,154.295 L 184.034,154.295 z"
           sodipodi:nodetypes="ccsccccc"
           id="path3411_8_"
           style="stroke:#000000;stroke-width:0.25;stroke-linecap:round;stroke-linejoin:round" />
        <path
           d="M 108.933,218.876 L 121.254,218.879 L 121.254,229.399 C 121.284,234.381 129.839,229.444 131.301,238.079 C 126.075,239.214 120.647,239.807 115.084,239.806 C 109.526,239.805 104.102,239.211 98.853,238.088 C 100.46,229.578 108.902,234.247 108.932,229.396 L 108.933,218.876 z"
           sodipodi:nodetypes="ccsccccc"
           id="path3411_7_"
           style="stroke:#000000;stroke-width:0.25;stroke-linecap:round;stroke-linejoin:round" />
        <path
           d="M 108.931,91.476 C 108.902,86.625 100.46,91.294 98.853,82.784 C 104.102,81.662 109.526,81.068 115.083,81.066 C 120.647,81.066 126.074,81.658 131.301,82.793 C 129.839,91.428 121.283,86.491 121.253,91.473 L 121.254,101.993 L 108.933,101.995 L 108.931,91.476 z"
           sodipodi:nodetypes="ccsccccc"
           id="path3411_6_"
           style="stroke:#000000;stroke-width:0.25;stroke-linecap:round;stroke-linejoin:round" />
        <path
           d="M 69.408,197.418 L 78.118,206.132 L 70.68,213.57 C 67.178,217.114 76.719,219.674 71.647,226.813 C 67.148,223.92 62.891,220.5 58.959,216.566 C 55.029,212.635 51.614,208.379 48.696,203.874 C 55.849,198.993 58.518,208.264 61.968,204.855 L 69.408,197.418 z"
           sodipodi:nodetypes="ccsccccc"
           id="path3411_5_"
           style="stroke:#000000;stroke-width:0.25;stroke-linecap:round;stroke-linejoin:round" />
        <path
           d="M 159.492,107.331 C 162.901,103.88 153.631,101.212 158.512,94.059 C 163.016,96.976 167.272,100.392 171.203,104.321 C 175.138,108.255 178.557,112.511 181.45,117.01 C 174.31,122.081 171.751,112.54 168.207,116.043 L 160.768,123.482 L 152.054,114.771 L 159.492,107.331 z"
           sodipodi:nodetypes="ccsccccc"
           id="path3411_4_"
           style="stroke:#000000;stroke-width:0.25;stroke-linecap:round;stroke-linejoin:round" />
        <path
           d="M 152.055,206.101 L 160.769,197.391 L 168.208,204.829 C 171.751,208.33 174.311,198.789 181.451,203.861 C 178.557,208.36 175.138,212.617 171.204,216.55 C 167.273,220.479 163.017,223.895 158.513,226.812 C 153.632,219.659 162.902,216.99 159.493,213.54 L 152.055,206.101 z"
           sodipodi:nodetypes="ccsccccc"
           id="path3411_3_"
           style="stroke:#000000;stroke-width:0.25;stroke-linecap:round;stroke-linejoin:round" />
        <path
           d="M 61.968,116.017 C 58.518,112.608 55.849,121.879 48.696,116.997 C 51.613,112.492 55.029,108.237 58.958,104.305 C 62.891,100.371 67.148,96.952 71.647,94.059 C 76.718,101.199 67.177,103.757 70.679,107.302 L 78.118,114.74 L 69.408,123.454 L 61.968,116.017 z"
           sodipodi:nodetypes="ccsccccc"
           id="path3411_1_"
           style="stroke:#000000;stroke-width:0.25;stroke-linecap:round;stroke-linejoin:round" />
        <path
           d="M 127.66,154.296 L 127.66,147.879 L 121.243,147.879 L 121.243,97.941 L 108.903,97.941 L 108.903,147.879 L 102.486,147.879 L 102.486,154.296 L 52.548,154.296 L 52.548,166.636 L 102.486,166.636 L 102.486,173.053 L 108.903,173.053 L 108.903,222.991 L 121.244,222.991 L 121.244,173.053 L 127.661,173.053 L 127.661,166.636 L 177.599,166.636 L 177.599,154.296 L 127.66,154.296 L 127.66,154.296 z M 121.243,166.636 L 108.904,166.636 L 108.904,154.297 L 121.243,154.297 L 121.243,166.636 z"
           id="path2485_1_"
           style="stroke:#000000;stroke-width:0.25;stroke-linecap:round;stroke-linejoin:round" />
        <path
           d="M 184.225,160.463 C 184.225,122.292 153.246,91.315 115.072,91.315 C 76.9,91.315 45.92,122.292 45.92,160.463 L 45.925,160.47 L 45.92,160.47 C 45.92,198.641 76.9,229.619 115.072,229.619 C 153.245,229.619 184.225,198.641 184.225,160.47 L 184.22,160.47 L 184.225,160.463 z M 115.072,216.952 C 83.882,216.952 58.56,191.651 58.528,160.471 L 58.514,160.471 L 58.528,160.465 C 58.561,129.283 83.882,103.983 115.072,103.983 C 146.264,103.983 171.575,129.283 171.608,160.465 L 171.614,160.471 L 171.608,160.471 C 171.576,191.651 146.264,216.952 115.072,216.952 z"
           id="path2487_1_"
           style="stroke:#000000;stroke-width:0.25;stroke-linecap:round;stroke-linejoin:round" />
      </g>
      <g
         id="g2990">
        <path
           d="M 556.885,154.295 C 561.736,154.265 557.067,145.823 565.576,144.216 C 566.699,149.465 567.293,154.889 567.295,160.447 C 567.295,166.011 566.703,171.438 565.567,176.665 C 556.932,175.203 561.87,166.646 556.887,166.616 L 546.367,166.616 L 546.364,154.295 L 556.885,154.295 z"
           sodipodi:nodetypes="ccsccccc"
           id="path3411_24_"
           style="stroke:#000000;stroke-width:0.25;stroke-linecap:round;stroke-linejoin:round" />
        <path
           d="M 429.484,154.296 L 429.481,166.617 L 418.961,166.617 C 413.979,166.646 418.915,175.203 410.28,176.666 C 409.144,171.438 408.552,166.012 408.553,160.448 C 408.555,154.89 409.149,149.466 410.271,144.217 C 418.781,145.823 414.112,154.266 418.962,154.296 L 429.484,154.296 z"
           sodipodi:nodetypes="ccsccccc"
           id="path3411_23_"
           style="stroke:#000000;stroke-width:0.25;stroke-linecap:round;stroke-linejoin:round" />
        <path
           d="M 494.066,229.396 C 494.097,234.247 502.538,229.578 504.146,238.088 C 498.897,239.211 493.472,239.805 487.915,239.806 C 482.352,239.807 476.923,239.214 471.697,238.079 C 473.16,229.444 481.714,234.381 481.745,229.398 L 481.745,218.878 L 494.065,218.875 L 494.066,229.396 z"
           sodipodi:nodetypes="ccsccccc"
           id="path3411_22_"
           style="stroke:#000000;stroke-width:0.25;stroke-linecap:round;stroke-linejoin:round" />
        <path
           d="M 494.065,101.995 L 481.745,101.993 L 481.746,91.473 C 481.715,86.491 473.16,91.428 471.697,82.792 C 476.924,81.658 482.351,81.065 487.916,81.065 C 493.473,81.066 498.897,81.661 504.146,82.783 C 502.539,91.293 494.097,86.624 494.067,91.475 L 494.065,101.995 z"
           sodipodi:nodetypes="ccsccccc"
           id="path3411_21_"
           style="stroke:#000000;stroke-width:0.25;stroke-linecap:round;stroke-linejoin:round" />
        <path
           d="M 541.029,204.856 C 544.479,208.264 547.148,198.993 554.301,203.875 C 551.382,208.38 547.968,212.636 544.038,216.567 C 540.104,220.502 535.848,223.92 531.35,226.814 C 526.279,219.674 535.82,217.115 532.318,213.57 L 524.879,206.132 L 533.589,197.418 L 541.029,204.856 z"
           sodipodi:nodetypes="ccsccccc"
           id="path3411_20_"
           style="stroke:#000000;stroke-width:0.25;stroke-linecap:round;stroke-linejoin:round" />
        <path
           d="M 450.943,114.771 L 442.228,123.481 L 434.79,116.042 C 431.247,112.54 428.687,122.081 421.547,117.01 C 424.441,112.511 427.86,108.254 431.795,104.321 C 435.725,100.392 439.981,96.977 444.485,94.058 C 449.367,101.212 440.096,103.88 443.506,107.331 L 450.943,114.771 z"
           sodipodi:nodetypes="ccsccccc"
           id="path3411_13_"
           style="stroke:#000000;stroke-width:0.25;stroke-linecap:round;stroke-linejoin:round" />
        <path
           d="M 443.506,213.541 C 440.097,216.992 449.367,219.661 444.485,226.813 C 439.98,223.895 435.724,220.48 431.795,216.551 C 427.859,212.618 424.441,208.361 421.547,203.862 C 428.688,198.79 431.247,208.332 434.79,204.83 L 442.228,197.392 L 450.943,206.101 L 443.506,213.541 z"
           sodipodi:nodetypes="ccsccccc"
           id="path3411_12_"
           style="stroke:#000000;stroke-width:0.25;stroke-linecap:round;stroke-linejoin:round" />
        <path
           d="M 533.589,123.454 L 524.879,114.741 L 532.319,107.302 C 535.82,103.758 526.279,101.198 531.35,94.059 C 535.848,96.952 540.105,100.371 544.039,104.305 C 547.968,108.237 551.382,112.493 554.301,116.997 C 547.149,121.878 544.48,112.607 541.03,116.016 L 533.589,123.454 z"
           sodipodi:nodetypes="ccsccccc"
           id="path3411_10_"
           style="stroke:#000000;stroke-width:0.25;stroke-linecap:round;stroke-linejoin:round" />
        <path
           d="M 475.338,154.296 L 425.4,154.296 L 425.4,166.637 L 475.338,166.637 L 475.338,173.054 L 481.754,173.054 L 481.754,222.992 L 494.096,222.992 L 494.096,173.054 L 500.512,173.054 L 500.512,166.637 L 550.45,166.637 L 550.45,154.296 L 500.512,154.296 L 500.512,147.879 L 494.096,147.879 L 494.096,97.941 L 481.755,97.941 L 481.755,147.879 L 475.338,147.879 L 475.338,154.296 L 475.338,154.296 z M 481.755,154.297 L 494.095,154.297 L 494.095,166.636 L 481.755,166.636 L 481.755,154.297 z"
           id="path2485_2_"
           style="stroke:#000000;stroke-width:0.25;stroke-linecap:round;stroke-linejoin:round" />
        <path
           d="M 418.777,160.47 L 418.772,160.47 C 418.772,198.641 449.751,229.619 487.925,229.619 C 526.097,229.619 557.077,198.64 557.077,160.47 L 557.072,160.47 L 557.077,160.463 C 557.077,122.292 526.097,91.315 487.925,91.315 C 449.751,91.315 418.772,122.293 418.772,160.463 L 418.777,160.47 z M 431.39,160.47 L 431.385,160.47 L 431.39,160.464 C 431.423,129.282 456.735,103.982 487.926,103.982 C 519.115,103.982 544.438,129.282 544.471,160.464 L 544.485,160.47 L 544.471,160.47 C 544.438,191.651 519.116,216.952 487.926,216.952 C 456.734,216.952 431.423,191.651 431.39,160.47 z"
           id="path2487_2_"
           style="stroke:#000000;stroke-width:0.25;stroke-linecap:round;stroke-linejoin:round" />
      </g>
    </g>
  </g>
  <g
     inkscape:groupmode="layer"
     id="layer3"
     inkscape:label="Reflet final"
     style="display:inline"
     sodipodi:insensitive="true">
    <path
       style="fill:url(#radialGradient3236);fill-opacity:1"
       d="M 1.5,1.5 L 1.5,460.3679 C 1.5,626.67854 135.81454,761.5 301.49993,761.5 C 467.1854,761.5 601.5,626.67854 601.5,460.3679 L 601.5,1.5 L 1.5,1.5 z "
       id="path2346" />
  </g>
  <g
     inkscape:groupmode="layer"
     id="layer4"
     inkscape:label="Contour final"
     style="display:inline"
     sodipodi:insensitive="true">
    <path
       style="fill:none;fill-opacity:1;stroke:#000000;stroke-width:3;stroke-miterlimit:4;stroke-dasharray:none;stroke-opacity:1"
       d="M 1.5,1.5 L 1.5,460.36794 C 1.5,626.67854 135.81454,761.5 301.49993,761.5 C 467.1854,761.5 601.5,626.67854 601.5,460.36794 L 601.5,1.5 L 1.5,1.5 z "
       id="path3239" />
  </g>
</svg>
