<?xml version="1.0" encoding="UTF-8" standalone="no"?>
<svg
   xmlns:dc="http://purl.org/dc/elements/1.1/"
   xmlns:cc="http://creativecommons.org/ns#"
   xmlns:rdf="http://www.w3.org/1999/02/22-rdf-syntax-ns#"
   xmlns:svg="http://www.w3.org/2000/svg"
   xmlns="http://www.w3.org/2000/svg"
   xmlns:xlink="http://www.w3.org/1999/xlink"
   xmlns:sodipodi="http://sodipodi.sourceforge.net/DTD/sodipodi-0.dtd"
   xmlns:inkscape="http://www.inkscape.org/namespaces/inkscape"
   height="763"
   width="603"
   version="1.0"
   id="svg20"
   sodipodi:version="0.32"
   inkscape:version="0.46"
   sodipodi:docname="Les_Cullayes-coat_of_arms.svg"
   sodipodi:docbase="C:\Documents and Settings\Steve\Bureau\Blason Villages Suisse pour Wikipédia (par Delta-9)"
   inkscape:output_extension="org.inkscape.output.svg.inkscape">
  <metadata
     id="metadata31">
    <rdf:RDF>
      <cc:Work
         rdf:about="">
        <dc:format>image/svg+xml</dc:format>
        <dc:type
           rdf:resource="http://purl.org/dc/dcmitype/StillImage" />
        <dc:date>07-AUG-2006</dc:date>
        <dc:creator>
          <cc:Agent>
            <dc:title>Jérôme BLUM (wagner51)</dc:title>
          </cc:Agent>
        </dc:creator>
        <cc:license
           rdf:resource="http://creativecommons.org/licenses/GPL/2.0/" />
        <dc:coverage />
        <dc:description>Gabarit pour le Projet:Blasons de WIkipédia</dc:description>
        <dc:subject>
          <rdf:Bag>
            <rdf:li>blason suisse modèle gabarit projet blasons</rdf:li>
          </rdf:Bag>
        </dc:subject>
        <dc:language>fr</dc:language>
        <dc:title>Gabrit d'un blason suisse</dc:title>
      </cc:Work>
      <cc:License
         rdf:about="http://creativecommons.org/licenses/GPL/2.0/">
        <cc:permits
           rdf:resource="http://web.resource.org/cc/Reproduction" />
        <cc:permits
           rdf:resource="http://web.resource.org/cc/Distribution" />
        <cc:requires
           rdf:resource="http://web.resource.org/cc/Notice" />
        <cc:permits
           rdf:resource="http://web.resource.org/cc/DerivativeWorks" />
        <cc:requires
           rdf:resource="http://web.resource.org/cc/ShareAlike" />
        <cc:requires
           rdf:resource="http://web.resource.org/cc/SourceCode" />
      </cc:License>
    </rdf:RDF>
  </metadata>
  <defs
     id="defs29"><inkscape:perspective
   sodipodi:type="inkscape:persp3d"
   inkscape:vp_x="0 : 381.5 : 1"
   inkscape:vp_y="0 : 1000 : 0"
   inkscape:vp_z="603 : 381.5 : 1"
   inkscape:persp3d-origin="301.5 : 254.33333 : 1"
   id="perspective28" />
<linearGradient
   id="linearGradient2893">
  <stop
     style="stop-color:#ffffff;stop-opacity:0.3137255;"
     offset="0"
     id="stop2895" />
  <stop
     id="stop2897"
     offset="0.19"
     style="stop-color:#ffffff;stop-opacity:0.25098041;" />
  <stop
     style="stop-color:#6b6b6b;stop-opacity:0.1254902;"
     offset="0.60000002"
     id="stop2901" />
  <stop
     style="stop-color:#000000;stop-opacity:0.1254902;"
     offset="1"
     id="stop2899" />
</linearGradient>
<linearGradient
   id="linearGradient2955">
  <stop
     style="stop-color:white;stop-opacity:0;"
     offset="0"
     id="stop2965" />
  <stop
     style="stop-color:black;stop-opacity:0.64583331;"
     offset="1"
     id="stop2959" />
</linearGradient>
<radialGradient
   inkscape:collect="always"
   xlink:href="#linearGradient2893"
   id="radialGradient3236"
   gradientUnits="userSpaceOnUse"
   gradientTransform="matrix(1.215027,1.531577e-24,1.464684e-23,1.266667,-839.1924,-490.4894)"
   cx="858.04236"
   cy="579.93323"
   fx="858.04236"
   fy="579.93323"
   r="300" />
<inkscape:perspective
   id="perspective2610"
   inkscape:persp3d-origin="297.63751 : 280.63 : 1"
   inkscape:vp_z="595.27502 : 420.94501 : 1"
   inkscape:vp_y="0 : 1000 : 0"
   inkscape:vp_x="0 : 420.94501 : 1"
   sodipodi:type="inkscape:persp3d" />

	
	
	

	
	

		
		
			
		
		
	
		
		
		
		
		
		
		
			
		
			
		
			
		
			
		
			
		
			
		
			
		
			
		
			
		
			
		
			
	
		
		
		
	
			
			
		
			
			
			
			
			
			
			
			
			
		
			
				
			
				
		
				
					
				
					
				
			
				
					
				
					
				
			</defs>
  <sodipodi:namedview
     inkscape:window-height="968"
     inkscape:window-width="1280"
     inkscape:pageshadow="2"
     inkscape:pageopacity="0.0"
     guidetolerance="10.0"
     gridtolerance="10.0"
     objecttolerance="10.0"
     borderopacity="1.0"
     bordercolor="#666666"
     pagecolor="#ffffff"
     id="base"
     inkscape:zoom="0.92652193"
     inkscape:cx="173.53758"
     inkscape:cy="399.00713"
     inkscape:window-x="1280"
     inkscape:window-y="22"
     inkscape:current-layer="layer2"
     showgrid="false"
     showguides="true"
     inkscape:guide-bbox="true">
    <sodipodi:guide
       orientation="horizontal"
       position="761.5"
       id="guide1885" />
    <sodipodi:guide
       orientation="vertical"
       position="1.5"
       id="guide1887" />
    <sodipodi:guide
       orientation="horizontal"
       position="1.5"
       id="guide1889" />
    <sodipodi:guide
       orientation="vertical"
       position="601.5"
       id="guide1891" />
    <sodipodi:guide
       orientation="vertical"
       position="301.50081"
       id="guide1893" />
  </sodipodi:namedview>
  <desc
     id="desc22">Coat of Arms of Canton of Freiburg (Fribourg)</desc>
  <g
     inkscape:groupmode="layer"
     id="layer1"
     inkscape:label="Fond écu"
     style="opacity:1;display:inline"
     sodipodi:insensitive="true">
    <path
       d="M 1.5,1.5 L 1.5,460.369 C 1.5,626.68 135.814,761.5 301.5,761.5 C 467.188,761.5 601.5,626.68 601.5,460.369 L 601.5,1.5 L 1.5,1.5 z"
       id="path2833"
       style="opacity:1;fill:#e20909" />
    <path
       d="M 1.5,1.5 L 1.5,460.369 C 1.5,510.527 13.732,557.81 35.342,599.406 L 601.497,1.5 L 1.5,1.5 z"
       id="path2835"
       style="opacity:1;fill:#2b5df2" />
  </g>
  <g
     inkscape:groupmode="layer"
     id="layer2"
     inkscape:label="Meubles"
     style="opacity:1;display:inline"
     sodipodi:insensitive="true">
    <path
       style="fill:#fcef3c"
       d="M 10.672,534.504 C 23.176,584.08 47.935,628.746 81.517,665.088 L 601.499,117.14 L 601.499,1.5 L 516.474,1.5 L 10.672,534.504 z"
       id="path2533" />
    <path
       style="fill:none;stroke:#000000;stroke-width:3"
       d="M 81.517,665.088 L 601.499,117.14"
       id="path2535" />
    <path
       style="fill:none;stroke:#000000;stroke-width:3"
       d="M 516.474,1.5 L 10.672,534.504"
       id="path2537" />
    <g
       id="g2857">
      <path
         d="M 389.566,468.983 C 398.369,441.311 387.828,400.647 387.828,400.647 C 387.828,400.647 414.03,424.145 451.497,424.145 C 488.968,424.145 515.168,400.647 515.168,400.647 C 515.168,400.647 504.629,441.311 513.431,468.983 C 522.236,496.657 554.518,521.751 554.518,521.751 C 554.518,521.751 510.084,525.598 489.146,540.921 C 468.207,556.245 451.5,596.599 451.5,596.599 C 451.5,596.599 434.445,556.723 413.508,541.398 C 392.57,526.074 348.483,521.752 348.483,521.752 C 348.483,521.752 380.764,496.657 389.566,468.983 z"
         stroke-miterlimit="10"
         id="path2867_1_"
         style="fill:#fcef3c;stroke:#000000;stroke-width:3;stroke-miterlimit:10" />
      <path
         d="M 416.877,413.434 C 422.029,406.425 432.803,399.274 451.496,399.274 C 470.191,399.274 480.964,406.428 486.121,413.434 C 491.272,420.443 492.08,430.408 487.065,437.922 C 482.049,445.438 451.499,489.108 451.499,489.108 C 451.499,489.108 420.948,445.438 415.934,437.922 C 410.915,430.406 411.72,420.443 416.877,413.434 z"
         stroke-miterlimit="10"
         id="path2871_1_"
         style="fill:#fcef3c;stroke:#000000;stroke-width:3;stroke-miterlimit:10" />
      <path
         d="M 512.765,432.794 C 521.024,435.529 531.157,443.565 536.933,461.346 C 542.711,479.124 539.238,491.582 534.161,498.651 C 529.088,505.717 519.862,509.563 511.166,507.113 C 502.469,504.668 451.496,489.105 451.496,489.105 C 451.496,489.105 483.585,446.555 489.183,439.46 C 494.783,432.369 504.506,430.061 512.765,432.794 z"
         stroke-miterlimit="10"
         id="path2873_1_"
         style="fill:#fcef3c;stroke:#000000;stroke-width:3;stroke-miterlimit:10" />
      <path
         d="M 523.984,529.975 C 523.934,538.675 519.426,550.792 504.3,561.784 C 489.172,572.775 476.253,573.319 467.964,570.68 C 459.673,568.035 453.165,560.451 452.804,551.422 C 452.447,542.394 451.494,489.109 451.494,489.109 C 451.494,489.109 501.878,506.479 510.352,509.612 C 518.833,512.739 524.035,521.276 523.984,529.975 z"
         stroke-miterlimit="10"
         id="path2875_1_"
         style="fill:#fcef3c;stroke:#000000;stroke-width:3;stroke-miterlimit:10" />
      <path
         d="M 435.027,570.679 C 426.738,573.319 413.819,572.775 398.692,561.785 C 383.568,550.797 379.058,538.676 379.006,529.974 C 378.958,521.275 384.162,512.738 392.637,509.61 C 401.112,506.477 451.495,489.107 451.495,489.107 C 451.495,489.107 450.545,542.395 450.184,551.42 C 449.826,560.453 443.318,568.035 435.027,570.679 z"
         stroke-miterlimit="10"
         id="path2877_1_"
         style="fill:#fcef3c;stroke:#000000;stroke-width:3;stroke-miterlimit:10" />
      <path
         d="M 368.828,498.651 C 363.754,491.583 360.282,479.125 366.057,461.346 C 371.836,443.566 381.968,435.53 390.227,432.794 C 398.486,430.058 408.213,432.37 413.806,439.464 C 419.406,446.557 451.495,489.107 451.495,489.107 C 451.495,489.107 400.523,504.668 391.825,507.117 C 383.131,509.565 373.904,505.717 368.828,498.651 z"
         stroke-miterlimit="10"
         id="path2879_1_"
         style="fill:#fcef3c;stroke:#000000;stroke-width:3;stroke-miterlimit:10" />
      <path
         d="M 451.496,418.247 L 451.496,465.846"
         stroke-miterlimit="10"
         id="path2883_1_"
         style="fill:#fcef3c;stroke:#000000;stroke-width:3;stroke-linecap:round;stroke-linejoin:round;stroke-miterlimit:10" />
      <path
         d="M 481.152,425.701 C 481.152,425.701 479.906,417.657 472.713,415.397 C 464.943,412.955 458.148,418.249 451.497,418.249 C 444.849,418.249 438.059,412.955 430.285,415.397 C 423.092,417.657 421.847,425.701 421.847,425.701"
         stroke-miterlimit="10"
         id="path2885_1_"
         style="fill:none;stroke:#000000;stroke-width:3;stroke-linecap:round;stroke-linejoin:round;stroke-miterlimit:10" />
      <path
         d="M 518.888,467.208 L 473.617,481.918"
         stroke-miterlimit="10"
         id="path2887_1_"
         style="fill:#fcef3c;stroke:#000000;stroke-width:3;stroke-linecap:round;stroke-linejoin:round;stroke-miterlimit:10" />
      <path
         d="M 520.963,497.712 C 520.963,497.712 528.227,494.044 528.155,486.503 C 528.074,478.358 520.94,473.532 518.884,467.208 C 516.831,460.884 519.767,452.787 515.041,446.152 C 510.669,440.008 502.636,441.31 502.636,441.31"
         stroke-miterlimit="10"
         id="path2889_1_"
         style="fill:none;stroke:#000000;stroke-width:3;stroke-linecap:round;stroke-linejoin:round;stroke-miterlimit:10" />
      <path
         d="M 493.149,546.431 L 465.17,507.922"
         stroke-miterlimit="10"
         id="path2891_1_"
         style="fill:#fcef3c;stroke:#000000;stroke-width:3;stroke-linecap:round;stroke-linejoin:round;stroke-miterlimit:10" />
      <path
         d="M 464.775,557.834 C 464.775,557.834 470.512,563.607 477.659,561.21 C 485.38,558.617 487.766,550.341 493.147,546.434 C 498.526,542.527 507.134,542.814 511.984,536.272 C 516.476,530.212 512.755,522.975 512.755,522.975"
         stroke-miterlimit="10"
         id="path2893_1_"
         style="fill:none;stroke:#000000;stroke-width:3;stroke-linecap:round;stroke-linejoin:round;stroke-miterlimit:10" />
      <path
         d="M 409.846,546.431 L 437.825,507.922"
         stroke-miterlimit="10"
         id="path2895_1_"
         style="fill:#fcef3c;stroke:#000000;stroke-width:3;stroke-linecap:round;stroke-linejoin:round;stroke-miterlimit:10" />
      <path
         d="M 390.236,522.975 C 390.236,522.975 386.516,530.212 391.006,536.268 C 395.858,542.814 404.467,542.525 409.846,546.431 C 415.222,550.339 417.609,558.615 425.333,561.206 C 432.481,563.605 438.215,557.83 438.215,557.83"
         stroke-miterlimit="10"
         id="path2897_1_"
         style="fill:none;stroke:#000000;stroke-width:3;stroke-linecap:round;stroke-linejoin:round;stroke-miterlimit:10" />
      <path
         d="M 384.108,467.208 L 429.377,481.918"
         stroke-miterlimit="10"
         id="path2899_1_"
         style="fill:#fcef3c;stroke:#000000;stroke-width:3;stroke-linecap:round;stroke-linejoin:round;stroke-miterlimit:10" />
      <path
         d="M 400.358,441.311 C 400.358,441.311 392.325,440.01 387.951,446.155 C 383.227,452.791 386.163,460.888 384.108,467.21 C 382.051,473.533 374.918,478.361 374.84,486.508 C 374.769,494.045 382.031,497.716 382.031,497.716"
         stroke-miterlimit="10"
         id="path2901_1_"
         style="fill:none;stroke:#000000;stroke-width:3;stroke-linecap:round;stroke-linejoin:round;stroke-miterlimit:10" />
      <circle
         transform="translate(-3.8e-2,-4.5e-2)"
         r="29.475"
         cy="489.151"
         cx="451.534"
         stroke-miterlimit="10"
         sodipodi:cx="451.534"
         sodipodi:rx="29.475"
         sodipodi:cy="489.151"
         sodipodi:ry="29.475"
         id="circle2903_1_"
         style="fill:#fcef3c;stroke:#000000;stroke-width:3;stroke-miterlimit:10">
		</circle>
    </g>
    <g
       id="g2837">
      <path
         style="fill:#ffffff;stroke:#000000;stroke-width:3;stroke-linecap:round;stroke-linejoin:round;stroke-miterlimit:10"
         stroke-miterlimit="10"
         d="M 133.813,164.9 C 132.582,151.927 121.526,135.859 105.33,130.646 C 105.33,130.646 125.746,155.462 121.868,183.824 L 121.87,183.846 C 115.593,175.61 106.949,167.033 97.884,161.548 C 97.467,161.296 97.07,161.037 96.662,160.782 C 89.795,155.956 89.793,141.431 89.793,138.464 C 89.793,131.762 92.671,120.22 96.767,114.263 C 96.767,114.263 73.596,121.817 80.344,147.8 C 64.634,131.857 59.533,113.666 59.533,101.975 C 59.533,86.71 63.628,78.146 79.266,69.955 C 102.365,57.856 107.005,31.791 107.005,31.791 C 98.255,43.892 74.426,64.37 66.234,64.37 C 54.692,64.37 53.203,28.253 53.203,28.253 C 44.267,47.8 49.852,63.159 49.852,63.159 C 35.61,55.34 39.519,26.577 39.519,26.577 C 39.519,26.577 30.863,36.443 30.863,48.916 C 30.863,62.599 41.614,73.63 46.221,78.237 C 50.828,82.844 49.293,88.29 49.293,99.181 C 49.293,121.008 58.352,141.52 70.527,157.032 L 70.525,157.03 C 48.827,159.476 37.379,141.999 37.379,141.999 C 36.634,147.957 40.497,158.939 50.596,165.083 C 66.867,174.981 76.1,166.479 91.09,176.53 L 91.09,176.53 C 100.888,182.986 117.988,191.551 117.988,206.597 L 124.69,209.204 L 140.142,200.082 C 140.143,183.888 136.233,190.405 133.813,164.9 z"
         id="path2561" />
      <path
         style="fill:#ffffff;stroke:#000000;stroke-width:3;stroke-linecap:round;stroke-linejoin:round;stroke-miterlimit:10"
         stroke-miterlimit="10"
         d="M 169.185,164.9 C 170.415,151.927 181.472,135.859 197.668,130.646 C 197.668,130.646 177.252,155.462 181.13,183.824 L 181.128,183.846 C 187.405,175.61 196.049,167.033 205.114,161.548 C 205.531,161.296 205.928,161.037 206.336,160.782 C 213.202,155.956 213.205,141.431 213.205,138.464 C 213.205,131.762 210.327,120.22 206.232,114.263 C 206.232,114.263 229.402,121.817 222.655,147.8 C 238.365,131.857 243.465,113.666 243.465,101.975 C 243.465,86.71 239.37,78.146 223.732,69.955 C 200.633,57.856 195.994,31.791 195.994,31.791 C 204.744,43.892 228.573,64.37 236.764,64.37 C 248.307,64.37 249.796,28.253 249.796,28.253 C 258.732,47.8 253.147,63.159 253.147,63.159 C 267.388,55.34 263.479,26.577 263.479,26.577 C 263.479,26.577 272.135,36.443 272.135,48.916 C 272.135,62.599 261.384,73.63 256.777,78.237 C 252.169,82.844 253.704,88.29 253.704,99.181 C 253.704,121.008 244.645,141.52 232.47,157.032 L 232.472,157.03 C 254.17,159.476 265.618,141.999 265.618,141.999 C 266.363,147.957 262.5,158.939 252.401,165.083 C 236.13,174.981 226.897,166.479 211.907,176.53 L 211.907,176.53 C 202.11,182.986 185.01,191.551 185.01,206.597 L 178.307,209.204 L 162.856,200.082 C 162.855,183.888 166.764,190.405 169.185,164.9 z"
         id="path2563" />
      <path
         id="path2565"
         d="M 223.545,203.063 C 203.746,199.334 191.826,206.823 186.836,205.874 L 186.814,205.882 C 179.504,199.508 166.819,196.174 151.501,196.174 C 136.182,196.174 123.497,199.508 116.187,205.882 L 116.165,205.874 C 111.175,206.823 99.255,199.334 79.456,203.063 C 66.61,205.482 49.855,192.824 38.312,190.962 C 38.312,190.962 48.272,203.528 61.21,216.468 C 73.45,228.707 88.69,239.77 109.055,234.942 C 109.287,239.181 109.774,243.73 110.544,248.488 C 112.865,262.817 117.06,270.828 122.459,277.717 C 127.169,283.726 130.465,288.328 130.465,299.87 C 130.465,311.412 134.001,327.981 151.501,327.981 C 169.001,327.981 172.537,311.412 172.537,299.87 C 172.537,288.328 175.832,283.725 180.542,277.717 C 185.941,270.828 190.135,262.817 192.457,248.488 C 193.228,243.73 193.714,239.181 193.946,234.942 C 214.311,239.77 229.551,228.707 241.791,216.468 C 254.729,203.529 264.689,190.962 264.689,190.962 C 253.146,192.825 236.391,205.483 223.545,203.063 z"
         stroke-miterlimit="10"
         style="fill:#ffffff;stroke:#000000;stroke-width:3;stroke-linecap:round;stroke-linejoin:round;stroke-miterlimit:10" />
      <path
         style="fill:none;stroke:#000000;stroke-width:3;stroke-linecap:round;stroke-linejoin:round;stroke-miterlimit:10"
         stroke-miterlimit="10"
         d="M 203.812,212.372 C 195.621,212.372 195.622,217.212 189.198,218.794"
         id="path2569" />
      <path
         style="fill:none;stroke:#000000;stroke-width:3;stroke-linecap:round;stroke-linejoin:round;stroke-miterlimit:10"
         stroke-miterlimit="10"
         d="M 99.187,212.372 C 107.378,212.372 107.377,217.212 113.8,218.794"
         id="path2571" />
      <path
         style="fill:none;stroke:#000000;stroke-width:3;stroke-linecap:round;stroke-linejoin:round;stroke-miterlimit:10"
         stroke-miterlimit="10"
         d="M 119.851,237.69 C 119.851,237.69 146.287,247.185 143.866,282.556"
         id="path2573" />
      <path
         style="fill:none;stroke:#000000;stroke-width:3;stroke-linecap:round;stroke-linejoin:round;stroke-miterlimit:10"
         stroke-miterlimit="10"
         d="M 183.147,237.69 C 183.147,237.69 156.711,247.185 159.132,282.556"
         id="path2575" />
      <path
         style="fill:none;stroke:#000000;stroke-width:3;stroke-linecap:round;stroke-linejoin:round;stroke-miterlimit:10"
         stroke-miterlimit="10"
         d="M 137.816,310.714 C 140.608,307.921 145.077,311.551 143.541,316.439"
         id="path2577" />
      <path
         style="fill:none;stroke:#000000;stroke-width:3;stroke-linecap:round;stroke-linejoin:round;stroke-miterlimit:10"
         stroke-miterlimit="10"
         d="M 165.182,310.714 C 162.39,307.921 157.922,311.551 159.458,316.439"
         id="path2579" />
      <path
         style="fill:none;stroke:#000000;stroke-width:3;stroke-linecap:round;stroke-linejoin:round;stroke-miterlimit:10"
         stroke-miterlimit="10"
         d="M 145.355,305.268 C 141.704,301.617 137.785,301.164 134.578,302.34"
         id="path2581" />
      <path
         style="fill:none;stroke:#000000;stroke-width:3;stroke-linecap:round;stroke-linejoin:round;stroke-miterlimit:10"
         stroke-miterlimit="10"
         d="M 168.407,302.335 C 165.203,301.166 161.289,301.621 157.642,305.268"
         id="path2583" />
      <path
         style="fill:none;stroke:#000000;stroke-width:3;stroke-linecap:round;stroke-linejoin:round;stroke-miterlimit:10"
         stroke-miterlimit="10"
         d="M 163.477,324.305 C 163.477,324.305 158.202,321.464 151.499,321.464 C 144.796,321.464 139.521,324.305 139.521,324.305"
         id="path2585" />
      <path
         id="path2591"
         d="M 171.233,258.544 C 172.087,259.397 179.49,260.482 180.347,253.8 C 180.88,249.644 175.582,249.43 172.938,253.215 C 170.89,256.145 170.488,257.797 171.233,258.544 z"
         stroke-miterlimit="10"
         style="fill:#ffffff;stroke:#000000;stroke-width:3;stroke-linecap:round;stroke-linejoin:round;stroke-miterlimit:10" />
      <ellipse
         id="ellipse2593"
         ry="3.9790001"
         rx="1.538"
         cy="255.00101"
         cx="175.784"
         transform="matrix(0.9997,-2.56e-2,2.56e-2,0.9997,-6.4983,4.5312)"
         sodipodi:cx="175.784"
         sodipodi:cy="255.00101"
         sodipodi:rx="1.538"
         sodipodi:ry="3.9790001"
         style="stroke:#000000;stroke-width:0.5" />
      <path
         id="path2595"
         d="M 176.951,253.248 C 176.802,252.527 176.452,251.999 176.175,252.067 C 175.897,252.135 175.795,252.773 175.946,253.493 C 176.097,254.213 176.445,254.743 176.722,254.674 C 177.001,254.607 177.104,253.969 176.951,253.248 z"
         style="fill:#ffffff" />
      <path
         id="path2599"
         d="M 131.765,258.544 C 130.911,259.397 123.508,260.482 122.651,253.801 C 122.117,249.644 127.415,249.43 130.06,253.214 C 132.108,256.145 132.51,257.797 131.765,258.544 z"
         stroke-miterlimit="10"
         style="fill:#ffffff;stroke:#000000;stroke-width:3;stroke-linecap:round;stroke-linejoin:round;stroke-miterlimit:10" />
      <ellipse
         id="ellipse2601"
         ry="3.9790001"
         rx="1.538"
         cy="255.00101"
         cx="127.289"
         transform="matrix(-0.9997,-2.52e-2,2.52e-2,-0.9997,248.0623,513.0883)"
         sodipodi:cx="127.289"
         sodipodi:cy="255.00101"
         sodipodi:rx="1.538"
         sodipodi:ry="3.9790001"
         style="stroke:#000000;stroke-width:0.5" />
      <path
         id="path2603"
         d="M 126.046,253.248 C 126.196,252.527 126.545,251.999 126.823,252.067 C 127.101,252.135 127.203,252.773 127.052,253.493 C 126.901,254.213 126.552,254.743 126.275,254.674 C 125.997,254.607 125.895,253.969 126.046,253.248 z"
         style="fill:#ffffff" />
    </g>
  </g>
  <g
     inkscape:groupmode="layer"
     id="layer3"
     inkscape:label="Reflet final"
     style="display:inline"
     sodipodi:insensitive="true">
    <path
       style="fill:url(#radialGradient3236);fill-opacity:1"
       d="M 1.5,1.5 L 1.5,460.3679 C 1.5,626.67854 135.81454,761.5 301.49993,761.5 C 467.1854,761.5 601.5,626.67854 601.5,460.3679 L 601.5,1.5 L 1.5,1.5 z"
       id="path2346" />
  </g>
  <g
     inkscape:groupmode="layer"
     id="layer4"
     inkscape:label="Contour final"
     style="display:inline"
     sodipodi:insensitive="true">
    <path
       style="fill:none;fill-opacity:1;stroke:#000000;stroke-width:3;stroke-miterlimit:4;stroke-dasharray:none;stroke-opacity:1"
       d="M 1.5,1.5 L 1.5,460.36794 C 1.5,626.67854 135.81454,761.5 301.49993,761.5 C 467.1854,761.5 601.5,626.67854 601.5,460.36794 L 601.5,1.5 L 1.5,1.5 z "
       id="path3239" />
  </g>
</svg>
