<?xml version="1.0" encoding="UTF-8"?>
<svg version="1.0" viewBox="0 0 603 763" xmlns="http://www.w3.org/2000/svg" xmlns:cc="http://web.resource.org/cc/" xmlns:dc="http://purl.org/dc/elements/1.1/" xmlns:rdf="http://www.w3.org/1999/02/22-rdf-syntax-ns#" xmlns:xlink="http://www.w3.org/1999/xlink">
<metadata>
<rdf:RDF>
<cc:Work rdf:about="">
<dc:format>image/svg+xml</dc:format>
<dc:type rdf:resource="http://purl.org/dc/dcmitype/StillImage"/>
<dc:date>07-AUG-2006</dc:date>
<dc:creator>
<cc:Agent>
<dc:title>Jérôme BLUM (wagner51)</dc:title>
</cc:Agent>
</dc:creator>
<cc:license rdf:resource="http://creativecommons.org/licenses/GPL/2.0/"/>
<dc:coverage/>
<dc:description>Gabarit pour le Projet:Blasons de WIkipédia</dc:description>
<dc:subject>
<rdf:Bag>
<rdf:li>blason suisse modèle gabarit projet blasons</rdf:li>
</rdf:Bag>
</dc:subject>
<dc:language>fr</dc:language>
<dc:title>Gabrit d'un blason suisse</dc:title>
</cc:Work>
<cc:License rdf:about="http://creativecommons.org/licenses/GPL/2.0/">
<cc:permits rdf:resource="http://web.resource.org/cc/Reproduction"/>
<cc:permits rdf:resource="http://web.resource.org/cc/Distribution"/>
<cc:requires rdf:resource="http://web.resource.org/cc/Notice"/>
<cc:permits rdf:resource="http://web.resource.org/cc/DerivativeWorks"/>
<cc:requires rdf:resource="http://web.resource.org/cc/ShareAlike"/>
<cc:requires rdf:resource="http://web.resource.org/cc/SourceCode"/>
</cc:License>
</rdf:RDF>
</metadata>
<defs>
<radialGradient id="a" cx="858.04" cy="579.93" r="300" gradientTransform="matrix(1.215 1.5316e-24 1.4647e-23 1.2667 -839.19 -490.49)" gradientUnits="userSpaceOnUse">
<stop stop-color="#fff" stop-opacity=".31373" offset="0"/>
<stop stop-color="#fff" stop-opacity=".25098" offset=".19"/>
<stop stop-color="#6b6b6b" stop-opacity=".12549" offset=".6"/>
<stop stop-opacity=".12549" offset="1"/>
</radialGradient>
</defs>
<desc>Coat of Arms of Canton of Freiburg (Fribourg)</desc>
<g>
<path d="m1.5 1.5v458.87c0 166.31 134.31 301.13 300 301.13 165.69 0 300-134.82 300-301.13v-458.87h-600z" fill="#fff"/>
<g transform="matrix(3.9254 0 0 3.9254 -2430 -2223.6)" stroke-width="1px">
<path d="m683.47 621.82c-3.1861-3.0195-6.7538-4.5126-10.235-6.3523-4.752-2.8497-3.1578-6.3012-8.2349-8.4698-4.0286-1.7207-11.2-0.3446-15.514-3.5682-6.8736-5.1365-12.231-4.2714-12.486-1.4318l0.64769 7.4698-0.64769-7.4698-12-3c0.00707 2.019 1.3744 4.038 2.5872 6.0569l9.7082-0.11743-9.7082 0.11743-3.5302 1e-5c7.9702 10.033 7.1351 9.6249 16.943 6.9431l-0.9395 4c4.1635-1.8978 8.182-4.666 12.94-3 4.0795 1.2249 5.8999 5.1407 10.477 5.6513 4.8866 0.54505 6.4544 10.124 14.523 16.349-0.55598-5.4123 1.6484-9.6416 5.4698-13.178z" fill-rule="evenodd" stroke="#fff"/>
<path d="m726.88 579.7c3.3851-3.8079 10.456-3.9062 15.409 2.9431 4.565-0.92789 9.509 4.3382 9.4697 8.879 4.3582 3.0124 5.5148 7.2698 4.2384 12.473l-6.8826 17.886c-1.2566 4.7683-4.4376 7.8047-8.8221 9.758-0.9106 5.0572-9.0806 8.6872-14.295 4.3559 25.736-18.447 17.074-39.571 0.88256-56.295z" fill-rule="evenodd" stroke="#fff"/>
<path d="m707 658.94c7.3879-7.4639 17.643-10.786 27.769-14.295-6.1515-3.2388-11.901-6.8791-17.114-11.057-0.22013-2.824-0.82245-5.5631-3.8256-7.7687 3.3648-6.039 4.6742-14.207 4.2954-23.053-7.8444-1.8192-9.4138-5.9846-10.42-12.466 0.99043 6.56 2.5655 10.656 10.42 12.466 2.5919 0.39119 6.1264-0.00552 10.285-2.1139l-8.0534-6.1246-7.5338-6.7616 7.5338 6.7616c32.983 6.6348 33.585 41.112 18.473 56.996 7.9516 2.1002 12.72-2.1667 15.352-10.705 4.4799-2.1005 6.7703-5.9527 5-13.053 3.462-5.4363 3.2375-10.346-2.0641-14.53 1.9797-5.9619-1.6939-12.142-6.879-12.466-0.43555-4.371-3.3064-10.874-9.4128-10.587-1.0929-5.1091-5.5357-9.6509-11.947-8.7082-5.8734-6.2281-12.611-6.0607-20.05-0.70462-7.0767-0.88028-14.271-4.1044-21.057 0.82206-6.9241 0.50889-21.104-5.0442-21.712 1.4092-2.2816 0.32454-2.0168 5.3094-1.4092 7.4662 11.221-1.6433 16.325 0.79709 19.178 5.3523-12.079-6.8544-24.609 2.0014-33.826-11.694-2.8906 2.6244-4.9221 8.6025 3.7082 12.349 9.7684 3.3008 11.731-2.4298 30.117-0.65483 1.0142 2.7491-12.213 4.9606-17.584 3.2384 4.3364 12.209 13.289-1.0807 29.327 8.1708 5.5698 2.4649 11.531 0.46793 12.719-3.5231-1.2262 4.0969-7.2008 6.0014-12.719 3.5231-10.507 15.316-19.011 14.986-18.221 30.303 6.5302 5.9593 8.9911-1.218 12.886-3.2384-3.9283 2.0256-6.4058 9.1523-12.886 3.2384-1.7361-1.2088-2.9715-1.8371-5.6711-4.0111-1.9102-1.5383-7.0405-11.784-15.034-2.7504-8.019 6.1908-17.818 0.25812-20.52 7.5836l3.0534 5.2349-3.0534-5.2349-11.947 5.5872 5.4698 2.7687 8.0534-5.7046-8.0534 5.7046-3.3559 2.3487c9.5321 4.2693 11.639 3.0799 17.299-3.1708l2.4662 3.4733c1.9548-5.71 6.0211-8.7546 12.534-11.125 6.4234-2.3374 13.04 6.9313 18.473 11.996 8.0749 7.5271 14.879 3.601 19.58 0.35231l4.363-3.9431-4.363 3.9431 10.352 8.3559z" fill-rule="evenodd" stroke="#fff"/>
<path d="m685 602c-0.24107 3.0231-2.2645 5.6006-5 8 5.8063 0.13961 9.2626-2.0707 11-6" fill="none" stroke="#000"/>
<path d="m685.71 585c2.1175-0.79616 3.421-1.1694 5.2918-1-0.19989 2.3436 1.9361 4.1912 4.1174 4.0605-1.1685-0.98595-1.9676-2.6794-1.4698-4.0605 2.6602 0.48154 5.6777 0.98777 8.6441 3-2.4354 5.8854-12.974 5.1453-16.584-2z" fill="#fff" fill-rule="evenodd" stroke="#000"/>
</g>
<path d="m1.8438 385.03c-0.12217 0.6395-0.22437 1.2692-0.34375 1.9062v73.438c0 77.902 29.484 148.88 77.844 202.34 0.034811 0.03848 0.058919 0.08653 0.09375 0.125 1.2688 1.1812 2.5533 2.3318 3.8438 3.5-2.2387-18.763 27.605-43.625 21.469-72.062-15.102-69.988 13.699-51.926 22.375-99.812 6.9713-38.479-19.472-42.442 14.094-103.44 2.4036 62.375 44.873 68.235 30.688 105.69-27.772 73.322 38.064 67.17 21.906 131.88-18.356 73.506 19.372 31.02 22.719 117.19 38.325-38.977-14.685-55.516 33.188-110.06 27.142-30.926-14.115-89.51 24.719-127.47 33.571-32.815-21.252-71.209 31.594-119.22-7.0944 51.294 40.184 61.392 23.312 109.16-22.419 63.471 47.48 53.005 28.656 127.94-18.363 73.098 35.344 44.395 23.312 121.22 40.422-34.02 1.4842-83.104 27.25-126.72 35.154-44.373-26.101-64.356 15.469-120.25 27.6-37.111-18.622-57.861 31.156-111.34 0.69241 23.395 6.4404 40.79 18.219 66.188 23.254 50.144-20.61 69.674 21.031 106.16 20.292 17.777-8.0692 65.029 28.312 102.34 48.899-53.577 78.75-124.96 78.75-203.34v-75.344h-599.66z" fill="#5ab532" fill-rule="evenodd" stroke="#000" stroke-width="4.0594px"/>
<path d="m1.5 1.5v458.87c0 166.31 134.31 301.13 300 301.13 165.69 0 300-134.82 300-301.13v-458.87h-600z" fill="url(#a)"/>
<path d="m1.5 1.5v458.87c0 166.31 134.31 301.13 300 301.13 165.69 0 300-134.82 300-301.13v-458.87h-600z" fill="none" stroke="#000" stroke-width="3"/>
</g>
</svg>
