<?xml version="1.0" encoding="UTF-8" standalone="no"?>
<svg
   xmlns:dc="http://purl.org/dc/elements/1.1/"
   xmlns:cc="http://creativecommons.org/ns#"
   xmlns:rdf="http://www.w3.org/1999/02/22-rdf-syntax-ns#"
   xmlns:svg="http://www.w3.org/2000/svg"
   xmlns="http://www.w3.org/2000/svg"
   xmlns:xlink="http://www.w3.org/1999/xlink"
   xmlns:sodipodi="http://sodipodi.sourceforge.net/DTD/sodipodi-0.dtd"
   xmlns:inkscape="http://www.inkscape.org/namespaces/inkscape"
   height="763"
   width="603"
   version="1.0"
   id="svg20"
   sodipodi:version="0.32"
   inkscape:version="0.46"
   sodipodi:docname="Chateau_dOex-coat_of_arms.svg"
   sodipodi:docbase="C:\Documents and Settings\Steve\Bureau\Blason Villages Suisse pour Wikipédia (par Delta-9)"
   inkscape:output_extension="org.inkscape.output.svg.inkscape">
  <metadata
     id="metadata31">
    <rdf:RDF>
      <cc:Work
         rdf:about="">
        <dc:format>image/svg+xml</dc:format>
        <dc:type
           rdf:resource="http://purl.org/dc/dcmitype/StillImage" />
        <dc:date>07-AUG-2006</dc:date>
        <dc:creator>
          <cc:Agent>
            <dc:title>Jérôme BLUM (wagner51)</dc:title>
          </cc:Agent>
        </dc:creator>
        <cc:license
           rdf:resource="http://creativecommons.org/licenses/GPL/2.0/" />
        <dc:coverage />
        <dc:description>Gabarit pour le Projet:Blasons de WIkipédia</dc:description>
        <dc:subject>
          <rdf:Bag>
            <rdf:li>blason suisse modèle gabarit projet blasons</rdf:li>
          </rdf:Bag>
        </dc:subject>
        <dc:language>fr</dc:language>
        <dc:title>Gabrit d'un blason suisse</dc:title>
      </cc:Work>
      <cc:License
         rdf:about="http://creativecommons.org/licenses/GPL/2.0/">
        <cc:permits
           rdf:resource="http://web.resource.org/cc/Reproduction" />
        <cc:permits
           rdf:resource="http://web.resource.org/cc/Distribution" />
        <cc:requires
           rdf:resource="http://web.resource.org/cc/Notice" />
        <cc:permits
           rdf:resource="http://web.resource.org/cc/DerivativeWorks" />
        <cc:requires
           rdf:resource="http://web.resource.org/cc/ShareAlike" />
        <cc:requires
           rdf:resource="http://web.resource.org/cc/SourceCode" />
      </cc:License>
    </rdf:RDF>
  </metadata>
  <defs
     id="defs29"><inkscape:perspective
   sodipodi:type="inkscape:persp3d"
   inkscape:vp_x="0 : 381.5 : 1"
   inkscape:vp_y="0 : 1000 : 0"
   inkscape:vp_z="603 : 381.5 : 1"
   inkscape:persp3d-origin="301.5 : 254.33333 : 1"
   id="perspective28" />
<linearGradient
   id="linearGradient2893">
  <stop
     style="stop-color:#ffffff;stop-opacity:0.3137255;"
     offset="0"
     id="stop2895" />
  <stop
     id="stop2897"
     offset="0.19"
     style="stop-color:#ffffff;stop-opacity:0.25098041;" />
  <stop
     style="stop-color:#6b6b6b;stop-opacity:0.1254902;"
     offset="0.60000002"
     id="stop2901" />
  <stop
     style="stop-color:#000000;stop-opacity:0.1254902;"
     offset="1"
     id="stop2899" />
</linearGradient>
<linearGradient
   id="linearGradient2955">
  <stop
     style="stop-color:white;stop-opacity:0;"
     offset="0"
     id="stop2965" />
  <stop
     style="stop-color:black;stop-opacity:0.64583331;"
     offset="1"
     id="stop2959" />
</linearGradient>
<radialGradient
   inkscape:collect="always"
   xlink:href="#linearGradient2893"
   id="radialGradient3236"
   gradientUnits="userSpaceOnUse"
   gradientTransform="matrix(1.215027,1.531577e-24,1.464684e-23,1.266667,-839.1924,-490.4894)"
   cx="858.04236"
   cy="579.93323"
   fx="858.04236"
   fy="579.93323"
   r="300" />
<inkscape:perspective
   id="perspective2905"
   inkscape:persp3d-origin="297.63751 : 280.63 : 1"
   inkscape:vp_z="595.27502 : 420.94501 : 1"
   inkscape:vp_y="0 : 1000 : 0"
   inkscape:vp_x="0 : 420.94501 : 1"
   sodipodi:type="inkscape:persp3d" />

	
	

	

		
		
	
		
		
		
		
	
			
			
			
			
			
			
			
			
			
			
			
			
			
			
			
			
			
			
		
			
			
		
			
			
			
		
			
				
			
				
			
			
			
		
				
				
				
			
				
					
				
					
				
					
				
					
				
					
				
					
				
					
				
					
				
					
				
					
				
					
				
					
				
					
				
					
				
					
			
				
				
			
				
					
				
					
				
					
				
					
				
					
				
					
				
					
				
					
				
					
				
					
				
					
				
					
				
					
				
					
				
					
				
					
				
					
				
					
				
					
				
					
				
					
				
					
				
					
				
					
				
					
				
					
				
					
			
				
				
				
			
					
					
				
						
							
						
							
						
						
						
							
						
							
					</defs>
  <sodipodi:namedview
     inkscape:window-height="895"
     inkscape:window-width="1224"
     inkscape:pageshadow="2"
     inkscape:pageopacity="0.0"
     guidetolerance="10.0"
     gridtolerance="10.0"
     objecttolerance="10.0"
     borderopacity="1.0"
     bordercolor="#666666"
     pagecolor="#ffffff"
     id="base"
     inkscape:zoom="0.73699205"
     inkscape:cx="321.36743"
     inkscape:cy="382.66873"
     inkscape:window-x="20"
     inkscape:window-y="42"
     inkscape:current-layer="layer2"
     showgrid="false"
     showguides="true"
     inkscape:guide-bbox="true">
    <sodipodi:guide
       orientation="horizontal"
       position="761.5"
       id="guide1885" />
    <sodipodi:guide
       orientation="vertical"
       position="1.5"
       id="guide1887" />
    <sodipodi:guide
       orientation="horizontal"
       position="1.5"
       id="guide1889" />
    <sodipodi:guide
       orientation="vertical"
       position="601.5"
       id="guide1891" />
    <sodipodi:guide
       orientation="vertical"
       position="301.50081"
       id="guide1893" />
  </sodipodi:namedview>
  <desc
     id="desc22">Coat of Arms of Canton of Freiburg (Fribourg)</desc>
  <g
     inkscape:groupmode="layer"
     id="layer1"
     inkscape:label="Fond écu"
     style="opacity:1;display:inline"
     sodipodi:insensitive="true">
    <path
       id="path1899"
       d="M 1.5,1.49998 L 1.5,460.3679 C 1.5,626.6785 135.81456,761.5 301.49999,761.5 C 467.18543,761.5 601.5,626.6785 601.5,460.3679 L 601.5,1.49998 L 1.5,1.49998 z"
       style="fill:#e20909;fill-opacity:1" />
  </g>
  <g
     inkscape:groupmode="layer"
     id="layer2"
     inkscape:label="Meubles"
     style="opacity:1;display:inline"
     sodipodi:insensitive="true">
    <path
       id="path2716"
       d="M 245.839,350.443 L 222.103,344.484 C 222.103,344.484 181.722,345.772 165.508,342.297 C 157.644,340.611 154.695,342.156 149.217,337.943 C 143.74,333.73 129.555,322.916 127.449,318.562 C 125.343,314.208 121.831,308.17 116.074,308.17 C 110.316,308.17 98.519,314.349 93.603999,324.882 C 93.603999,324.882 102.732,319.265 109.614,320.528 C 116.496,321.792 114.389,326.426 116.496,328.533 C 118.602,330.64 136.438,348.195 142.758,349.037 C 142.758,349.037 132.225,348.194 122.956,350.02 C 113.687,351.846 110.878,349.177 107.086,346.93 C 103.294,344.683 95.990999,344.824 90.092999,350.722 C 84.194999,356.62 83.140999,364.836 86.019999,367.715 C 86.019999,367.715 90.232999,355.356 97.395999,359.569 C 104.558,363.782 120.287,364.063 129.837,362.378 C 139.387,360.693 142.757,359.991 142.757,359.991 C 142.757,359.991 131.382,370.664 122.394,376.422 C 113.406,382.18 109.192,393.415 115.372,406.616 C 115.372,406.616 115.512,395.943 122.815,393.274 C 130.118,390.606 150.341,374.174 154.695,363.501 C 154.695,363.501 161.576,372.77 168.598,379.792 C 175.62,386.814 181.799,388.559 181.799,398.47 C 181.799,403.105 179.131,405.773 179.131,405.773 C 179.131,405.773 190.647,403.667 190.647,390.606 C 190.647,380.494 184.327,379.371 180.536,375.579 C 176.744,371.787 169.441,359.569 164.807,356.199 C 164.807,356.199 176.323,357.603 202.585,361.676 C 228.847,365.749 240.855,369.33 249.21,360.974 C 257.565,352.618 245.839,350.443 245.839,350.443 z"
       style="fill:#ffffff;stroke:#000000;stroke-width:3;stroke-linecap:round;stroke-linejoin:round" />
    <path
       id="path2718"
       d="M 298.925,344.545 C 298.925,344.545 288.532,342.298 295.835,358.589 C 303.138,374.88 319.429,405.214 317.182,432.178 C 317.182,432.178 311.705,426.701 304.402,419.399 C 297.1,412.096 297.521,406.338 290.921,406.338 C 284.321,406.338 278.001,409.989 276.034,416.871 C 276.034,416.871 281.441,410.2 288.112,416.871 C 294.783,423.542 310.232,438.99 310.232,438.99 C 310.232,438.99 297.522,436.813 287.972,434.707 C 278.422,432.601 270.417,433.583 266.063,437.936 C 261.709,442.29 259.603,451.559 260.867,455.631 C 260.867,455.631 267.327,445.942 276.596,444.677 C 285.865,443.413 295.836,450.435 310.582,445.24 C 310.582,445.24 298.224,451.138 290.078,452.261 C 281.932,453.384 273.928,458.58 277.298,471.361 C 277.298,471.361 281.23,461.109 287.269,461.109 C 293.308,461.109 311.706,458.581 318.306,454.649 C 324.907,450.716 325.232,447.635 333.473,450.716 C 349.623,456.755 359.875,452.402 365.633,462.372 C 365.633,462.372 373.287,455.701 365.212,447.626 C 361.49,443.904 355.298,446.747 345.691,443.904 C 338.81,441.868 331.367,440.323 331.367,440.323 C 331.367,440.323 338.397,405.417 314.374,359.15 C 306.789,344.545 298.925,344.545 298.925,344.545 z"
       style="fill:#ffffff;stroke:#000000;stroke-width:3;stroke-linecap:round;stroke-linejoin:round" />
    <path
       style="fill:#ffffff;stroke:#000000;stroke-width:3;stroke-linecap:round;stroke-linejoin:round"
       d="M 278.14,352.69 C 288.813,358.729 287.69,382.884 287.69,382.884 C 302.436,372.632 305.526,358.869 305.526,358.869 C 317.955,371.298 330.665,372.211 330.665,372.211 C 330.665,372.211 328.839,359.291 324.485,347.915 C 320.131,336.539 307.632,324.696 307.632,324.696 C 328.979,348.29 352.76,345.106 352.76,345.106 C 351.824,328.066 340.402,314.397 340.402,314.397 C 360.437,330.126 381.597,324.696 381.597,324.696 C 379.206,311.76 371.387,302.105 363.233,295.695 C 384.9,303.357 411.894,311.682 434.027,311.682 C 469.699,311.682 483.462,280.505 483.462,280.505 C 471.225,281.492 434.857,278.636 403.102,275.068 C 431.185,270.855 477.143,262.037 496.102,249.609 C 521.381,233.037 521.1,201.859 521.1,201.859 C 510.146,217.588 419.999,234.757 419.999,234.757 C 475.425,210.9 502.843,174.538 502.843,156.638 C 502.843,134.449 490.765,125.46 490.765,125.46 C 490.765,125.46 492.451,137.819 479.531,155.514 C 470.215,168.273 437.949,188.883 412.055,203.625 C 440.283,176.693 463.24,149.79 463.24,129.393 C 463.24,100.182 446.106,90.913003 446.106,90.913003 C 446.106,98.216003 442.455,116.192 419.422,147.088 C 409.967,159.773 397.907,172.41 386.102,183.367 C 404.186,157.226 419.142,126.763 419.142,113.945 C 419.142,97.373003 409.311,82.767 391.897,75.745 C 399.48,102.99 388.526,116.473 374.763,137.819 C 372.861,140.769 370.733,143.987 368.48,147.343 C 370.806,133.159 371.591,114.415 368.865,102.147 C 364.932,84.452 343.586,80.238 343.586,80.238 C 348.642,115.067 332.352,143.716 315.103,167.352 C 298.51,139.609 265.297,121.714 244.343,121.714 C 257.075,115.161 255.766,101.678 255.766,101.678 C 254.081,105.611 244.343,110.853 236.478,111.977 C 230.736,112.797 222.623,110.475 206.519,110.475 C 202.309,110.475 198.295,110.744 194.909,111.603 C 182.363,114.786 174.873,124.71 175.81,131.077 C 151.093,137.443 121.32,147.743 105.778,153.922 C 90.235999,160.101 94.542999,172.46 94.542999,172.46 C 94.542999,172.46 130.682,156.356 186.296,148.21 C 186.296,148.21 184.892,153.266 172.252,158.883 C 159.612,164.501 114.391,184.162 114.391,184.162 C 114.391,184.162 125.626,188.094 146.692,180.51 C 167.757,172.927 185.172,164.781 192.475,160.287 C 192.475,160.287 197.531,162.815 207.08,162.815 C 224.121,162.815 229.738,153.359 234.981,153.359 C 246.145,153.359 275.253,158.145 290.878,189.989 C 291.765,191.797 292.607,194.334 292.607,196.472 C 292.607,200.779 288.066,205.039 281.793,205.039 C 277.113,205.039 270.558,203.167 259.136,203.167 C 218.877,203.167 171.408,209.72 171.408,264.491 C 171.408,319.262 208.203,334.429 238.538,355.215 C 238.538,355.215 239.381,367.854 235.729,377.404 C 235.729,377.404 242.208,370.696 251.177,365.608 C 264.377,358.121 271.306,354.75 278.14,352.69 z"
       id="path2720" />
    <path
       id="path2724"
       d="M 315.101,167.353 C 321.344,177.791 325.235,189.623 325.235,202.42 C 325.235,207.575 324.172,213.534 323.089,218.26"
       style="fill:none;stroke:#000000;stroke-width:3;stroke-linecap:round;stroke-linejoin:round" />
    <path
       id="path2726"
       d="M 419.998,234.757 C 406.717,240.474 391.828,245.473 375.323,249.328"
       style="fill:none;stroke:#000000;stroke-width:3;stroke-linecap:round;stroke-linejoin:round" />
    <path
       id="path2728"
       d="M 335.439,194.556 C 335.439,194.556 354.422,168.271 368.479,147.344"
       style="fill:none;stroke:#000000;stroke-width:3;stroke-linecap:round;stroke-linejoin:round" />
    <path
       id="path2730"
       d="M 357.112,207.538 C 365.216,201.596 375.558,193.151 386.1,183.366"
       style="fill:none;stroke:#000000;stroke-width:3;stroke-linecap:round;stroke-linejoin:round" />
    <path
       id="path2732"
       d="M 386.559,217.307 C 392.971,214.155 402.036,209.329 412.054,203.625"
       style="fill:none;stroke:#000000;stroke-width:3;stroke-linecap:round;stroke-linejoin:round" />
    <path
       id="path2734"
       d="M 367.459,270.393 C 377.063,271.921 389.669,273.558 403.101,275.068"
       style="fill:none;stroke:#000000;stroke-width:3;stroke-linecap:round;stroke-linejoin:round" />
    <path
       id="path2736"
       d="M 346.955,286.871 C 351.274,288.128 357.341,291.064 363.232,295.695"
       style="fill:none;stroke:#000000;stroke-width:3;stroke-linecap:round;stroke-linejoin:round" />
    <path
       id="path2738"
       d="M 249.912,330.642 C 253.423,341.596 267.467,346.652 278.14,352.691"
       style="fill:none;stroke:#000000;stroke-width:3;stroke-linecap:round;stroke-linejoin:round" />
    <path
       id="path2740"
       d="M 333.473,258.784 C 327.293,260.282 316.434,258.784 316.434,258.784"
       style="fill:none;stroke:#000000;stroke-width:3;stroke-linecap:round;stroke-linejoin:round" />
    <path
       id="path2742"
       d="M 286.285,282.752 C 286.285,282.752 281.604,276.76 270.369,278.445"
       style="fill:none;stroke:#000000;stroke-width:3;stroke-linecap:round;stroke-linejoin:round" />
    <path
       id="path2744"
       d="M 281.979,232.943 C 281.979,232.943 294.898,235.565 299.206,247.174 C 299.206,247.174 290.218,243.803 278.795,247.174 C 278.795,247.174 291.716,253.541 293.213,266.835 C 293.213,266.835 286.284,263.652 277.109,263.652"
       style="fill:none;stroke:#000000;stroke-width:3;stroke-linecap:round;stroke-linejoin:round" />
    <path
       id="path2746"
       d="M 235.54,290.429 C 225.616,282.377 215.504,270.019 215.504,254.29 C 215.504,238.561 228.236,228.075 260.631,222.832 C 293.026,217.589 315.962,226.14 357.111,207.54 C 357.111,207.54 362.308,229.011 329.726,240.621 C 329.726,240.621 340.586,238.187 346.954,233.318 C 346.954,233.318 352.639,254.139 333.472,258.785 C 333.472,258.785 336.632,258.878 339.721,257.755 C 339.721,257.755 342.647,283.689 305.946,286.685"
       style="fill:none;stroke:#000000;stroke-width:3;stroke-linecap:round;stroke-linejoin:round" />
    <path
       id="path2748"
       d="M 352.198,128.269 C 352.198,128.269 345.535,158.009 323.4,187.331"
       style="fill:none;stroke:#000000;stroke-width:3;stroke-linecap:round;stroke-linejoin:round" />
    <path
       id="path2750"
       d="M 383.282,152.986 C 383.282,152.986 364.412,187.073 343.137,213.097"
       style="fill:none;stroke:#000000;stroke-width:3;stroke-linecap:round;stroke-linejoin:round" />
    <path
       id="path2752"
       d="M 419.983,173.209 C 419.983,173.209 388.154,204.179 354.26,222.586"
       style="fill:none;stroke:#000000;stroke-width:3;stroke-linecap:round;stroke-linejoin:round" />
    <path
       id="path2754"
       d="M 425.601,210.286 C 425.601,210.286 395.641,232.007 367.928,239.497"
       style="fill:none;stroke:#000000;stroke-width:3;stroke-linecap:round;stroke-linejoin:round" />
    <path
       id="path2756"
       d="M 424.477,254.477 C 424.477,254.477 400.883,261.217 372.796,259.345"
       style="fill:none;stroke:#000000;stroke-width:3;stroke-linecap:round;stroke-linejoin:round" />
    <path
       id="path2758"
       d="M 414.365,293.05 C 414.365,293.05 390.022,288.93 370.549,281.815"
       style="fill:none;stroke:#000000;stroke-width:3;stroke-linecap:round;stroke-linejoin:round" />
    <circle
       sodipodi:ry="5.0560002"
       sodipodi:rx="5.0560002"
       sodipodi:cy="131.825"
       sodipodi:cx="198.549"
       cx="198.549"
       cy="131.825"
       r="5.0560002"
       id="circle2760"
       transform="translate(-3.80013e-2,-4.5e-2)" />
    <rect
       id="rect2766"
       height="30.334999"
       width="280.12799"
       y="584.039"
       x="98.285004"
       style="fill:#fcef3c;stroke:#000000;stroke-width:3;stroke-linecap:round;stroke-linejoin:round" />
    <rect
       id="rect2768"
       height="85.013"
       width="275.634"
       y="499.02701"
       x="102.779"
       style="fill:#fcef3c;stroke:#000000;stroke-width:3;stroke-linecap:round;stroke-linejoin:round" />
    <line
       style="fill:none;stroke:#000000;stroke-width:3;stroke-linecap:round;stroke-linejoin:round"
       x1="157.90601"
       y1="499.02701"
       x2="157.90601"
       y2="527.36499"
       id="line2772" />
    <line
       style="fill:none;stroke:#000000;stroke-width:3;stroke-linecap:round;stroke-linejoin:round"
       x1="213.03201"
       y1="499.02701"
       x2="213.03201"
       y2="527.36499"
       id="line2774" />
    <line
       style="fill:none;stroke:#000000;stroke-width:3;stroke-linecap:round;stroke-linejoin:round"
       x1="268.159"
       y1="499.02701"
       x2="268.159"
       y2="527.36499"
       id="line2776" />
    <line
       style="fill:none;stroke:#000000;stroke-width:3;stroke-linecap:round;stroke-linejoin:round"
       x1="323.28601"
       y1="499.02701"
       x2="323.28601"
       y2="527.36499"
       id="line2778" />
    <line
       style="fill:none;stroke:#000000;stroke-width:3;stroke-linecap:round;stroke-linejoin:round"
       x1="130.34201"
       y1="555.70203"
       x2="130.34201"
       y2="527.36499"
       id="line2780" />
    <line
       style="fill:none;stroke:#000000;stroke-width:3;stroke-linecap:round;stroke-linejoin:round"
       x1="185.46901"
       y1="555.70203"
       x2="185.46901"
       y2="527.36499"
       id="line2782" />
    <line
       style="fill:none;stroke:#000000;stroke-width:3;stroke-linecap:round;stroke-linejoin:round"
       x1="240.59601"
       y1="555.70203"
       x2="240.59601"
       y2="527.36499"
       id="line2784" />
    <line
       style="fill:none;stroke:#000000;stroke-width:3;stroke-linecap:round;stroke-linejoin:round"
       x1="295.72299"
       y1="555.70203"
       x2="295.72299"
       y2="527.36499"
       id="line2786" />
    <line
       style="fill:none;stroke:#000000;stroke-width:3;stroke-linecap:round;stroke-linejoin:round"
       x1="350.85001"
       y1="555.70203"
       x2="350.85001"
       y2="527.36499"
       id="line2788" />
    <line
       style="fill:none;stroke:#000000;stroke-width:3;stroke-linecap:round;stroke-linejoin:round"
       x1="157.90601"
       y1="555.70203"
       x2="157.90601"
       y2="584.039"
       id="line2790" />
    <line
       style="fill:none;stroke:#000000;stroke-width:3;stroke-linecap:round;stroke-linejoin:round"
       x1="213.03201"
       y1="555.70203"
       x2="213.03201"
       y2="584.039"
       id="line2792" />
    <line
       style="fill:none;stroke:#000000;stroke-width:3;stroke-linecap:round;stroke-linejoin:round"
       x1="268.159"
       y1="555.70203"
       x2="268.159"
       y2="584.039"
       id="line2794" />
    <line
       style="fill:none;stroke:#000000;stroke-width:3;stroke-linecap:round;stroke-linejoin:round"
       x1="323.28601"
       y1="555.70203"
       x2="323.28601"
       y2="584.039"
       id="line2796" />
    <line
       style="fill:none;stroke:#000000;stroke-width:3;stroke-linecap:round;stroke-linejoin:round"
       x1="102.779"
       y1="527.36499"
       x2="378.41299"
       y2="527.36499"
       id="line2798" />
    <line
       style="fill:none;stroke:#000000;stroke-width:3;stroke-linecap:round;stroke-linejoin:round"
       x1="378.41299"
       y1="555.70203"
       x2="102.779"
       y2="555.70203"
       id="line2800" />
    <polygon
       id="polygon2802"
       points="360.475,478.101 360.475,459.75 338.285,459.75 338.285,478.101 312.482,478.101 312.482,459.75 290.293,459.75 290.293,478.101 264.49,478.101 264.49,459.75 242.301,459.75 242.301,478.101 216.498,478.101 216.498,459.75 194.308,459.75 194.308,478.101 168.505,478.101 168.505,459.75 146.316,459.75 146.316,478.101 120.513,478.101 120.513,459.75 98.323,459.75 98.323,499.072 378.451,499.072 378.451,478.101 360.475,478.101 "
       style="fill:#fcef3c;stroke:#000000;stroke-width:3;stroke-linecap:round;stroke-linejoin:round"
       transform="translate(-3.80013e-2,-4.5e-2)" />
    <path
       d="M 185.469,502.709 C 182.616,502.709 180.303,505.022 180.303,507.874 L 180.303,518.205 L 190.634,518.205 L 190.634,507.874 C 190.634,505.022 188.322,502.709 185.469,502.709 z"
       id="path2806" />
    <path
       d="M 240.596,502.709 C 237.743,502.709 235.43,505.022 235.43,507.874 L 235.43,518.205 L 245.762,518.205 L 245.762,507.874 C 245.762,505.022 243.449,502.709 240.596,502.709 z"
       id="path2808" />
    <path
       d="M 295.723,502.709 C 292.87,502.709 290.557,505.022 290.557,507.874 L 290.557,518.205 L 300.888,518.205 L 300.888,507.874 C 300.889,505.022 298.576,502.709 295.723,502.709 z"
       id="path2810" />
    <polygon
       style="fill:#fcef3c;stroke:#000000;stroke-width:3;stroke-linecap:round;stroke-linejoin:round"
       points="477.882,596.818 477.882,377.452 378.451,377.452 378.451,596.818 364.407,596.818 364.407,619.849 491.926,619.849 491.926,596.818 477.882,596.818 "
       id="polygon2816"
       transform="translate(-3.80013e-2,-4.5e-2)" />
    <polygon
       style="fill:#fcef3c;stroke:#000000;stroke-width:3;stroke-linecap:round;stroke-linejoin:round"
       points="364.407,366.498 378.451,377.452 477.882,377.452 491.926,366.498 364.407,366.498 "
       id="polygon2818"
       transform="translate(-3.80013e-2,-4.5e-2)" />
    <polygon
       style="fill:#fcef3c;stroke:#000000;stroke-width:3;stroke-linecap:round;stroke-linejoin:round"
       points="469.736,328.299 469.736,343.466 456.815,343.466 456.815,328.299 434.627,328.299 434.627,343.466 421.706,343.466 421.706,328.299 399.517,328.299 399.517,343.466 386.597,343.466 386.597,328.299 364.407,328.299 364.407,366.498 491.926,366.498 491.926,328.299 469.736,328.299 "
       id="polygon2820"
       transform="translate(-3.80013e-2,-4.5e-2)" />
    <line
       style="fill:none;stroke:#000000;stroke-width:3;stroke-linecap:round;stroke-linejoin:round"
       x1="428.12799"
       y1="399.34402"
       x2="428.12799"
       y2="421.28003"
       id="line2824" />
    <line
       style="fill:none;stroke:#000000;stroke-width:3;stroke-linecap:round;stroke-linejoin:round"
       x1="428.12799"
       y1="443.21701"
       x2="428.12799"
       y2="465.15302"
       id="line2826" />
    <line
       style="fill:none;stroke:#000000;stroke-width:3;stroke-linecap:round;stroke-linejoin:round"
       x1="428.12799"
       y1="487.09003"
       x2="428.12799"
       y2="509.02698"
       id="line2828" />
    <line
       style="fill:none;stroke:#000000;stroke-width:3;stroke-linecap:round;stroke-linejoin:round"
       x1="428.12799"
       y1="530.96204"
       x2="428.12799"
       y2="549.30402"
       id="line2830" />
    <line
       style="fill:none;stroke:#000000;stroke-width:3;stroke-linecap:round;stroke-linejoin:round"
       x1="378.41299"
       y1="399.34402"
       x2="477.84399"
       y2="399.34402"
       id="line2832" />
    <line
       style="fill:none;stroke:#000000;stroke-width:3;stroke-linecap:round;stroke-linejoin:round"
       x1="378.41299"
       y1="421.28003"
       x2="477.84399"
       y2="421.28003"
       id="line2834" />
    <line
       style="fill:none;stroke:#000000;stroke-width:3;stroke-linecap:round;stroke-linejoin:round"
       x1="378.41299"
       y1="443.21701"
       x2="477.84399"
       y2="443.21701"
       id="line2836" />
    <line
       style="fill:none;stroke:#000000;stroke-width:3;stroke-linecap:round;stroke-linejoin:round"
       x1="378.41299"
       y1="465.15302"
       x2="477.84399"
       y2="465.15302"
       id="line2838" />
    <line
       style="fill:none;stroke:#000000;stroke-width:3;stroke-linecap:round;stroke-linejoin:round"
       x1="378.41299"
       y1="487.09003"
       x2="477.84399"
       y2="487.09003"
       id="line2840" />
    <line
       style="fill:none;stroke:#000000;stroke-width:3;stroke-linecap:round;stroke-linejoin:round"
       x1="378.41299"
       y1="509.02698"
       x2="477.84399"
       y2="509.02698"
       id="line2842" />
    <line
       style="fill:none;stroke:#000000;stroke-width:3;stroke-linecap:round;stroke-linejoin:round"
       x1="378.41299"
       y1="530.96204"
       x2="477.84399"
       y2="530.96204"
       id="line2844" />
    <line
       style="fill:none;stroke:#000000;stroke-width:3;stroke-linecap:round;stroke-linejoin:round"
       x1="378.41299"
       y1="552.90002"
       x2="413.37"
       y2="552.90002"
       id="line2846" />
    <line
       style="fill:none;stroke:#000000;stroke-width:3;stroke-linecap:round;stroke-linejoin:round"
       x1="442.73401"
       y1="552.90002"
       x2="477.69101"
       y2="552.90002"
       id="line2848" />
    <line
       style="fill:none;stroke:#000000;stroke-width:3;stroke-linecap:round;stroke-linejoin:round"
       x1="378.41299"
       y1="574.83502"
       x2="397.08301"
       y2="574.83502"
       id="line2850" />
    <line
       style="fill:none;stroke:#000000;stroke-width:3;stroke-linecap:round;stroke-linejoin:round"
       x1="459.022"
       y1="574.83502"
       x2="477.69101"
       y2="574.83502"
       id="line2852" />
    <line
       style="fill:none;stroke:#000000;stroke-width:3;stroke-linecap:round;stroke-linejoin:round"
       x1="403.271"
       y1="399.34402"
       x2="403.271"
       y2="377.40701"
       id="line2854" />
    <line
       style="fill:none;stroke:#000000;stroke-width:3;stroke-linecap:round;stroke-linejoin:round"
       x1="452.98599"
       y1="399.34402"
       x2="452.98599"
       y2="377.40701"
       id="line2856" />
    <line
       style="fill:none;stroke:#000000;stroke-width:3;stroke-linecap:round;stroke-linejoin:round"
       x1="403.271"
       y1="443.21701"
       x2="403.271"
       y2="421.28101"
       id="line2858" />
    <line
       style="fill:none;stroke:#000000;stroke-width:3;stroke-linecap:round;stroke-linejoin:round"
       x1="452.98599"
       y1="443.21701"
       x2="452.98599"
       y2="421.28101"
       id="line2860" />
    <line
       style="fill:none;stroke:#000000;stroke-width:3;stroke-linecap:round;stroke-linejoin:round"
       x1="403.271"
       y1="487.09003"
       x2="403.271"
       y2="465.15302"
       id="line2862" />
    <line
       style="fill:none;stroke:#000000;stroke-width:3;stroke-linecap:round;stroke-linejoin:round"
       x1="452.98599"
       y1="487.09003"
       x2="452.98599"
       y2="465.15302"
       id="line2864" />
    <line
       style="fill:none;stroke:#000000;stroke-width:3;stroke-linecap:round;stroke-linejoin:round"
       x1="403.271"
       y1="530.96204"
       x2="403.271"
       y2="509.026"
       id="line2866" />
    <line
       style="fill:none;stroke:#000000;stroke-width:3;stroke-linecap:round;stroke-linejoin:round"
       x1="452.98599"
       y1="530.96204"
       x2="452.98599"
       y2="509.026"
       id="line2868" />
    <line
       style="fill:none;stroke:#000000;stroke-width:3;stroke-linecap:round;stroke-linejoin:round"
       x1="403.271"
       y1="561.341"
       x2="403.271"
       y2="552.89899"
       id="line2870" />
    <line
       style="fill:none;stroke:#000000;stroke-width:3;stroke-linecap:round;stroke-linejoin:round"
       x1="452.98599"
       y1="561.33704"
       x2="452.98599"
       y2="552.89899"
       id="line2872" />
    <line
       style="fill:none;stroke:#000000;stroke-width:3;stroke-linecap:round;stroke-linejoin:round"
       x1="396.67001"
       y1="596.77301"
       x2="378.41299"
       y2="596.77301"
       id="line2874" />
    <line
       style="fill:none;stroke:#000000;stroke-width:3;stroke-linecap:round;stroke-linejoin:round"
       x1="477.84399"
       y1="596.77301"
       x2="459.58701"
       y2="596.77301"
       id="line2876" />
    <path
       d="M 428.128,566.157 C 420.062,566.157 413.523,572.696 413.523,580.762 L 413.523,619.804 L 442.735,619.804 L 442.735,580.762 C 442.734,572.696 436.194,566.157 428.128,566.157 z"
       id="path2880" />
    <line
       style="fill:none;stroke:#000000;stroke-width:3;stroke-linecap:round;stroke-linejoin:round"
       x1="442.73401"
       y1="580.76202"
       x2="459.58701"
       y2="580.76202"
       id="line2886" />
    <line
       style="fill:none;stroke:#000000;stroke-width:3;stroke-linecap:round;stroke-linejoin:round"
       x1="413.52301"
       y1="580.76202"
       x2="396.67001"
       y2="580.76202"
       id="line2888" />
    <line
       style="fill:none;stroke:#000000;stroke-width:3"
       x1="435.09"
       y1="567.92004"
       x2="444.08801"
       y2="553.65503"
       id="line2890" />
    <line
       style="fill:none;stroke:#000000;stroke-width:3"
       x1="421.16699"
       y1="567.92004"
       x2="412.16901"
       y2="553.65503"
       id="line2892" />
    <line
       style="fill:none;stroke:#000000;stroke-width:3;stroke-linecap:round;stroke-linejoin:round"
       x1="396.67001"
       y1="600.284"
       x2="413.52301"
       y2="600.284"
       id="line2894" />
    <line
       style="fill:none;stroke:#000000;stroke-width:3;stroke-linecap:round;stroke-linejoin:round"
       x1="442.58099"
       y1="600.284"
       x2="459.43399"
       y2="600.284"
       id="line2896" />
    <path
       id="path2898"
       d="M 428.128,549.304 C 410.755,549.304 396.67,563.389 396.67,580.762 L 396.67,619.804 L 413.523,619.804 L 413.523,580.762 C 413.523,572.696 420.062,566.157 428.128,566.157 C 436.194,566.157 442.734,572.696 442.734,580.762 L 442.734,619.804 L 459.587,619.804 L 459.587,580.762 C 459.587,563.389 445.502,549.304 428.128,549.304 z"
       style="fill:none;stroke:#000000;stroke-width:3;stroke-linecap:round;stroke-linejoin:round" />
  </g>
  <g
     inkscape:groupmode="layer"
     id="layer3"
     inkscape:label="Reflet final"
     style="display:inline"
     sodipodi:insensitive="true">
    <path
       style="fill:url(#radialGradient3236);fill-opacity:1"
       d="M 1.5,1.5 L 1.5,460.3679 C 1.5,626.67854 135.81454,761.5 301.49993,761.5 C 467.1854,761.5 601.5,626.67854 601.5,460.3679 L 601.5,1.5 L 1.5,1.5 z"
       id="path2346" />
  </g>
  <g
     inkscape:groupmode="layer"
     id="layer4"
     inkscape:label="Contour final"
     style="display:inline"
     sodipodi:insensitive="true">
    <path
       style="fill:none;fill-opacity:1;stroke:#000000;stroke-width:3;stroke-miterlimit:4;stroke-dasharray:none;stroke-opacity:1"
       d="M 1.5,1.5 L 1.5,460.36794 C 1.5,626.67854 135.81454,761.5 301.49993,761.5 C 467.1854,761.5 601.5,626.67854 601.5,460.36794 L 601.5,1.5 L 1.5,1.5 z "
       id="path3239" />
  </g>
</svg>
