<?xml version="1.0" encoding="UTF-8"?>
<svg version="1.0" viewBox="0 0 603 763" xmlns="http://www.w3.org/2000/svg" xmlns:cc="http://creativecommons.org/ns#" xmlns:dc="http://purl.org/dc/elements/1.1/" xmlns:rdf="http://www.w3.org/1999/02/22-rdf-syntax-ns#" xmlns:xlink="http://www.w3.org/1999/xlink">
<metadata>
<rdf:RDF>
<cc:Work rdf:about="">
<dc:format>image/svg+xml</dc:format>
<dc:type rdf:resource="http://purl.org/dc/dcmitype/StillImage"/>
<dc:date>07-AUG-2006</dc:date>
<dc:creator>
<cc:Agent>
<dc:title>Jérôme BLUM (wagner51)</dc:title>
</cc:Agent>
</dc:creator>
<cc:license rdf:resource="http://creativecommons.org/licenses/GPL/2.0/"/>
<dc:coverage/>
<dc:description>Gabarit pour le Projet:Blasons de WIkipédia</dc:description>
<dc:subject>
<rdf:Bag>
<rdf:li>blason suisse modèle gabarit projet blasons</rdf:li>
</rdf:Bag>
</dc:subject>
<dc:language>fr</dc:language>
<dc:title>Gabrit d'un blason suisse</dc:title>
</cc:Work>
<cc:License rdf:about="http://creativecommons.org/licenses/GPL/2.0/">
<cc:permits rdf:resource="http://web.resource.org/cc/Reproduction"/>
<cc:permits rdf:resource="http://web.resource.org/cc/Distribution"/>
<cc:requires rdf:resource="http://web.resource.org/cc/Notice"/>
<cc:permits rdf:resource="http://web.resource.org/cc/DerivativeWorks"/>
<cc:requires rdf:resource="http://web.resource.org/cc/ShareAlike"/>
<cc:requires rdf:resource="http://web.resource.org/cc/SourceCode"/>
</cc:License>
</rdf:RDF>
</metadata>
<defs>
<radialGradient id="a" cx="858.04" cy="579.93" r="300" gradientTransform="matrix(1.215 1.5316e-24 1.4647e-23 1.2667 -839.19 -490.49)" gradientUnits="userSpaceOnUse">
<stop stop-color="#fff" stop-opacity=".31373" offset="0"/>
<stop stop-color="#fff" stop-opacity=".25098" offset=".19"/>
<stop stop-color="#6b6b6b" stop-opacity=".12549" offset=".6"/>
<stop stop-opacity=".12549" offset="1"/>
</radialGradient>
</defs>
<desc>Coat of Arms of Canton of Freiburg (Fribourg)</desc>
<g>
<path d="m1.5 1.5v458.87c0 166.31 134.31 301.13 300 301.13 165.69 0 300-134.82 300-301.13v-458.87h-600z" fill="#e20909"/>
<path d="m301.5 565.3c-33.703 0-63.591 22.115-82.199 56.213-7.665 14.046-12.82 30.25-16.73 47.533-2.194 9.699-8.197 44.486-12.672 70.907 34.499 13.889 72.158 21.544 111.6 21.544s77.103-7.655 111.6-21.543c-4.476-26.422-10.479-61.209-12.673-70.908-3.91-17.283-9.065-33.487-16.73-47.533-18.61-34.098-48.498-56.213-82.201-56.213z" fill="#5ab532"/>
<path d="m413.1 739.96c-4.476-26.422-10.479-61.209-12.673-70.908-3.91-17.283-9.065-33.487-16.73-47.533-18.608-34.098-48.496-56.213-82.199-56.213s-63.591 22.115-82.199 56.213c-7.665 14.046-12.82 30.25-16.73 47.533-2.194 9.699-8.197 44.486-12.672 70.907" fill="none" stroke="#000" stroke-width="3"/>
<path d="m244.43 459.84c-28.562 11.717-68.841 30.76-78.728 30.76s-21.833-11.947-25.403-15.518c-3.57-3.57-7.277-17.439-21.833-17.439-14.555 0-23.343 14.557-23.343 14.557s14.006-9.338 17.027-3.297c3.021 6.043 12.633 13.457 28.836 24.992 0 0-13.731 3.57-22.52 0-8.788-3.57-20.872-4.395-26.914 1.646-6.042 6.043-5.63 14.418-3.845 16.203 0 0 3.021-8.512 8.513-8.512 5.493 0 14.281 4.941 28.012 4.941h29.661s-3.571 7.963-15.929 15.652-28.562 15.104-17.851 40.922c0 0-0.056-11.369 6.316-14.557 4.944-2.473 9.612-6.592 20.323-14.281s17.851-14.006 19.773-14.006c1.923 0 18.675 7.965 28.562 15.379 9.887 7.416 15.379 11.535 11.26 22.795 0 0 14.555-6.041 7.964-19.498s-14.555-17.303-23.893-20.598c-9.337-3.295-17.302-11.262-18.675-12.635 0 0 46.138-3.568 89.804-29.934v-18.125l-17.117 0.553z" fill="#fff" stroke="#000" stroke-linecap="round" stroke-linejoin="round" stroke-width="3"/>
<path d="m307.41 454.35c21.56 41.607 41.194 92.826 47.785 112.05 0 0-12.356-7.414-27.735-18.949s-15.105-17.576-21.423-17.576c-6.316 0-19.498 4.119-23.479 17.164 0 0 15.791-8.377 20.186-1.236 4.396 7.143 10.161 6.043 23.893 15.381 13.73 9.336 24.168 15.652 24.168 15.652s-15.104-2.197-26.364 0-15.928-0.549-19.498-0.549-18.126-6.316-23.207 19.637c0 0 7.055-11.98 16.066-8.377 4.12 1.648 12.084 3.021 26.639 1.648s24.717 2.197 35.428-1.373c0 0-21.009 17.715-25.951 24.717-4.944 7.004-13.047 5.631-12.223 19.771 0.824 14.145 10.437 11.811 10.437 11.811s-2.608-11.535 0.687-13.318c3.296-1.787 5.769-3.434 7.965-7.555 2.196-4.117 24.441-20.047 33.094-32.543 0 0 9.61 2.473 24.717-1.236 15.104-3.705 19.225-4.941 24.854-7.275 5.63-2.334 13.868 0.139 8.788 14.691 0 0 15.517-13.73 5.491-26.502-10.022-12.77-23.344 1.648-30.071 3.846-6.729 2.197-29.66-5.219-30.758 3.707 0 0-0.962-12.906-10.849-15.93 0 0-8.466-73.967-35.931-115.34l-22.709 7.687z" fill="#fff" stroke="#000" stroke-linecap="round" stroke-linejoin="round" stroke-width="3"/>
<path d="m370.91 265.04c1.445-12.677 2.413-26.883 2.413-42.471 0-43.941-16.479-109.85-29.11-128.53 10.983-1.922 33.778 13.457 38.585 25.678 3.799 9.656 17.108 11.253 28.22 40.351-0.362-32.768-2.947-62.929-9.133-75.915 7.688-1.373 29.237 9.52 33.778 30.209 4.943 22.52 18.677 16.615 18.677 57.947 0 23.128-3.647 48.931-11.957 74.327 24.944-43.159 40.686-90.264 36.397-123.48 5.865 5.866 12.566 15.349 15.939 35.487 1.366 8.149 2.37 18.043 0.722 30.149-1.3 9.555 0.191 20.803-2.69 32.93-6.867 28.874-22.876 63.219-52.591 95.546 26.613-19.175 54.819-42.572 80.327-69.292 0 0 4.385 25.328-14.793 46.823-12.495 14.006-4.921 25.792-23.893 44.765-7.541 7.54-16.29 13.765-25.609 19.009 20.63-6.376 42.874-15.646 65.065-29.079 0 0-0.292 6.188-3.362 15.14-1.137 3.315-3.229 7.009-5.885 10.908-2.994 4.397-4.438 9.744-8.602 14.757-8.076 9.732-19.801 19.435-36.806 26.849 12.56-0.769 27.563-2.817 46.047-6.503 0 0-1.377 16.381-17.209 23.619-6.408 2.929-11.942 12.26-34.971 14.28-5.019 0.439-12.871 0.543-21.912-1.281 3.363 3.938 6.499 8.299 8.09 12.129 2.719 6.547 1.235 16.959 10.024 25.129 3.98 3.703 6.864 3.297 6.864 3.297-18.263 23.205-37.456 1.936-37.456 1.936 0.89 19.467-18.295 32.256-18.295 32.256 4.531-31.994-15.516-47.1-15.516-47.1 8.925 19.91-2.746 31.445-2.746 31.445-6.592-23.756-33.368-41.469-33.368-41.469 8.927 17.301 1.235 22.244 1.235 22.244 7.415 5.906 10.437 14.693 10.437 14.693-37.762 5.354-44.628-14.693-44.628-14.693 2.062 16.064-5.354 26.363-5.354 26.363s0-6.59-6.59-11.809c-4.535-3.59-8.291-11.469-13.1-17.467-6.517 1.807-14.212 5.291-26.174 11.563-17.027 8.926-24.716 20.32-24.716 20.32-1.099-20.32 5.081-29.797 5.081-29.797-19.637 2.061-31.72-2.746-31.72-2.746 3.541-0.895 7.659-2.457 11.78-4.26-52.739-0.496-81.537-47.117-81.537-76.619 0-31.857 20.978-58.222 48.169-73.946 22.411-12.961 50.154-17.506 73.034-17.506 27.462 0 41.011 4.029 41.011 4.029s16.112-16.661 16.112-38.998c0-35.884-35.521-62.799-46.688-69.024-7.323 4.761-36.434 15.563-52.729 15.563-16.294 0-19.041-4.028-19.041-4.028-12.267 5.676-68.475 28.012-82.39 33.321-13.914 5.309-17.942-1.647-17.942-1.647 29.294-14.098 90.078-41.561 90.078-41.561-53.095 7.873-105.64 19.041-105.64 19.041 1.099-10.802 9.704-13.182 45.04-24.35s50.757-13.832 50.757-13.832c0.347-4.571 3.076-15.769 16.07-23.702 14.098-8.604 39.638-7.896 40.279-8.055 6.561-1.642 16.976-10.802 20.811-16.173 0 0 3.905 15.257-6.896 22.398 0 0 11.351 0 29.294 9.52 17.943 9.521 51.082 30.392 66.277 62.799 8.516 18.15 12.538 34.61 14.437 48.515z" fill="#fff" stroke="#000" stroke-linecap="round" stroke-linejoin="round" stroke-width="3"/>
<path d="m119.29 213.5s53.644-17.393 81.198-24.625" fill="none" stroke="#000" stroke-linecap="round" stroke-linejoin="round" stroke-width="3"/>
<path d="m254.55 447.9s-11.077 6.559-22.136 11.395" fill="none" stroke="#000" stroke-linecap="round" stroke-linejoin="round" stroke-width="3"/>
<path d="m261.69 424.55s4.319 21.023 29.111 33.229c2.785 1.371 5.182 3.705 7.363 6.426" fill="none" stroke="#000" stroke-linecap="round" stroke-linejoin="round" stroke-width="3"/>
<path d="m357.4 467.12c-7.414-5.904-19.087-17.438-23.206-23.617" fill="none" stroke="#000" stroke-linecap="round" stroke-linejoin="round" stroke-width="3"/>
<path d="m426.08 469.74c-0.289-6.365-2.728-13.443-8.683-21.021" fill="none" stroke="#000" stroke-linecap="round" stroke-linejoin="round" stroke-width="3"/>
<path d="m228.32 383.22c-5.081-5.081-11.535-23.343-1.099-37.075 10.436-13.731 31.034-18.125 56.025-20.872s90.902-21.696 103.54-37.35c0 0 4.12 35.977-18.125 50.532 0 0 10.985 9.063 20.598 5.492 0 0-6.316 11.26-20.049 12.908 0 0 12.358 1.922 16.203 18.675 0 0-12.633-3.57-19.771 6.317 0 0 10.709 1.099 12.495 12.495 0 0-14.969 0.688-19.637 10.025 0 0 7.142 2.746 10.71 10.71 0 0-5.492 0.275-8.102 8.102" fill="none" stroke="#000" stroke-linecap="round" stroke-linejoin="round" stroke-width="3"/>
<path d="m438.56 427.25c-9.763-1.971-20.909-6.188-31.365-14.646-16.21-13.116-35.387-12.709-47.597-10.046" fill="none" stroke="#000" stroke-linecap="round" stroke-linejoin="round" stroke-width="3"/>
<path d="m368.74 378.58c11.087-0.813 22.209 0.579 35.714 7.117 16.239 7.861 32.296 13.274 62.156 11.447" fill="none" stroke="#000" stroke-linecap="round" stroke-linejoin="round" stroke-width="3"/>
<path d="m384.33 371.78c17.942-1.117 43.365-4.403 71.868-13.213" fill="none" stroke="#000" stroke-linecap="round" stroke-linejoin="round" stroke-width="3"/>
<path d="m374.08 358.77c18.449-9.792 41.593-23.862 66.081-41.507" fill="none" stroke="#000" stroke-linecap="round" stroke-linejoin="round" stroke-width="3"/>
<path d="m380.58 324.98c22.627-20.202 44.441-48.321 61.802-78.352" fill="none" stroke="#000" stroke-linecap="round" stroke-linejoin="round" stroke-width="3"/>
<path d="m387.01 298.21c9.876-11.979 18.824-31.254 21.468-63.931 1.76-21.766 2.821-48.777 2.541-74.216" fill="none" stroke="#000" stroke-linecap="round" stroke-linejoin="round" stroke-width="3"/>
<path d="m364.93 301.77c2.135-10.174 4.361-22.491 5.985-36.74" fill="none" stroke="#000" stroke-linecap="round" stroke-linejoin="round" stroke-width="3"/>
<path d="m309.89 339.83s20.597 3.021 5.492 15.379c0 0 17.302 7.14 1.646 17.302 0 0 17.027 3.57 0 17.576" fill="none" stroke="#000" stroke-linecap="round" stroke-linejoin="round" stroke-width="3"/>
<path d="m295.61 360.98s14.006 6.042 2.197 15.379c0 0 13.458 4.12 3.844 13.731" fill="none" stroke="#000" stroke-linecap="round" stroke-linejoin="round" stroke-width="3"/>
<path d="m391.45 184.12s3.945 63.835-11.483 109.64" fill="none" stroke="#000" stroke-linecap="round" stroke-linejoin="round" stroke-width="3"/>
<path d="m428.8 190.16s-1.392 59.404-25.099 111.17" fill="none" stroke="#000" stroke-linecap="round" stroke-linejoin="round" stroke-width="3"/>
<path d="m380.22 344.26s40.701-22.333 77.693-85.443" fill="none" stroke="#000" stroke-linecap="round" stroke-linejoin="round" stroke-width="3"/>
<path d="m382.85 368.3s41.737-14.652 91.536-53.466" fill="none" stroke="#000" stroke-linecap="round" stroke-linejoin="round" stroke-width="3"/>
<path d="m416.55 390.96s19.755-1.051 56.372-18.993" fill="none" stroke="#000" stroke-linecap="round" stroke-linejoin="round" stroke-width="3"/>
<path d="m375.94 388.33c9.655 0 18.779 2.536 40.231 12.19 8.237 3.707 29.797 14.144 50.53 10.985" fill="none" stroke="#000" stroke-linecap="round" stroke-linejoin="round" stroke-width="3"/>
<ellipse transform="translate(-.03799 -.045)" cx="215.73" cy="167.28" rx="7.232" ry="5.71" fill="none" stroke="#000" stroke-linecap="round" stroke-linejoin="round" stroke-width="3"></ellipse>
<ellipse transform="translate(-.03799 -.045)" cx="215.73" cy="165.26" rx="3.113" ry="2.931"></ellipse>
</g>
<g>
<path d="m1.5 1.5v458.87c0 166.31 134.31 301.13 300 301.13 165.69 0 300-134.82 300-301.13v-458.87h-600z" fill="url(#a)"/>
<path d="m1.5 1.5v458.87c0 166.31 134.31 301.13 300 301.13 165.69 0 300-134.82 300-301.13v-458.87h-600z" fill="none" stroke="#000" stroke-width="3"/>
</g>
</svg>
