<?xml version="1.0" encoding="UTF-8" standalone="no"?>
<svg
   xmlns:dc="http://purl.org/dc/elements/1.1/"
   xmlns:cc="http://creativecommons.org/ns#"
   xmlns:rdf="http://www.w3.org/1999/02/22-rdf-syntax-ns#"
   xmlns:svg="http://www.w3.org/2000/svg"
   xmlns="http://www.w3.org/2000/svg"
   xmlns:xlink="http://www.w3.org/1999/xlink"
   xmlns:sodipodi="http://sodipodi.sourceforge.net/DTD/sodipodi-0.dtd"
   xmlns:inkscape="http://www.inkscape.org/namespaces/inkscape"
   height="763"
   width="603"
   version="1.0"
   id="svg20"
   sodipodi:version="0.32"
   inkscape:version="0.46"
   sodipodi:docname="Gilly-coat_of_arms.svg"
   sodipodi:docbase="C:\Documents and Settings\Steve\Bureau\Blason Villages Suisse pour Wikipédia (par Delta-9)"
   inkscape:output_extension="org.inkscape.output.svg.inkscape">
  <metadata
     id="metadata31">
    <rdf:RDF>
      <cc:Work
         rdf:about="">
        <dc:format>image/svg+xml</dc:format>
        <dc:type
           rdf:resource="http://purl.org/dc/dcmitype/StillImage" />
        <dc:date>07-AUG-2006</dc:date>
        <dc:creator>
          <cc:Agent>
            <dc:title>Jérôme BLUM (wagner51)</dc:title>
          </cc:Agent>
        </dc:creator>
        <cc:license
           rdf:resource="http://creativecommons.org/licenses/GPL/2.0/" />
        <dc:coverage />
        <dc:description>Gabarit pour le Projet:Blasons de WIkipédia</dc:description>
        <dc:subject>
          <rdf:Bag>
            <rdf:li>blason suisse modèle gabarit projet blasons</rdf:li>
          </rdf:Bag>
        </dc:subject>
        <dc:language>fr</dc:language>
        <dc:title>Gabrit d'un blason suisse</dc:title>
      </cc:Work>
      <cc:License
         rdf:about="http://creativecommons.org/licenses/GPL/2.0/">
        <cc:permits
           rdf:resource="http://web.resource.org/cc/Reproduction" />
        <cc:permits
           rdf:resource="http://web.resource.org/cc/Distribution" />
        <cc:requires
           rdf:resource="http://web.resource.org/cc/Notice" />
        <cc:permits
           rdf:resource="http://web.resource.org/cc/DerivativeWorks" />
        <cc:requires
           rdf:resource="http://web.resource.org/cc/ShareAlike" />
        <cc:requires
           rdf:resource="http://web.resource.org/cc/SourceCode" />
      </cc:License>
    </rdf:RDF>
  </metadata>
  <defs
     id="defs29"><inkscape:perspective
   sodipodi:type="inkscape:persp3d"
   inkscape:vp_x="0 : 381.5 : 1"
   inkscape:vp_y="0 : 1000 : 0"
   inkscape:vp_z="603 : 381.5 : 1"
   inkscape:persp3d-origin="301.5 : 254.33333 : 1"
   id="perspective28" />
<linearGradient
   id="linearGradient2893">
  <stop
     style="stop-color:#ffffff;stop-opacity:0.3137255;"
     offset="0"
     id="stop2895" />
  <stop
     id="stop2897"
     offset="0.19"
     style="stop-color:#ffffff;stop-opacity:0.25098041;" />
  <stop
     style="stop-color:#6b6b6b;stop-opacity:0.1254902;"
     offset="0.60000002"
     id="stop2901" />
  <stop
     style="stop-color:#000000;stop-opacity:0.1254902;"
     offset="1"
     id="stop2899" />
</linearGradient>
<linearGradient
   id="linearGradient2955">
  <stop
     style="stop-color:white;stop-opacity:0;"
     offset="0"
     id="stop2965" />
  <stop
     style="stop-color:black;stop-opacity:0.64583331;"
     offset="1"
     id="stop2959" />
</linearGradient>
<radialGradient
   inkscape:collect="always"
   xlink:href="#linearGradient2893"
   id="radialGradient3236"
   gradientUnits="userSpaceOnUse"
   gradientTransform="matrix(1.215027,1.531577e-24,1.464684e-23,1.266667,-839.1924,-490.4894)"
   cx="858.04236"
   cy="579.93323"
   fx="858.04236"
   fy="579.93323"
   r="300" />
<inkscape:perspective
   id="perspective2748"
   inkscape:persp3d-origin="297.63751 : 280.63 : 1"
   inkscape:vp_z="595.27502 : 420.94501 : 1"
   inkscape:vp_y="0 : 1000 : 0"
   inkscape:vp_x="0 : 420.94501 : 1"
   sodipodi:type="inkscape:persp3d" />

	
	
	
	

	
	

		
		
		
	
		
		
		
	
		
		
	
			
			
			
			
			
			
			
			
			
			
			
			
			
			
			
			
			
			
			
			
			
			
			
			
		
			
			
			
			
			
			
			
			
			
			
			
			
			
			
			
			
			
			
			
			
			
			
			
			
		
			
			
			
			
			
			
			
			
			
			
			
			
			
			
			
			
			
			
			
			
			
			
			
			
		</defs>
  <sodipodi:namedview
     inkscape:window-height="912"
     inkscape:window-width="1244"
     inkscape:pageshadow="2"
     inkscape:pageopacity="0.0"
     guidetolerance="10.0"
     gridtolerance="10.0"
     objecttolerance="10.0"
     borderopacity="1.0"
     bordercolor="#666666"
     pagecolor="#ffffff"
     id="base"
     inkscape:zoom="0.89909312"
     inkscape:cx="355.47234"
     inkscape:cy="369.4758"
     inkscape:window-x="11"
     inkscape:window-y="42"
     inkscape:current-layer="layer2"
     showgrid="false"
     showguides="true"
     inkscape:guide-bbox="true">
    <sodipodi:guide
       orientation="horizontal"
       position="761.5"
       id="guide1885" />
    <sodipodi:guide
       orientation="vertical"
       position="1.5"
       id="guide1887" />
    <sodipodi:guide
       orientation="horizontal"
       position="1.5"
       id="guide1889" />
    <sodipodi:guide
       orientation="vertical"
       position="601.5"
       id="guide1891" />
    <sodipodi:guide
       orientation="vertical"
       position="301.50081"
       id="guide1893" />
  </sodipodi:namedview>
  <desc
     id="desc22">Coat of Arms of Canton of Freiburg (Fribourg)</desc>
  <g
     inkscape:groupmode="layer"
     id="layer1"
     inkscape:label="Fond écu"
     style="opacity:1"
     sodipodi:insensitive="true">
    <path
       id="path1899"
       d="M 1.5,1.49998 L 1.5,460.3679 C 1.5,626.6785 135.81456,761.5 301.49999,761.5 C 467.18543,761.5 601.5,626.6785 601.5,460.3679 L 601.5,1.49998 L 1.5,1.49998 z "
       style="fill:#e20909;fill-opacity:1" />
  </g>
  <g
     inkscape:groupmode="layer"
     id="layer2"
     inkscape:label="Meubles"
     style="opacity:1;display:inline"
     sodipodi:insensitive="true">
    <path
       d="M 1.5000001,251.188 L 1.5000001,460.369 C 1.5000001,626.68 135.814,761.5 301.5,761.5 C 467.188,761.5 601.5,626.68 601.5,460.369 L 601.5,251.188 L 1.5000001,251.188 z"
       id="path2472"
       style="fill:#ffffff" />
    <path
       style="fill:#e20909"
       d="M 301.499,761.499 C 336.566,761.499 370.219,755.439 401.499,744.341 L 401.499,251.188 L 301.499,251.188 L 301.499,761.499 z M 101.5,684.797 C 130.355,710.724 164.236,731.118 201.5,744.34 L 201.5,251.188 L 101.5,251.188 L 101.5,684.797 L 101.5,684.797 z M 501.499,251.188 L 501.499,684.798 C 562.867,629.659 601.499,549.548 601.499,460.368 L 601.499,251.188 L 501.499,251.188 z"
       id="path2650" />
    <path
       style="fill:none;stroke:#000000;stroke-width:3;stroke-linecap:round;stroke-linejoin:round"
       d="M 301.499,251.188 L 301.499,761.5 M 401.499,744.341 L 401.499,251.188 M 101.5,251.188 L 101.5,684.797 M 201.499,744.34 L 201.499,251.188 M 501.499,251.188 L 501.499,684.798"
       id="path2652" />
    <g
       id="g3323">
      <path
         id="path2656"
         d="M 584.775,559.693 C 465.035,438.597 303.713,275.447 301.499,273.208 C 299.285,275.446 137.963,438.596 18.224,559.691 C 29.837,593.064 47.129,623.756 68.95,650.601 C 177.323,541.335 294.727,422.687 299.545,416.646 L 301.499,414.196 L 303.453,416.646 C 308.271,422.687 425.676,541.335 534.048,650.603 C 555.869,623.758 573.161,593.065 584.775,559.693 z"
         enable-background="new    "
         style="fill:#fcef3c" />
      <path
         id="path2658"
         d="M 68.95,650.602 C 177.323,541.335 294.727,422.687 299.545,416.646 L 301.499,414.196 L 303.453,416.646 C 308.271,422.687 425.676,541.335 534.048,650.603"
         enable-background="new    "
         stroke-miterlimit="13"
         style="fill:none;stroke:#000000;stroke-width:3;stroke-miterlimit:13" />
      <path
         id="path2660"
         d="M 584.775,559.693 C 465.035,438.597 303.713,275.447 301.499,273.208 C 299.285,275.446 137.963,438.596 18.224,559.691"
         enable-background="new    "
         stroke-miterlimit="13"
         style="fill:none;stroke:#000000;stroke-width:3;stroke-miterlimit:13" />
    </g>
    <g
       id="g3246">
      <g
         id="g3194">
        <path
           d="M 301.997,205.4 C 321.983,205.4 323.086,192.441 323.086,189.705 C 327.721,193.742 334.357,197.519 341.243,193.481 C 348.132,189.444 349.133,181.108 347.256,178.242 C 347.256,178.242 355.02,182.019 361.03,174.203 C 367.042,166.388 363.785,159.746 360.278,157.271 C 362.783,159.225 368.167,156.49 370.672,152.582 C 373.178,148.673 373.677,140.729 370.424,139.109 C 373.573,135.834 377.115,132.355 377.115,127.032 C 377.115,122.21 376.586,118.639 366.075,115.094 C 366.075,115.094 371.493,110.826 365.302,103.58 C 359.108,96.333 346.333,92.229 337.672,92.229 C 332.6,81.937 338.776,75.643 338.776,71.185 C 338.776,66.264 335.465,62.908 328.301,62.908 C 321.139,62.908 315.267,62.908 315.267,62.908 C 315.267,57.594 309.326,53.287 301.996,53.287 C 294.666,53.287 288.725,57.594 288.725,62.908 C 288.725,62.908 282.853,62.908 275.69,62.908 C 268.528,62.908 265.215,66.263 265.215,71.185 C 265.215,75.643 271.393,81.937 266.32,92.229 C 257.658,92.229 244.884,96.334 238.692,103.58 C 232.499,110.827 237.919,115.094 237.919,115.094 C 227.407,118.639 226.878,122.211 226.878,127.032 C 226.878,132.354 230.42,135.833 233.568,139.109 C 230.315,140.729 230.816,148.673 233.32,152.582 C 235.824,156.49 241.21,159.225 243.714,157.271 C 240.208,159.746 236.952,166.388 242.963,174.203 C 248.973,182.019 256.737,178.242 256.737,178.242 C 254.859,181.108 255.861,189.444 262.748,193.481 C 269.637,197.519 276.273,193.742 280.907,189.705 C 280.909,192.441 282.012,205.4 301.997,205.4 z"
           id="path3840"
           style="fill:#fcef3c;stroke:#000000;stroke-width:2.5;stroke-linecap:round;stroke-linejoin:round" />
        <path
           d="M 297.827,109.528 C 297.827,109.528 294.45,144.903 288.046,168.343 C 284.915,179.804 280.908,186.968 280.908,189.704"
           id="path3842"
           style="fill:none;stroke:#000000;stroke-width:2.5;stroke-linecap:round;stroke-linejoin:round" />
        <path
           d="M 306.168,109.528 C 306.168,109.528 309.546,144.903 315.949,168.343 C 319.079,179.804 323.086,186.968 323.086,189.704"
           id="path3844"
           style="fill:none;stroke:#000000;stroke-width:2.5;stroke-linecap:round;stroke-linejoin:round" />
        <path
           d="M 291.177,104.13 C 291.177,104.13 284.915,132.134 273.27,152.583 C 261.624,173.033 258.618,175.376 256.74,178.242"
           id="path3846"
           style="fill:none;stroke:#000000;stroke-width:2.5;stroke-linecap:round;stroke-linejoin:round" />
        <path
           d="M 287.045,98.528998 C 287.045,98.528998 276.245,127.051 258.367,144.116 C 249.226,152.843 247.222,154.796 243.716,157.271"
           id="path3848"
           style="fill:none;stroke:#000000;stroke-width:2.5;stroke-linecap:round;stroke-linejoin:round" />
        <path
           d="M 282.036,92.277 C 282.036,92.277 268.367,118.1 245.971,131.873 C 237.921,136.822 236.824,137.489 233.57,139.109"
           id="path3850"
           style="fill:none;stroke:#000000;stroke-width:2.5;stroke-linecap:round;stroke-linejoin:round" />
        <path
           d="M 237.92,115.095 C 278.53,101.394 285.523,71.769 285.523,71.769"
           id="path3852"
           style="fill:none;stroke:#000000;stroke-width:2.5;stroke-linecap:round;stroke-linejoin:round" />
        <path
           d="M 266.323,92.23 C 265.796,93.3 265.147,94.412 264.357,95.57"
           id="path3854"
           style="fill:none;stroke:#000000;stroke-width:2.5;stroke-linecap:round;stroke-linejoin:round" />
        <path
           d="M 312.818,104.13 C 312.818,104.13 319.079,132.134 330.724,152.583 C 342.37,173.033 345.376,175.376 347.255,178.242"
           id="path3856"
           style="fill:none;stroke:#000000;stroke-width:2.5;stroke-linecap:round;stroke-linejoin:round" />
        <path
           d="M 316.951,98.528998 C 316.951,98.528998 327.75,127.051 345.627,144.116 C 354.77,152.843 356.772,154.796 360.278,157.271"
           id="path3858"
           style="fill:none;stroke:#000000;stroke-width:2.5;stroke-linecap:round;stroke-linejoin:round" />
        <path
           d="M 321.959,92.277 C 321.959,92.277 335.629,118.1 358.025,131.873 C 366.075,136.822 367.172,137.489 370.423,139.109"
           id="path3860"
           style="fill:none;stroke:#000000;stroke-width:2.5;stroke-linecap:round;stroke-linejoin:round" />
        <path
           d="M 366.075,115.095 C 325.466,101.394 318.472,71.769 318.472,71.769"
           id="path3862"
           style="fill:none;stroke:#000000;stroke-width:2.5;stroke-linecap:round;stroke-linejoin:round" />
        <path
           d="M 337.672,92.23 C 338.199,93.3 338.85,94.412 339.639,95.57"
           id="path3864"
           style="fill:none;stroke:#000000;stroke-width:2.5;stroke-linecap:round;stroke-linejoin:round" />
        <path
           d="M 244.809,102.322 C 244.809,102.322 239.517,104.525 240.424,110.658"
           id="path3866"
           style="fill:none;stroke:#000000;stroke-width:2.5;stroke-linecap:round;stroke-linejoin:round" />
        <path
           d="M 233.316,121.196 C 233.316,121.196 230.292,128.117 234.677,133.464"
           id="path3868"
           style="fill:none;stroke:#000000;stroke-width:2.5;stroke-linecap:round;stroke-linejoin:round" />
        <path
           d="M 236.643,141.643 C 236.643,141.643 235.584,149.35 241.18,152.81"
           id="path3870"
           style="fill:none;stroke:#000000;stroke-width:2.5;stroke-linecap:round;stroke-linejoin:round" />
        <path
           d="M 244.96,162.404 C 244.96,162.404 245.565,172.155 254.94,173.414"
           id="path3872"
           style="fill:none;stroke:#000000;stroke-width:2.5;stroke-linecap:round;stroke-linejoin:round" />
        <path
           d="M 261.292,181.121 C 261.292,181.121 261.897,189.143 272.785,188.986"
           id="path3874"
           style="fill:none;stroke:#000000;stroke-width:2.5;stroke-linecap:round;stroke-linejoin:round" />
        <path
           d="M 359.186,102.322 C 359.186,102.322 364.479,104.525 363.573,110.658"
           id="path3876"
           style="fill:none;stroke:#000000;stroke-width:2.5;stroke-linecap:round;stroke-linejoin:round" />
        <path
           d="M 370.68,121.196 C 370.68,121.196 373.703,128.117 369.32,133.464"
           id="path3878"
           style="fill:none;stroke:#000000;stroke-width:2.5;stroke-linecap:round;stroke-linejoin:round" />
        <path
           d="M 367.352,141.643 C 367.352,141.643 368.412,149.35 362.816,152.81"
           id="path3880"
           style="fill:none;stroke:#000000;stroke-width:2.5;stroke-linecap:round;stroke-linejoin:round" />
        <path
           d="M 359.035,162.404 C 359.035,162.404 358.43,172.155 349.054,173.414"
           id="path3882"
           style="fill:none;stroke:#000000;stroke-width:2.5;stroke-linecap:round;stroke-linejoin:round" />
        <path
           d="M 342.703,181.121 C 342.703,181.121 342.098,189.143 331.21,188.986"
           id="path3884"
           style="fill:none;stroke:#000000;stroke-width:2.5;stroke-linecap:round;stroke-linejoin:round" />
        <path
           d="M 317.149,193.075 C 317.149,193.075 313.765,198.673 301.998,198.673 C 290.231,198.673 286.849,193.075 286.849,193.075"
           id="path3886"
           style="fill:none;stroke:#000000;stroke-width:2.5;stroke-linecap:round;stroke-linejoin:round" />
      </g>
      <g
         id="g3168">
        <path
           d="M 512.028,189.705 C 516.662,193.742 523.299,197.519 530.185,193.481 C 537.073,189.444 538.075,181.108 536.198,178.242 C 536.198,178.242 543.961,182.019 549.971,174.203 C 555.983,166.388 552.727,159.746 549.22,157.271 C 551.724,159.225 557.111,156.49 559.614,152.582 C 562.119,148.673 562.619,140.729 559.367,139.109 C 562.515,135.834 566.055,132.355 566.055,127.032 C 566.055,122.21 565.528,118.639 555.015,115.094 C 555.015,115.094 560.436,110.826 554.243,103.58 C 548.049,96.334 535.274,92.229 526.614,92.229 C 521.541,81.937 527.719,75.643 527.719,71.185 C 527.719,66.264 524.406,62.908 517.243,62.908 C 510.08,62.908 504.208,62.908 504.208,62.908 C 504.208,57.594 498.269,53.287 490.937,53.287 C 483.608,53.287 477.666,57.594 477.666,62.908 C 477.666,62.908 471.794,62.908 464.631,62.908 C 457.467,62.908 454.156,66.263 454.156,71.185 C 454.156,75.643 460.333,81.937 455.26,92.229 C 446.6,92.229 433.826,96.333 427.632,103.58 C 421.44,110.827 426.859,115.094 426.859,115.094 C 416.346,118.639 415.819,122.211 415.819,127.032 C 415.819,132.354 419.36,135.834 422.509,139.109 C 419.255,140.729 419.755,148.673 422.261,152.582 C 424.765,156.49 430.15,159.225 432.656,157.271 C 429.149,159.746 425.892,166.388 431.903,174.203 C 437.914,182.019 445.677,178.242 445.677,178.242 C 443.8,181.108 444.802,189.444 451.689,193.481 C 458.576,197.519 465.213,193.742 469.847,189.705 C 469.847,192.441 470.951,205.4 490.936,205.4 C 510.924,205.4 512.027,192.441 512.028,189.705 z"
           id="path5795_1_"
           style="fill:#fcef3c;stroke:#000000;stroke-width:2.5;stroke-linecap:round;stroke-linejoin:round" />
        <path
           d="M 512.027,189.704 C 512.027,186.968 508.019,179.805 504.889,168.343 C 498.486,144.903 495.108,109.528 495.108,109.528"
           id="path5797_1_"
           style="fill:none;stroke:#000000;stroke-width:2.5;stroke-linecap:round;stroke-linejoin:round" />
        <path
           d="M 469.849,189.704 C 469.849,186.968 473.857,179.805 476.987,168.343 C 483.389,144.903 486.768,109.528 486.768,109.528"
           id="path5799_1_"
           style="fill:none;stroke:#000000;stroke-width:2.5;stroke-linecap:round;stroke-linejoin:round" />
        <path
           d="M 536.197,178.243 C 534.317,175.377 531.311,173.034 519.665,152.584 C 508.019,132.135 501.759,104.131 501.759,104.131"
           id="path5801_1_"
           style="fill:none;stroke:#000000;stroke-width:2.5;stroke-linecap:round;stroke-linejoin:round" />
        <path
           d="M 549.219,157.271 C 545.714,154.796 543.709,152.843 534.568,144.116 C 516.692,127.051 505.892,98.528998 505.892,98.528998"
           id="path5803_1_"
           style="fill:none;stroke:#000000;stroke-width:2.5;stroke-linecap:round;stroke-linejoin:round" />
        <path
           d="M 559.365,139.11 C 556.113,137.49 555.015,136.823 546.966,131.874 C 524.569,118.101 510.9,92.278 510.9,92.278"
           id="path5805_1_"
           style="fill:none;stroke:#000000;stroke-width:2.5;stroke-linecap:round;stroke-linejoin:round" />
        <path
           d="M 507.413,71.769 C 507.413,71.769 514.406,101.394 555.016,115.095"
           id="path5807_1_"
           style="fill:none;stroke:#000000;stroke-width:2.5;stroke-linecap:round;stroke-linejoin:round" />
        <path
           d="M 528.579,95.57 C 527.789,94.412 527.14,93.3 526.613,92.23"
           id="path5809_1_"
           style="fill:none;stroke:#000000;stroke-width:2.5;stroke-linecap:round;stroke-linejoin:round" />
        <path
           d="M 445.679,178.243 C 447.559,175.377 450.565,173.034 462.21,152.584 C 473.856,132.135 480.117,104.131 480.117,104.131"
           id="path5811_1_"
           style="fill:none;stroke:#000000;stroke-width:2.5;stroke-linecap:round;stroke-linejoin:round" />
        <path
           d="M 432.657,157.271 C 436.164,154.796 438.166,152.843 447.308,144.116 C 465.184,127.051 475.984,98.528998 475.984,98.528998"
           id="path5813_1_"
           style="fill:none;stroke:#000000;stroke-width:2.5;stroke-linecap:round;stroke-linejoin:round" />
        <path
           d="M 422.511,139.11 C 425.763,137.49 426.861,136.823 434.91,131.874 C 457.306,118.101 470.975,92.278 470.975,92.278"
           id="path5815_1_"
           style="fill:none;stroke:#000000;stroke-width:2.5;stroke-linecap:round;stroke-linejoin:round" />
        <path
           d="M 474.463,71.769 C 474.463,71.769 467.469,101.394 426.86,115.095"
           id="path5817_1_"
           style="fill:none;stroke:#000000;stroke-width:2.5;stroke-linecap:round;stroke-linejoin:round" />
        <path
           d="M 453.297,95.57 C 454.087,94.412 454.736,93.3 455.262,92.23"
           id="path5819_1_"
           style="fill:none;stroke:#000000;stroke-width:2.5;stroke-linecap:round;stroke-linejoin:round" />
        <path
           d="M 552.512,110.658 C 553.419,104.525 548.127,102.322 548.127,102.322"
           id="path5821_1_"
           style="fill:none;stroke:#000000;stroke-width:2.5;stroke-linecap:round;stroke-linejoin:round" />
        <path
           d="M 558.26,133.464 C 562.645,128.117 559.62,121.196 559.62,121.196"
           id="path5823_1_"
           style="fill:none;stroke:#000000;stroke-width:2.5;stroke-linecap:round;stroke-linejoin:round" />
        <path
           d="M 551.756,152.811 C 557.351,149.35 556.292,141.644 556.292,141.644"
           id="path5825_1_"
           style="fill:none;stroke:#000000;stroke-width:2.5;stroke-linecap:round;stroke-linejoin:round" />
        <path
           d="M 537.994,173.414 C 547.371,172.155 547.976,162.404 547.976,162.404"
           id="path5827_1_"
           style="fill:none;stroke:#000000;stroke-width:2.5;stroke-linecap:round;stroke-linejoin:round" />
        <path
           d="M 520.15,188.986 C 531.039,189.143 531.644,181.121 531.644,181.121"
           id="path5829_1_"
           style="fill:none;stroke:#000000;stroke-width:2.5;stroke-linecap:round;stroke-linejoin:round" />
        <path
           d="M 429.363,110.658 C 428.456,104.525 433.749,102.322 433.749,102.322"
           id="path5831_1_"
           style="fill:none;stroke:#000000;stroke-width:2.5;stroke-linecap:round;stroke-linejoin:round" />
        <path
           d="M 423.616,133.464 C 419.231,128.117 422.256,121.196 422.256,121.196"
           id="path5833_1_"
           style="fill:none;stroke:#000000;stroke-width:2.5;stroke-linecap:round;stroke-linejoin:round" />
        <path
           d="M 430.12,152.811 C 424.525,149.35 425.583,141.644 425.583,141.644"
           id="path5835_1_"
           style="fill:none;stroke:#000000;stroke-width:2.5;stroke-linecap:round;stroke-linejoin:round" />
        <path
           d="M 443.882,173.414 C 434.505,172.155 433.9,162.404 433.9,162.404"
           id="path5837_1_"
           style="fill:none;stroke:#000000;stroke-width:2.5;stroke-linecap:round;stroke-linejoin:round" />
        <path
           d="M 461.726,188.986 C 450.836,189.143 450.232,181.121 450.232,181.121"
           id="path5839_1_"
           style="fill:none;stroke:#000000;stroke-width:2.5;stroke-linecap:round;stroke-linejoin:round" />
        <path
           d="M 506.089,193.075 C 506.089,193.075 502.705,198.673 490.938,198.673 C 479.171,198.673 475.788,193.075 475.788,193.075"
           id="path5841_1_"
           style="fill:none;stroke:#000000;stroke-width:2.5;stroke-linecap:round;stroke-linejoin:round" />
      </g>
      <g
         id="g3220">
        <path
           d="M 112.061,205.4 C 132.045,205.4 133.149,192.441 133.149,189.705 C 137.783,193.742 144.421,197.519 151.308,193.481 C 158.195,189.444 159.197,181.108 157.319,178.242 C 157.319,178.242 165.083,182.019 171.094,174.203 C 177.105,166.388 173.848,159.746 170.342,157.271 C 172.848,159.225 178.232,156.49 180.737,152.582 C 183.242,148.673 183.742,140.729 180.488,139.109 C 183.637,135.834 187.179,132.355 187.179,127.032 C 187.179,122.21 186.651,118.639 176.139,115.094 C 176.139,115.094 181.556,110.826 175.365,103.58 C 169.172,96.333 156.399,92.229 147.737,92.229 C 142.665,81.937 148.841,75.643 148.841,71.185 C 148.841,66.264 145.53,62.908 138.367,62.908 C 131.204,62.908 125.332,62.908 125.332,62.908 C 125.332,57.594 119.39,53.287 112.061,53.287 C 104.731,53.287 98.79,57.594 98.79,62.908 C 98.79,62.908 92.918,62.908 85.756,62.908 C 78.592,62.908 75.28,66.263 75.28,71.185 C 75.28,75.643 81.458,81.937 76.386,92.229 C 67.724,92.229 54.95,96.334 48.757,103.58 C 42.564,110.827 47.984,115.094 47.984,115.094 C 37.472,118.639 36.944,122.211 36.944,127.032 C 36.944,132.354 40.485,135.833 43.633,139.109 C 40.381,140.729 40.881,148.673 43.385,152.582 C 45.889,156.49 51.275,159.225 53.779,157.271 C 50.273,159.746 47.017,166.388 53.029,174.203 C 59.04,182.019 66.803,178.242 66.803,178.242 C 64.925,181.108 65.927,189.444 72.815,193.481 C 79.702,197.519 86.338,193.742 90.973,189.705 C 90.971,192.441 92.075,205.4 112.061,205.4 z"
           id="path5795_2_"
           style="fill:#fcef3c;stroke:#000000;stroke-width:2.5;stroke-linecap:round;stroke-linejoin:round" />
        <path
           d="M 107.89,109.528 C 107.89,109.528 104.513,144.903 98.109,168.343 C 94.979,179.804 90.972,186.968 90.972,189.704"
           id="path5797_2_"
           style="fill:none;stroke:#000000;stroke-width:2.5;stroke-linecap:round;stroke-linejoin:round" />
        <path
           d="M 116.231,109.528 C 116.231,109.528 119.609,144.903 126.012,168.343 C 129.142,179.804 133.149,186.968 133.149,189.704"
           id="path5799_2_"
           style="fill:none;stroke:#000000;stroke-width:2.5;stroke-linecap:round;stroke-linejoin:round" />
        <path
           d="M 101.24,104.13 C 101.24,104.13 94.978,132.134 83.333,152.583 C 71.687,173.033 68.681,175.376 66.802,178.242"
           id="path5801_2_"
           style="fill:none;stroke:#000000;stroke-width:2.5;stroke-linecap:round;stroke-linejoin:round" />
        <path
           d="M 97.107,98.528998 C 97.107,98.528998 86.307,127.051 68.43,144.116 C 59.289,152.843 57.283,154.796 53.779,157.271"
           id="path5803_2_"
           style="fill:none;stroke:#000000;stroke-width:2.5;stroke-linecap:round;stroke-linejoin:round" />
        <path
           d="M 92.099,92.277 C 92.099,92.277 78.43,118.1 56.033,131.873 C 47.983,136.822 46.886,137.489 43.634,139.109"
           id="path5805_2_"
           style="fill:none;stroke:#000000;stroke-width:2.5;stroke-linecap:round;stroke-linejoin:round" />
        <path
           d="M 47.982,115.095 C 88.592,101.394 95.585,71.769 95.585,71.769"
           id="path5807_2_"
           style="fill:none;stroke:#000000;stroke-width:2.5;stroke-linecap:round;stroke-linejoin:round" />
        <path
           d="M 76.385,92.23 C 75.857,93.3 75.209,94.412 74.419,95.57"
           id="path5809_2_"
           style="fill:none;stroke:#000000;stroke-width:2.5;stroke-linecap:round;stroke-linejoin:round" />
        <path
           d="M 122.88,104.13 C 122.88,104.13 129.142,132.134 140.788,152.583 C 152.434,173.033 155.439,175.376 157.318,178.242"
           id="path5811_2_"
           style="fill:none;stroke:#000000;stroke-width:2.5;stroke-linecap:round;stroke-linejoin:round" />
        <path
           d="M 127.013,98.528998 C 127.013,98.528998 137.813,127.051 155.69,144.116 C 164.832,152.843 166.835,154.796 170.341,157.271"
           id="path5813_2_"
           style="fill:none;stroke:#000000;stroke-width:2.5;stroke-linecap:round;stroke-linejoin:round" />
        <path
           d="M 132.023,92.277 C 132.023,92.277 145.692,118.1 168.088,131.873 C 176.138,136.822 177.235,137.489 180.487,139.109"
           id="path5815_2_"
           style="fill:none;stroke:#000000;stroke-width:2.5;stroke-linecap:round;stroke-linejoin:round" />
        <path
           d="M 176.138,115.095 C 135.529,101.394 128.535,71.769 128.535,71.769"
           id="path5817_2_"
           style="fill:none;stroke:#000000;stroke-width:2.5;stroke-linecap:round;stroke-linejoin:round" />
        <path
           d="M 147.736,92.23 C 148.263,93.3 148.911,94.412 149.701,95.57"
           id="path5819_2_"
           style="fill:none;stroke:#000000;stroke-width:2.5;stroke-linecap:round;stroke-linejoin:round" />
        <path
           d="M 54.871,102.322 C 54.871,102.322 49.579,104.525 50.486,110.658"
           id="path5821_2_"
           style="fill:none;stroke:#000000;stroke-width:2.5;stroke-linecap:round;stroke-linejoin:round" />
        <path
           d="M 43.379,121.196 C 43.379,121.196 40.355,128.117 44.739,133.464"
           id="path5823_2_"
           style="fill:none;stroke:#000000;stroke-width:2.5;stroke-linecap:round;stroke-linejoin:round" />
        <path
           d="M 46.707,141.643 C 46.707,141.643 45.647,149.35 51.242,152.81"
           id="path5825_2_"
           style="fill:none;stroke:#000000;stroke-width:2.5;stroke-linecap:round;stroke-linejoin:round" />
        <path
           d="M 55.022,162.404 C 55.022,162.404 55.627,172.155 65.003,173.414"
           id="path5827_2_"
           style="fill:none;stroke:#000000;stroke-width:2.5;stroke-linecap:round;stroke-linejoin:round" />
        <path
           d="M 71.354,181.121 C 71.354,181.121 71.959,189.143 82.847,188.986"
           id="path5829_2_"
           style="fill:none;stroke:#000000;stroke-width:2.5;stroke-linecap:round;stroke-linejoin:round" />
        <path
           d="M 169.249,102.322 C 169.249,102.322 174.542,104.525 173.635,110.658"
           id="path5831_2_"
           style="fill:none;stroke:#000000;stroke-width:2.5;stroke-linecap:round;stroke-linejoin:round" />
        <path
           d="M 180.742,121.196 C 180.742,121.196 183.766,128.117 179.382,133.464"
           id="path5833_2_"
           style="fill:none;stroke:#000000;stroke-width:2.5;stroke-linecap:round;stroke-linejoin:round" />
        <path
           d="M 177.415,141.643 C 177.415,141.643 178.474,149.35 172.879,152.81"
           id="path5835_2_"
           style="fill:none;stroke:#000000;stroke-width:2.5;stroke-linecap:round;stroke-linejoin:round" />
        <path
           d="M 169.098,162.404 C 169.098,162.404 168.493,172.155 159.117,173.414"
           id="path5837_2_"
           style="fill:none;stroke:#000000;stroke-width:2.5;stroke-linecap:round;stroke-linejoin:round" />
        <path
           d="M 152.766,181.121 C 152.766,181.121 152.162,189.143 141.273,188.986"
           id="path5839_2_"
           style="fill:none;stroke:#000000;stroke-width:2.5;stroke-linecap:round;stroke-linejoin:round" />
        <path
           d="M 127.211,193.075 C 127.211,193.075 123.828,198.673 112.061,198.673 C 100.294,198.673 96.91,193.075 96.91,193.075"
           id="path5841_2_"
           style="fill:none;stroke:#000000;stroke-width:2.5;stroke-linecap:round;stroke-linejoin:round" />
      </g>
    </g>
    <line
       id="line2741"
       y2="251.18799"
       x2="601.49902"
       y1="251.18799"
       x1="1.5"
       style="fill:none;stroke:#000000;stroke-width:3;stroke-linejoin:round" />
  </g>
  <g
     inkscape:groupmode="layer"
     id="layer3"
     inkscape:label="Reflet final"
     style="display:inline"
     sodipodi:insensitive="true">
    <path
       style="fill:url(#radialGradient3236);fill-opacity:1"
       d="M 1.5,1.5 L 1.5,460.3679 C 1.5,626.67854 135.81454,761.5 301.49993,761.5 C 467.1854,761.5 601.5,626.67854 601.5,460.3679 L 601.5,1.5 L 1.5,1.5 z "
       id="path2346" />
  </g>
  <g
     inkscape:groupmode="layer"
     id="layer4"
     inkscape:label="Contour final"
     style="display:inline"
     sodipodi:insensitive="true">
    <path
       style="fill:none;fill-opacity:1;stroke:#000000;stroke-width:3;stroke-miterlimit:4;stroke-dasharray:none;stroke-opacity:1"
       d="M 1.5,1.5 L 1.5,460.36794 C 1.5,626.67854 135.81454,761.5 301.49993,761.5 C 467.1854,761.5 601.5,626.67854 601.5,460.36794 L 601.5,1.5 L 1.5,1.5 z "
       id="path3239" />
  </g>
</svg>
