<?xml version="1.0" encoding="UTF-8"?>
<svg version="1.0" viewBox="0 0 603 763" xmlns="http://www.w3.org/2000/svg" xmlns:cc="http://creativecommons.org/ns#" xmlns:dc="http://purl.org/dc/elements/1.1/" xmlns:rdf="http://www.w3.org/1999/02/22-rdf-syntax-ns#" xmlns:xlink="http://www.w3.org/1999/xlink">
<metadata>
<rdf:RDF>
<cc:Work rdf:about="">
<dc:format>image/svg+xml</dc:format>
<dc:type rdf:resource="http://purl.org/dc/dcmitype/StillImage"/>
<dc:date>07-AUG-2006</dc:date>
<dc:creator>
<cc:Agent>
<dc:title>Jérôme BLUM (wagner51)</dc:title>
</cc:Agent>
</dc:creator>
<cc:license rdf:resource="http://creativecommons.org/licenses/GPL/2.0/"/>
<dc:coverage/>
<dc:description>Gabarit pour le Projet:Blasons de WIkipédia</dc:description>
<dc:subject>
<rdf:Bag>
<rdf:li>blason suisse modèle gabarit projet blasons</rdf:li>
</rdf:Bag>
</dc:subject>
<dc:language>fr</dc:language>
<dc:title>Gabrit d'un blason suisse</dc:title>
</cc:Work>
<cc:License rdf:about="http://creativecommons.org/licenses/GPL/2.0/">
<cc:permits rdf:resource="http://web.resource.org/cc/Reproduction"/>
<cc:permits rdf:resource="http://web.resource.org/cc/Distribution"/>
<cc:requires rdf:resource="http://web.resource.org/cc/Notice"/>
<cc:permits rdf:resource="http://web.resource.org/cc/DerivativeWorks"/>
<cc:requires rdf:resource="http://web.resource.org/cc/ShareAlike"/>
<cc:requires rdf:resource="http://web.resource.org/cc/SourceCode"/>
</cc:License>
</rdf:RDF>
</metadata>
<defs>
<radialGradient id="a" cx="858.04" cy="579.93" r="300" gradientTransform="matrix(1.215 1.5316e-24 1.4647e-23 1.2667 -839.19 -490.49)" gradientUnits="userSpaceOnUse">
<stop stop-color="#fff" stop-opacity=".31373" offset="0"/>
<stop stop-color="#fff" stop-opacity=".25098" offset=".19"/>
<stop stop-color="#6b6b6b" stop-opacity=".12549" offset=".6"/>
<stop stop-opacity=".12549" offset="1"/>
</radialGradient>
</defs>
<desc>Coat of Arms of Canton of Freiburg (Fribourg)</desc>
<g>
<path d="m1.5 1.5v458.87c0 166.31 134.31 301.13 300 301.13s300-134.82 300-301.13v-458.87h-600z" fill="#2b5df2"/>
<path d="m1.5 1.5v458.87c0 166.31 134.31 301.13 300 301.13v-760h-300z" fill="#fff"/>
<polygon transform="translate(-.038 -.045)" points="87.126 567.66 128.68 554.47 119.33 511.88 151.54 541.27 183.74 511.88 174.39 554.47 215.95 567.66 174.39 580.86 183.74 623.44 151.54 594.05 119.33 623.44 128.68 580.86" fill="#e20909" stroke="#000" stroke-miterlimit="9" stroke-width="3"/>
<path d="m198.89 380.7c4.503 7.709 7.088 16.617 7.088 26.117 0 29.254-24.39 52.969-54.477 52.969s-54.477-23.715-54.477-52.969c0-9.5 2.585-18.408 7.089-26.117-13.274 12.82-21.569 30.951-21.569 51.07 0 38.846 30.873 70.336 68.957 70.336s68.957-31.49 68.957-70.336c1e-3 -20.119-8.294-38.25-21.568-51.07z" fill="#e20909" stroke="#000" stroke-miterlimit="9" stroke-width="3"/>
<polygon transform="translate(-.038 -.045)" points="87.126 352.48 128.68 339.29 119.33 296.7 151.54 326.09 183.74 296.7 174.39 339.29 215.95 352.48 174.39 365.67 183.74 408.26 151.54 378.87 119.33 408.26 128.68 365.67" fill="#e20909" stroke="#000" stroke-miterlimit="9" stroke-width="3"/>
<path d="m198.89 165.52c4.503 7.709 7.088 16.617 7.088 26.116 0 29.254-24.39 52.969-54.477 52.969s-54.477-23.715-54.477-52.969c0-9.5 2.585-18.407 7.089-26.116-13.274 12.819-21.569 30.951-21.569 51.069 0 38.846 30.873 70.336 68.957 70.336s68.957-31.491 68.957-70.336c1e-3 -20.118-8.294-38.25-21.568-51.069z" fill="#e20909" stroke="#000" stroke-miterlimit="9" stroke-width="3"/>
<polygon transform="translate(-.038 -.045)" points="87.126 137.3 128.68 124.1 119.33 81.517 151.54 110.91 183.74 81.516 174.39 124.1 215.95 137.3 174.39 150.49 183.74 193.08 151.54 163.69 119.33 193.08 128.68 150.49" fill="#e20909" stroke="#000" stroke-miterlimit="9" stroke-width="3"/>
<line x1="301.5" x2="301.5" y1="1.5" y2="761.5" fill="none" stroke="#000" stroke-width="3"/>
<polygon transform="translate(-.038 -.045)" points="451.54 409.27 356.48 466.46 356.48 575.32 546.6 575.32 546.6 466.46" fill="#fcef3c" stroke="#000" stroke-miterlimit="20" stroke-width="3"/>
<rect x="418.32" y="353.48" width="66.362" height="224.12" fill="#fcef3c" stroke="#000" stroke-miterlimit="20" stroke-width="3"/>
<polygon transform="translate(-.038 -.045)" points="451.54 121.12 418.36 353.53 484.72 353.53" fill="#fcef3c" stroke="#000" stroke-miterlimit="20" stroke-width="3"/>
<path d="m451.5 385.97c-5.1 0-9.234 4.135-9.234 9.234v32.405h18.471v-32.405c-2e-3 -5.099-4.135-9.234-9.237-9.234z"/>
<path d="m451.5 514.58c-6.48 0-17.153 13.151-17.153 22.626v40.396h34.309v-40.396c-2e-3 -9.474-10.674-22.626-17.156-22.626z"/>
<line x1="444.24" x2="444.24" y1="279.17" y2="239.97" fill="none" stroke="#000" stroke-width="3"/>
<line x1="438.81" x2="438.81" y1="332.72" y2="299.35" fill="none" stroke="#000" stroke-width="3"/>
<line x1="458.76" x2="458.76" y1="279.17" y2="239.97" fill="none" stroke="#000" stroke-width="3"/>
<line x1="451.5" x2="451.5" y1="219.01" y2="179.82" fill="none" stroke="#000" stroke-width="3"/>
<line x1="464.19" x2="464.19" y1="332.72" y2="299.35" fill="none" stroke="#000" stroke-width="3"/>
<line x1="356.44" x2="418.18" y1="558.68" y2="558.68" fill="none" stroke="#000" stroke-width="3"/>
<line x1="356.44" x2="418.32" y1="536.38" y2="536.38" fill="none" stroke="#000" stroke-width="3"/>
<line x1="356.44" x2="418.32" y1="514.08" y2="514.08" fill="none" stroke="#000" stroke-width="3"/>
<line x1="356.44" x2="418.32" y1="491.78" y2="491.78" fill="none" stroke="#000" stroke-width="3"/>
<line x1="356.44" x2="418.32" y1="469.47" y2="469.47" fill="none" stroke="#000" stroke-width="3"/>
<line x1="388.43" x2="418.32" y1="447.17" y2="447.17" fill="none" stroke="#000" stroke-width="3"/>
<line x1="371.91" x2="371.91" y1="536.38" y2="558.68" fill="none" stroke="#000" stroke-width="3"/>
<line x1="402.85" x2="402.85" y1="536.38" y2="558.68" fill="none" stroke="#000" stroke-width="3"/>
<line x1="387.38" x2="387.38" y1="514.08" y2="536.38" fill="none" stroke="#000" stroke-width="3"/>
<line x1="371.91" x2="371.91" y1="491.78" y2="514.08" fill="none" stroke="#000" stroke-width="3"/>
<line x1="402.85" x2="402.85" y1="491.78" y2="514.08" fill="none" stroke="#000" stroke-width="3"/>
<line x1="371.91" x2="371.91" y1="456.96" y2="469.47" fill="none" stroke="#000" stroke-width="3"/>
<line x1="402.85" x2="402.85" y1="447.17" y2="469.47" fill="none" stroke="#000" stroke-width="3"/>
<line x1="387.38" x2="387.38" y1="469.47" y2="491.78" fill="none" stroke="#000" stroke-width="3"/>
<line x1="546.56" x2="484.83" y1="558.68" y2="558.68" fill="none" stroke="#000" stroke-width="3"/>
<line x1="546.56" x2="484.68" y1="536.38" y2="536.38" fill="none" stroke="#000" stroke-width="3"/>
<line x1="546.56" x2="484.68" y1="514.08" y2="514.08" fill="none" stroke="#000" stroke-width="3"/>
<line x1="546.56" x2="484.68" y1="491.78" y2="491.78" fill="none" stroke="#000" stroke-width="3"/>
<line x1="546.56" x2="484.68" y1="469.47" y2="469.47" fill="none" stroke="#000" stroke-width="3"/>
<line x1="514.57" x2="484.68" y1="447.17" y2="447.17" fill="none" stroke="#000" stroke-width="3"/>
<line x1="531.09" x2="531.09" y1="536.38" y2="558.68" fill="none" stroke="#000" stroke-width="3"/>
<line x1="500.15" x2="500.15" y1="536.38" y2="558.68" fill="none" stroke="#000" stroke-width="3"/>
<line x1="515.62" x2="515.62" y1="514.08" y2="536.38" fill="none" stroke="#000" stroke-width="3"/>
<line x1="531.09" x2="531.09" y1="491.78" y2="514.08" fill="none" stroke="#000" stroke-width="3"/>
<line x1="500.15" x2="500.15" y1="491.78" y2="514.08" fill="none" stroke="#000" stroke-width="3"/>
<line x1="531.09" x2="531.09" y1="456.96" y2="469.47" fill="none" stroke="#000" stroke-width="3"/>
<line x1="500.15" x2="500.15" y1="447.17" y2="469.47" fill="none" stroke="#000" stroke-width="3"/>
<line x1="515.62" x2="515.62" y1="469.47" y2="491.78" fill="none" stroke="#000" stroke-width="3"/>
</g>
<g>
<path d="m1.5 1.5v458.87c0 166.31 134.31 301.13 300 301.13 165.69 0 300-134.82 300-301.13v-458.87h-600z" fill="url(#a)"/>
<path d="m1.5 1.5v458.87c0 166.31 134.31 301.13 300 301.13 165.69 0 300-134.82 300-301.13v-458.87h-600z" fill="none" stroke="#000" stroke-width="3"/>
</g>
</svg>
