<?xml version="1.0" encoding="UTF-8"?>
<svg version="1.0" viewBox="0 0 603 763" xmlns="http://www.w3.org/2000/svg" xmlns:cc="http://creativecommons.org/ns#" xmlns:dc="http://purl.org/dc/elements/1.1/" xmlns:rdf="http://www.w3.org/1999/02/22-rdf-syntax-ns#" xmlns:xlink="http://www.w3.org/1999/xlink">
<metadata>
<rdf:RDF>
<cc:Work rdf:about="">
<dc:format>image/svg+xml</dc:format>
<dc:type rdf:resource="http://purl.org/dc/dcmitype/StillImage"/>
<dc:date>07-AUG-2006</dc:date>
<dc:creator>
<cc:Agent>
<dc:title>Jérôme BLUM (wagner51)</dc:title>
</cc:Agent>
</dc:creator>
<cc:license rdf:resource="http://creativecommons.org/licenses/GPL/2.0/"/>
<dc:coverage/>
<dc:description>Gabarit pour le Projet:Blasons de WIkipédia</dc:description>
<dc:subject>
<rdf:Bag>
<rdf:li>blason suisse modèle gabarit projet blasons</rdf:li>
</rdf:Bag>
</dc:subject>
<dc:language>fr</dc:language>
<dc:title>Gabrit d'un blason suisse</dc:title>
</cc:Work>
<cc:License rdf:about="http://creativecommons.org/licenses/GPL/2.0/">
<cc:permits rdf:resource="http://web.resource.org/cc/Reproduction"/>
<cc:permits rdf:resource="http://web.resource.org/cc/Distribution"/>
<cc:requires rdf:resource="http://web.resource.org/cc/Notice"/>
<cc:permits rdf:resource="http://web.resource.org/cc/DerivativeWorks"/>
<cc:requires rdf:resource="http://web.resource.org/cc/ShareAlike"/>
<cc:requires rdf:resource="http://web.resource.org/cc/SourceCode"/>
</cc:License>
</rdf:RDF>
</metadata>
<defs>
<radialGradient id="a" cx="858.04" cy="579.93" r="300" gradientTransform="matrix(1.215 1.5316e-24 1.4647e-23 1.2667 -839.19 -490.49)" gradientUnits="userSpaceOnUse">
<stop stop-color="#fff" stop-opacity=".31373" offset="0"/>
<stop stop-color="#fff" stop-opacity=".25098" offset=".19"/>
<stop stop-color="#6b6b6b" stop-opacity=".12549" offset=".6"/>
<stop stop-opacity=".12549" offset="1"/>
</radialGradient>
</defs>
<desc>Coat of Arms of Canton of Freiburg (Fribourg)</desc>
<g>
<path d="m1.5 1.5v458.87c0 166.31 134.31 301.13 300 301.13 165.69 0 300-134.82 300-301.13v-458.87h-600z" fill="#5ab532"/>
<g stroke="#000" stroke-linecap="round" stroke-linejoin="round">
<path d="m325.63 648.11 9 6.332 19.547 11.324c6.453 3.676 7.637-12.228 0.978-15.653s-20.858-6.671-24.524-6.671-5.001 4.668-5.001 4.668z" fill="#fff" stroke-width="3"/>
<path d="m239.4 614.01s21.524 20.938 59.011 20.938c31.318 0 56.737 15.159 56.737 15.159s-20.539-6.358-21.521-2.444 8.802 7.334 20.543 18.098c0 0-28.369-13.699-57.229-18.098-28.855-4.402-57.541-9.687-57.541-33.653z" fill="#fff" stroke-width="3"/>
<path d="m277.61 613.6s-3.798 21.352 20.804 21.352c24.603 0 20.806-20.267 20.806-20.267l-41.61-1.085z" fill="#fff" stroke-width="3"/>
<path d="m242.07 535.64s8.128-92.442 12.698-126.98c4.572-34.536 36.216-30.339 39.11-30.984 4.57-1.017 0.505-13.712 13.714-13.712 11.678 0 10.666 12.699 12.695 14.729 2.031 2.033 31.491 2.541 35.048 29.967 3.557 27.428 6.093 122.92 6.093 122.92l-9.649 28.441-54.349 12.191-43.68-6.096-11.68-30.474z" fill="#fff" stroke-width="3"/>
<path d="m324.15 388.14c8.905 1.678 19.571 7.501 21.884 25.341 3.556 27.428 6.356 127.17 6.356 127.17" fill="none" stroke-width="2.5"/>
<path d="m322.78 394.98c8.308 3.129 12.616 10.648 13.988 21.207 3.536 27.166 6.324 129.36 6.324 129.36" fill="none" stroke-width="2.5"/>
<path d="m321.5 403.04c2.907 3.494 5.129 8.288 5.951 14.848 3.397 27.188 5.345 130.34 5.345 130.34" fill="none" stroke-width="2.5"/>
<path d="m319.97 464.82c1.648 39.083 2.547 86.824 2.547 86.824" fill="none" stroke-width="2.5"/>
<path d="m311.84 514.24c0.593 21.469 0.904 37.9 0.904 37.9" fill="none" stroke-width="2.5"/>
<path d="m299.46 619.95c-31.999 0-65.521-22.856-65.521-57.394 0-34.539 5.588-28.442 8.127-26.918 0 0 1.017 17.27 54.348 17.27s65.011-21.331 65.011-21.331 6.605-4.575 7.112 7.618c0.507 12.187 9.141 80.755-69.077 80.755z" fill="#fff" stroke-width="3"/>
<path d="m278.76 623.05c1.924 0.596 18.021 5.772 39.492 0.856" fill="none" stroke-width="2.5"/>
<path d="m282.34 629.57s14.45 3.098 31.476 0.414" fill="none" stroke-width="2.5"/>
<path d="m251.21 555.37c1.657 3.118 30.434 56.458 67.364 63.008" fill="none" stroke-width="2.5"/>
<path d="m233.95 560c6.727 12.55 26.647 46.354 52.096 58.622" fill="none" stroke-width="2.5"/>
<path d="m277.04 560.75c8.368 12.935 31.37 44.635 59.837 51.859" fill="none" stroke-width="2.5"/>
<path d="m302.66 562.29c8.092 10.993 25.592 31.935 47.522 41.483" fill="none" stroke-width="2.5"/>
<path d="m323.18 561.39c6.711 7.844 19.792 21.466 36.466 30.59" fill="none" stroke-width="2.5"/>
<path d="m341.7 558.42c4.227 4.289 12.693 12.209 23.99 19.442" fill="none" stroke-width="2.5"/>
<path d="m359.63 551.88s-30.391 57.896-66.383 67.799" fill="none" stroke-width="2.5"/>
<path d="m366.57 574.51c-7.908 12.706-20.254 29.661-35.149 40.431" fill="none" stroke-width="2.5"/>
<path d="m332.32 560.27c-6.341 10.25-30.067 45.672-60.154 54.219" fill="none" stroke-width="2.5"/>
<path d="m306.63 562.26c-7.19 10.134-25.745 33.678-49.432 43.881" fill="none" stroke-width="2.5"/>
<path d="m286.12 561.65c-6.263 7.601-21.057 23.847-40.313 33.734" fill="none" stroke-width="2.5"/>
<path d="m267.3 559.26c-3.906 4.111-14.559 14.594-29.3 23.276" fill="none" stroke-width="2.5"/>
<path d="m248.74 554.58s-5.986 5.038-14.719 10.457" fill="none" stroke-width="2.5"/>
<path d="m236.47 549.53s-0.8 0.676-2.248 1.8" fill="none" stroke-width="2.5"/>
<path d="m357.18 553.12c1.441 1.184 6.668 5.408 11.494 8.691" fill="none" stroke-width="2.5"/>
<path d="m366.95 547.11c0.413 0.34 1.133 0.924 2.06 1.664" fill="none" stroke-width="2.5"/>
<path d="m474.15 361.73 9 6.333 19.547 11.324c6.453 3.676 7.637-12.228 0.978-15.653s-20.858-6.67-24.524-6.67-5.001 4.666-5.001 4.666z" fill="#fff" stroke-width="3"/>
<path d="m387.92 327.64s21.524 20.938 59.011 20.938c31.318 0 56.737 15.159 56.737 15.159s-20.539-6.358-21.521-2.445c-0.982 3.914 8.802 7.334 20.543 18.098 0 0-28.369-13.699-57.229-18.098-28.856-4.401-57.541-9.686-57.541-33.652z" fill="#fff" stroke-width="3"/>
<path d="m426.13 327.23s-3.798 21.352 20.804 21.352c24.603 0 20.806-20.267 20.806-20.267l-41.61-1.085z" fill="#fff" stroke-width="3"/>
<path d="m390.59 249.26s8.128-92.442 12.698-126.98c4.572-34.536 36.216-30.339 39.11-30.984 4.57-1.017 0.505-13.712 13.714-13.712 11.678 0 10.666 12.699 12.695 14.729 2.031 2.033 31.491 2.541 35.048 29.967 3.557 27.429 6.093 122.92 6.093 122.92l-9.649 28.442-54.349 12.191-43.68-6.095-11.68-30.476z" fill="#fff" stroke-width="3"/>
<path d="m472.67 101.77c8.905 1.678 19.571 7.501 21.884 25.341 3.556 27.429 6.356 127.17 6.356 127.17" fill="none" stroke-width="2.5"/>
<path d="m471.3 108.6c8.308 3.129 12.616 10.648 13.988 21.207 3.536 27.165 6.324 129.36 6.324 129.36" fill="none" stroke-width="2.5"/>
<path d="m470.02 116.66c2.907 3.494 5.129 8.288 5.951 14.848 3.397 27.187 5.345 130.34 5.345 130.34" fill="none" stroke-width="2.5"/>
<path d="m468.49 178.45c1.648 39.083 2.547 86.825 2.547 86.825" fill="none" stroke-width="2.5"/>
<path d="m460.36 227.86c0.593 21.469 0.904 37.9 0.904 37.9" fill="none" stroke-width="2.5"/>
<path d="m447.98 333.58c-31.999 0-65.521-22.856-65.521-57.394 0-34.539 5.588-28.442 8.127-26.918 0 0 1.017 17.27 54.348 17.27s65.011-21.331 65.011-21.331 6.605-4.576 7.112 7.618c0.507 12.187 9.141 80.755-69.077 80.755z" fill="#fff" stroke-width="3"/>
<path d="m427.28 336.67c1.924 0.596 18.021 5.772 39.492 0.857" fill="none" stroke-width="2.5"/>
<path d="m430.86 343.19s14.45 3.097 31.476 0.414" fill="none" stroke-width="2.5"/>
<path d="m399.73 269c1.657 3.118 30.434 56.458 67.364 63.007" fill="none" stroke-width="2.5"/>
<path d="m382.47 273.63c6.727 12.55 26.647 46.354 52.096 58.622" fill="none" stroke-width="2.5"/>
<path d="m425.56 274.38c8.368 12.934 31.37 44.634 59.837 51.859" fill="none" stroke-width="2.5"/>
<path d="m451.18 275.92c8.092 10.994 25.592 31.935 47.522 41.484" fill="none" stroke-width="2.5"/>
<path d="m471.7 275.02c6.711 7.844 19.792 21.466 36.466 30.59" fill="none" stroke-width="2.5"/>
<path d="m490.22 272.04c4.227 4.289 12.693 12.209 23.99 19.442" fill="none" stroke-width="2.5"/>
<path d="m508.15 265.5s-30.391 57.897-66.383 67.799" fill="none" stroke-width="2.5"/>
<path d="m515.09 288.14c-7.908 12.706-20.254 29.661-35.149 40.431" fill="none" stroke-width="2.5"/>
<path d="m480.84 273.89c-6.341 10.25-30.067 45.672-60.154 54.218" fill="none" stroke-width="2.5"/>
<path d="m455.15 275.89c-7.19 10.134-25.745 33.678-49.432 43.881" fill="none" stroke-width="2.5"/>
<path d="m434.64 275.28c-6.263 7.601-21.057 23.847-40.313 33.734" fill="none" stroke-width="2.5"/>
<path d="m415.82 272.88c-3.906 4.112-14.559 14.594-29.3 23.277" fill="none" stroke-width="2.5"/>
<path d="m397.26 268.2s-5.986 5.038-14.719 10.457" fill="none" stroke-width="2.5"/>
<path d="m384.99 263.15s-0.8 0.676-2.248 1.8" fill="none" stroke-width="2.5"/>
<path d="m505.7 266.75c1.441 1.183 6.668 5.409 11.494 8.692" fill="none" stroke-width="2.5"/>
<path d="m515.47 260.74c0.413 0.339 1.133 0.923 2.06 1.664" fill="none" stroke-width="2.5"/>
<path d="m177.1 361.73 9 6.333 19.547 11.324c6.453 3.676 7.637-12.228 0.978-15.653s-20.858-6.67-24.524-6.67-5.001 4.666-5.001 4.666z" fill="#fff" stroke-width="3"/>
<path d="m90.876 327.64s21.524 20.938 59.011 20.938c31.318 0 56.737 15.159 56.737 15.159s-20.539-6.358-21.521-2.445c-0.982 3.914 8.802 7.334 20.543 18.098 0 0-28.369-13.699-57.229-18.098-28.855-4.401-57.541-9.686-57.541-33.652z" fill="#fff" stroke-width="3"/>
<path d="m129.08 327.23s-3.798 21.352 20.804 21.352c24.603 0 20.806-20.267 20.806-20.267l-41.61-1.085z" fill="#fff" stroke-width="3"/>
<path d="m93.542 249.26s8.128-92.442 12.698-126.98c4.572-34.536 36.216-30.339 39.11-30.984 4.57-1.017 0.505-13.712 13.714-13.712 11.678 0 10.666 12.699 12.695 14.729 2.031 2.033 31.491 2.541 35.048 29.967 3.557 27.429 6.093 122.92 6.093 122.92l-9.649 28.442-54.349 12.191-43.68-6.095-11.68-30.476z" fill="#fff" stroke-width="3"/>
<path d="m175.62 101.77c8.905 1.678 19.571 7.501 21.884 25.341 3.556 27.429 6.356 127.17 6.356 127.17" fill="none" stroke-width="2.5"/>
<path d="m174.26 108.6c8.308 3.129 12.616 10.648 13.988 21.207 3.536 27.165 6.324 129.36 6.324 129.36" fill="none" stroke-width="2.5"/>
<path d="m172.97 116.66c2.907 3.494 5.129 8.288 5.951 14.848 3.397 27.187 5.345 130.34 5.345 130.34" fill="none" stroke-width="2.5"/>
<path d="m171.44 178.45c1.648 39.083 2.547 86.825 2.547 86.825" fill="none" stroke-width="2.5"/>
<path d="m163.31 227.86c0.593 21.469 0.904 37.9 0.904 37.9" fill="none" stroke-width="2.5"/>
<path d="m150.94 333.58c-31.999 0-65.521-22.856-65.521-57.394 0-34.539 5.588-28.442 8.127-26.918 0 0 1.017 17.27 54.348 17.27s65.011-21.331 65.011-21.331 6.605-4.576 7.112 7.618c0.507 12.187 9.14 80.755-69.077 80.755z" fill="#fff" stroke-width="3"/>
<path d="m130.23 336.67c1.924 0.596 18.021 5.772 39.492 0.857" fill="none" stroke-width="2.5"/>
<path d="m133.81 343.19s14.45 3.097 31.476 0.414" fill="none" stroke-width="2.5"/>
<path d="m102.68 269c1.657 3.118 30.434 56.458 67.364 63.007" fill="none" stroke-width="2.5"/>
<path d="m85.422 273.63c6.727 12.55 26.647 46.354 52.096 58.622" fill="none" stroke-width="2.5"/>
<path d="m128.52 274.38c8.368 12.934 31.37 44.634 59.837 51.859" fill="none" stroke-width="2.5"/>
<path d="m154.13 275.92c8.092 10.994 25.592 31.935 47.522 41.484" fill="none" stroke-width="2.5"/>
<path d="m174.65 275.02c6.711 7.844 19.792 21.466 36.466 30.59" fill="none" stroke-width="2.5"/>
<path d="m193.17 272.04c4.227 4.289 12.693 12.209 23.99 19.442" fill="none" stroke-width="2.5"/>
<path d="m211.11 265.5s-30.391 57.897-66.383 67.799" fill="none" stroke-width="2.5"/>
<path d="m218.04 288.14c-7.908 12.706-20.254 29.661-35.149 40.431" fill="none" stroke-width="2.5"/>
<path d="m183.8 273.89c-6.341 10.25-30.067 45.672-60.154 54.218" fill="none" stroke-width="2.5"/>
<path d="m158.1 275.89c-7.19 10.134-25.745 33.678-49.432 43.881" fill="none" stroke-width="2.5"/>
<path d="m137.6 275.28c-6.263 7.601-21.057 23.847-40.313 33.734" fill="none" stroke-width="2.5"/>
<path d="m118.78 272.88c-3.906 4.112-14.559 14.594-29.3 23.277" fill="none" stroke-width="2.5"/>
<path d="m100.21 268.2s-5.986 5.038-14.719 10.457" fill="none" stroke-width="2.5"/>
<path d="m87.938 263.15s-0.8 0.676-2.248 1.8" fill="none" stroke-width="2.5"/>
<path d="m208.65 266.75c1.441 1.183 6.668 5.409 11.494 8.692" fill="none" stroke-width="2.5"/>
<path d="m218.42 260.74c0.413 0.339 1.133 0.923 2.06 1.664" fill="none" stroke-width="2.5"/>
</g>
</g>
<g>
<path d="m1.5 1.5v458.87c0 166.31 134.31 301.13 300 301.13 165.69 0 300-134.82 300-301.13v-458.87h-600z" fill="url(#a)"/>
<path d="m1.5 1.5v458.87c0 166.31 134.31 301.13 300 301.13 165.69 0 300-134.82 300-301.13v-458.87h-600z" fill="none" stroke="#000" stroke-width="3"/>
</g>
</svg>
