<?xml version="1.0" encoding="UTF-8"?>
<svg version="1.0" viewBox="0 0 603 763" xmlns="http://www.w3.org/2000/svg" xmlns:cc="http://creativecommons.org/ns#" xmlns:dc="http://purl.org/dc/elements/1.1/" xmlns:rdf="http://www.w3.org/1999/02/22-rdf-syntax-ns#" xmlns:xlink="http://www.w3.org/1999/xlink">
<metadata>
<rdf:RDF>
<cc:Work rdf:about="">
<dc:format>image/svg+xml</dc:format>
<dc:type rdf:resource="http://purl.org/dc/dcmitype/StillImage"/>
<dc:date>07-AUG-2006</dc:date>
<dc:creator>
<cc:Agent>
<dc:title>Jérôme BLUM (wagner51)</dc:title>
</cc:Agent>
</dc:creator>
<cc:license rdf:resource="http://creativecommons.org/licenses/GPL/2.0/"/>
<dc:coverage/>
<dc:description>Gabarit pour le Projet:Blasons de WIkipédia</dc:description>
<dc:subject>
<rdf:Bag>
<rdf:li>blason suisse modèle gabarit projet blasons</rdf:li>
</rdf:Bag>
</dc:subject>
<dc:language>fr</dc:language>
<dc:title>Gabrit d'un blason suisse</dc:title>
</cc:Work>
<cc:License rdf:about="http://creativecommons.org/licenses/GPL/2.0/">
<cc:permits rdf:resource="http://web.resource.org/cc/Reproduction"/>
<cc:permits rdf:resource="http://web.resource.org/cc/Distribution"/>
<cc:requires rdf:resource="http://web.resource.org/cc/Notice"/>
<cc:permits rdf:resource="http://web.resource.org/cc/DerivativeWorks"/>
<cc:requires rdf:resource="http://web.resource.org/cc/ShareAlike"/>
<cc:requires rdf:resource="http://web.resource.org/cc/SourceCode"/>
</cc:License>
</rdf:RDF>
</metadata>
<defs>
<radialGradient id="a" cx="858.04" cy="579.93" r="300" gradientTransform="matrix(1.215 1.5316e-24 1.4647e-23 1.2667 -839.19 -490.49)" gradientUnits="userSpaceOnUse">
<stop stop-color="#fff" stop-opacity=".31373" offset="0"/>
<stop stop-color="#fff" stop-opacity=".25098" offset=".19"/>
<stop stop-color="#6b6b6b" stop-opacity=".12549" offset=".6"/>
<stop stop-opacity=".12549" offset="1"/>
</radialGradient>
</defs>
<desc>Coat of Arms of Canton of Freiburg (Fribourg)</desc>
<g>
<path d="m1.5 1.5v458.87c0 166.31 134.31 301.13 300 301.13 165.69 0 300-134.82 300-301.13v-458.87h-600z" fill="#fff"/>
<g stroke="#000" stroke-width="3">
<polygon transform="translate(-.038 -.045)" points="401.94 88.445 367.94 155.55 235.14 155.55 201.14 88.445 109.64 179.94 194.14 343.14 241.14 316.44 264.14 244.44 338.94 244.44 361.94 316.44 408.94 343.14 493.44 179.94" fill="#5ab532"/>
<path d="m297.34 233.5h46.972l0.621 296.61c1.141 12.814 5.324 54.139 29.707 59.049 28.118 5.662 24.245 11.367 27.7 24.344l-211.24-0.01c3.455-12.977-0.417-18.68 27.7-24.342 24.383-4.91 28.567-46.236 29.708-59.051l0.621-296.61h46.972" fill="#b7502c" stroke-linecap="round" stroke-linejoin="round"/>
<path d="m427.2 47.457c4.511 1.396 12.202 7.922 5.948 14.242-3.969 4.011-6.368 8.788 2.384 11.438 12.188 3.691 6.514 16.109 1.07 17.573-12.88 3.464-9.951 9.802-2.313 12.634 8.733 3.229 1.879 17.548-9.102 16.343-5.641-0.619-9.66 4.137-6 10.228 3.723 6.193-2e-3 10.933-5.281 11.035-5.86 0.112-11.287 4.077-8.993 8.439 3.904 7.441-4.813 9.119-11.752 6.857-3.664-1.195-7.876 2.914-6.12 8.229 2.15 6.509-4.39 8.982-10.175 6.572-3.834-1.598-9.897-0.513-8.979 4.715 1.648 9.439-7.384 4.753-9.242 6.578-7.009 6.877-11.021 30.363-12.638 30.148-3.508-0.466-5.348-2.474-5.114-3.207 7.029-22.08 12.677-31.1 5.162-41.693-7.667-10.809-9.924-15.339-0.934-16.887 8.002-1.377 3.194-6.587-2.121-11.145-7.487-6.419-0.951-14.141 5.054-15.46 9.102-2.003 7.787-4.837 4.521-10.617-5.047-8.934-1.105-16.802 5.774-17.009 8.32-0.251 12.164 0.263 10.032-9.703-1.196-5.594-1.209-16.084 9.789-16.793 8.627-0.556 7.8-3.129 7.768-9.405-0.038-7.536 14.92-14.369 18.862-7.475 2.217 3.877 6.973 6.509 8.479 0.772 1.602-6.097 9.41-7.805 13.921-6.409z" fill="#5ab532"/>
<path d="m173.68 47.573c-4.511 1.396-12.202 7.922-5.948 14.243 3.969 4.011 6.368 8.787-2.384 11.438-12.188 3.691-6.513 16.108-1.07 17.573 12.88 3.465 9.951 9.803 2.314 12.634-8.733 3.229-1.879 17.549 9.102 16.344 5.64-0.619 9.66 4.137 6 10.228-3.722 6.193 2e-3 10.933 5.282 11.035 5.86 0.112 11.286 4.077 8.993 8.438-3.905 7.441 4.813 9.119 11.752 6.857 3.664-1.195 7.875 2.915 6.12 8.229-2.15 6.509 4.39 8.982 10.175 6.572 3.834-1.598 9.897-0.513 8.98 4.715-1.648 9.438 7.383 4.753 9.242 6.577 7.008 6.877 11.02 30.363 12.637 30.148 3.508-0.466 5.348-2.474 5.114-3.207-7.029-22.08-12.676-31.1-5.162-41.693 7.667-10.809 9.924-15.339 0.934-16.887-8.002-1.378-3.195-6.587 2.121-11.145 7.487-6.419 0.951-14.141-5.054-15.46-9.102-2.003-7.787-4.838-4.521-10.618 5.047-8.933 1.105-16.801-5.774-17.009-8.32-0.251-12.164 0.263-10.032-9.704 1.196-5.594 1.208-16.084-9.79-16.793-8.626-0.556-7.799-3.129-7.768-9.404 0.039-7.537-14.919-14.369-18.862-7.475-2.217 3.877-6.973 6.51-8.479 0.772-1.603-6.095-9.411-7.804-13.922-6.408z" fill="#5ab532"/>
<path d="m24.961 235.67c0.358-5.185 5.967-15.429 15.417-11.033 5.998 2.79 12.457 3.68 13.083-6.361 0.873-13.983 17.5-12.255 20.861-7.064 7.954 12.284 14.731 7.08 15.903-1.857 1.33-10.217 20.595-7.901 22.364 3.979 0.909 6.103 7.819 8.693 14.085 2.808 6.371-5.984 13.175-3.697 14.846 1.784 1.855 6.084 8.224 10.412 12.807 6.54 7.821-6.597 12.401 1.944 11.71 9.958-0.365 4.232 5.822 7.242 11.711 3.609 7.213-4.449 12.112 1.547 10.904 8.406-0.801 4.546 2.285 10.514 8.316 7.787 10.89-4.916 7.894 6.105 10.637 7.431 10.343 4.995 39.82 1.239 40.036 3.001 0.468 3.823-1.412 6.424-2.363 6.428-28.668 0.127-41.195-2.721-51.755 8.714-10.775 11.668-15.572 15.559-20.074 6.69-4.008-7.895-8.875-1.109-12.807 5.987-5.539 9.995-16.761 5.778-20.112-0.049-5.084-8.831-8.114-6.499-14.121-1.131-9.284 8.295-19.921 6.84-22.19-0.277-2.744-8.608-3.252-12.797-14.636-7.199-6.39 3.143-19.027 6.706-23.107-4.545-3.201-8.825-6.059-7.09-13.611-4.933-9.07 2.59-21.692-10.725-14.541-17.177 4.021-3.628 5.799-9.487-1.557-9.12-7.816 0.389-12.165-7.19-11.806-12.376z" fill="#5ab532"/>
<path d="m31.695 175.35c-1.585 5.556 0.405 18.384 11.946 17.362 7.324-0.648 14.413 0.863 11.272 11.596-4.374 14.947 13.661 19.427 19.138 15.271 12.958-9.835 18.077-1.832 15.922 7.954-2.473 11.183 18.542 16.045 24.883 4.295 3.257-6.036 11.46-6.131 15.785 2.39 4.398 8.665 12.376 8.845 16.195 3.747 4.239-5.66 12.534-7.775 15.861-1.995 5.682 9.853 13.698 2.656 16.006-5.983 1.219-4.563 8.824-5.37 13.607 0.654 5.858 7.378 13.247 2.961 14.577-4.666 0.882-5.055 6.364-10.127 11.638-4.996 9.526 9.256 10.561-3.398 13.929-3.746 12.701-1.311 42.096 13.758 42.987 11.998 1.935-3.819 0.953-7.25-0.041-7.614-29.921-10.971-44.093-12.729-50.809-28.675-6.853-16.271-10.396-22.152-18.456-14.583-7.174 6.738-9.697-2.195-11.125-11.1-2.012-12.542-15.337-12.377-21.043-7.552-8.653 7.31-10.939 3.726-15.189-4.156-6.569-12.182-18.239-14.682-23.302-8.099-6.122 7.961-8.237 12.149-18.021 1.992-5.491-5.701-17.355-14.202-25.874-3.984-6.682 8.015-9.014 5.121-16.094 0.011-8.502-6.137-26.73 3.011-21.694 12.459 2.832 5.313 2.475 12.11-5.076 8.945-8.025-3.361-15.436 2.918-17.022 8.475z" fill="#5ab532"/>
<path d="m578.02 261.06c0.505 5.173-3.329 16.204-13.377 13.435-6.377-1.757-12.895-1.565-11.849 8.44 1.455 13.935-15.229 14.985-19.403 10.423-9.879-10.797-15.701-4.542-15.376 4.466 0.382 10.296-19.001 11.203-22.714-0.219-1.907-5.868-9.15-7.277-14.355-0.436-5.292 6.958-12.381 5.829-14.937 0.7-2.837-5.693-9.836-8.906-13.714-4.328-6.62 7.801-12.552 0.137-13.198-7.881-0.341-4.234-6.941-6.178-12.146-1.62-6.377 5.583-12.201 0.48-12.146-6.484 0.036-4.616-3.995-9.99-9.491-6.301-9.926 6.652-8.797-4.713-11.722-5.565-11.027-3.212-39.476 5.374-39.98 3.671-1.095-3.692 0.329-6.569 1.267-6.731 28.251-4.874 41.076-4.141 49.597-17.167 8.693-13.292 12.779-17.923 18.688-9.923 5.26 7.122 8.936-0.376 11.639-8.025 3.807-10.774 15.572-8.475 19.842-3.283 6.477 7.867 9.078 5.065 14.113-1.223 7.781-9.719 18.513-10.045 21.929-3.402 4.132 8.035 5.327 12.082 15.627 4.674 5.78-4.157 17.653-9.764 23.541 0.655 4.618 8.173 7.149 5.989 14.24 2.61 8.516-4.057 23.169 6.984 17.186 14.531-3.364 4.244-4.146 10.317 3.046 8.736 7.642-1.68 13.187 5.074 13.693 10.247z" fill="#5ab532"/>
<path d="m569.6 178.51c1.552 5.438-0.396 17.996-11.694 16.996-7.169-0.635-14.108 0.844-11.033 11.351 4.281 14.631-13.373 19.017-18.733 14.949-12.685-9.627-17.694-1.793-15.585 7.785 2.42 10.947-18.15 15.706-24.357 4.205-3.188-5.908-11.218-6.002-15.451 2.339-4.306 8.481-12.114 8.658-15.853 3.668-4.149-5.54-12.269-7.611-15.525-1.953-5.563 9.645-13.409 2.6-15.668-5.856-1.193-4.466-8.638-5.256-13.319 0.64-5.734 7.222-12.967 2.898-14.269-4.567-0.863-4.948-6.229-9.913-11.392-4.89-9.324 9.061-10.337-3.327-13.635-3.667-12.432-1.283-41.206 13.467-42.079 11.744-1.894-3.738-0.932-7.096 0.04-7.452 29.288-10.739 43.16-12.46 49.735-28.069 6.708-15.927 10.177-21.683 18.065-14.274 7.022 6.596 9.491-2.149 10.89-10.865 1.97-12.277 15.013-12.115 20.599-7.392 8.47 7.155 10.707 3.647 14.868-4.068 6.43-11.924 17.854-14.371 22.809-7.927 5.993 7.793 8.063 11.892 17.641 1.95 5.375-5.581 16.988-13.902 25.327-3.9 6.541 7.846 8.823 5.013 15.754 0.011 8.323-6.007 26.166 2.948 21.235 12.196-2.771 5.2-2.422 11.854 4.969 8.756 7.853-3.295 15.108 2.851 16.661 8.29z" fill="#5ab532"/>
<path d="m507.79 39.984c4.211 3.046 9.938 13.224 1.21 18.92-5.539 3.615-9.711 8.626-1.521 14.468 11.405 8.136 1.146 21.334-5.038 21.441-14.632 0.253-13.801 8.758-6.835 14.479 7.968 6.532-4.187 21.657-15.205 16.875-5.659-2.456-11.513 2.039-9.831 10.469 1.709 8.572-3.831 13.137-9.367 11.656-6.145-1.644-13.187 1.473-12.324 7.41 1.463 10.127-8.208 9.497-14.645 4.672-3.399-2.548-9.226 1.111-9.257 8.03-0.039 8.475-7.72 9.461-12.902 4.808-3.435-3.083-10.132-3.621-11.007 2.94-1.587 11.843-9.356 3.471-11.932 5.098-9.709 6.136-22.112 33.14-23.723 32.391-3.491-1.625-4.705-4.596-4.205-5.406 15.055-24.397 24.097-33.522 19.977-48.533-4.203-15.316-4.969-21.444 4.939-20.575 8.82 0.774 5.636-6.945 1.692-14.036-5.553-9.987 3.961-17.281 10.679-17.043 10.185 0.356 9.808-3.449 8.429-11.386-2.13-12.267 4.731-20.524 11.972-18.686 8.757 2.224 12.581 4.009 13.85-8.614 0.713-7.085 4.373-19.694 16.079-17.207 9.183 1.951 9.222-1.392 11.386-8.943 2.599-9.068 20.575-12.738 22.269-3.256 0.952 5.332 4.985 9.939 8.563 3.502 3.803-6.838 12.536-6.521 16.747-3.474z" fill="#5ab532"/>
<path d="m81.549 45.536c-4.003 3.314-9.055 13.844 0.027 18.958 5.763 3.246 10.253 7.974 2.461 14.338-10.85 8.863 0.249 21.364 6.426 21.067 14.618-0.702 14.342 7.839 7.765 14.002-7.524 7.038 5.591 21.338 16.274 15.848 5.487-2.82 11.621 1.283 10.494 9.805-1.146 8.666 4.68 12.859 10.107 11.02 6.024-2.042 13.254 0.609 12.782 6.59-0.799 10.201 8.81 8.941 14.918 3.706 3.226-2.764 9.279 0.507 9.761 7.409 0.592 8.454 8.32 8.937 13.188 3.956 3.227-3.301 9.874-4.275 11.176 2.215 2.356 11.714 9.563 2.853 12.239 4.309 10.089 5.49 24.228 31.626 25.785 30.774 3.378-1.849 4.396-4.894 3.844-5.668-16.615-23.364-26.233-31.879-23.101-47.126 3.195-15.558 3.559-21.723-6.271-20.209-8.751 1.348-6.077-6.563-2.605-13.896 4.889-10.328-5.08-16.985-11.768-16.31-10.139 1.02-10.011-2.802-9.153-10.812 1.325-12.38-6.061-20.172-13.166-17.865-8.593 2.791-12.292 4.821-14.382-7.692-1.173-7.023-5.648-19.367-17.167-16.121-9.036 2.545-9.293-0.788-11.945-8.181-3.185-8.879-21.362-11.368-22.434-1.796-0.602 5.382-4.326 10.243-8.317 4.054-4.241-6.577-12.935-5.69-16.938-2.375z" fill="#5ab532"/>
<path d="m165.75 439.12c4.665 3.066 17.068 4.936 19.459-6 1.518-6.941 4.958-13.042 13.948-7.045 12.519 8.35 21.859-6.985 19.609-13.235-5.326-14.789 3.532-17.197 11.932-12.384 9.598 5.51 20.15-12.463 11.147-21.704-4.625-4.746-2.343-12.337 6.763-13.865 9.259-1.553 11.73-8.856 8.133-13.85-3.994-5.543-3.549-13.803 2.741-15.201 10.727-2.394 6.406-11.863-0.894-16.487-3.855-2.441-2.402-9.688 4.533-12.357 8.495-3.271 6.557-11.359-0.092-14.789-4.406-2.273-7.5-8.793-1.245-12.174 11.286-6.11-0.083-10.719 0.569-13.925 2.459-12.089 24.845-34.841 23.479-36.172-2.962-2.887-6.409-2.972-7.032-2.162-18.758 24.421-24.473 36.98-41.116 38.567-16.982 1.62-23.428 3.188-18.776 12.806 4.14 8.561-4.825 8.307-13.449 7.052-12.146-1.767-15.842 10.567-13.041 17.222 4.241 10.09 0.276 11.163-8.219 12.805-13.13 2.539-18.806 12.577-14.198 19.146 5.573 7.945 8.823 11.104-3.368 17.192-6.843 3.417-18.108 11.9-11.147 22.707 5.46 8.477 2.119 9.791-4.638 14.843-8.114 6.067-4.944 25.517 5.223 23.602 5.716-1.077 11.881 1.216 6.782 7.264-5.417 6.429-1.768 15.075 2.897 18.144z" fill="#5ab532"/>
<path d="m428.32 439.14c-4.665 3.068-17.068 4.938-19.46-6-1.518-6.939-4.958-13.041-13.947-7.045-12.52 8.352-21.859-6.984-19.609-13.234 5.325-14.79-3.532-17.197-11.933-12.384-9.598 5.51-20.15-12.463-11.147-21.703 4.625-4.747 2.344-12.338-6.764-13.865-9.259-1.553-11.73-8.856-8.132-13.851 3.994-5.543 3.549-13.803-2.741-15.201-10.728-2.393-6.406-11.863 0.894-16.486 3.854-2.442 2.402-9.688-4.534-12.358-8.494-3.271-6.556-11.359 0.092-14.789 4.407-2.273 7.5-8.793 1.246-12.174-11.286-6.109 0.083-10.719-0.569-13.925-2.459-12.09-24.845-34.842-23.479-36.172 2.963-2.887 6.409-2.972 7.031-2.162 18.759 24.42 24.474 36.979 41.116 38.567 16.982 1.62 23.428 3.188 18.776 12.806-4.141 8.562 4.825 8.307 13.449 7.052 12.146-1.768 15.841 10.567 13.041 17.222-4.241 10.09-0.276 11.163 8.219 12.805 13.13 2.539 18.806 12.578 14.197 19.146-5.572 7.945-8.822 11.104 3.369 17.192 6.842 3.417 18.108 11.9 11.146 22.707-5.46 8.477-2.118 9.791 4.639 14.843 8.114 6.068 4.944 25.518-5.223 23.603-5.717-1.077-11.881 1.216-6.782 7.264 5.42 6.427 1.77 15.076-2.895 18.142z" fill="#5ab532"/>
<path d="m259.49 211.19c-11.74 23.089 18.933 46.683 26.21 57.476 4.738 7.027 7.607 18.246 14.487 27.747 1.188-12.64 6.958-19.503 12.049-25.95 14.45-18.3 34.055-36.199 26.558-60.323l-79.304 1.05z" fill="#5ab532" stroke-linecap="round" stroke-linejoin="round"/>
<path d="m191.49 384.29c12.955-43.946 21.932-57.382 44.487-89.927" fill="none" stroke-linecap="round" stroke-linejoin="round"/>
<path d="m252.23 143.78c31.062-0.373 64.741 0.689 87.168 0 5.734-0.157 6.668 6.422 6.448 15.693-4.728 66.917-95.61 67.384-98.277 0.155-0.223-7.554 0.126-15.868 4.661-15.848zm5.439 0.311c2.872-42.361-0.58-91.503 34.339-99.443 0.752-5.846 7.194-8.973 7.77 0.466 33.048 11.108 36.149 53.884 36.358 98.503" fill="#e20909"/>
<path d="m313.66 196.06c12.039-11.044 19.256-28.824 22.908-42.75" fill="none" stroke-linecap="round" stroke-linejoin="round"/>
<path d="m292.88 196.8c12.654-10.652 23.5-27.986 29.045-40.892" fill="none" stroke-linecap="round" stroke-linejoin="round"/>
<path d="m269.66 190.69c12.406-8.386 25.352-21.402 32.24-35.179" fill="none" stroke-linecap="round" stroke-linejoin="round"/>
<path d="m260.72 176.29c7.189-4.397 17.071-13.646 21.308-19.779" fill="none" stroke-linecap="round" stroke-linejoin="round"/>
<path d="m328.28 180.33c-7.75-7.475-14.048-11.734-19.608-25.282" fill="none" stroke-linecap="round" stroke-linejoin="round"/>
<path d="m317.69 189.92c-9.363-7.924-19.337-18.078-25.173-32.074" fill="none" stroke-linecap="round" stroke-linejoin="round"/>
<path d="m301.31 193.77c-10.021-8.581-21.637-25.306-27.144-40.125" fill="none" stroke-linecap="round" stroke-linejoin="round"/>
<path d="m281.36 193.57c-9.363-7.924-18.833-25.281-23.847-39.442" fill="none" stroke-linecap="round" stroke-linejoin="round"/>
<path d="m292.54 201.23c3.839 3.546 8.339 14.393-1.057 19.034-5.963 2.946-10.728 7.45-3.25 14.263 10.414 9.488-1.41 21.437-7.596 20.804-14.639-1.499-14.826 7.092-8.557 13.637 7.173 7.475-6.773 21.121-17.201 15.028-5.356-3.129-11.738 0.657-11.069 9.275 0.68 8.763-5.397 12.657-10.747 10.516-5.938-2.376-13.342-0.107-13.191 5.923 0.248 10.286-9.332 8.499-15.18 2.911-3.089-2.951-9.344 5e-3 -10.204 6.909-1.053 8.456-8.839 8.521-13.456 3.256-3.061-3.49-9.682-4.828-11.341 1.618-3.002 11.633-9.757 2.344-12.523 3.661-10.428 4.964-26.043 30.439-27.561 29.499-3.292-2.04-4.147-5.152-3.552-5.9 17.951-22.556 28.07-30.584 25.754-46.063-2.363-15.795-2.394-22.005 7.395-19.951 8.713 1.829 6.458-6.259 3.37-13.81-4.348-10.636 6.023-16.779 12.702-15.737 10.125 1.575 10.204-2.27 9.778-10.358-0.658-12.502 7.18-19.925 14.188-17.222 8.476 3.269 12.081 5.508 14.859-6.942 1.559-6.988 6.723-19.139 18.112-15.254 8.934 3.047 9.373-0.286 12.438-7.565 3.68-8.742 22.066-10.254 22.622-0.585 0.313 5.437 3.787 10.52 8.13 4.522 4.616-6.376 13.297-5.014 17.137-1.469z" fill="#5ab532"/>
<path d="m395.96 375.74c-12.955-43.946-21.932-57.382-44.486-89.927" fill="none" stroke-linecap="round" stroke-linejoin="round"/>
<path d="m305.43 200.28c-3.84 3.655-8.339 14.836 1.058 19.622 5.963 3.037 10.728 7.68 3.25 14.703-10.413 9.781 1.41 22.099 7.597 21.446 14.639-1.545 14.826 7.311 8.557 14.058-7.174 7.707 6.772 21.773 17.2 15.493 5.356-3.227 11.738 0.677 11.069 9.562-0.681 9.033 5.397 13.048 10.746 10.841 5.938-2.45 13.342-0.111 13.191 6.105-0.247 10.604 9.332 8.761 15.181 3.001 3.088-3.042 9.344 5e-3 10.203 7.123 1.054 8.717 8.839 8.785 13.456 3.356 3.061-3.598 9.682-4.978 11.342 1.667 3.002 11.992 9.757 2.417 12.522 3.774 10.428 5.117 26.044 31.379 27.562 30.409 3.291-2.103 4.146-5.311 3.551-6.083-17.95-23.252-28.07-31.528-25.754-47.485 2.363-16.282 2.394-22.684-7.395-20.566-8.713 1.885-6.457-6.453-3.37-14.237 4.349-10.964-6.022-17.297-12.701-16.223-10.125 1.624-10.204-2.339-9.778-10.678 0.658-12.888-7.18-20.541-14.188-17.754-8.477 3.37-12.081 5.678-14.858-7.157-1.56-7.204-6.723-19.73-18.113-15.726-8.934 3.141-9.373-0.294-12.438-7.799-3.68-9.012-22.066-10.57-22.622-0.603-0.313 5.604-3.787 10.844-8.13 4.661-4.618-6.57-13.298-5.166-17.138-1.51z" fill="#5ab532"/>
<path d="m345.58 234.08c36.839 28.114 67.498 48.126 85.729 77.7" fill="none" stroke-linecap="round" stroke-linejoin="round"/>
<path d="m252.41 234.48c-36.839 28.114-67.498 48.126-85.729 77.7" fill="none" stroke-linecap="round" stroke-linejoin="round"/>
<path d="m116.11 79.928c38.698 25.791 72.427 59.626 90.657 89.2" fill="none" stroke-linecap="round" stroke-linejoin="round"/>
<path d="m476.93 73.464c-38.403 31.256-64.04 61.027-86.471 93.265" fill="none" stroke-linecap="round" stroke-linejoin="round"/>
<path d="m104.64 189.58c45.815 0.252 72.592 6.651 109.94 18.659" fill="none" stroke-linecap="round" stroke-linejoin="round"/>
<path d="m391.62 208.36c43.354-14.819 70.746-17.576 109.96-18.509" fill="none" stroke-linecap="round" stroke-linejoin="round"/>
<path d="m161.05 348.52c-18.362-25.055-37.079-53.076-50.678-70.923-3.4614-4.5741 1.3485-9.1589 9.0196-14.37 57.195-35.058 110.41 38.616 57.263 79.872-6.0179 4.573-12.985 9.122-15.605 5.4206zm-2.9099-4.6056c-36.136 22.291-74.113 53.67-100.87 29.875-5.1923 2.7871-11.483-0.63655-4.1376-6.592-10.176-33.348 22.825-60.74 59.007-86.851" fill="#e20909"/>
<path d="m167.88 268.14c-15.986-3.3754-34.647 1.0904-48.101 6.2153" fill="none" stroke-linecap="round" stroke-linejoin="round"/>
<path d="m180.56 284.61c-16.023-4.102-36.432-2.849-50.157 0.14184" fill="none" stroke-linecap="round" stroke-linejoin="round"/>
<path d="m189.08 307.06c-14.036-5.2185-32.152-8.1851-47.367-5.78" fill="none" stroke-linecap="round" stroke-linejoin="round"/>
<path d="m182.57 322.7c-7.7571-3.2929-21.027-5.9552-28.481-5.8378" fill="none" stroke-linecap="round" stroke-linejoin="round"/>
<path d="m146.57 265.38c-1.5762 10.651-1.3799 18.252-9.17 30.653" fill="none" stroke-linecap="round" stroke-linejoin="round"/>
<path d="m160.54 268.43c-1.0032 12.226-3.4659 26.243-11.461 39.129" fill="none" stroke-linecap="round" stroke-linejoin="round"/>
<path d="m173.19 279.51c-1.1558 13.142-8.0105 32.317-16.865 45.413" fill="none" stroke-linecap="round" stroke-linejoin="round"/>
<path d="m184.62 295.87c-1.0038 12.225-9.6203 30.021-18.227 42.333" fill="none" stroke-linecap="round" stroke-linejoin="round"/>
<path d="m439.92 348.79c18.362-25.056 37.079-53.076 50.678-70.923 3.4608-4.5733-1.3485-9.1589-9.0196-14.37-57.195-35.058-110.41 38.616-57.262 79.871 6.0173 4.5738 12.983 9.1236 15.604 5.4214zm2.9099-4.6056c36.136 22.291 74.113 53.67 100.87 29.875 5.1937 2.7869 11.483-0.63655 4.1376-6.592 10.175-33.347-22.825-60.739-59.007-86.851" fill="#e20909"/>
<path d="m433.09 268.41c15.984-3.3751 34.646 1.0898 48.1 6.2161" fill="none" stroke-linecap="round" stroke-linejoin="round"/>
<path d="m420.41 284.89c16.022-4.1026 36.432-2.849 50.156 0.14126" fill="none" stroke-linecap="round" stroke-linejoin="round"/>
<path d="m411.89 307.33c14.035-5.219 32.152-8.1845 47.366-5.7805" fill="none" stroke-linecap="round" stroke-linejoin="round"/>
<path d="m418.41 322.97c7.7571-3.2929 21.028-5.956 28.481-5.8378" fill="none" stroke-linecap="round" stroke-linejoin="round"/>
<path d="m454.4 265.66c1.5762 10.651 1.3799 18.252 9.17 30.653" fill="none" stroke-linecap="round" stroke-linejoin="round"/>
<path d="m440.43 268.7c1.004 12.226 3.4673 26.243 11.462 39.129" fill="none" stroke-linecap="round" stroke-linejoin="round"/>
<path d="m427.78 279.79c1.1558 13.142 8.0105 32.317 16.865 45.413" fill="none" stroke-linecap="round" stroke-linejoin="round"/>
<path d="m416.35 296.14c1.0038 12.225 9.6203 30.021 18.227 42.333" fill="none" stroke-linecap="round" stroke-linejoin="round"/>
</g>
<path d="m40.823 609.5c51.666 90.795 149.05 152 260.67 152 111.63 0 209.01-61.205 260.68-152h-521.35z" fill="#5ab532"/>
<line x1="40.823" x2="562.18" y1="609.5" y2="609.5" fill="none" stroke="#000" stroke-width="3"/>
</g>
<g>
<path d="m1.5 1.5v458.87c0 166.31 134.31 301.13 300 301.13 165.69 0 300-134.82 300-301.13v-458.87h-600z" fill="url(#a)"/>
<path d="m1.5 1.5v458.87c0 166.31 134.31 301.13 300 301.13 165.69 0 300-134.82 300-301.13v-458.87h-600z" fill="none" stroke="#000" stroke-width="3"/>
</g>
</svg>
