<?xml version="1.0" encoding="UTF-8"?>
<svg version="1.0" viewBox="0 0 603 763" xmlns="http://www.w3.org/2000/svg" xmlns:cc="http://creativecommons.org/ns#" xmlns:dc="http://purl.org/dc/elements/1.1/" xmlns:rdf="http://www.w3.org/1999/02/22-rdf-syntax-ns#" xmlns:xlink="http://www.w3.org/1999/xlink">
<metadata>
<rdf:RDF>
<cc:Work rdf:about="">
<dc:format>image/svg+xml</dc:format>
<dc:type rdf:resource="http://purl.org/dc/dcmitype/StillImage"/>
<dc:date>07-AUG-2006</dc:date>
<dc:creator>
<cc:Agent>
<dc:title>Jérôme BLUM (wagner51)</dc:title>
</cc:Agent>
</dc:creator>
<cc:license rdf:resource="http://creativecommons.org/licenses/GPL/2.0/"/>
<dc:coverage/>
<dc:description>Gabarit pour le Projet:Blasons de WIkipédia</dc:description>
<dc:subject>
<rdf:Bag>
<rdf:li>blason suisse modèle gabarit projet blasons</rdf:li>
</rdf:Bag>
</dc:subject>
<dc:language>fr</dc:language>
<dc:title>Gabrit d'un blason suisse</dc:title>
</cc:Work>
<cc:License rdf:about="http://creativecommons.org/licenses/GPL/2.0/">
<cc:permits rdf:resource="http://web.resource.org/cc/Reproduction"/>
<cc:permits rdf:resource="http://web.resource.org/cc/Distribution"/>
<cc:requires rdf:resource="http://web.resource.org/cc/Notice"/>
<cc:permits rdf:resource="http://web.resource.org/cc/DerivativeWorks"/>
<cc:requires rdf:resource="http://web.resource.org/cc/ShareAlike"/>
<cc:requires rdf:resource="http://web.resource.org/cc/SourceCode"/>
</cc:License>
</rdf:RDF>
</metadata>
<defs>
<radialGradient id="a" cx="858.04" cy="579.93" r="300" gradientTransform="matrix(1.215 1.5316e-24 1.4647e-23 1.2667 -839.19 -490.49)" gradientUnits="userSpaceOnUse">
<stop stop-color="#fff" stop-opacity=".31373" offset="0"/>
<stop stop-color="#fff" stop-opacity=".25098" offset=".19"/>
<stop stop-color="#6b6b6b" stop-opacity=".12549" offset=".6"/>
<stop stop-opacity=".12549" offset="1"/>
</radialGradient>
</defs>
<desc>Coat of Arms of Canton of Freiburg (Fribourg)</desc>
<g>
<path d="m1.5 1.5v458.87c0 166.31 134.31 301.13 300 301.13 165.69 0 300-134.82 300-301.13v-458.87h-600z" fill="#5ab532"/>
<path d="m1.503 126.84 514.83 543.7c42.941-44.225 72.449-101.64 81.9-165.63l-476.73-503.4h-120v125.33z" fill="#fcef3c"/>
<path d="m598.23 504.91-476.73-503.4" fill="none" stroke="#000" stroke-width="3"/>
<path d="m1.503 126.84 514.83 543.7" fill="none" stroke="#000" stroke-width="3"/>
<polygon transform="matrix(.91358 0 0 .91358 1116.3 251.49)" points="-891.75 -18.415 -978.54 53.073 -804.96 53.073"/>
<rect x="236.08" y="302.22" width="130.97" height="53.253"/>
<rect x="246.98" y="307.03" width="14.886" height="21.007" fill="#fff"/>
<rect x="341.14" y="307.03" width="14.885" height="21.007" fill="#fff"/>
<rect x="290.9" y="319.87" width="21.335" height="30.973" fill="#fff"/>
<polygon transform="matrix(.91358 0 0 .91358 1116.3 251.49)" points="-1062.4 -198.65 -1149.2 -127.17 -975.63 -127.17"/>
<rect x="80.163" y="137.56" width="130.97" height="53.253"/>
<rect x="91.065" y="142.37" width="14.886" height="21.007" fill="#fff"/>
<rect x="185.22" y="142.37" width="14.885" height="21.007" fill="#fff"/>
<rect x="134.98" y="155.2" width="21.335" height="30.973" fill="#fff"/>
<polygon transform="matrix(.91358 0 0 .91358 1116.3 251.49)" points="-721.22 161.67 -808.01 233.16 -634.44 233.16"/>
<rect x="391.87" y="466.75" width="130.97" height="53.253"/>
<rect x="402.77" y="471.55" width="14.886" height="21.008" fill="#fff"/>
<rect x="496.92" y="471.55" width="14.885" height="21.007" fill="#fff"/>
<rect x="446.69" y="484.39" width="21.335" height="30.974" fill="#fff"/>
<g stroke="#000" stroke-linecap="round" stroke-linejoin="round">
<path d="m151.22 397.23 1.044 232.67c9.064 0.939 22.149 0.396 28.29-5.785 8.911-5.865 17.03-5.652 24.152-16.732 7.122-11.082 11.173-9.83 16.244-22.504s-0.339-12.475 4.486-26.162c4.826-13.688 0.869-19.779 4.107-34.721 3.23-14.902-0.217-21.445-4.412-32.963-4.195-11.516 2.08-15.346-7.992-28.201-3.156-4.287-1.709-7.35-3.765-13.617-2.13-6.5-14.93-19.738-24.709-24.027s-29.176-17.419-37.445-27.96z" fill="#fcef3c" stroke-width="3"/>
<path d="m142.06 397.24-1.044 232.67c-9.064 0.938-22.149 0.395-28.29-5.787-8.911-5.865-17.03-5.65-24.152-16.732-7.122-11.08-11.172-9.828-16.243-22.504-5.071-12.674 0.338-12.475-4.487-26.162s-0.869-19.779-4.107-34.721c-3.23-14.902 0.218-21.445 4.413-32.963 4.195-11.516-2.08-15.346 7.991-28.201 3.156-4.287 1.71-7.35 3.765-13.617 2.13-6.498 14.93-19.738 24.709-24.027 9.78-4.29 29.176-17.419 37.445-27.96z" fill="#fcef3c" stroke-width="3"/>
<path d="m146.65 383.28c3.129 0 5.666 2.869 5.666 6.408v240.35c0 3.539-2.537 6.408-5.666 6.408s-5.666-2.869-5.666-6.408v-240.35c0-3.539 2.536-6.408 5.666-6.408z" fill="#fcef3c" stroke-width="3"/>
<path d="m222.53 533.95c0.689 5.609-0.807 11.455-5.75 14.25" fill="none" stroke-width="3"/>
<path d="m213.26 530.87c-0.462 5.621-2.368 8.549-6.125 11.875" fill="none" stroke-width="3"/>
<path d="m219.52 503.52c3.039 5.746 2.882 9.299 1.25 15.875" fill="none" stroke-width="3"/>
<path d="m205.3 585.48c-0.711 5.871-4.118 8.674-8.125 10.125" fill="none" stroke-width="3"/>
<path d="m192 606.06c-1.461 3.973-3.868 6.043-9.25 9" fill="none" stroke-width="3"/>
<path d="m171.5 616.56c-2.677 2.871-7.11 4.174-11.875 3" fill="none" stroke-width="3"/>
<path d="m175.03 599.46c-2.087 4.121-6.081 7.467-11.125 8.625" fill="none" stroke-width="3"/>
<path d="m167.92 587.88c-2.711 4.746-5.993 6.299-10.25 7" fill="none" stroke-width="3"/>
<path d="m167.88 569.07c-1.962 4.496-6.368 5.674-10.625 6.375" fill="none" stroke-width="3"/>
<path d="m207.38 478.62c1.538 4.871 1.506 9.924-1.375 13.875" fill="none" stroke-width="3"/>
<path d="m213.49 476.2c1.894 2.521 3.144 7.322 2.25 13.5" fill="none" stroke-width="3"/>
<path d="m201.24 456.31c3.539 4.496 3.507 7.674 2.625 12.875" fill="none" stroke-width="3"/>
<path d="m207.11 454.25c3.539 2.246 6.007 8.299 4.625 14" fill="none" stroke-width="3"/>
<path d="m191.93 436.5c4.075 2.475 6.361 5.576 8.371 10.631" fill="none" stroke-width="3"/>
<path d="m218.05 565.31c-0.586 5.355-2.743 9.514-7 12.75" fill="none" stroke-width="3"/>
<path d="m201.61 531.06c-0.836 5.871-2.243 9.299-7 12.75" fill="none" stroke-width="3"/>
<path d="m208.83 505.21c0.914 4.746-0.192 9.396-4 14.375" fill="none" stroke-width="3"/>
<path d="m198.49 554.23c-1.087 4.496-4.243 7.924-8 9.875" fill="none" stroke-width="3"/>
<path d="m207.93 560.16c-1.587 5.746-3.368 8.549-7.5 11.75" fill="none" stroke-width="3"/>
<path d="m192.93 581.45c-1.087 4.496-4.493 9.299-8.75 10.625" fill="none" stroke-width="3"/>
<path d="m183.38 570.98c-1.353 4.625-4.295 7.928-8.731 10.131" fill="none" stroke-width="3.0192"/>
<path d="m186.18 552.81c-1.712 4.371-3.993 6.799-8.5 8.5" fill="none" stroke-width="3"/>
<path d="m70.62 533.73c-0.689 5.609 0.807 11.455 5.75 14.25" fill="none" stroke-width="3"/>
<path d="m79.889 530.66c0.462 5.621 2.368 8.549 6.125 11.875" fill="none" stroke-width="3"/>
<path d="m73.623 503.3c-3.038 5.746-2.882 9.299-1.25 15.875" fill="none" stroke-width="3"/>
<path d="m87.85 585.26c0.711 5.871 4.118 8.674 8.125 10.125" fill="none" stroke-width="3"/>
<path d="m101.14 605.84c1.461 3.973 3.868 6.043 9.25 9" fill="none" stroke-width="3"/>
<path d="m121.64 616.34c2.677 2.871 7.11 4.174 11.875 3" fill="none" stroke-width="3"/>
<path d="m118.12 599.24c2.087 4.121 6.081 7.467 11.125 8.625" fill="none" stroke-width="3"/>
<path d="m125.23 587.66c2.711 4.746 5.993 6.299 10.25 7" fill="none" stroke-width="3"/>
<path d="m125.26 568.86c1.962 4.498 6.368 5.674 10.625 6.375" fill="none" stroke-width="3"/>
<path d="m85.768 478.41c-1.539 4.871-1.507 9.924 1.375 13.875" fill="none" stroke-width="3"/>
<path d="m79.66 475.99c-1.894 2.521-3.144 7.322-2.25 13.5" fill="none" stroke-width="3"/>
<path d="m91.91 456.09c-3.538 4.496-3.507 7.674-2.625 12.875" fill="none" stroke-width="3"/>
<path d="m86.035 454.03c-3.538 2.246-6.007 8.299-4.625 14" fill="none" stroke-width="3"/>
<path d="m101.21 436.28c-4.075 2.475-6.361 5.576-8.371 10.631" fill="none" stroke-width="3"/>
<path d="m75.101 565.09c0.586 5.357 2.743 9.514 7 12.75" fill="none" stroke-width="3"/>
<path d="m91.535 530.84c0.837 5.871 2.243 9.299 7 12.75" fill="none" stroke-width="3"/>
<path d="m84.322 504.99c-0.914 4.746 0.192 9.396 4 14.375" fill="none" stroke-width="3"/>
<path d="m94.654 554.01c1.087 4.496 4.243 7.924 8 9.875" fill="none" stroke-width="3"/>
<path d="m85.214 559.95c1.587 5.746 3.368 8.549 7.5 11.75" fill="none" stroke-width="3"/>
<path d="m100.21 581.23c1.087 4.498 4.493 9.299 8.75 10.625" fill="none" stroke-width="3"/>
<path d="m109.77 570.77c1.353 4.625 4.295 7.928 8.731 10.131" fill="none" stroke-width="3.0192"/>
<path d="m106.96 552.59c1.712 4.371 3.993 6.799 8.5 8.5" fill="none" stroke-width="3"/>
</g>
<g stroke="#000" stroke-linecap="round" stroke-linejoin="round">
<path d="m481.32 42.053 1.044 232.67c9.064 0.939 22.148 0.396 28.29-5.785 8.911-5.867 17.03-5.652 24.151-16.733 7.122-11.081 11.173-9.83 16.244-22.504 5.07-12.675-0.339-12.474 4.486-26.162s0.868-19.78 4.106-34.721c3.23-14.903-0.217-21.446-4.412-32.962-4.194-11.517 2.08-15.346-7.991-28.202-3.156-4.287-1.71-7.349-3.765-13.618-2.131-6.499-14.93-19.738-24.71-24.027-9.778-4.288-29.174-17.418-37.443-27.958z" fill="#fcef3c" stroke-width="3"/>
<path d="m472.15 42.059-1.045 232.67c-9.063 0.939-22.148 0.396-28.29-5.785-8.91-5.867-17.029-5.652-24.151-16.733s-11.173-9.83-16.243-22.504c-5.071-12.675 0.338-12.475-4.487-26.162s-0.868-19.78-4.106-34.721c-3.23-14.903 0.218-21.446 4.412-32.962 4.195-11.516-2.08-15.346 7.991-28.202 3.156-4.287 1.71-7.35 3.765-13.618 2.131-6.499 14.931-19.738 24.71-24.027 9.778-4.288 29.175-17.418 37.444-27.958z" fill="#fcef3c" stroke-width="3"/>
<path d="m476.74 28.093c3.129 0 5.666 2.869 5.666 6.408v240.35c0 3.539-2.537 6.408-5.666 6.408s-5.666-2.869-5.666-6.408v-240.35c0-3.54 2.537-6.409 5.666-6.409z" fill="#fcef3c" stroke-width="3"/>
<path d="m552.62 178.77c0.689 5.608-0.807 11.455-5.75 14.25" fill="none" stroke-width="3"/>
<path d="m543.35 175.69c-0.462 5.622-2.368 8.548-6.125 11.875" fill="none" stroke-width="3"/>
<path d="m549.62 148.34c3.038 5.747 2.882 9.298 1.25 15.875" fill="none" stroke-width="3"/>
<path d="m535.39 230.3c-0.712 5.872-4.118 8.673-8.125 10.125" fill="none" stroke-width="3"/>
<path d="m522.1 250.88c-1.462 3.973-3.868 6.043-9.25 9" fill="none" stroke-width="3"/>
<path d="m501.6 261.38c-2.677 2.872-7.109 4.173-11.875 3" fill="none" stroke-width="3"/>
<path d="m505.13 244.27c-2.087 4.122-6.081 7.467-11.125 8.625" fill="none" stroke-width="3"/>
<path d="m498.02 232.7c-2.712 4.747-5.993 6.299-10.25 7" fill="none" stroke-width="3"/>
<path d="m497.98 213.89c-1.962 4.497-6.368 5.673-10.625 6.375" fill="none" stroke-width="3"/>
<path d="m537.48 123.44c1.538 4.872 1.507 9.923-1.375 13.875" fill="none" stroke-width="3"/>
<path d="m543.58 121.02c1.894 2.521 3.144 7.322 2.25 13.5" fill="none" stroke-width="3"/>
<path d="m531.33 101.13c3.538 4.497 3.507 7.673 2.625 12.875" fill="none" stroke-width="3"/>
<path d="m537.21 99.067c3.538 2.247 6.007 8.298 4.625 14" fill="none" stroke-width="3"/>
<path d="m522.03 81.315c4.074 2.475 6.361 5.576 8.371 10.631" fill="none" stroke-width="3"/>
<path d="m548.14 210.13c-0.587 5.356-2.743 9.514-7 12.75" fill="none" stroke-width="3"/>
<path d="m531.71 175.88c-0.837 5.872-2.243 9.298-7 12.75" fill="none" stroke-width="3"/>
<path d="m538.92 150.02c0.913 4.747-0.192 9.396-4 14.375" fill="none" stroke-width="3"/>
<path d="m528.59 199.05c-1.087 4.497-4.243 7.923-8 9.875" fill="none" stroke-width="3"/>
<path d="m538.03 204.98c-1.587 5.747-3.368 8.548-7.5 11.75" fill="none" stroke-width="3"/>
<path d="m523.03 226.27c-1.087 4.497-4.493 9.298-8.75 10.625" fill="none" stroke-width="3"/>
<path d="m513.48 215.8c-1.353 4.625-4.295 7.928-8.73 10.131" fill="none" stroke-width="3.0192"/>
<path d="m516.28 197.62c-1.712 4.371-3.993 6.798-8.5 8.5" fill="none" stroke-width="3"/>
<path d="m400.71 178.55c-0.689 5.608 0.807 11.455 5.75 14.25" fill="none" stroke-width="3"/>
<path d="m409.98 175.48c0.461 5.621 2.368 8.548 6.125 11.875" fill="none" stroke-width="3"/>
<path d="m403.72 148.12c-3.038 5.747-2.882 9.298-1.25 15.875" fill="none" stroke-width="3"/>
<path d="m417.94 230.08c0.711 5.871 4.118 8.673 8.125 10.125" fill="none" stroke-width="3"/>
<path d="m431.24 250.66c1.462 3.973 3.868 6.043 9.25 9" fill="none" stroke-width="3"/>
<path d="m451.74 261.16c2.677 2.872 7.11 4.173 11.875 3" fill="none" stroke-width="3"/>
<path d="m448.21 244.06c2.086 4.122 6.08 7.467 11.125 8.625" fill="none" stroke-width="3"/>
<path d="m455.32 232.48c2.712 4.747 5.993 6.298 10.25 7" fill="none" stroke-width="3"/>
<path d="m455.36 213.68c1.961 4.497 6.368 5.674 10.625 6.375" fill="none" stroke-width="3"/>
<path d="m415.86 123.23c-1.539 4.871-1.508 9.923 1.375 13.875" fill="none" stroke-width="3"/>
<path d="m409.76 120.8c-1.895 2.522-3.145 7.323-2.25 13.5" fill="none" stroke-width="3"/>
<path d="m422.01 100.91c-3.539 4.497-3.507 7.673-2.625 12.875" fill="none" stroke-width="3"/>
<path d="m416.13 98.851c-3.539 2.246-6.007 8.298-4.625 14" fill="none" stroke-width="3"/>
<path d="m431.31 81.098c-4.075 2.475-6.361 5.576-8.371 10.631" fill="none" stroke-width="3"/>
<path d="m405.2 209.91c0.587 5.356 2.743 9.513 7 12.75" fill="none" stroke-width="3"/>
<path d="m421.63 175.66c0.836 5.872 2.243 9.298 7 12.75" fill="none" stroke-width="3"/>
<path d="m414.42 149.81c-0.913 4.747 0.192 9.396 4 14.375" fill="none" stroke-width="3"/>
<path d="m424.75 198.83c1.087 4.496 4.243 7.923 8 9.875" fill="none" stroke-width="3"/>
<path d="m415.31 204.77c1.587 5.747 3.368 8.548 7.5 11.75" fill="none" stroke-width="3"/>
<path d="m430.31 226.05c1.087 4.497 4.493 9.299 8.75 10.625" fill="none" stroke-width="3"/>
<path d="m439.86 215.59c1.354 4.624 4.296 7.928 8.731 10.131" fill="none" stroke-width="3.0192"/>
<path d="m437.06 197.41c1.712 4.372 3.993 6.798 8.5 8.5" fill="none" stroke-width="3"/>
</g>
</g>
<g>
<path d="m1.5 1.5v458.87c0 166.31 134.31 301.13 300 301.13 165.69 0 300-134.82 300-301.13v-458.87h-600z" fill="url(#a)"/>
<path d="m1.5 1.5v458.87c0 166.31 134.31 301.13 300 301.13 165.69 0 300-134.82 300-301.13v-458.87h-600z" fill="none" stroke="#000" stroke-width="3"/>
</g>
</svg>
