<?xml version="1.0" encoding="UTF-8"?>
<svg version="1.0" viewBox="0 0 603 763" xmlns="http://www.w3.org/2000/svg" xmlns:cc="http://web.resource.org/cc/" xmlns:dc="http://purl.org/dc/elements/1.1/" xmlns:rdf="http://www.w3.org/1999/02/22-rdf-syntax-ns#" xmlns:xlink="http://www.w3.org/1999/xlink">
<metadata>
<rdf:RDF>
<cc:Work rdf:about="">
<dc:format>image/svg+xml</dc:format>
<dc:type rdf:resource="http://purl.org/dc/dcmitype/StillImage"/>
<dc:date>07-AUG-2006</dc:date>
<dc:creator>
<cc:Agent>
<dc:title>Jérôme BLUM (wagner51)</dc:title>
</cc:Agent>
</dc:creator>
<cc:license rdf:resource="http://creativecommons.org/licenses/GPL/2.0/"/>
<dc:coverage/>
<dc:description>Gabarit pour le Projet:Blasons de WIkipédia</dc:description>
<dc:subject>
<rdf:Bag>
<rdf:li>blason suisse modèle gabarit projet blasons</rdf:li>
</rdf:Bag>
</dc:subject>
<dc:language>fr</dc:language>
<dc:title>Gabrit d'un blason suisse</dc:title>
</cc:Work>
<cc:License rdf:about="http://creativecommons.org/licenses/GPL/2.0/">
<cc:permits rdf:resource="http://web.resource.org/cc/Reproduction"/>
<cc:permits rdf:resource="http://web.resource.org/cc/Distribution"/>
<cc:requires rdf:resource="http://web.resource.org/cc/Notice"/>
<cc:permits rdf:resource="http://web.resource.org/cc/DerivativeWorks"/>
<cc:requires rdf:resource="http://web.resource.org/cc/ShareAlike"/>
<cc:requires rdf:resource="http://web.resource.org/cc/SourceCode"/>
</cc:License>
</rdf:RDF>
</metadata>
<defs>
<radialGradient id="a" cx="858.04" cy="579.93" r="300" gradientTransform="matrix(1.215 1.5316e-24 1.4647e-23 1.2667 -839.19 -490.49)" gradientUnits="userSpaceOnUse">
<stop stop-color="#fff" stop-opacity=".31373" offset="0"/>
<stop stop-color="#fff" stop-opacity=".25098" offset=".19"/>
<stop stop-color="#6b6b6b" stop-opacity=".12549" offset=".6"/>
<stop stop-opacity=".12549" offset="1"/>
</radialGradient>
</defs>
<desc>Coat of Arms of Canton of Freiburg (Fribourg)</desc>
<path d="m1.5 1.5v458.87c0 166.31 134.31 301.13 300 301.13 165.69 0 300-134.82 300-301.13v-458.87h-600z" fill="#e20909"/>
<g fill-rule="evenodd">
<path d="m1.4971 1.4971 300 760.01 300-760.01h-600.01z" fill="#fff" stroke="#000" stroke-width="2.9941"/>
<g transform="translate(1.7171)" stroke="#fff" stroke-width="4.1177px">
<path d="m280.97 452.73c-22.057-176.97 55.865-375.23 256.53-349.94-6.6613-15.057-23.429-37.512-48.676-35.652l-1.184 7.4988 0.67958-7.1774c4.2751-14.761-18.543-20.188-18.9-5.452v13.024l-0.14618-12.275c-10.449-3.1018-21.64-2.4939-33.137-0.35478l0.39468 16.247-0.39468-16.247c-0.35676-17.916-31.206-10.709-27.298 3.9467l4.7361 16.247-4.7361-16.247c-10.174-0.30154-20.347 2.2592-30.521 5.9201l7.959 22.167-7.959-22.167c-6.4911-13.921-34.656-1.9084-26.114 13.09l12.235 20.589-12.235-20.589c-7.842 3.9836-16.644 10.783-22.562 18.615l11.511 18.615-11.511-18.615c-9.1684-10.06-34.982 4.4337-19.057 20.513-4.9008 3.4465 17.843 18.195 13.756 14.028l-13.756-14.028c-32.53 20.698-61.437 58.987-84.28 90.718 14.857 6.7313 23.133 15.041 34.073 22.562-11.04-7.5999-19.293-15.897-34.073-22.562-16.582-8.7966-32.674 21.802-14.668 32.1 10.816 8.9766 24.483 12.251 37.23 17.366-13.025-4.9687-26.356-8.4762-37.23-17.366-7.5222 16.094-11.218 32.187-14.603 48.281 13.34 3.0551 25.169 12.154 37.559 19.01-12.383-6.8825-24.223-15.938-37.559-19.01-16.872-5.421-26.571 29.448-7.959 34.862 12.936 5.8772 25.873 5.8737 38.809 6.7094-12.936-0.78768-25.873-0.7278-38.809-6.7094-3.656 15.561-3.6526 30.206-3.1574 44.729 13.262 0.40705 26.483 8.0847 39.598 12.63-13.199-4.4093-26.399-11.954-39.598-12.63-14.293-3.1107-20.975 33.524 1.9734 34.862 11.489 2.5731 22.978 3.4912 34.468 5.1307l-34.468-5.1307s0.84269 25.8 4.7361 47.492c5.5427 30.881 93.067 33.122 88.34-4.8016z"/>
<path d="m314.13 452.73c22.057-176.97-43.027-367.97-252.07-341.57 2.1961-15.615 17.289-35.837 44.211-44.024 0.61032 5.1305 1.4695 8.597 2.5731 11.919-1.1801-3.3134-1.8964-6.7199-2.0686-11.597-2.0021-15.518 21.321-15.642 22.183-4.063 0.64574 5.4303-0.1179 10.579-1.1365 15.676 1.0873-5.1636 1.8776-10.183 1.2827-14.927 10.449-3.1018 13.558-3.2516 25.056-1.1124-0.88971 5.7245-1.333 11.434 0.36297 16.5-1.8099-5.0776-1.2032-10.759-0.36297-16.5 3.1349-17.41 31.333-11.34 27.424 3.3153-1.3073 6.3846-4.6192 11.126-7.8931 15.868 3.257-4.7678 6.5994-9.4643 7.8931-15.868 10.174-0.30154 18.958 2.7643 29.132 6.4252-4.9649 6.9682-6.2517 13.431-6.1911 20.147-0.08631-6.7574 1.2913-13.195 6.1911-20.147 8.3853-13.289 35.793-3.4237 29.902 12.837-1.9852 8.6613-7.5048 14.041-11.982 20.336 4.4354-6.3067 10.034-11.725 11.982-20.336 7.842 3.9836 21.708 10.53 24.835 18.363-7.1699 6.8348-8.9198 13.414-11.511 20.589 2.4172-7.1154 4.3206-13.726 11.511-20.589 11.339-13.678 41.674 2.4485 24.639 22.746-5.3236 6.7776-9.9503 11.342-15.847 14.244 6.0911-2.7257 10.654-7.4958 15.847-14.244 17.578-7.912 38.288 19.28 31.639 30.547-6.0394 3.5623-11.087 9.5921-15.081 15.271 4.0077-5.5836 8.9727-11.788 15.081-15.271 20.55-17.866 36.888 10.071 22.297 22.385-5.8913 6.2369-10.641 9.365-20.436 13.484 9.9433-4.1523 14.566-7.1048 20.436-13.484 13.52 9.1957 22.175 23.825 24.762 35.554-14.857 6.7313-23.133 15.041-34.073 22.562 11.04-7.5999 19.293-15.897 34.073-22.562 16.582-8.7966 32.674 21.802 14.668 32.1-10.816 8.9766-24.483 12.251-37.23 17.366 13.025-4.9687 26.356-8.4762 37.23-17.366 7.5222 16.094 11.218 32.187 14.603 48.281-13.34 3.0551-25.169 12.154-37.559 19.01 12.383-6.8825 24.223-15.938 37.559-19.01 16.872-5.421 26.571 29.448 7.959 34.862-12.936 5.8772-25.873 5.8737-38.809 6.7094 12.936-0.78768 25.873-0.7278 38.809-6.7094 3.656 15.561 3.6526 30.206 3.1574 44.729-13.262 0.40705-26.483 8.0847-39.598 12.63 13.199-4.4093 26.399-11.954 39.598-12.63 14.293-3.1107 20.975 33.524-1.9734 34.862-11.489 2.5731-22.978 3.4912-34.468 5.1307l34.468-5.1307s-0.84269 25.8-4.7361 47.492c-5.5427 30.881-93.067 33.122-88.34-4.8016z"/>
</g>
</g>
<g>
<path d="m1.5 1.5v458.87c0 166.31 134.31 301.13 300 301.13 165.69 0 300-134.82 300-301.13v-458.87h-600z" fill="url(#a)"/>
<path d="m1.5 1.5v458.87c0 166.31 134.31 301.13 300 301.13 165.69 0 300-134.82 300-301.13v-458.87h-600z" fill="none" stroke="#000" stroke-width="3"/>
</g>
</svg>
