<?xml version="1.0" encoding="UTF-8" standalone="no"?>
<svg
   xmlns:dc="http://purl.org/dc/elements/1.1/"
   xmlns:cc="http://creativecommons.org/ns#"
   xmlns:rdf="http://www.w3.org/1999/02/22-rdf-syntax-ns#"
   xmlns:svg="http://www.w3.org/2000/svg"
   xmlns="http://www.w3.org/2000/svg"
   xmlns:xlink="http://www.w3.org/1999/xlink"
   xmlns:sodipodi="http://sodipodi.sourceforge.net/DTD/sodipodi-0.dtd"
   xmlns:inkscape="http://www.inkscape.org/namespaces/inkscape"
   height="763"
   width="603"
   version="1.0"
   id="svg20"
   sodipodi:version="0.32"
   inkscape:version="0.46"
   sodipodi:docname="Mathod-coat_of_arms.svg"
   sodipodi:docbase="C:\Documents and Settings\Steve\Bureau\Blason Villages Suisse pour Wikipédia (par Delta-9)"
   inkscape:output_extension="org.inkscape.output.svg.inkscape">
  <metadata
     id="metadata31">
    <rdf:RDF>
      <cc:Work
         rdf:about="">
        <dc:format>image/svg+xml</dc:format>
        <dc:type
           rdf:resource="http://purl.org/dc/dcmitype/StillImage" />
        <dc:date>07-AUG-2006</dc:date>
        <dc:creator>
          <cc:Agent>
            <dc:title>Jérôme BLUM (wagner51)</dc:title>
          </cc:Agent>
        </dc:creator>
        <cc:license
           rdf:resource="http://creativecommons.org/licenses/GPL/2.0/" />
        <dc:coverage />
        <dc:description>Gabarit pour le Projet:Blasons de WIkipédia</dc:description>
        <dc:subject>
          <rdf:Bag>
            <rdf:li>blason suisse modèle gabarit projet blasons</rdf:li>
          </rdf:Bag>
        </dc:subject>
        <dc:language>fr</dc:language>
        <dc:title>Gabrit d'un blason suisse</dc:title>
      </cc:Work>
      <cc:License
         rdf:about="http://creativecommons.org/licenses/GPL/2.0/">
        <cc:permits
           rdf:resource="http://web.resource.org/cc/Reproduction" />
        <cc:permits
           rdf:resource="http://web.resource.org/cc/Distribution" />
        <cc:requires
           rdf:resource="http://web.resource.org/cc/Notice" />
        <cc:permits
           rdf:resource="http://web.resource.org/cc/DerivativeWorks" />
        <cc:requires
           rdf:resource="http://web.resource.org/cc/ShareAlike" />
        <cc:requires
           rdf:resource="http://web.resource.org/cc/SourceCode" />
      </cc:License>
    </rdf:RDF>
  </metadata>
  <defs
     id="defs29"><inkscape:perspective
   sodipodi:type="inkscape:persp3d"
   inkscape:vp_x="0 : 381.5 : 1"
   inkscape:vp_y="0 : 1000 : 0"
   inkscape:vp_z="603 : 381.5 : 1"
   inkscape:persp3d-origin="301.5 : 254.33333 : 1"
   id="perspective28" />
<linearGradient
   id="linearGradient2893">
  <stop
     style="stop-color:#ffffff;stop-opacity:0.3137255;"
     offset="0"
     id="stop2895" />
  <stop
     id="stop2897"
     offset="0.19"
     style="stop-color:#ffffff;stop-opacity:0.25098041;" />
  <stop
     style="stop-color:#6b6b6b;stop-opacity:0.1254902;"
     offset="0.60000002"
     id="stop2901" />
  <stop
     style="stop-color:#000000;stop-opacity:0.1254902;"
     offset="1"
     id="stop2899" />
</linearGradient>
<linearGradient
   id="linearGradient2955">
  <stop
     style="stop-color:white;stop-opacity:0;"
     offset="0"
     id="stop2965" />
  <stop
     style="stop-color:black;stop-opacity:0.64583331;"
     offset="1"
     id="stop2959" />
</linearGradient>
<radialGradient
   inkscape:collect="always"
   xlink:href="#linearGradient2893"
   id="radialGradient3236"
   gradientUnits="userSpaceOnUse"
   gradientTransform="matrix(1.215027,1.531577e-24,1.464684e-23,1.266667,-839.1924,-490.4894)"
   cx="858.04236"
   cy="579.93323"
   fx="858.04236"
   fy="579.93323"
   r="300" />
<inkscape:perspective
   id="perspective2594"
   inkscape:persp3d-origin="297.63751 : 280.63 : 1"
   inkscape:vp_z="595.27502 : 420.94501 : 1"
   inkscape:vp_y="0 : 1000 : 0"
   inkscape:vp_x="0 : 420.94501 : 1"
   sodipodi:type="inkscape:persp3d" />

	
	
	

	

		
		
		
	
		
		
	
		
		
	
			
			
		
			
				
			
				
			
				
			
				
			
				
			
			
			
			
			
			
			
			
			
				
			
				
			
				
		
			
				
			
				
			
				
			
				
			
				
			
			
			
			
			
			
			
			
			
				
			
				
			
				
		
			
				
			
				
			
				
			
				
			
				
			
			
			
			
			
			
			
			
			
				
			
				
			
				
		</defs>
  <sodipodi:namedview
     inkscape:window-height="968"
     inkscape:window-width="1280"
     inkscape:pageshadow="2"
     inkscape:pageopacity="0.0"
     guidetolerance="10.0"
     gridtolerance="10.0"
     objecttolerance="10.0"
     borderopacity="1.0"
     bordercolor="#666666"
     pagecolor="#ffffff"
     id="base"
     inkscape:zoom="0.82534697"
     inkscape:cx="307.29797"
     inkscape:cy="358.25693"
     inkscape:window-x="1280"
     inkscape:window-y="22"
     inkscape:current-layer="layer2"
     showgrid="false"
     showguides="true"
     inkscape:guide-bbox="true">
    <sodipodi:guide
       orientation="horizontal"
       position="761.5"
       id="guide1885" />
    <sodipodi:guide
       orientation="vertical"
       position="1.5"
       id="guide1887" />
    <sodipodi:guide
       orientation="horizontal"
       position="1.5"
       id="guide1889" />
    <sodipodi:guide
       orientation="vertical"
       position="601.5"
       id="guide1891" />
    <sodipodi:guide
       orientation="vertical"
       position="301.50081"
       id="guide1893" />
  </sodipodi:namedview>
  <desc
     id="desc22">Coat of Arms of Canton of Freiburg (Fribourg)</desc>
  <g
     inkscape:groupmode="layer"
     id="layer1"
     inkscape:label="Fond écu"
     style="opacity:1;display:inline"
     sodipodi:insensitive="true">
    <path
       id="path1899"
       d="M 1.5,1.49998 L 1.5,460.3679 C 1.5,626.6785 135.81456,761.5 301.49999,761.5 C 467.18543,761.5 601.5,626.6785 601.5,460.3679 L 601.5,1.49998 L 1.5,1.49998 z"
       style="fill:#ffffff;fill-opacity:1" />
  </g>
  <g
     inkscape:groupmode="layer"
     id="layer2"
     inkscape:label="Meubles"
     style="opacity:1;display:inline"
     sodipodi:insensitive="true">
    <g
       id="g3008">
      <path
         d="M 501.499,1.5 L 501.499,684.794 C 562.867,629.655 601.5,549.544 601.5,460.366 L 601.5,1.5 L 501.499,1.5 z M 101.503,684.794 C 130.358,710.72 164.239,731.116 201.503,744.337 L 201.503,1.5 L 101.503,1.5 L 101.503,684.794 L 101.503,684.794 z M 301.499,761.497 C 336.565,761.497 370.221,755.436 401.498,744.339 L 401.498,1.5 L 301.499,1.5 L 301.499,761.497 L 301.499,761.497 z"
         id="path2741"
         style="fill:#2b5df2" />
      <path
         d="M 501.499,1.5 L 501.499,684.794 M 101.503,1.5 L 101.503,684.794 M 201.502,744.337 L 201.502,1.5 M 301.499,1.5 L 301.499,761.5 M 401.498,744.339 L 401.498,1.5"
         id="path2743"
         style="fill:none;stroke:#000000;stroke-width:3" />
    </g>
    <g
       id="g3003">
      <path
         id="path2528"
         d="M 598.405,503.618 L 598.405,469.174 L 564.341,469.174 L 564.341,433.199 L 530.277,433.199 L 530.277,397.224 L 496.213,397.224 L 496.213,361.249 L 462.149,361.249 L 462.149,325.275 L 428.085,325.275 L 428.085,289.3 L 394.021,289.3 L 394.021,253.325 L 359.957,253.325 L 359.957,217.35 L 325.893,217.35 L 325.893,181.375 L 291.828,181.375 L 291.828,145.4 L 257.764,145.4 L 257.764,109.425 L 223.7,109.425 L 223.7,73.452 L 189.631,73.452 L 189.631,37.477 L 155.567,37.477 L 155.567,1.5 L 1.499,1.5 L 1.499,162.81 L 35.567,162.81 L 35.567,198.785 L 69.631,198.785 L 69.631,234.76 L 103.695,234.76 L 103.695,270.735 L 137.759,270.735 L 137.759,306.71 L 171.823,306.71 L 171.823,342.685 L 205.887,342.685 L 205.887,378.66 L 239.951,378.66 L 239.951,414.635 L 274.016,414.635 L 274.016,450.61 L 308.08,450.61 L 308.08,486.585 L 342.144,486.585 L 342.144,522.56 L 376.208,522.56 L 376.208,558.535 L 410.272,558.535 L 410.272,594.51 L 444.336,594.51 L 444.336,630.485 L 478.4,630.485 L 478.4,666.455 L 512.464,666.455 L 512.464,674.438 C 557.794,629.429 588.889,570.027 598.405,503.618 z"
         style="fill:#e20909" />
      <path
         style="fill:none;stroke:#000000;stroke-width:3"
         d="M 598.405,503.618 L 598.405,469.174 L 564.341,469.174 L 564.341,433.199 L 530.277,433.199 L 530.277,397.224 L 496.213,397.224 L 496.213,361.249 L 462.149,361.249 L 462.149,325.275 L 428.085,325.275 L 428.085,289.3 L 394.021,289.3 L 394.021,253.325 L 359.957,253.325 L 359.957,217.35 L 325.893,217.35 L 325.893,181.375 L 291.828,181.375 L 291.828,145.4 L 257.764,145.4 L 257.764,109.425 L 223.7,109.425 L 223.7,73.452 L 189.631,73.452 L 189.631,37.477 L 155.567,37.477 L 155.567,1.5"
         id="path2532" />
      <path
         style="fill:none;stroke:#000000;stroke-width:3"
         d="M 1.499,162.809 L 35.567,162.809 L 35.567,198.784 L 69.631,198.784 L 69.631,234.759 L 103.695,234.759 L 103.695,270.734 L 137.759,270.734 L 137.759,306.709 L 171.823,306.709 L 171.823,342.684 L 205.887,342.684 L 205.887,378.659 L 239.951,378.659 L 239.951,414.634 L 274.016,414.634 L 274.016,450.609 L 308.08,450.609 L 308.08,486.584 L 342.144,486.584 L 342.144,522.559 L 376.208,522.559 L 376.208,558.534 L 410.272,558.534 L 410.272,594.509 L 444.336,594.509 L 444.336,630.484 L 478.4,630.484 L 478.4,666.455 L 512.464,666.455 L 512.464,674.438"
         id="path2534" />
    </g>
    <g
       id="g2950">
      <g
         id="g2932">
        <path
           d="M 431.55319,464.15679 C 453.41719,451.35479 489.83819,450.58179 513.60719,463.79179 C 527.38319,451.45879 536.59919,455.50279 550.17819,453.81279 C 548.16419,472.20879 542.83419,479.51379 525.14419,485.52579 C 529.81719,513.47279 530.55519,537.58879 510.47719,555.48679 C 501.85519,563.82879 492.51619,564.49279 483.88519,568.20579 C 474.38619,571.97879 469.99919,571.92279 460.28119,567.98879 C 453.07019,564.82879 443.20919,562.86979 434.42719,555.03579 C 414.32419,537.10179 411.15819,513.05879 416.53619,484.97479 C 399.55719,477.40479 393.34519,472.31879 393.48919,453.08579 C 406.89019,456.46479 420.52919,453.64279 431.55319,464.15679 z"
           stroke-miterlimit="2.15"
           sodipodi:nodetypes="cccccccsccc"
           id="path1924"
           style="fill:#fcef3c;stroke:#000000;stroke-width:3;stroke-linejoin:round;stroke-miterlimit:2.1500001" />
        <path
           d="M 490.80019,553.36479 C 486.51819,555.91579 472.69619,561.08179 472.15419,543.37679 C 472.61019,561.15979 455.67119,554.69679 452.15419,551.37679"
           sodipodi:nodetypes="ccc"
           id="path2815"
           style="fill:none;stroke:#000000;stroke-width:3;stroke-linecap:round;stroke-linejoin:round" />
        <path
           d="M 461.88719,506.73179 C 467.24219,519.11279 463.28319,524.40979 461.34719,533.09479 C 461.09319,534.16679 460.73319,534.58079 460.80119,535.20779 C 461.77819,544.13579 483.35219,544.19779 484.15419,535.08679 C 483.50719,527.33079 481.29619,515.97179 482.54219,512.63379 C 488.23819,498.47979 497.09719,488.38379 520.24719,490.02479 C 516.41619,511.16779 501.05719,514.46379 483.81119,511.40779"
           sodipodi:nodetypes="ccscccc"
           id="path1926"
           style="fill:none;stroke:#000000;stroke-width:3;stroke-linecap:round;stroke-linejoin:round" />
        <path
           d="M 422.64019,490.11879 C 443.68019,486.84579 455.16819,498.29279 459.83319,511.40979 C 440.57519,513.88379 427.54119,511.55979 422.64019,490.11879 z"
           sodipodi:nodetypes="ccc"
           id="path2796"
           style="fill:none;stroke:#000000;stroke-width:3;stroke-linecap:round;stroke-linejoin:round" />
        <path
           d="M 499.52319,492.89779 C 493.49019,498.66179 493.54619,509.06179 499.51119,511.85479 C 505.37419,507.49779 505.91219,495.94279 499.52319,492.89779 z"
           sodipodi:nodetypes="ccc"
           id="path2800"
           style="fill-opacity:0.94120029;stroke:#000000;stroke-width:3;stroke-linejoin:round" />
        <path
           d="M 482.28119,542.64579 C 501.75019,541.72779 517.62819,543.78879 535.42719,554.43879"
           sodipodi:nodetypes="cc"
           id="path2808"
           style="fill:none;stroke:#000000;stroke-width:1.5;stroke-linecap:round" />
        <path
           d="M 482.25019,546.07179 C 501.42019,545.08979 518.26319,551.19079 527.77619,560.08779"
           sodipodi:nodetypes="cs"
           id="path2812"
           style="fill:none;stroke:#000000;stroke-width:1.5;stroke-linecap:round" />
        <path
           d="M 482.38519,549.85079 C 501.85419,548.93279 511.17619,556.36679 520.21619,566.10279"
           sodipodi:nodetypes="cc"
           id="path2816"
           style="fill:none;stroke:#000000;stroke-width:1.5;stroke-linecap:round" />
        <path
           d="M 462.42519,542.94679 C 442.95619,542.02879 427.07819,544.08979 409.27919,554.73979"
           sodipodi:nodetypes="cc"
           id="path2827"
           style="fill:none;stroke:#000000;stroke-width:1.5;stroke-linecap:round" />
        <path
           d="M 462.45619,546.37279 C 443.28619,545.39079 426.44319,551.49179 416.93019,560.39079"
           sodipodi:nodetypes="cs"
           id="path2829"
           style="fill:none;stroke:#000000;stroke-width:1.5;stroke-linecap:round" />
        <path
           d="M 462.32219,550.15179 C 442.85319,549.23379 433.53119,556.66779 424.49019,566.40379"
           sodipodi:nodetypes="cc"
           id="path2831"
           style="fill:none;stroke:#000000;stroke-width:1.5;stroke-linecap:round" />
        <path
           d="M 420.94319,471.17879 C 418.43319,467.14979 410.38319,465.03379 406.42619,464.88879"
           sodipodi:nodetypes="cc"
           id="path2837"
           style="fill:none;stroke:#000000;stroke-width:3;stroke-linecap:round" />
        <path
           d="M 522.52519,470.61479 C 525.03419,466.58579 533.08519,464.46979 537.04119,464.32379"
           sodipodi:nodetypes="cc"
           id="path2839"
           style="fill:none;stroke:#000000;stroke-width:3;stroke-linecap:round" />
        <path
           d="M 515.16819,483.39579 C 504.02919,482.61079 494.07019,482.97179 484.50619,491.35479"
           stroke-miterlimit="2.15"
           sodipodi:nodetypes="cc"
           id="path2843"
           style="fill:none;stroke:#000000;stroke-width:3;stroke-linecap:round;stroke-linejoin:round;stroke-miterlimit:2.1500001" />
        <path
           d="M 425.85919,483.48979 C 436.99819,482.70279 446.95719,483.06379 456.52019,491.44879"
           stroke-miterlimit="2.15"
           sodipodi:nodetypes="cc"
           id="path2846"
           style="fill:none;stroke:#000000;stroke-width:3;stroke-linecap:round;stroke-linejoin:round;stroke-miterlimit:2.1500001" />
        <path
           d="M 443.61319,492.55779 C 449.64619,498.32379 449.59019,508.72179 443.62519,511.51679 C 437.76319,507.15779 437.22419,495.60479 443.61319,492.55779 z"
           sodipodi:nodetypes="ccc"
           id="path2850"
           style="fill-opacity:0.94120029;stroke:#000000;stroke-width:3;stroke-linejoin:round" />
      </g>
      <g
         id="g2914">
        <path
           d="M 261.2294,284.2837 C 283.0934,271.4817 319.5154,270.7087 343.2834,283.9187 C 357.0594,271.5857 366.2754,275.6297 379.8554,273.9397 C 377.8414,292.3357 372.5104,299.6417 354.8204,305.6527 C 359.4934,333.6007 360.2324,357.7157 340.1544,375.6127 C 331.5324,383.9547 322.1934,384.6187 313.5614,388.3317 C 304.0624,392.1047 299.6754,392.0477 289.9574,388.1157 C 282.7464,384.9557 272.8844,382.9957 264.1034,375.1617 C 244.0004,357.2277 240.8344,333.1847 246.2134,305.1017 C 229.2344,297.5307 223.0214,292.4447 223.1664,273.2117 C 236.5674,276.5927 250.2064,273.7697 261.2294,284.2837 z"
           stroke-miterlimit="2.15"
           sodipodi:nodetypes="cccccccsccc"
           id="path2908"
           style="fill:#fcef3c;stroke:#000000;stroke-width:3;stroke-linejoin:round;stroke-miterlimit:2.1500001" />
        <path
           d="M 320.4764,373.4927 C 316.1944,376.0437 302.3724,381.2087 301.8304,363.5037 C 302.2854,381.2877 285.3464,374.8237 281.8304,371.5037"
           sodipodi:nodetypes="ccc"
           id="path2910"
           style="fill:none;stroke:#000000;stroke-width:3;stroke-linecap:round;stroke-linejoin:round" />
        <path
           d="M 291.5634,326.8587 C 296.9184,339.2407 292.9594,344.5377 291.0234,353.2227 C 290.7694,354.2957 290.4084,354.7077 290.4774,355.3367 C 291.4534,364.2637 313.0274,364.3257 313.8304,355.2137 C 313.1834,347.4577 310.9724,336.0997 312.2174,332.7617 C 317.9144,318.6067 326.7724,308.5107 349.9234,310.1517 C 346.0914,331.2947 330.7324,334.5917 313.4874,331.5347"
           sodipodi:nodetypes="ccscccc"
           id="path2912"
           style="fill:none;stroke:#000000;stroke-width:3;stroke-linecap:round;stroke-linejoin:round" />
        <path
           d="M 252.3164,310.2457 C 273.3564,306.9737 284.8444,318.4187 289.5094,331.5367 C 270.2524,334.0107 257.2174,331.6877 252.3164,310.2457 z"
           sodipodi:nodetypes="ccc"
           id="path2914"
           style="fill:none;stroke:#000000;stroke-width:3;stroke-linecap:round;stroke-linejoin:round" />
        <path
           d="M 329.2014,313.0247 C 323.1684,318.7897 323.2244,329.1887 329.1894,331.9827 C 335.0504,327.6237 335.5894,316.0707 329.2014,313.0247 z"
           sodipodi:nodetypes="ccc"
           id="path2916"
           style="fill-opacity:0.94120029;stroke:#000000;stroke-width:3;stroke-linejoin:round" />
        <path
           d="M 311.9594,362.7737 C 331.4284,361.8557 347.3054,363.9157 365.1054,374.5657"
           sodipodi:nodetypes="cc"
           id="path2918"
           style="fill:none;stroke:#000000;stroke-width:1.5;stroke-linecap:round" />
        <path
           d="M 311.9264,366.1997 C 331.0964,365.2177 347.9394,371.3187 357.4524,380.2157"
           sodipodi:nodetypes="cs"
           id="path2920"
           style="fill:none;stroke:#000000;stroke-width:1.5;stroke-linecap:round" />
        <path
           d="M 312.0614,369.9777 C 331.5304,369.0597 340.8524,376.4937 349.8924,386.2297"
           sodipodi:nodetypes="cc"
           id="path2922"
           style="fill:none;stroke:#000000;stroke-width:1.5;stroke-linecap:round" />
        <path
           d="M 292.1014,363.0747 C 272.6324,362.1567 256.7554,364.2177 238.9554,374.8667"
           sodipodi:nodetypes="cc"
           id="path2924"
           style="fill:none;stroke:#000000;stroke-width:1.5;stroke-linecap:round" />
        <path
           d="M 292.1334,366.5007 C 272.9634,365.5177 256.1204,371.6187 246.6064,380.5167"
           sodipodi:nodetypes="cs"
           id="path2926"
           style="fill:none;stroke:#000000;stroke-width:1.5;stroke-linecap:round" />
        <path
           d="M 291.9994,370.2787 C 272.5304,369.3607 263.2084,376.7947 254.1684,386.5307"
           sodipodi:nodetypes="cc"
           id="path2928"
           style="fill:none;stroke:#000000;stroke-width:1.5;stroke-linecap:round" />
        <path
           d="M 250.6204,291.3067 C 248.1104,287.2777 240.0604,285.1617 236.1034,285.0157"
           sodipodi:nodetypes="cc"
           id="path2930"
           style="fill:none;stroke:#000000;stroke-width:3;stroke-linecap:round" />
        <path
           d="M 352.2024,290.7407 C 354.7124,286.7117 362.7624,284.5957 366.7194,284.4497"
           sodipodi:nodetypes="cc"
           id="path2932"
           style="fill:none;stroke:#000000;stroke-width:3;stroke-linecap:round" />
        <path
           d="M 344.8444,303.5237 C 333.7064,302.7377 323.7474,303.0987 314.1834,311.4827"
           stroke-miterlimit="2.15"
           sodipodi:nodetypes="cc"
           id="path2934"
           style="fill:none;stroke:#000000;stroke-width:3;stroke-linecap:round;stroke-linejoin:round;stroke-miterlimit:2.1500001" />
        <path
           d="M 255.5364,303.6157 C 266.6744,302.8297 276.6334,303.1907 286.1984,311.5747"
           stroke-miterlimit="2.15"
           sodipodi:nodetypes="cc"
           id="path2936"
           style="fill:none;stroke:#000000;stroke-width:3;stroke-linecap:round;stroke-linejoin:round;stroke-miterlimit:2.1500001" />
        <path
           d="M 273.2904,312.6867 C 279.3234,318.4517 279.2674,328.8507 273.3024,331.6447 C 267.4404,327.2857 266.9014,315.7327 273.2904,312.6867 z"
           sodipodi:nodetypes="ccc"
           id="path2938"
           style="fill-opacity:0.94120029;stroke:#000000;stroke-width:3;stroke-linejoin:round" />
      </g>
      <g
         id="g2896">
        <path
           d="M 90.9068,104.4102 C 112.7708,91.6082 149.1928,90.8352 172.9608,104.0452 C 186.7368,91.7112 195.9528,95.7562 209.5328,94.0662 C 207.5188,112.4622 202.1888,119.7672 184.4978,125.7782 C 189.1708,153.7262 189.9098,177.8412 169.8318,195.7392 C 161.2098,204.0812 151.8708,204.7452 143.2388,208.4572 C 133.7398,212.2312 129.3538,212.1742 119.6348,208.2422 C 112.4238,205.0822 102.5618,203.1222 93.7808,195.2882 C 73.6778,177.3532 70.5118,153.3102 75.8898,125.2282 C 58.9108,117.6562 52.6978,112.5712 52.8428,93.3382 C 66.2448,96.7192 79.8838,93.8962 90.9068,104.4102 z"
           stroke-miterlimit="2.15"
           sodipodi:nodetypes="cccccccsccc"
           id="path2942"
           style="fill:#fcef3c;stroke:#000000;stroke-width:3;stroke-linejoin:round;stroke-miterlimit:2.1500001" />
        <path
           d="M 150.1538,193.6192 C 145.8718,196.1702 132.0498,201.3352 131.5078,183.6302 C 131.9638,201.4142 115.0238,194.9512 111.5078,191.6302"
           sodipodi:nodetypes="ccc"
           id="path2944"
           style="fill:none;stroke:#000000;stroke-width:3;stroke-linecap:round;stroke-linejoin:round" />
        <path
           d="M 121.2408,146.9862 C 126.5968,159.3682 122.6368,164.6652 120.7018,173.3502 C 120.4468,174.4232 120.0868,174.8352 120.1558,175.4642 C 121.1318,184.3912 142.7058,184.4532 143.5088,175.3422 C 142.8618,167.5862 140.6498,156.2272 141.8958,152.8892 C 147.5928,138.7342 156.4508,128.6392 179.6018,130.2792 C 175.7698,151.4222 160.4108,154.7192 143.1658,151.6622"
           sodipodi:nodetypes="ccscccc"
           id="path2946"
           style="fill:none;stroke:#000000;stroke-width:3;stroke-linecap:round;stroke-linejoin:round" />
        <path
           d="M 81.9938,130.3722 C 103.0338,127.1002 114.5228,138.5452 119.1878,151.6622 C 99.9288,154.1382 86.8948,151.8152 81.9938,130.3722 z"
           sodipodi:nodetypes="ccc"
           id="path2948"
           style="fill:none;stroke:#000000;stroke-width:3;stroke-linecap:round;stroke-linejoin:round" />
        <path
           d="M 158.8778,133.1512 C 152.8448,138.9162 152.9018,149.3152 158.8668,152.1092 C 164.7288,147.7512 165.2668,136.1972 158.8778,133.1512 z"
           sodipodi:nodetypes="ccc"
           id="path2950"
           style="fill-opacity:0.94120029;stroke:#000000;stroke-width:3;stroke-linejoin:round" />
        <path
           d="M 141.6358,182.9002 C 161.1048,181.9832 176.9818,184.0432 194.7818,194.6922"
           sodipodi:nodetypes="cc"
           id="path2952"
           style="fill:none;stroke:#000000;stroke-width:1.5;stroke-linecap:round" />
        <path
           d="M 141.6048,186.3262 C 160.7748,185.3432 177.6168,191.4442 187.1308,200.3422"
           sodipodi:nodetypes="cs"
           id="path2954"
           style="fill:none;stroke:#000000;stroke-width:1.5;stroke-linecap:round" />
        <path
           d="M 141.7388,190.1042 C 161.2078,189.1872 170.5298,196.6202 179.5698,206.3562"
           sodipodi:nodetypes="cc"
           id="path2956"
           style="fill:none;stroke:#000000;stroke-width:1.5;stroke-linecap:round" />
        <path
           d="M 121.7788,183.2012 C 102.3108,182.2832 86.4328,184.3432 68.6338,194.9932"
           sodipodi:nodetypes="cc"
           id="path2958"
           style="fill:none;stroke:#000000;stroke-width:1.5;stroke-linecap:round" />
        <path
           d="M 121.8108,186.6272 C 102.6408,185.6452 85.7978,191.7452 76.2848,200.6432"
           sodipodi:nodetypes="cs"
           id="path2960"
           style="fill:none;stroke:#000000;stroke-width:1.5;stroke-linecap:round" />
        <path
           d="M 121.6768,190.4062 C 102.2078,189.4882 92.8858,196.9222 83.8458,206.6582"
           sodipodi:nodetypes="cc"
           id="path2962"
           style="fill:none;stroke:#000000;stroke-width:1.5;stroke-linecap:round" />
        <path
           d="M 80.2978,111.4332 C 77.7888,107.4042 69.7378,105.2882 65.7818,105.1432"
           sodipodi:nodetypes="cc"
           id="path2964"
           style="fill:none;stroke:#000000;stroke-width:3;stroke-linecap:round" />
        <path
           d="M 181.8798,110.8672 C 184.3898,106.8382 192.4398,104.7222 196.3968,104.5772"
           sodipodi:nodetypes="cc"
           id="path2966"
           style="fill:none;stroke:#000000;stroke-width:3;stroke-linecap:round" />
        <path
           d="M 174.5228,123.6502 C 163.3848,122.8642 153.4258,123.2252 143.8608,131.6092"
           stroke-miterlimit="2.15"
           sodipodi:nodetypes="cc"
           id="path2968"
           style="fill:none;stroke:#000000;stroke-width:3;stroke-linecap:round;stroke-linejoin:round;stroke-miterlimit:2.1500001" />
        <path
           d="M 85.2138,123.7432 C 96.3518,122.9572 106.3108,123.3182 115.8758,131.7022"
           stroke-miterlimit="2.15"
           sodipodi:nodetypes="cc"
           id="path2970"
           style="fill:none;stroke:#000000;stroke-width:3;stroke-linecap:round;stroke-linejoin:round;stroke-miterlimit:2.1500001" />
        <path
           d="M 102.9678,132.8132 C 109.0018,138.5792 108.9448,148.9772 102.9798,151.7712 C 97.1168,147.4122 96.5788,135.8592 102.9678,132.8132 z"
           sodipodi:nodetypes="ccc"
           id="path2972"
           style="fill-opacity:0.94120029;stroke:#000000;stroke-width:3;stroke-linejoin:round" />
      </g>
    </g>
  </g>
  <g
     inkscape:groupmode="layer"
     id="layer3"
     inkscape:label="Reflet final"
     style="display:inline"
     sodipodi:insensitive="true">
    <path
       style="fill:url(#radialGradient3236);fill-opacity:1"
       d="M 1.5,1.5 L 1.5,460.3679 C 1.5,626.67854 135.81454,761.5 301.49993,761.5 C 467.1854,761.5 601.5,626.67854 601.5,460.3679 L 601.5,1.5 L 1.5,1.5 z"
       id="path2346" />
  </g>
  <g
     inkscape:groupmode="layer"
     id="layer4"
     inkscape:label="Contour final"
     style="display:inline"
     sodipodi:insensitive="true">
    <path
       style="fill:none;fill-opacity:1;stroke:#000000;stroke-width:3;stroke-miterlimit:4;stroke-dasharray:none;stroke-opacity:1"
       d="M 1.5,1.5 L 1.5,460.36794 C 1.5,626.67854 135.81454,761.5 301.49993,761.5 C 467.1854,761.5 601.5,626.67854 601.5,460.36794 L 601.5,1.5 L 1.5,1.5 z"
       id="path3239" />
  </g>
</svg>
