<?xml version="1.0" encoding="UTF-8" standalone="no"?>
<svg
   xmlns:dc="http://purl.org/dc/elements/1.1/"
   xmlns:cc="http://creativecommons.org/ns#"
   xmlns:rdf="http://www.w3.org/1999/02/22-rdf-syntax-ns#"
   xmlns:svg="http://www.w3.org/2000/svg"
   xmlns="http://www.w3.org/2000/svg"
   xmlns:xlink="http://www.w3.org/1999/xlink"
   xmlns:sodipodi="http://sodipodi.sourceforge.net/DTD/sodipodi-0.dtd"
   xmlns:inkscape="http://www.inkscape.org/namespaces/inkscape"
   height="763"
   width="603"
   version="1.0"
   id="svg20"
   sodipodi:version="0.32"
   inkscape:version="0.46"
   sodipodi:docname="Rovray-coat_of_arms.svg"
   sodipodi:docbase="C:\Documents and Settings\Steve\Bureau\Blason Villages Suisse pour Wikipédia (par Delta-9)"
   inkscape:output_extension="org.inkscape.output.svg.inkscape">
  <metadata
     id="metadata31">
    <rdf:RDF>
      <cc:Work
         rdf:about="">
        <dc:format>image/svg+xml</dc:format>
        <dc:type
           rdf:resource="http://purl.org/dc/dcmitype/StillImage" />
        <dc:date>07-AUG-2006</dc:date>
        <dc:creator>
          <cc:Agent>
            <dc:title>Jérôme BLUM (wagner51)</dc:title>
          </cc:Agent>
        </dc:creator>
        <cc:license
           rdf:resource="http://creativecommons.org/licenses/GPL/2.0/" />
        <dc:coverage />
        <dc:description>Gabarit pour le Projet:Blasons de WIkipédia</dc:description>
        <dc:subject>
          <rdf:Bag>
            <rdf:li>blason suisse modèle gabarit projet blasons</rdf:li>
          </rdf:Bag>
        </dc:subject>
        <dc:language>fr</dc:language>
        <dc:title>Gabrit d'un blason suisse</dc:title>
      </cc:Work>
      <cc:License
         rdf:about="http://creativecommons.org/licenses/GPL/2.0/">
        <cc:permits
           rdf:resource="http://web.resource.org/cc/Reproduction" />
        <cc:permits
           rdf:resource="http://web.resource.org/cc/Distribution" />
        <cc:requires
           rdf:resource="http://web.resource.org/cc/Notice" />
        <cc:permits
           rdf:resource="http://web.resource.org/cc/DerivativeWorks" />
        <cc:requires
           rdf:resource="http://web.resource.org/cc/ShareAlike" />
        <cc:requires
           rdf:resource="http://web.resource.org/cc/SourceCode" />
      </cc:License>
    </rdf:RDF>
  </metadata>
  <defs
     id="defs29"><inkscape:perspective
   sodipodi:type="inkscape:persp3d"
   inkscape:vp_x="0 : 381.5 : 1"
   inkscape:vp_y="0 : 1000 : 0"
   inkscape:vp_z="603 : 381.5 : 1"
   inkscape:persp3d-origin="301.5 : 254.33333 : 1"
   id="perspective28" />
<linearGradient
   id="linearGradient2893">
  <stop
     style="stop-color:#ffffff;stop-opacity:0.3137255;"
     offset="0"
     id="stop2895" />
  <stop
     id="stop2897"
     offset="0.19"
     style="stop-color:#ffffff;stop-opacity:0.25098041;" />
  <stop
     style="stop-color:#6b6b6b;stop-opacity:0.1254902;"
     offset="0.60000002"
     id="stop2901" />
  <stop
     style="stop-color:#000000;stop-opacity:0.1254902;"
     offset="1"
     id="stop2899" />
</linearGradient>
<linearGradient
   id="linearGradient2955">
  <stop
     style="stop-color:white;stop-opacity:0;"
     offset="0"
     id="stop2965" />
  <stop
     style="stop-color:black;stop-opacity:0.64583331;"
     offset="1"
     id="stop2959" />
</linearGradient>
<radialGradient
   inkscape:collect="always"
   xlink:href="#linearGradient2893"
   id="radialGradient3236"
   gradientUnits="userSpaceOnUse"
   gradientTransform="matrix(1.215027,1.531577e-24,1.464684e-23,1.266667,-839.1924,-490.4894)"
   cx="858.04236"
   cy="579.93323"
   fx="858.04236"
   fy="579.93323"
   r="300" />
<inkscape:perspective
   id="perspective3150"
   inkscape:persp3d-origin="297.63751 : 280.63 : 1"
   inkscape:vp_z="595.27502 : 420.94501 : 1"
   inkscape:vp_y="0 : 1000 : 0"
   inkscape:vp_x="0 : 420.94501 : 1"
   sodipodi:type="inkscape:persp3d" />

	
	
	

	

		
			
		
			
		
		
			
		
			
		
			
		
			
		
			
		
			
		
			
		
		
		
		
			
		
		
		
		
		
		
			
	
		
		
	
		
		
		
		
		
		
		
	
			
			
			
			
		
			
			
			
		
			
			
			
			
		
			
			
			
		
			
			
			
			
		
			
			
			
		
			
			
		
			
			
			
			
			
			
			
			
			
			
			
			
			
			
			
			
			
			
			
		
			
			
			
		
				
					
				
					
				
					
				
					
				
					
				
					
				
					
				
					
				
					
				
					
				
					
				
					
				
					
				
					
				
					
			
				
				
				
			
				
				
				
			
				
				
			
				
				
			
				
				
			
				
				
			
				
				
			
				
				
			
				
				
			
				
				
			
				
				
			
				
				
			
				
				
			
				
				
			
				
				
			
				
				
			
				
				
			
				
				
			
				
				
			
				
				
			
				
				
				
			
				
				
				
			
				
				
				
			
				
				
				
			
				
				
				
			
				
				
				
			
				
				
				
			
				
				
				
			
				
				
				
			
				
				
				
			
				
				
				
			
				
				
				
			
				
				
				
			
				
				
				
			
				
				
				
			
				
				
				
			
				
				
				
			
				
				
				
			
				
				
				
			
				
				
				
			
				
				
				
			
				
				
				
			
				
				
				
			
				
				
				
			
					
					
					
					
					
					
					
					
					
					
					
				</defs>
  <sodipodi:namedview
     inkscape:window-height="968"
     inkscape:window-width="1280"
     inkscape:pageshadow="2"
     inkscape:pageopacity="0.0"
     guidetolerance="10.0"
     gridtolerance="10.0"
     objecttolerance="10.0"
     borderopacity="1.0"
     bordercolor="#666666"
     pagecolor="#ffffff"
     id="base"
     inkscape:zoom="0.8658463"
     inkscape:cx="298.33434"
     inkscape:cy="364.63086"
     inkscape:window-x="1280"
     inkscape:window-y="22"
     inkscape:current-layer="layer2"
     showgrid="false"
     showguides="true"
     inkscape:guide-bbox="true">
    <sodipodi:guide
       orientation="horizontal"
       position="761.5"
       id="guide1885" />
    <sodipodi:guide
       orientation="vertical"
       position="1.5"
       id="guide1887" />
    <sodipodi:guide
       orientation="horizontal"
       position="1.5"
       id="guide1889" />
    <sodipodi:guide
       orientation="vertical"
       position="601.5"
       id="guide1891" />
    <sodipodi:guide
       orientation="vertical"
       position="301.50081"
       id="guide1893" />
  </sodipodi:namedview>
  <desc
     id="desc22">Coat of Arms of Canton of Freiburg (Fribourg)</desc>
  <g
     inkscape:groupmode="layer"
     id="layer1"
     inkscape:label="Fond écu"
     style="opacity:1;display:inline"
     sodipodi:insensitive="true">
    <path
       id="path1899"
       d="M 1.5,1.49998 L 1.5,460.3679 C 1.5,626.6785 135.81456,761.5 301.49999,761.5 C 467.18543,761.5 601.5,626.6785 601.5,460.3679 L 601.5,1.49998 L 1.5,1.49998 z"
       style="fill:#2b5df2;fill-opacity:1" />
  </g>
  <g
     inkscape:groupmode="layer"
     id="layer2"
     inkscape:label="Meubles"
     style="opacity:1;display:inline"
     sodipodi:insensitive="true">
    <g
       id="g4366">
      <path
         d="M 209.557,689.705 C 209.557,689.705 208.721,694.4 214.131,694.4 C 219.541,694.4 218.706,689.944 218.706,689.944 L 209.557,689.705 z"
         id="path2009_24_"
         style="fill:#ffffff;stroke:#000000;stroke-width:3;stroke-linecap:round;stroke-linejoin:round" />
      <path
         d="M 201.742,672.56 C 201.742,672.56 203.529,652.234 204.534,644.638 C 205.54,637.044 212.498,637.967 213.134,637.825 C 214.14,637.601 213.245,634.809 216.15,634.809 C 218.718,634.809 218.496,637.602 218.942,638.048 C 219.389,638.494 225.867,638.607 226.649,644.637 C 227.431,650.669 227.989,671.666 227.989,671.666 L 225.867,677.92 L 213.916,680.601 L 204.312,679.261 L 201.742,672.56 z"
         id="path2011_24_"
         style="fill:#ffffff;stroke:#000000;stroke-width:3;stroke-linecap:round;stroke-linejoin:round" />
      <path
         d="M 214.362,691.101 C 207.326,691.101 199.955,686.075 199.955,678.48 C 199.955,670.885 201.184,672.226 201.742,672.561 C 201.742,672.561 201.966,676.359 213.692,676.359 C 225.42,676.359 227.988,671.668 227.988,671.668 C 227.988,671.668 229.44,670.662 229.552,673.344 C 229.664,676.023 231.562,691.101 214.362,691.101 z"
         id="path2023_24_"
         style="fill:#ffffff;stroke:#000000;stroke-width:3;stroke-linecap:round;stroke-linejoin:round" />
      <path
         d="M 384.293,689.705 C 384.293,689.705 383.457,694.4 388.867,694.4 C 394.277,694.4 393.442,689.944 393.442,689.944 L 384.293,689.705 z"
         id="path2009_23_"
         style="fill:#ffffff;stroke:#000000;stroke-width:3;stroke-linecap:round;stroke-linejoin:round" />
      <path
         d="M 376.478,672.56 C 376.478,672.56 378.265,652.234 379.27,644.638 C 380.276,637.044 387.234,637.967 387.87,637.825 C 388.876,637.601 387.981,634.809 390.886,634.809 C 393.454,634.809 393.232,637.602 393.678,638.048 C 394.125,638.494 400.603,638.607 401.385,644.637 C 402.167,650.669 402.725,671.666 402.725,671.666 L 400.603,677.92 L 388.652,680.601 L 379.048,679.261 L 376.478,672.56 z"
         id="path2011_23_"
         style="fill:#ffffff;stroke:#000000;stroke-width:3;stroke-linecap:round;stroke-linejoin:round" />
      <path
         d="M 389.098,691.101 C 382.062,691.101 374.691,686.075 374.691,678.48 C 374.691,670.885 375.92,672.226 376.478,672.561 C 376.478,672.561 376.702,676.359 388.428,676.359 C 400.156,676.359 402.724,671.668 402.724,671.668 C 402.724,671.668 404.176,670.662 404.288,673.344 C 404.4,676.023 406.298,691.101 389.098,691.101 z"
         id="path2023_23_"
         style="fill:#ffffff;stroke:#000000;stroke-width:3;stroke-linecap:round;stroke-linejoin:round" />
      <path
         d="M 122.189,589.372 C 122.189,589.372 121.354,594.067 126.764,594.067 C 132.174,594.067 131.339,589.611 131.339,589.611 L 122.189,589.372 z"
         id="path2009_21_"
         style="fill:#ffffff;stroke:#000000;stroke-width:3;stroke-linecap:round;stroke-linejoin:round" />
      <path
         d="M 114.374,572.227 C 114.374,572.227 116.161,551.901 117.166,544.305 C 118.171,536.711 125.129,537.634 125.766,537.492 C 126.771,537.268 125.877,534.476 128.782,534.476 C 131.35,534.476 131.127,537.269 131.574,537.715 C 132.021,538.161 138.499,538.274 139.281,544.304 C 140.063,550.336 140.621,571.333 140.621,571.333 L 138.499,577.587 L 126.548,580.268 L 116.943,578.928 L 114.374,572.227 z"
         id="path2011_21_"
         style="fill:#ffffff;stroke:#000000;stroke-width:3;stroke-linecap:round;stroke-linejoin:round" />
      <path
         d="M 126.994,590.768 C 119.958,590.768 112.587,585.742 112.587,578.147 C 112.587,570.552 113.816,571.893 114.374,572.228 C 114.374,572.228 114.597,576.026 126.325,576.026 C 138.052,576.026 140.62,571.335 140.62,571.335 C 140.62,571.335 142.072,570.329 142.184,573.011 C 142.295,575.69 144.194,590.768 126.994,590.768 z"
         id="path2023_21_"
         style="fill:#ffffff;stroke:#000000;stroke-width:3;stroke-linecap:round;stroke-linejoin:round" />
      <path
         d="M 296.924,589.372 C 296.924,589.372 296.089,594.067 301.499,594.067 C 306.909,594.067 306.074,589.611 306.074,589.611 L 296.924,589.372 z"
         id="path2009_20_"
         style="fill:#ffffff;stroke:#000000;stroke-width:3;stroke-linecap:round;stroke-linejoin:round" />
      <path
         d="M 289.109,572.227 C 289.109,572.227 290.896,551.901 291.901,544.305 C 292.906,536.711 299.864,537.634 300.501,537.492 C 301.505,537.268 300.612,534.476 303.517,534.476 C 306.084,534.476 305.862,537.269 306.308,537.715 C 306.755,538.161 313.233,538.274 314.015,544.304 C 314.797,550.336 315.355,571.333 315.355,571.333 L 313.233,577.587 L 301.283,580.268 L 291.678,578.928 L 289.109,572.227 z"
         id="path2011_20_"
         style="fill:#ffffff;stroke:#000000;stroke-width:3;stroke-linecap:round;stroke-linejoin:round" />
      <path
         d="M 301.73,590.768 C 294.694,590.768 287.323,585.742 287.323,578.147 C 287.323,570.552 288.552,571.893 289.11,572.228 C 289.11,572.228 289.333,576.026 301.061,576.026 C 312.788,576.026 315.356,571.335 315.356,571.335 C 315.356,571.335 316.808,570.329 316.92,573.011 C 317.031,575.69 318.93,590.768 301.73,590.768 z"
         id="path2023_20_"
         style="fill:#ffffff;stroke:#000000;stroke-width:3;stroke-linecap:round;stroke-linejoin:round" />
      <path
         d="M 471.66,589.372 C 471.66,589.372 470.826,594.067 476.235,594.067 C 481.645,594.067 480.81,589.611 480.81,589.611 L 471.66,589.372 z"
         id="path2009_19_"
         style="fill:#ffffff;stroke:#000000;stroke-width:3;stroke-linecap:round;stroke-linejoin:round" />
      <path
         d="M 463.846,572.227 C 463.846,572.227 465.633,551.901 466.639,544.305 C 467.643,536.711 474.602,537.634 475.239,537.492 C 476.243,537.268 475.35,534.476 478.255,534.476 C 480.822,534.476 480.6,537.269 481.046,537.715 C 481.493,538.161 487.971,538.274 488.753,544.304 C 489.535,550.336 490.093,571.333 490.093,571.333 L 487.971,577.587 L 476.021,580.268 L 466.416,578.928 L 463.846,572.227 z"
         id="path2011_19_"
         style="fill:#ffffff;stroke:#000000;stroke-width:3;stroke-linecap:round;stroke-linejoin:round" />
      <path
         d="M 476.466,590.768 C 469.43,590.768 462.059,585.742 462.059,578.147 C 462.059,570.552 463.288,571.893 463.846,572.228 C 463.846,572.228 464.069,576.026 475.797,576.026 C 487.524,576.026 490.092,571.335 490.092,571.335 C 490.092,571.335 491.544,570.329 491.656,573.011 C 491.768,575.69 493.666,590.768 476.466,590.768 z"
         id="path2023_19_"
         style="fill:#ffffff;stroke:#000000;stroke-width:3;stroke-linecap:round;stroke-linejoin:round" />
      <path
         d="M 34.82,489.038 C 34.82,489.038 33.985,493.733 39.395,493.733 C 44.805,493.733 43.97,489.277 43.97,489.277 L 34.82,489.038 z"
         id="path2009_18_"
         style="fill:#ffffff;stroke:#000000;stroke-width:3;stroke-linecap:round;stroke-linejoin:round" />
      <path
         d="M 27.005,471.893 C 27.005,471.893 28.792,451.567 29.797,443.971 C 30.802,436.377 37.76,437.3 38.397,437.158 C 39.402,436.934 38.508,434.143 41.413,434.143 C 43.981,434.143 43.758,436.935 44.205,437.381 C 44.652,437.827 51.13,437.94 51.912,443.97 C 52.694,450.002 53.252,470.999 53.252,470.999 L 51.13,477.253 L 39.179,479.934 L 29.574,478.594 L 27.005,471.893 z"
         id="path2011_18_"
         style="fill:#ffffff;stroke:#000000;stroke-width:3;stroke-linecap:round;stroke-linejoin:round" />
      <path
         d="M 39.626,490.434 C 32.59,490.434 25.219,485.408 25.219,477.813 C 25.219,470.218 26.448,471.559 27.006,471.894 C 27.006,471.894 27.229,475.692 38.957,475.692 C 50.684,475.692 53.252,471.001 53.252,471.001 C 53.252,471.001 54.704,469.995 54.816,472.677 C 54.927,475.356 56.826,490.434 39.626,490.434 z"
         id="path2023_18_"
         style="fill:#ffffff;stroke:#000000;stroke-width:3;stroke-linecap:round;stroke-linejoin:round" />
      <path
         d="M 209.557,489.038 C 209.557,489.038 208.721,493.733 214.131,493.733 C 219.541,493.733 218.706,489.277 218.706,489.277 L 209.557,489.038 z"
         id="path2009_17_"
         style="fill:#ffffff;stroke:#000000;stroke-width:3;stroke-linecap:round;stroke-linejoin:round" />
      <path
         d="M 201.742,471.893 C 201.742,471.893 203.529,451.567 204.534,443.971 C 205.54,436.377 212.498,437.3 213.134,437.158 C 214.14,436.934 213.245,434.143 216.15,434.143 C 218.718,434.143 218.496,436.935 218.942,437.381 C 219.389,437.827 225.867,437.94 226.649,443.97 C 227.431,450.002 227.989,470.999 227.989,470.999 L 225.867,477.253 L 213.916,479.934 L 204.312,478.594 L 201.742,471.893 z"
         id="path2011_17_"
         style="fill:#ffffff;stroke:#000000;stroke-width:3;stroke-linecap:round;stroke-linejoin:round" />
      <path
         d="M 214.362,490.434 C 207.326,490.434 199.955,485.408 199.955,477.813 C 199.955,470.218 201.184,471.559 201.742,471.894 C 201.742,471.894 201.966,475.692 213.692,475.692 C 225.42,475.692 227.988,471.001 227.988,471.001 C 227.988,471.001 229.44,469.995 229.552,472.677 C 229.664,475.356 231.562,490.434 214.362,490.434 z"
         id="path2023_17_"
         style="fill:#ffffff;stroke:#000000;stroke-width:3;stroke-linecap:round;stroke-linejoin:round" />
      <path
         d="M 384.293,489.038 C 384.293,489.038 383.457,493.733 388.867,493.733 C 394.277,493.733 393.442,489.277 393.442,489.277 L 384.293,489.038 z"
         id="path2009_16_"
         style="fill:#ffffff;stroke:#000000;stroke-width:3;stroke-linecap:round;stroke-linejoin:round" />
      <path
         d="M 376.478,471.893 C 376.478,471.893 378.265,451.567 379.27,443.971 C 380.276,436.377 387.234,437.3 387.87,437.158 C 388.876,436.934 387.981,434.143 390.886,434.143 C 393.454,434.143 393.232,436.935 393.678,437.381 C 394.125,437.827 400.603,437.94 401.385,443.97 C 402.167,450.002 402.725,470.999 402.725,470.999 L 400.603,477.253 L 388.652,479.934 L 379.048,478.594 L 376.478,471.893 z"
         id="path2011_16_"
         style="fill:#ffffff;stroke:#000000;stroke-width:3;stroke-linecap:round;stroke-linejoin:round" />
      <path
         d="M 389.098,490.434 C 382.062,490.434 374.691,485.408 374.691,477.813 C 374.691,470.218 375.92,471.559 376.478,471.894 C 376.478,471.894 376.702,475.692 388.428,475.692 C 400.156,475.692 402.724,471.001 402.724,471.001 C 402.724,471.001 404.176,469.995 404.288,472.677 C 404.4,475.356 406.298,490.434 389.098,490.434 z"
         id="path2023_16_"
         style="fill:#ffffff;stroke:#000000;stroke-width:3;stroke-linecap:round;stroke-linejoin:round" />
      <path
         d="M 559.029,489.038 C 559.029,489.038 558.193,493.733 563.603,493.733 C 569.013,493.733 568.178,489.277 568.178,489.277 L 559.029,489.038 z"
         id="path2009_15_"
         style="fill:#ffffff;stroke:#000000;stroke-width:3;stroke-linecap:round;stroke-linejoin:round" />
      <path
         d="M 551.214,471.893 C 551.214,471.893 553.001,451.567 554.006,443.971 C 555.012,436.377 561.97,437.3 562.606,437.158 C 563.612,436.934 562.717,434.143 565.622,434.143 C 568.19,434.143 567.968,436.935 568.414,437.381 C 568.861,437.827 575.339,437.94 576.121,443.97 C 576.903,450.002 577.461,470.999 577.461,470.999 L 575.339,477.253 L 563.388,479.934 L 553.784,478.594 L 551.214,471.893 z"
         id="path2011_15_"
         style="fill:#ffffff;stroke:#000000;stroke-width:3;stroke-linecap:round;stroke-linejoin:round" />
      <path
         d="M 563.834,490.434 C 556.798,490.434 549.427,485.408 549.427,477.813 C 549.427,470.218 550.656,471.559 551.214,471.894 C 551.214,471.894 551.438,475.692 563.164,475.692 C 574.892,475.692 577.46,471.001 577.46,471.001 C 577.46,471.001 578.912,469.995 579.024,472.677 C 579.136,475.356 581.034,490.434 563.834,490.434 z"
         id="path2023_15_"
         style="fill:#ffffff;stroke:#000000;stroke-width:3;stroke-linecap:round;stroke-linejoin:round" />
      <path
         d="M 122.189,388.705 C 122.189,388.705 121.354,393.4 126.764,393.4 C 132.174,393.4 131.339,388.944 131.339,388.944 L 122.189,388.705 z"
         id="path2009_14_"
         style="fill:#ffffff;stroke:#000000;stroke-width:3;stroke-linecap:round;stroke-linejoin:round" />
      <path
         d="M 114.374,371.56 C 114.374,371.56 116.161,351.233 117.166,343.638 C 118.171,336.044 125.129,336.967 125.766,336.825 C 126.771,336.601 125.877,333.81 128.782,333.81 C 131.35,333.81 131.127,336.602 131.574,337.049 C 132.021,337.496 138.499,337.608 139.281,343.638 C 140.063,349.67 140.621,370.667 140.621,370.667 L 138.499,376.921 L 126.548,379.602 L 116.943,378.262 L 114.374,371.56 z"
         id="path2011_14_"
         style="fill:#ffffff;stroke:#000000;stroke-width:3;stroke-linecap:round;stroke-linejoin:round" />
      <path
         d="M 126.994,390.101 C 119.958,390.101 112.587,385.075 112.587,377.48 C 112.587,369.885 113.816,371.226 114.374,371.561 C 114.374,371.561 114.597,375.358 126.325,375.358 C 138.052,375.358 140.62,370.668 140.62,370.668 C 140.62,370.668 142.072,369.662 142.184,372.343 C 142.295,375.023 144.194,390.101 126.994,390.101 z"
         id="path2023_14_"
         style="fill:#ffffff;stroke:#000000;stroke-width:3;stroke-linecap:round;stroke-linejoin:round" />
      <path
         d="M 296.924,388.705 C 296.924,388.705 296.089,393.4 301.499,393.4 C 306.909,393.4 306.074,388.944 306.074,388.944 L 296.924,388.705 z"
         id="path2009_13_"
         style="fill:#ffffff;stroke:#000000;stroke-width:3;stroke-linecap:round;stroke-linejoin:round" />
      <path
         d="M 289.109,371.56 C 289.109,371.56 290.896,351.233 291.901,343.638 C 292.906,336.044 299.864,336.967 300.501,336.825 C 301.505,336.601 300.612,333.81 303.517,333.81 C 306.084,333.81 305.862,336.602 306.308,337.049 C 306.755,337.496 313.233,337.608 314.015,343.638 C 314.797,349.67 315.355,370.667 315.355,370.667 L 313.233,376.921 L 301.283,379.602 L 291.678,378.262 L 289.109,371.56 z"
         id="path2011_13_"
         style="fill:#ffffff;stroke:#000000;stroke-width:3;stroke-linecap:round;stroke-linejoin:round" />
      <path
         d="M 301.73,390.101 C 294.694,390.101 287.323,385.075 287.323,377.48 C 287.323,369.885 288.552,371.226 289.11,371.561 C 289.11,371.561 289.333,375.358 301.061,375.358 C 312.788,375.358 315.356,370.668 315.356,370.668 C 315.356,370.668 316.808,369.662 316.92,372.343 C 317.031,375.023 318.93,390.101 301.73,390.101 z"
         id="path2023_13_"
         style="fill:#ffffff;stroke:#000000;stroke-width:3;stroke-linecap:round;stroke-linejoin:round" />
      <path
         d="M 471.66,388.705 C 471.66,388.705 470.826,393.4 476.235,393.4 C 481.645,393.4 480.81,388.944 480.81,388.944 L 471.66,388.705 z"
         id="path2009_12_"
         style="fill:#ffffff;stroke:#000000;stroke-width:3;stroke-linecap:round;stroke-linejoin:round" />
      <path
         d="M 463.846,371.56 C 463.846,371.56 465.633,351.233 466.639,343.638 C 467.643,336.044 474.602,336.967 475.239,336.825 C 476.243,336.601 475.35,333.81 478.255,333.81 C 480.822,333.81 480.6,336.602 481.046,337.049 C 481.493,337.496 487.971,337.608 488.753,343.638 C 489.535,349.67 490.093,370.667 490.093,370.667 L 487.971,376.921 L 476.021,379.602 L 466.416,378.262 L 463.846,371.56 z"
         id="path2011_12_"
         style="fill:#ffffff;stroke:#000000;stroke-width:3;stroke-linecap:round;stroke-linejoin:round" />
      <path
         d="M 476.466,390.101 C 469.43,390.101 462.059,385.075 462.059,377.48 C 462.059,369.885 463.288,371.226 463.846,371.561 C 463.846,371.561 464.069,375.358 475.797,375.358 C 487.524,375.358 490.092,370.668 490.092,370.668 C 490.092,370.668 491.544,369.662 491.656,372.343 C 491.768,375.023 493.666,390.101 476.466,390.101 z"
         id="path2023_12_"
         style="fill:#ffffff;stroke:#000000;stroke-width:3;stroke-linecap:round;stroke-linejoin:round" />
      <path
         d="M 34.82,288.371 C 34.82,288.371 33.985,293.066 39.395,293.066 C 44.805,293.066 43.97,288.61 43.97,288.61 L 34.82,288.371 z"
         id="path2009_11_"
         style="fill:#ffffff;stroke:#000000;stroke-width:3;stroke-linecap:round;stroke-linejoin:round" />
      <path
         d="M 27.005,271.227 C 27.005,271.227 28.792,250.9 29.797,243.305 C 30.802,235.711 37.76,236.634 38.397,236.492 C 39.402,236.268 38.508,233.477 41.413,233.477 C 43.981,233.477 43.758,236.269 44.205,236.716 C 44.652,237.163 51.13,237.275 51.912,243.305 C 52.694,249.337 53.252,270.334 53.252,270.334 L 51.13,276.588 L 39.179,279.269 L 29.574,277.929 L 27.005,271.227 z"
         id="path2011_11_"
         style="fill:#ffffff;stroke:#000000;stroke-width:3;stroke-linecap:round;stroke-linejoin:round" />
      <path
         d="M 39.626,289.768 C 32.59,289.768 25.219,284.742 25.219,277.147 C 25.219,269.552 26.448,270.893 27.006,271.228 C 27.006,271.228 27.229,275.025 38.957,275.025 C 50.684,275.025 53.252,270.335 53.252,270.335 C 53.252,270.335 54.704,269.329 54.816,272.01 C 54.927,274.689 56.826,289.768 39.626,289.768 z"
         id="path2023_11_"
         style="fill:#ffffff;stroke:#000000;stroke-width:3;stroke-linecap:round;stroke-linejoin:round" />
      <path
         d="M 209.557,288.371 C 209.557,288.371 208.721,293.066 214.131,293.066 C 219.541,293.066 218.706,288.61 218.706,288.61 L 209.557,288.371 z"
         id="path2009_10_"
         style="fill:#ffffff;stroke:#000000;stroke-width:3;stroke-linecap:round;stroke-linejoin:round" />
      <path
         d="M 201.742,271.227 C 201.742,271.227 203.529,250.9 204.534,243.305 C 205.54,235.711 212.498,236.634 213.134,236.492 C 214.14,236.268 213.245,233.477 216.15,233.477 C 218.718,233.477 218.496,236.269 218.942,236.716 C 219.389,237.163 225.867,237.275 226.649,243.305 C 227.431,249.337 227.989,270.334 227.989,270.334 L 225.867,276.588 L 213.916,279.269 L 204.312,277.929 L 201.742,271.227 z"
         id="path2011_10_"
         style="fill:#ffffff;stroke:#000000;stroke-width:3;stroke-linecap:round;stroke-linejoin:round" />
      <path
         d="M 214.362,289.768 C 207.326,289.768 199.955,284.742 199.955,277.147 C 199.955,269.552 201.184,270.893 201.742,271.228 C 201.742,271.228 201.966,275.025 213.692,275.025 C 225.42,275.025 227.988,270.335 227.988,270.335 C 227.988,270.335 229.44,269.329 229.552,272.01 C 229.664,274.689 231.562,289.768 214.362,289.768 z"
         id="path2023_10_"
         style="fill:#ffffff;stroke:#000000;stroke-width:3;stroke-linecap:round;stroke-linejoin:round" />
      <path
         d="M 384.293,288.371 C 384.293,288.371 383.457,293.066 388.867,293.066 C 394.277,293.066 393.442,288.61 393.442,288.61 L 384.293,288.371 z"
         id="path2009_9_"
         style="fill:#ffffff;stroke:#000000;stroke-width:3;stroke-linecap:round;stroke-linejoin:round" />
      <path
         d="M 376.478,271.227 C 376.478,271.227 378.265,250.9 379.27,243.305 C 380.276,235.711 387.234,236.634 387.87,236.492 C 388.876,236.268 387.981,233.477 390.886,233.477 C 393.454,233.477 393.232,236.269 393.678,236.716 C 394.125,237.163 400.603,237.275 401.385,243.305 C 402.167,249.337 402.725,270.334 402.725,270.334 L 400.603,276.588 L 388.652,279.269 L 379.048,277.929 L 376.478,271.227 z"
         id="path2011_9_"
         style="fill:#ffffff;stroke:#000000;stroke-width:3;stroke-linecap:round;stroke-linejoin:round" />
      <path
         d="M 389.098,289.768 C 382.062,289.768 374.691,284.742 374.691,277.147 C 374.691,269.552 375.92,270.893 376.478,271.228 C 376.478,271.228 376.702,275.025 388.428,275.025 C 400.156,275.025 402.724,270.335 402.724,270.335 C 402.724,270.335 404.176,269.329 404.288,272.01 C 404.4,274.689 406.298,289.768 389.098,289.768 z"
         id="path2023_9_"
         style="fill:#ffffff;stroke:#000000;stroke-width:3;stroke-linecap:round;stroke-linejoin:round" />
      <path
         d="M 559.029,288.371 C 559.029,288.371 558.193,293.066 563.603,293.066 C 569.013,293.066 568.178,288.61 568.178,288.61 L 559.029,288.371 z"
         id="path2009_8_"
         style="fill:#ffffff;stroke:#000000;stroke-width:3;stroke-linecap:round;stroke-linejoin:round" />
      <path
         d="M 551.214,271.227 C 551.214,271.227 553.001,250.9 554.006,243.305 C 555.012,235.711 561.97,236.634 562.606,236.492 C 563.612,236.268 562.717,233.477 565.622,233.477 C 568.19,233.477 567.968,236.269 568.414,236.716 C 568.861,237.163 575.339,237.275 576.121,243.305 C 576.903,249.337 577.461,270.334 577.461,270.334 L 575.339,276.588 L 563.388,279.269 L 553.784,277.929 L 551.214,271.227 z"
         id="path2011_8_"
         style="fill:#ffffff;stroke:#000000;stroke-width:3;stroke-linecap:round;stroke-linejoin:round" />
      <path
         d="M 563.834,289.768 C 556.798,289.768 549.427,284.742 549.427,277.147 C 549.427,269.552 550.656,270.893 551.214,271.228 C 551.214,271.228 551.438,275.025 563.164,275.025 C 574.892,275.025 577.46,270.335 577.46,270.335 C 577.46,270.335 578.912,269.329 579.024,272.01 C 579.136,274.689 581.034,289.768 563.834,289.768 z"
         id="path2023_8_"
         style="fill:#ffffff;stroke:#000000;stroke-width:3;stroke-linecap:round;stroke-linejoin:round" />
      <path
         d="M 122.189,188.038 C 122.189,188.038 121.354,192.733 126.764,192.733 C 132.174,192.733 131.339,188.277 131.339,188.277 L 122.189,188.038 z"
         id="path2009_5_"
         style="fill:#ffffff;stroke:#000000;stroke-width:3;stroke-linecap:round;stroke-linejoin:round" />
      <path
         d="M 114.374,170.894 C 114.374,170.894 116.161,150.567 117.166,142.972 C 118.171,135.378 125.129,136.301 125.766,136.159 C 126.771,135.935 125.877,133.144 128.782,133.144 C 131.35,133.144 131.127,135.936 131.574,136.383 C 132.021,136.83 138.499,136.942 139.281,142.972 C 140.063,149.004 140.621,170.001 140.621,170.001 L 138.499,176.255 L 126.548,178.936 L 116.943,177.596 L 114.374,170.894 z"
         id="path2011_5_"
         style="fill:#ffffff;stroke:#000000;stroke-width:3;stroke-linecap:round;stroke-linejoin:round" />
      <path
         d="M 126.994,189.434 C 119.958,189.434 112.587,184.408 112.587,176.813 C 112.587,169.218 113.816,170.559 114.374,170.894 C 114.374,170.894 114.597,174.691 126.325,174.691 C 138.052,174.691 140.62,170.001 140.62,170.001 C 140.62,170.001 142.072,168.995 142.184,171.676 C 142.295,174.356 144.194,189.434 126.994,189.434 z"
         id="path2023_5_"
         style="fill:#ffffff;stroke:#000000;stroke-width:3;stroke-linecap:round;stroke-linejoin:round" />
      <path
         d="M 296.924,188.038 C 296.924,188.038 296.089,192.733 301.499,192.733 C 306.909,192.733 306.074,188.277 306.074,188.277 L 296.924,188.038 z"
         id="path2009_6_"
         style="fill:#ffffff;stroke:#000000;stroke-width:3;stroke-linecap:round;stroke-linejoin:round" />
      <path
         d="M 289.109,170.894 C 289.109,170.894 290.896,150.567 291.901,142.972 C 292.906,135.378 299.864,136.301 300.501,136.159 C 301.505,135.935 300.612,133.144 303.517,133.144 C 306.084,133.144 305.862,135.936 306.308,136.383 C 306.755,136.83 313.233,136.942 314.015,142.972 C 314.797,149.004 315.355,170.001 315.355,170.001 L 313.233,176.255 L 301.283,178.936 L 291.678,177.596 L 289.109,170.894 z"
         id="path2011_6_"
         style="fill:#ffffff;stroke:#000000;stroke-width:3;stroke-linecap:round;stroke-linejoin:round" />
      <path
         d="M 301.73,189.434 C 294.694,189.434 287.323,184.408 287.323,176.813 C 287.323,169.218 288.552,170.559 289.11,170.894 C 289.11,170.894 289.333,174.691 301.061,174.691 C 312.788,174.691 315.356,170.001 315.356,170.001 C 315.356,170.001 316.808,168.995 316.92,171.676 C 317.031,174.356 318.93,189.434 301.73,189.434 z"
         id="path2023_6_"
         style="fill:#ffffff;stroke:#000000;stroke-width:3;stroke-linecap:round;stroke-linejoin:round" />
      <path
         d="M 471.66,188.038 C 471.66,188.038 470.826,192.733 476.235,192.733 C 481.645,192.733 480.81,188.277 480.81,188.277 L 471.66,188.038 z"
         id="path2009_7_"
         style="fill:#ffffff;stroke:#000000;stroke-width:3;stroke-linecap:round;stroke-linejoin:round" />
      <path
         d="M 463.846,170.894 C 463.846,170.894 465.633,150.567 466.639,142.972 C 467.643,135.378 474.602,136.301 475.239,136.159 C 476.243,135.935 475.35,133.144 478.255,133.144 C 480.822,133.144 480.6,135.936 481.046,136.383 C 481.493,136.83 487.971,136.942 488.753,142.972 C 489.535,149.004 490.093,170.001 490.093,170.001 L 487.971,176.255 L 476.021,178.936 L 466.416,177.596 L 463.846,170.894 z"
         id="path2011_7_"
         style="fill:#ffffff;stroke:#000000;stroke-width:3;stroke-linecap:round;stroke-linejoin:round" />
      <path
         d="M 476.466,189.434 C 469.43,189.434 462.059,184.408 462.059,176.813 C 462.059,169.218 463.288,170.559 463.846,170.894 C 463.846,170.894 464.069,174.691 475.797,174.691 C 487.524,174.691 490.092,170.001 490.092,170.001 C 490.092,170.001 491.544,168.995 491.656,171.676 C 491.768,174.356 493.666,189.434 476.466,189.434 z"
         id="path2023_7_"
         style="fill:#ffffff;stroke:#000000;stroke-width:3;stroke-linecap:round;stroke-linejoin:round" />
      <path
         d="M 34.82,87.705 C 34.82,87.705 33.985,92.4 39.395,92.4 C 44.805,92.4 43.97,87.944 43.97,87.944 L 34.82,87.705 z"
         id="path2009_3_"
         style="fill:#ffffff;stroke:#000000;stroke-width:3;stroke-linecap:round;stroke-linejoin:round" />
      <path
         d="M 27.005,70.56 C 27.005,70.56 28.792,50.233 29.797,42.638 C 30.802,35.044 37.76,35.967 38.397,35.825 C 39.402,35.601 38.508,32.81 41.413,32.81 C 43.981,32.81 43.758,35.602 44.205,36.049 C 44.652,36.496 51.13,36.608 51.912,42.638 C 52.694,48.67 53.252,69.667 53.252,69.667 L 51.13,75.921 L 39.179,78.602 L 29.574,77.262 L 27.005,70.56 z"
         id="path2011_3_"
         style="fill:#ffffff;stroke:#000000;stroke-width:3;stroke-linecap:round;stroke-linejoin:round" />
      <path
         d="M 39.626,89.101 C 32.59,89.101 25.219,84.075 25.219,76.48 C 25.219,68.885 26.448,70.226 27.006,70.561 C 27.006,70.561 27.229,74.358 38.957,74.358 C 50.684,74.358 53.252,69.668 53.252,69.668 C 53.252,69.668 54.704,68.662 54.816,71.343 C 54.927,74.023 56.826,89.101 39.626,89.101 z"
         id="path2023_3_"
         style="fill:#ffffff;stroke:#000000;stroke-width:3;stroke-linecap:round;stroke-linejoin:round" />
      <path
         d="M 209.557,87.705 C 209.557,87.705 208.721,92.4 214.131,92.4 C 219.541,92.4 218.706,87.944 218.706,87.944 L 209.557,87.705 z"
         id="path2009_4_"
         style="fill:#ffffff;stroke:#000000;stroke-width:3;stroke-linecap:round;stroke-linejoin:round" />
      <path
         d="M 201.742,70.56 C 201.742,70.56 203.529,50.233 204.534,42.638 C 205.54,35.044 212.498,35.967 213.134,35.825 C 214.14,35.601 213.245,32.81 216.15,32.81 C 218.718,32.81 218.496,35.602 218.942,36.049 C 219.389,36.496 225.867,36.608 226.649,42.638 C 227.431,48.67 227.989,69.667 227.989,69.667 L 225.867,75.921 L 213.916,78.602 L 204.312,77.262 L 201.742,70.56 z"
         id="path2011_4_"
         style="fill:#ffffff;stroke:#000000;stroke-width:3;stroke-linecap:round;stroke-linejoin:round" />
      <path
         d="M 214.362,89.101 C 207.326,89.101 199.955,84.075 199.955,76.48 C 199.955,68.885 201.184,70.226 201.742,70.561 C 201.742,70.561 201.966,74.358 213.692,74.358 C 225.42,74.358 227.988,69.668 227.988,69.668 C 227.988,69.668 229.44,68.662 229.552,71.343 C 229.664,74.023 231.562,89.101 214.362,89.101 z"
         id="path2023_4_"
         style="fill:#ffffff;stroke:#000000;stroke-width:3;stroke-linecap:round;stroke-linejoin:round" />
      <path
         d="M 384.293,87.705 C 384.293,87.705 383.457,92.4 388.867,92.4 C 394.277,92.4 393.442,87.944 393.442,87.944 L 384.293,87.705 z"
         id="path2009_2_"
         style="fill:#ffffff;stroke:#000000;stroke-width:3;stroke-linecap:round;stroke-linejoin:round" />
      <path
         d="M 376.478,70.56 C 376.478,70.56 378.265,50.233 379.27,42.638 C 380.276,35.044 387.234,35.967 387.87,35.825 C 388.876,35.601 387.981,32.81 390.886,32.81 C 393.454,32.81 393.232,35.602 393.678,36.049 C 394.125,36.496 400.603,36.608 401.385,42.638 C 402.167,48.67 402.725,69.667 402.725,69.667 L 400.603,75.921 L 388.652,78.602 L 379.048,77.262 L 376.478,70.56 z"
         id="path2011_2_"
         style="fill:#ffffff;stroke:#000000;stroke-width:3;stroke-linecap:round;stroke-linejoin:round" />
      <path
         d="M 389.098,89.101 C 382.062,89.101 374.691,84.075 374.691,76.48 C 374.691,68.885 375.92,70.226 376.478,70.561 C 376.478,70.561 376.702,74.358 388.428,74.358 C 400.156,74.358 402.724,69.668 402.724,69.668 C 402.724,69.668 404.176,68.662 404.288,71.343 C 404.4,74.023 406.298,89.101 389.098,89.101 z"
         id="path2023_2_"
         style="fill:#ffffff;stroke:#000000;stroke-width:3;stroke-linecap:round;stroke-linejoin:round" />
      <path
         d="M 559.029,87.705 C 559.029,87.705 558.193,92.4 563.603,92.4 C 569.013,92.4 568.178,87.944 568.178,87.944 L 559.029,87.705 z"
         id="path2009_1_"
         style="fill:#ffffff;stroke:#000000;stroke-width:3;stroke-linecap:round;stroke-linejoin:round" />
      <path
         d="M 551.214,70.56 C 551.214,70.56 553.001,50.233 554.006,42.638 C 555.012,35.044 561.97,35.967 562.606,35.825 C 563.612,35.601 562.717,32.81 565.622,32.81 C 568.19,32.81 567.968,35.602 568.414,36.049 C 568.861,36.496 575.339,36.608 576.121,42.638 C 576.903,48.67 577.461,69.667 577.461,69.667 L 575.339,75.921 L 563.388,78.602 L 553.784,77.262 L 551.214,70.56 z"
         id="path2011_1_"
         style="fill:#ffffff;stroke:#000000;stroke-width:3;stroke-linecap:round;stroke-linejoin:round" />
      <path
         d="M 563.834,89.101 C 556.798,89.101 549.427,84.075 549.427,76.48 C 549.427,68.885 550.656,70.226 551.214,70.561 C 551.214,70.561 551.438,74.358 563.164,74.358 C 574.892,74.358 577.46,69.668 577.46,69.668 C 577.46,69.668 578.912,68.662 579.024,71.343 C 579.136,74.023 581.034,89.101 563.834,89.101 z"
         id="path2023_1_"
         style="fill:#ffffff;stroke:#000000;stroke-width:3;stroke-linecap:round;stroke-linejoin:round" />
      <path
         id="path2938"
         d="M 301.499,402 C 214.157,402 143.099,473.058 143.099,560.4 C 143.099,560.4 143.099,650.445 143.099,716.125 C 189.071,744.874 243.347,761.5 301.499,761.5 C 359.651,761.5 413.926,744.874 459.898,716.126 C 459.898,650.446 459.898,560.4 459.898,560.4 C 459.899,473.058 388.841,402 301.499,402 z"
         style="fill:#2b5df2" />
      <path
         id="path2940"
         d="M 389.499,428.759 L 389.499,748.322 C 401.572,744.609 413.326,740.161 424.698,735.012 L 424.698,460.961 C 414.659,448.547 402.791,437.673 389.499,428.759 z M 248.699,756.847 C 260.217,758.9 271.966,760.277 283.899,760.97 L 283.899,402.983 C 271.697,404.338 259.911,407.085 248.699,411.06 L 248.699,756.847 L 248.699,756.847 z M 319.099,760.97 C 331.032,760.277 342.781,758.9 354.299,756.847 L 354.299,411.06 C 343.087,407.084 331.301,404.338 319.099,402.983 L 319.099,760.97 z M 178.299,460.962 L 178.299,735.013 C 189.672,740.161 201.425,744.61 213.499,748.323 L 213.499,428.759 C 200.207,437.673 188.338,448.548 178.299,460.962 z"
         style="fill:#fcef3c" />
      <path
         id="path2942"
         d="M 424.698,735.013 L 424.698,460.961 M 389.499,428.759 L 389.499,748.322 M 283.899,760.97 L 283.899,402.983 M 248.699,411.06 L 248.699,756.847 M 319.099,402.983 L 319.099,760.97 M 354.299,756.847 L 354.299,411.06 M 213.499,748.323 L 213.499,428.759 M 178.299,460.962 L 178.299,735.013"
         style="fill:none;stroke:#000000;stroke-width:3" />
      <path
         id="path2946"
         d="M 301.499,367 C 194.687,367 108.099,453.588 108.099,560.4 L 108.099,690.553 C 119.115,699.888 130.809,708.439 143.099,716.124 C 143.099,650.444 143.099,560.399 143.099,560.399 C 143.099,473.057 214.157,401.999 301.499,401.999 C 388.841,401.999 459.898,473.057 459.898,560.399 C 459.898,560.399 459.898,650.445 459.898,716.125 C 472.188,708.439 483.881,699.889 494.898,690.553 L 494.898,560.4 C 494.899,453.588 408.311,367 301.499,367 z"
         style="fill:#ffffff" />
      <path
         id="path2948"
         d="M 494.899,690.553 L 494.899,560.4 C 494.899,453.588 408.311,367 301.5,367 C 194.689,367 108.1,453.588 108.1,560.4 L 108.1,690.553"
         style="fill:none;stroke:#000000;stroke-width:3" />
      <path
         id="path2950"
         d="M 143.099,716.124 C 143.099,650.444 143.099,560.399 143.099,560.399 C 143.099,473.057 214.157,401.999 301.499,401.999 C 388.841,401.999 459.898,473.057 459.898,560.399 C 459.898,560.399 459.898,650.445 459.898,716.125"
         style="fill:none;stroke:#000000;stroke-width:3" />
      <line
         id="line2954"
         y2="367"
         x2="301.49899"
         y1="402"
         x1="301.49899"
         style="fill:#fcef3c;stroke:#000000;stroke-width:3;stroke-linecap:round;stroke-linejoin:round" />
      <line
         id="line2956"
         y2="376.465"
         x2="241.735"
         y1="409.75198"
         x1="252.55099"
         style="fill:#fcef3c;stroke:#000000;stroke-width:3;stroke-linecap:round;stroke-linejoin:round" />
      <line
         id="line2958"
         y2="403.935"
         x2="187.82201"
         y1="432.25098"
         x1="208.39401"
         style="fill:#fcef3c;stroke:#000000;stroke-width:3;stroke-linecap:round;stroke-linejoin:round" />
      <line
         id="line2960"
         y2="446.72098"
         x2="145.03601"
         y1="467.29398"
         x1="173.35101"
         style="fill:#fcef3c;stroke:#000000;stroke-width:3;stroke-linecap:round;stroke-linejoin:round" />
      <line
         id="line2962"
         y2="500.63397"
         x2="117.56499"
         y1="511.45099"
         x1="150.85201"
         style="fill:#fcef3c;stroke:#000000;stroke-width:3;stroke-linecap:round;stroke-linejoin:round" />
      <line
         id="line2964"
         y2="560.39801"
         x2="108.099"
         y1="560.39899"
         x1="143.099"
         style="fill:#fcef3c;stroke:#000000;stroke-width:3;stroke-linecap:round;stroke-linejoin:round" />
      <line
         id="line2966"
         y2="376.465"
         x2="361.263"
         y1="409.75198"
         x1="350.44699"
         style="fill:#fcef3c;stroke:#000000;stroke-width:3;stroke-linecap:round;stroke-linejoin:round" />
      <line
         id="line2968"
         y2="403.935"
         x2="415.17599"
         y1="432.25098"
         x1="394.604"
         style="fill:#fcef3c;stroke:#000000;stroke-width:3;stroke-linecap:round;stroke-linejoin:round" />
      <line
         id="line2970"
         y2="446.72098"
         x2="457.96201"
         y1="467.29398"
         x1="429.647"
         style="fill:#fcef3c;stroke:#000000;stroke-width:3;stroke-linecap:round;stroke-linejoin:round" />
      <line
         id="line2972"
         y2="500.63397"
         x2="485.43301"
         y1="511.45099"
         x1="452.146"
         style="fill:#fcef3c;stroke:#000000;stroke-width:3;stroke-linecap:round;stroke-linejoin:round" />
      <line
         id="line2974"
         y2="560.39801"
         x2="494.89999"
         y1="560.39899"
         x1="459.89902"
         style="fill:#fcef3c;stroke:#000000;stroke-width:3;stroke-linecap:round;stroke-linejoin:round" />
      <line
         id="line2976"
         y2="609.95703"
         x2="143.099"
         y1="609.95703"
         x1="108.099"
         style="fill:none;stroke:#000000;stroke-width:3;stroke-linecap:round;stroke-linejoin:round" />
      <line
         id="line2978"
         y2="659.51501"
         x2="143.099"
         y1="659.51501"
         x1="108.099"
         style="fill:none;stroke:#000000;stroke-width:3;stroke-linecap:round;stroke-linejoin:round" />
      <line
         id="line2980"
         y2="609.95703"
         x2="459.89902"
         y1="609.95703"
         x1="494.89902"
         style="fill:none;stroke:#000000;stroke-width:3;stroke-linecap:round;stroke-linejoin:round" />
      <line
         id="line2982"
         y2="659.51501"
         x2="459.89902"
         y1="659.51501"
         x1="494.89902"
         style="fill:none;stroke:#000000;stroke-width:3;stroke-linecap:round;stroke-linejoin:round" />
      <path
         id="path2988"
         d="M 207.854,487.788 C 207.854,487.788 208.289,502.807 222.22,511.816 C 222.22,511.816 199.147,506.561 184.345,519.326 C 184.345,519.326 185.651,535.468 212.208,538.097 L 225.703,579.392 C 225.703,579.392 227.879,589.905 220.914,613.181 C 220.914,613.181 232.668,621.064 253.129,615.433 L 280.121,607.173 C 280.121,607.173 289.698,615.059 299.275,618.436 C 299.275,618.436 309.321,613.555 315.383,604.545 C 315.383,604.545 338.023,624.067 380.685,620.688 C 380.685,620.688 382.091,610.839 372.848,599.291 L 375.025,580.52 C 375.025,580.52 385.473,592.533 405.935,588.027 C 405.935,588.027 407.676,572.259 387.651,559.87 L 392.539,547.856 C 392.539,547.856 408.33,554.051 424.654,539.973 C 424.654,539.973 412.899,522.327 389.829,522.327 L 361.53,506.935 L 348.47,495.671 L 341.07,478.025 C 341.07,478.025 330.116,471.102 306.242,478.025 C 306.242,478.025 279.25,470.518 259.66,476.148 L 239.657,488.558 C 239.656,488.561 220.913,482.909 207.854,487.788 z"
         style="fill:#5ab532;stroke:#000000;stroke-width:3;stroke-linecap:round;stroke-linejoin:round" />
      <path
         id="path2990"
         d="M 367.189,496.049 C 367.189,496.049 381.366,490.212 398.098,499.427 C 413.77,508.062 408.548,512.793 419.866,518.949 C 419.866,518.949 404.427,537.04 378.945,538.471 L 367.189,496.049 z"
         style="fill:#5ab532;stroke:#000000;stroke-width:3;stroke-linecap:round;stroke-linejoin:round" />
      <path
         id="path2992"
         d="M 334.974,482.159 C 334.974,482.159 352.388,466.766 388.957,479.531 C 388.957,479.531 367.624,494.924 371.106,511.065 L 348.469,498.676 L 334.974,482.159 z"
         style="fill:#5ab532;stroke:#000000;stroke-width:3;stroke-linecap:round;stroke-linejoin:round" />
      <path
         id="path2996"
         d="M 268.098,548.297 C 270.367,547.68 272.643,547.915 274.784,549.484 C 282.575,555.19 281.683,569.069 265.474,573.203 C 249.264,577.338 239.157,575.6 239.157,575.6 C 239.157,575.6 227.028,557.109 240.274,543.661 C 249.575,534.218 260.729,537.341 264.684,540.606 C 268.646,543.878 268.098,548.297 268.098,548.297 z"
         style="fill:#5ab532;stroke:#000000;stroke-width:3;stroke-linecap:round;stroke-linejoin:round" />
      <path
         id="path2998"
         d="M 252.872,561.999 C 256.184,557.463 262.118,549.924 268.099,548.297"
         style="fill:none;stroke:#000000;stroke-width:3;stroke-linecap:round;stroke-linejoin:round" />
      <path
         id="path3002"
         d="M 330.451,548.297 C 328.182,547.68 325.907,547.915 323.765,549.484 C 315.974,555.19 316.867,569.069 333.076,573.203 C 349.286,577.338 359.391,575.6 359.391,575.6 C 359.391,575.6 371.523,557.109 358.275,543.661 C 348.972,534.218 337.821,537.341 333.864,540.606 C 329.905,543.878 330.451,548.297 330.451,548.297 z"
         style="fill:#5ab532;stroke:#000000;stroke-width:3;stroke-linecap:round;stroke-linejoin:round" />
      <path
         id="path3004"
         d="M 345.678,561.999 C 342.366,557.463 336.434,549.924 330.451,548.297"
         style="fill:none;stroke:#000000;stroke-width:3;stroke-linecap:round;stroke-linejoin:round" />
      <path
         id="path3008"
         d="M 242.866,517.84 C 245.124,518.43 246.816,519.705 247.504,521.983 C 250.006,530.276 239.961,540.964 224.004,536.534 C 208.047,532.099 200.998,525.88 200.998,525.88 C 200.998,525.88 203.555,505.275 223.356,500.832 C 237.261,497.712 244.233,505.543 245.255,510.047 C 246.278,514.563 242.866,517.84 242.866,517.84 z"
         style="fill:#5ab532;stroke:#000000;stroke-width:3;stroke-linecap:round;stroke-linejoin:round" />
      <path
         id="path3010"
         d="M 221.28,521.539 C 227.022,519.487 236.91,516.285 242.865,517.84"
         style="fill:none;stroke:#000000;stroke-width:3;stroke-linecap:round;stroke-linejoin:round" />
      <path
         id="path3014"
         d="M 283.66,512.585 C 285.93,512.029 288.152,512.311 290.16,513.906 C 297.468,519.714 295.727,533.393 279.525,537.107 C 263.324,540.826 253.493,538.882 253.493,538.882 C 253.493,538.882 242.714,520.361 256.58,507.385 C 266.316,498.275 277.093,501.607 280.779,504.917 C 284.473,508.238 283.66,512.585 283.66,512.585 z"
         style="fill:#5ab532;stroke:#000000;stroke-width:3;stroke-linecap:round;stroke-linejoin:round" />
      <path
         id="path3016"
         d="M 267.829,525.771 C 271.371,521.365 277.675,514.059 283.66,512.585"
         style="fill:none;stroke:#000000;stroke-width:3;stroke-linecap:round;stroke-linejoin:round" />
      <path
         id="path3020"
         d="M 357.967,672.613 C 343.843,665.758 336.156,669.912 328.055,663.888 C 319.954,657.865 319.122,642.492 319.122,625.457 C 319.122,619.882 318.928,615.26 318.602,611.137 L 318.602,611.137 C 318.108,605.983 323.058,596.213 332.347,590.854 C 343.444,584.452 359.257,582.875 359.257,582.875 L 359.257,578.306 C 327.683,575.399 316.236,593.058 316.236,593.058 C 315.605,589.127 314.939,584.943 314.316,579.953 C 313.337,573.338 316.778,562.094 328.456,555.928 C 343.859,547.794 365.695,547.355 365.695,547.355 L 365.695,542.162 C 323.942,539.044 312.224,556.165 312.224,556.165 C 310.444,529.061 309.141,504.614 309.141,504.614 L 304.156,504.614 C 304.156,504.614 303.89,508.151 303.54,513.896 L 303.54,513.896 C 303.54,513.896 299.701,513.446 293.934,507.677 L 290.533,510.422 C 290.533,510.422 293.889,518.452 303.1,521.582 L 303.1,521.582 C 302.329,535.953 301.496,545.771 301.968,563.561 C 301.968,563.561 285.43,542.161 238.255,542.161 L 236.385,546.835 C 252.069,546.835 276.924,555.036 286.967,568.543 C 292.99,576.644 290.913,593.47 290.913,593.47 C 281.618,584.174 268.998,577.06 246.251,581.629 L 246.667,587.029 C 246.667,587.029 269.355,585.756 277.514,600.272 C 283.513,610.944 282.395,615.903 282.395,625.459 C 282.395,642.493 281.565,657.866 273.463,663.89 C 265.361,669.914 257.675,665.759 243.55,672.615 C 229.425,679.47 220.492,685.286 206.575,685.286 C 206.575,685.286 210.919,689.725 219.661,688.61 C 229.424,687.363 239.482,682.7 239.482,682.7 C 235.111,688.339 230.237,695.1 220.284,701.074 C 220.284,701.074 232.748,701.074 245.212,690.479 C 257.676,679.885 260.848,676.769 284.529,676.769 C 284.114,679.662 283.309,682.04 280.318,683.624 C 278.112,684.791 276.86,686.121 275.394,687.5 C 271.273,690.916 259.013,683.117 251.106,692.737 C 255.079,691.413 258.74,690.652 263.806,693.564 C 253.024,696.859 232.669,704.701 233.476,718.521 C 238.357,711.667 257.771,703.846 270.754,703.846 C 270.029,707.174 269.083,711.062 265.518,714.626 C 265.518,714.626 274.818,713.455 280.319,704.654 C 284.214,698.424 293.274,696.304 293.274,696.304 C 294.132,700.26 294.559,704.076 289.356,707.615 C 281.566,712.912 277.481,722.883 278.823,728.024 C 282.034,723.039 287.175,717.897 294.965,714.469 C 301.46,711.612 306.005,706.046 304.9,696.419 C 316.324,697.966 316.399,704.057 324.41,706.835 C 336.173,710.915 345.365,716.339 351.363,720.856 C 350.411,717.051 347.433,711.973 343.574,708.081 C 346.145,705.51 355.258,706.057 358.997,707.146 C 357.05,703.33 350.584,700.603 344.976,700.603 C 339.367,700.603 330.799,698.889 327.527,690.32 C 324.256,681.752 317.322,679.842 316.989,676.766 C 340.67,676.766 343.842,679.882 356.306,690.476 C 368.769,701.071 381.234,701.071 381.234,701.071 C 371.281,695.097 366.407,688.336 362.035,682.697 C 362.035,682.697 372.094,687.36 381.856,688.607 C 390.599,689.722 394.943,685.283 394.943,685.283 C 381.025,685.284 372.093,679.468 357.967,672.613 z"
         style="fill:#b7502c;stroke:#000000;stroke-width:3;stroke-linecap:round;stroke-linejoin:round" />
      <path
         style="fill:none;stroke:#000000;stroke-width:3;stroke-linecap:round;stroke-linejoin:round"
         d="M 244.176,677.182 C 242.538,678.821 241.044,680.687 239.485,682.698"
         id="path3024" />
      <path
         style="fill:none;stroke:#000000;stroke-width:3;stroke-linecap:round;stroke-linejoin:round"
         d="M 357.345,677.182 C 358.982,678.821 360.477,680.687 362.034,682.698"
         id="path3026" />
      <path
         style="fill:none;stroke:#000000;stroke-width:3;stroke-linecap:round;stroke-linejoin:round"
         d="M 275.396,687.498 C 273.341,689.433 270.862,691.463 264.741,693.281 C 264.439,693.371 264.128,693.465 263.808,693.562"
         id="path3028" />
      <path
         style="fill:none;stroke:#000000;stroke-width:3;stroke-linecap:round;stroke-linejoin:round"
         d="M 274.4,696.553 C 271.949,697.931 271.456,700.627 270.755,703.845"
         id="path3030" />
      <path
         style="fill:none;stroke:#000000;stroke-width:3;stroke-linecap:round;stroke-linejoin:round"
         d="M 285.617,669.289 C 284.939,672.001 284.851,674.537 284.531,676.767"
         id="path3032" />
      <path
         style="fill:none;stroke:#000000;stroke-width:3;stroke-linecap:round;stroke-linejoin:round"
         d="M 292.317,690.321 C 292.317,692.34 292.849,694.34 293.275,696.304"
         id="path3034" />
      <path
         style="fill:none;stroke:#000000;stroke-width:3;stroke-linecap:round;stroke-linejoin:round"
         d="M 337.613,703.604 C 339.717,704.656 341.745,706.236 343.574,708.082"
         id="path3036" />
      <path
         style="fill:none;stroke:#000000;stroke-width:3;stroke-linecap:round;stroke-linejoin:round"
         d="M 304.9,696.419 C 304.678,694.499 304.234,692.418 303.533,690.165"
         id="path3038" />
      <path
         style="fill:none;stroke:#000000;stroke-width:3;stroke-linecap:round;stroke-linejoin:round"
         d="M 316.988,676.767 C 316.746,674.528 316.58,672.001 315.902,669.289"
         id="path3040" />
      <path
         style="fill:none;stroke:#000000;stroke-width:3;stroke-linecap:round;stroke-linejoin:round"
         d="M 314.317,579.952 C 313.857,576.276 313.421,572.165 313.037,567.398 C 312.758,563.93 312.487,560.139 312.225,556.163"
         id="path3042" />
      <path
         style="fill:none;stroke:#000000;stroke-width:3;stroke-linecap:round;stroke-linejoin:round"
         d="M 301.969,563.56 C 302.051,566.652 302.172,569.645 302.34,572.488"
         id="path3044" />
      <path
         id="path3048"
         d="M 314.892,512.585 C 312.621,512.029 310.398,512.311 308.391,513.906 C 301.083,519.714 302.823,533.393 319.025,537.107 C 335.225,540.826 345.06,538.882 345.06,538.882 C 345.06,538.882 355.836,520.361 341.97,507.385 C 332.237,498.275 321.458,501.607 317.772,504.917 C 314.079,508.238 314.892,512.585 314.892,512.585 z"
         style="fill:#5ab532;stroke:#000000;stroke-width:3;stroke-linecap:round;stroke-linejoin:round" />
      <path
         id="path3050"
         d="M 330.722,525.771 C 327.181,521.365 320.874,514.059 314.892,512.585"
         style="fill:none;stroke:#000000;stroke-width:3;stroke-linecap:round;stroke-linejoin:round" />
      <path
         id="path3054"
         d="M 226.159,548.438 C 227.617,546.838 228.159,544.958 227.208,542.749 C 223.749,534.717 208.414,530.918 198.281,542.437 C 188.149,553.954 186.502,562.534 186.502,562.534 C 186.502,562.534 202.287,578.159 221.468,572.018 C 234.936,567.705 235.449,557.84 233.294,553.647 C 231.135,549.439 226.159,548.438 226.159,548.438 z"
         style="fill:#5ab532;stroke:#000000;stroke-width:3;stroke-linecap:round;stroke-linejoin:round" />
      <path
         id="path3056"
         d="M 206.01,556.068 C 212.08,554.914 222.312,552.656 226.159,548.438"
         style="fill:none;stroke:#000000;stroke-width:3;stroke-linecap:round;stroke-linejoin:round" />
      <path
         id="path3060"
         d="M 263.324,492.17 C 264.959,493.638 265.812,495.363 265.372,497.405 C 263.765,504.814 250.534,508.378 239.099,497.813 C 227.663,487.251 224.518,479.36 224.518,479.36 C 224.518,479.36 235.888,464.905 254.527,470.476 C 267.616,474.391 269.975,483.47 268.819,487.344 C 267.659,491.227 263.324,492.17 263.324,492.17 z"
         style="fill:#5ab532;stroke:#000000;stroke-width:3;stroke-linecap:round;stroke-linejoin:round" />
      <path
         id="path3062"
         d="M 243.516,485.231 C 249.262,486.267 259.011,488.303 263.324,492.17"
         style="fill:none;stroke:#000000;stroke-width:3;stroke-linecap:round;stroke-linejoin:round" />
      <path
         id="path3066"
         d="M 240.366,576.401 C 240.47,574.368 239.638,572.57 237.371,571.252 C 229.128,566.468 214.103,571.092 213.66,585.544 C 213.216,599.996 217.683,607.795 217.683,607.795 C 217.683,607.795 241.072,612.553 252.5,597.915 C 260.525,587.638 254.27,579.365 249.683,577.042 C 245.083,574.71 240.366,576.401 240.366,576.401 z"
         style="fill:#5ab532;stroke:#000000;stroke-width:3;stroke-linecap:round;stroke-linejoin:round" />
      <path
         id="path3068"
         d="M 229.158,592.734 C 233.307,588.742 240.093,581.761 240.366,576.401"
         style="fill:none;stroke:#000000;stroke-width:3;stroke-linecap:round;stroke-linejoin:round" />
      <path
         id="path3072"
         d="M 277.106,601.335 C 279.189,600.381 281.43,600.251 283.784,601.449 C 292.344,605.801 293.981,619.486 279.049,626.059 C 264.116,632.633 254.032,632.517 254.032,632.517 C 254.032,632.517 238.975,616.369 249.365,601.166 C 256.658,590.493 268.009,591.793 272.419,594.361 C 276.842,596.938 277.106,601.335 277.106,601.335 z"
         style="fill:#5ab532;stroke:#000000;stroke-width:3;stroke-linecap:round;stroke-linejoin:round" />
      <path
         id="path3074"
         d="M 264.847,617.098 C 267.234,612.149 271.615,603.863 277.106,601.335"
         style="fill:none;stroke:#000000;stroke-width:3;stroke-linecap:round;stroke-linejoin:round" />
      <path
         id="path3078"
         d="M 355.683,517.84 C 353.427,518.43 351.734,519.705 351.046,521.983 C 348.547,530.276 358.589,540.964 374.547,536.534 C 390.505,532.099 397.552,525.88 397.552,525.88 C 397.552,525.88 394.997,505.275 375.195,500.832 C 361.292,497.712 354.318,505.543 353.298,510.047 C 352.275,514.563 355.683,517.84 355.683,517.84 z"
         style="fill:#5ab532;stroke:#000000;stroke-width:3;stroke-linecap:round;stroke-linejoin:round" />
      <path
         id="path3080"
         d="M 377.27,521.539 C 371.527,519.487 361.64,516.285 355.683,517.84"
         style="fill:none;stroke:#000000;stroke-width:3;stroke-linecap:round;stroke-linejoin:round" />
      <path
         id="path3084"
         d="M 372.39,548.438 C 370.933,546.838 370.392,544.958 371.343,542.749 C 374.801,534.717 390.137,530.918 400.27,542.437 C 410.403,553.954 412.048,562.534 412.048,562.534 C 412.048,562.534 396.262,578.159 377.08,572.018 C 363.611,567.705 363.101,557.84 365.255,553.647 C 367.415,549.439 372.39,548.438 372.39,548.438 z"
         style="fill:#5ab532;stroke:#000000;stroke-width:3;stroke-linecap:round;stroke-linejoin:round" />
      <path
         id="path3086"
         d="M 392.538,556.068 C 386.47,554.914 376.236,552.656 372.39,548.438"
         style="fill:none;stroke:#000000;stroke-width:3;stroke-linecap:round;stroke-linejoin:round" />
      <path
         id="path3090"
         d="M 335.225,492.17 C 333.59,493.638 332.738,495.363 333.179,497.405 C 334.784,504.814 348.016,508.378 359.451,497.813 C 370.888,487.251 374.032,479.36 374.032,479.36 C 374.032,479.36 362.661,464.905 344.023,470.476 C 330.934,474.391 328.574,483.47 329.73,487.344 C 330.891,491.227 335.225,492.17 335.225,492.17 z"
         style="fill:#5ab532;stroke:#000000;stroke-width:3;stroke-linecap:round;stroke-linejoin:round" />
      <path
         id="path3092"
         d="M 355.034,485.231 C 349.286,486.267 339.54,488.303 335.224,492.17"
         style="fill:none;stroke:#000000;stroke-width:3;stroke-linecap:round;stroke-linejoin:round" />
      <path
         id="path3096"
         d="M 358.185,576.401 C 358.082,574.368 358.913,572.57 361.178,571.252 C 369.421,566.468 384.449,571.092 384.889,585.544 C 385.337,599.996 380.867,607.795 380.867,607.795 C 380.867,607.795 357.478,612.553 346.049,597.915 C 338.028,587.638 344.278,579.365 348.866,577.042 C 353.468,574.71 358.185,576.401 358.185,576.401 z"
         style="fill:#5ab532;stroke:#000000;stroke-width:3;stroke-linecap:round;stroke-linejoin:round" />
      <path
         id="path3098"
         d="M 369.392,592.734 C 365.245,588.742 358.456,581.761 358.185,576.401"
         style="fill:none;stroke:#000000;stroke-width:3;stroke-linecap:round;stroke-linejoin:round" />
      <path
         id="path3102"
         d="M 321.444,601.335 C 319.362,600.381 317.118,600.251 314.764,601.449 C 306.203,605.801 304.567,619.486 319.501,626.059 C 334.433,632.633 344.515,632.517 344.515,632.517 C 344.515,632.517 359.576,616.369 349.182,601.166 C 341.89,590.493 330.538,591.793 326.131,594.361 C 321.71,596.938 321.444,601.335 321.444,601.335 z"
         style="fill:#5ab532;stroke:#000000;stroke-width:3;stroke-linecap:round;stroke-linejoin:round" />
      <path
         id="path3104"
         d="M 333.704,617.098 C 331.315,612.149 326.934,603.863 321.444,601.335"
         style="fill:none;stroke:#000000;stroke-width:3;stroke-linecap:round;stroke-linejoin:round" />
      <path
         id="path3108"
         d="M 297.879,526.66 C 296.746,524.924 295.038,523.83 292.527,523.83 C 283.386,523.83 274.676,534.906 282.949,547.107 C 291.22,559.308 299.274,563.626 299.274,563.626 C 299.274,563.626 319.954,556.305 319.954,538.662 C 319.954,526.27 310.255,522.422 305.371,522.704 C 300.473,522.985 297.879,526.66 297.879,526.66 z"
         style="fill:#5ab532;stroke:#000000;stroke-width:3;stroke-linecap:round;stroke-linejoin:round" />
      <path
         id="path3110"
         d="M 299.059,545.606 C 299.846,540.296 300.864,531.238 297.88,526.66"
         style="fill:none;stroke:#000000;stroke-width:3;stroke-linecap:round;stroke-linejoin:round" />
      <path
         id="path3114"
         d="M 301.934,567.956 C 303.198,566.218 305.11,565.127 307.92,565.127 C 318.141,565.127 327.881,576.201 318.63,588.403 C 309.378,600.602 300.37,604.923 300.37,604.923 C 300.37,604.923 277.245,597.602 277.245,579.956 C 277.245,567.567 288.089,563.72 293.556,564.002 C 299.032,564.282 301.934,567.956 301.934,567.956 z"
         style="fill:#5ab532;stroke:#000000;stroke-width:3;stroke-linecap:round;stroke-linejoin:round" />
      <path
         id="path3116"
         d="M 300.616,586.902 C 299.731,581.592 298.596,572.536 301.933,567.957"
         style="fill:none;stroke:#000000;stroke-width:3;stroke-linecap:round;stroke-linejoin:round" />
      <path
         id="path3120"
         d="M 297.879,501.934 C 296.746,503.67 295.038,504.763 292.527,504.763 C 283.386,504.763 274.676,493.688 282.949,481.488 C 291.22,469.285 299.274,464.968 299.274,464.968 C 299.274,464.968 319.954,472.288 319.954,489.933 C 319.954,502.322 310.255,506.169 305.371,505.889 C 300.473,505.607 297.879,501.934 297.879,501.934 z"
         style="fill:#5ab532;stroke:#000000;stroke-width:3;stroke-linecap:round;stroke-linejoin:round" />
      <path
         id="path3122"
         d="M 299.059,482.987 C 299.846,488.297 300.864,497.356 297.88,501.934"
         style="fill:none;stroke:#000000;stroke-width:3;stroke-linecap:round;stroke-linejoin:round" />
      <path
         d="M 227.587,217.221 C 212.349,210.49 195.086,205.604 182.257,196.117 C 176.81,204.432 169.221,214.184 163.683,220.04 L 164.672,226.761 L 158.159,227.017 C 159.955,228.51 163,228.331 163.595,231.269 C 165.497,240.655 161.095,244.269 156.296,248.489 C 153.102,240.151 152.425,231.731 151.94,223.039 C 160.439,213.692 167.127,204.554 172.042,195 C 176.673,185.999 178.66,183.304 187.161,187.542 C 200.39,194.14 212.546,199.559 224.999,205.289"
         sodipodi:nodetypes="cccccsccssc"
         id="path3189"
         style="fill:#fcef3c;stroke:#000000;stroke-width:3;stroke-linecap:round;stroke-linejoin:round" />
      <path
         d="M 268.933,74.601 C 268.728,73.58 268.689,65.589 268.689,65.589 C 258.155,61.262 252.184,47.966 255.554,40.412 C 257.218,36.923 260.678,37.41 260.617,41.093 C 260.451,51.21 270.32,61.174 277.842,58.565 C 290.542,54.161 309.978,56.017 311.795,55.079 C 316.348,52.726 305.289,41.457 303.471,35.398 C 302.203,31.171 306.769,28.779 309.509,32.902 C 313.243,38.519 319.955,54.567 324.739,54.897 C 328.76,55.175 344.009,54.842 346.864,52.467 C 358.43,42.85 372.633,34.664 382.695,34.022 C 387.382,33.723 388.629,37.234 384.265,38.754 C 377.043,41.27 366.339,40.68 355.987,52.956 C 374.271,52.968 388.447,61.244 393.01,57.368 C 400.525,50.987 409.771,41.233 415.721,36.623 C 418.693,34.321 422.23,35.666 420.525,38.872 C 418.589,42.506 412.654,49.137 407.837,53.192 C 397.416,61.965 399.695,64.88 410.694,68.541 C 419.07,71.33 423.9,74.089 430.736,78.183 C 434.009,80.142 431.124,84.073 426.588,82.392 C 408.893,74.472 397.595,70.009 382.963,63.994 C 378.514,62.165 357.668,57.567 337.788,60.579 C 305.536,65.443 291.649,56.129 275.357,66.379 L 275.128,74.876 L 268.933,74.601 z"
         sodipodi:nodetypes="cccssssssssscsssssscssccc"
         id="path3193"
         style="fill:#fcef3c;stroke:#000000;stroke-width:3;stroke-linecap:round;stroke-linejoin:round" />
      <path
         d="M 449.188,63.079 C 442.352,58.986 436.07,55.14 428.131,51.269 C 419.735,47.176 417.312,42.96 421.664,38.376 C 426,33.812 431.694,28.413 433.631,24.778 C 435.336,21.572 431.798,20.228 428.826,22.53 C 422.877,27.14 412.247,37.349 405.104,44.142 C 402.852,46.285 377.118,43.065 360.857,44.498 C 371.211,32.223 387.692,29.056 394.912,26.541 C 399.275,25.02 398.031,21.509 393.343,21.808 C 383.28,22.451 363.011,30.715 352.891,41.842 C 349.024,46.094 342.782,45.151 324.697,46.439 C 329.308,38.971 337.91,32.696 343.128,28.778 C 346.131,25.723 341.869,24.414 338.968,25.929 C 332.558,29.275 324.723,37.808 318.978,42.864 C 318.068,43.665 317.124,44.355 316.124,44.954 C 313.446,40.237 310.917,35.042 309.086,32.287 C 306.27,28.051 301.577,30.508 302.88,34.852 C 303.89,38.216 307.667,43.141 310.193,47.341 C 304.827,48.693 297.685,48.885 286.902,49.095 C 278.867,48.772 271.102,38.995 271.267,28.877 C 271.327,25.194 267.869,24.707 266.204,28.197 C 262.833,35.751 268.949,47.025 277.606,56.551 C 277.606,56.551 277.356,68.877 277.56,69.899 L 285.2,70.462 L 285.574,56.041 C 378.585,51.863 361.648,50.115 405.601,53.078 C 421.388,54.142 429.077,58.789 446.773,66.709 C 451.309,68.392 452.46,65.039 449.188,63.079 z"
         id="path2493"
         style="fill:#fcef3c;stroke:#000000;stroke-width:3;stroke-linecap:round;stroke-linejoin:round" />
      <path
         d="M 213.073,96.515 C 213.09,93.4 217.229,97.851 224.49,92.471 C 228.61,89.419 236.072,89.182 246.272,92.581 C 230.272,90.666 225.357,98.609 219.631,100.414 C 216.706,101.336 213.05,100.414 213.073,96.515 z"
         sodipodi:nodetypes="cscss"
         id="path3196"
         style="fill:#fcef3c;stroke:#000000;stroke-width:3;stroke-linecap:round;stroke-linejoin:round" />
      <path
         d="M 395.598,346.371 C 395.598,346.371 394.921,349.546 396.881,351.507 C 398.839,353.467 397.662,356.663 397.42,357.79 C 396.104,363.99 394.55,366.507 391.542,366.507 C 388.367,366.507 387.639,365.306 387.639,365.306 C 387.639,365.306 383.434,366.035 383.029,363.669 C 382.624,361.305 384.719,356.981 387.016,354.075 C 389.313,351.17 387.927,346.252 387.927,346.252 C 379.281,289.061 362.509,305.669 338.859,264.315 C 333.505,254.956 330.166,252.701 317.296,244.956 L 346.938,231.757 L 379.794,253.281 L 380.14,253.624 C 382.95,261.414 383.768,269.772 383.896,278.327 C 383.869,311.251 394.665,334.306 399.994,342.425 C 401.313,345.612 398.585,347.776 395.598,346.371 z"
         sodipodi:nodetypes="czscsssssccccccccssscccscccccsccccccsssssssssssc"
         id="path2206_5_"
         style="fill:#fcef3c;stroke:#000000;stroke-width:3;stroke-linecap:round;stroke-linejoin:round" />
      <path
         d="M 430.636,357.683 C 429.228,364.309 427.567,367 424.352,367 C 420.957,367 420.179,365.716 420.179,365.716 C 420.179,365.716 415.685,366.494 415.251,363.967 C 414.816,361.439 417.057,356.815 419.512,353.709 C 421.967,350.605 420.219,344.613 420.219,344.613 C 401.755,272.997 375.61,307.374 355.981,262.718 C 338.315,222.528 318.467,263.325 289.57,248.099 C 291.098,250.247 295.456,250.781 298.467,253.301 C 287.911,251.422 281.218,252.207 269.479,244.795 L 274.88,251.075 C 270.172,247.524 264.625,246.058 260.456,241.699 C 260.611,243.702 263.237,245.308 264.749,247.855 C 254.365,241.151 248.686,237.64 241.645,232.049 C 226.172,219.761 218.217,206.931 218.058,193.53 C 217.968,185.853 218.382,181.915 223.957,170.703 C 224.657,169.296 226.276,166.355 226.92,165.025 C 227.471,163.884 223.12,168.13 223.509,166.945 C 224.069,165.243 229.857,155.723 230.965,154.472 C 231.691,153.654 227.6,156.488 227.851,155.439 C 228.227,153.878 234.652,145.016 235.957,143.733 C 237.023,142.684 232.452,145.307 233.103,143.994 C 234.219,141.742 239.738,136.003 241.554,134.449 C 242.646,133.514 238.201,134.631 239.33,133.762 C 253.668,122.731 256.452,115.225 260.287,108.743 C 254.143,105.221 250.146,101.222 242.183,100.973 C 234.215,100.724 231.706,98.646 230.916,95.023 C 230.405,92.674 242.656,93.143 247.945,93.377 C 247.641,90.005 241.567,90.136 235.27,89.942 C 230.385,89.79 223.745,89.135 225.225,85.395 C 227.078,80.712 229.462,79.583 233.113,79.133 C 245.481,77.606 246.891,77.445 256.381,72.166 C 264.444,67.682 295.065,64.504 299.319,76.02 C 304.166,89.142 304.986,97.718 306.59,110.267 L 304.281,108.18 C 304.577,112.057 303.786,116.331 302.732,119.94 L 301.141,116.903 C 301.037,124.379 298.973,128.529 297.523,132.966 L 296.247,128.907 C 296.495,134.338 293.874,139.257 291.59,144.075 L 290.219,140.073 C 289.969,148.377 279.19,157.007 286.713,166.785 C 289.929,170.962 296.502,171.153 304.421,177.568 C 340.253,206.589 362.713,178.415 388.401,222.487 C 400.332,242.954 384.595,290.773 409.095,296.595 C 421.098,322.892 422.859,333.275 429.935,336.843 C 434.388,338.756 434.821,343.595 428.681,345.473 C 428.681,345.473 427.958,348.868 430.053,350.964 C 432.152,353.06 430.893,356.474 430.636,357.683 z"
         sodipodi:nodetypes="czscsssssccccccccssscccscccccsccccccsssssssssssc"
         id="path2206_41_"
         style="fill:#fcef3c;stroke:#000000;stroke-width:3;stroke-linecap:round;stroke-linejoin:round" />
      <path
         d="M 288.447,76.601 C 296.497,75.202 296.999,70.992 304.669,70.633 C 313.789,70.201 318.465,77.815 336.264,74.258 C 333.716,76.686 334.958,81.823 330.672,83.012 L 332.918,84.691 C 329.333,85.647 325.843,86.829 321.42,86.85 L 325.259,88.014 C 322.059,89.034 317.422,90.241 312.568,90.399 C 314.06,90.978 315.939,91.495 314.572,91.712 C 312.21,92.088 307.392,93.366 305.054,93.383 C 298.111,93.431 294.066,91.298 291.015,87.104"
         sodipodi:nodetypes="csccccccssc"
         id="path3179"
         style="fill:#fcef3c;stroke:#000000;stroke-width:3;stroke-linecap:round;stroke-linejoin:round" />
      <path
         d="M 300.466,84.182 C 282.417,79.328 309.27,73.736 316.808,80.402"
         sodipodi:nodetypes="cc"
         id="path3181"
         style="fill:#fcef3c;stroke:#000000;stroke-width:3;stroke-linecap:round;stroke-linejoin:round" />
      <path
         d="M 229.572,214.021 C 227.114,222.725 209.648,220.309 198.657,216.188 C 182.336,210.068 180.006,217.209 179.299,224.566 C 178.081,237.229 176.813,251.283 174.502,255.111 C 172.19,258.94 173.555,262.44 170.89,265.013 C 168.224,267.585 165.629,271.494 165.715,273.892 C 165.8,276.29 170.064,276.721 170.064,276.721 C 170.064,276.721 170.13,277.863 173.269,278.353 C 175.838,278.755 178.254,276.549 180.388,270.582 C 180.777,269.494 182.391,265.839 180.712,263.636 C 179.032,261.431 179.92,258.146 179.92,258.146 C 186.133,254.532 183.387,251.139 185.368,232.657 C 187.025,215.315 208.306,230.999 220.762,233.957 C 237.446,237.919 239.273,238.014 252.255,231.356"
         sodipodi:nodetypes="csscccccssc"
         id="path3187_4_"
         style="fill:#fcef3c;stroke:#000000;stroke-width:3;stroke-linecap:round;stroke-linejoin:round" />
      <path
         d="M 383.404,216.187 C 411.878,210.727 398.448,229.678 423.132,224.783 C 420.203,230.728 417.473,234.449 411.17,235.122 C 410.105,235.236 407.147,232.475 406.197,232.598 C 405.188,232.729 408.902,235.926 406.96,235.464 C 406.028,235.244 401.467,232.264 400.531,232.091 C 399.633,231.924 403.349,235.409 402.479,235.177 C 399.698,234.434 395.08,232.57 392.91,231.22 C 387.762,228.017 387.696,221.879 382.484,221.018"
         sodipodi:nodetypes="ccssssssc"
         id="path3197"
         style="fill:#fcef3c;stroke:#000000;stroke-width:3;stroke-linecap:round;stroke-linejoin:round" />
      <path
         d="M 277.6,63.694 L 284.835,63.694 C 285.815,63.694 286.61,64.489 286.61,65.47 L 286.61,67.955 C 286.61,68.935 285.816,69.73 284.835,69.73 L 277.6,69.73 C 276.62,69.73 275.824,68.935 275.824,67.955 L 275.824,65.47 C 275.825,64.488 276.62,63.694 277.6,63.694 z"
         id="rect3210"
         style="fill:#fcef3c;stroke:#000000;stroke-width:3;stroke-linecap:round;stroke-linejoin:round" />
      <path
         d="M 279.412,64.176 L 279.412,67.39"
         id="path3212"
         style="fill:none;stroke:#000000;stroke-width:3;stroke-linecap:round;stroke-linejoin:round" />
      <path
         d="M 282.915,64.284 L 282.915,67.643"
         id="path3214"
         style="fill:none;stroke:#000000;stroke-width:3;stroke-linecap:round;stroke-linejoin:round" />
      <path
         d="M 279.644,113.516 C 273.47,113.438 265.533,111.344 260.072,108.631"
         sodipodi:nodetypes="cc"
         id="path3229"
         style="fill:none;stroke:#000000;stroke-width:3;stroke-linecap:round;stroke-linejoin:round" />
      <path
         d="M 225.671,84.372 C 230.534,85.915 240.436,87.231 237.343,84.14"
         id="path2513"
         style="fill:none;stroke:#000000;stroke-width:3;stroke-linecap:round;stroke-linejoin:round" />
      <path
         d="M 423.703,356.309 C 423.703,356.309 421.696,360.37 420.179,365.715"
         id="path2515"
         style="fill:none;stroke:#000000;stroke-width:3;stroke-linecap:round;stroke-linejoin:round" />
      <path
         d="M 390.935,356.506 C 390.935,356.506 389.059,360.305 387.639,365.308"
         id="path2517"
         style="fill:none;stroke:#000000;stroke-width:3;stroke-linecap:round;stroke-linejoin:round" />
      <path
         d="M 174.505,268.442 C 174.505,268.442 172.137,271.957 170.062,276.722"
         id="path2519"
         style="fill:none;stroke:#000000;stroke-width:3;stroke-linecap:round;stroke-linejoin:round" />
      <path
         d="M 258.031,79.308 C 258.031,79.308 262.747,75.084 267.757,78.818"
         id="path2523"
         style="fill:none;stroke:#000000;stroke-width:3;stroke-linecap:round;stroke-linejoin:round" />
      <ellipse
         transform="translate(-3.8e-2,-4.5e-2)"
         ry="1.49"
         rx="0.77700001"
         cy="78.834"
         cx="262.81201"
         sodipodi:cy="78.834"
         sodipodi:cx="262.81201"
         sodipodi:rx="0.77700001"
         sodipodi:ry="1.49"
         id="ellipse2525"
         style="fill:none;stroke:#000000;stroke-width:3;stroke-linecap:round;stroke-linejoin:round">
		</ellipse>
    </g>
  </g>
  <g
     inkscape:groupmode="layer"
     id="layer3"
     inkscape:label="Reflet final"
     style="display:inline"
     sodipodi:insensitive="true">
    <path
       style="fill:url(#radialGradient3236);fill-opacity:1"
       d="M 1.5,1.5 L 1.5,460.3679 C 1.5,626.67854 135.81454,761.5 301.49993,761.5 C 467.1854,761.5 601.5,626.67854 601.5,460.3679 L 601.5,1.5 L 1.5,1.5 z"
       id="path2346" />
  </g>
  <g
     inkscape:groupmode="layer"
     id="layer4"
     inkscape:label="Contour final"
     style="display:inline"
     sodipodi:insensitive="true">
    <path
       style="fill:none;fill-opacity:1;stroke:#000000;stroke-width:3;stroke-miterlimit:4;stroke-dasharray:none;stroke-opacity:1"
       d="M 1.5,1.5 L 1.5,460.36794 C 1.5,626.67854 135.81454,761.5 301.49993,761.5 C 467.1854,761.5 601.5,626.67854 601.5,460.36794 L 601.5,1.5 L 1.5,1.5 z "
       id="path3239" />
  </g>
</svg>
