<?xml version="1.0" encoding="UTF-8" standalone="no"?>
<svg
   xmlns:dc="http://purl.org/dc/elements/1.1/"
   xmlns:cc="http://creativecommons.org/ns#"
   xmlns:rdf="http://www.w3.org/1999/02/22-rdf-syntax-ns#"
   xmlns:svg="http://www.w3.org/2000/svg"
   xmlns="http://www.w3.org/2000/svg"
   xmlns:xlink="http://www.w3.org/1999/xlink"
   xmlns:sodipodi="http://sodipodi.sourceforge.net/DTD/sodipodi-0.dtd"
   xmlns:inkscape="http://www.inkscape.org/namespaces/inkscape"
   height="763"
   width="603"
   version="1.0"
   id="svg20"
   sodipodi:version="0.32"
   inkscape:version="0.46"
   sodipodi:docname="Valeyres-sous-Ursins-coat_of_arms.svg"
   sodipodi:docbase="C:\Documents and Settings\Steve\Bureau\Blason Villages Suisse pour Wikipédia (par Delta-9)"
   inkscape:output_extension="org.inkscape.output.svg.inkscape">
  <metadata
     id="metadata31">
    <rdf:RDF>
      <cc:Work
         rdf:about="">
        <dc:format>image/svg+xml</dc:format>
        <dc:type
           rdf:resource="http://purl.org/dc/dcmitype/StillImage" />
        <dc:date>07-AUG-2006</dc:date>
        <dc:creator>
          <cc:Agent>
            <dc:title>Jérôme BLUM (wagner51)</dc:title>
          </cc:Agent>
        </dc:creator>
        <cc:license
           rdf:resource="http://creativecommons.org/licenses/GPL/2.0/" />
        <dc:coverage />
        <dc:description>Gabarit pour le Projet:Blasons de WIkipédia</dc:description>
        <dc:subject>
          <rdf:Bag>
            <rdf:li>blason suisse modèle gabarit projet blasons</rdf:li>
          </rdf:Bag>
        </dc:subject>
        <dc:language>fr</dc:language>
        <dc:title>Gabrit d'un blason suisse</dc:title>
      </cc:Work>
      <cc:License
         rdf:about="http://creativecommons.org/licenses/GPL/2.0/">
        <cc:permits
           rdf:resource="http://web.resource.org/cc/Reproduction" />
        <cc:permits
           rdf:resource="http://web.resource.org/cc/Distribution" />
        <cc:requires
           rdf:resource="http://web.resource.org/cc/Notice" />
        <cc:permits
           rdf:resource="http://web.resource.org/cc/DerivativeWorks" />
        <cc:requires
           rdf:resource="http://web.resource.org/cc/ShareAlike" />
        <cc:requires
           rdf:resource="http://web.resource.org/cc/SourceCode" />
      </cc:License>
    </rdf:RDF>
  </metadata>
  <defs
     id="defs29"><inkscape:perspective
   sodipodi:type="inkscape:persp3d"
   inkscape:vp_x="0 : 381.5 : 1"
   inkscape:vp_y="0 : 1000 : 0"
   inkscape:vp_z="603 : 381.5 : 1"
   inkscape:persp3d-origin="301.5 : 254.33333 : 1"
   id="perspective28" />
<linearGradient
   id="linearGradient2893">
  <stop
     style="stop-color:#ffffff;stop-opacity:0.3137255;"
     offset="0"
     id="stop2895" />
  <stop
     id="stop2897"
     offset="0.19"
     style="stop-color:#ffffff;stop-opacity:0.25098041;" />
  <stop
     style="stop-color:#6b6b6b;stop-opacity:0.1254902;"
     offset="0.60000002"
     id="stop2901" />
  <stop
     style="stop-color:#000000;stop-opacity:0.1254902;"
     offset="1"
     id="stop2899" />
</linearGradient>
<linearGradient
   id="linearGradient2955">
  <stop
     style="stop-color:white;stop-opacity:0;"
     offset="0"
     id="stop2965" />
  <stop
     style="stop-color:black;stop-opacity:0.64583331;"
     offset="1"
     id="stop2959" />
</linearGradient>
<radialGradient
   inkscape:collect="always"
   xlink:href="#linearGradient2893"
   id="radialGradient3236"
   gradientUnits="userSpaceOnUse"
   gradientTransform="matrix(1.215027,1.531577e-24,1.464684e-23,1.266667,-839.1924,-490.4894)"
   cx="858.04236"
   cy="579.93323"
   fx="858.04236"
   fy="579.93323"
   r="300" />
<inkscape:perspective
   id="perspective2526"
   inkscape:persp3d-origin="297.63751 : 280.63 : 1"
   inkscape:vp_z="595.27502 : 420.94501 : 1"
   inkscape:vp_y="0 : 1000 : 0"
   inkscape:vp_x="0 : 420.94501 : 1"
   sodipodi:type="inkscape:persp3d" />

	
	

	

		
		
		
			
		
			
		
			
		
			
		
			
	
		
		
	
			
			
			
			
		
			
			
		
			
		
			
				
			
			
				
			
				
			
				
			
				
			
				
			
				
			
				
			
				
		
				
					
				
					
				
					
			</defs>
  <sodipodi:namedview
     inkscape:window-height="968"
     inkscape:window-width="1280"
     inkscape:pageshadow="2"
     inkscape:pageopacity="0.0"
     guidetolerance="10.0"
     gridtolerance="10.0"
     objecttolerance="10.0"
     borderopacity="1.0"
     bordercolor="#666666"
     pagecolor="#ffffff"
     id="base"
     inkscape:zoom="0.92652193"
     inkscape:cx="173.53758"
     inkscape:cy="399.00713"
     inkscape:window-x="1280"
     inkscape:window-y="22"
     inkscape:current-layer="layer2"
     showgrid="false"
     showguides="true"
     inkscape:guide-bbox="true">
    <sodipodi:guide
       orientation="horizontal"
       position="761.5"
       id="guide1885" />
    <sodipodi:guide
       orientation="vertical"
       position="1.5"
       id="guide1887" />
    <sodipodi:guide
       orientation="horizontal"
       position="1.5"
       id="guide1889" />
    <sodipodi:guide
       orientation="vertical"
       position="601.5"
       id="guide1891" />
    <sodipodi:guide
       orientation="vertical"
       position="301.50081"
       id="guide1893" />
  </sodipodi:namedview>
  <desc
     id="desc22">Coat of Arms of Canton of Freiburg (Fribourg)</desc>
  <g
     inkscape:groupmode="layer"
     id="layer1"
     inkscape:label="Fond écu"
     style="opacity:1;display:inline"
     sodipodi:insensitive="true">
    <path
       id="path1899"
       d="M 1.5,1.49998 L 1.5,460.3679 C 1.5,626.6785 135.81456,761.5 301.49999,761.5 C 467.18543,761.5 601.5,626.6785 601.5,460.3679 L 601.5,1.49998 L 1.5,1.49998 z"
       style="fill:#5ab532;fill-opacity:1" />
  </g>
  <g
     inkscape:groupmode="layer"
     id="layer2"
     inkscape:label="Meubles"
     style="opacity:1;display:inline"
     sodipodi:insensitive="true">
    <path
       d="M 485.967,429.466 C 439.851,429.466 439.851,452.161 393.734,452.161 C 347.617,452.161 347.617,429.466 301.5,429.466 C 255.384,429.466 255.384,452.161 209.271,452.161 C 163.155,452.161 163.154,429.466 117.039,429.466 C 70.922,429.466 70.922,452.161 24.805,452.161 C 15.371,452.161 7.868,451.21 1.504,449.7 L 1.5,449.7 L 1.5,460.368 C 1.5,503.989 10.753,545.436 27.376,582.862 C 70.929,582.032 71.794,560.192 117.035,560.192 C 163.15,560.192 163.15,582.887 209.267,582.887 C 255.384,582.887 255.384,560.192 301.496,560.192 C 347.613,560.192 347.613,582.887 393.73,582.887 C 439.847,582.887 439.847,560.192 485.963,560.192 C 531.2,560.192 532.067,582.032 575.619,582.862 C 592.242,545.436 601.496,503.989 601.496,460.368 L 601.496,449.7 C 595.134,451.21 587.631,452.161 578.194,452.161 C 532.083,452.162 532.083,429.466 485.967,429.466 z"
       id="path2539"
       style="fill:#ffffff" />
    <path
       d="M 485.967,168.01 C 439.851,168.01 439.851,190.705 393.734,190.705 C 347.617,190.705 347.617,168.01 301.5,168.01 C 255.384,168.01 255.384,190.705 209.271,190.705 C 163.155,190.705 163.154,168.01 117.039,168.01 C 70.922,168.01 70.922,190.705 24.805,190.705 C 15.371,190.705 7.868,189.754 1.504,188.244 L 1.5,188.244 L 1.5,318.972 C 7.864,320.483 15.367,321.433 24.801,321.433 C 70.918,321.433 70.918,298.736 117.035,298.736 C 163.15,298.736 163.15,321.433 209.267,321.433 C 255.384,321.433 255.384,298.736 301.496,298.736 C 347.613,298.736 347.613,321.433 393.73,321.433 C 439.847,321.433 439.847,298.736 485.963,298.736 C 532.076,298.736 532.076,321.433 578.192,321.433 C 587.629,321.433 595.13,320.482 601.492,318.972 L 601.496,318.972 L 601.496,188.245 C 595.134,189.756 587.631,190.706 578.194,190.706 C 532.083,190.705 532.083,168.01 485.967,168.01 z"
       id="path2535"
       style="fill:#ffffff" />
    <path
       d="M 27.376,582.863 C 70.929,582.033 71.794,560.193 117.035,560.193 C 163.15,560.193 163.15,582.89 209.267,582.89 C 255.384,582.89 255.384,560.193 301.496,560.193 C 347.613,560.193 347.613,582.89 393.73,582.89 C 439.847,582.89 439.847,560.193 485.963,560.193 C 531.2,560.193 532.067,582.035 575.619,582.863"
       id="path2543"
       style="fill:none;stroke:#000000;stroke-width:3" />
    <path
       d="M 601.499,449.701 C 595.136,451.213 587.633,452.162 578.196,452.162 C 532.083,452.162 532.083,429.467 485.967,429.467 C 439.851,429.467 439.851,452.162 393.734,452.162 C 347.617,452.162 347.617,429.467 301.5,429.467 C 255.384,429.467 255.384,452.162 209.271,452.162 C 163.155,452.162 163.154,429.467 117.039,429.467 C 70.922,429.467 70.922,452.162 24.805,452.162 C 15.371,452.162 7.868,451.213 1.504,449.701 L 1.5,449.701"
       id="path2541"
       style="fill:none;stroke:#000000;stroke-width:3" />
    <path
       d="M 601.499,188.245 C 595.136,189.756 587.633,190.706 578.196,190.706 C 532.083,190.706 532.083,168.011 485.967,168.011 C 439.851,168.011 439.851,190.706 393.734,190.706 C 347.617,190.706 347.617,168.011 301.5,168.011 C 255.384,168.011 255.384,190.706 209.271,190.706 C 163.155,190.706 163.154,168.011 117.039,168.011 C 70.922,168.011 70.922,190.706 24.805,190.706 C 15.371,190.706 7.868,189.755 1.504,188.245 L 1.5,188.245"
       id="path2546"
       style="fill:none;stroke:#000000;stroke-width:3" />
    <path
       d="M 1.5,318.972 C 7.864,320.483 15.367,321.433 24.801,321.433 C 70.918,321.433 70.918,298.736 117.035,298.736 C 163.15,298.736 163.15,321.433 209.267,321.433 C 255.384,321.433 255.384,298.736 301.496,298.736 C 347.613,298.736 347.613,321.433 393.73,321.433 C 439.847,321.433 439.847,298.736 485.963,298.736 C 532.076,298.736 532.076,321.433 578.192,321.433 C 587.629,321.433 595.13,320.482 601.492,318.972 L 601.496,318.972"
       id="path2545"
       style="fill:none;stroke:#000000;stroke-width:3" />
    <path
       d="M 301.49904,129.79007 L 528.38704,129.94507 C 531.75604,130.04907 535.54304,131.70407 535.48204,136.77207 C 535.42104,141.60407 532.58804,143.13707 529.68204,143.33307 C 531.15004,151.22407 532.48804,159.69007 533.99604,168.26007 C 537.35704,168.22007 539.32004,170.29807 539.20404,174.07507 C 539.10004,177.48307 537.66104,180.70607 534.17404,180.64507 C 532.25504,259.89207 329.00604,265.69807 326.89504,308.54507 C 325.91604,328.21707 327.00704,356.69007 330.25004,380.01407 C 335.15004,380.06907 338.80004,382.36907 338.92804,386.32807 C 339.06704,390.56607 336.99704,392.80807 332.09104,392.84507 C 340.47504,444.95207 359.57704,447.17207 343.61904,515.11007 C 349.33404,515.09707 353.35804,516.08807 353.26904,521.43707 C 353.21804,524.30407 351.25504,527.73307 347.96604,527.77807 C 367.05604,556.13607 374.14604,569.57107 440.45104,571.52907 C 442.71304,571.59407 445.63204,573.01607 446.01904,575.88107 C 446.52904,579.64207 445.76004,581.19107 443.69304,582.47207 C 460.00004,584.85807 476.62304,590.20207 476.76004,609.89807 L 301.49704,611.77407 L 126.23604,609.89807 C 126.37204,590.20307 142.99604,584.85807 159.30304,582.47207 C 157.23504,581.19107 156.46704,579.64207 156.97704,575.88107 C 157.36504,573.01707 160.28404,571.59507 162.54504,571.52907 C 228.85104,569.57107 235.94204,556.13607 255.03104,527.77807 C 251.74104,527.73307 249.77704,524.30407 249.72804,521.43707 C 249.63804,516.08707 253.66304,515.09707 259.37704,515.11007 C 243.41904,447.17207 262.52104,444.95307 270.90604,392.84507 C 265.99904,392.80907 263.93004,390.56707 264.06804,386.32807 C 264.19604,382.36907 267.84704,380.06907 272.74704,380.01407 C 275.98904,356.68907 277.08004,328.21707 276.10304,308.54507 C 273.99004,265.69707 70.74304,259.89207 68.82404,180.64507 C 65.33504,180.70707 63.89604,177.48307 63.79104,174.07507 C 63.67504,170.29807 65.64004,168.22107 69.00004,168.26007 C 70.50904,159.69007 71.84604,151.22407 73.31404,143.33307 C 70.40904,143.13707 67.57504,141.60407 67.51504,136.77207 C 67.45204,131.70507 71.24004,130.04907 74.60904,129.94507 L 301.49904,129.79007 z"
       sodipodi:nodetypes="ccsccscccsccscsscccccsscsccscccsccscc"
       id="path3514"
       style="fill:#fcef3c;stroke:#000000;stroke-width:3;stroke-linecap:round;stroke-linejoin:round" />
    <path
       d="M 72.80504,143.32407 L 529.59104,143.32407"
       id="path3530"
       style="fill:none;stroke:#000000;stroke-width:3;stroke-linecap:round;stroke-linejoin:round" />
    <path
       d="M 69.10904,168.25707 L 534.11304,168.25707"
       sodipodi:nodetypes="cc"
       id="path3532"
       style="fill:none;stroke:#000000;stroke-width:3;stroke-linecap:round;stroke-linejoin:round" />
    <path
       d="M 69.10904,180.64207 L 534.11304,180.64207"
       sodipodi:nodetypes="cc"
       id="path3535"
       style="fill:none;stroke:#000000;stroke-width:3;stroke-linecap:round;stroke-linejoin:round" />
    <path
       d="M 273.07604,380.01207 L 330.88604,380.01207"
       sodipodi:nodetypes="cc"
       id="path3537"
       style="fill:none;stroke:#000000;stroke-width:3;stroke-linecap:round;stroke-linejoin:round" />
    <path
       d="M 271.12104,392.82807 C 271.27004,392.78507 332.24604,392.82807 332.24604,392.82807"
       sodipodi:nodetypes="cc"
       id="path3539"
       style="fill:none;stroke:#000000;stroke-width:3;stroke-linecap:round;stroke-linejoin:round" />
    <path
       d="M 259.16804,515.11407 L 343.81704,515.11407"
       sodipodi:nodetypes="cc"
       id="path3541"
       style="fill:none;stroke:#000000;stroke-width:3;stroke-linecap:round;stroke-linejoin:round" />
    <path
       d="M 254.87604,527.79107 L 348.19504,527.79107"
       sodipodi:nodetypes="cc"
       id="path3543"
       style="fill:none;stroke:#000000;stroke-width:3;stroke-linecap:round;stroke-linejoin:round" />
    <path
       d="M 163.68404,571.49107 L 438.90404,571.49107"
       sodipodi:nodetypes="cc"
       id="path3545"
       style="fill:none;stroke:#000000;stroke-width:3;stroke-linecap:round;stroke-linejoin:round" />
    <path
       d="M 159.17604,582.49707 L 444.38404,582.49707"
       sodipodi:nodetypes="cc"
       id="path3548"
       style="fill:none;stroke:#000000;stroke-width:3;stroke-linecap:round;stroke-linejoin:round" />
    <path
       style="fill:none;stroke:#000000;stroke-width:2.93747091;stroke-linecap:round;stroke-linejoin:round"
       id="path3563"
       sodipodi:nodetypes="csssscccccccssssc"
       d="M 318.47943,429.98594 C 326.02579,433.50797 322.81807,442.24303 314.60882,441.72897 C 307.87026,441.30793 303.44741,434.68002 307.35131,427.2913 C 310.58742,421.16667 331.80673,411.42014 338.80967,440.5716 C 344.00605,462.19629 331.26428,472.99247 323.02174,483.39699 C 311.74381,497.63198 324.41606,503.26801 334.93514,496.6303 C 332.7712,506.50804 328.26708,510.50985 320.8813,510.22981 C 311.66352,509.88123 307.77039,504.33822 305.35579,492.92419 C 304.7399,499.43656 305.21479,507.92977 301.49987,511.97957 C 297.78592,507.92977 298.26179,499.43656 297.64688,492.92419 C 295.2313,504.33822 291.33818,509.88123 282.12039,510.22981 C 274.73461,510.50985 270.23049,506.50804 268.06557,496.6303 C 278.58368,503.26801 291.25788,497.63198 279.97898,483.39699 C 271.73545,472.99247 258.99466,462.19727 264.19007,440.5716 C 271.19398,411.42014 292.41231,421.16667 295.64842,427.2913 C 299.55232,434.68002 295.13045,441.30793 288.39189,441.72897 C 280.1797,442.24303 276.97492,433.50797 284.52031,429.98594" />
    <path
       style="fill:none;stroke:#000000;stroke-width:2.93747091;stroke-linecap:round;stroke-linejoin:round"
       id="path3570"
       sodipodi:nodetypes="ccccccc"
       d="M 311.99545,423.03686 C 321.81248,417.53596 322.72212,416.32866 322.79359,409.79866 C 317.09686,408.13115 311.69093,411.13717 306.78536,417.89727 C 311.13673,404.08724 308.12191,398.54619 301.50966,395.98373 C 294.89545,398.54619 291.88161,404.08724 296.23298,417.89727 C 291.32838,411.13814 285.92148,408.13115 280.22572,409.79866 C 280.29622,416.32768 281.20488,417.53596 291.02289,423.03686" />
    <path
       style="fill:none;stroke:#000000;stroke-width:2.93747091;stroke-linecap:round;stroke-linejoin:round"
       id="path3577"
       sodipodi:nodetypes="ccccccc"
       d="M 311.96706,441.23351 C 321.66756,445.81303 322.72212,454.15055 322.79359,460.67957 C 310.36711,461.97989 305.56924,455.11992 300.66465,448.3608 C 311.20527,460.21741 308.78871,478.92127 300.67835,482.83006 C 292.23312,479.42651 289.64423,460.05095 300.45021,448.3608 C 293.25047,456.66405 288.56716,462.10327 280.2267,460.67957 C 280.2972,454.15055 281.08836,446.16847 291.05422,441.26289" />
    <path
       style="fill:none;stroke:#000000;stroke-width:3;stroke-linecap:round;stroke-linejoin:round"
       id="path3601"
       sodipodi:nodetypes="csccsc"
       d="M 228.039,571.042 C 234.851,570.73 242.763,568.913 248.051,565.132 C 260.77,556.036 268.362,538.95 272.576,527.842 L 258.504,527.821 C 247.595,544.765 244.127,549.533 235.075,557.493 C 232.47,559.783 227.887,563.999 228.039,571.042 z" />
    <path
       style="fill:none;stroke:#000000;stroke-width:3;stroke-linecap:round;stroke-linejoin:round"
       id="path3603"
       sodipodi:nodetypes="ccscssc"
       d="M 289.984,527.823 L 275.66,527.924 C 271.773,531.708 267.433,540.117 264.729,545.163 C 259.082,555.701 257.598,562.092 260.562,571.251 C 268.7,569.052 273.438,566.65 277.466,562.97 C 283.193,557.734 284.846,550.819 286.733,544.267 C 288.392,538.507 289.111,533.105 289.984,527.823 z" />
    <path
       style="fill:none;stroke:#000000;stroke-width:3;stroke-linecap:round;stroke-linejoin:round"
       id="path3605"
       sodipodi:nodetypes="cscscc"
       d="M 306.571,527.481 C 311.613,530.885 314.469,535.37 315.402,541.968 C 316.779,551.701 314.37,564.54 301.992,570.87 C 287.257,564.941 284.947,552.215 287.582,541.684 C 289.052,535.812 290.718,530.433 295.407,527.655 L 306.571,527.481 z" />
    <path
       style="fill:none;stroke:#000000;stroke-width:3;stroke-linecap:round;stroke-linejoin:round"
       id="path3607"
       sodipodi:nodetypes="csccsc"
       d="M 374.999,571.042 C 368.186,570.73 360.273,568.913 354.987,565.132 C 342.268,556.036 334.675,538.95 330.462,527.842 L 344.533,527.821 C 355.444,544.765 358.911,549.533 367.963,557.493 C 370.568,559.783 375.151,563.999 374.999,571.042 z" />
    <path
       style="fill:none;stroke:#000000;stroke-width:3;stroke-linecap:round;stroke-linejoin:round"
       id="path3609"
       sodipodi:nodetypes="ccscssc"
       d="M 313.054,527.823 L 327.378,527.924 C 331.266,531.708 335.604,540.117 338.308,545.163 C 343.955,555.701 345.44,562.092 342.475,571.251 C 334.336,569.052 329.599,566.65 325.571,562.97 C 319.844,557.734 318.191,550.819 316.303,544.267 C 314.646,538.507 313.926,533.105 313.054,527.823 z" />
  </g>
  <g
     inkscape:groupmode="layer"
     id="layer3"
     inkscape:label="Reflet final"
     style="display:inline"
     sodipodi:insensitive="true">
    <path
       style="fill:url(#radialGradient3236);fill-opacity:1"
       d="M 1.5,1.5 L 1.5,460.3679 C 1.5,626.67854 135.81454,761.5 301.49993,761.5 C 467.1854,761.5 601.5,626.67854 601.5,460.3679 L 601.5,1.5 L 1.5,1.5 z "
       id="path2346" />
  </g>
  <g
     inkscape:groupmode="layer"
     id="layer4"
     inkscape:label="Contour final"
     style="display:inline"
     sodipodi:insensitive="true">
    <path
       style="fill:none;fill-opacity:1;stroke:#000000;stroke-width:3;stroke-miterlimit:4;stroke-dasharray:none;stroke-opacity:1"
       d="M 1.5,1.5 L 1.5,460.36794 C 1.5,626.67854 135.81454,761.5 301.49993,761.5 C 467.1854,761.5 601.5,626.67854 601.5,460.36794 L 601.5,1.5 L 1.5,1.5 z "
       id="path3239" />
  </g>
</svg>
