<?xml version="1.0" encoding="UTF-8"?>
<svg version="1.0" viewBox="0 0 603 763" xmlns="http://www.w3.org/2000/svg" xmlns:cc="http://web.resource.org/cc/" xmlns:dc="http://purl.org/dc/elements/1.1/" xmlns:rdf="http://www.w3.org/1999/02/22-rdf-syntax-ns#" xmlns:xlink="http://www.w3.org/1999/xlink">
<metadata>
<rdf:RDF>
<cc:Work rdf:about="">
<dc:format>image/svg+xml</dc:format>
<dc:type rdf:resource="http://purl.org/dc/dcmitype/StillImage"/>
<dc:date>07-AUG-2006</dc:date>
<dc:creator>
<cc:Agent>
<dc:title>Jérôme BLUM (wagner51)</dc:title>
</cc:Agent>
</dc:creator>
<cc:license rdf:resource="http://creativecommons.org/licenses/GPL/2.0/"/>
<dc:coverage/>
<dc:description>Gabarit pour le Projet:Blasons de WIkipédia</dc:description>
<dc:subject>
<rdf:Bag>
<rdf:li>blason suisse modèle gabarit projet blasons</rdf:li>
</rdf:Bag>
</dc:subject>
<dc:language>fr</dc:language>
<dc:title>Gabrit d'un blason suisse</dc:title>
</cc:Work>
<cc:License rdf:about="http://creativecommons.org/licenses/GPL/2.0/">
<cc:permits rdf:resource="http://web.resource.org/cc/Reproduction"/>
<cc:permits rdf:resource="http://web.resource.org/cc/Distribution"/>
<cc:requires rdf:resource="http://web.resource.org/cc/Notice"/>
<cc:permits rdf:resource="http://web.resource.org/cc/DerivativeWorks"/>
<cc:requires rdf:resource="http://web.resource.org/cc/ShareAlike"/>
<cc:requires rdf:resource="http://web.resource.org/cc/SourceCode"/>
</cc:License>
</rdf:RDF>
</metadata>
<defs>
<radialGradient id="a" cx="858.04" cy="579.93" r="300" gradientTransform="matrix(1.215 1.5316e-24 1.4647e-23 1.2667 -839.19 -490.49)" gradientUnits="userSpaceOnUse">
<stop stop-color="#fff" stop-opacity=".31373" offset="0"/>
<stop stop-color="#fff" stop-opacity=".25098" offset=".19"/>
<stop stop-color="#6b6b6b" stop-opacity=".12549" offset=".6"/>
<stop stop-opacity=".12549" offset="1"/>
</radialGradient>
</defs>
<desc>Coat of Arms of Canton of Freiburg (Fribourg)</desc>
<path d="m1.5 1.5v458.87c0 166.31 134.31 301.13 300 301.13 165.69 0 300-134.82 300-301.13v-458.87h-600z"/>
<g>
<path d="m1.5 3v457.38c0 77.854 29.443 148.8 77.75 202.25l520.75-659.63h-598.5z" fill="#fff" fill-rule="evenodd" stroke="#000" stroke-width="3"/>
<g transform="matrix(4.2385 0 0 4.2385 -2643.3 -2427.7)" fill="#fff" fill-rule="evenodd" stroke="#000" stroke-width="1px">
<path d="m705.55 674.65c-11.042 8.6712-8.6422 16.998-0.73196 25.183-14.797 10.739-25.267 4.0174-33.477 11.464l7.0129 3.5361-7.0129-3.5361-11.34 6.1572 4.268 2.0129 8.2938-6.098-8.2938 6.098-1.8891 2.0721c3.4517 1.0603 6.3492 2.6748 11.157 2.3789l7.3789-7.3789 3.3531 0.91496c5.1892-7.9078 22.062-6.828 33.17-10.183 0.05407-4.756 0.12475-9.512 2.5619-14.268 6.1461-17.053 0.31826-22.948-15-20l0.54897 1.6469z"/>
<path d="m708.17 674.28 10.732 6.7062c-21.164 7.7642-6.379 20.437 1.098 12.013 9.0316-16.093 2.5227-20.164-11.83-18.719z"/>
</g>
<path d="m344.77 43.275c56.366-5.7538 94.85 64.78 141.22-20.644 4.9152 40.022 0.00223 75.364-85.866 72.155l-55.35-51.511z" fill-rule="evenodd" stroke="#fff" stroke-width="4.2385px"/>
<path d="m196.42 255.2c-17.435-7.5141-30.995-26.862-40.446-44.324-14.21-26.256-34.238-27.559-45.875-16.927-55.144 47.388-95.759 40.491-89.811 83.994l32.826-0.38777-32.826 0.38777c-4.7181 16.612-8.5568 30.289-9.1705 45.875h21.192l1.1634-39.807-1.1634 39.807v8.0071c13.122-1.1023 24.584-11.909 34.629-24.295-3.5332-14.042-10.284-27.762-4.1291-42.772l10.334 8.1438 2.3268-18.866c12.919-9.7768 33.207-20.471 48.065-22.356 13.911 23.992 15.294 70.516 41.746 99.893l31.138-76.374z" fill-rule="evenodd" stroke="#fff" stroke-width="4.2385px"/>
<path d="m302.38 255.2 15.767 4.5923c5.5848-12.21 3.3021-17.748-6.6404-24.688l16.236 7.4801c5.7562-14.6 3.2411-19.941-6.3642-25.382 6.8813 2.0109-3.6908 1.3424 13.771 6.3764 6.2644-16.18 1.7687-17.002-8.2871-24.827l14.05 7.2752c3.8974-13.207 4.7528-23.549-9.8596-26.822l14.516 2.9538c2.5272-22.13-2.0603-23.021-13.771-29.082l13.502 6.5152c-1.5736-25.629-10.115-20.468-21.18-24.965 14.623 36.868 6.3726 77.88-21.741 120.57z" fill-rule="evenodd" stroke="#fff" stroke-width="4.2385px"/>
<path d="m200.73 119.27c-35.898-30.512-130.23 5.7665-141.89-60.835-39.025 15.098-13.578 59.663 23.935 59.386 32.915-0.24265 80.254-4.6012 117.95 1.4487z" fill-rule="evenodd" stroke="#fff" stroke-width="4.2385px"/>
<path d="m422.41 674.66c-4.0613-32.445 36.726-58.345 104.86-108.16-69.044-93.677 54.621-81.447 2.7422-189.63 21.803-1.7588 49.744 9.3705 58.093-20.644-13.786 3.0191-27.806 6.9726-40.191 4.3875 20.59-6.1985 46.303-6.0916 48.966-34.355-13.397 8.4136-26.794 12.606-40.191 13.711 31.057-15.131 48.203-31.852 28.322-52.805l-19.744 23.934c24.79-43.945-5.5774-53.622-35.255-54.802 28.39 31.279 30.347 81.359-14.611 97.735-50.945-54.011-47.448-19.169-189.63-60.835-0.56651-13.569-11.281-25.87-23.386-37.997 21.443-36.312 36.179-74.86 22.838-122.77-21.088 0.70023-35.736-7.4542-45.127-22.838 9.4079 15.354 23.879 23.84 45.127 22.838 16.587-0.78166 28.291-4.0046 39.094-7.6781-17.171-17.662-36.441-26.674-57.544-39.094l-21.741-23.386 21.741 23.386c12.666-3.7049 32.318-4.1857 39.094 3.2906 71.702 79.109 161.11 52.993 156.92-7.1296-28.851 38.846-72.092 43.817-101.57 6.5812-14.711-18.58-33.491-31.854-56.447-45.127-24.451-14.137-43.612-0.12652-62.48 8.5783-25.207-3.5318-52.097-14.639-71.803 6.5812-28.439 0.91407-67.057-16.029-77.091-0.54842-8.9089 11.444-9.986 10.777-16.256 18.45-2.1015 2.5717-10.969 1.0969-9.351 17.654 118.17 11.947 103.21 25.769 14.09 40.635 5.2531 57.357 77.545-27.579 119.32 36 22.89 9.2812 44.041 11.108 56.799-23.034-12.752 33.898-33.916 32.143-56.799 23.034-11.22 71.709-75.813 89.312-67.613 148.15 16.801-4.2479 26.683-2.8853 40.739-1.6453-14.128-1.1907-23.869-2.8271-40.739 1.6453-24.512 9.431-49.259 19.892-72.352 21.192-27.909 1.5712-60.214 1.9164-44.93 52.805 13.822 63.292-12.118 88.017 11.869 105.96l22.289-20.292-22.289 20.292 31.064 47.672 6.933-28.674-22.838-18.098 38.194 28.87c3.2718-16.505 7.413-33.009 3.6424-49.514-11.299-2.3198-32.283-5.1674-33.061-17.353l15.16-2.7422c-19.831-15.124-20.817-49.093-18.999-85.866 29.493 1.8166 59.873 0.0868 88.06 7.1296 19.095 4.2676 42.302 0.8468 54.999-8.7749-13.086 9.9203-35.96 13.189-54.999 8.7749 38.167 39.982 89.197 54.644 147.8 53.353 30.354-0.66845 62.129-2.0307 82.576 8.2265 7.7405-16.837 25.087-28.027 41.484-39.839-16.452 11.433-34.196 23.162-41.484 39.839-22.494 51.474 2.6462 99.125 53.353 117.28-53.14 104.4-80.884 62.205-101.77 111.99l39.839 1.6453-39.839-1.6453-28.125 49.866 22.289-0.54846 13.514-41.288-13.514 41.288c15.774-1.3314 31.547 1.5746 47.32-12.066l9.6753-46.027 12.966 12.417z" fill-rule="evenodd" stroke="#fff" stroke-width="4.2385px"/>
<path d="m196.07 139.5c-2.1665 13.084-8.1359 21.175-18.95 31.376 23.728-4.1604 31.612-14.858 43.981-27.537l-25.031-3.839z" fill="none" stroke="#000" stroke-width="4.2385px"/>
<path d="m217.06 69.404 14.611 2.1937c1.9429 3.9835-4.2499 10.946 9.8718 14.611-0.55469-4.1391 0.21383-8.2782 1.0969-12.417l27.577 3.839c-4.4795 27.795-55.682 27.831-53.157-8.2265z" fill="#fff" fill-rule="evenodd" stroke="#000" stroke-width="4.2385px"/>
<path d="m530 256.28c28.39 31.279 30.365 81.374-14.594 97.75-46.036-48.808-47.639-25.065-152.44-50.781l-98.719 125.06c18.822 4.0714 38.862 5.6503 59.875 5.1875 30.354-0.66844 62.116-2.0072 82.562 8.25 7.288-16.677 25.048-28.411 41.5-39.844-16.397 11.812-33.759 23.007-41.5 39.844-22.494 51.474 2.668 99.124 53.375 117.28-53.14 104.4-80.895 62.179-101.78 111.97l39.797 1.714-39.797-1.714-28.125 49.875 22.281-0.53125 13.557-41.317-13.557 41.317c15.774-1.3314 31.539 1.5777 47.312-12.062l9.6875-46.031 12.969 12.406c-4.0613-32.445 36.737-58.346 104.88-108.16-69.044-93.677 54.597-81.438 2.7188-189.62 21.803-1.7588 49.745 9.3581 58.094-20.656-13.786 3.0191-27.802 6.9913-40.188 4.4062 20.59-6.1985 46.306-6.1118 48.969-34.375-13.397 8.4136-26.791 12.613-40.188 13.719 31.057-15.131 48.194-31.86 28.312-52.812l-19.719 23.938c24.79-43.945-5.6037-53.633-35.281-54.812z" fill="#fff" fill-rule="evenodd" stroke="#000" stroke-width="4.2385px"/>
</g>
<g>
<path d="m1.5 1.5v458.87c0 166.31 134.31 301.13 300 301.13 165.69 0 300-134.82 300-301.13v-458.87h-600z" fill="url(#a)"/>
<path d="m1.5 1.5v458.87c0 166.31 134.31 301.13 300 301.13 165.69 0 300-134.82 300-301.13v-458.87h-600z" fill="none" stroke="#000" stroke-width="3"/>
</g>
</svg>
