<?xml version="1.0" encoding="UTF-8"?>
<svg sodipodi:docbase="D:\MIS DOCUMENTOS\Mis imágenes\Encyclopédie\Escudos de Suiza" sodipodi:docname="Arni bei Biglen-coat of arms.svg" sodipodi:version="0.32" version="1.0" viewBox="0 0 603 763" xmlns="http://www.w3.org/2000/svg" xmlns:cc="http://web.resource.org/cc/" xmlns:dc="http://purl.org/dc/elements/1.1/" xmlns:rdf="http://www.w3.org/1999/02/22-rdf-syntax-ns#" xmlns:sodipodi="http://inkscape.sourceforge.net/DTD/sodipodi-0.dtd" xmlns:xlink="http://www.w3.org/1999/xlink">
<metadata>
<rdf:RDF>
<cc:Work rdf:about="">
<dc:format>image/svg+xml</dc:format>
<dc:type rdf:resource="http://purl.org/dc/dcmitype/StillImage"/>
<dc:date>07-AUG-2006</dc:date>
<dc:creator>
<cc:Agent>
<dc:title>Jérôme BLUM (wagner51)</dc:title>
</cc:Agent>
</dc:creator>
<cc:license rdf:resource="http://creativecommons.org/licenses/GPL/2.0/"/>
<dc:coverage/>
<dc:description>Gabarit pour le Projet:Blasons de WIkipédia</dc:description>
<dc:subject>
<rdf:Bag>
<rdf:li>blason suisse modèle gabarit projet blasons</rdf:li>
</rdf:Bag>
</dc:subject>
<dc:language>fr</dc:language>
<dc:title>Gabrit d'un blason suisse</dc:title>
</cc:Work>
<cc:License rdf:about="http://creativecommons.org/licenses/GPL/2.0/">
<cc:permits rdf:resource="http://web.resource.org/cc/Reproduction"/>
<cc:permits rdf:resource="http://web.resource.org/cc/Distribution"/>
<cc:requires rdf:resource="http://web.resource.org/cc/Notice"/>
<cc:permits rdf:resource="http://web.resource.org/cc/DerivativeWorks"/>
<cc:requires rdf:resource="http://web.resource.org/cc/ShareAlike"/>
<cc:requires rdf:resource="http://web.resource.org/cc/SourceCode"/>
</cc:License>
</rdf:RDF>
</metadata>
<defs>
<radialGradient id="a" cx="858.04" cy="579.93" r="300" gradientTransform="matrix(1.215 1.5316e-24 1.4647e-23 1.2667 -839.19 -490.49)" gradientUnits="userSpaceOnUse">
<stop stop-color="#fff" stop-opacity=".31373" offset="0"/>
<stop stop-color="#fff" stop-opacity=".25098" offset=".19"/>
<stop stop-color="#6b6b6b" stop-opacity=".12549" offset=".6"/>
<stop stop-opacity=".12549" offset="1"/>
</radialGradient>
</defs>
<sodipodi:namedview bordercolor="#666666" borderopacity="1.0" gridtolerance="10.0" guidetolerance="10.0" objecttolerance="10.0" pagecolor="#ffffff" showgrid="false"/>
<desc>Coat of Arms of Canton of Freiburg (Fribourg)</desc>
<g sodipodi:insensitive="true">
<path d="m1.5 1.5v458.87c0 166.31 134.31 301.13 300 301.13 165.69 0 300-134.82 300-301.13v-458.87h-600z" fill="#2b5df2"/>
<path d="m1.5 383v77.375c0 166.31 134.31 301.12 300 301.12 155.54 0 283.42-118.82 298.5-270.97v-107.53h-598.5z" fill="#fcef3c" fill-rule="evenodd" stroke="#000" stroke-linejoin="round" stroke-width="2"/>
</g>
<g stroke="#000">
<path d="m94.281 415.28c-11.762 27.212-18.281 57.204-18.281 88.719 0 123.65 100.35 224 224 224 123.65 0 224-100.35 224-224 0-31.515-6.5192-61.507-18.281-88.719-17.7 98.478-104.4 172.83-207.78 171.81-101.97-1.0002-186.24-74.987-203.66-171.81z" fill="#2b5df2" fill-rule="evenodd" stroke-linejoin="round" stroke-width="1.0027"/>
<g transform="matrix(1.0426 0 0 .68522 -97.124 -141.86)">
<path d="m591.44 389.4c-16.642-52.384-62.229-54.992-99.855-36.902s-72.358 77.424-72.358 77.424c26.683-71.618 16.643-106.37 2.895-133.14s-38.35-49.204-41.244-60.058c-2.895 10.854-27.497 33.285-41.245 60.058-13.748 26.772-23.788 61.521 2.894 133.14 0 0-34.73-59.334-72.357-77.424s-83.214-15.481-99.855 36.902c-11.6 36.512 3.617 58.611 31.838 84.66 28.22 26.049 49.203 40.521 41.968 69.465 0 0 34.544-15.919 33.098-49.203-1.447-33.285-14.704-38.229-1.983-53.547 11.686-14.07 34.008-2.17 47.033 18.09 13.025 20.261 20.984 39.074 20.984 76.701 0 37.626 6.196 84.66-42.691 84.66-35.457 0-23.156-50.652-15.92-61.506 0 0-27.072 1.793-43.415 47.757-11.577 32.562 7.378 63.347 31.114 69.464 26 6.701 64.441-22.857 78.871-45.585 0 0-18.289 43.002 0 70.188 13.18 19.589 21.742 23.329 29.668 33.285 7.925-9.956 16.488-13.696 29.667-33.285 18.289-27.186 0-70.188 0-70.188 14.43 22.728 52.871 52.286 78.871 45.585 23.736-6.117 42.691-36.902 31.113-69.464-16.342-45.964-43.414-47.757-43.414-47.757 7.235 10.854 19.537 61.506-15.92 61.506-48.888 0-42.691-47.034-42.691-84.66 0-37.627 7.96-56.44 20.983-76.701 13.025-20.26 35.349-32.16 47.033-18.09 12.722 15.318-0.535 20.262-1.982 53.547-1.447 33.284 33.098 49.203 33.098 49.203-7.236-28.943 13.748-43.416 41.968-69.465 28.217-26.049 43.433-48.148 31.834-84.66z" fill="#fcef3c" stroke-linecap="round" stroke-linejoin="round" stroke-width="3.2535"/>
<path d="m342.53 429.92s29.052 53.611 29.052 111.42c0 57.371-20.368 89.01-20.368 89.01" fill="none" stroke-linecap="round" stroke-linejoin="round" stroke-width="3.2535"/>
<path d="m419.23 429.92s-29.051 53.611-29.051 111.42c0 57.371 20.368 89.01 20.368 89.01" fill="none" stroke-linecap="round" stroke-linejoin="round" stroke-width="3.2535"/>
<path d="m380.88 254.72v471.21-471.21z" fill-rule="evenodd" stroke-width="1.1831px"/>
<path d="m419.5 533.68h-77.241c-9.33 0-16.895 7.563-16.895 16.894s7.564 16.895 16.895 16.895h77.241c9.33 0 16.895-7.564 16.895-16.895s-7.565-16.894-16.895-16.894z" fill="#fcef3c" stroke-linecap="round" stroke-linejoin="round" stroke-width="3.2535"/>
</g>
</g>
<g sodipodi:insensitive="true">
<path d="m1.5 1.5v458.87c0 166.31 134.31 301.13 300 301.13 165.69 0 300-134.82 300-301.13v-458.87h-600z" fill="url(#a)"/>
<path d="m1.5 1.5v458.87c0 166.31 134.31 301.13 300 301.13 165.69 0 300-134.82 300-301.13v-458.87h-600z" fill="none" stroke="#000" stroke-width="3"/>
</g>
</svg>
