<?xml version="1.0" encoding="UTF-8" standalone="no"?>
<!-- Created with Inkscape (http://www.inkscape.org/) -->

<svg
   xmlns:dc="http://purl.org/dc/elements/1.1/"
   xmlns:cc="http://creativecommons.org/ns#"
   xmlns:rdf="http://www.w3.org/1999/02/22-rdf-syntax-ns#"
   xmlns:svg="http://www.w3.org/2000/svg"
   xmlns="http://www.w3.org/2000/svg"
   xmlns:sodipodi="http://sodipodi.sourceforge.net/DTD/sodipodi-0.dtd"
   xmlns:inkscape="http://www.inkscape.org/namespaces/inkscape"
   version="1.0"
   width="208.86046"
   height="244.65999"
   id="svg2780"
   inkscape:version="0.92.4 (5da689c313, 2019-01-14)"
   sodipodi:docname="Conthey-blazon.svg">
  <metadata
     id="metadata27">
    <rdf:RDF>
      <cc:Work
         rdf:about="">
        <dc:format>image/svg+xml</dc:format>
        <dc:type
           rdf:resource="http://purl.org/dc/dcmitype/StillImage" />
        <dc:title></dc:title>
      </cc:Work>
    </rdf:RDF>
  </metadata>
  <sodipodi:namedview
     pagecolor="#ffffff"
     bordercolor="#666666"
     borderopacity="1"
     objecttolerance="10"
     gridtolerance="10"
     guidetolerance="10"
     inkscape:pageopacity="0"
     inkscape:pageshadow="2"
     inkscape:window-width="3259"
     inkscape:window-height="1417"
     id="namedview25"
     showgrid="false"
     inkscape:zoom="4"
     inkscape:cx="-26.258422"
     inkscape:cy="175.90015"
     inkscape:window-x="-8"
     inkscape:window-y="-8"
     inkscape:window-maximized="1"
     inkscape:current-layer="svg2780"
     inkscape:measure-start="104.255,149.787"
     inkscape:measure-end="104.255,126.383"
     showguides="true"
     inkscape:object-paths="true"
     inkscape:snap-intersection-paths="true"
     inkscape:snap-global="false" />
  <defs
     id="defs2782" />
  <path
     id="path4212-7"
     style="fill:#ffffff;fill-opacity:1;fill-rule:evenodd;stroke:#000000;stroke-width:1.99999988;stroke-linecap:butt;stroke-miterlimit:4;stroke-dashoffset:0;stroke-opacity:1"
     d="M 204.09935,159.00304 207.86045,1 C 138.90698,1 69.953503,1 1.000029,1 l 3.7611,158.00304 c 1.64138,68.95393 2.88226,67.30563 99.669111,84.64438 96.78685,-17.33875 98.02773,-15.69045 99.66911,-84.64438 z"
     inkscape:connector-curvature="0"
     sodipodi:nodetypes="sccscs" />
  <path
     style="opacity:1;fill:#cc2918;fill-opacity:1;stroke:#000000;stroke-width:1;stroke-miterlimit:8;stroke-dasharray:none;stroke-dashoffset:4.57999992;stroke-opacity:1"
     d="m 130.53984,37.021589 -19.94922,0.0044 -6.16038,-18.967795 -6.160389,18.967789 -19.949221,-0.0044 16.1419,11.718261 -6.168915,18.965008 16.136625,-11.725502 16.13663,11.725502 -6.16892,-18.965008 z"
     id="path12002"
     inkscape:connector-curvature="0" />
  <path
     id="path48773-7"
     style="opacity:1;fill:#009645;fill-opacity:1;stroke:#000000;stroke-width:1;stroke-miterlimit:4;stroke-dasharray:none;stroke-dashoffset:4.57999992;stroke-opacity:1"
     d="m 131.09603,148.29711 c 0.88958,4.74899 1.51311,11.78792 1.84004,16.74745 0.0579,0.87852 0.214,1.77952 -0.38711,2.09376 -1.37002,0.25269 -11.9197,1.54461 -10.53528,10.11499 l 2.83003,-0.22097 c -0.45499,-4.288 4.79219,-6.64692 9.25962,-6.88616 0.48569,3.16728 0.58865,5.31808 0.68555,8.48536 l 2.72808,-0.0804 c -0.0979,-3.03011 -0.20309,-5.31843 -0.37801,-8.5123 2.2238,0.35087 3.9716,0.44157 5.0958,3.08436 0.63915,1.50252 1.56884,5.60182 1.72303,7.26494 l 2.71026,0.0159 c -0.35947,-4.341 -0.46259,-12.6072 -8.06374,-13.30275 -0.67147,-0.0698 -0.63177,-1.15478 -0.76137,-1.94236 -0.78998,-4.80069 -1.41571,-11.6142 -2.24842,-16.4522 z"
     inkscape:connector-curvature="0"
     sodipodi:nodetypes="cccccccccscccscc" />
  <g
     id="g17207"
     transform="matrix(0.43639171,0.01578731,-0.01578791,0.43640132,92.229445,125.60082)"
     style="stroke-width:2.28999567">
    <ellipse
       ry="10.125"
       rx="9.4375"
       cy="223.28499"
       cx="106"
       id="path16795-51-2-8"
       style="opacity:1;fill:#1b63c6;fill-opacity:1;stroke:#000000;stroke-width:2.28999567;stroke-miterlimit:4;stroke-dasharray:none;stroke-dashoffset:4.57999992;stroke-opacity:1" />
    <ellipse
       ry="9.375"
       rx="8.1875"
       cy="221.40999"
       cx="92"
       id="path16797-6-63"
       style="opacity:1;fill:#1b63c6;fill-opacity:1;stroke:#000000;stroke-width:2.28999567;stroke-miterlimit:4;stroke-dasharray:none;stroke-dashoffset:4.57999992;stroke-opacity:1" />
    <ellipse
       ry="12.6875"
       rx="10.875"
       cy="212.48137"
       cx="115.19302"
       id="path16793-1-82"
       style="opacity:1;fill:#1b63c6;fill-opacity:1;stroke:#000000;stroke-width:2.28999567;stroke-miterlimit:4;stroke-dasharray:none;stroke-dashoffset:4.57999992;stroke-opacity:1" />
    <ellipse
       ry="11.25"
       rx="9.375"
       cy="210.40999"
       cx="83.5"
       id="path16795-51-53"
       style="opacity:1;fill:#1b63c6;fill-opacity:1;stroke:#000000;stroke-width:2.28999567;stroke-miterlimit:4;stroke-dasharray:none;stroke-dashoffset:4.57999992;stroke-opacity:1" />
    <ellipse
       ry="9.375"
       rx="8.1875"
       cy="206.90999"
       cx="97.625"
       id="path16797-6-6"
       style="opacity:1;fill:#1b63c6;fill-opacity:1;stroke:#000000;stroke-width:2.28999567;stroke-miterlimit:4;stroke-dasharray:none;stroke-dashoffset:4.57999992;stroke-opacity:1" />
    <ellipse
       ry="9.375"
       rx="8.1875"
       cy="200.78499"
       cx="110.6875"
       id="path16797-6"
       style="opacity:1;fill:#1b63c6;fill-opacity:1;stroke:#000000;stroke-width:2.28999567;stroke-miterlimit:4;stroke-dasharray:none;stroke-dashoffset:4.57999992;stroke-opacity:1" />
    <ellipse
       ry="11.25"
       rx="11.5"
       cy="196.59933"
       cx="123.58578"
       id="path16795-51-1"
       style="opacity:1;fill:#1b63c6;fill-opacity:1;stroke:#000000;stroke-width:2.28999567;stroke-miterlimit:4;stroke-dasharray:none;stroke-dashoffset:4.57999992;stroke-opacity:1" />
    <ellipse
       ry="9.375"
       rx="7.5"
       cy="192.10822"
       cx="99.676773"
       id="path16797-4"
       style="opacity:1;fill:#1b63c6;fill-opacity:1;stroke:#000000;stroke-width:2.28999567;stroke-miterlimit:4;stroke-dasharray:none;stroke-dashoffset:4.57999992;stroke-opacity:1" />
    <ellipse
       ry="11.25"
       rx="11.5"
       cy="194.59044"
       cx="84.539215"
       id="path16795-6"
       style="opacity:1;fill:#1b63c6;fill-opacity:1;stroke:#000000;stroke-width:2.28999567;stroke-miterlimit:4;stroke-dasharray:none;stroke-dashoffset:4.57999992;stroke-opacity:1" />
    <ellipse
       ry="11.25"
       rx="9.875"
       cy="182.24577"
       cx="109.53401"
       id="path16795-51-8"
       style="opacity:1;fill:#1b63c6;fill-opacity:1;stroke:#000000;stroke-width:2.28999567;stroke-miterlimit:4;stroke-dasharray:none;stroke-dashoffset:4.57999992;stroke-opacity:1" />
    <ellipse
       ry="11.25"
       rx="11.5"
       cy="185.40999"
       cx="131"
       id="path16795-59"
       style="opacity:1;fill:#1b63c6;fill-opacity:1;stroke:#000000;stroke-width:2.28999567;stroke-miterlimit:4;stroke-dasharray:none;stroke-dashoffset:4.57999992;stroke-opacity:1" />
    <ellipse
       ry="11.374999"
       rx="9.6875"
       cy="181.90997"
       cx="76.9375"
       id="path16795-51-9"
       style="opacity:1;fill:#1b63c6;fill-opacity:1;stroke:#000000;stroke-width:2.28999567;stroke-miterlimit:4;stroke-dasharray:none;stroke-dashoffset:4.57999992;stroke-opacity:1" />
    <ellipse
       ry="11.25"
       rx="11.5"
       cy="175.53499"
       cx="90.875"
       id="path16795-7"
       style="opacity:1;fill:#1b63c6;fill-opacity:1;stroke:#000000;stroke-width:2.28999567;stroke-miterlimit:4;stroke-dasharray:none;stroke-dashoffset:4.57999992;stroke-opacity:1" />
    <ellipse
       ry="9.375"
       rx="7.5"
       cy="170.1171"
       cx="139.60724"
       id="path16797-8"
       style="opacity:1;fill:#1b63c6;fill-opacity:1;stroke:#000000;stroke-width:2.28999567;stroke-miterlimit:4;stroke-dasharray:none;stroke-dashoffset:4.57999992;stroke-opacity:1" />
    <ellipse
       ry="10.125"
       rx="9.4375"
       cy="172.90999"
       cx="122.8125"
       id="path16795-51-2"
       style="opacity:1;fill:#1b63c6;fill-opacity:1;stroke:#000000;stroke-width:2.28999567;stroke-miterlimit:4;stroke-dasharray:none;stroke-dashoffset:4.57999992;stroke-opacity:1" />
    <ellipse
       ry="9.375"
       rx="7.5"
       cy="161.03499"
       cx="93.125"
       id="path16797"
       style="opacity:1;fill:#1b63c6;fill-opacity:1;stroke:#000000;stroke-width:2.28999567;stroke-miterlimit:4;stroke-dasharray:none;stroke-dashoffset:4.57999992;stroke-opacity:1" />
    <ellipse
       ry="11.25"
       rx="11.5"
       cy="167.65999"
       cx="67.75"
       id="path16795-51-5"
       style="opacity:1;fill:#1b63c6;fill-opacity:1;stroke:#000000;stroke-width:2.28999567;stroke-miterlimit:4;stroke-dasharray:none;stroke-dashoffset:4.57999992;stroke-opacity:1" />
    <ellipse
       ry="11.25"
       rx="11.5"
       cy="160.61342"
       cx="77.853554"
       id="path16795-51-89"
       style="opacity:1;fill:#1b63c6;fill-opacity:1;stroke:#000000;stroke-width:2.28999567;stroke-miterlimit:4;stroke-dasharray:none;stroke-dashoffset:4.57999992;stroke-opacity:1" />
    <ellipse
       ry="13.75"
       rx="12.125"
       cy="161.90999"
       cx="109.375"
       id="path16793-1-6"
       style="opacity:1;fill:#1b63c6;fill-opacity:1;stroke:#000000;stroke-width:2.28999567;stroke-miterlimit:4;stroke-dasharray:none;stroke-dashoffset:4.57999992;stroke-opacity:1" />
    <ellipse
       ry="11.25"
       rx="11.5"
       cy="153.78499"
       cx="145.875"
       id="path16795-51-88"
       style="opacity:1;fill:#1b63c6;fill-opacity:1;stroke:#000000;stroke-width:2.28999567;stroke-miterlimit:4;stroke-dasharray:none;stroke-dashoffset:4.57999992;stroke-opacity:1" />
    <ellipse
       ry="12.25"
       rx="10.75"
       cy="157.25465"
       cx="130.88757"
       id="path16799"
       style="opacity:1;fill:#1b63c6;fill-opacity:1;stroke:#000000;stroke-width:2.28999567;stroke-miterlimit:4;stroke-dasharray:none;stroke-dashoffset:4.57999992;stroke-opacity:1" />
    <ellipse
       ry="13.75"
       rx="12.125"
       cy="154.03499"
       cx="56.375"
       id="path16793-1-8"
       style="opacity:1;fill:#1b63c6;fill-opacity:1;stroke:#000000;stroke-width:2.28999567;stroke-miterlimit:4;stroke-dasharray:none;stroke-dashoffset:4.57999992;stroke-opacity:1" />
    <ellipse
       ry="11.25"
       rx="11.5"
       cy="144.15999"
       cx="86.125"
       id="path16795-51-7"
       style="opacity:1;fill:#1b63c6;fill-opacity:1;stroke:#000000;stroke-width:2.28999567;stroke-miterlimit:4;stroke-dasharray:none;stroke-dashoffset:4.57999992;stroke-opacity:1" />
    <ellipse
       ry="11.25"
       rx="11.5"
       cy="149.40999"
       cx="66.125"
       id="path16795-51"
       style="opacity:1;fill:#1b63c6;fill-opacity:1;stroke:#000000;stroke-width:2.28999567;stroke-miterlimit:4;stroke-dasharray:none;stroke-dashoffset:4.57999992;stroke-opacity:1" />
    <ellipse
       ry="9.375"
       rx="7.5"
       cy="146.78499"
       cx="119.5"
       id="path16797-1"
       style="opacity:1;fill:#1b63c6;fill-opacity:1;stroke:#000000;stroke-width:2.28999567;stroke-miterlimit:4;stroke-dasharray:none;stroke-dashoffset:4.57999992;stroke-opacity:1" />
    <ellipse
       ry="11.25"
       rx="11.5"
       cy="143.78499"
       cx="102.875"
       id="path16795"
       style="opacity:1;fill:#1b63c6;fill-opacity:1;stroke:#000000;stroke-width:2.28999567;stroke-miterlimit:4;stroke-dasharray:none;stroke-dashoffset:4.57999992;stroke-opacity:1" />
    <ellipse
       ry="11.25"
       rx="11.5"
       cy="139.28499"
       cx="134.375"
       id="path16795-51-3"
       style="opacity:1;fill:#1b63c6;fill-opacity:1;stroke:#000000;stroke-width:2.28999567;stroke-miterlimit:4;stroke-dasharray:none;stroke-dashoffset:4.57999992;stroke-opacity:1" />
    <ellipse
       ry="11.25"
       rx="11.5"
       cy="134.78499"
       cx="152.5"
       id="path16795-5"
       style="opacity:1;fill:#1b63c6;fill-opacity:1;stroke:#000000;stroke-width:2.28999567;stroke-miterlimit:4;stroke-dasharray:none;stroke-dashoffset:4.57999992;stroke-opacity:1" />
    <ellipse
       transform="matrix(0.98266099,0.18541136,-0.18672758,0.98241173,0,0)"
       ry="12.998771"
       rx="11.501707"
       cy="118.83891"
       cx="81.096634"
       id="path16793-1-9"
       style="opacity:1;fill:#1b63c6;fill-opacity:1;stroke:#000000;stroke-width:2.2899971;stroke-miterlimit:4;stroke-dasharray:none;stroke-dashoffset:4.57999992;stroke-opacity:1" />
    <ellipse
       ry="13.75"
       rx="12.125"
       cy="128.78499"
       cx="76.375"
       id="path16793"
       style="opacity:1;fill:#1b63c6;fill-opacity:1;stroke:#000000;stroke-width:2.28999567;stroke-miterlimit:4;stroke-dasharray:none;stroke-dashoffset:4.57999992;stroke-opacity:1" />
    <ellipse
       transform="matrix(0.99606215,0.08865772,-0.09909568,0.99507791,0,0)"
       ry="13.006054"
       rx="12.119341"
       cy="117.64806"
       cx="109.58996"
       id="path16793-8"
       style="opacity:1;fill:#1b63c6;fill-opacity:1;stroke:#000000;stroke-width:2.29005885;stroke-miterlimit:4;stroke-dasharray:none;stroke-dashoffset:4.57999992;stroke-opacity:1" />
    <ellipse
       ry="13.75"
       rx="12.125"
       cy="127.52243"
       cx="118.49112"
       id="path16793-1"
       style="opacity:1;fill:#1b63c6;fill-opacity:1;stroke:#000000;stroke-width:2.28999567;stroke-miterlimit:4;stroke-dasharray:none;stroke-dashoffset:4.57999992;stroke-opacity:1" />
    <ellipse
       transform="matrix(0.97738856,-0.21145116,0.24880701,0.96855308,0,0)"
       ry="12.680503"
       rx="12.07452"
       cy="152.7887"
       cx="104.98393"
       id="path16793-4"
       style="opacity:1;fill:#1b63c6;fill-opacity:1;stroke:#000000;stroke-width:2.29083991;stroke-miterlimit:4;stroke-dasharray:none;stroke-dashoffset:4.57999992;stroke-opacity:1" />
  </g>
  <path
     id="path48773-7-5"
     style="opacity:1;fill:#009645;fill-opacity:1;stroke:#000000;stroke-width:1;stroke-miterlimit:4;stroke-dasharray:none;stroke-dashoffset:4.57999992;stroke-opacity:1"
     d="M 134.95184,145.4756 C 131.04699,124.26071 123.07359,102.79919 78.233649,79.606013 63.971462,72.228987 42.846893,60.889277 32.399628,45.415255 l -7.541078,4.774429 c 12.18735,15.118209 25.418912,23.272197 51.976707,37.913332 -2.800637,4.962954 -1.352467,10.015376 0.810556,12.598354 2.3662,2.8256 2.113141,4.75207 1.460357,6.75898 -1.634776,5.02592 -5.899672,5.46362 -9.447452,4.18215 -3.675691,-1.32767 -4.601356,-3.70071 -3.817719,-5.73701 0.845833,-2.19792 3.282566,-3.05653 4.971913,-2.02784 1.28156,0.78038 0.885282,2.30424 0.17556,3.99028 4.219359,-1.40458 4.16585,-6.70034 -0.868322,-8.21037 -3.801844,-1.140387 -7.697367,2.64501 -8.710967,5.9554 -1.355093,4.42568 0.195083,9.06523 6.704074,11.30942 5.037583,1.73688 13.487004,0.1288 16.249147,-8.21752 1.974319,-5.96577 -0.180732,-8.56083 -2.375841,-11.847185 -0.808079,-1.209797 -0.429882,-4.633164 0.07995,-5.754115 0.672633,0.380338 1.354603,0.763944 2.044109,1.149793 9.500575,5.316536 21.716628,12.190637 29.127098,20.010807 -2.38786,2.26208 -5.81091,5.05553 -3.38047,8.92035 1.35381,2.15279 -1.56067,2.22468 -4.67449,2.67572 -8.25734,1.19609 -8.145212,11.75469 -1.25775,12.81346 3.56411,0.54789 4.41607,3.43376 -0.40164,3.54034 -8.569242,0.18957 -9.508541,8.9034 -3.807718,10.59164 4.074188,1.20653 3.604538,3.80708 0.808588,3.68757 -3.740944,-0.1599 -6.375711,4.69499 -3.976592,7.4362 3.07505,3.51353 7.017462,3.22431 9.113572,-0.10089 -2.29397,0.65567 -5.29874,0.42853 -5.13351,-2.12377 0.17612,-2.72068 6.05987,-1.86863 6.31266,-6.30668 0.19662,-3.45175 -1.53273,-4.21179 -4.45681,-5.32385 -2.842278,-1.08095 -2.693677,-4.45621 1.48977,-4.18831 3.83732,0.24572 7.43903,-0.76921 7.88397,-4.42207 0.55574,-4.56259 -2.95069,-5.57091 -6.21282,-6.59067 -3.28016,-1.0254 -2.14209,-4.58486 1.52493,-4.49784 7.71149,0.18299 10.19659,-3.72343 8.13408,-7.40104 -1.8259,-3.25572 0.81578,-3.68183 2.01406,-4.13968 3.04646,3.82422 5.73368,8.02373 8.00099,12.72959 -5.05135,5.26341 -4.70582,9.33097 -2.90609,13.53326 3.40614,7.95318 21.37753,8.37609 34.27871,7.50684 1.40728,-0.10795 1.59667,1.96788 -0.006,2.28792 -4.69033,1.13136 -6.81776,1.37806 -8.35018,3.56858 -1.22606,1.75259 -0.70757,1.62186 -2.17098,4.90853 0.90912,0.0544 1.81095,0.14584 2.77287,-0.0676 -1.81733,3.26522 0.44311,5.48107 0.94101,8.1505 3.50166,-0.39195 5.84645,-1.73419 7.5551,-3.59899 0.49921,0.48157 0.96602,1.01437 1.41393,1.57703 4.31316,-2.139 3.41226,-5.44338 3.69081,-8.49526 0.22151,-2.4271 2.86978,-1.70509 2.79609,-0.32005 -0.25013,4.70046 1.72057,8.0364 6.95088,9.29567 0.0898,-0.45325 0.0907,-0.82524 0.59127,-1.6539 5.01333,0.76828 9.68693,-0.86448 14.35321,-2.54897 -1.35769,-2.02149 -1.25921,-4.55499 -5.312,-5.62878 0.47475,-0.44392 0.96742,-0.84435 1.37426,-1.45303 -2.41364,-1.56616 -4.70598,-1.75971 -6.97234,-1.78151 -3.48541,-0.0335 -2.55676,-3.79007 0.90751,-2.58532 4.70556,1.63642 9.99822,0.71343 15.64991,-2.80031 -0.74598,-0.38835 -1.61639,-0.53401 -2.53586,-1.67365 4.80386,-0.72081 7.65547,-3.79036 9.43402,-8.15136 -1.61752,-1.41472 -9.27077,-2.39106 -12.39193,-2.42124 -0.003,-0.88618 0.53723,-1.46896 0.70954,-1.98467 -4.81764,-1.13515 -8.85408,2.7483 -12.97831,5.26662 -1.30438,0.79648 -3.78683,-0.11578 -1.0417,-1.44615 2.95287,-1.43105 4.123,-3.68666 4.88617,-6.21311 -0.90176,-0.0772 -1.75531,-0.0375 -2.58545,0.059 2.38538,-3.87027 1.45133,-6.89436 -2.38344,-9.17904 -2.08902,2.01826 -4.30874,2.34778 -6.14335,3.71797 -1.38076,1.03124 -2.32339,2.39776 -2.96439,3.98958 l -2.15097,-1.20321 c -1.71922,3.22476 -2.54198,6.14893 -0.43272,8.52387 1.83461,2.06572 -3.03526,3.45793 -3.2021,1.03371 -0.20544,-2.986 -0.98329,-5.75606 -1.96422,-8.00762 -0.66469,0.50004 -1.28251,0.88128 -1.90038,1.026 -1.08957,-1.93823 -3.81134,-2.88557 -6.30266,-3.63126 -2.15878,3.02075 -2.87695,6.00445 -1.09532,8.92389 -0.78072,-0.0409 -1.55178,-0.0585 -2.28503,0.0157 2.02931,5.99117 6.1685,5.30782 10.89723,7.41324 1.24996,0.48603 1.14632,1.92121 0.008,1.97117 -8.95628,0.41038 -22.54927,-0.69022 -28.00051,-3.89968 -2.46383,-1.4506 -4.98596,-5.82558 -1.28192,-9.83355 1.40543,3.48636 2.09522,6.19741 3.04188,10.67567"
     inkscape:connector-curvature="0"
     sodipodi:nodetypes="cscccssssscscssscscssssscsccscscsssccsccccccccccccccccsccccccccccccccccccccccscc" />
  <path
     id="path48773-7-7"
     style="opacity:1;fill:#009645;fill-opacity:1;stroke:#000000;stroke-width:1;stroke-miterlimit:4;stroke-dasharray:none;stroke-dashoffset:4.57999992;stroke-opacity:1"
     d="m 77.76445,148.29711 c -0.88958,4.74899 -1.51311,11.78792 -1.84004,16.74745 -0.0579,0.87852 -0.214,1.77952 0.38711,2.09376 1.37002,0.25269 10.5447,3.29461 9.16028,11.86499 l -2.83003,-0.22097 c 0.45499,-4.288 -3.41719,-8.39692 -7.88462,-8.63616 -0.48569,3.16728 0.53635,6.44308 1.06445,9.61036 l -3.168721,0.47138 c -0.4021,-3.34261 -1.106269,-6.99521 -0.931349,-10.18908 -2.2238,0.35087 -4.182731,0.26386 -5.30475,2.90758 -0.901362,2.1238 -1.88607,5.61633 -2.04026,7.27945 l -2.4009,-0.20511 c 0.148915,-5.18322 0.683069,-12.66567 8.401118,-12.89362 0.67147,-0.0698 0.63177,-1.15478 0.76137,-1.94236 0.78998,-4.80069 1.41571,-11.6142 2.24842,-16.4522 z"
     inkscape:connector-curvature="0"
     sodipodi:nodetypes="cccccccccscccscc" />
  <g
     id="g49056">
    <ellipse
       transform="matrix(-0.99934626,0.03615327,0.03615327,0.99934626,0,0)"
       ry="4.421454"
       rx="4.121141"
       cy="226.18269"
       cx="-63.367767"
       id="path16795-51-2-8-8"
       style="opacity:1;fill:#1b63c6;fill-opacity:1;stroke:#000000;stroke-width:0.99999988;stroke-miterlimit:4;stroke-dasharray:none;stroke-dashoffset:4.57999992;stroke-opacity:1" />
    <ellipse
       transform="matrix(-0.99934626,0.03615327,0.03615327,0.99934626,0,0)"
       ry="4.0939388"
       rx="3.5752945"
       cy="225.36391"
       cx="-69.481239"
       id="path16797-6-63-0"
       style="opacity:1;fill:#1b63c6;fill-opacity:1;stroke:#000000;stroke-width:0.99999988;stroke-miterlimit:4;stroke-dasharray:none;stroke-dashoffset:4.57999992;stroke-opacity:1" />
    <ellipse
       transform="matrix(-0.99934626,0.03615327,0.03615327,0.99934626,0,0)"
       ry="5.5404639"
       rx="4.7488642"
       cy="221.4649"
       cx="-59.353378"
       id="path16793-1-82-2"
       style="opacity:1;fill:#1b63c6;fill-opacity:1;stroke:#000000;stroke-width:0.99999988;stroke-miterlimit:4;stroke-dasharray:none;stroke-dashoffset:4.57999992;stroke-opacity:1" />
    <ellipse
       transform="matrix(-0.99934626,0.03615327,0.03615327,0.99934626,0,0)"
       ry="4.9127264"
       rx="4.0938487"
       cy="220.56036"
       cx="-73.192993"
       id="path16795-51-53-5"
       style="opacity:1;fill:#1b63c6;fill-opacity:1;stroke:#000000;stroke-width:0.99999988;stroke-miterlimit:4;stroke-dasharray:none;stroke-dashoffset:4.57999992;stroke-opacity:1" />
    <ellipse
       transform="rotate(2.0718813)"
       ry="4.0939388"
       rx="3.5752945"
       cy="214.88524"
       cx="79.380447"
       id="path16797-6-6-4"
       style="opacity:1;fill:#1b63c6;fill-opacity:1;stroke:#000000;stroke-width:0.99999988;stroke-miterlimit:4;stroke-dasharray:none;stroke-dashoffset:4.57999992;stroke-opacity:1" />
    <ellipse
       transform="rotate(2.0718813)"
       ry="4.0939388"
       rx="3.5752945"
       cy="211.55182"
       cx="83.734016"
       id="path16797-6-0"
       style="opacity:1;fill:#1b63c6;fill-opacity:1;stroke:#000000;stroke-width:0.99999988;stroke-miterlimit:4;stroke-dasharray:none;stroke-dashoffset:4.57999992;stroke-opacity:1" />
    <ellipse
       transform="rotate(2.0718813)"
       ry="4.9127264"
       rx="5.0217876"
       cy="210.254"
       cx="89.385582"
       id="path16795-51-1-8"
       style="opacity:1;fill:#1b63c6;fill-opacity:1;stroke:#000000;stroke-width:0.99999988;stroke-miterlimit:4;stroke-dasharray:none;stroke-dashoffset:4.57999992;stroke-opacity:1" />
    <ellipse
       transform="rotate(2.0718813)"
       ry="4.9127264"
       rx="5.0217876"
       cy="209.37674"
       cx="72.334839"
       id="path16795-6-1"
       style="opacity:1;fill:#1b63c6;fill-opacity:1;stroke:#000000;stroke-width:0.99999988;stroke-miterlimit:4;stroke-dasharray:none;stroke-dashoffset:4.57999992;stroke-opacity:1" />
    <ellipse
       transform="matrix(-0.99934626,0.03615327,0.03615385,0.99934624,0,0)"
       ry="5.3494134"
       rx="4.6942797"
       cy="211.09953"
       cx="-62.942989"
       id="path16799-1-4"
       style="opacity:1;fill:#1b63c6;fill-opacity:1;stroke:#000000;stroke-width:0.99999988;stroke-miterlimit:4;stroke-dasharray:none;stroke-dashoffset:4.57999992;stroke-opacity:1" />
    <ellipse
       transform="rotate(2.0718813)"
       ry="4.9127264"
       rx="4.3121872"
       cy="203.98598"
       cx="83.249496"
       id="path16795-51-8-3"
       style="opacity:1;fill:#1b63c6;fill-opacity:1;stroke:#000000;stroke-width:0.99999988;stroke-miterlimit:4;stroke-dasharray:none;stroke-dashoffset:4.57999992;stroke-opacity:1" />
    <ellipse
       transform="rotate(2.0718813)"
       ry="4.9127264"
       rx="5.0217876"
       cy="204.0396"
       cx="92.663597"
       id="path16795-59-9"
       style="opacity:1;fill:#1b63c6;fill-opacity:1;stroke:#000000;stroke-width:0.99999988;stroke-miterlimit:4;stroke-dasharray:none;stroke-dashoffset:4.57999992;stroke-opacity:1" />
    <ellipse
       transform="rotate(2.0718813)"
       ry="4.9673119"
       rx="4.2303104"
       cy="203.83934"
       cx="69.015343"
       id="path16795-51-9-5"
       style="opacity:1;fill:#1b63c6;fill-opacity:1;stroke:#000000;stroke-width:0.99999988;stroke-miterlimit:4;stroke-dasharray:none;stroke-dashoffset:4.57999992;stroke-opacity:1" />
    <ellipse
       transform="matrix(-0.99934626,0.03615327,0.03615385,0.99934624,0,0)"
       ry="4.9127264"
       rx="5.0217876"
       cy="206.38911"
       cx="-72.330795"
       id="path16795-7-8"
       style="opacity:1;fill:#1b63c6;fill-opacity:1;stroke:#000000;stroke-width:0.99999988;stroke-miterlimit:4;stroke-dasharray:none;stroke-dashoffset:4.57999992;stroke-opacity:1" />
    <ellipse
       transform="matrix(-0.99934626,0.03615327,0.03615385,0.99934624,0,0)"
       ry="4.0939388"
       rx="3.2750788"
       cy="204.02319"
       cx="-51.050541"
       id="path16797-8-7"
       style="opacity:1;fill:#1b63c6;fill-opacity:1;stroke:#000000;stroke-width:0.99999988;stroke-miterlimit:4;stroke-dasharray:none;stroke-dashoffset:4.57999992;stroke-opacity:1" />
    <ellipse
       transform="matrix(-0.99934626,0.03615327,0.03615385,0.99934624,0,0)"
       ry="4.421454"
       rx="4.121141"
       cy="205.24281"
       cx="-58.384422"
       id="path16795-51-2-7"
       style="opacity:1;fill:#1b63c6;fill-opacity:1;stroke:#000000;stroke-width:0.99999988;stroke-miterlimit:4;stroke-dasharray:none;stroke-dashoffset:4.57999992;stroke-opacity:1" />
    <ellipse
       transform="matrix(-0.99934626,0.03615327,0.03615385,0.99934624,0,0)"
       ry="4.0939388"
       rx="3.2750788"
       cy="200.05716"
       cx="-71.348274"
       id="path16797-11"
       style="opacity:1;fill:#1b63c6;fill-opacity:1;stroke:#000000;stroke-width:0.99999988;stroke-miterlimit:4;stroke-dasharray:none;stroke-dashoffset:4.57999992;stroke-opacity:1" />
    <ellipse
       transform="matrix(-0.99934626,0.03615327,0.03615385,0.99934624,0,0)"
       ry="4.9127264"
       rx="5.0217876"
       cy="202.95021"
       cx="-82.428955"
       id="path16795-51-5-1"
       style="opacity:1;fill:#1b63c6;fill-opacity:1;stroke:#000000;stroke-width:0.99999988;stroke-miterlimit:4;stroke-dasharray:none;stroke-dashoffset:4.57999992;stroke-opacity:1" />
    <ellipse
       transform="matrix(-0.99934626,0.03615327,0.03615385,0.99934624,0,0)"
       ry="4.9127264"
       rx="5.0217876"
       cy="199.87306"
       cx="-78.016968"
       id="path16795-51-89-7"
       style="opacity:1;fill:#1b63c6;fill-opacity:1;stroke:#000000;stroke-width:0.99999988;stroke-miterlimit:4;stroke-dasharray:none;stroke-dashoffset:4.57999992;stroke-opacity:1" />
    <ellipse
       transform="matrix(-0.99934626,0.03615327,0.03615385,0.99934624,0,0)"
       ry="6.0044436"
       rx="5.2947106"
       cy="200.43925"
       cx="-64.252274"
       id="path16793-1-6-6"
       style="opacity:1;fill:#1b63c6;fill-opacity:1;stroke:#000000;stroke-width:0.99999988;stroke-miterlimit:4;stroke-dasharray:none;stroke-dashoffset:4.57999992;stroke-opacity:1" />
    <ellipse
       transform="matrix(-0.99934626,0.03615327,0.03615385,0.99934624,0,0)"
       ry="4.9127264"
       rx="5.0217876"
       cy="196.89117"
       cx="-48.313553"
       id="path16795-51-88-3"
       style="opacity:1;fill:#1b63c6;fill-opacity:1;stroke:#000000;stroke-width:0.99999988;stroke-miterlimit:4;stroke-dasharray:none;stroke-dashoffset:4.57999992;stroke-opacity:1" />
    <ellipse
       transform="matrix(-0.99934626,0.03615327,0.03615385,0.99934624,0,0)"
       ry="5.3494134"
       rx="4.6942797"
       cy="198.40634"
       cx="-54.858219"
       id="path16799-1"
       style="opacity:1;fill:#1b63c6;fill-opacity:1;stroke:#000000;stroke-width:0.99999988;stroke-miterlimit:4;stroke-dasharray:none;stroke-dashoffset:4.57999992;stroke-opacity:1" />
    <ellipse
       transform="matrix(-0.99934626,0.03615327,0.03615385,0.99934624,0,0)"
       ry="6.0044436"
       rx="5.2947106"
       cy="197.00035"
       cx="-87.396164"
       id="path16793-1-8-7"
       style="opacity:1;fill:#1b63c6;fill-opacity:1;stroke:#000000;stroke-width:0.99999988;stroke-miterlimit:4;stroke-dasharray:none;stroke-dashoffset:4.57999992;stroke-opacity:1" />
    <ellipse
       transform="matrix(-0.99934626,0.03615327,0.03615385,0.99934624,0,0)"
       ry="4.9127264"
       rx="5.0217876"
       cy="192.68806"
       cx="-74.405014"
       id="path16795-51-7-1"
       style="opacity:1;fill:#1b63c6;fill-opacity:1;stroke:#000000;stroke-width:0.99999988;stroke-miterlimit:4;stroke-dasharray:none;stroke-dashoffset:4.57999992;stroke-opacity:1" />
    <ellipse
       transform="matrix(-0.99934626,0.03615327,0.03615385,0.99934624,0,0)"
       ry="4.9127264"
       rx="5.0217876"
       cy="194.98067"
       cx="-83.138557"
       id="path16795-51-6"
       style="opacity:1;fill:#1b63c6;fill-opacity:1;stroke:#000000;stroke-width:0.99999988;stroke-miterlimit:4;stroke-dasharray:none;stroke-dashoffset:4.57999992;stroke-opacity:1" />
    <ellipse
       transform="matrix(-0.99934626,0.03615327,0.03615385,0.99934624,0,0)"
       ry="4.0939388"
       rx="3.2750788"
       cy="193.83437"
       cx="-59.830914"
       id="path16797-1-3"
       style="opacity:1;fill:#1b63c6;fill-opacity:1;stroke:#000000;stroke-width:0.99999988;stroke-miterlimit:4;stroke-dasharray:none;stroke-dashoffset:4.57999992;stroke-opacity:1" />
    <ellipse
       transform="matrix(-0.99934626,0.03615327,0.03615385,0.99934624,0,0)"
       ry="4.9127264"
       rx="5.0217876"
       cy="192.52431"
       cx="-67.090675"
       id="path16795-3"
       style="opacity:1;fill:#1b63c6;fill-opacity:1;stroke:#000000;stroke-width:0.99999988;stroke-miterlimit:4;stroke-dasharray:none;stroke-dashoffset:4.57999992;stroke-opacity:1" />
    <ellipse
       transform="matrix(-0.99934626,0.03615327,0.03615385,0.99934624,0,0)"
       ry="4.9127264"
       rx="5.0217876"
       cy="190.55922"
       cx="-53.335342"
       id="path16795-51-3-4"
       style="opacity:1;fill:#1b63c6;fill-opacity:1;stroke:#000000;stroke-width:0.99999988;stroke-miterlimit:4;stroke-dasharray:none;stroke-dashoffset:4.57999992;stroke-opacity:1" />
    <ellipse
       transform="matrix(-0.99934626,0.03615327,0.03615385,0.99934624,0,0)"
       ry="4.9127264"
       rx="5.0217876"
       cy="188.59413"
       cx="-45.420567"
       id="path16795-5-4"
       style="opacity:1;fill:#1b63c6;fill-opacity:1;stroke:#000000;stroke-width:0.99999988;stroke-miterlimit:4;stroke-dasharray:none;stroke-dashoffset:4.57999992;stroke-opacity:1" />
    <ellipse
       transform="matrix(-0.97531446,0.22082051,0.22211952,0.97501945,0,0)"
       ry="5.6763878"
       rx="5.0225363"
       cy="200.1503"
       cx="-50.406143"
       id="path16793-1-9-8"
       style="opacity:1;fill:#1b63c6;fill-opacity:1;stroke:#000000;stroke-width:1.00000048;stroke-miterlimit:4;stroke-dasharray:none;stroke-dashoffset:4.57999992;stroke-opacity:1" />
    <ellipse
       transform="matrix(-0.99934626,0.03615327,0.03615385,0.99934624,0,0)"
       ry="6.0044436"
       rx="5.2947106"
       cy="185.97401"
       cx="-78.662621"
       id="path16793-2"
       style="opacity:1;fill:#1b63c6;fill-opacity:1;stroke:#000000;stroke-width:0.99999988;stroke-miterlimit:4;stroke-dasharray:none;stroke-dashoffset:4.57999992;stroke-opacity:1" />
    <ellipse
       transform="matrix(-0.99220547,0.12461261,0.13500463,0.99084497,0,0)"
       ry="5.6795712"
       rx="5.2922401"
       cy="190.70869"
       cx="-50.1035"
       id="path16793-8-3"
       style="opacity:1;fill:#1b63c6;fill-opacity:1;stroke:#000000;stroke-width:1.00002742;stroke-miterlimit:4;stroke-dasharray:none;stroke-dashoffset:4.57999992;stroke-opacity:1" />
    <ellipse
       transform="matrix(-0.99934626,0.03615327,0.03615385,0.99934624,0,0)"
       ry="6.0044436"
       rx="5.2947106"
       cy="185.42267"
       cx="-60.271469"
       id="path16793-1-1"
       style="opacity:1;fill:#1b63c6;fill-opacity:1;stroke:#000000;stroke-width:0.99999988;stroke-miterlimit:4;stroke-dasharray:none;stroke-dashoffset:4.57999992;stroke-opacity:1" />
    <ellipse
       transform="matrix(-0.98439346,-0.17598159,-0.21362227,0.97691633,0,0)"
       ry="5.5374002"
       rx="5.2726731"
       cy="169.9124"
       cx="-95.029495"
       id="path16793-4-4"
       style="opacity:1;fill:#1b63c6;fill-opacity:1;stroke:#000000;stroke-width:1.00036836;stroke-miterlimit:4;stroke-dasharray:none;stroke-dashoffset:4.57999992;stroke-opacity:1" />
  </g>
  <path
     id="path48773-7-5-8"
     style="opacity:1;fill:#009645;fill-opacity:1;stroke:#000000;stroke-width:1;stroke-miterlimit:4;stroke-dasharray:none;stroke-dashoffset:4.57999992;stroke-opacity:1"
     d="m 73.451533,146.69971 c 3.90485,-21.21489 12.68891,-43.54697 57.528847,-66.740144 14.26219,-7.377026 35.59571,-18.820289 46.04297,-34.294311 l 6.97858,4.524429 c -12.18735,15.118209 -24.62342,22.211536 -51.18122,36.852671 2.80064,4.962954 0.71033,7.458083 -2.133,9.265271 -3.1104,1.97694 -3.45227,3.889654 -3.4375,6.000004 0.037,5.28498 3.9694,6.99294 7.73863,6.84532 3.90513,-0.15294 5.50559,-2.13453 5.375,-4.3125 -0.14095,-2.35083 -2.20354,-3.90666 -4.125,-3.4375 -1.45764,0.35591 -1.54115,1.92824 -1.375,3.75 -3.59637,-2.61571 -1.94259,-7.646904 3.3125,-7.562504 3.96868,0.06374 6.53584,4.850604 6.5,8.312504 -0.0479,4.62824 -2.92956,8.58103 -9.8125,8.75 -5.32699,0.13077 -12.89345,-3.95914 -13,-12.75 -0.0762,-6.283514 2.81496,-6.752861 5.31943,-9.287917 1.02248,-1.034962 0.91602,-1.451183 0.40619,-2.572134 -0.67263,0.380338 -1.3546,0.763944 -2.04411,1.149793 -16.32473,9.491408 -33.897613,21.938558 -41.90341,38.371538 5.80135,5.07591 4.83082,10.58097 3.03109,14.78326 -3.40614,7.95318 -19.585306,5.97891 -32.619547,5.96692 -1.422671,-0.0145 -1.474413,2.08603 0.159298,2.30078 4.793206,0.82444 6.949479,0.93038 8.637221,3.0312 1.350325,1.68083 0.820082,1.58399 2.511675,4.79195 -0.910764,0.11549 -1.81173,0.26772 -2.793499,0.11738 2.046136,3.16273 -0.07933,5.54254 -0.40171,8.26076 -3.548199,-0.16018 -5.996327,-1.35349 -7.839548,-3.11492 -0.469922,0.51773 -0.903828,1.08483 -1.316737,1.68069 -4.48118,-1.86314 -3.795912,-5.24694 -4.280068,-8.29792 -0.385017,-2.4264 -3.000417,-1.52319 -2.833719,-0.13503 0.565756,4.71105 -1.193425,8.19809 -6.369954,9.81427 -0.120631,-0.44988 -0.146396,-0.82397 -0.705257,-1.62399 -4.991102,1.10783 -9.80099,-0.22204 -14.606967,-1.60443 1.23046,-2.12397 0.962072,-4.66562 4.966637,-6.01653 -0.50718,-0.41477 -1.02948,-0.78459 -1.479363,-1.36961 2.322982,-1.73659 4.615702,-2.08449 6.893776,-2.25789 3.503423,-0.2667 2.318294,-3.98298 -1.085586,-2.53968 -4.623524,1.96044 -10.008624,1.38584 -15.927999,-1.77056 0.724349,-0.44046 1.590084,-0.64515 2.438723,-1.85287 -4.879946,-0.40391 -7.953294,-3.3007 -10.0336627,-7.56816 1.5323647,-1.53105 9.1648227,-3.0246 12.3020997,-3.26357 -0.05655,-0.8915 -0.638535,-1.44158 -0.84632,-1.94877 4.769759,-1.46376 9.089221,2.17247 13.40573,4.42976 1.365193,0.71392 3.801093,-0.36957 0.951095,-1.52418 -3.065677,-1.242 -4.393361,-3.4325 -5.32984,-5.92262 0.901843,-0.13796 1.763002,-0.15506 2.604413,-0.1135 -2.657919,-3.73332 -1.920566,-6.83741 1.783777,-9.39168 2.236049,1.89036 4.490696,2.07343 6.427542,3.32896 1.45771,0.94494 2.497159,2.2564 3.248281,3.81462 l 2.08304,-1.35397 c 1.944749,3.12859 2.967737,6.01476 1.004964,8.54448 -1.707197,2.20034 3.284016,3.27514 3.289792,0.82568 0.0071,-3.01708 0.604273,-5.85522 1.440412,-8.18543 0.701981,0.45852 1.348863,0.80069 1.98,0.90495 0.966356,-2.02232 3.640615,-3.15709 6.096566,-4.07363 2.373231,2.89401 3.295003,5.84705 1.698155,8.90254 0.782512,-0.0933 1.55688,-0.16258 2.299353,-0.13696 -1.640657,6.16161 -5.849569,5.75095 -10.465049,8.18466 -1.224744,0.5724 -1.02457,2.00899 0.124179,1.98313 9.035745,-0.18586 20.422837,0.98625 25.923237,-2.13822 3.21383,-1.8256 5.48596,-7.26308 1.78192,-11.27105 -1.40543,3.48636 -2.59522,7.63491 -3.54188,12.11317"
     inkscape:connector-curvature="0"
     sodipodi:nodetypes="cscccssssscscssscccsccccccccccccccccsccccccccccccccccccccccscc" />
  <path
     style="opacity:1;fill:#cc2918;fill-opacity:1;stroke:#000000;stroke-width:1;stroke-miterlimit:8;stroke-dasharray:none;stroke-dashoffset:4.57999992;stroke-opacity:1"
     d="m 61.800058,92.46786 -19.949214,0.0044 -6.160383,-18.967794 -6.160386,18.967788 -19.949221,-0.0044 16.141899,11.718256 -6.168915,18.96502 16.136623,-11.7255 16.136624,11.7255 -6.168914,-18.96502 z"
     id="path12002-1"
     inkscape:connector-curvature="0" />
  <path
     style="opacity:1;fill:#cc2918;fill-opacity:1;stroke:#000000;stroke-width:0.99999994;stroke-miterlimit:8;stroke-dasharray:none;stroke-dashoffset:4.57999992;stroke-opacity:1"
     d="m 147.06042,92.467866 19.94922,0.0045 6.16038,-18.967795 6.16038,18.967786 19.94923,-0.0045 -16.1419,11.718263 6.16891,18.96501 -16.13662,-11.7255 -16.13663,11.7255 6.16892,-18.96501 z"
     id="path12002-1-8"
     inkscape:connector-curvature="0" />
  <path
     id="path48792"
     style="opacity:1;fill:#009645;fill-opacity:1;stroke:#000000;stroke-width:1;stroke-miterlimit:6;stroke-dasharray:none;stroke-dashoffset:4.57999992;stroke-opacity:1"
     d="m 13.815075,49.481512 c 6.76546,8.045411 20.280213,-3.517795 26.058066,-9.12864 1.501828,-1.458418 1.913566,0.986721 0.589876,2.735513 -1.497584,1.978532 -1.098429,3.858863 -0.408341,5.491074 1.155729,2.733557 3.232765,3.918572 5.206255,4.963401 -0.0076,-1.118821 -0.431255,-2.145203 0.541476,-3.481885 1.848739,1.812006 1.783169,2.5983 5.38913,1.432191 -2.208702,-1.690028 -3.137922,-5.116608 -3.786439,-7.683996 -0.621743,-2.461412 2.336309,-4.235885 2.699356,-0.347348 0.409695,4.387991 1.938076,7.780634 5.854144,6.29749 3.726702,-1.461356 7.082218,-3.153233 8.305558,-6.169245 -1.490279,0.03499 -2.458116,-0.767648 -3.340291,-1.249476 4.681385,-1.272003 7.614669,-5.451449 9.846251,-10.151039 -2.103579,0.971102 -4.181056,2.174561 -6.275664,1.517127 -1.969264,-0.618077 -4.049749,-0.587936 -6.184562,0.778338 -4.180375,2.67547 -4.126671,-3.585572 1.087273,-3.580623 5.680536,0.0054 6.405361,1.898645 8.589827,-0.886224 1.519044,-1.936569 4.229114,-4.378767 4.200229,-8.038469 -1.059932,0.05159 -2.027331,0.508603 -3.005808,0.917104 1.934128,-3.078872 3.985426,-6.118216 5.304384,-9.404596 -3.673985,-1.487573 -7.210271,-2.726015 -10.189626,-0.08946 0.373792,-1.047653 0.871537,-1.977748 1.797608,-2.926335 -3.440386,-0.02737 -7.368951,-2.1438533 -10.055421,2.565077 -2.003693,3.512171 -0.951907,5.886125 -1.847271,8.568453 -1.55161,4.648258 -6.450723,0.624011 -3.588693,-2.585605 1.498959,-1.680981 2.474695,-3.340076 2.98474,-5.12807 C 54.387916,11.08909 53.38266,8.557213 54.73483,6.8740374 46.076712,8.6986905 40.149117,9.1270241 40.310356,19.82095 l -1.456317,-0.85458 c -1.783457,4.002726 0.175822,6.204733 1.466841,8.731507 0.708739,1.387256 -2.741852,4.067079 -2.343511,0.749874 0.148874,-1.239689 -0.284942,-1.871668 -0.852523,-2.725654 -0.890905,-1.340499 -3.149246,-2.881713 -3.670896,-5.115532 -2.00115,1.89139 -3.001438,6.317825 -1.578984,9.660613 -0.673992,-0.232537 -1.323634,-0.419362 -1.682368,-0.517571 -0.41094,5.470075 1.61059,6.140165 5.597412,6.286498 0.977362,0.03588 2.279078,1.012642 1.313388,2.076359 -3.050431,3.360083 -7.916836,7.745938 -13.148251,9.090176 -3.385336,0.869879 -5.869018,0.79319 -7.725478,-2.256123 -1.771384,-2.909572 -0.663889,-5.159376 0.987249,-7.032071 1.644129,3.243541 3.46166,6.361968 5.663246,9.536234 2.914114,-0.528859 6.678146,-2.75304 8.28446,-3.973562 -5.990736,-9.296087 -10.436535,-19.663062 -12.44622,-30.946372 -3.706917,1.317825 -7.203981,3.705507 -9.338834,6.562184 1.680174,4.517828 3.270523,8.745447 5.048061,12.853979 -4.204019,4.343672 -6.522313,10.506784 -0.612556,17.534603 z"
     inkscape:connector-curvature="0"
     sodipodi:nodetypes="sssscccccccccccsccccccccccccccccccccsssccccccs" />
  <path
     id="path48792-0"
     style="opacity:1;fill:#009645;fill-opacity:1;stroke:#000000;stroke-width:1;stroke-miterlimit:4;stroke-dasharray:none;stroke-dashoffset:4.57999992;stroke-opacity:1"
     d="m 195.04541,49.481512 c -6.76546,8.045411 -20.0548,-3.242826 -25.50406,-9.173318 -1.41642,-1.541503 -1.96661,0.876249 -0.74456,2.697521 1.38259,2.060533 0.8771,3.915108 0.0953,5.505412 -1.30938,2.663372 -3.45048,3.728293 -5.48022,4.659147 l -0.58939,-2.281678 c -1.94884,1.703885 -2.64048,1.788051 -5.21499,-0.102123 2.30128,-1.561624 4.37591,-3.768888 5.16945,-6.295219 0.76078,-2.422051 -2.09152,-4.36195 -2.67522,-0.500368 -0.65869,4.357573 -3.32958,6.496865 -7.15492,4.793316 -3.63752,-1.671022 -6.89134,-3.551073 -7.9411,-6.631803 0.68161,0.250952 1.44609,0.252538 2.35425,-0.178318 -4.60143,-1.536293 -6.24045,-6.754946 -8.20103,-11.573891 2.04492,1.089214 4.05056,2.408923 6.17918,1.871728 2.00124,-0.505033 4.16867,-1.24511 6.46615,-0.174726 4.49892,2.096058 3.61345,-4.102288 -1.55357,-3.404326 -5.62941,0.760419 -6.16712,2.602452 -8.1896,-0.302192 -1.4064,-2.01986 -3.97313,-4.612293 -3.73607,-8.264423 1.05528,0.111812 1.99511,0.623125 2.94876,1.086636 -1.75582,-3.183928 -3.63087,-6.335059 -4.76071,-9.691159 3.75267,-1.276129 7.35369,-2.311365 10.17821,0.490434 -0.31358,-1.067223 -0.7576,-2.024131 -1.6282,-3.023871 3.43637,0.168414 7.47899,-1.7211186 9.89319,3.133033 1.80062,3.620483 0.61547,5.930749 1.35677,8.659675 1.28463,4.729008 6.40477,0.990019 3.72999,-2.377235 -1.40089,-1.763543 -2.28065,-3.475466 -2.68814,-5.289583 -0.63977,-2.848195 -1.87702,-4.556968 -3.22919,-6.2401436 3.11881,-0.4333437 8.85413,1.6784256 10.53943,6.4774096 0.1689,-0.977074 0.0699,-2.289089 -0.0915,-3.678983 3.24708,3.024196 6.10404,6.148767 5.69944,10.112192 l 1.50258,-0.770338 c 1.55283,4.097714 -0.52856,6.184679 -1.96125,8.633906 -0.78652,1.344685 2.50601,4.216491 2.29705,0.881996 -0.0781,-1.246152 0.39097,-1.852425 1.00622,-2.672734 0.96573,-1.287639 1.76726,-3.017102 2.28891,-5.250921 2.00115,1.89139 4.30421,6.830894 2.69387,10.087335 0.68613,-0.193813 1.34535,-0.343373 1.70909,-0.421013 0.0991,5.484595 -1.95733,6.038583 -5.94602,5.957846 -0.97782,-0.01979 -2.333,0.881332 -1.4294,1.998269 2.85432,3.528197 7.23985,7.6294 12.47126,8.973638 3.38534,0.869879 5.11654,0.200245 6.92998,-2.874841 1.06429,-1.804718 1.15003,-3.568386 -0.50111,-5.441081 -1.64413,3.243541 -3.1523,5.389696 -5.35388,8.563962 -2.91412,-0.528859 -6.17815,-2.37804 -7.78446,-3.598562 5.99073,-9.296087 10.43653,-19.663062 12.44622,-30.946372 3.70691,1.317825 6.70398,3.330507 8.83883,6.187184 -1.68017,4.517828 -3.27052,8.745447 -5.04806,12.853979 5.47018,6.550934 4.48607,12.700398 0.61252,17.534603 z"
     inkscape:connector-curvature="0"
     sodipodi:nodetypes="cssscccccccccccsccccccccccccccccccccccsssccccccc" />
</svg>
