<?xml version="1.0" encoding="UTF-8"?>
<svg version="1.0" viewBox="0 0 208.86 244.66" xmlns="http://www.w3.org/2000/svg" xmlns:cc="http://creativecommons.org/ns#" xmlns:dc="http://purl.org/dc/elements/1.1/" xmlns:rdf="http://www.w3.org/1999/02/22-rdf-syntax-ns#">
<metadata>
<rdf:RDF>
<cc:Work rdf:about="">
<dc:format>image/svg+xml</dc:format>
<dc:type rdf:resource="http://purl.org/dc/dcmitype/StillImage"/>
<dc:title/>
</cc:Work>
</rdf:RDF>
</metadata>
<path d="m204.1 159 3.7611-158h-206.86l3.7611 158c1.6414 68.954 2.8823 67.306 99.669 84.644 96.787-17.339 98.028-15.69 99.669-84.644z" fill="#cc2918" fill-rule="evenodd" stroke="#000" stroke-width="2"/>
<g transform="matrix(1.2134 0 0 1.2134 -597.34 246.65)" fill="#fff" stroke="#000" stroke-dashoffset="4.58" stroke-width=".82415">
<path d="m562.12-58.156c5.201-2.2958 10.482-6.0738 10.482-14.192 0-7.892-11.244-13.764-19.055-7.1979-8.13 6.8343-11.27 17.119-10.96 29.698 0.94759 7.6735 2.2062 18.761 12.259 19.767 6.0271 0.60286 12.873-5.4263 6.3908-12.254-1.5166 5.9258-7.9651 5.2167-10.253 2.0329-6.7325-9.3686-3.101-19.992 0.7955-25.279 5.6079-7.6089 14.762-0.83065 10.341 7.4246z"/>
<path d="m520.4-58.156c-5.201-2.2958-10.482-6.0738-10.482-14.192 0-7.892 11.244-13.764 19.055-7.1979 8.13 6.8343 11.27 17.119 10.96 29.698-0.94759 7.6735-2.2062 18.761-12.259 19.767-6.0271 0.60286-12.873-5.4263-6.3908-12.254 1.5166 5.9258 7.9651 5.2167 10.253 2.0329 6.7325-9.3686 3.101-19.992-0.7955-25.279-5.6079-7.6089-14.762-0.83065-10.341 7.4246z"/>
<path d="m546.82-29.341c-1.2731-6.9482-3.3449-14.088-3.2704-20.594-2.1311-10.515 2.6561-21.422 5.922-32.439 2.0099-6.7798-2.6924-12.994-8.2201-16.794-5.5277 3.7998-10.23 10.014-8.2201 16.794 3.2659 11.016 8.0531 21.924 5.922 32.439 0.0745 6.5065-1.9973 13.646-3.2704 20.594-0.71704 3.9134 2.9259 8.5007 5.5685 11.137 2.6426-2.6362 6.2855-7.2235 5.5685-11.137z"/>
<path d="m534.56-55.286c-1.5763 0-2.6548 1.5758-2.6273 3.6359 0 1.9991 1.1087 3.6359 2.6273 3.6359l13.388-4e-6c1.5186 0 2.6273-1.6369 2.6273-3.6359 0.0275-2.0602-1.051-3.6359-2.6273-3.6359l-6.6941 2e-6z"/>
</g>
<path d="m3.7968 118.49h201.27l2.7967-117.49-206.86 3.22e-5z" fill="#1b63c6" stroke="#000" stroke-dashoffset="4.58" stroke-miterlimit="8"/>
<path d="m156.74 224.56v-40.992h31.126v-11.883h-31.126v-16.43h17.702v-11.883h-17.702v-17.054h-11.891v17.054h-17.702v11.883h17.702v16.43h-31.126v11.883h31.126v40.992z" fill="#fff" stroke="#000" stroke-dashoffset="4.58" stroke-miterlimit="8"/>
<path d="m204.1 159 3.7611-158h-206.86l3.7611 158c1.6414 68.954 2.8823 67.306 99.669 84.644 96.787-17.339 98.028-15.69 99.669-84.644z" fill="none" stroke="#000" stroke-width="2"/>
<path d="m136.01 29.426-24.336 5.6826-7.2468-23.917-7.2468 23.917-24.336-5.6826 17.089 18.234-17.089 18.234 24.336-5.6826 7.2468 23.917 7.2468-23.917 24.336 5.6826-17.089-18.234z" fill="#fff" stroke="#000" stroke-dashoffset="4.58" stroke-miterlimit="8"/>
<path d="m200.01 53.426-24.336 5.6826-7.2468-23.917-7.2468 23.917-24.336-5.6826 17.089 18.234-17.089 18.234 24.336-5.6826 7.2468 23.917 7.2468-23.917 24.336 5.6826-17.089-18.234z" fill="#fff" stroke="#000" stroke-dashoffset="4.58" stroke-miterlimit="8"/>
<path d="m72.013 53.426-24.336 5.6826-7.2468-23.917-7.2468 23.917-24.336-5.6826 17.089 18.234-17.089 18.234 24.336-5.6826 7.2468 23.917 7.2468-23.917 24.336 5.6826-17.089-18.234z" fill="#fff" stroke="#000" stroke-dashoffset="4.58" stroke-miterlimit="8"/>
</svg>
