<?xml version="1.0" encoding="UTF-8"?>
<svg sodipodi:docbase="C:\Documents and Settings\Chris Nendick\My Documents\My Pictures\Inkscape work\Blazons" sodipodi:docname="Varen-coat_of_arms.svg" sodipodi:version="0.32" version="1.0" viewBox="0 0 603 763" xmlns="http://www.w3.org/2000/svg" xmlns:cc="http://web.resource.org/cc/" xmlns:dc="http://purl.org/dc/elements/1.1/" xmlns:rdf="http://www.w3.org/1999/02/22-rdf-syntax-ns#" xmlns:sodipodi="http://inkscape.sourceforge.net/DTD/sodipodi-0.dtd" xmlns:xlink="http://www.w3.org/1999/xlink">
<metadata>
<rdf:RDF>
<cc:Work rdf:about="">
<dc:format>image/svg+xml</dc:format>
<dc:type rdf:resource="http://purl.org/dc/dcmitype/StillImage"/>
<dc:date>07-AUG-2006</dc:date>
<dc:creator>
<cc:Agent>
<dc:title>Jérôme BLUM (wagner51)</dc:title>
</cc:Agent>
</dc:creator>
<cc:license rdf:resource="http://creativecommons.org/licenses/GPL/2.0/"/>
<dc:coverage/>
<dc:description>Gabarit pour le Projet:Blasons de WIkipédia</dc:description>
<dc:subject>
<rdf:Bag>
<rdf:li>blason suisse modèle gabarit projet blasons</rdf:li>
</rdf:Bag>
</dc:subject>
<dc:language>fr</dc:language>
<dc:title>Gabrit d'un blason suisse</dc:title>
</cc:Work>
<cc:License rdf:about="http://creativecommons.org/licenses/GPL/2.0/">
<cc:permits rdf:resource="http://web.resource.org/cc/Reproduction"/>
<cc:permits rdf:resource="http://web.resource.org/cc/Distribution"/>
<cc:requires rdf:resource="http://web.resource.org/cc/Notice"/>
<cc:permits rdf:resource="http://web.resource.org/cc/DerivativeWorks"/>
<cc:requires rdf:resource="http://web.resource.org/cc/ShareAlike"/>
<cc:requires rdf:resource="http://web.resource.org/cc/SourceCode"/>
</cc:License>
</rdf:RDF>
</metadata>
<defs>
<radialGradient id="a" cx="858.04" cy="579.93" r="300" gradientTransform="matrix(1.215 1.5316e-24 1.4647e-23 1.2667 -839.19 -490.49)" gradientUnits="userSpaceOnUse">
<stop stop-color="#fff" stop-opacity=".31373" offset="0"/>
<stop stop-color="#fff" stop-opacity=".25098" offset=".19"/>
<stop stop-color="#6b6b6b" stop-opacity=".12549" offset=".6"/>
<stop stop-opacity=".12549" offset="1"/>
</radialGradient>
</defs>
<sodipodi:namedview bordercolor="#666666" borderopacity="1.0" gridtolerance="10.0" guidetolerance="10.0" objecttolerance="10.0" pagecolor="#ffffff" showgrid="false" showguides="true"/>
<desc>Coat of Arms of Canton of Freiburg (Fribourg)</desc>
<g>
<path d="m1.5 1.5v458.87c0 166.31 134.31 301.13 300 301.13 165.69 0 300-134.82 300-301.13v-458.87h-600z" fill="#fcef3c"/>
<g stroke="#000" stroke-width="3">
<path d="m1.5 1.5v156.95h600v-156.95h-600z" fill="#2b5df2" sodipodi:nodetypes="ccccc"/>
<path transform="translate(443.23 -64.565)" d="m-146.58 83.985 15.639 44.991 47.622 0.97047-37.957 28.777 13.793 45.591-39.098-27.206-39.098 27.206 13.793-45.591-37.957-28.777 47.622-0.97047 15.639-44.991z" fill="#fff" stroke-linecap="square" stroke-linejoin="round" sodipodi:arg1="-1.5707963" sodipodi:arg2="-0.9424778" sodipodi:cx="-146.58083" sodipodi:cy="150.50154" sodipodi:r1="66.516701" sodipodi:r2="26.60668" sodipodi:sides="5" sodipodi:type="star"/>
<path transform="translate(228.6 -64.565)" d="m-146.58 83.985 15.639 44.991 47.622 0.97047-37.957 28.777 13.793 45.591-39.098-27.206-39.098 27.206 13.793-45.591-37.957-28.777 47.622-0.97047 15.639-44.991z" fill="#fff" stroke-linecap="square" stroke-linejoin="round" sodipodi:arg1="-1.5707963" sodipodi:arg2="-0.9424778" sodipodi:cx="-146.58083" sodipodi:cy="150.50154" sodipodi:r1="66.516701" sodipodi:r2="26.60668" sodipodi:sides="5" sodipodi:type="star"/>
<path transform="translate(657.87 -64.565)" d="m-146.58 83.985 15.639 44.991 47.622 0.97047-37.957 28.777 13.793 45.591-39.098-27.206-39.098 27.206 13.793-45.591-37.957-28.777 47.622-0.97047 15.639-44.991z" fill="#fff" stroke-linecap="square" stroke-linejoin="round" sodipodi:arg1="-1.5707963" sodipodi:arg2="-0.9424778" sodipodi:cx="-146.58083" sodipodi:cy="150.50154" sodipodi:r1="66.516701" sodipodi:r2="26.60668" sodipodi:sides="5" sodipodi:type="star"/>
</g>
<path d="m276.91 387.83c-3.3291 0-7.9838 2.3266-10.344 5.1702-3.076 3.7064-7.7156 4.7107-16.388 3.5475-8.101-1.0865-13.334-0.132-15.842 2.8895-4.2366 5.1049-21.483 5.9482-28.673 1.402-3.2699-2.0677-6.6038-1.3447-10.639 2.3072-4.8168 4.3591-7.5899 4.6719-15.373 1.7341-5.5698-2.1024-10.247-2.3694-11.312-0.6458-0.99887 1.6162-5.3239 2.9385-9.6112 2.9385-8.8336 0-19.381-13.315-16.499-20.827 1.0041-2.6167 0.43822-5.6149-1.2575-6.6629-4.1312-2.5533-3.9582-17.644 0.20223-17.644 1.897 0 2.428-3.4156 1.2565-8.0831-3.0041-11.969 6.1269-24.156 18.1-24.156 10.926 0 11.719-1.5626 4.4719-8.8098-3.5558-3.5558-4.5165-8.1749-3.1372-15.083 1.0935-5.4767 1.9111-14.564 1.8169-20.193-0.166-9.9154 10.554-22.218 16.277-18.68 1.2832 0.7931 4.126-0.7181 6.317-3.3583 2.1912-2.6401 2.8561-4.8003 1.4776-4.8003-1.3785 0 0.11951-2.9014 3.3288-6.4477 6.1244-6.7674 19.197-8.6766 22.526-3.2899 3.2469 5.2535 14.548-4.0051 14.548-11.919 0-4.1331 3.4395-9.4635 8.0597-12.491 4.4328-2.9045 8.0596-7.7254 8.0596-10.713 0-7.9264 6.5169-13.169 16.369-13.169 4.7476 0 10.438-2.1761 12.645-4.8358 5.8707-7.0738 21.716-6.1114 26.539 1.6119 2.2146 3.5463 7.1276 6.4478 10.918 6.4478 3.79 0 9.0839 3.2641 11.764 7.2537l4.8731 7.2536 7.0376-8.8656c10.16-12.798 27.083-11.462 32.414 2.559 1.7207 4.5259 6.5919 8.1578 12.758 9.512 11.472 2.5198 20.941 14.836 18.521 24.091-1.1407 4.362 0.3154 6.9554 4.6837 8.3418 9.7648 3.0993 18.868 20.154 15.494 29.028-2.2699 5.9704-1.3095 8.3362 5.0845 12.526 4.3356 2.8408 7.8829 8.0331 7.8829 11.538s1.4507 6.3734 3.2239 6.3734c11.842 0 21.059 26.009 12.316 34.753-2.9221 2.9221-2.7741 5.7269 0.6386 12.104 3.8411 7.1771 3.7436 9.6943-0.72071 18.602-2.8395 5.6662-5.9304 12.704-6.8685 15.64-0.9381 2.9358-6.1393 6.3116-11.558 7.5018-5.4188 1.1901-10.68 3.503-11.692 5.1398-2.8337 4.5849-10.109 3.5365-15.943-2.2975-3.9356-3.9357-6.2021-4.3446-8.9347-1.612-6.1427 6.1428-15.3 4.1244-24.916-5.4915-7.0101-7.0101-11.387-8.825-18.697-7.7522-7.0549 1.0354-10.774-0.3557-14.261-5.334-2.5944-3.704-5.6751-5.7767-6.8458-4.6059-2.7091 2.709-44.46 7.5018-50.092 7.5018z" fill="#5ab532" stroke="#000" stroke-width="5" sodipodi:nodetypes="csssssssssssssssssssssssssssscccsssssssssssssssssssss"/>
<path d="m320.03 385.69c1.4319-5.6734 3.6593-13.022 7.9806-15.708 3.9528-1.9412 7.7241-4.1913 11.667-6.1439 2.9209-1.4309 8.6262-1.7888 5.0142-8.245-2.7305-2.9102-8.8901-0.02075-12.347 2.5022-3.306 2.3602-8.7677 4.8564-11.863 2.1366-2.1453-3.9056-3.8957-9.2541-1.016-13.282 1.8125-4.1209 5.9005-6.27 8.7582-9.5117 2.4597-2.8875 8.1724-7.1451 5.84-9.3631-1.4123-0.89643-1.7594-1.7344-3.4493-2.117-3.3614-0.76108-14.44 1.2278-17.396 2.2907-4.0793 1.4666-2.0876 1.4674-6.4998 4.3168-3.5769 2.347-5.6444 10.439-11.116 6.8181-3.8029-4.5786-2.6177-11.3-5.7752-16.254-2.6005-5.0634-8.5677-3.8248-12.465-1.1366-8.4639 1.5073-6.1302 6.2808-3.372 10.114 2.2294 4.0296 6.9568 7.0675 5.7583 12.388 0.96165 5.0938-5.0004 7.6197-9.1403 5.9817-4.5822-1.5509-9.305-2.8214-13.665-4.9185-8.5937-2.8651-11.085-3.4278-11.355 1.6396 0.18494 4.0168-1.1906 9.1559 2.3874 12.075 5.6481 3.4134 12.562 3.3803 18.822 4.9761 5.0264 1.5628 11.059 4.8717 11.436 10.737 0.01333 4.9019-2.1721 11.28-2.4628 16.463s2.0315 14.236 2.0315 45.084c0 24.708-1.3923 48.586-3.094 53.062-3.4405 9.0493-24.572 21.297-36.745 21.297-4.3213 0-18.086-5.2618-30.588-11.693-14.728-7.5763-24.776-10.9-28.54-9.4413-5.5125 2.1364-5.4896 2.4867 0.44862 6.8569 5.7013 4.196 4.6978 4.6119-11.284 4.6764-20.353 0.0821-39.741 7.9805-51.392 20.937l-8.0597 8.9626 8.0597-2.3849c42.858-12.682 35.576-12.942 112.75 4.0326l11.202 2.4639-7.8898 5.5262c-5.0317 3.5243-14.053 5.5263-24.904 5.5263-9.3577 0-17.014 1.2731-17.014 2.8291 0 6.8336 11.375 11.384 27.803 11.123 13.866-0.2206 16.766 0.5754 14.044 3.8549-2.4745 2.9815-2.2699 4.523 0.7344 5.5335 7.3034 2.4566 15.546-1.3533 19.587-9.0538 4.4174-8.417 37.922-35.444 47.842-38.592 8.5453-2.7122 27.673 10.033 43.533 29.006 6.7318 8.0534 14.834 14.643 18.005 14.643 6.7367 0 7.0131-1.3157 2.1753-10.355-3.2866-6.141-2.9463-6.4831 4.0299-4.0511 11.052 3.853 37.977 3.0701 42.276-1.2293 2.762-2.7619 2.1594-4.7978-2.4088-8.1381-5.7154-4.1792-5.4368-4.5987 4.5047-6.7822 19.345-4.2489 32.08-2.4261 51.762 7.4092 10.717 5.3552 19.485 8.5865 19.485 7.1807s-6.3968-8.4523-14.215-15.659c-15.272-14.077-34.92-21.324-52.308-19.294-8.428 0.9839-9.8291 0.3805-7.0084-3.0182 6.4942-7.825-0.3367-8.3181-18.57-1.3405-9.9457 3.806-20.897 6.92-24.336 6.92-9.2127 0-43.619-18.179-45.962-24.284-2.699-7.0337-3.1324-101.69-1.7005-107.37z" color="#000000" fill="#844200" fill-rule="evenodd" stroke="#000" stroke-width="5" sodipodi:nodetypes="cccccccccsscccccccccccccsssssssccccccssssssssssssssssssssssc"/>
<g transform="translate(-723.22 -257.34)">
<path d="m889.59 804.53c-1.3391 0.29308-39.761 37.923-85.656 83.844l-15.219 15.219c54.924 70.175 140.23 115.25 236.03 115.25 95.803-1e-4 181.14-45.074 236.06-115.25l-13.406-13.406-81.969-82.031-8.2812 6.1562c-4.5543 3.3887-20.595 16.914-35.656 30.031l-27.375 23.844-26.781-28.438c-14.716-15.632-29.665-29.341-33.219-30.469-7.3823-2.3431-17.934 4.8709-53.625 36.531l-23.312 20.656-32.844-30.969c-17.209-16.234-32.22-29.652-34.5-30.875-0.03566-0.0184-0.09625-0.05072-0.125-0.0625-0.00675-0.00253-0.02493 0.00211-0.03125 0-0.01175-0.00338-0.05251-0.02955-0.0625-0.03125-0.00411 0-0.026-0.00115-0.03125 0z" fill="#5ab532"/>
<path d="m1260.8 903.59s-86.676-94.178-95.375-95.438c-7.6664-1.11-30.569 23.452-43.938 36.188-7.8136 7.4431-17.159 16.181-25.848 24.311m-139.06-3.3414-30.77-30.306c-17.209-16.234-33.818-30.445-36.102-30.445-5.2753 0-68.39 65.221-101.09 98.939m349.1 5.7219c-20.34-25.101-45.101-43.913-58.734-57.261-15.347-15.013-34.888-42.212-44.863-42.681-9.6917-0.45515-40.852 24.26-56.475 37.179-15.493 12.79-46.365 41.324-53.463 50.807" fill="none" stroke="#000" stroke-width="5" sodipodi:nodetypes="csssccsccczzc"/>
</g>
<path d="m215.58 251.01c7.8714-3.4505 20.717-1.0399 22.788 8.3806-2.0871 5.2374 0.4771 17.236 6.547 8.8335 4.0116-6.1335 11.708-8.2644 18.565-9.2316 9.9514-1.3875 17.581 9.1394 16.108 18.378 2.5964 7.7389 12.252 0.12344 16.784 5.1305 5.7576 6.483 0.30384 15.992 4.0221 23.227" color="#000000" fill="none" stroke="#000" stroke-width="5"/>
<path d="m170.63 328.63c3.3529 0.49244 4.0889-3.62 5.7883-5.6045 3.7337-4.7014 9.6474-6.7497 15.072-8.7832 4.6025-1.208 8.5688 3.4388 9.1358 7.6484 0.62461 2.5413-1.3805 5.7508 0.80034 7.8164 2.3791 0.94133 4.5733-1.2262 6.7845-1.8632 3.4068-1.5339 6.8207-3.8187 10.676-3.7059 3.344 0.94462 3.0678 5.0418 3.1781 7.7752" color="#000000" fill="none" stroke="#000" stroke-width="5"/>
<path d="m384.51 327.44c0.41028-2.6676-0.09076-4.6286 0.12623-6.8491 0.41518-4.2485 1.8151-8.3954 5.3545-10.683 3.8698-2.5008 8.858-5.2014 13.12-3.6146 4.5671 1.7003 7.2564 15.251 9.6273 14.513 4.871-1.5173 4.7089-5.0141 6.3402-7.7983 1.2414-2.1187 4.524-4.8148 13.584-0.3422" color="#000000" fill="none" stroke="#000" stroke-width="5" sodipodi:nodetypes="cssssss"/>
<path d="m335.45 329.76c6.1924 0.35948 12.685 2.2325 17.612 4.9193 4.8194 2.6286 8.3942 9.0304 11.756 11.088 4.3328 2.6525 9.0035 1.9826 11.125 1.5025" color="#000000" fill="none" stroke="#000" stroke-width="5" sodipodi:nodetypes="czsc"/>
<path d="m219.99 374.08c1.4366-1.6309 4.3383-8.9319 8.3083-11.898 2.9769-2.7974 9.5481-4.3229 16.663-5.3228" color="#000000" fill="none" stroke="#000" stroke-width="5" sodipodi:nodetypes="ccc"/>
<path d="m327.77 219.66c2.3111 2.7813 7.789 6.5498 9.1781 11.588 1.6041 5.818-1.1656 12.071-5.871 14.13" color="#000000" fill="none" stroke="#000" stroke-width="5" sodipodi:nodetypes="csc"/>
</g>
<g sodipodi:insensitive="true">
<path d="m1.5 1.5v458.87c0 166.31 134.31 301.13 300 301.13 165.69 0 300-134.82 300-301.13v-458.87h-600z" fill="url(#a)"/>
<path d="m1.5 1.5v458.87c0 166.31 134.31 301.13 300 301.13 165.69 0 300-134.82 300-301.13v-458.87h-600z" fill="none" stroke="#000" stroke-width="3"/>
</g>
</svg>
