<?xml version="1.0" encoding="UTF-8" standalone="no"?>
<!-- Created with Inkscape (http://www.inkscape.org/) -->

<svg
   xmlns:dc="http://purl.org/dc/elements/1.1/"
   xmlns:cc="http://creativecommons.org/ns#"
   xmlns:rdf="http://www.w3.org/1999/02/22-rdf-syntax-ns#"
   xmlns:svg="http://www.w3.org/2000/svg"
   xmlns="http://www.w3.org/2000/svg"
   xmlns:sodipodi="http://sodipodi.sourceforge.net/DTD/sodipodi-0.dtd"
   xmlns:inkscape="http://www.inkscape.org/namespaces/inkscape"
   version="1.0"
   width="208.86046"
   height="244.65999"
   id="svg2780"
   inkscape:version="0.92.5 (2060ec1f9f, 2020-04-08)"
   sodipodi:docname="GuttetFeschel-blazon.svg">
  <metadata
     id="metadata27">
    <rdf:RDF>
      <cc:Work
         rdf:about="">
        <dc:format>image/svg+xml</dc:format>
        <dc:type
           rdf:resource="http://purl.org/dc/dcmitype/StillImage" />
        <dc:title></dc:title>
      </cc:Work>
    </rdf:RDF>
  </metadata>
  <sodipodi:namedview
     pagecolor="#ffffff"
     bordercolor="#666666"
     borderopacity="1"
     objecttolerance="10"
     gridtolerance="10"
     guidetolerance="10"
     inkscape:pageopacity="0"
     inkscape:pageshadow="2"
     inkscape:window-width="3287"
     inkscape:window-height="1417"
     id="namedview25"
     showgrid="false"
     inkscape:zoom="2.0000001"
     inkscape:cx="44.377816"
     inkscape:cy="163.48609"
     inkscape:window-x="-8"
     inkscape:window-y="-8"
     inkscape:window-maximized="1"
     inkscape:current-layer="svg2780"
     inkscape:measure-start="104.255,149.787"
     inkscape:measure-end="104.255,126.383"
     showguides="true"
     inkscape:object-paths="true"
     inkscape:snap-intersection-paths="true"
     inkscape:snap-global="false" />
  <defs
     id="defs2782" />
  <path
     id="path4212-7"
     style="fill:#1b63c6;fill-opacity:1;fill-rule:evenodd;stroke:#000000;stroke-width:1.99999988;stroke-linecap:butt;stroke-miterlimit:4;stroke-dashoffset:0;stroke-opacity:1"
     d="M 204.09935,159.00304 207.86045,1 C 138.90698,1 69.953503,1 1.000029,1 l 3.7611,158.00304 c 1.64138,68.95393 2.88226,67.30563 99.669111,84.64438 96.78685,-17.33875 98.02773,-15.69045 99.66911,-84.64438 z"
     inkscape:connector-curvature="0"
     sodipodi:nodetypes="sccscs" />
  <path
     id="rect2468"
     style="opacity:1;fill:#feeb00;fill-opacity:1;stroke:#000000;stroke-width:1.00157475;stroke-miterlimit:4;stroke-dasharray:none;stroke-dashoffset:4.57999992;stroke-opacity:1"
     d="m 38.017913,45.607843 c 0,-12.318413 10.009609,-22.304461 22.357084,-22.304461 12.347476,0 22.357085,9.986048 22.357085,22.304461 0,10.143925 -6.787651,18.70624 -16.078974,21.413049 -0.949283,0.27247 -1.83605,1.559988 -1.835356,3.322021 V 192.01659 H 55.932244 V 67.697834 c 0,-3.907679 3.258599,-8.268424 6.617411,-8.824321 6.406117,-1.037239 11.296922,-6.581645 11.296922,-13.26567 0,-7.422635 -6.031432,-13.43987 -13.47158,-13.43987 -7.440147,0 -13.471579,6.017235 -13.471579,13.43987 0,3.426422 1.285244,6.553365 3.401013,8.927179 5.217497,5.916086 -1.319107,11.492673 -6.202768,6.367117 -3.772004,-3.993111 -6.08375,-9.37437 -6.08375,-15.294296 z"
     inkscape:connector-curvature="0"
     sodipodi:nodetypes="sssccccscsssccs" />
  <path
     id="path31428-3-9-8-72-2-4-2-1-60-8"
     style="opacity:1;fill:#feeb00;fill-opacity:1;stroke:#000000;stroke-width:0.99999988;stroke-miterlimit:8.30769253;stroke-dasharray:none;stroke-dashoffset:4.57999992;stroke-opacity:1"
     d="m 122.89873,66.132059 c -2.21245,-1.212224 -3.95593,-2.343219 -7.04179,-1.130021 -4.01892,1.580044 -7.1686,0.106807 -10.18252,-1.634092 2.90331,0.562601 5.77051,0.0036 8.19059,-1.984477 2.89706,-2.37972 7.04378,-2.589812 9.53081,-1.568444 2.48707,1.021399 6.32865,-1.427652 6.32865,-1.427652 l -18.01501,-16.143028 22.99991,7.516402 c -2.05432,-3.084852 -1.44823,-5.039219 -1.49169,-7.014353 -0.0555,-2.52049 0.053,-4.59458 -2.54142,-6.658091 -3.37901,-2.68744 -3.67687,-6.149398 -3.67485,-9.627703 0.96399,2.793464 2.8821,4.994871 5.81538,6.09486 3.51124,1.316896 5.76669,4.79989 6.1249,7.462537 0.3582,2.662696 4.40178,4.762177 4.40178,4.762177 l 4.98491,-23.659421 4.98492,23.659415 c 1.64672,-3.319986 3.64375,-3.772733 5.33403,-4.797911 2.15694,-1.308264 4.00902,-2.251352 4.5004,-5.528061 0.6399,-4.267486 3.49173,-6.256204 6.50765,-7.993624 -1.93934,2.23087 -2.8884,4.991274 -2.37522,8.079351 0.61416,3.696611 -1.27709,7.389694 -3.40591,9.03098 -2.12886,1.641287 -1.92685,6.189832 -1.92685,6.189832 l 22.99992,-7.516391 -18.01501,16.143004 c 3.70104,-0.23513 5.09198,1.266474 6.82574,2.216447 2.21244,1.212201 3.95592,2.343213 7.04179,1.130029 4.01891,-1.580045 7.16861,-0.106797 10.18252,1.634091 -2.90333,-0.562612 -5.77051,-0.0036 -8.1906,1.98447 -2.89707,2.379715 -7.04378,2.589807 -9.53082,1.568446 -2.48706,-1.021403 -6.32863,1.42766 -6.32863,1.42766 l 18.015,16.143016 -22.99991,-7.516406 c 2.05433,3.084856 1.44824,5.039207 1.4917,7.014357 0.0555,2.520465 -0.053,4.594565 2.54142,6.658085 3.379,2.687438 3.67686,6.149411 3.67485,9.627717 -0.96401,-2.793487 -2.88211,-4.994886 -5.81538,-6.094873 -3.51123,-1.316902 -5.76669,-4.799897 -6.1249,-7.462536 -0.35821,-2.662694 -4.40179,-4.762176 -4.40179,-4.762176 l -4.98491,23.659405 -4.9849,-23.659407 c -1.64672,3.319984 -3.64375,3.772731 -5.33403,4.79791 -2.15695,1.308258 -4.00902,2.251349 -4.5004,5.528071 -0.63991,4.267483 -3.49172,6.25619 -6.50765,7.993626 1.93933,-2.230881 2.88839,-4.991281 2.37521,-8.079352 -0.61414,-3.696627 1.2771,-7.389706 3.40592,-9.030983 2.12886,-1.641294 1.92686,-6.189835 1.92686,-6.189835 l -22.99993,7.516385 18.01501,-16.142993 c -3.70106,0.235129 -5.09201,-1.266474 -6.82575,-2.216443 z"
     inkscape:connector-curvature="0"
     sodipodi:nodetypes="ccccccccccccccccccccccccccccccccccccccccccccccccc" />
  <path
     style="opacity:1;fill:#ffffff;fill-opacity:1;stroke:#000000;stroke-width:1.00157475;stroke-miterlimit:4;stroke-dasharray:none;stroke-dashoffset:4.57999992;stroke-opacity:1"
     d="m 4.8070441,160.91468 c 4.9425646,-12.82473 16.0588319,-22.81984 28.9429549,-32.00469 8.537743,17.21226 20.795741,30.70426 36.999999,40.25 L 69.083193,237.2259 C 50.258722,232.62554 28.151021,229.40202 18.996275,220.74662 4.5991277,209.57075 5.3523999,184.6538 4.8070441,160.91468 Z"
     id="path3594"
     inkscape:connector-curvature="0"
     sodipodi:nodetypes="cccccc" />
  <path
     style="opacity:1;fill:#ffffff;fill-opacity:1;stroke:#000000;stroke-width:1.00157475;stroke-miterlimit:4;stroke-dasharray:none;stroke-dashoffset:4.57999992;stroke-opacity:1"
     d="m 172.75,128.90999 c -18.55673,14.35471 -31.44245,29.81212 -38,46.5 l 58.99509,41.53457 c 10.26516,-11.98832 9.4943,-33.96161 10.27163,-54.53415 -14.48733,-8.11799 -23.36757,-20.4413 -31.26672,-33.50042 z"
     id="path3598"
     inkscape:connector-curvature="0"
     sodipodi:nodetypes="ccccc" />
  <path
     style="opacity:1;fill:#ffffff;fill-opacity:1;stroke:#000000;stroke-width:1.00157475;stroke-miterlimit:4;stroke-dasharray:none;stroke-dashoffset:4.57999992;stroke-opacity:1"
     d="m 29.180144,226.74743 c 16.278314,-41.81348 37.564184,-81.63178 75.250096,-114.83744 17.28852,41.23055 48.09319,74.48169 93.04804,99.3791 -10.95695,22.54487 -56.5751,24.77111 -93.04804,32.35833 -26.186872,-3.79415 -56.936311,-10.17815 -75.250096,-16.89999 z"
     id="path3596"
     inkscape:connector-curvature="0"
     sodipodi:nodetypes="ccccc" />
  <path
     id="path4212-7-7"
     style="fill:none;fill-opacity:1;fill-rule:evenodd;stroke:#000000;stroke-width:1.99999988;stroke-linecap:butt;stroke-miterlimit:4;stroke-dashoffset:0;stroke-opacity:1"
     d="m 204.09935,159.00304 3.7611,-158.00304166 c -68.95347,0 -137.906947,0 -206.860421,0 L 4.761129,159.00304 c 1.64138,68.95393 2.88226,67.30563 99.669111,84.64438 96.78685,-17.33875 98.02773,-15.69045 99.66911,-84.64438 z"
     inkscape:connector-curvature="0"
     sodipodi:nodetypes="sccscs" />
</svg>
