<?xml version="1.0" encoding="UTF-8" standalone="no"?>
<!-- Created with Inkscape (http://www.inkscape.org/) -->

<svg
   xmlns:dc="http://purl.org/dc/elements/1.1/"
   xmlns:cc="http://creativecommons.org/ns#"
   xmlns:rdf="http://www.w3.org/1999/02/22-rdf-syntax-ns#"
   xmlns:svg="http://www.w3.org/2000/svg"
   xmlns="http://www.w3.org/2000/svg"
   xmlns:sodipodi="http://sodipodi.sourceforge.net/DTD/sodipodi-0.dtd"
   xmlns:inkscape="http://www.inkscape.org/namespaces/inkscape"
   version="1.0"
   width="208.86046"
   height="244.65999"
   id="svg2780"
   inkscape:version="0.92.5 (2060ec1f9f, 2020-04-08)"
   sodipodi:docname="Fully-blazon.svg">
  <metadata
     id="metadata27">
    <rdf:RDF>
      <cc:Work
         rdf:about="">
        <dc:format>image/svg+xml</dc:format>
        <dc:type
           rdf:resource="http://purl.org/dc/dcmitype/StillImage" />
        <dc:title />
      </cc:Work>
    </rdf:RDF>
  </metadata>
  <sodipodi:namedview
     pagecolor="#ffffff"
     bordercolor="#666666"
     borderopacity="1"
     objecttolerance="10"
     gridtolerance="10"
     guidetolerance="10"
     inkscape:pageopacity="0"
     inkscape:pageshadow="2"
     inkscape:window-width="3287"
     inkscape:window-height="1417"
     id="namedview25"
     showgrid="false"
     inkscape:zoom="4.0000001"
     inkscape:cx="103.08637"
     inkscape:cy="123.63748"
     inkscape:window-x="-8"
     inkscape:window-y="-8"
     inkscape:window-maximized="1"
     inkscape:current-layer="svg2780"
     inkscape:measure-start="104.255,149.787"
     inkscape:measure-end="104.255,126.383"
     showguides="true"
     inkscape:object-paths="true"
     inkscape:snap-intersection-paths="true" />
  <defs
     id="defs2782" />
  <path
     id="path4212-7"
     style="fill:#1b63c6;fill-opacity:1;fill-rule:evenodd;stroke:#000000;stroke-width:1.99999988;stroke-linecap:butt;stroke-miterlimit:4;stroke-dashoffset:0;stroke-opacity:1"
     d="M 204.09935,159.00304 207.86045,1 C 138.90698,1 69.953503,1 1.000029,1 l 3.7611,158.00304 c 1.64138,68.95393 2.88226,67.30563 99.669111,84.64438 96.78685,-17.33875 98.02773,-15.69045 99.66911,-84.64438 z"
     inkscape:connector-curvature="0"
     sodipodi:nodetypes="sccscs" />
  <path
     id="path32326-43-7-0"
     style="opacity:1;fill:#feeb00;fill-opacity:1;stroke:#000000;stroke-width:1.00199997;stroke-miterlimit:10;stroke-dasharray:none;stroke-dashoffset:4.57999992;stroke-opacity:1"
     d="m 126.92566,146.01859 19.79899,-19.79898 19.79899,19.79898 V 217.2596 H 38.360542 v -28.48322 l 32.099986,-11.46831 v -13.28043 l 19.798991,-15.79898 19.798991,15.79898 v 13.28043 h 16.86715 z"
     inkscape:connector-curvature="0"
     sodipodi:nodetypes="ccccccccccccc" />
  <path
     style="opacity:1;fill:none;fill-opacity:1;stroke:#000000;stroke-width:1.00199997;stroke-miterlimit:10;stroke-dasharray:none;stroke-dashoffset:4.57999992;stroke-opacity:1"
     d="M 126.92566,177.30807 V 217.2596"
     id="path32389"
     inkscape:connector-curvature="0" />
  <path
     id="path32391-5"
     style="opacity:1;fill:#000000;fill-opacity:1;stroke:#000000;stroke-width:1.00199997;stroke-miterlimit:10;stroke-dasharray:none;stroke-dashoffset:4.57999992;stroke-opacity:1"
     d="m 91.187498,217.2596 v -14.41211 c 0,-3.14772 -2.47127,-6.125 -6.125,-6.125 -3.65373,0 -6.125,2.97728 -6.125,6.125 v 14.41211 z"
     inkscape:connector-curvature="0"
     sodipodi:nodetypes="cscsc" />
  <path
     id="path32391-5-5"
     style="opacity:1;fill:#000000;fill-opacity:1;stroke:#000000;stroke-width:1.00199997;stroke-miterlimit:10;stroke-dasharray:none;stroke-dashoffset:4.57999992;stroke-opacity:1"
     d="m 67.187498,217.2596 v -14.41211 c 0,-3.14772 -2.47127,-6.125 -6.125,-6.125 -3.65373,0 -6.125,2.97728 -6.125,6.125 v 14.41211 z"
     inkscape:connector-curvature="0"
     sodipodi:nodetypes="cscsc" />
  <path
     id="path32391-5-3"
     style="opacity:1;fill:#000000;fill-opacity:1;stroke:#000000;stroke-width:1.00199997;stroke-miterlimit:10;stroke-dasharray:none;stroke-dashoffset:4.57999992;stroke-opacity:1"
     d="m 115.1875,217.2596 v -14.41211 c 0,-3.14772 -2.47127,-6.125 -6.125,-6.125 -3.65373,0 -6.125,2.97728 -6.125,6.125 v 14.41211 z"
     inkscape:connector-curvature="0"
     sodipodi:nodetypes="cscsc" />
  <path
     style="opacity:1;fill:#cc2918;fill-opacity:1;stroke:#000000;stroke-width:1.00199997;stroke-miterlimit:10;stroke-dasharray:none;stroke-dashoffset:4.57999992;stroke-opacity:1"
     d="M 3.7967524,118.48978 H 205.06373 L 207.86045,1 H 1.000029 Z"
     id="path32430"
     inkscape:connector-curvature="0" />
  <ellipse
     style="opacity:1;fill:#feeb00;fill-opacity:1;stroke:#000000;stroke-width:0.99999994;stroke-miterlimit:4;stroke-dasharray:none;stroke-dashoffset:4.57999992;stroke-opacity:1"
     id="path16795-51-89-0"
     cx="40.085285"
     cy="107.31711"
     rx="6.1580853"
     ry="6.0260849"
     transform="matrix(0.99759159,-0.06936152,0.06936809,0.99759113,0,0)" />
  <ellipse
     style="opacity:1;fill:#feeb00;fill-opacity:1;stroke:#000000;stroke-width:1;stroke-miterlimit:4;stroke-dasharray:none;stroke-dashoffset:4.57999992;stroke-opacity:1"
     id="path16795-51-8-1"
     cx="47.38131"
     cy="104.04882"
     rx="5.9710827"
     ry="6.8058691"
     transform="matrix(0.99759069,-0.06937439,0.06935522,0.99759203,0,0)" />
  <ellipse
     style="opacity:1;fill:#feeb00;fill-opacity:1;stroke:#000000;stroke-width:1;stroke-miterlimit:4;stroke-dasharray:none;stroke-dashoffset:4.57999992;stroke-opacity:1"
     id="path16795-51-2-8"
     cx="51.064835"
     cy="97.160156"
     rx="5.7065411"
     ry="6.1252818"
     transform="matrix(0.99759069,-0.06937439,0.06935522,0.99759203,0,0)" />
  <ellipse
     style="opacity:1;fill:#feeb00;fill-opacity:1;stroke:#000000;stroke-width:1;stroke-miterlimit:4;stroke-dasharray:none;stroke-dashoffset:4.57999992;stroke-opacity:1"
     id="path16793-1-82-2"
     cx="34.36134"
     cy="97.847008"
     rx="6.5757494"
     ry="7.6755071"
     transform="matrix(0.99759069,-0.06937439,0.06935522,0.99759203,0,0)" />
  <ellipse
     style="opacity:1;fill:#feeb00;fill-opacity:1;stroke:#000000;stroke-width:1;stroke-miterlimit:4;stroke-dasharray:none;stroke-dashoffset:4.57999992;stroke-opacity:1"
     id="path16797-6-63"
     cx="42.599506"
     cy="96.904541"
     rx="4.9507084"
     ry="5.6715569"
     transform="matrix(0.99759069,-0.06937439,0.06935522,0.99759203,0,0)" />
  <ellipse
     style="opacity:1;fill:#feeb00;fill-opacity:1;stroke:#000000;stroke-width:1;stroke-miterlimit:4;stroke-dasharray:none;stroke-dashoffset:4.57999992;stroke-opacity:1"
     id="path16793-1-82"
     cx="56.428387"
     cy="91.991211"
     rx="6.5757494"
     ry="7.6755071"
     transform="matrix(0.99759069,-0.06937439,0.06935522,0.99759203,0,0)" />
  <ellipse
     style="opacity:1;fill:#feeb00;fill-opacity:1;stroke:#000000;stroke-width:1;stroke-miterlimit:4;stroke-dasharray:none;stroke-dashoffset:4.57999992;stroke-opacity:1"
     id="path16795-51-53"
     cx="37.459843"
     cy="90.249924"
     rx="5.6687498"
     ry="6.8058691"
     transform="matrix(0.99759069,-0.06937439,0.06935522,0.99759203,0,0)" />
  <ellipse
     style="opacity:1;fill:#feeb00;fill-opacity:1;stroke:#000000;stroke-width:1;stroke-miterlimit:4;stroke-dasharray:none;stroke-dashoffset:4.57999992;stroke-opacity:1"
     id="path16797-6-6"
     cx="46.000748"
     cy="88.132538"
     rx="4.9507084"
     ry="5.6715569"
     transform="matrix(0.99759069,-0.06937439,0.06935522,0.99759203,0,0)" />
  <ellipse
     style="opacity:1;fill:#feeb00;fill-opacity:1;stroke:#000000;stroke-width:1;stroke-miterlimit:4;stroke-dasharray:none;stroke-dashoffset:4.57999992;stroke-opacity:1"
     id="path16797-6"
     cx="53.899208"
     cy="84.427124"
     rx="4.9507084"
     ry="5.6715569"
     transform="matrix(0.99759069,-0.06937439,0.06935522,0.99759203,0,0)" />
  <ellipse
     style="opacity:1;fill:#feeb00;fill-opacity:1;stroke:#000000;stroke-width:1;stroke-miterlimit:4;stroke-dasharray:none;stroke-dashoffset:4.57999992;stroke-opacity:1"
     id="path16795-51-1"
     cx="62.474922"
     cy="83.322006"
     rx="6.9536662"
     ry="6.8058691"
     transform="matrix(0.99759069,-0.06937439,0.06935522,0.99759203,0,0)" />
  <ellipse
     style="opacity:1;fill:#feeb00;fill-opacity:1;stroke:#000000;stroke-width:1;stroke-miterlimit:4;stroke-dasharray:none;stroke-dashoffset:4.57999992;stroke-opacity:1"
     id="path16797-4"
     cx="47.241386"
     cy="79.177971"
     rx="4.5349998"
     ry="5.6715569"
     transform="matrix(0.99759069,-0.06937439,0.06935522,0.99759203,0,0)" />
  <ellipse
     style="opacity:1;fill:#feeb00;fill-opacity:1;stroke:#000000;stroke-width:1;stroke-miterlimit:4;stroke-dasharray:none;stroke-dashoffset:4.57999992;stroke-opacity:1"
     id="path16795-51-2-3"
     cx="28.66526"
     cy="87.040215"
     rx="5.7065411"
     ry="6.1252818"
     transform="matrix(0.99759069,-0.06937439,0.06935522,0.99759203,0,0)" />
  <ellipse
     style="opacity:1;fill:#feeb00;fill-opacity:1;stroke:#000000;stroke-width:1;stroke-miterlimit:4;stroke-dasharray:none;stroke-dashoffset:4.57999992;stroke-opacity:1"
     id="path16795-6"
     cx="38.088219"
     cy="80.679626"
     rx="6.9536662"
     ry="6.8058691"
     transform="matrix(0.99759069,-0.06937439,0.06935522,0.99759203,0,0)" />
  <ellipse
     style="opacity:1;fill:#feeb00;fill-opacity:1;stroke:#000000;stroke-width:1;stroke-miterlimit:4;stroke-dasharray:none;stroke-dashoffset:4.57999992;stroke-opacity:1"
     id="path16795-51-8"
     cx="53.622719"
     cy="74.223625"
     rx="5.9710827"
     ry="6.8058691"
     transform="matrix(0.99759069,-0.06937439,0.06935522,0.99759203,0,0)" />
  <ellipse
     style="opacity:1;fill:#feeb00;fill-opacity:1;stroke:#000000;stroke-width:1;stroke-miterlimit:4;stroke-dasharray:none;stroke-dashoffset:4.57999992;stroke-opacity:1"
     id="path16795-59"
     cx="65.498398"
     cy="74.930504"
     rx="6.9536662"
     ry="6.8058691"
     transform="matrix(0.99759069,-0.06937439,0.06935522,0.99759203,0,0)" />
  <ellipse
     style="opacity:1;fill:#feeb00;fill-opacity:1;stroke:#000000;stroke-width:1;stroke-miterlimit:4;stroke-dasharray:none;stroke-dashoffset:4.57999992;stroke-opacity:1"
     id="path16797-15"
     cx="24.74357"
     cy="78.478973"
     rx="4.5349998"
     ry="5.6715569"
     transform="matrix(0.99759069,-0.06937439,0.06935522,0.99759203,0,0)" />
  <ellipse
     style="opacity:1;fill:#feeb00;fill-opacity:1;stroke:#000000;stroke-width:1;stroke-miterlimit:4;stroke-dasharray:none;stroke-dashoffset:4.57999992;stroke-opacity:1"
     id="path16795-51-9"
     cx="32.61084"
     cy="75.852844"
     rx="5.857708"
     ry="6.8814888"
     transform="matrix(0.99759069,-0.06937439,0.06935522,0.99759203,0,0)" />
  <ellipse
     style="opacity:1;fill:#feeb00;fill-opacity:1;stroke:#000000;stroke-width:1;stroke-miterlimit:4;stroke-dasharray:none;stroke-dashoffset:4.57999992;stroke-opacity:1"
     id="path16795-7"
     cx="43.166534"
     cy="70.057487"
     rx="6.9536662"
     ry="6.8058691"
     transform="matrix(0.99759069,-0.06937439,0.06935522,0.99759203,0,0)" />
  <ellipse
     style="opacity:1;fill:#feeb00;fill-opacity:1;stroke:#000000;stroke-width:1;stroke-miterlimit:4;stroke-dasharray:none;stroke-dashoffset:4.57999992;stroke-opacity:1"
     id="path16795-0"
     cx="72.611038"
     cy="67.278313"
     rx="6.9536662"
     ry="6.8058691"
     transform="matrix(0.99759069,-0.06937439,0.06935522,0.99759203,0,0)" />
  <ellipse
     style="opacity:1;fill:#feeb00;fill-opacity:1;stroke:#000000;stroke-width:1;stroke-miterlimit:4;stroke-dasharray:none;stroke-dashoffset:4.57999992;stroke-opacity:1"
     id="path16795-51-2"
     cx="61.230797"
     cy="67.563698"
     rx="5.7065411"
     ry="6.1252818"
     transform="matrix(0.99759069,-0.06937439,0.06935522,0.99759203,0,0)" />
  <ellipse
     style="opacity:1;fill:#feeb00;fill-opacity:1;stroke:#000000;stroke-width:1;stroke-miterlimit:4;stroke-dasharray:none;stroke-dashoffset:4.57999992;stroke-opacity:1"
     id="path16797"
     cx="43.279762"
     cy="60.379719"
     rx="4.5349998"
     ry="5.6715569"
     transform="matrix(0.99759069,-0.06937439,0.06935522,0.99759203,0,0)" />
  <ellipse
     style="opacity:1;fill:#feeb00;fill-opacity:1;stroke:#000000;stroke-width:1;stroke-miterlimit:4;stroke-dasharray:none;stroke-dashoffset:4.57999992;stroke-opacity:1"
     id="path16795-51-5"
     cx="32.110416"
     cy="68.831734"
     rx="6.9536662"
     ry="6.8058691"
     transform="matrix(0.99759069,-0.06937439,0.06935522,0.99759203,0,0)" />
  <ellipse
     style="opacity:1;fill:#feeb00;fill-opacity:1;stroke:#000000;stroke-width:1;stroke-miterlimit:4;stroke-dasharray:none;stroke-dashoffset:4.57999992;stroke-opacity:1"
     id="path16793-1-6-3"
     cx="23.724499"
     cy="67.483055"
     rx="7.3315825"
     ry="8.318284"
     transform="matrix(0.99759069,-0.06937439,0.06935522,0.99759203,0,0)" />
  <ellipse
     style="opacity:1;fill:#feeb00;fill-opacity:1;stroke:#000000;stroke-width:1;stroke-miterlimit:4;stroke-dasharray:none;stroke-dashoffset:4.57999992;stroke-opacity:1"
     id="path16795-51-89"
     cx="33.817871"
     cy="59.577236"
     rx="6.9536662"
     ry="6.8058691"
     transform="matrix(0.99759069,-0.06937439,0.06935522,0.99759203,0,0)" />
  <ellipse
     style="opacity:1;fill:#feeb00;fill-opacity:1;stroke:#000000;stroke-width:1;stroke-miterlimit:4;stroke-dasharray:none;stroke-dashoffset:4.57999992;stroke-opacity:1"
     id="path16793-1-6"
     cx="53.071579"
     cy="61.398109"
     rx="7.3315825"
     ry="8.318284"
     transform="matrix(0.99759069,-0.06937439,0.06935522,0.99759203,0,0)" />
  <ellipse
     style="opacity:1;fill:#feeb00;fill-opacity:1;stroke:#000000;stroke-width:1;stroke-miterlimit:4;stroke-dasharray:none;stroke-dashoffset:4.57999992;stroke-opacity:1"
     id="path16795-51-88"
     cx="75.175919"
     cy="55.993713"
     rx="6.9536662"
     ry="6.8058691"
     transform="matrix(0.99759069,-0.06937439,0.06935522,0.99759203,0,0)" />
  <ellipse
     style="opacity:1;fill:#feeb00;fill-opacity:1;stroke:#000000;stroke-width:1;stroke-miterlimit:4;stroke-dasharray:none;stroke-dashoffset:4.57999992;stroke-opacity:1"
     id="path16799"
     cx="66.113518"
     cy="58.092743"
     rx="6.5001659"
     ry="7.4108348"
     transform="matrix(0.99759069,-0.06937439,0.06935522,0.99759203,0,0)" />
  <ellipse
     style="opacity:1;fill:#feeb00;fill-opacity:1;stroke:#000000;stroke-width:1;stroke-miterlimit:4;stroke-dasharray:none;stroke-dashoffset:4.57999992;stroke-opacity:1"
     id="path16793-1-8"
     cx="21.058247"
     cy="56.144955"
     rx="7.3315825"
     ry="8.318284"
     transform="matrix(0.99759069,-0.06937439,0.06935522,0.99759203,0,0)" />
  <ellipse
     style="opacity:1;fill:#feeb00;fill-opacity:1;stroke:#000000;stroke-width:1;stroke-miterlimit:4;stroke-dasharray:none;stroke-dashoffset:4.57999992;stroke-opacity:1"
     id="path16795-51-7"
     cx="39.047077"
     cy="50.170914"
     rx="6.9536662"
     ry="6.8058691"
     transform="matrix(0.99759069,-0.06937439,0.06935522,0.99759203,0,0)" />
  <ellipse
     style="opacity:1;fill:#feeb00;fill-opacity:1;stroke:#000000;stroke-width:1;stroke-miterlimit:4;stroke-dasharray:none;stroke-dashoffset:4.57999992;stroke-opacity:1"
     id="path16795-51"
     cx="26.507011"
     cy="49.693634"
     rx="6.9536662"
     ry="6.8058691"
     transform="matrix(0.99759069,-0.06937439,0.06935522,0.99759203,0,0)" />
  <ellipse
     style="opacity:1;fill:#feeb00;fill-opacity:1;stroke:#000000;stroke-width:1;stroke-miterlimit:4;stroke-dasharray:none;stroke-dashoffset:4.57999992;stroke-opacity:1"
     id="path16797-1"
     cx="59.22784"
     cy="51.758953"
     rx="4.5349998"
     ry="5.6715569"
     transform="matrix(0.99759069,-0.06937439,0.06935522,0.99759203,0,0)" />
  <ellipse
     style="opacity:1;fill:#feeb00;fill-opacity:1;stroke:#000000;stroke-width:1;stroke-miterlimit:4;stroke-dasharray:none;stroke-dashoffset:4.57999992;stroke-opacity:1"
     id="path16795"
     cx="49.175243"
     cy="49.944054"
     rx="6.9536662"
     ry="6.8058691"
     transform="matrix(0.99759069,-0.06937439,0.06935522,0.99759203,0,0)" />
  <ellipse
     style="opacity:1;fill:#feeb00;fill-opacity:1;stroke:#000000;stroke-width:1;stroke-miterlimit:4;stroke-dasharray:none;stroke-dashoffset:4.57999992;stroke-opacity:1"
     id="path16795-51-3"
     cx="68.010834"
     cy="48.596928"
     rx="6.9536662"
     ry="6.8058691"
     transform="matrix(0.99759069,-0.06937439,0.06935522,0.99759203,0,0)" />
  <path
     style="opacity:1;fill:#feeb00;fill-opacity:1;stroke:#000000;stroke-width:1.00199997;stroke-miterlimit:10;stroke-dasharray:none;stroke-dashoffset:4.57999992;stroke-opacity:1"
     d="M 90.235478,28.034994 C 103.54084,16.490604 119.5488,11.2272 134.98847,10.270883 c 13.79141,-0.854225 24.41613,2.806368 30.2208,7.635431 6.25867,5.20675 7.93834,9.589175 9.8104,15.659617 l -3.05668,1.236829 c -1.97023,-4.933864 -2.57864,-9.23955 -9.01846,-13.306329 1.11308,4.203596 1.21401,7.828473 1.16725,12.736786 l -2.96705,-0.203124 c -0.35686,-5.492095 -1.20053,-9.287577 -2.99374,-12.960439 -1.38237,4.917572 -4.61639,9.341828 -6.91551,12.84034 l -3.18732,-1.210742 c 2.21231,-3.896483 4.75449,-6.85725 5.60716,-11.441986 0.2789,-1.499604 -0.15097,-3.364748 -1.49875,-3.899713 -16.15258,-6.411313 -38.92262,-1.428982 -59.164812,17.529693 -1.30125,-1.70339 -2.48397,-4.565852 -2.75628,-6.852252 z"
     id="path33496-9"
     inkscape:connector-curvature="0"
     sodipodi:nodetypes="cssccccccccsscc" />
  <path
     style="opacity:1;fill:#feeb00;fill-opacity:1;stroke:#000000;stroke-width:1.00199997;stroke-miterlimit:10;stroke-dasharray:none;stroke-dashoffset:4.57999992;stroke-opacity:1"
     d="M 118.625,28.034994 C 105.31964,16.490604 89.31168,11.2272 73.872001,10.270883 60.080599,9.4166582 49.45588,13.077251 43.651203,17.906314 c -6.258669,5.20675 -7.938338,9.589175 -9.810397,15.659617 l 3.056682,1.236829 c 1.970232,-4.933864 2.57864,-9.23955 9.018453,-13.306329 -1.113077,4.203596 -1.214004,7.828473 -1.167243,12.736786 l 2.967052,-0.203124 c 0.356854,-5.492095 1.200526,-9.287577 2.993735,-12.960439 1.382368,4.917572 4.616392,9.341828 6.915514,12.84034 l 3.187321,-1.210742 c -2.212312,-3.896483 -4.754494,-6.85725 -5.607166,-11.441986 -0.278897,-1.499604 0.150967,-3.364748 1.49875,-3.899713 16.152583,-6.411313 38.922617,-1.428982 59.164816,17.529693 1.30125,-1.70339 2.48397,-4.565852 2.75628,-6.852252 z"
     id="path33496"
     inkscape:connector-curvature="0"
     sodipodi:nodetypes="cssccccccccsscc" />
  <ellipse
     style="opacity:1;fill:#feeb00;fill-opacity:1;stroke:#000000;stroke-width:1;stroke-miterlimit:4;stroke-dasharray:none;stroke-dashoffset:4.57999992;stroke-opacity:1"
     id="path16795-5"
     cx="78.707848"
     cy="46.319622"
     rx="6.9536662"
     ry="6.8058691"
     transform="matrix(0.99759069,-0.06937439,0.06935522,0.99759203,0,0)" />
  <ellipse
     style="opacity:1;fill:#feeb00;fill-opacity:1;stroke:#000000;stroke-width:1.00000012;stroke-miterlimit:4;stroke-dasharray:none;stroke-dashoffset:4.57999992;stroke-opacity:1"
     id="path16797-1-4"
     cx="15.18583"
     cy="45.039841"
     rx="5.9780226"
     ry="7.4409947"
     transform="matrix(0.99761349,-0.06904585,0.06968522,0.99756903,0,0)" />
  <ellipse
     style="opacity:1;fill:#feeb00;fill-opacity:1;stroke:#000000;stroke-width:1.00000024;stroke-miterlimit:4;stroke-dasharray:none;stroke-dashoffset:4.57999992;stroke-opacity:1"
     id="path16793-1-9"
     cx="29.420559"
     cy="34.469666"
     rx="6.9547925"
     ry="7.8637075"
     transform="matrix(0.99314564,0.11688341,-0.11805174,0.99300745,0,0)" />
  <ellipse
     style="opacity:1;fill:#feeb00;fill-opacity:1;stroke:#000000;stroke-width:1.00002718;stroke-miterlimit:4;stroke-dasharray:none;stroke-dashoffset:4.57999992;stroke-opacity:1"
     id="path16793-8"
     cx="49.598511"
     cy="34.371136"
     rx="7.328177"
     ry="7.8681993"
     transform="matrix(0.99981206,0.01938679,-0.02979424,0.99955605,0,0)" />
  <ellipse
     style="opacity:1;fill:#feeb00;fill-opacity:1;stroke:#000000;stroke-width:1;stroke-miterlimit:4;stroke-dasharray:none;stroke-dashoffset:4.57999992;stroke-opacity:1"
     id="path16793"
     cx="33.298714"
     cy="38.753349"
     rx="7.3315825"
     ry="8.318284"
     transform="matrix(0.99759069,-0.06937439,0.06935522,0.99759203,0,0)" />
  <ellipse
     style="opacity:1;fill:#feeb00;fill-opacity:1;stroke:#000000;stroke-width:1;stroke-miterlimit:4;stroke-dasharray:none;stroke-dashoffset:4.57999992;stroke-opacity:1"
     id="path16793-1"
     cx="58.717026"
     cy="40.344311"
     rx="7.3315825"
     ry="8.318284"
     transform="matrix(0.99759069,-0.06937439,0.06935522,0.99759203,0,0)" />
  <ellipse
     style="opacity:1;fill:#feeb00;fill-opacity:1;stroke:#000000;stroke-width:1.00036395;stroke-miterlimit:4;stroke-dasharray:none;stroke-dashoffset:4.57999992;stroke-opacity:1"
     id="path16793-4"
     cx="59.158661"
     cy="55.48679"
     rx="7.3012505"
     ry="7.6710033"
     transform="matrix(0.96033615,-0.27884492,0.31527002,0.94900201,0,0)" />
  <ellipse
     style="opacity:1;fill:#feeb00;fill-opacity:1;stroke:#000000;stroke-width:1;stroke-miterlimit:4;stroke-dasharray:none;stroke-dashoffset:4.57999992;stroke-opacity:1"
     id="path16795-51-89-0-6"
     cx="-166.26216"
     cy="92.090645"
     rx="6.9536662"
     ry="6.8058691"
     transform="matrix(-0.99759069,-0.06937439,-0.06935522,0.99759203,0,0)" />
  <ellipse
     style="opacity:1;fill:#feeb00;fill-opacity:1;stroke:#000000;stroke-width:1;stroke-miterlimit:4;stroke-dasharray:none;stroke-dashoffset:4.57999992;stroke-opacity:1"
     id="path16795-51-8-1-9"
     cx="-160.78265"
     cy="89.698021"
     rx="5.9710827"
     ry="6.8058691"
     transform="matrix(-0.99759069,-0.06937439,-0.06935522,0.99759203,0,0)" />
  <ellipse
     style="opacity:1;fill:#feeb00;fill-opacity:1;stroke:#000000;stroke-width:1;stroke-miterlimit:4;stroke-dasharray:none;stroke-dashoffset:4.57999992;stroke-opacity:1"
     id="path16795-51-2-8-8"
     cx="158.40286"
     cy="106.37888"
     rx="5.7065411"
     ry="6.1252818"
     transform="matrix(0.99759069,-0.06937439,0.06935522,0.99759203,0,0)" />
  <ellipse
     style="opacity:1;fill:#feeb00;fill-opacity:1;stroke:#000000;stroke-width:1;stroke-miterlimit:4;stroke-dasharray:none;stroke-dashoffset:4.57999992;stroke-opacity:1"
     id="path16793-1-82-2-2"
     cx="141.78275"
     cy="104.06427"
     rx="6.5757494"
     ry="7.6755071"
     transform="matrix(0.99759069,-0.06937439,0.06935522,0.99759203,0,0)" />
  <ellipse
     style="opacity:1;fill:#feeb00;fill-opacity:1;stroke:#000000;stroke-width:1;stroke-miterlimit:4;stroke-dasharray:none;stroke-dashoffset:4.57999992;stroke-opacity:1"
     id="path16797-6-63-4"
     cx="149.82684"
     cy="104.11073"
     rx="4.9507084"
     ry="5.6715569"
     transform="matrix(0.99759069,-0.06937439,0.06935522,0.99759203,0,0)" />
  <ellipse
     style="opacity:1;fill:#feeb00;fill-opacity:1;stroke:#000000;stroke-width:1;stroke-miterlimit:4;stroke-dasharray:none;stroke-dashoffset:4.57999992;stroke-opacity:1"
     id="path16793-1-82-5"
     cx="163.03224"
     cy="99.154045"
     rx="6.5757494"
     ry="7.6755071"
     transform="matrix(0.99759069,-0.06937439,0.06935522,0.99759203,0,0)" />
  <ellipse
     style="opacity:1;fill:#feeb00;fill-opacity:1;stroke:#000000;stroke-width:1;stroke-miterlimit:4;stroke-dasharray:none;stroke-dashoffset:4.57999992;stroke-opacity:1"
     id="path16795-51-53-4"
     cx="144.68718"
     cy="97.456108"
     rx="5.6687498"
     ry="6.8058691"
     transform="matrix(0.99759069,-0.06937439,0.06935522,0.99759203,0,0)" />
  <ellipse
     style="opacity:1;fill:#feeb00;fill-opacity:1;stroke:#000000;stroke-width:0.99999994;stroke-miterlimit:4;stroke-dasharray:none;stroke-dashoffset:4.57999992;stroke-opacity:1"
     id="path16797-6-6-6"
     cx="153.62927"
     cy="95.866905"
     rx="5.3878851"
     ry="6.1718383"
     transform="matrix(0.99759113,-0.06936818,0.06936144,0.9975916,0,0)" />
  <ellipse
     style="opacity:1;fill:#feeb00;fill-opacity:1;stroke:#000000;stroke-width:1;stroke-miterlimit:4;stroke-dasharray:none;stroke-dashoffset:4.57999992;stroke-opacity:1"
     id="path16797-6-9"
     cx="161.12656"
     cy="91.633308"
     rx="4.9507084"
     ry="5.6715569"
     transform="matrix(0.99759069,-0.06937439,0.06935522,0.99759203,0,0)" />
  <ellipse
     style="opacity:1;fill:#feeb00;fill-opacity:1;stroke:#000000;stroke-width:1;stroke-miterlimit:4;stroke-dasharray:none;stroke-dashoffset:4.57999992;stroke-opacity:1"
     id="path16795-51-1-1"
     cx="169.70227"
     cy="90.528198"
     rx="6.9536662"
     ry="6.8058691"
     transform="matrix(0.99759069,-0.06937439,0.06935522,0.99759203,0,0)" />
  <ellipse
     style="opacity:1;fill:#feeb00;fill-opacity:1;stroke:#000000;stroke-width:1.0000093;stroke-miterlimit:4;stroke-dasharray:none;stroke-dashoffset:4.57999992;stroke-opacity:1"
     id="path16797-4-7"
     cx="155.07312"
     cy="86.859474"
     rx="5.4701433"
     ry="6.5487509"
     transform="matrix(0.99779339,-0.06639534,0.07246573,0.9973709,0,0)" />
  <ellipse
     style="opacity:1;fill:#feeb00;fill-opacity:1;stroke:#000000;stroke-width:1;stroke-miterlimit:4;stroke-dasharray:none;stroke-dashoffset:4.57999992;stroke-opacity:1"
     id="path16795-51-2-3-0"
     cx="135.89259"
     cy="94.246407"
     rx="5.7065411"
     ry="6.1252818"
     transform="matrix(0.99759069,-0.06937439,0.06935522,0.99759203,0,0)" />
  <ellipse
     style="opacity:1;fill:#feeb00;fill-opacity:1;stroke:#000000;stroke-width:1.00032318;stroke-miterlimit:4;stroke-dasharray:none;stroke-dashoffset:4.57999992;stroke-opacity:1"
     id="path16797-15-3"
     cx="135.02856"
     cy="85.981857"
     rx="7.0870376"
     ry="6.8712602"
     transform="matrix(0.99855731,-0.05369632,0.08954742,0.99598256,0,0)" />
  <ellipse
     style="opacity:1;fill:#feeb00;fill-opacity:1;stroke:#000000;stroke-width:1;stroke-miterlimit:4;stroke-dasharray:none;stroke-dashoffset:4.57999992;stroke-opacity:1"
     id="path16795-6-9"
     cx="147.75087"
     cy="85.298538"
     rx="6.9536662"
     ry="6.8058691"
     transform="matrix(0.99759069,-0.06937439,0.06935522,0.99759203,0,0)" />
  <ellipse
     style="opacity:1;fill:#feeb00;fill-opacity:1;stroke:#000000;stroke-width:1;stroke-miterlimit:4;stroke-dasharray:none;stroke-dashoffset:4.57999992;stroke-opacity:1"
     id="path16795-51-8-3"
     cx="-153.85324"
     cy="59.670071"
     rx="5.9710827"
     ry="6.8058691"
     transform="matrix(-0.99759069,-0.06937439,-0.06935522,0.99759203,0,0)" />
  <ellipse
     style="opacity:1;fill:#feeb00;fill-opacity:1;stroke:#000000;stroke-width:1;stroke-miterlimit:4;stroke-dasharray:none;stroke-dashoffset:4.57999992;stroke-opacity:1"
     id="path16795-59-9"
     cx="-141.63815"
     cy="60.901745"
     rx="6.9536662"
     ry="6.8058691"
     transform="matrix(-0.99759069,-0.06937439,-0.06935522,0.99759203,0,0)" />
  <ellipse
     style="opacity:1;fill:#feeb00;fill-opacity:1;stroke:#000000;stroke-width:1;stroke-miterlimit:4;stroke-dasharray:none;stroke-dashoffset:4.57999992;stroke-opacity:1"
     id="path16795-51-9-3"
     cx="-175.74669"
     cy="61.36327"
     rx="5.857708"
     ry="6.8814888"
     transform="matrix(-0.99759069,-0.06937439,-0.06935522,0.99759203,0,0)" />
  <ellipse
     style="opacity:1;fill:#feeb00;fill-opacity:1;stroke:#000000;stroke-width:1;stroke-miterlimit:4;stroke-dasharray:none;stroke-dashoffset:4.57999992;stroke-opacity:1"
     id="path16795-7-5"
     cx="-165.17366"
     cy="55.318523"
     rx="6.9536662"
     ry="6.8058691"
     transform="matrix(-0.99759069,-0.06937439,-0.06935522,0.99759203,0,0)" />
  <ellipse
     style="opacity:1;fill:#feeb00;fill-opacity:1;stroke:#000000;stroke-width:1;stroke-miterlimit:4;stroke-dasharray:none;stroke-dashoffset:4.57999992;stroke-opacity:1"
     id="path16795-0-4"
     cx="-135.74649"
     cy="52.788746"
     rx="6.9536662"
     ry="6.8058691"
     transform="matrix(-0.99759069,-0.06937439,-0.06935522,0.99759203,0,0)" />
  <ellipse
     style="opacity:1;fill:#feeb00;fill-opacity:1;stroke:#000000;stroke-width:1;stroke-miterlimit:4;stroke-dasharray:none;stroke-dashoffset:4.57999992;stroke-opacity:1"
     id="path16795-51-2-30"
     cx="-147.12672"
     cy="53.074131"
     rx="5.7065411"
     ry="6.1252818"
     transform="matrix(-0.99759069,-0.06937439,-0.06935522,0.99759203,0,0)" />
  <ellipse
     style="opacity:1;fill:#feeb00;fill-opacity:1;stroke:#000000;stroke-width:1.00043035;stroke-miterlimit:4;stroke-dasharray:none;stroke-dashoffset:4.57999992;stroke-opacity:1"
     id="path16797-0"
     cx="-166.74368"
     cy="47.949135"
     rx="6.088872"
     ry="5.682548"
     transform="matrix(-0.99866421,-0.05167014,-0.09303899,0.99566247,0,0)" />
  <ellipse
     style="opacity:1;fill:#feeb00;fill-opacity:1;stroke:#000000;stroke-width:1;stroke-miterlimit:4;stroke-dasharray:none;stroke-dashoffset:4.57999992;stroke-opacity:1"
     id="path16795-51-5-5"
     cx="-176.24712"
     cy="54.342159"
     rx="6.9536662"
     ry="6.8058691"
     transform="matrix(-0.99759069,-0.06937439,-0.06935522,0.99759203,0,0)" />
  <ellipse
     style="opacity:1;fill:#feeb00;fill-opacity:1;stroke:#000000;stroke-width:1;stroke-miterlimit:4;stroke-dasharray:none;stroke-dashoffset:4.57999992;stroke-opacity:1"
     id="path16793-1-6-3-2"
     cx="-184.63303"
     cy="52.993496"
     rx="7.3315825"
     ry="8.318284"
     transform="matrix(-0.99759069,-0.06937439,-0.06935522,0.99759203,0,0)" />
  <ellipse
     style="opacity:1;fill:#feeb00;fill-opacity:1;stroke:#000000;stroke-width:1;stroke-miterlimit:4;stroke-dasharray:none;stroke-dashoffset:4.57999992;stroke-opacity:1"
     id="path16795-51-89-4"
     cx="-174.31192"
     cy="45.63512"
     rx="6.9536662"
     ry="6.8058691"
     transform="matrix(-0.99759069,-0.06937439,-0.06935522,0.99759203,0,0)" />
  <ellipse
     style="opacity:1;fill:#feeb00;fill-opacity:1;stroke:#000000;stroke-width:1;stroke-miterlimit:4;stroke-dasharray:none;stroke-dashoffset:4.57999992;stroke-opacity:1"
     id="path16793-1-6-1"
     cx="-155.28595"
     cy="46.908543"
     rx="7.3315825"
     ry="8.318284"
     transform="matrix(-0.99759069,-0.06937439,-0.06935522,0.99759203,0,0)" />
  <ellipse
     style="opacity:1;fill:#feeb00;fill-opacity:1;stroke:#000000;stroke-width:1;stroke-miterlimit:4;stroke-dasharray:none;stroke-dashoffset:4.57999992;stroke-opacity:1"
     id="path16795-51-88-7"
     cx="-133.18161"
     cy="41.504147"
     rx="6.9536662"
     ry="6.8058691"
     transform="matrix(-0.99759069,-0.06937439,-0.06935522,0.99759203,0,0)" />
  <ellipse
     style="opacity:1;fill:#feeb00;fill-opacity:1;stroke:#000000;stroke-width:1;stroke-miterlimit:4;stroke-dasharray:none;stroke-dashoffset:4.57999992;stroke-opacity:1"
     id="path16799-2"
     cx="-142.244"
     cy="43.603176"
     rx="6.5001659"
     ry="7.4108348"
     transform="matrix(-0.99759069,-0.06937439,-0.06935522,0.99759203,0,0)" />
  <ellipse
     style="opacity:1;fill:#feeb00;fill-opacity:1;stroke:#000000;stroke-width:1;stroke-miterlimit:4;stroke-dasharray:none;stroke-dashoffset:4.57999992;stroke-opacity:1"
     id="path16793-1-8-1"
     cx="-187.29929"
     cy="41.655392"
     rx="7.3315825"
     ry="8.318284"
     transform="matrix(-0.99759069,-0.06937439,-0.06935522,0.99759203,0,0)" />
  <ellipse
     style="opacity:1;fill:#feeb00;fill-opacity:1;stroke:#000000;stroke-width:1;stroke-miterlimit:4;stroke-dasharray:none;stroke-dashoffset:4.57999992;stroke-opacity:1"
     id="path16795-51-7-0"
     cx="-169.31046"
     cy="35.681343"
     rx="6.9536662"
     ry="6.8058691"
     transform="matrix(-0.99759069,-0.06937439,-0.06935522,0.99759203,0,0)" />
  <ellipse
     style="opacity:1;fill:#feeb00;fill-opacity:1;stroke:#000000;stroke-width:1;stroke-miterlimit:4;stroke-dasharray:none;stroke-dashoffset:4.57999992;stroke-opacity:1"
     id="path16795-51-73"
     cx="-180.26714"
     cy="36.643204"
     rx="6.9536662"
     ry="6.8058691"
     transform="matrix(-0.99759069,-0.06937439,-0.06935522,0.99759203,0,0)" />
  <ellipse
     style="opacity:1;fill:#feeb00;fill-opacity:1;stroke:#000000;stroke-width:1.00007987;stroke-miterlimit:4;stroke-dasharray:none;stroke-dashoffset:4.57999992;stroke-opacity:1"
     id="path16797-1-8"
     cx="-150.12465"
     cy="38.485424"
     rx="5.1563463"
     ry="5.6755686"
     transform="matrix(-0.99813687,-0.06101468,-0.07884508,0.99688688,0,0)" />
  <ellipse
     style="opacity:1;fill:#feeb00;fill-opacity:1;stroke:#000000;stroke-width:1;stroke-miterlimit:4;stroke-dasharray:none;stroke-dashoffset:4.57999992;stroke-opacity:1"
     id="path16795-4"
     cx="-159.18228"
     cy="35.454483"
     rx="6.9536662"
     ry="6.8058691"
     transform="matrix(-0.99759069,-0.06937439,-0.06935522,0.99759203,0,0)" />
  <ellipse
     style="opacity:1;fill:#feeb00;fill-opacity:1;stroke:#000000;stroke-width:1;stroke-miterlimit:4;stroke-dasharray:none;stroke-dashoffset:4.57999992;stroke-opacity:1"
     id="path16795-51-3-6"
     cx="-140.34669"
     cy="34.107361"
     rx="6.9536662"
     ry="6.8058691"
     transform="matrix(-0.99759069,-0.06937439,-0.06935522,0.99759203,0,0)" />
  <ellipse
     style="opacity:1;fill:#feeb00;fill-opacity:1;stroke:#000000;stroke-width:1;stroke-miterlimit:4;stroke-dasharray:none;stroke-dashoffset:4.57999992;stroke-opacity:1"
     id="path16795-5-2"
     cx="-129.64969"
     cy="31.830055"
     rx="6.9536662"
     ry="6.8058691"
     transform="matrix(-0.99759069,-0.06937439,-0.06935522,0.99759203,0,0)" />
  <ellipse
     style="opacity:1;fill:#feeb00;fill-opacity:1;stroke:#000000;stroke-width:1;stroke-miterlimit:4;stroke-dasharray:none;stroke-dashoffset:4.57999992;stroke-opacity:1"
     id="path16797-1-4-3"
     cx="-193.90569"
     cy="31.907679"
     rx="5.4533339"
     ry="6.7976198"
     transform="matrix(-0.99760661,-0.06914519,-0.06958511,0.99757602,0,0)" />
  <ellipse
     style="opacity:1;fill:#feeb00;fill-opacity:1;stroke:#000000;stroke-width:1.00000024;stroke-miterlimit:4;stroke-dasharray:none;stroke-dashoffset:4.57999992;stroke-opacity:1"
     id="path16793-1-9-6"
     cx="-178.26009"
     cy="61.763367"
     rx="6.9547925"
     ry="7.8637075"
     transform="matrix(-0.99314564,0.11688341,0.11805174,0.99300745,0,0)" />
  <ellipse
     style="opacity:1;fill:#feeb00;fill-opacity:1;stroke:#000000;stroke-width:1.00002718;stroke-miterlimit:4;stroke-dasharray:none;stroke-dashoffset:4.57999992;stroke-opacity:1"
     id="path16793-8-6"
     cx="-159.14896"
     cy="39.481007"
     rx="7.328177"
     ry="7.8681993"
     transform="matrix(-0.99981206,0.01938679,0.02979424,0.99955605,0,0)" />
  <ellipse
     style="opacity:1;fill:#feeb00;fill-opacity:1;stroke:#000000;stroke-width:1;stroke-miterlimit:4;stroke-dasharray:none;stroke-dashoffset:4.57999992;stroke-opacity:1"
     id="path16793-5"
     cx="-174.93053"
     cy="26.023237"
     rx="7.3315825"
     ry="8.318284"
     transform="matrix(-0.99759069,-0.06937439,-0.06935522,0.99759203,0,0)" />
  <ellipse
     style="opacity:1;fill:#feeb00;fill-opacity:1;stroke:#000000;stroke-width:1;stroke-miterlimit:4;stroke-dasharray:none;stroke-dashoffset:4.57999992;stroke-opacity:1"
     id="path16793-1-0"
     cx="-149.6405"
     cy="25.854744"
     rx="7.3315825"
     ry="8.318284"
     transform="matrix(-0.99759069,-0.06937439,-0.06935522,0.99759203,0,0)" />
  <ellipse
     style="opacity:1;fill:#feeb00;fill-opacity:1;stroke:#000000;stroke-width:1.00036395;stroke-miterlimit:4;stroke-dasharray:none;stroke-dashoffset:4.57999992;stroke-opacity:1"
     id="path16793-4-6"
     cx="-139.19466"
     cy="-2.79531"
     rx="7.3012505"
     ry="7.6710033"
     transform="matrix(-0.96033615,-0.27884492,-0.31527002,0.94900201,0,0)" />
  <path
     id="path4212-7-1"
     style="fill:none;fill-opacity:1;fill-rule:evenodd;stroke:#000000;stroke-width:1.99999988;stroke-linecap:butt;stroke-miterlimit:4;stroke-dashoffset:0;stroke-opacity:1"
     d="m 204.09935,159.00304 3.7611,-158.00304166 c -68.95347,0 -137.906947,0 -206.860421,0 L 4.761129,159.00304 c 1.64138,68.95393 2.88226,67.30563 99.669111,84.64438 96.78685,-17.33875 98.02773,-15.69045 99.66911,-84.64438 z"
     inkscape:connector-curvature="0"
     sodipodi:nodetypes="sccscs" />
</svg>
