<?xml version="1.0" encoding="UTF-8"?>
<!DOCTYPE svg  PUBLIC '-//W3C//DTD SVG 1.0//EN'  'http://www.w3.org/TR/2001/REC-SVG-20010904/DTD/svg10.dtd' [
	<!ENTITY ns_flows "http://ns.adobe.com/Flows/1.0/">
	<!ENTITY ns_svg "http://www.w3.org/2000/svg">
	<!ENTITY ns_xlink "http://www.w3.org/1999/xlink">
]>
<svg width="590" height="747" enable-background="new -0.857 -0.686 590 747" version="1.0" viewBox="-.857 -.686 590 747" xml:space="preserve" xmlns="http://www.w3.org/2000/svg">

<path d="M1,1v448.809C1,612.474,132.37,744.34,294.423,744.34  c162.056,0,293.424-131.866,293.424-294.531V1H1z" fill="#E2001A" stroke="#000" stroke-width="2"/>
<path d="m507.43 29.438c-0.544 0.054-1.025 0.349-1.3 0.823-0.273 0.473-0.304 1.066-0.078 1.564 8.588 19.126 10.802 41.111-5.226 60.14-7.94 9.428-16.068 14.014-23.467 19.119-4.168 2.875-8.045 6.09-11.403 10.235 2.75-4.364 6.571-7.803 9.415-10.394 14.095-12.848 16.492-33.68 11.27-51.099-0.206-0.87-1.028-1.446-1.909-1.299-0.883 0.147-1.521 0.967-1.432 1.857 0.467 12.332-9.178 24.115-18.008 31.767-8.52 7.386-17.481 10.559-24.395 17.422-0.014 0.013-0.038 0.011-0.053 0.026-9e-3 9e-3 -0.019 0.018-0.026 0.026-0.059 0.059-0.128 0.1-0.186 0.16-14.673 11.233-22.164 27.415-22.831 37.283-0.624 9.22 2.015 18.997 7.239 26.782 4.961 7.393 12.389 12.971 21.559 14.267 0.319 10.306 3.819 19.639 6.443 29.248 0.788 2.888 1.637 5.565 2.466 8.327-0.892 0.666-1.77 1.345-2.625 2.042-9.935 8.097-15.836 13.36-22.034 27.286-5.543 12.449-5.329 28.853-5.464 42.958-0.9-1.819-1.768-3.441-2.679-5.17-1.927-3.654-4.054-7.97-7.08-16.626-0.605-1.735-2.324-7.848-2.863-14.504-0.541-6.657 0.152-13.813 3.632-18.032 0.456-0.546 0.542-1.32 0.187-1.936-0.355-0.615-1.077-0.942-1.777-0.822-6.613 1.143-11.405 5.676-14.451 11.244s-4.472 12.222-4.614 18.191c-0.32 13.445 3.941 26.588 11.481 37.362 5.004 7.15 10.543 14.312 14.187 21.717 3.645 7.406 5.431 14.949 3.183 23.229-3.781 13.933-19.935 23.015-34.817 23.547-5.495 0.197-9.858-1.659-13.312-4.799-3.452-3.139-5.976-7.611-7.397-12.543-5.803-20.121-8.159-41.531-18.828-60.777-2.354-4.249-6.023-8.321-8.591-12.463-2.567-4.141-3.978-8.063-2.466-12.33 2.757-7.785 4.07-17.124 4.587-26.438 2.656 4.821 6.743 8.745 11.375 11.031 0.604 0.299 1.341 0.219 1.857-0.212s0.716-1.13 0.53-1.776c-4.314-15.098-1.17-20.021 3.607-28.294 3.942-6.832 5.76-14.493 6.735-21.373 0.329 1.136 0.661 2.257 1.139 3.394 1.244 2.958 3.465 5.462 5.622 7.425 2.157 1.964 4.191 3.333 5.489 3.978 0.611 0.314 1.358 0.236 1.883-0.212 0.523-0.448 0.719-1.176 0.504-1.83-4.346-13.815 0.473-23.303 3.5-31.343 1.762-4.68 1.569-8.921 0.981-13.047-0.021-0.141-0.06-0.283-0.081-0.423 3.105 5.185 7.019 8.374 11.986 11.455 0.655 0.408 1.509 0.317 2.068-0.212 0.561-0.53 0.689-1.365 0.319-2.042-4.648-8.474-8.358-18.514-6.445-27.472 1.493-6.979 0.468-12.246-1.961-16.653 1.301 0.525 2.585 1.084 4.005 1.379 4.007 0.832 8.643 0.188 11.798-3.818 0.377-0.48 0.47-1.132 0.239-1.697-0.229-0.565-0.747-0.955-1.351-1.034-4.264-0.59-7.35-3.133-10.104-6.603-2.561-3.224-4.708-7.159-7.054-10.66 5.544-5.513 7.554-13.552 5.754-21.399-1.467-6.388-4.085-13.375-8.273-18.88-3.638-4.783-8.655-8.28-14.851-9.149 0.074-0.568 0.083-0.962 0.267-1.511 0.398-1.195 1.67-3.39 6.549-7.319 0.604-0.484 0.822-1.309 0.505-2.016-0.32-0.706-1.094-1.113-1.856-0.98-10.512 1.943-19.679 3.128-28.904-0.133-9.78-3.458-19.041-6.873-30.335-6.045-10.675 0.78-22.441 4.588-29.275 13.656-3.548 4.708-7.962 5.875-13.152 5.993-5.189 0.117-10.954-1.013-16.44-0.876-4.639 0.117-7.501 0.787-9.096 2.785-0.797 0.999-1.07 2.27-0.981 3.42 0.088 1.151 0.474 2.26 0.955 3.367 1.833 4.218 5.194 8.994 5.515 12.729-1.94 1.694-3.265 3.605-3.686 5.622-0.483 2.318 0.053 4.625 1.219 6.576 0.631 1.054 1.472 1.984 2.414 2.837-0.991 5.009-6e-3 12.776 2.227 18.959-2.718-0.216-5.408-0.351-8.061-0.477-10.803-0.518-21.95-2.47-30.494-9.122-2.24-1.743-3.699-3.6-4.429-5.621-0.73-2.023-0.786-4.282 0.106-7.134 0.987-3.155 1.859-4.035 5.834-6.603 0.592-0.386 0.895-1.112 0.742-1.803-0.154-0.69-0.732-1.201-1.432-1.299-4.364-0.543-8.011-1.03-11.959-0.372-9.271 1.546-16.526 9.664-15.937 19.304 0.608 9.929 7.537 18.025 16.255 21.585 15.766 6.438 38.375 5.081 47.65 4.773 4.004-0.135 7.235 0.061 10.077 0.477-0.495 0.182-0.876 0.583-1.035 1.087-1.505 4.917-3.003 12.234-0.848 18.562-1.12 0.548-2.164 1.31-2.784 2.625-1.074 2.276-0.73 4.797 0.238 6.921 0.969 2.123 2.573 3.95 4.534 5.011 1.94 1.049 4.311 1.3 6.683 1.193 2.371-0.105 4.733-0.587 6.577-1.458 9e-3 -9e-3 0.018-0.017 0.026-0.026 2.48-1.278 4.538-2.72 6.47-4.243-1.93 2.85-3.838 5.702-5.86 8.538-2.624 3.682-7.399 7.026-12.252 8.539-4.851 1.513-9.548 1.218-12.594-1.618-5.222-4.861-12.375-7.846-19.49-8.247-7.115-0.4-14.285 1.867-19.066 7.716-0.471 0.566-0.525 1.366-0.133 1.989 0.393 0.622 1.143 0.924 1.856 0.743 4.445-1.112 9.823-1.287 14.054 0.16 3.84 1.312 6.648 3.825 7.691 8.299-4.088 1.551-8.153 1.36-12.225 0-4.502-1.504-8.919-4.339-12.861-7.372-10.157-7.816-25.497-5.355-34.737 3.288-8.017 7.498-8.799 18.625-9.97 27.524-2.028 0.209-4.199 0.795-6.523 1.565-2.775 0.918-5.68 1.942-8.14 2.519-9.674 2.264-20.483 0.97-30.787 0.902-2.51-2.651-3.965-5.288-5.171-8.061-1.278-2.939-2.351-6.03-4.454-9.096-2.342-3.414-6.24-4.913-10.051-4.641-1.305 0.093-2.587 0.479-3.845 0.956-2.39-2.653-4.861-4.147-7.318-4.562-0.269-0.045-0.505 0.047-0.77 0.026v-73.24h51.497c0.937 0 1.696-0.76 1.696-1.697v-56.639c0-0.938-0.759-1.697-1.696-1.697h-51.496v-0.875c0-5.49-4.481-9.971-9.97-9.971-5.49 0-9.971 4.481-9.971 9.971v0.875h-51.495c-0.937 0-1.697 0.76-1.697 1.697v56.641c0 0.937 0.76 1.697 1.697 1.697h51.522v73.24c-3.575 0.436-7.745 1.012-11.296 3.182-3.77 2.303-6.549 6.581-6.549 13.365 0 4.345 1.57 7.366 3.765 9.44-1.834 1.279-3.501 2.872-4.455 4.613-2.373 4.335-1.067 9.071 1.883 12.278 0.792 0.861 1.711 1.61 2.705 2.281-2.188 2.377-2.785 5.686-2.227 8.75 0.683 3.761 2.762 7.339 5.674 9.439 0.035 0.028 0.07 0.055 0.105 0.08 2.755 1.706 5.719 2.301 8.592 2.175 0.546 0.354 1.247 0.364 1.803 0.026v29.089c-5.334 2.283-8.938 7.881-10.156 13.577-0.631 2.95-0.623 5.934 0.265 8.592 0.691 2.068 1.99 3.931 3.872 5.198-0.36 0.567-0.555 0.882-1.034 1.696-0.872 1.478-1.809 3.255-2.228 5.224-0.419 1.968-0.24 4.27 1.247 6.125 0.451 0.564 1.018 1.059 1.669 1.511-0.452 0.512-0.834 1.088-1.06 1.698-0.517 1.392-0.474 2.851-0.133 4.242 0.275 1.123 0.761 2.196 1.379 3.182-1.198-0.035-2.352 0.02-3.421 0.319-0.968 0.271-1.938 0.769-2.625 1.617-0.688 0.849-0.982 1.98-0.928 3.155 0.012 0.335 0.123 0.658 0.318 0.929 3.754 5.096 8.147 8.071 12.807 9.386v58.338c0 5.492 4.479 9.97 9.971 9.97 5.491 0 9.944-4.483 9.944-9.97v-60.962c1.153-0.508 2.32-1 3.473-1.591 12.674-6.502 25.38-17.619 35.745-24.422 37.108 2.204 50.195-0.836 56.375-4.985 3.111-2.087 4.338-4.421 5.49-5.728 1.15-1.307 2.127-2.042 6.151-2.042 4.988 0 12.4 7.127 28.241 1.591 0.133 0.92 0.149 1.761 0.424 2.785 2.606 9.726 10.561 16.343 19.438 23.069 8.877 6.728 18.804 13.615 26.119 23.548 2.057 2.796 3.28 5.938 4.216 9.174-0.142 6.101-1.565 12.825-5.197 17.051-6.865 7.988-17.594 12.238-27.763 16.652-10.646 4.625-22.218 7.593-32.855 13.655-10.405 5.935-15.73 17.168-15.963 28.244-0.112 5.308-1.878 9.851-5.383 13.441-3.506 3.596-8.845 6.277-16.228 7.479-0.765 0.146-1.309 0.787-1.353 1.564s0.423 1.493 1.167 1.725c3.196 0.913 7.664 1.017 12.888 0.794-3.567 3.753-6.577 8.828-8.38 14.453-2.396 7.471-2.625 15.975 1.405 23.335 0.314 0.57 0.942 0.909 1.591 0.874 0.649-0.032 1.206-0.436 1.458-1.034 6.289-14.568 10.401-19.179 14.266-23.255 2.846-3.001 5.659-5.826 8.777-11.694 0.196 6.527 1.329 10.948 2.758 14.506 1.971 4.903 4.219 8.047 5.17 13.762 2.107 12.663-4.909 23.37-10.421 34.656-5.196 10.645-13.698 19.627-21.452 29.038-4.096 4.973-8.974 6.496-14.055 5.888-5.08-0.61-10.37-3.529-14.557-7.718-2.247-2.248-2.212-3.452-1.591-4.985 0.622-1.533 2.353-3.319 4.137-5.144 1.785-1.825 3.747-3.701 4.11-6.364 0.181-1.333-0.193-2.795-1.114-4.058-0.056-0.074-0.154-0.138-0.212-0.212 4.603-4.553 6.764-9.934 5.224-15.114-1.638-5.509-7.006-10.292-16.068-13.87-8e-3 -3e-3 -0.02 5e-3 -0.027 0-0.847-0.249-1.723 0.186-2.042 1.009-0.318 0.823 0.027 1.763 0.823 2.146 7e-3 3e-3 0.018-3e-3 0.026 0 0.02 9e-3 0.033 0.02 0.053 0.028 1.52 0.605 3.572 2.805 4.27 4.533 0.351 0.875 0.316 1.498 0.238 1.671-0.078 0.176-0.133 0.397-1.272 0.451-2.948 0.139-5.04 2.352-6.046 4.799-0.771 1.876-0.868 3.94-0.53 5.913-2.9-0.771-5.346-0.816-7.479-0.025-2.216 0.822-3.858 2.55-5.065 4.721-0.406 0.731-0.725 1.598-1.061 2.438-0.074-0.255-0.107-0.514-0.185-0.769-2.154-7.053-7.072-11.987-12.834-12.278-2.655-0.131-5.376 0.836-7.823 2.811-10.62-7.951-19.655-7.95-25.139-3.738-5.626 4.324-7.292 12.518-3.924 19.066 0.336 0.677 1.085 1.037 1.83 0.901 0.743-0.135 1.302-0.732 1.378-1.485 0.185-1.524 1.85-3.738 3.394-4.534 0.771-0.398 1.368-0.446 1.723-0.318 0.357 0.129 0.801 0.434 1.167 1.698 0.77 2.659 2.231 5.232 4.27 7.105 1.792 1.648 4.176 2.695 6.709 2.44 0.346 3.079 1.426 5.864 3.076 8.3 3.271 4.831 8.582 8.286 14.451 10.42 1.889 0.687 3.122 1.235 4.031 1.697-0.065 0.018-0.065 0.037-0.133 0.055-1.672 0.396-4.095 0.761-6.337 1.298-2.242 0.538-4.42 1.002-5.728 2.891-0.064 0.093-0.073 0.198-0.133 0.292-8.481-3.655-17.363-0.756-22.089 5.356-4.917 6.359-5.096 16.266 3.606 24.582 0.504 0.48 1.251 0.609 1.883 0.317s1.021-0.95 0.981-1.644c-0.353-5.827 0.334-8.604 0.743-9.149 0.204-0.272 0.151-0.239 0.531-0.238 0.378 2e-3 1.111 0.174 2.015 0.504 1.808 0.66 4.256 1.862 7.107 2.067 2.48 0.18 5.253-0.681 7.77-3.022 1.437 3.106 2.834 6.289 3.633 9.573 0.54 2.22 1.437 3.892 2.811 4.933 1.374 1.04 3.067 1.243 4.667 1.033 3.198-0.415 6.495-2.237 9.998-3.845 3.502-1.606 7.135-2.994 10.341-2.891 3.125 0.103 5.974 1.406 8.777 5.702 0.018 1.778 0.125 3.951 0.504 6.362-7.411 1.627-10.526 7.511-12.676 9.627-0.555 0.547-1.008 0.794-1.326 0.876-0.317 0.08-0.627 0.094-1.326-0.267-1.398-0.718-3.903-3.147-7.531-8.14-0.461-0.631-1.267-0.879-1.988-0.583-0.723 0.295-1.174 1.058-1.061 1.829 1.46 10.434 9.093 17.91 17.236 20.524 4.071 1.307 8.328 1.417 12.039-0.081 3.248-1.308 5.947-3.959 7.61-7.741 1.396 0.462 2.935 0.742 4.64 0.742 7.866 0 13.854-3.938 16.626-9.732 2.253-4.706 2.289-10.549 0.106-16.414 1.27 0.917 2.49 2.213 3.633 3.951 2.188 3.328 3.979 8.165 4.826 14.239 0.107 0.798 0.762 1.401 1.565 1.458 0.801 0.06 1.53-0.445 1.75-1.219 1.691-5.772 5-10.403 6.231-15.938 0.251-1.128 0.31-2.306 0.318-3.499 0.631 2.175 1.079 4.344 1.167 6.338 0.036 0.842 0.7 1.53 1.538 1.617 0.837 0.085 1.596-0.456 1.803-1.272 3.026-11.714 6.492-17.53 8.511-23.176 0.929-2.597 1.417-5.206 1.405-8.143 1.317 4.911 0.859 9.523 0.053 15.54-0.101 0.753 0.312 1.475 1.008 1.777 0.696 0.301 1.508 0.109 1.988-0.478 4.162-5.036 17.46-18.069 17.051-34.792 1.136 3.334 2.042 7.5 2.042 13.1 0.01 0.717 0.489 1.333 1.167 1.565 0.678 0.231 1.409 0.029 1.856-0.53 5.199-6.752 6.598-13.089 7.637-18.906 0.842-4.714 1.566-9.046 3.739-13.445 0.721 3.092 1.861 6.411 3.952 10.022 0.347 0.592 1.019 0.915 1.696 0.822 0.678-0.091 1.229-0.584 1.406-1.246 1.967-7.699 4.412-9.37 7.133-11.454 2.72-2.086 5.795-4.74 6.921-12.331 2.192-14.703-3.062-29.36 1.352-42.507 3.16-9.404 8.371-18.951 15.09-26.277 2.33-2.542 5.029-5.044 7.9-6.604 2.873-1.56 5.812-2.222 9.096-1.219 0.136 0.052 0.28 0.088 0.425 0.104 3.44 3.044 6.985 5.582 10.156 7.318 0.428 0.231 0.947 0.273 1.405 0.107 0.457-0.169 0.804-0.529 0.981-0.981 0.698-1.782 0.874-4.006 0.849-6.285-9e-3 -0.738-0.184-1.32-0.238-2.042 4.104 3.556 6.795 8.188 8.272 13.231 1.822 6.223 1.856 12.954 0.794 18.403-0.137 0.667 0.156 1.337 0.718 1.725 0.561 0.389 1.28 0.419 1.855 0.053 5.873-3.638 8.402-8.954 8.883-14.558 0.084-0.972 0.045-1.954 0.028-2.945 5.334 11.076 9.711 15.67 13.55 19.067 5.107 4.521 8.863 6.627 13.71 20.419 0.281 0.763 1.079 1.222 1.881 1.087 0.805-0.137 1.391-0.829 1.406-1.646 0-11.835-4.55-19.979-8.46-27.418-2.474-4.71-4.54-9.173-5.435-14.267 1.179 2.221 2.506 4.066 4.03 5.596 3.269 3.282 7.19 5.284 11.985 8.141 7.327 4.365 16.113 7.121 23.731 10.953 7.621 3.828 13.964 8.572 16.999 16.837 4.929 13.417 10.425 29.343 10.289 43.699-0.025 2.703-0.884 3.803-2.467 4.827-1.585 1.023-4.063 1.714-6.789 2.521-2.724 0.803-5.721 1.776-8.298 3.79-1.845 1.44-3.402 3.467-4.429 6.153-3.979-5.564-4.503-11.142-4.88-16.15-0.218-2.897-0.397-5.621-1.592-8.008-1.192-2.385-3.587-4.171-7.186-4.8-1.872-0.326-3.503-3e-3 -4.905 0.689-8.12-7.633-15.722-8.754-21.399-6.788-5.708 1.978-9.354 6.585-10.474 10.209-0.185 0.61-9e-3 1.257 0.45 1.698 0.458 0.442 1.12 0.603 1.724 0.396 2.983-0.998 4.514-0.92 5.304-0.583 0.787 0.337 1.322 1.079 2.016 2.52 1.277 2.655 3.04 7.066 8.325 10.023-1.865 2.236-3.19 4.302-3.473 6.205-0.389 2.608 0.974 4.804 2.705 6.336 1.353 1.199 3.021 2.199 4.64 3.236-1.535-0.339-3.046-0.586-4.508-0.558-2.083 0.04-4.116 0.552-5.807 1.803-1.692 1.251-2.953 3.182-3.714 5.729-0.021 0.063-0.039 0.122-0.052 0.187v0.026c-2.311 1.594-6.617 4.104-9.572 9.387-3.1 5.537-4.544 13.922-1.222 26.915 0.215 0.828 1.009 1.354 1.857 1.246s1.485-0.815 1.484-1.67c0-5.855 0.569-9.318 1.326-10.979 0.379-0.83 0.744-1.186 1.114-1.405 0.37-0.218 0.838-0.351 1.564-0.345 2.854 0.028 8.674 2.613 15.803 1.063 0.392 0.655 0.871 1.234 1.486 1.723 1.196 0.95 2.925 1.246 4.613 0.769 2.939-0.829 6.638-3.813 11.748-8.724-0.029 0.134-0.011 0.218-0.055 0.37-0.299 1.073-1.095 2.489-1.988 4.084-1.656 2.957-3.56 6.836-2.36 11.19-8.15 16.035 0.665 33.248 15.436 35.348 0.725 0.104 1.449-0.271 1.773-0.929 0.327-0.655 0.18-1.449-0.343-1.962-4.759-4.606-6.182-7.436-6.205-8.698-0.012-0.63 0.167-1.017 0.662-1.564 0.494-0.547 1.349-1.162 2.387-1.803 2.079-1.28 4.905-2.682 6.947-5.276 1.771-2.252 2.634-5.482 1.936-9.652 0.368 0.046 0.714 0.176 1.087 0.185 2.481 0.07 5.074-0.901 7.239-3.286 5.071-5.588 4.461-10.492 4.403-14.188-0.03-1.848 0.085-3.414 0.98-5.171 0.696-1.362 2.188-2.964 4.35-4.719 1.347 4.706 2.728 8.063 4.428 9.971 0.747 0.837 1.613 1.357 2.493 1.723-0.84 1.824-1.163 3.627-1.034 5.172 0.156 1.913 0.587 3.508 0.608 4.825 0.022 1.316-0.183 2.33-1.512 3.739-1.328 1.408-3.92 3.109-8.536 4.985-0.694 0.288-1.114 1.004-1.035 1.75s0.641 1.35 1.379 1.484c9.392 1.673 17.654 0.226 22.938-4.376 5.09-4.432 6.879-11.783 4.296-20.762 7.514-6.103 8.734-14.048 7.132-21.214-1.302-5.823-4.259-11.007-7-15.355 2.283 0.641 4.165 1.904 5.781 3.661 2.336 2.541 4.055 6.056 5.25 9.601 0.2 0.599 0.728 1.039 1.353 1.14 0.623 0.101 1.24-0.155 1.616-0.664 3.935-5.212 5.476-12.891 4.11-20.471-0.988-5.497-3.642-10.936-8.087-15.274 5.606 1.98 10.934 6.342 13.127 12.755 0.24 0.684 0.892 1.121 1.616 1.115 0.726-5e-3 1.361-0.456 1.592-1.143 2.21-6.612 3.096-14.451-0.159-21.98-2.275-5.264-6.723-10.206-13.709-14.479 4.997 1.644 9.182 4.224 11.959 7.69 0.427 0.523 1.125 0.74 1.775 0.557 0.65-0.185 1.131-0.734 1.221-1.404 2.073-16.429-7.661-30.472-20.895-37.178 3.406 0.838 5.739 2.303 9.015 3.845 0.552 0.261 1.226 0.192 1.724-0.158 0.499-0.353 0.747-0.931 0.69-1.54-1.407-16.49-12.454-35.222-33.651-43.513-18.021-7.051-29.042-13.346-35.797-19.015-6.757-5.664-9.293-10.612-10.581-15.485-1.288-4.871-1.21-9.792-2.545-15.035-0.997-3.902-2.858-7.938-6.604-12.012 15.31 3.178 30.354 3.816 46.645 0.821 7.063-1.298 18.414-6.209 29.38-13.523 10.965-7.313 21.474-17.017 26.279-28.24 0.016-0.036 0.04-0.068 0.052-0.106 4.847-14.339 7.167-28.933 6.02-42.958-2.024-24.737-8.355-48.31-14.213-72.206 6.084-1.739 12.918-1.553 18.695 0.636 6.258 2.372 11.173 6.85 12.886 13.259 3.354 12.542-3.138 24.947-13.178 31.423-0.605 0.407-0.882 1.153-0.69 1.856 0.192 0.702 0.812 1.203 1.538 1.246 6.704 0.294 14.242 0.136 20.975-2.042 4.554-1.472 8.664-4.05 11.854-7.875-0.703 4.465-2.126 8.667-5.17 12.436-10.563 13.076-15.045 23.388-16.097 32.59-1.051 9.202 1.34 17.133 4.058 25.376 0.281 0.761 1.082 1.216 1.883 1.087 0.8-0.128 1.377-0.807 1.406-1.618 0-11.451 4.409-17.782 11.268-23.758 5.036-4.386 8.976-8.453 12.146-12.331-4.482 8.052-9.096 16.657-9.096 29.249 0 18.341 7.358 39.42 20.154 52.212 0.583 0.564 1.507 0.625 2.174 0.159 0.665-0.467 0.887-1.327 0.557-2.068-4.507-9.929-6.506-23.256-6.15-31.715 0.636-15.233 2.322-29.965 10.817-41.685 6.344-8.752 9.129-18.43 9.228-28.851 0.133-14.001-2.786-27.189-8.061-40.014-4.35-10.582-9.971-16.076-16.017-18.801-6.045-2.725-12.324-2.74-18.031-3.022-3.25-0.161-6.659-2.872-12.013-5.808-5.354-2.935-12.64-5.796-23.732-5.488-5.714 0.159-11.114 1.374-16.229 3.155-2.214-10.742-3.396-21.71-0.052-31.316 2.924-8.405 8.65-13.117 15.564-17.262 6.913-4.146 14.951-7.554 21.822-13.233 8.838-7.303 12.12-15.012 12.888-22.459 0.77-7.448-0.809-14.597-1.273-21.294-0.074-0.777-0.657-1.398-1.431-1.511-0.772-0.112-1.535 0.31-1.83 1.035-7.932 20.669-18.395 26.894-28.427 31.263-5.016 2.184-9.965 3.833-14.371 6.55-0.513 0.316-0.988 0.71-1.485 1.06 2.147-3.241 4.621-6.658 7.479-10.208 7.557-9.393 16.786-19.059 23.308-24.741 19.599-16.377 21.826-37.679 18.643-49.587-3.191-11.931-8.461-23.62-15.114-33.968-4e-3 -6e-3 4e-3 -0.02 0-0.026-0.046-0.07-0.089-0.143-0.134-0.213-0.34-0.531-0.953-0.828-1.586-0.767zm-225.61 81.275c3.725 5.91 9.499 10.94 12.915 13.949 0.566 0.506 1.399 0.566 2.041 0.159s0.933-1.182 0.716-1.91c-0.611-2.076-0.624-4.295-0.397-6.231 0.544 1.068 1.025 2.165 1.3 3.262 0.892 3.553 1.169 7.012 1.194 10.527-0.838 5.186-2.367 8.29-4.218 10.739-3.297-4.099-8.579-8.005-13.577-10.818-2.066-1.164-4.199-2.049-6.364-2.811 0.473-0.322 0.752-0.86 0.742-1.432-0.11-6.723 2.625-12.283 5.648-15.434zm-13.656 0.107c0.623 6.093 1.774 11.449 4.747 15.99-3.35-0.967-6.757-1.539-10.184-1.936 0.562-2.434 1.198-5.806 2.308-8.857 0.819-2.248 1.873-4.068 3.129-5.197zm0.77 27.552c8.24 1.574 12.516 5.54 18.747 10.42-2.886 2.039-6.229 3.789-9.307 5.171-2.765-2.004-4.377-3.711-5.516-5.754-1.234-2.213-2.05-4.99-3.341-9.016-0.107-0.327-0.31-0.613-0.583-0.821zm192.88 107.68c3.22 10.282 6.27 20.781 8.539 32.935 4.198 22.49 8.252 48.302-3.103 68.414-4.932 8.732-9.813 15.085-25.298 22.54 1.965-3.492 4.112-8.343 5.037-18.775 2.014-22.678-2.534-32.66-4.135-48.313-1.301-12.699-0.011-25.232 4.799-36.753 4.083-9.78 8.379-15.331 14.161-20.048zm-367.29 12.755c3.596 3.318 8.139 5.769 12.702 7.133 2.332 0.698 4.507 0.191 6.285-0.663 1.777-0.854 3.256-2.034 4.534-2.917 1.278-0.884 2.318-1.353 2.917-1.353s1.271 0.204 2.414 1.988c2.404 3.758 6.301 5.506 10.315 6.286 4.014 0.779 8.264 0.682 11.853 0.743 6.331 0.106 12.057 2.481 17.449 5.753-0.079 0.094-0.189 0.172-0.266 0.266-4.113 5.012-12.086 8.44-20.259 10.766-8.174 2.325-16.425 3.599-21.399 4.932-2.199 0.589-3.873 0.381-5.595-0.265-1.724-0.646-3.49-1.811-5.463-3.181-3.771-2.622-8.46-5.89-15.486-6.71v-22.778z"/>
<path d="m302.96 130.04c-0.102-3.374-0.417-7.537-1.273-10.952-0.73-2.918-2.316-5.325-3.395-7.24-1.6-2.839-3.923-4.707-6.55-5.753-2.626-1.046-5.531-1.338-8.458-1.326-5.857 0.025-12.008 1.259-16.6 1.167-4.05-0.082-7.824-2.359-9.44-5.065-0.809-1.353-1.114-2.738-0.822-4.136 0.292-1.399 1.199-2.896 3.182-4.375 0.43-0.318 0.685-0.818 0.689-1.354 0-5.701-4.313-10.982-5.912-14.663-0.401-0.919-0.622-1.736-0.665-2.28-0.042-0.545 0.028-0.768 0.239-1.035 0.426-0.532 2.254-1.404 6.523-1.511 4.931-0.124 10.727 1.004 16.441 0.874 5.716-0.129 11.568-1.725 15.804-7.344 5.972-7.921 16.742-11.595 26.782-12.331 10.479-0.767 19.151 2.421 28.957 5.887 8.371 2.959 16.606 2.477 25.19 1.141-1.871 1.993-3.118 3.709-3.554 5.011-0.345 1.036-0.397 1.888-0.45 2.254-0.011 0.077-0.026 0.02-0.026 0.053-4.533 0.243-8.537 2.851-11.428 6.364-0.235 0.284-0.416 0.605-0.638 0.901-2.243 0.267-4.582-0.231-6.604-1.405-0.813-0.476-1.855-0.204-2.333 0.609-0.476 0.814-0.203 1.858 0.61 2.334 1.875 1.087 4.013 1.767 6.205 1.936-1.355 2.676-2.242 5.528-2.307 8.3-0.021 0.938 0.721 1.716 1.656 1.737 0.938 0.021 1.716-0.72 1.738-1.657 0.078-3.376 1.728-7.46 4.295-10.581 2.569-3.12 5.948-5.212 9.414-5.224 6.372-0.022 11.195 3.251 14.956 8.194 3.762 4.943 6.304 11.515 7.689 17.554 1.868 8.142-0.854 16.189-7.822 20.684-3.424 2.208-6.592 3.896-9.521 4.375-2.927 0.479-5.645-0.068-8.855-2.757-0.457-0.434-1.119-0.576-1.716-0.372s-1.029 0.723-1.127 1.346c-0.097 0.624 0.161 1.249 0.669 1.624 3.81 3.191 7.818 4.116 11.588 3.5 3.77-0.617 7.275-2.594 10.817-4.879 0.305-0.196 0.56-0.428 0.851-0.636 2.149 3.257 4.313 7.103 7.054 10.553 2.385 3.003 5.342 5.633 9.095 7-1.865 1.136-3.982 1.18-6.338 0.689-3.288-0.682-6.744-2.547-9.176-3.951-0.729-0.388-1.636-0.192-2.14 0.463-0.507 0.657-0.463 1.581 0.1 2.188 4.87 4.87 7.172 9.829 5.171 19.198-1.722 8.058 0.462 16.348 3.791 23.785-4.451-3.691-7.401-8.296-9.918-17.687-0.212-0.828-1.008-1.369-1.857-1.261-0.849 0.107-1.484 0.83-1.483 1.686 0 5.154 1.007 9.451 1.564 13.365 0.56 3.914 0.704 7.391-0.796 11.375-2.606 6.927-7.092 16.384-4.666 28.983-0.496-0.391-0.738-0.439-1.247-0.901-1.93-1.756-3.831-3.993-4.772-6.232-2.187-5.201-2.493-9.467-2.493-20.922 3e-3 -0.855-0.635-1.578-1.484-1.686-0.846-0.107-1.644 0.433-1.855 1.261-0.028 0.102-0.028 0.317-0.055 0.424v0.08c-0.326 1.468-0.437 3.262-0.583 5.78-0.159 2.739-0.355 6.081-0.77 9.732-0.828 7.302-2.581 15.792-6.707 22.938-4.312 7.465-7.648 13.867-4.96 26.624-5.223-3.97-9.228-10.348-9.228-17.422v-21.055c-0.041-0.821-0.665-1.496-1.479-1.599-0.816-0.105-1.59 0.391-1.835 1.175-2.585 9.651-5.133 13.226-7.638 15.646-2.502 2.42-5.497 3.908-8.166 8.565-3.343 5.828-4.181 12.628-3.818 18.8 0.285 4.88 1.381 9.076 2.677 12.517-3.398-0.422-7.681-1.303-14.558-6.842-3.771-3.038-6.161-7.313-6.55-13.842-0.388-6.529 1.365-15.292 6.126-26.756 0.378-0.801 0.072-1.759-0.699-2.197s-1.749-0.208-2.245 0.527c-8.582 11.506-12.862 18.175-15.883 24.953-3.015 6.768-5.736 20.42 1.059 33.915-4.468-1.282-8.741-4.084-12.409-7.742-4.573-4.563-8.16-10.278-10.049-15.115-1.665-4.263-2.404-9.205-2.466-13.603s0.581-8.315 1.353-10.289c1.536-3.924 2.794-5.228 5.25-6.868 0.784-0.527 0.992-1.59 0.464-2.374s-1.59-0.991-2.374-0.464c-2.801 1.872-4.8 4.151-6.497 8.485-0.992 2.532-1.515 6.326-1.538 10.634-10.638 0.317-21.689 3.696-29.912 11.27-7.055 6.498-12.169 15.778-13.524 25.297-1.765-2.073-3.282-4.997-4.349-8.299-1.503-4.658-2.204-9.96-2.042-14.134 0.441-11.343 7.31-21.939 16.361-29.037 2.914-2.284 6.644-3.539 10.369-3.897 0.636-0.019 1.209-0.391 1.483-0.964 0.275-0.574 0.206-1.253-0.18-1.76-0.385-0.507-1.021-0.755-1.647-0.645-4.254 0.411-8.58 1.813-12.119 4.587-3.845 3.016-7.307 6.665-10.156 10.713-10.566-2.623-17.161 2.077-20.126 4.19-2.108 1.501-4.571 3.279-6.895 6.603-1.771 2.533-3.431 6.38-4.985 11.244-3.606-10.897-3.141-26.26 1.485-35.905 1.878-3.915 4.535-5.808 7.955-7.159 3.42-1.352 7.598-2.042 11.96-3.209 0.724-0.215 1.219-0.884 1.212-1.641-5e-3 -0.756-0.511-1.417-1.239-1.62-11.302-2.89-22.438 2.179-31.185 8.856 1.127-8.543 2.293-17.766 8.672-23.732 8.089-7.566 21.826-9.644 30.361-3.076 4.094 3.15 8.786 6.23 13.869 7.928 5.084 1.698 10.635 1.967 16.043-0.609 0.664-0.316 1.048-1.022 0.954-1.75-0.882-6.598-5.182-10.639-10.289-12.383-3.191-1.09-6.683-1.335-10.077-1.114 3.512-2.201 7.695-3.163 12.065-2.917 6.281 0.354 12.778 3.099 17.369 7.372 4.217 3.925 10.334 4.098 15.911 2.359 5.576-1.738 10.832-5.363 14-9.811 4.845-6.797 10.156-14.223 13.564-22.009 0.619-1.488 1.481-3.426 1.949-4.985 2.252-7.488 3.356-14.854 3.372-21.265z" fill="#fff"/>
<path d="m514.73 47.784c2.552 5.68 4.674 11.572 6.258 17.501 2.817 10.533 1.026 30.614-17.555 46.14-9e-3 9e-3 -0.017 0.018-0.025 0.026-6.76 5.889-16.044 15.607-23.734 25.165-3.844 4.779-7.283 9.488-9.811 13.709-2.526 4.223-4.222 7.848-4.296 10.979-0.037 0.836 0.541 1.574 1.361 1.74s1.637-0.292 1.928-1.077c2.168-5.609 5.302-8.754 9.255-11.19 3.951-2.436 8.768-4.081 13.947-6.337 9.317-4.057 19.66-10.412 27.631-27.207 0.555 4.823 1.091 9.6 0.609 14.267-0.693 6.742-3.396 13.345-11.667 20.179-6.374 5.268-14.207 8.628-21.4 12.941-7.192 4.313-13.796 9.717-17.05 19.065-3.872 11.125-2.309 23.335 0.238 34.871 0.014 0.071 0.033 0.142 0.052 0.211 1.285 5.777 2.674 11.357 3.979 16.521 0 0.288 0.073 0.571 0.212 0.822 9e-3 0.018 0.018 0.036 0.026 0.053 0.078 0.311 0.163 0.673 0.239 0.981 5.883 24.011 12.19 47.461 14.186 71.861 1.099 13.417-1.111 27.499-5.807 41.446-0.014 0.045-0.034 0.088-0.053 0.132-4.392 10.161-14.413 19.558-25.005 26.624-10.638 7.097-21.938 11.859-28.107 12.992-17.943 3.301-34.19 2.302-51.233-1.988-0.77-0.181-1.562 0.194-1.911 0.905-0.349 0.71-0.159 1.566 0.452 2.065 6.461 5.129 8.774 9.706 9.972 14.397 1.198 4.694 1.14 9.62 2.572 15.036 1.433 5.419 4.469 11.199 11.668 17.235 7.198 6.038 18.506 12.443 36.725 19.57 18.602 7.277 28.684 23.088 31.026 37.522-4.213-2.145-8.737-4.16-18.986-3.103-0.854 0.077-1.517 0.78-1.543 1.638-0.027 0.855 0.59 1.598 1.437 1.729 15.545 2.575 29.261 16.408 29.116 33.518-5.513-4.953-13.374-8.008-22.673-8.008-0.818 5e-3 -1.518 0.594-1.662 1.401-0.144 0.808 0.313 1.603 1.079 1.886 12.967 4.876 19.396 11.261 22.222 17.794 2.174 5.031 2.208 10.28 1.192 15.221-4.619-7.733-13.232-11.959-20.896-11.959-0.773 0-1.447 0.522-1.641 1.272-0.195 0.75 0.143 1.534 0.819 1.909 7.202 4.051 10.987 10.615 12.197 17.343 0.982 5.453 0.135 10.899-1.908 15.062-1.178-2.725-2.569-5.389-4.588-7.585-2.819-3.064-6.688-5.224-11.562-5.224-0.625-3e-3 -1.201 0.337-1.501 0.886-0.298 0.549-0.273 1.219 0.068 1.738 3.052 4.597 6.982 10.976 8.407 17.343 1.378 6.165 0.551 12.09-5.49 17.316-2.34-0.489-4.559 0.069-6.418 0.876-2.159 0.938-4.04 2.105-5.487 2.518-1.446 0.414-2.161 0.44-3.475-1.033s-2.924-4.85-4.454-11.031c-0.135-0.543-0.527-0.986-1.054-1.182-0.524-0.196-1.112-0.121-1.571 0.2-3.83 2.639-6.036 5.069-7.266 7.478-1.229 2.412-1.385 4.724-1.353 6.763 0.066 4.081 0.858 7.022-3.528 11.854-1.629 1.799-2.952 2.218-4.612 2.175-1.661-0.045-3.674-0.758-5.939-1.672-4.065-1.637-9.129-3.689-14.771-2.227-0.446-2.721 0.758-5.23 2.256-7.903 0.877-1.563 1.8-3.108 2.278-4.825 0.481-1.719 0.354-3.781-0.98-5.436-0.297-0.377-0.743-0.611-1.223-0.641-0.482-0.03-0.953 0.145-1.297 0.48-6.37 6.354-10.441 9.212-12.383 9.759-0.969 0.275-1.213 0.167-1.592-0.133-0.376-0.299-0.887-1.084-1.353-2.308-1.777-4.672-2.862-14.754-10.87-21.187 0.563-1.371 1.252-2.391 2.068-2.997 1.019-0.754 2.266-1.107 3.845-1.14 3.156-0.061 7.441 1.385 11.746 3.262 0.702 0.315 1.528 0.12 2.014-0.478 0.483-0.597 0.508-1.445 0.055-2.067-3.413-4.829-9.135-7.023-11.748-9.335-1.305-1.155-1.79-1.935-1.59-3.287 0.201-1.352 1.438-3.632 4.641-6.815 4.194-4.17 6.273-8.505 8.089-11.321 0.907-1.408 1.753-2.396 2.571-2.917 0.816-0.525 1.641-0.747 3.181-0.479 2.887 0.503 3.963 1.48 4.721 2.997 0.759 1.518 1.029 3.859 1.247 6.735 0.432 5.754 0.947 13.606 7.771 20.843 0.441 0.457 1.102 0.63 1.712 0.445 0.608-0.185 1.063-0.694 1.177-1.32 0.651-3.859 2.161-6.015 4.137-7.559 1.978-1.539 4.54-2.426 7.186-3.208 2.646-0.781 5.374-1.435 7.664-2.917 2.289-1.48 3.971-4.059 4.003-7.663 0.146-15.234-5.557-31.432-10.499-44.894-3.424-9.32-10.712-14.694-18.669-18.694-7.956-3.999-16.661-6.777-23.493-10.846-4.883-2.906-8.563-4.839-11.35-7.637-2.785-2.796-4.878-6.533-6.604-13.524-0.2-0.771-0.912-1.299-1.709-1.27-0.798 0.031-1.467 0.618-1.605 1.402-1.737 10.827 2.002 18.57 5.939 26.067 2.354 4.478 4.664 9.011 6.232 14.187-3.183-5.261-6.32-7.906-9.52-10.739-4.886-4.328-10.338-10.096-18.191-30.866-0.023-0.062-0.03-0.097-0.052-0.158-0.318-0.84-1.235-1.287-2.092-1.02-0.858 0.266-1.358 1.153-1.144 2.027 0.017 0.063 0.037 0.121 0.053 0.184 1.438 5.58 2.612 11.178 2.2 15.964-0.313 3.652-1.442 6.819-4.137 9.494 0.452-4.997 0.094-10.507-1.457-15.806-2.001-6.832-6.019-13.311-12.782-17.501-0.592-0.375-1.354-0.348-1.917 0.07-0.565 0.416-0.814 1.137-0.629 1.813 0.35 1.293 0.615 3.406 0.638 5.437 0.011 1.14-0.21 1.866-0.346 2.811-9.012-5.706-20.505-17.586-21.93-29.354-2.265-18.709 4.217-30.638 4.217-47.095 0-6.965-0.674-13.402-3.262-18.88-2.587-5.476-7.155-9.883-14.372-12.542-0.579-0.249-1.247-0.158-1.736 0.236-0.49 0.394-0.721 1.026-0.602 1.645 0.12 0.617 0.569 1.118 1.171 1.301 6.534 2.408 10.221 6.045 12.461 10.792 2.245 4.748 2.945 10.71 2.945 17.448 0 6.634-1.221 12.724-2.413 19.013-3.805-1.356-6.255-3.323-7.955-5.808-1.918-2.804-2.945-6.34-3.713-10.314-0.893-4.631-1.529-9.823-2.969-14.956v-0.025c-0.018-0.101-0.044-0.198-0.08-0.293-0.036-0.125-0.096-0.244-0.134-0.37-1.023-3.439-2.35-6.854-4.666-9.998-7.737-10.506-18.02-17.575-26.809-24.236-8.789-6.66-15.963-12.828-18.218-21.24-0.936-3.496-0.845-5.888-0.238-7.743 0.607-1.854 1.768-3.3 3.341-4.747 3.149-2.892 7.991-5.604 10.792-11.349 0.295-0.548 0.267-1.214-0.074-1.734-0.342-0.521-0.942-0.813-1.562-0.761s-1.162 0.44-1.412 1.01c-2.303 4.721-6.448 7.056-10.024 10.342-1.788 1.643-3.446 3.584-4.296 6.179-0.335 1.025-0.415 2.207-0.478 3.42-15.367 5.776-20.276-1.512-28.001-1.512-4.592 0-7.116 1.388-8.697 3.182-1.582 1.794-2.345 3.505-4.826 5.171-4.964 3.332-17.496 6.647-54.917 4.375-0.355-0.02-0.708 0.074-1.007 0.265-10.806 7.019-23.646 18.28-35.878 24.555-3.058 1.57-6.056 2.822-8.962 3.632-0.406 0.114-0.792 0.144-1.193 0.239-1.325 0.252-2.653 0.454-3.924 0.53-1.042 0.063-2.024 5e-3 -3.023-0.053 0.544-2.478 0.926-4.801 0.371-7.266 1.16 0.206 2.25 0.347 3.209 0.292 0.937-0.051 1.655-0.853 1.604-1.79-0.052-0.936-0.853-1.655-1.79-1.605-0.661 0.039-2.48-0.248-4.535-0.662-1.253-0.253-2.708-0.483-4.109-0.743-0.138-0.142-0.3-0.258-0.478-0.345-1.311-0.628-2.796-2.581-3.235-4.375-0.219-0.896-0.185-1.71 0.027-2.28 0.211-0.57 0.536-0.972 1.352-1.299 0.044-0.024 0.089-0.05 0.132-0.08 0.84 0.261 1.527 0.594 2.545 0.77 0.609 0.132 1.242-0.081 1.647-0.552 0.406-0.474 0.521-1.13 0.298-1.712-0.222-0.582-0.745-0.996-1.363-1.078-3.35-0.578-5.004-1.608-5.753-2.545-0.75-0.937-0.871-1.94-0.584-3.289 0.288-1.348 1.043-2.882 1.83-4.215 0.787-1.334 1.543-2.342 2.016-3.315 0.203-0.42 0.226-0.905 0.06-1.342-0.166-0.436-0.503-0.786-0.935-0.965-1.913-0.773-3.049-2.149-3.686-4.058-0.637-1.907-0.663-4.361-0.132-6.84 0.778-3.637 2.818-7.219 5.463-9.493-0.154 2.157 0.17 4.2 1.034 5.993 0.705 1.462 1.706 2.765 2.89 3.872 1.173 1.096 2.547 2.001 4.031 2.704 1.491 0.707 3.089 1.223 4.773 1.485 1.667 0.263 3.409 0.297 5.145 0.053 0.127-0.018 0.147-0.057 0.265-0.08 3.376-0.528 6.685-2.077 9.387-4.906 1.334-1.396 1.966-3.076 1.83-4.667-0.136-1.59-0.922-2.972-1.909-4.11-1.708-1.967-4.045-3.279-6.178-4.11v-7.664c5.941 0.786 9.827 3.458 13.55 6.046 1.992 1.385 3.955 2.737 6.205 3.58s4.818 1.107 7.664 0.344c4.573-1.225 13.017-2.532 21.452-4.932 8.435-2.399 16.999-5.84 21.957-11.879 4.673-5.695 12.055-10.968 19.993-14.824 8e-3 -3e-3 0.02 3e-3 0.027 0 0.419-0.044 0.806-0.242 1.087-0.556 0.1-0.046 0.191-0.113 0.292-0.159 7.944-3.652 16.258-5.675 22.831-5.489 0.011 4.311 0.657 9.169 2.122 13.709 1.638 5.08 4.149 9.707 8.007 12.198 0.512 0.334 1.164 0.368 1.707 0.088 0.543-0.279 0.895-0.83 0.918-1.441 0.412-9.602 5.536-19.736 12.781-26.41 7.501-6.908 17.788-10.107 27.764-10.396 0.254 4.074 0.911 8.348 2.467 12.331 2.086 5.343 5.904 11.378 10.844 16.309 4.942 4.929 11.051 8.791 17.821 9.44 0.644 0.06 1.266-0.252 1.603-0.804 0.34-0.552 0.335-1.248-0.013-1.795-8.376-13.307-5.43-27.633-2.572-34.048 1.868-4.193 4.822-8.941 8.618-14.505-1.848 6.48-2.692 12.098-2.414 16.812 0.435 7.297 3.35 12.678 7.823 16.281 9.453 7.615 15.852 7.384 18.934 7.903 0.625 0.103 1.255-0.152 1.635-0.659 0.379-0.507 0.444-1.184 0.168-1.755-1.498-3.028-3.007-8.29-3.342-14-0.333-5.711 0.475-11.87 3.367-16.918 2.289-3.988 4.667-5.001 7.585-7.822 1.748-1.691 3.49-4.132 5.197-7.823v11.217c0 0.422 0.084 0.829 0.107 1.247-0.039 0.146-0.058 0.298-0.056 0.45 0 12.157-1.172 25.43-4.691 35.373-1.963 5.546-8e-3 10.744 2.782 15.249 2.794 4.503 6.453 8.586 8.514 12.303 10.249 18.491 12.626 39.569 18.535 60.061 1.563 5.423 4.351 10.471 8.379 14.134 4.029 3.665 9.354 5.902 15.698 5.674 16.152-0.576 33.662-10.154 37.973-26.039 2.507-9.231 0.467-17.772-3.394-25.615-3.859-7.843-9.515-15.112-14.451-22.168-7.144-10.203-11.177-22.674-10.872-35.347 0.13-5.473 1.505-11.67 4.215-16.626 1.984-3.623 4.622-6.519 8.009-8.193-2.178 4.954-2.431 10.913-1.989 16.361 0.573 7.057 2.298 13.229 3.049 15.38 3.074 8.792 5.302 13.354 7.267 17.077 1.964 3.724 3.626 6.51 5.702 12.118 0.278 0.758 1.051 1.214 1.85 1.092 0.797-0.122 1.398-0.789 1.438-1.595 0.623-15.725-0.745-36.088 5.277-49.613 6.013-13.504 11.185-17.975 21.08-26.041 0.492-0.4 1.009-0.776 1.512-1.167 1.389 4.508 2.767 8.987 4.164 13.392-6.689 5.209-11.71 11.496-16.176 22.195-5.063 12.131-6.383 25.273-5.038 38.422 1.651 16.145 6.103 25.534 4.136 47.678-1.287 14.509-4.487 16.846-7.025 21.743-0.039 0.052-0.076 0.105-0.107 0.159-0.062 0.093-0.115 0.19-0.159 0.293-0.02 0.053-0.037 0.104-0.054 0.158-0.028 0.112-0.046 0.229-0.052 0.345-0.012 0.114-0.012 0.23 0 0.345 6e-3 0.055 0.016 0.108 0.027 0.159 0.015 0.055 0.031 0.107 0.053 0.159 0.056 0.162 0.136 0.313 0.237 0.451 0.034 0.046 0.069 0.091 0.107 0.133 0.071 0.088 0.151 0.167 0.237 0.238 0.139 0.103 0.292 0.182 0.451 0.239 0.103 0.036 0.21 0.063 0.319 0.079 0.166 0.024 0.337 0.024 0.503 0h0.025c0.109-0.016 0.217-0.043 0.319-0.079 0.036-0.018 0.071-0.034 0.104-0.054 0.048-0.016 0.09-0.033 0.135-0.054 0.019-0.017 0.034-0.034 0.052-0.053 19.639-8.599 25.864-16.266 31.396-26.066 12.127-21.48 7.712-48.166 3.501-70.72-4.405-23.59-11.655-40.871-17.396-61.892-2.799-10.248-6.392-19.635-6.417-29.698 1e-3 -0.036 1e-3 -0.071 0-0.106 0-1.889 1.178-5.608 2.97-6.948 0.563-0.328 0.889-0.951 0.838-1.6-0.051-0.65-0.471-1.213-1.08-1.449-0.608-0.235-1.298-0.102-1.773 0.344-2.55 1.905-3.732 4.936-4.136 7.584-7.91-1.245-14.39-5.971-18.854-12.622-4.78-7.123-7.224-16.25-6.654-24.661 0.445-6.583 5.013-17.828 13.681-27.498-0.927 3.131-1.336 6.361-1.353 9.52-0.034 6.795 1.467 13.297 2.44 17.687 0.207 0.916 1.113 1.491 2.028 1.286 0.916-0.205 1.493-1.113 1.286-2.028-0.979-4.421-2.393-10.645-2.359-16.918 0.033-6.249 1.471-12.432 6.072-17.13 0.018-0.016 0.035-0.035 0.053-0.053 0.018-0.017 0.035-0.035 0.053-0.053 6.222-6.268 15.308-9.494 24.424-17.396 6.93-6.006 14.633-14.537 17.766-24.422 1.693 13.959-1.737 28.573-12.197 38.105-5.021 4.576-14.76 12.843-13.922 25.457 0.029 0.826 0.648 1.51 1.467 1.622 0.818 0.111 1.6-0.383 1.847-1.171 3.752-10.489 9.566-15.437 16.787-20.418 7.22-4.98 15.829-9.868 24.155-19.755 12.23-14.522 14.357-30.906 11.296-46.354z" fill="#fff"/>
<path d="m84.569 56.243c3.667 0 6.577 2.908 6.577 6.576v0.875h-13.153v-0.875c0-3.668 2.908-6.576 6.576-6.576z" fill="#F4E500"/>
<path d="m302.46 61.414c-0.212 0.023-0.419 0.085-0.608 0.186-4.125 1.976-6.291 5.773-7.348 9.466-1.054 3.693-1.083 7.362-0.928 9.678 0.059 0.917 0.833 1.622 1.75 1.592 2.981-0.101 5.135-0.56 6.976-1.141 0.979 0.928 1.87 1.604 2.624 2.095 3.774 2.459 8.804 5.197 14.585 5.197 3.921 0 7.27-2.184 10.368-4.11 3.1-1.927 5.953-3.58 8.247-3.58 0.845 0.022 1.577-0.582 1.718-1.416 0.141-0.833-0.354-1.643-1.161-1.898-6.234-2.159-11.908-6.1-19.888-6.1-3.333 0-8.143 1.124-12.065 3.792-2.453 1.67-4.339 3.145-9.783 3.606-0.014-1.975 0.131-4.374 0.821-6.789 0.893-3.125 2.526-5.899 5.541-7.345 0.75-0.343 1.146-1.176 0.938-1.974-0.209-0.798-0.963-1.329-1.787-1.259z"/>
<path d="m24.8 67.088h51.364c0.114 0.012 0.23 0.012 0.345 0h16.175c0.114 0.012 0.23 0.012 0.345 0h51.311v53.247h-51.233c-0.097-0.017-0.193-0.026-0.292-0.026h-16.52c-0.053 7e-3 -0.106 0.015-0.159 0.026h-51.336v-53.247z" fill="#F4E500"/>
<path d="m317.36 75.017c0.438 1.833 0.849 3.638 0.849 4.932 0 1.289-0.355 3.095-0.77 4.906-3.918-0.542-7.619-2.421-10.658-4.402-0.344-0.223-0.639-0.54-0.929-0.742 1.041-0.586 1.982-1.178 2.784-1.723 2.702-1.84 6.161-2.705 8.724-2.971z"/>
<path d="m320.92 75.042c4.153 0.465 7.987 2.012 11.934 3.713-1.645 0.782-3.216 1.779-4.747 2.731-2.519 1.564-4.923 2.933-7.133 3.394 0.37-1.762 0.636-3.465 0.636-4.932-1e-3 -1.541-0.307-3.197-0.69-4.906z" fill="#fff"/>
<path d="m377.24 80.904c-2.773-0.143-5.659 0.768-7.824 2.651-1.709 1.489-2.506 3.095-3.42 4.349-0.914 1.253-1.904 2.303-4.27 3.341-0.855 0.381-1.242 1.385-0.86 2.242 0.38 0.855 1.383 1.242 2.24 0.861 2.886-1.267 4.51-2.931 5.621-4.455 1.111-1.525 1.738-2.74 2.916-3.765 2.809-2.447 8.038-2.245 10.052 0.45 1.514 2.029 1.501 5.102 1.113 8.592-0.309 2.77-0.832 5.66-0.557 8.433-0.683 0.018-1.591 0.112-2.043 0.052-0.856-0.112-1.369-0.318-2.041-0.769-0.784-0.52-1.839-0.306-2.361 0.477-0.52 0.783-0.305 1.84 0.478 2.36 1.024 0.685 2.197 1.127 3.5 1.299 1.305 0.173 2.73 0.104 4.614-0.08 0.506-0.051 0.961-0.323 1.243-0.743 0.281-0.421 0.361-0.946 0.216-1.431-0.624-2.092-0.063-5.56 0.345-9.228 0.408-3.667 0.624-7.729-1.804-10.978-1.727-2.311-4.387-3.516-7.158-3.658z"/>
<path d="m304.87 90.714c-0.629 0.013-1.2 0.372-1.484 0.933-0.282 0.561-0.231 1.233 0.132 1.747 4.726 6.826 13.395 9.28 21.823 6.814 3.973-1.16 7.831-3.3 10.554-6.708 0.586-0.731 0.469-1.801-0.265-2.386-0.733-0.586-1.801-0.467-2.387 0.265-2.173 2.72-5.406 4.586-8.857 5.595-7.273 2.127-14.209 0.046-18.059-5.516-0.327-0.481-0.876-0.762-1.457-0.744z"/>
<path d="m214.93 95.117c0.496 0.028 1.124 0.112 1.645 0.159-1.814 1.642-2.959 3.343-3.713 5.754-1.062 3.397-1.082 6.559-0.081 9.333 1.003 2.776 2.983 5.12 5.57 7.133 9.41 7.327 21.282 9.307 32.377 9.838 10.221 0.488 20.631 1.063 29.433 6.019 4.964 2.795 10.295 6.954 12.995 10.528-0.41 0.436-0.8 0.883-1.221 1.326-0.451 0.475-1.094 0.891-1.618 1.353-8.925-6.895-14.911-12.918-33.172-12.305-9.397 0.313-31.741 1.426-46.272-4.508-7.63-3.115-13.615-10.204-14.134-18.668-0.479-7.829 5.442-14.474 13.099-15.751 1.671-0.278 3.312-0.31 5.092-0.211z" fill="#fff"/>
<path d="m259.98 107.63c1.557 0.78 3.274 1.265 5.091 1.485-1.428 1.612-2.451 3.644-3.209 5.728-0.436 1.2-0.722 2.391-1.035 3.58-0.823-3.945-1.111-7.919-0.847-10.793z" fill="#fff"/>
<path d="m284.69 108.24c2.126 0.087 4.119 0.345 5.781 1.007 1.659 0.662 2.987 1.76 4.109 3.289-0.789 1.773-1.159 3.948-1.087 6.312-3.25-2.982-6.635-6.437-9.042-10.369 0.088-0.072 0.167-0.152 0.239-0.239z" fill="#fff"/>
<path d="m279.18 108.48c-2.632 2.747-4.783 6.663-5.78 11.402-1.042-3.146-1.648-6.749-2.015-10.872 2.609-0.216 5.173-0.309 7.795-0.53z" fill="#fff"/>
<path d="m349.08 109.22c-0.436 0.052-0.835 0.271-1.113 0.61-0.991 1.134-1.674 2.201-2.413 2.917-4.488 4.341-12.077 4.168-18.297 2.439-0.907-0.249-1.846 0.285-2.096 1.193-0.247 0.908 0.288 1.846 1.194 2.095 6.827 1.898 15.72 2.361 21.558-3.288 1.148-1.111 1.859-2.282 2.599-3.129 0.48-0.52 0.587-1.283 0.268-1.915-0.319-0.631-0.997-0.999-1.7-0.922z"/>
<path d="m78.02 123.76h13.126v73.479c-0.96 0.265-1.898 0.592-2.758 1.061-1.008 0.549-1.966 1.203-2.864 1.909-9e-3 8e-3 -0.017 0.019-0.026 0.027-0.876 0.691-1.697 1.43-2.466 2.147-0.014 0.013-0.04 0.014-0.053 0.026-1.533 1.434-2.876 2.819-3.871 3.606-0.133 0.106-0.25 0.231-0.345 0.371-0.029 0.052-0.055 0.105-0.079 0.159-0.029 0.052-0.057 0.106-0.08 0.159-0.067 0.152-0.112 0.313-0.132 0.478-0.016 0.168-7e-3 0.337 0.027 0.503 0.024 0.109 0.06 0.216 0.105 0.318 0.042 0.112 0.095 0.218 0.159 0.319 0.063 0.086 0.135 0.166 0.212 0.239 0.041 0.047 0.086 0.091 0.133 0.133 0.042 0.028 0.087 0.055 0.132 0.079h0.026c0.084 0.061 0.172 0.113 0.266 0.16 0.06 0.021 0.122 0.039 0.184 0.053 0.105 0.027 0.211 0.045 0.319 0.053h0.026c0.234 0.021 0.468-6e-3 0.69-0.079 1.809-0.658 3.044-0.662 4.058-0.372 0.687 0.197 1.306 0.596 1.909 1.062 0.272 0.219 0.521 0.427 0.822 0.715 0.882 0.846 1.736 1.89 2.704 2.864 0.273 0.275 0.604 0.495 0.903 0.743 4e-3 3e-3 -5e-3 0.023 0 0.027v5.011c-2.2-0.522-4.096-1.086-5.675-1.697-0.407-0.159-0.638-0.339-1.008-0.504-1.132-0.504-2.25-1.02-3.076-1.564-1.08-0.712-1.926-1.464-2.572-2.228-0.3-0.354-0.536-0.812-0.795-1.3v-87.957z" fill="#F4E500"/>
<path d="m330.75 128.71c-0.594 0.063-1.113 0.435-1.363 0.979-0.252 0.544-0.194 1.18 0.146 1.673 1.982 2.963 4.849 5.736 8.246 7.478 3.398 1.743 7.44 2.433 11.323 0.902 2.407-0.949 4.15-2.807 5.408-4.747 0.368-0.506 0.428-1.175 0.154-1.738s-0.834-0.93-1.46-0.955c-0.624-0.026-1.214 0.297-1.53 0.837-1.006 1.55-2.318 2.855-3.819 3.446-2.831 1.117-5.765 0.681-8.537-0.742-2.774-1.422-5.299-3.86-6.975-6.364-0.345-0.533-0.959-0.831-1.593-0.769z"/>
<path d="m298.24 142.9c-0.522 2.374-1.124 4.81-1.91 7.425-0.486 1.626-1.205 3.179-1.883 4.747-4.967 6.646-8.611 10.516-15.273 13.948-1.241 0.588-3.221 1.025-5.197 1.114-1.975 0.088-3.912-0.216-4.932-0.77-1.145-0.619-2.376-1.973-3.049-3.447-0.673-1.475-0.787-2.95-0.266-4.057 0.47-0.993 1.274-1.341 2.784-1.618 1.511-0.276 3.433-0.285 5.33-0.875 5.808-1.806 15.061-6.05 20.551-11.827 1.274-1.339 2.583-2.885 3.845-4.64z" fill="#fff"/>
<path d="m268.25 146.08c0.499 1.345 0.991 2.593 1.644 3.767 1.112 1.992 2.812 3.771 4.933 5.542-0.656 0.241-1.411 0.563-1.988 0.743-0.981 0.305-2.557 0.409-4.137 0.637-1.105-3.198-1.007-7.076-0.452-10.689z" fill="#fff"/>
<path d="m330.67 146.93c-0.639 5e-3 -1.218 0.367-1.505 0.938-0.286 0.571-0.227 1.252 0.151 1.767 4.572 6.625 9.565 9.966 15.619 10.342 4.558 0.284 7.962-1.863 9.998-3.208 0.559-0.312 0.895-0.91 0.869-1.55-0.024-0.638-0.406-1.21-0.989-1.476-0.582-0.266-1.264-0.183-1.765 0.215-1.964 1.301-4.496 2.863-7.9 2.651-4.981-0.31-8.775-2.758-13.021-8.909-0.32-0.494-0.87-0.784-1.457-0.77z"/>
<path d="m321.24 163.21c-0.535 0.053-1.013 0.354-1.29 0.814-0.276 0.46-0.32 1.023-0.116 1.52 2.568 6.441 4.948 15.201 12.86 18.668 1.563 0.683 3.224 0.935 4.8 0.98 0.938 0.023 1.716-0.719 1.736-1.657 0.023-0.938-0.72-1.714-1.655-1.737-1.264-0.036-2.458-0.258-3.502-0.715-6.169-2.703-8.415-10.092-11.084-16.785-0.271-0.715-0.987-1.16-1.749-1.088z"/>
<path d="m308.98 169.52c-0.676 0.095-1.23 0.586-1.406 1.247-1.018 3.558-2.313 7.857-2.412 12.145s1.135 8.715 5.092 11.8c0.738 0.578 1.809 0.448 2.386-0.292 0.578-0.74 0.448-1.808-0.291-2.387-3.02-2.353-3.875-5.394-3.792-9.042 0.085-3.648 1.259-7.727 2.28-11.297 0.167-0.553 0.043-1.154-0.333-1.595-0.377-0.439-0.951-0.657-1.524-0.579z"/>
<path d="m296.39 175.04c-0.55 0.082-1.025 0.429-1.271 0.928-4.317 8.512-10.773 13.139-13.657 15.009-3.454 2.24-8.69 6.841-22.433 6.841-0.613-9e-3 -1.182 0.313-1.491 0.842-0.308 0.527-0.308 1.182 0 1.711 0.309 0.528 0.878 0.85 1.491 0.841 14.547 0 21.314-5.443 24.288-7.372 3.087-2.001 10.115-7.048 14.823-16.335 0.297-0.564 0.25-1.249-0.119-1.769s-0.998-0.789-1.631-0.696z"/>
<path d="m94.752 200.28c1.378 0.232 2.96 1.176 4.692 2.891-1.169 0.826-2.267 1.77-3.182 2.97-1.373 1.801-2.183 3.621-2.492 5.409-0.361-0.234-0.683-0.308-1.114-0.743-0.799-0.805-1.674-1.879-2.758-2.917-0.544-0.521-1.14-1.038-1.83-1.485-0.685-0.444-1.456-0.837-2.333-1.087-0.226-0.065-0.506-0.036-0.742-0.08 1.602-1.516 3.251-2.993 5.012-3.951 0.79-0.43 1.576-0.75 2.36-0.928 8e-3 -1e-3 0.017 2e-3 0.026 0-0.25 0.056-0.048 0.084 0.636 0 0.062-5e-3 0.124-0.014 0.186-0.026 0.51-0.045 1.021-0.14 1.539-0.053z" fill="#fff"/>
<path d="m73.618 200.58c-0.334 2.948-0.621 5.967 0 8.99-2.754 2.073-4.224 4.82-4.667 7.61-0.372 2.341-0.08 4.624 0.345 6.788-2.159-0.834-4.225-1.658-5.754-2.81-2.04-1.536-3.367-3.487-3.367-7.638 0-5.923 2.021-8.695 4.932-10.474 2.364-1.444 5.458-2.031 8.511-2.466z" fill="#fff"/>
<path d="m106.71 203.94c2.819-0.2 5.381 0.795 7.001 3.156 1.799 2.625 2.822 5.458 4.163 8.539 1.34 3.081 3.029 6.396 6.231 9.599 0.326 0.316 0.766 0.488 1.22 0.478 10.218 0 21.614 1.564 32.378-0.955 2.761-0.646 5.722-1.728 8.432-2.625 2.127-0.704 3.981-1.167 5.436-1.379 0.27 0.405 0.7 0.674 1.181 0.74 0.482 0.066 0.969-0.078 1.338-0.395 5.375-4.675 11.979-8.779 18.88-10.501-3.826 1.562-7.309 4.118-9.52 8.724-5.623 11.725-5.716 29.364-0.45 41.447-6.692 3.345-12.849 7.627-17.608 12.489-5.866-3.651-12.395-6.505-19.781-6.629-3.675-0.062-7.727-6e-3 -11.243-0.689-3.517-0.683-6.374-2.012-8.141-4.773-1.472-2.302-3.321-3.553-5.25-3.554-1.93-1e-3 -3.446 0.99-4.853 1.962-1.408 0.972-2.747 2.022-4.057 2.652-1.311 0.63-2.468 0.871-3.872 0.451-5.056-1.512-10.2-4.555-13.443-8.486-0.065-0.076-0.136-0.148-0.212-0.212v-33.757c1.092 0.331 2.302 0.987 3.526 2.016 1.53 1.285 2.986 2.88 4.216 4.11l2.386-2.413c-4.015-4.015-6.499-6.9-7.344-9.096-0.848-2.195-0.525-3.784 1.643-6.629 1.975-2.591 4.926-4.067 7.743-4.27z" fill="#fff"/>
<path d="m74.811 212.91v0.026c0.248 0.477 0.641 1.07 1.035 1.645 0.154 0.205 0.226 0.437 0.397 0.636 0.863 1.018 1.929 1.986 3.261 2.864 1.317 0.868 2.873 1.665 4.721 2.386 1.042 0.407 2.403 0.729 3.633 1.087-0.502 0.508-0.956 1.091-1.485 1.538-0.01 8e-3 -0.017 0.02-0.026 0.027-1.152 0.968-2.395 1.755-3.739 2.307-0.047 0.02-0.085 0.061-0.132 0.08-0.7 0.277-1.409 0.472-2.201 0.61-0.735 0.128-1.521 0.206-2.36 0.186-0.057-1e-3 -0.103 2e-3 -0.159 0h-0.027c-0.187-0.01-0.641-0.116-1.219-0.186-0.044-2e-3 -0.089-2e-3 -0.133 0-8e-3 -1e-3 -0.018 1e-3 -0.026 0-1.026-0.136-2.141-0.401-3.341-0.796-8e-3 -0.035-0.017-0.07-0.026-0.105-0.629-2.482-1.062-5.164-0.689-7.504 0.285-1.82 1.006-3.412 2.516-4.801z" fill="#fff"/>
<path d="m489.75 216.35c10.481-0.29 16.965 2.299 22.01 5.065 2.753 1.508 5.098 3.099 7.425 4.322 0.16 0.191 0.358 0.345 0.584 0.451 6.326 2.945 10.542 9.745 12.462 17.688 1.921 7.942 1.47 16.896-1.139 23.521-2.651 6.731-7.588 10.289-13.657 12.25-4.563 1.476-9.703 1.828-14.77 1.856 8.695-7.662 13.73-19.697 10.447-31.979-2.034-7.604-7.912-12.87-14.957-15.54-6.472-2.453-13.933-2.701-20.736-0.769-1.126-4.439-2.208-9.039-3.287-13.789 4.935-1.763 10.128-2.923 15.618-3.076z" fill="#fff"/>
<path d="m91.146 223.06v83.98c-0.163 0.029-0.315 0.136-0.478 0.159-1.378 0.193-2.776 0.161-4.136-0.053-9e-3 -1e-3 -0.019 1e-3 -0.026 0-1.336-0.213-2.633-0.608-3.819-1.167-7e-3 -4e-3 -0.02 3e-3 -0.027 0-0.478-0.226-0.837-0.574-1.272-0.849-0.651-0.41-1.344-0.794-1.883-1.299-0.629-0.591-1.041-1.293-1.484-1.989-3e-3 -6e-3 4e-3 -0.021 0-0.027v-40.332c0.247-0.084 0.407-0.105 0.69-0.239 1.083-0.514 2.106-1.146 3.049-1.909 0.944-0.765 1.805-1.647 2.546-2.625 0.745-0.986 1.366-2.073 1.855-3.235 0.492-1.168 0.841-2.411 1.034-3.739 0.012-0.062 0.021-0.124 0.027-0.186 1e-3 -0.107-8e-3 -0.213-0.027-0.319-0.015-0.118-0.041-0.233-0.079-0.344-0.024-0.045-0.051-0.09-0.08-0.133-0.05-0.112-0.113-0.219-0.185-0.318-0.034-0.037-0.069-0.072-0.106-0.106-0.116-0.125-0.25-0.232-0.397-0.318-0.043-0.028-0.087-0.055-0.132-0.08h-0.027c-0.043-0.02-0.087-0.037-0.132-0.053h-0.026c-0.155-0.049-0.315-0.076-0.478-0.08h-0.053c-1.112 0.01-2.443-0.115-3.818-0.371-1.234-0.23-2.494-0.6-3.659-1.008v-1.936c0.014-3e-3 0.012 4e-3 0.026 0 0.869-0.229 1.796-0.534 2.731-1.008 0.919-0.465 1.844-1.097 2.784-1.856 0.468-0.377 0.935-0.919 1.406-1.379 0.473-0.473 0.961-0.853 1.432-1.405 4e-3 -5e-3 -4e-3 -0.021 0-0.025 0.938-1.103 1.902-2.393 2.838-3.898v-0.027c0.062-0.092 0.115-0.189 0.159-0.292 0.035-0.094 0.061-0.191 0.079-0.292v-0.027-0.026c0.022-0.158 0.022-0.319 0-0.477v-0.027c-0.029-0.166-0.083-0.327-0.159-0.478-0.044-0.102-0.097-0.199-0.16-0.291-0.034-0.037-0.069-0.072-0.106-0.107v-0.026c-0.081-0.079-0.169-0.151-0.265-0.212-0.138-0.102-0.289-0.183-0.451-0.239-0.163-0.052-0.333-0.079-0.503-0.08h-0.026-0.027c-0.457 0-1.02-0.125-1.538-0.186-0.505-0.056-0.968-0.051-1.512-0.159-7e-3 -1e-3 -0.019 1e-3 -0.026 0-1.113-0.224-2.29-0.578-3.5-1.008-8e-3 -2e-3 -0.019 3e-3 -0.027 0-1.045-0.372-2.077-0.835-3.101-1.325 0.955 7e-3 1.903-6e-3 2.784-0.16 0.798-0.138 1.523-0.382 2.254-0.636 0.199-0.069 0.415-0.108 0.61-0.186 0.454-0.18 0.866-0.443 1.299-0.663 0.788-0.402 1.529-0.851 2.228-1.353 0.438-0.314 0.891-0.609 1.299-0.955 0.954-0.806 1.769-1.717 2.595-2.621z" fill="#F4E500"/>
<path d="m63.514 224.97c2.224 1.225 4.56 2.121 6.656 2.97 0.275 0.112 0.525 0.139 0.796 0.239-3.237 4.042-4.122 8.942-2.52 13.152-3.052-0.27-6.062-1.704-7.981-3.792-2.236-2.431-3.066-5.293-1.405-8.327 0.739-1.35 2.945-3.448 4.454-4.242z" fill="#fff"/>
<path d="m527.46 227.81c5.051 0.238 10.021 0.489 14.584 2.545 5.232 2.359 10.144 6.97 14.267 16.998 5.131 12.478 7.949 25.203 7.823 38.714-0.093 9.848-2.643 18.715-8.564 26.889-9.158 12.635-10.839 28.153-11.483 43.54-0.274 6.565 0.769 15.389 3.129 23.786-8.209-11.961-13.072-28.064-13.072-42.241 0-13.055 5.19-21.318 10.129-30.256 4.907-8.881 9.481-18.498 7.398-33.041-0.012-0.091-0.012-0.173-0.026-0.265-0.153-0.859-0.935-1.461-1.803-1.393-0.872 0.068-1.547 0.785-1.564 1.658 0 0.083 2e-3 0.157 0 0.239-0.026 14.66-2.438 25.818-22.806 43.567-5.414 4.719-9.677 10.204-11.481 17.82-1.371-5.218-2.179-10.335-1.539-15.937 0.961-8.407 5.043-18.074 15.354-30.84 5.207-6.444 6.454-13.997 6.577-21.373 2.793-7.39 3.185-16.683 1.14-25.138-1.421-5.864-4.141-11.239-8.063-15.272z" fill="#fff"/>
<path d="m73.22 230.8c0.902 0.57 1.809 1.158 2.758 1.644 2.897 1.481 5.913 2.477 8.724 2.943-0.292 0.385-0.588 0.884-0.875 1.22-0.814 0.964-1.595 1.739-2.36 2.36-8e-3 7e-3 -0.018 0.02-0.026 0.027-0.755 0.608-1.497 1.079-2.201 1.432-0.714 0.359-1.409 0.596-2.069 0.769-0.386 0.102-0.715 0.053-1.087 0.106-0.062 6e-3 -0.124 0.015-0.185 0.026-1.318 0.165-2.576 0.224-3.792 0.16-1.843-3.053-1.501-7.11 1.113-10.687z" fill="#fff"/>
<path d="m210.55 237.14c1.342-3e-3 2.871 0.198 4.481 0.53-2.906 4.909-4.8 10.372-5.33 16.096-6.592-0.197-14.21 1.608-21.691 4.72 1.541-5.011 3.162-8.778 4.773-11.084 2.013-2.879 3.972-4.284 6.072-5.781 2.396-1.707 5.855-4.468 11.695-4.481z" fill="#fff"/>
<path d="m63.833 243.77c1.977 0.768 4.103 1.174 6.285 1.061 6e-3 0 0.021 1e-3 0.026 0 0.249 0.516 0.525 1.009 0.902 1.432-2.106 4.47-1.815 8.969-0.16 12.914-1.62-0.205-3.263-0.686-4.826-1.644-1.965-1.448-3.75-4.416-4.27-7.266-0.493-2.713 0.035-5.023 2.043-6.497z" fill="#fff"/>
<path d="m73.91 248.23c0.529 0.279 1.043 0.559 1.618 0.795 0.043 0.029 0.087 0.055 0.132 0.08-1e-3 0 0.214 0.199 0.823 0.424 0.734 0.272 1.517 0.404 2.28 0.61 1.564 0.429 3.073 0.708 4.588 0.849-0.12 0.391-0.164 0.825-0.318 1.193-0.384 0.913-0.861 1.739-1.432 2.493-5e-3 6e-3 4e-3 0.021 0 0.026-0.574 0.755-1.268 1.431-1.989 2.016-0.728 0.589-1.507 1.08-2.36 1.484-0.292 0.138-0.79 0.261-1.458 0.477-0.151 0.051-0.294 0.123-0.425 0.213h-0.026c-0.252 0.069-0.486 0.186-0.742 0.238-1.811-3.365-2.334-7.029-0.691-10.898z" fill="#fff"/>
<path d="m94.54 296.43c1.352 0.708 2.739 1.571 3.633 2.6 0.679 0.782 1.034 1.533 1.087 2.147 0.052 0.614-0.082 1.212-0.902 2.068-1.159 1.212-2.455 2.102-3.818 2.758v-9.573z"/>
<path d="m68.049 346.13c0.871 7e-3 1.889 0.069 2.943 0.212 1.6 0.219 3.28 0.593 4.932 0.929 1.097 2.655 0.754 4.632 0.053 7.636-0.081 0.013-0.161 0.03-0.239 0.053-3.85-0.99-7.437-3.359-10.792-7.717 0.037-0.138 0.044-0.374 0.106-0.451 0.12-0.146 0.361-0.333 0.875-0.477 0.515-0.143 1.251-0.191 2.122-0.185z" fill="#fff"/>
<path d="m91.119 357.05v59.425c0 3.671-2.885 6.575-6.55 6.575-3.666 0-6.576-2.911-6.576-6.575v-57.702c0.295 0.033 0.58 0.139 0.875 0.159 2.708 0.183 5.456-0.186 8.221-0.849 0.168-0.032 0.335-0.043 0.503-0.08 0.149-0.031 0.301-0.1 0.451-0.132 0.204-0.055 0.406-0.1 0.61-0.16 0.815-0.188 1.646-0.417 2.466-0.661z" fill="#F4E500"/>
<path d="m282.28 386.75c0.288 1.764 0.621 3.521 0.954 5.252 0.801 4.152 1.901 8.165 4.243 11.586 2.16 3.16 5.467 5.694 10.155 7.266-1.337 7.442-2.373 15.389-1.193 25.139 0.995 8.215 5.873 15.873 11.695 22.036-2.562 0.093-4.992 0.812-7.16 1.989-3.422 1.858-6.328 4.646-8.777 7.318-7.116 7.762-12.509 17.659-15.804 27.472-4.896 14.578 0.506 29.556-1.512 43.09-1.027 6.928-2.9 8.07-5.621 10.156-2.2 1.686-4.871 4.06-6.948 9.228-2.299-5.338-2.697-9.932-3.182-14.531-0.592-5.613-1.614-11.353-7.292-17.314-0.644-0.683-1.719-0.709-2.4-0.067-0.68 0.646-0.71 1.719-0.066 2.4 5.099 5.353 5.813 9.872 6.392 15.353 0.134 1.27 0.395 2.768 0.556 4.137-0.1 0.098-0.19 0.204-0.266 0.319-4.14 6.156-4.968 12.144-5.992 17.871-0.783 4.385-1.712 8.65-4.216 13.18-0.999-10.157-4.732-15.948-7.477-18.589-0.566-0.561-1.449-0.654-2.12-0.221-0.67 0.436-0.947 1.278-0.666 2.024 6.011 16.317-4.288 29.602-11.031 37.442 0.587-7.729-0.322-14.62-6.814-23.468-0.494-0.7-1.434-0.924-2.188-0.517-0.756 0.403-1.09 1.309-0.782 2.107 3.396 9.137 3.09 13.195 1.247 18.35-1.446 4.046-4.034 8.873-6.577 16.547-1.771-6.29-5.417-12.516-11.401-15.46-0.734-0.355-1.619-0.142-2.106 0.515-0.486 0.656-0.437 1.565 0.117 2.164 6.771 7.418 7.543 12.04 6.523 16.627-0.699 3.137-2.462 6.395-4.11 10.155-1.019-3.852-2.409-7.184-4.136-9.811-2.547-3.873-5.803-6.394-9.44-6.976-0.64-0.099-1.28 0.173-1.651 0.703-0.371 0.528-0.41 1.224-0.099 1.79 3.59 6.362 3.764 12.691 1.538 17.343-2.227 4.652-6.777 7.795-13.55 7.795-5.772 0-8.656-3.177-10.501-7.477-1.844-4.3-2.28-9.652-2.28-12.889 7e-3 -0.315-0.077-0.627-0.239-0.901-3.308-5.264-7.567-7.447-11.773-7.583-4.208-0.137-8.238 1.523-11.853 3.182-3.616 1.66-6.921 3.335-9.016 3.606-1.048 0.139-1.671 5e-3 -2.201-0.397-0.531-0.402-1.108-1.281-1.538-3.049-1.396-5.744-4.334-10.811-6.152-15.195-0.909-2.191-1.519-4.185-1.644-5.938-0.125-1.754 0.17-3.229 1.22-4.748 0.111-0.16 1.679-1.022 3.712-1.512 2.032-0.484 4.422-0.845 6.337-1.299 0.957-0.226 1.794-0.462 2.573-0.9 0.388-0.221 0.812-0.5 1.14-1.063 0.327-0.56 0.356-1.447 0.106-2.04-0.5-1.183-1.32-1.586-2.466-2.2-1.146-0.613-2.706-1.288-4.853-2.068-5.379-1.958-10.083-5.07-12.807-9.096-2.725-4.024-3.648-8.912-1.406-15.089 1.65-4.545 3.7-7.589 5.754-9.44s4.08-2.535 6.019-2.439c3.878 0.196 7.87 3.79 9.731 9.891 2.173 7.117 3.31 14.387 3.633 21.824 0.044 0.938 0.84 1.663 1.777 1.617 0.938-0.044 1.662-0.838 1.618-1.776-0.227-5.218-1.017-10.354-2.095-15.46-2e-3 -8e-3 2e-3 -0.019 0-0.026 0.019-0.033 0.036-0.069 0.053-0.106 0.735-2.979 1.515-5.392 2.467-7.106 0.952-1.711 1.966-2.691 3.288-3.181 2.645-0.982 7.524 0.093 15.857 4.905 1.73 1 2.757 1.878 3.262 2.571s0.571 1.115 0.504 1.618c-0.138 1.01-1.44 2.646-3.182 4.429-1.743 1.78-3.818 3.704-4.853 6.258s-0.506 5.804 2.36 8.671c4.632 4.634 10.493 7.945 16.547 8.671 6.053 0.727 12.298-1.313 17.05-7.08 7.648-9.283 16.399-18.453 21.902-29.726 5.374-11.005 13.067-22.546 10.713-36.7-1.058-6.362-3.541-9.959-5.357-14.479-1.815-4.517-3.191-10.177-2.333-21.346 0.06-0.83-0.493-1.581-1.304-1.771-0.81-0.193-1.639 0.233-1.958 1.003-4.485 11.203-7.627 14.095-11.561 18.244-3.559 3.755-7.743 8.813-13.231 20.656-1.869-5.523-1.592-11.584 0.211-17.209 2.186-6.815 6.46-12.858 10.793-15.991 0.628-0.441 0.879-1.254 0.612-1.976-0.267-0.72-0.987-1.173-1.752-1.101-2.993 0.242-5.378 0.287-7.716 0.292 3.668-1.509 6.764-3.443 9.148-5.886 4.119-4.222 6.237-9.714 6.364-15.751 0.21-10.034 5.035-20.114 14.266-25.377 10.121-5.771 21.533-8.703 32.51-13.471 10.085-4.379 21.38-8.733 28.982-17.581 2.308-2.688 3.795-5.965 4.719-9.415z" fill="#fff"/>
<path d="m157.01 527.9c3.438 2.424 5.588 5.008 6.338 7.53 1.145 3.849-0.332 7.922-4.455 11.905-0.511-0.361-0.994-0.726-1.618-1.087-2.903-1.676-5.36-2.847-7.663-3.793 0.011-0.253-0.034-0.506-0.133-0.742-0.54-1.368-0.469-3.539 0.212-5.196 0.681-1.658 1.736-2.643 3.076-2.705 1.9-0.09 3.559-0.982 4.216-2.44 0.524-1.162 0.359-2.34 0.027-3.472z" fill="#fff"/>
<path d="m94.566 534.8c3.848-0.222 8.77 1.351 14.717 5.754-1.881 2.24-3.608 5.011-4.985 8.804-0.812 2.236-1.147 4.357-1.273 6.417-1.564 0.322-3.015-0.238-4.428-1.538-1.471-1.35-2.71-3.451-3.315-5.542-0.563-1.943-1.731-3.396-3.262-3.95-1.531-0.551-3.103-0.206-4.429 0.477-1.235 0.637-2.362 1.562-3.261 2.679-0.565-4.156 1-8.447 4.19-10.897 1.581-1.218 3.603-2.062 6.046-2.204z" fill="#fff"/>
<path d="m372.33 543.15c3.814-0.163 8.467 1.463 13.868 6.392-0.544 0.642-1.033 1.354-1.512 2.096-1.997 3.102-3.872 6.946-7.583 10.658-4.899-2.413-5.97-5.753-7.479-8.883-0.782-1.625-1.786-3.354-3.739-4.189-1.083-0.463-2.37-0.525-3.818-0.372 1.478-1.952 3.71-4.009 6.603-5.011 1.126-0.389 2.341-0.632 3.66-0.691z" fill="#fff"/>
<path d="m103.56 585.87c2.331-0.161 4.805 0.278 7.266 1.326-0.296 1.174-0.376 2.371-0.292 3.554 0.168 2.352 0.937 4.652 1.91 6.999 0.257 0.622 0.567 1.282 0.848 1.909-2.201 2.564-4.053 3.009-6.045 2.865-2.001-0.145-4.132-1.11-6.179-1.857-1.024-0.373-2.045-0.71-3.182-0.715-1.138-3e-3 -2.467 0.527-3.262 1.591-1.073 1.435-1.379 3.768-1.432 6.735-4.571-6.279-3.732-12.385-0.372-16.733 2.471-3.195 6.365-5.372 10.74-5.674z" fill="#fff"/>
<path d="m366.66 590.61c6.014 5.118 7.224 12.693 9.067 18.191-5.653 1.001-10.202-1.153-14.451-1.193-1.12-0.011-2.295 0.202-3.341 0.821-1.012 0.601-1.803 1.581-2.387 2.811-0.072-5.429 0.942-9.491 2.545-12.357 2.49-4.444 6.019-6.502 8.567-8.273z" fill="#fff"/>
<path d="m451.01 608.3c0.247-0.033 0.498 0.079 0.742 0.079 2.736 8.561 1.096 14.429-3.104 18.085-3.216 2.805-8.208 4.318-14.265 4.189 1.783-1.03 3.207-2.058 4.218-3.128 1.87-1.985 2.47-4.202 2.438-6.126-0.032-1.925-0.515-3.583-0.637-5.065-0.121-1.48-5e-3 -2.734 1.033-4.322 0.02-0.024 0.036-0.052 0.054-0.08 0.348-0.044 0.708-0.064 1.034-0.158 2.182-0.621 4.085-1.882 5.914-2.679 0.916-0.397 1.75-0.681 2.573-0.795z" fill="#fff"/>
<path d="m396.62 622.57c3.605-0.229 6.973 1.253 10.447 2.65 0.809 0.326 1.623 0.618 2.439 0.902 1.122 4.281 0.404 6.588-1.008 8.379-1.436 1.825-3.823 3.094-6.073 4.481-1.123 0.695-2.233 1.423-3.128 2.414-0.896 0.991-1.564 2.359-1.539 3.897 0.034 1.85 0.964 3.789 2.679 6.047-8.557-4.743-12.82-16.313-7.054-28.004 1.099-0.395 2.189-0.697 3.237-0.766z" fill="#fff"/>
<path d="m156.19 627.13c0.339 1.305 0.755 2.603 1.3 3.871 1.227 2.859 3.255 5.428 5.993 7.214-1.316 3.19-3.363 5.159-5.887 6.178-2.816 1.137-6.27 1.138-9.731 0.026-4.568-1.465-8.998-4.849-11.879-9.547 0.9 0.814 1.811 1.716 2.651 2.148 1.231 0.635 2.544 0.83 3.712 0.53 1.168-0.299 2.061-0.984 2.838-1.75 2.994-2.949 5.084-7.354 11.003-8.67z" fill="#fff"/>
</svg>
