<?xml version="1.0" encoding="UTF-8"?>
<svg version="1.0" viewBox="0 0 190.97 220.77" xmlns="http://www.w3.org/2000/svg">
<path d="m82.289 218.25c-7.7863-1.0817-21.514-5.6305-29.052-9.6261-24.215-12.837-42.817-37.813-48.729-65.425-1.4114-11.617-3.0879-8.5658-2.3123-141.2l186.54 0.31585 0.22642 69.81c-0.0518 62.019-0.22505 69.256-1.7876 74.675-7.6864 27.201-23.158 46.484-41.576 57.87-18.602 13.369-41.221 15.277-63.312 13.578z" fill="#fff" stroke="#000" stroke-width="4"/>
<path d="m39.339 59.43c0.99201-22.81-1.4308-31.861-7.4935-48.168h20.621v24.538h14.056v-24.538h20.599v24.538h15.555v-24.538h19.847v24.538h16v-24.538h22.849c-5.0757 15.547-6.4165 31.985-4.3432 48.168"/>
<path d="m144.6 60.819v107.07h5.3746v23.937h-104.95v-23.937c0.56861-0.06875 4.8718 0.0693 5.5593 0v-107.07"/>
<path d="m100.31 69.3h-8.7838v21.115h8.7838v-21.115z" fill="#fff"/>
</svg>
