<?xml version="1.0" encoding="UTF-8"?>
<svg version="1.0" viewBox="0 0 510.17 559.98" xmlns="http://www.w3.org/2000/svg">
<path d="m256.12 559.29c10.911-15.868 29.804-30.893 40.786-30.809 38.938 0.30925 113.3 0 147.19 0 33.888 0 61.391-27.909 61.391-62.298v-458.87h-502.17v458.87c0 34.389 27.503 62.298 61.391 62.298 33.888 0 113.75 0.18705 147.19 0 1.5847-0.00914 3.2101 0.14851 4.8638 0.4588 13.479 2.5291 28.842 15.199 39.357 30.35z" fill="#1f3784"/>
<path d="m317.15 377.34c2.8689-4.5048 7.8362-8.7699 10.724-8.7462 10.238 0.08779 29.79 0 38.7 0 8.9099 0 16.141-7.923 16.141-17.685v-130.27h-132.03v130.27c0 9.7623 7.2312 17.685 16.141 17.685s29.909 0.0531 38.7 0c3.8126-0.02373 8.5229 3.9172 11.627 8.7462z" fill="none"/>
<g transform="translate(555.99 -11.655)" stroke="#231f20">
<path d="m-546.81 50.607c14.669 3.2195 27.104 13.16 26.633 20.164-0.0145 0.21553-0.24879 32.453 8.217 55.512 0.24571 0.92194-0.00963 2.5667 0.265 2.8934 1.3566 1.2182 13.324 23.066 11.61 28.32l2.2002 2.6573c7.1156-6.8159 12.955-12.203 14.948-28.209 4.6885 10.522 11.126 9.7292 14.065 21.153 1.7968 6.3176-0.2735 18.086-0.7234 25.072 5.2274-3.9277 9.3805-14.3 15.682-11.783 2.3951 8.7675 8.7184 14.392 7.1217 26.353 0.495 12.285 0.6438 24.637 2.6214 36.958 0.8147 14.378 4.9253 10.795 4.7297 10.694 8.3459-6.9961 13.671-30.131 19.673-24.775 5.1232 5.3628 5.1295 6.8881 7.2533 10.001 1.718 5.9641 8.7023-1.1491 11.326 11.016 7.9495 19.24 10.049 30.652 14.916 45.269l2.1701 2.8208c7.1914 7.6874 11.895-0.62022 18.238-3.9463 4.7057-2.4675 12.452-1.4688 16.329 8.2229 0.91381 4.3752 3.46 11.011 5.9302 15.722 2.804 5.347 4.8658 9.563 3.8372 13.468l2.1677-1.0979c0.20664-2.3662 6.3721-2.5988 9.3543-5.8008 3.9113-4.1995 5.3541-8.0464 6.4162-9.3761 4.5238-5.6635 4.9685 2.3183 5.4539 5.1389 0.84648 1.462 5.0582 3.7525 3.2741 4.0704-0.40665-1.5532 2.393-0.97082 2.553-3.785 0.227-3.9925-1.1432-10.728-0.89663-14.864 0.28849-1.7071 2.2023-3.3447 3.814-5.7766 1.8072-2.7269 1.3814-5.3631 7.4805-0.65863 2.5004 1.7245 6.2406 7.5171 7.9785 10.067 2.7813 4.081 6.6205 7.0754 6.6651 11.668-2.0324 20.202 2.8988 36.923 5.7141 54.702 0.55543-0.1828 0.47765 0.85884 1.0583-0.14451 1.3225-2.2852 5.6177-4.9568 6.622 4.3271l0.37542 21.493c-0.70199 7.1779-3.0908 7.2842-2.5375 14.474 0.30998 5.1652 2.7021 3.4344 3.3612 7.8959 0.78408 11.916-3.3439 7.4059-3.5048 15.642l0.45224 14.94c6.2595-6.6614 3.9315-16.926 12.445-22.518 1.5737-0.96586 5.7786-2.0291 10.824-1.867 3.9876 0.12817 8.5003 1.0218 12.654 3.3341 7.4347 6.7907 8.5331 13.592 10.55 21.754 1.9203 0.47284 5.7007-7.143 10.738-5.2467 2.451 0.92273 4.732 3.6706 6.2543 11.224 0.8059 6.9615 0.20976 12.054-0.03956 17.608 18.419 23.814 5.5282 21.054 1.489-1.3597l0.43129-7.2726c5.7088-1.5582 3.7125 15.426 12.184 7.1718 6.7401-3.3223 11.514 0.89215 17.828-0.11548 6.2317-1.632 9.3817-5.1757 15.714-2.996 3.9435 1.3575 2.3105 8.315 3.1736 13.142 0.24355 4.224 5.2806 12.696 11.215 23.876 6.1152 11.52 13.201 25.837 18.172 35.958l-421.52-57.165 5.042-426.02z" fill="#231f20" fill-rule="evenodd" stroke-width="2"/>
<g transform="translate(-2.5943 -1.8401)">
<path d="m-544.53 52.857c14.669 3.2195 26.134 11.251 26.633 20.164 0.95672 17.106 1.1915 36.319 8.217 55.512-7.29-1.6398-10.999-15.214-12.839-26.847l-1.7423 0.74316c3.1262 17.401 5.199 23.483 14.846 28.997 6.1936 9.4696 13.324 23.066 11.61 28.32 1.5869 30.302 0.9979 59.867 1.95 91.369l0.76535-4.4154c-0.28494-28.778-1.5779-63.605-0.51509-84.297 7.1156-6.8159 12.955-12.203 14.948-28.209 4.6885 10.522 11.126 9.7292 14.065 21.153 1.7968 6.3176-0.27356 18.086-0.72338 25.072 5.2273-3.9277 9.3804-14.3 15.682-11.783 2.3951 8.7675 8.7185 14.392 7.1217 26.353 0.49503 12.285 0.64381 24.637 2.6214 36.958 1.836 11.439 6.837 19.364 9.8712 41.053-3.8062-4.3993-7.3239-5.1496-9.3937-2.6691-2.7866 3.3395-7.0927 11.274-10.648 16.865l3.124-2.8726c4.9681-8.829 8.9668-22.314 18.03-8.8118 0.86668-7.9747-3.1547-19.343-6.2542-32.87 8.3459-6.9961 13.671-30.131 19.673-24.775 5.1232 5.3628 5.1295 6.8881 7.2533 10.001 1.718 5.9641 8.7024-1.1491 11.326 11.016 7.9495 19.24 10.049 30.652 14.916 45.269l-2.3935 39.472c2.7116 2.5456 6.2853 4.4016 4.9909 10.152 0.77226 3.4548 0.19799 8.6442 0.64835 13.772 0.36441 4.1488 3.9835-0.57937 5.3679 11.373l-1.4331 26.479 1.2835 1.4862 1.1289-25.634c0.62701-2.843 7.7765-2.385 6.6803 9.7379l-0.72176 23.585 1.5348-5.5721 0.97183-19.572c2.3998-0.8871 4.2479 0.37559 3.6799 4.5761l0.07844 6.0231c-0.08209 3.5995 2.8325 3.3929 3.247 6.121l-0.76112 16.594 1.1633 1.9856 0.51773-17.131c7.1656 0.07613 6.201 11.707 5.9309 22.669l1.38 2.9849c0.41598-5.7463 0.55008-10.914 0.10224-16.245-0.78461-9.3405-6.5847-12.259-10.336-15.571 0.87236-16.298-2.2676-13.546-4.2092-14.166-1.7214-2.5688-3.9145-8.6524-8.8601-10.367-0.80245-8.0406-5.2452-7.3883-5.8711-13.656 0.55525-21.166-3.1479-16.731-5.5359-21.052l2.5797-35.726c7.1914 7.6874 12.901-0.11729 19.244-3.4433 4.7057-2.4675 12.452-1.4688 16.329 8.2229 0.91381 4.3752 3.46 11.011 5.9302 15.722 2.804 5.347 4.8658 9.563 3.8372 13.468l-0.22414 10.228c-0.07417 3.3878 4.7663 3.8423 5.454 10.491 0.50238 4.857 0.58635 11.313 0.1482 18.855l1.1503-1.0799c2.0258-29.548-4.7361-21.462-4.9623-30.325l0.60158-9.2665c0.20664-2.3662 6.3721-2.5988 9.3543-5.8008 3.9113-4.1995 5.3541-8.0464 6.4162-9.3761 4.5238-5.6635 4.9685 2.3183 5.4539 5.1389 0.74916 4.3537 2.6343 3.7746 3.7837 8.0056 1.5201 5.5955 1.8307 11.677 2.2078 14.611 0.36973 3.2199 0.28821 2.9343 1.368 1.8936-0.56874-6.7414-1.0336-12.634-4.0854-20.44-0.40665-1.5532 2.393-0.97082 2.553-3.785 0.227-3.9925-1.1432-10.728-0.89663-14.864 0.28849-1.7071 2.2023-3.3447 3.814-5.7766 1.8072-2.7269 1.3814-5.3631 7.4805-0.65863 2.5004 1.7245 6.2406 7.5171 7.9785 10.067 2.7813 4.081 6.6205 7.0754 6.6651 11.668-2.0324 20.202 2.8988 36.923 5.7141 54.702 0.55543-0.1828 0.47765 0.85884 1.0583-0.14451 1.3225-2.2852 5.6177-4.9568 6.622 4.3271l0.37542 21.493c-0.70199 7.1779-3.0908 7.2842-2.5375 14.474 0.30998 5.1652 2.7021 3.4344 3.3612 7.8959 0.78408 11.916-3.3439 7.4059-3.5048 15.642l0.45224 14.94c6.2595-6.6614 3.9315-16.926 12.445-22.518 1.5737-0.96586 5.7786-2.0291 10.824-1.867 3.9876 0.12817 8.5003 1.0218 12.654 3.3341 7.4347 6.7907 8.5331 13.592 10.55 21.754 1.9203 0.47284 5.7007-7.143 10.738-5.2467 2.451 0.92273 4.732 3.6706 6.2543 11.224 0.8059 6.9615 0.20976 12.054-0.03956 17.608-1.3297 2.6795 9.6542 10.773 9.6195 18.853l1.4343-0.71252c-0.09208-9.4556-10.671-14.311-9.5648-19.501l0.43129-7.2726c5.7088-1.5582 3.7125 15.426 12.184 7.1718 6.7401-3.3223 11.514 0.89215 17.828-0.11548 6.2317-1.632 9.3817-5.1757 15.714-2.996 3.9435 1.3575 2.3105 8.315 3.1736 13.142 0.24355 4.224 5.2806 12.696 11.215 23.876 6.1152 11.52 13.201 25.837 18.172 35.958l-134.28 0.65019c-14.487 10.305-23.556 21.513-32.832 32.686-11.445-11.476-22.675-23.029-40.202-32.332l-155.28 0.75189c-34.034 2.1114-59.715-34.46-57.286-73.673l3.4074-411.27z" fill="#fff" fill-rule="evenodd" stroke-width="1px"/>
<path d="m-516.23 250.49c3.3432 5.7289 13.593 2.2873 9.7882 10.177-1.647 5.6338-2.9608 19.845 1.1691 31.534 1.9085 10.048-0.15558 34.662-0.30696 52.262" fill="none" stroke-width="2"/>
<path d="m-504.44 292.49c8.4493 1.2317 14.458 11.97 23.92 9.4046 11.571 0.41867 10.532 13.545 18.441 12.39 9.5328-0.06436 18.404 10.664 25.951 31.574 5.8166 3.0562 5.2584 10.977 6.2067 19.006 4.367 2.4956 4.0404 21.673 5.7004 32.967" fill="none" stroke-width="2"/>
<path d="m-457.62 363.28 28.459 28.942c7.9958 4.5759 3.2742 10.607 8.6541 12.706l11.874 11.376c6.1027 4.4105 3.5397 12.633 5.4364 21.004 0.2052 0.90561 5.2685 13.326 10.11 32.581 2.1722 8.639 8.0406 5.53 9.1055 9.7958 4.6153 18.489 5.2841 44.38 5.7236 45.176" fill="none" stroke-width="2"/>
<path d="m-413.37 461.2c-0.6163 16.757 2.8902 13.053 2.8548 19.698" fill="none" stroke-width="2"/>
<path d="m-436.78 345.58c-1.7573 25.716 0.51538 26.516 0.28548 38.825" fill="none" stroke-width="2"/>
<path d="m-430.22 362.43-0.57096 27.977" fill="none" stroke-width="2"/>
<path d="m-274.63 536c-2.1927-22.524-11.723-27.214-10.582-49.128 1.7844-9.3963-17.407-9.9578-28.68-24.786-8.9521-2.5719-12.009 0.77617-15.152 5.3865-3.0196 4.4284-6.2522 10.022-8.538 12.651-5.7603 9.5769-10.1-0.62943-19.437 0.69522-7.2805 1.2165-2.4236 11.307-6.1906 14.829l-16.476 8.3781" fill="none" stroke-width="2"/>
<path d="m-343.72 484.33c3.0547 4.1172-0.66611 13.798 1.9984 23.695" fill="none" stroke-width="2"/>
<path d="m-384.82 447.79c0.48172 8.2897 1.8119 12.465 3.4581 17.298 1.4803 4.3456 1.2178 9.223 4.8207 18.102" fill="none" stroke-width="2"/>
<path d="m-389.11 461.49 2.8548 15.987" fill="none" stroke-width="2"/>
<path d="m-308.03 382.98c0.19515 4.7976 2.3938 7.579 2.5407 12.321 0.27721 8.9513 3.4795 11.804 3.4544 20.509" fill="none" stroke-width="2"/>
<path d="m-275.2 529.72c2.3211 1.8974 5.7842 0.07223 8.6763 1.4917 1.5804 0.77571 3.8309 3.1844 5.4113 5.7939" fill="none" stroke-width="2"/>
</g>
</g>
<path d="m335.66 91.408v41.193h-44.244c0-25.432-34.816-25.833-34.581 0-27.259 0-29.385 33.564-0.50855 33.564-0.21819 27.69 35.09 23.398 35.09 0h44.244v45.261c-26.004 0-26.452 36.616 0 36.616 0 24.839 35.599 24.712 35.599 0 26.15 0 27.621-36.616 0-36.616v-45.261h49.592c-1.0175 25.639 35.188 26.52 35.008 0 28.07 0 27.364-33.564 0-33.564 0-27.864-35.008-27.179-34.762 0h-49.838v-41.193c9.1625 0 19.034-9.0796 18.587-17.619 0.61402-13.396-12.578-17.98-18.587-17.98 0-7.2742-7.2241-19.057-18.207-19.13-10.484-0.07022-17.392 9.7218-17.392 19.13-11.928 1.1621-18.839 7.5818-19.489 16.897-1.0083 12.553 12.028 18.702 19.489 18.702z" fill="#fff" fill-rule="evenodd" stroke="#231f20" stroke-width="2"/>
<path d="m256.8 555.98c10.911-15.868 29.804-30.893 40.786-30.809 38.938 0.30925 113.3 0 147.19 0 33.888 0 61.391-27.909 61.391-62.298v-458.87h-502.17v458.87c0 34.389 27.503 62.298 61.391 62.298 33.888 0 113.75 0.18705 147.19 0 1.5846-0.00914 3.2101 0.14851 4.8638 0.4588 13.479 2.5291 28.842 15.199 39.357 30.35z" fill="none" stroke="#1b1a1c" stroke-width="8"/>
</svg>
