<?xml version="1.0" encoding="UTF-8" standalone="no"?>
<!-- Created with Inkscape (http://www.inkscape.org/) -->

<svg
   xmlns:dc="http://purl.org/dc/elements/1.1/"
   xmlns:cc="http://creativecommons.org/ns#"
   xmlns:rdf="http://www.w3.org/1999/02/22-rdf-syntax-ns#"
   xmlns:svg="http://www.w3.org/2000/svg"
   xmlns="http://www.w3.org/2000/svg"
   xmlns:sodipodi="http://sodipodi.sourceforge.net/DTD/sodipodi-0.dtd"
   xmlns:inkscape="http://www.inkscape.org/namespaces/inkscape"
   version="1.0"
   width="208.86046"
   height="244.65999"
   id="svg2780"
   inkscape:version="0.92.5 (2060ec1f9f, 2020-04-08)"
   sodipodi:docname="Raron-blazon.svg">
  <metadata
     id="metadata27">
    <rdf:RDF>
      <cc:Work
         rdf:about="">
        <dc:format>image/svg+xml</dc:format>
        <dc:type
           rdf:resource="http://purl.org/dc/dcmitype/StillImage" />
        <dc:title></dc:title>
      </cc:Work>
    </rdf:RDF>
  </metadata>
  <sodipodi:namedview
     pagecolor="#ffffff"
     bordercolor="#666666"
     borderopacity="1"
     objecttolerance="10"
     gridtolerance="10"
     guidetolerance="10"
     inkscape:pageopacity="0"
     inkscape:pageshadow="2"
     inkscape:window-width="3287"
     inkscape:window-height="1417"
     id="namedview25"
     showgrid="false"
     inkscape:zoom="4"
     inkscape:cx="81.493159"
     inkscape:cy="122.97399"
     inkscape:window-x="-8"
     inkscape:window-y="-8"
     inkscape:window-maximized="1"
     inkscape:current-layer="svg2780"
     inkscape:measure-start="104.255,149.787"
     inkscape:measure-end="104.255,126.383"
     showguides="false"
     inkscape:object-paths="true"
     inkscape:snap-intersection-paths="true"
     inkscape:snap-global="true">
    <sodipodi:guide
       position="104.43024,205.10638"
       orientation="25.957447,0"
       id="guide7901"
       inkscape:locked="false" />
  </sodipodi:namedview>
  <defs
     id="defs2782" />
  <path
     style="opacity:1;fill:#009645;fill-opacity:1;stroke:#000000;stroke-width:1;stroke-miterlimit:4;stroke-dasharray:none;stroke-dashoffset:4.57999992;stroke-opacity:1"
     d="m 60.446729,160.82552 c 4.38817,5.06885 5.78689,9.64763 5.334142,13.90404 -0.362224,3.40544 -4.110353,5.15633 -5.780535,10.92726 -1.134117,-0.59163 -2.297946,-1.12503 -3.217172,-2.13796 -1.228404,6.00091 -6.20371,7.50103 -9.559538,10.94648 -3.745038,-3.13776 -5.134158,-6.78089 -5.227778,-10.70188 -1.090711,0.32019 -2.196084,0.73735 -3.310002,1.21111 -2.897102,-6.23011 1.594252,-10.28566 4.425818,-14.84899 2.251885,-3.62909 -1.635585,-4.54778 -2.983125,-2.51562 -4.573206,6.89665 -10.365489,10.20964 -17.870464,8.15717 0.363099,-0.71338 0.747404,-1.24525 1.01249,-2.79716 -6.73909,-2.59387 -10.587952,-8.36643 -14.3745363,-14.20747 3.7037533,-1.88719 6.2117483,-5.57765 12.1286573,-4.12728 -0.102883,-0.98346 -0.272073,-1.91803 -0.123789,-3.08677 4.483863,-0.45953 7.401901,0.95177 10.111189,2.58921 4.166598,2.51821 6.957486,-3.52998 1.602565,-4.36008 C 25.341,148.65004 20.02294,143.4353 16.963515,134.25626 c 1.286662,-0.005 2.469441,0.42743 4.740122,-0.52309 -4.948397,-4.56578 -5.1485,-11.04905 -2.738911,-18.58621 3.383192,-0.8294 13.467396,3.41098 17.198699,5.66577 0.921255,-1.26352 0.88501,-2.49326 1.214995,-3.35659 6.887211,1.92587 7.649011,10.44345 9.929161,17.07614 0.721158,2.09776 4.60914,2.62268 2.733144,-1.29824 -2.017955,-4.21761 -1.068285,-8.30023 0.644421,-12.47003 1.149001,0.55364 2.119711,1.23877 3.003862,1.98776 1.181824,-7.28315 5.422108,-10.91401 12.335046,-11.35331 0.385551,4.42017 2.675582,6.52499 3.430925,9.8324 0.568496,2.48924 0.270241,5.13468 -0.619006,7.87982 l 3.796425,-0.13463 c -1.30278,5.8709 -3.356864,10.65249 -8.317797,12.49109 -4.314974,1.59922 0.01579,7.17277 2.725053,3.83369 3.337128,-4.11285 7.128944,-7.49603 10.624465,-9.98913 0.269952,1.20348 0.607367,2.20275 1.189924,2.86431 3.455945,-1.74693 6.005103,-1.04949 9.731039,-0.28017 -0.382833,4.30942 -1.307494,10.42762 -6.444131,13.28498 0.967956,0.51631 1.90021,1.05893 2.69259,1.70473 -8.612577,7.06161 -16.599825,8.41481 -24.386815,7.93997 z"
     id="path911"
     inkscape:connector-curvature="0"
     sodipodi:nodetypes="cscccccsscccccsscccccsscccsccssccccccc" />
  <path
     style="opacity:1;fill:#009645;fill-opacity:1;stroke:#000000;stroke-width:1;stroke-miterlimit:4;stroke-dasharray:none;stroke-dashoffset:4.57999992;stroke-opacity:1"
     d="m 146.77875,163.2776 c -4.19019,12.29392 -0.19967,17.43445 4.00189,22.39043 0.70053,-1.25781 1.24498,-2.57253 2.53289,-3.61609 1.10655,4.71108 6.06145,7.38474 7.90787,11.75268 2.33164,-2.64528 4.70976,-5.24141 6.05462,-8.93031 l 3.4247,0.95872 c 3.21049,-10.76707 -0.38483,-13.26329 -3.46527,-16.33514 -2.52602,-2.51898 1.14812,-6.12124 3.29042,-2.65354 2.00392,3.24368 7.15336,7.87815 12.06705,8.88809 0.85975,-1.25161 1.02928,-3.23562 0.98499,-4.3654 4.87587,2.551 9.98182,1.15715 15.04942,0.42098 -1.54637,-4.95806 -3.54598,-9.56455 -8.05146,-12.22736 l 1.78797,-2.22491 c -5.39029,-2.98976 -7.37647,-7.57759 -12.70706,-5.40495 -3.45914,1.40988 -5.2138,-3.82033 -0.44562,-3.6994 10.17049,0.25802 14.74345,-3.22537 18.26049,-11.70347 -1.35493,-1.10541 -2.72505,-1.66723 -4.09728,-2.1542 3.50941,-3.7058 2.64874,-11.24585 3.22738,-16.27826 -6.97886,-0.35514 -15.40834,-4.06877 -21.07008,0.57829 -0.53307,-0.57112 -1.06314,-1.25558 -1.59344,-1.92724 -8.16773,4.66788 -10.38349,10.58659 -9.07833,16.11286 0.86321,3.655 -4.94034,3.23597 -4.16086,0.11893 1.62371,-6.49299 -0.0572,-10.02342 -0.83486,-14.04854 -0.95402,0.60508 -1.84187,1.28019 -2.49344,2.20517 -2.84597,-8.33121 -8.20078,-8.56405 -13.12932,-10.17294 0.40783,6.00916 -3.20485,7.37636 -0.35792,15.60061 -1.27975,-0.77684 -2.51686,-1.61392 -3.3677,-2.99668 -1.84421,7.22566 -0.82706,10.52185 4.69089,17.3892 3.46659,4.31433 -0.85616,8.18395 -3.35126,2.02426 -1.48377,-3.66298 -4.82711,-6.35233 -8.61823,-8.79161 l -0.34038,3.75586 c -3.72394,-1.68083 -7.14679,-1.18063 -10.50544,-0.21541 1.87242,2.61773 1.88549,5.52008 2.19745,8.37667 0.19771,3.92019 2.02248,5.67839 3.87197,7.40374 -0.62978,0.68814 -1.40907,1.28077 -2.40189,1.73706 8.48069,11.19402 14.77655,10.56689 20.7198,8.03188 z"
     id="path913"
     inkscape:connector-curvature="0"
     sodipodi:nodetypes="ccccccsscccccsscccccsscccccsscccccccc" />
  <path
     id="path4212-7"
     style="fill:#cc2918;fill-opacity:1;fill-rule:evenodd;stroke:#000000;stroke-width:1.99999988;stroke-linecap:butt;stroke-miterlimit:4;stroke-dashoffset:0;stroke-opacity:1"
     d="M 204.09935,159.00304 207.86045,1 C 138.90698,1 69.953503,1 1.000029,1 l 3.7611,158.00304 c 1.64138,68.95393 2.88226,67.30563 99.669111,84.64438 96.78685,-17.33875 98.02773,-15.69045 99.66911,-84.64438 z"
     inkscape:connector-curvature="0"
     sodipodi:nodetypes="sccscs" />
  <path
     style="opacity:1;fill:#009645;fill-opacity:1;stroke:#000000;stroke-width:1;stroke-miterlimit:11;stroke-dasharray:none;stroke-dashoffset:4.57999992;stroke-opacity:1"
     d="m 146.29386,164.94629 c -28.24838,-0.80861 -26.27661,-17.77796 -24.88123,-31.80283 2.85742,3.39103 4.10448,3.7749 6.12026,4.82443 3.60366,1.87626 2.30665,6.09231 5.19415,5.2053 1.77871,-0.5464 1.26166,-2.23452 0.51982,-3.06794 -1.0333,-1.16092 -2.86592,-0.93832 -2.98944,-3.32313 -0.74991,-14.4778 12.37753,-18.23481 25.12257,-19.73179 0.73399,2.63989 1.48264,6.11332 0.87248,9.63719 -0.76266,4.40464 -6.52229,8.28895 -2.29147,10.7232 5.01376,2.88473 3.05888,-7.55115 4.27835,-10.6283 4.80724,-12.13029 26.15255,-9.24112 39.26978,-12.20118 -0.12608,22.89966 -1.89461,35.64093 -10.53474,40.67768 -3.91158,2.28025 -11.87235,0.65416 -10.29521,4.92551 1.73234,4.69168 7.87145,-2.11959 10.90445,-3.20615 3.54773,-1.27095 7.39938,-1.52783 11.00316,-2.8226 -4.34042,24.76958 -13.17943,33.72641 -28.57921,29.01313 -2.84244,-0.86995 -2.78771,-3.05456 -3.71528,-4.0791 -0.45234,-0.49962 -1.43826,-1.21722 -2.52921,-0.41964 -1.95587,1.42991 -1.45227,3.52447 -0.28096,4.30224 1.3551,0.89978 3.5473,1.36748 4.57378,2.44301 2.01948,2.11599 2.67037,3.94466 6.78654,5.91684 -22.21366,7.49804 -46.67187,-13.99385 -28.54872,-26.38588 z"
     id="path2682"
     inkscape:connector-curvature="0"
     sodipodi:nodetypes="ccsssscssscssscsssssccc" />
  <path
     style="opacity:1;fill:#009645;fill-opacity:1;stroke:#000000;stroke-width:1;stroke-miterlimit:11;stroke-dasharray:none;stroke-dashoffset:4.57999992;stroke-opacity:1"
     d="m 62.009628,162.52887 c 28.248381,-0.80861 26.276611,-17.77796 24.881231,-31.80283 -2.85742,3.39103 -4.10448,3.7749 -6.12026,4.82443 -3.603661,1.87626 -2.30665,6.09231 -5.194151,5.2053 -1.77871,-0.5464 -1.747796,-3.38357 -1.005956,-4.21699 1.0333,-1.16092 2.86592,-0.93832 2.98944,-3.32313 0.749911,-14.4778 -11.891394,-17.08576 -24.636434,-18.58274 -0.73399,2.63989 -1.48264,6.11332 -0.87248,9.63719 0.76266,4.40464 7.037201,9.58151 2.29147,10.7232 -4.801657,1.15514 -3.05888,-7.55115 -4.27835,-10.6283 -4.80724,-12.13029 -20.259791,-7.79366 -32.968,-12.18969 -2.37392,22.39966 -4.40717,35.62944 4.23296,40.66619 3.91158,2.28025 11.209437,0.21222 10.29521,4.92551 -0.952339,4.90978 -7.87145,-2.11959 -10.90445,-3.20615 -3.54773,-1.27095 -7.39938,-1.52783 -11.0031602,-2.8226 4.3404202,24.76958 13.4887902,34.69868 28.8885702,29.9854 2.84244,-0.86995 2.78771,-3.05456 3.71528,-4.0791 0.45234,-0.49962 1.43826,-1.21722 2.52921,-0.41964 1.95587,1.42991 1.14291,2.5522 -0.0284,3.32997 -1.3551,0.89978 -3.5473,1.36748 -4.57378,2.44301 -2.01948,2.11599 -2.67037,3.94466 -6.78654,5.91684 22.21366,7.49804 46.671871,-13.99385 28.54872,-26.38588 z"
     id="path2682-0"
     inkscape:connector-curvature="0"
     sodipodi:nodetypes="ccsssscssscssscsssssccc" />
  <g
     id="g10505">
    <path
       sodipodi:nodetypes="csscscc"
       inkscape:connector-curvature="0"
       id="path2818-2-2-3"
       d="M 121.17802,27.246662 C 120.2568,23.446199 118.87467,19.91174 117.11405,17.031289 114.16267,12.202704 110.1179,9.6167209 106.80426,8.8765331 99.877044,7.3291571 92.70287,11.745448 90.25065,16.012255 c 6.35771,-4.794603 15.36121,-6.3282372 19.89644,-2.277728 4.15053,3.706931 6.71227,9.264478 7.87756,15.270619 z"
       style="opacity:1;fill:#feeb00;fill-opacity:1;stroke:#000000;stroke-width:1;stroke-miterlimit:20;stroke-dasharray:none;stroke-dashoffset:4.57999992;stroke-opacity:1" />
    <path
       sodipodi:nodetypes="cssccccccccccsc"
       inkscape:connector-curvature="0"
       d="m 102.75739,45.270152 c 9.31308,-13.656128 19.95093,-25.20474 30.28874,-31.360155 7.72362,-4.5988543 17.51374,-6.2413023 24.78879,-0.477185 2.35255,1.863953 4.37877,3.774065 5.91802,6.349279 10.91367,-0.0033 17.432,16.113481 17.37298,17.300239 l -4.29274,0.556893 c -0.78939,-2.592664 -5.61293,-13.888918 -12.14549,-13.722439 1.65981,3.5126 2.58306,9.74083 1.93686,17.42627 l -5.41269,-1.335786 c 1.34936,-9.373714 1.0103,-12.725115 -0.98475,-15.788684 -9.82648,2.170701 -9.14879,12.022232 -9.98695,13.963867 l -3.22167,-0.273802 c -0.3842,-7.530693 3.89714,-15.406425 10.97142,-17.306711 -5.69265,-7.562064 -14.39247,-7.27777 -20.87944,-2.566941 -10.78565,7.832529 -21.47784,20.553506 -30.17648,34.145249 z"
       style="opacity:1;fill:#feeb00;fill-opacity:1;stroke:#000000;stroke-width:1;stroke-miterlimit:20;stroke-dasharray:none;stroke-dashoffset:4.57999992;stroke-opacity:1"
       id="path2680-7-8" />
    <path
       sodipodi:nodetypes="sscscscsccscscccccsccccsccsssscsccsssccccccccccscsccscccscccccsccscssss"
       inkscape:connector-curvature="0"
       d="m 63.132307,201.28946 c -7.448096,-0.46214 -10.995626,1.47263 -12.158151,5.49062 -1.647312,5.69354 -5.718795,9.38484 -9.3103,13.57682 3.979695,-1.82081 9.582074,-2.03103 13.333214,-9.79748 2.772862,-5.74099 13.475773,0.0808 21.065625,-1.78482 -0.762683,3.86853 -1.369796,8.35203 -1.439494,11.89891 -0.08867,4.51216 -3.590187,5.93012 -8.495916,4.12189 2.940564,5.30871 11.89973,5.42805 12.558697,0.28566 0.609128,-4.75346 2.2259,-13.05837 5.320262,-17.40165 8.631079,-4.29788 8.941939,1.96003 15.710058,-4.79267 -0.358439,10.75174 2.721378,13.54327 3.558208,20.25119 0.64948,5.20625 -3.4742,6.94131 -8.815789,11.59441 5.370051,-0.69164 7.144089,-0.66087 9.641169,-3.20164 2.90656,-2.95741 4.31347,-6.66847 8.97943,-6.48182 3.99673,0.15987 7.56851,3.12369 11.06281,6.58874 -0.43039,-4.75466 -4.76456,-8.07431 -9.00277,-10.18969 -3.53389,-1.76386 -5.19817,-0.33721 -6.55089,-7.67978 -0.53706,-2.91521 -0.82451,-7.09543 0.56094,-11.50253 2.41988,2.84769 3.87606,5.44433 9.84468,5.91208 5.01701,0.39317 9.14916,3.36526 10.95329,7.28755 2.34297,5.09376 6.95369,7.80505 11.53748,9.08312 3.22491,0.89916 7.97196,-0.1722 10.22977,-0.93552 -12.72428,-2.40025 -15.41597,-7.39124 -16.29061,-13.43856 3.78015,-1.59772 9.13968,-3.01174 12.81537,-0.29949 10.97452,8.09799 16.50956,6.13344 22.12563,4.99148 -7.39215,-2.00753 -14.80715,-4.05315 -19.71591,-10.88142 -4.01854,-5.5899 -10.06964,-2.88873 -17.81307,-2.14486 -16.08236,1.54496 -16.62373,-9.44378 -17.0584,-14.5344 -0.53033,-6.21095 0.59762,-9.94314 3.47864,-12.36344 3.21183,-2.69821 15.30345,-4.55237 19.64505,-5.91855 19.23443,-6.05256 28.29858,-24.52506 38.87945,-35.59998 -10.44983,8.57764 -25.97497,29.49119 -38.29334,31.45235 -12.53831,1.99617 -19.30526,2.58944 -25.22671,5.90273 -4.24374,-37.30743 0.88788,-40.12759 8.92493,-46.94454 9.5163,-8.07193 10.27027,-21.0598 4.18934,-37.549178 C 116.87976,57.825549 95.787081,25.802304 75.814338,13.909994 68.090715,9.3111403 58.300599,7.6686919 51.025546,13.432809 c -2.352547,1.863953 -4.378767,3.774065 -5.918021,6.34928 -10.913669,-0.0033 -17.431991,16.113481 -17.372981,17.300239 l 4.29274,0.556893 c 0.789395,-2.592664 5.612932,-13.888918 12.145493,-13.722439 -1.659811,3.5126 -2.583062,9.74083 -1.936865,17.42627 l 5.412689,-1.335786 c -1.349352,-9.373714 -1.0103,-12.725115 0.984757,-15.788684 9.82648,2.170701 9.148783,12.022232 9.986952,13.963867 l 3.221664,-0.273802 C 62.226178,30.377954 57.944831,22.502222 50.870557,20.601936 56.563202,13.039871 65.263029,13.324166 71.749998,18.034994 101.03899,39.304619 129.63872,96.622688 119.5,109.53499 c -0.29465,-10.554526 -6.00072,-20.247379 -13,-29.499997 -3.69628,-4.886259 -6.35525,-8.852467 -8.378423,-12.479016 l -2.567005,5.260328 c 3.541034,6.161834 7.722578,11.986491 11.837268,18.13635 4.70917,7.038374 5.69586,17.029035 5.60816,24.457335 l -8.56976,7.625 -8.56976,-7.625 c -0.0877,-7.4283 -0.262621,-15.30392 4.44655,-22.34229 1.3869,-2.072871 2.7889,-4.144065 4.17852,-6.229838 l -3.35908,-5.147543 c -6.424735,8.753068 -11.488861,17.917753 -11.76599,27.844671 -6.066663,-7.72628 1.54812,-31.040217 15.06976,-53.328221 -1.40919,-2.291233 -2.85771,-4.598196 -4.41346,-6.948056 -7.648284,11.813088 -13.948573,24.599521 -18.5313,37.026283 -6.080932,16.489374 -5.32696,29.477244 4.18934,37.549174 8.03705,6.81695 13.522221,8.04612 9.190099,46.85616 -5.92145,-3.31329 -11.091129,-5.59667 -23.629439,-7.59284 -12.31837,-1.96116 -28.970858,-18.14923 -37.946068,-28.25965 8.8082,12.3407 20.237848,27.65206 39.47228,33.70462 4.341598,1.36618 13.084386,4.14788 16.223788,6.93003 3.22477,2.8578 5.413385,5.64162 4.627687,11.65633 -1.485804,11.37418 -14.194983,15.17115 -30.48086,14.16064 z"
       style="opacity:1;fill:#feeb00;fill-opacity:1;stroke:#000000;stroke-width:1;stroke-miterlimit:20;stroke-dasharray:none;stroke-dashoffset:4.57999992;stroke-opacity:1"
       id="path2849" />
    <path
       sodipodi:nodetypes="csssscsssscc"
       inkscape:connector-curvature="0"
       id="path2818-8"
       d="M 91.259689,64.292936 C 87.980431,56.664466 86.00121,48.25576 86.374998,37.909997 c 0.379955,-10.516431 6.392459,-20.685469 14.187502,-22.1875 5.58208,-1.075615 9.67413,1.617788 10.04799,6.4375 0.50481,6.507842 -4.4067,7.637827 -7.44368,5.852299 -1.31888,-0.775405 -3.240607,-2.119835 -2.29246,-4.733804 0.45534,1.2996 1.84947,2.586023 2.93119,2.949261 2.45472,0.824284 4.54629,-0.343206 4.29043,-3.442756 -0.59641,-7.225098 -9.097855,-4.833093 -12.616959,-0.550476 -6.456096,7.856826 -6.643737,16.635297 -4.287071,26.301999 0.949945,3.896536 1.835676,7.175285 2.989269,10.375465 z"
       style="opacity:1;fill:#feeb00;fill-opacity:1;stroke:#000000;stroke-width:1;stroke-miterlimit:20;stroke-dasharray:none;stroke-dashoffset:4.57999992;stroke-opacity:1" />
    <path
       sodipodi:nodetypes="csccscc"
       inkscape:connector-curvature="0"
       id="path2818-2-2-36"
       d="m 107.79606,81.774929 c 8.6966,-13.275291 14.79224,-24.803693 14.68942,-43.864933 -0.0105,-1.950511 -0.16472,-3.94994 -0.42459,-5.89513 -1.15193,1.308016 -2.25747,2.580975 -3.31642,3.875811 0.0387,1.774413 -0.0191,3.605003 -0.19649,5.331818 -1.19595,11.641423 -4.60327,22.987685 -14.13527,35.999191 z"
       style="opacity:1;fill:#feeb00;fill-opacity:1;stroke:#000000;stroke-width:1;stroke-miterlimit:20;stroke-dasharray:none;stroke-dashoffset:4.57999992;stroke-opacity:1" />
  </g>
  <g
     id="g10431">
    <ellipse
       transform="scale(-1,1)"
       ry="9.3431673"
       rx="9.3470459"
       cy="103.43575"
       cx="-45.873268"
       id="path2684-63-9-1"
       style="opacity:1;fill:#feeb00;fill-opacity:1;stroke:#000000;stroke-width:1;stroke-miterlimit:20;stroke-dasharray:none;stroke-dashoffset:4.57999992;stroke-opacity:1" />
    <ellipse
       transform="scale(-1,1)"
       ry="9.3431673"
       rx="9.3470459"
       cy="92.671623"
       cx="-51.58271"
       id="path2684-63-2-1"
       style="opacity:1;fill:#feeb00;fill-opacity:1;stroke:#000000;stroke-width:1;stroke-miterlimit:20;stroke-dasharray:none;stroke-dashoffset:4.57999992;stroke-opacity:1" />
    <ellipse
       transform="scale(-1,1)"
       ry="9.3431673"
       rx="9.3470459"
       cy="92.838615"
       cx="-38.551964"
       id="path2684-63-8-4"
       style="opacity:1;fill:#feeb00;fill-opacity:1;stroke:#000000;stroke-width:1;stroke-miterlimit:20;stroke-dasharray:none;stroke-dashoffset:4.57999992;stroke-opacity:1" />
    <ellipse
       transform="scale(-1,1)"
       ry="9.3431673"
       rx="9.3470459"
       cy="80.546249"
       cx="-30.264122"
       id="path2684-63-44-3"
       style="opacity:1;fill:#feeb00;fill-opacity:1;stroke:#000000;stroke-width:1;stroke-miterlimit:20;stroke-dasharray:none;stroke-dashoffset:4.57999992;stroke-opacity:1" />
    <ellipse
       transform="scale(-1,1)"
       ry="9.3431673"
       rx="9.3470459"
       cy="79.795273"
       cx="-45.047249"
       id="path2684-63-0-0"
       style="opacity:1;fill:#feeb00;fill-opacity:1;stroke:#000000;stroke-width:1;stroke-miterlimit:20;stroke-dasharray:none;stroke-dashoffset:4.57999992;stroke-opacity:1" />
    <ellipse
       transform="scale(-1,1)"
       ry="9.3431673"
       rx="9.3470459"
       cy="81.216148"
       cx="-61.666801"
       id="path2684-63-04"
       style="opacity:1;fill:#feeb00;fill-opacity:1;stroke:#000000;stroke-width:1;stroke-miterlimit:20;stroke-dasharray:none;stroke-dashoffset:4.57999992;stroke-opacity:1" />
    <ellipse
       transform="scale(-1,1)"
       ry="9.3431673"
       rx="9.3470459"
       cy="67.439865"
       cx="-66.266304"
       id="path2684-63-1-7"
       style="opacity:1;fill:#feeb00;fill-opacity:1;stroke:#000000;stroke-width:1;stroke-miterlimit:20;stroke-dasharray:none;stroke-dashoffset:4.57999992;stroke-opacity:1" />
    <ellipse
       transform="scale(-1,1)"
       ry="9.3431673"
       rx="9.3470459"
       cy="66.347115"
       cx="-22.995216"
       id="path2684-63-58-7"
       style="opacity:1;fill:#feeb00;fill-opacity:1;stroke:#000000;stroke-width:1;stroke-miterlimit:20;stroke-dasharray:none;stroke-dashoffset:4.57999992;stroke-opacity:1" />
    <ellipse
       transform="scale(-1,1)"
       ry="9.3431673"
       rx="9.3470459"
       cy="67.437912"
       cx="-53.734383"
       id="path2684-63-4-8"
       style="opacity:1;fill:#feeb00;fill-opacity:1;stroke:#000000;stroke-width:1;stroke-miterlimit:20;stroke-dasharray:none;stroke-dashoffset:4.57999992;stroke-opacity:1" />
    <ellipse
       transform="scale(-1,1)"
       ry="9.3431673"
       rx="9.3470459"
       cy="65.93499"
       cx="-37.028313"
       id="path2684-63-13-7"
       style="opacity:1;fill:#feeb00;fill-opacity:1;stroke:#000000;stroke-width:1;stroke-miterlimit:20;stroke-dasharray:none;stroke-dashoffset:4.57999992;stroke-opacity:1" />
    <ellipse
       transform="scale(-1,1)"
       ry="9.543395"
       rx="9.5578012"
       cy="53.420124"
       cx="-73.440575"
       id="path2684-0-7"
       style="opacity:1;fill:#feeb00;fill-opacity:1;stroke:#000000;stroke-width:1;stroke-miterlimit:20;stroke-dasharray:none;stroke-dashoffset:4.57999992;stroke-opacity:1" />
    <ellipse
       transform="scale(-1,1)"
       ry="9.543395"
       rx="9.5578012"
       cy="51.727341"
       cx="-30.828316"
       id="path2684-9-4"
       style="opacity:1;fill:#feeb00;fill-opacity:1;stroke:#000000;stroke-width:1;stroke-miterlimit:20;stroke-dasharray:none;stroke-dashoffset:4.57999992;stroke-opacity:1" />
    <ellipse
       transform="scale(-1,1)"
       ry="9.543395"
       rx="9.5578012"
       cy="55.018967"
       cx="-46.971626"
       id="path2684-609-9"
       style="opacity:1;fill:#feeb00;fill-opacity:1;stroke:#000000;stroke-width:1;stroke-miterlimit:20;stroke-dasharray:none;stroke-dashoffset:4.57999992;stroke-opacity:1" />
    <ellipse
       transform="scale(-1,1)"
       ry="9.543395"
       rx="9.5578012"
       cy="51.034027"
       cx="-59.542534"
       id="path2684-1-8"
       style="opacity:1;fill:#feeb00;fill-opacity:1;stroke:#000000;stroke-width:1;stroke-miterlimit:20;stroke-dasharray:none;stroke-dashoffset:4.57999992;stroke-opacity:1" />
    <ellipse
       transform="scale(-1,1)"
       ry="9.543395"
       rx="9.5578012"
       cy="53.252167"
       cx="-15.663368"
       id="path2684-5-5"
       style="opacity:1;fill:#feeb00;fill-opacity:1;stroke:#000000;stroke-width:1;stroke-miterlimit:20;stroke-dasharray:none;stroke-dashoffset:4.57999992;stroke-opacity:1" />
    <ellipse
       transform="scale(-1,1)"
       ry="9.543395"
       rx="9.5578012"
       cy="39.510338"
       cx="-17.525902"
       id="path2684-60-8"
       style="opacity:1;fill:#feeb00;fill-opacity:1;stroke:#000000;stroke-width:1;stroke-miterlimit:20;stroke-dasharray:none;stroke-dashoffset:4.57999992;stroke-opacity:1" />
    <ellipse
       transform="scale(-1,1)"
       ry="9.543395"
       rx="9.5578012"
       cy="39.931725"
       cx="-44.388451"
       id="path2684-3"
       style="opacity:1;fill:#feeb00;fill-opacity:1;stroke:#000000;stroke-width:1;stroke-miterlimit:20;stroke-dasharray:none;stroke-dashoffset:4.57999992;stroke-opacity:1" />
    <ellipse
       transform="scale(-1,1)"
       ry="9.3431673"
       rx="9.3470459"
       cy="35.876537"
       cx="-30.512947"
       id="path2684-63-51-7"
       style="opacity:1;fill:#feeb00;fill-opacity:1;stroke:#000000;stroke-width:1;stroke-miterlimit:20;stroke-dasharray:none;stroke-dashoffset:4.57999992;stroke-opacity:1" />
    <ellipse
       transform="scale(-1,1)"
       ry="9.3431673"
       rx="9.3470459"
       cy="39.214428"
       cx="-72.279289"
       id="path2684-63-5-5"
       style="opacity:1;fill:#feeb00;fill-opacity:1;stroke:#000000;stroke-width:1;stroke-miterlimit:20;stroke-dasharray:none;stroke-dashoffset:4.57999992;stroke-opacity:1" />
    <ellipse
       transform="scale(-1,1)"
       ry="9.543395"
       rx="9.5578012"
       cy="36.36311"
       cx="-58.439579"
       id="path2684-6-3"
       style="opacity:1;fill:#feeb00;fill-opacity:1;stroke:#000000;stroke-width:1;stroke-miterlimit:20;stroke-dasharray:none;stroke-dashoffset:4.57999992;stroke-opacity:1" />
  </g>
  <g
     id="g10453">
    <ellipse
       ry="9.3431673"
       rx="9.3470459"
       cy="103.43575"
       cx="162.98721"
       id="path2684-63-9-1-7"
       style="opacity:1;fill:#feeb00;fill-opacity:1;stroke:#000000;stroke-width:1;stroke-miterlimit:20;stroke-dasharray:none;stroke-dashoffset:4.57999992;stroke-opacity:1" />
    <ellipse
       ry="9.3431673"
       rx="9.3470459"
       cy="92.671623"
       cx="157.27777"
       id="path2684-63-2-1-9"
       style="opacity:1;fill:#feeb00;fill-opacity:1;stroke:#000000;stroke-width:1;stroke-miterlimit:20;stroke-dasharray:none;stroke-dashoffset:4.57999992;stroke-opacity:1" />
    <ellipse
       ry="9.3431673"
       rx="9.3470459"
       cy="92.838608"
       cx="170.30852"
       id="path2684-63-8-4-6"
       style="opacity:1;fill:#feeb00;fill-opacity:1;stroke:#000000;stroke-width:1;stroke-miterlimit:20;stroke-dasharray:none;stroke-dashoffset:4.57999992;stroke-opacity:1" />
    <ellipse
       ry="9.3431673"
       rx="9.3470459"
       cy="80.546249"
       cx="178.59636"
       id="path2684-63-44-3-8"
       style="opacity:1;fill:#feeb00;fill-opacity:1;stroke:#000000;stroke-width:1;stroke-miterlimit:20;stroke-dasharray:none;stroke-dashoffset:4.57999992;stroke-opacity:1" />
    <ellipse
       ry="9.3431673"
       rx="9.3470459"
       cy="81.216148"
       cx="147.19368"
       id="path2684-63-04-0"
       style="opacity:1;fill:#feeb00;fill-opacity:1;stroke:#000000;stroke-width:1;stroke-miterlimit:20;stroke-dasharray:none;stroke-dashoffset:4.57999992;stroke-opacity:1" />
    <ellipse
       ry="9.3431673"
       rx="9.3470459"
       cy="67.439873"
       cx="142.59418"
       id="path2684-63-1-7-3"
       style="opacity:1;fill:#feeb00;fill-opacity:1;stroke:#000000;stroke-width:1;stroke-miterlimit:20;stroke-dasharray:none;stroke-dashoffset:4.57999992;stroke-opacity:1" />
    <ellipse
       ry="9.3431673"
       rx="9.3470459"
       cy="66.347122"
       cx="185.86526"
       id="path2684-63-58-7-2"
       style="opacity:1;fill:#feeb00;fill-opacity:1;stroke:#000000;stroke-width:1;stroke-miterlimit:20;stroke-dasharray:none;stroke-dashoffset:4.57999992;stroke-opacity:1" />
    <ellipse
       ry="9.3431673"
       rx="9.3470459"
       cy="79.795273"
       cx="163.81323"
       id="path2684-63-0-0-6"
       style="opacity:1;fill:#feeb00;fill-opacity:1;stroke:#000000;stroke-width:1;stroke-miterlimit:20;stroke-dasharray:none;stroke-dashoffset:4.57999992;stroke-opacity:1" />
    <ellipse
       ry="9.3431673"
       rx="9.3470459"
       cy="67.43792"
       cx="155.1261"
       id="path2684-63-4-8-1"
       style="opacity:1;fill:#feeb00;fill-opacity:1;stroke:#000000;stroke-width:1;stroke-miterlimit:20;stroke-dasharray:none;stroke-dashoffset:4.57999992;stroke-opacity:1" />
    <ellipse
       ry="9.3431673"
       rx="9.3470459"
       cy="65.934998"
       cx="171.83217"
       id="path2684-63-13-7-6"
       style="opacity:1;fill:#feeb00;fill-opacity:1;stroke:#000000;stroke-width:1;stroke-miterlimit:20;stroke-dasharray:none;stroke-dashoffset:4.57999992;stroke-opacity:1" />
    <ellipse
       ry="9.543395"
       rx="9.5578012"
       cy="53.420132"
       cx="135.41991"
       id="path2684-0-7-3"
       style="opacity:1;fill:#feeb00;fill-opacity:1;stroke:#000000;stroke-width:1;stroke-miterlimit:20;stroke-dasharray:none;stroke-dashoffset:4.57999992;stroke-opacity:1" />
    <ellipse
       ry="9.543395"
       rx="9.5578012"
       cy="51.034035"
       cx="149.31795"
       id="path2684-1-8-1"
       style="opacity:1;fill:#feeb00;fill-opacity:1;stroke:#000000;stroke-width:1;stroke-miterlimit:20;stroke-dasharray:none;stroke-dashoffset:4.57999992;stroke-opacity:1" />
    <ellipse
       ry="9.543395"
       rx="9.5578012"
       cy="53.252174"
       cx="193.19711"
       id="path2684-5-5-6"
       style="opacity:1;fill:#feeb00;fill-opacity:1;stroke:#000000;stroke-width:1;stroke-miterlimit:20;stroke-dasharray:none;stroke-dashoffset:4.57999992;stroke-opacity:1" />
    <ellipse
       ry="9.543395"
       rx="9.5578012"
       cy="39.510345"
       cx="191.33458"
       id="path2684-60-8-9"
       style="opacity:1;fill:#feeb00;fill-opacity:1;stroke:#000000;stroke-width:1;stroke-miterlimit:20;stroke-dasharray:none;stroke-dashoffset:4.57999992;stroke-opacity:1" />
    <ellipse
       ry="9.3431673"
       rx="9.3470459"
       cy="39.214436"
       cx="136.58119"
       id="path2684-63-5-5-2"
       style="opacity:1;fill:#feeb00;fill-opacity:1;stroke:#000000;stroke-width:1;stroke-miterlimit:20;stroke-dasharray:none;stroke-dashoffset:4.57999992;stroke-opacity:1" />
    <ellipse
       ry="9.543395"
       rx="9.5578012"
       cy="36.363117"
       cx="150.4209"
       id="path2684-6-3-6"
       style="opacity:1;fill:#feeb00;fill-opacity:1;stroke:#000000;stroke-width:1;stroke-miterlimit:20;stroke-dasharray:none;stroke-dashoffset:4.57999992;stroke-opacity:1" />
    <ellipse
       ry="9.543395"
       rx="9.5578012"
       cy="55.018974"
       cx="161.88885"
       id="path2684-609-9-0"
       style="opacity:1;fill:#feeb00;fill-opacity:1;stroke:#000000;stroke-width:1;stroke-miterlimit:20;stroke-dasharray:none;stroke-dashoffset:4.57999992;stroke-opacity:1" />
    <ellipse
       ry="9.543395"
       rx="9.5578012"
       cy="51.727348"
       cx="178.03217"
       id="path2684-9-4-7"
       style="opacity:1;fill:#feeb00;fill-opacity:1;stroke:#000000;stroke-width:1;stroke-miterlimit:20;stroke-dasharray:none;stroke-dashoffset:4.57999992;stroke-opacity:1" />
    <ellipse
       ry="9.3431673"
       rx="9.3470459"
       cy="35.876545"
       cx="178.34753"
       id="path2684-63-51-7-6"
       style="opacity:1;fill:#feeb00;fill-opacity:1;stroke:#000000;stroke-width:1;stroke-miterlimit:20;stroke-dasharray:none;stroke-dashoffset:4.57999992;stroke-opacity:1" />
    <ellipse
       ry="9.543395"
       rx="9.5578012"
       cy="39.931732"
       cx="164.47203"
       id="path2684-3-5"
       style="opacity:1;fill:#feeb00;fill-opacity:1;stroke:#000000;stroke-width:1;stroke-miterlimit:20;stroke-dasharray:none;stroke-dashoffset:4.57999992;stroke-opacity:1" />
  </g>
</svg>
