<?xml version="1.0" encoding="UTF-8"?>
<svg version="1.0" viewBox="0 0 603 763" xmlns="http://www.w3.org/2000/svg" xmlns:cc="http://web.resource.org/cc/" xmlns:dc="http://purl.org/dc/elements/1.1/" xmlns:rdf="http://www.w3.org/1999/02/22-rdf-syntax-ns#" xmlns:xlink="http://www.w3.org/1999/xlink">
<metadata>
<rdf:RDF>
<cc:Work rdf:about="">
<dc:format>image/svg+xml</dc:format>
<dc:type rdf:resource="http://purl.org/dc/dcmitype/StillImage"/>
<dc:date>07-AUG-2006</dc:date>
<dc:creator>
<cc:Agent>
<dc:title>Jérôme BLUM (wagner51)</dc:title>
</cc:Agent>
</dc:creator>
<cc:license rdf:resource="http://creativecommons.org/licenses/GPL/2.0/"/>
<dc:coverage/>
<dc:description>Gabarit pour le Projet:Blasons de WIkipédia</dc:description>
<dc:subject>
<rdf:Bag>
<rdf:li>blason suisse modèle gabarit projet blasons</rdf:li>
</rdf:Bag>
</dc:subject>
<dc:language>fr</dc:language>
<dc:title>Gabrit d'un blason suisse</dc:title>
</cc:Work>
<cc:License rdf:about="http://creativecommons.org/licenses/GPL/2.0/">
<cc:permits rdf:resource="http://web.resource.org/cc/Reproduction"/>
<cc:permits rdf:resource="http://web.resource.org/cc/Distribution"/>
<cc:requires rdf:resource="http://web.resource.org/cc/Notice"/>
<cc:permits rdf:resource="http://web.resource.org/cc/DerivativeWorks"/>
<cc:requires rdf:resource="http://web.resource.org/cc/ShareAlike"/>
<cc:requires rdf:resource="http://web.resource.org/cc/SourceCode"/>
</cc:License>
</rdf:RDF>
</metadata>
<defs>
<radialGradient id="a" cx="858.04" cy="579.93" r="300" gradientTransform="matrix(1.215 1.5316e-24 1.4647e-23 1.2667 -839.19 -490.49)" gradientUnits="userSpaceOnUse">
<stop stop-color="#fff" stop-opacity=".31373" offset="0"/>
<stop stop-color="#fff" stop-opacity=".25098" offset=".19"/>
<stop stop-color="#6b6b6b" stop-opacity=".12549" offset=".6"/>
<stop stop-opacity=".12549" offset="1"/>
</radialGradient>
</defs>
<desc>Coat of Arms of Canton of Freiburg (Fribourg)</desc>
<g>
<path d="m1.5 1.5v458.87c0 166.31 134.31 301.13 300 301.13 165.69 0 300-134.82 300-301.13v-458.87h-600z" fill="#2b5df2" stroke="#000" stroke-width="2"/>
<path d="m1.5 1.5v458.87c0 166.31 134.31 301.13 300 301.13l-2e-5 -760h-300z" fill="#e20909" stroke="#000" stroke-width="2"/>
<path d="m456.01 212.61 21.955-16h21.04l20.125 16v25.214h-63.121v-25.214z" fill="#646464"/>
<path d="m554.41 420.29h-134.82v-153.68l44.825-44.825h45.175l44.825 44.825v153.68z" fill="#fff" fill-rule="evenodd" stroke="#000" stroke-width="5"/>
<path d="m503.71 190.62h-33.428v-62.078h33.428v62.078z" fill="#fff" fill-rule="evenodd" stroke="#000" stroke-width="5"/>
<path d="m487 170.14-93.717 93.587v27.77l93.717-93.587 93.717 93.587v-27.77l-93.717-93.587z" fill="#fff" stroke="#000" stroke-linecap="square" stroke-width="10"/>
<g transform="translate(553.12 45.955)" fill="none" stroke="#000" stroke-width="8">
<path d="m-66.121-19.146v46.654"/>
<path d="m-82.331-1.9352h32.421"/>
</g>
<rect x="472.84" y="335.16" width="28.312" height="87.633"/>
<rect x="101.58" y="292.27" width="25.774" height="140.67" fill="#604000" stroke="#000" stroke-linecap="square" stroke-width="5.163"/>
<path d="m600.75 421.08s0.75086-127.02 0.75086 39.287-134.31 301.13-300 301.13c-165.69 0-300-134.82-300-301.13s0.50118-39.287 0.50118-39.287 18.711-26.434 37.422-26.434c18.711 0 37.422 26.434 37.422 26.434s18.711-26.434 37.422-26.434c18.711 0 37.422 26.434 37.422 26.434s18.711-26.434 37.422-26.434c18.711 0 37.422 26.434 37.422 26.434s18.711-26.434 37.422-26.434 37.422 26.434 37.422 26.434 18.711-26.434 37.422-26.434 37.422 26.434 37.422 26.434 18.711-26.434 37.422-26.434c18.711 0 37.422 26.434 37.422 26.434s18.711-26.434 37.422-26.434 37.422 26.434 37.422 26.434 18.711-26.434 37.422-26.434 37.422 26.434 37.422 26.434z" fill="#5ab532" stroke="#000" stroke-width="2"/>
<path d="m301.28 75.094c0.0134 0-78.388 368.82-230.78 577.41 55.028 66.589 138.07 109 231 109 92.914 0 175.97-42.395 231-108.97-152.51-208.58-231.23-577.44-231.22-577.44z" fill="#fcef3c" stroke="#000" stroke-width="2"/>
<path d="m111.03 590.66c-12.871 21.709-26.38 42.475-40.531 61.844 55.028 66.589 138.07 109 231 109 92.914 0 175.97-42.395 231-108.97-13.83-18.915-27.044-39.156-39.656-60.312-0.0027-0.0046-0.02855 0.0045-0.03125 0-2.7162-0.992-5.4726-1.5625-8.25-1.5625-18.711 0-37.438 26.438-37.438 26.438-1e-5 -1e-4 -18.695-26.438-37.406-26.438s-37.438 26.438-37.438 26.438c0-1e-4 -18.695-26.438-37.406-26.438s-37.438 26.438-37.438 26.438c1e-5 -1e-4 -18.695-26.438-37.406-26.438-18.711 0-37.438 26.438-37.438 26.438 1e-5 -1e-4 -18.695-26.438-37.406-26.438s-37.438 26.438-37.438 26.438c0-1e-4 -18.24-25.804-36.719-26.438z" fill="#2b5df2" stroke="#000" stroke-width="2"/>
<path d="m108.91 315.28c-3.7361 1.7093-12.358 5.0594-16.078 3.9127-21.078-6.498-25.626-34.988-33.59-50.366-5.2298-24.588-14.97-48.36-11.123-66.876 7.4544-0.48093 6.8537 7.8453 14.308 7.3644-4.3615-17.8-8.8064-59.44-3.607-63.483 6.5638-1.8921 15.517 8.4562 20.92 4.1779-2.4046-8.6567-1.2023-20.199-3.607-28.856 5.2902-2.4046 7.6949-0.48093 12.985-2.8856-0.63101-14.097-4.3121-31.244 2.1642-38.234 4.5688 5.0498 6.9735 12.985 11.542 18.035 0.95901-25.254 9.4084-42.742 18.035-52.662 5.0646 7.2915 6.2521 36.142 9.3781 51.219 2.8856 1.6832 5.7712 3.3665 8.6567 5.0497v40.398c4.0879-2.8856 6.2372-7.0635 10.325-9.9491 2.5003 10.966 7.1126 23.05 6.2669 37.362 2.8856 0.24046 5.7712 0.48093 8.6567 0.72139-4.5658 19.557-3.1965 37.135-2.1642 54.826 4.3284-1.2023 0.72139-3.126 8.6567-4.3284-0.96185 14.668-1.2023 25.73-2.1642 40.398-3.8474 8.6567-4.0879 21.642-7.9353 30.298-3.8474 4.5688-7.6948 9.1376-11.542 13.706-7.9353 2.9356-15.871 2.1012-23.806-0.72139-7.2139 2.8856-9.2295 7.6659-16.279 10.891z" fill="#5ab532" fill-rule="evenodd" stroke="#000" stroke-width="4"/>
<path d="m61.869 209.96c1.4287 5.9874 0.54176 12.516 3.4417 18.131 3.6252 2.968 8.3717 0.49041 11.773-1.5823 1.5231-1.1629-0.52078 20.24 1.5085 24.016 2.0671 3.8464 3.8153-16.726 6.4159-16.443 2.9978 0.32594 3.1113 23.46 5.3046 25.108 2.5412 1.9093 6.584-16.651 7.9744-12.575 1.7678 5.1825 9.9461 30.155 8.8149 46.704" color="#000000" fill="none" stroke="#000" stroke-width="3"/>
<path d="m78.669 151.16c1.887 3.4109 2.7012 14.423 5.1306 19.252 1.3818 4.9935 1.9698 17.448 3.6368 22.39 1.9873 3.5496 9.5204 10.094 9.3257 11.991" color="#000000" fill="none" stroke="#000" stroke-width="3"/>
<path d="m102.58 96.231c5.8637 17.529 11.287 44.287 7.1607 62.676 4.612 1.8024 10.674-18.267 14.341-9.4954 4.1488 9.9238 4.3018 41.229 3.8037 46.816 2.0009 17.349 4.0974 26.66 7.6414 36.335 1.1508 3.1414 5.0101-11.308 6.6777-5.7195 1.839 6.1628-4.2544 24.634-6.1631 35.075-0.78459 4.8279-4.0773 15.408-6.3217 19.768" color="#000000" fill="none" stroke="#000" stroke-width="3"/>
<g transform="translate(.8891)" stroke="#969696" stroke-linecap="square" stroke-width="3">
<rect x="432.76" y="325.62" width="13.429" height="51.789"/>
<rect x="526.03" y="325.62" width="13.429" height="51.789"/>
</g>
<path d="m531.29 146.88h-88.589c27.011-20.297 31.71-55.764 44.295-85.385 12.584 29.62 17.283 65.087 44.295 85.385z"/>
<path d="m470.56 153.58h31.842" fill="none" stroke="#000" stroke-width="5"/>
<path transform="translate(-52.129 335.43)" d="m557.89-68.834a18.763 18.763 0 1 1-37.526 0 18.763 18.763 0 1 1 37.526 0z"/>
<path transform="matrix(.8 0 0 .8 72.383 326.52)" d="m533.78-74.908a15.509 15.509 0 1 1-31.018 0 15.509 15.509 0 1 1 31.018 0z" fill="none" stroke="#c8c8c8" stroke-linecap="square" stroke-width="5"/>
<g transform="translate(0,4)" fill="none" stroke="#000" stroke-linecap="square">
<path d="m485.84 308.33c-4.979 0.18945-9.658 1.6204-13.719 3.9688l9.9062 17.125 10.062-0.1875 9.7812-16.906c-4.3799-2.5412-9.4501-4-14.875-4-0.38466 0-0.77511-0.0145-1.1562 0z"/>
<path d="m466 321.69c-1.52 2.8033-2.2585 5.8464-2.2902 8.8485l12.661 0.13211 3.1794-5.6017-6.1179-10.901c-2.8281 1.5826-5.2853 3.8985-7.0551 6.8855-0.12549 0.21179-0.26085 0.42205-0.3772 0.63664z" stroke-width=".64"/>
<path d="m508.37 321.69c1.52 2.8033 2.2585 5.8464 2.2902 8.8485l-12.661 0.13211-3.1794-5.6017 6.1179-10.901c2.8281 1.5826 5.2853 3.8985 7.0551 6.8855 0.12549 0.21179 0.26085 0.42205 0.3772 0.63664z" stroke-width=".64"/>
</g>
<path d="m363.63 568.01c-8.9155-23.576-1.6586-47.171 7.1644-66.867-7.7728-0.02801-21.206 1.3211-28.856 9.7279-9.4625 10.398-21.288 9.8244-28.742 9.9233-1.8017-4.1503 10.363-8.0438 7.6043-14.236-7.3986-0.39257-21.641 2.2406-28.789-6.4724-5.9193-7.215-3.2459-17.237-2.3387-25.075 1.3945-12.048 5.0227-20.204 10.027-23.094 1.3687 4.8492 0.36946 8.4646 0.131 17.041-0.20804 7.4844-0.06566 7.7442 6.0234 11.271 4.6393-6.0422 7.1005-20.417 11.374-30.8 2.5685-6.2408 9.2877-1.2254 20.736-4.1436 11.448-2.9182 14.264-2.4225 20.998-9.2691 6.7344-6.8466 4.4069-19.131-0.72977-23.917-4.113-3.832-10.484-6.3662-14.537-7.752-7.194-2.4594-10.585-4.3761-20.986-5.3329-21.598-1.9869-47.482 9.5473-60.628 23.29-16.195 16.929-20.785 24.352-21.643 49.198-0.71464 20.696 11.757 36.151 19.071 46.102 11.85 16.124 17.818 15.396 34.542 20.671 16.724 5.2752 18.98-4.4972 33.803 5.0695 14.12 9.1134 23.916 18.37 35.776 24.665z" fill="#2b5df2" fill-rule="evenodd" stroke="#000" stroke-width="2"/>
<path transform="matrix(.94351 0 0 .8608 -549.73 166.73)" d="m939.55 292.19a7.0116 7.0116 0 1 1-14.023 0 7.0116 7.0116 0 1 1 14.023 0z"/>
<path d="m363.63 568.01c-8.9155-23.576-1.6586-47.171 7.1644-66.867-7.7728-0.02801-21.206 1.3211-28.856 9.7279-9.4625 10.398-21.288 9.8244-28.742 9.9233-1.8017-4.1503 10.363-8.0438 7.6043-14.236-7.3986-0.39257-21.641 2.2406-28.789-6.4724-5.9193-7.215-3.2459-17.237-2.3387-25.075 1.3945-12.048 5.0227-20.204 10.027-23.094 1.3687 4.8492 0.36946 8.4646 0.131 17.041-0.20804 7.4844-0.06566 7.7442 6.0234 11.271 4.6393-6.0422 7.1005-20.417 11.374-30.8 2.5685-6.2408 9.2877-1.2254 20.736-4.1436 11.448-2.9182 14.264-2.4225 20.998-9.2691 6.7344-6.8466 4.4069-19.131-0.72977-23.917-4.113-3.832-10.484-6.3662-14.537-7.752-7.194-2.4594-10.585-4.3761-20.986-5.3329-21.598-1.9869-47.482 9.5473-60.628 23.29-16.195 16.929-20.785 24.352-21.643 49.198-0.71464 20.696 11.757 36.151 19.071 46.102 11.85 16.124 17.818 15.396 34.542 20.671 16.724 5.2752 18.98-4.4972 33.803 5.0695 14.12 9.1134 23.916 18.37 35.776 24.665z" fill="none" stroke="#000" stroke-width="2"/>
<path d="m291.46 433.88c-0.15238-0.66568-0.48678-1.3912-0.28992-2.0298 0.83524-2.7096-1.571-4.9698-4.9295-6.0893-2.4274-0.80916-4.3495 2.019-4.3495 4.3495 0 4.3079 2.7465 6.7546 6.6692 7.5391 3.4242 0.68484 3.5347-0.99545 2.8996-3.7696z" color="#000000" fill="none" stroke="#000" stroke-width="2"/>
<path d="m284.5 444.32c-0.31896-1.2758-4.6395-0.23542-4.6395 2.8997 0 2.5-0.98253 5.5094 2.0298 5.5094 3.5435 0 5.2194-1.5198 5.2194-4.9294" color="#000000" fill="none" stroke="#000" stroke-width="2"/>
<path d="m268.84 449.25c0-1.172-6.0893-2.9219-6.0893 1.1599 0 1.8875-0.39091 3.9458 0 5.5094 0.81988 3.2794 5.8868-2.7845 6.0893-3.1896 0.5187-1.0374 0-2.3197 0-3.4796z" color="#000000" fill="none" stroke="#000" stroke-width="2"/>
<path d="m275.8 462.88c0.08463-0.16917-4.7413-1.8967-5.5093 3.4796-0.4928 3.4494 0.52197 5.5238 4.0595 4.6394 3.1272-0.78179 3.4796-4.0206 3.4796-6.9592 0-1.7192-0.47155-1.4196-2.0298-1.1599z" color="#000000" fill="none" stroke="#000" stroke-width="2"/>
<path d="m257.26 472.25c0-0.70052 5.0346 0.84647 6.069 2.2256 1.6986 2.2647-2.1418 4.0819-3.4796 4.3495-3.0315 0.60629-3.4796-2.8593-3.4796-1.4498" color="#000000" fill="none" stroke="#000" stroke-width="2"/>
<path d="m274.21 484.48c-4.5552 0.91105-9.0315-1.2876-6.9592 4.9294 0.98064 2.9419 3.9478 3.7696 6.6692 3.7696 2.6091 0 2.8996-3.7072 2.8996-5.7993 0-1.5685-1.2934-2.1475-2.6097-2.8997z" color="#000000" fill="none" stroke="#000" stroke-width="2"/>
<path d="m260.14 496.22c0-2.3278 4.6314 0.57993 6.9592 0.57993 1.7121 0-2.3878 5.8674-2.6097 6.0893" color="#000000" fill="none" stroke="#000" stroke-width="2"/>
<path d="m279.86 508.11c2.4337 0-5.5283-0.851-7.2491 0.8699-2.4301 2.4301-0.49464 5.0215 1.4498 5.7993 2.8456 1.1382 4.1087-0.17868 5.2194-2.0298 1.168-1.9467 2.5617-2.6576 0.57992-4.6394z" color="#000000" fill="none" stroke="#000" stroke-width="2"/>
<path d="m296.39 527.25c1.689-3.515-2.6055-5.7993-4.9294-5.7993-1.9874 0-3.7696-2.6597-3.7696 1.1599 0 2.6888-0.07973 3.9798 1.7398 5.7993 1.35 1.3499 4.5168 0.26125 6.0893-0.28997 0.38698-0.13565 0.69333-0.50247 0.86984-0.8699z" color="#000000" fill="none" stroke="#000" stroke-width="2"/>
<path d="m319.01 447.22c2.2522-4.1292-11.995-34.555-17.688-28.997-5.8506 5.7122 5.7395 33.636 14.788 32.766" fill="none" stroke="#000" stroke-width="2"/>
<path d="m361.53 420.99c-3.7949-0.23129-9.3114-2.206-10.917 1.0054-1.3679 2.7358-4.9587 3.5382-6.3792 6.3792-1.1519 2.3037-0.86991 5.1968-0.86991 7.8291 0 2.7178 6.88 2.3197 8.699 2.3197 2.6834 0 6.3049-1.0111 7.5392-3.4796 1.0072-2.0146 0.22156 0.22159-0.29005-0.28998" color="#000000" fill="none" stroke="#000" stroke-width="2"/>
<path d="m252.36 508.33c3.11 10.981 9.9616 19.895 8.9382 32.254 21.143 12.068 46.115 5.9506 62.751 1.5345-15.49-1.356-28.88-1.9336-41.347-7.6428-12.466-5.7092-22.917-14.093-30.343-26.146z" fill-rule="evenodd" stroke="#000" stroke-width="2"/>
<path d="m264.78 415.9-15.078-0.8699-2.8996 3.4796c-15.982 25.421-12.504 53.508-11.953 63.054 0.82596 4.2803 4.9941 5.0878 4.9941 5.0878l2.6097-1.7398 3.4796-39.435 20.588-28.707" fill-rule="evenodd"/>
<path d="m241.81 481.46c1.7461-3.6933 2.1014-6.9126 4.316-10.34 3.1133-4.1795 2.9502-10.168 3.6723-15.281 0.18202-3.5991 2.8629-9.3799 5.0872-12.036 0.72118-3.4108 3.1827-4.6737 4.7581-7.3296 1.0215-1.9762 1.7295-3.6645 3.2398-5.2844 1.6363-1.2145 1.1608-3.8771 2.141-5.6222-2.5012-5.8511 1.3394-3.7888 1.5826-4.4868 1.1419 1.2864 0.22956 0.82991 3.7382 1.7834 0.60967 0.16568 2.4443-1.7193 3.6156-0.554 1.5229 1.5151-2.7256 8.4908-4.2268 10.314-1.531 1.5779-2.8698 3.201-3.8719 5.1714-1.5564 2.6993-2.8768 5.5223-4.4033 8.2388-2.1224 2.652-3.9931 5.1054-4.1554 8.6937-0.70476 5.1178-2.3085 10.071-5.3315 14.3-1.1723 1.8001-1.6377 4.2824-2.8554 6.0649-1.9745 2.8905-3.4644 16.428-1.7631 18.93l-5.5434-12.562z"/>
</g>
<g>
<path d="m1.5 1.5v458.87c0 166.31 134.31 301.13 300 301.13 165.69 0 300-134.82 300-301.13v-458.87h-600z" fill="url(#a)"/>
<path d="m1.5 1.5v458.87c0 166.31 134.31 301.13 300 301.13 165.69 0 300-134.82 300-301.13v-458.87h-600z" fill="none" stroke="#000" stroke-width="3"/>
</g>
</svg>
