<?xml version="1.0" encoding="UTF-8" standalone="no"?>
<!-- Created with Inkscape (http://www.inkscape.org/) -->

<svg
   xmlns:dc="http://purl.org/dc/elements/1.1/"
   xmlns:cc="http://creativecommons.org/ns#"
   xmlns:rdf="http://www.w3.org/1999/02/22-rdf-syntax-ns#"
   xmlns:svg="http://www.w3.org/2000/svg"
   xmlns="http://www.w3.org/2000/svg"
   xmlns:sodipodi="http://sodipodi.sourceforge.net/DTD/sodipodi-0.dtd"
   xmlns:inkscape="http://www.inkscape.org/namespaces/inkscape"
   version="1.0"
   width="208.86046"
   height="244.65999"
   id="svg2780"
   inkscape:version="0.92.4 (5da689c313, 2019-01-14)"
   sodipodi:docname="Icogne-blazon.svg">
  <metadata
     id="metadata27">
    <rdf:RDF>
      <cc:Work
         rdf:about="">
        <dc:format>image/svg+xml</dc:format>
        <dc:type
           rdf:resource="http://purl.org/dc/dcmitype/StillImage" />
        <dc:title></dc:title>
      </cc:Work>
    </rdf:RDF>
  </metadata>
  <sodipodi:namedview
     pagecolor="#ffffff"
     bordercolor="#666666"
     borderopacity="1"
     objecttolerance="10"
     gridtolerance="10"
     guidetolerance="10"
     inkscape:pageopacity="0"
     inkscape:pageshadow="2"
     inkscape:window-width="3259"
     inkscape:window-height="1417"
     id="namedview25"
     showgrid="false"
     inkscape:zoom="2"
     inkscape:cx="14.990237"
     inkscape:cy="40.3007"
     inkscape:window-x="-8"
     inkscape:window-y="-8"
     inkscape:window-maximized="1"
     inkscape:current-layer="svg2780"
     inkscape:measure-start="104.255,149.787"
     inkscape:measure-end="104.255,126.383"
     showguides="true"
     inkscape:object-paths="true"
     inkscape:snap-intersection-paths="true"
     inkscape:snap-object-midpoints="true" />
  <defs
     id="defs2782" />
  <path
     id="path4212-7"
     style="fill:#ffffff;fill-opacity:1;fill-rule:evenodd;stroke:#000000;stroke-width:1.99999988;stroke-linecap:butt;stroke-miterlimit:4;stroke-dashoffset:0;stroke-opacity:1"
     d="M 204.09935,159.00304 207.86045,1 C 138.90698,1 69.953503,1 1.000029,1 l 3.7611,158.00304 c 1.64138,68.95393 2.88226,67.30563 99.669111,84.64438 96.78685,-17.33875 98.02773,-15.69045 99.66911,-84.64438 z"
     inkscape:connector-curvature="0"
     sodipodi:nodetypes="sccscs" />
  <path
     style="opacity:1;fill:#1b63c6;fill-opacity:1;stroke:#000000;stroke-width:1;stroke-miterlimit:1;stroke-dasharray:none;stroke-dashoffset:4.57999992;stroke-opacity:1"
     d="M 2.4135536,60.381877 H 206.44693 L 207.86045,1 1.0000298,1.0000322 Z"
     id="path32227"
     inkscape:connector-curvature="0"
     sodipodi:nodetypes="ccccc" />
  <path
     style="opacity:1;fill:#feeb00;fill-opacity:1;stroke:#000000;stroke-width:0.99999988;stroke-miterlimit:8;stroke-dasharray:none;stroke-dashoffset:4.57999992;stroke-opacity:1"
     d="M 79.442661,25.490412 62.077548,25.494345 56.715142,9.0010889 51.352735,25.494343 33.98761,25.490409 48.03859,35.679906 42.66876,52.170744 56.715142,41.974947 70.761521,52.170744 65.3917,35.679906 Z"
     id="path12002"
     inkscape:connector-curvature="0" />
  <g
     id="g37563"
     transform="matrix(0.89808146,0,0,0.8980463,9.289778,3.0974315)"
     style="stroke-width:1.11350656">
    <path
       sodipodi:nodetypes="cssscc"
       inkscape:connector-curvature="0"
       id="path32323"
       d="m 157.33899,24.847988 c -2.46181,-3.316357 -3.708,-6.950743 -3.17839,-11.201991 0.50984,-4.0926736 2.79984,-9.0042889 5.30874,-8.8110411 2.48749,0.1915973 3.52289,5.1170179 3.72061,9.2113961 0.2583,5.348718 -1.41933,8.727592 -2.82784,12.415296 z"
       style="opacity:1;fill:#ffffff;fill-opacity:1;stroke:#000000;stroke-width:1.11350656;stroke-miterlimit:4;stroke-dasharray:none;stroke-dashoffset:4.57999992;stroke-opacity:1" />
    <path
       sodipodi:nodetypes="csssscc"
       inkscape:connector-curvature="0"
       id="path32325"
       d="m 160.63794,26.185538 c 1.35588,-4.5604 1.88055,-9.58505 5.14142,-13.074138 2.04786,-2.191186 5.80065,-5.5672358 8.18963,-4.3705816 1.84118,0.9222532 -1.23119,4.2368096 -1.32697,6.5200966 -0.20402,4.863337 -2.62823,7.177859 -4.61369,9.392217 -1.0731,1.196813 -2.19039,2.190282 -3.39467,3.012731 z"
       style="opacity:1;fill:#ffffff;fill-opacity:1;stroke:#000000;stroke-width:1.11350656;stroke-miterlimit:4;stroke-dasharray:none;stroke-dashoffset:4.57999992;stroke-opacity:1" />
    <path
       sodipodi:nodetypes="cscc"
       inkscape:connector-curvature="0"
       id="path32327"
       d="m 157.03388,24.426442 c -5.18389,-6.993253 -11.12606,-15.2557937 -14.60734,-13.110504 -2.04076,1.257585 2.89156,13.364534 10.68175,16.922564 1.60181,-0.369904 2.88361,-1.722709 3.92559,-3.81206 z"
       style="opacity:1;fill:#ffffff;fill-opacity:1;stroke:#000000;stroke-width:1.11350656;stroke-miterlimit:4;stroke-dasharray:none;stroke-dashoffset:4.57999992;stroke-opacity:1" />
    <path
       sodipodi:nodetypes="cscc"
       inkscape:connector-curvature="0"
       id="path32329"
       d="m 152.3754,27.874549 c -5.34529,-4.214966 -20.40861,-8.184648 -19.2273,-2.287895 1.28366,6.407695 12.16097,7.779654 18.16149,6.534657 z"
       style="opacity:1;fill:#ffffff;fill-opacity:1;stroke:#000000;stroke-width:1.11350656;stroke-miterlimit:4;stroke-dasharray:none;stroke-dashoffset:4.57999992;stroke-opacity:1" />
    <path
       sodipodi:nodetypes="csssscc"
       inkscape:connector-curvature="0"
       id="path32325-3"
       d="m 151.96288,32.121311 c -4.71348,0.797281 -9.67532,1.341703 -13.3413,4.402373 -2.30227,1.922131 -5.88289,5.48025 -4.82166,7.932374 0.81788,1.889828 4.29907,-0.99238 6.58416,-0.960361 4.86721,0.0682 7.61372,-1.682708 9.93564,-3.54124 1.25496,-1.004497 2.30934,-2.064481 3.19785,-3.220878 z"
       style="opacity:1;fill:#ffffff;fill-opacity:1;stroke:#000000;stroke-width:1.11350656;stroke-miterlimit:4;stroke-dasharray:none;stroke-dashoffset:4.57999992;stroke-opacity:1" />
    <path
       sodipodi:nodetypes="csssscc"
       inkscape:connector-curvature="0"
       id="path32325-34"
       d="m 160.83866,38.020231 c 5.50019,6.565109 5.13903,9.553498 8.36337,13.076362 2.13036,2.327599 7.31087,3.22508 8.47116,2.149194 1.50998,-1.400138 -2.19736,-2.002212 -3.26559,-6.746335 -1.06927,-4.74873 -3.65736,-6.554164 -6.02232,-8.357622 -1.27822,-0.97473 -2.56175,-1.74144 -3.89872,-2.323868 z"
       style="opacity:1;fill:#ffffff;fill-opacity:1;stroke:#000000;stroke-width:1.11350656;stroke-miterlimit:4;stroke-dasharray:none;stroke-dashoffset:4.57999992;stroke-opacity:1" />
    <path
       sodipodi:nodetypes="cssscc"
       inkscape:connector-curvature="0"
       id="path32323-9"
       d="m 164.939,27.948193 c 1.92594,-3.653682 5.50509,-7.315812 9.77679,-6.989276 3.3333,0.254803 8.51966,-2.478859 9.4302,-0.133075 0.90277,2.325757 -3.33086,5.779063 -6.93728,7.727666 -4.71129,2.545563 -8.45596,3.190025 -12.41762,2.818289 z"
       style="opacity:1;fill:#ffffff;fill-opacity:1;stroke:#000000;stroke-width:1.11350656;stroke-miterlimit:4;stroke-dasharray:none;stroke-dashoffset:4.57999992;stroke-opacity:1" />
    <path
       sodipodi:nodetypes="cssscc"
       inkscape:connector-curvature="0"
       id="path32323-9-4"
       d="m 155.01774,37.78802 c -3.90497,1.34543 -8.07073,4.323362 -8.40028,8.594777 -0.25716,3.333079 -3.75074,8.041133 -1.57147,9.299173 2.16066,1.247306 6.21998,-2.40931 8.69643,-5.675858 3.23515,-4.267277 3.76,-8.003008 4.6814,-11.841496 z"
       style="opacity:1;fill:#ffffff;fill-opacity:1;stroke:#000000;stroke-width:1.11350656;stroke-miterlimit:4;stroke-dasharray:none;stroke-dashoffset:4.57999992;stroke-opacity:1" />
    <path
       sodipodi:nodetypes="cscc"
       inkscape:connector-curvature="0"
       id="path32327-0"
       d="m 161.7988,39.204112 c 2.87909,5.548927 5.55618,15.463542 1.70124,16.220642 -3.1262,0.613974 -7.63064,-8.468674 -6.2122,-15.442766 1.03768,-0.896232 2.58381,-1.097458 4.51096,-0.777876 z"
       style="opacity:1;fill:#ffffff;fill-opacity:1;stroke:#000000;stroke-width:1.11350656;stroke-miterlimit:4;stroke-dasharray:none;stroke-dashoffset:4.57999992;stroke-opacity:1" />
    <ellipse
       ry="2.9702995"
       rx="2.970335"
       transform="matrix(0.98480813,-0.17364604,0.17365032,0.98480738,0,0)"
       cy="53.340443"
       cx="150.20271"
       id="path32248-8"
       style="opacity:1;fill:#feeb00;fill-opacity:1;stroke:#000000;stroke-width:1.11350656;stroke-miterlimit:1;stroke-dasharray:none;stroke-dashoffset:4.57999992;stroke-opacity:1" />
    <ellipse
       ry="2.9703317"
       rx="2.9703028"
       transform="matrix(0.34202398,-0.93969122,0.93969402,0.34201631,0,0)"
       cy="153.86925"
       cx="23.917233"
       id="path32248-8-8"
       style="opacity:1;fill:#feeb00;fill-opacity:1;stroke:#000000;stroke-width:1.11350656;stroke-miterlimit:1;stroke-dasharray:none;stroke-dashoffset:4.57999992;stroke-opacity:1" />
    <ellipse
       ry="2.9703205"
       rx="2.970314"
       transform="matrix(-0.6427924,-0.76604042,0.76604846,-0.64278282,0,0)"
       cy="94.766914"
       cx="-126.28429"
       id="path32248-8-1"
       style="opacity:1;fill:#feeb00;fill-opacity:1;stroke:#000000;stroke-width:1.11350656;stroke-miterlimit:1;stroke-dasharray:none;stroke-dashoffset:4.57999992;stroke-opacity:1" />
    <ellipse
       ry="2.9702995"
       rx="2.970335"
       transform="matrix(-0.98480813,0.17364604,-0.17365032,-0.98480738,0,0)"
       cy="-64.862198"
       cx="-150.20271"
       id="path32248-8-81"
       style="opacity:1;fill:#feeb00;fill-opacity:1;stroke:#000000;stroke-width:1.11350656;stroke-miterlimit:1;stroke-dasharray:none;stroke-dashoffset:4.57999992;stroke-opacity:1" />
    <path
       sodipodi:nodetypes="csssscc"
       inkscape:connector-curvature="0"
       id="path32325-3-6"
       d="m 165.06881,31.59685 c 4.74566,0.338719 9.76508,-0.234424 13.87624,2.195716 2.58186,1.526155 6.6889,4.460997 6.03655,7.05205 -0.50276,1.996897 -4.40278,-0.286881 -6.65287,0.11283 -4.79265,0.851369 -7.57623,-1.0156 -10.16722,-2.47582 -1.40039,-0.789212 -2.61176,-1.665503 -3.67495,-2.663664 z"
       style="opacity:1;fill:#ffffff;fill-opacity:1;stroke:#000000;stroke-width:1.11350656;stroke-miterlimit:4;stroke-dasharray:none;stroke-dashoffset:4.57999992;stroke-opacity:1" />
    <ellipse
       ry="2.9703317"
       rx="2.9703028"
       transform="matrix(-0.34202398,0.93969122,-0.93969402,-0.34201631,0,0)"
       cy="-165.3911"
       cx="-23.917233"
       id="path32248-8-7"
       style="opacity:1;fill:#feeb00;fill-opacity:1;stroke:#000000;stroke-width:1.11350656;stroke-miterlimit:1;stroke-dasharray:none;stroke-dashoffset:4.57999992;stroke-opacity:1" />
    <ellipse
       ry="2.9703205"
       rx="2.970314"
       transform="matrix(0.6427924,0.76604042,-0.76604846,0.64278282,0,0)"
       cy="-106.28876"
       cx="126.28429"
       id="path32248-8-4"
       style="opacity:1;fill:#feeb00;fill-opacity:1;stroke:#000000;stroke-width:1.11350656;stroke-miterlimit:1;stroke-dasharray:none;stroke-dashoffset:4.57999992;stroke-opacity:1" />
    <ellipse
       ry="2.9702995"
       rx="2.970335"
       transform="matrix(0.98480813,-0.17364604,0.17365032,0.98480738,0,0)"
       cy="59.101315"
       cx="150.20271"
       id="path32248"
       style="opacity:1;fill:#feeb00;fill-opacity:1;stroke:#000000;stroke-width:1.11350656;stroke-miterlimit:1;stroke-dasharray:none;stroke-dashoffset:4.57999992;stroke-opacity:1" />
  </g>
  <path
     id="path4212-7-2"
     style="fill:none;fill-opacity:1;fill-rule:evenodd;stroke:#000000;stroke-width:1.99999988;stroke-linecap:butt;stroke-miterlimit:4;stroke-dashoffset:0;stroke-opacity:1"
     d="m 204.09935,159.00304 3.7611,-158.00304166 c -68.95347,0 -137.906947,0 -206.860421,0 L 4.761129,159.00304 c 1.64138,68.95393 2.88226,67.30563 99.669111,84.64438 96.78685,-17.33875 98.02773,-15.69045 99.66911,-84.64438 z"
     inkscape:connector-curvature="0"
     sodipodi:nodetypes="sccscs" />
  <path
     id="path8659-9-0"
     style="opacity:1;fill:#7e540e;fill-opacity:1;stroke:#000000;stroke-width:1.00157475;stroke-miterlimit:4;stroke-dasharray:none;stroke-dashoffset:4.57999992;stroke-opacity:1"
     d="m 41.02542,158.55019 v 45.08613 h 6.8099 v -45.08613 h -3.40495 z"
     inkscape:connector-curvature="0"
     sodipodi:nodetypes="cccccc" />
  <path
     id="path8657-9-7"
     style="opacity:1;fill:#009645;fill-opacity:1;stroke:#000000;stroke-width:1.00199997;stroke-miterlimit:6;stroke-dasharray:none;stroke-dashoffset:4.57999992;stroke-opacity:1"
     d="m 57.12687,169.58942 c -1.81008,-2.46067 -3.12139,-4.80477 -3.7385,-7.26543 5.28916,4.50945 9.22927,8.07843 16.7636,8.08799 -7.13225,-5.41254 -14.44696,-15.91944 -17.86006,-22.72814 3.11539,2.15721 4.23273,4.14894 8.26733,4.86211 -0.76704,-1.14726 -1.45288,-2.25641 -1.95463,-3.80151 2.69698,1.50265 4.40425,2.3008 7.36919,2.19619 -9.16594,-5.90785 -11.07933,-13.60361 -14.98294,-19.54349 2.82271,1.86914 5.37444,3.23635 7.72915,4.12835 -0.78594,-1.18981 -1.27983,-2.14532 -1.80785,-3.38736 1.56236,1.11132 3.79337,1.87277 6.25421,1.84953 -5.90922,-5.09147 -9.5842,-10.25861 -13.25972,-16.1382 2.72849,1.82551 5.55745,2.20702 8.75488,2.29128 -4.25909,-3.8609 -7.20835,-8.7758 -9.73901,-13.16837 2.00607,0.64093 3.89123,1.30782 6.07321,1.11149 -3.57441,-3.83595 -5.62271,-8.05333 -7.06204,-12.422892 1.19734,0.548303 2.50343,0.824791 3.83349,1.041391 -4.09946,-4.343857 -4.49853,-9.661207 -6.30616,-14.607998 -0.2381,-0.644731 -0.55848,-1.23071 -1.03065,-1.708305 -0.47217,0.477595 -0.79255,1.063574 -1.03065,1.708305 -1.80762,4.946791 -2.2067,10.264141 -6.306161,14.607998 1.33006,-0.2166 2.63616,-0.493088 3.833491,-1.041391 -1.439331,4.369562 -3.487631,8.586942 -7.062041,12.422892 2.18198,0.19633 4.06714,-0.47056 6.07321,-1.11149 -2.53066,4.39257 -5.47992,9.30747 -9.73901,13.16837 3.19743,-0.0843 6.02639,-0.46577 8.75488,-2.29128 -3.67552,5.87959 -7.3505,11.04673 -13.25972,16.1382 2.46084,0.0233 4.69185,-0.73821 6.25421,-1.84953 -0.52801,1.24204 -1.02191,2.19755 -1.80785,3.38736 2.35471,-0.892 4.90645,-2.25921 7.72915,-4.12835 -3.9036,5.93988 -5.817,13.63564 -14.98294,19.54349 2.96494,0.10461 4.67221,-0.69354 7.36919,-2.19619 -0.50175,1.5451 -1.18759,2.65425 -1.95463,3.80151 4.0346,-0.71317 5.15194,-2.7049 8.26733,-4.86211 -4.537712,7.88264 -9.313604,16.87366 -17.86006,22.72814 7.53433,-0.01 11.47444,-3.57854 16.7636,-8.08799 -0.61711,2.46066 -1.92842,4.80476 -3.73849,7.26543 4.4861,-1.42757 9.712661,-4.07416 12.696491,-7.91276 2.98383,3.8386 8.21039,6.48519 12.6965,7.91276 z"
     inkscape:connector-curvature="0"
     sodipodi:nodetypes="ccccccccccccccccccccccccccccccccccccccc" />
  <path
     id="path8659-9-3"
     style="opacity:1;fill:#7e540e;fill-opacity:1;stroke:#000000;stroke-width:1.00157475;stroke-miterlimit:4;stroke-dasharray:none;stroke-dashoffset:4.57999992;stroke-opacity:1"
     d="m 161.02542,158.55019 v 45.08613 h 6.8099 v -45.08613 h -3.40495 z"
     inkscape:connector-curvature="0"
     sodipodi:nodetypes="cccccc" />
  <path
     id="path8657-9-8"
     style="opacity:1;fill:#009645;fill-opacity:1;stroke:#000000;stroke-width:1.00199997;stroke-miterlimit:6;stroke-dasharray:none;stroke-dashoffset:4.57999992;stroke-opacity:1"
     d="m 177.12687,169.58942 c -1.81008,-2.46067 -3.12139,-4.80477 -3.7385,-7.26543 5.28916,4.50945 9.22927,8.07843 16.7636,8.08799 -7.13225,-5.41254 -14.44696,-15.91944 -17.86006,-22.72814 3.11539,2.15721 4.23273,4.14894 8.26733,4.86211 -0.76704,-1.14726 -1.45288,-2.25641 -1.95463,-3.80151 2.69698,1.50265 4.40425,2.3008 7.36919,2.19619 -9.16594,-5.90785 -11.07933,-13.60361 -14.98294,-19.54349 2.82271,1.86914 5.37444,3.23635 7.72915,4.12835 -0.78594,-1.18981 -1.27983,-2.14532 -1.80785,-3.38736 1.56236,1.11132 3.79337,1.87277 6.25421,1.84953 -5.90922,-5.09147 -9.5842,-10.25861 -13.25972,-16.1382 2.72849,1.82551 5.55745,2.20702 8.75488,2.29128 -4.25909,-3.8609 -7.20835,-8.7758 -9.73901,-13.16837 2.00607,0.64093 3.89123,1.30782 6.07321,1.11149 -3.57441,-3.83595 -5.62271,-8.05333 -7.06204,-12.422892 1.19734,0.548303 2.50343,0.824791 3.83349,1.041391 -4.09946,-4.343857 -4.49853,-9.661207 -6.30616,-14.607998 -0.2381,-0.644731 -0.55848,-1.23071 -1.03065,-1.708305 -0.47217,0.477595 -0.79255,1.063574 -1.03065,1.708305 -1.80762,4.946791 -2.2067,10.264141 -6.30616,14.607998 1.33006,-0.2166 2.63616,-0.493088 3.83349,-1.041391 -1.43933,4.369562 -3.48763,8.586942 -7.06204,12.422892 2.18198,0.19633 4.06714,-0.47056 6.07321,-1.11149 -2.53066,4.39257 -5.47992,9.30747 -9.73901,13.16837 3.19743,-0.0843 6.02639,-0.46577 8.75488,-2.29128 -3.67552,5.87959 -7.3505,11.04673 -13.25972,16.1382 2.46084,0.0233 4.69185,-0.73821 6.25421,-1.84953 -0.52801,1.24204 -1.02191,2.19755 -1.80785,3.38736 2.35471,-0.892 4.90645,-2.25921 7.72915,-4.12835 -3.9036,5.93988 -5.817,13.63564 -14.98294,19.54349 2.96494,0.10461 4.67221,-0.69354 7.36919,-2.19619 -0.50175,1.5451 -1.18759,2.65425 -1.95463,3.80151 4.0346,-0.71317 5.15194,-2.7049 8.26733,-4.86211 -4.53771,7.88264 -9.3136,16.87366 -17.86006,22.72814 7.53433,-0.01 11.47444,-3.57854 16.7636,-8.08799 -0.61711,2.46066 -1.92842,4.80476 -3.73849,7.26543 4.4861,-1.42757 9.71266,-4.07416 12.69649,-7.91276 2.98383,3.8386 8.21039,6.48519 12.6965,7.91276 z"
     inkscape:connector-curvature="0"
     sodipodi:nodetypes="ccccccccccccccccccccccccccccccccccccccc" />
  <path
     id="path8659-9"
     style="opacity:1;fill:#7e540e;fill-opacity:1;stroke:#000000;stroke-width:1.00157475;stroke-miterlimit:4;stroke-dasharray:none;stroke-dashoffset:4.57999992;stroke-opacity:1"
     d="m 101.02542,151.69876 0,45.08613 h 6.8099 l 0,-45.08613 h -3.40495 z"
     inkscape:connector-curvature="0"
     sodipodi:nodetypes="cccccc" />
  <path
     id="path8657-9"
     style="opacity:1;fill:#009645;fill-opacity:1;stroke:#000000;stroke-width:1.00199997;stroke-miterlimit:6;stroke-dasharray:none;stroke-dashoffset:4.57999992;stroke-opacity:1"
     d="m 117.12687,162.73799 c -1.81008,-2.46067 -3.12139,-4.80477 -3.7385,-7.26543 5.28916,4.50945 9.22927,8.07843 16.7636,8.08799 -7.13225,-5.41254 -14.44696,-15.91944 -17.86006,-22.72814 3.11539,2.15721 4.23273,4.14894 8.26733,4.86211 -0.76704,-1.14726 -1.45288,-2.25641 -1.95463,-3.80151 2.69698,1.50265 4.40425,2.3008 7.36919,2.19619 -9.16594,-5.90785 -11.07933,-13.60361 -14.98294,-19.54349 2.82271,1.86914 5.37444,3.23635 7.72915,4.12835 -0.78594,-1.18981 -1.27983,-2.14532 -1.80785,-3.38736 1.56236,1.11132 3.79337,1.87277 6.25421,1.84953 -5.90922,-5.09147 -9.5842,-10.25861 -13.25972,-16.1382 2.72849,1.82551 5.55745,2.20702 8.75488,2.29128 -4.25909,-3.8609 -7.20835,-8.7758 -9.73901,-13.16837 2.00607,0.64093 3.89123,1.30782 6.07321,1.11149 -3.57441,-3.835956 -5.62271,-8.053329 -7.06204,-12.422889 1.19734,0.548303 2.50343,0.824791 3.83349,1.041391 -4.09946,-4.343857 -4.49853,-9.661207 -6.30616,-14.607998 -0.2381,-0.644731 -0.55848,-1.23071 -1.03065,-1.708305 -0.47217,0.477595 -0.79255,1.063574 -1.03065,1.708305 -1.80762,4.946791 -2.2067,10.264141 -6.306161,14.607998 1.33006,-0.2166 2.63616,-0.493088 3.833491,-1.041391 -1.439331,4.36956 -3.487631,8.586933 -7.062041,12.422889 2.18198,0.19633 4.06714,-0.47056 6.07321,-1.11149 -2.53066,4.39257 -5.47992,9.30747 -9.73901,13.16837 3.19743,-0.0843 6.02639,-0.46577 8.75488,-2.29128 -3.67552,5.87959 -7.3505,11.04673 -13.25972,16.1382 2.46084,0.0233 4.69185,-0.73821 6.25421,-1.84953 -0.52801,1.24204 -1.02191,2.19755 -1.80785,3.38736 2.35471,-0.892 4.90645,-2.25921 7.72915,-4.12835 -3.9036,5.93988 -5.817,13.63564 -14.98294,19.54349 2.96494,0.10461 4.67221,-0.69354 7.36919,-2.19619 -0.50175,1.5451 -1.18759,2.65425 -1.95463,3.80151 4.0346,-0.71317 5.15194,-2.7049 8.26733,-4.86211 -4.537712,7.88264 -9.313604,16.87366 -17.86006,22.72814 7.53433,-0.01 11.47444,-3.57854 16.7636,-8.08799 -0.61711,2.46066 -1.92842,4.80476 -3.73849,7.26543 4.4861,-1.42757 9.712661,-4.07416 12.696491,-7.91276 2.98383,3.8386 8.21039,6.48519 12.6965,7.91276 z"
     inkscape:connector-curvature="0"
     sodipodi:nodetypes="ccccccccccccccccccccccccccccccccccccccc" />
  <path
     id="path32412-1-5-1"
     style="opacity:1;fill:#009645;fill-opacity:1;stroke:#000000;stroke-width:1;stroke-miterlimit:4;stroke-dasharray:none;stroke-dashoffset:4.57999992;stroke-opacity:1"
     d="m 133.64318,201.96841 c 4.83341,-8.34697 16.81093,-14.27341 30.9655,-14.27341 11.7888,0 27.88223,6.55759 32.80128,23.72764 -4.51054,10.40169 -16.43394,16.18508 -30.34732,19.70264 -22.38033,5.65817 -47.65258,10.09518 -62.6324,12.52214 -14.97982,-2.42696 -40.252066,-6.86397 -62.632396,-12.52214 -13.91338,-3.51756 -25.836782,-9.30095 -30.347322,-19.70264 4.91905,-17.17005 21.012482,-23.72764 32.801282,-23.72764 14.15457,0 26.13209,5.92644 30.9655,14.27341 2.66908,-12.51278 16.732786,-21.12481 29.212936,-21.12481 12.48015,0 26.54386,8.61203 29.21294,21.12481 z"
     inkscape:connector-curvature="0"
     sodipodi:nodetypes="cscscscsccc" />
</svg>
