<?xml version="1.0" encoding="UTF-8"?>
<svg version="1.0" viewBox="0 0 208.86 244.66" xmlns="http://www.w3.org/2000/svg" xmlns:cc="http://creativecommons.org/ns#" xmlns:dc="http://purl.org/dc/elements/1.1/" xmlns:rdf="http://www.w3.org/1999/02/22-rdf-syntax-ns#">
<metadata>
<rdf:RDF>
<cc:Work rdf:about="">
<dc:format>image/svg+xml</dc:format>
<dc:type rdf:resource="http://purl.org/dc/dcmitype/StillImage"/>
<dc:title/>
</cc:Work>
</rdf:RDF>
</metadata>
<path d="m204.1 159 3.7611-158h-206.86l3.7611 158c1.6414 68.954 2.8823 67.306 99.669 84.644 96.787-17.339 98.028-15.69 99.669-84.644z" fill="#fff" fill-rule="evenodd" stroke="#000" stroke-width="2"/>
<g transform="translate(0 -.75)" stroke="#000">
<path d="m101.54 26.941h-4.6179c0.12498 0.33395 0.19585 0.69345 0.19585 1.0707 0 1.6975-1.3829 3.0736-3.0888 3.0736-1.7059 0-3.0888-1.3761-3.0888-3.0736 0-0.37763 0.07064-0.73653 0.19586-1.0707-0.33561 0.12436-0.69688 0.19488-1.076 0.19488-1.7059 0-3.0888-1.3761-3.0888-3.0736 0-1.6975 1.3829-3.0736 3.0888-3.0736 0.3795 0 0.74018 0.07031 1.076 0.19488-0.12522-0.3342-0.19586-0.6931-0.19586-1.0707 0-1.6975 1.3829-3.0736 3.0888-3.0736 1.7059-5e-6 3.0888 1.3761 3.0888 3.0736 0 0.37728-0.07087 0.73677-0.19585 1.0707h4.6179v-3.6959c-0.3356 0.12436-0.69688 0.19489-1.076 0.19489-1.7059 0-3.0888-1.3761-3.0888-3.0736-5e-6 -1.6975 1.3829-3.0736 3.0888-3.0736 0.37949 0 0.74018 0.07029 1.076 0.19489-0.12519-0.3342-0.19585-0.6931-0.19585-1.0707 0-1.6975 1.3829-3.0736 3.0888-3.0736s3.0888 1.3761 3.0888 3.0736c0 0.37728-0.0709 0.73678-0.19586 1.0707 0.33585-0.1246 0.69654-0.19489 1.076-0.19489 1.7059 0 3.0888 1.3761 3.0888 3.0736 0 1.6975-1.3829 3.0736-3.0888 3.0736-0.37914 0-0.74042-0.07053-1.076-0.19489v3.6959h4.618c-0.12498-0.33395-0.19586-0.69345-0.19586-1.0707 0-1.6975 1.3829-3.0736 3.0888-3.0736 1.7059-5e-6 3.0888 1.3761 3.0888 3.0736 0 0.37763-0.0706 0.73653-0.19585 1.0707 0.33585-0.12457 0.69653-0.19488 1.076-0.19488 1.7059 0 3.0888 1.3761 3.0888 3.0736 1e-5 1.6975-1.3829 3.0736-3.0888 3.0736-0.37915 0-0.74042-0.07052-1.076-0.19488 0.12522 0.3342 0.19585 0.6931 0.19585 1.0707 0 1.6975-1.3829 3.0736-3.0888 3.0736s-3.0888-1.3761-3.0888-3.0736c0-0.37728 0.0709-0.73678 0.19586-1.0707h-4.618v36.344l-5.7859-0.3125z" stroke-dashoffset="4.58" stroke-miterlimit="8"/>
<path d="m110.88 56.035c2.8094 0.0077 5.2533 2.2962 5.3125 6.5781 0.0485 3.5079-3.7719 6.4074-7.6875 8.6094-1.6408 0.9227-3.0058 2.3038-4.0698 3.8438-1.064-1.54-2.429-2.921-4.0698-3.8438-3.9156-2.202-7.736-5.1014-7.6875-8.6094 0.0592-4.282 2.5031-6.5705 5.3125-6.5781 3.1741-0.0086 5.1249 2.089 6.4448 4.375 1.3198-2.286 3.2706-4.3836 6.4448-4.375z" fill="#cc2918" stroke-dashoffset="4.58"/>
<g transform="rotate(-30 233.9 359.89)">
<g transform="matrix(0 .27015 -.27015 0 299.36 -21.732)" stroke-width="3.7016">
<path d="m154.75 222.47c-11.74-2.3e-4 -21.257-9.5179-21.256-21.258 5e-5 -2.4178 0.40377-4.7413 1.1555-6.8902-0.31481 0.0312-0.63958 0.0385-0.96606 0.0385-11.741 8.4e-4 -21.259-9.5171-21.258-21.258 2.3e-4 -11.74 9.5179-21.257 21.258-21.256 5.9182 1.2e-4 11.271 2.4188 15.125 6.3217 3.7905 3.8387 6.1305 9.1132 6.1306 14.934h-4.0701c-1.2e-4 -7.6661-9.5197-13.881-17.186-13.881-7.6668-8.4e-4 -13.883 6.214-13.883 13.881-8.4e-4 7.6676 6.2152 13.884 13.883 13.883 2.9672-9e-5 5.717-0.93117 7.9731-2.5171l4.2645 6.0322c-3.0853 2.5459-5.0519 6.3991-5.052 10.712-8.4e-4 7.6668 6.214 13.883 13.881 13.883m0 7.375c11.74-2.3e-4 21.257-9.5179 21.256-21.258-5e-5 -2.4178-0.40377-4.7413-1.1555-6.8902 0.31481 0.0312 0.63958 0.0385 0.96606 0.0385 11.741 8.4e-4 21.259-9.5171 21.258-21.258-2.3e-4 -11.74-9.5179-21.257-21.258-21.256-5.9182 1.2e-4 -11.271 2.4188-15.125 6.3217-3.7905 3.8387-6.1305 9.1132-6.1306 14.934h4.0701c1.2e-4 -7.6661 9.5197-13.881 17.186-13.881 7.6668-8.4e-4 13.883 6.214 13.883 13.881 8.4e-4 7.6676-6.2152 13.884-13.883 13.883-2.9672-9e-5 -5.717-0.93117-7.9731-2.5171l-4.2645 6.0322c3.0853 2.5459 5.0519 6.3991 5.052 10.712 8.4e-4 7.6668-6.214 13.883-13.881 13.883" stroke="#000" stroke-dashoffset="4.58" stroke-width="3.7016"/>
</g>
<path d="m255.1 18.309h61.642v3.1514h-4.4688v3.2798h2.6875v2.08h-2.6875v3.2798h2.6875v2.08h-15.125v-2.08h2.6875v-3.2798h-2.6875v-2.08h2.6875v-3.2798h-47.424z" stroke-dashoffset="4.58"/>
<circle cx="265.12" cy="23.074" r="1.7236" stroke-dashoffset="4.58"/>
<circle cx="265.12" cy="17.074" r="1.7236" stroke-dashoffset="4.58"/>
</g>
<g transform="matrix(-.86603 -.5 -.5 .86603 357.47 165.17)">
<g transform="matrix(0 .27015 -.27015 0 299.36 -21.732)" stroke-width="3.7016">
<path d="m154.75 222.47c-11.74-2.3e-4 -21.257-9.5179-21.256-21.258 5e-5 -2.4178 0.40377-4.7413 1.1555-6.8902-0.31481 0.0312-0.63958 0.0385-0.96606 0.0385-11.741 8.4e-4 -21.259-9.5171-21.258-21.258 2.3e-4 -11.74 9.5179-21.257 21.258-21.256 5.9182 1.2e-4 11.271 2.4188 15.125 6.3217 3.7905 3.8387 6.1305 9.1132 6.1306 14.934h-4.0701c-1.2e-4 -7.6661-9.5197-13.881-17.186-13.881-7.6668-8.4e-4 -13.883 6.214-13.883 13.881-8.4e-4 7.6676 6.2152 13.884 13.883 13.883 2.9672-9e-5 5.717-0.93117 7.9731-2.5171l4.2645 6.0322c-3.0853 2.5459-5.0519 6.3991-5.052 10.712-8.4e-4 7.6668 6.214 13.883 13.881 13.883m0 7.375c11.74-2.3e-4 21.257-9.5179 21.256-21.258-5e-5 -2.4178-0.40377-4.7413-1.1555-6.8902 0.31481 0.0312 0.63958 0.0385 0.96606 0.0385 11.741 8.4e-4 21.259-9.5171 21.258-21.258-2.3e-4 -11.74-9.5179-21.257-21.258-21.256-5.9182 1.2e-4 -11.271 2.4188-15.125 6.3217-3.7905 3.8387-6.1305 9.1132-6.1306 14.934h4.0701c1.2e-4 -7.6661 9.5197-13.881 17.186-13.881 7.6668-8.4e-4 13.883 6.214 13.883 13.881 8.4e-4 7.6676-6.2152 13.884-13.883 13.883-2.9672-9e-5 -5.717-0.93117-7.9731-2.5171l-4.2645 6.0322c3.0853 2.5459 5.0519 6.3991 5.052 10.712 8.4e-4 7.6668-6.214 13.883-13.881 13.883" stroke="#000" stroke-dashoffset="4.58" stroke-width="3.7016"/>
</g>
<path d="m255.1 18.309h61.642v3.1514h-4.4688v3.2798h2.6875v2.08h-2.6875v3.2798h2.6875v2.08h-15.125v-2.08h2.6875v-3.2798h-2.6875v-2.08h2.6875v-3.2798h-47.424z" stroke-dashoffset="4.58"/>
<circle cx="265.12" cy="23.074" r="1.7236" stroke-dashoffset="4.58"/>
<circle cx="265.12" cy="17.074" r="1.7236" stroke-dashoffset="4.58"/>
</g>
</g>
<g stroke="#000" stroke-dashoffset="4.58">
<path d="m56.188 215.28 11.625-109h-8.2879l-8.8336-8.8336v-21.065h15.354v12.728h15.354v-12.728h15.354v12.728h15.306v-12.728h15.354v12.728h15.354v-12.728h15.354v21.065l-8.8336 8.8336h-8.2879l11.625 109z" fill="#cc2918"/>
<rect x="110.84" y="105.91" width="7.3362" height="16.263"/>
<path d="m142.36 119.08h-15.991v12.79h17.355" fill="none"/>
<path d="m143.73 131.87-9.5532 0.0625v12.79l10.917-0.0625" fill="none"/>
<path d="m145.09 144.66h-15.991v12.79h17.355" fill="none"/>
<path d="m146.46 157.45-9.5532 0.0625v12.79l10.917-0.0625" fill="none"/>
<path d="m147.82 170.24h-15.991v12.79h17.355" fill="none"/>
<path d="m149.18 183.03-9.5532 0.0625v12.79l10.917-0.0625" fill="none"/>
<path d="m150.55 195.82h-15.991v12.79h17.355" fill="none"/>
<path d="m141 106.28-9.5532 0.0625v12.79l10.917-0.0625" fill="none"/>
<rect transform="scale(-1,1)" x="-97.974" y="105.91" width="7.3362" height="16.263"/>
<path d="m66.449 119.08h15.991v12.79h-17.355" fill="none"/>
<path d="m65.084 131.87 9.5532 0.0625v12.79l-10.917-0.0625" fill="none"/>
<path d="m63.72 144.66h15.991v12.79h-17.355" fill="none"/>
<path d="m62.356 157.45 9.5532 0.0625v12.79l-10.917-0.0625" fill="none"/>
<path d="m60.992 170.24h15.991v12.79h-17.355" fill="none"/>
<path d="m59.628 183.03 9.5532 0.0625v12.79l-10.917-0.0625" fill="none"/>
<path d="m58.264 195.82h15.991v12.79h-17.355" fill="none"/>
<path d="m67.813 106.28 9.5532 0.0625v12.79l-10.917-0.0625" fill="none"/>
<path d="m113.47 198.57h10v-11.527h-10" fill="none"/>
<path d="m113.47 187.04h6.5v-11.527h-6.5" fill="none"/>
<path d="m113.47 175.52c0-2.5026-0.37366-3.9914-1.3174-5.6094l8.0406-5.8418c2.1998 3.3835 3.3638 7.1725 3.2768 11.451z" fill="none"/>
<path d="m107.49 166.11c1.9707 0.6755 3.5881 2.0342 4.6647 3.7957l5.1477-3.74c-1.7289-2.6531-4.3681-5.1144-7.7164-6.5067z" fill="none"/>
<path d="m113.62 174.64v25.699h-18.388v-25.699c0-4.8002 3.8109-9.038 9.1942-9.038 5.3834 0 9.1942 4.2378 9.1942 9.038z"/>
<path d="m95.392 198.57h-10v-11.527h10" fill="none"/>
<path d="m95.392 187.04h-6.5v-11.527h6.5" fill="none"/>
<path d="m95.392 175.52c0-2.5026 0.37366-3.9914 1.3174-5.6094l-8.0406-5.8418c-2.1998 3.3835-3.3638 7.1725-3.2768 11.451z" fill="none"/>
<path d="m101.37 166.11c-1.9707 0.6755-3.5881 2.0342-4.6647 3.7957l-5.1477-3.74c1.7289-2.6531 4.3681-5.1144 7.7164-6.5067z" fill="none"/>
<path d="m101.37 166.11-3.3043-10.17c2.0222-0.85584 4.1811-1.3352 6.3602-1.3384 2.1791 3e-3 4.3379 0.48256 6.3602 1.3384l-3.3043 10.17c-0.94246-0.3174-1.9465-0.51491-3.0559-0.50791-1.1094-7e-3 -2.1134 0.19051-3.0559 0.50791z" fill="none"/>
</g>
<path d="m45.968 232.23c-13.127-10.672-10.733-22.968 0.0434-30.573s27.789-0.53365 32.623 7.8133c2.2271-10.833 14.816-16.879 25.797-16.879s23.569 6.0455 25.797 16.879c4.8334-8.347 21.846-15.418 32.623-7.8133s13.171 19.9 0.0434 30.573c-23.604 6.1306-33.999 6.8182-58.463 11.416-24.464-4.5976-34.858-5.2852-58.463-11.416z" fill="#009645" stroke="#000" stroke-dashoffset="4.58"/>
<path d="m204.1 159 3.7611-158h-206.86l3.7611 158c1.6414 68.954 2.8823 67.306 99.669 84.644 96.787-17.339 98.028-15.69 99.669-84.644z" fill="none" stroke="#000" stroke-width="2"/>
</svg>
