<?xml version="1.0" encoding="UTF-8"?>
<svg version="1.0" viewBox="0 0 603 763" xmlns="http://www.w3.org/2000/svg" xmlns:cc="http://web.resource.org/cc/" xmlns:dc="http://purl.org/dc/elements/1.1/" xmlns:rdf="http://www.w3.org/1999/02/22-rdf-syntax-ns#" xmlns:xlink="http://www.w3.org/1999/xlink">
<metadata>
<rdf:RDF>
<cc:Work rdf:about="">
<dc:format>image/svg+xml</dc:format>
<dc:type rdf:resource="http://purl.org/dc/dcmitype/StillImage"/>
<dc:date>07-AUG-2006</dc:date>
<dc:creator>
<cc:Agent>
<dc:title>Jérôme BLUM (wagner51)</dc:title>
</cc:Agent>
</dc:creator>
<cc:license rdf:resource="http://creativecommons.org/licenses/GPL/2.0/"/>
<dc:coverage/>
<dc:description>Gabarit pour le Projet:Blasons de WIkipédia</dc:description>
<dc:subject>
<rdf:Bag>
<rdf:li>blason suisse modèle gabarit projet blasons</rdf:li>
</rdf:Bag>
</dc:subject>
<dc:language>fr</dc:language>
<dc:title>Gabrit d'un blason suisse</dc:title>
</cc:Work>
<cc:License rdf:about="http://creativecommons.org/licenses/GPL/2.0/">
<cc:permits rdf:resource="http://web.resource.org/cc/Reproduction"/>
<cc:permits rdf:resource="http://web.resource.org/cc/Distribution"/>
<cc:requires rdf:resource="http://web.resource.org/cc/Notice"/>
<cc:permits rdf:resource="http://web.resource.org/cc/DerivativeWorks"/>
<cc:requires rdf:resource="http://web.resource.org/cc/ShareAlike"/>
<cc:requires rdf:resource="http://web.resource.org/cc/SourceCode"/>
</cc:License>
</rdf:RDF>
</metadata>
<defs>
<radialGradient id="a" cx="858.04" cy="579.93" r="300" gradientTransform="matrix(1.215 1.5316e-24 1.4647e-23 1.2667 -839.19 -490.49)" gradientUnits="userSpaceOnUse">
<stop stop-color="#fff" stop-opacity=".31373" offset="0"/>
<stop stop-color="#fff" stop-opacity=".25098" offset=".19"/>
<stop stop-color="#6b6b6b" stop-opacity=".12549" offset=".6"/>
<stop stop-opacity=".12549" offset="1"/>
</radialGradient>
</defs>
<desc>Coat of Arms of Canton of Freiburg (Fribourg)</desc>
<g>
<path d="m1.5 1.5v458.87c0 166.31 134.31 301.13 300 301.13 165.69 0 300-134.82 300-301.13v-458.87h-600z" fill="#2b5df2"/>
<path d="m17.688 558.16c40.452 118.3 152.24 203.34 283.81 203.34s243.36-85.044 283.81-203.34h-567.62z" fill="#fff" stroke="#000" stroke-linecap="round" stroke-linejoin="round" stroke-width="2.75"/>
<path d="m398.87 523.71c0-3.2336-1.5627-5.462-4.3602-5.462 0 0 0.55859-6.1259-3.0769-9.4663-3.6366-3.3404-8.3915-1.9482-8.3915-1.9482s0.4201-6.8209-5.3158-12.53c-5.0342-5.0117-12.029-4.1766-12.029-4.1766l-23.22-326.05s4.1964 0.83509 5.8756-1.6713c1.6781-2.5064 0.27929-6.1259 0.27929-6.1259s5.3158-1.9493 7.2744-6.1259c1.9585-4.1766 1.9574-10.859-2.2378-10.859 0 0 4.7561-1.9493 1.6781-5.8468h3.4404v-10.122l-0.92329-0.18035 7.2744-4.4546v-15.035s-10.111-2.5179-26.378-4.4707l-20.51-21.353h-16.765-0.04039-16.765l-20.51 21.354c-16.268 1.9528-26.378 4.4707-26.378 4.4707v15.034l7.2744 4.4546-0.92329 0.18035v10.122h3.4404c-3.078 3.8986 1.6792 5.8468 1.6792 5.8468-4.1964 0-4.1964 6.6819-2.2378 10.859 1.9585 4.1766 7.2744 6.1259 7.2744 6.1259s-1.3988 3.6195 0.27929 6.1259 5.8744 1.6713 5.8744 1.6713l-23.218 326.05s-6.9939-0.83624-12.029 4.1766c-5.7371 5.7101-5.3158 12.53-5.3158 12.53s-4.7561-1.3922-8.3915 1.9482-3.078 9.4663-3.078 9.4663c-2.7976 0-4.3602 2.2273-4.3602 5.462v43.95s36.247 20 97.385 20.009v0h0.02077 0.02078v0c61.138-0.00919 97.385-20.009 97.385-20.009s-0.00115-40.461-0.00115-43.949z" fill="#fff" stroke="#000" stroke-linecap="round" stroke-linejoin="round" stroke-width="2.75"/>
<path d="m365.18 118.69s-26.973-6.7175-63.693-6.7175c-36.72 0-63.693 6.7175-63.693 6.7175" fill="none" stroke="#000" stroke-linecap="round" stroke-linejoin="round" stroke-width="2.75"/>
<path d="m338.8 99.19c-10.303-1.2371-23.075-2.2468-37.315-2.2468s-27.012 1.0097-37.315 2.2468" fill="none" stroke="#000" stroke-linecap="round" stroke-linejoin="round" stroke-width="2.75"/>
<path d="m394.55 518.25s-38.468 18.2-93.065 18.2c-54.599 0-93.066-18.2-93.066-18.2" fill="none" stroke="#000" stroke-linecap="round" stroke-linejoin="round" stroke-width="2.75"/>
<path d="m383.08 506.83s-31.207 15.21-81.597 15.21c-50.39 0-81.597-15.21-81.597-15.21" fill="none" stroke="#000" stroke-linecap="round" stroke-linejoin="round" stroke-width="2.75"/>
<path d="m365.74 490.13s-24.263 10.355-64.251 10.355c-39.988 0-64.252-10.355-64.252-10.355" fill="none" stroke="#000" stroke-linecap="round" stroke-linejoin="round" stroke-width="2.75"/>
<path d="m342.52 164.08s-23.288-3.4036-41.032-3.4036c-17.746 0-41.033 3.4036-41.033 3.4036" fill="none" stroke="#000" stroke-linecap="round" stroke-linejoin="round" stroke-width="2.75"/>
<path d="m355.39 133.45s-24.885-5.1415-53.902-5.1415c-29.017 0-53.902 5.1415-53.902 5.1415" fill="none" stroke="#000" stroke-linecap="round" stroke-linejoin="round" stroke-width="2.75"/>
<path d="m357.91 123.15s-24.131-5.2771-56.419-5.2771c-32.289 0-56.419 5.2771-56.419 5.2771" fill="none" stroke="#000" stroke-linecap="round" stroke-linejoin="round" stroke-width="2.75"/>
<path d="m348.68 156.28s-20.319-3.855-47.187-3.855c-26.868 0-47.187 3.855-47.187 3.855" fill="none" stroke="#000" stroke-linecap="round" stroke-linejoin="round" stroke-width="2.75"/>
<path d="m353.71 139.3s-23.206-4.6809-52.224-4.6809-52.224 4.6809-52.224 4.6809" fill="none" stroke="#000" stroke-linecap="round" stroke-linejoin="round" stroke-width="2.75"/>
<path d="m254.43 138.31s-4.3972 3.3921-2.8587 7.6594 8.4112 4.7602 7.983 9.4675" fill="none" stroke="#000" stroke-linecap="round" stroke-linejoin="round" stroke-width="2.75"/>
<path d="m259.52 137.62s-2.838 2.7637 0.2943 6.2109c3.1322 3.4472 7.3667 5.8537 5.5697 10.815" fill="none" stroke="#000" stroke-linecap="round" stroke-linejoin="round" stroke-width="2.75"/>
<path d="m269.65 136.34s-4.3983 1.4772-0.10964 5.6354c4.2887 4.1582 7.5306 6.4568 3.8663 11.803" fill="none" stroke="#000" stroke-linecap="round" stroke-linejoin="round" stroke-width="2.75"/>
<path d="m282.59 135.25s-4.5795 2.673-0.89674 6.3384 7.3621 6.7026 3.2961 11.312" fill="none" stroke="#000" stroke-linecap="round" stroke-linejoin="round" stroke-width="2.75"/>
<path d="m294.46 134.71s-5.0735 2.8304-0.29083 7.0426c4.7826 4.2122 6.081 7.1058 2.4352 10.721" fill="none" stroke="#000" stroke-linecap="round" stroke-linejoin="round" stroke-width="2.75"/>
<path d="m305.46 134.65s-5.1843 3.492 2.2367 7.3757c7.4209 3.8837 5.3643 8.2131 2.4352 10.536" fill="none" stroke="#000" stroke-linecap="round" stroke-linejoin="round" stroke-width="2.75"/>
<path d="m315.96 134.99s-1.8131 3.1865 1.4507 4.5591c3.6308 1.5266 7.1751 4.7245 7.1751 7.2149 0 4.0962-2.0705 4.3512-2.9684 6.3603" fill="none" stroke="#000" stroke-linecap="round" stroke-linejoin="round" stroke-width="2.75"/>
<path d="m329.28 135.96s-0.72709 3.2738 2.5817 5.7641c3.3088 2.4904 5.2466 5.7836 3.9551 7.7915-1.2914 2.0079-3.4139 2.65-4.2494 4.4569" fill="none" stroke="#000" stroke-linecap="round" stroke-linejoin="round" stroke-width="2.75"/>
<path d="m340.73 137.14s-0.88751 3.3737 2.5829 6.3453c3.4704 2.9716 0.72594 6.8278-0.48472 8.0328-1.2107 1.205-2.501 2.6925-2.8241 3.4346" fill="none" stroke="#000" stroke-linecap="round" stroke-linejoin="round" stroke-width="2.75"/>
<path d="m349.88 138.61s-0.94868 2.3433 2.3948 5.439c3.4704 3.2129 0.57937 6.8278-0.9683 8.5152-1.6954 1.8471-4.2944 3.4288-4.2944 3.4288" fill="none" stroke="#000" stroke-linecap="round" stroke-linejoin="round" stroke-width="2.75"/>
<path d="m269.52 378.4c0.49858-8.1993 0.996-16.399 1.4946-24.598-3.1784 0.75239-6.3718 1.4761-9.5814 2.171l-0.03346 0.42272c0.63245-0.01378 1.2649-0.02757 1.8974-0.04365 2.606 0.19183 2.4179 3.5276 2.2528 5.879-0.37047 5.2805-0.7421 10.561-1.1126 15.842-0.29315 4.1789-0.53897 7.1069-5.2893 6.791-0.01154 0.14128-0.02192 0.28257-0.03346 0.42271 4.9096 0.38481 9.8238 0.703 14.739 0.95686 0.00692-0.14129 0.015-0.28258 0.02193-0.42387-4.7446-0.3492-4.6038-3.3323-4.3556-7.4194zm23.888-8.8426c3.2142-0.41813 5.811-2.905 5.826-6.5326 0.01385-5.6021-5.6413-7.7169-9.8111-7.8294-4.4699-0.09993-10.393 1.6736-10.678 7.5997-0.1535 3.2944 2.3567 5.9559 5.2385 6.5245-3.8443 0.9557-7.2317 3.5724-7.4579 8.1373-0.35662 6.922 6.3257 9.8282 11.961 9.9557 5.7267 0.15278 12.319-2.7959 12.311-9.6788 0.00116-4.3363-3.6378-7.5469-7.3898-8.1763zm-10.367-6.8255c0.14311-3.7194 3.0757-5.3552 6.1549-5.2794 3.0803 0.07696 5.7128 1.7598 5.6667 5.4827-0.04501 3.6276-2.8287 5.4298-5.9391 5.3517-3.0665-0.07581-6.0245-1.8827-5.8825-5.555zm5.3216 22.414c-4.2067-0.10682-6.9351-3.191-6.7585-7.5675 0.0704-1.8368 0.58975-3.7493 1.9147-5.0232 1.3699-1.2716 3.4092-1.8678 5.2108-1.823 4.1663 0.10453 7.0343 2.8625 6.9882 7.4343-0.04617 4.5212-3.1934 7.0839-7.3552 6.9794zm25.221-5.8813c-0.17311-8.2131-0.34508-16.425-0.51819-24.638-3.1057 1.0074-6.2276 1.9872-9.3679 2.9383l0.00115 0.42387c0.62784-0.06433 1.2568-0.1298 1.8858-0.19643 2.6118-0.01952 2.6972 3.3208 2.7249 5.6768 0.06116 5.292 0.12118 10.585 0.18465 15.878 0.04732 4.1881 0.0404 7.1276-4.7134 7.1965l0.00115 0.42387c4.92-0.01379 9.84-0.09419 14.761-0.23893-0.00462-0.14129-0.00923-0.28257-0.01385-0.42386-4.7561 0.03676-4.86-2.9464-4.9454-7.0403zm30.255-7.6663c-0.95791 2.4846-2.5264 2.4145-4.7815 2.5696-0.36931 0.02527-0.73978 0.05054-1.1068 0.07467-0.22274-3.3381-0.2389-2.6316-0.46164-5.9697-0.1939-2.8683-0.38317-5.7365-0.01847-8.5945-0.18466 0.01263-0.36932 0.02527-0.55397 0.0379-0.51358 2.5834-1.7577 4.697-4.0463 5.6332 0.25737 4.4052 0.3093 4.767 0.56552 9.1734-3.4831 0.20102-6.9674 0.36873-10.453 0.50313 0.44203-1.1969 1.1945-2.2629 1.8547-3.3289 0.56551-0.88794 1.1276-1.7782 1.6862-2.6684 1.3249-2.3709 2.6302-4.7475 3.9182-7.1288 1.1634-2.5639 1.887-4.8716 1.715-7.7881-0.0427-0.75239-0.17311-1.5002-0.38316-2.1963-1.8708 1.7437-3.7601 3.4759-5.669 5.199 0.90367 0.05284 1.2084 1.0281 1.2511 1.8746 0.17773 3.484-2.5067 8.421-4.2517 11.27-1.8143 2.9946-3.9898 5.7986-3.827 8.197 1.0526-0.50428 2.3013-0.50083 3.415-0.54218 3.6378-0.13785 7.2767-0.3113 10.91-0.52151 0.05193 0.89368 0.10618 1.7874 0.15811 2.681 0.14427 2.4904 0.26429 5.2277-2.3867 5.7009 0.00693 0.14129 0.01385 0.28258 0.02308 0.42387 3.3469-0.1769 6.6927-0.38481 10.037-0.62259-0.01154-0.14129-0.02078-0.28143-0.03116-0.42271-2.6822-0.04825-2.9084-2.7775-3.0815-5.3609-0.05886-0.89368-0.12003-1.7862-0.17773-2.6799 0.96483-0.06432 1.9274-0.13095 2.8922-0.19987 1.2014-0.08615 1.6296-0.30785 2.254 0.82591 0.3243-2.0251 0.64284-4.0503 0.95329-6.0754-0.13387-0.02298-0.26891-0.04365-0.40394-0.06433z" stroke-width="2.75"/>
<path d="m269.24 130.2c1.4196-0.15967 2.8899-0.31589 4.4087-0.46522v-10.6c-1.5165 0.13669-2.9892 0.27913-4.4087 0.42731v10.638zm22.93-1.7196c1.4865-0.05284 2.9892-0.09534 4.5091-0.12406v-10.444c-1.5234 0.02412-3.0295 0.05858-4.5091 0.10338v10.465zm-12.124 0.69151c1.4403-0.11142 2.9107-0.21595 4.4087-0.31015v-10.514c-1.5027 0.08385-2.9684 0.1769-4.4087 0.27798v10.546zm-20.44 2.2629c1.4046-0.20217 2.9095-0.40778 4.5091-0.61455v-10.682c-1.5869 0.19183-3.0942 0.38596-4.5091 0.57894v10.717zm-13.604 2.0136h1.58s0.22967-0.0471 0.66477-0.1321v-10.795c-0.96368 0.17804-1.7127 0.32507-2.2447 0.43075v10.497zm6.6904-0.93389c0.7317-0.12405 1.535-0.2573 2.404-0.39629v-10.747c-0.84942 0.1298-1.6538 0.25731-2.404 0.38022v10.763zm76.626-2.7798c1.5177 0.14933 2.9892 0.30555 4.4087 0.46522v-10.639c-1.4196-0.14818-2.8922-0.29062-4.4087-0.42731v10.601zm18.551 2.3835c0.8702 0.13899 1.6735 0.27224 2.4052 0.39629v-10.764c-0.75017-0.12291-1.5557-0.24927-2.4052-0.38022v10.748zm6.8508-9.5973v10.795c0.4351 0.085 0.66361 0.1321 0.66361 0.1321h1.58v-10.496c-0.53089-0.10683-1.2799-0.25386-2.2436-0.4319zm-48.432 5.8353c1.52 0.02872 3.0226 0.07237 4.5091 0.12406v-10.465c-1.4796-0.04595-2.9857-0.07926-4.5091-0.10338v10.444zm12.223 0.50657c1.498 0.09419 2.9684 0.19758 4.4087 0.31015v-10.546c-1.4403-0.09994-2.906-0.19413-4.4087-0.27798v10.514zm20.34 1.9562c1.6008 0.20677 3.1046 0.41238 4.5091 0.61455v-10.717c-1.4149-0.19298-2.9222-0.38711-4.5091-0.57894v10.682z" stroke-width="2.75"/>
</g>
<g>
<path d="m1.5 1.5v458.87c0 166.31 134.31 301.13 300 301.13 165.69 0 300-134.82 300-301.13v-458.87h-600z" fill="url(#a)"/>
<path d="m1.5 1.5v458.87c0 166.31 134.31 301.13 300 301.13 165.69 0 300-134.82 300-301.13v-458.87h-600z" fill="none" stroke="#000" stroke-width="3"/>
</g>
</svg>
