<?xml version="1.0" encoding="UTF-8"?>
<svg version="1.0" viewBox="0 0 603 763" xmlns="http://www.w3.org/2000/svg" xmlns:cc="http://web.resource.org/cc/" xmlns:dc="http://purl.org/dc/elements/1.1/" xmlns:rdf="http://www.w3.org/1999/02/22-rdf-syntax-ns#" xmlns:xlink="http://www.w3.org/1999/xlink">
<metadata>
<rdf:RDF>
<cc:Work rdf:about="">
<dc:format>image/svg+xml</dc:format>
<dc:type rdf:resource="http://purl.org/dc/dcmitype/StillImage"/>
<dc:date>07-AUG-2006</dc:date>
<dc:creator>
<cc:Agent>
<dc:title>Jérôme BLUM (wagner51)</dc:title>
</cc:Agent>
</dc:creator>
<cc:license rdf:resource="http://creativecommons.org/licenses/GPL/2.0/"/>
<dc:coverage/>
<dc:description>Gabarit pour le Projet:Blasons de WIkipédia</dc:description>
<dc:subject>
<rdf:Bag>
<rdf:li>blason suisse modèle gabarit projet blasons</rdf:li>
</rdf:Bag>
</dc:subject>
<dc:language>fr</dc:language>
<dc:title>Gabrit d'un blason suisse</dc:title>
</cc:Work>
<cc:License rdf:about="http://creativecommons.org/licenses/GPL/2.0/">
<cc:permits rdf:resource="http://web.resource.org/cc/Reproduction"/>
<cc:permits rdf:resource="http://web.resource.org/cc/Distribution"/>
<cc:requires rdf:resource="http://web.resource.org/cc/Notice"/>
<cc:permits rdf:resource="http://web.resource.org/cc/DerivativeWorks"/>
<cc:requires rdf:resource="http://web.resource.org/cc/ShareAlike"/>
<cc:requires rdf:resource="http://web.resource.org/cc/SourceCode"/>
</cc:License>
</rdf:RDF>
</metadata>
<defs>
<radialGradient id="a" cx="858.04" cy="579.93" r="300" gradientTransform="matrix(1.215 0 0 1.2667 -839.19 -490.49)" gradientUnits="userSpaceOnUse">
<stop stop-color="#fff" stop-opacity=".31373" offset="0"/>
<stop stop-color="#fff" stop-opacity=".25098" offset=".19"/>
<stop stop-color="#6b6b6b" stop-opacity=".12549" offset=".6"/>
<stop stop-opacity=".12549" offset="1"/>
</radialGradient>
</defs>
<desc>Coat of Arms of Canton of Freiburg (Fribourg)</desc>
<g>
<path d="m1.5 1.5v458.87c0 166.31 134.31 301.13 300 301.13 165.69 0 300-134.82 300-301.13v-458.87h-600z" fill="#e20909"/>
<path d="m1.5 1.5v458.88c0 166.31 134.31 301.12 300 301.12v-760h-300z" fill="#5ab532"/>
</g>
<g stroke="#000">
<path d="m142.83 639.79c-0.29551 1.5836-0.19701 3.164-0.19701 5.633 0 8.2979 4.1208 12.897 8.876 12.897 4.7551 0 16.948-12.939 9.5687-31.594-11.062 5.8278-18.248 13.064-18.248 13.064z" fill="#eade42" stroke-width="3"/>
<path d="m141.13 620.4s-6.6905 12.873 1.7059 19.392c0 0 7.1841-7.2371 18.247-13.064 0 0 8.5934-9.2851 3.5558-23.613-13.531 7.5067-23.508 17.285-23.508 17.285z" fill="#eade42" stroke-width="3"/>
<path d="m138.66 597.19s-6.618 11.658 2.469 23.214c0 0 9.9768-9.7787 23.508-17.286 0 0 8.7904-10.666 1.7633-24.683-10.22 6.4188-27.741 18.755-27.741 18.755z" fill="#eade42" stroke-width="3"/>
<path d="m166.4 551.08c-10.22 6.4177-29.475 21.393-29.475 21.393s-8.8348 11.673 1.7341 24.711c0 0 17.52-12.336 27.741-18.754 0 0 10.781-15.026 0-27.35z" fill="#eade42" stroke-width="3"/>
<path d="m164.97 524.7s-16.876 11.172-26.859 19.729c0 0-12.598 11.409-1.1885 28.048 0 0 19.254-14.975 29.475-21.393 0 0 10.696-15.45-1.4266-26.384z" fill="#eade42" stroke-width="3"/>
<path d="m157.03 504.95c-5.5042 3.7495-12.957 9.2137-20.77 16.086 0 0-9.8545 11.594 1.851 23.386 9.9833-8.5566 26.859-19.729 26.859-19.729s7.5987-8.7082 4.018-19.744h-11.959v0.00109z" fill="#eade42" stroke-width="3"/>
<path d="m131.87 505.06c-1.1409 4.5072-0.96661 10.428 4.3838 15.979 7.7426-6.8107 15.126-12.234 20.614-15.979h-24.998z" fill="#eade42" stroke-width="3"/>
<polygon transform="matrix(1.0824 0 0 1.0824 -42.47 -22.679)" points="197.19 477.79 188.39 60.514 179.21 48.532 170.02 60.514 161.22 477.79" fill="#fcef3c" stroke-width="2.7715"/>
<path d="m212.8 494.49c-3.2538 0.03248-6.329-1.9451-7.5391-5.1686-1.9321-5.1502 0.67544-10.893 5.8256-12.826 6.4372-2.4149 13.615 0.8443 16.031 7.2826 3.0211 8.0468-1.0543 17.019-9.1011 20.039-2.2331 0.8378-4.5213 1.2394-6.7739 1.2459h-120.79c3.1661 0.06386 6.1222 2.0231 7.3043 5.1686 1.9321 5.1502-0.67544 10.893-5.8257 12.826-6.4372 2.4149-13.615-0.8443-16.031-7.2826-3.0211-8.0468 1.0543-17.019 9.1011-20.039 2.2331-0.8378 4.5213-1.2394 6.7739-1.2459h121.03-0.00325z" fill="#eadf45" stroke-width="3"/>
<line x1="151.51" x2="151.51" y1="494.5" y2="42.272" fill="none" stroke-linecap="round" stroke-linejoin="round" stroke-width="3"/>
<path d="m83.768 513.78c-1.2372-3.296 0.43189-6.9698 3.7279-8.207 0.97419-0.36586 1.9754-0.52822 2.9561-0.50982" fill="none" stroke-width="3"/>
<path d="m219.25 485.77c1.2372 3.296-0.43189 6.9698-3.7279 8.207-0.89733 0.33664-1.8163 0.50116-2.7212 0.50982" fill="none" stroke-width="3"/>
<line x1="163.1" x2="155.85" y1="532" y2="538.02" fill="none" stroke-linecap="round" stroke-linejoin="round" stroke-width="3"/>
<line x1="163.1" x2="155.85" y1="512.71" y2="518.72" fill="none" stroke-linecap="round" stroke-linejoin="round" stroke-width="3"/>
<line x1="163.1" x2="155.85" y1="518.64" y2="524.65" fill="none" stroke-linecap="round" stroke-linejoin="round" stroke-width="3"/>
<line x1="163.1" x2="155.85" y1="506.22" y2="512.23" fill="none" stroke-linecap="round" stroke-linejoin="round" stroke-width="3"/>
<line x1="165.23" x2="155.85" y1="536.42" y2="544.21" fill="none" stroke-linecap="round" stroke-linejoin="round" stroke-width="3"/>
<line x1="163.63" x2="156.38" y1="544.38" y2="550.4" fill="none" stroke-linecap="round" stroke-linejoin="round" stroke-width="3"/>
<line x1="162.39" x2="155.14" y1="560.12" y2="566.13" fill="none" stroke-linecap="round" stroke-linejoin="round" stroke-width="3"/>
<line x1="164.52" x2="155.14" y1="564.54" y2="572.32" fill="none" stroke-linecap="round" stroke-linejoin="round" stroke-width="3"/>
<line x1="162.92" x2="155.67" y1="572.5" y2="578.51" fill="none" stroke-linecap="round" stroke-linejoin="round" stroke-width="3"/>
<line x1="161.33" x2="154.08" y1="586.42" y2="592.44" fill="none" stroke-linecap="round" stroke-linejoin="round" stroke-width="3"/>
<line x1="163.46" x2="154.08" y1="590.85" y2="598.63" fill="none" stroke-linecap="round" stroke-linejoin="round" stroke-width="3"/>
<line x1="161.86" x2="154.61" y1="598.8" y2="604.82" fill="none" stroke-linecap="round" stroke-linejoin="round" stroke-width="3"/>
<line x1="160.26" x2="153.01" y1="611.57" y2="617.59" fill="none" stroke-linecap="round" stroke-linejoin="round" stroke-width="3"/>
<line x1="160.79" x2="153.54" y1="618.29" y2="624.3" fill="none" stroke-linecap="round" stroke-linejoin="round" stroke-width="3"/>
<line x1="158.27" x2="153.37" y1="632.98" y2="637.05" fill="none" stroke-linecap="round" stroke-linejoin="round" stroke-width="3"/>
<line x1="159.97" x2="153.37" y1="637.23" y2="642.71" fill="none" stroke-linecap="round" stroke-linejoin="round" stroke-width="3"/>
<line x1="158.27" x2="153.37" y1="644.3" y2="648.37" fill="none" stroke-linecap="round" stroke-linejoin="round" stroke-width="3"/>
<path d="m220.07 283.56c0-33.844 23.783-62.77 56.892-71.667-3.88-0.642-7.781-0.976-11.693-0.976-40.056 0-72.645 32.587-72.645 72.643s32.589 72.643 72.645 72.643c3.912 0 7.813-0.334 11.693-0.976-33.109-8.893-56.892-37.824-56.892-71.667zm-182.31-72.643c-3.917 0-7.819 0.334-11.699 0.976 33.108 8.897 56.896 37.823 56.896 71.667s-23.788 62.774-56.896 71.667c3.88 0.642 7.787 0.976 11.699 0.976 40.05 0 72.637-32.587 72.637-72.643s-32.587-72.643-72.637-72.643z" fill="#fff" stroke-linecap="round" stroke-linejoin="round" stroke-miterlimit="5" stroke-width="3"/>
<path d="m301.75 45.281v58.531l299.75 299.75v-58.531l-299.75-299.75zm0 120.5v112l282.75 282.72c10.467-29.808 16.388-61.76 16.938-95.031l-299.69-299.69zm0 173.94v58.562l241.06 241.03c8.3757-11.361 15.945-23.337 22.688-35.844l-263.75-263.75z" fill="#feffff" stroke-width="2.95"/>
<path d="m301.5 2.3466v758.08" fill="none" stroke-width="3"/>
</g>
<g>
<path d="m1.5 1.5v458.87c0 166.31 134.31 301.13 300 301.13 165.69 0 300-134.82 300-301.13v-458.87h-600z" fill="url(#a)"/>
<path d="m1.5 1.5v458.87c0 166.31 134.31 301.13 300 301.13 165.69 0 300-134.82 300-301.13v-458.87h-600z" fill="none" stroke="#000" stroke-width="3"/>
</g>
</svg>
