<?xml version="1.0" encoding="UTF-8"?>
<svg version="1.0" viewBox="0 0 603 763" xmlns="http://www.w3.org/2000/svg" xmlns:cc="http://creativecommons.org/ns#" xmlns:dc="http://purl.org/dc/elements/1.1/" xmlns:rdf="http://www.w3.org/1999/02/22-rdf-syntax-ns#" xmlns:xlink="http://www.w3.org/1999/xlink">
<metadata>
<rdf:RDF>
<cc:Work rdf:about="">
<dc:format>image/svg+xml</dc:format>
<dc:type rdf:resource="http://purl.org/dc/dcmitype/StillImage"/>
<dc:date>05-AUG-2009</dc:date>
<dc:creator>
<cc:Agent>
<dc:title>Juan G (aliman5040)</dc:title>
</cc:Agent>
</dc:creator>
<cc:license rdf:resource=""/>
<dc:coverage/>
<dc:description/>
<dc:subject>
<rdf:Bag/>
</dc:subject>
<dc:language/>
<dc:title>Wappen Gemeinde Gurbrü</dc:title>
</cc:Work>
</rdf:RDF>
</metadata>
<defs>
<radialGradient id="a" cx="858.04" cy="579.93" r="300" gradientTransform="matrix(1.215 1.5316e-24 1.4647e-23 1.2667 -839.19 -490.49)" gradientUnits="userSpaceOnUse">
<stop stop-color="#fff" stop-opacity=".31373" offset="0"/>
<stop stop-color="#fff" stop-opacity=".25098" offset=".19"/>
<stop stop-color="#6b6b6b" stop-opacity=".12549" offset=".6"/>
<stop stop-opacity=".12549" offset="1"/>
</radialGradient>
</defs>
<g>
<path d="m1.5 1.5v458.87c0 166.31 134.31 301.13 300 301.13 165.69 0 300-134.82 300-301.13v-458.87h-600z" fill="#2b5df2"/>
<path d="m299.44 505.84c-37.071 0.34249-73.144 22.273-79.156 72.375-67.067-39.451-126.87-24.307-159.22 62.25 29.81 40.03 69.302 72.389 115 93.531 51.318 20.615 103.44 30.022 156.62 25.875 86.818-8.9979 162.62-55.167 211.41-122.38-27.725-65.525-73.488-97.534-157.09-59.281-2.2713-45.426-45.548-72.763-87.562-72.375z" fill="#5ab532" fill-rule="evenodd" stroke="#000" stroke-width="3"/>
<path d="m220.27 578.21c-2.3845 62.121 50.472 119.99 81.232 179.57 33.768-57.975 87.896-108.68 85.507-179.57" fill="none" stroke="#000" stroke-width="3"/>
<path d="m514.53 380.5c-39.442-128.68-71.088-258.13-216.93-354.4-130 89.913-175.66 219.31-209.12 354.4 44.728 10.962 89.457 18.53 134.18 14.873-12.657 67.623-22.657 77.623 35.498 102.55v-59.163 59.163l19.721-15.777v-59.163l-19.721 15.777c-31.554-15.777-39.442-27.609-35.498-43.386-3.9442 15.777 3.9442 27.609 35.498 43.386l19.721-15.777c-23.665-3.9442-39.442-11.833-55.219-27.609 15.777 15.777 31.554 23.665 55.219 27.609v23.665h39.442v-23.665c35.498 0 43.386-7.8884 55.219-23.665-11.833 15.777-19.721 23.665-55.219 23.665l23.665 15.777c23.665-7.8884 39.442-15.777 31.554-39.442 7.8884 23.665-7.8884 31.554-31.554 39.442l-23.665-15.777v23.665 35.498l19.721 15.777 3.9442-59.163-3.9442 59.163c52.961-14.926 55.219-31.554 35.498-98.605-15.777-74.94-31.554-161.71-72.79-185.38l-0.0803-165.66 0.0803 165.66c-45.536 23.665-49.747 99.057-77.09 181.43 27.343-82.377 31.554-157.77 77.09-181.43 41.236 23.665 57.013 110.44 72.79 185.38 47.881-2.969 96.843 0.54714 141.99-18.817z" fill="#fff" fill-rule="evenodd" stroke="#000" stroke-width="3"/>
<path d="m1.5 1.5v458.87c0 166.31 134.31 301.13 300 301.13 165.69 0 300-134.82 300-301.13v-458.87h-600z" fill="url(#a)"/>
<path d="m1.5 1.5v458.87c0 166.31 134.31 301.13 300 301.13 165.69 0 300-134.82 300-301.13v-458.87h-600z" fill="none" stroke="#000" stroke-width="3"/>
</g>
</svg>
