<?xml version="1.0" encoding="UTF-8"?>
<svg version="1.0" viewBox="0 0 603 763" xmlns="http://www.w3.org/2000/svg" xmlns:cc="http://web.resource.org/cc/" xmlns:dc="http://purl.org/dc/elements/1.1/" xmlns:rdf="http://www.w3.org/1999/02/22-rdf-syntax-ns#" xmlns:xlink="http://www.w3.org/1999/xlink">
<metadata>
<rdf:RDF>
<cc:Work rdf:about="">
<dc:format>image/svg+xml</dc:format>
<dc:type rdf:resource="http://purl.org/dc/dcmitype/StillImage"/>
<dc:date>07-AUG-2006</dc:date>
<dc:creator>
<cc:Agent>
<dc:title>Jérôme BLUM (wagner51)</dc:title>
</cc:Agent>
</dc:creator>
<cc:license rdf:resource="http://creativecommons.org/licenses/GPL/2.0/"/>
<dc:coverage/>
<dc:description>Gabarit pour le Projet:Blasons de WIkipédia</dc:description>
<dc:subject>
<rdf:Bag>
<rdf:li>blason suisse modèle gabarit projet blasons</rdf:li>
</rdf:Bag>
</dc:subject>
<dc:language>fr</dc:language>
<dc:title>Gabrit d'un blason suisse</dc:title>
</cc:Work>
<cc:License rdf:about="http://creativecommons.org/licenses/GPL/2.0/">
<cc:permits rdf:resource="http://web.resource.org/cc/Reproduction"/>
<cc:permits rdf:resource="http://web.resource.org/cc/Distribution"/>
<cc:requires rdf:resource="http://web.resource.org/cc/Notice"/>
<cc:permits rdf:resource="http://web.resource.org/cc/DerivativeWorks"/>
<cc:requires rdf:resource="http://web.resource.org/cc/ShareAlike"/>
<cc:requires rdf:resource="http://web.resource.org/cc/SourceCode"/>
</cc:License>
</rdf:RDF>
</metadata>
<defs>
<radialGradient id="a" cx="858.04" cy="579.93" r="300" gradientTransform="matrix(1.215 1.5316e-24 1.4647e-23 1.2667 -839.19 -490.49)" gradientUnits="userSpaceOnUse">
<stop stop-color="#fff" stop-opacity=".31373" offset="0"/>
<stop stop-color="#fff" stop-opacity=".25098" offset=".19"/>
<stop stop-color="#6b6b6b" stop-opacity=".12549" offset=".6"/>
<stop stop-opacity=".12549" offset="1"/>
</radialGradient>
</defs>
<desc>Coat of Arms of Canton of Freiburg (Fribourg)</desc>
<path d="m1.5 1.5v458.87c0 166.31 134.31 301.13 300 301.13 165.69 0 300-134.82 300-301.13v-458.87h-600z" fill="#fff"/>
<g transform="matrix(4.114 0 0 4.114 -2721.9 -1516.2)">
<g fill="#5ab532" fill-rule="evenodd" stroke="#000" stroke-width="1px">
<path d="m720 421.54c-2.8551-2.3969-6.9368-13.321 5.0102-14.373 7.3088-0.64372 7.1836 9.8292 19.278 14.897-7.0326 4.9638-12.622 16.394-19.288 15.94-4.9258-0.33515-7.2613-2.7695-7.9116-5.833-0.73126-3.4448 0.66828-7.6852 2.9116-10.631z"/>
<path d="m707.6 400.16c-2.3969 2.8551-17.488 6.15-15.669-6.7792 0.95302-6.7737 10.705-7.8106 14.937-15.293 4.9638 7.0326 17.649 10.04 17.196 16.706-0.71201 10.465-10.898 9.6044-16.464 5.366z"/>
<path d="m693.19 421.54c2.8551-2.3969 2.9945-15.897-7.3231-14.373-5.8565 0.86494-5.4044 10.185-17.499 15.252 7.0326 4.9638 13.156 16.038 19.822 15.584 10.465-0.71201 9.2384-10.898 5-16.464z"/>
<path d="m707.2 385.44c-3.4054 38.808 1.5065 33.91-31.469 36.954 18.55 1.9819 31.095-7.15 27.201 35.242-1.4082 15.331 1.837 27.382-17.928 27.562-23.673 0.21493-10.413 18.341-6.3402 18.536-2.37-6.3484 0.46048-9.7251 4.8762-12.196-0.22246 5.6901 2.7761 7.0854 5.366 9.0258-3.7163-13.629 6.3154-4.1565 14.268-12.928-4.6864 5.3426 0.73154 13.211 3.2938 20.366 1.8908-5.5985 5.2616-8.9771 3.5361-20 2.6171 6.82 12.909 4.1317 10.366 12.196 13.196-22.758-11.752-1.7676-8.902-42.443 2.2416-31.997-7.8774-36.896 23.902-35.85-34.597-3.6858-21.737 1.2268-28.17-36.464z"/>
</g>
<path d="m775.1 523c3.0644 5.6413 0.98987 9.5684-3.1109 9.817 0 0-17.098-0.44678-20.791 0.18299-3.0512 0.52026-5.6961-7.4379 2.4408-5.7381 1.4641 0.30585 3.261-0.21356 5.3633-0.17687 8.1262 0.14184 7.368-9.2047 7.9871-9.634 1.6652-1.1548 5.7629-0.88402 7.0129 0.36598s-0.58905 2.0773 1.098 5.183z" fill="#ffd5c5" fill-rule="evenodd" stroke="#040000" stroke-width="1px"/>
<path d="m731.85 524.26c3.0644 5.6413 0.23502 8.3104-3.8657 8.5589 0 0-19.258-0.17948-22.987 0.18299-1.5873 0.15428-5.6961-8.5359 4.6367-5.7381 1.4437 0.3909 3.261-0.21356 5.3633-0.17687 8.1262 0.14184 11.214-10.55 9.7484-9.817 0 0 9.0339 0.05383 10.284 1.3038s-4.8665 2.5805-3.1795 5.6862z" fill="#ffd5c5" fill-rule="evenodd" stroke="#000" stroke-width="1px"/>
<path d="m767.99 410.38c-0.52723-8.2971 4.9936-13.869 5.549-20.183 1.1151-12.677-17.804-11.555-20.732-7.0129-2.5052 3.8861-5.739 8.6017-4.451 11.299 1.1614-0.03625-0.92195-1.0501 2.8956 0.47604-1.6057 0.36614-1.4729 0.69526-3.0786-0.12852-2.005 2.5976-4.6969 2.9969-4.6229 4.4288s3.693 0.70058 3.693 0.70058l-2.4232 0.29582 0.20911 1.6566c-0.90373 0.84486-0.17781 1.2823 0.2272 1.8l2.0479-0.30319-2.0395 0.17148c-0.18009 0.76141-0.77801 1.6244 0.38427 2.6786 2.0116 1.8246 0.5114 5.3788 4.4778 4.7285 3.2921-0.9957 4.5694-1.1817 8.3744-3.7275l-4.0471 2.4465 2.7449 4.0258 10.791-3.3531z" fill="#ffd5c5" fill-rule="evenodd" stroke="#000" stroke-width="1px"/>
<path d="m717.62 446.17c11.31-0.21891 21.155-2.5431 25.71-14.344-7.6103 9.1407-19.206 12.009-28.697 7.8207l2.4381 37.987c38.345-26.362 34.151-17.009 46.83-49.817-5.1088 32.438-21.524 34.631-28.17 42.072-6.4738 7.248 1.5578 4.5494-17.379 47.196 7.72 5.9774 22.702 3.7598 33.041 3.6598 10.339-0.09993 23.647 0.05675 28.972-4.268 4.8988-3.9787-3.7606-5.7894-14.451-44.026l7.3789 12.928-1.0387-28.111c0.43366-3.1749-6.4565-7.1279-1.3994-17.686 3.4824-6.8802 1.3924-15.323-0.85573-22.68l18.719 32.013c0.79588 4.7288-3.8477 7.3041-0.7912 13.17 5.6907-3.8924 10.676-13.447 12.68-15.974 1.8446-2.3252-6.1532-49.439-7.4381-49.758-1.458-0.36148-16.181 6.3619-24.085 10.366l5.732 7.9279 15.915-12.928-15.549 16.83c-4.9059-1.9888-4.3528-7.4788-6.098-11.098-3.8303 2.54-9.1586 5.0209-18.353 6.098l0.18299 3.7191 6.6469-0.54897c0.69297 2.0636-3.3116 1.0783-5.183 3.3531-6.6528 8.087-10.023 17.068-11.142 20.551-2.6323 8.194-22.635 8.453-23.616 5.5468z" fill-rule="evenodd" stroke="#000" stroke-width="1px"/>
<path d="m773.58 388.65c2.1805 2.8352 1.5032 4.8368 2.3291 7.8003l-5.647-0.45289-0.77636-4.2939-1.0535-0.06469-0.45289 4.0998-2.9297-0.51758 0.38818-4.2883-0.85937-0.32348-1.488 4.1589-2.3474-0.77636 1.2939-4.1589-1.1829-0.45288-2.218 4.0942-2.5415-0.98877 2.0239-4.353-1.2476-0.60059-2.6062 4.3164-1.9534-0.9046 2.1497-4.2116-0.93534-0.58742c-0.2827 0.23301-2.1733 2.6499-3.1306 4.0072l-3.813-2.4599c1.1546-2.4444 3.021-4.3549 6.1242-5.3378 5.1008 2.6154 13.566 6.233 20.874 6.2959z" fill-rule="evenodd" stroke="#000" stroke-width="1px"/>
<path d="m758.74 396.45c7.5625-3.0601 5.4664 6.0226 2.1646 8.0647" fill="none" stroke="#000" stroke-width="1px"/>
<path d="m701.74 532.72-0.12939 4.1055 30.52 0.0647-0.06714-4.1055s-0.32349-0.0647-30.323-0.0647z" fill-rule="evenodd"/>
<path d="m747.13 532.83-0.12939 4.1055 30.52 0.0647-0.06714-4.1055s-0.32349-0.0647-30.323-0.0647z" fill-rule="evenodd"/>
<path d="m716.19 442.1c-2.0653-1.9169-3.3477-3.6729-6.0665-4.8133-2.7188-1.1404-7.94-0.92517-7.94-0.92517-1.4261 0.91656-1.4469 2.2346-1.183 3.634l15.294 8-0.10441-5.8956z" fill="#ffd5c5" fill-rule="evenodd" stroke="#000" stroke-width="1px"/>
<path d="m717.07 456.19s-1.9442-2.1415-4.5988-2.1376c-3.3819 0.00495-3.1348 1.2109-6.0038 0.82797-3.288-1.302-7.4332-1.8755-6.209-4.4667l2.9584 0.53328-2.9584-0.53328c-0.77554-1.17-0.94617-2.34-0.25879-3.5101l3.5897 0.69407-3.5897-0.69407c-0.98971-1.3007-0.70822-2.6014 0-3.902l3.9936 1.3724-3.9936-1.3724c-0.79883-2.2345 0.2566-2.8961 1.3724-3.0786 5.7273-0.93661 10.362 5.4088 15.439 7.9492l0.25879 8.3179z" fill="#ffd5c5" fill-rule="evenodd" stroke="#000" stroke-width="1px"/>
<path d="m709.63 532.85h5.647l-0.38818-6.294c-2.127 0.2517-3.9398 0.34635-5.3882 0.25879l0.12939 6.0352z" fill="#fff" fill-rule="evenodd" stroke="#000" stroke-width="1px"/>
<path d="m755.37 533.02 5.9058-0.1294-0.1294-6.5527c-2.127 0.2517-4.4573 0.34633-5.9058 0.25877l0.12939 6.4234z" fill="#fff" fill-rule="evenodd" stroke="#000" stroke-width="1px"/>
</g>
<g>
<path d="m1.5 1.5v458.87c0 166.31 134.31 301.13 300 301.13 165.69 0 300-134.82 300-301.13v-458.87h-600z" fill="url(#a)"/>
<path d="m1.5 1.5v458.87c0 166.31 134.31 301.13 300 301.13 165.69 0 300-134.82 300-301.13v-458.87h-600z" fill="none" stroke="#000" stroke-width="3"/>
</g>
</svg>
