<?xml version="1.0" encoding="UTF-8"?>
<svg version="1.0" viewBox="0 0 603 763" xmlns="http://www.w3.org/2000/svg" xmlns:cc="http://web.resource.org/cc/" xmlns:dc="http://purl.org/dc/elements/1.1/" xmlns:rdf="http://www.w3.org/1999/02/22-rdf-syntax-ns#" xmlns:xlink="http://www.w3.org/1999/xlink">
<metadata>
<rdf:RDF>
<cc:Work rdf:about="">
<dc:format>image/svg+xml</dc:format>
<dc:type rdf:resource="http://purl.org/dc/dcmitype/StillImage"/>
<dc:date>07-AUG-2006</dc:date>
<dc:creator>
<cc:Agent>
<dc:title>Jérôme BLUM (wagner51)</dc:title>
</cc:Agent>
</dc:creator>
<cc:license rdf:resource="http://creativecommons.org/licenses/GPL/2.0/"/>
<dc:coverage/>
<dc:description>Gabarit pour le Projet:Blasons de WIkipédia</dc:description>
<dc:subject>
<rdf:Bag>
<rdf:li>blason suisse modèle gabarit projet blasons</rdf:li>
</rdf:Bag>
</dc:subject>
<dc:language>fr</dc:language>
<dc:title>Gabrit d'un blason suisse</dc:title>
</cc:Work>
<cc:License rdf:about="http://creativecommons.org/licenses/GPL/2.0/">
<cc:permits rdf:resource="http://web.resource.org/cc/Reproduction"/>
<cc:permits rdf:resource="http://web.resource.org/cc/Distribution"/>
<cc:requires rdf:resource="http://web.resource.org/cc/Notice"/>
<cc:permits rdf:resource="http://web.resource.org/cc/DerivativeWorks"/>
<cc:requires rdf:resource="http://web.resource.org/cc/ShareAlike"/>
<cc:requires rdf:resource="http://web.resource.org/cc/SourceCode"/>
</cc:License>
</rdf:RDF>
</metadata>
<defs>
<radialGradient id="a" cx="858.04" cy="579.93" r="300" gradientTransform="matrix(1.215 1.5316e-24 1.4647e-23 1.2667 -839.19 -490.49)" gradientUnits="userSpaceOnUse">
<stop stop-color="#fff" stop-opacity=".31373" offset="0"/>
<stop stop-color="#fff" stop-opacity=".25098" offset=".19"/>
<stop stop-color="#6b6b6b" stop-opacity=".12549" offset=".6"/>
<stop stop-opacity=".12549" offset="1"/>
</radialGradient>
</defs>
<desc>Coat of Arms of Canton of Freiburg (Fribourg)</desc>
<path d="m1.5 1.5v458.87c0 166.31 134.31 301.13 300 301.13 165.69 0 300-134.82 300-301.13v-458.87h-600z" fill="#2b5df2"/>
<g transform="translate(72.159 502.22)">
<g transform="matrix(1.3096 0 0 1.1965 -164.32 -651.87)" stroke="#000">
<path transform="matrix(.76358 0 0 .83577 70.918 125.31)" d="m300 524.12c-66.865-6e-5 -85.035 55.453-76.781 92.406 1e-5 -1e-5 -58.589-46.751-106.47 3.7812-18.081 19.083-22.645 40.275-19.406 60.688 50.525 47.129 117.25 76.967 190.88 80.188 3.918 0.10612 7.8351 0.15625 11.781 0.15625 6.4374 0 12.858-0.12512 19.219-0.40625 0.78337-0.03462 1.5616-0.08617 2.3438-0.125 69.227-4.588 132.03-32.723 180.53-76.531 4.2808-21.416 0.24147-43.859-18.812-63.969-47.876-50.532-106.5-3.7812-106.5-3.7812 8.2568-36.953-9.9194-92.406-76.781-92.406z" fill="#5ab532" stroke-width="2.1969"/>
<path d="m301.23 761.61c9.51-10.023 35.957-33.806 51.141-86.589 6.6031-32.404 12.538-58.427-0.776-83.095" fill="none" stroke-linecap="round" stroke-linejoin="round" stroke-width="2.1969"/>
<path d="m298.2 761.61c-9.51-10.023-37.325-33.293-50.6-86.589-8.8-35.332-10.342-63.551 0.776-83.095" fill="none" stroke-linecap="round" stroke-linejoin="round" stroke-width="2.1969"/>
</g>
</g>
<path transform="matrix(1.6107 -.32292 .32288 1.6105 -83.336 1.9768)" d="m314.69 309.6-92.788-29.19-55.863 79.63-21.115-94.952-96.893-8.564 71.673-65.762-41.03-88.194 92.788 29.19 55.863-79.63 21.115 94.952 96.893 8.564-71.673 65.762 41.03 88.194z" fill="#fcef3c" fill-rule="evenodd" stroke="#000" stroke-linecap="round" stroke-linejoin="round" stroke-width="1.8263"/>
<g>
<path d="m1.5 1.5v458.87c0 166.31 134.31 301.13 300 301.13 165.69 0 300-134.82 300-301.13v-458.87h-600z" fill="url(#a)"/>
<path d="m1.5 1.5v458.87c0 166.31 134.31 301.13 300 301.13 165.69 0 300-134.82 300-301.13v-458.87h-600z" fill="none" stroke="#000" stroke-width="3"/>
</g>
</svg>
