<?xml version="1.0" standalone="no"?>
<!DOCTYPE svg PUBLIC "-//W3C//DTD SVG 1.1//EN"
 "http://www.w3.org/Graphics/SVG/1.1/DTD/svg11.dtd">
<!-- Created with svg_stack (http://github.com/astraw/svg_stack) -->
<svg xmlns="http://www.w3.org/2000/svg" xmlns:sodipodi="http://sodipodi.sourceforge.net/DTD/sodipodi-0.dtd" version="1.1" width="215.0" height="250.0">
  <defs/>
  <g id="id0:id0" transform="matrix(1.25,0,0,1.25,0.0,0.0)"><g transform="translate(0.000000,200.000000) scale(0.040000,-0.040000)" fill="#fdfdfd" stroke="none">
<path d="M0 2500 l0 -2500 2150 0 2150 0 0 2500 0 2500 -2150 0 -2150 0 0 -2500z m4288 853 c1 -1087 -1 -1633 -8 -1633 -6 0 -10 -27 -10 -60 0 -33 -4 -60 -10 -60 -5 0 -10 -18 -10 -39 0 -24 -5 -41 -14 -44 -9 -3 -12 -15 -9 -31 3 -15 1 -26 -6 -26 -6 0 -11 -17 -11 -40 0 -22 -4 -40 -10 -40 -5 0 -10 -9 -10 -19 0 -10 -6 -21 -14 -24 -9 -3 -12 -15 -9 -31 3 -15 1 -26 -6 -26 -6 0 -11 -9 -11 -20 0 -11 -4 -20 -10 -20 -5 0 -10 -9 -10 -20 0 -11 -4 -20 -10 -20 -5 0 -10 -9 -10 -20 0 -11 -4 -20 -10 -20 -5 0 -10 -8 -10 -18 0 -9 -9 -23 -20 -30 -11 -7 -20 -21 -20 -32 0 -11 -4 -20 -10 -20 -5 0 -10 -8 -10 -18 0 -9 -9 -23 -20 -30 -11 -7 -20 -21 -20 -32 0 -11 -4 -20 -10 -20 -5 0 -10 -8 -10 -18 0 -9 -9 -23 -20 -30 -11 -7 -20 -19 -20 -26 0 -8 -27 -40 -60 -72 -33 -31 -60 -62 -60 -69 0 -15 -221 -235 -236 -235 -7 0 -24 -13 -37 -30 -14 -16 -32 -30 -40 -30 -9 0 -27 -13 -40 -30 -14 -16 -32 -30 -40 -30 -9 0 -27 -13 -40 -30 -14 -16 -33 -30 -41 -30 -9 0 -16 -4 -16 -10 0 -5 -9 -10 -20 -10 -11 0 -20 -4 -20 -10 0 -5 -9 -10 -20 -10 -11 0 -20 -4 -20 -10 0 -5 -9 -10 -20 -10 -11 0 -20 -4 -20 -10 0 -5 -9 -10 -20 -10 -11 0 -20 -4 -20 -10 0 -5 -9 -10 -20 -10 -11 0 -20 -4 -20 -10 0 -5 -9 -10 -20 -10 -11 0 -20 -4 -20 -10 0 -5 -9 -10 -20 -10 -11 0 -20 -4 -20 -10 0 -5 -9 -10 -20 -10 -11 0 -20 -4 -20 -10 0 -5 -13 -10 -30 -10 -16 0 -30 -4 -30 -10 0 -5 -18 -10 -40 -10 -22 0 -40 -4 -40 -10 0 -5 -13 -10 -30 -10 -16 0 -30 -4 -30 -10 0 -5 -18 -10 -40 -10 -22 0 -40 -4 -40 -10 0 -5 -13 -10 -30 -10 -16 0 -30 -4 -30 -10 0 -5 -18 -10 -40 -10 -22 0 -40 -4 -40 -10 0 -6 -30 -10 -70 -10 -40 0 -70 -4 -70 -10 0 -6 -103 -10 -290 -10 -187 0 -290 4 -290 10 0 6 -30 10 -70 10 -40 0 -70 4 -70 10 0 6 -18 10 -40 10 -22 0 -40 5 -40 10 0 6 -13 10 -30 10 -16 0 -30 5 -30 10 0 6 -18 10 -40 10 -22 0 -40 5 -40 10 0 6 -13 10 -30 10 -16 0 -30 5 -30 10 0 6 -18 10 -40 10 -22 0 -40 5 -40 10 0 6 -13 10 -30 10 -16 0 -30 5 -30 10 0 6 -9 10 -20 10 -11 0 -20 5 -20 10 0 6 -9 10 -20 10 -11 0 -20 5 -20 10 0 6 -9 10 -20 10 -11 0 -20 5 -20 10 0 6 -9 10 -20 10 -11 0 -20 5 -20 10 0 6 -9 10 -20 10 -11 0 -20 5 -20 10 0 6 -9 10 -20 10 -11 0 -20 5 -20 10 0 6 -9 10 -20 10 -11 0 -20 5 -20 10 0 6 -9 10 -20 10 -11 0 -20 5 -20 10 0 6 -7 10 -16 10 -8 0 -27 14 -41 30 -13 17 -31 30 -40 30 -8 0 -26 14 -40 30 -13 17 -31 30 -40 30 -8 0 -26 13 -40 30 -13 16 -30 30 -37 30 -15 0 -236 220 -236 235 0 7 -27 38 -60 69 -33 32 -60 64 -60 72 0 7 -9 19 -20 26 -11 7 -20 21 -20 30 0 10 -4 18 -10 18 -5 0 -10 9 -10 20 0 11 -9 25 -20 32 -11 7 -20 21 -20 30 0 10 -5 18 -11 18 -6 0 -9 7 -6 15 4 8 -4 22 -18 34 -14 10 -25 26 -25 35 0 9 -4 16 -10 16 -5 0 -10 9 -10 20 0 11 -4 20 -10 20 -5 0 -10 9 -10 20 0 11 -4 20 -10 20 -5 0 -10 9 -10 20 0 11 -5 20 -11 20 -7 0 -9 11 -6 26 3 16 0 28 -9 31 -8 3 -14 14 -14 24 0 10 -4 19 -10 19 -5 0 -10 18 -10 40 0 23 -5 40 -11 40 -7 0 -9 11 -6 26 3 16 0 28 -9 31 -9 3 -14 20 -14 44 0 21 -4 39 -10 39 -6 0 -10 27 -10 60 0 33 -4 60 -10 60 -11 0 -15 3252 -3 3263 3 4 965 6 2137 5 l2131 -3 3 -1632z"/>
<path d="M70 3305 c0 -1154 3 -1625 11 -1625 6 0 9 -15 7 -35 -1 -22 3 -39 11 -44 9 -6 12 -20 9 -41 -3 -21 0 -34 9 -37 8 -3 13 -21 13 -44 0 -22 5 -39 11 -39 7 0 9 -11 6 -26 -3 -16 0 -28 9 -31 8 -3 14 -14 14 -24 0 -10 5 -19 10 -19 6 0 10 -11 10 -24 0 -15 7 -26 20 -29 15 -4 20 -14 20 -36 0 -17 5 -31 11 -31 7 0 9 -11 6 -26 -3 -17 0 -28 10 -31 8 -3 12 -12 9 -19 -3 -7 6 -22 19 -33 14 -10 25 -26 25 -35 0 -9 5 -16 10 -16 6 0 10 -9 10 -20 0 -11 9 -25 20 -32 11 -7 20 -21 20 -30 0 -10 9 -23 20 -30 11 -7 20 -20 20 -29 0 -9 27 -42 60 -73 33 -32 60 -63 60 -70 0 -11 50 -66 61 -66 2 0 4 24 4 53 1 42 10 72 45 143 24 49 48 91 52 92 5 2 30 21 57 42 62 49 101 65 195 81 111 19 298 -4 396 -49 66 -29 153 -62 157 -58 2 2 8 32 13 67 16 113 58 289 71 304 5 5 9 21 9 36 0 15 4 31 10 34 5 3 10 14 10 24 0 30 58 169 107 254 7 12 13 41 13 63 0 71 11 102 51 141 21 21 39 43 39 49 0 6 9 19 20 29 11 10 20 23 20 29 0 6 11 20 25 30 27 20 35 66 11 66 -7 0 -28 10 -47 23 -32 22 -91 42 -189 65 -49 11 -58 9 -43 -10 21 -27 46 -236 39 -326 -8 -117 -27 -170 -86 -242 -100 -123 -131 -140 -255 -140 -100 0 -166 22 -202 66 -15 19 -40 49 -55 65 -47 52 -64 82 -78 141 -16 72 -8 249 14 303 25 59 22 62 -48 70 -36 3 -69 12 -75 19 -6 7 -30 18 -53 26 -83 24 -99 33 -113 61 -8 15 -15 34 -15 42 0 8 -12 36 -26 62 -24 41 -27 57 -26 135 1 49 5 97 11 107 5 10 17 44 27 75 9 31 25 69 35 85 10 15 24 36 31 47 27 40 61 67 91 73 18 3 40 13 51 22 14 12 39 16 111 15 l92 -1 6 72 c5 71 13 92 72 190 27 44 79 85 109 85 11 0 32 12 48 27 25 23 37 27 110 31 78 4 87 2 140 -27 32 -17 67 -31 78 -31 94 0 127 -136 105 -440 -6 -89 -12 -115 -38 -168 -18 -34 -40 -65 -49 -68 -32 -10 -19 -32 27 -45 25 -7 45 -18 45 -24 0 -24 28 -47 68 -56 43 -9 100 -42 115 -66 4 -7 13 -13 20 -13 7 0 33 -11 60 -25 l47 -25 0 675 c0 473 -3 675 -11 675 -13 0 -92 -54 -122 -84 -33 -33 -91 -48 -188 -49 -101 0 -140 13 -187 63 -18 19 -47 51 -66 70 -55 58 -86 144 -86 236 0 44 5 96 11 117 16 57 110 189 150 209 93 46 150 69 190 74 l45 6 -4 64 c-3 51 1 78 23 138 15 42 34 81 41 87 8 6 14 17 14 23 0 7 11 23 24 35 13 13 27 35 31 49 8 32 21 42 56 42 15 0 29 6 32 14 3 7 34 19 71 26 74 14 196 -1 217 -26 6 -8 18 -14 26 -14 13 0 73 -55 73 -67 0 -10 66 -83 75 -83 6 0 19 -26 29 -57 10 -32 22 -69 28 -82 5 -14 8 -53 7 -89 l-2 -63 61 -3 c36 -1 69 -8 79 -17 10 -8 29 -21 43 -27 87 -42 149 -89 150 -115 0 -5 13 -27 28 -50 16 -23 34 -61 40 -83 17 -58 15 -183 -3 -214 -8 -14 -22 -42 -32 -63 -12 -25 -43 -57 -91 -93 -40 -30 -77 -54 -82 -54 -5 0 -13 -7 -18 -16 -13 -23 -192 -26 -218 -3 -11 9 -34 19 -52 23 -19 3 -54 19 -78 36 -25 16 -49 30 -53 30 -19 0 -32 -1261 -13 -1268 5 -1 21 9 35 24 25 24 117 74 137 74 13 0 60 46 60 58 0 13 62 42 89 42 18 0 15 8 -27 66 -76 106 -72 88 -72 330 0 242 0 240 63 269 20 10 37 22 37 27 0 5 25 20 55 34 30 14 57 30 60 35 4 5 47 9 97 9 97 0 94 1 186 -76 20 -17 49 -34 64 -38 37 -9 93 -127 101 -215 3 -35 9 -67 14 -72 5 -5 24 -5 43 1 62 18 102 12 178 -27 39 -21 72 -43 72 -49 0 -6 13 -14 28 -17 19 -4 33 -17 45 -42 9 -19 17 -41 17 -48 0 -7 9 -29 20 -49 23 -43 50 -155 50 -206 0 -92 -71 -237 -144 -296 -35 -28 -44 -31 -137 -34 -54 -3 -99 -8 -99 -13 0 -4 7 -34 15 -66 10 -37 15 -104 15 -189 0 -112 -3 -139 -21 -180 -29 -68 -138 -171 -196 -186 -24 -6 -46 -14 -49 -19 -8 -14 -120 -10 -151 5 -15 8 -41 20 -57 27 -46 22 -133 116 -160 173 -39 81 -53 204 -37 326 6 55 19 116 27 135 20 49 19 79 -3 70 -10 -5 -38 -13 -62 -20 -29 -8 -47 -19 -52 -33 -6 -15 -20 -22 -56 -27 -81 -10 -90 -14 -127 -49 l-36 -34 57 -83 c32 -46 74 -99 94 -119 46 -45 69 -96 69 -154 0 -33 8 -59 29 -93 16 -27 37 -70 47 -98 10 -27 23 -59 29 -70 7 -11 18 -40 25 -65 7 -25 16 -54 21 -65 16 -36 63 -242 74 -322 4 -29 10 -53 13 -52 4 0 27 13 52 29 82 52 150 90 160 90 6 0 21 7 34 15 13 9 54 18 92 22 38 3 81 12 96 19 35 18 108 18 133 0 11 -7 44 -16 74 -18 35 -4 57 -11 63 -22 5 -9 15 -16 22 -16 22 0 76 -56 76 -78 0 -11 10 -29 23 -39 44 -35 81 -166 75 -267 -2 -42 -1 -76 2 -76 11 0 100 96 100 107 0 6 27 37 60 69 33 31 60 64 60 73 0 9 9 22 20 29 11 7 20 19 20 28 0 9 11 25 25 35 14 12 22 26 18 34 -3 8 0 15 6 15 6 0 11 7 11 16 0 9 11 25 25 35 14 12 22 26 18 34 -3 8 0 15 6 15 6 0 11 9 11 20 0 11 5 20 10 20 6 0 10 9 10 20 0 11 5 20 10 20 6 0 10 9 10 19 0 10 6 21 14 24 9 3 12 15 9 31 -3 15 -1 26 6 26 6 0 11 9 11 19 0 10 6 21 13 24 9 3 12 16 9 37 -3 23 0 35 11 41 9 6 13 17 10 30 -4 12 0 25 8 29 9 6 12 24 10 54 -1 28 2 46 8 46 6 0 11 14 11 30 0 17 5 30 10 30 7 0 10 548 10 1625 l0 1625 -2080 0 -2080 0 0 -1625z"/>
<path d="M1996 1840 c-25 -38 -50 -70 -56 -70 -5 0 -10 -10 -10 -23 0 -12 -11 -38 -24 -58 -24 -34 -51 -91 -76 -156 -7 -18 -16 -33 -20 -33 -5 0 -17 -26 -28 -57 -11 -32 -23 -67 -28 -78 -7 -19 -6 -19 12 -4 10 9 30 20 44 24 14 4 45 22 70 40 41 29 108 63 153 78 15 6 17 25 17 207 0 110 -2 200 -5 200 -2 0 -24 -31 -49 -70z"/>
<path d="M2262 1648 l3 -143 25 -3 c14 -2 34 -12 45 -21 11 -10 34 -23 52 -30 17 -7 39 -21 49 -32 18 -20 44 -26 44 -9 0 5 -13 34 -29 63 -16 30 -39 78 -52 108 -12 30 -30 63 -39 74 -9 11 -23 35 -30 53 -15 39 -47 82 -61 82 -6 0 -8 -57 -7 -142z"/>
</g>
</g>
  <g id="id1:id1" transform="matrix(1.25,0,0,1.25,0.0,0.0)"><g transform="translate(0.000000,200.000000) scale(0.040000,-0.040000)" fill="#cbcacc" stroke="none">
<path d="M15 4978 c-3 -7 -4 -744 -3 -1638 l3 -1625 3 1633 2 1632 2130 0 2130 0 3 -1632 2 -1633 0 1635 0 1635 -2133 3 c-1701 2 -2134 0 -2137 -10z"/>
<path d="M62 3313 l3 -1628 2 1623 3 1622 2080 0 2080 0 3 -1622 2 -1623 3 1628 2 1627 -2090 0 -2090 0 2 -1627z"/>
<path d="M2056 4807 c-27 -7 -51 -18 -54 -24 -2 -7 -16 -13 -30 -13 -35 0 -48 -9 -56 -40 -6 -24 -6 -24 9 3 11 19 24 27 44 27 16 0 34 7 41 14 11 14 70 29 145 39 23 3 21 4 -10 5 -22 0 -62 -5 -89 -11z"/>
<path d="M2224 4800 c22 -6 45 -15 52 -21 17 -14 76 -30 69 -18 -4 5 -13 9 -22 9 -9 0 -24 7 -32 15 -9 8 -37 16 -61 19 l-45 6 39 -10z"/>
<path d="M2396 4680 c27 -35 54 -65 61 -67 7 -3 20 -30 30 -61 9 -32 21 -61 25 -67 10 -11 10 -9 -18 78 -10 31 -23 57 -29 57 -11 0 -75 74 -75 87 0 4 -10 14 -21 22 -13 7 -2 -13 27 -49z"/>
<path d="M1882 4677 c-12 -13 -22 -28 -22 -34 0 -6 -6 -16 -14 -22 -7 -6 -26 -45 -41 -87 -22 -60 -27 -87 -23 -139 l4 -64 -31 -4 c-28 -3 -27 -4 7 -5 39 -2 57 13 39 31 -13 13 -15 100 -2 125 5 9 17 41 26 70 9 30 31 76 51 103 37 54 39 62 6 26z"/>
<path d="M2523 4405 c0 -38 2 -53 4 -32 2 20 2 52 0 70 -2 17 -4 1 -4 -38z"/>
<path d="M2558 4323 c12 -2 32 -2 45 0 12 2 2 4 -23 4 -25 0 -35 -2 -22 -4z"/>
<path d="M1660 4304 c-14 -7 -52 -26 -84 -41 -52 -24 -66 -38 -112 -105 -64 -94 -74 -128 -72 -238 l1 -85 7 100 c4 55 11 111 16 125 9 24 62 109 75 120 3 3 11 15 17 27 11 19 84 60 144 78 12 4 32 14 43 21 26 19 -1 17 -35 -2z"/>
<path d="M2650 4305 c7 -8 17 -15 22 -15 6 0 5 7 -2 15 -7 8 -17 15 -22 15 -6 0 -5 -7 2 -15z"/>
<path d="M2691 4287 c2 -2 18 -11 34 -21 l30 -17 -24 20 c-13 12 -28 21 -34 21 -6 0 -8 -1 -6 -3z"/>
<path d="M2781 4235 c14 -7 48 -47 76 -88 39 -56 55 -90 64 -138 7 -35 15 -56 17 -45 6 30 -19 108 -50 153 -15 23 -28 45 -28 50 -1 21 -73 83 -95 83 -5 -1 2 -7 16 -15z"/>
<path d="M2932 3885 c-1 -22 -8 -50 -15 -61 -6 -12 -22 -40 -35 -63 -12 -23 -42 -55 -65 -71 -23 -17 -51 -38 -62 -48 -39 -32 -90 -52 -151 -58 -53 -6 -68 -3 -97 15 -19 11 -44 21 -55 21 -12 0 -48 16 -81 35 -32 19 -66 35 -74 35 -17 0 -27 -291 -28 -895 -2 -429 -3 -424 57 -368 29 28 115 73 138 73 7 0 23 12 37 26 24 26 24 26 2 15 -13 -6 -23 -16 -23 -21 0 -6 -6 -10 -14 -10 -25 0 -115 -47 -143 -74 -14 -15 -30 -25 -35 -24 -19 7 -6 1268 13 1268 4 0 28 -14 53 -30 24 -17 59 -33 78 -36 18 -4 41 -14 52 -23 26 -23 205 -20 218 3 5 9 13 16 18 16 5 0 40 23 77 50 89 66 147 161 140 229 l-4 36 -1 -40z"/>
<path d="M1400 3828 c-1 -18 52 -114 79 -142 17 -17 45 -47 63 -66 38 -40 77 -60 116 -59 20 0 16 3 -19 13 -58 15 -165 120 -208 203 -17 32 -30 55 -31 51z"/>
<path d="M1985 3673 c-22 -14 -53 -38 -70 -53 -28 -26 -74 -44 -135 -54 -18 -2 -15 -4 10 -4 46 -2 105 19 130 46 25 27 105 82 119 82 8 0 12 -207 14 -677 l2 -678 3 683 c2 767 9 708 -73 655z"/>
<path d="M1713 3553 c9 -2 23 -2 30 0 6 3 -1 5 -18 5 -16 0 -22 -2 -12 -5z"/>
<path d="M2725 3371 c-3 -5 -30 -21 -60 -35 -30 -14 -55 -29 -55 -34 0 -5 -15 -17 -32 -26 -18 -8 -26 -16 -18 -16 9 0 32 13 52 30 33 27 100 63 153 81 17 6 16 7 -7 8 -15 1 -29 -3 -33 -8z"/>
<path d="M2925 3349 c33 -17 71 -44 87 -59 15 -16 38 -30 51 -32 38 -5 93 -124 101 -216 3 -42 10 -80 15 -85 6 -6 25 -3 51 7 22 9 51 16 65 16 34 0 171 -64 178 -84 4 -9 14 -16 24 -16 9 0 28 -12 40 -27 l23 -28 -12 28 c-8 18 -22 30 -40 34 -15 3 -28 11 -28 17 0 6 -33 28 -72 49 -76 39 -116 45 -178 27 -19 -6 -38 -6 -43 -1 -5 5 -11 37 -14 72 -8 88 -64 206 -101 215 -15 4 -44 21 -64 38 -72 60 -96 76 -118 76 -16 0 -5 -10 35 -31z"/>
<path d="M1365 3323 c-11 -3 -31 -15 -45 -28 -14 -13 -36 -25 -50 -28 -25 -4 -25 -4 2 -6 15 0 30 4 34 10 12 21 96 49 145 49 34 0 71 -10 116 -30 36 -16 76 -30 89 -30 14 0 33 -14 52 -37 41 -53 51 -152 39 -393 l-6 -115 11 110 c13 134 13 167 3 275 -10 115 -44 170 -105 170 -11 0 -46 14 -77 30 -47 25 -66 30 -122 29 -36 -1 -75 -3 -86 -6z"/>
<path d="M1208 3237 c-14 -12 -34 -35 -43 -52 -9 -16 -27 -48 -40 -70 -14 -22 -25 -47 -25 -55 0 -8 11 8 24 35 12 28 30 56 39 64 10 7 17 19 17 27 0 7 6 17 13 21 14 9 52 53 46 53 -2 0 -16 -10 -31 -23z"/>
<path d="M2520 3241 c-15 -29 -13 -450 3 -478 6 -12 33 -51 59 -87 42 -58 45 -66 27 -66 -25 0 -89 -29 -89 -40 0 -12 38 0 51 16 6 8 21 14 34 14 12 0 24 3 28 6 6 7 -70 123 -93 141 -12 9 -16 51 -18 242 -2 152 1 237 8 251 6 11 8 20 6 20 -3 0 -10 -9 -16 -19z"/>
<path d="M1092 2978 c-2 -56 -3 -58 -29 -58 l-28 0 25 -13 c34 -18 42 -3 37 71 l-3 57 -2 -57z"/>
<path d="M915 2923 c-11 -3 -27 -11 -35 -18 -8 -7 -26 -15 -40 -18 l-25 -4 25 -2 c14 0 36 6 49 16 13 9 52 19 85 23 61 7 61 7 11 7 -27 1 -59 -2 -70 -4z"/>
<path d="M773 2854 c-13 -14 -23 -28 -23 -33 0 -5 -7 -15 -17 -22 -18 -16 -57 -99 -66 -144 -8 -36 2 -16 29 60 10 27 40 75 67 107 47 57 54 80 10 32z"/>
<path d="M3565 2790 c3 -19 13 -42 22 -50 15 -13 15 -13 6 0 -6 8 -16 31 -22 50 l-11 35 5 -35z"/>
<path d="M3601 2710 c0 -8 4 -24 9 -35 5 -13 9 -14 9 -5 0 8 -4 24 -9 35 -5 13 -9 14 -9 5z"/>
<path d="M1704 2659 c-16 -28 -37 -55 -46 -60 -29 -16 -21 -38 19 -54 21 -9 52 -31 69 -50 23 -25 40 -35 60 -34 28 1 28 1 -6 9 -33 8 -60 32 -60 55 0 6 -20 17 -45 24 -46 13 -59 35 -27 45 15 5 76 105 69 113 -2 1 -16 -20 -33 -48z"/>
<path d="M3623 2545 c0 -59 3 -90 8 -75 9 32 9 118 0 150 -5 15 -8 -17 -8 -75z"/>
<path d="M647 2603 c-4 -3 -7 -20 -6 -37 l1 -31 8 35 c9 36 8 45 -3 33z"/>
<path d="M631 2484 c0 -11 3 -14 6 -6 3 7 2 16 -1 19 -3 4 -6 -2 -5 -13z"/>
<path d="M640 2434 c0 -16 5 -36 11 -44 7 -11 8 -4 3 25 -8 50 -14 58 -14 19z"/>
<path d="M1855 2440 c10 -11 23 -20 30 -20 7 0 20 -9 30 -20 10 -11 25 -20 34 -19 14 0 14 1 1 6 -8 3 -20 10 -25 17 -14 15 -73 56 -81 56 -4 0 1 -9 11 -20z"/>
<path d="M3611 2430 c-1 -9 -12 -32 -26 -52 -14 -20 -25 -41 -25 -45 0 -4 14 13 31 39 17 26 29 53 26 60 -4 9 -6 9 -6 -2z"/>
<path d="M1995 2360 c17 -11 35 -20 40 -20 6 0 -5 9 -23 20 -42 26 -56 26 -17 0z"/>
<path d="M674 2348 c9 -15 16 -34 16 -43 0 -24 27 -72 45 -79 11 -4 7 5 -10 28 -14 18 -25 41 -25 52 0 10 -10 30 -21 44 l-21 25 16 -27z"/>
<path d="M2615 2300 c-22 -11 -46 -20 -55 -20 -8 0 -27 -13 -42 -30 -18 -21 -22 -30 -12 -30 8 0 18 10 23 22 5 14 22 25 52 33 24 7 52 15 62 20 22 9 23 -21 3 -70 -8 -19 -21 -80 -27 -135 -16 -122 -2 -245 37 -326 34 -72 148 -185 186 -184 7 1 0 8 -17 17 -53 29 -134 115 -159 168 -38 84 -52 205 -36 328 7 56 18 113 25 127 17 33 23 92 10 97 -6 2 -28 -6 -50 -17z"/>
<path d="M3525 2288 c-16 -17 -43 -39 -60 -50 -16 -10 -23 -18 -15 -18 19 0 86 54 100 81 15 26 10 24 -25 -13z"/>
<path d="M1605 2228 c41 -133 52 -360 22 -459 -24 -78 -133 -210 -190 -231 -15 -6 -26 -12 -24 -15 11 -11 75 28 104 63 64 77 74 89 88 110 51 75 66 229 40 396 -10 62 -22 119 -28 126 -15 19 -3 24 27 12 15 -5 37 -10 49 -9 12 0 0 7 -28 15 -66 18 -69 18 -60 -8z"/>
<path d="M785 2210 c45 -11 82 -28 89 -39 3 -5 35 -13 71 -16 71 -8 74 -12 50 -68 -8 -20 -15 -47 -14 -59 1 -19 2 -17 8 7 4 17 13 40 19 52 7 12 12 33 12 46 0 22 -5 25 -52 30 -29 3 -69 13 -88 23 -64 32 -70 34 -97 33 l-28 -1 30 -8z"/>
<path d="M1765 2202 c28 -10 66 -27 85 -40 19 -12 41 -22 48 -22 22 0 13 -46 -13 -66 -14 -10 -25 -24 -25 -30 0 -6 -9 -19 -20 -29 -11 -10 -20 -23 -20 -29 0 -6 -18 -29 -40 -50 -22 -22 -40 -47 -40 -55 0 -9 9 -1 20 17 11 18 26 35 34 38 8 3 30 31 49 62 20 32 45 66 56 76 30 28 27 64 -6 78 -16 7 -35 17 -43 24 -18 15 -99 44 -120 43 -8 0 8 -8 35 -17z"/>
<path d="M2379 2207 c-14 -7 -39 -27 -54 -45 l-28 -33 24 -22 23 -22 -18 22 c-19 23 -19 23 18 58 37 34 52 41 111 48 23 3 21 4 -10 5 -22 0 -52 -5 -66 -11z"/>
<path d="M3250 2203 c0 -10 7 -38 15 -63 15 -44 15 -29 0 37 l-7 32 88 4 89 3 -92 2 c-83 2 -93 0 -93 -15z"/>
<path d="M3284 1945 c0 -82 2 -115 3 -72 2 43 2 110 0 150 -1 40 -3 5 -3 -78z"/>
<path d="M2357 2051 c54 -84 75 -112 98 -127 35 -23 65 -93 65 -150 0 -35 8 -59 29 -93 16 -25 37 -68 46 -95 9 -27 22 -61 30 -75 19 -36 75 -222 75 -248 0 -12 5 -25 10 -28 6 -3 10 -18 10 -33 0 -15 5 -34 10 -42 11 -17 4 37 -10 80 -5 14 -14 50 -21 80 -7 30 -15 62 -20 70 -4 8 -13 35 -20 60 -7 25 -17 54 -24 65 -6 11 -19 43 -29 70 -10 28 -31 71 -47 98 -21 34 -29 60 -29 93 0 53 -32 129 -61 147 -12 6 -43 45 -70 85 -27 39 -52 72 -55 72 -3 0 2 -13 13 -29z"/>
<path d="M974 1895 c0 -55 1 -76 3 -47 2 29 2 74 0 100 -2 26 -3 2 -3 -53z"/>
<path d="M2028 1903 c-9 -10 -27 -37 -41 -60 -15 -23 -36 -51 -48 -61 -13 -13 -19 -28 -16 -44 4 -21 4 -21 6 5 0 15 6 27 11 27 6 0 31 32 56 70 25 39 47 70 49 70 3 0 5 -90 5 -200 0 -182 -2 -201 -17 -207 -45 -15 -112 -49 -153 -78 -25 -18 -56 -36 -70 -40 -14 -4 -34 -15 -44 -24 -18 -15 -19 -15 -12 4 5 11 17 46 28 78 11 31 23 57 28 57 4 0 13 15 20 33 23 61 52 122 72 152 17 26 16 25 -11 -5 -16 -19 -40 -62 -53 -95 -12 -33 -28 -64 -34 -70 -15 -12 -68 -165 -60 -173 3 -3 14 2 23 10 10 9 35 21 56 28 21 6 51 23 66 36 16 13 60 37 98 52 l68 27 3 213 c1 116 -1 212 -6 212 -5 0 -16 -8 -24 -17z"/>
<path d="M1730 1808 c0 -29 -6 -63 -13 -75 -49 -85 -107 -224 -107 -254 0 -10 -4 -21 -10 -24 -5 -3 -10 -19 -10 -34 0 -15 -4 -31 -9 -37 -14 -15 -66 -242 -57 -251 2 -3 8 12 11 33 3 22 10 49 16 62 5 13 9 32 9 43 0 11 8 45 18 77 11 31 25 77 32 102 7 25 18 59 25 75 7 17 20 51 29 78 9 26 28 66 43 88 21 31 28 57 31 105 3 35 2 64 -2 64 -3 0 -6 -24 -6 -52z"/>
<path d="M2252 1655 l3 -156 70 -32 c39 -18 84 -42 100 -53 37 -27 75 -39 75 -25 0 19 -33 96 -55 126 -12 17 -30 50 -40 75 -22 51 -56 102 -63 95 -3 -3 4 -15 15 -28 11 -12 30 -46 42 -76 13 -30 36 -78 52 -108 16 -29 29 -58 29 -63 0 -17 -26 -11 -44 9 -10 11 -32 25 -49 32 -18 7 -41 20 -52 30 -11 9 -31 19 -45 21 l-25 3 -3 143 c-1 78 1 142 6 142 12 0 35 -28 56 -65 15 -26 16 -27 10 -5 -6 25 -61 90 -76 90 -5 0 -7 -70 -6 -155z"/>
<path d="M987 1758 c6 -35 27 -69 71 -117 15 -16 38 -44 51 -61 25 -33 83 -64 104 -57 7 2 -2 7 -18 11 -52 11 -177 151 -195 216 -13 48 -22 53 -13 8z"/>
<path d="M3252 1752 c-9 -21 -46 -65 -82 -98 -60 -55 -71 -61 -146 -78 -66 -15 -88 -17 -114 -7 -45 15 -58 14 -34 -4 21 -16 139 -21 148 -6 3 5 25 13 49 19 54 14 168 118 191 175 20 49 10 48 -12 -1z"/>
<path d="M33 1655 c0 -33 2 -45 4 -27 2 18 2 45 0 60 -2 15 -4 0 -4 -33z"/>
<path d="M4263 1655 c0 -33 2 -45 4 -27 2 18 2 45 0 60 -2 15 -4 0 -4 -33z"/>
<path d="M82 1650 c0 -19 2 -27 5 -17 2 9 2 25 0 35 -3 9 -5 1 -5 -18z"/>
<path d="M4212 1655 c0 -16 2 -22 5 -12 2 9 2 23 0 30 -3 6 -5 -1 -5 -18z"/>
<path d="M4193 1580 c0 -25 2 -35 4 -22 2 12 2 32 0 45 -2 12 -4 2 -4 -23z"/>
<path d="M102 1570 c0 -19 2 -27 5 -17 2 9 2 25 0 35 -3 9 -5 1 -5 -18z"/>
<path d="M53 1555 c0 -22 2 -30 4 -17 2 12 2 30 0 40 -3 9 -5 -1 -4 -23z"/>
<path d="M4243 1555 c0 -22 2 -30 4 -17 2 12 2 30 0 40 -3 9 -5 -1 -4 -23z"/>
<path d="M123 1485 c0 -22 2 -30 4 -17 2 12 2 30 0 40 -3 9 -5 -1 -4 -23z"/>
<path d="M1273 1513 c26 -2 67 -2 90 0 23 2 2 3 -48 3 -49 0 -68 -1 -42 -3z"/>
<path d="M4172 1500 c0 -14 2 -19 5 -12 2 6 2 18 0 25 -3 6 -5 1 -5 -13z"/>
<path d="M72 1480 c0 -14 2 -19 5 -12 2 6 2 18 0 25 -3 6 -5 1 -5 -13z"/>
<path d="M4222 1480 c0 -14 2 -19 5 -12 2 6 2 18 0 25 -3 6 -5 1 -5 -13z"/>
<path d="M4152 1430 c0 -19 2 -27 5 -17 2 9 2 25 0 35 -3 9 -5 1 -5 -18z"/>
<path d="M93 1415 c0 -22 2 -30 4 -17 2 12 2 30 0 40 -3 9 -5 -1 -4 -23z"/>
<path d="M4203 1415 c0 -22 2 -30 4 -17 2 12 2 30 0 40 -3 9 -5 -1 -4 -23z"/>
<path d="M142 1420 c0 -14 2 -19 5 -12 2 6 2 18 0 25 -3 6 -5 1 -5 -13z"/>
<path d="M161 1364 c0 -11 3 -14 6 -6 3 7 2 16 -1 19 -3 4 -6 -2 -5 -13z"/>
<path d="M4131 1364 c0 -11 3 -14 6 -6 3 7 2 16 -1 19 -3 4 -6 -2 -5 -13z"/>
<path d="M111 1354 c0 -11 3 -14 6 -6 3 7 2 16 -1 19 -3 4 -6 -2 -5 -13z"/>
<path d="M4181 1354 c0 -11 3 -14 6 -6 3 7 2 16 -1 19 -3 4 -6 -2 -5 -13z"/>
<path d="M181 1317 c-1 -21 4 -30 18 -34 12 -3 22 -16 24 -32 l4 -26 2 28 c1 21 -4 30 -18 34 -12 3 -22 16 -24 32 l-4 26 -2 -28z"/>
<path d="M4112 1320 c0 -14 2 -19 5 -12 2 6 2 18 0 25 -3 6 -5 1 -5 -13z"/>
<path d="M132 1300 c0 -14 2 -19 5 -12 2 6 2 18 0 25 -3 6 -5 1 -5 -13z"/>
<path d="M4162 1300 c0 -14 2 -19 5 -12 2 6 2 18 0 25 -3 6 -5 1 -5 -13z"/>
<path d="M4091 1264 c0 -11 3 -14 6 -6 3 7 2 16 -1 19 -3 4 -6 -2 -5 -13z"/>
<path d="M151 1254 c0 -11 3 -14 6 -6 3 7 2 16 -1 19 -3 4 -6 -2 -5 -13z"/>
<path d="M4141 1254 c0 -11 3 -14 6 -6 3 7 2 16 -1 19 -3 4 -6 -2 -5 -13z"/>
<path d="M4071 1224 c0 -11 3 -14 6 -6 3 7 2 16 -1 19 -3 4 -6 -2 -5 -13z"/>
<path d="M171 1214 c0 -11 3 -14 6 -6 3 7 2 16 -1 19 -3 4 -6 -2 -5 -13z"/>
<path d="M4121 1214 c0 -11 3 -14 6 -6 3 7 2 16 -1 19 -3 4 -6 -2 -5 -13z"/>
<path d="M242 1200 c0 -14 2 -19 5 -12 2 6 2 18 0 25 -3 6 -5 1 -5 -13z"/>
<path d="M3205 1187 c-11 -6 -45 -15 -75 -19 -38 -4 -32 -5 20 -1 156 11 285 -1 314 -30 10 -9 22 -17 28 -17 5 0 24 -9 41 -21 l32 -21 -30 26 c-16 14 -35 26 -42 26 -7 0 -16 7 -21 16 -6 11 -28 18 -63 22 -30 2 -63 11 -74 18 -24 17 -103 18 -130 1z"/>
<path d="M4051 1184 c0 -11 3 -14 6 -6 3 7 2 16 -1 19 -3 4 -6 -2 -5 -13z"/>
<path d="M191 1174 c0 -11 3 -14 6 -6 3 7 2 16 -1 19 -3 4 -6 -2 -5 -13z"/>
<path d="M4101 1174 c0 -11 3 -14 6 -6 3 7 2 16 -1 19 -3 4 -6 -2 -5 -13z"/>
<path d="M3015 1146 c-11 -7 -29 -16 -40 -19 l-20 -5 20 -1 c11 0 38 8 60 18 28 14 34 20 20 20 -11 1 -29 -5 -40 -13z"/>
<path d="M211 1134 c0 -11 3 -14 6 -6 3 7 2 16 -1 19 -3 4 -6 -2 -5 -13z"/>
<path d="M4081 1134 c0 -11 3 -14 6 -6 3 7 2 16 -1 19 -3 4 -6 -2 -5 -13z"/>
<path d="M993 1123 c20 -2 54 -2 75 0 20 2 3 4 -38 4 -41 0 -58 -2 -37 -4z"/>
<path d="M2746 1075 c2 -33 9 -64 14 -69 5 -5 24 1 47 14 63 38 143 91 143 95 0 4 -47 -23 -134 -76 -27 -16 -50 -29 -51 -27 -2 2 -8 30 -14 63 l-10 60 5 -60z"/>
<path d="M895 1113 c-49 -11 -99 -36 -146 -73 -28 -22 -54 -40 -59 -40 -4 0 -10 -8 -14 -17 -3 -10 -9 -25 -12 -33 -3 -8 3 -2 14 14 11 16 40 42 64 58 23 16 50 35 58 43 8 8 47 23 85 34 61 17 68 27 10 14z"/>
<path d="M1155 1109 c121 -23 160 -33 166 -42 4 -5 44 -22 90 -38 78 -27 85 -28 97 -12 6 9 11 37 11 62 l-1 46 -8 -53 c-4 -29 -10 -55 -12 -58 -4 -4 -90 28 -158 58 -55 25 -100 36 -170 42 -64 5 -64 5 -15 -5z"/>
<path d="M301 1084 c0 -11 3 -14 6 -6 3 7 2 16 -1 19 -3 4 -6 -2 -5 -13z"/>
<path d="M3991 1084 c0 -11 3 -14 6 -6 3 7 2 16 -1 19 -3 4 -6 -2 -5 -13z"/>
<path d="M4041 1074 c0 -11 3 -14 6 -6 3 7 2 16 -1 19 -3 4 -6 -2 -5 -13z"/>
<path d="M3561 1054 c0 -11 9 -29 22 -40 22 -19 22 -19 6 1 -10 11 -19 29 -22 40 -4 19 -5 19 -6 -1z"/>
<path d="M321 1044 c0 -11 3 -14 6 -6 3 7 2 16 -1 19 -3 4 -6 -2 -5 -13z"/>
<path d="M271 1034 c0 -11 3 -14 6 -6 3 7 2 16 -1 19 -3 4 -6 -2 -5 -13z"/>
<path d="M4021 1034 c0 -11 3 -14 6 -6 3 7 2 16 -1 19 -3 4 -6 -2 -5 -13z"/>
<path d="M361 984 c0 -11 3 -14 6 -6 3 7 2 16 -1 19 -3 4 -6 -2 -5 -13z"/>
<path d="M3931 984 c0 -11 3 -14 6 -6 3 7 2 16 -1 19 -3 4 -6 -2 -5 -13z"/>
<path d="M311 974 c0 -11 3 -14 6 -6 3 7 2 16 -1 19 -3 4 -6 -2 -5 -13z"/>
<path d="M3981 974 c0 -11 3 -14 6 -6 3 7 2 16 -1 19 -3 4 -6 -2 -5 -13z"/>
<path d="M3620 960 c0 -8 5 -22 10 -30 9 -13 10 -13 10 0 0 8 -5 22 -10 30 -9 13 -10 13 -10 0z"/>
<path d="M331 934 c0 -11 3 -14 6 -6 3 7 2 16 -1 19 -3 4 -6 -2 -5 -13z"/>
<path d="M3961 934 c0 -11 3 -14 6 -6 3 7 2 16 -1 19 -3 4 -6 -2 -5 -13z"/>
<path d="M401 924 c0 -11 3 -14 6 -6 3 7 2 16 -1 19 -3 4 -6 -2 -5 -13z"/>
<path d="M3891 924 c0 -11 3 -14 6 -6 3 7 2 16 -1 19 -3 4 -6 -2 -5 -13z"/>
<path d="M624 874 c-14 -30 -23 -61 -21 -67 3 -7 8 2 12 18 4 17 11 35 14 40 12 18 31 65 26 65 -3 0 -17 -25 -31 -56z"/>
<path d="M3646 885 c3 -16 10 -68 13 -115 l8 -85 1 75 c1 47 -4 90 -14 115 -10 28 -13 31 -8 10z"/>
<path d="M371 874 c0 -11 3 -14 6 -6 3 7 2 16 -1 19 -3 4 -6 -2 -5 -13z"/>
<path d="M3921 874 c0 -11 3 -14 6 -6 3 7 2 16 -1 19 -3 4 -6 -2 -5 -13z"/>
<path d="M521 784 c0 -11 3 -14 6 -6 3 7 2 16 -1 19 -3 4 -6 -2 -5 -13z"/>
<path d="M3771 784 c0 -11 3 -14 6 -6 3 7 2 16 -1 19 -3 4 -6 -2 -5 -13z"/>
<path d="M592 760 c0 -19 2 -27 5 -17 2 9 2 25 0 35 -3 9 -5 1 -5 -18z"/>
<path d="M491 734 c0 -11 3 -14 6 -6 3 7 2 16 -1 19 -3 4 -6 -2 -5 -13z"/>
<path d="M3801 734 c0 -11 3 -14 6 -6 3 7 2 16 -1 19 -3 4 -6 -2 -5 -13z"/>
<path d="M708 513 c7 -3 16 -2 19 1 4 3 -2 6 -13 5 -11 0 -14 -3 -6 -6z"/>
<path d="M3578 513 c7 -3 16 -2 19 1 4 3 -2 6 -13 5 -11 0 -14 -3 -6 -6z"/>
<path d="M788 453 c7 -3 16 -2 19 1 4 3 -2 6 -13 5 -11 0 -14 -3 -6 -6z"/>
<path d="M3498 453 c7 -3 16 -2 19 1 4 3 -2 6 -13 5 -11 0 -14 -3 -6 -6z"/>
<path d="M868 393 c7 -3 16 -2 19 1 4 3 -2 6 -13 5 -11 0 -14 -3 -6 -6z"/>
<path d="M3418 393 c7 -3 16 -2 19 1 4 3 -2 6 -13 5 -11 0 -14 -3 -6 -6z"/>
<path d="M948 333 c7 -3 16 -2 19 1 4 3 -2 6 -13 5 -11 0 -14 -3 -6 -6z"/>
<path d="M3338 333 c7 -3 16 -2 19 1 4 3 -2 6 -13 5 -11 0 -14 -3 -6 -6z"/>
<path d="M988 313 c7 -3 16 -2 19 1 4 3 -2 6 -13 5 -11 0 -14 -3 -6 -6z"/>
<path d="M3298 313 c7 -3 16 -2 19 1 4 3 -2 6 -13 5 -11 0 -14 -3 -6 -6z"/>
<path d="M1028 293 c7 -3 16 -2 19 1 4 3 -2 6 -13 5 -11 0 -14 -3 -6 -6z"/>
<path d="M3258 293 c7 -3 16 -2 19 1 4 3 -2 6 -13 5 -11 0 -14 -3 -6 -6z"/>
<path d="M1068 273 c7 -3 16 -2 19 1 4 3 -2 6 -13 5 -11 0 -14 -3 -6 -6z"/>
<path d="M3218 273 c7 -3 16 -2 19 1 4 3 -2 6 -13 5 -11 0 -14 -3 -6 -6z"/>
<path d="M1108 253 c7 -3 16 -2 19 1 4 3 -2 6 -13 5 -11 0 -14 -3 -6 -6z"/>
<path d="M3178 253 c7 -3 16 -2 19 1 4 3 -2 6 -13 5 -11 0 -14 -3 -6 -6z"/>
<path d="M1148 233 c7 -3 16 -2 19 1 4 3 -2 6 -13 5 -11 0 -14 -3 -6 -6z"/>
<path d="M3138 233 c7 -3 16 -2 19 1 4 3 -2 6 -13 5 -11 0 -14 -3 -6 -6z"/>
<path d="M1188 213 c7 -3 16 -2 19 1 4 3 -2 6 -13 5 -11 0 -14 -3 -6 -6z"/>
<path d="M3098 213 c7 -3 16 -2 19 1 4 3 -2 6 -13 5 -11 0 -14 -3 -6 -6z"/>
<path d="M1228 193 c7 -3 16 -2 19 1 4 3 -2 6 -13 5 -11 0 -14 -3 -6 -6z"/>
<path d="M3058 193 c7 -3 16 -2 19 1 4 3 -2 6 -13 5 -11 0 -14 -3 -6 -6z"/>
<path d="M1268 173 c7 -3 16 -2 19 1 4 3 -2 6 -13 5 -11 0 -14 -3 -6 -6z"/>
<path d="M3018 173 c7 -3 16 -2 19 1 4 3 -2 6 -13 5 -11 0 -14 -3 -6 -6z"/>
<path d="M1313 153 c9 -2 23 -2 30 0 6 3 -1 5 -18 5 -16 0 -22 -2 -12 -5z"/>
<path d="M2963 153 c9 -2 23 -2 30 0 6 3 -1 5 -18 5 -16 0 -22 -2 -12 -5z"/>
<path d="M1378 133 c12 -2 30 -2 40 0 9 3 -1 5 -23 4 -22 0 -30 -2 -17 -4z"/>
<path d="M2888 133 c12 -2 30 -2 40 0 9 3 -1 5 -23 4 -22 0 -30 -2 -17 -4z"/>
<path d="M1453 113 c9 -2 23 -2 30 0 6 3 -1 5 -18 5 -16 0 -22 -2 -12 -5z"/>
<path d="M2823 113 c9 -2 23 -2 30 0 6 3 -1 5 -18 5 -16 0 -22 -2 -12 -5z"/>
<path d="M1518 93 c12 -2 30 -2 40 0 9 3 -1 5 -23 4 -22 0 -30 -2 -17 -4z"/>
<path d="M2748 93 c12 -2 30 -2 40 0 9 3 -1 5 -23 4 -22 0 -30 -2 -17 -4z"/>
<path d="M1593 73 c9 -2 23 -2 30 0 6 3 -1 5 -18 5 -16 0 -22 -2 -12 -5z"/>
<path d="M2683 73 c9 -2 23 -2 30 0 6 3 -1 5 -18 5 -16 0 -22 -2 -12 -5z"/>
<path d="M1658 53 c12 -2 30 -2 40 0 9 3 -1 5 -23 4 -22 0 -30 -2 -17 -4z"/>
<path d="M2608 53 c12 -2 30 -2 40 0 9 3 -1 5 -23 4 -22 0 -30 -2 -17 -4z"/>
<path d="M1747 33 c18 -2 50 -2 70 0 21 2 7 4 -32 4 -38 0 -55 -2 -38 -4z"/>
<path d="M2477 33 c18 -2 50 -2 70 0 21 2 7 4 -32 4 -38 0 -55 -2 -38 -4z"/>
<path d="M2002 13 c82 -2 214 -2 295 0 82 1 15 3 -147 3 -162 0 -229 -2 -148 -3z"/>
</g>
</g>
  <g id="id2:id2" transform="matrix(1.25,0,0,1.25,0.0,0.0)"><g transform="translate(0.000000,200.000000) scale(0.040000,-0.040000)" fill="#188628" stroke="none">
<path d="M2020 4760 c-30 -4 -49 -7 -41 -8 8 -1 0 -15 -22 -34 -19 -18 -37 -43 -41 -54 -4 -12 -15 -32 -26 -44 -10 -12 -31 -60 -46 -107 -25 -80 -27 -90 -15 -145 6 -32 9 -63 6 -68 -3 -6 -21 -10 -40 -10 -32 0 -174 -40 -223 -63 -12 -6 -36 -31 -52 -56 -16 -25 -39 -57 -50 -71 -56 -71 -61 -227 -9 -313 16 -26 29 -51 29 -56 0 -8 47 -51 102 -94 13 -10 47 -25 76 -33 48 -14 59 -14 120 1 42 10 88 31 124 56 31 21 62 39 70 39 8 0 29 13 48 30 19 16 41 29 47 30 10 0 13 -154 13 -719 0 -395 3 -726 6 -735 8 -21 13 -20 36 9 11 14 24 25 29 25 5 0 25 10 44 23 l35 22 0 265 c0 373 12 790 22 784 4 -3 8 4 8 16 0 12 -4 18 -10 15 -7 -4 -10 37 -9 125 1 144 5 154 56 127 26 -14 60 -29 108 -48 11 -4 37 -10 58 -14 24 -4 37 -11 37 -22 0 -13 12 -15 81 -11 44 3 84 9 87 15 4 6 18 14 31 18 14 4 29 12 35 17 6 5 25 17 41 27 46 27 103 117 115 181 15 82 -12 179 -72 256 -25 33 -56 68 -69 79 -29 24 -103 53 -179 70 -32 7 -54 17 -52 23 1 7 -4 12 -12 12 -9 0 -15 21 -20 73 -7 85 -58 196 -118 261 -21 23 -38 46 -38 53 0 7 -10 17 -21 24 -15 8 -18 13 -10 19 27 16 -179 23 -289 10z"/>
<path d="M2720 3317 c-25 -12 -56 -30 -70 -40 -13 -9 -37 -17 -52 -17 -16 0 -27 -3 -26 -7 0 -5 -8 -28 -19 -52 -16 -33 -22 -39 -25 -25 -3 11 -5 -61 -5 -158 0 -98 4 -178 9 -178 4 0 8 -5 8 -11 0 -16 32 -82 46 -94 6 -5 31 -37 54 -69 l43 -59 -24 -18 c-13 -10 -28 -19 -34 -19 -5 0 -28 -9 -50 -20 -22 -10 -43 -16 -47 -14 -5 3 -8 -6 -8 -20 0 -20 -8 -29 -36 -41 -20 -8 -42 -15 -50 -15 -7 0 -34 -15 -60 -32 -25 -18 -51 -36 -58 -39 -97 -51 -130 -70 -153 -92 -23 -21 -31 -57 -13 -57 6 0 10 -4 10 -10 0 -23 -38 -7 -80 35 -25 25 -69 56 -97 70 -29 14 -53 29 -53 35 0 5 -6 10 -14 10 -8 0 -44 14 -81 31 -47 22 -63 34 -53 40 9 6 7 9 -10 9 -12 0 -25 7 -28 15 -4 8 -10 13 -14 10 -6 -4 -40 11 -117 53 -29 16 -27 43 5 57 12 5 22 15 22 22 0 7 3 13 8 13 4 0 22 29 41 65 19 35 37 62 42 60 4 -3 7 85 7 196 1 111 -2 198 -5 195 -3 -3 -22 17 -41 44 -19 28 -39 50 -44 50 -5 0 -7 4 -4 9 7 11 -87 22 -194 23 -82 1 -180 -11 -177 -21 1 -3 -10 -20 -25 -36 -16 -16 -28 -33 -28 -38 0 -4 -15 -23 -34 -42 -37 -37 -65 -115 -67 -182 0 -30 -2 -34 -9 -18 -7 16 -9 13 -9 -17 l-1 -37 -88 3 c-102 3 -186 -4 -159 -13 16 -6 13 -11 -19 -31 -21 -14 -57 -49 -81 -78 -24 -29 -44 -49 -45 -45 0 4 -4 -19 -9 -52 -4 -33 -13 -86 -19 -118 -10 -49 -10 -69 4 -125 9 -37 16 -75 16 -85 0 -10 5 -15 10 -12 6 3 14 -4 19 -17 11 -29 48 -68 64 -68 7 0 6 -4 -3 -10 -11 -7 -6 -10 20 -11 19 -1 48 0 63 1 15 1 35 -4 43 -11 9 -7 43 -13 79 -13 35 -1 66 -4 70 -8 4 -4 -4 -37 -18 -75 -29 -75 -47 -165 -47 -228 0 -64 37 -168 70 -200 17 -16 30 -33 30 -37 0 -23 77 -78 109 -78 11 0 21 -5 23 -11 2 -6 31 -13 65 -16 54 -5 68 -2 126 26 36 18 72 42 80 55 9 13 29 38 45 55 64 70 87 236 57 411 -10 58 -19 113 -19 122 0 9 -5 16 -11 15 -5 -1 -11 17 -13 41 -3 46 8 53 43 28 11 -7 37 -16 59 -20 21 -4 49 -18 63 -32 19 -19 36 -25 71 -26 47 0 98 -20 117 -44 13 -17 70 -58 116 -83 44 -24 220 -200 272 -270 20 -29 37 -64 37 -78 0 -15 3 -23 6 -20 7 7 74 -76 74 -90 0 -5 16 -36 36 -69 45 -75 61 -124 63 -197 1 -61 17 -103 47 -128 9 -8 23 -27 31 -44 8 -16 25 -50 38 -75 13 -25 24 -55 24 -66 1 -12 8 -39 17 -59 l16 -38 23 29 c26 32 30 44 15 44 -5 0 -10 12 -10 28 -1 27 -64 271 -96 367 -18 56 -68 184 -90 230 -8 17 -15 56 -16 88 -1 31 -5 52 -8 46 -4 -6 -14 7 -24 30 -8 23 -20 41 -26 41 -5 0 -10 6 -10 13 0 8 -12 24 -26 38 -30 28 -84 105 -84 121 0 5 -36 47 -80 91 -44 45 -80 85 -80 89 0 17 40 7 57 -15 30 -38 39 -38 73 -7 18 17 38 30 44 29 33 -4 76 2 71 10 -3 6 10 13 30 17 19 3 35 10 35 14 0 4 9 10 21 13 12 3 18 10 14 17 -4 6 8 16 28 25 43 18 149 36 159 27 7 -8 -14 -99 -31 -129 -5 -11 -15 -67 -22 -126 -16 -133 -2 -241 41 -326 34 -66 55 -86 132 -129 82 -45 162 -45 258 1 38 17 69 37 70 44 0 7 9 17 19 23 33 17 81 130 81 189 0 32 4 50 10 46 6 -3 10 1 10 10 0 9 -4 13 -10 10 -6 -4 -10 14 -10 47 0 29 -11 89 -25 132 -14 43 -25 80 -25 82 0 2 36 4 81 4 51 0 78 4 74 10 -3 6 5 10 18 10 15 0 54 22 96 56 39 30 71 52 72 47 1 -14 30 90 42 149 9 48 8 70 -7 135 -10 43 -22 98 -26 123 -4 25 -8 39 -9 31 0 -7 -16 9 -34 35 -21 31 -29 52 -22 56 5 4 -7 8 -27 8 -20 0 -43 6 -51 14 -32 32 -177 70 -177 46 0 -4 -11 -11 -24 -14 -13 -3 -31 -9 -40 -12 -14 -5 -16 5 -16 77 0 58 -3 79 -10 69 -8 -13 -10 -12 -10 3 0 27 -70 165 -87 171 -8 3 -11 10 -8 16 4 6 -6 10 -23 10 -19 0 -41 11 -61 29 -60 56 -161 68 -241 28z"/>
<path d="M1938 2092 c-10 -2 -18 -11 -18 -21 0 -21 -95 -160 -115 -167 -8 -3 -22 -26 -31 -50 -9 -24 -20 -42 -24 -39 -4 3 -8 -22 -9 -55 -1 -36 -9 -77 -21 -102 -67 -147 -180 -532 -180 -619 0 -19 -2 -21 -10 -9 -8 13 -10 13 -10 -2 0 -21 58 -42 76 -27 7 6 16 25 20 42 9 40 45 117 56 117 4 0 8 6 8 13 0 7 13 28 29 48 28 33 29 41 33 144 3 96 7 117 31 167 16 32 32 60 38 63 5 4 9 13 9 22 0 8 14 32 30 53 17 21 36 53 42 70 8 23 13 28 19 18 6 -9 9 -7 9 10 0 38 52 120 101 162 65 54 69 72 26 113 -38 35 -82 55 -109 49z"/>
<path d="M2092 1948 c-4 -13 -5 -117 -2 -233 l5 -210 60 0 60 0 11 155 c6 91 7 168 2 187 -8 28 -102 123 -122 123 -3 0 -10 -10 -14 -22z"/>
</g>
</g>
  <g id="id3:id3" transform="matrix(1.25,0,0,1.25,0.0,0.0)"><g transform="translate(0.000000,200.000000) scale(0.040000,-0.040000)" fill="#fc1822" stroke="none">
<path d="M1750 1220 c0 -19 3 -21 12 -12 9 9 9 15 0 24 -9 9 -12 7 -12 -12z"/>
<path d="M770 980 c0 -5 5 -10 10 -10 6 0 10 5 10 10 0 6 -4 10 -10 10 -5 0 -10 -4 -10 -10z"/>
<path d="M3535 980 c3 -5 8 -10 11 -10 2 0 4 5 4 10 0 6 -5 10 -11 10 -5 0 -7 -4 -4 -10z"/>
<path d="M710 595 c42 -43 70 -57 70 -35 0 6 -6 10 -13 10 -7 0 -28 16 -47 35 -19 19 -38 35 -44 35 -6 0 10 -20 34 -45z"/>
<path d="M3612 633 c-7 -3 -34 -27 -59 -54 -30 -32 -54 -49 -69 -49 -13 0 -24 -4 -24 -10 0 -5 10 -10 23 -10 15 0 45 23 87 65 35 36 62 65 60 64 -3 0 -11 -3 -18 -6z"/>
<path d="M1638 618 c8 -8 17 -8 34 0 22 10 21 11 -11 11 -27 1 -32 -2 -23 -11z"/>
<path d="M2585 620 c3 -5 12 -10 20 -10 8 0 17 5 20 10 4 6 -5 10 -20 10 -15 0 -24 -4 -20 -10z"/>
<path d="M790 541 c0 -12 23 -31 37 -31 21 0 15 14 -12 27 -14 6 -25 8 -25 4z"/>
<path d="M850 503 c0 -13 43 -53 58 -53 7 0 12 5 12 10 0 6 -5 10 -12 10 -6 0 -22 10 -35 22 -13 12 -23 17 -23 11z"/>
<path d="M3425 490 c-10 -11 -24 -20 -32 -20 -7 0 -13 -4 -13 -10 0 -18 26 -10 50 15 13 14 21 27 18 30 -2 3 -13 -4 -23 -15z"/>
<path d="M930 440 c0 -5 7 -10 15 -10 8 0 15 5 15 10 0 6 -7 10 -15 10 -8 0 -15 -4 -15 -10z"/>
<path d="M3345 430 c-10 -11 -24 -20 -32 -20 -7 0 -13 -4 -13 -10 0 -18 26 -10 50 15 13 14 21 27 18 30 -2 3 -13 -4 -23 -15z"/>
<path d="M970 420 c0 -5 7 -10 15 -10 8 0 15 5 15 10 0 6 -7 10 -15 10 -8 0 -15 -4 -15 -10z"/>
<path d="M1010 400 c0 -5 7 -10 15 -10 8 0 15 5 15 10 0 6 -7 10 -15 10 -8 0 -15 -4 -15 -10z"/>
<path d="M3260 380 c0 -5 7 -10 15 -10 8 0 15 5 15 10 0 6 -7 10 -15 10 -8 0 -15 -4 -15 -10z"/>
<path d="M1050 365 c0 -8 7 -15 16 -15 14 0 14 3 4 15 -7 8 -14 15 -16 15 -2 0 -4 -7 -4 -15z"/>
<path d="M3220 360 c0 -5 7 -10 15 -10 8 0 15 5 15 10 0 6 -7 10 -15 10 -8 0 -15 -4 -15 -10z"/>
<path d="M1090 340 c0 -5 7 -10 15 -10 8 0 15 5 15 10 0 6 -7 10 -15 10 -8 0 -15 -4 -15 -10z"/>
<path d="M3180 340 c0 -5 7 -10 15 -10 8 0 15 5 15 10 0 6 -7 10 -15 10 -8 0 -15 -4 -15 -10z"/>
<path d="M1130 320 c0 -5 7 -10 15 -10 8 0 15 5 15 10 0 6 -7 10 -15 10 -8 0 -15 -4 -15 -10z"/>
<path d="M3140 320 c0 -5 7 -10 15 -10 8 0 15 5 15 10 0 6 -7 10 -15 10 -8 0 -15 -4 -15 -10z"/>
<path d="M1170 300 c0 -5 7 -10 15 -10 8 0 15 5 15 10 0 6 -7 10 -15 10 -8 0 -15 -4 -15 -10z"/>
<path d="M3100 300 c0 -5 7 -10 15 -10 8 0 15 5 15 10 0 6 -7 10 -15 10 -8 0 -15 -4 -15 -10z"/>
<path d="M1210 280 c0 -5 7 -10 15 -10 8 0 15 5 15 10 0 6 -7 10 -15 10 -8 0 -15 -4 -15 -10z"/>
<path d="M3060 280 c0 -5 7 -10 15 -10 8 0 15 5 15 10 0 6 -7 10 -15 10 -8 0 -15 -4 -15 -10z"/>
<path d="M1250 260 c0 -5 7 -10 15 -10 8 0 15 5 15 10 0 6 -7 10 -15 10 -8 0 -15 -4 -15 -10z"/>
<path d="M3020 260 c0 -5 7 -10 15 -10 8 0 15 5 15 10 0 6 -7 10 -15 10 -8 0 -15 -4 -15 -10z"/>
<path d="M1290 240 c0 -5 7 -10 15 -10 8 0 15 5 15 10 0 6 -7 10 -15 10 -8 0 -15 -4 -15 -10z"/>
<path d="M2980 240 c0 -5 7 -10 15 -10 8 0 15 5 15 10 0 6 -7 10 -15 10 -8 0 -15 -4 -15 -10z"/>
<path d="M1330 220 c0 -5 11 -10 25 -10 14 0 25 5 25 10 0 6 -11 10 -25 10 -14 0 -25 -4 -25 -10z"/>
<path d="M2920 220 c0 -5 11 -10 25 -10 14 0 25 5 25 10 0 6 -11 10 -25 10 -14 0 -25 -4 -25 -10z"/>
<path d="M1390 200 c0 -5 16 -10 35 -10 19 0 35 5 35 10 0 6 -16 10 -35 10 -19 0 -35 -4 -35 -10z"/>
<path d="M2840 200 c0 -5 16 -10 35 -10 19 0 35 5 35 10 0 6 -16 10 -35 10 -19 0 -35 -4 -35 -10z"/>
<path d="M1470 180 c0 -5 11 -10 25 -10 14 0 25 5 25 10 0 6 -11 10 -25 10 -14 0 -25 -4 -25 -10z"/>
<path d="M2780 180 c0 -5 11 -10 25 -10 14 0 25 5 25 10 0 6 -11 10 -25 10 -14 0 -25 -4 -25 -10z"/>
<path d="M1530 160 c0 -5 16 -10 35 -10 19 0 35 5 35 10 0 6 -16 10 -35 10 -19 0 -35 -4 -35 -10z"/>
<path d="M2700 160 c0 -5 16 -10 35 -10 19 0 35 5 35 10 0 6 -16 10 -35 10 -19 0 -35 -4 -35 -10z"/>
<path d="M1610 140 c0 -5 11 -10 25 -10 14 0 25 5 25 10 0 6 -11 10 -25 10 -14 0 -25 -4 -25 -10z"/>
<path d="M2640 140 c0 -5 11 -10 25 -10 14 0 25 5 25 10 0 6 -11 10 -25 10 -14 0 -25 -4 -25 -10z"/>
<path d="M1670 120 c0 -5 16 -10 35 -10 19 0 35 5 35 10 0 6 -16 10 -35 10 -19 0 -35 -4 -35 -10z"/>
<path d="M2560 120 c0 -5 16 -10 35 -10 19 0 35 5 35 10 0 6 -16 10 -35 10 -19 0 -35 -4 -35 -10z"/>
<path d="M1750 100 c0 -6 28 -10 65 -10 37 0 65 4 65 10 0 6 -28 10 -65 10 -37 0 -65 -4 -65 -10z"/>
<path d="M2420 100 c0 -6 28 -10 65 -10 37 0 65 4 65 10 0 6 -28 10 -65 10 -37 0 -65 -4 -65 -10z"/>
<path d="M1890 80 c0 -6 93 -10 260 -10 167 0 260 4 260 10 0 6 -93 10 -260 10 -167 0 -260 -4 -260 -10z"/>
</g>
</g>
  <g id="id4:id4" transform="matrix(1.25,0,0,1.25,0.0,0.0)"><g transform="translate(0.000000,200.000000) scale(0.040000,-0.040000)" fill="#ee151e" stroke="none">
<path d="M2060 1409 c0 -8 -12 -10 -34 -6 -28 4 -38 1 -53 -19 -10 -13 -26 -24 -35 -24 -10 0 -18 -4 -18 -10 0 -5 -12 -10 -26 -10 -31 0 -54 -21 -54 -50 0 -34 -26 -53 -62 -46 -26 5 -29 4 -18 -9 6 -8 9 -19 5 -26 -6 -8 -10 -7 -16 2 -6 9 -9 -1 -9 -28 0 -24 -4 -43 -10 -43 -5 0 -10 -9 -10 -20 0 -11 -4 -20 -10 -20 -5 0 -10 -17 -10 -38 0 -26 -6 -42 -20 -52 -17 -12 -20 -26 -20 -82 0 -39 4 -68 10 -68 6 0 10 -27 10 -60 0 -33 4 -60 10 -60 6 0 10 -13 10 -30 0 -16 5 -30 10 -30 6 0 10 -9 10 -20 0 -15 -7 -20 -27 -20 -20 0 -24 -3 -14 -9 11 -7 9 -10 -8 -16 -26 -8 -49 4 -30 16 9 6 1 9 -23 9 l-38 0 0 50 c0 28 -4 50 -10 50 -5 0 -10 14 -10 30 0 17 -4 30 -10 30 -5 0 -10 21 -10 46 0 47 -16 74 -44 74 -9 0 -16 5 -16 10 0 6 5 10 10 10 6 0 10 7 10 16 0 10 -6 13 -19 9 -12 -3 -21 0 -24 10 -7 16 -47 16 -59 0 -5 -6 -8 -5 -8 2 0 7 -6 10 -14 7 -7 -3 -16 2 -20 11 -4 12 -14 14 -41 9 -28 -5 -35 -3 -35 10 0 9 -4 16 -10 16 -5 0 -10 -7 -10 -15 0 -8 -4 -15 -10 -15 -5 0 -10 5 -10 10 0 6 -13 10 -29 10 -16 0 -31 6 -34 13 -4 10 -21 12 -66 9 -52 -4 -64 -1 -76 14 -15 18 -15 18 -29 1 -11 -14 -25 -18 -56 -16 -25 2 -44 -2 -49 -9 -5 -9 -17 -11 -34 -6 -21 5 -27 3 -27 -11 0 -13 -6 -16 -21 -12 -24 7 -71 -12 -63 -25 6 -9 -20 -38 -34 -38 -6 0 -8 -9 -5 -20 3 -11 0 -20 -6 -20 -7 0 -11 -20 -11 -50 0 -27 -4 -50 -10 -50 -6 0 -10 -26 -10 -59 0 -38 -4 -61 -12 -64 -10 -4 -9 -8 2 -16 8 -6 12 -11 8 -11 -12 0 78 -80 91 -80 6 0 11 -8 11 -18 0 -11 10 -27 23 -38 22 -19 22 -19 5 2 -25 28 -22 34 7 21 14 -7 25 -19 25 -28 0 -8 15 -28 33 -45 l32 -29 -29 32 c-16 18 -27 35 -24 38 2 3 13 -4 23 -15 10 -11 24 -20 32 -20 7 0 13 -10 14 -22 0 -13 3 -17 6 -10 8 19 33 14 33 -7 0 -11 4 -23 10 -26 6 -3 7 1 4 9 -4 11 0 16 10 16 9 0 16 -8 16 -19 0 -11 4 -23 10 -26 6 -3 7 1 4 9 -4 11 0 16 10 16 9 0 16 -6 16 -13 0 -7 9 -18 20 -25 11 -7 20 -19 20 -26 0 -8 4 -18 10 -21 6 -3 7 1 4 9 -4 11 0 16 10 16 9 0 16 -8 16 -19 0 -11 4 -23 10 -26 6 -3 7 1 4 9 -4 11 0 16 10 16 9 0 16 -8 16 -19 0 -11 4 -23 10 -26 6 -3 7 1 4 9 -4 11 0 16 10 16 9 0 16 -8 16 -19 0 -11 4 -23 10 -26 6 -3 7 1 4 9 -4 11 0 16 10 16 9 0 16 -8 16 -19 0 -11 4 -23 10 -26 6 -3 7 1 4 9 -4 11 0 16 10 16 9 0 16 -8 16 -19 0 -11 4 -23 10 -26 6 -3 7 1 4 9 -4 10 -1 16 9 16 9 0 17 -10 19 -22 2 -12 9 -23 16 -24 7 -1 8 0 2 3 -19 9 -10 23 15 23 18 0 25 -5 25 -19 0 -11 4 -23 10 -26 6 -3 7 1 4 9 -5 13 1 16 29 16 29 0 36 -4 39 -22 2 -12 9 -23 16 -24 7 -1 8 0 2 3 -19 9 -10 23 15 23 18 0 25 -5 25 -19 0 -11 4 -23 10 -26 6 -3 7 1 4 9 -5 13 1 16 29 16 29 0 36 -4 39 -22 2 -12 9 -23 16 -24 7 -1 8 0 2 3 -19 9 -10 23 15 23 18 0 25 -5 25 -19 0 -11 4 -23 10 -26 6 -3 7 1 4 9 -5 13 1 16 30 16 29 0 36 -4 36 -19 0 -11 4 -23 10 -26 6 -3 7 1 4 9 -5 14 4 16 60 16 59 0 66 -2 66 -19 0 -11 4 -23 10 -26 6 -3 7 1 4 9 -5 14 23 16 256 16 233 0 261 -2 256 -16 -3 -8 -2 -12 4 -9 6 3 10 15 10 26 0 17 7 19 66 19 56 0 65 -2 60 -16 -3 -8 -2 -12 4 -9 6 3 10 15 10 26 0 15 7 19 36 19 29 0 35 -3 30 -16 -3 -8 -2 -12 4 -9 6 3 10 15 10 26 0 14 7 19 25 19 25 0 34 -14 15 -23 -6 -3 -5 -4 2 -3 7 1 14 12 16 24 3 18 10 22 39 22 28 0 34 -3 29 -16 -3 -8 -2 -12 4 -9 6 3 10 15 10 26 0 14 7 19 26 19 20 0 25 -4 20 -16 -3 -8 -2 -12 4 -9 6 3 10 15 10 26 0 15 7 19 36 19 29 0 35 -3 30 -16 -3 -8 -2 -12 4 -9 6 3 10 15 10 26 0 14 7 19 25 19 25 0 34 -14 15 -23 -6 -3 -5 -4 2 -3 7 1 14 12 16 24 2 12 10 22 19 22 10 0 13 -6 9 -16 -3 -8 -2 -12 4 -9 6 3 10 15 10 26 0 11 7 19 16 19 10 0 14 -5 10 -16 -3 -8 -2 -12 4 -9 6 3 10 15 10 26 0 11 7 19 16 19 10 0 14 -5 10 -16 -3 -8 -2 -12 4 -9 6 3 10 15 10 26 0 11 7 19 16 19 10 0 14 -5 10 -16 -3 -8 -2 -12 4 -9 6 3 10 15 10 26 0 11 7 19 16 19 10 0 14 -5 10 -16 -3 -8 -2 -12 4 -9 6 3 10 15 10 26 0 11 7 19 16 19 10 0 14 -5 10 -16 -3 -8 -2 -12 4 -9 6 3 10 15 10 26 0 11 7 19 16 19 10 0 14 -5 10 -16 -3 -8 -2 -12 4 -9 6 3 10 15 10 26 0 11 7 19 16 19 10 0 14 -5 10 -16 -3 -8 -2 -12 4 -9 6 3 10 15 10 26 0 10 6 19 13 19 8 0 22 9 32 20 10 11 21 18 23 15 3 -3 -8 -20 -24 -38 l-29 -32 33 29 c17 17 32 38 32 48 0 10 6 18 13 18 8 0 22 9 32 20 10 11 21 18 23 15 3 -3 -8 -20 -24 -38 l-29 -32 33 29 c17 17 32 38 32 48 0 12 7 18 24 18 15 0 40 17 71 51 26 27 51 49 57 47 5 -2 -20 -31 -55 -66 -36 -34 -62 -62 -58 -62 13 0 131 126 125 133 -4 4 -16 7 -26 7 -11 0 -18 7 -18 20 0 11 5 20 10 20 6 0 10 9 10 20 0 11 -4 20 -10 20 -6 0 -10 30 -10 70 0 39 -4 70 -10 70 -5 0 -10 33 -12 73 -2 53 -6 71 -16 69 -7 -1 -31 16 -52 38 -21 22 -46 40 -54 40 -9 0 -16 8 -16 18 -1 15 -2 15 -16 -3 -11 -14 -18 -16 -21 -7 -3 7 -22 12 -44 12 -21 0 -39 5 -39 10 0 6 -13 10 -30 10 -16 0 -30 -4 -30 -10 0 -5 -13 -10 -30 -10 -21 0 -30 5 -30 16 0 8 -4 12 -10 9 -5 -3 -10 -15 -10 -26 0 -12 -7 -19 -20 -19 -11 0 -20 7 -20 15 0 8 -4 15 -10 15 -5 0 -10 -7 -10 -15 0 -8 -9 -15 -20 -15 -11 0 -20 -4 -20 -10 0 -5 -18 -10 -40 -10 -23 0 -40 -5 -40 -11 0 -6 -7 -9 -15 -6 -8 4 -23 -4 -34 -19 -15 -19 -26 -24 -41 -19 -14 4 -22 1 -26 -10 -5 -11 -14 -15 -29 -11 -25 6 -71 -33 -47 -41 17 -7 15 -23 -4 -23 -20 0 -44 -24 -44 -44 0 -9 -3 -16 -7 -16 -13 0 -35 -54 -23 -58 13 -5 13 -62 0 -62 -5 0 -10 -13 -10 -30 0 -16 -4 -30 -10 -30 -5 0 -10 -9 -10 -20 0 -16 -7 -20 -37 -20 -28 0 -34 -3 -23 -10 12 -8 12 -10 -2 -15 -23 -9 -45 4 -27 16 10 6 4 9 -18 9 -18 0 -33 5 -33 10 0 6 5 10 10 10 6 0 10 14 10 30 0 17 5 30 10 30 6 0 10 18 10 40 0 22 5 40 10 40 6 0 10 25 10 56 0 42 5 60 18 70 16 13 16 15 0 28 -10 7 -18 21 -18 30 0 9 -4 16 -10 16 -5 0 -10 23 -10 50 0 28 -4 50 -10 50 -5 0 -10 7 -10 16 0 9 -9 25 -20 34 -14 12 -20 28 -18 48 1 16 -3 36 -10 44 -6 8 -9 24 -5 36 4 16 1 22 -11 22 -9 0 -16 5 -16 10 0 6 -9 10 -20 10 -11 0 -20 5 -20 10 0 6 -13 10 -30 10 -16 0 -30 5 -30 10 0 6 -9 10 -19 10 -13 0 -21 8 -23 23 -3 20 -8 22 -50 19 -30 -3 -48 0 -48 7 0 7 -32 11 -90 11 -60 0 -90 -4 -90 -11z m-1270 -429 c0 -5 -4 -10 -10 -10 -5 0 -10 5 -10 10 0 6 5 10 10 10 6 0 10 -4 10 -10z m2760 0 c0 -5 -2 -10 -4 -10 -3 0 -8 5 -11 10 -3 6 -1 10 4 10 6 0 11 -4 11 -10z"/>
<path d="M710 588 c41 -45 50 -53 50 -45 0 2 -21 23 -47 47 l-48 45 45 -47z"/>
</g>
</g>
  <g id="id5:id5" transform="matrix(1.25,0,0,1.25,0.0,0.0)"><g transform="translate(0.000000,200.000000) scale(0.040000,-0.040000)" fill="#ac0710" stroke="none">
<path d="M2000 1446 c-19 -6 -53 -23 -75 -38 -22 -16 -45 -28 -52 -28 -18 0 -100 -58 -118 -83 -8 -12 -15 -33 -15 -47 0 -14 -10 -40 -23 -59 -45 -71 -54 -87 -66 -126 -7 -22 -16 -49 -21 -60 -18 -42 -18 -83 0 -180 11 -55 24 -116 29 -135 10 -31 1 -64 -12 -43 -9 16 -46 179 -53 237 -6 52 -10 60 -40 78 -19 11 -34 24 -34 29 0 5 -24 9 -54 9 -49 0 -92 9 -141 30 -102 44 -214 70 -303 70 -55 0 -129 -23 -204 -64 -37 -20 -76 -36 -87 -36 -14 0 -23 -9 -27 -27 -3 -16 -19 -54 -36 -86 -16 -32 -34 -87 -40 -125 -16 -105 -15 -122 8 -122 9 0 23 -8 32 -18 10 -10 13 -12 8 -5 -4 7 -6 19 -3 27 3 8 1 17 -6 20 -9 5 -9 7 1 12 7 4 12 27 12 65 0 33 4 59 10 59 6 0 10 23 10 50 0 30 4 50 11 50 6 0 9 9 6 20 -3 11 -1 20 5 20 14 0 40 29 34 38 -8 13 39 32 63 25 15 -4 21 -1 21 12 0 14 6 16 27 11 17 -5 29 -3 34 6 5 7 24 11 49 9 31 -2 45 2 56 16 14 17 14 17 29 -1 12 -15 24 -18 76 -14 45 3 62 1 66 -9 3 -7 18 -13 34 -13 16 0 29 -4 29 -10 0 -5 5 -10 10 -10 6 0 10 7 10 15 0 8 5 15 10 15 6 0 10 -7 10 -16 0 -13 7 -15 35 -10 26 5 37 3 41 -7 4 -10 18 -14 50 -12 32 3 47 -1 51 -11 3 -9 13 -12 24 -9 13 4 19 1 19 -9 0 -9 -4 -16 -10 -16 -5 0 -10 -4 -10 -10 0 -5 7 -10 16 -10 28 0 44 -27 44 -74 0 -25 5 -46 10 -46 6 0 10 -13 10 -30 0 -16 5 -30 10 -30 6 0 10 -22 10 -49 l0 -49 42 -4 c66 -6 98 1 98 23 0 11 -4 19 -10 19 -5 0 -10 14 -10 30 0 17 -4 30 -10 30 -6 0 -10 27 -10 60 0 33 -4 60 -10 60 -6 0 -10 29 -10 68 0 56 3 70 20 82 14 10 20 26 20 52 0 21 5 38 10 38 6 0 10 9 10 20 0 11 5 20 10 20 6 0 10 15 10 33 0 62 9 77 41 70 33 -6 59 14 59 47 0 29 23 50 54 50 14 0 26 5 26 10 0 6 8 10 18 10 9 0 25 11 35 24 15 20 25 23 53 19 22 -4 34 -2 34 6 0 7 30 11 90 11 58 0 90 -4 90 -11 0 -7 18 -10 48 -7 42 3 47 1 50 -19 2 -15 10 -23 23 -23 10 0 19 -4 19 -10 0 -5 14 -10 30 -10 17 0 30 -4 30 -10 0 -5 9 -10 20 -10 11 0 20 -4 20 -10 0 -5 7 -10 16 -10 12 0 15 -6 11 -22 -4 -12 -1 -28 5 -36 7 -8 11 -28 10 -44 -2 -20 4 -36 18 -48 11 -9 20 -25 20 -34 0 -9 5 -16 10 -16 6 0 10 -22 10 -50 0 -27 5 -50 10 -50 6 0 10 -7 10 -16 0 -9 8 -23 18 -30 16 -13 16 -15 0 -28 -13 -10 -18 -28 -18 -70 0 -31 -4 -56 -10 -56 -5 0 -10 -18 -10 -40 0 -22 -4 -40 -10 -40 -5 0 -10 -13 -10 -29 0 -16 -6 -31 -12 -34 -32 -11 15 -20 95 -18 30 1 37 5 37 21 0 11 5 20 10 20 6 0 10 14 10 30 0 17 5 30 10 30 13 0 13 57 0 62 -12 4 10 58 23 58 4 0 7 7 7 16 0 20 24 44 44 44 19 0 21 16 4 23 -24 8 22 47 47 41 15 -4 24 0 29 11 4 11 12 14 26 10 15 -5 26 0 41 19 11 15 26 23 34 19 8 -3 15 0 15 6 0 6 17 11 40 11 22 0 40 5 40 10 0 6 9 10 20 10 11 0 20 7 20 15 0 8 5 15 10 15 6 0 10 -7 10 -15 0 -8 9 -15 20 -15 13 0 20 7 20 19 0 11 5 23 10 26 6 3 10 -1 10 -9 0 -11 9 -16 30 -16 17 0 30 5 30 10 0 6 14 10 30 10 17 0 30 -4 30 -10 0 -5 18 -10 39 -10 22 0 41 -5 44 -12 3 -9 10 -7 21 7 14 18 15 18 16 3 0 -10 7 -18 16 -18 8 0 33 -18 54 -40 21 -22 45 -39 52 -38 10 2 14 -16 16 -69 2 -40 7 -73 12 -73 6 0 10 -31 10 -70 0 -40 4 -70 10 -70 6 0 10 -9 10 -20 0 -11 -4 -20 -10 -20 -5 0 -10 -9 -10 -20 0 -15 7 -20 25 -20 28 0 31 -9 13 -30 -11 -12 -10 -12 5 -1 16 12 17 27 13 128 -3 63 -9 120 -14 126 -5 7 -12 28 -16 47 -8 43 -28 90 -38 90 -5 0 -8 7 -8 15 0 14 -39 57 -82 91 -8 6 -31 14 -52 18 -20 4 -40 14 -43 22 -4 11 -29 14 -119 14 -63 0 -114 -4 -114 -8 0 -15 -50 -32 -95 -32 -25 0 -45 -4 -45 -10 0 -5 -9 -10 -20 -10 -12 0 -32 -11 -46 -25 -41 -41 -111 -75 -154 -75 -22 0 -40 -5 -40 -10 0 -6 -16 -27 -35 -47 -19 -20 -35 -46 -35 -59 0 -13 -4 -26 -10 -29 -5 -3 -10 -23 -10 -44 0 -41 -26 -139 -42 -158 -20 -24 -26 -3 -11 39 8 24 24 89 34 145 20 102 20 102 -1 183 -11 44 -29 95 -40 113 -10 17 -27 46 -35 64 -9 18 -23 37 -31 44 -8 6 -14 29 -14 50 0 31 -6 42 -33 63 -19 15 -41 26 -50 26 -18 0 -76 30 -92 46 -21 24 -82 34 -194 33 -64 -1 -132 -6 -151 -13z"/>
<path d="M720 566 c0 -2 8 -10 18 -17 15 -13 16 -12 3 4 -13 16 -21 21 -21 13z"/>
<path d="M3539 533 l-34 -38 38 34 c20 19 37 36 37 38 0 8 -8 0 -41 -34z"/>
<path d="M3468 503 c7 -3 16 -2 19 1 4 3 -2 6 -13 5 -11 0 -14 -3 -6 -6z"/>
<path d="M860 466 c0 -2 8 -10 18 -17 15 -13 16 -12 3 4 -13 16 -21 21 -21 13z"/>
<path d="M928 423 c6 -2 18 -2 25 0 6 3 1 5 -13 5 -14 0 -19 -2 -12 -5z"/>
<path d="M1028 383 c6 -2 12 -13 12 -24 0 -13 7 -19 23 -18 15 1 17 3 6 6 -10 2 -19 13 -22 24 -3 10 -11 19 -19 18 -10 0 -10 -2 0 -6z"/>
<path d="M1358 203 c7 -3 16 -2 19 1 4 3 -2 6 -13 5 -11 0 -14 -3 -6 -6z"/>
<path d="M2928 203 c7 -3 16 -2 19 1 4 3 -2 6 -13 5 -11 0 -14 -3 -6 -6z"/>
<path d="M1413 183 c9 -2 25 -2 35 0 9 3 1 5 -18 5 -19 0 -27 -2 -17 -5z"/>
<path d="M2853 183 c9 -2 25 -2 35 0 9 3 1 5 -18 5 -19 0 -27 -2 -17 -5z"/>
<path d="M1498 163 c7 -3 16 -2 19 1 4 3 -2 6 -13 5 -11 0 -14 -3 -6 -6z"/>
<path d="M2788 163 c6 -2 18 -2 25 0 6 3 1 5 -13 5 -14 0 -19 -2 -12 -5z"/>
<path d="M1553 143 c9 -2 25 -2 35 0 9 3 1 5 -18 5 -19 0 -27 -2 -17 -5z"/>
<path d="M2713 143 c9 -2 25 -2 35 0 9 3 1 5 -18 5 -19 0 -27 -2 -17 -5z"/>
<path d="M1638 123 c7 -3 16 -2 19 1 4 3 -2 6 -13 5 -11 0 -14 -3 -6 -6z"/>
<path d="M2648 123 c7 -3 16 -2 19 1 4 3 -2 6 -13 5 -11 0 -14 -3 -6 -6z"/>
<path d="M1693 103 c9 -2 25 -2 35 0 9 3 1 5 -18 5 -19 0 -27 -2 -17 -5z"/>
<path d="M2573 103 c9 -2 25 -2 35 0 9 3 1 5 -18 5 -19 0 -27 -2 -17 -5z"/>
<path d="M1788 83 c17 -2 47 -2 65 0 17 2 3 4 -33 4 -36 0 -50 -2 -32 -4z"/>
<path d="M2448 83 c17 -2 47 -2 65 0 17 2 3 4 -33 4 -36 0 -50 -2 -32 -4z"/>
<path d="M2023 63 c70 -2 184 -2 255 0 70 1 12 3 -128 3 -140 0 -198 -2 -127 -3z"/>
</g>
</g>
  <g id="id6:id6" transform="matrix(1.25,0,0,1.25,0.0,0.0)"><g transform="translate(0.000000,200.000000) scale(0.040000,-0.040000)" fill="#777a78" stroke="none">
<path d="M2123 4803 c15 -2 37 -2 50 0 12 2 0 4 -28 4 -27 0 -38 -2 -22 -4z"/>
<path d="M2034 4790 c-20 -8 -42 -30 -31 -30 3 0 24 9 48 20 43 19 27 28 -17 10z"/>
<path d="M2210 4793 c8 -3 30 -12 48 -21 18 -8 35 -12 38 -10 7 8 -61 38 -83 37 -13 0 -14 -2 -3 -6z"/>
<path d="M1924 4728 c-9 -17 -31 -53 -50 -79 -18 -26 -40 -71 -49 -101 -9 -29 -21 -61 -26 -70 -13 -25 -11 -112 2 -125 19 -19 0 -33 -42 -33 -21 0 -56 -9 -76 -20 -35 -19 -36 -20 -12 -20 15 0 32 7 39 14 6 8 33 16 58 18 l47 3 5 100 c6 110 25 194 46 202 8 3 14 11 14 18 0 7 7 18 16 26 9 7 22 30 31 50 8 21 22 40 31 42 15 4 15 5 0 6 -10 1 -24 -12 -34 -31z"/>
<path d="M2336 4746 c4 -10 18 -30 32 -45 13 -14 32 -37 40 -51 9 -14 22 -29 29 -33 7 -4 13 -15 13 -22 0 -8 4 -15 10 -15 5 0 14 -19 20 -42 6 -24 15 -52 20 -63 5 -11 11 -51 13 -90 l3 -70 2 78 c1 42 -2 85 -7 95 -6 9 -17 41 -26 70 -9 28 -20 52 -25 52 -5 0 -32 30 -61 68 -68 87 -72 91 -63 68z"/>
<path d="M2577 4313 c29 -2 57 -10 63 -18 7 -8 18 -15 26 -15 36 0 174 -96 174 -122 0 -4 13 -26 29 -48 56 -78 65 -246 17 -320 -12 -19 -25 -42 -29 -52 -6 -17 -88 -78 -105 -78 -6 0 -12 -6 -15 -13 -6 -17 -104 -47 -154 -47 -22 0 -54 7 -69 15 -16 8 -41 15 -55 15 -15 0 -32 7 -39 15 -7 8 -20 15 -30 15 -9 0 -29 9 -44 21 -15 12 -37 19 -53 17 l-28 -3 -2 -215 c0 -118 -4 -411 -7 -651 -7 -486 -9 -469 58 -426 20 12 35 27 36 32 0 6 37 24 81 40 67 25 83 35 91 58 6 16 17 27 28 27 10 0 23 6 29 14 6 7 25 16 41 20 17 3 30 10 30 16 0 12 -54 90 -88 127 -13 14 -27 44 -32 67 l-9 41 4 -45 c2 -24 10 -49 17 -55 21 -17 97 -133 91 -139 -4 -3 -16 -6 -28 -6 -13 0 -28 -7 -35 -15 -7 -8 -18 -15 -24 -15 -6 0 -24 -16 -39 -35 -15 -19 -34 -35 -41 -35 -25 0 -110 -45 -140 -73 -60 -56 -59 -61 -57 368 1 604 11 895 28 895 8 0 42 -16 74 -35 33 -19 69 -35 81 -35 11 0 36 -10 55 -21 29 -18 44 -21 97 -15 57 6 131 33 145 54 3 5 27 23 54 41 26 18 55 44 64 59 9 15 25 40 35 55 31 44 39 129 20 212 -11 53 -27 88 -66 144 -45 64 -61 78 -126 113 -41 22 -79 44 -84 49 -6 5 -35 8 -65 7 l-56 -2 52 -3z"/>
<path d="M1590 4260 c-19 -11 -32 -19 -29 -20 11 0 79 30 79 35 0 9 -14 5 -50 -15z"/>
<path d="M1513 4213 c-10 -16 -20 -30 -23 -33 -19 -18 -67 -102 -77 -135 -7 -22 -13 -77 -13 -123 0 -72 4 -90 31 -143 18 -37 57 -88 99 -129 61 -60 76 -70 125 -80 98 -20 207 3 267 56 20 18 51 40 68 49 18 9 30 18 27 21 -6 6 -97 -46 -97 -57 0 -4 -26 -20 -57 -35 -84 -38 -191 -39 -256 0 -62 36 -134 114 -163 177 -54 115 -41 252 34 364 25 39 53 76 61 83 9 7 10 12 3 12 -6 0 -19 -12 -29 -27z"/>
<path d="M2043 3704 c16 -5 17 -46 17 -685 0 -640 -1 -679 -17 -679 -10 0 -31 9 -48 20 -16 11 -37 20 -45 19 -8 0 7 -11 33 -25 27 -14 58 -24 70 -22 l22 3 0 685 0 685 -25 2 c-14 1 -18 0 -7 -3z"/>
<path d="M2770 3373 c-45 -16 -139 -66 -165 -88 -44 -36 -23 -31 37 11 29 19 65 38 80 41 16 3 31 10 34 14 7 12 109 12 132 0 64 -31 90 -47 111 -68 13 -13 28 -23 33 -23 20 0 -51 59 -107 89 -55 30 -114 39 -155 24z"/>
<path d="M1354 3300 c-23 -10 -45 -23 -48 -29 -8 -12 6 -15 18 -4 27 27 156 43 194 24 28 -14 93 -33 98 -28 2 2 -23 16 -56 31 -73 31 -145 33 -206 6z"/>
<path d="M1212 3226 c-18 -19 -32 -39 -32 -44 0 -5 -7 -16 -17 -23 -31 -26 -63 -111 -62 -164 2 -49 4 -43 15 42 5 41 54 126 95 166 11 10 19 21 19 26 0 4 10 13 23 19 14 7 17 11 7 11 -9 1 -30 -14 -48 -33z"/>
<path d="M1696 3223 c19 -20 35 -46 35 -57 1 -17 2 -18 6 -3 4 17 -50 97 -67 97 -4 0 8 -17 26 -37z"/>
<path d="M2530 3239 c-6 -11 -9 -28 -7 -37 3 -12 5 -11 6 5 0 12 11 29 23 37 18 13 19 16 6 16 -10 0 -22 -9 -28 -21z"/>
<path d="M3070 3253 c14 -6 69 -117 80 -158 7 -28 8 -28 9 -5 1 30 -69 163 -87 166 -7 1 -8 0 -2 -3z"/>
<path d="M2521 3114 c0 -11 3 -14 6 -6 3 7 2 16 -1 19 -3 4 -6 -2 -5 -13z"/>
<path d="M1742 2975 c0 -92 1 -96 9 -46 5 31 5 72 0 100 -8 40 -9 33 -9 -54z"/>
<path d="M3161 2981 l-1 -43 43 6 c23 3 61 8 83 12 26 4 44 2 48 -5 4 -6 16 -11 27 -11 25 0 99 -37 99 -50 0 -6 4 -10 10 -10 5 0 7 7 3 16 -7 20 -144 84 -178 84 -14 0 -43 -7 -65 -16 -46 -19 -56 -13 -63 31 -3 23 -4 20 -6 -14z"/>
<path d="M2522 2915 c0 -16 2 -22 5 -12 2 9 2 23 0 30 -3 6 -5 -1 -5 -18z"/>
<path d="M900 2902 c-26 -12 -30 -18 -17 -20 10 -2 25 2 33 9 19 16 122 15 137 0 17 -17 47 -13 46 7 0 9 -3 12 -5 5 -4 -8 -12 -8 -32 3 -37 19 -120 17 -162 -4z"/>
<path d="M767 2828 c-24 -29 -50 -64 -56 -78 l-12 -25 18 25 c10 14 41 49 69 78 28 28 45 52 38 52 -7 0 -32 -24 -57 -52z"/>
<path d="M3508 2873 c6 -2 12 -11 12 -19 0 -8 4 -14 9 -14 5 0 14 -12 19 -27 7 -19 11 -22 11 -10 1 21 -38 77 -53 76 -6 0 -5 -3 2 -6z"/>
<path d="M1731 2814 c0 -11 3 -14 6 -6 3 7 2 16 -1 19 -3 4 -6 -2 -5 -13z"/>
<path d="M3561 2763 c-1 -12 4 -23 11 -25 18 -6 37 -104 38 -194 0 -84 -12 -136 -38 -167 -8 -9 -13 -20 -10 -23 11 -10 49 66 57 113 14 93 -3 235 -34 273 -7 8 -15 22 -18 30 -4 10 -6 8 -6 -7z"/>
<path d="M1731 2737 c0 -10 -14 -38 -31 -62 -16 -24 -30 -48 -30 -54 0 -5 -9 -13 -20 -16 -14 -4 -20 -15 -20 -34 0 -23 5 -30 28 -34 15 -3 46 -22 67 -41 50 -46 62 -46 21 -1 -17 19 -48 41 -69 50 -38 16 -49 41 -22 51 22 9 87 121 82 142 -4 16 -5 16 -6 -1z"/>
<path d="M671 2643 c-11 -37 -23 -85 -27 -106 -8 -50 13 -156 37 -187 l20 -25 -14 30 c-41 85 -41 170 0 298 8 27 13 51 10 53 -3 3 -14 -25 -26 -63z"/>
<path d="M1805 2453 c11 -3 27 -11 35 -17 8 -7 33 -23 55 -35 39 -22 39 -22 21 -2 -11 12 -24 21 -31 21 -7 0 -20 9 -30 20 -10 11 -30 19 -44 19 -21 -1 -22 -2 -6 -6z"/>
<path d="M3508 2290 c-35 -36 -58 -51 -85 -55 -56 -10 -62 -13 -23 -14 19 -1 49 7 65 17 34 21 95 81 95 94 0 12 -1 11 -52 -42z"/>
<path d="M2615 2317 c-16 -7 -45 -18 -62 -26 -18 -7 -33 -18 -33 -24 0 -7 4 -7 12 1 7 7 19 12 27 12 8 0 34 9 58 21 23 11 47 18 52 14 12 -7 4 -58 -14 -95 -7 -14 -18 -71 -25 -127 -24 -190 14 -336 113 -430 60 -57 91 -75 162 -93 44 -11 60 -10 128 8 70 18 85 27 140 79 82 77 107 128 105 213 l-1 65 -7 -70 c-10 -106 -34 -145 -147 -239 -24 -20 -120 -45 -173 -46 -44 0 -128 25 -149 45 -9 8 -33 29 -54 46 -70 59 -107 173 -107 329 0 90 16 209 31 226 5 7 11 32 12 56 2 36 -1 43 -18 45 -11 1 -33 -3 -50 -10z"/>
<path d="M701 2306 c-1 -26 46 -86 67 -85 13 0 13 2 -4 9 -22 9 -49 44 -57 75 -4 19 -5 19 -6 1z"/>
<path d="M1591 2266 c-9 -11 -7 -28 10 -78 31 -91 39 -311 14 -406 -16 -60 -65 -139 -115 -187 -36 -33 -50 -43 -80 -53 -42 -15 -176 -14 -215 2 -49 19 -95 50 -100 67 -3 9 -23 35 -44 57 -50 52 -71 123 -71 234 1 89 9 137 35 207 19 52 9 71 -39 71 -17 0 -60 9 -95 20 -35 11 -66 18 -69 15 -3 -2 4 -7 14 -10 10 -3 33 -13 49 -21 17 -9 54 -18 83 -21 47 -5 52 -8 52 -30 0 -13 -8 -38 -17 -56 -12 -22 -18 -66 -21 -145 -6 -140 11 -201 74 -276 104 -123 130 -136 261 -136 119 0 148 16 248 139 77 94 99 226 71 419 -9 62 -22 124 -28 137 -6 14 -9 28 -6 31 3 3 34 -2 68 -11 34 -9 64 -14 67 -11 3 2 -14 10 -38 16 -24 7 -52 18 -63 26 -25 17 -31 17 -45 0z"/>
<path d="M2470 2234 c-40 -11 -42 -12 -14 -13 16 -1 39 6 50 14 10 8 17 14 14 13 -3 0 -25 -6 -50 -14z"/>
<path d="M1780 2209 c120 -54 140 -68 140 -93 0 -13 -8 -30 -17 -37 -9 -8 -34 -41 -55 -73 -21 -33 -47 -65 -58 -73 -26 -18 -50 -65 -49 -95 0 -15 5 -8 14 21 9 27 27 55 49 73 20 16 36 34 36 40 0 5 10 23 23 39 60 77 67 89 67 108 0 25 -93 89 -141 96 -32 5 -32 5 -9 -6z"/>
<path d="M2338 2190 c-17 -16 -35 -30 -39 -30 -15 0 -10 -47 7 -61 9 -7 36 -43 60 -81 24 -37 60 -82 79 -101 19 -18 43 -53 54 -78 12 -24 21 -38 21 -31 0 27 -40 100 -65 116 -23 15 -52 53 -100 131 -12 19 -29 43 -39 54 -18 20 -18 21 9 53 15 18 40 38 54 45 19 8 21 12 8 12 -9 1 -31 -12 -49 -29z"/>
<path d="M3241 2197 c-1 -16 4 -37 10 -49 6 -11 14 -59 19 -107 7 -86 7 -86 8 -21 1 37 -7 96 -18 135 -12 44 -19 59 -19 42z"/>
<path d="M2022 1912 c-12 -11 -22 -22 -22 -26 0 -8 -37 -62 -65 -94 -13 -15 -15 -21 -5 -17 8 3 35 35 60 72 25 37 51 69 58 71 9 3 12 -43 12 -208 l0 -211 -47 -20 c-27 -11 -61 -27 -78 -35 -33 -16 -102 -64 -92 -64 16 0 64 26 77 42 8 9 39 24 69 31 91 23 92 26 89 266 -3 177 -5 206 -19 209 -8 1 -25 -6 -37 -16z"/>
<path d="M2247 1823 c-4 -3 -7 -79 -7 -169 0 -161 0 -162 25 -178 13 -9 30 -16 38 -16 18 0 97 -39 97 -48 0 -8 43 -28 83 -38 20 -4 27 -2 27 8 0 26 -32 113 -50 133 -9 11 -29 46 -43 78 -15 32 -38 72 -52 89 -31 37 -33 26 -2 -16 12 -17 31 -51 42 -76 10 -25 28 -58 40 -75 22 -30 55 -107 55 -126 0 -14 -38 -2 -75 25 -16 11 -61 35 -100 53 l-70 32 -3 156 c-1 85 1 155 6 155 11 0 68 -61 75 -80 4 -11 6 -10 6 4 1 11 -17 37 -40 58 -45 42 -43 41 -52 31z"/>
<path d="M1731 1740 c0 -9 -12 -32 -26 -52 -14 -20 -32 -58 -41 -85 -9 -26 -22 -61 -29 -78 -7 -16 -18 -50 -25 -75 -7 -25 -19 -63 -26 -85 -8 -22 -19 -62 -25 -90 -5 -27 -14 -68 -20 -90 -6 -22 -12 -65 -14 -95 l-4 -55 8 50 c10 56 59 262 68 285 4 8 14 42 24 75 27 93 77 217 100 248 11 15 18 36 16 45 -4 13 -5 13 -6 2z"/>
<path d="M1911 1736 c0 -10 -14 -35 -30 -55 -28 -35 -71 -120 -71 -139 0 -6 -6 -12 -14 -15 -14 -6 -62 -144 -53 -153 3 -3 15 26 27 65 12 39 27 74 34 78 7 5 22 34 34 67 12 32 36 76 53 97 17 22 29 46 26 56 -4 16 -5 16 -6 -1z"/>
<path d="M2520 1717 c0 -8 18 -42 35 -67 6 -8 19 -40 29 -70 11 -30 23 -60 28 -67 12 -15 79 -238 100 -333 26 -114 27 -119 23 -70 -6 71 -16 120 -26 126 -5 3 -9 15 -9 27 0 26 -56 211 -75 247 -7 14 -22 50 -33 81 -17 50 -72 146 -72 126z"/>
<path d="M1800 1372 c-29 -13 -60 -37 -60 -46 0 -5 8 -2 18 6 9 9 31 23 47 31 29 16 25 22 -5 9z"/>
<path d="M3210 1170 c-17 -6 0 -8 55 -9 55 0 75 2 65 9 -18 11 -84 11 -120 0z"/>
<path d="M3035 1139 c-22 -10 -48 -19 -57 -19 -10 0 -43 -17 -75 -39 -32 -21 -74 -48 -93 -59 -19 -12 -28 -22 -20 -22 8 0 26 9 40 20 14 11 30 20 36 20 6 0 19 9 29 20 10 11 23 20 28 20 6 0 18 7 27 15 9 8 39 18 66 22 27 3 54 12 59 19 6 7 26 15 45 17 34 4 34 4 -5 5 -22 0 -58 -8 -80 -19z"/>
<path d="M3405 1153 c17 -3 34 -11 38 -19 4 -8 15 -14 24 -14 12 0 11 5 -7 20 -14 12 -36 19 -54 19 l-31 -2 30 -4z"/>
<path d="M235 1110 c10 -11 20 -20 23 -20 3 0 -3 9 -13 20 -10 11 -20 20 -23 20 -3 0 3 -9 13 -20z"/>
<path d="M275 1110 c10 -11 20 -20 23 -20 3 0 -3 9 -13 20 -10 11 -20 20 -23 20 -3 0 3 -9 13 -20z"/>
<path d="M4014 1108 l-19 -23 23 19 c21 18 27 26 19 26 -2 0 -12 -10 -23 -22z"/>
<path d="M4054 1108 l-19 -23 23 19 c21 18 27 26 19 26 -2 0 -12 -10 -23 -22z"/>
<path d="M885 1099 c-38 -11 -79 -28 -90 -38 -11 -9 -33 -25 -48 -35 -16 -10 -26 -20 -23 -23 3 -3 17 4 32 16 15 11 33 21 40 21 7 0 17 6 21 14 11 20 146 56 209 56 78 0 273 -36 289 -54 12 -13 153 -61 160 -54 3 2 -28 15 -68 28 -39 13 -76 29 -82 35 -5 6 -35 16 -65 23 -185 38 -269 41 -375 11z"/>
<path d="M3514 1099 c15 -12 32 -31 36 -43 l9 -21 0 22 c1 13 -11 30 -28 42 -38 28 -51 27 -17 0z"/>
<path d="M2740 1030 c0 -16 4 -30 8 -30 5 0 7 14 4 30 -2 17 -6 30 -8 30 -2 0 -4 -13 -4 -30z"/>
<path d="M295 1010 c10 -11 20 -20 23 -20 3 0 -3 9 -13 20 -10 11 -20 20 -23 20 -3 0 3 -9 13 -20z"/>
<path d="M335 1010 c10 -11 20 -20 23 -20 3 0 -3 9 -13 20 -10 11 -20 20 -23 20 -3 0 3 -9 13 -20z"/>
<path d="M1506 1015 c-3 -8 -1 -15 4 -15 6 0 10 7 10 15 0 8 -2 15 -4 15 -2 0 -6 -7 -10 -15z"/>
<path d="M3566 1016 c3 -8 11 -17 19 -19 7 -3 20 -32 30 -64 9 -32 21 -67 27 -79 5 -11 8 -62 6 -112 -2 -51 0 -92 5 -92 10 0 9 184 -2 212 -5 13 -17 48 -26 78 -10 34 -25 62 -40 73 -19 13 -23 14 -19 3z"/>
<path d="M3954 1008 l-19 -23 23 19 c21 18 27 26 19 26 -2 0 -12 -10 -23 -22z"/>
<path d="M3994 1008 l-19 -23 23 19 c21 18 27 26 19 26 -2 0 -12 -10 -23 -22z"/>
<path d="M682 968 c-18 -30 -42 -80 -71 -151 -6 -15 -10 -49 -10 -75 l2 -47 8 55 c10 76 20 110 30 110 5 0 9 7 9 16 0 15 28 73 41 84 7 6 20 40 15 40 -3 0 -13 -15 -24 -32z"/>
<path d="M375 950 c10 -11 20 -20 23 -20 3 0 -3 9 -13 20 -10 11 -20 20 -23 20 -3 0 3 -9 13 -20z"/>
<path d="M3914 948 l-19 -23 23 19 c21 18 27 26 19 26 -2 0 -12 -10 -23 -22z"/>
<path d="M355 910 c10 -11 20 -20 23 -20 3 0 -3 9 -13 20 -10 11 -20 20 -23 20 -3 0 3 -9 13 -20z"/>
<path d="M3934 908 l-19 -23 23 19 c21 18 27 26 19 26 -2 0 -12 -10 -23 -22z"/>
<path d="M455 850 c33 -33 62 -60 64 -60 3 0 -21 27 -54 60 -33 33 -62 60 -64 60 -3 0 21 -27 54 -60z"/>
<path d="M3835 848 l-60 -63 63 60 c58 55 67 65 59 65 -1 0 -29 -28 -62 -62z"/>
<path d="M435 810 c33 -33 62 -60 64 -60 3 0 -21 27 -54 60 -33 33 -62 60 -64 60 -3 0 21 -27 54 -60z"/>
<path d="M3855 808 l-60 -63 63 60 c58 55 67 65 59 65 -1 0 -29 -28 -62 -62z"/>
<path d="M520 767 c0 -2 15 -16 33 -33 l32 -29 -29 33 c-28 30 -36 37 -36 29z"/>
<path d="M3725 718 l-50 -53 53 50 c28 27 52 51 52 52 0 8 -9 -1 -55 -49z"/>
<path d="M600 628 c57 -60 106 -108 107 -108 8 0 -5 13 -104 110 l-108 105 105 -107z"/>
<path d="M3690 623 l-105 -108 108 105 c59 57 107 106 107 107 0 8 -13 -5 -110 -104z"/>
<path d="M730 517 c0 -2 15 -16 33 -33 l32 -29 -29 33 c-28 30 -36 37 -36 29z"/>
<path d="M3534 488 l-29 -33 33 29 c17 17 32 31 32 33 0 8 -8 1 -36 -29z"/>
<path d="M810 457 c0 -2 15 -16 33 -33 l32 -29 -29 33 c-28 30 -36 37 -36 29z"/>
<path d="M3454 428 l-29 -33 33 29 c17 17 32 31 32 33 0 8 -8 1 -36 -29z"/>
<path d="M890 397 c0 -2 15 -16 33 -33 l32 -29 -29 33 c-28 30 -36 37 -36 29z"/>
<path d="M3374 368 l-29 -33 33 29 c17 17 32 31 32 33 0 8 -8 1 -36 -29z"/>
</g>
</g>
  <g id="id7:id7" transform="matrix(1.25,0,0,1.25,0.0,0.0)"><g transform="translate(0.000000,200.000000) scale(0.040000,-0.040000)" fill="#242e21" stroke="none">
<path d="M27 4973 c-12 -11 -8 -3241 3 -3248 6 -3 10 -30 10 -60 0 -30 5 -57 10 -60 6 -3 10 -21 10 -40 0 -19 4 -37 10 -40 5 -3 10 -17 10 -30 0 -13 5 -27 10 -30 5 -3 10 -19 10 -35 0 -16 9 -45 20 -65 11 -20 20 -41 20 -48 0 -16 83 -182 102 -205 8 -9 22 -34 32 -54 9 -20 21 -40 26 -43 6 -3 19 -25 30 -49 10 -23 26 -49 35 -56 8 -7 15 -18 15 -24 0 -6 27 -38 60 -71 33 -33 60 -64 60 -70 0 -14 212 -225 226 -225 6 0 23 -13 39 -30 16 -16 34 -30 40 -30 6 0 24 -13 40 -30 16 -16 34 -30 40 -30 6 0 22 -11 35 -25 25 -26 395 -215 422 -215 9 0 20 -5 23 -10 3 -6 21 -10 40 -10 19 0 37 -4 40 -10 3 -5 17 -10 30 -10 13 0 27 -4 30 -10 3 -5 21 -10 40 -10 19 0 37 -5 40 -10 3 -6 17 -10 30 -10 13 0 27 -4 30 -10 3 -5 21 -10 40 -10 19 0 37 -5 40 -10 3 -6 35 -10 70 -10 35 0 67 -4 70 -10 8 -14 562 -14 570 0 3 6 35 10 70 10 35 0 67 5 70 10 3 6 21 10 40 10 19 0 37 5 40 10 3 6 17 10 30 10 13 0 27 4 30 10 3 5 21 10 40 10 19 0 37 4 40 10 3 5 17 10 30 10 13 0 27 5 30 10 3 6 21 10 40 10 19 0 37 5 40 10 3 6 14 10 23 10 27 0 397 189 422 215 13 14 29 25 35 25 6 0 24 14 40 30 16 17 34 30 40 30 6 0 24 13 40 30 16 16 34 30 40 30 13 0 225 212 225 225 0 6 27 37 60 70 33 33 60 65 60 71 0 6 7 17 15 24 9 7 25 33 35 56 11 24 24 46 30 49 5 3 17 23 26 43 10 20 24 45 32 54 19 23 102 189 102 205 0 7 9 28 20 48 11 20 20 49 20 65 0 16 4 32 10 35 6 3 10 17 10 30 0 13 4 27 10 30 5 3 10 21 10 40 0 19 4 37 10 40 5 3 10 30 10 59 0 28 5 57 10 62 7 7 9 557 8 1630 l-3 1619 -2121 3 c-1166 1 -2124 -1 -2127 -5z m4213 -1662 c0 -1076 -3 -1632 -10 -1636 -6 -3 -10 -17 -10 -30 0 -13 -4 -27 -10 -30 -5 -3 -10 -26 -10 -50 0 -24 -4 -47 -10 -50 -5 -3 -10 -17 -10 -30 0 -13 -4 -27 -10 -30 -5 -3 -10 -19 -10 -35 0 -16 -9 -45 -20 -65 -11 -20 -20 -41 -20 -48 0 -16 -83 -182 -102 -205 -8 -9 -22 -33 -31 -53 -9 -20 -23 -42 -32 -49 -8 -7 -15 -18 -15 -25 0 -6 -9 -20 -20 -30 -11 -10 -20 -23 -20 -29 0 -7 -27 -38 -60 -71 -33 -33 -60 -64 -60 -71 0 -12 -114 -124 -127 -124 -4 0 -7 41 -5 92 2 50 -1 101 -6 112 -6 12 -18 47 -27 78 -16 56 -35 85 -35 54 0 -8 4 -17 9 -20 5 -4 12 -25 16 -49 4 -23 12 -47 17 -54 5 -6 11 -62 14 -123 l5 -111 -63 -65 c-42 -43 -70 -64 -86 -64 -14 0 -36 -13 -52 -30 -15 -16 -33 -30 -40 -30 -7 0 -25 -13 -40 -30 -15 -16 -35 -30 -44 -30 -9 0 -16 -4 -16 -10 0 -5 -9 -10 -20 -10 -11 0 -20 -4 -20 -10 0 -5 -9 -10 -20 -10 -11 0 -20 -4 -20 -10 0 -5 -9 -10 -20 -10 -11 0 -20 -4 -20 -10 0 -5 -9 -10 -20 -10 -11 0 -20 -4 -20 -10 0 -5 -9 -10 -20 -10 -11 0 -20 -4 -20 -10 0 -5 -9 -10 -20 -10 -11 0 -20 -4 -20 -10 0 -5 -9 -10 -20 -10 -11 0 -20 -4 -20 -10 0 -5 -9 -10 -20 -10 -11 0 -20 -4 -20 -10 0 -5 -13 -10 -30 -10 -16 0 -30 -4 -30 -10 0 -5 -18 -10 -40 -10 -22 0 -40 -4 -40 -10 0 -5 -13 -10 -30 -10 -16 0 -30 -4 -30 -10 0 -5 -18 -10 -40 -10 -22 0 -40 -4 -40 -10 0 -5 -13 -10 -30 -10 -16 0 -30 -4 -30 -10 0 -5 -18 -10 -40 -10 -22 0 -40 -4 -40 -10 0 -6 -30 -10 -70 -10 -40 0 -70 -4 -70 -10 0 -6 -97 -10 -270 -10 -173 0 -270 4 -270 10 0 6 -30 10 -70 10 -40 0 -70 4 -70 10 0 6 -18 10 -40 10 -22 0 -40 5 -40 10 0 6 -13 10 -30 10 -16 0 -30 5 -30 10 0 6 -18 10 -40 10 -22 0 -40 5 -40 10 0 6 -13 10 -30 10 -16 0 -30 5 -30 10 0 6 -18 10 -40 10 -22 0 -40 5 -40 10 0 6 -13 10 -30 10 -16 0 -30 5 -30 10 0 6 -9 10 -20 10 -11 0 -20 5 -20 10 0 6 -9 10 -20 10 -11 0 -20 5 -20 10 0 6 -9 10 -20 10 -11 0 -20 5 -20 10 0 6 -9 10 -20 10 -11 0 -20 5 -20 10 0 6 -9 10 -20 10 -11 0 -20 5 -20 10 0 6 -9 10 -20 10 -11 0 -20 5 -20 10 0 6 -9 10 -20 10 -13 0 -20 7 -20 20 0 13 -7 20 -20 20 -11 0 -20 5 -20 10 0 6 -9 10 -20 10 -11 0 -20 5 -20 10 0 6 -9 10 -20 10 -11 0 -20 5 -20 10 0 6 -8 10 -19 10 -10 0 -29 13 -42 30 -13 16 -31 30 -39 30 -9 0 -22 9 -30 20 -8 11 -21 20 -29 20 -8 0 -36 22 -62 49 -26 27 -56 51 -66 53 -20 4 -21 15 -5 120 6 41 23 91 41 125 32 58 37 73 24 73 -10 -1 -43 -66 -43 -85 0 -8 -3 -15 -8 -15 -12 0 -32 -76 -32 -120 0 -24 -5 -40 -12 -40 -15 0 -78 60 -78 75 0 6 -27 37 -60 70 -33 33 -60 64 -60 71 0 6 -9 19 -20 29 -11 10 -20 24 -20 30 0 7 -7 18 -15 25 -9 7 -25 33 -35 56 -11 24 -24 45 -29 49 -14 8 -41 65 -41 86 0 10 -4 21 -10 24 -5 3 -10 18 -10 32 0 16 -7 27 -20 30 -11 3 -20 14 -20 24 0 10 -9 34 -20 54 -11 20 -20 44 -20 55 0 10 -5 22 -10 25 -6 3 -10 21 -10 40 0 19 -4 37 -10 40 -5 3 -10 21 -10 40 0 19 -4 37 -10 40 -5 3 -10 21 -10 40 0 19 -4 37 -10 40 -7 4 -10 560 -10 1636 l0 1629 2090 0 2090 0 0 -1629z"/>
<path d="M2057 4782 l-39 -17 126 0 c127 0 138 3 77 24 -49 16 -120 13 -164 -7z"/>
<path d="M2311 4750 c-11 -6 -9 -10 8 -19 11 -7 21 -17 21 -24 0 -7 17 -30 38 -53 59 -63 110 -175 120 -264 l9 -75 2 73 c0 40 -3 80 -9 90 -5 9 -14 36 -20 60 -6 23 -15 42 -20 42 -6 0 -10 7 -10 15 0 8 -4 15 -10 15 -5 0 -16 12 -24 28 -8 15 -28 42 -45 60 -17 18 -31 37 -31 42 0 14 -15 19 -29 10z"/>
<path d="M1931 4724 c-17 -38 -9 -39 29 -4 32 30 32 30 8 30 -17 0 -29 -8 -37 -26z"/>
<path d="M1897 4662 c-10 -10 -17 -23 -17 -29 0 -6 -6 -13 -13 -16 -15 -6 -52 -129 -44 -149 2 -7 14 19 26 59 12 40 28 78 35 85 17 18 39 59 33 64 -2 2 -11 -4 -20 -14z"/>
<path d="M1819 4350 c-4 -34 -5 -35 -51 -38 -25 -2 -52 -10 -58 -18 -7 -7 -24 -14 -39 -14 -15 0 -31 -4 -36 -9 -6 -4 -31 -16 -56 -25 -38 -15 -53 -29 -96 -94 -58 -87 -80 -173 -69 -267 12 -106 92 -222 193 -281 64 -38 172 -38 254 0 31 14 59 31 62 38 2 7 30 26 61 41 100 51 91 117 91 -663 l0 -685 -22 -3 c-12 -2 -44 8 -72 23 -28 14 -51 21 -51 15 0 -6 24 -21 53 -35 28 -14 72 -45 97 -70 42 -42 80 -58 80 -35 0 6 -4 10 -10 10 -5 0 -10 9 -10 19 0 19 65 81 85 81 5 0 21 9 35 20 22 16 23 20 8 25 -16 6 -17 45 -14 533 3 351 1 460 -4 327 -4 -110 -8 -348 -9 -530 l-1 -330 -35 -22 c-19 -13 -39 -23 -44 -23 -5 0 -18 -11 -29 -25 -23 -29 -28 -30 -36 -9 -3 9 -6 340 -6 735 0 565 -3 719 -13 719 -6 -1 -28 -14 -47 -30 -19 -17 -40 -30 -48 -30 -8 0 -39 -18 -70 -39 -36 -25 -82 -46 -124 -56 -61 -15 -72 -15 -120 -1 -29 8 -63 23 -76 33 -55 43 -102 86 -102 94 0 5 -13 30 -29 56 -52 86 -47 242 9 313 11 14 34 46 50 71 16 25 40 50 52 56 49 23 191 63 224 63 41 0 49 14 36 61 l-9 34 -4 -35z"/>
<path d="M2526 4301 c5 -4 32 -13 59 -18 69 -14 145 -44 174 -68 13 -11 44 -46 69 -79 60 -77 87 -174 72 -256 -12 -64 -69 -154 -115 -181 -16 -10 -35 -22 -41 -27 -6 -5 -21 -13 -35 -17 -13 -4 -27 -12 -30 -18 -4 -5 -41 -12 -83 -15 -81 -5 -95 -22 -19 -22 55 0 153 29 160 47 3 7 9 13 15 13 17 0 99 61 105 78 4 10 17 33 29 52 48 74 39 242 -17 320 -16 22 -29 44 -29 48 0 26 -138 122 -174 122 -8 0 -19 7 -26 15 -8 10 -31 15 -68 15 -32 0 -52 -4 -46 -9z"/>
<path d="M2253 3715 c-8 -22 -3 -24 37 -16 34 7 34 8 13 19 -29 16 -42 15 -50 -3z"/>
<path d="M2349 3680 c13 -11 30 -20 39 -20 8 0 23 -6 31 -14 24 -20 91 -28 91 -11 0 8 -15 17 -37 20 -36 6 -67 17 -105 36 -32 16 -44 9 -19 -11z"/>
<path d="M2254 3570 c0 -63 1 -89 3 -57 2 31 2 83 0 115 -2 31 -3 5 -3 -58z"/>
<path d="M2756 3351 c-3 -4 -18 -11 -33 -14 -35 -7 -130 -70 -114 -75 7 -2 29 7 50 21 60 40 109 57 161 57 61 0 103 -15 141 -51 38 -36 74 -41 38 -6 -21 21 -47 37 -111 68 -23 12 -125 12 -132 0z"/>
<path d="M1363 3286 c-39 -14 -58 -32 -23 -21 50 15 152 17 190 5 21 -7 44 -10 51 -7 8 2 1 8 -16 11 -16 4 -38 11 -47 17 -24 12 -115 9 -155 -5z"/>
<path d="M1645 3250 c-4 -6 -2 -10 3 -10 5 0 26 -23 46 -52 29 -42 36 -48 36 -29 0 41 -70 115 -85 91z"/>
<path d="M3045 3249 c-4 -5 0 -12 8 -15 15 -5 72 -113 87 -163 8 -26 8 -26 9 5 1 18 -15 63 -34 102 -33 67 -58 92 -70 71z"/>
<path d="M1238 3235 c-7 -9 -20 -24 -28 -33 -73 -81 -100 -142 -98 -227 l1 -60 7 50 c11 87 30 134 65 170 19 19 35 38 35 43 0 4 14 23 31 40 22 23 27 32 16 32 -9 0 -22 -7 -29 -15z"/>
<path d="M2541 3236 c-7 -8 -11 -27 -9 -43 3 -28 3 -27 24 14 14 29 17 43 9 43 -7 0 -18 -6 -24 -14z"/>
<path d="M3260 2951 c0 -5 15 -9 33 -9 36 0 102 -26 124 -48 16 -16 43 -19 43 -4 0 13 -74 50 -99 50 -11 0 -23 5 -26 10 -8 12 -75 13 -75 1z"/>
<path d="M3160 2925 c0 -18 4 -18 50 0 l35 13 -42 1 c-32 1 -43 -3 -43 -14z"/>
<path d="M940 2900 c-31 -10 -29 -11 48 -14 34 -2 62 0 62 5 0 5 -10 9 -22 9 -13 0 -32 2 -43 4 -11 3 -31 1 -45 -4z"/>
<path d="M784 2828 c-51 -54 -85 -104 -78 -111 4 -3 23 16 44 42 36 45 63 70 106 98 18 11 17 12 -7 12 -17 1 -38 -12 -65 -41z"/>
<path d="M3492 2853 c9 -10 25 -34 37 -53 21 -35 21 -35 21 -8 0 15 -7 33 -15 42 -8 8 -15 19 -15 25 0 6 -10 11 -22 11 -19 0 -20 -1 -6 -17z"/>
<path d="M2534 2804 c2 -25 13 -51 27 -66 35 -37 89 -115 89 -128 0 -6 -13 -13 -30 -16 -16 -4 -35 -13 -41 -20 -6 -8 -20 -14 -30 -14 -11 0 -19 -7 -19 -15 0 -15 13 -13 60 12 14 7 30 13 35 13 6 0 21 9 34 19 l24 18 -43 59 c-23 32 -48 64 -54 69 -10 9 -27 42 -50 95 -3 8 -4 -3 -2 -26z"/>
<path d="M1690 2697 c-19 -37 -38 -67 -42 -67 -5 0 -8 -7 -8 -15 0 -9 6 -12 15 -9 8 4 15 10 15 16 0 5 14 29 31 54 17 25 29 54 27 66 -2 16 -11 6 -38 -45z"/>
<path d="M3564 2719 c41 -145 44 -224 11 -303 -17 -39 -15 -56 2 -34 22 28 33 84 33 162 -1 93 -20 188 -40 194 -9 3 -11 -2 -6 -19z"/>
<path d="M687 2660 c-29 -95 -37 -166 -26 -220 11 -52 38 -118 39 -93 0 6 -7 39 -16 74 -16 63 -14 127 7 180 6 15 9 40 7 55 l-3 29 -8 -25z"/>
<path d="M1602 2588 c-18 -18 -14 -36 12 -50 75 -41 110 -57 115 -52 9 9 -41 44 -71 50 -23 5 -28 12 -28 35 0 31 -9 36 -28 17z"/>
<path d="M2433 2477 c-46 -18 -83 -36 -83 -42 0 -5 -15 -18 -33 -29 -20 -12 -27 -20 -19 -23 7 -3 23 3 35 14 40 34 86 63 100 63 23 0 87 29 87 40 0 6 -1 10 -2 10 -2 -1 -40 -15 -85 -33z"/>
<path d="M1770 2446 c0 -2 30 -18 67 -35 73 -35 113 -37 46 -3 -23 12 -44 26 -48 32 -6 9 -65 15 -65 6z"/>
<path d="M2642 2339 c-66 -11 -125 -36 -117 -48 6 -11 28 -5 61 16 11 7 38 14 60 16 l39 2 -2 -43 c-1 -24 -7 -49 -12 -56 -15 -17 -31 -136 -31 -226 0 -156 37 -270 107 -329 21 -17 45 -38 54 -46 21 -20 105 -45 149 -45 53 1 149 26 173 46 117 97 148 151 146 253 l-2 66 -7 -65 c-8 -70 -50 -164 -82 -181 -10 -5 -18 -15 -18 -22 -1 -7 -32 -27 -70 -44 -96 -46 -176 -46 -258 -1 -77 43 -98 63 -132 129 -43 85 -57 193 -41 326 7 59 17 115 22 126 15 27 38 120 33 129 -3 5 -8 7 -12 7 -4 -1 -31 -5 -60 -10z"/>
<path d="M3482 2298 c-35 -28 -77 -54 -95 -58 l-32 -8 32 -1 c47 -1 77 13 123 59 61 61 44 66 -28 8z"/>
<path d="M710 2310 c0 -36 38 -80 68 -80 25 1 26 1 7 12 -25 15 -54 49 -55 65 0 22 -20 24 -20 3z"/>
<path d="M1560 2275 c0 -20 6 -46 14 -58 8 -12 22 -69 31 -127 29 -177 6 -341 -57 -411 -16 -17 -36 -42 -45 -55 -8 -13 -44 -37 -80 -55 -58 -28 -72 -31 -126 -26 -34 3 -63 10 -65 16 -2 6 -12 11 -23 11 -22 0 -67 26 -86 49 -15 17 -26 11 -18 -10 6 -16 54 -47 100 -65 39 -16 173 -17 215 -2 29 10 44 20 81 54 45 43 98 127 112 180 30 109 15 400 -23 438 -14 14 -12 42 4 55 11 9 23 7 52 -8 22 -10 53 -22 69 -25 l30 -6 -23 20 c-13 10 -40 22 -60 26 -20 4 -46 13 -57 20 -33 23 -45 17 -45 -21z"/>
<path d="M2490 2262 c0 -5 -17 -13 -37 -19 -33 -9 -35 -11 -11 -12 33 -1 78 15 78 29 0 5 -7 10 -15 10 -8 0 -15 -4 -15 -8z"/>
<path d="M895 2200 c28 -10 66 -19 86 -19 53 -1 63 -19 44 -72 -38 -103 -47 -251 -20 -344 16 -54 77 -136 91 -122 4 4 -7 22 -24 40 -36 37 -72 138 -72 201 0 64 18 153 47 229 14 38 22 71 18 75 -4 4 -36 7 -71 8 -36 0 -69 5 -76 12 -7 7 -26 12 -42 11 -28 0 -26 -2 19 -19z"/>
<path d="M1868 2180 c48 -31 62 -46 62 -65 0 -16 5 -24 18 -23 51 2 138 -68 127 -102 -4 -11 -28 -38 -54 -60 -49 -42 -130 -169 -92 -145 11 6 71 93 71 102 0 14 46 44 63 39 12 -3 21 3 27 20 5 13 13 24 18 24 5 0 34 -24 65 -53 38 -35 57 -61 57 -76 0 -16 4 -21 15 -17 8 3 30 -9 51 -30 21 -19 39 -32 41 -30 17 16 -239 290 -306 327 -46 25 -103 66 -116 83 -14 18 -70 46 -91 46 -10 0 10 -18 44 -40z"/>
<path d="M2180 2212 c0 -4 36 -44 80 -89 44 -44 80 -86 80 -91 0 -16 54 -93 84 -121 14 -14 26 -30 26 -38 0 -7 4 -13 10 -13 5 0 18 -19 29 -42 15 -34 19 -38 20 -20 1 32 -25 81 -65 120 -19 18 -54 63 -78 100 -24 38 -51 74 -60 81 -21 18 -20 58 2 66 19 6 58 55 44 55 -6 0 -24 -13 -42 -30 -34 -31 -43 -31 -73 7 -17 22 -57 32 -57 15z"/>
<path d="M3210 2216 c0 -2 10 -32 21 -67 12 -35 25 -95 29 -134 l7 -70 1 65 c1 36 -3 83 -9 105 -6 22 -13 55 -16 73 -3 18 -11 32 -19 32 -8 0 -14 -2 -14 -4z"/>
<path d="M1884 2041 c-16 -24 -34 -53 -41 -65 -7 -12 -25 -32 -42 -46 -32 -27 -51 -67 -50 -103 0 -16 6 -9 20 22 11 25 28 50 38 57 28 20 114 150 109 166 -3 8 -16 -4 -34 -31z"/>
<path d="M2082 1714 c-2 -187 -4 -203 -23 -228 l-20 -26 114 0 c111 0 171 -11 192 -34 17 -18 85 -50 92 -42 4 4 -3 9 -15 13 -12 3 -22 9 -22 14 0 10 -77 49 -97 49 -8 0 -25 7 -38 16 -25 16 -25 19 -26 168 l-2 151 -11 -145 -11 -145 -60 0 -60 0 -5 205 -6 205 -2 -201z"/>
<path d="M1893 1742 c-7 -18 -26 -51 -43 -72 -16 -21 -30 -45 -30 -53 0 -9 -4 -18 -9 -22 -18 -10 -63 -119 -67 -159 -4 -38 -3 -37 16 19 11 33 27 65 35 71 8 6 15 14 15 18 0 17 45 105 72 138 20 26 28 46 26 65 l-3 28 -12 -33z"/>
<path d="M2346 1721 c-3 -5 5 -23 19 -39 14 -17 39 -59 55 -94 16 -36 35 -70 43 -76 8 -7 20 -33 27 -57 12 -44 30 -70 30 -43 0 26 -29 94 -64 152 -20 33 -36 64 -36 69 0 16 -68 98 -74 88z"/>
<path d="M1715 1686 c-20 -30 -70 -159 -94 -241 -10 -33 -20 -67 -24 -75 -18 -45 -67 -275 -66 -312 1 -27 3 -33 6 -18 32 186 119 478 184 619 23 49 19 66 -6 27z"/>
<path d="M2520 1691 c0 -5 6 -22 14 -38 20 -39 71 -168 90 -228 32 -96 95 -340 96 -367 0 -16 4 -28 9 -28 14 0 2 80 -29 200 -25 96 -73 249 -89 285 -11 22 -25 58 -32 80 -7 22 -19 47 -26 56 -7 8 -13 21 -13 27 0 6 -4 14 -10 17 -5 3 -10 2 -10 -4z"/>
<path d="M1962 1447 c-18 -7 -37 -19 -42 -26 -4 -8 -21 -20 -37 -27 -15 -7 -21 -13 -13 -13 9 -1 33 11 55 27 22 15 56 32 75 38 21 7 27 12 15 12 -11 0 -35 -5 -53 -11z"/>
<path d="M1805 1363 c-44 -23 -65 -44 -65 -64 0 -13 7 -10 34 15 18 17 44 39 57 48 30 22 14 22 -26 1z"/>
<path d="M2460 1375 c0 0 14 -11 30 -23 l30 -23 0 23 c0 19 -6 23 -30 24 -17 1 -30 0 -30 -1z"/>
<path d="M2520 1279 c0 -15 6 -32 14 -38 8 -7 22 -26 31 -44 8 -18 25 -47 35 -64 11 -18 29 -69 40 -113 21 -81 21 -81 1 -183 -10 -56 -26 -121 -34 -145 -15 -42 -9 -63 11 -39 16 19 42 117 42 158 0 21 5 41 10 44 6 3 10 16 10 29 0 13 16 39 36 60 25 25 34 42 29 54 -6 15 -10 13 -30 -12 l-23 -29 -16 38 c-9 20 -16 47 -17 59 0 11 -11 41 -24 66 -13 25 -29 56 -35 70 -6 14 -22 36 -34 50 -13 14 -28 34 -34 45 -11 19 -11 18 -12 -6z"/>
<path d="M1707 1218 c-15 -19 -27 -40 -27 -46 0 -7 -4 -12 -8 -12 -11 0 -47 -77 -56 -117 -10 -44 -27 -56 -60 -43 -35 13 -36 13 -36 -4 0 -8 15 -23 34 -34 30 -18 34 -26 40 -78 9 -71 45 -226 56 -237 14 -16 20 10 9 44 -36 123 -51 284 -29 314 4 6 10 23 14 40 10 40 44 112 56 120 15 9 42 65 38 77 -3 7 -16 -4 -31 -24z"/>
<path d="M3077 1143 c-25 -24 14 -30 53 -8 l25 14 -36 1 c-20 0 -39 -3 -42 -7z"/>
<path d="M3386 1141 c5 -5 21 -13 37 -16 22 -6 26 -4 21 9 -4 10 -18 16 -37 16 -19 0 -27 -4 -21 -9z"/>
<path d="M2983 1113 c-12 -2 -27 -11 -33 -19 -7 -8 -18 -14 -25 -14 -6 0 -20 -9 -30 -20 -10 -11 -23 -20 -29 -20 -16 -1 -64 -40 -49 -40 19 0 99 47 127 75 14 14 34 25 46 25 11 0 20 5 20 10 0 6 -1 9 -2 9 -2 -1 -13 -4 -25 -6z"/>
<path d="M3470 1110 c0 -5 5 -10 11 -10 6 0 24 -14 40 -31 19 -20 29 -26 29 -16 0 8 -14 27 -31 41 -32 27 -49 33 -49 16z"/>
<path d="M895 1089 c-38 -11 -74 -27 -78 -35 -4 -8 -14 -14 -21 -14 -15 0 -67 -39 -53 -40 4 0 38 16 75 36 75 41 149 64 204 64 86 0 253 -39 303 -70 18 -12 105 -33 111 -27 3 3 -21 14 -53 24 -32 9 -62 23 -68 29 -5 6 -35 16 -65 22 -190 38 -251 40 -355 11z"/>
</g>
</g>
</svg>
