<?xml version="1.0" encoding="UTF-8"?>
<svg version="1.0" viewBox="0 0 167.7 228.93" xmlns="http://www.w3.org/2000/svg" xmlns:cc="http://web.resource.org/cc/" xmlns:dc="http://purl.org/dc/elements/1.1/" xmlns:rdf="http://www.w3.org/1999/02/22-rdf-syntax-ns#">
<metadata>
<rdf:RDF>
<cc:Work rdf:about="">
<dc:format>image/svg+xml</dc:format>
<dc:type rdf:resource="http://purl.org/dc/dcmitype/StillImage"/>
</cc:Work>
</rdf:RDF>
</metadata>
<g transform="translate(-264.95 -372.4)">
<g>
<path d="m320.02 592.27c-37.544-17.609-51.829-35.883-54.574-67.677l0.26786-151.69 166.42 0.53571-0.80357 151.43c-3.0428 22.317-6.8214 44.163-49.448 68.392-26.098 11.376-44.698 6.746-61.866-0.98211z" fill="#ff0" fill-rule="evenodd" stroke="#000" stroke-width="1.0043px"/>
<g fill="#d22" fill-rule="evenodd" stroke="#000" stroke-width="1px">
<path d="m387.64 532.39c-4.9259 15.024-2.0203 20.961-2.0203 20.961-5.8838-22.36-4.2166-35.281-0.75761-45.962 11.314-24.501-3.1827-36.945-0.50508-51.013 9.8897-34.64-1.4818-40.578-3.5355-59.094-1.3352-10.849-1.8023-10.819-0.75762-15.657 0.92324-3.4582 2.7507-4.6557 4.2932-6.566-2.0324 0.16183-4.4221 0.96993-6.0609 3.5355-15.959 21.304-3.9001 36.889-5.3033 55.306l-10.859 73.741-12.374 19.951v40.154l71.468-8.0812c14.903-16.883 11.783-61.738-0.25254-91.671-10.088-26.135-4.5221-38.285-1.9572-53.664 1.8061-9.7776-7.821-16.943-8.5863-29.042-0.1832-2.1595-0.04271-4.3652 0.94702-6.6923l2.0203-3.0305c-5.5079 2.0556-8.4209 8.3723-9.5964 13.637-1.3505 5.6931-0.65669 10.732 0.50507 13.89 4.4124 14.279-1.4419 26.744-5.5558 40.154-1.9862 11.224 0.07417 19.075 2.0203 27.022 3.2518 37.157-2.3234 36.358-5.3033 46.72-3.6857 5.4937-6.1614 10.584-7.8287 15.405z"/>
<path d="m309.36 532.39c4.9259 15.024 2.0203 20.961 2.0203 20.961 5.8838-22.36 4.2166-35.281 0.75761-45.962-11.314-24.501 3.1827-36.945 0.50508-51.013-9.8897-34.64 1.4818-40.578 3.5355-59.094 1.3352-10.849 1.8023-10.819 0.75762-15.657-0.92324-3.4582-2.7507-4.6557-4.2932-6.566 2.0324 0.16183 4.4221 0.96993 6.0609 3.5355 15.959 21.304 3.9001 36.889 5.3033 55.306l10.859 73.741 12.374 19.951v40.154l-71.468-8.0812c-14.903-16.883-11.783-61.738 0.25254-91.671 10.088-26.135 4.5221-38.285 1.9572-53.664-1.8061-9.7776 7.821-16.943 8.5863-29.042 0.1832-2.1595 0.04271-4.3652-0.94702-6.6923l-2.0203-3.0305c5.5079 2.0556 8.4209 8.3723 9.5964 13.637 1.3505 5.6931 0.65669 10.732-0.50507 13.89-4.4124 14.279 1.4419 26.744 5.5558 40.154 1.9862 11.224-0.07417 19.075-2.0203 27.022-3.2518 37.157 2.3234 36.358 5.3033 46.72 3.6857 5.4937 6.1614 10.584 7.8287 15.405z"/>
</g>
<path d="m347.59 515.56c2.5344-3.7415 6.2808-12.604 7.4742-17.016 2.6322 5.8361 5.8703 10.157 9.849 12.627l2.7779-4.5457c1.1864 3.5737 4.4747 6.0964 8.3338 8.3338 0.98794-0.58926 1.3487-1.1785 1.7678-1.7678 7.9188 4.8888 16.581 7.0527 26.517 4.5457-7.574-5.3695-17.412-8.808-19.698-18.688l7.8287-0.50508c-7.0014-5.5253-12.887-12.188-16.162-20.456l5.8084-0.25254c-5.0593-7.4606-9.9916-15.03-13.89-23.486 2.3304-0.33231 4.9424 0.17993 6.8185-1.5152-8.8746-6.7528-11.664-13.364-13.385-19.951l5.3033 0.25254c-3.3741-5.4029-6.9034-10.775-7.8287-16.668 1.8635-0.10451 3.1666-0.58267 4.5457-1.0102-4.4151-6.2965-10.059-12.357-10.354-19.445l4.5457-0.25254c-4.1399-4.7605-8.4669-11.355-9.7903-17.606" fill="green" fill-rule="evenodd" stroke="#000" stroke-width="1px"/>
<path d="m347.81 515.43c-2.5564-3.7414-6.8756-12.47-8.0794-16.881-2.655 5.8359-5.9212 10.157-9.9345 12.627l-2.802-4.5456c-1.1966 3.5736-4.5135 6.0962-8.4061 8.3335-0.99652-0.58924-1.3604-1.1785-1.7831-1.7677-7.9875 4.8887-16.725 7.0525-26.747 4.5456 7.6398-5.3693 17.563-8.8078 19.869-18.687l-7.8966-0.50507c7.0622-5.5252 12.999-12.188 16.303-20.455l-5.8588-0.25253c5.1032-7.4603 10.078-15.03 14.01-23.485-2.3507-0.3323-4.9853 0.17993-6.8777-1.5152 8.9517-6.7526 11.766-13.364 13.501-19.95l-5.3493 0.25253c3.4034-5.4028 6.9633-10.774 7.8966-16.667-1.8797-0.10451-3.1941-0.58266-4.5852-1.0101 4.4535-6.2963 10.147-12.356 10.444-19.445l-4.5852-0.25253c4.1759-4.7604 9.9814-11.176 11.316-17.427" fill="green" fill-rule="evenodd" stroke="#000" stroke-width="1.0043px"/>
<g transform="matrix(-1 0 0 1 694.9 0)" fill="none" stroke="#000" stroke-width="1px">
<path d="m355.24 464.71-0.42027 6.764-1.7857-0.17857c0.82449 2.3192 1.9542 4.4859 3.1097 6.6396"/>
<path d="m384.84 499.17c-3.9966-0.65805-7.5588-2.6194-10.379-6.8074-0.5782 1.2653-1.4392 2.4741-2.8572 3.5714-3.8338-3.3945-5.0463-5.806-6.25-8.2143-0.2114 0.31951-0.41095 0.63112-1.6071 1.6072-3.2427-3.6413-5.9482-7.4617-7.6786-11.607l0.17857 4.6429c-0.86939 0.15945-1.5462 0.35742-3.2143 0.35714-0.77798 3.7038-3.7245 7.9202-5.8316 11.126"/>
<path d="m376.44 478.1c-2.3463-0.33701-4.5962-1.445-6.6071-4.4643-0.25945 0.6952-1.2256 1.2702-2.1537 2.2998-1.9745-1.6348-3.947-3.252-6.25-7.6786l-2.1428 1.9643c-3.1625-2.6743-4.4904-6.2239-6.2184-9.6952-1.0332 2.02-3.4373 4.7787-5.4754 6.9661"/>
<path d="m368.41 454.4c-2.0929-1.1631-4.2442-2.219-5.3572-5.1786-0.65734 0.53591-0.94009 1.0183-2.7002 1.7118-2.5499-2.056-3.9591-4.3971-5.1786-6.7857-1.7982-1.2594-3.0889-2.5572-4.0657-3.9809-0.5484 1.6497-2.1617 3.53-3.5516 4.8431"/>
<path d="m361.98 432.92c-2.259-1.5219-3.3928-4.4805-3.0357-4.6428-0.40677 0.84574-0.97119 1.3047-2.6894 2.4783-3.4243-2.9967-6.4996-6.143-8.75-9.6429"/>
<path d="m360.02 416.43-6.8922-5.9253c-0.88538 1.3074-1.6148 7.2379-6.0615 10.862"/>
<path d="m348.49 392.47c1.049 1.0314 2.6654 2.4652 4.991 3.6562"/>
<path d="m353.97 397.61c-0.62995 2.0798-3.7216 6.0265-6.674 8.438"/>
<path d="m350.42 402.93c0.51856 3.3036 1.8798 6.7613 5.0217 9.5698"/>
<path d="m353.13 427.73c-0.08509 4.2239-0.11706 8.1885-2.0166 12.247"/>
<path d="m354.17 443.34c0.44013 1.8993 0.54451 4.5233 0.65116 6.9228-0.97641 0.22663-1.7705 0.58662-2.5848 0.65114 1.3028 2.3982 2.16 4.1111 2.4576 6.1742-0.34837 0.63813-0.69295 1.9792-1.4691 3.0899"/>
<path d="m356.21 482.65c0.14557 1.6031 0.62069 3.0085 1.6071 4.1071l-0.31567 7.3954c-0.39559 0.45169-1.2547 0.78751-2.3214 1.0714l-0.17857 3.2143"/>
</g>
<g fill="none" stroke="#000" stroke-width="1px">
<path d="m355.24 464.71-0.42027 6.764-1.7857-0.17857c0.82449 2.3192 1.9542 4.4859 3.1097 6.6396"/>
<path d="m384.84 499.17c-3.9966-0.65805-7.5588-2.6194-10.379-6.8074-0.5782 1.2653-1.4392 2.4741-2.8572 3.5714-3.8338-3.3945-5.0463-5.806-6.25-8.2143-0.2114 0.31951-0.41095 0.63112-1.6071 1.6072-3.2427-3.6413-5.9482-7.4617-7.6786-11.607l0.17857 4.6429c-0.86939 0.15945-1.5462 0.35742-3.2143 0.35714-0.77798 3.7038-3.472 7.9833-5.579 11.189"/>
<path d="m376.44 478.1c-2.3463-0.33701-4.5962-1.445-6.6071-4.4643-0.25945 0.6952-1.2256 1.2702-2.1537 2.2998-1.9745-1.6348-3.947-3.252-6.25-7.6786l-2.1428 1.9643c-3.1625-2.6743-4.4904-6.2239-6.2184-9.6952-1.0332 2.02-3.9423 5.1575-5.9804 7.345"/>
<path d="m368.41 454.4c-2.0929-1.1631-4.2442-2.219-5.3572-5.1786-0.65734 0.53591-0.94009 1.0183-2.7002 1.7118-2.5499-2.056-3.9591-4.3971-5.1786-6.7857-1.7982-1.2594-3.0889-2.5572-4.0657-3.9809-0.5484 1.6497-2.4774 4.0351-3.8673 5.3482"/>
<path d="m361.98 432.92c-2.259-1.5219-3.3928-4.4805-3.0357-4.6428-0.40677 0.84574-0.97119 1.3047-2.6894 2.4783-3.4243-2.9967-6.4996-6.143-8.75-9.6429"/>
<path d="m359.83 416.43-6.7028-5.9253c-0.88538 1.3074-1.6148 7.2379-6.0615 10.862"/>
<path d="m348.68 392.4c1.049 1.0314 2.034 2.339 4.3597 3.53"/>
<path d="m353.47 397.99c-0.62995 2.0798-3.4691 5.6477-6.4215 8.0592"/>
<path d="m350.55 402.74c0.51856 3.3036 1.7535 6.9507 4.8954 9.7592"/>
<path d="m353.13 427.73c-0.08509 4.2239-0.11706 8.1885-2.0166 12.247"/>
<path d="m354.17 443.34c0.44013 1.8993 0.54451 4.5233 0.65116 6.9228-0.97641 0.22663-1.7705 0.58662-2.5848 0.65114 1.3028 2.3982 2.16 4.1111 2.4576 6.1742-0.34837 0.63813-0.69295 1.9792-1.4691 3.0899"/>
<path d="m356.21 482.65c0.14557 1.6031 0.62069 3.0085 1.6071 4.1071l-0.31567 7.3954c-0.39559 0.45169-1.2547 0.78751-2.3214 1.0714l-0.17857 3.2143"/>
</g>
<path d="m339.35 498.92-4.6088 7.5761c2.0838 5.5587 4.8497 10.874 9.2808 15.594l8.5863-0.1894c5.4345-3.7558 8.2942-7.8628 10.038-12.122l-7.513-10.48-7.513 17.046-8.2706-17.425z" fill="green" fill-rule="evenodd" stroke="#000" stroke-width="1px"/>
<path d="m342.6 505.84 0.34724 32.735 12.753 0.12627-0.3788-38.891-7.7024 16.794-5.0192-10.764z" fill-rule="evenodd" stroke="#000" stroke-width="1px"/>
<path d="m274.59 558.15c16.533-18.377 38.67-10.878 46.887 4.4156 2.0868-32.114 49.349-38.204 56.19 1.1364 11.962-20.796 34.169-20.493 46.341-7.8287-31.868 57.949-107.94 61.098-149.42 2.2767z" fill-rule="evenodd" stroke="#000201" stroke-width="1px"/>
</g>
</g>
</svg>
