<?xml version="1.0" standalone="no"?>
<!DOCTYPE svg PUBLIC "-//W3C//DTD SVG 1.1//EN"
 "http://www.w3.org/Graphics/SVG/1.1/DTD/svg11.dtd">
<!-- Created with svg_stack (http://github.com/astraw/svg_stack) -->
<svg xmlns="http://www.w3.org/2000/svg" xmlns:sodipodi="http://sodipodi.sourceforge.net/DTD/sodipodi-0.dtd" version="1.1" width="215.0" height="250.0">
  <defs/>
  <g id="id0:id0" transform="matrix(1.25,0,0,1.25,0.0,0.0)"><g transform="translate(0.000000,200.000000) scale(0.040000,-0.040000)" fill="#fffffe" stroke="none">
<path d="M0 2500 l0 -2500 2150 0 2150 0 0 2500 0 2500 -2150 0 -2150 0 0 -2500z m4288 856 c1 -1251 -1 -1631 -10 -1637 -7 -5 -11 -28 -9 -63 1 -35 -2 -56 -8 -56 -6 0 -11 -18 -11 -39 0 -24 -5 -41 -14 -44 -9 -3 -12 -15 -9 -31 3 -15 1 -26 -6 -26 -6 0 -11 -17 -11 -40 0 -22 -4 -40 -10 -40 -5 0 -10 -9 -10 -19 0 -10 -6 -21 -14 -24 -9 -3 -12 -15 -9 -31 3 -15 1 -26 -6 -26 -6 0 -11 -9 -11 -20 0 -11 -4 -20 -10 -20 -5 0 -10 -9 -10 -20 0 -11 -4 -20 -10 -20 -5 0 -10 -9 -10 -20 0 -11 -4 -20 -10 -20 -5 0 -10 -8 -10 -18 0 -9 -9 -23 -20 -30 -11 -7 -20 -21 -20 -32 0 -11 -4 -20 -10 -20 -5 0 -10 -8 -10 -18 0 -9 -9 -23 -20 -30 -11 -7 -20 -21 -20 -32 0 -11 -4 -20 -10 -20 -5 0 -10 -8 -10 -18 0 -9 -9 -23 -20 -30 -11 -7 -20 -19 -20 -26 0 -8 -27 -40 -60 -72 -33 -31 -60 -62 -60 -69 0 -15 -221 -235 -236 -235 -7 0 -24 -13 -37 -30 -14 -16 -32 -30 -40 -30 -9 0 -27 -13 -40 -30 -14 -16 -32 -30 -40 -30 -9 0 -27 -13 -40 -30 -14 -16 -33 -30 -41 -30 -9 0 -16 -4 -16 -10 0 -5 -9 -10 -20 -10 -11 0 -20 -4 -20 -10 0 -5 -9 -10 -20 -10 -11 0 -20 -4 -20 -10 0 -5 -9 -10 -20 -10 -11 0 -20 -4 -20 -10 0 -5 -9 -10 -20 -10 -11 0 -20 -4 -20 -10 0 -5 -9 -10 -20 -10 -11 0 -20 -4 -20 -10 0 -5 -9 -10 -20 -10 -11 0 -20 -4 -20 -10 0 -5 -9 -10 -20 -10 -11 0 -20 -4 -20 -10 0 -5 -9 -10 -20 -10 -11 0 -20 -5 -20 -11 0 -7 -11 -9 -26 -6 -16 3 -28 0 -31 -9 -3 -9 -20 -14 -44 -14 -21 0 -39 -4 -39 -10 0 -5 -13 -10 -30 -10 -16 0 -30 -4 -30 -10 0 -5 -18 -10 -40 -10 -22 0 -40 -4 -40 -10 0 -5 -9 -10 -20 -10 -11 0 -20 -5 -20 -11 0 -6 -18 -9 -47 -8 -30 2 -48 -1 -51 -9 -2 -8 -28 -12 -73 -12 -39 0 -69 -4 -69 -10 0 -15 -577 -14 -582 2 -3 8 -26 11 -68 9 -43 -2 -65 2 -71 11 -5 7 -22 11 -42 10 -23 -2 -36 2 -40 12 -4 9 -13 12 -27 9 -13 -4 -25 0 -31 8 -5 8 -21 12 -42 11 -23 -2 -36 2 -40 11 -3 10 -14 13 -31 10 -15 -3 -26 -1 -26 6 0 6 -17 11 -40 11 -22 0 -40 5 -40 10 0 6 -13 10 -30 10 -16 0 -30 5 -30 10 0 6 -9 10 -20 10 -11 0 -20 5 -20 10 0 6 -9 10 -20 10 -11 0 -20 5 -20 10 0 6 -9 10 -20 10 -11 0 -20 5 -20 10 0 6 -9 10 -20 10 -11 0 -20 5 -20 10 0 6 -9 10 -20 10 -11 0 -20 5 -20 10 0 6 -9 10 -20 10 -11 0 -20 5 -20 10 0 6 -9 10 -20 10 -11 0 -20 5 -20 10 0 6 -9 10 -20 10 -11 0 -20 5 -20 10 0 6 -7 10 -16 10 -8 0 -27 14 -41 30 -13 17 -31 30 -40 30 -8 0 -26 14 -40 30 -13 17 -31 30 -40 30 -8 0 -26 13 -40 30 -13 16 -31 30 -38 30 -8 0 -39 27 -70 59 -31 33 -67 61 -78 63 -14 2 -23 11 -25 25 -2 12 -17 34 -33 48 -17 13 -28 29 -25 34 3 4 -24 36 -59 71 -36 34 -63 65 -60 70 3 5 -6 17 -20 28 -14 11 -25 27 -25 36 0 9 -4 16 -10 16 -5 0 -10 9 -10 20 0 11 -9 25 -20 32 -11 7 -20 21 -20 30 0 10 -4 18 -10 18 -5 0 -10 9 -10 19 0 11 -9 27 -21 35 -12 8 -18 19 -14 25 3 6 -1 14 -9 17 -9 3 -16 15 -16 25 0 10 -4 19 -10 19 -5 0 -10 9 -10 20 0 11 -4 20 -10 20 -5 0 -10 9 -10 20 0 11 -5 20 -11 20 -7 0 -9 11 -6 26 3 16 0 28 -9 31 -8 3 -14 14 -14 24 0 10 -4 19 -10 19 -5 0 -10 18 -10 40 0 23 -5 40 -11 40 -7 0 -9 11 -6 26 3 16 0 28 -9 31 -9 3 -14 20 -14 44 0 21 -5 39 -11 39 -6 0 -9 21 -8 57 2 37 -1 58 -9 61 -9 3 -12 381 -12 1631 0 895 3 1631 7 1634 3 4 965 6 2137 5 l2131 -3 3 -1629z"/>
<path d="M2137 4504 c-15 -20 -16 -28 -7 -39 7 -8 21 -15 31 -15 14 0 17 6 14 31 -6 45 -17 51 -38 23z"/>
</g>
</g>
  <g id="id1:id1" transform="matrix(1.25,0,0,1.25,0.0,0.0)"><g transform="translate(0.000000,200.000000) scale(0.040000,-0.040000)" fill="#c1c1c0" stroke="none">
<path d="M15 4978 c-3 -7 -4 -744 -3 -1638 l3 -1625 3 1633 2 1632 2130 0 2130 0 3 -1632 2 -1633 0 1635 0 1635 -2133 3 c-1701 2 -2134 0 -2137 -10z"/>
<path d="M1618 4703 c-10 -2 -18 -9 -18 -14 0 -13 12 -11 34 6 20 15 16 17 -16 8z"/>
<path d="M2448 4540 c-7 -11 -18 -20 -25 -20 -7 0 -13 -4 -13 -10 0 -5 7 -10 15 -10 8 0 15 4 15 9 0 5 9 11 20 14 11 3 20 12 20 21 0 22 -17 20 -32 -4z"/>
<path d="M2126 4513 l-29 -36 22 -19 c13 -10 34 -18 47 -18 21 0 24 5 24 38 -1 31 -18 72 -31 72 -2 0 -17 -16 -33 -37z m49 -32 c3 -25 0 -31 -14 -31 -10 0 -24 7 -31 15 -9 11 -8 19 7 39 21 28 32 22 38 -23z"/>
<path d="M1204 3563 c-3 -10 -12 -31 -21 -46 -24 -45 -64 -220 -53 -231 11 -11 16 0 29 64 18 83 48 179 65 205 15 22 15 25 1 25 -9 0 -18 -8 -21 -17z"/>
<path d="M1720 3573 c-58 -21 -100 -46 -100 -58 0 -21 19 -18 54 8 17 13 43 27 59 31 15 3 27 11 27 16 0 11 -16 12 -40 3z"/>
<path d="M1559 3484 c-7 -9 -14 -25 -16 -36 -2 -11 -21 -38 -43 -59 -22 -22 -40 -43 -40 -48 0 -6 -13 -30 -29 -54 -30 -44 -65 -67 -102 -67 -29 0 -99 -24 -99 -33 0 -13 109 4 155 24 29 13 47 30 61 56 23 45 121 173 133 173 5 0 11 8 15 18 3 9 9 23 12 30 8 18 -31 15 -47 -4z"/>
<path d="M2004 3025 c-4 -8 -14 -15 -24 -15 -10 0 -31 -10 -47 -23 -15 -12 -47 -35 -70 -51 -30 -20 -43 -36 -43 -52 0 -12 -10 -30 -22 -39 l-23 -17 25 7 c52 15 81 36 76 53 -8 28 37 71 83 78 25 4 41 12 41 21 0 7 7 16 15 19 17 7 21 34 5 34 -6 0 -13 -7 -16 -15z"/>
<path d="M2740 3006 c0 -20 5 -36 10 -36 6 0 10 13 10 29 0 17 -4 33 -10 36 -6 4 -10 -8 -10 -29z"/>
<path d="M2758 2824 c-2 -12 -20 -16 -78 -20 -131 -7 -263 -26 -248 -35 7 -5 25 -9 40 -9 22 0 27 -5 30 -27 2 -22 9 -29 31 -31 31 -4 37 13 7 21 -29 7 -25 24 10 42 41 21 209 17 220 -5 4 -8 14 -30 23 -48 9 -19 17 -40 17 -48 0 -19 -34 -18 -51 2 -30 36 -129 70 -129 44 0 -5 9 -10 20 -10 11 0 40 -15 64 -34 25 -19 61 -36 85 -40 29 -4 41 -11 41 -23 0 -13 3 -14 12 -5 9 9 9 15 0 24 -7 7 -12 20 -12 29 0 10 -13 47 -30 82 -16 36 -30 75 -30 86 0 24 -17 28 -22 5z"/>
<path d="M2232 2753 c-9 -4 -10 -8 -2 -18 9 -10 18 -11 41 -3 16 5 29 14 29 19 0 10 -46 11 -68 2z"/>
<path d="M33 1650 c0 -30 2 -43 4 -27 2 15 2 39 0 55 -2 15 -4 2 -4 -28z"/>
<path d="M4263 1650 c0 -30 2 -43 4 -27 2 15 2 39 0 55 -2 15 -4 2 -4 -28z"/>
<path d="M53 1560 c0 -25 2 -35 4 -22 2 12 2 32 0 45 -2 12 -4 2 -4 -23z"/>
<path d="M4243 1560 c0 -25 2 -35 4 -22 2 12 2 32 0 45 -2 12 -4 2 -4 -23z"/>
<path d="M72 1480 c0 -14 2 -19 5 -12 2 6 2 18 0 25 -3 6 -5 1 -5 -13z"/>
<path d="M4222 1480 c0 -14 2 -19 5 -12 2 6 2 18 0 25 -3 6 -5 1 -5 -13z"/>
<path d="M93 1420 c0 -25 2 -35 4 -22 2 12 2 32 0 45 -2 12 -4 2 -4 -23z"/>
<path d="M4203 1420 c0 -25 2 -35 4 -22 2 12 2 32 0 45 -2 12 -4 2 -4 -23z"/>
<path d="M112 1360 c0 -14 2 -19 5 -12 2 6 2 18 0 25 -3 6 -5 1 -5 -13z"/>
<path d="M4182 1360 c0 -14 2 -19 5 -12 2 6 2 18 0 25 -3 6 -5 1 -5 -13z"/>
<path d="M132 1300 c0 -14 2 -19 5 -12 2 6 2 18 0 25 -3 6 -5 1 -5 -13z"/>
<path d="M4162 1300 c0 -14 2 -19 5 -12 2 6 2 18 0 25 -3 6 -5 1 -5 -13z"/>
<path d="M152 1260 c0 -14 2 -19 5 -12 2 6 2 18 0 25 -3 6 -5 1 -5 -13z"/>
<path d="M4142 1260 c0 -14 2 -19 5 -12 2 6 2 18 0 25 -3 6 -5 1 -5 -13z"/>
<path d="M172 1220 c0 -14 2 -19 5 -12 2 6 2 18 0 25 -3 6 -5 1 -5 -13z"/>
<path d="M4122 1220 c0 -14 2 -19 5 -12 2 6 2 18 0 25 -3 6 -5 1 -5 -13z"/>
<path d="M192 1180 c0 -14 2 -19 5 -12 2 6 2 18 0 25 -3 6 -5 1 -5 -13z"/>
<path d="M4102 1180 c0 -14 2 -19 5 -12 2 6 2 18 0 25 -3 6 -5 1 -5 -13z"/>
<path d="M4082 1140 c0 -14 2 -19 5 -12 2 6 2 18 0 25 -3 6 -5 1 -5 -13z"/>
<path d="M252 1080 c0 -14 2 -19 5 -12 2 6 2 18 0 25 -3 6 -5 1 -5 -13z"/>
<path d="M4042 1080 c0 -14 2 -19 5 -12 2 6 2 18 0 25 -3 6 -5 1 -5 -13z"/>
<path d="M272 1040 c0 -14 2 -19 5 -12 2 6 2 18 0 25 -3 6 -5 1 -5 -13z"/>
<path d="M4022 1040 c0 -14 2 -19 5 -12 2 6 2 18 0 25 -3 6 -5 1 -5 -13z"/>
<path d="M312 980 c0 -14 2 -19 5 -12 2 6 2 18 0 25 -3 6 -5 1 -5 -13z"/>
<path d="M3982 980 c0 -14 2 -19 5 -12 2 6 2 18 0 25 -3 6 -5 1 -5 -13z"/>
<path d="M332 940 c0 -14 2 -19 5 -12 2 6 2 18 0 25 -3 6 -5 1 -5 -13z"/>
<path d="M3962 940 c0 -14 2 -19 5 -12 2 6 2 18 0 25 -3 6 -5 1 -5 -13z"/>
<path d="M3922 880 c0 -14 2 -19 5 -12 2 6 2 18 0 25 -3 6 -5 1 -5 -13z"/>
<path d="M3802 740 c0 -14 2 -19 5 -12 2 6 2 18 0 25 -3 6 -5 1 -5 -13z"/>
<path d="M554 655 c1 -13 8 -20 24 -21 17 -1 18 -1 3 3 -11 2 -22 12 -24 21 -3 12 -4 11 -3 -3z"/>
<path d="M708 513 c6 -2 18 -2 25 0 6 3 1 5 -13 5 -14 0 -19 -2 -12 -5z"/>
<path d="M3568 513 c6 -2 18 -2 25 0 6 3 1 5 -13 5 -14 0 -19 -2 -12 -5z"/>
<path d="M788 453 c6 -2 18 -2 25 0 6 3 1 5 -13 5 -14 0 -19 -2 -12 -5z"/>
<path d="M3488 453 c6 -2 18 -2 25 0 6 3 1 5 -13 5 -14 0 -19 -2 -12 -5z"/>
<path d="M868 393 c6 -2 18 -2 25 0 6 3 1 5 -13 5 -14 0 -19 -2 -12 -5z"/>
<path d="M3408 393 c6 -2 18 -2 25 0 6 3 1 5 -13 5 -14 0 -19 -2 -12 -5z"/>
<path d="M948 333 c6 -2 18 -2 25 0 6 3 1 5 -13 5 -14 0 -19 -2 -12 -5z"/>
<path d="M3328 333 c6 -2 18 -2 25 0 6 3 1 5 -13 5 -14 0 -19 -2 -12 -5z"/>
<path d="M988 313 c6 -2 18 -2 25 0 6 3 1 5 -13 5 -14 0 -19 -2 -12 -5z"/>
<path d="M3288 313 c6 -2 18 -2 25 0 6 3 1 5 -13 5 -14 0 -19 -2 -12 -5z"/>
<path d="M1028 293 c6 -2 18 -2 25 0 6 3 1 5 -13 5 -14 0 -19 -2 -12 -5z"/>
<path d="M3248 293 c6 -2 18 -2 25 0 6 3 1 5 -13 5 -14 0 -19 -2 -12 -5z"/>
<path d="M1068 273 c6 -2 18 -2 25 0 6 3 1 5 -13 5 -14 0 -19 -2 -12 -5z"/>
<path d="M3208 273 c6 -2 18 -2 25 0 6 3 1 5 -13 5 -14 0 -19 -2 -12 -5z"/>
<path d="M1108 253 c6 -2 18 -2 25 0 6 3 1 5 -13 5 -14 0 -19 -2 -12 -5z"/>
<path d="M3168 253 c6 -2 18 -2 25 0 6 3 1 5 -13 5 -14 0 -19 -2 -12 -5z"/>
<path d="M1148 233 c6 -2 18 -2 25 0 6 3 1 5 -13 5 -14 0 -19 -2 -12 -5z"/>
<path d="M3128 233 c6 -2 18 -2 25 0 6 3 1 5 -13 5 -14 0 -19 -2 -12 -5z"/>
<path d="M1188 213 c6 -2 18 -2 25 0 6 3 1 5 -13 5 -14 0 -19 -2 -12 -5z"/>
<path d="M3088 213 c6 -2 18 -2 25 0 6 3 1 5 -13 5 -14 0 -19 -2 -12 -5z"/>
<path d="M1228 193 c6 -2 18 -2 25 0 6 3 1 5 -13 5 -14 0 -19 -2 -12 -5z"/>
<path d="M3048 193 c6 -2 18 -2 25 0 6 3 1 5 -13 5 -14 0 -19 -2 -12 -5z"/>
<path d="M1268 173 c6 -2 18 -2 25 0 6 3 1 5 -13 5 -14 0 -19 -2 -12 -5z"/>
<path d="M3008 173 c6 -2 18 -2 25 0 6 3 1 5 -13 5 -14 0 -19 -2 -12 -5z"/>
<path d="M1313 153 c9 -2 25 -2 35 0 9 3 1 5 -18 5 -19 0 -27 -2 -17 -5z"/>
<path d="M2968 153 c6 -2 18 -2 25 0 6 3 1 5 -13 5 -14 0 -19 -2 -12 -5z"/>
<path d="M1378 133 c12 -2 32 -2 45 0 12 2 2 4 -23 4 -25 0 -35 -2 -22 -4z"/>
<path d="M2878 133 c12 -2 32 -2 45 0 12 2 2 4 -23 4 -25 0 -35 -2 -22 -4z"/>
<path d="M1448 113 c6 -2 18 -2 25 0 6 3 1 5 -13 5 -14 0 -19 -2 -12 -5z"/>
<path d="M2813 113 c9 -2 25 -2 35 0 9 3 1 5 -18 5 -19 0 -27 -2 -17 -5z"/>
<path d="M1513 93 c9 -2 25 -2 35 0 9 3 1 5 -18 5 -19 0 -27 -2 -17 -5z"/>
<path d="M2738 93 c12 -2 32 -2 45 0 12 2 2 4 -23 4 -25 0 -35 -2 -22 -4z"/>
<path d="M1588 73 c6 -2 18 -2 25 0 6 3 1 5 -13 5 -14 0 -19 -2 -12 -5z"/>
<path d="M2688 73 c6 -2 18 -2 25 0 6 3 1 5 -13 5 -14 0 -19 -2 -12 -5z"/>
<path d="M1653 53 c9 -2 25 -2 35 0 9 3 1 5 -18 5 -19 0 -27 -2 -17 -5z"/>
<path d="M2618 53 c12 -2 32 -2 45 0 12 2 2 4 -23 4 -25 0 -35 -2 -22 -4z"/>
<path d="M1748 33 c17 -2 47 -2 65 0 17 2 3 4 -33 4 -36 0 -50 -2 -32 -4z"/>
<path d="M2473 33 c20 -2 54 -2 75 0 20 2 3 4 -38 4 -41 0 -58 -2 -37 -4z"/>
<path d="M2002 13 c82 -2 214 -2 295 0 82 1 15 3 -147 3 -162 0 -229 -2 -148 -3z"/>
</g>
</g>
  <g id="id2:id2" transform="matrix(1.25,0,0,1.25,0.0,0.0)"><g transform="translate(0.000000,200.000000) scale(0.040000,-0.040000)" fill="#fefc3c" stroke="none">
<path d="M2148 4932 l-2078 -2 -2 -1601 c-2 -1232 0 -1602 9 -1607 6 -4 13 -34 15 -67 2 -33 2 686 0 1598 l-3 1657 2063 -2 2063 -3 5 -1595 c3 -877 6 -1592 8 -1587 3 9 3 3210 0 3211 -2 1 -938 0 -2080 -2z"/>
<path d="M1215 3590 c-3 -5 1 -10 9 -10 8 0 18 5 21 10 3 6 -1 10 -9 10 -8 0 -18 -4 -21 -10z"/>
<path d="M1120 3280 c0 -5 5 -10 11 -10 5 0 7 5 4 10 -3 6 -8 10 -11 10 -2 0 -4 -4 -4 -10z"/>
<path d="M1755 2820 c3 -5 13 -10 21 -10 8 0 14 5 14 10 0 6 -9 10 -21 10 -11 0 -17 -4 -14 -10z"/>
<path d="M2220 2731 c0 -5 5 -13 10 -16 6 -3 10 -2 10 4 0 5 -4 13 -10 16 -5 3 -10 2 -10 -4z"/>
<path d="M2850 2590 c0 -5 5 -10 10 -10 6 0 10 5 10 10 0 6 -4 10 -10 10 -5 0 -10 -4 -10 -10z"/>
<path d="M4198 1710 c-4 -8 -9 -49 -12 -90 -4 -41 -13 -84 -20 -96 -8 -11 -17 -43 -21 -70 -4 -27 -13 -59 -21 -71 -16 -26 -18 -43 -4 -43 6 0 10 9 10 19 0 11 6 21 12 23 8 3 12 19 10 41 -2 22 1 37 7 37 6 0 11 13 11 29 0 16 6 31 13 34 9 3 12 16 9 37 -3 19 1 36 9 43 10 9 13 27 9 67 -3 30 -9 48 -12 40z"/>
<path d="M108 1564 c-3 -24 1 -38 10 -43 9 -5 13 -17 9 -30 -3 -13 1 -24 10 -30 11 -6 14 -18 11 -41 -3 -21 0 -34 9 -37 7 -3 13 -14 13 -24 0 -10 5 -19 11 -19 6 0 9 -12 7 -27 -2 -15 2 -28 10 -30 18 -7 15 22 -8 67 -11 22 -20 51 -20 65 0 14 -7 36 -15 49 -9 13 -18 47 -22 75 -7 62 -19 74 -25 25z"/>
<path d="M4086 1288 c-18 -39 -17 -56 3 -43 6 3 9 11 5 16 -3 6 1 16 9 22 9 7 12 19 8 28 -4 13 -10 7 -25 -23z"/>
<path d="M211 1254 c0 -11 3 -14 6 -6 3 7 2 16 -1 19 -3 4 -6 -2 -5 -13z"/>
<path d="M230 1221 c0 -12 5 -21 10 -21 6 0 10 6 10 14 0 8 -4 18 -10 21 -5 3 -10 -3 -10 -14z"/>
<path d="M4061 1214 c0 -11 3 -14 6 -6 3 7 2 16 -1 19 -3 4 -6 -2 -5 -13z"/>
<path d="M245 1181 c-3 -5 -1 -12 5 -16 5 -3 10 1 10 9 0 18 -6 21 -15 7z"/>
<path d="M4030 1175 c0 -9 5 -15 11 -13 6 2 11 8 11 13 0 5 -5 11 -11 13 -6 2 -11 -4 -11 -13z"/>
<path d="M267 1147 c-4 -10 3 -23 18 -36 14 -10 25 -26 25 -35 0 -9 5 -16 11 -16 6 0 9 -6 6 -14 -7 -18 28 -52 38 -37 3 6 2 11 -3 11 -4 0 -18 21 -30 48 -12 26 -30 58 -41 71 -15 20 -19 21 -24 8z"/>
<path d="M4005 1130 c-25 -27 -10 -39 16 -13 12 11 17 23 11 27 -5 3 -17 -3 -27 -14z"/>
<path d="M3968 1067 c-9 -12 -19 -33 -23 -47 -8 -25 -7 -25 13 -6 12 10 19 23 16 28 -3 5 2 15 12 22 10 8 13 15 7 19 -6 4 -17 -3 -25 -16z"/>
<path d="M3903 970 c-12 -19 -20 -37 -17 -39 10 -10 46 37 42 55 -3 15 -7 12 -25 -16z"/>
<path d="M370 977 c0 -9 9 -23 21 -31 12 -8 19 -18 16 -23 -4 -5 21 -36 53 -68 72 -72 81 -57 10 17 -27 29 -50 56 -50 60 0 4 -11 19 -25 34 -18 20 -25 23 -25 11z"/>
<path d="M530 778 c0 -17 37 -54 46 -46 3 3 -6 18 -20 33 -17 19 -26 23 -26 13z"/>
</g>
</g>
  <g id="id3:id3" transform="matrix(1.25,0,0,1.25,0.0,0.0)"><g transform="translate(0.000000,200.000000) scale(0.040000,-0.040000)" fill="#fdef00" stroke="none">
<path d="M92 3260 c3 -1510 4 -1650 19 -1662 9 -7 19 -35 23 -62 3 -27 13 -60 21 -72 8 -13 15 -35 15 -49 0 -14 8 -42 19 -63 10 -20 21 -53 25 -74 4 -20 13 -38 20 -41 7 -3 16 -19 19 -35 3 -17 17 -42 31 -57 14 -15 35 -49 47 -76 13 -27 27 -49 31 -49 5 0 7 -4 4 -8 -3 -5 8 -23 24 -41 17 -18 30 -36 30 -41 0 -5 16 -24 35 -42 20 -17 48 -51 63 -75 34 -54 52 -62 52 -23 0 17 5 30 10 30 6 0 10 23 10 50 0 28 5 50 10 50 6 0 10 27 10 60 0 33 4 60 10 60 6 0 10 23 10 50 0 28 5 50 10 50 6 0 10 9 10 20 0 11 5 20 10 20 6 0 10 14 10 30 0 17 5 30 10 30 6 0 10 9 10 20 0 11 5 20 10 20 6 0 10 14 10 30 0 17 5 30 10 30 6 0 10 9 10 20 0 11 5 20 10 20 6 0 10 9 10 20 0 11 6 23 14 26 8 3 20 25 27 50 7 24 17 44 21 44 5 0 15 18 24 40 11 27 22 40 35 40 11 0 35 16 55 35 25 25 44 35 66 35 17 0 39 6 47 14 42 37 351 38 407 1 13 -8 35 -15 48 -15 14 0 35 -11 48 -24 28 -28 88 -49 114 -39 10 3 25 15 33 26 7 10 19 16 27 13 9 -3 16 4 20 22 4 15 14 41 22 57 9 17 15 33 14 37 -4 15 45 76 100 124 30 27 61 59 69 72 7 12 19 22 26 22 14 0 133 112 133 125 0 16 57 65 76 65 11 0 45 13 75 30 30 16 67 30 82 30 15 0 47 9 69 20 23 11 48 20 55 20 8 0 16 7 19 15 4 8 24 18 45 21 22 4 42 11 45 15 3 5 9 7 14 4 5 -3 18 15 31 39 21 43 21 46 5 71 -9 14 -25 28 -34 31 -38 11 -101 47 -106 60 -3 8 -12 14 -21 14 -17 0 -48 28 -58 52 -6 17 -61 48 -83 48 -8 0 -16 11 -20 25 -3 14 -13 25 -21 25 -7 0 -24 10 -36 23 -17 16 -36 22 -73 23 -199 5 -335 29 -357 65 -6 9 -18 14 -27 12 -10 -3 -21 0 -24 6 -4 6 -31 11 -59 11 -66 0 -224 19 -255 31 -16 6 -22 14 -18 27 9 26 -84 53 -201 60 l-93 5 0 -49 c0 -49 -16 -110 -36 -135 -13 -17 -34 -110 -34 -151 0 -17 12 -55 26 -84 24 -50 25 -54 10 -76 -21 -30 -20 -60 4 -91 11 -14 20 -32 20 -40 0 -8 14 -32 31 -53 l31 -39 -26 -20 c-14 -12 -26 -29 -26 -38 0 -10 -8 -21 -17 -24 -21 -8 -42 -33 -43 -51 0 -29 -62 -97 -93 -104 -35 -7 -47 3 -47 39 0 12 -6 23 -12 26 -10 3 -12 34 -9 128 7 198 5 258 -9 284 -7 13 -18 21 -26 18 -11 -4 -14 9 -14 63 0 73 16 79 23 9 2 -22 4 54 5 169 2 175 0 207 -12 203 -16 -6 -26 20 -26 71 0 22 6 35 17 39 10 4 28 19 41 34 12 15 37 30 55 34 53 11 130 35 159 51 14 8 33 14 42 14 9 0 16 5 16 10 0 19 -28 64 -50 83 -22 18 -108 53 -160 64 -14 3 -30 12 -36 20 -7 7 -28 17 -48 20 -32 5 -40 1 -81 -40 -25 -25 -45 -51 -45 -56 0 -6 -15 -25 -34 -44 -57 -57 -74 -216 -24 -217 16 -1 58 -35 58 -47 0 -5 -13 -23 -30 -41 -16 -18 -27 -39 -24 -46 3 -8 1 -17 -5 -21 -6 -3 -11 -25 -11 -48 0 -39 3 -43 40 -59 37 -15 40 -20 40 -55 0 -21 -7 -49 -15 -63 -7 -14 -21 -40 -29 -57 -8 -18 -20 -33 -25 -33 -6 0 -13 -11 -17 -25 -4 -15 -16 -28 -30 -31 -30 -8 -74 3 -74 18 0 6 -7 19 -16 29 -22 24 -34 84 -44 209 -11 126 -13 143 -34 244 -15 66 -16 90 -6 150 10 60 19 80 56 128 25 32 50 71 56 88 5 17 15 29 22 27 19 -7 56 42 56 74 0 17 11 45 25 63 14 18 25 38 25 44 0 7 5 12 10 12 6 0 15 11 22 25 6 14 25 29 46 36 46 15 189 5 307 -23 113 -26 134 -26 160 5 11 13 28 27 38 30 9 4 17 11 17 17 0 5 7 10 15 10 8 0 15 8 15 18 0 23 162 187 225 226 17 10 34 25 38 32 4 8 16 14 26 14 10 0 28 11 41 25 13 14 31 25 41 25 10 0 19 9 21 22 2 14 13 24 32 29 16 5 32 13 36 19 4 6 22 19 41 29 52 28 48 44 -15 64 -35 11 -65 29 -83 50 -16 18 -34 32 -40 30 -6 -2 -23 10 -39 27 -16 16 -35 30 -41 30 -7 0 -13 7 -13 15 0 10 -10 15 -34 15 -28 0 -42 8 -75 46 -47 54 -50 64 -18 64 29 0 51 15 43 28 -3 6 -32 16 -63 22 -58 12 -113 53 -113 83 0 9 -16 18 -42 23 -39 8 -43 12 -51 49 -19 91 -10 105 64 105 43 0 49 -3 86 -47 22 -27 45 -58 52 -70 13 -26 57 -33 47 -8 -7 19 22 96 42 113 36 29 253 11 347 -29 17 -7 94 -15 171 -18 98 -5 147 -11 158 -20 14 -12 19 -11 31 5 8 10 18 30 21 44 13 55 16 60 34 60 10 0 25 11 34 25 20 31 43 32 51 3 10 -37 49 -117 58 -118 4 0 7 8 7 18 0 23 28 62 44 62 34 0 59 -160 36 -235 -6 -22 -15 -54 -20 -72 l-8 -32 49 6 c33 4 49 2 49 -6 0 -6 -11 -11 -24 -11 -14 0 -28 -4 -31 -10 -4 -6 11 -10 37 -10 39 0 79 -14 68 -23 -3 -2 -21 -8 -40 -14 l-35 -11 35 -1 c86 -3 76 -41 -11 -41 -38 0 -58 -4 -54 -10 3 -5 33 -10 66 -10 32 0 59 -3 60 -7 0 -5 3 -20 5 -35 6 -34 -3 -39 -76 -40 -33 0 -60 -4 -60 -8 0 -4 26 -10 58 -13 72 -8 92 -15 92 -33 0 -10 -14 -14 -47 -15 -27 -1 -37 -3 -23 -6 57 -9 70 -14 70 -29 0 -14 -11 -16 -70 -12 -82 4 -94 -7 -17 -16 69 -9 85 -19 67 -41 -10 -12 -10 -19 -2 -27 7 -7 12 -21 12 -31 0 -18 -5 -19 -46 -13 -40 5 -45 4 -34 -9 7 -8 23 -15 36 -15 13 0 24 -4 24 -10 0 -5 -7 -10 -15 -10 -8 0 -15 -4 -15 -10 0 -5 7 -10 15 -10 17 0 19 -18 5 -40 -9 -13 -10 -13 -10 0 -1 9 -5 6 -10 -7 -8 -20 -14 -22 -62 -17 -39 4 -49 3 -38 -5 8 -6 26 -11 38 -11 36 0 21 -24 -19 -31 l-34 -5 35 -10 c19 -6 36 -18 38 -27 3 -14 -5 -17 -38 -17 -35 0 -40 -2 -31 -14 9 -10 8 -15 -4 -20 -9 -3 -15 -18 -15 -35 0 -24 -3 -28 -20 -24 -19 5 -20 2 -14 -38 4 -34 15 -53 45 -82 22 -21 46 -36 54 -34 7 3 34 -1 61 -9 26 -8 67 -14 92 -14 34 0 43 -3 39 -14 -5 -11 5 -16 36 -20 23 -3 58 -8 77 -11 19 -3 76 -10 125 -15 92 -11 218 -37 245 -51 23 -11 110 -39 153 -48 21 -5 46 -16 57 -26 11 -10 30 -23 42 -29 13 -6 27 -25 33 -41 5 -16 25 -44 44 -63 22 -23 35 -46 38 -73 3 -21 12 -44 19 -50 8 -6 14 -23 14 -36 0 -16 7 -27 20 -30 11 -3 20 -14 20 -24 0 -10 5 -21 10 -24 6 -3 10 -19 10 -34 0 -16 20 -69 45 -117 l45 -89 0 -151 c0 -158 -11 -215 -45 -228 -25 -9 -118 -7 -135 4 -14 9 -16 14 -19 51 0 9 -11 20 -24 26 -12 6 -30 26 -39 44 -8 19 -30 62 -47 96 -26 53 -31 73 -31 136 0 54 4 78 15 87 9 7 23 28 32 47 23 49 14 200 -17 268 -15 33 -25 44 -27 33 -2 -9 1 -26 6 -37 14 -25 14 -218 1 -226 -5 -3 -10 -14 -10 -23 -1 -27 -34 -89 -46 -85 -17 6 -36 -46 -41 -113 -6 -71 13 -121 49 -126 15 -2 29 -16 40 -39 16 -35 16 -40 1 -80 -23 -60 -28 -66 -68 -73 -26 -5 -36 -13 -41 -31 -4 -16 -13 -25 -25 -25 -25 0 -69 -29 -69 -45 0 -7 -15 -28 -34 -47 -18 -18 -36 -44 -41 -57 -15 -47 -77 -169 -93 -184 -9 -8 -43 -22 -75 -30 -71 -19 -107 -41 -107 -67 0 -10 -4 -22 -10 -25 -5 -3 -10 -21 -10 -39 l0 -34 118 -4 c83 -3 127 -9 151 -21 19 -9 42 -17 53 -17 10 0 26 -8 36 -18 24 -22 58 -42 74 -42 25 0 79 -55 72 -73 -4 -13 -1 -17 15 -17 12 0 21 -5 21 -12 0 -7 74 -87 165 -178 112 -113 165 -173 165 -188 0 -12 5 -22 10 -22 6 0 10 -9 10 -20 0 -11 9 -25 20 -32 11 -7 20 -21 20 -30 0 -10 4 -18 9 -18 5 0 11 -10 13 -21 2 -12 11 -27 20 -33 13 -8 22 -5 41 16 14 15 32 41 41 57 9 17 23 44 31 60 9 16 22 34 30 41 8 7 15 20 15 30 0 10 6 20 14 23 8 3 17 19 21 35 3 17 15 47 26 68 10 21 19 44 19 51 0 8 6 24 14 36 8 12 17 44 21 71 4 27 13 59 21 71 8 12 17 57 20 101 4 49 12 83 20 90 12 10 14 257 12 1600 l-3 1589 -2063 3 -2063 2 3 -1650z"/>
<path d="M1530 4603 c1 -16 28 -43 42 -43 8 0 20 -6 27 -12 11 -11 13 -10 9 2 -2 8 -14 19 -26 25 -12 5 -22 15 -22 22 0 7 -7 13 -15 13 -8 0 -15 -3 -15 -7z"/>
<path d="M2863 2582 c-15 -10 19 -79 48 -100 16 -11 19 -26 19 -93 0 -77 -1 -80 -27 -90 -16 -6 -35 -15 -43 -20 -8 -5 -34 -19 -57 -30 -23 -11 -45 -24 -48 -29 -3 -5 -15 -8 -27 -7 -24 4 -96 -19 -118 -37 -8 -7 -31 -16 -49 -20 -46 -8 -81 -32 -81 -55 0 -12 -13 -24 -37 -34 -21 -8 -47 -25 -58 -37 -36 -40 -95 -61 -167 -61 -66 0 -68 0 -82 -32 -8 -17 -17 -51 -20 -73 l-6 -41 49 -6 c76 -9 151 -36 144 -53 -4 -10 4 -14 29 -14 35 0 112 -49 173 -110 43 -43 55 -39 55 20 0 37 3 48 13 44 9 -3 24 16 42 55 17 34 33 57 40 54 7 -2 15 3 18 11 3 8 21 23 39 32 18 9 39 25 46 36 8 10 28 26 46 36 103 54 135 73 157 96 13 14 28 26 33 26 13 0 35 32 36 50 0 9 13 31 30 50 16 19 29 43 30 52 0 9 4 20 10 23 15 9 56 97 64 137 6 36 5 38 -32 57 -21 11 -44 27 -51 35 -8 9 -21 16 -31 16 -10 0 -23 7 -30 15 -7 8 -19 15 -27 15 -20 0 -64 29 -93 62 -16 18 -30 25 -37 20z"/>
</g>
</g>
  <g id="id4:id4" transform="matrix(1.25,0,0,1.25,0.0,0.0)"><g transform="translate(0.000000,200.000000) scale(0.040000,-0.040000)" fill="#bbad13" stroke="none">
<path d="M1113 4933 c570 -2 1504 -2 2075 0 570 1 103 2 -1038 2 -1141 0 -1608 -1 -1037 -2z"/>
<path d="M65 3330 c0 -877 1 -1236 2 -797 2 438 2 1156 0 1595 -1 438 -2 79 -2 -798z"/>
<path d="M4235 3330 c0 -877 1 -1236 2 -797 2 438 2 1156 0 1595 -1 438 -2 79 -2 -798z"/>
<path d="M2354 4825 c-9 -14 -24 -25 -34 -25 -18 0 -21 -5 -34 -60 -3 -14 -13 -34 -21 -44 -12 -16 -17 -17 -31 -5 -11 9 -60 15 -158 20 -77 3 -154 11 -171 18 -65 28 -140 41 -231 41 -94 0 -134 -10 -134 -32 0 -6 9 -3 19 7 32 28 222 17 320 -18 64 -23 90 -27 187 -27 76 0 123 -5 147 -15 20 -8 40 -15 45 -15 12 0 42 56 42 79 0 13 9 25 23 30 13 5 31 21 41 35 18 28 36 27 36 -2 0 -28 44 -107 59 -107 8 0 19 15 23 33 10 37 32 42 50 10 18 -33 14 -187 -6 -226 -18 -35 -21 -82 -5 -82 6 0 8 -9 4 -20 -6 -19 -3 -20 52 -14 54 5 57 4 39 -10 -11 -9 -28 -16 -38 -16 -10 0 -18 -4 -18 -10 0 -5 15 -10 34 -10 51 0 54 -18 4 -22 -30 -2 -43 -7 -43 -18 0 -11 16 -16 60 -20 55 -5 57 -6 28 -13 -43 -11 -42 -27 2 -27 41 0 47 -17 8 -23 -21 -4 -19 -4 7 -3 30 1 35 5 36 26 1 45 -5 50 -66 50 -33 0 -62 5 -65 10 -4 6 16 10 54 10 87 0 97 38 11 41 l-35 1 35 11 c19 6 37 12 40 14 11 9 -29 23 -68 23 -26 0 -41 4 -37 10 3 6 17 10 31 10 13 0 24 5 24 11 0 8 -16 10 -49 6 l-49 -6 8 32 c5 18 14 50 20 72 23 75 -2 235 -36 235 -16 0 -44 -39 -44 -62 0 -10 -3 -18 -7 -18 -9 1 -48 81 -58 118 -8 29 -31 28 -51 -3z"/>
<path d="M1272 4761 c-16 -10 -17 -38 -5 -96 8 -37 12 -41 51 -49 26 -5 42 -14 42 -23 0 -30 55 -71 113 -83 31 -6 60 -16 63 -22 8 -13 -14 -28 -43 -28 -32 0 -29 -10 18 -64 33 -38 47 -46 75 -46 24 0 34 -5 34 -15 0 -8 6 -15 13 -15 6 0 25 -14 41 -30 16 -17 33 -29 39 -27 6 2 24 -12 40 -30 18 -21 48 -39 83 -50 63 -20 67 -36 15 -64 -19 -10 -37 -23 -41 -29 -4 -6 -20 -14 -36 -19 -19 -5 -30 -15 -32 -29 -2 -13 -11 -22 -21 -22 -10 0 -28 -11 -41 -25 -13 -14 -31 -25 -41 -25 -10 0 -22 -6 -26 -14 -4 -7 -21 -22 -38 -32 -63 -39 -225 -203 -225 -226 0 -10 -7 -18 -15 -18 -8 0 -15 -5 -15 -10 0 -6 -10 -14 -22 -19 -13 -5 -32 -24 -42 -42 -16 -28 -17 -31 -3 -21 9 8 19 22 22 33 4 10 13 19 21 19 19 0 75 50 68 61 -5 9 94 113 138 143 15 10 30 26 33 35 3 10 21 25 40 34 20 9 38 24 41 32 4 8 14 15 24 15 9 0 28 8 41 18 13 10 32 21 42 25 9 4 22 18 27 32 6 15 17 25 29 25 11 0 26 8 33 19 7 10 23 21 34 25 29 9 58 42 51 59 -3 8 -26 20 -52 28 -25 8 -63 29 -83 48 -20 19 -43 36 -50 37 -19 3 -40 23 -47 42 -6 21 -50 42 -84 42 -18 0 -37 13 -60 41 -18 22 -31 43 -27 46 4 4 107 18 169 22 4 1 7 5 7 10 0 5 -26 12 -57 16 -32 3 -66 10 -75 15 -10 6 -32 10 -49 10 -47 0 -109 39 -116 72 -4 21 -11 28 -29 28 -13 0 -24 4 -24 9 0 5 -9 11 -20 14 -13 3 -20 14 -20 29 0 13 -5 29 -11 35 -8 8 -8 17 0 32 10 17 21 21 61 21 28 0 50 -4 50 -8 0 -5 18 -28 40 -52 22 -23 42 -51 45 -61 4 -11 16 -19 28 -19 15 0 27 -10 36 -31 7 -16 16 -28 19 -24 3 3 0 11 -6 17 -16 16 -15 28 3 28 8 0 15 -6 15 -14 0 -7 9 -16 21 -19 11 -3 23 -15 26 -26 3 -14 13 -21 27 -20 17 1 17 2 4 6 -10 2 -18 9 -18 15 0 16 -57 68 -76 68 -14 0 -16 8 -12 53 5 50 4 51 -8 22 -7 -16 -11 -38 -8 -47 8 -27 -33 -23 -47 5 -7 12 -30 43 -52 70 -37 44 -43 47 -86 47 -25 0 -52 -4 -59 -9z"/>
<path d="M1570 4550 c20 -13 33 -13 25 0 -3 6 -14 10 -23 10 -15 0 -15 -2 -2 -10z"/>
<path d="M2542 4218 c3 -8 32 -16 68 -20 91 -10 101 -28 16 -28 -80 0 -89 -21 -10 -27 75 -6 86 -16 24 -23 l-55 -7 63 -1 c49 -2 62 1 62 13 0 14 -14 19 -70 28 -14 3 -4 5 23 6 33 1 47 5 47 15 0 18 -20 25 -92 33 -32 3 -58 10 -58 14 0 5 -5 9 -11 9 -6 0 -9 -6 -7 -12z"/>
<path d="M2550 4110 c0 -5 5 -10 10 -10 6 0 10 5 10 10 0 6 -4 10 -10 10 -5 0 -10 -4 -10 -10z"/>
<path d="M2615 4091 c11 -5 30 -10 43 -10 32 -1 27 -17 -8 -24 -21 -5 -28 -11 -24 -22 3 -8 15 -15 25 -15 10 0 19 -4 19 -9 0 -4 -27 -7 -60 -7 -38 1 -59 -2 -57 -9 2 -5 13 -11 25 -13 28 -4 29 -22 2 -22 -11 0 -20 -4 -20 -10 0 -5 11 -10 24 -10 28 0 49 -22 44 -47 -2 -14 -16 -19 -63 -23 -59 -5 -59 -6 -32 -19 34 -18 35 -31 2 -31 -33 0 -32 -16 1 -24 14 -4 24 -12 21 -19 -3 -10 -16 -11 -61 -4 -10 2 -16 -66 -16 -158 0 -44 4 -54 35 -82 49 -46 63 -41 16 5 -30 28 -41 48 -45 81 -6 40 -5 43 14 38 17 -4 20 0 20 24 0 17 6 32 15 35 12 5 13 10 4 20 -9 12 -4 14 31 14 33 0 41 3 38 17 -2 9 -19 21 -38 27 l-35 10 34 5 c40 7 55 31 19 31 -12 0 -30 5 -38 11 -11 8 -1 9 38 5 48 -5 54 -3 62 17 5 13 9 16 10 7 0 -13 1 -13 10 0 14 22 12 40 -5 40 -8 0 -15 5 -15 10 0 6 7 10 15 10 8 0 15 5 15 10 0 6 -11 10 -24 10 -13 0 -29 7 -36 15 -11 13 -6 14 34 9 41 -6 46 -5 46 13 0 10 -5 24 -12 31 -8 8 -8 15 2 27 12 14 11 18 -1 26 -8 5 -21 9 -29 9 -8 0 -26 3 -40 5 -22 5 -22 4 -5 -4z"/>
<path d="M789 3640 c-14 -6 -31 -22 -37 -35 -7 -14 -16 -25 -22 -25 -5 0 -10 -5 -10 -12 0 -6 -11 -26 -25 -44 -14 -18 -25 -46 -25 -63 0 -32 -37 -81 -56 -74 -7 2 -17 -10 -22 -27 -6 -17 -31 -56 -56 -88 -37 -48 -46 -68 -56 -128 -10 -60 -9 -84 6 -150 21 -101 23 -118 34 -244 10 -126 23 -187 45 -209 15 -15 15 -13 0 17 -11 20 -22 90 -31 190 -8 86 -18 168 -23 182 -5 14 -14 51 -21 84 -17 83 8 206 50 246 17 16 60 80 60 89 0 6 6 11 14 11 21 0 66 73 66 107 0 18 6 33 15 36 8 4 21 21 29 39 8 18 26 47 39 63 25 30 27 30 119 29 80 0 191 -18 313 -51 14 -4 17 -2 10 5 -31 33 -359 74 -416 52z"/>
<path d="M2595 3500 c3 -5 23 -13 45 -16 24 -4 40 -13 43 -23 3 -14 26 -19 113 -29 372 -42 373 -42 474 -83 25 -9 61 -20 80 -23 34 -5 34 -5 10 8 -14 8 -41 17 -60 21 -19 4 -39 11 -45 15 -16 12 -144 39 -240 50 -49 5 -106 12 -125 15 -19 3 -54 8 -77 11 -31 4 -41 9 -36 20 4 11 -5 14 -39 14 -25 0 -67 7 -94 15 -59 18 -57 17 -49 5z"/>
<path d="M800 3348 c-22 -24 -40 -47 -40 -51 0 -4 -17 -23 -37 -42 -25 -23 -41 -49 -49 -82 -15 -56 -18 -133 -5 -133 5 0 7 9 4 20 -3 12 0 49 8 83 9 46 21 70 46 94 18 19 33 38 33 44 0 5 20 31 45 56 41 41 49 45 81 40 20 -3 41 -13 48 -20 6 -8 22 -17 36 -20 14 -3 52 -15 84 -26 69 -24 66 -24 66 -11 0 5 -3 9 -7 8 -15 -4 -78 15 -98 28 -11 8 -28 14 -38 14 -10 0 -30 9 -44 20 -44 34 -88 27 -133 -22z"/>
<path d="M3424 3310 c16 -5 38 -18 50 -28 11 -10 29 -22 38 -25 10 -3 20 -19 24 -34 4 -15 24 -49 46 -74 21 -26 38 -58 38 -71 0 -13 5 -29 10 -34 6 -6 16 -29 23 -53 6 -23 17 -42 22 -42 13 0 37 -47 30 -59 -3 -5 17 -56 45 -114 l50 -105 0 -144 c0 -160 -9 -193 -57 -214 -17 -7 -21 -12 -11 -13 63 -1 78 43 78 234 l0 151 -45 89 c-25 48 -45 101 -45 117 0 15 -4 31 -10 34 -5 3 -10 14 -10 24 0 10 -9 21 -20 24 -13 3 -20 14 -20 30 0 13 -6 30 -14 36 -7 6 -16 29 -19 50 -3 27 -16 50 -38 73 -19 19 -38 47 -44 62 -5 16 -19 34 -30 40 -11 6 -33 21 -48 34 -16 12 -38 22 -50 21 -18 -1 -17 -2 7 -9z"/>
<path d="M1140 3282 c0 -6 9 -26 20 -44 24 -40 25 -58 4 -58 -9 0 -28 -6 -42 -14 -29 -16 -106 -40 -159 -51 -18 -4 -43 -19 -55 -34 -13 -15 -31 -30 -41 -34 -11 -4 -17 -17 -17 -39 0 -51 10 -77 26 -71 12 4 14 -28 12 -203 -1 -115 -3 -191 -5 -169 -7 70 -23 64 -23 -9 0 -54 3 -67 14 -63 8 3 19 -5 26 -18 14 -26 16 -86 9 -284 -3 -94 -1 -125 9 -128 6 -3 12 -14 12 -26 0 -36 12 -46 47 -39 31 7 93 75 93 104 1 18 22 43 43 51 9 3 17 14 17 24 0 9 12 26 26 38 l26 20 -31 39 c-17 21 -31 45 -31 53 0 8 -9 26 -20 40 -24 31 -25 61 -4 91 15 22 14 26 -10 76 -14 29 -26 67 -26 84 0 41 21 134 34 151 20 25 36 86 36 135 l0 49 93 -5 c117 -7 210 -34 201 -60 -4 -13 2 -21 18 -27 37 -14 195 -31 273 -29 62 1 58 2 -35 8 -58 4 -131 13 -162 19 -52 11 -57 14 -48 31 9 17 6 20 -17 25 -16 4 -47 13 -71 22 -27 9 -83 16 -150 17 l-107 1 -5 -51 c-3 -28 -10 -58 -16 -65 -21 -27 -47 -125 -52 -195 -3 -54 0 -78 13 -103 13 -25 15 -47 11 -90 -7 -62 7 -113 40 -149 11 -12 27 -34 34 -47 12 -23 12 -27 -8 -41 -12 -8 -22 -23 -22 -32 0 -10 -10 -22 -22 -27 -12 -6 -29 -23 -37 -40 -42 -83 -61 -105 -91 -105 -25 0 -30 4 -30 23 0 13 -5 28 -10 33 -12 12 -13 193 -2 269 5 34 3 66 -7 100 -11 38 -15 108 -15 284 -1 231 -1 234 -23 248 -28 19 -31 63 -5 69 9 3 25 18 34 35 11 19 25 29 41 29 24 0 130 32 184 56 17 8 36 14 41 14 20 0 22 18 5 51 -22 47 -43 76 -43 61z"/>
<path d="M3440 3174 c0 -5 9 -42 20 -82 21 -75 27 -218 11 -250 -5 -9 -13 -30 -17 -47 -5 -16 -19 -34 -31 -40 -31 -13 -56 -101 -51 -175 5 -64 24 -97 61 -102 31 -4 43 -63 24 -119 -12 -37 -20 -44 -53 -54 -20 -5 -39 -16 -40 -23 -1 -7 0 -8 2 -3 3 6 21 13 39 17 40 7 45 13 68 73 15 40 15 45 -1 80 -11 23 -25 37 -40 39 -36 5 -55 55 -49 126 5 67 24 119 41 113 12 -4 45 58 46 85 0 9 5 20 10 23 13 8 13 201 -1 226 -5 11 -8 28 -6 37 2 11 12 0 27 -33 31 -68 40 -219 17 -268 -9 -19 -23 -40 -32 -47 -11 -9 -15 -33 -15 -87 0 -63 5 -83 31 -136 17 -34 39 -77 47 -96 9 -18 27 -38 39 -44 13 -6 24 -17 24 -26 3 -37 5 -42 19 -51 8 -5 29 -9 45 -9 l30 1 -33 8 c-40 9 -45 14 -49 43 -2 12 -15 30 -29 41 -39 29 -106 179 -111 251 -4 53 -1 67 27 120 32 58 32 62 28 160 -4 93 -7 106 -42 170 -39 72 -56 97 -56 79z"/>
<path d="M680 3019 c0 -5 11 -14 25 -19 41 -15 43 -40 7 -70 -31 -25 -32 -30 -32 -98 0 -62 2 -72 18 -72 9 0 28 -9 41 -19 21 -16 23 -24 18 -57 -4 -21 -22 -61 -41 -88 -18 -28 -39 -61 -45 -73 -13 -25 -58 -32 -79 -11 -9 9 -12 9 -12 0 0 -15 43 -26 74 -18 14 3 26 16 30 31 4 14 11 25 17 25 5 0 17 15 25 33 8 17 22 43 29 57 8 14 15 42 15 63 0 35 -3 40 -40 55 -37 16 -40 20 -40 59 0 23 5 45 11 48 6 4 8 13 5 21 -3 7 8 28 24 46 36 39 37 49 8 68 -35 23 -58 31 -58 19z"/>
<path d="M1799 2812 c6 -12 28 -29 49 -38 33 -15 80 -21 299 -39 34 -3 64 -1 67 4 3 4 -63 11 -147 15 -158 7 -208 19 -256 60 l-24 21 12 -23z"/>
<path d="M2244 2719 c-7 -12 12 -29 32 -29 7 0 15 -11 18 -25 4 -16 13 -25 26 -25 10 0 22 -4 25 -10 3 -5 11 -10 17 -10 6 0 3 9 -7 20 -10 11 -26 20 -37 20 -10 0 -18 7 -18 15 0 9 -12 20 -26 25 -14 6 -22 14 -19 20 3 5 4 10 1 10 -3 0 -8 -5 -12 -11z"/>
<path d="M2385 2610 c3 -5 8 -10 11 -10 2 0 4 5 4 10 0 6 -5 10 -11 10 -5 0 -7 -4 -4 -10z"/>
<path d="M2890 2575 c35 -42 81 -75 104 -75 7 0 19 -7 26 -15 7 -8 20 -15 30 -15 10 0 23 -7 31 -16 7 -8 30 -24 51 -35 37 -19 38 -21 32 -57 -8 -40 -49 -128 -64 -137 -6 -3 -10 -14 -10 -23 -1 -9 -14 -33 -30 -52 -17 -19 -30 -41 -30 -50 -1 -18 -23 -50 -36 -50 -5 0 -20 -12 -33 -26 -22 -23 -54 -42 -157 -96 -18 -10 -38 -26 -46 -36 -7 -11 -28 -27 -46 -36 -18 -9 -36 -24 -39 -32 -3 -8 -11 -13 -18 -11 -7 3 -23 -20 -40 -54 -18 -39 -33 -58 -42 -55 -10 4 -13 -7 -13 -44 0 -59 -12 -63 -55 -20 -61 61 -138 110 -173 110 -25 0 -33 4 -29 14 7 17 -68 44 -144 53 l-48 6 6 46 c3 25 10 52 16 59 5 7 7 15 4 18 -11 11 -36 -42 -38 -81 -4 -56 5 -65 59 -65 59 0 126 -23 130 -44 2 -11 15 -16 40 -16 28 0 47 -9 77 -35 22 -19 43 -35 47 -35 5 0 26 -16 48 -36 29 -26 45 -34 57 -29 10 5 21 8 24 7 4 -1 10 20 14 46 4 26 14 61 22 77 9 17 19 37 23 45 5 8 13 14 19 12 6 -1 16 9 21 23 5 14 16 25 25 25 8 0 34 18 56 40 23 22 47 40 55 40 7 0 33 14 57 30 25 17 49 30 54 30 5 0 20 11 33 25 13 14 29 25 36 25 14 0 44 43 49 72 3 12 16 33 30 48 14 14 25 33 25 41 0 8 4 19 9 25 22 22 60 108 66 147 l7 43 -63 37 c-34 20 -68 37 -76 37 -7 0 -16 7 -19 15 -4 8 -12 15 -19 15 -23 0 -76 33 -113 70 l-35 35 33 -40z"/>
<path d="M2400 2586 c0 -11 41 -47 49 -44 4 2 -5 13 -21 26 -15 13 -28 21 -28 18z"/>
<path d="M2840 2582 c0 -23 40 -91 60 -102 17 -9 20 -21 20 -90 0 -73 -2 -79 -22 -85 -35 -9 -168 -79 -168 -87 0 -11 18 -10 25 2 3 5 25 18 48 29 23 11 49 25 57 30 8 5 27 14 43 20 26 10 27 13 27 90 0 68 -3 82 -19 93 -11 8 -31 36 -45 63 -14 28 -26 44 -26 37z"/>
<path d="M2476 2527 c5 -14 67 -49 106 -61 9 -3 25 -17 34 -31 16 -25 16 -28 -5 -71 -13 -24 -26 -42 -31 -39 -5 3 -11 1 -14 -4 -3 -4 -23 -11 -45 -15 -21 -3 -41 -13 -45 -21 -3 -8 -11 -15 -19 -15 -7 0 -32 -9 -55 -20 -22 -11 -54 -20 -69 -20 -15 0 -52 -14 -82 -30 -30 -17 -64 -30 -75 -30 -19 0 -76 -49 -76 -65 0 -13 -119 -125 -133 -125 -7 0 -19 -10 -26 -22 -8 -13 -39 -45 -69 -72 -55 -48 -104 -109 -100 -124 1 -4 -5 -20 -14 -37 -8 -16 -18 -42 -22 -57 -4 -18 -11 -25 -20 -22 -8 3 -20 -3 -27 -13 -8 -11 -23 -23 -33 -26 -26 -10 -86 11 -114 39 -13 13 -34 24 -48 24 -13 0 -35 7 -48 15 -56 37 -365 36 -407 -1 -8 -8 -30 -14 -47 -14 -22 0 -41 -10 -66 -35 -20 -19 -44 -35 -55 -35 -13 0 -24 -13 -35 -40 -9 -22 -19 -40 -24 -40 -4 0 -14 -20 -21 -44 -7 -25 -19 -47 -27 -50 -8 -3 -13 -16 -13 -28 1 -21 2 -21 6 -3 3 11 11 23 18 28 8 4 19 24 26 45 6 20 17 44 23 52 7 8 18 27 25 42 9 16 25 30 43 33 16 4 36 17 44 30 10 16 29 26 57 30 23 4 53 15 66 24 33 21 275 29 335 10 22 -7 45 -16 51 -21 5 -4 21 -8 37 -8 16 0 41 -12 62 -31 43 -37 112 -45 143 -16 11 9 27 17 35 17 11 0 22 19 33 55 10 30 22 55 26 55 5 0 9 7 9 15 0 21 32 85 42 85 5 0 37 27 70 60 34 33 66 60 71 60 10 0 141 131 142 142 1 18 48 58 67 58 13 0 47 14 77 30 30 17 67 30 82 30 27 0 116 37 143 59 9 7 39 18 68 25 42 9 54 16 56 33 2 12 10 27 18 33 35 30 2 94 -57 110 -21 6 -52 22 -69 36 -17 15 -28 19 -24 11z"/>
<path d="M3330 2251 c-37 -9 -70 -34 -70 -52 0 -8 -18 -31 -40 -49 -25 -21 -40 -42 -40 -56 0 -13 -13 -46 -30 -74 -16 -28 -30 -57 -30 -65 0 -21 -41 -55 -66 -55 -13 0 -25 -4 -28 -9 -3 -5 -21 -12 -39 -15 -57 -11 -97 -70 -97 -142 l0 -34 91 0 c88 0 167 -12 201 -31 10 -5 27 -9 38 -9 11 0 28 -9 37 -20 10 -11 23 -20 30 -20 7 0 13 -4 13 -10 0 -5 10 -10 23 -10 13 0 28 -5 35 -12 6 -6 14 -9 17 -7 5 5 -3 10 -72 42 -15 6 -35 20 -45 30 -10 9 -26 17 -36 17 -11 0 -34 8 -53 17 -24 12 -68 18 -151 21 l-118 4 0 34 c0 18 5 36 10 39 6 3 10 15 10 25 0 26 36 48 107 67 32 8 66 22 75 30 16 15 78 137 93 184 5 13 23 39 41 57 19 19 34 40 34 47 0 17 44 45 70 45 11 0 20 5 20 10 0 6 -1 9 -2 9 -2 -1 -14 -4 -28 -8z"/>
<path d="M2665 2213 c-18 -4 -60 -21 -107 -44 -10 -5 -25 -9 -33 -9 -18 0 -67 -49 -60 -60 2 -4 -7 -12 -22 -19 -14 -6 -23 -14 -21 -17 11 -10 58 20 58 37 0 23 35 47 80 55 19 4 46 15 59 25 13 11 31 19 40 19 9 0 23 5 31 10 16 10 9 11 -25 3z"/>
<path d="M2377 2035 c-15 -14 -37 -25 -48 -25 -11 0 -22 -7 -25 -15 -5 -12 -24 -15 -85 -15 -43 0 -79 -3 -79 -7 0 -5 32 -7 72 -6 80 3 138 25 177 67 31 33 25 33 -12 1z"/>
<path d="M83 1660 c0 -36 2 -50 4 -32 2 17 2 47 0 65 -2 17 -4 3 -4 -33z"/>
<path d="M4213 1670 c0 -30 2 -43 4 -27 2 15 2 39 0 55 -2 15 -4 2 -4 -28z"/>
<path d="M102 1570 c0 -19 2 -27 5 -17 2 9 2 25 0 35 -3 9 -5 1 -5 -18z"/>
<path d="M4192 1570 c0 -19 2 -27 5 -17 2 9 2 25 0 35 -3 9 -5 1 -5 -18z"/>
<path d="M3390 1561 c12 -8 12 -13 3 -22 -10 -10 -9 -15 5 -25 20 -16 42 -18 42 -4 0 6 -9 10 -20 10 -14 0 -19 6 -17 21 1 12 -5 24 -13 26 -13 4 -13 3 0 -6z"/>
<path d="M122 1500 c0 -14 2 -19 5 -12 2 6 2 18 0 25 -3 6 -5 1 -5 -13z"/>
<path d="M4172 1500 c0 -14 2 -19 5 -12 2 6 2 18 0 25 -3 6 -5 1 -5 -13z"/>
<path d="M142 1430 c0 -19 2 -27 5 -17 2 9 2 25 0 35 -3 9 -5 1 -5 -18z"/>
<path d="M4152 1430 c0 -19 2 -27 5 -17 2 9 2 25 0 35 -3 9 -5 1 -5 -18z"/>
<path d="M3615 1310 c77 -77 142 -140 145 -140 2 0 -58 63 -135 140 -77 77 -142 140 -145 140 -2 0 58 -63 135 -140z"/>
<path d="M162 1360 c0 -14 2 -19 5 -12 2 6 2 18 0 25 -3 6 -5 1 -5 -13z"/>
<path d="M732 1360 c0 -14 2 -19 5 -12 2 6 2 18 0 25 -3 6 -5 1 -5 -13z"/>
<path d="M771 1380 c-1 -3 -4 -18 -6 -34 -3 -20 -1 -26 6 -19 6 6 9 21 6 34 -2 13 -5 22 -6 19z"/>
<path d="M4132 1360 c0 -14 2 -19 5 -12 2 6 2 18 0 25 -3 6 -5 1 -5 -13z"/>
<path d="M182 1320 c0 -14 2 -19 5 -12 2 6 2 18 0 25 -3 6 -5 1 -5 -13z"/>
<path d="M712 1310 c0 -19 2 -27 5 -17 2 9 2 25 0 35 -3 9 -5 1 -5 -18z"/>
<path d="M4112 1320 c0 -14 2 -19 5 -12 2 6 2 18 0 25 -3 6 -5 1 -5 -13z"/>
<path d="M202 1260 c0 -14 2 -19 5 -12 2 6 2 18 0 25 -3 6 -5 1 -5 -13z"/>
<path d="M692 1260 c0 -14 2 -19 5 -12 2 6 2 18 0 25 -3 6 -5 1 -5 -13z"/>
<path d="M222 1220 c0 -14 2 -19 5 -12 2 6 2 18 0 25 -3 6 -5 1 -5 -13z"/>
<path d="M672 1210 c0 -19 2 -27 5 -17 2 9 2 25 0 35 -3 9 -5 1 -5 -18z"/>
<path d="M4072 1220 c0 -14 2 -19 5 -12 2 6 2 18 0 25 -3 6 -5 1 -5 -13z"/>
<path d="M652 1160 c0 -14 2 -19 5 -12 2 6 2 18 0 25 -3 6 -5 1 -5 -13z"/>
<path d="M3762 1140 c0 -14 2 -19 5 -12 2 6 2 18 0 25 -3 6 -5 1 -5 -13z"/>
<path d="M633 1090 c0 -30 2 -43 4 -27 2 15 2 39 0 55 -2 15 -4 2 -4 -28z"/>
<path d="M3782 1100 c0 -14 2 -19 5 -12 2 6 2 18 0 25 -3 6 -5 1 -5 -13z"/>
<path d="M302 1080 c0 -14 2 -19 5 -12 2 6 2 18 0 25 -3 6 -5 1 -5 -13z"/>
<path d="M3822 1040 c0 -14 2 -19 5 -12 2 6 2 18 0 25 -3 6 -5 1 -5 -13z"/>
<path d="M613 980 c0 -36 2 -50 4 -32 2 17 2 47 0 65 -2 17 -4 3 -4 -33z"/>
<path d="M3842 1000 c0 -14 2 -19 5 -12 2 6 2 18 0 25 -3 6 -5 1 -5 -13z"/>
<path d="M362 980 c0 -14 2 -19 5 -12 2 6 2 18 0 25 -3 6 -5 1 -5 -13z"/>
<path d="M3932 980 c0 -14 2 -19 5 -12 2 6 2 18 0 25 -3 6 -5 1 -5 -13z"/>
<path d="M593 870 c0 -30 2 -43 4 -27 2 15 2 39 0 55 -2 15 -4 2 -4 -28z"/>
<path d="M573 780 c0 -25 2 -35 4 -22 2 12 2 32 0 45 -2 12 -4 2 -4 -23z"/>
<path d="M522 780 c0 -14 2 -19 5 -12 2 6 2 18 0 25 -3 6 -5 1 -5 -13z"/>
</g>
</g>
  <g id="id5:id5" transform="matrix(1.25,0,0,1.25,0.0,0.0)"><g transform="translate(0.000000,200.000000) scale(0.040000,-0.040000)" fill="#ca0712" stroke="none">
<path d="M1287 4733 c-14 -13 -6 -33 13 -33 11 0 20 -4 20 -9 0 -10 58 -71 68 -71 4 0 12 -10 17 -21 11 -24 121 -87 131 -76 9 9 -23 45 -47 52 -11 4 -19 15 -19 26 0 10 -6 19 -13 19 -14 0 -68 70 -80 103 -5 12 -17 17 -45 17 -21 0 -42 -3 -45 -7z"/>
<path d="M2103 1762 c-5 -21 -15 -25 -150 -55 -28 -7 -55 -16 -59 -20 -4 -4 -18 -7 -31 -7 -25 0 -89 -37 -112 -64 -7 -9 -21 -16 -30 -16 -10 0 -28 -11 -41 -25 -13 -14 -30 -25 -37 -25 -8 0 -17 -8 -20 -17 -4 -10 -21 -36 -40 -57 -18 -22 -33 -45 -33 -51 0 -13 76 -65 95 -65 11 0 27 -22 29 -42 3 -19 18 -19 23 0 3 12 11 22 17 22 6 0 34 23 61 50 31 31 58 50 72 50 13 0 23 -4 23 -10 0 -5 -4 -10 -9 -10 -17 0 -97 -85 -110 -117 -8 -18 -19 -33 -27 -33 -20 0 -34 -33 -37 -90 -2 -27 -9 -56 -15 -62 -7 -7 -12 -44 -12 -94 0 -46 -4 -86 -10 -89 -5 -3 -10 -44 -10 -90 0 -46 -4 -87 -10 -90 -5 -3 -10 -44 -10 -90 0 -46 -4 -87 -10 -90 -5 -3 -10 -44 -10 -90 0 -46 -4 -87 -10 -90 -5 -3 -10 -44 -10 -90 0 -46 -4 -87 -10 -90 -5 -3 -10 -19 -10 -35 0 -22 7 -32 32 -44 17 -9 39 -16 49 -16 10 0 21 -4 24 -10 3 -5 21 -10 40 -10 19 0 37 -4 40 -10 3 -5 35 -10 70 -10 35 0 67 -5 70 -10 4 -6 127 -10 337 -10 321 0 330 1 335 20 4 16 14 20 49 20 45 0 64 14 45 33 -6 6 -11 35 -11 63 0 29 -4 56 -10 59 -5 3 -10 30 -10 60 0 30 -4 57 -10 60 -5 3 -10 30 -10 60 0 30 -4 57 -10 60 -6 3 -10 48 -10 100 0 52 -4 97 -10 100 -6 3 -10 52 -10 110 0 58 -4 107 -10 110 -5 3 -10 31 -10 62 0 54 -22 159 -40 194 -5 9 -12 34 -16 55 -4 22 -18 49 -31 62 -13 12 -22 26 -19 31 9 13 -90 101 -114 101 -11 0 -20 5 -20 10 0 6 -18 10 -39 10 -22 0 -43 5 -46 10 -3 6 -20 10 -36 10 -17 0 -39 5 -49 10 -14 7 -44 5 -109 -10 -128 -28 -174 -25 -121 8 67 42 242 48 338 13 34 -13 62 -28 62 -32 0 -5 17 -9 39 -9 33 0 43 -6 66 -36 15 -19 38 -39 51 -44 18 -7 24 -17 24 -39 0 -16 5 -33 10 -36 14 -9 40 13 40 33 0 18 29 41 51 42 9 0 27 8 40 19 l23 19 -28 56 c-16 31 -33 56 -40 56 -6 0 -22 18 -35 40 -14 22 -33 42 -42 45 -9 3 -19 13 -21 23 -3 9 -18 24 -34 32 -16 8 -36 22 -44 32 -9 10 -33 21 -55 25 -22 3 -44 12 -48 20 -4 7 -23 13 -42 13 -41 0 -67 9 -59 21 3 5 -8 9 -25 9 -16 0 -37 3 -46 6 -11 5 -18 0 -22 -14z"/>
<path d="M1135 1671 c-11 -5 -36 -10 -56 -10 -20 -1 -42 -8 -49 -16 -7 -8 -29 -19 -50 -25 -21 -6 -50 -24 -64 -40 -13 -17 -29 -30 -34 -30 -11 0 -42 -44 -42 -59 0 -5 -5 -22 -12 -38 -13 -32 -14 -39 -16 -70 -1 -13 -9 -23 -17 -23 -8 0 -15 -9 -15 -20 0 -11 -4 -20 -10 -20 -5 0 -10 5 -10 11 0 5 -5 7 -11 3 -6 -3 -9 -15 -6 -25 3 -10 1 -21 -3 -24 -12 -7 -40 -65 -40 -81 0 -7 -9 -29 -20 -49 -11 -20 -20 -53 -20 -75 0 -21 -4 -42 -10 -45 -5 -3 -10 -30 -10 -60 0 -30 -5 -57 -10 -60 -5 -3 -10 -26 -10 -50 0 -24 -4 -47 -10 -50 -5 -3 -10 -32 -10 -63 l1 -57 75 -78 c42 -43 79 -75 82 -71 4 4 1 9 -5 11 -15 5 -17 75 -3 89 5 5 10 69 11 142 1 73 5 135 10 138 5 3 9 31 9 62 0 31 4 64 10 72 6 9 5 17 -3 23 -9 7 -9 10 1 14 7 3 12 25 12 59 0 30 5 54 10 54 6 0 10 -7 10 -15 0 -8 5 -15 10 -15 6 0 10 8 10 18 0 26 23 72 36 72 17 0 65 40 63 53 -3 29 3 37 30 37 20 0 37 9 53 29 31 36 59 51 94 51 26 0 27 0 9 -20 -10 -11 -22 -20 -27 -20 -21 0 -98 -65 -98 -82 0 -12 -7 -18 -24 -18 -18 0 -32 -13 -55 -47 -17 -25 -31 -51 -31 -57 0 -6 -5 -4 -10 4 -8 13 -10 13 -10 -1 0 -9 -7 -19 -15 -22 -10 -4 -13 -18 -11 -44 2 -21 -1 -44 -7 -50 -5 -7 -10 -45 -11 -85 -1 -47 -6 -73 -14 -76 -8 -2 -12 -27 -12 -72 0 -38 -4 -72 -10 -75 -6 -4 -10 -56 -10 -124 0 -102 3 -120 18 -134 10 -10 23 -17 28 -17 6 0 28 -18 49 -40 21 -22 44 -40 51 -40 6 0 17 -6 23 -14 16 -19 391 -206 413 -206 9 0 20 -4 23 -10 3 -5 21 -10 40 -10 19 0 37 -4 40 -10 3 -5 17 -10 31 -10 13 0 24 -4 24 -10 0 -5 5 -10 10 -10 6 0 10 26 10 59 0 33 5 63 10 66 6 4 10 55 10 120 0 65 4 116 10 120 6 3 10 52 10 110 0 58 4 107 10 110 6 4 10 55 10 120 0 73 4 116 11 121 7 4 9 24 5 56 -4 27 -3 54 1 61 4 6 7 39 7 72 1 33 5 60 9 60 5 0 16 13 24 29 12 24 13 30 1 37 -7 5 -19 9 -25 9 -7 0 -13 10 -13 23 0 29 -18 47 -47 47 -12 0 -27 8 -32 19 -6 10 -24 24 -41 31 -40 17 -38 30 5 30 32 0 35 2 35 30 0 21 8 35 25 46 55 36 51 49 -28 90 -39 20 -74 40 -77 44 -11 17 -294 35 -325 21z m307 -219 c9 -9 -17 -12 -130 -12 -81 0 -142 4 -142 9 0 15 38 19 152 18 70 -2 112 -7 120 -15z"/>
<path d="M2823 1661 c-25 -4 -53 -18 -69 -34 -15 -15 -35 -27 -45 -27 -10 0 -21 -4 -24 -10 -3 -5 -15 -10 -26 -10 -10 0 -19 -4 -19 -10 0 -5 -9 -10 -20 -10 -11 0 -20 -4 -20 -8 0 -5 9 -17 20 -27 11 -10 20 -24 20 -31 0 -7 9 -18 20 -24 11 -6 20 -20 20 -30 0 -21 15 -27 25 -10 3 6 23 10 43 10 35 -1 36 -2 17 -16 -49 -37 -97 -64 -113 -64 -24 -1 -52 -24 -52 -44 0 -9 -8 -16 -20 -16 -11 0 -20 -4 -20 -9 0 -5 -9 -13 -20 -16 -25 -8 -25 -20 0 -94 12 -32 22 -84 23 -114 1 -31 6 -59 10 -63 4 -4 7 -36 7 -70 0 -35 5 -66 10 -69 6 -3 10 -39 10 -80 0 -41 5 -77 10 -80 6 -3 10 -35 10 -70 0 -35 5 -67 10 -70 6 -3 10 -48 10 -100 0 -52 4 -97 10 -100 6 -3 10 -44 10 -90 0 -46 5 -87 10 -90 6 -3 10 -17 10 -30 0 -13 5 -27 10 -30 6 -3 10 -1 10 4 0 6 18 11 40 11 22 0 55 9 75 20 20 11 49 20 65 20 16 0 32 4 35 10 3 5 17 10 30 10 13 0 27 5 30 10 3 6 22 10 42 10 25 0 36 5 40 18 4 18 86 62 115 62 8 0 21 7 28 15 19 22 70 45 102 45 18 0 31 6 35 18 11 31 46 62 70 62 16 0 27 8 33 25 5 14 21 30 34 35 13 5 27 14 31 19 3 6 24 19 46 29 44 20 77 68 59 86 -5 5 -10 26 -10 46 0 40 -35 118 -70 155 -12 13 -32 43 -44 67 -12 23 -28 54 -36 68 -7 14 -18 34 -23 45 -6 11 -15 29 -20 40 -6 11 -14 27 -18 35 -20 35 -49 100 -49 107 0 5 -8 16 -17 24 -33 30 -73 81 -73 93 0 16 -32 46 -49 46 -7 0 -27 11 -45 25 -18 14 -38 25 -43 25 -6 0 -16 7 -23 15 -11 13 -7 15 24 15 21 0 43 -7 54 -17 10 -10 37 -31 60 -46 24 -15 47 -40 53 -55 12 -31 26 -42 57 -42 17 0 22 -6 22 -24 0 -14 5 -28 10 -31 6 -3 10 -19 10 -34 0 -32 27 -91 41 -91 5 0 9 -7 9 -15 0 -9 6 -12 15 -9 12 5 15 -2 15 -29 0 -19 7 -40 15 -47 8 -7 33 -49 55 -95 22 -46 47 -88 55 -95 8 -7 15 -23 15 -36 0 -12 5 -26 10 -29 6 -3 10 -26 10 -50 0 -24 5 -47 11 -51 6 -3 30 12 52 33 23 22 50 43 60 46 9 4 17 13 17 21 0 7 9 16 20 19 13 3 20 14 20 29 0 14 13 37 30 53 17 16 30 34 30 40 0 6 -29 69 -65 140 -44 89 -79 143 -111 176 -67 68 -46 75 24 8 88 -84 60 -54 -117 126 -90 91 -166 164 -168 161 -3 -2 42 -49 99 -104 57 -55 99 -104 95 -108 -4 -4 -40 25 -80 64 -57 57 -75 70 -85 60 -9 -9 -12 -8 -12 5 0 10 -8 17 -18 17 -12 0 -26 16 -40 48 -12 27 -22 53 -22 59 0 5 -12 16 -27 23 -16 8 -39 22 -53 31 -103 68 -117 71 -270 75 -80 1 -164 -1 -187 -5z m165 -197 c91 -11 56 -24 -65 -24 -140 0 -145 18 -8 28 11 1 44 -1 73 -4z"/>
<path d="M2570 1570 c0 -5 5 -10 11 -10 5 0 7 5 4 10 -3 6 -8 10 -11 10 -2 0 -4 -4 -4 -10z"/>
</g>
</g>
  <g id="id6:id6" transform="matrix(1.25,0,0,1.25,0.0,0.0)"><g transform="translate(0.000000,200.000000) scale(0.040000,-0.040000)" fill="#58401f" stroke="none">
<path d="M1092 4973 c582 -2 1534 -2 2115 0 582 1 106 2 -1057 2 -1163 0 -1639 -1 -1058 -2z"/>
<path d="M25 3340 c0 -894 1 -1259 2 -812 2 446 2 1178 0 1625 -1 446 -2 81 -2 -813z"/>
<path d="M4275 3340 c0 -894 1 -1259 2 -812 2 446 2 1178 0 1625 -1 446 -2 81 -2 -813z"/>
<path d="M55 4938 c-3 -7 -4 -733 -3 -1613 l3 -1600 3 1608 2 1607 2090 0 2090 0 3 -1607 2 -1608 0 1610 0 1610 -2093 3 c-1669 2 -2094 0 -2097 -10z"/>
<path d="M2363 4814 c-9 -14 -27 -30 -40 -35 -29 -11 -31 -29 -2 -22 12 3 30 21 41 39 11 19 25 31 31 27 6 -3 7 -1 3 5 -10 17 -13 15 -33 -14z"/>
<path d="M2400 4786 c0 -20 34 -86 48 -91 19 -7 40 11 44 37 5 35 26 32 33 -5 10 -53 0 -188 -17 -232 -11 -28 -13 -44 -6 -52 6 -7 8 -19 5 -28 -7 -18 -2 -21 48 -29 29 -5 45 -3 60 9 19 15 17 16 -38 11 -55 -6 -58 -5 -52 14 4 11 2 20 -4 20 -16 0 -13 47 5 82 20 39 24 193 6 226 -18 32 -40 27 -50 -10 -12 -46 -33 -41 -59 12 -13 25 -23 41 -23 36z"/>
<path d="M1269 4739 c-8 -15 -8 -24 0 -32 6 -6 11 -22 11 -35 0 -15 7 -26 20 -29 11 -3 20 -9 20 -14 0 -5 11 -9 24 -9 18 0 25 -7 29 -28 4 -19 18 -35 45 -50 41 -23 98 -31 87 -12 -4 6 -16 8 -27 4 -13 -4 -18 -2 -14 4 3 6 -10 19 -29 31 -19 11 -35 27 -35 36 0 8 -4 15 -10 15 -12 0 -70 59 -70 71 0 5 -9 9 -21 9 -14 0 -19 5 -17 18 2 12 16 19 46 23 36 5 43 3 48 -15 10 -33 66 -106 81 -106 7 0 13 -9 13 -19 0 -19 33 -38 55 -32 5 1 7 -1 3 -5 -4 -4 -3 -13 2 -20 6 -6 9 -18 8 -25 -2 -9 17 -16 62 -21 104 -14 98 -26 -19 -37 -45 -5 -85 -12 -88 -15 -4 -4 6 -19 22 -34 19 -18 23 -19 10 -4 -10 12 -16 25 -12 28 3 3 65 5 137 5 105 -2 131 1 126 11 -3 7 -9 21 -12 31 -4 10 -17 18 -33 18 -14 1 -55 3 -89 5 -64 3 -81 8 -68 21 4 4 19 3 34 -3 35 -13 81 -4 61 12 -22 17 -49 24 -49 14 0 -6 8 -10 18 -11 11 0 13 -2 4 -6 -27 -10 -100 27 -114 58 -9 19 -20 29 -35 29 -12 0 -24 8 -28 19 -3 10 -23 38 -45 61 -22 24 -40 47 -40 52 0 4 -22 8 -50 8 -40 0 -51 -4 -61 -21z m41 -64 c0 -8 -4 -15 -10 -15 -5 0 -10 7 -10 15 0 8 5 15 10 15 6 0 10 -7 10 -15z m131 -17 c8 -15 8 -18 0 -14 -6 4 -16 16 -22 28 -8 15 -8 18 0 14 6 -4 16 -16 22 -28z m-96 -18 c3 -5 1 -10 -4 -10 -6 0 -11 5 -11 10 0 6 2 10 4 10 3 0 8 -4 11 -10z m165 -40 c0 -5 -7 -10 -15 -10 -8 0 -15 5 -15 10 0 6 7 10 15 10 8 0 15 -4 15 -10z m-80 -41 l25 -20 -32 16 c-18 8 -33 18 -33 20 0 10 16 4 40 -16z"/>
<path d="M1556 4741 c-20 -22 -36 -121 -20 -121 5 0 9 22 9 49 0 74 11 81 124 81 59 0 118 -6 150 -16 29 -8 55 -13 58 -10 12 12 -82 29 -187 33 -107 5 -116 4 -134 -16z"/>
<path d="M1601 4707 c-27 -17 -30 -22 -17 -29 21 -12 80 5 84 24 5 24 -30 27 -67 5z m33 -12 c-22 -17 -34 -19 -34 -6 0 5 8 12 18 14 32 9 36 7 16 -8z"/>
<path d="M1895 4710 c3 -5 16 -10 28 -9 21 0 21 1 2 9 -28 12 -37 12 -30 0z"/>
<path d="M2280 4694 c-11 -20 -19 -24 -38 -19 -15 4 -21 2 -17 -5 12 -20 50 -10 62 17 17 35 10 41 -7 7z"/>
<path d="M1965 4694 c45 -7 243 -9 232 -2 -7 4 -66 7 -132 6 -66 0 -111 -2 -100 -4z"/>
<path d="M1576 4605 c4 -9 14 -20 24 -25 16 -9 17 -7 6 15 -12 27 -39 35 -30 10z"/>
<path d="M2067 4613 c-17 -30 -17 -75 1 -100 10 -16 22 -36 25 -46 7 -19 46 -37 83 -37 21 0 24 4 24 41 0 29 -9 54 -30 86 -16 24 -30 48 -30 54 0 11 -67 12 -73 2z m69 -58 c4 -8 10 -12 16 -9 16 10 37 -29 38 -68 0 -33 -3 -38 -24 -38 -13 0 -34 9 -47 19 l-24 19 25 29 c14 15 18 22 10 16 -11 -10 -17 -10 -31 3 -10 9 -15 22 -12 30 7 19 42 18 49 -1z"/>
<path d="M2470 4602 c0 -11 -16 -35 -35 -55 -39 -40 -49 -91 -17 -85 9 2 17 9 17 16 0 7 12 22 27 35 34 27 52 107 24 107 -9 0 -16 -8 -16 -18z m10 -58 c0 -9 -9 -18 -20 -21 -11 -3 -20 -9 -20 -14 0 -5 -7 -9 -15 -9 -8 0 -15 5 -15 10 0 6 6 10 13 10 7 0 18 9 25 20 15 24 32 26 32 4z"/>
<path d="M1549 4367 c5 -5 21 -7 37 -5 27 3 26 4 -8 9 -22 3 -34 1 -29 -4z"/>
<path d="M2540 4370 c0 -5 5 -10 10 -10 6 0 10 5 10 10 0 6 -4 10 -10 10 -5 0 -10 -4 -10 -10z"/>
<path d="M1625 4350 c3 -5 12 -10 20 -10 7 0 16 -9 20 -19 3 -11 12 -25 20 -31 8 -7 5 6 -8 29 -13 24 -29 41 -40 41 -10 0 -15 -4 -12 -10z"/>
<path d="M2590 4350 c0 -5 12 -10 26 -10 14 0 23 4 19 10 -3 6 -15 10 -26 10 -10 0 -19 -4 -19 -10z"/>
<path d="M2537 4333 c-12 -11 -8 -33 6 -33 7 0 13 9 13 20 0 20 -7 25 -19 13z"/>
<path d="M2600 4290 c0 -5 -11 -10 -25 -10 -14 0 -25 -4 -25 -10 0 -5 12 -10 28 -10 15 0 34 -5 42 -10 12 -8 10 -10 -9 -10 -13 0 -22 -2 -19 -5 8 -9 88 6 88 16 0 5 -16 9 -35 9 -44 0 -45 14 -2 28 l32 10 -37 1 c-21 1 -38 -3 -38 -9z"/>
<path d="M1736 4268 c5 -16 66 -68 79 -68 4 0 -8 12 -27 27 -18 16 -39 35 -46 43 -10 13 -11 13 -6 -2z"/>
<path d="M2534 4229 c-3 -6 -1 -16 5 -22 9 -9 11 -8 6 5 -5 12 0 18 17 21 22 4 22 4 1 6 -12 0 -25 -4 -29 -10z"/>
<path d="M1840 4196 c0 -2 15 -9 33 -15 29 -10 30 -9 13 4 -18 14 -46 20 -46 11z"/>
<path d="M2600 4191 l35 -8 -41 -2 c-48 -1 -57 -7 -43 -32 6 -13 6 -19 -1 -19 -5 0 -10 -8 -9 -17 0 -11 3 -13 6 -5 3 8 28 12 76 12 83 0 81 16 -2 22 -83 6 -78 28 5 28 82 0 77 18 -7 25 -44 3 -47 2 -19 -4z"/>
<path d="M1871 4120 c-13 -11 -28 -20 -35 -20 -6 0 -17 -9 -23 -20 -10 -14 -2 -12 32 11 24 17 47 34 50 40 9 13 3 11 -24 -11z"/>
<path d="M2587 4090 c35 -11 53 -30 29 -30 -9 0 -16 -9 -16 -20 0 -16 -7 -20 -35 -20 -39 0 -48 -21 -17 -40 12 -8 13 -13 5 -16 -22 -10 -14 -23 20 -33 l32 -9 -30 -2 c-16 -1 -36 -2 -42 -1 -7 1 -13 -3 -13 -9 0 -5 9 -10 20 -10 11 0 20 -4 20 -10 0 -5 -13 -10 -30 -10 -32 0 -42 -23 -14 -34 26 -10 29 -7 8 9 -17 13 -14 14 39 15 44 0 59 4 64 16 9 24 -10 49 -41 52 -30 4 -36 22 -6 22 27 0 26 18 -2 22 -12 2 -23 8 -25 13 -2 7 19 10 57 9 33 0 60 3 60 7 0 5 -9 9 -19 9 -10 0 -22 7 -25 15 -4 11 3 17 24 22 56 11 39 21 -65 38 l-30 5 32 -10z"/>
<path d="M2558 4063 c6 -2 18 -2 25 0 6 3 1 5 -13 5 -14 0 -19 -2 -12 -5z"/>
<path d="M1750 4035 c-5 -14 -18 -29 -27 -32 -26 -10 -87 -53 -76 -53 6 0 22 9 36 20 14 11 30 20 36 20 13 0 51 36 51 49 0 5 6 12 13 14 7 3 5 6 -6 6 -10 1 -22 -10 -27 -24z"/>
<path d="M1580 3917 c-19 -12 -37 -26 -39 -31 -2 -5 -17 -22 -33 -38 -16 -15 -24 -28 -19 -28 6 0 25 18 42 40 18 22 38 40 44 40 7 0 20 9 30 20 22 24 19 24 -25 -3z"/>
<path d="M2545 3830 c-3 -5 -1 -10 4 -10 6 0 11 5 11 10 0 6 -2 10 -4 10 -3 0 -8 -4 -11 -10z"/>
<path d="M1420 3774 c-25 -26 -38 -43 -29 -38 16 9 85 84 77 84 -2 0 -24 -21 -48 -46z"/>
<path d="M2490 3811 c0 -5 12 -14 28 -20 l27 -11 -27 3 c-38 6 -53 -6 -39 -29 11 -18 11 -18 9 1 -3 20 3 21 56 12 22 -4 14 23 -8 29 -14 3 -26 10 -26 15 0 5 -4 9 -10 9 -5 0 -10 -4 -10 -9z"/>
<path d="M1369 3713 c-1 -5 -1 -11 0 -15 0 -4 -10 -15 -22 -25 -39 -31 -42 -48 -4 -19 20 16 37 37 37 47 0 18 -9 27 -11 12z"/>
<path d="M2481 3704 c0 -12 -8 -25 -17 -28 -12 -4 -14 -13 -9 -29 3 -12 11 -35 16 -52 7 -26 8 -24 4 14 -2 25 1 53 6 63 6 11 8 27 6 36 -4 13 -5 12 -6 -4z"/>
<path d="M795 3631 c-28 -12 -105 -131 -86 -131 5 0 15 16 22 35 7 19 16 35 20 35 4 0 10 9 14 19 15 47 126 52 295 13 109 -25 155 -34 148 -26 -4 3 -55 17 -115 30 -117 27 -266 40 -298 25z"/>
<path d="M1243 3578 c-18 -22 -38 -59 -44 -81 -6 -23 -17 -60 -24 -82 -28 -83 -28 -126 -1 -178 25 -46 26 -67 6 -67 -5 0 -21 -5 -37 -12 -15 -6 -57 -21 -93 -34 -36 -12 -57 -22 -48 -23 16 -1 75 18 123 40 11 5 47 15 80 23 33 8 52 15 43 15 -10 1 -18 4 -18 9 0 9 72 32 99 32 37 0 72 23 102 67 16 24 29 47 29 50 0 10 -39 -38 -45 -56 -7 -23 -61 -51 -99 -51 -18 0 -36 -4 -42 -9 -5 -5 -23 -12 -40 -15 -30 -7 -33 -4 -53 37 -23 47 -21 116 6 167 7 14 13 35 13 46 0 33 29 96 58 126 14 15 24 30 21 32 -2 2 -19 -14 -36 -36z"/>
<path d="M1752 3576 c13 -14 28 -12 28 5 0 5 -9 9 -20 9 -17 0 -19 -2 -8 -14z"/>
<path d="M1690 3570 c-18 -12 -2 -12 25 0 13 6 15 9 5 9 -8 0 -22 -4 -30 -9z"/>
<path d="M1172 3518 c-11 -24 -22 -54 -25 -68 -27 -122 -33 -135 -58 -133 -22 2 -22 2 -4 -6 11 -4 25 -7 30 -4 6 2 19 40 29 86 10 45 28 99 39 119 11 21 18 40 15 43 -3 4 -15 -13 -26 -37z"/>
<path d="M1643 3553 c-12 -2 -25 -13 -28 -24 -4 -10 -12 -19 -18 -19 -9 0 -9 -2 0 -8 10 -7 10 -14 0 -35 -6 -15 -15 -27 -19 -27 -11 0 -111 -130 -132 -173 -21 -41 -61 -64 -131 -77 l-40 -7 40 -2 c58 -1 115 34 142 88 13 25 26 47 31 50 5 3 23 27 41 53 17 26 41 52 51 58 11 6 20 17 20 24 0 8 6 19 14 25 8 7 12 20 9 31 -4 14 2 22 21 30 14 5 26 12 26 15 0 3 -1 4 -2 4 -2 -1 -13 -4 -25 -6z"/>
<path d="M1725 3552 c-27 -9 -77 -44 -71 -49 3 -3 17 4 32 16 15 11 33 21 40 21 7 0 16 5 19 10 3 6 5 10 3 9 -2 -1 -12 -4 -23 -7z"/>
<path d="M2512 3526 c21 -20 47 -36 59 -36 28 0 59 -18 59 -34 0 -10 26 -17 88 -25 48 -6 117 -15 155 -21 37 -5 86 -9 110 -9 l42 2 -50 7 c-27 4 -104 13 -169 21 -94 10 -120 16 -123 29 -3 11 -26 21 -71 31 -44 9 -78 23 -102 43 l-35 29 37 -37z"/>
<path d="M682 3470 c0 -19 2 -27 5 -17 2 9 2 25 0 35 -3 9 -5 1 -5 -18z"/>
<path d="M1549 3483 c-13 -16 -12 -17 4 -4 9 7 17 15 17 17 0 8 -8 3 -21 -13z"/>
<path d="M1521 3417 c-13 -21 -12 -21 5 -5 10 10 16 20 13 22 -3 3 -11 -5 -18 -17z"/>
<path d="M651 3394 c-13 -19 -30 -34 -37 -34 -8 0 -14 -5 -14 -11 0 -9 -43 -73 -60 -89 -19 -18 -41 -64 -37 -78 4 -13 5 -13 6 3 0 11 13 36 29 55 15 19 39 52 52 72 14 21 30 38 35 38 10 1 58 70 53 76 -2 1 -14 -13 -27 -32z"/>
<path d="M786 3344 c-26 -31 -46 -59 -46 -63 0 -4 -13 -15 -30 -24 -16 -10 -30 -23 -30 -28 0 -15 61 38 81 70 9 14 31 41 47 59 37 38 85 43 125 12 14 -11 34 -20 44 -20 10 0 29 -7 41 -16 13 -9 26 -14 29 -11 7 8 -52 37 -74 37 -10 0 -26 9 -36 20 -12 14 -29 20 -61 20 -42 0 -48 -3 -90 -56z"/>
<path d="M1483 3388 c-15 -20 -25 -38 -20 -38 3 0 12 11 21 25 17 26 16 35 -1 13z"/>
<path d="M3095 3389 c38 -5 74 -14 79 -19 6 -6 17 -10 27 -10 9 0 38 -9 65 -19 27 -10 80 -26 118 -35 39 -8 74 -22 78 -31 5 -8 14 -15 21 -15 7 0 0 11 -14 24 -16 14 -52 28 -90 35 -35 7 -84 21 -109 30 -85 34 -115 42 -180 46 l-65 4 70 -10z"/>
<path d="M3512 3243 c9 -10 18 -25 21 -33 4 -10 6 -11 6 -2 1 20 -18 52 -31 52 -7 0 -5 -7 4 -17z"/>
<path d="M661 3165 c-13 -37 -18 -112 -7 -122 3 -4 6 14 6 39 0 25 5 59 11 77 6 18 9 34 7 36 -2 3 -10 -11 -17 -30z"/>
<path d="M3400 3176 c0 -7 9 -16 20 -19 11 -3 20 -13 20 -24 0 -10 5 -25 11 -33 8 -12 9 -11 5 5 -16 63 -18 80 -8 70 18 -17 75 -128 83 -160 5 -24 7 -25 8 -7 1 12 -18 58 -40 102 -37 72 -44 80 -70 80 -18 0 -29 -5 -29 -14z"/>
<path d="M3573 3144 c19 -28 37 -59 40 -70 4 -15 5 -13 6 6 0 16 -14 41 -40 70 l-40 45 34 -51z"/>
<path d="M485 3108 c-3 -29 -1 -66 4 -83 8 -24 9 -15 10 53 1 45 -1 82 -3 82 -3 0 -7 -24 -11 -52z"/>
<path d="M912 3071 c-9 -17 -25 -32 -34 -35 -26 -6 -23 -50 5 -69 22 -14 22 -17 23 -248 0 -192 3 -243 17 -284 l17 -50 -6 45 c-3 25 -9 49 -14 54 -6 6 -7 86 -3 201 4 136 2 210 -7 258 -14 75 -10 103 20 135 11 12 16 22 10 22 -6 0 -19 -13 -28 -29z"/>
<path d="M3465 2956 c0 -63 3 -112 8 -109 9 5 8 182 -1 205 -4 10 -7 -34 -7 -96z"/>
<path d="M2005 3040 c-4 -6 -21 -17 -38 -25 -62 -30 -157 -99 -157 -115 0 -6 9 -1 19 9 51 51 109 67 62 18 -12 -14 -19 -30 -15 -40 4 -10 -4 -21 -23 -31 -15 -8 -21 -15 -13 -15 24 0 50 24 50 48 0 12 11 33 25 46 20 21 21 25 7 25 -23 1 32 50 56 50 10 0 23 9 30 20 7 11 10 20 8 20 -3 0 -8 -5 -11 -10z"/>
<path d="M2735 3040 c-3 -5 -3 -51 1 -101 6 -77 10 -92 26 -97 10 -2 18 -14 18 -26 1 -20 58 -150 59 -133 1 4 -10 34 -24 67 -15 36 -29 97 -36 157 -6 54 -13 108 -15 121 -5 23 -18 29 -29 12z m25 -41 c0 -16 -4 -29 -10 -29 -5 0 -10 16 -10 36 0 21 4 33 10 29 6 -3 10 -19 10 -36z"/>
<path d="M3622 3040 c27 -82 44 -120 55 -120 7 0 13 -10 13 -22 0 -12 21 -65 47 -118 40 -79 49 -108 54 -170 l6 -75 1 68 c2 63 -2 76 -48 173 -28 58 -48 109 -45 114 8 12 -21 66 -32 62 -4 -2 -14 16 -20 39 -7 24 -18 48 -24 53 -9 8 -11 7 -7 -4z"/>
<path d="M2031 3029 c-1 -9 -8 -19 -16 -23 -8 -3 -15 -11 -15 -18 0 -7 9 -4 21 9 12 11 19 27 16 34 -4 10 -6 9 -6 -2z"/>
<path d="M680 3004 c0 -2 11 -9 25 -14 32 -12 32 -23 -2 -49 -14 -12 -24 -24 -21 -27 3 -3 19 6 34 20 23 20 27 28 19 42 -10 16 -55 39 -55 28z"/>
<path d="M501 2967 c-1 -10 3 -26 8 -36 6 -10 15 -78 21 -152 13 -159 24 -213 51 -251 26 -36 73 -39 90 -5 6 12 26 45 45 72 18 28 36 64 39 80 l5 30 -11 -30 c-6 -16 -24 -46 -39 -65 -15 -19 -30 -45 -34 -57 -15 -48 -68 -55 -94 -13 -13 21 -27 115 -36 235 -5 75 -19 145 -35 185 -7 19 -10 20 -10 7z"/>
<path d="M1178 2963 c7 -3 16 -2 19 1 4 3 -2 6 -13 5 -11 0 -14 -3 -6 -6z"/>
<path d="M1963 2963 c9 -2 23 -2 30 0 6 3 -1 5 -18 5 -16 0 -22 -2 -12 -5z"/>
<path d="M1115 2951 c-3 -6 -7 -27 -9 -48 -1 -21 -8 -47 -14 -58 -48 -88 -67 -252 -36 -315 13 -26 15 -41 7 -75 -13 -56 8 -123 54 -172 38 -42 40 -48 16 -62 -10 -5 -16 -12 -13 -14 3 -3 14 1 24 9 17 12 18 17 6 39 -7 13 -23 35 -34 47 -33 36 -47 87 -40 149 4 43 2 65 -11 90 -13 25 -16 49 -13 103 5 70 31 168 52 195 9 11 27 121 20 121 -2 0 -5 -4 -9 -9z"/>
<path d="M1320 2950 c25 -4 59 -12 75 -18 17 -6 42 -13 58 -16 23 -6 26 -9 17 -25 -9 -17 -4 -21 43 -31 28 -7 104 -14 167 -17 96 -5 117 -9 128 -24 17 -24 97 -59 131 -58 22 1 21 2 -9 9 -56 12 -110 39 -110 55 0 8 -5 15 -11 15 -8 0 -7 6 2 18 11 14 11 15 -1 5 -17 -16 -155 -17 -230 -3 -61 12 -70 17 -50 31 21 13 0 25 -59 34 -25 4 -61 13 -80 21 -18 8 -52 13 -75 13 l-41 -2 45 -7z"/>
<path d="M3543 2875 c0 -27 2 -38 4 -22 2 15 2 37 0 50 -2 12 -4 0 -4 -28z"/>
<path d="M673 2815 c0 -27 2 -38 4 -22 2 15 2 37 0 50 -2 12 -4 0 -4 -28z"/>
<path d="M2750 2822 c0 -4 -21 -5 -46 -3 -54 4 -261 -26 -318 -45 -21 -8 -49 -14 -62 -14 -13 0 -24 -4 -24 -8 0 -5 -12 -14 -26 -20 -24 -12 -25 -32 -1 -32 9 0 8 3 -1 8 -19 12 30 32 78 32 21 0 42 5 45 10 3 6 16 10 28 10 16 0 18 3 9 9 -15 9 117 28 248 35 41 3 76 9 78 15 2 6 1 11 -2 11 -3 0 -6 -3 -6 -8z"/>
<path d="M3446 2803 c-5 -22 -14 -33 -25 -33 -27 0 -61 -93 -61 -168 0 -64 20 -122 42 -122 6 0 3 9 -7 20 -27 30 -32 124 -10 194 10 31 24 56 31 56 19 0 47 45 42 67 -3 12 -7 8 -12 -14z"/>
<path d="M3505 2755 c-24 -48 -27 -64 -22 -115 4 -53 44 -156 55 -145 3 2 -2 15 -11 28 -22 34 -41 136 -33 178 3 20 15 47 26 59 17 20 27 50 17 50 -2 0 -16 -25 -32 -55z"/>
<path d="M2548 2764 c-33 -17 -36 -34 -8 -41 23 -6 26 -19 8 -26 -7 -3 14 -5 47 -5 33 0 54 2 48 5 -20 8 -15 23 7 23 26 0 92 -33 109 -54 17 -20 51 -21 51 -2 0 8 -8 29 -17 48 -9 18 -19 40 -23 48 -10 22 -184 25 -222 4z m218 -21 c4 -15 13 -38 21 -50 20 -30 -2 -41 -30 -16 -50 44 -75 53 -152 53 -42 0 -75 4 -75 10 0 15 43 22 167 28 61 3 63 2 69 -25z"/>
<path d="M2150 2760 l-95 -6 90 -1 c50 -1 101 3 115 7 29 9 31 9 -110 0z"/>
<path d="M695 2753 c10 -3 31 -12 45 -20 l25 -15 -25 21 c-14 11 -34 20 -45 20 -20 -1 -20 -1 0 -6z"/>
<path d="M2486 2738 c1 -13 3 -26 3 -30 1 -5 5 -8 9 -8 5 0 7 14 4 30 -5 35 -20 41 -16 8z"/>
<path d="M2680 2680 c14 -26 86 -62 113 -57 18 4 18 4 -5 6 -14 0 -47 17 -73 36 -33 26 -43 30 -35 15z"/>
<path d="M2300 2670 c0 -6 8 -10 18 -10 11 0 27 -9 37 -20 10 -11 22 -20 27 -20 4 0 -1 9 -12 20 -25 25 -70 44 -70 30z"/>
<path d="M2841 2650 c-1 -16 88 -114 96 -106 3 3 -15 24 -39 48 -25 24 -47 50 -51 58 -5 13 -5 13 -6 0z"/>
<path d="M2828 2595 c2 -14 6 -25 8 -25 2 0 4 11 4 25 0 14 -4 25 -9 25 -4 0 -6 -11 -3 -25z"/>
<path d="M2400 2604 c0 -12 30 -40 74 -70 71 -48 82 -54 91 -54 6 1 -3 8 -20 17 -31 16 -124 90 -137 108 -5 7 -8 6 -8 -1z"/>
<path d="M2840 2548 c0 -9 15 -33 34 -53 20 -21 37 -50 39 -68 4 -31 4 -31 5 5 2 28 -3 40 -18 48 -11 6 -29 27 -39 48 -11 20 -20 30 -21 20z"/>
<path d="M2968 2524 c12 -8 30 -13 40 -11 12 3 11 5 -5 6 -13 0 -23 6 -23 11 0 6 -8 10 -17 10 -14 0 -13 -3 5 -16z"/>
<path d="M3028 2488 c5 -5 16 -8 23 -6 8 3 3 7 -10 11 -17 4 -21 3 -13 -5z"/>
<path d="M2615 2454 c28 -30 32 -66 11 -84 -8 -6 -16 -21 -18 -33 -2 -12 -13 -24 -28 -29 l-25 -7 24 2 c17 1 31 14 47 42 12 22 29 41 38 43 19 4 22 32 3 32 -7 0 -23 14 -35 30 -13 17 -27 30 -32 30 -5 0 2 -12 15 -26z"/>
<path d="M3085 2464 c11 -9 38 -24 60 -35 39 -19 37 -16 -32 29 -38 25 -59 29 -28 6z"/>
<path d="M3436 2473 c6 -4 14 -15 17 -23 5 -11 6 -9 4 4 -1 11 -9 21 -17 23 -10 3 -11 2 -4 -4z"/>
<path d="M3540 2475 c0 -18 38 -73 59 -85 12 -6 21 -7 21 -2 0 6 -9 12 -19 15 -11 2 -29 22 -40 43 -11 22 -20 35 -21 29z"/>
<path d="M3462 2405 c0 -16 2 -22 5 -12 2 9 2 23 0 30 -3 6 -5 -1 -5 -18z"/>
<path d="M3791 2394 c-1 -12 -8 -24 -16 -28 -8 -3 -15 -12 -15 -21 0 -39 -105 -38 -120 1 -11 29 -21 31 -17 4 4 -26 9 -30 52 -40 52 -12 92 5 111 46 9 18 14 39 11 46 -3 7 -6 3 -6 -8z"/>
<path d="M925 2308 c-9 -89 -7 -230 3 -240 4 -4 8 65 8 153 1 87 1 159 -1 159 -1 0 -6 -33 -10 -72z"/>
<path d="M2911 2347 c-1 -18 -8 -31 -23 -37 -13 -5 -16 -9 -8 -9 28 -1 42 15 37 45 l-4 29 -2 -28z"/>
<path d="M3447 2363 c-4 -3 -7 -14 -7 -23 0 -12 -11 -20 -32 -24 -17 -3 -29 -8 -27 -11 3 -2 18 -1 34 3 20 6 31 17 36 35 8 28 7 31 -4 20z"/>
<path d="M3171 2344 c-1 -21 -44 -110 -62 -128 -5 -6 -9 -14 -9 -20 0 -14 48 53 56 78 4 12 11 24 16 27 5 3 8 19 5 35 -2 19 -5 22 -6 8z"/>
<path d="M2490 2283 c-14 -10 -36 -24 -50 -30 l-25 -13 25 6 c14 4 32 13 41 21 9 8 30 18 45 23 21 6 24 9 9 9 -11 1 -32 -7 -45 -16z"/>
<path d="M2808 2276 c-53 -31 -61 -43 -13 -18 50 27 73 42 60 41 -5 -1 -27 -11 -47 -23z"/>
<path d="M3350 2280 c-6 -11 -18 -20 -26 -20 -9 0 -27 -9 -41 -20 -14 -11 -21 -20 -16 -20 6 0 16 6 23 14 6 8 23 16 37 18 16 2 29 12 34 26 10 27 3 29 -11 2z"/>
<path d="M2390 2230 c-9 -6 -10 -10 -3 -10 6 0 15 5 18 10 8 12 4 12 -15 0z"/>
<path d="M2680 2226 c-30 -7 -64 -17 -75 -23 -11 -6 -36 -18 -55 -27 -19 -8 -29 -16 -22 -16 7 0 20 4 30 9 60 29 92 41 127 47 22 4 47 10 55 15 19 11 8 10 -60 -5z"/>
<path d="M2255 2189 c-27 -16 -47 -29 -43 -29 12 0 62 23 78 36 8 7 29 14 45 17 l30 4 -30 0 c-16 1 -52 -12 -80 -28z"/>
<path d="M3247 2195 c-4 -12 -20 -29 -37 -38 -24 -15 -41 -37 -27 -37 14 0 78 71 75 81 -3 10 -7 8 -11 -6z"/>
<path d="M1105 2170 c-3 -5 -1 -10 4 -10 6 0 11 5 11 10 0 6 -2 10 -4 10 -3 0 -8 -4 -11 -10z"/>
<path d="M3071 2147 c-12 -13 -24 -34 -26 -46 -2 -13 -10 -30 -17 -40 -9 -11 -6 -10 10 3 12 11 22 27 22 36 0 10 9 29 21 44 25 32 20 34 -10 3z"/>
<path d="M1062 2137 c-12 -13 -22 -32 -21 -43 0 -16 2 -15 10 6 6 13 17 33 26 42 24 27 10 22 -15 -5z"/>
<path d="M2137 2134 c-12 -14 -22 -29 -22 -32 -1 -10 -132 -142 -142 -142 -4 -1 -24 -15 -43 -32 l-35 -31 38 21 c21 12 45 22 53 22 8 0 14 5 14 11 0 17 75 103 104 119 14 7 26 21 26 30 0 18 24 44 50 53 12 4 11 6 -3 6 -9 1 -27 -11 -40 -25z"/>
<path d="M2485 2150 c-3 -6 1 -7 9 -4 18 7 21 14 7 14 -6 0 -13 -4 -16 -10z"/>
<path d="M2458 2123 c-10 -2 -18 -11 -18 -18 0 -18 -93 -85 -119 -85 -11 0 -21 -4 -21 -9 0 -17 56 6 104 43 26 20 52 36 58 36 6 0 8 3 5 7 -4 3 -2 12 4 20 6 7 10 12 8 12 -2 -1 -12 -3 -21 -6z"/>
<path d="M3140 2020 c-31 -55 -56 -129 -30 -90 5 8 10 20 10 27 0 7 14 35 30 64 17 28 29 53 27 55 -2 2 -19 -23 -37 -56z"/>
<path d="M1010 2045 c-27 -29 -57 -33 -63 -7 -4 13 -5 11 -6 -5 -2 -37 52 -32 79 7 26 37 22 39 -10 5z"/>
<path d="M2995 2031 c-11 -5 -29 -19 -40 -32 l-20 -23 25 17 c14 10 33 20 43 24 9 3 17 9 17 14 0 10 1 10 -25 0z"/>
<path d="M2168 1983 c12 -2 30 -2 40 0 9 3 -1 5 -23 4 -22 0 -30 -2 -17 -4z"/>
<path d="M2878 1954 c-52 -34 -48 -40 5 -8 50 32 53 34 41 33 -5 0 -26 -11 -46 -25z"/>
<path d="M2112 1940 c-23 -37 -38 -128 -23 -143 6 -6 6 -19 1 -33 -5 -13 -6 -24 -1 -24 5 0 11 10 14 21 4 15 11 20 22 15 9 -3 30 -6 46 -6 17 0 28 -4 25 -9 -8 -12 18 -21 59 -21 19 0 38 -6 42 -15 5 -8 27 -15 51 -17 30 -2 44 -8 48 -20 3 -10 21 -25 41 -35 20 -9 38 -25 40 -34 3 -10 13 -21 22 -24 9 -3 28 -23 42 -45 13 -22 29 -40 35 -40 11 0 64 -93 64 -111 0 -5 -14 -18 -31 -28 -25 -15 -27 -19 -13 -25 10 -4 22 -2 28 4 5 5 18 10 28 10 16 0 63 27 113 64 18 14 19 15 2 16 -10 0 -16 -4 -13 -9 6 -10 -51 -37 -60 -28 -3 3 7 12 23 21 18 10 22 15 11 16 -9 0 -20 -4 -23 -10 -10 -17 -25 -11 -25 10 0 10 -9 24 -20 30 -11 6 -20 17 -20 24 0 7 -9 21 -20 31 -11 10 -20 22 -20 27 0 4 9 8 20 8 11 0 20 5 20 10 0 6 9 10 19 10 11 0 23 5 26 10 3 6 14 10 23 10 10 0 32 14 50 30 18 17 29 30 24 30 -5 0 -17 -8 -26 -19 -9 -10 -38 -27 -64 -36 -26 -10 -52 -22 -58 -27 -17 -13 -45 2 -40 21 2 9 7 34 11 56 10 56 43 125 60 125 8 0 15 4 15 9 0 14 -33 6 -41 -10 -3 -8 -13 -27 -22 -44 -8 -16 -18 -51 -22 -77 -4 -26 -10 -47 -14 -46 -3 1 -14 -2 -24 -7 -12 -5 -28 3 -57 29 -22 20 -43 36 -48 36 -4 0 -25 16 -47 35 -30 26 -49 35 -77 35 -25 0 -38 5 -40 16 -4 21 -71 44 -130 44 -26 0 -50 5 -54 12 -14 22 -3 92 17 121 12 16 18 31 15 34 -3 3 -14 -9 -24 -27z m85 -156 c-3 -3 -12 -4 -19 -1 -8 3 -5 6 6 6 11 1 17 -2 13 -5z m63 -24 c0 -5 -7 -10 -15 -10 -8 0 -15 5 -15 10 0 6 7 10 15 10 8 0 15 -4 15 -10z m110 -40 c11 -7 5 -8 -20 -4 -43 8 -51 14 -19 14 13 0 31 -5 39 -10z m55 -40 c3 -5 1 -10 -4 -10 -6 0 -11 5 -11 10 0 6 2 10 4 10 3 0 8 -4 11 -10z m152 -87 c-4 -3 -2 -12 4 -20 9 -9 8 -13 0 -13 -6 0 -11 5 -11 11 0 5 -4 7 -10 4 -5 -3 -16 -3 -22 1 -11 7 -1 13 41 23 2 1 1 -2 -2 -6z m13 -58 c0 -8 -4 -15 -10 -15 -5 0 -10 7 -10 15 0 8 5 15 10 15 6 0 10 -7 10 -15z m39 -57 c6 -18 7 -28 2 -23 -10 12 -25 55 -18 55 3 0 10 -15 16 -32z m41 -48 c0 -5 -4 -10 -10 -10 -5 0 -10 5 -10 10 0 6 5 10 10 10 6 0 10 -4 10 -10z m5 -50 c-3 -5 -16 -10 -28 -10 -18 0 -19 2 -7 10 20 13 43 13 35 0z"/>
<path d="M2761 1880 c-22 -22 -37 -40 -33 -40 5 0 21 14 38 31 16 17 38 35 49 39 15 7 16 9 4 9 -9 1 -35 -17 -58 -39z"/>
<path d="M3060 1913 c-25 -4 -50 -13 -106 -40 -38 -18 -74 -78 -74 -124 -1 -41 -19 -68 -54 -77 -14 -4 55 -7 154 -7 99 0 180 3 180 6 0 14 -94 29 -179 29 l-91 0 0 34 c0 72 40 131 97 142 18 3 36 10 39 15 3 5 16 9 29 9 13 0 27 5 30 10 3 6 5 9 3 9 -2 -1 -14 -4 -28 -6z"/>
<path d="M1867 1865 c-15 -14 -24 -25 -19 -25 5 0 19 11 32 25 30 32 23 32 -13 0z"/>
<path d="M1802 1795 c-7 -14 -12 -32 -12 -40 0 -8 -4 -15 -9 -15 -4 0 -16 -25 -26 -55 -11 -36 -22 -55 -33 -55 -8 0 -24 -8 -35 -17 -31 -29 -100 -21 -143 16 -31 28 -84 43 -84 24 0 -11 128 -76 137 -70 4 3 8 -10 9 -29 0 -19 -2 -30 -5 -25 -4 6 -18 1 -34 -12 -21 -17 -28 -31 -29 -65 -1 -32 -5 -42 -15 -37 -8 3 -17 5 -19 5 -3 0 -2 5 1 10 3 6 -3 10 -14 10 -31 0 -26 -16 9 -30 17 -7 35 -21 41 -31 5 -11 20 -19 32 -19 29 0 47 -18 47 -46 0 -21 38 -42 50 -26 8 12 60 14 60 2 0 -9 -6 -11 -42 -14 -7 -1 -20 -14 -30 -31 -9 -16 -20 -30 -25 -30 -4 0 -9 -27 -9 -60 -1 -33 -5 -68 -8 -77 -4 -9 -6 -25 -3 -35 3 -12 5 -9 6 9 0 15 6 30 12 33 6 4 8 13 5 21 -3 8 -1 14 4 14 6 0 10 12 10 28 0 15 6 45 12 67 l12 40 7 -40 c5 -31 6 -34 8 -12 1 36 18 67 35 67 8 0 19 15 27 33 13 32 93 117 110 117 5 0 9 5 9 10 0 6 -7 10 -16 10 -8 0 -12 -4 -9 -10 3 -5 -1 -10 -10 -10 -10 0 -14 5 -9 13 4 6 -12 -6 -34 -27 -23 -22 -39 -43 -36 -48 3 -5 2 -8 -3 -7 -21 3 -52 -15 -57 -34 -4 -18 -19 -18 -22 1 -2 20 -18 42 -29 42 -19 0 -95 52 -95 65 0 6 15 29 33 51 19 21 36 47 40 57 3 9 12 17 20 17 17 0 69 54 60 63 -3 4 4 7 16 7 15 0 20 -4 15 -12 -5 -9 -3 -9 9 1 9 7 14 18 10 24 -3 5 -2 8 3 4 5 -3 18 2 29 10 20 15 20 15 -2 8 -30 -8 -30 9 -2 67 37 74 43 88 37 93 -2 3 -10 -6 -16 -20z m-273 -161 c13 -12 -8 -10 -29 2 l-25 15 25 -7 c14 -3 27 -8 29 -10z m137 -59 c-16 -17 -42 -20 -51 -6 -3 5 7 12 22 14 16 2 32 5 36 6 5 0 2 -6 -7 -14z m-81 -74 c-3 -6 -11 -11 -17 -11 -6 0 -6 6 2 15 14 17 26 13 15 -4z m-28 -43 c-3 -8 -6 -5 -6 6 -1 11 2 17 5 13 3 -3 4 -12 1 -19z m238 -78 c-10 -11 -20 -18 -23 -15 -3 3 3 14 13 25 10 11 20 18 23 15 3 -3 -3 -14 -13 -25z m-219 5 c25 -13 26 -15 8 -15 -12 0 -27 7 -34 15 -16 19 -10 19 26 0z m79 -65 c0 -7 -6 -15 -12 -17 -8 -3 -13 4 -13 17 0 13 5 20 13 18 6 -3 12 -11 12 -18z"/>
<path d="M2005 1730 c-11 -5 -38 -12 -60 -16 -23 -4 -32 -9 -22 -11 15 -4 59 6 142 32 6 2 -1 3 -15 4 -14 0 -34 -4 -45 -9z"/>
<path d="M4223 1665 c0 -33 2 -45 4 -27 2 18 2 45 0 60 -2 15 -4 0 -4 -33z"/>
<path d="M43 1670 c0 -25 2 -35 4 -22 2 12 2 32 0 45 -2 12 -4 2 -4 -23z"/>
<path d="M4253 1670 c0 -25 2 -35 4 -22 2 12 2 32 0 45 -2 12 -4 2 -4 -23z"/>
<path d="M73 1655 c0 -27 2 -38 4 -22 2 15 2 37 0 50 -2 12 -4 0 -4 -28z"/>
<path d="M1093 1690 c-18 -4 -39 -12 -45 -18 -7 -5 -32 -13 -55 -17 -28 -4 -47 -14 -57 -30 -8 -13 -28 -26 -44 -30 -18 -3 -34 -17 -43 -33 -7 -15 -18 -34 -25 -42 -32 -43 -54 -160 -29 -160 8 0 16 10 17 23 2 31 3 38 16 70 7 16 12 34 12 42 0 8 5 17 11 20 6 4 8 12 6 19 -3 7 4 13 16 13 23 2 39 22 30 38 -4 5 -3 7 2 3 4 -4 19 2 33 12 13 11 32 20 42 20 10 0 29 9 43 20 14 11 38 20 54 20 42 0 77 11 63 20 -12 8 156 4 181 -4 42 -13 70 -16 64 -6 -3 5 -1 10 4 10 6 0 11 -4 11 -10 0 -5 12 -10 27 -10 33 0 24 10 -25 27 -40 14 -254 16 -309 3z m-75 -45 c-11 -11 -68 -23 -68 -15 0 5 12 11 28 13 15 2 31 5 36 6 5 0 7 -1 4 -4z m-128 -75 c0 -5 -4 -10 -10 -10 -5 0 -10 5 -10 10 0 6 5 10 10 10 6 0 10 -4 10 -10z"/>
<path d="M1858 1693 c-14 -2 -32 -12 -39 -21 -11 -14 -11 -15 1 -4 8 6 26 12 41 12 15 0 31 5 34 10 3 6 3 9 -2 9 -4 -1 -20 -4 -35 -6z"/>
<path d="M3173 1665 c0 -8 4 -12 9 -9 5 3 6 10 3 15 -9 13 -12 11 -12 -6z"/>
<path d="M3239 1644 c18 -13 20 -18 10 -25 -10 -6 -10 -9 -2 -9 6 0 14 4 18 9 6 11 -21 41 -38 41 -6 0 -1 -7 12 -16z"/>
<path d="M3271 1597 c2 -1 13 -9 24 -17 19 -14 19 -14 6 3 -7 9 -18 17 -24 17 -6 0 -8 -1 -6 -3z"/>
<path d="M62 1570 c0 -14 2 -19 5 -12 2 6 2 18 0 25 -3 6 -5 1 -5 -13z"/>
<path d="M4232 1570 c0 -14 2 -19 5 -12 2 6 2 18 0 25 -3 6 -5 1 -5 -13z"/>
<path d="M92 1555 c0 -16 2 -22 5 -12 2 9 2 23 0 30 -3 6 -5 -1 -5 -18z"/>
<path d="M4202 1555 c0 -16 2 -22 5 -12 2 9 2 23 0 30 -3 6 -5 -1 -5 -18z"/>
<path d="M3336 1559 c3 -5 12 -9 20 -9 8 0 12 -5 9 -10 -11 -18 37 -110 57 -110 10 0 18 -7 18 -16 0 -21 16 -9 23 17 4 15 2 19 -9 15 -8 -3 -12 -2 -9 4 3 5 -10 25 -29 44 -19 20 -30 38 -25 42 5 3 9 11 9 17 0 7 -4 6 -10 -3 -5 -8 -10 -10 -10 -4 0 7 -11 14 -25 16 -13 3 -22 1 -19 -3z"/>
<path d="M4182 1495 c0 -16 2 -22 5 -12 2 9 2 23 0 30 -3 6 -5 -1 -5 -18z"/>
<path d="M2015 1501 c-11 -5 -30 -10 -42 -10 -12 -1 -34 -6 -50 -12 -26 -11 -27 -12 -8 -20 16 -8 15 -8 -7 -4 -16 3 -28 1 -28 -5 0 -15 40 -12 141 10 65 15 95 17 109 10 10 -5 32 -10 49 -10 16 0 33 -4 36 -10 3 -5 24 -10 46 -10 21 0 39 -4 39 -10 0 -5 9 -10 20 -10 23 0 123 -88 114 -101 -6 -10 31 -49 47 -49 6 0 8 7 5 16 -3 9 -6 27 -6 40 0 17 -8 27 -24 34 -13 5 -36 25 -51 44 -23 30 -33 36 -66 36 -22 0 -39 4 -39 9 0 4 -28 19 -62 31 -68 25 -190 36 -223 21z m5 -21 c0 -5 -15 -9 -32 -9 l-33 1 30 8 c17 4 31 8 33 9 1 0 2 -3 2 -9z m183 -7 c-7 -2 -19 -2 -25 0 -7 3 -2 5 12 5 14 0 19 -2 13 -5z m60 -20 c-7 -2 -19 -2 -25 0 -7 3 -2 5 12 5 14 0 19 -2 13 -5z m122 -34 c11 -17 2 -18 -19 -3 -17 12 -17 14 -4 14 9 0 20 -5 23 -11z m35 -49 c0 -5 -2 -10 -4 -10 -3 0 -8 5 -11 10 -3 6 -1 10 4 10 6 0 11 -4 11 -10z m50 -51 c0 -17 -4 -28 -10 -24 -5 3 -10 15 -10 25 0 10 -6 21 -12 23 -7 3 -3 6 10 6 18 1 22 -4 22 -30z"/>
<path d="M111 1484 c0 -11 3 -14 6 -6 3 7 2 16 -1 19 -3 4 -6 -2 -5 -13z"/>
<path d="M1193 1463 c-13 -2 -23 -9 -23 -14 0 -5 61 -9 142 -9 113 0 139 3 130 12 -13 13 -203 21 -249 11z"/>
<path d="M2860 1463 c-19 -3 -39 -9 -44 -14 -6 -5 35 -9 107 -9 121 0 156 13 65 24 -54 6 -67 6 -128 -1z"/>
<path d="M102 1425 c0 -16 2 -22 5 -12 2 9 2 23 0 30 -3 6 -5 -1 -5 -18z"/>
<path d="M4192 1430 c0 -14 2 -19 5 -12 2 6 2 18 0 25 -3 6 -5 1 -5 -13z"/>
<path d="M132 1415 c0 -16 2 -22 5 -12 2 9 2 23 0 30 -3 6 -5 -1 -5 -18z"/>
<path d="M1066 1428 c-26 -15 -65 -60 -66 -75 0 -7 -9 -13 -19 -13 -11 0 -22 -8 -24 -17 -4 -17 -5 -17 -6 0 0 9 -5 17 -11 17 -5 0 -7 -6 -4 -14 5 -14 -39 -56 -60 -56 -11 0 -37 -46 -35 -64 0 -6 4 -2 9 9 8 19 9 19 9 -1 1 -12 -6 -25 -15 -28 -9 -4 -15 -9 -12 -11 10 -10 38 7 38 24 0 14 2 14 10 1 5 -8 10 -10 10 -4 0 6 14 32 31 57 23 34 37 47 55 47 17 0 24 6 24 18 0 17 77 82 98 82 5 0 17 9 27 20 17 19 17 20 1 20 -9 0 -15 -4 -12 -8 6 -9 -63 -46 -71 -38 -3 3 10 14 28 25 35 21 30 29 -5 9z m-26 -52 c0 -3 -4 -8 -10 -11 -5 -3 -10 -1 -10 4 0 6 5 11 10 11 6 0 10 -2 10 -4z m-135 -126 c-20 -22 -47 -27 -39 -7 4 12 45 36 53 30 2 -2 -4 -12 -14 -23z"/>
<path d="M3090 1425 c7 -8 17 -15 23 -15 5 0 25 -11 43 -25 38 -29 46 -31 38 -10 -5 11 -2 13 10 9 9 -3 14 -10 11 -14 -2 -4 4 -15 15 -25 11 -10 20 -24 20 -31 0 -7 14 -28 30 -46 17 -18 30 -37 30 -42 0 -5 3 -7 6 -4 3 4 1 16 -6 27 -9 19 -8 21 15 21 20 0 25 -5 25 -25 0 -14 5 -25 10 -25 6 0 11 -10 11 -22 1 -19 2 -20 6 -4 3 10 0 23 -6 29 -6 6 -11 21 -11 34 0 17 -6 23 -22 23 -31 0 -45 11 -57 42 -6 15 -29 40 -53 55 -23 15 -50 36 -60 46 -19 18 -43 24 -33 7 3 -5 13 -10 21 -10 8 0 14 -4 14 -10 0 -13 -3 -13 -34 1 -14 7 -23 16 -20 20 3 5 -5 9 -17 9 -18 0 -19 -2 -9 -15z m165 -75 c3 -5 1 -10 -4 -10 -6 0 -11 5 -11 10 0 6 2 10 4 10 3 0 8 -4 11 -10z"/>
<path d="M4162 1415 c0 -16 2 -22 5 -12 2 9 2 23 0 30 -3 6 -5 -1 -5 -18z"/>
<path d="M750 1380 c-13 -8 -12 -10 3 -10 9 0 17 5 17 10 0 12 -1 12 -20 0z"/>
<path d="M151 1364 c0 -11 3 -14 6 -6 3 7 2 16 -1 19 -3 4 -6 -2 -5 -13z"/>
<path d="M2548 1346 c-10 -7 -18 -18 -18 -25 0 -6 -4 -19 -9 -29 -5 -9 -12 -25 -15 -35 -3 -10 -11 -15 -17 -11 -12 7 -4 -46 12 -76 4 -8 14 -40 22 -70 11 -40 16 -47 16 -27 1 16 5 26 11 22 16 -10 12 26 -10 88 -22 61 -25 87 -11 87 5 0 9 6 8 13 -1 30 4 47 13 47 6 0 10 -7 10 -15 0 -8 9 -15 20 -15 13 0 20 7 20 20 0 14 -7 20 -21 20 -11 0 -17 5 -14 10 8 13 4 12 -17 -4z m-28 -145 c0 -9 5 -22 11 -28 6 -6 9 -17 7 -24 -3 -8 -12 1 -21 20 -19 38 -22 65 -7 56 6 -3 10 -14 10 -24z"/>
<path d="M171 1304 c0 -11 3 -14 6 -6 3 7 2 16 -1 19 -3 4 -6 -2 -5 -13z"/>
<path d="M4121 1304 c0 -11 3 -14 6 -6 3 7 2 16 -1 19 -3 4 -6 -2 -5 -13z"/>
<path d="M191 1264 c0 -11 3 -14 6 -6 3 7 2 16 -1 19 -3 4 -6 -2 -5 -13z"/>
<path d="M4100 1264 c0 -10 5 -26 10 -34 8 -11 9 -7 4 15 -8 37 -14 45 -14 19z"/>
<path d="M211 1224 c0 -11 3 -14 6 -6 3 7 2 16 -1 19 -3 4 -6 -2 -5 -13z"/>
<path d="M4081 1224 c0 -11 3 -14 6 -6 3 7 2 16 -1 19 -3 4 -6 -2 -5 -13z"/>
<path d="M800 1155 c0 -36 -4 -55 -12 -55 -9 0 -9 -3 0 -12 6 -6 14 -9 18 -5 10 10 13 127 3 127 -5 0 -9 -25 -9 -55z"/>
<path d="M231 1188 c0 -9 -4 -25 -7 -35 -5 -17 -5 -17 6 0 6 10 9 25 7 35 -4 15 -5 15 -6 0z"/>
<path d="M4061 1184 c0 -11 3 -14 6 -6 3 7 2 16 -1 19 -3 4 -6 -2 -5 -13z"/>
<path d="M3351 1164 c0 -11 3 -14 6 -6 3 7 2 16 -1 19 -3 4 -6 -2 -5 -13z"/>
<path d="M3736 1162 c-3 -5 1 -9 9 -9 8 0 12 4 9 9 -3 4 -7 8 -9 8 -2 0 -6 -4 -9 -8z"/>
<path d="M251 1144 c0 -11 3 -14 6 -6 3 7 2 16 -1 19 -3 4 -6 -2 -5 -13z"/>
<path d="M4041 1144 c0 -11 3 -14 6 -6 3 7 2 16 -1 19 -3 4 -6 -2 -5 -13z"/>
<path d="M3373 1135 c-3 -9 -3 -18 -1 -21 3 -3 8 4 11 16 6 23 -1 27 -10 5z"/>
<path d="M291 1084 c0 -11 3 -14 6 -6 3 7 2 16 -1 19 -3 4 -6 -2 -5 -13z"/>
<path d="M4001 1084 c0 -11 3 -14 6 -6 3 7 2 16 -1 19 -3 4 -6 -2 -5 -13z"/>
<path d="M822 1050 c0 -19 2 -27 5 -17 2 9 2 25 0 35 -3 9 -5 1 -5 -18z"/>
<path d="M3412 1064 c-8 -8 -8 -15 -2 -19 6 -3 10 -1 10 4 0 6 9 11 20 11 11 0 20 4 20 9 0 14 -34 9 -48 -5z"/>
<path d="M787 1057 c-11 -29 -9 -43 4 -30 6 6 9 19 7 29 -3 18 -4 18 -11 1z"/>
<path d="M2561 1054 c0 -11 3 -14 6 -6 3 7 2 16 -1 19 -3 4 -6 -2 -5 -13z"/>
<path d="M311 1044 c0 -11 3 -14 6 -6 3 7 2 16 -1 19 -3 4 -6 -2 -5 -13z"/>
<path d="M3981 1044 c0 -11 3 -14 6 -6 3 7 2 16 -1 19 -3 4 -6 -2 -5 -13z"/>
<path d="M3475 990 c10 -11 20 -20 23 -20 3 0 -3 9 -13 20 -10 11 -20 20 -23 20 -3 0 3 -9 13 -20z"/>
<path d="M351 984 c0 -11 3 -14 6 -6 3 7 2 16 -1 19 -3 4 -6 -2 -5 -13z"/>
<path d="M3941 984 c0 -11 3 -14 6 -6 3 7 2 16 -1 19 -3 4 -6 -2 -5 -13z"/>
<path d="M3971 974 c0 -11 3 -14 6 -6 3 7 2 16 -1 19 -3 4 -6 -2 -5 -13z"/>
<path d="M813 945 c-6 -14 -7 -25 -2 -25 11 0 22 25 17 39 -1 6 -8 -1 -15 -14z"/>
<path d="M764 850 c0 -13 4 -16 10 -10 7 7 7 13 0 20 -6 6 -10 3 -10 -10z"/>
<path d="M3524 843 c16 -18 32 -31 34 -28 3 3 15 -3 26 -12 21 -18 21 -18 2 5 -11 12 -22 20 -24 17 -3 -3 -19 7 -36 22 l-31 28 29 -32z"/>
<path d="M3824 838 l-29 -33 33 29 c30 28 37 36 29 36 -2 0 -16 -15 -33 -32z"/>
<path d="M3685 678 l-40 -43 43 40 c23 21 42 40 42 42 0 8 -9 0 -45 -39z"/>
<path d="M655 630 c33 -33 62 -60 64 -60 3 0 -21 27 -54 60 -33 33 -62 60 -64 60 -3 0 21 -27 54 -60z"/>
<path d="M3504 518 l-19 -23 23 19 c12 11 22 21 22 23 0 8 -8 2 -26 -19z"/>
<path d="M780 526 c0 -2 8 -10 18 -17 15 -13 16 -12 3 4 -13 16 -21 21 -21 13z"/>
<path d="M865 460 c21 -22 41 -40 44 -40 3 0 -13 18 -34 40 -21 22 -41 40 -44 40 -3 0 13 -18 34 -40z"/>
<path d="M3449 483 c-13 -16 -12 -17 4 -4 16 13 21 21 13 21 -2 0 -10 -8 -17 -17z"/>
<path d="M3359 413 l-24 -28 28 24 c15 14 27 26 27 28 0 8 -8 1 -31 -24z"/>
<path d="M945 400 c10 -11 20 -20 23 -20 3 0 -3 9 -13 20 -10 11 -20 20 -23 20 -3 0 3 -9 13 -20z"/>
<path d="M3204 318 l-19 -23 23 19 c12 11 22 21 22 23 0 8 -8 2 -26 -19z"/>
<path d="M1398 143 c6 -2 18 -2 25 0 6 3 1 5 -13 5 -14 0 -19 -2 -12 -5z"/>
<path d="M2878 143 c6 -2 18 -2 25 0 6 3 1 5 -13 5 -14 0 -19 -2 -12 -5z"/>
<path d="M1538 103 c6 -2 18 -2 25 0 6 3 1 5 -13 5 -14 0 -19 -2 -12 -5z"/>
<path d="M2738 103 c6 -2 18 -2 25 0 6 3 1 5 -13 5 -14 0 -19 -2 -12 -5z"/>
<path d="M1678 63 c6 -2 18 -2 25 0 6 3 1 5 -13 5 -14 0 -19 -2 -12 -5z"/>
<path d="M2603 63 c9 -2 25 -2 35 0 9 3 1 5 -18 5 -19 0 -27 -2 -17 -5z"/>
<path d="M1773 43 c15 -2 39 -2 55 0 15 2 2 4 -28 4 -30 0 -43 -2 -27 -4z"/>
<path d="M2013 23 c75 -2 199 -2 275 0 75 1 13 3 -138 3 -151 0 -213 -2 -137 -3z"/>
</g>
</g>
  <g id="id7:id7" transform="matrix(1.25,0,0,1.25,0.0,0.0)"><g transform="translate(0.000000,200.000000) scale(0.040000,-0.040000)" fill="#0d0b0e" stroke="none">
<path d="M30 4970 c0 -3 0 -734 0 -1624 0 -1183 3 -1623 11 -1633 7 -7 9 -32 7 -58 -4 -32 -1 -48 9 -57 9 -7 13 -22 9 -39 -3 -18 0 -32 10 -40 8 -7 12 -19 9 -27 -3 -8 2 -23 11 -33 10 -11 15 -28 11 -44 -3 -18 0 -28 10 -32 8 -3 12 -11 9 -19 -3 -7 2 -18 10 -25 8 -6 12 -20 9 -29 -3 -9 1 -23 10 -30 8 -7 12 -16 9 -21 -3 -5 2 -12 11 -15 9 -4 14 -13 11 -21 -3 -7 1 -16 10 -20 8 -3 13 -12 10 -20 -3 -7 1 -16 10 -20 8 -3 13 -11 10 -18 -2 -7 6 -23 19 -35 14 -13 22 -27 19 -32 -3 -4 2 -11 11 -14 9 -4 14 -12 11 -19 -2 -7 6 -23 19 -35 14 -13 22 -27 19 -32 -3 -4 2 -11 11 -14 9 -4 14 -13 11 -20 -3 -7 6 -22 20 -33 14 -11 23 -24 20 -29 -3 -5 24 -37 59 -72 36 -34 63 -65 60 -69 -2 -5 7 -19 21 -32 15 -13 30 -34 35 -46 5 -13 14 -23 22 -23 7 0 39 -27 72 -60 32 -32 62 -57 67 -54 4 3 22 -11 39 -30 17 -20 35 -33 40 -30 5 3 23 -11 40 -30 17 -20 35 -33 40 -30 5 3 23 -11 39 -30 17 -19 37 -33 44 -30 8 3 16 -2 19 -10 4 -9 13 -13 20 -10 8 3 17 -2 20 -10 4 -9 13 -13 20 -10 8 3 17 -2 20 -10 4 -9 13 -13 20 -10 8 3 17 -2 20 -10 4 -9 13 -13 20 -10 8 3 17 -2 20 -10 4 -9 13 -13 20 -10 8 3 17 -2 20 -10 4 -9 13 -13 20 -10 8 3 17 -2 20 -10 4 -9 13 -13 20 -10 8 3 17 -2 20 -10 4 -9 13 -13 20 -10 8 3 17 -2 21 -11 4 -11 13 -14 25 -10 10 3 23 -1 31 -10 8 -9 21 -13 37 -9 15 4 30 0 42 -10 10 -9 25 -14 33 -11 8 3 21 -1 28 -9 8 -10 21 -14 37 -10 15 4 30 0 42 -10 10 -9 25 -14 33 -11 8 3 21 -1 28 -9 8 -10 21 -14 36 -10 14 4 31 1 41 -7 10 -9 35 -13 70 -11 30 2 60 -1 67 -7 15 -13 568 -17 588 -5 7 4 36 6 66 5 39 -2 59 2 73 15 13 12 28 15 54 11 27 -4 38 -2 42 9 3 8 11 13 19 10 7 -3 18 2 25 10 8 10 22 14 40 10 18 -3 32 0 40 10 7 8 19 12 27 9 8 -3 23 2 33 11 12 10 27 14 42 10 16 -4 29 0 37 9 8 9 21 13 31 10 12 -4 21 -1 25 9 4 9 11 16 18 15 16 -3 63 18 71 31 3 5 11 8 16 5 5 -4 12 1 15 10 4 9 13 14 21 11 7 -3 16 1 20 10 3 8 12 13 20 10 7 -3 16 1 20 10 3 8 12 13 20 10 7 -3 16 1 20 10 3 8 12 13 20 10 7 -3 16 1 20 9 3 9 10 15 17 14 22 -4 63 20 89 51 15 17 31 29 36 26 5 -3 23 10 40 30 17 19 35 33 40 30 4 -3 23 10 41 29 18 19 36 32 40 30 3 -2 55 45 115 105 81 82 106 113 98 121 -13 13 -33 4 -33 -17 0 -8 -6 -14 -13 -14 -7 0 -31 -18 -52 -40 -55 -56 -75 -54 -75 10 0 28 -4 50 -10 50 -5 0 -10 11 -10 24 0 13 -7 29 -15 36 -8 7 -33 49 -55 95 -22 46 -47 88 -55 95 -8 7 -15 25 -15 41 0 23 -5 29 -21 29 -15 0 -19 5 -15 15 3 9 -1 18 -9 21 -8 4 -15 15 -15 25 0 10 -4 19 -9 19 -5 0 -12 18 -16 40 -4 22 -11 40 -16 40 -5 0 -9 11 -9 25 0 20 -5 25 -25 25 -23 0 -24 -2 -13 -25 6 -14 15 -25 20 -25 4 0 8 -9 8 -20 0 -11 5 -20 10 -20 6 0 10 -9 10 -20 0 -11 5 -20 10 -20 6 0 10 -9 10 -20 0 -11 5 -20 10 -20 6 0 10 -9 10 -20 0 -11 3 -20 8 -20 4 0 13 -15 20 -33 7 -17 18 -41 25 -52 6 -11 21 -40 33 -64 12 -24 33 -55 46 -70 29 -33 48 -67 48 -86 0 -8 5 -15 10 -15 6 0 10 -22 10 -50 0 -27 5 -50 10 -50 31 0 -5 -73 -45 -90 -16 -7 -38 -20 -48 -28 -9 -8 -27 -20 -39 -26 -13 -6 -28 -23 -35 -36 -7 -15 -20 -24 -29 -22 -19 4 -74 -45 -74 -65 0 -8 -12 -13 -28 -13 -32 0 -84 -23 -102 -45 -7 -8 -20 -15 -29 -15 -28 0 -121 -51 -121 -66 0 -9 -11 -14 -34 -14 -19 0 -38 -4 -41 -10 -3 -5 -16 -10 -29 -10 -12 0 -26 -4 -32 -10 -5 -5 -23 -11 -39 -12 -17 -1 -45 -10 -63 -20 -18 -10 -50 -18 -72 -18 -21 0 -42 -4 -45 -10 -11 -18 -25 -10 -25 14 0 14 -4 28 -10 31 -5 3 -10 44 -10 90 0 46 -4 87 -10 90 -6 3 -10 48 -10 100 0 52 -4 97 -10 100 -5 3 -10 35 -10 70 0 35 -4 67 -10 70 -5 3 -10 39 -10 80 0 41 -4 77 -10 80 -5 3 -10 35 -10 70 0 35 -4 67 -10 70 -5 3 -10 26 -10 50 0 24 -4 47 -10 50 -6 4 -10 -25 -10 -79 0 -47 5 -88 10 -91 6 -3 10 -52 10 -110 0 -58 4 -107 10 -110 6 -3 10 -48 10 -100 0 -52 4 -97 10 -100 6 -3 10 -30 10 -60 0 -30 5 -57 10 -60 6 -3 10 -30 10 -60 0 -30 5 -57 10 -60 6 -3 10 -30 10 -60 0 -30 5 -57 10 -60 6 -3 10 -15 10 -26 0 -15 -7 -19 -32 -20 -18 -1 -39 -1 -46 0 -8 1 -16 -7 -19 -18 -5 -21 -10 -21 -344 -21 -214 0 -340 4 -344 10 -3 5 -35 10 -70 10 -35 0 -67 4 -70 10 -3 5 -21 10 -40 10 -19 0 -37 5 -40 10 -3 6 -14 10 -24 10 -9 0 -29 6 -44 13 -22 10 -27 19 -27 49 0 20 4 40 10 43 5 3 10 44 10 90 0 46 5 87 10 90 5 3 10 44 10 90 0 46 4 87 10 90 5 3 10 44 10 90 0 46 5 87 10 90 5 3 10 44 10 90 0 46 4 87 10 90 5 3 10 44 10 91 0 49 4 84 10 84 6 0 10 29 10 68 -1 77 -17 67 -27 -18 -3 -27 -10 -50 -14 -50 -5 0 -6 -6 -3 -14 3 -8 1 -17 -5 -21 -6 -3 -11 -33 -11 -65 0 -32 -5 -62 -10 -65 -6 -4 -10 -55 -10 -120 0 -65 -4 -116 -10 -120 -6 -3 -10 -52 -10 -110 0 -58 -4 -107 -10 -110 -6 -4 -10 -55 -10 -120 0 -65 -4 -116 -10 -120 -6 -3 -10 -31 -10 -61 0 -51 -10 -68 -25 -43 -4 6 -13 8 -20 5 -7 -2 -21 1 -31 8 -11 7 -32 13 -49 14 -16 1 -34 7 -39 12 -6 6 -17 10 -25 10 -21 0 -397 188 -412 206 -6 8 -16 14 -22 14 -6 0 -28 16 -48 36 -20 20 -48 41 -61 48 -22 11 -23 17 -26 140 -2 80 1 133 8 140 5 5 10 40 10 77 0 37 5 71 10 74 6 3 10 37 10 76 0 42 4 69 11 69 6 0 9 18 7 45 -3 52 -23 61 -24 12 -1 -38 -11 -85 -25 -109 -5 -10 -9 -36 -9 -58 0 -22 -6 -49 -12 -60 -10 -16 -10 -24 0 -41 10 -15 11 -24 3 -32 -6 -6 -11 -50 -11 -103 0 -51 -4 -96 -10 -99 -14 -9 -13 -58 2 -73 6 -6 8 -15 5 -19 -4 -4 -41 26 -82 67 l-75 74 0 68 c0 39 4 68 10 68 6 0 10 23 10 50 0 28 5 50 10 50 6 0 10 27 10 60 0 33 4 60 10 60 6 0 10 23 10 51 0 31 -4 48 -10 44 -6 -3 -10 -26 -10 -50 0 -24 -5 -47 -10 -50 -6 -3 -10 -30 -10 -60 0 -30 -5 -57 -10 -60 -6 -3 -10 -26 -10 -50 0 -24 -5 -47 -11 -50 -6 -4 -9 -24 -8 -44 4 -56 -8 -66 -37 -31 -14 16 -25 33 -25 37 0 4 -29 37 -65 74 -35 36 -62 67 -59 70 3 3 -6 16 -20 29 -14 13 -25 29 -25 36 0 6 -7 17 -15 24 -9 7 -25 32 -35 55 -10 23 -26 48 -35 55 -8 7 -15 19 -15 26 0 8 -4 14 -10 14 -5 0 -10 6 -10 14 0 8 -14 40 -30 72 -17 32 -29 63 -26 70 3 8 1 16 -4 19 -17 11 -42 75 -37 95 3 10 -2 25 -10 31 -8 7 -12 21 -10 30 3 10 -2 24 -10 30 -8 7 -13 25 -11 39 1 15 -3 35 -11 43 -7 9 -11 35 -10 61 2 24 -2 51 -9 59 -9 11 -11 383 -10 1618 l3 1604 2095 0 2095 0 3 -1604 c1 -1063 -1 -1608 -8 -1615 -5 -5 -10 -33 -10 -62 0 -31 -5 -56 -13 -63 -8 -6 -12 -23 -9 -40 2 -16 -1 -32 -7 -35 -6 -4 -11 -18 -11 -30 0 -13 -6 -29 -14 -35 -7 -6 -11 -22 -8 -36 3 -16 -2 -33 -13 -45 -10 -11 -15 -20 -10 -20 4 0 1 -7 -6 -17 -8 -9 -13 -24 -11 -34 2 -9 -2 -20 -8 -24 -5 -3 -10 -15 -10 -25 0 -10 -4 -20 -8 -22 -4 -1 -20 -29 -36 -60 -15 -32 -32 -60 -37 -63 -5 -4 -18 -25 -29 -49 -10 -23 -26 -49 -35 -56 -8 -7 -15 -18 -15 -24 0 -16 -53 -66 -69 -66 -7 0 -11 6 -8 14 3 8 -1 20 -9 27 -8 7 -24 31 -34 54 -19 41 -50 77 -50 58 0 -6 18 -45 40 -88 22 -43 40 -88 40 -100 0 -11 -13 -34 -30 -50 -18 -17 -30 -39 -30 -54 0 -23 5 -21 60 34 32 32 57 62 54 67 -3 5 6 18 20 29 15 11 23 26 19 34 -3 8 0 15 6 15 6 0 11 6 11 13 0 8 11 24 24 36 14 13 22 29 20 36 -3 7 2 15 11 19 9 3 14 10 11 14 -3 5 5 19 19 32 13 12 21 28 19 35 -3 7 2 15 10 18 9 4 13 13 10 20 -3 8 2 17 10 20 9 4 13 13 10 20 -3 8 2 17 11 21 9 3 14 10 11 15 -3 5 1 14 9 21 9 7 13 21 10 30 -3 9 1 23 9 29 8 7 13 18 10 25 -3 8 2 16 11 19 11 5 14 14 9 32 -4 17 -1 32 10 44 9 10 14 25 11 33 -3 8 1 20 9 27 10 8 13 22 10 40 -4 17 0 32 9 39 10 9 13 25 9 57 -2 26 0 51 7 58 8 10 11 451 11 1635 l0 1622 -2120 3 c-1166 1 -2120 0 -2120 -3z"/>
<path d="M2365 4800 c-9 -17 -27 -35 -40 -40 -14 -5 -25 -18 -25 -28 0 -55 -47 -91 -78 -60 -7 7 -67 14 -161 18 -83 4 -156 11 -163 17 -29 23 -138 43 -230 43 -111 0 -122 -7 -122 -78 -1 -43 1 -47 24 -50 17 -2 30 -13 39 -33 7 -17 21 -33 30 -36 9 -4 22 -11 30 -17 20 -16 -26 -25 -61 -12 -15 6 -30 7 -34 3 -13 -13 4 -18 68 -21 34 -2 75 -4 89 -5 16 0 29 -8 33 -18 3 -10 9 -24 12 -31 5 -10 -21 -13 -126 -11 -72 0 -134 -1 -136 -4 -3 -3 4 -19 16 -35 18 -24 32 -31 74 -36 46 -6 53 -10 71 -44 11 -20 29 -38 40 -41 11 -2 36 -19 55 -38 19 -18 46 -36 60 -39 57 -12 71 -23 68 -52 -2 -21 -17 -36 -65 -67 -34 -22 -62 -43 -63 -47 0 -13 -39 -48 -52 -48 -6 0 -20 -8 -30 -17 -10 -9 -27 -17 -38 -18 -10 -1 -29 -13 -40 -28 -12 -15 -27 -27 -34 -27 -7 0 -27 -18 -45 -40 -17 -22 -38 -40 -44 -40 -20 0 -107 -97 -107 -119 0 -21 -57 -68 -78 -63 -6 2 -16 -8 -21 -20 -5 -13 -17 -30 -26 -38 -21 -18 -55 -93 -55 -123 0 -12 -6 -33 -13 -47 -27 -51 -29 -120 -6 -167 20 -41 23 -44 53 -37 17 3 35 10 41 15 5 5 23 9 41 9 43 0 91 29 105 63 6 15 15 27 19 27 4 0 13 14 20 30 7 17 25 40 41 51 16 11 32 35 37 52 5 22 18 36 40 46 17 8 34 23 38 33 3 10 12 18 20 18 8 0 27 6 42 14 42 22 106 32 100 16 -4 -12 -78 -59 -118 -75 -35 -14 -46 -23 -57 -45 -6 -13 -19 -27 -27 -32 -9 -5 -30 -30 -48 -56 -17 -26 -35 -50 -40 -53 -5 -3 -18 -25 -31 -50 -26 -53 -84 -89 -142 -89 -42 0 -156 -24 -190 -39 -57 -26 -109 -41 -140 -41 -37 0 -72 -28 -81 -67 -4 -13 -1 -53 6 -90 9 -48 11 -122 7 -258 -5 -146 -4 -194 6 -204 9 -9 11 -61 9 -202 -3 -199 6 -259 38 -259 23 0 70 52 70 78 0 13 16 34 40 53 22 18 40 40 40 50 0 9 7 19 15 23 22 8 19 18 -18 59 -46 49 -67 116 -54 172 8 34 6 49 -7 75 -31 63 -12 227 36 315 6 11 13 37 14 59 2 22 8 44 14 50 14 14 233 8 272 -8 18 -8 54 -17 79 -21 59 -9 80 -21 59 -34 -8 -6 -12 -12 -9 -15 12 -12 116 -26 194 -26 86 0 112 11 99 43 -3 8 1 20 8 26 26 23 114 81 145 96 17 8 34 19 38 24 7 13 35 3 35 -13 -1 -23 -49 -66 -75 -66 -32 0 -75 -41 -75 -71 0 -24 -26 -48 -52 -49 -34 0 -17 -29 30 -51 43 -20 65 -22 262 -25 166 -3 225 0 260 11 67 21 254 47 310 43 48 -3 69 8 50 28 -14 16 -23 191 -10 199 19 12 27 -11 33 -98 7 -84 19 -134 59 -247 24 -68 100 -160 132 -160 9 0 16 -4 16 -10 0 -5 9 -10 19 -10 10 0 21 -6 24 -14 3 -8 19 -17 36 -21 17 -4 33 -11 37 -16 3 -5 23 -18 45 -29 39 -20 39 -21 39 -79 0 -33 -3 -61 -7 -63 -5 -1 -16 -19 -26 -38 -29 -55 -51 -93 -70 -120 -9 -13 -17 -32 -17 -41 0 -9 -9 -24 -20 -34 -11 -10 -20 -24 -20 -30 0 -7 -8 -15 -17 -19 -10 -3 -54 -28 -98 -55 -44 -28 -85 -50 -91 -51 -5 0 -25 -16 -44 -35 -19 -19 -41 -35 -50 -35 -21 0 -40 -20 -40 -42 0 -10 -7 -18 -15 -18 -17 0 -50 -69 -60 -125 -4 -22 -9 -47 -11 -56 -7 -26 21 -30 65 -8 22 10 44 19 50 19 5 0 22 11 38 24 15 13 45 29 67 34 46 13 65 36 66 81 0 48 36 106 79 127 20 9 44 21 53 25 10 5 28 9 40 9 30 0 48 12 52 36 2 11 20 47 40 81 20 34 36 73 36 87 0 17 9 30 30 43 17 9 33 25 36 35 7 24 55 68 73 68 7 0 24 11 37 25 13 14 37 28 54 31 20 5 30 12 30 25 0 10 5 21 10 24 11 7 13 48 4 83 -5 15 -17 25 -36 29 -39 8 -58 48 -58 125 0 74 34 168 60 168 12 0 22 18 35 60 31 102 5 319 -39 328 -29 6 -18 32 13 32 25 0 33 -8 68 -77 36 -69 41 -88 47 -173 6 -102 -2 -160 -27 -185 -24 -24 -31 -83 -18 -145 15 -72 77 -201 99 -207 10 -2 25 -21 34 -42 14 -33 23 -39 52 -43 43 -5 76 6 76 26 0 8 8 19 18 25 15 9 17 26 15 155 l-3 146 -50 103 c-27 57 -50 113 -50 125 0 12 -6 22 -14 22 -8 0 -25 35 -42 88 -16 48 -45 112 -64 142 -20 30 -40 64 -46 75 -6 11 -20 25 -31 30 -11 6 -26 17 -35 25 -8 8 -43 21 -79 28 -35 8 -86 22 -113 33 -27 10 -56 19 -65 19 -10 0 -21 4 -27 10 -5 5 -54 14 -109 20 -100 10 -183 20 -347 41 -62 8 -88 15 -88 25 0 16 -31 34 -61 34 -27 0 -99 71 -99 98 0 12 -5 33 -12 48 -11 22 -10 28 6 40 15 11 18 22 14 59 -6 47 -5 48 42 46 25 0 25 0 -2 10 -35 13 -36 29 -4 29 34 0 41 16 11 24 -36 9 -32 36 5 36 17 0 30 5 30 10 0 6 -9 10 -20 10 -40 0 -19 20 23 21 l42 1 -32 9 c-34 10 -42 23 -20 33 8 3 7 8 -5 16 -31 19 -22 40 17 40 28 0 35 4 35 20 0 11 7 20 16 20 27 0 4 19 -36 30 -24 6 -40 17 -40 25 0 8 5 15 10 15 7 0 7 6 1 19 -14 25 -5 31 43 32 l41 1 -44 9 c-80 15 -82 49 -3 49 34 0 43 3 32 10 -8 5 -27 10 -42 10 -16 0 -28 5 -28 10 0 6 11 10 25 10 14 0 25 5 25 10 0 6 -16 10 -36 10 -28 0 -35 3 -32 18 2 10 14 18 31 20 34 4 36 22 2 22 -25 0 -36 19 -12 21 6 1 -1 4 -18 8 -22 5 -29 12 -27 25 2 9 -1 23 -6 29 -7 8 -5 26 6 52 17 44 27 179 17 232 -7 37 -28 40 -33 5 -4 -26 -25 -44 -44 -37 -17 7 -48 73 -48 103 0 34 -18 35 -35 2z m-697 -98 c-4 -19 -63 -36 -84 -24 -13 7 -10 12 17 29 37 22 72 19 67 -5z m472 -91 c0 -6 14 -30 30 -54 21 -32 30 -57 30 -86 0 -37 -3 -41 -24 -41 -37 0 -76 18 -83 37 -3 10 -15 30 -25 46 -18 25 -18 70 -1 100 6 10 73 9 73 -2z m356 -33 c-4 -30 -15 -50 -34 -65 -15 -13 -27 -28 -27 -35 0 -7 -8 -14 -17 -16 -32 -6 -22 45 17 85 19 20 35 44 35 55 0 10 7 18 16 18 14 0 15 -7 10 -42z m87 -515 c-7 -2 -19 -2 -25 0 -7 3 -2 5 12 5 14 0 19 -2 13 -5z"/>
<path d="M2087 4556 c-3 -8 2 -21 12 -30 16 -15 20 -15 31 -1 7 8 10 22 6 30 -7 19 -42 20 -49 1z"/>
<path d="M1290 4675 c0 -8 5 -15 10 -15 6 0 10 7 10 15 0 8 -4 15 -10 15 -5 0 -10 -7 -10 -15z"/>
<path d="M1419 4672 c6 -12 16 -24 22 -28 8 -4 8 -1 0 14 -6 12 -16 24 -22 28 -8 4 -8 1 0 -14z"/>
<path d="M1330 4640 c0 -5 5 -10 11 -10 5 0 7 5 4 10 -3 6 -8 10 -11 10 -2 0 -4 -4 -4 -10z"/>
<path d="M1480 4600 c0 -5 7 -10 15 -10 8 0 15 5 15 10 0 6 -7 10 -15 10 -8 0 -15 -4 -15 -10z"/>
<path d="M1390 4575 c0 -2 15 -12 33 -20 l32 -16 -25 20 c-24 20 -40 26 -40 16z"/>
<path d="M793 3618 c-13 -6 -25 -19 -28 -29 -4 -11 -10 -19 -14 -19 -4 0 -13 -16 -20 -35 -7 -19 -18 -35 -25 -35 -8 0 -16 -16 -18 -37 -6 -40 -46 -112 -63 -113 -5 0 -21 -17 -35 -38 -13 -20 -38 -54 -54 -75 -28 -35 -30 -46 -34 -134 -3 -70 0 -112 12 -157 30 -107 33 -120 35 -186 3 -93 19 -197 33 -220 26 -42 79 -35 94 13 4 12 19 38 34 57 15 19 33 51 39 70 10 31 9 36 -11 52 -13 10 -31 18 -40 18 -24 0 -31 33 -23 108 6 53 12 69 31 85 31 24 30 35 -1 47 -14 5 -25 14 -25 19 0 5 -7 17 -16 26 -35 35 0 194 50 224 14 9 26 19 26 22 0 4 20 32 46 63 42 53 48 56 90 56 32 0 49 -6 61 -20 10 -11 27 -20 38 -20 11 0 34 -9 51 -19 18 -11 44 -21 60 -23 26 -3 28 0 41 52 8 30 17 68 20 83 3 16 16 49 29 73 17 32 20 46 11 48 -6 2 -39 10 -72 16 -33 7 -89 18 -125 26 -77 16 -166 17 -197 2z"/>
<path d="M2605 2762 c-101 -9 -101 -32 0 -32 77 0 102 -9 152 -53 28 -25 50 -14 30 16 -8 12 -17 35 -21 50 -6 27 -8 28 -69 25 -34 -2 -75 -4 -92 -6z"/>
<path d="M2395 2751 c-3 -6 -25 -11 -48 -11 -23 -1 -53 -7 -66 -14 -24 -13 -24 -14 -4 -20 12 -4 24 -13 27 -21 3 -8 12 -15 20 -15 8 0 32 -17 54 -38 97 -94 180 -152 216 -152 9 0 25 -13 38 -30 12 -16 28 -30 35 -30 19 0 16 -28 -3 -32 -9 -2 -26 -21 -38 -42 -19 -35 -29 -41 -74 -51 -29 -7 -60 -19 -70 -28 -9 -8 -29 -19 -45 -22 -15 -4 -30 -11 -32 -16 -3 -4 -27 -11 -53 -15 -26 -3 -54 -12 -62 -19 -8 -7 -40 -21 -70 -31 -62 -19 -90 -39 -90 -64 0 -9 -12 -23 -26 -30 -29 -16 -104 -102 -104 -119 0 -6 -7 -11 -15 -11 -22 0 -72 -33 -96 -64 -12 -15 -32 -32 -45 -36 -13 -5 -24 -16 -24 -25 0 -8 -4 -23 -9 -33 -60 -119 -64 -137 -28 -126 12 3 28 11 36 18 17 13 114 40 230 64 35 7 61 45 40 58 -13 8 -2 99 16 134 26 50 48 61 111 56 65 -4 84 0 84 20 0 8 10 14 21 14 27 0 119 67 119 86 0 8 7 14 15 14 8 0 19 9 25 20 6 11 15 20 21 20 10 0 35 10 114 46 17 7 53 18 82 23 28 6 73 23 100 39 27 16 62 33 78 39 34 11 45 43 37 111 -3 29 -14 52 -37 76 -19 20 -35 51 -41 77 -8 40 -12 44 -44 50 -44 7 -96 34 -108 55 -7 12 -28 16 -95 18 -47 1 -89 5 -93 9 -4 3 -7 17 -8 29 -1 20 -7 23 -43 26 -22 2 -44 -2 -48 -7z"/>
<path d="M2178 1783 c7 -3 16 -2 19 1 4 3 -2 6 -13 5 -11 0 -14 -3 -6 -6z"/>
<path d="M2230 1760 c0 -5 7 -10 15 -10 8 0 15 5 15 10 0 6 -7 10 -15 10 -8 0 -15 -4 -15 -10z"/>
<path d="M2336 1721 c17 -4 37 -11 45 -15 8 -4 5 0 -5 8 -11 9 -31 16 -45 15 -24 -1 -24 -2 5 -8z"/>
<path d="M1143 1683 c9 -2 23 -2 30 0 6 3 -1 5 -18 5 -16 0 -22 -2 -12 -5z"/>
<path d="M2410 1680 c0 -5 5 -10 11 -10 5 0 7 5 4 10 -3 6 -8 10 -11 10 -2 0 -4 -4 -4 -10z"/>
<path d="M1385 1670 c3 -5 8 -10 11 -10 2 0 4 5 4 10 0 6 -5 10 -11 10 -5 0 -7 -4 -4 -10z"/>
<path d="M3160 1674 c0 -9 28 -34 37 -34 15 0 63 -25 63 -32 0 -5 6 -8 14 -8 7 0 19 -6 25 -14 7 -8 27 -18 44 -22 18 -3 35 -12 39 -18 6 -8 8 -8 8 1 0 14 -52 53 -72 54 -7 0 -26 9 -43 20 -16 10 -41 24 -55 30 -14 6 -33 15 -42 20 -10 5 -18 7 -18 3z"/>
<path d="M978 1643 c-16 -2 -28 -8 -28 -13 0 -5 14 -5 31 0 30 9 53 22 33 19 -5 -1 -21 -4 -36 -6z"/>
<path d="M1500 1636 c14 -8 27 -12 29 -10 6 6 -1 11 -29 18 l-25 7 25 -15z"/>
<path d="M1708 1608 c9 -9 15 -9 24 0 9 9 7 12 -12 12 -19 0 -21 -3 -12 -12z"/>
<path d="M2550 1591 c-18 -5 -21 -9 -11 -15 8 -5 19 -2 29 8 9 9 14 16 12 15 -3 -1 -16 -4 -30 -8z"/>
<path d="M1612 1573 c13 -17 36 -16 52 0 11 11 6 13 -24 12 -29 0 -36 -3 -28 -12z"/>
<path d="M870 1570 c0 -5 5 -10 10 -10 6 0 10 5 10 10 0 6 -4 10 -10 10 -5 0 -10 -4 -10 -10z"/>
<path d="M2570 1535 c0 -8 5 -15 10 -15 6 0 10 7 10 15 0 8 -4 15 -10 15 -5 0 -10 -7 -10 -15z"/>
<path d="M1570 1505 c-8 -9 -8 -15 -2 -15 12 0 26 19 19 26 -2 2 -10 -2 -17 -11z"/>
<path d="M2615 1488 c4 -13 11 -27 16 -33 5 -5 4 5 -2 23 -12 36 -24 44 -14 10z"/>
<path d="M1985 1480 l-30 -8 33 -1 c17 0 32 4 32 9 0 6 -1 9 -2 9 -2 -1 -16 -5 -33 -9z"/>
<path d="M1551 1464 c0 -11 3 -14 6 -6 3 7 2 16 -1 19 -3 4 -6 -2 -5 -13z"/>
<path d="M2178 1473 c6 -2 18 -2 25 0 6 3 1 5 -13 5 -14 0 -19 -2 -12 -5z"/>
<path d="M1908 1453 c7 -3 16 -2 19 1 4 3 -2 6 -13 5 -11 0 -14 -3 -6 -6z"/>
<path d="M2238 1453 c6 -2 18 -2 25 0 6 3 1 5 -13 5 -14 0 -19 -2 -12 -5z"/>
<path d="M1071 1419 c-44 -27 -33 -36 15 -11 20 10 33 22 27 25 -5 3 -24 -3 -42 -14z"/>
<path d="M1506 1431 c-3 -5 1 -12 10 -15 20 -8 29 -1 19 13 -8 13 -22 14 -29 2z"/>
<path d="M1825 1430 c-3 -5 1 -10 10 -10 9 0 13 5 10 10 -3 6 -8 10 -10 10 -2 0 -7 -4 -10 -10z"/>
<path d="M2650 1430 c0 -5 5 -10 10 -10 6 0 10 5 10 10 0 6 -4 10 -10 10 -5 0 -10 -4 -10 -10z"/>
<path d="M2715 1422 c-17 -8 -25 -17 -18 -19 15 -5 69 22 57 30 -5 3 -23 -2 -39 -11z"/>
<path d="M3115 1431 c-2 -5 7 -13 21 -20 29 -13 34 -14 34 -3 0 11 -49 31 -55 23z"/>
<path d="M3460 1435 c0 -10 152 -157 157 -152 5 5 -142 157 -152 157 -3 0 -5 -2 -5 -5z"/>
<path d="M2366 1416 c21 -15 30 -14 19 3 -3 6 -14 11 -23 11 -13 0 -13 -2 4 -14z"/>
<path d="M765 1410 c-4 -6 -3 -16 3 -22 6 -6 12 -6 17 2 4 6 3 16 -3 22 -6 6 -12 6 -17 -2z"/>
<path d="M1785 1390 c-10 -11 -16 -22 -13 -25 3 -3 13 4 23 15 10 11 16 22 13 25 -3 3 -13 -4 -23 -15z"/>
<path d="M1550 1385 c7 -8 22 -15 34 -15 18 0 17 2 -8 15 -36 19 -42 19 -26 0z"/>
<path d="M2640 1380 c-12 -8 -11 -10 7 -10 12 0 25 5 28 10 8 13 -15 13 -35 0z"/>
<path d="M3190 1380 c0 -13 18 -22 24 -11 3 5 -1 11 -9 15 -8 3 -15 1 -15 -4z"/>
<path d="M1020 1369 c0 -5 5 -7 10 -4 6 3 10 8 10 11 0 2 -4 4 -10 4 -5 0 -10 -5 -10 -11z"/>
<path d="M2405 1370 c3 -5 8 -10 11 -10 2 0 4 5 4 10 0 6 -5 10 -11 10 -5 0 -7 -4 -4 -10z"/>
<path d="M740 1361 c0 -6 5 -13 10 -16 6 -3 10 1 10 9 0 9 -4 16 -10 16 -5 0 -10 -4 -10 -9z"/>
<path d="M947 1353 c-3 -5 -1 -17 4 -28 6 -17 8 -17 8 -2 1 10 9 17 21 17 11 0 20 5 20 10 0 12 -47 14 -53 3z"/>
<path d="M2565 1350 c-4 -6 3 -10 14 -10 25 0 27 6 6 13 -8 4 -17 2 -20 -3z"/>
<path d="M3240 1350 c0 -5 5 -10 11 -10 5 0 7 5 4 10 -3 6 -8 10 -11 10 -2 0 -4 -4 -4 -10z"/>
<path d="M2438 1343 c6 -2 12 -13 12 -23 0 -10 5 -22 10 -25 6 -4 10 7 10 24 0 26 -4 31 -22 30 -13 0 -17 -3 -10 -6z"/>
<path d="M728 1334 c-5 -4 -8 -17 -8 -29 0 -11 -5 -26 -12 -33 -9 -9 -9 -15 0 -24 9 -9 12 -7 12 9 0 12 5 23 11 25 6 2 9 16 7 32 -1 15 -6 24 -10 20z"/>
<path d="M1630 1320 c0 -13 5 -20 13 -17 6 2 12 10 12 17 0 7 -6 15 -12 18 -8 2 -13 -5 -13 -18z"/>
<path d="M2537 1308 c-7 -25 -3 -33 12 -23 13 8 15 45 2 45 -5 0 -11 -10 -14 -22z"/>
<path d="M1670 1288 c0 -12 16 -17 38 -11 32 8 27 23 -8 20 -16 -1 -30 -5 -30 -9z"/>
<path d="M895 1266 c-34 -19 -67 -76 -44 -76 5 0 9 9 9 20 0 11 6 20 13 20 14 0 53 37 46 44 -2 2 -13 -1 -24 -8z"/>
<path d="M2485 1270 c-8 -13 4 -32 16 -25 12 8 12 35 0 35 -6 0 -13 -4 -16 -10z"/>
<path d="M3640 1254 c0 -3 23 -27 50 -54 28 -27 50 -56 50 -65 0 -9 5 -13 10 -10 17 11 12 21 -44 79 -51 52 -66 64 -66 50z"/>
<path d="M688 1234 c-5 -4 -8 -17 -8 -29 0 -11 -5 -26 -12 -33 -9 -9 -9 -15 0 -24 9 -9 12 -7 12 9 0 12 5 23 11 25 6 2 9 16 7 32 -1 15 -6 24 -10 20z"/>
<path d="M2500 1217 c0 -23 33 -83 38 -68 2 7 -1 18 -7 24 -6 6 -11 19 -11 28 0 10 -4 21 -10 24 -5 3 -10 0 -10 -8z"/>
<path d="M3760 1100 c0 -19 3 -21 12 -12 9 9 9 15 0 24 -9 9 -12 7 -12 -12z"/>
</g>
</g>
</svg>
