<?xml version="1.0" encoding="UTF-8" standalone="no"?>
<!-- Created with Inkscape (http://www.inkscape.org/) -->

<svg
   xmlns:dc="http://purl.org/dc/elements/1.1/"
   xmlns:cc="http://creativecommons.org/ns#"
   xmlns:rdf="http://www.w3.org/1999/02/22-rdf-syntax-ns#"
   xmlns:svg="http://www.w3.org/2000/svg"
   xmlns="http://www.w3.org/2000/svg"
   xmlns:sodipodi="http://sodipodi.sourceforge.net/DTD/sodipodi-0.dtd"
   xmlns:inkscape="http://www.inkscape.org/namespaces/inkscape"
   version="1.0"
   width="208.86046"
   height="244.65999"
   id="svg2780"
   inkscape:version="0.92.5 (2060ec1f9f, 2020-04-08)"
   sodipodi:docname="LesEnfers-blazon.svg">
  <metadata
     id="metadata27">
    <rdf:RDF>
      <cc:Work
         rdf:about="">
        <dc:format>image/svg+xml</dc:format>
        <dc:type
           rdf:resource="http://purl.org/dc/dcmitype/StillImage" />
        <dc:title></dc:title>
      </cc:Work>
    </rdf:RDF>
  </metadata>
  <sodipodi:namedview
     pagecolor="#ffffff"
     bordercolor="#666666"
     borderopacity="1"
     objecttolerance="10"
     gridtolerance="10"
     guidetolerance="10"
     inkscape:pageopacity="0"
     inkscape:pageshadow="2"
     inkscape:window-width="3287"
     inkscape:window-height="1417"
     id="namedview25"
     showgrid="false"
     inkscape:zoom="2"
     inkscape:cx="72.606907"
     inkscape:cy="3.486888"
     inkscape:window-x="-8"
     inkscape:window-y="-8"
     inkscape:window-maximized="1"
     inkscape:current-layer="svg2780"
     inkscape:measure-start="104.255,149.787"
     inkscape:measure-end="104.255,126.383"
     showguides="true"
     inkscape:object-paths="true"
     inkscape:snap-intersection-paths="true"
     inkscape:snap-global="true" />
  <defs
     id="defs2782" />
  <path
     id="path9595-3-25-0-0-3-2-7-8"
     style="opacity:1;fill:#feeb00;fill-opacity:1;stroke:#000000;stroke-width:1.00000012;stroke-miterlimit:1;stroke-dasharray:none;stroke-dashoffset:4.57999992;stroke-opacity:1"
     d="m 44.813824,55.68468 c 3.51629,-3.84284 4.02206,-8.38693 3.19334,-12.10029 -1.05639,-4.7335 1.19777,-7.4677 2.95669,-9.92331 2.15922,-3.014457 2.1044,-6.575773 1.61973,-9.654999 -0.68423,-4.346986 1.10455,-7.513638 3.32482,-10.752237 -0.3524,3.865693 -0.36011,7.471729 2.38956,10.97885 1.94776,2.484301 3.75585,5.589988 3.34725,9.232486 -0.33284,2.96721 -0.96339,6.40695 2.30447,10.08283 2.56359,2.88366 4.38205,7.1422 3.18976,12.13667 3.51629,-3.84284 4.02206,-8.38693 3.19334,-12.10029 -1.05639,-4.7335 1.19777,-7.4677 2.95669,-9.92331 2.15922,-3.014457 2.10441,-6.575773 1.61973,-9.654999 -0.68423,-4.346986 1.10455,-7.513639 3.32482,-10.752237 -0.3524,3.865693 -0.36011,7.471729 2.38956,10.97885 1.94776,2.484301 3.75585,5.589988 3.34725,9.232486 -0.33284,2.96721 -0.96339,6.40695 2.30447,10.08283 2.56359,2.88366 4.38205,7.1422 3.18976,12.13667 3.51629,-3.84284 4.02206,-8.38693 3.19334,-12.10029 -1.05638,-4.7335 1.19777,-7.4677 2.95669,-9.92331 2.15922,-3.014457 2.10441,-6.575773 1.61973,-9.654999 -0.68422,-4.346986 1.10455,-7.513638 3.324816,-10.752236 -0.3524,3.865692 -0.36011,7.471728 2.38956,10.978849 1.94776,2.484301 3.75585,5.589988 3.34725,9.232486 -0.33284,2.96721 -0.96339,6.40695 2.30447,10.08283 2.56359,2.88366 4.38205,7.1422 3.16787,12.13667 3.49439,-3.84284 4.00016,-8.38693 3.17143,-12.10029 -1.05638,-4.7335 1.19778,-7.4677 2.9567,-9.92331 2.15921,-3.014457 2.1044,-6.575773 1.61972,-9.654999 -0.68422,-4.346986 1.10455,-7.513639 3.32483,-10.752237 -0.35241,3.865693 -0.36012,7.471729 2.38956,10.97885 1.94775,2.484301 3.75584,5.589988 3.34724,9.232486 -0.33283,2.96721 -0.96339,6.40695 2.30447,10.08283 2.56359,2.88366 4.38205,7.1422 3.18977,12.13667 3.51628,-3.84284 4.02205,-8.38693 3.19334,-12.10029 -1.05639,-4.7335 1.19777,-7.4677 2.95669,-9.92331 2.15921,-3.014457 2.1044,-6.575773 1.61972,-9.654999 -0.68422,-4.346986 1.10455,-7.513639 3.32482,-10.752237 -0.3524,3.865692 -0.3601,7.471729 2.38958,10.97885 1.94775,2.484301 3.75583,5.589988 3.34724,9.232486 -0.33284,2.96721 -0.96339,6.40695 2.30446,10.08283 2.5636,2.88366 4.38205,7.1422 3.18977,12.13667 3.51629,-3.84284 4.02206,-8.38693 3.19334,-12.10029 -1.05639,-4.7335 1.19777,-7.4677 2.95669,-9.92331 2.15921,-3.014457 2.1044,-6.575773 1.61973,-9.654999 -0.68422,-4.346986 1.10455,-7.513638 3.32482,-10.752236 -0.3524,3.865692 -0.36011,7.471728 2.38956,10.978849 1.94776,2.484301 3.75584,5.589988 3.34725,9.232486 -0.33284,2.96721 -0.96339,6.40695 2.30447,10.08283 2.56358,2.88366 4.38204,7.1422 3.18976,12.13667"
     inkscape:connector-curvature="0"
     sodipodi:nodetypes="cssscssscssscssscssscssscccscccscccsccsccscsccscc" />
  <path
     id="path4212-6"
     style="fill:#cc2918;fill-opacity:1;fill-rule:evenodd;stroke:#000000;stroke-width:2;stroke-linecap:butt;stroke-miterlimit:4;stroke-dashoffset:0;stroke-opacity:1;stroke-dasharray:none"
     d="M 1.000033,149.10355 V 0.99999834 H 207.89951 V 149.10355 c 0,51.44535 -51.75421,94.56785 -103.46927,94.56785 -51.71506,0 -103.430207,-43.1225 -103.430207,-94.56785 z"
     inkscape:connector-curvature="0"
     sodipodi:nodetypes="sccscs" />
  <path
     id="path9595-3-25-0-0-3-2-7"
     style="opacity:1;fill:#feeb00;fill-opacity:1;stroke:#000000;stroke-width:1;stroke-miterlimit:1;stroke-dasharray:none;stroke-dashoffset:4.57999992;stroke-opacity:1"
     d="M 1.000033,86.48978 0.91114588,28.817384 c -0.0067,-4.346901 3.43763022,8.132269 2.90392162,12.909386 -0.6678397,5.977697 -1.933016,12.907343 4.6238335,20.312685 5.143751,5.809387 8.792425,14.388561 6.40015,24.450325 7.055316,-7.74172 8.070127,-16.896156 6.407326,-24.377028 -2.119605,-9.53602 2.403283,-15.04429 5.932497,-19.991316 4.332398,-6.072873 4.222412,-13.247438 3.249927,-19.450792 -1.372868,-8.75736 2.216241,-15.1368426 6.671137,-21.6612646 -0.707073,7.7877554 -0.72254,15.0524126 4.794584,22.1177966 3.908106,5.004828 7.535966,11.26149 6.716139,18.599594 -0.667837,5.977697 -1.933015,12.907343 4.623833,20.312685 5.143751,5.809387 8.792424,14.388561 6.400149,24.450325 7.055317,-7.74172 8.070128,-16.896156 6.407326,-24.377028 -2.119605,-9.53602 2.403284,-15.04429 5.932499,-19.991316 4.332397,-6.072873 4.222412,-13.247438 3.249926,-19.450792 -1.372867,-8.75736 2.216242,-15.1368421 6.671138,-21.6612642 -0.707073,7.7877555 -0.722541,15.0524122 4.794584,22.1177962 3.908109,5.004828 7.535969,11.26149 6.716139,18.599594 -0.66784,5.977697 -1.93302,12.907343 4.623825,20.312685 5.14375,5.809387 8.79243,14.388561 6.35622,24.450325 7.01138,-7.74172 8.02619,-16.896156 6.36338,-24.377028 -2.1196,-9.53602 2.40329,-15.04429 5.9325,-19.991316 4.3324,-6.072873 4.22241,-13.247438 3.24993,-19.450792 -1.37287,-8.75736 2.21624,-15.1368428 6.67114,-21.6612646 -0.70708,7.7877558 -0.72255,15.0524126 4.79458,22.1177966 3.9081,5.004828 7.53597,11.26149 6.71613,18.599594 -0.66783,5.977697 -1.93301,12.907343 4.62384,20.312685 5.14375,5.809387 8.79242,14.388561 6.40015,24.450325 7.05531,-7.74172 8.07012,-16.896156 6.40733,-24.377028 -2.11961,-9.53602 2.40328,-15.04429 5.93249,-19.991316 4.3324,-6.072873 4.22241,-13.247438 3.24992,-19.450792 -1.37287,-8.75736 2.21625,-15.1368428 6.67114,-21.6612647 -0.70707,7.7877549 -0.72253,15.0524127 4.7946,22.1177967 3.9081,5.004828 7.53596,11.26149 6.71613,18.599594 -0.66784,5.977697 -1.93301,12.907343 4.62383,20.312685 5.14376,5.809387 8.79243,14.388561 6.40015,24.450325 7.05532,-7.74172 8.07013,-16.896156 6.40733,-24.377028 -2.1196,-9.53602 2.40328,-15.04429 5.9325,-19.991316 0.63379,-0.888403 1.62738,-3.763888 1.62736,-2.729451 l -0.001,47.097795"
     inkscape:connector-curvature="0"
     sodipodi:nodetypes="cssscssscssscssscssscccscccscccsccsccscsc" />
  <path
     id="path9595-3-25-0-0-3-2-7-5"
     style="opacity:1;fill:#feeb00;fill-opacity:1;stroke:#000000;stroke-width:1;stroke-miterlimit:1;stroke-dasharray:none;stroke-dashoffset:4.57999992;stroke-opacity:1"
     d="m 207.89201,150.48978 c 0.0459,7.36262 -1.50381,14.62928 -3.57577,21.86453 -0.79293,-1.55738 -2.02617,-3.3041 -3.89451,-5.41421 -5.14376,-5.80939 -8.79243,-6.38856 -6.40015,-16.45032 -7.05532,7.74172 -8.07013,8.89615 -6.40733,16.37702 2.11961,9.53602 -2.40328,11.04429 -5.9325,15.99132 -4.33239,6.07287 -4.22241,11.24744 -3.24992,17.45079 1.37286,8.75736 -2.21624,12.00296 -6.67114,18.52739 0.70707,-7.78776 0.72254,-11.91854 -4.79458,-18.98392 -3.90811,-5.00483 -7.53597,-9.26149 -6.71614,-16.59959 0.66783,-5.9777 1.93301,-8.90735 -4.62384,-16.31269 -5.14375,-5.80939 -8.79242,-6.38856 -6.40015,-16.45032 -7.05531,7.74172 -8.07012,16.89615 -6.40732,24.37702 2.1196,9.53602 -2.40329,15.04429 -5.9325,19.99132 -4.33239,6.07287 -4.22241,15.24744 -3.24992,21.45079 1.37286,8.75736 -2.21624,18.02072 -6.67114,24.54515 0.70707,-7.78776 0.72254,-17.9363 -4.79458,-25.00168 -3.90811,-5.00483 -7.53597,-13.26149 -6.71614,-20.59959 0.66784,-5.9777 1.93302,-12.90735 -4.62383,-20.31269 -5.14375,-5.80939 -8.79243,-14.38856 -6.35622,-24.45032 -7.011384,7.74172 -8.026194,16.89615 -6.363384,24.37702 2.119604,9.53602 -2.40329,15.04429 -5.9325,19.99132 -4.3324,6.07287 -4.22241,15.24744 -3.24993,21.45079 1.37287,8.75736 -2.21624,18.02073 -6.67114,24.54515 0.70708,-7.78776 0.72255,-17.9363 -4.79458,-25.00168 -3.9081,-5.00483 -7.53597,-13.26149 -6.71613,-20.59959 0.66783,-5.9777 1.93301,-12.90735 -4.62384,-20.31269 -5.14375,-5.80939 -8.79242,-14.38856 -6.40015,-24.45032 -7.05531,7.74172 -8.07012,8.89615 -6.40733,16.37702 2.11961,9.53602 -2.40328,11.04429 -5.93249,15.99132 -4.3324,6.07287 -4.22241,11.24744 -3.24992,17.45079 1.37287,8.75736 -2.21625,12.25297 -6.67114,18.77739 0.70707,-7.78776 0.72253,-12.16854 -4.7946,-19.23392 -3.9081,-5.00483 -7.53596,-9.26149 -6.71613,-16.59959 0.66784,-5.9777 1.93301,-8.90735 -4.62383,-16.31269 -5.14376,-5.80939 -8.79243,-6.38856 -6.40015,-16.45032 -7.05532,7.74172 -8.07013,8.89615 -6.40733,16.37702 1.33733,6.01663 0.0304,8.83756 -2.00282,11.34276 -2.94107,-8.97004 -5.65019001,-17.99658 -5.49936,-27.71978"
     inkscape:connector-curvature="0"
     sodipodi:nodetypes="ccscssscssscssscssscccscccscccsccsccscc" />
  <path
     style="opacity:1;fill:#000000;fill-opacity:1;stroke:#000000;stroke-width:1;stroke-miterlimit:1;stroke-dasharray:none;stroke-dashoffset:4.57999992;stroke-opacity:1"
     d="m 1.000033,86.48978 0.012516,64 H 207.88698 l 0.0125,-64 z"
     id="path9840"
     inkscape:connector-curvature="0" />
  <path
     id="path4212-6-0"
     style="fill:none;fill-opacity:1;fill-rule:evenodd;stroke:#000000;stroke-width:2;stroke-linecap:butt;stroke-miterlimit:4;stroke-dasharray:none;stroke-dashoffset:0;stroke-opacity:1"
     d="M 1.000033,149.10355 V 0.9999984 H 207.89951 V 149.10355 c 0,51.44535 -51.75421,94.56785 -103.46927,94.56785 -51.71506,0 -103.430207,-43.1225 -103.430207,-94.56785 z"
     inkscape:connector-curvature="0"
     sodipodi:nodetypes="sccscs" />
</svg>
