<?xml version="1.0" encoding="UTF-8" standalone="no"?>
<!-- Created with Inkscape (http://www.inkscape.org/) -->

<svg
   xmlns:dc="http://purl.org/dc/elements/1.1/"
   xmlns:cc="http://creativecommons.org/ns#"
   xmlns:rdf="http://www.w3.org/1999/02/22-rdf-syntax-ns#"
   xmlns:svg="http://www.w3.org/2000/svg"
   xmlns="http://www.w3.org/2000/svg"
   xmlns:sodipodi="http://sodipodi.sourceforge.net/DTD/sodipodi-0.dtd"
   xmlns:inkscape="http://www.inkscape.org/namespaces/inkscape"
   version="1.0"
   width="208.86046"
   height="244.65999"
   id="svg2780"
   inkscape:version="0.92.5 (2060ec1f9f, 2020-04-08)"
   sodipodi:docname="Coeuve-blazon.svg">
  <metadata
     id="metadata27">
    <rdf:RDF>
      <cc:Work
         rdf:about="">
        <dc:format>image/svg+xml</dc:format>
        <dc:type
           rdf:resource="http://purl.org/dc/dcmitype/StillImage" />
        <dc:title></dc:title>
      </cc:Work>
    </rdf:RDF>
  </metadata>
  <sodipodi:namedview
     pagecolor="#ffffff"
     bordercolor="#666666"
     borderopacity="1"
     objecttolerance="10"
     gridtolerance="10"
     guidetolerance="10"
     inkscape:pageopacity="0"
     inkscape:pageshadow="2"
     inkscape:window-width="3287"
     inkscape:window-height="1417"
     id="namedview25"
     showgrid="false"
     inkscape:zoom="2.8284271"
     inkscape:cx="124.97108"
     inkscape:cy="130.97546"
     inkscape:window-x="-8"
     inkscape:window-y="-8"
     inkscape:window-maximized="1"
     inkscape:current-layer="svg2780"
     inkscape:measure-start="104.255,149.787"
     inkscape:measure-end="104.255,126.383"
     showguides="true"
     inkscape:object-paths="true"
     inkscape:snap-intersection-paths="true" />
  <defs
     id="defs2782" />
  <path
     id="path4212-6"
     style="fill:#1b63c6;fill-opacity:1;fill-rule:evenodd;stroke:#000000;stroke-width:2;stroke-linecap:butt;stroke-miterlimit:4;stroke-dashoffset:0;stroke-opacity:1;stroke-dasharray:none"
     d="M 1.000033,149.10355 V 0.99999834 H 207.89951 V 149.10355 c 0,51.44535 -51.75421,94.56785 -103.46927,94.56785 -51.71506,0 -103.430207,-43.1225 -103.430207,-94.56785 z"
     inkscape:connector-curvature="0"
     sodipodi:nodetypes="sccscs" />
  <g
     transform="matrix(1.3544892,0,0,1.3530285,-683.21655,141.96706)"
     id="g11630"
     style="stroke-width:0.73868406">
    <path
       sodipodi:nodetypes="csscscssc"
       inkscape:connector-curvature="0"
       id="path11591-9"
       d="m 562.11558,-58.155651 c 5.20103,-2.295822 10.48161,-6.073779 10.48161,-14.192073 0,-7.892038 -11.24435,-13.763927 -19.05528,-7.197907 -8.13003,6.834258 -11.27039,17.119355 -10.96015,29.698485 0.94759,7.673532 2.20616,18.761266 12.25917,19.76682 6.02708,0.602859 12.87295,-5.426333 6.39077,-12.253811 -1.51662,5.925777 -7.9651,5.216697 -10.25305,2.032932 -6.73252,-9.368565 -3.10105,-19.99213 0.7955,-25.279067 5.60788,-7.608915 14.76199,-0.83065 10.34143,7.424621 z"
       style="opacity:1;fill:#feeb00;fill-opacity:1;stroke:#000000;stroke-width:0.73868406;stroke-miterlimit:4;stroke-dasharray:none;stroke-dashoffset:4.57999992;stroke-opacity:1" />
    <path
       sodipodi:nodetypes="csscscssc"
       inkscape:connector-curvature="0"
       id="path11591-3"
       d="m 520.39628,-58.155647 c -5.20103,-2.295822 -10.48161,-6.073779 -10.48161,-14.192073 0,-7.892038 11.24435,-13.763927 19.05528,-7.197907 8.13003,6.834258 11.27039,17.119355 10.96015,29.698485 -0.94759,7.673532 -2.20616,18.761266 -12.25917,19.76682 -6.02708,0.602859 -12.87295,-5.426333 -6.39077,-12.253811 1.51662,5.925777 7.9651,5.216697 10.25305,2.032932 6.73252,-9.368565 3.10105,-19.99213 -0.7955,-25.279067 -5.60788,-7.608915 -14.76199,-0.83065 -10.34143,7.424621 z"
       style="opacity:1;fill:#feeb00;fill-opacity:1;stroke:#000000;stroke-width:0.73868406;stroke-miterlimit:4;stroke-dasharray:none;stroke-dashoffset:4.57999992;stroke-opacity:1" />
    <path
       sodipodi:nodetypes="scscscscs"
       inkscape:connector-curvature="0"
       d="m 546.8244,-29.34105 c -1.27309,-6.948193 -3.34487,-14.088003 -3.27037,-20.594485 -2.13107,-10.514622 2.65611,-21.422141 5.92202,-32.438523 2.00994,-6.779816 -2.69238,-12.993978 -8.22012,-16.793788 -5.52774,3.799814 -10.23006,10.013976 -8.22012,16.793792 3.26591,11.016382 8.05309,21.923901 5.92202,32.438523 0.0745,6.506482 -1.99728,13.646292 -3.27037,20.594485 -0.71704,3.913419 2.92592,8.500738 5.56847,11.13693 2.64255,-2.636196 6.28551,-7.223515 5.56847,-11.136934 z"
       style="opacity:1;fill:#feeb00;fill-opacity:1;stroke:#000000;stroke-width:0.73868406;stroke-miterlimit:4;stroke-dasharray:none;stroke-dashoffset:4.57999992;stroke-opacity:1"
       id="path11583-79" />
    <path
       sodipodi:nodetypes="scscscscs"
       inkscape:connector-curvature="0"
       d="m 534.56181,-53.637739 c -1.57629,0 -2.65477,1.575754 -2.62727,3.635915 0,1.999055 1.10869,3.635916 2.62727,3.635916 l 6.69412,-2e-6 6.69413,-2e-6 c 1.51858,0 2.62726,-1.636861 2.62726,-3.635916 0.0275,-2.060161 -1.05098,-3.635915 -2.62726,-3.635915 l -6.69413,2e-6 z"
       style="opacity:1;fill:#feeb00;fill-opacity:1;stroke:#000000;stroke-width:0.73868406;stroke-miterlimit:4;stroke-dasharray:none;stroke-dashoffset:4.57999992;stroke-opacity:1"
       id="path11589-3" />
  </g>
  <path
     style="opacity:1;fill:#feeb00;fill-opacity:1;stroke:#000000;stroke-width:1;stroke-miterlimit:8;stroke-dasharray:none;stroke-dashoffset:4.57999992;stroke-opacity:1"
     d="m 9.9818415,185.76871 c 8.6446105,15.89895 20.1004385,29.4232 35.7106725,39.43813 L 207.89951,40.964509 207.86826,0.99999834 h -35.21601 z"
     id="path15628"
     inkscape:connector-curvature="0"
     sodipodi:nodetypes="cccccc" />
  <path
     id="path4212-6-3"
     style="fill:none;fill-opacity:1;fill-rule:evenodd;stroke:#000000;stroke-width:2;stroke-linecap:butt;stroke-miterlimit:4;stroke-dasharray:none;stroke-dashoffset:0;stroke-opacity:1"
     d="M 1.000033,149.10355 V 0.9999984 H 207.89951 V 149.10355 c 0,51.44535 -51.75421,94.56785 -103.46927,94.56785 -51.71506,0 -103.430207,-43.1225 -103.430207,-94.56785 z"
     inkscape:connector-curvature="0"
     sodipodi:nodetypes="sccscs" />
</svg>
