<?xml version="1.0" encoding="UTF-8"?>
<svg version="1.0" viewBox="0 0 208.86 244.66" xmlns="http://www.w3.org/2000/svg" xmlns:cc="http://creativecommons.org/ns#" xmlns:dc="http://purl.org/dc/elements/1.1/" xmlns:rdf="http://www.w3.org/1999/02/22-rdf-syntax-ns#">
<metadata>
<rdf:RDF>
<cc:Work rdf:about="">
<dc:format>image/svg+xml</dc:format>
<dc:type rdf:resource="http://purl.org/dc/dcmitype/StillImage"/>
<dc:title/>
</cc:Work>
</rdf:RDF>
</metadata>
<path d="m1 149.1v-148.1h206.87v148.1c0 51.445-51.723 94.568-103.44 94.568s-103.43-43.122-103.43-94.568z" fill="#1b63c6" fill-rule="evenodd" stroke="#000" stroke-width="2"/>
<path d="m77.822 22.98 20.638 5.0063 5.9699-20.32 5.9699 20.32 20.638-5.0063-14.669 15.314 14.669 15.314-20.638-5.0063-5.9699 20.32-5.9699-20.32-20.638 5.0063 14.669-15.314z" fill="#feeb00" fill-rule="evenodd" stroke="#000" stroke-width="1px"/>
<path d="m1 1v26l80.541 91.489-66.701 75.762c5.7414 9.5355 14.123 17.727 23.335 25.495l66.256-75.256 66.254 75.26c9.5564-7.6842 17.403-16.15 23.337-25.491l-66.701-75.768 80.548-91.491v-26h-22.89l-80.548 91.49-80.542-91.49z" fill="#feeb00" stroke="#000" stroke-dashoffset="4.58"/>
<path d="m1 149.1v-148.1h206.87v148.1c0 51.445-51.723 94.568-103.44 94.568s-103.43-43.122-103.43-94.568z" fill="none" stroke="#000" stroke-width="2"/>
</svg>
