<?xml version="1.0" encoding="UTF-8"?>
<svg version="1.0" viewBox="0 0 208.86 244.66" xmlns="http://www.w3.org/2000/svg" xmlns:cc="http://creativecommons.org/ns#" xmlns:dc="http://purl.org/dc/elements/1.1/" xmlns:rdf="http://www.w3.org/1999/02/22-rdf-syntax-ns#">
<metadata>
<rdf:RDF>
<cc:Work rdf:about="">
<dc:format>image/svg+xml</dc:format>
<dc:type rdf:resource="http://purl.org/dc/dcmitype/StillImage"/>
<dc:title/>
</cc:Work>
</rdf:RDF>
</metadata>
<path d="m1 149.1v-148.1h206.9v148.1c0 51.445-51.754 94.568-103.47 94.568s-103.43-43.122-103.43-94.568z" fill="#feeb00" fill-rule="evenodd" stroke="#000" stroke-width="2"/>
<rect x="160.17" y="34.556" width="13.952" height="28.377" stroke="#000" stroke-dashoffset="4.58"/>
<rect x="136.33" y="58.556" width="13.952" height="28.377" stroke="#000" stroke-dashoffset="4.58"/>
<rect x="136.33" y="10.556" width="13.952" height="28.377" stroke="#000" stroke-dashoffset="4.58"/>
<rect transform="scale(-1,1)" x="-197.97" y="58.556" width="13.952" height="28.377" stroke="#000" stroke-dashoffset="4.58"/>
<rect transform="scale(-1,1)" x="-197.97" y="10.556" width="13.952" height="28.377" stroke="#000" stroke-dashoffset="4.58"/>
<rect transform="scale(-1,1)" x="-48.687" y="34.556" width="13.952" height="28.377" stroke="#000" stroke-dashoffset="4.58"/>
<rect transform="scale(-1,1)" x="-72.534" y="58.556" width="13.952" height="28.377" stroke="#000" stroke-dashoffset="4.58"/>
<rect transform="scale(-1,1)" x="-72.534" y="10.556" width="13.952" height="28.377" stroke="#000" stroke-dashoffset="4.58"/>
<rect x="10.888" y="58.556" width="13.952" height="28.377" stroke="#000" stroke-dashoffset="4.58"/>
<rect x="10.888" y="10.556" width="13.952" height="28.377" stroke="#000" stroke-dashoffset="4.58"/>
<rect transform="scale(1,-1)" x="160.17" y="-202.42" width="13.952" height="28.377" stroke="#000" stroke-dashoffset="4.58"/>
<rect transform="scale(1,-1)" x="136.33" y="-178.42" width="13.952" height="28.377" stroke="#000" stroke-dashoffset="4.58"/>
<rect transform="scale(1,-1)" x="136.33" y="-226.42" width="13.952" height="28.377" stroke="#000" stroke-dashoffset="4.58"/>
<rect transform="scale(-1)" x="-197.97" y="-178.42" width="13.952" height="28.377" stroke="#000" stroke-dashoffset="4.58"/>
<path transform="scale(-1)" d="m-184.02-207.27v9.2257h-7.4283z" stroke="#000" stroke-dashoffset="4.58"/>
<rect transform="scale(-1)" x="-48.687" y="-202.42" width="13.952" height="28.377" stroke="#000" stroke-dashoffset="4.58"/>
<rect transform="scale(-1)" x="-72.534" y="-178.42" width="13.952" height="28.377" stroke="#000" stroke-dashoffset="4.58"/>
<rect transform="scale(-1)" x="-72.534" y="-226.42" width="13.952" height="28.377" stroke="#000" stroke-dashoffset="4.58"/>
<rect transform="scale(1,-1)" x="10.888" y="-178.42" width="13.952" height="28.377" stroke="#000" stroke-dashoffset="4.58"/>
<path d="m1 96.49h81.43v-95.49h44v95.49h81.438v44h-81.438v100.65c-15.289 3.1491-30.044 3.5942-44-1e-4v-100.65h-81.43z" stroke="#000" stroke-dashoffset="4.58"/>
<path d="m24.84 207.27v-9.2257h-7.4283z" stroke="#000" stroke-dashoffset="4.58"/>
</svg>
