<?xml version="1.0" encoding="UTF-8" standalone="no"?>
<!-- Created with Inkscape (http://www.inkscape.org/) -->

<svg
   xmlns:dc="http://purl.org/dc/elements/1.1/"
   xmlns:cc="http://creativecommons.org/ns#"
   xmlns:rdf="http://www.w3.org/1999/02/22-rdf-syntax-ns#"
   xmlns:svg="http://www.w3.org/2000/svg"
   xmlns="http://www.w3.org/2000/svg"
   xmlns:sodipodi="http://sodipodi.sourceforge.net/DTD/sodipodi-0.dtd"
   xmlns:inkscape="http://www.inkscape.org/namespaces/inkscape"
   version="1.0"
   width="208.86046"
   height="244.65999"
   id="svg2780"
   inkscape:version="0.92.5 (2060ec1f9f, 2020-04-08)"
   sodipodi:docname="Lugnez-blazon.svg">
  <metadata
     id="metadata27">
    <rdf:RDF>
      <cc:Work
         rdf:about="">
        <dc:format>image/svg+xml</dc:format>
        <dc:type
           rdf:resource="http://purl.org/dc/dcmitype/StillImage" />
        <dc:title></dc:title>
      </cc:Work>
    </rdf:RDF>
  </metadata>
  <sodipodi:namedview
     pagecolor="#ffffff"
     bordercolor="#666666"
     borderopacity="1"
     objecttolerance="10"
     gridtolerance="10"
     guidetolerance="10"
     inkscape:pageopacity="0"
     inkscape:pageshadow="2"
     inkscape:window-width="3287"
     inkscape:window-height="1417"
     id="namedview25"
     showgrid="false"
     inkscape:zoom="0.70710678"
     inkscape:cx="-156.71276"
     inkscape:cy="-10.508593"
     inkscape:window-x="-8"
     inkscape:window-y="-8"
     inkscape:window-maximized="1"
     inkscape:current-layer="svg2780"
     inkscape:measure-start="104.255,149.787"
     inkscape:measure-end="104.255,126.383"
     showguides="true"
     inkscape:object-paths="true"
     inkscape:snap-intersection-paths="true"
     inkscape:snap-object-midpoints="false"
     inkscape:lockguides="true" />
  <defs
     id="defs2782" />
  <path
     id="path4207-8-0"
     style="opacity:1;fill:none;fill-opacity:1;stroke:#00ff00;stroke-width:1.00199997;stroke-miterlimit:11;stroke-dasharray:none;stroke-dashoffset:4.57999992;stroke-opacity:0.54883716"
     d="m 99.565615,169.92535 c -0.89565,3.76641 -4.28576,6.55416 -8.32624,6.55416 -4.03561,0 -7.42632,-2.79463 -8.32689,-6.55416 -0.89565,3.76641 -4.28576,6.55416 -8.32624,6.55416 -4.03561,0 -7.42632,-2.79463 -8.32689,-6.55416 -0.89565,3.76641 -4.28576,6.55416 -8.32624,6.55416 -4.03561,0 -7.42632,-2.79463 -8.32689,-6.55416"
     inkscape:connector-curvature="0"
     sodipodi:nodetypes="cscscsc" />
  <path
     id="path4207-8-0-8-2"
     style="opacity:1;fill:none;fill-opacity:1;stroke:#00ff00;stroke-width:1.00199997;stroke-miterlimit:11;stroke-dasharray:none;stroke-dashoffset:4.57999992;stroke-opacity:0.54883716"
     d="m 121.27871,232.42368 c -3.41885,1.81646 -7.75139,1.11394 -10.42122,-1.91881 -2.66659,-3.02909 -2.80945,-7.42072 -0.58265,-10.58086 -3.41885,1.81647 -7.75139,1.11394 -10.421205,-1.9188 -2.66661,-3.02908 -2.80947,-7.42073 -0.58267,-10.58086 -3.41885,1.81646 -7.75139,1.11394 -10.4212,-1.9188 -2.66661,-3.02909 -2.80947,-7.42073 -0.58267,-10.58087 -3.41885,1.81646 -7.75139,1.11394 -10.42122,-1.91881 -2.66659,-3.02909 -2.80945,-7.42072 -0.58265,-10.58086 -3.41885,1.81647 -7.75139,1.11394 -10.4212,-1.9188 -2.66661,-3.02908 -2.80947,-7.42073 -0.58267,-10.58086 -3.41885,1.81646 -7.75139,1.11394 -10.4212,-1.9188 -2.66661,-3.02909 -2.80947,-7.42073 -0.58267,-10.58087 -3.41885,1.81646 -7.75139,1.11394 -10.42122,-1.91881 -2.66659,-3.02909 -2.80945,-7.42072 -0.58265,-10.58086 -3.41885,1.81647 -7.75139,1.11394 -10.4212,-1.9188 -2.66661,-3.02908 -2.80947,-7.42073 -0.58267,-10.58086 -3.41885,1.81646 -7.75139,1.11394 -10.4212,-1.9188 -2.66661,-3.02909 -2.80947,-7.42073 -0.58267,-10.58087"
     inkscape:connector-curvature="0"
     sodipodi:nodetypes="ccccccccccccccccccc" />
  <path
     id="path4207-8-0-8-2-2-4-7"
     style="opacity:1;fill:#cc2918;fill-opacity:1;stroke:#000000;stroke-width:1.00199997;stroke-miterlimit:11;stroke-dasharray:none;stroke-dashoffset:4.57999992;stroke-opacity:1"
     d="m 10.103145,185.97764 c 2.45321,0.64538 5.16995,-0.0934 6.96151,-2.12914 2.15801,-2.45216 2.27363,-6.00736 0.47154,-8.56562 2.76678,1.47049 6.27299,0.90178 8.43362,-1.55335 2.158,-2.45216 2.27361,-6.00736 0.47152,-8.56561 2.76679,1.47051 6.27299,0.90178 8.43361,-1.55334 2.15801,-2.45216 2.27363,-6.00736 0.47153,-8.56561 2.76679,1.47049 6.273,0.90178 8.4336,-1.55334 2.15802,-2.45217 2.27364,-6.00737 0.47154,-8.56562 2.76679,1.47049 6.273,0.90177 8.43362,-1.55335 2.15801,-2.45217 2.27362,-6.00736 0.47153,-8.56561 2.76679,1.4705 6.27299,0.90177 8.4336,-1.55335 2.15802,-2.45215 2.27363,-6.00735 0.47154,-8.56561 2.76678,1.47049 6.27299,0.90179 8.4336,-1.55334 1.15983,-1.31791 1.72969,-2.98115 1.72896,-4.61029 0.007,-1.63829 -0.56255,-3.27336 -1.72896,-4.59876 -2.16061,-2.45513 -5.66682,-3.02383 -8.4336,-1.55334 1.80209,-2.55826 1.68648,-6.11346 -0.47154,-8.56562 -2.16061,-2.45512 -5.66681,-3.02384 -8.4336,-1.55334 1.80209,-2.558256 1.68648,-6.113442 -0.47153,-8.56561 -2.16062,-2.455127 -5.66683,-3.023844 -8.43362,-1.553352 1.8021,-2.558251 1.68648,-6.113452 -0.47154,-8.565617 -2.1606,-2.455119 -5.66681,-3.023834 -8.4336,-1.553342 1.8021,-2.558245 1.68648,-6.113454 -0.47153,-8.565609 -2.16062,-2.455119 -5.66682,-3.023844 -8.4336,-1.553342 1.80208,-2.558254 1.68647,-6.113447 -0.47153,-8.565611 -2.16063,-2.455123 -5.66684,-3.023843 -8.43362,-1.55335 1.80209,-2.55825 1.68647,-6.113456 -0.47154,-8.565623 -2.16061,-2.455118 -5.66682,-3.023828 -8.4336102,-1.553334 1.8020902,-2.558251 1.6864802,-6.113457 -0.47153,-8.565615 -1.82414,-2.072787 -4.60742,-2.800963 -7.09508,-2.092557 L 0.99403484,0.99999725 33.970565,1.2166945 c -0.3367,2.184716 0.26254,4.4987911 1.83666,6.2866189 2.40846,2.7354126 6.31685,3.3690536 9.401,1.730676 -1.80288,2.5581246 -1.68721,6.1131576 0.47175,8.5652066 2.16156,2.455005 5.66931,3.023696 8.43731,1.55327 -1.80288,2.558126 -1.68722,6.113169 0.47175,8.56521 2.16155,2.455003 5.6693,3.023702 8.4373,1.553268 -1.80288,2.558134 -1.68722,6.11316 0.47173,8.56521 2.16158,2.455012 5.66933,3.023701 8.43733,1.553277 -1.80289,2.558133 -1.68722,6.113168 0.47174,8.565218 2.16156,2.455005 5.66931,3.023694 8.43731,1.55327 -1.80288,2.558125 -1.68722,6.113168 0.47174,8.565209 2.16156,2.455003 5.66931,3.023702 8.43731,1.553269 -1.80288,2.558134 -1.68722,6.113161 0.47173,8.565209 2.16157,2.455012 5.66933,3.023703 8.43732,1.553278 -1.80288,2.558134 -1.68721,6.113167 0.47175,8.565218 1.391345,1.580242 3.340325,2.354063 5.290965,2.355263 1.97374,0.0013 3.90665,-0.772533 5.3002,-2.355268 2.15897,-2.452051 2.27463,-6.007083 0.47175,-8.565218 2.76799,1.470426 6.27576,0.901735 8.43733,-1.553277 2.15895,-2.452049 2.27461,-6.007075 0.47172,-8.56521 2.76801,1.470433 6.27575,0.901735 8.43731,-1.553269 2.15897,-2.452041 2.27463,-6.007083 0.47175,-8.565209 2.76799,1.470424 6.27575,0.901735 8.43731,-1.55327 2.15896,-2.45205 2.27463,-6.007084 0.47174,-8.565217 2.76801,1.470423 6.27575,0.901734 8.43732,-1.553278 2.15896,-2.452049 2.27461,-6.007075 0.47174,-8.565208 2.768,1.470432 6.27574,0.901733 8.43731,-1.553269 2.15895,-2.452041 2.27463,-6.007083 0.47174,-8.56521 2.768,1.470426 6.27575,0.901735 8.4373,-1.55327 2.15897,-2.452049 2.27463,-6.007082 0.47176,-8.5652066 3.08414,1.6383776 6.99252,1.0047366 9.40098,-1.730676 1.61743,-1.8370035 2.20559,-4.2296023 1.80676,-6.4665894 l 33.00298,-0.0367229 0.0363,39.9877069 c -2.50229,-0.744905 -5.32504,-0.02336 -7.16838,2.071232 -2.15801,2.452158 -2.27362,6.007364 -0.47154,8.565615 -2.76678,-1.470494 -6.27298,-0.901784 -8.4336,1.553334 -2.15801,2.452167 -2.27363,6.007373 -0.47154,8.565623 -2.76678,-1.470493 -6.27299,-0.901773 -8.43362,1.55335 -2.158,2.452164 -2.27361,6.007357 -0.47153,8.565611 -2.76678,-1.470502 -6.27298,-0.901777 -8.4336,1.553342 -2.15801,2.452155 -2.27363,6.007364 -0.47154,8.565609 -2.76678,-1.470492 -6.27299,-0.901777 -8.4336,1.553342 -2.15801,2.452165 -2.27363,6.007366 -0.47154,8.565617 -2.76679,-1.470492 -6.27299,-0.901775 -8.43362,1.553352 -2.158,2.452168 -2.27361,6.007354 -0.47153,8.565609 -2.76678,-1.47049 -6.27298,-0.90178 -8.4336,1.55335 -2.15801,2.45215 -2.27362,6.00735 -0.47154,8.56561 -2.76678,-1.47049 -6.27298,-0.90179 -8.4336,1.55334 -1.1664,1.3254 -1.73695,2.96047 -1.72895,4.59876 -7.3e-4,1.62914 0.56913,3.29238 1.72895,4.61029 2.16062,2.45513 5.66682,3.02383 8.4336,1.55334 -1.80208,2.55826 -1.68647,6.11346 0.47154,8.56561 2.16062,2.45512 5.66682,3.02385 8.4336,1.55335 -1.80208,2.55825 -1.68647,6.11344 0.47153,8.56561 2.16063,2.45512 5.66683,3.02384 8.43362,1.55335 -1.80209,2.55825 -1.68647,6.11345 0.47154,8.56562 2.16061,2.45512 5.66682,3.02383 8.4336,1.55334 -1.80209,2.55825 -1.68647,6.11345 0.47154,8.56561 2.16062,2.45512 5.66682,3.02385 8.4336,1.55334 -1.80208,2.55825 -1.68647,6.11345 0.47153,8.56561 2.16063,2.45513 5.66684,3.02384 8.43362,1.55335 -1.80209,2.55826 -1.68647,6.11346 0.47154,8.56562 1.78384,2.02698 4.48488,2.76812 6.92974,2.13741 -8.36258,15.4513 -19.34965,28.43962 -33.88139,38.12409 0.0892,-1.72261 -0.47604,-3.50293 -1.7208,-4.91651 -2.16077,-2.45384 -5.66723,-3.02227 -8.43423,-1.55254 1.80223,-2.55691 1.68661,-6.11027 -0.47157,-8.56115 -2.16078,-2.45384 -5.66725,-3.02228 -8.43423,-1.55253 1.80222,-2.55692 1.68659,-6.11027 -0.47157,-8.56116 -2.16078,-2.45384 -5.66725,-3.02228 -8.43425,-1.55254 1.80222,-2.55692 1.6866,-6.11028 -0.47157,-8.56117 -2.16077,-2.45384 -5.66725,-3.02226 -8.43423,-1.55252 1.80222,-2.55692 1.68659,-6.11028 -0.47158,-8.56117 -2.16077,-2.45383 -5.66724,-3.02227 -8.43424,-1.55253 1.80222,-2.55692 1.68661,-6.11027 -0.47155,-8.56116 -2.16079,-2.45384 -5.66727,-3.02227 -8.43426,-1.55253 1.80223,-2.55693 1.6866,-6.11029 -0.47157,-8.56118 -1.39305,-1.58198 -3.32526,-2.35543 -5.29828,-2.35416 -1.94993,9.1e-4 -3.8982,0.77466 -5.289045,2.35415 -2.15817,2.4509 -2.2738,6.00425 -0.47157,8.56118 -2.76699,-1.46973 -6.27347,-0.90131 -8.43426,1.55253 -2.15816,2.4509 -2.27378,6.00424 -0.47156,8.56117 -2.76699,-1.46974 -6.27346,-0.90131 -8.43423,1.55253 -2.15818,2.45088 -2.2738,6.00425 -0.47158,8.56116 -2.76699,-1.46973 -6.27346,-0.90131 -8.43423,1.55253 -2.15818,2.45089 -2.2738,6.00424 -0.47157,8.56116 -2.767,-1.46973 -6.27347,-0.9013 -8.43426,1.55254 -2.15816,2.4509 -2.27378,6.00424 -0.47155,8.56117 -2.767,-1.46975 -6.27347,-0.90132 -8.43424,1.55253 -2.15818,2.45088 -2.2738,6.00424 -0.47157,8.56115 -2.767,-1.46973 -6.27347,-0.9013 -8.43424,1.55253 -1.2475,1.41671 -1.81254,3.20177 -1.71919,4.94982 -17.02387,-11.95829 -26.82502,-24.86432 -33.87319,-38.1316 z"
     inkscape:connector-curvature="0"
     sodipodi:nodetypes="cccscccccccccccccccccccccccscccccccccccccccccccccccccccscscccccccccccccccscscccccccccscccsccccccccccccccscccccccccccccccccccccc" />
  <path
     id="path4212-6"
     style="fill:#ffffff;fill-opacity:1;fill-rule:evenodd;stroke:#000000;stroke-width:2;stroke-linecap:butt;stroke-miterlimit:4;stroke-dashoffset:0;stroke-opacity:1;stroke-dasharray:none"
     d="M 1.000033,149.10355 V 0.99999834 H 207.89951 V 149.10355 c 0,51.44535 -51.75421,94.56785 -103.46927,94.56785 -51.71506,0 -103.430207,-43.1225 -103.430207,-94.56785 z"
     inkscape:connector-curvature="0"
     sodipodi:nodetypes="sccscs" />
  <path
     id="path4207-8-0-8-2-2-4"
     style="opacity:1;fill:#cc2918;fill-opacity:1;stroke:#000000;stroke-width:1.00199997;stroke-miterlimit:11;stroke-dasharray:none;stroke-dashoffset:4.57999992;stroke-opacity:1"
     d="m 11.939154,189.57886 c 2.228581,0.19797 4.518237,-0.63583 6.111409,-2.44587 2.266891,-2.57547 2.388341,-6.30944 0.495328,-8.99634 2.906372,1.54444 6.589484,0.94713 8.859114,-1.63146 2.266881,-2.57546 2.388321,-6.30943 0.495319,-8.99632 2.906372,1.54445 6.589475,0.94712 8.859094,-1.63145 2.26689,-2.57547 2.38834,-6.30944 0.495328,-8.99633 2.906372,1.54443 6.589485,0.94713 8.859094,-1.63145 2.266891,-2.57547 2.38834,-6.30944 0.495328,-8.99633 2.906382,1.54443 6.589486,0.94711 8.859113,-1.63146 2.266882,-2.57548 2.388323,-6.30944 0.495319,-8.99633 2.906373,1.54444 6.589477,0.94712 8.859095,-1.63146 2.26689,-2.57545 2.388341,-6.30942 0.495327,-8.99633 2.906373,1.54444 6.589477,0.94714 8.859095,-1.63144 1.218344,-1.38418 1.816953,-3.13106 1.816187,-4.84212 0.0076,-1.72067 -0.590929,-3.43796 -1.816187,-4.83001 -2.269618,-2.57858 -5.952722,-3.17588 -8.859095,-1.63144 1.893014,-2.68691 1.771563,-6.42088 -0.495327,-8.99634 -2.269618,-2.57858 -5.952722,-3.175894 -8.859095,-1.63145 1.893004,-2.686895 1.771563,-6.420851 -0.495319,-8.996325 -2.269627,-2.578581 -5.952731,-3.175896 -8.859113,-1.631461 1.893012,-2.686891 1.771563,-6.420864 -0.495328,-8.996334 -2.269609,-2.578573 -5.952722,-3.175886 -8.859094,-1.631451 1.893012,-2.686885 1.771562,-6.420865 -0.495328,-8.996326 -2.269619,-2.578573 -5.952722,-3.175896 -8.859094,-1.63145 1.893002,-2.686895 1.771562,-6.420858 -0.495319,-8.996328 -2.26963,-2.578577 -5.952742,-3.175895 -8.859114,-1.631459 1.893013,-2.68689 1.771563,-6.420868 -0.495328,-8.996341 C 15.780945,47.348883 12.09784,46.751576 9.1914679,48.296013 11.084471,45.609122 10.963032,41.875144 8.6961409,39.299681 6.6850207,37.014797 3.5640587,36.285549 0.92856474,37.199696 L 1.000033,0.9999984 30.513542,1.0105689 c -0.502715,2.4146359 0.09865,5.0297138 1.852984,7.0223682 2.529425,2.8730259 6.634119,3.5385459 9.873178,1.817743 -1.893428,2.6868209 -1.771956,6.4207019 0.495447,8.9961089 2.270124,2.578513 5.954057,3.175814 8.861085,1.631413 -1.893435,2.686821 -1.771961,6.420713 0.495442,8.996112 2.270124,2.57851 5.954057,3.175819 8.861084,1.63141 -1.893435,2.68683 -1.771961,6.420703 0.495425,8.996112 2.270141,2.57852 5.954074,3.175819 8.861102,1.63142 -1.893435,2.686829 -1.771962,6.420712 0.49544,8.99612 2.270124,2.578513 5.954057,3.175812 8.861086,1.631413 -1.893435,2.68682 -1.771962,6.420712 0.495441,8.996111 2.270124,2.57851 5.954057,3.17582 8.861085,1.631411 -1.893435,2.68683 -1.771963,6.420705 0.495424,8.996111 2.27014,2.57852 5.954077,3.175821 8.861102,1.631421 -1.893438,2.686829 -1.77196,6.420707 0.49544,8.996126 1.461233,1.659739 3.508103,2.472649 5.556723,2.473749 2.07287,0.0013 4.10286,-0.811394 5.56641,-2.473759 2.26741,-2.575409 2.38888,-6.309287 0.49544,-8.996121 2.90702,1.544401 6.59097,0.9471 8.86111,-1.63142 2.26739,-2.575407 2.38886,-6.309281 0.49542,-8.996112 2.90703,1.544408 6.59096,0.9471 8.86108,-1.631411 2.26741,-2.5754 2.38888,-6.30929 0.49545,-8.996111 2.90702,1.544398 6.59096,0.9471 8.86109,-1.631413 2.2674,-2.575408 2.38888,-6.309291 0.49543,-8.996119 2.90704,1.544398 6.59096,0.947099 8.8611,-1.631421 2.2674,-2.575408 2.38886,-6.309281 0.49544,-8.99611 2.90702,1.544407 6.59095,0.947098 8.86109,-1.631411 2.26738,-2.5754 2.38887,-6.30929 0.49543,-8.996112 2.90703,1.5444 6.59096,0.947099 8.86108,-1.631413 2.26741,-2.575408 2.38888,-6.309289 0.49545,-8.9961089 3.23905,1.7208019 7.34373,1.0552829 9.87316,-1.817743 1.70073,-1.9317611 2.31788,-4.4484857 1.89598,-6.8004646 l 29.49832,-0.23247016 0.0585,36.16070066 c -2.68707,-0.893794 -5.76392,-0.156079 -7.75403,2.104923 -2.26688,2.575463 -2.38833,6.309441 -0.49533,8.996332 -2.90637,-1.544437 -6.58946,-0.94713 -8.85909,1.631442 -2.26689,2.575473 -2.38834,6.309451 -0.49533,8.996341 -2.90637,-1.544436 -6.58948,-0.947118 -8.85912,1.631459 -2.26687,2.57547 -2.38831,6.309433 -0.49531,8.996328 -2.90637,-1.544446 -6.58947,-0.947123 -8.8591,1.63145 -2.26688,2.575461 -2.38834,6.309441 -0.49533,8.996326 -2.90637,-1.544435 -6.58947,-0.947122 -8.85909,1.631451 -2.26689,2.57547 -2.38834,6.309443 -0.49533,8.996334 -2.90638,-1.544435 -6.58948,-0.947121 -8.85911,1.631461 -2.26688,2.575474 -2.38832,6.30943 -0.49532,8.996324 -2.90637,-1.544433 -6.58947,-0.94713 -8.8591,1.63146 -2.26688,2.57545 -2.38833,6.30942 -0.49533,8.99633 -2.90637,-1.54444 -6.58946,-0.94714 -8.85909,1.63144 -1.22525,1.39205 -1.82418,3.10934 -1.81618,4.83001 -7.7e-4,1.71106 0.59784,3.45794 1.81618,4.84212 2.26963,2.57858 5.95272,3.17588 8.85909,1.63144 -1.893,2.6869 -1.77155,6.42088 0.49533,8.99633 2.26963,2.57858 5.95273,3.1759 8.8591,1.63146 -1.893,2.68689 -1.77156,6.42085 0.49532,8.99633 2.26963,2.57857 5.95273,3.17589 8.85911,1.63146 -1.89301,2.68689 -1.77156,6.42086 0.49533,8.99633 2.26962,2.57858 5.95272,3.17588 8.85909,1.63145 -1.89301,2.68689 -1.77155,6.42086 0.49533,8.99633 2.26963,2.57857 5.95273,3.1759 8.8591,1.63145 -1.893,2.68689 -1.77156,6.42086 0.49531,8.99632 2.26964,2.57859 5.95275,3.1759 8.85912,1.63146 -1.89301,2.6869 -1.77156,6.42087 0.49533,8.99634 1.5904,1.80689 3.87485,2.64093 6.09975,2.4469 -8.37865,14.22879 -18.30046,24.42686 -29.07256,32.46818 -0.1498,-1.33321 -0.73572,-2.7291 -1.75756,-3.88968 -2.2697,-2.57788 -5.95293,-3.17505 -8.85943,-1.63102 1.89309,-2.68617 1.77164,-6.41916 -0.49534,-8.99393 -2.26972,-2.57789 -5.95296,-3.17506 -8.85943,-1.63101 1.89307,-2.68618 1.77161,-6.41916 -0.49535,-8.99394 -2.26971,-2.57789 -5.95295,-3.17506 -8.85945,-1.63102 1.89308,-2.68618 1.77163,-6.41917 -0.49534,-8.99395 -2.2697,-2.57789 -5.95296,-3.17504 -8.85943,-1.63101 1.89308,-2.68617 1.77162,-6.41916 -0.49535,-8.99395 -2.26971,-2.57787 -5.95295,-3.17505 -8.85944,-1.63101 1.89307,-2.68617 1.77163,-6.41915 -0.49533,-8.99394 -2.26972,-2.57788 -5.95297,-3.17505 -8.85946,-1.63101 1.89309,-2.68619 1.77163,-6.41917 -0.49534,-8.99396 -1.46328,-1.66195 -3.4929,-2.4745 -5.56539,-2.47316 -2.04823,9.5e-4 -4.09472,0.81382 -5.555684,2.47315 -2.266979,2.5748 -2.388434,6.30777 -0.495348,8.99396 -2.906484,-1.54403 -6.589738,-0.94687 -8.859457,1.63101 -2.266964,2.5748 -2.388414,6.30777 -0.495331,8.99395 -2.906487,-1.54404 -6.589734,-0.94687 -8.859435,1.63101 -2.266981,2.57478 -2.388431,6.30778 -0.495349,8.99394 -2.906486,-1.54402 -6.589734,-0.94687 -8.859434,1.63102 -2.266981,2.57478 -2.388433,6.30776 -0.495349,8.99393 -2.906487,-1.54402 -6.589734,-0.94686 -8.859453,1.63103 -2.266964,2.57479 -2.388414,6.30776 -0.495331,8.99395 -2.906487,-1.54405 -6.589734,-0.94689 -8.859435,1.63101 -2.266981,2.57477 -2.388431,6.30776 -0.495349,8.99393 -2.906486,-1.54403 -6.589734,-0.94686 -8.859434,1.63101 -0.954892,1.08455 -1.529116,2.37459 -1.73246,3.70533 -10.710848,-7.51046 -20.461506,-18.06733 -29.069107,-32.25079 z"
     inkscape:connector-curvature="0"
     sodipodi:nodetypes="cscccscccccccccscccccccccccscccccccccccccccccccscccccccscscccccccccccccccccscccccccccccccccccccsccccccccccccccccccccccccccccccc" />
  <path
     id="path4212-6-1"
     style="fill:none;fill-opacity:1;fill-rule:evenodd;stroke:#000000;stroke-width:2;stroke-linecap:butt;stroke-miterlimit:4;stroke-dasharray:none;stroke-dashoffset:0;stroke-opacity:1"
     d="M 1.000033,149.10355 V 0.9999984 H 207.89951 V 149.10355 c 0,51.44535 -51.75421,94.56785 -103.46927,94.56785 -51.71506,0 -103.430207,-43.1225 -103.430207,-94.56785 z"
     inkscape:connector-curvature="0"
     sodipodi:nodetypes="sccscs" />
</svg>
