<?xml version="1.0" encoding="UTF-8" standalone="no"?>
<!-- Created with Inkscape (http://www.inkscape.org/) -->

<svg
   xmlns:dc="http://purl.org/dc/elements/1.1/"
   xmlns:cc="http://creativecommons.org/ns#"
   xmlns:rdf="http://www.w3.org/1999/02/22-rdf-syntax-ns#"
   xmlns:svg="http://www.w3.org/2000/svg"
   xmlns="http://www.w3.org/2000/svg"
   xmlns:sodipodi="http://sodipodi.sourceforge.net/DTD/sodipodi-0.dtd"
   xmlns:inkscape="http://www.inkscape.org/namespaces/inkscape"
   version="1.0"
   width="208.86046"
   height="244.65999"
   id="svg2780"
   inkscape:version="0.92.5 (2060ec1f9f, 2020-04-08)"
   sodipodi:docname="Vendlincourt-blazon.svg">
  <metadata
     id="metadata27">
    <rdf:RDF>
      <cc:Work
         rdf:about="">
        <dc:format>image/svg+xml</dc:format>
        <dc:type
           rdf:resource="http://purl.org/dc/dcmitype/StillImage" />
        <dc:title></dc:title>
      </cc:Work>
    </rdf:RDF>
  </metadata>
  <sodipodi:namedview
     pagecolor="#ffffff"
     bordercolor="#666666"
     borderopacity="1"
     objecttolerance="10"
     gridtolerance="10"
     guidetolerance="10"
     inkscape:pageopacity="0"
     inkscape:pageshadow="2"
     inkscape:window-width="1809"
     inkscape:window-height="1257"
     id="namedview25"
     showgrid="false"
     inkscape:zoom="1"
     inkscape:cx="293.53744"
     inkscape:cy="-20.597015"
     inkscape:window-x="1269"
     inkscape:window-y="66"
     inkscape:window-maximized="0"
     inkscape:current-layer="svg2780"
     inkscape:measure-start="104.255,149.787"
     inkscape:measure-end="104.255,126.383"
     showguides="true"
     inkscape:object-paths="true"
     inkscape:snap-intersection-paths="true" />
  <defs
     id="defs2782" />
  <path
     id="path4212-6"
     style="fill:#1b63c6;fill-opacity:1;fill-rule:evenodd;stroke:#000000;stroke-width:1.99999988;stroke-linecap:butt;stroke-miterlimit:4;stroke-dashoffset:0;stroke-opacity:1"
     d="M 1.000033,149.10355 V 0.99999834 H 207.86826 V 149.10355 c 0,51.44535 -51.72296,94.56785 -103.43802,94.56785 -51.71506,0 -103.430207,-43.1225 -103.430207,-94.56785 z"
     inkscape:connector-curvature="0"
     sodipodi:nodetypes="sccscs" />
  <path
     style="opacity:1;fill:#feeb00;fill-opacity:1;stroke:#000000;stroke-width:1;stroke-miterlimit:4;stroke-dasharray:none;stroke-dashoffset:4.57999992;stroke-opacity:1"
     d="M 1.000033,0.99999834 V 26.999993 l 80.540661,91.488797 -66.700755,75.76186 c 5.741364,9.53553 14.123301,17.72658 23.334782,25.49526 l 66.255509,-75.25613 66.25397,75.26007 c 9.55645,-7.68418 17.40262,-16.15039 23.33692,-25.49083 L 127.31977,118.49076 207.86826,27 V 0.99999834 H 184.97785 L 104.43023,92.489776 23.888709,0.99999834 Z"
     id="path7989"
     inkscape:connector-curvature="0"
     sodipodi:nodetypes="ccccccccccccccc" />
  <path
     style="opacity:1;fill:#feeb00;fill-opacity:1;stroke:#000000;stroke-width:1.00157475;stroke-miterlimit:20;stroke-dasharray:none;stroke-dashoffset:4.57999992;stroke-opacity:1"
     d="m 179.69545,0.99999834 h 28.17281 V 33.00001 l -75.26628,85.49098 63.58879,72.23261 c -7.2798,12.59728 -17.16129,22.77272 -28.66683,31.4364 L 104.43023,150.48979 41.334871,222.15647 C 29.716405,213.06962 19.476204,203.05194 12.670685,190.71459 L 76.258493,118.48856 1.000033,32.999989 V 0.99999834 H 29.170709 L 104.43023,86.489777 Z"
     id="path2064"
     inkscape:connector-curvature="0"
     sodipodi:nodetypes="ccccccccccccccc" />
  <g
     id="g2036"
     transform="matrix(0.94095882,0,0,0.94121952,6.1656851,0.39843954)"
     style="stroke-width:1.06259859">
    <path
       sodipodi:nodetypes="ccccccccc"
       inkscape:connector-curvature="0"
       d="m 99.951975,64.161458 c 1.099365,-6.420529 1.456755,-8.934822 1.580845,-14.915869 0.19034,-9.17513 -1.01322,-10.580883 -4.085816,-20.708686 -1.890966,-6.232958 1.256096,-17.957846 6.983226,-21.4511641 5.72713,3.4933181 8.87421,15.2182061 6.98324,21.4511641 -3.07259,10.127803 -4.27615,11.533556 -4.0858,20.708686 0.12408,5.981047 0.48147,8.49534 1.58084,14.915869 0.6396,3.73549 -1.7404,7.86098 -4.47827,10.284541 -2.73786,-2.423561 -5.117868,-6.549051 -4.478265,-10.284541 z"
       style="opacity:1;fill:#feeb00;fill-opacity:1;stroke:#000000;stroke-width:1.06259847;stroke-miterlimit:4;stroke-dasharray:none;stroke-dashoffset:4.57999992;stroke-opacity:1"
       id="path11583-79-0" />
    <path
       sodipodi:nodetypes="csssccsssc"
       inkscape:connector-curvature="0"
       id="path11591-9"
       d="m 120.10078,39.938795 c 5.16579,0.911695 10.91393,-1.263263 10.91393,-8.726737 0,-7.255468 -8.35353,-10.753077 -14.93141,-6.445389 -0.91016,0.596048 -3.30268,2.744 -4.81244,6.086288 -2.05679,4.553299 -4.89574,9.212014 -4.90918,17.886508 0.67681,15.229399 6.93664,16.950016 12.53253,16.547765 -6.60375,-3.445122 -8.64793,-10.118509 -8.48733,-16.023448 0.13157,-4.836789 0.94911,-9.349351 3.97154,-13.218538 3.42666,-4.386641 6.72249,-3.900231 8.01418,-2.865242 2.47891,1.986269 0.31838,5.349622 -2.29182,6.758793 z"
       style="opacity:1;fill:#feeb00;fill-opacity:1;stroke:#000000;stroke-width:1.06259847;stroke-miterlimit:4;stroke-dasharray:none;stroke-dashoffset:4.57999992;stroke-opacity:1" />
    <path
       sodipodi:nodetypes="csssccsssc"
       inkscape:connector-curvature="0"
       id="path11591-9-4"
       d="m 88.759706,39.938795 c -5.165793,0.911695 -10.913929,-1.263263 -10.913929,-8.726737 0,-7.255468 8.353516,-10.753077 14.931397,-6.445389 0.910174,0.596048 3.30269,2.744 4.812446,6.086288 2.056794,4.553299 4.89575,9.212014 4.90918,17.886508 -0.67681,15.229399 -6.93664,16.950016 -12.53253,16.547765 6.603742,-3.445122 8.647936,-10.118509 8.48733,-16.023448 -0.131567,-4.836789 -0.949108,-9.349351 -3.971543,-13.218538 -3.42665,-4.386641 -6.72248,-3.900231 -8.014173,-2.865242 -2.478919,1.986269 -0.318384,5.349622 2.291822,6.758793 z"
       style="opacity:1;fill:#feeb00;fill-opacity:1;stroke:#000000;stroke-width:1.06259847;stroke-miterlimit:4;stroke-dasharray:none;stroke-dashoffset:4.57999992;stroke-opacity:1" />
    <path
       sodipodi:nodetypes="scscscscs"
       inkscape:connector-curvature="0"
       d="m 97.494649,46.760182 c -1.633148,0 -2.750531,1.130314 -2.722039,2.6081 0,1.433956 1.148682,2.608103 2.722039,2.608103 l 6.935591,-2e-6 6.9356,-10e-7 c 1.57336,0 2.72202,-1.174147 2.72202,-2.608102 0.0285,-1.477787 -1.08888,-2.608102 -2.72202,-2.608102 l -6.9356,2e-6 z"
       style="opacity:1;fill:#feeb00;fill-opacity:1;stroke:#000000;stroke-width:1.06259859;stroke-miterlimit:4;stroke-dasharray:none;stroke-dashoffset:4.57999992;stroke-opacity:1"
       id="path11589-3" />
  </g>
  <path
     style="opacity:1;fill:#feeb00;fill-opacity:1;stroke:#000000;stroke-width:1.00157475;stroke-miterlimit:20;stroke-dasharray:none;stroke-dashoffset:4.57999992;stroke-opacity:1"
     d="M 261.00003,36.999989 V 0.99999834 h 31.69201 L 364.43023,82.489776 436.17385,0.99999834 h 31.69441 V 37.00001 l -71.74481,81.49113 61.44231,69.79435 -32.20007,35.42289 -60.93545,-69.2186 -60.93719,69.21532 -32.19706,-35.42907 61.44104,-69.78762 z"
     id="path2062"
     inkscape:connector-curvature="0" />
  <path
     id="path4212-6-0"
     style="fill:none;fill-opacity:1;fill-rule:evenodd;stroke:#000000;stroke-width:1.99999988;stroke-linecap:butt;stroke-miterlimit:4;stroke-dashoffset:0;stroke-opacity:1"
     d="M 1.000033,149.10355 V 0.99999834 H 207.86826 V 149.10355 c 0,51.44535 -51.72296,94.56785 -103.43802,94.56785 -51.71506,0 -103.430207,-43.1225 -103.430207,-94.56785 z"
     inkscape:connector-curvature="0"
     sodipodi:nodetypes="sccscs" />
</svg>
