<?xml version="1.0" encoding="UTF-8"?>
<svg version="1.0" viewBox="0 0 603 763" xmlns="http://www.w3.org/2000/svg" xmlns:cc="http://web.resource.org/cc/" xmlns:dc="http://purl.org/dc/elements/1.1/" xmlns:rdf="http://www.w3.org/1999/02/22-rdf-syntax-ns#" xmlns:xlink="http://www.w3.org/1999/xlink">
<metadata>
<rdf:RDF>
<cc:Work rdf:about="">
<dc:format>image/svg+xml</dc:format>
<dc:type rdf:resource="http://purl.org/dc/dcmitype/StillImage"/>
<dc:date>07-AUG-2006</dc:date>
<dc:creator>
<cc:Agent>
<dc:title>Jérôme BLUM (wagner51)</dc:title>
</cc:Agent>
</dc:creator>
<cc:license rdf:resource="http://creativecommons.org/licenses/GPL/2.0/"/>
<dc:coverage/>
<dc:description>Gabarit pour le Projet:Blasons de WIkipédia</dc:description>
<dc:subject>
<rdf:Bag>
<rdf:li>blason suisse modèle gabarit projet blasons</rdf:li>
</rdf:Bag>
</dc:subject>
<dc:language>fr</dc:language>
<dc:title>Gabrit d'un blason suisse</dc:title>
</cc:Work>
<cc:License rdf:about="http://creativecommons.org/licenses/GPL/2.0/">
<cc:permits rdf:resource="http://web.resource.org/cc/Reproduction"/>
<cc:permits rdf:resource="http://web.resource.org/cc/Distribution"/>
<cc:requires rdf:resource="http://web.resource.org/cc/Notice"/>
<cc:permits rdf:resource="http://web.resource.org/cc/DerivativeWorks"/>
<cc:requires rdf:resource="http://web.resource.org/cc/ShareAlike"/>
<cc:requires rdf:resource="http://web.resource.org/cc/SourceCode"/>
</cc:License>
</rdf:RDF>
</metadata>
<defs>
<radialGradient id="a" cx="858.04" cy="579.93" r="300" gradientTransform="matrix(1.215 1.5316e-24 1.4647e-23 1.2667 -839.19 -490.49)" gradientUnits="userSpaceOnUse">
<stop stop-color="#fff" stop-opacity=".31373" offset="0"/>
<stop stop-color="#fff" stop-opacity=".25098" offset=".19"/>
<stop stop-color="#6b6b6b" stop-opacity=".12549" offset=".6"/>
<stop stop-opacity=".12549" offset="1"/>
</radialGradient>
</defs>
<desc>Coat of Arms of Canton of Freiburg (Fribourg)</desc>
<path d="m1.5 1.5v458.87c0 166.31 134.31 301.13 300 301.13 165.69 0 300-134.82 300-301.13v-458.87h-600z" fill="#2b5df2"/>
<g transform="matrix(3.5763 0 0 3.956 -2478 -1045)" fill-rule="evenodd" stroke="#000" stroke-width="1px">
<path d="m711.29 331.96c0.7531 10.624 1.7144 21.759-6.2939 31.035h25c-14.705-9.3114-8.8543-18.944-10.518-31.294l-8.1885 0.25879z" fill="#e20909"/>
<path d="m705.52 299.64 7.0783-3.5585c-3.299 8.2805-5.7608 15.021-9.7492 18.476l7.7539-3.8818c-3.6489 7.6151-7.5565 13.42-11.895 16.211l7.6709-1.2109c-3.8941 9.9064-6.9164 12.838-10.166 17.588 6.9179-2.6784 14.925-4.2674 18.613-10.176 7.443 6.7345 14.886 11.286 22.329 12.505-3.9473-5.7194-7.8486-11.668-11.118-20.776l8.706 2.0703c-4.0276-1.9976-7.6976-7.5713-11.035-16.47l6.294 2.5879c-3.3333-2.7748-7.2217-8.4112-10.555-16.665l9.5199 3.7355c-9.7739-8.1894-9.6159-17.589-12.93-27.07-2.3661 8.8786-4.1721 17.757-10.518 26.636z" fill="#5ab532"/>
</g>
<g transform="matrix(3.5763 0 0 3.956 -2048 -1045)" fill-rule="evenodd" stroke="#000" stroke-width="1px">
<path d="m711.29 331.96c0.7531 10.624 1.7144 21.759-6.2939 31.035h25c-14.705-9.3114-8.8543-18.944-10.518-31.294l-8.1885 0.25879z" fill="#e20909"/>
<path d="m705.52 299.64 7.2634-2.8184c-3.299 8.2805-5.9458 14.281-9.9342 17.735l7.7539-3.8818c-3.6489 7.6151-7.5565 13.42-11.895 16.211l7.6709-1.2109c-3.8941 9.9064-6.9164 12.838-10.166 17.588 6.9179-2.6784 14.925-4.2674 18.613-10.176 7.443 6.7345 14.886 11.286 22.329 12.505-3.9473-5.7194-7.8486-11.668-11.118-20.776l8.706 2.0703c-4.0276-1.9976-7.6976-7.5713-11.035-16.47l6.294 2.5879c-3.3333-2.7748-7.2217-8.4112-10.555-16.665l9.5199 3.7355c-9.7739-8.1894-9.6159-17.589-12.93-27.07-2.3661 8.8786-4.1721 17.757-10.518 26.636z" fill="#5ab532"/>
</g>
<path d="m1.5 384.31v76.062c0 166.31 134.31 301.12 300 301.12 165.69 0 300-134.81 300-301.12v-76.062h-600z" fill="#fff" stroke="#000" stroke-linecap="round" stroke-linejoin="round" stroke-width="2.6553"/>
<path transform="matrix(.2109 3.4136 -10.547 .051625 4296 -1919.5)" d="m761.1 405.61-19.885 10.633-19.15-11.904 0.73423-22.537 19.885-10.633 19.15 11.904-0.73423 22.537z" fill="#e20909" stroke="#000" stroke-linecap="round" stroke-linejoin="round" stroke-opacity=".98324" stroke-width=".71516"/>
<path transform="matrix(.15105 1.8053 -7.554 .027302 3162 -793.46)" d="m761.1 405.61-19.885 10.633-19.15-11.904 0.73423-22.537 19.885-10.633 19.15 11.904-0.73423 22.537z" fill="#e20909" stroke="#000" stroke-linecap="round" stroke-linejoin="round" stroke-width="1.1616"/>
<g transform="matrix(.9996 0 0 .9996 9.694 .26644)" stroke="#000">
<path d="m121.5 556.87 0.39266 76.047 82.303 34.307 4e-5 -74.477-82.695-35.878z" fill="#e20909" fill-rule="evenodd" stroke-width="4.2918px"/>
<rect x="204.58" y="592.75" width="170.43" height="75.107" fill="#e20909" stroke-linecap="round" stroke-linejoin="round" stroke-opacity=".98324" stroke-width="4.2918"/>
<path d="m374.71 591.97 0.3927 75.682 85.416-32.371 5e-5 -77.646-85.809 34.335z" fill="#e20909" fill-rule="evenodd" stroke-opacity=".98324" stroke-width="4.2918px"/>
<path transform="matrix(.10388 .67698 -5.1949 .010238 2260.8 50.751)" d="m761.1 405.61-19.885 10.633-19.15-11.904 0.73423-22.537 19.885-10.633 19.15 11.904-0.73423 22.537z" stroke-linecap="round" stroke-linejoin="round" stroke-width="2.6296"/>
</g>
<g transform="matrix(.9996 0 0 .99357 9.694 2.6266)" fill="#e20909" stroke-linecap="round" stroke-linejoin="round">
<rect x="217.46" y="506.92" width="153.44" height="17.157" stroke="#000" stroke-width="4.2918"/>
<g transform="matrix(4.2918 0 0 4.2918 -2992.8 -1166.9)">
<path d="m766 363.5c-3.0386 0-5.5 2.4614-5.5 5.5 0 2.0995 1.1763 3.9154 2.9062 4.8438l-5.4062 4.1562h16l-5.5625-4.0625c1.8203-0.89835 3.0625-2.7715 3.0625-4.9375 0-3.0386-2.4614-5.5-5.5-5.5z" stroke="#000"/>
<rect x="758" y="378" width="15.963" height="26.886" stroke="#000909"/>
</g>
</g>
<g transform="matrix(4.2901 0 0 4.2901 -2982 -1166.2)" stroke="#000">
<path d="m747.91 390.82c-7.695 0.32113-6.9427 11.043-6.7227 11.629l5.3186 1.066c-1.052-3.4631-0.71739-5.9971 1.5125-10.353l-0.10835-2.3425z" fill="#fff" fill-rule="evenodd" stroke-width="1px"/>
<path d="m747.91 391.54c-5.9394 1.1618-4.8954 6.7021-5.8235 10.846" fill="none" stroke-width=".5"/>
<path d="m747.91 392c-5.2919 3.2765-4.0355 7.016-4.634 10.663" fill="none" stroke-width=".5"/>
<path d="m747.92 392.71c-4.1722 3.1254-3.0331 6.5724-3.4178 10.323" fill="none" stroke-width=".5"/>
</g>
<g transform="matrix(-4.2901 0 0 4.2901 3592.8 -1167)" stroke="#000">
<path d="m748.56 390.69c-7.695 0.32113-7.5897 10.849-7.3697 11.435l5.4714 1.3013c-1.052-3.4631-0.28798-5.9736 1.9419-10.329l-0.04366-2.4072z" fill="#fff" fill-rule="evenodd" stroke-width="1px"/>
<path d="m748.43 391.61c-5.9394 1.1618-5.413 6.7668-6.0176 10.846" fill="none" stroke-width=".5"/>
<path d="m748.24 392c-5.2919 3.2765-4.2943 7.5336-4.4399 10.727" fill="none" stroke-width=".5"/>
<path d="m748.24 392.77c-3.3916 3.1254-3.6382 7.737-3.2237 10.388" fill="none" stroke-width=".5"/>
</g>
<path transform="matrix(.79815 0 0 .79815 320.62 129.1)" d="m-184.26 483.51-63.415-7.0902-25.921 58.308-25.567-58.464-63.456 6.7059 37.848-51.374-37.536-51.602 63.415 7.0902 25.921-58.308 25.567 58.464 63.456-6.7059-37.848 51.374 37.536 51.602z" fill="#e20909" stroke="#000" stroke-linecap="round" stroke-linejoin="round" stroke-width="3"/>
<path transform="matrix(.79815 0 0 .79815 715.62 129.1)" d="m-184.26 483.51-63.415-7.0902-25.921 58.308-25.567-58.464-63.456 6.7059 37.848-51.374-37.536-51.602 63.415 7.0902 25.921-58.308 25.567 58.464 63.456-6.7059-37.848 51.374 37.536 51.602z" fill="#e20909" stroke="#000" stroke-linecap="round" stroke-linejoin="round" stroke-width="3"/>
<g stroke="#000">
<rect x="166.6" y="186.6" width="266.8" height="196.8" fill="#fff" stroke-linecap="round" stroke-linejoin="round" stroke-width="3.1967"/>
<rect x="276.31" y="295.92" width="47.388" height="87.388" fill="#2b5df2" stroke-linecap="round" stroke-linejoin="round" stroke-width="2.6124"/>
<path d="m167.36 280.62h264.35" fill="none" stroke-width="3.1817"/>
<rect x="202.5" y="296.25" width="47.495" height="47.495" fill="#2b5df2" stroke-linecap="round" stroke-linejoin="round" stroke-width="2.5051"/>
<rect x="202.5" y="199.25" width="47.495" height="47.495" fill="#2b5df2" stroke-linecap="round" stroke-linejoin="round" stroke-width="2.5051"/>
<rect x="350" y="199.25" width="47.495" height="47.495" fill="#2b5df2" stroke-linecap="round" stroke-linejoin="round" stroke-width="2.5051"/>
<rect x="276.25" y="199.25" width="47.495" height="47.495" fill="#2b5df2" stroke-linecap="round" stroke-linejoin="round" stroke-width="2.5051"/>
<rect x="350" y="296.25" width="47.495" height="47.495" fill="#2b5df2" stroke-linecap="round" stroke-linejoin="round" stroke-width="2.5051"/>
<rect x="265.95" y="53.954" width="68.092" height="38.092" fill="#fff" stroke-linecap="round" stroke-linejoin="round" stroke-width="1.9084"/>
<rect x="275.88" y="64.113" width="48.243" height="23.008" fill="#2b5df2" stroke-linecap="round" stroke-linejoin="round" stroke-width="1.7572"/>
<path d="m141.82 187.31 59.004-99.375h196.68l63.145 99.375h-318.83z" fill="#e20909" fill-rule="evenodd" stroke-width="3"/>
<path d="m249 63.234h102l-50.162-53.828-51.838 53.828z" fill="#e20909" fill-rule="evenodd" stroke-width="3"/>
</g>
<g>
<path d="m1.5 1.5v458.87c0 166.31 134.31 301.13 300 301.13 165.69 0 300-134.82 300-301.13v-458.87h-600z" fill="url(#a)"/>
<path d="m1.5 1.5v458.87c0 166.31 134.31 301.13 300 301.13 165.69 0 300-134.82 300-301.13v-458.87h-600z" fill="none" stroke="#000" stroke-width="3"/>
</g>
</svg>
