<?xml version="1.0" encoding="UTF-8"?>
<svg version="1.0" viewBox="0 0 214.64 251.41" xmlns="http://www.w3.org/2000/svg" xmlns:xlink="http://www.w3.org/1999/xlink">
<g transform="translate(-16.679 -803.33)">
<path d="m17.679 804.33 3.8661 162.41c2.7615 116.01 202.14 116.01 204.9 0l3.8661-162.41h-212.64z" fill="#fff" fill-rule="evenodd"/>
<g id="a" transform="matrix(.83855 0 0 .83855 -156.89 87.595)">
<path transform="matrix(.84872 0 0 .84872 170.38 850.37)" d="m122.86 14.453 16.144 44.609 47.414 1.5689-37.437 29.139 13.16 45.578-39.281-26.6-39.281 26.6 13.16-45.578-37.437-29.139 47.414-1.5689 16.144-44.609z" fill="#de3121" fill-rule="evenodd" stroke="#000" stroke-linejoin="round" stroke-width="1.404"/>
<path d="m265.75 933.5c-4.2254-3.0416-18.969 3.8222-19.121 10.988-0.15021 7.0698-16.048 10.53-21.105-12.268-5.0769-22.89 13.665-25.971 21.781-18.238 8.1644 7.7788 11.024 3.716 11.445 2.6921 0.38288-0.92966-1.2182-9.7003-10.434-9.2961-9.211 0.40403-20.984-12.891-4.0335-26.272 16.786-13.251 26.163-3.814 26.789 3.1208 0.62728 6.944-2.3037 20.36 3.0472 20.133 5.2553-0.22279 5.7105-9.5152 5.5203-20.543-0.18855-10.932 12.816-10.683 22.335-3.9112 9.5822 6.8176 14.237 15.187 8.5728 21.346-5.6209 6.1114-23.926 8.2006-21.433 13.913 2.4781 5.6776 16.389-1.6549 22.981-3.5382 6.6806-1.9086 14.679 6.32 9.5994 23.588-5.0532 17.179-16.617 16.012-20.392 12.806-3.7285-3.1666-11.978-18.564-16.825-14.472-4.95 4.1781 9.0391 17.44 9.9656 20.268 0.95486 2.9151 0.02587 16.142-21.799 14.453-21.722-1.6815-19.308-14.315-17.445-17.232 1.8357-2.8746 15.081-14.275 10.551-17.536z" color="#000000" fill="#de3121" fill-rule="evenodd" stroke="#000" stroke-width="1.1925px"/>
<path d="m263.86 935.19c-4.1967-3.315-5.1262 9.8633-14.041 12.713-15.141 4.8404-14.016-13.668-13.724-15.335 0.27507-1.5741-13.769-17.672-1.1275-22.743 9.8431-3.9484 19.181 10.12 21.414 4.8966 2.2175-5.188-12.339-3.8766-16.76-9.967-9.0517-12.468 9.4765-17.708 11.207-17.55 1.8332 0.16799 11.21-13.686 19.601-7.1348 8.5432 6.6707-2.9722 22.087 3.814 22.338 6.8819 0.25373-3.7845-14.526 5.4244-21.597 9.2691-7.1172 17.405 7.7282 18.596 8.3572 1.1494 0.60684 18.686 2.996 12.119 14.158-6.609 11.233-22.115 5.5088-19.132 11.037 3.0227 5.603 16.113-11.436 24.036-2.6756 7.9703 8.8132-3.0792 19.177-3.3406 20.52-0.28315 1.4555 0.32666 18.735-11.147 16.736-11.38-1.9829-10.81-17.235-15.143-13.898-4.3797 3.3732 12.269 9.2753 9.2946 21.815-2.953 12.45-20.346 1.83-22.087 3.1293-1.6938 1.2643-16.395 5.8324-19.746-4.2536-3.3216-9.9995 14.998-17.186 10.742-20.547z" color="#000000" fill="#de3121" fill-rule="evenodd" stroke="#000" stroke-width="1.1916"/>
<path transform="matrix(.84864 0 0 .84864 169.99 851.76)" d="m123.04 107.2-4.6869-19.811-19.626 2.1461 17.393-10.579-8.1059-18.002 15.436 13.272 14.616-13.272-7.8526 18.782 17.139 9.7998-20.289-1.6643-4.0238 19.329z" fill="#de3121" fill-rule="evenodd" stroke="#000" stroke-linejoin="round" stroke-width="1.4041"/>
<path transform="matrix(.99468 0 0 .99464 150.47 838.28)" d="m138.72 82.516a13.925 13.925 0 1 1-27.85 0 13.925 13.925 0 1 1 27.85 0z" color="#000000" fill="#de3121" fill-rule="evenodd" stroke="#000" stroke-width="1.198"/>
</g>
<use transform="translate(101.14 4e-7)" width="248.03149" height="248.03149" xlink:href="#a"/>
<path d="m66.294 913.33-32.281 96.625c36.593 58.377 143.35 58.384 179.97 0.0312l-32.281-96.656-28.844 86.344-28.875-86.344-28.844 86.344-28.844-86.344z" fill="#de3121" fill-rule="evenodd" stroke="#000" stroke-linejoin="round" stroke-width=".99921"/>
<path d="m17.679 804.33 3.8661 162.41c2.7615 116.01 202.14 116.01 204.9 0l3.8661-162.41h-212.64z" fill="none" stroke="#000" stroke-width="2"/>
</g>
</svg>
