<?xml version="1.0" encoding="UTF-8"?>
<svg version="1.0" viewBox="0 0 603 763" xmlns="http://www.w3.org/2000/svg" xmlns:cc="http://web.resource.org/cc/" xmlns:dc="http://purl.org/dc/elements/1.1/" xmlns:rdf="http://www.w3.org/1999/02/22-rdf-syntax-ns#" xmlns:xlink="http://www.w3.org/1999/xlink">
<metadata>
<rdf:RDF>
<cc:Work rdf:about="">
<dc:format>image/svg+xml</dc:format>
<dc:type rdf:resource="http://purl.org/dc/dcmitype/StillImage"/>
<dc:date>07-AUG-2006</dc:date>
<dc:creator>
<cc:Agent>
<dc:title>Jérôme BLUM (wagner51)</dc:title>
</cc:Agent>
</dc:creator>
<cc:license rdf:resource="http://creativecommons.org/licenses/GPL/2.0/"/>
<dc:coverage/>
<dc:description>Gabarit pour le Projet:Blasons de WIkipédia</dc:description>
<dc:subject>
<rdf:Bag>
<rdf:li>blason suisse modèle gabarit projet blasons</rdf:li>
</rdf:Bag>
</dc:subject>
<dc:language>fr</dc:language>
<dc:title>Gabrit d'un blason suisse</dc:title>
</cc:Work>
<cc:License rdf:about="http://creativecommons.org/licenses/GPL/2.0/">
<cc:permits rdf:resource="http://web.resource.org/cc/Reproduction"/>
<cc:permits rdf:resource="http://web.resource.org/cc/Distribution"/>
<cc:requires rdf:resource="http://web.resource.org/cc/Notice"/>
<cc:permits rdf:resource="http://web.resource.org/cc/DerivativeWorks"/>
<cc:requires rdf:resource="http://web.resource.org/cc/ShareAlike"/>
<cc:requires rdf:resource="http://web.resource.org/cc/SourceCode"/>
</cc:License>
</rdf:RDF>
</metadata>
<defs>
<radialGradient id="a" cx="858.04" cy="579.93" r="300" gradientTransform="matrix(1.215 1.5316e-24 1.4647e-23 1.2667 -839.19 -490.49)" gradientUnits="userSpaceOnUse">
<stop stop-color="#fff" stop-opacity=".31373" offset="0"/>
<stop stop-color="#fff" stop-opacity=".25098" offset=".19"/>
<stop stop-color="#6b6b6b" stop-opacity=".12549" offset=".6"/>
<stop stop-opacity=".12549" offset="1"/>
</radialGradient>
</defs>
<desc>Coat of Arms of Canton of Freiburg (Fribourg)</desc>
<path d="m1.5 1.5v458.87c0 166.31 134.31 301.13 300 301.13 165.69 0 300-134.82 300-301.13v-458.87h-600z" fill="#e20909"/>
<g>
<path d="m124.92 37.362c-7.3253 0.013777-11.691 9.7484-10.796 13.397 0.89497 3.6488 2.5811 6.6022 2.8616 7.6741-9.0966-5.9035-18.184 0.4683-17.82 8.8448 0.31787 7.3 5.9602 13.267 13.267 13.267 1.9395 0 3.8101-2.4212 5.463-3.1706v40.111h15.348v-39.59c1.3043 0.434 2.7088 2.6504 4.1622 2.6504 7.3069 0 13.728-5.9748 13.267-13.267-0.76131-12.039-9.8048-11.416-16.519-8.5846 0.27608-1.064 2.6014-6.9144 2.6014-8.0644-8e-5 -7.3069-4.5295-13.267-11.836-13.267z" fill="#fff" stroke="#000" stroke-width="3"/>
<path d="m301.31 1.5v760c0.06261 4e-5 0.12488 0 0.1875 0 165.69 0 300-134.81 300-301.12v-458.88h-300.19z" fill="#fff" stroke="#000" stroke-linecap="round" stroke-linejoin="round" stroke-width="2.6141"/>
<path d="m299.71 37.913c-7.3253 0.013777-11.691 9.7484-10.796 13.397 0.89496 3.6488 2.581 6.6022 2.8615 7.6741-9.0966-5.9035-18.184 0.4683-17.82 8.8448 0.31787 7.3 5.9602 13.267 13.267 13.267 1.9395 0 3.8101-2.4212 5.463-3.1706v40.111h15.348v-39.59c1.3043 0.434 2.7088 2.6504 4.1622 2.6504 7.3069 0 13.728-5.9748 13.267-13.267-0.76132-12.039-9.8048-11.416-16.519-8.5846 0.27608-1.064 2.6014-6.9144 2.6014-8.0644-9e-5 -7.3069-4.5295-13.267-11.836-13.267z" fill="#fff" stroke="#000" stroke-width="3"/>
<path d="m470.37 37.362c-7.3253 0.013777-11.691 9.7484-10.796 13.397 0.89496 3.6488 2.581 6.6022 2.8615 7.6741-9.0966-5.9035-18.184 0.4683-17.82 8.8448 0.31788 7.3 5.9602 13.267 13.267 13.267 1.9395 0 3.8101-2.4212 5.463-3.1706v40.111h15.348v-39.59c1.3043 0.434 2.7088 2.6504 4.1622 2.6504 7.3069 0 13.728-5.9748 13.267-13.267-0.76132-12.039-9.8048-11.416-16.519-8.5846 0.27608-1.064 2.6014-6.9144 2.6014-8.0644-9e-5 -7.3069-4.5295-13.267-11.836-13.267z" fill="#fff" stroke="#000" stroke-width="3"/>
<path d="m121.41 110.59c-2.0574-1.1021-4.3979-1.821-6.8937-1.821-8.0872 0-14.339 6.6187-14.698 14.698-0.37051 8.3281 9.1736 15.325 14.698 14.698s2.737 1.4264 8.2804-5.6301l-11.483 32.904c-2.6824-3.4268-8.7602-6.7231-13.446-6.7231-8.0872 0-14.698 6.6107-14.698 14.698 0 8.0872 6.6107 14.698 14.698 14.698 2.3301 0 16.047-7.0917 9.0035-4.0608l-8.2231 27.864c-2.5004-1.9861-5.6661-3.2518-9.1049-3.2518-8.0872 0-14.698 6.6107-14.698 14.698 0 8.0872 6.6107 14.698 14.698 14.698 1.1127 0 2.2099-0.28495 3.2518-0.52029l-25.705 77.262-0.048946 302.06 465.78 0.61818-1.6909-302.67-23.803-81.424c0.83195 0.14817 1.7271 0.39021 2.6014 0.39021 8.0237 0 14.568-6.5441 14.568-14.568 0-8.0237-6.5441-14.568-14.568-14.568-3.8485 0-7.2841 1.5877-9.8853 4.0322l-7.2839-24.973c0.17557 0.00628 0.34318 0.13007 0.52028 0.13007 8.0237 0 14.568-6.5441 14.568-14.568 0-8.0237-6.5441-14.568-14.568-14.568-3.1082 0-5.9607 0.93771-8.3245 2.6014l-7.5441-25.624c2.2194 1.3735 4.744 2.2112 7.5441 2.2112 8.0237 0 14.568-6.5441 14.568-14.568 0-8.0237-6.5441-14.568-14.568-14.568-5.3281 0-9.9464 2.8655-12.487 7.1539-2.5438-4.2239-7.2-7.1538-12.487-7.1539-8.0237 0-14.568 6.5442-14.568 14.568 0 8.0237 6.5442 14.568 14.568 14.568 2.5912 0 4.9164-0.76119 7.0238-1.951l-7.0238 25.494c-2.3761-1.692-5.1874-2.7314-8.3245-2.7315-8.0237 0-14.568 6.5442-14.568 14.568 0 8.0237 6.5442 14.568 14.568 14.568 0.39151 0 0.78692-0.09965 1.1706-0.13007l-7.0238 25.884c-2.6623-2.975-6.4924-4.9426-10.796-4.9427-8.0237 0-14.568 6.5442-14.568 14.568 0 8.0237 6.5442 14.568 14.568 14.568 1.5044 0 2.9271-0.3555 4.2923-0.78043l-22.242 81.554-18.73-31.867c5.5553-2.0439 11.625-7.2657 11.625-13.527 0-8.0237-6.5441-16.568-14.568-16.568-3.621 0-6.8194 1.449-9.3651 3.642l-14.438-24.583c7.4806-0.59312 13.397-6.8056 13.397-14.438 0-8.0237-6.5441-14.568-14.568-14.568-5.0148 0-9.4835 2.6368-12.097 6.5035l-16.259-27.835c1.0773 0.25485 2.2271 0.52028 3.3818 0.52028 8.0237 0 14.568-6.5441 14.568-14.568 0-8.0237-6.5441-14.568-14.568-14.568-6.7171 0-12.253 4.6019-13.918 10.796l-16.6-31.737c7.6599-0.40748 11.788-4.677 11.787-12.438 0-8.0237-6.5441-14.568-14.568-14.568-5.3281 0-9.956 3.0051-12.487 7.2839-7.3688-7.7074-7.1587-7.2839-12.487-7.2839-8.0237-6e-5 -14.568 6.5442-14.568 14.568 0 8.0237 6.5442 14.568 14.568 14.568 0.04288 0 0.08729 3.8e-4 0.13007 0l-21.12 33.298c-0.9989-7.0521-6.9812-12.487-14.308-12.487-8.0237 0-14.568 6.5442-14.568 14.568 0 8.0237 6.5442 14.568 14.568 14.568 1.9599 0 3.7563-0.46642 5.463-1.1706l-17.429 30.306c-2.3592-4.8426-7.2612-8.3244-13.007-8.3245-8.0237 0-14.568 6.5442-14.568 14.568 0 8.0237 6.5442 14.568 14.568 14.568 0.3915 0 0.78691-0.09965 1.1706-0.13007l-15.088 26.274c-2.6671-3.1736-6.5892-5.3328-11.056-5.3329-8.0237 0-14.568 6.5442-14.568 14.568 0 7.1979 5.2254 13.153 12.097 14.308l-16.178 28.713-17.12-54.727-5.7231-20.031c1.2763 0.36341 2.6398 0.65036 4.0322 0.65036 8.0872 0 14.698-6.6107 14.698-14.698 0-8.0872-6.6107-14.698-14.698-14.698-4.2798 0-8.1164 1.8832-10.796 4.8126l-7.2839-25.494c0.46917 0.04537 0.94975 0.13007 1.4308 0.13007 8.0872 0 14.698-6.6107 14.698-14.698 0-8.0872-6.6107-14.698-14.698-14.698-3.3064 0-6.3922 1.1418-8.8448 2.9916l-7.2839-25.884c2.2595 1.4252 4.9372 2.3413 7.8042 2.3413 8.0872 0 14.698-6.6107 14.698-14.698 0-8.0872-6.6107-14.698-14.698-14.698-5.3343 0-9.9312 2.8804-12.487 7.1539l-5.593-5.3329z" fill="#fff" fill-rule="evenodd" stroke="#000" stroke-width="4.1622px"/>
<path d="m470.21 38.503c-7.3253 0.013777-11.691 9.7484-10.796 13.397 0.89496 3.6488 2.581 6.6022 2.8615 7.6741-9.0966-5.9035-18.184 0.4683-17.82 8.8448 0.31788 7.3 5.9602 13.267 13.267 13.267 1.9395 0 3.8101-2.4212 5.463-3.1706v40.111h15.348v-39.59c1.3043 0.434 2.7088 2.6504 4.1622 2.6504 7.3069 0 13.728-5.9748 13.267-13.267-0.76132-12.039-9.8048-11.416-16.519-8.5846 0.27608-1.064 2.6014-6.9144 2.6014-8.0644-9e-5 -7.3069-4.5295-13.267-11.836-13.267z" fill="#e20909" stroke="#000" stroke-width="3"/>
<path d="m300.97 37.64-1.0792 74.913 7.9895 6.6249v-39.59c1.3043 0.434 2.7088 2.6504 4.1622 2.6504 7.3069 0 13.728-5.9748 13.267-13.267-0.76132-12.039-9.8048-11.416-16.519-8.5846 0.27608-1.064 2.6014-6.9144 2.6014-8.0644-9e-5 -7.3069-3.1153-14.681-10.422-14.681z" fill="#e20909" stroke="#000" stroke-width="3"/>
<path d="m532.67 618.62-1.1758-210.46-0.51515-92.212-23.803-81.424c0.83195 0.14817 1.7271 0.39021 2.6014 0.39021 8.0237 0 14.568-6.5441 14.568-14.568 0-8.0237-6.5441-14.568-14.568-14.568-3.8485 0-7.2841 1.5877-9.8853 4.0322l-7.2839-24.973c0.17557 0.00628 0.34318 0.13007 0.52028 0.13007 8.0237 0 14.568-6.5441 14.568-14.568 0-8.0237-6.5441-14.568-14.568-14.568-3.1082 0-5.9607 0.93771-8.3245 2.6014l-7.5441-25.624c2.2194 1.3735 4.744 2.2112 7.5441 2.2112 8.0237 0 14.568-6.5441 14.568-14.568 0-8.0237-6.5441-14.568-14.568-14.568-5.3281 0-9.9464 2.8655-12.487 7.1539-2.5438-4.2239-7.2-7.1538-12.487-7.1539-8.0237 0-14.568 6.5442-14.568 14.568 0 8.0237 6.5442 14.568 14.568 14.568 2.5912 0 4.9164-0.76119 7.0238-1.951l-7.0238 25.494c-2.3761-1.692-5.1874-2.7314-8.3245-2.7315-8.0237 0-14.568 6.5442-14.568 14.568 0 8.0237 6.5442 14.568 14.568 14.568 0.39151 0 0.78692-0.09965 1.1706-0.13007l-7.0238 25.884c-2.6623-2.975-6.4924-4.9426-10.796-4.9427-8.0237 0-14.568 6.5442-14.568 14.568 0 8.0237 6.5442 14.568 14.568 14.568 1.5044 0 2.9271-0.3555 4.2923-0.78043l-22.242 81.554-18.73-31.867c5.5553-2.0439 11.625-7.2657 11.625-13.527 0-8.0237-6.5441-16.568-14.568-16.568-3.621 0-6.8194 1.449-9.3651 3.642l-14.438-24.583c7.4806-0.59312 13.397-6.8056 13.397-14.438 0-8.0237-6.5441-14.568-14.568-14.568-5.0148 0-9.4835 2.6368-12.097 6.5035l-16.259-27.835c1.0773 0.25485 2.2271 0.52028 3.3818 0.52028 8.0237 0 14.568-6.5441 14.568-14.568 0-8.0237-6.5441-14.568-14.568-14.568-6.7171 0-12.253 4.6019-13.918 10.796l-16.6-31.737c7.6599-0.40748 11.788-4.677 11.787-12.438 0-8.0237-6.5441-14.568-14.568-14.568-5.3281 0-9.956 3.0051-12.487 7.2839l2.5227 500.96 230.64 4.49z" fill="#e20909" fill-rule="evenodd" stroke="#000" stroke-width="3"/>
<path transform="matrix(3.57 0 0 3.6765 -2621.4 -933.07)" d="m849.19 344.33-61.935-0.22443 31.162-53.525 30.773 53.749z" fill-opacity="0" stroke="#000"/>
<g fill="#fff" stroke="#000">
<path transform="matrix(4.6715 -1.2229 .49184 11.616 -3327.3 -2886.9)" d="m777.22 345.18 5.8789 13.115-14.298-1.4664 8.4188-11.649z" stroke-width=".40502"/>
<path transform="matrix(-1.5726 .28464 1.0315 4.2817 1266 -1460.1)" d="m760.84 365.15 8.6137-17.477 10.829 16.198-19.443 1.279z" stroke-width="1.1317"/>
<path transform="matrix(1.5726 .28464 -1.0315 4.2817 -322.33 -1460.1)" d="m760.84 365.15 8.6137-17.477 10.829 16.198-19.443 1.279z" stroke-width="1.1317"/>
<path transform="matrix(2.4467 -.64051 .2576 6.0836 -1518.3 -1359)" d="m777.22 345.18 5.8789 13.115-14.298-1.4664 8.4188-11.649z" stroke-width=".77332"/>
</g>
<rect x="393.36" y="314.76" width="149.9" height="25.031" fill="#fff" stroke="#000" stroke-width="4.1045"/>
<path d="m298.82 226.7c-16.943-0.43568-18.013 15.431-10.587 25.98 0.18672 0.26523 0.10225 0.63689 0.11896 0.95778-0.31884-0.01681-0.70327 0.08808-0.95165-0.11972-11.531-9.6478-26.164-6.9118-25.814 10.655 0.30392 15.226 15.272 18.047 25.814 10.655 0.26501-0.18581 0.63281-0.1029 0.95165-0.11972-0.01671 0.32089 0.1067 0.7252-0.11896 0.95778-10.972 11.309-4.0339 26.319 10.587 25.98 15.17-0.35227 21.166-15.898 10.587-25.98-0.23453-0.22351-0.10225-0.63689-0.11896-0.95778 0.31884 0.01682 0.68169-0.05873 0.95165 0.11972 13.29 8.7844 25.8 5.0621 25.814-10.655 0.01728-20.452-16.351-16.379-25.814-10.655-0.27685 0.16746-0.63281 0.10291-0.95165 0.11972 0.01667-0.32089-0.08991-0.70983 0.11896-0.95778 12.668-15.04 1.2973-26.711-10.587-25.98z" fill-opacity="0" stroke="#000" stroke-width="3.8189"/>
<path transform="matrix(2.3018 0 0 2.9695 -1859.4 -820.45)" d="m955.25 365.25a17.625 13.75 0 1 1-35.25 0 17.625 13.75 0 1 1 35.25 0z" fill-opacity="0" stroke="#000"/>
<path transform="matrix(3.6755 0 0 3.8345 -3170.2 -1140.5)" d="m958.84 366.31a15.026 14.496 0 1 1-30.052 0 15.026 14.496 0 1 1 30.052 0z" fill-opacity="0" stroke="#000"/>
<g transform="matrix(4.1622 0 0 4.1622 -2764.7 -1217.8)" fill="#fff" stroke="#000">
<path d="m778.13 377.5c-0.64401-0.40437-4.6471 3.1877-4.879 7.3775v0.02267 22.841h9.4489v-22.864c0.06595-1.7594-2.1328-7.3864-4.5698-7.3775z"/>
<rect x="773.42" y="403.36" width="9.1663" height="4.2191" stroke-width=".83374"/>
</g>
<path d="m298.64 419.36c-32.977 25.638-50.452 49.776-53.016 72.471v0.13007 108.09h108.22v-108.22c4.9258-2.4629-28.319-56.223-55.202-72.471z" fill-opacity="0" stroke="#000" stroke-width="4.1214"/>
<path d="m295.02 335.35v23.283h-20.421v12.487h20.421v34.339c-38.159 26.695-62.52 51.914-65.653 75.701v0.13007 120.05h140.09s5.1488-94.284 0-120.18-27.719-55.407-61.165-76.741v-33.298h20.941v-12.487h-20.941v-23.283h-13.267z" fill="#fff" stroke="#000" stroke-width="3"/>
<path d="m301.31 335.34v266h68.125c0 2e-5 5.1488-94.286 0-120.19-5.1488-25.901-27.71-55.416-61.156-76.75v-33.281h20.938v-12.5h-20.938v-23.281h-6.9688z" fill="#e20909" stroke="#000" stroke-linecap="round" stroke-linejoin="round" stroke-width="2.6141"/>
<g transform="matrix(4.1622 0 0 4.1622 -3111.2 -1216.8)" fill-opacity="0" stroke="#000">
<path d="m822 410h11" stroke-width="1px"/>
<path d="m806 410h11" fill-opacity="0" stroke="#000" stroke-width="1px"/>
</g>
<path d="m303.75 422.41c-0.82088 0.6125-1.6253 1.2283-2.4375 1.8438v171.69h53.75c-1.1616-0.58081 2.6934-82.582 0-104.31-2.6934-21.731-24.817-50.079-52.031-68.594l0.71875-0.625z" fill="#e20909" stroke="#000" stroke-linecap="round" stroke-linejoin="round" stroke-width="2.6141"/>
<path d="m245.08 491.62v0.11287 104.19h109.99c-1.1616-0.58083 2.6934-82.574 0-104.3s-26.809-52.086-54.024-70.601c0 0-56.24 35.108-55.961 70.601z" fill="#fff" fill-opacity=".0055866" stroke="#000" stroke-width="3"/>
<g transform="matrix(4.1622 0 0 4.1622 -3111.2 -1216.8)" fill-opacity="0" stroke="#000">
<path d="m814 407.84v4.3182" stroke-width="1px"/>
<path d="m824.5 407.6v4.5585" stroke-width="1px"/>
<path d="m822.46 427.5h10.083" stroke-width=".95743px"/>
<path d="m824.5 425.37v4.2234" stroke-width=".88543px"/>
<path d="m806.46 427.5h10.083" stroke-width=".95743px"/>
<path d="m814.5 425.37v4.2234" stroke-width=".88543px"/>
<path d="m822.46 410.2h3.686 6.3973" stroke-width=".95743px"/>
</g>
<g transform="matrix(4.1622 0 0 4.1622 -3109.2 -1216.8)" fill-opacity="0" stroke="#000">
<path d="m822.07 420.49-5.2589 0.05792" fill-opacity="0" stroke="#000" stroke-width=".90019px"/>
</g>
<g fill="#fff" stroke="#000">
<path transform="matrix(4.6715 -1.2229 .49184 11.616 -3675.5 -2888.1)" d="m777.22 345.18 5.8789 13.115-14.298-1.4664 8.4188-11.649z" stroke-width=".40502"/>
<path transform="matrix(-1.5726 .28464 1.0315 4.2817 917.76 -1461.3)" d="m760.84 365.15 8.6137-17.477 10.829 16.198-19.443 1.279z" stroke-width="1.1317"/>
<path transform="matrix(1.5726 .28464 -1.0315 4.2817 -670.58 -1461.3)" d="m760.84 365.15 8.6137-17.477 10.829 16.198-19.443 1.279z" stroke-width="1.1317"/>
<path transform="matrix(2.4467 -.64051 .2576 6.0836 -1866.6 -1360.2)" d="m777.22 345.18 5.8789 13.115-14.298-1.4664 8.4188-11.649z" stroke-width=".77332"/>
<rect x="52.052" y="314.76" width="149.9" height="25.031" stroke-width="3"/>
</g>
<path d="m190 340v245.25" fill="none" stroke="#000" stroke-width="3"/>
<path d="m406 340v244.41" fill="none" stroke="#000" stroke-width="3"/>
<rect x="199.34" y="595.38" width="200.79" height="21.811" fill="#fff" stroke="#000" stroke-width="3.1629"/>
<path d="m127.56 354.49c-9.0445-2.0366-19.343 13.268-20.308 30.707v0.09436 95.072h39.329v-95.166c-1.4933-13.687-8.8771-30.744-19.021-30.707z" fill="#fff" stroke="#000" stroke-width="3"/>
<rect x="107.93" y="462.13" width="38.152" height="17.561" fill="#fff" stroke="#000" stroke-width="3.4702"/>
<rect x="52.081" y="585.48" width="154.53" height="35.441" fill="#fff" stroke="#000" stroke-width="3"/>
<g transform="translate(-.1539 1.141)" fill="#e20909" stroke="#000">
<path transform="matrix(4.6715 -1.2229 .49184 11.616 -3327.3 -2886.9)" d="m777.22 345.18 5.8789 13.115-14.298-1.4664 8.4188-11.649z" stroke-width=".40502"/>
<path transform="matrix(-1.5726 .28464 1.0315 4.2817 1266 -1460.1)" d="m760.84 365.15 8.6137-17.477 10.829 16.198-19.443 1.279z" stroke-width="1.1317"/>
<path transform="matrix(1.5726 .28464 -1.0315 4.2817 -322.33 -1460.1)" d="m760.84 365.15 8.6137-17.477 10.829 16.198-19.443 1.279z" stroke-width="1.1317"/>
<path transform="matrix(2.4467 -.64051 .2576 6.0836 -1518.3 -1359)" d="m777.22 345.18 5.8789 13.115-14.298-1.4664 8.4188-11.649z" stroke-width=".77332"/>
</g>
<path d="m301.31 136.97v195.5l108.91 0.40625-108.91-195.91z" fill="#e20909" stroke="#000" stroke-linecap="round" stroke-linejoin="round" stroke-width="2.6141"/>
<rect x="393.2" y="315.9" width="149.9" height="25.031" fill="#e20909" stroke="#000" stroke-width="3"/>
<g transform="matrix(4.1622 0 0 4.1622 -2764.9 -1216.7)" fill="#e20909" stroke="#000" stroke-width=".72076">
<path d="m778.13 377.5c-0.64401-0.40437-4.6471 3.1877-4.879 7.3775v0.02267 22.841h9.4489v-22.864c0.06595-1.7594-2.1328-7.3864-4.5698-7.3775z"/>
<rect x="773.42" y="403.36" width="9.1663" height="4.2191"/>
</g>
<path d="m405.85 341.14v244.41" fill="#e20909" fill-rule="evenodd" stroke="#000" stroke-width="3"/>
<rect x="300.98" y="594.08" width="99.439" height="22.703" fill="#e20909" stroke="#000" stroke-width="2.2709"/>
<rect x="393.39" y="585.48" width="154.53" height="35.441" fill="#e20909" stroke="#000" stroke-width="4.1622"/>
<path d="m301.31 208.66v111.03c29.327-1.3167 52.75-25.661 52.75-55.5 0-29.839-23.423-54.215-52.75-55.531z" fill="#e20909" stroke="#000" stroke-linecap="round" stroke-linejoin="round" stroke-width="2.6141"/>
<path d="m301.31 223.44v81.469c21.234-1.2984 38.062-19.023 38.062-40.719 0-21.696-16.828-39.452-38.062-40.75z" fill="#e20909" stroke="#000" stroke-linecap="round" stroke-linejoin="round" stroke-width="2.6141"/>
<path d="m301.31 226.75v74.688c13.307-1.8944 18.073-16.271 8.0938-25.781-0.23452-0.22352-0.10829-0.61661-0.125-0.9375 0.31884 0.01683 0.69879-0.05345 0.96875 0.125 13.29 8.7844 25.799 5.0612 25.812-10.656 0.01727-20.452-16.35-16.38-25.812-10.656-0.27686 0.16746-0.64991 0.07694-0.96875 0.09375 0.01667-0.32089-0.08387-0.68955 0.125-0.9375 11.774-13.979 2.776-25.032-8.0938-25.938z" fill="#e20909" stroke="#000" stroke-linecap="round" stroke-linejoin="round" stroke-width="2.6141"/>
<path d="m1.5 1.5v458.87c0 166.31 134.31 301.13 300 301.13 165.69 0 300-134.82 300-301.13v-458.87h-600z" fill="url(#a)"/>
<path d="m1.5 1.5v458.87c0 166.31 134.31 301.13 300 301.13 165.69 0 300-134.82 300-301.13v-458.87h-600z" fill="none" stroke="#000" stroke-width="3"/>
</g>
</svg>
