<?xml version="1.0" encoding="UTF-8"?>
<svg viewBox="-209 -313 418 500" xmlns="http://www.w3.org/2000/svg" xmlns:xlink="http://www.w3.org/1999/xlink">
<path d="m-204-307v284a204 204 0 0 0 408 0v-284z" fill="#e22" stroke="#000" stroke-width="10"/>
<use transform="scale(-1,1)" xlink:href="#c"/>
<g id="c">
<path d="m0 176c40-36 68-83 61-120-5-22-22-46-62-46m1 166c-27-22-77-70-67-118-24-36-85-20-90 32 34 52 101 86 157 86"/>
<g transform="rotate(-43,5,-156)">
<g fill="#fff" stroke="#000" stroke-width="6">
<path d="m-20-310h-18v-20h-29v11h-17v-11h-18v23h7v16h-7v17h33v-19h18v19h17v18h-17v19h-18v-19h-33v17h7v16h-7v23h18v-11h17v11h29v-20h18"/>
<rect x="-20" y="-340" width="40" height="300" rx="20" ry="15"/>
<use stroke-width="12" xlink:href="#k"/>
<g id="r">
<g id="e">
<circle cy="-79" r="21"/>
<rect id="b" x="-27" y="-70" width="54" height="13" rx="6" stroke-width="4"/>
</g>
<use transform="rotate(180)" xlink:href="#e"/>
</g>
<use transform="rotate(90)" xlink:href="#r"/>
<g stroke-width="0">
<path id="k" d="m-82 0a1.84 1 45 1 0 82-82 1 1.84 45 1 0 82 82 1.84 1 45 1 0-82 82 1 1.84 45 1 0-82-82z"/>
<use stroke-width="12" xlink:href="#i"/>
<path id="i" d="m-44 0a1.1 1 45 1 0 44-44 1 1.1 45 1 0 44 44 1.1 1 45 1 0-44 44 1 1.1 45 1 0-44-44z" fill="#e21"/>
</g>
<use y="-32" xlink:href="#b"/>
<rect x="-36" y="-90" width="72" height="20" rx="9"/>
</g>
</g>
</g>
</svg>
