<?xml version="1.0" encoding="UTF-8"?>
<svg version="1.0" viewBox="0 0 603 763" xmlns="http://www.w3.org/2000/svg" xmlns:cc="http://creativecommons.org/ns#" xmlns:dc="http://purl.org/dc/elements/1.1/" xmlns:rdf="http://www.w3.org/1999/02/22-rdf-syntax-ns#" xmlns:xlink="http://www.w3.org/1999/xlink">
<metadata>
<rdf:RDF>
<cc:Work rdf:about="">
<dc:format>image/svg+xml</dc:format>
<dc:type rdf:resource="http://purl.org/dc/dcmitype/StillImage"/>
<dc:date>04-AUG-2009</dc:date>
<dc:creator>
<cc:Agent>
<dc:title>Juan G (aliman5040)</dc:title>
</cc:Agent>
</dc:creator>
<cc:license rdf:resource="http://creativecommons.org/licenses/GPL/2.0/"/>
<dc:coverage/>
<dc:description/>
<dc:subject>
<rdf:Bag/>
</dc:subject>
<dc:language/>
<dc:title>Wappen Gemeinde Ligerz</dc:title>
</cc:Work>
<cc:License rdf:about="http://creativecommons.org/licenses/GPL/2.0/">
<cc:permits rdf:resource="http://web.resource.org/cc/Reproduction"/>
<cc:permits rdf:resource="http://web.resource.org/cc/Distribution"/>
<cc:requires rdf:resource="http://web.resource.org/cc/Notice"/>
<cc:permits rdf:resource="http://web.resource.org/cc/DerivativeWorks"/>
<cc:requires rdf:resource="http://web.resource.org/cc/ShareAlike"/>
<cc:requires rdf:resource="http://web.resource.org/cc/SourceCode"/>
</cc:License>
</rdf:RDF>
</metadata>
<defs>
<radialGradient id="a" cx="858.04" cy="579.93" r="300" gradientTransform="matrix(1.215 1.5316e-24 1.4647e-23 1.2667 -839.19 -490.49)" gradientUnits="userSpaceOnUse">
<stop stop-color="#fff" stop-opacity=".31373" offset="0"/>
<stop stop-color="#fff" stop-opacity=".25098" offset=".19"/>
<stop stop-color="#6b6b6b" stop-opacity=".12549" offset=".6"/>
<stop stop-opacity=".12549" offset="1"/>
</radialGradient>
</defs>
<g>
<path d="m1.5 1.5v458.87c0 166.31 134.31 301.13 300 301.13 165.69 0 300-134.82 300-301.13v-458.87h-600z" fill="#2b5df2"/>
<path d="m270.03 28.792v90.551h-96.508v64.679h96.508v331.08h62.94v-331.08h96.508v-64.679h-96.508v-90.551h-62.94z" fill="#fff" fill-rule="evenodd" stroke="#000" stroke-width="4.2536"/>
<g transform="matrix(4.1969 0 0 4.1969 -2700.3 -2413.9)" fill-rule="evenodd" stroke="#000">
<path d="m666.38 715.86c-10-14-4.3827-31.859 2.6173-38.859l2.3827 35.859-5 3z" fill="#fcef3c"/>
<rect x="668.96" y="583.06" width="11.884" height="131.02" fill="#fcef3c" stroke-width="1.1161"/>
<path d="m685 637c-1.5132-12.743-10.807-15.533-18-21-9.7081-7.3787-3-13 2-13v-7c-7.771 1.2619-14 4-14 13 0 6.4797 3.8238 10.563 9 14-9.5228 1.5392-15.579 6.7223-17 19-1.0304 8.9032 4.6978 15.329 6 23 0.9592 5.6506-2.2579 9.585-3 13 5.1754-3.1787 6.2024-7.9662 6-13-0.40086-9.9684-6.1832-12.418-4-23 2.0605-9.9875 16-22 24-6l9 1z" fill="#fcef3c"/>
<path d="m681 599c11.615-5.0386 11.88-11.474 12-17-4.0597 5.2617-5.8186 8.8607-12 10v7z" fill="#fcef3c"/>
<g>
<path d="m668 653 12 20 12-20h-24z"/>
<path transform="matrix(1.1068 0 0 1.0486 -73.674 -32.499)" d="m689 679.5a9 9.5 0 1 1-18 0 9 9.5 0 1 1 18 0z" fill="#fcef3c"/>
<path transform="matrix(1.1068 0 0 1.0486 -82.597 -47.499)" d="m689 679.5a9 9.5 0 1 1-18 0 9 9.5 0 1 1 18 0z" fill="#fcef3c"/>
<path transform="matrix(1.1068 0 0 1.0486 -62.597 -47.499)" d="m689 679.5a9 9.5 0 1 1-18 0 9 9.5 0 1 1 18 0z" fill="#fcef3c"/>
<path transform="matrix(1.1068 0 0 1.0486 -58.635 -67.46)" d="m689 679.5a9 9.5 0 1 1-18 0 9 9.5 0 1 1 18 0z" fill="#fcef3c"/>
<path transform="matrix(1.1068 0 0 1.0486 -86.674 -67.499)" d="m689 679.5a9 9.5 0 1 1-18 0 9 9.5 0 1 1 18 0z" fill="#fcef3c"/>
<path transform="matrix(1.2122 0 0 1.1484 -144.32 -134.27)" d="m689 679.5a9 9.5 0 1 1-18 0 9 9.5 0 1 1 18 0z" fill="#fcef3c"/>
</g>
</g>
<g transform="matrix(4.1969 0 0 4.1969 -2706.3 -2413.9)" fill="#fcef3c" fill-rule="evenodd" stroke="#000">
<rect x="750.95" y="583.05" width="11.899" height="127.32" stroke-width="1.1009"/>
<path d="m751 593c-4.9548-2.8064-8.9307-6.8366-12-12 0 7 3 14 12 17v-5z"/>
<path d="m763 595c8.0595 0.72845 14.718 4.3354 14 13-1.3474 16.261-17 12-28 33l-8-2c4.2238-15.511 26.579-21.262 28-31 0.94089-6.4498-3.2235-6.7501-6-7v-6z"/>
<path d="m755 673c9.552 6.4456 18-3 15-14-2.6539 2.4995-5.3478 2.8254-8 3 6.5413-6 5.2793-15.513-7-19 0.28745 2.1559 0.42212 3.8565 0.34403 5.178-0.34403 5.822-5.3787 2.431-4.344 0.822 7.8166-12.156-11.05-10.163-19-14 1.0411 8.489-6.5883 16.182-2 23 0.62407 0.92735 3.8873 2.5282 6 2 4-1 4 4-4 2l-4-1c-1.9819 11.925 4.454 14.2 12 15.203-0.71239 2.0671-4.0246 2.3144-7 2.7974 12 12 24 2 22-6z"/>
<path d="m766.34 715.25c8.3394-15.487 1.6011-27.824-7.3448-40.248l-18-25s10.139 20.922 14 28c12 22 5 32 5 32l6.3448 5.2484z"/>
</g>
<path d="m567.31 318.35c20.985-20.985 41.97-54.56 12.591-92.333-25.336-32.575-83.939-12.591-71.348 25.182 8.3939-12.591 43.276-16.319 46.166 12.591 1.306 13.06-0.9169 32.44-20.985 33.576v20.985h33.576-33.576l-4.197 104.92c0 16.788 41.969 16.788 41.969 0l-4.197-104.92z" fill="#fff" fill-rule="evenodd" stroke="#000" stroke-width="4.1969"/>
<g transform="matrix(4.2754 0 0 4.2754 -2674.2 -2448.8)" stroke="#000">
<path transform="matrix(.2339 0 0 .2339 625.48 572.76)" d="m299.44 505.84c-37.071 0.34249-73.144 22.273-79.156 72.375-67.067-39.451-126.87-24.307-159.22 62.25 29.81 40.03 69.302 72.389 115 93.531 51.318 20.615 103.44 30.022 156.62 25.875 86.818-8.9979 162.62-55.167 211.41-122.38-27.725-65.525-73.488-97.534-157.09-59.281-2.2713-45.426-45.548-72.763-87.562-72.375z" fill="#5ab532" fill-rule="evenodd" stroke-width="4.2754"/>
<path d="m677 708c-0.55774 14.53 11.805 28.066 19 42 7.8983-13.56 20.559-25.42 20-42" fill="none"/>
</g>
<path d="m1.5 1.5v458.87c0 166.31 134.31 301.13 300 301.13 165.69 0 300-134.82 300-301.13v-458.87h-600z" fill="url(#a)"/>
<path d="m1.5 1.5v458.87c0 166.31 134.31 301.13 300 301.13 165.69 0 300-134.82 300-301.13v-458.87h-600z" fill="none" stroke="#000" stroke-width="3"/>
</g>
</svg>
