<?xml version="1.0" encoding="UTF-8"?>
<svg version="1.0" viewBox="0 0 603 763" xmlns="http://www.w3.org/2000/svg" xmlns:cc="http://web.resource.org/cc/" xmlns:dc="http://purl.org/dc/elements/1.1/" xmlns:rdf="http://www.w3.org/1999/02/22-rdf-syntax-ns#" xmlns:xlink="http://www.w3.org/1999/xlink">
<metadata>
<rdf:RDF>
<cc:Work rdf:about="">
<dc:format>image/svg+xml</dc:format>
<dc:type rdf:resource="http://purl.org/dc/dcmitype/StillImage"/>
<dc:date>07-AUG-2006</dc:date>
<dc:creator>
<cc:Agent>
<dc:title>Jérôme BLUM (wagner51)</dc:title>
</cc:Agent>
</dc:creator>
<cc:license rdf:resource="http://creativecommons.org/licenses/GPL/2.0/"/>
<dc:coverage/>
<dc:description>Gabarit pour le Projet:Blasons de WIkipédia</dc:description>
<dc:subject>
<rdf:Bag>
<rdf:li>blason suisse modèle gabarit projet blasons</rdf:li>
</rdf:Bag>
</dc:subject>
<dc:language>fr</dc:language>
<dc:title>Gabrit d'un blason suisse</dc:title>
</cc:Work>
<cc:License rdf:about="http://creativecommons.org/licenses/GPL/2.0/">
<cc:permits rdf:resource="http://web.resource.org/cc/Reproduction"/>
<cc:permits rdf:resource="http://web.resource.org/cc/Distribution"/>
<cc:requires rdf:resource="http://web.resource.org/cc/Notice"/>
<cc:permits rdf:resource="http://web.resource.org/cc/DerivativeWorks"/>
<cc:requires rdf:resource="http://web.resource.org/cc/ShareAlike"/>
<cc:requires rdf:resource="http://web.resource.org/cc/SourceCode"/>
</cc:License>
</rdf:RDF>
</metadata>
<defs>
<radialGradient id="a" cx="858.04" cy="579.93" r="300" gradientTransform="matrix(1.215 1.5316e-24 1.4647e-23 1.2667 -839.19 -490.49)" gradientUnits="userSpaceOnUse">
<stop stop-color="#fff" stop-opacity=".31373" offset="0"/>
<stop stop-color="#fff" stop-opacity=".25098" offset=".19"/>
<stop stop-color="#6b6b6b" stop-opacity=".12549" offset=".6"/>
<stop stop-opacity=".12549" offset="1"/>
</radialGradient>
</defs>
<desc>Coat of Arms of Canton of Freiburg (Fribourg)</desc>
<path d="m1.5 1.5v458.87c0 166.31 134.31 301.13 300 301.13 165.69 0 300-134.82 300-301.13v-458.87h-600z" fill="#2b5df2"/>
<g transform="matrix(4.2628 0 0 4.2628 -2620.1 -2455.1)" stroke="#000">
<g fill="#fcef3c">
<rect x="659.5" y="707.89" width="51.534" height="29.609" ry="0"/>
<path d="m659.34 714.52h51.661" fill-rule="evenodd" stroke-width="1px"/>
<path d="m660 722.52h51" fill-rule="evenodd" stroke-width="1px"/>
<path d="m660 729.52 18.128 0.04846" fill-rule="evenodd" stroke-width="1px"/>
<path d="m691.9 729.52h19" fill-rule="evenodd" stroke-width="1px"/>
<path d="m691.48 708.1v29" fill-rule="evenodd" stroke-width="1px"/>
<path d="m685.48 723v15" fill-rule="evenodd" stroke-width="1px"/>
<path d="m678.48 708v30" fill-rule="evenodd" stroke-width="1px"/>
</g>
<path d="m652.16 708h64.062l-14.806-36h-32.419l-16.837 36z" fill="#fcef3c" fill-rule="evenodd" stroke-width="1px"/>
<path d="m668 684-2 4" fill="none" stroke-width="1px"/>
<path d="m667 696-3 6" fill="none" stroke-width="1px"/>
<path d="m671.79 695.25-2.7259 5.4391" fill="none" stroke-width="1px"/>
<path d="m676 695-2.0685 4.7538" fill="none" stroke-width="1px"/>
<path d="m680 695-1 4" fill="none" stroke-width="1px"/>
<path d="m688 697v4" fill="none" stroke-width="1px"/>
<path d="m690.45 695.69 1 5" fill="none" stroke-width="1px"/>
<path d="m694.03 695.34 0.97208 5.6574" fill="none" stroke-width="1px"/>
<path d="m699.45 695.11 2.5482 5.8909" fill="none" stroke-width="1px"/>
<path d="m703 695 2.8629 5.7665" fill="none" stroke-width="1px"/>
<path d="m696.55 676.38 1.4518 4.6168" fill="none" stroke-width="1px"/>
<path d="m693 676 2 6" fill="none" stroke-width="1px"/>
<path d="m690.34 676.59 1 4" fill="none" stroke-width="1px"/>
<path d="m676.21 675.66-1.6853 5.1371" fill="none" stroke-width="1px"/>
<path d="m671.79 683.38-2.3426 6.4112" fill="none" stroke-width="1px"/>
<path d="m676 684-1.6574 4.6168" fill="none" stroke-width="1px"/>
<path d="m679.52 684.21-1.2462 3.7538" fill="none" stroke-width="1px"/>
<path d="m682.69 683.86-1.302 4.3426" fill="none" stroke-width="1px"/>
<path d="m685 684v5" fill="none" stroke-width="1px"/>
<path d="m688.41 683.25 1 6" fill="none" stroke-width="1px"/>
<path d="m691.55 683.79 1.4518 4.8909" fill="none" stroke-width="1px"/>
<g transform="translate(36.161 -79.5)" fill="#fcef3c">
<rect x="659.5" y="707.89" width="51.534" height="29.609" ry="0"/>
<path d="m659.34 714.52h51.661" fill-rule="evenodd" stroke-width="1px"/>
<path d="m660 722.52h51" fill-rule="evenodd" stroke-width="1px"/>
<path d="m660 729.52 18.128 0.04846" fill-rule="evenodd" stroke-width="1px"/>
<path d="m691.9 729.52h19" fill-rule="evenodd" stroke-width="1px"/>
<path d="m691.48 708.1v29" fill-rule="evenodd" stroke-width="1px"/>
<path d="m685.48 723v15" fill-rule="evenodd" stroke-width="1px"/>
<path d="m678.48 708v30" fill-rule="evenodd" stroke-width="1px"/>
</g>
<path d="m688.5 628.5h64.062l-14.806-36h-32.419l-16.837 36z" fill="#fcef3c" fill-rule="evenodd" stroke-width="1px"/>
<path d="m705 605-3 6.6168" fill="none" stroke-width="1px"/>
<path d="m700 617-3.1371 6.5761" fill="none" stroke-width="1px"/>
<path d="m704 617-3.6574 6.7538" fill="none" stroke-width="1px"/>
<path d="m708 617-2.7259 5.6853" fill="none" stroke-width="1px"/>
<path d="m712.34 616.86-2.2335 4.6853" fill="none" stroke-width="1px"/>
<path d="m716.41 616.73-1.165 4.0279" fill="none" stroke-width="1px"/>
<path d="m712.34 605.25-2.2056 6.4391" fill="none" stroke-width="1px"/>
<path d="m708.34 605.45-2.4797 6.0558" fill="none" stroke-width="1px"/>
<path d="m717.82 598.75-1.4112 5.3426" fill="none" stroke-width="1px"/>
<path d="m721 598-1 6" fill="none" stroke-width="1px"/>
<path d="m727 610v5" fill="none" stroke-width="1px"/>
<path d="m729 609 1.2741 5.8223" fill="none" stroke-width="1px"/>
<path d="m732 609 1.5888 5.5888" fill="none" stroke-width="1px"/>
<path d="m736 617 2.3832 5.9721" fill="none" stroke-width="1px"/>
<path d="m739.55 616.73 2.3426 5.6853" fill="none" stroke-width="1px"/>
<path d="m735 609 2.0964 5" fill="none" stroke-width="1px"/>
<path d="m738 609 3 6" fill="none" stroke-width="1px"/>
<path d="m733 598 2.2741 4.5482" fill="none" stroke-width="1px"/>
<g transform="translate(-34.839 -79.5)" fill="#fcef3c">
<rect x="659.5" y="707.89" width="51.534" height="29.609" ry="0"/>
<path d="m659.34 714.52h51.661" fill-rule="evenodd" stroke-width="1px"/>
<path d="m660 722.52h51" fill-rule="evenodd" stroke-width="1px"/>
<path d="m660 729.52 18.128 0.04846" fill-rule="evenodd" stroke-width="1px"/>
<path d="m691.9 729.52h19" fill-rule="evenodd" stroke-width="1px"/>
<path d="m691.48 708.1v29" fill-rule="evenodd" stroke-width="1px"/>
<path d="m685.48 723v15" fill-rule="evenodd" stroke-width="1px"/>
<path d="m678.48 708v30" fill-rule="evenodd" stroke-width="1px"/>
</g>
<path d="m617.5 628.5h64.062l-14.806-36h-32.419l-16.837 36z" fill="#fcef3c" fill-rule="evenodd" stroke-width="1px"/>
<path d="m633.44 605.62-3 6.409" fill="none" stroke-width="1px"/>
<path d="m632.44 617.38-3.0607 6.0607" fill="none" stroke-width="1px"/>
<path d="m636.91 617.47-2.5303 5.2374" fill="none" stroke-width="1px"/>
<path d="m641.27 617.47-1.8839 4.3258" fill="none" stroke-width="1px"/>
<path d="m645.09 617.47-1.0884 3.2374" fill="none" stroke-width="1px"/>
<path d="m637.29 605.62-2.7626 6.9116" fill="none" stroke-width="1px"/>
<path d="m641.47 605.53-2.1161 6.1768" fill="none" stroke-width="1px"/>
<path d="m642 598-1.7071 4.7071" fill="none" stroke-width="1px"/>
<path d="m646 598-1.5303 4.7071" fill="none" stroke-width="1px"/>
<path d="m648.44 597.91-1.0607 4.9723" fill="none" stroke-width="1px"/>
<path d="m652 598v4.7955" fill="none" stroke-width="1px"/>
<path d="m655.62 598.68 0.38128 4.4367" fill="none" stroke-width="1px"/>
<path d="m658.65 598.44 0.82322 4.7071" fill="none" stroke-width="1px"/>
<path d="m662 599 1.9393 3.9393" fill="none" stroke-width="1px"/>
<path d="m655 617v5 1" fill="none" stroke-width="1px"/>
<path d="m658 617 1.5303 6.0277" fill="none" stroke-width="1px"/>
<path d="m664.62 617.29 2.3813 6" fill="none" stroke-width="1px"/>
<path d="m668.35 617.47 2.442 5.5303" fill="none" stroke-width="1px"/>
</g>
<g>
<path d="m1.5 1.5v458.87c0 166.31 134.31 301.13 300 301.13 165.69 0 300-134.82 300-301.13v-458.87h-600z" fill="url(#a)"/>
<path d="m1.5 1.5v458.87c0 166.31 134.31 301.13 300 301.13 165.69 0 300-134.82 300-301.13v-458.87h-600z" fill="none" stroke="#000" stroke-width="3"/>
</g>
</svg>
