<?xml version="1.0" encoding="UTF-8"?>
<svg version="1.0" viewBox="0 0 603 763" xmlns="http://www.w3.org/2000/svg" xmlns:cc="http://web.resource.org/cc/" xmlns:dc="http://purl.org/dc/elements/1.1/" xmlns:rdf="http://www.w3.org/1999/02/22-rdf-syntax-ns#" xmlns:xlink="http://www.w3.org/1999/xlink">
<metadata>
<rdf:RDF>
<cc:Work rdf:about="">
<dc:format>image/svg+xml</dc:format>
<dc:type rdf:resource="http://purl.org/dc/dcmitype/StillImage"/>
<dc:date>07-AUG-2006</dc:date>
<dc:creator>
<cc:Agent>
<dc:title>Jérôme BLUM (wagner51)</dc:title>
</cc:Agent>
</dc:creator>
<cc:license rdf:resource="http://creativecommons.org/licenses/GPL/2.0/"/>
<dc:coverage/>
<dc:description>Gabarit pour le Projet:Blasons de WIkipédia</dc:description>
<dc:subject>
<rdf:Bag>
<rdf:li>blason suisse modèle gabarit projet blasons</rdf:li>
</rdf:Bag>
</dc:subject>
<dc:language>fr</dc:language>
<dc:title>Gabrit d'un blason suisse</dc:title>
</cc:Work>
<cc:License rdf:about="http://creativecommons.org/licenses/GPL/2.0/">
<cc:permits rdf:resource="http://web.resource.org/cc/Reproduction"/>
<cc:permits rdf:resource="http://web.resource.org/cc/Distribution"/>
<cc:requires rdf:resource="http://web.resource.org/cc/Notice"/>
<cc:permits rdf:resource="http://web.resource.org/cc/DerivativeWorks"/>
<cc:requires rdf:resource="http://web.resource.org/cc/ShareAlike"/>
<cc:requires rdf:resource="http://web.resource.org/cc/SourceCode"/>
</cc:License>
</rdf:RDF>
</metadata>
<defs>
<radialGradient id="a" cx="858.04" cy="579.93" r="300" gradientTransform="matrix(1.215 1.5316e-24 1.4647e-23 1.2667 -839.19 -490.49)" gradientUnits="userSpaceOnUse">
<stop stop-color="#fff" stop-opacity=".31373" offset="0"/>
<stop stop-color="#fff" stop-opacity=".25098" offset=".19"/>
<stop stop-color="#6b6b6b" stop-opacity=".12549" offset=".6"/>
<stop stop-opacity=".12549" offset="1"/>
</radialGradient>
</defs>
<desc>Coat of Arms of Canton of Freiburg (Fribourg)</desc>
<path d="m1.5 1.5v458.87c0 166.31 134.31 301.13 300 301.13 165.69 0 300-134.82 300-301.13v-458.87h-600z" fill="#fff"/>
<g fill="#e20909" fill-rule="evenodd" stroke="#000">
<path d="m104.18 657.71 130.52-0.0379 0.75737-21.545 128.62 1.2639 0.30647 19.969 128.45-1.1879-0.00741-500.93c12.652-0.46876 17.262 0.19225 26.941-0.41025l2.0959-91.719h-40.811l-0.70829 52.63-25.863-0.56383v-52.066h-46.565l-1.6441 50.454h-23.283l0.82195-50.454h-41.633l-0.69863 92.632 23.463 0.44119-0.76872 250.92c1.6332 3.8576-14.664 3.5409-21.995 3.0036v-61.304l-26.564 0.01508 0.45668 59.101c4.0142-1.0006-22.443-0.72524-31.73 0l-0.25218-57.397-25.26 0.33073-0.78458 58.163-24.665-0.1226-1.1216-254.8h21.639l1.2738-90.99h-34.965l-1.1762 52.066h-25.939v-52.066h-43.555v52.066h-27.115v-52.066h-44.921v92.601l26.33 0.47213 0.34564 501.52z" stroke-width="5"/>
<path d="m296.8 524.5c-17.048 0-30.883 16.087-30.883 35.909 0 1.3933 0.07754 2.7692 0.21057 4.1213h-0.21057v71.818h61.767v-71.818h-0.21057c0.13304-1.3521 0.21057-2.728 0.21057-4.1213 0-19.822-13.836-35.909-30.883-35.909z" stroke-linecap="round" stroke-linejoin="round" stroke-width="3"/>
<path d="m233.5 334.59 1.152 320.52" stroke-width="5"/>
<path d="m363.89 327.35 0.46932 324.49" stroke-width="5"/>
<path d="m234.01 154.07c-136.25 0.82749-138.35 1.5261-138.35 1.5261" stroke-width="5"/>
<path d="m500.94 154.77-136.25 0.82749 136.25-0.82749" stroke-width="5"/>
<rect x="152.43" y="256.49" width="27" height="65.011" stroke-linecap="round" stroke-linejoin="round" stroke-width="3"/>
<rect x="413.5" y="259.28" width="27" height="62.217" stroke-linecap="round" stroke-linejoin="round" stroke-width="3"/>
</g>
<g>
<path d="m1.5 1.5v458.87c0 166.31 134.31 301.13 300 301.13 165.69 0 300-134.82 300-301.13v-458.87h-600z" fill="url(#a)"/>
<path d="m1.5 1.5v458.87c0 166.31 134.31 301.13 300 301.13 165.69 0 300-134.82 300-301.13v-458.87h-600z" fill="none" stroke="#000" stroke-width="3"/>
</g>
</svg>
