<?xml version="1.0" encoding="UTF-8"?>
<svg version="1.0" viewBox="0 0 603 763" xmlns="http://www.w3.org/2000/svg" xmlns:cc="http://web.resource.org/cc/" xmlns:dc="http://purl.org/dc/elements/1.1/" xmlns:rdf="http://www.w3.org/1999/02/22-rdf-syntax-ns#" xmlns:xlink="http://www.w3.org/1999/xlink">
<metadata>
<rdf:RDF>
<cc:Work rdf:about="">
<dc:format>image/svg+xml</dc:format>
<dc:type rdf:resource="http://purl.org/dc/dcmitype/StillImage"/>
<dc:date>07-AUG-2006</dc:date>
<dc:creator>
<cc:Agent>
<dc:title>Jérôme BLUM (wagner51)</dc:title>
</cc:Agent>
</dc:creator>
<cc:license rdf:resource="http://creativecommons.org/licenses/GPL/2.0/"/>
<dc:coverage/>
<dc:description>Gabarit pour le Projet:Blasons de WIkipédia</dc:description>
<dc:subject>
<rdf:Bag>
<rdf:li>blason suisse modèle gabarit projet blasons</rdf:li>
</rdf:Bag>
</dc:subject>
<dc:language>fr</dc:language>
<dc:title>Gabrit d'un blason suisse</dc:title>
</cc:Work>
<cc:License rdf:about="http://creativecommons.org/licenses/GPL/2.0/">
<cc:permits rdf:resource="http://web.resource.org/cc/Reproduction"/>
<cc:permits rdf:resource="http://web.resource.org/cc/Distribution"/>
<cc:requires rdf:resource="http://web.resource.org/cc/Notice"/>
<cc:permits rdf:resource="http://web.resource.org/cc/DerivativeWorks"/>
<cc:requires rdf:resource="http://web.resource.org/cc/ShareAlike"/>
<cc:requires rdf:resource="http://web.resource.org/cc/SourceCode"/>
</cc:License>
</rdf:RDF>
</metadata>
<defs>
<radialGradient id="a" cx="858.04" cy="579.93" r="300" gradientTransform="matrix(1.215 1.5316e-24 1.4647e-23 1.2667 -839.19 -490.49)" gradientUnits="userSpaceOnUse">
<stop stop-color="#fff" stop-opacity=".31373" offset="0"/>
<stop stop-color="#fff" stop-opacity=".25098" offset=".19"/>
<stop stop-color="#6b6b6b" stop-opacity=".12549" offset=".6"/>
<stop stop-opacity=".12549" offset="1"/>
</radialGradient>
</defs>
<desc>Coat of Arms of Canton of Freiburg (Fribourg)</desc>
<g>
<path d="m1.5 1.5v458.87c0 166.31 134.31 301.13 300 301.13 165.69 0 300-134.82 300-301.13v-458.87h-600z" fill="#e20909"/>
<rect x="1.6177" y="1.6177" width="599.76" height="354.76" fill="#5ab532" stroke="#000" stroke-width="3.2355"/>
</g>
<path d="m128.96 2.1696c-0.00818 0.52157 0 1.0265 0 1.5495 0 13.217 2.6381 29.953 7.4891 41.962-27.609 28.661-16.319 34.222-20.014 65.723-6.4573 55.502-54.047 47.956-54.232 127.44-0.07491 32.254-54.951 56.758-55.135 116.99h65.594c2.0135-65.428 36.195-57.876 32.281-116.99-3.9809-60.116 48.544-65.063 41.448-127.44-1.2945-11.298-0.23664-23.916 5.294-36.542l5.9396 4.6484c5.656 6.4225 12.073 12.412 19.11 17.948-0.76164 5.2954-1.4521 8.2812-1.5495 13.945-1.3351 77.687-43.074 89.111-41.836 127.44 2.0022 61.965-38.782 59.026-43.643 116.99h65.853c-2.1271-49.538 20.867-58.031 17.302-116.99-1.8458-30.524 32.896-34.396 24.533-127.44l28.278 17.69c5.4008 77.239-33.808 93.816-31.506 129.77 3.5748 55.827-22.044 44.285-20.014 96.971h69.984c22.176-66.484-22.047-78.857 2.7116-116.99 19.178-29.533-1.7565-79.012 8.1347-102.01l25.954 3.3572c-4.4062 33.07 18.253 45.171 0.25825 79.41-12.002 22.835-10.845 36.336-4.3902 65.078 4.4774 19.936-18.803 47.308-18.594 71.147h82.509c2.3221-30.95-26.115-51.87-18.594-71.147 11.041-28.294 11.531-35.475-4.6484-65.078-18.42-33.703 4.1729-40.161-0.51649-79.41l28.407-4.5193c9.3895 21.613-10.673 46.43 8.0056 103.17 21.986 47.13-17.971 45.764 3.4863 116.99h65.207c-0.6954-31.515-23.679-42.843-22.467-95.034 0.8525-36.709-26.973-40.349-23.371-102.78 0.53822-9.3281-1.2506-22.106-5.0358-33.701 9.8255-3.577 19.221-7.8901 27.89-12.783 4.6955 11.901 7.0257 23.736 5.2941 33.314-9.6406 53.321 20.872 71.058 20.272 94.001-1.7152 66.414 13.185 64.48 13.558 116.99h70.114c-2.0171-58.425-40.678-54.068-40.157-116.99 0.4721-56.96-38.45-26.605-38.091-121.12 0.0312-7.978-3.7403-12.975-9.0386-21.047 7.8831-6.3089 14.955-13.239 21.047-20.66l1.2912-1.1621c3.5074 11.907 8.7527 18.893 8.9095 38.995 0.558 71.568 41.69 60.003 41.836 124.99 0.1443 67.687 25.971 41.778 24.662 116.99h73.729c6.2227-52.826-57.816-86.787-57.46-116.99 1.1209-95.667-46.738-90.492-47.646-124.99-1.116-41.948-13.313-54.023-25.824-68.822h-1.033c4.6831-11.818 7.2309-28.34 7.2309-41.316 0-0.52302 0.0082-1.0279 0-1.5495h-338.82z" fill="#fff" fill-rule="evenodd" stroke="#000" stroke-width="4.1319px"/>
<g transform="matrix(4.1319 0 0 4.1319 -2534.1 -2354.7)" fill="#fff" fill-rule="evenodd" stroke="#000" stroke-width="1px">
<path d="m734.56 720.94-4.1193 0.14679c-2.2798-3.26-7.046-7.4276-13.826-7.945l-4.8532-6.4679-74.853-41.468c-6.2351-2.9543-11.257-3.0461-18.229-1.9175l91.321 49.706-91.321-49.706c2.3026 6.0296 5.5183 10.758 10.44 13.385l76.321 40.734 7.7982 1.3211c2.7423 4.46 7.2578 6.9497 13.523 7.4954l0.44036 4.2661c6.1511-0.15743 9.7837-2.3754 7.3578-9.5504z"/>
<path d="m706.47 728.15c6.6872-7.1565 11.883-16.181 13.972-27.055l-6.7614-2.7982c-1.9882 11.754-8.4863 19.178-14.266 26.761l7.055 3.0918z"/>
<path d="m731.38 682.79c3.9711-1.2045 8.4874-2.589 10.83-11.934l-9.2076 5.1417-1.6228 6.7924z"/>
<path d="m745.95 661.63-18.306 10.12 3.7137 5.5428 18.126-9.6219-3.5337-6.0414z"/>
<path d="m660 712.41-21.133 13.4 4.0479 5.9651 20.861-13.595-3.7759-5.7707z"/>
<path d="m714.49 673.13c-2.4254 6.453-2.7759 12.906-3.5895 19.359l-6.3423 4.6626c-8.0475 2.4213-16.086 1.2719-22.761-2.4837l-4.2917 24.435c-1.995 0.43812-3.8172 1.0492-6.4767 0.8228 1.6801-10.889-0.30126-24.743 11.283-30.899l2.7209-1.2245c5.1226 5.0902 12.408 3.6934 19.127 3.9941 1.1865-8.8616 2.4516-16.918 10.33-18.666z"/>
<path d="m657.08 723.21c5.7299 6.7788 14.199 0.98912 15.104-3.1317-0.00822-12.696 1.6802-26.282 11.056-31.868-4.4456 7.9421-3.2538 21.648-6.7645 31.038l-4.2913 0.83036 4.2913-0.83036c12.716-1.4997 27.693-14.482 28.321-22.076-7.6858 0.12663-15.76 1.8908-23.373-4.1653 0.34896-1.5989 0.78469-3.1979 1.8164-4.7968 6.5747 5.0051 14.986 4.8534 21.868 4.4582l-0.31138 4.5039 0.31138-4.5039c0.76635-6.7267 1.2182-15.78 9.0999-19.77-3.3809 6.2613-3.0516 13.347-4.2037 20.104l-5.2076 4.1696 5.2076-4.1696c0.00689 0.34465 21.09 4.2554 22.906-16.643 0.31192-3.5883 2.0881-7.2165 5.2255-10.329-10.514-6.3828-20.908 0.1964-23.928 6.8683-22.433-0.05386-28.277 12.493-30.968 15.311-10.101 3.8383-25.546 4.6617-24.066 25.311 0.26515 3.6983-0.93091 6.3572-2.0938 9.6886z"/>
<path d="m659 708c-9.4626-9.7056-17.098-5.8652-19.802-2.5848-2.852 3.4588-2.9029 12.453-10.717 10.962 10.393 7.1616 12.433-16.844 24.311 0.66071l4.519-2.8304c-4.2453-4.3092-6.5803-10.73-18.114-8.7924 11.53-1.9235 13.913 4.4283 18.114 8.7924l1.6886-1.2076v-5z"/>
<path d="m678.58 711.76c2.3774-0.64316 4.8437-1.0954 7.2211-2.6012"/>
<path d="m677.87 715.13c4.153-1.1941 8.3801-2.6695 11.599-4.7976"/>
<path d="m687.49 690.13c2.1293-3.4879 4.7225-6.8366 9.2004-9.6199"/>
<path d="m710.98 686.58c1.8207-0.05582 3.7421-0.41349 5.7996-1.1797"/>
<path d="m710.71 689.62c5.0973 0.2182 9.527-1.9322 13.134-4.2004"/>
</g>
<g>
<path d="m1.5 1.5v458.87c0 166.31 134.31 301.13 300 301.13 165.69 0 300-134.82 300-301.13v-458.87h-600z" fill="url(#a)"/>
<path d="m1.5 1.5v458.87c0 166.31 134.31 301.13 300 301.13 165.69 0 300-134.82 300-301.13v-458.87h-600z" fill="none" stroke="#000" stroke-width="3"/>
</g>
</svg>
