<?xml version="1.0" encoding="UTF-8"?>
<svg version="1.0" viewBox="0 0 603 763" xmlns="http://www.w3.org/2000/svg" xmlns:cc="http://web.resource.org/cc/" xmlns:dc="http://purl.org/dc/elements/1.1/" xmlns:rdf="http://www.w3.org/1999/02/22-rdf-syntax-ns#" xmlns:xlink="http://www.w3.org/1999/xlink">
<metadata>
<rdf:RDF>
<cc:Work rdf:about="">
<dc:format>image/svg+xml</dc:format>
<dc:type rdf:resource="http://purl.org/dc/dcmitype/StillImage"/>
<dc:date>07-AUG-2006</dc:date>
<dc:creator>
<cc:Agent>
<dc:title>Jérôme BLUM (wagner51)</dc:title>
</cc:Agent>
</dc:creator>
<cc:license rdf:resource="http://creativecommons.org/licenses/GPL/2.0/"/>
<dc:coverage/>
<dc:description>Gabarit pour le Projet:Blasons de WIkipédia</dc:description>
<dc:subject>
<rdf:Bag>
<rdf:li>blason suisse modèle gabarit projet blasons</rdf:li>
</rdf:Bag>
</dc:subject>
<dc:language>fr</dc:language>
<dc:title>Gabrit d'un blason suisse</dc:title>
</cc:Work>
<cc:License rdf:about="http://creativecommons.org/licenses/GPL/2.0/">
<cc:permits rdf:resource="http://web.resource.org/cc/Reproduction"/>
<cc:permits rdf:resource="http://web.resource.org/cc/Distribution"/>
<cc:requires rdf:resource="http://web.resource.org/cc/Notice"/>
<cc:permits rdf:resource="http://web.resource.org/cc/DerivativeWorks"/>
<cc:requires rdf:resource="http://web.resource.org/cc/ShareAlike"/>
<cc:requires rdf:resource="http://web.resource.org/cc/SourceCode"/>
</cc:License>
</rdf:RDF>
</metadata>
<defs>
<radialGradient id="a" cx="858.04" cy="579.93" r="300" gradientTransform="matrix(1.215 1.5316e-24 1.4647e-23 1.2667 -839.19 -490.49)" gradientUnits="userSpaceOnUse">
<stop stop-color="#fff" stop-opacity=".31373" offset="0"/>
<stop stop-color="#fff" stop-opacity=".25098" offset=".19"/>
<stop stop-color="#6b6b6b" stop-opacity=".12549" offset=".6"/>
<stop stop-opacity=".12549" offset="1"/>
</radialGradient>
</defs>
<desc>Coat of Arms of Canton of Freiburg (Fribourg)</desc>
<path d="m1.5 1.5v458.87c0 166.31 134.31 301.13 300 301.13 165.69 0 300-134.82 300-301.13v-458.87h-600z" fill="#fff"/>
<g stroke="#000">
<path d="m280.12 498.34c-93.383 1.0717-182.02 46.707-233.22 121.38 47.704 76.636 128.78 130.16 222.81 140.09l66.344-0.3125c83.301-9.5902 156.21-53.419 204.44-117.12-70.113-102.14-167.59-145.1-260.38-144.03z" fill="#5ab532" fill-rule="evenodd" stroke-width="3.8462px"/>
<g transform="matrix(4.0229 0 0 4.0229 -2464.8 -2278.8)">
<path transform="matrix(1.0938 0 0 1.1844 -62.112 -109.56)" d="m700.8 596.29a18.983 17.531 0 1 1-37.966 0 18.983 17.531 0 1 1 37.966 0z" fill="#fcef3c"/>
<path d="m681.79 613.96c4.2633-0.41614 9.3078-2.7564 10.207-7.9626l-0.10374-6.3112c1.6473-3.6402 2.5857-7.3415 1.585-11.104-2.2999-8.6469-15.39-7.5064-17.83-1.4439-1.2863 3.1958-0.4492 4.923-0.44392 7.7524-0.32881 2.2608-2.4078 2.921-2.6543 4.484-0.11785 1.5857 0.59607 1.5437 1.8244 1.5561l2.6888 0.06636-2.6888-0.06636c-0.61636 1.9005-0.59056 1.8962-0.37757 4.0664h4-4c-0.98039 4.1935 4.1428 2.7107 7 3l5-2-5 2c-3.3017 2.3423-1.268 4.1248 0.79252 5.9626z" fill="#f7d5bf" fill-rule="evenodd" stroke-width="1px"/>
<path d="m691.68 730.16 7.2633 3.6842-7.2633-3.6842c-10.784-0.09976 1.745 11.33 8.3158 4.8421 3.2109-3.1702 3.8368-7.1724 5-10.948l-9.2894-0.21042c-0.55386 2.0446-0.78679 5.3373-4.0264 6.3158z" fill="#f7d5bf" fill-rule="evenodd" stroke-width="1px"/>
<path d="m676 726c-0.93241 3.1953 4.2145 9.3524-4 9-6.7729-0.94549-13.925 2.6631-17.553 0.47375-3.5092-2.2803-1.0589-8.2329 4.5527-3.4738 4.4-1.443 6.3291-4.7734 7-6.9475l10 0.9475z" fill="#f7d5bf" fill-rule="evenodd" stroke-width="1px"/>
<path d="m711.91 719.91c-7.1226-20.216-6.4822-41.586-6.542-62.96 3.7695-6.7853-1.839-8.3607-6.6655-10.37l-3.9798-1.6546c-2.8544-11.708 0.92674-24.037 6.2783-33.776-5.2667 9.7391-9.0983 22.071-6.2783 33.776l3.9798 1.6546c0.8688-3.4728 0.0041-7.1135 0.80099-10.558-5.7957-8.558-1.6013-16.759 1.482-25-3.0826 8.2332-7.259 16.492-1.482 25 7.8254 5.4158 15.164 4.5724 18.888 20.805l-3.8885 31.048 3.8885-31.048c-2.1264 1.0221-2.8633 1.97-7.1595 2.7888 1.0854 8.8522 0.87782 28.169 3.271 28.259 7.458-9.3039 10.012-24.057 11.606-39.876l-7.717 8.8285 7.717-8.8285c0.87865-19.872-12.755-29.378-25.124-36.976l-8.5815-4.753c-3.1203 2.6846-5.8705 5.6654-10.554 7.0995l-0.74101 6.6655c-0.80074 5.563 13.496-4.0302 19.876-9.012-6.3785 5.0575-20.661 14.575-19.876 9.012l0.74101-6.6655c-1.9887-0.38083-3.0712-2.6084-2.53-4.506-4.5556 0.91839-7.4536 4.4824-8.211 8.211 2.195 2.0697 4.4666 6.04 6.3585 2.6535l4.3825-6.3585-4.3825 6.3585c-1.9759 3.3294-4.09-0.57249-6.3585-2.6535l1.4756-3.9973c-7.0659 1.0828-17.528 14.516-22.711 22.886 5.1188 2.3277 6.9358 6.8566 8.1475 11.789-1.2624-4.8883-3.0182-9.4513-8.1475-11.789l-2.036 9.012-0.24781 6.5412c1.756 2.6359 3.657 4.063 5.6183 4.5068-2.0094-0.4095-3.883-1.9046-5.6183-4.5068l-0.78408 19.798 0.78408-19.798 0.24781-6.5412c-1.0433-5.3531-2.4555-9.9273-7.0001-7.8887 1.6898 10.839 1.2841 42.988 5.9682 34.228l23.191-33.315c-0.09486-6.9748-0.88622-13.95 1.1115-20.924-1.8962 6.9748-1.2093 13.95-1.1115 20.924l-0.15417 10h7.2098-7.2098c10.3 10.453 15.427 22.672 35.525 8.952-20.18 13.773-25.312 1.5162-35.525-8.952 7.16 13.469 13.464 41.723 35.525 8.952-22.068 32.715-28.331 4.5288-35.525-8.952-0.8792 8.6539-2.4126 17.178 0.52741 25.471 5.868 15.344 24.397 50.583 28.019 40.52 2.8983-8.0538 7.2249-29.178 7.2249-29.178s-4.3122 21.187-7.2249 29.178c-3.6694 10.067-22.219-25.22-28.019-40.52l-0.78436 21.482 0.78436-21.482c-2.9523-8.3204-1.3992-16.844-0.56019-25.221-2.1892 4.1454-4.636 8.0332-5.5174 13.486-1.6452 19.94-2.4567 39.789 1.7322 58.18-4.2694-18.386-3.4179-38.17-1.7322-58.18-3.4661 16.917-11.664 46.681-10.323 50.75 2.9108 5.3318 7.3624 5.6284 12.056 7.4305-4.6891-1.8641-9.1132-2.1558-12.056-7.4305 1.0141 4.6644 6.6836 17.146 21.336 13.356l1.7473-23.628s-1.4495 17.391-1.7473 23.628c25.222-3.48 40.302 4.5656 36.604-5.9291z" fill="#69482e" fill-rule="evenodd" stroke-width="1px"/>
<path d="m679 653c-2.4989-1.8776-2.4091-5.3409 0-8 1.9084-2.1065 6.5003-0.9178 9.5003 2.2962l-0.50026 8.7038c-1.8997-1.7022-3.8728-2.8904-6-3l2.4278-4.599-2.4278 4.599h-3z" fill="#fff" fill-rule="evenodd" stroke-width="1px"/>
<path d="m696.17 654.6c-0.65654-2.533 1.3836-6.2477-0.77573-8.5369-2.0271-2.1491-4.2464-1.5688-4.2464-1.5688l0.19323 8.4212-0.19323-8.4212c-4.1476-2.5908-2.8894 7.0878-3.7212 10.507 3.057 5.6904 5.6863 2.0051 8.7433-0.40104z" fill="#fff" fill-rule="evenodd" stroke-width="1px"/>
<g fill="#5ab532" fill-rule="evenodd" stroke-width="1px">
<path d="m711.69 643.86c3.5154-7.9663 13.123-10.863 17.383-11.069-2.7952 5.6001-9.5541 12.649-17.383 11.069z"/>
<path d="m714.53 637.04c1.1284-7.9368 11.757-10.842 18.203-13.49-2.2813 6.0112-10.374 13.323-18.203 13.49z"/>
<path d="m715.68 630.11c3.88-10.752 13.201-11.214 19.131-13.308-2.7952 5.0789-11.301 12.629-19.131 13.308z"/>
<path d="m718.5 622.29c3.5154-7.9663 15.075-12.486 18.925-13.411-2.4518 4.9896-10.295 11.673-18.925 13.411z"/>
<path d="m721.69 615.44c3.5154-7.9663 15.294-13.115 19.144-14.555-2.7952 5.6001-10.389 11.805-19.144 14.555z"/>
<path d="m725.6 608.54c4.7618-10.971 14.134-12.912 17.897-14.041-2.6349 4.8009-9.3581 9.7931-17.897 14.041z"/>
<path d="m729.85 599.97c6.7017-10.022 9.2257-8.6017 15.568-10.592-3.1347 5.2388-8.6087 8.0752-15.568 10.592z"/>
<path d="m735.93 591.27c2.3849-3.7523 6.6037-6.1612 10.864-6.3674-3.1036 5.0862-7.1464 6.2005-10.864 6.3674z"/>
<path d="m740.51 585.94c1.0487-2.005 3.4743-4.6195 7.2211-4.5173-2.6924 3.6473-5.6616 4.7616-7.2211 4.5173z"/>
<path d="m744.01 581.56c0.43202-1.6966 2.4334-2.5158 4.7412-2.9274-0.73961 2.3111-3.1817 3.1717-4.7412 2.9274z"/>
<path d="m710.84 643.73c4.1697-7.6442 0.25577-12.146-0.84302-16.779-2.7337 5.6304-5.184 11.537 0.84302 16.779z"/>
<path d="m713.98 634.87c2.1141-7.5414 0.99371-12.46-0.91338-15.789-3.3729 5.4739-2.3889 9.7055 0.91338 15.789z"/>
<path d="m716.49 627.71c3.2071-7.6643 2.2408-12.58-0.19413-16.083-2.3206 5.3126-1.6778 9.669 0.19413 16.083z"/>
<path d="m719.74 618.14c3.0391-7.5414 1.3184-11.134-0.29565-14.749-2.4592 4.986-2.364 9.0282 0.29565 14.749z"/>
<path d="m722.38 613.46c4.1697-7.6442 3.2413-15.884 2.0345-19.813-2.7337 5.6304-4.3746 11.319-2.0345 19.813z"/>
<path d="m726.82 604.93c4.5321-8.3128 3.4292-13.691 2.1637-17.59-2.3563 5.2508-4.7913 9.3465-2.1637 17.59z"/>
<path d="m731.17 597.95c2.9308-5.2561 3.3372-9.0773 0.90226-12.58-2.6523 5.6055-2.5408 5.6766-0.90226 12.58z"/>
<path d="m734.87 591.68c2.3417-3.2533 2.9723-6.1134 1.8735-9.7186-2.6938 2.1195-3.0981 4.3939-1.8735 9.7186z"/>
<path d="m738.44 586.77c1.7717-1.8483 3.7737-3.5304 1.4078-7.0542-2.3792 2.4052-2.5524 5.9672-1.4078 7.0542z"/>
<path d="m741.8 582.43c1.3895-1.2743 1.846-2.6404 0.76491-4.7206-1.3806 1.9956-1.9096 3.6335-0.76491 4.7206z"/>
<path d="m743.89 580.5c-0.06508-2.0063 0.22539-2.6392 1.8592-3.7074 0.60026 2.2155-0.49933 2.9057-1.8592 3.7074z"/>
<path d="m745.97 579.08c0.57656-1.9228 1.0533-2.4304 2.942-2.9234-0.13573 2.2914-1.3978 2.5959-2.942 2.9234z"/>
<path d="m701.44 680.26 6.9166-3.289c1.552-36.896 12.866-72.271 38.906-98.972-22.5 21.09-38.127 58.836-45.822 102.26z"/>
</g>
<path d="m718.74 655.21-2.9074-6.7794c-2.805-0.65507-6.7838-2.8096-8.4345-0.19419l5.9194 3.0301-5.9194-3.0301c-1.248 0.32135-2.3893 0.78502-2.3948 2.7631l6.3657 2.8946-6.3657-2.8946c-0.29407 1.0544-1.0814 2.0384 0 3.2894l4.9726 1.8421-4.9726-1.8421c-1.1509 2.5325 1.1531 4.1861 2.99 4.8166 4.4375 1.5232 10.184-0.97635 10.747-3.8956z" fill="#f7d5bf" fill-rule="evenodd" stroke-width="1px"/>
<path d="m645.25 637.25c7.4009-1.099 20.281 2.0282 19.377-4.1135l-0.4986-26.759-19.377 3.9888 0.2493 7.6316-0.2493-7.6316-5.8865-0.62325 0.2493 10.997-0.2493-10.997-13.241-13.241 3.6288 30.374 10.125 10.249-0.38376-11.542 0.38376 11.542 5.8726 0.12465z" fill="#e20909" fill-rule="evenodd" stroke-width="1px"/>
<path d="m647.54 647.57c0.23237-3.3818 1.0451-6.9117 2.1911-10.442l-1.7275-7.1322c-1.3333 0.85232-2.6667 1.0355-4 1.3469 1.3333-0.2899 2.6667-0.50624 4-1.3469v-1.6242l4.6816-6.1962c0.86753-0.93833-0.64934-2.6168-1.0286-2.2082l-4.2776 4.7918 4.2776-4.7918c0.87098-1.0461-0.56847-2.7025-1.098-2.0694l-4.5551 5.3755 4.5551-5.3755c1.1191-1.4298-0.65636-2.1682-1.4857-1.4163l-4.4654 5.47 4.4654-5.47c0.57368-0.73904-0.75014-1.7199-1.5837-0.93061-2.5158 2.2922-6.4745 8.4548-7.4857 6.4449-1.983-3.9414-2.7324-3.7504-3.7166-2.9953-1.2206 0.93662 0.77041 4.8061 2.8962 7.5218 0.98224 1.2548 1.217 4.4025 2.8204 5.4735l5.5365 15.574z" fill="#f7d5bf" fill-rule="evenodd" stroke-width="1px"/>
<path d="m703.32 657.39s-0.93982-1.0642-3.1505-2.6832c-2.1939-1.6067-10.599 1.9817-10 4.4866l-0.17113 2.7753c5.0557 0.02938 10.249-2.051 13.322-4.5787z" fill="#fff" fill-rule="evenodd" stroke-width="1px"/>
<path d="m690 661.97 0.17113-4.5722c-2.1708-0.14341-4.8861-1.2358-6.4546 0 1.5826-1.2801 4.3155-0.14325 6.4546 0-4.2584-2.4659-6.9767-8.8133-13.289-2.1764 3.3946 3.8386 5.8732 6.3886 13.118 6.7485z" fill="#fff" fill-rule="evenodd" stroke-width="1px"/>
<path d="m642.25 609.75 18.748-5.7479 2.374 2.4986-2.374-2.4986-2.2493-2.626-16.499 8.374 16.499-8.374-2.4986-2.7507-14 11.125-6.7535-16.873-3.2493 0.87255 10.003 16-10.003-16-3.1246 0.87535 13.127 15.125-13.127-15.125-3.0028 1.1274 13.504 13.997h2.626z" fill="none" stroke-width="1px"/>
<path d="m696.85 595.29-3.4065-6.0168c-5.6548 0.16694-11.596-0.38161-17.987-2.0565l-2.5793 2.7799 2 0.33981 1.506-2.1931 1.8802 0.36677-1.5329 1.973 2.1198 0.36677 1.0464-2.1198 1.5599 0.19311-1.0194 2.1931 1.8997 0.36677 0.55988-2.4596 1.592 0.12082-0.565 2.3851 1.5599 0.32037 0.66019-2.4132 1.2201 0.14671-0.29342 2.3129 1.7799 0.44013 0.14671-2.6332 2 0.29342-0.1467 2.8533 2.027 0.8069-0.55697-3.3118 1.1438 0.09168 0.97304 3.6332 2.4132 1.2201z" fill-rule="evenodd" stroke-width="1px"/>
<path d="m687 601c3.6669-3.6012 3.6072-7.8014-0.58683-5.3398" fill="none" stroke-width="1px"/>
<path d="m678 594.44c1.3688 0.03935 3.8596-0.47019 4 1.5599" fill="none" stroke-width="1px"/>
<path d="m682 603c-0.18617-1.9112-0.51689-3.8224 1-5.7335" fill="none" stroke-width=".5"/>
<path d="m678.29 600.19c-0.1983 2.0777 1.3814 2.0112 1.1198 4.3937" fill="none" stroke-width=".5"/>
<path d="m679.92 597.18a0.77022 0.77022 0 1 1-1.5404 0 0.77022 0.77022 0 1 1 1.5404 0z"/>
</g>
<path d="m250 399c23.276 47.296 50.386 52.426 80 30" fill="none" stroke-width="1px"/>
</g>
<g>
<path d="m1.5 1.5v458.87c0 166.31 134.31 301.13 300 301.13 165.69 0 300-134.82 300-301.13v-458.87h-600z" fill="url(#a)"/>
<path d="m1.5 1.5v458.87c0 166.31 134.31 301.13 300 301.13 165.69 0 300-134.82 300-301.13v-458.87h-600z" fill="none" stroke="#000" stroke-width="3"/>
</g>
</svg>
