<?xml version="1.0" encoding="UTF-8"?>
<svg version="1.0" viewBox="0 0 232.02 271.77" xmlns="http://www.w3.org/2000/svg" xmlns:xlink="http://www.w3.org/1999/xlink">
<g transform="translate(-1.9315 -798.31)">
<path d="m2.9315 799.31 4.1821 175.66c2.9872 125.47 218.66 125.47 221.65 0l4.1821-175.66h-230.02z" fill="#fce941" fill-rule="evenodd" stroke="#000" stroke-width="2"/>
<path transform="translate(0 804.33)" d="m117.97-5c-10.98 68.317-23.62 158.57-106.47 202.75 28.373 89.336 184.53 89.324 212.88-0.03125-82.812-44.183-95.428-134.41-106.41-202.72z" fill-rule="evenodd"/>
<path id="a" d="m45.093 818.21v16.562h-17.625v10.219h17.625v21.125c-15.05 2.4577-26.562 15.509-26.562 31.25 0 17.491 14.197 31.688 31.688 31.688s31.688-14.197 31.688-31.688c0-15.741-11.512-28.792-26.562-31.25v-21.125h17.625v-10.219h-17.625v-16.562h-10.25zm5.125 57.688c11.845 0 21.469 9.6234 21.469 21.469s-9.6233 21.469-21.469 21.469-21.438-9.6234-21.438-21.469 9.5921-21.469 21.438-21.469z" color="#000000" fill-rule="evenodd"/>
<use transform="translate(135.44)" width="248.03149" height="248.03149" xlink:href="#a"/>
<path d="m112.81 931.32v16.562h-17.625v10.219h17.625v21.125c-15.05 2.4577-26.563 15.509-26.563 31.25 0 17.491 14.197 31.688 31.688 31.688s31.688-14.197 31.688-31.688c0-15.741-11.512-28.792-26.562-31.25v-21.125h17.625v-10.219h-17.625v-16.562h-10.25zm5.125 57.688c11.845 0 21.469 9.6234 21.469 21.469 0 11.845-9.6234 21.469-21.469 21.469s-21.438-9.6234-21.438-21.469c0-11.845 9.5921-21.469 21.438-21.469z" color="#000000" fill="#fce941" fill-rule="evenodd"/>
</g>
</svg>
