<?xml version="1.0" encoding="UTF-8"?>
<svg version="1.0" viewBox="0 0 603 763" xmlns="http://www.w3.org/2000/svg" xmlns:cc="http://creativecommons.org/ns#" xmlns:dc="http://purl.org/dc/elements/1.1/" xmlns:rdf="http://www.w3.org/1999/02/22-rdf-syntax-ns#" xmlns:xlink="http://www.w3.org/1999/xlink">
<metadata>
<rdf:RDF>
<cc:Work rdf:about="">
<dc:format>image/svg+xml</dc:format>
<dc:type rdf:resource="http://purl.org/dc/dcmitype/StillImage"/>
<dc:date>01-FEB-2010</dc:date>
<dc:creator>
<cc:Agent>
<dc:title>Juan G (aliman5040)</dc:title>
</cc:Agent>
</dc:creator>
<cc:license rdf:resource="http://creativecommons.org/licenses/by-sa/3.0/"/>
<dc:coverage/>
<dc:description/>
<dc:subject>
<rdf:Bag/>
</dc:subject>
<dc:language/>
<dc:title>Wappen Gemeinde Kaufdorf</dc:title>
</cc:Work>
<cc:License rdf:about="http://creativecommons.org/licenses/by-sa/3.0/">
<cc:permits rdf:resource="http://creativecommons.org/ns#Reproduction"/>
<cc:permits rdf:resource="http://creativecommons.org/ns#Distribution"/>
<cc:requires rdf:resource="http://creativecommons.org/ns#Notice"/>
<cc:requires rdf:resource="http://creativecommons.org/ns#Attribution"/>
<cc:permits rdf:resource="http://creativecommons.org/ns#DerivativeWorks"/>
<cc:requires rdf:resource="http://creativecommons.org/ns#ShareAlike"/>
</cc:License>
</rdf:RDF>
</metadata>
<defs>
<radialGradient id="a" cx="858.04" cy="579.93" r="300" gradientTransform="matrix(1.215 1.5316e-24 1.4647e-23 1.2667 -839.19 -490.49)" gradientUnits="userSpaceOnUse">
<stop stop-color="#fff" stop-opacity=".31373" offset="0"/>
<stop stop-color="#fff" stop-opacity=".25098" offset=".19"/>
<stop stop-color="#6b6b6b" stop-opacity=".12549" offset=".6"/>
<stop stop-opacity=".12549" offset="1"/>
</radialGradient>
</defs>
<desc>Coat of Arms of Canton of Freiburg (Fribourg)</desc>
<g>
<path d="m1.5 1.5v458.87c0 166.31 134.31 301.13 300 301.13 165.69 0 300-134.82 300-301.13v-458.87h-600z" fill="#e20909"/>
<path d="m1.5 383v77.368c0 166.31 134.31 301.13 300 301.13 165.69 0 300-134.82 300-301.13v-77.368h-600z" fill="#fff" stroke="#000" stroke-width="3"/>
<g transform="matrix(4.1011 0 0 4.1011 -2552.5 -2331.6)" fill="#5ab532" stroke="#000">
<path d="m697.77 720.96c16.463 5.1836 32.611 17.896 47.229 2.0429 7.3741-7.9972 10-15 5-17.4 2.3994-7.6-8.4523-10.661-15-12.6-15.59-4.6173-25.303 15.781-37.6 25 12.6-13.044 23.003-30.363 14.643-40-4.3743-5.0424-9.8625-13.226-16.021-7.7714-8.277-5.7631-12.359 2.4097-16.021 7.7714-9.5666 14.006 5 27.855 15 40-12.981-10-23.416-33.781-45-23.555-4.9637 2.3515-10.118 2.0554-8.1615 10.657-6.8944 4.3705 1.7468 12.122 6.4445 17.899 13.871 17.058 30.841 3.8012 46.717-2.0429h2.7714z"/>
<path d="m705 748c-3.0599-8.3333-5.6372-16.667-6-25 14.977-9.0365 33.85-11.95 51-17.572-17 4.5267-34 9.9724-51 12.572-2.5687-16.102-3.1165-31.898-3-48-0.41623 16.102 0.44804 31.898-2 48-18-2.494-34.162-7.6129-52.162-12.768 18.288 5.1335 34.569 10.198 52.162 17.768 0.46754 8.657-3.2145 16.826-6.8513 25h17.851z"/>
</g>
<g transform="matrix(4.1011 0 0 4.1011 -2548.6 -2350.3)">
<path d="m742.37 633c6.1777-6.9838-2.3736-15-8.9494-8.5555-5.2586-6.4445-13.424 0.05375-10.263 5.7879-5.7962 1.9026-5.1814 9.5768-0.16959 10.404-2.9919 4.7374 4.6345 12.364 9.1001 7.3638 2.908 6.7072 10.446 7.0614 12.908 0 6.7964 2.0654 13.535-2.1454 10-10 7.4497 2.0566 11.707-10 5-12.101 6.8384-0.42461 6.9598-12.899 0-14.343 6.4445-3.5555 2.8989-13.555-5-12.242 5-8.1725-3.4357-14.08-8.4242-10 0.44631-6.3132-10.184-9.4033-13.546-4.0433-3.0302-5.7773-13.03-5.2975-14.737 0.95111-8.2928-4.6993-14.94 1.779-13.293 8.4862l5 3.2928c35-21.824 53.249 16.634 38.497 36.576 14.685-19.994-3.4966-58.405-38.497-36.576l7.6062 5c28.591-13.177 39.474 15.67 30.89 31.576-4.5462 8.4242-9.9717 7.0277-13.497 7.0093-10.651-0.05566-2.957-18.585 7.3736-8.5852z" fill="#fff" stroke="#000"/>
<path d="m647.55 633c-6.1777-6.9838 2.3736-15 8.9494-8.5555 5.2586-6.4445 13.424 0.05375 10.263 5.7879 5.7962 1.9026 5.1814 9.5768 0.16959 10.404 2.9919 4.7374-4.6345 12.364-9.1001 7.3638-2.908 6.7072-10.446 7.0614-12.908 0-6.7964 2.0654-13.535-2.1454-10-10-7.4497 2.0566-11.707-10-5-12.101-6.8384-0.42461-6.9598-12.899 0-14.343-6.4445-3.5555-2.8989-13.555 5-12.242-5-8.1725 3.4357-14.08 8.4242-10-0.44631-6.3132 10.184-9.4033 13.546-4.0433 3.0302-5.7773 13.03-5.2975 14.737 0.95111 8.2928-4.6993 14.94 1.779 13.293 8.4862l-5 3.2928c-35-21.824-53.249 16.634-38.497 36.576-14.685-19.994 3.4966-58.405 38.497-36.576l-7.6062 5c-28.591-13.177-40.372 16.188-30.89 31.576 4.5744 7.4242 9.967 7.0277 13.497 7.0093 10.651-0.05559 2.957-18.585-7.3736-8.5852z" fill="#fff" stroke="#000"/>
<path d="m717.96 605.7 22.043 0.18572c-5 7.1156-9.2984 15.343-22.957 7.1156l0.91426-7.3014z" fill="#fff" stroke="#000"/>
<path d="m673.09 605.7-22.043 0.18572c5 7.1156 9.2984 15.343 22.957 7.1156l-0.91426-7.3014z" fill="#fff" stroke="#000"/>
<path d="m712.59 625.77c7.4082-0.37199 7.4082-7.7714 5.2-10.729 5.0402-7.0429 2.2081-17.043-7.7919-17.043 0-5-7.9667-7.02-10-3.1428-2.219-4.6548-7.781-4.0384-10 0-2.639-3.8679-10-1.8572-10 3.1428-8.9153-1.1573-12.074 10-5 17.043-2.6998 2.9571-2.3777 9.8143 2.3058 10.729-5.1185 8.3683 2.1613 12.574 7.6942 17.229-0.62563 5.353-3.6435 11.429 2.9571 13 0.65088 4.3893 14.348 3.6716 14.235 0 5.4378-2.0825 4.1414-7.5321 2.8083-13 10-5 12.957-15 7.5918-17.229z" fill="#fff" stroke="#000"/>
<path d="m685 600.97c1.802 2.1056 6.2038 4.4031 10 0.0843 2.7439 2.8202 6.9115 3.8081 10 0" fill="none" stroke="#000"/>
<path d="m672 602.46c0 4 5 5.5442 9 4.5442 0 4 4 6 8 5 2 8 10 8 12 1 5.0594 0.01818 8-2 8-6 3 1 10 0 10-4" fill="none" stroke="#000"/>
<path d="m712 613c-7 4-12 7-11 15 0.51067 4.0854 2 7 0 11-0.81859 1.6372-1.0859 4.0453 0 6 5 9-15 9-10 0 1-2 0.83184-4.3363 0-6-2-4-0.47063-7.235 0-11 1-8-6.5988-11.147-14-15" fill="none" stroke="#000"/>
<path d="m702 622c6 5 12-2 7-7-3.5278 1.7904-6.1877 3.9753-7 7z" stroke="#000"/>
<path d="m689.5 622c-6.4977 5-12.498-2-8.4977-6.5396 3.5278 2.0512 6.4977 3.5396 8.4977 6.5396z" stroke="#000"/>
<path d="m684 621a1 1 0 1 1-2 0 1 1 0 1 1 2 0z" fill="#fff" stroke="#fff"/>
<path transform="translate(22)" d="m684 621a1 1 0 1 1-2 0 1 1 0 1 1 2 0z" fill="#fff" stroke="#fff"/>
<path d="m688 656c4 1 10 1 14.46 0" fill="none" stroke="#000"/>
</g>
<path d="m1.5 1.5v458.87c0 166.31 134.31 301.13 300 301.13 165.69 0 300-134.82 300-301.13v-458.87h-600z" fill="url(#a)"/>
<path d="m1.5 1.5v458.87c0 166.31 134.31 301.13 300 301.13 165.69 0 300-134.82 300-301.13v-458.87h-600z" fill="none" stroke="#000" stroke-width="3"/>
</g>
</svg>
