<?xml version="1.0" encoding="UTF-8" standalone="no"?>
<svg
   xmlns:dc="http://purl.org/dc/elements/1.1/"
   xmlns:cc="http://creativecommons.org/ns#"
   xmlns:rdf="http://www.w3.org/1999/02/22-rdf-syntax-ns#"
   xmlns:svg="http://www.w3.org/2000/svg"
   xmlns="http://www.w3.org/2000/svg"
   xmlns:xlink="http://www.w3.org/1999/xlink"
   xmlns:sodipodi="http://sodipodi.sourceforge.net/DTD/sodipodi-0.dtd"
   xmlns:inkscape="http://www.inkscape.org/namespaces/inkscape"
   height="763"
   width="603"
   version="1.0"
   id="svg20"
   sodipodi:version="0.32"
   inkscape:version="0.46"
   sodipodi:docname="Kaufdorf-coat of arms.svg"
   sodipodi:docbase="C:\Users\Camilo\Documents\Escudos de Suiza"
   inkscape:output_extension="org.inkscape.output.svg.inkscape">
  <metadata
     id="metadata31">
    <rdf:RDF>
      <cc:Work
         rdf:about="">
        <dc:format>image/svg+xml</dc:format>
        <dc:type
           rdf:resource="http://purl.org/dc/dcmitype/StillImage" />
        <dc:date>01-FEB-2010</dc:date>
        <dc:creator>
          <cc:Agent>
            <dc:title>Juan G (aliman5040)</dc:title>
          </cc:Agent>
        </dc:creator>
        <cc:license
           rdf:resource="http://creativecommons.org/licenses/by-sa/3.0/" />
        <dc:coverage />
        <dc:description />
        <dc:subject>
          <rdf:Bag />
        </dc:subject>
        <dc:language />
        <dc:title>Wappen Gemeinde Kaufdorf</dc:title>
      </cc:Work>
      <cc:License
         rdf:about="http://creativecommons.org/licenses/by-sa/3.0/">
        <cc:permits
           rdf:resource="http://creativecommons.org/ns#Reproduction" />
        <cc:permits
           rdf:resource="http://creativecommons.org/ns#Distribution" />
        <cc:requires
           rdf:resource="http://creativecommons.org/ns#Notice" />
        <cc:requires
           rdf:resource="http://creativecommons.org/ns#Attribution" />
        <cc:permits
           rdf:resource="http://creativecommons.org/ns#DerivativeWorks" />
        <cc:requires
           rdf:resource="http://creativecommons.org/ns#ShareAlike" />
      </cc:License>
    </rdf:RDF>
  </metadata>
  <defs
     id="defs29">
    <inkscape:perspective
       sodipodi:type="inkscape:persp3d"
       inkscape:vp_x="0 : 381.5 : 1"
       inkscape:vp_y="0 : 1000 : 0"
       inkscape:vp_z="603 : 381.5 : 1"
       inkscape:persp3d-origin="301.5 : 254.33333 : 1"
       id="perspective5149" />
    <linearGradient
       id="linearGradient2893">
      <stop
         style="stop-color:#ffffff;stop-opacity:0.3137255;"
         offset="0"
         id="stop2895" />
      <stop
         id="stop2897"
         offset="0.19"
         style="stop-color:#ffffff;stop-opacity:0.25098041;" />
      <stop
         style="stop-color:#6b6b6b;stop-opacity:0.1254902;"
         offset="0.60000002"
         id="stop2901" />
      <stop
         style="stop-color:#000000;stop-opacity:0.1254902;"
         offset="1"
         id="stop2899" />
    </linearGradient>
    <radialGradient
       inkscape:collect="always"
       xlink:href="#linearGradient2893"
       id="radialGradient3236"
       gradientUnits="userSpaceOnUse"
       gradientTransform="matrix(1.215027,1.531577e-24,1.464684e-23,1.266667,-839.1924,-490.4894)"
       cx="858.04236"
       cy="579.93323"
       fx="858.04236"
       fy="579.93323"
       r="300" />
    <inkscape:perspective
       id="perspective5197"
       inkscape:persp3d-origin="372.04724 : 350.78739 : 1"
       inkscape:vp_z="744.09448 : 526.18109 : 1"
       inkscape:vp_y="0 : 1000 : 0"
       inkscape:vp_x="0 : 526.18109 : 1"
       sodipodi:type="inkscape:persp3d" />
    <inkscape:perspective
       id="perspective8046"
       inkscape:persp3d-origin="372.04724 : 350.78739 : 1"
       inkscape:vp_z="744.09448 : 526.18109 : 1"
       inkscape:vp_y="0 : 1000 : 0"
       inkscape:vp_x="0 : 526.18109 : 1"
       sodipodi:type="inkscape:persp3d" />
    <inkscape:perspective
       id="perspective9383"
       inkscape:persp3d-origin="372.04724 : 350.78739 : 1"
       inkscape:vp_z="744.09448 : 526.18109 : 1"
       inkscape:vp_y="0 : 1000 : 0"
       inkscape:vp_x="0 : 526.18109 : 1"
       sodipodi:type="inkscape:persp3d" />
    <inkscape:perspective
       id="perspective9513"
       inkscape:persp3d-origin="372.04724 : 350.78739 : 1"
       inkscape:vp_z="744.09448 : 526.18109 : 1"
       inkscape:vp_y="0 : 1000 : 0"
       inkscape:vp_x="0 : 526.18109 : 1"
       sodipodi:type="inkscape:persp3d" />
    <inkscape:perspective
       id="perspective9597"
       inkscape:persp3d-origin="372.04724 : 350.78739 : 1"
       inkscape:vp_z="744.09448 : 526.18109 : 1"
       inkscape:vp_y="0 : 1000 : 0"
       inkscape:vp_x="0 : 526.18109 : 1"
       sodipodi:type="inkscape:persp3d" />
    <inkscape:perspective
       id="perspective9760"
       inkscape:persp3d-origin="372.04724 : 350.78739 : 1"
       inkscape:vp_z="744.09448 : 526.18109 : 1"
       inkscape:vp_y="0 : 1000 : 0"
       inkscape:vp_x="0 : 526.18109 : 1"
       sodipodi:type="inkscape:persp3d" />
    <inkscape:perspective
       id="perspective9857"
       inkscape:persp3d-origin="372.04724 : 350.78739 : 1"
       inkscape:vp_z="744.09448 : 526.18109 : 1"
       inkscape:vp_y="0 : 1000 : 0"
       inkscape:vp_x="0 : 526.18109 : 1"
       sodipodi:type="inkscape:persp3d" />
    <inkscape:perspective
       id="perspective5219"
       inkscape:persp3d-origin="372.04724 : 350.78739 : 1"
       inkscape:vp_z="744.09448 : 526.18109 : 1"
       inkscape:vp_y="0 : 1000 : 0"
       inkscape:vp_x="0 : 526.18109 : 1"
       sodipodi:type="inkscape:persp3d" />
    <inkscape:perspective
       id="perspective6677"
       inkscape:persp3d-origin="372.04724 : 350.78739 : 1"
       inkscape:vp_z="744.09448 : 526.18109 : 1"
       inkscape:vp_y="0 : 1000 : 0"
       inkscape:vp_x="0 : 526.18109 : 1"
       sodipodi:type="inkscape:persp3d" />
    <inkscape:perspective
       id="perspective4201"
       inkscape:persp3d-origin="372.04724 : 350.78739 : 1"
       inkscape:vp_z="744.09448 : 526.18109 : 1"
       inkscape:vp_y="0 : 1000 : 0"
       inkscape:vp_x="0 : 526.18109 : 1"
       sodipodi:type="inkscape:persp3d" />
    <inkscape:perspective
       id="perspective11201"
       inkscape:persp3d-origin="372.04724 : 350.78739 : 1"
       inkscape:vp_z="744.09448 : 526.18109 : 1"
       inkscape:vp_y="0 : 1000 : 0"
       inkscape:vp_x="0 : 526.18109 : 1"
       sodipodi:type="inkscape:persp3d" />
    <inkscape:perspective
       id="perspective4882"
       inkscape:persp3d-origin="372.04724 : 350.78739 : 1"
       inkscape:vp_z="744.09448 : 526.18109 : 1"
       inkscape:vp_y="0 : 1000 : 0"
       inkscape:vp_x="0 : 526.18109 : 1"
       sodipodi:type="inkscape:persp3d" />
  </defs>
  <sodipodi:namedview
     inkscape:window-height="720"
     inkscape:window-width="1280"
     inkscape:pageshadow="2"
     inkscape:pageopacity="0.0"
     guidetolerance="10.0"
     gridtolerance="10.0"
     objecttolerance="10.0"
     borderopacity="1.0"
     bordercolor="#666666"
     pagecolor="#ffffff"
     id="base"
     inkscape:zoom="0.52791056"
     inkscape:cx="528.63055"
     inkscape:cy="384.06199"
     inkscape:window-x="-8"
     inkscape:window-y="-8"
     inkscape:current-layer="layer2"
     showgrid="true"
     showguides="true"
     inkscape:guide-bbox="true">
    <inkscape:grid
       type="xygrid"
       id="grid5151"
       visible="true"
       enabled="true" />
  </sodipodi:namedview>
  <desc
     id="desc22">Coat of Arms of Canton of Freiburg (Fribourg)</desc>
  <g
     inkscape:groupmode="layer"
     id="layer1"
     inkscape:label="Fond écu"
     style="display:inline">
    <path
       id="path1899"
       d="M 1.5,1.49998 L 1.5,460.3679 C 1.5,626.6785 135.81456,761.5 301.49999,761.5 C 467.18543,761.5 601.5,626.6785 601.5,460.3679 L 601.5,1.49998 L 1.5,1.49998 z"
       style="fill:#e20909;fill-opacity:1" />
    <path
       style="fill:#ffffff;fill-opacity:1;stroke:#000000;stroke-opacity:1;stroke-width:3;stroke-miterlimit:4;stroke-dasharray:none"
       d="M 1.5,383 L 1.5,460.3679 C 1.5,626.6785 135.81456,761.5 301.49999,761.5 C 467.18543,761.5 601.5,626.6785 601.5,460.3679 L 601.5,383 L 1.5,383 z"
       id="path3253"
       sodipodi:nodetypes="ccsccc" />
  </g>
  <g
     inkscape:groupmode="layer"
     id="layer2"
     inkscape:label="Meubles"
     style="display:inline"
     sodipodi:insensitive="true">
    <path
       d=""
       style="fill:none;fill-opacity:1;fill-rule:evenodd;stroke:#000000;stroke-width:4.27536249;stroke-miterlimit:4;stroke-dasharray:none;stroke-opacity:1"
       id="path5257"
       sodipodi:nodetypes="cc" />
    <g
       id="g3232"
       transform="matrix(4.1010667,0,0,4.1010667,-2552.5118,-2331.6484)">
      <path
         sodipodi:nodetypes="cscscscscscscc"
         id="path2434"
         d="M 697.77141,720.95713 C 714.2347,726.14074 730.38226,738.85287 745,723 C 752.37413,715.00279 755,708 750,705.60002 C 752.3994,698 741.5477,694.93924 735,693 C 719.41018,688.38274 709.69726,708.78144 697.39998,718 C 710,704.95631 720.40278,687.63665 712.04285,678 C 707.66855,672.95765 702.18037,664.77405 696.02142,670.22859 C 687.74441,664.46548 683.66226,672.63829 680,678 C 670.43338,692.00595 685,705.85468 695,718 C 682.0193,708 671.58385,684.21918 650,694.44453 C 645.03634,696.79607 639.88161,696.49991 641.83849,705.10114 C 634.94411,709.47168 643.5853,717.22291 648.28302,723 C 662.15362,740.05754 679.12396,726.80122 695,720.95713 L 697.77141,720.95713 z"
         style="opacity:1;fill:#5ab532;fill-opacity:1;fill-rule:nonzero;stroke:#000000;stroke-width:1;stroke-linecap:butt;stroke-linejoin:miter;stroke-miterlimit:4;stroke-dasharray:none;stroke-opacity:1" />
      <path
         sodipodi:nodetypes="cccccccccc"
         id="path4888"
         d="M 705,748 C 701.94007,739.66667 699.36285,731.33333 699,723 C 713.97687,713.96348 732.85015,711.0499 750,705.42808 C 733,709.95479 716,715.40052 699,718 C 696.43133,701.8979 695.88347,686.1021 696,670 C 695.58377,686.1021 696.44804,701.8979 694,718 C 676,715.50602 659.83849,710.38714 641.83849,705.23245 C 660.12645,710.36598 676.40798,715.43069 694,723 C 694.46754,731.65702 690.78546,739.82584 687.14874,748 L 705,748 z"
         style="opacity:1;fill:#5ab532;fill-opacity:1;fill-rule:nonzero;stroke:#000000;stroke-width:1;stroke-linecap:butt;stroke-linejoin:miter;stroke-miterlimit:4;stroke-dasharray:none;stroke-opacity:1" />
    </g>
    <g
       id="g3238"
       transform="matrix(4.1010667,0,0,4.1010667,-2548.5819,-2350.2716)">
      <path
         sodipodi:nodetypes="ccccccccccccccccccssc"
         id="path3206"
         d="M 742.37358,633 C 748.55124,626.01618 740,618 733.42415,624.44453 C 728.16553,618 720,624.49828 723.16151,630.23246 C 717.3653,632.13501 717.98009,639.80922 722.99192,640.63622 C 720,645.37358 727.62642,653 732.09199,648 C 735,654.70717 742.53832,655.06138 745,648 C 751.79644,650.06541 758.53472,645.8546 755,638 C 762.44968,640.05665 766.70717,628 760,625.89886 C 766.83836,625.47425 766.95985,613 760,611.55547 C 766.44453,608 762.89886,598 755,599.31321 C 760,591.14072 751.56431,585.23314 746.57585,589.31321 C 747.02216,583 736.39187,579.90989 733.03019,585.2699 C 730,579.49256 720,579.97237 718.29283,586.22101 C 710,581.5217 703.35315,588 705,594.70717 L 710,598 C 745,576.17564 763.2493,614.63387 748.49665,634.57585 C 763.18195,614.58169 745,576.17134 710,598 L 717.60616,603 C 746.19691,589.82253 757.08039,618.67017 748.49665,634.57585 C 743.95043,643 738.52494,641.60358 735,641.58516 C 724.34931,641.5295 732.04303,623 742.37358,633 z"
         style="opacity:1;fill:#ffffff;fill-opacity:1;fill-rule:nonzero;stroke:#000000;stroke-width:1;stroke-linecap:butt;stroke-linejoin:miter;stroke-miterlimit:4;stroke-dasharray:none;stroke-opacity:1" />
      <path
         style="opacity:1;fill:#ffffff;fill-opacity:1;fill-rule:nonzero;stroke:#000000;stroke-width:1;stroke-linecap:butt;stroke-linejoin:miter;stroke-miterlimit:4;stroke-dasharray:none;stroke-opacity:1"
         d="M 647.54866,633 C 641.371,626.01618 649.92224,618 656.49809,624.44453 C 661.75671,618 669.92224,624.49828 666.76073,630.23246 C 672.55694,632.13501 671.94215,639.80922 666.93032,640.63622 C 669.92224,645.37358 662.29582,653 657.83025,648 C 654.92224,654.70717 647.38392,655.06138 644.92224,648 C 638.1258,650.06541 631.38752,645.8546 634.92224,638 C 627.47256,640.05665 623.21507,628 629.92224,625.89886 C 623.08388,625.47425 622.96239,613 629.92224,611.55547 C 623.47771,608 627.02338,598 634.92224,599.31321 C 629.92224,591.14072 638.35793,585.23314 643.34639,589.31321 C 642.90008,583 653.53037,579.90989 656.89205,585.2699 C 659.92224,579.49256 669.92224,579.97237 671.62941,586.22101 C 679.92224,581.5217 686.56909,588 684.92224,594.70717 L 679.92224,598 C 644.92224,576.17564 626.67294,614.63387 641.42559,634.57585 C 626.74029,614.58169 644.92224,576.17134 679.92224,598 L 672.31608,603 C 643.72533,589.82253 631.94445,619.18821 641.42559,634.57585 C 646,642 651.39259,641.60358 654.92224,641.58516 C 665.57293,641.52957 657.87921,623 647.54866,633 z"
         id="path3208"
         sodipodi:nodetypes="ccccccccccccccccccssc" />
      <path
         sodipodi:nodetypes="cccc"
         id="path3210"
         d="M 717.95713,605.69865 L 740,605.88437 C 735,613 730.70159,621.22755 717.04287,613 L 717.95713,605.69865 z"
         style="opacity:1;fill:#ffffff;fill-opacity:1;fill-rule:nonzero;stroke:#000000;stroke-width:1;stroke-linecap:butt;stroke-linejoin:miter;stroke-miterlimit:4;stroke-dasharray:none;stroke-opacity:1" />
      <path
         style="opacity:1;fill:#ffffff;fill-opacity:1;fill-rule:nonzero;stroke:#000000;stroke-width:1;stroke-linecap:butt;stroke-linejoin:miter;stroke-miterlimit:4;stroke-dasharray:none;stroke-opacity:1"
         d="M 673.08574,605.69865 L 651.04287,605.88437 C 656.04287,613 660.34128,621.22755 674,613 L 673.08574,605.69865 z"
         id="path3214"
         sodipodi:nodetypes="cccc" />
      <path
         sodipodi:nodetypes="ccccccccccccc"
         id="path3216"
         d="M 712.59183,625.77141 C 720,625.39942 720,618 717.79187,615.04287 C 722.83205,608 720,598 710,598 C 710,593 702.03332,590.97997 700,594.85716 C 697.78096,590.2024 692.21904,590.81876 690,594.85716 C 687.36104,590.98923 680,593 680,598 C 671.08468,596.84272 667.92632,608 675,615.04287 C 672.30019,618 672.62233,624.85716 677.30581,625.77141 C 672.1873,634.13973 679.46711,638.34563 685,643 C 684.37437,648.35295 681.35654,654.42854 687.95713,656 C 688.60801,660.38929 702.30485,659.67158 702.19174,656 C 707.62954,653.91752 706.33309,648.46792 705,643 C 715,638 717.95713,628 712.59183,625.77141 z"
         style="opacity:1;fill:#ffffff;fill-opacity:1;fill-rule:nonzero;stroke:#000000;stroke-width:1;stroke-linecap:butt;stroke-linejoin:miter;stroke-miterlimit:4;stroke-dasharray:none;stroke-opacity:1" />
      <path
         sodipodi:nodetypes="ccc"
         id="path3218"
         d="M 685,600.97145 C 686.80203,603.0771 691.20375,605.37452 695,601.05575 C 697.7439,603.87591 701.91146,604.86382 705,601.05575"
         style="opacity:1;fill:none;fill-opacity:1;fill-rule:nonzero;stroke:#000000;stroke-width:1;stroke-linecap:butt;stroke-linejoin:miter;stroke-miterlimit:4;stroke-dasharray:none;stroke-opacity:1" />
      <path
         sodipodi:nodetypes="cccccc"
         id="path3220"
         d="M 672,602.45585 C 672,606.45585 677,608 681,607 C 681,611 685,613 689,612 C 691,620 699,620 701,613 C 706.05945,613.01818 709,611 709,607 C 712,608 719,607 719,603"
         style="opacity:1;fill:none;fill-opacity:1;fill-rule:nonzero;stroke:#000000;stroke-width:1;stroke-linecap:butt;stroke-linejoin:miter;stroke-miterlimit:4;stroke-dasharray:none;stroke-opacity:1" />
      <path
         sodipodi:nodetypes="cssscssc"
         id="path3222"
         d="M 712,613 C 705,617 700,620 701,628 C 701.51067,632.08535 703,635 701,639 C 700.18141,640.63718 699.91407,643.04532 701,645 C 706,654 686,654 691,645 C 692,643 691.83184,640.66367 691,639 C 689,635 690.52937,631.76502 691,628 C 692,620 684.40119,616.85345 677,613"
         style="opacity:1;fill:none;fill-opacity:1;fill-rule:nonzero;stroke:#000000;stroke-width:1;stroke-linecap:butt;stroke-linejoin:miter;stroke-miterlimit:4;stroke-dasharray:none;stroke-opacity:1" />
      <path
         sodipodi:nodetypes="ccc"
         id="path3224"
         d="M 702,622 C 708,627 714,620 709,615 C 705.47219,616.79039 702.81229,618.97528 702,622 z"
         style="opacity:1;fill:#000000;fill-opacity:1;fill-rule:nonzero;stroke:#000000;stroke-width:1;stroke-linecap:butt;stroke-linejoin:miter;stroke-miterlimit:4;stroke-dasharray:none;stroke-opacity:1" />
      <path
         style="opacity:1;fill:#000000;fill-opacity:1;fill-rule:nonzero;stroke:#000000;stroke-width:1;stroke-linecap:butt;stroke-linejoin:miter;stroke-miterlimit:4;stroke-dasharray:none;stroke-opacity:1"
         d="M 689.49771,622 C 683,627 677,620 681,615.46043 C 684.52781,617.51162 687.49771,619 689.49771,622 z"
         id="path3226"
         sodipodi:nodetypes="ccc" />
      <path
         d="M 684,621 A 1,1 0 1 1 682,621 A 1,1 0 1 1 684,621 z"
         sodipodi:ry="1"
         sodipodi:rx="1"
         sodipodi:cy="621"
         sodipodi:cx="683"
         id="path3228"
         style="opacity:1;fill:#ffffff;fill-opacity:1;fill-rule:nonzero;stroke:#ffffff;stroke-width:1;stroke-linecap:butt;stroke-linejoin:miter;stroke-miterlimit:4;stroke-dasharray:none;stroke-opacity:1"
         sodipodi:type="arc" />
      <path
         sodipodi:type="arc"
         style="opacity:1;fill:#ffffff;fill-opacity:1;fill-rule:nonzero;stroke:#ffffff;stroke-width:1;stroke-linecap:butt;stroke-linejoin:miter;stroke-miterlimit:4;stroke-dasharray:none;stroke-opacity:1"
         id="path3230"
         sodipodi:cx="683"
         sodipodi:cy="621"
         sodipodi:rx="1"
         sodipodi:ry="1"
         d="M 684,621 A 1,1 0 1 1 682,621 A 1,1 0 1 1 684,621 z"
         transform="translate(22,0)" />
      <path
         sodipodi:nodetypes="cc"
         id="path3236"
         d="M 688,656 C 692,657 698,657 702.46043,656"
         style="opacity:1;fill:none;fill-opacity:1;fill-rule:nonzero;stroke:#000000;stroke-width:1;stroke-linecap:butt;stroke-linejoin:miter;stroke-miterlimit:4;stroke-dasharray:none;stroke-opacity:1" />
    </g>
  </g>
  <g
     inkscape:groupmode="layer"
     id="layer3"
     inkscape:label="Reflet final"
     style="display:inline"
     sodipodi:insensitive="true">
    <path
       style="fill:url(#radialGradient3236);fill-opacity:1"
       d="M 1.5,1.5 L 1.5,460.3679 C 1.5,626.67854 135.81454,761.5 301.49993,761.5 C 467.1854,761.5 601.5,626.67854 601.5,460.3679 L 601.5,1.5 L 1.5,1.5 z "
       id="path2346" />
  </g>
  <g
     inkscape:groupmode="layer"
     id="layer4"
     inkscape:label="Contour final"
     style="display:inline"
     sodipodi:insensitive="true">
    <path
       style="fill:none;fill-opacity:1;stroke:#000000;stroke-width:3;stroke-miterlimit:4;stroke-dasharray:none;stroke-opacity:1"
       d="M 1.5,1.5 L 1.5,460.36794 C 1.5,626.67854 135.81454,761.5 301.49993,761.5 C 467.1854,761.5 601.5,626.67854 601.5,460.36794 L 601.5,1.5 L 1.5,1.5 z"
       id="path3239" />
  </g>
</svg>
