<?xml version="1.0" encoding="UTF-8"?>
<svg version="1.1" viewBox="0 0 1024 1296" xmlns="http://www.w3.org/2000/svg" xmlns:cc="http://creativecommons.org/ns#" xmlns:dc="http://purl.org/dc/elements/1.1/" xmlns:rdf="http://www.w3.org/1999/02/22-rdf-syntax-ns#">
<metadata>
<rdf:RDF>
<cc:Work rdf:about="">
<dc:format>image/svg+xml</dc:format>
<dc:type rdf:resource="http://purl.org/dc/dcmitype/StillImage"/>
<dc:title/>
</cc:Work>
</rdf:RDF>
</metadata>
<g transform="translate(1.1876 2.3067)">
<path d="m0.14471 1050.2c0.079952-135.78 0.50646-240.38 0.9531-233.76 13.626 202.1 144.4 377.48 333.9 447.8 45.404 16.85 95.465 27.572 142.92 30.61 6.9464 0.4447-97.27 0.8705-232.67 0.9506l-245.25 0.1451zm546.27 244.64c158.72-10.113 305.33-96.245 393.87-231.39 49.379-75.375 78.198-163.68 83.056-254.5 0.1618-3.025 0.3775 105.31 0.4792 240.75l0.185 246.25-245.25-0.1451c-139.72-0.083-239.69-0.4992-232.34-0.968zm-49.915-45.519c-26.024-1.1516-53.198-4.4751-77.5-9.4786-12.81-2.6374-29.981-6.7684-30.79-7.4075-0.15957-0.126 14.519-20.649 32.619-45.606s32.833-45.474 32.739-45.594c-0.0936-0.1197-6.793-1.595-14.888-3.2783-51.649-10.741-98.028-31.415-142.15-63.366-2.7332-1.9792-5.2542-3.2699-5.6022-2.8681-0.34802 0.4019-4.6368 24.961-9.5306 54.575-4.8938 29.614-9.2009 54.336-9.5714 54.936-1.2443 2.0149-29.174-17.004-52.717-35.899-29.968-24.051-60.543-56.347-84.618-89.381-7.3586-10.097-21.708-32.116-21.237-32.587 0.15467-0.1546 24.573-3.91 54.264-8.3452 29.69-4.4353 54.974-8.2931 56.185-8.5729 2.0348-0.4701 1.5714-1.3734-6.0881-11.867-30.196-41.368-53.295-95.462-62.185-145.63-0.92597-5.225-1.8119-9.648-1.9686-9.8289s-20.174 14.815-44.484 33.324c-24.309 18.509-44.74 33.861-45.402 34.115-1.8508 0.71022-9.3509-32.039-13.019-56.848-2.3115-15.633-4.5443-42.628-4.5501-55.012l-0.005018-10.75h200.57l1.1841 12.25c5.724 59.218 26.64 112.56 60.212 153.57 41.027 50.112 103.55 84.609 175.04 96.585 27.045 4.5299 37.43 4.3704 63.992-0.9826 60.496-12.192 117.86-42.074 158.06-82.344 36.102-36.161 59.289-79.455 69.879-130.47 2.8684-13.819 6.0572-37.423 6.0596-44.855l0.00121-3.75h197v10.3c0 19.109-2.7085 46.621-7.0587 71.7-2.2022 12.696-8.8155 41.119-9.8099 42.162-0.34727 0.36428-19.272-15.271-42.054-34.744s-41.595-35.234-41.807-35.022c-0.21127 0.21128-1.0301 5.0462-1.8196 10.744-6.8341 49.323-32.854 103.9-71.651 150.3-3.19 3.8145-5.7999 7.2023-5.7999 7.5283s21.262 4.3366 47.25 8.9125c25.988 4.5758 50.937 8.9947 55.443 9.8199l8.1925 1.5002-5.5574 8.6518c-33.601 52.311-83.857 102.91-136.34 137.28-14.42 9.442-31.01 19.186-31.623 18.574-0.256-0.256-2.2206-24.871-4.3659-54.699s-4.0382-54.372-4.2066-54.54c-0.16839-0.1684-4.8033 2.4317-10.3 5.7781-29.59 18.015-76.019 36.387-116.94 46.272-15.768 3.8096-22.743 5.1482-43.374 8.3249l-4.3158 0.6645 32.07 46.912c17.638 25.802 31.93 47.052 31.759 47.223-0.58266 0.5827-15.173 3.4434-29.912 5.8648-25.393 4.1717-66.526 6.875-89.285 5.868zm-4.595-267.32c-29.533-6.2308-55.205-26.317-68.434-53.546-7.3748-15.178-8.9816-23.027-8.9059-43.5 0.0597-16.142 0.27812-18.198 2.8157-26.5 10.529-34.444 36.054-59.117 70.608-68.25 8.0679-2.1325 11.712-2.514 24.011-2.514s15.944 0.38156 24.011 2.514c34.381 9.0875 60.086 33.948 70.631 68.312 2.5313 8.2489 2.7473 10.288 2.8002 26.438 0.0501 15.31-0.23315 18.564-2.2632 26-9.8281 36.001-39.117 63.521-75.68 71.106-11.606 2.408-28.014 2.3829-39.595-0.0605zm-309.78-233.83-9.3747-0.2939 0.59548-5.7108c0.32751-3.141 9.1814-118.44 19.675-256.21s19.291-251.51 19.548-252.75l0.46856-2.25h589.87l0.5238 3.25c0.28809 1.7875 10.878 116.2 23.533 254.25s23.268 252.91 23.583 255.25l0.57317 4.25h-258.12v-92.364c0-57.239-0.37982-94.412-0.99879-97.75-1.6588-8.9457-7.4637-19.415-14.74-26.585-5.0857-5.0112-8.8538-7.5386-17.615-11.815-36.827-17.976-88.985-14.058-117.74 8.8452-6.275 4.9976-12.617 13.841-16.087 22.433l-2.3164 5.7355-0.55752 192.57-115.72-0.27921c-63.647-0.15357-119.94-0.41148-125.1-0.57312zm214.87-403.22v-71.993h-74.296l0.64222 8.25c0.35322 4.5375 0.64502 36.825 0.64845 71.75l6e-3 63.5 73 0.48684v-71.993zm-68 7e-3v-66h62v132h-62zm363 0v-72h-74v144h74zm-68 0.0145v-66.014h62.014l-0.51438 131.5-61.5 0.5289zm-192.5 402.84c-0.30106-0.78454-0.42373-43.935-0.2726-95.891l0.27477-94.464 2.4021-6c3.3682-8.4131 14.779-19.646 25.098-24.707 30.111-14.766 73.194-13.958 101.58 1.9061 11.451 6.3998 20.91 18.613 23.313 30.1 0.76514 3.6571 1.1087 33.792 1.1087 97.25v91.951l-27.25 0.0143c-14.988 8e-3 -49.402 0.29616-76.477 0.64069-42.114 0.53589-49.306 0.42029-49.775-0.80003zm-283.25-609.6 0.25565-84.75 138.5-0.51369v57.014h153v-57h141v57h156.97l0.26558-28.25 0.26557-28.25h137l0.25565 84.75 0.25564 84.75h-728.02z" fill="#ededed"/>
<path d="m472.5 1292c-126.06-10.935-237.36-63.27-324.5-152.59-72.666-74.482-120.86-169.03-138-270.74-7.0128-41.602-6.4179-1.3351-6.7355-455.89l-0.2863-409.75h1018v401.8c0 268.69-0.3443 406.26-1.0393 415.25-8.3767 108.41-48.9 207.99-118.8 291.95-12.407 14.902-47.451 49.935-62.16 62.141-70.233 58.283-148.24 94.895-237.06 111.26-28.478 5.2484-46.805 6.7946-84.443 7.1244-19.25 0.1687-39.5-0.084-45-0.5607zm67.017-34.991c20.119-1.2861 43.313-4.1693 60.596-7.5329 13.65-2.6566 28.938-6.1184 29.369-6.6504 0.13142-0.1623-13.847-20.77-31.063-45.795-17.216-25.025-31.189-45.917-31.052-46.427 0.13751-0.5098 5.6235-1.9136 12.191-3.1194 42.688-7.8379 95.666-26.634 132.19-46.901 4.5375-2.5177 8.2322-4.2346 8.2103-3.8154-0.0218 0.4193 1.6551 24.95 3.7265 54.512 2.3905 34.117 4.1458 53.75 4.8057 53.75 0.57179 0 8.1213-4.0332 16.777-8.9627 68.96-39.275 126.64-94.591 168.95-162.03 7.5661-12.06 7.7581-12.515 5.5596-13.2-1.2524-0.3898-25.663-4.8052-54.247-9.8119s-52.097-9.23-52.252-9.3852c-0.15515-0.1552 2.7048-4.0688 6.3554-8.6971 9.3043-11.796 24.706-35.3 32.165-49.086 14.868-27.479 23.384-51.011 30.457-84.156l1.2435-5.8274 40.445 34.577c22.245 19.018 40.751 34.577 41.124 34.577s2.2739-5.7375 4.2231-12.75c6.5875-23.7 11.349-48.074 14.194-72.659 1.7278-14.93 3.9911-58.904 3.1453-61.109-0.5031-1.3111-13.42-1.4606-106.85-1.2368l-106.28 0.25455-0.70987 11.5c-6.4746 104.89-63.029 185.52-160.55 228.9-32.115 14.285-73.936 25.094-97.744 25.262-29.69 0.2099-76.254-11.595-111.25-28.203-88.498-42.004-138.36-117.84-148.24-225.46-0.5555-6.05-1.0104-11.34-1.0108-11.754-4.6e-4 -0.41496-48.713-0.63996-108.25-0.5l-108.25 0.25446 0.31022 17c0.49749 27.262 3.4512 55.254 8.6591 82.061 2.4803 12.767 10.206 43.296 11.477 45.353 0.51347 0.83082 14.817-9.4946 44.961-32.456 24.314-18.521 44.348-33.513 44.519-33.316 0.17102 0.1973 2.1691 7.831 4.4402 16.964 11.007 44.264 27.369 81.389 52.27 118.6l6.8305 10.208-3.2337 0.59451c-1.7785 0.327-26.507 4.0822-54.953 8.3448-28.446 4.2626-51.98 8.0114-52.3 8.3307-0.64341 0.6434 7.2397 13.959 17.351 29.308 32.272 48.99 80.131 97.13 129.17 129.93 19.644 13.138 31.005 19.751 31.485 18.327 0.23154-0.6864 4.2938-25.098 9.0273-54.248s8.7859-53.551 9.0054-54.224c0.25183-0.7722 3.089 0.6415 7.6906 3.8319 33.136 22.974 74.649 41.519 117.29 52.399 9.519 2.4286 16.892 4.8042 16.756 5.3983-0.13441 0.5835-14.422 20.651-31.75 44.595-17.328 23.944-31.506 43.873-31.506 44.288 0 0.4148 5.2875 2.1866 11.75 3.9374 51.154 13.858 103.35 19.411 152.77 16.253zm-20.248-7.6714c0.97297-0.2535 2.323-0.2369 3 0.037s-0.11903 0.4813-1.769 0.461c-1.65-0.02-2.2039-0.2445-1.231-0.4981zm-333.4-133.06c-1.2439-1.5861-1.2085-1.6214 0.37756-0.3776 1.6658 1.3064 2.1955 2.1276 1.3724 2.1276-0.20765 0-0.99515-0.7875-1.75-1.75zm-7-7c-1.2439-1.5861-1.2085-1.6214 0.37756-0.3776 1.6658 1.3064 2.1955 2.1276 1.3724 2.1276-0.20765 0-0.99515-0.7875-1.75-1.75zm-8.5525-326c14.201-0.15657 37.151-0.15643 51 3.1e-4 13.849 0.15675 2.2301 0.28484-25.82 0.28467s-39.381-0.12842-25.18-0.28498zm625.93 2e-3c8.1125-0.16808 21.388-0.16808 29.5 0 8.1125 0.16809 1.475 0.30561-14.75 0.30561s-22.862-0.13752-14.75-0.30561zm-264.2 207.18c60.086-11.398 98.347-71.973 83.065-131.51-14.008-54.575-69.673-89.083-124.94-77.457-39.172 8.24-71.364 38.894-81.273 77.389-15.134 58.796 21.776 118.5 81.103 131.19 10.967 2.3456 30.772 2.5292 42.049 0.38983zm49.951-35.809c0-0.20765 0.7875-0.99515 1.75-1.75 1.5861-1.2439 1.6214-1.2085 0.37756 0.37756-1.3064 1.6658-2.1276 2.1955-2.1276 1.3724zm-168.73-68.622c0-2.475 0.19502-3.4875 0.43337-2.25 0.23836 1.2375 0.23836 3.2625 0 4.5-0.23835 1.2375-0.43337 0.225-0.43337-2.25zm196.96 0c0-1.925 0.2058-2.7125 0.45733-1.75 0.25152 0.9625 0.25152 2.5375 0 3.5-0.25153 0.9625-0.45733 0.175-0.45733-1.75zm249.3-134.25c-1.3288-11.392-47.532-514.39-47.532-517.47v-3.2819h72v-186h-154v57h-139.97l-0.26558-28.25-0.26557-28.25-157.5-0.51212v57.012h-137v-57h-155v186h64.706l-0.39682 4.75c-0.21826 2.6125-8.7028 112.75-18.854 244.75s-19.092 247.87-19.868 257.49c-0.77556 9.6189-1.1984 17.831-0.93973 18.25 0.25871 0.41859 156.85 0.76108 347.98 0.76108h347.51zm-682.28-3.485c2.6125-0.206 6.8875-0.206 9.5 0s0.475 0.37454-4.75 0.37454-7.3625-0.16854-4.75-0.37454zm25.014 0.0175c1.5201-0.22986 3.7701-0.22371 5 0.0136 1.2299 0.23736-0.0137 0.42542-2.7638 0.41792-2.75-8e-3 -3.7563-0.20172-2.2362-0.43157zm288.49 0.0118c1.2375-0.23836 3.2625-0.23836 4.5 0 1.2375 0.23835 0.225 0.43337-2.25 0.43337s-3.4875-0.19502-2.25-0.43337zm34.5-0.043c10.862-0.16144 28.638-0.16144 39.5 0s1.975 0.29353-19.75 0.29353-30.612-0.13209-19.75-0.29353zm132-1e-3c35.612-0.1456 93.888-0.1456 129.5 0 35.612 0.14559 6.475 0.26472-64.75 0.26472s-100.36-0.11913-64.75-0.26472zm-215.25-209.63c0-0.20765 0.7875-0.99515 1.75-1.75 1.5861-1.2439 1.6214-1.2085 0.37756 0.37756-1.3064 1.6658-2.1276 2.1955-2.1276 1.3724zm-114.75-122.35c2.0625-0.21574 5.4375-0.21574 7.5 0 2.0625 0.21575 0.375 0.39226-3.75 0.39226s-5.8125-0.17651-3.75-0.39226zm41-0.017c5.3625-0.17981 14.138-0.17981 19.5 0s0.975 0.32692-9.75 0.32692-15.112-0.14711-9.75-0.32692zm-44.94-137.75c6e-3 -3.3 0.1923-4.5294 0.41486-2.7321s0.21797 4.4974-0.0102 6c-0.22818 1.5026-0.41027 0.0321-0.40466-3.2679zm258.13-196.5c0-15.675 0.13824-22.088 0.3072-14.25s0.16896 20.662 0 28.5-0.3072 1.425-0.3072-14.25z" fill="#cb0f0f"/>
<path d="m479.5 1294.9c-146.83-8.9035-285.14-83.387-374.94-201.92-52.359-69.113-86.777-150.98-99.003-235.5-5.2558-36.332-4.8952-5.6061-5.2609-448.25l-0.33804-409.25h1024.1l-0.3004 408.75c-0.3263 443.98 0.067 410.9-5.3327 448.75-15.375 107.77-66.943 210.15-145.35 288.56-104.31 104.31-245.78 157.82-393.56 148.86zm90.944-4.8548c100.53-12.1 189.97-50.703 268.56-115.92 14.709-12.206 49.753-47.24 62.16-62.141 69.901-83.955 110.42-183.54 118.8-291.95 0.695-8.9943 1.0393-146.56 1.0393-415.25v-401.8h-1018l0.2863 409.75c0.26837 384.08 0.39662 410.65 2.0475 424.14 7.8321 63.986 23.286 116.84 50.18 171.61 24.431 49.757 53.529 90.924 92.512 130.88 81.599 83.639 186.46 135.85 301.5 150.11 23.784 2.9483 32.739 3.3486 68 3.0396 28.219-0.2473 38.476-0.7251 52.943-2.4664zm-81.443-32.728c-23.882-1.2774-54.194-5.3861-77-10.437-18.026-3.9923-37-9.1772-37-10.11 0-0.4149 14.178-20.345 31.506-44.288 17.328-23.944 31.616-44.011 31.75-44.595 0.13683-0.5941-7.2367-2.9697-16.756-5.3983-42.643-10.88-84.156-29.425-117.29-52.399-4.6016-3.1904-7.4388-4.6041-7.6906-3.8319-0.21947 0.6729-4.2719 25.074-9.0054 54.224s-8.7958 53.562-9.0273 54.248c-0.4803 1.424-11.841-5.1892-31.485-18.327-49.038-32.797-96.897-80.937-129.17-129.93-10.111-15.349-17.994-28.665-17.351-29.308 0.31927-0.3193 23.854-4.0681 52.3-8.3307 28.446-4.2626 53.174-8.0178 54.953-8.3448l3.2337-0.59451-6.8305-10.208c-24.901-37.213-41.263-74.338-52.27-118.6-2.2711-9.1328-4.2692-16.767-4.4402-16.964-0.17103-0.19729-20.205 14.795-44.519 33.316-30.144 22.962-44.448 33.287-44.961 32.456-1.271-2.0566-8.997-32.586-11.477-45.353-5.2079-26.807-8.1616-54.798-8.6591-82.061l-0.31022-17 108.25-0.25446c59.538-0.13996 108.25 0.085 108.25 0.5 4.6e-4 0.41495 0.45533 5.7045 1.0108 11.754 9.8813 107.62 59.745 183.46 148.24 225.46 34.991 16.608 81.555 28.413 111.25 28.203 23.808-0.1683 65.629-10.977 97.744-25.262 80.05-35.607 132.92-96.482 152.34-175.4 3.9906-16.216 7.1901-37.082 8.2036-53.5l0.70987-11.5 106.28-0.25455c93.432-0.22378 106.35-0.0743 106.85 1.2368 0.84587 2.2043-1.4175 46.178-3.1453 61.109-2.8451 24.585-7.6066 48.96-14.194 72.659-1.9492 7.0125-3.8496 12.75-4.2231 12.75s-18.879-15.56-41.124-34.577l-40.445-34.577-1.2435 5.8274c-7.0728 33.145-15.589 56.677-30.457 84.156-7.4591 13.786-22.861 37.291-32.165 49.086-3.6506 4.6282-6.5106 8.5419-6.3554 8.6971 0.15516 0.1552 23.668 4.3785 52.252 9.3852s52.994 9.4221 54.247 9.8119c2.1985 0.6844 2.0065 1.1401-5.5596 13.2-42.309 67.437-99.988 122.75-168.95 162.03-8.6554 4.9295-16.205 8.9627-16.777 8.9627-0.65987 0-2.4152-19.633-4.8057-53.75-2.0714-29.562-3.7483-54.093-3.7265-54.512 0.0218-0.4192-3.6728 1.2977-8.2103 3.8154-36.525 20.266-89.503 39.063-132.19 46.901-6.5676 1.2058-12.054 2.6096-12.191 3.1194-0.13752 0.5098 13.836 21.402 31.052 46.427 17.216 25.025 31.194 45.633 31.063 45.795-0.43087 0.532-15.718 3.9938-29.369 6.6504-34.176 6.6511-77.184 9.7052-111.11 7.8903zm67-9.9142c19.504-1.8263 58.066-8.1538 59.709-9.7977 0.19072-0.1907-14.078-21.431-31.709-47.201l-32.056-46.854 14.277-2.2169c51.198-7.9495 111.41-29.317 151.28-53.68 4.95-3.0253 9.1176-5.384 9.2613-5.2416 0.14372 0.1424 2.0156 24.663 4.1597 54.491 2.1441 29.828 4.137 54.47 4.4285 54.762 0.71703 0.717 22.584-12.295 36.15-21.512 27.209-18.485 49.319-37.042 73.02-61.285 23.292-23.825 38.038-41.919 55.699-68.342 8.2468-12.338 8.5986-13.081 6.5-13.714-1.2203-0.3684-26.069-4.8343-55.219-9.9243s-53.171-9.3843-53.379-9.5428c-0.20857-0.1586 3.8648-5.5927 9.052-12.076 39.189-48.98 60.602-94.857 68.35-146.44 0.8462-5.6339 1.6685-10.373 1.8273-10.532 0.15881-0.15882 18.933 15.654 41.719 35.14s41.731 35.117 42.099 34.736c1.041-1.08 6.4855-24.221 9.288-39.478 4.6572-25.353 7.544-53.616 7.544-73.86v-10.855h-54.336c-29.885 0-73.971-0.2981-97.969-0.66243-37.124-0.56362-43.697-0.45173-44.059 0.75-0.23446 0.77683-1.1654 8.6473-2.0686 17.49-8.8239 86.379-51.389 155.32-123.84 200.59-47.777 29.853-116.48 50.826-153.47 46.849-39.56-4.2534-75.591-14.954-111.15-33.011-81.99-41.631-131.83-117.16-142.92-216.59-0.93732-8.4039-2.0165-15.592-2.3982-15.974-0.38169-0.3817-45.553-0.35755-100.38 0.0537l-99.687 0.74765 0.59135 18.127c0.94453 28.953 5.1407 59.152 12.423 89.407 2.7246 11.319 4.0235 15.147 5.0112 14.768 1.3213-0.50702 9.2064-6.4532 62.104-46.833 15.037-11.478 27.463-20.722 27.614-20.543s1.0588 4.8272 2.0172 10.327c8.6991 49.917 32.817 105.92 63.168 146.69 3.6559 4.9101 6.2453 9.278 5.7542 9.7063-0.49114 0.4283-24.518 4.2753-53.393 8.5489s-53.746 8.0055-55.269 8.2932l-2.7695 0.5229 2.6859 4.6211c9.3716 16.124 29.341 43.192 45.446 61.602 28.334 32.389 58.008 58.395 94.394 82.727 13.498 9.0263 16.125 10.44 16.724 9 0.39093-0.9396 4.5756-25.558 9.2994-54.708s8.7969-53.614 9.0515-54.364c0.39096-1.1518 0.76405-1.1518 2.3994 0 24.841 17.495 33.692 23.073 51.327 32.345 29.537 15.531 62.107 26.993 96.637 34.009 6.8333 1.3885 12.498 2.6337 12.588 2.7671 0.0903 0.1334-14.578 20.492-32.595 45.242s-32.795 45.3-32.838 45.666c-0.0434 0.3665 6.5773 2.2647 14.713 4.2183 51.034 12.255 101.43 15.885 153.21 11.037zm-66-257.38c-59.327-12.689-96.237-72.392-81.103-131.19 9.9084-38.495 42.101-69.149 81.273-77.389 55.272-11.627 110.94 22.881 124.94 77.457 15.282 59.538-22.979 120.11-83.065 131.51-11.278 2.1394-31.083 1.9557-42.049-0.38983zm48.5-9.4587c17.364-5.163 30.621-12.919 42.95-25.13 37.957-37.589 38.683-98.724 1.6362-137.72-16.171-17.024-36.93-27.221-60.823-29.877-30.166-3.353-60.28 7.6962-81.308 29.833-28.465 29.966-35.428 72.772-17.916 110.14 11.126 23.741 32.925 43.261 57.065 51.097 13.305 4.3187 18.688 5.0522 34.395 4.686 12.695-0.29594 16.383-0.76098 24-3.0258zm-373.85-224.34c-0.2587-0.41859 0.16417-8.6311 0.93973-18.25 0.77555-9.6189 9.716-125.49 19.868-257.49s18.636-242.14 18.854-244.75l0.39682-4.75h-64.706v-186h155v57h137v-57.012l157.5 0.51212 0.26557 28.25 0.26558 28.25h139.97v-57h154v186h-72v3.2819c0 3.0733 46.203 506.08 47.532 517.47l0.61232 5.25h-347.51c-191.13 0-347.72-0.34249-347.98-0.76108zm258.37-99.989c0.0186-99.264 0.0778-100.57 5.0274-110.39 9.8731-19.606 31.9-32.268 63.455-36.475 42.472-5.6628 82.943 9.6414 96.455 36.475 4.9496 9.829 5.0088 11.13 5.0274 110.39l0.01736 92.75h258.23l-0.61447-5.25c-0.33795-2.8875-10.964-117.98-23.614-255.75-12.65-137.78-23.246-251.96-23.546-253.75l-0.54705-3.2517-590.39 0.50334-4.7422 61.5c-9.4975 123.17-34.779 453.86-34.779 454.91 0 0.77573 35.724 1.0861 125 1.0861h125l0.0174-92.75zm194.98-311.25v-72h74v144h-74zm68 0v-66h-62v132h62zm-362-0.5v-71.5h73v143h-73zm67 0.5v-66h-62v132h62zm193.76 311.5c0.15621-56.295-0.12093-94.031-0.71416-97.24-2.3991-12.978-12.806-25.466-27.065-32.48-41.708-20.515-102.86-10.429-120.63 19.896-5.4058 9.2242-5.3165 7.4173-5.3293 107.9-7e-3 51.196 0.29092 93.386 0.661 93.756s34.908 0.55758 76.75 0.41666l76.077-0.2562zm291-518.25-0.25565-84.75h-137l-0.26557 28.25-0.26558 28.25h-155.94l-0.26558-28.25-0.26557-28.25-141.5-0.51342v57.013h-153v-57.014l-138.5 0.51369-0.25565 84.75-0.25564 84.75h728.02z" fill="#171010"/>
</g>
</svg>
