<?xml version="1.0" encoding="UTF-8"?>
<svg width="54.751mm" height="68.866mm" version="1.1" viewBox="0 0 194 244.01" xmlns="http://www.w3.org/2000/svg" xmlns:cc="http://creativecommons.org/ns#" xmlns:dc="http://purl.org/dc/elements/1.1/" xmlns:rdf="http://www.w3.org/1999/02/22-rdf-syntax-ns#">
<metadata>
<rdf:RDF>
<cc:Work rdf:about="">
<dc:format>image/svg+xml</dc:format>
<dc:type rdf:resource="http://purl.org/dc/dcmitype/StillImage"/>
<dc:title/>
</cc:Work>
</rdf:RDF>
</metadata>
<g transform="translate(-129.15 -289.86)">
<path d="m321.15 291.88v140c-0.1663 82.283-70.124 100-95 100-24.876 0-95-17.717-95-100v-140z" color="#000000" fill="#f00"/>
<path d="m131.15 291.86v46.861c1.0733 1.4776 2.086 2.7986 2.9551 3.7676 8.7549 9.7609 26.54 7.6043 35.295 17.365 8.1706 9.1096 4.3723 25.392 12.543 34.502 8.7549 9.7609 26.54 7.6043 35.295 17.365 8.1706 9.1096 4.3723 25.392 12.543 34.502 8.7549 9.7609 26.54 7.6063 35.295 17.367 8.1706 9.1096 4.3723 25.392 12.543 34.502 2.8548 3.1828 7.6014 6.1313 12.701 8.666 10.342-9.1159 19.335-21.286 24.898-37.352-4.3022-2.287-8.1881-4.8635-10.656-7.6152-8.1706-9.1096-4.3704-25.39-12.541-34.5-8.7549-9.7609-26.54-7.6063-35.295-17.367-8.1707-9.1096-4.3723-25.392-12.543-34.502-8.7549-9.7609-26.54-7.6043-35.295-17.365-8.1706-9.1096-4.3723-25.392-12.543-34.502-8.7549-9.7609-26.54-7.6043-35.295-17.365-2.5726-2.8682-6.1889-8.2744-9.9375-14.33h-19.963z" color="#000000" fill="#fff" stroke="#000" stroke-width="4"/>
<path d="m227.43 426.12-1.791 0.0664h-6.1113s0.00738 0.2166 0.00782 0.22657l-0.16797 0.00585c0.09301 0.78208 0.1684 1.525 0.25195 2.2852 0.17223 4.6414 0.55896 17.156 0.33203 31.949-6.2607 41.085-44.731 2.7828-37.248 41.635 1.3426-10.261 11.284-10.481 21.668-12.984-7.2082 5.5771-12.476 8.1569-5.0605 21.514 1.9515-9.9544 10.772-10.509 18.531-16.264-1.5264 11.188-4.047 19.416-8.1524 20.023 9.3291 2.0802 14.694-4.8806 17.627-15.693 2.9134 11.001 8.2909 18.131 17.715 16.029-4.1049-0.6074-6.6259-8.8336-8.1524-20.02 7.7585 5.7534 16.58 6.3063 18.531 16.26 7.4141-13.355 2.148-15.936-5.0586-21.512 10.383 2.5031 20.322 2.7244 21.664 12.984 7.4828-38.85-30.983-0.55514-37.246-41.631-0.22678-14.773 0.15735-27.276 0.33008-31.938 0.08412-0.76582 0.16018-1.5146 0.2539-2.3027l-0.16796-0.00586c4.3e-4 -0.00979 0.00781-0.22461 0.00781-0.22461h-6.043l-1.5254-0.05664c-0.00196-0.01399-0.03516-0.28125-0.03516-0.28125h-0.15039c-0.00355-0.0226-0.0062-0.04378-0.00976-0.0664z" color="#000000" color-rendering="auto" fill="#ff0" image-rendering="auto" shape-rendering="auto" solid-color="#000000" style="isolation:auto;mix-blend-mode:normal"/>
<path d="m228.41 425.6-1.7734 0.06641h-6.0918c-0.37993-4e-4 -0.72727 0.21452-0.89648 0.55469-0.19783 0.21465-0.292 0.50502-0.25781 0.79492 0.08983 0.75534 0.16404 1.4798 0.24609 2.2285 0.1717 4.6311 0.55527 17.077 0.33203 31.789-1.5432 10.057-4.9665 15.018-9.0527 17.631-4.0944 2.6175-9.0443 2.9151-13.77 3.123-4.7253 0.20796-9.3013 0.26114-12.332 3.1348-1.5154 1.4368-2.5223 3.5491-2.8906 6.4609-0.36693 2.9009-0.13196 6.6274 0.80664 11.52h-0.00586s0.49436 2.758 1.3008 6.3535c0.20765-3.1732 0.43296-4.8266 0.64649-6.1875 0.01805-0.05603 0.03112-0.11354 0.03906-0.17187 0.63024-4.8164 3.0778-7.0367 6.8379-8.6074 2.6983-1.1272 6.1548-1.841 9.7832-2.6016-2.0813 1.6495-3.9267 3.3242-4.877 5.541-1.4498 3.3821-0.77358 7.7274 2.9512 14.465h-0.00195s0.76749 1.8017 2.2637 5.2246c-0.69832-3.0929-0.51261-4.1574-0.38281-5.3379 0.00926-0.03021 0.01708-0.06085 0.02344-0.0918 0.9217-4.7015 3.3289-7.0166 6.6309-9.0469 2.7663-1.7009 6.1715-3.2608 9.5605-5.4199-0.71344 4.5965-1.5772 8.7028-2.6855 11.637-0.64307 1.7022-1.3588 3.0497-2.0938 3.9551-0.73501 0.9054-1.4425 1.3469-2.1602 1.4531-2.3856 0.406-4.4187 0.60806-6.291 0.88867 3.2186 0.44131 4.8701 0.78884 6.2285 1.1035l0.00195-0.02539c4.9303 1.0957 9.0484-0.24978 12.121-3.2774 2.5288-2.4918 4.286-6.2247 5.7031-10.469 1.412 4.3377 3.1705 8.1554 5.7168 10.709 3.0853 3.0941 7.2365 4.4813 12.221 3.3711v0.00391c1.3584-0.31468 3.008-0.66221 6.2266-1.1035-3.2951-0.49704-5.61-0.75542-6.0762-0.80664-1.0327-0.28509-1.8557-0.87897-2.3789-1.5117-0.73498-0.9052-1.4487-2.2513-2.0918-3.9531-1.1084-2.9331-1.974-7.0393-2.6875-11.635 3.3892 2.1588 6.7958 3.7174 9.5625 5.418 3.302 2.0296 5.7073 4.3439 6.6289 9.0449 0.00891 0.04304 0.02066 0.08545 0.03515 0.12695 0.12922 1.1579 0.29815 2.2374-0.38867 5.2793 1.4789-3.3834 2.2189-5.123 2.2363-5.1641 3.7431-6.7587 4.4248-11.113 2.9727-14.502-0.95012-2.2171-2.7975-3.8895-4.8789-5.5391 3.629 0.76078 7.0849 1.474 9.7832 2.6016 3.7592 1.5708 6.2057 3.7913 6.8359 8.6074 0.38769 2.4312 0.56939 4.5068 0.69141 6.334 0.80642-3.5955 1.3027-6.3535 1.3027-6.3535h-0.00586c0.9342-4.8785 1.1669-8.5987 0.80078-11.494-0.36821-2.9119-1.3755-5.024-2.8906-6.4609-3.0302-2.874-7.6052-2.9266-12.33-3.1348s-9.6752-0.50611-13.77-3.123c-4.0862-2.6118-7.5089-7.572-9.0527-17.627-0.22289-14.679 0.15378-27.096 0.32618-31.756 0.08357-0.76205 0.15858-1.4988 0.25-2.2676 0.03367-0.2902-0.06123-0.58061-0.25977-0.79493v-0.00195c-0.16967-0.33739-0.51492-0.55044-0.89258-0.55078h-6.0254l-0.86133-0.0332c-0.11573-0.11934-0.25938-0.20795-0.41797-0.25782-0.15283-0.0799-0.32373-0.11892-0.49609-0.11328zm-0.50781 2.0195c0.181 0.19882 0.43443 0.31638 0.70312 0.32617l1.5254 0.05665c0.01235 8.8e-4 0.02472 0.00153 0.0371 0.00195h5.1113c-0.05202 0.4748-0.10481 0.95557-0.15625 1.4238-0.00282 0.02401-0.00478 0.04811-0.00586 0.07226-0.17315 4.6724-0.55725 17.189-0.33008 31.988 7.8e-4 0.04579 0.00469 0.09147 0.01172 0.13672 1.5924 10.443 5.3172 16.093 9.9629 19.062 4.6457 2.9694 10.019 3.2267 14.758 3.4356 4.7391 0.20881 8.7698 0.43193 11.043 2.5879 1.1366 1.078 1.9556 2.6712 2.2832 5.2617 0.21696 1.7157 0.09348 4.0465-0.20899 6.6894-1.4505-2.8044-3.7966-4.6843-6.6602-5.8809-4.1414-1.7306-9.2456-2.3967-14.373-3.6328-0.03607-0.00853-0.07258-0.01505-0.10937-0.01953-1.2209-0.26558-2.2661-0.62673-5.1504-2.1406 2.3879 2.0602 3.9615 3.5008 4.252 3.7676 7.8e-4 7.2e-4 0.0051 0.00517 0.00586 0.00586 0.04586 0.05554 0.0976 0.10596 0.15429 0.15039 0.02108 0.01631 0.03952 0.02867 0.06055 0.04492 3.6083 2.7885 6.5258 4.7858 7.6445 7.3965 0.98519 2.299 0.66723 5.4722-1.8379 10.602-1.3785-3.6965-3.8459-6.0898-6.7598-7.8809-3.5215-2.1645-7.5911-3.7164-11.324-6.4726-0.96634-0.80535-1.7784-1.545-3.6289-4.2461 1.196 3.064 1.9617 5.2268 2.0391 5.4453 0.7637 5.5065 1.7637 10.31 3.1211 13.902 0.69108 1.8289 1.4702 3.3502 2.4102 4.5078 0.16968 0.20897 0.38145 0.33645 0.56446 0.52148-3.0574 0.05525-5.5015-1.056-7.5879-3.1484-2.6724-2.68-4.7007-7.028-6.1309-12.393h0.0039c-0.40631-1.2566-0.7139-2.2714-0.83398-5.666-0.66395 3.3946-1.2285 5.8535-1.2285 5.8535l0.01953-0.00195c-1.4358 5.1791-3.4453 9.3686-6.0703 11.955-2.0702 2.0398-4.4904 3.1219-7.5098 3.0664 0.18373-0.18564 0.39612-0.31367 0.56641-0.52344 0.93993-1.1578 1.7211-2.6805 2.4121-4.5098 1.3193-3.4921 2.2955-8.1412 3.0508-13.455 0.4138-1.4429 1.0158-2.6598 2.9824-5.1973-2.3544 1.9154-3.9492 3.1385-4.3633 3.4551-0.03169 0.01848-0.06233 0.0387-0.0918 0.06055-3.7462 2.7786-7.835 4.3355-11.371 6.5098-2.9143 1.7919-5.3834 4.1847-6.7617 7.8828-2.5062-5.1309-2.8235-8.3062-1.8379-10.605 1.1126-2.5955 4.0077-4.5875 7.5879-7.3516 0.00293 0.00158 0.02735 0.01757 0.02735 0.01757 1.3722-0.82083 1.6801-1.6867 4.6308-3.3691-2.8142 1.3305-4.2302 1.2559-5.4648 1.4961-0.00337 0.0075-0.00264 0.01401-0.00586 0.02148-5.0986 1.223-10.172 1.8926-14.291 3.6133-2.8643 1.1965-5.2094 3.0762-6.6602 5.8809-0.30246-2.643-0.42601-4.9757-0.20898-6.6914 0.32766-2.5904 1.1464-4.1819 2.2832-5.2598 2.2735-2.1557 6.3034-2.3793 11.043-2.5879 4.7396-0.20859 10.114-0.46546 14.76-3.4356s8.3712-8.6214 9.9629-19.066c0.00704-0.04525 0.01095-0.09093 0.01172-0.13672 0.22733-14.82-0.16134-27.348-0.33398-32-4.3e-4 -0.02413-0.00173-0.04824-0.00391-0.07227-0.0509-0.46314-0.10483-0.93869-0.15625-1.4082h5.1816c0.01238-4.2e-4 0.02475-0.00107 0.03711-0.00195z" color="#000000" color-rendering="auto" image-rendering="auto" shape-rendering="auto" solid-color="#000000" style="block-progression:tb;isolation:auto;mix-blend-mode:normal;text-decoration-color:#000000;text-decoration-line:none;text-decoration-style:solid;text-indent:0;text-transform:none;white-space:normal"/>
<path d="m227.37 298.71c-0.19127 0.34624-0.36591 0.68643-0.54688 1.0293-0.03583-0.16091-0.07781-0.35064-0.11328-0.50976-0.39087 0.88792-0.76378 1.777-1.1309 2.668-0.0311-0.14245-0.06258-0.30745-0.09375-0.44727-2.694 5.2306-5.0195 10.387-7.041 15.467-6.0832 11.506-11.94 16.737-27.238 17.189 4.5548 6.9096 12.03 9.7532 19.381 9.1856-0.16061 0.81737-0.32878 1.6381-0.47265 2.4492-7.3054 11.498-16.377 19.084-27.078 19.4 4.5206 6.6246 12.675 9.4204 21.18 8.4121-8.5836 16.321-19.82 28.359-34.691 28.52 11.546 7.7974 22.211 10.238 31.512 8.6309-9.1073 16.195-21.695 27.587-39.561 28.158 20.629 17.49 47.982 10.34 65.887-12.461 17.912 22.155 44.855 28.933 65.236 11.652-17.865-0.57103-30.457-11.961-39.564-28.156 9.3008 1.6074 19.969-0.83496 31.516-8.6328-14.871-0.16067-26.11-12.197-34.693-28.518 8.5055 1.0089 16.659-1.789 21.18-8.4141-10.922-0.323-20.146-8.218-27.527-20.117-0.11498-0.58787-0.2161-1.1707-0.33984-1.7617 7.452 0.67601 15.079-2.1471 19.699-9.1562-21.568-0.63784-24.368-10.704-35.498-34.588z" color="#000000" color-rendering="auto" fill="#1f9822" image-rendering="auto" shape-rendering="auto" solid-color="#000000" style="isolation:auto;mix-blend-mode:normal"/>
<path d="m227.68 295.91-1.1426 2.5938-0.01953-0.09179-1.2637 2.4531c-2.6925 5.2276-5.013 10.381-7.0371 15.459-0.00114 0.00285-0.00473 0.00496-0.00586 0.00781-3.0071 5.6861-5.8971 9.704-9.834 12.371-3.9391 2.6686-9.0038 4.0544-16.543 4.2774l-1.793 0.05273 0.98632 1.498c4.4968 6.8215 11.772 9.7568 19.016 9.5781-0.072 0.3661-0.14377 0.7291-0.21094 1.0976-7.1943 11.269-15.965 18.507-26.168 18.809l-1.8262 0.05468 1.0293 1.5078c4.413 6.4669 12.117 9.2822 20.217 8.8535-4.0552 7.4207-8.6216 13.939-13.861 18.566-5.6083 4.9525-11.884 7.8718-19.053 7.9492l-3.2051 0.03515 2.6562 1.793c10.909 7.3667 21.111 9.915 30.223 8.9062-8.9196 15.135-20.892 25.516-37.744 26.055l-2.5938 0.08398 1.9805 1.6777c10.532 8.9295 22.888 11.605 34.816 9.0957 11.609-2.4416 22.771-9.8119 31.727-20.852 8.9528 10.718 20.013 17.833 31.486 20.127 11.795 2.3582 23.981-0.3573 34.387-9.1797l1.9805-1.6777-2.5957-0.08399c-16.853-0.53866-28.828-10.917-37.748-26.053 9.1126 1.0096 19.317-1.5405 30.227-8.9082l2.6562-1.793-3.2051-0.03516c-7.1686-0.07745-13.444-2.9972-19.053-7.9492-5.2402-4.6266-9.8061-11.144-13.861-18.564 8.1 0.42852 15.804-2.3886 20.217-8.8555l1.0293-1.5078-1.8262-0.05469c-10.417-0.30805-19.343-7.8474-26.617-19.52-0.02499-0.13078-0.05138-0.2699-0.07618-0.40234 7.3488 0.27613 14.768-2.6419 19.33-9.5625l0.98633-1.498-1.791-0.05273c-10.63-0.31437-16.317-2.8451-20.934-8.2285s-8.1131-13.82-13.688-25.781l-0.83203-1.7832-0.22657 0.41016zm0.29297 4.9141c5.0086 10.846 8.4659 18.983 13.131 24.422 4.6218 5.389 10.735 8.1117 20.385 8.7305-4.4543 5.5769-10.997 7.952-17.572 7.3555l-1.3457-0.12304 0.27734 1.3242c4.1108 11.249 17.736 21.282 26.766 22.434-2.0915 2.4614-4.7619 4.2734-7.7871 5.416-2.9584-0.6958-6.3112-2.326-9.9961-4.9414 1.7124 3.0539 5.3001 4.9554 7.1836 5.7891-2.6368 0.59922-5.4692 0.74209-8.3828 0.39648l-1.8867-0.22265 0.88476 1.6816c4.3284 8.2299 9.3367 15.417 15.211 20.604 5.0547 4.4629 10.822 7.3029 17.229 8.0996-4.8464 2.9658-9.2096 4.6915-13.651 5.8718-3.0862-1.3291-7.2176-3.9232-11.884-8.4207 1.3459 4.0633 6.1268 7.6026 8.8477 9.3555-4.0497 0.77165-7.9002 0.81494-11.52 0.18946l-2.0742-0.35743 1.0312 1.834c8.7563 15.571 20.944 26.815 37.844 28.383-5.1021 3.8695-9.1823 6.0591-14.763 7.1408-3.2307-1.1124-8.7352-3.9242-13.872-8.8752 1.3993 4.2247 6.5375 7.9047 9.1836 9.5742-3.7495 0.37346-7.5384 0.17681-11.305-0.57618-2.7854-0.55688-4.714-1.2013-7.4421-2.3361-1.8794-2.624-3.1105-6.6834-4.3997-9.5682-0.17168 3.7932 0.34656 6.5688 0.70899 8.0508-6.6868-3.3016-13.038-8.2976-18.602-14.77 3.5193-2.8918 8.5429-6.2145 11.691-9.2949 3.7379-3.6793 6.459-7.0117 6.459-7.0117l0.83789-1.0274-1.0742-0.77734c-5.2438-4.8085-9.495-8.9297-12.209-15.377 0.85805-1.0492 2.7009-3.3858 3.4238-4.4199 2.6599-3.805 4.3281-7.1699 4.3281-7.1699l0.34375-0.69531-0.58593-0.50586c-4.1738-4.7315-7.7495-9.1348-8.793-15.203 3.4145-3.4911 5.3848-8.4707 5.3848-8.4707l0.16407-0.51758-0.43946-0.3164c-5.8056-4.195-7.7857-12.387-7.9551-13.543 0.94371-0.57445 2.3667-1.7213 3.1074-2.4141 1.6489-1.542 2.7246-3.0684 2.7246-3.0684l0.24609-0.34766-0.30273-0.29687c-5.2518-3.5023-8.3761-17.676-9.0723-19.879-0.00428 0.13532 0.01461 0.01949-0.01172-0.01563-0.96509 2.219-3.3318 16.392-9.0723 19.881l-0.30274 0.29688 0.24414 0.34766s1.0777 1.5263 2.7266 3.0684c0.67065 0.62719 2.1506 1.7069 2.9902 2.248-0.10266 0.73959-2.1722 9.399-8.1367 13.709l-0.4414 0.31835 0.16601 0.51954s2.0115 4.6173 5.1777 7.9766c-1.7978 5.6672-4.5156 11.586-9.0957 15.693l-0.60156 0.52148 0.37305 0.70313s1.7423 3.2884 4.4766 7.0156c0.86698 1.1818 2.8829 3.7138 3.9297 4.9043-2.1573 5.7434-4.8902 9.3336-12.068 15.023l-1.0742 0.77734 0.83789 1.0273s2.7191 3.3324 6.457 7.0117c3.8896 3.4241 7.365 6.4866 11.506 8.543-5.8853 7.261-12.737 12.828-19.982 16.391 0.35853-1.3747 0.96854-4.3409 0.78515-8.3926-1.3578 3.0381-2.7563 7.7445-4.9104 10.364-2.4982 1.019-3.9866 1.2198-6.5329 1.7554-4.0383 0.84935-8.1062 1.0701-12.125 0.62305 2.3918-1.4508 8.098-5.2846 9.6055-9.8359-5.4579 5.2604-11.124 8.0437-14.437 8.9714-5.3761-1.1346-9.2814-3.2079-14.206-6.9422 16.897-1.5696 29.08-12.816 37.836-28.385l1.0312-1.834-2.0723 0.35742c-3.7171 0.64218-7.2326 0.57481-11.402-0.25781 2.6437-1.6671 7.3435-5.3511 8.7443-9.5801-4.8827 4.706-8.8594 7.665-12.016 8.9023-4.3159-1.1949-8.8366-3.1857-13.531-6.0586 6.4069-0.79665 12.174-3.638 17.229-8.1016 5.8737-5.1869 10.883-12.374 15.211-20.604l0.88477-1.6816-1.8887 0.22265c-3.1168 0.36952-6.1389 0.17843-8.9297-0.53125 1.4658-0.75274 5.7298-3.0933 7.7422-5.9492-4.2241 2.3156-7.5563 4.2964-10.57 5.0234-2.7927-1.1495-5.2599-2.8913-7.2207-5.1973 12.695-3.2138 19.782-8.4837 26.449-22.42l0.25391-1.293-1.3125 0.10156c-6.4601 0.49887-12.849-1.8793-17.234-7.3398 6.654-0.41901 11.64-1.8087 15.566-4.4688 4.3346-2.9365 7.412-7.2866 10.486-13.102l0.02539-0.04687 0.01953-0.05078c1.6575-4.1648 3.6689-8.4144 5.7734-12.682l0.13868 0.63282 1.1289-2.7402 0.02539 0.11328zm0.47266 18.615c0.2146 3.7446 1.5306 11.105 8.0644 17.742-0.17667 0.24367-0.92426 1.3069-2.3379 2.6289-1.4696 1.3744-3.404 2.7027-5.3008 2.9102-0.23982-1.0836-0.23998-2.7516-0.65039-7.4531-0.40691 5.1049-0.35352 7.3144-0.35352 7.3144-1.8464-0.26145-3.7212-1.4486-5.1504-2.7852-1.4136-1.322-2.1592-2.3852-2.3359-2.6289 6.5244-6.6274 7.847-13.978 8.0645-17.729zm-2.7305 23.662c0.98419 0.37216 1.895 0.61692 2.8066 0.64844v0.01172c0.8061-0.00122 1.6347-0.31844 2.375-0.53906 0.4431 2.5391 2.1299 9.8617 7.4785 14.086-0.39761 1.1103-2.936 7.5418-9.5684 10.078-0.47544-2.5293-0.17552-3.9867-0.32421-7.0059-0.67018 1.9364-1.166 6.5977-1.166 6.5977-6.2538-2.6709-8.7015-8.5981-9.0977-9.6836 5.4216-4.2826 7.082-11.757 7.4961-14.193zm-3.0918 22.822c1.4195 1.1725 3.1249 2.2153 5.1719 2.9141 2.0128 0.27596 4.3481-1.3552 5.834-2.5039 1.636 5.4784 3.948 11.641 7.8594 15.559-0.24083 0.47606-1.4719 2.972-3.8262 6.3398-2.3157 3.3126-5.4376 6.9151-8.6484 8.7637-0.95739-3.5887-0.38121-7.5017-0.8086-12.092-0.59776 5.6191-1.1894 11.494-1.1894 11.494-3.1128-1.8925-6.1619-5.2164-8.459-8.3477-2.4145-3.2913-3.6912-5.7067-3.9512-6.1875 2.7869-2.725 4.7838-6.7267 6.1387-10.207 1.0527-2.704 1.5886-4.6233 1.8789-5.7324zm12.475 28.672c0.60223 1.3437 1.4677 3.1788 2.752 5.4922 1.9642 3.5381 4.5986 7.5136 7.7246 10.189-0.57065 0.68627-2.3002 2.8185-5.4629 5.9316-3.1908 3.1408-6.5228 6.3569-9.8906 7.9629-0.38549-0.81326-1.5038-6.6487-1.7559-14.42-0.55014 10.151-1.4902 13.885-1.4902 13.885-3.3133-1.6512-7.085-4.3798-10.195-7.4414-3.1627-3.1131-4.8922-5.2454-5.4629-5.9316 4.743-4.6296 7.7482-9.6977 10.375-15.449 2.1306 1.3818 4.7815 5.1118 7.3164 4.4512 2.2227-1.0434 4.2646-2.7435 6.0898-4.6699z" color="#000000" color-rendering="auto" image-rendering="auto" shape-rendering="auto" solid-color="#000000" style="block-progression:tb;isolation:auto;mix-blend-mode:normal;text-decoration-color:#000000;text-decoration-line:none;text-decoration-style:solid;text-indent:0;text-transform:none;white-space:normal"/>
<path d="m321.15 291.88v140c-0.1663 82.283-70.124 100-95 100-24.876 0-95-17.717-95-100v-140z" color="#000000" fill="none" stroke="#000" stroke-width="4"/>
</g>
</svg>
