<?xml version="1.0" encoding="UTF-8"?>
<svg version="1.0" viewBox="0 0 603 763" xmlns="http://www.w3.org/2000/svg" xmlns:cc="http://creativecommons.org/ns#" xmlns:dc="http://purl.org/dc/elements/1.1/" xmlns:rdf="http://www.w3.org/1999/02/22-rdf-syntax-ns#" xmlns:xlink="http://www.w3.org/1999/xlink">
<metadata>
<rdf:RDF>
<cc:Work rdf:about="">
<dc:format>image/svg+xml</dc:format>
<dc:type rdf:resource="http://purl.org/dc/dcmitype/StillImage"/>
<dc:date>04-AUG-2009</dc:date>
<dc:creator>
<cc:Agent>
<dc:title>Juan G (Aliman5040)</dc:title>
</cc:Agent>
</dc:creator>
<cc:license rdf:resource="http://creativecommons.org/licenses/GPL/2.0/"/>
<dc:coverage/>
<dc:description/>
<dc:subject>
<rdf:Bag/>
</dc:subject>
<dc:language/>
<dc:title>Wappen Gemeinde Oberlangenegg</dc:title>
</cc:Work>
<cc:License rdf:about="http://creativecommons.org/licenses/GPL/2.0/">
<cc:permits rdf:resource="http://web.resource.org/cc/Reproduction"/>
<cc:permits rdf:resource="http://web.resource.org/cc/Distribution"/>
<cc:requires rdf:resource="http://web.resource.org/cc/Notice"/>
<cc:permits rdf:resource="http://web.resource.org/cc/DerivativeWorks"/>
<cc:requires rdf:resource="http://web.resource.org/cc/ShareAlike"/>
<cc:requires rdf:resource="http://web.resource.org/cc/SourceCode"/>
</cc:License>
</rdf:RDF>
</metadata>
<defs>
<radialGradient id="a" cx="858.04" cy="579.93" r="300" gradientTransform="matrix(1.215 1.5316e-24 1.4647e-23 1.2667 -839.19 -490.49)" gradientUnits="userSpaceOnUse">
<stop stop-color="#fff" stop-opacity=".31373" offset="0"/>
<stop stop-color="#fff" stop-opacity=".25098" offset=".19"/>
<stop stop-color="#6b6b6b" stop-opacity=".12549" offset=".6"/>
<stop stop-opacity=".12549" offset="1"/>
</radialGradient>
</defs>
<g>
<path d="m1.5 1.5v458.87c0 166.31 134.31 301.13 300 301.13 165.69 0 300-134.82 300-301.13v-458.87h-600z" fill="#fff"/>
<path d="m22.562 571.41c44.033 111.35 152.32 190.09 278.94 190.09 126.62 0 234.9-78.74 278.94-190.09h-557.88z" fill="#5ab532" fill-rule="evenodd" stroke="#000" stroke-width="2.7899"/>
<g transform="matrix(4.2105 0 0 4.2105 -2717.4 -2414.4)">
<g fill="#5ab532" fill-rule="evenodd" stroke="#000">
<path d="m721 624c6.5672 4.4701 12.036 10.45 20 13l-1-5 4 6c4 1 8 1 12-1l-2-3 6 2c4-1 9-5 11-9-15 0-22.752-1.3787-36-15l5 4c3 1 6 2 10 1l-1-3 5 2c5.7232-1.9275 8-6 10-10-11.204 3.4043-22.604-2.3892-34-8 2.7594 0.79709 5.4374 1.1868 8 1l-2-3c5.9006 2.0227 9.433-0.55159 12-5-16.615 1.1228-24.268-6.0145-31-14-7.4735 8.6528-16.459 14.721-30 13 1.206 6.0654 5.2724 7.4051 11 6l-3 3c3.1255 1.424 6.0676 0.27929 9-1-10.146 6.7015-20.527 12.382-33 9 0.41876 3.4701 1.1693 6.9165 7 10l7-2-3 4c7.4758 3.2447 11.678-3.6026 17-7-10.077 9.2031-19.67 19.449-37 13 2.4018 4.7474 4.4116 9.7265 11 12l7-4-3 4c3.3333 0.83585 8 1 11 0l5-5v4c6.9148-2.6172 14.496-7.4424 20-12-4 39 5.395 59.069-6 85h22c-10.611-27.589-5-48-8-85z"/>
<path d="m712.58 616.5c-4.2208 3.3982-6.6823 7.6409-11.683 10.454 1.4938 4.175 2.6813 5.3625 5.1 8.05l4-1-1 4c2.3465 2.4635 4.8312 4.3051 7.5706 5v-15 15c3.3158-0.95827 6.098-2.6636 8.4294-5l-1-5 4 2c2.7758-2.2787 4.7994-4.9336 6-8-4.8178-2.8422-8.4067-6.7084-12.08-10.504h-9.3368z"/>
<path d="m713 603c-2.4855 3-4.48 7-8 9.5592 2 2.8811 3.6036 4.726 5.0813 6.1282l3-3-3 3c2 1.6308 4.4252 3.3125 6.9063 4.8166l0.01248-12.504-0.01248 12.504c3.0125-1.5041 4.9687-2.2541 7.9687-4.2541l-3.3286-3.25 3.3286 3.25c2-1.5169 3.0437-2.6931 5.0437-5.25-3-2-6.3368-7-9-11h-8z"/>
<path d="m717 587c-1 4-3.48 9.4408-7 12 1 1 3 5 7 7l0.01248-7-0.01248 7c4-2 5-4 7-7-3-2-5.926-7.916-7-12z"/>
</g>
<g fill-rule="evenodd" stroke="#000">
<path d="m737 647c3.534 0.95922 3.206-1.2877 5-4-3.2297-1.4099-5 2-5 4z" fill="#e20909"/>
<path d="m737 684c-0.43848 6-1.0341 12-3 18-2.5003 1.3609-3.826 3.7005-4 7h8c-0.98964-1.9062-1.3671-3.8999-1-6l2 1c-1.5048-7.9867 1.8823-12.549 4-18l-6-2z" fill="#e20909"/>
<path d="m759 681c1 4 3 8 7 10-0.94877 3.6667-1.9143 7.3333-4 11-2.3175 1.2269-3.5799 2.5476-4 7h6c-0.48771-1.179-0.27466-2.0587 0-4l2-1c1.3087-7.1714 4-11 7-15-3.3897-5.1184-5.9717-11.788-14-8z" fill="#e20909"/>
<path d="m777 704c-0.36338-5.43 5.1216-10.417 6-16-7.1865-3.1848-6.7985-8.5338-6-14 1 1 2 2 4 1-1.3126-4.9446-2.2199-10.397-9.251-12-7.1591-1.6319-12.559 1.826-18.749 3-9.9122 3.4131-9.0381-3.0378-9-10 2.2872-2.0568 1-7-1-7 2.1768-0.99125 2-3 2-6-2.7321-0.4238-5 1-6 4-5 0-5 2-8 3-2.7434 0.12995-5 0-5 4h4-4c0 2 2.1352 1.3543 4 2 0.68463 2.9113 3.0402 3.0033 5 3 3 0 4-1 5-3-1 2-2 3-5 3 0.24525 1.7128 1.276 2.5182 0 6.1501-1.1054 3.1464-1.5019 6.352 0 9.8499 1.5143 3.9972-4.3272 10.962 7 11l-1-6 1 6 2 17c-2.0294 1.3137-2.702 3.532-3 6h8c0-2-0.44144-4.0751-1-6h2c-3.0783-4.365-2.8054-10.741-3.1133-16.768l0.11326-7.2322-0.11326 7.2322c9.8325-0.70913 10.113-5.2322 18.113-5.2322l-1-6 1 6c0.6314 5.0235 3.9747 8.2391 11 9-0.59749 4.1076-1.4029 8-3 12-3.0718 0.34654-4.5868 3.6151-5 7h7c-0.48032-1.2132-0.28411-2.5956 0-4l2-1z" fill="#e20909"/>
<path d="m737.69 651.59c-1.4556 0.41485-2.5924 0.50013-3.144-0.2442 0.68839-1.341 1.1482-0.82203 3.144 0.2442z"/>
</g>
<path d="m676 681c-1 4-4 7-8 9 2.6081 3.2518 5.8095 8.1095 7 12 2.3175 1.2269 4.5799 2.5476 5 7h-8c0.48771-1.179 1.2747-2.0587 1-4l-2-1c-1.3087-7.1714-6-11-9-15 3.3897-6.2366 5.9717-22.269 14-8z" fill="#e20909" fill-rule="evenodd" stroke="#000"/>
<path d="m699 683c0.43848 6 0.03407 13 2 19 2.5003 1.3609 3.826 3.7005 4 7h-8c0.98964-1.9062 1.3671-3.8999 1-6l-2 1c1.5048-7.9867-0.88229-13.549-3-19l6-2z" fill="#e20909" fill-rule="evenodd" stroke="#000"/>
<path d="m658 704c0.36338-5.43-6.1216-14.417-7-20 7.1865-3.1848 7-7 9-12-1 1-4 2-6 1 5-5 4.8868-11.186 12-10 6 1 9.8102 1.826 16 3 5.7474 1.979 8.3864-1.288 8.1498-5.3985-0.14978-2.6015-0.68977-6.6015 1.8502-8.1053-2.5612 0.99666-5 1.5038-7.5545-0.99248 1.7572-3.2758 4.2578-3.7026 8.5545-3.5038 7-2 8 1 11 2 2.7434 0.12995 5 0.51802 5 3.4388h-4 4c0 3.1224-2 2.5612-4 2.5612-0.68463 2.9113-3.0402 3.0033-5 3-3 0-4-1-5-3 1 2 2 3 5 3-0.24525 1.7128-0.27595 3.3681 1 7 1.515 8.3548 1.6733 18.481-8 20l1-6-1 6-2 17c2.0294 1.3137 2.702 3.532 3 6h-8c0-2 0.44144-4.0751 1-6h-2c3.0783-4.365 2.8054-10.741 3.1133-16.768l-0.11326-7.2322 0.11326 7.2322c-9.8325-0.70913-14.113-4.2322-18.113-9.2322 0.80683 3.8041-8.4269 11.874-12 11 1.194 4.033 4.267 9.767 4 14 3.0718 0.34654 4.5868 3.6151 5 7h-7c0.48032-1.2132 0.28411-2.5956 0-4l-2-1z" fill="#e20909" fill-rule="evenodd" stroke="#000"/>
<path d="m697.31 651.59c1.4556 0.41485 2.5924 0.50013 3.144-0.2442-0.68839-1.341-1.1482-0.82203-3.144 0.2442z" fill-rule="evenodd" stroke="#000"/>
<g fill="#e20909" fill-rule="evenodd" stroke="#000">
<path d="m692 648c-0.36344-1.6148-0.87223-1.2087 0-3l-5-5c-1-1-3 1-2 2l3 3c0.98277 1.6667 0.6512 1.3333 0 3h4z"/>
<path d="m695 648c-0.36344-1.6148-0.87223-3.2087 0-5l2-2c1-1 0.14164-2.7233-1-2l-3 2-3-3c-1-1-3 1-2 2l3 3c0.98277 1.6667 0.6512 3.3333 0 5h4z"/>
<path d="m668 682h7"/>
</g>
</g>
<path d="m1.5 1.5v458.87c0 166.31 134.31 301.13 300 301.13 165.69 0 300-134.82 300-301.13v-458.87h-600z" fill="url(#a)"/>
<path d="m1.5 1.5v458.87c0 166.31 134.31 301.13 300 301.13 165.69 0 300-134.82 300-301.13v-458.87h-600z" fill="none" stroke="#000" stroke-width="3"/>
</g>
</svg>
