<?xml version="1.0" encoding="UTF-8"?>
<svg version="1.0" viewBox="0 0 210.67 246.76" xmlns="http://www.w3.org/2000/svg">
<g transform="translate(-141.73 -194.88)" stroke="#000">
<path d="m142.73 195.88 3.7939 159.38c2.71 113.84 198.37 113.84 201.08 0l3.7939-159.38h-208.67z" fill-rule="evenodd" stroke-width="2"/>
<path d="m240.48 258.23c-1.0572-24.316-1.5858-42.112 4.4051-33.831 5.9909 8.2815 15.153 28.545 15.153 28.545l-19.558 5.2861z" fill="#fff" fill-rule="evenodd" stroke-width="1px"/>
<path d="m187.08 356.83c-4.1116-5.7313-11.836-13.207-10.84-26.663 7.006 12.717 16.753 20.293 27.784 26.788l-16.945-0.12461z" fill="#fff" fill-rule="evenodd" stroke-width="1px"/>
<path d="m172.7 361.79c-2.2025-6.2552 7.943-5.9496 12.186-6.0362 4.317-0.0881 27.998-7.833 33.214-10.22 5.1432-2.3533 10.836-8.2815 5.7266-17.796-5.1099-9.5149-18.942-15.594-24.404-15.242-5.4623 0.35241-13.039 3.3478-13.92 4.2289-0.88101 0.88101-7.0481 1.9382-7.4005-0.88102-0.3524-2.8192 40.174-17.444 40.174-17.444l33.831 52.684-79.407 10.706z" fill="#fff" fill-rule="evenodd" stroke-width="1px"/>
<path d="m177.24 293.91c-1.3662-3.445-1.6812-13.432-0.74756-15.45 0.95683-2.0677 0.67693-3.203-2.6165-0.12459-3.422 3.1986-2.8504 16.517 0.37377 16.945l2.9903-1.3705z" fill="#fff" fill-rule="evenodd" stroke-width="1px"/>
<path d="m233.18 344.62c-14.328-12.459-34.568-9.4449-48.218-7.1018-13.63 2.3396-19.935 1.2459-25.293-1.8689-3.8112-2.2158-8.8462-2.2427-3.987 2.6165s6.8814 10.446 26.663 7.8494c19.935-2.6165 41.241-2.1181 50.834-1.4951z" fill="#fff" fill-rule="evenodd" stroke-width="1px"/>
<path d="m196.18 362.19c-8.9708-11.961-11.836-19.437-9.7183-31.522 5.76 17.452 13.139 22.037 24.171 28.532l-14.453 2.9902z" fill="#fff" fill-rule="evenodd" stroke-width="1px"/>
<path d="m286.03 408.79c23.523-16.123 41.793-62.489 45.944-75.742 4.1394-13.218 6.9876-30.443 12.665-38.229-4.409-1.266-9.4949 2.0354-14.482 3.932 3.0535-4.7799 10.682-13.333 15.913-18.677-6.1377-1.0866-13.992 2.1438-18.368 7.0481 3.7884-6.0496 11.277-14.302 16.299-19.03-6.5782 0.36052-15.535 4.3332-22.025 8.5702 5.4623-8.319 12.334-15.405 20.439-20.728-8.0466 0.05874-13.803 2.8486-19.999 7.0481 4.6106-6.6663 9.3094-13.245 15.153-18.237-7.5767 1.204-13.479 4.3463-19.03 8.722 3.524-6.8719 8.1053-13.215 12.334-18.854-7.4592 3.4653-13.949 8.3402-21.232 12.687 4.8162-7.0481 8.4871-14.096 13.479-20.792-8.722 4.0233-16.475 8.9276-24.933 13.391 0.1762-8.164-0.70481-16.592-0.5286-24.756-4.4638 7.1656-8.2228 16.446-10.484 26.166-0.41114-7.6942-0.20557-17.679-0.61671-25.373-4.3757 5.8147-8.3109 12.598-10.308 22.554-1.4096-8.1053-1.2334-16.739-1.2334-25.549-4.963 7.4005-6.9306 17.62-8.6339 26.518-1.1453-7.9585-1.3215-17.679-2.0263-25.726-2.878 7.5767-5.4035 15.682-6.96 25.109-0.1762-7.3418-0.37443-18.751-2.3787-23.171-0.54307 4.6266-3.5539 16.204-4.4051 21.585-0.86479 5.4672-33.478 41.848-39.646 43.786-6.9653 2.1891-12.989 2.7338-19.735 6.3433-6.7823 3.6293-19.911 7.9291-28.897 7.4886-8.8982-0.4405-10.293-1.3286-10.308 3.524-0.01459 4.7646 1.0709 3.6478 3.3478 4.4932 2.2468 0.83414 4.0526 2.2906 1.2334 4.405-2.8192 2.1144-5.5946 2.8648-0.88101 7.4005 4.6694 4.4932 5.6152 8.1118 13.832 5.8147 8.1934-2.2906 20.878-9.9555 32.421-9.7792 11.541 0.17621 21.619 9.7624 25.902 18.589 4.317 8.8982 3.6122 17.18-4.1408 20.175s-30.571 8.5458-37.884 10.132c-7.2946 1.582-13.303 1.0572-13.303 1.0572s0.44165 7.4072 12.07 7.1362c11.63-0.2711 24.626-0.42865 26.695 0.96911 2.0687 1.3978 4.8749 3.5534 7.0481 5.0218-0.11747-1.8208 0.11748-3.5534 1e-5 -5.3742 4.8456 2.3494 9.2506 4.7868 13.039 7.6648 0.32304-2.9073-0.93974-6.079-3.2597-8.8101 5.1099 2.5549 10.044 5.5504 14.625 9.5149 0.52861-3.3772-0.61671-7.5473-2.9954-10.925 9.2212 3.9352 13.773 16.945 14.184 23.347 2.8192-1.9676 4.1408-4.0233 5.0218-8.722 1.0278 8.7808 0.64608 18.883 0 26.166 2.9367-3.0248 4.5519-6.4901 6.3433-11.541-0.32304 7.6942-1.7033 15.124-2.4668 22.466 5.0805-5.6385 9.4562-11.806 11.453-19.999-0.29367 5.2861-0.41114 11.189-1.4096 16.387 5.4623-3.5828 8.9863-6.9894 11.629-18.677 1.1159 2.1438 1.2628 9.3094 1.4977 13.479z" fill="#fff" fill-rule="evenodd" stroke-width="1px"/>
<path d="m189.33 318.2c8.5574 6.799 18.752 10.189 24.911-3.7549-2.3069-1.3756-4.781-2.4337-7.375-3.0625-1.1425 5.551-7.9747 5.3716-13.885 0.5153-6.1424-5.112-6.5205-13.503-6.2714-19.484 0.24919-5.9805-4.4314-2.7046-5.6067 2.9903-1.17 5.6689-2.3475 14.393 8.2277 22.796z" fill="#fff" fill-rule="evenodd" stroke-width="1px"/>
<path d="m263.46 273.48c9.7183-8.9708 16.637-33.35 37.004-47.719 20.309-14.328 16.197-6.8527 14.951-3.6132s-3.9724 11.212-2.7411 21.555c1.2459 10.466 1.8689 15.823-10.59 25.791-12.459 9.9675-17.194 11.213-17.194 11.213 6.7588 4.3344 17.131 14.649 19.529 17.987-1.0275-0.01515-2.678 0.0943-3.581 0.07915 3.1979 4.2777 5.8974 10.923 7.4756 16.322-1.7443-0.58144-3.4886-1.1629-5.233-1.7443 3.5717 6.5619 5.1499 12.376 5.4821 17.443-1.5782-1.4951-3.1564-2.9902-4.7346-4.4854 1.2044 6.645 0.91369 13.415 0.62297 19.312-1.2459-1.4121-2.4919-3.3225-3.364-5.1084-0.20765 6.1882-1.1629 11.38-2.4919 15.948-0.91369-1.4951-1.8274-2.9902-2.7411-4.4854-0.83063 5.6483-3.1564 9.926-5.233 14.577-0.16612-1.4121-0.58143-3.4471-0.74755-4.7346-2.5334 5.1914-6.562 8.5139-10.341 11.463-0.04153-1.2459 0.29073-4.4854 0.37379-6.1051-2.8657 3.6548-6.4789 6.3128-10.466 7.974" fill="#fff" fill-rule="evenodd" stroke-width="1px"/>
<path d="m276.42 275.32c16.915-17.973 13.06-28.425 23.083-41.76 9.9378-13.222 13.391-15.682 13.391-15.682" fill="#fff" fill-rule="evenodd" stroke-width="1px"/>
<path d="m238.89 284.31c9.8673-6.3433 14.449 1.4096 16.034 4.0526" fill="none" stroke-width="1px"/>
<path transform="matrix(.82222 0 0 .71111 23.526 26.532)" d="m273.29 365.97a3.9646 3.9646 0 1 1-7.9291 0 3.9646 3.9646 0 1 1 7.9291 0z" fill="none" stroke-linecap="round" stroke-width="1.0172"/>
<path d="m157.54 312.17c3.8624 1.9935 5.1235-1.5707 5.3726-5.6823s-2.1181-9.7183-4.2362-10.715-4.3498-1.9944-5.4154-1.2699c-1.1266 0.766-1.1074 2.4907-1.0649 4.1616 0.04254 1.671-0.47094 3.2551 0.95538 3.5507 1.3417 0.27812 5.2757 3.4156 5.5249 0.48952-0.10432 2.2621-2.0514 3.7316 0.5651 3.8562 1.5642 0.07448 1.1933 4.4885 0.40815 6.0138-1.233 0.32132-1.0908 0.0427-2.1097-0.40448z" fill="#fff" fill-rule="evenodd" stroke-width="1px"/>
</g>
</svg>
