<?xml version="1.0" encoding="UTF-8" standalone="no"?>
<!-- Created with Inkscape (http://www.inkscape.org/) -->

<svg
   xmlns:dc="http://purl.org/dc/elements/1.1/"
   xmlns:cc="http://creativecommons.org/ns#"
   xmlns:rdf="http://www.w3.org/1999/02/22-rdf-syntax-ns#"
   xmlns:svg="http://www.w3.org/2000/svg"
   xmlns="http://www.w3.org/2000/svg"
   xmlns:sodipodi="http://sodipodi.sourceforge.net/DTD/sodipodi-0.dtd"
   xmlns:inkscape="http://www.inkscape.org/namespaces/inkscape"
   version="1.0"
   width="208.86046"
   height="244.65999"
   id="svg2780"
   inkscape:version="0.92.5 (2060ec1f9f, 2020-04-08)"
   sodipodi:docname="Heimenhausen-blazon.svg">
  <metadata
     id="metadata27">
    <rdf:RDF>
      <cc:Work
         rdf:about="">
        <dc:format>image/svg+xml</dc:format>
        <dc:type
           rdf:resource="http://purl.org/dc/dcmitype/StillImage" />
        <dc:title></dc:title>
      </cc:Work>
    </rdf:RDF>
  </metadata>
  <sodipodi:namedview
     pagecolor="#ffffff"
     bordercolor="#666666"
     borderopacity="1"
     objecttolerance="10"
     gridtolerance="10"
     guidetolerance="10"
     inkscape:pageopacity="0"
     inkscape:pageshadow="2"
     inkscape:window-width="3287"
     inkscape:window-height="1417"
     id="namedview25"
     showgrid="false"
     inkscape:zoom="4.0000001"
     inkscape:cx="258.09907"
     inkscape:cy="117.26223"
     inkscape:window-x="-8"
     inkscape:window-y="-8"
     inkscape:window-maximized="1"
     inkscape:current-layer="svg2780"
     inkscape:measure-start="104.255,149.787"
     inkscape:measure-end="104.255,126.383"
     showguides="true"
     inkscape:object-paths="true"
     inkscape:snap-intersection-paths="true"
     inkscape:snap-object-midpoints="true" />
  <defs
     id="defs2782" />
  <path
     id="path4212-6"
     style="fill:#cc2918;fill-opacity:1;fill-rule:evenodd;stroke:#000000;stroke-width:1.99999988;stroke-linecap:butt;stroke-miterlimit:4;stroke-dashoffset:0;stroke-opacity:1"
     d="M 1.000033,149.10355 V 0.99999834 c 68.953472,0 137.906947,0 206.860417,0 V 149.10355 c 0,51.44535 -51.71515,94.56785 -103.43021,94.56785 -51.71506,0 -103.430207,-43.1225 -103.430207,-94.56785 z"
     inkscape:connector-curvature="0"
     sodipodi:nodetypes="sccscs" />
  <path
     id="path4173-5-9-49-7"
     style="opacity:1;fill:#feeb00;fill-opacity:1;stroke:#000000;stroke-width:1;stroke-miterlimit:8;stroke-dasharray:none;stroke-dashoffset:4.57999992;stroke-opacity:1"
     d="m 194.88741,31.461379 -22.66677,2.196519 -9.431,-20.726747 -9.43101,20.726747 -22.66677,-2.196509 13.23577,18.530226 -13.23577,18.530239 22.66677,-2.19652 9.43102,20.726757 9.43099,-20.726757 22.66678,2.196508 -13.23578,-18.530227 z"
     inkscape:connector-curvature="0"
     sodipodi:nodetypes="ccccccccccccc" />
  <path
     id="path9987-9-9-4-6"
     style="opacity:1;fill:#1b63c6;fill-opacity:1;stroke:#000000;stroke-width:0.99999994;stroke-miterlimit:20;stroke-dasharray:none;stroke-dashoffset:4.57999992;stroke-opacity:1"
     d="m 48.761322,1.1580297 c 0.88435,5.0966678 2.080593,9.9618593 5.144138,13.4418373 7.355978,8.355887 23.998615,7.045226 31.355355,15.401983 7.35674,8.356748 3.94693,24.698985 11.3029,33.054863 7.355965,8.355886 23.998605,7.045226 31.355345,15.401976 7.35674,8.35676 3.94692,24.698981 11.30289,33.054861 7.35598,8.35589 23.99861,7.04523 31.35536,15.40199 7.35673,8.35674 3.94692,24.69898 11.30289,33.05486 5.21043,5.91869 15.08018,6.98744 23.0089,10.07721 -7.37492,23.79247 -21.78046,42.23551 -42.47375,55.89436 -0.64722,-1.3522 -1.43361,-2.60117 -2.40944,-3.70964 -7.35676,-8.35676 -23.99936,-7.0461 -31.35536,-15.40201 -7.35597,-8.35588 -3.94617,-24.69811 -11.3029,-33.05486 -7.35675,-8.35676 -23.999375,-7.0461 -31.355345,-15.40199 -7.35597,-8.35588 -3.94616,-24.6981 -11.302902,-33.05486 C 67.33266,116.96186 50.69004,118.27252 43.33406,109.91663 35.97809,101.56076 39.387901,85.218509 32.03116,76.861769 24.775957,68.620369 8.4894665,69.781328 0.98568024,61.800325 0.88065382,61.688619 0.77734794,61.575122 0.67581145,61.459784 L 1.000033,1.0000359 Z"
     inkscape:connector-curvature="0"
     sodipodi:nodetypes="csssssssccssssssssccc" />
  <g
     id="g1271"
     transform="matrix(1.0608005,0,0,1.0603643,-14.463639,-22.444896)"
     style="stroke-width:0.94287825">
    <path
       sodipodi:nodetypes="ccssscscsccscsssscc"
       inkscape:connector-curvature="0"
       d="m 67.624998,184.44692 h -2.8125 l -0.75,24.83807 c -0.06107,2.02236 -0.758232,3.64812 -2.8125,4.5625 -2.691346,1.19795 -8.469094,2.22064 -8.423782,5.24111 0.04467,2.97781 1.860447,4.19661 4.40625,5.15625 -0.0096,-2.07644 -0.455952,-4.35261 2.468749,-5.375 1.761635,-0.61581 6.248152,-0.82485 7.835406,-2.9751 1.308728,1.56627 3.16806,2.90935 5.025877,3.95274 3.009989,1.69047 1.718679,7.18696 -1.539026,11.63057 6.696023,-0.68733 9.213502,-6.58185 7.330803,-12.93281 1.87441,0.44104 5.865262,0.36541 8.333206,0.22917 3.705817,-0.20457 6.116439,2.41888 6.000017,7.88557 4.030225,-2.61764 3.613503,-6.19017 1.610821,-8.91319 -1.554048,-2.11302 -4.007551,-3.23325 -7.391283,-2.9276 -2.883917,0.2605 -5.867127,-0.1132 -9.032071,-0.29466 -5.051159,-0.29013 -6.650199,-3.02585 -6.687467,-5.23955 -0.139428,-8.28196 -0.75,-24.83807 -0.75,-24.83807 h -2.8125"
       style="opacity:1;fill:#009645;fill-opacity:1;stroke:#000000;stroke-width:0.94287825;stroke-miterlimit:20;stroke-dasharray:none;stroke-dashoffset:4.57999992;stroke-opacity:1"
       id="path951-4" />
    <path
       sodipodi:nodetypes="ccccccccccccc"
       inkscape:connector-curvature="0"
       d="m 53.249999,165.60212 c 3.032915,0.14871 5.934575,-0.0354 8.749999,-0.8125 -3.366166,6.40675 -8.958945,13.18007 -19.124999,16.2698 3.398291,1.8347 6.802017,2.4363 11.1875,1.25 -3.032307,7.43889 -8.715799,15.14993 -18.062533,17.16265 13.354713,10.1609 27.651655,3.47203 31.625032,-7.51953 3.973377,10.99156 17.715195,16.58169 33.819542,8.75478 -9.114899,-2.88697 -17.224735,-10.95901 -20.257042,-18.3979 4.385483,1.1863 7.789209,0.5847 11.1875,-1.25 -10.166054,-3.08973 -15.758834,-9.86305 -19.125,-16.2698 2.815424,0.7771 5.717085,0.96121 8.75,0.8125 -8.381023,-5.77331 -11.834664,-15.18646 -14.375,-23.6731 -2.374684,9.17148 -6.657213,18.70556 -14.374999,23.6731 z"
       style="opacity:1;fill:#009645;fill-opacity:1;stroke:#000000;stroke-width:0.94287825;stroke-miterlimit:20;stroke-dasharray:none;stroke-dashoffset:4.57999992;stroke-opacity:1"
       id="path945-7" />
  </g>
  <g
     id="g1359"
     transform="matrix(0.9342112,0,0,0.93427241,13.361264,10.741871)"
     style="stroke-width:1.07038677">
    <path
       sodipodi:nodetypes="ccc"
       inkscape:connector-curvature="0"
       id="path994"
       d="m 101.13172,131.08025 c 1.9872,6.44899 4.71229,12.42468 8.34459,17.0931 1.21906,-3.04461 2.76285,-5.5654 6.40487,-8.09484"
       style="opacity:1;fill:#ffffff;fill-opacity:1;stroke:#000000;stroke-width:1.07038677;stroke-miterlimit:20;stroke-dasharray:none;stroke-dashoffset:4.57999992;stroke-opacity:1" />
    <path
       sodipodi:nodetypes="ccc"
       inkscape:connector-curvature="0"
       id="path992"
       d="m 77.752953,112.94179 c 0.535215,6.32068 1.798382,11.46466 5.17345,15.42994 1.254098,-2.48501 3.131072,-4.26249 5.0324,-6.01229"
       style="opacity:1;fill:#ffffff;fill-opacity:1;stroke:#000000;stroke-width:1.07038677;stroke-miterlimit:20;stroke-dasharray:none;stroke-dashoffset:4.57999992;stroke-opacity:1" />
    <path
       sodipodi:nodetypes="ccc"
       inkscape:connector-curvature="0"
       id="path996"
       d="m 124.34215,132.38023 c 2.41939,-2.92578 5.60532,-5.39301 9.84064,-6.41483 -3.86888,-3.739 -9.10093,-7.104 -15.70092,-8.66027"
       style="opacity:1;fill:#ffffff;fill-opacity:1;stroke:#000000;stroke-width:1.07038677;stroke-miterlimit:20;stroke-dasharray:none;stroke-dashoffset:4.57999992;stroke-opacity:1" />
    <path
       sodipodi:nodetypes="cscscscsc"
       inkscape:connector-curvature="0"
       id="path998"
       d="m 130.11104,140.54127 c 3.89427,2.53712 7.13254,3.37605 12.33655,2.37931 4.362,-0.83547 11.50643,-1.31881 14.43643,2.65023 -3.43806,0.58683 -5.73568,2.10544 -7.33516,4.75422 -2.50634,4.15059 -6.61455,6.7993 -10.91014,7.02327 0.30872,2.7901 -0.39423,5.64781 -2.12945,8.01207 -4.17678,5.69091 -6.7295,5.65452 -6.48927,10.79238 -4.86826,-3.1208 -7.6856,-6.11444 -6.34115,-11.84882 1.46788,-6.26085 0.006,-10.39321 -2.54319,-17.02707"
       style="opacity:1;fill:#ffffff;fill-opacity:1;stroke:#000000;stroke-width:1.07038677;stroke-miterlimit:20;stroke-dasharray:none;stroke-dashoffset:4.57999992;stroke-opacity:1" />
    <path
       sodipodi:nodetypes="cc"
       inkscape:connector-curvature="0"
       id="path1000"
       d="m 132.5254,146.0503 c 3.68232,1.02642 8.4124,1.71849 12.33555,1.50525"
       style="opacity:1;fill:none;fill-opacity:1;stroke:#000000;stroke-width:1.07038677;stroke-miterlimit:20;stroke-dasharray:none;stroke-dashoffset:4.57999992;stroke-opacity:1" />
    <path
       sodipodi:nodetypes="cc"
       inkscape:connector-curvature="0"
       id="path1002"
       d="m 131.88464,149.67612 c 2.1064,1.19508 5.47341,2.56613 7.63218,2.93845"
       style="opacity:1;fill:none;fill-opacity:1;stroke:#000000;stroke-width:1.07038677;stroke-miterlimit:20;stroke-dasharray:none;stroke-dashoffset:4.57999992;stroke-opacity:1" />
    <path
       sodipodi:nodetypes="cc"
       inkscape:connector-curvature="0"
       id="path1004"
       d="m 130.40297,150.86272 c 1.34899,3.30927 2.37796,6.43721 2.53852,9.82913"
       style="opacity:1;fill:none;fill-opacity:1;stroke:#000000;stroke-width:1.07038677;stroke-miterlimit:20;stroke-dasharray:none;stroke-dashoffset:4.57999992;stroke-opacity:1" />
    <path
       sodipodi:nodetypes="cc"
       inkscape:connector-curvature="0"
       id="path1006"
       d="m 126.48022,151.48984 c 1.25846,4.65267 2.09203,9.14782 1.7277,13.19888"
       style="opacity:1;fill:none;fill-opacity:1;stroke:#000000;stroke-width:1.07038677;stroke-miterlimit:20;stroke-dasharray:none;stroke-dashoffset:4.57999992;stroke-opacity:1" />
    <path
       sodipodi:nodetypes="cccc"
       inkscape:connector-curvature="0"
       id="path1008"
       d="m 90.683454,80.242022 c 4.115621,0.03206 8.170881,-0.04023 12.867426,0.996022 5.03059,6.195826 9.09268,12.426646 12.45035,18.682916 -3.50015,-0.15331 -5.56027,0.57719 -7.73962,1.2345"
       style="opacity:1;fill:#ffffff;fill-opacity:1;stroke:#000000;stroke-width:1.07038677;stroke-miterlimit:20;stroke-dasharray:none;stroke-dashoffset:4.57999992;stroke-opacity:1" />
    <path
       sodipodi:nodetypes="cc"
       inkscape:connector-curvature="0"
       id="path1010-3"
       d="m 102.83608,95.54811 c 2.21906,-0.43414 4.71468,-0.74198 7.36054,-0.76845"
       style="opacity:1;fill:none;fill-opacity:1;stroke:#000000;stroke-width:1.07038677;stroke-miterlimit:20;stroke-dasharray:none;stroke-dashoffset:4.57999992;stroke-opacity:1" />
    <path
       sodipodi:nodetypes="cc"
       inkscape:connector-curvature="0"
       id="path1010-0"
       d="m 99.198395,90.772392 c 2.244145,-0.478867 5.305085,-0.620233 7.546385,-0.490458"
       style="opacity:1;fill:none;fill-opacity:1;stroke:#000000;stroke-width:1.07038677;stroke-miterlimit:20;stroke-dasharray:none;stroke-dashoffset:4.57999992;stroke-opacity:1" />
    <path
       sodipodi:nodetypes="cc"
       inkscape:connector-curvature="0"
       id="path1010"
       d="m 95.613085,85.928307 c 2.29042,-0.31879 5.006845,-0.35433 7.832455,-0.06518"
       style="opacity:1;fill:none;fill-opacity:1;stroke:#000000;stroke-width:1.07038677;stroke-miterlimit:20;stroke-dasharray:none;stroke-dashoffset:4.57999992;stroke-opacity:1" />
    <path
       sodipodi:nodetypes="csssssscsccsc"
       inkscape:connector-curvature="0"
       id="path984"
       d="m 48.132827,54.539812 c 18.03993,-7.653479 40.276785,20.5112 56.495233,38.819808 7.93265,8.95496 15.02894,18.91003 19.18776,32.09595 2.81361,8.9208 6.69764,12.5632 9.60097,18.39691 4.02796,8.09345 -5.29786,12.31413 -11.67187,6.27136 -5.28631,-5.01159 -9.46285,-10.75671 -19.05994,-15.30837 C 88.971838,128.31222 78.89905,117.70942 69.093641,105.5649 63.700769,98.88554 59.490294,91.91989 55.913768,84.88744 54.190122,84.042107 51.890274,81.271202 50.528701,79.590689 43.585109,71.020677 42.525643,63.643697 43.619242,59.29786 c 2.87308,3.097376 6.063904,6.179187 9.409315,7.418286 -1.059669,-2.180785 -1.985998,-4.10173 -2.480182,-6.295232 -0.397815,-1.765768 -1.238269,-3.822332 -2.415548,-5.881102 z"
       style="opacity:1;fill:#ffffff;fill-opacity:1;stroke:#000000;stroke-width:1.07038677;stroke-miterlimit:20;stroke-dasharray:none;stroke-dashoffset:4.57999992;stroke-opacity:1" />
    <circle
       transform="rotate(48.641413)"
       r="4.3320413"
       cy="-4.7342615"
       cx="91.347427"
       id="path986"
       style="opacity:1;fill:none;fill-opacity:1;stroke:#000000;stroke-width:1.07038677;stroke-miterlimit:20;stroke-dasharray:none;stroke-dashoffset:4.57999992;stroke-opacity:1" />
    <circle
       transform="rotate(48.641413)"
       r="1.8043779"
       cy="-4.7342615"
       cx="91.347427"
       id="path988"
       style="opacity:1;fill:#000000;fill-opacity:1;stroke:#000000;stroke-width:1.07038677;stroke-miterlimit:20;stroke-dasharray:none;stroke-dashoffset:4.57999992;stroke-opacity:1" />
    <path
       sodipodi:nodetypes="cc"
       inkscape:connector-curvature="0"
       id="path990"
       d="M 55.913768,84.88744 C 64.35815,88.600684 74.94872,80.80481 75.472915,70.273809"
       style="opacity:1;fill:none;fill-opacity:1;stroke:#000000;stroke-width:1.07038677;stroke-miterlimit:20;stroke-dasharray:none;stroke-dashoffset:4.57999992;stroke-opacity:1" />
    <g
       transform="rotate(48.641413,-55.8265,473.07732)"
       id="g1093"
       style="stroke:#000000;stroke-width:1.07038677;stroke-opacity:1">
      <circle
         style="opacity:1;fill:none;fill-opacity:1;stroke:#000000;stroke-width:1.07038677;stroke-miterlimit:20;stroke-dasharray:none;stroke-dashoffset:4.57999992;stroke-opacity:1"
         id="path1033"
         cx="-235.9375"
         cy="111.15999"
         r="3.8125" />
      <circle
         style="opacity:1;fill:none;fill-opacity:1;stroke:#000000;stroke-width:1.07038677;stroke-miterlimit:20;stroke-dasharray:none;stroke-dashoffset:4.57999992;stroke-opacity:1"
         id="path1033-9"
         cx="-215.5625"
         cy="113.47249"
         r="3.8125" />
      <circle
         style="opacity:1;fill:none;fill-opacity:1;stroke:#000000;stroke-width:1.07038677;stroke-miterlimit:20;stroke-dasharray:none;stroke-dashoffset:4.57999992;stroke-opacity:1"
         id="path1033-7"
         cx="-254.875"
         cy="111.90999"
         r="3.8125" />
      <circle
         style="opacity:1;fill:none;fill-opacity:1;stroke:#000000;stroke-width:1.07038677;stroke-miterlimit:20;stroke-dasharray:none;stroke-dashoffset:4.57999992;stroke-opacity:1"
         id="path1033-8"
         cx="-244.8125"
         cy="117.65999"
         r="3.0625" />
      <circle
         style="opacity:1;fill:none;fill-opacity:1;stroke:#000000;stroke-width:1.07038677;stroke-miterlimit:20;stroke-dasharray:none;stroke-dashoffset:4.57999992;stroke-opacity:1"
         id="path1033-8-0"
         cx="-226.875"
         cy="117.78499"
         r="3.0625" />
      <circle
         style="opacity:1;fill:none;fill-opacity:1;stroke:#000000;stroke-width:1.07038677;stroke-miterlimit:20;stroke-dasharray:none;stroke-dashoffset:4.57999992;stroke-opacity:1"
         id="path1033-8-6"
         cx="-206.0625"
         cy="118.48978"
         r="2.5625" />
    </g>
    <path
       sodipodi:nodetypes="cccc"
       inkscape:connector-curvature="0"
       id="path1085"
       d="m 61.300294,88.955842 c -0.223425,4.705588 -0.04722,9.590748 1.023777,14.878008 2.520778,-2.47698 5.241682,-4.63242 8.141201,-6.50084 -2.397658,-3.09538 -3.41284,-5.56139 -4.790216,-8.854418"
       style="opacity:1;fill:#ffffff;fill-opacity:1;stroke:#000000;stroke-width:1.07038677;stroke-miterlimit:20;stroke-dasharray:none;stroke-dashoffset:4.57999992;stroke-opacity:1" />
    <path
       sodipodi:nodetypes="cc"
       inkscape:connector-curvature="0"
       id="path1083"
       d="M 64.410095,88.799483 C 69.16632,87.836241 74.579442,83.915311 77.037988,78.598657"
       style="opacity:1;fill:none;fill-opacity:1;stroke:#000000;stroke-width:1.07038677;stroke-miterlimit:20;stroke-dasharray:none;stroke-dashoffset:4.57999992;stroke-opacity:1" />
  </g>
  <path
     id="path4212-6-3"
     style="fill:none;fill-opacity:1;fill-rule:evenodd;stroke:#000000;stroke-width:1.99999988;stroke-linecap:butt;stroke-miterlimit:4;stroke-dashoffset:0;stroke-opacity:1"
     d="M 1.000033,149.10355 V 0.99999834 c 68.953472,0 137.906947,0 206.860417,0 V 149.10355 c 0,51.44535 -51.71515,94.56785 -103.43021,94.56785 -51.71506,0 -103.430207,-43.1225 -103.430207,-94.56785 z"
     inkscape:connector-curvature="0"
     sodipodi:nodetypes="sccscs" />
</svg>
